<?xml version="1.0" encoding="utf-8" standalone="no"?>
<!DOCTYPE svg PUBLIC "-//W3C//DTD SVG 1.1//EN"
  "http://www.w3.org/Graphics/SVG/1.1/DTD/svg11.dtd">
<svg xmlns:xlink="http://www.w3.org/1999/xlink" width="605.95117pt" height="622.335335pt" viewBox="0 0 605.95117 622.335335" xmlns="http://www.w3.org/2000/svg" version="1.1">
 <metadata>
  <rdf:RDF xmlns:dc="http://purl.org/dc/elements/1.1/" xmlns:cc="http://creativecommons.org/ns#" xmlns:rdf="http://www.w3.org/1999/02/22-rdf-syntax-ns#">
   <cc:Work>
    <dc:type rdf:resource="http://purl.org/dc/dcmitype/StillImage"/>
    <dc:date>2024-11-16T04:23:00.810108</dc:date>
    <dc:format>image/svg+xml</dc:format>
    <dc:creator>
     <cc:Agent>
      <dc:title>Matplotlib v3.8.4, https://matplotlib.org/</dc:title>
     </cc:Agent>
    </dc:creator>
   </cc:Work>
  </rdf:RDF>
 </metadata>
 <defs>
  <style type="text/css">*{stroke-linejoin: round; stroke-linecap: butt}</style>
 </defs>
 <g id="figure_1">
  <g id="patch_1">
   <path d="M 0 622.335335 
L 605.95117 622.335335 
L 605.95117 0 
L 0 0 
z
" style="fill: #ffffff"/>
  </g>
  <g id="axes_1">
   <g id="patch_2">
    <path d="M 306.61899 84.544511 
L 309.054111 84.556687 
L 311.488988 84.593213 
L 313.923379 84.654085 
L 316.357039 84.739298 
L 318.789725 84.848843 
L 321.221194 84.982709 
L 323.651202 85.140882 
L 326.079508 85.323347 
L 328.505867 85.530086 
L 330.930038 85.761078 
L 333.351778 86.016299 
L 335.770844 86.295724 
L 338.186996 86.599326 
L 340.59999 86.927074 
L 343.009587 87.278935 
L 345.415544 87.654874 
L 347.817622 88.054853 
L 350.21558 88.478833 
L 352.609179 88.92677 
L 354.998178 89.398621 
L 357.38234 89.894338 
L 359.761425 90.413871 
L 362.135196 90.957169 
L 364.503415 91.524177 
L 366.865846 92.114838 
L 369.222253 92.729094 
L 371.572399 93.366883 
L 373.91605 94.02814 
L 376.252971 94.712801 
L 378.582929 95.420797 
L 380.905691 96.152056 
L 383.221024 96.906506 
L 385.528696 97.684071 
L 387.828478 98.484674 
L 390.120139 99.308234 
L 392.40345 100.154669 
L 394.678183 101.023894 
L 396.94411 101.915823 
L 399.201004 102.830367 
L 401.44864 103.767433 
L 403.686793 104.726928 
L 405.91524 105.708757 
L 408.133757 106.71282 
L 410.342123 107.739018 
L 412.540116 108.787248 
L 414.727518 109.857405 
L 416.904108 110.949383 
L 419.069671 112.063071 
L 421.223988 113.198359 
L 423.366845 114.355133 
L 425.498027 115.533277 
L 427.617321 116.732674 
L 429.724516 117.953203 
L 431.8194 119.194743 
L 433.901764 120.45717 
L 435.9714 121.740356 
L 438.028101 123.044175 
L 440.071662 124.368495 
L 442.101877 125.713184 
L 444.118543 127.078107 
L 446.12146 128.463129 
L 448.110427 129.86811 
L 450.085245 131.29291 
L 452.045716 132.737387 
L 453.991645 134.201397 
L 455.922837 135.684791 
L 457.839098 137.187424 
L 459.740237 138.709143 
L 461.626065 140.249798 
L 463.496392 141.809233 
L 465.351031 143.387293 
L 467.189797 144.983821 
L 469.012507 146.598656 
L 470.818977 148.231637 
L 472.609027 149.882601 
L 474.382478 151.551382 
L 476.139153 153.237815 
L 477.878877 154.941729 
L 478.810901 155.868736 
L 480.550213 154.129424 
L 479.608774 153.193053 
L 477.851478 151.471928 
L 476.077059 149.768461 
L 474.285694 148.082823 
L 472.477562 146.415182 
L 470.652845 144.765707 
L 468.811725 143.13456 
L 466.954385 141.521906 
L 465.081012 139.927906 
L 463.191793 138.352718 
L 461.286917 136.796502 
L 459.366574 135.259411 
L 457.430956 133.741601 
L 455.480258 132.243222 
L 453.514673 130.764425 
L 451.534399 129.305358 
L 449.539634 127.866165 
L 447.530576 126.446992 
L 445.507428 125.047981 
L 443.470391 123.66927 
L 441.419668 122.310998 
L 439.355466 120.973301 
L 437.27799 119.656313 
L 435.187449 118.360165 
L 433.084051 117.084987 
L 430.968006 115.830906 
L 428.839527 114.598048 
L 426.698825 113.386536 
L 424.546116 112.196491 
L 422.381614 111.028033 
L 420.205536 109.881277 
L 418.018099 108.75634 
L 415.819523 107.653332 
L 413.610027 106.572365 
L 411.389831 105.513547 
L 409.159159 104.476983 
L 406.918232 103.462778 
L 404.667276 102.471032 
L 402.406515 101.501845 
L 400.136176 100.555313 
L 397.856485 99.631532 
L 395.56767 98.730594 
L 393.26996 97.852588 
L 390.963585 96.997603 
L 388.648776 96.165725 
L 386.325764 95.357035 
L 383.994781 94.571616 
L 381.656061 93.809545 
L 379.309838 93.070899 
L 376.956345 92.355752 
L 374.595818 91.664176 
L 372.228494 90.996238 
L 369.854609 90.352007 
L 367.474401 89.731547 
L 365.088107 89.13492 
L 362.695966 88.562184 
L 360.298217 88.013399 
L 357.895101 87.488618 
L 355.486857 86.987894 
L 353.073726 86.511277 
L 350.65595 86.058814 
L 348.23377 85.630552 
L 345.807429 85.226533 
L 343.377169 84.846796 
L 340.943233 84.491381 
L 338.505865 84.160323 
L 336.065308 83.853655 
L 333.621806 83.571407 
L 331.175604 83.313607 
L 328.726947 83.080282 
L 326.276079 82.871455 
L 323.823245 82.687147 
L 321.368691 82.527376 
L 318.912661 82.392158 
L 316.455403 82.281507 
L 313.99716 82.195433 
L 311.53818 82.133946 
L 309.078708 82.097051 
L 306.61899 82.084752 
z
" clip-path="url(#p4bcbf9bec1)" style="fill: #000080"/>
   </g>
   <g id="patch_3">
    <path d="M 478.810901 155.868736 
L 480.524182 157.599236 
L 482.220072 159.346782 
L 483.898403 161.111199 
L 485.559006 162.892311 
L 487.201715 164.68994 
L 488.826365 166.503905 
L 490.432796 168.334026 
L 492.020845 170.18012 
L 493.590353 172.042002 
L 495.141165 173.919485 
L 496.673125 175.812382 
L 498.18608 177.720504 
L 499.679878 179.64366 
L 501.15437 181.581658 
L 502.609409 183.534303 
L 504.044849 185.501401 
L 505.460546 187.482754 
L 506.85636 189.478166 
L 508.23215 191.487435 
L 509.587779 193.510362 
L 510.923111 195.546743 
L 512.238012 197.596376 
L 513.532353 199.659055 
L 514.806001 201.734574 
L 516.058832 203.822726 
L 517.290718 205.923301 
L 518.501538 208.03609 
L 519.69117 210.160882 
L 520.859494 212.297463 
L 522.006395 214.44562 
L 523.131757 216.605139 
L 524.235468 218.775803 
L 525.317417 220.957396 
L 526.377497 223.149699 
L 527.415601 225.352493 
L 528.431626 227.565558 
L 529.425469 229.788672 
L 530.397033 232.021613 
L 531.346218 234.264158 
L 532.272931 236.516083 
L 533.177079 238.777162 
L 534.058571 241.047169 
L 534.917319 243.325877 
L 535.753238 245.613059 
L 536.566244 247.908486 
L 537.356255 250.211928 
L 538.123192 252.523154 
L 538.866979 254.841935 
L 539.587542 257.168037 
L 540.284808 259.501228 
L 540.958707 261.841275 
L 541.609173 264.187944 
L 542.23614 266.541 
L 542.839546 268.900209 
L 543.419329 271.265333 
L 543.975433 273.636136 
L 544.507801 276.012383 
L 545.016381 278.393833 
L 545.501121 280.780251 
L 545.961973 283.171396 
L 546.398891 285.567031 
L 546.811831 287.966914 
L 547.200752 290.370807 
L 547.565615 292.778469 
L 547.906384 295.18966 
L 548.223024 297.604137 
L 548.515504 300.02166 
L 548.783795 302.441987 
L 549.027869 304.864875 
L 549.247702 307.290083 
L 549.443273 309.717369 
L 549.614562 312.146488 
L 549.761551 314.577199 
L 549.884226 317.009258 
L 549.982575 319.442423 
L 550.056588 321.876449 
L 550.106257 324.311093 
L 550.131578 326.746113 
L 550.132547 329.181264 
L 550.109166 331.616303 
L 550.061435 334.050986 
L 549.989361 336.485071 
L 549.89295 338.918313 
L 549.772211 341.350469 
L 549.627158 343.781296 
L 549.457803 346.210551 
L 549.264166 348.637991 
L 549.046263 351.063374 
L 548.804119 353.486456 
L 548.537756 355.906996 
L 548.247201 358.324751 
L 547.932484 360.739479 
L 547.593635 363.15094 
L 547.230689 365.558892 
L 546.843683 367.963094 
L 546.432654 370.363306 
L 545.997644 372.759287 
L 545.538696 375.150799 
L 545.055856 377.537602 
L 544.549173 379.919457 
L 544.018697 382.296126 
L 543.464482 384.667372 
L 542.886582 387.032957 
L 542.285055 389.392645 
L 541.659962 391.7462 
L 541.011365 394.093386 
L 540.339329 396.433969 
L 539.643922 398.767715 
L 538.925212 401.09439 
L 538.183271 403.413762 
L 537.418175 405.725598 
L 536.629998 408.029668 
L 535.818821 410.325742 
L 534.984724 412.613589 
L 534.12779 414.89298 
L 533.248106 417.163689 
L 532.345759 419.425487 
L 531.420839 421.678149 
L 530.47344 423.921449 
L 529.503655 426.155163 
L 528.511582 428.379068 
L 527.49732 430.592941 
L 526.460971 432.796561 
L 525.402637 434.989708 
L 524.322425 437.172161 
L 523.220443 439.343704 
L 522.096801 441.504118 
L 520.951611 443.653188 
L 519.784989 445.790699 
L 518.59705 447.916437 
L 517.387913 450.030189 
L 516.157699 452.131745 
L 514.906532 454.220894 
L 513.634537 456.297427 
L 512.341839 458.361136 
L 511.02857 460.411815 
L 509.69486 462.449259 
L 508.340843 464.473265 
L 506.966653 466.483629 
L 505.572429 468.480151 
L 504.15831 470.462631 
L 502.724437 472.430872 
L 501.270954 474.384675 
L 499.798005 476.323846 
L 498.305739 478.248191 
L 496.794304 480.157517 
L 495.263852 482.051634 
L 493.714536 483.930352 
L 492.14651 485.793482 
L 490.559932 487.64084 
L 488.95496 489.47224 
L 487.331754 491.287499 
L 485.690477 493.086435 
L 484.031293 494.868869 
L 482.354368 496.634622 
L 480.65987 498.383518 
L 478.947967 500.115381 
L 477.218832 501.83004 
L 475.472637 503.527321 
L 473.709557 505.207056 
L 471.929768 506.869077 
L 470.133448 508.513217 
L 468.320777 510.139312 
L 466.491936 511.747199 
L 464.647107 513.336717 
L 462.786476 514.907708 
L 460.910228 516.460015 
L 459.018551 517.993482 
L 457.111635 519.507955 
L 455.189669 521.003284 
L 453.252846 522.479319 
L 451.30136 523.935913 
L 449.335406 525.372919 
L 447.355181 526.790193 
L 445.360882 528.187595 
L 443.352709 529.564985 
L 441.330862 530.922224 
L 439.295545 532.259178 
L 437.24696 533.575711 
L 435.185312 534.871693 
L 433.110808 536.146995 
L 431.023654 537.401488 
L 428.924061 538.635046 
L 426.812236 539.847548 
L 424.688393 541.038871 
L 422.552743 542.208897 
L 420.405499 543.357508 
L 418.246877 544.484589 
L 416.077093 545.590028 
L 413.896362 546.673715 
L 411.704904 547.73554 
L 409.502938 548.775398 
L 407.290683 549.793185 
L 405.068361 550.788798 
L 402.836194 551.762139 
L 400.594406 552.71311 
L 398.34322 553.641616 
L 396.082861 554.547564 
L 393.813557 555.430864 
L 391.535533 556.291426 
L 389.249017 557.129166 
L 386.954239 557.943999 
L 384.651427 558.735845 
L 382.340812 559.504622 
L 380.022624 560.250256 
L 377.697097 560.97267 
L 375.364462 561.671794 
L 373.024952 562.347557 
L 370.678801 562.999891 
L 368.326245 563.628732 
L 365.967518 564.234016 
L 363.602857 564.815683 
L 361.232496 565.373674 
L 358.856675 565.907934 
L 356.47563 566.41841 
L 354.089599 566.905051 
L 351.698822 567.367807 
L 349.303536 567.806632 
L 346.903982 568.221483 
L 344.500399 568.612319 
L 342.093028 568.979099 
L 339.68211 569.321788 
L 337.267886 569.64035 
L 334.850597 569.934755 
L 332.430484 570.204973 
L 330.007791 570.450977 
L 327.582759 570.672741 
L 325.15563 570.870245 
L 322.726648 571.043468 
L 320.296055 571.192393 
L 317.864094 571.317005 
L 315.431008 571.417291 
L 312.997042 571.493242 
L 310.562438 571.54485 
L 308.127439 571.57211 
L 306.61899 571.576782 
L 306.61899 574.036541 
L 308.142676 574.031821 
L 310.602271 574.004286 
L 313.061467 573.952157 
L 315.520019 573.875439 
L 317.977681 573.77414 
L 320.434207 573.648269 
L 322.889351 573.49784 
L 325.342869 573.322867 
L 327.794514 573.123368 
L 330.244042 572.899364 
L 332.691207 572.650875 
L 335.135765 572.377928 
L 337.577471 572.080549 
L 340.016081 571.758769 
L 342.451352 571.412619 
L 344.88304 571.042134 
L 347.310901 570.64735 
L 349.734693 570.228309 
L 352.154173 569.785051 
L 354.5691 569.31762 
L 356.979232 568.826065 
L 359.384328 568.310432 
L 361.784148 567.770775 
L 364.178451 567.207148 
L 366.566998 566.619605 
L 368.949551 566.008207 
L 371.32587 565.373015 
L 373.695719 564.714091 
L 376.05886 564.031503 
L 378.415058 563.325317 
L 380.764075 562.595605 
L 383.105679 561.84244 
L 385.439633 561.065897 
L 387.765706 560.266054 
L 390.083664 559.44299 
L 392.393276 558.596788 
L 394.69431 557.727533 
L 396.986537 556.835311 
L 399.269727 555.920212 
L 401.543652 554.982327 
L 403.808085 554.02175 
L 406.062799 553.038578 
L 408.307569 552.032907 
L 410.542169 551.00484 
L 412.766378 549.954478 
L 414.979972 548.881927 
L 417.18273 547.787295 
L 419.374432 546.67069 
L 421.554858 545.532224 
L 423.723791 544.372011 
L 425.881013 543.190167 
L 428.02631 541.98681 
L 430.159465 540.762061 
L 432.280267 539.516041 
L 434.388503 538.248877 
L 436.483962 536.960694 
L 438.566434 535.651621 
L 440.635712 534.321789 
L 442.691588 532.971331 
L 444.733857 531.600382 
L 446.762315 530.20908 
L 448.776758 528.797563 
L 450.776986 527.365972 
L 452.762799 525.914451 
L 454.733996 524.443144 
L 456.690383 522.9522 
L 458.631763 521.441767 
L 460.557941 519.911995 
L 462.468726 518.363039 
L 464.363925 516.795052 
L 466.243351 515.208193 
L 468.106814 513.602618 
L 469.954128 511.97849 
L 471.78511 510.33597 
L 473.599574 508.675223 
L 475.397341 506.996414 
L 477.17823 505.299712 
L 478.942063 503.585286 
L 480.688664 501.853308 
L 482.417858 500.103951 
L 484.129473 498.337389 
L 485.823336 496.5538 
L 487.49928 494.753362 
L 489.157135 492.936255 
L 490.796737 491.10266 
L 492.417921 489.252761 
L 494.020526 487.386743 
L 495.60439 485.504793 
L 497.169356 483.607098 
L 498.715267 481.693849 
L 500.241969 479.765237 
L 501.749308 477.821454 
L 503.237135 475.862696 
L 504.7053 473.889157 
L 506.153657 471.901035 
L 507.58206 469.89853 
L 508.990367 467.881841 
L 510.378437 465.85117 
L 511.746132 463.80672 
L 513.093313 461.748695 
L 514.419848 459.677302 
L 515.725603 457.592748 
L 517.010447 455.49524 
L 518.274252 453.384989 
L 519.516892 451.262205 
L 520.738242 449.127102 
L 521.938181 446.979891 
L 523.116587 444.820789 
L 524.273345 442.650012 
L 525.408337 440.467775 
L 526.52145 438.274298 
L 527.612573 436.069799 
L 528.681597 433.8545 
L 529.728415 431.628621 
L 530.752922 429.392386 
L 531.755016 427.146017 
L 532.734596 424.88974 
L 533.691565 422.62378 
L 534.625827 420.348364 
L 535.537289 418.06372 
L 536.425859 415.770075 
L 537.291448 413.467659 
L 538.133971 411.156702 
L 538.953342 408.837436 
L 539.749479 406.510093 
L 540.522304 404.174904 
L 541.271739 401.832104 
L 541.997709 399.481928 
L 542.700141 397.124609 
L 543.378965 394.760383 
L 544.034113 392.389488 
L 544.665521 390.01216 
L 545.273123 387.628637 
L 545.85686 385.239157 
L 546.416674 382.843959 
L 546.952508 380.443283 
L 547.46431 378.037369 
L 547.952026 375.626457 
L 548.41561 373.210789 
L 548.855014 370.790605 
L 549.270195 368.366149 
L 549.661111 365.937662 
L 550.027723 363.505387 
L 550.369994 361.069568 
L 550.68789 358.630449 
L 550.98138 356.188272 
L 551.250433 353.743282 
L 551.495024 351.295725 
L 551.715127 348.845843 
L 551.910721 346.393883 
L 552.081786 343.94009 
L 552.228304 341.484709 
L 552.350262 339.027986 
L 552.447647 336.570166 
L 552.52045 334.111495 
L 552.568662 331.652219 
L 552.59228 329.192583 
L 552.591301 326.732835 
L 552.565724 324.273219 
L 552.515553 321.813982 
L 552.440793 319.35537 
L 552.341451 316.897628 
L 552.217536 314.441003 
L 552.069062 311.985739 
L 551.896044 309.532083 
L 551.698497 307.08028 
L 551.476443 304.630574 
L 551.229904 302.183212 
L 550.958903 299.738438 
L 550.663469 297.296495 
L 550.34363 294.85763 
L 549.99942 292.422084 
L 549.630871 289.990102 
L 549.238022 287.561927 
L 548.82091 285.137802 
L 548.379579 282.71797 
L 547.914072 280.302671 
L 547.424435 277.892148 
L 546.910719 275.486642 
L 546.372973 273.086394 
L 545.811252 270.691643 
L 545.225612 268.302628 
L 544.616111 265.91959 
L 543.982811 263.542765 
L 543.325775 261.172393 
L 542.645069 258.808709 
L 541.94076 256.45195 
L 541.212919 254.102352 
L 540.461618 251.760149 
L 539.686934 249.425577 
L 538.888943 247.098868 
L 538.067726 244.780255 
L 537.223363 242.469971 
L 536.355941 240.168245 
L 535.465544 237.875308 
L 534.552264 235.59139 
L 533.61619 233.316719 
L 532.657417 231.051522 
L 531.67604 228.796025 
L 530.672158 226.550456 
L 529.64587 224.315037 
L 528.59728 222.089992 
L 527.526492 219.875545 
L 526.433614 217.671916 
L 525.318754 215.479326 
L 524.182025 213.297994 
L 523.02354 211.128138 
L 521.843414 208.969975 
L 520.641766 206.823721 
L 519.418716 204.689591 
L 518.174386 202.567797 
L 516.908901 200.458553 
L 515.622387 198.362069 
L 514.314972 196.278555 
L 512.986789 194.208219 
L 511.637968 192.151268 
L 510.268646 190.107908 
L 508.87896 188.078343 
L 507.469047 186.062776 
L 506.039049 184.061408 
L 504.58911 182.074441 
L 503.119374 180.102072 
L 501.629988 178.144499 
L 500.121101 176.201917 
L 498.592864 174.274521 
L 497.04543 172.362504 
L 495.478953 170.466056 
L 493.893591 168.585367 
L 492.289501 166.720626 
L 490.666844 164.872019 
L 489.025782 163.03973 
L 487.366481 161.223944 
L 485.689104 159.424841 
L 483.993821 157.642601 
L 482.2808 155.877403 
L 480.550213 154.129424 
z
" clip-path="url(#p4bcbf9bec1)" style="fill: #00d4ff"/>
   </g>
   <g id="patch_4">
    <path d="M 306.61899 571.576782 
L 304.18387 571.564606 
L 301.748992 571.52808 
L 299.314602 571.467208 
L 296.880942 571.381995 
L 294.448256 571.27245 
L 292.016787 571.138584 
L 289.586779 570.980411 
L 287.158473 570.797946 
L 284.732113 570.591207 
L 282.307943 570.360215 
L 279.886203 570.104994 
L 277.467136 569.825568 
L 275.050985 569.521967 
L 272.63799 569.194219 
L 270.228394 568.842358 
L 267.822436 568.466419 
L 265.420359 568.06644 
L 263.022401 567.64246 
L 260.628802 567.194523 
L 258.239803 566.722672 
L 255.855641 566.226955 
L 253.476556 565.707422 
L 251.102785 565.164124 
L 248.734566 564.597116 
L 246.372134 564.006455 
L 244.015728 563.392199 
L 241.665582 562.75441 
L 239.321931 562.093153 
L 236.98501 561.408492 
L 234.655052 560.700496 
L 232.33229 559.969237 
L 230.016957 559.214787 
L 227.709285 558.437222 
L 225.409503 557.636619 
L 223.117842 556.813059 
L 220.834531 555.966624 
L 218.559798 555.097398 
L 216.293871 554.205469 
L 214.036977 553.290926 
L 211.789341 552.35386 
L 209.551187 551.394365 
L 207.322741 550.412536 
L 205.104224 549.408473 
L 202.895858 548.382275 
L 200.697865 547.334045 
L 198.510463 546.263888 
L 196.333873 545.17191 
L 194.16831 544.058222 
L 192.013993 542.922934 
L 189.871136 541.76616 
L 187.739954 540.588016 
L 185.62066 539.388619 
L 183.513465 538.16809 
L 181.418581 536.92655 
L 179.336217 535.664123 
L 177.26658 534.380937 
L 175.209879 533.077118 
L 173.166319 531.752798 
L 171.136104 530.408109 
L 169.119438 529.043186 
L 167.116521 527.658164 
L 165.127554 526.253183 
L 163.152736 524.828382 
L 161.192265 523.383906 
L 159.246336 521.919896 
L 157.315144 520.436502 
L 155.398883 518.933869 
L 153.497743 517.41215 
L 151.611916 515.871495 
L 149.741589 514.31206 
L 147.88695 512.734 
L 146.048183 511.137472 
L 144.225474 509.522637 
L 142.419004 507.889656 
L 140.628954 506.238692 
L 138.855503 504.56991 
L 137.098828 502.883478 
L 135.359104 501.179564 
L 133.636507 499.458338 
L 131.931208 497.719972 
L 130.243377 495.96464 
L 128.573184 494.192518 
L 126.920795 492.403783 
L 125.286376 490.598614 
L 123.67009 488.777191 
L 122.072098 486.939697 
L 120.492562 485.086315 
L 118.931637 483.217231 
L 117.389482 481.332631 
L 115.866249 479.432704 
L 114.362091 477.517639 
L 112.877159 475.58763 
L 111.411601 473.642867 
L 109.965563 471.683547 
L 108.53919 469.709864 
L 107.132626 467.722017 
L 105.74601 465.720204 
L 104.37948 463.704624 
L 103.033175 461.675481 
L 101.707228 459.632976 
L 100.401772 457.577314 
L 99.116938 455.5087 
L 97.852854 453.427342 
L 96.609646 451.333447 
L 95.387439 449.227225 
L 94.186355 447.108886 
L 93.006514 444.978643 
L 91.848034 442.836708 
L 90.711031 440.683296 
L 89.595618 438.518621 
L 88.501908 436.342901 
L 87.430009 434.156352 
L 86.380029 431.959194 
L 85.352073 429.751646 
L 84.346243 427.533929 
L 83.362641 425.306265 
L 82.401363 423.068877 
L 81.462508 420.821988 
L 80.546167 418.565822 
L 79.652434 416.300606 
L 78.781398 414.026567 
L 77.933145 411.74393 
L 77.10776 409.452926 
L 76.305326 407.153782 
L 75.525924 404.84673 
L 74.76963 402.531998 
L 74.036521 400.20982 
L 73.326671 397.880426 
L 72.640149 395.544051 
L 71.977025 393.200927 
L 71.337365 390.85129 
L 70.721233 388.495373 
L 70.128691 386.133413 
L 69.559797 383.765646 
L 69.014609 381.392308 
L 68.493182 379.013638 
L 67.995566 376.629872 
L 67.521813 374.241249 
L 67.07197 371.848008 
L 66.646081 369.450388 
L 66.244189 367.04863 
L 65.866334 364.642972 
L 65.512554 362.233657 
L 65.182885 359.820924 
L 64.877359 357.405015 
L 64.596008 354.986172 
L 64.338858 352.564636 
L 64.105936 350.14065 
L 63.897265 347.714456 
L 63.712866 345.286296 
L 63.552758 342.856414 
L 63.416956 340.425053 
L 63.305474 337.992455 
L 63.218323 335.558864 
L 63.155512 333.124523 
L 63.117047 330.689675 
L 63.102932 328.254565 
L 63.113169 325.819435 
L 63.147756 323.38453 
L 63.20669 320.950092 
L 63.289965 318.516365 
L 63.397572 316.083592 
L 63.529502 313.652017 
L 63.68574 311.221883 
L 63.866271 308.793433 
L 64.071078 306.36691 
L 64.300139 303.942556 
L 64.553432 301.520614 
L 64.830931 299.101326 
L 65.132608 296.684933 
L 65.458434 294.271678 
L 65.808376 291.861802 
L 66.182399 289.455546 
L 66.580466 287.053151 
L 67.002536 284.654856 
L 67.448567 282.260902 
L 67.918515 279.871527 
L 68.412333 277.486972 
L 68.929972 275.107473 
L 69.471379 272.73327 
L 70.036501 270.3646 
L 70.625281 268.0017 
L 71.23766 265.644805 
L 71.873577 263.294151 
L 72.532968 260.949975 
L 73.215768 258.612509 
L 73.921908 256.281988 
L 74.651317 253.958645 
L 75.403923 251.642712 
L 76.17965 249.334421 
L 76.978421 247.034002 
L 77.800156 244.741686 
L 78.644773 242.457701 
L 79.512187 240.182277 
L 80.402311 237.915641 
L 81.315057 235.658019 
L 82.250333 233.409637 
L 83.208045 231.170721 
L 84.188099 228.941493 
L 85.190395 226.722177 
L 86.214834 224.512995 
L 87.261314 222.314167 
L 88.329729 220.125915 
L 89.419972 217.948455 
L 90.531936 215.782007 
L 91.665508 213.626786 
L 92.820575 211.483009 
L 93.997022 209.350889 
L 95.194731 207.23064 
L 96.413582 205.122474 
L 97.653453 203.026602 
L 98.914221 200.943233 
L 100.195759 198.872576 
L 101.497939 196.814837 
L 102.820631 194.770223 
L 104.163703 192.738938 
L 105.52702 190.721185 
L 106.910447 188.717166 
L 108.313844 186.727081 
L 109.737071 184.751129 
L 111.179986 182.789508 
L 112.642445 180.842414 
L 114.124302 178.910042 
L 115.625408 176.992584 
L 117.145613 175.090234 
L 118.684765 173.20318 
L 120.24271 171.331612 
L 121.819293 169.475716 
L 123.414356 167.635679 
L 125.027739 165.811685 
L 126.659281 164.003915 
L 128.308819 162.212551 
L 129.976188 160.437771 
L 131.661221 158.679753 
L 133.363749 156.938674 
L 134.42708 155.868736 
L 132.687768 154.129424 
L 131.613696 155.210169 
L 129.893971 156.968835 
L 128.191917 158.744611 
L 126.507706 160.537317 
L 124.841506 162.346776 
L 123.193484 164.172806 
L 121.563804 166.015225 
L 119.95263 167.873848 
L 118.360122 169.74849 
L 116.786439 171.638963 
L 115.23174 173.545078 
L 113.696179 175.466644 
L 112.179911 177.40347 
L 110.683086 179.355361 
L 109.205855 181.322123 
L 107.748365 183.303558 
L 106.310761 185.299469 
L 104.893189 187.309656 
L 103.495788 189.333918 
L 102.1187 191.372052 
L 100.762062 193.423855 
L 99.426009 195.489122 
L 98.110676 197.567646 
L 96.816193 199.659219 
L 95.54269 201.763632 
L 94.290295 203.880674 
L 93.059132 206.010135 
L 91.849325 208.1518 
L 90.660995 210.305457 
L 89.494261 212.470888 
L 88.349238 214.647879 
L 87.226043 216.836211 
L 86.124787 219.035665 
L 85.04558 221.246021 
L 83.98853 223.467059 
L 82.953743 225.698556 
L 81.941322 227.940289 
L 80.951369 230.192035 
L 79.983983 232.453567 
L 79.039259 234.724659 
L 78.117294 237.005085 
L 77.218178 239.294617 
L 76.342003 241.593025 
L 75.488855 243.90008 
L 74.65882 246.215551 
L 73.85198 248.539206 
L 73.068417 250.870814 
L 72.308209 253.21014 
L 71.571432 255.556951 
L 70.85816 257.911013 
L 70.168463 260.272089 
L 69.502411 262.639944 
L 68.860071 265.014342 
L 68.241506 267.395043 
L 67.646779 269.781812 
L 67.075949 272.174408 
L 66.529073 274.572593 
L 66.006205 276.976126 
L 65.507399 279.384768 
L 65.032704 281.798278 
L 64.582167 284.216414 
L 64.155834 286.638934 
L 63.753747 289.065596 
L 63.375946 291.496158 
L 63.022469 293.930376 
L 62.693352 296.368007 
L 62.388627 298.808807 
L 62.108325 301.252533 
L 61.852474 303.698939 
L 61.621099 306.147781 
L 61.414224 308.598815 
L 61.231869 311.051795 
L 61.074052 313.506476 
L 60.94079 315.962612 
L 60.832096 318.419958 
L 60.74798 320.878268 
L 60.68845 323.337296 
L 60.653514 325.796797 
L 60.643174 328.256524 
L 60.657432 330.716231 
L 60.696285 333.175673 
L 60.75973 335.634603 
L 60.847762 338.092776 
L 60.96037 340.549946 
L 61.097543 343.005867 
L 61.259269 345.460293 
L 61.445531 347.912979 
L 61.656309 350.36368 
L 61.891584 352.812151 
L 62.151331 355.258147 
L 62.435525 357.701423 
L 62.744137 360.141735 
L 63.077136 362.578839 
L 63.434489 365.012491 
L 63.81616 367.442448 
L 64.222112 369.868466 
L 64.652303 372.290304 
L 65.10669 374.70772 
L 65.585229 377.12047 
L 66.08787 379.528314 
L 66.614565 381.931012 
L 67.16526 384.328323 
L 67.7399 386.720007 
L 68.338427 389.105825 
L 68.960783 391.485539 
L 69.606904 393.85891 
L 70.276726 396.225701 
L 70.970183 398.585677 
L 71.687203 400.938599 
L 72.427717 403.284234 
L 73.19165 405.622347 
L 73.978925 407.952703 
L 74.789465 410.27507 
L 75.623187 412.589216 
L 76.480008 414.894909 
L 77.359843 417.191919 
L 78.262604 419.480016 
L 79.1882 421.758971 
L 80.136539 424.028556 
L 81.107526 426.288544 
L 82.101064 428.53871 
L 83.117054 430.778828 
L 84.155393 433.008674 
L 85.215979 435.228026 
L 86.298705 437.436661 
L 87.403463 439.634358 
L 88.530142 441.820898 
L 89.67863 443.996062 
L 90.848812 446.159633 
L 92.040571 448.311394 
L 93.253787 450.45113 
L 94.488339 452.578627 
L 95.744105 454.693672 
L 97.020958 456.796054 
L 98.31877 458.885563 
L 99.637413 460.961989 
L 100.976753 463.025126 
L 102.336657 465.074765 
L 103.71699 467.110704 
L 105.117612 469.132738 
L 106.538384 471.140665 
L 107.979165 473.134283 
L 109.439809 475.113395 
L 110.920171 477.077801 
L 112.420102 479.027306 
L 113.939453 480.961714 
L 115.478072 482.880832 
L 117.035806 484.784469 
L 118.612497 486.672433 
L 120.207988 488.544536 
L 121.822121 490.400591 
L 123.454733 492.240412 
L 125.105662 494.063815 
L 126.774741 495.870618 
L 128.461805 497.66064 
L 130.166685 499.433702 
L 131.889209 501.189627 
L 133.629206 502.92824 
L 135.386503 504.649365 
L 137.160922 506.352832 
L 138.952287 508.03847 
L 140.760418 509.706111 
L 142.585136 511.355586 
L 144.426256 512.986733 
L 146.283596 514.599387 
L 148.156969 516.193387 
L 150.046188 517.768575 
L 151.951064 519.324791 
L 153.871407 520.861882 
L 155.807025 522.379692 
L 157.757723 523.878071 
L 159.723308 525.356868 
L 161.703582 526.815935 
L 163.698347 528.255128 
L 165.707405 529.674301 
L 167.730553 531.073312 
L 169.76759 532.452023 
L 171.818313 533.810295 
L 173.882515 535.147992 
L 175.95999 536.46498 
L 178.050532 537.761128 
L 180.15393 539.036306 
L 182.269975 540.290387 
L 184.398454 541.523245 
L 186.539156 542.734757 
L 188.691865 543.924802 
L 190.856367 545.09326 
L 193.032445 546.240016 
L 195.219881 547.364953 
L 197.418458 548.467961 
L 199.627954 549.548928 
L 201.84815 550.607746 
L 204.078822 551.64431 
L 206.319748 552.658515 
L 208.570705 553.650261 
L 210.831465 554.619448 
L 213.101805 555.565979 
L 215.381496 556.489761 
L 217.670311 557.390699 
L 219.968021 558.268705 
L 222.274396 559.123689 
L 224.589205 559.955568 
L 226.912217 560.764258 
L 229.243199 561.549677 
L 231.58192 562.311748 
L 233.928143 563.050394 
L 236.281636 563.765541 
L 238.642163 564.457117 
L 241.009487 565.125054 
L 243.383372 565.769285 
L 245.76358 566.389746 
L 248.149874 566.986373 
L 250.542015 567.559109 
L 252.939764 568.107894 
L 255.34288 568.632675 
L 257.751124 569.133399 
L 260.164255 569.610016 
L 262.582031 570.062479 
L 265.004211 570.490741 
L 267.430552 570.89476 
L 269.860812 571.274496 
L 272.294748 571.629912 
L 274.732116 571.96097 
L 277.172673 572.267638 
L 279.616175 572.549886 
L 282.062377 572.807686 
L 284.511034 573.041011 
L 286.961902 573.249837 
L 289.414736 573.434146 
L 291.86929 573.593917 
L 294.32532 573.729135 
L 296.782578 573.839786 
L 299.24082 573.92586 
L 301.699801 573.987347 
L 304.159272 574.024242 
L 306.61899 574.036541 
z
" clip-path="url(#p4bcbf9bec1)" style="fill: #ffe600"/>
   </g>
   <g id="patch_5">
    <path d="M 134.42708 155.868736 
L 136.15758 154.155455 
L 137.905126 152.459565 
L 139.669543 150.781234 
L 141.450655 149.120631 
L 143.248284 147.477922 
L 145.062249 145.853272 
L 146.89237 144.246841 
L 148.738464 142.658792 
L 150.600346 141.089283 
L 152.477829 139.538471 
L 154.370726 138.006512 
L 156.278848 136.493557 
L 158.202004 134.999759 
L 160.140002 133.525267 
L 162.092647 132.070228 
L 164.059745 130.634788 
L 166.041098 129.219091 
L 168.03651 127.823277 
L 170.045779 126.447487 
L 172.068706 125.091858 
L 174.105087 123.756526 
L 176.15472 122.441624 
L 178.217399 121.147284 
L 180.292918 119.873635 
L 182.38107 118.620805 
L 184.481645 117.388918 
L 186.594434 116.178099 
L 188.719225 114.988467 
L 190.855807 113.820143 
L 193.003964 112.673242 
L 195.163483 111.54788 
L 197.334147 110.444169 
L 199.51574 109.36222 
L 201.708043 108.30214 
L 203.910837 107.264036 
L 206.123902 106.248011 
L 208.347016 105.254167 
L 210.579957 104.282604 
L 212.822502 103.333419 
L 215.074427 102.406706 
L 217.335505 101.502558 
L 219.605513 100.621066 
L 221.884221 99.762317 
L 224.171403 98.926399 
L 226.46683 98.113393 
L 228.770272 97.323382 
L 231.081498 96.556445 
L 233.400279 95.812658 
L 235.726381 95.092095 
L 238.059572 94.394829 
L 240.399619 93.720929 
L 242.746288 93.070464 
L 245.099344 92.443497 
L 247.458553 91.840091 
L 249.823677 91.260308 
L 252.19448 90.704204 
L 254.570726 90.171836 
L 256.952177 89.663256 
L 259.338595 89.178516 
L 261.72974 88.717664 
L 264.125375 88.280746 
L 266.525258 87.867806 
L 268.929151 87.478885 
L 271.336813 87.114021 
L 273.748004 86.773253 
L 276.162481 86.456613 
L 278.580004 86.164133 
L 281.000331 85.895842 
L 283.423219 85.651768 
L 285.848427 85.431935 
L 288.275713 85.236364 
L 290.704832 85.065075 
L 293.135543 84.918086 
L 295.567602 84.795411 
L 298.000767 84.697062 
L 300.434793 84.623049 
L 302.869437 84.57338 
L 305.304457 84.548059 
L 306.61899 84.544511 
L 306.61899 82.084752 
L 305.291179 82.088336 
L 302.831563 82.113913 
L 300.372326 82.164083 
L 297.913714 82.238844 
L 295.455972 82.338186 
L 292.999346 82.4621 
L 290.544083 82.610574 
L 288.090427 82.783593 
L 285.638624 82.98114 
L 283.188918 83.203194 
L 280.741556 83.449733 
L 278.296782 83.720734 
L 275.854839 84.016168 
L 273.415973 84.336006 
L 270.980428 84.680217 
L 268.548446 85.048766 
L 266.120271 85.441615 
L 263.696146 85.858727 
L 261.276314 86.300058 
L 258.861015 86.765565 
L 256.450492 87.255202 
L 254.044986 87.768918 
L 251.644738 88.306664 
L 249.249987 88.868385 
L 246.860972 89.454025 
L 244.477934 90.063525 
L 242.101109 90.696825 
L 239.730737 91.353862 
L 237.367053 92.034568 
L 235.010294 92.738877 
L 232.660696 93.466718 
L 230.318493 94.218019 
L 227.983921 94.992703 
L 225.657212 95.790694 
L 223.338599 96.611911 
L 221.028315 97.456274 
L 218.726589 98.323696 
L 216.433652 99.214092 
L 214.149734 100.127373 
L 211.875063 101.063447 
L 209.609866 102.02222 
L 207.354369 103.003597 
L 205.1088 104.007479 
L 202.873381 105.033767 
L 200.648336 106.082357 
L 198.433889 107.153145 
L 196.23026 108.246023 
L 194.03767 109.360883 
L 191.856338 110.497612 
L 189.686482 111.656097 
L 187.528319 112.836223 
L 185.382065 114.037871 
L 183.247935 115.260921 
L 181.126141 116.505251 
L 179.016897 117.770736 
L 176.920413 119.05725 
L 174.836899 120.364665 
L 172.766563 121.692848 
L 170.709612 123.041669 
L 168.666252 124.410991 
L 166.636687 125.800677 
L 164.62112 127.21059 
L 162.619752 128.640587 
L 160.632785 130.090527 
L 158.660416 131.560263 
L 156.702843 133.049649 
L 154.760261 134.558536 
L 152.832865 136.086773 
L 150.920848 137.634207 
L 149.0244 139.200684 
L 147.143711 140.786046 
L 145.27897 142.390136 
L 143.430363 144.012793 
L 141.598074 145.653854 
L 139.782288 147.313156 
L 137.983185 148.990533 
L 136.200945 150.685816 
L 134.435747 152.398837 
L 132.687768 154.129424 
z
" clip-path="url(#p4bcbf9bec1)" style="fill: #800000"/>
   </g>
   <g id="PatchCollection_1">
    <path d="M 478.810901 155.868736 
L 478.810901 155.868736 
L 480.524182 157.599236 
L 482.220072 159.346782 
L 483.898403 161.111199 
L 485.559006 162.892311 
L 487.201715 164.68994 
L 488.826365 166.503905 
L 490.432796 168.334026 
L 492.020845 170.18012 
L 493.590353 172.042002 
L 495.141165 173.919485 
L 496.673125 175.812382 
L 498.18608 177.720504 
L 499.679878 179.64366 
L 501.15437 181.581658 
L 502.609409 183.534303 
L 504.044849 185.501401 
L 505.460546 187.482754 
L 506.85636 189.478166 
L 508.23215 191.487435 
L 509.587779 193.510362 
L 510.923111 195.546743 
L 512.238012 197.596376 
L 513.532353 199.659055 
L 514.806001 201.734574 
L 516.058832 203.822726 
L 517.290718 205.923301 
L 518.501538 208.03609 
L 519.69117 210.160882 
L 520.859494 212.297463 
L 522.006395 214.44562 
L 523.131757 216.605139 
L 524.235468 218.775803 
L 525.317417 220.957396 
L 526.377497 223.149699 
L 527.415601 225.352493 
L 528.431626 227.565558 
L 529.425469 229.788672 
L 530.397033 232.021613 
L 531.346218 234.264158 
L 532.272931 236.516083 
L 533.177079 238.777162 
L 534.058571 241.047169 
L 534.917319 243.325877 
L 535.753238 245.613059 
L 536.566244 247.908486 
L 537.356255 250.211928 
L 538.123192 252.523154 
L 538.866979 254.841935 
L 539.587542 257.168037 
L 540.284808 259.501228 
L 540.958707 261.841275 
L 541.609173 264.187944 
L 542.23614 266.541 
L 542.839546 268.900209 
L 543.419329 271.265333 
L 543.975433 273.636136 
L 544.507801 276.012383 
L 545.016381 278.393833 
L 545.501121 280.780251 
L 545.961973 283.171396 
L 546.398891 285.567031 
L 546.811831 287.966914 
L 547.200752 290.370807 
L 547.565615 292.778469 
L 547.906384 295.18966 
L 548.223024 297.604137 
L 548.515504 300.02166 
L 548.783795 302.441987 
L 549.027869 304.864875 
L 549.247702 307.290083 
L 549.443273 309.717369 
L 549.614562 312.146488 
L 549.761551 314.577199 
L 549.884226 317.009258 
L 549.982575 319.442423 
L 550.056588 321.876449 
L 550.106257 324.311093 
L 550.131578 326.746113 
L 550.132547 329.181264 
L 550.109166 331.616303 
L 550.061435 334.050986 
L 549.989361 336.485071 
L 549.89295 338.918313 
L 549.772211 341.350469 
L 549.627158 343.781296 
L 549.457803 346.210551 
L 549.264166 348.637991 
L 549.046263 351.063374 
L 548.804119 353.486456 
L 548.537756 355.906996 
L 548.247201 358.324751 
L 547.932484 360.739479 
L 547.593635 363.15094 
L 547.230689 365.558892 
L 546.843683 367.963094 
L 546.432654 370.363306 
L 545.997644 372.759287 
L 545.538696 375.150799 
L 545.055856 377.537602 
L 544.549173 379.919457 
L 544.018697 382.296126 
L 543.464482 384.667372 
L 542.886582 387.032957 
L 542.285055 389.392645 
L 541.659962 391.7462 
L 541.011365 394.093386 
L 540.339329 396.433969 
L 539.643922 398.767715 
L 538.925212 401.09439 
L 538.183271 403.413762 
L 537.418175 405.725598 
L 536.629998 408.029668 
L 535.818821 410.325742 
L 534.984724 412.613589 
L 534.12779 414.89298 
L 533.248106 417.163689 
L 532.345759 419.425487 
L 531.420839 421.678149 
L 530.47344 423.921449 
L 529.503655 426.155163 
L 528.511582 428.379068 
L 527.49732 430.592941 
L 526.460971 432.796561 
L 525.402637 434.989708 
L 524.322425 437.172161 
L 523.220443 439.343704 
L 522.096801 441.504118 
L 520.951611 443.653188 
L 519.784989 445.790699 
L 518.59705 447.916437 
L 517.387913 450.030189 
L 516.157699 452.131745 
L 514.906532 454.220894 
L 513.634537 456.297427 
L 512.341839 458.361136 
L 511.02857 460.411815 
L 509.69486 462.449259 
L 508.340843 464.473265 
L 506.966653 466.483629 
L 505.572429 468.480151 
L 504.15831 470.462631 
L 502.724437 472.430872 
L 501.270954 474.384675 
L 499.798005 476.323846 
L 498.305739 478.248191 
L 496.794304 480.157517 
L 495.263852 482.051634 
L 493.714536 483.930352 
L 492.14651 485.793482 
L 490.559932 487.64084 
L 488.95496 489.47224 
L 487.331754 491.287499 
L 485.690477 493.086435 
L 484.031293 494.868869 
L 482.354368 496.634622 
L 480.65987 498.383518 
L 478.947967 500.115381 
L 477.218832 501.83004 
L 475.472637 503.527321 
L 473.709557 505.207056 
L 471.929768 506.869077 
L 470.133448 508.513217 
L 468.320777 510.139312 
L 466.491936 511.747199 
L 464.647107 513.336717 
L 462.786476 514.907708 
L 460.910228 516.460015 
L 459.018551 517.993482 
L 457.111635 519.507955 
L 455.189669 521.003284 
L 453.252846 522.479319 
L 451.30136 523.935913 
L 449.335406 525.372919 
L 447.355181 526.790193 
L 445.360882 528.187595 
L 443.352709 529.564985 
L 441.330862 530.922224 
L 439.295545 532.259178 
L 437.24696 533.575711 
L 435.185312 534.871693 
L 433.110808 536.146995 
L 431.023654 537.401488 
L 428.924061 538.635046 
L 426.812236 539.847548 
L 424.688393 541.038871 
L 422.552743 542.208897 
L 420.405499 543.357508 
L 418.246877 544.484589 
L 416.077093 545.590028 
L 413.896362 546.673715 
L 411.704904 547.73554 
L 409.502938 548.775398 
L 407.290683 549.793185 
L 405.068361 550.788798 
L 402.836194 551.762139 
L 400.594406 552.71311 
L 398.34322 553.641616 
L 396.082861 554.547564 
L 393.813557 555.430864 
L 391.535533 556.291426 
L 389.249017 557.129166 
L 386.954239 557.943999 
L 384.651427 558.735845 
L 382.340812 559.504622 
L 380.022624 560.250256 
L 377.697097 560.97267 
L 375.364462 561.671794 
L 373.024952 562.347557 
L 370.678801 562.999891 
L 368.326245 563.628732 
L 365.967518 564.234016 
L 363.602857 564.815683 
L 361.232496 565.373674 
L 358.856675 565.907934 
L 356.47563 566.41841 
L 354.089599 566.905051 
L 351.698822 567.367807 
L 349.303536 567.806632 
L 346.903982 568.221483 
L 344.500399 568.612319 
L 342.093028 568.979099 
L 339.68211 569.321788 
L 337.267886 569.64035 
L 334.850597 569.934755 
L 332.430484 570.204973 
L 330.007791 570.450977 
L 327.582759 570.672741 
L 325.15563 570.870245 
L 322.726648 571.043468 
L 320.296055 571.192393 
L 317.864094 571.317005 
L 315.431008 571.417291 
L 312.997042 571.493242 
L 310.562438 571.54485 
L 308.127439 571.57211 
L 306.61899 571.576782 
L 306.61899 571.576782 
Q 306.61899 328.060646 306.61899 571.576782 
L 306.61899 571.576782 
L 306.61899 571.576782 
L 304.18387 571.564606 
L 301.748992 571.52808 
L 299.314602 571.467208 
L 296.880942 571.381995 
L 294.448256 571.27245 
L 292.016787 571.138584 
L 289.586779 570.980411 
L 287.158473 570.797946 
L 284.732113 570.591207 
L 282.307943 570.360215 
L 279.886203 570.104994 
L 277.467136 569.825568 
L 275.050985 569.521967 
L 272.63799 569.194219 
L 270.228394 568.842358 
L 267.822436 568.466419 
L 265.420359 568.06644 
L 263.022401 567.64246 
L 260.628802 567.194523 
L 258.239803 566.722672 
L 255.855641 566.226955 
L 253.476556 565.707422 
L 251.102785 565.164124 
L 248.734566 564.597116 
L 246.372134 564.006455 
L 244.015728 563.392199 
L 241.665582 562.75441 
L 239.321931 562.093153 
L 236.98501 561.408492 
L 234.655052 560.700496 
L 232.33229 559.969237 
L 230.016957 559.214787 
L 227.709285 558.437222 
L 225.409503 557.636619 
L 223.117842 556.813059 
L 220.834531 555.966624 
L 218.559798 555.097398 
L 216.293871 554.205469 
L 214.036977 553.290926 
L 211.789341 552.35386 
L 209.551187 551.394365 
L 207.322741 550.412536 
L 205.104224 549.408473 
L 202.895858 548.382275 
L 200.697865 547.334045 
L 198.510463 546.263888 
L 196.333873 545.17191 
L 194.16831 544.058222 
L 192.013993 542.922934 
L 189.871136 541.76616 
L 187.739954 540.588016 
L 185.62066 539.388619 
L 183.513465 538.16809 
L 181.418581 536.92655 
L 179.336217 535.664123 
L 177.26658 534.380937 
L 175.209879 533.077118 
L 173.166319 531.752798 
L 171.136104 530.408109 
L 169.119438 529.043186 
L 167.116521 527.658164 
L 165.127554 526.253183 
L 163.152736 524.828382 
L 161.192265 523.383906 
L 159.246336 521.919896 
L 157.315144 520.436502 
L 155.398883 518.933869 
L 153.497743 517.41215 
L 151.611916 515.871495 
L 149.741589 514.31206 
L 147.88695 512.734 
L 146.048183 511.137472 
L 144.225474 509.522637 
L 142.419004 507.889656 
L 140.628954 506.238692 
L 138.855503 504.56991 
L 137.098828 502.883478 
L 135.359104 501.179564 
L 133.636507 499.458338 
L 131.931208 497.719972 
L 130.243377 495.96464 
L 128.573184 494.192518 
L 126.920795 492.403783 
L 125.286376 490.598614 
L 123.67009 488.777191 
L 122.072098 486.939697 
L 120.492562 485.086315 
L 118.931637 483.217231 
L 117.389482 481.332631 
L 115.866249 479.432704 
L 114.362091 477.517639 
L 112.877159 475.58763 
L 111.411601 473.642867 
L 109.965563 471.683547 
L 108.53919 469.709864 
L 107.132626 467.722017 
L 105.74601 465.720204 
L 104.37948 463.704624 
L 103.033175 461.675481 
L 101.707228 459.632976 
L 100.401772 457.577314 
L 99.116938 455.5087 
L 97.852854 453.427342 
L 96.609646 451.333447 
L 95.387439 449.227225 
L 94.186355 447.108886 
L 93.006514 444.978643 
L 91.848034 442.836708 
L 90.711031 440.683296 
L 89.595618 438.518621 
L 88.501908 436.342901 
L 87.430009 434.156352 
L 86.380029 431.959194 
L 85.352073 429.751646 
L 84.346243 427.533929 
L 83.362641 425.306265 
L 82.401363 423.068877 
L 81.462508 420.821988 
L 80.546167 418.565822 
L 79.652434 416.300606 
L 78.781398 414.026567 
L 77.933145 411.74393 
L 77.10776 409.452926 
L 76.305326 407.153782 
L 75.525924 404.84673 
L 74.76963 402.531998 
L 74.036521 400.20982 
L 73.326671 397.880426 
L 72.640149 395.544051 
L 71.977025 393.200927 
L 71.337365 390.85129 
L 70.721233 388.495373 
L 70.128691 386.133413 
L 69.559797 383.765646 
L 69.014609 381.392308 
L 68.493182 379.013638 
L 67.995566 376.629872 
L 67.521813 374.241249 
L 67.07197 371.848008 
L 66.646081 369.450388 
L 66.244189 367.04863 
L 65.866334 364.642972 
L 65.512554 362.233657 
L 65.182885 359.820924 
L 64.877359 357.405015 
L 64.596008 354.986172 
L 64.338858 352.564636 
L 64.105936 350.14065 
L 63.897265 347.714456 
L 63.712866 345.286296 
L 63.552758 342.856414 
L 63.416956 340.425053 
L 63.305474 337.992455 
L 63.218323 335.558864 
L 63.155512 333.124523 
L 63.117047 330.689675 
L 63.102932 328.254565 
L 63.113169 325.819435 
L 63.147756 323.38453 
L 63.20669 320.950092 
L 63.289965 318.516365 
L 63.397572 316.083592 
L 63.529502 313.652017 
L 63.68574 311.221883 
L 63.866271 308.793433 
L 64.071078 306.36691 
L 64.300139 303.942556 
L 64.553432 301.520614 
L 64.830931 299.101326 
L 65.132608 296.684933 
L 65.458434 294.271678 
L 65.808376 291.861802 
L 66.182399 289.455546 
L 66.580466 287.053151 
L 67.002536 284.654856 
L 67.448567 282.260902 
L 67.918515 279.871527 
L 68.412333 277.486972 
L 68.929972 275.107473 
L 69.471379 272.73327 
L 70.036501 270.3646 
L 70.625281 268.0017 
L 71.23766 265.644805 
L 71.873577 263.294151 
L 72.532968 260.949975 
L 73.215768 258.612509 
L 73.921908 256.281988 
L 74.651317 253.958645 
L 75.403923 251.642712 
L 76.17965 249.334421 
L 76.978421 247.034002 
L 77.800156 244.741686 
L 78.644773 242.457701 
L 79.512187 240.182277 
L 80.402311 237.915641 
L 81.315057 235.658019 
L 82.250333 233.409637 
L 83.208045 231.170721 
L 84.188099 228.941493 
L 85.190395 226.722177 
L 86.214834 224.512995 
L 87.261314 222.314167 
L 88.329729 220.125915 
L 89.419972 217.948455 
L 90.531936 215.782007 
L 91.665508 213.626786 
L 92.820575 211.483009 
L 93.997022 209.350889 
L 95.194731 207.23064 
L 96.413582 205.122474 
L 97.653453 203.026602 
L 98.914221 200.943233 
L 100.195759 198.872576 
L 101.497939 196.814837 
L 102.820631 194.770223 
L 104.163703 192.738938 
L 105.52702 190.721185 
L 106.910447 188.717166 
L 108.313844 186.727081 
L 109.737071 184.751129 
L 111.179986 182.789508 
L 112.642445 180.842414 
L 114.124302 178.910042 
L 115.625408 176.992584 
L 117.145613 175.090234 
L 118.684765 173.20318 
L 120.24271 171.331612 
L 121.819293 169.475716 
L 123.414356 167.635679 
L 125.027739 165.811685 
L 126.659281 164.003915 
L 128.308819 162.212551 
L 129.976188 160.437771 
L 131.661221 158.679753 
L 133.363749 156.938674 
L 134.42708 155.868736 
L 134.42708 155.868736 
Q 306.61899 328.060646 478.810901 155.868736 
z
" clip-path="url(#p4bcbf9bec1)" style="fill: #00d4ff; fill-opacity: 0.5; stroke: #808080; stroke-opacity: 0.5; stroke-width: 0.1"/>
    <path d="M 306.61899 84.544511 
L 306.61899 84.544511 
L 309.054111 84.556687 
L 311.488988 84.593213 
L 313.923379 84.654085 
L 316.357039 84.739298 
L 318.789725 84.848843 
L 321.221194 84.982709 
L 323.651202 85.140882 
L 326.079508 85.323347 
L 328.505867 85.530086 
L 330.930038 85.761078 
L 333.351778 86.016299 
L 335.770844 86.295724 
L 338.186996 86.599326 
L 340.59999 86.927074 
L 343.009587 87.278935 
L 345.415544 87.654874 
L 347.817622 88.054853 
L 350.21558 88.478833 
L 352.609179 88.92677 
L 354.998178 89.398621 
L 357.38234 89.894338 
L 359.761425 90.413871 
L 362.135196 90.957169 
L 364.503415 91.524177 
L 366.865846 92.114838 
L 369.222253 92.729094 
L 371.572399 93.366883 
L 373.91605 94.02814 
L 376.252971 94.712801 
L 378.582929 95.420797 
L 380.905691 96.152056 
L 383.221024 96.906506 
L 385.528696 97.684071 
L 387.828478 98.484674 
L 390.120139 99.308234 
L 392.40345 100.154669 
L 394.678183 101.023894 
L 396.94411 101.915823 
L 399.201004 102.830367 
L 401.44864 103.767433 
L 403.686793 104.726928 
L 405.91524 105.708757 
L 408.133757 106.71282 
L 410.342123 107.739018 
L 412.540116 108.787248 
L 414.727518 109.857405 
L 416.904108 110.949383 
L 419.069671 112.063071 
L 421.223988 113.198359 
L 423.366845 114.355133 
L 425.498027 115.533277 
L 427.617321 116.732674 
L 429.724516 117.953203 
L 431.8194 119.194743 
L 433.901764 120.45717 
L 435.9714 121.740356 
L 438.028101 123.044175 
L 440.071662 124.368495 
L 442.101877 125.713184 
L 444.118543 127.078107 
L 446.12146 128.463129 
L 448.110427 129.86811 
L 450.085245 131.29291 
L 452.045716 132.737387 
L 453.991645 134.201397 
L 455.922837 135.684791 
L 457.839098 137.187424 
L 459.740237 138.709143 
L 461.626065 140.249798 
L 463.496392 141.809233 
L 465.351031 143.387293 
L 467.189797 144.983821 
L 469.012507 146.598656 
L 470.818977 148.231637 
L 472.609027 149.882601 
L 474.382478 151.551382 
L 476.139153 153.237815 
L 477.878877 154.941729 
L 478.810901 155.868736 
L 478.810901 155.868736 
Q 306.61899 328.060646 134.42708 155.868736 
L 134.42708 155.868736 
L 134.42708 155.868736 
L 136.15758 154.155455 
L 137.905126 152.459565 
L 139.669543 150.781234 
L 141.450655 149.120631 
L 143.248284 147.477922 
L 145.062249 145.853272 
L 146.89237 144.246841 
L 148.738464 142.658792 
L 150.600346 141.089283 
L 152.477829 139.538471 
L 154.370726 138.006512 
L 156.278848 136.493557 
L 158.202004 134.999759 
L 160.140002 133.525267 
L 162.092647 132.070228 
L 164.059745 130.634788 
L 166.041098 129.219091 
L 168.03651 127.823277 
L 170.045779 126.447487 
L 172.068706 125.091858 
L 174.105087 123.756526 
L 176.15472 122.441624 
L 178.217399 121.147284 
L 180.292918 119.873635 
L 182.38107 118.620805 
L 184.481645 117.388918 
L 186.594434 116.178099 
L 188.719225 114.988467 
L 190.855807 113.820143 
L 193.003964 112.673242 
L 195.163483 111.54788 
L 197.334147 110.444169 
L 199.51574 109.36222 
L 201.708043 108.30214 
L 203.910837 107.264036 
L 206.123902 106.248011 
L 208.347016 105.254167 
L 210.579957 104.282604 
L 212.822502 103.333419 
L 215.074427 102.406706 
L 217.335505 101.502558 
L 219.605513 100.621066 
L 221.884221 99.762317 
L 224.171403 98.926399 
L 226.46683 98.113393 
L 228.770272 97.323382 
L 231.081498 96.556445 
L 233.400279 95.812658 
L 235.726381 95.092095 
L 238.059572 94.394829 
L 240.399619 93.720929 
L 242.746288 93.070464 
L 245.099344 92.443497 
L 247.458553 91.840091 
L 249.823677 91.260308 
L 252.19448 90.704204 
L 254.570726 90.171836 
L 256.952177 89.663256 
L 259.338595 89.178516 
L 261.72974 88.717664 
L 264.125375 88.280746 
L 266.525258 87.867806 
L 268.929151 87.478885 
L 271.336813 87.114021 
L 273.748004 86.773253 
L 276.162481 86.456613 
L 278.580004 86.164133 
L 281.000331 85.895842 
L 283.423219 85.651768 
L 285.848427 85.431935 
L 288.275713 85.236364 
L 290.704832 85.065075 
L 293.135543 84.918086 
L 295.567602 84.795411 
L 298.000767 84.697062 
L 300.434793 84.623049 
L 302.869437 84.57338 
L 305.304457 84.548059 
L 306.61899 84.544511 
L 306.61899 84.544511 
Q 306.61899 328.060646 306.61899 84.544511 
z
" clip-path="url(#p4bcbf9bec1)" style="fill: #000080; fill-opacity: 0.5; stroke: #808080; stroke-opacity: 0.5; stroke-width: 0.1"/>
   </g>
   <g id="patch_6">
    <path d="M 306.61899 84.544511 
L 309.054111 84.556687 
L 311.488988 84.593213 
L 313.923379 84.654085 
L 316.357039 84.739298 
L 318.789725 84.848843 
L 321.221194 84.982709 
L 323.651202 85.140882 
L 326.079508 85.323347 
L 328.505867 85.530086 
L 330.930038 85.761078 
L 333.351778 86.016299 
L 335.770844 86.295724 
L 338.186996 86.599326 
L 340.59999 86.927074 
L 343.009587 87.278935 
L 345.415544 87.654874 
L 347.817622 88.054853 
L 350.21558 88.478833 
L 352.609179 88.92677 
L 354.998178 89.398621 
L 357.38234 89.894338 
L 359.761425 90.413871 
L 362.135196 90.957169 
L 364.503415 91.524177 
L 366.865846 92.114838 
L 369.222253 92.729094 
L 371.572399 93.366883 
L 373.91605 94.02814 
L 376.252971 94.712801 
L 378.582929 95.420797 
L 380.905691 96.152056 
L 383.221024 96.906506 
L 385.528696 97.684071 
L 387.828478 98.484674 
L 390.120139 99.308234 
L 392.40345 100.154669 
L 394.678183 101.023894 
L 396.94411 101.915823 
L 399.201004 102.830367 
L 401.44864 103.767433 
L 403.686793 104.726928 
L 405.91524 105.708757 
L 408.133757 106.71282 
L 410.342123 107.739018 
L 412.540116 108.787248 
L 414.727518 109.857405 
L 416.904108 110.949383 
L 419.069671 112.063071 
L 421.223988 113.198359 
L 423.366845 114.355133 
L 425.498027 115.533277 
L 427.617321 116.732674 
L 429.724516 117.953203 
L 431.8194 119.194743 
L 433.901764 120.45717 
L 435.9714 121.740356 
L 438.028101 123.044175 
L 440.071662 124.368495 
L 442.101877 125.713184 
L 444.118543 127.078107 
L 446.12146 128.463129 
L 448.110427 129.86811 
L 450.085245 131.29291 
L 452.045716 132.737387 
L 453.991645 134.201397 
L 455.922837 135.684791 
L 457.839098 137.187424 
L 459.740237 138.709143 
L 461.626065 140.249798 
L 463.496392 141.809233 
L 465.351031 143.387293 
L 467.189797 144.983821 
L 469.012507 146.598656 
L 470.818977 148.231637 
L 472.609027 149.882601 
L 474.382478 151.551382 
L 476.139153 153.237815 
L 477.878877 154.941729 
L 478.810901 155.868736 
L 480.550213 154.129424 
L 479.608774 153.193053 
L 477.851478 151.471928 
L 476.077059 149.768461 
L 474.285694 148.082823 
L 472.477562 146.415182 
L 470.652845 144.765707 
L 468.811725 143.13456 
L 466.954385 141.521906 
L 465.081012 139.927906 
L 463.191793 138.352718 
L 461.286917 136.796502 
L 459.366574 135.259411 
L 457.430956 133.741601 
L 455.480258 132.243222 
L 453.514673 130.764425 
L 451.534399 129.305358 
L 449.539634 127.866165 
L 447.530576 126.446992 
L 445.507428 125.047981 
L 443.470391 123.66927 
L 441.419668 122.310998 
L 439.355466 120.973301 
L 437.27799 119.656313 
L 435.187449 118.360165 
L 433.084051 117.084987 
L 430.968006 115.830906 
L 428.839527 114.598048 
L 426.698825 113.386536 
L 424.546116 112.196491 
L 422.381614 111.028033 
L 420.205536 109.881277 
L 418.018099 108.75634 
L 415.819523 107.653332 
L 413.610027 106.572365 
L 411.389831 105.513547 
L 409.159159 104.476983 
L 406.918232 103.462778 
L 404.667276 102.471032 
L 402.406515 101.501845 
L 400.136176 100.555313 
L 397.856485 99.631532 
L 395.56767 98.730594 
L 393.26996 97.852588 
L 390.963585 96.997603 
L 388.648776 96.165725 
L 386.325764 95.357035 
L 383.994781 94.571616 
L 381.656061 93.809545 
L 379.309838 93.070899 
L 376.956345 92.355752 
L 374.595818 91.664176 
L 372.228494 90.996238 
L 369.854609 90.352007 
L 367.474401 89.731547 
L 365.088107 89.13492 
L 362.695966 88.562184 
L 360.298217 88.013399 
L 357.895101 87.488618 
L 355.486857 86.987894 
L 353.073726 86.511277 
L 350.65595 86.058814 
L 348.23377 85.630552 
L 345.807429 85.226533 
L 343.377169 84.846796 
L 340.943233 84.491381 
L 338.505865 84.160323 
L 336.065308 83.853655 
L 333.621806 83.571407 
L 331.175604 83.313607 
L 328.726947 83.080282 
L 326.276079 82.871455 
L 323.823245 82.687147 
L 321.368691 82.527376 
L 318.912661 82.392158 
L 316.455403 82.281507 
L 313.99716 82.195433 
L 311.53818 82.133946 
L 309.078708 82.097051 
L 306.61899 82.084752 
L 306.61899 84.544511 
z
" clip-path="url(#p4bcbf9bec1)" style="fill: none; stroke: #000000; stroke-width: 0.5; stroke-linejoin: miter"/>
   </g>
   <g id="patch_7">
    <path d="M 478.810901 155.868736 
L 480.524182 157.599236 
L 482.220072 159.346782 
L 483.898403 161.111199 
L 485.559006 162.892311 
L 487.201715 164.68994 
L 488.826365 166.503905 
L 490.432796 168.334026 
L 492.020845 170.18012 
L 493.590353 172.042002 
L 495.141165 173.919485 
L 496.673125 175.812382 
L 498.18608 177.720504 
L 499.679878 179.64366 
L 501.15437 181.581658 
L 502.609409 183.534303 
L 504.044849 185.501401 
L 505.460546 187.482754 
L 506.85636 189.478166 
L 508.23215 191.487435 
L 509.587779 193.510362 
L 510.923111 195.546743 
L 512.238012 197.596376 
L 513.532353 199.659055 
L 514.806001 201.734574 
L 516.058832 203.822726 
L 517.290718 205.923301 
L 518.501538 208.03609 
L 519.69117 210.160882 
L 520.859494 212.297463 
L 522.006395 214.44562 
L 523.131757 216.605139 
L 524.235468 218.775803 
L 525.317417 220.957396 
L 526.377497 223.149699 
L 527.415601 225.352493 
L 528.431626 227.565558 
L 529.425469 229.788672 
L 530.397033 232.021613 
L 531.346218 234.264158 
L 532.272931 236.516083 
L 533.177079 238.777162 
L 534.058571 241.047169 
L 534.917319 243.325877 
L 535.753238 245.613059 
L 536.566244 247.908486 
L 537.356255 250.211928 
L 538.123192 252.523154 
L 538.866979 254.841935 
L 539.587542 257.168037 
L 540.284808 259.501228 
L 540.958707 261.841275 
L 541.609173 264.187944 
L 542.23614 266.541 
L 542.839546 268.900209 
L 543.419329 271.265333 
L 543.975433 273.636136 
L 544.507801 276.012383 
L 545.016381 278.393833 
L 545.501121 280.780251 
L 545.961973 283.171396 
L 546.398891 285.567031 
L 546.811831 287.966914 
L 547.200752 290.370807 
L 547.565615 292.778469 
L 547.906384 295.18966 
L 548.223024 297.604137 
L 548.515504 300.02166 
L 548.783795 302.441987 
L 549.027869 304.864875 
L 549.247702 307.290083 
L 549.443273 309.717369 
L 549.614562 312.146488 
L 549.761551 314.577199 
L 549.884226 317.009258 
L 549.982575 319.442423 
L 550.056588 321.876449 
L 550.106257 324.311093 
L 550.131578 326.746113 
L 550.132547 329.181264 
L 550.109166 331.616303 
L 550.061435 334.050986 
L 549.989361 336.485071 
L 549.89295 338.918313 
L 549.772211 341.350469 
L 549.627158 343.781296 
L 549.457803 346.210551 
L 549.264166 348.637991 
L 549.046263 351.063374 
L 548.804119 353.486456 
L 548.537756 355.906996 
L 548.247201 358.324751 
L 547.932484 360.739479 
L 547.593635 363.15094 
L 547.230689 365.558892 
L 546.843683 367.963094 
L 546.432654 370.363306 
L 545.997644 372.759287 
L 545.538696 375.150799 
L 545.055856 377.537602 
L 544.549173 379.919457 
L 544.018697 382.296126 
L 543.464482 384.667372 
L 542.886582 387.032957 
L 542.285055 389.392645 
L 541.659962 391.7462 
L 541.011365 394.093386 
L 540.339329 396.433969 
L 539.643922 398.767715 
L 538.925212 401.09439 
L 538.183271 403.413762 
L 537.418175 405.725598 
L 536.629998 408.029668 
L 535.818821 410.325742 
L 534.984724 412.613589 
L 534.12779 414.89298 
L 533.248106 417.163689 
L 532.345759 419.425487 
L 531.420839 421.678149 
L 530.47344 423.921449 
L 529.503655 426.155163 
L 528.511582 428.379068 
L 527.49732 430.592941 
L 526.460971 432.796561 
L 525.402637 434.989708 
L 524.322425 437.172161 
L 523.220443 439.343704 
L 522.096801 441.504118 
L 520.951611 443.653188 
L 519.784989 445.790699 
L 518.59705 447.916437 
L 517.387913 450.030189 
L 516.157699 452.131745 
L 514.906532 454.220894 
L 513.634537 456.297427 
L 512.341839 458.361136 
L 511.02857 460.411815 
L 509.69486 462.449259 
L 508.340843 464.473265 
L 506.966653 466.483629 
L 505.572429 468.480151 
L 504.15831 470.462631 
L 502.724437 472.430872 
L 501.270954 474.384675 
L 499.798005 476.323846 
L 498.305739 478.248191 
L 496.794304 480.157517 
L 495.263852 482.051634 
L 493.714536 483.930352 
L 492.14651 485.793482 
L 490.559932 487.64084 
L 488.95496 489.47224 
L 487.331754 491.287499 
L 485.690477 493.086435 
L 484.031293 494.868869 
L 482.354368 496.634622 
L 480.65987 498.383518 
L 478.947967 500.115381 
L 477.218832 501.83004 
L 475.472637 503.527321 
L 473.709557 505.207056 
L 471.929768 506.869077 
L 470.133448 508.513217 
L 468.320777 510.139312 
L 466.491936 511.747199 
L 464.647107 513.336717 
L 462.786476 514.907708 
L 460.910228 516.460015 
L 459.018551 517.993482 
L 457.111635 519.507955 
L 455.189669 521.003284 
L 453.252846 522.479319 
L 451.30136 523.935913 
L 449.335406 525.372919 
L 447.355181 526.790193 
L 445.360882 528.187595 
L 443.352709 529.564985 
L 441.330862 530.922224 
L 439.295545 532.259178 
L 437.24696 533.575711 
L 435.185312 534.871693 
L 433.110808 536.146995 
L 431.023654 537.401488 
L 428.924061 538.635046 
L 426.812236 539.847548 
L 424.688393 541.038871 
L 422.552743 542.208897 
L 420.405499 543.357508 
L 418.246877 544.484589 
L 416.077093 545.590028 
L 413.896362 546.673715 
L 411.704904 547.73554 
L 409.502938 548.775398 
L 407.290683 549.793185 
L 405.068361 550.788798 
L 402.836194 551.762139 
L 400.594406 552.71311 
L 398.34322 553.641616 
L 396.082861 554.547564 
L 393.813557 555.430864 
L 391.535533 556.291426 
L 389.249017 557.129166 
L 386.954239 557.943999 
L 384.651427 558.735845 
L 382.340812 559.504622 
L 380.022624 560.250256 
L 377.697097 560.97267 
L 375.364462 561.671794 
L 373.024952 562.347557 
L 370.678801 562.999891 
L 368.326245 563.628732 
L 365.967518 564.234016 
L 363.602857 564.815683 
L 361.232496 565.373674 
L 358.856675 565.907934 
L 356.47563 566.41841 
L 354.089599 566.905051 
L 351.698822 567.367807 
L 349.303536 567.806632 
L 346.903982 568.221483 
L 344.500399 568.612319 
L 342.093028 568.979099 
L 339.68211 569.321788 
L 337.267886 569.64035 
L 334.850597 569.934755 
L 332.430484 570.204973 
L 330.007791 570.450977 
L 327.582759 570.672741 
L 325.15563 570.870245 
L 322.726648 571.043468 
L 320.296055 571.192393 
L 317.864094 571.317005 
L 315.431008 571.417291 
L 312.997042 571.493242 
L 310.562438 571.54485 
L 308.127439 571.57211 
L 306.61899 571.576782 
L 306.61899 574.036541 
L 308.142676 574.031821 
L 310.602271 574.004286 
L 313.061467 573.952157 
L 315.520019 573.875439 
L 317.977681 573.77414 
L 320.434207 573.648269 
L 322.889351 573.49784 
L 325.342869 573.322867 
L 327.794514 573.123368 
L 330.244042 572.899364 
L 332.691207 572.650875 
L 335.135765 572.377928 
L 337.577471 572.080549 
L 340.016081 571.758769 
L 342.451352 571.412619 
L 344.88304 571.042134 
L 347.310901 570.64735 
L 349.734693 570.228309 
L 352.154173 569.785051 
L 354.5691 569.31762 
L 356.979232 568.826065 
L 359.384328 568.310432 
L 361.784148 567.770775 
L 364.178451 567.207148 
L 366.566998 566.619605 
L 368.949551 566.008207 
L 371.32587 565.373015 
L 373.695719 564.714091 
L 376.05886 564.031503 
L 378.415058 563.325317 
L 380.764075 562.595605 
L 383.105679 561.84244 
L 385.439633 561.065897 
L 387.765706 560.266054 
L 390.083664 559.44299 
L 392.393276 558.596788 
L 394.69431 557.727533 
L 396.986537 556.835311 
L 399.269727 555.920212 
L 401.543652 554.982327 
L 403.808085 554.02175 
L 406.062799 553.038578 
L 408.307569 552.032907 
L 410.542169 551.00484 
L 412.766378 549.954478 
L 414.979972 548.881927 
L 417.18273 547.787295 
L 419.374432 546.67069 
L 421.554858 545.532224 
L 423.723791 544.372011 
L 425.881013 543.190167 
L 428.02631 541.98681 
L 430.159465 540.762061 
L 432.280267 539.516041 
L 434.388503 538.248877 
L 436.483962 536.960694 
L 438.566434 535.651621 
L 440.635712 534.321789 
L 442.691588 532.971331 
L 444.733857 531.600382 
L 446.762315 530.20908 
L 448.776758 528.797563 
L 450.776986 527.365972 
L 452.762799 525.914451 
L 454.733996 524.443144 
L 456.690383 522.9522 
L 458.631763 521.441767 
L 460.557941 519.911995 
L 462.468726 518.363039 
L 464.363925 516.795052 
L 466.243351 515.208193 
L 468.106814 513.602618 
L 469.954128 511.97849 
L 471.78511 510.33597 
L 473.599574 508.675223 
L 475.397341 506.996414 
L 477.17823 505.299712 
L 478.942063 503.585286 
L 480.688664 501.853308 
L 482.417858 500.103951 
L 484.129473 498.337389 
L 485.823336 496.5538 
L 487.49928 494.753362 
L 489.157135 492.936255 
L 490.796737 491.10266 
L 492.417921 489.252761 
L 494.020526 487.386743 
L 495.60439 485.504793 
L 497.169356 483.607098 
L 498.715267 481.693849 
L 500.241969 479.765237 
L 501.749308 477.821454 
L 503.237135 475.862696 
L 504.7053 473.889157 
L 506.153657 471.901035 
L 507.58206 469.89853 
L 508.990367 467.881841 
L 510.378437 465.85117 
L 511.746132 463.80672 
L 513.093313 461.748695 
L 514.419848 459.677302 
L 515.725603 457.592748 
L 517.010447 455.49524 
L 518.274252 453.384989 
L 519.516892 451.262205 
L 520.738242 449.127102 
L 521.938181 446.979891 
L 523.116587 444.820789 
L 524.273345 442.650012 
L 525.408337 440.467775 
L 526.52145 438.274298 
L 527.612573 436.069799 
L 528.681597 433.8545 
L 529.728415 431.628621 
L 530.752922 429.392386 
L 531.755016 427.146017 
L 532.734596 424.88974 
L 533.691565 422.62378 
L 534.625827 420.348364 
L 535.537289 418.06372 
L 536.425859 415.770075 
L 537.291448 413.467659 
L 538.133971 411.156702 
L 538.953342 408.837436 
L 539.749479 406.510093 
L 540.522304 404.174904 
L 541.271739 401.832104 
L 541.997709 399.481928 
L 542.700141 397.124609 
L 543.378965 394.760383 
L 544.034113 392.389488 
L 544.665521 390.01216 
L 545.273123 387.628637 
L 545.85686 385.239157 
L 546.416674 382.843959 
L 546.952508 380.443283 
L 547.46431 378.037369 
L 547.952026 375.626457 
L 548.41561 373.210789 
L 548.855014 370.790605 
L 549.270195 368.366149 
L 549.661111 365.937662 
L 550.027723 363.505387 
L 550.369994 361.069568 
L 550.68789 358.630449 
L 550.98138 356.188272 
L 551.250433 353.743282 
L 551.495024 351.295725 
L 551.715127 348.845843 
L 551.910721 346.393883 
L 552.081786 343.94009 
L 552.228304 341.484709 
L 552.350262 339.027986 
L 552.447647 336.570166 
L 552.52045 334.111495 
L 552.568662 331.652219 
L 552.59228 329.192583 
L 552.591301 326.732835 
L 552.565724 324.273219 
L 552.515553 321.813982 
L 552.440793 319.35537 
L 552.341451 316.897628 
L 552.217536 314.441003 
L 552.069062 311.985739 
L 551.896044 309.532083 
L 551.698497 307.08028 
L 551.476443 304.630574 
L 551.229904 302.183212 
L 550.958903 299.738438 
L 550.663469 297.296495 
L 550.34363 294.85763 
L 549.99942 292.422084 
L 549.630871 289.990102 
L 549.238022 287.561927 
L 548.82091 285.137802 
L 548.379579 282.71797 
L 547.914072 280.302671 
L 547.424435 277.892148 
L 546.910719 275.486642 
L 546.372973 273.086394 
L 545.811252 270.691643 
L 545.225612 268.302628 
L 544.616111 265.91959 
L 543.982811 263.542765 
L 543.325775 261.172393 
L 542.645069 258.808709 
L 541.94076 256.45195 
L 541.212919 254.102352 
L 540.461618 251.760149 
L 539.686934 249.425577 
L 538.888943 247.098868 
L 538.067726 244.780255 
L 537.223363 242.469971 
L 536.355941 240.168245 
L 535.465544 237.875308 
L 534.552264 235.59139 
L 533.61619 233.316719 
L 532.657417 231.051522 
L 531.67604 228.796025 
L 530.672158 226.550456 
L 529.64587 224.315037 
L 528.59728 222.089992 
L 527.526492 219.875545 
L 526.433614 217.671916 
L 525.318754 215.479326 
L 524.182025 213.297994 
L 523.02354 211.128138 
L 521.843414 208.969975 
L 520.641766 206.823721 
L 519.418716 204.689591 
L 518.174386 202.567797 
L 516.908901 200.458553 
L 515.622387 198.362069 
L 514.314972 196.278555 
L 512.986789 194.208219 
L 511.637968 192.151268 
L 510.268646 190.107908 
L 508.87896 188.078343 
L 507.469047 186.062776 
L 506.039049 184.061408 
L 504.58911 182.074441 
L 503.119374 180.102072 
L 501.629988 178.144499 
L 500.121101 176.201917 
L 498.592864 174.274521 
L 497.04543 172.362504 
L 495.478953 170.466056 
L 493.893591 168.585367 
L 492.289501 166.720626 
L 490.666844 164.872019 
L 489.025782 163.03973 
L 487.366481 161.223944 
L 485.689104 159.424841 
L 483.993821 157.642601 
L 482.2808 155.877403 
L 480.550213 154.129424 
L 478.810901 155.868736 
z
" clip-path="url(#p4bcbf9bec1)" style="fill: none; stroke: #000000; stroke-width: 0.5; stroke-linejoin: miter"/>
   </g>
   <g id="patch_8">
    <path d="M 306.61899 571.576782 
L 304.18387 571.564606 
L 301.748992 571.52808 
L 299.314602 571.467208 
L 296.880942 571.381995 
L 294.448256 571.27245 
L 292.016787 571.138584 
L 289.586779 570.980411 
L 287.158473 570.797946 
L 284.732113 570.591207 
L 282.307943 570.360215 
L 279.886203 570.104994 
L 277.467136 569.825568 
L 275.050985 569.521967 
L 272.63799 569.194219 
L 270.228394 568.842358 
L 267.822436 568.466419 
L 265.420359 568.06644 
L 263.022401 567.64246 
L 260.628802 567.194523 
L 258.239803 566.722672 
L 255.855641 566.226955 
L 253.476556 565.707422 
L 251.102785 565.164124 
L 248.734566 564.597116 
L 246.372134 564.006455 
L 244.015728 563.392199 
L 241.665582 562.75441 
L 239.321931 562.093153 
L 236.98501 561.408492 
L 234.655052 560.700496 
L 232.33229 559.969237 
L 230.016957 559.214787 
L 227.709285 558.437222 
L 225.409503 557.636619 
L 223.117842 556.813059 
L 220.834531 555.966624 
L 218.559798 555.097398 
L 216.293871 554.205469 
L 214.036977 553.290926 
L 211.789341 552.35386 
L 209.551187 551.394365 
L 207.322741 550.412536 
L 205.104224 549.408473 
L 202.895858 548.382275 
L 200.697865 547.334045 
L 198.510463 546.263888 
L 196.333873 545.17191 
L 194.16831 544.058222 
L 192.013993 542.922934 
L 189.871136 541.76616 
L 187.739954 540.588016 
L 185.62066 539.388619 
L 183.513465 538.16809 
L 181.418581 536.92655 
L 179.336217 535.664123 
L 177.26658 534.380937 
L 175.209879 533.077118 
L 173.166319 531.752798 
L 171.136104 530.408109 
L 169.119438 529.043186 
L 167.116521 527.658164 
L 165.127554 526.253183 
L 163.152736 524.828382 
L 161.192265 523.383906 
L 159.246336 521.919896 
L 157.315144 520.436502 
L 155.398883 518.933869 
L 153.497743 517.41215 
L 151.611916 515.871495 
L 149.741589 514.31206 
L 147.88695 512.734 
L 146.048183 511.137472 
L 144.225474 509.522637 
L 142.419004 507.889656 
L 140.628954 506.238692 
L 138.855503 504.56991 
L 137.098828 502.883478 
L 135.359104 501.179564 
L 133.636507 499.458338 
L 131.931208 497.719972 
L 130.243377 495.96464 
L 128.573184 494.192518 
L 126.920795 492.403783 
L 125.286376 490.598614 
L 123.67009 488.777191 
L 122.072098 486.939697 
L 120.492562 485.086315 
L 118.931637 483.217231 
L 117.389482 481.332631 
L 115.866249 479.432704 
L 114.362091 477.517639 
L 112.877159 475.58763 
L 111.411601 473.642867 
L 109.965563 471.683547 
L 108.53919 469.709864 
L 107.132626 467.722017 
L 105.74601 465.720204 
L 104.37948 463.704624 
L 103.033175 461.675481 
L 101.707228 459.632976 
L 100.401772 457.577314 
L 99.116938 455.5087 
L 97.852854 453.427342 
L 96.609646 451.333447 
L 95.387439 449.227225 
L 94.186355 447.108886 
L 93.006514 444.978643 
L 91.848034 442.836708 
L 90.711031 440.683296 
L 89.595618 438.518621 
L 88.501908 436.342901 
L 87.430009 434.156352 
L 86.380029 431.959194 
L 85.352073 429.751646 
L 84.346243 427.533929 
L 83.362641 425.306265 
L 82.401363 423.068877 
L 81.462508 420.821988 
L 80.546167 418.565822 
L 79.652434 416.300606 
L 78.781398 414.026567 
L 77.933145 411.74393 
L 77.10776 409.452926 
L 76.305326 407.153782 
L 75.525924 404.84673 
L 74.76963 402.531998 
L 74.036521 400.20982 
L 73.326671 397.880426 
L 72.640149 395.544051 
L 71.977025 393.200927 
L 71.337365 390.85129 
L 70.721233 388.495373 
L 70.128691 386.133413 
L 69.559797 383.765646 
L 69.014609 381.392308 
L 68.493182 379.013638 
L 67.995566 376.629872 
L 67.521813 374.241249 
L 67.07197 371.848008 
L 66.646081 369.450388 
L 66.244189 367.04863 
L 65.866334 364.642972 
L 65.512554 362.233657 
L 65.182885 359.820924 
L 64.877359 357.405015 
L 64.596008 354.986172 
L 64.338858 352.564636 
L 64.105936 350.14065 
L 63.897265 347.714456 
L 63.712866 345.286296 
L 63.552758 342.856414 
L 63.416956 340.425053 
L 63.305474 337.992455 
L 63.218323 335.558864 
L 63.155512 333.124523 
L 63.117047 330.689675 
L 63.102932 328.254565 
L 63.113169 325.819435 
L 63.147756 323.38453 
L 63.20669 320.950092 
L 63.289965 318.516365 
L 63.397572 316.083592 
L 63.529502 313.652017 
L 63.68574 311.221883 
L 63.866271 308.793433 
L 64.071078 306.36691 
L 64.300139 303.942556 
L 64.553432 301.520614 
L 64.830931 299.101326 
L 65.132608 296.684933 
L 65.458434 294.271678 
L 65.808376 291.861802 
L 66.182399 289.455546 
L 66.580466 287.053151 
L 67.002536 284.654856 
L 67.448567 282.260902 
L 67.918515 279.871527 
L 68.412333 277.486972 
L 68.929972 275.107473 
L 69.471379 272.73327 
L 70.036501 270.3646 
L 70.625281 268.0017 
L 71.23766 265.644805 
L 71.873577 263.294151 
L 72.532968 260.949975 
L 73.215768 258.612509 
L 73.921908 256.281988 
L 74.651317 253.958645 
L 75.403923 251.642712 
L 76.17965 249.334421 
L 76.978421 247.034002 
L 77.800156 244.741686 
L 78.644773 242.457701 
L 79.512187 240.182277 
L 80.402311 237.915641 
L 81.315057 235.658019 
L 82.250333 233.409637 
L 83.208045 231.170721 
L 84.188099 228.941493 
L 85.190395 226.722177 
L 86.214834 224.512995 
L 87.261314 222.314167 
L 88.329729 220.125915 
L 89.419972 217.948455 
L 90.531936 215.782007 
L 91.665508 213.626786 
L 92.820575 211.483009 
L 93.997022 209.350889 
L 95.194731 207.23064 
L 96.413582 205.122474 
L 97.653453 203.026602 
L 98.914221 200.943233 
L 100.195759 198.872576 
L 101.497939 196.814837 
L 102.820631 194.770223 
L 104.163703 192.738938 
L 105.52702 190.721185 
L 106.910447 188.717166 
L 108.313844 186.727081 
L 109.737071 184.751129 
L 111.179986 182.789508 
L 112.642445 180.842414 
L 114.124302 178.910042 
L 115.625408 176.992584 
L 117.145613 175.090234 
L 118.684765 173.20318 
L 120.24271 171.331612 
L 121.819293 169.475716 
L 123.414356 167.635679 
L 125.027739 165.811685 
L 126.659281 164.003915 
L 128.308819 162.212551 
L 129.976188 160.437771 
L 131.661221 158.679753 
L 133.363749 156.938674 
L 134.42708 155.868736 
L 132.687768 154.129424 
L 131.613696 155.210169 
L 129.893971 156.968835 
L 128.191917 158.744611 
L 126.507706 160.537317 
L 124.841506 162.346776 
L 123.193484 164.172806 
L 121.563804 166.015225 
L 119.95263 167.873848 
L 118.360122 169.74849 
L 116.786439 171.638963 
L 115.23174 173.545078 
L 113.696179 175.466644 
L 112.179911 177.40347 
L 110.683086 179.355361 
L 109.205855 181.322123 
L 107.748365 183.303558 
L 106.310761 185.299469 
L 104.893189 187.309656 
L 103.495788 189.333918 
L 102.1187 191.372052 
L 100.762062 193.423855 
L 99.426009 195.489122 
L 98.110676 197.567646 
L 96.816193 199.659219 
L 95.54269 201.763632 
L 94.290295 203.880674 
L 93.059132 206.010135 
L 91.849325 208.1518 
L 90.660995 210.305457 
L 89.494261 212.470888 
L 88.349238 214.647879 
L 87.226043 216.836211 
L 86.124787 219.035665 
L 85.04558 221.246021 
L 83.98853 223.467059 
L 82.953743 225.698556 
L 81.941322 227.940289 
L 80.951369 230.192035 
L 79.983983 232.453567 
L 79.039259 234.724659 
L 78.117294 237.005085 
L 77.218178 239.294617 
L 76.342003 241.593025 
L 75.488855 243.90008 
L 74.65882 246.215551 
L 73.85198 248.539206 
L 73.068417 250.870814 
L 72.308209 253.21014 
L 71.571432 255.556951 
L 70.85816 257.911013 
L 70.168463 260.272089 
L 69.502411 262.639944 
L 68.860071 265.014342 
L 68.241506 267.395043 
L 67.646779 269.781812 
L 67.075949 272.174408 
L 66.529073 274.572593 
L 66.006205 276.976126 
L 65.507399 279.384768 
L 65.032704 281.798278 
L 64.582167 284.216414 
L 64.155834 286.638934 
L 63.753747 289.065596 
L 63.375946 291.496158 
L 63.022469 293.930376 
L 62.693352 296.368007 
L 62.388627 298.808807 
L 62.108325 301.252533 
L 61.852474 303.698939 
L 61.621099 306.147781 
L 61.414224 308.598815 
L 61.231869 311.051795 
L 61.074052 313.506476 
L 60.94079 315.962612 
L 60.832096 318.419958 
L 60.74798 320.878268 
L 60.68845 323.337296 
L 60.653514 325.796797 
L 60.643174 328.256524 
L 60.657432 330.716231 
L 60.696285 333.175673 
L 60.75973 335.634603 
L 60.847762 338.092776 
L 60.96037 340.549946 
L 61.097543 343.005867 
L 61.259269 345.460293 
L 61.445531 347.912979 
L 61.656309 350.36368 
L 61.891584 352.812151 
L 62.151331 355.258147 
L 62.435525 357.701423 
L 62.744137 360.141735 
L 63.077136 362.578839 
L 63.434489 365.012491 
L 63.81616 367.442448 
L 64.222112 369.868466 
L 64.652303 372.290304 
L 65.10669 374.70772 
L 65.585229 377.12047 
L 66.08787 379.528314 
L 66.614565 381.931012 
L 67.16526 384.328323 
L 67.7399 386.720007 
L 68.338427 389.105825 
L 68.960783 391.485539 
L 69.606904 393.85891 
L 70.276726 396.225701 
L 70.970183 398.585677 
L 71.687203 400.938599 
L 72.427717 403.284234 
L 73.19165 405.622347 
L 73.978925 407.952703 
L 74.789465 410.27507 
L 75.623187 412.589216 
L 76.480008 414.894909 
L 77.359843 417.191919 
L 78.262604 419.480016 
L 79.1882 421.758971 
L 80.136539 424.028556 
L 81.107526 426.288544 
L 82.101064 428.53871 
L 83.117054 430.778828 
L 84.155393 433.008674 
L 85.215979 435.228026 
L 86.298705 437.436661 
L 87.403463 439.634358 
L 88.530142 441.820898 
L 89.67863 443.996062 
L 90.848812 446.159633 
L 92.040571 448.311394 
L 93.253787 450.45113 
L 94.488339 452.578627 
L 95.744105 454.693672 
L 97.020958 456.796054 
L 98.31877 458.885563 
L 99.637413 460.961989 
L 100.976753 463.025126 
L 102.336657 465.074765 
L 103.71699 467.110704 
L 105.117612 469.132738 
L 106.538384 471.140665 
L 107.979165 473.134283 
L 109.439809 475.113395 
L 110.920171 477.077801 
L 112.420102 479.027306 
L 113.939453 480.961714 
L 115.478072 482.880832 
L 117.035806 484.784469 
L 118.612497 486.672433 
L 120.207988 488.544536 
L 121.822121 490.400591 
L 123.454733 492.240412 
L 125.105662 494.063815 
L 126.774741 495.870618 
L 128.461805 497.66064 
L 130.166685 499.433702 
L 131.889209 501.189627 
L 133.629206 502.92824 
L 135.386503 504.649365 
L 137.160922 506.352832 
L 138.952287 508.03847 
L 140.760418 509.706111 
L 142.585136 511.355586 
L 144.426256 512.986733 
L 146.283596 514.599387 
L 148.156969 516.193387 
L 150.046188 517.768575 
L 151.951064 519.324791 
L 153.871407 520.861882 
L 155.807025 522.379692 
L 157.757723 523.878071 
L 159.723308 525.356868 
L 161.703582 526.815935 
L 163.698347 528.255128 
L 165.707405 529.674301 
L 167.730553 531.073312 
L 169.76759 532.452023 
L 171.818313 533.810295 
L 173.882515 535.147992 
L 175.95999 536.46498 
L 178.050532 537.761128 
L 180.15393 539.036306 
L 182.269975 540.290387 
L 184.398454 541.523245 
L 186.539156 542.734757 
L 188.691865 543.924802 
L 190.856367 545.09326 
L 193.032445 546.240016 
L 195.219881 547.364953 
L 197.418458 548.467961 
L 199.627954 549.548928 
L 201.84815 550.607746 
L 204.078822 551.64431 
L 206.319748 552.658515 
L 208.570705 553.650261 
L 210.831465 554.619448 
L 213.101805 555.565979 
L 215.381496 556.489761 
L 217.670311 557.390699 
L 219.968021 558.268705 
L 222.274396 559.123689 
L 224.589205 559.955568 
L 226.912217 560.764258 
L 229.243199 561.549677 
L 231.58192 562.311748 
L 233.928143 563.050394 
L 236.281636 563.765541 
L 238.642163 564.457117 
L 241.009487 565.125054 
L 243.383372 565.769285 
L 245.76358 566.389746 
L 248.149874 566.986373 
L 250.542015 567.559109 
L 252.939764 568.107894 
L 255.34288 568.632675 
L 257.751124 569.133399 
L 260.164255 569.610016 
L 262.582031 570.062479 
L 265.004211 570.490741 
L 267.430552 570.89476 
L 269.860812 571.274496 
L 272.294748 571.629912 
L 274.732116 571.96097 
L 277.172673 572.267638 
L 279.616175 572.549886 
L 282.062377 572.807686 
L 284.511034 573.041011 
L 286.961902 573.249837 
L 289.414736 573.434146 
L 291.86929 573.593917 
L 294.32532 573.729135 
L 296.782578 573.839786 
L 299.24082 573.92586 
L 301.699801 573.987347 
L 304.159272 574.024242 
L 306.61899 574.036541 
L 306.61899 571.576782 
z
" clip-path="url(#p4bcbf9bec1)" style="fill: none; stroke: #000000; stroke-width: 0.5; stroke-linejoin: miter"/>
   </g>
   <g id="patch_9">
    <path d="M 134.42708 155.868736 
L 136.15758 154.155455 
L 137.905126 152.459565 
L 139.669543 150.781234 
L 141.450655 149.120631 
L 143.248284 147.477922 
L 145.062249 145.853272 
L 146.89237 144.246841 
L 148.738464 142.658792 
L 150.600346 141.089283 
L 152.477829 139.538471 
L 154.370726 138.006512 
L 156.278848 136.493557 
L 158.202004 134.999759 
L 160.140002 133.525267 
L 162.092647 132.070228 
L 164.059745 130.634788 
L 166.041098 129.219091 
L 168.03651 127.823277 
L 170.045779 126.447487 
L 172.068706 125.091858 
L 174.105087 123.756526 
L 176.15472 122.441624 
L 178.217399 121.147284 
L 180.292918 119.873635 
L 182.38107 118.620805 
L 184.481645 117.388918 
L 186.594434 116.178099 
L 188.719225 114.988467 
L 190.855807 113.820143 
L 193.003964 112.673242 
L 195.163483 111.54788 
L 197.334147 110.444169 
L 199.51574 109.36222 
L 201.708043 108.30214 
L 203.910837 107.264036 
L 206.123902 106.248011 
L 208.347016 105.254167 
L 210.579957 104.282604 
L 212.822502 103.333419 
L 215.074427 102.406706 
L 217.335505 101.502558 
L 219.605513 100.621066 
L 221.884221 99.762317 
L 224.171403 98.926399 
L 226.46683 98.113393 
L 228.770272 97.323382 
L 231.081498 96.556445 
L 233.400279 95.812658 
L 235.726381 95.092095 
L 238.059572 94.394829 
L 240.399619 93.720929 
L 242.746288 93.070464 
L 245.099344 92.443497 
L 247.458553 91.840091 
L 249.823677 91.260308 
L 252.19448 90.704204 
L 254.570726 90.171836 
L 256.952177 89.663256 
L 259.338595 89.178516 
L 261.72974 88.717664 
L 264.125375 88.280746 
L 266.525258 87.867806 
L 268.929151 87.478885 
L 271.336813 87.114021 
L 273.748004 86.773253 
L 276.162481 86.456613 
L 278.580004 86.164133 
L 281.000331 85.895842 
L 283.423219 85.651768 
L 285.848427 85.431935 
L 288.275713 85.236364 
L 290.704832 85.065075 
L 293.135543 84.918086 
L 295.567602 84.795411 
L 298.000767 84.697062 
L 300.434793 84.623049 
L 302.869437 84.57338 
L 305.304457 84.548059 
L 306.61899 84.544511 
L 306.61899 82.084752 
L 305.291179 82.088336 
L 302.831563 82.113913 
L 300.372326 82.164083 
L 297.913714 82.238844 
L 295.455972 82.338186 
L 292.999346 82.4621 
L 290.544083 82.610574 
L 288.090427 82.783593 
L 285.638624 82.98114 
L 283.188918 83.203194 
L 280.741556 83.449733 
L 278.296782 83.720734 
L 275.854839 84.016168 
L 273.415973 84.336006 
L 270.980428 84.680217 
L 268.548446 85.048766 
L 266.120271 85.441615 
L 263.696146 85.858727 
L 261.276314 86.300058 
L 258.861015 86.765565 
L 256.450492 87.255202 
L 254.044986 87.768918 
L 251.644738 88.306664 
L 249.249987 88.868385 
L 246.860972 89.454025 
L 244.477934 90.063525 
L 242.101109 90.696825 
L 239.730737 91.353862 
L 237.367053 92.034568 
L 235.010294 92.738877 
L 232.660696 93.466718 
L 230.318493 94.218019 
L 227.983921 94.992703 
L 225.657212 95.790694 
L 223.338599 96.611911 
L 221.028315 97.456274 
L 218.726589 98.323696 
L 216.433652 99.214092 
L 214.149734 100.127373 
L 211.875063 101.063447 
L 209.609866 102.02222 
L 207.354369 103.003597 
L 205.1088 104.007479 
L 202.873381 105.033767 
L 200.648336 106.082357 
L 198.433889 107.153145 
L 196.23026 108.246023 
L 194.03767 109.360883 
L 191.856338 110.497612 
L 189.686482 111.656097 
L 187.528319 112.836223 
L 185.382065 114.037871 
L 183.247935 115.260921 
L 181.126141 116.505251 
L 179.016897 117.770736 
L 176.920413 119.05725 
L 174.836899 120.364665 
L 172.766563 121.692848 
L 170.709612 123.041669 
L 168.666252 124.410991 
L 166.636687 125.800677 
L 164.62112 127.21059 
L 162.619752 128.640587 
L 160.632785 130.090527 
L 158.660416 131.560263 
L 156.702843 133.049649 
L 154.760261 134.558536 
L 152.832865 136.086773 
L 150.920848 137.634207 
L 149.0244 139.200684 
L 147.143711 140.786046 
L 145.27897 142.390136 
L 143.430363 144.012793 
L 141.598074 145.653854 
L 139.782288 147.313156 
L 137.983185 148.990533 
L 136.200945 150.685816 
L 134.435747 152.398837 
L 132.687768 154.129424 
L 134.42708 155.868736 
z
" clip-path="url(#p4bcbf9bec1)" style="fill: none; stroke: #000000; stroke-width: 0.5; stroke-linejoin: miter"/>
   </g>
   <g id="text_1">
    <text style="font: 3px 'DejaVu Sans', 'Bitstream Vera Sans', 'Computer Modern Sans Serif', 'Lucida Grande', 'Verdana', 'Geneva', 'Lucid', 'Arial', 'Helvetica', 'Avant Garde', sans-serif; text-anchor: start" x="402.744205" y="98.972201" transform="rotate(-67.5 402.744205 98.972201)">Finance and Economics Institute of Tajikistan</text>
   </g>
   <g id="text_2">
    <text style="font: 3px 'DejaVu Sans', 'Bitstream Vera Sans', 'Computer Modern Sans Serif', 'Lucida Grande', 'Verdana', 'Geneva', 'Lucid', 'Arial', 'Helvetica', 'Avant Garde', sans-serif; text-anchor: start" x="535.707436" y="424.185861" transform="rotate(-337.5 535.707436 424.185861)">Tajik National University</text>
   </g>
   <g id="text_3">
    <text style="font: 3px 'DejaVu Sans', 'Bitstream Vera Sans', 'Computer Modern Sans Serif', 'Lucida Grande', 'Verdana', 'Geneva', 'Lucid', 'Arial', 'Helvetica', 'Avant Garde', sans-serif; text-anchor: end" x="77.530545" y="424.185861" transform="rotate(-22.5 77.530545 424.185861)">Tajik State Medical University</text>
   </g>
   <g id="text_4">
    <text style="font: 3px 'DejaVu Sans', 'Bitstream Vera Sans', 'Computer Modern Sans Serif', 'Lucida Grande', 'Verdana', 'Geneva', 'Lucid', 'Arial', 'Helvetica', 'Avant Garde', sans-serif; text-anchor: end" x="210.493776" y="98.972201" transform="rotate(-292.5 210.493776 98.972201)">Technological University of Tajikistan</text>
   </g>
  </g>
 </g>
 <defs>
  <clipPath id="p4bcbf9bec1">
   <path d="M 564.893679 328.060646 
C 564.893679 294.144325 558.212904 260.557797 545.233689 229.223202 
C 532.254475 197.888607 513.229235 169.415323 489.246774 145.432863 
C 465.264313 121.450402 436.79103 102.425162 405.456435 89.445948 
C 374.12184 76.466733 340.535312 69.785958 306.61899 69.785958 
C 272.702669 69.785958 239.116141 76.466733 207.781546 89.445948 
C 176.446951 102.425162 147.973667 121.450402 123.991207 145.432863 
C 100.008746 169.415323 80.983506 197.888607 68.004292 229.223202 
C 55.025077 260.557797 48.344302 294.144325 48.344302 328.060646 
C 48.344302 361.976968 55.025077 395.563496 68.004292 426.898091 
C 80.983506 458.232686 100.008746 486.70597 123.991207 510.68843 
C 147.973667 534.670891 176.446951 553.696131 207.781546 566.675345 
C 239.116141 579.65456 272.702669 586.335335 306.61899 586.335335 
C 340.535312 586.335335 374.12184 579.65456 405.456435 566.675345 
C 436.79103 553.696131 465.264313 534.670891 489.246774 510.68843 
C 513.229235 486.70597 532.254475 458.232686 545.233689 426.898091 
C 558.212904 395.563496 564.893679 361.976968 564.893679 328.060646 
M 306.61899 328.060646 
C 306.61899 328.060646 306.61899 328.060646 306.61899 328.060646 
C 306.61899 328.060646 306.61899 328.060646 306.61899 328.060646 
C 306.61899 328.060646 306.61899 328.060646 306.61899 328.060646 
C 306.61899 328.060646 306.61899 328.060646 306.61899 328.060646 
C 306.61899 328.060646 306.61899 328.060646 306.61899 328.060646 
C 306.61899 328.060646 306.61899 328.060646 306.61899 328.060646 
C 306.61899 328.060646 306.61899 328.060646 306.61899 328.060646 
C 306.61899 328.060646 306.61899 328.060646 306.61899 328.060646 
C 306.61899 328.060646 306.61899 328.060646 306.61899 328.060646 
C 306.61899 328.060646 306.61899 328.060646 306.61899 328.060646 
C 306.61899 328.060646 306.61899 328.060646 306.61899 328.060646 
C 306.61899 328.060646 306.61899 328.060646 306.61899 328.060646 
C 306.61899 328.060646 306.61899 328.060646 306.61899 328.060646 
C 306.61899 328.060646 306.61899 328.060646 306.61899 328.060646 
C 306.61899 328.060646 306.61899 328.060646 306.61899 328.060646 
C 306.61899 328.060646 306.61899 328.060646 306.61899 328.060646 
z
"/>
  </clipPath>
 </defs>
</svg>
