<?xml version="1.0" encoding="utf-8" standalone="no"?>
<!DOCTYPE svg PUBLIC "-//W3C//DTD SVG 1.1//EN"
  "http://www.w3.org/Graphics/SVG/1.1/DTD/svg11.dtd">
<svg xmlns:xlink="http://www.w3.org/1999/xlink" width="626.4pt" height="626.4pt" viewBox="0 0 626.4 626.4" xmlns="http://www.w3.org/2000/svg" version="1.1">
 <metadata>
  <rdf:RDF xmlns:dc="http://purl.org/dc/elements/1.1/" xmlns:cc="http://creativecommons.org/ns#" xmlns:rdf="http://www.w3.org/1999/02/22-rdf-syntax-ns#">
   <cc:Work>
    <dc:type rdf:resource="http://purl.org/dc/dcmitype/StillImage"/>
    <dc:date>2024-11-16T03:14:50.680762</dc:date>
    <dc:format>image/svg+xml</dc:format>
    <dc:creator>
     <cc:Agent>
      <dc:title>Matplotlib v3.8.4, https://matplotlib.org/</dc:title>
     </cc:Agent>
    </dc:creator>
   </cc:Work>
  </rdf:RDF>
 </metadata>
 <defs>
  <style type="text/css">*{stroke-linejoin: round; stroke-linecap: butt}</style>
 </defs>
 <g id="figure_1">
  <g id="patch_1">
   <path d="M 0 626.4 
L 626.4 626.4 
L 626.4 0 
L 0 0 
z
" style="fill: #ffffff"/>
  </g>
  <g id="axes_1">
   <g id="patch_2">
    <path d="M 313.2 51.84 
L 315.813556 51.853068 
L 318.426852 51.89227 
L 321.039624 51.957603 
L 323.651612 52.04906 
L 326.262556 52.166632 
L 328.872193 52.310307 
L 331.480263 52.480071 
L 334.086504 52.675906 
L 336.690658 52.897794 
L 339.292462 53.145711 
L 341.891657 53.419634 
L 344.487982 53.719535 
L 347.08118 54.045383 
L 349.670988 54.397147 
L 352.25715 54.774791 
L 354.839406 55.178277 
L 357.417499 55.607565 
L 359.991169 56.062612 
L 362.560161 56.543373 
L 365.124216 57.049799 
L 367.683079 57.58184 
L 370.236494 58.139443 
L 372.784206 58.722551 
L 375.325958 59.331107 
L 377.861499 59.965049 
L 380.390573 60.624315 
L 382.912928 61.308839 
L 385.428312 62.018551 
L 387.936474 62.753381 
L 390.437161 63.513255 
L 392.930125 64.298098 
L 395.415116 65.107831 
L 397.891886 65.942373 
L 400.360186 66.801641 
L 402.819771 67.685548 
L 405.270394 68.594006 
L 407.711809 69.526925 
L 410.143774 70.484211 
L 412.566044 71.465768 
L 414.978378 72.471499 
L 417.380534 73.501302 
L 419.772272 74.555075 
L 422.153353 75.632712 
L 424.523539 76.734105 
L 426.882592 77.859145 
L 429.230277 79.007719 
L 431.56636 80.179712 
L 433.890605 81.375007 
L 436.202782 82.593484 
L 438.502659 83.835022 
L 440.790005 85.099495 
L 443.064593 86.386779 
L 445.326194 87.696744 
L 447.574583 89.029259 
L 449.809534 90.384191 
L 452.030825 91.761404 
L 454.238232 93.160761 
L 456.431536 94.582122 
L 458.610517 96.025344 
L 460.774957 97.490284 
L 462.924639 98.976794 
L 465.05935 100.484727 
L 467.178874 102.01393 
L 469.283001 103.564253 
L 471.371519 105.135538 
L 473.44422 106.72763 
L 475.500898 108.340369 
L 477.541345 109.973594 
L 479.565358 111.627142 
L 481.572735 113.300846 
L 483.563274 114.99454 
L 485.536778 116.708055 
L 487.493048 118.441218 
L 489.431889 120.193857 
L 491.353106 121.965797 
L 493.256509 123.75686 
L 495.141906 125.566867 
L 497.009109 127.395638 
L 498.857931 129.242988 
L 500.688188 131.108734 
L 502.499696 132.99269 
L 504.292274 134.894665 
L 506.065743 136.814471 
L 507.819926 138.751916 
L 509.554647 140.706805 
L 511.269732 142.678943 
L 512.965011 144.668134 
L 514.640313 146.674177 
L 516.295472 148.696873 
L 517.930321 150.736019 
L 519.544697 152.791411 
L 521.138439 154.862844 
L 522.711388 156.95011 
L 524.263385 159.053002 
L 525.794276 161.171308 
L 527.303908 163.304816 
L 528.79213 165.453315 
L 530.258793 167.616587 
L 531.70375 169.794418 
L 533.126857 171.986589 
L 534.527971 174.192882 
L 535.906953 176.413075 
L 537.263664 178.646947 
L 538.597969 180.894274 
L 539.909734 183.154831 
L 541.198829 185.428393 
L 542.465124 187.714732 
L 543.708492 190.013619 
L 544.92881 192.324825 
L 546.125956 194.648118 
L 547.299808 196.983266 
L 548.450252 199.330036 
L 549.57717 201.688193 
L 550.680451 204.0575 
L 551.759983 206.437722 
L 552.815661 208.828621 
L 553.847376 211.229956 
L 554.855027 213.641488 
L 555.838513 216.062976 
L 556.797736 218.494177 
L 557.732598 220.934849 
L 558.643008 223.384748 
L 559.528873 225.843628 
L 560.390106 228.311243 
L 561.22662 230.787347 
L 562.038332 233.271693 
L 562.82516 235.764031 
L 563.587025 238.264113 
L 564.323852 240.771688 
L 565.035567 243.286506 
L 565.722099 245.808315 
L 566.383379 248.336864 
L 567.01934 250.871899 
L 567.62992 253.413166 
L 568.215057 255.960412 
L 568.774692 258.513382 
L 569.308771 261.071821 
L 569.817239 263.635472 
L 570.300045 266.20408 
L 570.757141 268.777388 
L 571.188482 271.355137 
L 571.594025 273.937071 
L 571.973728 276.522931 
L 572.327554 279.112459 
L 572.655467 281.705396 
L 572.957435 284.301482 
L 573.233428 286.900458 
L 573.483418 289.502064 
L 573.707379 292.10604 
L 573.90529 294.712125 
L 574.07713 297.320059 
L 574.222883 299.929581 
L 574.342534 302.540429 
L 574.436071 305.152344 
L 574.503485 307.765064 
L 574.544768 310.378327 
L 574.559917 312.991872 
L 574.56 313.2 
L 577.2 313.2 
L 577.199916 312.98977 
L 577.184614 310.349825 
L 577.142914 307.710165 
L 577.074819 305.071055 
L 576.980338 302.432757 
L 576.859478 299.795536 
L 576.712253 297.159655 
L 576.538676 294.525379 
L 576.338767 291.89297 
L 576.112543 289.262691 
L 575.860028 286.634806 
L 575.581248 284.009578 
L 575.27623 281.387269 
L 574.945004 278.768141 
L 574.587604 276.152456 
L 574.204065 273.540476 
L 573.794427 270.932462 
L 573.358729 268.328674 
L 572.897015 265.729374 
L 572.409332 263.134821 
L 571.895728 260.545274 
L 571.356255 257.960992 
L 570.790966 255.382235 
L 570.199919 252.809259 
L 569.583172 250.242322 
L 568.940786 247.681681 
L 568.272827 245.127591 
L 567.579361 242.580309 
L 566.860457 240.040089 
L 566.116187 237.507185 
L 565.346626 234.98185 
L 564.55185 232.464336 
L 563.73194 229.954896 
L 562.886976 227.453781 
L 562.017044 224.96124 
L 561.12223 222.477523 
L 560.202624 220.002878 
L 559.258319 217.537553 
L 558.289407 215.081794 
L 557.295987 212.635846 
L 556.278158 210.199955 
L 555.236021 207.774364 
L 554.16968 205.359316 
L 553.079243 202.955051 
L 551.964818 200.561811 
L 550.826517 198.179834 
L 549.664453 195.80936 
L 548.478743 193.450624 
L 547.269505 191.103863 
L 546.036861 188.769312 
L 544.780933 186.447204 
L 543.501847 184.13777 
L 542.199732 181.841243 
L 540.874716 179.557852 
L 539.526933 177.287825 
L 538.156518 175.031389 
L 536.763607 172.78877 
L 535.34834 170.560191 
L 533.910858 168.345877 
L 532.451306 166.146048 
L 530.969828 163.960924 
L 529.466574 161.790724 
L 527.941693 159.635664 
L 526.395339 157.495961 
L 524.827664 155.371829 
L 523.238828 153.263479 
L 521.628987 151.171122 
L 519.998304 149.094968 
L 518.346941 147.035225 
L 516.675064 144.992098 
L 514.982839 142.965792 
L 513.270437 140.956508 
L 511.538027 138.964449 
L 509.785784 136.989814 
L 508.013882 135.032799 
L 506.222499 133.093601 
L 504.411814 131.172414 
L 502.582008 129.269429 
L 500.733264 127.384837 
L 498.865767 125.518826 
L 496.979703 123.671583 
L 495.075262 121.843293 
L 493.152633 120.034139 
L 491.212009 118.2443 
L 489.253584 116.473958 
L 487.277553 114.723288 
L 485.284116 112.992465 
L 483.273469 111.281663 
L 481.245816 109.591052 
L 479.201358 107.920802 
L 477.140301 106.27108 
L 475.062849 104.642051 
L 472.969211 103.033877 
L 470.859597 101.44672 
L 468.734216 99.880738 
L 466.593282 98.336087 
L 464.437009 96.812923 
L 462.265613 95.311398 
L 460.07931 93.831661 
L 457.878319 92.37386 
L 455.662861 90.938143 
L 453.433156 89.524651 
L 451.189428 88.133526 
L 448.931902 86.764908 
L 446.660802 85.418933 
L 444.376356 84.095737 
L 442.078793 82.79545 
L 439.768342 81.518204 
L 437.445234 80.264125 
L 435.109702 79.03334 
L 432.761979 77.825972 
L 430.4023 76.642141 
L 428.030901 75.481965 
L 425.648019 74.345561 
L 423.253892 73.233042 
L 420.84876 72.14452 
L 418.432863 71.080103 
L 416.006442 70.039898 
L 413.569742 69.024008 
L 411.123004 68.032536 
L 408.666474 67.065581 
L 406.200398 66.123239 
L 403.725021 65.205604 
L 401.240592 64.312768 
L 398.747359 63.444821 
L 396.245572 62.60185 
L 393.73548 61.783938 
L 391.217335 60.991167 
L 388.691387 60.223617 
L 386.157891 59.481364 
L 383.617099 58.764483 
L 381.069266 58.073046 
L 378.514645 57.407121 
L 375.953493 56.766775 
L 373.386066 56.152072 
L 370.81262 55.563073 
L 368.233414 54.999839 
L 365.648703 54.462423 
L 363.058748 53.950882 
L 360.463807 53.465265 
L 357.86414 53.005622 
L 355.260007 52.571997 
L 352.651667 52.164435 
L 350.039382 51.782977 
L 347.423414 51.42766 
L 344.804023 51.09852 
L 342.181471 50.79559 
L 339.556022 50.5189 
L 336.927937 50.268478 
L 334.297479 50.04435 
L 331.664912 49.846536 
L 329.030498 49.675057 
L 326.394501 49.529931 
L 323.757184 49.411172 
L 321.118812 49.318791 
L 318.479648 49.252798 
L 315.839956 49.2132 
L 313.2 49.2 
z
" clip-path="url(#p1ceaaecb97)" style="fill: #000080"/>
   </g>
   <g id="patch_3">
    <path d="M 574.56 313.2 
L 574.546932 315.813556 
L 574.50773 318.426852 
L 574.442397 321.039624 
L 574.35094 323.651612 
L 574.233368 326.262556 
L 574.089693 328.872193 
L 573.919929 331.480263 
L 573.724094 334.086504 
L 573.502206 336.690658 
L 573.254289 339.292462 
L 572.980366 341.891657 
L 572.680465 344.487982 
L 572.354617 347.08118 
L 572.002853 349.670988 
L 571.625209 352.25715 
L 571.221723 354.839406 
L 570.792435 357.417499 
L 570.337388 359.991169 
L 569.856627 362.560161 
L 569.350201 365.124216 
L 568.81816 367.683079 
L 568.260557 370.236494 
L 567.677449 372.784206 
L 567.068893 375.325958 
L 566.434951 377.861499 
L 565.775685 380.390573 
L 565.091161 382.912928 
L 564.381449 385.428312 
L 563.646619 387.936474 
L 562.886745 390.437161 
L 562.101902 392.930125 
L 561.292169 395.415116 
L 560.457627 397.891886 
L 559.598359 400.360186 
L 558.714452 402.819771 
L 557.805994 405.270394 
L 556.873075 407.711809 
L 555.915789 410.143774 
L 554.934232 412.566044 
L 553.928501 414.978378 
L 552.898698 417.380534 
L 551.844925 419.772272 
L 550.767288 422.153353 
L 549.665895 424.523539 
L 548.540855 426.882592 
L 547.392281 429.230277 
L 546.220288 431.56636 
L 545.024993 433.890605 
L 543.806516 436.202782 
L 542.564978 438.502659 
L 541.300505 440.790005 
L 540.013221 443.064593 
L 538.703256 445.326194 
L 537.370741 447.574583 
L 536.015809 449.809534 
L 534.638596 452.030825 
L 533.239239 454.238232 
L 531.817878 456.431536 
L 530.374656 458.610517 
L 528.909716 460.774957 
L 527.423206 462.924639 
L 525.915273 465.05935 
L 524.38607 467.178874 
L 522.835747 469.283001 
L 521.264462 471.371519 
L 519.67237 473.44422 
L 518.059631 475.500898 
L 516.426406 477.541345 
L 514.772858 479.565358 
L 513.099154 481.572735 
L 511.40546 483.563274 
L 509.691945 485.536778 
L 507.958782 487.493048 
L 506.206143 489.431889 
L 504.434203 491.353106 
L 502.64314 493.256509 
L 500.833133 495.141906 
L 499.004362 497.009109 
L 497.157012 498.857931 
L 495.291266 500.688188 
L 493.40731 502.499696 
L 491.505335 504.292274 
L 489.585529 506.065743 
L 487.648084 507.819926 
L 485.693195 509.554647 
L 483.721057 511.269732 
L 481.731866 512.965011 
L 479.725823 514.640313 
L 477.703127 516.295472 
L 475.663981 517.930321 
L 473.608589 519.544697 
L 471.537156 521.138439 
L 469.44989 522.711388 
L 467.346998 524.263385 
L 465.228692 525.794276 
L 463.095184 527.303908 
L 460.946685 528.79213 
L 458.783413 530.258793 
L 456.605582 531.70375 
L 454.413411 533.126857 
L 452.207118 534.527971 
L 449.986925 535.906953 
L 447.753053 537.263664 
L 445.505726 538.597969 
L 443.245169 539.909734 
L 440.971607 541.198829 
L 438.685268 542.465124 
L 436.386381 543.708492 
L 434.075175 544.92881 
L 431.751882 546.125956 
L 429.416734 547.299808 
L 427.069964 548.450252 
L 424.711807 549.57717 
L 422.3425 550.680451 
L 419.962278 551.759983 
L 417.571379 552.815661 
L 415.170044 553.847376 
L 412.758512 554.855027 
L 410.337024 555.838513 
L 407.905823 556.797736 
L 405.465151 557.732598 
L 403.015252 558.643008 
L 400.556372 559.528873 
L 398.088757 560.390106 
L 395.612653 561.22662 
L 393.128307 562.038332 
L 390.635969 562.82516 
L 388.135887 563.587025 
L 385.628312 564.323852 
L 383.113494 565.035567 
L 380.591685 565.722099 
L 378.063136 566.383379 
L 375.528101 567.01934 
L 372.986834 567.62992 
L 370.439588 568.215057 
L 367.886618 568.774692 
L 365.328179 569.308771 
L 362.764528 569.817239 
L 360.19592 570.300045 
L 357.622612 570.757141 
L 355.044863 571.188482 
L 352.462929 571.594025 
L 349.877069 571.973728 
L 347.287541 572.327554 
L 344.694604 572.655467 
L 342.098518 572.957435 
L 339.499542 573.233428 
L 336.897936 573.483418 
L 334.29396 573.707379 
L 331.687875 573.90529 
L 329.079941 574.07713 
L 326.470419 574.222883 
L 323.859571 574.342534 
L 321.247656 574.436071 
L 318.634936 574.503485 
L 316.021673 574.544768 
L 313.408128 574.559917 
L 313.2 574.56 
L 313.2 577.2 
L 313.41023 577.199916 
L 316.050175 577.184614 
L 318.689835 577.142914 
L 321.328945 577.074819 
L 323.967243 576.980338 
L 326.604464 576.859478 
L 329.240345 576.712253 
L 331.874621 576.538676 
L 334.50703 576.338767 
L 337.137309 576.112543 
L 339.765194 575.860028 
L 342.390422 575.581248 
L 345.012731 575.27623 
L 347.631859 574.945004 
L 350.247544 574.587604 
L 352.859524 574.204065 
L 355.467538 573.794427 
L 358.071326 573.358729 
L 360.670626 572.897015 
L 363.265179 572.409332 
L 365.854726 571.895728 
L 368.439008 571.356255 
L 371.017765 570.790966 
L 373.590741 570.199919 
L 376.157678 569.583172 
L 378.718319 568.940786 
L 381.272409 568.272827 
L 383.819691 567.579361 
L 386.359911 566.860457 
L 388.892815 566.116187 
L 391.41815 565.346626 
L 393.935664 564.55185 
L 396.445104 563.73194 
L 398.946219 562.886976 
L 401.43876 562.017044 
L 403.922477 561.12223 
L 406.397122 560.202624 
L 408.862447 559.258319 
L 411.318206 558.289407 
L 413.764154 557.295987 
L 416.200045 556.278158 
L 418.625636 555.236021 
L 421.040684 554.16968 
L 423.444949 553.079243 
L 425.838189 551.964818 
L 428.220166 550.826517 
L 430.59064 549.664453 
L 432.949376 548.478743 
L 435.296137 547.269505 
L 437.630688 546.036861 
L 439.952796 544.780933 
L 442.26223 543.501847 
L 444.558757 542.199732 
L 446.842148 540.874716 
L 449.112175 539.526933 
L 451.368611 538.156518 
L 453.61123 536.763607 
L 455.839809 535.34834 
L 458.054123 533.910858 
L 460.253952 532.451306 
L 462.439076 530.969828 
L 464.609276 529.466574 
L 466.764336 527.941693 
L 468.904039 526.395339 
L 471.028171 524.827664 
L 473.136521 523.238828 
L 475.228878 521.628987 
L 477.305032 519.998304 
L 479.364775 518.346941 
L 481.407902 516.675064 
L 483.434208 514.982839 
L 485.443492 513.270437 
L 487.435551 511.538027 
L 489.410186 509.785784 
L 491.367201 508.013882 
L 493.306399 506.222499 
L 495.227586 504.411814 
L 497.130571 502.582008 
L 499.015163 500.733264 
L 500.881174 498.865767 
L 502.728417 496.979703 
L 504.556707 495.075262 
L 506.365861 493.152633 
L 508.1557 491.212009 
L 509.926042 489.253584 
L 511.676712 487.277553 
L 513.407535 485.284116 
L 515.118337 483.273469 
L 516.808948 481.245816 
L 518.479198 479.201358 
L 520.12892 477.140301 
L 521.757949 475.062849 
L 523.366123 472.969211 
L 524.95328 470.859597 
L 526.519262 468.734216 
L 528.063913 466.593282 
L 529.587077 464.437009 
L 531.088602 462.265613 
L 532.568339 460.07931 
L 534.02614 457.878319 
L 535.461857 455.662861 
L 536.875349 453.433156 
L 538.266474 451.189428 
L 539.635092 448.931902 
L 540.981067 446.660802 
L 542.304263 444.376356 
L 543.60455 442.078793 
L 544.881796 439.768342 
L 546.135875 437.445234 
L 547.36666 435.109702 
L 548.574028 432.761979 
L 549.757859 430.4023 
L 550.918035 428.030901 
L 552.054439 425.648019 
L 553.166958 423.253892 
L 554.25548 420.84876 
L 555.319897 418.432863 
L 556.360102 416.006442 
L 557.375992 413.569742 
L 558.367464 411.123004 
L 559.334419 408.666474 
L 560.276761 406.200398 
L 561.194396 403.725021 
L 562.087232 401.240592 
L 562.955179 398.747359 
L 563.79815 396.245572 
L 564.616062 393.73548 
L 565.408833 391.217335 
L 566.176383 388.691387 
L 566.918636 386.157891 
L 567.635517 383.617099 
L 568.326954 381.069266 
L 568.992879 378.514645 
L 569.633225 375.953493 
L 570.247928 373.386066 
L 570.836927 370.81262 
L 571.400161 368.233414 
L 571.937577 365.648703 
L 572.449118 363.058748 
L 572.934735 360.463807 
L 573.394378 357.86414 
L 573.828003 355.260007 
L 574.235565 352.651667 
L 574.617023 350.039382 
L 574.97234 347.423414 
L 575.30148 344.804023 
L 575.60441 342.181471 
L 575.8811 339.556022 
L 576.131522 336.927937 
L 576.35565 334.297479 
L 576.553464 331.664912 
L 576.724943 329.030498 
L 576.870069 326.394501 
L 576.988828 323.757184 
L 577.081209 321.118812 
L 577.147202 318.479648 
L 577.1868 315.839956 
L 577.2 313.2 
z
" clip-path="url(#p1ceaaecb97)" style="fill: #00d4ff"/>
   </g>
   <g id="patch_4">
    <path d="M 313.2 574.56 
L 310.586444 574.546932 
L 307.973148 574.50773 
L 305.360376 574.442397 
L 302.748388 574.35094 
L 300.137444 574.233368 
L 297.527807 574.089693 
L 294.919737 573.919929 
L 292.313496 573.724094 
L 289.709342 573.502206 
L 287.107538 573.254289 
L 284.508343 572.980366 
L 281.912018 572.680465 
L 279.31882 572.354617 
L 276.729012 572.002853 
L 274.14285 571.625209 
L 271.560594 571.221723 
L 268.982501 570.792435 
L 266.408831 570.337388 
L 263.839839 569.856627 
L 261.275784 569.350201 
L 258.716921 568.81816 
L 256.163506 568.260557 
L 253.615794 567.677449 
L 251.074042 567.068893 
L 248.538501 566.434951 
L 246.009427 565.775685 
L 243.487072 565.091161 
L 240.971688 564.381449 
L 238.463526 563.646619 
L 235.962839 562.886745 
L 233.469875 562.101902 
L 230.984884 561.292169 
L 228.508114 560.457627 
L 226.039814 559.598359 
L 223.580229 558.714452 
L 221.129606 557.805994 
L 218.688191 556.873075 
L 216.256226 555.915789 
L 213.833956 554.934232 
L 211.421622 553.928501 
L 209.019466 552.898698 
L 206.627728 551.844925 
L 204.246647 550.767288 
L 201.876461 549.665895 
L 199.517408 548.540855 
L 197.169723 547.392281 
L 194.83364 546.220288 
L 192.509395 545.024993 
L 190.197218 543.806516 
L 187.897341 542.564978 
L 185.609995 541.300505 
L 183.335407 540.013221 
L 181.073806 538.703256 
L 178.825417 537.370741 
L 176.590466 536.015809 
L 174.369175 534.638596 
L 172.161768 533.239239 
L 169.968464 531.817878 
L 167.789483 530.374656 
L 165.625043 528.909716 
L 163.475361 527.423206 
L 161.34065 525.915273 
L 159.221126 524.38607 
L 157.116999 522.835747 
L 155.028481 521.264462 
L 152.95578 519.67237 
L 150.899102 518.059631 
L 148.858655 516.426406 
L 146.834642 514.772858 
L 144.827265 513.099154 
L 142.836726 511.40546 
L 140.863222 509.691945 
L 138.906952 507.958782 
L 136.968111 506.206143 
L 135.046894 504.434203 
L 133.143491 502.64314 
L 131.258094 500.833133 
L 129.390891 499.004362 
L 127.542069 497.157012 
L 125.711812 495.291266 
L 123.900304 493.40731 
L 122.107726 491.505335 
L 120.334257 489.585529 
L 118.580074 487.648084 
L 116.845353 485.693195 
L 115.130268 483.721057 
L 113.434989 481.731866 
L 111.759687 479.725823 
L 110.104528 477.703127 
L 108.469679 475.663981 
L 106.855303 473.608589 
L 105.261561 471.537156 
L 103.688612 469.44989 
L 102.136615 467.346998 
L 100.605724 465.228692 
L 99.096092 463.095184 
L 97.60787 460.946685 
L 96.141207 458.783413 
L 94.69625 456.605582 
L 93.273143 454.413411 
L 91.872029 452.207118 
L 90.493047 449.986925 
L 89.136336 447.753053 
L 87.802031 445.505726 
L 86.490266 443.245169 
L 85.201171 440.971607 
L 83.934876 438.685268 
L 82.691508 436.386381 
L 81.47119 434.075175 
L 80.274044 431.751882 
L 79.100192 429.416734 
L 77.949748 427.069964 
L 76.82283 424.711807 
L 75.719549 422.3425 
L 74.640017 419.962278 
L 73.584339 417.571379 
L 72.552624 415.170044 
L 71.544973 412.758512 
L 70.561487 410.337024 
L 69.602264 407.905823 
L 68.667402 405.465151 
L 67.756992 403.015252 
L 66.871127 400.556372 
L 66.009894 398.088757 
L 65.17338 395.612653 
L 64.361668 393.128307 
L 63.57484 390.635969 
L 62.812975 388.135887 
L 62.076148 385.628312 
L 61.364433 383.113494 
L 60.677901 380.591685 
L 60.016621 378.063136 
L 59.38066 375.528101 
L 58.77008 372.986834 
L 58.184943 370.439588 
L 57.625308 367.886618 
L 57.091229 365.328179 
L 56.582761 362.764528 
L 56.099955 360.19592 
L 55.642859 357.622612 
L 55.211518 355.044863 
L 54.805975 352.462929 
L 54.426272 349.877069 
L 54.072446 347.287541 
L 53.744533 344.694604 
L 53.442565 342.098518 
L 53.166572 339.499542 
L 52.916582 336.897936 
L 52.692621 334.29396 
L 52.49471 331.687875 
L 52.32287 329.079941 
L 52.177117 326.470419 
L 52.057466 323.859571 
L 51.963929 321.247656 
L 51.896515 318.634936 
L 51.855232 316.021673 
L 51.840083 313.408128 
L 51.84 313.2 
L 49.2 313.2 
L 49.200084 313.41023 
L 49.215386 316.050175 
L 49.257086 318.689835 
L 49.325181 321.328945 
L 49.419662 323.967243 
L 49.540522 326.604464 
L 49.687747 329.240345 
L 49.861324 331.874621 
L 50.061233 334.50703 
L 50.287457 337.137309 
L 50.539972 339.765194 
L 50.818752 342.390422 
L 51.12377 345.012731 
L 51.454996 347.631859 
L 51.812396 350.247544 
L 52.195935 352.859524 
L 52.605573 355.467538 
L 53.041271 358.071326 
L 53.502985 360.670626 
L 53.990668 363.265179 
L 54.504272 365.854726 
L 55.043745 368.439008 
L 55.609034 371.017765 
L 56.200081 373.590741 
L 56.816828 376.157678 
L 57.459214 378.718319 
L 58.127173 381.272409 
L 58.820639 383.819691 
L 59.539543 386.359911 
L 60.283813 388.892815 
L 61.053374 391.41815 
L 61.84815 393.935664 
L 62.66806 396.445104 
L 63.513024 398.946219 
L 64.382956 401.43876 
L 65.27777 403.922477 
L 66.197376 406.397122 
L 67.141681 408.862447 
L 68.110593 411.318206 
L 69.104013 413.764154 
L 70.121842 416.200045 
L 71.163979 418.625636 
L 72.23032 421.040684 
L 73.320757 423.444949 
L 74.435182 425.838189 
L 75.573483 428.220166 
L 76.735547 430.59064 
L 77.921257 432.949376 
L 79.130495 435.296137 
L 80.363139 437.630688 
L 81.619067 439.952796 
L 82.898153 442.26223 
L 84.200268 444.558757 
L 85.525284 446.842148 
L 86.873067 449.112175 
L 88.243482 451.368611 
L 89.636393 453.61123 
L 91.05166 455.839809 
L 92.489142 458.054123 
L 93.948694 460.253952 
L 95.430172 462.439076 
L 96.933426 464.609276 
L 98.458307 466.764336 
L 100.004661 468.904039 
L 101.572336 471.028171 
L 103.161172 473.136521 
L 104.771013 475.228878 
L 106.401696 477.305032 
L 108.053059 479.364775 
L 109.724936 481.407902 
L 111.417161 483.434208 
L 113.129563 485.443492 
L 114.861973 487.435551 
L 116.614216 489.410186 
L 118.386118 491.367201 
L 120.177501 493.306399 
L 121.988186 495.227586 
L 123.817992 497.130571 
L 125.666736 499.015163 
L 127.534233 500.881174 
L 129.420297 502.728417 
L 131.324738 504.556707 
L 133.247367 506.365861 
L 135.187991 508.1557 
L 137.146416 509.926042 
L 139.122447 511.676712 
L 141.115884 513.407535 
L 143.126531 515.118337 
L 145.154184 516.808948 
L 147.198642 518.479198 
L 149.259699 520.12892 
L 151.337151 521.757949 
L 153.430789 523.366123 
L 155.540403 524.95328 
L 157.665784 526.519262 
L 159.806718 528.063913 
L 161.962991 529.587077 
L 164.134387 531.088602 
L 166.32069 532.568339 
L 168.521681 534.02614 
L 170.737139 535.461857 
L 172.966844 536.875349 
L 175.210572 538.266474 
L 177.468098 539.635092 
L 179.739198 540.981067 
L 182.023644 542.304263 
L 184.321207 543.60455 
L 186.631658 544.881796 
L 188.954766 546.135875 
L 191.290298 547.36666 
L 193.638021 548.574028 
L 195.9977 549.757859 
L 198.369099 550.918035 
L 200.751981 552.054439 
L 203.146108 553.166958 
L 205.55124 554.25548 
L 207.967137 555.319897 
L 210.393558 556.360102 
L 212.830258 557.375992 
L 215.276996 558.367464 
L 217.733526 559.334419 
L 220.199602 560.276761 
L 222.674979 561.194396 
L 225.159408 562.087232 
L 227.652641 562.955179 
L 230.154428 563.79815 
L 232.66452 564.616062 
L 235.182665 565.408833 
L 237.708613 566.176383 
L 240.242109 566.918636 
L 242.782901 567.635517 
L 245.330734 568.326954 
L 247.885355 568.992879 
L 250.446507 569.633225 
L 253.013934 570.247928 
L 255.58738 570.836927 
L 258.166586 571.400161 
L 260.751297 571.937577 
L 263.341252 572.449118 
L 265.936193 572.934735 
L 268.53586 573.394378 
L 271.139993 573.828003 
L 273.748333 574.235565 
L 276.360618 574.617023 
L 278.976586 574.97234 
L 281.595977 575.30148 
L 284.218529 575.60441 
L 286.843978 575.8811 
L 289.472063 576.131522 
L 292.102521 576.35565 
L 294.735088 576.553464 
L 297.369502 576.724943 
L 300.005499 576.870069 
L 302.642816 576.988828 
L 305.281188 577.081209 
L 307.920352 577.147202 
L 310.560044 577.1868 
L 313.2 577.2 
z
" clip-path="url(#p1ceaaecb97)" style="fill: #ffe600"/>
   </g>
   <g id="patch_5">
    <path d="M 51.84 313.2 
L 51.853068 310.586444 
L 51.89227 307.973148 
L 51.957603 305.360376 
L 52.04906 302.748388 
L 52.166632 300.137444 
L 52.310307 297.527807 
L 52.480071 294.919737 
L 52.675906 292.313496 
L 52.897794 289.709342 
L 53.145711 287.107538 
L 53.419634 284.508343 
L 53.719535 281.912018 
L 54.045383 279.31882 
L 54.397147 276.729012 
L 54.774791 274.14285 
L 55.178277 271.560594 
L 55.607565 268.982501 
L 56.062612 266.408831 
L 56.543373 263.839839 
L 57.049799 261.275784 
L 57.58184 258.716921 
L 58.139443 256.163506 
L 58.722551 253.615794 
L 59.331107 251.074042 
L 59.965049 248.538501 
L 60.624315 246.009427 
L 61.308839 243.487072 
L 62.018551 240.971688 
L 62.753381 238.463526 
L 63.513255 235.962839 
L 64.298098 233.469875 
L 65.107831 230.984884 
L 65.942373 228.508114 
L 66.801641 226.039814 
L 67.685548 223.580229 
L 68.594006 221.129606 
L 69.526925 218.688191 
L 70.484211 216.256226 
L 71.465768 213.833956 
L 72.471499 211.421622 
L 73.501302 209.019466 
L 74.555075 206.627728 
L 75.632712 204.246647 
L 76.734105 201.876461 
L 77.859145 199.517408 
L 79.007719 197.169723 
L 80.179712 194.83364 
L 81.375007 192.509395 
L 82.593484 190.197218 
L 83.835022 187.897341 
L 85.099495 185.609995 
L 86.386779 183.335407 
L 87.696744 181.073806 
L 89.029259 178.825417 
L 90.384191 176.590466 
L 91.761404 174.369175 
L 93.160761 172.161768 
L 94.582122 169.968464 
L 96.025344 167.789483 
L 97.490284 165.625043 
L 98.976794 163.475361 
L 100.484727 161.34065 
L 102.01393 159.221126 
L 103.564253 157.116999 
L 105.135538 155.028481 
L 106.72763 152.95578 
L 108.340369 150.899102 
L 109.973594 148.858655 
L 111.627142 146.834642 
L 113.300846 144.827265 
L 114.99454 142.836726 
L 116.708055 140.863222 
L 118.441218 138.906952 
L 120.193857 136.968111 
L 121.965797 135.046894 
L 123.75686 133.143491 
L 125.566867 131.258094 
L 127.395638 129.390891 
L 129.242988 127.542069 
L 131.108734 125.711812 
L 132.99269 123.900304 
L 134.894665 122.107726 
L 136.814471 120.334257 
L 138.751916 118.580074 
L 140.706805 116.845353 
L 142.678943 115.130268 
L 144.668134 113.434989 
L 146.674177 111.759687 
L 148.696873 110.104528 
L 150.736019 108.469679 
L 152.791411 106.855303 
L 154.862844 105.261561 
L 156.95011 103.688612 
L 159.053002 102.136615 
L 161.171308 100.605724 
L 163.304816 99.096092 
L 165.453315 97.60787 
L 167.616587 96.141207 
L 169.794418 94.69625 
L 171.986589 93.273143 
L 174.192882 91.872029 
L 176.413075 90.493047 
L 178.646947 89.136336 
L 180.894274 87.802031 
L 183.154831 86.490266 
L 185.428393 85.201171 
L 187.714732 83.934876 
L 190.013619 82.691508 
L 192.324825 81.47119 
L 194.648118 80.274044 
L 196.983266 79.100192 
L 199.330036 77.949748 
L 201.688193 76.82283 
L 204.0575 75.719549 
L 206.437722 74.640017 
L 208.828621 73.584339 
L 211.229956 72.552624 
L 213.641488 71.544973 
L 216.062976 70.561487 
L 218.494177 69.602264 
L 220.934849 68.667402 
L 223.384748 67.756992 
L 225.843628 66.871127 
L 228.311243 66.009894 
L 230.787347 65.17338 
L 233.271693 64.361668 
L 235.764031 63.57484 
L 238.264113 62.812975 
L 240.771688 62.076148 
L 243.286506 61.364433 
L 245.808315 60.677901 
L 248.336864 60.016621 
L 250.871899 59.38066 
L 253.413166 58.77008 
L 255.960412 58.184943 
L 258.513382 57.625308 
L 261.071821 57.091229 
L 263.635472 56.582761 
L 266.20408 56.099955 
L 268.777388 55.642859 
L 271.355137 55.211518 
L 273.937071 54.805975 
L 276.522931 54.426272 
L 279.112459 54.072446 
L 281.705396 53.744533 
L 284.301482 53.442565 
L 286.900458 53.166572 
L 289.502064 52.916582 
L 292.10604 52.692621 
L 294.712125 52.49471 
L 297.320059 52.32287 
L 299.929581 52.177117 
L 302.540429 52.057466 
L 305.152344 51.963929 
L 307.765064 51.896515 
L 310.378327 51.855232 
L 312.991872 51.840083 
L 313.2 51.84 
L 313.2 49.2 
L 312.98977 49.200084 
L 310.349825 49.215386 
L 307.710165 49.257086 
L 305.071055 49.325181 
L 302.432757 49.419662 
L 299.795536 49.540522 
L 297.159655 49.687747 
L 294.525379 49.861324 
L 291.89297 50.061233 
L 289.262691 50.287457 
L 286.634806 50.539972 
L 284.009578 50.818752 
L 281.387269 51.12377 
L 278.768141 51.454996 
L 276.152456 51.812396 
L 273.540476 52.195935 
L 270.932462 52.605573 
L 268.328674 53.041271 
L 265.729374 53.502985 
L 263.134821 53.990668 
L 260.545274 54.504272 
L 257.960992 55.043745 
L 255.382235 55.609034 
L 252.809259 56.200081 
L 250.242322 56.816828 
L 247.681681 57.459214 
L 245.127591 58.127173 
L 242.580309 58.820639 
L 240.040089 59.539543 
L 237.507185 60.283813 
L 234.98185 61.053374 
L 232.464336 61.84815 
L 229.954896 62.66806 
L 227.453781 63.513024 
L 224.96124 64.382956 
L 222.477523 65.27777 
L 220.002878 66.197376 
L 217.537553 67.141681 
L 215.081794 68.110593 
L 212.635846 69.104013 
L 210.199955 70.121842 
L 207.774364 71.163979 
L 205.359316 72.23032 
L 202.955051 73.320757 
L 200.561811 74.435182 
L 198.179834 75.573483 
L 195.80936 76.735547 
L 193.450624 77.921257 
L 191.103863 79.130495 
L 188.769312 80.363139 
L 186.447204 81.619067 
L 184.13777 82.898153 
L 181.841243 84.200268 
L 179.557852 85.525284 
L 177.287825 86.873067 
L 175.031389 88.243482 
L 172.78877 89.636393 
L 170.560191 91.05166 
L 168.345877 92.489142 
L 166.146048 93.948694 
L 163.960924 95.430172 
L 161.790724 96.933426 
L 159.635664 98.458307 
L 157.495961 100.004661 
L 155.371829 101.572336 
L 153.263479 103.161172 
L 151.171122 104.771013 
L 149.094968 106.401696 
L 147.035225 108.053059 
L 144.992098 109.724936 
L 142.965792 111.417161 
L 140.956508 113.129563 
L 138.964449 114.861973 
L 136.989814 116.614216 
L 135.032799 118.386118 
L 133.093601 120.177501 
L 131.172414 121.988186 
L 129.269429 123.817992 
L 127.384837 125.666736 
L 125.518826 127.534233 
L 123.671583 129.420297 
L 121.843293 131.324738 
L 120.034139 133.247367 
L 118.2443 135.187991 
L 116.473958 137.146416 
L 114.723288 139.122447 
L 112.992465 141.115884 
L 111.281663 143.126531 
L 109.591052 145.154184 
L 107.920802 147.198642 
L 106.27108 149.259699 
L 104.642051 151.337151 
L 103.033877 153.430789 
L 101.44672 155.540403 
L 99.880738 157.665784 
L 98.336087 159.806718 
L 96.812923 161.962991 
L 95.311398 164.134387 
L 93.831661 166.32069 
L 92.37386 168.521681 
L 90.938143 170.737139 
L 89.524651 172.966844 
L 88.133526 175.210572 
L 86.764908 177.468098 
L 85.418933 179.739198 
L 84.095737 182.023644 
L 82.79545 184.321207 
L 81.518204 186.631658 
L 80.264125 188.954766 
L 79.03334 191.290298 
L 77.825972 193.638021 
L 76.642141 195.9977 
L 75.481965 198.369099 
L 74.345561 200.751981 
L 73.233042 203.146108 
L 72.14452 205.55124 
L 71.080103 207.967137 
L 70.039898 210.393558 
L 69.024008 212.830258 
L 68.032536 215.276996 
L 67.065581 217.733526 
L 66.123239 220.199602 
L 65.205604 222.674979 
L 64.312768 225.159408 
L 63.444821 227.652641 
L 62.60185 230.154428 
L 61.783938 232.66452 
L 60.991167 235.182665 
L 60.223617 237.708613 
L 59.481364 240.242109 
L 58.764483 242.782901 
L 58.073046 245.330734 
L 57.407121 247.885355 
L 56.766775 250.446507 
L 56.152072 253.013934 
L 55.563073 255.58738 
L 54.999839 258.166586 
L 54.462423 260.751297 
L 53.950882 263.341252 
L 53.465265 265.936193 
L 53.005622 268.53586 
L 52.571997 271.139993 
L 52.164435 273.748333 
L 51.782977 276.360618 
L 51.42766 278.976586 
L 51.09852 281.595977 
L 50.79559 284.218529 
L 50.5189 286.843978 
L 50.268478 289.472063 
L 50.04435 292.102521 
L 49.846536 294.735088 
L 49.675057 297.369502 
L 49.529931 300.005499 
L 49.411172 302.642816 
L 49.318791 305.281188 
L 49.252798 307.920352 
L 49.2132 310.560044 
L 49.2 313.2 
z
" clip-path="url(#p1ceaaecb97)" style="fill: #800000"/>
   </g>
   <g id="PatchCollection_1">
    <path d="M 574.56 313.2 
L 574.56 313.2 
L 574.546932 315.813556 
L 574.50773 318.426852 
L 574.442397 321.039624 
L 574.35094 323.651612 
L 574.233368 326.262556 
L 574.089693 328.872193 
L 573.919929 331.480263 
L 573.724094 334.086504 
L 573.502206 336.690658 
L 573.254289 339.292462 
L 572.980366 341.891657 
L 572.680465 344.487982 
L 572.354617 347.08118 
L 572.002853 349.670988 
L 571.625209 352.25715 
L 571.221723 354.839406 
L 570.792435 357.417499 
L 570.337388 359.991169 
L 569.856627 362.560161 
L 569.350201 365.124216 
L 568.81816 367.683079 
L 568.260557 370.236494 
L 567.677449 372.784206 
L 567.068893 375.325958 
L 566.434951 377.861499 
L 565.775685 380.390573 
L 565.091161 382.912928 
L 564.381449 385.428312 
L 563.646619 387.936474 
L 562.886745 390.437161 
L 562.101902 392.930125 
L 561.292169 395.415116 
L 560.457627 397.891886 
L 559.598359 400.360186 
L 558.714452 402.819771 
L 557.805994 405.270394 
L 556.873075 407.711809 
L 555.915789 410.143774 
L 554.934232 412.566044 
L 553.928501 414.978378 
L 552.898698 417.380534 
L 551.844925 419.772272 
L 550.767288 422.153353 
L 549.665895 424.523539 
L 548.540855 426.882592 
L 547.392281 429.230277 
L 546.220288 431.56636 
L 545.024993 433.890605 
L 543.806516 436.202782 
L 542.564978 438.502659 
L 541.300505 440.790005 
L 540.013221 443.064593 
L 538.703256 445.326194 
L 537.370741 447.574583 
L 536.015809 449.809534 
L 534.638596 452.030825 
L 533.239239 454.238232 
L 531.817878 456.431536 
L 530.374656 458.610517 
L 528.909716 460.774957 
L 527.423206 462.924639 
L 525.915273 465.05935 
L 524.38607 467.178874 
L 522.835747 469.283001 
L 521.264462 471.371519 
L 519.67237 473.44422 
L 518.059631 475.500898 
L 516.426406 477.541345 
L 514.772858 479.565358 
L 513.099154 481.572735 
L 511.40546 483.563274 
L 509.691945 485.536778 
L 507.958782 487.493048 
L 506.206143 489.431889 
L 504.434203 491.353106 
L 502.64314 493.256509 
L 500.833133 495.141906 
L 499.004362 497.009109 
L 497.157012 498.857931 
L 495.291266 500.688188 
L 493.40731 502.499696 
L 491.505335 504.292274 
L 489.585529 506.065743 
L 487.648084 507.819926 
L 485.693195 509.554647 
L 483.721057 511.269732 
L 481.731866 512.965011 
L 479.725823 514.640313 
L 477.703127 516.295472 
L 475.663981 517.930321 
L 473.608589 519.544697 
L 471.537156 521.138439 
L 469.44989 522.711388 
L 467.346998 524.263385 
L 465.228692 525.794276 
L 463.095184 527.303908 
L 460.946685 528.79213 
L 458.783413 530.258793 
L 456.605582 531.70375 
L 454.413411 533.126857 
L 452.207118 534.527971 
L 449.986925 535.906953 
L 447.753053 537.263664 
L 445.505726 538.597969 
L 443.245169 539.909734 
L 440.971607 541.198829 
L 438.685268 542.465124 
L 436.386381 543.708492 
L 434.075175 544.92881 
L 431.751882 546.125956 
L 429.416734 547.299808 
L 427.069964 548.450252 
L 424.711807 549.57717 
L 422.3425 550.680451 
L 419.962278 551.759983 
L 417.571379 552.815661 
L 415.170044 553.847376 
L 412.758512 554.855027 
L 410.337024 555.838513 
L 407.905823 556.797736 
L 405.465151 557.732598 
L 403.015252 558.643008 
L 400.556372 559.528873 
L 398.088757 560.390106 
L 395.612653 561.22662 
L 393.128307 562.038332 
L 390.635969 562.82516 
L 388.135887 563.587025 
L 385.628312 564.323852 
L 383.113494 565.035567 
L 380.591685 565.722099 
L 378.063136 566.383379 
L 375.528101 567.01934 
L 372.986834 567.62992 
L 370.439588 568.215057 
L 367.886618 568.774692 
L 365.328179 569.308771 
L 362.764528 569.817239 
L 360.19592 570.300045 
L 357.622612 570.757141 
L 355.044863 571.188482 
L 352.462929 571.594025 
L 349.877069 571.973728 
L 347.287541 572.327554 
L 344.694604 572.655467 
L 342.098518 572.957435 
L 339.499542 573.233428 
L 336.897936 573.483418 
L 334.29396 573.707379 
L 331.687875 573.90529 
L 329.079941 574.07713 
L 326.470419 574.222883 
L 323.859571 574.342534 
L 321.247656 574.436071 
L 318.634936 574.503485 
L 316.021673 574.544768 
L 313.408128 574.559917 
L 313.2 574.56 
L 313.2 574.56 
Q 313.2 313.2 51.84 313.2 
L 51.84 313.2 
L 51.84 313.2 
L 51.853068 310.586444 
L 51.89227 307.973148 
L 51.957603 305.360376 
L 52.04906 302.748388 
L 52.166632 300.137444 
L 52.310307 297.527807 
L 52.480071 294.919737 
L 52.675906 292.313496 
L 52.897794 289.709342 
L 53.145711 287.107538 
L 53.419634 284.508343 
L 53.719535 281.912018 
L 54.045383 279.31882 
L 54.397147 276.729012 
L 54.774791 274.14285 
L 55.178277 271.560594 
L 55.607565 268.982501 
L 56.062612 266.408831 
L 56.543373 263.839839 
L 57.049799 261.275784 
L 57.58184 258.716921 
L 58.139443 256.163506 
L 58.722551 253.615794 
L 59.331107 251.074042 
L 59.965049 248.538501 
L 60.624315 246.009427 
L 61.308839 243.487072 
L 62.018551 240.971688 
L 62.753381 238.463526 
L 63.513255 235.962839 
L 64.298098 233.469875 
L 65.107831 230.984884 
L 65.942373 228.508114 
L 66.801641 226.039814 
L 67.685548 223.580229 
L 68.594006 221.129606 
L 69.526925 218.688191 
L 70.484211 216.256226 
L 71.465768 213.833956 
L 72.471499 211.421622 
L 73.501302 209.019466 
L 74.555075 206.627728 
L 75.632712 204.246647 
L 76.734105 201.876461 
L 77.859145 199.517408 
L 79.007719 197.169723 
L 80.179712 194.83364 
L 81.375007 192.509395 
L 82.593484 190.197218 
L 83.835022 187.897341 
L 85.099495 185.609995 
L 86.386779 183.335407 
L 87.696744 181.073806 
L 89.029259 178.825417 
L 90.384191 176.590466 
L 91.761404 174.369175 
L 93.160761 172.161768 
L 94.582122 169.968464 
L 96.025344 167.789483 
L 97.490284 165.625043 
L 98.976794 163.475361 
L 100.484727 161.34065 
L 102.01393 159.221126 
L 103.564253 157.116999 
L 105.135538 155.028481 
L 106.72763 152.95578 
L 108.340369 150.899102 
L 109.973594 148.858655 
L 111.627142 146.834642 
L 113.300846 144.827265 
L 114.99454 142.836726 
L 116.708055 140.863222 
L 118.441218 138.906952 
L 120.193857 136.968111 
L 121.965797 135.046894 
L 123.75686 133.143491 
L 125.566867 131.258094 
L 127.395638 129.390891 
L 129.242988 127.542069 
L 131.108734 125.711812 
L 132.99269 123.900304 
L 134.894665 122.107726 
L 136.814471 120.334257 
L 138.751916 118.580074 
L 140.706805 116.845353 
L 142.678943 115.130268 
L 144.668134 113.434989 
L 146.674177 111.759687 
L 148.696873 110.104528 
L 150.736019 108.469679 
L 152.791411 106.855303 
L 154.862844 105.261561 
L 156.95011 103.688612 
L 159.053002 102.136615 
L 161.171308 100.605724 
L 163.304816 99.096092 
L 165.453315 97.60787 
L 167.616587 96.141207 
L 169.794418 94.69625 
L 171.986589 93.273143 
L 174.192882 91.872029 
L 176.413075 90.493047 
L 178.646947 89.136336 
L 180.894274 87.802031 
L 183.154831 86.490266 
L 185.428393 85.201171 
L 187.714732 83.934876 
L 190.013619 82.691508 
L 192.324825 81.47119 
L 194.648118 80.274044 
L 196.983266 79.100192 
L 199.330036 77.949748 
L 201.688193 76.82283 
L 204.0575 75.719549 
L 206.437722 74.640017 
L 208.828621 73.584339 
L 211.229956 72.552624 
L 213.641488 71.544973 
L 216.062976 70.561487 
L 218.494177 69.602264 
L 220.934849 68.667402 
L 223.384748 67.756992 
L 225.843628 66.871127 
L 228.311243 66.009894 
L 230.787347 65.17338 
L 233.271693 64.361668 
L 235.764031 63.57484 
L 238.264113 62.812975 
L 240.771688 62.076148 
L 243.286506 61.364433 
L 245.808315 60.677901 
L 248.336864 60.016621 
L 250.871899 59.38066 
L 253.413166 58.77008 
L 255.960412 58.184943 
L 258.513382 57.625308 
L 261.071821 57.091229 
L 263.635472 56.582761 
L 266.20408 56.099955 
L 268.777388 55.642859 
L 271.355137 55.211518 
L 273.937071 54.805975 
L 276.522931 54.426272 
L 279.112459 54.072446 
L 281.705396 53.744533 
L 284.301482 53.442565 
L 286.900458 53.166572 
L 289.502064 52.916582 
L 292.10604 52.692621 
L 294.712125 52.49471 
L 297.320059 52.32287 
L 299.929581 52.177117 
L 302.540429 52.057466 
L 305.152344 51.963929 
L 307.765064 51.896515 
L 310.378327 51.855232 
L 312.991872 51.840083 
L 313.2 51.84 
L 313.2 51.84 
Q 313.2 313.2 574.56 313.2 
z
" clip-path="url(#p1ceaaecb97)" style="fill: #00d4ff; fill-opacity: 0.5; stroke: #808080; stroke-opacity: 0.5; stroke-width: 0.1"/>
    <path d="M 313.2 51.84 
L 313.2 51.84 
L 315.813556 51.853068 
L 318.426852 51.89227 
L 321.039624 51.957603 
L 323.651612 52.04906 
L 326.262556 52.166632 
L 328.872193 52.310307 
L 331.480263 52.480071 
L 334.086504 52.675906 
L 336.690658 52.897794 
L 339.292462 53.145711 
L 341.891657 53.419634 
L 344.487982 53.719535 
L 347.08118 54.045383 
L 349.670988 54.397147 
L 352.25715 54.774791 
L 354.839406 55.178277 
L 357.417499 55.607565 
L 359.991169 56.062612 
L 362.560161 56.543373 
L 365.124216 57.049799 
L 367.683079 57.58184 
L 370.236494 58.139443 
L 372.784206 58.722551 
L 375.325958 59.331107 
L 377.861499 59.965049 
L 380.390573 60.624315 
L 382.912928 61.308839 
L 385.428312 62.018551 
L 387.936474 62.753381 
L 390.437161 63.513255 
L 392.930125 64.298098 
L 395.415116 65.107831 
L 397.891886 65.942373 
L 400.360186 66.801641 
L 402.819771 67.685548 
L 405.270394 68.594006 
L 407.711809 69.526925 
L 410.143774 70.484211 
L 412.566044 71.465768 
L 414.978378 72.471499 
L 417.380534 73.501302 
L 419.772272 74.555075 
L 422.153353 75.632712 
L 424.523539 76.734105 
L 426.882592 77.859145 
L 429.230277 79.007719 
L 431.56636 80.179712 
L 433.890605 81.375007 
L 436.202782 82.593484 
L 438.502659 83.835022 
L 440.790005 85.099495 
L 443.064593 86.386779 
L 445.326194 87.696744 
L 447.574583 89.029259 
L 449.809534 90.384191 
L 452.030825 91.761404 
L 454.238232 93.160761 
L 456.431536 94.582122 
L 458.610517 96.025344 
L 460.774957 97.490284 
L 462.924639 98.976794 
L 465.05935 100.484727 
L 467.178874 102.01393 
L 469.283001 103.564253 
L 471.371519 105.135538 
L 473.44422 106.72763 
L 475.500898 108.340369 
L 477.541345 109.973594 
L 479.565358 111.627142 
L 481.572735 113.300846 
L 483.563274 114.99454 
L 485.536778 116.708055 
L 487.493048 118.441218 
L 489.431889 120.193857 
L 491.353106 121.965797 
L 493.256509 123.75686 
L 495.141906 125.566867 
L 497.009109 127.395638 
L 498.857931 129.242988 
L 500.688188 131.108734 
L 502.499696 132.99269 
L 504.292274 134.894665 
L 506.065743 136.814471 
L 507.819926 138.751916 
L 509.554647 140.706805 
L 511.269732 142.678943 
L 512.965011 144.668134 
L 514.640313 146.674177 
L 516.295472 148.696873 
L 517.930321 150.736019 
L 519.544697 152.791411 
L 521.138439 154.862844 
L 522.711388 156.95011 
L 524.263385 159.053002 
L 525.794276 161.171308 
L 527.303908 163.304816 
L 528.79213 165.453315 
L 530.258793 167.616587 
L 531.70375 169.794418 
L 533.126857 171.986589 
L 534.527971 174.192882 
L 535.906953 176.413075 
L 537.263664 178.646947 
L 538.597969 180.894274 
L 539.909734 183.154831 
L 541.198829 185.428393 
L 542.465124 187.714732 
L 543.708492 190.013619 
L 544.92881 192.324825 
L 546.125956 194.648118 
L 547.299808 196.983266 
L 548.450252 199.330036 
L 549.57717 201.688193 
L 550.680451 204.0575 
L 551.759983 206.437722 
L 552.815661 208.828621 
L 553.847376 211.229956 
L 554.855027 213.641488 
L 555.838513 216.062976 
L 556.797736 218.494177 
L 557.732598 220.934849 
L 558.643008 223.384748 
L 559.528873 225.843628 
L 560.390106 228.311243 
L 561.22662 230.787347 
L 562.038332 233.271693 
L 562.82516 235.764031 
L 563.587025 238.264113 
L 564.323852 240.771688 
L 565.035567 243.286506 
L 565.722099 245.808315 
L 566.383379 248.336864 
L 567.01934 250.871899 
L 567.62992 253.413166 
L 568.215057 255.960412 
L 568.774692 258.513382 
L 569.308771 261.071821 
L 569.817239 263.635472 
L 570.300045 266.20408 
L 570.757141 268.777388 
L 571.188482 271.355137 
L 571.594025 273.937071 
L 571.973728 276.522931 
L 572.327554 279.112459 
L 572.655467 281.705396 
L 572.957435 284.301482 
L 573.233428 286.900458 
L 573.483418 289.502064 
L 573.707379 292.10604 
L 573.90529 294.712125 
L 574.07713 297.320059 
L 574.222883 299.929581 
L 574.342534 302.540429 
L 574.436071 305.152344 
L 574.503485 307.765064 
L 574.544768 310.378327 
L 574.559917 312.991872 
L 574.56 313.2 
L 574.56 313.2 
Q 313.2 313.2 313.2 574.56 
L 313.2 574.56 
L 313.2 574.56 
L 310.586444 574.546932 
L 307.973148 574.50773 
L 305.360376 574.442397 
L 302.748388 574.35094 
L 300.137444 574.233368 
L 297.527807 574.089693 
L 294.919737 573.919929 
L 292.313496 573.724094 
L 289.709342 573.502206 
L 287.107538 573.254289 
L 284.508343 572.980366 
L 281.912018 572.680465 
L 279.31882 572.354617 
L 276.729012 572.002853 
L 274.14285 571.625209 
L 271.560594 571.221723 
L 268.982501 570.792435 
L 266.408831 570.337388 
L 263.839839 569.856627 
L 261.275784 569.350201 
L 258.716921 568.81816 
L 256.163506 568.260557 
L 253.615794 567.677449 
L 251.074042 567.068893 
L 248.538501 566.434951 
L 246.009427 565.775685 
L 243.487072 565.091161 
L 240.971688 564.381449 
L 238.463526 563.646619 
L 235.962839 562.886745 
L 233.469875 562.101902 
L 230.984884 561.292169 
L 228.508114 560.457627 
L 226.039814 559.598359 
L 223.580229 558.714452 
L 221.129606 557.805994 
L 218.688191 556.873075 
L 216.256226 555.915789 
L 213.833956 554.934232 
L 211.421622 553.928501 
L 209.019466 552.898698 
L 206.627728 551.844925 
L 204.246647 550.767288 
L 201.876461 549.665895 
L 199.517408 548.540855 
L 197.169723 547.392281 
L 194.83364 546.220288 
L 192.509395 545.024993 
L 190.197218 543.806516 
L 187.897341 542.564978 
L 185.609995 541.300505 
L 183.335407 540.013221 
L 181.073806 538.703256 
L 178.825417 537.370741 
L 176.590466 536.015809 
L 174.369175 534.638596 
L 172.161768 533.239239 
L 169.968464 531.817878 
L 167.789483 530.374656 
L 165.625043 528.909716 
L 163.475361 527.423206 
L 161.34065 525.915273 
L 159.221126 524.38607 
L 157.116999 522.835747 
L 155.028481 521.264462 
L 152.95578 519.67237 
L 150.899102 518.059631 
L 148.858655 516.426406 
L 146.834642 514.772858 
L 144.827265 513.099154 
L 142.836726 511.40546 
L 140.863222 509.691945 
L 138.906952 507.958782 
L 136.968111 506.206143 
L 135.046894 504.434203 
L 133.143491 502.64314 
L 131.258094 500.833133 
L 129.390891 499.004362 
L 127.542069 497.157012 
L 125.711812 495.291266 
L 123.900304 493.40731 
L 122.107726 491.505335 
L 120.334257 489.585529 
L 118.580074 487.648084 
L 116.845353 485.693195 
L 115.130268 483.721057 
L 113.434989 481.731866 
L 111.759687 479.725823 
L 110.104528 477.703127 
L 108.469679 475.663981 
L 106.855303 473.608589 
L 105.261561 471.537156 
L 103.688612 469.44989 
L 102.136615 467.346998 
L 100.605724 465.228692 
L 99.096092 463.095184 
L 97.60787 460.946685 
L 96.141207 458.783413 
L 94.69625 456.605582 
L 93.273143 454.413411 
L 91.872029 452.207118 
L 90.493047 449.986925 
L 89.136336 447.753053 
L 87.802031 445.505726 
L 86.490266 443.245169 
L 85.201171 440.971607 
L 83.934876 438.685268 
L 82.691508 436.386381 
L 81.47119 434.075175 
L 80.274044 431.751882 
L 79.100192 429.416734 
L 77.949748 427.069964 
L 76.82283 424.711807 
L 75.719549 422.3425 
L 74.640017 419.962278 
L 73.584339 417.571379 
L 72.552624 415.170044 
L 71.544973 412.758512 
L 70.561487 410.337024 
L 69.602264 407.905823 
L 68.667402 405.465151 
L 67.756992 403.015252 
L 66.871127 400.556372 
L 66.009894 398.088757 
L 65.17338 395.612653 
L 64.361668 393.128307 
L 63.57484 390.635969 
L 62.812975 388.135887 
L 62.076148 385.628312 
L 61.364433 383.113494 
L 60.677901 380.591685 
L 60.016621 378.063136 
L 59.38066 375.528101 
L 58.77008 372.986834 
L 58.184943 370.439588 
L 57.625308 367.886618 
L 57.091229 365.328179 
L 56.582761 362.764528 
L 56.099955 360.19592 
L 55.642859 357.622612 
L 55.211518 355.044863 
L 54.805975 352.462929 
L 54.426272 349.877069 
L 54.072446 347.287541 
L 53.744533 344.694604 
L 53.442565 342.098518 
L 53.166572 339.499542 
L 52.916582 336.897936 
L 52.692621 334.29396 
L 52.49471 331.687875 
L 52.32287 329.079941 
L 52.177117 326.470419 
L 52.057466 323.859571 
L 51.963929 321.247656 
L 51.896515 318.634936 
L 51.855232 316.021673 
L 51.840083 313.408128 
L 51.84 313.2 
L 51.84 313.2 
Q 313.2 313.2 313.2 51.84 
z
" clip-path="url(#p1ceaaecb97)" style="fill: #000080; fill-opacity: 0.5; stroke: #808080; stroke-opacity: 0.5; stroke-width: 0.1"/>
   </g>
   <g id="patch_6">
    <path d="M 313.2 51.84 
L 315.813556 51.853068 
L 318.426852 51.89227 
L 321.039624 51.957603 
L 323.651612 52.04906 
L 326.262556 52.166632 
L 328.872193 52.310307 
L 331.480263 52.480071 
L 334.086504 52.675906 
L 336.690658 52.897794 
L 339.292462 53.145711 
L 341.891657 53.419634 
L 344.487982 53.719535 
L 347.08118 54.045383 
L 349.670988 54.397147 
L 352.25715 54.774791 
L 354.839406 55.178277 
L 357.417499 55.607565 
L 359.991169 56.062612 
L 362.560161 56.543373 
L 365.124216 57.049799 
L 367.683079 57.58184 
L 370.236494 58.139443 
L 372.784206 58.722551 
L 375.325958 59.331107 
L 377.861499 59.965049 
L 380.390573 60.624315 
L 382.912928 61.308839 
L 385.428312 62.018551 
L 387.936474 62.753381 
L 390.437161 63.513255 
L 392.930125 64.298098 
L 395.415116 65.107831 
L 397.891886 65.942373 
L 400.360186 66.801641 
L 402.819771 67.685548 
L 405.270394 68.594006 
L 407.711809 69.526925 
L 410.143774 70.484211 
L 412.566044 71.465768 
L 414.978378 72.471499 
L 417.380534 73.501302 
L 419.772272 74.555075 
L 422.153353 75.632712 
L 424.523539 76.734105 
L 426.882592 77.859145 
L 429.230277 79.007719 
L 431.56636 80.179712 
L 433.890605 81.375007 
L 436.202782 82.593484 
L 438.502659 83.835022 
L 440.790005 85.099495 
L 443.064593 86.386779 
L 445.326194 87.696744 
L 447.574583 89.029259 
L 449.809534 90.384191 
L 452.030825 91.761404 
L 454.238232 93.160761 
L 456.431536 94.582122 
L 458.610517 96.025344 
L 460.774957 97.490284 
L 462.924639 98.976794 
L 465.05935 100.484727 
L 467.178874 102.01393 
L 469.283001 103.564253 
L 471.371519 105.135538 
L 473.44422 106.72763 
L 475.500898 108.340369 
L 477.541345 109.973594 
L 479.565358 111.627142 
L 481.572735 113.300846 
L 483.563274 114.99454 
L 485.536778 116.708055 
L 487.493048 118.441218 
L 489.431889 120.193857 
L 491.353106 121.965797 
L 493.256509 123.75686 
L 495.141906 125.566867 
L 497.009109 127.395638 
L 498.857931 129.242988 
L 500.688188 131.108734 
L 502.499696 132.99269 
L 504.292274 134.894665 
L 506.065743 136.814471 
L 507.819926 138.751916 
L 509.554647 140.706805 
L 511.269732 142.678943 
L 512.965011 144.668134 
L 514.640313 146.674177 
L 516.295472 148.696873 
L 517.930321 150.736019 
L 519.544697 152.791411 
L 521.138439 154.862844 
L 522.711388 156.95011 
L 524.263385 159.053002 
L 525.794276 161.171308 
L 527.303908 163.304816 
L 528.79213 165.453315 
L 530.258793 167.616587 
L 531.70375 169.794418 
L 533.126857 171.986589 
L 534.527971 174.192882 
L 535.906953 176.413075 
L 537.263664 178.646947 
L 538.597969 180.894274 
L 539.909734 183.154831 
L 541.198829 185.428393 
L 542.465124 187.714732 
L 543.708492 190.013619 
L 544.92881 192.324825 
L 546.125956 194.648118 
L 547.299808 196.983266 
L 548.450252 199.330036 
L 549.57717 201.688193 
L 550.680451 204.0575 
L 551.759983 206.437722 
L 552.815661 208.828621 
L 553.847376 211.229956 
L 554.855027 213.641488 
L 555.838513 216.062976 
L 556.797736 218.494177 
L 557.732598 220.934849 
L 558.643008 223.384748 
L 559.528873 225.843628 
L 560.390106 228.311243 
L 561.22662 230.787347 
L 562.038332 233.271693 
L 562.82516 235.764031 
L 563.587025 238.264113 
L 564.323852 240.771688 
L 565.035567 243.286506 
L 565.722099 245.808315 
L 566.383379 248.336864 
L 567.01934 250.871899 
L 567.62992 253.413166 
L 568.215057 255.960412 
L 568.774692 258.513382 
L 569.308771 261.071821 
L 569.817239 263.635472 
L 570.300045 266.20408 
L 570.757141 268.777388 
L 571.188482 271.355137 
L 571.594025 273.937071 
L 571.973728 276.522931 
L 572.327554 279.112459 
L 572.655467 281.705396 
L 572.957435 284.301482 
L 573.233428 286.900458 
L 573.483418 289.502064 
L 573.707379 292.10604 
L 573.90529 294.712125 
L 574.07713 297.320059 
L 574.222883 299.929581 
L 574.342534 302.540429 
L 574.436071 305.152344 
L 574.503485 307.765064 
L 574.544768 310.378327 
L 574.559917 312.991872 
L 574.56 313.2 
L 577.2 313.2 
L 577.199916 312.98977 
L 577.184614 310.349825 
L 577.142914 307.710165 
L 577.074819 305.071055 
L 576.980338 302.432757 
L 576.859478 299.795536 
L 576.712253 297.159655 
L 576.538676 294.525379 
L 576.338767 291.89297 
L 576.112543 289.262691 
L 575.860028 286.634806 
L 575.581248 284.009578 
L 575.27623 281.387269 
L 574.945004 278.768141 
L 574.587604 276.152456 
L 574.204065 273.540476 
L 573.794427 270.932462 
L 573.358729 268.328674 
L 572.897015 265.729374 
L 572.409332 263.134821 
L 571.895728 260.545274 
L 571.356255 257.960992 
L 570.790966 255.382235 
L 570.199919 252.809259 
L 569.583172 250.242322 
L 568.940786 247.681681 
L 568.272827 245.127591 
L 567.579361 242.580309 
L 566.860457 240.040089 
L 566.116187 237.507185 
L 565.346626 234.98185 
L 564.55185 232.464336 
L 563.73194 229.954896 
L 562.886976 227.453781 
L 562.017044 224.96124 
L 561.12223 222.477523 
L 560.202624 220.002878 
L 559.258319 217.537553 
L 558.289407 215.081794 
L 557.295987 212.635846 
L 556.278158 210.199955 
L 555.236021 207.774364 
L 554.16968 205.359316 
L 553.079243 202.955051 
L 551.964818 200.561811 
L 550.826517 198.179834 
L 549.664453 195.80936 
L 548.478743 193.450624 
L 547.269505 191.103863 
L 546.036861 188.769312 
L 544.780933 186.447204 
L 543.501847 184.13777 
L 542.199732 181.841243 
L 540.874716 179.557852 
L 539.526933 177.287825 
L 538.156518 175.031389 
L 536.763607 172.78877 
L 535.34834 170.560191 
L 533.910858 168.345877 
L 532.451306 166.146048 
L 530.969828 163.960924 
L 529.466574 161.790724 
L 527.941693 159.635664 
L 526.395339 157.495961 
L 524.827664 155.371829 
L 523.238828 153.263479 
L 521.628987 151.171122 
L 519.998304 149.094968 
L 518.346941 147.035225 
L 516.675064 144.992098 
L 514.982839 142.965792 
L 513.270437 140.956508 
L 511.538027 138.964449 
L 509.785784 136.989814 
L 508.013882 135.032799 
L 506.222499 133.093601 
L 504.411814 131.172414 
L 502.582008 129.269429 
L 500.733264 127.384837 
L 498.865767 125.518826 
L 496.979703 123.671583 
L 495.075262 121.843293 
L 493.152633 120.034139 
L 491.212009 118.2443 
L 489.253584 116.473958 
L 487.277553 114.723288 
L 485.284116 112.992465 
L 483.273469 111.281663 
L 481.245816 109.591052 
L 479.201358 107.920802 
L 477.140301 106.27108 
L 475.062849 104.642051 
L 472.969211 103.033877 
L 470.859597 101.44672 
L 468.734216 99.880738 
L 466.593282 98.336087 
L 464.437009 96.812923 
L 462.265613 95.311398 
L 460.07931 93.831661 
L 457.878319 92.37386 
L 455.662861 90.938143 
L 453.433156 89.524651 
L 451.189428 88.133526 
L 448.931902 86.764908 
L 446.660802 85.418933 
L 444.376356 84.095737 
L 442.078793 82.79545 
L 439.768342 81.518204 
L 437.445234 80.264125 
L 435.109702 79.03334 
L 432.761979 77.825972 
L 430.4023 76.642141 
L 428.030901 75.481965 
L 425.648019 74.345561 
L 423.253892 73.233042 
L 420.84876 72.14452 
L 418.432863 71.080103 
L 416.006442 70.039898 
L 413.569742 69.024008 
L 411.123004 68.032536 
L 408.666474 67.065581 
L 406.200398 66.123239 
L 403.725021 65.205604 
L 401.240592 64.312768 
L 398.747359 63.444821 
L 396.245572 62.60185 
L 393.73548 61.783938 
L 391.217335 60.991167 
L 388.691387 60.223617 
L 386.157891 59.481364 
L 383.617099 58.764483 
L 381.069266 58.073046 
L 378.514645 57.407121 
L 375.953493 56.766775 
L 373.386066 56.152072 
L 370.81262 55.563073 
L 368.233414 54.999839 
L 365.648703 54.462423 
L 363.058748 53.950882 
L 360.463807 53.465265 
L 357.86414 53.005622 
L 355.260007 52.571997 
L 352.651667 52.164435 
L 350.039382 51.782977 
L 347.423414 51.42766 
L 344.804023 51.09852 
L 342.181471 50.79559 
L 339.556022 50.5189 
L 336.927937 50.268478 
L 334.297479 50.04435 
L 331.664912 49.846536 
L 329.030498 49.675057 
L 326.394501 49.529931 
L 323.757184 49.411172 
L 321.118812 49.318791 
L 318.479648 49.252798 
L 315.839956 49.2132 
L 313.2 49.2 
L 313.2 51.84 
z
" clip-path="url(#p1ceaaecb97)" style="fill: none; stroke: #000000; stroke-width: 0.5; stroke-linejoin: miter"/>
   </g>
   <g id="patch_7">
    <path d="M 574.56 313.2 
L 574.546932 315.813556 
L 574.50773 318.426852 
L 574.442397 321.039624 
L 574.35094 323.651612 
L 574.233368 326.262556 
L 574.089693 328.872193 
L 573.919929 331.480263 
L 573.724094 334.086504 
L 573.502206 336.690658 
L 573.254289 339.292462 
L 572.980366 341.891657 
L 572.680465 344.487982 
L 572.354617 347.08118 
L 572.002853 349.670988 
L 571.625209 352.25715 
L 571.221723 354.839406 
L 570.792435 357.417499 
L 570.337388 359.991169 
L 569.856627 362.560161 
L 569.350201 365.124216 
L 568.81816 367.683079 
L 568.260557 370.236494 
L 567.677449 372.784206 
L 567.068893 375.325958 
L 566.434951 377.861499 
L 565.775685 380.390573 
L 565.091161 382.912928 
L 564.381449 385.428312 
L 563.646619 387.936474 
L 562.886745 390.437161 
L 562.101902 392.930125 
L 561.292169 395.415116 
L 560.457627 397.891886 
L 559.598359 400.360186 
L 558.714452 402.819771 
L 557.805994 405.270394 
L 556.873075 407.711809 
L 555.915789 410.143774 
L 554.934232 412.566044 
L 553.928501 414.978378 
L 552.898698 417.380534 
L 551.844925 419.772272 
L 550.767288 422.153353 
L 549.665895 424.523539 
L 548.540855 426.882592 
L 547.392281 429.230277 
L 546.220288 431.56636 
L 545.024993 433.890605 
L 543.806516 436.202782 
L 542.564978 438.502659 
L 541.300505 440.790005 
L 540.013221 443.064593 
L 538.703256 445.326194 
L 537.370741 447.574583 
L 536.015809 449.809534 
L 534.638596 452.030825 
L 533.239239 454.238232 
L 531.817878 456.431536 
L 530.374656 458.610517 
L 528.909716 460.774957 
L 527.423206 462.924639 
L 525.915273 465.05935 
L 524.38607 467.178874 
L 522.835747 469.283001 
L 521.264462 471.371519 
L 519.67237 473.44422 
L 518.059631 475.500898 
L 516.426406 477.541345 
L 514.772858 479.565358 
L 513.099154 481.572735 
L 511.40546 483.563274 
L 509.691945 485.536778 
L 507.958782 487.493048 
L 506.206143 489.431889 
L 504.434203 491.353106 
L 502.64314 493.256509 
L 500.833133 495.141906 
L 499.004362 497.009109 
L 497.157012 498.857931 
L 495.291266 500.688188 
L 493.40731 502.499696 
L 491.505335 504.292274 
L 489.585529 506.065743 
L 487.648084 507.819926 
L 485.693195 509.554647 
L 483.721057 511.269732 
L 481.731866 512.965011 
L 479.725823 514.640313 
L 477.703127 516.295472 
L 475.663981 517.930321 
L 473.608589 519.544697 
L 471.537156 521.138439 
L 469.44989 522.711388 
L 467.346998 524.263385 
L 465.228692 525.794276 
L 463.095184 527.303908 
L 460.946685 528.79213 
L 458.783413 530.258793 
L 456.605582 531.70375 
L 454.413411 533.126857 
L 452.207118 534.527971 
L 449.986925 535.906953 
L 447.753053 537.263664 
L 445.505726 538.597969 
L 443.245169 539.909734 
L 440.971607 541.198829 
L 438.685268 542.465124 
L 436.386381 543.708492 
L 434.075175 544.92881 
L 431.751882 546.125956 
L 429.416734 547.299808 
L 427.069964 548.450252 
L 424.711807 549.57717 
L 422.3425 550.680451 
L 419.962278 551.759983 
L 417.571379 552.815661 
L 415.170044 553.847376 
L 412.758512 554.855027 
L 410.337024 555.838513 
L 407.905823 556.797736 
L 405.465151 557.732598 
L 403.015252 558.643008 
L 400.556372 559.528873 
L 398.088757 560.390106 
L 395.612653 561.22662 
L 393.128307 562.038332 
L 390.635969 562.82516 
L 388.135887 563.587025 
L 385.628312 564.323852 
L 383.113494 565.035567 
L 380.591685 565.722099 
L 378.063136 566.383379 
L 375.528101 567.01934 
L 372.986834 567.62992 
L 370.439588 568.215057 
L 367.886618 568.774692 
L 365.328179 569.308771 
L 362.764528 569.817239 
L 360.19592 570.300045 
L 357.622612 570.757141 
L 355.044863 571.188482 
L 352.462929 571.594025 
L 349.877069 571.973728 
L 347.287541 572.327554 
L 344.694604 572.655467 
L 342.098518 572.957435 
L 339.499542 573.233428 
L 336.897936 573.483418 
L 334.29396 573.707379 
L 331.687875 573.90529 
L 329.079941 574.07713 
L 326.470419 574.222883 
L 323.859571 574.342534 
L 321.247656 574.436071 
L 318.634936 574.503485 
L 316.021673 574.544768 
L 313.408128 574.559917 
L 313.2 574.56 
L 313.2 577.2 
L 313.41023 577.199916 
L 316.050175 577.184614 
L 318.689835 577.142914 
L 321.328945 577.074819 
L 323.967243 576.980338 
L 326.604464 576.859478 
L 329.240345 576.712253 
L 331.874621 576.538676 
L 334.50703 576.338767 
L 337.137309 576.112543 
L 339.765194 575.860028 
L 342.390422 575.581248 
L 345.012731 575.27623 
L 347.631859 574.945004 
L 350.247544 574.587604 
L 352.859524 574.204065 
L 355.467538 573.794427 
L 358.071326 573.358729 
L 360.670626 572.897015 
L 363.265179 572.409332 
L 365.854726 571.895728 
L 368.439008 571.356255 
L 371.017765 570.790966 
L 373.590741 570.199919 
L 376.157678 569.583172 
L 378.718319 568.940786 
L 381.272409 568.272827 
L 383.819691 567.579361 
L 386.359911 566.860457 
L 388.892815 566.116187 
L 391.41815 565.346626 
L 393.935664 564.55185 
L 396.445104 563.73194 
L 398.946219 562.886976 
L 401.43876 562.017044 
L 403.922477 561.12223 
L 406.397122 560.202624 
L 408.862447 559.258319 
L 411.318206 558.289407 
L 413.764154 557.295987 
L 416.200045 556.278158 
L 418.625636 555.236021 
L 421.040684 554.16968 
L 423.444949 553.079243 
L 425.838189 551.964818 
L 428.220166 550.826517 
L 430.59064 549.664453 
L 432.949376 548.478743 
L 435.296137 547.269505 
L 437.630688 546.036861 
L 439.952796 544.780933 
L 442.26223 543.501847 
L 444.558757 542.199732 
L 446.842148 540.874716 
L 449.112175 539.526933 
L 451.368611 538.156518 
L 453.61123 536.763607 
L 455.839809 535.34834 
L 458.054123 533.910858 
L 460.253952 532.451306 
L 462.439076 530.969828 
L 464.609276 529.466574 
L 466.764336 527.941693 
L 468.904039 526.395339 
L 471.028171 524.827664 
L 473.136521 523.238828 
L 475.228878 521.628987 
L 477.305032 519.998304 
L 479.364775 518.346941 
L 481.407902 516.675064 
L 483.434208 514.982839 
L 485.443492 513.270437 
L 487.435551 511.538027 
L 489.410186 509.785784 
L 491.367201 508.013882 
L 493.306399 506.222499 
L 495.227586 504.411814 
L 497.130571 502.582008 
L 499.015163 500.733264 
L 500.881174 498.865767 
L 502.728417 496.979703 
L 504.556707 495.075262 
L 506.365861 493.152633 
L 508.1557 491.212009 
L 509.926042 489.253584 
L 511.676712 487.277553 
L 513.407535 485.284116 
L 515.118337 483.273469 
L 516.808948 481.245816 
L 518.479198 479.201358 
L 520.12892 477.140301 
L 521.757949 475.062849 
L 523.366123 472.969211 
L 524.95328 470.859597 
L 526.519262 468.734216 
L 528.063913 466.593282 
L 529.587077 464.437009 
L 531.088602 462.265613 
L 532.568339 460.07931 
L 534.02614 457.878319 
L 535.461857 455.662861 
L 536.875349 453.433156 
L 538.266474 451.189428 
L 539.635092 448.931902 
L 540.981067 446.660802 
L 542.304263 444.376356 
L 543.60455 442.078793 
L 544.881796 439.768342 
L 546.135875 437.445234 
L 547.36666 435.109702 
L 548.574028 432.761979 
L 549.757859 430.4023 
L 550.918035 428.030901 
L 552.054439 425.648019 
L 553.166958 423.253892 
L 554.25548 420.84876 
L 555.319897 418.432863 
L 556.360102 416.006442 
L 557.375992 413.569742 
L 558.367464 411.123004 
L 559.334419 408.666474 
L 560.276761 406.200398 
L 561.194396 403.725021 
L 562.087232 401.240592 
L 562.955179 398.747359 
L 563.79815 396.245572 
L 564.616062 393.73548 
L 565.408833 391.217335 
L 566.176383 388.691387 
L 566.918636 386.157891 
L 567.635517 383.617099 
L 568.326954 381.069266 
L 568.992879 378.514645 
L 569.633225 375.953493 
L 570.247928 373.386066 
L 570.836927 370.81262 
L 571.400161 368.233414 
L 571.937577 365.648703 
L 572.449118 363.058748 
L 572.934735 360.463807 
L 573.394378 357.86414 
L 573.828003 355.260007 
L 574.235565 352.651667 
L 574.617023 350.039382 
L 574.97234 347.423414 
L 575.30148 344.804023 
L 575.60441 342.181471 
L 575.8811 339.556022 
L 576.131522 336.927937 
L 576.35565 334.297479 
L 576.553464 331.664912 
L 576.724943 329.030498 
L 576.870069 326.394501 
L 576.988828 323.757184 
L 577.081209 321.118812 
L 577.147202 318.479648 
L 577.1868 315.839956 
L 577.2 313.2 
L 574.56 313.2 
z
" clip-path="url(#p1ceaaecb97)" style="fill: none; stroke: #000000; stroke-width: 0.5; stroke-linejoin: miter"/>
   </g>
   <g id="patch_8">
    <path d="M 313.2 574.56 
L 310.586444 574.546932 
L 307.973148 574.50773 
L 305.360376 574.442397 
L 302.748388 574.35094 
L 300.137444 574.233368 
L 297.527807 574.089693 
L 294.919737 573.919929 
L 292.313496 573.724094 
L 289.709342 573.502206 
L 287.107538 573.254289 
L 284.508343 572.980366 
L 281.912018 572.680465 
L 279.31882 572.354617 
L 276.729012 572.002853 
L 274.14285 571.625209 
L 271.560594 571.221723 
L 268.982501 570.792435 
L 266.408831 570.337388 
L 263.839839 569.856627 
L 261.275784 569.350201 
L 258.716921 568.81816 
L 256.163506 568.260557 
L 253.615794 567.677449 
L 251.074042 567.068893 
L 248.538501 566.434951 
L 246.009427 565.775685 
L 243.487072 565.091161 
L 240.971688 564.381449 
L 238.463526 563.646619 
L 235.962839 562.886745 
L 233.469875 562.101902 
L 230.984884 561.292169 
L 228.508114 560.457627 
L 226.039814 559.598359 
L 223.580229 558.714452 
L 221.129606 557.805994 
L 218.688191 556.873075 
L 216.256226 555.915789 
L 213.833956 554.934232 
L 211.421622 553.928501 
L 209.019466 552.898698 
L 206.627728 551.844925 
L 204.246647 550.767288 
L 201.876461 549.665895 
L 199.517408 548.540855 
L 197.169723 547.392281 
L 194.83364 546.220288 
L 192.509395 545.024993 
L 190.197218 543.806516 
L 187.897341 542.564978 
L 185.609995 541.300505 
L 183.335407 540.013221 
L 181.073806 538.703256 
L 178.825417 537.370741 
L 176.590466 536.015809 
L 174.369175 534.638596 
L 172.161768 533.239239 
L 169.968464 531.817878 
L 167.789483 530.374656 
L 165.625043 528.909716 
L 163.475361 527.423206 
L 161.34065 525.915273 
L 159.221126 524.38607 
L 157.116999 522.835747 
L 155.028481 521.264462 
L 152.95578 519.67237 
L 150.899102 518.059631 
L 148.858655 516.426406 
L 146.834642 514.772858 
L 144.827265 513.099154 
L 142.836726 511.40546 
L 140.863222 509.691945 
L 138.906952 507.958782 
L 136.968111 506.206143 
L 135.046894 504.434203 
L 133.143491 502.64314 
L 131.258094 500.833133 
L 129.390891 499.004362 
L 127.542069 497.157012 
L 125.711812 495.291266 
L 123.900304 493.40731 
L 122.107726 491.505335 
L 120.334257 489.585529 
L 118.580074 487.648084 
L 116.845353 485.693195 
L 115.130268 483.721057 
L 113.434989 481.731866 
L 111.759687 479.725823 
L 110.104528 477.703127 
L 108.469679 475.663981 
L 106.855303 473.608589 
L 105.261561 471.537156 
L 103.688612 469.44989 
L 102.136615 467.346998 
L 100.605724 465.228692 
L 99.096092 463.095184 
L 97.60787 460.946685 
L 96.141207 458.783413 
L 94.69625 456.605582 
L 93.273143 454.413411 
L 91.872029 452.207118 
L 90.493047 449.986925 
L 89.136336 447.753053 
L 87.802031 445.505726 
L 86.490266 443.245169 
L 85.201171 440.971607 
L 83.934876 438.685268 
L 82.691508 436.386381 
L 81.47119 434.075175 
L 80.274044 431.751882 
L 79.100192 429.416734 
L 77.949748 427.069964 
L 76.82283 424.711807 
L 75.719549 422.3425 
L 74.640017 419.962278 
L 73.584339 417.571379 
L 72.552624 415.170044 
L 71.544973 412.758512 
L 70.561487 410.337024 
L 69.602264 407.905823 
L 68.667402 405.465151 
L 67.756992 403.015252 
L 66.871127 400.556372 
L 66.009894 398.088757 
L 65.17338 395.612653 
L 64.361668 393.128307 
L 63.57484 390.635969 
L 62.812975 388.135887 
L 62.076148 385.628312 
L 61.364433 383.113494 
L 60.677901 380.591685 
L 60.016621 378.063136 
L 59.38066 375.528101 
L 58.77008 372.986834 
L 58.184943 370.439588 
L 57.625308 367.886618 
L 57.091229 365.328179 
L 56.582761 362.764528 
L 56.099955 360.19592 
L 55.642859 357.622612 
L 55.211518 355.044863 
L 54.805975 352.462929 
L 54.426272 349.877069 
L 54.072446 347.287541 
L 53.744533 344.694604 
L 53.442565 342.098518 
L 53.166572 339.499542 
L 52.916582 336.897936 
L 52.692621 334.29396 
L 52.49471 331.687875 
L 52.32287 329.079941 
L 52.177117 326.470419 
L 52.057466 323.859571 
L 51.963929 321.247656 
L 51.896515 318.634936 
L 51.855232 316.021673 
L 51.840083 313.408128 
L 51.84 313.2 
L 49.2 313.2 
L 49.200084 313.41023 
L 49.215386 316.050175 
L 49.257086 318.689835 
L 49.325181 321.328945 
L 49.419662 323.967243 
L 49.540522 326.604464 
L 49.687747 329.240345 
L 49.861324 331.874621 
L 50.061233 334.50703 
L 50.287457 337.137309 
L 50.539972 339.765194 
L 50.818752 342.390422 
L 51.12377 345.012731 
L 51.454996 347.631859 
L 51.812396 350.247544 
L 52.195935 352.859524 
L 52.605573 355.467538 
L 53.041271 358.071326 
L 53.502985 360.670626 
L 53.990668 363.265179 
L 54.504272 365.854726 
L 55.043745 368.439008 
L 55.609034 371.017765 
L 56.200081 373.590741 
L 56.816828 376.157678 
L 57.459214 378.718319 
L 58.127173 381.272409 
L 58.820639 383.819691 
L 59.539543 386.359911 
L 60.283813 388.892815 
L 61.053374 391.41815 
L 61.84815 393.935664 
L 62.66806 396.445104 
L 63.513024 398.946219 
L 64.382956 401.43876 
L 65.27777 403.922477 
L 66.197376 406.397122 
L 67.141681 408.862447 
L 68.110593 411.318206 
L 69.104013 413.764154 
L 70.121842 416.200045 
L 71.163979 418.625636 
L 72.23032 421.040684 
L 73.320757 423.444949 
L 74.435182 425.838189 
L 75.573483 428.220166 
L 76.735547 430.59064 
L 77.921257 432.949376 
L 79.130495 435.296137 
L 80.363139 437.630688 
L 81.619067 439.952796 
L 82.898153 442.26223 
L 84.200268 444.558757 
L 85.525284 446.842148 
L 86.873067 449.112175 
L 88.243482 451.368611 
L 89.636393 453.61123 
L 91.05166 455.839809 
L 92.489142 458.054123 
L 93.948694 460.253952 
L 95.430172 462.439076 
L 96.933426 464.609276 
L 98.458307 466.764336 
L 100.004661 468.904039 
L 101.572336 471.028171 
L 103.161172 473.136521 
L 104.771013 475.228878 
L 106.401696 477.305032 
L 108.053059 479.364775 
L 109.724936 481.407902 
L 111.417161 483.434208 
L 113.129563 485.443492 
L 114.861973 487.435551 
L 116.614216 489.410186 
L 118.386118 491.367201 
L 120.177501 493.306399 
L 121.988186 495.227586 
L 123.817992 497.130571 
L 125.666736 499.015163 
L 127.534233 500.881174 
L 129.420297 502.728417 
L 131.324738 504.556707 
L 133.247367 506.365861 
L 135.187991 508.1557 
L 137.146416 509.926042 
L 139.122447 511.676712 
L 141.115884 513.407535 
L 143.126531 515.118337 
L 145.154184 516.808948 
L 147.198642 518.479198 
L 149.259699 520.12892 
L 151.337151 521.757949 
L 153.430789 523.366123 
L 155.540403 524.95328 
L 157.665784 526.519262 
L 159.806718 528.063913 
L 161.962991 529.587077 
L 164.134387 531.088602 
L 166.32069 532.568339 
L 168.521681 534.02614 
L 170.737139 535.461857 
L 172.966844 536.875349 
L 175.210572 538.266474 
L 177.468098 539.635092 
L 179.739198 540.981067 
L 182.023644 542.304263 
L 184.321207 543.60455 
L 186.631658 544.881796 
L 188.954766 546.135875 
L 191.290298 547.36666 
L 193.638021 548.574028 
L 195.9977 549.757859 
L 198.369099 550.918035 
L 200.751981 552.054439 
L 203.146108 553.166958 
L 205.55124 554.25548 
L 207.967137 555.319897 
L 210.393558 556.360102 
L 212.830258 557.375992 
L 215.276996 558.367464 
L 217.733526 559.334419 
L 220.199602 560.276761 
L 222.674979 561.194396 
L 225.159408 562.087232 
L 227.652641 562.955179 
L 230.154428 563.79815 
L 232.66452 564.616062 
L 235.182665 565.408833 
L 237.708613 566.176383 
L 240.242109 566.918636 
L 242.782901 567.635517 
L 245.330734 568.326954 
L 247.885355 568.992879 
L 250.446507 569.633225 
L 253.013934 570.247928 
L 255.58738 570.836927 
L 258.166586 571.400161 
L 260.751297 571.937577 
L 263.341252 572.449118 
L 265.936193 572.934735 
L 268.53586 573.394378 
L 271.139993 573.828003 
L 273.748333 574.235565 
L 276.360618 574.617023 
L 278.976586 574.97234 
L 281.595977 575.30148 
L 284.218529 575.60441 
L 286.843978 575.8811 
L 289.472063 576.131522 
L 292.102521 576.35565 
L 294.735088 576.553464 
L 297.369502 576.724943 
L 300.005499 576.870069 
L 302.642816 576.988828 
L 305.281188 577.081209 
L 307.920352 577.147202 
L 310.560044 577.1868 
L 313.2 577.2 
L 313.2 574.56 
z
" clip-path="url(#p1ceaaecb97)" style="fill: none; stroke: #000000; stroke-width: 0.5; stroke-linejoin: miter"/>
   </g>
   <g id="patch_9">
    <path d="M 51.84 313.2 
L 51.853068 310.586444 
L 51.89227 307.973148 
L 51.957603 305.360376 
L 52.04906 302.748388 
L 52.166632 300.137444 
L 52.310307 297.527807 
L 52.480071 294.919737 
L 52.675906 292.313496 
L 52.897794 289.709342 
L 53.145711 287.107538 
L 53.419634 284.508343 
L 53.719535 281.912018 
L 54.045383 279.31882 
L 54.397147 276.729012 
L 54.774791 274.14285 
L 55.178277 271.560594 
L 55.607565 268.982501 
L 56.062612 266.408831 
L 56.543373 263.839839 
L 57.049799 261.275784 
L 57.58184 258.716921 
L 58.139443 256.163506 
L 58.722551 253.615794 
L 59.331107 251.074042 
L 59.965049 248.538501 
L 60.624315 246.009427 
L 61.308839 243.487072 
L 62.018551 240.971688 
L 62.753381 238.463526 
L 63.513255 235.962839 
L 64.298098 233.469875 
L 65.107831 230.984884 
L 65.942373 228.508114 
L 66.801641 226.039814 
L 67.685548 223.580229 
L 68.594006 221.129606 
L 69.526925 218.688191 
L 70.484211 216.256226 
L 71.465768 213.833956 
L 72.471499 211.421622 
L 73.501302 209.019466 
L 74.555075 206.627728 
L 75.632712 204.246647 
L 76.734105 201.876461 
L 77.859145 199.517408 
L 79.007719 197.169723 
L 80.179712 194.83364 
L 81.375007 192.509395 
L 82.593484 190.197218 
L 83.835022 187.897341 
L 85.099495 185.609995 
L 86.386779 183.335407 
L 87.696744 181.073806 
L 89.029259 178.825417 
L 90.384191 176.590466 
L 91.761404 174.369175 
L 93.160761 172.161768 
L 94.582122 169.968464 
L 96.025344 167.789483 
L 97.490284 165.625043 
L 98.976794 163.475361 
L 100.484727 161.34065 
L 102.01393 159.221126 
L 103.564253 157.116999 
L 105.135538 155.028481 
L 106.72763 152.95578 
L 108.340369 150.899102 
L 109.973594 148.858655 
L 111.627142 146.834642 
L 113.300846 144.827265 
L 114.99454 142.836726 
L 116.708055 140.863222 
L 118.441218 138.906952 
L 120.193857 136.968111 
L 121.965797 135.046894 
L 123.75686 133.143491 
L 125.566867 131.258094 
L 127.395638 129.390891 
L 129.242988 127.542069 
L 131.108734 125.711812 
L 132.99269 123.900304 
L 134.894665 122.107726 
L 136.814471 120.334257 
L 138.751916 118.580074 
L 140.706805 116.845353 
L 142.678943 115.130268 
L 144.668134 113.434989 
L 146.674177 111.759687 
L 148.696873 110.104528 
L 150.736019 108.469679 
L 152.791411 106.855303 
L 154.862844 105.261561 
L 156.95011 103.688612 
L 159.053002 102.136615 
L 161.171308 100.605724 
L 163.304816 99.096092 
L 165.453315 97.60787 
L 167.616587 96.141207 
L 169.794418 94.69625 
L 171.986589 93.273143 
L 174.192882 91.872029 
L 176.413075 90.493047 
L 178.646947 89.136336 
L 180.894274 87.802031 
L 183.154831 86.490266 
L 185.428393 85.201171 
L 187.714732 83.934876 
L 190.013619 82.691508 
L 192.324825 81.47119 
L 194.648118 80.274044 
L 196.983266 79.100192 
L 199.330036 77.949748 
L 201.688193 76.82283 
L 204.0575 75.719549 
L 206.437722 74.640017 
L 208.828621 73.584339 
L 211.229956 72.552624 
L 213.641488 71.544973 
L 216.062976 70.561487 
L 218.494177 69.602264 
L 220.934849 68.667402 
L 223.384748 67.756992 
L 225.843628 66.871127 
L 228.311243 66.009894 
L 230.787347 65.17338 
L 233.271693 64.361668 
L 235.764031 63.57484 
L 238.264113 62.812975 
L 240.771688 62.076148 
L 243.286506 61.364433 
L 245.808315 60.677901 
L 248.336864 60.016621 
L 250.871899 59.38066 
L 253.413166 58.77008 
L 255.960412 58.184943 
L 258.513382 57.625308 
L 261.071821 57.091229 
L 263.635472 56.582761 
L 266.20408 56.099955 
L 268.777388 55.642859 
L 271.355137 55.211518 
L 273.937071 54.805975 
L 276.522931 54.426272 
L 279.112459 54.072446 
L 281.705396 53.744533 
L 284.301482 53.442565 
L 286.900458 53.166572 
L 289.502064 52.916582 
L 292.10604 52.692621 
L 294.712125 52.49471 
L 297.320059 52.32287 
L 299.929581 52.177117 
L 302.540429 52.057466 
L 305.152344 51.963929 
L 307.765064 51.896515 
L 310.378327 51.855232 
L 312.991872 51.840083 
L 313.2 51.84 
L 313.2 49.2 
L 312.98977 49.200084 
L 310.349825 49.215386 
L 307.710165 49.257086 
L 305.071055 49.325181 
L 302.432757 49.419662 
L 299.795536 49.540522 
L 297.159655 49.687747 
L 294.525379 49.861324 
L 291.89297 50.061233 
L 289.262691 50.287457 
L 286.634806 50.539972 
L 284.009578 50.818752 
L 281.387269 51.12377 
L 278.768141 51.454996 
L 276.152456 51.812396 
L 273.540476 52.195935 
L 270.932462 52.605573 
L 268.328674 53.041271 
L 265.729374 53.502985 
L 263.134821 53.990668 
L 260.545274 54.504272 
L 257.960992 55.043745 
L 255.382235 55.609034 
L 252.809259 56.200081 
L 250.242322 56.816828 
L 247.681681 57.459214 
L 245.127591 58.127173 
L 242.580309 58.820639 
L 240.040089 59.539543 
L 237.507185 60.283813 
L 234.98185 61.053374 
L 232.464336 61.84815 
L 229.954896 62.66806 
L 227.453781 63.513024 
L 224.96124 64.382956 
L 222.477523 65.27777 
L 220.002878 66.197376 
L 217.537553 67.141681 
L 215.081794 68.110593 
L 212.635846 69.104013 
L 210.199955 70.121842 
L 207.774364 71.163979 
L 205.359316 72.23032 
L 202.955051 73.320757 
L 200.561811 74.435182 
L 198.179834 75.573483 
L 195.80936 76.735547 
L 193.450624 77.921257 
L 191.103863 79.130495 
L 188.769312 80.363139 
L 186.447204 81.619067 
L 184.13777 82.898153 
L 181.841243 84.200268 
L 179.557852 85.525284 
L 177.287825 86.873067 
L 175.031389 88.243482 
L 172.78877 89.636393 
L 170.560191 91.05166 
L 168.345877 92.489142 
L 166.146048 93.948694 
L 163.960924 95.430172 
L 161.790724 96.933426 
L 159.635664 98.458307 
L 157.495961 100.004661 
L 155.371829 101.572336 
L 153.263479 103.161172 
L 151.171122 104.771013 
L 149.094968 106.401696 
L 147.035225 108.053059 
L 144.992098 109.724936 
L 142.965792 111.417161 
L 140.956508 113.129563 
L 138.964449 114.861973 
L 136.989814 116.614216 
L 135.032799 118.386118 
L 133.093601 120.177501 
L 131.172414 121.988186 
L 129.269429 123.817992 
L 127.384837 125.666736 
L 125.518826 127.534233 
L 123.671583 129.420297 
L 121.843293 131.324738 
L 120.034139 133.247367 
L 118.2443 135.187991 
L 116.473958 137.146416 
L 114.723288 139.122447 
L 112.992465 141.115884 
L 111.281663 143.126531 
L 109.591052 145.154184 
L 107.920802 147.198642 
L 106.27108 149.259699 
L 104.642051 151.337151 
L 103.033877 153.430789 
L 101.44672 155.540403 
L 99.880738 157.665784 
L 98.336087 159.806718 
L 96.812923 161.962991 
L 95.311398 164.134387 
L 93.831661 166.32069 
L 92.37386 168.521681 
L 90.938143 170.737139 
L 89.524651 172.966844 
L 88.133526 175.210572 
L 86.764908 177.468098 
L 85.418933 179.739198 
L 84.095737 182.023644 
L 82.79545 184.321207 
L 81.518204 186.631658 
L 80.264125 188.954766 
L 79.03334 191.290298 
L 77.825972 193.638021 
L 76.642141 195.9977 
L 75.481965 198.369099 
L 74.345561 200.751981 
L 73.233042 203.146108 
L 72.14452 205.55124 
L 71.080103 207.967137 
L 70.039898 210.393558 
L 69.024008 212.830258 
L 68.032536 215.276996 
L 67.065581 217.733526 
L 66.123239 220.199602 
L 65.205604 222.674979 
L 64.312768 225.159408 
L 63.444821 227.652641 
L 62.60185 230.154428 
L 61.783938 232.66452 
L 60.991167 235.182665 
L 60.223617 237.708613 
L 59.481364 240.242109 
L 58.764483 242.782901 
L 58.073046 245.330734 
L 57.407121 247.885355 
L 56.766775 250.446507 
L 56.152072 253.013934 
L 55.563073 255.58738 
L 54.999839 258.166586 
L 54.462423 260.751297 
L 53.950882 263.341252 
L 53.465265 265.936193 
L 53.005622 268.53586 
L 52.571997 271.139993 
L 52.164435 273.748333 
L 51.782977 276.360618 
L 51.42766 278.976586 
L 51.09852 281.595977 
L 50.79559 284.218529 
L 50.5189 286.843978 
L 50.268478 289.472063 
L 50.04435 292.102521 
L 49.846536 294.735088 
L 49.675057 297.369502 
L 49.529931 300.005499 
L 49.411172 302.642816 
L 49.318791 305.281188 
L 49.252798 307.920352 
L 49.2132 310.560044 
L 49.2 313.2 
L 51.84 313.2 
z
" clip-path="url(#p1ceaaecb97)" style="fill: none; stroke: #000000; stroke-width: 0.5; stroke-linejoin: miter"/>
   </g>
   <g id="text_1">
    <text style="font: 3px 'DejaVu Sans', 'Bitstream Vera Sans', 'Computer Modern Sans Serif', 'Lucida Grande', 'Verdana', 'Geneva', 'Lucid', 'Arial', 'Helvetica', 'Avant Garde', sans-serif; text-anchor: start" x="502.548888" y="125.462984" transform="rotate(-45 502.548888 125.462984)">Arabian Gulf University</text>
   </g>
   <g id="text_2">
    <text style="font: 3px 'DejaVu Sans', 'Bitstream Vera Sans', 'Computer Modern Sans Serif', 'Lucida Grande', 'Verdana', 'Geneva', 'Lucid', 'Arial', 'Helvetica', 'Avant Garde', sans-serif; text-anchor: start" x="500.937016" y="502.548888" transform="rotate(-315 500.937016 502.548888)">Applied Science University</text>
   </g>
   <g id="text_3">
    <text style="font: 3px 'DejaVu Sans', 'Bitstream Vera Sans', 'Computer Modern Sans Serif', 'Lucida Grande', 'Verdana', 'Geneva', 'Lucid', 'Arial', 'Helvetica', 'Avant Garde', sans-serif; text-anchor: end" x="125.462984" y="502.548888" transform="rotate(-45 125.462984 502.548888)">University of Bahrain</text>
   </g>
   <g id="text_4">
    <text style="font: 3px 'DejaVu Sans', 'Bitstream Vera Sans', 'Computer Modern Sans Serif', 'Lucida Grande', 'Verdana', 'Geneva', 'Lucid', 'Arial', 'Helvetica', 'Avant Garde', sans-serif; text-anchor: end" x="123.851112" y="125.462984" transform="rotate(-315 123.851112 125.462984)">Kingdom University</text>
   </g>
  </g>
 </g>
 <defs>
  <clipPath id="p1ceaaecb97">
   <path d="M 590.4 313.2 
C 590.4 276.79843 583.229684 240.750818 569.299406 207.120153 
C 555.369128 173.489487 534.949797 142.929798 509.21 117.19 
C 483.470202 91.450203 452.910513 71.030872 419.279847 57.100594 
C 385.649182 43.170316 349.60157 36 313.2 36 
C 276.79843 36 240.750818 43.170316 207.120153 57.100594 
C 173.489487 71.030872 142.929798 91.450203 117.19 117.19 
C 91.450203 142.929798 71.030872 173.489487 57.100594 207.120153 
C 43.170316 240.750818 36 276.79843 36 313.2 
C 36 349.60157 43.170316 385.649182 57.100594 419.279847 
C 71.030872 452.910513 91.450203 483.470202 117.19 509.21 
C 142.929798 534.949797 173.489487 555.369128 207.120153 569.299406 
C 240.750818 583.229684 276.79843 590.4 313.2 590.4 
C 349.60157 590.4 385.649182 583.229684 419.279847 569.299406 
C 452.910513 555.369128 483.470202 534.949797 509.21 509.21 
C 534.949797 483.470202 555.369128 452.910513 569.299406 419.279847 
C 583.229684 385.649182 590.4 349.60157 590.4 313.2 
M 313.2 313.2 
C 313.2 313.2 313.2 313.2 313.2 313.2 
C 313.2 313.2 313.2 313.2 313.2 313.2 
C 313.2 313.2 313.2 313.2 313.2 313.2 
C 313.2 313.2 313.2 313.2 313.2 313.2 
C 313.2 313.2 313.2 313.2 313.2 313.2 
C 313.2 313.2 313.2 313.2 313.2 313.2 
C 313.2 313.2 313.2 313.2 313.2 313.2 
C 313.2 313.2 313.2 313.2 313.2 313.2 
C 313.2 313.2 313.2 313.2 313.2 313.2 
C 313.2 313.2 313.2 313.2 313.2 313.2 
C 313.2 313.2 313.2 313.2 313.2 313.2 
C 313.2 313.2 313.2 313.2 313.2 313.2 
C 313.2 313.2 313.2 313.2 313.2 313.2 
C 313.2 313.2 313.2 313.2 313.2 313.2 
C 313.2 313.2 313.2 313.2 313.2 313.2 
C 313.2 313.2 313.2 313.2 313.2 313.2 
z
"/>
  </clipPath>
 </defs>
</svg>
