<?xml version="1.0" encoding="utf-8" standalone="no"?>
<!DOCTYPE svg PUBLIC "-//W3C//DTD SVG 1.1//EN"
  "http://www.w3.org/Graphics/SVG/1.1/DTD/svg11.dtd">
<svg xmlns:xlink="http://www.w3.org/1999/xlink" width="621.865682pt" height="620.1717pt" viewBox="0 0 621.865682 620.1717" xmlns="http://www.w3.org/2000/svg" version="1.1">
 <metadata>
  <rdf:RDF xmlns:dc="http://purl.org/dc/elements/1.1/" xmlns:cc="http://creativecommons.org/ns#" xmlns:rdf="http://www.w3.org/1999/02/22-rdf-syntax-ns#">
   <cc:Work>
    <dc:type rdf:resource="http://purl.org/dc/dcmitype/StillImage"/>
    <dc:date>2024-11-16T03:56:50.472084</dc:date>
    <dc:format>image/svg+xml</dc:format>
    <dc:creator>
     <cc:Agent>
      <dc:title>Matplotlib v3.8.4, https://matplotlib.org/</dc:title>
     </cc:Agent>
    </dc:creator>
   </cc:Work>
  </rdf:RDF>
 </metadata>
 <defs>
  <style type="text/css">*{stroke-linejoin: round; stroke-linecap: butt}</style>
 </defs>
 <g id="figure_1">
  <g id="patch_1">
   <path d="M 0 620.1717 
L 621.865682 620.1717 
L 621.865682 0 
L 0 0 
z
" style="fill: #ffffff"/>
  </g>
  <g id="axes_1">
   <g id="patch_2">
    <path d="M 305.737685 99.275887 
L 308.090816 99.287653 
L 310.443713 99.322949 
L 312.796138 99.381772 
L 315.147858 99.464116 
L 317.498637 99.569972 
L 319.84824 99.699331 
L 322.196432 99.852179 
L 324.542978 100.0285 
L 326.887643 100.228278 
L 329.230193 100.451492 
L 331.570394 100.698121 
L 333.908012 100.968138 
L 336.242813 101.261518 
L 338.574564 101.57823 
L 340.90303 101.918244 
L 343.227981 102.281526 
L 345.549182 102.668038 
L 347.866402 103.077742 
L 350.179409 103.510598 
L 352.487973 103.966562 
L 354.791861 104.445588 
L 357.090844 104.947629 
L 359.384691 105.472634 
L 361.673174 106.020551 
L 363.956063 106.591325 
L 366.233131 107.1849 
L 368.504149 107.801214 
L 370.76889 108.440208 
L 373.027129 109.101817 
L 375.278638 109.785974 
L 377.523194 110.492613 
L 379.760571 111.221661 
L 381.990546 111.973046 
L 384.212895 112.746692 
L 386.427397 113.542524 
L 388.633831 114.36046 
L 390.831974 115.200419 
L 393.021608 116.062317 
L 395.202514 116.946068 
L 397.374474 117.851584 
L 399.53727 118.778774 
L 401.690686 119.727544 
L 403.834507 120.697802 
L 405.968518 121.689448 
L 408.092506 122.702385 
L 410.206259 123.73651 
L 412.309565 124.791722 
L 414.402214 125.867913 
L 416.483997 126.964976 
L 418.554705 128.082802 
L 420.614132 129.221279 
L 422.66207 130.380293 
L 424.698317 131.559727 
L 426.722668 132.759466 
L 428.73492 133.979387 
L 430.734873 135.219369 
L 432.722326 136.479289 
L 434.69708 137.75902 
L 436.658939 139.058434 
L 438.607706 140.377401 
L 440.543186 141.71579 
L 442.465185 143.073466 
L 444.373512 144.450294 
L 446.267975 145.846137 
L 448.148386 147.260853 
L 450.014555 148.694303 
L 451.866297 150.146343 
L 453.703426 151.616827 
L 455.525759 153.105608 
L 457.333113 154.612538 
L 459.125308 156.137466 
L 460.902164 157.68024 
L 462.663504 159.240704 
L 464.409151 160.818704 
L 466.138931 162.414081 
L 467.852671 164.026675 
L 469.5502 165.656326 
L 471.231348 167.302871 
L 472.895946 168.966144 
L 474.543829 170.64598 
L 476.174832 172.342211 
L 477.78879 174.054666 
L 479.385544 175.783176 
L 480.964933 177.527566 
L 482.5268 179.287662 
L 484.070988 181.063289 
L 485.597342 182.854269 
L 487.105711 184.660422 
L 488.595943 186.481569 
L 490.06789 188.317527 
L 491.521404 190.168112 
L 492.956339 192.033139 
L 494.372553 193.912422 
L 495.769903 195.805774 
L 497.14825 197.713003 
L 498.507457 199.633921 
L 499.847387 201.568335 
L 501.167905 203.51605 
L 502.468881 205.476874 
L 503.750184 207.450609 
L 505.011686 209.437058 
L 506.253261 211.436022 
L 507.474784 213.447302 
L 508.676134 215.470697 
L 509.85719 217.506004 
L 511.017834 219.553019 
L 512.157951 221.611538 
L 513.277425 223.681356 
L 514.376146 225.762264 
L 515.454003 227.854055 
L 516.510889 229.95652 
L 517.546697 232.069449 
L 518.561325 234.19263 
L 519.554671 236.325851 
L 520.526635 238.468899 
L 521.47712 240.621558 
L 522.406032 242.783615 
L 523.313277 244.954853 
L 524.198764 247.135055 
L 525.062406 249.324002 
L 525.904115 251.521476 
L 526.723808 253.727257 
L 527.521403 255.941125 
L 528.296819 258.162858 
L 529.049979 260.392233 
L 529.780809 262.629029 
L 530.489234 264.873021 
L 531.175185 267.123985 
L 531.838592 269.381696 
L 532.479388 271.645928 
L 533.097511 273.916454 
L 533.692899 276.193049 
L 534.26549 278.475483 
L 534.81523 280.763529 
L 535.342061 283.056957 
L 535.845933 285.35554 
L 536.326794 287.659046 
L 536.784596 289.967245 
L 537.219293 292.279907 
L 537.630843 294.5968 
L 538.019203 296.917693 
L 538.384336 299.242353 
L 538.726204 301.570548 
L 539.044773 303.902046 
L 539.340012 306.236612 
L 539.611891 308.574014 
L 539.860383 310.914018 
L 540.085462 313.25639 
L 540.287107 315.600896 
L 540.465298 317.9473 
L 540.620015 320.29537 
L 540.751245 322.644869 
L 540.858973 324.995563 
L 540.94319 327.347216 
L 541.003886 329.699594 
L 541.041056 332.052462 
L 541.054695 334.405583 
L 541.044804 336.758724 
L 541.011381 339.111647 
L 540.954432 341.464119 
L 540.873961 343.815904 
L 540.769976 346.166766 
L 540.642489 348.516471 
L 540.491511 350.864784 
L 540.317058 353.21147 
L 540.119147 355.556293 
L 539.897798 357.899021 
L 539.653034 360.239417 
L 539.384878 362.57725 
L 539.093358 364.912283 
L 538.778502 367.244285 
L 538.440342 369.573022 
L 538.078912 371.898261 
L 537.694249 374.219769 
L 537.28639 376.537315 
L 536.855376 378.850666 
L 536.401251 381.159592 
L 535.924059 383.463861 
L 535.423849 385.763242 
L 534.900671 388.057507 
L 534.354576 390.346426 
L 533.78562 392.629769 
L 533.19386 394.907308 
L 532.579354 397.178817 
L 531.942164 399.444066 
L 531.282353 401.702831 
L 530.599989 403.954884 
L 529.895138 406.200002 
L 529.167872 408.437959 
L 528.418263 410.668531 
L 527.646386 412.891496 
L 526.852319 415.106631 
L 526.03614 417.313715 
L 525.197932 419.512527 
L 524.337777 421.702847 
L 523.455763 423.884456 
L 522.551977 426.057136 
L 521.62651 428.220669 
L 520.679455 430.37484 
L 519.710905 432.519433 
L 518.720958 434.654234 
L 517.709713 436.779028 
L 516.677271 438.893603 
L 515.623735 440.997749 
L 514.549211 443.091254 
L 513.453806 445.17391 
L 512.337629 447.245508 
L 511.200793 449.30584 
L 510.04341 451.354701 
L 508.865597 453.391886 
L 507.667471 455.417192 
L 506.449153 457.430415 
L 505.210763 459.431354 
L 503.952427 461.41981 
L 502.674269 463.395583 
L 501.376418 465.358476 
L 500.059002 467.308293 
L 498.722155 469.244838 
L 497.36601 471.167918 
L 495.990702 473.07734 
L 494.596369 474.972915 
L 493.18315 476.854451 
L 491.751187 478.721761 
L 490.300622 480.574659 
L 488.831602 482.412959 
L 487.344272 484.236476 
L 485.838781 486.04503 
L 484.315281 487.838438 
L 482.773923 489.616522 
L 481.214862 491.379104 
L 479.638253 493.126007 
L 478.044254 494.857057 
L 476.433025 496.572081 
L 474.804726 498.270907 
L 473.15952 499.953366 
L 471.497573 501.619288 
L 469.81905 503.268508 
L 468.124119 504.900861 
L 466.412949 506.516183 
L 464.685712 508.114313 
L 462.94258 509.69509 
L 461.183728 511.258358 
L 459.409331 512.803959 
L 457.619567 514.33174 
L 455.814616 515.841546 
L 453.994656 517.333228 
L 452.159871 518.806636 
L 450.310444 520.261623 
L 448.44656 521.698043 
L 446.568405 523.115753 
L 444.676167 524.514611 
L 442.770036 525.894477 
L 440.850201 527.255212 
L 438.916855 528.596682 
L 436.970192 529.918751 
L 435.010405 531.221288 
L 433.037691 532.504163 
L 431.052247 533.767246 
L 429.054272 535.010412 
L 427.043965 536.233537 
L 425.021528 537.436497 
L 422.987162 538.619174 
L 420.941072 539.781448 
L 418.883461 540.923203 
L 416.814536 542.044325 
L 414.734503 543.144703 
L 412.643571 544.224225 
L 410.541948 545.282785 
L 408.429845 546.320276 
L 406.307472 547.336594 
L 404.175043 548.331638 
L 402.03277 549.305308 
L 399.880868 550.257508 
L 397.719552 551.188141 
L 395.549037 552.097114 
L 393.369541 552.984338 
L 391.181282 553.849722 
L 388.984479 554.693181 
L 386.779352 555.51463 
L 384.56612 556.313988 
L 382.345005 557.091173 
L 380.11623 557.846108 
L 377.880017 558.578719 
L 375.63659 559.288931 
L 373.386173 559.976674 
L 371.128991 560.641878 
L 368.86527 561.284478 
L 366.595236 561.904409 
L 364.319117 562.501609 
L 362.037139 563.076018 
L 359.749532 563.627579 
L 357.456524 564.156237 
L 355.158343 564.661939 
L 352.855221 565.144634 
L 350.547387 565.604274 
L 348.235072 566.040813 
L 345.918507 566.454207 
L 343.597925 566.844416 
L 341.273556 567.211399 
L 338.945634 567.555121 
L 336.614391 567.875547 
L 334.28006 568.172645 
L 331.942875 568.446385 
L 329.60307 568.69674 
L 327.260878 568.923685 
L 324.916533 569.127197 
L 322.570271 569.307256 
L 320.222326 569.463843 
L 317.872932 569.596944 
L 315.522325 569.706544 
L 313.170739 569.792633 
L 310.81841 569.855203 
L 308.465573 569.894246 
L 306.112463 569.90976 
L 305.737685 569.910058 
L 305.737685 572.286998 
L 306.116249 572.286697 
L 308.493127 572.271027 
L 310.869731 572.231589 
L 313.245821 572.168387 
L 315.62116 572.081429 
L 317.995511 571.970721 
L 320.368636 571.836276 
L 322.740298 571.678107 
L 325.110259 571.49623 
L 327.478284 571.290662 
L 329.844134 571.061425 
L 332.207574 570.808541 
L 334.568367 570.532036 
L 336.926277 570.231937 
L 339.281067 569.908274 
L 341.632504 569.561081 
L 343.980351 569.19039 
L 346.324374 568.79624 
L 348.664339 568.37867 
L 351.00001 567.937721 
L 353.331156 567.473438 
L 355.657542 566.985868 
L 357.978936 566.475058 
L 360.295106 565.94106 
L 362.605821 565.383928 
L 364.910849 564.803716 
L 367.209959 564.200484 
L 369.502922 563.574291 
L 371.789509 562.925201 
L 374.069491 562.253277 
L 376.342639 561.558587 
L 378.608727 560.841201 
L 380.867528 560.101191 
L 383.118817 559.338629 
L 385.362367 558.553594 
L 387.597954 557.746162 
L 389.825356 556.916416 
L 392.044349 556.064437 
L 394.254711 555.190311 
L 396.456222 554.294126 
L 398.648661 553.375971 
L 400.831809 552.435937 
L 403.005448 551.47412 
L 405.16936 550.490614 
L 407.323329 549.485519 
L 409.467139 548.458935 
L 411.600577 547.410965 
L 413.723428 546.341713 
L 415.835481 545.251286 
L 417.936524 544.139794 
L 420.026348 543.007347 
L 422.104742 541.854058 
L 424.1715 540.680044 
L 426.226415 539.485422 
L 428.269281 538.27031 
L 430.299894 537.034831 
L 432.318051 535.779107 
L 434.323549 534.503265 
L 436.31619 533.207433 
L 438.295772 531.891739 
L 440.262099 530.556315 
L 442.214974 529.201295 
L 444.154201 527.826815 
L 446.079586 526.433011 
L 447.990938 525.020024 
L 449.888064 523.587994 
L 451.770775 522.137064 
L 453.638883 520.66738 
L 455.492201 519.179089 
L 457.330544 517.67234 
L 459.153728 516.147283 
L 460.96157 514.60407 
L 462.75389 513.042857 
L 464.530508 511.463799 
L 466.291247 509.867053 
L 468.035931 508.252781 
L 469.764386 506.621142 
L 471.476437 504.972301 
L 473.171915 503.306423 
L 474.85065 501.623673 
L 476.512474 499.92422 
L 478.15722 498.208234 
L 479.784724 496.475887 
L 481.394824 494.727351 
L 482.987359 492.962802 
L 484.562168 491.182417 
L 486.119095 489.386372 
L 487.657984 487.574849 
L 489.178682 485.748027 
L 490.681035 483.90609 
L 492.164894 482.049221 
L 493.630111 480.177608 
L 495.076538 478.291436 
L 496.504032 476.390894 
L 497.91245 474.476172 
L 499.30165 472.547463 
L 500.671493 470.604957 
L 502.021844 468.648851 
L 503.352566 466.67934 
L 504.663527 464.69662 
L 505.954596 462.700889 
L 507.225643 460.692348 
L 508.476541 458.671197 
L 509.707166 456.637639 
L 510.917394 454.591876 
L 512.107104 452.534113 
L 513.276177 450.464556 
L 514.424497 448.383412 
L 515.551948 446.290889 
L 516.658418 444.187197 
L 517.743796 442.072545 
L 518.807974 439.947145 
L 519.850845 437.81121 
L 520.872304 435.664953 
L 521.872251 433.508589 
L 522.850584 431.342334 
L 523.807206 429.166404 
L 524.742021 426.981016 
L 525.654936 424.78639 
L 526.545859 422.582745 
L 527.414702 420.3703 
L 528.261377 418.149278 
L 529.0858 415.919901 
L 529.887888 413.68239 
L 530.667562 411.436971 
L 531.424743 409.183868 
L 532.159355 406.923305 
L 532.871325 404.65551 
L 533.560582 402.380708 
L 534.227057 400.099128 
L 534.870684 397.810997 
L 535.491397 395.516544 
L 536.089135 393.215999 
L 536.663838 390.909592 
L 537.215448 388.597553 
L 537.743911 386.280114 
L 538.249174 383.957506 
L 538.731186 381.629962 
L 539.189898 379.297714 
L 539.625266 376.960995 
L 540.037244 374.62004 
L 540.425794 372.275082 
L 540.790874 369.926356 
L 541.132449 367.574097 
L 541.450486 365.218539 
L 541.744951 362.859919 
L 542.015815 360.498472 
L 542.263052 358.134435 
L 542.486636 355.768044 
L 542.686546 353.399535 
L 542.862761 351.029146 
L 543.015264 348.657113 
L 543.14404 346.283673 
L 543.249074 343.909065 
L 543.330358 341.533525 
L 543.387883 339.15729 
L 543.421643 336.7806 
L 543.431635 334.40369 
L 543.417858 332.0268 
L 543.380312 329.650166 
L 543.319003 327.274027 
L 543.233936 324.898619 
L 543.125119 322.524181 
L 542.992564 320.15095 
L 542.836284 317.779162 
L 542.656293 315.409057 
L 542.452612 313.040869 
L 542.225259 310.674837 
L 541.974257 308.311196 
L 541.699632 305.950184 
L 541.401411 303.592036 
L 541.079623 301.236988 
L 540.734302 298.885276 
L 540.365481 296.537134 
L 539.973198 294.192798 
L 539.557491 291.852502 
L 539.118403 289.51648 
L 538.655977 287.184965 
L 538.170259 284.858192 
L 537.661298 282.536391 
L 537.129144 280.219797 
L 536.573852 277.908639 
L 535.995477 275.60315 
L 535.394075 273.30356 
L 534.769709 271.010099 
L 534.122439 268.722996 
L 533.452331 266.44248 
L 532.759452 264.168779 
L 532.043871 261.902121 
L 531.305659 259.642731 
L 530.544891 257.390836 
L 529.761642 255.146662 
L 528.955991 252.910432 
L 528.128019 250.68237 
L 527.277807 248.462699 
L 526.405442 246.251641 
L 525.51101 244.049418 
L 524.594601 241.856248 
L 523.656306 239.672352 
L 522.69622 237.497948 
L 521.714438 235.333254 
L 520.711059 233.178485 
L 519.686182 231.033858 
L 518.639911 228.899587 
L 517.57235 226.775884 
L 516.483605 224.662964 
L 515.373786 222.561036 
L 514.243004 220.470312 
L 513.091371 218.390999 
L 511.919003 216.323307 
L 510.726017 214.267442 
L 509.512533 212.223609 
L 508.278671 210.192013 
L 507.024555 208.172857 
L 505.750311 206.166342 
L 504.456065 204.172671 
L 503.141948 202.192041 
L 501.808091 200.224651 
L 500.454626 198.270698 
L 499.081691 196.330377 
L 497.689421 194.403883 
L 496.277955 192.491407 
L 494.847437 190.593141 
L 493.398007 188.709275 
L 491.929811 186.839997 
L 490.442997 184.985494 
L 488.937712 183.145952 
L 487.414107 181.321555 
L 485.872334 179.512484 
L 484.312549 177.718922 
L 482.734906 175.941047 
L 481.139563 174.179036 
L 479.52668 172.433067 
L 477.896419 170.703314 
L 476.248942 168.98995 
L 474.584414 167.293146 
L 472.903001 165.613072 
L 471.204872 163.949895 
L 469.490196 162.303783 
L 467.759146 160.6749 
L 466.011893 159.063408 
L 464.248613 157.469469 
L 462.469482 155.893242 
L 460.674678 154.334885 
L 458.86438 152.794554 
L 457.03877 151.272402 
L 455.19803 149.768583 
L 453.342344 148.283245 
L 451.471897 146.816539 
L 449.586878 145.36861 
L 447.687473 143.939603 
L 445.773874 142.529661 
L 443.846271 141.138926 
L 441.904857 139.767536 
L 439.949827 138.415628 
L 437.981376 137.083337 
L 435.9997 135.770798 
L 434.004999 134.478141 
L 431.99747 133.205494 
L 429.977316 131.952987 
L 427.944738 130.720743 
L 425.89994 129.508887 
L 423.843125 128.317538 
L 421.7745 127.146817 
L 419.694271 125.996841 
L 417.602647 124.867723 
L 415.499836 123.759579 
L 413.386049 122.672517 
L 411.261497 121.606647 
L 409.126393 120.562076 
L 406.980951 119.538908 
L 404.825384 118.537244 
L 402.659908 117.557187 
L 400.48474 116.598832 
L 398.300098 115.662277 
L 396.1062 114.747615 
L 393.903264 113.854937 
L 391.691512 112.984333 
L 389.471165 112.135889 
L 387.242445 111.309691 
L 385.005574 110.505821 
L 382.760777 109.724359 
L 380.508277 108.965385 
L 378.2483 108.228973 
L 375.981072 107.515197 
L 373.70682 106.824128 
L 371.425771 106.155837 
L 369.138154 105.510388 
L 366.844196 104.887848 
L 364.544128 104.288279 
L 362.238179 103.711739 
L 359.92658 103.158287 
L 357.609562 102.627979 
L 355.287357 102.120867 
L 352.960198 101.637002 
L 350.628316 101.176433 
L 348.291945 100.739205 
L 345.951318 100.325362 
L 343.606671 99.934945 
L 341.258236 99.567995 
L 338.906249 99.224546 
L 336.550946 98.904634 
L 334.192561 98.608291 
L 331.831331 98.335546 
L 329.467491 98.086427 
L 327.101279 97.860958 
L 324.73293 97.659162 
L 322.362682 97.48106 
L 319.990771 97.326668 
L 317.617435 97.196003 
L 315.24291 97.089077 
L 312.867436 97.005901 
L 310.491248 96.946484 
L 308.114585 96.910832 
L 305.737685 96.898947 
z
" clip-path="url(#p430584a845)" style="fill: #000080"/>
   </g>
   <g id="patch_3">
    <path d="M 305.737685 569.910058 
L 303.384553 569.898292 
L 301.031657 569.862996 
L 298.679231 569.804173 
L 296.327511 569.721829 
L 293.976732 569.615973 
L 291.627129 569.486614 
L 289.278938 569.333766 
L 286.932392 569.157445 
L 284.587726 568.957667 
L 282.245176 568.734453 
L 279.904975 568.487825 
L 277.567357 568.217807 
L 275.232556 567.924427 
L 272.900806 567.607715 
L 270.572339 567.267701 
L 268.247389 566.90442 
L 265.926187 566.517907 
L 263.608967 566.108203 
L 261.29596 565.675347 
L 258.987397 565.219383 
L 256.683509 564.740357 
L 254.384526 564.238316 
L 252.090678 563.713311 
L 249.802195 563.165394 
L 247.519306 562.59462 
L 245.242238 562.001046 
L 242.97122 561.384731 
L 240.706479 560.745737 
L 238.44824 560.084128 
L 236.196731 559.399971 
L 233.952175 558.693333 
L 231.714798 557.964285 
L 229.484824 557.2129 
L 227.262474 556.439253 
L 225.047972 555.643421 
L 222.841539 554.825485 
L 220.643395 553.985526 
L 218.453761 553.123628 
L 216.272855 552.239877 
L 214.100895 551.334361 
L 211.938099 550.407172 
L 209.784683 549.458401 
L 207.640862 548.488144 
L 205.506851 547.496497 
L 203.382863 546.48356 
L 201.26911 545.449435 
L 199.165804 544.394224 
L 197.073155 543.318033 
L 194.991372 542.220969 
L 192.920664 541.103143 
L 190.861238 539.964666 
L 188.813299 538.805653 
L 186.777052 537.626218 
L 184.752702 536.42648 
L 182.740449 535.206558 
L 180.740497 533.966576 
L 178.753044 532.706656 
L 176.778289 531.426925 
L 174.81643 530.127511 
L 172.867664 528.808544 
L 170.932184 527.470155 
L 169.010184 526.112479 
L 167.101857 524.735651 
L 165.207394 523.339809 
L 163.326984 521.925092 
L 161.460814 520.491642 
L 159.609072 519.039602 
L 157.771943 517.569118 
L 155.94961 516.080337 
L 154.142256 514.573407 
L 152.350062 513.048479 
L 150.573205 511.505706 
L 148.811866 509.945241 
L 147.066219 508.367241 
L 145.336438 506.771865 
L 143.622698 505.15927 
L 141.925169 503.529619 
L 140.244022 501.883074 
L 138.579423 500.219801 
L 136.93154 498.539965 
L 135.300538 496.843734 
L 133.686579 495.131279 
L 132.089825 493.402769 
L 130.510436 491.658379 
L 128.948569 489.898283 
L 127.404382 488.122656 
L 125.878027 486.331676 
L 124.369658 484.525523 
L 122.879426 482.704376 
L 121.407479 480.868419 
L 119.953966 479.017834 
L 118.51903 477.152806 
L 117.102817 475.273523 
L 115.705466 473.380172 
L 114.327119 471.472942 
L 112.967912 469.552024 
L 111.627983 467.617611 
L 110.307464 465.669895 
L 109.006488 463.709071 
L 107.725185 461.735336 
L 106.463683 459.748887 
L 105.222108 457.749923 
L 104.000585 455.738643 
L 102.799235 453.715248 
L 101.947111 452.251515 
L 99.88862 453.439985 
L 100.749352 454.918503 
L 101.962837 456.962336 
L 103.196699 458.993932 
L 104.450814 461.013089 
L 105.725059 463.019603 
L 107.019304 465.013274 
L 108.333421 466.993904 
L 109.667279 468.961294 
L 111.020743 470.915247 
L 112.393679 472.855568 
L 113.785949 474.782063 
L 115.197414 476.694539 
L 116.627933 478.592804 
L 118.077363 480.476671 
L 119.545558 482.345948 
L 121.032373 484.200451 
L 122.537658 486.039993 
L 124.061263 487.86439 
L 125.603035 489.673461 
L 127.162821 491.467023 
L 128.740464 493.244899 
L 130.335806 495.006909 
L 131.948689 496.752878 
L 133.57895 498.482631 
L 135.226428 500.195995 
L 136.890956 501.892799 
L 138.572368 503.572873 
L 140.270497 505.23605 
L 141.985173 506.882162 
L 143.716224 508.511045 
L 145.463476 510.122537 
L 147.226757 511.716476 
L 149.005888 513.292703 
L 150.800692 514.85106 
L 152.610989 516.391391 
L 154.436599 517.913543 
L 156.277339 519.417362 
L 158.133026 520.9027 
L 160.003472 522.369406 
L 161.888492 523.817335 
L 163.787896 525.246342 
L 165.701495 526.656284 
L 167.629098 528.047019 
L 169.570512 529.41841 
L 171.525542 530.770317 
L 173.493993 532.102608 
L 175.475669 533.415147 
L 177.470371 534.707805 
L 179.477899 535.980451 
L 181.498053 537.232958 
L 183.530631 538.465202 
L 185.57543 539.677059 
L 187.632244 540.868407 
L 189.70087 542.039128 
L 191.781098 543.189105 
L 193.872723 544.318222 
L 195.975533 545.426367 
L 198.08932 546.513428 
L 200.213872 547.579298 
L 202.348976 548.623869 
L 204.494419 549.647038 
L 206.649985 550.648701 
L 208.815461 551.628759 
L 210.990629 552.587113 
L 213.175271 553.523668 
L 215.36917 554.43833 
L 217.572105 555.331008 
L 219.783857 556.201613 
L 222.004204 557.050056 
L 224.232924 557.876254 
L 226.469795 558.680124 
L 228.714593 559.461586 
L 230.967093 560.22056 
L 233.227069 560.956973 
L 235.494297 561.670749 
L 237.768549 562.361817 
L 240.049598 563.030109 
L 242.337216 563.675557 
L 244.631173 564.298097 
L 246.931242 564.897667 
L 249.23719 565.474206 
L 251.548789 566.027658 
L 253.865807 566.557966 
L 256.188012 567.065078 
L 258.515172 567.548943 
L 260.847054 568.009512 
L 263.183425 568.446741 
L 265.524051 568.860583 
L 267.868699 569.251 
L 270.217133 569.617951 
L 272.56912 569.961399 
L 274.924423 570.281311 
L 277.282808 570.577654 
L 279.644038 570.850399 
L 282.007878 571.099518 
L 284.37409 571.324987 
L 286.742439 571.526783 
L 289.112688 571.704886 
L 291.484599 571.859277 
L 293.857935 571.989943 
L 296.232459 572.096868 
L 298.607933 572.180044 
L 300.984121 572.239461 
L 303.360784 572.275114 
L 305.737685 572.286998 
z
" clip-path="url(#p430584a845)" style="fill: #0080ff"/>
   </g>
   <g id="patch_4">
    <path d="M 101.947111 452.251515 
L 100.780734 450.207761 
L 99.634854 448.152445 
L 98.509583 446.085773 
L 97.405035 444.007952 
L 96.32132 441.919189 
L 95.258546 439.819694 
L 94.21682 437.709677 
L 93.196246 435.589347 
L 92.196927 433.458919 
L 91.21896 431.318603 
L 90.262446 429.168616 
L 89.327479 427.00917 
L 88.414153 424.840484 
L 87.522559 422.662772 
L 86.652786 420.476254 
L 85.804922 418.281147 
L 84.979051 416.077672 
L 84.175255 413.866048 
L 83.393616 411.646497 
L 82.63421 409.419241 
L 81.897115 407.184502 
L 81.182404 404.942504 
L 80.490148 402.693471 
L 79.820417 400.437629 
L 79.173277 398.175201 
L 78.548793 395.906416 
L 77.947028 393.631499 
L 77.368042 391.350679 
L 76.811893 389.064182 
L 76.278636 386.772239 
L 75.768325 384.475078 
L 75.281011 382.172929 
L 74.816742 379.866021 
L 74.375565 377.554587 
L 73.957524 375.238856 
L 73.562661 372.919061 
L 73.191015 370.595433 
L 72.842624 368.268205 
L 72.517522 365.937609 
L 72.215741 363.603879 
L 71.937313 361.267248 
L 71.682265 358.92795 
L 71.450622 356.586218 
L 71.242407 354.242287 
L 71.057642 351.896391 
L 70.896345 349.548764 
L 70.758531 347.199642 
L 70.644215 344.849259 
L 70.553409 342.497851 
L 70.486121 340.145652 
L 70.442357 337.792898 
L 70.422123 335.439824 
L 70.42542 333.086665 
L 70.452249 330.733657 
L 70.502605 328.381035 
L 70.576485 326.029034 
L 70.673881 323.67789 
L 70.794783 321.327836 
L 70.93918 318.97911 
L 71.107055 316.631945 
L 71.298394 314.286575 
L 71.513177 311.943237 
L 71.751381 309.602163 
L 72.012985 307.263589 
L 72.29796 304.927747 
L 72.606279 302.594872 
L 72.937911 300.265197 
L 73.292823 297.938954 
L 73.670979 295.616377 
L 74.072342 293.297698 
L 74.496871 290.983147 
L 74.944524 288.672958 
L 75.415256 286.367361 
L 75.90902 284.066587 
L 76.425767 281.770864 
L 76.965445 279.480425 
L 77.528 277.195496 
L 78.113375 274.916307 
L 78.721513 272.643086 
L 79.352352 270.376059 
L 80.00583 268.115454 
L 80.68188 265.861497 
L 81.380436 263.614413 
L 82.101428 261.374427 
L 82.844783 259.141763 
L 83.610427 256.916643 
L 84.398284 254.699292 
L 85.208274 252.489929 
L 86.040317 250.288777 
L 86.89433 248.096055 
L 87.770227 245.911983 
L 88.66792 243.736779 
L 89.58732 241.57066 
L 90.528335 239.413843 
L 91.490871 237.266545 
L 92.474831 235.128979 
L 93.480118 233.001359 
L 94.50663 230.883898 
L 95.554265 228.776808 
L 96.622918 226.6803 
L 97.712482 224.594582 
L 98.822849 222.519865 
L 99.953907 220.456355 
L 101.105543 218.404258 
L 101.947111 216.93443 
L 99.88862 215.74596 
L 99.038552 217.230635 
L 97.875283 219.303459 
L 96.7328 221.387813 
L 95.611218 223.483488 
L 94.510648 225.590273 
L 93.4312 227.707958 
L 92.372983 229.836332 
L 91.336102 231.975181 
L 90.320661 234.124292 
L 89.326762 236.283449 
L 88.354504 238.452438 
L 87.403983 240.631041 
L 86.475296 242.819039 
L 85.568535 245.016215 
L 84.683791 247.222349 
L 83.821152 249.437219 
L 82.980704 251.660606 
L 82.162532 253.892285 
L 81.366717 256.132034 
L 80.59334 258.379629 
L 79.842476 260.634846 
L 79.114202 262.897458 
L 78.40859 265.16724 
L 77.72571 267.443964 
L 77.065632 269.727404 
L 76.42842 272.017329 
L 75.81414 274.313512 
L 75.222851 276.615723 
L 74.654614 278.923732 
L 74.109485 281.237308 
L 73.587519 283.556219 
L 73.088767 285.880234 
L 72.61328 288.20912 
L 72.161105 290.542644 
L 71.732288 292.880574 
L 71.326871 295.222674 
L 70.944895 297.568712 
L 70.586398 299.918452 
L 70.251416 302.271659 
L 69.939983 304.628098 
L 69.652129 306.987534 
L 69.387883 309.349731 
L 69.147273 311.714452 
L 68.930321 314.08146 
L 68.737049 316.45052 
L 68.567478 318.821394 
L 68.421623 321.193845 
L 68.299499 323.567636 
L 68.20112 325.94253 
L 68.126493 328.318288 
L 68.075628 330.694674 
L 68.048529 333.07145 
L 68.045198 335.448378 
L 68.065637 337.825221 
L 68.109842 340.20174 
L 68.17781 342.577698 
L 68.269534 344.952858 
L 68.385004 347.326982 
L 68.52421 349.699833 
L 68.687137 352.071173 
L 68.873768 354.440765 
L 69.084086 356.808372 
L 69.318069 359.173758 
L 69.575693 361.536685 
L 69.856934 363.896919 
L 70.161762 366.254222 
L 70.490148 368.608359 
L 70.842059 370.959094 
L 71.217459 373.306193 
L 71.61631 375.649421 
L 72.038574 377.988542 
L 72.484207 380.323325 
L 72.953166 382.653534 
L 73.445402 384.978938 
L 73.960868 387.299302 
L 74.499512 389.614397 
L 75.061278 391.923989 
L 75.646113 394.227848 
L 76.253956 396.525744 
L 76.884748 398.817446 
L 77.538424 401.102726 
L 78.21492 403.381355 
L 78.914169 405.653105 
L 79.636099 407.91775 
L 80.38064 410.175062 
L 81.147716 412.424816 
L 81.937251 414.666786 
L 82.749166 416.90075 
L 83.583379 419.126482 
L 84.439808 421.343762 
L 85.318366 423.552366 
L 86.218966 425.752075 
L 87.141517 427.942667 
L 88.085929 430.123925 
L 89.052105 432.29563 
L 90.039949 434.457565 
L 91.049363 436.609513 
L 92.080246 438.751259 
L 93.132494 440.88259 
L 94.206003 443.003292 
L 95.300664 445.113153 
L 96.41637 447.211963 
L 97.553007 449.29951 
L 98.710462 451.375587 
L 99.88862 453.439985 
z
" clip-path="url(#p430584a845)" style="fill: #7dff7a"/>
   </g>
   <g id="patch_5">
    <path d="M 101.947111 216.93443 
L 103.133866 214.902441 
L 104.340881 212.882421 
L 105.568036 210.874572 
L 106.815208 208.879095 
L 108.082272 206.896189 
L 109.369101 204.926052 
L 110.675567 202.968883 
L 112.001539 201.024875 
L 113.346885 199.094224 
L 114.711469 197.177123 
L 116.095156 195.273764 
L 117.497807 193.384336 
L 118.919282 191.509029 
L 120.359438 189.64803 
L 121.818132 187.801526 
L 123.295218 185.9697 
L 124.790548 184.152737 
L 126.303973 182.350818 
L 127.83534 180.564123 
L 129.384498 178.79283 
L 130.951291 177.037118 
L 132.535563 175.297161 
L 134.137154 173.573133 
L 135.755906 171.865207 
L 137.391655 170.173554 
L 139.044239 168.498343 
L 140.713493 166.839741 
L 142.399248 165.197914 
L 144.101337 163.573027 
L 145.81959 161.965241 
L 147.553835 160.374718 
L 149.303897 158.801617 
L 151.069603 157.246094 
L 152.850776 155.708307 
L 154.647237 154.188407 
L 156.458807 152.686548 
L 158.285305 151.202879 
L 160.126548 149.73755 
L 161.982351 148.290705 
L 163.852531 146.862491 
L 165.736898 145.453049 
L 167.635266 144.062522 
L 169.547444 142.691047 
L 171.473241 141.338762 
L 173.412464 140.005803 
L 175.364919 138.692302 
L 177.330412 137.398391 
L 179.308745 136.124199 
L 181.299721 134.869854 
L 183.303141 133.635482 
L 185.318804 132.421204 
L 187.346509 131.227144 
L 188.079142 130.802399 
L 186.890672 128.743908 
L 186.150638 129.172944 
L 184.102452 130.379065 
L 182.066428 131.605608 
L 180.042772 132.852449 
L 178.031685 134.119464 
L 176.033369 135.406527 
L 174.048023 136.713507 
L 172.075845 138.040276 
L 170.117034 139.3867 
L 168.171785 140.752644 
L 166.240292 142.137972 
L 164.322749 143.542545 
L 162.419347 144.966223 
L 160.530277 146.408864 
L 158.655728 147.870323 
L 156.795887 149.350454 
L 154.950939 150.849109 
L 153.121071 152.366139 
L 151.306463 153.901391 
L 149.507299 155.454712 
L 147.723758 157.025946 
L 145.956018 158.614938 
L 144.204256 160.221526 
L 142.468647 161.845552 
L 140.749365 163.486853 
L 139.046582 165.145264 
L 137.360467 166.820619 
L 135.691191 168.512752 
L 134.038918 170.221493 
L 132.403816 171.94667 
L 130.786046 173.688112 
L 129.185772 175.445645 
L 127.603153 177.219092 
L 126.038347 179.008276 
L 124.491511 180.813018 
L 122.962799 182.633139 
L 121.452365 184.468455 
L 119.960359 186.318784 
L 118.48693 188.18394 
L 117.032227 190.063736 
L 115.596394 191.957986 
L 114.179575 193.866499 
L 112.781911 195.789084 
L 111.403543 197.72555 
L 110.044609 199.675702 
L 108.705243 201.639346 
L 107.38558 203.616286 
L 106.085753 205.606322 
L 104.80589 207.609258 
L 103.546121 209.624891 
L 102.30657 211.653022 
L 101.087363 213.693446 
L 99.88862 215.74596 
z
" clip-path="url(#p430584a845)" style="fill: #ff9400"/>
   </g>
   <g id="patch_6">
    <path d="M 188.079142 130.802399 
L 190.122897 129.636022 
L 192.178213 128.490141 
L 194.244885 127.364871 
L 196.322706 126.260323 
L 198.411468 125.176608 
L 200.510963 124.113834 
L 202.620981 123.072108 
L 204.74131 122.051534 
L 206.871739 121.052214 
L 209.012054 120.074248 
L 211.162042 119.117734 
L 213.321487 118.182767 
L 215.490174 117.269441 
L 217.667885 116.377847 
L 219.854403 115.508074 
L 222.04951 114.66021 
L 224.252985 113.834339 
L 226.464609 113.030543 
L 228.68416 112.248904 
L 230.911416 111.489498 
L 233.146155 110.752403 
L 235.388153 110.037692 
L 237.637186 109.345436 
L 239.893029 108.675705 
L 242.155456 108.028565 
L 244.424241 107.404081 
L 246.699158 106.802316 
L 248.979979 106.22333 
L 251.266475 105.667181 
L 253.558418 105.133924 
L 255.855579 104.623613 
L 258.157729 104.136299 
L 260.464636 103.67203 
L 262.77607 103.230853 
L 265.091801 102.812812 
L 267.411596 102.417949 
L 269.735224 102.046303 
L 272.062452 101.697912 
L 274.393048 101.37281 
L 276.726778 101.071029 
L 279.063409 100.792601 
L 281.402707 100.537553 
L 283.744439 100.30591 
L 286.08837 100.097695 
L 288.434267 99.91293 
L 290.781893 99.751633 
L 293.131015 99.613819 
L 295.481398 99.499503 
L 297.832806 99.408697 
L 300.185005 99.341408 
L 302.537759 99.297645 
L 304.890833 99.277411 
L 305.737685 99.275887 
L 305.737685 96.898947 
L 304.882279 96.900486 
L 302.505437 96.920925 
L 300.128917 96.96513 
L 297.752959 97.033098 
L 295.377799 97.124822 
L 293.003675 97.240292 
L 290.630825 97.379498 
L 288.259485 97.542424 
L 285.889893 97.729056 
L 283.522285 97.939374 
L 281.156899 98.173357 
L 278.793972 98.430981 
L 276.433738 98.712222 
L 274.076435 99.01705 
L 271.722298 99.345436 
L 269.371563 99.697347 
L 267.024464 100.072747 
L 264.681237 100.471598 
L 262.342115 100.893862 
L 260.007332 101.339495 
L 257.677123 101.808454 
L 255.35172 102.30069 
L 253.031355 102.816156 
L 250.716261 103.354799 
L 248.406668 103.916566 
L 246.102809 104.501401 
L 243.804914 105.109244 
L 241.513211 105.740035 
L 239.227931 106.393712 
L 236.949302 107.070208 
L 234.677552 107.769457 
L 232.412907 108.491387 
L 230.155595 109.235928 
L 227.905842 110.003004 
L 225.663871 110.792539 
L 223.429908 111.604453 
L 221.204175 112.438667 
L 218.986895 113.295095 
L 216.778291 114.173654 
L 214.578583 115.074254 
L 212.38799 115.996805 
L 210.206732 116.941216 
L 208.035027 117.907393 
L 205.873093 118.895237 
L 203.721144 119.904651 
L 201.579398 120.935534 
L 199.448067 121.987782 
L 197.327365 123.061291 
L 195.217504 124.155952 
L 193.118695 125.271658 
L 191.031147 126.408295 
L 188.95507 127.56575 
L 186.890672 128.743908 
z
" clip-path="url(#p430584a845)" style="fill: #800000"/>
   </g>
   <g id="PatchCollection_1">
    <path d="M 305.737685 99.275887 
L 305.737685 99.275887 
L 308.090816 99.287653 
L 310.443713 99.322949 
L 312.796138 99.381772 
L 315.147858 99.464116 
L 317.498637 99.569972 
L 319.84824 99.699331 
L 322.196432 99.852179 
L 324.542978 100.0285 
L 326.887643 100.228278 
L 329.230193 100.451492 
L 331.570394 100.698121 
L 333.908012 100.968138 
L 336.242813 101.261518 
L 338.574564 101.57823 
L 340.90303 101.918244 
L 343.227981 102.281526 
L 345.549182 102.668038 
L 347.866402 103.077742 
L 350.179409 103.510598 
L 352.487973 103.966562 
L 354.791861 104.445588 
L 357.090844 104.947629 
L 359.384691 105.472634 
L 361.673174 106.020551 
L 363.956063 106.591325 
L 366.233131 107.1849 
L 368.504149 107.801214 
L 370.76889 108.440208 
L 373.027129 109.101817 
L 375.278638 109.785974 
L 377.523194 110.492613 
L 379.760571 111.221661 
L 381.990546 111.973046 
L 384.212895 112.746692 
L 386.427397 113.542524 
L 388.633831 114.36046 
L 390.831974 115.200419 
L 393.021608 116.062317 
L 395.202514 116.946068 
L 397.374474 117.851584 
L 399.53727 118.778774 
L 401.690686 119.727544 
L 403.834507 120.697802 
L 405.968518 121.689448 
L 408.092506 122.702385 
L 410.206259 123.73651 
L 412.309565 124.791722 
L 414.402214 125.867913 
L 416.483997 126.964976 
L 418.554705 128.082802 
L 420.614132 129.221279 
L 422.66207 130.380293 
L 423.396227 130.802399 
L 423.396227 130.802399 
Q 305.737685 334.592973 188.079142 130.802399 
L 188.079142 130.802399 
L 188.079142 130.802399 
L 190.122897 129.636022 
L 192.178213 128.490141 
L 194.244885 127.364871 
L 196.322706 126.260323 
L 198.411468 125.176608 
L 200.510963 124.113834 
L 202.620981 123.072108 
L 204.74131 122.051534 
L 206.871739 121.052214 
L 209.012054 120.074248 
L 211.162042 119.117734 
L 213.321487 118.182767 
L 215.490174 117.269441 
L 217.667885 116.377847 
L 219.854403 115.508074 
L 222.04951 114.66021 
L 224.252985 113.834339 
L 226.464609 113.030543 
L 228.68416 112.248904 
L 230.911416 111.489498 
L 233.146155 110.752403 
L 235.388153 110.037692 
L 237.637186 109.345436 
L 239.893029 108.675705 
L 242.155456 108.028565 
L 244.424241 107.404081 
L 246.699158 106.802316 
L 248.979979 106.22333 
L 251.266475 105.667181 
L 253.558418 105.133924 
L 255.855579 104.623613 
L 258.157729 104.136299 
L 260.464636 103.67203 
L 262.77607 103.230853 
L 265.091801 102.812812 
L 267.411596 102.417949 
L 269.735224 102.046303 
L 272.062452 101.697912 
L 274.393048 101.37281 
L 276.726778 101.071029 
L 279.063409 100.792601 
L 281.402707 100.537553 
L 283.744439 100.30591 
L 286.08837 100.097695 
L 288.434267 99.91293 
L 290.781893 99.751633 
L 293.131015 99.613819 
L 295.481398 99.499503 
L 297.832806 99.408697 
L 300.185005 99.341408 
L 302.537759 99.297645 
L 304.890833 99.277411 
L 305.737685 99.275887 
L 305.737685 99.275887 
Q 305.737685 334.592973 305.737685 99.275887 
z
" clip-path="url(#p430584a845)" style="fill: #000080; fill-opacity: 0.5; stroke: #808080; stroke-opacity: 0.5; stroke-width: 0.1"/>
    <path d="M 423.396227 130.802399 
L 423.396227 130.802399 
L 425.428216 131.989154 
L 427.448236 133.196169 
L 429.456085 134.423324 
L 431.451562 135.670496 
L 433.434468 136.93756 
L 435.404605 138.224389 
L 437.361775 139.530855 
L 439.305782 140.856827 
L 441.236433 142.202173 
L 443.153534 143.566757 
L 445.056894 144.950444 
L 446.946321 146.353095 
L 448.821628 147.77457 
L 450.682627 149.214726 
L 452.529132 150.67342 
L 454.360957 152.150506 
L 456.17792 153.645836 
L 457.979839 155.159261 
L 459.766534 156.690628 
L 461.537827 158.239786 
L 463.293539 159.806579 
L 465.033497 161.390851 
L 466.757524 162.992442 
L 468.46545 164.611194 
L 470.157103 166.246943 
L 471.832314 167.899527 
L 473.490916 169.568781 
L 475.132743 171.254536 
L 476.757631 172.956625 
L 478.365416 174.674878 
L 479.955939 176.409122 
L 481.529041 178.159185 
L 483.084563 179.924891 
L 484.622351 181.706064 
L 486.14225 183.502525 
L 487.644109 185.314095 
L 489.127778 187.140592 
L 490.593108 188.981835 
L 492.039952 190.837639 
L 493.468166 192.707819 
L 494.877608 194.592186 
L 496.268135 196.490554 
L 497.63961 198.402732 
L 498.991895 200.328529 
L 500.324854 202.267752 
L 501.638355 204.220207 
L 502.932266 206.1857 
L 504.206458 208.164033 
L 505.460803 210.155009 
L 506.695176 212.158429 
L 507.909453 214.174092 
L 509.103513 216.201797 
L 509.528259 216.93443 
L 509.528259 216.93443 
Q 305.737685 334.592973 101.947111 216.93443 
L 101.947111 216.93443 
L 101.947111 216.93443 
L 103.133866 214.902441 
L 104.340881 212.882421 
L 105.568036 210.874572 
L 106.815208 208.879095 
L 108.082272 206.896189 
L 109.369101 204.926052 
L 110.675567 202.968883 
L 112.001539 201.024875 
L 113.346885 199.094224 
L 114.711469 197.177123 
L 116.095156 195.273764 
L 117.497807 193.384336 
L 118.919282 191.509029 
L 120.359438 189.64803 
L 121.818132 187.801526 
L 123.295218 185.9697 
L 124.790548 184.152737 
L 126.303973 182.350818 
L 127.83534 180.564123 
L 129.384498 178.79283 
L 130.951291 177.037118 
L 132.535563 175.297161 
L 134.137154 173.573133 
L 135.755906 171.865207 
L 137.391655 170.173554 
L 139.044239 168.498343 
L 140.713493 166.839741 
L 142.399248 165.197914 
L 144.101337 163.573027 
L 145.81959 161.965241 
L 147.553835 160.374718 
L 149.303897 158.801617 
L 151.069603 157.246094 
L 152.850776 155.708307 
L 154.647237 154.188407 
L 156.458807 152.686548 
L 158.285305 151.202879 
L 160.126548 149.73755 
L 161.982351 148.290705 
L 163.852531 146.862491 
L 165.736898 145.453049 
L 167.635266 144.062522 
L 169.547444 142.691047 
L 171.473241 141.338762 
L 173.412464 140.005803 
L 175.364919 138.692302 
L 177.330412 137.398391 
L 179.308745 136.124199 
L 181.299721 134.869854 
L 183.303141 133.635482 
L 185.318804 132.421204 
L 187.346509 131.227144 
L 188.079142 130.802399 
L 188.079142 130.802399 
Q 305.737685 334.592973 423.396227 130.802399 
z
" clip-path="url(#p430584a845)" style="fill: #000080; fill-opacity: 0.5; stroke: #808080; stroke-opacity: 0.5; stroke-width: 0.1"/>
    <path d="M 509.528259 216.93443 
L 509.528259 216.93443 
L 510.694635 218.978185 
L 511.840516 221.033501 
L 512.965787 223.100172 
L 514.070335 225.177994 
L 515.15405 227.266756 
L 516.216823 229.366251 
L 517.258549 231.476269 
L 518.279123 233.596598 
L 519.278443 235.727027 
L 520.256409 237.867342 
L 521.212923 240.01733 
L 522.14789 242.176775 
L 523.061216 244.345461 
L 523.95281 246.523173 
L 524.822583 248.709691 
L 525.670447 250.904798 
L 526.496319 253.108273 
L 527.300114 255.319897 
L 528.081754 257.539448 
L 528.841159 259.766704 
L 529.578254 262.001443 
L 530.292965 264.243441 
L 530.985221 266.492474 
L 531.654953 268.748317 
L 532.302092 271.010744 
L 532.926576 273.279529 
L 533.528341 275.554446 
L 534.107327 277.835266 
L 534.663476 280.121763 
L 535.196733 282.413706 
L 535.707044 284.710867 
L 536.194358 287.013017 
L 536.658627 289.319924 
L 537.099804 291.631358 
L 537.517845 293.947089 
L 537.912708 296.266884 
L 538.284354 298.590512 
L 538.632746 300.91774 
L 538.957848 303.248336 
L 539.259628 305.582066 
L 539.538056 307.918697 
L 539.793105 310.257995 
L 540.024748 312.599727 
L 540.232962 314.943658 
L 540.417727 317.289555 
L 540.579025 319.637181 
L 540.716838 321.986303 
L 540.831154 324.336686 
L 540.92196 326.688094 
L 540.989249 329.040293 
L 541.033012 331.393047 
L 541.053246 333.746121 
L 541.049949 336.09928 
L 541.023121 338.452288 
L 540.972764 340.80491 
L 540.898884 343.156911 
L 540.801488 345.508056 
L 540.680586 347.858109 
L 540.53619 350.206835 
L 540.368314 352.554001 
L 540.176975 354.89937 
L 539.962193 357.242708 
L 539.723988 359.583782 
L 539.462385 361.922356 
L 539.177409 364.258198 
L 538.86909 366.591073 
L 538.537458 368.920748 
L 538.182546 371.246991 
L 537.80439 373.569568 
L 537.403027 375.888248 
L 536.978498 378.202798 
L 536.530845 380.512987 
L 536.060113 382.818584 
L 535.566349 385.119359 
L 535.049602 387.415081 
L 534.509925 389.705521 
L 533.94737 391.990449 
L 533.361994 394.269638 
L 532.753856 396.54286 
L 532.123017 398.809886 
L 531.469539 401.070491 
L 530.793489 403.324448 
L 530.094933 405.571532 
L 529.373941 407.811518 
L 528.630586 410.044182 
L 527.864942 412.269302 
L 527.077086 414.486653 
L 526.267095 416.696016 
L 525.435052 418.897168 
L 524.581039 421.08989 
L 523.705143 423.273962 
L 522.807449 425.449167 
L 521.888049 427.615285 
L 520.947034 429.772102 
L 519.984498 431.9194 
L 519.000538 434.056967 
L 517.995251 436.184586 
L 516.968739 438.302047 
L 515.921105 440.409137 
L 514.852451 442.505646 
L 513.762887 444.591363 
L 512.65252 446.66608 
L 511.521462 448.729591 
L 510.369826 450.781687 
L 509.528259 452.251515 
L 509.528259 452.251515 
Q 305.737685 334.592973 101.947111 452.251515 
L 101.947111 452.251515 
L 101.947111 452.251515 
L 100.780734 450.207761 
L 99.634854 448.152445 
L 98.509583 446.085773 
L 97.405035 444.007952 
L 96.32132 441.919189 
L 95.258546 439.819694 
L 94.21682 437.709677 
L 93.196246 435.589347 
L 92.196927 433.458919 
L 91.21896 431.318603 
L 90.262446 429.168616 
L 89.327479 427.00917 
L 88.414153 424.840484 
L 87.522559 422.662772 
L 86.652786 420.476254 
L 85.804922 418.281147 
L 84.979051 416.077672 
L 84.175255 413.866048 
L 83.393616 411.646497 
L 82.63421 409.419241 
L 81.897115 407.184502 
L 81.182404 404.942504 
L 80.490148 402.693471 
L 79.820417 400.437629 
L 79.173277 398.175201 
L 78.548793 395.906416 
L 77.947028 393.631499 
L 77.368042 391.350679 
L 76.811893 389.064182 
L 76.278636 386.772239 
L 75.768325 384.475078 
L 75.281011 382.172929 
L 74.816742 379.866021 
L 74.375565 377.554587 
L 73.957524 375.238856 
L 73.562661 372.919061 
L 73.191015 370.595433 
L 72.842624 368.268205 
L 72.517522 365.937609 
L 72.215741 363.603879 
L 71.937313 361.267248 
L 71.682265 358.92795 
L 71.450622 356.586218 
L 71.242407 354.242287 
L 71.057642 351.896391 
L 70.896345 349.548764 
L 70.758531 347.199642 
L 70.644215 344.849259 
L 70.553409 342.497851 
L 70.486121 340.145652 
L 70.442357 337.792898 
L 70.422123 335.439824 
L 70.42542 333.086665 
L 70.452249 330.733657 
L 70.502605 328.381035 
L 70.576485 326.029034 
L 70.673881 323.67789 
L 70.794783 321.327836 
L 70.93918 318.97911 
L 71.107055 316.631945 
L 71.298394 314.286575 
L 71.513177 311.943237 
L 71.751381 309.602163 
L 72.012985 307.263589 
L 72.29796 304.927747 
L 72.606279 302.594872 
L 72.937911 300.265197 
L 73.292823 297.938954 
L 73.670979 295.616377 
L 74.072342 293.297698 
L 74.496871 290.983147 
L 74.944524 288.672958 
L 75.415256 286.367361 
L 75.90902 284.066587 
L 76.425767 281.770864 
L 76.965445 279.480425 
L 77.528 277.195496 
L 78.113375 274.916307 
L 78.721513 272.643086 
L 79.352352 270.376059 
L 80.00583 268.115454 
L 80.68188 265.861497 
L 81.380436 263.614413 
L 82.101428 261.374427 
L 82.844783 259.141763 
L 83.610427 256.916643 
L 84.398284 254.699292 
L 85.208274 252.489929 
L 86.040317 250.288777 
L 86.89433 248.096055 
L 87.770227 245.911983 
L 88.66792 243.736779 
L 89.58732 241.57066 
L 90.528335 239.413843 
L 91.490871 237.266545 
L 92.474831 235.128979 
L 93.480118 233.001359 
L 94.50663 230.883898 
L 95.554265 228.776808 
L 96.622918 226.6803 
L 97.712482 224.594582 
L 98.822849 222.519865 
L 99.953907 220.456355 
L 101.105543 218.404258 
L 101.947111 216.93443 
L 101.947111 216.93443 
Q 305.737685 334.592973 509.528259 216.93443 
z
" clip-path="url(#p430584a845)" style="fill: #000080; fill-opacity: 0.5; stroke: #808080; stroke-opacity: 0.5; stroke-width: 0.1"/>
    <path d="M 509.528259 452.251515 
L 509.528259 452.251515 
L 508.341503 454.283504 
L 507.134488 456.303524 
L 505.907333 458.311373 
L 504.660161 460.30685 
L 503.393097 462.289756 
L 502.106268 464.259893 
L 500.799802 466.217063 
L 499.47383 468.16107 
L 498.128485 470.091721 
L 496.7639 472.008822 
L 495.380213 473.912181 
L 493.977562 475.801609 
L 492.556088 477.676916 
L 491.115931 479.537915 
L 489.657237 481.384419 
L 488.180151 483.216245 
L 486.684821 485.033208 
L 485.171397 486.835127 
L 483.640029 488.621822 
L 482.090871 490.393115 
L 480.524078 492.148827 
L 478.939807 493.888784 
L 477.338215 495.612812 
L 475.719463 497.320738 
L 474.083714 499.012391 
L 472.43113 500.687602 
L 470.761877 502.346204 
L 469.076121 503.988031 
L 467.374032 505.612919 
L 465.655779 507.220704 
L 463.921535 508.811227 
L 462.171472 510.384328 
L 460.405766 511.939851 
L 458.624594 513.477639 
L 456.828133 514.997538 
L 455.016563 516.499397 
L 453.190065 517.983066 
L 451.348822 519.448396 
L 449.493018 520.89524 
L 447.622839 522.323454 
L 445.738471 523.732896 
L 443.840103 525.123423 
L 441.927925 526.494898 
L 440.002129 527.847183 
L 438.062906 529.180142 
L 436.11045 530.493643 
L 434.144957 531.787554 
L 432.166624 533.061746 
L 430.175648 534.316091 
L 428.172228 535.550464 
L 426.156565 536.764741 
L 424.12886 537.958801 
L 422.089317 539.132525 
L 420.038138 540.285795 
L 417.975529 541.418496 
L 415.901696 542.530514 
L 413.816847 543.621739 
L 411.72119 544.692062 
L 409.614935 545.741374 
L 407.498293 546.769572 
L 405.371474 547.776552 
L 403.234692 548.762215 
L 401.088161 549.72646 
L 398.932094 550.669192 
L 396.766708 551.590317 
L 394.59222 552.489742 
L 392.408846 553.367378 
L 390.216804 554.223137 
L 388.016315 555.056932 
L 385.807599 555.868682 
L 383.590875 556.658304 
L 381.366366 557.42572 
L 379.134294 558.170852 
L 376.894883 558.893628 
L 374.648356 559.593973 
L 372.394938 560.271818 
L 370.134854 560.927096 
L 367.868331 561.55974 
L 365.595595 562.169688 
L 363.316873 562.756878 
L 361.032393 563.321252 
L 358.742383 563.862754 
L 356.447073 564.381329 
L 354.146693 564.876925 
L 351.841471 565.349493 
L 349.531639 565.798985 
L 347.217428 566.225357 
L 344.899069 566.628566 
L 342.576793 567.008572 
L 340.250834 567.365336 
L 337.921424 567.698823 
L 335.588795 568.009 
L 333.253181 568.295836 
L 330.914816 568.559301 
L 328.573932 568.79937 
L 326.230766 569.016018 
L 323.88555 569.209225 
L 321.538519 569.378969 
L 319.189908 569.525236 
L 316.839952 569.648009 
L 314.488886 569.747278 
L 312.136944 569.823031 
L 309.784363 569.875261 
L 307.431377 569.903963 
L 305.737685 569.910058 
L 305.737685 569.910058 
Q 305.737685 334.592973 305.737685 569.910058 
L 305.737685 569.910058 
L 305.737685 569.910058 
L 303.384553 569.898292 
L 301.031657 569.862996 
L 298.679231 569.804173 
L 296.327511 569.721829 
L 293.976732 569.615973 
L 291.627129 569.486614 
L 289.278938 569.333766 
L 286.932392 569.157445 
L 284.587726 568.957667 
L 282.245176 568.734453 
L 279.904975 568.487825 
L 277.567357 568.217807 
L 275.232556 567.924427 
L 272.900806 567.607715 
L 270.572339 567.267701 
L 268.247389 566.90442 
L 265.926187 566.517907 
L 263.608967 566.108203 
L 261.29596 565.675347 
L 258.987397 565.219383 
L 256.683509 564.740357 
L 254.384526 564.238316 
L 252.090678 563.713311 
L 249.802195 563.165394 
L 247.519306 562.59462 
L 245.242238 562.001046 
L 242.97122 561.384731 
L 240.706479 560.745737 
L 238.44824 560.084128 
L 236.196731 559.399971 
L 233.952175 558.693333 
L 231.714798 557.964285 
L 229.484824 557.2129 
L 227.262474 556.439253 
L 225.047972 555.643421 
L 222.841539 554.825485 
L 220.643395 553.985526 
L 218.453761 553.123628 
L 216.272855 552.239877 
L 214.100895 551.334361 
L 211.938099 550.407172 
L 209.784683 549.458401 
L 207.640862 548.488144 
L 205.506851 547.496497 
L 203.382863 546.48356 
L 201.26911 545.449435 
L 199.165804 544.394224 
L 197.073155 543.318033 
L 194.991372 542.220969 
L 192.920664 541.103143 
L 190.861238 539.964666 
L 188.813299 538.805653 
L 186.777052 537.626218 
L 184.752702 536.42648 
L 182.740449 535.206558 
L 180.740497 533.966576 
L 178.753044 532.706656 
L 176.778289 531.426925 
L 174.81643 530.127511 
L 172.867664 528.808544 
L 170.932184 527.470155 
L 169.010184 526.112479 
L 167.101857 524.735651 
L 165.207394 523.339809 
L 163.326984 521.925092 
L 161.460814 520.491642 
L 159.609072 519.039602 
L 157.771943 517.569118 
L 155.94961 516.080337 
L 154.142256 514.573407 
L 152.350062 513.048479 
L 150.573205 511.505706 
L 148.811866 509.945241 
L 147.066219 508.367241 
L 145.336438 506.771865 
L 143.622698 505.15927 
L 141.925169 503.529619 
L 140.244022 501.883074 
L 138.579423 500.219801 
L 136.93154 498.539965 
L 135.300538 496.843734 
L 133.686579 495.131279 
L 132.089825 493.402769 
L 130.510436 491.658379 
L 128.948569 489.898283 
L 127.404382 488.122656 
L 125.878027 486.331676 
L 124.369658 484.525523 
L 122.879426 482.704376 
L 121.407479 480.868419 
L 119.953966 479.017834 
L 118.51903 477.152806 
L 117.102817 475.273523 
L 115.705466 473.380172 
L 114.327119 471.472942 
L 112.967912 469.552024 
L 111.627983 467.617611 
L 110.307464 465.669895 
L 109.006488 463.709071 
L 107.725185 461.735336 
L 106.463683 459.748887 
L 105.222108 457.749923 
L 104.000585 455.738643 
L 102.799235 453.715248 
L 101.947111 452.251515 
L 101.947111 452.251515 
Q 305.737685 334.592973 509.528259 452.251515 
z
" clip-path="url(#p430584a845)" style="fill: #000080; fill-opacity: 0.5; stroke: #808080; stroke-opacity: 0.5; stroke-width: 0.1"/>
   </g>
   <g id="patch_7">
    <path d="M 305.737685 99.275887 
L 308.090816 99.287653 
L 310.443713 99.322949 
L 312.796138 99.381772 
L 315.147858 99.464116 
L 317.498637 99.569972 
L 319.84824 99.699331 
L 322.196432 99.852179 
L 324.542978 100.0285 
L 326.887643 100.228278 
L 329.230193 100.451492 
L 331.570394 100.698121 
L 333.908012 100.968138 
L 336.242813 101.261518 
L 338.574564 101.57823 
L 340.90303 101.918244 
L 343.227981 102.281526 
L 345.549182 102.668038 
L 347.866402 103.077742 
L 350.179409 103.510598 
L 352.487973 103.966562 
L 354.791861 104.445588 
L 357.090844 104.947629 
L 359.384691 105.472634 
L 361.673174 106.020551 
L 363.956063 106.591325 
L 366.233131 107.1849 
L 368.504149 107.801214 
L 370.76889 108.440208 
L 373.027129 109.101817 
L 375.278638 109.785974 
L 377.523194 110.492613 
L 379.760571 111.221661 
L 381.990546 111.973046 
L 384.212895 112.746692 
L 386.427397 113.542524 
L 388.633831 114.36046 
L 390.831974 115.200419 
L 393.021608 116.062317 
L 395.202514 116.946068 
L 397.374474 117.851584 
L 399.53727 118.778774 
L 401.690686 119.727544 
L 403.834507 120.697802 
L 405.968518 121.689448 
L 408.092506 122.702385 
L 410.206259 123.73651 
L 412.309565 124.791722 
L 414.402214 125.867913 
L 416.483997 126.964976 
L 418.554705 128.082802 
L 420.614132 129.221279 
L 422.66207 130.380293 
L 424.698317 131.559727 
L 426.722668 132.759466 
L 428.73492 133.979387 
L 430.734873 135.219369 
L 432.722326 136.479289 
L 434.69708 137.75902 
L 436.658939 139.058434 
L 438.607706 140.377401 
L 440.543186 141.71579 
L 442.465185 143.073466 
L 444.373512 144.450294 
L 446.267975 145.846137 
L 448.148386 147.260853 
L 450.014555 148.694303 
L 451.866297 150.146343 
L 453.703426 151.616827 
L 455.525759 153.105608 
L 457.333113 154.612538 
L 459.125308 156.137466 
L 460.902164 157.68024 
L 462.663504 159.240704 
L 464.409151 160.818704 
L 466.138931 162.414081 
L 467.852671 164.026675 
L 469.5502 165.656326 
L 471.231348 167.302871 
L 472.895946 168.966144 
L 474.543829 170.64598 
L 476.174832 172.342211 
L 477.78879 174.054666 
L 479.385544 175.783176 
L 480.964933 177.527566 
L 482.5268 179.287662 
L 484.070988 181.063289 
L 485.597342 182.854269 
L 487.105711 184.660422 
L 488.595943 186.481569 
L 490.06789 188.317527 
L 491.521404 190.168112 
L 492.956339 192.033139 
L 494.372553 193.912422 
L 495.769903 195.805774 
L 497.14825 197.713003 
L 498.507457 199.633921 
L 499.847387 201.568335 
L 501.167905 203.51605 
L 502.468881 205.476874 
L 503.750184 207.450609 
L 505.011686 209.437058 
L 506.253261 211.436022 
L 507.474784 213.447302 
L 508.676134 215.470697 
L 509.85719 217.506004 
L 511.017834 219.553019 
L 512.157951 221.611538 
L 513.277425 223.681356 
L 514.376146 225.762264 
L 515.454003 227.854055 
L 516.510889 229.95652 
L 517.546697 232.069449 
L 518.561325 234.19263 
L 519.554671 236.325851 
L 520.526635 238.468899 
L 521.47712 240.621558 
L 522.406032 242.783615 
L 523.313277 244.954853 
L 524.198764 247.135055 
L 525.062406 249.324002 
L 525.904115 251.521476 
L 526.723808 253.727257 
L 527.521403 255.941125 
L 528.296819 258.162858 
L 529.049979 260.392233 
L 529.780809 262.629029 
L 530.489234 264.873021 
L 531.175185 267.123985 
L 531.838592 269.381696 
L 532.479388 271.645928 
L 533.097511 273.916454 
L 533.692899 276.193049 
L 534.26549 278.475483 
L 534.81523 280.763529 
L 535.342061 283.056957 
L 535.845933 285.35554 
L 536.326794 287.659046 
L 536.784596 289.967245 
L 537.219293 292.279907 
L 537.630843 294.5968 
L 538.019203 296.917693 
L 538.384336 299.242353 
L 538.726204 301.570548 
L 539.044773 303.902046 
L 539.340012 306.236612 
L 539.611891 308.574014 
L 539.860383 310.914018 
L 540.085462 313.25639 
L 540.287107 315.600896 
L 540.465298 317.9473 
L 540.620015 320.29537 
L 540.751245 322.644869 
L 540.858973 324.995563 
L 540.94319 327.347216 
L 541.003886 329.699594 
L 541.041056 332.052462 
L 541.054695 334.405583 
L 541.044804 336.758724 
L 541.011381 339.111647 
L 540.954432 341.464119 
L 540.873961 343.815904 
L 540.769976 346.166766 
L 540.642489 348.516471 
L 540.491511 350.864784 
L 540.317058 353.21147 
L 540.119147 355.556293 
L 539.897798 357.899021 
L 539.653034 360.239417 
L 539.384878 362.57725 
L 539.093358 364.912283 
L 538.778502 367.244285 
L 538.440342 369.573022 
L 538.078912 371.898261 
L 537.694249 374.219769 
L 537.28639 376.537315 
L 536.855376 378.850666 
L 536.401251 381.159592 
L 535.924059 383.463861 
L 535.423849 385.763242 
L 534.900671 388.057507 
L 534.354576 390.346426 
L 533.78562 392.629769 
L 533.19386 394.907308 
L 532.579354 397.178817 
L 531.942164 399.444066 
L 531.282353 401.702831 
L 530.599989 403.954884 
L 529.895138 406.200002 
L 529.167872 408.437959 
L 528.418263 410.668531 
L 527.646386 412.891496 
L 526.852319 415.106631 
L 526.03614 417.313715 
L 525.197932 419.512527 
L 524.337777 421.702847 
L 523.455763 423.884456 
L 522.551977 426.057136 
L 521.62651 428.220669 
L 520.679455 430.37484 
L 519.710905 432.519433 
L 518.720958 434.654234 
L 517.709713 436.779028 
L 516.677271 438.893603 
L 515.623735 440.997749 
L 514.549211 443.091254 
L 513.453806 445.17391 
L 512.337629 447.245508 
L 511.200793 449.30584 
L 510.04341 451.354701 
L 508.865597 453.391886 
L 507.667471 455.417192 
L 506.449153 457.430415 
L 505.210763 459.431354 
L 503.952427 461.41981 
L 502.674269 463.395583 
L 501.376418 465.358476 
L 500.059002 467.308293 
L 498.722155 469.244838 
L 497.36601 471.167918 
L 495.990702 473.07734 
L 494.596369 474.972915 
L 493.18315 476.854451 
L 491.751187 478.721761 
L 490.300622 480.574659 
L 488.831602 482.412959 
L 487.344272 484.236476 
L 485.838781 486.04503 
L 484.315281 487.838438 
L 482.773923 489.616522 
L 481.214862 491.379104 
L 479.638253 493.126007 
L 478.044254 494.857057 
L 476.433025 496.572081 
L 474.804726 498.270907 
L 473.15952 499.953366 
L 471.497573 501.619288 
L 469.81905 503.268508 
L 468.124119 504.900861 
L 466.412949 506.516183 
L 464.685712 508.114313 
L 462.94258 509.69509 
L 461.183728 511.258358 
L 459.409331 512.803959 
L 457.619567 514.33174 
L 455.814616 515.841546 
L 453.994656 517.333228 
L 452.159871 518.806636 
L 450.310444 520.261623 
L 448.44656 521.698043 
L 446.568405 523.115753 
L 444.676167 524.514611 
L 442.770036 525.894477 
L 440.850201 527.255212 
L 438.916855 528.596682 
L 436.970192 529.918751 
L 435.010405 531.221288 
L 433.037691 532.504163 
L 431.052247 533.767246 
L 429.054272 535.010412 
L 427.043965 536.233537 
L 425.021528 537.436497 
L 422.987162 538.619174 
L 420.941072 539.781448 
L 418.883461 540.923203 
L 416.814536 542.044325 
L 414.734503 543.144703 
L 412.643571 544.224225 
L 410.541948 545.282785 
L 408.429845 546.320276 
L 406.307472 547.336594 
L 404.175043 548.331638 
L 402.03277 549.305308 
L 399.880868 550.257508 
L 397.719552 551.188141 
L 395.549037 552.097114 
L 393.369541 552.984338 
L 391.181282 553.849722 
L 388.984479 554.693181 
L 386.779352 555.51463 
L 384.56612 556.313988 
L 382.345005 557.091173 
L 380.11623 557.846108 
L 377.880017 558.578719 
L 375.63659 559.288931 
L 373.386173 559.976674 
L 371.128991 560.641878 
L 368.86527 561.284478 
L 366.595236 561.904409 
L 364.319117 562.501609 
L 362.037139 563.076018 
L 359.749532 563.627579 
L 357.456524 564.156237 
L 355.158343 564.661939 
L 352.855221 565.144634 
L 350.547387 565.604274 
L 348.235072 566.040813 
L 345.918507 566.454207 
L 343.597925 566.844416 
L 341.273556 567.211399 
L 338.945634 567.555121 
L 336.614391 567.875547 
L 334.28006 568.172645 
L 331.942875 568.446385 
L 329.60307 568.69674 
L 327.260878 568.923685 
L 324.916533 569.127197 
L 322.570271 569.307256 
L 320.222326 569.463843 
L 317.872932 569.596944 
L 315.522325 569.706544 
L 313.170739 569.792633 
L 310.81841 569.855203 
L 308.465573 569.894246 
L 306.112463 569.90976 
L 305.737685 569.910058 
L 305.737685 572.286998 
L 306.116249 572.286697 
L 308.493127 572.271027 
L 310.869731 572.231589 
L 313.245821 572.168387 
L 315.62116 572.081429 
L 317.995511 571.970721 
L 320.368636 571.836276 
L 322.740298 571.678107 
L 325.110259 571.49623 
L 327.478284 571.290662 
L 329.844134 571.061425 
L 332.207574 570.808541 
L 334.568367 570.532036 
L 336.926277 570.231937 
L 339.281067 569.908274 
L 341.632504 569.561081 
L 343.980351 569.19039 
L 346.324374 568.79624 
L 348.664339 568.37867 
L 351.00001 567.937721 
L 353.331156 567.473438 
L 355.657542 566.985868 
L 357.978936 566.475058 
L 360.295106 565.94106 
L 362.605821 565.383928 
L 364.910849 564.803716 
L 367.209959 564.200484 
L 369.502922 563.574291 
L 371.789509 562.925201 
L 374.069491 562.253277 
L 376.342639 561.558587 
L 378.608727 560.841201 
L 380.867528 560.101191 
L 383.118817 559.338629 
L 385.362367 558.553594 
L 387.597954 557.746162 
L 389.825356 556.916416 
L 392.044349 556.064437 
L 394.254711 555.190311 
L 396.456222 554.294126 
L 398.648661 553.375971 
L 400.831809 552.435937 
L 403.005448 551.47412 
L 405.16936 550.490614 
L 407.323329 549.485519 
L 409.467139 548.458935 
L 411.600577 547.410965 
L 413.723428 546.341713 
L 415.835481 545.251286 
L 417.936524 544.139794 
L 420.026348 543.007347 
L 422.104742 541.854058 
L 424.1715 540.680044 
L 426.226415 539.485422 
L 428.269281 538.27031 
L 430.299894 537.034831 
L 432.318051 535.779107 
L 434.323549 534.503265 
L 436.31619 533.207433 
L 438.295772 531.891739 
L 440.262099 530.556315 
L 442.214974 529.201295 
L 444.154201 527.826815 
L 446.079586 526.433011 
L 447.990938 525.020024 
L 449.888064 523.587994 
L 451.770775 522.137064 
L 453.638883 520.66738 
L 455.492201 519.179089 
L 457.330544 517.67234 
L 459.153728 516.147283 
L 460.96157 514.60407 
L 462.75389 513.042857 
L 464.530508 511.463799 
L 466.291247 509.867053 
L 468.035931 508.252781 
L 469.764386 506.621142 
L 471.476437 504.972301 
L 473.171915 503.306423 
L 474.85065 501.623673 
L 476.512474 499.92422 
L 478.15722 498.208234 
L 479.784724 496.475887 
L 481.394824 494.727351 
L 482.987359 492.962802 
L 484.562168 491.182417 
L 486.119095 489.386372 
L 487.657984 487.574849 
L 489.178682 485.748027 
L 490.681035 483.90609 
L 492.164894 482.049221 
L 493.630111 480.177608 
L 495.076538 478.291436 
L 496.504032 476.390894 
L 497.91245 474.476172 
L 499.30165 472.547463 
L 500.671493 470.604957 
L 502.021844 468.648851 
L 503.352566 466.67934 
L 504.663527 464.69662 
L 505.954596 462.700889 
L 507.225643 460.692348 
L 508.476541 458.671197 
L 509.707166 456.637639 
L 510.917394 454.591876 
L 512.107104 452.534113 
L 513.276177 450.464556 
L 514.424497 448.383412 
L 515.551948 446.290889 
L 516.658418 444.187197 
L 517.743796 442.072545 
L 518.807974 439.947145 
L 519.850845 437.81121 
L 520.872304 435.664953 
L 521.872251 433.508589 
L 522.850584 431.342334 
L 523.807206 429.166404 
L 524.742021 426.981016 
L 525.654936 424.78639 
L 526.545859 422.582745 
L 527.414702 420.3703 
L 528.261377 418.149278 
L 529.0858 415.919901 
L 529.887888 413.68239 
L 530.667562 411.436971 
L 531.424743 409.183868 
L 532.159355 406.923305 
L 532.871325 404.65551 
L 533.560582 402.380708 
L 534.227057 400.099128 
L 534.870684 397.810997 
L 535.491397 395.516544 
L 536.089135 393.215999 
L 536.663838 390.909592 
L 537.215448 388.597553 
L 537.743911 386.280114 
L 538.249174 383.957506 
L 538.731186 381.629962 
L 539.189898 379.297714 
L 539.625266 376.960995 
L 540.037244 374.62004 
L 540.425794 372.275082 
L 540.790874 369.926356 
L 541.132449 367.574097 
L 541.450486 365.218539 
L 541.744951 362.859919 
L 542.015815 360.498472 
L 542.263052 358.134435 
L 542.486636 355.768044 
L 542.686546 353.399535 
L 542.862761 351.029146 
L 543.015264 348.657113 
L 543.14404 346.283673 
L 543.249074 343.909065 
L 543.330358 341.533525 
L 543.387883 339.15729 
L 543.421643 336.7806 
L 543.431635 334.40369 
L 543.417858 332.0268 
L 543.380312 329.650166 
L 543.319003 327.274027 
L 543.233936 324.898619 
L 543.125119 322.524181 
L 542.992564 320.15095 
L 542.836284 317.779162 
L 542.656293 315.409057 
L 542.452612 313.040869 
L 542.225259 310.674837 
L 541.974257 308.311196 
L 541.699632 305.950184 
L 541.401411 303.592036 
L 541.079623 301.236988 
L 540.734302 298.885276 
L 540.365481 296.537134 
L 539.973198 294.192798 
L 539.557491 291.852502 
L 539.118403 289.51648 
L 538.655977 287.184965 
L 538.170259 284.858192 
L 537.661298 282.536391 
L 537.129144 280.219797 
L 536.573852 277.908639 
L 535.995477 275.60315 
L 535.394075 273.30356 
L 534.769709 271.010099 
L 534.122439 268.722996 
L 533.452331 266.44248 
L 532.759452 264.168779 
L 532.043871 261.902121 
L 531.305659 259.642731 
L 530.544891 257.390836 
L 529.761642 255.146662 
L 528.955991 252.910432 
L 528.128019 250.68237 
L 527.277807 248.462699 
L 526.405442 246.251641 
L 525.51101 244.049418 
L 524.594601 241.856248 
L 523.656306 239.672352 
L 522.69622 237.497948 
L 521.714438 235.333254 
L 520.711059 233.178485 
L 519.686182 231.033858 
L 518.639911 228.899587 
L 517.57235 226.775884 
L 516.483605 224.662964 
L 515.373786 222.561036 
L 514.243004 220.470312 
L 513.091371 218.390999 
L 511.919003 216.323307 
L 510.726017 214.267442 
L 509.512533 212.223609 
L 508.278671 210.192013 
L 507.024555 208.172857 
L 505.750311 206.166342 
L 504.456065 204.172671 
L 503.141948 202.192041 
L 501.808091 200.224651 
L 500.454626 198.270698 
L 499.081691 196.330377 
L 497.689421 194.403883 
L 496.277955 192.491407 
L 494.847437 190.593141 
L 493.398007 188.709275 
L 491.929811 186.839997 
L 490.442997 184.985494 
L 488.937712 183.145952 
L 487.414107 181.321555 
L 485.872334 179.512484 
L 484.312549 177.718922 
L 482.734906 175.941047 
L 481.139563 174.179036 
L 479.52668 172.433067 
L 477.896419 170.703314 
L 476.248942 168.98995 
L 474.584414 167.293146 
L 472.903001 165.613072 
L 471.204872 163.949895 
L 469.490196 162.303783 
L 467.759146 160.6749 
L 466.011893 159.063408 
L 464.248613 157.469469 
L 462.469482 155.893242 
L 460.674678 154.334885 
L 458.86438 152.794554 
L 457.03877 151.272402 
L 455.19803 149.768583 
L 453.342344 148.283245 
L 451.471897 146.816539 
L 449.586878 145.36861 
L 447.687473 143.939603 
L 445.773874 142.529661 
L 443.846271 141.138926 
L 441.904857 139.767536 
L 439.949827 138.415628 
L 437.981376 137.083337 
L 435.9997 135.770798 
L 434.004999 134.478141 
L 431.99747 133.205494 
L 429.977316 131.952987 
L 427.944738 130.720743 
L 425.89994 129.508887 
L 423.843125 128.317538 
L 421.7745 127.146817 
L 419.694271 125.996841 
L 417.602647 124.867723 
L 415.499836 123.759579 
L 413.386049 122.672517 
L 411.261497 121.606647 
L 409.126393 120.562076 
L 406.980951 119.538908 
L 404.825384 118.537244 
L 402.659908 117.557187 
L 400.48474 116.598832 
L 398.300098 115.662277 
L 396.1062 114.747615 
L 393.903264 113.854937 
L 391.691512 112.984333 
L 389.471165 112.135889 
L 387.242445 111.309691 
L 385.005574 110.505821 
L 382.760777 109.724359 
L 380.508277 108.965385 
L 378.2483 108.228973 
L 375.981072 107.515197 
L 373.70682 106.824128 
L 371.425771 106.155837 
L 369.138154 105.510388 
L 366.844196 104.887848 
L 364.544128 104.288279 
L 362.238179 103.711739 
L 359.92658 103.158287 
L 357.609562 102.627979 
L 355.287357 102.120867 
L 352.960198 101.637002 
L 350.628316 101.176433 
L 348.291945 100.739205 
L 345.951318 100.325362 
L 343.606671 99.934945 
L 341.258236 99.567995 
L 338.906249 99.224546 
L 336.550946 98.904634 
L 334.192561 98.608291 
L 331.831331 98.335546 
L 329.467491 98.086427 
L 327.101279 97.860958 
L 324.73293 97.659162 
L 322.362682 97.48106 
L 319.990771 97.326668 
L 317.617435 97.196003 
L 315.24291 97.089077 
L 312.867436 97.005901 
L 310.491248 96.946484 
L 308.114585 96.910832 
L 305.737685 96.898947 
L 305.737685 99.275887 
z
" clip-path="url(#p430584a845)" style="fill: none; stroke: #000000; stroke-width: 0.5; stroke-linejoin: miter"/>
   </g>
   <g id="patch_8">
    <path d="M 305.737685 569.910058 
L 303.384553 569.898292 
L 301.031657 569.862996 
L 298.679231 569.804173 
L 296.327511 569.721829 
L 293.976732 569.615973 
L 291.627129 569.486614 
L 289.278938 569.333766 
L 286.932392 569.157445 
L 284.587726 568.957667 
L 282.245176 568.734453 
L 279.904975 568.487825 
L 277.567357 568.217807 
L 275.232556 567.924427 
L 272.900806 567.607715 
L 270.572339 567.267701 
L 268.247389 566.90442 
L 265.926187 566.517907 
L 263.608967 566.108203 
L 261.29596 565.675347 
L 258.987397 565.219383 
L 256.683509 564.740357 
L 254.384526 564.238316 
L 252.090678 563.713311 
L 249.802195 563.165394 
L 247.519306 562.59462 
L 245.242238 562.001046 
L 242.97122 561.384731 
L 240.706479 560.745737 
L 238.44824 560.084128 
L 236.196731 559.399971 
L 233.952175 558.693333 
L 231.714798 557.964285 
L 229.484824 557.2129 
L 227.262474 556.439253 
L 225.047972 555.643421 
L 222.841539 554.825485 
L 220.643395 553.985526 
L 218.453761 553.123628 
L 216.272855 552.239877 
L 214.100895 551.334361 
L 211.938099 550.407172 
L 209.784683 549.458401 
L 207.640862 548.488144 
L 205.506851 547.496497 
L 203.382863 546.48356 
L 201.26911 545.449435 
L 199.165804 544.394224 
L 197.073155 543.318033 
L 194.991372 542.220969 
L 192.920664 541.103143 
L 190.861238 539.964666 
L 188.813299 538.805653 
L 186.777052 537.626218 
L 184.752702 536.42648 
L 182.740449 535.206558 
L 180.740497 533.966576 
L 178.753044 532.706656 
L 176.778289 531.426925 
L 174.81643 530.127511 
L 172.867664 528.808544 
L 170.932184 527.470155 
L 169.010184 526.112479 
L 167.101857 524.735651 
L 165.207394 523.339809 
L 163.326984 521.925092 
L 161.460814 520.491642 
L 159.609072 519.039602 
L 157.771943 517.569118 
L 155.94961 516.080337 
L 154.142256 514.573407 
L 152.350062 513.048479 
L 150.573205 511.505706 
L 148.811866 509.945241 
L 147.066219 508.367241 
L 145.336438 506.771865 
L 143.622698 505.15927 
L 141.925169 503.529619 
L 140.244022 501.883074 
L 138.579423 500.219801 
L 136.93154 498.539965 
L 135.300538 496.843734 
L 133.686579 495.131279 
L 132.089825 493.402769 
L 130.510436 491.658379 
L 128.948569 489.898283 
L 127.404382 488.122656 
L 125.878027 486.331676 
L 124.369658 484.525523 
L 122.879426 482.704376 
L 121.407479 480.868419 
L 119.953966 479.017834 
L 118.51903 477.152806 
L 117.102817 475.273523 
L 115.705466 473.380172 
L 114.327119 471.472942 
L 112.967912 469.552024 
L 111.627983 467.617611 
L 110.307464 465.669895 
L 109.006488 463.709071 
L 107.725185 461.735336 
L 106.463683 459.748887 
L 105.222108 457.749923 
L 104.000585 455.738643 
L 102.799235 453.715248 
L 101.947111 452.251515 
L 99.88862 453.439985 
L 100.749352 454.918503 
L 101.962837 456.962336 
L 103.196699 458.993932 
L 104.450814 461.013089 
L 105.725059 463.019603 
L 107.019304 465.013274 
L 108.333421 466.993904 
L 109.667279 468.961294 
L 111.020743 470.915247 
L 112.393679 472.855568 
L 113.785949 474.782063 
L 115.197414 476.694539 
L 116.627933 478.592804 
L 118.077363 480.476671 
L 119.545558 482.345948 
L 121.032373 484.200451 
L 122.537658 486.039993 
L 124.061263 487.86439 
L 125.603035 489.673461 
L 127.162821 491.467023 
L 128.740464 493.244899 
L 130.335806 495.006909 
L 131.948689 496.752878 
L 133.57895 498.482631 
L 135.226428 500.195995 
L 136.890956 501.892799 
L 138.572368 503.572873 
L 140.270497 505.23605 
L 141.985173 506.882162 
L 143.716224 508.511045 
L 145.463476 510.122537 
L 147.226757 511.716476 
L 149.005888 513.292703 
L 150.800692 514.85106 
L 152.610989 516.391391 
L 154.436599 517.913543 
L 156.277339 519.417362 
L 158.133026 520.9027 
L 160.003472 522.369406 
L 161.888492 523.817335 
L 163.787896 525.246342 
L 165.701495 526.656284 
L 167.629098 528.047019 
L 169.570512 529.41841 
L 171.525542 530.770317 
L 173.493993 532.102608 
L 175.475669 533.415147 
L 177.470371 534.707805 
L 179.477899 535.980451 
L 181.498053 537.232958 
L 183.530631 538.465202 
L 185.57543 539.677059 
L 187.632244 540.868407 
L 189.70087 542.039128 
L 191.781098 543.189105 
L 193.872723 544.318222 
L 195.975533 545.426367 
L 198.08932 546.513428 
L 200.213872 547.579298 
L 202.348976 548.623869 
L 204.494419 549.647038 
L 206.649985 550.648701 
L 208.815461 551.628759 
L 210.990629 552.587113 
L 213.175271 553.523668 
L 215.36917 554.43833 
L 217.572105 555.331008 
L 219.783857 556.201613 
L 222.004204 557.050056 
L 224.232924 557.876254 
L 226.469795 558.680124 
L 228.714593 559.461586 
L 230.967093 560.22056 
L 233.227069 560.956973 
L 235.494297 561.670749 
L 237.768549 562.361817 
L 240.049598 563.030109 
L 242.337216 563.675557 
L 244.631173 564.298097 
L 246.931242 564.897667 
L 249.23719 565.474206 
L 251.548789 566.027658 
L 253.865807 566.557966 
L 256.188012 567.065078 
L 258.515172 567.548943 
L 260.847054 568.009512 
L 263.183425 568.446741 
L 265.524051 568.860583 
L 267.868699 569.251 
L 270.217133 569.617951 
L 272.56912 569.961399 
L 274.924423 570.281311 
L 277.282808 570.577654 
L 279.644038 570.850399 
L 282.007878 571.099518 
L 284.37409 571.324987 
L 286.742439 571.526783 
L 289.112688 571.704886 
L 291.484599 571.859277 
L 293.857935 571.989943 
L 296.232459 572.096868 
L 298.607933 572.180044 
L 300.984121 572.239461 
L 303.360784 572.275114 
L 305.737685 572.286998 
L 305.737685 569.910058 
z
" clip-path="url(#p430584a845)" style="fill: none; stroke: #000000; stroke-width: 0.5; stroke-linejoin: miter"/>
   </g>
   <g id="patch_9">
    <path d="M 101.947111 452.251515 
L 100.780734 450.207761 
L 99.634854 448.152445 
L 98.509583 446.085773 
L 97.405035 444.007952 
L 96.32132 441.919189 
L 95.258546 439.819694 
L 94.21682 437.709677 
L 93.196246 435.589347 
L 92.196927 433.458919 
L 91.21896 431.318603 
L 90.262446 429.168616 
L 89.327479 427.00917 
L 88.414153 424.840484 
L 87.522559 422.662772 
L 86.652786 420.476254 
L 85.804922 418.281147 
L 84.979051 416.077672 
L 84.175255 413.866048 
L 83.393616 411.646497 
L 82.63421 409.419241 
L 81.897115 407.184502 
L 81.182404 404.942504 
L 80.490148 402.693471 
L 79.820417 400.437629 
L 79.173277 398.175201 
L 78.548793 395.906416 
L 77.947028 393.631499 
L 77.368042 391.350679 
L 76.811893 389.064182 
L 76.278636 386.772239 
L 75.768325 384.475078 
L 75.281011 382.172929 
L 74.816742 379.866021 
L 74.375565 377.554587 
L 73.957524 375.238856 
L 73.562661 372.919061 
L 73.191015 370.595433 
L 72.842624 368.268205 
L 72.517522 365.937609 
L 72.215741 363.603879 
L 71.937313 361.267248 
L 71.682265 358.92795 
L 71.450622 356.586218 
L 71.242407 354.242287 
L 71.057642 351.896391 
L 70.896345 349.548764 
L 70.758531 347.199642 
L 70.644215 344.849259 
L 70.553409 342.497851 
L 70.486121 340.145652 
L 70.442357 337.792898 
L 70.422123 335.439824 
L 70.42542 333.086665 
L 70.452249 330.733657 
L 70.502605 328.381035 
L 70.576485 326.029034 
L 70.673881 323.67789 
L 70.794783 321.327836 
L 70.93918 318.97911 
L 71.107055 316.631945 
L 71.298394 314.286575 
L 71.513177 311.943237 
L 71.751381 309.602163 
L 72.012985 307.263589 
L 72.29796 304.927747 
L 72.606279 302.594872 
L 72.937911 300.265197 
L 73.292823 297.938954 
L 73.670979 295.616377 
L 74.072342 293.297698 
L 74.496871 290.983147 
L 74.944524 288.672958 
L 75.415256 286.367361 
L 75.90902 284.066587 
L 76.425767 281.770864 
L 76.965445 279.480425 
L 77.528 277.195496 
L 78.113375 274.916307 
L 78.721513 272.643086 
L 79.352352 270.376059 
L 80.00583 268.115454 
L 80.68188 265.861497 
L 81.380436 263.614413 
L 82.101428 261.374427 
L 82.844783 259.141763 
L 83.610427 256.916643 
L 84.398284 254.699292 
L 85.208274 252.489929 
L 86.040317 250.288777 
L 86.89433 248.096055 
L 87.770227 245.911983 
L 88.66792 243.736779 
L 89.58732 241.57066 
L 90.528335 239.413843 
L 91.490871 237.266545 
L 92.474831 235.128979 
L 93.480118 233.001359 
L 94.50663 230.883898 
L 95.554265 228.776808 
L 96.622918 226.6803 
L 97.712482 224.594582 
L 98.822849 222.519865 
L 99.953907 220.456355 
L 101.105543 218.404258 
L 101.947111 216.93443 
L 99.88862 215.74596 
L 99.038552 217.230635 
L 97.875283 219.303459 
L 96.7328 221.387813 
L 95.611218 223.483488 
L 94.510648 225.590273 
L 93.4312 227.707958 
L 92.372983 229.836332 
L 91.336102 231.975181 
L 90.320661 234.124292 
L 89.326762 236.283449 
L 88.354504 238.452438 
L 87.403983 240.631041 
L 86.475296 242.819039 
L 85.568535 245.016215 
L 84.683791 247.222349 
L 83.821152 249.437219 
L 82.980704 251.660606 
L 82.162532 253.892285 
L 81.366717 256.132034 
L 80.59334 258.379629 
L 79.842476 260.634846 
L 79.114202 262.897458 
L 78.40859 265.16724 
L 77.72571 267.443964 
L 77.065632 269.727404 
L 76.42842 272.017329 
L 75.81414 274.313512 
L 75.222851 276.615723 
L 74.654614 278.923732 
L 74.109485 281.237308 
L 73.587519 283.556219 
L 73.088767 285.880234 
L 72.61328 288.20912 
L 72.161105 290.542644 
L 71.732288 292.880574 
L 71.326871 295.222674 
L 70.944895 297.568712 
L 70.586398 299.918452 
L 70.251416 302.271659 
L 69.939983 304.628098 
L 69.652129 306.987534 
L 69.387883 309.349731 
L 69.147273 311.714452 
L 68.930321 314.08146 
L 68.737049 316.45052 
L 68.567478 318.821394 
L 68.421623 321.193845 
L 68.299499 323.567636 
L 68.20112 325.94253 
L 68.126493 328.318288 
L 68.075628 330.694674 
L 68.048529 333.07145 
L 68.045198 335.448378 
L 68.065637 337.825221 
L 68.109842 340.20174 
L 68.17781 342.577698 
L 68.269534 344.952858 
L 68.385004 347.326982 
L 68.52421 349.699833 
L 68.687137 352.071173 
L 68.873768 354.440765 
L 69.084086 356.808372 
L 69.318069 359.173758 
L 69.575693 361.536685 
L 69.856934 363.896919 
L 70.161762 366.254222 
L 70.490148 368.608359 
L 70.842059 370.959094 
L 71.217459 373.306193 
L 71.61631 375.649421 
L 72.038574 377.988542 
L 72.484207 380.323325 
L 72.953166 382.653534 
L 73.445402 384.978938 
L 73.960868 387.299302 
L 74.499512 389.614397 
L 75.061278 391.923989 
L 75.646113 394.227848 
L 76.253956 396.525744 
L 76.884748 398.817446 
L 77.538424 401.102726 
L 78.21492 403.381355 
L 78.914169 405.653105 
L 79.636099 407.91775 
L 80.38064 410.175062 
L 81.147716 412.424816 
L 81.937251 414.666786 
L 82.749166 416.90075 
L 83.583379 419.126482 
L 84.439808 421.343762 
L 85.318366 423.552366 
L 86.218966 425.752075 
L 87.141517 427.942667 
L 88.085929 430.123925 
L 89.052105 432.29563 
L 90.039949 434.457565 
L 91.049363 436.609513 
L 92.080246 438.751259 
L 93.132494 440.88259 
L 94.206003 443.003292 
L 95.300664 445.113153 
L 96.41637 447.211963 
L 97.553007 449.29951 
L 98.710462 451.375587 
L 99.88862 453.439985 
L 101.947111 452.251515 
z
" clip-path="url(#p430584a845)" style="fill: none; stroke: #000000; stroke-width: 0.5; stroke-linejoin: miter"/>
   </g>
   <g id="patch_10">
    <path d="M 101.947111 216.93443 
L 103.133866 214.902441 
L 104.340881 212.882421 
L 105.568036 210.874572 
L 106.815208 208.879095 
L 108.082272 206.896189 
L 109.369101 204.926052 
L 110.675567 202.968883 
L 112.001539 201.024875 
L 113.346885 199.094224 
L 114.711469 197.177123 
L 116.095156 195.273764 
L 117.497807 193.384336 
L 118.919282 191.509029 
L 120.359438 189.64803 
L 121.818132 187.801526 
L 123.295218 185.9697 
L 124.790548 184.152737 
L 126.303973 182.350818 
L 127.83534 180.564123 
L 129.384498 178.79283 
L 130.951291 177.037118 
L 132.535563 175.297161 
L 134.137154 173.573133 
L 135.755906 171.865207 
L 137.391655 170.173554 
L 139.044239 168.498343 
L 140.713493 166.839741 
L 142.399248 165.197914 
L 144.101337 163.573027 
L 145.81959 161.965241 
L 147.553835 160.374718 
L 149.303897 158.801617 
L 151.069603 157.246094 
L 152.850776 155.708307 
L 154.647237 154.188407 
L 156.458807 152.686548 
L 158.285305 151.202879 
L 160.126548 149.73755 
L 161.982351 148.290705 
L 163.852531 146.862491 
L 165.736898 145.453049 
L 167.635266 144.062522 
L 169.547444 142.691047 
L 171.473241 141.338762 
L 173.412464 140.005803 
L 175.364919 138.692302 
L 177.330412 137.398391 
L 179.308745 136.124199 
L 181.299721 134.869854 
L 183.303141 133.635482 
L 185.318804 132.421204 
L 187.346509 131.227144 
L 188.079142 130.802399 
L 186.890672 128.743908 
L 186.150638 129.172944 
L 184.102452 130.379065 
L 182.066428 131.605608 
L 180.042772 132.852449 
L 178.031685 134.119464 
L 176.033369 135.406527 
L 174.048023 136.713507 
L 172.075845 138.040276 
L 170.117034 139.3867 
L 168.171785 140.752644 
L 166.240292 142.137972 
L 164.322749 143.542545 
L 162.419347 144.966223 
L 160.530277 146.408864 
L 158.655728 147.870323 
L 156.795887 149.350454 
L 154.950939 150.849109 
L 153.121071 152.366139 
L 151.306463 153.901391 
L 149.507299 155.454712 
L 147.723758 157.025946 
L 145.956018 158.614938 
L 144.204256 160.221526 
L 142.468647 161.845552 
L 140.749365 163.486853 
L 139.046582 165.145264 
L 137.360467 166.820619 
L 135.691191 168.512752 
L 134.038918 170.221493 
L 132.403816 171.94667 
L 130.786046 173.688112 
L 129.185772 175.445645 
L 127.603153 177.219092 
L 126.038347 179.008276 
L 124.491511 180.813018 
L 122.962799 182.633139 
L 121.452365 184.468455 
L 119.960359 186.318784 
L 118.48693 188.18394 
L 117.032227 190.063736 
L 115.596394 191.957986 
L 114.179575 193.866499 
L 112.781911 195.789084 
L 111.403543 197.72555 
L 110.044609 199.675702 
L 108.705243 201.639346 
L 107.38558 203.616286 
L 106.085753 205.606322 
L 104.80589 207.609258 
L 103.546121 209.624891 
L 102.30657 211.653022 
L 101.087363 213.693446 
L 99.88862 215.74596 
L 101.947111 216.93443 
z
" clip-path="url(#p430584a845)" style="fill: none; stroke: #000000; stroke-width: 0.5; stroke-linejoin: miter"/>
   </g>
   <g id="patch_11">
    <path d="M 188.079142 130.802399 
L 190.122897 129.636022 
L 192.178213 128.490141 
L 194.244885 127.364871 
L 196.322706 126.260323 
L 198.411468 125.176608 
L 200.510963 124.113834 
L 202.620981 123.072108 
L 204.74131 122.051534 
L 206.871739 121.052214 
L 209.012054 120.074248 
L 211.162042 119.117734 
L 213.321487 118.182767 
L 215.490174 117.269441 
L 217.667885 116.377847 
L 219.854403 115.508074 
L 222.04951 114.66021 
L 224.252985 113.834339 
L 226.464609 113.030543 
L 228.68416 112.248904 
L 230.911416 111.489498 
L 233.146155 110.752403 
L 235.388153 110.037692 
L 237.637186 109.345436 
L 239.893029 108.675705 
L 242.155456 108.028565 
L 244.424241 107.404081 
L 246.699158 106.802316 
L 248.979979 106.22333 
L 251.266475 105.667181 
L 253.558418 105.133924 
L 255.855579 104.623613 
L 258.157729 104.136299 
L 260.464636 103.67203 
L 262.77607 103.230853 
L 265.091801 102.812812 
L 267.411596 102.417949 
L 269.735224 102.046303 
L 272.062452 101.697912 
L 274.393048 101.37281 
L 276.726778 101.071029 
L 279.063409 100.792601 
L 281.402707 100.537553 
L 283.744439 100.30591 
L 286.08837 100.097695 
L 288.434267 99.91293 
L 290.781893 99.751633 
L 293.131015 99.613819 
L 295.481398 99.499503 
L 297.832806 99.408697 
L 300.185005 99.341408 
L 302.537759 99.297645 
L 304.890833 99.277411 
L 305.737685 99.275887 
L 305.737685 96.898947 
L 304.882279 96.900486 
L 302.505437 96.920925 
L 300.128917 96.96513 
L 297.752959 97.033098 
L 295.377799 97.124822 
L 293.003675 97.240292 
L 290.630825 97.379498 
L 288.259485 97.542424 
L 285.889893 97.729056 
L 283.522285 97.939374 
L 281.156899 98.173357 
L 278.793972 98.430981 
L 276.433738 98.712222 
L 274.076435 99.01705 
L 271.722298 99.345436 
L 269.371563 99.697347 
L 267.024464 100.072747 
L 264.681237 100.471598 
L 262.342115 100.893862 
L 260.007332 101.339495 
L 257.677123 101.808454 
L 255.35172 102.30069 
L 253.031355 102.816156 
L 250.716261 103.354799 
L 248.406668 103.916566 
L 246.102809 104.501401 
L 243.804914 105.109244 
L 241.513211 105.740035 
L 239.227931 106.393712 
L 236.949302 107.070208 
L 234.677552 107.769457 
L 232.412907 108.491387 
L 230.155595 109.235928 
L 227.905842 110.003004 
L 225.663871 110.792539 
L 223.429908 111.604453 
L 221.204175 112.438667 
L 218.986895 113.295095 
L 216.778291 114.173654 
L 214.578583 115.074254 
L 212.38799 115.996805 
L 210.206732 116.941216 
L 208.035027 117.907393 
L 205.873093 118.895237 
L 203.721144 119.904651 
L 201.579398 120.935534 
L 199.448067 121.987782 
L 197.327365 123.061291 
L 195.217504 124.155952 
L 193.118695 125.271658 
L 191.031147 126.408295 
L 188.95507 127.56575 
L 186.890672 128.743908 
L 188.079142 130.802399 
z
" clip-path="url(#p430584a845)" style="fill: none; stroke: #000000; stroke-width: 0.5; stroke-linejoin: miter"/>
   </g>
   <g id="text_1">
    <text style="font: 3px 'DejaVu Sans', 'Bitstream Vera Sans', 'Computer Modern Sans Serif', 'Lucida Grande', 'Verdana', 'Geneva', 'Lucid', 'Arial', 'Helvetica', 'Avant Garde', sans-serif; text-anchor: start" x="545.808651" y="335.732738" transform="rotate(-0 545.808651 335.732738)">University of Antananarivo</text>
   </g>
   <g id="text_2">
    <text style="font: 3px 'DejaVu Sans', 'Bitstream Vera Sans', 'Computer Modern Sans Serif', 'Lucida Grande', 'Verdana', 'Geneva', 'Lucid', 'Arial', 'Helvetica', 'Avant Garde', sans-serif; text-anchor: end" x="186.689268" y="543.070411" transform="rotate(-60 186.689268 543.070411)">Institut Pasteur de Madagascar</text>
   </g>
   <g id="text_3">
    <text style="font: 3px 'DejaVu Sans', 'Bitstream Vera Sans', 'Computer Modern Sans Serif', 'Lucida Grande', 'Verdana', 'Geneva', 'Lucid', 'Arial', 'Helvetica', 'Avant Garde', sans-serif; text-anchor: end" x="65.666719" y="335.732738" transform="rotate(-0 65.666719 335.732738)">University of Toliara</text>
   </g>
   <g id="text_4">
    <text style="font: 3px 'DejaVu Sans', 'Bitstream Vera Sans', 'Computer Modern Sans Serif', 'Lucida Grande', 'Verdana', 'Geneva', 'Lucid', 'Arial', 'Helvetica', 'Avant Garde', sans-serif; text-anchor: end" x="135.175941" y="165.643101" transform="rotate(-315 135.175941 165.643101)">Centre National de Recherches sur l'Environnement</text>
   </g>
   <g id="text_5">
    <text style="font: 3px 'DejaVu Sans', 'Bitstream Vera Sans', 'Computer Modern Sans Serif', 'Lucida Grande', 'Verdana', 'Geneva', 'Lucid', 'Arial', 'Helvetica', 'Avant Garde', sans-serif; text-anchor: end" x="242.443862" y="103.012749" transform="rotate(-285 242.443862 103.012749)">Institute Malgache De Recherches Appliques</text>
   </g>
  </g>
 </g>
 <defs>
  <clipPath id="p430584a845">
   <path d="M 555.316412 334.592973 
C 555.316412 301.818594 548.860574 269.362906 536.318362 239.083329 
C 523.776151 208.803752 505.39148 181.289147 482.216495 158.114162 
C 459.04151 134.939177 431.526906 116.554507 401.247329 104.012295 
C 370.967751 91.470083 338.512063 85.014246 305.737685 85.014246 
C 272.963307 85.014246 240.507618 91.470083 210.228041 104.012295 
C 179.948464 116.554507 152.433859 134.939177 129.258874 158.114162 
C 106.083889 181.289147 87.699219 208.803752 75.157007 239.083329 
C 62.614796 269.362906 56.158958 301.818594 56.158958 334.592973 
C 56.158958 367.367351 62.614796 399.823039 75.157007 430.102616 
C 87.699219 460.382194 106.083889 487.896798 129.258874 511.071783 
C 152.433859 534.246768 179.948464 552.631439 210.228041 565.17365 
C 240.507618 577.715862 272.963307 584.1717 305.737685 584.1717 
C 338.512063 584.1717 370.967751 577.715862 401.247329 565.17365 
C 431.526906 552.631439 459.04151 534.246768 482.216495 511.071783 
C 505.39148 487.896798 523.776151 460.382194 536.318362 430.102616 
C 548.860574 399.823039 555.316412 367.367351 555.316412 334.592973 
M 305.737685 334.592973 
C 305.737685 334.592973 305.737685 334.592973 305.737685 334.592973 
C 305.737685 334.592973 305.737685 334.592973 305.737685 334.592973 
C 305.737685 334.592973 305.737685 334.592973 305.737685 334.592973 
C 305.737685 334.592973 305.737685 334.592973 305.737685 334.592973 
C 305.737685 334.592973 305.737685 334.592973 305.737685 334.592973 
C 305.737685 334.592973 305.737685 334.592973 305.737685 334.592973 
C 305.737685 334.592973 305.737685 334.592973 305.737685 334.592973 
C 305.737685 334.592973 305.737685 334.592973 305.737685 334.592973 
C 305.737685 334.592973 305.737685 334.592973 305.737685 334.592973 
C 305.737685 334.592973 305.737685 334.592973 305.737685 334.592973 
C 305.737685 334.592973 305.737685 334.592973 305.737685 334.592973 
C 305.737685 334.592973 305.737685 334.592973 305.737685 334.592973 
C 305.737685 334.592973 305.737685 334.592973 305.737685 334.592973 
C 305.737685 334.592973 305.737685 334.592973 305.737685 334.592973 
C 305.737685 334.592973 305.737685 334.592973 305.737685 334.592973 
C 305.737685 334.592973 305.737685 334.592973 305.737685 334.592973 
z
"/>
  </clipPath>
 </defs>
</svg>
