<?xml version="1.0" encoding="utf-8" standalone="no"?>
<!DOCTYPE svg PUBLIC "-//W3C//DTD SVG 1.1//EN"
  "http://www.w3.org/Graphics/SVG/1.1/DTD/svg11.dtd">
<svg xmlns:xlink="http://www.w3.org/1999/xlink" width="627.628111pt" height="558.882094pt" viewBox="0 0 627.628111 558.882094" xmlns="http://www.w3.org/2000/svg" version="1.1">
 <metadata>
  <rdf:RDF xmlns:dc="http://purl.org/dc/elements/1.1/" xmlns:cc="http://creativecommons.org/ns#" xmlns:rdf="http://www.w3.org/1999/02/22-rdf-syntax-ns#">
   <cc:Work>
    <dc:type rdf:resource="http://purl.org/dc/dcmitype/StillImage"/>
    <dc:date>2024-11-16T03:08:57.698439</dc:date>
    <dc:format>image/svg+xml</dc:format>
    <dc:creator>
     <cc:Agent>
      <dc:title>Matplotlib v3.8.4, https://matplotlib.org/</dc:title>
     </cc:Agent>
    </dc:creator>
   </cc:Work>
  </rdf:RDF>
 </metadata>
 <defs>
  <style type="text/css">*{stroke-linejoin: round; stroke-linecap: butt}</style>
 </defs>
 <g id="figure_1">
  <g id="patch_1">
   <path d="M 0 558.882094 
L 627.628111 558.882094 
L 627.628111 0 
L 0 0 
z
" style="fill: #ffffff"/>
  </g>
  <g id="axes_1">
   <g id="patch_2">
    <path d="M 309.311946 49.910917 
L 311.607209 49.922393 
L 313.902243 49.956821 
L 316.196817 50.014198 
L 318.490703 50.094517 
L 320.783671 50.19777 
L 323.075492 50.323947 
L 325.365937 50.473036 
L 327.654776 50.645022 
L 329.941781 50.839887 
L 332.226723 51.057612 
L 334.509374 51.298175 
L 336.789504 51.561552 
L 339.066888 51.847717 
L 341.341295 52.156641 
L 343.6125 52.488293 
L 345.880275 52.84264 
L 348.144393 53.219647 
L 350.404627 53.619276 
L 352.660753 54.041487 
L 354.912543 54.486238 
L 357.159774 54.953484 
L 359.40222 55.443179 
L 361.639657 55.955273 
L 363.871861 56.489715 
L 366.098609 57.046453 
L 368.319678 57.62543 
L 370.534847 58.226588 
L 372.743894 58.849867 
L 374.946597 59.495206 
L 377.142737 60.162538 
L 379.332094 60.851799 
L 381.51445 61.562918 
L 383.689584 62.295825 
L 385.857282 63.050446 
L 388.017324 63.826706 
L 390.169497 64.624527 
L 392.313583 65.44383 
L 394.44937 66.284532 
L 396.576642 67.14655 
L 398.695189 68.029797 
L 400.804797 68.934185 
L 402.905256 69.859624 
L 404.996355 70.80602 
L 407.077887 71.77328 
L 409.149642 72.761306 
L 411.211413 73.770001 
L 413.262994 74.799262 
L 415.30418 75.848987 
L 417.334767 76.919071 
L 419.354552 78.009407 
L 421.363333 79.119887 
L 423.360909 80.250398 
L 425.347079 81.400828 
L 427.321647 82.571062 
L 429.284414 83.760983 
L 431.235183 84.970471 
L 433.17376 86.199407 
L 435.099951 87.447666 
L 437.013564 88.715125 
L 438.914406 90.001656 
L 440.802289 91.307131 
L 442.677022 92.631419 
L 444.538419 93.974388 
L 446.386293 95.335903 
L 448.22046 96.715829 
L 450.040737 98.114027 
L 451.84694 99.530358 
L 453.63889 100.96468 
L 455.416408 102.416849 
L 457.179315 103.88672 
L 458.927436 105.374147 
L 460.660595 106.87898 
L 462.37862 108.401069 
L 464.081338 109.940263 
L 465.768579 111.496406 
L 467.440175 113.069343 
L 469.095958 114.658918 
L 470.735762 116.26497 
L 472.359425 117.88734 
L 473.966783 119.525865 
L 475.557675 121.180382 
L 477.131943 122.850725 
L 478.689429 124.536726 
L 480.229978 126.238218 
L 481.753435 127.95503 
L 483.259648 129.68699 
L 484.748466 131.433926 
L 486.219741 133.195662 
L 487.673325 134.972023 
L 489.109073 136.76283 
L 490.526842 138.567905 
L 491.926489 140.387068 
L 493.307875 142.220135 
L 494.670862 144.066925 
L 496.015312 145.927252 
L 497.341093 147.80093 
L 498.648071 149.687772 
L 499.936115 151.587589 
L 501.205097 153.500192 
L 502.45489 155.425388 
L 503.685369 157.362986 
L 504.896411 159.312792 
L 506.087894 161.274611 
L 507.2597 163.248245 
L 508.411712 165.2335 
L 509.543813 167.230174 
L 510.655892 169.23807 
L 511.747836 171.256986 
L 512.819537 173.286721 
L 513.870887 175.32707 
L 514.901782 177.377831 
L 515.912117 179.438798 
L 516.901793 181.509766 
L 517.87071 183.590526 
L 518.818772 185.680872 
L 519.745883 187.780593 
L 520.65195 189.88948 
L 521.536884 192.007322 
L 522.400596 194.133908 
L 523.242998 196.269024 
L 524.064008 198.412458 
L 524.863543 200.563994 
L 525.641523 202.723418 
L 526.39787 204.890514 
L 527.132509 207.065064 
L 527.845366 209.246852 
L 528.536369 211.43566 
L 529.205451 213.631268 
L 529.852543 215.833456 
L 530.477581 218.042006 
L 531.080503 220.256695 
L 531.661249 222.477303 
L 532.219759 224.703607 
L 532.755979 226.935385 
L 533.269855 229.172414 
L 533.761335 231.414469 
L 534.230371 233.661327 
L 534.676914 235.912762 
L 535.100922 238.168551 
L 535.502351 240.428466 
L 535.88116 242.692283 
L 536.237314 244.959775 
L 536.570774 247.230715 
L 536.881509 249.504876 
L 537.169488 251.782031 
L 537.434681 254.061951 
L 537.677061 256.344409 
L 537.896606 258.629177 
L 538.093292 260.916026 
L 538.2671 263.204728 
L 538.418013 265.495053 
L 538.546015 267.786773 
L 538.651094 270.079658 
L 538.73324 272.373479 
L 538.792443 274.668007 
L 538.828699 276.963013 
L 538.842003 279.258266 
L 538.832354 281.553537 
L 538.799754 283.848598 
L 538.744205 286.143217 
L 538.665713 288.437166 
L 538.564286 290.730216 
L 538.439933 293.022137 
L 538.292668 295.312699 
L 538.122505 297.601675 
L 537.929462 299.888834 
L 537.713557 302.173949 
L 537.474811 304.45679 
L 537.21325 306.73713 
L 536.928899 309.01474 
L 536.621786 311.289393 
L 536.291942 313.560861 
L 535.939401 315.828918 
L 535.564197 318.093335 
L 535.166368 320.353887 
L 534.745954 322.610348 
L 534.302997 324.862492 
L 533.83754 327.110094 
L 533.349632 329.352929 
L 532.839319 331.590773 
L 532.306654 333.823402 
L 531.75169 336.050593 
L 531.174482 338.272123 
L 530.575088 340.48777 
L 529.953568 342.697312 
L 529.309984 344.900529 
L 528.6444 347.097199 
L 527.956884 349.287105 
L 527.247503 351.470025 
L 526.516328 353.645743 
L 525.763433 355.814041 
L 524.988894 357.974701 
L 524.192786 360.127508 
L 523.375191 362.272246 
L 522.53619 364.408701 
L 521.675867 366.53666 
L 520.794307 368.655909 
L 519.891599 370.766236 
L 518.967833 372.867432 
L 518.023102 374.959284 
L 517.057501 377.041585 
L 516.071124 379.114126 
L 515.064072 381.1767 
L 514.036445 383.2291 
L 512.988346 385.271122 
L 511.919879 387.30256 
L 510.831151 389.323213 
L 509.722272 391.332877 
L 508.593352 393.331352 
L 507.444504 395.318439 
L 506.275843 397.293938 
L 505.087486 399.257651 
L 503.879551 401.209383 
L 502.652159 403.148938 
L 501.405434 405.076123 
L 500.1395 406.990744 
L 498.854483 408.89261 
L 497.550512 410.781532 
L 496.227717 412.657319 
L 494.886231 414.519785 
L 493.526187 416.368743 
L 492.147722 418.204008 
L 490.750974 420.025397 
L 489.336082 421.832728 
L 487.903188 423.62582 
L 486.452435 425.404494 
L 484.983968 427.168571 
L 483.497934 428.917875 
L 481.994481 430.652233 
L 480.47376 432.371469 
L 478.935923 434.075412 
L 477.381124 435.763892 
L 475.809519 437.436739 
L 474.221263 439.093788 
L 472.616517 440.734871 
L 470.995441 442.359825 
L 469.358196 443.968487 
L 467.704947 445.560696 
L 466.035858 447.136294 
L 464.351098 448.695122 
L 462.650833 450.237025 
L 460.935235 451.761849 
L 459.204475 453.26944 
L 457.458725 454.759649 
L 455.698161 456.232327 
L 453.922958 457.687325 
L 452.133295 459.124499 
L 450.329349 460.543704 
L 448.511302 461.9448 
L 446.679335 463.327645 
L 444.833631 464.692102 
L 442.974376 466.038034 
L 441.101754 467.365306 
L 439.215953 468.673786 
L 437.317162 469.963343 
L 435.405571 471.233847 
L 433.48137 472.485173 
L 431.544752 473.717195 
L 429.595912 474.929788 
L 427.635043 476.122834 
L 425.662342 477.296211 
L 423.678005 478.449803 
L 421.682233 479.583494 
L 419.675223 480.697171 
L 417.657177 481.790723 
L 415.628297 482.86404 
L 413.588785 483.917014 
L 411.538846 484.949542 
L 409.478684 485.961518 
L 407.408505 486.952843 
L 405.328517 487.923417 
L 403.238928 488.873143 
L 401.139945 489.801925 
L 399.03178 490.709672 
L 396.914643 491.596292 
L 394.788746 492.461697 
L 392.654301 493.305799 
L 390.511522 494.128516 
L 388.360623 494.929764 
L 386.20182 495.709463 
L 384.035327 496.467536 
L 381.861362 497.203906 
L 379.680142 497.9185 
L 377.491886 498.611246 
L 375.296812 499.282076 
L 373.095139 499.930922 
L 370.887088 500.557719 
L 368.672879 501.162404 
L 366.452734 501.744917 
L 364.226876 502.305201 
L 361.995525 502.843198 
L 359.758907 503.358855 
L 357.517244 503.85212 
L 355.27076 504.322945 
L 353.019681 504.771281 
L 350.764231 505.197085 
L 348.504635 505.600313 
L 346.241121 505.980925 
L 343.973913 506.338884 
L 341.70324 506.674153 
L 339.429327 506.986699 
L 337.152403 507.276491 
L 334.872694 507.543499 
L 332.59043 507.787697 
L 330.305837 508.009061 
L 328.019145 508.207568 
L 325.730583 508.383199 
L 323.440379 508.535935 
L 321.148762 508.665763 
L 318.855961 508.772668 
L 316.562206 508.85664 
L 314.267725 508.91767 
L 311.97275 508.955754 
L 309.677508 508.970886 
L 309.311946 508.971177 
L 309.311946 511.289663 
L 309.6812 511.289369 
L 311.999626 511.274084 
L 314.317784 511.235616 
L 316.635441 511.173969 
L 318.952365 511.089149 
L 321.268325 510.981164 
L 323.58309 510.850025 
L 325.896428 510.695746 
L 328.208107 510.518341 
L 330.517897 510.317829 
L 332.825566 510.094229 
L 335.130883 509.847564 
L 337.433619 509.577859 
L 339.733543 509.28514 
L 342.030425 508.969437 
L 344.324034 508.630781 
L 346.614143 508.269207 
L 348.900521 507.88475 
L 351.182941 507.477449 
L 353.461173 507.047344 
L 355.734991 506.594479 
L 358.004166 506.118899 
L 360.268472 505.620651 
L 362.527683 505.099785 
L 364.781572 504.556354 
L 367.029914 503.990411 
L 369.272484 503.402014 
L 371.509059 502.79122 
L 373.739413 502.158092 
L 375.963325 501.502692 
L 378.180572 500.825087 
L 380.390932 500.125343 
L 382.594185 499.403531 
L 384.790109 498.659722 
L 386.978485 497.893993 
L 389.159095 497.106418 
L 391.33172 496.297076 
L 393.496143 495.466049 
L 395.652148 494.61342 
L 397.799519 493.739274 
L 399.938041 492.843698 
L 402.067501 491.926783 
L 404.187685 490.988618 
L 406.298382 490.029299 
L 408.39938 489.048922 
L 410.490469 488.047584 
L 412.571441 487.025385 
L 414.642087 485.982428 
L 416.7022 484.918817 
L 418.751574 483.834659 
L 420.790004 482.730061 
L 422.817286 481.605135 
L 424.833218 480.459992 
L 426.837598 479.294748 
L 428.830226 478.109518 
L 430.810901 476.904422 
L 432.779427 475.67958 
L 434.735607 474.435114 
L 436.679244 473.171148 
L 438.610144 471.88781 
L 440.528115 470.585228 
L 442.432964 469.263531 
L 444.324501 467.922852 
L 446.202537 466.563325 
L 448.066884 465.185085 
L 449.917356 463.788272 
L 451.753767 462.373024 
L 453.575935 460.939483 
L 455.383676 459.487792 
L 457.17681 458.018097 
L 458.955157 456.530544 
L 460.71854 455.025283 
L 462.466783 453.502463 
L 464.199711 451.962237 
L 465.91715 450.404759 
L 467.618928 448.830185 
L 469.304876 447.238672 
L 470.974825 445.63038 
L 472.628607 444.005469 
L 474.266058 442.364101 
L 475.887014 440.706442 
L 477.491312 439.032655 
L 479.078793 437.34291 
L 480.649297 435.637375 
L 482.202667 433.91622 
L 483.738749 432.179618 
L 485.257388 430.427742 
L 486.758433 428.660768 
L 488.241733 426.878872 
L 489.70714 425.082232 
L 491.154508 423.271028 
L 492.583692 421.445441 
L 493.994548 419.605654 
L 495.386937 417.751851 
L 496.760718 415.884216 
L 498.115755 414.002938 
L 499.451911 412.108203 
L 500.769054 410.200202 
L 502.067051 408.279125 
L 503.345772 406.345164 
L 504.605091 404.398513 
L 505.84488 402.439366 
L 507.065016 400.46792 
L 508.265377 398.484371 
L 509.445843 396.488918 
L 510.606296 394.48176 
L 511.746619 392.463098 
L 512.866699 390.433134 
L 513.966424 388.39207 
L 515.045683 386.340112 
L 516.104369 384.277464 
L 517.142377 382.204333 
L 518.159601 380.120925 
L 519.155941 378.027449 
L 520.131296 375.924115 
L 521.08557 373.811133 
L 522.018666 371.688713 
L 522.930492 369.557069 
L 523.820957 367.416413 
L 524.68997 365.26696 
L 525.537446 363.108925 
L 526.3633 360.942522 
L 527.167449 358.76797 
L 527.949812 356.585485 
L 528.710312 354.395286 
L 529.448872 352.197591 
L 530.165418 349.99262 
L 530.85988 347.780595 
L 531.532187 345.561736 
L 532.182271 343.336264 
L 532.81007 341.104403 
L 533.415518 338.866376 
L 533.998556 336.622407 
L 534.559126 334.372719 
L 535.097171 332.117538 
L 535.612638 329.85709 
L 536.105476 327.5916 
L 536.575633 325.321295 
L 537.023065 323.046402 
L 537.447726 320.767148 
L 537.849573 318.483762 
L 538.228567 316.196472 
L 538.58467 313.905506 
L 538.917845 311.611094 
L 539.22806 309.313465 
L 539.515283 307.012848 
L 539.779487 304.709475 
L 540.020644 302.403574 
L 540.23873 300.095378 
L 540.433723 297.785115 
L 540.605605 295.473019 
L 540.754357 293.159319 
L 540.879966 290.844248 
L 540.982418 288.528036 
L 541.061703 286.210916 
L 541.117813 283.893118 
L 541.150742 281.574876 
L 541.160489 279.25642 
L 541.14705 276.937982 
L 541.110428 274.619795 
L 541.050627 272.30209 
L 540.967651 269.985098 
L 540.861511 267.669053 
L 540.732215 265.354184 
L 540.579778 263.040725 
L 540.404214 260.728905 
L 540.205542 258.418956 
L 539.98378 256.11111 
L 539.738951 253.805596 
L 539.471079 251.502647 
L 539.180192 249.202491 
L 538.866318 246.905358 
L 538.529489 244.61148 
L 538.169738 242.321084 
L 537.787102 240.0344 
L 537.381619 237.751657 
L 536.953328 235.473083 
L 536.502274 233.198905 
L 536.028501 230.929352 
L 535.532056 228.66465 
L 535.01299 226.405025 
L 534.471353 224.150704 
L 533.907201 221.901912 
L 533.32059 219.658874 
L 532.711578 217.421814 
L 532.080226 215.190956 
L 531.426597 212.966522 
L 530.750758 210.748737 
L 530.052774 208.53782 
L 529.332717 206.333994 
L 528.590657 204.137478 
L 527.82667 201.948492 
L 527.040832 199.767256 
L 526.233221 197.593987 
L 525.403918 195.428903 
L 524.553006 193.27222 
L 523.68057 191.124154 
L 522.786698 188.984919 
L 521.871478 186.85473 
L 520.935002 184.733799 
L 519.977365 182.622339 
L 518.99866 180.520561 
L 517.998988 178.428675 
L 516.978447 176.34689 
L 515.937139 174.275414 
L 514.875169 172.214455 
L 513.792643 170.164218 
L 512.689669 168.124909 
L 511.566357 166.096731 
L 510.42282 164.079888 
L 509.259173 162.074581 
L 508.07553 160.08101 
L 506.872012 158.099375 
L 505.648737 156.129875 
L 504.405829 154.172705 
L 503.143412 152.228062 
L 501.861612 150.29614 
L 500.560557 148.377133 
L 499.240377 146.471232 
L 497.901205 144.578628 
L 496.543174 142.699509 
L 495.16642 140.834065 
L 493.771081 138.982482 
L 492.357295 137.144944 
L 490.925206 135.321636 
L 489.474955 133.51274 
L 488.006688 131.718436 
L 486.520552 129.938904 
L 485.016695 128.174323 
L 483.495268 126.424868 
L 481.956423 124.690714 
L 480.400313 122.972036 
L 478.827095 121.269004 
L 477.236925 119.581789 
L 475.629963 117.910561 
L 474.006369 116.255485 
L 472.366306 114.616727 
L 470.709938 112.994452 
L 469.03743 111.388821 
L 467.348949 109.799995 
L 465.644665 108.228134 
L 463.924748 106.673393 
L 462.18937 105.135929 
L 460.438704 103.615895 
L 458.672925 102.113444 
L 456.892211 100.628726 
L 455.096738 99.161888 
L 453.286688 97.713078 
L 451.46224 96.282441 
L 449.623577 94.87012 
L 447.770883 93.476255 
L 445.904343 92.100987 
L 444.024144 90.744453 
L 442.130474 89.406788 
L 440.223522 88.088127 
L 438.303479 86.7886 
L 436.370537 85.508339 
L 434.42489 84.247471 
L 432.466731 83.006122 
L 430.496257 81.784416 
L 428.513664 80.582476 
L 426.519152 79.400422 
L 424.512918 78.238371 
L 422.495165 77.096441 
L 420.466094 75.974744 
L 418.425907 74.873395 
L 416.374809 73.792502 
L 414.313004 72.732173 
L 412.2407 71.692515 
L 410.158103 70.673632 
L 408.065421 69.675626 
L 405.962865 68.698596 
L 403.850643 67.74264 
L 401.728967 66.807853 
L 399.59805 65.89433 
L 397.458104 65.002161 
L 395.309343 64.131436 
L 393.151983 63.282242 
L 390.986239 62.454664 
L 388.812328 61.648783 
L 386.630467 60.864682 
L 384.440874 60.102439 
L 382.243768 59.362129 
L 380.039369 58.643827 
L 377.827897 57.947604 
L 375.609574 57.27353 
L 373.384621 56.621674 
L 371.15326 55.992098 
L 368.915716 55.384868 
L 366.672212 54.800043 
L 364.422971 54.237682 
L 362.168219 53.697841 
L 359.908182 53.180574 
L 357.643085 52.685933 
L 355.373155 52.213967 
L 353.098619 51.764724 
L 350.819705 51.338248 
L 348.536639 50.934583 
L 346.249652 50.553767 
L 343.95897 50.195841 
L 341.664824 49.860839 
L 339.367443 49.548794 
L 337.067056 49.259739 
L 334.763893 48.993701 
L 332.458185 48.750708 
L 330.150163 48.530784 
L 327.840057 48.333951 
L 325.528098 48.160228 
L 323.214518 48.009633 
L 320.899547 47.882181 
L 318.583418 47.777885 
L 316.266361 47.696755 
L 313.948609 47.638799 
L 311.630394 47.604023 
L 309.311946 47.592431 
z
" clip-path="url(#pb4cce4d9f6)" style="fill: #000080"/>
   </g>
   <g id="patch_3">
    <path d="M 309.311946 508.971177 
L 307.016683 508.9597 
L 304.721649 508.925272 
L 302.427075 508.867896 
L 300.133189 508.787577 
L 297.840221 508.684324 
L 295.5484 508.558146 
L 293.257955 508.409058 
L 290.969116 508.237072 
L 288.682111 508.042207 
L 286.397169 507.824482 
L 284.114518 507.583919 
L 281.834387 507.320542 
L 279.557004 507.034377 
L 277.282597 506.725453 
L 275.011392 506.393801 
L 272.743617 506.039453 
L 270.479499 505.662446 
L 268.219265 505.262817 
L 265.963139 504.840607 
L 263.711349 504.395856 
L 261.464118 503.92861 
L 259.221672 503.438915 
L 256.984235 502.926821 
L 254.752031 502.392378 
L 252.525283 501.835641 
L 250.304214 501.256664 
L 248.089045 500.655506 
L 245.879998 500.032226 
L 243.677295 499.386888 
L 241.481155 498.719555 
L 239.291798 498.030295 
L 237.109442 497.319176 
L 234.934308 496.586269 
L 232.76661 495.831648 
L 230.606568 495.055388 
L 228.454395 494.257566 
L 226.310309 493.438264 
L 224.174522 492.597561 
L 222.04725 491.735544 
L 219.928703 490.852296 
L 217.819095 489.947908 
L 215.718636 489.02247 
L 213.627537 488.076073 
L 211.546005 487.108814 
L 209.47425 486.120787 
L 207.412479 485.112093 
L 205.360898 484.082832 
L 203.319712 483.033107 
L 201.289125 481.963023 
L 199.26934 480.872686 
L 197.260559 479.762207 
L 195.262983 478.631696 
L 193.276813 477.481266 
L 191.302245 476.311032 
L 189.339478 475.121111 
L 187.388709 473.911623 
L 185.450132 472.682687 
L 183.523941 471.434428 
L 181.610328 470.166969 
L 179.709486 468.880438 
L 177.821603 467.574963 
L 175.94687 466.250675 
L 174.085473 464.907706 
L 172.237599 463.54619 
L 170.403432 462.166265 
L 168.583155 460.768066 
L 166.776952 459.351736 
L 164.985001 457.917414 
L 163.207484 456.465245 
L 161.444577 454.995373 
L 159.696456 453.507947 
L 157.963297 452.003114 
L 156.245272 450.481024 
L 154.542554 448.941831 
L 152.855313 447.385688 
L 151.183717 445.812751 
L 149.527934 444.223176 
L 147.88813 442.617124 
L 146.264467 440.994754 
L 144.657109 439.356228 
L 143.066217 437.701712 
L 141.491949 436.031369 
L 139.934463 434.345368 
L 138.393914 432.643876 
L 136.870457 430.927064 
L 135.364244 429.195104 
L 133.875426 427.448168 
L 132.404151 425.686432 
L 130.950567 423.910071 
L 129.514819 422.119264 
L 128.09705 420.314188 
L 126.697403 418.495026 
L 125.316017 416.661958 
L 123.95303 414.815169 
L 122.608579 412.954842 
L 121.282799 411.081164 
L 119.975821 409.194322 
L 118.687777 407.294504 
L 117.418795 405.381902 
L 116.169002 403.456705 
L 114.938523 401.519107 
L 113.727481 399.569302 
L 112.535998 397.607483 
L 111.364192 395.633848 
L 110.21218 393.648594 
L 109.080079 391.651919 
L 107.968 389.644024 
L 106.876056 387.625108 
L 105.804355 385.595373 
L 104.753005 383.555024 
L 103.72211 381.504263 
L 102.711775 379.443295 
L 101.722099 377.372328 
L 100.753182 375.291568 
L 99.80512 373.201222 
L 98.878009 371.101501 
L 97.971942 368.992614 
L 97.087008 366.874771 
L 96.223296 364.748186 
L 95.380893 362.613069 
L 94.559884 360.469636 
L 93.760349 358.3181 
L 92.982369 356.158676 
L 92.226022 353.99158 
L 91.491383 351.81703 
L 90.778526 349.635242 
L 90.087523 347.446434 
L 89.418441 345.250826 
L 88.771349 343.048637 
L 88.146311 340.840088 
L 87.543389 338.625398 
L 86.962643 336.404791 
L 86.404133 334.178486 
L 85.867913 331.946709 
L 85.354037 329.70968 
L 84.862557 327.467625 
L 84.393521 325.220767 
L 83.946978 322.969332 
L 83.52297 320.713543 
L 83.121541 318.453627 
L 82.742732 316.18981 
L 82.386578 313.922318 
L 82.053118 311.651379 
L 81.742383 309.377218 
L 81.454404 307.100063 
L 81.189211 304.820143 
L 80.946831 302.537685 
L 80.727286 300.252917 
L 80.5306 297.966068 
L 80.356792 295.677366 
L 80.205879 293.387041 
L 80.077877 291.095321 
L 79.972798 288.802436 
L 79.890652 286.508614 
L 79.831449 284.214086 
L 79.795193 281.919081 
L 79.781889 279.623828 
L 79.791537 277.328556 
L 79.824138 275.033496 
L 79.879687 272.738877 
L 79.958179 270.444927 
L 80.059606 268.151878 
L 80.183959 265.859957 
L 80.331224 263.569394 
L 80.501386 261.280419 
L 80.69443 258.99326 
L 80.910335 256.708145 
L 81.149081 254.425303 
L 81.410642 252.144964 
L 81.694993 249.867353 
L 82.002106 247.5927 
L 82.33195 245.321232 
L 82.684491 243.053176 
L 83.059695 240.788759 
L 83.457524 238.528207 
L 83.877938 236.271746 
L 84.320895 234.019602 
L 84.786352 231.772 
L 85.27426 229.529165 
L 85.784573 227.291321 
L 86.317238 225.058692 
L 86.872202 222.831501 
L 87.44941 220.609971 
L 88.048804 218.394324 
L 88.670324 216.184782 
L 89.313908 213.981565 
L 89.979492 211.784894 
L 90.667008 209.594989 
L 91.376389 207.412068 
L 92.107564 205.236351 
L 92.860459 203.068053 
L 93.634998 200.907393 
L 94.431106 198.754586 
L 95.248701 196.609848 
L 96.087702 194.473393 
L 96.948025 192.345434 
L 97.829585 190.226185 
L 98.732293 188.115857 
L 99.656058 186.014662 
L 100.600789 183.922809 
L 101.566391 181.840509 
L 102.552768 179.767968 
L 103.55982 177.705394 
L 104.587447 175.652994 
L 105.635546 173.610972 
L 106.704013 171.579534 
L 107.792741 169.558881 
L 108.90162 167.549217 
L 110.03054 165.550741 
L 111.179388 163.563655 
L 112.348049 161.588156 
L 113.536406 159.624443 
L 114.744341 157.672711 
L 115.971733 155.733155 
L 117.218458 153.805971 
L 118.484392 151.89135 
L 119.769409 149.989483 
L 121.07338 148.100562 
L 122.396175 146.224775 
L 123.737661 144.362309 
L 125.097705 142.513351 
L 126.47617 140.678086 
L 127.872918 138.856696 
L 129.28781 137.049365 
L 130.720704 135.256274 
L 132.171457 133.4776 
L 133.639924 131.713523 
L 135.125958 129.964218 
L 136.629411 128.229861 
L 138.150132 126.510625 
L 139.687969 124.806682 
L 141.242768 123.118202 
L 142.814373 121.445354 
L 144.402629 119.788306 
L 146.007375 118.147223 
L 147.628451 116.522269 
L 149.265696 114.913607 
L 150.918945 113.321398 
L 152.588034 111.7458 
L 154.272794 110.186972 
L 155.973059 108.645069 
L 157.688657 107.120245 
L 159.419417 105.612653 
L 161.165167 104.122444 
L 162.925731 102.649767 
L 164.700934 101.194769 
L 166.490597 99.757595 
L 168.294543 98.338389 
L 170.11259 96.937294 
L 171.944557 95.554449 
L 173.790261 94.189992 
L 175.649516 92.84406 
L 177.522138 91.516788 
L 179.407939 90.208308 
L 181.30673 88.918751 
L 183.218321 87.648246 
L 185.142522 86.396921 
L 187.079139 85.164899 
L 189.02798 83.952305 
L 190.988849 82.75926 
L 192.96155 81.585883 
L 194.945886 80.432291 
L 196.941659 79.2986 
L 198.948669 78.184923 
L 200.966715 77.091371 
L 202.995595 76.018054 
L 205.035107 74.965079 
L 207.085046 73.932552 
L 209.145208 72.920575 
L 211.215387 71.929251 
L 213.295375 70.958677 
L 215.384964 70.008951 
L 217.483947 69.080169 
L 219.592112 68.172422 
L 221.709249 67.285802 
L 223.835146 66.420397 
L 225.969591 65.576294 
L 228.11237 64.753578 
L 230.263269 63.95233 
L 232.422072 63.172631 
L 234.588565 62.414558 
L 236.76253 61.678188 
L 238.94375 60.963594 
L 241.132006 60.270847 
L 243.32708 59.600018 
L 245.528753 58.951172 
L 247.736804 58.324375 
L 249.951013 57.71969 
L 252.171158 57.137176 
L 254.397016 56.576893 
L 256.628366 56.038896 
L 258.864985 55.523239 
L 261.106648 55.029974 
L 263.353132 54.559149 
L 265.604211 54.110813 
L 267.859661 53.685009 
L 270.119257 53.281781 
L 272.382771 52.901168 
L 274.649979 52.54321 
L 276.920652 52.207941 
L 279.194565 51.895395 
L 281.471489 51.605603 
L 283.751198 51.338595 
L 286.033462 51.094396 
L 288.318055 50.873033 
L 290.604747 50.674526 
L 292.893309 50.498895 
L 295.183513 50.346158 
L 297.47513 50.216331 
L 299.767931 50.109426 
L 302.061686 50.025454 
L 304.356167 49.964423 
L 306.651142 49.92634 
L 308.946384 49.911208 
L 309.311946 49.910917 
L 309.311946 47.592431 
L 308.942692 47.592725 
L 306.624265 47.60801 
L 304.306108 47.646478 
L 301.988451 47.708125 
L 299.671527 47.792945 
L 297.355567 47.90093 
L 295.040802 48.032069 
L 292.727464 48.186348 
L 290.415785 48.363753 
L 288.105995 48.564265 
L 285.798326 48.787865 
L 283.493009 49.03453 
L 281.190273 49.304235 
L 278.890349 49.596954 
L 276.593467 49.912657 
L 274.299858 50.251312 
L 272.009749 50.612887 
L 269.723371 50.997344 
L 267.440951 51.404645 
L 265.162719 51.83475 
L 262.888901 52.287615 
L 260.619726 52.763195 
L 258.35542 53.261443 
L 256.096209 53.782309 
L 253.84232 54.32574 
L 251.593978 54.891683 
L 249.351408 55.48008 
L 247.114833 56.090873 
L 244.884479 56.724002 
L 242.660567 57.379401 
L 240.44332 58.057007 
L 238.23296 58.756751 
L 236.029707 59.478563 
L 233.833783 60.222371 
L 231.645407 60.988101 
L 229.464797 61.775676 
L 227.292172 62.585018 
L 225.127749 63.416044 
L 222.971744 64.268673 
L 220.824373 65.14282 
L 218.685851 66.038395 
L 216.556391 66.955311 
L 214.436207 67.893476 
L 212.32551 68.852794 
L 210.224512 69.833172 
L 208.133423 70.83451 
L 206.052451 71.856709 
L 203.981805 72.899666 
L 201.921692 73.963276 
L 199.872318 75.047435 
L 197.833888 76.152032 
L 195.806606 77.276959 
L 193.790674 78.422101 
L 191.786294 79.587346 
L 189.793666 80.772575 
L 187.812991 81.977671 
L 185.844465 83.202514 
L 183.888285 84.44698 
L 181.944648 85.710945 
L 180.013748 86.994283 
L 178.095777 88.296866 
L 176.190928 89.618563 
L 174.299391 90.959242 
L 172.421355 92.318769 
L 170.557008 93.697008 
L 168.706536 95.093822 
L 166.870125 96.50907 
L 165.047957 97.942611 
L 163.240216 99.394301 
L 161.447082 100.863997 
L 159.668735 102.351549 
L 157.905351 103.856811 
L 156.157109 105.379631 
L 154.424181 106.919857 
L 152.706742 108.477334 
L 151.004964 110.051908 
L 149.319016 111.643421 
L 147.649067 113.251714 
L 145.995285 114.876625 
L 144.357834 116.517993 
L 142.736878 118.175652 
L 141.13258 119.849438 
L 139.545099 121.539184 
L 137.974595 123.244719 
L 136.421225 124.965873 
L 134.885143 126.702476 
L 133.366504 128.454351 
L 131.865459 130.221326 
L 130.382159 132.003222 
L 128.916752 133.799862 
L 127.469384 135.611066 
L 126.0402 137.436652 
L 124.629344 139.276439 
L 123.236955 141.130243 
L 121.863174 142.997877 
L 120.508137 144.879156 
L 119.171981 146.773891 
L 117.854838 148.681892 
L 116.556841 150.602969 
L 115.27812 152.53693 
L 114.018801 154.483581 
L 112.779012 156.442727 
L 111.558876 158.414174 
L 110.358515 160.397723 
L 109.178049 162.393176 
L 108.017596 164.400334 
L 106.877273 166.418996 
L 105.757193 168.44896 
L 104.657468 170.490023 
L 103.578209 172.541981 
L 102.519523 174.604629 
L 101.481515 176.677761 
L 100.464291 178.761169 
L 99.467951 180.854644 
L 98.492596 182.957979 
L 97.538322 185.070961 
L 96.605226 187.193381 
L 95.6934 189.325025 
L 94.802935 191.46568 
L 93.933922 193.615133 
L 93.086446 195.773169 
L 92.260592 197.939571 
L 91.456443 200.114124 
L 90.67408 202.296609 
L 89.91358 204.486808 
L 89.17502 206.684503 
L 88.458474 208.889473 
L 87.764012 211.101499 
L 87.091705 213.320358 
L 86.441621 215.54583 
L 85.813822 217.77769 
L 85.208374 220.015718 
L 84.625336 222.259687 
L 84.064766 224.509375 
L 83.52672 226.764556 
L 83.011254 229.025004 
L 82.518416 231.290494 
L 82.048259 233.560799 
L 81.600827 235.835692 
L 81.176166 238.114946 
L 80.774319 240.398332 
L 80.395325 242.685622 
L 80.039222 244.976588 
L 79.706047 247.271 
L 79.395832 249.568629 
L 79.108609 251.869246 
L 78.844405 254.172619 
L 78.603248 256.47852 
L 78.385162 258.786716 
L 78.190169 261.096978 
L 78.018287 263.409075 
L 77.869535 265.722774 
L 77.743926 268.037846 
L 77.641474 270.354058 
L 77.562189 272.671178 
L 77.506079 274.988975 
L 77.47315 277.307218 
L 77.463403 279.625674 
L 77.476842 281.944112 
L 77.513464 284.262299 
L 77.573265 286.580004 
L 77.656241 288.896995 
L 77.762381 291.213041 
L 77.891677 293.527909 
L 78.044114 295.841369 
L 78.219678 298.153189 
L 78.41835 300.463138 
L 78.640112 302.770984 
L 78.884941 305.076497 
L 79.152813 307.379447 
L 79.4437 309.679603 
L 79.757574 311.976735 
L 80.094403 314.270614 
L 80.454154 316.56101 
L 80.83679 318.847694 
L 81.242273 321.130437 
L 81.670564 323.409011 
L 82.121618 325.683189 
L 82.595391 327.952742 
L 83.091836 330.217444 
L 83.610902 332.477069 
L 84.152539 334.73139 
L 84.716691 336.980182 
L 85.303302 339.22322 
L 85.912314 341.46028 
L 86.543666 343.691138 
L 87.197295 345.915571 
L 87.873134 348.133357 
L 88.571118 350.344274 
L 89.291175 352.5481 
L 90.033235 354.744616 
L 90.797222 356.933601 
L 91.58306 359.114838 
L 92.390671 361.288106 
L 93.219974 363.453191 
L 94.070886 365.609874 
L 94.943322 367.75794 
L 95.837194 369.897175 
L 96.752414 372.027364 
L 97.68889 374.148295 
L 98.646527 376.259755 
L 99.625232 378.361533 
L 100.624904 380.453419 
L 101.645445 382.535204 
L 102.686753 384.60668 
L 103.748723 386.667639 
L 104.831249 388.717876 
L 105.934223 390.757185 
L 107.057535 392.785362 
L 108.201072 394.802206 
L 109.364719 396.807513 
L 110.548362 398.801084 
L 111.75188 400.782718 
L 112.975155 402.752219 
L 114.218063 404.709389 
L 115.48048 406.654032 
L 116.76228 408.585953 
L 118.063335 410.504961 
L 119.383515 412.410862 
L 120.722687 414.303466 
L 122.080718 416.182584 
L 123.457472 418.048028 
L 124.852811 419.899612 
L 126.266597 421.73715 
L 127.698686 423.560458 
L 129.148937 425.369354 
L 130.617204 427.163658 
L 132.10334 428.943189 
L 133.607197 430.707771 
L 135.128624 432.457226 
L 136.667469 434.191379 
L 138.223579 435.910058 
L 139.796797 437.61309 
L 141.386967 439.300304 
L 142.993929 440.971533 
L 144.617523 442.626609 
L 146.257586 444.265367 
L 147.913954 445.887642 
L 149.586462 447.493273 
L 151.274943 449.082099 
L 152.979227 450.65396 
L 154.699144 452.208701 
L 156.434522 453.746165 
L 158.185188 455.266198 
L 159.950967 456.76865 
L 161.731681 458.253368 
L 163.527154 459.720206 
L 165.337204 461.169015 
L 167.161652 462.599652 
L 169.000315 464.011974 
L 170.853009 465.405838 
L 172.719549 466.781106 
L 174.599748 468.137641 
L 176.493418 469.475305 
L 178.40037 470.793967 
L 180.320413 472.093493 
L 182.253355 473.373755 
L 184.199002 474.634623 
L 186.157161 475.875972 
L 188.127635 477.097677 
L 190.110228 478.299618 
L 192.10474 479.481672 
L 194.110974 480.643723 
L 196.128727 481.785653 
L 198.157798 482.907349 
L 200.197985 484.008699 
L 202.249083 485.089592 
L 204.310887 486.149921 
L 206.383192 487.189578 
L 208.465789 488.208461 
L 210.55847 489.206468 
L 212.661027 490.183498 
L 214.773249 491.139454 
L 216.894925 492.07424 
L 219.025842 492.987764 
L 221.165788 493.879932 
L 223.314548 494.750657 
L 225.471909 495.599852 
L 227.637653 496.42743 
L 229.811564 497.23331 
L 231.993425 498.017411 
L 234.183018 498.779655 
L 236.380124 499.519965 
L 238.584523 500.238267 
L 240.795995 500.93449 
L 243.014318 501.608563 
L 245.239271 502.26042 
L 247.470632 502.889995 
L 249.708176 503.497226 
L 251.95168 504.082051 
L 254.200921 504.644412 
L 256.455673 505.184253 
L 258.71571 505.70152 
L 260.980807 506.196161 
L 263.250737 506.668127 
L 265.525273 507.11737 
L 267.804187 507.543845 
L 270.087252 507.947511 
L 272.37424 508.328326 
L 274.664922 508.686253 
L 276.959068 509.021255 
L 279.256449 509.3333 
L 281.556836 509.622355 
L 283.859999 509.888393 
L 286.165706 510.131386 
L 288.473729 510.35131 
L 290.783835 510.548143 
L 293.095794 510.721866 
L 295.409374 510.872461 
L 297.724345 510.999913 
L 300.040474 511.104209 
L 302.357531 511.185339 
L 304.675283 511.243295 
L 306.993498 511.278071 
L 309.311946 511.289663 
z
" clip-path="url(#pb4cce4d9f6)" style="fill: #800000"/>
   </g>
   <g id="PatchCollection_1">
    <defs>
     <path id="m74acde04b2" d="M 309.311946 -508.971177 
L 309.311946 -508.971177 
L 311.607209 -508.9597 
L 313.902243 -508.925272 
L 316.196817 -508.867896 
L 318.490703 -508.787577 
L 320.783671 -508.684324 
L 323.075492 -508.558146 
L 325.365937 -508.409058 
L 327.654776 -508.237072 
L 329.941781 -508.042207 
L 332.226723 -507.824482 
L 334.509374 -507.583919 
L 336.789504 -507.320542 
L 339.066888 -507.034377 
L 341.341295 -506.725453 
L 343.6125 -506.393801 
L 345.880275 -506.039453 
L 348.144393 -505.662446 
L 350.404627 -505.262817 
L 352.660753 -504.840607 
L 354.912543 -504.395856 
L 357.159774 -503.92861 
L 359.40222 -503.438915 
L 361.639657 -502.926821 
L 363.871861 -502.392378 
L 366.098609 -501.835641 
L 368.319678 -501.256664 
L 370.534847 -500.655506 
L 372.743894 -500.032226 
L 374.946597 -499.386888 
L 377.142737 -498.719555 
L 379.332094 -498.030295 
L 381.51445 -497.319176 
L 383.689584 -496.586269 
L 385.857282 -495.831648 
L 388.017324 -495.055388 
L 390.169497 -494.257566 
L 392.313583 -493.438264 
L 394.44937 -492.597561 
L 396.576642 -491.735544 
L 398.695189 -490.852296 
L 400.804797 -489.947908 
L 402.905256 -489.02247 
L 404.996355 -488.076073 
L 407.077887 -487.108814 
L 409.149642 -486.120787 
L 411.211413 -485.112093 
L 413.262994 -484.082832 
L 415.30418 -483.033107 
L 417.334767 -481.963023 
L 419.354552 -480.872686 
L 421.363333 -479.762207 
L 423.360909 -478.631696 
L 425.347079 -477.481266 
L 427.321647 -476.311032 
L 429.284414 -475.121111 
L 431.235183 -473.911623 
L 433.17376 -472.682687 
L 435.099951 -471.434428 
L 437.013564 -470.166969 
L 438.914406 -468.880438 
L 440.802289 -467.574963 
L 442.677022 -466.250675 
L 444.538419 -464.907706 
L 446.386293 -463.54619 
L 448.22046 -462.166265 
L 450.040737 -460.768066 
L 451.84694 -459.351736 
L 453.63889 -457.917414 
L 455.416408 -456.465245 
L 457.179315 -454.995373 
L 458.927436 -453.507947 
L 460.660595 -452.003114 
L 462.37862 -450.481024 
L 464.081338 -448.941831 
L 465.768579 -447.385688 
L 467.440175 -445.812751 
L 469.095958 -444.223176 
L 470.735762 -442.617124 
L 472.359425 -440.994754 
L 473.966783 -439.356228 
L 475.557675 -437.701712 
L 477.131943 -436.031369 
L 478.689429 -434.345368 
L 480.229978 -432.643876 
L 481.753435 -430.927064 
L 483.259648 -429.195104 
L 484.748466 -427.448168 
L 486.219741 -425.686432 
L 487.673325 -423.910071 
L 489.109073 -422.119264 
L 490.526842 -420.314188 
L 491.926489 -418.495026 
L 493.307875 -416.661958 
L 494.670862 -414.815169 
L 496.015312 -412.954842 
L 497.341093 -411.081164 
L 498.648071 -409.194322 
L 499.936115 -407.294504 
L 501.205097 -405.381902 
L 502.45489 -403.456705 
L 503.685369 -401.519107 
L 504.896411 -399.569302 
L 506.087894 -397.607483 
L 507.2597 -395.633848 
L 508.411712 -393.648594 
L 509.543813 -391.651919 
L 510.655892 -389.644024 
L 511.747836 -387.625108 
L 512.819537 -385.595373 
L 513.870887 -383.555024 
L 514.901782 -381.504263 
L 515.912117 -379.443295 
L 516.901793 -377.372328 
L 517.87071 -375.291568 
L 518.818772 -373.201222 
L 519.745883 -371.101501 
L 520.65195 -368.992614 
L 521.536884 -366.874771 
L 522.400596 -364.748186 
L 523.242998 -362.613069 
L 524.064008 -360.469636 
L 524.863543 -358.3181 
L 525.641523 -356.158676 
L 526.39787 -353.99158 
L 527.132509 -351.81703 
L 527.845366 -349.635242 
L 528.536369 -347.446434 
L 529.205451 -345.250826 
L 529.852543 -343.048637 
L 530.477581 -340.840088 
L 531.080503 -338.625398 
L 531.661249 -336.404791 
L 532.219759 -334.178486 
L 532.755979 -331.946709 
L 533.269855 -329.70968 
L 533.761335 -327.467625 
L 534.230371 -325.220767 
L 534.676914 -322.969332 
L 535.100922 -320.713543 
L 535.502351 -318.453627 
L 535.88116 -316.18981 
L 536.237314 -313.922318 
L 536.570774 -311.651379 
L 536.881509 -309.377218 
L 537.169488 -307.100063 
L 537.434681 -304.820143 
L 537.677061 -302.537685 
L 537.896606 -300.252917 
L 538.093292 -297.966068 
L 538.2671 -295.677366 
L 538.418013 -293.387041 
L 538.546015 -291.095321 
L 538.651094 -288.802436 
L 538.73324 -286.508614 
L 538.792443 -284.214086 
L 538.828699 -281.919081 
L 538.842003 -279.623828 
L 538.832354 -277.328556 
L 538.799754 -275.033496 
L 538.744205 -272.738877 
L 538.665713 -270.444927 
L 538.564286 -268.151878 
L 538.439933 -265.859957 
L 538.292668 -263.569394 
L 538.122505 -261.280419 
L 537.929462 -258.99326 
L 537.713557 -256.708145 
L 537.474811 -254.425303 
L 537.21325 -252.144964 
L 536.928899 -249.867353 
L 536.621786 -247.5927 
L 536.291942 -245.321232 
L 535.939401 -243.053176 
L 535.564197 -240.788759 
L 535.166368 -238.528207 
L 534.745954 -236.271746 
L 534.302997 -234.019602 
L 533.83754 -231.772 
L 533.349632 -229.529165 
L 532.839319 -227.291321 
L 532.306654 -225.058692 
L 531.75169 -222.831501 
L 531.174482 -220.609971 
L 530.575088 -218.394324 
L 529.953568 -216.184782 
L 529.309984 -213.981565 
L 528.6444 -211.784894 
L 527.956884 -209.594989 
L 527.247503 -207.412068 
L 526.516328 -205.236351 
L 525.763433 -203.068053 
L 524.988894 -200.907393 
L 524.192786 -198.754586 
L 523.375191 -196.609848 
L 522.53619 -194.473393 
L 521.675867 -192.345434 
L 520.794307 -190.226185 
L 519.891599 -188.115857 
L 518.967833 -186.014662 
L 518.023102 -183.922809 
L 517.057501 -181.840509 
L 516.071124 -179.767968 
L 515.064072 -177.705394 
L 514.036445 -175.652994 
L 512.988346 -173.610972 
L 511.919879 -171.579534 
L 510.831151 -169.558881 
L 509.722272 -167.549217 
L 508.593352 -165.550741 
L 507.444504 -163.563655 
L 506.275843 -161.588156 
L 505.087486 -159.624443 
L 503.879551 -157.672711 
L 502.652159 -155.733155 
L 501.405434 -153.805971 
L 500.1395 -151.89135 
L 498.854483 -149.989483 
L 497.550512 -148.100562 
L 496.227717 -146.224775 
L 494.886231 -144.362309 
L 493.526187 -142.513351 
L 492.147722 -140.678086 
L 490.750974 -138.856696 
L 489.336082 -137.049365 
L 487.903188 -135.256274 
L 486.452435 -133.4776 
L 484.983968 -131.713523 
L 483.497934 -129.964218 
L 481.994481 -128.229861 
L 480.47376 -126.510625 
L 478.935923 -124.806682 
L 477.381124 -123.118202 
L 475.809519 -121.445354 
L 474.221263 -119.788306 
L 472.616517 -118.147223 
L 470.995441 -116.522269 
L 469.358196 -114.913607 
L 467.704947 -113.321398 
L 466.035858 -111.7458 
L 464.351098 -110.186972 
L 462.650833 -108.645069 
L 460.935235 -107.120245 
L 459.204475 -105.612653 
L 457.458725 -104.122444 
L 455.698161 -102.649767 
L 453.922958 -101.194769 
L 452.133295 -99.757595 
L 450.329349 -98.338389 
L 448.511302 -96.937294 
L 446.679335 -95.554449 
L 444.833631 -94.189992 
L 442.974376 -92.84406 
L 441.101754 -91.516788 
L 439.215953 -90.208308 
L 437.317162 -88.918751 
L 435.405571 -87.648246 
L 433.48137 -86.396921 
L 431.544752 -85.164899 
L 429.595912 -83.952305 
L 427.635043 -82.75926 
L 425.662342 -81.585883 
L 423.678005 -80.432291 
L 421.682233 -79.2986 
L 419.675223 -78.184923 
L 417.657177 -77.091371 
L 415.628297 -76.018054 
L 413.588785 -74.965079 
L 411.538846 -73.932552 
L 409.478684 -72.920575 
L 407.408505 -71.929251 
L 405.328517 -70.958677 
L 403.238928 -70.008951 
L 401.139945 -69.080169 
L 399.03178 -68.172422 
L 396.914643 -67.285802 
L 394.788746 -66.420397 
L 392.654301 -65.576294 
L 390.511522 -64.753578 
L 388.360623 -63.95233 
L 386.20182 -63.172631 
L 384.035327 -62.414558 
L 381.861362 -61.678188 
L 379.680142 -60.963594 
L 377.491886 -60.270847 
L 375.296812 -59.600018 
L 373.095139 -58.951172 
L 370.887088 -58.324375 
L 368.672879 -57.71969 
L 366.452734 -57.137176 
L 364.226876 -56.576893 
L 361.995525 -56.038896 
L 359.758907 -55.523239 
L 357.517244 -55.029974 
L 355.27076 -54.559149 
L 353.019681 -54.110813 
L 350.764231 -53.685009 
L 348.504635 -53.281781 
L 346.241121 -52.901168 
L 343.973913 -52.54321 
L 341.70324 -52.207941 
L 339.429327 -51.895395 
L 337.152403 -51.605603 
L 334.872694 -51.338595 
L 332.59043 -51.094396 
L 330.305837 -50.873033 
L 328.019145 -50.674526 
L 325.730583 -50.498895 
L 323.440379 -50.346158 
L 321.148762 -50.216331 
L 318.855961 -50.109426 
L 316.562206 -50.025454 
L 314.267725 -49.964423 
L 311.97275 -49.92634 
L 309.677508 -49.911208 
L 309.311946 -49.910917 
L 309.311946 -49.910917 
Q 309.311946 -279.441047 309.311946 -49.910917 
L 309.311946 -49.910917 
L 309.311946 -49.910917 
L 307.016683 -49.922393 
L 304.721649 -49.956821 
L 302.427075 -50.014198 
L 300.133189 -50.094517 
L 297.840221 -50.19777 
L 295.5484 -50.323947 
L 293.257955 -50.473036 
L 290.969116 -50.645022 
L 288.682111 -50.839887 
L 286.397169 -51.057612 
L 284.114518 -51.298175 
L 281.834387 -51.561552 
L 279.557004 -51.847717 
L 277.282597 -52.156641 
L 275.011392 -52.488293 
L 272.743617 -52.84264 
L 270.479499 -53.219647 
L 268.219265 -53.619276 
L 265.963139 -54.041487 
L 263.711349 -54.486238 
L 261.464118 -54.953484 
L 259.221672 -55.443179 
L 256.984235 -55.955273 
L 254.752031 -56.489715 
L 252.525283 -57.046453 
L 250.304214 -57.62543 
L 248.089045 -58.226588 
L 245.879998 -58.849867 
L 243.677295 -59.495206 
L 241.481155 -60.162538 
L 239.291798 -60.851799 
L 237.109442 -61.562918 
L 234.934308 -62.295825 
L 232.76661 -63.050446 
L 230.606568 -63.826706 
L 228.454395 -64.624527 
L 226.310309 -65.44383 
L 224.174522 -66.284532 
L 222.04725 -67.14655 
L 219.928703 -68.029797 
L 217.819095 -68.934185 
L 215.718636 -69.859624 
L 213.627537 -70.80602 
L 211.546005 -71.77328 
L 209.47425 -72.761306 
L 207.412479 -73.770001 
L 205.360898 -74.799262 
L 203.319712 -75.848987 
L 201.289125 -76.919071 
L 199.26934 -78.009407 
L 197.260559 -79.119887 
L 195.262983 -80.250398 
L 193.276813 -81.400828 
L 191.302245 -82.571062 
L 189.339478 -83.760983 
L 187.388709 -84.970471 
L 185.450132 -86.199407 
L 183.523941 -87.447666 
L 181.610328 -88.715125 
L 179.709486 -90.001656 
L 177.821603 -91.307131 
L 175.94687 -92.631419 
L 174.085473 -93.974388 
L 172.237599 -95.335903 
L 170.403432 -96.715829 
L 168.583155 -98.114027 
L 166.776952 -99.530358 
L 164.985001 -100.96468 
L 163.207484 -102.416849 
L 161.444577 -103.88672 
L 159.696456 -105.374147 
L 157.963297 -106.87898 
L 156.245272 -108.401069 
L 154.542554 -109.940263 
L 152.855313 -111.496406 
L 151.183717 -113.069343 
L 149.527934 -114.658918 
L 147.88813 -116.26497 
L 146.264467 -117.88734 
L 144.657109 -119.525865 
L 143.066217 -121.180382 
L 141.491949 -122.850725 
L 139.934463 -124.536726 
L 138.393914 -126.238218 
L 136.870457 -127.95503 
L 135.364244 -129.68699 
L 133.875426 -131.433926 
L 132.404151 -133.195662 
L 130.950567 -134.972023 
L 129.514819 -136.76283 
L 128.09705 -138.567905 
L 126.697403 -140.387068 
L 125.316017 -142.220135 
L 123.95303 -144.066925 
L 122.608579 -145.927252 
L 121.282799 -147.80093 
L 119.975821 -149.687772 
L 118.687777 -151.587589 
L 117.418795 -153.500192 
L 116.169002 -155.425388 
L 114.938523 -157.362986 
L 113.727481 -159.312792 
L 112.535998 -161.274611 
L 111.364192 -163.248245 
L 110.21218 -165.2335 
L 109.080079 -167.230174 
L 107.968 -169.23807 
L 106.876056 -171.256986 
L 105.804355 -173.286721 
L 104.753005 -175.32707 
L 103.72211 -177.377831 
L 102.711775 -179.438798 
L 101.722099 -181.509766 
L 100.753182 -183.590526 
L 99.80512 -185.680872 
L 98.878009 -187.780593 
L 97.971942 -189.88948 
L 97.087008 -192.007322 
L 96.223296 -194.133908 
L 95.380893 -196.269024 
L 94.559884 -198.412458 
L 93.760349 -200.563994 
L 92.982369 -202.723418 
L 92.226022 -204.890514 
L 91.491383 -207.065064 
L 90.778526 -209.246852 
L 90.087523 -211.43566 
L 89.418441 -213.631268 
L 88.771349 -215.833456 
L 88.146311 -218.042006 
L 87.543389 -220.256695 
L 86.962643 -222.477303 
L 86.404133 -224.703607 
L 85.867913 -226.935385 
L 85.354037 -229.172414 
L 84.862557 -231.414469 
L 84.393521 -233.661327 
L 83.946978 -235.912762 
L 83.52297 -238.168551 
L 83.121541 -240.428466 
L 82.742732 -242.692283 
L 82.386578 -244.959775 
L 82.053118 -247.230715 
L 81.742383 -249.504876 
L 81.454404 -251.782031 
L 81.189211 -254.061951 
L 80.946831 -256.344409 
L 80.727286 -258.629177 
L 80.5306 -260.916026 
L 80.356792 -263.204728 
L 80.205879 -265.495053 
L 80.077877 -267.786773 
L 79.972798 -270.079658 
L 79.890652 -272.373479 
L 79.831449 -274.668007 
L 79.795193 -276.963013 
L 79.781889 -279.258266 
L 79.791537 -281.553537 
L 79.824138 -283.848598 
L 79.879687 -286.143217 
L 79.958179 -288.437166 
L 80.059606 -290.730216 
L 80.183959 -293.022137 
L 80.331224 -295.312699 
L 80.501386 -297.601675 
L 80.69443 -299.888834 
L 80.910335 -302.173949 
L 81.149081 -304.45679 
L 81.410642 -306.73713 
L 81.694993 -309.01474 
L 82.002106 -311.289393 
L 82.33195 -313.560861 
L 82.684491 -315.828918 
L 83.059695 -318.093335 
L 83.457524 -320.353887 
L 83.877938 -322.610348 
L 84.320895 -324.862492 
L 84.786352 -327.110094 
L 85.27426 -329.352929 
L 85.784573 -331.590773 
L 86.317238 -333.823402 
L 86.872202 -336.050593 
L 87.44941 -338.272123 
L 88.048804 -340.48777 
L 88.670324 -342.697312 
L 89.313908 -344.900529 
L 89.979492 -347.097199 
L 90.667008 -349.287105 
L 91.376389 -351.470025 
L 92.107564 -353.645743 
L 92.860459 -355.814041 
L 93.634998 -357.974701 
L 94.431106 -360.127508 
L 95.248701 -362.272246 
L 96.087702 -364.408701 
L 96.948025 -366.53666 
L 97.829585 -368.655909 
L 98.732293 -370.766236 
L 99.656058 -372.867432 
L 100.600789 -374.959284 
L 101.566391 -377.041585 
L 102.552768 -379.114126 
L 103.55982 -381.1767 
L 104.587447 -383.2291 
L 105.635546 -385.271122 
L 106.704013 -387.30256 
L 107.792741 -389.323213 
L 108.90162 -391.332877 
L 110.03054 -393.331352 
L 111.179388 -395.318439 
L 112.348049 -397.293938 
L 113.536406 -399.257651 
L 114.744341 -401.209383 
L 115.971733 -403.148938 
L 117.218458 -405.076123 
L 118.484392 -406.990744 
L 119.769409 -408.89261 
L 121.07338 -410.781532 
L 122.396175 -412.657319 
L 123.737661 -414.519785 
L 125.097705 -416.368743 
L 126.47617 -418.204008 
L 127.872918 -420.025397 
L 129.28781 -421.832728 
L 130.720704 -423.62582 
L 132.171457 -425.404494 
L 133.639924 -427.168571 
L 135.125958 -428.917875 
L 136.629411 -430.652233 
L 138.150132 -432.371469 
L 139.687969 -434.075412 
L 141.242768 -435.763892 
L 142.814373 -437.436739 
L 144.402629 -439.093788 
L 146.007375 -440.734871 
L 147.628451 -442.359825 
L 149.265696 -443.968487 
L 150.918945 -445.560696 
L 152.588034 -447.136294 
L 154.272794 -448.695122 
L 155.973059 -450.237025 
L 157.688657 -451.761849 
L 159.419417 -453.26944 
L 161.165167 -454.759649 
L 162.925731 -456.232327 
L 164.700934 -457.687325 
L 166.490597 -459.124499 
L 168.294543 -460.543704 
L 170.11259 -461.9448 
L 171.944557 -463.327645 
L 173.790261 -464.692102 
L 175.649516 -466.038034 
L 177.522138 -467.365306 
L 179.407939 -468.673786 
L 181.30673 -469.963343 
L 183.218321 -471.233847 
L 185.142522 -472.485173 
L 187.079139 -473.717195 
L 189.02798 -474.929788 
L 190.988849 -476.122834 
L 192.96155 -477.296211 
L 194.945886 -478.449803 
L 196.941659 -479.583494 
L 198.948669 -480.697171 
L 200.966715 -481.790723 
L 202.995595 -482.86404 
L 205.035107 -483.917014 
L 207.085046 -484.949542 
L 209.145208 -485.961518 
L 211.215387 -486.952843 
L 213.295375 -487.923417 
L 215.384964 -488.873143 
L 217.483947 -489.801925 
L 219.592112 -490.709672 
L 221.709249 -491.596292 
L 223.835146 -492.461697 
L 225.969591 -493.305799 
L 228.11237 -494.128516 
L 230.263269 -494.929764 
L 232.422072 -495.709463 
L 234.588565 -496.467536 
L 236.76253 -497.203906 
L 238.94375 -497.9185 
L 241.132006 -498.611246 
L 243.32708 -499.282076 
L 245.528753 -499.930922 
L 247.736804 -500.557719 
L 249.951013 -501.162404 
L 252.171158 -501.744917 
L 254.397016 -502.305201 
L 256.628366 -502.843198 
L 258.864985 -503.358855 
L 261.106648 -503.85212 
L 263.353132 -504.322945 
L 265.604211 -504.771281 
L 267.859661 -505.197085 
L 270.119257 -505.600313 
L 272.382771 -505.980925 
L 274.649979 -506.338884 
L 276.920652 -506.674153 
L 279.194565 -506.986699 
L 281.471489 -507.276491 
L 283.751198 -507.543499 
L 286.033462 -507.787697 
L 288.318055 -508.009061 
L 290.604747 -508.207568 
L 292.893309 -508.383199 
L 295.183513 -508.535935 
L 297.47513 -508.665763 
L 299.767931 -508.772668 
L 302.061686 -508.85664 
L 304.356167 -508.91767 
L 306.651142 -508.955754 
L 308.946384 -508.970886 
L 309.311946 -508.971177 
L 309.311946 -508.971177 
Q 309.311946 -279.441047 309.311946 -508.971177 
z
" style="stroke: #808080; stroke-opacity: 0.5; stroke-width: 0.1"/>
    </defs>
    <g clip-path="url(#pb4cce4d9f6)">
     <use xlink:href="#m74acde04b2" x="0" y="558.882094" style="fill: #000080; fill-opacity: 0.5; stroke: #808080; stroke-opacity: 0.5; stroke-width: 0.1"/>
    </g>
   </g>
   <g id="patch_4">
    <path d="M 309.311946 49.910917 
L 311.607209 49.922393 
L 313.902243 49.956821 
L 316.196817 50.014198 
L 318.490703 50.094517 
L 320.783671 50.19777 
L 323.075492 50.323947 
L 325.365937 50.473036 
L 327.654776 50.645022 
L 329.941781 50.839887 
L 332.226723 51.057612 
L 334.509374 51.298175 
L 336.789504 51.561552 
L 339.066888 51.847717 
L 341.341295 52.156641 
L 343.6125 52.488293 
L 345.880275 52.84264 
L 348.144393 53.219647 
L 350.404627 53.619276 
L 352.660753 54.041487 
L 354.912543 54.486238 
L 357.159774 54.953484 
L 359.40222 55.443179 
L 361.639657 55.955273 
L 363.871861 56.489715 
L 366.098609 57.046453 
L 368.319678 57.62543 
L 370.534847 58.226588 
L 372.743894 58.849867 
L 374.946597 59.495206 
L 377.142737 60.162538 
L 379.332094 60.851799 
L 381.51445 61.562918 
L 383.689584 62.295825 
L 385.857282 63.050446 
L 388.017324 63.826706 
L 390.169497 64.624527 
L 392.313583 65.44383 
L 394.44937 66.284532 
L 396.576642 67.14655 
L 398.695189 68.029797 
L 400.804797 68.934185 
L 402.905256 69.859624 
L 404.996355 70.80602 
L 407.077887 71.77328 
L 409.149642 72.761306 
L 411.211413 73.770001 
L 413.262994 74.799262 
L 415.30418 75.848987 
L 417.334767 76.919071 
L 419.354552 78.009407 
L 421.363333 79.119887 
L 423.360909 80.250398 
L 425.347079 81.400828 
L 427.321647 82.571062 
L 429.284414 83.760983 
L 431.235183 84.970471 
L 433.17376 86.199407 
L 435.099951 87.447666 
L 437.013564 88.715125 
L 438.914406 90.001656 
L 440.802289 91.307131 
L 442.677022 92.631419 
L 444.538419 93.974388 
L 446.386293 95.335903 
L 448.22046 96.715829 
L 450.040737 98.114027 
L 451.84694 99.530358 
L 453.63889 100.96468 
L 455.416408 102.416849 
L 457.179315 103.88672 
L 458.927436 105.374147 
L 460.660595 106.87898 
L 462.37862 108.401069 
L 464.081338 109.940263 
L 465.768579 111.496406 
L 467.440175 113.069343 
L 469.095958 114.658918 
L 470.735762 116.26497 
L 472.359425 117.88734 
L 473.966783 119.525865 
L 475.557675 121.180382 
L 477.131943 122.850725 
L 478.689429 124.536726 
L 480.229978 126.238218 
L 481.753435 127.95503 
L 483.259648 129.68699 
L 484.748466 131.433926 
L 486.219741 133.195662 
L 487.673325 134.972023 
L 489.109073 136.76283 
L 490.526842 138.567905 
L 491.926489 140.387068 
L 493.307875 142.220135 
L 494.670862 144.066925 
L 496.015312 145.927252 
L 497.341093 147.80093 
L 498.648071 149.687772 
L 499.936115 151.587589 
L 501.205097 153.500192 
L 502.45489 155.425388 
L 503.685369 157.362986 
L 504.896411 159.312792 
L 506.087894 161.274611 
L 507.2597 163.248245 
L 508.411712 165.2335 
L 509.543813 167.230174 
L 510.655892 169.23807 
L 511.747836 171.256986 
L 512.819537 173.286721 
L 513.870887 175.32707 
L 514.901782 177.377831 
L 515.912117 179.438798 
L 516.901793 181.509766 
L 517.87071 183.590526 
L 518.818772 185.680872 
L 519.745883 187.780593 
L 520.65195 189.88948 
L 521.536884 192.007322 
L 522.400596 194.133908 
L 523.242998 196.269024 
L 524.064008 198.412458 
L 524.863543 200.563994 
L 525.641523 202.723418 
L 526.39787 204.890514 
L 527.132509 207.065064 
L 527.845366 209.246852 
L 528.536369 211.43566 
L 529.205451 213.631268 
L 529.852543 215.833456 
L 530.477581 218.042006 
L 531.080503 220.256695 
L 531.661249 222.477303 
L 532.219759 224.703607 
L 532.755979 226.935385 
L 533.269855 229.172414 
L 533.761335 231.414469 
L 534.230371 233.661327 
L 534.676914 235.912762 
L 535.100922 238.168551 
L 535.502351 240.428466 
L 535.88116 242.692283 
L 536.237314 244.959775 
L 536.570774 247.230715 
L 536.881509 249.504876 
L 537.169488 251.782031 
L 537.434681 254.061951 
L 537.677061 256.344409 
L 537.896606 258.629177 
L 538.093292 260.916026 
L 538.2671 263.204728 
L 538.418013 265.495053 
L 538.546015 267.786773 
L 538.651094 270.079658 
L 538.73324 272.373479 
L 538.792443 274.668007 
L 538.828699 276.963013 
L 538.842003 279.258266 
L 538.832354 281.553537 
L 538.799754 283.848598 
L 538.744205 286.143217 
L 538.665713 288.437166 
L 538.564286 290.730216 
L 538.439933 293.022137 
L 538.292668 295.312699 
L 538.122505 297.601675 
L 537.929462 299.888834 
L 537.713557 302.173949 
L 537.474811 304.45679 
L 537.21325 306.73713 
L 536.928899 309.01474 
L 536.621786 311.289393 
L 536.291942 313.560861 
L 535.939401 315.828918 
L 535.564197 318.093335 
L 535.166368 320.353887 
L 534.745954 322.610348 
L 534.302997 324.862492 
L 533.83754 327.110094 
L 533.349632 329.352929 
L 532.839319 331.590773 
L 532.306654 333.823402 
L 531.75169 336.050593 
L 531.174482 338.272123 
L 530.575088 340.48777 
L 529.953568 342.697312 
L 529.309984 344.900529 
L 528.6444 347.097199 
L 527.956884 349.287105 
L 527.247503 351.470025 
L 526.516328 353.645743 
L 525.763433 355.814041 
L 524.988894 357.974701 
L 524.192786 360.127508 
L 523.375191 362.272246 
L 522.53619 364.408701 
L 521.675867 366.53666 
L 520.794307 368.655909 
L 519.891599 370.766236 
L 518.967833 372.867432 
L 518.023102 374.959284 
L 517.057501 377.041585 
L 516.071124 379.114126 
L 515.064072 381.1767 
L 514.036445 383.2291 
L 512.988346 385.271122 
L 511.919879 387.30256 
L 510.831151 389.323213 
L 509.722272 391.332877 
L 508.593352 393.331352 
L 507.444504 395.318439 
L 506.275843 397.293938 
L 505.087486 399.257651 
L 503.879551 401.209383 
L 502.652159 403.148938 
L 501.405434 405.076123 
L 500.1395 406.990744 
L 498.854483 408.89261 
L 497.550512 410.781532 
L 496.227717 412.657319 
L 494.886231 414.519785 
L 493.526187 416.368743 
L 492.147722 418.204008 
L 490.750974 420.025397 
L 489.336082 421.832728 
L 487.903188 423.62582 
L 486.452435 425.404494 
L 484.983968 427.168571 
L 483.497934 428.917875 
L 481.994481 430.652233 
L 480.47376 432.371469 
L 478.935923 434.075412 
L 477.381124 435.763892 
L 475.809519 437.436739 
L 474.221263 439.093788 
L 472.616517 440.734871 
L 470.995441 442.359825 
L 469.358196 443.968487 
L 467.704947 445.560696 
L 466.035858 447.136294 
L 464.351098 448.695122 
L 462.650833 450.237025 
L 460.935235 451.761849 
L 459.204475 453.26944 
L 457.458725 454.759649 
L 455.698161 456.232327 
L 453.922958 457.687325 
L 452.133295 459.124499 
L 450.329349 460.543704 
L 448.511302 461.9448 
L 446.679335 463.327645 
L 444.833631 464.692102 
L 442.974376 466.038034 
L 441.101754 467.365306 
L 439.215953 468.673786 
L 437.317162 469.963343 
L 435.405571 471.233847 
L 433.48137 472.485173 
L 431.544752 473.717195 
L 429.595912 474.929788 
L 427.635043 476.122834 
L 425.662342 477.296211 
L 423.678005 478.449803 
L 421.682233 479.583494 
L 419.675223 480.697171 
L 417.657177 481.790723 
L 415.628297 482.86404 
L 413.588785 483.917014 
L 411.538846 484.949542 
L 409.478684 485.961518 
L 407.408505 486.952843 
L 405.328517 487.923417 
L 403.238928 488.873143 
L 401.139945 489.801925 
L 399.03178 490.709672 
L 396.914643 491.596292 
L 394.788746 492.461697 
L 392.654301 493.305799 
L 390.511522 494.128516 
L 388.360623 494.929764 
L 386.20182 495.709463 
L 384.035327 496.467536 
L 381.861362 497.203906 
L 379.680142 497.9185 
L 377.491886 498.611246 
L 375.296812 499.282076 
L 373.095139 499.930922 
L 370.887088 500.557719 
L 368.672879 501.162404 
L 366.452734 501.744917 
L 364.226876 502.305201 
L 361.995525 502.843198 
L 359.758907 503.358855 
L 357.517244 503.85212 
L 355.27076 504.322945 
L 353.019681 504.771281 
L 350.764231 505.197085 
L 348.504635 505.600313 
L 346.241121 505.980925 
L 343.973913 506.338884 
L 341.70324 506.674153 
L 339.429327 506.986699 
L 337.152403 507.276491 
L 334.872694 507.543499 
L 332.59043 507.787697 
L 330.305837 508.009061 
L 328.019145 508.207568 
L 325.730583 508.383199 
L 323.440379 508.535935 
L 321.148762 508.665763 
L 318.855961 508.772668 
L 316.562206 508.85664 
L 314.267725 508.91767 
L 311.97275 508.955754 
L 309.677508 508.970886 
L 309.311946 508.971177 
L 309.311946 511.289663 
L 309.6812 511.289369 
L 311.999626 511.274084 
L 314.317784 511.235616 
L 316.635441 511.173969 
L 318.952365 511.089149 
L 321.268325 510.981164 
L 323.58309 510.850025 
L 325.896428 510.695746 
L 328.208107 510.518341 
L 330.517897 510.317829 
L 332.825566 510.094229 
L 335.130883 509.847564 
L 337.433619 509.577859 
L 339.733543 509.28514 
L 342.030425 508.969437 
L 344.324034 508.630781 
L 346.614143 508.269207 
L 348.900521 507.88475 
L 351.182941 507.477449 
L 353.461173 507.047344 
L 355.734991 506.594479 
L 358.004166 506.118899 
L 360.268472 505.620651 
L 362.527683 505.099785 
L 364.781572 504.556354 
L 367.029914 503.990411 
L 369.272484 503.402014 
L 371.509059 502.79122 
L 373.739413 502.158092 
L 375.963325 501.502692 
L 378.180572 500.825087 
L 380.390932 500.125343 
L 382.594185 499.403531 
L 384.790109 498.659722 
L 386.978485 497.893993 
L 389.159095 497.106418 
L 391.33172 496.297076 
L 393.496143 495.466049 
L 395.652148 494.61342 
L 397.799519 493.739274 
L 399.938041 492.843698 
L 402.067501 491.926783 
L 404.187685 490.988618 
L 406.298382 490.029299 
L 408.39938 489.048922 
L 410.490469 488.047584 
L 412.571441 487.025385 
L 414.642087 485.982428 
L 416.7022 484.918817 
L 418.751574 483.834659 
L 420.790004 482.730061 
L 422.817286 481.605135 
L 424.833218 480.459992 
L 426.837598 479.294748 
L 428.830226 478.109518 
L 430.810901 476.904422 
L 432.779427 475.67958 
L 434.735607 474.435114 
L 436.679244 473.171148 
L 438.610144 471.88781 
L 440.528115 470.585228 
L 442.432964 469.263531 
L 444.324501 467.922852 
L 446.202537 466.563325 
L 448.066884 465.185085 
L 449.917356 463.788272 
L 451.753767 462.373024 
L 453.575935 460.939483 
L 455.383676 459.487792 
L 457.17681 458.018097 
L 458.955157 456.530544 
L 460.71854 455.025283 
L 462.466783 453.502463 
L 464.199711 451.962237 
L 465.91715 450.404759 
L 467.618928 448.830185 
L 469.304876 447.238672 
L 470.974825 445.63038 
L 472.628607 444.005469 
L 474.266058 442.364101 
L 475.887014 440.706442 
L 477.491312 439.032655 
L 479.078793 437.34291 
L 480.649297 435.637375 
L 482.202667 433.91622 
L 483.738749 432.179618 
L 485.257388 430.427742 
L 486.758433 428.660768 
L 488.241733 426.878872 
L 489.70714 425.082232 
L 491.154508 423.271028 
L 492.583692 421.445441 
L 493.994548 419.605654 
L 495.386937 417.751851 
L 496.760718 415.884216 
L 498.115755 414.002938 
L 499.451911 412.108203 
L 500.769054 410.200202 
L 502.067051 408.279125 
L 503.345772 406.345164 
L 504.605091 404.398513 
L 505.84488 402.439366 
L 507.065016 400.46792 
L 508.265377 398.484371 
L 509.445843 396.488918 
L 510.606296 394.48176 
L 511.746619 392.463098 
L 512.866699 390.433134 
L 513.966424 388.39207 
L 515.045683 386.340112 
L 516.104369 384.277464 
L 517.142377 382.204333 
L 518.159601 380.120925 
L 519.155941 378.027449 
L 520.131296 375.924115 
L 521.08557 373.811133 
L 522.018666 371.688713 
L 522.930492 369.557069 
L 523.820957 367.416413 
L 524.68997 365.26696 
L 525.537446 363.108925 
L 526.3633 360.942522 
L 527.167449 358.76797 
L 527.949812 356.585485 
L 528.710312 354.395286 
L 529.448872 352.197591 
L 530.165418 349.99262 
L 530.85988 347.780595 
L 531.532187 345.561736 
L 532.182271 343.336264 
L 532.81007 341.104403 
L 533.415518 338.866376 
L 533.998556 336.622407 
L 534.559126 334.372719 
L 535.097171 332.117538 
L 535.612638 329.85709 
L 536.105476 327.5916 
L 536.575633 325.321295 
L 537.023065 323.046402 
L 537.447726 320.767148 
L 537.849573 318.483762 
L 538.228567 316.196472 
L 538.58467 313.905506 
L 538.917845 311.611094 
L 539.22806 309.313465 
L 539.515283 307.012848 
L 539.779487 304.709475 
L 540.020644 302.403574 
L 540.23873 300.095378 
L 540.433723 297.785115 
L 540.605605 295.473019 
L 540.754357 293.159319 
L 540.879966 290.844248 
L 540.982418 288.528036 
L 541.061703 286.210916 
L 541.117813 283.893118 
L 541.150742 281.574876 
L 541.160489 279.25642 
L 541.14705 276.937982 
L 541.110428 274.619795 
L 541.050627 272.30209 
L 540.967651 269.985098 
L 540.861511 267.669053 
L 540.732215 265.354184 
L 540.579778 263.040725 
L 540.404214 260.728905 
L 540.205542 258.418956 
L 539.98378 256.11111 
L 539.738951 253.805596 
L 539.471079 251.502647 
L 539.180192 249.202491 
L 538.866318 246.905358 
L 538.529489 244.61148 
L 538.169738 242.321084 
L 537.787102 240.0344 
L 537.381619 237.751657 
L 536.953328 235.473083 
L 536.502274 233.198905 
L 536.028501 230.929352 
L 535.532056 228.66465 
L 535.01299 226.405025 
L 534.471353 224.150704 
L 533.907201 221.901912 
L 533.32059 219.658874 
L 532.711578 217.421814 
L 532.080226 215.190956 
L 531.426597 212.966522 
L 530.750758 210.748737 
L 530.052774 208.53782 
L 529.332717 206.333994 
L 528.590657 204.137478 
L 527.82667 201.948492 
L 527.040832 199.767256 
L 526.233221 197.593987 
L 525.403918 195.428903 
L 524.553006 193.27222 
L 523.68057 191.124154 
L 522.786698 188.984919 
L 521.871478 186.85473 
L 520.935002 184.733799 
L 519.977365 182.622339 
L 518.99866 180.520561 
L 517.998988 178.428675 
L 516.978447 176.34689 
L 515.937139 174.275414 
L 514.875169 172.214455 
L 513.792643 170.164218 
L 512.689669 168.124909 
L 511.566357 166.096731 
L 510.42282 164.079888 
L 509.259173 162.074581 
L 508.07553 160.08101 
L 506.872012 158.099375 
L 505.648737 156.129875 
L 504.405829 154.172705 
L 503.143412 152.228062 
L 501.861612 150.29614 
L 500.560557 148.377133 
L 499.240377 146.471232 
L 497.901205 144.578628 
L 496.543174 142.699509 
L 495.16642 140.834065 
L 493.771081 138.982482 
L 492.357295 137.144944 
L 490.925206 135.321636 
L 489.474955 133.51274 
L 488.006688 131.718436 
L 486.520552 129.938904 
L 485.016695 128.174323 
L 483.495268 126.424868 
L 481.956423 124.690714 
L 480.400313 122.972036 
L 478.827095 121.269004 
L 477.236925 119.581789 
L 475.629963 117.910561 
L 474.006369 116.255485 
L 472.366306 114.616727 
L 470.709938 112.994452 
L 469.03743 111.388821 
L 467.348949 109.799995 
L 465.644665 108.228134 
L 463.924748 106.673393 
L 462.18937 105.135929 
L 460.438704 103.615895 
L 458.672925 102.113444 
L 456.892211 100.628726 
L 455.096738 99.161888 
L 453.286688 97.713078 
L 451.46224 96.282441 
L 449.623577 94.87012 
L 447.770883 93.476255 
L 445.904343 92.100987 
L 444.024144 90.744453 
L 442.130474 89.406788 
L 440.223522 88.088127 
L 438.303479 86.7886 
L 436.370537 85.508339 
L 434.42489 84.247471 
L 432.466731 83.006122 
L 430.496257 81.784416 
L 428.513664 80.582476 
L 426.519152 79.400422 
L 424.512918 78.238371 
L 422.495165 77.096441 
L 420.466094 75.974744 
L 418.425907 74.873395 
L 416.374809 73.792502 
L 414.313004 72.732173 
L 412.2407 71.692515 
L 410.158103 70.673632 
L 408.065421 69.675626 
L 405.962865 68.698596 
L 403.850643 67.74264 
L 401.728967 66.807853 
L 399.59805 65.89433 
L 397.458104 65.002161 
L 395.309343 64.131436 
L 393.151983 63.282242 
L 390.986239 62.454664 
L 388.812328 61.648783 
L 386.630467 60.864682 
L 384.440874 60.102439 
L 382.243768 59.362129 
L 380.039369 58.643827 
L 377.827897 57.947604 
L 375.609574 57.27353 
L 373.384621 56.621674 
L 371.15326 55.992098 
L 368.915716 55.384868 
L 366.672212 54.800043 
L 364.422971 54.237682 
L 362.168219 53.697841 
L 359.908182 53.180574 
L 357.643085 52.685933 
L 355.373155 52.213967 
L 353.098619 51.764724 
L 350.819705 51.338248 
L 348.536639 50.934583 
L 346.249652 50.553767 
L 343.95897 50.195841 
L 341.664824 49.860839 
L 339.367443 49.548794 
L 337.067056 49.259739 
L 334.763893 48.993701 
L 332.458185 48.750708 
L 330.150163 48.530784 
L 327.840057 48.333951 
L 325.528098 48.160228 
L 323.214518 48.009633 
L 320.899547 47.882181 
L 318.583418 47.777885 
L 316.266361 47.696755 
L 313.948609 47.638799 
L 311.630394 47.604023 
L 309.311946 47.592431 
L 309.311946 49.910917 
z
" clip-path="url(#pb4cce4d9f6)" style="fill: none; stroke: #000000; stroke-width: 0.5; stroke-linejoin: miter"/>
   </g>
   <g id="patch_5">
    <path d="M 309.311946 508.971177 
L 307.016683 508.9597 
L 304.721649 508.925272 
L 302.427075 508.867896 
L 300.133189 508.787577 
L 297.840221 508.684324 
L 295.5484 508.558146 
L 293.257955 508.409058 
L 290.969116 508.237072 
L 288.682111 508.042207 
L 286.397169 507.824482 
L 284.114518 507.583919 
L 281.834387 507.320542 
L 279.557004 507.034377 
L 277.282597 506.725453 
L 275.011392 506.393801 
L 272.743617 506.039453 
L 270.479499 505.662446 
L 268.219265 505.262817 
L 265.963139 504.840607 
L 263.711349 504.395856 
L 261.464118 503.92861 
L 259.221672 503.438915 
L 256.984235 502.926821 
L 254.752031 502.392378 
L 252.525283 501.835641 
L 250.304214 501.256664 
L 248.089045 500.655506 
L 245.879998 500.032226 
L 243.677295 499.386888 
L 241.481155 498.719555 
L 239.291798 498.030295 
L 237.109442 497.319176 
L 234.934308 496.586269 
L 232.76661 495.831648 
L 230.606568 495.055388 
L 228.454395 494.257566 
L 226.310309 493.438264 
L 224.174522 492.597561 
L 222.04725 491.735544 
L 219.928703 490.852296 
L 217.819095 489.947908 
L 215.718636 489.02247 
L 213.627537 488.076073 
L 211.546005 487.108814 
L 209.47425 486.120787 
L 207.412479 485.112093 
L 205.360898 484.082832 
L 203.319712 483.033107 
L 201.289125 481.963023 
L 199.26934 480.872686 
L 197.260559 479.762207 
L 195.262983 478.631696 
L 193.276813 477.481266 
L 191.302245 476.311032 
L 189.339478 475.121111 
L 187.388709 473.911623 
L 185.450132 472.682687 
L 183.523941 471.434428 
L 181.610328 470.166969 
L 179.709486 468.880438 
L 177.821603 467.574963 
L 175.94687 466.250675 
L 174.085473 464.907706 
L 172.237599 463.54619 
L 170.403432 462.166265 
L 168.583155 460.768066 
L 166.776952 459.351736 
L 164.985001 457.917414 
L 163.207484 456.465245 
L 161.444577 454.995373 
L 159.696456 453.507947 
L 157.963297 452.003114 
L 156.245272 450.481024 
L 154.542554 448.941831 
L 152.855313 447.385688 
L 151.183717 445.812751 
L 149.527934 444.223176 
L 147.88813 442.617124 
L 146.264467 440.994754 
L 144.657109 439.356228 
L 143.066217 437.701712 
L 141.491949 436.031369 
L 139.934463 434.345368 
L 138.393914 432.643876 
L 136.870457 430.927064 
L 135.364244 429.195104 
L 133.875426 427.448168 
L 132.404151 425.686432 
L 130.950567 423.910071 
L 129.514819 422.119264 
L 128.09705 420.314188 
L 126.697403 418.495026 
L 125.316017 416.661958 
L 123.95303 414.815169 
L 122.608579 412.954842 
L 121.282799 411.081164 
L 119.975821 409.194322 
L 118.687777 407.294504 
L 117.418795 405.381902 
L 116.169002 403.456705 
L 114.938523 401.519107 
L 113.727481 399.569302 
L 112.535998 397.607483 
L 111.364192 395.633848 
L 110.21218 393.648594 
L 109.080079 391.651919 
L 107.968 389.644024 
L 106.876056 387.625108 
L 105.804355 385.595373 
L 104.753005 383.555024 
L 103.72211 381.504263 
L 102.711775 379.443295 
L 101.722099 377.372328 
L 100.753182 375.291568 
L 99.80512 373.201222 
L 98.878009 371.101501 
L 97.971942 368.992614 
L 97.087008 366.874771 
L 96.223296 364.748186 
L 95.380893 362.613069 
L 94.559884 360.469636 
L 93.760349 358.3181 
L 92.982369 356.158676 
L 92.226022 353.99158 
L 91.491383 351.81703 
L 90.778526 349.635242 
L 90.087523 347.446434 
L 89.418441 345.250826 
L 88.771349 343.048637 
L 88.146311 340.840088 
L 87.543389 338.625398 
L 86.962643 336.404791 
L 86.404133 334.178486 
L 85.867913 331.946709 
L 85.354037 329.70968 
L 84.862557 327.467625 
L 84.393521 325.220767 
L 83.946978 322.969332 
L 83.52297 320.713543 
L 83.121541 318.453627 
L 82.742732 316.18981 
L 82.386578 313.922318 
L 82.053118 311.651379 
L 81.742383 309.377218 
L 81.454404 307.100063 
L 81.189211 304.820143 
L 80.946831 302.537685 
L 80.727286 300.252917 
L 80.5306 297.966068 
L 80.356792 295.677366 
L 80.205879 293.387041 
L 80.077877 291.095321 
L 79.972798 288.802436 
L 79.890652 286.508614 
L 79.831449 284.214086 
L 79.795193 281.919081 
L 79.781889 279.623828 
L 79.791537 277.328556 
L 79.824138 275.033496 
L 79.879687 272.738877 
L 79.958179 270.444927 
L 80.059606 268.151878 
L 80.183959 265.859957 
L 80.331224 263.569394 
L 80.501386 261.280419 
L 80.69443 258.99326 
L 80.910335 256.708145 
L 81.149081 254.425303 
L 81.410642 252.144964 
L 81.694993 249.867353 
L 82.002106 247.5927 
L 82.33195 245.321232 
L 82.684491 243.053176 
L 83.059695 240.788759 
L 83.457524 238.528207 
L 83.877938 236.271746 
L 84.320895 234.019602 
L 84.786352 231.772 
L 85.27426 229.529165 
L 85.784573 227.291321 
L 86.317238 225.058692 
L 86.872202 222.831501 
L 87.44941 220.609971 
L 88.048804 218.394324 
L 88.670324 216.184782 
L 89.313908 213.981565 
L 89.979492 211.784894 
L 90.667008 209.594989 
L 91.376389 207.412068 
L 92.107564 205.236351 
L 92.860459 203.068053 
L 93.634998 200.907393 
L 94.431106 198.754586 
L 95.248701 196.609848 
L 96.087702 194.473393 
L 96.948025 192.345434 
L 97.829585 190.226185 
L 98.732293 188.115857 
L 99.656058 186.014662 
L 100.600789 183.922809 
L 101.566391 181.840509 
L 102.552768 179.767968 
L 103.55982 177.705394 
L 104.587447 175.652994 
L 105.635546 173.610972 
L 106.704013 171.579534 
L 107.792741 169.558881 
L 108.90162 167.549217 
L 110.03054 165.550741 
L 111.179388 163.563655 
L 112.348049 161.588156 
L 113.536406 159.624443 
L 114.744341 157.672711 
L 115.971733 155.733155 
L 117.218458 153.805971 
L 118.484392 151.89135 
L 119.769409 149.989483 
L 121.07338 148.100562 
L 122.396175 146.224775 
L 123.737661 144.362309 
L 125.097705 142.513351 
L 126.47617 140.678086 
L 127.872918 138.856696 
L 129.28781 137.049365 
L 130.720704 135.256274 
L 132.171457 133.4776 
L 133.639924 131.713523 
L 135.125958 129.964218 
L 136.629411 128.229861 
L 138.150132 126.510625 
L 139.687969 124.806682 
L 141.242768 123.118202 
L 142.814373 121.445354 
L 144.402629 119.788306 
L 146.007375 118.147223 
L 147.628451 116.522269 
L 149.265696 114.913607 
L 150.918945 113.321398 
L 152.588034 111.7458 
L 154.272794 110.186972 
L 155.973059 108.645069 
L 157.688657 107.120245 
L 159.419417 105.612653 
L 161.165167 104.122444 
L 162.925731 102.649767 
L 164.700934 101.194769 
L 166.490597 99.757595 
L 168.294543 98.338389 
L 170.11259 96.937294 
L 171.944557 95.554449 
L 173.790261 94.189992 
L 175.649516 92.84406 
L 177.522138 91.516788 
L 179.407939 90.208308 
L 181.30673 88.918751 
L 183.218321 87.648246 
L 185.142522 86.396921 
L 187.079139 85.164899 
L 189.02798 83.952305 
L 190.988849 82.75926 
L 192.96155 81.585883 
L 194.945886 80.432291 
L 196.941659 79.2986 
L 198.948669 78.184923 
L 200.966715 77.091371 
L 202.995595 76.018054 
L 205.035107 74.965079 
L 207.085046 73.932552 
L 209.145208 72.920575 
L 211.215387 71.929251 
L 213.295375 70.958677 
L 215.384964 70.008951 
L 217.483947 69.080169 
L 219.592112 68.172422 
L 221.709249 67.285802 
L 223.835146 66.420397 
L 225.969591 65.576294 
L 228.11237 64.753578 
L 230.263269 63.95233 
L 232.422072 63.172631 
L 234.588565 62.414558 
L 236.76253 61.678188 
L 238.94375 60.963594 
L 241.132006 60.270847 
L 243.32708 59.600018 
L 245.528753 58.951172 
L 247.736804 58.324375 
L 249.951013 57.71969 
L 252.171158 57.137176 
L 254.397016 56.576893 
L 256.628366 56.038896 
L 258.864985 55.523239 
L 261.106648 55.029974 
L 263.353132 54.559149 
L 265.604211 54.110813 
L 267.859661 53.685009 
L 270.119257 53.281781 
L 272.382771 52.901168 
L 274.649979 52.54321 
L 276.920652 52.207941 
L 279.194565 51.895395 
L 281.471489 51.605603 
L 283.751198 51.338595 
L 286.033462 51.094396 
L 288.318055 50.873033 
L 290.604747 50.674526 
L 292.893309 50.498895 
L 295.183513 50.346158 
L 297.47513 50.216331 
L 299.767931 50.109426 
L 302.061686 50.025454 
L 304.356167 49.964423 
L 306.651142 49.92634 
L 308.946384 49.911208 
L 309.311946 49.910917 
L 309.311946 47.592431 
L 308.942692 47.592725 
L 306.624265 47.60801 
L 304.306108 47.646478 
L 301.988451 47.708125 
L 299.671527 47.792945 
L 297.355567 47.90093 
L 295.040802 48.032069 
L 292.727464 48.186348 
L 290.415785 48.363753 
L 288.105995 48.564265 
L 285.798326 48.787865 
L 283.493009 49.03453 
L 281.190273 49.304235 
L 278.890349 49.596954 
L 276.593467 49.912657 
L 274.299858 50.251312 
L 272.009749 50.612887 
L 269.723371 50.997344 
L 267.440951 51.404645 
L 265.162719 51.83475 
L 262.888901 52.287615 
L 260.619726 52.763195 
L 258.35542 53.261443 
L 256.096209 53.782309 
L 253.84232 54.32574 
L 251.593978 54.891683 
L 249.351408 55.48008 
L 247.114833 56.090873 
L 244.884479 56.724002 
L 242.660567 57.379401 
L 240.44332 58.057007 
L 238.23296 58.756751 
L 236.029707 59.478563 
L 233.833783 60.222371 
L 231.645407 60.988101 
L 229.464797 61.775676 
L 227.292172 62.585018 
L 225.127749 63.416044 
L 222.971744 64.268673 
L 220.824373 65.14282 
L 218.685851 66.038395 
L 216.556391 66.955311 
L 214.436207 67.893476 
L 212.32551 68.852794 
L 210.224512 69.833172 
L 208.133423 70.83451 
L 206.052451 71.856709 
L 203.981805 72.899666 
L 201.921692 73.963276 
L 199.872318 75.047435 
L 197.833888 76.152032 
L 195.806606 77.276959 
L 193.790674 78.422101 
L 191.786294 79.587346 
L 189.793666 80.772575 
L 187.812991 81.977671 
L 185.844465 83.202514 
L 183.888285 84.44698 
L 181.944648 85.710945 
L 180.013748 86.994283 
L 178.095777 88.296866 
L 176.190928 89.618563 
L 174.299391 90.959242 
L 172.421355 92.318769 
L 170.557008 93.697008 
L 168.706536 95.093822 
L 166.870125 96.50907 
L 165.047957 97.942611 
L 163.240216 99.394301 
L 161.447082 100.863997 
L 159.668735 102.351549 
L 157.905351 103.856811 
L 156.157109 105.379631 
L 154.424181 106.919857 
L 152.706742 108.477334 
L 151.004964 110.051908 
L 149.319016 111.643421 
L 147.649067 113.251714 
L 145.995285 114.876625 
L 144.357834 116.517993 
L 142.736878 118.175652 
L 141.13258 119.849438 
L 139.545099 121.539184 
L 137.974595 123.244719 
L 136.421225 124.965873 
L 134.885143 126.702476 
L 133.366504 128.454351 
L 131.865459 130.221326 
L 130.382159 132.003222 
L 128.916752 133.799862 
L 127.469384 135.611066 
L 126.0402 137.436652 
L 124.629344 139.276439 
L 123.236955 141.130243 
L 121.863174 142.997877 
L 120.508137 144.879156 
L 119.171981 146.773891 
L 117.854838 148.681892 
L 116.556841 150.602969 
L 115.27812 152.53693 
L 114.018801 154.483581 
L 112.779012 156.442727 
L 111.558876 158.414174 
L 110.358515 160.397723 
L 109.178049 162.393176 
L 108.017596 164.400334 
L 106.877273 166.418996 
L 105.757193 168.44896 
L 104.657468 170.490023 
L 103.578209 172.541981 
L 102.519523 174.604629 
L 101.481515 176.677761 
L 100.464291 178.761169 
L 99.467951 180.854644 
L 98.492596 182.957979 
L 97.538322 185.070961 
L 96.605226 187.193381 
L 95.6934 189.325025 
L 94.802935 191.46568 
L 93.933922 193.615133 
L 93.086446 195.773169 
L 92.260592 197.939571 
L 91.456443 200.114124 
L 90.67408 202.296609 
L 89.91358 204.486808 
L 89.17502 206.684503 
L 88.458474 208.889473 
L 87.764012 211.101499 
L 87.091705 213.320358 
L 86.441621 215.54583 
L 85.813822 217.77769 
L 85.208374 220.015718 
L 84.625336 222.259687 
L 84.064766 224.509375 
L 83.52672 226.764556 
L 83.011254 229.025004 
L 82.518416 231.290494 
L 82.048259 233.560799 
L 81.600827 235.835692 
L 81.176166 238.114946 
L 80.774319 240.398332 
L 80.395325 242.685622 
L 80.039222 244.976588 
L 79.706047 247.271 
L 79.395832 249.568629 
L 79.108609 251.869246 
L 78.844405 254.172619 
L 78.603248 256.47852 
L 78.385162 258.786716 
L 78.190169 261.096978 
L 78.018287 263.409075 
L 77.869535 265.722774 
L 77.743926 268.037846 
L 77.641474 270.354058 
L 77.562189 272.671178 
L 77.506079 274.988975 
L 77.47315 277.307218 
L 77.463403 279.625674 
L 77.476842 281.944112 
L 77.513464 284.262299 
L 77.573265 286.580004 
L 77.656241 288.896995 
L 77.762381 291.213041 
L 77.891677 293.527909 
L 78.044114 295.841369 
L 78.219678 298.153189 
L 78.41835 300.463138 
L 78.640112 302.770984 
L 78.884941 305.076497 
L 79.152813 307.379447 
L 79.4437 309.679603 
L 79.757574 311.976735 
L 80.094403 314.270614 
L 80.454154 316.56101 
L 80.83679 318.847694 
L 81.242273 321.130437 
L 81.670564 323.409011 
L 82.121618 325.683189 
L 82.595391 327.952742 
L 83.091836 330.217444 
L 83.610902 332.477069 
L 84.152539 334.73139 
L 84.716691 336.980182 
L 85.303302 339.22322 
L 85.912314 341.46028 
L 86.543666 343.691138 
L 87.197295 345.915571 
L 87.873134 348.133357 
L 88.571118 350.344274 
L 89.291175 352.5481 
L 90.033235 354.744616 
L 90.797222 356.933601 
L 91.58306 359.114838 
L 92.390671 361.288106 
L 93.219974 363.453191 
L 94.070886 365.609874 
L 94.943322 367.75794 
L 95.837194 369.897175 
L 96.752414 372.027364 
L 97.68889 374.148295 
L 98.646527 376.259755 
L 99.625232 378.361533 
L 100.624904 380.453419 
L 101.645445 382.535204 
L 102.686753 384.60668 
L 103.748723 386.667639 
L 104.831249 388.717876 
L 105.934223 390.757185 
L 107.057535 392.785362 
L 108.201072 394.802206 
L 109.364719 396.807513 
L 110.548362 398.801084 
L 111.75188 400.782718 
L 112.975155 402.752219 
L 114.218063 404.709389 
L 115.48048 406.654032 
L 116.76228 408.585953 
L 118.063335 410.504961 
L 119.383515 412.410862 
L 120.722687 414.303466 
L 122.080718 416.182584 
L 123.457472 418.048028 
L 124.852811 419.899612 
L 126.266597 421.73715 
L 127.698686 423.560458 
L 129.148937 425.369354 
L 130.617204 427.163658 
L 132.10334 428.943189 
L 133.607197 430.707771 
L 135.128624 432.457226 
L 136.667469 434.191379 
L 138.223579 435.910058 
L 139.796797 437.61309 
L 141.386967 439.300304 
L 142.993929 440.971533 
L 144.617523 442.626609 
L 146.257586 444.265367 
L 147.913954 445.887642 
L 149.586462 447.493273 
L 151.274943 449.082099 
L 152.979227 450.65396 
L 154.699144 452.208701 
L 156.434522 453.746165 
L 158.185188 455.266198 
L 159.950967 456.76865 
L 161.731681 458.253368 
L 163.527154 459.720206 
L 165.337204 461.169015 
L 167.161652 462.599652 
L 169.000315 464.011974 
L 170.853009 465.405838 
L 172.719549 466.781106 
L 174.599748 468.137641 
L 176.493418 469.475305 
L 178.40037 470.793967 
L 180.320413 472.093493 
L 182.253355 473.373755 
L 184.199002 474.634623 
L 186.157161 475.875972 
L 188.127635 477.097677 
L 190.110228 478.299618 
L 192.10474 479.481672 
L 194.110974 480.643723 
L 196.128727 481.785653 
L 198.157798 482.907349 
L 200.197985 484.008699 
L 202.249083 485.089592 
L 204.310887 486.149921 
L 206.383192 487.189578 
L 208.465789 488.208461 
L 210.55847 489.206468 
L 212.661027 490.183498 
L 214.773249 491.139454 
L 216.894925 492.07424 
L 219.025842 492.987764 
L 221.165788 493.879932 
L 223.314548 494.750657 
L 225.471909 495.599852 
L 227.637653 496.42743 
L 229.811564 497.23331 
L 231.993425 498.017411 
L 234.183018 498.779655 
L 236.380124 499.519965 
L 238.584523 500.238267 
L 240.795995 500.93449 
L 243.014318 501.608563 
L 245.239271 502.26042 
L 247.470632 502.889995 
L 249.708176 503.497226 
L 251.95168 504.082051 
L 254.200921 504.644412 
L 256.455673 505.184253 
L 258.71571 505.70152 
L 260.980807 506.196161 
L 263.250737 506.668127 
L 265.525273 507.11737 
L 267.804187 507.543845 
L 270.087252 507.947511 
L 272.37424 508.328326 
L 274.664922 508.686253 
L 276.959068 509.021255 
L 279.256449 509.3333 
L 281.556836 509.622355 
L 283.859999 509.888393 
L 286.165706 510.131386 
L 288.473729 510.35131 
L 290.783835 510.548143 
L 293.095794 510.721866 
L 295.409374 510.872461 
L 297.724345 510.999913 
L 300.040474 511.104209 
L 302.357531 511.185339 
L 304.675283 511.243295 
L 306.993498 511.278071 
L 309.311946 511.289663 
L 309.311946 508.971177 
z
" clip-path="url(#pb4cce4d9f6)" style="fill: none; stroke: #000000; stroke-width: 0.5; stroke-linejoin: miter"/>
   </g>
   <g id="text_1">
    <text style="font: 3px 'DejaVu Sans', 'Bitstream Vera Sans', 'Computer Modern Sans Serif', 'Lucida Grande', 'Verdana', 'Geneva', 'Lucid', 'Arial', 'Helvetica', 'Avant Garde', sans-serif; text-anchor: start" x="543.479048" y="280.640812" transform="rotate(-0 543.479048 280.640812)">Universidade Lusada de Angola</text>
   </g>
   <g id="text_2">
    <text style="font: 3px 'DejaVu Sans', 'Bitstream Vera Sans', 'Computer Modern Sans Serif', 'Lucida Grande', 'Verdana', 'Geneva', 'Lucid', 'Arial', 'Helvetica', 'Avant Garde', sans-serif; text-anchor: end" x="75.144844" y="280.580812" transform="rotate(-0 75.144844 280.580812)">Agostinho Neto University</text>
   </g>
  </g>
 </g>
 <defs>
  <clipPath id="pb4cce4d9f6">
   <path d="M 552.752993 279.441047 
C 552.752993 247.472662 546.455918 215.815128 534.222147 186.280191 
C 521.988375 156.745255 504.055823 129.907294 481.450761 107.302232 
C 458.845699 84.69717 432.007738 66.764618 402.472801 54.530846 
C 372.937864 42.297075 341.280331 36 309.311946 36 
C 277.343561 36 245.686028 42.297075 216.151091 54.530846 
C 186.616154 66.764618 159.778193 84.69717 137.173131 107.302232 
C 114.568069 129.907294 96.635517 156.745255 84.401745 186.280191 
C 72.167974 215.815128 65.870899 247.472662 65.870899 279.441047 
C 65.870899 311.409432 72.167974 343.066965 84.401745 372.601902 
C 96.635517 402.136839 114.568069 428.9748 137.173131 451.579862 
C 159.778193 474.184924 186.616154 492.117476 216.151091 504.351247 
C 245.686028 516.585019 277.343561 522.882094 309.311946 522.882094 
C 341.280331 522.882094 372.937864 516.585019 402.472801 504.351247 
C 432.007738 492.117476 458.845699 474.184924 481.450761 451.579862 
C 504.055823 428.9748 521.988375 402.136839 534.222147 372.601902 
C 546.455918 343.066965 552.752993 311.409432 552.752993 279.441047 
M 309.311946 279.441047 
C 309.311946 279.441047 309.311946 279.441047 309.311946 279.441047 
C 309.311946 279.441047 309.311946 279.441047 309.311946 279.441047 
C 309.311946 279.441047 309.311946 279.441047 309.311946 279.441047 
C 309.311946 279.441047 309.311946 279.441047 309.311946 279.441047 
C 309.311946 279.441047 309.311946 279.441047 309.311946 279.441047 
C 309.311946 279.441047 309.311946 279.441047 309.311946 279.441047 
C 309.311946 279.441047 309.311946 279.441047 309.311946 279.441047 
C 309.311946 279.441047 309.311946 279.441047 309.311946 279.441047 
C 309.311946 279.441047 309.311946 279.441047 309.311946 279.441047 
C 309.311946 279.441047 309.311946 279.441047 309.311946 279.441047 
C 309.311946 279.441047 309.311946 279.441047 309.311946 279.441047 
C 309.311946 279.441047 309.311946 279.441047 309.311946 279.441047 
C 309.311946 279.441047 309.311946 279.441047 309.311946 279.441047 
C 309.311946 279.441047 309.311946 279.441047 309.311946 279.441047 
C 309.311946 279.441047 309.311946 279.441047 309.311946 279.441047 
C 309.311946 279.441047 309.311946 279.441047 309.311946 279.441047 
z
"/>
  </clipPath>
 </defs>
</svg>
