<?xml version="1.0" encoding="utf-8" standalone="no"?>
<!DOCTYPE svg PUBLIC "-//W3C//DTD SVG 1.1//EN"
  "http://www.w3.org/Graphics/SVG/1.1/DTD/svg11.dtd">
<svg xmlns:xlink="http://www.w3.org/1999/xlink" width="551.059323pt" height="626.945717pt" viewBox="0 0 551.059323 626.945717" xmlns="http://www.w3.org/2000/svg" version="1.1">
 <metadata>
  <rdf:RDF xmlns:dc="http://purl.org/dc/elements/1.1/" xmlns:cc="http://creativecommons.org/ns#" xmlns:rdf="http://www.w3.org/1999/02/22-rdf-syntax-ns#">
   <cc:Work>
    <dc:type rdf:resource="http://purl.org/dc/dcmitype/StillImage"/>
    <dc:date>2024-11-16T03:21:48.746654</dc:date>
    <dc:format>image/svg+xml</dc:format>
    <dc:creator>
     <cc:Agent>
      <dc:title>Matplotlib v3.8.4, https://matplotlib.org/</dc:title>
     </cc:Agent>
    </dc:creator>
   </cc:Work>
  </rdf:RDF>
 </metadata>
 <defs>
  <style type="text/css">*{stroke-linejoin: round; stroke-linecap: butt}</style>
 </defs>
 <g id="figure_1">
  <g id="patch_1">
   <path d="M 0 626.945717 
L 551.059323 626.945717 
L 551.059323 0 
L 0 0 
z
" style="fill: #ffffff"/>
  </g>
  <g id="axes_1">
   <g id="patch_2">
    <path d="M 284.188334 140.343694 
L 286.220304 140.353854 
L 288.25207 140.384332 
L 290.283431 140.435127 
L 292.314181 140.506232 
L 294.344119 140.597641 
L 296.373042 140.709345 
L 298.400746 140.841331 
L 300.427029 140.993588 
L 302.451688 141.1661 
L 304.47452 141.358849 
L 306.495325 141.571817 
L 308.513898 141.804981 
L 310.530039 142.05832 
L 311.857446 142.236313 
L 312.136932 140.202901 
L 310.796117 140.023111 
L 308.759611 139.767213 
L 306.720648 139.531693 
L 304.679431 139.316574 
L 302.636166 139.121878 
L 300.591056 138.947624 
L 298.544306 138.793829 
L 296.49612 138.660509 
L 294.446703 138.547677 
L 292.396261 138.455345 
L 290.344997 138.383522 
L 288.293118 138.332214 
L 286.240829 138.301427 
L 284.188334 138.291165 
z
" clip-path="url(#pe63db79a6d)" style="fill: #000080"/>
   </g>
   <g id="patch_3">
    <path d="M 311.857446 142.236313 
L 313.869107 142.523065 
L 315.877799 142.829918 
L 317.883323 143.156843 
L 319.885477 143.503807 
L 321.884061 143.870774 
L 323.878876 144.257709 
L 325.869721 144.664572 
L 327.856399 145.091323 
L 329.83871 145.537919 
L 331.816456 146.004315 
L 333.789439 146.490465 
L 335.757462 146.996321 
L 337.720328 147.521831 
L 339.677841 148.066943 
L 341.629805 148.631602 
L 343.576025 149.215753 
L 345.516306 149.819336 
L 347.450455 150.442292 
L 349.378277 151.084558 
L 351.299581 151.746069 
L 353.214173 152.42676 
L 355.121863 153.126563 
L 357.022459 153.845407 
L 358.915773 154.583221 
L 360.801613 155.339931 
L 362.679792 156.115461 
L 364.550122 156.909734 
L 366.412417 157.72267 
L 368.266488 158.554188 
L 370.112152 159.404205 
L 371.949224 160.272636 
L 373.777519 161.159394 
L 375.596856 162.06439 
L 377.407052 162.987534 
L 379.207926 163.928733 
L 380.999299 164.887894 
L 382.78099 165.86492 
L 384.552822 166.859714 
L 386.314618 167.872176 
L 388.066201 168.902206 
L 389.807397 169.949699 
L 391.538031 171.014552 
L 393.257929 172.096657 
L 394.966921 173.195907 
L 396.664836 174.312192 
L 398.351502 175.4454 
L 400.026753 176.595417 
L 401.690419 177.76213 
L 403.342336 178.94542 
L 404.982337 180.14517 
L 406.610259 181.36126 
L 408.225939 182.593568 
L 409.829215 183.84197 
L 411.419927 185.106343 
L 412.997917 186.38656 
L 414.563025 187.682492 
L 416.115096 188.99401 
L 417.653974 190.320983 
L 419.179506 191.663279 
L 420.691539 193.020762 
L 422.189922 194.393297 
L 423.674505 195.780748 
L 425.145139 197.182974 
L 426.601677 198.599837 
L 428.043975 200.031193 
L 429.471887 201.476901 
L 430.885271 202.936816 
L 432.283985 204.410791 
L 433.667889 205.89868 
L 435.036846 207.400333 
L 436.390719 208.9156 
L 437.729371 210.44433 
L 439.052669 211.986369 
L 440.36048 213.541565 
L 441.652675 215.10976 
L 442.929124 216.690799 
L 444.189698 218.284523 
L 445.434272 219.890773 
L 446.662722 221.509388 
L 447.874925 223.140206 
L 449.070759 224.783065 
L 450.250105 226.4378 
L 451.412845 228.104245 
L 452.558863 229.782235 
L 453.688044 231.4716 
L 454.800275 233.172172 
L 455.895445 234.883782 
L 456.973444 236.606257 
L 458.034165 238.339426 
L 459.077501 240.083116 
L 460.103349 241.837151 
L 461.111606 243.601358 
L 462.10217 245.375558 
L 463.074943 247.159575 
L 464.029827 248.95323 
L 464.966728 250.756345 
L 465.885551 252.568738 
L 466.786204 254.390229 
L 467.668597 256.220635 
L 468.532643 258.059773 
L 469.378255 259.907459 
L 470.205347 261.763509 
L 471.013838 263.627737 
L 471.803647 265.499957 
L 472.574694 267.379981 
L 473.326903 269.267622 
L 474.060198 271.16269 
L 474.774506 273.064996 
L 475.469756 274.974349 
L 476.145877 276.89056 
L 476.802803 278.813436 
L 477.440468 280.742785 
L 478.058808 282.678415 
L 478.657761 284.62013 
L 479.237267 286.567738 
L 479.797268 288.521044 
L 480.337709 290.479852 
L 480.858534 292.443966 
L 481.359693 294.41319 
L 481.841135 296.387327 
L 482.302812 298.36618 
L 482.744678 300.349551 
L 483.166688 302.337241 
L 483.5688 304.329052 
L 483.950975 306.324784 
L 484.313173 308.324238 
L 484.655359 310.327214 
L 484.977499 312.333512 
L 485.27956 314.34293 
L 485.561512 316.355269 
L 485.823326 318.370327 
L 486.064978 320.387902 
L 486.286442 322.407792 
L 486.487696 324.429797 
L 486.668721 326.453712 
L 486.829497 328.479337 
L 486.97001 330.506468 
L 487.090245 332.534903 
L 487.190189 334.564438 
L 487.269834 336.594872 
L 487.329171 338.626001 
L 487.368193 340.657621 
L 487.386898 342.68953 
L 487.385284 344.721525 
L 487.363349 346.753401 
L 487.321098 348.784957 
L 487.258533 350.815989 
L 487.175661 352.846294 
L 487.072491 354.875668 
L 486.949033 356.903909 
L 486.805299 358.930814 
L 486.641303 360.956181 
L 486.457062 362.979806 
L 486.252594 365.001488 
L 486.02792 367.021024 
L 485.783063 369.038212 
L 485.518046 371.052851 
L 485.232896 373.06474 
L 484.927642 375.073676 
L 484.602314 377.079459 
L 484.256945 379.081888 
L 483.891569 381.080764 
L 483.506223 383.075887 
L 483.138574 384.88639 
L 485.148173 385.303989 
L 485.519535 383.475198 
L 485.908774 381.459923 
L 486.27784 379.440856 
L 486.626698 377.4182 
L 486.955312 375.392157 
L 487.263649 373.362928 
L 487.551679 371.330718 
L 487.819373 369.295729 
L 488.066704 367.258165 
L 488.293647 365.21823 
L 488.50018 363.176127 
L 488.686282 361.132061 
L 488.851935 359.086236 
L 488.997121 357.038857 
L 489.121826 354.990129 
L 489.226039 352.940256 
L 489.309747 350.889443 
L 489.372944 348.837896 
L 489.415622 346.785819 
L 489.437778 344.733418 
L 489.439409 342.680899 
L 489.420515 340.628465 
L 489.381098 338.576323 
L 489.321162 336.524678 
L 489.240713 334.473735 
L 489.139759 332.423699 
L 489.01831 330.374775 
L 488.876378 328.327168 
L 488.713977 326.281082 
L 488.531124 324.236723 
L 488.327837 322.194295 
L 488.104136 320.154001 
L 487.860044 318.116047 
L 487.595584 316.080635 
L 487.310784 314.047969 
L 487.005672 312.018254 
L 486.680279 309.99169 
L 486.334636 307.968482 
L 485.968779 305.948832 
L 485.582744 303.932941 
L 485.17657 301.921011 
L 484.750297 299.913243 
L 484.303968 297.909838 
L 483.837628 295.910997 
L 483.351323 293.916919 
L 482.845102 291.927804 
L 482.319015 289.94385 
L 481.773116 287.965256 
L 481.207458 285.99222 
L 480.622098 284.024939 
L 480.017095 282.06361 
L 479.39251 280.108429 
L 478.748404 278.159592 
L 478.084842 276.217293 
L 477.401891 274.281726 
L 476.699619 272.353086 
L 475.978096 270.431565 
L 475.237393 268.517355 
L 474.477587 266.610647 
L 473.698751 264.711633 
L 472.900964 262.820502 
L 472.084307 260.937443 
L 471.24886 259.062645 
L 470.394707 257.196295 
L 469.521933 255.33858 
L 468.630627 253.489685 
L 467.720876 251.649795 
L 466.792772 249.819095 
L 465.846408 247.997768 
L 464.881878 246.185994 
L 463.899279 244.383957 
L 462.898709 242.591835 
L 461.880269 240.809809 
L 460.844059 239.038056 
L 459.790183 237.276753 
L 458.718748 235.526077 
L 457.62986 233.786203 
L 456.523628 232.057305 
L 455.400162 230.339555 
L 454.259575 228.633125 
L 453.101982 226.938187 
L 451.927497 225.254909 
L 450.736238 223.583459 
L 449.528325 221.924006 
L 448.303878 220.276715 
L 447.063019 218.64175 
L 445.805873 217.019275 
L 444.532566 215.409453 
L 443.243224 213.812444 
L 441.937977 212.228408 
L 440.616955 210.657504 
L 439.28029 209.099888 
L 437.928116 207.555716 
L 436.560569 206.025143 
L 435.177784 204.508322 
L 433.7799 203.005405 
L 432.367058 201.516541 
L 430.939397 200.04188 
L 429.497062 198.581569 
L 428.040196 197.135754 
L 426.568945 195.704579 
L 425.083456 194.288189 
L 423.583877 192.886724 
L 422.070359 191.500324 
L 420.543053 190.129129 
L 419.002112 188.773276 
L 417.447689 187.432899 
L 415.879941 186.108133 
L 414.299023 184.79911 
L 412.705095 183.505962 
L 411.098315 182.228818 
L 409.478844 180.967805 
L 407.846844 179.72305 
L 406.202479 178.494676 
L 404.545912 177.282807 
L 402.877309 176.087565 
L 401.196838 174.909067 
L 399.504666 173.747434 
L 397.800962 172.602779 
L 396.085897 171.475219 
L 394.359642 170.364865 
L 392.622371 169.271829 
L 390.874256 168.196221 
L 389.115473 167.138147 
L 387.346197 166.097713 
L 385.566605 165.075024 
L 383.776876 164.070181 
L 381.977187 163.083286 
L 380.16772 162.114437 
L 378.348655 161.16373 
L 376.520175 160.231262 
L 374.682461 159.317124 
L 372.835697 158.421409 
L 370.98007 157.544207 
L 369.115762 156.685604 
L 367.242963 155.845686 
L 365.361858 155.024539 
L 363.472635 154.222243 
L 361.575485 153.438879 
L 359.670595 152.674526 
L 357.758158 151.929259 
L 355.838363 151.203154 
L 353.911404 150.496282 
L 351.977472 149.808716 
L 350.036762 149.140522 
L 348.089466 148.491769 
L 346.135781 147.862521 
L 344.175901 147.252841 
L 342.210022 146.66279 
L 340.238341 146.092426 
L 338.261055 145.541808 
L 336.278362 145.01099 
L 334.29046 144.500025 
L 332.297548 144.008964 
L 330.299825 143.537857 
L 328.297491 143.08675 
L 326.290746 142.655688 
L 324.27979 142.244716 
L 322.264826 141.853873 
L 320.246054 141.483198 
L 318.223676 141.13273 
L 316.197895 140.802503 
L 314.168913 140.49255 
L 312.136932 140.202901 
z
" clip-path="url(#pe63db79a6d)" style="fill: #0000ff"/>
   </g>
   <g id="patch_4">
    <path d="M 483.138574 384.88639 
L 482.71521 386.873792 
L 482.271994 388.856861 
L 481.808969 390.835399 
L 481.326183 392.809208 
L 480.823683 394.778091 
L 480.301519 396.74185 
L 479.759744 398.700289 
L 479.198413 400.653213 
L 478.61758 402.600425 
L 478.017305 404.541733 
L 477.397647 406.47694 
L 476.758668 408.405855 
L 476.100433 410.328283 
L 475.423006 412.244033 
L 474.726456 414.152912 
L 474.010852 416.054731 
L 473.276267 417.9493 
L 472.522772 419.836427 
L 471.750445 421.715926 
L 470.959361 423.587607 
L 470.1496 425.451284 
L 469.321244 427.30677 
L 468.474374 429.15388 
L 467.609076 430.992429 
L 466.725436 432.822234 
L 465.823542 434.643111 
L 464.903485 436.454878 
L 463.965356 438.257353 
L 463.00925 440.050358 
L 462.035263 441.833712 
L 461.04349 443.607237 
L 460.034032 445.370756 
L 459.00699 447.124093 
L 457.962466 448.867071 
L 456.900565 450.599517 
L 455.821392 452.321258 
L 454.725057 454.032121 
L 453.611668 455.731936 
L 452.481337 457.420532 
L 451.334176 459.09774 
L 450.196911 460.725704 
L 451.873766 461.909357 
L 453.022518 460.264949 
L 454.181266 458.570799 
L 455.323015 456.865147 
L 456.44765 455.148162 
L 457.55506 453.420018 
L 458.645133 451.680886 
L 459.71776 449.93094 
L 460.772835 448.170356 
L 461.810251 446.399309 
L 462.829906 444.617977 
L 463.831696 442.826537 
L 464.815522 441.025169 
L 465.781286 439.214053 
L 466.72889 437.393371 
L 467.658241 435.563303 
L 468.569245 433.724034 
L 469.46181 431.875746 
L 470.335849 430.018626 
L 471.191273 428.152858 
L 472.027997 426.27863 
L 472.845937 424.396128 
L 473.645011 422.50554 
L 474.42514 420.607057 
L 475.186246 418.700868 
L 475.928252 416.787163 
L 476.651084 414.866133 
L 477.354669 412.937972 
L 478.038939 411.002871 
L 478.703823 409.061024 
L 479.349256 407.112626 
L 479.975173 405.157871 
L 480.581512 403.196954 
L 481.168212 401.230073 
L 481.735213 399.257423 
L 482.28246 397.279201 
L 482.809898 395.295606 
L 483.317474 393.306836 
L 483.805137 391.31309 
L 484.272839 389.314566 
L 484.720532 387.311466 
L 485.148173 385.303989 
z
" clip-path="url(#pe63db79a6d)" style="fill: #0060ff"/>
   </g>
   <g id="patch_5">
    <path d="M 450.196911 460.725704 
L 449.016814 462.379903 
L 447.820234 464.022219 
L 446.607291 465.652487 
L 445.378106 467.270544 
L 444.132802 468.876229 
L 442.871504 470.46938 
L 441.594338 472.049839 
L 440.301431 473.617448 
L 438.992914 475.172049 
L 437.668915 476.713488 
L 436.329569 478.241609 
L 434.975009 479.756262 
L 433.605371 481.257293 
L 432.22079 482.744553 
L 430.821407 484.217892 
L 429.407361 485.677165 
L 427.978792 487.122225 
L 426.535845 488.552926 
L 425.078663 489.969127 
L 423.607392 491.370686 
L 422.12218 492.757462 
L 420.623174 494.129317 
L 419.110525 495.486113 
L 417.584383 496.827716 
L 416.044903 498.15399 
L 414.492236 499.464803 
L 412.92654 500.760024 
L 411.347969 502.039524 
L 409.756683 503.303175 
L 408.15284 504.550849 
L 406.536601 505.782424 
L 404.908127 506.997774 
L 403.267581 508.196779 
L 401.615127 509.379319 
L 399.950931 510.545276 
L 398.275158 511.694533 
L 396.587977 512.826974 
L 394.889556 513.942488 
L 393.180066 515.040962 
L 391.459675 516.122286 
L 389.728558 517.186353 
L 387.986887 518.233056 
L 386.234837 519.262289 
L 384.472581 520.273952 
L 382.700298 521.267941 
L 380.918163 522.244158 
L 379.126355 523.202505 
L 377.325054 524.142887 
L 375.514439 525.065209 
L 373.694691 525.969378 
L 371.865993 526.855306 
L 370.028527 527.722902 
L 368.182477 528.572081 
L 366.328028 529.402757 
L 365.143579 529.921722 
L 365.961309 531.804325 
L 367.157722 531.280118 
L 369.030903 530.441051 
L 370.8956 529.583295 
L 372.751626 528.706935 
L 374.598796 527.812059 
L 376.436925 526.898756 
L 378.265829 525.967117 
L 380.085325 525.017237 
L 381.895232 524.04921 
L 383.695368 523.063132 
L 385.485553 522.059102 
L 387.265609 521.037221 
L 389.035358 519.997591 
L 390.794621 518.940316 
L 392.543224 517.865501 
L 394.280992 516.773254 
L 396.007751 515.663684 
L 397.723327 514.536903 
L 399.427551 513.393022 
L 401.12025 512.232157 
L 402.801256 511.054423 
L 404.470402 509.859938 
L 406.127519 508.648822 
L 407.772442 507.421195 
L 409.405007 506.177181 
L 411.02505 504.916903 
L 412.63241 503.640489 
L 414.226926 502.348065 
L 415.808437 501.03976 
L 417.376787 499.715706 
L 418.931818 498.376036 
L 420.473375 497.020882 
L 422.001304 495.65038 
L 423.515451 494.264668 
L 425.015666 492.863884 
L 426.501798 491.448168 
L 427.973699 490.017662 
L 429.431221 488.572509 
L 430.874219 487.112853 
L 432.302549 485.63884 
L 433.716068 484.150618 
L 435.114634 482.648335 
L 436.498107 481.132142 
L 437.86635 479.602191 
L 439.219224 478.058633 
L 440.556596 476.501625 
L 441.878331 474.93132 
L 443.184298 473.347877 
L 444.474365 471.751454 
L 445.748403 470.14221 
L 447.006286 468.520306 
L 448.247886 466.885905 
L 449.473081 465.23917 
L 450.681748 463.580265 
L 451.873766 461.909357 
z
" clip-path="url(#pe63db79a6d)" style="fill: #00d4ff"/>
   </g>
   <g id="patch_6">
    <path d="M 365.143579 529.921722 
L 363.275786 530.721942 
L 361.400084 531.503445 
L 359.516661 532.266152 
L 357.625705 533.009986 
L 355.727405 533.734875 
L 353.821952 534.440744 
L 351.909535 535.127524 
L 349.990347 535.795145 
L 348.064578 536.443542 
L 346.132421 537.072649 
L 344.19407 537.682403 
L 342.249719 538.272744 
L 340.299561 538.843611 
L 338.343793 539.394949 
L 336.382609 539.926703 
L 334.416205 540.438818 
L 332.444779 540.931243 
L 330.468527 541.40393 
L 328.487648 541.856832 
L 326.502338 542.289902 
L 324.512797 542.703098 
L 322.519223 543.096378 
L 320.521817 543.469703 
L 318.520777 543.823035 
L 316.516304 544.15634 
L 314.508598 544.469584 
L 312.49786 544.762735 
L 310.484292 545.035765 
L 308.468093 545.288646 
L 306.449467 545.521352 
L 304.428615 545.733861 
L 302.405738 545.926151 
L 300.38104 546.098203 
L 298.354723 546.25 
L 296.326989 546.381526 
L 294.298041 546.492769 
L 292.268082 546.583717 
L 290.237316 546.654361 
L 288.205944 546.704694 
L 286.17417 546.734712 
L 284.142198 546.74441 
L 282.110231 546.733789 
L 280.078472 546.702849 
L 278.047123 546.651593 
L 276.016388 546.580027 
L 273.986471 546.488157 
L 271.957574 546.375993 
L 269.9299 546.243546 
L 267.903652 546.090829 
L 265.879032 545.917858 
L 263.856243 545.724649 
L 261.835488 545.511223 
L 259.816967 545.2776 
L 257.800884 545.023803 
L 255.787439 544.749859 
L 253.776835 544.455795 
L 251.769272 544.14164 
L 249.76495 543.807425 
L 247.764071 543.453183 
L 245.766834 543.078951 
L 243.773439 542.684766 
L 241.784086 542.270667 
L 239.798973 541.836695 
L 237.8183 541.382895 
L 235.842263 540.90931 
L 233.87106 540.415989 
L 231.90489 539.902981 
L 229.943947 539.370338 
L 227.988429 538.818112 
L 226.038531 538.246358 
L 224.094448 537.655135 
L 222.156374 537.044501 
L 220.224504 536.414517 
L 218.299029 535.765245 
L 216.380144 535.096752 
L 214.468039 534.409104 
L 212.562906 533.70237 
L 210.664936 532.97662 
L 208.774318 532.231926 
L 206.891242 531.468364 
L 205.015895 530.68601 
L 203.148465 529.884942 
L 201.289139 529.06524 
L 199.438103 528.226986 
L 197.595542 527.370263 
L 195.76164 526.495159 
L 193.936581 525.601759 
L 192.120547 524.690154 
L 190.313719 523.760434 
L 188.516279 522.812693 
L 186.728406 521.847025 
L 184.950279 520.863527 
L 183.182076 519.862297 
L 181.423973 518.843435 
L 179.676147 517.807044 
L 177.938772 516.753226 
L 176.212021 515.682088 
L 174.496068 514.593736 
L 172.791084 513.488279 
L 171.09724 512.365828 
L 169.414705 511.226495 
L 167.743647 510.070394 
L 166.084234 508.89764 
L 164.436631 507.708351 
L 162.801003 506.502646 
L 161.177513 505.280645 
L 159.566325 504.042471 
L 157.967599 502.788246 
L 156.381494 501.518098 
L 155.951036 501.168869 
L 154.65571 502.761039 
L 155.090516 503.113795 
L 156.692642 504.396774 
L 158.307517 505.663667 
L 159.93498 506.914348 
L 161.574868 508.148692 
L 163.227018 509.366576 
L 164.891263 510.567878 
L 166.567439 511.752478 
L 168.255376 512.920257 
L 169.954906 514.071099 
L 171.66586 515.204888 
L 173.388066 516.321511 
L 175.121351 517.420856 
L 176.865544 518.502814 
L 178.620468 519.567276 
L 180.385949 520.614136 
L 182.161811 521.643289 
L 183.947875 522.654632 
L 185.743963 523.648065 
L 187.549895 524.623487 
L 189.365491 525.580801 
L 191.190569 526.519912 
L 193.024947 527.440726 
L 194.868441 528.34315 
L 196.720867 529.227094 
L 198.58204 530.09247 
L 200.451773 530.939191 
L 202.32988 531.767173 
L 204.216173 532.576333 
L 206.110463 533.36659 
L 208.012561 534.137864 
L 209.922276 534.89008 
L 211.839417 535.623161 
L 213.763794 536.337034 
L 215.695213 537.031628 
L 217.633481 537.706874 
L 219.578404 538.362703 
L 221.529789 538.999051 
L 223.487439 539.615853 
L 225.451159 540.213048 
L 227.420753 540.790577 
L 229.396024 541.348381 
L 231.376774 541.886405 
L 233.362805 542.404595 
L 235.353918 542.902899 
L 237.349915 543.381267 
L 239.350596 543.839651 
L 241.355761 544.278007 
L 243.365208 544.696289 
L 245.378738 545.094455 
L 247.396149 545.472468 
L 249.417239 545.830287 
L 251.441806 546.167878 
L 253.469648 546.485207 
L 255.500562 546.782241 
L 257.534344 547.058952 
L 259.570792 547.315312 
L 261.609701 547.551295 
L 263.650869 547.766877 
L 265.69409 547.962038 
L 267.73916 548.136756 
L 269.785875 548.291016 
L 271.834031 548.4248 
L 273.883422 548.538097 
L 275.933844 548.630895 
L 277.98509 548.703185 
L 280.036958 548.754958 
L 282.08924 548.786211 
L 284.141732 548.796939 
L 286.194229 548.787143 
L 288.246526 548.756822 
L 290.298416 548.70598 
L 292.349696 548.634622 
L 294.400159 548.542756 
L 296.449602 548.430389 
L 298.497818 548.297534 
L 300.544603 548.144204 
L 302.589753 547.970415 
L 304.633062 547.776182 
L 306.674327 547.561527 
L 308.713343 547.32647 
L 310.749907 547.071035 
L 312.783815 546.795247 
L 314.814864 546.499135 
L 316.842849 546.182727 
L 318.867569 545.846055 
L 320.888822 545.489154 
L 322.906404 545.112058 
L 324.920115 544.714805 
L 326.929752 544.297436 
L 328.935115 543.859991 
L 330.936004 543.402515 
L 332.932218 542.925053 
L 334.923557 542.427654 
L 336.909824 541.910366 
L 338.890818 541.373241 
L 340.866341 540.816334 
L 342.836197 540.2397 
L 344.800189 539.643397 
L 346.758119 539.027483 
L 348.709792 538.392022 
L 350.655013 537.737076 
L 352.593588 537.06271 
L 354.525322 536.368993 
L 356.450022 535.655994 
L 358.367497 534.923784 
L 360.277553 534.172435 
L 362.180001 533.402025 
L 364.074649 532.612628 
L 365.961309 531.804325 
z
" clip-path="url(#pe63db79a6d)" style="fill: #4dffaa"/>
   </g>
   <g id="patch_7">
    <path d="M 155.951036 501.168869 
L 154.381226 499.878636 
L 152.824397 498.57277 
L 151.280703 497.251401 
L 149.750301 495.914662 
L 148.233342 494.562685 
L 146.729979 493.195607 
L 145.240361 491.813564 
L 143.764638 490.416694 
L 142.302957 489.005137 
L 140.855465 487.579034 
L 139.422305 486.138527 
L 138.003623 484.683762 
L 136.599558 483.214882 
L 135.210253 481.732035 
L 133.835845 480.23537 
L 132.476472 478.725036 
L 131.13227 477.201183 
L 129.803374 475.663965 
L 128.489916 474.113535 
L 127.192028 472.550049 
L 125.909839 470.973662 
L 124.643478 469.384532 
L 123.393072 467.782818 
L 122.158744 466.16868 
L 120.94062 464.54228 
L 119.73882 462.90378 
L 118.553465 461.253344 
L 117.384674 459.591138 
L 116.232562 457.917327 
L 115.097246 456.232079 
L 113.978839 454.535561 
L 112.877453 452.827945 
L 111.793198 451.109401 
L 110.726182 449.3801 
L 109.676512 447.640216 
L 108.644294 445.889922 
L 107.629629 444.129393 
L 106.63262 442.358807 
L 105.653367 440.578338 
L 104.691967 438.788167 
L 103.748517 436.988471 
L 102.82311 435.179431 
L 101.91584 433.361227 
L 101.026796 431.534041 
L 100.156069 429.698057 
L 99.303745 427.853457 
L 98.469909 426.000427 
L 97.654645 424.139151 
L 96.858034 422.269815 
L 96.080156 420.392607 
L 95.321089 418.507714 
L 94.580908 416.615325 
L 93.859688 414.715629 
L 93.1575 412.808816 
L 92.474416 410.895076 
L 91.810502 408.974601 
L 91.165826 407.047584 
L 90.540453 405.114216 
L 89.934444 403.174691 
L 89.34786 401.229203 
L 88.78076 399.277946 
L 88.233201 397.321116 
L 87.705237 395.358909 
L 87.196921 393.39152 
L 86.708304 391.419146 
L 86.239435 389.441985 
L 85.790361 387.460234 
L 85.361126 385.474092 
L 84.951774 383.483756 
L 84.562345 381.489427 
L 84.192879 379.491303 
L 83.843412 377.489584 
L 83.51398 375.484471 
L 83.204615 373.476164 
L 82.915348 371.464864 
L 82.646208 369.450772 
L 82.397222 367.434089 
L 82.168415 365.415017 
L 81.95981 363.393757 
L 81.771428 361.370513 
L 81.603287 359.345487 
L 81.455404 357.31888 
L 81.327795 355.290896 
L 81.220471 353.261737 
L 81.133444 351.231606 
L 81.066723 349.200707 
L 81.020313 347.169242 
L 80.99422 345.137414 
L 80.988447 343.105427 
L 81.002993 341.073484 
L 81.037857 339.041788 
L 81.093037 337.010542 
L 81.168525 334.97995 
L 81.264316 332.950214 
L 81.380399 330.921537 
L 81.516762 328.894123 
L 81.673392 326.868173 
L 81.850274 324.843891 
L 82.047389 322.821479 
L 82.264719 320.80114 
L 82.50224 318.783074 
L 82.75993 316.767485 
L 83.037763 314.754573 
L 83.33571 312.744541 
L 83.653743 310.737588 
L 83.991828 308.733916 
L 84.349934 306.733725 
L 84.728023 304.737214 
L 85.126058 302.744585 
L 85.543999 300.756035 
L 85.981804 298.771764 
L 86.439429 296.791971 
L 86.91683 294.816852 
L 87.413957 292.846606 
L 87.930762 290.88143 
L 88.467192 288.92152 
L 89.023194 286.967073 
L 89.598713 285.018283 
L 90.19369 283.075345 
L 90.808067 281.138454 
L 91.441781 279.207804 
L 92.094771 277.283588 
L 92.720575 275.496397 
L 90.786557 274.809047 
L 90.154431 276.61429 
L 89.494847 278.557943 
L 88.854731 280.508095 
L 88.234148 282.46455 
L 87.633161 284.427113 
L 87.051829 286.395588 
L 86.490211 288.369778 
L 85.948362 290.349484 
L 85.426337 292.334511 
L 84.924188 294.324658 
L 84.441966 296.319727 
L 83.979718 298.319519 
L 83.53749 300.323833 
L 83.115328 302.332469 
L 82.713272 304.345226 
L 82.331364 306.361903 
L 81.969641 308.382298 
L 81.628141 310.406209 
L 81.306896 312.433435 
L 81.005939 314.463771 
L 80.7253 316.497015 
L 80.465007 318.532964 
L 80.225086 320.571413 
L 80.005562 322.61216 
L 79.806455 324.655001 
L 79.627787 326.69973 
L 79.469574 328.746144 
L 79.331834 330.794037 
L 79.214578 332.843205 
L 79.11782 334.893444 
L 79.041569 336.944547 
L 78.985832 338.996311 
L 78.950616 341.048529 
L 78.935922 343.100997 
L 78.941755 345.153509 
L 78.968111 347.20586 
L 79.014989 349.257845 
L 79.082385 351.309258 
L 79.170291 353.359895 
L 79.278698 355.409551 
L 79.407597 357.45802 
L 79.556973 359.505097 
L 79.726812 361.550579 
L 79.917098 363.59426 
L 80.12781 365.635935 
L 80.358928 367.675402 
L 80.610429 369.712456 
L 80.882287 371.746892 
L 81.174476 373.778509 
L 81.486966 375.807102 
L 81.819726 377.832469 
L 82.172723 379.854406 
L 82.545921 381.872713 
L 82.939283 383.887187 
L 83.35277 385.897627 
L 83.786341 387.903832 
L 84.239951 389.9056 
L 84.713556 391.902733 
L 85.207109 393.895029 
L 85.720559 395.882291 
L 86.253856 397.864319 
L 86.806946 399.840915 
L 87.379774 401.811881 
L 87.972283 403.77702 
L 88.584414 405.736136 
L 89.216104 407.689033 
L 89.867292 409.635516 
L 90.537911 411.575389 
L 91.227896 413.50846 
L 91.937176 415.434534 
L 92.665681 417.353419 
L 93.413339 419.264923 
L 94.180073 421.168855 
L 94.965809 423.065025 
L 95.770466 424.953243 
L 96.593966 426.83332 
L 97.436224 428.705068 
L 98.297157 430.5683 
L 99.17668 432.422829 
L 100.074703 434.268471 
L 100.991138 436.10504 
L 101.925892 437.932354 
L 102.878872 439.750228 
L 103.849984 441.558483 
L 104.839128 443.356935 
L 105.846208 445.145407 
L 106.871121 446.923718 
L 107.913767 448.691692 
L 108.974039 450.449151 
L 110.051833 452.19592 
L 111.14704 453.931823 
L 112.259552 455.656688 
L 113.389256 457.370341 
L 114.536039 459.072612 
L 115.699788 460.763331 
L 116.880386 462.442327 
L 118.077714 464.109434 
L 119.291653 465.764484 
L 120.522082 467.407313 
L 121.768877 469.037755 
L 123.031914 470.655648 
L 124.311067 472.260829 
L 125.606207 473.85314 
L 126.917205 475.432419 
L 128.24393 476.99851 
L 129.586249 478.551255 
L 130.944029 480.0905 
L 132.317133 481.61609 
L 133.705424 483.127873 
L 135.108763 484.625698 
L 136.527009 486.109415 
L 137.960022 487.578876 
L 139.407658 489.033933 
L 140.869771 490.474441 
L 142.346217 491.900256 
L 143.836846 493.311236 
L 145.34151 494.707239 
L 146.860059 496.088126 
L 148.392341 497.453759 
L 149.938202 498.804001 
L 151.497488 500.138717 
L 153.070043 501.457773 
L 154.65571 502.761039 
z
" clip-path="url(#pe63db79a6d)" style="fill: #aaff4d"/>
   </g>
   <g id="patch_8">
    <path d="M 92.720575 275.496397 
L 93.410613 273.585153 
L 94.119729 271.680906 
L 94.847852 269.783845 
L 95.594909 267.894159 
L 96.360825 266.012039 
L 97.145523 264.137672 
L 97.948926 262.271245 
L 98.770953 260.412946 
L 99.611521 258.562959 
L 100.470546 256.721471 
L 101.347943 254.888665 
L 102.243624 253.064724 
L 103.1575 251.249831 
L 104.089478 249.444168 
L 105.039466 247.647914 
L 106.007369 245.86125 
L 106.99309 244.084354 
L 107.99653 242.317404 
L 109.017589 240.560577 
L 110.056165 238.814048 
L 111.112154 237.077991 
L 112.185451 235.352582 
L 113.275948 233.637991 
L 114.383535 231.934391 
L 115.508104 230.241952 
L 116.64954 228.560843 
L 117.80773 226.891232 
L 118.982557 225.233286 
L 120.173905 223.587171 
L 121.381655 221.953052 
L 122.605685 220.331092 
L 123.845873 218.721453 
L 125.102095 217.124296 
L 126.374226 215.539781 
L 127.662138 213.968067 
L 128.965703 212.409309 
L 130.284789 210.863666 
L 131.619266 209.33129 
L 132.969 207.812335 
L 134.333855 206.306954 
L 135.713696 204.815296 
L 137.108384 203.33751 
L 138.51778 201.873746 
L 139.941743 200.424148 
L 141.380131 198.988862 
L 142.832799 197.568031 
L 144.299603 196.161798 
L 145.780395 194.770303 
L 147.275028 193.393686 
L 148.783352 192.032083 
L 150.305217 190.685631 
L 151.84047 189.354465 
L 153.388957 188.038718 
L 154.950525 186.738521 
L 156.525016 185.454005 
L 158.112273 184.185297 
L 159.712138 182.932526 
L 161.32445 181.695815 
L 162.949049 180.475289 
L 164.585771 179.27107 
L 166.234454 178.083278 
L 167.894931 176.912031 
L 169.567039 175.757448 
L 171.250608 174.619644 
L 172.94547 173.498731 
L 174.651457 172.394823 
L 176.368398 171.30803 
L 178.096121 170.238461 
L 178.608688 169.925723 
L 177.542227 168.172003 
L 177.024482 168.487899 
L 175.279308 169.568273 
L 173.545024 170.666043 
L 171.821805 171.781102 
L 170.109823 172.913336 
L 168.409248 174.062634 
L 166.720251 175.22888 
L 165.043 176.411957 
L 163.377664 177.611747 
L 161.724409 178.82813 
L 160.083401 180.060984 
L 158.454803 181.310187 
L 156.838778 182.575613 
L 155.235487 183.857136 
L 153.645092 185.154627 
L 152.067752 186.467957 
L 150.503623 187.796995 
L 148.952862 189.141607 
L 147.415625 190.501659 
L 145.892065 191.877015 
L 144.382335 193.267538 
L 142.886585 194.673089 
L 141.404965 196.093526 
L 139.937624 197.528708 
L 138.484707 198.978492 
L 137.046361 200.442732 
L 135.622728 201.921283 
L 134.213952 203.413995 
L 132.820174 204.92072 
L 131.441532 206.441308 
L 130.078165 207.975605 
L 128.730208 209.52346 
L 127.397797 211.084716 
L 126.081066 212.659218 
L 124.780144 214.246809 
L 123.495164 215.847329 
L 122.226252 217.460619 
L 120.973537 219.086517 
L 119.737143 220.72486 
L 118.517194 222.375486 
L 117.313812 224.038228 
L 116.127117 225.71292 
L 114.957229 227.399396 
L 113.804263 229.097486 
L 112.668335 230.807021 
L 111.54956 232.527829 
L 110.448048 234.259739 
L 109.36391 236.002577 
L 108.297254 237.756169 
L 107.248187 239.52034 
L 106.216815 241.294913 
L 105.203239 243.079711 
L 104.207561 244.874555 
L 103.229882 246.679266 
L 102.270298 248.493664 
L 101.328905 250.317566 
L 100.405799 252.150791 
L 99.501071 253.993156 
L 98.614811 255.844475 
L 97.747108 257.704564 
L 96.89805 259.573237 
L 96.06772 261.450308 
L 95.256202 263.335587 
L 94.463577 265.228887 
L 93.689925 267.130019 
L 92.935322 269.038792 
L 92.199844 270.955015 
L 91.483566 272.878498 
L 90.786557 274.809047 
z
" clip-path="url(#pe63db79a6d)" style="fill: #ffe600"/>
   </g>
   <g id="patch_9">
    <path d="M 178.608688 169.925723 
L 180.350121 168.878625 
L 182.101938 167.848994 
L 183.863964 166.836931 
L 185.636022 165.84254 
L 187.417935 164.865918 
L 189.209525 163.907164 
L 191.010613 162.966373 
L 192.821018 162.043641 
L 194.640561 161.139058 
L 196.469058 160.252715 
L 198.306326 159.384701 
L 200.152183 158.535103 
L 202.006444 157.704006 
L 203.868922 156.891493 
L 205.739433 156.097645 
L 207.617788 155.322541 
L 209.5038 154.566259 
L 211.397281 153.828875 
L 213.298041 153.110463 
L 215.205889 152.411093 
L 217.120636 151.730837 
L 219.04209 151.069761 
L 220.970058 150.427934 
L 222.904348 149.805417 
L 224.844766 149.202274 
L 226.791119 148.618565 
L 228.743211 148.054349 
L 229.365533 147.878914 
L 228.811767 145.902499 
L 228.183159 146.079706 
L 226.211349 146.649621 
L 224.245336 147.239226 
L 222.285318 147.848461 
L 220.331489 148.477266 
L 218.384047 149.125577 
L 216.443185 149.793329 
L 214.509097 150.480457 
L 212.581977 151.186891 
L 210.662018 151.91256 
L 208.749411 152.657393 
L 206.844348 153.421314 
L 204.94702 154.204247 
L 203.057615 155.006114 
L 201.176324 155.826834 
L 199.303333 156.666326 
L 197.438831 157.524506 
L 195.583004 158.401287 
L 193.736038 159.296583 
L 191.898116 160.210303 
L 190.069424 161.142356 
L 188.250143 162.09265 
L 186.440456 163.061088 
L 184.640544 164.047575 
L 182.850586 165.052011 
L 181.070763 166.074296 
L 179.30125 167.114328 
L 177.542227 168.172003 
z
" clip-path="url(#pe63db79a6d)" style="fill: #ff7a00"/>
   </g>
   <g id="patch_10">
    <path d="M 229.365533 147.878914 
L 231.324893 147.340479 
L 233.289539 146.821663 
L 235.259275 146.32252 
L 237.233904 145.843098 
L 239.213228 145.383447 
L 241.19705 144.943611 
L 243.185171 144.523635 
L 245.177392 144.123562 
L 247.173514 143.74343 
L 249.173338 143.383277 
L 251.176663 143.043141 
L 253.183289 142.723055 
L 255.193016 142.423051 
L 256.519222 142.236313 
L 256.239736 140.202901 
L 254.900134 140.391525 
L 252.870107 140.69456 
L 250.843212 141.01788 
L 248.819651 141.361451 
L 246.799627 141.725241 
L 244.783342 142.109213 
L 242.770998 142.513328 
L 240.762795 142.937546 
L 238.758934 143.381824 
L 236.759617 143.846119 
L 234.765042 144.330383 
L 232.77541 144.834568 
L 230.790919 145.358624 
L 228.811767 145.902499 
z
" clip-path="url(#pe63db79a6d)" style="fill: #ff1300"/>
   </g>
   <g id="patch_11">
    <path d="M 256.519222 142.236313 
L 258.533649 141.969692 
L 260.550642 141.723228 
L 262.569998 141.496946 
L 264.591517 141.290868 
L 266.614995 141.105016 
L 268.64023 140.939407 
L 270.66702 140.794059 
L 272.695162 140.668985 
L 274.724454 140.564199 
L 276.754692 140.479711 
L 278.785673 140.415529 
L 280.817195 140.37166 
L 282.849053 140.348107 
L 284.188334 140.343694 
L 284.188334 138.291165 
L 282.835525 138.295623 
L 280.783143 138.319413 
L 278.731101 138.363726 
L 276.679605 138.428556 
L 274.628859 138.513898 
L 272.57907 138.619742 
L 270.530441 138.746079 
L 268.483179 138.892896 
L 266.437486 139.060177 
L 264.393569 139.247907 
L 262.351631 139.456066 
L 260.311877 139.684633 
L 258.274511 139.933587 
L 256.239736 140.202901 
z
" clip-path="url(#pe63db79a6d)" style="fill: #800000"/>
   </g>
   <g id="PatchCollection_1">
    <path d="M 365.143579 529.921722 
L 365.143579 529.921722 
L 363.275786 530.721942 
L 361.400084 531.503445 
L 359.516661 532.266152 
L 357.625705 533.009986 
L 355.727405 533.734875 
L 353.821952 534.440744 
L 351.909535 535.127524 
L 349.990347 535.795145 
L 348.064578 536.443542 
L 346.132421 537.072649 
L 344.19407 537.682403 
L 342.249719 538.272744 
L 340.299561 538.843611 
L 339.011135 539.209195 
L 339.011135 539.209195 
Q 284.188334 343.544055 256.519222 142.236313 
L 256.519222 142.236313 
L 256.519222 142.236313 
L 258.533649 141.969692 
L 260.550642 141.723228 
L 262.569998 141.496946 
L 264.591517 141.290868 
L 266.614995 141.105016 
L 268.64023 140.939407 
L 270.66702 140.794059 
L 272.695162 140.668985 
L 274.724454 140.564199 
L 276.754692 140.479711 
L 278.785673 140.415529 
L 280.817195 140.37166 
L 282.849053 140.348107 
L 284.188334 140.343694 
L 284.188334 140.343694 
Q 284.188334 343.544055 365.143579 529.921722 
z
" clip-path="url(#pe63db79a6d)" style="fill: #4dffaa; fill-opacity: 0.5; stroke: #808080; stroke-opacity: 0.5; stroke-width: 0.1"/>
    <path d="M 339.011135 539.209195 
L 339.011135 539.209195 
L 337.051776 539.747631 
L 335.087129 540.266446 
L 333.117393 540.76559 
L 331.142764 541.245011 
L 329.16344 541.704663 
L 327.179618 542.144498 
L 325.191497 542.564474 
L 323.199276 542.964548 
L 321.203154 543.34468 
L 319.20333 543.704832 
L 317.200005 544.044968 
L 315.193379 544.365054 
L 313.183652 544.665059 
L 311.857446 544.851797 
L 311.857446 544.851797 
Q 284.188334 343.544055 178.608688 169.925723 
L 178.608688 169.925723 
L 178.608688 169.925723 
L 180.350121 168.878625 
L 182.101938 167.848994 
L 183.863964 166.836931 
L 185.636022 165.84254 
L 187.417935 164.865918 
L 189.209525 163.907164 
L 191.010613 162.966373 
L 192.821018 162.043641 
L 194.640561 161.139058 
L 196.469058 160.252715 
L 198.306326 159.384701 
L 200.152183 158.535103 
L 202.006444 157.704006 
L 203.233089 157.166387 
L 203.233089 157.166387 
Q 284.188334 343.544055 339.011135 539.209195 
z
" clip-path="url(#pe63db79a6d)" style="fill: #4dffaa; fill-opacity: 0.5; stroke: #808080; stroke-opacity: 0.5; stroke-width: 0.1"/>
    <path d="M 311.857446 544.851797 
L 311.857446 544.851797 
L 309.843019 545.118418 
L 307.826026 545.364882 
L 305.80667 545.591164 
L 303.785151 545.797241 
L 301.761674 545.983093 
L 299.736438 546.148702 
L 297.709648 546.29405 
L 295.681506 546.419124 
L 293.652214 546.52391 
L 291.621976 546.608398 
L 289.590995 546.67258 
L 287.559474 546.71645 
L 285.527615 546.740002 
L 283.495622 546.743235 
L 281.463699 546.726148 
L 279.432048 546.688743 
L 277.400873 546.631024 
L 275.370377 546.552996 
L 273.340762 546.454668 
L 271.312232 546.336048 
L 269.28499 546.19715 
L 267.259238 546.037986 
L 265.235178 545.858574 
L 263.213015 545.65893 
L 261.192948 545.439074 
L 259.175182 545.19903 
L 257.159916 544.93882 
L 256.519222 544.851797 
L 256.519222 544.851797 
Q 284.188334 343.544055 92.720575 275.496397 
L 92.720575 275.496397 
L 92.720575 275.496397 
L 93.410613 273.585153 
L 94.119729 271.680906 
L 94.847852 269.783845 
L 95.594909 267.894159 
L 96.360825 266.012039 
L 97.145523 264.137672 
L 97.948926 262.271245 
L 98.770953 260.412946 
L 99.611521 258.562959 
L 100.470546 256.721471 
L 101.347943 254.888665 
L 102.243624 253.064724 
L 103.1575 251.249831 
L 104.089478 249.444168 
L 105.039466 247.647914 
L 106.007369 245.86125 
L 106.99309 244.084354 
L 107.99653 242.317404 
L 109.017589 240.560577 
L 110.056165 238.814048 
L 111.112154 237.077991 
L 112.185451 235.352582 
L 113.275948 233.637991 
L 114.383535 231.934391 
L 115.508104 230.241952 
L 116.64954 228.560843 
L 117.80773 226.891232 
L 118.179757 226.362405 
L 118.179757 226.362405 
Q 284.188334 343.544055 311.857446 544.851797 
z
" clip-path="url(#pe63db79a6d)" style="fill: #4dffaa; fill-opacity: 0.5; stroke: #808080; stroke-opacity: 0.5; stroke-width: 0.1"/>
    <path d="M 256.519222 544.851797 
L 256.519222 544.851797 
L 254.507561 544.565045 
L 252.498869 544.258191 
L 250.493346 543.931266 
L 248.491192 543.584302 
L 246.492607 543.217335 
L 244.497793 542.8304 
L 242.506947 542.423537 
L 240.520269 541.996787 
L 238.537958 541.550191 
L 236.560213 541.083794 
L 234.587229 540.597644 
L 232.619206 540.091789 
L 230.65634 539.566279 
L 228.698827 539.021167 
L 226.746863 538.456507 
L 224.800643 537.872356 
L 222.860362 537.268773 
L 220.926213 536.645817 
L 218.998391 536.003552 
L 217.077088 535.34204 
L 215.162495 534.661349 
L 213.254805 533.961547 
L 211.354209 533.242702 
L 209.460896 532.504888 
L 207.575055 531.748178 
L 205.696876 530.972648 
L 203.826546 530.178375 
L 201.964252 529.365439 
L 200.11018 528.533921 
L 198.264516 527.683904 
L 196.427444 526.815473 
L 194.599149 525.928716 
L 192.779812 525.02372 
L 190.969616 524.100576 
L 189.168742 523.159376 
L 187.377369 522.200216 
L 185.595678 521.223189 
L 183.823846 520.228395 
L 182.06205 519.215933 
L 180.310467 518.185904 
L 178.608688 517.162386 
L 178.608688 517.162386 
Q 284.188334 343.544055 155.951036 501.168869 
L 155.951036 501.168869 
L 155.951036 501.168869 
L 154.381226 499.878636 
L 152.824397 498.57277 
L 151.280703 497.251401 
L 149.750301 495.914662 
L 148.233342 494.562685 
L 146.729979 493.195607 
L 145.240361 491.813564 
L 143.764638 490.416694 
L 142.302957 489.005137 
L 140.855465 487.579034 
L 139.422305 486.138527 
L 138.003623 484.683762 
L 136.599558 483.214882 
L 135.210253 481.732035 
L 133.835845 480.23537 
L 132.476472 478.725036 
L 131.13227 477.201183 
L 129.803374 475.663965 
L 128.489916 474.113535 
L 127.192028 472.550049 
L 125.909839 470.973662 
L 124.643478 469.384532 
L 123.393072 467.782818 
L 122.158744 466.16868 
L 120.94062 464.54228 
L 119.73882 462.90378 
L 118.553465 461.253344 
L 117.384674 459.591138 
L 116.232562 457.917327 
L 115.097246 456.232079 
L 113.978839 454.535561 
L 112.877453 452.827945 
L 111.793198 451.109401 
L 110.726182 449.3801 
L 109.676512 447.640216 
L 108.644294 445.889922 
L 107.629629 444.129393 
L 106.63262 442.358807 
L 105.653367 440.578338 
L 104.691967 438.788167 
L 103.769737 437.029436 
L 103.769737 437.029436 
Q 284.188334 343.544055 256.519222 544.851797 
z
" clip-path="url(#pe63db79a6d)" style="fill: #4dffaa; fill-opacity: 0.5; stroke: #808080; stroke-opacity: 0.5; stroke-width: 0.1"/>
    <path d="M 450.196911 460.725704 
L 450.196911 460.725704 
L 449.016814 462.379903 
L 447.820234 464.022219 
L 446.607291 465.652487 
L 445.378106 467.270544 
L 444.132802 468.876229 
L 442.871504 470.46938 
L 441.594338 472.049839 
L 440.301431 473.617448 
L 438.992914 475.172049 
L 437.668915 476.713488 
L 436.329569 478.241609 
L 434.975009 479.756262 
L 433.605371 481.257293 
L 432.694466 482.2391 
L 432.694466 482.2391 
Q 284.188334 343.544055 229.365533 147.878914 
L 229.365533 147.878914 
L 229.365533 147.878914 
L 231.324893 147.340479 
L 233.289539 146.821663 
L 235.259275 146.32252 
L 237.233904 145.843098 
L 239.213228 145.383447 
L 241.19705 144.943611 
L 243.185171 144.523635 
L 245.177392 144.123562 
L 247.173514 143.74343 
L 249.173338 143.383277 
L 251.176663 143.043141 
L 253.183289 142.723055 
L 255.193016 142.423051 
L 256.519222 142.236313 
L 256.519222 142.236313 
Q 284.188334 343.544055 450.196911 460.725704 
z
" clip-path="url(#pe63db79a6d)" style="fill: #00d4ff; fill-opacity: 0.5; stroke: #808080; stroke-opacity: 0.5; stroke-width: 0.1"/>
    <path d="M 432.694466 482.2391 
L 432.694466 482.2391 
L 431.300113 483.717202 
L 429.89105 485.181286 
L 428.467416 486.631207 
L 427.029354 488.06682 
L 425.577009 489.48798 
L 424.110524 490.894546 
L 422.630048 492.286377 
L 421.135728 493.663334 
L 419.627713 495.02528 
L 418.106154 496.372077 
L 416.571203 497.703591 
L 415.023014 499.01969 
L 413.461742 500.320241 
L 412.425632 501.168869 
L 412.425632 501.168869 
Q 284.188334 343.544055 178.608688 517.162386 
L 178.608688 517.162386 
L 178.608688 517.162386 
L 176.877813 516.097926 
L 175.157668 515.016211 
L 173.448427 513.917349 
L 171.750259 512.80145 
L 170.063335 511.668625 
L 168.387824 510.518988 
L 166.723892 509.352654 
L 165.071707 508.169739 
L 163.431433 506.970361 
L 161.803235 505.754641 
L 160.187276 504.5227 
L 158.583716 503.274661 
L 156.992717 502.010649 
L 155.951036 501.168869 
L 155.951036 501.168869 
Q 284.188334 343.544055 432.694466 482.2391 
z
" clip-path="url(#pe63db79a6d)" style="fill: #00d4ff; fill-opacity: 0.5; stroke: #808080; stroke-opacity: 0.5; stroke-width: 0.1"/>
    <path d="M 483.138574 384.88639 
L 483.138574 384.88639 
L 482.71521 386.873792 
L 482.271994 388.856861 
L 481.808969 390.835399 
L 481.326183 392.809208 
L 480.823683 394.778091 
L 480.301519 396.74185 
L 479.759744 398.700289 
L 479.198413 400.653213 
L 478.61758 402.600425 
L 478.017305 404.541733 
L 477.397647 406.47694 
L 476.758668 408.405855 
L 476.100433 410.328283 
L 475.656094 411.591713 
L 475.656094 411.591713 
Q 284.188334 343.544055 103.769737 437.029436 
L 103.769737 437.029436 
L 103.769737 437.029436 
L 102.84392 435.220606 
L 101.936237 433.402609 
L 101.046779 431.575625 
L 100.175635 429.739839 
L 99.322892 427.895432 
L 98.488635 426.042591 
L 97.672949 424.1815 
L 96.875913 422.312346 
L 96.097609 420.435314 
L 95.338114 418.550594 
L 94.597503 416.658373 
L 93.875852 414.758841 
L 93.173231 412.852187 
L 92.720575 411.591713 
L 92.720575 411.591713 
Q 284.188334 343.544055 483.138574 384.88639 
z
" clip-path="url(#pe63db79a6d)" style="fill: #0060ff; fill-opacity: 0.5; stroke: #808080; stroke-opacity: 0.5; stroke-width: 0.1"/>
    <path d="M 475.656094 411.591713 
L 475.656094 411.591713 
L 474.966055 413.502956 
L 474.256939 415.407204 
L 473.528816 417.304265 
L 472.781759 419.19395 
L 472.015843 421.07607 
L 471.231145 422.950438 
L 470.427742 424.816864 
L 469.605716 426.675164 
L 468.765148 428.52515 
L 467.906122 430.366639 
L 467.028725 432.199445 
L 466.133044 434.023385 
L 465.219169 435.838278 
L 464.606931 437.029436 
L 464.606931 437.029436 
Q 284.188334 343.544055 311.857446 142.236313 
L 311.857446 142.236313 
L 311.857446 142.236313 
L 313.869107 142.523065 
L 315.877799 142.829918 
L 317.883323 143.156843 
L 319.885477 143.503807 
L 321.884061 143.870774 
L 323.878876 144.257709 
L 325.869721 144.664572 
L 327.856399 145.091323 
L 329.83871 145.537919 
L 331.816456 146.004315 
L 333.789439 146.490465 
L 335.757462 146.996321 
L 337.720328 147.521831 
L 339.011135 147.878914 
L 339.011135 147.878914 
Q 284.188334 343.544055 475.656094 411.591713 
z
" clip-path="url(#pe63db79a6d)" style="fill: #0060ff; fill-opacity: 0.5; stroke: #808080; stroke-opacity: 0.5; stroke-width: 0.1"/>
    <path d="M 339.011135 147.878914 
L 339.011135 147.878914 
L 340.965013 148.436916 
L 342.913213 149.014429 
L 344.855541 149.611394 
L 346.791802 150.227753 
L 348.721802 150.863443 
L 350.64535 151.518401 
L 352.562251 152.192561 
L 354.472316 152.885856 
L 356.375352 153.598217 
L 358.271169 154.329573 
L 360.159578 155.079849 
L 362.040391 155.848972 
L 363.913418 156.636864 
L 365.143579 157.166387 
L 365.143579 157.166387 
Q 284.188334 343.544055 203.233089 157.166387 
L 203.233089 157.166387 
L 203.233089 157.166387 
L 205.100882 156.366167 
L 206.976584 155.584664 
L 208.860007 154.821958 
L 210.750963 154.078123 
L 212.649263 153.353235 
L 214.554716 152.647365 
L 216.467133 151.960586 
L 218.386322 151.292964 
L 220.312091 150.644567 
L 222.244247 150.01546 
L 224.182598 149.405706 
L 226.12695 148.815366 
L 228.077107 148.244498 
L 229.365533 147.878914 
L 229.365533 147.878914 
Q 284.188334 343.544055 339.011135 147.878914 
z
" clip-path="url(#pe63db79a6d)" style="fill: #0000ff; fill-opacity: 0.5; stroke: #808080; stroke-opacity: 0.5; stroke-width: 0.1"/>
    <path d="M 365.143579 157.166387 
L 365.143579 157.166387 
L 367.003277 157.985245 
L 368.854694 158.822658 
L 370.697644 159.678544 
L 372.531943 160.552816 
L 374.357407 161.445387 
L 376.173855 162.356167 
L 377.981105 163.285066 
L 379.778975 164.231991 
L 381.567286 165.196847 
L 383.34586 166.179538 
L 385.114518 167.179965 
L 386.873083 168.198028 
L 388.62138 169.233626 
L 390.359233 170.286654 
L 392.08647 171.357008 
L 393.802917 172.444581 
L 395.508402 173.549263 
L 397.202756 174.670945 
L 398.885808 175.809514 
L 400.557391 176.964856 
L 402.217337 178.136856 
L 403.86548 179.325397 
L 405.501655 180.530359 
L 407.125699 181.751623 
L 408.73745 182.989066 
L 410.336745 184.242564 
L 411.923426 185.511992 
L 413.497334 186.797223 
L 415.058311 188.098129 
L 416.606201 189.414579 
L 418.140849 190.746442 
L 419.662102 192.093585 
L 421.169808 193.455872 
L 422.663816 194.833168 
L 424.143976 196.225336 
L 425.610141 197.632235 
L 427.062164 199.053725 
L 428.499899 200.489664 
L 429.923204 201.939908 
L 431.331935 203.404312 
L 432.694466 204.84901 
L 432.694466 204.84901 
Q 284.188334 343.544055 118.179757 226.362405 
L 118.179757 226.362405 
L 118.179757 226.362405 
L 119.359854 224.708206 
L 120.556434 223.06589 
L 121.769377 221.435623 
L 122.998562 219.817565 
L 124.243866 218.211881 
L 125.505164 216.618729 
L 126.78233 215.03827 
L 128.075237 213.470662 
L 129.383755 211.91606 
L 130.707753 210.374622 
L 132.047099 208.8465 
L 133.401659 207.331848 
L 134.771298 205.830817 
L 136.155878 204.343557 
L 137.555261 202.870217 
L 138.969308 201.410944 
L 140.397876 199.965885 
L 141.840823 198.535183 
L 143.298005 197.118982 
L 144.769276 195.717423 
L 146.254489 194.330647 
L 147.753494 192.958792 
L 149.266144 191.601996 
L 150.792285 190.260394 
L 152.331766 188.93412 
L 153.884432 187.623306 
L 155.450129 186.328085 
L 157.028699 185.048585 
L 158.619985 183.784935 
L 160.223828 182.53726 
L 161.840067 181.305686 
L 163.468541 180.090335 
L 165.109087 178.89133 
L 166.761541 177.70879 
L 168.425737 176.542833 
L 170.10151 175.393577 
L 171.788691 174.261135 
L 173.487112 173.145621 
L 175.196603 172.047147 
L 176.916993 170.965823 
L 178.608688 169.925723 
L 178.608688 169.925723 
Q 284.188334 343.544055 365.143579 157.166387 
z
" clip-path="url(#pe63db79a6d)" style="fill: #0000ff; fill-opacity: 0.5; stroke: #808080; stroke-opacity: 0.5; stroke-width: 0.1"/>
    <path d="M 432.694466 204.84901 
L 432.694466 204.84901 
L 434.073968 206.340981 
L 435.438482 207.846672 
L 436.78787 209.365933 
L 438.121999 210.898612 
L 439.440735 212.444555 
L 440.743946 214.003608 
L 442.031501 215.575615 
L 443.303272 217.160419 
L 444.559131 218.757861 
L 445.798954 220.367782 
L 447.022616 221.99002 
L 448.229994 223.624413 
L 449.420969 225.270798 
L 450.59542 226.929011 
L 451.753231 228.598884 
L 452.894285 230.280253 
L 454.018469 231.972947 
L 455.12567 233.676799 
L 456.215777 235.391637 
L 457.288682 237.11729 
L 458.344277 238.853586 
L 459.382457 240.600351 
L 460.403117 242.35741 
L 461.406156 244.124588 
L 462.391473 245.901708 
L 463.35897 247.688591 
L 464.30855 249.485061 
L 465.240119 251.290936 
L 466.153582 253.106036 
L 467.048849 254.93018 
L 467.92583 256.763185 
L 468.784438 258.604869 
L 469.624585 260.455046 
L 470.44619 262.313532 
L 471.249169 264.180141 
L 472.033442 266.054686 
L 472.79893 267.93698 
L 473.545558 269.826835 
L 474.27325 271.724062 
L 474.981934 273.62847 
L 475.671539 275.53987 
L 476.341995 277.45807 
L 476.993236 279.382879 
L 477.625197 281.314104 
L 478.237815 283.251552 
L 478.831027 285.195029 
L 479.404776 287.144341 
L 479.959003 289.099293 
L 480.493653 291.059689 
L 481.008672 293.025334 
L 481.50401 294.99603 
L 481.979617 296.971582 
L 482.435444 298.95179 
L 482.871447 300.936458 
L 483.287582 302.925386 
L 483.683807 304.918376 
L 484.060083 306.915229 
L 484.416371 308.915745 
L 484.752637 310.919723 
L 485.068847 312.926964 
L 485.364969 314.937266 
L 485.640973 316.95043 
L 485.896833 318.966252 
L 486.132521 320.984532 
L 486.348015 323.005068 
L 486.543294 325.027659 
L 486.718337 327.0521 
L 486.873128 329.078191 
L 486.914988 329.677172 
L 486.914988 329.677172 
Q 284.188334 343.544055 92.720575 411.591713 
L 92.720575 411.591713 
L 92.720575 411.591713 
L 92.049683 409.673665 
L 91.398004 407.749004 
L 90.765605 405.817922 
L 90.152548 403.880614 
L 89.558894 401.937271 
L 88.984703 399.98809 
L 88.430032 398.033264 
L 87.894937 396.072989 
L 87.379471 394.107461 
L 86.883686 392.136877 
L 86.407631 390.161434 
L 85.951354 388.181329 
L 85.5149 386.196761 
L 85.098314 384.207927 
L 84.701636 382.215026 
L 84.324907 380.218259 
L 83.968164 378.217825 
L 83.631443 376.213923 
L 83.314778 374.206754 
L 83.0182 372.196518 
L 82.741738 370.183418 
L 82.485421 368.167654 
L 82.249274 366.149427 
L 82.033321 364.12894 
L 81.837584 362.106394 
L 81.662081 360.081992 
L 81.50683 358.055937 
L 81.371848 356.02843 
L 81.257147 353.999674 
L 81.162739 351.969874 
L 81.088633 349.93923 
L 81.034838 347.907947 
L 81.001357 345.876228 
L 80.988195 343.844275 
L 80.995353 341.812293 
L 81.02283 339.780484 
L 81.070623 337.749051 
L 81.138728 335.718197 
L 81.227137 333.688126 
L 81.335843 331.659041 
L 81.464834 329.631144 
L 81.614097 327.604638 
L 81.783617 325.579727 
L 81.973377 323.556611 
L 82.183359 321.535495 
L 82.413541 319.516579 
L 82.6639 317.500066 
L 82.934412 315.486158 
L 83.225049 313.475055 
L 83.535782 311.466959 
L 83.86658 309.462071 
L 84.21741 307.460591 
L 84.588238 305.462719 
L 84.979024 303.468655 
L 85.389732 301.478599 
L 85.82032 299.49275 
L 86.270744 297.511305 
L 86.740959 295.534464 
L 87.230919 293.562423 
L 87.740575 291.595381 
L 88.269876 289.633534 
L 88.818768 287.677077 
L 89.387196 285.726207 
L 89.975105 283.781119 
L 90.582435 281.842008 
L 91.209126 279.909066 
L 91.855114 277.982488 
L 92.520335 276.062466 
L 92.720575 275.496397 
L 92.720575 275.496397 
Q 284.188334 343.544055 432.694466 204.84901 
z
" clip-path="url(#pe63db79a6d)" style="fill: #0000ff; fill-opacity: 0.5; stroke: #808080; stroke-opacity: 0.5; stroke-width: 0.1"/>
    <path d="M 486.914988 329.677172 
L 486.914988 329.677172 
L 487.043518 331.705098 
L 487.151763 333.734208 
L 487.239712 335.764299 
L 487.307356 337.795168 
L 487.354688 339.826611 
L 487.381704 341.858427 
L 487.3884 343.890411 
L 487.374777 345.922361 
L 487.340835 347.954072 
L 487.286578 349.985343 
L 487.212011 352.015969 
L 487.117142 354.045749 
L 487.001981 356.074478 
L 486.914988 357.410938 
L 486.914988 357.410938 
Q 284.188334 343.544055 412.425632 501.168869 
L 412.425632 501.168869 
L 412.425632 501.168869 
L 410.842999 502.443339 
L 409.2477 503.70192 
L 407.639895 504.944485 
L 406.019745 506.17091 
L 404.387412 507.381073 
L 402.743059 508.574852 
L 401.086851 509.752128 
L 399.418953 510.912783 
L 397.739532 512.056702 
L 396.048756 513.183769 
L 394.346794 514.293873 
L 392.633817 515.386902 
L 390.909995 516.462746 
L 389.76798 517.162386 
L 389.76798 517.162386 
Q 284.188334 343.544055 486.914988 329.677172 
z
" clip-path="url(#pe63db79a6d)" style="fill: #0000ff; fill-opacity: 0.5; stroke: #808080; stroke-opacity: 0.5; stroke-width: 0.1"/>
    <path d="M 486.914988 357.410938 
L 486.914988 357.410938 
L 486.766185 359.437477 
L 486.597125 361.462427 
L 486.407824 363.485585 
L 486.198301 365.50675 
L 485.968577 367.525717 
L 485.718676 369.542287 
L 485.448621 371.556257 
L 485.158441 373.567426 
L 484.848164 375.575592 
L 484.517821 377.580556 
L 484.167445 379.582115 
L 483.797072 381.580071 
L 483.406738 383.574223 
L 483.138574 384.88639 
L 483.138574 384.88639 
Q 284.188334 343.544055 464.606931 437.029436 
L 464.606931 437.029436 
L 464.606931 437.029436 
L 463.663072 438.828918 
L 462.701266 440.618871 
L 461.721608 442.399117 
L 460.724197 444.169478 
L 459.709133 445.929776 
L 458.676517 447.679835 
L 457.626452 449.419481 
L 456.559044 451.14854 
L 455.474398 452.866838 
L 454.372624 454.574204 
L 453.253832 456.270467 
L 452.118134 457.955457 
L 450.965642 459.629007 
L 450.196911 460.725704 
L 450.196911 460.725704 
Q 284.188334 343.544055 486.914988 357.410938 
z
" clip-path="url(#pe63db79a6d)" style="fill: #0000ff; fill-opacity: 0.5; stroke: #808080; stroke-opacity: 0.5; stroke-width: 0.1"/>
    <path d="M 284.188334 140.343694 
L 284.188334 140.343694 
L 286.220304 140.353854 
L 288.25207 140.384332 
L 290.283431 140.435127 
L 292.314181 140.506232 
L 294.344119 140.597641 
L 296.373042 140.709345 
L 298.400746 140.841331 
L 300.427029 140.993588 
L 302.451688 141.1661 
L 304.47452 141.358849 
L 306.495325 141.571817 
L 308.513898 141.804981 
L 310.530039 142.05832 
L 311.857446 142.236313 
L 311.857446 142.236313 
Q 284.188334 343.544055 389.76798 517.162386 
L 389.76798 517.162386 
L 389.76798 517.162386 
L 388.026547 518.209484 
L 386.27473 519.239116 
L 384.512704 520.251178 
L 382.740646 521.24557 
L 380.958733 522.222191 
L 379.167143 523.180945 
L 377.366055 524.121736 
L 375.55565 525.044469 
L 373.736108 525.949052 
L 371.907611 526.835394 
L 370.070342 527.703408 
L 368.224485 528.553006 
L 366.370225 529.384103 
L 365.143579 529.921722 
L 365.143579 529.921722 
Q 284.188334 343.544055 284.188334 140.343694 
z
" clip-path="url(#pe63db79a6d)" style="fill: #000080; fill-opacity: 0.5; stroke: #808080; stroke-opacity: 0.5; stroke-width: 0.1"/>
   </g>
   <g id="patch_12">
    <path d="M 284.188334 140.343694 
L 286.220304 140.353854 
L 288.25207 140.384332 
L 290.283431 140.435127 
L 292.314181 140.506232 
L 294.344119 140.597641 
L 296.373042 140.709345 
L 298.400746 140.841331 
L 300.427029 140.993588 
L 302.451688 141.1661 
L 304.47452 141.358849 
L 306.495325 141.571817 
L 308.513898 141.804981 
L 310.530039 142.05832 
L 311.857446 142.236313 
L 312.136932 140.202901 
L 310.796117 140.023111 
L 308.759611 139.767213 
L 306.720648 139.531693 
L 304.679431 139.316574 
L 302.636166 139.121878 
L 300.591056 138.947624 
L 298.544306 138.793829 
L 296.49612 138.660509 
L 294.446703 138.547677 
L 292.396261 138.455345 
L 290.344997 138.383522 
L 288.293118 138.332214 
L 286.240829 138.301427 
L 284.188334 138.291165 
L 284.188334 140.343694 
z
" clip-path="url(#pe63db79a6d)" style="fill: none; stroke: #000000; stroke-width: 0.5; stroke-linejoin: miter"/>
   </g>
   <g id="patch_13">
    <path d="M 311.857446 142.236313 
L 313.869107 142.523065 
L 315.877799 142.829918 
L 317.883323 143.156843 
L 319.885477 143.503807 
L 321.884061 143.870774 
L 323.878876 144.257709 
L 325.869721 144.664572 
L 327.856399 145.091323 
L 329.83871 145.537919 
L 331.816456 146.004315 
L 333.789439 146.490465 
L 335.757462 146.996321 
L 337.720328 147.521831 
L 339.677841 148.066943 
L 341.629805 148.631602 
L 343.576025 149.215753 
L 345.516306 149.819336 
L 347.450455 150.442292 
L 349.378277 151.084558 
L 351.299581 151.746069 
L 353.214173 152.42676 
L 355.121863 153.126563 
L 357.022459 153.845407 
L 358.915773 154.583221 
L 360.801613 155.339931 
L 362.679792 156.115461 
L 364.550122 156.909734 
L 366.412417 157.72267 
L 368.266488 158.554188 
L 370.112152 159.404205 
L 371.949224 160.272636 
L 373.777519 161.159394 
L 375.596856 162.06439 
L 377.407052 162.987534 
L 379.207926 163.928733 
L 380.999299 164.887894 
L 382.78099 165.86492 
L 384.552822 166.859714 
L 386.314618 167.872176 
L 388.066201 168.902206 
L 389.807397 169.949699 
L 391.538031 171.014552 
L 393.257929 172.096657 
L 394.966921 173.195907 
L 396.664836 174.312192 
L 398.351502 175.4454 
L 400.026753 176.595417 
L 401.690419 177.76213 
L 403.342336 178.94542 
L 404.982337 180.14517 
L 406.610259 181.36126 
L 408.225939 182.593568 
L 409.829215 183.84197 
L 411.419927 185.106343 
L 412.997917 186.38656 
L 414.563025 187.682492 
L 416.115096 188.99401 
L 417.653974 190.320983 
L 419.179506 191.663279 
L 420.691539 193.020762 
L 422.189922 194.393297 
L 423.674505 195.780748 
L 425.145139 197.182974 
L 426.601677 198.599837 
L 428.043975 200.031193 
L 429.471887 201.476901 
L 430.885271 202.936816 
L 432.283985 204.410791 
L 433.667889 205.89868 
L 435.036846 207.400333 
L 436.390719 208.9156 
L 437.729371 210.44433 
L 439.052669 211.986369 
L 440.36048 213.541565 
L 441.652675 215.10976 
L 442.929124 216.690799 
L 444.189698 218.284523 
L 445.434272 219.890773 
L 446.662722 221.509388 
L 447.874925 223.140206 
L 449.070759 224.783065 
L 450.250105 226.4378 
L 451.412845 228.104245 
L 452.558863 229.782235 
L 453.688044 231.4716 
L 454.800275 233.172172 
L 455.895445 234.883782 
L 456.973444 236.606257 
L 458.034165 238.339426 
L 459.077501 240.083116 
L 460.103349 241.837151 
L 461.111606 243.601358 
L 462.10217 245.375558 
L 463.074943 247.159575 
L 464.029827 248.95323 
L 464.966728 250.756345 
L 465.885551 252.568738 
L 466.786204 254.390229 
L 467.668597 256.220635 
L 468.532643 258.059773 
L 469.378255 259.907459 
L 470.205347 261.763509 
L 471.013838 263.627737 
L 471.803647 265.499957 
L 472.574694 267.379981 
L 473.326903 269.267622 
L 474.060198 271.16269 
L 474.774506 273.064996 
L 475.469756 274.974349 
L 476.145877 276.89056 
L 476.802803 278.813436 
L 477.440468 280.742785 
L 478.058808 282.678415 
L 478.657761 284.62013 
L 479.237267 286.567738 
L 479.797268 288.521044 
L 480.337709 290.479852 
L 480.858534 292.443966 
L 481.359693 294.41319 
L 481.841135 296.387327 
L 482.302812 298.36618 
L 482.744678 300.349551 
L 483.166688 302.337241 
L 483.5688 304.329052 
L 483.950975 306.324784 
L 484.313173 308.324238 
L 484.655359 310.327214 
L 484.977499 312.333512 
L 485.27956 314.34293 
L 485.561512 316.355269 
L 485.823326 318.370327 
L 486.064978 320.387902 
L 486.286442 322.407792 
L 486.487696 324.429797 
L 486.668721 326.453712 
L 486.829497 328.479337 
L 486.97001 330.506468 
L 487.090245 332.534903 
L 487.190189 334.564438 
L 487.269834 336.594872 
L 487.329171 338.626001 
L 487.368193 340.657621 
L 487.386898 342.68953 
L 487.385284 344.721525 
L 487.363349 346.753401 
L 487.321098 348.784957 
L 487.258533 350.815989 
L 487.175661 352.846294 
L 487.072491 354.875668 
L 486.949033 356.903909 
L 486.805299 358.930814 
L 486.641303 360.956181 
L 486.457062 362.979806 
L 486.252594 365.001488 
L 486.02792 367.021024 
L 485.783063 369.038212 
L 485.518046 371.052851 
L 485.232896 373.06474 
L 484.927642 375.073676 
L 484.602314 377.079459 
L 484.256945 379.081888 
L 483.891569 381.080764 
L 483.506223 383.075887 
L 483.138574 384.88639 
L 485.148173 385.303989 
L 485.519535 383.475198 
L 485.908774 381.459923 
L 486.27784 379.440856 
L 486.626698 377.4182 
L 486.955312 375.392157 
L 487.263649 373.362928 
L 487.551679 371.330718 
L 487.819373 369.295729 
L 488.066704 367.258165 
L 488.293647 365.21823 
L 488.50018 363.176127 
L 488.686282 361.132061 
L 488.851935 359.086236 
L 488.997121 357.038857 
L 489.121826 354.990129 
L 489.226039 352.940256 
L 489.309747 350.889443 
L 489.372944 348.837896 
L 489.415622 346.785819 
L 489.437778 344.733418 
L 489.439409 342.680899 
L 489.420515 340.628465 
L 489.381098 338.576323 
L 489.321162 336.524678 
L 489.240713 334.473735 
L 489.139759 332.423699 
L 489.01831 330.374775 
L 488.876378 328.327168 
L 488.713977 326.281082 
L 488.531124 324.236723 
L 488.327837 322.194295 
L 488.104136 320.154001 
L 487.860044 318.116047 
L 487.595584 316.080635 
L 487.310784 314.047969 
L 487.005672 312.018254 
L 486.680279 309.99169 
L 486.334636 307.968482 
L 485.968779 305.948832 
L 485.582744 303.932941 
L 485.17657 301.921011 
L 484.750297 299.913243 
L 484.303968 297.909838 
L 483.837628 295.910997 
L 483.351323 293.916919 
L 482.845102 291.927804 
L 482.319015 289.94385 
L 481.773116 287.965256 
L 481.207458 285.99222 
L 480.622098 284.024939 
L 480.017095 282.06361 
L 479.39251 280.108429 
L 478.748404 278.159592 
L 478.084842 276.217293 
L 477.401891 274.281726 
L 476.699619 272.353086 
L 475.978096 270.431565 
L 475.237393 268.517355 
L 474.477587 266.610647 
L 473.698751 264.711633 
L 472.900964 262.820502 
L 472.084307 260.937443 
L 471.24886 259.062645 
L 470.394707 257.196295 
L 469.521933 255.33858 
L 468.630627 253.489685 
L 467.720876 251.649795 
L 466.792772 249.819095 
L 465.846408 247.997768 
L 464.881878 246.185994 
L 463.899279 244.383957 
L 462.898709 242.591835 
L 461.880269 240.809809 
L 460.844059 239.038056 
L 459.790183 237.276753 
L 458.718748 235.526077 
L 457.62986 233.786203 
L 456.523628 232.057305 
L 455.400162 230.339555 
L 454.259575 228.633125 
L 453.101982 226.938187 
L 451.927497 225.254909 
L 450.736238 223.583459 
L 449.528325 221.924006 
L 448.303878 220.276715 
L 447.063019 218.64175 
L 445.805873 217.019275 
L 444.532566 215.409453 
L 443.243224 213.812444 
L 441.937977 212.228408 
L 440.616955 210.657504 
L 439.28029 209.099888 
L 437.928116 207.555716 
L 436.560569 206.025143 
L 435.177784 204.508322 
L 433.7799 203.005405 
L 432.367058 201.516541 
L 430.939397 200.04188 
L 429.497062 198.581569 
L 428.040196 197.135754 
L 426.568945 195.704579 
L 425.083456 194.288189 
L 423.583877 192.886724 
L 422.070359 191.500324 
L 420.543053 190.129129 
L 419.002112 188.773276 
L 417.447689 187.432899 
L 415.879941 186.108133 
L 414.299023 184.79911 
L 412.705095 183.505962 
L 411.098315 182.228818 
L 409.478844 180.967805 
L 407.846844 179.72305 
L 406.202479 178.494676 
L 404.545912 177.282807 
L 402.877309 176.087565 
L 401.196838 174.909067 
L 399.504666 173.747434 
L 397.800962 172.602779 
L 396.085897 171.475219 
L 394.359642 170.364865 
L 392.622371 169.271829 
L 390.874256 168.196221 
L 389.115473 167.138147 
L 387.346197 166.097713 
L 385.566605 165.075024 
L 383.776876 164.070181 
L 381.977187 163.083286 
L 380.16772 162.114437 
L 378.348655 161.16373 
L 376.520175 160.231262 
L 374.682461 159.317124 
L 372.835697 158.421409 
L 370.98007 157.544207 
L 369.115762 156.685604 
L 367.242963 155.845686 
L 365.361858 155.024539 
L 363.472635 154.222243 
L 361.575485 153.438879 
L 359.670595 152.674526 
L 357.758158 151.929259 
L 355.838363 151.203154 
L 353.911404 150.496282 
L 351.977472 149.808716 
L 350.036762 149.140522 
L 348.089466 148.491769 
L 346.135781 147.862521 
L 344.175901 147.252841 
L 342.210022 146.66279 
L 340.238341 146.092426 
L 338.261055 145.541808 
L 336.278362 145.01099 
L 334.29046 144.500025 
L 332.297548 144.008964 
L 330.299825 143.537857 
L 328.297491 143.08675 
L 326.290746 142.655688 
L 324.27979 142.244716 
L 322.264826 141.853873 
L 320.246054 141.483198 
L 318.223676 141.13273 
L 316.197895 140.802503 
L 314.168913 140.49255 
L 312.136932 140.202901 
L 311.857446 142.236313 
z
" clip-path="url(#pe63db79a6d)" style="fill: none; stroke: #000000; stroke-width: 0.5; stroke-linejoin: miter"/>
   </g>
   <g id="patch_14">
    <path d="M 483.138574 384.88639 
L 482.71521 386.873792 
L 482.271994 388.856861 
L 481.808969 390.835399 
L 481.326183 392.809208 
L 480.823683 394.778091 
L 480.301519 396.74185 
L 479.759744 398.700289 
L 479.198413 400.653213 
L 478.61758 402.600425 
L 478.017305 404.541733 
L 477.397647 406.47694 
L 476.758668 408.405855 
L 476.100433 410.328283 
L 475.423006 412.244033 
L 474.726456 414.152912 
L 474.010852 416.054731 
L 473.276267 417.9493 
L 472.522772 419.836427 
L 471.750445 421.715926 
L 470.959361 423.587607 
L 470.1496 425.451284 
L 469.321244 427.30677 
L 468.474374 429.15388 
L 467.609076 430.992429 
L 466.725436 432.822234 
L 465.823542 434.643111 
L 464.903485 436.454878 
L 463.965356 438.257353 
L 463.00925 440.050358 
L 462.035263 441.833712 
L 461.04349 443.607237 
L 460.034032 445.370756 
L 459.00699 447.124093 
L 457.962466 448.867071 
L 456.900565 450.599517 
L 455.821392 452.321258 
L 454.725057 454.032121 
L 453.611668 455.731936 
L 452.481337 457.420532 
L 451.334176 459.09774 
L 450.196911 460.725704 
L 451.873766 461.909357 
L 453.022518 460.264949 
L 454.181266 458.570799 
L 455.323015 456.865147 
L 456.44765 455.148162 
L 457.55506 453.420018 
L 458.645133 451.680886 
L 459.71776 449.93094 
L 460.772835 448.170356 
L 461.810251 446.399309 
L 462.829906 444.617977 
L 463.831696 442.826537 
L 464.815522 441.025169 
L 465.781286 439.214053 
L 466.72889 437.393371 
L 467.658241 435.563303 
L 468.569245 433.724034 
L 469.46181 431.875746 
L 470.335849 430.018626 
L 471.191273 428.152858 
L 472.027997 426.27863 
L 472.845937 424.396128 
L 473.645011 422.50554 
L 474.42514 420.607057 
L 475.186246 418.700868 
L 475.928252 416.787163 
L 476.651084 414.866133 
L 477.354669 412.937972 
L 478.038939 411.002871 
L 478.703823 409.061024 
L 479.349256 407.112626 
L 479.975173 405.157871 
L 480.581512 403.196954 
L 481.168212 401.230073 
L 481.735213 399.257423 
L 482.28246 397.279201 
L 482.809898 395.295606 
L 483.317474 393.306836 
L 483.805137 391.31309 
L 484.272839 389.314566 
L 484.720532 387.311466 
L 485.148173 385.303989 
L 483.138574 384.88639 
z
" clip-path="url(#pe63db79a6d)" style="fill: none; stroke: #000000; stroke-width: 0.5; stroke-linejoin: miter"/>
   </g>
   <g id="patch_15">
    <path d="M 450.196911 460.725704 
L 449.016814 462.379903 
L 447.820234 464.022219 
L 446.607291 465.652487 
L 445.378106 467.270544 
L 444.132802 468.876229 
L 442.871504 470.46938 
L 441.594338 472.049839 
L 440.301431 473.617448 
L 438.992914 475.172049 
L 437.668915 476.713488 
L 436.329569 478.241609 
L 434.975009 479.756262 
L 433.605371 481.257293 
L 432.22079 482.744553 
L 430.821407 484.217892 
L 429.407361 485.677165 
L 427.978792 487.122225 
L 426.535845 488.552926 
L 425.078663 489.969127 
L 423.607392 491.370686 
L 422.12218 492.757462 
L 420.623174 494.129317 
L 419.110525 495.486113 
L 417.584383 496.827716 
L 416.044903 498.15399 
L 414.492236 499.464803 
L 412.92654 500.760024 
L 411.347969 502.039524 
L 409.756683 503.303175 
L 408.15284 504.550849 
L 406.536601 505.782424 
L 404.908127 506.997774 
L 403.267581 508.196779 
L 401.615127 509.379319 
L 399.950931 510.545276 
L 398.275158 511.694533 
L 396.587977 512.826974 
L 394.889556 513.942488 
L 393.180066 515.040962 
L 391.459675 516.122286 
L 389.728558 517.186353 
L 387.986887 518.233056 
L 386.234837 519.262289 
L 384.472581 520.273952 
L 382.700298 521.267941 
L 380.918163 522.244158 
L 379.126355 523.202505 
L 377.325054 524.142887 
L 375.514439 525.065209 
L 373.694691 525.969378 
L 371.865993 526.855306 
L 370.028527 527.722902 
L 368.182477 528.572081 
L 366.328028 529.402757 
L 365.143579 529.921722 
L 365.961309 531.804325 
L 367.157722 531.280118 
L 369.030903 530.441051 
L 370.8956 529.583295 
L 372.751626 528.706935 
L 374.598796 527.812059 
L 376.436925 526.898756 
L 378.265829 525.967117 
L 380.085325 525.017237 
L 381.895232 524.04921 
L 383.695368 523.063132 
L 385.485553 522.059102 
L 387.265609 521.037221 
L 389.035358 519.997591 
L 390.794621 518.940316 
L 392.543224 517.865501 
L 394.280992 516.773254 
L 396.007751 515.663684 
L 397.723327 514.536903 
L 399.427551 513.393022 
L 401.12025 512.232157 
L 402.801256 511.054423 
L 404.470402 509.859938 
L 406.127519 508.648822 
L 407.772442 507.421195 
L 409.405007 506.177181 
L 411.02505 504.916903 
L 412.63241 503.640489 
L 414.226926 502.348065 
L 415.808437 501.03976 
L 417.376787 499.715706 
L 418.931818 498.376036 
L 420.473375 497.020882 
L 422.001304 495.65038 
L 423.515451 494.264668 
L 425.015666 492.863884 
L 426.501798 491.448168 
L 427.973699 490.017662 
L 429.431221 488.572509 
L 430.874219 487.112853 
L 432.302549 485.63884 
L 433.716068 484.150618 
L 435.114634 482.648335 
L 436.498107 481.132142 
L 437.86635 479.602191 
L 439.219224 478.058633 
L 440.556596 476.501625 
L 441.878331 474.93132 
L 443.184298 473.347877 
L 444.474365 471.751454 
L 445.748403 470.14221 
L 447.006286 468.520306 
L 448.247886 466.885905 
L 449.473081 465.23917 
L 450.681748 463.580265 
L 451.873766 461.909357 
L 450.196911 460.725704 
z
" clip-path="url(#pe63db79a6d)" style="fill: none; stroke: #000000; stroke-width: 0.5; stroke-linejoin: miter"/>
   </g>
   <g id="patch_16">
    <path d="M 365.143579 529.921722 
L 363.275786 530.721942 
L 361.400084 531.503445 
L 359.516661 532.266152 
L 357.625705 533.009986 
L 355.727405 533.734875 
L 353.821952 534.440744 
L 351.909535 535.127524 
L 349.990347 535.795145 
L 348.064578 536.443542 
L 346.132421 537.072649 
L 344.19407 537.682403 
L 342.249719 538.272744 
L 340.299561 538.843611 
L 338.343793 539.394949 
L 336.382609 539.926703 
L 334.416205 540.438818 
L 332.444779 540.931243 
L 330.468527 541.40393 
L 328.487648 541.856832 
L 326.502338 542.289902 
L 324.512797 542.703098 
L 322.519223 543.096378 
L 320.521817 543.469703 
L 318.520777 543.823035 
L 316.516304 544.15634 
L 314.508598 544.469584 
L 312.49786 544.762735 
L 310.484292 545.035765 
L 308.468093 545.288646 
L 306.449467 545.521352 
L 304.428615 545.733861 
L 302.405738 545.926151 
L 300.38104 546.098203 
L 298.354723 546.25 
L 296.326989 546.381526 
L 294.298041 546.492769 
L 292.268082 546.583717 
L 290.237316 546.654361 
L 288.205944 546.704694 
L 286.17417 546.734712 
L 284.142198 546.74441 
L 282.110231 546.733789 
L 280.078472 546.702849 
L 278.047123 546.651593 
L 276.016388 546.580027 
L 273.986471 546.488157 
L 271.957574 546.375993 
L 269.9299 546.243546 
L 267.903652 546.090829 
L 265.879032 545.917858 
L 263.856243 545.724649 
L 261.835488 545.511223 
L 259.816967 545.2776 
L 257.800884 545.023803 
L 255.787439 544.749859 
L 253.776835 544.455795 
L 251.769272 544.14164 
L 249.76495 543.807425 
L 247.764071 543.453183 
L 245.766834 543.078951 
L 243.773439 542.684766 
L 241.784086 542.270667 
L 239.798973 541.836695 
L 237.8183 541.382895 
L 235.842263 540.90931 
L 233.87106 540.415989 
L 231.90489 539.902981 
L 229.943947 539.370338 
L 227.988429 538.818112 
L 226.038531 538.246358 
L 224.094448 537.655135 
L 222.156374 537.044501 
L 220.224504 536.414517 
L 218.299029 535.765245 
L 216.380144 535.096752 
L 214.468039 534.409104 
L 212.562906 533.70237 
L 210.664936 532.97662 
L 208.774318 532.231926 
L 206.891242 531.468364 
L 205.015895 530.68601 
L 203.148465 529.884942 
L 201.289139 529.06524 
L 199.438103 528.226986 
L 197.595542 527.370263 
L 195.76164 526.495159 
L 193.936581 525.601759 
L 192.120547 524.690154 
L 190.313719 523.760434 
L 188.516279 522.812693 
L 186.728406 521.847025 
L 184.950279 520.863527 
L 183.182076 519.862297 
L 181.423973 518.843435 
L 179.676147 517.807044 
L 177.938772 516.753226 
L 176.212021 515.682088 
L 174.496068 514.593736 
L 172.791084 513.488279 
L 171.09724 512.365828 
L 169.414705 511.226495 
L 167.743647 510.070394 
L 166.084234 508.89764 
L 164.436631 507.708351 
L 162.801003 506.502646 
L 161.177513 505.280645 
L 159.566325 504.042471 
L 157.967599 502.788246 
L 156.381494 501.518098 
L 155.951036 501.168869 
L 154.65571 502.761039 
L 155.090516 503.113795 
L 156.692642 504.396774 
L 158.307517 505.663667 
L 159.93498 506.914348 
L 161.574868 508.148692 
L 163.227018 509.366576 
L 164.891263 510.567878 
L 166.567439 511.752478 
L 168.255376 512.920257 
L 169.954906 514.071099 
L 171.66586 515.204888 
L 173.388066 516.321511 
L 175.121351 517.420856 
L 176.865544 518.502814 
L 178.620468 519.567276 
L 180.385949 520.614136 
L 182.161811 521.643289 
L 183.947875 522.654632 
L 185.743963 523.648065 
L 187.549895 524.623487 
L 189.365491 525.580801 
L 191.190569 526.519912 
L 193.024947 527.440726 
L 194.868441 528.34315 
L 196.720867 529.227094 
L 198.58204 530.09247 
L 200.451773 530.939191 
L 202.32988 531.767173 
L 204.216173 532.576333 
L 206.110463 533.36659 
L 208.012561 534.137864 
L 209.922276 534.89008 
L 211.839417 535.623161 
L 213.763794 536.337034 
L 215.695213 537.031628 
L 217.633481 537.706874 
L 219.578404 538.362703 
L 221.529789 538.999051 
L 223.487439 539.615853 
L 225.451159 540.213048 
L 227.420753 540.790577 
L 229.396024 541.348381 
L 231.376774 541.886405 
L 233.362805 542.404595 
L 235.353918 542.902899 
L 237.349915 543.381267 
L 239.350596 543.839651 
L 241.355761 544.278007 
L 243.365208 544.696289 
L 245.378738 545.094455 
L 247.396149 545.472468 
L 249.417239 545.830287 
L 251.441806 546.167878 
L 253.469648 546.485207 
L 255.500562 546.782241 
L 257.534344 547.058952 
L 259.570792 547.315312 
L 261.609701 547.551295 
L 263.650869 547.766877 
L 265.69409 547.962038 
L 267.73916 548.136756 
L 269.785875 548.291016 
L 271.834031 548.4248 
L 273.883422 548.538097 
L 275.933844 548.630895 
L 277.98509 548.703185 
L 280.036958 548.754958 
L 282.08924 548.786211 
L 284.141732 548.796939 
L 286.194229 548.787143 
L 288.246526 548.756822 
L 290.298416 548.70598 
L 292.349696 548.634622 
L 294.400159 548.542756 
L 296.449602 548.430389 
L 298.497818 548.297534 
L 300.544603 548.144204 
L 302.589753 547.970415 
L 304.633062 547.776182 
L 306.674327 547.561527 
L 308.713343 547.32647 
L 310.749907 547.071035 
L 312.783815 546.795247 
L 314.814864 546.499135 
L 316.842849 546.182727 
L 318.867569 545.846055 
L 320.888822 545.489154 
L 322.906404 545.112058 
L 324.920115 544.714805 
L 326.929752 544.297436 
L 328.935115 543.859991 
L 330.936004 543.402515 
L 332.932218 542.925053 
L 334.923557 542.427654 
L 336.909824 541.910366 
L 338.890818 541.373241 
L 340.866341 540.816334 
L 342.836197 540.2397 
L 344.800189 539.643397 
L 346.758119 539.027483 
L 348.709792 538.392022 
L 350.655013 537.737076 
L 352.593588 537.06271 
L 354.525322 536.368993 
L 356.450022 535.655994 
L 358.367497 534.923784 
L 360.277553 534.172435 
L 362.180001 533.402025 
L 364.074649 532.612628 
L 365.961309 531.804325 
L 365.143579 529.921722 
z
" clip-path="url(#pe63db79a6d)" style="fill: none; stroke: #000000; stroke-width: 0.5; stroke-linejoin: miter"/>
   </g>
   <g id="patch_17">
    <path d="M 155.951036 501.168869 
L 154.381226 499.878636 
L 152.824397 498.57277 
L 151.280703 497.251401 
L 149.750301 495.914662 
L 148.233342 494.562685 
L 146.729979 493.195607 
L 145.240361 491.813564 
L 143.764638 490.416694 
L 142.302957 489.005137 
L 140.855465 487.579034 
L 139.422305 486.138527 
L 138.003623 484.683762 
L 136.599558 483.214882 
L 135.210253 481.732035 
L 133.835845 480.23537 
L 132.476472 478.725036 
L 131.13227 477.201183 
L 129.803374 475.663965 
L 128.489916 474.113535 
L 127.192028 472.550049 
L 125.909839 470.973662 
L 124.643478 469.384532 
L 123.393072 467.782818 
L 122.158744 466.16868 
L 120.94062 464.54228 
L 119.73882 462.90378 
L 118.553465 461.253344 
L 117.384674 459.591138 
L 116.232562 457.917327 
L 115.097246 456.232079 
L 113.978839 454.535561 
L 112.877453 452.827945 
L 111.793198 451.109401 
L 110.726182 449.3801 
L 109.676512 447.640216 
L 108.644294 445.889922 
L 107.629629 444.129393 
L 106.63262 442.358807 
L 105.653367 440.578338 
L 104.691967 438.788167 
L 103.748517 436.988471 
L 102.82311 435.179431 
L 101.91584 433.361227 
L 101.026796 431.534041 
L 100.156069 429.698057 
L 99.303745 427.853457 
L 98.469909 426.000427 
L 97.654645 424.139151 
L 96.858034 422.269815 
L 96.080156 420.392607 
L 95.321089 418.507714 
L 94.580908 416.615325 
L 93.859688 414.715629 
L 93.1575 412.808816 
L 92.474416 410.895076 
L 91.810502 408.974601 
L 91.165826 407.047584 
L 90.540453 405.114216 
L 89.934444 403.174691 
L 89.34786 401.229203 
L 88.78076 399.277946 
L 88.233201 397.321116 
L 87.705237 395.358909 
L 87.196921 393.39152 
L 86.708304 391.419146 
L 86.239435 389.441985 
L 85.790361 387.460234 
L 85.361126 385.474092 
L 84.951774 383.483756 
L 84.562345 381.489427 
L 84.192879 379.491303 
L 83.843412 377.489584 
L 83.51398 375.484471 
L 83.204615 373.476164 
L 82.915348 371.464864 
L 82.646208 369.450772 
L 82.397222 367.434089 
L 82.168415 365.415017 
L 81.95981 363.393757 
L 81.771428 361.370513 
L 81.603287 359.345487 
L 81.455404 357.31888 
L 81.327795 355.290896 
L 81.220471 353.261737 
L 81.133444 351.231606 
L 81.066723 349.200707 
L 81.020313 347.169242 
L 80.99422 345.137414 
L 80.988447 343.105427 
L 81.002993 341.073484 
L 81.037857 339.041788 
L 81.093037 337.010542 
L 81.168525 334.97995 
L 81.264316 332.950214 
L 81.380399 330.921537 
L 81.516762 328.894123 
L 81.673392 326.868173 
L 81.850274 324.843891 
L 82.047389 322.821479 
L 82.264719 320.80114 
L 82.50224 318.783074 
L 82.75993 316.767485 
L 83.037763 314.754573 
L 83.33571 312.744541 
L 83.653743 310.737588 
L 83.991828 308.733916 
L 84.349934 306.733725 
L 84.728023 304.737214 
L 85.126058 302.744585 
L 85.543999 300.756035 
L 85.981804 298.771764 
L 86.439429 296.791971 
L 86.91683 294.816852 
L 87.413957 292.846606 
L 87.930762 290.88143 
L 88.467192 288.92152 
L 89.023194 286.967073 
L 89.598713 285.018283 
L 90.19369 283.075345 
L 90.808067 281.138454 
L 91.441781 279.207804 
L 92.094771 277.283588 
L 92.720575 275.496397 
L 90.786557 274.809047 
L 90.154431 276.61429 
L 89.494847 278.557943 
L 88.854731 280.508095 
L 88.234148 282.46455 
L 87.633161 284.427113 
L 87.051829 286.395588 
L 86.490211 288.369778 
L 85.948362 290.349484 
L 85.426337 292.334511 
L 84.924188 294.324658 
L 84.441966 296.319727 
L 83.979718 298.319519 
L 83.53749 300.323833 
L 83.115328 302.332469 
L 82.713272 304.345226 
L 82.331364 306.361903 
L 81.969641 308.382298 
L 81.628141 310.406209 
L 81.306896 312.433435 
L 81.005939 314.463771 
L 80.7253 316.497015 
L 80.465007 318.532964 
L 80.225086 320.571413 
L 80.005562 322.61216 
L 79.806455 324.655001 
L 79.627787 326.69973 
L 79.469574 328.746144 
L 79.331834 330.794037 
L 79.214578 332.843205 
L 79.11782 334.893444 
L 79.041569 336.944547 
L 78.985832 338.996311 
L 78.950616 341.048529 
L 78.935922 343.100997 
L 78.941755 345.153509 
L 78.968111 347.20586 
L 79.014989 349.257845 
L 79.082385 351.309258 
L 79.170291 353.359895 
L 79.278698 355.409551 
L 79.407597 357.45802 
L 79.556973 359.505097 
L 79.726812 361.550579 
L 79.917098 363.59426 
L 80.12781 365.635935 
L 80.358928 367.675402 
L 80.610429 369.712456 
L 80.882287 371.746892 
L 81.174476 373.778509 
L 81.486966 375.807102 
L 81.819726 377.832469 
L 82.172723 379.854406 
L 82.545921 381.872713 
L 82.939283 383.887187 
L 83.35277 385.897627 
L 83.786341 387.903832 
L 84.239951 389.9056 
L 84.713556 391.902733 
L 85.207109 393.895029 
L 85.720559 395.882291 
L 86.253856 397.864319 
L 86.806946 399.840915 
L 87.379774 401.811881 
L 87.972283 403.77702 
L 88.584414 405.736136 
L 89.216104 407.689033 
L 89.867292 409.635516 
L 90.537911 411.575389 
L 91.227896 413.50846 
L 91.937176 415.434534 
L 92.665681 417.353419 
L 93.413339 419.264923 
L 94.180073 421.168855 
L 94.965809 423.065025 
L 95.770466 424.953243 
L 96.593966 426.83332 
L 97.436224 428.705068 
L 98.297157 430.5683 
L 99.17668 432.422829 
L 100.074703 434.268471 
L 100.991138 436.10504 
L 101.925892 437.932354 
L 102.878872 439.750228 
L 103.849984 441.558483 
L 104.839128 443.356935 
L 105.846208 445.145407 
L 106.871121 446.923718 
L 107.913767 448.691692 
L 108.974039 450.449151 
L 110.051833 452.19592 
L 111.14704 453.931823 
L 112.259552 455.656688 
L 113.389256 457.370341 
L 114.536039 459.072612 
L 115.699788 460.763331 
L 116.880386 462.442327 
L 118.077714 464.109434 
L 119.291653 465.764484 
L 120.522082 467.407313 
L 121.768877 469.037755 
L 123.031914 470.655648 
L 124.311067 472.260829 
L 125.606207 473.85314 
L 126.917205 475.432419 
L 128.24393 476.99851 
L 129.586249 478.551255 
L 130.944029 480.0905 
L 132.317133 481.61609 
L 133.705424 483.127873 
L 135.108763 484.625698 
L 136.527009 486.109415 
L 137.960022 487.578876 
L 139.407658 489.033933 
L 140.869771 490.474441 
L 142.346217 491.900256 
L 143.836846 493.311236 
L 145.34151 494.707239 
L 146.860059 496.088126 
L 148.392341 497.453759 
L 149.938202 498.804001 
L 151.497488 500.138717 
L 153.070043 501.457773 
L 154.65571 502.761039 
L 155.951036 501.168869 
z
" clip-path="url(#pe63db79a6d)" style="fill: none; stroke: #000000; stroke-width: 0.5; stroke-linejoin: miter"/>
   </g>
   <g id="patch_18">
    <path d="M 92.720575 275.496397 
L 93.410613 273.585153 
L 94.119729 271.680906 
L 94.847852 269.783845 
L 95.594909 267.894159 
L 96.360825 266.012039 
L 97.145523 264.137672 
L 97.948926 262.271245 
L 98.770953 260.412946 
L 99.611521 258.562959 
L 100.470546 256.721471 
L 101.347943 254.888665 
L 102.243624 253.064724 
L 103.1575 251.249831 
L 104.089478 249.444168 
L 105.039466 247.647914 
L 106.007369 245.86125 
L 106.99309 244.084354 
L 107.99653 242.317404 
L 109.017589 240.560577 
L 110.056165 238.814048 
L 111.112154 237.077991 
L 112.185451 235.352582 
L 113.275948 233.637991 
L 114.383535 231.934391 
L 115.508104 230.241952 
L 116.64954 228.560843 
L 117.80773 226.891232 
L 118.982557 225.233286 
L 120.173905 223.587171 
L 121.381655 221.953052 
L 122.605685 220.331092 
L 123.845873 218.721453 
L 125.102095 217.124296 
L 126.374226 215.539781 
L 127.662138 213.968067 
L 128.965703 212.409309 
L 130.284789 210.863666 
L 131.619266 209.33129 
L 132.969 207.812335 
L 134.333855 206.306954 
L 135.713696 204.815296 
L 137.108384 203.33751 
L 138.51778 201.873746 
L 139.941743 200.424148 
L 141.380131 198.988862 
L 142.832799 197.568031 
L 144.299603 196.161798 
L 145.780395 194.770303 
L 147.275028 193.393686 
L 148.783352 192.032083 
L 150.305217 190.685631 
L 151.84047 189.354465 
L 153.388957 188.038718 
L 154.950525 186.738521 
L 156.525016 185.454005 
L 158.112273 184.185297 
L 159.712138 182.932526 
L 161.32445 181.695815 
L 162.949049 180.475289 
L 164.585771 179.27107 
L 166.234454 178.083278 
L 167.894931 176.912031 
L 169.567039 175.757448 
L 171.250608 174.619644 
L 172.94547 173.498731 
L 174.651457 172.394823 
L 176.368398 171.30803 
L 178.096121 170.238461 
L 178.608688 169.925723 
L 177.542227 168.172003 
L 177.024482 168.487899 
L 175.279308 169.568273 
L 173.545024 170.666043 
L 171.821805 171.781102 
L 170.109823 172.913336 
L 168.409248 174.062634 
L 166.720251 175.22888 
L 165.043 176.411957 
L 163.377664 177.611747 
L 161.724409 178.82813 
L 160.083401 180.060984 
L 158.454803 181.310187 
L 156.838778 182.575613 
L 155.235487 183.857136 
L 153.645092 185.154627 
L 152.067752 186.467957 
L 150.503623 187.796995 
L 148.952862 189.141607 
L 147.415625 190.501659 
L 145.892065 191.877015 
L 144.382335 193.267538 
L 142.886585 194.673089 
L 141.404965 196.093526 
L 139.937624 197.528708 
L 138.484707 198.978492 
L 137.046361 200.442732 
L 135.622728 201.921283 
L 134.213952 203.413995 
L 132.820174 204.92072 
L 131.441532 206.441308 
L 130.078165 207.975605 
L 128.730208 209.52346 
L 127.397797 211.084716 
L 126.081066 212.659218 
L 124.780144 214.246809 
L 123.495164 215.847329 
L 122.226252 217.460619 
L 120.973537 219.086517 
L 119.737143 220.72486 
L 118.517194 222.375486 
L 117.313812 224.038228 
L 116.127117 225.71292 
L 114.957229 227.399396 
L 113.804263 229.097486 
L 112.668335 230.807021 
L 111.54956 232.527829 
L 110.448048 234.259739 
L 109.36391 236.002577 
L 108.297254 237.756169 
L 107.248187 239.52034 
L 106.216815 241.294913 
L 105.203239 243.079711 
L 104.207561 244.874555 
L 103.229882 246.679266 
L 102.270298 248.493664 
L 101.328905 250.317566 
L 100.405799 252.150791 
L 99.501071 253.993156 
L 98.614811 255.844475 
L 97.747108 257.704564 
L 96.89805 259.573237 
L 96.06772 261.450308 
L 95.256202 263.335587 
L 94.463577 265.228887 
L 93.689925 267.130019 
L 92.935322 269.038792 
L 92.199844 270.955015 
L 91.483566 272.878498 
L 90.786557 274.809047 
L 92.720575 275.496397 
z
" clip-path="url(#pe63db79a6d)" style="fill: none; stroke: #000000; stroke-width: 0.5; stroke-linejoin: miter"/>
   </g>
   <g id="patch_19">
    <path d="M 178.608688 169.925723 
L 180.350121 168.878625 
L 182.101938 167.848994 
L 183.863964 166.836931 
L 185.636022 165.84254 
L 187.417935 164.865918 
L 189.209525 163.907164 
L 191.010613 162.966373 
L 192.821018 162.043641 
L 194.640561 161.139058 
L 196.469058 160.252715 
L 198.306326 159.384701 
L 200.152183 158.535103 
L 202.006444 157.704006 
L 203.868922 156.891493 
L 205.739433 156.097645 
L 207.617788 155.322541 
L 209.5038 154.566259 
L 211.397281 153.828875 
L 213.298041 153.110463 
L 215.205889 152.411093 
L 217.120636 151.730837 
L 219.04209 151.069761 
L 220.970058 150.427934 
L 222.904348 149.805417 
L 224.844766 149.202274 
L 226.791119 148.618565 
L 228.743211 148.054349 
L 229.365533 147.878914 
L 228.811767 145.902499 
L 228.183159 146.079706 
L 226.211349 146.649621 
L 224.245336 147.239226 
L 222.285318 147.848461 
L 220.331489 148.477266 
L 218.384047 149.125577 
L 216.443185 149.793329 
L 214.509097 150.480457 
L 212.581977 151.186891 
L 210.662018 151.91256 
L 208.749411 152.657393 
L 206.844348 153.421314 
L 204.94702 154.204247 
L 203.057615 155.006114 
L 201.176324 155.826834 
L 199.303333 156.666326 
L 197.438831 157.524506 
L 195.583004 158.401287 
L 193.736038 159.296583 
L 191.898116 160.210303 
L 190.069424 161.142356 
L 188.250143 162.09265 
L 186.440456 163.061088 
L 184.640544 164.047575 
L 182.850586 165.052011 
L 181.070763 166.074296 
L 179.30125 167.114328 
L 177.542227 168.172003 
L 178.608688 169.925723 
z
" clip-path="url(#pe63db79a6d)" style="fill: none; stroke: #000000; stroke-width: 0.5; stroke-linejoin: miter"/>
   </g>
   <g id="patch_20">
    <path d="M 229.365533 147.878914 
L 231.324893 147.340479 
L 233.289539 146.821663 
L 235.259275 146.32252 
L 237.233904 145.843098 
L 239.213228 145.383447 
L 241.19705 144.943611 
L 243.185171 144.523635 
L 245.177392 144.123562 
L 247.173514 143.74343 
L 249.173338 143.383277 
L 251.176663 143.043141 
L 253.183289 142.723055 
L 255.193016 142.423051 
L 256.519222 142.236313 
L 256.239736 140.202901 
L 254.900134 140.391525 
L 252.870107 140.69456 
L 250.843212 141.01788 
L 248.819651 141.361451 
L 246.799627 141.725241 
L 244.783342 142.109213 
L 242.770998 142.513328 
L 240.762795 142.937546 
L 238.758934 143.381824 
L 236.759617 143.846119 
L 234.765042 144.330383 
L 232.77541 144.834568 
L 230.790919 145.358624 
L 228.811767 145.902499 
L 229.365533 147.878914 
z
" clip-path="url(#pe63db79a6d)" style="fill: none; stroke: #000000; stroke-width: 0.5; stroke-linejoin: miter"/>
   </g>
   <g id="patch_21">
    <path d="M 256.519222 142.236313 
L 258.533649 141.969692 
L 260.550642 141.723228 
L 262.569998 141.496946 
L 264.591517 141.290868 
L 266.614995 141.105016 
L 268.64023 140.939407 
L 270.66702 140.794059 
L 272.695162 140.668985 
L 274.724454 140.564199 
L 276.754692 140.479711 
L 278.785673 140.415529 
L 280.817195 140.37166 
L 282.849053 140.348107 
L 284.188334 140.343694 
L 284.188334 138.291165 
L 282.835525 138.295623 
L 280.783143 138.319413 
L 278.731101 138.363726 
L 276.679605 138.428556 
L 274.628859 138.513898 
L 272.57907 138.619742 
L 270.530441 138.746079 
L 268.483179 138.892896 
L 266.437486 139.060177 
L 264.393569 139.247907 
L 262.351631 139.456066 
L 260.311877 139.684633 
L 258.274511 139.933587 
L 256.239736 140.202901 
L 256.519222 142.236313 
z
" clip-path="url(#pe63db79a6d)" style="fill: none; stroke: #000000; stroke-width: 0.5; stroke-linejoin: miter"/>
   </g>
   <g id="text_1">
    <text style="font: 3px 'DejaVu Sans', 'Bitstream Vera Sans', 'Computer Modern Sans Serif', 'Lucida Grande', 'Verdana', 'Geneva', 'Lucid', 'Arial', 'Helvetica', 'Avant Garde', sans-serif; text-anchor: start" x="299.719855" y="136.816615" transform="rotate(-86.086957 299.719855 136.816615)">cole Nationale Suprieure de Statistique et d'conomie Applique</text>
   </g>
   <g id="text_2">
    <text style="font: 3px 'DejaVu Sans', 'Bitstream Vera Sans', 'Computer Modern Sans Serif', 'Lucida Grande', 'Verdana', 'Geneva', 'Lucid', 'Arial', 'Helvetica', 'Avant Garde', sans-serif; text-anchor: start" x="454.242501" y="224.975271" transform="rotate(-35.217391 454.242501 224.975271)">Universit Flix Houphout-Boigny</text>
   </g>
   <g id="text_3">
    <text style="font: 3px 'DejaVu Sans', 'Bitstream Vera Sans', 'Computer Modern Sans Serif', 'Lucida Grande', 'Verdana', 'Geneva', 'Lucid', 'Arial', 'Helvetica', 'Avant Garde', sans-serif; text-anchor: start" x="473.877123" y="427.180165" transform="rotate(-336.521739 473.877123 427.180165)">Universit Alassane Ouattara</text>
   </g>
   <g id="text_4">
    <text style="font: 3px 'DejaVu Sans', 'Bitstream Vera Sans', 'Computer Modern Sans Serif', 'Lucida Grande', 'Verdana', 'Geneva', 'Lucid', 'Arial', 'Helvetica', 'Avant Garde', sans-serif; text-anchor: start" x="414.085613" y="505.110366" transform="rotate(-309.130435 414.085613 505.110366)">Institut National Polytechnique Flix Houphout-Boigny</text>
   </g>
   <g id="text_5">
    <text style="font: 3px 'DejaVu Sans', 'Bitstream Vera Sans', 'Computer Modern Sans Serif', 'Lucida Grande', 'Verdana', 'Geneva', 'Lucid', 'Arial', 'Helvetica', 'Avant Garde', sans-serif; text-anchor: end" x="257.148841" y="549.081988" transform="rotate(-82.173913 257.148841 549.081988)">Universit Nangui Abrogoua</text>
   </g>
   <g id="text_6">
    <text style="font: 3px 'DejaVu Sans', 'Bitstream Vera Sans', 'Computer Modern Sans Serif', 'Lucida Grande', 'Verdana', 'Geneva', 'Lucid', 'Arial', 'Helvetica', 'Avant Garde', sans-serif; text-anchor: end" x="84.894056" y="400.629662" transform="rotate(-15.652174 84.894056 400.629662)">Universit Pelefero Gon Coulibaly</text>
   </g>
   <g id="text_7">
    <text style="font: 3px 'DejaVu Sans', 'Bitstream Vera Sans', 'Computer Modern Sans Serif', 'Lucida Grande', 'Verdana', 'Geneva', 'Lucid', 'Arial', 'Helvetica', 'Avant Garde', sans-serif; text-anchor: end" x="122.622023" y="213.646776" transform="rotate(-320.869565 122.622023 213.646776)">Universit Jean Lorougnon Gud</text>
   </g>
   <g id="text_8">
    <text style="font: 3px 'DejaVu Sans', 'Bitstream Vera Sans', 'Computer Modern Sans Serif', 'Lucida Grande', 'Verdana', 'Geneva', 'Lucid', 'Arial', 'Helvetica', 'Avant Garde', sans-serif; text-anchor: end" x="200.552223" y="153.855266" transform="rotate(-293.478261 200.552223 153.855266)">Centre National de Recherche Agronomique</text>
   </g>
   <g id="text_9">
    <text style="font: 3px 'DejaVu Sans', 'Bitstream Vera Sans', 'Computer Modern Sans Serif', 'Lucida Grande', 'Verdana', 'Geneva', 'Lucid', 'Arial', 'Helvetica', 'Avant Garde', sans-serif; text-anchor: end" x="240.894874" y="140.80651" transform="rotate(-281.73913 240.894874 140.80651)">Universit Virtuelle de Cte d'Ivoire</text>
   </g>
   <g id="text_10">
    <text style="font: 3px 'DejaVu Sans', 'Bitstream Vera Sans', 'Computer Modern Sans Serif', 'Lucida Grande', 'Verdana', 'Geneva', 'Lucid', 'Arial', 'Helvetica', 'Avant Garde', sans-serif; text-anchor: end" x="268.904204" y="136.799693" transform="rotate(-273.913043 268.904204 136.799693)">Institut Pasteur de Cte d'Ivoire</text>
   </g>
  </g>
 </g>
 <defs>
  <clipPath id="pe63db79a6d">
   <path d="M 499.703869 343.544055 
C 499.703869 315.242814 494.129141 287.216767 483.298725 261.06983 
C 472.468309 234.922893 456.592829 211.163558 436.58083 191.151559 
C 416.568831 171.13956 392.809496 155.264079 366.662559 144.433664 
C 340.515622 133.603248 312.489575 128.02852 284.188334 128.02852 
C 255.887093 128.02852 227.861047 133.603248 201.71411 144.433664 
C 175.567173 155.264079 151.807838 171.13956 131.795838 191.151559 
C 111.783839 211.163558 95.908359 234.922893 85.077943 261.06983 
C 74.247527 287.216767 68.6728 315.242814 68.6728 343.544055 
C 68.6728 371.845295 74.247527 399.871342 85.077943 426.018279 
C 95.908359 452.165216 111.783839 475.924551 131.795838 495.93655 
C 151.807838 515.94855 175.567173 531.82403 201.71411 542.654446 
C 227.861047 553.484862 255.887093 559.059589 284.188334 559.059589 
C 312.489575 559.059589 340.515622 553.484862 366.662559 542.654446 
C 392.809496 531.82403 416.568831 515.94855 436.58083 495.93655 
C 456.592829 475.924551 472.468309 452.165216 483.298725 426.018279 
C 494.129141 399.871342 499.703869 371.845295 499.703869 343.544055 
M 284.188334 343.544055 
C 284.188334 343.544055 284.188334 343.544055 284.188334 343.544055 
C 284.188334 343.544055 284.188334 343.544055 284.188334 343.544055 
C 284.188334 343.544055 284.188334 343.544055 284.188334 343.544055 
C 284.188334 343.544055 284.188334 343.544055 284.188334 343.544055 
C 284.188334 343.544055 284.188334 343.544055 284.188334 343.544055 
C 284.188334 343.544055 284.188334 343.544055 284.188334 343.544055 
C 284.188334 343.544055 284.188334 343.544055 284.188334 343.544055 
C 284.188334 343.544055 284.188334 343.544055 284.188334 343.544055 
C 284.188334 343.544055 284.188334 343.544055 284.188334 343.544055 
C 284.188334 343.544055 284.188334 343.544055 284.188334 343.544055 
C 284.188334 343.544055 284.188334 343.544055 284.188334 343.544055 
C 284.188334 343.544055 284.188334 343.544055 284.188334 343.544055 
C 284.188334 343.544055 284.188334 343.544055 284.188334 343.544055 
C 284.188334 343.544055 284.188334 343.544055 284.188334 343.544055 
C 284.188334 343.544055 284.188334 343.544055 284.188334 343.544055 
C 284.188334 343.544055 284.188334 343.544055 284.188334 343.544055 
z
"/>
  </clipPath>
 </defs>
</svg>
