<?xml version="1.0" encoding="utf-8" standalone="no"?>
<!DOCTYPE svg PUBLIC "-//W3C//DTD SVG 1.1//EN"
  "http://www.w3.org/Graphics/SVG/1.1/DTD/svg11.dtd">
<svg xmlns:xlink="http://www.w3.org/1999/xlink" width="619.579095pt" height="614.473118pt" viewBox="0 0 619.579095 614.473118" xmlns="http://www.w3.org/2000/svg" version="1.1">
 <metadata>
  <rdf:RDF xmlns:dc="http://purl.org/dc/elements/1.1/" xmlns:cc="http://creativecommons.org/ns#" xmlns:rdf="http://www.w3.org/1999/02/22-rdf-syntax-ns#">
   <cc:Work>
    <dc:type rdf:resource="http://purl.org/dc/dcmitype/StillImage"/>
    <dc:date>2024-11-16T03:53:09.074178</dc:date>
    <dc:format>image/svg+xml</dc:format>
    <dc:creator>
     <cc:Agent>
      <dc:title>Matplotlib v3.8.4, https://matplotlib.org/</dc:title>
     </cc:Agent>
    </dc:creator>
   </cc:Work>
  </rdf:RDF>
 </metadata>
 <defs>
  <style type="text/css">*{stroke-linejoin: round; stroke-linecap: butt}</style>
 </defs>
 <g id="figure_1">
  <g id="patch_1">
   <path d="M 0 614.473118 
L 619.579095 614.473118 
L 619.579095 0 
L 0 0 
z
" style="fill: #ffffff"/>
  </g>
  <g id="axes_1">
   <g id="patch_2">
    <path d="M 307.236559 51.499232 
L 309.793889 51.512019 
L 312.350964 51.550378 
L 314.907528 51.614305 
L 317.463324 51.703795 
L 320.018098 51.818837 
L 322.571594 51.959421 
L 325.123556 52.125533 
L 327.673729 52.317155 
L 330.221859 52.534269 
L 332.76769 52.776853 
L 335.310968 53.044883 
L 337.851439 53.338332 
L 340.388848 53.657171 
L 342.922942 54.001367 
L 345.453467 54.370886 
L 347.980171 54.765692 
L 350.5028 55.185745 
L 353.021103 55.631003 
L 355.534828 56.101421 
L 358.043722 56.596952 
L 360.547536 57.117547 
L 363.046019 57.663154 
L 365.538921 58.233718 
L 368.025993 58.829182 
L 370.506986 59.449486 
L 372.981652 60.094569 
L 375.449743 60.764366 
L 377.911014 61.45881 
L 380.365216 62.177832 
L 382.812106 62.921359 
L 385.251439 63.689317 
L 387.68297 64.48163 
L 390.106457 65.298219 
L 392.521656 66.139001 
L 394.928327 67.003892 
L 397.32623 67.892807 
L 399.715123 68.805656 
L 402.094768 69.742347 
L 404.464928 70.702788 
L 406.825365 71.686882 
L 409.175843 72.694531 
L 411.516127 73.725634 
L 413.845983 74.780088 
L 416.165179 75.857787 
L 418.473482 76.958624 
L 420.770661 78.082488 
L 423.056487 79.229268 
L 425.330731 80.398848 
L 427.593165 81.591112 
L 429.843564 82.80594 
L 432.081703 84.043211 
L 434.307357 85.302802 
L 436.520304 86.584585 
L 438.720323 87.888433 
L 440.907193 89.214216 
L 443.080697 90.561802 
L 445.240616 91.931054 
L 447.386735 93.321837 
L 449.51884 94.734011 
L 451.636716 96.167435 
L 453.740152 97.621966 
L 455.828938 99.097458 
L 457.902864 100.593764 
L 459.961725 102.110734 
L 462.005312 103.648216 
L 464.033424 105.206057 
L 466.045855 106.784101 
L 468.042406 108.38219 
L 470.022876 110.000165 
L 471.987068 111.637862 
L 473.934785 113.29512 
L 475.865832 114.971771 
L 477.780017 116.667649 
L 479.677147 118.382584 
L 481.557033 120.116403 
L 483.419488 121.868935 
L 485.264324 123.640003 
L 487.091357 125.429431 
L 488.900406 127.237039 
L 490.691288 129.062647 
L 492.463825 130.906073 
L 494.217839 132.767131 
L 495.953155 134.645636 
L 497.6696 136.5414 
L 499.367001 138.454233 
L 501.04519 140.383945 
L 502.703998 142.330341 
L 504.343259 144.293228 
L 505.96281 146.27241 
L 507.562489 148.267687 
L 509.142135 150.278861 
L 510.70159 152.305731 
L 512.2407 154.348094 
L 513.759309 156.405746 
L 515.257266 158.47848 
L 516.734421 160.566091 
L 518.190626 162.668368 
L 519.625736 164.785102 
L 521.039608 166.916081 
L 522.432099 169.061091 
L 523.803071 171.21992 
L 525.152387 173.392349 
L 526.479911 175.578164 
L 527.785511 177.777143 
L 528.711581 179.367895 
L 530.948702 178.076293 
L 530.013278 176.469473 
L 528.69449 174.248281 
L 527.353556 172.040388 
L 525.990612 169.846014 
L 524.605791 167.66538 
L 523.199234 165.498702 
L 521.771081 163.346198 
L 520.321475 161.208083 
L 518.850561 159.084571 
L 517.358485 156.975874 
L 515.845397 154.882202 
L 514.311449 152.803766 
L 512.756793 150.740774 
L 511.181585 148.69343 
L 509.585983 146.661941 
L 507.970146 144.646509 
L 506.334236 142.647336 
L 504.678417 140.664622 
L 503.002853 138.698565 
L 501.307713 136.749361 
L 499.593166 134.817206 
L 497.859383 132.902293 
L 496.106539 131.004813 
L 494.334807 129.124957 
L 492.544366 127.262911 
L 490.735394 125.418862 
L 488.908073 123.592995 
L 487.062584 121.785493 
L 485.199113 119.996535 
L 483.317846 118.226301 
L 481.418971 116.474968 
L 479.502678 114.742711 
L 477.569158 113.029703 
L 475.618605 111.336115 
L 473.651215 109.662118 
L 471.667182 108.007878 
L 469.666707 106.37356 
L 467.649989 104.759329 
L 465.61723 103.165345 
L 463.568633 101.591768 
L 461.504403 100.038756 
L 459.424746 98.506463 
L 457.329871 96.995043 
L 455.219986 95.504647 
L 453.095303 94.035424 
L 450.956034 92.58752 
L 448.802394 91.161082 
L 446.634597 89.756251 
L 444.45286 88.373168 
L 442.257402 87.011971 
L 440.048442 85.672796 
L 437.826201 84.355777 
L 435.5909 83.061046 
L 433.342765 81.788733 
L 431.082019 80.538964 
L 428.808889 79.311865 
L 426.523601 78.107558 
L 424.226385 76.926164 
L 421.91747 75.767801 
L 419.597087 74.632584 
L 417.265468 73.520628 
L 414.922846 72.432043 
L 412.569456 71.366938 
L 410.205533 70.32542 
L 407.831312 69.307593 
L 405.447033 68.313558 
L 403.052932 67.343416 
L 400.64925 66.397263 
L 398.236226 65.475193 
L 395.814103 64.5773 
L 393.383122 63.703672 
L 390.943526 62.854397 
L 388.49556 62.02956 
L 386.039468 61.229244 
L 383.575496 60.453529 
L 381.10389 59.702491 
L 378.624897 58.976207 
L 376.138765 58.274748 
L 373.645744 57.598185 
L 371.146081 56.946586 
L 368.640028 56.320016 
L 366.127834 55.718537 
L 363.609751 55.14221 
L 361.086031 54.591092 
L 358.556926 54.065239 
L 356.022689 53.564702 
L 353.483573 53.089532 
L 350.939833 52.639777 
L 348.391723 52.215482 
L 345.839497 51.816688 
L 343.28341 51.443436 
L 340.723719 51.095763 
L 338.16068 50.773704 
L 335.594548 50.477291 
L 333.02558 50.206553 
L 330.454033 49.961519 
L 327.880165 49.742212 
L 325.304232 49.548654 
L 322.726493 49.380864 
L 320.147204 49.23886 
L 317.566625 49.122655 
L 314.985012 49.032262 
L 312.402625 48.967689 
L 309.819721 48.928943 
L 307.236559 48.916027 
z
" clip-path="url(#pfaaf8cd469)" style="fill: #000080"/>
   </g>
   <g id="patch_3">
    <path d="M 528.711581 179.367895 
L 529.979172 181.589002 
L 531.22449 183.822673 
L 532.447409 186.068686 
L 533.647807 188.326815 
L 534.825564 190.596835 
L 535.980562 192.87852 
L 537.112687 195.171639 
L 538.221823 197.475965 
L 539.307862 199.791268 
L 540.370693 202.117314 
L 541.410212 204.453873 
L 542.426313 206.800709 
L 543.418895 209.157589 
L 544.38786 211.524277 
L 545.333109 213.900536 
L 546.254549 216.286129 
L 547.152087 218.680816 
L 548.025634 221.084359 
L 548.875103 223.496518 
L 549.700407 225.91705 
L 550.501466 228.345714 
L 551.278198 230.782267 
L 552.030526 233.226465 
L 552.758375 235.678065 
L 553.461672 238.13682 
L 554.140347 240.602485 
L 554.794331 243.074813 
L 555.42356 245.553558 
L 556.027971 248.03847 
L 556.607502 250.529303 
L 557.162097 253.025806 
L 557.691699 255.52773 
L 558.196256 258.034826 
L 558.675718 260.546841 
L 559.130035 263.063525 
L 559.559164 265.584626 
L 559.96306 268.109893 
L 560.341684 270.639072 
L 560.694997 273.171911 
L 561.022965 275.708156 
L 561.325555 278.247555 
L 561.602736 280.789852 
L 561.85448 283.334793 
L 562.080763 285.882125 
L 562.281562 288.431592 
L 562.456856 290.98294 
L 562.606629 293.535913 
L 562.730865 296.090256 
L 562.829551 298.645714 
L 562.902679 301.202031 
L 562.95024 303.758951 
L 562.97223 306.31622 
L 562.968646 308.87358 
L 562.93949 311.430776 
L 562.884763 313.987553 
L 562.804472 316.543655 
L 562.698624 319.098826 
L 562.567231 321.652811 
L 562.410304 324.205354 
L 562.22786 326.756201 
L 562.019918 329.305095 
L 561.786497 331.851783 
L 561.527622 334.396009 
L 561.243317 336.93752 
L 560.933612 339.47606 
L 560.598538 342.011376 
L 560.238127 344.543215 
L 559.852417 347.071323 
L 559.441445 349.595448 
L 559.005253 352.115337 
L 558.543885 354.630738 
L 558.057386 357.1414 
L 557.545805 359.647071 
L 557.009193 362.147501 
L 556.447604 364.64244 
L 555.861094 367.131639 
L 555.249722 369.614848 
L 554.613549 372.09182 
L 553.952639 374.562305 
L 553.267057 377.026059 
L 552.556872 379.482833 
L 551.822156 381.932383 
L 551.062981 384.374464 
L 550.279423 386.808831 
L 549.471562 389.23524 
L 548.639477 391.65345 
L 547.783252 394.063218 
L 546.902973 396.464304 
L 545.998727 398.856466 
L 545.070605 401.239467 
L 544.1187 403.613068 
L 543.143107 405.977031 
L 542.143923 408.33112 
L 541.121249 410.6751 
L 540.075187 413.008736 
L 539.005841 415.331795 
L 537.913318 417.644045 
L 536.797728 419.945253 
L 535.659182 422.235191 
L 534.497794 424.51363 
L 533.31368 426.78034 
L 532.106958 429.035097 
L 530.87775 431.277673 
L 529.626177 433.507846 
L 528.352366 435.725392 
L 527.056443 437.930089 
L 525.738539 440.121716 
L 524.398784 442.300055 
L 523.037314 444.464888 
L 521.654264 446.615998 
L 520.249772 448.753171 
L 518.823979 450.876192 
L 517.377027 452.984849 
L 515.909061 455.078931 
L 514.420229 457.158229 
L 512.910678 459.222535 
L 511.38056 461.271643 
L 509.830028 463.305347 
L 508.259236 465.323445 
L 506.668343 467.325734 
L 505.057506 469.312014 
L 503.426887 471.282087 
L 501.77665 473.235755 
L 500.106959 475.172824 
L 498.417981 477.093099 
L 496.709885 478.996389 
L 494.982841 480.882502 
L 493.237024 482.751252 
L 491.472606 484.60245 
L 489.689765 486.435911 
L 487.888679 488.251453 
L 486.069527 490.048893 
L 484.232493 491.828053 
L 482.377759 493.588753 
L 480.505511 495.330818 
L 478.615937 497.054074 
L 476.709224 498.758349 
L 474.785565 500.443471 
L 472.84515 502.109273 
L 470.888175 503.755588 
L 468.914835 505.382251 
L 466.925328 506.989099 
L 464.919851 508.575973 
L 462.898606 510.142713 
L 460.861796 511.689162 
L 458.809622 513.215166 
L 456.742292 514.720573 
L 454.660011 516.205231 
L 452.562988 517.668993 
L 450.451433 519.111711 
L 448.325556 520.533242 
L 446.18557 521.933444 
L 444.03169 523.312176 
L 441.86413 524.669301 
L 439.683107 526.004683 
L 437.48884 527.318188 
L 435.281548 528.609685 
L 433.061452 529.879045 
L 430.828773 531.126141 
L 428.583735 532.350848 
L 426.326562 533.553044 
L 424.05748 534.732609 
L 421.776717 535.889424 
L 419.484499 537.023373 
L 417.181057 538.134345 
L 414.86662 539.222227 
L 412.541421 540.28691 
L 410.205691 541.328289 
L 407.859664 542.346259 
L 405.503575 543.340718 
L 403.13766 544.311566 
L 400.762154 545.258708 
L 398.377296 546.182047 
L 395.983324 547.081492 
L 393.580478 547.956953 
L 391.168997 548.808342 
L 388.749122 549.635573 
L 386.321097 550.438566 
L 383.885163 551.217238 
L 381.441565 551.971512 
L 378.990546 552.701313 
L 376.532352 553.406568 
L 374.067228 554.087206 
L 371.595421 554.743159 
L 369.117178 555.374362 
L 366.632748 555.980751 
L 364.142377 556.562266 
L 361.646317 557.118848 
L 359.144815 557.650443 
L 356.638122 558.156996 
L 354.12649 558.638458 
L 351.610168 559.094779 
L 349.089409 559.525915 
L 346.564465 559.931822 
L 344.035588 560.31246 
L 341.503031 560.66779 
L 338.967048 560.997778 
L 336.427892 561.30239 
L 333.885816 561.581595 
L 331.341076 561.835366 
L 328.793925 562.063677 
L 326.244618 562.266506 
L 323.693411 562.443832 
L 321.140558 562.595638 
L 318.586314 562.721907 
L 316.030936 562.822629 
L 313.474678 562.897792 
L 310.917797 562.947389 
L 308.360547 562.971416 
L 307.236559 562.973886 
L 307.236559 565.557091 
L 308.3719 565.554596 
L 310.954981 565.530327 
L 313.53769 565.480229 
L 316.119768 565.404306 
L 318.700958 565.302568 
L 321.281002 565.175022 
L 323.859642 565.021683 
L 326.436619 564.842566 
L 329.011676 564.637689 
L 331.584556 564.407071 
L 334.155001 564.150737 
L 336.722754 563.868711 
L 339.287558 563.561023 
L 341.849157 563.227702 
L 344.407296 562.868782 
L 346.961717 562.4843 
L 349.512165 562.074292 
L 352.058386 561.638802 
L 354.600125 561.177871 
L 357.137128 560.691546 
L 359.669141 560.179876 
L 362.19591 559.642912 
L 364.717184 559.080707 
L 367.232709 558.493318 
L 369.742235 557.880804 
L 372.24551 557.243226 
L 374.742285 556.580647 
L 377.232309 555.893134 
L 379.715334 555.180755 
L 382.19111 554.443582 
L 384.659392 553.681689 
L 387.119931 552.895152 
L 389.572482 552.084048 
L 392.016799 551.248461 
L 394.452638 550.388472 
L 396.879756 549.504168 
L 399.29791 548.595638 
L 401.706857 547.662972 
L 404.106358 546.706263 
L 406.496172 545.725608 
L 408.876059 544.721104 
L 411.245783 543.692852 
L 413.605106 542.640954 
L 415.953793 541.565516 
L 418.291608 540.466646 
L 420.618317 539.344452 
L 422.933688 538.199048 
L 425.23749 537.030548 
L 427.529491 535.839069 
L 429.809464 534.62473 
L 432.077179 533.387652 
L 434.33241 532.127959 
L 436.574932 530.845777 
L 438.80452 529.541235 
L 441.020951 528.214462 
L 443.224004 526.865591 
L 445.413459 525.494758 
L 447.589096 524.1021 
L 449.750697 522.687754 
L 451.898048 521.251864 
L 454.030932 519.794573 
L 456.149137 518.316026 
L 458.252451 516.816371 
L 460.340663 515.295758 
L 462.413566 513.75434 
L 464.47095 512.19227 
L 466.512612 510.609704 
L 468.538345 509.006802 
L 470.547949 507.383722 
L 472.541222 505.740628 
L 474.517964 504.077684 
L 476.477979 502.395056 
L 478.421069 500.692912 
L 480.347041 498.971423 
L 482.255703 497.23076 
L 484.146862 495.471098 
L 486.020331 493.692613 
L 487.875921 491.895483 
L 489.713448 490.079886 
L 491.532727 488.246006 
L 493.333576 486.394024 
L 495.115816 484.524127 
L 496.879268 482.636502 
L 498.623757 480.731336 
L 500.349106 478.808822 
L 502.055145 476.86915 
L 503.741701 474.912515 
L 505.408608 472.939112 
L 507.055697 470.94914 
L 508.682805 468.942796 
L 510.289768 466.920282 
L 511.876426 464.8818 
L 513.44262 462.827553 
L 514.988194 460.757747 
L 516.512993 458.67259 
L 518.016864 456.572288 
L 519.499658 454.457054 
L 520.961225 452.327097 
L 522.40142 450.182632 
L 523.820099 448.023872 
L 525.21712 445.851033 
L 526.592342 443.664333 
L 527.94563 441.46399 
L 529.276846 439.250225 
L 530.585859 437.023259 
L 531.872537 434.783314 
L 533.136751 432.530614 
L 534.378376 430.265385 
L 535.597287 427.987853 
L 536.793362 425.698247 
L 537.966481 423.396794 
L 539.116528 421.083725 
L 540.243387 418.759272 
L 541.346945 416.423666 
L 542.427092 414.077142 
L 543.483721 411.719934 
L 544.516725 409.352278 
L 545.526001 406.97441 
L 546.511449 404.586568 
L 547.472969 402.188992 
L 548.410466 399.78192 
L 549.323845 397.365594 
L 550.213017 394.940255 
L 551.07789 392.506146 
L 551.91838 390.06351 
L 552.734402 387.612591 
L 553.525874 385.153635 
L 554.292717 382.686887 
L 555.034855 380.212594 
L 555.752213 377.731003 
L 556.44472 375.242364 
L 557.112307 372.746923 
L 557.754906 370.244932 
L 558.372453 367.73664 
L 558.964887 365.222298 
L 559.532149 362.702157 
L 560.074181 360.17647 
L 560.590929 357.645489 
L 561.082343 355.109467 
L 561.548372 352.568658 
L 561.98897 350.023316 
L 562.404092 347.473695 
L 562.793699 344.92005 
L 563.15775 342.362637 
L 563.496209 339.801711 
L 563.809042 337.237529 
L 564.096218 334.670347 
L 564.357709 332.100422 
L 564.593487 329.52801 
L 564.80353 326.953369 
L 564.987817 324.376756 
L 565.146328 321.79843 
L 565.279049 319.218647 
L 565.385966 316.637666 
L 565.467068 314.055745 
L 565.522348 311.473142 
L 565.551799 308.890115 
L 565.555418 306.306923 
L 565.533206 303.723824 
L 565.485165 301.141076 
L 565.411299 298.558938 
L 565.311615 295.977668 
L 565.186124 293.397523 
L 565.034839 290.818762 
L 564.857774 288.241643 
L 564.654947 285.666424 
L 564.426378 283.093361 
L 564.172091 280.522713 
L 563.89211 277.954736 
L 563.586464 275.389688 
L 563.255184 272.827824 
L 562.898301 270.269401 
L 562.515853 267.714674 
L 562.107877 265.1639 
L 561.674414 262.617333 
L 561.215507 260.075227 
L 560.731203 257.537838 
L 560.221549 255.005419 
L 559.686597 252.478223 
L 559.126401 249.956502 
L 558.541015 247.44051 
L 557.9305 244.930497 
L 557.294915 242.426715 
L 556.634324 239.929413 
L 555.948794 237.438843 
L 555.238393 234.955251 
L 554.503192 232.478889 
L 553.743265 230.010001 
L 552.958687 227.548837 
L 552.149537 225.095641 
L 551.315896 222.650659 
L 550.457847 220.214135 
L 549.575476 217.786314 
L 548.668872 215.367438 
L 547.738125 212.957748 
L 546.783327 210.557486 
L 545.804575 208.166893 
L 544.801967 205.786206 
L 543.775602 203.415664 
L 542.725584 201.055504 
L 541.652017 198.705962 
L 540.555008 196.367273 
L 539.434668 194.03967 
L 538.291108 191.723388 
L 537.124443 189.418656 
L 535.934789 187.125707 
L 534.722266 184.844768 
L 533.486994 182.576068 
L 532.229098 180.319835 
L 530.948702 178.076293 
z
" clip-path="url(#pfaaf8cd469)" style="fill: #00d4ff"/>
   </g>
   <g id="patch_4">
    <path d="M 307.236559 562.973886 
L 304.679228 562.961099 
L 302.122153 562.92274 
L 299.56559 562.858812 
L 297.009793 562.769323 
L 294.45502 562.654281 
L 291.901524 562.513697 
L 289.349562 562.347585 
L 286.799389 562.155963 
L 284.251259 561.938848 
L 281.705428 561.696264 
L 279.16215 561.428234 
L 276.621679 561.134785 
L 274.08427 560.815947 
L 271.550176 560.471751 
L 269.01965 560.102231 
L 266.492947 559.707425 
L 263.970317 559.287372 
L 261.452014 558.842115 
L 258.93829 558.371697 
L 256.429395 557.876166 
L 253.925581 557.35557 
L 251.427098 556.809964 
L 248.934196 556.2394 
L 246.447125 555.643936 
L 243.966132 555.023631 
L 241.491466 554.378548 
L 239.023374 553.708752 
L 236.562104 553.014308 
L 234.107901 552.295286 
L 231.661011 551.551759 
L 229.221679 550.7838 
L 226.790147 549.991487 
L 224.366661 549.174899 
L 221.951461 548.334117 
L 219.54479 547.469225 
L 217.146888 546.580311 
L 214.757995 545.667462 
L 212.378349 544.73077 
L 210.00819 543.770329 
L 207.647753 542.786235 
L 205.297275 541.778586 
L 202.956991 540.747484 
L 200.627134 539.69303 
L 198.307939 538.615331 
L 195.999636 537.514494 
L 193.702457 536.390629 
L 191.416631 535.24385 
L 189.142387 534.074269 
L 186.879952 532.882005 
L 184.629553 531.667177 
L 182.391415 530.429906 
L 180.165761 529.170316 
L 177.952813 527.888533 
L 175.752795 526.584684 
L 173.565924 525.258901 
L 171.39242 523.911316 
L 169.232501 522.542064 
L 167.086382 521.151281 
L 164.954278 519.739107 
L 162.836402 518.305683 
L 160.732966 516.851152 
L 158.64418 515.37566 
L 156.570253 513.879354 
L 154.511393 512.362384 
L 152.467805 510.824901 
L 150.439694 509.26706 
L 148.427262 507.689016 
L 146.430712 506.090927 
L 144.450241 504.472953 
L 142.48605 502.835255 
L 140.538333 501.177998 
L 138.607285 499.501346 
L 136.693101 497.805468 
L 134.795971 496.090534 
L 132.916084 494.356714 
L 131.05363 492.604183 
L 129.208794 490.833114 
L 127.38176 489.043687 
L 125.572712 487.236078 
L 123.78183 485.41047 
L 122.009293 483.567045 
L 120.255279 481.705987 
L 118.519963 479.827482 
L 116.803518 477.931718 
L 115.106116 476.018884 
L 113.427928 474.089173 
L 111.76912 472.142776 
L 110.129858 470.179889 
L 108.510307 468.200708 
L 106.910629 466.20543 
L 105.330983 464.194256 
L 103.771527 462.167386 
L 102.232418 460.125023 
L 100.713809 458.067372 
L 99.215852 455.994637 
L 97.738697 453.907027 
L 96.282491 451.80475 
L 94.847381 449.688016 
L 93.43351 447.557037 
L 92.041019 445.412026 
L 90.670047 443.253198 
L 89.320731 441.080768 
L 87.993207 438.894954 
L 86.687607 436.695974 
L 85.761537 435.105222 
L 83.524416 436.396825 
L 84.45984 438.003645 
L 85.778628 440.224837 
L 87.119561 442.43273 
L 88.482506 444.627103 
L 89.867326 446.807738 
L 91.273883 448.974416 
L 92.702036 451.126919 
L 94.151642 453.265035 
L 95.622557 455.388547 
L 97.114633 457.497244 
L 98.627721 459.590915 
L 100.161669 461.669351 
L 101.716325 463.732344 
L 103.291533 465.779687 
L 104.887135 467.811177 
L 106.502971 469.826608 
L 108.138881 471.825781 
L 109.794701 473.808496 
L 111.470265 475.774553 
L 113.165405 477.723756 
L 114.879952 479.655911 
L 116.613734 481.570824 
L 118.366579 483.468304 
L 120.13831 485.348161 
L 121.928752 487.210207 
L 123.737723 489.054255 
L 125.565045 490.880122 
L 127.410533 492.687625 
L 129.274004 494.476583 
L 131.155272 496.246817 
L 133.054147 497.99815 
L 134.97044 499.730407 
L 136.903959 501.443415 
L 138.854512 503.137002 
L 140.821903 504.811 
L 142.805935 506.46524 
L 144.80641 508.099557 
L 146.823128 509.713789 
L 148.855887 511.307772 
L 150.904484 512.881349 
L 152.968715 514.434362 
L 155.048371 515.966655 
L 157.143247 517.478075 
L 159.253132 518.968471 
L 161.377815 520.437694 
L 163.517083 521.885597 
L 165.670724 523.312036 
L 167.838521 524.716867 
L 170.020257 526.09995 
L 172.215716 527.461147 
L 174.424676 528.800322 
L 176.646917 530.11734 
L 178.882217 531.412071 
L 181.130353 532.684384 
L 183.391099 533.934153 
L 185.664229 535.161252 
L 187.949516 536.365559 
L 190.246733 537.546953 
L 192.555648 538.705317 
L 194.876031 539.840533 
L 197.207649 540.95249 
L 199.550271 542.041075 
L 201.903662 543.10618 
L 204.267585 544.147698 
L 206.641805 545.165525 
L 209.026085 546.159559 
L 211.420186 547.129702 
L 213.823868 548.075855 
L 216.236891 548.997924 
L 218.659015 549.895818 
L 221.089996 550.769446 
L 223.529591 551.61872 
L 225.977557 552.443557 
L 228.433649 553.243873 
L 230.897622 554.019589 
L 233.369228 554.770627 
L 235.848221 555.496911 
L 238.334352 556.19837 
L 240.827374 556.874932 
L 243.327036 557.526531 
L 245.83309 558.153101 
L 248.345284 558.75458 
L 250.863366 559.330907 
L 253.387087 559.882025 
L 255.916192 560.407879 
L 258.450429 560.908415 
L 260.989544 561.383585 
L 263.533284 561.83334 
L 266.081395 562.257636 
L 268.633621 562.65643 
L 271.189707 563.029682 
L 273.749398 563.377355 
L 276.312438 563.699414 
L 278.87857 563.995827 
L 281.447537 564.266564 
L 284.019084 564.511599 
L 286.592953 564.730906 
L 289.168885 564.924464 
L 291.746625 565.092253 
L 294.325913 565.234258 
L 296.906493 565.350462 
L 299.488105 565.440855 
L 302.070493 565.505429 
L 304.653397 565.544175 
L 307.236559 565.557091 
z
" clip-path="url(#pfaaf8cd469)" style="fill: #ffe600"/>
   </g>
   <g id="patch_5">
    <path d="M 85.761537 435.105222 
L 84.493945 432.884116 
L 83.248628 430.650444 
L 82.025709 428.404432 
L 80.825311 426.146302 
L 79.647554 423.876282 
L 78.492555 421.594598 
L 77.360431 419.301478 
L 76.251294 416.997152 
L 75.165256 414.68185 
L 74.102424 412.355803 
L 73.062906 410.019245 
L 72.046805 407.672408 
L 71.054222 405.315528 
L 70.085258 402.94884 
L 69.140009 400.572581 
L 68.218569 398.186989 
L 67.32103 395.792301 
L 66.447483 393.388758 
L 65.598015 390.9766 
L 64.77271 388.556068 
L 63.971652 386.127404 
L 63.19492 383.690851 
L 62.442592 381.246652 
L 61.714743 378.795053 
L 61.011446 376.336298 
L 60.332771 373.870633 
L 59.678786 371.398304 
L 59.049557 368.91956 
L 58.445147 366.434647 
L 57.865615 363.943815 
L 57.311021 361.447311 
L 56.781418 358.945387 
L 56.276861 356.438292 
L 55.7974 353.926277 
L 55.343082 351.409593 
L 54.913954 348.888491 
L 54.510058 346.363225 
L 54.131434 343.834045 
L 53.77812 341.301207 
L 53.450152 338.764961 
L 53.147563 336.225563 
L 52.870382 333.683266 
L 52.618637 331.138324 
L 52.392354 328.590992 
L 52.191556 326.041525 
L 52.016261 323.490177 
L 51.866489 320.937204 
L 51.742253 318.382861 
L 51.643566 315.827403 
L 51.570439 313.271086 
L 51.522878 310.714166 
L 51.500888 308.156898 
L 51.504471 305.599538 
L 51.533628 303.042342 
L 51.588354 300.485565 
L 51.668645 297.929463 
L 51.774493 295.374291 
L 51.905887 292.820307 
L 52.062813 290.267763 
L 52.245257 287.716917 
L 52.4532 285.168022 
L 52.686621 282.621334 
L 52.945496 280.077108 
L 53.2298 277.535598 
L 53.539505 274.997058 
L 53.87458 272.461741 
L 54.23499 269.929903 
L 54.6207 267.401794 
L 55.031672 264.87767 
L 55.467864 262.357781 
L 55.929233 259.84238 
L 56.415732 257.331718 
L 56.927313 254.826047 
L 57.463925 252.325616 
L 58.025513 249.830677 
L 58.612023 247.341479 
L 59.223395 244.858269 
L 59.859568 242.381298 
L 60.520479 239.910812 
L 61.206061 237.447059 
L 61.916245 234.990284 
L 62.650962 232.540734 
L 63.410137 230.098654 
L 64.193694 227.664287 
L 65.001556 225.237877 
L 65.833641 222.819668 
L 66.689866 220.4099 
L 67.570145 218.008814 
L 68.474391 215.616651 
L 69.402513 213.23365 
L 70.354418 210.86005 
L 71.330011 208.496086 
L 72.329194 206.141997 
L 73.351868 203.798017 
L 74.39793 201.464381 
L 75.467276 199.141322 
L 76.559799 196.829073 
L 77.675389 194.527864 
L 78.813936 192.237926 
L 79.975324 189.959488 
L 81.159438 187.692777 
L 82.366159 185.438021 
L 83.595368 183.195444 
L 84.84694 180.965271 
L 86.120752 178.747726 
L 87.416674 176.543029 
L 88.734579 174.351401 
L 90.074333 172.173062 
L 91.435804 170.008229 
L 92.818854 167.857119 
L 94.223346 165.719947 
L 95.649139 163.596926 
L 97.096091 161.488269 
L 98.564056 159.394187 
L 100.052889 157.314888 
L 101.56244 155.250582 
L 103.092558 153.201475 
L 104.64309 151.16777 
L 106.213881 149.149673 
L 107.804775 147.147384 
L 109.415612 145.161103 
L 111.04623 143.191031 
L 112.696468 141.237362 
L 114.366159 139.300294 
L 116.055137 137.380019 
L 117.763233 135.476729 
L 119.490276 133.590615 
L 121.236094 131.721866 
L 123.000512 129.870668 
L 124.783353 128.037206 
L 126.584439 126.221665 
L 128.40359 124.424224 
L 130.240625 122.645065 
L 132.095358 120.884365 
L 133.967606 119.142299 
L 135.857181 117.419043 
L 137.763893 115.714769 
L 139.687553 114.029646 
L 141.627967 112.363845 
L 143.584942 110.71753 
L 145.558282 109.090867 
L 147.54779 107.484018 
L 149.553267 105.897145 
L 151.574511 104.330405 
L 153.611322 102.783956 
L 155.663495 101.257951 
L 157.730825 99.752545 
L 159.813106 98.267887 
L 161.910129 96.804125 
L 164.021685 95.361406 
L 166.147562 93.939875 
L 168.287547 92.539673 
L 170.441428 91.160941 
L 172.608988 89.803816 
L 174.79001 88.468435 
L 176.984277 87.15493 
L 179.191569 85.863432 
L 181.411666 84.594072 
L 183.644345 83.346977 
L 185.889383 82.122269 
L 188.146556 80.920074 
L 190.415637 79.740509 
L 192.696401 78.583694 
L 194.988618 77.449744 
L 197.292061 76.338773 
L 199.606497 75.250891 
L 201.931697 74.186207 
L 204.267426 73.144829 
L 206.613453 72.126859 
L 208.969542 71.1324 
L 211.335458 70.161551 
L 213.710963 69.21441 
L 216.095821 68.291071 
L 218.489793 67.391626 
L 220.89264 66.516165 
L 223.304121 65.664776 
L 225.723995 64.837544 
L 228.15202 64.034552 
L 230.587954 63.25588 
L 233.031553 62.501605 
L 235.482572 61.771804 
L 237.940766 61.06655 
L 240.40589 60.385912 
L 242.877697 59.729958 
L 245.355939 59.098756 
L 247.84037 58.492367 
L 250.33074 57.910852 
L 252.826801 57.354269 
L 255.328303 56.822675 
L 257.834995 56.316121 
L 260.346628 55.83466 
L 262.862949 55.378338 
L 265.383708 54.947203 
L 267.908652 54.541295 
L 270.437529 54.160658 
L 272.970086 53.805327 
L 275.506069 53.47534 
L 278.045226 53.170728 
L 280.587301 52.891523 
L 283.132042 52.637752 
L 285.679193 52.40944 
L 288.228499 52.206611 
L 290.779707 52.029285 
L 293.33256 51.87748 
L 295.886803 51.75121 
L 298.442181 51.650489 
L 300.998439 51.575325 
L 303.555321 51.525728 
L 306.112571 51.501702 
L 307.236559 51.499232 
L 307.236559 48.916027 
L 306.101217 48.918522 
L 303.518137 48.942791 
L 300.935428 48.992889 
L 298.353349 49.068811 
L 295.772159 49.17055 
L 293.192115 49.298095 
L 290.613476 49.451434 
L 288.036499 49.630551 
L 285.461442 49.835429 
L 282.888562 50.066046 
L 280.318117 50.322381 
L 277.750364 50.604406 
L 275.185559 50.912095 
L 272.62396 51.245416 
L 270.065822 51.604335 
L 267.511401 51.988818 
L 264.960952 52.398825 
L 262.414731 52.834316 
L 259.872992 53.295247 
L 257.33599 53.781572 
L 254.803977 54.293242 
L 252.277207 54.830206 
L 249.755934 55.39241 
L 247.240408 55.979799 
L 244.730883 56.592313 
L 242.227607 57.229892 
L 239.730833 57.892471 
L 237.240808 58.579984 
L 234.757784 59.292362 
L 232.282007 60.029535 
L 229.813726 60.791428 
L 227.353187 61.577966 
L 224.900636 62.389069 
L 222.456319 63.224657 
L 220.020479 64.084646 
L 217.593361 64.96895 
L 215.175208 65.87748 
L 212.76626 66.810146 
L 210.36676 67.766854 
L 207.976946 68.74751 
L 205.597058 69.752013 
L 203.227334 70.780266 
L 200.868011 71.832163 
L 198.519325 72.907601 
L 196.18151 74.006472 
L 193.854801 75.128665 
L 191.53943 76.274069 
L 189.235628 77.442569 
L 186.943626 78.634048 
L 184.663654 79.848388 
L 182.395939 81.085466 
L 180.140707 82.345158 
L 177.898186 83.62734 
L 175.668598 84.931883 
L 173.452166 86.258656 
L 171.249113 87.607526 
L 169.059659 88.978359 
L 166.884022 90.371018 
L 164.72242 91.785363 
L 162.57507 93.221253 
L 160.442186 94.678545 
L 158.32398 96.157092 
L 156.220667 97.656747 
L 154.132454 99.177359 
L 152.059552 100.718778 
L 150.002167 102.280848 
L 147.960506 103.863413 
L 145.934772 105.466316 
L 143.925168 107.089395 
L 141.931896 108.732489 
L 139.955153 110.395433 
L 137.995139 112.078061 
L 136.052048 113.780205 
L 134.126076 115.501695 
L 132.217415 117.242357 
L 130.326255 119.002019 
L 128.452787 120.780504 
L 126.597197 122.577635 
L 124.75967 124.393231 
L 122.940391 126.227112 
L 121.139541 128.079093 
L 119.357301 129.94899 
L 117.593849 131.836616 
L 115.849361 133.741781 
L 114.124011 135.664296 
L 112.417973 137.603968 
L 110.731416 139.560603 
L 109.06451 141.534005 
L 107.41742 143.523978 
L 105.790313 145.530321 
L 104.183349 147.552835 
L 102.596691 149.591318 
L 101.030497 151.645565 
L 99.484923 153.71537 
L 97.960125 155.800528 
L 96.456253 157.900829 
L 94.97346 160.016064 
L 93.511892 162.14602 
L 92.071697 164.290486 
L 90.653019 166.449246 
L 89.255998 168.622085 
L 87.880775 170.808785 
L 86.527488 173.009127 
L 85.196271 175.222892 
L 83.887259 177.449859 
L 82.600581 179.689804 
L 81.336366 181.942504 
L 80.094741 184.207732 
L 78.875831 186.485264 
L 77.679756 188.774871 
L 76.506636 191.076324 
L 75.35659 193.389392 
L 74.229731 195.713846 
L 73.126173 198.049451 
L 72.046025 200.395976 
L 70.989397 202.753184 
L 69.956392 205.12084 
L 68.947116 207.498708 
L 67.961669 209.886549 
L 67.000148 212.284126 
L 66.062652 214.691198 
L 65.149272 217.107524 
L 64.260101 219.532863 
L 63.395227 221.966972 
L 62.554738 224.409608 
L 61.738716 226.860527 
L 60.947244 229.319483 
L 60.1804 231.786231 
L 59.438262 234.260524 
L 58.720904 236.742114 
L 58.028397 239.230754 
L 57.360811 241.726194 
L 56.718212 244.228186 
L 56.100664 246.736478 
L 55.50823 249.25082 
L 54.940969 251.77096 
L 54.398937 254.296648 
L 53.882188 256.827629 
L 53.390775 259.363651 
L 52.924746 261.90446 
L 52.484148 264.449802 
L 52.069025 266.999423 
L 51.679419 269.553068 
L 51.315368 272.110481 
L 50.976909 274.671406 
L 50.664076 277.235588 
L 50.376899 279.80277 
L 50.115409 282.372696 
L 49.87963 284.945108 
L 49.669587 287.519749 
L 49.485301 290.096361 
L 49.326789 292.674688 
L 49.194068 295.254471 
L 49.087151 297.835452 
L 49.006049 300.417373 
L 48.95077 302.999976 
L 48.921319 305.583002 
L 48.917699 308.166194 
L 48.939911 310.749293 
L 48.987953 313.332041 
L 49.061819 315.914179 
L 49.161502 318.49545 
L 49.286993 321.075595 
L 49.438279 323.654355 
L 49.615344 326.231474 
L 49.818171 328.806694 
L 50.046739 331.379756 
L 50.301026 333.950404 
L 50.581007 336.518381 
L 50.886653 339.08343 
L 51.217934 341.645294 
L 51.574816 344.203717 
L 51.957265 346.758444 
L 52.365241 349.309218 
L 52.798704 351.855785 
L 53.257611 354.39789 
L 53.741915 356.935279 
L 54.251568 359.467699 
L 54.78652 361.994895 
L 55.346717 364.516615 
L 55.932102 367.032608 
L 56.542618 369.54262 
L 57.178203 372.046403 
L 57.838793 374.543704 
L 58.524323 377.034275 
L 59.234724 379.517866 
L 59.969925 381.994229 
L 60.729853 384.463116 
L 61.514431 386.924281 
L 62.323581 389.377477 
L 63.157222 391.822459 
L 64.01527 394.258982 
L 64.897641 396.686804 
L 65.804245 399.10568 
L 66.734993 401.515369 
L 67.68979 403.915631 
L 68.668542 406.306225 
L 69.671151 408.686912 
L 70.697515 411.057454 
L 71.747534 413.417614 
L 72.821101 415.767156 
L 73.91811 418.105845 
L 75.03845 420.433447 
L 76.18201 422.74973 
L 77.348675 425.054461 
L 78.538328 427.347411 
L 79.750852 429.628349 
L 80.986123 431.897049 
L 82.24402 434.153283 
L 83.524416 436.396825 
z
" clip-path="url(#pfaaf8cd469)" style="fill: #800000"/>
   </g>
   <g id="PatchCollection_1">
    <path d="M 528.711581 179.367895 
L 528.711581 179.367895 
L 529.979172 181.589002 
L 531.22449 183.822673 
L 532.447409 186.068686 
L 533.647807 188.326815 
L 534.825564 190.596835 
L 535.980562 192.87852 
L 537.112687 195.171639 
L 538.221823 197.475965 
L 539.307862 199.791268 
L 540.370693 202.117314 
L 541.410212 204.453873 
L 542.426313 206.800709 
L 543.418895 209.157589 
L 544.38786 211.524277 
L 545.333109 213.900536 
L 546.254549 216.286129 
L 547.152087 218.680816 
L 548.025634 221.084359 
L 548.875103 223.496518 
L 549.700407 225.91705 
L 550.501466 228.345714 
L 551.278198 230.782267 
L 552.030526 233.226465 
L 552.758375 235.678065 
L 553.461672 238.13682 
L 554.140347 240.602485 
L 554.794331 243.074813 
L 555.42356 245.553558 
L 556.027971 248.03847 
L 556.607502 250.529303 
L 557.162097 253.025806 
L 557.691699 255.52773 
L 558.196256 258.034826 
L 558.675718 260.546841 
L 559.130035 263.063525 
L 559.559164 265.584626 
L 559.96306 268.109893 
L 560.341684 270.639072 
L 560.694997 273.171911 
L 561.022965 275.708156 
L 561.325555 278.247555 
L 561.602736 280.789852 
L 561.85448 283.334793 
L 562.080763 285.882125 
L 562.281562 288.431592 
L 562.456856 290.98294 
L 562.606629 293.535913 
L 562.730865 296.090256 
L 562.829551 298.645714 
L 562.902679 301.202031 
L 562.95024 303.758951 
L 562.97223 306.31622 
L 562.968646 308.87358 
L 562.93949 311.430776 
L 562.884763 313.987553 
L 562.804472 316.543655 
L 562.698624 319.098826 
L 562.567231 321.652811 
L 562.410304 324.205354 
L 562.22786 326.756201 
L 562.019918 329.305095 
L 561.786497 331.851783 
L 561.527622 334.396009 
L 561.243317 336.93752 
L 560.933612 339.47606 
L 560.598538 342.011376 
L 560.238127 344.543215 
L 559.852417 347.071323 
L 559.441445 349.595448 
L 559.005253 352.115337 
L 558.543885 354.630738 
L 558.057386 357.1414 
L 557.545805 359.647071 
L 557.009193 362.147501 
L 556.447604 364.64244 
L 555.861094 367.131639 
L 555.249722 369.614848 
L 554.613549 372.09182 
L 553.952639 374.562305 
L 553.267057 377.026059 
L 552.556872 379.482833 
L 551.822156 381.932383 
L 551.062981 384.374464 
L 550.279423 386.808831 
L 549.471562 389.23524 
L 548.639477 391.65345 
L 547.783252 394.063218 
L 546.902973 396.464304 
L 545.998727 398.856466 
L 545.070605 401.239467 
L 544.1187 403.613068 
L 543.143107 405.977031 
L 542.143923 408.33112 
L 541.121249 410.6751 
L 540.075187 413.008736 
L 539.005841 415.331795 
L 537.913318 417.644045 
L 536.797728 419.945253 
L 535.659182 422.235191 
L 534.497794 424.51363 
L 533.31368 426.78034 
L 532.106958 429.035097 
L 530.87775 431.277673 
L 529.626177 433.507846 
L 528.352366 435.725392 
L 527.056443 437.930089 
L 525.738539 440.121716 
L 524.398784 442.300055 
L 523.037314 444.464888 
L 521.654264 446.615998 
L 520.249772 448.753171 
L 518.823979 450.876192 
L 517.377027 452.984849 
L 515.909061 455.078931 
L 514.420229 457.158229 
L 512.910678 459.222535 
L 511.38056 461.271643 
L 509.830028 463.305347 
L 508.259236 465.323445 
L 506.668343 467.325734 
L 505.057506 469.312014 
L 503.426887 471.282087 
L 501.77665 473.235755 
L 500.106959 475.172824 
L 498.417981 477.093099 
L 496.709885 478.996389 
L 494.982841 480.882502 
L 493.237024 482.751252 
L 491.472606 484.60245 
L 489.689765 486.435911 
L 487.888679 488.251453 
L 486.069527 490.048893 
L 484.232493 491.828053 
L 482.377759 493.588753 
L 480.505511 495.330818 
L 478.615937 497.054074 
L 476.709224 498.758349 
L 474.785565 500.443471 
L 472.84515 502.109273 
L 470.888175 503.755588 
L 468.914835 505.382251 
L 466.925328 506.989099 
L 464.919851 508.575973 
L 462.898606 510.142713 
L 460.861796 511.689162 
L 458.809622 513.215166 
L 456.742292 514.720573 
L 454.660011 516.205231 
L 452.562988 517.668993 
L 450.451433 519.111711 
L 448.325556 520.533242 
L 446.18557 521.933444 
L 444.03169 523.312176 
L 441.86413 524.669301 
L 439.683107 526.004683 
L 437.48884 527.318188 
L 435.281548 528.609685 
L 433.061452 529.879045 
L 430.828773 531.126141 
L 428.583735 532.350848 
L 426.326562 533.553044 
L 424.05748 534.732609 
L 421.776717 535.889424 
L 419.484499 537.023373 
L 417.181057 538.134345 
L 414.86662 539.222227 
L 412.541421 540.28691 
L 410.205691 541.328289 
L 407.859664 542.346259 
L 405.503575 543.340718 
L 403.13766 544.311566 
L 400.762154 545.258708 
L 398.377296 546.182047 
L 395.983324 547.081492 
L 393.580478 547.956953 
L 391.168997 548.808342 
L 388.749122 549.635573 
L 386.321097 550.438566 
L 383.885163 551.217238 
L 381.441565 551.971512 
L 378.990546 552.701313 
L 376.532352 553.406568 
L 374.067228 554.087206 
L 371.595421 554.743159 
L 369.117178 555.374362 
L 366.632748 555.980751 
L 364.142377 556.562266 
L 361.646317 557.118848 
L 359.144815 557.650443 
L 356.638122 558.156996 
L 354.12649 558.638458 
L 351.610168 559.094779 
L 349.089409 559.525915 
L 346.564465 559.931822 
L 344.035588 560.31246 
L 341.503031 560.66779 
L 338.967048 560.997778 
L 336.427892 561.30239 
L 333.885816 561.581595 
L 331.341076 561.835366 
L 328.793925 562.063677 
L 326.244618 562.266506 
L 323.693411 562.443832 
L 321.140558 562.595638 
L 318.586314 562.721907 
L 316.030936 562.822629 
L 313.474678 562.897792 
L 310.917797 562.947389 
L 308.360547 562.971416 
L 307.236559 562.973886 
L 307.236559 562.973886 
Q 307.236559 307.236559 85.761537 435.105222 
L 85.761537 435.105222 
L 85.761537 435.105222 
L 84.493945 432.884116 
L 83.248628 430.650444 
L 82.025709 428.404432 
L 80.825311 426.146302 
L 79.647554 423.876282 
L 78.492555 421.594598 
L 77.360431 419.301478 
L 76.251294 416.997152 
L 75.165256 414.68185 
L 74.102424 412.355803 
L 73.062906 410.019245 
L 72.046805 407.672408 
L 71.054222 405.315528 
L 70.085258 402.94884 
L 69.140009 400.572581 
L 68.218569 398.186989 
L 67.32103 395.792301 
L 66.447483 393.388758 
L 65.598015 390.9766 
L 64.77271 388.556068 
L 63.971652 386.127404 
L 63.19492 383.690851 
L 62.442592 381.246652 
L 61.714743 378.795053 
L 61.011446 376.336298 
L 60.332771 373.870633 
L 59.678786 371.398304 
L 59.049557 368.91956 
L 58.445147 366.434647 
L 57.865615 363.943815 
L 57.311021 361.447311 
L 56.781418 358.945387 
L 56.276861 356.438292 
L 55.7974 353.926277 
L 55.343082 351.409593 
L 54.913954 348.888491 
L 54.510058 346.363225 
L 54.131434 343.834045 
L 53.77812 341.301207 
L 53.450152 338.764961 
L 53.147563 336.225563 
L 52.870382 333.683266 
L 52.618637 331.138324 
L 52.392354 328.590992 
L 52.191556 326.041525 
L 52.016261 323.490177 
L 51.866489 320.937204 
L 51.742253 318.382861 
L 51.643566 315.827403 
L 51.570439 313.271086 
L 51.522878 310.714166 
L 51.500888 308.156898 
L 51.504471 305.599538 
L 51.533628 303.042342 
L 51.588354 300.485565 
L 51.668645 297.929463 
L 51.774493 295.374291 
L 51.905887 292.820307 
L 52.062813 290.267763 
L 52.245257 287.716917 
L 52.4532 285.168022 
L 52.686621 282.621334 
L 52.945496 280.077108 
L 53.2298 277.535598 
L 53.539505 274.997058 
L 53.87458 272.461741 
L 54.23499 269.929903 
L 54.6207 267.401794 
L 55.031672 264.87767 
L 55.467864 262.357781 
L 55.929233 259.84238 
L 56.415732 257.331718 
L 56.927313 254.826047 
L 57.463925 252.325616 
L 58.025513 249.830677 
L 58.612023 247.341479 
L 59.223395 244.858269 
L 59.859568 242.381298 
L 60.520479 239.910812 
L 61.206061 237.447059 
L 61.916245 234.990284 
L 62.650962 232.540734 
L 63.410137 230.098654 
L 64.193694 227.664287 
L 65.001556 225.237877 
L 65.833641 222.819668 
L 66.689866 220.4099 
L 67.570145 218.008814 
L 68.474391 215.616651 
L 69.402513 213.23365 
L 70.354418 210.86005 
L 71.330011 208.496086 
L 72.329194 206.141997 
L 73.351868 203.798017 
L 74.39793 201.464381 
L 75.467276 199.141322 
L 76.559799 196.829073 
L 77.675389 194.527864 
L 78.813936 192.237926 
L 79.975324 189.959488 
L 81.159438 187.692777 
L 82.366159 185.438021 
L 83.595368 183.195444 
L 84.84694 180.965271 
L 86.120752 178.747726 
L 87.416674 176.543029 
L 88.734579 174.351401 
L 90.074333 172.173062 
L 91.435804 170.008229 
L 92.818854 167.857119 
L 94.223346 165.719947 
L 95.649139 163.596926 
L 97.096091 161.488269 
L 98.564056 159.394187 
L 100.052889 157.314888 
L 101.56244 155.250582 
L 103.092558 153.201475 
L 104.64309 151.16777 
L 106.213881 149.149673 
L 107.804775 147.147384 
L 109.415612 145.161103 
L 111.04623 143.191031 
L 112.696468 141.237362 
L 114.366159 139.300294 
L 116.055137 137.380019 
L 117.763233 135.476729 
L 119.490276 133.590615 
L 121.236094 131.721866 
L 123.000512 129.870668 
L 124.783353 128.037206 
L 126.584439 126.221665 
L 128.40359 124.424224 
L 130.240625 122.645065 
L 132.095358 120.884365 
L 133.967606 119.142299 
L 135.857181 117.419043 
L 137.763893 115.714769 
L 139.687553 114.029646 
L 141.627967 112.363845 
L 143.584942 110.71753 
L 145.558282 109.090867 
L 147.54779 107.484018 
L 149.553267 105.897145 
L 151.574511 104.330405 
L 153.611322 102.783956 
L 155.663495 101.257951 
L 157.730825 99.752545 
L 159.813106 98.267887 
L 161.910129 96.804125 
L 164.021685 95.361406 
L 166.147562 93.939875 
L 168.287547 92.539673 
L 170.441428 91.160941 
L 172.608988 89.803816 
L 174.79001 88.468435 
L 176.984277 87.15493 
L 179.191569 85.863432 
L 181.411666 84.594072 
L 183.644345 83.346977 
L 185.889383 82.122269 
L 188.146556 80.920074 
L 190.415637 79.740509 
L 192.696401 78.583694 
L 194.988618 77.449744 
L 197.292061 76.338773 
L 199.606497 75.250891 
L 201.931697 74.186207 
L 204.267426 73.144829 
L 206.613453 72.126859 
L 208.969542 71.1324 
L 211.335458 70.161551 
L 213.710963 69.21441 
L 216.095821 68.291071 
L 218.489793 67.391626 
L 220.89264 66.516165 
L 223.304121 65.664776 
L 225.723995 64.837544 
L 228.15202 64.034552 
L 230.587954 63.25588 
L 233.031553 62.501605 
L 235.482572 61.771804 
L 237.940766 61.06655 
L 240.40589 60.385912 
L 242.877697 59.729958 
L 245.355939 59.098756 
L 247.84037 58.492367 
L 250.33074 57.910852 
L 252.826801 57.354269 
L 255.328303 56.822675 
L 257.834995 56.316121 
L 260.346628 55.83466 
L 262.862949 55.378338 
L 265.383708 54.947203 
L 267.908652 54.541295 
L 270.437529 54.160658 
L 272.970086 53.805327 
L 275.506069 53.47534 
L 278.045226 53.170728 
L 280.587301 52.891523 
L 283.132042 52.637752 
L 285.679193 52.40944 
L 288.228499 52.206611 
L 290.779707 52.029285 
L 293.33256 51.87748 
L 295.886803 51.75121 
L 298.442181 51.650489 
L 300.998439 51.575325 
L 303.555321 51.525728 
L 306.112571 51.501702 
L 307.236559 51.499232 
L 307.236559 51.499232 
Q 307.236559 307.236559 528.711581 179.367895 
z
" clip-path="url(#pfaaf8cd469)" style="fill: #00d4ff; fill-opacity: 0.5; stroke: #808080; stroke-opacity: 0.5; stroke-width: 0.1"/>
    <path d="M 307.236559 51.499232 
L 307.236559 51.499232 
L 309.793889 51.512019 
L 312.350964 51.550378 
L 314.907528 51.614305 
L 317.463324 51.703795 
L 320.018098 51.818837 
L 322.571594 51.959421 
L 325.123556 52.125533 
L 327.673729 52.317155 
L 330.221859 52.534269 
L 332.76769 52.776853 
L 335.310968 53.044883 
L 337.851439 53.338332 
L 340.388848 53.657171 
L 342.922942 54.001367 
L 345.453467 54.370886 
L 347.980171 54.765692 
L 350.5028 55.185745 
L 353.021103 55.631003 
L 355.534828 56.101421 
L 358.043722 56.596952 
L 360.547536 57.117547 
L 363.046019 57.663154 
L 365.538921 58.233718 
L 368.025993 58.829182 
L 370.506986 59.449486 
L 372.981652 60.094569 
L 375.449743 60.764366 
L 377.911014 61.45881 
L 380.365216 62.177832 
L 382.812106 62.921359 
L 385.251439 63.689317 
L 387.68297 64.48163 
L 390.106457 65.298219 
L 392.521656 66.139001 
L 394.928327 67.003892 
L 397.32623 67.892807 
L 399.715123 68.805656 
L 402.094768 69.742347 
L 404.464928 70.702788 
L 406.825365 71.686882 
L 409.175843 72.694531 
L 411.516127 73.725634 
L 413.845983 74.780088 
L 416.165179 75.857787 
L 418.473482 76.958624 
L 420.770661 78.082488 
L 423.056487 79.229268 
L 425.330731 80.398848 
L 427.593165 81.591112 
L 429.843564 82.80594 
L 432.081703 84.043211 
L 434.307357 85.302802 
L 436.520304 86.584585 
L 438.720323 87.888433 
L 440.907193 89.214216 
L 443.080697 90.561802 
L 445.240616 91.931054 
L 447.386735 93.321837 
L 449.51884 94.734011 
L 451.636716 96.167435 
L 453.740152 97.621966 
L 455.828938 99.097458 
L 457.902864 100.593764 
L 459.961725 102.110734 
L 462.005312 103.648216 
L 464.033424 105.206057 
L 466.045855 106.784101 
L 468.042406 108.38219 
L 470.022876 110.000165 
L 471.987068 111.637862 
L 473.934785 113.29512 
L 475.865832 114.971771 
L 477.780017 116.667649 
L 479.677147 118.382584 
L 481.557033 120.116403 
L 483.419488 121.868935 
L 485.264324 123.640003 
L 487.091357 125.429431 
L 488.900406 127.237039 
L 490.691288 129.062647 
L 492.463825 130.906073 
L 494.217839 132.767131 
L 495.953155 134.645636 
L 497.6696 136.5414 
L 499.367001 138.454233 
L 501.04519 140.383945 
L 502.703998 142.330341 
L 504.343259 144.293228 
L 505.96281 146.27241 
L 507.562489 148.267687 
L 509.142135 150.278861 
L 510.70159 152.305731 
L 512.2407 154.348094 
L 513.759309 156.405746 
L 515.257266 158.47848 
L 516.734421 160.566091 
L 518.190626 162.668368 
L 519.625736 164.785102 
L 521.039608 166.916081 
L 522.432099 169.061091 
L 523.803071 171.21992 
L 525.152387 173.392349 
L 526.479911 175.578164 
L 527.785511 177.777143 
L 528.711581 179.367895 
L 528.711581 179.367895 
Q 307.236559 307.236559 307.236559 562.973886 
L 307.236559 562.973886 
L 307.236559 562.973886 
L 304.679228 562.961099 
L 302.122153 562.92274 
L 299.56559 562.858812 
L 297.009793 562.769323 
L 294.45502 562.654281 
L 291.901524 562.513697 
L 289.349562 562.347585 
L 286.799389 562.155963 
L 284.251259 561.938848 
L 281.705428 561.696264 
L 279.16215 561.428234 
L 276.621679 561.134785 
L 274.08427 560.815947 
L 271.550176 560.471751 
L 269.01965 560.102231 
L 266.492947 559.707425 
L 263.970317 559.287372 
L 261.452014 558.842115 
L 258.93829 558.371697 
L 256.429395 557.876166 
L 253.925581 557.35557 
L 251.427098 556.809964 
L 248.934196 556.2394 
L 246.447125 555.643936 
L 243.966132 555.023631 
L 241.491466 554.378548 
L 239.023374 553.708752 
L 236.562104 553.014308 
L 234.107901 552.295286 
L 231.661011 551.551759 
L 229.221679 550.7838 
L 226.790147 549.991487 
L 224.366661 549.174899 
L 221.951461 548.334117 
L 219.54479 547.469225 
L 217.146888 546.580311 
L 214.757995 545.667462 
L 212.378349 544.73077 
L 210.00819 543.770329 
L 207.647753 542.786235 
L 205.297275 541.778586 
L 202.956991 540.747484 
L 200.627134 539.69303 
L 198.307939 538.615331 
L 195.999636 537.514494 
L 193.702457 536.390629 
L 191.416631 535.24385 
L 189.142387 534.074269 
L 186.879952 532.882005 
L 184.629553 531.667177 
L 182.391415 530.429906 
L 180.165761 529.170316 
L 177.952813 527.888533 
L 175.752795 526.584684 
L 173.565924 525.258901 
L 171.39242 523.911316 
L 169.232501 522.542064 
L 167.086382 521.151281 
L 164.954278 519.739107 
L 162.836402 518.305683 
L 160.732966 516.851152 
L 158.64418 515.37566 
L 156.570253 513.879354 
L 154.511393 512.362384 
L 152.467805 510.824901 
L 150.439694 509.26706 
L 148.427262 507.689016 
L 146.430712 506.090927 
L 144.450241 504.472953 
L 142.48605 502.835255 
L 140.538333 501.177998 
L 138.607285 499.501346 
L 136.693101 497.805468 
L 134.795971 496.090534 
L 132.916084 494.356714 
L 131.05363 492.604183 
L 129.208794 490.833114 
L 127.38176 489.043687 
L 125.572712 487.236078 
L 123.78183 485.41047 
L 122.009293 483.567045 
L 120.255279 481.705987 
L 118.519963 479.827482 
L 116.803518 477.931718 
L 115.106116 476.018884 
L 113.427928 474.089173 
L 111.76912 472.142776 
L 110.129858 470.179889 
L 108.510307 468.200708 
L 106.910629 466.20543 
L 105.330983 464.194256 
L 103.771527 462.167386 
L 102.232418 460.125023 
L 100.713809 458.067372 
L 99.215852 455.994637 
L 97.738697 453.907027 
L 96.282491 451.80475 
L 94.847381 449.688016 
L 93.43351 447.557037 
L 92.041019 445.412026 
L 90.670047 443.253198 
L 89.320731 441.080768 
L 87.993207 438.894954 
L 86.687607 436.695974 
L 85.761537 435.105222 
L 85.761537 435.105222 
Q 307.236559 307.236559 307.236559 51.499232 
z
" clip-path="url(#pfaaf8cd469)" style="fill: #000080; fill-opacity: 0.5; stroke: #808080; stroke-opacity: 0.5; stroke-width: 0.1"/>
   </g>
   <g id="patch_6">
    <path d="M 307.236559 51.499232 
L 309.793889 51.512019 
L 312.350964 51.550378 
L 314.907528 51.614305 
L 317.463324 51.703795 
L 320.018098 51.818837 
L 322.571594 51.959421 
L 325.123556 52.125533 
L 327.673729 52.317155 
L 330.221859 52.534269 
L 332.76769 52.776853 
L 335.310968 53.044883 
L 337.851439 53.338332 
L 340.388848 53.657171 
L 342.922942 54.001367 
L 345.453467 54.370886 
L 347.980171 54.765692 
L 350.5028 55.185745 
L 353.021103 55.631003 
L 355.534828 56.101421 
L 358.043722 56.596952 
L 360.547536 57.117547 
L 363.046019 57.663154 
L 365.538921 58.233718 
L 368.025993 58.829182 
L 370.506986 59.449486 
L 372.981652 60.094569 
L 375.449743 60.764366 
L 377.911014 61.45881 
L 380.365216 62.177832 
L 382.812106 62.921359 
L 385.251439 63.689317 
L 387.68297 64.48163 
L 390.106457 65.298219 
L 392.521656 66.139001 
L 394.928327 67.003892 
L 397.32623 67.892807 
L 399.715123 68.805656 
L 402.094768 69.742347 
L 404.464928 70.702788 
L 406.825365 71.686882 
L 409.175843 72.694531 
L 411.516127 73.725634 
L 413.845983 74.780088 
L 416.165179 75.857787 
L 418.473482 76.958624 
L 420.770661 78.082488 
L 423.056487 79.229268 
L 425.330731 80.398848 
L 427.593165 81.591112 
L 429.843564 82.80594 
L 432.081703 84.043211 
L 434.307357 85.302802 
L 436.520304 86.584585 
L 438.720323 87.888433 
L 440.907193 89.214216 
L 443.080697 90.561802 
L 445.240616 91.931054 
L 447.386735 93.321837 
L 449.51884 94.734011 
L 451.636716 96.167435 
L 453.740152 97.621966 
L 455.828938 99.097458 
L 457.902864 100.593764 
L 459.961725 102.110734 
L 462.005312 103.648216 
L 464.033424 105.206057 
L 466.045855 106.784101 
L 468.042406 108.38219 
L 470.022876 110.000165 
L 471.987068 111.637862 
L 473.934785 113.29512 
L 475.865832 114.971771 
L 477.780017 116.667649 
L 479.677147 118.382584 
L 481.557033 120.116403 
L 483.419488 121.868935 
L 485.264324 123.640003 
L 487.091357 125.429431 
L 488.900406 127.237039 
L 490.691288 129.062647 
L 492.463825 130.906073 
L 494.217839 132.767131 
L 495.953155 134.645636 
L 497.6696 136.5414 
L 499.367001 138.454233 
L 501.04519 140.383945 
L 502.703998 142.330341 
L 504.343259 144.293228 
L 505.96281 146.27241 
L 507.562489 148.267687 
L 509.142135 150.278861 
L 510.70159 152.305731 
L 512.2407 154.348094 
L 513.759309 156.405746 
L 515.257266 158.47848 
L 516.734421 160.566091 
L 518.190626 162.668368 
L 519.625736 164.785102 
L 521.039608 166.916081 
L 522.432099 169.061091 
L 523.803071 171.21992 
L 525.152387 173.392349 
L 526.479911 175.578164 
L 527.785511 177.777143 
L 528.711581 179.367895 
L 530.948702 178.076293 
L 530.013278 176.469473 
L 528.69449 174.248281 
L 527.353556 172.040388 
L 525.990612 169.846014 
L 524.605791 167.66538 
L 523.199234 165.498702 
L 521.771081 163.346198 
L 520.321475 161.208083 
L 518.850561 159.084571 
L 517.358485 156.975874 
L 515.845397 154.882202 
L 514.311449 152.803766 
L 512.756793 150.740774 
L 511.181585 148.69343 
L 509.585983 146.661941 
L 507.970146 144.646509 
L 506.334236 142.647336 
L 504.678417 140.664622 
L 503.002853 138.698565 
L 501.307713 136.749361 
L 499.593166 134.817206 
L 497.859383 132.902293 
L 496.106539 131.004813 
L 494.334807 129.124957 
L 492.544366 127.262911 
L 490.735394 125.418862 
L 488.908073 123.592995 
L 487.062584 121.785493 
L 485.199113 119.996535 
L 483.317846 118.226301 
L 481.418971 116.474968 
L 479.502678 114.742711 
L 477.569158 113.029703 
L 475.618605 111.336115 
L 473.651215 109.662118 
L 471.667182 108.007878 
L 469.666707 106.37356 
L 467.649989 104.759329 
L 465.61723 103.165345 
L 463.568633 101.591768 
L 461.504403 100.038756 
L 459.424746 98.506463 
L 457.329871 96.995043 
L 455.219986 95.504647 
L 453.095303 94.035424 
L 450.956034 92.58752 
L 448.802394 91.161082 
L 446.634597 89.756251 
L 444.45286 88.373168 
L 442.257402 87.011971 
L 440.048442 85.672796 
L 437.826201 84.355777 
L 435.5909 83.061046 
L 433.342765 81.788733 
L 431.082019 80.538964 
L 428.808889 79.311865 
L 426.523601 78.107558 
L 424.226385 76.926164 
L 421.91747 75.767801 
L 419.597087 74.632584 
L 417.265468 73.520628 
L 414.922846 72.432043 
L 412.569456 71.366938 
L 410.205533 70.32542 
L 407.831312 69.307593 
L 405.447033 68.313558 
L 403.052932 67.343416 
L 400.64925 66.397263 
L 398.236226 65.475193 
L 395.814103 64.5773 
L 393.383122 63.703672 
L 390.943526 62.854397 
L 388.49556 62.02956 
L 386.039468 61.229244 
L 383.575496 60.453529 
L 381.10389 59.702491 
L 378.624897 58.976207 
L 376.138765 58.274748 
L 373.645744 57.598185 
L 371.146081 56.946586 
L 368.640028 56.320016 
L 366.127834 55.718537 
L 363.609751 55.14221 
L 361.086031 54.591092 
L 358.556926 54.065239 
L 356.022689 53.564702 
L 353.483573 53.089532 
L 350.939833 52.639777 
L 348.391723 52.215482 
L 345.839497 51.816688 
L 343.28341 51.443436 
L 340.723719 51.095763 
L 338.16068 50.773704 
L 335.594548 50.477291 
L 333.02558 50.206553 
L 330.454033 49.961519 
L 327.880165 49.742212 
L 325.304232 49.548654 
L 322.726493 49.380864 
L 320.147204 49.23886 
L 317.566625 49.122655 
L 314.985012 49.032262 
L 312.402625 48.967689 
L 309.819721 48.928943 
L 307.236559 48.916027 
L 307.236559 51.499232 
z
" clip-path="url(#pfaaf8cd469)" style="fill: none; stroke: #000000; stroke-width: 0.5; stroke-linejoin: miter"/>
   </g>
   <g id="patch_7">
    <path d="M 528.711581 179.367895 
L 529.979172 181.589002 
L 531.22449 183.822673 
L 532.447409 186.068686 
L 533.647807 188.326815 
L 534.825564 190.596835 
L 535.980562 192.87852 
L 537.112687 195.171639 
L 538.221823 197.475965 
L 539.307862 199.791268 
L 540.370693 202.117314 
L 541.410212 204.453873 
L 542.426313 206.800709 
L 543.418895 209.157589 
L 544.38786 211.524277 
L 545.333109 213.900536 
L 546.254549 216.286129 
L 547.152087 218.680816 
L 548.025634 221.084359 
L 548.875103 223.496518 
L 549.700407 225.91705 
L 550.501466 228.345714 
L 551.278198 230.782267 
L 552.030526 233.226465 
L 552.758375 235.678065 
L 553.461672 238.13682 
L 554.140347 240.602485 
L 554.794331 243.074813 
L 555.42356 245.553558 
L 556.027971 248.03847 
L 556.607502 250.529303 
L 557.162097 253.025806 
L 557.691699 255.52773 
L 558.196256 258.034826 
L 558.675718 260.546841 
L 559.130035 263.063525 
L 559.559164 265.584626 
L 559.96306 268.109893 
L 560.341684 270.639072 
L 560.694997 273.171911 
L 561.022965 275.708156 
L 561.325555 278.247555 
L 561.602736 280.789852 
L 561.85448 283.334793 
L 562.080763 285.882125 
L 562.281562 288.431592 
L 562.456856 290.98294 
L 562.606629 293.535913 
L 562.730865 296.090256 
L 562.829551 298.645714 
L 562.902679 301.202031 
L 562.95024 303.758951 
L 562.97223 306.31622 
L 562.968646 308.87358 
L 562.93949 311.430776 
L 562.884763 313.987553 
L 562.804472 316.543655 
L 562.698624 319.098826 
L 562.567231 321.652811 
L 562.410304 324.205354 
L 562.22786 326.756201 
L 562.019918 329.305095 
L 561.786497 331.851783 
L 561.527622 334.396009 
L 561.243317 336.93752 
L 560.933612 339.47606 
L 560.598538 342.011376 
L 560.238127 344.543215 
L 559.852417 347.071323 
L 559.441445 349.595448 
L 559.005253 352.115337 
L 558.543885 354.630738 
L 558.057386 357.1414 
L 557.545805 359.647071 
L 557.009193 362.147501 
L 556.447604 364.64244 
L 555.861094 367.131639 
L 555.249722 369.614848 
L 554.613549 372.09182 
L 553.952639 374.562305 
L 553.267057 377.026059 
L 552.556872 379.482833 
L 551.822156 381.932383 
L 551.062981 384.374464 
L 550.279423 386.808831 
L 549.471562 389.23524 
L 548.639477 391.65345 
L 547.783252 394.063218 
L 546.902973 396.464304 
L 545.998727 398.856466 
L 545.070605 401.239467 
L 544.1187 403.613068 
L 543.143107 405.977031 
L 542.143923 408.33112 
L 541.121249 410.6751 
L 540.075187 413.008736 
L 539.005841 415.331795 
L 537.913318 417.644045 
L 536.797728 419.945253 
L 535.659182 422.235191 
L 534.497794 424.51363 
L 533.31368 426.78034 
L 532.106958 429.035097 
L 530.87775 431.277673 
L 529.626177 433.507846 
L 528.352366 435.725392 
L 527.056443 437.930089 
L 525.738539 440.121716 
L 524.398784 442.300055 
L 523.037314 444.464888 
L 521.654264 446.615998 
L 520.249772 448.753171 
L 518.823979 450.876192 
L 517.377027 452.984849 
L 515.909061 455.078931 
L 514.420229 457.158229 
L 512.910678 459.222535 
L 511.38056 461.271643 
L 509.830028 463.305347 
L 508.259236 465.323445 
L 506.668343 467.325734 
L 505.057506 469.312014 
L 503.426887 471.282087 
L 501.77665 473.235755 
L 500.106959 475.172824 
L 498.417981 477.093099 
L 496.709885 478.996389 
L 494.982841 480.882502 
L 493.237024 482.751252 
L 491.472606 484.60245 
L 489.689765 486.435911 
L 487.888679 488.251453 
L 486.069527 490.048893 
L 484.232493 491.828053 
L 482.377759 493.588753 
L 480.505511 495.330818 
L 478.615937 497.054074 
L 476.709224 498.758349 
L 474.785565 500.443471 
L 472.84515 502.109273 
L 470.888175 503.755588 
L 468.914835 505.382251 
L 466.925328 506.989099 
L 464.919851 508.575973 
L 462.898606 510.142713 
L 460.861796 511.689162 
L 458.809622 513.215166 
L 456.742292 514.720573 
L 454.660011 516.205231 
L 452.562988 517.668993 
L 450.451433 519.111711 
L 448.325556 520.533242 
L 446.18557 521.933444 
L 444.03169 523.312176 
L 441.86413 524.669301 
L 439.683107 526.004683 
L 437.48884 527.318188 
L 435.281548 528.609685 
L 433.061452 529.879045 
L 430.828773 531.126141 
L 428.583735 532.350848 
L 426.326562 533.553044 
L 424.05748 534.732609 
L 421.776717 535.889424 
L 419.484499 537.023373 
L 417.181057 538.134345 
L 414.86662 539.222227 
L 412.541421 540.28691 
L 410.205691 541.328289 
L 407.859664 542.346259 
L 405.503575 543.340718 
L 403.13766 544.311566 
L 400.762154 545.258708 
L 398.377296 546.182047 
L 395.983324 547.081492 
L 393.580478 547.956953 
L 391.168997 548.808342 
L 388.749122 549.635573 
L 386.321097 550.438566 
L 383.885163 551.217238 
L 381.441565 551.971512 
L 378.990546 552.701313 
L 376.532352 553.406568 
L 374.067228 554.087206 
L 371.595421 554.743159 
L 369.117178 555.374362 
L 366.632748 555.980751 
L 364.142377 556.562266 
L 361.646317 557.118848 
L 359.144815 557.650443 
L 356.638122 558.156996 
L 354.12649 558.638458 
L 351.610168 559.094779 
L 349.089409 559.525915 
L 346.564465 559.931822 
L 344.035588 560.31246 
L 341.503031 560.66779 
L 338.967048 560.997778 
L 336.427892 561.30239 
L 333.885816 561.581595 
L 331.341076 561.835366 
L 328.793925 562.063677 
L 326.244618 562.266506 
L 323.693411 562.443832 
L 321.140558 562.595638 
L 318.586314 562.721907 
L 316.030936 562.822629 
L 313.474678 562.897792 
L 310.917797 562.947389 
L 308.360547 562.971416 
L 307.236559 562.973886 
L 307.236559 565.557091 
L 308.3719 565.554596 
L 310.954981 565.530327 
L 313.53769 565.480229 
L 316.119768 565.404306 
L 318.700958 565.302568 
L 321.281002 565.175022 
L 323.859642 565.021683 
L 326.436619 564.842566 
L 329.011676 564.637689 
L 331.584556 564.407071 
L 334.155001 564.150737 
L 336.722754 563.868711 
L 339.287558 563.561023 
L 341.849157 563.227702 
L 344.407296 562.868782 
L 346.961717 562.4843 
L 349.512165 562.074292 
L 352.058386 561.638802 
L 354.600125 561.177871 
L 357.137128 560.691546 
L 359.669141 560.179876 
L 362.19591 559.642912 
L 364.717184 559.080707 
L 367.232709 558.493318 
L 369.742235 557.880804 
L 372.24551 557.243226 
L 374.742285 556.580647 
L 377.232309 555.893134 
L 379.715334 555.180755 
L 382.19111 554.443582 
L 384.659392 553.681689 
L 387.119931 552.895152 
L 389.572482 552.084048 
L 392.016799 551.248461 
L 394.452638 550.388472 
L 396.879756 549.504168 
L 399.29791 548.595638 
L 401.706857 547.662972 
L 404.106358 546.706263 
L 406.496172 545.725608 
L 408.876059 544.721104 
L 411.245783 543.692852 
L 413.605106 542.640954 
L 415.953793 541.565516 
L 418.291608 540.466646 
L 420.618317 539.344452 
L 422.933688 538.199048 
L 425.23749 537.030548 
L 427.529491 535.839069 
L 429.809464 534.62473 
L 432.077179 533.387652 
L 434.33241 532.127959 
L 436.574932 530.845777 
L 438.80452 529.541235 
L 441.020951 528.214462 
L 443.224004 526.865591 
L 445.413459 525.494758 
L 447.589096 524.1021 
L 449.750697 522.687754 
L 451.898048 521.251864 
L 454.030932 519.794573 
L 456.149137 518.316026 
L 458.252451 516.816371 
L 460.340663 515.295758 
L 462.413566 513.75434 
L 464.47095 512.19227 
L 466.512612 510.609704 
L 468.538345 509.006802 
L 470.547949 507.383722 
L 472.541222 505.740628 
L 474.517964 504.077684 
L 476.477979 502.395056 
L 478.421069 500.692912 
L 480.347041 498.971423 
L 482.255703 497.23076 
L 484.146862 495.471098 
L 486.020331 493.692613 
L 487.875921 491.895483 
L 489.713448 490.079886 
L 491.532727 488.246006 
L 493.333576 486.394024 
L 495.115816 484.524127 
L 496.879268 482.636502 
L 498.623757 480.731336 
L 500.349106 478.808822 
L 502.055145 476.86915 
L 503.741701 474.912515 
L 505.408608 472.939112 
L 507.055697 470.94914 
L 508.682805 468.942796 
L 510.289768 466.920282 
L 511.876426 464.8818 
L 513.44262 462.827553 
L 514.988194 460.757747 
L 516.512993 458.67259 
L 518.016864 456.572288 
L 519.499658 454.457054 
L 520.961225 452.327097 
L 522.40142 450.182632 
L 523.820099 448.023872 
L 525.21712 445.851033 
L 526.592342 443.664333 
L 527.94563 441.46399 
L 529.276846 439.250225 
L 530.585859 437.023259 
L 531.872537 434.783314 
L 533.136751 432.530614 
L 534.378376 430.265385 
L 535.597287 427.987853 
L 536.793362 425.698247 
L 537.966481 423.396794 
L 539.116528 421.083725 
L 540.243387 418.759272 
L 541.346945 416.423666 
L 542.427092 414.077142 
L 543.483721 411.719934 
L 544.516725 409.352278 
L 545.526001 406.97441 
L 546.511449 404.586568 
L 547.472969 402.188992 
L 548.410466 399.78192 
L 549.323845 397.365594 
L 550.213017 394.940255 
L 551.07789 392.506146 
L 551.91838 390.06351 
L 552.734402 387.612591 
L 553.525874 385.153635 
L 554.292717 382.686887 
L 555.034855 380.212594 
L 555.752213 377.731003 
L 556.44472 375.242364 
L 557.112307 372.746923 
L 557.754906 370.244932 
L 558.372453 367.73664 
L 558.964887 365.222298 
L 559.532149 362.702157 
L 560.074181 360.17647 
L 560.590929 357.645489 
L 561.082343 355.109467 
L 561.548372 352.568658 
L 561.98897 350.023316 
L 562.404092 347.473695 
L 562.793699 344.92005 
L 563.15775 342.362637 
L 563.496209 339.801711 
L 563.809042 337.237529 
L 564.096218 334.670347 
L 564.357709 332.100422 
L 564.593487 329.52801 
L 564.80353 326.953369 
L 564.987817 324.376756 
L 565.146328 321.79843 
L 565.279049 319.218647 
L 565.385966 316.637666 
L 565.467068 314.055745 
L 565.522348 311.473142 
L 565.551799 308.890115 
L 565.555418 306.306923 
L 565.533206 303.723824 
L 565.485165 301.141076 
L 565.411299 298.558938 
L 565.311615 295.977668 
L 565.186124 293.397523 
L 565.034839 290.818762 
L 564.857774 288.241643 
L 564.654947 285.666424 
L 564.426378 283.093361 
L 564.172091 280.522713 
L 563.89211 277.954736 
L 563.586464 275.389688 
L 563.255184 272.827824 
L 562.898301 270.269401 
L 562.515853 267.714674 
L 562.107877 265.1639 
L 561.674414 262.617333 
L 561.215507 260.075227 
L 560.731203 257.537838 
L 560.221549 255.005419 
L 559.686597 252.478223 
L 559.126401 249.956502 
L 558.541015 247.44051 
L 557.9305 244.930497 
L 557.294915 242.426715 
L 556.634324 239.929413 
L 555.948794 237.438843 
L 555.238393 234.955251 
L 554.503192 232.478889 
L 553.743265 230.010001 
L 552.958687 227.548837 
L 552.149537 225.095641 
L 551.315896 222.650659 
L 550.457847 220.214135 
L 549.575476 217.786314 
L 548.668872 215.367438 
L 547.738125 212.957748 
L 546.783327 210.557486 
L 545.804575 208.166893 
L 544.801967 205.786206 
L 543.775602 203.415664 
L 542.725584 201.055504 
L 541.652017 198.705962 
L 540.555008 196.367273 
L 539.434668 194.03967 
L 538.291108 191.723388 
L 537.124443 189.418656 
L 535.934789 187.125707 
L 534.722266 184.844768 
L 533.486994 182.576068 
L 532.229098 180.319835 
L 530.948702 178.076293 
L 528.711581 179.367895 
z
" clip-path="url(#pfaaf8cd469)" style="fill: none; stroke: #000000; stroke-width: 0.5; stroke-linejoin: miter"/>
   </g>
   <g id="patch_8">
    <path d="M 307.236559 562.973886 
L 304.679228 562.961099 
L 302.122153 562.92274 
L 299.56559 562.858812 
L 297.009793 562.769323 
L 294.45502 562.654281 
L 291.901524 562.513697 
L 289.349562 562.347585 
L 286.799389 562.155963 
L 284.251259 561.938848 
L 281.705428 561.696264 
L 279.16215 561.428234 
L 276.621679 561.134785 
L 274.08427 560.815947 
L 271.550176 560.471751 
L 269.01965 560.102231 
L 266.492947 559.707425 
L 263.970317 559.287372 
L 261.452014 558.842115 
L 258.93829 558.371697 
L 256.429395 557.876166 
L 253.925581 557.35557 
L 251.427098 556.809964 
L 248.934196 556.2394 
L 246.447125 555.643936 
L 243.966132 555.023631 
L 241.491466 554.378548 
L 239.023374 553.708752 
L 236.562104 553.014308 
L 234.107901 552.295286 
L 231.661011 551.551759 
L 229.221679 550.7838 
L 226.790147 549.991487 
L 224.366661 549.174899 
L 221.951461 548.334117 
L 219.54479 547.469225 
L 217.146888 546.580311 
L 214.757995 545.667462 
L 212.378349 544.73077 
L 210.00819 543.770329 
L 207.647753 542.786235 
L 205.297275 541.778586 
L 202.956991 540.747484 
L 200.627134 539.69303 
L 198.307939 538.615331 
L 195.999636 537.514494 
L 193.702457 536.390629 
L 191.416631 535.24385 
L 189.142387 534.074269 
L 186.879952 532.882005 
L 184.629553 531.667177 
L 182.391415 530.429906 
L 180.165761 529.170316 
L 177.952813 527.888533 
L 175.752795 526.584684 
L 173.565924 525.258901 
L 171.39242 523.911316 
L 169.232501 522.542064 
L 167.086382 521.151281 
L 164.954278 519.739107 
L 162.836402 518.305683 
L 160.732966 516.851152 
L 158.64418 515.37566 
L 156.570253 513.879354 
L 154.511393 512.362384 
L 152.467805 510.824901 
L 150.439694 509.26706 
L 148.427262 507.689016 
L 146.430712 506.090927 
L 144.450241 504.472953 
L 142.48605 502.835255 
L 140.538333 501.177998 
L 138.607285 499.501346 
L 136.693101 497.805468 
L 134.795971 496.090534 
L 132.916084 494.356714 
L 131.05363 492.604183 
L 129.208794 490.833114 
L 127.38176 489.043687 
L 125.572712 487.236078 
L 123.78183 485.41047 
L 122.009293 483.567045 
L 120.255279 481.705987 
L 118.519963 479.827482 
L 116.803518 477.931718 
L 115.106116 476.018884 
L 113.427928 474.089173 
L 111.76912 472.142776 
L 110.129858 470.179889 
L 108.510307 468.200708 
L 106.910629 466.20543 
L 105.330983 464.194256 
L 103.771527 462.167386 
L 102.232418 460.125023 
L 100.713809 458.067372 
L 99.215852 455.994637 
L 97.738697 453.907027 
L 96.282491 451.80475 
L 94.847381 449.688016 
L 93.43351 447.557037 
L 92.041019 445.412026 
L 90.670047 443.253198 
L 89.320731 441.080768 
L 87.993207 438.894954 
L 86.687607 436.695974 
L 85.761537 435.105222 
L 83.524416 436.396825 
L 84.45984 438.003645 
L 85.778628 440.224837 
L 87.119561 442.43273 
L 88.482506 444.627103 
L 89.867326 446.807738 
L 91.273883 448.974416 
L 92.702036 451.126919 
L 94.151642 453.265035 
L 95.622557 455.388547 
L 97.114633 457.497244 
L 98.627721 459.590915 
L 100.161669 461.669351 
L 101.716325 463.732344 
L 103.291533 465.779687 
L 104.887135 467.811177 
L 106.502971 469.826608 
L 108.138881 471.825781 
L 109.794701 473.808496 
L 111.470265 475.774553 
L 113.165405 477.723756 
L 114.879952 479.655911 
L 116.613734 481.570824 
L 118.366579 483.468304 
L 120.13831 485.348161 
L 121.928752 487.210207 
L 123.737723 489.054255 
L 125.565045 490.880122 
L 127.410533 492.687625 
L 129.274004 494.476583 
L 131.155272 496.246817 
L 133.054147 497.99815 
L 134.97044 499.730407 
L 136.903959 501.443415 
L 138.854512 503.137002 
L 140.821903 504.811 
L 142.805935 506.46524 
L 144.80641 508.099557 
L 146.823128 509.713789 
L 148.855887 511.307772 
L 150.904484 512.881349 
L 152.968715 514.434362 
L 155.048371 515.966655 
L 157.143247 517.478075 
L 159.253132 518.968471 
L 161.377815 520.437694 
L 163.517083 521.885597 
L 165.670724 523.312036 
L 167.838521 524.716867 
L 170.020257 526.09995 
L 172.215716 527.461147 
L 174.424676 528.800322 
L 176.646917 530.11734 
L 178.882217 531.412071 
L 181.130353 532.684384 
L 183.391099 533.934153 
L 185.664229 535.161252 
L 187.949516 536.365559 
L 190.246733 537.546953 
L 192.555648 538.705317 
L 194.876031 539.840533 
L 197.207649 540.95249 
L 199.550271 542.041075 
L 201.903662 543.10618 
L 204.267585 544.147698 
L 206.641805 545.165525 
L 209.026085 546.159559 
L 211.420186 547.129702 
L 213.823868 548.075855 
L 216.236891 548.997924 
L 218.659015 549.895818 
L 221.089996 550.769446 
L 223.529591 551.61872 
L 225.977557 552.443557 
L 228.433649 553.243873 
L 230.897622 554.019589 
L 233.369228 554.770627 
L 235.848221 555.496911 
L 238.334352 556.19837 
L 240.827374 556.874932 
L 243.327036 557.526531 
L 245.83309 558.153101 
L 248.345284 558.75458 
L 250.863366 559.330907 
L 253.387087 559.882025 
L 255.916192 560.407879 
L 258.450429 560.908415 
L 260.989544 561.383585 
L 263.533284 561.83334 
L 266.081395 562.257636 
L 268.633621 562.65643 
L 271.189707 563.029682 
L 273.749398 563.377355 
L 276.312438 563.699414 
L 278.87857 563.995827 
L 281.447537 564.266564 
L 284.019084 564.511599 
L 286.592953 564.730906 
L 289.168885 564.924464 
L 291.746625 565.092253 
L 294.325913 565.234258 
L 296.906493 565.350462 
L 299.488105 565.440855 
L 302.070493 565.505429 
L 304.653397 565.544175 
L 307.236559 565.557091 
L 307.236559 562.973886 
z
" clip-path="url(#pfaaf8cd469)" style="fill: none; stroke: #000000; stroke-width: 0.5; stroke-linejoin: miter"/>
   </g>
   <g id="patch_9">
    <path d="M 85.761537 435.105222 
L 84.493945 432.884116 
L 83.248628 430.650444 
L 82.025709 428.404432 
L 80.825311 426.146302 
L 79.647554 423.876282 
L 78.492555 421.594598 
L 77.360431 419.301478 
L 76.251294 416.997152 
L 75.165256 414.68185 
L 74.102424 412.355803 
L 73.062906 410.019245 
L 72.046805 407.672408 
L 71.054222 405.315528 
L 70.085258 402.94884 
L 69.140009 400.572581 
L 68.218569 398.186989 
L 67.32103 395.792301 
L 66.447483 393.388758 
L 65.598015 390.9766 
L 64.77271 388.556068 
L 63.971652 386.127404 
L 63.19492 383.690851 
L 62.442592 381.246652 
L 61.714743 378.795053 
L 61.011446 376.336298 
L 60.332771 373.870633 
L 59.678786 371.398304 
L 59.049557 368.91956 
L 58.445147 366.434647 
L 57.865615 363.943815 
L 57.311021 361.447311 
L 56.781418 358.945387 
L 56.276861 356.438292 
L 55.7974 353.926277 
L 55.343082 351.409593 
L 54.913954 348.888491 
L 54.510058 346.363225 
L 54.131434 343.834045 
L 53.77812 341.301207 
L 53.450152 338.764961 
L 53.147563 336.225563 
L 52.870382 333.683266 
L 52.618637 331.138324 
L 52.392354 328.590992 
L 52.191556 326.041525 
L 52.016261 323.490177 
L 51.866489 320.937204 
L 51.742253 318.382861 
L 51.643566 315.827403 
L 51.570439 313.271086 
L 51.522878 310.714166 
L 51.500888 308.156898 
L 51.504471 305.599538 
L 51.533628 303.042342 
L 51.588354 300.485565 
L 51.668645 297.929463 
L 51.774493 295.374291 
L 51.905887 292.820307 
L 52.062813 290.267763 
L 52.245257 287.716917 
L 52.4532 285.168022 
L 52.686621 282.621334 
L 52.945496 280.077108 
L 53.2298 277.535598 
L 53.539505 274.997058 
L 53.87458 272.461741 
L 54.23499 269.929903 
L 54.6207 267.401794 
L 55.031672 264.87767 
L 55.467864 262.357781 
L 55.929233 259.84238 
L 56.415732 257.331718 
L 56.927313 254.826047 
L 57.463925 252.325616 
L 58.025513 249.830677 
L 58.612023 247.341479 
L 59.223395 244.858269 
L 59.859568 242.381298 
L 60.520479 239.910812 
L 61.206061 237.447059 
L 61.916245 234.990284 
L 62.650962 232.540734 
L 63.410137 230.098654 
L 64.193694 227.664287 
L 65.001556 225.237877 
L 65.833641 222.819668 
L 66.689866 220.4099 
L 67.570145 218.008814 
L 68.474391 215.616651 
L 69.402513 213.23365 
L 70.354418 210.86005 
L 71.330011 208.496086 
L 72.329194 206.141997 
L 73.351868 203.798017 
L 74.39793 201.464381 
L 75.467276 199.141322 
L 76.559799 196.829073 
L 77.675389 194.527864 
L 78.813936 192.237926 
L 79.975324 189.959488 
L 81.159438 187.692777 
L 82.366159 185.438021 
L 83.595368 183.195444 
L 84.84694 180.965271 
L 86.120752 178.747726 
L 87.416674 176.543029 
L 88.734579 174.351401 
L 90.074333 172.173062 
L 91.435804 170.008229 
L 92.818854 167.857119 
L 94.223346 165.719947 
L 95.649139 163.596926 
L 97.096091 161.488269 
L 98.564056 159.394187 
L 100.052889 157.314888 
L 101.56244 155.250582 
L 103.092558 153.201475 
L 104.64309 151.16777 
L 106.213881 149.149673 
L 107.804775 147.147384 
L 109.415612 145.161103 
L 111.04623 143.191031 
L 112.696468 141.237362 
L 114.366159 139.300294 
L 116.055137 137.380019 
L 117.763233 135.476729 
L 119.490276 133.590615 
L 121.236094 131.721866 
L 123.000512 129.870668 
L 124.783353 128.037206 
L 126.584439 126.221665 
L 128.40359 124.424224 
L 130.240625 122.645065 
L 132.095358 120.884365 
L 133.967606 119.142299 
L 135.857181 117.419043 
L 137.763893 115.714769 
L 139.687553 114.029646 
L 141.627967 112.363845 
L 143.584942 110.71753 
L 145.558282 109.090867 
L 147.54779 107.484018 
L 149.553267 105.897145 
L 151.574511 104.330405 
L 153.611322 102.783956 
L 155.663495 101.257951 
L 157.730825 99.752545 
L 159.813106 98.267887 
L 161.910129 96.804125 
L 164.021685 95.361406 
L 166.147562 93.939875 
L 168.287547 92.539673 
L 170.441428 91.160941 
L 172.608988 89.803816 
L 174.79001 88.468435 
L 176.984277 87.15493 
L 179.191569 85.863432 
L 181.411666 84.594072 
L 183.644345 83.346977 
L 185.889383 82.122269 
L 188.146556 80.920074 
L 190.415637 79.740509 
L 192.696401 78.583694 
L 194.988618 77.449744 
L 197.292061 76.338773 
L 199.606497 75.250891 
L 201.931697 74.186207 
L 204.267426 73.144829 
L 206.613453 72.126859 
L 208.969542 71.1324 
L 211.335458 70.161551 
L 213.710963 69.21441 
L 216.095821 68.291071 
L 218.489793 67.391626 
L 220.89264 66.516165 
L 223.304121 65.664776 
L 225.723995 64.837544 
L 228.15202 64.034552 
L 230.587954 63.25588 
L 233.031553 62.501605 
L 235.482572 61.771804 
L 237.940766 61.06655 
L 240.40589 60.385912 
L 242.877697 59.729958 
L 245.355939 59.098756 
L 247.84037 58.492367 
L 250.33074 57.910852 
L 252.826801 57.354269 
L 255.328303 56.822675 
L 257.834995 56.316121 
L 260.346628 55.83466 
L 262.862949 55.378338 
L 265.383708 54.947203 
L 267.908652 54.541295 
L 270.437529 54.160658 
L 272.970086 53.805327 
L 275.506069 53.47534 
L 278.045226 53.170728 
L 280.587301 52.891523 
L 283.132042 52.637752 
L 285.679193 52.40944 
L 288.228499 52.206611 
L 290.779707 52.029285 
L 293.33256 51.87748 
L 295.886803 51.75121 
L 298.442181 51.650489 
L 300.998439 51.575325 
L 303.555321 51.525728 
L 306.112571 51.501702 
L 307.236559 51.499232 
L 307.236559 48.916027 
L 306.101217 48.918522 
L 303.518137 48.942791 
L 300.935428 48.992889 
L 298.353349 49.068811 
L 295.772159 49.17055 
L 293.192115 49.298095 
L 290.613476 49.451434 
L 288.036499 49.630551 
L 285.461442 49.835429 
L 282.888562 50.066046 
L 280.318117 50.322381 
L 277.750364 50.604406 
L 275.185559 50.912095 
L 272.62396 51.245416 
L 270.065822 51.604335 
L 267.511401 51.988818 
L 264.960952 52.398825 
L 262.414731 52.834316 
L 259.872992 53.295247 
L 257.33599 53.781572 
L 254.803977 54.293242 
L 252.277207 54.830206 
L 249.755934 55.39241 
L 247.240408 55.979799 
L 244.730883 56.592313 
L 242.227607 57.229892 
L 239.730833 57.892471 
L 237.240808 58.579984 
L 234.757784 59.292362 
L 232.282007 60.029535 
L 229.813726 60.791428 
L 227.353187 61.577966 
L 224.900636 62.389069 
L 222.456319 63.224657 
L 220.020479 64.084646 
L 217.593361 64.96895 
L 215.175208 65.87748 
L 212.76626 66.810146 
L 210.36676 67.766854 
L 207.976946 68.74751 
L 205.597058 69.752013 
L 203.227334 70.780266 
L 200.868011 71.832163 
L 198.519325 72.907601 
L 196.18151 74.006472 
L 193.854801 75.128665 
L 191.53943 76.274069 
L 189.235628 77.442569 
L 186.943626 78.634048 
L 184.663654 79.848388 
L 182.395939 81.085466 
L 180.140707 82.345158 
L 177.898186 83.62734 
L 175.668598 84.931883 
L 173.452166 86.258656 
L 171.249113 87.607526 
L 169.059659 88.978359 
L 166.884022 90.371018 
L 164.72242 91.785363 
L 162.57507 93.221253 
L 160.442186 94.678545 
L 158.32398 96.157092 
L 156.220667 97.656747 
L 154.132454 99.177359 
L 152.059552 100.718778 
L 150.002167 102.280848 
L 147.960506 103.863413 
L 145.934772 105.466316 
L 143.925168 107.089395 
L 141.931896 108.732489 
L 139.955153 110.395433 
L 137.995139 112.078061 
L 136.052048 113.780205 
L 134.126076 115.501695 
L 132.217415 117.242357 
L 130.326255 119.002019 
L 128.452787 120.780504 
L 126.597197 122.577635 
L 124.75967 124.393231 
L 122.940391 126.227112 
L 121.139541 128.079093 
L 119.357301 129.94899 
L 117.593849 131.836616 
L 115.849361 133.741781 
L 114.124011 135.664296 
L 112.417973 137.603968 
L 110.731416 139.560603 
L 109.06451 141.534005 
L 107.41742 143.523978 
L 105.790313 145.530321 
L 104.183349 147.552835 
L 102.596691 149.591318 
L 101.030497 151.645565 
L 99.484923 153.71537 
L 97.960125 155.800528 
L 96.456253 157.900829 
L 94.97346 160.016064 
L 93.511892 162.14602 
L 92.071697 164.290486 
L 90.653019 166.449246 
L 89.255998 168.622085 
L 87.880775 170.808785 
L 86.527488 173.009127 
L 85.196271 175.222892 
L 83.887259 177.449859 
L 82.600581 179.689804 
L 81.336366 181.942504 
L 80.094741 184.207732 
L 78.875831 186.485264 
L 77.679756 188.774871 
L 76.506636 191.076324 
L 75.35659 193.389392 
L 74.229731 195.713846 
L 73.126173 198.049451 
L 72.046025 200.395976 
L 70.989397 202.753184 
L 69.956392 205.12084 
L 68.947116 207.498708 
L 67.961669 209.886549 
L 67.000148 212.284126 
L 66.062652 214.691198 
L 65.149272 217.107524 
L 64.260101 219.532863 
L 63.395227 221.966972 
L 62.554738 224.409608 
L 61.738716 226.860527 
L 60.947244 229.319483 
L 60.1804 231.786231 
L 59.438262 234.260524 
L 58.720904 236.742114 
L 58.028397 239.230754 
L 57.360811 241.726194 
L 56.718212 244.228186 
L 56.100664 246.736478 
L 55.50823 249.25082 
L 54.940969 251.77096 
L 54.398937 254.296648 
L 53.882188 256.827629 
L 53.390775 259.363651 
L 52.924746 261.90446 
L 52.484148 264.449802 
L 52.069025 266.999423 
L 51.679419 269.553068 
L 51.315368 272.110481 
L 50.976909 274.671406 
L 50.664076 277.235588 
L 50.376899 279.80277 
L 50.115409 282.372696 
L 49.87963 284.945108 
L 49.669587 287.519749 
L 49.485301 290.096361 
L 49.326789 292.674688 
L 49.194068 295.254471 
L 49.087151 297.835452 
L 49.006049 300.417373 
L 48.95077 302.999976 
L 48.921319 305.583002 
L 48.917699 308.166194 
L 48.939911 310.749293 
L 48.987953 313.332041 
L 49.061819 315.914179 
L 49.161502 318.49545 
L 49.286993 321.075595 
L 49.438279 323.654355 
L 49.615344 326.231474 
L 49.818171 328.806694 
L 50.046739 331.379756 
L 50.301026 333.950404 
L 50.581007 336.518381 
L 50.886653 339.08343 
L 51.217934 341.645294 
L 51.574816 344.203717 
L 51.957265 346.758444 
L 52.365241 349.309218 
L 52.798704 351.855785 
L 53.257611 354.39789 
L 53.741915 356.935279 
L 54.251568 359.467699 
L 54.78652 361.994895 
L 55.346717 364.516615 
L 55.932102 367.032608 
L 56.542618 369.54262 
L 57.178203 372.046403 
L 57.838793 374.543704 
L 58.524323 377.034275 
L 59.234724 379.517866 
L 59.969925 381.994229 
L 60.729853 384.463116 
L 61.514431 386.924281 
L 62.323581 389.377477 
L 63.157222 391.822459 
L 64.01527 394.258982 
L 64.897641 396.686804 
L 65.804245 399.10568 
L 66.734993 401.515369 
L 67.68979 403.915631 
L 68.668542 406.306225 
L 69.671151 408.686912 
L 70.697515 411.057454 
L 71.747534 413.417614 
L 72.821101 415.767156 
L 73.91811 418.105845 
L 75.03845 420.433447 
L 76.18201 422.74973 
L 77.348675 425.054461 
L 78.538328 427.347411 
L 79.750852 429.628349 
L 80.986123 431.897049 
L 82.24402 434.153283 
L 83.524416 436.396825 
L 85.761537 435.105222 
z
" clip-path="url(#pfaaf8cd469)" style="fill: none; stroke: #000000; stroke-width: 0.5; stroke-linejoin: miter"/>
   </g>
   <g id="text_1">
    <text style="font: 3px 'DejaVu Sans', 'Bitstream Vera Sans', 'Computer Modern Sans Serif', 'Lucida Grande', 'Verdana', 'Geneva', 'Lucid', 'Arial', 'Helvetica', 'Avant Garde', sans-serif; text-anchor: start" x="438.675494" y="81.857177" transform="rotate(-60 438.675494 81.857177)">Cuttington University</text>
   </g>
   <g id="text_2">
    <text style="font: 3px 'DejaVu Sans', 'Bitstream Vera Sans', 'Computer Modern Sans Serif', 'Lucida Grande', 'Verdana', 'Geneva', 'Lucid', 'Arial', 'Helvetica', 'Avant Garde', sans-serif; text-anchor: start" x="532.615941" y="438.675494" transform="rotate(-330 532.615941 438.675494)">African Methodist Episcopal University</text>
   </g>
   <g id="text_3">
    <text style="font: 3px 'DejaVu Sans', 'Bitstream Vera Sans', 'Computer Modern Sans Serif', 'Lucida Grande', 'Verdana', 'Geneva', 'Lucid', 'Arial', 'Helvetica', 'Avant Garde', sans-serif; text-anchor: end" x="177.771756" y="533.755706" transform="rotate(-60 177.771756 533.755706)">University of Liberia</text>
   </g>
   <g id="text_4">
    <text style="font: 3px 'DejaVu Sans', 'Bitstream Vera Sans', 'Computer Modern Sans Serif', 'Lucida Grande', 'Verdana', 'Geneva', 'Lucid', 'Arial', 'Helvetica', 'Avant Garde', sans-serif; text-anchor: end" x="80.717411" y="177.771756" transform="rotate(-330 80.717411 177.771756)">United Methodist University</text>
   </g>
  </g>
 </g>
 <defs>
  <clipPath id="pfaaf8cd469">
   <path d="M 578.473118 307.236559 
C 578.473118 271.6181 571.457058 236.345986 557.826464 203.438821 
C 544.19587 170.531657 524.215822 140.629402 499.029769 115.443349 
C 473.843715 90.257295 443.941461 70.277248 411.034296 56.646654 
C 378.127131 43.01606 342.855017 36 307.236559 36 
C 271.6181 36 236.345986 43.01606 203.438821 56.646654 
C 170.531657 70.277248 140.629402 90.257295 115.443349 115.443349 
C 90.257295 140.629402 70.277248 170.531657 56.646654 203.438821 
C 43.01606 236.345986 36 271.6181 36 307.236559 
C 36 342.855017 43.01606 378.127131 56.646654 411.034296 
C 70.277248 443.941461 90.257295 473.843715 115.443349 499.029769 
C 140.629402 524.215822 170.531657 544.19587 203.438821 557.826464 
C 236.345986 571.457058 271.6181 578.473118 307.236559 578.473118 
C 342.855017 578.473118 378.127131 571.457058 411.034296 557.826464 
C 443.941461 544.19587 473.843715 524.215822 499.029769 499.029769 
C 524.215822 473.843715 544.19587 443.941461 557.826464 411.034296 
C 571.457058 378.127131 578.473118 342.855017 578.473118 307.236559 
M 307.236559 307.236559 
C 307.236559 307.236559 307.236559 307.236559 307.236559 307.236559 
C 307.236559 307.236559 307.236559 307.236559 307.236559 307.236559 
C 307.236559 307.236559 307.236559 307.236559 307.236559 307.236559 
C 307.236559 307.236559 307.236559 307.236559 307.236559 307.236559 
C 307.236559 307.236559 307.236559 307.236559 307.236559 307.236559 
C 307.236559 307.236559 307.236559 307.236559 307.236559 307.236559 
C 307.236559 307.236559 307.236559 307.236559 307.236559 307.236559 
C 307.236559 307.236559 307.236559 307.236559 307.236559 307.236559 
C 307.236559 307.236559 307.236559 307.236559 307.236559 307.236559 
C 307.236559 307.236559 307.236559 307.236559 307.236559 307.236559 
C 307.236559 307.236559 307.236559 307.236559 307.236559 307.236559 
C 307.236559 307.236559 307.236559 307.236559 307.236559 307.236559 
C 307.236559 307.236559 307.236559 307.236559 307.236559 307.236559 
C 307.236559 307.236559 307.236559 307.236559 307.236559 307.236559 
C 307.236559 307.236559 307.236559 307.236559 307.236559 307.236559 
C 307.236559 307.236559 307.236559 307.236559 307.236559 307.236559 
z
"/>
  </clipPath>
 </defs>
</svg>
