<?xml version="1.0" encoding="utf-8" standalone="no"?>
<!DOCTYPE svg PUBLIC "-//W3C//DTD SVG 1.1//EN"
  "http://www.w3.org/Graphics/SVG/1.1/DTD/svg11.dtd">
<svg xmlns:xlink="http://www.w3.org/1999/xlink" width="625.113418pt" height="607.76645pt" viewBox="0 0 625.113418 607.76645" xmlns="http://www.w3.org/2000/svg" version="1.1">
 <metadata>
  <rdf:RDF xmlns:dc="http://purl.org/dc/elements/1.1/" xmlns:cc="http://creativecommons.org/ns#" xmlns:rdf="http://www.w3.org/1999/02/22-rdf-syntax-ns#">
   <cc:Work>
    <dc:type rdf:resource="http://purl.org/dc/dcmitype/StillImage"/>
    <dc:date>2024-11-16T03:32:11.468901</dc:date>
    <dc:format>image/svg+xml</dc:format>
    <dc:creator>
     <cc:Agent>
      <dc:title>Matplotlib v3.8.4, https://matplotlib.org/</dc:title>
     </cc:Agent>
    </dc:creator>
   </cc:Work>
  </rdf:RDF>
 </metadata>
 <defs>
  <style type="text/css">*{stroke-linejoin: round; stroke-linecap: butt}</style>
 </defs>
 <g id="figure_1">
  <g id="patch_1">
   <path d="M 0 607.76645 
L 625.113418 607.76645 
L 625.113418 0 
L 0 0 
z
" style="fill: #ffffff"/>
  </g>
  <g id="axes_1">
   <g id="patch_2">
    <path d="M 321.230193 51.307613 
L 323.755907 51.320242 
L 326.281368 51.358126 
L 328.806325 51.421263 
L 331.330523 51.509646 
L 333.853712 51.623267 
L 336.375638 51.762113 
L 338.89605 51.92617 
L 341.414696 52.115424 
L 343.931322 52.329854 
L 346.445679 52.569439 
L 348.957514 52.834155 
L 351.466577 53.123976 
L 353.972616 53.438873 
L 356.47538 53.778814 
L 358.974621 54.143765 
L 361.470086 54.53369 
L 363.961528 54.948549 
L 366.448697 55.388302 
L 368.931344 55.852904 
L 371.409221 56.342309 
L 373.88208 56.856468 
L 376.349673 57.395329 
L 378.811755 57.958839 
L 381.268079 58.546941 
L 383.718399 59.159577 
L 386.162471 59.796685 
L 388.600049 60.458201 
L 391.03089 61.144059 
L 393.454751 61.854192 
L 395.87139 62.588526 
L 398.280565 63.346991 
L 400.682034 64.129508 
L 403.075559 64.936001 
L 405.460899 65.766388 
L 407.837816 66.620587 
L 410.206073 67.498512 
L 412.565432 68.400075 
L 414.915657 69.325186 
L 417.256515 70.273753 
L 419.587769 71.245681 
L 421.909188 72.240872 
L 424.220539 73.259227 
L 426.521591 74.300644 
L 428.812114 75.36502 
L 431.091879 76.452247 
L 433.360658 77.562217 
L 435.618224 78.694819 
L 437.864351 79.849939 
L 440.098815 81.027463 
L 442.321392 82.227272 
L 444.53186 83.449247 
L 446.729998 84.693264 
L 448.915586 85.959201 
L 451.088406 87.24693 
L 453.24824 88.556322 
L 455.394872 89.887247 
L 457.528088 91.239571 
L 459.647674 92.613159 
L 461.753419 94.007874 
L 463.845111 95.423577 
L 465.922542 96.860125 
L 467.985504 98.317376 
L 470.033791 99.795182 
L 472.067197 101.293398 
L 474.08552 102.811872 
L 476.088557 104.350454 
L 478.076109 105.908988 
L 480.047976 107.48732 
L 482.003961 109.085291 
L 483.94387 110.702741 
L 485.867507 112.33951 
L 487.77468 113.995433 
L 489.665199 115.670344 
L 491.538875 117.364077 
L 493.39552 119.076461 
L 495.234949 120.807326 
L 497.056977 122.556498 
L 498.861423 124.323803 
L 500.648105 126.109064 
L 502.416847 127.912101 
L 504.167469 129.732736 
L 505.899798 131.570786 
L 507.613661 133.426067 
L 508.930452 134.877153 
L 510.826414 133.170021 
L 509.496322 131.704277 
L 507.765148 129.830256 
L 506.015321 127.97364 
L 504.247015 126.134615 
L 502.460408 124.313365 
L 500.655678 122.510071 
L 498.833005 120.724915 
L 496.992572 118.958074 
L 495.134564 117.209726 
L 493.259165 115.480045 
L 491.366563 113.769204 
L 489.456948 112.077374 
L 487.53051 110.404725 
L 485.587442 108.751423 
L 483.627939 107.117635 
L 481.652196 105.503523 
L 479.660411 103.909248 
L 477.652783 102.334971 
L 475.629513 100.780849 
L 473.590803 99.247036 
L 471.536857 97.733687 
L 469.467881 96.240953 
L 467.384081 94.768983 
L 465.285666 93.317924 
L 463.172845 91.887921 
L 461.045831 90.479118 
L 458.904834 89.091655 
L 456.750071 87.725671 
L 454.581755 86.381303 
L 452.400105 85.058684 
L 450.205337 83.757948 
L 447.997673 82.479224 
L 445.777331 81.222641 
L 443.544535 79.988323 
L 441.299508 78.776395 
L 439.042474 77.586977 
L 436.773658 76.420189 
L 434.493289 75.276146 
L 432.201593 74.154964 
L 429.8988 73.056755 
L 427.58514 71.981628 
L 425.260845 70.929692 
L 422.926147 69.90105 
L 420.58128 68.895806 
L 418.226477 67.914061 
L 415.861975 66.955913 
L 413.48801 66.021457 
L 411.104819 65.110787 
L 408.712641 64.223995 
L 406.311714 63.361168 
L 403.90228 62.522393 
L 401.484578 61.707754 
L 399.058851 60.917332 
L 396.625341 60.151206 
L 394.184292 59.409454 
L 391.735947 58.692149 
L 389.280552 57.999362 
L 386.818352 57.331164 
L 384.349593 56.687621 
L 381.874522 56.068797 
L 379.393387 55.474755 
L 376.906436 54.905553 
L 374.413917 54.361248 
L 371.91608 53.841896 
L 369.413174 53.347547 
L 366.905449 52.878252 
L 364.393158 52.434058 
L 361.87655 52.015007 
L 359.355877 51.621144 
L 356.831392 51.252506 
L 354.303347 50.909132 
L 351.771995 50.591054 
L 349.237588 50.298306 
L 346.700381 50.030916 
L 344.160627 49.788911 
L 341.618579 49.572315 
L 339.074493 49.38115 
L 336.528623 49.215435 
L 333.981222 49.075186 
L 331.432547 48.960418 
L 328.882851 48.871143 
L 326.33239 48.807368 
L 323.781419 48.7691 
L 321.230193 48.756344 
z
" clip-path="url(#p5bf8571570)" style="fill: #000080"/>
   </g>
   <g id="patch_3">
    <path d="M 508.930452 134.877153 
L 510.6111 136.762574 
L 512.272809 138.664708 
L 513.915415 140.583363 
L 515.538752 142.518348 
L 517.142659 144.469469 
L 518.726974 146.436532 
L 520.29154 148.419339 
L 521.8362 150.417692 
L 523.3608 152.431392 
L 524.865186 154.460237 
L 526.34921 156.504024 
L 527.812721 158.562549 
L 529.255575 160.635606 
L 530.677626 162.722987 
L 532.078732 164.824485 
L 533.458754 166.939888 
L 534.817553 169.068985 
L 536.154994 171.211564 
L 537.470942 173.36741 
L 538.765267 175.536307 
L 540.037838 177.718039 
L 541.288529 179.912387 
L 542.517213 182.119132 
L 543.72377 184.338053 
L 544.908077 186.568929 
L 546.070017 188.811537 
L 547.209472 191.065651 
L 548.326331 193.331047 
L 549.420479 195.607498 
L 550.491809 197.894777 
L 551.540213 200.192654 
L 552.565586 202.5009 
L 553.567826 204.819285 
L 554.546832 207.147575 
L 555.502506 209.48554 
L 556.434754 211.832944 
L 557.343481 214.189552 
L 558.228597 216.555131 
L 559.090014 218.929442 
L 559.927645 221.312248 
L 560.741406 223.703311 
L 561.531216 226.102392 
L 562.296997 228.509251 
L 563.038671 230.923648 
L 563.756164 233.34534 
L 564.449405 235.774087 
L 565.118324 238.209644 
L 565.762855 240.651768 
L 566.382932 243.100215 
L 566.978495 245.554741 
L 567.549482 248.015099 
L 568.095838 250.481045 
L 568.617508 252.95233 
L 569.114439 255.428708 
L 569.586582 257.909932 
L 570.03389 260.395753 
L 570.456317 262.885923 
L 570.853822 265.380193 
L 571.226365 267.878313 
L 571.573909 270.380033 
L 571.896418 272.885104 
L 572.193861 275.393274 
L 572.466207 277.904293 
L 572.713431 280.41791 
L 572.935506 282.933874 
L 573.132411 285.451933 
L 573.304126 287.971835 
L 573.450633 290.493327 
L 573.571919 293.016159 
L 573.667971 295.540078 
L 573.738779 298.064831 
L 573.784337 300.590165 
L 573.804639 303.115829 
L 573.799684 305.64157 
L 573.769473 308.167135 
L 573.714008 310.692272 
L 573.633294 313.216727 
L 573.527341 315.740249 
L 573.396158 318.262586 
L 573.239758 320.783485 
L 573.058158 323.302693 
L 572.851375 325.81996 
L 572.619431 328.335033 
L 572.362347 330.847661 
L 572.080151 333.357593 
L 571.77287 335.864577 
L 571.440535 338.368363 
L 571.083179 340.8687 
L 570.700838 343.365339 
L 570.29355 345.85803 
L 569.861355 348.346523 
L 569.404298 350.83057 
L 568.922424 353.309923 
L 568.415781 355.784332 
L 567.884419 358.253552 
L 567.328393 360.717335 
L 566.747756 363.175434 
L 566.142568 365.627604 
L 565.512889 368.0736 
L 564.858782 370.513176 
L 564.180312 372.94609 
L 563.477548 375.372098 
L 562.750559 377.790957 
L 561.999418 380.202425 
L 561.2242 382.606261 
L 560.424983 385.002225 
L 559.601847 387.390077 
L 558.754874 389.769578 
L 557.884149 392.140491 
L 556.989758 394.502579 
L 556.071792 396.855604 
L 555.130342 399.199332 
L 554.165502 401.533529 
L 553.177368 403.857961 
L 552.16604 406.172395 
L 551.131619 408.476601 
L 550.074207 410.770347 
L 548.993912 413.053405 
L 547.89084 415.325546 
L 546.765103 417.586542 
L 545.616812 419.836169 
L 544.446082 422.0742 
L 543.253032 424.300412 
L 542.037779 426.514583 
L 540.800445 428.71649 
L 539.541155 430.905915 
L 538.260034 433.082637 
L 536.95721 435.246439 
L 535.632814 437.397105 
L 534.286977 439.53442 
L 532.919835 441.65817 
L 531.531524 443.768142 
L 530.122183 445.864126 
L 528.691953 447.945912 
L 527.240977 450.013292 
L 525.769401 452.066059 
L 524.27737 454.104008 
L 522.765035 456.126935 
L 521.232547 458.134638 
L 519.680058 460.126916 
L 518.107725 462.103569 
L 516.515704 464.064401 
L 514.904155 466.009214 
L 513.273238 467.937815 
L 511.623118 469.850011 
L 509.953958 471.74561 
L 508.265926 473.624424 
L 506.559191 475.486263 
L 504.833922 477.330942 
L 503.090294 479.158276 
L 501.32848 480.968083 
L 499.548656 482.760182 
L 497.751 484.534393 
L 495.935693 486.290539 
L 494.102915 488.028445 
L 492.25285 489.747936 
L 490.385683 491.448841 
L 488.5016 493.130989 
L 486.60079 494.794213 
L 484.683444 496.438346 
L 482.749752 498.063224 
L 480.799909 499.668684 
L 478.834108 501.254565 
L 476.852548 502.820709 
L 474.855425 504.36696 
L 472.84294 505.893163 
L 470.815293 507.399165 
L 468.772689 508.884815 
L 466.71533 510.349965 
L 464.643423 511.794469 
L 462.557174 513.218182 
L 460.456793 514.620962 
L 458.34249 516.002668 
L 456.214475 517.363162 
L 454.072962 518.702308 
L 451.918165 520.019973 
L 449.750299 521.316024 
L 447.569582 522.590332 
L 445.37623 523.84277 
L 443.170464 525.073212 
L 440.952504 526.281535 
L 438.722572 527.467618 
L 436.480891 528.631343 
L 434.227685 529.772594 
L 431.963179 530.891255 
L 429.6876 531.987216 
L 427.401175 533.060367 
L 425.104133 534.110601 
L 422.796704 535.137811 
L 420.479119 536.141897 
L 418.151608 537.122757 
L 415.814406 538.080293 
L 413.467745 539.01441 
L 411.11186 539.925013 
L 408.746988 540.812013 
L 406.373364 541.67532 
L 403.991225 542.514848 
L 401.600811 543.330513 
L 399.202359 544.122234 
L 396.796111 544.88993 
L 394.382305 545.633527 
L 391.961185 546.352948 
L 389.532992 547.048123 
L 387.097968 547.718982 
L 384.656358 548.365457 
L 382.208405 548.987484 
L 379.754354 549.585001 
L 377.294451 550.157947 
L 374.828942 550.706267 
L 372.358073 551.229905 
L 369.882091 551.728808 
L 367.401244 552.202926 
L 364.91578 552.652213 
L 362.425947 553.076623 
L 359.931995 553.476115 
L 357.434172 553.850647 
L 354.93273 554.200182 
L 352.427917 554.524686 
L 349.919984 554.824126 
L 347.409182 555.098472 
L 344.895763 555.347697 
L 342.379977 555.571776 
L 339.862076 555.770686 
L 337.342312 555.944407 
L 334.820936 556.092923 
L 332.298202 556.216218 
L 329.77436 556.314279 
L 327.249665 556.387098 
L 324.724367 556.434667 
L 322.19872 556.45698 
L 319.672976 556.454037 
L 317.147388 556.425837 
L 314.622208 556.372382 
L 312.097689 556.293679 
L 309.574083 556.189735 
L 307.051643 556.060561 
L 304.53062 555.906169 
L 302.011268 555.726575 
L 299.493837 555.521797 
L 296.97858 555.291855 
L 294.465749 555.036773 
L 291.955593 554.756575 
L 289.448365 554.451291 
L 286.944315 554.120949 
L 284.443694 553.765584 
L 281.946752 553.385232 
L 279.453737 552.979929 
L 276.964901 552.549716 
L 274.48049 552.094638 
L 272.000755 551.614738 
L 269.525943 551.110065 
L 267.056301 550.58067 
L 264.592076 550.026605 
L 262.133515 549.447927 
L 259.680864 548.844692 
L 257.234367 548.216961 
L 254.794271 547.564796 
L 252.360817 546.888264 
L 249.934251 546.187432 
L 247.514814 545.462369 
L 245.102748 544.713149 
L 242.698296 543.939846 
L 240.301696 543.142537 
L 237.913189 542.321303 
L 235.533014 541.476225 
L 233.161408 540.607388 
L 230.79861 539.714878 
L 228.444854 538.798786 
L 226.100377 537.859203 
L 223.765412 536.896222 
L 221.440194 535.909939 
L 219.124955 534.900455 
L 218.498436 534.622528 
L 217.460742 536.953229 
L 218.093589 537.233962 
L 220.432215 538.253644 
L 222.78092 539.249888 
L 225.139469 540.222596 
L 227.507628 541.171671 
L 229.885159 542.097016 
L 232.271825 542.998541 
L 234.667386 543.876154 
L 237.071603 544.729768 
L 239.484236 545.559298 
L 241.905044 546.36466 
L 244.333784 547.145774 
L 246.770214 547.902563 
L 249.21409 548.634949 
L 251.665167 549.342861 
L 254.123201 550.026226 
L 256.587945 550.684978 
L 259.059153 551.31905 
L 261.536579 551.928378 
L 264.019974 552.512902 
L 266.50909 553.072563 
L 269.003677 553.607306 
L 271.503488 554.117076 
L 274.008271 554.601824 
L 276.517776 555.061499 
L 279.031753 555.496057 
L 281.549949 555.905454 
L 284.072113 556.289649 
L 286.597993 556.648603 
L 289.127337 556.982281 
L 291.65989 557.290649 
L 294.195401 557.573677 
L 296.733615 557.831336 
L 299.274278 558.063601 
L 301.817137 558.270447 
L 304.361938 558.451855 
L 306.908425 558.607807 
L 309.456345 558.738286 
L 312.005441 558.84328 
L 314.555461 558.922778 
L 317.106148 558.976772 
L 319.657247 559.005257 
L 322.208503 559.008231 
L 324.759662 558.985691 
L 327.310467 558.937642 
L 329.860665 558.864088 
L 332.41 558.765036 
L 334.958216 558.640496 
L 337.50506 558.49048 
L 340.050277 558.315004 
L 342.593611 558.114084 
L 345.134809 557.887742 
L 347.673617 557.636 
L 350.20978 557.358883 
L 352.743045 557.056418 
L 355.273159 556.728636 
L 357.799869 556.37557 
L 360.322922 555.997255 
L 362.842066 555.593728 
L 365.357048 555.165031 
L 367.867618 554.711206 
L 370.373524 554.232298 
L 372.874516 553.728356 
L 375.370344 553.199429 
L 377.860757 552.645571 
L 380.345508 552.066837 
L 382.824347 551.463284 
L 385.297026 550.834974 
L 387.763299 550.181969 
L 390.222919 549.504334 
L 392.67564 548.802137 
L 395.121216 548.075449 
L 397.559403 547.324342 
L 399.989957 546.54889 
L 402.412635 545.749173 
L 404.827195 544.925268 
L 407.233396 544.07726 
L 409.630996 543.205233 
L 412.019756 542.309274 
L 414.399437 541.389472 
L 416.769802 540.44592 
L 419.130612 539.478712 
L 421.481633 538.487944 
L 423.822629 537.473716 
L 426.153365 536.43613 
L 428.473609 535.375288 
L 430.783129 534.291297 
L 433.081694 533.184266 
L 435.369073 532.054304 
L 437.645039 530.901526 
L 439.909364 529.726046 
L 442.16182 528.527982 
L 444.402184 527.307454 
L 446.630231 526.064584 
L 448.845737 524.799495 
L 451.048482 523.512315 
L 453.238246 522.203173 
L 455.414808 520.872198 
L 457.577953 519.519525 
L 459.727463 518.145288 
L 461.863123 516.749626 
L 463.98472 515.332677 
L 466.092041 513.894583 
L 468.184877 512.435488 
L 470.263017 510.955538 
L 472.326254 509.454881 
L 474.374382 507.933667 
L 476.407195 506.392048 
L 478.424491 504.830179 
L 480.426067 503.248215 
L 482.411724 501.646314 
L 484.381263 500.024638 
L 486.334487 498.383347 
L 488.2712 496.722607 
L 490.19121 495.042583 
L 492.094324 493.343443 
L 493.980351 491.625357 
L 495.849104 489.888498 
L 497.700395 488.133037 
L 499.534039 486.359152 
L 501.349852 484.56702 
L 503.147654 482.756819 
L 504.927265 480.928731 
L 506.688505 479.082939 
L 508.431201 477.219627 
L 510.155176 475.338981 
L 511.860259 473.44119 
L 513.546279 471.526443 
L 515.213067 469.594933 
L 516.860457 467.646851 
L 518.488285 465.682392 
L 520.096387 463.701754 
L 521.684602 461.705135 
L 523.252772 459.692733 
L 524.800741 457.664751 
L 526.328352 455.62139 
L 527.835453 453.562856 
L 529.321894 451.489354 
L 530.787527 449.401091 
L 532.232203 447.298277 
L 533.65578 445.181121 
L 535.058114 443.049836 
L 536.439066 440.904634 
L 537.798497 438.74573 
L 539.136271 436.57334 
L 540.452255 434.387681 
L 541.746316 432.188972 
L 543.018327 429.977432 
L 544.268159 427.753283 
L 545.495687 425.516747 
L 546.700788 423.268048 
L 547.883343 421.007411 
L 549.043233 418.735061 
L 550.180342 416.451226 
L 551.294556 414.156134 
L 552.385763 411.850015 
L 553.453855 409.5331 
L 554.498725 407.205619 
L 555.520269 404.867807 
L 556.518383 402.519896 
L 557.492969 400.162121 
L 558.443929 397.794719 
L 559.371168 395.417926 
L 560.274593 393.031979 
L 561.154113 390.637117 
L 562.009642 388.233581 
L 562.841092 385.821609 
L 563.648382 383.401443 
L 564.43143 380.973326 
L 565.190158 378.537499 
L 565.924491 376.094208 
L 566.634354 373.643695 
L 567.319677 371.186206 
L 567.980391 368.721987 
L 568.616431 366.251285 
L 569.227732 363.774345 
L 569.814233 361.291416 
L 570.375876 358.802747 
L 570.912605 356.308586 
L 571.424366 353.809182 
L 571.911108 351.304786 
L 572.372781 348.795647 
L 572.809341 346.282018 
L 573.220743 343.764148 
L 573.606946 341.242291 
L 573.967912 338.716697 
L 574.303604 336.187621 
L 574.613989 333.655313 
L 574.899036 331.120029 
L 575.158716 328.582021 
L 575.393004 326.041543 
L 575.601875 323.49885 
L 575.78531 320.954194 
L 575.943289 318.407832 
L 576.075797 315.860017 
L 576.182821 313.311005 
L 576.264349 310.76105 
L 576.320375 308.210407 
L 576.350891 305.659331 
L 576.355896 303.108078 
L 576.335389 300.556902 
L 576.289371 298.006059 
L 576.217847 295.455804 
L 576.120825 292.906391 
L 575.998314 290.358076 
L 575.850327 287.811113 
L 575.676878 285.265758 
L 575.477984 282.722265 
L 575.253665 280.180887 
L 575.003945 277.64188 
L 574.728847 275.105497 
L 574.4284 272.571991 
L 574.102633 270.041617 
L 573.751579 267.514627 
L 573.375273 264.991273 
L 572.973753 262.471809 
L 572.547059 259.956486 
L 572.095233 257.445556 
L 571.618321 254.939269 
L 571.11637 252.437877 
L 570.589431 249.941629 
L 570.037556 247.450775 
L 569.460801 244.965564 
L 568.859222 242.486245 
L 568.232882 240.013066 
L 567.581841 237.546274 
L 566.906165 235.086115 
L 566.205921 232.632836 
L 565.481181 230.186682 
L 564.732015 227.747898 
L 563.958499 225.316727 
L 563.160711 222.893413 
L 562.33873 220.478197 
L 561.492639 218.071323 
L 560.622521 215.673029 
L 559.728464 213.283556 
L 558.810558 210.903143 
L 557.868893 208.532028 
L 556.903565 206.170448 
L 555.91467 203.818639 
L 554.902307 201.476836 
L 553.866577 199.145274 
L 552.807583 196.824186 
L 551.725432 194.513804 
L 550.620231 192.214358 
L 549.492091 189.926079 
L 548.341126 187.649196 
L 547.16745 185.383936 
L 545.97118 183.130526 
L 544.752436 180.889192 
L 543.51134 178.660156 
L 542.248016 176.443643 
L 540.962591 174.239873 
L 539.655192 172.049068 
L 538.325952 169.871446 
L 536.975002 167.707225 
L 535.602477 165.556622 
L 534.208516 163.419851 
L 532.793256 161.297126 
L 531.356841 159.18866 
L 529.899413 157.094664 
L 528.421119 155.015345 
L 526.922105 152.950914 
L 525.402523 150.901576 
L 523.862523 148.867535 
L 522.302261 146.848997 
L 520.721891 144.846161 
L 519.121573 142.859229 
L 517.501465 140.8884 
L 515.86173 138.933869 
L 514.202533 136.995834 
L 512.524038 135.074487 
L 510.826414 133.170021 
z
" clip-path="url(#p5bf8571570)" style="fill: #7dff7a"/>
   </g>
   <g id="patch_4">
    <path d="M 218.498436 534.622528 
L 216.196218 533.583691 
L 213.904503 532.521884 
L 211.623521 531.437213 
L 209.353499 530.329787 
L 207.094665 529.199717 
L 204.847245 528.047115 
L 202.611462 526.872096 
L 200.387542 525.67478 
L 198.175705 524.455284 
L 195.976174 523.213731 
L 193.789168 521.950245 
L 191.614906 520.664953 
L 189.453606 519.357983 
L 187.305483 518.029465 
L 185.170752 516.679533 
L 183.049628 515.308322 
L 180.942321 513.915968 
L 178.849043 512.502611 
L 176.770003 511.068392 
L 174.705409 509.613455 
L 172.655467 508.137945 
L 170.620382 506.64201 
L 168.600359 505.125799 
L 166.595598 503.589464 
L 164.6063 502.033159 
L 162.632665 500.457039 
L 160.67489 498.861261 
L 158.73317 497.245986 
L 156.807699 495.611375 
L 154.89867 493.957591 
L 153.006275 492.2848 
L 151.130702 490.593169 
L 149.272138 488.882867 
L 147.430771 487.154065 
L 145.606783 485.406936 
L 143.800357 483.641655 
L 142.011674 481.858399 
L 140.240913 480.057345 
L 138.48825 478.238674 
L 136.753862 476.402567 
L 135.037921 474.549208 
L 133.340599 472.678783 
L 131.662066 470.791479 
L 130.00249 468.887484 
L 128.362036 466.966989 
L 126.740869 465.030185 
L 125.13915 463.077267 
L 123.557041 461.10843 
L 121.994699 459.12387 
L 120.45228 457.123786 
L 118.929939 455.108379 
L 117.427827 453.077849 
L 115.946096 451.032399 
L 114.484893 448.972235 
L 113.044364 446.897562 
L 111.624654 444.808588 
L 110.225904 442.705521 
L 108.848254 440.588573 
L 107.491842 438.457953 
L 106.156804 436.313877 
L 104.843273 434.156557 
L 103.551381 431.986211 
L 102.281256 429.803054 
L 101.033026 427.607305 
L 99.806816 425.399184 
L 98.602748 423.178911 
L 97.420942 420.946709 
L 96.261517 418.702801 
L 95.124589 416.44741 
L 94.010271 414.180764 
L 92.918675 411.903088 
L 91.84991 409.61461 
L 90.804082 407.315559 
L 89.781298 405.006164 
L 88.781657 402.686658 
L 87.805262 400.357271 
L 86.852209 398.018237 
L 85.922593 395.669789 
L 85.016508 393.312163 
L 84.134044 390.945595 
L 83.27529 388.570319 
L 82.44033 386.186576 
L 81.62925 383.794602 
L 80.842129 381.394637 
L 80.079048 378.986921 
L 79.340081 376.571694 
L 78.625302 374.149199 
L 77.934784 371.719677 
L 77.268596 369.283372 
L 76.626803 366.840527 
L 76.009471 364.391386 
L 75.41666 361.936194 
L 74.848431 359.475197 
L 74.304839 357.008641 
L 73.78594 354.536772 
L 73.291785 352.059838 
L 72.822424 349.578087 
L 72.377903 347.091766 
L 71.958268 344.601124 
L 71.563559 342.10641 
L 71.193817 339.607874 
L 70.849078 337.105766 
L 70.529377 334.600336 
L 70.234746 332.091833 
L 69.965214 329.58051 
L 69.720809 327.066618 
L 69.501554 324.550407 
L 69.307472 322.032129 
L 69.138582 319.512036 
L 68.994901 316.990381 
L 68.876443 314.467414 
L 68.783221 311.94339 
L 68.715243 309.418559 
L 68.672516 306.893175 
L 68.655045 304.36749 
L 68.662831 301.841756 
L 68.695873 299.316227 
L 68.754169 296.791154 
L 68.837712 294.26679 
L 68.946495 291.743388 
L 69.080505 289.2212 
L 69.23973 286.700479 
L 69.424154 284.181475 
L 69.633759 281.664442 
L 69.868523 279.14963 
L 70.128422 276.637292 
L 70.413432 274.127679 
L 70.723523 271.621041 
L 71.058665 269.117629 
L 71.418824 266.617693 
L 71.803963 264.121485 
L 72.214045 261.629252 
L 72.649029 259.141245 
L 73.10887 256.657712 
L 73.593523 254.178901 
L 74.10294 251.705061 
L 74.637069 249.236438 
L 75.195857 246.77328 
L 75.779249 244.315834 
L 76.387185 241.864343 
L 77.019606 239.419055 
L 77.676447 236.980213 
L 78.357644 234.548061 
L 79.063128 232.122843 
L 79.792828 229.704801 
L 80.546671 227.294176 
L 81.324583 224.891211 
L 82.126485 222.496144 
L 82.952298 220.109216 
L 83.801938 217.730666 
L 84.67532 215.36073 
L 85.572358 212.999647 
L 86.492961 210.647652 
L 87.437038 208.304981 
L 88.404494 205.971867 
L 89.395233 203.648544 
L 90.409155 201.335245 
L 91.446158 199.0322 
L 92.50614 196.739641 
L 93.588994 194.457796 
L 94.694612 192.186893 
L 95.822884 189.927159 
L 96.973696 187.678822 
L 98.146933 185.442104 
L 99.342478 183.217231 
L 100.560213 181.004424 
L 101.800014 178.803905 
L 103.061757 176.615894 
L 104.345318 174.440609 
L 105.650567 172.278268 
L 106.977373 170.129088 
L 108.325605 167.993283 
L 109.695127 165.871067 
L 111.085802 163.762653 
L 112.497491 161.66825 
L 113.930054 159.588068 
L 115.383346 157.522316 
L 116.857223 155.4712 
L 118.351537 153.434925 
L 119.866139 151.413694 
L 121.400877 149.407711 
L 122.955598 147.417175 
L 124.530146 145.442285 
L 126.124364 143.483239 
L 127.738092 141.540233 
L 129.37117 139.613462 
L 131.023433 137.703117 
L 132.694716 135.80939 
L 134.384854 133.93247 
L 136.093675 132.072545 
L 137.82101 130.229802 
L 139.566686 128.404423 
L 141.330527 126.596592 
L 143.112359 124.80649 
L 144.912002 123.034295 
L 146.729277 121.280184 
L 148.564002 119.544334 
L 150.415994 117.826918 
L 152.285066 116.128107 
L 154.171034 114.448072 
L 156.073706 112.78698 
L 157.992895 111.144997 
L 159.928407 109.522288 
L 161.880049 107.919015 
L 163.847626 106.335339 
L 165.830941 104.771417 
L 167.829795 103.227405 
L 169.84399 101.70346 
L 171.873323 100.199732 
L 173.917592 98.716372 
L 175.976592 97.253529 
L 178.050117 95.811348 
L 180.13796 94.389975 
L 182.239912 92.989551 
L 184.355763 91.610216 
L 186.485302 90.252108 
L 188.628314 88.915363 
L 190.784587 87.600115 
L 192.953905 86.306494 
L 195.136049 85.034632 
L 197.330804 83.784653 
L 199.537947 82.556685 
L 201.757261 81.350849 
L 203.988521 80.167266 
L 206.231505 79.006055 
L 208.485989 77.867331 
L 210.751748 76.751208 
L 213.028554 75.657799 
L 215.31618 74.587212 
L 217.614398 73.539554 
L 219.922977 72.51493 
L 222.241686 71.513443 
L 224.570295 70.535193 
L 226.908569 69.580278 
L 229.256276 68.648792 
L 231.61318 67.74083 
L 233.979045 66.856482 
L 236.353635 65.995836 
L 238.736714 65.158979 
L 241.128041 64.345994 
L 243.527378 63.556962 
L 245.934486 62.791963 
L 248.349123 62.051073 
L 250.771048 61.334366 
L 253.200019 60.641914 
L 255.635794 59.973786 
L 258.078127 59.330048 
L 260.526776 58.710765 
L 262.981494 58.116 
L 265.442038 57.545811 
L 267.908161 57.000255 
L 270.379615 56.479388 
L 272.856155 55.983261 
L 275.337532 55.511923 
L 277.823498 55.065423 
L 280.313805 54.643804 
L 282.808203 54.247109 
L 285.306444 53.875377 
L 287.808277 53.528646 
L 290.313452 53.20695 
L 292.821719 52.910321 
L 295.332827 52.63879 
L 297.846524 52.392382 
L 300.36256 52.171124 
L 302.880682 51.975037 
L 305.40064 51.80414 
L 307.92218 51.658451 
L 310.445051 51.537984 
L 312.969001 51.442752 
L 315.493776 51.372763 
L 318.019126 51.328025 
L 320.544796 51.308543 
L 321.230193 51.307613 
L 321.230193 48.756344 
L 320.537873 48.757283 
L 317.986691 48.776963 
L 315.435833 48.822152 
L 312.885554 48.892848 
L 310.33611 48.989042 
L 307.787755 49.110726 
L 305.240745 49.257887 
L 302.695334 49.43051 
L 300.151776 49.628578 
L 297.610325 49.852071 
L 295.071237 50.100967 
L 292.534765 50.375241 
L 290.001162 50.674866 
L 287.470682 50.999812 
L 284.943578 51.350045 
L 282.420103 51.725532 
L 279.900508 52.126234 
L 277.385047 52.552112 
L 274.87397 53.003122 
L 272.367528 53.479221 
L 269.865973 53.980359 
L 267.369554 54.506488 
L 264.878521 55.057554 
L 262.393124 55.633503 
L 259.91361 56.234276 
L 257.440227 56.859814 
L 254.973224 57.510054 
L 252.512846 58.184931 
L 250.05934 58.884378 
L 247.612951 59.608324 
L 245.173923 60.356698 
L 242.742501 61.129424 
L 240.318928 61.926426 
L 237.903446 62.747623 
L 235.496297 63.592933 
L 233.09772 64.462272 
L 230.707957 65.355553 
L 228.327246 66.272687 
L 225.955826 67.213581 
L 223.593932 68.178142 
L 221.241803 69.166274 
L 218.899672 70.177877 
L 216.567774 71.21285 
L 214.246342 72.27109 
L 211.935608 73.352491 
L 209.635804 74.456945 
L 207.347159 75.584342 
L 205.069902 76.734568 
L 202.804261 77.907509 
L 200.550463 79.103047 
L 198.308733 80.321063 
L 196.079295 81.561436 
L 193.862371 82.82404 
L 191.658184 84.10875 
L 189.466955 85.415437 
L 187.288902 86.74397 
L 185.124242 88.094218 
L 182.973193 89.466044 
L 180.83597 90.859312 
L 178.712786 92.273882 
L 176.603854 93.709612 
L 174.509384 95.16636 
L 172.429586 96.64398 
L 170.364668 98.142323 
L 168.314837 99.66124 
L 166.280296 101.200579 
L 164.261251 102.760186 
L 162.257903 104.339905 
L 160.270451 105.939579 
L 158.299096 107.559047 
L 156.344033 109.198147 
L 154.405459 110.856715 
L 152.483567 112.534586 
L 150.57855 114.231591 
L 148.690598 115.947562 
L 146.819899 117.682325 
L 144.966642 119.435709 
L 143.131011 121.207538 
L 141.313189 122.997634 
L 139.513359 124.805818 
L 137.731701 126.63191 
L 135.968392 128.475727 
L 134.223609 130.337084 
L 132.497527 132.215796 
L 130.790318 134.111674 
L 129.102152 136.02453 
L 127.4332 137.954171 
L 125.783627 139.900405 
L 124.153598 141.863037 
L 122.543277 143.841871 
L 120.952824 145.836709 
L 119.382399 147.847352 
L 117.832159 149.873598 
L 116.302258 151.915245 
L 114.79285 153.972088 
L 113.304085 156.043923 
L 111.836113 158.130541 
L 110.38908 160.231735 
L 108.963131 162.347293 
L 107.558409 164.477005 
L 106.175053 166.620658 
L 104.813203 168.778036 
L 103.472995 170.948925 
L 102.154561 173.133108 
L 100.858036 175.330365 
L 99.583547 177.540477 
L 98.331223 179.763224 
L 97.101188 181.998382 
L 95.893567 184.245729 
L 94.708478 186.50504 
L 93.546042 188.776088 
L 92.406374 191.058647 
L 91.289588 193.352488 
L 90.195796 195.657382 
L 89.125107 197.973099 
L 88.077629 200.299407 
L 87.053466 202.636073 
L 86.05272 204.982863 
L 85.075491 207.339544 
L 84.121878 209.705879 
L 83.191976 212.081631 
L 82.285877 214.466564 
L 81.403672 216.860438 
L 80.54545 219.263014 
L 79.711296 221.674052 
L 78.901294 224.093311 
L 78.115525 226.52055 
L 77.354066 228.955524 
L 76.616996 231.397991 
L 75.904386 233.847706 
L 75.216309 236.304425 
L 74.552832 238.767902 
L 73.914024 241.23789 
L 73.299947 243.714143 
L 72.710662 246.196412 
L 72.14623 248.684451 
L 71.606705 251.178009 
L 71.092143 253.676837 
L 70.602594 256.180686 
L 70.138108 258.689306 
L 69.698731 261.202444 
L 69.284506 263.719851 
L 68.895477 266.241274 
L 68.53168 268.766461 
L 68.193153 271.29516 
L 67.87993 273.827118 
L 67.592041 276.362081 
L 67.329516 278.899796 
L 67.092381 281.44001 
L 66.880659 283.982468 
L 66.694372 286.526916 
L 66.533539 289.073099 
L 66.398175 291.620764 
L 66.288293 294.169655 
L 66.203906 296.719517 
L 66.145022 299.270095 
L 66.111645 301.821135 
L 66.103781 304.372381 
L 66.121428 306.923578 
L 66.164587 309.474471 
L 66.233251 312.024805 
L 66.327416 314.574325 
L 66.44707 317.122776 
L 66.592202 319.669903 
L 66.762798 322.215451 
L 66.958841 324.759166 
L 67.18031 327.300793 
L 67.427184 329.840079 
L 67.699438 332.376769 
L 67.997045 334.910609 
L 68.319976 337.441347 
L 68.668197 339.96873 
L 69.041674 342.492503 
L 69.440369 345.012416 
L 69.864244 347.528216 
L 70.313255 350.039651 
L 70.787357 352.546471 
L 71.286503 355.048424 
L 71.810644 357.545261 
L 72.359726 360.036732 
L 72.933695 362.522588 
L 73.532494 365.002579 
L 74.156062 367.476459 
L 74.804337 369.94398 
L 75.477255 372.404894 
L 76.174748 374.858956 
L 76.896746 377.305921 
L 77.643177 379.745544 
L 78.413967 382.17758 
L 79.209038 384.601787 
L 80.028312 387.017923 
L 80.871705 389.425745 
L 81.739133 391.825012 
L 82.630511 394.215486 
L 83.545748 396.596926 
L 84.484754 398.969096 
L 85.447434 401.331756 
L 86.433692 403.684672 
L 87.44343 406.027608 
L 88.476546 408.36033 
L 89.532937 410.682603 
L 90.612498 412.994197 
L 91.71512 415.29488 
L 92.840694 417.584422 
L 93.989106 419.862594 
L 95.160243 422.129168 
L 96.353986 424.383918 
L 97.570216 426.626618 
L 98.808813 428.857043 
L 100.069651 431.074971 
L 101.352605 433.28018 
L 102.657547 435.47245 
L 103.984346 437.65156 
L 105.332869 439.817294 
L 106.702982 441.969435 
L 108.094547 444.107767 
L 109.507426 446.232077 
L 110.941477 448.342151 
L 112.396556 450.437781 
L 113.872519 452.518755 
L 115.369217 454.584865 
L 116.886502 456.635906 
L 118.42422 458.671671 
L 119.982219 460.691957 
L 121.560342 462.696563 
L 123.158433 464.685288 
L 124.77633 466.657932 
L 126.413873 468.6143 
L 128.070897 470.554194 
L 129.747236 472.477421 
L 131.442724 474.383789 
L 133.157191 476.273107 
L 134.890465 478.145186 
L 136.642372 479.99984 
L 138.412738 481.836881 
L 140.201386 483.656128 
L 142.008136 485.457397 
L 143.832809 487.240509 
L 145.675221 489.005286 
L 147.535188 490.75155 
L 149.412525 492.479128 
L 151.307043 494.187846 
L 153.218554 495.877534 
L 155.146866 497.548023 
L 157.091785 499.199145 
L 159.053119 500.830736 
L 161.03067 502.442633 
L 163.024241 504.034673 
L 165.033632 505.606699 
L 167.058643 507.158553 
L 169.099071 508.690079 
L 171.154712 510.201124 
L 173.22536 511.691538 
L 175.310809 513.161172 
L 177.410849 514.609877 
L 179.525272 516.037511 
L 181.653864 517.443929 
L 183.796415 518.828991 
L 185.952708 520.192558 
L 188.122529 521.534495 
L 190.305661 522.854667 
L 192.501885 524.152942 
L 194.710982 525.42919 
L 196.93273 526.683284 
L 199.166909 527.915098 
L 201.413293 529.124509 
L 203.671659 530.311396 
L 205.941781 531.475641 
L 208.223432 532.617126 
L 210.516383 533.735738 
L 212.820405 534.831365 
L 215.135269 535.903898 
L 217.460742 536.953229 
z
" clip-path="url(#p5bf8571570)" style="fill: #800000"/>
   </g>
   <g id="PatchCollection_1">
    <path d="M 218.498436 534.622528 
L 218.498436 534.622528 
L 216.196218 533.583691 
L 213.904503 532.521884 
L 211.623521 531.437213 
L 209.353499 530.329787 
L 207.094665 529.199717 
L 204.847245 528.047115 
L 202.611462 526.872096 
L 200.387542 525.67478 
L 198.175705 524.455284 
L 195.976174 523.213731 
L 193.789168 521.950245 
L 191.614906 520.664953 
L 189.453606 519.357983 
L 187.305483 518.029465 
L 185.170752 516.679533 
L 183.049628 515.308322 
L 180.942321 513.915968 
L 178.849043 512.502611 
L 176.770003 511.068392 
L 174.705409 509.613455 
L 172.655467 508.137945 
L 170.620382 506.64201 
L 168.600359 505.125799 
L 166.595598 503.589464 
L 164.6063 502.033159 
L 162.632665 500.457039 
L 160.67489 498.861261 
L 158.73317 497.245986 
L 156.807699 495.611375 
L 154.89867 493.957591 
L 153.006275 492.2848 
L 151.130702 490.593169 
L 149.272138 488.882867 
L 147.430771 487.154065 
L 145.606783 485.406936 
L 143.800357 483.641655 
L 142.011674 481.858399 
L 140.240913 480.057345 
L 138.48825 478.238674 
L 136.753862 476.402567 
L 135.037921 474.549208 
L 133.340599 472.678783 
L 131.662066 470.791479 
L 130.00249 468.887484 
L 128.362036 466.966989 
L 126.740869 465.030185 
L 125.13915 463.077267 
L 123.557041 461.10843 
L 121.994699 459.12387 
L 120.45228 457.123786 
L 118.929939 455.108379 
L 117.427827 453.077849 
L 115.946096 451.032399 
L 114.484893 448.972235 
L 113.044364 446.897562 
L 111.624654 444.808588 
L 110.225904 442.705521 
L 108.848254 440.588573 
L 107.491842 438.457953 
L 106.156804 436.313877 
L 104.843273 434.156557 
L 103.551381 431.986211 
L 102.281256 429.803054 
L 101.033026 427.607305 
L 99.806816 425.399184 
L 98.602748 423.178911 
L 97.420942 420.946709 
L 96.261517 418.702801 
L 95.124589 416.44741 
L 94.010271 414.180764 
L 92.918675 411.903088 
L 91.84991 409.61461 
L 90.804082 407.315559 
L 89.781298 405.006164 
L 88.781657 402.686658 
L 87.805262 400.357271 
L 86.852209 398.018237 
L 85.922593 395.669789 
L 85.016508 393.312163 
L 84.134044 390.945595 
L 83.27529 388.570319 
L 82.44033 386.186576 
L 81.62925 383.794602 
L 81.016511 381.933382 
L 81.016511 381.933382 
Q 321.230193 303.883225 508.930452 134.877153 
L 508.930452 134.877153 
L 508.930452 134.877153 
L 510.6111 136.762574 
L 512.272809 138.664708 
L 513.915415 140.583363 
L 515.538752 142.518348 
L 517.142659 144.469469 
L 518.726974 146.436532 
L 520.29154 148.419339 
L 521.8362 150.417692 
L 523.3608 152.431392 
L 524.865186 154.460237 
L 526.34921 156.504024 
L 527.812721 158.562549 
L 529.255575 160.635606 
L 530.677626 162.722987 
L 532.078732 164.824485 
L 533.458754 166.939888 
L 534.817553 169.068985 
L 536.154994 171.211564 
L 537.470942 173.36741 
L 538.765267 175.536307 
L 540.037838 177.718039 
L 541.288529 179.912387 
L 542.517213 182.119132 
L 543.72377 184.338053 
L 544.908077 186.568929 
L 546.070017 188.811537 
L 547.209472 191.065651 
L 548.326331 193.331047 
L 549.420479 195.607498 
L 550.491809 197.894777 
L 551.540213 200.192654 
L 552.565586 202.5009 
L 553.567826 204.819285 
L 554.546832 207.147575 
L 555.502506 209.48554 
L 556.434754 211.832944 
L 557.343481 214.189552 
L 558.228597 216.555131 
L 559.090014 218.929442 
L 559.927645 221.312248 
L 560.741406 223.703311 
L 561.531216 226.102392 
L 562.296997 228.509251 
L 563.038671 230.923648 
L 563.756164 233.34534 
L 564.449405 235.774087 
L 565.118324 238.209644 
L 565.762855 240.651768 
L 566.382932 243.100215 
L 566.978495 245.554741 
L 567.549482 248.015099 
L 568.095838 250.481045 
L 568.617508 252.95233 
L 569.114439 255.428708 
L 569.586582 257.909932 
L 570.03389 260.395753 
L 570.456317 262.885923 
L 570.853822 265.380193 
L 571.226365 267.878313 
L 571.573909 270.380033 
L 571.896418 272.885104 
L 572.193861 275.393274 
L 572.466207 277.904293 
L 572.713431 280.41791 
L 572.935506 282.933874 
L 573.132411 285.451933 
L 573.304126 287.971835 
L 573.450633 290.493327 
L 573.571919 293.016159 
L 573.667971 295.540078 
L 573.738779 298.064831 
L 573.784337 300.590165 
L 573.804639 303.115829 
L 573.799684 305.64157 
L 573.769473 308.167135 
L 573.714008 310.692272 
L 573.633294 313.216727 
L 573.527341 315.740249 
L 573.396158 318.262586 
L 573.239758 320.783485 
L 573.058158 323.302693 
L 572.851375 325.81996 
L 572.619431 328.335033 
L 572.422169 330.284566 
L 572.422169 330.284566 
Q 321.230193 303.883225 218.498436 534.622528 
z
" clip-path="url(#p5bf8571570)" style="fill: #800000; fill-opacity: 0.5; stroke: #808080; stroke-opacity: 0.5; stroke-width: 0.1"/>
    <path d="M 81.016511 381.933382 
L 81.016511 381.933382 
L 80.248033 379.527382 
L 79.503653 377.113819 
L 78.783445 374.692932 
L 78.087482 372.264965 
L 77.415833 369.830159 
L 76.768566 367.388759 
L 76.145744 364.941008 
L 75.54743 362.487152 
L 74.973685 360.027435 
L 74.424565 357.562103 
L 73.900125 355.091404 
L 73.400418 352.615585 
L 72.925494 350.134892 
L 72.4754 347.649573 
L 72.050182 345.159879 
L 71.649881 342.666056 
L 71.274538 340.168356 
L 70.924191 337.667026 
L 70.598873 335.162319 
L 70.298619 332.654484 
L 70.038216 330.284566 
L 70.038216 330.284566 
Q 321.230193 303.883225 321.230193 51.307613 
L 321.230193 51.307613 
L 321.230193 51.307613 
L 323.755907 51.320242 
L 326.281368 51.358126 
L 328.806325 51.421263 
L 331.330523 51.509646 
L 333.853712 51.623267 
L 336.375638 51.762113 
L 338.89605 51.92617 
L 341.414696 52.115424 
L 343.931322 52.329854 
L 346.445679 52.569439 
L 348.957514 52.834155 
L 351.466577 53.123976 
L 353.972616 53.438873 
L 356.47538 53.778814 
L 358.974621 54.143765 
L 361.470086 54.53369 
L 363.961528 54.948549 
L 366.448697 55.388302 
L 368.931344 55.852904 
L 371.409221 56.342309 
L 373.743615 56.826996 
L 373.743615 56.826996 
Q 321.230193 303.883225 81.016511 381.933382 
z
" clip-path="url(#p5bf8571570)" style="fill: #800000; fill-opacity: 0.5; stroke: #808080; stroke-opacity: 0.5; stroke-width: 0.1"/>
    <path d="M 572.422169 330.284566 
L 572.422169 330.284566 
L 572.145601 332.795124 
L 571.843941 335.30279 
L 571.51722 337.807315 
L 571.165471 340.308447 
L 570.788728 342.805937 
L 570.387029 345.299535 
L 569.960415 347.788991 
L 569.508929 350.274056 
L 569.032614 352.754483 
L 568.53152 355.230022 
L 568.005695 357.700427 
L 567.455194 360.16545 
L 566.88007 362.624845 
L 566.280381 365.078366 
L 565.656187 367.525767 
L 565.007551 369.966804 
L 564.334538 372.401233 
L 563.637214 374.82881 
L 562.91565 377.249293 
L 562.169917 379.662439 
L 561.400091 382.068007 
L 560.606247 384.465757 
L 559.788467 386.855448 
L 558.946831 389.236842 
L 558.081423 391.609702 
L 557.19233 393.973788 
L 556.279642 396.328866 
L 555.343448 398.674699 
L 554.383844 401.011053 
L 553.400924 403.337694 
L 552.394788 405.65439 
L 551.365535 407.960909 
L 550.313269 410.25702 
L 549.238094 412.542494 
L 548.14012 414.817102 
L 547.019454 417.080617 
L 545.876209 419.332812 
L 544.710501 421.573462 
L 543.522444 423.802344 
L 542.312158 426.019233 
L 541.079764 428.223909 
L 539.825386 430.416151 
L 538.549148 432.59574 
L 537.251179 434.762458 
L 535.931607 436.916088 
L 534.590566 439.056415 
L 533.228188 441.183224 
L 531.844611 443.296304 
L 530.439973 445.395443 
L 529.014414 447.48043 
L 527.568077 449.551058 
L 526.101106 451.607119 
L 524.613648 453.648408 
L 523.105852 455.67472 
L 521.577869 457.685854 
L 520.029851 459.681607 
L 518.461953 461.661781 
L 516.874333 463.626176 
L 515.267148 465.574598 
L 513.640559 467.506851 
L 511.99473 469.422741 
L 510.329824 471.322078 
L 508.646008 473.204671 
L 506.943451 475.070332 
L 505.222323 476.918874 
L 503.482796 478.750113 
L 501.725044 480.563866 
L 499.949242 482.35995 
L 498.155569 484.138187 
L 496.344203 485.898399 
L 494.515326 487.640409 
L 492.669121 489.364043 
L 490.805771 491.06913 
L 488.925465 492.755498 
L 487.028389 494.42298 
L 485.114733 496.071407 
L 483.184689 497.700616 
L 481.23845 499.310443 
L 479.27621 500.900728 
L 477.298166 502.471311 
L 475.304515 504.022035 
L 473.295456 505.552746 
L 471.271191 507.06329 
L 469.231923 508.553516 
L 467.177854 510.023275 
L 465.10919 511.47242 
L 463.026139 512.900807 
L 460.928908 514.308292 
L 458.817708 515.694735 
L 456.692749 517.059996 
L 454.554244 518.403941 
L 452.402406 519.726433 
L 450.237451 521.027341 
L 448.059596 522.306535 
L 445.869058 523.563887 
L 443.666056 524.799271 
L 441.450811 526.012563 
L 439.223543 527.203643 
L 436.984477 528.372391 
L 434.733835 529.51869 
L 432.471843 530.642426 
L 430.198726 531.743486 
L 427.914713 532.821761 
L 425.620032 533.877141 
L 423.314912 534.909523 
L 420.999583 535.918801 
L 418.674278 536.904877 
L 416.339228 537.867651 
L 413.994667 538.807026 
L 411.64083 539.722909 
L 409.277952 540.615209 
L 406.906269 541.483835 
L 404.526019 542.328702 
L 402.137439 543.149724 
L 399.740769 543.94682 
L 397.336247 544.719909 
L 394.924115 545.468915 
L 392.504614 546.193763 
L 390.077985 546.89438 
L 387.644472 547.570696 
L 385.204317 548.222643 
L 382.757765 548.850157 
L 380.30506 549.453174 
L 377.846448 550.031635 
L 375.382174 550.585481 
L 372.912485 551.114656 
L 370.437628 551.619109 
L 367.95785 552.098789 
L 365.473399 552.553647 
L 362.984524 552.983638 
L 360.491474 553.38872 
L 357.994498 553.768851 
L 355.493845 554.123993 
L 352.989766 554.454112 
L 350.482511 554.759174 
L 347.97233 555.039149 
L 345.459476 555.294008 
L 342.944199 555.523726 
L 340.42675 555.728281 
L 337.907381 555.907651 
L 335.386345 556.061819 
L 332.863894 556.19077 
L 330.340278 556.294489 
L 327.815752 556.372968 
L 325.290568 556.426198 
L 322.764977 556.454174 
L 321.230193 556.458837 
L 321.230193 556.458837 
Q 321.230193 303.883225 70.038216 330.284566 
L 70.038216 330.284566 
L 70.038216 330.284566 
L 69.786767 327.771368 
L 69.560461 325.255781 
L 69.359323 322.738057 
L 69.183371 320.218448 
L 69.032624 317.697205 
L 68.907096 315.17458 
L 68.8068 312.650827 
L 68.731747 310.126197 
L 68.681943 307.600942 
L 68.657394 305.075316 
L 68.658101 302.54957 
L 68.684066 300.023958 
L 68.735286 297.498732 
L 68.811754 294.974144 
L 68.913464 292.450447 
L 69.040406 289.927894 
L 69.192566 287.406736 
L 69.36993 284.887225 
L 69.57248 282.369614 
L 69.800195 279.854155 
L 70.053053 277.341098 
L 70.331029 274.830696 
L 70.634094 272.323199 
L 70.962219 269.818857 
L 71.31537 267.317922 
L 71.693513 264.820644 
L 72.096609 262.327272 
L 72.524618 259.838056 
L 72.977497 257.353243 
L 73.455202 254.873084 
L 73.957684 252.397826 
L 74.484893 249.927717 
L 75.036776 247.463002 
L 75.613279 245.00393 
L 76.214342 242.550746 
L 76.839908 240.103695 
L 77.489912 237.663022 
L 78.16429 235.228971 
L 78.862974 232.801785 
L 79.585895 230.381707 
L 80.33298 227.968979 
L 81.104154 225.563843 
L 81.899341 223.166539 
L 82.718461 220.777306 
L 83.561432 218.396384 
L 84.42817 216.02401 
L 85.318587 213.660422 
L 86.232596 211.305856 
L 87.170104 208.960548 
L 88.131017 206.624733 
L 89.115241 204.298643 
L 90.122676 201.982511 
L 91.153221 199.676569 
L 92.206774 197.381048 
L 93.283229 195.096177 
L 94.382479 192.822185 
L 95.504413 190.559299 
L 96.64892 188.307745 
L 97.815884 186.067748 
L 99.00519 183.839533 
L 100.216718 181.623322 
L 101.450347 179.419337 
L 102.705954 177.227798 
L 103.983414 175.048925 
L 105.282597 172.882935 
L 106.603376 170.730045 
L 107.945617 168.59047 
L 109.309186 166.464425 
L 110.693947 164.352121 
L 112.099761 162.25377 
L 113.526489 160.169582 
L 114.973986 158.099765 
L 116.442109 156.044527 
L 117.930711 154.004072 
L 119.439642 151.978605 
L 120.968753 149.968328 
L 122.517889 147.973443 
L 124.086896 145.994148 
L 125.675618 144.030642 
L 127.283895 142.083122 
L 128.911566 140.151781 
L 130.558469 138.236813 
L 132.224439 136.33841 
L 133.90931 134.456761 
L 135.612912 132.592055 
L 137.335076 130.744478 
L 139.075629 128.914214 
L 140.834398 127.101447 
L 142.611206 125.306358 
L 144.405876 123.529127 
L 146.218228 121.769931 
L 148.048081 120.028946 
L 149.895252 118.306346 
L 151.759556 116.602304 
L 153.640808 114.91699 
L 155.538818 113.250572 
L 157.453397 111.603218 
L 159.384354 109.975091 
L 161.331495 108.366355 
L 163.294626 106.77717 
L 165.273551 105.207696 
L 167.268071 103.65809 
L 169.277987 102.128505 
L 171.303098 100.619096 
L 173.343202 99.130013 
L 175.398094 97.661406 
L 177.467569 96.21342 
L 179.551421 94.786201 
L 181.64944 93.379892 
L 183.761417 91.994632 
L 185.887141 90.630562 
L 188.0264 89.287817 
L 190.178978 87.966531 
L 192.344661 86.666836 
L 194.523233 85.388863 
L 196.714476 84.132739 
L 198.91817 82.89859 
L 201.134095 81.686539 
L 203.362029 80.496708 
L 205.601751 79.329215 
L 207.853035 78.184178 
L 210.115657 77.06171 
L 212.38939 75.961924 
L 214.674007 74.88493 
L 216.969279 73.830836 
L 219.274978 72.799747 
L 221.590872 71.791766 
L 223.916729 70.806993 
L 226.252319 69.845529 
L 228.597405 68.907468 
L 230.951755 67.992904 
L 233.315133 67.101929 
L 235.687302 66.234632 
L 238.068026 65.3911 
L 240.457065 64.571416 
L 242.854182 63.775664 
L 245.259137 63.003922 
L 247.671688 62.256268 
L 250.091595 61.532777 
L 252.518616 60.83352 
L 254.952508 60.158568 
L 257.393028 59.507988 
L 259.839932 58.881846 
L 262.292974 58.280204 
L 264.75191 57.703121 
L 267.216494 57.150657 
L 268.71677 56.826996 
L 268.71677 56.826996 
Q 321.230193 303.883225 572.422169 330.284566 
z
" clip-path="url(#p5bf8571570)" style="fill: #7dff7a; fill-opacity: 0.5; stroke: #808080; stroke-opacity: 0.5; stroke-width: 0.1"/>
    <path d="M 373.743615 56.826996 
L 373.743615 56.826996 
L 376.211511 57.364474 
L 378.673908 57.926604 
L 381.130561 58.513329 
L 383.581224 59.124591 
L 386.025652 59.760329 
L 388.463601 60.420479 
L 390.894826 61.104975 
L 393.319085 61.813748 
L 395.736135 62.546729 
L 398.145734 63.303842 
L 400.547642 64.085014 
L 402.941619 64.890165 
L 405.327424 65.719215 
L 407.70482 66.572082 
L 410.073568 67.448679 
L 412.433432 68.34892 
L 414.784175 69.272713 
L 417.125564 70.219968 
L 419.457363 71.190589 
L 421.779339 72.184479 
L 423.961949 73.143922 
L 423.961949 73.143922 
Q 321.230193 303.883225 268.71677 56.826996 
L 268.71677 56.826996 
L 268.71677 56.826996 
L 271.189917 56.314223 
L 273.668068 55.826207 
L 276.150975 55.362997 
L 278.638389 54.924638 
L 281.130063 54.511175 
L 283.625747 54.122649 
L 286.125192 53.759098 
L 288.628146 53.42056 
L 291.134361 53.107068 
L 293.643586 52.818654 
L 296.155569 52.555345 
L 298.67006 52.31717 
L 301.186806 52.10415 
L 303.705557 51.916309 
L 306.226061 51.753663 
L 308.748065 51.616231 
L 311.271317 51.504025 
L 313.795564 51.417057 
L 316.320556 51.355335 
L 318.846038 51.318866 
L 321.230193 51.307613 
L 321.230193 51.307613 
Q 321.230193 303.883225 373.743615 56.826996 
z
" clip-path="url(#p5bf8571570)" style="fill: #000080; fill-opacity: 0.5; stroke: #808080; stroke-opacity: 0.5; stroke-width: 0.1"/>
    <path d="M 423.961949 73.143922 
L 423.961949 73.143922 
L 426.264167 74.182759 
L 428.555882 75.244566 
L 430.836864 76.329237 
L 433.106886 77.436663 
L 435.36572 78.566734 
L 437.613141 79.719336 
L 439.848923 80.894354 
L 442.072844 82.091671 
L 444.28468 83.311167 
L 446.484212 84.55272 
L 448.671217 85.816205 
L 450.845479 87.101498 
L 453.00678 88.408468 
L 455.154903 89.736985 
L 457.289633 91.086917 
L 459.410758 92.458129 
L 461.518065 93.850483 
L 463.611343 95.263839 
L 465.690383 96.698058 
L 467.754977 98.152995 
L 469.804919 99.628505 
L 471.840003 101.12444 
L 473.860027 102.640651 
L 475.864788 104.176986 
L 477.854085 105.733291 
L 479.82772 107.309412 
L 481.785496 108.905189 
L 483.727216 110.520464 
L 485.652687 112.155075 
L 487.561715 113.808859 
L 489.454111 115.48165 
L 491.329684 117.173281 
L 493.188247 118.883583 
L 495.029615 120.612385 
L 496.853603 122.359514 
L 498.660029 124.124795 
L 500.448712 125.908052 
L 502.219473 127.709106 
L 503.972135 129.527777 
L 505.706524 131.363883 
L 507.422465 133.217242 
L 508.930452 134.877153 
L 508.930452 134.877153 
Q 321.230193 303.883225 321.230193 556.458837 
L 321.230193 556.458837 
L 321.230193 556.458837 
L 318.704479 556.446209 
L 316.179017 556.408324 
L 313.654061 556.345187 
L 311.129862 556.256804 
L 308.606673 556.143184 
L 306.084747 556.004338 
L 303.564335 555.84028 
L 301.04569 555.651026 
L 298.529063 555.436597 
L 296.014706 555.197011 
L 293.502871 554.932295 
L 290.993809 554.642474 
L 288.48777 554.327578 
L 285.985005 553.987637 
L 283.485765 553.622686 
L 280.990299 553.232761 
L 278.498857 552.817901 
L 276.011689 552.378148 
L 273.529042 551.913546 
L 271.051165 551.424141 
L 268.578306 550.909982 
L 266.110712 550.371121 
L 263.64863 549.807611 
L 261.192306 549.219509 
L 258.741986 548.606873 
L 256.297915 547.969766 
L 253.860337 547.308249 
L 251.429496 546.622391 
L 249.005634 545.912259 
L 246.588996 545.177924 
L 244.179821 544.41946 
L 241.778351 543.636942 
L 239.384826 542.830449 
L 236.999486 542.000062 
L 234.622569 541.145863 
L 232.254313 540.267938 
L 229.894954 539.366375 
L 227.544728 538.441264 
L 225.203871 537.492697 
L 222.872617 536.52077 
L 220.551198 535.525579 
L 218.498436 534.622528 
L 218.498436 534.622528 
Q 321.230193 303.883225 423.961949 73.143922 
z
" clip-path="url(#p5bf8571570)" style="fill: #000080; fill-opacity: 0.5; stroke: #808080; stroke-opacity: 0.5; stroke-width: 0.1"/>
   </g>
   <g id="patch_5">
    <path d="M 321.230193 51.307613 
L 323.755907 51.320242 
L 326.281368 51.358126 
L 328.806325 51.421263 
L 331.330523 51.509646 
L 333.853712 51.623267 
L 336.375638 51.762113 
L 338.89605 51.92617 
L 341.414696 52.115424 
L 343.931322 52.329854 
L 346.445679 52.569439 
L 348.957514 52.834155 
L 351.466577 53.123976 
L 353.972616 53.438873 
L 356.47538 53.778814 
L 358.974621 54.143765 
L 361.470086 54.53369 
L 363.961528 54.948549 
L 366.448697 55.388302 
L 368.931344 55.852904 
L 371.409221 56.342309 
L 373.88208 56.856468 
L 376.349673 57.395329 
L 378.811755 57.958839 
L 381.268079 58.546941 
L 383.718399 59.159577 
L 386.162471 59.796685 
L 388.600049 60.458201 
L 391.03089 61.144059 
L 393.454751 61.854192 
L 395.87139 62.588526 
L 398.280565 63.346991 
L 400.682034 64.129508 
L 403.075559 64.936001 
L 405.460899 65.766388 
L 407.837816 66.620587 
L 410.206073 67.498512 
L 412.565432 68.400075 
L 414.915657 69.325186 
L 417.256515 70.273753 
L 419.587769 71.245681 
L 421.909188 72.240872 
L 424.220539 73.259227 
L 426.521591 74.300644 
L 428.812114 75.36502 
L 431.091879 76.452247 
L 433.360658 77.562217 
L 435.618224 78.694819 
L 437.864351 79.849939 
L 440.098815 81.027463 
L 442.321392 82.227272 
L 444.53186 83.449247 
L 446.729998 84.693264 
L 448.915586 85.959201 
L 451.088406 87.24693 
L 453.24824 88.556322 
L 455.394872 89.887247 
L 457.528088 91.239571 
L 459.647674 92.613159 
L 461.753419 94.007874 
L 463.845111 95.423577 
L 465.922542 96.860125 
L 467.985504 98.317376 
L 470.033791 99.795182 
L 472.067197 101.293398 
L 474.08552 102.811872 
L 476.088557 104.350454 
L 478.076109 105.908988 
L 480.047976 107.48732 
L 482.003961 109.085291 
L 483.94387 110.702741 
L 485.867507 112.33951 
L 487.77468 113.995433 
L 489.665199 115.670344 
L 491.538875 117.364077 
L 493.39552 119.076461 
L 495.234949 120.807326 
L 497.056977 122.556498 
L 498.861423 124.323803 
L 500.648105 126.109064 
L 502.416847 127.912101 
L 504.167469 129.732736 
L 505.899798 131.570786 
L 507.613661 133.426067 
L 508.930452 134.877153 
L 510.826414 133.170021 
L 509.496322 131.704277 
L 507.765148 129.830256 
L 506.015321 127.97364 
L 504.247015 126.134615 
L 502.460408 124.313365 
L 500.655678 122.510071 
L 498.833005 120.724915 
L 496.992572 118.958074 
L 495.134564 117.209726 
L 493.259165 115.480045 
L 491.366563 113.769204 
L 489.456948 112.077374 
L 487.53051 110.404725 
L 485.587442 108.751423 
L 483.627939 107.117635 
L 481.652196 105.503523 
L 479.660411 103.909248 
L 477.652783 102.334971 
L 475.629513 100.780849 
L 473.590803 99.247036 
L 471.536857 97.733687 
L 469.467881 96.240953 
L 467.384081 94.768983 
L 465.285666 93.317924 
L 463.172845 91.887921 
L 461.045831 90.479118 
L 458.904834 89.091655 
L 456.750071 87.725671 
L 454.581755 86.381303 
L 452.400105 85.058684 
L 450.205337 83.757948 
L 447.997673 82.479224 
L 445.777331 81.222641 
L 443.544535 79.988323 
L 441.299508 78.776395 
L 439.042474 77.586977 
L 436.773658 76.420189 
L 434.493289 75.276146 
L 432.201593 74.154964 
L 429.8988 73.056755 
L 427.58514 71.981628 
L 425.260845 70.929692 
L 422.926147 69.90105 
L 420.58128 68.895806 
L 418.226477 67.914061 
L 415.861975 66.955913 
L 413.48801 66.021457 
L 411.104819 65.110787 
L 408.712641 64.223995 
L 406.311714 63.361168 
L 403.90228 62.522393 
L 401.484578 61.707754 
L 399.058851 60.917332 
L 396.625341 60.151206 
L 394.184292 59.409454 
L 391.735947 58.692149 
L 389.280552 57.999362 
L 386.818352 57.331164 
L 384.349593 56.687621 
L 381.874522 56.068797 
L 379.393387 55.474755 
L 376.906436 54.905553 
L 374.413917 54.361248 
L 371.91608 53.841896 
L 369.413174 53.347547 
L 366.905449 52.878252 
L 364.393158 52.434058 
L 361.87655 52.015007 
L 359.355877 51.621144 
L 356.831392 51.252506 
L 354.303347 50.909132 
L 351.771995 50.591054 
L 349.237588 50.298306 
L 346.700381 50.030916 
L 344.160627 49.788911 
L 341.618579 49.572315 
L 339.074493 49.38115 
L 336.528623 49.215435 
L 333.981222 49.075186 
L 331.432547 48.960418 
L 328.882851 48.871143 
L 326.33239 48.807368 
L 323.781419 48.7691 
L 321.230193 48.756344 
L 321.230193 51.307613 
z
" clip-path="url(#p5bf8571570)" style="fill: none; stroke: #000000; stroke-width: 0.5; stroke-linejoin: miter"/>
   </g>
   <g id="patch_6">
    <path d="M 508.930452 134.877153 
L 510.6111 136.762574 
L 512.272809 138.664708 
L 513.915415 140.583363 
L 515.538752 142.518348 
L 517.142659 144.469469 
L 518.726974 146.436532 
L 520.29154 148.419339 
L 521.8362 150.417692 
L 523.3608 152.431392 
L 524.865186 154.460237 
L 526.34921 156.504024 
L 527.812721 158.562549 
L 529.255575 160.635606 
L 530.677626 162.722987 
L 532.078732 164.824485 
L 533.458754 166.939888 
L 534.817553 169.068985 
L 536.154994 171.211564 
L 537.470942 173.36741 
L 538.765267 175.536307 
L 540.037838 177.718039 
L 541.288529 179.912387 
L 542.517213 182.119132 
L 543.72377 184.338053 
L 544.908077 186.568929 
L 546.070017 188.811537 
L 547.209472 191.065651 
L 548.326331 193.331047 
L 549.420479 195.607498 
L 550.491809 197.894777 
L 551.540213 200.192654 
L 552.565586 202.5009 
L 553.567826 204.819285 
L 554.546832 207.147575 
L 555.502506 209.48554 
L 556.434754 211.832944 
L 557.343481 214.189552 
L 558.228597 216.555131 
L 559.090014 218.929442 
L 559.927645 221.312248 
L 560.741406 223.703311 
L 561.531216 226.102392 
L 562.296997 228.509251 
L 563.038671 230.923648 
L 563.756164 233.34534 
L 564.449405 235.774087 
L 565.118324 238.209644 
L 565.762855 240.651768 
L 566.382932 243.100215 
L 566.978495 245.554741 
L 567.549482 248.015099 
L 568.095838 250.481045 
L 568.617508 252.95233 
L 569.114439 255.428708 
L 569.586582 257.909932 
L 570.03389 260.395753 
L 570.456317 262.885923 
L 570.853822 265.380193 
L 571.226365 267.878313 
L 571.573909 270.380033 
L 571.896418 272.885104 
L 572.193861 275.393274 
L 572.466207 277.904293 
L 572.713431 280.41791 
L 572.935506 282.933874 
L 573.132411 285.451933 
L 573.304126 287.971835 
L 573.450633 290.493327 
L 573.571919 293.016159 
L 573.667971 295.540078 
L 573.738779 298.064831 
L 573.784337 300.590165 
L 573.804639 303.115829 
L 573.799684 305.64157 
L 573.769473 308.167135 
L 573.714008 310.692272 
L 573.633294 313.216727 
L 573.527341 315.740249 
L 573.396158 318.262586 
L 573.239758 320.783485 
L 573.058158 323.302693 
L 572.851375 325.81996 
L 572.619431 328.335033 
L 572.362347 330.847661 
L 572.080151 333.357593 
L 571.77287 335.864577 
L 571.440535 338.368363 
L 571.083179 340.8687 
L 570.700838 343.365339 
L 570.29355 345.85803 
L 569.861355 348.346523 
L 569.404298 350.83057 
L 568.922424 353.309923 
L 568.415781 355.784332 
L 567.884419 358.253552 
L 567.328393 360.717335 
L 566.747756 363.175434 
L 566.142568 365.627604 
L 565.512889 368.0736 
L 564.858782 370.513176 
L 564.180312 372.94609 
L 563.477548 375.372098 
L 562.750559 377.790957 
L 561.999418 380.202425 
L 561.2242 382.606261 
L 560.424983 385.002225 
L 559.601847 387.390077 
L 558.754874 389.769578 
L 557.884149 392.140491 
L 556.989758 394.502579 
L 556.071792 396.855604 
L 555.130342 399.199332 
L 554.165502 401.533529 
L 553.177368 403.857961 
L 552.16604 406.172395 
L 551.131619 408.476601 
L 550.074207 410.770347 
L 548.993912 413.053405 
L 547.89084 415.325546 
L 546.765103 417.586542 
L 545.616812 419.836169 
L 544.446082 422.0742 
L 543.253032 424.300412 
L 542.037779 426.514583 
L 540.800445 428.71649 
L 539.541155 430.905915 
L 538.260034 433.082637 
L 536.95721 435.246439 
L 535.632814 437.397105 
L 534.286977 439.53442 
L 532.919835 441.65817 
L 531.531524 443.768142 
L 530.122183 445.864126 
L 528.691953 447.945912 
L 527.240977 450.013292 
L 525.769401 452.066059 
L 524.27737 454.104008 
L 522.765035 456.126935 
L 521.232547 458.134638 
L 519.680058 460.126916 
L 518.107725 462.103569 
L 516.515704 464.064401 
L 514.904155 466.009214 
L 513.273238 467.937815 
L 511.623118 469.850011 
L 509.953958 471.74561 
L 508.265926 473.624424 
L 506.559191 475.486263 
L 504.833922 477.330942 
L 503.090294 479.158276 
L 501.32848 480.968083 
L 499.548656 482.760182 
L 497.751 484.534393 
L 495.935693 486.290539 
L 494.102915 488.028445 
L 492.25285 489.747936 
L 490.385683 491.448841 
L 488.5016 493.130989 
L 486.60079 494.794213 
L 484.683444 496.438346 
L 482.749752 498.063224 
L 480.799909 499.668684 
L 478.834108 501.254565 
L 476.852548 502.820709 
L 474.855425 504.36696 
L 472.84294 505.893163 
L 470.815293 507.399165 
L 468.772689 508.884815 
L 466.71533 510.349965 
L 464.643423 511.794469 
L 462.557174 513.218182 
L 460.456793 514.620962 
L 458.34249 516.002668 
L 456.214475 517.363162 
L 454.072962 518.702308 
L 451.918165 520.019973 
L 449.750299 521.316024 
L 447.569582 522.590332 
L 445.37623 523.84277 
L 443.170464 525.073212 
L 440.952504 526.281535 
L 438.722572 527.467618 
L 436.480891 528.631343 
L 434.227685 529.772594 
L 431.963179 530.891255 
L 429.6876 531.987216 
L 427.401175 533.060367 
L 425.104133 534.110601 
L 422.796704 535.137811 
L 420.479119 536.141897 
L 418.151608 537.122757 
L 415.814406 538.080293 
L 413.467745 539.01441 
L 411.11186 539.925013 
L 408.746988 540.812013 
L 406.373364 541.67532 
L 403.991225 542.514848 
L 401.600811 543.330513 
L 399.202359 544.122234 
L 396.796111 544.88993 
L 394.382305 545.633527 
L 391.961185 546.352948 
L 389.532992 547.048123 
L 387.097968 547.718982 
L 384.656358 548.365457 
L 382.208405 548.987484 
L 379.754354 549.585001 
L 377.294451 550.157947 
L 374.828942 550.706267 
L 372.358073 551.229905 
L 369.882091 551.728808 
L 367.401244 552.202926 
L 364.91578 552.652213 
L 362.425947 553.076623 
L 359.931995 553.476115 
L 357.434172 553.850647 
L 354.93273 554.200182 
L 352.427917 554.524686 
L 349.919984 554.824126 
L 347.409182 555.098472 
L 344.895763 555.347697 
L 342.379977 555.571776 
L 339.862076 555.770686 
L 337.342312 555.944407 
L 334.820936 556.092923 
L 332.298202 556.216218 
L 329.77436 556.314279 
L 327.249665 556.387098 
L 324.724367 556.434667 
L 322.19872 556.45698 
L 319.672976 556.454037 
L 317.147388 556.425837 
L 314.622208 556.372382 
L 312.097689 556.293679 
L 309.574083 556.189735 
L 307.051643 556.060561 
L 304.53062 555.906169 
L 302.011268 555.726575 
L 299.493837 555.521797 
L 296.97858 555.291855 
L 294.465749 555.036773 
L 291.955593 554.756575 
L 289.448365 554.451291 
L 286.944315 554.120949 
L 284.443694 553.765584 
L 281.946752 553.385232 
L 279.453737 552.979929 
L 276.964901 552.549716 
L 274.48049 552.094638 
L 272.000755 551.614738 
L 269.525943 551.110065 
L 267.056301 550.58067 
L 264.592076 550.026605 
L 262.133515 549.447927 
L 259.680864 548.844692 
L 257.234367 548.216961 
L 254.794271 547.564796 
L 252.360817 546.888264 
L 249.934251 546.187432 
L 247.514814 545.462369 
L 245.102748 544.713149 
L 242.698296 543.939846 
L 240.301696 543.142537 
L 237.913189 542.321303 
L 235.533014 541.476225 
L 233.161408 540.607388 
L 230.79861 539.714878 
L 228.444854 538.798786 
L 226.100377 537.859203 
L 223.765412 536.896222 
L 221.440194 535.909939 
L 219.124955 534.900455 
L 218.498436 534.622528 
L 217.460742 536.953229 
L 218.093589 537.233962 
L 220.432215 538.253644 
L 222.78092 539.249888 
L 225.139469 540.222596 
L 227.507628 541.171671 
L 229.885159 542.097016 
L 232.271825 542.998541 
L 234.667386 543.876154 
L 237.071603 544.729768 
L 239.484236 545.559298 
L 241.905044 546.36466 
L 244.333784 547.145774 
L 246.770214 547.902563 
L 249.21409 548.634949 
L 251.665167 549.342861 
L 254.123201 550.026226 
L 256.587945 550.684978 
L 259.059153 551.31905 
L 261.536579 551.928378 
L 264.019974 552.512902 
L 266.50909 553.072563 
L 269.003677 553.607306 
L 271.503488 554.117076 
L 274.008271 554.601824 
L 276.517776 555.061499 
L 279.031753 555.496057 
L 281.549949 555.905454 
L 284.072113 556.289649 
L 286.597993 556.648603 
L 289.127337 556.982281 
L 291.65989 557.290649 
L 294.195401 557.573677 
L 296.733615 557.831336 
L 299.274278 558.063601 
L 301.817137 558.270447 
L 304.361938 558.451855 
L 306.908425 558.607807 
L 309.456345 558.738286 
L 312.005441 558.84328 
L 314.555461 558.922778 
L 317.106148 558.976772 
L 319.657247 559.005257 
L 322.208503 559.008231 
L 324.759662 558.985691 
L 327.310467 558.937642 
L 329.860665 558.864088 
L 332.41 558.765036 
L 334.958216 558.640496 
L 337.50506 558.49048 
L 340.050277 558.315004 
L 342.593611 558.114084 
L 345.134809 557.887742 
L 347.673617 557.636 
L 350.20978 557.358883 
L 352.743045 557.056418 
L 355.273159 556.728636 
L 357.799869 556.37557 
L 360.322922 555.997255 
L 362.842066 555.593728 
L 365.357048 555.165031 
L 367.867618 554.711206 
L 370.373524 554.232298 
L 372.874516 553.728356 
L 375.370344 553.199429 
L 377.860757 552.645571 
L 380.345508 552.066837 
L 382.824347 551.463284 
L 385.297026 550.834974 
L 387.763299 550.181969 
L 390.222919 549.504334 
L 392.67564 548.802137 
L 395.121216 548.075449 
L 397.559403 547.324342 
L 399.989957 546.54889 
L 402.412635 545.749173 
L 404.827195 544.925268 
L 407.233396 544.07726 
L 409.630996 543.205233 
L 412.019756 542.309274 
L 414.399437 541.389472 
L 416.769802 540.44592 
L 419.130612 539.478712 
L 421.481633 538.487944 
L 423.822629 537.473716 
L 426.153365 536.43613 
L 428.473609 535.375288 
L 430.783129 534.291297 
L 433.081694 533.184266 
L 435.369073 532.054304 
L 437.645039 530.901526 
L 439.909364 529.726046 
L 442.16182 528.527982 
L 444.402184 527.307454 
L 446.630231 526.064584 
L 448.845737 524.799495 
L 451.048482 523.512315 
L 453.238246 522.203173 
L 455.414808 520.872198 
L 457.577953 519.519525 
L 459.727463 518.145288 
L 461.863123 516.749626 
L 463.98472 515.332677 
L 466.092041 513.894583 
L 468.184877 512.435488 
L 470.263017 510.955538 
L 472.326254 509.454881 
L 474.374382 507.933667 
L 476.407195 506.392048 
L 478.424491 504.830179 
L 480.426067 503.248215 
L 482.411724 501.646314 
L 484.381263 500.024638 
L 486.334487 498.383347 
L 488.2712 496.722607 
L 490.19121 495.042583 
L 492.094324 493.343443 
L 493.980351 491.625357 
L 495.849104 489.888498 
L 497.700395 488.133037 
L 499.534039 486.359152 
L 501.349852 484.56702 
L 503.147654 482.756819 
L 504.927265 480.928731 
L 506.688505 479.082939 
L 508.431201 477.219627 
L 510.155176 475.338981 
L 511.860259 473.44119 
L 513.546279 471.526443 
L 515.213067 469.594933 
L 516.860457 467.646851 
L 518.488285 465.682392 
L 520.096387 463.701754 
L 521.684602 461.705135 
L 523.252772 459.692733 
L 524.800741 457.664751 
L 526.328352 455.62139 
L 527.835453 453.562856 
L 529.321894 451.489354 
L 530.787527 449.401091 
L 532.232203 447.298277 
L 533.65578 445.181121 
L 535.058114 443.049836 
L 536.439066 440.904634 
L 537.798497 438.74573 
L 539.136271 436.57334 
L 540.452255 434.387681 
L 541.746316 432.188972 
L 543.018327 429.977432 
L 544.268159 427.753283 
L 545.495687 425.516747 
L 546.700788 423.268048 
L 547.883343 421.007411 
L 549.043233 418.735061 
L 550.180342 416.451226 
L 551.294556 414.156134 
L 552.385763 411.850015 
L 553.453855 409.5331 
L 554.498725 407.205619 
L 555.520269 404.867807 
L 556.518383 402.519896 
L 557.492969 400.162121 
L 558.443929 397.794719 
L 559.371168 395.417926 
L 560.274593 393.031979 
L 561.154113 390.637117 
L 562.009642 388.233581 
L 562.841092 385.821609 
L 563.648382 383.401443 
L 564.43143 380.973326 
L 565.190158 378.537499 
L 565.924491 376.094208 
L 566.634354 373.643695 
L 567.319677 371.186206 
L 567.980391 368.721987 
L 568.616431 366.251285 
L 569.227732 363.774345 
L 569.814233 361.291416 
L 570.375876 358.802747 
L 570.912605 356.308586 
L 571.424366 353.809182 
L 571.911108 351.304786 
L 572.372781 348.795647 
L 572.809341 346.282018 
L 573.220743 343.764148 
L 573.606946 341.242291 
L 573.967912 338.716697 
L 574.303604 336.187621 
L 574.613989 333.655313 
L 574.899036 331.120029 
L 575.158716 328.582021 
L 575.393004 326.041543 
L 575.601875 323.49885 
L 575.78531 320.954194 
L 575.943289 318.407832 
L 576.075797 315.860017 
L 576.182821 313.311005 
L 576.264349 310.76105 
L 576.320375 308.210407 
L 576.350891 305.659331 
L 576.355896 303.108078 
L 576.335389 300.556902 
L 576.289371 298.006059 
L 576.217847 295.455804 
L 576.120825 292.906391 
L 575.998314 290.358076 
L 575.850327 287.811113 
L 575.676878 285.265758 
L 575.477984 282.722265 
L 575.253665 280.180887 
L 575.003945 277.64188 
L 574.728847 275.105497 
L 574.4284 272.571991 
L 574.102633 270.041617 
L 573.751579 267.514627 
L 573.375273 264.991273 
L 572.973753 262.471809 
L 572.547059 259.956486 
L 572.095233 257.445556 
L 571.618321 254.939269 
L 571.11637 252.437877 
L 570.589431 249.941629 
L 570.037556 247.450775 
L 569.460801 244.965564 
L 568.859222 242.486245 
L 568.232882 240.013066 
L 567.581841 237.546274 
L 566.906165 235.086115 
L 566.205921 232.632836 
L 565.481181 230.186682 
L 564.732015 227.747898 
L 563.958499 225.316727 
L 563.160711 222.893413 
L 562.33873 220.478197 
L 561.492639 218.071323 
L 560.622521 215.673029 
L 559.728464 213.283556 
L 558.810558 210.903143 
L 557.868893 208.532028 
L 556.903565 206.170448 
L 555.91467 203.818639 
L 554.902307 201.476836 
L 553.866577 199.145274 
L 552.807583 196.824186 
L 551.725432 194.513804 
L 550.620231 192.214358 
L 549.492091 189.926079 
L 548.341126 187.649196 
L 547.16745 185.383936 
L 545.97118 183.130526 
L 544.752436 180.889192 
L 543.51134 178.660156 
L 542.248016 176.443643 
L 540.962591 174.239873 
L 539.655192 172.049068 
L 538.325952 169.871446 
L 536.975002 167.707225 
L 535.602477 165.556622 
L 534.208516 163.419851 
L 532.793256 161.297126 
L 531.356841 159.18866 
L 529.899413 157.094664 
L 528.421119 155.015345 
L 526.922105 152.950914 
L 525.402523 150.901576 
L 523.862523 148.867535 
L 522.302261 146.848997 
L 520.721891 144.846161 
L 519.121573 142.859229 
L 517.501465 140.8884 
L 515.86173 138.933869 
L 514.202533 136.995834 
L 512.524038 135.074487 
L 510.826414 133.170021 
L 508.930452 134.877153 
z
" clip-path="url(#p5bf8571570)" style="fill: none; stroke: #000000; stroke-width: 0.5; stroke-linejoin: miter"/>
   </g>
   <g id="patch_7">
    <path d="M 218.498436 534.622528 
L 216.196218 533.583691 
L 213.904503 532.521884 
L 211.623521 531.437213 
L 209.353499 530.329787 
L 207.094665 529.199717 
L 204.847245 528.047115 
L 202.611462 526.872096 
L 200.387542 525.67478 
L 198.175705 524.455284 
L 195.976174 523.213731 
L 193.789168 521.950245 
L 191.614906 520.664953 
L 189.453606 519.357983 
L 187.305483 518.029465 
L 185.170752 516.679533 
L 183.049628 515.308322 
L 180.942321 513.915968 
L 178.849043 512.502611 
L 176.770003 511.068392 
L 174.705409 509.613455 
L 172.655467 508.137945 
L 170.620382 506.64201 
L 168.600359 505.125799 
L 166.595598 503.589464 
L 164.6063 502.033159 
L 162.632665 500.457039 
L 160.67489 498.861261 
L 158.73317 497.245986 
L 156.807699 495.611375 
L 154.89867 493.957591 
L 153.006275 492.2848 
L 151.130702 490.593169 
L 149.272138 488.882867 
L 147.430771 487.154065 
L 145.606783 485.406936 
L 143.800357 483.641655 
L 142.011674 481.858399 
L 140.240913 480.057345 
L 138.48825 478.238674 
L 136.753862 476.402567 
L 135.037921 474.549208 
L 133.340599 472.678783 
L 131.662066 470.791479 
L 130.00249 468.887484 
L 128.362036 466.966989 
L 126.740869 465.030185 
L 125.13915 463.077267 
L 123.557041 461.10843 
L 121.994699 459.12387 
L 120.45228 457.123786 
L 118.929939 455.108379 
L 117.427827 453.077849 
L 115.946096 451.032399 
L 114.484893 448.972235 
L 113.044364 446.897562 
L 111.624654 444.808588 
L 110.225904 442.705521 
L 108.848254 440.588573 
L 107.491842 438.457953 
L 106.156804 436.313877 
L 104.843273 434.156557 
L 103.551381 431.986211 
L 102.281256 429.803054 
L 101.033026 427.607305 
L 99.806816 425.399184 
L 98.602748 423.178911 
L 97.420942 420.946709 
L 96.261517 418.702801 
L 95.124589 416.44741 
L 94.010271 414.180764 
L 92.918675 411.903088 
L 91.84991 409.61461 
L 90.804082 407.315559 
L 89.781298 405.006164 
L 88.781657 402.686658 
L 87.805262 400.357271 
L 86.852209 398.018237 
L 85.922593 395.669789 
L 85.016508 393.312163 
L 84.134044 390.945595 
L 83.27529 388.570319 
L 82.44033 386.186576 
L 81.62925 383.794602 
L 80.842129 381.394637 
L 80.079048 378.986921 
L 79.340081 376.571694 
L 78.625302 374.149199 
L 77.934784 371.719677 
L 77.268596 369.283372 
L 76.626803 366.840527 
L 76.009471 364.391386 
L 75.41666 361.936194 
L 74.848431 359.475197 
L 74.304839 357.008641 
L 73.78594 354.536772 
L 73.291785 352.059838 
L 72.822424 349.578087 
L 72.377903 347.091766 
L 71.958268 344.601124 
L 71.563559 342.10641 
L 71.193817 339.607874 
L 70.849078 337.105766 
L 70.529377 334.600336 
L 70.234746 332.091833 
L 69.965214 329.58051 
L 69.720809 327.066618 
L 69.501554 324.550407 
L 69.307472 322.032129 
L 69.138582 319.512036 
L 68.994901 316.990381 
L 68.876443 314.467414 
L 68.783221 311.94339 
L 68.715243 309.418559 
L 68.672516 306.893175 
L 68.655045 304.36749 
L 68.662831 301.841756 
L 68.695873 299.316227 
L 68.754169 296.791154 
L 68.837712 294.26679 
L 68.946495 291.743388 
L 69.080505 289.2212 
L 69.23973 286.700479 
L 69.424154 284.181475 
L 69.633759 281.664442 
L 69.868523 279.14963 
L 70.128422 276.637292 
L 70.413432 274.127679 
L 70.723523 271.621041 
L 71.058665 269.117629 
L 71.418824 266.617693 
L 71.803963 264.121485 
L 72.214045 261.629252 
L 72.649029 259.141245 
L 73.10887 256.657712 
L 73.593523 254.178901 
L 74.10294 251.705061 
L 74.637069 249.236438 
L 75.195857 246.77328 
L 75.779249 244.315834 
L 76.387185 241.864343 
L 77.019606 239.419055 
L 77.676447 236.980213 
L 78.357644 234.548061 
L 79.063128 232.122843 
L 79.792828 229.704801 
L 80.546671 227.294176 
L 81.324583 224.891211 
L 82.126485 222.496144 
L 82.952298 220.109216 
L 83.801938 217.730666 
L 84.67532 215.36073 
L 85.572358 212.999647 
L 86.492961 210.647652 
L 87.437038 208.304981 
L 88.404494 205.971867 
L 89.395233 203.648544 
L 90.409155 201.335245 
L 91.446158 199.0322 
L 92.50614 196.739641 
L 93.588994 194.457796 
L 94.694612 192.186893 
L 95.822884 189.927159 
L 96.973696 187.678822 
L 98.146933 185.442104 
L 99.342478 183.217231 
L 100.560213 181.004424 
L 101.800014 178.803905 
L 103.061757 176.615894 
L 104.345318 174.440609 
L 105.650567 172.278268 
L 106.977373 170.129088 
L 108.325605 167.993283 
L 109.695127 165.871067 
L 111.085802 163.762653 
L 112.497491 161.66825 
L 113.930054 159.588068 
L 115.383346 157.522316 
L 116.857223 155.4712 
L 118.351537 153.434925 
L 119.866139 151.413694 
L 121.400877 149.407711 
L 122.955598 147.417175 
L 124.530146 145.442285 
L 126.124364 143.483239 
L 127.738092 141.540233 
L 129.37117 139.613462 
L 131.023433 137.703117 
L 132.694716 135.80939 
L 134.384854 133.93247 
L 136.093675 132.072545 
L 137.82101 130.229802 
L 139.566686 128.404423 
L 141.330527 126.596592 
L 143.112359 124.80649 
L 144.912002 123.034295 
L 146.729277 121.280184 
L 148.564002 119.544334 
L 150.415994 117.826918 
L 152.285066 116.128107 
L 154.171034 114.448072 
L 156.073706 112.78698 
L 157.992895 111.144997 
L 159.928407 109.522288 
L 161.880049 107.919015 
L 163.847626 106.335339 
L 165.830941 104.771417 
L 167.829795 103.227405 
L 169.84399 101.70346 
L 171.873323 100.199732 
L 173.917592 98.716372 
L 175.976592 97.253529 
L 178.050117 95.811348 
L 180.13796 94.389975 
L 182.239912 92.989551 
L 184.355763 91.610216 
L 186.485302 90.252108 
L 188.628314 88.915363 
L 190.784587 87.600115 
L 192.953905 86.306494 
L 195.136049 85.034632 
L 197.330804 83.784653 
L 199.537947 82.556685 
L 201.757261 81.350849 
L 203.988521 80.167266 
L 206.231505 79.006055 
L 208.485989 77.867331 
L 210.751748 76.751208 
L 213.028554 75.657799 
L 215.31618 74.587212 
L 217.614398 73.539554 
L 219.922977 72.51493 
L 222.241686 71.513443 
L 224.570295 70.535193 
L 226.908569 69.580278 
L 229.256276 68.648792 
L 231.61318 67.74083 
L 233.979045 66.856482 
L 236.353635 65.995836 
L 238.736714 65.158979 
L 241.128041 64.345994 
L 243.527378 63.556962 
L 245.934486 62.791963 
L 248.349123 62.051073 
L 250.771048 61.334366 
L 253.200019 60.641914 
L 255.635794 59.973786 
L 258.078127 59.330048 
L 260.526776 58.710765 
L 262.981494 58.116 
L 265.442038 57.545811 
L 267.908161 57.000255 
L 270.379615 56.479388 
L 272.856155 55.983261 
L 275.337532 55.511923 
L 277.823498 55.065423 
L 280.313805 54.643804 
L 282.808203 54.247109 
L 285.306444 53.875377 
L 287.808277 53.528646 
L 290.313452 53.20695 
L 292.821719 52.910321 
L 295.332827 52.63879 
L 297.846524 52.392382 
L 300.36256 52.171124 
L 302.880682 51.975037 
L 305.40064 51.80414 
L 307.92218 51.658451 
L 310.445051 51.537984 
L 312.969001 51.442752 
L 315.493776 51.372763 
L 318.019126 51.328025 
L 320.544796 51.308543 
L 321.230193 51.307613 
L 321.230193 48.756344 
L 320.537873 48.757283 
L 317.986691 48.776963 
L 315.435833 48.822152 
L 312.885554 48.892848 
L 310.33611 48.989042 
L 307.787755 49.110726 
L 305.240745 49.257887 
L 302.695334 49.43051 
L 300.151776 49.628578 
L 297.610325 49.852071 
L 295.071237 50.100967 
L 292.534765 50.375241 
L 290.001162 50.674866 
L 287.470682 50.999812 
L 284.943578 51.350045 
L 282.420103 51.725532 
L 279.900508 52.126234 
L 277.385047 52.552112 
L 274.87397 53.003122 
L 272.367528 53.479221 
L 269.865973 53.980359 
L 267.369554 54.506488 
L 264.878521 55.057554 
L 262.393124 55.633503 
L 259.91361 56.234276 
L 257.440227 56.859814 
L 254.973224 57.510054 
L 252.512846 58.184931 
L 250.05934 58.884378 
L 247.612951 59.608324 
L 245.173923 60.356698 
L 242.742501 61.129424 
L 240.318928 61.926426 
L 237.903446 62.747623 
L 235.496297 63.592933 
L 233.09772 64.462272 
L 230.707957 65.355553 
L 228.327246 66.272687 
L 225.955826 67.213581 
L 223.593932 68.178142 
L 221.241803 69.166274 
L 218.899672 70.177877 
L 216.567774 71.21285 
L 214.246342 72.27109 
L 211.935608 73.352491 
L 209.635804 74.456945 
L 207.347159 75.584342 
L 205.069902 76.734568 
L 202.804261 77.907509 
L 200.550463 79.103047 
L 198.308733 80.321063 
L 196.079295 81.561436 
L 193.862371 82.82404 
L 191.658184 84.10875 
L 189.466955 85.415437 
L 187.288902 86.74397 
L 185.124242 88.094218 
L 182.973193 89.466044 
L 180.83597 90.859312 
L 178.712786 92.273882 
L 176.603854 93.709612 
L 174.509384 95.16636 
L 172.429586 96.64398 
L 170.364668 98.142323 
L 168.314837 99.66124 
L 166.280296 101.200579 
L 164.261251 102.760186 
L 162.257903 104.339905 
L 160.270451 105.939579 
L 158.299096 107.559047 
L 156.344033 109.198147 
L 154.405459 110.856715 
L 152.483567 112.534586 
L 150.57855 114.231591 
L 148.690598 115.947562 
L 146.819899 117.682325 
L 144.966642 119.435709 
L 143.131011 121.207538 
L 141.313189 122.997634 
L 139.513359 124.805818 
L 137.731701 126.63191 
L 135.968392 128.475727 
L 134.223609 130.337084 
L 132.497527 132.215796 
L 130.790318 134.111674 
L 129.102152 136.02453 
L 127.4332 137.954171 
L 125.783627 139.900405 
L 124.153598 141.863037 
L 122.543277 143.841871 
L 120.952824 145.836709 
L 119.382399 147.847352 
L 117.832159 149.873598 
L 116.302258 151.915245 
L 114.79285 153.972088 
L 113.304085 156.043923 
L 111.836113 158.130541 
L 110.38908 160.231735 
L 108.963131 162.347293 
L 107.558409 164.477005 
L 106.175053 166.620658 
L 104.813203 168.778036 
L 103.472995 170.948925 
L 102.154561 173.133108 
L 100.858036 175.330365 
L 99.583547 177.540477 
L 98.331223 179.763224 
L 97.101188 181.998382 
L 95.893567 184.245729 
L 94.708478 186.50504 
L 93.546042 188.776088 
L 92.406374 191.058647 
L 91.289588 193.352488 
L 90.195796 195.657382 
L 89.125107 197.973099 
L 88.077629 200.299407 
L 87.053466 202.636073 
L 86.05272 204.982863 
L 85.075491 207.339544 
L 84.121878 209.705879 
L 83.191976 212.081631 
L 82.285877 214.466564 
L 81.403672 216.860438 
L 80.54545 219.263014 
L 79.711296 221.674052 
L 78.901294 224.093311 
L 78.115525 226.52055 
L 77.354066 228.955524 
L 76.616996 231.397991 
L 75.904386 233.847706 
L 75.216309 236.304425 
L 74.552832 238.767902 
L 73.914024 241.23789 
L 73.299947 243.714143 
L 72.710662 246.196412 
L 72.14623 248.684451 
L 71.606705 251.178009 
L 71.092143 253.676837 
L 70.602594 256.180686 
L 70.138108 258.689306 
L 69.698731 261.202444 
L 69.284506 263.719851 
L 68.895477 266.241274 
L 68.53168 268.766461 
L 68.193153 271.29516 
L 67.87993 273.827118 
L 67.592041 276.362081 
L 67.329516 278.899796 
L 67.092381 281.44001 
L 66.880659 283.982468 
L 66.694372 286.526916 
L 66.533539 289.073099 
L 66.398175 291.620764 
L 66.288293 294.169655 
L 66.203906 296.719517 
L 66.145022 299.270095 
L 66.111645 301.821135 
L 66.103781 304.372381 
L 66.121428 306.923578 
L 66.164587 309.474471 
L 66.233251 312.024805 
L 66.327416 314.574325 
L 66.44707 317.122776 
L 66.592202 319.669903 
L 66.762798 322.215451 
L 66.958841 324.759166 
L 67.18031 327.300793 
L 67.427184 329.840079 
L 67.699438 332.376769 
L 67.997045 334.910609 
L 68.319976 337.441347 
L 68.668197 339.96873 
L 69.041674 342.492503 
L 69.440369 345.012416 
L 69.864244 347.528216 
L 70.313255 350.039651 
L 70.787357 352.546471 
L 71.286503 355.048424 
L 71.810644 357.545261 
L 72.359726 360.036732 
L 72.933695 362.522588 
L 73.532494 365.002579 
L 74.156062 367.476459 
L 74.804337 369.94398 
L 75.477255 372.404894 
L 76.174748 374.858956 
L 76.896746 377.305921 
L 77.643177 379.745544 
L 78.413967 382.17758 
L 79.209038 384.601787 
L 80.028312 387.017923 
L 80.871705 389.425745 
L 81.739133 391.825012 
L 82.630511 394.215486 
L 83.545748 396.596926 
L 84.484754 398.969096 
L 85.447434 401.331756 
L 86.433692 403.684672 
L 87.44343 406.027608 
L 88.476546 408.36033 
L 89.532937 410.682603 
L 90.612498 412.994197 
L 91.71512 415.29488 
L 92.840694 417.584422 
L 93.989106 419.862594 
L 95.160243 422.129168 
L 96.353986 424.383918 
L 97.570216 426.626618 
L 98.808813 428.857043 
L 100.069651 431.074971 
L 101.352605 433.28018 
L 102.657547 435.47245 
L 103.984346 437.65156 
L 105.332869 439.817294 
L 106.702982 441.969435 
L 108.094547 444.107767 
L 109.507426 446.232077 
L 110.941477 448.342151 
L 112.396556 450.437781 
L 113.872519 452.518755 
L 115.369217 454.584865 
L 116.886502 456.635906 
L 118.42422 458.671671 
L 119.982219 460.691957 
L 121.560342 462.696563 
L 123.158433 464.685288 
L 124.77633 466.657932 
L 126.413873 468.6143 
L 128.070897 470.554194 
L 129.747236 472.477421 
L 131.442724 474.383789 
L 133.157191 476.273107 
L 134.890465 478.145186 
L 136.642372 479.99984 
L 138.412738 481.836881 
L 140.201386 483.656128 
L 142.008136 485.457397 
L 143.832809 487.240509 
L 145.675221 489.005286 
L 147.535188 490.75155 
L 149.412525 492.479128 
L 151.307043 494.187846 
L 153.218554 495.877534 
L 155.146866 497.548023 
L 157.091785 499.199145 
L 159.053119 500.830736 
L 161.03067 502.442633 
L 163.024241 504.034673 
L 165.033632 505.606699 
L 167.058643 507.158553 
L 169.099071 508.690079 
L 171.154712 510.201124 
L 173.22536 511.691538 
L 175.310809 513.161172 
L 177.410849 514.609877 
L 179.525272 516.037511 
L 181.653864 517.443929 
L 183.796415 518.828991 
L 185.952708 520.192558 
L 188.122529 521.534495 
L 190.305661 522.854667 
L 192.501885 524.152942 
L 194.710982 525.42919 
L 196.93273 526.683284 
L 199.166909 527.915098 
L 201.413293 529.124509 
L 203.671659 530.311396 
L 205.941781 531.475641 
L 208.223432 532.617126 
L 210.516383 533.735738 
L 212.820405 534.831365 
L 215.135269 535.903898 
L 217.460742 536.953229 
L 218.498436 534.622528 
z
" clip-path="url(#p5bf8571570)" style="fill: none; stroke: #000000; stroke-width: 0.5; stroke-linejoin: miter"/>
   </g>
   <g id="text_1">
    <text style="font: 3px 'DejaVu Sans', 'Bitstream Vera Sans', 'Computer Modern Sans Serif', 'Lucida Grande', 'Verdana', 'Geneva', 'Lucid', 'Arial', 'Helvetica', 'Avant Garde', sans-serif; text-anchor: start" x="427.078566" y="68.946106" transform="rotate(-66 427.078566 68.946106)">University of Fiji</text>
   </g>
   <g id="text_2">
    <text style="font: 3px 'DejaVu Sans', 'Bitstream Vera Sans', 'Computer Modern Sans Serif', 'Lucida Grande', 'Verdana', 'Geneva', 'Lucid', 'Arial', 'Helvetica', 'Avant Garde', sans-serif; text-anchor: start" x="529.026258" y="456.264731" transform="rotate(-324 529.026258 456.264731)">University of the South Pacific</text>
   </g>
   <g id="text_3">
    <text style="font: 3px 'DejaVu Sans', 'Bitstream Vera Sans', 'Computer Modern Sans Serif', 'Lucida Grande', 'Verdana', 'Geneva', 'Lucid', 'Arial', 'Helvetica', 'Avant Garde', sans-serif; text-anchor: end" x="68.945958" y="251.423784" transform="rotate(-348 68.945958 251.423784)">Fiji National University</text>
   </g>
  </g>
 </g>
 <defs>
  <clipPath id="p5bf8571570">
   <path d="M 589.113418 303.883225 
C 589.113418 268.705122 582.184099 233.869082 568.722022 201.368753 
C 555.259944 168.868424 535.526913 139.335855 510.652238 114.46118 
C 485.777563 89.586505 456.244994 69.853473 423.744665 56.391396 
C 391.244336 42.929319 356.408296 36 321.230193 36 
C 286.05209 36 251.21605 42.929319 218.715721 56.391396 
C 186.215392 69.853473 156.682823 89.586505 131.808148 114.46118 
C 106.933473 139.335855 87.200441 168.868424 73.738364 201.368753 
C 60.276287 233.869082 53.346968 268.705122 53.346968 303.883225 
C 53.346968 339.061328 60.276287 373.897368 73.738364 406.397697 
C 87.200441 438.898026 106.933473 468.430595 131.808148 493.30527 
C 156.682823 518.179945 186.215392 537.912977 218.715721 551.375054 
C 251.21605 564.837131 286.05209 571.76645 321.230193 571.76645 
C 356.408296 571.76645 391.244336 564.837131 423.744665 551.375054 
C 456.244994 537.912977 485.777563 518.179945 510.652238 493.30527 
C 535.526913 468.430595 555.259944 438.898026 568.722022 406.397697 
C 582.184099 373.897368 589.113418 339.061328 589.113418 303.883225 
M 321.230193 303.883225 
C 321.230193 303.883225 321.230193 303.883225 321.230193 303.883225 
C 321.230193 303.883225 321.230193 303.883225 321.230193 303.883225 
C 321.230193 303.883225 321.230193 303.883225 321.230193 303.883225 
C 321.230193 303.883225 321.230193 303.883225 321.230193 303.883225 
C 321.230193 303.883225 321.230193 303.883225 321.230193 303.883225 
C 321.230193 303.883225 321.230193 303.883225 321.230193 303.883225 
C 321.230193 303.883225 321.230193 303.883225 321.230193 303.883225 
C 321.230193 303.883225 321.230193 303.883225 321.230193 303.883225 
C 321.230193 303.883225 321.230193 303.883225 321.230193 303.883225 
C 321.230193 303.883225 321.230193 303.883225 321.230193 303.883225 
C 321.230193 303.883225 321.230193 303.883225 321.230193 303.883225 
C 321.230193 303.883225 321.230193 303.883225 321.230193 303.883225 
C 321.230193 303.883225 321.230193 303.883225 321.230193 303.883225 
C 321.230193 303.883225 321.230193 303.883225 321.230193 303.883225 
C 321.230193 303.883225 321.230193 303.883225 321.230193 303.883225 
C 321.230193 303.883225 321.230193 303.883225 321.230193 303.883225 
z
"/>
  </clipPath>
 </defs>
</svg>
