<?xml version="1.0" encoding="utf-8" standalone="no"?>
<!DOCTYPE svg PUBLIC "-//W3C//DTD SVG 1.1//EN"
  "http://www.w3.org/Graphics/SVG/1.1/DTD/svg11.dtd">
<svg xmlns:xlink="http://www.w3.org/1999/xlink" width="627.245521pt" height="568.925062pt" viewBox="0 0 627.245521 568.925062" xmlns="http://www.w3.org/2000/svg" version="1.1">
 <metadata>
  <rdf:RDF xmlns:dc="http://purl.org/dc/elements/1.1/" xmlns:cc="http://creativecommons.org/ns#" xmlns:rdf="http://www.w3.org/1999/02/22-rdf-syntax-ns#">
   <cc:Work>
    <dc:type rdf:resource="http://purl.org/dc/dcmitype/StillImage"/>
    <dc:date>2024-11-16T03:56:29.050874</dc:date>
    <dc:format>image/svg+xml</dc:format>
    <dc:creator>
     <cc:Agent>
      <dc:title>Matplotlib v3.8.4, https://matplotlib.org/</dc:title>
     </cc:Agent>
    </dc:creator>
   </cc:Work>
  </rdf:RDF>
 </metadata>
 <defs>
  <style type="text/css">*{stroke-linejoin: round; stroke-linecap: butt}</style>
 </defs>
 <g id="figure_1">
  <g id="patch_1">
   <path d="M 0 568.925062 
L 627.245521 568.925062 
L 627.245521 0 
L 0 0 
z
" style="fill: #ffffff"/>
  </g>
  <g id="axes_1">
   <g id="patch_2">
    <path d="M 314.316042 50.197859 
L 316.65865 50.209572 
L 319.001023 50.24471 
L 321.342928 50.30327 
L 323.68413 50.385246 
L 326.024396 50.490629 
L 328.36349 50.619409 
L 330.70118 50.771573 
L 333.037232 50.947106 
L 335.371411 51.145991 
L 337.703485 51.368207 
L 340.03322 51.613732 
L 342.360383 51.882541 
L 344.684742 52.174609 
L 347.006064 52.489905 
L 349.324117 52.828399 
L 351.638669 53.190055 
L 353.94949 53.574839 
L 356.256346 53.982711 
L 358.559009 54.413631 
L 360.857248 54.867556 
L 363.150832 55.344439 
L 365.439533 55.844235 
L 367.723122 56.366892 
L 370.00137 56.912359 
L 372.274049 57.48058 
L 374.540933 58.0715 
L 376.801795 58.685058 
L 379.056407 59.321194 
L 381.304546 59.979844 
L 383.545986 60.660942 
L 385.780503 61.36442 
L 388.007874 62.090207 
L 390.227876 62.838232 
L 392.440286 63.608418 
L 394.644884 64.40069 
L 396.84145 65.214969 
L 399.029763 66.051171 
L 401.209604 66.909215 
L 403.380756 67.789013 
L 405.543002 68.690479 
L 407.696126 69.613522 
L 409.839911 70.55805 
L 411.974144 71.523968 
L 414.098611 72.511179 
L 416.2131 73.519586 
L 418.3174 74.549087 
L 420.411299 75.599578 
L 422.494589 76.670956 
L 424.567061 77.763113 
L 426.628509 78.87594 
L 428.678725 80.009325 
L 430.717505 81.163155 
L 432.744644 82.337316 
L 434.759942 83.531688 
L 436.763194 84.746153 
L 438.754203 85.98059 
L 440.732767 87.234875 
L 442.69869 88.508883 
L 444.651775 89.802485 
L 446.591826 91.115554 
L 448.51865 92.447957 
L 450.432053 93.799561 
L 452.331846 95.170232 
L 454.217836 96.559831 
L 456.089837 97.968221 
L 457.94766 99.39526 
L 459.791121 100.840806 
L 461.620034 102.304713 
L 463.434216 103.786836 
L 465.233487 105.287027 
L 467.017667 106.805135 
L 468.786576 108.341008 
L 470.540038 109.894494 
L 472.277879 111.465436 
L 473.999923 113.053678 
L 475.705999 114.659061 
L 477.395936 116.281423 
L 479.069565 117.920604 
L 480.726719 119.576439 
L 482.367232 121.248762 
L 483.99094 122.937407 
L 485.59768 124.642204 
L 487.187293 126.362982 
L 488.759618 128.099571 
L 490.3145 129.851796 
L 491.851782 131.619482 
L 493.37131 133.402451 
L 494.872933 135.200527 
L 496.3565 137.013529 
L 497.821864 138.841276 
L 499.268877 140.683584 
L 500.697395 142.540271 
L 502.107275 144.411149 
L 503.498376 146.296033 
L 504.870559 148.194733 
L 506.223686 150.10706 
L 507.557623 152.032822 
L 508.872236 153.971827 
L 510.167394 155.923881 
L 511.442966 157.888789 
L 512.698827 159.866354 
L 513.934849 161.856378 
L 515.150909 163.858663 
L 516.346886 165.873009 
L 517.52266 167.899213 
L 518.678113 169.937073 
L 519.813131 171.986386 
L 520.927599 174.046946 
L 522.021406 176.118548 
L 523.094442 178.200984 
L 524.146601 180.294047 
L 525.177777 182.397526 
L 526.187867 184.511211 
L 527.17677 186.634892 
L 528.144387 188.768355 
L 529.090622 190.911387 
L 530.015379 193.063775 
L 530.918566 195.225302 
L 531.800094 197.395753 
L 532.659873 199.574911 
L 533.497818 201.762557 
L 534.313845 203.958473 
L 535.107872 206.16244 
L 535.879821 208.374236 
L 536.629613 210.593641 
L 537.357174 212.820433 
L 538.062431 215.05439 
L 538.745314 217.295287 
L 539.405753 219.5429 
L 540.043685 221.797006 
L 540.659043 224.057378 
L 541.251767 226.32379 
L 541.821798 228.596017 
L 542.369079 230.87383 
L 542.893555 233.157001 
L 543.395173 235.445304 
L 543.873883 237.738508 
L 544.329638 240.036384 
L 544.762391 242.338703 
L 545.1721 244.645234 
L 545.558724 246.955747 
L 545.922223 249.270011 
L 546.262562 251.587794 
L 546.579707 253.908864 
L 546.873626 256.232989 
L 547.144288 258.559938 
L 547.391669 260.889477 
L 547.615742 263.221373 
L 547.816485 265.555393 
L 547.993878 267.891304 
L 548.147904 270.228872 
L 548.278547 272.567863 
L 548.385793 274.908044 
L 548.469633 277.24918 
L 548.530058 279.591038 
L 548.567061 281.933382 
L 548.58064 284.27598 
L 548.570792 286.618596 
L 548.537519 288.960997 
L 548.480825 291.302948 
L 548.400713 293.644215 
L 548.297194 295.984563 
L 548.170277 298.32376 
L 548.019974 300.66157 
L 547.846301 302.99776 
L 547.649276 305.332097 
L 547.428917 307.664347 
L 547.185247 309.994277 
L 546.91829 312.321654 
L 546.628074 314.646244 
L 546.314626 316.967817 
L 545.977979 319.286139 
L 545.618166 321.600978 
L 545.235222 323.912104 
L 544.829187 326.219285 
L 544.400101 328.52229 
L 543.948007 330.82089 
L 543.47295 333.114853 
L 542.974977 335.403951 
L 542.454138 337.687956 
L 541.910486 339.966637 
L 541.344074 342.239769 
L 540.75496 344.507122 
L 540.143203 346.768471 
L 539.508862 349.02359 
L 538.852003 351.272253 
L 538.17269 353.514234 
L 537.470992 355.749311 
L 536.746978 357.977259 
L 536.000722 360.197856 
L 535.232297 362.410879 
L 534.441781 364.616107 
L 533.629252 366.81332 
L 532.794793 369.002298 
L 531.938485 371.182822 
L 531.060416 373.354675 
L 530.160672 375.517638 
L 529.239344 377.671495 
L 528.296524 379.816032 
L 527.332306 381.951034 
L 526.346786 384.076286 
L 525.340064 386.191578 
L 524.312239 388.296696 
L 523.263415 390.391432 
L 522.193696 392.475574 
L 521.10319 394.548916 
L 519.992005 396.611248 
L 518.860253 398.662366 
L 517.708047 400.702064 
L 516.535501 402.730139 
L 515.342734 404.746386 
L 514.129864 406.750605 
L 512.897013 408.742596 
L 511.644305 410.722159 
L 510.371863 412.689095 
L 509.079816 414.64321 
L 507.768293 416.584306 
L 506.437425 418.51219 
L 505.087344 420.42667 
L 503.718187 422.327553 
L 502.33009 424.214649 
L 500.923191 426.087771 
L 499.497632 427.94673 
L 498.053555 429.791341 
L 496.591104 431.621419 
L 495.110426 433.436782 
L 493.611669 435.237247 
L 492.094982 437.022634 
L 490.560518 438.792766 
L 489.008429 440.547465 
L 487.438871 442.286556 
L 485.852001 444.009864 
L 484.247978 445.717218 
L 482.626961 447.408446 
L 480.989114 449.08338 
L 479.334599 450.741852 
L 477.663583 452.383696 
L 475.976232 454.008748 
L 474.272715 455.616846 
L 472.553203 457.207828 
L 470.817867 458.781536 
L 469.066881 460.337813 
L 467.30042 461.876502 
L 465.51866 463.397449 
L 463.721781 464.900504 
L 461.909961 466.385514 
L 460.083382 467.852333 
L 458.242226 469.300812 
L 456.386678 470.730808 
L 454.516923 472.142178 
L 452.633148 473.534779 
L 450.735541 474.908474 
L 448.824292 476.263124 
L 446.899593 477.598594 
L 444.961635 478.914751 
L 443.010613 480.211462 
L 441.046722 481.488599 
L 439.070158 482.746034 
L 437.081118 483.98364 
L 435.079802 485.201294 
L 433.06641 486.398875 
L 431.041142 487.576262 
L 429.004203 488.733338 
L 426.955794 489.869987 
L 424.896122 490.986095 
L 422.825392 492.081552 
L 420.743811 493.156246 
L 418.651587 494.210072 
L 416.54893 495.242922 
L 414.43605 496.254695 
L 412.313157 497.245289 
L 410.180465 498.214605 
L 408.038187 499.162546 
L 405.886537 500.089017 
L 403.725729 500.993925 
L 401.555981 501.877181 
L 399.377509 502.738695 
L 397.19053 503.578382 
L 394.995265 504.396157 
L 392.791931 505.191939 
L 390.58075 505.965649 
L 388.361943 506.717208 
L 386.135731 507.446542 
L 383.902337 508.153578 
L 381.661984 508.838245 
L 379.414897 509.500474 
L 377.1613 510.1402 
L 374.901419 510.757358 
L 372.635479 511.351887 
L 370.363708 511.923728 
L 368.086331 512.472822 
L 365.803578 512.999116 
L 363.515676 513.502556 
L 361.222854 513.983092 
L 358.925341 514.440676 
L 356.623367 514.875263 
L 354.317163 515.286809 
L 352.006959 515.675272 
L 349.692985 516.040614 
L 347.375474 516.382799 
L 345.054657 516.701792 
L 342.730767 516.997561 
L 340.404034 517.270077 
L 338.074693 517.519312 
L 335.742976 517.745242 
L 333.409117 517.947844 
L 331.073348 518.127097 
L 328.735903 518.282984 
L 326.397017 518.41549 
L 324.056922 518.5246 
L 321.715854 518.610304 
L 319.374045 518.672594 
L 317.03173 518.711462 
L 314.689144 518.726906 
L 314.316042 518.727204 
L 314.316042 521.093513 
L 314.692913 521.093213 
L 317.059162 521.077613 
L 319.425136 521.038352 
L 321.790599 520.975433 
L 324.155315 520.888863 
L 326.519047 520.778651 
L 328.881559 520.644807 
L 331.242614 520.487345 
L 333.601976 520.306281 
L 335.95941 520.101633 
L 338.31468 519.873421 
L 340.667549 519.621668 
L 343.017784 519.3464 
L 345.365148 519.047643 
L 347.709408 518.725428 
L 350.050328 518.379787 
L 352.387675 518.010754 
L 354.721215 517.618367 
L 357.050714 517.202664 
L 359.37594 516.763688 
L 361.69666 516.301481 
L 364.012642 515.816091 
L 366.323654 515.307566 
L 368.629465 514.775956 
L 370.929846 514.221315 
L 373.224565 513.643699 
L 375.513393 513.043165 
L 377.796101 512.419772 
L 380.072462 511.773585 
L 382.342246 511.104666 
L 384.605229 510.413083 
L 386.861182 509.698906 
L 389.109881 508.962205 
L 391.351101 508.203054 
L 393.584617 507.421529 
L 395.810206 506.617709 
L 398.027646 505.791673 
L 400.236715 504.943505 
L 402.437192 504.073288 
L 404.628857 503.181111 
L 406.811491 502.267062 
L 408.984875 501.331233 
L 411.148793 500.373717 
L 413.303027 499.39461 
L 415.447363 498.39401 
L 417.581585 497.372017 
L 419.705482 496.328734 
L 421.818839 495.264264 
L 423.921446 494.178714 
L 426.013093 493.072192 
L 428.09357 491.94481 
L 430.162669 490.796679 
L 432.220184 489.627916 
L 434.265908 488.438636 
L 436.299638 487.228959 
L 438.321169 485.999005 
L 440.3303 484.748897 
L 442.32683 483.478762 
L 444.310558 482.188724 
L 446.281288 480.878915 
L 448.238821 479.549463 
L 450.182961 478.200504 
L 452.113515 476.83217 
L 454.03029 475.4446 
L 455.933093 474.037932 
L 457.821735 472.612306 
L 459.696026 471.167866 
L 461.555779 469.704755 
L 463.400809 468.22312 
L 465.23093 466.723109 
L 467.04596 465.204873 
L 468.845716 463.668562 
L 470.63002 462.114331 
L 472.398693 460.542334 
L 474.151558 458.95273 
L 475.888439 457.345677 
L 477.609163 455.721336 
L 479.313558 454.079869 
L 481.001453 452.421441 
L 482.67268 450.746217 
L 484.327072 449.054364 
L 485.964462 447.346053 
L 487.584688 445.621453 
L 489.187587 443.880738 
L 490.772999 442.124081 
L 492.340765 440.351657 
L 493.890729 438.563645 
L 495.422736 436.760223 
L 496.936632 434.941572 
L 498.432267 433.107873 
L 499.90949 431.259309 
L 501.368153 429.396065 
L 502.808112 427.518329 
L 504.229222 425.626287 
L 505.63134 423.720129 
L 507.014327 421.800045 
L 508.378045 419.866227 
L 509.722356 417.918869 
L 511.047127 415.958166 
L 512.352225 413.984313 
L 513.637519 411.997508 
L 514.902882 409.99795 
L 516.148186 407.985838 
L 517.373307 405.961375 
L 518.578122 403.924761 
L 519.762512 401.876201 
L 520.926356 399.8159 
L 522.06954 397.744064 
L 523.191949 395.660899 
L 524.293471 393.566615 
L 525.373995 391.461421 
L 526.433413 389.345526 
L 527.47162 387.219144 
L 528.488511 385.082486 
L 529.483985 382.935766 
L 530.457943 380.779199 
L 531.410286 378.613 
L 532.340921 376.437386 
L 533.249753 374.252575 
L 534.136692 372.058785 
L 535.001649 369.856235 
L 535.844537 367.645146 
L 536.665273 365.425739 
L 537.463774 363.198236 
L 538.239961 360.962859 
L 538.993756 358.719832 
L 539.725082 356.46938 
L 540.433869 354.211726 
L 541.120043 351.947098 
L 541.783537 349.675722 
L 542.424285 347.397824 
L 543.042222 345.113633 
L 543.637287 342.823377 
L 544.20942 340.527285 
L 544.758563 338.225586 
L 545.284663 335.918511 
L 545.787666 333.606291 
L 546.267522 331.289156 
L 546.724183 328.967338 
L 547.157603 326.64107 
L 547.567739 324.310585 
L 547.954551 321.976114 
L 548.317999 319.637892 
L 548.658046 317.296153 
L 548.97466 314.95113 
L 549.267808 312.603059 
L 549.537461 310.252173 
L 549.783592 307.898709 
L 550.006177 305.542901 
L 550.205193 303.184985 
L 550.38062 300.825197 
L 550.532441 298.463772 
L 550.66064 296.100947 
L 550.765205 293.736959 
L 550.846125 291.372043 
L 550.903393 289.006436 
L 550.937002 286.640375 
L 550.946949 284.274096 
L 550.933233 281.907835 
L 550.895856 279.541831 
L 550.834821 277.176318 
L 550.750134 274.811534 
L 550.641804 272.447715 
L 550.509842 270.085098 
L 550.35426 267.723918 
L 550.175075 265.364412 
L 549.972304 263.006816 
L 549.745968 260.651365 
L 549.496089 258.298296 
L 549.222692 255.947843 
L 548.925805 253.600241 
L 548.605457 251.255726 
L 548.26168 248.914531 
L 547.894508 246.576891 
L 547.503979 244.243039 
L 547.090132 241.91321 
L 546.653007 239.587635 
L 546.192649 237.266548 
L 545.709103 234.95018 
L 545.202418 232.638764 
L 544.672645 230.33253 
L 544.119836 228.031709 
L 543.544048 225.73653 
L 542.945336 223.447225 
L 542.323762 221.164021 
L 541.679387 218.887146 
L 541.012276 216.61683 
L 540.322495 214.353297 
L 539.610115 212.096776 
L 538.875204 209.847491 
L 538.117839 207.605667 
L 537.338093 205.37153 
L 536.536045 203.145301 
L 535.711775 200.927204 
L 534.865366 198.71746 
L 533.996902 196.516291 
L 533.106471 194.323916 
L 532.19416 192.140555 
L 531.260062 189.966426 
L 530.30427 187.801747 
L 529.326879 185.646734 
L 528.327987 183.501602 
L 527.307694 181.366566 
L 526.266102 179.24184 
L 525.203315 177.127636 
L 524.11944 175.024165 
L 523.014584 172.931638 
L 521.888859 170.850263 
L 520.742377 168.78025 
L 519.575252 166.721806 
L 518.387601 164.675135 
L 517.179544 162.640442 
L 515.9512 160.617932 
L 514.702693 158.607806 
L 513.434148 156.610266 
L 512.14569 154.625511 
L 510.83745 152.653739 
L 509.509558 150.695148 
L 508.162147 148.749934 
L 506.795352 146.81829 
L 505.409308 144.900412 
L 504.004156 142.996489 
L 502.580035 141.106713 
L 501.137087 139.231272 
L 499.675458 137.370354 
L 498.195293 135.524145 
L 496.69674 133.69283 
L 495.179949 131.876592 
L 493.645072 130.075612 
L 492.092262 128.290071 
L 490.521675 126.520147 
L 488.933467 124.766017 
L 487.327798 123.027857 
L 485.704827 121.30584 
L 484.064718 119.600138 
L 482.407634 117.910923 
L 480.733742 116.238363 
L 479.043207 114.582624 
L 477.3362 112.943874 
L 475.612891 111.322276 
L 473.873453 109.717991 
L 472.118059 108.131181 
L 470.346885 106.562003 
L 468.560107 105.010616 
L 466.757906 103.477173 
L 464.940461 101.961829 
L 463.107953 100.464735 
L 461.260566 98.986041 
L 459.398485 97.525894 
L 457.521896 96.08444 
L 455.630986 94.661824 
L 453.725945 93.258188 
L 451.806963 91.873673 
L 449.874232 90.508416 
L 447.927945 89.162554 
L 445.968297 87.836222 
L 443.995484 86.529553 
L 442.009704 85.242677 
L 440.011154 83.975722 
L 438.000034 82.728816 
L 435.976547 81.502084 
L 433.940893 80.295647 
L 431.893277 79.109626 
L 429.833903 77.944141 
L 427.762978 76.799308 
L 425.680708 75.67524 
L 423.587302 74.572052 
L 421.482968 73.489852 
L 419.367919 72.428749 
L 417.242363 71.388849 
L 415.106516 70.370257 
L 412.960589 69.373073 
L 410.804798 68.397399 
L 408.639359 67.44333 
L 406.464487 66.510964 
L 404.2804 65.600392 
L 402.087317 64.711706 
L 399.885457 63.844996 
L 397.67504 63.000347 
L 395.456287 62.177844 
L 393.22942 61.377569 
L 390.994662 60.599602 
L 388.752236 59.844022 
L 386.502367 59.110903 
L 384.245279 58.40032 
L 381.981198 57.712342 
L 379.710351 57.047039 
L 377.432964 56.404477 
L 375.149265 55.784722 
L 372.859484 55.187833 
L 370.563848 54.613872 
L 368.262587 54.062896 
L 365.955932 53.534959 
L 363.644113 53.030115 
L 361.327361 52.548414 
L 359.005908 52.089905 
L 356.679986 51.654632 
L 354.349827 51.24264 
L 352.015666 50.85397 
L 349.677734 50.48866 
L 347.336266 50.146748 
L 344.991496 49.828266 
L 342.643659 49.533249 
L 340.292989 49.261724 
L 337.939721 49.013718 
L 335.584091 48.789258 
L 333.226334 48.588364 
L 330.866687 48.411058 
L 328.505384 48.257357 
L 326.142662 48.127276 
L 323.778757 48.020829 
L 321.413907 47.938025 
L 319.048346 47.878874 
L 316.682312 47.843381 
L 314.316042 47.831549 
z
" clip-path="url(#p5a6342a60b)" style="fill: #000080"/>
   </g>
   <g id="patch_3">
    <path d="M 314.316042 518.727204 
L 311.973434 518.71549 
L 309.631061 518.680352 
L 307.289156 518.621792 
L 304.947954 518.539817 
L 302.607688 518.434434 
L 300.268594 518.305654 
L 297.930904 518.153489 
L 295.594852 517.977956 
L 293.260673 517.779072 
L 290.928599 517.556856 
L 288.598864 517.311331 
L 286.271701 517.042521 
L 283.947342 516.750453 
L 281.62602 516.435157 
L 279.307967 516.096664 
L 276.993414 515.735007 
L 274.682594 515.350224 
L 272.375738 514.942352 
L 270.073075 514.511432 
L 267.774836 514.057507 
L 265.481252 513.580623 
L 263.192551 513.080827 
L 260.908962 512.55817 
L 258.630714 512.012704 
L 256.358035 511.444482 
L 254.091151 510.853563 
L 251.830289 510.240004 
L 249.575677 509.603869 
L 247.327538 508.945219 
L 245.086098 508.264121 
L 242.85158 507.560643 
L 240.62421 506.834855 
L 238.404208 506.086831 
L 236.191798 505.316644 
L 233.987199 504.524372 
L 231.790634 503.710094 
L 229.602321 502.873891 
L 227.42248 502.015848 
L 225.251327 501.136049 
L 223.089082 500.234583 
L 220.935958 499.31154 
L 218.792173 498.367013 
L 216.65794 497.401095 
L 214.533473 496.413883 
L 212.418984 495.405477 
L 210.314684 494.375976 
L 208.220785 493.325484 
L 206.137495 492.254106 
L 204.065022 491.161949 
L 202.003575 490.049123 
L 199.953359 488.915737 
L 197.914579 487.761907 
L 195.887439 486.587747 
L 193.872142 485.393374 
L 191.86889 484.178909 
L 189.877881 482.944472 
L 187.899317 481.690187 
L 185.933394 480.41618 
L 183.980309 479.122577 
L 182.040258 477.809509 
L 180.113434 476.477106 
L 178.20003 475.125501 
L 176.300238 473.754831 
L 174.414248 472.365231 
L 172.542247 470.956841 
L 170.684424 469.529802 
L 168.840963 468.084257 
L 167.01205 466.620349 
L 165.197868 465.138226 
L 163.398597 463.638036 
L 161.614417 462.119928 
L 159.845508 460.584054 
L 158.092045 459.030568 
L 156.354205 457.459626 
L 154.632161 455.871384 
L 152.926085 454.266002 
L 151.236148 452.643639 
L 149.562519 451.004458 
L 147.905365 449.348623 
L 146.264852 447.6763 
L 144.641144 445.987656 
L 143.034404 444.282859 
L 141.444791 442.56208 
L 139.872465 440.825491 
L 138.317584 439.073267 
L 136.780302 437.305581 
L 135.260774 435.522611 
L 133.759151 433.724535 
L 132.275584 431.911533 
L 130.81022 430.083787 
L 129.363207 428.241478 
L 127.934689 426.384792 
L 126.524809 424.513913 
L 125.133708 422.62903 
L 123.761525 420.73033 
L 122.408398 418.818003 
L 121.074461 416.892241 
L 119.759848 414.953236 
L 118.46469 413.001182 
L 117.189117 411.036274 
L 115.933257 409.058709 
L 114.697235 407.068684 
L 113.481175 405.066399 
L 112.285198 403.052054 
L 111.109424 401.02585 
L 109.953971 398.987989 
L 108.818953 396.938676 
L 107.704485 394.878116 
L 106.610678 392.806514 
L 105.537642 390.724078 
L 104.485483 388.631016 
L 103.454307 386.527537 
L 102.444217 384.413851 
L 101.455314 382.290171 
L 100.487697 380.156708 
L 99.541462 378.013675 
L 98.616705 375.861288 
L 97.713517 373.69976 
L 96.83199 371.529309 
L 95.972211 369.350152 
L 95.134266 367.162506 
L 94.318239 364.966589 
L 93.524212 362.762623 
L 92.752263 360.550826 
L 92.002471 358.331421 
L 91.27491 356.104629 
L 90.569653 353.870673 
L 89.88677 351.629776 
L 89.22633 349.382162 
L 88.588399 347.128057 
L 87.973041 344.867685 
L 87.380316 342.601272 
L 86.810285 340.329046 
L 86.263005 338.051233 
L 85.738529 335.768061 
L 85.236911 333.479759 
L 84.758201 331.186555 
L 84.302446 328.888678 
L 83.869693 326.58636 
L 83.459984 324.279828 
L 83.07336 321.969315 
L 82.709861 319.655052 
L 82.369522 317.337269 
L 82.052377 315.016199 
L 81.758458 312.692073 
L 81.487795 310.365124 
L 81.240415 308.035586 
L 81.016342 305.70369 
L 80.815599 303.369669 
L 80.638206 301.033759 
L 80.48418 298.696191 
L 80.353537 296.357199 
L 80.246291 294.017019 
L 80.162451 291.675882 
L 80.102026 289.334025 
L 80.065023 286.99168 
L 80.051444 284.649082 
L 80.061292 282.306466 
L 80.094565 279.964066 
L 80.151259 277.622115 
L 80.231371 275.280848 
L 80.33489 272.940499 
L 80.461807 270.601303 
L 80.61211 268.263493 
L 80.785783 265.927302 
L 80.982808 263.592965 
L 81.203167 261.260715 
L 81.446837 258.930785 
L 81.713793 256.603409 
L 82.00401 254.278818 
L 82.317458 251.957246 
L 82.654105 249.638924 
L 83.013918 247.324084 
L 83.396862 245.012958 
L 83.802897 242.705777 
L 84.231983 240.402772 
L 84.684077 238.104173 
L 85.159134 235.810209 
L 85.657107 233.521111 
L 86.177946 231.237107 
L 86.721598 228.958425 
L 87.288009 226.685294 
L 87.877123 224.41794 
L 88.488881 222.156591 
L 89.123222 219.901472 
L 89.780081 217.65281 
L 90.459394 215.410828 
L 91.161092 213.175751 
L 91.885106 210.947803 
L 92.631362 208.727207 
L 93.399787 206.514184 
L 94.190303 204.308955 
L 95.002832 202.111742 
L 95.837291 199.922764 
L 96.693599 197.74224 
L 97.571668 195.570388 
L 98.471412 193.407425 
L 99.39274 191.253567 
L 100.33556 189.10903 
L 101.299778 186.974029 
L 102.285298 184.848776 
L 103.29202 182.733485 
L 104.319845 180.628366 
L 105.368669 178.533631 
L 106.438387 176.449488 
L 107.528894 174.376147 
L 108.640078 172.313814 
L 109.771831 170.262696 
L 110.924037 168.222998 
L 112.096583 166.194924 
L 113.28935 164.178676 
L 114.50222 162.174457 
L 115.735071 160.182467 
L 116.987779 158.202904 
L 118.260221 156.235967 
L 119.552268 154.281853 
L 120.863791 152.340757 
L 122.194659 150.412872 
L 123.54474 148.498393 
L 124.913897 146.59751 
L 126.301994 144.710413 
L 127.708893 142.837292 
L 129.134452 140.978332 
L 130.578529 139.133721 
L 132.040979 137.303643 
L 133.521657 135.488281 
L 135.020415 133.687816 
L 136.537102 131.902428 
L 138.071566 130.132296 
L 139.623655 128.377597 
L 141.193213 126.638507 
L 142.780083 124.915199 
L 144.384106 123.207845 
L 146.005123 121.516616 
L 147.64297 119.841683 
L 149.297485 118.183211 
L 150.968501 116.541366 
L 152.655852 114.916314 
L 154.359369 113.308217 
L 156.078881 111.717234 
L 157.814217 110.143526 
L 159.565203 108.58725 
L 161.331664 107.048561 
L 163.113424 105.527613 
L 164.910303 104.024559 
L 166.722123 102.539548 
L 168.548702 101.07273 
L 170.389858 99.62425 
L 172.245406 98.194254 
L 174.115161 96.782885 
L 175.998936 95.390283 
L 177.896543 94.016589 
L 179.807792 92.661939 
L 181.732491 91.326468 
L 183.670449 90.010312 
L 185.621471 88.7136 
L 187.585362 87.436463 
L 189.561926 86.179029 
L 191.550966 84.941423 
L 193.552282 83.723768 
L 195.565674 82.526188 
L 197.590942 81.3488 
L 199.627881 80.191725 
L 201.67629 79.055075 
L 203.735962 77.938967 
L 205.806692 76.843511 
L 207.888273 75.768816 
L 209.980497 74.714991 
L 212.083154 73.68214 
L 214.196034 72.670367 
L 216.318927 71.679773 
L 218.451619 70.710458 
L 220.593897 69.762517 
L 222.745547 68.836046 
L 224.906355 67.931137 
L 227.076103 67.047882 
L 229.254575 66.186368 
L 231.441554 65.346681 
L 233.636819 64.528906 
L 235.840153 63.733123 
L 238.051334 62.959414 
L 240.270141 62.207855 
L 242.496353 61.478521 
L 244.729747 60.771485 
L 246.9701 60.086818 
L 249.217187 59.424588 
L 251.470783 58.784862 
L 253.730665 58.167704 
L 255.996605 57.573175 
L 258.268376 57.001335 
L 260.545753 56.452241 
L 262.828506 55.925947 
L 265.116408 55.422507 
L 267.40923 54.941971 
L 269.706743 54.484386 
L 272.008716 54.0498 
L 274.314921 53.638254 
L 276.625125 53.249791 
L 278.939098 52.884448 
L 281.25661 52.542263 
L 283.577427 52.223271 
L 285.901317 51.927501 
L 288.22805 51.654986 
L 290.557391 51.40575 
L 292.889108 51.17982 
L 295.222967 50.977219 
L 297.558736 50.797965 
L 299.896181 50.642078 
L 302.235067 50.509573 
L 304.575162 50.400463 
L 306.91623 50.314758 
L 309.258039 50.252469 
L 311.600354 50.2136 
L 313.94294 50.198156 
L 314.316042 50.197859 
L 314.316042 47.831549 
L 313.939171 47.831849 
L 311.572922 47.847449 
L 309.206948 47.886711 
L 306.841485 47.949629 
L 304.476769 48.036199 
L 302.113037 48.146412 
L 299.750525 48.280255 
L 297.38947 48.437717 
L 295.030108 48.618781 
L 292.672674 48.823429 
L 290.317404 49.051641 
L 287.964535 49.303394 
L 285.6143 49.578663 
L 283.266935 49.877419 
L 280.922676 50.199634 
L 278.581756 50.545276 
L 276.244409 50.914308 
L 273.910869 51.306696 
L 271.58137 51.722398 
L 269.256144 52.161375 
L 266.935424 52.623581 
L 264.619442 53.108971 
L 262.30843 53.617497 
L 260.002618 54.149106 
L 257.702238 54.703747 
L 255.407519 55.281363 
L 253.118691 55.881898 
L 250.835983 56.50529 
L 248.559622 57.151478 
L 246.289838 57.820397 
L 244.026855 58.511979 
L 241.770902 59.226157 
L 239.522203 59.962858 
L 237.280983 60.722009 
L 235.047467 61.503533 
L 232.821878 62.307354 
L 230.604437 63.13339 
L 228.395369 63.981558 
L 226.194892 64.851774 
L 224.003227 65.743952 
L 221.820593 66.658001 
L 219.647209 67.59383 
L 217.483291 68.551346 
L 215.329057 69.530452 
L 213.184721 70.531052 
L 211.050499 71.553045 
L 208.926602 72.596329 
L 206.813245 73.660799 
L 204.710638 74.746349 
L 202.618991 75.85287 
L 200.538514 76.980253 
L 198.469415 78.128383 
L 196.4119 79.297147 
L 194.366176 80.486427 
L 192.332446 81.696104 
L 190.310915 82.926058 
L 188.301784 84.176165 
L 186.305254 85.446301 
L 184.321525 86.736338 
L 182.350796 88.046148 
L 180.393263 89.375599 
L 178.449123 90.724559 
L 176.518568 92.092892 
L 174.601794 93.480462 
L 172.698991 94.887131 
L 170.810349 96.312756 
L 168.936058 97.757197 
L 167.076305 99.220307 
L 165.231275 100.701942 
L 163.401154 102.201953 
L 161.586124 103.72019 
L 159.786368 105.256501 
L 158.002064 106.810732 
L 156.233391 108.382728 
L 154.480526 109.972332 
L 152.743645 111.579385 
L 151.022921 113.203726 
L 149.318526 114.845193 
L 147.630631 116.503622 
L 145.959404 118.178846 
L 144.305012 119.870698 
L 142.667622 121.57901 
L 141.047396 123.303609 
L 139.444497 125.044325 
L 137.859085 126.800982 
L 136.291319 128.573405 
L 134.741355 130.361417 
L 133.209348 132.164839 
L 131.695452 133.983491 
L 130.199817 135.81719 
L 128.722594 137.665754 
L 127.263931 139.528997 
L 125.823972 141.406734 
L 124.402862 143.298776 
L 123.000744 145.204934 
L 121.617757 147.125018 
L 120.254039 149.058835 
L 118.909728 151.006193 
L 117.584957 152.966896 
L 116.279859 154.940749 
L 114.994565 156.927554 
L 113.729202 158.927112 
L 112.483898 160.939224 
L 111.258777 162.963688 
L 110.053962 165.000302 
L 108.869572 167.048862 
L 107.705727 169.109163 
L 106.562543 171.180999 
L 105.440135 173.264163 
L 104.338613 175.358447 
L 103.258089 177.463642 
L 102.198671 179.579536 
L 101.160464 181.705919 
L 100.143573 183.842577 
L 99.148099 185.989297 
L 98.174141 188.145864 
L 97.221798 190.312063 
L 96.291163 192.487676 
L 95.382331 194.672487 
L 94.495392 196.866278 
L 93.630435 199.068827 
L 92.787547 201.279916 
L 91.966811 203.499323 
L 91.168309 205.726827 
L 90.392123 207.962204 
L 89.638328 210.20523 
L 88.907002 212.455683 
L 88.198215 214.713336 
L 87.512041 216.977964 
L 86.848547 219.24934 
L 86.207799 221.527238 
L 85.589862 223.811429 
L 84.994797 226.101686 
L 84.422664 228.397778 
L 83.873521 230.699476 
L 83.347421 233.006551 
L 82.844418 235.318772 
L 82.364562 237.635907 
L 81.907901 239.957724 
L 81.474481 242.283992 
L 81.064345 244.614478 
L 80.677533 246.948948 
L 80.314085 249.28717 
L 79.974038 251.628909 
L 79.657424 253.973932 
L 79.364276 256.322004 
L 79.094623 258.672889 
L 78.848492 261.026353 
L 78.625907 263.382162 
L 78.426891 265.740078 
L 78.251464 268.099866 
L 78.099643 270.46129 
L 77.971444 272.824115 
L 77.866879 275.188104 
L 77.785959 277.55302 
L 77.728691 279.918626 
L 77.695082 282.284688 
L 77.685135 284.650967 
L 77.698851 287.017227 
L 77.736228 289.383232 
L 77.797263 291.748744 
L 77.88195 294.113529 
L 77.99028 296.477347 
L 78.122242 298.839965 
L 78.277824 301.201145 
L 78.457009 303.560651 
L 78.65978 305.918247 
L 78.886116 308.273697 
L 79.135995 310.626767 
L 79.409392 312.97722 
L 79.706279 315.324822 
L 80.026627 317.669337 
L 80.370404 320.010532 
L 80.737576 322.348172 
L 81.128105 324.682023 
L 81.541952 327.011853 
L 81.979077 329.337427 
L 82.439435 331.658515 
L 82.922981 333.974882 
L 83.429666 336.286299 
L 83.959439 338.592533 
L 84.512247 340.893354 
L 85.088036 343.188532 
L 85.686748 345.477838 
L 86.308322 347.761042 
L 86.952697 350.037916 
L 87.619808 352.308233 
L 88.309588 354.571765 
L 89.021969 356.828287 
L 89.756879 359.077572 
L 90.514245 361.319395 
L 91.293991 363.553533 
L 92.096039 365.779762 
L 92.920309 367.997859 
L 93.766718 370.207603 
L 94.635181 372.408772 
L 95.525613 374.601147 
L 96.437924 376.784507 
L 97.372022 378.958636 
L 98.327814 381.123316 
L 99.305205 383.278329 
L 100.304097 385.423461 
L 101.32439 387.558496 
L 102.365982 389.683223 
L 103.428769 391.797427 
L 104.512644 393.900898 
L 105.6175 395.993425 
L 106.743225 398.074799 
L 107.889707 400.144812 
L 109.056832 402.203257 
L 110.244483 404.249928 
L 111.45254 406.28462 
L 112.680884 408.30713 
L 113.929391 410.317256 
L 115.197936 412.314797 
L 116.486394 414.299552 
L 117.794634 416.271324 
L 119.122525 418.229915 
L 120.469937 420.175129 
L 121.836732 422.106772 
L 123.222776 424.024651 
L 124.627928 425.928574 
L 126.052049 427.81835 
L 127.494997 429.693791 
L 128.956626 431.554709 
L 130.436791 433.400917 
L 131.935344 435.232232 
L 133.452135 437.04847 
L 134.987012 438.84945 
L 136.539822 440.634991 
L 138.110409 442.404915 
L 139.698617 444.159045 
L 141.304286 445.897206 
L 142.927257 447.619223 
L 144.567366 449.324924 
L 146.224449 451.01414 
L 147.898342 452.6867 
L 149.588877 454.342438 
L 151.295884 455.981188 
L 153.019193 457.602787 
L 154.758631 459.207072 
L 156.514025 460.793882 
L 158.285199 462.363059 
L 160.071977 463.914447 
L 161.874178 465.447889 
L 163.691623 466.963233 
L 165.524131 468.460327 
L 167.371518 469.939022 
L 169.233599 471.399169 
L 171.110188 472.840622 
L 173.001098 474.263238 
L 174.906139 475.666874 
L 176.825121 477.05139 
L 178.757852 478.416647 
L 180.704139 479.762508 
L 182.663787 481.08884 
L 184.6366 482.39551 
L 186.62238 483.682386 
L 188.62093 484.94934 
L 190.63205 486.196246 
L 192.655537 487.422979 
L 194.691191 488.629416 
L 196.738807 489.815436 
L 198.798181 490.980921 
L 200.869106 492.125755 
L 202.951376 493.249822 
L 205.044782 494.353011 
L 207.149115 495.435211 
L 209.264165 496.496314 
L 211.38972 497.536213 
L 213.525568 498.554806 
L 215.671495 499.551989 
L 217.827285 500.527664 
L 219.992725 501.481732 
L 222.167597 502.414099 
L 224.351684 503.32467 
L 226.544767 504.213356 
L 228.746627 505.080067 
L 230.957044 505.924716 
L 233.175797 506.747219 
L 235.402664 507.547494 
L 237.637422 508.32546 
L 239.879848 509.081041 
L 242.129717 509.814159 
L 244.386805 510.524743 
L 246.650886 511.212721 
L 248.921733 511.878024 
L 251.19912 512.520585 
L 253.482818 513.140341 
L 255.7726 513.737229 
L 258.068236 514.31119 
L 260.369497 514.862167 
L 262.676152 515.390103 
L 264.987971 515.894947 
L 267.304723 516.376648 
L 269.626176 516.835158 
L 271.952098 517.270431 
L 274.282257 517.682423 
L 276.616418 518.071093 
L 278.95435 518.436403 
L 281.295818 518.778315 
L 283.640587 519.096796 
L 285.988425 519.391814 
L 288.339095 519.663339 
L 290.692363 519.911344 
L 293.047993 520.135805 
L 295.405749 520.336698 
L 297.765397 520.514004 
L 300.1267 520.667705 
L 302.489422 520.797786 
L 304.853327 520.904234 
L 307.218177 520.987037 
L 309.583738 521.046189 
L 311.949772 521.081682 
L 314.316042 521.093513 
z
" clip-path="url(#p5a6342a60b)" style="fill: #800000"/>
   </g>
   <g id="PatchCollection_1">
    <defs>
     <path id="m2db335ebbb" d="M 314.316042 -518.727204 
L 314.316042 -518.727204 
L 316.65865 -518.71549 
L 319.001023 -518.680352 
L 321.342928 -518.621792 
L 323.68413 -518.539817 
L 326.024396 -518.434434 
L 328.36349 -518.305654 
L 330.70118 -518.153489 
L 333.037232 -517.977956 
L 335.371411 -517.779072 
L 337.703485 -517.556856 
L 340.03322 -517.311331 
L 342.360383 -517.042521 
L 344.684742 -516.750453 
L 347.006064 -516.435157 
L 349.324117 -516.096664 
L 351.638669 -515.735007 
L 353.94949 -515.350224 
L 356.256346 -514.942352 
L 358.559009 -514.511432 
L 360.857248 -514.057507 
L 363.150832 -513.580623 
L 365.439533 -513.080827 
L 367.723122 -512.55817 
L 370.00137 -512.012704 
L 372.274049 -511.444482 
L 374.540933 -510.853563 
L 376.801795 -510.240004 
L 379.056407 -509.603869 
L 381.304546 -508.945219 
L 383.545986 -508.264121 
L 385.780503 -507.560643 
L 388.007874 -506.834855 
L 390.227876 -506.086831 
L 392.440286 -505.316644 
L 394.644884 -504.524372 
L 396.84145 -503.710094 
L 399.029763 -502.873891 
L 401.209604 -502.015848 
L 403.380756 -501.136049 
L 405.543002 -500.234583 
L 407.696126 -499.31154 
L 409.839911 -498.367013 
L 411.974144 -497.401095 
L 414.098611 -496.413883 
L 416.2131 -495.405477 
L 418.3174 -494.375976 
L 420.411299 -493.325484 
L 422.494589 -492.254106 
L 424.567061 -491.161949 
L 426.628509 -490.049123 
L 428.678725 -488.915737 
L 430.717505 -487.761907 
L 432.744644 -486.587747 
L 434.759942 -485.393374 
L 436.763194 -484.178909 
L 438.754203 -482.944472 
L 440.732767 -481.690187 
L 442.69869 -480.41618 
L 444.651775 -479.122577 
L 446.591826 -477.809509 
L 448.51865 -476.477106 
L 450.432053 -475.125501 
L 452.331846 -473.754831 
L 454.217836 -472.365231 
L 456.089837 -470.956841 
L 457.94766 -469.529802 
L 459.791121 -468.084257 
L 461.620034 -466.620349 
L 463.434216 -465.138226 
L 465.233487 -463.638036 
L 467.017667 -462.119928 
L 468.786576 -460.584054 
L 470.540038 -459.030568 
L 472.277879 -457.459626 
L 473.999923 -455.871384 
L 475.705999 -454.266002 
L 477.395936 -452.643639 
L 479.069565 -451.004458 
L 480.726719 -449.348623 
L 482.367232 -447.6763 
L 483.99094 -445.987656 
L 485.59768 -444.282859 
L 487.187293 -442.56208 
L 488.759618 -440.825491 
L 490.3145 -439.073267 
L 491.851782 -437.305581 
L 493.37131 -435.522611 
L 494.872933 -433.724535 
L 496.3565 -431.911533 
L 497.821864 -430.083787 
L 499.268877 -428.241478 
L 500.697395 -426.384792 
L 502.107275 -424.513913 
L 503.498376 -422.62903 
L 504.870559 -420.73033 
L 506.223686 -418.818003 
L 507.557623 -416.892241 
L 508.872236 -414.953236 
L 510.167394 -413.001182 
L 511.442966 -411.036274 
L 512.698827 -409.058709 
L 513.934849 -407.068684 
L 515.150909 -405.066399 
L 516.346886 -403.052054 
L 517.52266 -401.02585 
L 518.678113 -398.987989 
L 519.813131 -396.938676 
L 520.927599 -394.878116 
L 522.021406 -392.806514 
L 523.094442 -390.724078 
L 524.146601 -388.631016 
L 525.177777 -386.527537 
L 526.187867 -384.413851 
L 527.17677 -382.290171 
L 528.144387 -380.156708 
L 529.090622 -378.013675 
L 530.015379 -375.861288 
L 530.918566 -373.69976 
L 531.800094 -371.529309 
L 532.659873 -369.350152 
L 533.497818 -367.162506 
L 534.313845 -364.966589 
L 535.107872 -362.762623 
L 535.879821 -360.550826 
L 536.629613 -358.331421 
L 537.357174 -356.104629 
L 538.062431 -353.870673 
L 538.745314 -351.629776 
L 539.405753 -349.382162 
L 540.043685 -347.128057 
L 540.659043 -344.867685 
L 541.251767 -342.601272 
L 541.821798 -340.329046 
L 542.369079 -338.051233 
L 542.893555 -335.768061 
L 543.395173 -333.479759 
L 543.873883 -331.186555 
L 544.329638 -328.888678 
L 544.762391 -326.58636 
L 545.1721 -324.279828 
L 545.558724 -321.969315 
L 545.922223 -319.655052 
L 546.262562 -317.337269 
L 546.579707 -315.016199 
L 546.873626 -312.692073 
L 547.144288 -310.365124 
L 547.391669 -308.035586 
L 547.615742 -305.70369 
L 547.816485 -303.369669 
L 547.993878 -301.033759 
L 548.147904 -298.696191 
L 548.278547 -296.357199 
L 548.385793 -294.017019 
L 548.469633 -291.675882 
L 548.530058 -289.334025 
L 548.567061 -286.99168 
L 548.58064 -284.649082 
L 548.570792 -282.306466 
L 548.537519 -279.964066 
L 548.480825 -277.622115 
L 548.400713 -275.280848 
L 548.297194 -272.940499 
L 548.170277 -270.601303 
L 548.019974 -268.263493 
L 547.846301 -265.927302 
L 547.649276 -263.592965 
L 547.428917 -261.260715 
L 547.185247 -258.930785 
L 546.91829 -256.603409 
L 546.628074 -254.278818 
L 546.314626 -251.957246 
L 545.977979 -249.638924 
L 545.618166 -247.324084 
L 545.235222 -245.012958 
L 544.829187 -242.705777 
L 544.400101 -240.402772 
L 543.948007 -238.104173 
L 543.47295 -235.810209 
L 542.974977 -233.521111 
L 542.454138 -231.237107 
L 541.910486 -228.958425 
L 541.344074 -226.685294 
L 540.75496 -224.41794 
L 540.143203 -222.156591 
L 539.508862 -219.901472 
L 538.852003 -217.65281 
L 538.17269 -215.410828 
L 537.470992 -213.175751 
L 536.746978 -210.947803 
L 536.000722 -208.727207 
L 535.232297 -206.514184 
L 534.441781 -204.308955 
L 533.629252 -202.111742 
L 532.794793 -199.922764 
L 531.938485 -197.74224 
L 531.060416 -195.570388 
L 530.160672 -193.407425 
L 529.239344 -191.253567 
L 528.296524 -189.10903 
L 527.332306 -186.974029 
L 526.346786 -184.848776 
L 525.340064 -182.733485 
L 524.312239 -180.628366 
L 523.263415 -178.533631 
L 522.193696 -176.449488 
L 521.10319 -174.376147 
L 519.992005 -172.313814 
L 518.860253 -170.262696 
L 517.708047 -168.222998 
L 516.535501 -166.194924 
L 515.342734 -164.178676 
L 514.129864 -162.174457 
L 512.897013 -160.182467 
L 511.644305 -158.202904 
L 510.371863 -156.235967 
L 509.079816 -154.281853 
L 507.768293 -152.340757 
L 506.437425 -150.412872 
L 505.087344 -148.498393 
L 503.718187 -146.59751 
L 502.33009 -144.710413 
L 500.923191 -142.837292 
L 499.497632 -140.978332 
L 498.053555 -139.133721 
L 496.591104 -137.303643 
L 495.110426 -135.488281 
L 493.611669 -133.687816 
L 492.094982 -131.902428 
L 490.560518 -130.132296 
L 489.008429 -128.377597 
L 487.438871 -126.638507 
L 485.852001 -124.915199 
L 484.247978 -123.207845 
L 482.626961 -121.516616 
L 480.989114 -119.841683 
L 479.334599 -118.183211 
L 477.663583 -116.541366 
L 475.976232 -114.916314 
L 474.272715 -113.308217 
L 472.553203 -111.717234 
L 470.817867 -110.143526 
L 469.066881 -108.58725 
L 467.30042 -107.048561 
L 465.51866 -105.527613 
L 463.721781 -104.024559 
L 461.909961 -102.539548 
L 460.083382 -101.07273 
L 458.242226 -99.62425 
L 456.386678 -98.194254 
L 454.516923 -96.782885 
L 452.633148 -95.390283 
L 450.735541 -94.016589 
L 448.824292 -92.661939 
L 446.899593 -91.326468 
L 444.961635 -90.010312 
L 443.010613 -88.7136 
L 441.046722 -87.436463 
L 439.070158 -86.179029 
L 437.081118 -84.941423 
L 435.079802 -83.723768 
L 433.06641 -82.526188 
L 431.041142 -81.3488 
L 429.004203 -80.191725 
L 426.955794 -79.055075 
L 424.896122 -77.938967 
L 422.825392 -76.843511 
L 420.743811 -75.768816 
L 418.651587 -74.714991 
L 416.54893 -73.68214 
L 414.43605 -72.670367 
L 412.313157 -71.679773 
L 410.180465 -70.710458 
L 408.038187 -69.762517 
L 405.886537 -68.836046 
L 403.725729 -67.931137 
L 401.555981 -67.047882 
L 399.377509 -66.186368 
L 397.19053 -65.346681 
L 394.995265 -64.528906 
L 392.791931 -63.733123 
L 390.58075 -62.959414 
L 388.361943 -62.207855 
L 386.135731 -61.478521 
L 383.902337 -60.771485 
L 381.661984 -60.086818 
L 379.414897 -59.424588 
L 377.1613 -58.784862 
L 374.901419 -58.167704 
L 372.635479 -57.573175 
L 370.363708 -57.001335 
L 368.086331 -56.452241 
L 365.803578 -55.925947 
L 363.515676 -55.422507 
L 361.222854 -54.941971 
L 358.925341 -54.484386 
L 356.623367 -54.0498 
L 354.317163 -53.638254 
L 352.006959 -53.249791 
L 349.692985 -52.884448 
L 347.375474 -52.542263 
L 345.054657 -52.223271 
L 342.730767 -51.927501 
L 340.404034 -51.654986 
L 338.074693 -51.40575 
L 335.742976 -51.17982 
L 333.409117 -50.977219 
L 331.073348 -50.797965 
L 328.735903 -50.642078 
L 326.397017 -50.509573 
L 324.056922 -50.400463 
L 321.715854 -50.314758 
L 319.374045 -50.252469 
L 317.03173 -50.2136 
L 314.689144 -50.198156 
L 314.316042 -50.197859 
L 314.316042 -50.197859 
Q 314.316042 -284.462531 314.316042 -50.197859 
L 314.316042 -50.197859 
L 314.316042 -50.197859 
L 311.973434 -50.209572 
L 309.631061 -50.24471 
L 307.289156 -50.30327 
L 304.947954 -50.385246 
L 302.607688 -50.490629 
L 300.268594 -50.619409 
L 297.930904 -50.771573 
L 295.594852 -50.947106 
L 293.260673 -51.145991 
L 290.928599 -51.368207 
L 288.598864 -51.613732 
L 286.271701 -51.882541 
L 283.947342 -52.174609 
L 281.62602 -52.489905 
L 279.307967 -52.828399 
L 276.993414 -53.190055 
L 274.682594 -53.574839 
L 272.375738 -53.982711 
L 270.073075 -54.413631 
L 267.774836 -54.867556 
L 265.481252 -55.344439 
L 263.192551 -55.844235 
L 260.908962 -56.366892 
L 258.630714 -56.912359 
L 256.358035 -57.48058 
L 254.091151 -58.0715 
L 251.830289 -58.685058 
L 249.575677 -59.321194 
L 247.327538 -59.979844 
L 245.086098 -60.660942 
L 242.85158 -61.36442 
L 240.62421 -62.090207 
L 238.404208 -62.838232 
L 236.191798 -63.608418 
L 233.987199 -64.40069 
L 231.790634 -65.214969 
L 229.602321 -66.051171 
L 227.42248 -66.909215 
L 225.251327 -67.789013 
L 223.089082 -68.690479 
L 220.935958 -69.613522 
L 218.792173 -70.55805 
L 216.65794 -71.523968 
L 214.533473 -72.511179 
L 212.418984 -73.519586 
L 210.314684 -74.549087 
L 208.220785 -75.599578 
L 206.137495 -76.670956 
L 204.065022 -77.763113 
L 202.003575 -78.87594 
L 199.953359 -80.009325 
L 197.914579 -81.163155 
L 195.887439 -82.337316 
L 193.872142 -83.531688 
L 191.86889 -84.746153 
L 189.877881 -85.98059 
L 187.899317 -87.234875 
L 185.933394 -88.508883 
L 183.980309 -89.802485 
L 182.040258 -91.115554 
L 180.113434 -92.447957 
L 178.20003 -93.799561 
L 176.300238 -95.170232 
L 174.414248 -96.559831 
L 172.542247 -97.968221 
L 170.684424 -99.39526 
L 168.840963 -100.840806 
L 167.01205 -102.304713 
L 165.197868 -103.786836 
L 163.398597 -105.287027 
L 161.614417 -106.805135 
L 159.845508 -108.341008 
L 158.092045 -109.894494 
L 156.354205 -111.465436 
L 154.632161 -113.053678 
L 152.926085 -114.659061 
L 151.236148 -116.281423 
L 149.562519 -117.920604 
L 147.905365 -119.576439 
L 146.264852 -121.248762 
L 144.641144 -122.937407 
L 143.034404 -124.642204 
L 141.444791 -126.362982 
L 139.872465 -128.099571 
L 138.317584 -129.851796 
L 136.780302 -131.619482 
L 135.260774 -133.402451 
L 133.759151 -135.200527 
L 132.275584 -137.013529 
L 130.81022 -138.841276 
L 129.363207 -140.683584 
L 127.934689 -142.540271 
L 126.524809 -144.411149 
L 125.133708 -146.296033 
L 123.761525 -148.194733 
L 122.408398 -150.10706 
L 121.074461 -152.032822 
L 119.759848 -153.971827 
L 118.46469 -155.923881 
L 117.189117 -157.888789 
L 115.933257 -159.866354 
L 114.697235 -161.856378 
L 113.481175 -163.858663 
L 112.285198 -165.873009 
L 111.109424 -167.899213 
L 109.953971 -169.937073 
L 108.818953 -171.986386 
L 107.704485 -174.046946 
L 106.610678 -176.118548 
L 105.537642 -178.200984 
L 104.485483 -180.294047 
L 103.454307 -182.397526 
L 102.444217 -184.511211 
L 101.455314 -186.634892 
L 100.487697 -188.768355 
L 99.541462 -190.911387 
L 98.616705 -193.063775 
L 97.713517 -195.225302 
L 96.83199 -197.395753 
L 95.972211 -199.574911 
L 95.134266 -201.762557 
L 94.318239 -203.958473 
L 93.524212 -206.16244 
L 92.752263 -208.374236 
L 92.002471 -210.593641 
L 91.27491 -212.820433 
L 90.569653 -215.05439 
L 89.88677 -217.295287 
L 89.22633 -219.5429 
L 88.588399 -221.797006 
L 87.973041 -224.057378 
L 87.380316 -226.32379 
L 86.810285 -228.596017 
L 86.263005 -230.87383 
L 85.738529 -233.157001 
L 85.236911 -235.445304 
L 84.758201 -237.738508 
L 84.302446 -240.036384 
L 83.869693 -242.338703 
L 83.459984 -244.645234 
L 83.07336 -246.955747 
L 82.709861 -249.270011 
L 82.369522 -251.587794 
L 82.052377 -253.908864 
L 81.758458 -256.232989 
L 81.487795 -258.559938 
L 81.240415 -260.889477 
L 81.016342 -263.221373 
L 80.815599 -265.555393 
L 80.638206 -267.891304 
L 80.48418 -270.228872 
L 80.353537 -272.567863 
L 80.246291 -274.908044 
L 80.162451 -277.24918 
L 80.102026 -279.591038 
L 80.065023 -281.933382 
L 80.051444 -284.27598 
L 80.061292 -286.618596 
L 80.094565 -288.960997 
L 80.151259 -291.302948 
L 80.231371 -293.644215 
L 80.33489 -295.984563 
L 80.461807 -298.32376 
L 80.61211 -300.66157 
L 80.785783 -302.99776 
L 80.982808 -305.332097 
L 81.203167 -307.664347 
L 81.446837 -309.994277 
L 81.713793 -312.321654 
L 82.00401 -314.646244 
L 82.317458 -316.967817 
L 82.654105 -319.286139 
L 83.013918 -321.600978 
L 83.396862 -323.912104 
L 83.802897 -326.219285 
L 84.231983 -328.52229 
L 84.684077 -330.82089 
L 85.159134 -333.114853 
L 85.657107 -335.403951 
L 86.177946 -337.687956 
L 86.721598 -339.966637 
L 87.288009 -342.239769 
L 87.877123 -344.507122 
L 88.488881 -346.768471 
L 89.123222 -349.02359 
L 89.780081 -351.272253 
L 90.459394 -353.514234 
L 91.161092 -355.749311 
L 91.885106 -357.977259 
L 92.631362 -360.197856 
L 93.399787 -362.410879 
L 94.190303 -364.616107 
L 95.002832 -366.81332 
L 95.837291 -369.002298 
L 96.693599 -371.182822 
L 97.571668 -373.354675 
L 98.471412 -375.517638 
L 99.39274 -377.671495 
L 100.33556 -379.816032 
L 101.299778 -381.951034 
L 102.285298 -384.076286 
L 103.29202 -386.191578 
L 104.319845 -388.296696 
L 105.368669 -390.391432 
L 106.438387 -392.475574 
L 107.528894 -394.548916 
L 108.640078 -396.611248 
L 109.771831 -398.662366 
L 110.924037 -400.702064 
L 112.096583 -402.730139 
L 113.28935 -404.746386 
L 114.50222 -406.750605 
L 115.735071 -408.742596 
L 116.987779 -410.722159 
L 118.260221 -412.689095 
L 119.552268 -414.64321 
L 120.863791 -416.584306 
L 122.194659 -418.51219 
L 123.54474 -420.42667 
L 124.913897 -422.327553 
L 126.301994 -424.214649 
L 127.708893 -426.087771 
L 129.134452 -427.94673 
L 130.578529 -429.791341 
L 132.040979 -431.621419 
L 133.521657 -433.436782 
L 135.020415 -435.237247 
L 136.537102 -437.022634 
L 138.071566 -438.792766 
L 139.623655 -440.547465 
L 141.193213 -442.286556 
L 142.780083 -444.009864 
L 144.384106 -445.717218 
L 146.005123 -447.408446 
L 147.64297 -449.08338 
L 149.297485 -450.741852 
L 150.968501 -452.383696 
L 152.655852 -454.008748 
L 154.359369 -455.616846 
L 156.078881 -457.207828 
L 157.814217 -458.781536 
L 159.565203 -460.337813 
L 161.331664 -461.876502 
L 163.113424 -463.397449 
L 164.910303 -464.900504 
L 166.722123 -466.385514 
L 168.548702 -467.852333 
L 170.389858 -469.300812 
L 172.245406 -470.730808 
L 174.115161 -472.142178 
L 175.998936 -473.534779 
L 177.896543 -474.908474 
L 179.807792 -476.263124 
L 181.732491 -477.598594 
L 183.670449 -478.914751 
L 185.621471 -480.211462 
L 187.585362 -481.488599 
L 189.561926 -482.746034 
L 191.550966 -483.98364 
L 193.552282 -485.201294 
L 195.565674 -486.398875 
L 197.590942 -487.576262 
L 199.627881 -488.733338 
L 201.67629 -489.869987 
L 203.735962 -490.986095 
L 205.806692 -492.081552 
L 207.888273 -493.156246 
L 209.980497 -494.210072 
L 212.083154 -495.242922 
L 214.196034 -496.254695 
L 216.318927 -497.245289 
L 218.451619 -498.214605 
L 220.593897 -499.162546 
L 222.745547 -500.089017 
L 224.906355 -500.993925 
L 227.076103 -501.877181 
L 229.254575 -502.738695 
L 231.441554 -503.578382 
L 233.636819 -504.396157 
L 235.840153 -505.191939 
L 238.051334 -505.965649 
L 240.270141 -506.717208 
L 242.496353 -507.446542 
L 244.729747 -508.153578 
L 246.9701 -508.838245 
L 249.217187 -509.500474 
L 251.470783 -510.1402 
L 253.730665 -510.757358 
L 255.996605 -511.351887 
L 258.268376 -511.923728 
L 260.545753 -512.472822 
L 262.828506 -512.999116 
L 265.116408 -513.502556 
L 267.40923 -513.983092 
L 269.706743 -514.440676 
L 272.008716 -514.875263 
L 274.314921 -515.286809 
L 276.625125 -515.675272 
L 278.939098 -516.040614 
L 281.25661 -516.382799 
L 283.577427 -516.701792 
L 285.901317 -516.997561 
L 288.22805 -517.270077 
L 290.557391 -517.519312 
L 292.889108 -517.745242 
L 295.222967 -517.947844 
L 297.558736 -518.127097 
L 299.896181 -518.282984 
L 302.235067 -518.41549 
L 304.575162 -518.5246 
L 306.91623 -518.610304 
L 309.258039 -518.672594 
L 311.600354 -518.711462 
L 313.94294 -518.726906 
L 314.316042 -518.727204 
L 314.316042 -518.727204 
Q 314.316042 -284.462531 314.316042 -518.727204 
z
" style="stroke: #808080; stroke-opacity: 0.5; stroke-width: 0.1"/>
    </defs>
    <g clip-path="url(#p5a6342a60b)">
     <use xlink:href="#m2db335ebbb" x="0" y="568.925062" style="fill: #000080; fill-opacity: 0.5; stroke: #808080; stroke-opacity: 0.5; stroke-width: 0.1"/>
    </g>
   </g>
   <g id="patch_4">
    <path d="M 314.316042 50.197859 
L 316.65865 50.209572 
L 319.001023 50.24471 
L 321.342928 50.30327 
L 323.68413 50.385246 
L 326.024396 50.490629 
L 328.36349 50.619409 
L 330.70118 50.771573 
L 333.037232 50.947106 
L 335.371411 51.145991 
L 337.703485 51.368207 
L 340.03322 51.613732 
L 342.360383 51.882541 
L 344.684742 52.174609 
L 347.006064 52.489905 
L 349.324117 52.828399 
L 351.638669 53.190055 
L 353.94949 53.574839 
L 356.256346 53.982711 
L 358.559009 54.413631 
L 360.857248 54.867556 
L 363.150832 55.344439 
L 365.439533 55.844235 
L 367.723122 56.366892 
L 370.00137 56.912359 
L 372.274049 57.48058 
L 374.540933 58.0715 
L 376.801795 58.685058 
L 379.056407 59.321194 
L 381.304546 59.979844 
L 383.545986 60.660942 
L 385.780503 61.36442 
L 388.007874 62.090207 
L 390.227876 62.838232 
L 392.440286 63.608418 
L 394.644884 64.40069 
L 396.84145 65.214969 
L 399.029763 66.051171 
L 401.209604 66.909215 
L 403.380756 67.789013 
L 405.543002 68.690479 
L 407.696126 69.613522 
L 409.839911 70.55805 
L 411.974144 71.523968 
L 414.098611 72.511179 
L 416.2131 73.519586 
L 418.3174 74.549087 
L 420.411299 75.599578 
L 422.494589 76.670956 
L 424.567061 77.763113 
L 426.628509 78.87594 
L 428.678725 80.009325 
L 430.717505 81.163155 
L 432.744644 82.337316 
L 434.759942 83.531688 
L 436.763194 84.746153 
L 438.754203 85.98059 
L 440.732767 87.234875 
L 442.69869 88.508883 
L 444.651775 89.802485 
L 446.591826 91.115554 
L 448.51865 92.447957 
L 450.432053 93.799561 
L 452.331846 95.170232 
L 454.217836 96.559831 
L 456.089837 97.968221 
L 457.94766 99.39526 
L 459.791121 100.840806 
L 461.620034 102.304713 
L 463.434216 103.786836 
L 465.233487 105.287027 
L 467.017667 106.805135 
L 468.786576 108.341008 
L 470.540038 109.894494 
L 472.277879 111.465436 
L 473.999923 113.053678 
L 475.705999 114.659061 
L 477.395936 116.281423 
L 479.069565 117.920604 
L 480.726719 119.576439 
L 482.367232 121.248762 
L 483.99094 122.937407 
L 485.59768 124.642204 
L 487.187293 126.362982 
L 488.759618 128.099571 
L 490.3145 129.851796 
L 491.851782 131.619482 
L 493.37131 133.402451 
L 494.872933 135.200527 
L 496.3565 137.013529 
L 497.821864 138.841276 
L 499.268877 140.683584 
L 500.697395 142.540271 
L 502.107275 144.411149 
L 503.498376 146.296033 
L 504.870559 148.194733 
L 506.223686 150.10706 
L 507.557623 152.032822 
L 508.872236 153.971827 
L 510.167394 155.923881 
L 511.442966 157.888789 
L 512.698827 159.866354 
L 513.934849 161.856378 
L 515.150909 163.858663 
L 516.346886 165.873009 
L 517.52266 167.899213 
L 518.678113 169.937073 
L 519.813131 171.986386 
L 520.927599 174.046946 
L 522.021406 176.118548 
L 523.094442 178.200984 
L 524.146601 180.294047 
L 525.177777 182.397526 
L 526.187867 184.511211 
L 527.17677 186.634892 
L 528.144387 188.768355 
L 529.090622 190.911387 
L 530.015379 193.063775 
L 530.918566 195.225302 
L 531.800094 197.395753 
L 532.659873 199.574911 
L 533.497818 201.762557 
L 534.313845 203.958473 
L 535.107872 206.16244 
L 535.879821 208.374236 
L 536.629613 210.593641 
L 537.357174 212.820433 
L 538.062431 215.05439 
L 538.745314 217.295287 
L 539.405753 219.5429 
L 540.043685 221.797006 
L 540.659043 224.057378 
L 541.251767 226.32379 
L 541.821798 228.596017 
L 542.369079 230.87383 
L 542.893555 233.157001 
L 543.395173 235.445304 
L 543.873883 237.738508 
L 544.329638 240.036384 
L 544.762391 242.338703 
L 545.1721 244.645234 
L 545.558724 246.955747 
L 545.922223 249.270011 
L 546.262562 251.587794 
L 546.579707 253.908864 
L 546.873626 256.232989 
L 547.144288 258.559938 
L 547.391669 260.889477 
L 547.615742 263.221373 
L 547.816485 265.555393 
L 547.993878 267.891304 
L 548.147904 270.228872 
L 548.278547 272.567863 
L 548.385793 274.908044 
L 548.469633 277.24918 
L 548.530058 279.591038 
L 548.567061 281.933382 
L 548.58064 284.27598 
L 548.570792 286.618596 
L 548.537519 288.960997 
L 548.480825 291.302948 
L 548.400713 293.644215 
L 548.297194 295.984563 
L 548.170277 298.32376 
L 548.019974 300.66157 
L 547.846301 302.99776 
L 547.649276 305.332097 
L 547.428917 307.664347 
L 547.185247 309.994277 
L 546.91829 312.321654 
L 546.628074 314.646244 
L 546.314626 316.967817 
L 545.977979 319.286139 
L 545.618166 321.600978 
L 545.235222 323.912104 
L 544.829187 326.219285 
L 544.400101 328.52229 
L 543.948007 330.82089 
L 543.47295 333.114853 
L 542.974977 335.403951 
L 542.454138 337.687956 
L 541.910486 339.966637 
L 541.344074 342.239769 
L 540.75496 344.507122 
L 540.143203 346.768471 
L 539.508862 349.02359 
L 538.852003 351.272253 
L 538.17269 353.514234 
L 537.470992 355.749311 
L 536.746978 357.977259 
L 536.000722 360.197856 
L 535.232297 362.410879 
L 534.441781 364.616107 
L 533.629252 366.81332 
L 532.794793 369.002298 
L 531.938485 371.182822 
L 531.060416 373.354675 
L 530.160672 375.517638 
L 529.239344 377.671495 
L 528.296524 379.816032 
L 527.332306 381.951034 
L 526.346786 384.076286 
L 525.340064 386.191578 
L 524.312239 388.296696 
L 523.263415 390.391432 
L 522.193696 392.475574 
L 521.10319 394.548916 
L 519.992005 396.611248 
L 518.860253 398.662366 
L 517.708047 400.702064 
L 516.535501 402.730139 
L 515.342734 404.746386 
L 514.129864 406.750605 
L 512.897013 408.742596 
L 511.644305 410.722159 
L 510.371863 412.689095 
L 509.079816 414.64321 
L 507.768293 416.584306 
L 506.437425 418.51219 
L 505.087344 420.42667 
L 503.718187 422.327553 
L 502.33009 424.214649 
L 500.923191 426.087771 
L 499.497632 427.94673 
L 498.053555 429.791341 
L 496.591104 431.621419 
L 495.110426 433.436782 
L 493.611669 435.237247 
L 492.094982 437.022634 
L 490.560518 438.792766 
L 489.008429 440.547465 
L 487.438871 442.286556 
L 485.852001 444.009864 
L 484.247978 445.717218 
L 482.626961 447.408446 
L 480.989114 449.08338 
L 479.334599 450.741852 
L 477.663583 452.383696 
L 475.976232 454.008748 
L 474.272715 455.616846 
L 472.553203 457.207828 
L 470.817867 458.781536 
L 469.066881 460.337813 
L 467.30042 461.876502 
L 465.51866 463.397449 
L 463.721781 464.900504 
L 461.909961 466.385514 
L 460.083382 467.852333 
L 458.242226 469.300812 
L 456.386678 470.730808 
L 454.516923 472.142178 
L 452.633148 473.534779 
L 450.735541 474.908474 
L 448.824292 476.263124 
L 446.899593 477.598594 
L 444.961635 478.914751 
L 443.010613 480.211462 
L 441.046722 481.488599 
L 439.070158 482.746034 
L 437.081118 483.98364 
L 435.079802 485.201294 
L 433.06641 486.398875 
L 431.041142 487.576262 
L 429.004203 488.733338 
L 426.955794 489.869987 
L 424.896122 490.986095 
L 422.825392 492.081552 
L 420.743811 493.156246 
L 418.651587 494.210072 
L 416.54893 495.242922 
L 414.43605 496.254695 
L 412.313157 497.245289 
L 410.180465 498.214605 
L 408.038187 499.162546 
L 405.886537 500.089017 
L 403.725729 500.993925 
L 401.555981 501.877181 
L 399.377509 502.738695 
L 397.19053 503.578382 
L 394.995265 504.396157 
L 392.791931 505.191939 
L 390.58075 505.965649 
L 388.361943 506.717208 
L 386.135731 507.446542 
L 383.902337 508.153578 
L 381.661984 508.838245 
L 379.414897 509.500474 
L 377.1613 510.1402 
L 374.901419 510.757358 
L 372.635479 511.351887 
L 370.363708 511.923728 
L 368.086331 512.472822 
L 365.803578 512.999116 
L 363.515676 513.502556 
L 361.222854 513.983092 
L 358.925341 514.440676 
L 356.623367 514.875263 
L 354.317163 515.286809 
L 352.006959 515.675272 
L 349.692985 516.040614 
L 347.375474 516.382799 
L 345.054657 516.701792 
L 342.730767 516.997561 
L 340.404034 517.270077 
L 338.074693 517.519312 
L 335.742976 517.745242 
L 333.409117 517.947844 
L 331.073348 518.127097 
L 328.735903 518.282984 
L 326.397017 518.41549 
L 324.056922 518.5246 
L 321.715854 518.610304 
L 319.374045 518.672594 
L 317.03173 518.711462 
L 314.689144 518.726906 
L 314.316042 518.727204 
L 314.316042 521.093513 
L 314.692913 521.093213 
L 317.059162 521.077613 
L 319.425136 521.038352 
L 321.790599 520.975433 
L 324.155315 520.888863 
L 326.519047 520.778651 
L 328.881559 520.644807 
L 331.242614 520.487345 
L 333.601976 520.306281 
L 335.95941 520.101633 
L 338.31468 519.873421 
L 340.667549 519.621668 
L 343.017784 519.3464 
L 345.365148 519.047643 
L 347.709408 518.725428 
L 350.050328 518.379787 
L 352.387675 518.010754 
L 354.721215 517.618367 
L 357.050714 517.202664 
L 359.37594 516.763688 
L 361.69666 516.301481 
L 364.012642 515.816091 
L 366.323654 515.307566 
L 368.629465 514.775956 
L 370.929846 514.221315 
L 373.224565 513.643699 
L 375.513393 513.043165 
L 377.796101 512.419772 
L 380.072462 511.773585 
L 382.342246 511.104666 
L 384.605229 510.413083 
L 386.861182 509.698906 
L 389.109881 508.962205 
L 391.351101 508.203054 
L 393.584617 507.421529 
L 395.810206 506.617709 
L 398.027646 505.791673 
L 400.236715 504.943505 
L 402.437192 504.073288 
L 404.628857 503.181111 
L 406.811491 502.267062 
L 408.984875 501.331233 
L 411.148793 500.373717 
L 413.303027 499.39461 
L 415.447363 498.39401 
L 417.581585 497.372017 
L 419.705482 496.328734 
L 421.818839 495.264264 
L 423.921446 494.178714 
L 426.013093 493.072192 
L 428.09357 491.94481 
L 430.162669 490.796679 
L 432.220184 489.627916 
L 434.265908 488.438636 
L 436.299638 487.228959 
L 438.321169 485.999005 
L 440.3303 484.748897 
L 442.32683 483.478762 
L 444.310558 482.188724 
L 446.281288 480.878915 
L 448.238821 479.549463 
L 450.182961 478.200504 
L 452.113515 476.83217 
L 454.03029 475.4446 
L 455.933093 474.037932 
L 457.821735 472.612306 
L 459.696026 471.167866 
L 461.555779 469.704755 
L 463.400809 468.22312 
L 465.23093 466.723109 
L 467.04596 465.204873 
L 468.845716 463.668562 
L 470.63002 462.114331 
L 472.398693 460.542334 
L 474.151558 458.95273 
L 475.888439 457.345677 
L 477.609163 455.721336 
L 479.313558 454.079869 
L 481.001453 452.421441 
L 482.67268 450.746217 
L 484.327072 449.054364 
L 485.964462 447.346053 
L 487.584688 445.621453 
L 489.187587 443.880738 
L 490.772999 442.124081 
L 492.340765 440.351657 
L 493.890729 438.563645 
L 495.422736 436.760223 
L 496.936632 434.941572 
L 498.432267 433.107873 
L 499.90949 431.259309 
L 501.368153 429.396065 
L 502.808112 427.518329 
L 504.229222 425.626287 
L 505.63134 423.720129 
L 507.014327 421.800045 
L 508.378045 419.866227 
L 509.722356 417.918869 
L 511.047127 415.958166 
L 512.352225 413.984313 
L 513.637519 411.997508 
L 514.902882 409.99795 
L 516.148186 407.985838 
L 517.373307 405.961375 
L 518.578122 403.924761 
L 519.762512 401.876201 
L 520.926356 399.8159 
L 522.06954 397.744064 
L 523.191949 395.660899 
L 524.293471 393.566615 
L 525.373995 391.461421 
L 526.433413 389.345526 
L 527.47162 387.219144 
L 528.488511 385.082486 
L 529.483985 382.935766 
L 530.457943 380.779199 
L 531.410286 378.613 
L 532.340921 376.437386 
L 533.249753 374.252575 
L 534.136692 372.058785 
L 535.001649 369.856235 
L 535.844537 367.645146 
L 536.665273 365.425739 
L 537.463774 363.198236 
L 538.239961 360.962859 
L 538.993756 358.719832 
L 539.725082 356.46938 
L 540.433869 354.211726 
L 541.120043 351.947098 
L 541.783537 349.675722 
L 542.424285 347.397824 
L 543.042222 345.113633 
L 543.637287 342.823377 
L 544.20942 340.527285 
L 544.758563 338.225586 
L 545.284663 335.918511 
L 545.787666 333.606291 
L 546.267522 331.289156 
L 546.724183 328.967338 
L 547.157603 326.64107 
L 547.567739 324.310585 
L 547.954551 321.976114 
L 548.317999 319.637892 
L 548.658046 317.296153 
L 548.97466 314.95113 
L 549.267808 312.603059 
L 549.537461 310.252173 
L 549.783592 307.898709 
L 550.006177 305.542901 
L 550.205193 303.184985 
L 550.38062 300.825197 
L 550.532441 298.463772 
L 550.66064 296.100947 
L 550.765205 293.736959 
L 550.846125 291.372043 
L 550.903393 289.006436 
L 550.937002 286.640375 
L 550.946949 284.274096 
L 550.933233 281.907835 
L 550.895856 279.541831 
L 550.834821 277.176318 
L 550.750134 274.811534 
L 550.641804 272.447715 
L 550.509842 270.085098 
L 550.35426 267.723918 
L 550.175075 265.364412 
L 549.972304 263.006816 
L 549.745968 260.651365 
L 549.496089 258.298296 
L 549.222692 255.947843 
L 548.925805 253.600241 
L 548.605457 251.255726 
L 548.26168 248.914531 
L 547.894508 246.576891 
L 547.503979 244.243039 
L 547.090132 241.91321 
L 546.653007 239.587635 
L 546.192649 237.266548 
L 545.709103 234.95018 
L 545.202418 232.638764 
L 544.672645 230.33253 
L 544.119836 228.031709 
L 543.544048 225.73653 
L 542.945336 223.447225 
L 542.323762 221.164021 
L 541.679387 218.887146 
L 541.012276 216.61683 
L 540.322495 214.353297 
L 539.610115 212.096776 
L 538.875204 209.847491 
L 538.117839 207.605667 
L 537.338093 205.37153 
L 536.536045 203.145301 
L 535.711775 200.927204 
L 534.865366 198.71746 
L 533.996902 196.516291 
L 533.106471 194.323916 
L 532.19416 192.140555 
L 531.260062 189.966426 
L 530.30427 187.801747 
L 529.326879 185.646734 
L 528.327987 183.501602 
L 527.307694 181.366566 
L 526.266102 179.24184 
L 525.203315 177.127636 
L 524.11944 175.024165 
L 523.014584 172.931638 
L 521.888859 170.850263 
L 520.742377 168.78025 
L 519.575252 166.721806 
L 518.387601 164.675135 
L 517.179544 162.640442 
L 515.9512 160.617932 
L 514.702693 158.607806 
L 513.434148 156.610266 
L 512.14569 154.625511 
L 510.83745 152.653739 
L 509.509558 150.695148 
L 508.162147 148.749934 
L 506.795352 146.81829 
L 505.409308 144.900412 
L 504.004156 142.996489 
L 502.580035 141.106713 
L 501.137087 139.231272 
L 499.675458 137.370354 
L 498.195293 135.524145 
L 496.69674 133.69283 
L 495.179949 131.876592 
L 493.645072 130.075612 
L 492.092262 128.290071 
L 490.521675 126.520147 
L 488.933467 124.766017 
L 487.327798 123.027857 
L 485.704827 121.30584 
L 484.064718 119.600138 
L 482.407634 117.910923 
L 480.733742 116.238363 
L 479.043207 114.582624 
L 477.3362 112.943874 
L 475.612891 111.322276 
L 473.873453 109.717991 
L 472.118059 108.131181 
L 470.346885 106.562003 
L 468.560107 105.010616 
L 466.757906 103.477173 
L 464.940461 101.961829 
L 463.107953 100.464735 
L 461.260566 98.986041 
L 459.398485 97.525894 
L 457.521896 96.08444 
L 455.630986 94.661824 
L 453.725945 93.258188 
L 451.806963 91.873673 
L 449.874232 90.508416 
L 447.927945 89.162554 
L 445.968297 87.836222 
L 443.995484 86.529553 
L 442.009704 85.242677 
L 440.011154 83.975722 
L 438.000034 82.728816 
L 435.976547 81.502084 
L 433.940893 80.295647 
L 431.893277 79.109626 
L 429.833903 77.944141 
L 427.762978 76.799308 
L 425.680708 75.67524 
L 423.587302 74.572052 
L 421.482968 73.489852 
L 419.367919 72.428749 
L 417.242363 71.388849 
L 415.106516 70.370257 
L 412.960589 69.373073 
L 410.804798 68.397399 
L 408.639359 67.44333 
L 406.464487 66.510964 
L 404.2804 65.600392 
L 402.087317 64.711706 
L 399.885457 63.844996 
L 397.67504 63.000347 
L 395.456287 62.177844 
L 393.22942 61.377569 
L 390.994662 60.599602 
L 388.752236 59.844022 
L 386.502367 59.110903 
L 384.245279 58.40032 
L 381.981198 57.712342 
L 379.710351 57.047039 
L 377.432964 56.404477 
L 375.149265 55.784722 
L 372.859484 55.187833 
L 370.563848 54.613872 
L 368.262587 54.062896 
L 365.955932 53.534959 
L 363.644113 53.030115 
L 361.327361 52.548414 
L 359.005908 52.089905 
L 356.679986 51.654632 
L 354.349827 51.24264 
L 352.015666 50.85397 
L 349.677734 50.48866 
L 347.336266 50.146748 
L 344.991496 49.828266 
L 342.643659 49.533249 
L 340.292989 49.261724 
L 337.939721 49.013718 
L 335.584091 48.789258 
L 333.226334 48.588364 
L 330.866687 48.411058 
L 328.505384 48.257357 
L 326.142662 48.127276 
L 323.778757 48.020829 
L 321.413907 47.938025 
L 319.048346 47.878874 
L 316.682312 47.843381 
L 314.316042 47.831549 
L 314.316042 50.197859 
z
" clip-path="url(#p5a6342a60b)" style="fill: none; stroke: #000000; stroke-width: 0.5; stroke-linejoin: miter"/>
   </g>
   <g id="patch_5">
    <path d="M 314.316042 518.727204 
L 311.973434 518.71549 
L 309.631061 518.680352 
L 307.289156 518.621792 
L 304.947954 518.539817 
L 302.607688 518.434434 
L 300.268594 518.305654 
L 297.930904 518.153489 
L 295.594852 517.977956 
L 293.260673 517.779072 
L 290.928599 517.556856 
L 288.598864 517.311331 
L 286.271701 517.042521 
L 283.947342 516.750453 
L 281.62602 516.435157 
L 279.307967 516.096664 
L 276.993414 515.735007 
L 274.682594 515.350224 
L 272.375738 514.942352 
L 270.073075 514.511432 
L 267.774836 514.057507 
L 265.481252 513.580623 
L 263.192551 513.080827 
L 260.908962 512.55817 
L 258.630714 512.012704 
L 256.358035 511.444482 
L 254.091151 510.853563 
L 251.830289 510.240004 
L 249.575677 509.603869 
L 247.327538 508.945219 
L 245.086098 508.264121 
L 242.85158 507.560643 
L 240.62421 506.834855 
L 238.404208 506.086831 
L 236.191798 505.316644 
L 233.987199 504.524372 
L 231.790634 503.710094 
L 229.602321 502.873891 
L 227.42248 502.015848 
L 225.251327 501.136049 
L 223.089082 500.234583 
L 220.935958 499.31154 
L 218.792173 498.367013 
L 216.65794 497.401095 
L 214.533473 496.413883 
L 212.418984 495.405477 
L 210.314684 494.375976 
L 208.220785 493.325484 
L 206.137495 492.254106 
L 204.065022 491.161949 
L 202.003575 490.049123 
L 199.953359 488.915737 
L 197.914579 487.761907 
L 195.887439 486.587747 
L 193.872142 485.393374 
L 191.86889 484.178909 
L 189.877881 482.944472 
L 187.899317 481.690187 
L 185.933394 480.41618 
L 183.980309 479.122577 
L 182.040258 477.809509 
L 180.113434 476.477106 
L 178.20003 475.125501 
L 176.300238 473.754831 
L 174.414248 472.365231 
L 172.542247 470.956841 
L 170.684424 469.529802 
L 168.840963 468.084257 
L 167.01205 466.620349 
L 165.197868 465.138226 
L 163.398597 463.638036 
L 161.614417 462.119928 
L 159.845508 460.584054 
L 158.092045 459.030568 
L 156.354205 457.459626 
L 154.632161 455.871384 
L 152.926085 454.266002 
L 151.236148 452.643639 
L 149.562519 451.004458 
L 147.905365 449.348623 
L 146.264852 447.6763 
L 144.641144 445.987656 
L 143.034404 444.282859 
L 141.444791 442.56208 
L 139.872465 440.825491 
L 138.317584 439.073267 
L 136.780302 437.305581 
L 135.260774 435.522611 
L 133.759151 433.724535 
L 132.275584 431.911533 
L 130.81022 430.083787 
L 129.363207 428.241478 
L 127.934689 426.384792 
L 126.524809 424.513913 
L 125.133708 422.62903 
L 123.761525 420.73033 
L 122.408398 418.818003 
L 121.074461 416.892241 
L 119.759848 414.953236 
L 118.46469 413.001182 
L 117.189117 411.036274 
L 115.933257 409.058709 
L 114.697235 407.068684 
L 113.481175 405.066399 
L 112.285198 403.052054 
L 111.109424 401.02585 
L 109.953971 398.987989 
L 108.818953 396.938676 
L 107.704485 394.878116 
L 106.610678 392.806514 
L 105.537642 390.724078 
L 104.485483 388.631016 
L 103.454307 386.527537 
L 102.444217 384.413851 
L 101.455314 382.290171 
L 100.487697 380.156708 
L 99.541462 378.013675 
L 98.616705 375.861288 
L 97.713517 373.69976 
L 96.83199 371.529309 
L 95.972211 369.350152 
L 95.134266 367.162506 
L 94.318239 364.966589 
L 93.524212 362.762623 
L 92.752263 360.550826 
L 92.002471 358.331421 
L 91.27491 356.104629 
L 90.569653 353.870673 
L 89.88677 351.629776 
L 89.22633 349.382162 
L 88.588399 347.128057 
L 87.973041 344.867685 
L 87.380316 342.601272 
L 86.810285 340.329046 
L 86.263005 338.051233 
L 85.738529 335.768061 
L 85.236911 333.479759 
L 84.758201 331.186555 
L 84.302446 328.888678 
L 83.869693 326.58636 
L 83.459984 324.279828 
L 83.07336 321.969315 
L 82.709861 319.655052 
L 82.369522 317.337269 
L 82.052377 315.016199 
L 81.758458 312.692073 
L 81.487795 310.365124 
L 81.240415 308.035586 
L 81.016342 305.70369 
L 80.815599 303.369669 
L 80.638206 301.033759 
L 80.48418 298.696191 
L 80.353537 296.357199 
L 80.246291 294.017019 
L 80.162451 291.675882 
L 80.102026 289.334025 
L 80.065023 286.99168 
L 80.051444 284.649082 
L 80.061292 282.306466 
L 80.094565 279.964066 
L 80.151259 277.622115 
L 80.231371 275.280848 
L 80.33489 272.940499 
L 80.461807 270.601303 
L 80.61211 268.263493 
L 80.785783 265.927302 
L 80.982808 263.592965 
L 81.203167 261.260715 
L 81.446837 258.930785 
L 81.713793 256.603409 
L 82.00401 254.278818 
L 82.317458 251.957246 
L 82.654105 249.638924 
L 83.013918 247.324084 
L 83.396862 245.012958 
L 83.802897 242.705777 
L 84.231983 240.402772 
L 84.684077 238.104173 
L 85.159134 235.810209 
L 85.657107 233.521111 
L 86.177946 231.237107 
L 86.721598 228.958425 
L 87.288009 226.685294 
L 87.877123 224.41794 
L 88.488881 222.156591 
L 89.123222 219.901472 
L 89.780081 217.65281 
L 90.459394 215.410828 
L 91.161092 213.175751 
L 91.885106 210.947803 
L 92.631362 208.727207 
L 93.399787 206.514184 
L 94.190303 204.308955 
L 95.002832 202.111742 
L 95.837291 199.922764 
L 96.693599 197.74224 
L 97.571668 195.570388 
L 98.471412 193.407425 
L 99.39274 191.253567 
L 100.33556 189.10903 
L 101.299778 186.974029 
L 102.285298 184.848776 
L 103.29202 182.733485 
L 104.319845 180.628366 
L 105.368669 178.533631 
L 106.438387 176.449488 
L 107.528894 174.376147 
L 108.640078 172.313814 
L 109.771831 170.262696 
L 110.924037 168.222998 
L 112.096583 166.194924 
L 113.28935 164.178676 
L 114.50222 162.174457 
L 115.735071 160.182467 
L 116.987779 158.202904 
L 118.260221 156.235967 
L 119.552268 154.281853 
L 120.863791 152.340757 
L 122.194659 150.412872 
L 123.54474 148.498393 
L 124.913897 146.59751 
L 126.301994 144.710413 
L 127.708893 142.837292 
L 129.134452 140.978332 
L 130.578529 139.133721 
L 132.040979 137.303643 
L 133.521657 135.488281 
L 135.020415 133.687816 
L 136.537102 131.902428 
L 138.071566 130.132296 
L 139.623655 128.377597 
L 141.193213 126.638507 
L 142.780083 124.915199 
L 144.384106 123.207845 
L 146.005123 121.516616 
L 147.64297 119.841683 
L 149.297485 118.183211 
L 150.968501 116.541366 
L 152.655852 114.916314 
L 154.359369 113.308217 
L 156.078881 111.717234 
L 157.814217 110.143526 
L 159.565203 108.58725 
L 161.331664 107.048561 
L 163.113424 105.527613 
L 164.910303 104.024559 
L 166.722123 102.539548 
L 168.548702 101.07273 
L 170.389858 99.62425 
L 172.245406 98.194254 
L 174.115161 96.782885 
L 175.998936 95.390283 
L 177.896543 94.016589 
L 179.807792 92.661939 
L 181.732491 91.326468 
L 183.670449 90.010312 
L 185.621471 88.7136 
L 187.585362 87.436463 
L 189.561926 86.179029 
L 191.550966 84.941423 
L 193.552282 83.723768 
L 195.565674 82.526188 
L 197.590942 81.3488 
L 199.627881 80.191725 
L 201.67629 79.055075 
L 203.735962 77.938967 
L 205.806692 76.843511 
L 207.888273 75.768816 
L 209.980497 74.714991 
L 212.083154 73.68214 
L 214.196034 72.670367 
L 216.318927 71.679773 
L 218.451619 70.710458 
L 220.593897 69.762517 
L 222.745547 68.836046 
L 224.906355 67.931137 
L 227.076103 67.047882 
L 229.254575 66.186368 
L 231.441554 65.346681 
L 233.636819 64.528906 
L 235.840153 63.733123 
L 238.051334 62.959414 
L 240.270141 62.207855 
L 242.496353 61.478521 
L 244.729747 60.771485 
L 246.9701 60.086818 
L 249.217187 59.424588 
L 251.470783 58.784862 
L 253.730665 58.167704 
L 255.996605 57.573175 
L 258.268376 57.001335 
L 260.545753 56.452241 
L 262.828506 55.925947 
L 265.116408 55.422507 
L 267.40923 54.941971 
L 269.706743 54.484386 
L 272.008716 54.0498 
L 274.314921 53.638254 
L 276.625125 53.249791 
L 278.939098 52.884448 
L 281.25661 52.542263 
L 283.577427 52.223271 
L 285.901317 51.927501 
L 288.22805 51.654986 
L 290.557391 51.40575 
L 292.889108 51.17982 
L 295.222967 50.977219 
L 297.558736 50.797965 
L 299.896181 50.642078 
L 302.235067 50.509573 
L 304.575162 50.400463 
L 306.91623 50.314758 
L 309.258039 50.252469 
L 311.600354 50.2136 
L 313.94294 50.198156 
L 314.316042 50.197859 
L 314.316042 47.831549 
L 313.939171 47.831849 
L 311.572922 47.847449 
L 309.206948 47.886711 
L 306.841485 47.949629 
L 304.476769 48.036199 
L 302.113037 48.146412 
L 299.750525 48.280255 
L 297.38947 48.437717 
L 295.030108 48.618781 
L 292.672674 48.823429 
L 290.317404 49.051641 
L 287.964535 49.303394 
L 285.6143 49.578663 
L 283.266935 49.877419 
L 280.922676 50.199634 
L 278.581756 50.545276 
L 276.244409 50.914308 
L 273.910869 51.306696 
L 271.58137 51.722398 
L 269.256144 52.161375 
L 266.935424 52.623581 
L 264.619442 53.108971 
L 262.30843 53.617497 
L 260.002618 54.149106 
L 257.702238 54.703747 
L 255.407519 55.281363 
L 253.118691 55.881898 
L 250.835983 56.50529 
L 248.559622 57.151478 
L 246.289838 57.820397 
L 244.026855 58.511979 
L 241.770902 59.226157 
L 239.522203 59.962858 
L 237.280983 60.722009 
L 235.047467 61.503533 
L 232.821878 62.307354 
L 230.604437 63.13339 
L 228.395369 63.981558 
L 226.194892 64.851774 
L 224.003227 65.743952 
L 221.820593 66.658001 
L 219.647209 67.59383 
L 217.483291 68.551346 
L 215.329057 69.530452 
L 213.184721 70.531052 
L 211.050499 71.553045 
L 208.926602 72.596329 
L 206.813245 73.660799 
L 204.710638 74.746349 
L 202.618991 75.85287 
L 200.538514 76.980253 
L 198.469415 78.128383 
L 196.4119 79.297147 
L 194.366176 80.486427 
L 192.332446 81.696104 
L 190.310915 82.926058 
L 188.301784 84.176165 
L 186.305254 85.446301 
L 184.321525 86.736338 
L 182.350796 88.046148 
L 180.393263 89.375599 
L 178.449123 90.724559 
L 176.518568 92.092892 
L 174.601794 93.480462 
L 172.698991 94.887131 
L 170.810349 96.312756 
L 168.936058 97.757197 
L 167.076305 99.220307 
L 165.231275 100.701942 
L 163.401154 102.201953 
L 161.586124 103.72019 
L 159.786368 105.256501 
L 158.002064 106.810732 
L 156.233391 108.382728 
L 154.480526 109.972332 
L 152.743645 111.579385 
L 151.022921 113.203726 
L 149.318526 114.845193 
L 147.630631 116.503622 
L 145.959404 118.178846 
L 144.305012 119.870698 
L 142.667622 121.57901 
L 141.047396 123.303609 
L 139.444497 125.044325 
L 137.859085 126.800982 
L 136.291319 128.573405 
L 134.741355 130.361417 
L 133.209348 132.164839 
L 131.695452 133.983491 
L 130.199817 135.81719 
L 128.722594 137.665754 
L 127.263931 139.528997 
L 125.823972 141.406734 
L 124.402862 143.298776 
L 123.000744 145.204934 
L 121.617757 147.125018 
L 120.254039 149.058835 
L 118.909728 151.006193 
L 117.584957 152.966896 
L 116.279859 154.940749 
L 114.994565 156.927554 
L 113.729202 158.927112 
L 112.483898 160.939224 
L 111.258777 162.963688 
L 110.053962 165.000302 
L 108.869572 167.048862 
L 107.705727 169.109163 
L 106.562543 171.180999 
L 105.440135 173.264163 
L 104.338613 175.358447 
L 103.258089 177.463642 
L 102.198671 179.579536 
L 101.160464 181.705919 
L 100.143573 183.842577 
L 99.148099 185.989297 
L 98.174141 188.145864 
L 97.221798 190.312063 
L 96.291163 192.487676 
L 95.382331 194.672487 
L 94.495392 196.866278 
L 93.630435 199.068827 
L 92.787547 201.279916 
L 91.966811 203.499323 
L 91.168309 205.726827 
L 90.392123 207.962204 
L 89.638328 210.20523 
L 88.907002 212.455683 
L 88.198215 214.713336 
L 87.512041 216.977964 
L 86.848547 219.24934 
L 86.207799 221.527238 
L 85.589862 223.811429 
L 84.994797 226.101686 
L 84.422664 228.397778 
L 83.873521 230.699476 
L 83.347421 233.006551 
L 82.844418 235.318772 
L 82.364562 237.635907 
L 81.907901 239.957724 
L 81.474481 242.283992 
L 81.064345 244.614478 
L 80.677533 246.948948 
L 80.314085 249.28717 
L 79.974038 251.628909 
L 79.657424 253.973932 
L 79.364276 256.322004 
L 79.094623 258.672889 
L 78.848492 261.026353 
L 78.625907 263.382162 
L 78.426891 265.740078 
L 78.251464 268.099866 
L 78.099643 270.46129 
L 77.971444 272.824115 
L 77.866879 275.188104 
L 77.785959 277.55302 
L 77.728691 279.918626 
L 77.695082 282.284688 
L 77.685135 284.650967 
L 77.698851 287.017227 
L 77.736228 289.383232 
L 77.797263 291.748744 
L 77.88195 294.113529 
L 77.99028 296.477347 
L 78.122242 298.839965 
L 78.277824 301.201145 
L 78.457009 303.560651 
L 78.65978 305.918247 
L 78.886116 308.273697 
L 79.135995 310.626767 
L 79.409392 312.97722 
L 79.706279 315.324822 
L 80.026627 317.669337 
L 80.370404 320.010532 
L 80.737576 322.348172 
L 81.128105 324.682023 
L 81.541952 327.011853 
L 81.979077 329.337427 
L 82.439435 331.658515 
L 82.922981 333.974882 
L 83.429666 336.286299 
L 83.959439 338.592533 
L 84.512247 340.893354 
L 85.088036 343.188532 
L 85.686748 345.477838 
L 86.308322 347.761042 
L 86.952697 350.037916 
L 87.619808 352.308233 
L 88.309588 354.571765 
L 89.021969 356.828287 
L 89.756879 359.077572 
L 90.514245 361.319395 
L 91.293991 363.553533 
L 92.096039 365.779762 
L 92.920309 367.997859 
L 93.766718 370.207603 
L 94.635181 372.408772 
L 95.525613 374.601147 
L 96.437924 376.784507 
L 97.372022 378.958636 
L 98.327814 381.123316 
L 99.305205 383.278329 
L 100.304097 385.423461 
L 101.32439 387.558496 
L 102.365982 389.683223 
L 103.428769 391.797427 
L 104.512644 393.900898 
L 105.6175 395.993425 
L 106.743225 398.074799 
L 107.889707 400.144812 
L 109.056832 402.203257 
L 110.244483 404.249928 
L 111.45254 406.28462 
L 112.680884 408.30713 
L 113.929391 410.317256 
L 115.197936 412.314797 
L 116.486394 414.299552 
L 117.794634 416.271324 
L 119.122525 418.229915 
L 120.469937 420.175129 
L 121.836732 422.106772 
L 123.222776 424.024651 
L 124.627928 425.928574 
L 126.052049 427.81835 
L 127.494997 429.693791 
L 128.956626 431.554709 
L 130.436791 433.400917 
L 131.935344 435.232232 
L 133.452135 437.04847 
L 134.987012 438.84945 
L 136.539822 440.634991 
L 138.110409 442.404915 
L 139.698617 444.159045 
L 141.304286 445.897206 
L 142.927257 447.619223 
L 144.567366 449.324924 
L 146.224449 451.01414 
L 147.898342 452.6867 
L 149.588877 454.342438 
L 151.295884 455.981188 
L 153.019193 457.602787 
L 154.758631 459.207072 
L 156.514025 460.793882 
L 158.285199 462.363059 
L 160.071977 463.914447 
L 161.874178 465.447889 
L 163.691623 466.963233 
L 165.524131 468.460327 
L 167.371518 469.939022 
L 169.233599 471.399169 
L 171.110188 472.840622 
L 173.001098 474.263238 
L 174.906139 475.666874 
L 176.825121 477.05139 
L 178.757852 478.416647 
L 180.704139 479.762508 
L 182.663787 481.08884 
L 184.6366 482.39551 
L 186.62238 483.682386 
L 188.62093 484.94934 
L 190.63205 486.196246 
L 192.655537 487.422979 
L 194.691191 488.629416 
L 196.738807 489.815436 
L 198.798181 490.980921 
L 200.869106 492.125755 
L 202.951376 493.249822 
L 205.044782 494.353011 
L 207.149115 495.435211 
L 209.264165 496.496314 
L 211.38972 497.536213 
L 213.525568 498.554806 
L 215.671495 499.551989 
L 217.827285 500.527664 
L 219.992725 501.481732 
L 222.167597 502.414099 
L 224.351684 503.32467 
L 226.544767 504.213356 
L 228.746627 505.080067 
L 230.957044 505.924716 
L 233.175797 506.747219 
L 235.402664 507.547494 
L 237.637422 508.32546 
L 239.879848 509.081041 
L 242.129717 509.814159 
L 244.386805 510.524743 
L 246.650886 511.212721 
L 248.921733 511.878024 
L 251.19912 512.520585 
L 253.482818 513.140341 
L 255.7726 513.737229 
L 258.068236 514.31119 
L 260.369497 514.862167 
L 262.676152 515.390103 
L 264.987971 515.894947 
L 267.304723 516.376648 
L 269.626176 516.835158 
L 271.952098 517.270431 
L 274.282257 517.682423 
L 276.616418 518.071093 
L 278.95435 518.436403 
L 281.295818 518.778315 
L 283.640587 519.096796 
L 285.988425 519.391814 
L 288.339095 519.663339 
L 290.692363 519.911344 
L 293.047993 520.135805 
L 295.405749 520.336698 
L 297.765397 520.514004 
L 300.1267 520.667705 
L 302.489422 520.797786 
L 304.853327 520.904234 
L 307.218177 520.987037 
L 309.583738 521.046189 
L 311.949772 521.081682 
L 314.316042 521.093513 
L 314.316042 518.727204 
z
" clip-path="url(#p5a6342a60b)" style="fill: none; stroke: #000000; stroke-width: 0.5; stroke-linejoin: miter"/>
   </g>
   <g id="text_1">
    <text style="font: 3px 'DejaVu Sans', 'Bitstream Vera Sans', 'Computer Modern Sans Serif', 'Lucida Grande', 'Verdana', 'Geneva', 'Lucid', 'Arial', 'Helvetica', 'Avant Garde', sans-serif; text-anchor: start" x="553.313334" y="285.602297" transform="rotate(-0 553.313334 285.602297)">University of Montenegro</text>
   </g>
   <g id="text_2">
    <text style="font: 3px 'DejaVu Sans', 'Bitstream Vera Sans', 'Computer Modern Sans Serif', 'Lucida Grande', 'Verdana', 'Geneva', 'Lucid', 'Arial', 'Helvetica', 'Avant Garde', sans-serif; text-anchor: end" x="75.31875" y="285.602297" transform="rotate(-0 75.31875 285.602297)">University of Donja Gorica</text>
   </g>
  </g>
 </g>
 <defs>
  <clipPath id="p5a6342a60b">
   <path d="M 562.778573 284.462531 
C 562.778573 251.834731 556.351608 219.524194 543.865489 189.380037 
C 531.37937 159.23588 513.076922 131.84433 490.005583 108.772991 
C 466.934244 85.701651 439.542693 67.399203 409.398536 54.913084 
C 379.254379 42.426965 346.943843 36 314.316042 36 
C 281.688241 36 249.377705 42.426965 219.233548 54.913084 
C 189.08939 67.399203 161.69784 85.701651 138.626501 108.772991 
C 115.555162 131.84433 97.252713 159.23588 84.766595 189.380037 
C 72.280476 219.524194 65.853511 251.834731 65.853511 284.462531 
C 65.853511 317.090332 72.280476 349.400868 84.766595 379.545026 
C 97.252713 409.689183 115.555162 437.080733 138.626501 460.152072 
C 161.69784 483.223411 189.08939 501.52586 219.233548 514.011978 
C 249.377705 526.498097 281.688241 532.925062 314.316042 532.925062 
C 346.943843 532.925062 379.254379 526.498097 409.398536 514.011978 
C 439.542693 501.52586 466.934244 483.223411 490.005583 460.152072 
C 513.076922 437.080733 531.37937 409.689183 543.865489 379.545026 
C 556.351608 349.400868 562.778573 317.090332 562.778573 284.462531 
M 314.316042 284.462531 
C 314.316042 284.462531 314.316042 284.462531 314.316042 284.462531 
C 314.316042 284.462531 314.316042 284.462531 314.316042 284.462531 
C 314.316042 284.462531 314.316042 284.462531 314.316042 284.462531 
C 314.316042 284.462531 314.316042 284.462531 314.316042 284.462531 
C 314.316042 284.462531 314.316042 284.462531 314.316042 284.462531 
C 314.316042 284.462531 314.316042 284.462531 314.316042 284.462531 
C 314.316042 284.462531 314.316042 284.462531 314.316042 284.462531 
C 314.316042 284.462531 314.316042 284.462531 314.316042 284.462531 
C 314.316042 284.462531 314.316042 284.462531 314.316042 284.462531 
C 314.316042 284.462531 314.316042 284.462531 314.316042 284.462531 
C 314.316042 284.462531 314.316042 284.462531 314.316042 284.462531 
C 314.316042 284.462531 314.316042 284.462531 314.316042 284.462531 
C 314.316042 284.462531 314.316042 284.462531 314.316042 284.462531 
C 314.316042 284.462531 314.316042 284.462531 314.316042 284.462531 
C 314.316042 284.462531 314.316042 284.462531 314.316042 284.462531 
C 314.316042 284.462531 314.316042 284.462531 314.316042 284.462531 
z
"/>
  </clipPath>
 </defs>
</svg>
