<?xml version="1.0" encoding="utf-8" standalone="no"?>
<!DOCTYPE svg PUBLIC "-//W3C//DTD SVG 1.1//EN"
  "http://www.w3.org/Graphics/SVG/1.1/DTD/svg11.dtd">
<svg xmlns:xlink="http://www.w3.org/1999/xlink" width="627.342146pt" height="566.388656pt" viewBox="0 0 627.342146 566.388656" xmlns="http://www.w3.org/2000/svg" version="1.1">
 <metadata>
  <rdf:RDF xmlns:dc="http://purl.org/dc/elements/1.1/" xmlns:cc="http://creativecommons.org/ns#" xmlns:rdf="http://www.w3.org/1999/02/22-rdf-syntax-ns#">
   <cc:Work>
    <dc:type rdf:resource="http://purl.org/dc/dcmitype/StillImage"/>
    <dc:date>2024-11-16T04:23:22.312693</dc:date>
    <dc:format>image/svg+xml</dc:format>
    <dc:creator>
     <cc:Agent>
      <dc:title>Matplotlib v3.8.4, https://matplotlib.org/</dc:title>
     </cc:Agent>
    </dc:creator>
   </cc:Work>
  </rdf:RDF>
 </metadata>
 <defs>
  <style type="text/css">*{stroke-linejoin: round; stroke-linecap: butt}</style>
 </defs>
 <g id="figure_1">
  <g id="patch_1">
   <path d="M 0 566.388656 
L 627.342146 566.388656 
L 627.342146 0 
L 0 0 
z
" style="fill: #ffffff"/>
  </g>
  <g id="axes_1">
   <g id="patch_2">
    <path d="M 304.188964 50.12539 
L 306.519614 50.137044 
L 308.850032 50.172002 
L 311.179983 50.230263 
L 313.509235 50.31182 
L 315.837556 50.416666 
L 318.164711 50.544788 
L 320.490469 50.696176 
L 322.814597 50.870813 
L 325.136862 51.068682 
L 327.457032 51.289764 
L 329.774876 51.534036 
L 332.090161 51.801474 
L 334.402656 52.092051 
L 336.712129 52.405738 
L 339.018351 52.742503 
L 341.321089 53.102314 
L 343.620114 53.485133 
L 345.915196 53.890924 
L 348.206106 54.319644 
L 350.492614 54.771252 
L 352.774491 55.245702 
L 355.05151 55.742946 
L 357.323443 56.262936 
L 359.590063 56.805618 
L 361.851142 57.370939 
L 364.106455 57.958842 
L 366.355777 58.569269 
L 368.598881 59.202158 
L 370.835545 59.857446 
L 373.065545 60.535067 
L 375.288656 61.234954 
L 377.504658 61.957037 
L 379.713328 62.701244 
L 381.914446 63.467499 
L 384.107792 64.255728 
L 386.293145 65.065849 
L 388.470289 65.897784 
L 390.639004 66.751448 
L 392.799074 67.626756 
L 394.950283 68.52362 
L 397.092417 69.441952 
L 399.22526 70.381659 
L 401.348599 71.342646 
L 403.462223 72.324819 
L 405.565919 73.328078 
L 407.659478 74.352324 
L 409.742689 75.397454 
L 411.815346 76.463364 
L 413.87724 77.549946 
L 415.928165 78.657092 
L 417.967916 79.784693 
L 419.99629 80.932634 
L 422.013083 82.100801 
L 424.018093 83.289077 
L 426.011121 84.497343 
L 427.991967 85.725479 
L 429.960432 86.973362 
L 431.916321 88.240867 
L 433.859437 89.527867 
L 435.789585 90.834233 
L 437.706574 92.159835 
L 439.610212 93.504541 
L 441.500307 94.868215 
L 443.376671 96.250722 
L 445.239117 97.651923 
L 447.087457 99.071678 
L 448.921508 100.509845 
L 450.741086 101.96628 
L 452.546009 103.440839 
L 454.336096 104.933372 
L 456.111169 106.443731 
L 457.871049 107.971765 
L 459.615561 109.517322 
L 461.344531 111.080245 
L 463.057786 112.660381 
L 464.755153 114.257569 
L 466.436465 115.871651 
L 468.101551 117.502465 
L 469.750247 119.149848 
L 471.382386 120.813635 
L 472.997806 122.493661 
L 474.596346 124.189756 
L 476.177845 125.901751 
L 477.742145 127.629476 
L 479.28909 129.372757 
L 480.818525 131.13142 
L 482.330297 132.90529 
L 483.824256 134.694188 
L 485.300251 136.497936 
L 486.758135 138.316353 
L 488.197762 140.149258 
L 489.618988 141.996468 
L 491.021672 143.857797 
L 492.405673 145.73306 
L 493.770852 147.622068 
L 495.117073 149.524634 
L 496.444201 151.440567 
L 497.752104 153.369675 
L 499.040651 155.311765 
L 500.309713 157.266644 
L 501.559162 159.234115 
L 502.788876 161.213982 
L 503.998729 163.206047 
L 505.188601 165.21011 
L 506.358374 167.225972 
L 507.50793 169.253431 
L 508.637154 171.292284 
L 509.745933 173.342327 
L 510.834157 175.403355 
L 511.901717 177.475162 
L 512.948505 179.557541 
L 513.974418 181.650283 
L 514.979352 183.75318 
L 515.963208 185.866021 
L 516.925886 187.988594 
L 517.867291 190.120688 
L 518.787328 192.262089 
L 519.685905 194.412584 
L 520.562933 196.571956 
L 521.418324 198.739991 
L 522.251992 200.916471 
L 523.063853 203.101179 
L 523.853828 205.293896 
L 524.621836 207.494403 
L 525.367801 209.70248 
L 526.091649 211.917906 
L 526.793306 214.14046 
L 527.472703 216.369919 
L 528.129772 218.60606 
L 528.764447 220.84866 
L 529.376664 223.097495 
L 529.966363 225.352339 
L 530.533485 227.612968 
L 531.077972 229.879154 
L 531.599771 232.150672 
L 532.098828 234.427294 
L 532.575095 236.708793 
L 533.028523 238.994941 
L 533.459068 241.285508 
L 533.866686 243.580267 
L 534.251336 245.878986 
L 534.61298 248.181437 
L 534.951582 250.48739 
L 535.267108 252.796613 
L 535.559526 255.108876 
L 535.828808 257.423947 
L 536.074925 259.741595 
L 536.297855 262.061589 
L 536.497573 264.383696 
L 536.674061 266.707684 
L 536.827301 269.03332 
L 536.957276 271.360373 
L 537.063976 273.688609 
L 537.147388 276.017795 
L 537.207504 278.3477 
L 537.244319 280.678089 
L 537.257828 283.008729 
L 537.248031 285.339388 
L 537.214927 287.669833 
L 537.158522 289.99983 
L 537.07882 292.329146 
L 536.975829 294.657549 
L 536.849559 296.984806 
L 536.700024 299.310684 
L 536.527237 301.63495 
L 536.331217 303.957372 
L 536.111983 306.277717 
L 535.869557 308.595755 
L 535.603963 310.911252 
L 535.315228 313.223978 
L 535.00338 315.5337 
L 534.668451 317.840189 
L 534.310475 320.143213 
L 533.929486 322.442542 
L 533.525523 324.737947 
L 533.098627 327.029197 
L 532.648841 329.316064 
L 532.176208 331.598319 
L 531.680777 333.875733 
L 531.162597 336.148079 
L 530.62172 338.41513 
L 530.058199 340.676659 
L 529.472092 342.932439 
L 528.863457 345.182246 
L 528.232354 347.425854 
L 527.578848 349.663039 
L 526.903002 351.893577 
L 526.204886 354.117246 
L 525.484568 356.333822 
L 524.74212 358.543084 
L 523.977618 360.744812 
L 523.191136 362.938784 
L 522.382755 365.124782 
L 521.552555 367.302587 
L 520.700618 369.471981 
L 519.82703 371.632748 
L 518.931879 373.784671 
L 518.015254 375.927535 
L 517.077246 378.061125 
L 516.117949 380.185229 
L 515.13746 382.299634 
L 514.135876 384.404129 
L 513.113298 386.498503 
L 512.069827 388.582546 
L 511.005569 390.656051 
L 509.920629 392.718809 
L 508.815116 394.770615 
L 507.68914 396.811264 
L 506.542815 398.840551 
L 505.376254 400.858274 
L 504.189575 402.86423 
L 502.982896 404.858219 
L 501.756338 406.840042 
L 500.510023 408.809501 
L 499.244076 410.766398 
L 497.958624 412.710538 
L 496.653795 414.641727 
L 495.32972 416.55977 
L 493.986531 418.464478 
L 492.624362 420.355659 
L 491.24335 422.233123 
L 489.843632 424.096684 
L 488.42535 425.946155 
L 486.988644 427.78135 
L 485.533657 429.602087 
L 484.060537 431.408184 
L 482.56943 433.199459 
L 481.060485 434.975733 
L 479.533852 436.73683 
L 477.989686 438.482573 
L 476.428139 440.212787 
L 474.849369 441.927299 
L 473.253533 443.625938 
L 471.64079 445.308534 
L 470.011303 446.974919 
L 468.365233 448.624925 
L 466.702746 450.258389 
L 465.024007 451.875147 
L 463.329186 453.475037 
L 461.61845 455.057898 
L 459.891971 456.623574 
L 458.149923 458.171907 
L 456.392478 459.702742 
L 454.619813 461.215926 
L 452.832106 462.711308 
L 451.029534 464.188739 
L 449.212278 465.648071 
L 447.38052 467.089157 
L 445.534442 468.511854 
L 443.674231 469.91602 
L 441.800071 471.301513 
L 439.91215 472.668196 
L 438.010657 474.015932 
L 436.095781 475.344585 
L 434.167716 476.654024 
L 432.226652 477.944117 
L 430.272785 479.214735 
L 428.306309 480.465751 
L 426.327422 481.697041 
L 424.336321 482.90848 
L 422.333206 484.099948 
L 420.318276 485.271325 
L 418.291733 486.422495 
L 416.25378 487.553343 
L 414.204621 488.663754 
L 412.14446 489.753619 
L 410.073504 490.822828 
L 407.991959 491.871275 
L 405.900034 492.898853 
L 403.797939 493.905462 
L 401.685882 494.891 
L 399.564076 495.855368 
L 397.432732 496.79847 
L 395.292064 497.720212 
L 393.142286 498.620502 
L 390.983612 499.499249 
L 388.81626 500.356366 
L 386.640444 501.191767 
L 384.456383 502.005368 
L 382.264296 502.797088 
L 380.064401 503.566849 
L 377.856919 504.314572 
L 375.64207 505.040183 
L 373.420076 505.74361 
L 371.191159 506.424782 
L 368.955541 507.083632 
L 366.713447 507.720092 
L 364.465101 508.334101 
L 362.210727 508.925595 
L 359.950551 509.494516 
L 357.684799 510.040808 
L 355.413697 510.564415 
L 353.137473 511.065286 
L 350.856354 511.543369 
L 348.570568 511.998618 
L 346.280344 512.430986 
L 343.985911 512.840432 
L 341.687499 513.226912 
L 339.385336 513.59039 
L 337.079654 513.930828 
L 334.770683 514.248193 
L 332.458654 514.542452 
L 330.143798 514.813577 
L 327.826346 515.06154 
L 325.506531 515.286317 
L 323.184584 515.487884 
L 320.860737 515.666223 
L 318.535223 515.821314 
L 316.208275 515.953143 
L 313.880125 516.061696 
L 311.551005 516.146963 
L 309.22115 516.208935 
L 306.890791 516.247605 
L 304.560162 516.26297 
L 304.188964 516.263266 
L 304.188964 518.617498 
L 304.563911 518.617199 
L 306.918082 518.601679 
L 309.27198 518.562618 
L 311.625369 518.50002 
L 313.978015 518.413892 
L 316.329682 518.304242 
L 318.680135 518.171082 
L 321.029139 518.014424 
L 323.376459 517.834284 
L 325.72186 517.63068 
L 328.065108 517.403633 
L 330.405968 517.153165 
L 332.744206 516.879302 
L 335.079589 516.58207 
L 337.411883 516.2615 
L 339.740855 515.917623 
L 342.066272 515.550474 
L 344.387901 515.160089 
L 346.70551 514.746508 
L 349.018867 514.309772 
L 351.327742 513.849925 
L 353.631902 513.367013 
L 355.931118 512.861083 
L 358.225161 512.332187 
L 360.513799 511.780377 
L 362.796805 511.205709 
L 365.073951 510.60824 
L 367.345008 509.988029 
L 369.609749 509.34514 
L 371.867949 508.679635 
L 374.11938 507.991583 
L 376.363819 507.28105 
L 378.60104 506.54811 
L 380.83082 505.792834 
L 383.052936 505.015298 
L 385.267166 504.215581 
L 387.473287 503.393761 
L 389.671081 502.549922 
L 391.860326 501.684147 
L 394.040804 500.796524 
L 396.212297 499.88714 
L 398.374588 498.956088 
L 400.527461 498.003459 
L 402.670699 497.02935 
L 404.80409 496.033857 
L 406.927419 495.017081 
L 409.040474 493.979123 
L 411.143045 492.920086 
L 413.23492 491.840077 
L 415.31589 490.739203 
L 417.385748 489.617575 
L 419.444286 488.475305 
L 421.491299 487.312507 
L 423.526582 486.129297 
L 425.549931 484.925794 
L 427.561144 483.702119 
L 429.56002 482.458392 
L 431.546359 481.194739 
L 433.519962 479.911287 
L 435.480632 478.608162 
L 437.428173 477.285497 
L 439.362391 475.943423 
L 441.283091 474.582073 
L 443.190082 473.201586 
L 445.083173 471.802097 
L 446.962175 470.383749 
L 448.826899 468.946681 
L 450.67716 467.491038 
L 452.512772 466.016966 
L 454.333552 464.524611 
L 456.139317 463.014124 
L 457.929887 461.485655 
L 459.705084 459.939357 
L 461.464729 458.375384 
L 463.208647 456.793894 
L 464.936663 455.195044 
L 466.648604 453.578994 
L 468.344299 451.945905 
L 470.023579 450.295942 
L 471.686276 448.629268 
L 473.332223 446.946051 
L 474.961256 445.246459 
L 476.573211 443.530662 
L 478.167929 441.798832 
L 479.745249 440.051141 
L 481.305013 438.287765 
L 482.847066 436.508879 
L 484.371253 434.714662 
L 485.877422 432.905293 
L 487.365422 431.080953 
L 488.835105 429.241825 
L 490.286323 427.388092 
L 491.718932 425.51994 
L 493.132788 423.637555 
L 494.52775 421.741126 
L 495.903678 419.830843 
L 497.260435 417.906896 
L 498.597884 415.969478 
L 499.915893 414.018783 
L 501.21433 412.055005 
L 502.493064 410.078341 
L 503.751968 408.088989 
L 504.990916 406.087147 
L 506.209783 404.073017 
L 507.408449 402.046798 
L 508.586793 400.008695 
L 509.744697 397.95891 
L 510.882046 395.897649 
L 511.998726 393.825117 
L 513.094625 391.741523 
L 514.169634 389.647073 
L 515.223645 387.541979 
L 516.256552 385.42645 
L 517.268253 383.300698 
L 518.258646 381.164935 
L 519.227633 379.019376 
L 520.175115 376.864234 
L 521.100999 374.699725 
L 522.005193 372.526065 
L 522.887604 370.343473 
L 523.748146 368.152165 
L 524.586733 365.952362 
L 525.40328 363.744283 
L 526.197705 361.52815 
L 526.96993 359.304183 
L 527.719877 357.072605 
L 528.447471 354.833639 
L 529.152639 352.587509 
L 529.835311 350.33444 
L 530.495419 348.074658 
L 531.132896 345.808387 
L 531.747679 343.535855 
L 532.339707 341.257288 
L 532.908919 338.972916 
L 533.45526 336.682965 
L 533.978674 334.387666 
L 534.47911 332.087248 
L 534.956516 329.78194 
L 535.410846 327.471974 
L 535.842054 325.15758 
L 536.250097 322.838989 
L 536.634934 320.516434 
L 536.996527 318.190147 
L 537.334839 315.860361 
L 537.649837 313.527307 
L 537.941489 311.191221 
L 538.209765 308.852335 
L 538.45464 306.510883 
L 538.676089 304.167099 
L 538.874089 301.821219 
L 539.04862 299.473475 
L 539.199666 297.124104 
L 539.327211 294.773339 
L 539.431242 292.421417 
L 539.51175 290.068572 
L 539.568725 287.71504 
L 539.602162 285.361055 
L 539.612059 283.006854 
L 539.598413 280.652672 
L 539.561227 278.298744 
L 539.500503 275.945305 
L 539.416249 273.592592 
L 539.308471 271.240838 
L 539.177183 268.89028 
L 539.022395 266.541152 
L 538.844125 264.193689 
L 538.642389 261.848127 
L 538.417208 259.504699 
L 538.168604 257.16364 
L 537.896603 254.825184 
L 537.601231 252.489565 
L 537.282518 250.157017 
L 536.940496 247.827772 
L 536.575198 245.502064 
L 536.186663 243.180125 
L 535.774928 240.862187 
L 535.340034 238.548483 
L 534.882026 236.239243 
L 534.400948 233.934698 
L 533.896849 231.63508 
L 533.36978 229.340617 
L 532.819793 227.05154 
L 532.246943 224.768077 
L 531.651288 222.490456 
L 531.032886 220.218906 
L 530.3918 217.953653 
L 529.728094 215.694925 
L 529.041835 213.442946 
L 528.33309 211.197942 
L 527.601931 208.960138 
L 526.848431 206.729757 
L 526.072665 204.507023 
L 525.274711 202.292157 
L 524.454648 200.085382 
L 523.61256 197.886917 
L 522.748529 195.696983 
L 521.862642 193.515799 
L 520.954988 191.343582 
L 520.025658 189.18055 
L 519.074744 187.02692 
L 518.102342 184.882906 
L 517.108548 182.748724 
L 516.093463 180.624586 
L 515.057187 178.510704 
L 513.999825 176.407291 
L 512.921482 174.314557 
L 511.822266 172.232711 
L 510.702287 170.16196 
L 509.561657 168.102513 
L 508.400489 166.054575 
L 507.218901 164.018351 
L 506.017009 161.994044 
L 504.794935 159.981857 
L 503.552801 157.981991 
L 502.29073 155.994647 
L 501.00885 154.020022 
L 499.707287 152.058315 
L 498.386173 150.109721 
L 497.045639 148.174435 
L 495.68582 146.252651 
L 494.306852 144.344562 
L 492.908871 142.450357 
L 491.492019 140.570227 
L 490.056437 138.704358 
L 488.602268 136.852939 
L 487.129658 135.016154 
L 485.638754 133.194186 
L 484.129705 131.387219 
L 482.602662 129.595431 
L 481.057778 127.819004 
L 479.495207 126.058114 
L 477.915106 124.312938 
L 476.317633 122.583649 
L 474.702946 120.870422 
L 473.071209 119.173426 
L 471.422583 117.492833 
L 469.757234 115.82881 
L 468.075328 114.181523 
L 466.377034 112.551137 
L 464.662521 110.937815 
L 462.931961 109.341719 
L 461.185527 107.763008 
L 459.423393 106.20184 
L 457.645736 104.658372 
L 455.852734 103.132756 
L 454.044565 101.625147 
L 452.221411 100.135694 
L 450.383453 98.664547 
L 448.530876 97.211853 
L 446.663866 95.777757 
L 444.782608 94.362402 
L 442.88729 92.965931 
L 440.978103 91.588482 
L 439.055237 90.230194 
L 437.118885 88.891202 
L 435.169239 87.57164 
L 433.206496 86.27164 
L 431.230851 84.991332 
L 429.242502 83.730844 
L 427.241648 82.490303 
L 425.228489 81.269832 
L 423.203225 80.069553 
L 421.166061 78.889586 
L 419.117199 77.73005 
L 417.056844 76.59106 
L 414.985202 75.47273 
L 412.902481 74.375172 
L 410.808889 73.298496 
L 408.704634 72.242809 
L 406.589929 71.208217 
L 404.464983 70.194824 
L 402.330009 69.20273 
L 400.185222 68.232036 
L 398.030835 67.282837 
L 395.867064 66.355229 
L 393.694126 65.449306 
L 391.512236 64.565156 
L 389.321615 63.702869 
L 387.12248 62.862531 
L 384.915053 62.044227 
L 382.699552 61.248037 
L 380.476201 60.474041 
L 378.245221 59.722317 
L 376.006835 58.992941 
L 373.761268 58.285984 
L 371.508743 57.601518 
L 369.249487 56.939611 
L 366.983724 56.300329 
L 364.711682 55.683736 
L 362.433588 55.089895 
L 360.14967 54.518863 
L 357.860155 53.970699 
L 355.565273 53.445457 
L 353.265254 52.94319 
L 350.960327 52.463948 
L 348.650724 52.007778 
L 346.336673 51.574728 
L 344.018409 51.164838 
L 341.696161 50.778152 
L 339.370163 50.414707 
L 337.040646 50.07454 
L 334.707845 49.757684 
L 332.371991 49.464172 
L 330.033319 49.194033 
L 327.692063 48.947294 
L 325.348457 48.723979 
L 323.002734 48.524111 
L 320.655131 48.34771 
L 318.30588 48.194793 
L 315.955218 48.065376 
L 313.60338 47.959472 
L 311.2506 47.877091 
L 308.897113 47.818242 
L 306.543156 47.78293 
L 304.188964 47.771158 
z
" clip-path="url(#p3c9c38178f)" style="fill: #000080"/>
   </g>
   <g id="patch_3">
    <path d="M 304.188964 516.263266 
L 301.858313 516.251613 
L 299.527896 516.216654 
L 297.197944 516.158393 
L 294.868692 516.076836 
L 292.540372 515.971991 
L 290.213217 515.843868 
L 287.887459 515.69248 
L 285.563331 515.517843 
L 283.241066 515.319974 
L 280.920895 515.098892 
L 278.603052 514.85462 
L 276.287767 514.587182 
L 273.975272 514.296606 
L 271.665798 513.982919 
L 269.359577 513.646153 
L 267.056839 513.286343 
L 264.757813 512.903523 
L 262.462731 512.497733 
L 260.171822 512.069012 
L 257.885314 511.617405 
L 255.603436 511.142955 
L 253.326417 510.64571 
L 251.054485 510.125721 
L 248.787865 509.583038 
L 246.526786 509.017717 
L 244.271473 508.429814 
L 242.022151 507.819387 
L 239.779046 507.186498 
L 237.542382 506.53121 
L 235.312383 505.853589 
L 233.089271 505.153702 
L 230.87327 504.431619 
L 228.664599 503.687412 
L 226.463481 502.921157 
L 224.270136 502.132929 
L 222.084782 501.322807 
L 219.907639 500.490872 
L 217.738924 499.637208 
L 215.578854 498.7619 
L 213.427644 497.865036 
L 211.285511 496.946704 
L 209.152668 496.006998 
L 207.029329 495.04601 
L 204.915705 494.063837 
L 202.812009 493.060578 
L 200.71845 492.036332 
L 198.635238 490.991202 
L 196.562582 489.925293 
L 194.500688 488.83871 
L 192.449763 487.731564 
L 190.410011 486.603964 
L 188.381638 485.456023 
L 186.364845 484.287856 
L 184.359834 483.09958 
L 182.366807 481.891313 
L 180.385961 480.663177 
L 178.417495 479.415294 
L 176.461607 478.14779 
L 174.518491 476.86079 
L 172.588342 475.554423 
L 170.671353 474.228821 
L 168.767716 472.884116 
L 166.877621 471.520441 
L 165.001257 470.137935 
L 163.138811 468.736734 
L 161.29047 467.316979 
L 159.456419 465.878811 
L 157.636842 464.422376 
L 155.831919 462.947818 
L 154.041832 461.455284 
L 152.266759 459.944925 
L 150.506879 458.416891 
L 148.762366 456.871335 
L 147.033396 455.308411 
L 145.320142 453.728276 
L 143.622774 452.131087 
L 141.941463 450.517005 
L 140.276377 448.886191 
L 138.627681 447.238808 
L 136.995542 445.575021 
L 135.380121 443.894996 
L 133.781582 442.1989 
L 132.200083 440.486905 
L 130.635783 438.75918 
L 129.088838 437.015899 
L 127.559403 435.257236 
L 126.04763 433.483367 
L 124.553672 431.694469 
L 123.077677 429.890721 
L 121.619793 428.072303 
L 120.180166 426.239398 
L 118.758939 424.392189 
L 117.356256 422.530859 
L 115.972255 420.655597 
L 114.607076 418.766588 
L 113.260855 416.864022 
L 111.933727 414.948089 
L 110.625824 413.018982 
L 109.337277 411.076891 
L 108.068215 409.122013 
L 106.818765 407.154542 
L 105.589052 405.174675 
L 104.379199 403.18261 
L 103.189327 401.178546 
L 102.019554 399.162684 
L 100.869998 397.135225 
L 99.740774 395.096372 
L 98.631994 393.046329 
L 97.543771 390.985301 
L 96.476211 388.913494 
L 95.429422 386.831116 
L 94.40351 384.738373 
L 93.398575 382.635476 
L 92.41472 380.522636 
L 91.452042 378.400062 
L 90.510637 376.267968 
L 89.5906 374.126567 
L 88.692023 371.976072 
L 87.814995 369.8167 
L 86.959604 367.648665 
L 86.125936 365.472185 
L 85.314074 363.287477 
L 84.5241 361.09476 
L 83.756092 358.894253 
L 83.010126 356.686176 
L 82.286279 354.47075 
L 81.584622 352.248197 
L 80.905225 350.018738 
L 80.248156 347.782596 
L 79.613481 345.539996 
L 79.001263 343.291161 
L 78.411564 341.036317 
L 77.844443 338.775689 
L 77.299956 336.509502 
L 76.778157 334.237984 
L 76.279099 331.961362 
L 75.802833 329.679863 
L 75.349404 327.393715 
L 74.91886 325.103148 
L 74.511242 322.80839 
L 74.126592 320.50967 
L 73.764947 318.207219 
L 73.426346 315.901266 
L 73.11082 313.592043 
L 72.818401 311.279781 
L 72.54912 308.964709 
L 72.303002 306.647061 
L 72.080073 304.327067 
L 71.880355 302.00496 
L 71.703867 299.680973 
L 71.550627 297.355336 
L 71.420651 295.028283 
L 71.313952 292.700047 
L 71.23054 290.370861 
L 71.170424 288.040957 
L 71.133609 285.710568 
L 71.1201 283.379927 
L 71.129897 281.049268 
L 71.163 278.718823 
L 71.219406 276.388826 
L 71.299108 274.05951 
L 71.402099 271.731107 
L 71.528369 269.40385 
L 71.677904 267.077973 
L 71.85069 264.753707 
L 72.04671 262.431285 
L 72.265944 260.110939 
L 72.50837 257.792902 
L 72.773964 255.477404 
L 73.0627 253.164679 
L 73.374547 250.854956 
L 73.709476 248.548467 
L 74.067453 246.245443 
L 74.448442 243.946114 
L 74.852404 241.650709 
L 75.2793 239.359459 
L 75.729087 237.072592 
L 76.20172 234.790338 
L 76.697151 232.512923 
L 77.215331 230.240577 
L 77.756208 227.973526 
L 78.319728 225.711998 
L 78.905836 223.456217 
L 79.514471 221.20641 
L 80.145573 218.962802 
L 80.79908 216.725617 
L 81.474925 214.495079 
L 82.173042 212.27141 
L 82.89336 210.054834 
L 83.635807 207.845572 
L 84.40031 205.643845 
L 85.186791 203.449872 
L 85.995173 201.263874 
L 86.825373 199.086069 
L 87.67731 196.916675 
L 88.550897 194.755908 
L 89.446049 192.603985 
L 90.362674 190.461122 
L 91.300682 188.327531 
L 92.259978 186.203427 
L 93.240467 184.089022 
L 94.242051 181.984527 
L 95.26463 179.890154 
L 96.3081 177.80611 
L 97.372359 175.732606 
L 98.457299 173.669847 
L 99.562812 171.618041 
L 100.688788 169.577392 
L 101.835113 167.548105 
L 103.001674 165.530383 
L 104.188353 163.524426 
L 105.395032 161.530437 
L 106.62159 159.548614 
L 107.867905 157.579156 
L 109.133851 155.622258 
L 110.419304 153.678118 
L 111.724133 151.74693 
L 113.048208 149.828886 
L 114.391397 147.924178 
L 115.753566 146.032998 
L 117.134578 144.155533 
L 118.534295 142.291972 
L 119.952578 140.442502 
L 121.389284 138.607306 
L 122.84427 136.786569 
L 124.317391 134.980473 
L 125.808498 133.189198 
L 127.317443 131.412923 
L 128.844075 129.651826 
L 130.388242 127.906083 
L 131.949789 126.17587 
L 133.528559 124.461357 
L 135.124395 122.762718 
L 136.737138 121.080122 
L 138.366625 119.413738 
L 140.012695 117.763731 
L 141.675182 116.130267 
L 143.35392 114.513509 
L 145.048742 112.91362 
L 146.759478 111.330758 
L 148.485956 109.765082 
L 150.228005 108.21675 
L 151.985449 106.685915 
L 153.758114 105.17273 
L 155.545822 103.677348 
L 157.348394 102.199917 
L 159.16565 100.740585 
L 160.997408 99.299499 
L 162.843485 97.876802 
L 164.703697 96.472637 
L 166.577857 95.087143 
L 168.465778 93.72046 
L 170.367271 92.372725 
L 172.282146 91.044071 
L 174.210212 89.734632 
L 176.151276 88.444539 
L 178.105143 87.173921 
L 180.071619 85.922905 
L 182.050506 84.691616 
L 184.041607 83.480176 
L 186.044722 82.288709 
L 188.059652 81.117331 
L 190.086195 79.966161 
L 192.124148 78.835314 
L 194.173307 77.724902 
L 196.233468 76.635037 
L 198.304424 75.565828 
L 200.385968 74.517382 
L 202.477893 73.489803 
L 204.579989 72.483194 
L 206.692046 71.497656 
L 208.813852 70.533288 
L 210.945196 69.590186 
L 213.085864 68.668444 
L 215.235642 67.768154 
L 217.394315 66.889407 
L 219.561668 66.03229 
L 221.737484 65.19689 
L 223.921544 64.383288 
L 226.113631 63.591568 
L 228.313526 62.821808 
L 230.521008 62.074084 
L 232.735857 61.348473 
L 234.957852 60.645046 
L 237.186769 59.963874 
L 239.422386 59.305025 
L 241.66448 58.668564 
L 243.912827 58.054556 
L 246.167201 57.463061 
L 248.427377 56.89414 
L 250.693129 56.347848 
L 252.964231 55.824241 
L 255.240455 55.323371 
L 257.521574 54.845287 
L 259.80736 54.390038 
L 262.097583 53.95767 
L 264.392016 53.548225 
L 266.690429 53.161744 
L 268.992591 52.798267 
L 271.298273 52.457828 
L 273.607245 52.140464 
L 275.919274 51.846204 
L 278.23413 51.575079 
L 280.551581 51.327116 
L 282.871397 51.10234 
L 285.193344 50.900772 
L 287.517191 50.722433 
L 289.842704 50.567342 
L 292.169653 50.435513 
L 294.497803 50.32696 
L 296.826922 50.241693 
L 299.156778 50.179721 
L 301.487137 50.141051 
L 303.817766 50.125686 
L 304.188964 50.12539 
L 304.188964 47.771158 
L 303.814016 47.771457 
L 301.459846 47.786978 
L 299.105948 47.826039 
L 296.752558 47.888636 
L 294.399912 47.974764 
L 292.048246 48.084414 
L 289.697793 48.217574 
L 287.348789 48.374233 
L 285.001469 48.554372 
L 282.656068 48.757976 
L 280.31282 48.985023 
L 277.97196 49.235491 
L 275.633721 49.509354 
L 273.298338 49.806586 
L 270.966044 50.127157 
L 268.637073 50.471034 
L 266.311656 50.838183 
L 263.990027 51.228567 
L 261.672418 51.642148 
L 259.359061 52.078884 
L 257.050186 52.538731 
L 254.746026 53.021644 
L 252.446809 53.527573 
L 250.152767 54.05647 
L 247.864128 54.608279 
L 245.581122 55.182947 
L 243.303977 55.780417 
L 241.03292 56.400627 
L 238.768178 57.043516 
L 236.509979 57.709021 
L 234.258547 58.397074 
L 232.014109 59.107606 
L 229.776888 59.840547 
L 227.547108 60.595823 
L 225.324992 61.373358 
L 223.110762 62.173076 
L 220.90464 62.994895 
L 218.706847 63.838734 
L 216.517602 64.704509 
L 214.337123 65.592132 
L 212.16563 66.501516 
L 210.003339 67.432568 
L 207.850467 68.385197 
L 205.707228 69.359306 
L 203.573838 70.354799 
L 201.450509 71.371575 
L 199.337453 72.409534 
L 197.234883 73.468571 
L 195.143008 74.54858 
L 193.062038 75.649453 
L 190.99218 76.771081 
L 188.933642 77.913351 
L 186.886629 79.076149 
L 184.851346 80.259359 
L 182.827997 81.462862 
L 180.816784 82.686538 
L 178.817908 83.930264 
L 176.831569 85.193917 
L 174.857966 86.47737 
L 172.897295 87.780494 
L 170.949754 89.103159 
L 169.015537 90.445234 
L 167.094837 91.806583 
L 165.187846 93.187071 
L 163.294755 94.586559 
L 161.415753 96.004908 
L 159.551029 97.441975 
L 157.700768 98.897618 
L 155.865156 100.371691 
L 154.044376 101.864045 
L 152.238611 103.374532 
L 150.44804 104.903001 
L 148.672844 106.449299 
L 146.913199 108.013272 
L 145.169281 109.594762 
L 143.441265 111.193613 
L 141.729324 112.809663 
L 140.033629 114.442751 
L 138.354349 116.092715 
L 136.691652 117.759388 
L 135.045705 119.442605 
L 133.416672 121.142197 
L 131.804716 122.857994 
L 130.209999 124.589825 
L 128.632679 126.337515 
L 127.072915 128.100892 
L 125.530862 129.879777 
L 124.006675 131.673994 
L 122.500506 133.483363 
L 121.012506 135.307703 
L 119.542823 137.146831 
L 118.091604 139.000564 
L 116.658996 140.868716 
L 115.24514 142.751101 
L 113.850178 144.64753 
L 112.47425 146.557813 
L 111.117493 148.48176 
L 109.780043 150.419178 
L 108.462034 152.369874 
L 107.163598 154.333652 
L 105.884864 156.310315 
L 104.62596 158.299667 
L 103.387012 160.301509 
L 102.168144 162.31564 
L 100.969479 164.341858 
L 99.791135 166.379962 
L 98.63323 168.429746 
L 97.495881 170.491008 
L 96.379201 172.563539 
L 95.283302 174.647134 
L 94.208294 176.741583 
L 93.154283 178.846677 
L 92.121375 180.962206 
L 91.109675 183.087958 
L 90.119281 185.223721 
L 89.150295 187.36928 
L 88.202812 189.524423 
L 87.276928 191.688931 
L 86.372735 193.862591 
L 85.490323 196.045183 
L 84.629781 198.236491 
L 83.791195 200.436294 
L 82.974648 202.644373 
L 82.180223 204.860507 
L 81.407998 207.084474 
L 80.658051 209.316052 
L 79.930457 211.555017 
L 79.225289 213.801147 
L 78.542616 216.054216 
L 77.882509 218.313999 
L 77.245031 220.58027 
L 76.630248 222.852802 
L 76.038221 225.131368 
L 75.469009 227.415741 
L 74.922668 229.705691 
L 74.399254 232.00099 
L 73.898818 234.301408 
L 73.421411 236.606716 
L 72.967081 238.916683 
L 72.535873 241.231077 
L 72.12783 243.549667 
L 71.742993 245.872222 
L 71.381401 248.198509 
L 71.043089 250.528296 
L 70.728091 252.861349 
L 70.436439 255.197435 
L 70.168162 257.536321 
L 69.923288 259.877773 
L 69.701839 262.221557 
L 69.503839 264.567438 
L 69.329307 266.915181 
L 69.178262 269.264553 
L 69.050717 271.615317 
L 68.946685 273.967239 
L 68.866178 276.320084 
L 68.809203 278.673616 
L 68.775765 281.027601 
L 68.765869 283.381802 
L 68.779515 285.735984 
L 68.816701 288.089912 
L 68.877425 290.443351 
L 68.961679 292.796065 
L 69.069456 295.147818 
L 69.200745 297.498377 
L 69.355532 299.847504 
L 69.533803 302.194967 
L 69.735539 304.540529 
L 69.96072 306.883957 
L 70.209324 309.225016 
L 70.481325 311.563472 
L 70.776697 313.899091 
L 71.09541 316.23164 
L 71.437432 318.560884 
L 71.802729 320.886593 
L 72.191265 323.208532 
L 72.603 325.526469 
L 73.037894 327.840174 
L 73.495902 330.149414 
L 73.97698 332.453958 
L 74.481078 334.753577 
L 75.008147 337.048039 
L 75.558135 339.337117 
L 76.130984 341.62058 
L 76.72664 343.8982 
L 77.345042 346.16975 
L 77.986128 348.435003 
L 78.649833 350.693732 
L 79.336093 352.94571 
L 80.044838 355.190714 
L 80.775997 357.428518 
L 81.529497 359.658899 
L 82.305263 361.881633 
L 83.103217 364.096499 
L 83.923279 366.303275 
L 84.765368 368.501739 
L 85.629399 370.691673 
L 86.515286 372.872858 
L 87.42294 375.045074 
L 88.35227 377.208106 
L 89.303184 379.361736 
L 90.275586 381.50575 
L 91.26938 383.639932 
L 92.284465 385.764071 
L 93.32074 387.877952 
L 94.378102 389.981365 
L 95.456445 392.074099 
L 96.555661 394.155946 
L 97.675641 396.226696 
L 98.816271 398.286143 
L 99.977439 400.334081 
L 101.159027 402.370306 
L 102.360918 404.394612 
L 103.582992 406.406799 
L 104.825127 408.406665 
L 106.087197 410.39401 
L 107.369078 412.368634 
L 108.67064 414.330342 
L 109.991755 416.278936 
L 111.332288 418.214221 
L 112.692107 420.136005 
L 114.071076 422.044094 
L 115.469057 423.938299 
L 116.885909 425.81843 
L 118.321491 427.684298 
L 119.77566 429.535717 
L 121.24827 431.372502 
L 122.739174 433.19447 
L 124.248223 435.001438 
L 125.775266 436.793225 
L 127.32015 438.569652 
L 128.88272 440.330542 
L 130.462821 442.075719 
L 132.060295 443.805007 
L 133.674982 445.518235 
L 135.306719 447.21523 
L 136.955345 448.895823 
L 138.620694 450.559847 
L 140.302599 452.207133 
L 142.000894 453.837519 
L 143.715406 455.450841 
L 145.445966 457.046937 
L 147.192401 458.625648 
L 148.954534 460.186816 
L 150.732191 461.730285 
L 152.525194 463.2559 
L 154.333363 464.76351 
L 156.156517 466.252962 
L 157.994474 467.724109 
L 159.847051 469.176803 
L 161.714062 470.610899 
L 163.59532 472.026254 
L 165.490638 473.422725 
L 167.399825 474.800174 
L 169.322691 476.158462 
L 171.259043 477.497455 
L 173.208688 478.817017 
L 175.171432 480.117016 
L 177.147076 481.397324 
L 179.135425 482.657812 
L 181.13628 483.898353 
L 183.149439 485.118825 
L 185.174702 486.319103 
L 187.211867 487.49907 
L 189.260729 488.658606 
L 191.321084 489.797596 
L 193.392726 490.915926 
L 195.475447 492.013484 
L 197.569039 493.09016 
L 199.673293 494.145847 
L 201.787999 495.180439 
L 203.912945 496.193832 
L 206.047918 497.185926 
L 208.192706 498.156621 
L 210.347092 499.105819 
L 212.510863 500.033427 
L 214.683802 500.939351 
L 216.865691 501.8235 
L 219.056313 502.685787 
L 221.255447 503.526125 
L 223.462875 504.34443 
L 225.678376 505.14062 
L 227.901727 505.914615 
L 230.132707 506.666339 
L 232.371093 507.395716 
L 234.61666 508.102672 
L 236.869185 508.787139 
L 239.128441 509.449046 
L 241.394204 510.088327 
L 243.666245 510.70492 
L 245.94434 511.298762 
L 248.228258 511.869793 
L 250.517773 512.417957 
L 252.812654 512.943199 
L 255.112673 513.445466 
L 257.4176 513.924708 
L 259.727204 514.380878 
L 262.041254 514.813929 
L 264.359519 515.223818 
L 266.681767 515.610504 
L 269.007765 515.973949 
L 271.337281 516.314117 
L 273.670083 516.630972 
L 276.005937 516.924484 
L 278.344608 517.194623 
L 280.685864 517.441363 
L 283.029471 517.664677 
L 285.375193 517.864545 
L 287.722797 518.040946 
L 290.072047 518.193863 
L 292.422709 518.32328 
L 294.774548 518.429184 
L 297.127328 518.511565 
L 299.480814 518.570415 
L 301.834771 518.605727 
L 304.188964 518.617498 
z
" clip-path="url(#p3c9c38178f)" style="fill: #800000"/>
   </g>
   <g id="PatchCollection_1">
    <defs>
     <path id="m1671dee042" d="M 304.188964 -516.263266 
L 304.188964 -516.263266 
L 306.519614 -516.251613 
L 308.850032 -516.216654 
L 311.179983 -516.158393 
L 313.509235 -516.076836 
L 315.837556 -515.971991 
L 318.164711 -515.843868 
L 320.490469 -515.69248 
L 322.814597 -515.517843 
L 325.136862 -515.319974 
L 327.457032 -515.098892 
L 329.774876 -514.85462 
L 332.090161 -514.587182 
L 334.402656 -514.296606 
L 336.712129 -513.982919 
L 339.018351 -513.646153 
L 341.321089 -513.286343 
L 343.620114 -512.903523 
L 345.915196 -512.497733 
L 348.206106 -512.069012 
L 350.492614 -511.617405 
L 352.774491 -511.142955 
L 355.05151 -510.64571 
L 357.323443 -510.125721 
L 359.590063 -509.583038 
L 361.851142 -509.017717 
L 364.106455 -508.429814 
L 366.355777 -507.819387 
L 368.598881 -507.186498 
L 370.835545 -506.53121 
L 373.065545 -505.853589 
L 375.288656 -505.153702 
L 377.504658 -504.431619 
L 379.713328 -503.687412 
L 381.914446 -502.921157 
L 384.107792 -502.132929 
L 386.293145 -501.322807 
L 388.470289 -500.490872 
L 390.639004 -499.637208 
L 392.799074 -498.7619 
L 394.950283 -497.865036 
L 397.092417 -496.946704 
L 399.22526 -496.006998 
L 401.348599 -495.04601 
L 403.462223 -494.063837 
L 405.565919 -493.060578 
L 407.659478 -492.036332 
L 409.742689 -490.991202 
L 411.815346 -489.925293 
L 413.87724 -488.83871 
L 415.928165 -487.731564 
L 417.967916 -486.603964 
L 419.99629 -485.456023 
L 422.013083 -484.287856 
L 424.018093 -483.09958 
L 426.011121 -481.891313 
L 427.991967 -480.663177 
L 429.960432 -479.415294 
L 431.916321 -478.14779 
L 433.859437 -476.86079 
L 435.789585 -475.554423 
L 437.706574 -474.228821 
L 439.610212 -472.884116 
L 441.500307 -471.520441 
L 443.376671 -470.137935 
L 445.239117 -468.736734 
L 447.087457 -467.316979 
L 448.921508 -465.878811 
L 450.741086 -464.422376 
L 452.546009 -462.947818 
L 454.336096 -461.455284 
L 456.111169 -459.944925 
L 457.871049 -458.416891 
L 459.615561 -456.871335 
L 461.344531 -455.308411 
L 463.057786 -453.728276 
L 464.755153 -452.131087 
L 466.436465 -450.517005 
L 468.101551 -448.886191 
L 469.750247 -447.238808 
L 471.382386 -445.575021 
L 472.997806 -443.894996 
L 474.596346 -442.1989 
L 476.177845 -440.486905 
L 477.742145 -438.75918 
L 479.28909 -437.015899 
L 480.818525 -435.257236 
L 482.330297 -433.483367 
L 483.824256 -431.694469 
L 485.300251 -429.890721 
L 486.758135 -428.072303 
L 488.197762 -426.239398 
L 489.618988 -424.392189 
L 491.021672 -422.530859 
L 492.405673 -420.655597 
L 493.770852 -418.766588 
L 495.117073 -416.864022 
L 496.444201 -414.948089 
L 497.752104 -413.018982 
L 499.040651 -411.076891 
L 500.309713 -409.122013 
L 501.559162 -407.154542 
L 502.788876 -405.174675 
L 503.998729 -403.18261 
L 505.188601 -401.178546 
L 506.358374 -399.162684 
L 507.50793 -397.135225 
L 508.637154 -395.096372 
L 509.745933 -393.046329 
L 510.834157 -390.985301 
L 511.901717 -388.913494 
L 512.948505 -386.831116 
L 513.974418 -384.738373 
L 514.979352 -382.635476 
L 515.963208 -380.522636 
L 516.925886 -378.400062 
L 517.867291 -376.267968 
L 518.787328 -374.126567 
L 519.685905 -371.976072 
L 520.562933 -369.8167 
L 521.418324 -367.648665 
L 522.251992 -365.472185 
L 523.063853 -363.287477 
L 523.853828 -361.09476 
L 524.621836 -358.894253 
L 525.367801 -356.686176 
L 526.091649 -354.47075 
L 526.793306 -352.248197 
L 527.472703 -350.018738 
L 528.129772 -347.782596 
L 528.764447 -345.539996 
L 529.376664 -343.291161 
L 529.966363 -341.036317 
L 530.533485 -338.775689 
L 531.077972 -336.509502 
L 531.599771 -334.237984 
L 532.098828 -331.961362 
L 532.575095 -329.679863 
L 533.028523 -327.393715 
L 533.459068 -325.103148 
L 533.866686 -322.80839 
L 534.251336 -320.50967 
L 534.61298 -318.207219 
L 534.951582 -315.901266 
L 535.267108 -313.592043 
L 535.559526 -311.279781 
L 535.828808 -308.964709 
L 536.074925 -306.647061 
L 536.297855 -304.327067 
L 536.497573 -302.00496 
L 536.674061 -299.680973 
L 536.827301 -297.355336 
L 536.957276 -295.028283 
L 537.063976 -292.700047 
L 537.147388 -290.370861 
L 537.207504 -288.040957 
L 537.244319 -285.710568 
L 537.257828 -283.379927 
L 537.248031 -281.049268 
L 537.214927 -278.718823 
L 537.158522 -276.388826 
L 537.07882 -274.05951 
L 536.975829 -271.731107 
L 536.849559 -269.40385 
L 536.700024 -267.077973 
L 536.527237 -264.753707 
L 536.331217 -262.431285 
L 536.111983 -260.110939 
L 535.869557 -257.792902 
L 535.603963 -255.477404 
L 535.315228 -253.164679 
L 535.00338 -250.854956 
L 534.668451 -248.548467 
L 534.310475 -246.245443 
L 533.929486 -243.946114 
L 533.525523 -241.650709 
L 533.098627 -239.359459 
L 532.648841 -237.072592 
L 532.176208 -234.790338 
L 531.680777 -232.512923 
L 531.162597 -230.240577 
L 530.62172 -227.973526 
L 530.058199 -225.711998 
L 529.472092 -223.456217 
L 528.863457 -221.20641 
L 528.232354 -218.962802 
L 527.578848 -216.725617 
L 526.903002 -214.495079 
L 526.204886 -212.27141 
L 525.484568 -210.054834 
L 524.74212 -207.845572 
L 523.977618 -205.643845 
L 523.191136 -203.449872 
L 522.382755 -201.263874 
L 521.552555 -199.086069 
L 520.700618 -196.916675 
L 519.82703 -194.755908 
L 518.931879 -192.603985 
L 518.015254 -190.461122 
L 517.077246 -188.327531 
L 516.117949 -186.203427 
L 515.13746 -184.089022 
L 514.135876 -181.984527 
L 513.113298 -179.890154 
L 512.069827 -177.80611 
L 511.005569 -175.732606 
L 509.920629 -173.669847 
L 508.815116 -171.618041 
L 507.68914 -169.577392 
L 506.542815 -167.548105 
L 505.376254 -165.530383 
L 504.189575 -163.524426 
L 502.982896 -161.530437 
L 501.756338 -159.548614 
L 500.510023 -157.579156 
L 499.244076 -155.622258 
L 497.958624 -153.678118 
L 496.653795 -151.74693 
L 495.32972 -149.828886 
L 493.986531 -147.924178 
L 492.624362 -146.032998 
L 491.24335 -144.155533 
L 489.843632 -142.291972 
L 488.42535 -140.442502 
L 486.988644 -138.607306 
L 485.533657 -136.786569 
L 484.060537 -134.980473 
L 482.56943 -133.189198 
L 481.060485 -131.412923 
L 479.533852 -129.651826 
L 477.989686 -127.906083 
L 476.428139 -126.17587 
L 474.849369 -124.461357 
L 473.253533 -122.762718 
L 471.64079 -121.080122 
L 470.011303 -119.413738 
L 468.365233 -117.763731 
L 466.702746 -116.130267 
L 465.024007 -114.513509 
L 463.329186 -112.91362 
L 461.61845 -111.330758 
L 459.891971 -109.765082 
L 458.149923 -108.21675 
L 456.392478 -106.685915 
L 454.619813 -105.17273 
L 452.832106 -103.677348 
L 451.029534 -102.199917 
L 449.212278 -100.740585 
L 447.38052 -99.299499 
L 445.534442 -97.876802 
L 443.674231 -96.472637 
L 441.800071 -95.087143 
L 439.91215 -93.72046 
L 438.010657 -92.372725 
L 436.095781 -91.044071 
L 434.167716 -89.734632 
L 432.226652 -88.444539 
L 430.272785 -87.173921 
L 428.306309 -85.922905 
L 426.327422 -84.691616 
L 424.336321 -83.480176 
L 422.333206 -82.288709 
L 420.318276 -81.117331 
L 418.291733 -79.966161 
L 416.25378 -78.835314 
L 414.204621 -77.724902 
L 412.14446 -76.635037 
L 410.073504 -75.565828 
L 407.991959 -74.517382 
L 405.900034 -73.489803 
L 403.797939 -72.483194 
L 401.685882 -71.497656 
L 399.564076 -70.533288 
L 397.432732 -69.590186 
L 395.292064 -68.668444 
L 393.142286 -67.768154 
L 390.983612 -66.889407 
L 388.81626 -66.03229 
L 386.640444 -65.19689 
L 384.456383 -64.383288 
L 382.264296 -63.591568 
L 380.064401 -62.821808 
L 377.856919 -62.074084 
L 375.64207 -61.348473 
L 373.420076 -60.645046 
L 371.191159 -59.963874 
L 368.955541 -59.305025 
L 366.713447 -58.668564 
L 364.465101 -58.054556 
L 362.210727 -57.463061 
L 359.950551 -56.89414 
L 357.684799 -56.347848 
L 355.413697 -55.824241 
L 353.137473 -55.323371 
L 350.856354 -54.845287 
L 348.570568 -54.390038 
L 346.280344 -53.95767 
L 343.985911 -53.548225 
L 341.687499 -53.161744 
L 339.385336 -52.798267 
L 337.079654 -52.457828 
L 334.770683 -52.140464 
L 332.458654 -51.846204 
L 330.143798 -51.575079 
L 327.826346 -51.327116 
L 325.506531 -51.10234 
L 323.184584 -50.900772 
L 320.860737 -50.722433 
L 318.535223 -50.567342 
L 316.208275 -50.435513 
L 313.880125 -50.32696 
L 311.551005 -50.241693 
L 309.22115 -50.179721 
L 306.890791 -50.141051 
L 304.560162 -50.125686 
L 304.188964 -50.12539 
L 304.188964 -50.12539 
Q 304.188964 -283.194328 304.188964 -50.12539 
L 304.188964 -50.12539 
L 304.188964 -50.12539 
L 301.858313 -50.137044 
L 299.527896 -50.172002 
L 297.197944 -50.230263 
L 294.868692 -50.31182 
L 292.540372 -50.416666 
L 290.213217 -50.544788 
L 287.887459 -50.696176 
L 285.563331 -50.870813 
L 283.241066 -51.068682 
L 280.920895 -51.289764 
L 278.603052 -51.534036 
L 276.287767 -51.801474 
L 273.975272 -52.092051 
L 271.665798 -52.405738 
L 269.359577 -52.742503 
L 267.056839 -53.102314 
L 264.757813 -53.485133 
L 262.462731 -53.890924 
L 260.171822 -54.319644 
L 257.885314 -54.771252 
L 255.603436 -55.245702 
L 253.326417 -55.742946 
L 251.054485 -56.262936 
L 248.787865 -56.805618 
L 246.526786 -57.370939 
L 244.271473 -57.958842 
L 242.022151 -58.569269 
L 239.779046 -59.202158 
L 237.542382 -59.857446 
L 235.312383 -60.535067 
L 233.089271 -61.234954 
L 230.87327 -61.957037 
L 228.664599 -62.701244 
L 226.463481 -63.467499 
L 224.270136 -64.255728 
L 222.084782 -65.065849 
L 219.907639 -65.897784 
L 217.738924 -66.751448 
L 215.578854 -67.626756 
L 213.427644 -68.52362 
L 211.285511 -69.441952 
L 209.152668 -70.381659 
L 207.029329 -71.342646 
L 204.915705 -72.324819 
L 202.812009 -73.328078 
L 200.71845 -74.352324 
L 198.635238 -75.397454 
L 196.562582 -76.463364 
L 194.500688 -77.549946 
L 192.449763 -78.657092 
L 190.410011 -79.784693 
L 188.381638 -80.932634 
L 186.364845 -82.100801 
L 184.359834 -83.289077 
L 182.366807 -84.497343 
L 180.385961 -85.725479 
L 178.417495 -86.973362 
L 176.461607 -88.240867 
L 174.518491 -89.527867 
L 172.588342 -90.834233 
L 170.671353 -92.159835 
L 168.767716 -93.504541 
L 166.877621 -94.868215 
L 165.001257 -96.250722 
L 163.138811 -97.651923 
L 161.29047 -99.071678 
L 159.456419 -100.509845 
L 157.636842 -101.96628 
L 155.831919 -103.440839 
L 154.041832 -104.933372 
L 152.266759 -106.443731 
L 150.506879 -107.971765 
L 148.762366 -109.517322 
L 147.033396 -111.080245 
L 145.320142 -112.660381 
L 143.622774 -114.257569 
L 141.941463 -115.871651 
L 140.276377 -117.502465 
L 138.627681 -119.149848 
L 136.995542 -120.813635 
L 135.380121 -122.493661 
L 133.781582 -124.189756 
L 132.200083 -125.901751 
L 130.635783 -127.629476 
L 129.088838 -129.372757 
L 127.559403 -131.13142 
L 126.04763 -132.90529 
L 124.553672 -134.694188 
L 123.077677 -136.497936 
L 121.619793 -138.316353 
L 120.180166 -140.149258 
L 118.758939 -141.996468 
L 117.356256 -143.857797 
L 115.972255 -145.73306 
L 114.607076 -147.622068 
L 113.260855 -149.524634 
L 111.933727 -151.440567 
L 110.625824 -153.369675 
L 109.337277 -155.311765 
L 108.068215 -157.266644 
L 106.818765 -159.234115 
L 105.589052 -161.213982 
L 104.379199 -163.206047 
L 103.189327 -165.21011 
L 102.019554 -167.225972 
L 100.869998 -169.253431 
L 99.740774 -171.292284 
L 98.631994 -173.342327 
L 97.543771 -175.403355 
L 96.476211 -177.475162 
L 95.429422 -179.557541 
L 94.40351 -181.650283 
L 93.398575 -183.75318 
L 92.41472 -185.866021 
L 91.452042 -187.988594 
L 90.510637 -190.120688 
L 89.5906 -192.262089 
L 88.692023 -194.412584 
L 87.814995 -196.571956 
L 86.959604 -198.739991 
L 86.125936 -200.916471 
L 85.314074 -203.101179 
L 84.5241 -205.293896 
L 83.756092 -207.494403 
L 83.010126 -209.70248 
L 82.286279 -211.917906 
L 81.584622 -214.14046 
L 80.905225 -216.369919 
L 80.248156 -218.60606 
L 79.613481 -220.84866 
L 79.001263 -223.097495 
L 78.411564 -225.352339 
L 77.844443 -227.612968 
L 77.299956 -229.879154 
L 76.778157 -232.150672 
L 76.279099 -234.427294 
L 75.802833 -236.708793 
L 75.349404 -238.994941 
L 74.91886 -241.285508 
L 74.511242 -243.580267 
L 74.126592 -245.878986 
L 73.764947 -248.181437 
L 73.426346 -250.48739 
L 73.11082 -252.796613 
L 72.818401 -255.108876 
L 72.54912 -257.423947 
L 72.303002 -259.741595 
L 72.080073 -262.061589 
L 71.880355 -264.383696 
L 71.703867 -266.707684 
L 71.550627 -269.03332 
L 71.420651 -271.360373 
L 71.313952 -273.688609 
L 71.23054 -276.017795 
L 71.170424 -278.3477 
L 71.133609 -280.678089 
L 71.1201 -283.008729 
L 71.129897 -285.339388 
L 71.163 -287.669833 
L 71.219406 -289.99983 
L 71.299108 -292.329146 
L 71.402099 -294.657549 
L 71.528369 -296.984806 
L 71.677904 -299.310684 
L 71.85069 -301.63495 
L 72.04671 -303.957372 
L 72.265944 -306.277717 
L 72.50837 -308.595755 
L 72.773964 -310.911252 
L 73.0627 -313.223978 
L 73.374547 -315.5337 
L 73.709476 -317.840189 
L 74.067453 -320.143213 
L 74.448442 -322.442542 
L 74.852404 -324.737947 
L 75.2793 -327.029197 
L 75.729087 -329.316064 
L 76.20172 -331.598319 
L 76.697151 -333.875733 
L 77.215331 -336.148079 
L 77.756208 -338.41513 
L 78.319728 -340.676659 
L 78.905836 -342.932439 
L 79.514471 -345.182246 
L 80.145573 -347.425854 
L 80.79908 -349.663039 
L 81.474925 -351.893577 
L 82.173042 -354.117246 
L 82.89336 -356.333822 
L 83.635807 -358.543084 
L 84.40031 -360.744812 
L 85.186791 -362.938784 
L 85.995173 -365.124782 
L 86.825373 -367.302587 
L 87.67731 -369.471981 
L 88.550897 -371.632748 
L 89.446049 -373.784671 
L 90.362674 -375.927535 
L 91.300682 -378.061125 
L 92.259978 -380.185229 
L 93.240467 -382.299634 
L 94.242051 -384.404129 
L 95.26463 -386.498503 
L 96.3081 -388.582546 
L 97.372359 -390.656051 
L 98.457299 -392.718809 
L 99.562812 -394.770615 
L 100.688788 -396.811264 
L 101.835113 -398.840551 
L 103.001674 -400.858274 
L 104.188353 -402.86423 
L 105.395032 -404.858219 
L 106.62159 -406.840042 
L 107.867905 -408.809501 
L 109.133851 -410.766398 
L 110.419304 -412.710538 
L 111.724133 -414.641727 
L 113.048208 -416.55977 
L 114.391397 -418.464478 
L 115.753566 -420.355659 
L 117.134578 -422.233123 
L 118.534295 -424.096684 
L 119.952578 -425.946155 
L 121.389284 -427.78135 
L 122.84427 -429.602087 
L 124.317391 -431.408184 
L 125.808498 -433.199459 
L 127.317443 -434.975733 
L 128.844075 -436.73683 
L 130.388242 -438.482573 
L 131.949789 -440.212787 
L 133.528559 -441.927299 
L 135.124395 -443.625938 
L 136.737138 -445.308534 
L 138.366625 -446.974919 
L 140.012695 -448.624925 
L 141.675182 -450.258389 
L 143.35392 -451.875147 
L 145.048742 -453.475037 
L 146.759478 -455.057898 
L 148.485956 -456.623574 
L 150.228005 -458.171907 
L 151.985449 -459.702742 
L 153.758114 -461.215926 
L 155.545822 -462.711308 
L 157.348394 -464.188739 
L 159.16565 -465.648071 
L 160.997408 -467.089157 
L 162.843485 -468.511854 
L 164.703697 -469.91602 
L 166.577857 -471.301513 
L 168.465778 -472.668196 
L 170.367271 -474.015932 
L 172.282146 -475.344585 
L 174.210212 -476.654024 
L 176.151276 -477.944117 
L 178.105143 -479.214735 
L 180.071619 -480.465751 
L 182.050506 -481.697041 
L 184.041607 -482.90848 
L 186.044722 -484.099948 
L 188.059652 -485.271325 
L 190.086195 -486.422495 
L 192.124148 -487.553343 
L 194.173307 -488.663754 
L 196.233468 -489.753619 
L 198.304424 -490.822828 
L 200.385968 -491.871275 
L 202.477893 -492.898853 
L 204.579989 -493.905462 
L 206.692046 -494.891 
L 208.813852 -495.855368 
L 210.945196 -496.79847 
L 213.085864 -497.720212 
L 215.235642 -498.620502 
L 217.394315 -499.499249 
L 219.561668 -500.356366 
L 221.737484 -501.191767 
L 223.921544 -502.005368 
L 226.113631 -502.797088 
L 228.313526 -503.566849 
L 230.521008 -504.314572 
L 232.735857 -505.040183 
L 234.957852 -505.74361 
L 237.186769 -506.424782 
L 239.422386 -507.083632 
L 241.66448 -507.720092 
L 243.912827 -508.334101 
L 246.167201 -508.925595 
L 248.427377 -509.494516 
L 250.693129 -510.040808 
L 252.964231 -510.564415 
L 255.240455 -511.065286 
L 257.521574 -511.543369 
L 259.80736 -511.998618 
L 262.097583 -512.430986 
L 264.392016 -512.840432 
L 266.690429 -513.226912 
L 268.992591 -513.59039 
L 271.298273 -513.930828 
L 273.607245 -514.248193 
L 275.919274 -514.542452 
L 278.23413 -514.813577 
L 280.551581 -515.06154 
L 282.871397 -515.286317 
L 285.193344 -515.487884 
L 287.517191 -515.666223 
L 289.842704 -515.821314 
L 292.169653 -515.953143 
L 294.497803 -516.061696 
L 296.826922 -516.146963 
L 299.156778 -516.208935 
L 301.487137 -516.247605 
L 303.817766 -516.26297 
L 304.188964 -516.263266 
L 304.188964 -516.263266 
Q 304.188964 -283.194328 304.188964 -516.263266 
z
" style="stroke: #808080; stroke-opacity: 0.5; stroke-width: 0.1"/>
    </defs>
    <g clip-path="url(#p3c9c38178f)">
     <use xlink:href="#m1671dee042" x="0" y="566.388656" style="fill: #000080; fill-opacity: 0.5; stroke: #808080; stroke-opacity: 0.5; stroke-width: 0.1"/>
    </g>
   </g>
   <g id="patch_4">
    <path d="M 304.188964 50.12539 
L 306.519614 50.137044 
L 308.850032 50.172002 
L 311.179983 50.230263 
L 313.509235 50.31182 
L 315.837556 50.416666 
L 318.164711 50.544788 
L 320.490469 50.696176 
L 322.814597 50.870813 
L 325.136862 51.068682 
L 327.457032 51.289764 
L 329.774876 51.534036 
L 332.090161 51.801474 
L 334.402656 52.092051 
L 336.712129 52.405738 
L 339.018351 52.742503 
L 341.321089 53.102314 
L 343.620114 53.485133 
L 345.915196 53.890924 
L 348.206106 54.319644 
L 350.492614 54.771252 
L 352.774491 55.245702 
L 355.05151 55.742946 
L 357.323443 56.262936 
L 359.590063 56.805618 
L 361.851142 57.370939 
L 364.106455 57.958842 
L 366.355777 58.569269 
L 368.598881 59.202158 
L 370.835545 59.857446 
L 373.065545 60.535067 
L 375.288656 61.234954 
L 377.504658 61.957037 
L 379.713328 62.701244 
L 381.914446 63.467499 
L 384.107792 64.255728 
L 386.293145 65.065849 
L 388.470289 65.897784 
L 390.639004 66.751448 
L 392.799074 67.626756 
L 394.950283 68.52362 
L 397.092417 69.441952 
L 399.22526 70.381659 
L 401.348599 71.342646 
L 403.462223 72.324819 
L 405.565919 73.328078 
L 407.659478 74.352324 
L 409.742689 75.397454 
L 411.815346 76.463364 
L 413.87724 77.549946 
L 415.928165 78.657092 
L 417.967916 79.784693 
L 419.99629 80.932634 
L 422.013083 82.100801 
L 424.018093 83.289077 
L 426.011121 84.497343 
L 427.991967 85.725479 
L 429.960432 86.973362 
L 431.916321 88.240867 
L 433.859437 89.527867 
L 435.789585 90.834233 
L 437.706574 92.159835 
L 439.610212 93.504541 
L 441.500307 94.868215 
L 443.376671 96.250722 
L 445.239117 97.651923 
L 447.087457 99.071678 
L 448.921508 100.509845 
L 450.741086 101.96628 
L 452.546009 103.440839 
L 454.336096 104.933372 
L 456.111169 106.443731 
L 457.871049 107.971765 
L 459.615561 109.517322 
L 461.344531 111.080245 
L 463.057786 112.660381 
L 464.755153 114.257569 
L 466.436465 115.871651 
L 468.101551 117.502465 
L 469.750247 119.149848 
L 471.382386 120.813635 
L 472.997806 122.493661 
L 474.596346 124.189756 
L 476.177845 125.901751 
L 477.742145 127.629476 
L 479.28909 129.372757 
L 480.818525 131.13142 
L 482.330297 132.90529 
L 483.824256 134.694188 
L 485.300251 136.497936 
L 486.758135 138.316353 
L 488.197762 140.149258 
L 489.618988 141.996468 
L 491.021672 143.857797 
L 492.405673 145.73306 
L 493.770852 147.622068 
L 495.117073 149.524634 
L 496.444201 151.440567 
L 497.752104 153.369675 
L 499.040651 155.311765 
L 500.309713 157.266644 
L 501.559162 159.234115 
L 502.788876 161.213982 
L 503.998729 163.206047 
L 505.188601 165.21011 
L 506.358374 167.225972 
L 507.50793 169.253431 
L 508.637154 171.292284 
L 509.745933 173.342327 
L 510.834157 175.403355 
L 511.901717 177.475162 
L 512.948505 179.557541 
L 513.974418 181.650283 
L 514.979352 183.75318 
L 515.963208 185.866021 
L 516.925886 187.988594 
L 517.867291 190.120688 
L 518.787328 192.262089 
L 519.685905 194.412584 
L 520.562933 196.571956 
L 521.418324 198.739991 
L 522.251992 200.916471 
L 523.063853 203.101179 
L 523.853828 205.293896 
L 524.621836 207.494403 
L 525.367801 209.70248 
L 526.091649 211.917906 
L 526.793306 214.14046 
L 527.472703 216.369919 
L 528.129772 218.60606 
L 528.764447 220.84866 
L 529.376664 223.097495 
L 529.966363 225.352339 
L 530.533485 227.612968 
L 531.077972 229.879154 
L 531.599771 232.150672 
L 532.098828 234.427294 
L 532.575095 236.708793 
L 533.028523 238.994941 
L 533.459068 241.285508 
L 533.866686 243.580267 
L 534.251336 245.878986 
L 534.61298 248.181437 
L 534.951582 250.48739 
L 535.267108 252.796613 
L 535.559526 255.108876 
L 535.828808 257.423947 
L 536.074925 259.741595 
L 536.297855 262.061589 
L 536.497573 264.383696 
L 536.674061 266.707684 
L 536.827301 269.03332 
L 536.957276 271.360373 
L 537.063976 273.688609 
L 537.147388 276.017795 
L 537.207504 278.3477 
L 537.244319 280.678089 
L 537.257828 283.008729 
L 537.248031 285.339388 
L 537.214927 287.669833 
L 537.158522 289.99983 
L 537.07882 292.329146 
L 536.975829 294.657549 
L 536.849559 296.984806 
L 536.700024 299.310684 
L 536.527237 301.63495 
L 536.331217 303.957372 
L 536.111983 306.277717 
L 535.869557 308.595755 
L 535.603963 310.911252 
L 535.315228 313.223978 
L 535.00338 315.5337 
L 534.668451 317.840189 
L 534.310475 320.143213 
L 533.929486 322.442542 
L 533.525523 324.737947 
L 533.098627 327.029197 
L 532.648841 329.316064 
L 532.176208 331.598319 
L 531.680777 333.875733 
L 531.162597 336.148079 
L 530.62172 338.41513 
L 530.058199 340.676659 
L 529.472092 342.932439 
L 528.863457 345.182246 
L 528.232354 347.425854 
L 527.578848 349.663039 
L 526.903002 351.893577 
L 526.204886 354.117246 
L 525.484568 356.333822 
L 524.74212 358.543084 
L 523.977618 360.744812 
L 523.191136 362.938784 
L 522.382755 365.124782 
L 521.552555 367.302587 
L 520.700618 369.471981 
L 519.82703 371.632748 
L 518.931879 373.784671 
L 518.015254 375.927535 
L 517.077246 378.061125 
L 516.117949 380.185229 
L 515.13746 382.299634 
L 514.135876 384.404129 
L 513.113298 386.498503 
L 512.069827 388.582546 
L 511.005569 390.656051 
L 509.920629 392.718809 
L 508.815116 394.770615 
L 507.68914 396.811264 
L 506.542815 398.840551 
L 505.376254 400.858274 
L 504.189575 402.86423 
L 502.982896 404.858219 
L 501.756338 406.840042 
L 500.510023 408.809501 
L 499.244076 410.766398 
L 497.958624 412.710538 
L 496.653795 414.641727 
L 495.32972 416.55977 
L 493.986531 418.464478 
L 492.624362 420.355659 
L 491.24335 422.233123 
L 489.843632 424.096684 
L 488.42535 425.946155 
L 486.988644 427.78135 
L 485.533657 429.602087 
L 484.060537 431.408184 
L 482.56943 433.199459 
L 481.060485 434.975733 
L 479.533852 436.73683 
L 477.989686 438.482573 
L 476.428139 440.212787 
L 474.849369 441.927299 
L 473.253533 443.625938 
L 471.64079 445.308534 
L 470.011303 446.974919 
L 468.365233 448.624925 
L 466.702746 450.258389 
L 465.024007 451.875147 
L 463.329186 453.475037 
L 461.61845 455.057898 
L 459.891971 456.623574 
L 458.149923 458.171907 
L 456.392478 459.702742 
L 454.619813 461.215926 
L 452.832106 462.711308 
L 451.029534 464.188739 
L 449.212278 465.648071 
L 447.38052 467.089157 
L 445.534442 468.511854 
L 443.674231 469.91602 
L 441.800071 471.301513 
L 439.91215 472.668196 
L 438.010657 474.015932 
L 436.095781 475.344585 
L 434.167716 476.654024 
L 432.226652 477.944117 
L 430.272785 479.214735 
L 428.306309 480.465751 
L 426.327422 481.697041 
L 424.336321 482.90848 
L 422.333206 484.099948 
L 420.318276 485.271325 
L 418.291733 486.422495 
L 416.25378 487.553343 
L 414.204621 488.663754 
L 412.14446 489.753619 
L 410.073504 490.822828 
L 407.991959 491.871275 
L 405.900034 492.898853 
L 403.797939 493.905462 
L 401.685882 494.891 
L 399.564076 495.855368 
L 397.432732 496.79847 
L 395.292064 497.720212 
L 393.142286 498.620502 
L 390.983612 499.499249 
L 388.81626 500.356366 
L 386.640444 501.191767 
L 384.456383 502.005368 
L 382.264296 502.797088 
L 380.064401 503.566849 
L 377.856919 504.314572 
L 375.64207 505.040183 
L 373.420076 505.74361 
L 371.191159 506.424782 
L 368.955541 507.083632 
L 366.713447 507.720092 
L 364.465101 508.334101 
L 362.210727 508.925595 
L 359.950551 509.494516 
L 357.684799 510.040808 
L 355.413697 510.564415 
L 353.137473 511.065286 
L 350.856354 511.543369 
L 348.570568 511.998618 
L 346.280344 512.430986 
L 343.985911 512.840432 
L 341.687499 513.226912 
L 339.385336 513.59039 
L 337.079654 513.930828 
L 334.770683 514.248193 
L 332.458654 514.542452 
L 330.143798 514.813577 
L 327.826346 515.06154 
L 325.506531 515.286317 
L 323.184584 515.487884 
L 320.860737 515.666223 
L 318.535223 515.821314 
L 316.208275 515.953143 
L 313.880125 516.061696 
L 311.551005 516.146963 
L 309.22115 516.208935 
L 306.890791 516.247605 
L 304.560162 516.26297 
L 304.188964 516.263266 
L 304.188964 518.617498 
L 304.563911 518.617199 
L 306.918082 518.601679 
L 309.27198 518.562618 
L 311.625369 518.50002 
L 313.978015 518.413892 
L 316.329682 518.304242 
L 318.680135 518.171082 
L 321.029139 518.014424 
L 323.376459 517.834284 
L 325.72186 517.63068 
L 328.065108 517.403633 
L 330.405968 517.153165 
L 332.744206 516.879302 
L 335.079589 516.58207 
L 337.411883 516.2615 
L 339.740855 515.917623 
L 342.066272 515.550474 
L 344.387901 515.160089 
L 346.70551 514.746508 
L 349.018867 514.309772 
L 351.327742 513.849925 
L 353.631902 513.367013 
L 355.931118 512.861083 
L 358.225161 512.332187 
L 360.513799 511.780377 
L 362.796805 511.205709 
L 365.073951 510.60824 
L 367.345008 509.988029 
L 369.609749 509.34514 
L 371.867949 508.679635 
L 374.11938 507.991583 
L 376.363819 507.28105 
L 378.60104 506.54811 
L 380.83082 505.792834 
L 383.052936 505.015298 
L 385.267166 504.215581 
L 387.473287 503.393761 
L 389.671081 502.549922 
L 391.860326 501.684147 
L 394.040804 500.796524 
L 396.212297 499.88714 
L 398.374588 498.956088 
L 400.527461 498.003459 
L 402.670699 497.02935 
L 404.80409 496.033857 
L 406.927419 495.017081 
L 409.040474 493.979123 
L 411.143045 492.920086 
L 413.23492 491.840077 
L 415.31589 490.739203 
L 417.385748 489.617575 
L 419.444286 488.475305 
L 421.491299 487.312507 
L 423.526582 486.129297 
L 425.549931 484.925794 
L 427.561144 483.702119 
L 429.56002 482.458392 
L 431.546359 481.194739 
L 433.519962 479.911287 
L 435.480632 478.608162 
L 437.428173 477.285497 
L 439.362391 475.943423 
L 441.283091 474.582073 
L 443.190082 473.201586 
L 445.083173 471.802097 
L 446.962175 470.383749 
L 448.826899 468.946681 
L 450.67716 467.491038 
L 452.512772 466.016966 
L 454.333552 464.524611 
L 456.139317 463.014124 
L 457.929887 461.485655 
L 459.705084 459.939357 
L 461.464729 458.375384 
L 463.208647 456.793894 
L 464.936663 455.195044 
L 466.648604 453.578994 
L 468.344299 451.945905 
L 470.023579 450.295942 
L 471.686276 448.629268 
L 473.332223 446.946051 
L 474.961256 445.246459 
L 476.573211 443.530662 
L 478.167929 441.798832 
L 479.745249 440.051141 
L 481.305013 438.287765 
L 482.847066 436.508879 
L 484.371253 434.714662 
L 485.877422 432.905293 
L 487.365422 431.080953 
L 488.835105 429.241825 
L 490.286323 427.388092 
L 491.718932 425.51994 
L 493.132788 423.637555 
L 494.52775 421.741126 
L 495.903678 419.830843 
L 497.260435 417.906896 
L 498.597884 415.969478 
L 499.915893 414.018783 
L 501.21433 412.055005 
L 502.493064 410.078341 
L 503.751968 408.088989 
L 504.990916 406.087147 
L 506.209783 404.073017 
L 507.408449 402.046798 
L 508.586793 400.008695 
L 509.744697 397.95891 
L 510.882046 395.897649 
L 511.998726 393.825117 
L 513.094625 391.741523 
L 514.169634 389.647073 
L 515.223645 387.541979 
L 516.256552 385.42645 
L 517.268253 383.300698 
L 518.258646 381.164935 
L 519.227633 379.019376 
L 520.175115 376.864234 
L 521.100999 374.699725 
L 522.005193 372.526065 
L 522.887604 370.343473 
L 523.748146 368.152165 
L 524.586733 365.952362 
L 525.40328 363.744283 
L 526.197705 361.52815 
L 526.96993 359.304183 
L 527.719877 357.072605 
L 528.447471 354.833639 
L 529.152639 352.587509 
L 529.835311 350.33444 
L 530.495419 348.074658 
L 531.132896 345.808387 
L 531.747679 343.535855 
L 532.339707 341.257288 
L 532.908919 338.972916 
L 533.45526 336.682965 
L 533.978674 334.387666 
L 534.47911 332.087248 
L 534.956516 329.78194 
L 535.410846 327.471974 
L 535.842054 325.15758 
L 536.250097 322.838989 
L 536.634934 320.516434 
L 536.996527 318.190147 
L 537.334839 315.860361 
L 537.649837 313.527307 
L 537.941489 311.191221 
L 538.209765 308.852335 
L 538.45464 306.510883 
L 538.676089 304.167099 
L 538.874089 301.821219 
L 539.04862 299.473475 
L 539.199666 297.124104 
L 539.327211 294.773339 
L 539.431242 292.421417 
L 539.51175 290.068572 
L 539.568725 287.71504 
L 539.602162 285.361055 
L 539.612059 283.006854 
L 539.598413 280.652672 
L 539.561227 278.298744 
L 539.500503 275.945305 
L 539.416249 273.592592 
L 539.308471 271.240838 
L 539.177183 268.89028 
L 539.022395 266.541152 
L 538.844125 264.193689 
L 538.642389 261.848127 
L 538.417208 259.504699 
L 538.168604 257.16364 
L 537.896603 254.825184 
L 537.601231 252.489565 
L 537.282518 250.157017 
L 536.940496 247.827772 
L 536.575198 245.502064 
L 536.186663 243.180125 
L 535.774928 240.862187 
L 535.340034 238.548483 
L 534.882026 236.239243 
L 534.400948 233.934698 
L 533.896849 231.63508 
L 533.36978 229.340617 
L 532.819793 227.05154 
L 532.246943 224.768077 
L 531.651288 222.490456 
L 531.032886 220.218906 
L 530.3918 217.953653 
L 529.728094 215.694925 
L 529.041835 213.442946 
L 528.33309 211.197942 
L 527.601931 208.960138 
L 526.848431 206.729757 
L 526.072665 204.507023 
L 525.274711 202.292157 
L 524.454648 200.085382 
L 523.61256 197.886917 
L 522.748529 195.696983 
L 521.862642 193.515799 
L 520.954988 191.343582 
L 520.025658 189.18055 
L 519.074744 187.02692 
L 518.102342 184.882906 
L 517.108548 182.748724 
L 516.093463 180.624586 
L 515.057187 178.510704 
L 513.999825 176.407291 
L 512.921482 174.314557 
L 511.822266 172.232711 
L 510.702287 170.16196 
L 509.561657 168.102513 
L 508.400489 166.054575 
L 507.218901 164.018351 
L 506.017009 161.994044 
L 504.794935 159.981857 
L 503.552801 157.981991 
L 502.29073 155.994647 
L 501.00885 154.020022 
L 499.707287 152.058315 
L 498.386173 150.109721 
L 497.045639 148.174435 
L 495.68582 146.252651 
L 494.306852 144.344562 
L 492.908871 142.450357 
L 491.492019 140.570227 
L 490.056437 138.704358 
L 488.602268 136.852939 
L 487.129658 135.016154 
L 485.638754 133.194186 
L 484.129705 131.387219 
L 482.602662 129.595431 
L 481.057778 127.819004 
L 479.495207 126.058114 
L 477.915106 124.312938 
L 476.317633 122.583649 
L 474.702946 120.870422 
L 473.071209 119.173426 
L 471.422583 117.492833 
L 469.757234 115.82881 
L 468.075328 114.181523 
L 466.377034 112.551137 
L 464.662521 110.937815 
L 462.931961 109.341719 
L 461.185527 107.763008 
L 459.423393 106.20184 
L 457.645736 104.658372 
L 455.852734 103.132756 
L 454.044565 101.625147 
L 452.221411 100.135694 
L 450.383453 98.664547 
L 448.530876 97.211853 
L 446.663866 95.777757 
L 444.782608 94.362402 
L 442.88729 92.965931 
L 440.978103 91.588482 
L 439.055237 90.230194 
L 437.118885 88.891202 
L 435.169239 87.57164 
L 433.206496 86.27164 
L 431.230851 84.991332 
L 429.242502 83.730844 
L 427.241648 82.490303 
L 425.228489 81.269832 
L 423.203225 80.069553 
L 421.166061 78.889586 
L 419.117199 77.73005 
L 417.056844 76.59106 
L 414.985202 75.47273 
L 412.902481 74.375172 
L 410.808889 73.298496 
L 408.704634 72.242809 
L 406.589929 71.208217 
L 404.464983 70.194824 
L 402.330009 69.20273 
L 400.185222 68.232036 
L 398.030835 67.282837 
L 395.867064 66.355229 
L 393.694126 65.449306 
L 391.512236 64.565156 
L 389.321615 63.702869 
L 387.12248 62.862531 
L 384.915053 62.044227 
L 382.699552 61.248037 
L 380.476201 60.474041 
L 378.245221 59.722317 
L 376.006835 58.992941 
L 373.761268 58.285984 
L 371.508743 57.601518 
L 369.249487 56.939611 
L 366.983724 56.300329 
L 364.711682 55.683736 
L 362.433588 55.089895 
L 360.14967 54.518863 
L 357.860155 53.970699 
L 355.565273 53.445457 
L 353.265254 52.94319 
L 350.960327 52.463948 
L 348.650724 52.007778 
L 346.336673 51.574728 
L 344.018409 51.164838 
L 341.696161 50.778152 
L 339.370163 50.414707 
L 337.040646 50.07454 
L 334.707845 49.757684 
L 332.371991 49.464172 
L 330.033319 49.194033 
L 327.692063 48.947294 
L 325.348457 48.723979 
L 323.002734 48.524111 
L 320.655131 48.34771 
L 318.30588 48.194793 
L 315.955218 48.065376 
L 313.60338 47.959472 
L 311.2506 47.877091 
L 308.897113 47.818242 
L 306.543156 47.78293 
L 304.188964 47.771158 
L 304.188964 50.12539 
z
" clip-path="url(#p3c9c38178f)" style="fill: none; stroke: #000000; stroke-width: 0.5; stroke-linejoin: miter"/>
   </g>
   <g id="patch_5">
    <path d="M 304.188964 516.263266 
L 301.858313 516.251613 
L 299.527896 516.216654 
L 297.197944 516.158393 
L 294.868692 516.076836 
L 292.540372 515.971991 
L 290.213217 515.843868 
L 287.887459 515.69248 
L 285.563331 515.517843 
L 283.241066 515.319974 
L 280.920895 515.098892 
L 278.603052 514.85462 
L 276.287767 514.587182 
L 273.975272 514.296606 
L 271.665798 513.982919 
L 269.359577 513.646153 
L 267.056839 513.286343 
L 264.757813 512.903523 
L 262.462731 512.497733 
L 260.171822 512.069012 
L 257.885314 511.617405 
L 255.603436 511.142955 
L 253.326417 510.64571 
L 251.054485 510.125721 
L 248.787865 509.583038 
L 246.526786 509.017717 
L 244.271473 508.429814 
L 242.022151 507.819387 
L 239.779046 507.186498 
L 237.542382 506.53121 
L 235.312383 505.853589 
L 233.089271 505.153702 
L 230.87327 504.431619 
L 228.664599 503.687412 
L 226.463481 502.921157 
L 224.270136 502.132929 
L 222.084782 501.322807 
L 219.907639 500.490872 
L 217.738924 499.637208 
L 215.578854 498.7619 
L 213.427644 497.865036 
L 211.285511 496.946704 
L 209.152668 496.006998 
L 207.029329 495.04601 
L 204.915705 494.063837 
L 202.812009 493.060578 
L 200.71845 492.036332 
L 198.635238 490.991202 
L 196.562582 489.925293 
L 194.500688 488.83871 
L 192.449763 487.731564 
L 190.410011 486.603964 
L 188.381638 485.456023 
L 186.364845 484.287856 
L 184.359834 483.09958 
L 182.366807 481.891313 
L 180.385961 480.663177 
L 178.417495 479.415294 
L 176.461607 478.14779 
L 174.518491 476.86079 
L 172.588342 475.554423 
L 170.671353 474.228821 
L 168.767716 472.884116 
L 166.877621 471.520441 
L 165.001257 470.137935 
L 163.138811 468.736734 
L 161.29047 467.316979 
L 159.456419 465.878811 
L 157.636842 464.422376 
L 155.831919 462.947818 
L 154.041832 461.455284 
L 152.266759 459.944925 
L 150.506879 458.416891 
L 148.762366 456.871335 
L 147.033396 455.308411 
L 145.320142 453.728276 
L 143.622774 452.131087 
L 141.941463 450.517005 
L 140.276377 448.886191 
L 138.627681 447.238808 
L 136.995542 445.575021 
L 135.380121 443.894996 
L 133.781582 442.1989 
L 132.200083 440.486905 
L 130.635783 438.75918 
L 129.088838 437.015899 
L 127.559403 435.257236 
L 126.04763 433.483367 
L 124.553672 431.694469 
L 123.077677 429.890721 
L 121.619793 428.072303 
L 120.180166 426.239398 
L 118.758939 424.392189 
L 117.356256 422.530859 
L 115.972255 420.655597 
L 114.607076 418.766588 
L 113.260855 416.864022 
L 111.933727 414.948089 
L 110.625824 413.018982 
L 109.337277 411.076891 
L 108.068215 409.122013 
L 106.818765 407.154542 
L 105.589052 405.174675 
L 104.379199 403.18261 
L 103.189327 401.178546 
L 102.019554 399.162684 
L 100.869998 397.135225 
L 99.740774 395.096372 
L 98.631994 393.046329 
L 97.543771 390.985301 
L 96.476211 388.913494 
L 95.429422 386.831116 
L 94.40351 384.738373 
L 93.398575 382.635476 
L 92.41472 380.522636 
L 91.452042 378.400062 
L 90.510637 376.267968 
L 89.5906 374.126567 
L 88.692023 371.976072 
L 87.814995 369.8167 
L 86.959604 367.648665 
L 86.125936 365.472185 
L 85.314074 363.287477 
L 84.5241 361.09476 
L 83.756092 358.894253 
L 83.010126 356.686176 
L 82.286279 354.47075 
L 81.584622 352.248197 
L 80.905225 350.018738 
L 80.248156 347.782596 
L 79.613481 345.539996 
L 79.001263 343.291161 
L 78.411564 341.036317 
L 77.844443 338.775689 
L 77.299956 336.509502 
L 76.778157 334.237984 
L 76.279099 331.961362 
L 75.802833 329.679863 
L 75.349404 327.393715 
L 74.91886 325.103148 
L 74.511242 322.80839 
L 74.126592 320.50967 
L 73.764947 318.207219 
L 73.426346 315.901266 
L 73.11082 313.592043 
L 72.818401 311.279781 
L 72.54912 308.964709 
L 72.303002 306.647061 
L 72.080073 304.327067 
L 71.880355 302.00496 
L 71.703867 299.680973 
L 71.550627 297.355336 
L 71.420651 295.028283 
L 71.313952 292.700047 
L 71.23054 290.370861 
L 71.170424 288.040957 
L 71.133609 285.710568 
L 71.1201 283.379927 
L 71.129897 281.049268 
L 71.163 278.718823 
L 71.219406 276.388826 
L 71.299108 274.05951 
L 71.402099 271.731107 
L 71.528369 269.40385 
L 71.677904 267.077973 
L 71.85069 264.753707 
L 72.04671 262.431285 
L 72.265944 260.110939 
L 72.50837 257.792902 
L 72.773964 255.477404 
L 73.0627 253.164679 
L 73.374547 250.854956 
L 73.709476 248.548467 
L 74.067453 246.245443 
L 74.448442 243.946114 
L 74.852404 241.650709 
L 75.2793 239.359459 
L 75.729087 237.072592 
L 76.20172 234.790338 
L 76.697151 232.512923 
L 77.215331 230.240577 
L 77.756208 227.973526 
L 78.319728 225.711998 
L 78.905836 223.456217 
L 79.514471 221.20641 
L 80.145573 218.962802 
L 80.79908 216.725617 
L 81.474925 214.495079 
L 82.173042 212.27141 
L 82.89336 210.054834 
L 83.635807 207.845572 
L 84.40031 205.643845 
L 85.186791 203.449872 
L 85.995173 201.263874 
L 86.825373 199.086069 
L 87.67731 196.916675 
L 88.550897 194.755908 
L 89.446049 192.603985 
L 90.362674 190.461122 
L 91.300682 188.327531 
L 92.259978 186.203427 
L 93.240467 184.089022 
L 94.242051 181.984527 
L 95.26463 179.890154 
L 96.3081 177.80611 
L 97.372359 175.732606 
L 98.457299 173.669847 
L 99.562812 171.618041 
L 100.688788 169.577392 
L 101.835113 167.548105 
L 103.001674 165.530383 
L 104.188353 163.524426 
L 105.395032 161.530437 
L 106.62159 159.548614 
L 107.867905 157.579156 
L 109.133851 155.622258 
L 110.419304 153.678118 
L 111.724133 151.74693 
L 113.048208 149.828886 
L 114.391397 147.924178 
L 115.753566 146.032998 
L 117.134578 144.155533 
L 118.534295 142.291972 
L 119.952578 140.442502 
L 121.389284 138.607306 
L 122.84427 136.786569 
L 124.317391 134.980473 
L 125.808498 133.189198 
L 127.317443 131.412923 
L 128.844075 129.651826 
L 130.388242 127.906083 
L 131.949789 126.17587 
L 133.528559 124.461357 
L 135.124395 122.762718 
L 136.737138 121.080122 
L 138.366625 119.413738 
L 140.012695 117.763731 
L 141.675182 116.130267 
L 143.35392 114.513509 
L 145.048742 112.91362 
L 146.759478 111.330758 
L 148.485956 109.765082 
L 150.228005 108.21675 
L 151.985449 106.685915 
L 153.758114 105.17273 
L 155.545822 103.677348 
L 157.348394 102.199917 
L 159.16565 100.740585 
L 160.997408 99.299499 
L 162.843485 97.876802 
L 164.703697 96.472637 
L 166.577857 95.087143 
L 168.465778 93.72046 
L 170.367271 92.372725 
L 172.282146 91.044071 
L 174.210212 89.734632 
L 176.151276 88.444539 
L 178.105143 87.173921 
L 180.071619 85.922905 
L 182.050506 84.691616 
L 184.041607 83.480176 
L 186.044722 82.288709 
L 188.059652 81.117331 
L 190.086195 79.966161 
L 192.124148 78.835314 
L 194.173307 77.724902 
L 196.233468 76.635037 
L 198.304424 75.565828 
L 200.385968 74.517382 
L 202.477893 73.489803 
L 204.579989 72.483194 
L 206.692046 71.497656 
L 208.813852 70.533288 
L 210.945196 69.590186 
L 213.085864 68.668444 
L 215.235642 67.768154 
L 217.394315 66.889407 
L 219.561668 66.03229 
L 221.737484 65.19689 
L 223.921544 64.383288 
L 226.113631 63.591568 
L 228.313526 62.821808 
L 230.521008 62.074084 
L 232.735857 61.348473 
L 234.957852 60.645046 
L 237.186769 59.963874 
L 239.422386 59.305025 
L 241.66448 58.668564 
L 243.912827 58.054556 
L 246.167201 57.463061 
L 248.427377 56.89414 
L 250.693129 56.347848 
L 252.964231 55.824241 
L 255.240455 55.323371 
L 257.521574 54.845287 
L 259.80736 54.390038 
L 262.097583 53.95767 
L 264.392016 53.548225 
L 266.690429 53.161744 
L 268.992591 52.798267 
L 271.298273 52.457828 
L 273.607245 52.140464 
L 275.919274 51.846204 
L 278.23413 51.575079 
L 280.551581 51.327116 
L 282.871397 51.10234 
L 285.193344 50.900772 
L 287.517191 50.722433 
L 289.842704 50.567342 
L 292.169653 50.435513 
L 294.497803 50.32696 
L 296.826922 50.241693 
L 299.156778 50.179721 
L 301.487137 50.141051 
L 303.817766 50.125686 
L 304.188964 50.12539 
L 304.188964 47.771158 
L 303.814016 47.771457 
L 301.459846 47.786978 
L 299.105948 47.826039 
L 296.752558 47.888636 
L 294.399912 47.974764 
L 292.048246 48.084414 
L 289.697793 48.217574 
L 287.348789 48.374233 
L 285.001469 48.554372 
L 282.656068 48.757976 
L 280.31282 48.985023 
L 277.97196 49.235491 
L 275.633721 49.509354 
L 273.298338 49.806586 
L 270.966044 50.127157 
L 268.637073 50.471034 
L 266.311656 50.838183 
L 263.990027 51.228567 
L 261.672418 51.642148 
L 259.359061 52.078884 
L 257.050186 52.538731 
L 254.746026 53.021644 
L 252.446809 53.527573 
L 250.152767 54.05647 
L 247.864128 54.608279 
L 245.581122 55.182947 
L 243.303977 55.780417 
L 241.03292 56.400627 
L 238.768178 57.043516 
L 236.509979 57.709021 
L 234.258547 58.397074 
L 232.014109 59.107606 
L 229.776888 59.840547 
L 227.547108 60.595823 
L 225.324992 61.373358 
L 223.110762 62.173076 
L 220.90464 62.994895 
L 218.706847 63.838734 
L 216.517602 64.704509 
L 214.337123 65.592132 
L 212.16563 66.501516 
L 210.003339 67.432568 
L 207.850467 68.385197 
L 205.707228 69.359306 
L 203.573838 70.354799 
L 201.450509 71.371575 
L 199.337453 72.409534 
L 197.234883 73.468571 
L 195.143008 74.54858 
L 193.062038 75.649453 
L 190.99218 76.771081 
L 188.933642 77.913351 
L 186.886629 79.076149 
L 184.851346 80.259359 
L 182.827997 81.462862 
L 180.816784 82.686538 
L 178.817908 83.930264 
L 176.831569 85.193917 
L 174.857966 86.47737 
L 172.897295 87.780494 
L 170.949754 89.103159 
L 169.015537 90.445234 
L 167.094837 91.806583 
L 165.187846 93.187071 
L 163.294755 94.586559 
L 161.415753 96.004908 
L 159.551029 97.441975 
L 157.700768 98.897618 
L 155.865156 100.371691 
L 154.044376 101.864045 
L 152.238611 103.374532 
L 150.44804 104.903001 
L 148.672844 106.449299 
L 146.913199 108.013272 
L 145.169281 109.594762 
L 143.441265 111.193613 
L 141.729324 112.809663 
L 140.033629 114.442751 
L 138.354349 116.092715 
L 136.691652 117.759388 
L 135.045705 119.442605 
L 133.416672 121.142197 
L 131.804716 122.857994 
L 130.209999 124.589825 
L 128.632679 126.337515 
L 127.072915 128.100892 
L 125.530862 129.879777 
L 124.006675 131.673994 
L 122.500506 133.483363 
L 121.012506 135.307703 
L 119.542823 137.146831 
L 118.091604 139.000564 
L 116.658996 140.868716 
L 115.24514 142.751101 
L 113.850178 144.64753 
L 112.47425 146.557813 
L 111.117493 148.48176 
L 109.780043 150.419178 
L 108.462034 152.369874 
L 107.163598 154.333652 
L 105.884864 156.310315 
L 104.62596 158.299667 
L 103.387012 160.301509 
L 102.168144 162.31564 
L 100.969479 164.341858 
L 99.791135 166.379962 
L 98.63323 168.429746 
L 97.495881 170.491008 
L 96.379201 172.563539 
L 95.283302 174.647134 
L 94.208294 176.741583 
L 93.154283 178.846677 
L 92.121375 180.962206 
L 91.109675 183.087958 
L 90.119281 185.223721 
L 89.150295 187.36928 
L 88.202812 189.524423 
L 87.276928 191.688931 
L 86.372735 193.862591 
L 85.490323 196.045183 
L 84.629781 198.236491 
L 83.791195 200.436294 
L 82.974648 202.644373 
L 82.180223 204.860507 
L 81.407998 207.084474 
L 80.658051 209.316052 
L 79.930457 211.555017 
L 79.225289 213.801147 
L 78.542616 216.054216 
L 77.882509 218.313999 
L 77.245031 220.58027 
L 76.630248 222.852802 
L 76.038221 225.131368 
L 75.469009 227.415741 
L 74.922668 229.705691 
L 74.399254 232.00099 
L 73.898818 234.301408 
L 73.421411 236.606716 
L 72.967081 238.916683 
L 72.535873 241.231077 
L 72.12783 243.549667 
L 71.742993 245.872222 
L 71.381401 248.198509 
L 71.043089 250.528296 
L 70.728091 252.861349 
L 70.436439 255.197435 
L 70.168162 257.536321 
L 69.923288 259.877773 
L 69.701839 262.221557 
L 69.503839 264.567438 
L 69.329307 266.915181 
L 69.178262 269.264553 
L 69.050717 271.615317 
L 68.946685 273.967239 
L 68.866178 276.320084 
L 68.809203 278.673616 
L 68.775765 281.027601 
L 68.765869 283.381802 
L 68.779515 285.735984 
L 68.816701 288.089912 
L 68.877425 290.443351 
L 68.961679 292.796065 
L 69.069456 295.147818 
L 69.200745 297.498377 
L 69.355532 299.847504 
L 69.533803 302.194967 
L 69.735539 304.540529 
L 69.96072 306.883957 
L 70.209324 309.225016 
L 70.481325 311.563472 
L 70.776697 313.899091 
L 71.09541 316.23164 
L 71.437432 318.560884 
L 71.802729 320.886593 
L 72.191265 323.208532 
L 72.603 325.526469 
L 73.037894 327.840174 
L 73.495902 330.149414 
L 73.97698 332.453958 
L 74.481078 334.753577 
L 75.008147 337.048039 
L 75.558135 339.337117 
L 76.130984 341.62058 
L 76.72664 343.8982 
L 77.345042 346.16975 
L 77.986128 348.435003 
L 78.649833 350.693732 
L 79.336093 352.94571 
L 80.044838 355.190714 
L 80.775997 357.428518 
L 81.529497 359.658899 
L 82.305263 361.881633 
L 83.103217 364.096499 
L 83.923279 366.303275 
L 84.765368 368.501739 
L 85.629399 370.691673 
L 86.515286 372.872858 
L 87.42294 375.045074 
L 88.35227 377.208106 
L 89.303184 379.361736 
L 90.275586 381.50575 
L 91.26938 383.639932 
L 92.284465 385.764071 
L 93.32074 387.877952 
L 94.378102 389.981365 
L 95.456445 392.074099 
L 96.555661 394.155946 
L 97.675641 396.226696 
L 98.816271 398.286143 
L 99.977439 400.334081 
L 101.159027 402.370306 
L 102.360918 404.394612 
L 103.582992 406.406799 
L 104.825127 408.406665 
L 106.087197 410.39401 
L 107.369078 412.368634 
L 108.67064 414.330342 
L 109.991755 416.278936 
L 111.332288 418.214221 
L 112.692107 420.136005 
L 114.071076 422.044094 
L 115.469057 423.938299 
L 116.885909 425.81843 
L 118.321491 427.684298 
L 119.77566 429.535717 
L 121.24827 431.372502 
L 122.739174 433.19447 
L 124.248223 435.001438 
L 125.775266 436.793225 
L 127.32015 438.569652 
L 128.88272 440.330542 
L 130.462821 442.075719 
L 132.060295 443.805007 
L 133.674982 445.518235 
L 135.306719 447.21523 
L 136.955345 448.895823 
L 138.620694 450.559847 
L 140.302599 452.207133 
L 142.000894 453.837519 
L 143.715406 455.450841 
L 145.445966 457.046937 
L 147.192401 458.625648 
L 148.954534 460.186816 
L 150.732191 461.730285 
L 152.525194 463.2559 
L 154.333363 464.76351 
L 156.156517 466.252962 
L 157.994474 467.724109 
L 159.847051 469.176803 
L 161.714062 470.610899 
L 163.59532 472.026254 
L 165.490638 473.422725 
L 167.399825 474.800174 
L 169.322691 476.158462 
L 171.259043 477.497455 
L 173.208688 478.817017 
L 175.171432 480.117016 
L 177.147076 481.397324 
L 179.135425 482.657812 
L 181.13628 483.898353 
L 183.149439 485.118825 
L 185.174702 486.319103 
L 187.211867 487.49907 
L 189.260729 488.658606 
L 191.321084 489.797596 
L 193.392726 490.915926 
L 195.475447 492.013484 
L 197.569039 493.09016 
L 199.673293 494.145847 
L 201.787999 495.180439 
L 203.912945 496.193832 
L 206.047918 497.185926 
L 208.192706 498.156621 
L 210.347092 499.105819 
L 212.510863 500.033427 
L 214.683802 500.939351 
L 216.865691 501.8235 
L 219.056313 502.685787 
L 221.255447 503.526125 
L 223.462875 504.34443 
L 225.678376 505.14062 
L 227.901727 505.914615 
L 230.132707 506.666339 
L 232.371093 507.395716 
L 234.61666 508.102672 
L 236.869185 508.787139 
L 239.128441 509.449046 
L 241.394204 510.088327 
L 243.666245 510.70492 
L 245.94434 511.298762 
L 248.228258 511.869793 
L 250.517773 512.417957 
L 252.812654 512.943199 
L 255.112673 513.445466 
L 257.4176 513.924708 
L 259.727204 514.380878 
L 262.041254 514.813929 
L 264.359519 515.223818 
L 266.681767 515.610504 
L 269.007765 515.973949 
L 271.337281 516.314117 
L 273.670083 516.630972 
L 276.005937 516.924484 
L 278.344608 517.194623 
L 280.685864 517.441363 
L 283.029471 517.664677 
L 285.375193 517.864545 
L 287.722797 518.040946 
L 290.072047 518.193863 
L 292.422709 518.32328 
L 294.774548 518.429184 
L 297.127328 518.511565 
L 299.480814 518.570415 
L 301.834771 518.605727 
L 304.188964 518.617498 
L 304.188964 516.263266 
z
" clip-path="url(#p3c9c38178f)" style="fill: none; stroke: #000000; stroke-width: 0.5; stroke-linejoin: miter"/>
   </g>
   <g id="text_1">
    <text style="font: 3px 'DejaVu Sans', 'Bitstream Vera Sans', 'Computer Modern Sans Serif', 'Lucida Grande', 'Verdana', 'Geneva', 'Lucid', 'Arial', 'Helvetica', 'Avant Garde', sans-serif; text-anchor: start" x="541.966365" y="284.334094" transform="rotate(-0 541.966365 284.334094)">National University of East Timor</text>
   </g>
   <g id="text_2">
    <text style="font: 3px 'DejaVu Sans', 'Bitstream Vera Sans', 'Computer Modern Sans Serif', 'Lucida Grande', 'Verdana', 'Geneva', 'Lucid', 'Arial', 'Helvetica', 'Avant Garde', sans-serif; text-anchor: end" x="66.411563" y="284.334094" transform="rotate(-0 66.411563 284.334094)">Universidade da Paz</text>
   </g>
  </g>
 </g>
 <defs>
  <clipPath id="p3c9c38178f">
   <path d="M 551.383292 283.194328 
C 551.383292 250.733066 544.989131 218.58745 532.566744 188.597154 
C 520.144357 158.606859 501.935328 131.355121 478.98175 108.401542 
C 456.028171 85.447964 428.776433 67.238935 398.786138 54.816548 
C 368.795842 42.394161 336.650226 36 304.188964 36 
C 271.727702 36 239.582085 42.394161 209.59179 54.816548 
C 179.601495 67.238935 152.349756 85.447964 129.396178 108.401542 
C 106.4426 131.355121 88.233571 158.606859 75.811184 188.597154 
C 63.388796 218.58745 56.994636 250.733066 56.994636 283.194328 
C 56.994636 315.65559 63.388796 347.801207 75.811184 377.791502 
C 88.233571 407.781797 106.4426 435.033536 129.396178 457.987114 
C 152.349756 480.940692 179.601495 499.149721 209.59179 511.572108 
C 239.582085 523.994495 271.727702 530.388656 304.188964 530.388656 
C 336.650226 530.388656 368.795842 523.994495 398.786138 511.572108 
C 428.776433 499.149721 456.028171 480.940692 478.98175 457.987114 
C 501.935328 435.033536 520.144357 407.781797 532.566744 377.791502 
C 544.989131 347.801207 551.383292 315.65559 551.383292 283.194328 
M 304.188964 283.194328 
C 304.188964 283.194328 304.188964 283.194328 304.188964 283.194328 
C 304.188964 283.194328 304.188964 283.194328 304.188964 283.194328 
C 304.188964 283.194328 304.188964 283.194328 304.188964 283.194328 
C 304.188964 283.194328 304.188964 283.194328 304.188964 283.194328 
C 304.188964 283.194328 304.188964 283.194328 304.188964 283.194328 
C 304.188964 283.194328 304.188964 283.194328 304.188964 283.194328 
C 304.188964 283.194328 304.188964 283.194328 304.188964 283.194328 
C 304.188964 283.194328 304.188964 283.194328 304.188964 283.194328 
C 304.188964 283.194328 304.188964 283.194328 304.188964 283.194328 
C 304.188964 283.194328 304.188964 283.194328 304.188964 283.194328 
C 304.188964 283.194328 304.188964 283.194328 304.188964 283.194328 
C 304.188964 283.194328 304.188964 283.194328 304.188964 283.194328 
C 304.188964 283.194328 304.188964 283.194328 304.188964 283.194328 
C 304.188964 283.194328 304.188964 283.194328 304.188964 283.194328 
C 304.188964 283.194328 304.188964 283.194328 304.188964 283.194328 
C 304.188964 283.194328 304.188964 283.194328 304.188964 283.194328 
z
"/>
  </clipPath>
 </defs>
</svg>
