<?xml version="1.0" encoding="utf-8" standalone="no"?>
<!DOCTYPE svg PUBLIC "-//W3C//DTD SVG 1.1//EN"
  "http://www.w3.org/Graphics/SVG/1.1/DTD/svg11.dtd">
<svg xmlns:xlink="http://www.w3.org/1999/xlink" width="623.678587pt" height="617.692018pt" viewBox="0 0 623.678587 617.692018" xmlns="http://www.w3.org/2000/svg" version="1.1">
 <metadata>
  <rdf:RDF xmlns:dc="http://purl.org/dc/elements/1.1/" xmlns:cc="http://creativecommons.org/ns#" xmlns:rdf="http://www.w3.org/1999/02/22-rdf-syntax-ns#">
   <cc:Work>
    <dc:type rdf:resource="http://purl.org/dc/dcmitype/StillImage"/>
    <dc:date>2024-11-16T04:34:03.169114</dc:date>
    <dc:format>image/svg+xml</dc:format>
    <dc:creator>
     <cc:Agent>
      <dc:title>Matplotlib v3.8.4, https://matplotlib.org/</dc:title>
     </cc:Agent>
    </dc:creator>
   </cc:Work>
  </rdf:RDF>
 </metadata>
 <defs>
  <style type="text/css">*{stroke-linejoin: round; stroke-linecap: butt}</style>
 </defs>
 <g id="figure_1">
  <g id="patch_1">
   <path d="M 0 617.692018 
L 623.678587 617.692018 
L 623.678587 0 
L 0 0 
z
" style="fill: #ffffff"/>
  </g>
  <g id="axes_1">
   <g id="patch_2">
    <path d="M 318.469423 76.047696 
L 320.923244 76.059965 
L 323.37682 76.096772 
L 325.829906 76.158112 
L 328.282255 76.243979 
L 330.733622 76.354365 
L 333.183764 76.489259 
L 335.215171 76.619748 
L 335.38432 74.146878 
L 333.332394 74.015071 
L 330.857503 73.878814 
L 328.381374 73.767313 
L 325.904254 73.680578 
L 323.42639 73.618619 
L 320.948031 73.581441 
L 318.469423 73.569048 
z
" clip-path="url(#p52821060fd)" style="fill: #000080"/>
   </g>
   <g id="patch_3">
    <path d="M 335.215171 76.619748 
L 337.662434 76.799443 
L 340.107779 77.003602 
L 342.550959 77.232203 
L 344.991731 77.485225 
L 347.429851 77.762641 
L 349.865076 78.064424 
L 351.882842 78.333237 
L 352.220351 75.877674 
L 350.182203 75.606146 
L 347.722381 75.301315 
L 345.259633 75.021097 
L 342.794207 74.765519 
L 340.326348 74.534609 
L 337.856303 74.328388 
L 335.38432 74.146878 
z
" clip-path="url(#p52821060fd)" style="fill: #0000d6"/>
   </g>
   <g id="patch_4">
    <path d="M 351.882842 78.333237 
L 354.312137 78.67952 
L 356.737849 79.050079 
L 359.159733 79.444876 
L 361.577549 79.863872 
L 363.991054 80.307024 
L 366.400006 80.774289 
L 368.394724 81.180173 
L 368.89902 78.753367 
L 366.884154 78.343384 
L 364.450868 77.871399 
L 362.012984 77.42377 
L 359.570747 77.000542 
L 357.124399 76.601758 
L 354.674185 76.227456 
L 352.220351 75.877674 
z
" clip-path="url(#p52821060fd)" style="fill: #001cff"/>
   </g>
   <g id="patch_5">
    <path d="M 368.394724 81.180173 
L 370.794725 81.69143 
L 373.189494 82.226661 
L 375.578791 82.785813 
L 377.962376 83.36883 
L 380.340013 83.975653 
L 382.711462 84.606221 
L 385.076488 85.260472 
L 387.434852 85.93834 
L 389.786321 86.639757 
L 392.130657 87.364654 
L 394.467628 88.112958 
L 396.796999 88.884593 
L 399.118537 89.679483 
L 401.43201 90.497548 
L 403.737187 91.338707 
L 406.033837 92.202875 
L 408.321731 93.089966 
L 410.60064 93.999891 
L 412.870336 94.93256 
L 415.130592 95.887878 
L 417.381181 96.865751 
L 419.62188 97.86608 
L 421.852463 98.888766 
L 424.072709 99.933707 
L 426.282394 101.000797 
L 428.481297 102.08993 
L 430.6692 103.200998 
L 432.845883 104.333888 
L 435.011128 105.488489 
L 437.164719 106.664684 
L 439.306441 107.862355 
L 441.436079 109.081384 
L 443.553421 110.321647 
L 445.658254 111.583022 
L 447.750369 112.865381 
L 449.829555 114.168598 
L 451.895606 115.49254 
L 453.948314 116.837077 
L 455.987475 118.202073 
L 458.012883 119.587392 
L 460.024338 120.992896 
L 462.021637 122.418443 
L 464.004581 123.863892 
L 465.972971 125.329098 
L 467.926612 126.813914 
L 469.865306 128.318192 
L 471.788862 129.841781 
L 473.697085 131.384529 
L 475.589786 132.946283 
L 477.466775 134.526884 
L 479.327864 136.126177 
L 481.172868 137.744 
L 483.001601 139.380191 
L 484.813881 141.034588 
L 486.609527 142.707025 
L 488.38836 144.397334 
L 490.1502 146.105347 
L 491.894872 147.830893 
L 493.622203 149.573798 
L 495.332017 151.33389 
L 497.024146 153.110991 
L 498.69842 154.904925 
L 500.35467 156.715511 
L 501.992733 158.542569 
L 503.612443 160.385916 
L 505.213639 162.245368 
L 506.796161 164.120738 
L 508.35985 166.01184 
L 509.90455 167.918483 
L 511.430107 169.840478 
L 512.936369 171.777633 
L 514.423183 173.729753 
L 515.890403 175.696643 
L 517.33788 177.678106 
L 518.765471 179.673945 
L 518.942573 179.92451 
L 520.967554 178.495122 
L 520.788663 178.242027 
L 519.346652 176.226027 
L 517.884554 174.224549 
L 516.402514 172.237791 
L 514.900681 170.265953 
L 513.379205 168.309232 
L 511.838239 166.367822 
L 510.277935 164.44192 
L 508.698451 162.531716 
L 507.099944 160.637403 
L 505.482575 158.759169 
L 503.846504 156.897202 
L 502.191895 155.051689 
L 500.518915 153.222814 
L 498.827729 151.41076 
L 497.118508 149.615708 
L 495.391422 147.837837 
L 493.646645 146.077327 
L 491.884349 144.334351 
L 490.104712 142.609086 
L 488.307912 140.901703 
L 486.494129 139.212373 
L 484.663542 137.541265 
L 482.816337 135.888546 
L 480.952697 134.254381 
L 479.072809 132.638935 
L 477.17686 131.042367 
L 475.265041 129.464839 
L 473.337543 127.906507 
L 471.394558 126.367528 
L 469.43628 124.848055 
L 467.462906 123.348241 
L 465.474633 121.868235 
L 463.471659 120.408186 
L 461.454185 118.968239 
L 459.422413 117.548538 
L 457.376546 116.149226 
L 455.316788 114.770442 
L 453.243345 113.412324 
L 451.156425 112.075009 
L 449.056237 110.758629 
L 446.94299 109.463316 
L 444.816896 108.1892 
L 442.678167 106.936409 
L 440.527017 105.705067 
L 438.363662 104.495297 
L 436.188317 103.307222 
L 434.001201 102.140959 
L 431.802531 100.996625 
L 429.592529 99.874334 
L 427.371414 98.7742 
L 425.139409 97.696331 
L 422.896737 96.640836 
L 420.643622 95.607819 
L 418.38029 94.597386 
L 416.106967 93.609635 
L 413.82388 92.644667 
L 411.531258 91.702578 
L 409.22933 90.783462 
L 406.918326 89.88741 
L 404.598477 89.014513 
L 402.270016 88.164858 
L 399.933174 87.338529 
L 397.588186 86.53561 
L 395.235286 85.75618 
L 392.87471 85.000318 
L 390.506693 84.268099 
L 388.131473 83.559597 
L 385.749286 82.874882 
L 383.360372 82.214022 
L 380.964968 81.577084 
L 378.563315 80.964132 
L 376.155653 80.375226 
L 373.742222 79.810427 
L 371.323264 79.269789 
L 368.89902 78.753367 
z
" clip-path="url(#p52821060fd)" style="fill: #006cff"/>
   </g>
   <g id="patch_6">
    <path d="M 518.942573 179.92451 
L 520.34762 181.936283 
L 521.732479 183.962006 
L 523.097012 186.001477 
L 524.441083 188.05449 
L 525.764556 190.120841 
L 527.0673 192.200324 
L 528.349185 194.292729 
L 529.610082 196.397849 
L 530.849865 198.515472 
L 532.068409 200.645387 
L 533.265595 202.787381 
L 534.441301 204.941239 
L 535.595409 207.106746 
L 536.727806 209.283686 
L 537.838376 211.471841 
L 538.927011 213.670992 
L 539.993599 215.880919 
L 541.038035 218.101402 
L 542.060215 220.332217 
L 543.060035 222.573143 
L 544.037397 224.823955 
L 544.992202 227.084427 
L 545.924355 229.354335 
L 546.833763 231.63345 
L 547.720335 233.921545 
L 548.583981 236.218392 
L 549.424617 238.52376 
L 550.242157 240.837419 
L 551.03652 243.159137 
L 551.807626 245.488683 
L 552.555399 247.825824 
L 553.279763 250.170325 
L 553.980647 252.521952 
L 554.657979 254.880471 
L 555.311693 257.245644 
L 555.941723 259.617237 
L 556.548006 261.995011 
L 557.130482 264.378729 
L 557.689091 266.768153 
L 558.223779 269.163043 
L 558.734491 271.56316 
L 559.221177 273.968264 
L 559.683788 276.378115 
L 560.122278 278.792471 
L 560.536603 281.211092 
L 560.926721 283.633734 
L 561.292594 286.060157 
L 561.570098 288.020493 
L 564.02566 287.682983 
L 563.745353 285.702846 
L 563.375784 283.251914 
L 562.981726 280.8048 
L 562.563216 278.36175 
L 562.120297 275.923006 
L 561.653013 273.488813 
L 561.161411 271.059415 
L 560.64554 268.635054 
L 560.105451 266.215974 
L 559.541199 263.802414 
L 558.952841 261.394618 
L 558.340434 258.992826 
L 557.70404 256.597278 
L 557.043722 254.208214 
L 556.359548 251.825872 
L 555.651585 249.45049 
L 554.919904 247.082308 
L 554.164578 244.72156 
L 553.385682 242.368483 
L 552.583295 240.023313 
L 551.757497 237.686284 
L 550.908371 235.357629 
L 550.036 233.037582 
L 549.140474 230.726375 
L 548.22188 228.424238 
L 547.280311 226.131402 
L 546.315862 223.848097 
L 545.328627 221.574549 
L 544.318708 219.310988 
L 543.286203 217.057639 
L 542.231217 214.814727 
L 541.153855 212.582478 
L 540.054225 210.361113 
L 538.932436 208.150856 
L 537.788601 205.951926 
L 536.622835 203.764545 
L 535.435253 201.588931 
L 534.225975 199.425301 
L 532.995122 197.273872 
L 531.742816 195.134858 
L 530.469183 193.008475 
L 529.17435 190.894934 
L 527.858446 188.794447 
L 526.521605 186.707223 
L 525.163958 184.633472 
L 523.785641 182.573401 
L 522.386794 180.527216 
L 520.967554 178.495122 
z
" clip-path="url(#p52821060fd)" style="fill: #00b8ff"/>
   </g>
   <g id="patch_7">
    <path d="M 561.570098 288.020493 
L 561.892072 290.45313 
L 562.189703 292.888865 
L 562.462963 295.327454 
L 562.711824 297.768654 
L 562.93626 300.212221 
L 563.13625 302.657909 
L 563.311774 305.105476 
L 563.462814 307.554675 
L 563.589354 310.005262 
L 563.691383 312.456992 
L 563.76889 314.909619 
L 563.821867 317.362899 
L 563.850308 319.816586 
L 563.854213 322.270435 
L 563.833578 324.7242 
L 563.788408 327.177636 
L 563.718706 329.630498 
L 563.624479 332.08254 
L 563.505737 334.533518 
L 563.362491 336.983185 
L 563.194756 339.431297 
L 563.002549 341.87761 
L 562.785889 344.321878 
L 562.544798 346.763858 
L 562.279299 349.203304 
L 561.989419 351.639974 
L 561.675188 354.073623 
L 561.336636 356.504008 
L 560.973797 358.930886 
L 560.586709 361.354015 
L 560.175409 363.773151 
L 559.739938 366.188054 
L 559.280341 368.598481 
L 558.796662 371.004192 
L 558.288952 373.404946 
L 557.757259 375.800503 
L 557.201638 378.190623 
L 556.622144 380.575068 
L 556.018834 382.953598 
L 555.39177 385.325977 
L 554.741014 387.691966 
L 554.066631 390.05133 
L 553.368689 392.403832 
L 552.647257 394.749237 
L 551.902407 397.08731 
L 551.134214 399.417818 
L 550.342755 401.740528 
L 549.528108 404.055208 
L 548.690356 406.361625 
L 547.829582 408.65955 
L 546.945873 410.948752 
L 546.039315 413.229003 
L 545.110001 415.500074 
L 544.158023 417.761739 
L 543.183477 420.013771 
L 542.186459 422.255945 
L 541.16707 424.488037 
L 540.125411 426.709823 
L 539.061587 428.921083 
L 537.975703 431.121593 
L 536.86787 433.311135 
L 535.738196 435.489489 
L 534.586796 437.656438 
L 533.413784 439.811765 
L 532.219279 441.955254 
L 531.003398 444.086691 
L 529.766264 446.205862 
L 528.508 448.312557 
L 527.228733 450.406564 
L 525.92859 452.487674 
L 524.607702 454.555678 
L 523.266199 456.61037 
L 521.904218 458.651545 
L 520.521892 460.678999 
L 519.119362 462.692527 
L 517.696767 464.69193 
L 516.25425 466.677008 
L 514.791954 468.647561 
L 513.310026 470.603393 
L 511.808614 472.544308 
L 510.287868 474.470112 
L 508.747941 476.380613 
L 507.188986 478.275619 
L 505.611159 480.154941 
L 504.014618 482.018392 
L 502.399523 483.865783 
L 500.766035 485.696932 
L 499.114317 487.511655 
L 497.444535 489.30977 
L 495.756856 491.091098 
L 494.051448 492.85546 
L 492.328482 494.602679 
L 490.58813 496.332583 
L 488.830567 498.044996 
L 487.055968 499.739749 
L 485.26451 501.416671 
L 483.456372 503.075595 
L 481.631737 504.716355 
L 479.790785 506.338787 
L 477.933701 507.942728 
L 476.06067 509.528019 
L 474.171881 511.094501 
L 472.267522 512.642016 
L 470.347783 514.170412 
L 468.412856 515.679533 
L 466.462935 517.16923 
L 464.498215 518.639354 
L 462.518892 520.089757 
L 460.525164 521.520295 
L 458.517231 522.930825 
L 456.495293 524.321205 
L 454.459553 525.691296 
L 452.410214 527.040962 
L 450.34748 528.370067 
L 448.271559 529.678479 
L 446.182658 530.966067 
L 444.080986 532.232701 
L 441.966753 533.478256 
L 439.84017 534.702607 
L 437.70145 535.905631 
L 435.550807 537.087208 
L 433.388456 538.247219 
L 431.214613 539.38555 
L 429.029496 540.502086 
L 426.833323 541.596715 
L 424.626313 542.669327 
L 422.408688 543.719817 
L 420.180669 544.748078 
L 417.942479 545.754008 
L 415.694342 546.737506 
L 413.436482 547.698474 
L 411.169126 548.636816 
L 408.8925 549.552437 
L 406.606832 550.445247 
L 404.31235 551.315156 
L 402.009283 552.162077 
L 399.697863 552.985925 
L 397.37832 553.786619 
L 395.050887 554.564077 
L 392.715795 555.318222 
L 390.373278 556.04898 
L 388.023572 556.756275 
L 385.666909 557.440039 
L 383.303528 558.100203 
L 380.933663 558.7367 
L 378.557551 559.349467 
L 376.175431 559.938442 
L 373.78754 560.503568 
L 371.394117 561.044786 
L 368.995402 561.562044 
L 366.591635 562.055289 
L 364.183055 562.524472 
L 361.769904 562.969546 
L 359.352423 563.390467 
L 356.930853 563.787193 
L 354.505438 564.159683 
L 352.076419 564.507901 
L 349.644039 564.831812 
L 347.208542 565.131383 
L 344.770171 565.406585 
L 342.32917 565.657389 
L 339.885783 565.883772 
L 337.440254 566.085709 
L 334.992828 566.263182 
L 332.54375 566.416172 
L 330.093265 566.544664 
L 327.641617 566.648645 
L 325.189052 566.728104 
L 322.735815 566.783035 
L 320.282151 566.813431 
L 317.828306 566.819289 
L 315.374525 566.800609 
L 312.921054 566.757392 
L 310.468138 566.689643 
L 308.016021 566.597369 
L 305.56495 566.480579 
L 303.11517 566.339284 
L 300.666924 566.173499 
L 298.220459 565.98324 
L 295.776019 565.768526 
L 293.333849 565.529379 
L 290.894191 565.265823 
L 288.457292 564.977884 
L 286.023393 564.66559 
L 283.592739 564.328974 
L 281.165573 563.968068 
L 278.742137 563.58291 
L 276.322674 563.173536 
L 273.907425 562.739989 
L 271.496632 562.282311 
L 269.090537 561.800548 
L 266.68938 561.29475 
L 264.2934 560.764965 
L 261.902839 560.211247 
L 259.517933 559.633652 
L 257.138923 559.032237 
L 254.766046 558.407062 
L 252.399539 557.758191 
L 250.039639 557.085687 
L 247.686582 556.389618 
L 245.340603 555.670054 
L 243.001937 554.927066 
L 240.670818 554.160729 
L 238.347479 553.37112 
L 236.032151 552.558317 
L 233.725068 551.722402 
L 231.426458 550.863458 
L 229.136553 549.981571 
L 226.855581 549.07683 
L 224.583771 548.149325 
L 222.321348 547.199149 
L 220.068541 546.226396 
L 217.825574 545.231164 
L 215.592671 544.213552 
L 213.370055 543.173663 
L 211.15795 542.1116 
L 208.956575 541.027469 
L 206.766152 539.921379 
L 204.586898 538.793441 
L 202.419033 537.643767 
L 200.262773 536.472472 
L 198.118334 535.279673 
L 195.985929 534.06549 
L 193.865773 532.830044 
L 191.758077 531.573459 
L 189.663052 530.29586 
L 187.580908 528.997374 
L 185.511852 527.678133 
L 183.456092 526.338267 
L 181.413833 524.977911 
L 179.38528 523.597201 
L 177.370635 522.196275 
L 175.3701 520.775272 
L 173.383874 519.334336 
L 171.412157 517.87361 
L 169.455146 516.39324 
L 167.513036 514.893374 
L 165.586021 513.374162 
L 163.674295 511.835757 
L 161.778048 510.278311 
L 159.897469 508.701981 
L 158.032749 507.106925 
L 156.184071 505.493301 
L 154.351622 503.861272 
L 152.535585 502.211 
L 150.980291 500.770983 
L 149.288481 502.582468 
L 150.859485 504.037031 
L 152.693867 505.703973 
L 154.544825 507.352487 
L 156.412176 508.98241 
L 158.295733 510.593578 
L 160.195306 512.18583 
L 162.110707 513.759008 
L 164.041744 515.312953 
L 165.988224 516.84751 
L 167.949951 518.362526 
L 169.92673 519.857849 
L 171.918364 521.33333 
L 173.924652 522.788821 
L 175.945395 524.224177 
L 177.98039 525.639254 
L 180.029433 527.033911 
L 182.092321 528.408008 
L 184.168846 529.761408 
L 186.258802 531.093975 
L 188.361978 532.405576 
L 190.478165 533.69608 
L 192.60715 534.965359 
L 194.748722 536.213284 
L 196.902666 537.439731 
L 199.068767 538.644579 
L 201.246807 539.827705 
L 203.43657 540.988992 
L 205.637836 542.128324 
L 207.850385 543.245586 
L 210.073995 544.340667 
L 212.308445 545.413458 
L 214.553512 546.463852 
L 216.808969 547.491742 
L 219.074593 548.497027 
L 221.350156 549.479605 
L 223.635431 550.43938 
L 225.930189 551.376254 
L 228.234201 552.290134 
L 230.547236 553.180928 
L 232.869064 554.048548 
L 235.199451 554.892907 
L 237.538166 555.71392 
L 239.884974 556.511505 
L 242.23964 557.285583 
L 244.601928 558.036075 
L 246.971604 558.762908 
L 249.348429 559.466008 
L 251.732166 560.145305 
L 254.122577 560.800731 
L 256.519423 561.43222 
L 258.922464 562.03971 
L 261.331459 562.623139 
L 263.746168 563.18245 
L 266.166349 563.717586 
L 268.591761 564.228494 
L 271.02216 564.715123 
L 273.457304 565.177424 
L 275.896949 565.61535 
L 278.340851 566.028859 
L 280.788766 566.417908 
L 283.240449 566.78246 
L 285.695655 567.122476 
L 288.154139 567.437924 
L 290.615654 567.728772 
L 293.079954 567.99499 
L 295.546793 568.236553 
L 298.015924 568.453435 
L 300.487101 568.645616 
L 302.960076 568.813076 
L 305.434602 568.955798 
L 307.910431 569.073768 
L 310.387317 569.166974 
L 312.86501 569.235407 
L 315.343264 569.27906 
L 317.82183 569.297929 
L 320.300462 569.292012 
L 322.77891 569.261309 
L 325.256927 569.205824 
L 327.734265 569.125561 
L 330.210677 569.02053 
L 332.685915 568.89074 
L 335.159731 568.736205 
L 337.631879 568.556939 
L 340.10211 568.352962 
L 342.570177 568.124293 
L 345.035835 567.870955 
L 347.498836 567.592974 
L 349.958934 567.290376 
L 352.415883 566.963194 
L 354.869438 566.611459 
L 357.319353 566.235206 
L 359.765382 565.834473 
L 362.207282 565.4093 
L 364.644809 564.95973 
L 367.077718 564.485808 
L 369.505766 563.987581 
L 371.92871 563.465098 
L 374.346309 562.918413 
L 376.75832 562.347579 
L 379.164502 561.752654 
L 381.564614 561.133698 
L 383.958418 560.490771 
L 386.345672 559.82394 
L 388.726139 559.133269 
L 391.09958 558.418829 
L 393.465758 557.68069 
L 395.824437 556.918927 
L 398.17538 556.133616 
L 400.518353 555.324834 
L 402.85312 554.492664 
L 405.17945 553.637189 
L 407.497109 552.758493 
L 409.805864 551.856665 
L 412.105487 550.931794 
L 414.395746 549.983975 
L 416.676412 549.0133 
L 418.947258 548.019868 
L 421.208055 547.003777 
L 423.45858 545.965129 
L 425.698605 544.904029 
L 427.927908 543.820581 
L 430.146264 542.714895 
L 432.353453 541.587082 
L 434.549254 540.437253 
L 436.733447 539.265524 
L 438.905814 538.072012 
L 441.066137 536.856836 
L 443.214201 535.620118 
L 445.34979 534.361982 
L 447.472691 533.082553 
L 449.582692 531.78196 
L 451.679582 530.460332 
L 453.763151 529.117801 
L 455.83319 527.754502 
L 457.889494 526.370571 
L 459.931855 524.966147 
L 461.960071 523.54137 
L 463.973937 522.096382 
L 465.973253 520.631328 
L 467.957819 519.146355 
L 469.927436 517.64161 
L 471.881908 516.117245 
L 473.821038 514.573411 
L 475.744633 513.010264 
L 477.652501 511.42796 
L 479.544451 509.826656 
L 481.420293 508.206513 
L 483.279841 506.567693 
L 485.122907 504.910359 
L 486.949308 503.234679 
L 488.758862 501.540818 
L 490.551387 499.828947 
L 492.326703 498.099236 
L 494.084634 496.351859 
L 495.825004 494.58699 
L 497.547638 492.804806 
L 499.252365 491.005486 
L 500.939013 489.189208 
L 502.607415 487.356155 
L 504.257403 485.506509 
L 505.888812 483.640457 
L 507.501479 481.758184 
L 509.095244 479.859879 
L 510.669946 477.945731 
L 512.225428 476.015933 
L 513.761535 474.070676 
L 515.278113 472.110155 
L 516.775009 470.134568 
L 518.252076 468.14411 
L 519.709165 466.138981 
L 521.146129 464.119382 
L 522.562826 462.085515 
L 523.959114 460.037582 
L 525.334854 457.975789 
L 526.689906 455.900342 
L 528.024137 453.811449 
L 529.337413 451.709318 
L 530.629602 449.594159 
L 531.900575 447.466185 
L 533.150206 445.325608 
L 534.378368 443.172641 
L 535.58494 441.007501 
L 536.7698 438.830403 
L 537.93283 436.641566 
L 539.073915 434.441208 
L 540.192939 432.22955 
L 541.28979 430.006812 
L 542.36436 427.773217 
L 543.416541 425.528988 
L 544.446227 423.274349 
L 545.453316 421.009527 
L 546.437706 418.734747 
L 547.3993 416.450237 
L 548.338001 414.156226 
L 549.253716 411.852942 
L 550.146352 409.540617 
L 551.01582 407.219481 
L 551.862034 404.889766 
L 552.68491 402.551706 
L 553.484363 400.205535 
L 554.260316 397.851486 
L 555.012689 395.489795 
L 555.741409 393.120699 
L 556.446401 390.744435 
L 557.127596 388.361239 
L 557.784925 385.971351 
L 558.418323 383.575009 
L 559.027727 381.172453 
L 559.613074 378.763923 
L 560.174308 376.34966 
L 560.711371 373.929906 
L 561.22421 371.504902 
L 561.712774 369.074891 
L 562.177014 366.640116 
L 562.616883 364.200821 
L 563.032338 361.757248 
L 563.423336 359.309644 
L 563.78984 356.858252 
L 564.131811 354.403317 
L 564.449217 351.945086 
L 564.742025 349.483803 
L 565.010205 347.019716 
L 565.253732 344.55307 
L 565.472581 342.084112 
L 565.666729 339.613089 
L 565.836158 337.140248 
L 565.980851 334.665837 
L 566.100793 332.190102 
L 566.195971 329.713292 
L 566.266377 327.235654 
L 566.312004 324.757435 
L 566.332847 322.278885 
L 566.328903 319.80025 
L 566.300174 317.321778 
L 566.246662 314.843717 
L 566.168372 312.366316 
L 566.065313 309.889821 
L 565.937494 307.41448 
L 565.784929 304.940542 
L 565.607633 302.468253 
L 565.405622 299.99786 
L 565.178919 297.529611 
L 564.927544 295.063752 
L 564.651524 292.600531 
L 564.350886 290.140192 
L 564.02566 287.682983 
z
" clip-path="url(#p52821060fd)" style="fill: #1cffdb"/>
   </g>
   <g id="patch_8">
    <path d="M 150.980291 500.770983 
L 149.195324 499.087152 
L 147.427285 497.385557 
L 145.67635 495.666367 
L 143.942694 493.929753 
L 142.226491 492.17589 
L 140.527912 490.404953 
L 138.847126 488.617119 
L 137.184303 486.812567 
L 135.539608 484.991477 
L 133.913206 483.154032 
L 132.30526 481.300414 
L 130.71593 479.430811 
L 129.145374 477.545407 
L 128.120566 476.294193 
L 126.19785 477.858439 
L 127.23301 479.122291 
L 128.81943 481.026739 
L 130.424814 482.915228 
L 132.049002 484.787568 
L 133.691832 486.643574 
L 135.35314 488.483059 
L 137.03276 490.305839 
L 138.730523 492.111731 
L 140.446259 493.900557 
L 142.179798 495.672135 
L 143.930966 497.42629 
L 145.699587 499.162846 
L 147.485485 500.88163 
L 149.288481 502.582468 
z
" clip-path="url(#p52821060fd)" style="fill: #5dff9a"/>
   </g>
   <g id="patch_9">
    <path d="M 128.120566 476.294193 
L 126.581506 474.382994 
L 125.061635 472.456499 
L 123.561105 470.514902 
L 122.080065 468.558398 
L 120.618664 466.587181 
L 119.177048 464.601448 
L 117.755361 462.6014 
L 116.353745 460.587234 
L 114.972341 458.559153 
L 113.611286 456.51736 
L 112.270717 454.462059 
L 110.950767 452.393455 
L 109.65157 450.311755 
L 108.806679 448.93265 
L 106.688874 450.220516 
L 107.542298 451.613551 
L 108.854619 453.716279 
L 110.187902 455.805778 
L 111.542012 457.88184 
L 112.916815 459.944257 
L 114.312173 461.992823 
L 115.727946 464.027334 
L 117.163993 466.047585 
L 118.620171 468.053375 
L 120.096334 470.044504 
L 121.592334 472.020771 
L 123.108021 473.98198 
L 124.643244 475.927934 
L 126.19785 477.858439 
z
" clip-path="url(#p52821060fd)" style="fill: #9aff5d"/>
   </g>
   <g id="patch_10">
    <path d="M 108.806679 448.93265 
L 107.542196 446.829683 
L 106.298806 444.714176 
L 105.076632 442.586341 
L 103.875798 440.446391 
L 102.696422 438.29454 
L 101.538624 436.131003 
L 100.402519 433.955997 
L 99.28822 431.769738 
L 98.195839 429.572446 
L 97.125485 427.36434 
L 96.077266 425.145641 
L 95.051285 422.916571 
L 94.047646 420.677352 
L 93.066449 418.42821 
L 92.107793 416.169368 
L 91.171772 413.901053 
L 90.258481 411.623491 
L 89.36801 409.33691 
L 88.50045 407.041539 
L 87.655886 404.737607 
L 86.834404 402.425345 
L 86.036085 400.104984 
L 85.261009 397.776756 
L 84.509253 395.440893 
L 83.780894 393.09763 
L 83.076003 390.747201 
L 82.394651 388.38984 
L 81.736906 386.025784 
L 81.102835 383.655269 
L 80.4925 381.278532 
L 79.905962 378.89581 
L 79.343281 376.507342 
L 78.804512 374.113367 
L 78.28971 371.714124 
L 77.798925 369.309853 
L 77.332207 366.900794 
L 76.889602 364.487189 
L 76.471156 362.069278 
L 76.076908 359.647304 
L 75.7069 357.221508 
L 75.361168 354.792134 
L 75.039747 352.359424 
L 74.742669 349.923622 
L 74.469962 347.484971 
L 74.221656 345.043714 
L 73.997774 342.600097 
L 73.798339 340.154363 
L 73.623371 337.706757 
L 73.472888 335.257523 
L 73.346904 332.806907 
L 73.245432 330.355154 
L 73.168482 327.902509 
L 73.116062 325.449217 
L 73.088177 322.995524 
L 73.08483 320.541674 
L 73.106022 318.087914 
L 73.151749 315.634488 
L 73.222008 313.181642 
L 73.316792 310.729621 
L 73.43609 308.278671 
L 73.579892 305.829037 
L 73.748183 303.380962 
L 73.940945 300.934693 
L 74.15816 298.490474 
L 74.399806 296.048549 
L 74.665859 293.609163 
L 74.956292 291.172559 
L 75.271076 288.738982 
L 75.61018 286.308674 
L 75.973569 283.881878 
L 76.361208 281.458837 
L 76.773057 279.039794 
L 77.209076 276.624991 
L 77.669221 274.214668 
L 78.153445 271.809067 
L 78.661701 269.408428 
L 79.193937 267.012992 
L 79.750101 264.622998 
L 80.330137 262.238685 
L 80.933986 259.860292 
L 81.561589 257.488056 
L 82.212882 255.122214 
L 82.8878 252.763004 
L 83.586277 250.41066 
L 84.308242 248.065419 
L 85.053622 245.727515 
L 85.822344 243.397181 
L 86.614331 241.074651 
L 87.429503 238.760156 
L 88.267779 236.453929 
L 89.129074 234.1562 
L 90.013304 231.867199 
L 90.920379 229.587154 
L 91.850208 227.316294 
L 92.8027 225.054845 
L 93.777757 222.803034 
L 94.775284 220.561087 
L 95.79518 218.329226 
L 96.837344 216.107676 
L 97.90167 213.896659 
L 98.988053 211.696395 
L 100.096384 209.507104 
L 101.226552 207.329007 
L 102.378444 205.162319 
L 103.551945 203.007259 
L 104.746937 200.864041 
L 105.963302 198.732881 
L 107.200917 196.61399 
L 108.459659 194.507581 
L 109.739401 192.413864 
L 111.040017 190.33305 
L 112.361375 188.265345 
L 113.703344 186.210958 
L 115.065789 184.170092 
L 116.448574 182.142953 
L 117.851562 180.129742 
L 119.274611 178.130662 
L 120.717579 176.145913 
L 122.180322 174.175691 
L 123.662694 172.220196 
L 125.164547 170.279622 
L 126.685729 168.354163 
L 128.120566 166.573629 
L 126.19785 165.009384 
L 124.74852 166.807903 
L 123.211972 168.752811 
L 121.694949 170.712987 
L 120.197604 172.688235 
L 118.720085 174.678357 
L 117.262542 176.683155 
L 115.825119 178.702428 
L 114.40796 180.735973 
L 113.011207 182.783589 
L 111.634999 184.845069 
L 110.279475 186.920208 
L 108.94477 189.008799 
L 107.631017 191.110632 
L 106.338348 193.225497 
L 105.066892 195.353182 
L 103.816775 197.493476 
L 102.588124 199.646164 
L 101.381061 201.81103 
L 100.195707 203.987859 
L 99.032179 206.176432 
L 97.890595 208.37653 
L 96.771069 210.587935 
L 95.673713 212.810424 
L 94.598636 215.043775 
L 93.545946 217.287765 
L 92.515747 219.542169 
L 91.508145 221.806763 
L 90.523238 224.081319 
L 89.561125 226.365611 
L 88.621903 228.659409 
L 87.705666 230.962484 
L 86.812505 233.274607 
L 85.942509 235.595546 
L 85.095766 237.925068 
L 84.27236 240.262941 
L 83.472374 242.608931 
L 82.695887 244.962804 
L 81.942977 247.324323 
L 81.21372 249.693254 
L 80.508188 252.069358 
L 79.826452 254.452399 
L 79.16858 256.842138 
L 78.534638 259.238336 
L 77.924689 261.640754 
L 77.338795 264.049151 
L 76.777013 266.463286 
L 76.239401 268.882918 
L 75.726011 271.307806 
L 75.236895 273.737706 
L 74.772103 276.172375 
L 74.33168 278.611571 
L 73.91567 281.055049 
L 73.524116 283.502564 
L 73.157056 285.953873 
L 72.814527 288.40873 
L 72.496563 290.866889 
L 72.203197 293.328105 
L 71.934457 295.792132 
L 71.69037 298.258722 
L 71.47096 300.72763 
L 71.276251 303.198609 
L 71.10626 305.671412 
L 70.961006 308.14579 
L 70.840502 310.621497 
L 70.744761 313.098286 
L 70.673793 315.575908 
L 70.627603 318.054116 
L 70.606198 320.532662 
L 70.609579 323.011298 
L 70.637745 325.489776 
L 70.690695 327.967849 
L 70.768422 330.445268 
L 70.870919 332.921786 
L 70.998175 335.397156 
L 71.150179 337.871129 
L 71.326914 340.343458 
L 71.528364 342.813896 
L 71.754507 345.282197 
L 72.005321 347.748113 
L 72.280782 350.211397 
L 72.580861 352.671803 
L 72.90553 355.129086 
L 73.254754 357.582999 
L 73.628499 360.033298 
L 74.026729 362.479736 
L 74.449402 364.92207 
L 74.896477 367.360055 
L 75.36791 369.793448 
L 75.863652 372.222005 
L 76.383655 374.645482 
L 76.927866 377.063639 
L 77.496231 379.476233 
L 78.088693 381.883023 
L 78.705193 384.283768 
L 79.345669 386.678227 
L 80.010057 389.066163 
L 80.698291 391.447335 
L 81.410302 393.821506 
L 82.146019 396.188439 
L 82.905368 398.547896 
L 83.688273 400.899641 
L 84.494656 403.24344 
L 85.324436 405.579059 
L 86.177531 407.906262 
L 87.053855 410.224819 
L 87.95332 412.534497 
L 88.875836 414.835064 
L 89.821311 417.126292 
L 90.789652 419.40795 
L 91.78076 421.679811 
L 92.794536 423.941648 
L 93.83088 426.193234 
L 94.889688 428.434344 
L 95.970853 430.664754 
L 97.074268 432.884241 
L 98.199823 435.092583 
L 99.347404 437.28956 
L 100.516897 439.474951 
L 101.708185 441.648538 
L 102.921149 443.810103 
L 104.155668 445.959431 
L 105.411618 448.096307 
L 106.688874 450.220516 
z
" clip-path="url(#p52821060fd)" style="fill: #dbff1c"/>
   </g>
   <g id="patch_11">
    <path d="M 128.120566 166.573629 
L 129.67866 164.677915 
L 131.255633 162.797877 
L 132.851328 160.933702 
L 134.465584 159.085577 
L 136.09824 157.253687 
L 137.749134 155.438214 
L 139.418099 153.639341 
L 141.104969 151.857247 
L 142.809576 150.092111 
L 144.531748 148.344109 
L 146.271314 146.613416 
L 148.0281 144.900204 
L 149.801929 143.204646 
L 151.592626 141.52691 
L 153.400009 139.867166 
L 155.2239 138.225577 
L 157.064115 136.602309 
L 158.92047 134.997525 
L 160.792781 133.411384 
L 162.680858 131.844045 
L 164.584515 130.295664 
L 166.50356 128.766398 
L 168.437801 127.256398 
L 170.387045 125.765815 
L 172.351098 124.294799 
L 174.329762 122.843497 
L 176.32284 121.412054 
L 176.960022 120.960761 
L 175.530634 118.93578 
L 174.887016 119.391631 
L 172.873805 120.837534 
L 170.875155 122.303495 
L 168.891264 123.78937 
L 166.92233 125.295009 
L 164.968551 126.820261 
L 163.030122 128.364975 
L 161.107236 129.928995 
L 159.200087 131.512166 
L 157.308865 133.114329 
L 155.433758 134.735324 
L 153.574955 136.374988 
L 151.732642 138.033158 
L 149.907001 139.709668 
L 148.098217 141.40435 
L 146.30647 143.117035 
L 144.531939 144.847552 
L 142.774802 146.595727 
L 141.035234 148.361386 
L 139.313409 150.144352 
L 137.6095 151.944446 
L 135.923676 153.76149 
L 134.256107 155.5953 
L 132.606959 157.445695 
L 130.976398 159.312488 
L 129.364585 161.195493 
L 127.771683 163.094522 
L 126.19785 165.009384 
z
" clip-path="url(#p52821060fd)" style="fill: #ffcc00"/>
   </g>
   <g id="patch_12">
    <path d="M 176.960022 120.960761 
L 178.971795 119.555715 
L 180.997518 118.170855 
L 183.036989 116.806322 
L 185.090002 115.462252 
L 187.156353 114.138778 
L 189.235835 112.836034 
L 190.970684 111.771168 
L 189.682818 109.653362 
L 187.930446 110.728985 
L 185.829958 112.044888 
L 183.742735 113.38173 
L 181.668984 114.739377 
L 179.608913 116.117693 
L 177.562728 117.516541 
L 175.530634 118.93578 
z
" clip-path="url(#p52821060fd)" style="fill: #ff8600"/>
   </g>
   <g id="patch_13">
    <path d="M 190.970684 111.771168 
L 193.073652 110.506684 
L 195.189159 109.263294 
L 197.316993 108.04112 
L 199.456943 106.840286 
L 201.608794 105.66091 
L 203.772331 104.503112 
L 205.575805 103.559118 
L 204.435465 101.358363 
L 202.613775 102.311892 
L 200.428384 103.481385 
L 198.254797 104.672673 
L 196.093231 105.885638 
L 193.943903 107.120156 
L 191.807028 108.376106 
L 189.682818 109.653362 
z
" clip-path="url(#p52821060fd)" style="fill: #ff3b00"/>
   </g>
   <g id="patch_14">
    <path d="M 205.575805 103.559118 
L 207.760161 102.441094 
L 209.955588 101.34497 
L 212.161867 100.270854 
L 214.378776 99.218854 
L 216.606094 98.189076 
L 218.843598 97.181622 
L 221.091065 96.196592 
L 223.348269 95.234087 
L 225.614986 94.294201 
L 227.890988 93.377029 
L 230.176047 92.482662 
L 232.469936 91.611191 
L 234.772425 90.762701 
L 237.083284 89.937279 
L 239.402281 89.135006 
L 241.729184 88.355962 
L 244.063762 87.600227 
L 246.40578 86.867874 
L 248.755005 86.158978 
L 251.1112 85.473609 
L 252.265015 85.147283 
L 251.596283 82.760549 
L 250.430814 83.090171 
L 248.050819 83.782463 
L 245.677865 84.49852 
L 243.31219 85.23827 
L 240.954031 86.00164 
L 238.603623 86.788552 
L 236.261202 87.598929 
L 233.927001 88.432689 
L 231.601255 89.289749 
L 229.284195 90.170024 
L 226.976054 91.073424 
L 224.677062 91.99986 
L 222.38745 92.94924 
L 220.107445 93.921468 
L 217.837277 94.916447 
L 215.577171 95.934077 
L 213.327355 96.974258 
L 211.088053 98.036884 
L 208.859489 99.121849 
L 206.641886 100.229046 
L 204.435465 101.358363 
z
" clip-path="url(#p52821060fd)" style="fill: #d60000"/>
   </g>
   <g id="patch_15">
    <path d="M 252.265015 85.147283 
L 254.631152 84.497064 
L 257.003673 83.870539 
L 259.38234 83.267769 
L 261.766916 82.688817 
L 264.157162 82.133738 
L 266.55284 81.60259 
L 268.953709 81.095424 
L 271.359529 80.612292 
L 273.770061 80.153242 
L 276.185062 79.718319 
L 278.604292 79.307569 
L 281.027509 78.92103 
L 283.454469 78.558743 
L 285.884931 78.220743 
L 288.318651 77.907064 
L 290.755387 77.617737 
L 293.194894 77.352792 
L 295.636928 77.112255 
L 298.081245 76.89615 
L 300.527602 76.704498 
L 302.975752 76.537319 
L 305.425452 76.39463 
L 307.876456 76.276444 
L 310.328519 76.182774 
L 312.781397 76.113629 
L 315.234843 76.069016 
L 317.688613 76.048939 
L 318.469423 76.047696 
L 318.469423 73.569048 
L 317.680726 73.570302 
L 315.202171 73.590582 
L 312.723942 73.635646 
L 310.246288 73.70549 
L 307.769456 73.800106 
L 305.293694 73.919486 
L 302.81925 74.063617 
L 300.346371 74.232484 
L 297.875304 74.426072 
L 295.406297 74.64436 
L 292.939595 74.887326 
L 290.475447 75.154948 
L 288.014098 75.447197 
L 285.555795 75.764044 
L 283.100783 76.105458 
L 280.649307 76.471405 
L 278.201614 76.861848 
L 275.757948 77.276748 
L 273.318552 77.716063 
L 270.883672 78.17975 
L 268.45355 78.667762 
L 266.02843 79.180051 
L 263.608554 79.716565 
L 261.194164 80.27725 
L 258.785501 80.862051 
L 256.382807 81.470909 
L 253.986321 82.103762 
L 251.596283 82.760549 
z
" clip-path="url(#p52821060fd)" style="fill: #800000"/>
   </g>
   <g id="PatchCollection_1">
    <path d="M 128.120566 166.573629 
L 128.120566 166.573629 
L 129.67866 164.677915 
L 131.255633 162.797877 
L 132.851328 160.933702 
L 134.465584 159.085577 
L 136.09824 157.253687 
L 137.749134 155.438214 
L 139.132352 153.944779 
L 139.132352 153.944779 
Q 318.469423 321.433911 561.570098 288.020493 
L 561.570098 288.020493 
L 561.570098 288.020493 
L 561.892072 290.45313 
L 562.189703 292.888865 
L 562.462963 295.327454 
L 562.711824 297.768654 
L 562.93626 300.212221 
L 563.13625 302.657909 
L 563.283586 304.688164 
L 563.283586 304.688164 
Q 318.469423 321.433911 128.120566 166.573629 
z
" clip-path="url(#p52821060fd)" style="fill: #ffcc00; fill-opacity: 0.5; stroke: #808080; stroke-opacity: 0.5; stroke-width: 0.1"/>
    <path d="M 108.806679 448.93265 
L 108.806679 448.93265 
L 107.542196 446.829683 
L 106.298806 444.714176 
L 105.076632 442.586341 
L 103.875798 440.446391 
L 102.696422 438.29454 
L 101.538624 436.131003 
L 100.59463 434.32753 
L 100.59463 434.32753 
Q 318.469423 321.433911 252.265015 85.147283 
L 252.265015 85.147283 
L 252.265015 85.147283 
L 254.631152 84.497064 
L 257.003673 83.870539 
L 259.38234 83.267769 
L 261.766916 82.688817 
L 264.157162 82.133738 
L 266.55284 81.60259 
L 268.544122 81.180173 
L 268.544122 81.180173 
Q 318.469423 321.433911 108.806679 448.93265 
z
" clip-path="url(#p52821060fd)" style="fill: #dbff1c; fill-opacity: 0.5; stroke: #808080; stroke-opacity: 0.5; stroke-width: 0.1"/>
    <path d="M 100.59463 434.32753 
L 100.59463 434.32753 
L 99.476606 432.143173 
L 98.380482 429.947746 
L 97.306366 427.741468 
L 96.254366 425.524559 
L 95.224588 423.297241 
L 94.217133 421.059737 
L 93.398413 419.196047 
L 93.398413 419.196047 
Q 318.469423 321.433911 128.120566 476.294193 
L 128.120566 476.294193 
L 128.120566 476.294193 
L 126.581506 474.382994 
L 125.061635 472.456499 
L 123.561105 470.514902 
L 122.080065 468.558398 
L 120.618664 466.587181 
L 119.177048 464.601448 
L 117.996273 462.943313 
L 117.996273 462.943313 
Q 318.469423 321.433911 100.59463 434.32753 
z
" clip-path="url(#p52821060fd)" style="fill: #dbff1c; fill-opacity: 0.5; stroke: #808080; stroke-opacity: 0.5; stroke-width: 0.1"/>
    <path d="M 93.398413 419.196047 
L 93.398413 419.196047 
L 92.432062 416.940486 
L 91.488314 414.675375 
L 90.567264 412.40094 
L 89.669004 410.117408 
L 88.793623 407.825008 
L 87.94121 405.523968 
L 87.11185 403.21452 
L 86.305626 400.896894 
L 85.522617 398.571322 
L 84.762903 396.238036 
L 84.026559 393.897269 
L 83.31366 391.549256 
L 82.624276 389.194232 
L 81.958476 386.832432 
L 81.316327 384.464092 
L 80.697894 382.089449 
L 80.103237 379.708741 
L 79.532416 377.322205 
L 78.98549 374.93008 
L 78.462511 372.532606 
L 77.963533 370.130022 
L 77.488605 367.722568 
L 77.037775 365.310486 
L 76.611088 362.894016 
L 76.208587 360.4734 
L 75.830311 358.04888 
L 75.4763 355.620699 
L 75.368749 354.84733 
L 75.368749 354.84733 
Q 318.469423 321.433911 563.283586 304.688164 
L 563.283586 304.688164 
L 563.283586 304.688164 
L 563.438801 307.137102 
L 563.569518 309.58747 
L 563.675725 312.039022 
L 563.757413 314.491514 
L 563.814571 316.9447 
L 563.847195 319.398335 
L 563.855282 321.852174 
L 563.83883 324.305971 
L 563.797842 326.75948 
L 563.732321 329.212457 
L 563.642273 331.664656 
L 563.527709 334.115832 
L 563.388639 336.56574 
L 563.225078 339.014135 
L 563.037041 341.460772 
L 562.824547 343.905406 
L 562.587618 346.347793 
L 562.326278 348.787689 
L 562.040552 351.224849 
L 561.730469 353.65903 
L 561.39606 356.089989 
L 561.037359 358.517482 
L 560.654401 360.941266 
L 560.247225 363.3611 
L 559.815871 365.776742 
L 559.360383 368.187949 
L 558.880806 370.594481 
L 558.723162 371.359212 
L 558.723162 371.359212 
Q 318.469423 321.433911 93.398413 419.196047 
z
" clip-path="url(#p52821060fd)" style="fill: #dbff1c; fill-opacity: 0.5; stroke: #808080; stroke-opacity: 0.5; stroke-width: 0.1"/>
    <path d="M 75.368749 354.84733 
L 75.368749 354.84733 
L 75.046775 352.414693 
L 74.749143 349.978958 
L 74.475883 347.540369 
L 74.227023 345.099169 
L 74.002586 342.655602 
L 73.802596 340.209913 
L 73.65526 338.179659 
L 73.65526 338.179659 
Q 318.469423 321.433911 518.942573 179.92451 
L 518.942573 179.92451 
L 518.942573 179.92451 
L 520.34762 181.936283 
L 521.732479 183.962006 
L 523.097012 186.001477 
L 524.441083 188.05449 
L 525.764556 190.120841 
L 527.0673 192.200324 
L 528.132167 193.935172 
L 528.132167 193.935172 
Q 318.469423 321.433911 75.368749 354.84733 
z
" clip-path="url(#p52821060fd)" style="fill: #dbff1c; fill-opacity: 0.5; stroke: #808080; stroke-opacity: 0.5; stroke-width: 0.1"/>
    <path d="M 117.996273 462.943313 
L 117.996273 462.943313 
L 116.591226 460.931539 
L 115.206367 458.905816 
L 113.841834 456.866346 
L 112.497764 454.813333 
L 111.17429 452.746982 
L 109.871546 450.667499 
L 108.806679 448.93265 
L 108.806679 448.93265 
Q 318.469423 321.433911 558.723162 371.359212 
L 558.723162 371.359212 
L 558.723162 371.359212 
L 558.211905 373.759213 
L 557.676673 376.153982 
L 557.117521 378.543279 
L 556.534505 380.926865 
L 555.927682 383.304501 
L 555.297114 385.675951 
L 554.756052 387.63832 
L 554.756052 387.63832 
Q 318.469423 321.433911 117.996273 462.943313 
z
" clip-path="url(#p52821060fd)" style="fill: #9aff5d; fill-opacity: 0.5; stroke: #808080; stroke-opacity: 0.5; stroke-width: 0.1"/>
    <path d="M 150.980291 500.770983 
L 150.980291 500.770983 
L 149.195324 499.087152 
L 147.427285 497.385557 
L 145.67635 495.666367 
L 143.942694 493.929753 
L 142.226491 492.17589 
L 140.527912 490.404953 
L 138.847126 488.617119 
L 137.184303 486.812567 
L 135.539608 484.991477 
L 133.913206 483.154032 
L 132.30526 481.300414 
L 130.71593 479.430811 
L 129.145374 477.545407 
L 128.120566 476.294193 
L 128.120566 476.294193 
Q 318.469423 321.433911 268.544122 81.180173 
L 268.544122 81.180173 
L 268.544122 81.180173 
L 270.949116 80.692941 
L 273.358861 80.229783 
L 275.773118 79.790745 
L 278.191644 79.375871 
L 280.614198 78.985202 
L 283.040538 78.618779 
L 285.47042 78.276636 
L 287.903602 77.95881 
L 290.339841 77.66533 
L 292.778892 77.396227 
L 295.220513 77.151528 
L 297.664459 76.931257 
L 300.110485 76.735436 
L 301.723676 76.619748 
L 301.723676 76.619748 
Q 318.469423 321.433911 150.980291 500.770983 
z
" clip-path="url(#p52821060fd)" style="fill: #5dff9a; fill-opacity: 0.5; stroke: #808080; stroke-opacity: 0.5; stroke-width: 0.1"/>
    <path d="M 554.756052 387.63832 
L 554.756052 387.63832 
L 554.082205 389.997837 
L 553.384796 392.350497 
L 552.663897 394.696066 
L 551.919578 397.034308 
L 551.151914 399.364991 
L 550.360982 401.687881 
L 549.687265 403.608752 
L 549.687265 403.608752 
Q 318.469423 321.433911 301.723676 76.619748 
L 301.723676 76.619748 
L 301.723676 76.619748 
L 304.172614 76.464534 
L 306.622982 76.333817 
L 309.074534 76.227609 
L 311.527026 76.145922 
L 313.980212 76.088764 
L 316.433847 76.056139 
L 318.469423 76.047696 
L 318.469423 76.047696 
Q 318.469423 321.433911 554.756052 387.63832 
z
" clip-path="url(#p52821060fd)" style="fill: #1cffdb; fill-opacity: 0.5; stroke: #808080; stroke-opacity: 0.5; stroke-width: 0.1"/>
    <path d="M 549.687265 403.608752 
L 549.687265 403.608752 
L 548.853969 405.916783 
L 547.997635 408.216366 
L 547.118349 410.507271 
L 546.216198 412.789268 
L 545.291272 415.06213 
L 544.343665 417.32563 
L 543.37347 419.57954 
L 542.380785 421.823636 
L 541.365709 424.057693 
L 540.328343 426.281487 
L 539.268792 428.494797 
L 538.187161 430.697401 
L 537.083559 432.889079 
L 535.958095 435.069611 
L 534.810883 437.238779 
L 533.642036 439.396368 
L 532.451673 441.54216 
L 531.239911 443.675941 
L 530.006873 445.797499 
L 528.752681 447.90662 
L 528.132167 448.93265 
L 528.132167 448.93265 
Q 318.469423 321.433911 205.575805 103.559118 
L 205.575805 103.559118 
L 205.575805 103.559118 
L 207.760161 102.441094 
L 209.955588 101.34497 
L 212.161867 100.270854 
L 214.378776 99.218854 
L 216.606094 98.189076 
L 218.843598 97.181622 
L 221.091065 96.196592 
L 223.348269 95.234087 
L 225.614986 94.294201 
L 227.890988 93.377029 
L 230.176047 92.482662 
L 232.469936 91.611191 
L 234.772425 90.762701 
L 237.083284 89.937279 
L 239.402281 89.135006 
L 241.729184 88.355962 
L 244.063762 87.600227 
L 246.40578 86.867874 
L 248.755005 86.158978 
L 251.1112 85.473609 
L 252.265015 85.147283 
L 252.265015 85.147283 
Q 318.469423 321.433911 549.687265 403.608752 
z
" clip-path="url(#p52821060fd)" style="fill: #1cffdb; fill-opacity: 0.5; stroke: #808080; stroke-opacity: 0.5; stroke-width: 0.1"/>
    <path d="M 528.132167 448.93265 
L 528.132167 448.93265 
L 526.846718 451.022868 
L 525.540431 453.100127 
L 524.213437 455.164219 
L 522.86587 457.214938 
L 521.497862 459.25208 
L 520.109552 461.27544 
L 518.942573 462.943313 
L 518.942573 462.943313 
Q 318.469423 321.433911 190.970684 111.771168 
L 190.970684 111.771168 
L 190.970684 111.771168 
L 193.073652 110.506684 
L 195.189159 109.263294 
L 197.316993 108.04112 
L 199.456943 106.840286 
L 201.608794 105.66091 
L 203.772331 104.503112 
L 205.575805 103.559118 
L 205.575805 103.559118 
Q 318.469423 321.433911 528.132167 448.93265 
z
" clip-path="url(#p52821060fd)" style="fill: #1cffdb; fill-opacity: 0.5; stroke: #808080; stroke-opacity: 0.5; stroke-width: 0.1"/>
    <path d="M 518.942573 462.943313 
L 518.942573 462.943313 
L 517.517479 464.940936 
L 516.072481 466.924208 
L 514.607722 468.892931 
L 513.123349 470.846908 
L 511.619512 472.785945 
L 510.096359 474.709846 
L 508.818281 476.294193 
L 508.818281 476.294193 
Q 318.469423 321.433911 176.960022 120.960761 
L 176.960022 120.960761 
L 176.960022 120.960761 
L 178.971795 119.555715 
L 180.997518 118.170855 
L 183.036989 116.806322 
L 185.090002 115.462252 
L 187.156353 114.138778 
L 189.235835 112.836034 
L 190.970684 111.771168 
L 190.970684 111.771168 
Q 318.469423 321.433911 518.942573 462.943313 
z
" clip-path="url(#p52821060fd)" style="fill: #1cffdb; fill-opacity: 0.5; stroke: #808080; stroke-opacity: 0.5; stroke-width: 0.1"/>
    <path d="M 508.818281 476.294193 
L 508.818281 476.294193 
L 507.260187 478.189907 
L 505.683213 480.069946 
L 504.087519 481.934121 
L 502.473263 483.782246 
L 500.840606 485.614136 
L 499.189713 487.429609 
L 497.520748 489.228482 
L 495.833877 491.010576 
L 494.129271 492.775712 
L 492.407098 494.523714 
L 490.667532 496.254407 
L 488.910747 497.967619 
L 487.136917 499.663177 
L 485.346221 501.340912 
L 483.538837 503.000657 
L 481.714946 504.642246 
L 479.874731 506.265513 
L 478.018376 507.870298 
L 476.146066 509.456439 
L 474.257988 511.023778 
L 473.329705 511.782769 
L 473.329705 511.782769 
Q 318.469423 321.433911 139.132352 153.944779 
L 139.132352 153.944779 
L 139.132352 153.944779 
L 140.816182 152.159813 
L 142.517778 150.391773 
L 144.236968 148.640838 
L 145.973582 146.907182 
L 147.727444 145.190979 
L 149.498381 143.4924 
L 151.286215 141.811614 
L 153.090767 140.148791 
L 154.911857 138.504096 
L 156.749303 136.877694 
L 158.60292 135.269748 
L 160.472524 133.680418 
L 162.357927 132.109863 
L 164.258942 130.55824 
L 166.175377 129.025704 
L 168.107042 127.51241 
L 170.053743 126.018507 
L 172.015285 124.544145 
L 173.991472 123.089473 
L 175.982107 121.654635 
L 176.960022 120.960761 
L 176.960022 120.960761 
Q 318.469423 321.433911 508.818281 476.294193 
z
" clip-path="url(#p52821060fd)" style="fill: #1cffdb; fill-opacity: 0.5; stroke: #808080; stroke-opacity: 0.5; stroke-width: 0.1"/>
    <path d="M 473.329705 511.782769 
L 473.329705 511.782769 
L 471.418506 513.321829 
L 469.492011 514.8417 
L 467.550414 516.34223 
L 465.59391 517.82327 
L 463.622693 519.284671 
L 461.63696 520.726287 
L 459.636911 522.147974 
L 457.622746 523.54959 
L 455.594665 524.930994 
L 453.552872 526.292049 
L 451.497571 527.632618 
L 449.428967 528.952567 
L 447.347267 530.251765 
L 445.252679 531.530081 
L 443.145413 532.787388 
L 441.02568 534.023559 
L 438.893691 535.238472 
L 436.74966 536.432005 
L 434.593801 537.604038 
L 432.42633 538.754454 
L 430.247463 539.883138 
L 428.057418 540.989977 
L 425.856415 542.074861 
L 423.644673 543.137681 
L 421.422413 544.178331 
L 419.189858 545.196707 
L 416.947232 546.192706 
L 414.694757 547.16623 
L 412.432661 548.117181 
L 410.161168 549.045463 
L 407.880506 549.950985 
L 405.590902 550.833655 
L 403.292587 551.693386 
L 400.98579 552.53009 
L 398.670741 553.343685 
L 396.347671 554.13409 
L 394.016815 554.901224 
L 391.678403 555.645012 
L 389.332671 556.36538 
L 386.979852 557.062254 
L 384.620182 557.735565 
L 382.253898 558.385247 
L 379.881235 559.011234 
L 377.50243 559.613463 
L 375.117723 560.191874 
L 372.727351 560.74641 
L 370.331553 561.277014 
L 367.930569 561.783635 
L 365.524638 562.266221 
L 363.114003 562.724724 
L 360.698903 563.159098 
L 358.27958 563.569299 
L 355.856276 563.955287 
L 353.429233 564.317024 
L 351.882842 564.534586 
L 351.882842 564.534586 
Q 318.469423 321.433911 73.65526 338.179659 
L 73.65526 338.179659 
L 73.65526 338.179659 
L 73.500046 335.730721 
L 73.369329 333.280353 
L 73.263121 330.828801 
L 73.181434 328.376309 
L 73.124275 325.923123 
L 73.091651 323.469488 
L 73.083565 321.015649 
L 73.100016 318.561852 
L 73.141005 316.108343 
L 73.206526 313.655366 
L 73.296573 311.203166 
L 73.411137 308.75199 
L 73.550207 306.302082 
L 73.713769 303.853688 
L 73.901806 301.407051 
L 74.114299 298.962417 
L 74.351228 296.52003 
L 74.612569 294.080134 
L 74.898295 291.642974 
L 75.208378 289.208793 
L 75.542786 286.777834 
L 75.901488 284.350341 
L 76.284445 281.926556 
L 76.691622 279.506722 
L 77.122975 277.091081 
L 77.578463 274.679874 
L 78.05804 272.273342 
L 78.561658 269.871726 
L 79.089267 267.475267 
L 79.640813 265.084203 
L 80.216242 262.698774 
L 80.815496 260.319219 
L 81.438516 257.945775 
L 82.085238 255.57868 
L 82.755598 253.21817 
L 83.44953 250.864482 
L 84.166964 248.51785 
L 84.907827 246.178511 
L 85.672046 243.846696 
L 86.459545 241.522641 
L 87.270245 239.206576 
L 88.104065 236.898734 
L 88.960921 234.599346 
L 89.840727 232.308641 
L 90.743396 230.026848 
L 91.668838 227.754196 
L 92.616959 225.490912 
L 93.587666 223.237222 
L 94.58086 220.993352 
L 95.596444 218.759525 
L 96.634314 216.535966 
L 97.694368 214.322897 
L 98.776499 212.120539 
L 99.880599 209.929112 
L 100.59463 208.540293 
L 100.59463 208.540293 
Q 318.469423 321.433911 473.329705 511.782769 
z
" clip-path="url(#p52821060fd)" style="fill: #1cffdb; fill-opacity: 0.5; stroke: #808080; stroke-opacity: 0.5; stroke-width: 0.1"/>
    <path d="M 351.882842 564.534586 
L 351.882842 564.534586 
L 349.450205 564.85656 
L 347.01447 565.154191 
L 344.575881 565.427451 
L 342.134681 565.676312 
L 339.691114 565.900748 
L 337.245425 566.100739 
L 335.215171 566.248075 
L 335.215171 566.248075 
Q 318.469423 321.433911 528.132167 193.935172 
L 528.132167 193.935172 
L 528.132167 193.935172 
L 529.39665 196.03814 
L 530.640041 198.153647 
L 531.862214 200.281481 
L 533.063049 202.421431 
L 534.242424 204.573282 
L 535.400223 206.736819 
L 536.344216 208.540293 
L 536.344216 208.540293 
Q 318.469423 321.433911 351.882842 564.534586 
z
" clip-path="url(#p52821060fd)" style="fill: #1cffdb; fill-opacity: 0.5; stroke: #808080; stroke-opacity: 0.5; stroke-width: 0.1"/>
    <path d="M 335.215171 566.248075 
L 335.215171 566.248075 
L 332.766233 566.403289 
L 330.315865 566.534006 
L 327.864312 566.640214 
L 325.411821 566.721901 
L 322.958634 566.779059 
L 320.504999 566.811683 
L 318.051161 566.81977 
L 315.597364 566.803318 
L 313.143854 566.76233 
L 310.690877 566.696809 
L 308.238678 566.606762 
L 305.787502 566.492197 
L 303.337594 566.353127 
L 301.723676 566.248075 
L 301.723676 566.248075 
Q 318.469423 321.433911 368.394724 81.180173 
L 368.394724 81.180173 
L 368.394724 81.180173 
L 370.794725 81.69143 
L 373.189494 82.226661 
L 375.578791 82.785813 
L 377.962376 83.36883 
L 380.340013 83.975653 
L 382.711462 84.606221 
L 385.076488 85.260472 
L 387.434852 85.93834 
L 389.786321 86.639757 
L 392.130657 87.364654 
L 394.467628 88.112958 
L 396.796999 88.884593 
L 399.118537 89.679483 
L 400.644264 90.21607 
L 400.644264 90.21607 
Q 318.469423 321.433911 335.215171 566.248075 
z
" clip-path="url(#p52821060fd)" style="fill: #1cffdb; fill-opacity: 0.5; stroke: #808080; stroke-opacity: 0.5; stroke-width: 0.1"/>
    <path d="M 536.344216 208.540293 
L 536.344216 208.540293 
L 537.46224 210.724649 
L 538.558365 212.920076 
L 539.632481 215.126355 
L 540.68448 217.343264 
L 541.714259 219.570582 
L 542.721713 221.808086 
L 543.540433 223.671776 
L 543.540433 223.671776 
Q 318.469423 321.433911 100.59463 208.540293 
L 100.59463 208.540293 
L 100.59463 208.540293 
L 101.734441 206.367226 
L 102.895925 204.205666 
L 104.078967 202.055828 
L 105.283447 199.917928 
L 106.509246 197.79218 
L 107.756241 195.678795 
L 108.806679 193.935172 
L 108.806679 193.935172 
Q 318.469423 321.433911 536.344216 208.540293 
z
" clip-path="url(#p52821060fd)" style="fill: #00b8ff; fill-opacity: 0.5; stroke: #808080; stroke-opacity: 0.5; stroke-width: 0.1"/>
    <path d="M 543.540433 223.671776 
L 543.540433 223.671776 
L 544.506785 225.927337 
L 545.450533 228.192448 
L 546.371583 230.466883 
L 547.269843 232.750415 
L 548.145223 235.042815 
L 548.997636 237.343854 
L 549.826996 239.653303 
L 550.633221 241.970929 
L 551.416229 244.296501 
L 552.175943 246.629787 
L 552.912287 248.970554 
L 553.625186 251.318566 
L 554.314571 253.673591 
L 554.756052 255.229503 
L 554.756052 255.229503 
Q 318.469423 321.433911 301.723676 566.248075 
L 301.723676 566.248075 
L 301.723676 566.248075 
L 299.276412 566.068379 
L 296.831068 565.864221 
L 294.387887 565.635619 
L 291.947115 565.382598 
L 289.508995 565.105182 
L 287.073771 564.803399 
L 284.641686 564.47728 
L 282.212985 564.126856 
L 279.787908 563.752163 
L 277.3667 563.353238 
L 274.949603 562.930122 
L 272.536857 562.482856 
L 270.128704 562.011486 
L 268.544122 561.68765 
L 268.544122 561.68765 
Q 318.469423 321.433911 543.540433 223.671776 
z
" clip-path="url(#p52821060fd)" style="fill: #00b8ff; fill-opacity: 0.5; stroke: #808080; stroke-opacity: 0.5; stroke-width: 0.1"/>
    <path d="M 400.644264 90.21607 
L 400.644264 90.21607 
L 402.952295 91.049366 
L 405.251878 91.905699 
L 407.542783 92.784986 
L 409.82478 93.687137 
L 412.097642 94.612062 
L 414.361142 95.55967 
L 416.615052 96.529865 
L 418.859148 97.52255 
L 421.093204 98.537626 
L 423.316999 99.574991 
L 425.530309 100.634542 
L 427.732913 101.716173 
L 429.92459 102.819776 
L 431.363042 103.559118 
L 431.363042 103.559118 
Q 318.469423 321.433911 108.806679 193.935172 
L 108.806679 193.935172 
L 108.806679 193.935172 
L 110.092129 191.844955 
L 111.398415 189.767696 
L 112.725409 187.703604 
L 114.072977 185.652884 
L 115.440984 183.615743 
L 116.829294 181.592383 
L 118.237768 179.583008 
L 119.666265 177.587817 
L 121.114642 175.607011 
L 122.582755 173.640787 
L 124.070455 171.689343 
L 125.577596 169.752872 
L 127.104026 167.83157 
L 128.120566 166.573629 
L 128.120566 166.573629 
Q 318.469423 321.433911 400.644264 90.21607 
z
" clip-path="url(#p52821060fd)" style="fill: #006cff; fill-opacity: 0.5; stroke: #808080; stroke-opacity: 0.5; stroke-width: 0.1"/>
    <path d="M 431.363042 103.559118 
L 431.363042 103.559118 
L 433.536109 104.698929 
L 435.697669 105.860414 
L 437.847507 107.043455 
L 439.985407 108.247935 
L 442.111155 109.473734 
L 444.22454 110.720729 
L 446.325349 111.988795 
L 448.413372 113.277805 
L 450.488401 114.58763 
L 452.550229 115.91814 
L 454.598648 117.269202 
L 456.633455 118.640679 
L 458.654445 120.032436 
L 460.661417 121.444333 
L 462.65417 122.876229 
L 464.632505 124.32798 
L 466.596223 125.799442 
L 468.545129 127.290467 
L 470.479027 128.800906 
L 472.397725 130.330608 
L 474.30103 131.87942 
L 476.188751 133.447188 
L 478.060701 135.033754 
L 479.916692 136.638961 
L 481.756539 138.262646 
L 483.580057 139.904648 
L 485.387064 141.564804 
L 487.177379 143.242946 
L 488.950824 144.938907 
L 490.70722 146.652517 
L 492.446393 148.383605 
L 494.168169 150.131998 
L 495.872374 151.897521 
L 497.55884 153.679998 
L 499.227397 155.47925 
L 500.877878 157.295097 
L 502.510118 159.127358 
L 504.123955 160.97585 
L 505.719226 162.840387 
L 507.295772 164.720783 
L 508.853436 166.616851 
L 510.392062 168.5284 
L 511.911496 170.45524 
L 513.411585 172.397177 
L 514.892181 174.354018 
L 516.353134 176.325567 
L 517.794299 178.311626 
L 518.942573 179.92451 
L 518.942573 179.92451 
Q 318.469423 321.433911 268.544122 561.68765 
L 268.544122 561.68765 
L 268.544122 561.68765 
L 266.144121 561.176393 
L 263.749353 560.641161 
L 261.360056 560.08201 
L 258.97647 559.498993 
L 256.598834 558.89217 
L 254.227384 558.261602 
L 251.862359 557.607351 
L 249.503994 556.929483 
L 247.152526 556.228065 
L 244.808189 555.503169 
L 242.471219 554.754865 
L 240.141848 553.98323 
L 237.82031 553.18834 
L 235.506837 552.370274 
L 233.20166 551.529116 
L 230.905009 550.664948 
L 228.617115 549.777857 
L 226.338206 548.867931 
L 224.068511 547.935263 
L 221.808255 546.979945 
L 219.557665 546.002072 
L 217.316967 545.001742 
L 215.086383 543.979056 
L 212.866138 542.934116 
L 210.656453 541.867026 
L 208.457549 540.777893 
L 206.269646 539.666825 
L 204.092963 538.533934 
L 201.927718 537.379334 
L 199.774127 536.203139 
L 197.632405 535.005468 
L 195.502767 533.786439 
L 193.385425 532.546176 
L 191.280592 531.284801 
L 189.188478 530.002441 
L 187.109291 528.699225 
L 185.04324 527.375282 
L 182.990532 526.030746 
L 180.951372 524.66575 
L 178.925963 523.280431 
L 176.914509 521.874927 
L 174.91721 520.44938 
L 172.934266 519.003931 
L 170.965875 517.538725 
L 169.012235 516.053909 
L 167.07354 514.549631 
L 165.149985 513.026042 
L 163.609141 511.782769 
L 163.609141 511.782769 
Q 318.469423 321.433911 431.363042 103.559118 
z
" clip-path="url(#p52821060fd)" style="fill: #006cff; fill-opacity: 0.5; stroke: #808080; stroke-opacity: 0.5; stroke-width: 0.1"/>
    <path d="M 351.882842 78.333237 
L 351.882842 78.333237 
L 354.312137 78.67952 
L 356.737849 79.050079 
L 359.159733 79.444876 
L 361.577549 79.863872 
L 363.991054 80.307024 
L 366.400006 80.774289 
L 368.394724 81.180173 
L 368.394724 81.180173 
Q 318.469423 321.433911 163.609141 511.782769 
L 163.609141 511.782769 
L 163.609141 511.782769 
L 161.713427 510.224675 
L 159.833389 508.647701 
L 157.969214 507.052007 
L 156.121089 505.437751 
L 154.289198 503.805094 
L 152.473726 502.154201 
L 150.980291 500.770983 
L 150.980291 500.770983 
Q 318.469423 321.433911 351.882842 78.333237 
z
" clip-path="url(#p52821060fd)" style="fill: #001cff; fill-opacity: 0.5; stroke: #808080; stroke-opacity: 0.5; stroke-width: 0.1"/>
    <path d="M 335.215171 76.619748 
L 335.215171 76.619748 
L 337.662434 76.799443 
L 340.107779 77.003602 
L 342.550959 77.232203 
L 344.991731 77.485225 
L 347.429851 77.762641 
L 349.865076 78.064424 
L 351.882842 78.333237 
L 351.882842 78.333237 
Q 318.469423 321.433911 554.756052 255.229503 
L 554.756052 255.229503 
L 554.756052 255.229503 
L 555.406271 257.59564 
L 556.032796 259.968161 
L 556.635565 262.346828 
L 557.214518 264.731404 
L 557.769596 267.121651 
L 558.300745 269.517328 
L 558.723162 271.50861 
L 558.723162 271.50861 
Q 318.469423 321.433911 335.215171 76.619748 
z
" clip-path="url(#p52821060fd)" style="fill: #0000d6; fill-opacity: 0.5; stroke: #808080; stroke-opacity: 0.5; stroke-width: 0.1"/>
    <path d="M 318.469423 76.047696 
L 318.469423 76.047696 
L 320.923244 76.059965 
L 323.37682 76.096772 
L 325.829906 76.158112 
L 328.282255 76.243979 
L 330.733622 76.354365 
L 333.183764 76.489259 
L 335.215171 76.619748 
L 335.215171 76.619748 
Q 318.469423 321.433911 558.723162 271.50861 
L 558.723162 271.50861 
L 558.723162 271.50861 
L 559.210394 273.913604 
L 559.673552 276.32335 
L 560.11259 278.737606 
L 560.527464 281.156132 
L 560.918132 283.578686 
L 561.284556 286.005026 
L 561.570098 288.020493 
L 561.570098 288.020493 
Q 318.469423 321.433911 318.469423 76.047696 
z
" clip-path="url(#p52821060fd)" style="fill: #000080; fill-opacity: 0.5; stroke: #808080; stroke-opacity: 0.5; stroke-width: 0.1"/>
   </g>
   <g id="patch_16">
    <path d="M 318.469423 76.047696 
L 320.923244 76.059965 
L 323.37682 76.096772 
L 325.829906 76.158112 
L 328.282255 76.243979 
L 330.733622 76.354365 
L 333.183764 76.489259 
L 335.215171 76.619748 
L 335.38432 74.146878 
L 333.332394 74.015071 
L 330.857503 73.878814 
L 328.381374 73.767313 
L 325.904254 73.680578 
L 323.42639 73.618619 
L 320.948031 73.581441 
L 318.469423 73.569048 
L 318.469423 76.047696 
z
" clip-path="url(#p52821060fd)" style="fill: none; stroke: #000000; stroke-width: 0.5; stroke-linejoin: miter"/>
   </g>
   <g id="patch_17">
    <path d="M 335.215171 76.619748 
L 337.662434 76.799443 
L 340.107779 77.003602 
L 342.550959 77.232203 
L 344.991731 77.485225 
L 347.429851 77.762641 
L 349.865076 78.064424 
L 351.882842 78.333237 
L 352.220351 75.877674 
L 350.182203 75.606146 
L 347.722381 75.301315 
L 345.259633 75.021097 
L 342.794207 74.765519 
L 340.326348 74.534609 
L 337.856303 74.328388 
L 335.38432 74.146878 
L 335.215171 76.619748 
z
" clip-path="url(#p52821060fd)" style="fill: none; stroke: #000000; stroke-width: 0.5; stroke-linejoin: miter"/>
   </g>
   <g id="patch_18">
    <path d="M 351.882842 78.333237 
L 354.312137 78.67952 
L 356.737849 79.050079 
L 359.159733 79.444876 
L 361.577549 79.863872 
L 363.991054 80.307024 
L 366.400006 80.774289 
L 368.394724 81.180173 
L 368.89902 78.753367 
L 366.884154 78.343384 
L 364.450868 77.871399 
L 362.012984 77.42377 
L 359.570747 77.000542 
L 357.124399 76.601758 
L 354.674185 76.227456 
L 352.220351 75.877674 
L 351.882842 78.333237 
z
" clip-path="url(#p52821060fd)" style="fill: none; stroke: #000000; stroke-width: 0.5; stroke-linejoin: miter"/>
   </g>
   <g id="patch_19">
    <path d="M 368.394724 81.180173 
L 370.794725 81.69143 
L 373.189494 82.226661 
L 375.578791 82.785813 
L 377.962376 83.36883 
L 380.340013 83.975653 
L 382.711462 84.606221 
L 385.076488 85.260472 
L 387.434852 85.93834 
L 389.786321 86.639757 
L 392.130657 87.364654 
L 394.467628 88.112958 
L 396.796999 88.884593 
L 399.118537 89.679483 
L 401.43201 90.497548 
L 403.737187 91.338707 
L 406.033837 92.202875 
L 408.321731 93.089966 
L 410.60064 93.999891 
L 412.870336 94.93256 
L 415.130592 95.887878 
L 417.381181 96.865751 
L 419.62188 97.86608 
L 421.852463 98.888766 
L 424.072709 99.933707 
L 426.282394 101.000797 
L 428.481297 102.08993 
L 430.6692 103.200998 
L 432.845883 104.333888 
L 435.011128 105.488489 
L 437.164719 106.664684 
L 439.306441 107.862355 
L 441.436079 109.081384 
L 443.553421 110.321647 
L 445.658254 111.583022 
L 447.750369 112.865381 
L 449.829555 114.168598 
L 451.895606 115.49254 
L 453.948314 116.837077 
L 455.987475 118.202073 
L 458.012883 119.587392 
L 460.024338 120.992896 
L 462.021637 122.418443 
L 464.004581 123.863892 
L 465.972971 125.329098 
L 467.926612 126.813914 
L 469.865306 128.318192 
L 471.788862 129.841781 
L 473.697085 131.384529 
L 475.589786 132.946283 
L 477.466775 134.526884 
L 479.327864 136.126177 
L 481.172868 137.744 
L 483.001601 139.380191 
L 484.813881 141.034588 
L 486.609527 142.707025 
L 488.38836 144.397334 
L 490.1502 146.105347 
L 491.894872 147.830893 
L 493.622203 149.573798 
L 495.332017 151.33389 
L 497.024146 153.110991 
L 498.69842 154.904925 
L 500.35467 156.715511 
L 501.992733 158.542569 
L 503.612443 160.385916 
L 505.213639 162.245368 
L 506.796161 164.120738 
L 508.35985 166.01184 
L 509.90455 167.918483 
L 511.430107 169.840478 
L 512.936369 171.777633 
L 514.423183 173.729753 
L 515.890403 175.696643 
L 517.33788 177.678106 
L 518.765471 179.673945 
L 518.942573 179.92451 
L 520.967554 178.495122 
L 520.788663 178.242027 
L 519.346652 176.226027 
L 517.884554 174.224549 
L 516.402514 172.237791 
L 514.900681 170.265953 
L 513.379205 168.309232 
L 511.838239 166.367822 
L 510.277935 164.44192 
L 508.698451 162.531716 
L 507.099944 160.637403 
L 505.482575 158.759169 
L 503.846504 156.897202 
L 502.191895 155.051689 
L 500.518915 153.222814 
L 498.827729 151.41076 
L 497.118508 149.615708 
L 495.391422 147.837837 
L 493.646645 146.077327 
L 491.884349 144.334351 
L 490.104712 142.609086 
L 488.307912 140.901703 
L 486.494129 139.212373 
L 484.663542 137.541265 
L 482.816337 135.888546 
L 480.952697 134.254381 
L 479.072809 132.638935 
L 477.17686 131.042367 
L 475.265041 129.464839 
L 473.337543 127.906507 
L 471.394558 126.367528 
L 469.43628 124.848055 
L 467.462906 123.348241 
L 465.474633 121.868235 
L 463.471659 120.408186 
L 461.454185 118.968239 
L 459.422413 117.548538 
L 457.376546 116.149226 
L 455.316788 114.770442 
L 453.243345 113.412324 
L 451.156425 112.075009 
L 449.056237 110.758629 
L 446.94299 109.463316 
L 444.816896 108.1892 
L 442.678167 106.936409 
L 440.527017 105.705067 
L 438.363662 104.495297 
L 436.188317 103.307222 
L 434.001201 102.140959 
L 431.802531 100.996625 
L 429.592529 99.874334 
L 427.371414 98.7742 
L 425.139409 97.696331 
L 422.896737 96.640836 
L 420.643622 95.607819 
L 418.38029 94.597386 
L 416.106967 93.609635 
L 413.82388 92.644667 
L 411.531258 91.702578 
L 409.22933 90.783462 
L 406.918326 89.88741 
L 404.598477 89.014513 
L 402.270016 88.164858 
L 399.933174 87.338529 
L 397.588186 86.53561 
L 395.235286 85.75618 
L 392.87471 85.000318 
L 390.506693 84.268099 
L 388.131473 83.559597 
L 385.749286 82.874882 
L 383.360372 82.214022 
L 380.964968 81.577084 
L 378.563315 80.964132 
L 376.155653 80.375226 
L 373.742222 79.810427 
L 371.323264 79.269789 
L 368.89902 78.753367 
L 368.394724 81.180173 
z
" clip-path="url(#p52821060fd)" style="fill: none; stroke: #000000; stroke-width: 0.5; stroke-linejoin: miter"/>
   </g>
   <g id="patch_20">
    <path d="M 518.942573 179.92451 
L 520.34762 181.936283 
L 521.732479 183.962006 
L 523.097012 186.001477 
L 524.441083 188.05449 
L 525.764556 190.120841 
L 527.0673 192.200324 
L 528.349185 194.292729 
L 529.610082 196.397849 
L 530.849865 198.515472 
L 532.068409 200.645387 
L 533.265595 202.787381 
L 534.441301 204.941239 
L 535.595409 207.106746 
L 536.727806 209.283686 
L 537.838376 211.471841 
L 538.927011 213.670992 
L 539.993599 215.880919 
L 541.038035 218.101402 
L 542.060215 220.332217 
L 543.060035 222.573143 
L 544.037397 224.823955 
L 544.992202 227.084427 
L 545.924355 229.354335 
L 546.833763 231.63345 
L 547.720335 233.921545 
L 548.583981 236.218392 
L 549.424617 238.52376 
L 550.242157 240.837419 
L 551.03652 243.159137 
L 551.807626 245.488683 
L 552.555399 247.825824 
L 553.279763 250.170325 
L 553.980647 252.521952 
L 554.657979 254.880471 
L 555.311693 257.245644 
L 555.941723 259.617237 
L 556.548006 261.995011 
L 557.130482 264.378729 
L 557.689091 266.768153 
L 558.223779 269.163043 
L 558.734491 271.56316 
L 559.221177 273.968264 
L 559.683788 276.378115 
L 560.122278 278.792471 
L 560.536603 281.211092 
L 560.926721 283.633734 
L 561.292594 286.060157 
L 561.570098 288.020493 
L 564.02566 287.682983 
L 563.745353 285.702846 
L 563.375784 283.251914 
L 562.981726 280.8048 
L 562.563216 278.36175 
L 562.120297 275.923006 
L 561.653013 273.488813 
L 561.161411 271.059415 
L 560.64554 268.635054 
L 560.105451 266.215974 
L 559.541199 263.802414 
L 558.952841 261.394618 
L 558.340434 258.992826 
L 557.70404 256.597278 
L 557.043722 254.208214 
L 556.359548 251.825872 
L 555.651585 249.45049 
L 554.919904 247.082308 
L 554.164578 244.72156 
L 553.385682 242.368483 
L 552.583295 240.023313 
L 551.757497 237.686284 
L 550.908371 235.357629 
L 550.036 233.037582 
L 549.140474 230.726375 
L 548.22188 228.424238 
L 547.280311 226.131402 
L 546.315862 223.848097 
L 545.328627 221.574549 
L 544.318708 219.310988 
L 543.286203 217.057639 
L 542.231217 214.814727 
L 541.153855 212.582478 
L 540.054225 210.361113 
L 538.932436 208.150856 
L 537.788601 205.951926 
L 536.622835 203.764545 
L 535.435253 201.588931 
L 534.225975 199.425301 
L 532.995122 197.273872 
L 531.742816 195.134858 
L 530.469183 193.008475 
L 529.17435 190.894934 
L 527.858446 188.794447 
L 526.521605 186.707223 
L 525.163958 184.633472 
L 523.785641 182.573401 
L 522.386794 180.527216 
L 520.967554 178.495122 
L 518.942573 179.92451 
z
" clip-path="url(#p52821060fd)" style="fill: none; stroke: #000000; stroke-width: 0.5; stroke-linejoin: miter"/>
   </g>
   <g id="patch_21">
    <path d="M 561.570098 288.020493 
L 561.892072 290.45313 
L 562.189703 292.888865 
L 562.462963 295.327454 
L 562.711824 297.768654 
L 562.93626 300.212221 
L 563.13625 302.657909 
L 563.311774 305.105476 
L 563.462814 307.554675 
L 563.589354 310.005262 
L 563.691383 312.456992 
L 563.76889 314.909619 
L 563.821867 317.362899 
L 563.850308 319.816586 
L 563.854213 322.270435 
L 563.833578 324.7242 
L 563.788408 327.177636 
L 563.718706 329.630498 
L 563.624479 332.08254 
L 563.505737 334.533518 
L 563.362491 336.983185 
L 563.194756 339.431297 
L 563.002549 341.87761 
L 562.785889 344.321878 
L 562.544798 346.763858 
L 562.279299 349.203304 
L 561.989419 351.639974 
L 561.675188 354.073623 
L 561.336636 356.504008 
L 560.973797 358.930886 
L 560.586709 361.354015 
L 560.175409 363.773151 
L 559.739938 366.188054 
L 559.280341 368.598481 
L 558.796662 371.004192 
L 558.288952 373.404946 
L 557.757259 375.800503 
L 557.201638 378.190623 
L 556.622144 380.575068 
L 556.018834 382.953598 
L 555.39177 385.325977 
L 554.741014 387.691966 
L 554.066631 390.05133 
L 553.368689 392.403832 
L 552.647257 394.749237 
L 551.902407 397.08731 
L 551.134214 399.417818 
L 550.342755 401.740528 
L 549.528108 404.055208 
L 548.690356 406.361625 
L 547.829582 408.65955 
L 546.945873 410.948752 
L 546.039315 413.229003 
L 545.110001 415.500074 
L 544.158023 417.761739 
L 543.183477 420.013771 
L 542.186459 422.255945 
L 541.16707 424.488037 
L 540.125411 426.709823 
L 539.061587 428.921083 
L 537.975703 431.121593 
L 536.86787 433.311135 
L 535.738196 435.489489 
L 534.586796 437.656438 
L 533.413784 439.811765 
L 532.219279 441.955254 
L 531.003398 444.086691 
L 529.766264 446.205862 
L 528.508 448.312557 
L 527.228733 450.406564 
L 525.92859 452.487674 
L 524.607702 454.555678 
L 523.266199 456.61037 
L 521.904218 458.651545 
L 520.521892 460.678999 
L 519.119362 462.692527 
L 517.696767 464.69193 
L 516.25425 466.677008 
L 514.791954 468.647561 
L 513.310026 470.603393 
L 511.808614 472.544308 
L 510.287868 474.470112 
L 508.747941 476.380613 
L 507.188986 478.275619 
L 505.611159 480.154941 
L 504.014618 482.018392 
L 502.399523 483.865783 
L 500.766035 485.696932 
L 499.114317 487.511655 
L 497.444535 489.30977 
L 495.756856 491.091098 
L 494.051448 492.85546 
L 492.328482 494.602679 
L 490.58813 496.332583 
L 488.830567 498.044996 
L 487.055968 499.739749 
L 485.26451 501.416671 
L 483.456372 503.075595 
L 481.631737 504.716355 
L 479.790785 506.338787 
L 477.933701 507.942728 
L 476.06067 509.528019 
L 474.171881 511.094501 
L 472.267522 512.642016 
L 470.347783 514.170412 
L 468.412856 515.679533 
L 466.462935 517.16923 
L 464.498215 518.639354 
L 462.518892 520.089757 
L 460.525164 521.520295 
L 458.517231 522.930825 
L 456.495293 524.321205 
L 454.459553 525.691296 
L 452.410214 527.040962 
L 450.34748 528.370067 
L 448.271559 529.678479 
L 446.182658 530.966067 
L 444.080986 532.232701 
L 441.966753 533.478256 
L 439.84017 534.702607 
L 437.70145 535.905631 
L 435.550807 537.087208 
L 433.388456 538.247219 
L 431.214613 539.38555 
L 429.029496 540.502086 
L 426.833323 541.596715 
L 424.626313 542.669327 
L 422.408688 543.719817 
L 420.180669 544.748078 
L 417.942479 545.754008 
L 415.694342 546.737506 
L 413.436482 547.698474 
L 411.169126 548.636816 
L 408.8925 549.552437 
L 406.606832 550.445247 
L 404.31235 551.315156 
L 402.009283 552.162077 
L 399.697863 552.985925 
L 397.37832 553.786619 
L 395.050887 554.564077 
L 392.715795 555.318222 
L 390.373278 556.04898 
L 388.023572 556.756275 
L 385.666909 557.440039 
L 383.303528 558.100203 
L 380.933663 558.7367 
L 378.557551 559.349467 
L 376.175431 559.938442 
L 373.78754 560.503568 
L 371.394117 561.044786 
L 368.995402 561.562044 
L 366.591635 562.055289 
L 364.183055 562.524472 
L 361.769904 562.969546 
L 359.352423 563.390467 
L 356.930853 563.787193 
L 354.505438 564.159683 
L 352.076419 564.507901 
L 349.644039 564.831812 
L 347.208542 565.131383 
L 344.770171 565.406585 
L 342.32917 565.657389 
L 339.885783 565.883772 
L 337.440254 566.085709 
L 334.992828 566.263182 
L 332.54375 566.416172 
L 330.093265 566.544664 
L 327.641617 566.648645 
L 325.189052 566.728104 
L 322.735815 566.783035 
L 320.282151 566.813431 
L 317.828306 566.819289 
L 315.374525 566.800609 
L 312.921054 566.757392 
L 310.468138 566.689643 
L 308.016021 566.597369 
L 305.56495 566.480579 
L 303.11517 566.339284 
L 300.666924 566.173499 
L 298.220459 565.98324 
L 295.776019 565.768526 
L 293.333849 565.529379 
L 290.894191 565.265823 
L 288.457292 564.977884 
L 286.023393 564.66559 
L 283.592739 564.328974 
L 281.165573 563.968068 
L 278.742137 563.58291 
L 276.322674 563.173536 
L 273.907425 562.739989 
L 271.496632 562.282311 
L 269.090537 561.800548 
L 266.68938 561.29475 
L 264.2934 560.764965 
L 261.902839 560.211247 
L 259.517933 559.633652 
L 257.138923 559.032237 
L 254.766046 558.407062 
L 252.399539 557.758191 
L 250.039639 557.085687 
L 247.686582 556.389618 
L 245.340603 555.670054 
L 243.001937 554.927066 
L 240.670818 554.160729 
L 238.347479 553.37112 
L 236.032151 552.558317 
L 233.725068 551.722402 
L 231.426458 550.863458 
L 229.136553 549.981571 
L 226.855581 549.07683 
L 224.583771 548.149325 
L 222.321348 547.199149 
L 220.068541 546.226396 
L 217.825574 545.231164 
L 215.592671 544.213552 
L 213.370055 543.173663 
L 211.15795 542.1116 
L 208.956575 541.027469 
L 206.766152 539.921379 
L 204.586898 538.793441 
L 202.419033 537.643767 
L 200.262773 536.472472 
L 198.118334 535.279673 
L 195.985929 534.06549 
L 193.865773 532.830044 
L 191.758077 531.573459 
L 189.663052 530.29586 
L 187.580908 528.997374 
L 185.511852 527.678133 
L 183.456092 526.338267 
L 181.413833 524.977911 
L 179.38528 523.597201 
L 177.370635 522.196275 
L 175.3701 520.775272 
L 173.383874 519.334336 
L 171.412157 517.87361 
L 169.455146 516.39324 
L 167.513036 514.893374 
L 165.586021 513.374162 
L 163.674295 511.835757 
L 161.778048 510.278311 
L 159.897469 508.701981 
L 158.032749 507.106925 
L 156.184071 505.493301 
L 154.351622 503.861272 
L 152.535585 502.211 
L 150.980291 500.770983 
L 149.288481 502.582468 
L 150.859485 504.037031 
L 152.693867 505.703973 
L 154.544825 507.352487 
L 156.412176 508.98241 
L 158.295733 510.593578 
L 160.195306 512.18583 
L 162.110707 513.759008 
L 164.041744 515.312953 
L 165.988224 516.84751 
L 167.949951 518.362526 
L 169.92673 519.857849 
L 171.918364 521.33333 
L 173.924652 522.788821 
L 175.945395 524.224177 
L 177.98039 525.639254 
L 180.029433 527.033911 
L 182.092321 528.408008 
L 184.168846 529.761408 
L 186.258802 531.093975 
L 188.361978 532.405576 
L 190.478165 533.69608 
L 192.60715 534.965359 
L 194.748722 536.213284 
L 196.902666 537.439731 
L 199.068767 538.644579 
L 201.246807 539.827705 
L 203.43657 540.988992 
L 205.637836 542.128324 
L 207.850385 543.245586 
L 210.073995 544.340667 
L 212.308445 545.413458 
L 214.553512 546.463852 
L 216.808969 547.491742 
L 219.074593 548.497027 
L 221.350156 549.479605 
L 223.635431 550.43938 
L 225.930189 551.376254 
L 228.234201 552.290134 
L 230.547236 553.180928 
L 232.869064 554.048548 
L 235.199451 554.892907 
L 237.538166 555.71392 
L 239.884974 556.511505 
L 242.23964 557.285583 
L 244.601928 558.036075 
L 246.971604 558.762908 
L 249.348429 559.466008 
L 251.732166 560.145305 
L 254.122577 560.800731 
L 256.519423 561.43222 
L 258.922464 562.03971 
L 261.331459 562.623139 
L 263.746168 563.18245 
L 266.166349 563.717586 
L 268.591761 564.228494 
L 271.02216 564.715123 
L 273.457304 565.177424 
L 275.896949 565.61535 
L 278.340851 566.028859 
L 280.788766 566.417908 
L 283.240449 566.78246 
L 285.695655 567.122476 
L 288.154139 567.437924 
L 290.615654 567.728772 
L 293.079954 567.99499 
L 295.546793 568.236553 
L 298.015924 568.453435 
L 300.487101 568.645616 
L 302.960076 568.813076 
L 305.434602 568.955798 
L 307.910431 569.073768 
L 310.387317 569.166974 
L 312.86501 569.235407 
L 315.343264 569.27906 
L 317.82183 569.297929 
L 320.300462 569.292012 
L 322.77891 569.261309 
L 325.256927 569.205824 
L 327.734265 569.125561 
L 330.210677 569.02053 
L 332.685915 568.89074 
L 335.159731 568.736205 
L 337.631879 568.556939 
L 340.10211 568.352962 
L 342.570177 568.124293 
L 345.035835 567.870955 
L 347.498836 567.592974 
L 349.958934 567.290376 
L 352.415883 566.963194 
L 354.869438 566.611459 
L 357.319353 566.235206 
L 359.765382 565.834473 
L 362.207282 565.4093 
L 364.644809 564.95973 
L 367.077718 564.485808 
L 369.505766 563.987581 
L 371.92871 563.465098 
L 374.346309 562.918413 
L 376.75832 562.347579 
L 379.164502 561.752654 
L 381.564614 561.133698 
L 383.958418 560.490771 
L 386.345672 559.82394 
L 388.726139 559.133269 
L 391.09958 558.418829 
L 393.465758 557.68069 
L 395.824437 556.918927 
L 398.17538 556.133616 
L 400.518353 555.324834 
L 402.85312 554.492664 
L 405.17945 553.637189 
L 407.497109 552.758493 
L 409.805864 551.856665 
L 412.105487 550.931794 
L 414.395746 549.983975 
L 416.676412 549.0133 
L 418.947258 548.019868 
L 421.208055 547.003777 
L 423.45858 545.965129 
L 425.698605 544.904029 
L 427.927908 543.820581 
L 430.146264 542.714895 
L 432.353453 541.587082 
L 434.549254 540.437253 
L 436.733447 539.265524 
L 438.905814 538.072012 
L 441.066137 536.856836 
L 443.214201 535.620118 
L 445.34979 534.361982 
L 447.472691 533.082553 
L 449.582692 531.78196 
L 451.679582 530.460332 
L 453.763151 529.117801 
L 455.83319 527.754502 
L 457.889494 526.370571 
L 459.931855 524.966147 
L 461.960071 523.54137 
L 463.973937 522.096382 
L 465.973253 520.631328 
L 467.957819 519.146355 
L 469.927436 517.64161 
L 471.881908 516.117245 
L 473.821038 514.573411 
L 475.744633 513.010264 
L 477.652501 511.42796 
L 479.544451 509.826656 
L 481.420293 508.206513 
L 483.279841 506.567693 
L 485.122907 504.910359 
L 486.949308 503.234679 
L 488.758862 501.540818 
L 490.551387 499.828947 
L 492.326703 498.099236 
L 494.084634 496.351859 
L 495.825004 494.58699 
L 497.547638 492.804806 
L 499.252365 491.005486 
L 500.939013 489.189208 
L 502.607415 487.356155 
L 504.257403 485.506509 
L 505.888812 483.640457 
L 507.501479 481.758184 
L 509.095244 479.859879 
L 510.669946 477.945731 
L 512.225428 476.015933 
L 513.761535 474.070676 
L 515.278113 472.110155 
L 516.775009 470.134568 
L 518.252076 468.14411 
L 519.709165 466.138981 
L 521.146129 464.119382 
L 522.562826 462.085515 
L 523.959114 460.037582 
L 525.334854 457.975789 
L 526.689906 455.900342 
L 528.024137 453.811449 
L 529.337413 451.709318 
L 530.629602 449.594159 
L 531.900575 447.466185 
L 533.150206 445.325608 
L 534.378368 443.172641 
L 535.58494 441.007501 
L 536.7698 438.830403 
L 537.93283 436.641566 
L 539.073915 434.441208 
L 540.192939 432.22955 
L 541.28979 430.006812 
L 542.36436 427.773217 
L 543.416541 425.528988 
L 544.446227 423.274349 
L 545.453316 421.009527 
L 546.437706 418.734747 
L 547.3993 416.450237 
L 548.338001 414.156226 
L 549.253716 411.852942 
L 550.146352 409.540617 
L 551.01582 407.219481 
L 551.862034 404.889766 
L 552.68491 402.551706 
L 553.484363 400.205535 
L 554.260316 397.851486 
L 555.012689 395.489795 
L 555.741409 393.120699 
L 556.446401 390.744435 
L 557.127596 388.361239 
L 557.784925 385.971351 
L 558.418323 383.575009 
L 559.027727 381.172453 
L 559.613074 378.763923 
L 560.174308 376.34966 
L 560.711371 373.929906 
L 561.22421 371.504902 
L 561.712774 369.074891 
L 562.177014 366.640116 
L 562.616883 364.200821 
L 563.032338 361.757248 
L 563.423336 359.309644 
L 563.78984 356.858252 
L 564.131811 354.403317 
L 564.449217 351.945086 
L 564.742025 349.483803 
L 565.010205 347.019716 
L 565.253732 344.55307 
L 565.472581 342.084112 
L 565.666729 339.613089 
L 565.836158 337.140248 
L 565.980851 334.665837 
L 566.100793 332.190102 
L 566.195971 329.713292 
L 566.266377 327.235654 
L 566.312004 324.757435 
L 566.332847 322.278885 
L 566.328903 319.80025 
L 566.300174 317.321778 
L 566.246662 314.843717 
L 566.168372 312.366316 
L 566.065313 309.889821 
L 565.937494 307.41448 
L 565.784929 304.940542 
L 565.607633 302.468253 
L 565.405622 299.99786 
L 565.178919 297.529611 
L 564.927544 295.063752 
L 564.651524 292.600531 
L 564.350886 290.140192 
L 564.02566 287.682983 
L 561.570098 288.020493 
z
" clip-path="url(#p52821060fd)" style="fill: none; stroke: #000000; stroke-width: 0.5; stroke-linejoin: miter"/>
   </g>
   <g id="patch_22">
    <path d="M 150.980291 500.770983 
L 149.195324 499.087152 
L 147.427285 497.385557 
L 145.67635 495.666367 
L 143.942694 493.929753 
L 142.226491 492.17589 
L 140.527912 490.404953 
L 138.847126 488.617119 
L 137.184303 486.812567 
L 135.539608 484.991477 
L 133.913206 483.154032 
L 132.30526 481.300414 
L 130.71593 479.430811 
L 129.145374 477.545407 
L 128.120566 476.294193 
L 126.19785 477.858439 
L 127.23301 479.122291 
L 128.81943 481.026739 
L 130.424814 482.915228 
L 132.049002 484.787568 
L 133.691832 486.643574 
L 135.35314 488.483059 
L 137.03276 490.305839 
L 138.730523 492.111731 
L 140.446259 493.900557 
L 142.179798 495.672135 
L 143.930966 497.42629 
L 145.699587 499.162846 
L 147.485485 500.88163 
L 149.288481 502.582468 
L 150.980291 500.770983 
z
" clip-path="url(#p52821060fd)" style="fill: none; stroke: #000000; stroke-width: 0.5; stroke-linejoin: miter"/>
   </g>
   <g id="patch_23">
    <path d="M 128.120566 476.294193 
L 126.581506 474.382994 
L 125.061635 472.456499 
L 123.561105 470.514902 
L 122.080065 468.558398 
L 120.618664 466.587181 
L 119.177048 464.601448 
L 117.755361 462.6014 
L 116.353745 460.587234 
L 114.972341 458.559153 
L 113.611286 456.51736 
L 112.270717 454.462059 
L 110.950767 452.393455 
L 109.65157 450.311755 
L 108.806679 448.93265 
L 106.688874 450.220516 
L 107.542298 451.613551 
L 108.854619 453.716279 
L 110.187902 455.805778 
L 111.542012 457.88184 
L 112.916815 459.944257 
L 114.312173 461.992823 
L 115.727946 464.027334 
L 117.163993 466.047585 
L 118.620171 468.053375 
L 120.096334 470.044504 
L 121.592334 472.020771 
L 123.108021 473.98198 
L 124.643244 475.927934 
L 126.19785 477.858439 
L 128.120566 476.294193 
z
" clip-path="url(#p52821060fd)" style="fill: none; stroke: #000000; stroke-width: 0.5; stroke-linejoin: miter"/>
   </g>
   <g id="patch_24">
    <path d="M 108.806679 448.93265 
L 107.542196 446.829683 
L 106.298806 444.714176 
L 105.076632 442.586341 
L 103.875798 440.446391 
L 102.696422 438.29454 
L 101.538624 436.131003 
L 100.402519 433.955997 
L 99.28822 431.769738 
L 98.195839 429.572446 
L 97.125485 427.36434 
L 96.077266 425.145641 
L 95.051285 422.916571 
L 94.047646 420.677352 
L 93.066449 418.42821 
L 92.107793 416.169368 
L 91.171772 413.901053 
L 90.258481 411.623491 
L 89.36801 409.33691 
L 88.50045 407.041539 
L 87.655886 404.737607 
L 86.834404 402.425345 
L 86.036085 400.104984 
L 85.261009 397.776756 
L 84.509253 395.440893 
L 83.780894 393.09763 
L 83.076003 390.747201 
L 82.394651 388.38984 
L 81.736906 386.025784 
L 81.102835 383.655269 
L 80.4925 381.278532 
L 79.905962 378.89581 
L 79.343281 376.507342 
L 78.804512 374.113367 
L 78.28971 371.714124 
L 77.798925 369.309853 
L 77.332207 366.900794 
L 76.889602 364.487189 
L 76.471156 362.069278 
L 76.076908 359.647304 
L 75.7069 357.221508 
L 75.361168 354.792134 
L 75.039747 352.359424 
L 74.742669 349.923622 
L 74.469962 347.484971 
L 74.221656 345.043714 
L 73.997774 342.600097 
L 73.798339 340.154363 
L 73.623371 337.706757 
L 73.472888 335.257523 
L 73.346904 332.806907 
L 73.245432 330.355154 
L 73.168482 327.902509 
L 73.116062 325.449217 
L 73.088177 322.995524 
L 73.08483 320.541674 
L 73.106022 318.087914 
L 73.151749 315.634488 
L 73.222008 313.181642 
L 73.316792 310.729621 
L 73.43609 308.278671 
L 73.579892 305.829037 
L 73.748183 303.380962 
L 73.940945 300.934693 
L 74.15816 298.490474 
L 74.399806 296.048549 
L 74.665859 293.609163 
L 74.956292 291.172559 
L 75.271076 288.738982 
L 75.61018 286.308674 
L 75.973569 283.881878 
L 76.361208 281.458837 
L 76.773057 279.039794 
L 77.209076 276.624991 
L 77.669221 274.214668 
L 78.153445 271.809067 
L 78.661701 269.408428 
L 79.193937 267.012992 
L 79.750101 264.622998 
L 80.330137 262.238685 
L 80.933986 259.860292 
L 81.561589 257.488056 
L 82.212882 255.122214 
L 82.8878 252.763004 
L 83.586277 250.41066 
L 84.308242 248.065419 
L 85.053622 245.727515 
L 85.822344 243.397181 
L 86.614331 241.074651 
L 87.429503 238.760156 
L 88.267779 236.453929 
L 89.129074 234.1562 
L 90.013304 231.867199 
L 90.920379 229.587154 
L 91.850208 227.316294 
L 92.8027 225.054845 
L 93.777757 222.803034 
L 94.775284 220.561087 
L 95.79518 218.329226 
L 96.837344 216.107676 
L 97.90167 213.896659 
L 98.988053 211.696395 
L 100.096384 209.507104 
L 101.226552 207.329007 
L 102.378444 205.162319 
L 103.551945 203.007259 
L 104.746937 200.864041 
L 105.963302 198.732881 
L 107.200917 196.61399 
L 108.459659 194.507581 
L 109.739401 192.413864 
L 111.040017 190.33305 
L 112.361375 188.265345 
L 113.703344 186.210958 
L 115.065789 184.170092 
L 116.448574 182.142953 
L 117.851562 180.129742 
L 119.274611 178.130662 
L 120.717579 176.145913 
L 122.180322 174.175691 
L 123.662694 172.220196 
L 125.164547 170.279622 
L 126.685729 168.354163 
L 128.120566 166.573629 
L 126.19785 165.009384 
L 124.74852 166.807903 
L 123.211972 168.752811 
L 121.694949 170.712987 
L 120.197604 172.688235 
L 118.720085 174.678357 
L 117.262542 176.683155 
L 115.825119 178.702428 
L 114.40796 180.735973 
L 113.011207 182.783589 
L 111.634999 184.845069 
L 110.279475 186.920208 
L 108.94477 189.008799 
L 107.631017 191.110632 
L 106.338348 193.225497 
L 105.066892 195.353182 
L 103.816775 197.493476 
L 102.588124 199.646164 
L 101.381061 201.81103 
L 100.195707 203.987859 
L 99.032179 206.176432 
L 97.890595 208.37653 
L 96.771069 210.587935 
L 95.673713 212.810424 
L 94.598636 215.043775 
L 93.545946 217.287765 
L 92.515747 219.542169 
L 91.508145 221.806763 
L 90.523238 224.081319 
L 89.561125 226.365611 
L 88.621903 228.659409 
L 87.705666 230.962484 
L 86.812505 233.274607 
L 85.942509 235.595546 
L 85.095766 237.925068 
L 84.27236 240.262941 
L 83.472374 242.608931 
L 82.695887 244.962804 
L 81.942977 247.324323 
L 81.21372 249.693254 
L 80.508188 252.069358 
L 79.826452 254.452399 
L 79.16858 256.842138 
L 78.534638 259.238336 
L 77.924689 261.640754 
L 77.338795 264.049151 
L 76.777013 266.463286 
L 76.239401 268.882918 
L 75.726011 271.307806 
L 75.236895 273.737706 
L 74.772103 276.172375 
L 74.33168 278.611571 
L 73.91567 281.055049 
L 73.524116 283.502564 
L 73.157056 285.953873 
L 72.814527 288.40873 
L 72.496563 290.866889 
L 72.203197 293.328105 
L 71.934457 295.792132 
L 71.69037 298.258722 
L 71.47096 300.72763 
L 71.276251 303.198609 
L 71.10626 305.671412 
L 70.961006 308.14579 
L 70.840502 310.621497 
L 70.744761 313.098286 
L 70.673793 315.575908 
L 70.627603 318.054116 
L 70.606198 320.532662 
L 70.609579 323.011298 
L 70.637745 325.489776 
L 70.690695 327.967849 
L 70.768422 330.445268 
L 70.870919 332.921786 
L 70.998175 335.397156 
L 71.150179 337.871129 
L 71.326914 340.343458 
L 71.528364 342.813896 
L 71.754507 345.282197 
L 72.005321 347.748113 
L 72.280782 350.211397 
L 72.580861 352.671803 
L 72.90553 355.129086 
L 73.254754 357.582999 
L 73.628499 360.033298 
L 74.026729 362.479736 
L 74.449402 364.92207 
L 74.896477 367.360055 
L 75.36791 369.793448 
L 75.863652 372.222005 
L 76.383655 374.645482 
L 76.927866 377.063639 
L 77.496231 379.476233 
L 78.088693 381.883023 
L 78.705193 384.283768 
L 79.345669 386.678227 
L 80.010057 389.066163 
L 80.698291 391.447335 
L 81.410302 393.821506 
L 82.146019 396.188439 
L 82.905368 398.547896 
L 83.688273 400.899641 
L 84.494656 403.24344 
L 85.324436 405.579059 
L 86.177531 407.906262 
L 87.053855 410.224819 
L 87.95332 412.534497 
L 88.875836 414.835064 
L 89.821311 417.126292 
L 90.789652 419.40795 
L 91.78076 421.679811 
L 92.794536 423.941648 
L 93.83088 426.193234 
L 94.889688 428.434344 
L 95.970853 430.664754 
L 97.074268 432.884241 
L 98.199823 435.092583 
L 99.347404 437.28956 
L 100.516897 439.474951 
L 101.708185 441.648538 
L 102.921149 443.810103 
L 104.155668 445.959431 
L 105.411618 448.096307 
L 106.688874 450.220516 
L 108.806679 448.93265 
z
" clip-path="url(#p52821060fd)" style="fill: none; stroke: #000000; stroke-width: 0.5; stroke-linejoin: miter"/>
   </g>
   <g id="patch_25">
    <path d="M 128.120566 166.573629 
L 129.67866 164.677915 
L 131.255633 162.797877 
L 132.851328 160.933702 
L 134.465584 159.085577 
L 136.09824 157.253687 
L 137.749134 155.438214 
L 139.418099 153.639341 
L 141.104969 151.857247 
L 142.809576 150.092111 
L 144.531748 148.344109 
L 146.271314 146.613416 
L 148.0281 144.900204 
L 149.801929 143.204646 
L 151.592626 141.52691 
L 153.400009 139.867166 
L 155.2239 138.225577 
L 157.064115 136.602309 
L 158.92047 134.997525 
L 160.792781 133.411384 
L 162.680858 131.844045 
L 164.584515 130.295664 
L 166.50356 128.766398 
L 168.437801 127.256398 
L 170.387045 125.765815 
L 172.351098 124.294799 
L 174.329762 122.843497 
L 176.32284 121.412054 
L 176.960022 120.960761 
L 175.530634 118.93578 
L 174.887016 119.391631 
L 172.873805 120.837534 
L 170.875155 122.303495 
L 168.891264 123.78937 
L 166.92233 125.295009 
L 164.968551 126.820261 
L 163.030122 128.364975 
L 161.107236 129.928995 
L 159.200087 131.512166 
L 157.308865 133.114329 
L 155.433758 134.735324 
L 153.574955 136.374988 
L 151.732642 138.033158 
L 149.907001 139.709668 
L 148.098217 141.40435 
L 146.30647 143.117035 
L 144.531939 144.847552 
L 142.774802 146.595727 
L 141.035234 148.361386 
L 139.313409 150.144352 
L 137.6095 151.944446 
L 135.923676 153.76149 
L 134.256107 155.5953 
L 132.606959 157.445695 
L 130.976398 159.312488 
L 129.364585 161.195493 
L 127.771683 163.094522 
L 126.19785 165.009384 
L 128.120566 166.573629 
z
" clip-path="url(#p52821060fd)" style="fill: none; stroke: #000000; stroke-width: 0.5; stroke-linejoin: miter"/>
   </g>
   <g id="patch_26">
    <path d="M 176.960022 120.960761 
L 178.971795 119.555715 
L 180.997518 118.170855 
L 183.036989 116.806322 
L 185.090002 115.462252 
L 187.156353 114.138778 
L 189.235835 112.836034 
L 190.970684 111.771168 
L 189.682818 109.653362 
L 187.930446 110.728985 
L 185.829958 112.044888 
L 183.742735 113.38173 
L 181.668984 114.739377 
L 179.608913 116.117693 
L 177.562728 117.516541 
L 175.530634 118.93578 
L 176.960022 120.960761 
z
" clip-path="url(#p52821060fd)" style="fill: none; stroke: #000000; stroke-width: 0.5; stroke-linejoin: miter"/>
   </g>
   <g id="patch_27">
    <path d="M 190.970684 111.771168 
L 193.073652 110.506684 
L 195.189159 109.263294 
L 197.316993 108.04112 
L 199.456943 106.840286 
L 201.608794 105.66091 
L 203.772331 104.503112 
L 205.575805 103.559118 
L 204.435465 101.358363 
L 202.613775 102.311892 
L 200.428384 103.481385 
L 198.254797 104.672673 
L 196.093231 105.885638 
L 193.943903 107.120156 
L 191.807028 108.376106 
L 189.682818 109.653362 
L 190.970684 111.771168 
z
" clip-path="url(#p52821060fd)" style="fill: none; stroke: #000000; stroke-width: 0.5; stroke-linejoin: miter"/>
   </g>
   <g id="patch_28">
    <path d="M 205.575805 103.559118 
L 207.760161 102.441094 
L 209.955588 101.34497 
L 212.161867 100.270854 
L 214.378776 99.218854 
L 216.606094 98.189076 
L 218.843598 97.181622 
L 221.091065 96.196592 
L 223.348269 95.234087 
L 225.614986 94.294201 
L 227.890988 93.377029 
L 230.176047 92.482662 
L 232.469936 91.611191 
L 234.772425 90.762701 
L 237.083284 89.937279 
L 239.402281 89.135006 
L 241.729184 88.355962 
L 244.063762 87.600227 
L 246.40578 86.867874 
L 248.755005 86.158978 
L 251.1112 85.473609 
L 252.265015 85.147283 
L 251.596283 82.760549 
L 250.430814 83.090171 
L 248.050819 83.782463 
L 245.677865 84.49852 
L 243.31219 85.23827 
L 240.954031 86.00164 
L 238.603623 86.788552 
L 236.261202 87.598929 
L 233.927001 88.432689 
L 231.601255 89.289749 
L 229.284195 90.170024 
L 226.976054 91.073424 
L 224.677062 91.99986 
L 222.38745 92.94924 
L 220.107445 93.921468 
L 217.837277 94.916447 
L 215.577171 95.934077 
L 213.327355 96.974258 
L 211.088053 98.036884 
L 208.859489 99.121849 
L 206.641886 100.229046 
L 204.435465 101.358363 
L 205.575805 103.559118 
z
" clip-path="url(#p52821060fd)" style="fill: none; stroke: #000000; stroke-width: 0.5; stroke-linejoin: miter"/>
   </g>
   <g id="patch_29">
    <path d="M 252.265015 85.147283 
L 254.631152 84.497064 
L 257.003673 83.870539 
L 259.38234 83.267769 
L 261.766916 82.688817 
L 264.157162 82.133738 
L 266.55284 81.60259 
L 268.953709 81.095424 
L 271.359529 80.612292 
L 273.770061 80.153242 
L 276.185062 79.718319 
L 278.604292 79.307569 
L 281.027509 78.92103 
L 283.454469 78.558743 
L 285.884931 78.220743 
L 288.318651 77.907064 
L 290.755387 77.617737 
L 293.194894 77.352792 
L 295.636928 77.112255 
L 298.081245 76.89615 
L 300.527602 76.704498 
L 302.975752 76.537319 
L 305.425452 76.39463 
L 307.876456 76.276444 
L 310.328519 76.182774 
L 312.781397 76.113629 
L 315.234843 76.069016 
L 317.688613 76.048939 
L 318.469423 76.047696 
L 318.469423 73.569048 
L 317.680726 73.570302 
L 315.202171 73.590582 
L 312.723942 73.635646 
L 310.246288 73.70549 
L 307.769456 73.800106 
L 305.293694 73.919486 
L 302.81925 74.063617 
L 300.346371 74.232484 
L 297.875304 74.426072 
L 295.406297 74.64436 
L 292.939595 74.887326 
L 290.475447 75.154948 
L 288.014098 75.447197 
L 285.555795 75.764044 
L 283.100783 76.105458 
L 280.649307 76.471405 
L 278.201614 76.861848 
L 275.757948 77.276748 
L 273.318552 77.716063 
L 270.883672 78.17975 
L 268.45355 78.667762 
L 266.02843 79.180051 
L 263.608554 79.716565 
L 261.194164 80.27725 
L 258.785501 80.862051 
L 256.382807 81.470909 
L 253.986321 82.103762 
L 251.596283 82.760549 
L 252.265015 85.147283 
z
" clip-path="url(#p52821060fd)" style="fill: none; stroke: #000000; stroke-width: 0.5; stroke-linejoin: miter"/>
   </g>
   <g id="text_1">
    <text style="font: 3px 'DejaVu Sans', 'Bitstream Vera Sans', 'Computer Modern Sans Serif', 'Lucida Grande', 'Verdana', 'Geneva', 'Lucid', 'Arial', 'Helvetica', 'Avant Garde', sans-serif; text-anchor: start" x="328.15553" y="71.275257" transform="rotate(-88.043478 328.15553 71.275257)">University of Africa</text>
   </g>
   <g id="text_2">
    <text style="font: 3px 'DejaVu Sans', 'Bitstream Vera Sans', 'Computer Modern Sans Serif', 'Lucida Grande', 'Verdana', 'Geneva', 'Lucid', 'Arial', 'Helvetica', 'Avant Garde', sans-serif; text-anchor: start" x="345.20438" y="72.519437" transform="rotate(-84.130435 345.20438 72.519437)">Copperstone University</text>
   </g>
   <g id="text_3">
    <text style="font: 3px 'DejaVu Sans', 'Bitstream Vera Sans', 'Computer Modern Sans Serif', 'Lucida Grande', 'Verdana', 'Geneva', 'Lucid', 'Arial', 'Helvetica', 'Avant Garde', sans-serif; text-anchor: start" x="362.128579" y="74.924172" transform="rotate(-80.217391 362.128579 74.924172)">DMI St. Eugene University</text>
   </g>
   <g id="text_4">
    <text style="font: 3px 'DejaVu Sans', 'Bitstream Vera Sans', 'Computer Modern Sans Serif', 'Lucida Grande', 'Verdana', 'Geneva', 'Lucid', 'Arial', 'Helvetica', 'Avant Garde', sans-serif; text-anchor: start" x="456.723843" y="112.726248" transform="rotate(-56.73913 456.723843 112.726248)">University of Lusaka</text>
   </g>
   <g id="text_5">
    <text style="font: 3px 'DejaVu Sans', 'Bitstream Vera Sans', 'Computer Modern Sans Serif', 'Lucida Grande', 'Verdana', 'Geneva', 'Lucid', 'Arial', 'Helvetica', 'Avant Garde', sans-serif; text-anchor: start" x="551.776724" y="230.654637" transform="rotate(-21.521739 551.776724 230.654637)">Zambian Open University</text>
   </g>
   <g id="text_6">
    <text style="font: 3px 'DejaVu Sans', 'Bitstream Vera Sans', 'Computer Modern Sans Serif', 'Lucida Grande', 'Verdana', 'Geneva', 'Lucid', 'Arial', 'Helvetica', 'Avant Garde', sans-serif; text-anchor: start" x="432.63174" y="544.234582" transform="rotate(-297.391304 432.63174 544.234582)">University of Zambia</text>
   </g>
   <g id="text_7">
    <text style="font: 3px 'DejaVu Sans', 'Bitstream Vera Sans', 'Computer Modern Sans Serif', 'Lucida Grande', 'Verdana', 'Geneva', 'Lucid', 'Arial', 'Helvetica', 'Avant Garde', sans-serif; text-anchor: end" x="136.287332" y="493.139644" transform="rotate(-43.043478 136.287332 493.139644)">Chreso Ministries</text>
   </g>
   <g id="text_8">
    <text style="font: 3px 'DejaVu Sans', 'Bitstream Vera Sans', 'Computer Modern Sans Serif', 'Lucida Grande', 'Verdana', 'Geneva', 'Lucid', 'Arial', 'Helvetica', 'Avant Garde', sans-serif; text-anchor: end" x="114.603591" y="466.733243" transform="rotate(-35.217391 114.603591 466.733243)">Cavendish University Zambia</text>
   </g>
   <g id="text_9">
    <text style="font: 3px 'DejaVu Sans', 'Bitstream Vera Sans', 'Computer Modern Sans Serif', 'Lucida Grande', 'Verdana', 'Geneva', 'Lucid', 'Arial', 'Helvetica', 'Avant Garde', sans-serif; text-anchor: end" x="68.631739" y="305.486975" transform="rotate(-356.086957 68.631739 305.486975)">Copperbelt University</text>
   </g>
   <g id="text_10">
    <text style="font: 3px 'DejaVu Sans', 'Bitstream Vera Sans', 'Computer Modern Sans Serif', 'Lucida Grande', 'Verdana', 'Geneva', 'Lucid', 'Arial', 'Helvetica', 'Avant Garde', sans-serif; text-anchor: end" x="146.76369" y="139.25182" transform="rotate(-313.043478 146.76369 139.25182)">Mulungushi University</text>
   </g>
   <g id="text_11">
    <text style="font: 3px 'DejaVu Sans', 'Bitstream Vera Sans', 'Computer Modern Sans Serif', 'Lucida Grande', 'Verdana', 'Geneva', 'Lucid', 'Arial', 'Helvetica', 'Avant Garde', sans-serif; text-anchor: end" x="180.215004" y="112.726248" transform="rotate(-303.26087 180.215004 112.726248)">Zambia National Public Health Institute</text>
   </g>
   <g id="text_12">
    <text style="font: 3px 'DejaVu Sans', 'Bitstream Vera Sans', 'Computer Modern Sans Serif', 'Lucida Grande', 'Verdana', 'Geneva', 'Lucid', 'Arial', 'Helvetica', 'Avant Garde', sans-serif; text-anchor: end" x="194.780021" y="103.777978" transform="rotate(-299.347826 194.780021 103.777978)">Supershine University</text>
   </g>
   <g id="text_13">
    <text style="font: 3px 'DejaVu Sans', 'Bitstream Vera Sans', 'Computer Modern Sans Serif', 'Lucida Grande', 'Verdana', 'Geneva', 'Lucid', 'Arial', 'Helvetica', 'Avant Garde', sans-serif; text-anchor: end" x="225.56955" y="88.962866" transform="rotate(-291.521739 225.56955 88.962866)">Lusaka Apex Medical University</text>
   </g>
   <g id="text_14">
    <text style="font: 3px 'DejaVu Sans', 'Bitstream Vera Sans', 'Computer Modern Sans Serif', 'Lucida Grande', 'Verdana', 'Geneva', 'Lucid', 'Arial', 'Helvetica', 'Avant Garde', sans-serif; text-anchor: end" x="283.251836" y="73.57731" transform="rotate(-277.826087 283.251836 73.57731)">Rusangu University</text>
   </g>
  </g>
 </g>
 <defs>
  <clipPath id="p52821060fd">
   <path d="M 578.72753 321.433911 
C 578.72753 287.25713 571.995449 253.412675 558.916561 221.837446 
C 545.837673 190.262217 526.666329 161.570273 502.499696 137.403639 
C 478.333062 113.237005 449.641118 94.065661 418.065889 80.986773 
C 386.49066 67.907885 352.646205 61.175804 318.469423 61.175804 
C 284.292642 61.175804 250.448186 67.907885 218.872958 80.986773 
C 187.297729 94.065661 158.605785 113.237005 134.439151 137.403639 
C 110.272517 161.570273 91.101173 190.262217 78.022285 221.837446 
C 64.943397 253.412675 58.211316 287.25713 58.211316 321.433911 
C 58.211316 355.610693 64.943397 389.455148 78.022285 421.030377 
C 91.101173 452.605606 110.272517 481.29755 134.439151 505.464184 
C 158.605785 529.630818 187.297729 548.802162 218.872958 561.88105 
C 250.448186 574.959938 284.292642 581.692018 318.469423 581.692018 
C 352.646205 581.692018 386.49066 574.959938 418.065889 561.88105 
C 449.641118 548.802162 478.333062 529.630818 502.499696 505.464184 
C 526.666329 481.29755 545.837673 452.605606 558.916561 421.030377 
C 571.995449 389.455148 578.72753 355.610693 578.72753 321.433911 
M 318.469423 321.433911 
C 318.469423 321.433911 318.469423 321.433911 318.469423 321.433911 
C 318.469423 321.433911 318.469423 321.433911 318.469423 321.433911 
C 318.469423 321.433911 318.469423 321.433911 318.469423 321.433911 
C 318.469423 321.433911 318.469423 321.433911 318.469423 321.433911 
C 318.469423 321.433911 318.469423 321.433911 318.469423 321.433911 
C 318.469423 321.433911 318.469423 321.433911 318.469423 321.433911 
C 318.469423 321.433911 318.469423 321.433911 318.469423 321.433911 
C 318.469423 321.433911 318.469423 321.433911 318.469423 321.433911 
C 318.469423 321.433911 318.469423 321.433911 318.469423 321.433911 
C 318.469423 321.433911 318.469423 321.433911 318.469423 321.433911 
C 318.469423 321.433911 318.469423 321.433911 318.469423 321.433911 
C 318.469423 321.433911 318.469423 321.433911 318.469423 321.433911 
C 318.469423 321.433911 318.469423 321.433911 318.469423 321.433911 
C 318.469423 321.433911 318.469423 321.433911 318.469423 321.433911 
C 318.469423 321.433911 318.469423 321.433911 318.469423 321.433911 
C 318.469423 321.433911 318.469423 321.433911 318.469423 321.433911 
z
"/>
  </clipPath>
 </defs>
</svg>
