<?xml version="1.0" encoding="utf-8" standalone="no"?>
<!DOCTYPE svg PUBLIC "-//W3C//DTD SVG 1.1//EN"
  "http://www.w3.org/Graphics/SVG/1.1/DTD/svg11.dtd">
<svg xmlns:xlink="http://www.w3.org/1999/xlink" width="626.512237pt" height="585.227531pt" viewBox="0 0 626.512237 585.227531" xmlns="http://www.w3.org/2000/svg" version="1.1">
 <metadata>
  <rdf:RDF xmlns:dc="http://purl.org/dc/elements/1.1/" xmlns:cc="http://creativecommons.org/ns#" xmlns:rdf="http://www.w3.org/1999/02/22-rdf-syntax-ns#">
   <cc:Work>
    <dc:type rdf:resource="http://purl.org/dc/dcmitype/StillImage"/>
    <dc:date>2024-11-16T03:16:46.383357</dc:date>
    <dc:format>image/svg+xml</dc:format>
    <dc:creator>
     <cc:Agent>
      <dc:title>Matplotlib v3.8.4, https://matplotlib.org/</dc:title>
     </cc:Agent>
    </dc:creator>
   </cc:Work>
  </rdf:RDF>
 </metadata>
 <defs>
  <style type="text/css">*{stroke-linejoin: round; stroke-linecap: butt}</style>
 </defs>
 <g id="figure_1">
  <g id="patch_1">
   <path d="M 0 585.227531 
L 626.512237 585.227531 
L 626.512237 0 
L 0 0 
z
" style="fill: #ffffff"/>
  </g>
  <g id="axes_1">
   <g id="patch_2">
    <path d="M 333.898472 50.663644 
L 336.317933 50.675741 
L 338.737152 50.712032 
L 341.155887 50.772513 
L 343.573896 50.857178 
L 345.990938 50.966018 
L 348.406771 51.099023 
L 350.821152 51.25618 
L 353.233842 51.437471 
L 355.644598 51.64288 
L 358.053179 51.872387 
L 360.459345 52.125967 
L 362.862855 52.403595 
L 365.263468 52.705245 
L 367.660945 53.030885 
L 370.055046 53.380483 
L 372.445531 53.754004 
L 374.832162 54.151411 
L 377.214699 54.572664 
L 379.592905 55.017721 
L 381.966541 55.486538 
L 384.33537 55.979067 
L 386.699156 56.495259 
L 389.057661 57.035063 
L 391.410651 57.598424 
L 393.75789 58.185287 
L 396.099143 58.795593 
L 398.434175 59.42928 
L 400.762755 60.086285 
L 403.084648 60.766543 
L 405.399622 61.469986 
L 407.707446 62.196542 
L 410.00789 62.946141 
L 412.300722 63.718705 
L 414.585714 64.514159 
L 416.862638 65.332423 
L 419.131266 66.173415 
L 421.39137 67.037051 
L 423.642725 67.923244 
L 425.885105 68.831906 
L 428.118287 69.762946 
L 430.342047 70.716271 
L 432.556163 71.691785 
L 434.760413 72.689392 
L 436.954577 73.70899 
L 439.138436 74.750479 
L 441.31177 75.813755 
L 443.474364 76.89871 
L 445.626 78.005236 
L 447.766463 79.133223 
L 449.895539 80.282558 
L 452.013016 81.453126 
L 454.118682 82.644809 
L 456.212325 83.85749 
L 458.293738 85.091046 
L 460.362711 86.345354 
L 462.419037 87.620288 
L 464.462512 88.915722 
L 466.49293 90.231526 
L 468.510089 91.567567 
L 470.513787 92.923713 
L 472.503824 94.299828 
L 474.48 95.695774 
L 476.442118 97.111412 
L 478.389982 98.546599 
L 480.323396 100.001194 
L 482.242169 101.475049 
L 484.146107 102.968018 
L 486.035021 104.479952 
L 487.908721 106.010698 
L 489.76702 107.560105 
L 491.609732 109.128017 
L 493.436674 110.714278 
L 495.247661 112.318728 
L 497.042514 113.941208 
L 498.821053 115.581555 
L 500.583099 117.239604 
L 502.328478 118.915192 
L 504.057013 120.608148 
L 505.768533 122.318306 
L 507.462865 124.045492 
L 509.139842 125.789536 
L 510.799294 127.550261 
L 512.441057 129.327493 
L 514.064966 131.121054 
L 515.670857 132.930763 
L 517.258572 134.756441 
L 518.827951 136.597904 
L 520.378838 138.454969 
L 521.911076 140.327449 
L 523.424513 142.215158 
L 524.918998 144.117907 
L 526.394381 146.035505 
L 527.850514 147.967761 
L 529.287253 149.914481 
L 530.704452 151.875471 
L 532.101972 153.850535 
L 533.479671 155.839475 
L 534.837412 157.842093 
L 536.175059 159.858187 
L 537.492479 161.887557 
L 538.78954 163.929999 
L 540.066112 165.98531 
L 541.322067 168.053283 
L 542.55728 170.133713 
L 543.771627 172.22639 
L 544.964987 174.331106 
L 546.137241 176.44765 
L 547.288271 178.57581 
L 548.417962 180.715375 
L 549.526201 182.866129 
L 550.612878 185.027857 
L 551.677884 187.200345 
L 552.721111 189.383373 
L 553.742457 191.576724 
L 554.741818 193.78018 
L 555.719096 195.993518 
L 556.674191 198.216518 
L 557.607009 200.448958 
L 558.517457 202.690614 
L 559.405442 204.941263 
L 560.270877 207.200678 
L 561.113676 209.468635 
L 561.933752 211.744907 
L 562.731026 214.029265 
L 563.505416 216.321482 
L 564.256846 218.621327 
L 564.98524 220.928572 
L 565.690526 223.242986 
L 566.372633 225.564336 
L 567.031492 227.892391 
L 567.667039 230.226919 
L 568.279208 232.567685 
L 568.86794 234.914455 
L 569.433175 237.266996 
L 569.974857 239.625071 
L 570.492932 241.988445 
L 570.987347 244.356881 
L 571.458053 246.730143 
L 571.905004 249.107994 
L 572.328154 251.490195 
L 572.727462 253.876508 
L 573.102886 256.266695 
L 573.454391 258.660516 
L 573.78194 261.057733 
L 574.085501 263.458106 
L 574.365044 265.861394 
L 574.62054 268.267357 
L 574.851964 270.675755 
L 575.059292 273.086347 
L 575.242505 275.498891 
L 575.401584 277.913147 
L 575.536513 280.328873 
L 575.647278 282.745827 
L 575.733868 285.163768 
L 575.796275 287.582455 
L 575.834493 290.001644 
L 575.848517 292.421094 
L 575.848594 292.613766 
L 578.292534 292.613766 
L 578.292457 292.419148 
L 578.278291 289.975259 
L 578.239688 287.531633 
L 578.17665 285.088516 
L 578.089185 282.646151 
L 577.977301 280.204783 
L 577.84101 277.764656 
L 577.680324 275.326014 
L 577.49526 272.8891 
L 577.285837 270.454159 
L 577.052076 268.021434 
L 576.793999 265.591168 
L 576.511633 263.163604 
L 576.205005 260.738986 
L 575.874148 258.317554 
L 575.519093 255.899553 
L 575.139876 253.485223 
L 574.736535 251.074805 
L 574.30911 248.668542 
L 573.857645 246.266672 
L 573.382184 243.869438 
L 572.882775 241.477078 
L 572.359467 239.089832 
L 571.812314 236.707938 
L 571.241369 234.331634 
L 570.646691 231.961159 
L 570.028337 229.596749 
L 569.386371 227.23864 
L 568.720857 224.887069 
L 568.03186 222.542271 
L 567.31945 220.204479 
L 566.583698 217.873929 
L 565.824678 215.550852 
L 565.042466 213.235482 
L 564.237139 210.92805 
L 563.408779 208.628786 
L 562.557467 206.33792 
L 561.683291 204.055682 
L 560.786335 201.7823 
L 559.866691 199.518 
L 558.924451 197.263011 
L 557.959708 195.017556 
L 556.972559 192.78186 
L 555.963103 190.556148 
L 554.931441 188.340642 
L 553.877676 186.135563 
L 552.801912 183.941131 
L 551.704259 181.757567 
L 550.584825 179.585088 
L 549.443723 177.423912 
L 548.281067 175.274255 
L 547.096972 173.136331 
L 545.891558 171.010356 
L 544.664944 168.89654 
L 543.417255 166.795097 
L 542.148613 164.706235 
L 540.859147 162.630163 
L 539.548984 160.56709 
L 538.218257 158.517222 
L 536.867098 156.480763 
L 535.495642 154.457917 
L 534.104027 152.448886 
L 532.692392 150.453872 
L 531.260877 148.473074 
L 529.809626 146.50669 
L 528.338784 144.554916 
L 526.848498 142.617949 
L 525.338918 140.69598 
L 523.810193 138.789203 
L 522.262478 136.897809 
L 520.695926 135.021986 
L 519.110695 133.161922 
L 517.506942 131.317803 
L 515.884829 129.489814 
L 514.244518 127.678137 
L 512.586171 125.882953 
L 510.909957 124.104443 
L 509.216041 122.342783 
L 507.504594 120.59815 
L 505.775786 118.870718 
L 504.029791 117.160661 
L 502.266783 115.468148 
L 500.486938 113.79335 
L 498.690434 112.136435 
L 496.877451 110.497566 
L 495.048171 108.876909 
L 493.202775 107.274626 
L 491.34145 105.690876 
L 489.46438 104.125819 
L 487.571753 102.57961 
L 485.66376 101.052404 
L 483.74059 99.544355 
L 481.802436 98.055612 
L 479.849492 96.586325 
L 477.881953 95.13664 
L 475.900015 93.706703 
L 473.903878 92.296657 
L 471.89374 90.906642 
L 469.869802 89.536797 
L 467.832268 88.18726 
L 465.781341 86.858166 
L 463.717225 85.549647 
L 461.640127 84.261834 
L 459.550256 82.994857 
L 457.447819 81.748841 
L 455.333027 80.523911 
L 453.206092 79.32019 
L 451.067227 78.137798 
L 448.916645 76.976854 
L 446.754561 75.837473 
L 444.581191 74.71977 
L 442.396753 73.623856 
L 440.201466 72.54984 
L 437.995548 71.497831 
L 435.779221 70.467933 
L 433.552706 69.46025 
L 431.316225 68.474882 
L 429.070003 67.511927 
L 426.814263 66.571483 
L 424.549232 65.653643 
L 422.275136 64.758498 
L 419.992203 63.886139 
L 417.70066 63.036652 
L 415.400737 62.210123 
L 413.092664 61.406634 
L 410.776672 60.626266 
L 408.452991 59.869096 
L 406.121856 59.1352 
L 403.783498 58.424652 
L 401.438152 57.737523 
L 399.086051 57.073881 
L 396.727432 56.433793 
L 394.362531 55.817323 
L 391.991582 55.224532 
L 389.614825 54.65548 
L 387.232496 54.110223 
L 384.844834 53.588817 
L 382.452077 53.091313 
L 380.054464 52.617761 
L 377.652237 52.168209 
L 375.245633 51.742701 
L 372.834896 51.341279 
L 370.420264 50.963985 
L 368.001981 50.610856 
L 365.580287 50.281926 
L 363.155425 49.97723 
L 360.727637 49.696797 
L 358.297166 49.440655 
L 355.864256 49.208831 
L 353.429149 49.001347 
L 350.992088 48.818224 
L 348.553319 48.65948 
L 346.113084 48.525132 
L 343.671628 48.415192 
L 341.229194 48.329672 
L 338.786027 48.26858 
L 336.342372 48.231923 
L 333.898472 48.219703 
z
" clip-path="url(#p3375d5cb97)" style="fill: #000080"/>
   </g>
   <g id="patch_3">
    <path d="M 575.848594 292.613766 
L 575.836496 295.033227 
L 575.800205 297.452445 
L 575.739724 299.871181 
L 575.655059 302.28919 
L 575.546219 304.706232 
L 575.413214 307.122064 
L 575.256058 309.536446 
L 575.074766 311.949136 
L 574.869357 314.359892 
L 574.639851 316.768473 
L 574.386271 319.174639 
L 574.108642 321.578149 
L 573.806993 323.978762 
L 573.481353 326.376239 
L 573.131755 328.77034 
L 572.758233 331.160825 
L 572.360826 333.547456 
L 571.939573 335.929993 
L 571.494516 338.308198 
L 571.0257 340.681834 
L 570.533171 343.050664 
L 570.016979 345.41445 
L 569.477175 347.772955 
L 568.913813 350.125945 
L 568.32695 352.473184 
L 567.716645 354.814436 
L 567.082958 357.149469 
L 566.425952 359.478048 
L 565.745694 361.799941 
L 565.042252 364.114916 
L 564.315695 366.42274 
L 563.566097 368.723183 
L 562.793532 371.016016 
L 561.998078 373.301008 
L 561.179814 375.577932 
L 560.338822 377.846559 
L 559.475187 380.106663 
L 558.588994 382.358018 
L 557.680332 384.600399 
L 556.749292 386.833581 
L 555.795967 389.057341 
L 554.820452 391.271457 
L 553.822846 393.475707 
L 552.803247 395.669871 
L 551.761758 397.85373 
L 550.698483 400.027064 
L 549.613528 402.189658 
L 548.507002 404.341293 
L 547.379015 406.481757 
L 546.22968 408.610833 
L 545.059112 410.72831 
L 543.867428 412.833976 
L 542.654748 414.927619 
L 541.421192 417.009031 
L 540.166884 419.078004 
L 538.891949 421.134331 
L 537.596515 423.177806 
L 536.280712 425.208224 
L 534.94467 427.225383 
L 533.588524 429.229081 
L 532.21241 431.219117 
L 530.816464 433.195294 
L 529.400826 435.157412 
L 527.965638 437.105275 
L 526.511044 439.03869 
L 525.037189 440.957463 
L 523.544219 442.861401 
L 522.032286 444.750314 
L 520.501539 446.624014 
L 518.952132 448.482314 
L 517.38422 450.325026 
L 515.79796 452.151967 
L 514.193509 453.962955 
L 512.57103 455.757808 
L 510.930683 457.536347 
L 509.272633 459.298393 
L 507.597046 461.043771 
L 505.904089 462.772307 
L 504.193932 464.483826 
L 502.466745 466.178159 
L 500.722702 467.855136 
L 498.961976 469.514588 
L 497.184744 471.156351 
L 495.391184 472.780259 
L 493.581474 474.386151 
L 491.755797 475.973866 
L 489.914334 477.543245 
L 488.057269 479.094131 
L 486.184788 480.62637 
L 484.297079 482.139807 
L 482.394331 483.634292 
L 480.476733 485.109675 
L 478.544477 486.565808 
L 476.597756 488.002546 
L 474.636766 489.419746 
L 472.661702 490.817265 
L 470.672762 492.194965 
L 468.670145 493.552706 
L 466.654051 494.890353 
L 464.624681 496.207773 
L 462.582238 497.504834 
L 460.526928 498.781405 
L 458.458954 500.037361 
L 456.378525 501.272574 
L 454.285848 502.486921 
L 452.181132 503.680281 
L 450.064588 504.852535 
L 447.936427 506.003564 
L 445.796863 507.133256 
L 443.646109 508.241495 
L 441.48438 509.328172 
L 439.311893 510.393177 
L 437.128864 511.436405 
L 434.935513 512.457751 
L 432.732058 513.457112 
L 430.51872 514.43439 
L 428.295719 515.389485 
L 426.06328 516.322303 
L 423.821623 517.23275 
L 421.570975 518.120736 
L 419.311559 518.986171 
L 417.043602 519.828969 
L 414.767331 520.649046 
L 412.482972 521.44632 
L 410.190756 522.22071 
L 407.89091 522.97214 
L 405.583665 523.700534 
L 403.269252 524.40582 
L 400.947901 525.087927 
L 398.619846 525.746786 
L 396.285319 526.382332 
L 393.944553 526.994502 
L 391.597782 527.583234 
L 389.245242 528.148469 
L 386.887167 528.690151 
L 384.523793 529.208225 
L 382.155356 529.702641 
L 379.782094 530.173347 
L 377.404244 530.620298 
L 375.022043 531.043448 
L 372.63573 531.442755 
L 370.245543 531.81818 
L 367.851721 532.169685 
L 365.454504 532.497234 
L 363.054132 532.800795 
L 360.650844 533.080337 
L 358.24488 533.335833 
L 355.836482 533.567257 
L 353.425891 533.774586 
L 351.013346 533.957799 
L 348.599091 534.116878 
L 346.183365 534.251807 
L 343.76641 534.362572 
L 341.348469 534.449162 
L 338.929783 534.511569 
L 336.510594 534.549787 
L 334.091143 534.563811 
L 333.898472 534.563887 
L 333.898472 537.007828 
L 334.093089 537.007751 
L 336.536979 536.993585 
L 338.980604 536.954981 
L 341.423722 536.891944 
L 343.866086 536.804479 
L 346.307455 536.692595 
L 348.747582 536.556303 
L 351.186224 536.395618 
L 353.623137 536.210554 
L 356.058079 536.001131 
L 358.490804 535.767369 
L 360.92107 535.509293 
L 363.348633 535.226926 
L 365.773252 534.920299 
L 368.194683 534.589441 
L 370.612685 534.234386 
L 373.027015 533.855169 
L 375.437432 533.451829 
L 377.843696 533.024404 
L 380.245565 532.572939 
L 382.642799 532.097478 
L 385.035159 531.598068 
L 387.422406 531.074761 
L 389.8043 530.527608 
L 392.180603 529.956663 
L 394.551079 529.361984 
L 396.915489 528.743631 
L 399.273597 528.101665 
L 401.625168 527.43615 
L 403.969967 526.747154 
L 406.307758 526.034744 
L 408.638308 525.298992 
L 410.961385 524.539972 
L 413.276755 523.757759 
L 415.584188 522.952433 
L 417.883452 522.124072 
L 420.174317 521.272761 
L 422.456556 520.398584 
L 424.729938 519.501629 
L 426.994237 518.581985 
L 429.249227 517.639745 
L 431.494682 516.675002 
L 433.730377 515.687853 
L 435.956089 514.678397 
L 438.171596 513.646735 
L 440.376675 512.592969 
L 442.571106 511.517206 
L 444.754671 510.419553 
L 446.92715 509.300119 
L 449.088326 508.159017 
L 451.237983 506.99636 
L 453.375906 505.812266 
L 455.501882 504.606852 
L 457.615697 503.380238 
L 459.717141 502.132548 
L 461.806003 500.863907 
L 463.882074 499.57444 
L 465.945147 498.264278 
L 467.995016 496.933551 
L 470.031475 495.582392 
L 472.054321 494.210936 
L 474.063351 492.819321 
L 476.058365 491.407685 
L 478.039163 489.97617 
L 480.005548 488.52492 
L 481.957321 487.054078 
L 483.894289 485.563792 
L 485.816257 484.054211 
L 487.723034 482.525487 
L 489.614428 480.977771 
L 491.490251 479.41122 
L 493.350315 477.825988 
L 495.194434 476.222236 
L 497.022423 474.600123 
L 498.834101 472.959811 
L 500.629284 471.301465 
L 502.407795 469.625251 
L 504.169455 467.931335 
L 505.914088 466.219888 
L 507.64152 464.49108 
L 509.351577 462.745085 
L 511.044089 460.982076 
L 512.718887 459.202231 
L 514.375803 457.405728 
L 516.014671 455.592745 
L 517.635328 453.763464 
L 519.237612 451.918069 
L 520.821361 450.056743 
L 522.386419 448.179674 
L 523.932627 446.287047 
L 525.459833 444.379054 
L 526.967883 442.455884 
L 528.456625 440.51773 
L 529.925913 438.564786 
L 531.375597 436.597246 
L 532.805534 434.615309 
L 534.215581 432.619171 
L 535.605596 430.609034 
L 536.97544 428.585096 
L 538.324977 426.547562 
L 539.654071 424.496634 
L 540.96259 422.432518 
L 542.250403 420.355421 
L 543.517381 418.265549 
L 544.763397 416.163113 
L 545.988327 414.048321 
L 547.192048 411.921386 
L 548.374439 409.782521 
L 549.535384 407.631938 
L 550.674764 405.469854 
L 551.792468 403.296485 
L 552.888382 401.112047 
L 553.962397 398.91676 
L 555.014406 396.710842 
L 556.044304 394.494515 
L 557.051987 392.267999 
L 558.037356 390.031519 
L 559.00031 387.785296 
L 559.940754 385.529557 
L 560.858595 383.264526 
L 561.753739 380.99043 
L 562.626099 378.707497 
L 563.475585 376.415954 
L 564.302115 374.116031 
L 565.105604 371.807958 
L 565.885972 369.491965 
L 566.643142 367.168285 
L 567.377038 364.837149 
L 568.087585 362.498792 
L 568.774715 360.153445 
L 569.438357 357.801345 
L 570.078445 355.442726 
L 570.694915 353.077824 
L 571.287706 350.706876 
L 571.856758 348.330119 
L 572.402014 345.94779 
L 572.92342 343.560127 
L 573.420924 341.16737 
L 573.894476 338.769758 
L 574.344029 336.36753 
L 574.769537 333.960927 
L 575.170958 331.550189 
L 575.548252 329.135558 
L 575.901382 326.717274 
L 576.230311 324.29558 
L 576.535008 321.870718 
L 576.815441 319.442931 
L 577.071582 317.01246 
L 577.303406 314.579549 
L 577.51089 312.144442 
L 577.694013 309.707382 
L 577.852757 307.268613 
L 577.987105 304.828378 
L 578.097045 302.386921 
L 578.182565 299.944488 
L 578.243657 297.501321 
L 578.280315 295.057666 
L 578.292534 292.613766 
z
" clip-path="url(#p3375d5cb97)" style="fill: #7dff7a"/>
   </g>
   <g id="patch_4">
    <path d="M 333.898472 534.563887 
L 331.479011 534.55179 
L 329.059792 534.515499 
L 326.641057 534.455018 
L 324.223048 534.370353 
L 321.806006 534.261513 
L 319.390173 534.128508 
L 316.975791 533.971352 
L 314.563102 533.79006 
L 312.152346 533.584651 
L 309.743765 533.355145 
L 307.337599 533.101565 
L 304.934089 532.823936 
L 302.533475 532.522287 
L 300.135998 532.196647 
L 297.741898 531.847048 
L 295.351412 531.473527 
L 292.964782 531.07612 
L 290.582245 530.654867 
L 288.204039 530.20981 
L 285.830403 529.740994 
L 283.461574 529.248465 
L 281.097788 528.732272 
L 278.739282 528.192469 
L 276.386292 527.629107 
L 274.039054 527.042244 
L 271.697801 526.431939 
L 269.362768 525.798251 
L 267.034189 525.141246 
L 264.712296 524.460988 
L 262.397322 523.757546 
L 260.089498 523.030989 
L 257.789054 522.281391 
L 255.496222 521.508826 
L 253.211229 520.713372 
L 250.934306 519.895108 
L 248.665678 519.054116 
L 246.405574 518.190481 
L 244.154219 517.304287 
L 241.911839 516.395625 
L 239.678656 515.464585 
L 237.454896 514.51126 
L 235.240781 513.535746 
L 233.03653 512.53814 
L 230.842366 511.518541 
L 228.658508 510.477052 
L 226.485173 509.413777 
L 224.32258 508.328822 
L 222.170944 507.222295 
L 220.030481 506.094308 
L 217.901404 504.944973 
L 215.783927 503.774406 
L 213.678262 502.582722 
L 211.584618 501.370041 
L 209.503206 500.136486 
L 207.434233 498.882178 
L 205.377907 497.607243 
L 203.334432 496.311809 
L 201.304014 494.996006 
L 199.286855 493.659964 
L 197.283157 492.303818 
L 195.29312 490.927703 
L 193.316944 489.531757 
L 191.354826 488.11612 
L 189.406962 486.680932 
L 187.473547 485.226338 
L 185.554775 483.752482 
L 183.650837 482.259513 
L 181.761923 480.74758 
L 179.888223 479.216833 
L 178.029924 477.667426 
L 176.187212 476.099514 
L 174.36027 474.513253 
L 172.549282 472.908803 
L 170.754429 471.286323 
L 168.975891 469.645977 
L 167.213844 467.987927 
L 165.468466 466.31234 
L 163.739931 464.619383 
L 162.028411 462.909226 
L 160.334078 461.182039 
L 158.657102 459.437996 
L 156.997649 457.67727 
L 155.355887 455.900038 
L 153.731978 454.106478 
L 152.126086 452.296768 
L 150.538371 450.471091 
L 148.968992 448.629627 
L 147.418106 446.772563 
L 145.885868 444.900082 
L 144.372431 443.012373 
L 142.877946 441.109625 
L 141.402563 439.192026 
L 139.946429 437.259771 
L 138.509691 435.31305 
L 137.092491 433.35206 
L 135.694972 431.376996 
L 134.317273 429.388056 
L 132.959532 427.385439 
L 131.621884 425.369344 
L 130.304465 423.339974 
L 129.007404 421.297532 
L 127.730832 419.242221 
L 126.474877 417.174248 
L 125.239664 415.093819 
L 124.025317 413.001141 
L 122.831957 410.896425 
L 121.659703 408.779881 
L 120.508673 406.651721 
L 119.378982 404.512157 
L 118.270742 402.361402 
L 117.184066 400.199674 
L 116.11906 398.027187 
L 115.075832 395.844158 
L 114.054487 393.650807 
L 113.055125 391.447352 
L 112.077848 389.234013 
L 111.122753 387.011013 
L 110.189934 384.778573 
L 109.279487 382.536917 
L 108.391501 380.286268 
L 107.526066 378.026853 
L 106.683268 375.758896 
L 105.863191 373.482624 
L 105.065918 371.198266 
L 104.291528 368.90605 
L 103.540098 366.606204 
L 102.811703 364.298959 
L 102.106418 361.984546 
L 101.424311 359.663195 
L 100.765451 357.33514 
L 100.129905 355.000612 
L 99.517735 352.659846 
L 98.929003 350.313076 
L 98.363768 347.960535 
L 97.822087 345.60246 
L 97.304012 343.239086 
L 96.809597 340.87065 
L 96.338891 338.497388 
L 95.89194 336.119537 
L 95.46879 333.737337 
L 95.069482 331.351023 
L 94.694057 328.960836 
L 94.342553 326.567015 
L 94.015004 324.169798 
L 93.711443 321.769425 
L 93.4319 319.366137 
L 93.176404 316.960174 
L 92.94498 314.551776 
L 92.737651 312.141185 
L 92.554438 309.72864 
L 92.39536 307.314384 
L 92.260431 304.898658 
L 92.149666 302.481704 
L 92.063075 300.063763 
L 92.000668 297.645077 
L 91.962451 295.225887 
L 91.948427 292.806437 
L 91.958597 290.386967 
L 91.992962 287.96772 
L 92.051517 285.548938 
L 92.134256 283.130862 
L 92.241172 280.713734 
L 92.372253 278.297796 
L 92.527486 275.88329 
L 92.706857 273.470457 
L 92.910346 271.059538 
L 93.137934 268.650775 
L 93.389598 266.244408 
L 93.665312 263.840677 
L 93.96505 261.439825 
L 94.288781 259.042089 
L 94.636472 256.647711 
L 95.00809 254.256929 
L 95.403596 251.869983 
L 95.822952 249.487111 
L 96.266115 247.108552 
L 96.733041 244.734543 
L 97.223684 242.365322 
L 97.737993 240.001126 
L 98.275919 237.642191 
L 98.837407 235.288753 
L 99.4224 232.941048 
L 100.030841 230.59931 
L 100.662668 228.263774 
L 101.317819 225.934672 
L 101.996228 223.612238 
L 102.697827 221.296704 
L 103.422546 218.988302 
L 104.170312 216.687263 
L 104.94105 214.393816 
L 105.734685 212.10819 
L 106.551135 209.830616 
L 107.39032 207.561319 
L 108.252156 205.300528 
L 109.136556 203.048468 
L 110.043432 200.805365 
L 110.972693 198.571442 
L 111.924247 196.346924 
L 112.897998 194.132032 
L 113.893849 191.926988 
L 114.9117 189.732013 
L 115.951449 187.547325 
L 117.012994 185.373145 
L 118.096226 183.209688 
L 119.201039 181.057172 
L 120.327321 178.915811 
L 121.47496 176.78582 
L 122.643841 174.667412 
L 123.833848 172.560798 
L 125.04486 170.466189 
L 126.276758 168.383795 
L 127.529418 166.313824 
L 128.802715 164.256483 
L 130.096521 162.211977 
L 131.410707 160.180512 
L 132.745142 158.162289 
L 134.099692 156.157512 
L 135.474222 154.16638 
L 136.868594 152.189093 
L 138.282668 150.225849 
L 139.716305 148.276842 
L 141.169359 146.34227 
L 142.641686 144.422324 
L 144.133138 142.517198 
L 145.643567 140.627081 
L 147.172821 138.752163 
L 148.720748 136.89263 
L 150.287192 135.04867 
L 151.871997 133.220466 
L 153.475005 131.408201 
L 155.096055 129.612057 
L 156.734985 127.832212 
L 158.391631 126.068846 
L 160.065828 124.322134 
L 161.757407 122.592251 
L 163.466201 120.87937 
L 165.192038 119.183662 
L 166.934746 117.505298 
L 168.694149 115.844444 
L 170.470073 114.201266 
L 172.26234 112.57593 
L 174.07077 110.968598 
L 175.895182 109.379429 
L 177.735395 107.808584 
L 179.591224 106.25622 
L 181.462484 104.722491 
L 183.348987 103.207551 
L 185.250545 101.711551 
L 187.166968 100.234642 
L 189.098064 98.77697 
L 191.043639 97.338682 
L 193.0035 95.919921 
L 194.977451 94.52083 
L 196.965293 93.141547 
L 198.966828 91.782212 
L 200.981857 90.442959 
L 203.010177 89.123924 
L 205.051586 87.825237 
L 207.10588 86.547029 
L 209.172852 85.289427 
L 211.252297 84.052558 
L 213.344007 82.836545 
L 215.447772 81.641509 
L 217.563382 80.46757 
L 219.690625 79.314846 
L 221.829289 78.183451 
L 223.97916 77.0735 
L 226.140022 75.985102 
L 228.311661 74.918367 
L 230.493858 73.873401 
L 232.686395 72.850309 
L 234.889054 71.849193 
L 237.101613 70.870153 
L 239.323852 69.913288 
L 241.555548 68.978692 
L 243.796479 68.06646 
L 246.04642 67.176683 
L 248.305145 66.309449 
L 250.57243 65.464845 
L 252.848048 64.642955 
L 255.131771 63.843863 
L 257.42337 63.067648 
L 259.722617 62.314387 
L 262.029281 61.584155 
L 264.343132 60.877027 
L 266.663938 60.193072 
L 268.991468 59.532359 
L 271.325489 58.894953 
L 273.665766 58.28092 
L 276.012068 57.690319 
L 278.364157 57.123211 
L 280.7218 56.579651 
L 283.084761 56.059695 
L 285.452803 55.563394 
L 287.825689 55.090798 
L 290.203183 54.641954 
L 292.585046 54.216907 
L 294.971041 53.815699 
L 297.360928 53.438371 
L 299.754469 53.08496 
L 302.151424 52.755502 
L 304.551554 52.45003 
L 306.954619 52.168574 
L 309.360378 51.911162 
L 311.768591 51.67782 
L 314.179016 51.468572 
L 316.591414 51.283438 
L 319.005542 51.122436 
L 321.42116 50.985584 
L 323.838026 50.872894 
L 326.255897 50.784378 
L 328.674533 50.720045 
L 331.093691 50.679901 
L 333.513129 50.663951 
L 333.898472 50.663644 
L 333.898472 48.219703 
L 333.509237 48.220013 
L 331.06536 48.236125 
L 328.621766 48.276674 
L 326.178699 48.341657 
L 323.736405 48.431067 
L 321.295127 48.544895 
L 318.855109 48.68313 
L 316.416595 48.845758 
L 313.97983 49.032762 
L 311.545056 49.244124 
L 309.112518 49.479823 
L 306.682459 49.739835 
L 304.255121 50.024134 
L 301.830747 50.332692 
L 299.40958 50.665478 
L 296.991862 51.022458 
L 294.577834 51.403597 
L 292.167739 51.808858 
L 289.761816 52.238198 
L 287.360307 52.691576 
L 284.963452 53.168946 
L 282.571491 53.67026 
L 280.184662 54.195468 
L 277.803204 54.744518 
L 275.427356 55.317355 
L 273.057355 55.913921 
L 270.693438 56.534157 
L 268.335842 57.178001 
L 265.984802 57.845388 
L 263.640553 58.536252 
L 261.303329 59.250523 
L 258.973365 59.98813 
L 256.650894 60.749 
L 254.336147 61.533056 
L 252.029357 62.34022 
L 249.730753 63.170411 
L 247.440566 64.023546 
L 245.159025 64.89954 
L 242.886358 65.798306 
L 240.622792 66.719752 
L 238.368553 67.663788 
L 236.123867 68.630319 
L 233.888959 69.619248 
L 231.664051 70.630476 
L 229.449367 71.663902 
L 227.245127 72.719423 
L 225.051553 73.796933 
L 222.868864 74.896325 
L 220.697277 76.017489 
L 218.53701 77.160311 
L 216.38828 78.324679 
L 214.2513 79.510476 
L 212.126285 80.717583 
L 210.013447 81.945879 
L 207.912997 83.195242 
L 205.825146 84.465547 
L 203.750102 85.756666 
L 201.688073 87.068471 
L 199.639265 88.40083 
L 197.603883 89.75361 
L 195.58213 91.126676 
L 193.574208 92.519891 
L 191.580319 93.933115 
L 189.600661 95.366206 
L 187.635433 96.819023 
L 185.684832 98.291418 
L 183.749051 99.783246 
L 181.828285 101.294357 
L 179.922727 102.824599 
L 178.032565 104.37382 
L 176.157991 105.941865 
L 174.29919 107.528577 
L 172.456348 109.133798 
L 170.629651 110.757366 
L 168.819281 112.39912 
L 167.025419 114.058895 
L 165.248243 115.736525 
L 163.487933 117.431843 
L 161.744663 119.144679 
L 160.018609 120.874862 
L 158.309942 122.622219 
L 156.618835 124.386574 
L 154.945455 126.167752 
L 153.28997 127.965575 
L 151.652546 129.779862 
L 150.033346 131.610433 
L 148.432533 133.457103 
L 146.850266 135.31969 
L 145.286704 137.198005 
L 143.742002 139.091862 
L 142.216317 141.001071 
L 140.709799 142.925441 
L 139.2226 144.86478 
L 137.754869 146.818894 
L 136.306751 148.787587 
L 134.878393 150.770662 
L 133.469936 152.767922 
L 132.081523 154.779166 
L 130.71329 156.804194 
L 129.365376 158.842802 
L 128.037916 160.894787 
L 126.731041 162.959945 
L 125.444883 165.038067 
L 124.179569 167.128947 
L 122.935228 169.232375 
L 121.711983 171.348141 
L 120.509956 173.476034 
L 119.329268 175.615841 
L 118.170036 177.767347 
L 117.032378 179.930337 
L 115.916405 182.104596 
L 114.822231 184.289906 
L 113.749964 186.486048 
L 112.699712 188.692803 
L 111.67158 190.90995 
L 110.66567 193.137267 
L 109.682083 195.374531 
L 108.720917 197.62152 
L 107.78227 199.878007 
L 106.866233 202.143768 
L 105.9729 204.418576 
L 105.102359 206.702204 
L 104.254697 208.994422 
L 103.43 211.295003 
L 102.628349 213.603715 
L 101.849825 215.920328 
L 101.094506 218.244611 
L 100.362467 220.57633 
L 99.653781 222.915253 
L 98.96852 225.261146 
L 98.306751 227.613774 
L 97.668542 229.972902 
L 97.053955 232.338293 
L 96.463052 234.709713 
L 95.895893 237.086923 
L 95.352534 239.469685 
L 94.833029 241.857762 
L 94.337431 244.250914 
L 93.865788 246.648903 
L 93.418149 249.051488 
L 92.994557 251.458429 
L 92.595056 253.869486 
L 92.219685 256.284417 
L 91.868481 258.702981 
L 91.54148 261.124936 
L 91.238715 263.55004 
L 90.960215 265.97805 
L 90.706009 268.408724 
L 90.476123 270.841819 
L 90.270578 273.27709 
L 90.089396 275.714295 
L 89.932594 278.15319 
L 89.800189 280.593532 
L 89.692193 283.035075 
L 89.608618 285.477576 
L 89.549472 287.92079 
L 89.51476 290.364474 
L 89.504487 292.808383 
L 89.518653 295.252273 
L 89.557256 297.695898 
L 89.620294 300.139015 
L 89.707759 302.58138 
L 89.819643 305.022748 
L 89.955934 307.462875 
L 90.11662 309.901518 
L 90.301683 312.338431 
L 90.511107 314.773372 
L 90.744868 317.206097 
L 91.002945 319.636363 
L 91.285311 322.063927 
L 91.591938 324.488546 
L 91.922796 326.909977 
L 92.277851 329.327979 
L 92.657068 331.742309 
L 93.060409 334.152726 
L 93.487833 336.55899 
L 93.939299 338.960859 
L 94.41476 341.358093 
L 94.914169 343.750453 
L 95.437477 346.1377 
L 95.98463 348.519594 
L 96.555575 350.895897 
L 97.150253 353.266372 
L 97.768606 355.630783 
L 98.410572 357.988891 
L 99.076087 360.340462 
L 99.765084 362.68526 
L 100.477494 365.023052 
L 101.213245 367.353602 
L 101.972266 369.676679 
L 102.754478 371.992049 
L 103.559805 374.299482 
L 104.388165 376.598746 
L 105.239476 378.889611 
L 106.113653 381.171849 
L 107.010608 383.445232 
L 107.930252 385.709531 
L 108.872493 387.964521 
L 109.837236 390.209976 
L 110.824384 392.445671 
L 111.83384 394.671383 
L 112.865503 396.886889 
L 113.919268 399.091969 
L 114.995031 401.2864 
L 116.092685 403.469964 
L 117.212118 405.642443 
L 118.35322 407.803619 
L 119.515877 409.953276 
L 120.699972 412.0912 
L 121.905386 414.217175 
L 123.131999 416.330991 
L 124.379689 418.432435 
L 125.648331 420.521297 
L 126.937797 422.597368 
L 128.247959 424.660441 
L 129.578687 426.71031 
L 130.929846 428.746769 
L 132.301301 430.769615 
L 133.692917 432.778645 
L 135.104552 434.773659 
L 136.536067 436.754457 
L 137.987318 438.720841 
L 139.45816 440.672615 
L 140.948446 442.609583 
L 142.458026 444.531551 
L 143.986751 446.438328 
L 145.534466 448.329722 
L 147.101018 450.205545 
L 148.686249 452.065609 
L 150.290002 453.909728 
L 151.912115 455.737717 
L 153.552426 457.549394 
L 155.210772 459.344578 
L 156.886987 461.123089 
L 158.580903 462.884749 
L 160.29235 464.629382 
L 162.021158 466.356813 
L 163.767153 468.066871 
L 165.530161 469.759383 
L 167.310006 471.434181 
L 169.10651 473.091097 
L 170.919493 474.729965 
L 172.748773 476.350622 
L 174.594169 477.952905 
L 176.455494 479.536655 
L 178.332564 481.101712 
L 180.22519 482.647921 
L 182.133184 484.175127 
L 184.056354 485.683176 
L 185.994508 487.171919 
L 187.947452 488.641206 
L 189.914991 490.090891 
L 191.896929 491.520828 
L 193.893066 492.930875 
L 195.903204 494.320889 
L 197.927141 495.690734 
L 199.964676 497.040271 
L 202.015603 498.369365 
L 204.079719 499.677884 
L 206.156817 500.965697 
L 208.246688 502.232675 
L 210.349125 503.478691 
L 212.463916 504.70362 
L 214.590851 505.907341 
L 216.729717 507.089733 
L 218.880299 508.250677 
L 221.042383 509.390058 
L 223.215753 510.507762 
L 225.40019 511.603676 
L 227.595478 512.677691 
L 229.801396 513.7297 
L 232.017723 514.759598 
L 234.244238 515.767281 
L 236.480719 516.752649 
L 238.726941 517.715604 
L 240.982681 518.656048 
L 243.247711 519.573889 
L 245.521807 520.469033 
L 247.804741 521.341392 
L 250.096284 522.190879 
L 252.396207 523.017408 
L 254.70428 523.820897 
L 257.020272 524.601266 
L 259.343952 525.358436 
L 261.675088 526.092331 
L 264.013446 526.802879 
L 266.358792 527.490008 
L 268.710892 528.15365 
L 271.069511 528.793738 
L 273.434413 529.410209 
L 275.805361 530.002999 
L 278.182119 530.572051 
L 280.564448 531.117308 
L 282.95211 531.638714 
L 285.344867 532.136218 
L 287.742479 532.60977 
L 290.144707 533.059323 
L 292.55131 533.484831 
L 294.962048 533.886252 
L 297.37668 534.263546 
L 299.794963 534.616676 
L 302.216657 534.945605 
L 304.641519 535.250301 
L 307.069307 535.530734 
L 309.499778 535.786876 
L 311.932688 536.0187 
L 314.367795 536.226184 
L 316.804855 536.409307 
L 319.243625 536.568051 
L 321.68386 536.702399 
L 324.125316 536.812339 
L 326.56775 536.897859 
L 329.010916 536.958951 
L 331.454572 536.995609 
L 333.898472 537.007828 
z
" clip-path="url(#p3375d5cb97)" style="fill: #800000"/>
   </g>
   <g id="PatchCollection_1">
    <path d="M 575.848594 292.613766 
L 575.848594 292.613766 
L 575.836496 295.033227 
L 575.800205 297.452445 
L 575.739724 299.871181 
L 575.655059 302.28919 
L 575.546219 304.706232 
L 575.413214 307.122064 
L 575.256058 309.536446 
L 575.074766 311.949136 
L 574.869357 314.359892 
L 574.639851 316.768473 
L 574.386271 319.174639 
L 574.108642 321.578149 
L 573.806993 323.978762 
L 573.481353 326.376239 
L 573.131755 328.77034 
L 572.758233 331.160825 
L 572.360826 333.547456 
L 571.939573 335.929993 
L 571.494516 338.308198 
L 571.0257 340.681834 
L 570.533171 343.050664 
L 570.016979 345.41445 
L 569.477175 347.772955 
L 568.913813 350.125945 
L 568.32695 352.473184 
L 567.716645 354.814436 
L 567.082958 357.149469 
L 566.425952 359.478048 
L 565.745694 361.799941 
L 565.042252 364.114916 
L 564.315695 366.42274 
L 563.566097 368.723183 
L 562.793532 371.016016 
L 561.998078 373.301008 
L 561.179814 375.577932 
L 560.338822 377.846559 
L 559.475187 380.106663 
L 558.588994 382.358018 
L 557.680332 384.600399 
L 556.749292 386.833581 
L 555.795967 389.057341 
L 554.820452 391.271457 
L 553.822846 393.475707 
L 552.803247 395.669871 
L 551.761758 397.85373 
L 550.698483 400.027064 
L 549.613528 402.189658 
L 548.507002 404.341293 
L 547.379015 406.481757 
L 546.22968 408.610833 
L 545.059112 410.72831 
L 543.867428 412.833976 
L 542.654748 414.927619 
L 541.421192 417.009031 
L 540.166884 419.078004 
L 538.891949 421.134331 
L 537.596515 423.177806 
L 536.280712 425.208224 
L 534.94467 427.225383 
L 533.588524 429.229081 
L 532.21241 431.219117 
L 530.816464 433.195294 
L 529.400826 435.157412 
L 527.965638 437.105275 
L 526.511044 439.03869 
L 525.037189 440.957463 
L 523.544219 442.861401 
L 522.032286 444.750314 
L 520.501539 446.624014 
L 518.952132 448.482314 
L 517.38422 450.325026 
L 515.79796 452.151967 
L 514.193509 453.962955 
L 512.57103 455.757808 
L 510.930683 457.536347 
L 509.272633 459.298393 
L 507.597046 461.043771 
L 505.904089 462.772307 
L 504.193932 464.483826 
L 502.466745 466.178159 
L 500.722702 467.855136 
L 498.961976 469.514588 
L 497.184744 471.156351 
L 495.391184 472.780259 
L 493.581474 474.386151 
L 491.755797 475.973866 
L 489.914334 477.543245 
L 488.057269 479.094131 
L 486.184788 480.62637 
L 484.297079 482.139807 
L 482.394331 483.634292 
L 480.476733 485.109675 
L 478.544477 486.565808 
L 476.597756 488.002546 
L 474.636766 489.419746 
L 472.661702 490.817265 
L 470.672762 492.194965 
L 468.670145 493.552706 
L 466.654051 494.890353 
L 464.624681 496.207773 
L 462.582238 497.504834 
L 460.526928 498.781405 
L 458.458954 500.037361 
L 456.378525 501.272574 
L 454.285848 502.486921 
L 452.181132 503.680281 
L 450.064588 504.852535 
L 447.936427 506.003564 
L 445.796863 507.133256 
L 443.646109 508.241495 
L 441.48438 509.328172 
L 439.311893 510.393177 
L 437.128864 511.436405 
L 434.935513 512.457751 
L 432.732058 513.457112 
L 430.51872 514.43439 
L 428.295719 515.389485 
L 426.06328 516.322303 
L 423.821623 517.23275 
L 421.570975 518.120736 
L 419.311559 518.986171 
L 417.043602 519.828969 
L 414.767331 520.649046 
L 412.482972 521.44632 
L 410.190756 522.22071 
L 407.89091 522.97214 
L 405.583665 523.700534 
L 403.269252 524.40582 
L 400.947901 525.087927 
L 398.619846 525.746786 
L 396.285319 526.382332 
L 393.944553 526.994502 
L 391.597782 527.583234 
L 389.245242 528.148469 
L 386.887167 528.690151 
L 384.523793 529.208225 
L 382.155356 529.702641 
L 379.782094 530.173347 
L 377.404244 530.620298 
L 375.022043 531.043448 
L 372.63573 531.442755 
L 370.245543 531.81818 
L 367.851721 532.169685 
L 365.454504 532.497234 
L 363.054132 532.800795 
L 360.650844 533.080337 
L 358.24488 533.335833 
L 355.836482 533.567257 
L 353.425891 533.774586 
L 351.013346 533.957799 
L 348.599091 534.116878 
L 346.183365 534.251807 
L 343.76641 534.362572 
L 341.348469 534.449162 
L 338.929783 534.511569 
L 336.510594 534.549787 
L 334.091143 534.563811 
L 333.898472 534.563887 
L 333.898472 534.563887 
Q 333.898472 292.613766 333.898472 534.563887 
L 333.898472 534.563887 
L 333.898472 534.563887 
L 331.479011 534.55179 
L 329.059792 534.515499 
L 326.641057 534.455018 
L 324.223048 534.370353 
L 321.806006 534.261513 
L 319.390173 534.128508 
L 316.975791 533.971352 
L 314.563102 533.79006 
L 312.152346 533.584651 
L 309.743765 533.355145 
L 307.337599 533.101565 
L 304.934089 532.823936 
L 302.533475 532.522287 
L 300.135998 532.196647 
L 297.741898 531.847048 
L 295.351412 531.473527 
L 292.964782 531.07612 
L 290.582245 530.654867 
L 288.204039 530.20981 
L 285.830403 529.740994 
L 283.461574 529.248465 
L 281.097788 528.732272 
L 278.739282 528.192469 
L 276.386292 527.629107 
L 274.039054 527.042244 
L 271.697801 526.431939 
L 269.362768 525.798251 
L 267.034189 525.141246 
L 264.712296 524.460988 
L 262.397322 523.757546 
L 260.089498 523.030989 
L 257.789054 522.281391 
L 255.496222 521.508826 
L 253.211229 520.713372 
L 250.934306 519.895108 
L 248.665678 519.054116 
L 246.405574 518.190481 
L 244.154219 517.304287 
L 241.911839 516.395625 
L 239.678656 515.464585 
L 237.454896 514.51126 
L 235.240781 513.535746 
L 233.03653 512.53814 
L 230.842366 511.518541 
L 228.658508 510.477052 
L 226.485173 509.413777 
L 224.32258 508.328822 
L 222.170944 507.222295 
L 220.030481 506.094308 
L 217.901404 504.944973 
L 215.783927 503.774406 
L 213.678262 502.582722 
L 211.584618 501.370041 
L 209.503206 500.136486 
L 207.434233 498.882178 
L 205.377907 497.607243 
L 203.334432 496.311809 
L 201.304014 494.996006 
L 199.286855 493.659964 
L 197.283157 492.303818 
L 195.29312 490.927703 
L 193.316944 489.531757 
L 191.354826 488.11612 
L 189.406962 486.680932 
L 187.473547 485.226338 
L 185.554775 483.752482 
L 183.650837 482.259513 
L 181.761923 480.74758 
L 179.888223 479.216833 
L 178.029924 477.667426 
L 176.187212 476.099514 
L 174.36027 474.513253 
L 172.549282 472.908803 
L 170.754429 471.286323 
L 168.975891 469.645977 
L 167.213844 467.987927 
L 165.468466 466.31234 
L 163.739931 464.619383 
L 162.028411 462.909226 
L 160.334078 461.182039 
L 158.657102 459.437996 
L 156.997649 457.67727 
L 155.355887 455.900038 
L 153.731978 454.106478 
L 152.126086 452.296768 
L 150.538371 450.471091 
L 148.968992 448.629627 
L 147.418106 446.772563 
L 145.885868 444.900082 
L 144.372431 443.012373 
L 142.877946 441.109625 
L 141.402563 439.192026 
L 139.946429 437.259771 
L 138.509691 435.31305 
L 137.092491 433.35206 
L 135.694972 431.376996 
L 134.317273 429.388056 
L 132.959532 427.385439 
L 131.621884 425.369344 
L 130.304465 423.339974 
L 129.007404 421.297532 
L 127.730832 419.242221 
L 126.474877 417.174248 
L 125.239664 415.093819 
L 124.025317 413.001141 
L 122.831957 410.896425 
L 121.659703 408.779881 
L 120.508673 406.651721 
L 119.378982 404.512157 
L 118.270742 402.361402 
L 117.184066 400.199674 
L 116.11906 398.027187 
L 115.075832 395.844158 
L 114.054487 393.650807 
L 113.055125 391.447352 
L 112.077848 389.234013 
L 111.122753 387.011013 
L 110.189934 384.778573 
L 109.279487 382.536917 
L 108.391501 380.286268 
L 107.526066 378.026853 
L 106.683268 375.758896 
L 105.863191 373.482624 
L 105.065918 371.198266 
L 104.291528 368.90605 
L 103.540098 366.606204 
L 102.811703 364.298959 
L 102.106418 361.984546 
L 101.424311 359.663195 
L 100.765451 357.33514 
L 100.129905 355.000612 
L 99.517735 352.659846 
L 98.929003 350.313076 
L 98.363768 347.960535 
L 97.822087 345.60246 
L 97.304012 343.239086 
L 96.809597 340.87065 
L 96.338891 338.497388 
L 95.89194 336.119537 
L 95.46879 333.737337 
L 95.069482 331.351023 
L 94.694057 328.960836 
L 94.342553 326.567015 
L 94.015004 324.169798 
L 93.711443 321.769425 
L 93.4319 319.366137 
L 93.176404 316.960174 
L 92.94498 314.551776 
L 92.737651 312.141185 
L 92.554438 309.72864 
L 92.39536 307.314384 
L 92.260431 304.898658 
L 92.149666 302.481704 
L 92.063075 300.063763 
L 92.000668 297.645077 
L 91.962451 295.225887 
L 91.948427 292.806437 
L 91.94835 292.613766 
L 91.94835 292.613766 
Q 333.898472 292.613766 575.848594 292.613766 
z
" clip-path="url(#p3375d5cb97)" style="fill: #7dff7a; fill-opacity: 0.5; stroke: #808080; stroke-opacity: 0.5; stroke-width: 0.1"/>
    <path d="M 333.898472 50.663644 
L 333.898472 50.663644 
L 336.317933 50.675741 
L 338.737152 50.712032 
L 341.155887 50.772513 
L 343.573896 50.857178 
L 345.990938 50.966018 
L 348.406771 51.099023 
L 350.821152 51.25618 
L 353.233842 51.437471 
L 355.644598 51.64288 
L 358.053179 51.872387 
L 360.459345 52.125967 
L 362.862855 52.403595 
L 365.263468 52.705245 
L 367.660945 53.030885 
L 370.055046 53.380483 
L 372.445531 53.754004 
L 374.832162 54.151411 
L 377.214699 54.572664 
L 379.592905 55.017721 
L 381.966541 55.486538 
L 384.33537 55.979067 
L 386.699156 56.495259 
L 389.057661 57.035063 
L 391.410651 57.598424 
L 393.75789 58.185287 
L 396.099143 58.795593 
L 398.434175 59.42928 
L 400.762755 60.086285 
L 403.084648 60.766543 
L 405.399622 61.469986 
L 407.707446 62.196542 
L 410.00789 62.946141 
L 412.300722 63.718705 
L 414.585714 64.514159 
L 416.862638 65.332423 
L 419.131266 66.173415 
L 421.39137 67.037051 
L 423.642725 67.923244 
L 425.885105 68.831906 
L 428.118287 69.762946 
L 430.342047 70.716271 
L 432.556163 71.691785 
L 434.760413 72.689392 
L 436.954577 73.70899 
L 439.138436 74.750479 
L 441.31177 75.813755 
L 443.474364 76.89871 
L 445.626 78.005236 
L 447.766463 79.133223 
L 449.895539 80.282558 
L 452.013016 81.453126 
L 454.118682 82.644809 
L 456.212325 83.85749 
L 458.293738 85.091046 
L 460.362711 86.345354 
L 462.419037 87.620288 
L 464.462512 88.915722 
L 466.49293 90.231526 
L 468.510089 91.567567 
L 470.513787 92.923713 
L 472.503824 94.299828 
L 474.48 95.695774 
L 476.442118 97.111412 
L 478.389982 98.546599 
L 480.323396 100.001194 
L 482.242169 101.475049 
L 484.146107 102.968018 
L 486.035021 104.479952 
L 487.908721 106.010698 
L 489.76702 107.560105 
L 491.609732 109.128017 
L 493.436674 110.714278 
L 495.247661 112.318728 
L 497.042514 113.941208 
L 498.821053 115.581555 
L 500.583099 117.239604 
L 502.328478 118.915192 
L 504.057013 120.608148 
L 505.768533 122.318306 
L 507.462865 124.045492 
L 509.139842 125.789536 
L 510.799294 127.550261 
L 512.441057 129.327493 
L 514.064966 131.121054 
L 515.670857 132.930763 
L 517.258572 134.756441 
L 518.827951 136.597904 
L 520.378838 138.454969 
L 521.911076 140.327449 
L 523.424513 142.215158 
L 524.918998 144.117907 
L 526.394381 146.035505 
L 527.850514 147.967761 
L 529.287253 149.914481 
L 530.704452 151.875471 
L 532.101972 153.850535 
L 533.479671 155.839475 
L 534.837412 157.842093 
L 536.175059 159.858187 
L 537.492479 161.887557 
L 538.78954 163.929999 
L 540.066112 165.98531 
L 541.322067 168.053283 
L 542.55728 170.133713 
L 543.771627 172.22639 
L 544.964987 174.331106 
L 546.137241 176.44765 
L 547.288271 178.57581 
L 548.417962 180.715375 
L 549.526201 182.866129 
L 550.612878 185.027857 
L 551.677884 187.200345 
L 552.721111 189.383373 
L 553.742457 191.576724 
L 554.741818 193.78018 
L 555.719096 195.993518 
L 556.674191 198.216518 
L 557.607009 200.448958 
L 558.517457 202.690614 
L 559.405442 204.941263 
L 560.270877 207.200678 
L 561.113676 209.468635 
L 561.933752 211.744907 
L 562.731026 214.029265 
L 563.505416 216.321482 
L 564.256846 218.621327 
L 564.98524 220.928572 
L 565.690526 223.242986 
L 566.372633 225.564336 
L 567.031492 227.892391 
L 567.667039 230.226919 
L 568.279208 232.567685 
L 568.86794 234.914455 
L 569.433175 237.266996 
L 569.974857 239.625071 
L 570.492932 241.988445 
L 570.987347 244.356881 
L 571.458053 246.730143 
L 571.905004 249.107994 
L 572.328154 251.490195 
L 572.727462 253.876508 
L 573.102886 256.266695 
L 573.454391 258.660516 
L 573.78194 261.057733 
L 574.085501 263.458106 
L 574.365044 265.861394 
L 574.62054 268.267357 
L 574.851964 270.675755 
L 575.059292 273.086347 
L 575.242505 275.498891 
L 575.401584 277.913147 
L 575.536513 280.328873 
L 575.647278 282.745827 
L 575.733868 285.163768 
L 575.796275 287.582455 
L 575.834493 290.001644 
L 575.848517 292.421094 
L 575.848594 292.613766 
L 575.848594 292.613766 
Q 333.898472 292.613766 91.94835 292.613766 
L 91.94835 292.613766 
L 91.94835 292.613766 
L 91.960447 290.194305 
L 91.996738 287.775086 
L 92.057219 285.356351 
L 92.141884 282.938341 
L 92.250725 280.5213 
L 92.38373 278.105467 
L 92.540886 275.691085 
L 92.722178 273.278396 
L 92.927587 270.86764 
L 93.157093 268.459058 
L 93.410673 266.052892 
L 93.688301 263.649382 
L 93.989951 261.248769 
L 94.315591 258.851292 
L 94.665189 256.457191 
L 95.03871 254.066706 
L 95.436117 251.680076 
L 95.85737 249.297539 
L 96.302428 246.919333 
L 96.771244 244.545697 
L 97.263773 242.176867 
L 97.779965 239.813082 
L 98.319769 237.454576 
L 98.88313 235.101586 
L 99.469993 232.754348 
L 100.080299 230.413095 
L 100.713986 228.078062 
L 101.370991 225.749483 
L 102.051249 223.42759 
L 102.754692 221.112616 
L 103.481249 218.804791 
L 104.230847 216.504348 
L 105.003412 214.211515 
L 105.798866 211.926523 
L 106.61713 209.649599 
L 107.458121 207.380972 
L 108.321757 205.120868 
L 109.20795 202.869513 
L 110.116612 200.627132 
L 111.047652 198.39395 
L 112.000977 196.17019 
L 112.976491 193.956074 
L 113.974098 191.751824 
L 114.993697 189.55766 
L 116.035186 187.373802 
L 117.098461 185.200467 
L 118.183416 183.037874 
L 119.289942 180.886238 
L 120.417929 178.745775 
L 121.567264 176.616698 
L 122.737832 174.499221 
L 123.929516 172.393556 
L 125.142196 170.299912 
L 126.375752 168.2185 
L 127.63006 166.149527 
L 128.904995 164.0932 
L 130.200428 162.049726 
L 131.516232 160.019307 
L 132.852273 158.002148 
L 134.208419 155.99845 
L 135.584534 154.008414 
L 136.98048 152.032238 
L 138.396118 150.07012 
L 139.831305 148.122256 
L 141.2859 146.188841 
L 142.759755 144.270069 
L 144.252724 142.36613 
L 145.764658 140.477217 
L 147.295405 138.603517 
L 148.844811 136.745218 
L 150.412724 134.902505 
L 151.998984 133.075564 
L 153.603434 131.264576 
L 155.225914 129.469723 
L 156.866261 127.691185 
L 158.524311 125.929138 
L 160.199898 124.18376 
L 161.892855 122.455224 
L 163.603012 120.743705 
L 165.330199 119.049372 
L 167.074242 117.372396 
L 168.834968 115.712943 
L 170.612199 114.07118 
L 172.40576 112.447272 
L 174.215469 110.84138 
L 176.041147 109.253665 
L 177.88261 107.684286 
L 179.739675 106.1334 
L 181.612155 104.601162 
L 183.499864 103.087724 
L 185.402613 101.59324 
L 187.320211 100.117857 
L 189.252467 98.661723 
L 191.199187 97.224985 
L 193.160177 95.807785 
L 195.135241 94.410266 
L 197.124181 93.032567 
L 199.126799 91.674826 
L 201.142893 90.337178 
L 203.172263 89.019758 
L 205.214706 87.722698 
L 207.270016 86.446126 
L 209.33799 85.190171 
L 211.418419 83.954958 
L 213.511096 82.74061 
L 215.615812 81.54725 
L 217.732356 80.374997 
L 219.860517 79.223967 
L 222.000081 78.094276 
L 224.150835 76.986036 
L 226.312564 75.899359 
L 228.485051 74.834354 
L 230.668079 73.791126 
L 232.861431 72.769781 
L 235.064886 71.770419 
L 237.278224 70.793142 
L 239.501224 69.838046 
L 241.733664 68.905228 
L 243.97532 67.994781 
L 246.225969 67.106795 
L 248.485385 66.24136 
L 250.753342 65.398562 
L 253.029613 64.578485 
L 255.313971 63.781212 
L 257.606188 63.006821 
L 259.906034 62.255391 
L 262.213279 61.526997 
L 264.527692 60.821711 
L 266.849042 60.139605 
L 269.177098 59.480745 
L 271.511625 58.845199 
L 273.852391 58.233029 
L 276.199162 57.644297 
L 278.551702 57.079062 
L 280.909777 56.53738 
L 283.273151 56.019306 
L 285.641588 55.524891 
L 288.01485 55.054184 
L 290.3927 54.607234 
L 292.774901 54.184083 
L 295.161214 53.784776 
L 297.551401 53.409351 
L 299.945223 53.057847 
L 302.34244 52.730297 
L 304.742812 52.426736 
L 307.1461 52.147194 
L 309.552063 51.891698 
L 311.960461 51.660274 
L 314.371053 51.452945 
L 316.783597 51.269732 
L 319.197853 51.110653 
L 321.613579 50.975725 
L 324.030533 50.864959 
L 326.448475 50.778369 
L 328.867161 50.715962 
L 331.28635 50.677745 
L 333.705801 50.66372 
L 333.898472 50.663644 
L 333.898472 50.663644 
Q 333.898472 292.613766 333.898472 50.663644 
z
" clip-path="url(#p3375d5cb97)" style="fill: #000080; fill-opacity: 0.5; stroke: #808080; stroke-opacity: 0.5; stroke-width: 0.1"/>
   </g>
   <g id="patch_5">
    <path d="M 333.898472 50.663644 
L 336.317933 50.675741 
L 338.737152 50.712032 
L 341.155887 50.772513 
L 343.573896 50.857178 
L 345.990938 50.966018 
L 348.406771 51.099023 
L 350.821152 51.25618 
L 353.233842 51.437471 
L 355.644598 51.64288 
L 358.053179 51.872387 
L 360.459345 52.125967 
L 362.862855 52.403595 
L 365.263468 52.705245 
L 367.660945 53.030885 
L 370.055046 53.380483 
L 372.445531 53.754004 
L 374.832162 54.151411 
L 377.214699 54.572664 
L 379.592905 55.017721 
L 381.966541 55.486538 
L 384.33537 55.979067 
L 386.699156 56.495259 
L 389.057661 57.035063 
L 391.410651 57.598424 
L 393.75789 58.185287 
L 396.099143 58.795593 
L 398.434175 59.42928 
L 400.762755 60.086285 
L 403.084648 60.766543 
L 405.399622 61.469986 
L 407.707446 62.196542 
L 410.00789 62.946141 
L 412.300722 63.718705 
L 414.585714 64.514159 
L 416.862638 65.332423 
L 419.131266 66.173415 
L 421.39137 67.037051 
L 423.642725 67.923244 
L 425.885105 68.831906 
L 428.118287 69.762946 
L 430.342047 70.716271 
L 432.556163 71.691785 
L 434.760413 72.689392 
L 436.954577 73.70899 
L 439.138436 74.750479 
L 441.31177 75.813755 
L 443.474364 76.89871 
L 445.626 78.005236 
L 447.766463 79.133223 
L 449.895539 80.282558 
L 452.013016 81.453126 
L 454.118682 82.644809 
L 456.212325 83.85749 
L 458.293738 85.091046 
L 460.362711 86.345354 
L 462.419037 87.620288 
L 464.462512 88.915722 
L 466.49293 90.231526 
L 468.510089 91.567567 
L 470.513787 92.923713 
L 472.503824 94.299828 
L 474.48 95.695774 
L 476.442118 97.111412 
L 478.389982 98.546599 
L 480.323396 100.001194 
L 482.242169 101.475049 
L 484.146107 102.968018 
L 486.035021 104.479952 
L 487.908721 106.010698 
L 489.76702 107.560105 
L 491.609732 109.128017 
L 493.436674 110.714278 
L 495.247661 112.318728 
L 497.042514 113.941208 
L 498.821053 115.581555 
L 500.583099 117.239604 
L 502.328478 118.915192 
L 504.057013 120.608148 
L 505.768533 122.318306 
L 507.462865 124.045492 
L 509.139842 125.789536 
L 510.799294 127.550261 
L 512.441057 129.327493 
L 514.064966 131.121054 
L 515.670857 132.930763 
L 517.258572 134.756441 
L 518.827951 136.597904 
L 520.378838 138.454969 
L 521.911076 140.327449 
L 523.424513 142.215158 
L 524.918998 144.117907 
L 526.394381 146.035505 
L 527.850514 147.967761 
L 529.287253 149.914481 
L 530.704452 151.875471 
L 532.101972 153.850535 
L 533.479671 155.839475 
L 534.837412 157.842093 
L 536.175059 159.858187 
L 537.492479 161.887557 
L 538.78954 163.929999 
L 540.066112 165.98531 
L 541.322067 168.053283 
L 542.55728 170.133713 
L 543.771627 172.22639 
L 544.964987 174.331106 
L 546.137241 176.44765 
L 547.288271 178.57581 
L 548.417962 180.715375 
L 549.526201 182.866129 
L 550.612878 185.027857 
L 551.677884 187.200345 
L 552.721111 189.383373 
L 553.742457 191.576724 
L 554.741818 193.78018 
L 555.719096 195.993518 
L 556.674191 198.216518 
L 557.607009 200.448958 
L 558.517457 202.690614 
L 559.405442 204.941263 
L 560.270877 207.200678 
L 561.113676 209.468635 
L 561.933752 211.744907 
L 562.731026 214.029265 
L 563.505416 216.321482 
L 564.256846 218.621327 
L 564.98524 220.928572 
L 565.690526 223.242986 
L 566.372633 225.564336 
L 567.031492 227.892391 
L 567.667039 230.226919 
L 568.279208 232.567685 
L 568.86794 234.914455 
L 569.433175 237.266996 
L 569.974857 239.625071 
L 570.492932 241.988445 
L 570.987347 244.356881 
L 571.458053 246.730143 
L 571.905004 249.107994 
L 572.328154 251.490195 
L 572.727462 253.876508 
L 573.102886 256.266695 
L 573.454391 258.660516 
L 573.78194 261.057733 
L 574.085501 263.458106 
L 574.365044 265.861394 
L 574.62054 268.267357 
L 574.851964 270.675755 
L 575.059292 273.086347 
L 575.242505 275.498891 
L 575.401584 277.913147 
L 575.536513 280.328873 
L 575.647278 282.745827 
L 575.733868 285.163768 
L 575.796275 287.582455 
L 575.834493 290.001644 
L 575.848517 292.421094 
L 575.848594 292.613766 
L 578.292534 292.613766 
L 578.292457 292.419148 
L 578.278291 289.975259 
L 578.239688 287.531633 
L 578.17665 285.088516 
L 578.089185 282.646151 
L 577.977301 280.204783 
L 577.84101 277.764656 
L 577.680324 275.326014 
L 577.49526 272.8891 
L 577.285837 270.454159 
L 577.052076 268.021434 
L 576.793999 265.591168 
L 576.511633 263.163604 
L 576.205005 260.738986 
L 575.874148 258.317554 
L 575.519093 255.899553 
L 575.139876 253.485223 
L 574.736535 251.074805 
L 574.30911 248.668542 
L 573.857645 246.266672 
L 573.382184 243.869438 
L 572.882775 241.477078 
L 572.359467 239.089832 
L 571.812314 236.707938 
L 571.241369 234.331634 
L 570.646691 231.961159 
L 570.028337 229.596749 
L 569.386371 227.23864 
L 568.720857 224.887069 
L 568.03186 222.542271 
L 567.31945 220.204479 
L 566.583698 217.873929 
L 565.824678 215.550852 
L 565.042466 213.235482 
L 564.237139 210.92805 
L 563.408779 208.628786 
L 562.557467 206.33792 
L 561.683291 204.055682 
L 560.786335 201.7823 
L 559.866691 199.518 
L 558.924451 197.263011 
L 557.959708 195.017556 
L 556.972559 192.78186 
L 555.963103 190.556148 
L 554.931441 188.340642 
L 553.877676 186.135563 
L 552.801912 183.941131 
L 551.704259 181.757567 
L 550.584825 179.585088 
L 549.443723 177.423912 
L 548.281067 175.274255 
L 547.096972 173.136331 
L 545.891558 171.010356 
L 544.664944 168.89654 
L 543.417255 166.795097 
L 542.148613 164.706235 
L 540.859147 162.630163 
L 539.548984 160.56709 
L 538.218257 158.517222 
L 536.867098 156.480763 
L 535.495642 154.457917 
L 534.104027 152.448886 
L 532.692392 150.453872 
L 531.260877 148.473074 
L 529.809626 146.50669 
L 528.338784 144.554916 
L 526.848498 142.617949 
L 525.338918 140.69598 
L 523.810193 138.789203 
L 522.262478 136.897809 
L 520.695926 135.021986 
L 519.110695 133.161922 
L 517.506942 131.317803 
L 515.884829 129.489814 
L 514.244518 127.678137 
L 512.586171 125.882953 
L 510.909957 124.104443 
L 509.216041 122.342783 
L 507.504594 120.59815 
L 505.775786 118.870718 
L 504.029791 117.160661 
L 502.266783 115.468148 
L 500.486938 113.79335 
L 498.690434 112.136435 
L 496.877451 110.497566 
L 495.048171 108.876909 
L 493.202775 107.274626 
L 491.34145 105.690876 
L 489.46438 104.125819 
L 487.571753 102.57961 
L 485.66376 101.052404 
L 483.74059 99.544355 
L 481.802436 98.055612 
L 479.849492 96.586325 
L 477.881953 95.13664 
L 475.900015 93.706703 
L 473.903878 92.296657 
L 471.89374 90.906642 
L 469.869802 89.536797 
L 467.832268 88.18726 
L 465.781341 86.858166 
L 463.717225 85.549647 
L 461.640127 84.261834 
L 459.550256 82.994857 
L 457.447819 81.748841 
L 455.333027 80.523911 
L 453.206092 79.32019 
L 451.067227 78.137798 
L 448.916645 76.976854 
L 446.754561 75.837473 
L 444.581191 74.71977 
L 442.396753 73.623856 
L 440.201466 72.54984 
L 437.995548 71.497831 
L 435.779221 70.467933 
L 433.552706 69.46025 
L 431.316225 68.474882 
L 429.070003 67.511927 
L 426.814263 66.571483 
L 424.549232 65.653643 
L 422.275136 64.758498 
L 419.992203 63.886139 
L 417.70066 63.036652 
L 415.400737 62.210123 
L 413.092664 61.406634 
L 410.776672 60.626266 
L 408.452991 59.869096 
L 406.121856 59.1352 
L 403.783498 58.424652 
L 401.438152 57.737523 
L 399.086051 57.073881 
L 396.727432 56.433793 
L 394.362531 55.817323 
L 391.991582 55.224532 
L 389.614825 54.65548 
L 387.232496 54.110223 
L 384.844834 53.588817 
L 382.452077 53.091313 
L 380.054464 52.617761 
L 377.652237 52.168209 
L 375.245633 51.742701 
L 372.834896 51.341279 
L 370.420264 50.963985 
L 368.001981 50.610856 
L 365.580287 50.281926 
L 363.155425 49.97723 
L 360.727637 49.696797 
L 358.297166 49.440655 
L 355.864256 49.208831 
L 353.429149 49.001347 
L 350.992088 48.818224 
L 348.553319 48.65948 
L 346.113084 48.525132 
L 343.671628 48.415192 
L 341.229194 48.329672 
L 338.786027 48.26858 
L 336.342372 48.231923 
L 333.898472 48.219703 
L 333.898472 50.663644 
z
" clip-path="url(#p3375d5cb97)" style="fill: none; stroke: #000000; stroke-width: 0.5; stroke-linejoin: miter"/>
   </g>
   <g id="patch_6">
    <path d="M 575.848594 292.613766 
L 575.836496 295.033227 
L 575.800205 297.452445 
L 575.739724 299.871181 
L 575.655059 302.28919 
L 575.546219 304.706232 
L 575.413214 307.122064 
L 575.256058 309.536446 
L 575.074766 311.949136 
L 574.869357 314.359892 
L 574.639851 316.768473 
L 574.386271 319.174639 
L 574.108642 321.578149 
L 573.806993 323.978762 
L 573.481353 326.376239 
L 573.131755 328.77034 
L 572.758233 331.160825 
L 572.360826 333.547456 
L 571.939573 335.929993 
L 571.494516 338.308198 
L 571.0257 340.681834 
L 570.533171 343.050664 
L 570.016979 345.41445 
L 569.477175 347.772955 
L 568.913813 350.125945 
L 568.32695 352.473184 
L 567.716645 354.814436 
L 567.082958 357.149469 
L 566.425952 359.478048 
L 565.745694 361.799941 
L 565.042252 364.114916 
L 564.315695 366.42274 
L 563.566097 368.723183 
L 562.793532 371.016016 
L 561.998078 373.301008 
L 561.179814 375.577932 
L 560.338822 377.846559 
L 559.475187 380.106663 
L 558.588994 382.358018 
L 557.680332 384.600399 
L 556.749292 386.833581 
L 555.795967 389.057341 
L 554.820452 391.271457 
L 553.822846 393.475707 
L 552.803247 395.669871 
L 551.761758 397.85373 
L 550.698483 400.027064 
L 549.613528 402.189658 
L 548.507002 404.341293 
L 547.379015 406.481757 
L 546.22968 408.610833 
L 545.059112 410.72831 
L 543.867428 412.833976 
L 542.654748 414.927619 
L 541.421192 417.009031 
L 540.166884 419.078004 
L 538.891949 421.134331 
L 537.596515 423.177806 
L 536.280712 425.208224 
L 534.94467 427.225383 
L 533.588524 429.229081 
L 532.21241 431.219117 
L 530.816464 433.195294 
L 529.400826 435.157412 
L 527.965638 437.105275 
L 526.511044 439.03869 
L 525.037189 440.957463 
L 523.544219 442.861401 
L 522.032286 444.750314 
L 520.501539 446.624014 
L 518.952132 448.482314 
L 517.38422 450.325026 
L 515.79796 452.151967 
L 514.193509 453.962955 
L 512.57103 455.757808 
L 510.930683 457.536347 
L 509.272633 459.298393 
L 507.597046 461.043771 
L 505.904089 462.772307 
L 504.193932 464.483826 
L 502.466745 466.178159 
L 500.722702 467.855136 
L 498.961976 469.514588 
L 497.184744 471.156351 
L 495.391184 472.780259 
L 493.581474 474.386151 
L 491.755797 475.973866 
L 489.914334 477.543245 
L 488.057269 479.094131 
L 486.184788 480.62637 
L 484.297079 482.139807 
L 482.394331 483.634292 
L 480.476733 485.109675 
L 478.544477 486.565808 
L 476.597756 488.002546 
L 474.636766 489.419746 
L 472.661702 490.817265 
L 470.672762 492.194965 
L 468.670145 493.552706 
L 466.654051 494.890353 
L 464.624681 496.207773 
L 462.582238 497.504834 
L 460.526928 498.781405 
L 458.458954 500.037361 
L 456.378525 501.272574 
L 454.285848 502.486921 
L 452.181132 503.680281 
L 450.064588 504.852535 
L 447.936427 506.003564 
L 445.796863 507.133256 
L 443.646109 508.241495 
L 441.48438 509.328172 
L 439.311893 510.393177 
L 437.128864 511.436405 
L 434.935513 512.457751 
L 432.732058 513.457112 
L 430.51872 514.43439 
L 428.295719 515.389485 
L 426.06328 516.322303 
L 423.821623 517.23275 
L 421.570975 518.120736 
L 419.311559 518.986171 
L 417.043602 519.828969 
L 414.767331 520.649046 
L 412.482972 521.44632 
L 410.190756 522.22071 
L 407.89091 522.97214 
L 405.583665 523.700534 
L 403.269252 524.40582 
L 400.947901 525.087927 
L 398.619846 525.746786 
L 396.285319 526.382332 
L 393.944553 526.994502 
L 391.597782 527.583234 
L 389.245242 528.148469 
L 386.887167 528.690151 
L 384.523793 529.208225 
L 382.155356 529.702641 
L 379.782094 530.173347 
L 377.404244 530.620298 
L 375.022043 531.043448 
L 372.63573 531.442755 
L 370.245543 531.81818 
L 367.851721 532.169685 
L 365.454504 532.497234 
L 363.054132 532.800795 
L 360.650844 533.080337 
L 358.24488 533.335833 
L 355.836482 533.567257 
L 353.425891 533.774586 
L 351.013346 533.957799 
L 348.599091 534.116878 
L 346.183365 534.251807 
L 343.76641 534.362572 
L 341.348469 534.449162 
L 338.929783 534.511569 
L 336.510594 534.549787 
L 334.091143 534.563811 
L 333.898472 534.563887 
L 333.898472 537.007828 
L 334.093089 537.007751 
L 336.536979 536.993585 
L 338.980604 536.954981 
L 341.423722 536.891944 
L 343.866086 536.804479 
L 346.307455 536.692595 
L 348.747582 536.556303 
L 351.186224 536.395618 
L 353.623137 536.210554 
L 356.058079 536.001131 
L 358.490804 535.767369 
L 360.92107 535.509293 
L 363.348633 535.226926 
L 365.773252 534.920299 
L 368.194683 534.589441 
L 370.612685 534.234386 
L 373.027015 533.855169 
L 375.437432 533.451829 
L 377.843696 533.024404 
L 380.245565 532.572939 
L 382.642799 532.097478 
L 385.035159 531.598068 
L 387.422406 531.074761 
L 389.8043 530.527608 
L 392.180603 529.956663 
L 394.551079 529.361984 
L 396.915489 528.743631 
L 399.273597 528.101665 
L 401.625168 527.43615 
L 403.969967 526.747154 
L 406.307758 526.034744 
L 408.638308 525.298992 
L 410.961385 524.539972 
L 413.276755 523.757759 
L 415.584188 522.952433 
L 417.883452 522.124072 
L 420.174317 521.272761 
L 422.456556 520.398584 
L 424.729938 519.501629 
L 426.994237 518.581985 
L 429.249227 517.639745 
L 431.494682 516.675002 
L 433.730377 515.687853 
L 435.956089 514.678397 
L 438.171596 513.646735 
L 440.376675 512.592969 
L 442.571106 511.517206 
L 444.754671 510.419553 
L 446.92715 509.300119 
L 449.088326 508.159017 
L 451.237983 506.99636 
L 453.375906 505.812266 
L 455.501882 504.606852 
L 457.615697 503.380238 
L 459.717141 502.132548 
L 461.806003 500.863907 
L 463.882074 499.57444 
L 465.945147 498.264278 
L 467.995016 496.933551 
L 470.031475 495.582392 
L 472.054321 494.210936 
L 474.063351 492.819321 
L 476.058365 491.407685 
L 478.039163 489.97617 
L 480.005548 488.52492 
L 481.957321 487.054078 
L 483.894289 485.563792 
L 485.816257 484.054211 
L 487.723034 482.525487 
L 489.614428 480.977771 
L 491.490251 479.41122 
L 493.350315 477.825988 
L 495.194434 476.222236 
L 497.022423 474.600123 
L 498.834101 472.959811 
L 500.629284 471.301465 
L 502.407795 469.625251 
L 504.169455 467.931335 
L 505.914088 466.219888 
L 507.64152 464.49108 
L 509.351577 462.745085 
L 511.044089 460.982076 
L 512.718887 459.202231 
L 514.375803 457.405728 
L 516.014671 455.592745 
L 517.635328 453.763464 
L 519.237612 451.918069 
L 520.821361 450.056743 
L 522.386419 448.179674 
L 523.932627 446.287047 
L 525.459833 444.379054 
L 526.967883 442.455884 
L 528.456625 440.51773 
L 529.925913 438.564786 
L 531.375597 436.597246 
L 532.805534 434.615309 
L 534.215581 432.619171 
L 535.605596 430.609034 
L 536.97544 428.585096 
L 538.324977 426.547562 
L 539.654071 424.496634 
L 540.96259 422.432518 
L 542.250403 420.355421 
L 543.517381 418.265549 
L 544.763397 416.163113 
L 545.988327 414.048321 
L 547.192048 411.921386 
L 548.374439 409.782521 
L 549.535384 407.631938 
L 550.674764 405.469854 
L 551.792468 403.296485 
L 552.888382 401.112047 
L 553.962397 398.91676 
L 555.014406 396.710842 
L 556.044304 394.494515 
L 557.051987 392.267999 
L 558.037356 390.031519 
L 559.00031 387.785296 
L 559.940754 385.529557 
L 560.858595 383.264526 
L 561.753739 380.99043 
L 562.626099 378.707497 
L 563.475585 376.415954 
L 564.302115 374.116031 
L 565.105604 371.807958 
L 565.885972 369.491965 
L 566.643142 367.168285 
L 567.377038 364.837149 
L 568.087585 362.498792 
L 568.774715 360.153445 
L 569.438357 357.801345 
L 570.078445 355.442726 
L 570.694915 353.077824 
L 571.287706 350.706876 
L 571.856758 348.330119 
L 572.402014 345.94779 
L 572.92342 343.560127 
L 573.420924 341.16737 
L 573.894476 338.769758 
L 574.344029 336.36753 
L 574.769537 333.960927 
L 575.170958 331.550189 
L 575.548252 329.135558 
L 575.901382 326.717274 
L 576.230311 324.29558 
L 576.535008 321.870718 
L 576.815441 319.442931 
L 577.071582 317.01246 
L 577.303406 314.579549 
L 577.51089 312.144442 
L 577.694013 309.707382 
L 577.852757 307.268613 
L 577.987105 304.828378 
L 578.097045 302.386921 
L 578.182565 299.944488 
L 578.243657 297.501321 
L 578.280315 295.057666 
L 578.292534 292.613766 
L 575.848594 292.613766 
z
" clip-path="url(#p3375d5cb97)" style="fill: none; stroke: #000000; stroke-width: 0.5; stroke-linejoin: miter"/>
   </g>
   <g id="patch_7">
    <path d="M 333.898472 534.563887 
L 331.479011 534.55179 
L 329.059792 534.515499 
L 326.641057 534.455018 
L 324.223048 534.370353 
L 321.806006 534.261513 
L 319.390173 534.128508 
L 316.975791 533.971352 
L 314.563102 533.79006 
L 312.152346 533.584651 
L 309.743765 533.355145 
L 307.337599 533.101565 
L 304.934089 532.823936 
L 302.533475 532.522287 
L 300.135998 532.196647 
L 297.741898 531.847048 
L 295.351412 531.473527 
L 292.964782 531.07612 
L 290.582245 530.654867 
L 288.204039 530.20981 
L 285.830403 529.740994 
L 283.461574 529.248465 
L 281.097788 528.732272 
L 278.739282 528.192469 
L 276.386292 527.629107 
L 274.039054 527.042244 
L 271.697801 526.431939 
L 269.362768 525.798251 
L 267.034189 525.141246 
L 264.712296 524.460988 
L 262.397322 523.757546 
L 260.089498 523.030989 
L 257.789054 522.281391 
L 255.496222 521.508826 
L 253.211229 520.713372 
L 250.934306 519.895108 
L 248.665678 519.054116 
L 246.405574 518.190481 
L 244.154219 517.304287 
L 241.911839 516.395625 
L 239.678656 515.464585 
L 237.454896 514.51126 
L 235.240781 513.535746 
L 233.03653 512.53814 
L 230.842366 511.518541 
L 228.658508 510.477052 
L 226.485173 509.413777 
L 224.32258 508.328822 
L 222.170944 507.222295 
L 220.030481 506.094308 
L 217.901404 504.944973 
L 215.783927 503.774406 
L 213.678262 502.582722 
L 211.584618 501.370041 
L 209.503206 500.136486 
L 207.434233 498.882178 
L 205.377907 497.607243 
L 203.334432 496.311809 
L 201.304014 494.996006 
L 199.286855 493.659964 
L 197.283157 492.303818 
L 195.29312 490.927703 
L 193.316944 489.531757 
L 191.354826 488.11612 
L 189.406962 486.680932 
L 187.473547 485.226338 
L 185.554775 483.752482 
L 183.650837 482.259513 
L 181.761923 480.74758 
L 179.888223 479.216833 
L 178.029924 477.667426 
L 176.187212 476.099514 
L 174.36027 474.513253 
L 172.549282 472.908803 
L 170.754429 471.286323 
L 168.975891 469.645977 
L 167.213844 467.987927 
L 165.468466 466.31234 
L 163.739931 464.619383 
L 162.028411 462.909226 
L 160.334078 461.182039 
L 158.657102 459.437996 
L 156.997649 457.67727 
L 155.355887 455.900038 
L 153.731978 454.106478 
L 152.126086 452.296768 
L 150.538371 450.471091 
L 148.968992 448.629627 
L 147.418106 446.772563 
L 145.885868 444.900082 
L 144.372431 443.012373 
L 142.877946 441.109625 
L 141.402563 439.192026 
L 139.946429 437.259771 
L 138.509691 435.31305 
L 137.092491 433.35206 
L 135.694972 431.376996 
L 134.317273 429.388056 
L 132.959532 427.385439 
L 131.621884 425.369344 
L 130.304465 423.339974 
L 129.007404 421.297532 
L 127.730832 419.242221 
L 126.474877 417.174248 
L 125.239664 415.093819 
L 124.025317 413.001141 
L 122.831957 410.896425 
L 121.659703 408.779881 
L 120.508673 406.651721 
L 119.378982 404.512157 
L 118.270742 402.361402 
L 117.184066 400.199674 
L 116.11906 398.027187 
L 115.075832 395.844158 
L 114.054487 393.650807 
L 113.055125 391.447352 
L 112.077848 389.234013 
L 111.122753 387.011013 
L 110.189934 384.778573 
L 109.279487 382.536917 
L 108.391501 380.286268 
L 107.526066 378.026853 
L 106.683268 375.758896 
L 105.863191 373.482624 
L 105.065918 371.198266 
L 104.291528 368.90605 
L 103.540098 366.606204 
L 102.811703 364.298959 
L 102.106418 361.984546 
L 101.424311 359.663195 
L 100.765451 357.33514 
L 100.129905 355.000612 
L 99.517735 352.659846 
L 98.929003 350.313076 
L 98.363768 347.960535 
L 97.822087 345.60246 
L 97.304012 343.239086 
L 96.809597 340.87065 
L 96.338891 338.497388 
L 95.89194 336.119537 
L 95.46879 333.737337 
L 95.069482 331.351023 
L 94.694057 328.960836 
L 94.342553 326.567015 
L 94.015004 324.169798 
L 93.711443 321.769425 
L 93.4319 319.366137 
L 93.176404 316.960174 
L 92.94498 314.551776 
L 92.737651 312.141185 
L 92.554438 309.72864 
L 92.39536 307.314384 
L 92.260431 304.898658 
L 92.149666 302.481704 
L 92.063075 300.063763 
L 92.000668 297.645077 
L 91.962451 295.225887 
L 91.948427 292.806437 
L 91.958597 290.386967 
L 91.992962 287.96772 
L 92.051517 285.548938 
L 92.134256 283.130862 
L 92.241172 280.713734 
L 92.372253 278.297796 
L 92.527486 275.88329 
L 92.706857 273.470457 
L 92.910346 271.059538 
L 93.137934 268.650775 
L 93.389598 266.244408 
L 93.665312 263.840677 
L 93.96505 261.439825 
L 94.288781 259.042089 
L 94.636472 256.647711 
L 95.00809 254.256929 
L 95.403596 251.869983 
L 95.822952 249.487111 
L 96.266115 247.108552 
L 96.733041 244.734543 
L 97.223684 242.365322 
L 97.737993 240.001126 
L 98.275919 237.642191 
L 98.837407 235.288753 
L 99.4224 232.941048 
L 100.030841 230.59931 
L 100.662668 228.263774 
L 101.317819 225.934672 
L 101.996228 223.612238 
L 102.697827 221.296704 
L 103.422546 218.988302 
L 104.170312 216.687263 
L 104.94105 214.393816 
L 105.734685 212.10819 
L 106.551135 209.830616 
L 107.39032 207.561319 
L 108.252156 205.300528 
L 109.136556 203.048468 
L 110.043432 200.805365 
L 110.972693 198.571442 
L 111.924247 196.346924 
L 112.897998 194.132032 
L 113.893849 191.926988 
L 114.9117 189.732013 
L 115.951449 187.547325 
L 117.012994 185.373145 
L 118.096226 183.209688 
L 119.201039 181.057172 
L 120.327321 178.915811 
L 121.47496 176.78582 
L 122.643841 174.667412 
L 123.833848 172.560798 
L 125.04486 170.466189 
L 126.276758 168.383795 
L 127.529418 166.313824 
L 128.802715 164.256483 
L 130.096521 162.211977 
L 131.410707 160.180512 
L 132.745142 158.162289 
L 134.099692 156.157512 
L 135.474222 154.16638 
L 136.868594 152.189093 
L 138.282668 150.225849 
L 139.716305 148.276842 
L 141.169359 146.34227 
L 142.641686 144.422324 
L 144.133138 142.517198 
L 145.643567 140.627081 
L 147.172821 138.752163 
L 148.720748 136.89263 
L 150.287192 135.04867 
L 151.871997 133.220466 
L 153.475005 131.408201 
L 155.096055 129.612057 
L 156.734985 127.832212 
L 158.391631 126.068846 
L 160.065828 124.322134 
L 161.757407 122.592251 
L 163.466201 120.87937 
L 165.192038 119.183662 
L 166.934746 117.505298 
L 168.694149 115.844444 
L 170.470073 114.201266 
L 172.26234 112.57593 
L 174.07077 110.968598 
L 175.895182 109.379429 
L 177.735395 107.808584 
L 179.591224 106.25622 
L 181.462484 104.722491 
L 183.348987 103.207551 
L 185.250545 101.711551 
L 187.166968 100.234642 
L 189.098064 98.77697 
L 191.043639 97.338682 
L 193.0035 95.919921 
L 194.977451 94.52083 
L 196.965293 93.141547 
L 198.966828 91.782212 
L 200.981857 90.442959 
L 203.010177 89.123924 
L 205.051586 87.825237 
L 207.10588 86.547029 
L 209.172852 85.289427 
L 211.252297 84.052558 
L 213.344007 82.836545 
L 215.447772 81.641509 
L 217.563382 80.46757 
L 219.690625 79.314846 
L 221.829289 78.183451 
L 223.97916 77.0735 
L 226.140022 75.985102 
L 228.311661 74.918367 
L 230.493858 73.873401 
L 232.686395 72.850309 
L 234.889054 71.849193 
L 237.101613 70.870153 
L 239.323852 69.913288 
L 241.555548 68.978692 
L 243.796479 68.06646 
L 246.04642 67.176683 
L 248.305145 66.309449 
L 250.57243 65.464845 
L 252.848048 64.642955 
L 255.131771 63.843863 
L 257.42337 63.067648 
L 259.722617 62.314387 
L 262.029281 61.584155 
L 264.343132 60.877027 
L 266.663938 60.193072 
L 268.991468 59.532359 
L 271.325489 58.894953 
L 273.665766 58.28092 
L 276.012068 57.690319 
L 278.364157 57.123211 
L 280.7218 56.579651 
L 283.084761 56.059695 
L 285.452803 55.563394 
L 287.825689 55.090798 
L 290.203183 54.641954 
L 292.585046 54.216907 
L 294.971041 53.815699 
L 297.360928 53.438371 
L 299.754469 53.08496 
L 302.151424 52.755502 
L 304.551554 52.45003 
L 306.954619 52.168574 
L 309.360378 51.911162 
L 311.768591 51.67782 
L 314.179016 51.468572 
L 316.591414 51.283438 
L 319.005542 51.122436 
L 321.42116 50.985584 
L 323.838026 50.872894 
L 326.255897 50.784378 
L 328.674533 50.720045 
L 331.093691 50.679901 
L 333.513129 50.663951 
L 333.898472 50.663644 
L 333.898472 48.219703 
L 333.509237 48.220013 
L 331.06536 48.236125 
L 328.621766 48.276674 
L 326.178699 48.341657 
L 323.736405 48.431067 
L 321.295127 48.544895 
L 318.855109 48.68313 
L 316.416595 48.845758 
L 313.97983 49.032762 
L 311.545056 49.244124 
L 309.112518 49.479823 
L 306.682459 49.739835 
L 304.255121 50.024134 
L 301.830747 50.332692 
L 299.40958 50.665478 
L 296.991862 51.022458 
L 294.577834 51.403597 
L 292.167739 51.808858 
L 289.761816 52.238198 
L 287.360307 52.691576 
L 284.963452 53.168946 
L 282.571491 53.67026 
L 280.184662 54.195468 
L 277.803204 54.744518 
L 275.427356 55.317355 
L 273.057355 55.913921 
L 270.693438 56.534157 
L 268.335842 57.178001 
L 265.984802 57.845388 
L 263.640553 58.536252 
L 261.303329 59.250523 
L 258.973365 59.98813 
L 256.650894 60.749 
L 254.336147 61.533056 
L 252.029357 62.34022 
L 249.730753 63.170411 
L 247.440566 64.023546 
L 245.159025 64.89954 
L 242.886358 65.798306 
L 240.622792 66.719752 
L 238.368553 67.663788 
L 236.123867 68.630319 
L 233.888959 69.619248 
L 231.664051 70.630476 
L 229.449367 71.663902 
L 227.245127 72.719423 
L 225.051553 73.796933 
L 222.868864 74.896325 
L 220.697277 76.017489 
L 218.53701 77.160311 
L 216.38828 78.324679 
L 214.2513 79.510476 
L 212.126285 80.717583 
L 210.013447 81.945879 
L 207.912997 83.195242 
L 205.825146 84.465547 
L 203.750102 85.756666 
L 201.688073 87.068471 
L 199.639265 88.40083 
L 197.603883 89.75361 
L 195.58213 91.126676 
L 193.574208 92.519891 
L 191.580319 93.933115 
L 189.600661 95.366206 
L 187.635433 96.819023 
L 185.684832 98.291418 
L 183.749051 99.783246 
L 181.828285 101.294357 
L 179.922727 102.824599 
L 178.032565 104.37382 
L 176.157991 105.941865 
L 174.29919 107.528577 
L 172.456348 109.133798 
L 170.629651 110.757366 
L 168.819281 112.39912 
L 167.025419 114.058895 
L 165.248243 115.736525 
L 163.487933 117.431843 
L 161.744663 119.144679 
L 160.018609 120.874862 
L 158.309942 122.622219 
L 156.618835 124.386574 
L 154.945455 126.167752 
L 153.28997 127.965575 
L 151.652546 129.779862 
L 150.033346 131.610433 
L 148.432533 133.457103 
L 146.850266 135.31969 
L 145.286704 137.198005 
L 143.742002 139.091862 
L 142.216317 141.001071 
L 140.709799 142.925441 
L 139.2226 144.86478 
L 137.754869 146.818894 
L 136.306751 148.787587 
L 134.878393 150.770662 
L 133.469936 152.767922 
L 132.081523 154.779166 
L 130.71329 156.804194 
L 129.365376 158.842802 
L 128.037916 160.894787 
L 126.731041 162.959945 
L 125.444883 165.038067 
L 124.179569 167.128947 
L 122.935228 169.232375 
L 121.711983 171.348141 
L 120.509956 173.476034 
L 119.329268 175.615841 
L 118.170036 177.767347 
L 117.032378 179.930337 
L 115.916405 182.104596 
L 114.822231 184.289906 
L 113.749964 186.486048 
L 112.699712 188.692803 
L 111.67158 190.90995 
L 110.66567 193.137267 
L 109.682083 195.374531 
L 108.720917 197.62152 
L 107.78227 199.878007 
L 106.866233 202.143768 
L 105.9729 204.418576 
L 105.102359 206.702204 
L 104.254697 208.994422 
L 103.43 211.295003 
L 102.628349 213.603715 
L 101.849825 215.920328 
L 101.094506 218.244611 
L 100.362467 220.57633 
L 99.653781 222.915253 
L 98.96852 225.261146 
L 98.306751 227.613774 
L 97.668542 229.972902 
L 97.053955 232.338293 
L 96.463052 234.709713 
L 95.895893 237.086923 
L 95.352534 239.469685 
L 94.833029 241.857762 
L 94.337431 244.250914 
L 93.865788 246.648903 
L 93.418149 249.051488 
L 92.994557 251.458429 
L 92.595056 253.869486 
L 92.219685 256.284417 
L 91.868481 258.702981 
L 91.54148 261.124936 
L 91.238715 263.55004 
L 90.960215 265.97805 
L 90.706009 268.408724 
L 90.476123 270.841819 
L 90.270578 273.27709 
L 90.089396 275.714295 
L 89.932594 278.15319 
L 89.800189 280.593532 
L 89.692193 283.035075 
L 89.608618 285.477576 
L 89.549472 287.92079 
L 89.51476 290.364474 
L 89.504487 292.808383 
L 89.518653 295.252273 
L 89.557256 297.695898 
L 89.620294 300.139015 
L 89.707759 302.58138 
L 89.819643 305.022748 
L 89.955934 307.462875 
L 90.11662 309.901518 
L 90.301683 312.338431 
L 90.511107 314.773372 
L 90.744868 317.206097 
L 91.002945 319.636363 
L 91.285311 322.063927 
L 91.591938 324.488546 
L 91.922796 326.909977 
L 92.277851 329.327979 
L 92.657068 331.742309 
L 93.060409 334.152726 
L 93.487833 336.55899 
L 93.939299 338.960859 
L 94.41476 341.358093 
L 94.914169 343.750453 
L 95.437477 346.1377 
L 95.98463 348.519594 
L 96.555575 350.895897 
L 97.150253 353.266372 
L 97.768606 355.630783 
L 98.410572 357.988891 
L 99.076087 360.340462 
L 99.765084 362.68526 
L 100.477494 365.023052 
L 101.213245 367.353602 
L 101.972266 369.676679 
L 102.754478 371.992049 
L 103.559805 374.299482 
L 104.388165 376.598746 
L 105.239476 378.889611 
L 106.113653 381.171849 
L 107.010608 383.445232 
L 107.930252 385.709531 
L 108.872493 387.964521 
L 109.837236 390.209976 
L 110.824384 392.445671 
L 111.83384 394.671383 
L 112.865503 396.886889 
L 113.919268 399.091969 
L 114.995031 401.2864 
L 116.092685 403.469964 
L 117.212118 405.642443 
L 118.35322 407.803619 
L 119.515877 409.953276 
L 120.699972 412.0912 
L 121.905386 414.217175 
L 123.131999 416.330991 
L 124.379689 418.432435 
L 125.648331 420.521297 
L 126.937797 422.597368 
L 128.247959 424.660441 
L 129.578687 426.71031 
L 130.929846 428.746769 
L 132.301301 430.769615 
L 133.692917 432.778645 
L 135.104552 434.773659 
L 136.536067 436.754457 
L 137.987318 438.720841 
L 139.45816 440.672615 
L 140.948446 442.609583 
L 142.458026 444.531551 
L 143.986751 446.438328 
L 145.534466 448.329722 
L 147.101018 450.205545 
L 148.686249 452.065609 
L 150.290002 453.909728 
L 151.912115 455.737717 
L 153.552426 457.549394 
L 155.210772 459.344578 
L 156.886987 461.123089 
L 158.580903 462.884749 
L 160.29235 464.629382 
L 162.021158 466.356813 
L 163.767153 468.066871 
L 165.530161 469.759383 
L 167.310006 471.434181 
L 169.10651 473.091097 
L 170.919493 474.729965 
L 172.748773 476.350622 
L 174.594169 477.952905 
L 176.455494 479.536655 
L 178.332564 481.101712 
L 180.22519 482.647921 
L 182.133184 484.175127 
L 184.056354 485.683176 
L 185.994508 487.171919 
L 187.947452 488.641206 
L 189.914991 490.090891 
L 191.896929 491.520828 
L 193.893066 492.930875 
L 195.903204 494.320889 
L 197.927141 495.690734 
L 199.964676 497.040271 
L 202.015603 498.369365 
L 204.079719 499.677884 
L 206.156817 500.965697 
L 208.246688 502.232675 
L 210.349125 503.478691 
L 212.463916 504.70362 
L 214.590851 505.907341 
L 216.729717 507.089733 
L 218.880299 508.250677 
L 221.042383 509.390058 
L 223.215753 510.507762 
L 225.40019 511.603676 
L 227.595478 512.677691 
L 229.801396 513.7297 
L 232.017723 514.759598 
L 234.244238 515.767281 
L 236.480719 516.752649 
L 238.726941 517.715604 
L 240.982681 518.656048 
L 243.247711 519.573889 
L 245.521807 520.469033 
L 247.804741 521.341392 
L 250.096284 522.190879 
L 252.396207 523.017408 
L 254.70428 523.820897 
L 257.020272 524.601266 
L 259.343952 525.358436 
L 261.675088 526.092331 
L 264.013446 526.802879 
L 266.358792 527.490008 
L 268.710892 528.15365 
L 271.069511 528.793738 
L 273.434413 529.410209 
L 275.805361 530.002999 
L 278.182119 530.572051 
L 280.564448 531.117308 
L 282.95211 531.638714 
L 285.344867 532.136218 
L 287.742479 532.60977 
L 290.144707 533.059323 
L 292.55131 533.484831 
L 294.962048 533.886252 
L 297.37668 534.263546 
L 299.794963 534.616676 
L 302.216657 534.945605 
L 304.641519 535.250301 
L 307.069307 535.530734 
L 309.499778 535.786876 
L 311.932688 536.0187 
L 314.367795 536.226184 
L 316.804855 536.409307 
L 319.243625 536.568051 
L 321.68386 536.702399 
L 324.125316 536.812339 
L 326.56775 536.897859 
L 329.010916 536.958951 
L 331.454572 536.995609 
L 333.898472 537.007828 
L 333.898472 534.563887 
z
" clip-path="url(#p3375d5cb97)" style="fill: none; stroke: #000000; stroke-width: 0.5; stroke-linejoin: miter"/>
   </g>
   <g id="text_1">
    <text style="font: 3px 'DejaVu Sans', 'Bitstream Vera Sans', 'Computer Modern Sans Serif', 'Lucida Grande', 'Verdana', 'Geneva', 'Lucid', 'Arial', 'Helvetica', 'Avant Garde', sans-serif; text-anchor: start" x="509.28766" y="118.921302" transform="rotate(-45 509.28766 118.921302)">Escuela Militar de Ingeniera</text>
   </g>
   <g id="text_2">
    <text style="font: 3px 'DejaVu Sans', 'Bitstream Vera Sans', 'Computer Modern Sans Serif', 'Lucida Grande', 'Verdana', 'Geneva', 'Lucid', 'Arial', 'Helvetica', 'Avant Garde', sans-serif; text-anchor: start" x="507.633362" y="467.960527" transform="rotate(-315 507.633362 467.960527)">Universidad Pblica de El Alto</text>
   </g>
   <g id="text_3">
    <text style="font: 3px 'DejaVu Sans', 'Bitstream Vera Sans', 'Computer Modern Sans Serif', 'Lucida Grande', 'Verdana', 'Geneva', 'Lucid', 'Arial', 'Helvetica', 'Avant Garde', sans-serif; text-anchor: end" x="87.060469" y="293.753531" transform="rotate(-0 87.060469 293.753531)">Universidad San Francisco de Ass</text>
   </g>
  </g>
 </g>
 <defs>
  <clipPath id="p3375d5cb97">
   <path d="M 590.512237 292.613766 
C 590.512237 258.915555 583.874425 225.545016 570.978678 194.411929 
C 558.082931 163.278842 539.180039 134.988665 515.351806 111.160432 
C 491.523572 87.332198 463.233396 68.429307 432.100308 55.53356 
C 400.967221 42.637813 367.596683 36 333.898472 36 
C 300.200261 36 266.829723 42.637813 235.696635 55.53356 
C 204.563548 68.429307 176.273372 87.332198 152.445138 111.160432 
C 128.616905 134.988665 109.714013 163.278842 96.818266 194.411929 
C 83.922519 225.545016 77.284706 258.915555 77.284706 292.613766 
C 77.284706 326.311977 83.922519 359.682515 96.818266 390.815602 
C 109.714013 421.94869 128.616905 450.238866 152.445138 474.067099 
C 176.273372 497.895333 204.563548 516.798224 235.696635 529.693971 
C 266.829723 542.589718 300.200261 549.227531 333.898472 549.227531 
C 367.596683 549.227531 400.967221 542.589718 432.100308 529.693971 
C 463.233396 516.798224 491.523572 497.895333 515.351806 474.067099 
C 539.180039 450.238866 558.082931 421.94869 570.978678 390.815602 
C 583.874425 359.682515 590.512237 326.311977 590.512237 292.613766 
M 333.898472 292.613766 
C 333.898472 292.613766 333.898472 292.613766 333.898472 292.613766 
C 333.898472 292.613766 333.898472 292.613766 333.898472 292.613766 
C 333.898472 292.613766 333.898472 292.613766 333.898472 292.613766 
C 333.898472 292.613766 333.898472 292.613766 333.898472 292.613766 
C 333.898472 292.613766 333.898472 292.613766 333.898472 292.613766 
C 333.898472 292.613766 333.898472 292.613766 333.898472 292.613766 
C 333.898472 292.613766 333.898472 292.613766 333.898472 292.613766 
C 333.898472 292.613766 333.898472 292.613766 333.898472 292.613766 
C 333.898472 292.613766 333.898472 292.613766 333.898472 292.613766 
C 333.898472 292.613766 333.898472 292.613766 333.898472 292.613766 
C 333.898472 292.613766 333.898472 292.613766 333.898472 292.613766 
C 333.898472 292.613766 333.898472 292.613766 333.898472 292.613766 
C 333.898472 292.613766 333.898472 292.613766 333.898472 292.613766 
C 333.898472 292.613766 333.898472 292.613766 333.898472 292.613766 
C 333.898472 292.613766 333.898472 292.613766 333.898472 292.613766 
C 333.898472 292.613766 333.898472 292.613766 333.898472 292.613766 
z
"/>
  </clipPath>
 </defs>
</svg>
