<?xml version="1.0" encoding="utf-8" standalone="no"?>
<!DOCTYPE svg PUBLIC "-//W3C//DTD SVG 1.1//EN"
  "http://www.w3.org/Graphics/SVG/1.1/DTD/svg11.dtd">
<svg xmlns:xlink="http://www.w3.org/1999/xlink" width="574.861557pt" height="625.586375pt" viewBox="0 0 574.861557 625.586375" xmlns="http://www.w3.org/2000/svg" version="1.1">
 <metadata>
  <rdf:RDF xmlns:dc="http://purl.org/dc/elements/1.1/" xmlns:cc="http://creativecommons.org/ns#" xmlns:rdf="http://www.w3.org/1999/02/22-rdf-syntax-ns#">
   <cc:Work>
    <dc:type rdf:resource="http://purl.org/dc/dcmitype/StillImage"/>
    <dc:date>2024-11-16T04:00:12.021695</dc:date>
    <dc:format>image/svg+xml</dc:format>
    <dc:creator>
     <cc:Agent>
      <dc:title>Matplotlib v3.8.4, https://matplotlib.org/</dc:title>
     </cc:Agent>
    </dc:creator>
   </cc:Work>
  </rdf:RDF>
 </metadata>
 <defs>
  <style type="text/css">*{stroke-linejoin: round; stroke-linecap: butt}</style>
 </defs>
 <g id="figure_1">
  <g id="patch_1">
   <path d="M 0 625.586375 
L 574.861557 625.586375 
L 574.861557 0 
L 0 0 
z
" style="fill: #ffffff"/>
  </g>
  <g id="axes_1">
   <g id="patch_2">
    <path d="M 287.242582 123.695023 
L 289.503488 123.706328 
L 291.764168 123.740241 
L 294.024395 123.796758 
L 296.283944 123.875875 
L 298.542589 123.977582 
L 300.800104 124.101871 
L 303.056264 124.248728 
L 305.310842 124.41814 
L 307.563613 124.610088 
L 309.814352 124.824553 
L 312.062834 125.061515 
L 314.308834 125.32095 
L 316.552127 125.602831 
L 318.79249 125.907131 
L 321.029697 126.233819 
L 323.263526 126.582862 
L 325.493753 126.954226 
L 327.720154 127.347873 
L 329.942508 127.763764 
L 332.160592 128.201857 
L 334.374184 128.662109 
L 336.583063 129.144474 
L 338.787008 129.648902 
L 340.985799 130.175345 
L 341.350498 130.264914 
L 341.897042 128.047495 
L 341.52866 127.957022 
L 339.307659 127.425261 
L 337.081452 126.915737 
L 334.850261 126.428501 
L 332.614309 125.9636 
L 330.373821 125.521081 
L 328.129019 125.100989 
L 325.880128 124.703366 
L 323.627374 124.328251 
L 321.370981 123.975682 
L 319.111176 123.645695 
L 316.848183 123.338321 
L 314.582231 123.053592 
L 312.313544 122.791537 
L 310.04235 122.552182 
L 307.768876 122.33555 
L 305.49335 122.141663 
L 303.215998 121.97054 
L 300.937049 121.8222 
L 298.656731 121.696655 
L 296.375271 121.59392 
L 294.092898 121.514005 
L 291.80984 121.456916 
L 289.526326 121.422661 
L 287.242582 121.411242 
z
" clip-path="url(#pbccd7b6cc0)" style="fill: #000080"/>
   </g>
   <g id="patch_3">
    <path d="M 341.350498 130.264914 
L 343.543 130.81696 
L 345.729873 131.390903 
L 347.910897 131.986686 
L 350.085854 132.604249 
L 352.254526 133.243531 
L 354.416698 133.904467 
L 356.572152 134.586991 
L 358.720673 135.291035 
L 360.862047 136.016529 
L 362.996059 136.7634 
L 365.122495 137.531573 
L 367.241144 138.320972 
L 369.351792 139.131518 
L 371.45423 139.963129 
L 373.548247 140.815723 
L 375.633633 141.689213 
L 377.71018 142.583514 
L 379.777681 143.498535 
L 381.835928 144.434185 
L 383.884716 145.390371 
L 385.92384 146.366996 
L 387.953095 147.363963 
L 389.97228 148.381172 
L 391.981192 149.418523 
L 393.97963 150.47591 
L 395.967394 151.553228 
L 397.944286 152.65037 
L 399.910108 153.767225 
L 401.864664 154.903683 
L 403.807757 156.059628 
L 405.739194 157.234947 
L 407.658781 158.429521 
L 409.566327 159.643231 
L 411.46164 160.875955 
L 413.344532 162.127571 
L 415.214813 163.397952 
L 417.072297 164.686973 
L 418.916799 165.994503 
L 420.748133 167.320413 
L 422.566117 168.66457 
L 424.370569 170.026839 
L 426.161308 171.407084 
L 427.938155 172.805167 
L 429.700932 174.220948 
L 431.449464 175.654286 
L 433.183576 177.105038 
L 434.903093 178.573058 
L 436.607845 180.058199 
L 438.29766 181.560313 
L 439.972369 183.07925 
L 441.631806 184.614858 
L 443.275804 186.166983 
L 444.904199 187.73547 
L 446.516828 189.320163 
L 448.113529 190.920902 
L 449.694144 192.537528 
L 451.258514 194.169879 
L 452.806482 195.817792 
L 454.337894 197.481102 
L 455.852596 199.159643 
L 457.350438 200.853246 
L 458.831269 202.561743 
L 460.294941 204.284963 
L 461.741308 206.022733 
L 463.170225 207.774879 
L 464.58155 209.541227 
L 465.975141 211.321599 
L 467.350859 213.115818 
L 468.708566 214.923705 
L 470.048127 216.745078 
L 471.369408 218.579755 
L 472.672275 220.427553 
L 473.9566 222.288287 
L 475.222254 224.161771 
L 476.46911 226.047818 
L 477.697044 227.946238 
L 478.905932 229.856843 
L 480.095654 231.779441 
L 481.266091 233.71384 
L 482.417126 235.659847 
L 483.548643 237.617266 
L 484.66053 239.585903 
L 485.752675 241.565559 
L 486.82497 243.556038 
L 487.877306 245.557141 
L 488.90958 247.568666 
L 489.921686 249.590413 
L 490.913525 251.62218 
L 491.884997 253.663764 
L 492.836005 255.714961 
L 493.766453 257.775564 
L 494.67625 259.845369 
L 495.565303 261.924168 
L 496.433524 264.011754 
L 497.280827 266.107918 
L 498.107125 268.212449 
L 498.912338 270.325138 
L 499.696383 272.445774 
L 500.459183 274.574143 
L 501.200662 276.710034 
L 501.920746 278.853234 
L 502.619361 281.003526 
L 503.296439 283.160697 
L 503.951912 285.324531 
L 504.585714 287.494812 
L 505.197782 289.671322 
L 505.788055 291.853843 
L 506.356473 294.042158 
L 506.90298 296.236048 
L 507.427521 298.435293 
L 507.930044 300.639673 
L 508.410499 302.848969 
L 508.868836 305.062958 
L 509.305012 307.28142 
L 509.718981 309.504132 
L 510.110703 311.730874 
L 510.480138 313.961421 
L 510.82725 316.19555 
L 511.152003 318.433039 
L 511.454365 320.673664 
L 511.734307 322.9172 
L 511.9918 325.163424 
L 512.226817 327.41211 
L 512.439337 329.663033 
L 512.629337 331.91597 
L 512.796799 334.170693 
L 512.941705 336.426979 
L 513.064042 338.684601 
L 513.163797 340.943333 
L 513.240959 343.20295 
L 513.295523 345.463225 
L 513.327481 347.723933 
L 513.33683 349.984848 
L 513.323571 352.245743 
L 513.287703 354.506392 
L 513.229232 356.76657 
L 513.148162 359.02605 
L 513.044501 361.284606 
L 512.91826 363.542013 
L 512.769452 365.798044 
L 512.598092 368.052475 
L 512.404196 370.305079 
L 512.187784 372.555632 
L 511.948878 374.803908 
L 511.687502 377.049683 
L 511.403681 379.292732 
L 511.097444 381.53283 
L 510.768822 383.769755 
L 510.417847 386.003281 
L 510.044555 388.233185 
L 509.648983 390.459246 
L 509.231171 392.681239 
L 508.79116 394.898944 
L 508.328994 397.112137 
L 507.84472 399.320598 
L 507.338386 401.524106 
L 506.810042 403.722441 
L 506.259742 405.915382 
L 505.687541 408.102711 
L 505.093495 410.284209 
L 504.477664 412.459657 
L 503.84011 414.628838 
L 503.180896 416.791535 
L 502.500088 418.947532 
L 501.797755 421.096613 
L 501.073967 423.238564 
L 500.328796 425.37317 
L 499.562316 427.500217 
L 498.774604 429.619494 
L 497.96574 431.730787 
L 497.135803 433.833887 
L 496.284877 435.928582 
L 495.413047 438.014663 
L 494.5204 440.091922 
L 493.607026 442.16015 
L 492.673015 444.219142 
L 491.718462 446.26869 
L 490.743461 448.308591 
L 489.74811 450.33864 
L 488.732509 452.358634 
L 487.696758 454.368371 
L 486.640963 456.367651 
L 485.565228 458.356273 
L 484.469661 460.334038 
L 483.354371 462.300748 
L 482.219471 464.256208 
L 481.065072 466.200221 
L 479.891292 468.132593 
L 478.698247 470.053131 
L 477.486057 471.961643 
L 476.254842 473.857937 
L 475.004726 475.741825 
L 473.735835 477.613118 
L 472.448294 479.471628 
L 471.142232 481.31717 
L 469.817781 483.14956 
L 468.475073 484.968613 
L 467.114241 486.774149 
L 465.735423 488.565986 
L 464.338755 490.343946 
L 462.924378 492.107851 
L 461.492432 493.857524 
L 460.043062 495.59279 
L 458.576412 497.313476 
L 457.092629 499.019409 
L 455.591861 500.71042 
L 454.074258 502.386339 
L 452.539972 504.046998 
L 450.989157 505.692231 
L 449.421967 507.321875 
L 447.838559 508.935765 
L 446.239092 510.533741 
L 444.623725 512.115642 
L 442.99262 513.681311 
L 441.34594 515.230591 
L 439.68385 516.763327 
L 438.006517 518.279366 
L 436.314106 519.778555 
L 434.606789 521.260746 
L 432.884736 522.72579 
L 431.148118 524.173541 
L 429.39711 525.603853 
L 427.631887 527.016584 
L 425.852625 528.411592 
L 424.059502 529.788739 
L 422.252697 531.147885 
L 420.432392 532.488896 
L 418.598767 533.811637 
L 416.752007 535.115976 
L 414.892297 536.401782 
L 413.019821 537.668928 
L 411.134768 538.917285 
L 409.237325 540.14673 
L 407.327684 541.357139 
L 405.406034 542.548392 
L 403.472567 543.720369 
L 401.527478 544.872953 
L 399.57096 546.006029 
L 397.60321 547.119483 
L 395.624424 548.213205 
L 393.634799 549.287084 
L 391.634535 550.341013 
L 389.623833 551.374888 
L 387.602892 552.388604 
L 385.571915 553.382061 
L 383.531106 554.355158 
L 381.480667 555.307799 
L 379.420805 556.239888 
L 377.351726 557.151333 
L 375.273635 558.042041 
L 373.186741 558.911925 
L 371.091253 559.760896 
L 368.987381 560.58887 
L 366.875333 561.395764 
L 364.755323 562.181499 
L 362.627561 562.945993 
L 360.492261 563.689173 
L 358.349636 564.410963 
L 356.199901 565.11129 
L 354.043269 565.790086 
L 351.879958 566.447282 
L 349.710183 567.082812 
L 347.534161 567.696613 
L 345.352111 568.288623 
L 343.164249 568.858784 
L 340.970795 569.407038 
L 338.771968 569.933331 
L 336.567989 570.437609 
L 334.359077 570.919822 
L 332.145453 571.379923 
L 329.927339 571.817865 
L 327.704957 572.233604 
L 325.478529 572.627099 
L 323.248277 572.99831 
L 321.014424 573.347201 
L 318.777194 573.673736 
L 316.536811 573.977882 
L 314.293498 574.25961 
L 312.047481 574.518892 
L 309.798983 574.7557 
L 307.548229 574.970012 
L 305.295444 575.161806 
L 303.040855 575.331063 
L 300.784686 575.477766 
L 298.527162 575.601901 
L 296.26851 575.703454 
L 294.008955 575.782416 
L 291.748724 575.838779 
L 289.488042 575.872538 
L 287.227136 575.883688 
L 284.966231 575.872229 
L 282.705554 575.838162 
L 280.44533 575.78149 
L 278.185786 575.702219 
L 275.927148 575.600357 
L 273.669642 575.475914 
L 271.413492 575.328902 
L 269.158926 575.159337 
L 266.906168 574.967235 
L 264.655443 574.752616 
L 262.406978 574.5155 
L 260.160995 574.255912 
L 257.917721 573.973877 
L 255.67738 573.669425 
L 253.440194 573.342584 
L 251.20639 572.993388 
L 248.976188 572.621872 
L 246.749813 572.228073 
L 244.527488 571.81203 
L 242.309434 571.373785 
L 240.095873 570.913382 
L 237.887027 570.430867 
L 235.683117 569.926288 
L 233.484362 569.399695 
L 233.134667 569.313798 
L 232.588122 571.531217 
L 232.94135 571.617981 
L 235.162314 572.149893 
L 237.388486 572.659569 
L 239.619644 573.146958 
L 241.855564 573.612012 
L 244.096022 574.054683 
L 246.340796 574.474929 
L 248.589659 574.872706 
L 250.842388 575.247974 
L 253.098756 575.600697 
L 255.358539 575.930839 
L 257.62151 576.238368 
L 259.887444 576.523251 
L 262.156113 576.785461 
L 264.42729 577.024972 
L 266.700749 577.241759 
L 268.976263 577.435802 
L 271.253602 577.60708 
L 273.532541 577.755576 
L 275.812851 577.881276 
L 278.094304 577.984167 
L 280.376671 578.064239 
L 282.659725 578.121483 
L 284.943237 578.155894 
L 287.22698 578.167469 
L 289.510724 578.156206 
L 291.794241 578.122107 
L 294.077302 578.065175 
L 296.359681 577.985415 
L 298.641148 577.882836 
L 300.921474 577.757447 
L 303.200433 577.609262 
L 305.477797 577.438296 
L 307.753336 577.244564 
L 310.026825 577.028087 
L 312.298035 576.788887 
L 314.56674 576.526987 
L 316.832712 576.242413 
L 319.095726 575.935194 
L 321.355554 575.605361 
L 323.61197 575.252946 
L 325.86475 574.877985 
L 328.113668 574.480515 
L 330.358499 574.060577 
L 332.599018 573.618211 
L 334.835001 573.153463 
L 337.066225 572.666379 
L 339.292467 572.157007 
L 341.513504 571.625399 
L 343.729114 571.071607 
L 345.939075 570.495687 
L 348.143167 569.897696 
L 350.341169 569.277695 
L 352.532861 568.635746 
L 354.718024 567.971912 
L 356.896439 567.286259 
L 359.067889 566.578858 
L 361.232157 565.849777 
L 363.389026 565.099091 
L 365.53828 564.326874 
L 367.679705 563.533203 
L 369.813086 562.718158 
L 371.93821 561.88182 
L 374.054864 561.024274 
L 376.162838 560.145604 
L 378.261919 559.245898 
L 380.351899 558.325247 
L 382.432567 557.383743 
L 384.503717 556.421479 
L 386.565141 555.438553 
L 388.616633 554.435061 
L 390.657987 553.411106 
L 392.689 552.366788 
L 394.709468 551.302212 
L 396.71919 550.217486 
L 398.717964 549.112717 
L 400.70559 547.988015 
L 402.681871 546.843494 
L 404.646607 545.679268 
L 406.599604 544.495453 
L 408.540665 543.292167 
L 410.469596 542.069532 
L 412.386204 540.827668 
L 414.290298 539.566701 
L 416.181688 538.286756 
L 418.060183 536.987962 
L 419.925597 535.670448 
L 421.777743 534.334346 
L 423.616436 532.979789 
L 425.441491 531.606914 
L 427.252726 530.215857 
L 429.049961 528.806758 
L 430.833015 527.379757 
L 432.601709 525.934997 
L 434.355869 524.472623 
L 436.095317 522.992781 
L 437.819879 521.495618 
L 439.529385 519.981285 
L 441.223661 518.449933 
L 442.90254 516.901715 
L 444.565853 515.336785 
L 446.213433 513.755302 
L 447.845117 512.157421 
L 449.46074 510.543304 
L 451.060142 508.913112 
L 452.643163 507.267008 
L 454.209643 505.605156 
L 455.759427 503.927722 
L 457.292359 502.234875 
L 458.808286 500.526783 
L 460.307057 498.803618 
L 461.788522 497.065552 
L 463.252532 495.312758 
L 464.698941 493.545411 
L 466.127605 491.76369 
L 467.538381 489.967771 
L 468.931127 488.157834 
L 470.305704 486.33406 
L 471.661975 484.496632 
L 472.999805 482.645734 
L 474.319059 480.78155 
L 475.619605 478.904267 
L 476.901314 477.014072 
L 478.164057 475.111155 
L 479.407708 473.195706 
L 480.632143 471.267917 
L 481.837239 469.32798 
L 483.022875 467.376089 
L 484.188934 465.412439 
L 485.335298 463.437227 
L 486.461854 461.450651 
L 487.568487 459.452908 
L 488.655088 457.444199 
L 489.721548 455.424725 
L 490.76776 453.394687 
L 491.79362 451.354289 
L 492.799025 449.303735 
L 493.783875 447.243229 
L 494.74807 445.172978 
L 495.691515 443.093188 
L 496.614116 441.004069 
L 497.515779 438.905828 
L 498.396415 436.798675 
L 499.255936 434.682821 
L 500.094256 432.558478 
L 500.911291 430.425859 
L 501.70696 428.285176 
L 502.481182 426.136643 
L 503.23388 423.980475 
L 503.964979 421.816889 
L 504.674407 419.6461 
L 505.362091 417.468325 
L 506.027963 415.283782 
L 506.671958 413.09269 
L 507.294009 410.895268 
L 507.894055 408.691735 
L 508.472037 406.482312 
L 509.027896 404.26722 
L 509.561576 402.04668 
L 510.073025 399.820914 
L 510.56219 397.590145 
L 511.029025 395.354596 
L 511.47348 393.114491 
L 511.895513 390.870053 
L 512.29508 388.621507 
L 512.672143 386.369078 
L 513.026663 384.112991 
L 513.358604 381.853472 
L 513.667934 379.590746 
L 513.954622 377.32504 
L 514.218639 375.056581 
L 514.459958 372.785595 
L 514.678556 370.512309 
L 514.87441 368.236951 
L 515.047502 365.959748 
L 515.197813 363.680928 
L 515.325328 361.40072 
L 515.430036 359.11935 
L 515.511925 356.837047 
L 515.570988 354.554039 
L 515.607217 352.270555 
L 515.620611 349.986822 
L 515.611166 347.70307 
L 515.578886 345.419527 
L 515.523771 343.13642 
L 515.445829 340.853979 
L 515.345067 338.572431 
L 515.221494 336.292005 
L 515.075124 334.012929 
L 514.905971 331.73543 
L 514.714052 329.459737 
L 514.499386 327.186077 
L 514.261994 324.914677 
L 514.0019 322.645764 
L 513.719131 320.379566 
L 513.413714 318.116309 
L 513.085681 315.856219 
L 512.735063 313.599522 
L 512.361896 311.346444 
L 511.966217 309.097211 
L 511.548067 306.852047 
L 511.107486 304.611176 
L 510.644518 302.374823 
L 510.159211 300.143212 
L 509.651612 297.916565 
L 509.121772 295.695105 
L 508.569745 293.479055 
L 507.995585 291.268636 
L 507.39935 289.064069 
L 506.781099 286.865574 
L 506.140895 284.673371 
L 505.478801 282.487681 
L 504.794884 280.30872 
L 504.089212 278.136707 
L 503.361855 275.97186 
L 502.612887 273.814394 
L 501.842381 271.664525 
L 501.050416 269.522469 
L 500.23707 267.38844 
L 499.402425 265.26265 
L 498.546564 263.145314 
L 497.669573 261.036641 
L 496.77154 258.936844 
L 495.852553 256.846132 
L 494.912706 254.764714 
L 493.952092 252.692799 
L 492.970807 250.630593 
L 491.96895 248.578303 
L 490.94662 246.536134 
L 489.90392 244.50429 
L 488.840954 242.482975 
L 487.757828 240.47239 
L 486.654651 238.472736 
L 485.531533 236.484215 
L 484.388586 234.507024 
L 483.225924 232.54136 
L 482.043665 230.587422 
L 480.841925 228.645404 
L 479.620826 226.7155 
L 478.380489 224.797903 
L 477.121039 222.892805 
L 475.842601 221.000397 
L 474.545303 219.120868 
L 473.229274 217.254405 
L 471.894648 215.401196 
L 470.541556 213.561425 
L 469.170135 211.735278 
L 467.780521 209.922935 
L 466.372853 208.124579 
L 464.947272 206.340389 
L 463.503921 204.570544 
L 462.042944 202.815221 
L 460.564488 201.074595 
L 459.068699 199.348841 
L 457.555727 197.63813 
L 456.025725 195.942635 
L 454.478844 194.262524 
L 452.91524 192.597965 
L 451.335069 190.949126 
L 449.738488 189.31617 
L 448.125659 187.699262 
L 446.496741 186.098562 
L 444.851897 184.514232 
L 443.191293 182.946429 
L 441.515094 181.39531 
L 439.823468 179.86103 
L 438.116585 178.343743 
L 436.394613 176.8436 
L 434.657727 175.360752 
L 432.906099 173.895346 
L 431.139906 172.44753 
L 429.359322 171.017448 
L 427.564527 169.605243 
L 425.7557 168.211056 
L 423.933021 166.835027 
L 422.096674 165.477293 
L 420.246842 164.13799 
L 418.383709 162.817252 
L 416.507462 161.515211 
L 414.618289 160.231997 
L 412.716378 158.967739 
L 410.80192 157.722563 
L 408.875106 156.496594 
L 406.936129 155.289953 
L 404.985183 154.102763 
L 403.022462 152.93514 
L 401.048164 151.787204 
L 399.062485 150.659067 
L 397.065625 149.550843 
L 395.057782 148.462642 
L 393.039158 147.394575 
L 391.009954 146.346746 
L 388.970373 145.319262 
L 386.92062 144.312224 
L 384.860899 143.325734 
L 382.791416 142.359891 
L 380.712379 141.41479 
L 378.623995 140.490526 
L 376.526472 139.587192 
L 374.420021 138.704878 
L 372.304853 137.843672 
L 370.181178 137.003661 
L 368.04921 136.184928 
L 365.909161 135.387555 
L 363.761245 134.611622 
L 361.605678 133.857207 
L 359.442674 133.124385 
L 357.272451 132.41323 
L 355.095224 131.723811 
L 352.911213 131.056199 
L 350.720634 130.410461 
L 348.523708 129.786659 
L 346.320653 129.184858 
L 344.111691 128.605118 
L 341.897042 128.047495 
z
" clip-path="url(#pbccd7b6cc0)" style="fill: #0080ff"/>
   </g>
   <g id="patch_4">
    <path d="M 233.134667 569.313798 
L 230.942165 568.761752 
L 228.755292 568.187808 
L 226.574268 567.592025 
L 224.399311 566.974462 
L 222.230639 566.335181 
L 220.068467 565.674245 
L 217.913013 564.991721 
L 215.764491 564.287677 
L 213.623118 563.562183 
L 211.489106 562.815312 
L 209.36267 562.047139 
L 207.244021 561.25774 
L 205.133373 560.447194 
L 203.030935 559.615583 
L 200.936918 558.762989 
L 198.851532 557.889498 
L 196.774985 556.995198 
L 194.707484 556.080177 
L 192.649237 555.144527 
L 190.600449 554.188341 
L 188.561325 553.211716 
L 186.53207 552.214749 
L 184.512885 551.197539 
L 182.503973 550.160189 
L 180.505535 549.102802 
L 178.517771 548.025484 
L 176.540879 546.928342 
L 174.575057 545.811487 
L 172.620501 544.675029 
L 170.677408 543.519083 
L 168.745971 542.343765 
L 166.826384 541.149191 
L 164.918838 539.935481 
L 163.023525 538.702757 
L 161.140633 537.451141 
L 159.270352 536.18076 
L 157.412867 534.891739 
L 155.568366 533.584209 
L 153.737032 532.258299 
L 151.919048 530.914142 
L 150.114596 529.551873 
L 148.323857 528.171628 
L 146.54701 526.773545 
L 144.784233 525.357763 
L 143.035701 523.924425 
L 141.301589 522.473674 
L 139.582072 521.005654 
L 137.87732 519.520513 
L 136.187505 518.018399 
L 134.512796 516.499462 
L 132.853359 514.963854 
L 131.209361 513.411729 
L 129.580966 511.843241 
L 127.968337 510.258549 
L 126.371635 508.65781 
L 124.791021 507.041184 
L 123.226651 505.408833 
L 121.678683 503.76092 
L 120.147271 502.09761 
L 118.632569 500.419069 
L 117.134727 498.725466 
L 115.653896 497.016969 
L 114.190224 495.293749 
L 112.743857 493.555979 
L 111.31494 491.803833 
L 109.903615 490.037485 
L 108.510024 488.257113 
L 107.134306 486.462893 
L 105.776599 484.655007 
L 104.437038 482.833634 
L 103.115757 480.998957 
L 101.812889 479.151159 
L 100.528564 477.290425 
L 99.262911 475.416941 
L 98.016055 473.530894 
L 96.788121 471.632474 
L 95.579233 469.721869 
L 94.389511 467.79927 
L 93.219074 465.864871 
L 92.068039 463.918865 
L 90.936522 461.961446 
L 89.824635 459.992809 
L 88.732489 458.013152 
L 87.660195 456.022673 
L 86.607858 454.021571 
L 85.575585 452.010046 
L 84.563479 449.988298 
L 83.57164 447.956531 
L 82.600168 445.914948 
L 81.64916 443.863751 
L 80.718711 441.803148 
L 79.808915 439.733343 
L 78.919862 437.654543 
L 78.05164 435.566958 
L 77.204338 433.470794 
L 76.37804 431.366263 
L 75.572827 429.253574 
L 74.788782 427.132938 
L 74.025981 425.004569 
L 73.284503 422.868677 
L 72.564419 420.725478 
L 71.865804 418.575186 
L 71.188726 416.418014 
L 70.533253 414.254181 
L 69.899451 412.0839 
L 69.287383 409.90739 
L 68.69711 407.724869 
L 68.128692 405.536554 
L 67.582185 403.342664 
L 67.057643 401.143419 
L 66.55512 398.939039 
L 66.074666 396.729743 
L 65.616328 394.515754 
L 65.180153 392.297292 
L 64.766184 390.074579 
L 64.374462 387.847838 
L 64.005027 385.617291 
L 63.657915 383.383162 
L 63.333162 381.145673 
L 63.030799 378.905048 
L 62.750858 376.661512 
L 62.493365 374.415288 
L 62.258347 372.166602 
L 62.045828 369.915678 
L 61.855828 367.662742 
L 61.688366 365.408018 
L 61.54346 363.151733 
L 61.421123 360.894111 
L 61.321368 358.635379 
L 61.244205 356.375762 
L 61.189642 354.115487 
L 61.157684 351.854779 
L 61.148334 349.593864 
L 61.161594 347.332969 
L 61.197461 345.07232 
L 61.255933 342.812142 
L 61.337003 340.552662 
L 61.440664 338.294106 
L 61.566905 336.036699 
L 61.715712 333.780668 
L 61.887073 331.526237 
L 62.080969 329.273632 
L 62.297381 327.02308 
L 62.536287 324.774803 
L 62.797663 322.529029 
L 63.081484 320.28598 
L 63.387721 318.045881 
L 63.716343 315.808957 
L 64.067318 313.575431 
L 64.44061 311.345526 
L 64.836181 309.119466 
L 65.253994 306.897472 
L 65.694005 304.679768 
L 66.15617 302.466575 
L 66.640445 300.258114 
L 67.146779 298.054606 
L 67.675122 295.856271 
L 68.225423 293.66333 
L 68.797624 291.476001 
L 69.39167 289.294503 
L 70.007501 287.119055 
L 70.645055 284.949874 
L 71.304269 282.787177 
L 71.985077 280.63118 
L 72.68741 278.482098 
L 73.411198 276.340148 
L 74.156369 274.205542 
L 74.922849 272.078494 
L 75.710561 269.959218 
L 76.519425 267.847925 
L 77.349362 265.744825 
L 78.200288 263.65013 
L 79.072118 261.564049 
L 79.964765 259.48679 
L 80.878139 257.418562 
L 81.81215 255.35957 
L 82.766703 253.310021 
L 83.741704 251.270121 
L 84.737055 249.240072 
L 85.752656 247.220078 
L 86.788406 245.21034 
L 87.844202 243.211061 
L 88.919937 241.222439 
L 90.015504 239.244674 
L 91.130794 237.277963 
L 92.265694 235.322504 
L 93.420092 233.378491 
L 94.593873 231.446119 
L 95.786918 229.525581 
L 96.999108 227.617069 
L 98.230323 225.720775 
L 99.480438 223.836887 
L 100.74933 221.965594 
L 102.036871 220.107084 
L 103.342932 218.261542 
L 104.667384 216.429152 
L 106.010092 214.610099 
L 107.370924 212.804563 
L 108.749742 211.012725 
L 110.14641 209.234766 
L 111.560787 207.470861 
L 112.992732 205.721188 
L 114.442102 203.985922 
L 115.908752 202.265236 
L 117.392536 200.559303 
L 118.893304 198.868292 
L 120.410907 197.192373 
L 121.945193 195.531714 
L 123.496008 193.88648 
L 125.063198 192.256837 
L 126.646606 190.642947 
L 128.246073 189.044971 
L 129.86144 187.46307 
L 131.492545 185.897401 
L 133.139225 184.348121 
L 134.801314 182.815385 
L 136.478648 181.299346 
L 137.314308 180.555318 
L 135.799881 178.845883 
L 134.95578 179.597427 
L 133.261504 181.128779 
L 131.582625 182.676997 
L 129.919312 184.241926 
L 128.271732 185.82341 
L 126.640048 187.42129 
L 125.024424 189.035407 
L 123.425023 190.6656 
L 121.842002 192.311704 
L 120.275522 193.973556 
L 118.725738 195.65099 
L 117.192806 197.343837 
L 115.676879 199.051928 
L 114.178108 200.775094 
L 112.696643 202.51316 
L 111.232633 204.265954 
L 109.786224 206.0333 
L 108.35756 207.815022 
L 106.946784 209.610941 
L 105.554038 211.420878 
L 104.179461 213.244652 
L 102.82319 215.08208 
L 101.48536 216.932978 
L 100.166106 218.797162 
L 98.86556 220.674445 
L 97.583851 222.56464 
L 96.321108 224.467557 
L 95.077457 226.383006 
L 93.853022 228.310795 
L 92.647926 230.250732 
L 91.46229 232.202623 
L 90.296231 234.166273 
L 89.149866 236.141485 
L 88.023311 238.128061 
L 86.916678 240.125804 
L 85.830077 242.134513 
L 84.763617 244.153987 
L 83.717405 246.184024 
L 82.691545 248.224422 
L 81.68614 250.274977 
L 80.70129 252.335483 
L 79.737095 254.405734 
L 78.79365 256.485523 
L 77.871049 258.574643 
L 76.969386 260.672884 
L 76.088749 262.780037 
L 75.229228 264.89589 
L 74.390908 267.020233 
L 73.573874 269.152853 
L 72.778205 271.293536 
L 72.003983 273.442069 
L 71.251285 275.598237 
L 70.520186 277.761823 
L 69.810758 279.932612 
L 69.123074 282.110387 
L 68.457202 284.29493 
L 67.813207 286.486022 
L 67.191156 288.683444 
L 66.591109 290.886977 
L 66.013128 293.0964 
L 65.457269 295.311492 
L 64.923589 297.532032 
L 64.41214 299.757798 
L 63.922974 301.988567 
L 63.45614 304.224116 
L 63.011685 306.464221 
L 62.589652 308.708659 
L 62.190085 310.957205 
L 61.813022 313.209634 
L 61.458502 315.465721 
L 61.126561 317.72524 
L 60.817231 319.987966 
L 60.530543 322.253672 
L 60.266526 324.522131 
L 60.025207 326.793117 
L 59.806609 329.066403 
L 59.610755 331.341761 
L 59.437663 333.618964 
L 59.287352 335.897783 
L 59.159836 338.177992 
L 59.055129 340.459362 
L 58.97324 342.741665 
L 58.914177 345.024673 
L 58.877948 347.308157 
L 58.864554 349.59189 
L 58.873998 351.875642 
L 58.906279 354.159185 
L 58.961394 356.442292 
L 59.039336 358.724733 
L 59.140098 361.00628 
L 59.26367 363.286706 
L 59.410041 365.565783 
L 59.579194 367.843281 
L 59.771113 370.118975 
L 59.985779 372.392635 
L 60.223171 374.664035 
L 60.483265 376.932947 
L 60.766034 379.199146 
L 61.071451 381.462403 
L 61.399484 383.722493 
L 61.750102 385.97919 
L 62.123269 388.232267 
L 62.518947 390.481501 
L 62.937098 392.726665 
L 63.377679 394.967536 
L 63.840647 397.203889 
L 64.325954 399.4355 
L 64.833553 401.662147 
L 65.363393 403.883606 
L 65.91542 406.099657 
L 66.48958 408.310076 
L 67.085815 410.514643 
L 67.704065 412.713138 
L 68.34427 414.90534 
L 69.006363 417.091031 
L 69.690281 419.269992 
L 70.395953 421.442005 
L 71.12331 423.606852 
L 71.872278 425.764318 
L 72.642784 427.914187 
L 73.434749 430.056243 
L 74.248095 432.190272 
L 75.08274 434.316061 
L 75.938601 436.433398 
L 76.815592 438.542071 
L 77.713625 440.641868 
L 78.632612 442.73258 
L 79.572459 444.813998 
L 80.533073 446.885913 
L 81.514358 448.948119 
L 82.516215 451.000409 
L 83.538545 453.042578 
L 84.581245 455.074422 
L 85.644211 457.095737 
L 86.727337 459.106322 
L 87.830514 461.105975 
L 88.953632 463.094497 
L 90.096579 465.071688 
L 91.25924 467.037351 
L 92.4415 468.99129 
L 93.643239 470.933308 
L 94.864339 472.863212 
L 96.104675 474.780809 
L 97.364126 476.685907 
L 98.642564 478.578315 
L 99.939862 480.457844 
L 101.25589 482.324307 
L 102.590517 484.177516 
L 103.943609 486.017286 
L 105.31503 487.843434 
L 106.704644 489.655777 
L 108.112312 491.454133 
L 109.537893 493.238322 
L 110.981244 495.008167 
L 112.442221 496.76349 
L 113.920677 498.504116 
L 115.416466 500.229871 
L 116.929437 501.940581 
L 118.45944 503.636077 
L 120.006321 505.316188 
L 121.569925 506.980746 
L 123.150096 508.629586 
L 124.746676 510.262541 
L 126.359506 511.87945 
L 127.988424 513.480149 
L 129.633268 515.06448 
L 131.293872 516.632283 
L 132.97007 518.183402 
L 134.661696 519.717682 
L 136.36858 521.234969 
L 138.090552 522.735112 
L 139.827438 524.21796 
L 141.579065 525.683365 
L 143.345259 527.131182 
L 145.125843 528.561264 
L 146.920638 529.973469 
L 148.729465 531.367656 
L 150.552143 532.743685 
L 152.388491 534.101419 
L 154.238323 535.440722 
L 156.101456 536.76146 
L 157.977703 538.063501 
L 159.866876 539.346715 
L 161.768787 540.610973 
L 163.683245 541.856149 
L 165.610059 543.082118 
L 167.549036 544.288759 
L 169.499982 545.475949 
L 171.462702 546.643571 
L 173.437001 547.791508 
L 175.42268 548.919645 
L 177.41954 550.027869 
L 179.427383 551.116069 
L 181.446007 552.184137 
L 183.475211 553.231966 
L 185.514792 554.25945 
L 187.564545 555.266487 
L 189.624266 556.252977 
L 191.693749 557.218821 
L 193.772786 558.163922 
L 195.86117 559.088186 
L 197.958693 559.99152 
L 200.065144 560.873834 
L 202.180312 561.73504 
L 204.303987 562.575051 
L 206.435955 563.393784 
L 208.576004 564.191157 
L 210.72392 564.967089 
L 212.879487 565.721505 
L 215.042491 566.454327 
L 217.212714 567.165482 
L 219.389941 567.854901 
L 221.573952 568.522512 
L 223.764531 569.168251 
L 225.961457 569.792052 
L 228.164511 570.393853 
L 230.373474 570.973594 
L 232.588122 571.531217 
z
" clip-path="url(#pbccd7b6cc0)" style="fill: #7dff7a"/>
   </g>
   <g id="patch_5">
    <path d="M 137.314308 180.555318 
L 139.014116 179.064522 
L 140.728747 177.590798 
L 142.45803 176.134294 
L 144.201791 174.695155 
L 145.959856 173.273526 
L 147.732049 171.869548 
L 149.518192 170.483362 
L 151.318109 169.115106 
L 153.131617 167.764917 
L 154.958537 166.432931 
L 156.798685 165.119281 
L 158.651877 163.824097 
L 160.517928 162.547509 
L 162.396651 161.289646 
L 164.287859 160.050632 
L 166.191362 158.830593 
L 168.106971 157.629648 
L 170.034493 156.44792 
L 171.973735 155.285526 
L 173.924504 154.142581 
L 175.886605 153.019202 
L 177.859842 151.915499 
L 179.844017 150.831583 
L 181.838931 149.767564 
L 182.171307 149.592767 
L 181.109981 147.570579 
L 180.774248 147.747141 
L 178.759183 148.821909 
L 176.754966 149.916773 
L 174.761797 151.031625 
L 172.779877 152.166351 
L 170.809403 153.32084 
L 168.850572 154.494976 
L 166.903581 155.688641 
L 164.968623 156.901716 
L 163.045892 158.13408 
L 161.135581 159.385609 
L 159.237881 160.656178 
L 157.352981 161.94566 
L 155.481069 163.253926 
L 153.622334 164.580846 
L 151.776961 165.926287 
L 149.945134 167.290114 
L 148.127037 168.67219 
L 146.322851 170.072378 
L 144.532757 171.490538 
L 142.756934 172.926527 
L 140.99556 174.380202 
L 139.24881 175.851419 
L 137.516859 177.340029 
L 135.799881 178.845883 
z
" clip-path="url(#pbccd7b6cc0)" style="fill: #ff9400"/>
   </g>
   <g id="patch_6">
    <path d="M 182.171307 149.592767 
L 184.178493 148.552081 
L 186.195985 147.531519 
L 188.223582 146.531183 
L 190.261081 145.551172 
L 192.308278 144.591585 
L 194.364968 143.652518 
L 196.430946 142.734064 
L 198.506005 141.836316 
L 200.589938 140.959362 
L 202.682535 140.103292 
L 204.783589 139.268189 
L 206.892888 138.454139 
L 209.010223 137.661222 
L 211.13538 136.889518 
L 213.268149 136.139104 
L 215.408314 135.410054 
L 217.555663 134.702442 
L 219.709981 134.016339 
L 221.871052 133.351813 
L 224.03866 132.70893 
L 226.212588 132.087755 
L 228.392619 131.48835 
L 230.578535 130.910776 
L 232.770118 130.355088 
L 234.967147 129.821344 
L 237.169405 129.309597 
L 239.376669 128.819898 
L 241.58872 128.352295 
L 243.805336 127.906836 
L 246.026296 127.483564 
L 248.251378 127.082524 
L 250.480359 126.703753 
L 252.713016 126.347291 
L 254.949126 126.013173 
L 257.188465 125.701433 
L 259.430809 125.412101 
L 261.675935 125.145207 
L 263.923618 124.900777 
L 266.173632 124.678835 
L 268.425753 124.479405 
L 270.679756 124.302505 
L 272.935415 124.148154 
L 275.192505 124.016366 
L 277.450799 123.907156 
L 279.710073 123.820534 
L 281.9701 123.756509 
L 284.230655 123.715086 
L 286.491511 123.696271 
L 287.242582 123.695023 
L 287.242582 121.411242 
L 286.483924 121.412502 
L 284.200231 121.431508 
L 281.916843 121.473348 
L 279.633987 121.538021 
L 277.351892 121.625518 
L 275.070787 121.735831 
L 272.790898 121.86895 
L 270.512454 122.02486 
L 268.235684 122.203547 
L 265.960814 122.404992 
L 263.688072 122.629175 
L 261.417686 122.876074 
L 259.149882 123.145664 
L 256.884888 123.437919 
L 254.622929 123.752808 
L 252.364232 124.090301 
L 250.109023 124.450363 
L 247.857528 124.83296 
L 245.60997 125.238051 
L 243.366576 125.665598 
L 241.12757 126.115557 
L 238.893175 126.587883 
L 236.663615 127.082529 
L 234.439113 127.599445 
L 232.219891 128.138581 
L 230.006171 128.699881 
L 227.798175 129.28329 
L 225.596123 129.888749 
L 223.400236 130.516198 
L 221.210733 131.165575 
L 219.027833 131.836813 
L 216.851755 132.529847 
L 214.682716 133.244607 
L 212.520932 133.98102 
L 210.366621 134.739015 
L 208.219997 135.518514 
L 206.081275 136.31944 
L 203.95067 137.141713 
L 201.828393 137.98525 
L 199.714658 138.849968 
L 197.609676 139.73578 
L 195.513657 140.642596 
L 193.42681 141.570328 
L 191.349346 142.518881 
L 189.28147 143.48816 
L 187.223391 144.47807 
L 185.175313 145.488511 
L 183.137442 146.519382 
L 181.109981 147.570579 
z
" clip-path="url(#pbccd7b6cc0)" style="fill: #800000"/>
   </g>
   <g id="PatchCollection_1">
    <path d="M 233.134667 569.313798 
L 233.134667 569.313798 
L 230.942165 568.761752 
L 228.755292 568.187808 
L 226.574268 567.592025 
L 224.399311 566.974462 
L 222.230639 566.335181 
L 220.068467 565.674245 
L 217.913013 564.991721 
L 215.764491 564.287677 
L 213.623118 563.562183 
L 211.489106 562.815312 
L 209.36267 562.047139 
L 207.244021 561.25774 
L 205.133373 560.447194 
L 203.030935 559.615583 
L 200.936918 558.762989 
L 198.851532 557.889498 
L 196.774985 556.995198 
L 194.707484 556.080177 
L 192.649237 555.144527 
L 190.600449 554.188341 
L 188.561325 553.211716 
L 186.53207 552.214749 
L 184.512885 551.197539 
L 182.503973 550.160189 
L 180.505535 549.102802 
L 178.517771 548.025484 
L 176.540879 546.928342 
L 174.575057 545.811487 
L 172.620501 544.675029 
L 170.677408 543.519083 
L 168.745971 542.343765 
L 166.826384 541.149191 
L 164.918838 539.935481 
L 163.023525 538.702757 
L 161.140633 537.451141 
L 159.270352 536.18076 
L 157.412867 534.891739 
L 155.568366 533.584209 
L 153.737032 532.258299 
L 151.919048 530.914142 
L 150.114596 529.551873 
L 148.323857 528.171628 
L 146.54701 526.773545 
L 144.784233 525.357763 
L 143.035701 523.924425 
L 141.301589 522.473674 
L 139.582072 521.005654 
L 137.87732 519.520513 
L 136.187505 518.018399 
L 134.512796 516.499462 
L 132.853359 514.963854 
L 131.209361 513.411729 
L 129.580966 511.843241 
L 127.968337 510.258549 
L 126.371635 508.65781 
L 124.791021 507.041184 
L 123.226651 505.408833 
L 121.678683 503.76092 
L 120.147271 502.09761 
L 118.632569 500.419069 
L 117.134727 498.725466 
L 115.653896 497.016969 
L 114.190224 495.293749 
L 112.743857 493.555979 
L 111.31494 491.803833 
L 109.903615 490.037485 
L 108.510024 488.257113 
L 107.134306 486.462893 
L 105.776599 484.655007 
L 104.437038 482.833634 
L 103.115757 480.998957 
L 101.812889 479.151159 
L 101.170595 478.225576 
L 101.170595 478.225576 
Q 287.242582 349.789356 341.350498 130.264914 
L 341.350498 130.264914 
L 341.350498 130.264914 
L 343.543 130.81696 
L 345.729873 131.390903 
L 347.910897 131.986686 
L 350.085854 132.604249 
L 352.254526 133.243531 
L 354.416698 133.904467 
L 356.572152 134.586991 
L 358.720673 135.291035 
L 360.862047 136.016529 
L 362.996059 136.7634 
L 365.122495 137.531573 
L 367.241144 138.320972 
L 369.351792 139.131518 
L 371.45423 139.963129 
L 373.548247 140.815723 
L 375.633633 141.689213 
L 377.71018 142.583514 
L 379.777681 143.498535 
L 381.835928 144.434185 
L 383.884716 145.390371 
L 385.92384 146.366996 
L 387.953095 147.363963 
L 389.97228 148.381172 
L 391.981192 149.418523 
L 393.97963 150.47591 
L 395.967394 151.553228 
L 397.944286 152.65037 
L 399.910108 153.767225 
L 401.864664 154.903683 
L 403.807757 156.059628 
L 405.739194 157.234947 
L 407.658781 158.429521 
L 409.566327 159.643231 
L 411.46164 160.875955 
L 413.344532 162.127571 
L 415.214813 163.397952 
L 417.072297 164.686973 
L 418.916799 165.994503 
L 420.748133 167.320413 
L 422.566117 168.66457 
L 424.370569 170.026839 
L 426.161308 171.407084 
L 427.938155 172.805167 
L 429.700932 174.220948 
L 431.449464 175.654286 
L 433.183576 177.105038 
L 434.903093 178.573058 
L 436.607845 180.058199 
L 438.29766 181.560313 
L 439.972369 183.07925 
L 441.631806 184.614858 
L 443.275804 186.166983 
L 444.904199 187.73547 
L 446.516828 189.320163 
L 448.113529 190.920902 
L 449.694144 192.537528 
L 451.258514 194.169879 
L 452.806482 195.817792 
L 454.337894 197.481102 
L 455.852596 199.159643 
L 457.350438 200.853246 
L 458.831269 202.561743 
L 460.294941 204.284963 
L 461.741308 206.022733 
L 463.170225 207.774879 
L 464.58155 209.541227 
L 465.975141 211.321599 
L 467.350859 213.115818 
L 468.708566 214.923705 
L 470.048127 216.745078 
L 471.369408 218.579755 
L 472.672275 220.427553 
L 473.31457 221.353136 
L 473.31457 221.353136 
Q 287.242582 349.789356 233.134667 569.313798 
z
" clip-path="url(#pbccd7b6cc0)" style="fill: #7dff7a; fill-opacity: 0.5; stroke: #808080; stroke-opacity: 0.5; stroke-width: 0.1"/>
    <path d="M 473.31457 221.353136 
L 473.31457 221.353136 
L 474.589607 223.220247 
L 475.84591 225.100014 
L 477.083353 226.992251 
L 478.301811 228.896766 
L 479.501164 230.813371 
L 480.681291 232.741874 
L 481.842075 234.682081 
L 482.983399 236.633799 
L 484.105148 238.596832 
L 485.207212 240.570985 
L 486.289479 242.556059 
L 487.351842 244.551856 
L 488.394194 246.558177 
L 489.416431 248.574821 
L 490.418451 250.601587 
L 491.400154 252.638271 
L 492.361441 254.68467 
L 493.302216 256.74058 
L 494.222385 258.805794 
L 495.121857 260.880107 
L 496.00054 262.96331 
L 496.858349 265.055196 
L 497.695195 267.155556 
L 498.510997 269.264179 
L 499.305672 271.380854 
L 500.079141 273.50537 
L 500.831326 275.637514 
L 501.562153 277.777073 
L 502.271548 279.923834 
L 502.95944 282.077581 
L 503.625761 284.238099 
L 504.270443 286.405172 
L 504.893423 288.578584 
L 505.494638 290.758117 
L 506.074029 292.943552 
L 506.631536 295.134673 
L 507.167104 297.331258 
L 507.68068 299.53309 
L 508.172213 301.739947 
L 508.641652 303.951609 
L 509.088952 306.167854 
L 509.514068 308.388462 
L 509.916956 310.61321 
L 510.297578 312.841875 
L 510.655894 315.074236 
L 510.991868 317.310067 
L 511.305469 319.549147 
L 511.596663 321.79125 
L 511.688433 322.536696 
L 511.688433 322.536696 
Q 287.242582 349.789356 182.171307 149.592767 
L 182.171307 149.592767 
L 182.171307 149.592767 
L 184.178493 148.552081 
L 186.195985 147.531519 
L 188.223582 146.531183 
L 190.261081 145.551172 
L 192.308278 144.591585 
L 194.364968 143.652518 
L 196.430946 142.734064 
L 198.506005 141.836316 
L 200.589938 140.959362 
L 202.682535 140.103292 
L 204.783589 139.268189 
L 206.892888 138.454139 
L 209.010223 137.661222 
L 211.13538 136.889518 
L 213.268149 136.139104 
L 215.408314 135.410054 
L 217.555663 134.702442 
L 219.709981 134.016339 
L 221.871052 133.351813 
L 224.03866 132.70893 
L 226.212588 132.087755 
L 228.392619 131.48835 
L 230.578535 130.910776 
L 232.770118 130.355088 
L 234.967147 129.821344 
L 237.169405 129.309597 
L 239.376669 128.819898 
L 241.58872 128.352295 
L 243.805336 127.906836 
L 246.026296 127.483564 
L 248.251378 127.082524 
L 250.480359 126.703753 
L 252.713016 126.347291 
L 254.949126 126.013173 
L 257.188465 125.701433 
L 259.430809 125.412101 
L 261.675935 125.145207 
L 263.923618 124.900777 
L 266.173632 124.678835 
L 268.425753 124.479405 
L 270.679756 124.302505 
L 272.935415 124.148154 
L 275.192505 124.016366 
L 277.450799 123.907156 
L 279.710073 123.820534 
L 281.9701 123.756509 
L 284.230655 123.715086 
L 286.491511 123.696271 
L 287.242582 123.695023 
L 287.242582 123.695023 
Q 287.242582 349.789356 473.31457 221.353136 
z
" clip-path="url(#pbccd7b6cc0)" style="fill: #0080ff; fill-opacity: 0.5; stroke: #808080; stroke-opacity: 0.5; stroke-width: 0.1"/>
    <path d="M 511.688433 322.536696 
L 511.688433 322.536696 
L 511.949733 324.782479 
L 512.188562 327.030764 
L 512.404897 329.281324 
L 512.598716 331.533935 
L 512.769999 333.788372 
L 512.91873 336.044408 
L 513.044893 338.301819 
L 513.148477 340.560379 
L 513.22947 342.819862 
L 513.287864 345.080042 
L 513.323655 347.340692 
L 513.336837 349.601588 
L 513.32741 351.862502 
L 513.295375 354.123209 
L 513.240734 356.383482 
L 513.163494 358.643096 
L 513.063662 360.901825 
L 512.941249 363.159443 
L 512.796265 365.415723 
L 512.628727 367.670441 
L 512.438649 369.923371 
L 512.226053 372.174288 
L 511.990958 374.422966 
L 511.733389 376.66918 
L 511.688433 377.042016 
L 511.688433 377.042016 
Q 287.242582 349.789356 137.314308 180.555318 
L 137.314308 180.555318 
L 137.314308 180.555318 
L 139.014116 179.064522 
L 140.728747 177.590798 
L 142.45803 176.134294 
L 144.201791 174.695155 
L 145.959856 173.273526 
L 147.732049 171.869548 
L 149.518192 170.483362 
L 151.318109 169.115106 
L 153.131617 167.764917 
L 154.958537 166.432931 
L 156.798685 165.119281 
L 158.651877 163.824097 
L 160.517928 162.547509 
L 162.396651 161.289646 
L 164.287859 160.050632 
L 166.191362 158.830593 
L 168.106971 157.629648 
L 170.034493 156.44792 
L 171.973735 155.285526 
L 173.924504 154.142581 
L 175.886605 153.019202 
L 177.859842 151.915499 
L 179.844017 150.831583 
L 181.838931 149.767564 
L 182.171307 149.592767 
L 182.171307 149.592767 
Q 287.242582 349.789356 511.688433 322.536696 
z
" clip-path="url(#pbccd7b6cc0)" style="fill: #0080ff; fill-opacity: 0.5; stroke: #808080; stroke-opacity: 0.5; stroke-width: 0.1"/>
    <path d="M 511.688433 377.042016 
L 511.688433 377.042016 
L 511.404688 379.285075 
L 511.098528 381.525184 
L 510.769982 383.762119 
L 510.419084 385.995657 
L 510.045868 388.225575 
L 509.650373 390.451649 
L 509.232636 392.673656 
L 508.792701 394.891376 
L 508.330611 397.104585 
L 507.846412 399.313062 
L 507.340153 401.516588 
L 506.811885 403.714941 
L 506.261659 405.907901 
L 505.689533 408.095249 
L 505.095561 410.276767 
L 504.479804 412.452236 
L 503.842324 414.621439 
L 503.183184 416.784159 
L 502.502451 418.940179 
L 501.800191 421.089284 
L 501.076476 423.23126 
L 500.331377 425.365891 
L 499.56497 427.492964 
L 498.777331 429.612268 
L 497.968539 431.723589 
L 497.138674 433.826717 
L 496.287819 435.921441 
L 495.416061 438.007552 
L 494.523485 440.084841 
L 493.610181 442.153101 
L 492.676241 444.212124 
L 491.721757 446.261705 
L 490.746826 448.30164 
L 489.751544 450.331722 
L 488.736012 452.351751 
L 487.700331 454.361524 
L 486.644604 456.360839 
L 485.568937 458.349498 
L 484.473437 460.3273 
L 483.358215 462.294049 
L 482.223381 464.249548 
L 481.069049 466.1936 
L 479.895335 468.126012 
L 478.702355 470.046591 
L 477.49023 471.955144 
L 476.25908 473.851481 
L 475.009029 475.735411 
L 473.740201 477.606747 
L 472.452724 479.465301 
L 471.146725 481.310888 
L 469.822337 483.143323 
L 468.47969 484.962422 
L 467.118921 486.768004 
L 465.740163 488.559889 
L 464.343556 490.337897 
L 462.929239 492.101849 
L 461.497354 493.851571 
L 460.048043 495.586887 
L 458.581452 497.307623 
L 457.097727 499.013607 
L 455.597016 500.704669 
L 454.079471 502.38064 
L 452.545242 504.041351 
L 450.994482 505.686638 
L 449.427348 507.316335 
L 447.843995 508.930279 
L 446.244583 510.528309 
L 444.62927 512.110266 
L 442.998218 513.675991 
L 441.351592 515.225327 
L 439.689554 516.758119 
L 438.012272 518.274215 
L 436.319913 519.773463 
L 434.612647 521.255712 
L 432.890643 522.720815 
L 431.154075 524.168625 
L 429.403116 525.598997 
L 427.637941 527.011788 
L 425.858726 528.406857 
L 424.06565 529.784065 
L 422.258892 531.143273 
L 420.438632 532.484346 
L 418.605053 533.80715 
L 416.758338 535.111552 
L 414.898671 536.397422 
L 413.026239 537.664631 
L 411.141228 538.913053 
L 409.243828 540.142563 
L 407.334228 541.353037 
L 405.412618 542.544355 
L 403.479192 543.716398 
L 401.534142 544.869049 
L 399.577663 546.002192 
L 397.609951 547.115713 
L 395.631202 548.209502 
L 393.641614 549.283449 
L 391.641386 550.337447 
L 389.630719 551.371391 
L 387.609813 552.385176 
L 385.57887 553.378702 
L 383.538094 554.351869 
L 381.487688 555.30458 
L 379.427858 556.23674 
L 377.358809 557.148255 
L 375.280749 558.039034 
L 373.193885 558.908989 
L 371.098426 559.758031 
L 368.994581 560.586078 
L 366.882562 561.393044 
L 364.762578 562.178851 
L 362.634843 562.943418 
L 360.499568 563.686671 
L 358.356968 564.408533 
L 356.207256 565.108935 
L 354.050648 565.787804 
L 351.887359 566.445074 
L 349.717606 567.080678 
L 347.541605 567.694553 
L 345.359574 568.286638 
L 343.171732 568.856874 
L 340.978297 569.405203 
L 338.779488 569.93157 
L 336.575526 570.435924 
L 334.366631 570.918213 
L 332.153023 571.378389 
L 329.934924 571.816406 
L 327.712556 572.232221 
L 325.486141 572.625792 
L 323.255901 572.99708 
L 321.022061 573.346047 
L 318.784842 573.672658 
L 316.544469 573.976881 
L 314.301166 574.258686 
L 312.055157 574.518044 
L 309.806667 574.754929 
L 307.555921 574.969318 
L 305.303143 575.161189 
L 303.048559 575.330523 
L 300.792395 575.477304 
L 298.534876 575.601515 
L 296.276227 575.703146 
L 294.016675 575.782185 
L 291.756446 575.838625 
L 289.495765 575.872461 
L 287.242582 575.883688 
L 287.242582 575.883688 
Q 287.242582 349.789356 101.170595 478.225576 
L 101.170595 478.225576 
L 101.170595 478.225576 
L 99.895557 476.358465 
L 98.639255 474.478698 
L 97.401812 472.586461 
L 96.183353 470.681945 
L 94.984001 468.76534 
L 93.803873 466.836838 
L 92.64309 464.896631 
L 91.501766 462.944913 
L 90.380017 460.98188 
L 89.277953 459.007727 
L 88.195686 457.022653 
L 87.133323 455.026856 
L 86.090971 453.020535 
L 85.068734 451.00389 
L 84.066714 448.977125 
L 83.085011 446.940441 
L 82.123724 444.894042 
L 81.182949 442.838132 
L 80.26278 440.772918 
L 79.363308 438.698605 
L 78.484625 436.615401 
L 77.626816 434.523515 
L 76.78997 432.423156 
L 75.974168 430.314533 
L 75.179493 428.197858 
L 74.406024 426.073342 
L 73.653839 423.941198 
L 72.923012 421.801638 
L 72.213617 419.654878 
L 71.525725 417.501131 
L 70.859404 415.340613 
L 70.214721 413.173539 
L 69.591741 411.000128 
L 68.990526 408.820595 
L 68.411136 406.635159 
L 67.853629 404.444039 
L 67.318061 402.247453 
L 66.804485 400.045622 
L 66.312952 397.838765 
L 65.843513 395.627103 
L 65.396213 393.410857 
L 64.971097 391.19025 
L 64.568209 388.965502 
L 64.187587 386.736836 
L 63.829271 384.504476 
L 63.493296 382.268645 
L 63.179696 380.029565 
L 62.888502 377.787462 
L 62.619744 375.542558 
L 62.373447 373.29508 
L 62.149637 371.045251 
L 61.948336 368.793296 
L 61.769564 366.539441 
L 61.61334 364.283911 
L 61.479678 362.026931 
L 61.368593 359.768728 
L 61.280094 357.509527 
L 61.214192 355.249553 
L 61.170892 352.989034 
L 61.150199 350.728195 
L 61.152116 348.467262 
L 61.176641 346.206461 
L 61.223772 343.946018 
L 61.293505 341.68616 
L 61.385833 339.427112 
L 61.500747 337.1691 
L 61.638234 334.912351 
L 61.798282 332.657089 
L 61.980874 330.40354 
L 62.185992 328.151929 
L 62.413615 325.902483 
L 62.663721 323.655425 
L 62.936285 321.410981 
L 63.231279 319.169374 
L 63.548675 316.930829 
L 63.888439 314.69557 
L 64.250539 312.463821 
L 64.634937 310.235804 
L 65.041597 308.011742 
L 65.470476 305.791858 
L 65.921532 303.576374 
L 66.39472 301.365511 
L 66.889993 299.15949 
L 67.4073 296.958533 
L 67.946591 294.762858 
L 68.507812 292.572686 
L 69.090906 290.388235 
L 69.695815 288.209725 
L 70.322478 286.037373 
L 70.970833 283.871395 
L 71.640815 281.71201 
L 72.332357 279.559432 
L 73.04539 277.413877 
L 73.779843 275.275559 
L 74.535641 273.144693 
L 75.31271 271.021491 
L 76.110972 268.906166 
L 76.930347 266.79893 
L 77.770753 264.699992 
L 78.632106 262.609563 
L 79.51432 260.527852 
L 80.417306 258.455067 
L 81.340975 256.391415 
L 82.285234 254.337103 
L 83.249989 252.292337 
L 84.235142 250.257319 
L 85.240596 248.232255 
L 86.26625 246.217347 
L 87.312002 244.212796 
L 88.377746 242.218802 
L 89.463377 240.235565 
L 90.568785 238.263284 
L 91.693861 236.302155 
L 92.838492 234.352375 
L 94.002562 232.414138 
L 95.185957 230.487639 
L 96.388557 228.573069 
L 97.610242 226.670622 
L 98.850891 224.780486 
L 100.110378 222.902851 
L 101.388578 221.037904 
L 102.685364 219.185833 
L 104.000605 217.346821 
L 105.334171 215.521054 
L 106.685927 213.708714 
L 108.055738 211.909981 
L 109.443468 210.125036 
L 110.848978 208.354058 
L 112.272127 206.597223 
L 113.712773 204.854707 
L 115.170772 203.126685 
L 116.645977 201.413328 
L 118.138243 199.71481 
L 119.647418 198.031298 
L 121.173353 196.362962 
L 122.715895 194.709969 
L 124.274889 193.072483 
L 125.85018 191.450669 
L 127.44161 189.844689 
L 129.04902 188.254703 
L 130.672249 186.680871 
L 132.311136 185.123349 
L 133.965515 183.582293 
L 135.635221 182.057858 
L 137.314308 180.555318 
L 137.314308 180.555318 
Q 287.242582 349.789356 511.688433 377.042016 
z
" clip-path="url(#pbccd7b6cc0)" style="fill: #0080ff; fill-opacity: 0.5; stroke: #808080; stroke-opacity: 0.5; stroke-width: 0.1"/>
    <path d="M 287.242582 123.695023 
L 287.242582 123.695023 
L 289.503488 123.706328 
L 291.764168 123.740241 
L 294.024395 123.796758 
L 296.283944 123.875875 
L 298.542589 123.977582 
L 300.800104 124.101871 
L 303.056264 124.248728 
L 305.310842 124.41814 
L 307.563613 124.610088 
L 309.814352 124.824553 
L 312.062834 125.061515 
L 314.308834 125.32095 
L 316.552127 125.602831 
L 318.79249 125.907131 
L 321.029697 126.233819 
L 323.263526 126.582862 
L 325.493753 126.954226 
L 327.720154 127.347873 
L 329.942508 127.763764 
L 332.160592 128.201857 
L 334.374184 128.662109 
L 336.583063 129.144474 
L 338.787008 129.648902 
L 340.985799 130.175345 
L 341.350498 130.264914 
L 341.350498 130.264914 
Q 287.242582 349.789356 287.242582 575.883688 
L 287.242582 575.883688 
L 287.242582 575.883688 
L 284.981677 575.872384 
L 282.720997 575.838471 
L 280.46077 575.781954 
L 278.201221 575.702837 
L 275.942576 575.601129 
L 273.68506 575.476841 
L 271.428901 575.329983 
L 269.174323 575.160572 
L 266.921552 574.968624 
L 264.670813 574.754158 
L 262.422331 574.517196 
L 260.176331 574.257762 
L 257.933038 573.97588 
L 255.692675 573.671581 
L 253.455468 573.344893 
L 251.221639 572.99585 
L 248.991412 572.624486 
L 246.765011 572.230839 
L 244.542657 571.814948 
L 242.324573 571.376855 
L 240.110981 570.916603 
L 237.902101 570.434238 
L 235.698156 569.92981 
L 233.499366 569.403367 
L 233.134667 569.313798 
L 233.134667 569.313798 
Q 287.242582 349.789356 287.242582 123.695023 
z
" clip-path="url(#pbccd7b6cc0)" style="fill: #000080; fill-opacity: 0.5; stroke: #808080; stroke-opacity: 0.5; stroke-width: 0.1"/>
   </g>
   <g id="patch_7">
    <path d="M 287.242582 123.695023 
L 289.503488 123.706328 
L 291.764168 123.740241 
L 294.024395 123.796758 
L 296.283944 123.875875 
L 298.542589 123.977582 
L 300.800104 124.101871 
L 303.056264 124.248728 
L 305.310842 124.41814 
L 307.563613 124.610088 
L 309.814352 124.824553 
L 312.062834 125.061515 
L 314.308834 125.32095 
L 316.552127 125.602831 
L 318.79249 125.907131 
L 321.029697 126.233819 
L 323.263526 126.582862 
L 325.493753 126.954226 
L 327.720154 127.347873 
L 329.942508 127.763764 
L 332.160592 128.201857 
L 334.374184 128.662109 
L 336.583063 129.144474 
L 338.787008 129.648902 
L 340.985799 130.175345 
L 341.350498 130.264914 
L 341.897042 128.047495 
L 341.52866 127.957022 
L 339.307659 127.425261 
L 337.081452 126.915737 
L 334.850261 126.428501 
L 332.614309 125.9636 
L 330.373821 125.521081 
L 328.129019 125.100989 
L 325.880128 124.703366 
L 323.627374 124.328251 
L 321.370981 123.975682 
L 319.111176 123.645695 
L 316.848183 123.338321 
L 314.582231 123.053592 
L 312.313544 122.791537 
L 310.04235 122.552182 
L 307.768876 122.33555 
L 305.49335 122.141663 
L 303.215998 121.97054 
L 300.937049 121.8222 
L 298.656731 121.696655 
L 296.375271 121.59392 
L 294.092898 121.514005 
L 291.80984 121.456916 
L 289.526326 121.422661 
L 287.242582 121.411242 
L 287.242582 123.695023 
z
" clip-path="url(#pbccd7b6cc0)" style="fill: none; stroke: #000000; stroke-width: 0.5; stroke-linejoin: miter"/>
   </g>
   <g id="patch_8">
    <path d="M 341.350498 130.264914 
L 343.543 130.81696 
L 345.729873 131.390903 
L 347.910897 131.986686 
L 350.085854 132.604249 
L 352.254526 133.243531 
L 354.416698 133.904467 
L 356.572152 134.586991 
L 358.720673 135.291035 
L 360.862047 136.016529 
L 362.996059 136.7634 
L 365.122495 137.531573 
L 367.241144 138.320972 
L 369.351792 139.131518 
L 371.45423 139.963129 
L 373.548247 140.815723 
L 375.633633 141.689213 
L 377.71018 142.583514 
L 379.777681 143.498535 
L 381.835928 144.434185 
L 383.884716 145.390371 
L 385.92384 146.366996 
L 387.953095 147.363963 
L 389.97228 148.381172 
L 391.981192 149.418523 
L 393.97963 150.47591 
L 395.967394 151.553228 
L 397.944286 152.65037 
L 399.910108 153.767225 
L 401.864664 154.903683 
L 403.807757 156.059628 
L 405.739194 157.234947 
L 407.658781 158.429521 
L 409.566327 159.643231 
L 411.46164 160.875955 
L 413.344532 162.127571 
L 415.214813 163.397952 
L 417.072297 164.686973 
L 418.916799 165.994503 
L 420.748133 167.320413 
L 422.566117 168.66457 
L 424.370569 170.026839 
L 426.161308 171.407084 
L 427.938155 172.805167 
L 429.700932 174.220948 
L 431.449464 175.654286 
L 433.183576 177.105038 
L 434.903093 178.573058 
L 436.607845 180.058199 
L 438.29766 181.560313 
L 439.972369 183.07925 
L 441.631806 184.614858 
L 443.275804 186.166983 
L 444.904199 187.73547 
L 446.516828 189.320163 
L 448.113529 190.920902 
L 449.694144 192.537528 
L 451.258514 194.169879 
L 452.806482 195.817792 
L 454.337894 197.481102 
L 455.852596 199.159643 
L 457.350438 200.853246 
L 458.831269 202.561743 
L 460.294941 204.284963 
L 461.741308 206.022733 
L 463.170225 207.774879 
L 464.58155 209.541227 
L 465.975141 211.321599 
L 467.350859 213.115818 
L 468.708566 214.923705 
L 470.048127 216.745078 
L 471.369408 218.579755 
L 472.672275 220.427553 
L 473.9566 222.288287 
L 475.222254 224.161771 
L 476.46911 226.047818 
L 477.697044 227.946238 
L 478.905932 229.856843 
L 480.095654 231.779441 
L 481.266091 233.71384 
L 482.417126 235.659847 
L 483.548643 237.617266 
L 484.66053 239.585903 
L 485.752675 241.565559 
L 486.82497 243.556038 
L 487.877306 245.557141 
L 488.90958 247.568666 
L 489.921686 249.590413 
L 490.913525 251.62218 
L 491.884997 253.663764 
L 492.836005 255.714961 
L 493.766453 257.775564 
L 494.67625 259.845369 
L 495.565303 261.924168 
L 496.433524 264.011754 
L 497.280827 266.107918 
L 498.107125 268.212449 
L 498.912338 270.325138 
L 499.696383 272.445774 
L 500.459183 274.574143 
L 501.200662 276.710034 
L 501.920746 278.853234 
L 502.619361 281.003526 
L 503.296439 283.160697 
L 503.951912 285.324531 
L 504.585714 287.494812 
L 505.197782 289.671322 
L 505.788055 291.853843 
L 506.356473 294.042158 
L 506.90298 296.236048 
L 507.427521 298.435293 
L 507.930044 300.639673 
L 508.410499 302.848969 
L 508.868836 305.062958 
L 509.305012 307.28142 
L 509.718981 309.504132 
L 510.110703 311.730874 
L 510.480138 313.961421 
L 510.82725 316.19555 
L 511.152003 318.433039 
L 511.454365 320.673664 
L 511.734307 322.9172 
L 511.9918 325.163424 
L 512.226817 327.41211 
L 512.439337 329.663033 
L 512.629337 331.91597 
L 512.796799 334.170693 
L 512.941705 336.426979 
L 513.064042 338.684601 
L 513.163797 340.943333 
L 513.240959 343.20295 
L 513.295523 345.463225 
L 513.327481 347.723933 
L 513.33683 349.984848 
L 513.323571 352.245743 
L 513.287703 354.506392 
L 513.229232 356.76657 
L 513.148162 359.02605 
L 513.044501 361.284606 
L 512.91826 363.542013 
L 512.769452 365.798044 
L 512.598092 368.052475 
L 512.404196 370.305079 
L 512.187784 372.555632 
L 511.948878 374.803908 
L 511.687502 377.049683 
L 511.403681 379.292732 
L 511.097444 381.53283 
L 510.768822 383.769755 
L 510.417847 386.003281 
L 510.044555 388.233185 
L 509.648983 390.459246 
L 509.231171 392.681239 
L 508.79116 394.898944 
L 508.328994 397.112137 
L 507.84472 399.320598 
L 507.338386 401.524106 
L 506.810042 403.722441 
L 506.259742 405.915382 
L 505.687541 408.102711 
L 505.093495 410.284209 
L 504.477664 412.459657 
L 503.84011 414.628838 
L 503.180896 416.791535 
L 502.500088 418.947532 
L 501.797755 421.096613 
L 501.073967 423.238564 
L 500.328796 425.37317 
L 499.562316 427.500217 
L 498.774604 429.619494 
L 497.96574 431.730787 
L 497.135803 433.833887 
L 496.284877 435.928582 
L 495.413047 438.014663 
L 494.5204 440.091922 
L 493.607026 442.16015 
L 492.673015 444.219142 
L 491.718462 446.26869 
L 490.743461 448.308591 
L 489.74811 450.33864 
L 488.732509 452.358634 
L 487.696758 454.368371 
L 486.640963 456.367651 
L 485.565228 458.356273 
L 484.469661 460.334038 
L 483.354371 462.300748 
L 482.219471 464.256208 
L 481.065072 466.200221 
L 479.891292 468.132593 
L 478.698247 470.053131 
L 477.486057 471.961643 
L 476.254842 473.857937 
L 475.004726 475.741825 
L 473.735835 477.613118 
L 472.448294 479.471628 
L 471.142232 481.31717 
L 469.817781 483.14956 
L 468.475073 484.968613 
L 467.114241 486.774149 
L 465.735423 488.565986 
L 464.338755 490.343946 
L 462.924378 492.107851 
L 461.492432 493.857524 
L 460.043062 495.59279 
L 458.576412 497.313476 
L 457.092629 499.019409 
L 455.591861 500.71042 
L 454.074258 502.386339 
L 452.539972 504.046998 
L 450.989157 505.692231 
L 449.421967 507.321875 
L 447.838559 508.935765 
L 446.239092 510.533741 
L 444.623725 512.115642 
L 442.99262 513.681311 
L 441.34594 515.230591 
L 439.68385 516.763327 
L 438.006517 518.279366 
L 436.314106 519.778555 
L 434.606789 521.260746 
L 432.884736 522.72579 
L 431.148118 524.173541 
L 429.39711 525.603853 
L 427.631887 527.016584 
L 425.852625 528.411592 
L 424.059502 529.788739 
L 422.252697 531.147885 
L 420.432392 532.488896 
L 418.598767 533.811637 
L 416.752007 535.115976 
L 414.892297 536.401782 
L 413.019821 537.668928 
L 411.134768 538.917285 
L 409.237325 540.14673 
L 407.327684 541.357139 
L 405.406034 542.548392 
L 403.472567 543.720369 
L 401.527478 544.872953 
L 399.57096 546.006029 
L 397.60321 547.119483 
L 395.624424 548.213205 
L 393.634799 549.287084 
L 391.634535 550.341013 
L 389.623833 551.374888 
L 387.602892 552.388604 
L 385.571915 553.382061 
L 383.531106 554.355158 
L 381.480667 555.307799 
L 379.420805 556.239888 
L 377.351726 557.151333 
L 375.273635 558.042041 
L 373.186741 558.911925 
L 371.091253 559.760896 
L 368.987381 560.58887 
L 366.875333 561.395764 
L 364.755323 562.181499 
L 362.627561 562.945993 
L 360.492261 563.689173 
L 358.349636 564.410963 
L 356.199901 565.11129 
L 354.043269 565.790086 
L 351.879958 566.447282 
L 349.710183 567.082812 
L 347.534161 567.696613 
L 345.352111 568.288623 
L 343.164249 568.858784 
L 340.970795 569.407038 
L 338.771968 569.933331 
L 336.567989 570.437609 
L 334.359077 570.919822 
L 332.145453 571.379923 
L 329.927339 571.817865 
L 327.704957 572.233604 
L 325.478529 572.627099 
L 323.248277 572.99831 
L 321.014424 573.347201 
L 318.777194 573.673736 
L 316.536811 573.977882 
L 314.293498 574.25961 
L 312.047481 574.518892 
L 309.798983 574.7557 
L 307.548229 574.970012 
L 305.295444 575.161806 
L 303.040855 575.331063 
L 300.784686 575.477766 
L 298.527162 575.601901 
L 296.26851 575.703454 
L 294.008955 575.782416 
L 291.748724 575.838779 
L 289.488042 575.872538 
L 287.227136 575.883688 
L 284.966231 575.872229 
L 282.705554 575.838162 
L 280.44533 575.78149 
L 278.185786 575.702219 
L 275.927148 575.600357 
L 273.669642 575.475914 
L 271.413492 575.328902 
L 269.158926 575.159337 
L 266.906168 574.967235 
L 264.655443 574.752616 
L 262.406978 574.5155 
L 260.160995 574.255912 
L 257.917721 573.973877 
L 255.67738 573.669425 
L 253.440194 573.342584 
L 251.20639 572.993388 
L 248.976188 572.621872 
L 246.749813 572.228073 
L 244.527488 571.81203 
L 242.309434 571.373785 
L 240.095873 570.913382 
L 237.887027 570.430867 
L 235.683117 569.926288 
L 233.484362 569.399695 
L 233.134667 569.313798 
L 232.588122 571.531217 
L 232.94135 571.617981 
L 235.162314 572.149893 
L 237.388486 572.659569 
L 239.619644 573.146958 
L 241.855564 573.612012 
L 244.096022 574.054683 
L 246.340796 574.474929 
L 248.589659 574.872706 
L 250.842388 575.247974 
L 253.098756 575.600697 
L 255.358539 575.930839 
L 257.62151 576.238368 
L 259.887444 576.523251 
L 262.156113 576.785461 
L 264.42729 577.024972 
L 266.700749 577.241759 
L 268.976263 577.435802 
L 271.253602 577.60708 
L 273.532541 577.755576 
L 275.812851 577.881276 
L 278.094304 577.984167 
L 280.376671 578.064239 
L 282.659725 578.121483 
L 284.943237 578.155894 
L 287.22698 578.167469 
L 289.510724 578.156206 
L 291.794241 578.122107 
L 294.077302 578.065175 
L 296.359681 577.985415 
L 298.641148 577.882836 
L 300.921474 577.757447 
L 303.200433 577.609262 
L 305.477797 577.438296 
L 307.753336 577.244564 
L 310.026825 577.028087 
L 312.298035 576.788887 
L 314.56674 576.526987 
L 316.832712 576.242413 
L 319.095726 575.935194 
L 321.355554 575.605361 
L 323.61197 575.252946 
L 325.86475 574.877985 
L 328.113668 574.480515 
L 330.358499 574.060577 
L 332.599018 573.618211 
L 334.835001 573.153463 
L 337.066225 572.666379 
L 339.292467 572.157007 
L 341.513504 571.625399 
L 343.729114 571.071607 
L 345.939075 570.495687 
L 348.143167 569.897696 
L 350.341169 569.277695 
L 352.532861 568.635746 
L 354.718024 567.971912 
L 356.896439 567.286259 
L 359.067889 566.578858 
L 361.232157 565.849777 
L 363.389026 565.099091 
L 365.53828 564.326874 
L 367.679705 563.533203 
L 369.813086 562.718158 
L 371.93821 561.88182 
L 374.054864 561.024274 
L 376.162838 560.145604 
L 378.261919 559.245898 
L 380.351899 558.325247 
L 382.432567 557.383743 
L 384.503717 556.421479 
L 386.565141 555.438553 
L 388.616633 554.435061 
L 390.657987 553.411106 
L 392.689 552.366788 
L 394.709468 551.302212 
L 396.71919 550.217486 
L 398.717964 549.112717 
L 400.70559 547.988015 
L 402.681871 546.843494 
L 404.646607 545.679268 
L 406.599604 544.495453 
L 408.540665 543.292167 
L 410.469596 542.069532 
L 412.386204 540.827668 
L 414.290298 539.566701 
L 416.181688 538.286756 
L 418.060183 536.987962 
L 419.925597 535.670448 
L 421.777743 534.334346 
L 423.616436 532.979789 
L 425.441491 531.606914 
L 427.252726 530.215857 
L 429.049961 528.806758 
L 430.833015 527.379757 
L 432.601709 525.934997 
L 434.355869 524.472623 
L 436.095317 522.992781 
L 437.819879 521.495618 
L 439.529385 519.981285 
L 441.223661 518.449933 
L 442.90254 516.901715 
L 444.565853 515.336785 
L 446.213433 513.755302 
L 447.845117 512.157421 
L 449.46074 510.543304 
L 451.060142 508.913112 
L 452.643163 507.267008 
L 454.209643 505.605156 
L 455.759427 503.927722 
L 457.292359 502.234875 
L 458.808286 500.526783 
L 460.307057 498.803618 
L 461.788522 497.065552 
L 463.252532 495.312758 
L 464.698941 493.545411 
L 466.127605 491.76369 
L 467.538381 489.967771 
L 468.931127 488.157834 
L 470.305704 486.33406 
L 471.661975 484.496632 
L 472.999805 482.645734 
L 474.319059 480.78155 
L 475.619605 478.904267 
L 476.901314 477.014072 
L 478.164057 475.111155 
L 479.407708 473.195706 
L 480.632143 471.267917 
L 481.837239 469.32798 
L 483.022875 467.376089 
L 484.188934 465.412439 
L 485.335298 463.437227 
L 486.461854 461.450651 
L 487.568487 459.452908 
L 488.655088 457.444199 
L 489.721548 455.424725 
L 490.76776 453.394687 
L 491.79362 451.354289 
L 492.799025 449.303735 
L 493.783875 447.243229 
L 494.74807 445.172978 
L 495.691515 443.093188 
L 496.614116 441.004069 
L 497.515779 438.905828 
L 498.396415 436.798675 
L 499.255936 434.682821 
L 500.094256 432.558478 
L 500.911291 430.425859 
L 501.70696 428.285176 
L 502.481182 426.136643 
L 503.23388 423.980475 
L 503.964979 421.816889 
L 504.674407 419.6461 
L 505.362091 417.468325 
L 506.027963 415.283782 
L 506.671958 413.09269 
L 507.294009 410.895268 
L 507.894055 408.691735 
L 508.472037 406.482312 
L 509.027896 404.26722 
L 509.561576 402.04668 
L 510.073025 399.820914 
L 510.56219 397.590145 
L 511.029025 395.354596 
L 511.47348 393.114491 
L 511.895513 390.870053 
L 512.29508 388.621507 
L 512.672143 386.369078 
L 513.026663 384.112991 
L 513.358604 381.853472 
L 513.667934 379.590746 
L 513.954622 377.32504 
L 514.218639 375.056581 
L 514.459958 372.785595 
L 514.678556 370.512309 
L 514.87441 368.236951 
L 515.047502 365.959748 
L 515.197813 363.680928 
L 515.325328 361.40072 
L 515.430036 359.11935 
L 515.511925 356.837047 
L 515.570988 354.554039 
L 515.607217 352.270555 
L 515.620611 349.986822 
L 515.611166 347.70307 
L 515.578886 345.419527 
L 515.523771 343.13642 
L 515.445829 340.853979 
L 515.345067 338.572431 
L 515.221494 336.292005 
L 515.075124 334.012929 
L 514.905971 331.73543 
L 514.714052 329.459737 
L 514.499386 327.186077 
L 514.261994 324.914677 
L 514.0019 322.645764 
L 513.719131 320.379566 
L 513.413714 318.116309 
L 513.085681 315.856219 
L 512.735063 313.599522 
L 512.361896 311.346444 
L 511.966217 309.097211 
L 511.548067 306.852047 
L 511.107486 304.611176 
L 510.644518 302.374823 
L 510.159211 300.143212 
L 509.651612 297.916565 
L 509.121772 295.695105 
L 508.569745 293.479055 
L 507.995585 291.268636 
L 507.39935 289.064069 
L 506.781099 286.865574 
L 506.140895 284.673371 
L 505.478801 282.487681 
L 504.794884 280.30872 
L 504.089212 278.136707 
L 503.361855 275.97186 
L 502.612887 273.814394 
L 501.842381 271.664525 
L 501.050416 269.522469 
L 500.23707 267.38844 
L 499.402425 265.26265 
L 498.546564 263.145314 
L 497.669573 261.036641 
L 496.77154 258.936844 
L 495.852553 256.846132 
L 494.912706 254.764714 
L 493.952092 252.692799 
L 492.970807 250.630593 
L 491.96895 248.578303 
L 490.94662 246.536134 
L 489.90392 244.50429 
L 488.840954 242.482975 
L 487.757828 240.47239 
L 486.654651 238.472736 
L 485.531533 236.484215 
L 484.388586 234.507024 
L 483.225924 232.54136 
L 482.043665 230.587422 
L 480.841925 228.645404 
L 479.620826 226.7155 
L 478.380489 224.797903 
L 477.121039 222.892805 
L 475.842601 221.000397 
L 474.545303 219.120868 
L 473.229274 217.254405 
L 471.894648 215.401196 
L 470.541556 213.561425 
L 469.170135 211.735278 
L 467.780521 209.922935 
L 466.372853 208.124579 
L 464.947272 206.340389 
L 463.503921 204.570544 
L 462.042944 202.815221 
L 460.564488 201.074595 
L 459.068699 199.348841 
L 457.555727 197.63813 
L 456.025725 195.942635 
L 454.478844 194.262524 
L 452.91524 192.597965 
L 451.335069 190.949126 
L 449.738488 189.31617 
L 448.125659 187.699262 
L 446.496741 186.098562 
L 444.851897 184.514232 
L 443.191293 182.946429 
L 441.515094 181.39531 
L 439.823468 179.86103 
L 438.116585 178.343743 
L 436.394613 176.8436 
L 434.657727 175.360752 
L 432.906099 173.895346 
L 431.139906 172.44753 
L 429.359322 171.017448 
L 427.564527 169.605243 
L 425.7557 168.211056 
L 423.933021 166.835027 
L 422.096674 165.477293 
L 420.246842 164.13799 
L 418.383709 162.817252 
L 416.507462 161.515211 
L 414.618289 160.231997 
L 412.716378 158.967739 
L 410.80192 157.722563 
L 408.875106 156.496594 
L 406.936129 155.289953 
L 404.985183 154.102763 
L 403.022462 152.93514 
L 401.048164 151.787204 
L 399.062485 150.659067 
L 397.065625 149.550843 
L 395.057782 148.462642 
L 393.039158 147.394575 
L 391.009954 146.346746 
L 388.970373 145.319262 
L 386.92062 144.312224 
L 384.860899 143.325734 
L 382.791416 142.359891 
L 380.712379 141.41479 
L 378.623995 140.490526 
L 376.526472 139.587192 
L 374.420021 138.704878 
L 372.304853 137.843672 
L 370.181178 137.003661 
L 368.04921 136.184928 
L 365.909161 135.387555 
L 363.761245 134.611622 
L 361.605678 133.857207 
L 359.442674 133.124385 
L 357.272451 132.41323 
L 355.095224 131.723811 
L 352.911213 131.056199 
L 350.720634 130.410461 
L 348.523708 129.786659 
L 346.320653 129.184858 
L 344.111691 128.605118 
L 341.897042 128.047495 
L 341.350498 130.264914 
z
" clip-path="url(#pbccd7b6cc0)" style="fill: none; stroke: #000000; stroke-width: 0.5; stroke-linejoin: miter"/>
   </g>
   <g id="patch_9">
    <path d="M 233.134667 569.313798 
L 230.942165 568.761752 
L 228.755292 568.187808 
L 226.574268 567.592025 
L 224.399311 566.974462 
L 222.230639 566.335181 
L 220.068467 565.674245 
L 217.913013 564.991721 
L 215.764491 564.287677 
L 213.623118 563.562183 
L 211.489106 562.815312 
L 209.36267 562.047139 
L 207.244021 561.25774 
L 205.133373 560.447194 
L 203.030935 559.615583 
L 200.936918 558.762989 
L 198.851532 557.889498 
L 196.774985 556.995198 
L 194.707484 556.080177 
L 192.649237 555.144527 
L 190.600449 554.188341 
L 188.561325 553.211716 
L 186.53207 552.214749 
L 184.512885 551.197539 
L 182.503973 550.160189 
L 180.505535 549.102802 
L 178.517771 548.025484 
L 176.540879 546.928342 
L 174.575057 545.811487 
L 172.620501 544.675029 
L 170.677408 543.519083 
L 168.745971 542.343765 
L 166.826384 541.149191 
L 164.918838 539.935481 
L 163.023525 538.702757 
L 161.140633 537.451141 
L 159.270352 536.18076 
L 157.412867 534.891739 
L 155.568366 533.584209 
L 153.737032 532.258299 
L 151.919048 530.914142 
L 150.114596 529.551873 
L 148.323857 528.171628 
L 146.54701 526.773545 
L 144.784233 525.357763 
L 143.035701 523.924425 
L 141.301589 522.473674 
L 139.582072 521.005654 
L 137.87732 519.520513 
L 136.187505 518.018399 
L 134.512796 516.499462 
L 132.853359 514.963854 
L 131.209361 513.411729 
L 129.580966 511.843241 
L 127.968337 510.258549 
L 126.371635 508.65781 
L 124.791021 507.041184 
L 123.226651 505.408833 
L 121.678683 503.76092 
L 120.147271 502.09761 
L 118.632569 500.419069 
L 117.134727 498.725466 
L 115.653896 497.016969 
L 114.190224 495.293749 
L 112.743857 493.555979 
L 111.31494 491.803833 
L 109.903615 490.037485 
L 108.510024 488.257113 
L 107.134306 486.462893 
L 105.776599 484.655007 
L 104.437038 482.833634 
L 103.115757 480.998957 
L 101.812889 479.151159 
L 100.528564 477.290425 
L 99.262911 475.416941 
L 98.016055 473.530894 
L 96.788121 471.632474 
L 95.579233 469.721869 
L 94.389511 467.79927 
L 93.219074 465.864871 
L 92.068039 463.918865 
L 90.936522 461.961446 
L 89.824635 459.992809 
L 88.732489 458.013152 
L 87.660195 456.022673 
L 86.607858 454.021571 
L 85.575585 452.010046 
L 84.563479 449.988298 
L 83.57164 447.956531 
L 82.600168 445.914948 
L 81.64916 443.863751 
L 80.718711 441.803148 
L 79.808915 439.733343 
L 78.919862 437.654543 
L 78.05164 435.566958 
L 77.204338 433.470794 
L 76.37804 431.366263 
L 75.572827 429.253574 
L 74.788782 427.132938 
L 74.025981 425.004569 
L 73.284503 422.868677 
L 72.564419 420.725478 
L 71.865804 418.575186 
L 71.188726 416.418014 
L 70.533253 414.254181 
L 69.899451 412.0839 
L 69.287383 409.90739 
L 68.69711 407.724869 
L 68.128692 405.536554 
L 67.582185 403.342664 
L 67.057643 401.143419 
L 66.55512 398.939039 
L 66.074666 396.729743 
L 65.616328 394.515754 
L 65.180153 392.297292 
L 64.766184 390.074579 
L 64.374462 387.847838 
L 64.005027 385.617291 
L 63.657915 383.383162 
L 63.333162 381.145673 
L 63.030799 378.905048 
L 62.750858 376.661512 
L 62.493365 374.415288 
L 62.258347 372.166602 
L 62.045828 369.915678 
L 61.855828 367.662742 
L 61.688366 365.408018 
L 61.54346 363.151733 
L 61.421123 360.894111 
L 61.321368 358.635379 
L 61.244205 356.375762 
L 61.189642 354.115487 
L 61.157684 351.854779 
L 61.148334 349.593864 
L 61.161594 347.332969 
L 61.197461 345.07232 
L 61.255933 342.812142 
L 61.337003 340.552662 
L 61.440664 338.294106 
L 61.566905 336.036699 
L 61.715712 333.780668 
L 61.887073 331.526237 
L 62.080969 329.273632 
L 62.297381 327.02308 
L 62.536287 324.774803 
L 62.797663 322.529029 
L 63.081484 320.28598 
L 63.387721 318.045881 
L 63.716343 315.808957 
L 64.067318 313.575431 
L 64.44061 311.345526 
L 64.836181 309.119466 
L 65.253994 306.897472 
L 65.694005 304.679768 
L 66.15617 302.466575 
L 66.640445 300.258114 
L 67.146779 298.054606 
L 67.675122 295.856271 
L 68.225423 293.66333 
L 68.797624 291.476001 
L 69.39167 289.294503 
L 70.007501 287.119055 
L 70.645055 284.949874 
L 71.304269 282.787177 
L 71.985077 280.63118 
L 72.68741 278.482098 
L 73.411198 276.340148 
L 74.156369 274.205542 
L 74.922849 272.078494 
L 75.710561 269.959218 
L 76.519425 267.847925 
L 77.349362 265.744825 
L 78.200288 263.65013 
L 79.072118 261.564049 
L 79.964765 259.48679 
L 80.878139 257.418562 
L 81.81215 255.35957 
L 82.766703 253.310021 
L 83.741704 251.270121 
L 84.737055 249.240072 
L 85.752656 247.220078 
L 86.788406 245.21034 
L 87.844202 243.211061 
L 88.919937 241.222439 
L 90.015504 239.244674 
L 91.130794 237.277963 
L 92.265694 235.322504 
L 93.420092 233.378491 
L 94.593873 231.446119 
L 95.786918 229.525581 
L 96.999108 227.617069 
L 98.230323 225.720775 
L 99.480438 223.836887 
L 100.74933 221.965594 
L 102.036871 220.107084 
L 103.342932 218.261542 
L 104.667384 216.429152 
L 106.010092 214.610099 
L 107.370924 212.804563 
L 108.749742 211.012725 
L 110.14641 209.234766 
L 111.560787 207.470861 
L 112.992732 205.721188 
L 114.442102 203.985922 
L 115.908752 202.265236 
L 117.392536 200.559303 
L 118.893304 198.868292 
L 120.410907 197.192373 
L 121.945193 195.531714 
L 123.496008 193.88648 
L 125.063198 192.256837 
L 126.646606 190.642947 
L 128.246073 189.044971 
L 129.86144 187.46307 
L 131.492545 185.897401 
L 133.139225 184.348121 
L 134.801314 182.815385 
L 136.478648 181.299346 
L 137.314308 180.555318 
L 135.799881 178.845883 
L 134.95578 179.597427 
L 133.261504 181.128779 
L 131.582625 182.676997 
L 129.919312 184.241926 
L 128.271732 185.82341 
L 126.640048 187.42129 
L 125.024424 189.035407 
L 123.425023 190.6656 
L 121.842002 192.311704 
L 120.275522 193.973556 
L 118.725738 195.65099 
L 117.192806 197.343837 
L 115.676879 199.051928 
L 114.178108 200.775094 
L 112.696643 202.51316 
L 111.232633 204.265954 
L 109.786224 206.0333 
L 108.35756 207.815022 
L 106.946784 209.610941 
L 105.554038 211.420878 
L 104.179461 213.244652 
L 102.82319 215.08208 
L 101.48536 216.932978 
L 100.166106 218.797162 
L 98.86556 220.674445 
L 97.583851 222.56464 
L 96.321108 224.467557 
L 95.077457 226.383006 
L 93.853022 228.310795 
L 92.647926 230.250732 
L 91.46229 232.202623 
L 90.296231 234.166273 
L 89.149866 236.141485 
L 88.023311 238.128061 
L 86.916678 240.125804 
L 85.830077 242.134513 
L 84.763617 244.153987 
L 83.717405 246.184024 
L 82.691545 248.224422 
L 81.68614 250.274977 
L 80.70129 252.335483 
L 79.737095 254.405734 
L 78.79365 256.485523 
L 77.871049 258.574643 
L 76.969386 260.672884 
L 76.088749 262.780037 
L 75.229228 264.89589 
L 74.390908 267.020233 
L 73.573874 269.152853 
L 72.778205 271.293536 
L 72.003983 273.442069 
L 71.251285 275.598237 
L 70.520186 277.761823 
L 69.810758 279.932612 
L 69.123074 282.110387 
L 68.457202 284.29493 
L 67.813207 286.486022 
L 67.191156 288.683444 
L 66.591109 290.886977 
L 66.013128 293.0964 
L 65.457269 295.311492 
L 64.923589 297.532032 
L 64.41214 299.757798 
L 63.922974 301.988567 
L 63.45614 304.224116 
L 63.011685 306.464221 
L 62.589652 308.708659 
L 62.190085 310.957205 
L 61.813022 313.209634 
L 61.458502 315.465721 
L 61.126561 317.72524 
L 60.817231 319.987966 
L 60.530543 322.253672 
L 60.266526 324.522131 
L 60.025207 326.793117 
L 59.806609 329.066403 
L 59.610755 331.341761 
L 59.437663 333.618964 
L 59.287352 335.897783 
L 59.159836 338.177992 
L 59.055129 340.459362 
L 58.97324 342.741665 
L 58.914177 345.024673 
L 58.877948 347.308157 
L 58.864554 349.59189 
L 58.873998 351.875642 
L 58.906279 354.159185 
L 58.961394 356.442292 
L 59.039336 358.724733 
L 59.140098 361.00628 
L 59.26367 363.286706 
L 59.410041 365.565783 
L 59.579194 367.843281 
L 59.771113 370.118975 
L 59.985779 372.392635 
L 60.223171 374.664035 
L 60.483265 376.932947 
L 60.766034 379.199146 
L 61.071451 381.462403 
L 61.399484 383.722493 
L 61.750102 385.97919 
L 62.123269 388.232267 
L 62.518947 390.481501 
L 62.937098 392.726665 
L 63.377679 394.967536 
L 63.840647 397.203889 
L 64.325954 399.4355 
L 64.833553 401.662147 
L 65.363393 403.883606 
L 65.91542 406.099657 
L 66.48958 408.310076 
L 67.085815 410.514643 
L 67.704065 412.713138 
L 68.34427 414.90534 
L 69.006363 417.091031 
L 69.690281 419.269992 
L 70.395953 421.442005 
L 71.12331 423.606852 
L 71.872278 425.764318 
L 72.642784 427.914187 
L 73.434749 430.056243 
L 74.248095 432.190272 
L 75.08274 434.316061 
L 75.938601 436.433398 
L 76.815592 438.542071 
L 77.713625 440.641868 
L 78.632612 442.73258 
L 79.572459 444.813998 
L 80.533073 446.885913 
L 81.514358 448.948119 
L 82.516215 451.000409 
L 83.538545 453.042578 
L 84.581245 455.074422 
L 85.644211 457.095737 
L 86.727337 459.106322 
L 87.830514 461.105975 
L 88.953632 463.094497 
L 90.096579 465.071688 
L 91.25924 467.037351 
L 92.4415 468.99129 
L 93.643239 470.933308 
L 94.864339 472.863212 
L 96.104675 474.780809 
L 97.364126 476.685907 
L 98.642564 478.578315 
L 99.939862 480.457844 
L 101.25589 482.324307 
L 102.590517 484.177516 
L 103.943609 486.017286 
L 105.31503 487.843434 
L 106.704644 489.655777 
L 108.112312 491.454133 
L 109.537893 493.238322 
L 110.981244 495.008167 
L 112.442221 496.76349 
L 113.920677 498.504116 
L 115.416466 500.229871 
L 116.929437 501.940581 
L 118.45944 503.636077 
L 120.006321 505.316188 
L 121.569925 506.980746 
L 123.150096 508.629586 
L 124.746676 510.262541 
L 126.359506 511.87945 
L 127.988424 513.480149 
L 129.633268 515.06448 
L 131.293872 516.632283 
L 132.97007 518.183402 
L 134.661696 519.717682 
L 136.36858 521.234969 
L 138.090552 522.735112 
L 139.827438 524.21796 
L 141.579065 525.683365 
L 143.345259 527.131182 
L 145.125843 528.561264 
L 146.920638 529.973469 
L 148.729465 531.367656 
L 150.552143 532.743685 
L 152.388491 534.101419 
L 154.238323 535.440722 
L 156.101456 536.76146 
L 157.977703 538.063501 
L 159.866876 539.346715 
L 161.768787 540.610973 
L 163.683245 541.856149 
L 165.610059 543.082118 
L 167.549036 544.288759 
L 169.499982 545.475949 
L 171.462702 546.643571 
L 173.437001 547.791508 
L 175.42268 548.919645 
L 177.41954 550.027869 
L 179.427383 551.116069 
L 181.446007 552.184137 
L 183.475211 553.231966 
L 185.514792 554.25945 
L 187.564545 555.266487 
L 189.624266 556.252977 
L 191.693749 557.218821 
L 193.772786 558.163922 
L 195.86117 559.088186 
L 197.958693 559.99152 
L 200.065144 560.873834 
L 202.180312 561.73504 
L 204.303987 562.575051 
L 206.435955 563.393784 
L 208.576004 564.191157 
L 210.72392 564.967089 
L 212.879487 565.721505 
L 215.042491 566.454327 
L 217.212714 567.165482 
L 219.389941 567.854901 
L 221.573952 568.522512 
L 223.764531 569.168251 
L 225.961457 569.792052 
L 228.164511 570.393853 
L 230.373474 570.973594 
L 232.588122 571.531217 
L 233.134667 569.313798 
z
" clip-path="url(#pbccd7b6cc0)" style="fill: none; stroke: #000000; stroke-width: 0.5; stroke-linejoin: miter"/>
   </g>
   <g id="patch_10">
    <path d="M 137.314308 180.555318 
L 139.014116 179.064522 
L 140.728747 177.590798 
L 142.45803 176.134294 
L 144.201791 174.695155 
L 145.959856 173.273526 
L 147.732049 171.869548 
L 149.518192 170.483362 
L 151.318109 169.115106 
L 153.131617 167.764917 
L 154.958537 166.432931 
L 156.798685 165.119281 
L 158.651877 163.824097 
L 160.517928 162.547509 
L 162.396651 161.289646 
L 164.287859 160.050632 
L 166.191362 158.830593 
L 168.106971 157.629648 
L 170.034493 156.44792 
L 171.973735 155.285526 
L 173.924504 154.142581 
L 175.886605 153.019202 
L 177.859842 151.915499 
L 179.844017 150.831583 
L 181.838931 149.767564 
L 182.171307 149.592767 
L 181.109981 147.570579 
L 180.774248 147.747141 
L 178.759183 148.821909 
L 176.754966 149.916773 
L 174.761797 151.031625 
L 172.779877 152.166351 
L 170.809403 153.32084 
L 168.850572 154.494976 
L 166.903581 155.688641 
L 164.968623 156.901716 
L 163.045892 158.13408 
L 161.135581 159.385609 
L 159.237881 160.656178 
L 157.352981 161.94566 
L 155.481069 163.253926 
L 153.622334 164.580846 
L 151.776961 165.926287 
L 149.945134 167.290114 
L 148.127037 168.67219 
L 146.322851 170.072378 
L 144.532757 171.490538 
L 142.756934 172.926527 
L 140.99556 174.380202 
L 139.24881 175.851419 
L 137.516859 177.340029 
L 135.799881 178.845883 
L 137.314308 180.555318 
z
" clip-path="url(#pbccd7b6cc0)" style="fill: none; stroke: #000000; stroke-width: 0.5; stroke-linejoin: miter"/>
   </g>
   <g id="patch_11">
    <path d="M 182.171307 149.592767 
L 184.178493 148.552081 
L 186.195985 147.531519 
L 188.223582 146.531183 
L 190.261081 145.551172 
L 192.308278 144.591585 
L 194.364968 143.652518 
L 196.430946 142.734064 
L 198.506005 141.836316 
L 200.589938 140.959362 
L 202.682535 140.103292 
L 204.783589 139.268189 
L 206.892888 138.454139 
L 209.010223 137.661222 
L 211.13538 136.889518 
L 213.268149 136.139104 
L 215.408314 135.410054 
L 217.555663 134.702442 
L 219.709981 134.016339 
L 221.871052 133.351813 
L 224.03866 132.70893 
L 226.212588 132.087755 
L 228.392619 131.48835 
L 230.578535 130.910776 
L 232.770118 130.355088 
L 234.967147 129.821344 
L 237.169405 129.309597 
L 239.376669 128.819898 
L 241.58872 128.352295 
L 243.805336 127.906836 
L 246.026296 127.483564 
L 248.251378 127.082524 
L 250.480359 126.703753 
L 252.713016 126.347291 
L 254.949126 126.013173 
L 257.188465 125.701433 
L 259.430809 125.412101 
L 261.675935 125.145207 
L 263.923618 124.900777 
L 266.173632 124.678835 
L 268.425753 124.479405 
L 270.679756 124.302505 
L 272.935415 124.148154 
L 275.192505 124.016366 
L 277.450799 123.907156 
L 279.710073 123.820534 
L 281.9701 123.756509 
L 284.230655 123.715086 
L 286.491511 123.696271 
L 287.242582 123.695023 
L 287.242582 121.411242 
L 286.483924 121.412502 
L 284.200231 121.431508 
L 281.916843 121.473348 
L 279.633987 121.538021 
L 277.351892 121.625518 
L 275.070787 121.735831 
L 272.790898 121.86895 
L 270.512454 122.02486 
L 268.235684 122.203547 
L 265.960814 122.404992 
L 263.688072 122.629175 
L 261.417686 122.876074 
L 259.149882 123.145664 
L 256.884888 123.437919 
L 254.622929 123.752808 
L 252.364232 124.090301 
L 250.109023 124.450363 
L 247.857528 124.83296 
L 245.60997 125.238051 
L 243.366576 125.665598 
L 241.12757 126.115557 
L 238.893175 126.587883 
L 236.663615 127.082529 
L 234.439113 127.599445 
L 232.219891 128.138581 
L 230.006171 128.699881 
L 227.798175 129.28329 
L 225.596123 129.888749 
L 223.400236 130.516198 
L 221.210733 131.165575 
L 219.027833 131.836813 
L 216.851755 132.529847 
L 214.682716 133.244607 
L 212.520932 133.98102 
L 210.366621 134.739015 
L 208.219997 135.518514 
L 206.081275 136.31944 
L 203.95067 137.141713 
L 201.828393 137.98525 
L 199.714658 138.849968 
L 197.609676 139.73578 
L 195.513657 140.642596 
L 193.42681 141.570328 
L 191.349346 142.518881 
L 189.28147 143.48816 
L 187.223391 144.47807 
L 185.175313 145.488511 
L 183.137442 146.519382 
L 181.109981 147.570579 
L 182.171307 149.592767 
z
" clip-path="url(#pbccd7b6cc0)" style="fill: none; stroke: #000000; stroke-width: 0.5; stroke-linejoin: miter"/>
   </g>
   <g id="text_1">
    <text style="font: 3px 'DejaVu Sans', 'Bitstream Vera Sans', 'Computer Modern Sans Serif', 'Lucida Grande', 'Verdana', 'Geneva', 'Lucid', 'Arial', 'Helvetica', 'Avant Garde', sans-serif; text-anchor: start" x="316.177257" y="120.94663" transform="rotate(-83.076923 316.177257 120.94663)">Ministry for Transport, Infrastructure and Capital Projects</text>
   </g>
   <g id="text_2">
    <text style="font: 3px 'DejaVu Sans', 'Bitstream Vera Sans', 'Computer Modern Sans Serif', 'Lucida Grande', 'Verdana', 'Geneva', 'Lucid', 'Arial', 'Helvetica', 'Avant Garde', sans-serif; text-anchor: start" x="510.929098" y="406.097007" transform="rotate(-346.153846 510.929098 406.097007)">University of Malta</text>
   </g>
   <g id="text_3">
    <text style="font: 3px 'DejaVu Sans', 'Bitstream Vera Sans', 'Computer Modern Sans Serif', 'Lucida Grande', 'Verdana', 'Geneva', 'Lucid', 'Arial', 'Helvetica', 'Avant Garde', sans-serif; text-anchor: end" x="63.556067" y="406.097007" transform="rotate(-13.846154 63.556067 406.097007)">Mater Dei Hospital</text>
   </g>
   <g id="text_4">
    <text style="font: 3px 'DejaVu Sans', 'Bitstream Vera Sans', 'Computer Modern Sans Serif', 'Lucida Grande', 'Verdana', 'Geneva', 'Lucid', 'Arial', 'Helvetica', 'Avant Garde', sans-serif; text-anchor: end" x="155.273683" y="160.605799" transform="rotate(-304.615385 155.273683 160.605799)">Ministry for Health</text>
   </g>
   <g id="text_5">
    <text style="font: 3px 'DejaVu Sans', 'Bitstream Vera Sans', 'Computer Modern Sans Serif', 'Lucida Grande', 'Verdana', 'Geneva', 'Lucid', 'Arial', 'Helvetica', 'Avant Garde', sans-serif; text-anchor: end" x="230.934932" y="126.10284" transform="rotate(-283.846154 230.934932 126.10284)">Malta College of Arts, Science and Technology</text>
   </g>
  </g>
 </g>
 <defs>
  <clipPath id="pbccd7b6cc0">
   <path d="M 527.039602 349.789356 
C 527.039602 318.2995 520.836787 287.115843 508.786141 258.02301 
C 496.735494 228.930176 479.071372 202.493948 456.804681 180.227257 
C 434.53799 157.960567 408.101762 140.296444 379.008929 128.245798 
C 349.916095 116.195152 318.732438 109.992337 287.242582 109.992337 
C 255.752726 109.992337 224.56907 116.195152 195.476236 128.245798 
C 166.383403 140.296444 139.947175 157.960567 117.680484 180.227257 
C 95.413793 202.493948 77.749671 228.930176 65.699024 258.02301 
C 53.648378 287.115843 47.445563 318.2995 47.445563 349.789356 
C 47.445563 381.279212 53.648378 412.462869 65.699024 441.555702 
C 77.749671 470.648536 95.413793 497.084764 117.680484 519.351454 
C 139.947175 541.618145 166.383403 559.282268 195.476236 571.332914 
C 224.56907 583.38356 255.752726 589.586375 287.242582 589.586375 
C 318.732438 589.586375 349.916095 583.38356 379.008929 571.332914 
C 408.101762 559.282268 434.53799 541.618145 456.804681 519.351454 
C 479.071372 497.084764 496.735494 470.648536 508.786141 441.555702 
C 520.836787 412.462869 527.039602 381.279212 527.039602 349.789356 
M 287.242582 349.789356 
C 287.242582 349.789356 287.242582 349.789356 287.242582 349.789356 
C 287.242582 349.789356 287.242582 349.789356 287.242582 349.789356 
C 287.242582 349.789356 287.242582 349.789356 287.242582 349.789356 
C 287.242582 349.789356 287.242582 349.789356 287.242582 349.789356 
C 287.242582 349.789356 287.242582 349.789356 287.242582 349.789356 
C 287.242582 349.789356 287.242582 349.789356 287.242582 349.789356 
C 287.242582 349.789356 287.242582 349.789356 287.242582 349.789356 
C 287.242582 349.789356 287.242582 349.789356 287.242582 349.789356 
C 287.242582 349.789356 287.242582 349.789356 287.242582 349.789356 
C 287.242582 349.789356 287.242582 349.789356 287.242582 349.789356 
C 287.242582 349.789356 287.242582 349.789356 287.242582 349.789356 
C 287.242582 349.789356 287.242582 349.789356 287.242582 349.789356 
C 287.242582 349.789356 287.242582 349.789356 287.242582 349.789356 
C 287.242582 349.789356 287.242582 349.789356 287.242582 349.789356 
C 287.242582 349.789356 287.242582 349.789356 287.242582 349.789356 
C 287.242582 349.789356 287.242582 349.789356 287.242582 349.789356 
z
"/>
  </clipPath>
 </defs>
</svg>
