<?xml version="1.0" encoding="utf-8" standalone="no"?>
<!DOCTYPE svg PUBLIC "-//W3C//DTD SVG 1.1//EN"
  "http://www.w3.org/Graphics/SVG/1.1/DTD/svg11.dtd">
<svg xmlns:xlink="http://www.w3.org/1999/xlink" width="627.61022pt" height="527.583469pt" viewBox="0 0 627.61022 527.583469" xmlns="http://www.w3.org/2000/svg" version="1.1">
 <metadata>
  <rdf:RDF xmlns:dc="http://purl.org/dc/elements/1.1/" xmlns:cc="http://creativecommons.org/ns#" xmlns:rdf="http://www.w3.org/1999/02/22-rdf-syntax-ns#">
   <cc:Work>
    <dc:type rdf:resource="http://purl.org/dc/dcmitype/StillImage"/>
    <dc:date>2024-11-16T03:57:37.821929</dc:date>
    <dc:format>image/svg+xml</dc:format>
    <dc:creator>
     <cc:Agent>
      <dc:title>Matplotlib v3.8.4, https://matplotlib.org/</dc:title>
     </cc:Agent>
    </dc:creator>
   </cc:Work>
  </rdf:RDF>
 </metadata>
 <defs>
  <style type="text/css">*{stroke-linejoin: round; stroke-linecap: butt}</style>
 </defs>
 <g id="figure_1">
  <g id="patch_1">
   <path d="M 0 527.583469 
L 627.61022 527.583469 
L 627.61022 0 
L 0 0 
z
" style="fill: #ffffff"/>
  </g>
  <g id="axes_1">
   <g id="patch_2">
    <path d="M 363.818485 49.016671 
L 365.9662 49.027409 
L 368.1137 49.059624 
L 370.260771 49.113312 
L 372.407197 49.188468 
L 374.552765 49.285083 
L 376.697259 49.40315 
L 378.840465 49.542655 
L 380.982169 49.703584 
L 383.122156 49.885923 
L 385.260214 50.089651 
L 387.396127 50.31475 
L 389.529682 50.561196 
L 391.660667 50.828965 
L 393.788867 51.118031 
L 395.91407 51.428363 
L 398.036063 51.759932 
L 400.154635 52.112703 
L 402.269573 52.486642 
L 404.380666 52.881712 
L 406.487703 53.297873 
L 408.590474 53.735082 
L 410.688766 54.193297 
L 412.782372 54.672472 
L 414.871082 55.172559 
L 416.954686 55.693507 
L 419.032977 56.235265 
L 421.105747 56.797779 
L 423.172787 57.380991 
L 425.233893 57.984845 
L 427.288857 58.609279 
L 429.337473 59.254231 
L 431.379538 59.919637 
L 433.414847 60.60543 
L 435.443197 61.311541 
L 437.464384 62.0379 
L 439.478206 62.784434 
L 441.484463 63.551069 
L 443.482953 64.337728 
L 445.473476 65.144332 
L 447.455835 65.970801 
L 449.429829 66.817051 
L 451.395263 67.682999 
L 453.351938 68.568557 
L 455.299661 69.473638 
L 457.238236 70.39815 
L 459.167468 71.342002 
L 461.087166 72.305098 
L 462.997137 73.287343 
L 464.89719 74.288638 
L 466.787136 75.308884 
L 468.666785 76.347977 
L 470.535949 77.405815 
L 472.394441 78.482291 
L 474.242076 79.577298 
L 476.078668 80.690726 
L 477.904035 81.822464 
L 479.717993 82.972399 
L 481.520361 84.140415 
L 483.310959 85.326397 
L 485.089609 86.530225 
L 486.856131 87.751779 
L 488.610349 88.990937 
L 490.352088 90.247575 
L 492.081174 91.521567 
L 493.797434 92.812786 
L 495.500696 94.121102 
L 497.19079 95.446386 
L 498.867547 96.788504 
L 500.530799 98.147322 
L 502.18038 99.522705 
L 503.816125 100.914514 
L 505.43787 102.322611 
L 507.045454 103.746855 
L 508.638715 105.187103 
L 510.217493 106.643211 
L 511.781633 108.115034 
L 513.330976 109.602424 
L 514.865367 111.105234 
L 516.384655 112.623312 
L 517.888685 114.156506 
L 519.377309 115.704664 
L 520.850378 117.267631 
L 522.307743 118.84525 
L 523.749259 120.437363 
L 525.174782 122.043812 
L 526.58417 123.664435 
L 527.977282 125.299072 
L 529.353977 126.947557 
L 530.714119 128.609726 
L 532.057572 130.285414 
L 533.384201 131.974452 
L 534.693874 133.676672 
L 535.986459 135.391903 
L 537.261828 137.119974 
L 538.519852 138.860712 
L 539.760407 140.613943 
L 540.983367 142.379491 
L 542.188611 144.157181 
L 543.376018 145.946835 
L 544.54547 147.748272 
L 545.696849 149.561314 
L 546.83004 151.385779 
L 547.94493 153.221484 
L 549.041408 155.068246 
L 550.119364 156.925881 
L 551.17869 158.794202 
L 552.21928 160.673022 
L 553.24103 162.562155 
L 554.243837 164.46141 
L 555.227603 166.370598 
L 556.192228 168.289529 
L 557.137615 170.218009 
L 558.063671 172.155847 
L 558.970302 174.102848 
L 559.857419 176.058818 
L 560.724931 178.023561 
L 561.572754 179.996881 
L 562.400801 181.978581 
L 563.208989 183.968462 
L 563.997239 185.966325 
L 564.765472 187.97197 
L 565.513609 189.985197 
L 566.241578 192.005805 
L 566.949304 194.033592 
L 567.636717 196.068354 
L 568.303749 198.109888 
L 568.950332 200.157991 
L 569.576403 202.212457 
L 570.181898 204.273081 
L 570.766756 206.339656 
L 571.33092 208.411977 
L 571.874333 210.489836 
L 572.39694 212.573025 
L 572.89869 214.661335 
L 573.379532 216.754559 
L 573.839418 218.852487 
L 574.278302 220.954908 
L 574.69614 223.061613 
L 575.092891 225.172391 
L 575.468514 227.28703 
L 575.822972 229.405321 
L 576.156231 231.527049 
L 576.468255 233.652005 
L 576.759015 235.779974 
L 577.028481 237.910744 
L 577.276626 240.044103 
L 577.503426 242.179836 
L 577.708857 244.31773 
L 577.8929 246.457572 
L 578.055535 248.599147 
L 578.196746 250.742242 
L 578.31652 252.886641 
L 578.414844 255.032131 
L 578.491709 257.178497 
L 578.547107 259.325524 
L 578.581032 261.472998 
L 578.593481 263.620703 
L 578.593549 263.791734 
L 580.762994 263.791734 
L 580.762925 263.618976 
L 580.750351 261.449576 
L 580.716083 259.280411 
L 580.660126 257.111696 
L 580.582484 254.94365 
L 580.483167 252.776489 
L 580.362183 250.610429 
L 580.219545 248.445687 
L 580.055267 246.28248 
L 579.869366 244.121023 
L 579.66186 241.961534 
L 579.432769 239.804228 
L 579.182118 237.64932 
L 578.90993 235.497027 
L 578.616233 233.347563 
L 578.301056 231.201144 
L 577.964432 229.057983 
L 577.606393 226.918296 
L 577.226975 224.782296 
L 576.826217 222.650197 
L 576.404158 220.522213 
L 575.960841 218.398555 
L 575.49631 216.279436 
L 575.010611 214.165069 
L 574.503793 212.055664 
L 573.975907 209.951433 
L 573.427005 207.852586 
L 572.857143 205.759332 
L 572.266376 203.671882 
L 571.654766 201.590444 
L 571.022371 199.515226 
L 570.369257 197.446435 
L 569.695487 195.384279 
L 569.001131 193.328964 
L 568.286256 191.280695 
L 567.550934 189.239677 
L 566.795239 187.206114 
L 566.019247 185.180209 
L 565.223035 183.162166 
L 564.406683 181.152185 
L 563.570272 179.150469 
L 562.713885 177.157216 
L 561.83761 175.172627 
L 560.941533 173.1969 
L 560.025744 171.230232 
L 559.090334 169.27282 
L 558.135397 167.32486 
L 557.161028 165.386547 
L 556.167326 163.458074 
L 555.154389 161.539634 
L 554.122318 159.631419 
L 553.071217 157.733621 
L 552.001191 155.846428 
L 550.912347 153.970029 
L 549.804793 152.104613 
L 548.678642 150.250365 
L 547.534004 148.407471 
L 546.370995 146.576116 
L 545.189731 144.756482 
L 543.990329 142.948752 
L 542.772911 141.153105 
L 541.537598 139.369723 
L 540.284513 137.598782 
L 539.013781 135.840461 
L 537.72553 134.094935 
L 536.419888 132.362378 
L 535.096986 130.642964 
L 533.756957 128.936865 
L 532.399934 127.244251 
L 531.026053 125.565292 
L 529.635451 123.900156 
L 528.228268 122.249008 
L 526.804644 120.612015 
L 525.364721 118.989339 
L 523.908644 117.381144 
L 522.436558 115.78759 
L 520.948611 114.208835 
L 519.44495 112.645039 
L 517.925727 111.096358 
L 516.391094 109.562946 
L 514.841203 108.044957 
L 513.27621 106.542542 
L 511.696271 105.055852 
L 510.101545 103.585036 
L 508.492191 102.13024 
L 506.868369 100.69161 
L 505.230243 99.26929 
L 503.577975 97.863422 
L 501.911732 96.474146 
L 500.231679 95.101603 
L 498.537985 93.745928 
L 496.83082 92.407258 
L 495.110353 91.085726 
L 493.376757 89.781464 
L 491.630205 88.494603 
L 489.870873 87.225272 
L 488.098935 85.973598 
L 486.314569 84.739705 
L 484.517954 83.523717 
L 482.709269 82.325756 
L 480.888695 81.145941 
L 479.056414 79.98439 
L 477.212609 78.841221 
L 475.357465 77.716546 
L 473.491168 76.610478 
L 471.613903 75.523129 
L 469.725858 74.454606 
L 467.827223 73.405016 
L 465.918187 72.374466 
L 463.998942 71.363056 
L 462.069678 70.37089 
L 460.130589 69.398065 
L 458.181869 68.44468 
L 456.223713 67.510829 
L 454.256317 66.596606 
L 452.279877 65.702103 
L 450.29459 64.827408 
L 448.300656 63.972609 
L 446.298274 63.137793 
L 444.287644 62.323041 
L 442.268968 61.528436 
L 440.242446 60.754058 
L 438.208282 59.999982 
L 436.166679 59.266286 
L 434.117841 58.553043 
L 432.061973 57.860323 
L 429.999281 57.188196 
L 427.929971 56.536729 
L 425.85425 55.905987 
L 423.772326 55.296034 
L 421.684406 54.706931 
L 419.590699 54.138735 
L 417.491416 53.591505 
L 415.386765 53.065294 
L 413.276957 52.560156 
L 411.162204 52.076141 
L 409.042716 51.613298 
L 406.918706 51.171672 
L 404.790385 50.751308 
L 402.657968 50.352248 
L 400.521667 49.974531 
L 398.381695 49.618196 
L 396.238268 49.283278 
L 394.091598 48.969811 
L 391.941901 48.677826 
L 389.789391 48.407352 
L 387.634285 48.158417 
L 385.476797 47.931044 
L 383.317143 47.725258 
L 381.155539 47.541078 
L 378.992202 47.378522 
L 376.827347 47.237608 
L 374.661192 47.11835 
L 372.493952 47.020758 
L 370.325844 46.944843 
L 368.157086 46.890613 
L 365.987894 46.858073 
L 363.818485 46.847225 
z
" clip-path="url(#p344aecb41f)" style="fill: #000080"/>
   </g>
   <g id="patch_3">
    <path d="M 578.593549 263.791734 
L 578.58281 265.939449 
L 578.550596 268.086949 
L 578.496908 270.23402 
L 578.421752 272.380446 
L 578.325136 274.526014 
L 578.20707 276.670508 
L 578.067565 278.813714 
L 577.906635 280.955418 
L 577.724297 283.095406 
L 577.520568 285.233463 
L 577.29547 287.369376 
L 577.049023 289.502931 
L 576.781254 291.633916 
L 576.492189 293.762116 
L 576.181857 295.887319 
L 575.850288 298.009312 
L 575.497516 300.127884 
L 575.123577 302.242822 
L 574.728508 304.353916 
L 574.312347 306.460953 
L 573.875137 308.563723 
L 573.416922 310.662016 
L 572.937747 312.755622 
L 572.437661 314.844331 
L 571.916712 316.927936 
L 571.374955 319.006226 
L 570.812441 321.078996 
L 570.229228 323.146036 
L 569.625375 325.207142 
L 569.000941 327.262106 
L 568.355989 329.310722 
L 567.690583 331.352788 
L 567.00479 333.388096 
L 566.298679 335.416446 
L 565.57232 337.437633 
L 564.825785 339.451455 
L 564.05915 341.457712 
L 563.272492 343.456202 
L 562.465888 345.446726 
L 561.639419 347.429084 
L 560.793169 349.403078 
L 559.927221 351.368512 
L 559.041662 353.325188 
L 558.136581 355.27291 
L 557.212069 357.211485 
L 556.268218 359.140717 
L 555.305121 361.060415 
L 554.322876 362.970386 
L 553.321581 364.87044 
L 552.301336 366.760385 
L 551.262243 368.640034 
L 550.204405 370.509198 
L 549.127929 372.36769 
L 548.032922 374.215325 
L 546.919494 376.051917 
L 545.787756 377.877284 
L 544.637821 379.691242 
L 543.469804 381.49361 
L 542.283823 383.284209 
L 541.079995 385.062858 
L 539.858441 386.82938 
L 538.619283 388.583598 
L 537.362645 390.325337 
L 536.088653 392.054423 
L 534.797434 393.770683 
L 533.489117 395.473945 
L 532.163834 397.164039 
L 530.821716 398.840796 
L 529.462897 400.504048 
L 528.087515 402.153629 
L 526.695706 403.789374 
L 525.287609 405.411119 
L 523.863365 407.018703 
L 522.423117 408.611964 
L 520.967009 410.190743 
L 519.495186 411.754882 
L 518.007795 413.304225 
L 516.504986 414.838617 
L 514.986908 416.357904 
L 513.453713 417.861935 
L 511.905555 419.350558 
L 510.342589 420.823627 
L 508.76497 422.280992 
L 507.172856 423.722508 
L 505.566408 425.148031 
L 503.945784 426.557419 
L 502.311148 427.950531 
L 500.662663 429.327226 
L 499.000493 430.687369 
L 497.324806 432.030821 
L 495.635768 433.35745 
L 493.933548 434.667123 
L 492.218317 435.959708 
L 490.490246 437.235077 
L 488.749508 438.493101 
L 486.996277 439.733656 
L 485.230728 440.956616 
L 483.453038 442.16186 
L 481.663385 443.349267 
L 479.861948 444.518719 
L 478.048906 445.670098 
L 476.224441 446.803289 
L 474.388736 447.91818 
L 472.541973 449.014657 
L 470.684339 450.092613 
L 468.816018 451.151939 
L 466.937197 452.192529 
L 465.048065 453.214279 
L 463.148809 454.217087 
L 461.239621 455.200852 
L 459.320691 456.165477 
L 457.39221 457.110864 
L 455.454373 458.03692 
L 453.507372 458.943552 
L 451.551401 459.830668 
L 449.586658 460.698181 
L 447.613338 461.546003 
L 445.631639 462.37405 
L 443.641758 463.182239 
L 441.643895 463.970489 
L 439.63825 464.738721 
L 437.625022 465.486859 
L 435.604414 466.214827 
L 433.576628 466.922553 
L 431.541866 467.609967 
L 429.500331 468.276998 
L 427.452229 468.923582 
L 425.397763 469.549652 
L 423.337139 470.155147 
L 421.270563 470.740005 
L 419.198242 471.304169 
L 417.120384 471.847582 
L 415.037195 472.370189 
L 412.948884 472.871939 
L 410.85566 473.352781 
L 408.757733 473.812667 
L 406.655312 474.251551 
L 404.548607 474.669389 
L 402.437829 475.06614 
L 400.323189 475.441763 
L 398.204899 475.796222 
L 396.08317 476.12948 
L 393.958215 476.441505 
L 391.830246 476.732264 
L 389.699475 477.00173 
L 387.566117 477.249876 
L 385.430384 477.476675 
L 383.292489 477.682106 
L 381.152647 477.866149 
L 379.011072 478.028784 
L 376.867978 478.169995 
L 374.723579 478.289769 
L 372.578089 478.388094 
L 370.431723 478.464958 
L 368.284696 478.520356 
L 366.137222 478.554281 
L 363.989516 478.56673 
L 363.818485 478.566798 
L 363.818485 480.736243 
L 363.991244 480.736175 
L 366.160644 480.7236 
L 368.329809 480.689332 
L 370.498523 480.633375 
L 372.66657 480.555734 
L 374.833731 480.456416 
L 376.999791 480.335432 
L 379.164533 480.192794 
L 381.32774 480.028517 
L 383.489196 479.842615 
L 385.648686 479.635109 
L 387.805992 479.406018 
L 389.960899 479.155367 
L 392.113193 478.883179 
L 394.262657 478.589482 
L 396.409076 478.274306 
L 398.552237 477.937681 
L 400.691924 477.579642 
L 402.827923 477.200225 
L 404.960022 476.799466 
L 407.088007 476.377408 
L 409.211665 475.93409 
L 411.330783 475.469559 
L 413.445151 474.98386 
L 415.554556 474.477042 
L 417.658787 473.949156 
L 419.757634 473.400254 
L 421.850887 472.830392 
L 423.938337 472.239626 
L 426.019776 471.628015 
L 428.094994 470.99562 
L 430.163784 470.342506 
L 432.22594 469.668737 
L 434.281256 468.97438 
L 436.329525 468.259505 
L 438.370543 467.524183 
L 440.404106 466.768488 
L 442.43001 465.992496 
L 444.448054 465.196284 
L 446.458034 464.379932 
L 448.459751 463.543521 
L 450.453003 462.687135 
L 452.437593 461.810859 
L 454.41332 460.914782 
L 456.379988 459.998993 
L 458.3374 459.063583 
L 460.28536 458.108646 
L 462.223673 457.134277 
L 464.152146 456.140575 
L 466.070586 455.127638 
L 467.9788 454.095567 
L 469.876599 453.044466 
L 471.763792 451.97444 
L 473.64019 450.885596 
L 475.505607 449.778043 
L 477.359855 448.651891 
L 479.202748 447.507253 
L 481.034104 446.344244 
L 482.853738 445.16298 
L 484.661468 443.963579 
L 486.457114 442.74616 
L 488.240497 441.510847 
L 490.011437 440.257762 
L 491.769759 438.98703 
L 493.515285 437.698779 
L 495.247842 436.393137 
L 496.967255 435.070235 
L 498.673355 433.730206 
L 500.365968 432.373183 
L 502.044927 430.999302 
L 503.710064 429.6087 
L 505.361211 428.201517 
L 506.998205 426.777893 
L 508.62088 425.33797 
L 510.229076 423.881893 
L 511.82263 422.409807 
L 513.401384 420.92186 
L 514.96518 419.418199 
L 516.513862 417.898976 
L 518.047274 416.364343 
L 519.565263 414.814452 
L 521.067678 413.249459 
L 522.554368 411.66952 
L 524.025184 410.074794 
L 525.47998 408.46544 
L 526.91861 406.841618 
L 528.34093 405.203492 
L 529.746798 403.551224 
L 531.136073 401.884981 
L 532.508617 400.204928 
L 533.864292 398.511234 
L 535.202962 396.804069 
L 536.524494 395.083602 
L 537.828756 393.350006 
L 539.115616 391.603455 
L 540.384947 389.844122 
L 541.636622 388.072184 
L 542.870515 386.287818 
L 544.086503 384.491203 
L 545.284464 382.682518 
L 546.464279 380.861944 
L 547.625829 379.029663 
L 548.768999 377.185859 
L 549.893674 375.330715 
L 550.999741 373.464417 
L 552.087091 371.587152 
L 553.155614 369.699107 
L 554.205203 367.800472 
L 555.235754 365.891437 
L 556.247163 363.972191 
L 557.23933 362.042927 
L 558.212154 360.103838 
L 559.16554 358.155119 
L 560.099391 356.196962 
L 561.013613 354.229566 
L 561.908117 352.253126 
L 562.782812 350.267839 
L 563.63761 348.273905 
L 564.472427 346.271523 
L 565.287179 344.260893 
L 566.081783 342.242217 
L 566.856162 340.215695 
L 567.610237 338.181531 
L 568.343933 336.139928 
L 569.057177 334.09109 
L 569.749897 332.035222 
L 570.422024 329.97253 
L 571.073491 327.90322 
L 571.704232 325.827499 
L 572.314185 323.745575 
L 572.903289 321.657655 
L 573.471485 319.563948 
L 574.018715 317.464665 
L 574.544925 315.360014 
L 575.050063 313.250206 
L 575.534078 311.135453 
L 575.996922 309.015965 
L 576.438548 306.891955 
L 576.858912 304.763635 
L 577.257972 302.631217 
L 577.635689 300.494916 
L 577.992023 298.354944 
L 578.326941 296.211517 
L 578.640408 294.064847 
L 578.932393 291.91515 
L 579.202867 289.76264 
L 579.451803 287.607534 
L 579.679175 285.450046 
L 579.884962 283.290392 
L 580.069142 281.128788 
L 580.231697 278.965451 
L 580.372611 276.800596 
L 580.49187 274.634441 
L 580.589462 272.467201 
L 580.665376 270.299093 
L 580.719607 268.130335 
L 580.752147 265.961143 
L 580.762994 263.791734 
z
" clip-path="url(#p344aecb41f)" style="fill: #7dff7a"/>
   </g>
   <g id="patch_4">
    <path d="M 363.818485 478.566798 
L 361.67077 478.55606 
L 359.52327 478.523845 
L 357.3762 478.470157 
L 355.229773 478.395001 
L 353.084206 478.298385 
L 350.939712 478.180319 
L 348.796506 478.040814 
L 346.654802 477.879884 
L 344.514814 477.697546 
L 342.376757 477.493817 
L 340.240844 477.268719 
L 338.107288 477.022273 
L 335.976304 476.754503 
L 333.848104 476.465438 
L 331.722901 476.155106 
L 329.600907 475.823537 
L 327.482335 475.470766 
L 325.367397 475.096826 
L 323.256304 474.701757 
L 321.149267 474.285596 
L 319.046497 473.848387 
L 316.948204 473.390171 
L 314.854598 472.910997 
L 312.765889 472.41091 
L 310.682284 471.889962 
L 308.603993 471.348204 
L 306.531224 470.78569 
L 304.464183 470.202477 
L 302.403078 469.598624 
L 300.348114 468.97419 
L 298.299497 468.329238 
L 296.257432 467.663832 
L 294.222123 466.978039 
L 292.193774 466.271928 
L 290.172587 465.545569 
L 288.158764 464.799034 
L 286.152508 464.0324 
L 284.154018 463.245741 
L 282.163494 462.439137 
L 280.181136 461.612668 
L 278.207141 460.766418 
L 276.241708 459.90047 
L 274.285032 459.014911 
L 272.337309 458.109831 
L 270.398735 457.185318 
L 268.469502 456.241467 
L 266.549804 455.27837 
L 264.639833 454.296126 
L 262.73978 453.29483 
L 260.849835 452.274585 
L 258.970186 451.235492 
L 257.101022 450.177654 
L 255.24253 449.101178 
L 253.394895 448.006171 
L 251.558302 446.892743 
L 249.732936 445.761005 
L 247.918978 444.61107 
L 246.116609 443.443053 
L 244.326011 442.257072 
L 242.547362 441.053244 
L 240.78084 439.83169 
L 239.026622 438.592532 
L 237.284882 437.335894 
L 235.555796 436.061902 
L 233.839536 434.770683 
L 232.136274 433.462366 
L 230.44618 432.137083 
L 228.769423 430.794965 
L 227.106171 429.436146 
L 225.45659 428.060764 
L 223.820845 426.668955 
L 222.1991 425.260858 
L 220.591517 423.836614 
L 218.998256 422.396366 
L 217.419477 420.940258 
L 215.855338 419.468435 
L 214.305995 417.981044 
L 212.771603 416.478235 
L 211.252316 414.960157 
L 209.748285 413.426962 
L 208.259661 411.878804 
L 206.786593 410.315838 
L 205.329228 408.738219 
L 203.887712 407.146105 
L 202.462188 405.539657 
L 201.0528 403.919033 
L 199.659689 402.284397 
L 198.282993 400.635912 
L 196.922851 398.973743 
L 195.579398 397.298055 
L 194.252769 395.609017 
L 192.943097 393.906797 
L 191.650511 392.191566 
L 190.375143 390.463495 
L 189.117118 388.722757 
L 187.876564 386.969526 
L 186.653604 385.203977 
L 185.44836 383.426287 
L 184.260952 381.636634 
L 183.091501 379.835197 
L 181.940122 378.022155 
L 180.80693 376.19769 
L 179.69204 374.361985 
L 178.595562 372.515222 
L 177.517607 370.657588 
L 176.458281 368.789267 
L 175.417691 366.910446 
L 174.395941 365.021314 
L 173.393133 363.122059 
L 172.409368 361.21287 
L 171.444743 359.29394 
L 170.499355 357.36546 
L 169.5733 355.427622 
L 168.666668 353.480621 
L 167.779552 351.524651 
L 166.912039 349.559907 
L 166.064217 347.586587 
L 165.23617 345.604888 
L 164.427981 343.615007 
L 163.639731 341.617144 
L 162.871499 339.611499 
L 162.123361 337.598271 
L 161.395393 335.577664 
L 160.687666 333.549877 
L 160.000253 331.515115 
L 159.333221 329.47358 
L 158.686638 327.425478 
L 158.060568 325.371012 
L 157.455073 323.310388 
L 156.870214 321.243812 
L 156.306051 319.171492 
L 155.762638 317.093633 
L 155.24003 315.010444 
L 154.738281 312.922133 
L 154.257439 310.82891 
L 153.797553 308.730982 
L 153.358669 306.628561 
L 152.940831 304.521856 
L 152.54408 302.411078 
L 152.168457 300.296438 
L 151.813998 298.178148 
L 151.48074 296.056419 
L 151.168715 293.931464 
L 150.877955 291.803495 
L 150.608489 289.672724 
L 150.360344 287.539366 
L 150.133545 285.403633 
L 149.928113 283.265738 
L 149.744071 281.125897 
L 149.581436 278.984321 
L 149.440224 276.841227 
L 149.32045 274.696828 
L 149.222126 272.551338 
L 149.145261 270.404972 
L 149.089863 268.257945 
L 149.055938 266.110471 
L 149.04349 263.962765 
L 149.052518 261.815043 
L 149.083023 259.667518 
L 149.135001 257.520405 
L 149.208447 255.37392 
L 149.303354 253.228276 
L 149.419713 251.083688 
L 149.557511 248.940372 
L 149.716735 246.79854 
L 149.897369 244.658408 
L 150.099395 242.520189 
L 150.322793 240.384098 
L 150.56754 238.250347 
L 150.833612 236.11915 
L 151.120983 233.99072 
L 151.429623 231.865271 
L 151.759501 229.743014 
L 152.110586 227.624162 
L 152.482841 225.508926 
L 152.876229 223.397519 
L 153.290712 221.290152 
L 153.726247 219.187034 
L 154.182791 217.088377 
L 154.660298 214.99439 
L 155.158721 212.905283 
L 155.67801 210.821264 
L 156.218113 208.742543 
L 156.778976 206.669326 
L 157.360542 204.601822 
L 157.962754 202.540236 
L 158.585552 200.484776 
L 159.228872 198.435646 
L 159.892652 196.393051 
L 160.576824 194.357197 
L 161.281319 192.328286 
L 162.006069 190.306521 
L 162.750999 188.292105 
L 163.516036 186.285239 
L 164.301103 184.286123 
L 165.106122 182.294957 
L 165.931012 180.311942 
L 166.77569 178.337274 
L 167.640072 176.371151 
L 168.524072 174.413771 
L 169.427602 172.465328 
L 170.35057 170.526018 
L 171.292885 168.596034 
L 172.254452 166.67557 
L 173.235176 164.764818 
L 174.234958 162.863968 
L 175.253698 160.97321 
L 176.291294 159.092735 
L 177.347643 157.222729 
L 178.422638 155.36338 
L 179.516174 153.514874 
L 180.628139 151.677395 
L 181.758423 149.851128 
L 182.906913 148.036255 
L 184.073494 146.232957 
L 185.258049 144.441415 
L 186.460461 142.661808 
L 187.680608 140.894313 
L 188.918368 139.139109 
L 190.173619 137.396369 
L 191.446233 135.666269 
L 192.736085 133.948982 
L 194.043045 132.244678 
L 195.366982 130.55353 
L 196.707765 128.875704 
L 198.065258 127.211371 
L 199.439326 125.560695 
L 200.829833 123.923842 
L 202.236638 122.300976 
L 203.659601 120.692259 
L 205.098579 119.097852 
L 206.55343 117.517914 
L 208.024007 115.952603 
L 209.510163 114.402077 
L 211.011751 112.866488 
L 212.528618 111.345993 
L 214.060615 109.840742 
L 215.607587 108.350885 
L 217.16938 106.876573 
L 218.745838 105.417952 
L 220.336803 103.975168 
L 221.942116 102.548366 
L 223.561616 101.137688 
L 225.195142 99.743276 
L 226.842531 98.365268 
L 228.503616 97.003802 
L 230.178234 95.659015 
L 231.866215 94.331042 
L 233.567391 93.020014 
L 235.281592 91.726063 
L 237.008647 90.449319 
L 238.748383 89.189909 
L 240.500625 87.947959 
L 242.2652 86.723593 
L 244.041929 85.516933 
L 245.830636 84.328101 
L 247.631142 83.157216 
L 249.443267 82.004393 
L 251.266828 80.869749 
L 253.101645 79.753398 
L 254.947534 78.65545 
L 256.804309 77.576015 
L 258.671786 76.515202 
L 260.549777 75.473116 
L 262.438096 74.449862 
L 264.336552 73.445542 
L 266.244956 72.460256 
L 268.163118 71.494104 
L 270.090845 70.547181 
L 272.027944 69.619582 
L 273.974223 68.711401 
L 275.929486 67.822727 
L 277.893538 66.95365 
L 279.866182 66.104257 
L 281.847221 65.274632 
L 283.836458 64.464859 
L 285.833692 63.675018 
L 287.838725 62.905189 
L 289.851356 62.155448 
L 291.871384 61.425871 
L 293.898606 60.71653 
L 295.93282 60.027497 
L 297.973823 59.35884 
L 300.02141 58.710625 
L 302.075377 58.082919 
L 304.135518 57.475784 
L 306.201627 56.88928 
L 308.273498 56.323466 
L 310.350923 55.778399 
L 312.433695 55.254132 
L 314.521606 54.75072 
L 316.614446 54.268211 
L 318.712006 53.806655 
L 320.814078 53.366097 
L 322.920449 52.946581 
L 325.03091 52.54815 
L 327.14525 52.170842 
L 329.263258 51.814697 
L 331.38472 51.479749 
L 333.509427 51.166033 
L 335.637164 50.873578 
L 337.767719 50.602416 
L 339.900879 50.352572 
L 342.036431 50.124072 
L 344.174161 49.916938 
L 346.313855 49.731192 
L 348.4553 49.566851 
L 350.598282 49.423933 
L 352.742585 49.302451 
L 354.887996 49.202419 
L 357.0343 49.123845 
L 359.181282 49.066737 
L 361.328728 49.031102 
L 363.476423 49.016943 
L 363.818485 49.016671 
L 363.818485 46.847225 
L 363.472968 46.847501 
L 361.303579 46.861803 
L 359.134442 46.897798 
L 356.965773 46.955482 
L 354.797789 47.03485 
L 352.630707 47.135893 
L 350.464744 47.258602 
L 348.300117 47.402963 
L 346.137041 47.568964 
L 343.975733 47.756586 
L 341.81641 47.965812 
L 339.659287 48.196621 
L 337.50458 48.448988 
L 335.352504 48.72289 
L 333.203274 49.018298 
L 331.057107 49.335184 
L 328.914215 49.673515 
L 326.774814 50.033258 
L 324.639117 50.414376 
L 322.507338 50.816832 
L 320.37969 51.240585 
L 318.256385 51.685593 
L 316.137637 52.151812 
L 314.023658 52.639195 
L 311.914657 53.147692 
L 309.810847 53.677254 
L 307.712437 54.227827 
L 305.619639 54.799356 
L 303.53266 55.391784 
L 301.451709 56.005052 
L 299.376995 56.639099 
L 297.308725 57.293861 
L 295.247107 57.969272 
L 293.192345 58.665266 
L 291.144646 59.381771 
L 289.104214 60.118718 
L 287.071253 60.876032 
L 285.045967 61.653637 
L 283.028559 62.451456 
L 281.019229 63.269409 
L 279.018179 64.107414 
L 277.025609 64.965387 
L 275.041718 65.843242 
L 273.066705 66.740892 
L 271.100767 67.658247 
L 269.144101 68.595216 
L 267.196902 69.551704 
L 265.259365 70.527615 
L 263.331684 71.522853 
L 261.414051 72.537318 
L 259.506659 73.570908 
L 257.609698 74.62352 
L 255.723358 75.695048 
L 253.847827 76.785386 
L 251.983293 77.894425 
L 250.129943 79.022053 
L 248.287961 80.168158 
L 246.457533 81.332625 
L 244.63884 82.515337 
L 242.832065 83.716178 
L 241.037389 84.935026 
L 239.254991 86.171759 
L 237.485048 87.426254 
L 235.72774 88.698385 
L 233.98324 89.988026 
L 232.251723 91.295047 
L 230.533364 92.619317 
L 228.828332 93.960705 
L 227.1368 95.319076 
L 225.458935 96.694293 
L 223.794907 98.08622 
L 222.14488 99.494718 
L 220.509021 100.919645 
L 218.887493 102.36086 
L 217.280457 103.818217 
L 215.688076 105.291571 
L 214.110507 106.780776 
L 212.547909 108.285681 
L 211.000438 109.806137 
L 209.468248 111.341991 
L 207.951494 112.89309 
L 206.450326 114.459279 
L 204.964894 116.040401 
L 203.495348 117.636298 
L 202.041834 119.24681 
L 200.604498 120.871777 
L 199.183483 122.511035 
L 197.778931 124.164422 
L 196.390983 125.831771 
L 195.019778 127.512916 
L 193.665452 129.207689 
L 192.328142 130.91592 
L 191.00798 132.637439 
L 189.705099 134.372073 
L 188.41963 136.119648 
L 187.1517 137.879991 
L 185.901437 139.652925 
L 184.668965 141.438273 
L 183.454409 143.235856 
L 182.257888 145.045494 
L 181.079523 146.867007 
L 179.919433 148.700213 
L 178.777731 150.544927 
L 177.654534 152.400966 
L 176.549953 154.268144 
L 175.464099 156.146274 
L 174.39708 158.035169 
L 173.349003 159.934639 
L 172.319973 161.844495 
L 171.310092 163.764546 
L 170.319462 165.694599 
L 169.348182 167.634462 
L 168.396349 169.58394 
L 167.464057 171.542839 
L 166.551402 173.510963 
L 165.658472 175.488115 
L 164.785359 177.474097 
L 163.932148 179.468711 
L 163.098926 181.471758 
L 162.285776 183.483036 
L 161.492779 185.502345 
L 160.720014 187.529482 
L 159.967559 189.564246 
L 159.235489 191.606433 
L 158.523877 193.655838 
L 157.832795 195.712257 
L 157.162311 197.775483 
L 156.512492 199.845311 
L 155.883403 201.921534 
L 155.275108 204.003944 
L 154.687668 206.092332 
L 154.12114 208.18649 
L 153.575581 210.286209 
L 153.051047 212.391278 
L 152.547589 214.501488 
L 152.065258 216.616626 
L 151.604103 218.736481 
L 151.164168 220.860843 
L 150.745499 222.989497 
L 150.348137 225.122231 
L 149.972122 227.258833 
L 149.617491 229.399087 
L 149.284281 231.542781 
L 148.972523 233.6897 
L 148.68225 235.839629 
L 148.41349 237.992353 
L 148.166271 240.147657 
L 147.940617 242.305325 
L 147.73655 244.465142 
L 147.554091 246.626892 
L 147.393259 248.790358 
L 147.254069 250.955324 
L 147.136535 253.121574 
L 147.040669 255.288891 
L 146.966481 257.457058 
L 146.913978 259.625859 
L 146.883165 261.795076 
L 146.874045 263.964493 
L 146.88662 266.133893 
L 146.920888 268.303058 
L 146.976845 270.471772 
L 147.054486 272.639819 
L 147.153804 274.80698 
L 147.274787 276.97304 
L 147.417425 279.137782 
L 147.581703 281.300989 
L 147.767604 283.462445 
L 147.975111 285.621935 
L 148.204201 287.779241 
L 148.454853 289.934148 
L 148.727041 292.086442 
L 149.020738 294.235906 
L 149.335914 296.382325 
L 149.672539 298.525486 
L 150.030578 300.665173 
L 150.409995 302.801173 
L 150.810753 304.933271 
L 151.232812 307.061256 
L 151.676129 309.184914 
L 152.140661 311.304033 
L 152.626359 313.4184 
L 153.133177 315.527805 
L 153.661064 317.632036 
L 154.209965 319.730883 
L 154.779828 321.824136 
L 155.370594 323.911587 
L 155.982205 325.993025 
L 156.614599 328.068243 
L 157.267714 330.137033 
L 157.941483 332.199189 
L 158.63584 334.254505 
L 159.350715 336.302774 
L 160.086037 338.343792 
L 160.841731 340.377355 
L 161.617723 342.403259 
L 162.413936 344.421303 
L 163.230288 346.431283 
L 164.066699 348.433 
L 164.923085 350.426252 
L 165.79936 352.410842 
L 166.695438 354.386569 
L 167.611227 356.353237 
L 168.546637 358.310649 
L 169.501574 360.258609 
L 170.475942 362.196922 
L 171.469645 364.125395 
L 172.482582 366.043835 
L 173.514653 367.952049 
L 174.565754 369.849848 
L 175.63578 371.737041 
L 176.724624 373.613439 
L 177.832177 375.478856 
L 178.958329 377.333104 
L 180.102967 379.175997 
L 181.265976 381.007353 
L 182.44724 382.826987 
L 183.646641 384.634717 
L 184.864059 386.430364 
L 186.099373 388.213746 
L 187.352458 389.984687 
L 188.62319 391.743008 
L 189.911441 393.488534 
L 191.217083 395.221091 
L 192.539984 396.940505 
L 193.880014 398.646604 
L 195.237037 400.339217 
L 196.610918 402.018176 
L 198.001519 403.683313 
L 199.408703 405.334461 
L 200.832327 406.971454 
L 202.272249 408.594129 
L 203.728326 410.202325 
L 205.200412 411.795879 
L 206.68836 413.374633 
L 208.19202 414.938429 
L 209.711243 416.487111 
L 211.245877 418.020523 
L 212.795768 419.538512 
L 214.360761 421.040927 
L 215.940699 422.527617 
L 217.535425 423.998433 
L 219.14478 425.453229 
L 220.768601 426.891859 
L 222.406728 428.314179 
L 224.058995 429.720047 
L 225.725239 431.109322 
L 227.405291 432.481866 
L 229.098985 433.837541 
L 230.806151 435.176211 
L 232.526618 436.497743 
L 234.260214 437.802005 
L 236.006765 439.088865 
L 237.766098 440.358196 
L 239.538035 441.609871 
L 241.322401 442.843764 
L 243.119016 444.059752 
L 244.927701 445.257713 
L 246.748275 446.437528 
L 248.580556 447.599078 
L 250.424361 448.742248 
L 252.279505 449.866923 
L 254.145803 450.972991 
L 256.023068 452.06034 
L 257.911112 453.128863 
L 259.809747 454.178452 
L 261.718783 455.209003 
L 263.638029 456.220412 
L 265.567292 457.212579 
L 267.506381 458.185403 
L 269.455101 459.138789 
L 271.413257 460.07264 
L 273.380654 460.986863 
L 275.357094 461.881366 
L 277.34238 462.756061 
L 279.336314 463.610859 
L 281.338696 464.445676 
L 283.349326 465.260428 
L 285.368003 466.055033 
L 287.394525 466.829411 
L 289.428689 467.583486 
L 291.470292 468.317182 
L 293.51913 469.030426 
L 295.574997 469.723146 
L 297.637689 470.395273 
L 299.706999 471.04674 
L 301.78272 471.677481 
L 303.864645 472.287434 
L 305.952565 472.876538 
L 308.046271 473.444734 
L 310.145555 473.991964 
L 312.250206 474.518174 
L 314.360013 475.023312 
L 316.474767 475.507327 
L 318.594255 475.970171 
L 320.718265 476.411797 
L 322.846585 476.832161 
L 324.979002 477.231221 
L 327.115304 477.608938 
L 329.255275 477.965273 
L 331.398703 478.30019 
L 333.545373 478.613657 
L 335.69507 478.905642 
L 337.847579 479.176116 
L 340.002686 479.425052 
L 342.160174 479.652424 
L 344.319828 479.858211 
L 346.481431 480.042391 
L 348.644769 480.204946 
L 350.809623 480.34586 
L 352.975779 480.465119 
L 355.143019 480.562711 
L 357.311126 480.638626 
L 359.479884 480.692856 
L 361.649076 480.725396 
L 363.818485 480.736243 
z
" clip-path="url(#p344aecb41f)" style="fill: #800000"/>
   </g>
   <g id="PatchCollection_1">
    <path d="M 578.593549 263.791734 
L 578.593549 263.791734 
L 578.58281 265.939449 
L 578.550596 268.086949 
L 578.496908 270.23402 
L 578.421752 272.380446 
L 578.325136 274.526014 
L 578.20707 276.670508 
L 578.067565 278.813714 
L 577.906635 280.955418 
L 577.724297 283.095406 
L 577.520568 285.233463 
L 577.29547 287.369376 
L 577.049023 289.502931 
L 576.781254 291.633916 
L 576.492189 293.762116 
L 576.181857 295.887319 
L 575.850288 298.009312 
L 575.497516 300.127884 
L 575.123577 302.242822 
L 574.728508 304.353916 
L 574.312347 306.460953 
L 573.875137 308.563723 
L 573.416922 310.662016 
L 572.937747 312.755622 
L 572.437661 314.844331 
L 571.916712 316.927936 
L 571.374955 319.006226 
L 570.812441 321.078996 
L 570.229228 323.146036 
L 569.625375 325.207142 
L 569.000941 327.262106 
L 568.355989 329.310722 
L 567.690583 331.352788 
L 567.00479 333.388096 
L 566.298679 335.416446 
L 565.57232 337.437633 
L 564.825785 339.451455 
L 564.05915 341.457712 
L 563.272492 343.456202 
L 562.465888 345.446726 
L 561.639419 347.429084 
L 560.793169 349.403078 
L 559.927221 351.368512 
L 559.041662 353.325188 
L 558.136581 355.27291 
L 557.212069 357.211485 
L 556.268218 359.140717 
L 555.305121 361.060415 
L 554.322876 362.970386 
L 553.321581 364.87044 
L 552.301336 366.760385 
L 551.262243 368.640034 
L 550.204405 370.509198 
L 549.127929 372.36769 
L 548.032922 374.215325 
L 546.919494 376.051917 
L 545.787756 377.877284 
L 544.637821 379.691242 
L 543.469804 381.49361 
L 542.283823 383.284209 
L 541.079995 385.062858 
L 539.858441 386.82938 
L 538.619283 388.583598 
L 537.362645 390.325337 
L 536.088653 392.054423 
L 534.797434 393.770683 
L 533.489117 395.473945 
L 532.163834 397.164039 
L 530.821716 398.840796 
L 529.462897 400.504048 
L 528.087515 402.153629 
L 526.695706 403.789374 
L 525.287609 405.411119 
L 523.863365 407.018703 
L 522.423117 408.611964 
L 520.967009 410.190743 
L 519.495186 411.754882 
L 518.007795 413.304225 
L 516.504986 414.838617 
L 514.986908 416.357904 
L 513.453713 417.861935 
L 511.905555 419.350558 
L 510.342589 420.823627 
L 508.76497 422.280992 
L 507.172856 423.722508 
L 505.566408 425.148031 
L 503.945784 426.557419 
L 502.311148 427.950531 
L 500.662663 429.327226 
L 499.000493 430.687369 
L 497.324806 432.030821 
L 495.635768 433.35745 
L 493.933548 434.667123 
L 492.218317 435.959708 
L 490.490246 437.235077 
L 488.749508 438.493101 
L 486.996277 439.733656 
L 485.230728 440.956616 
L 483.453038 442.16186 
L 481.663385 443.349267 
L 479.861948 444.518719 
L 478.048906 445.670098 
L 476.224441 446.803289 
L 474.388736 447.91818 
L 472.541973 449.014657 
L 470.684339 450.092613 
L 468.816018 451.151939 
L 466.937197 452.192529 
L 465.048065 453.214279 
L 463.148809 454.217087 
L 461.239621 455.200852 
L 459.320691 456.165477 
L 457.39221 457.110864 
L 455.454373 458.03692 
L 453.507372 458.943552 
L 451.551401 459.830668 
L 449.586658 460.698181 
L 447.613338 461.546003 
L 445.631639 462.37405 
L 443.641758 463.182239 
L 441.643895 463.970489 
L 439.63825 464.738721 
L 437.625022 465.486859 
L 435.604414 466.214827 
L 433.576628 466.922553 
L 431.541866 467.609967 
L 429.500331 468.276998 
L 427.452229 468.923582 
L 425.397763 469.549652 
L 423.337139 470.155147 
L 421.270563 470.740005 
L 419.198242 471.304169 
L 417.120384 471.847582 
L 415.037195 472.370189 
L 412.948884 472.871939 
L 410.85566 473.352781 
L 408.757733 473.812667 
L 406.655312 474.251551 
L 404.548607 474.669389 
L 402.437829 475.06614 
L 400.323189 475.441763 
L 398.204899 475.796222 
L 396.08317 476.12948 
L 393.958215 476.441505 
L 391.830246 476.732264 
L 389.699475 477.00173 
L 387.566117 477.249876 
L 385.430384 477.476675 
L 383.292489 477.682106 
L 381.152647 477.866149 
L 379.011072 478.028784 
L 376.867978 478.169995 
L 374.723579 478.289769 
L 372.578089 478.388094 
L 370.431723 478.464958 
L 368.284696 478.520356 
L 366.137222 478.554281 
L 363.989516 478.56673 
L 363.818485 478.566798 
L 363.818485 478.566798 
Q 363.818485 263.791734 363.818485 478.566798 
L 363.818485 478.566798 
L 363.818485 478.566798 
L 361.67077 478.55606 
L 359.52327 478.523845 
L 357.3762 478.470157 
L 355.229773 478.395001 
L 353.084206 478.298385 
L 350.939712 478.180319 
L 348.796506 478.040814 
L 346.654802 477.879884 
L 344.514814 477.697546 
L 342.376757 477.493817 
L 340.240844 477.268719 
L 338.107288 477.022273 
L 335.976304 476.754503 
L 333.848104 476.465438 
L 331.722901 476.155106 
L 329.600907 475.823537 
L 327.482335 475.470766 
L 325.367397 475.096826 
L 323.256304 474.701757 
L 321.149267 474.285596 
L 319.046497 473.848387 
L 316.948204 473.390171 
L 314.854598 472.910997 
L 312.765889 472.41091 
L 310.682284 471.889962 
L 308.603993 471.348204 
L 306.531224 470.78569 
L 304.464183 470.202477 
L 302.403078 469.598624 
L 300.348114 468.97419 
L 298.299497 468.329238 
L 296.257432 467.663832 
L 294.222123 466.978039 
L 292.193774 466.271928 
L 290.172587 465.545569 
L 288.158764 464.799034 
L 286.152508 464.0324 
L 284.154018 463.245741 
L 282.163494 462.439137 
L 280.181136 461.612668 
L 278.207141 460.766418 
L 276.241708 459.90047 
L 274.285032 459.014911 
L 272.337309 458.109831 
L 270.398735 457.185318 
L 268.469502 456.241467 
L 266.549804 455.27837 
L 264.639833 454.296126 
L 262.73978 453.29483 
L 260.849835 452.274585 
L 258.970186 451.235492 
L 257.101022 450.177654 
L 255.24253 449.101178 
L 253.394895 448.006171 
L 251.558302 446.892743 
L 249.732936 445.761005 
L 247.918978 444.61107 
L 246.116609 443.443053 
L 244.326011 442.257072 
L 242.547362 441.053244 
L 240.78084 439.83169 
L 239.026622 438.592532 
L 237.284882 437.335894 
L 235.555796 436.061902 
L 233.839536 434.770683 
L 232.136274 433.462366 
L 230.44618 432.137083 
L 228.769423 430.794965 
L 227.106171 429.436146 
L 225.45659 428.060764 
L 223.820845 426.668955 
L 222.1991 425.260858 
L 220.591517 423.836614 
L 218.998256 422.396366 
L 217.419477 420.940258 
L 215.855338 419.468435 
L 214.305995 417.981044 
L 212.771603 416.478235 
L 211.252316 414.960157 
L 209.748285 413.426962 
L 208.259661 411.878804 
L 206.786593 410.315838 
L 205.329228 408.738219 
L 203.887712 407.146105 
L 202.462188 405.539657 
L 201.0528 403.919033 
L 199.659689 402.284397 
L 198.282993 400.635912 
L 196.922851 398.973743 
L 195.579398 397.298055 
L 194.252769 395.609017 
L 192.943097 393.906797 
L 191.650511 392.191566 
L 190.375143 390.463495 
L 189.117118 388.722757 
L 187.876564 386.969526 
L 186.653604 385.203977 
L 185.44836 383.426287 
L 184.260952 381.636634 
L 183.091501 379.835197 
L 181.940122 378.022155 
L 180.80693 376.19769 
L 179.69204 374.361985 
L 178.595562 372.515222 
L 177.517607 370.657588 
L 176.458281 368.789267 
L 175.417691 366.910446 
L 174.395941 365.021314 
L 173.393133 363.122059 
L 172.409368 361.21287 
L 171.444743 359.29394 
L 170.499355 357.36546 
L 169.5733 355.427622 
L 168.666668 353.480621 
L 167.779552 351.524651 
L 166.912039 349.559907 
L 166.064217 347.586587 
L 165.23617 345.604888 
L 164.427981 343.615007 
L 163.639731 341.617144 
L 162.871499 339.611499 
L 162.123361 337.598271 
L 161.395393 335.577664 
L 160.687666 333.549877 
L 160.000253 331.515115 
L 159.333221 329.47358 
L 158.686638 327.425478 
L 158.060568 325.371012 
L 157.455073 323.310388 
L 156.870214 321.243812 
L 156.306051 319.171492 
L 155.762638 317.093633 
L 155.24003 315.010444 
L 154.738281 312.922133 
L 154.257439 310.82891 
L 153.797553 308.730982 
L 153.358669 306.628561 
L 152.940831 304.521856 
L 152.54408 302.411078 
L 152.168457 300.296438 
L 151.813998 298.178148 
L 151.48074 296.056419 
L 151.168715 293.931464 
L 150.877955 291.803495 
L 150.608489 289.672724 
L 150.360344 287.539366 
L 150.133545 285.403633 
L 149.928113 283.265738 
L 149.744071 281.125897 
L 149.581436 278.984321 
L 149.440224 276.841227 
L 149.32045 274.696828 
L 149.222126 272.551338 
L 149.145261 270.404972 
L 149.089863 268.257945 
L 149.055938 266.110471 
L 149.04349 263.962765 
L 149.043421 263.791734 
L 149.043421 263.791734 
Q 363.818485 263.791734 578.593549 263.791734 
z
" clip-path="url(#p344aecb41f)" style="fill: #7dff7a; fill-opacity: 0.5; stroke: #808080; stroke-opacity: 0.5; stroke-width: 0.1"/>
    <path d="M 363.818485 49.016671 
L 363.818485 49.016671 
L 365.9662 49.027409 
L 368.1137 49.059624 
L 370.260771 49.113312 
L 372.407197 49.188468 
L 374.552765 49.285083 
L 376.697259 49.40315 
L 378.840465 49.542655 
L 380.982169 49.703584 
L 383.122156 49.885923 
L 385.260214 50.089651 
L 387.396127 50.31475 
L 389.529682 50.561196 
L 391.660667 50.828965 
L 393.788867 51.118031 
L 395.91407 51.428363 
L 398.036063 51.759932 
L 400.154635 52.112703 
L 402.269573 52.486642 
L 404.380666 52.881712 
L 406.487703 53.297873 
L 408.590474 53.735082 
L 410.688766 54.193297 
L 412.782372 54.672472 
L 414.871082 55.172559 
L 416.954686 55.693507 
L 419.032977 56.235265 
L 421.105747 56.797779 
L 423.172787 57.380991 
L 425.233893 57.984845 
L 427.288857 58.609279 
L 429.337473 59.254231 
L 431.379538 59.919637 
L 433.414847 60.60543 
L 435.443197 61.311541 
L 437.464384 62.0379 
L 439.478206 62.784434 
L 441.484463 63.551069 
L 443.482953 64.337728 
L 445.473476 65.144332 
L 447.455835 65.970801 
L 449.429829 66.817051 
L 451.395263 67.682999 
L 453.351938 68.568557 
L 455.299661 69.473638 
L 457.238236 70.39815 
L 459.167468 71.342002 
L 461.087166 72.305098 
L 462.997137 73.287343 
L 464.89719 74.288638 
L 466.787136 75.308884 
L 468.666785 76.347977 
L 470.535949 77.405815 
L 472.394441 78.482291 
L 474.242076 79.577298 
L 476.078668 80.690726 
L 477.904035 81.822464 
L 479.717993 82.972399 
L 481.520361 84.140415 
L 483.310959 85.326397 
L 485.089609 86.530225 
L 486.856131 87.751779 
L 488.610349 88.990937 
L 490.352088 90.247575 
L 492.081174 91.521567 
L 493.797434 92.812786 
L 495.500696 94.121102 
L 497.19079 95.446386 
L 498.867547 96.788504 
L 500.530799 98.147322 
L 502.18038 99.522705 
L 503.816125 100.914514 
L 505.43787 102.322611 
L 507.045454 103.746855 
L 508.638715 105.187103 
L 510.217493 106.643211 
L 511.781633 108.115034 
L 513.330976 109.602424 
L 514.865367 111.105234 
L 516.384655 112.623312 
L 517.888685 114.156506 
L 519.377309 115.704664 
L 520.850378 117.267631 
L 522.307743 118.84525 
L 523.749259 120.437363 
L 525.174782 122.043812 
L 526.58417 123.664435 
L 527.977282 125.299072 
L 529.353977 126.947557 
L 530.714119 128.609726 
L 532.057572 130.285414 
L 533.384201 131.974452 
L 534.693874 133.676672 
L 535.986459 135.391903 
L 537.261828 137.119974 
L 538.519852 138.860712 
L 539.760407 140.613943 
L 540.983367 142.379491 
L 542.188611 144.157181 
L 543.376018 145.946835 
L 544.54547 147.748272 
L 545.696849 149.561314 
L 546.83004 151.385779 
L 547.94493 153.221484 
L 549.041408 155.068246 
L 550.119364 156.925881 
L 551.17869 158.794202 
L 552.21928 160.673022 
L 553.24103 162.562155 
L 554.243837 164.46141 
L 555.227603 166.370598 
L 556.192228 168.289529 
L 557.137615 170.218009 
L 558.063671 172.155847 
L 558.970302 174.102848 
L 559.857419 176.058818 
L 560.724931 178.023561 
L 561.572754 179.996881 
L 562.400801 181.978581 
L 563.208989 183.968462 
L 563.997239 185.966325 
L 564.765472 187.97197 
L 565.513609 189.985197 
L 566.241578 192.005805 
L 566.949304 194.033592 
L 567.636717 196.068354 
L 568.303749 198.109888 
L 568.950332 200.157991 
L 569.576403 202.212457 
L 570.181898 204.273081 
L 570.766756 206.339656 
L 571.33092 208.411977 
L 571.874333 210.489836 
L 572.39694 212.573025 
L 572.89869 214.661335 
L 573.379532 216.754559 
L 573.839418 218.852487 
L 574.278302 220.954908 
L 574.69614 223.061613 
L 575.092891 225.172391 
L 575.468514 227.28703 
L 575.822972 229.405321 
L 576.156231 231.527049 
L 576.468255 233.652005 
L 576.759015 235.779974 
L 577.028481 237.910744 
L 577.276626 240.044103 
L 577.503426 242.179836 
L 577.708857 244.31773 
L 577.8929 246.457572 
L 578.055535 248.599147 
L 578.196746 250.742242 
L 578.31652 252.886641 
L 578.414844 255.032131 
L 578.491709 257.178497 
L 578.547107 259.325524 
L 578.581032 261.472998 
L 578.593481 263.620703 
L 578.593549 263.791734 
L 578.593549 263.791734 
Q 363.818485 263.791734 149.043421 263.791734 
L 149.043421 263.791734 
L 149.043421 263.791734 
L 149.05416 261.64402 
L 149.086375 259.496519 
L 149.140063 257.349449 
L 149.215219 255.203023 
L 149.311834 253.057455 
L 149.429901 250.912961 
L 149.569406 248.769755 
L 149.730335 246.628051 
L 149.912673 244.488063 
L 150.116402 242.350006 
L 150.341501 240.214093 
L 150.587947 238.080537 
L 150.855716 235.949553 
L 151.144781 233.821353 
L 151.455114 231.69615 
L 151.786682 229.574156 
L 152.139454 227.455585 
L 152.513393 225.340646 
L 152.908463 223.229553 
L 153.324623 221.122516 
L 153.761833 219.019746 
L 154.220048 216.921453 
L 154.699223 214.827847 
L 155.19931 212.739138 
L 155.720258 210.655533 
L 156.262016 208.577242 
L 156.824529 206.504473 
L 157.407742 204.437432 
L 158.011596 202.376327 
L 158.63603 200.321363 
L 159.280982 198.272746 
L 159.946388 196.230681 
L 160.632181 194.195372 
L 161.338292 192.167023 
L 162.064651 190.145836 
L 162.811185 188.132013 
L 163.57782 186.125757 
L 164.364479 184.127267 
L 165.171083 182.136743 
L 165.997551 180.154385 
L 166.843802 178.180391 
L 167.70975 176.214957 
L 168.595308 174.258281 
L 169.500389 172.310559 
L 170.424901 170.371984 
L 171.368753 168.442751 
L 172.331849 166.523054 
L 173.314094 164.613082 
L 174.315389 162.713029 
L 175.335635 160.823084 
L 176.374728 158.943435 
L 177.432566 157.074271 
L 178.509042 155.215779 
L 179.604048 153.368144 
L 180.717477 151.531551 
L 181.849215 149.706185 
L 182.99915 147.892227 
L 184.167166 146.089858 
L 185.353148 144.29926 
L 186.556976 142.520611 
L 187.77853 140.754089 
L 189.017688 138.999871 
L 190.274326 137.258131 
L 191.548318 135.529045 
L 192.839537 133.812785 
L 194.147853 132.109523 
L 195.473137 130.419429 
L 196.815255 128.742672 
L 198.174073 127.07942 
L 199.549456 125.429839 
L 200.941265 123.794095 
L 202.349362 122.172349 
L 203.773605 120.564766 
L 205.213853 118.971505 
L 206.669962 117.392726 
L 208.141785 115.828587 
L 209.629175 114.279244 
L 211.131985 112.744852 
L 212.650063 111.225565 
L 214.183257 109.721534 
L 215.731415 108.23291 
L 217.294382 106.759842 
L 218.872001 105.302477 
L 220.464114 103.860961 
L 222.070563 102.435437 
L 223.691186 101.02605 
L 225.325822 99.632938 
L 226.974308 98.256242 
L 228.636477 96.8961 
L 230.312165 95.552647 
L 232.001203 94.226018 
L 233.703422 92.916346 
L 235.418654 91.62376 
L 237.146725 90.348392 
L 238.887463 89.090367 
L 240.640694 87.849813 
L 242.406242 86.626853 
L 244.183932 85.421609 
L 245.973585 84.234201 
L 247.775023 83.06475 
L 249.588065 81.913371 
L 251.41253 80.78018 
L 253.248235 79.665289 
L 255.094997 78.568811 
L 256.952632 77.490856 
L 258.820953 76.43153 
L 260.699773 75.39094 
L 262.588906 74.36919 
L 264.488161 73.366382 
L 266.397349 72.382617 
L 268.31628 71.417992 
L 270.24476 70.472604 
L 272.182598 69.546549 
L 274.129599 68.639917 
L 276.085569 67.752801 
L 278.050312 66.885288 
L 280.023632 66.037466 
L 282.005332 65.209419 
L 283.995212 64.40123 
L 285.993075 63.61298 
L 287.998721 62.844748 
L 290.011948 62.09661 
L 292.032556 61.368642 
L 294.060343 60.660916 
L 296.095105 59.973502 
L 298.136639 59.30647 
L 300.184742 58.659887 
L 302.239208 58.033817 
L 304.299832 57.428322 
L 306.366407 56.843464 
L 308.438728 56.2793 
L 310.516587 55.735887 
L 312.599776 55.21328 
L 314.688086 54.71153 
L 316.78131 54.230688 
L 318.879237 53.770802 
L 320.981659 53.331918 
L 323.088364 52.91408 
L 325.199142 52.517329 
L 327.313781 52.141706 
L 329.432072 51.787247 
L 331.5538 51.453989 
L 333.678756 51.141964 
L 335.806725 50.851204 
L 337.937495 50.581738 
L 340.070854 50.333593 
L 342.206587 50.106794 
L 344.344481 49.901362 
L 346.484323 49.71732 
L 348.625898 49.554685 
L 350.768993 49.413473 
L 352.913392 49.293699 
L 355.058882 49.195375 
L 357.205248 49.11851 
L 359.352275 49.063113 
L 361.499749 49.029188 
L 363.647454 49.016739 
L 363.818485 49.016671 
L 363.818485 49.016671 
Q 363.818485 263.791734 363.818485 49.016671 
z
" clip-path="url(#p344aecb41f)" style="fill: #000080; fill-opacity: 0.5; stroke: #808080; stroke-opacity: 0.5; stroke-width: 0.1"/>
   </g>
   <g id="patch_5">
    <path d="M 363.818485 49.016671 
L 365.9662 49.027409 
L 368.1137 49.059624 
L 370.260771 49.113312 
L 372.407197 49.188468 
L 374.552765 49.285083 
L 376.697259 49.40315 
L 378.840465 49.542655 
L 380.982169 49.703584 
L 383.122156 49.885923 
L 385.260214 50.089651 
L 387.396127 50.31475 
L 389.529682 50.561196 
L 391.660667 50.828965 
L 393.788867 51.118031 
L 395.91407 51.428363 
L 398.036063 51.759932 
L 400.154635 52.112703 
L 402.269573 52.486642 
L 404.380666 52.881712 
L 406.487703 53.297873 
L 408.590474 53.735082 
L 410.688766 54.193297 
L 412.782372 54.672472 
L 414.871082 55.172559 
L 416.954686 55.693507 
L 419.032977 56.235265 
L 421.105747 56.797779 
L 423.172787 57.380991 
L 425.233893 57.984845 
L 427.288857 58.609279 
L 429.337473 59.254231 
L 431.379538 59.919637 
L 433.414847 60.60543 
L 435.443197 61.311541 
L 437.464384 62.0379 
L 439.478206 62.784434 
L 441.484463 63.551069 
L 443.482953 64.337728 
L 445.473476 65.144332 
L 447.455835 65.970801 
L 449.429829 66.817051 
L 451.395263 67.682999 
L 453.351938 68.568557 
L 455.299661 69.473638 
L 457.238236 70.39815 
L 459.167468 71.342002 
L 461.087166 72.305098 
L 462.997137 73.287343 
L 464.89719 74.288638 
L 466.787136 75.308884 
L 468.666785 76.347977 
L 470.535949 77.405815 
L 472.394441 78.482291 
L 474.242076 79.577298 
L 476.078668 80.690726 
L 477.904035 81.822464 
L 479.717993 82.972399 
L 481.520361 84.140415 
L 483.310959 85.326397 
L 485.089609 86.530225 
L 486.856131 87.751779 
L 488.610349 88.990937 
L 490.352088 90.247575 
L 492.081174 91.521567 
L 493.797434 92.812786 
L 495.500696 94.121102 
L 497.19079 95.446386 
L 498.867547 96.788504 
L 500.530799 98.147322 
L 502.18038 99.522705 
L 503.816125 100.914514 
L 505.43787 102.322611 
L 507.045454 103.746855 
L 508.638715 105.187103 
L 510.217493 106.643211 
L 511.781633 108.115034 
L 513.330976 109.602424 
L 514.865367 111.105234 
L 516.384655 112.623312 
L 517.888685 114.156506 
L 519.377309 115.704664 
L 520.850378 117.267631 
L 522.307743 118.84525 
L 523.749259 120.437363 
L 525.174782 122.043812 
L 526.58417 123.664435 
L 527.977282 125.299072 
L 529.353977 126.947557 
L 530.714119 128.609726 
L 532.057572 130.285414 
L 533.384201 131.974452 
L 534.693874 133.676672 
L 535.986459 135.391903 
L 537.261828 137.119974 
L 538.519852 138.860712 
L 539.760407 140.613943 
L 540.983367 142.379491 
L 542.188611 144.157181 
L 543.376018 145.946835 
L 544.54547 147.748272 
L 545.696849 149.561314 
L 546.83004 151.385779 
L 547.94493 153.221484 
L 549.041408 155.068246 
L 550.119364 156.925881 
L 551.17869 158.794202 
L 552.21928 160.673022 
L 553.24103 162.562155 
L 554.243837 164.46141 
L 555.227603 166.370598 
L 556.192228 168.289529 
L 557.137615 170.218009 
L 558.063671 172.155847 
L 558.970302 174.102848 
L 559.857419 176.058818 
L 560.724931 178.023561 
L 561.572754 179.996881 
L 562.400801 181.978581 
L 563.208989 183.968462 
L 563.997239 185.966325 
L 564.765472 187.97197 
L 565.513609 189.985197 
L 566.241578 192.005805 
L 566.949304 194.033592 
L 567.636717 196.068354 
L 568.303749 198.109888 
L 568.950332 200.157991 
L 569.576403 202.212457 
L 570.181898 204.273081 
L 570.766756 206.339656 
L 571.33092 208.411977 
L 571.874333 210.489836 
L 572.39694 212.573025 
L 572.89869 214.661335 
L 573.379532 216.754559 
L 573.839418 218.852487 
L 574.278302 220.954908 
L 574.69614 223.061613 
L 575.092891 225.172391 
L 575.468514 227.28703 
L 575.822972 229.405321 
L 576.156231 231.527049 
L 576.468255 233.652005 
L 576.759015 235.779974 
L 577.028481 237.910744 
L 577.276626 240.044103 
L 577.503426 242.179836 
L 577.708857 244.31773 
L 577.8929 246.457572 
L 578.055535 248.599147 
L 578.196746 250.742242 
L 578.31652 252.886641 
L 578.414844 255.032131 
L 578.491709 257.178497 
L 578.547107 259.325524 
L 578.581032 261.472998 
L 578.593481 263.620703 
L 578.593549 263.791734 
L 580.762994 263.791734 
L 580.762925 263.618976 
L 580.750351 261.449576 
L 580.716083 259.280411 
L 580.660126 257.111696 
L 580.582484 254.94365 
L 580.483167 252.776489 
L 580.362183 250.610429 
L 580.219545 248.445687 
L 580.055267 246.28248 
L 579.869366 244.121023 
L 579.66186 241.961534 
L 579.432769 239.804228 
L 579.182118 237.64932 
L 578.90993 235.497027 
L 578.616233 233.347563 
L 578.301056 231.201144 
L 577.964432 229.057983 
L 577.606393 226.918296 
L 577.226975 224.782296 
L 576.826217 222.650197 
L 576.404158 220.522213 
L 575.960841 218.398555 
L 575.49631 216.279436 
L 575.010611 214.165069 
L 574.503793 212.055664 
L 573.975907 209.951433 
L 573.427005 207.852586 
L 572.857143 205.759332 
L 572.266376 203.671882 
L 571.654766 201.590444 
L 571.022371 199.515226 
L 570.369257 197.446435 
L 569.695487 195.384279 
L 569.001131 193.328964 
L 568.286256 191.280695 
L 567.550934 189.239677 
L 566.795239 187.206114 
L 566.019247 185.180209 
L 565.223035 183.162166 
L 564.406683 181.152185 
L 563.570272 179.150469 
L 562.713885 177.157216 
L 561.83761 175.172627 
L 560.941533 173.1969 
L 560.025744 171.230232 
L 559.090334 169.27282 
L 558.135397 167.32486 
L 557.161028 165.386547 
L 556.167326 163.458074 
L 555.154389 161.539634 
L 554.122318 159.631419 
L 553.071217 157.733621 
L 552.001191 155.846428 
L 550.912347 153.970029 
L 549.804793 152.104613 
L 548.678642 150.250365 
L 547.534004 148.407471 
L 546.370995 146.576116 
L 545.189731 144.756482 
L 543.990329 142.948752 
L 542.772911 141.153105 
L 541.537598 139.369723 
L 540.284513 137.598782 
L 539.013781 135.840461 
L 537.72553 134.094935 
L 536.419888 132.362378 
L 535.096986 130.642964 
L 533.756957 128.936865 
L 532.399934 127.244251 
L 531.026053 125.565292 
L 529.635451 123.900156 
L 528.228268 122.249008 
L 526.804644 120.612015 
L 525.364721 118.989339 
L 523.908644 117.381144 
L 522.436558 115.78759 
L 520.948611 114.208835 
L 519.44495 112.645039 
L 517.925727 111.096358 
L 516.391094 109.562946 
L 514.841203 108.044957 
L 513.27621 106.542542 
L 511.696271 105.055852 
L 510.101545 103.585036 
L 508.492191 102.13024 
L 506.868369 100.69161 
L 505.230243 99.26929 
L 503.577975 97.863422 
L 501.911732 96.474146 
L 500.231679 95.101603 
L 498.537985 93.745928 
L 496.83082 92.407258 
L 495.110353 91.085726 
L 493.376757 89.781464 
L 491.630205 88.494603 
L 489.870873 87.225272 
L 488.098935 85.973598 
L 486.314569 84.739705 
L 484.517954 83.523717 
L 482.709269 82.325756 
L 480.888695 81.145941 
L 479.056414 79.98439 
L 477.212609 78.841221 
L 475.357465 77.716546 
L 473.491168 76.610478 
L 471.613903 75.523129 
L 469.725858 74.454606 
L 467.827223 73.405016 
L 465.918187 72.374466 
L 463.998942 71.363056 
L 462.069678 70.37089 
L 460.130589 69.398065 
L 458.181869 68.44468 
L 456.223713 67.510829 
L 454.256317 66.596606 
L 452.279877 65.702103 
L 450.29459 64.827408 
L 448.300656 63.972609 
L 446.298274 63.137793 
L 444.287644 62.323041 
L 442.268968 61.528436 
L 440.242446 60.754058 
L 438.208282 59.999982 
L 436.166679 59.266286 
L 434.117841 58.553043 
L 432.061973 57.860323 
L 429.999281 57.188196 
L 427.929971 56.536729 
L 425.85425 55.905987 
L 423.772326 55.296034 
L 421.684406 54.706931 
L 419.590699 54.138735 
L 417.491416 53.591505 
L 415.386765 53.065294 
L 413.276957 52.560156 
L 411.162204 52.076141 
L 409.042716 51.613298 
L 406.918706 51.171672 
L 404.790385 50.751308 
L 402.657968 50.352248 
L 400.521667 49.974531 
L 398.381695 49.618196 
L 396.238268 49.283278 
L 394.091598 48.969811 
L 391.941901 48.677826 
L 389.789391 48.407352 
L 387.634285 48.158417 
L 385.476797 47.931044 
L 383.317143 47.725258 
L 381.155539 47.541078 
L 378.992202 47.378522 
L 376.827347 47.237608 
L 374.661192 47.11835 
L 372.493952 47.020758 
L 370.325844 46.944843 
L 368.157086 46.890613 
L 365.987894 46.858073 
L 363.818485 46.847225 
L 363.818485 49.016671 
z
" clip-path="url(#p344aecb41f)" style="fill: none; stroke: #000000; stroke-width: 0.5; stroke-linejoin: miter"/>
   </g>
   <g id="patch_6">
    <path d="M 578.593549 263.791734 
L 578.58281 265.939449 
L 578.550596 268.086949 
L 578.496908 270.23402 
L 578.421752 272.380446 
L 578.325136 274.526014 
L 578.20707 276.670508 
L 578.067565 278.813714 
L 577.906635 280.955418 
L 577.724297 283.095406 
L 577.520568 285.233463 
L 577.29547 287.369376 
L 577.049023 289.502931 
L 576.781254 291.633916 
L 576.492189 293.762116 
L 576.181857 295.887319 
L 575.850288 298.009312 
L 575.497516 300.127884 
L 575.123577 302.242822 
L 574.728508 304.353916 
L 574.312347 306.460953 
L 573.875137 308.563723 
L 573.416922 310.662016 
L 572.937747 312.755622 
L 572.437661 314.844331 
L 571.916712 316.927936 
L 571.374955 319.006226 
L 570.812441 321.078996 
L 570.229228 323.146036 
L 569.625375 325.207142 
L 569.000941 327.262106 
L 568.355989 329.310722 
L 567.690583 331.352788 
L 567.00479 333.388096 
L 566.298679 335.416446 
L 565.57232 337.437633 
L 564.825785 339.451455 
L 564.05915 341.457712 
L 563.272492 343.456202 
L 562.465888 345.446726 
L 561.639419 347.429084 
L 560.793169 349.403078 
L 559.927221 351.368512 
L 559.041662 353.325188 
L 558.136581 355.27291 
L 557.212069 357.211485 
L 556.268218 359.140717 
L 555.305121 361.060415 
L 554.322876 362.970386 
L 553.321581 364.87044 
L 552.301336 366.760385 
L 551.262243 368.640034 
L 550.204405 370.509198 
L 549.127929 372.36769 
L 548.032922 374.215325 
L 546.919494 376.051917 
L 545.787756 377.877284 
L 544.637821 379.691242 
L 543.469804 381.49361 
L 542.283823 383.284209 
L 541.079995 385.062858 
L 539.858441 386.82938 
L 538.619283 388.583598 
L 537.362645 390.325337 
L 536.088653 392.054423 
L 534.797434 393.770683 
L 533.489117 395.473945 
L 532.163834 397.164039 
L 530.821716 398.840796 
L 529.462897 400.504048 
L 528.087515 402.153629 
L 526.695706 403.789374 
L 525.287609 405.411119 
L 523.863365 407.018703 
L 522.423117 408.611964 
L 520.967009 410.190743 
L 519.495186 411.754882 
L 518.007795 413.304225 
L 516.504986 414.838617 
L 514.986908 416.357904 
L 513.453713 417.861935 
L 511.905555 419.350558 
L 510.342589 420.823627 
L 508.76497 422.280992 
L 507.172856 423.722508 
L 505.566408 425.148031 
L 503.945784 426.557419 
L 502.311148 427.950531 
L 500.662663 429.327226 
L 499.000493 430.687369 
L 497.324806 432.030821 
L 495.635768 433.35745 
L 493.933548 434.667123 
L 492.218317 435.959708 
L 490.490246 437.235077 
L 488.749508 438.493101 
L 486.996277 439.733656 
L 485.230728 440.956616 
L 483.453038 442.16186 
L 481.663385 443.349267 
L 479.861948 444.518719 
L 478.048906 445.670098 
L 476.224441 446.803289 
L 474.388736 447.91818 
L 472.541973 449.014657 
L 470.684339 450.092613 
L 468.816018 451.151939 
L 466.937197 452.192529 
L 465.048065 453.214279 
L 463.148809 454.217087 
L 461.239621 455.200852 
L 459.320691 456.165477 
L 457.39221 457.110864 
L 455.454373 458.03692 
L 453.507372 458.943552 
L 451.551401 459.830668 
L 449.586658 460.698181 
L 447.613338 461.546003 
L 445.631639 462.37405 
L 443.641758 463.182239 
L 441.643895 463.970489 
L 439.63825 464.738721 
L 437.625022 465.486859 
L 435.604414 466.214827 
L 433.576628 466.922553 
L 431.541866 467.609967 
L 429.500331 468.276998 
L 427.452229 468.923582 
L 425.397763 469.549652 
L 423.337139 470.155147 
L 421.270563 470.740005 
L 419.198242 471.304169 
L 417.120384 471.847582 
L 415.037195 472.370189 
L 412.948884 472.871939 
L 410.85566 473.352781 
L 408.757733 473.812667 
L 406.655312 474.251551 
L 404.548607 474.669389 
L 402.437829 475.06614 
L 400.323189 475.441763 
L 398.204899 475.796222 
L 396.08317 476.12948 
L 393.958215 476.441505 
L 391.830246 476.732264 
L 389.699475 477.00173 
L 387.566117 477.249876 
L 385.430384 477.476675 
L 383.292489 477.682106 
L 381.152647 477.866149 
L 379.011072 478.028784 
L 376.867978 478.169995 
L 374.723579 478.289769 
L 372.578089 478.388094 
L 370.431723 478.464958 
L 368.284696 478.520356 
L 366.137222 478.554281 
L 363.989516 478.56673 
L 363.818485 478.566798 
L 363.818485 480.736243 
L 363.991244 480.736175 
L 366.160644 480.7236 
L 368.329809 480.689332 
L 370.498523 480.633375 
L 372.66657 480.555734 
L 374.833731 480.456416 
L 376.999791 480.335432 
L 379.164533 480.192794 
L 381.32774 480.028517 
L 383.489196 479.842615 
L 385.648686 479.635109 
L 387.805992 479.406018 
L 389.960899 479.155367 
L 392.113193 478.883179 
L 394.262657 478.589482 
L 396.409076 478.274306 
L 398.552237 477.937681 
L 400.691924 477.579642 
L 402.827923 477.200225 
L 404.960022 476.799466 
L 407.088007 476.377408 
L 409.211665 475.93409 
L 411.330783 475.469559 
L 413.445151 474.98386 
L 415.554556 474.477042 
L 417.658787 473.949156 
L 419.757634 473.400254 
L 421.850887 472.830392 
L 423.938337 472.239626 
L 426.019776 471.628015 
L 428.094994 470.99562 
L 430.163784 470.342506 
L 432.22594 469.668737 
L 434.281256 468.97438 
L 436.329525 468.259505 
L 438.370543 467.524183 
L 440.404106 466.768488 
L 442.43001 465.992496 
L 444.448054 465.196284 
L 446.458034 464.379932 
L 448.459751 463.543521 
L 450.453003 462.687135 
L 452.437593 461.810859 
L 454.41332 460.914782 
L 456.379988 459.998993 
L 458.3374 459.063583 
L 460.28536 458.108646 
L 462.223673 457.134277 
L 464.152146 456.140575 
L 466.070586 455.127638 
L 467.9788 454.095567 
L 469.876599 453.044466 
L 471.763792 451.97444 
L 473.64019 450.885596 
L 475.505607 449.778043 
L 477.359855 448.651891 
L 479.202748 447.507253 
L 481.034104 446.344244 
L 482.853738 445.16298 
L 484.661468 443.963579 
L 486.457114 442.74616 
L 488.240497 441.510847 
L 490.011437 440.257762 
L 491.769759 438.98703 
L 493.515285 437.698779 
L 495.247842 436.393137 
L 496.967255 435.070235 
L 498.673355 433.730206 
L 500.365968 432.373183 
L 502.044927 430.999302 
L 503.710064 429.6087 
L 505.361211 428.201517 
L 506.998205 426.777893 
L 508.62088 425.33797 
L 510.229076 423.881893 
L 511.82263 422.409807 
L 513.401384 420.92186 
L 514.96518 419.418199 
L 516.513862 417.898976 
L 518.047274 416.364343 
L 519.565263 414.814452 
L 521.067678 413.249459 
L 522.554368 411.66952 
L 524.025184 410.074794 
L 525.47998 408.46544 
L 526.91861 406.841618 
L 528.34093 405.203492 
L 529.746798 403.551224 
L 531.136073 401.884981 
L 532.508617 400.204928 
L 533.864292 398.511234 
L 535.202962 396.804069 
L 536.524494 395.083602 
L 537.828756 393.350006 
L 539.115616 391.603455 
L 540.384947 389.844122 
L 541.636622 388.072184 
L 542.870515 386.287818 
L 544.086503 384.491203 
L 545.284464 382.682518 
L 546.464279 380.861944 
L 547.625829 379.029663 
L 548.768999 377.185859 
L 549.893674 375.330715 
L 550.999741 373.464417 
L 552.087091 371.587152 
L 553.155614 369.699107 
L 554.205203 367.800472 
L 555.235754 365.891437 
L 556.247163 363.972191 
L 557.23933 362.042927 
L 558.212154 360.103838 
L 559.16554 358.155119 
L 560.099391 356.196962 
L 561.013613 354.229566 
L 561.908117 352.253126 
L 562.782812 350.267839 
L 563.63761 348.273905 
L 564.472427 346.271523 
L 565.287179 344.260893 
L 566.081783 342.242217 
L 566.856162 340.215695 
L 567.610237 338.181531 
L 568.343933 336.139928 
L 569.057177 334.09109 
L 569.749897 332.035222 
L 570.422024 329.97253 
L 571.073491 327.90322 
L 571.704232 325.827499 
L 572.314185 323.745575 
L 572.903289 321.657655 
L 573.471485 319.563948 
L 574.018715 317.464665 
L 574.544925 315.360014 
L 575.050063 313.250206 
L 575.534078 311.135453 
L 575.996922 309.015965 
L 576.438548 306.891955 
L 576.858912 304.763635 
L 577.257972 302.631217 
L 577.635689 300.494916 
L 577.992023 298.354944 
L 578.326941 296.211517 
L 578.640408 294.064847 
L 578.932393 291.91515 
L 579.202867 289.76264 
L 579.451803 287.607534 
L 579.679175 285.450046 
L 579.884962 283.290392 
L 580.069142 281.128788 
L 580.231697 278.965451 
L 580.372611 276.800596 
L 580.49187 274.634441 
L 580.589462 272.467201 
L 580.665376 270.299093 
L 580.719607 268.130335 
L 580.752147 265.961143 
L 580.762994 263.791734 
L 578.593549 263.791734 
z
" clip-path="url(#p344aecb41f)" style="fill: none; stroke: #000000; stroke-width: 0.5; stroke-linejoin: miter"/>
   </g>
   <g id="patch_7">
    <path d="M 363.818485 478.566798 
L 361.67077 478.55606 
L 359.52327 478.523845 
L 357.3762 478.470157 
L 355.229773 478.395001 
L 353.084206 478.298385 
L 350.939712 478.180319 
L 348.796506 478.040814 
L 346.654802 477.879884 
L 344.514814 477.697546 
L 342.376757 477.493817 
L 340.240844 477.268719 
L 338.107288 477.022273 
L 335.976304 476.754503 
L 333.848104 476.465438 
L 331.722901 476.155106 
L 329.600907 475.823537 
L 327.482335 475.470766 
L 325.367397 475.096826 
L 323.256304 474.701757 
L 321.149267 474.285596 
L 319.046497 473.848387 
L 316.948204 473.390171 
L 314.854598 472.910997 
L 312.765889 472.41091 
L 310.682284 471.889962 
L 308.603993 471.348204 
L 306.531224 470.78569 
L 304.464183 470.202477 
L 302.403078 469.598624 
L 300.348114 468.97419 
L 298.299497 468.329238 
L 296.257432 467.663832 
L 294.222123 466.978039 
L 292.193774 466.271928 
L 290.172587 465.545569 
L 288.158764 464.799034 
L 286.152508 464.0324 
L 284.154018 463.245741 
L 282.163494 462.439137 
L 280.181136 461.612668 
L 278.207141 460.766418 
L 276.241708 459.90047 
L 274.285032 459.014911 
L 272.337309 458.109831 
L 270.398735 457.185318 
L 268.469502 456.241467 
L 266.549804 455.27837 
L 264.639833 454.296126 
L 262.73978 453.29483 
L 260.849835 452.274585 
L 258.970186 451.235492 
L 257.101022 450.177654 
L 255.24253 449.101178 
L 253.394895 448.006171 
L 251.558302 446.892743 
L 249.732936 445.761005 
L 247.918978 444.61107 
L 246.116609 443.443053 
L 244.326011 442.257072 
L 242.547362 441.053244 
L 240.78084 439.83169 
L 239.026622 438.592532 
L 237.284882 437.335894 
L 235.555796 436.061902 
L 233.839536 434.770683 
L 232.136274 433.462366 
L 230.44618 432.137083 
L 228.769423 430.794965 
L 227.106171 429.436146 
L 225.45659 428.060764 
L 223.820845 426.668955 
L 222.1991 425.260858 
L 220.591517 423.836614 
L 218.998256 422.396366 
L 217.419477 420.940258 
L 215.855338 419.468435 
L 214.305995 417.981044 
L 212.771603 416.478235 
L 211.252316 414.960157 
L 209.748285 413.426962 
L 208.259661 411.878804 
L 206.786593 410.315838 
L 205.329228 408.738219 
L 203.887712 407.146105 
L 202.462188 405.539657 
L 201.0528 403.919033 
L 199.659689 402.284397 
L 198.282993 400.635912 
L 196.922851 398.973743 
L 195.579398 397.298055 
L 194.252769 395.609017 
L 192.943097 393.906797 
L 191.650511 392.191566 
L 190.375143 390.463495 
L 189.117118 388.722757 
L 187.876564 386.969526 
L 186.653604 385.203977 
L 185.44836 383.426287 
L 184.260952 381.636634 
L 183.091501 379.835197 
L 181.940122 378.022155 
L 180.80693 376.19769 
L 179.69204 374.361985 
L 178.595562 372.515222 
L 177.517607 370.657588 
L 176.458281 368.789267 
L 175.417691 366.910446 
L 174.395941 365.021314 
L 173.393133 363.122059 
L 172.409368 361.21287 
L 171.444743 359.29394 
L 170.499355 357.36546 
L 169.5733 355.427622 
L 168.666668 353.480621 
L 167.779552 351.524651 
L 166.912039 349.559907 
L 166.064217 347.586587 
L 165.23617 345.604888 
L 164.427981 343.615007 
L 163.639731 341.617144 
L 162.871499 339.611499 
L 162.123361 337.598271 
L 161.395393 335.577664 
L 160.687666 333.549877 
L 160.000253 331.515115 
L 159.333221 329.47358 
L 158.686638 327.425478 
L 158.060568 325.371012 
L 157.455073 323.310388 
L 156.870214 321.243812 
L 156.306051 319.171492 
L 155.762638 317.093633 
L 155.24003 315.010444 
L 154.738281 312.922133 
L 154.257439 310.82891 
L 153.797553 308.730982 
L 153.358669 306.628561 
L 152.940831 304.521856 
L 152.54408 302.411078 
L 152.168457 300.296438 
L 151.813998 298.178148 
L 151.48074 296.056419 
L 151.168715 293.931464 
L 150.877955 291.803495 
L 150.608489 289.672724 
L 150.360344 287.539366 
L 150.133545 285.403633 
L 149.928113 283.265738 
L 149.744071 281.125897 
L 149.581436 278.984321 
L 149.440224 276.841227 
L 149.32045 274.696828 
L 149.222126 272.551338 
L 149.145261 270.404972 
L 149.089863 268.257945 
L 149.055938 266.110471 
L 149.04349 263.962765 
L 149.052518 261.815043 
L 149.083023 259.667518 
L 149.135001 257.520405 
L 149.208447 255.37392 
L 149.303354 253.228276 
L 149.419713 251.083688 
L 149.557511 248.940372 
L 149.716735 246.79854 
L 149.897369 244.658408 
L 150.099395 242.520189 
L 150.322793 240.384098 
L 150.56754 238.250347 
L 150.833612 236.11915 
L 151.120983 233.99072 
L 151.429623 231.865271 
L 151.759501 229.743014 
L 152.110586 227.624162 
L 152.482841 225.508926 
L 152.876229 223.397519 
L 153.290712 221.290152 
L 153.726247 219.187034 
L 154.182791 217.088377 
L 154.660298 214.99439 
L 155.158721 212.905283 
L 155.67801 210.821264 
L 156.218113 208.742543 
L 156.778976 206.669326 
L 157.360542 204.601822 
L 157.962754 202.540236 
L 158.585552 200.484776 
L 159.228872 198.435646 
L 159.892652 196.393051 
L 160.576824 194.357197 
L 161.281319 192.328286 
L 162.006069 190.306521 
L 162.750999 188.292105 
L 163.516036 186.285239 
L 164.301103 184.286123 
L 165.106122 182.294957 
L 165.931012 180.311942 
L 166.77569 178.337274 
L 167.640072 176.371151 
L 168.524072 174.413771 
L 169.427602 172.465328 
L 170.35057 170.526018 
L 171.292885 168.596034 
L 172.254452 166.67557 
L 173.235176 164.764818 
L 174.234958 162.863968 
L 175.253698 160.97321 
L 176.291294 159.092735 
L 177.347643 157.222729 
L 178.422638 155.36338 
L 179.516174 153.514874 
L 180.628139 151.677395 
L 181.758423 149.851128 
L 182.906913 148.036255 
L 184.073494 146.232957 
L 185.258049 144.441415 
L 186.460461 142.661808 
L 187.680608 140.894313 
L 188.918368 139.139109 
L 190.173619 137.396369 
L 191.446233 135.666269 
L 192.736085 133.948982 
L 194.043045 132.244678 
L 195.366982 130.55353 
L 196.707765 128.875704 
L 198.065258 127.211371 
L 199.439326 125.560695 
L 200.829833 123.923842 
L 202.236638 122.300976 
L 203.659601 120.692259 
L 205.098579 119.097852 
L 206.55343 117.517914 
L 208.024007 115.952603 
L 209.510163 114.402077 
L 211.011751 112.866488 
L 212.528618 111.345993 
L 214.060615 109.840742 
L 215.607587 108.350885 
L 217.16938 106.876573 
L 218.745838 105.417952 
L 220.336803 103.975168 
L 221.942116 102.548366 
L 223.561616 101.137688 
L 225.195142 99.743276 
L 226.842531 98.365268 
L 228.503616 97.003802 
L 230.178234 95.659015 
L 231.866215 94.331042 
L 233.567391 93.020014 
L 235.281592 91.726063 
L 237.008647 90.449319 
L 238.748383 89.189909 
L 240.500625 87.947959 
L 242.2652 86.723593 
L 244.041929 85.516933 
L 245.830636 84.328101 
L 247.631142 83.157216 
L 249.443267 82.004393 
L 251.266828 80.869749 
L 253.101645 79.753398 
L 254.947534 78.65545 
L 256.804309 77.576015 
L 258.671786 76.515202 
L 260.549777 75.473116 
L 262.438096 74.449862 
L 264.336552 73.445542 
L 266.244956 72.460256 
L 268.163118 71.494104 
L 270.090845 70.547181 
L 272.027944 69.619582 
L 273.974223 68.711401 
L 275.929486 67.822727 
L 277.893538 66.95365 
L 279.866182 66.104257 
L 281.847221 65.274632 
L 283.836458 64.464859 
L 285.833692 63.675018 
L 287.838725 62.905189 
L 289.851356 62.155448 
L 291.871384 61.425871 
L 293.898606 60.71653 
L 295.93282 60.027497 
L 297.973823 59.35884 
L 300.02141 58.710625 
L 302.075377 58.082919 
L 304.135518 57.475784 
L 306.201627 56.88928 
L 308.273498 56.323466 
L 310.350923 55.778399 
L 312.433695 55.254132 
L 314.521606 54.75072 
L 316.614446 54.268211 
L 318.712006 53.806655 
L 320.814078 53.366097 
L 322.920449 52.946581 
L 325.03091 52.54815 
L 327.14525 52.170842 
L 329.263258 51.814697 
L 331.38472 51.479749 
L 333.509427 51.166033 
L 335.637164 50.873578 
L 337.767719 50.602416 
L 339.900879 50.352572 
L 342.036431 50.124072 
L 344.174161 49.916938 
L 346.313855 49.731192 
L 348.4553 49.566851 
L 350.598282 49.423933 
L 352.742585 49.302451 
L 354.887996 49.202419 
L 357.0343 49.123845 
L 359.181282 49.066737 
L 361.328728 49.031102 
L 363.476423 49.016943 
L 363.818485 49.016671 
L 363.818485 46.847225 
L 363.472968 46.847501 
L 361.303579 46.861803 
L 359.134442 46.897798 
L 356.965773 46.955482 
L 354.797789 47.03485 
L 352.630707 47.135893 
L 350.464744 47.258602 
L 348.300117 47.402963 
L 346.137041 47.568964 
L 343.975733 47.756586 
L 341.81641 47.965812 
L 339.659287 48.196621 
L 337.50458 48.448988 
L 335.352504 48.72289 
L 333.203274 49.018298 
L 331.057107 49.335184 
L 328.914215 49.673515 
L 326.774814 50.033258 
L 324.639117 50.414376 
L 322.507338 50.816832 
L 320.37969 51.240585 
L 318.256385 51.685593 
L 316.137637 52.151812 
L 314.023658 52.639195 
L 311.914657 53.147692 
L 309.810847 53.677254 
L 307.712437 54.227827 
L 305.619639 54.799356 
L 303.53266 55.391784 
L 301.451709 56.005052 
L 299.376995 56.639099 
L 297.308725 57.293861 
L 295.247107 57.969272 
L 293.192345 58.665266 
L 291.144646 59.381771 
L 289.104214 60.118718 
L 287.071253 60.876032 
L 285.045967 61.653637 
L 283.028559 62.451456 
L 281.019229 63.269409 
L 279.018179 64.107414 
L 277.025609 64.965387 
L 275.041718 65.843242 
L 273.066705 66.740892 
L 271.100767 67.658247 
L 269.144101 68.595216 
L 267.196902 69.551704 
L 265.259365 70.527615 
L 263.331684 71.522853 
L 261.414051 72.537318 
L 259.506659 73.570908 
L 257.609698 74.62352 
L 255.723358 75.695048 
L 253.847827 76.785386 
L 251.983293 77.894425 
L 250.129943 79.022053 
L 248.287961 80.168158 
L 246.457533 81.332625 
L 244.63884 82.515337 
L 242.832065 83.716178 
L 241.037389 84.935026 
L 239.254991 86.171759 
L 237.485048 87.426254 
L 235.72774 88.698385 
L 233.98324 89.988026 
L 232.251723 91.295047 
L 230.533364 92.619317 
L 228.828332 93.960705 
L 227.1368 95.319076 
L 225.458935 96.694293 
L 223.794907 98.08622 
L 222.14488 99.494718 
L 220.509021 100.919645 
L 218.887493 102.36086 
L 217.280457 103.818217 
L 215.688076 105.291571 
L 214.110507 106.780776 
L 212.547909 108.285681 
L 211.000438 109.806137 
L 209.468248 111.341991 
L 207.951494 112.89309 
L 206.450326 114.459279 
L 204.964894 116.040401 
L 203.495348 117.636298 
L 202.041834 119.24681 
L 200.604498 120.871777 
L 199.183483 122.511035 
L 197.778931 124.164422 
L 196.390983 125.831771 
L 195.019778 127.512916 
L 193.665452 129.207689 
L 192.328142 130.91592 
L 191.00798 132.637439 
L 189.705099 134.372073 
L 188.41963 136.119648 
L 187.1517 137.879991 
L 185.901437 139.652925 
L 184.668965 141.438273 
L 183.454409 143.235856 
L 182.257888 145.045494 
L 181.079523 146.867007 
L 179.919433 148.700213 
L 178.777731 150.544927 
L 177.654534 152.400966 
L 176.549953 154.268144 
L 175.464099 156.146274 
L 174.39708 158.035169 
L 173.349003 159.934639 
L 172.319973 161.844495 
L 171.310092 163.764546 
L 170.319462 165.694599 
L 169.348182 167.634462 
L 168.396349 169.58394 
L 167.464057 171.542839 
L 166.551402 173.510963 
L 165.658472 175.488115 
L 164.785359 177.474097 
L 163.932148 179.468711 
L 163.098926 181.471758 
L 162.285776 183.483036 
L 161.492779 185.502345 
L 160.720014 187.529482 
L 159.967559 189.564246 
L 159.235489 191.606433 
L 158.523877 193.655838 
L 157.832795 195.712257 
L 157.162311 197.775483 
L 156.512492 199.845311 
L 155.883403 201.921534 
L 155.275108 204.003944 
L 154.687668 206.092332 
L 154.12114 208.18649 
L 153.575581 210.286209 
L 153.051047 212.391278 
L 152.547589 214.501488 
L 152.065258 216.616626 
L 151.604103 218.736481 
L 151.164168 220.860843 
L 150.745499 222.989497 
L 150.348137 225.122231 
L 149.972122 227.258833 
L 149.617491 229.399087 
L 149.284281 231.542781 
L 148.972523 233.6897 
L 148.68225 235.839629 
L 148.41349 237.992353 
L 148.166271 240.147657 
L 147.940617 242.305325 
L 147.73655 244.465142 
L 147.554091 246.626892 
L 147.393259 248.790358 
L 147.254069 250.955324 
L 147.136535 253.121574 
L 147.040669 255.288891 
L 146.966481 257.457058 
L 146.913978 259.625859 
L 146.883165 261.795076 
L 146.874045 263.964493 
L 146.88662 266.133893 
L 146.920888 268.303058 
L 146.976845 270.471772 
L 147.054486 272.639819 
L 147.153804 274.80698 
L 147.274787 276.97304 
L 147.417425 279.137782 
L 147.581703 281.300989 
L 147.767604 283.462445 
L 147.975111 285.621935 
L 148.204201 287.779241 
L 148.454853 289.934148 
L 148.727041 292.086442 
L 149.020738 294.235906 
L 149.335914 296.382325 
L 149.672539 298.525486 
L 150.030578 300.665173 
L 150.409995 302.801173 
L 150.810753 304.933271 
L 151.232812 307.061256 
L 151.676129 309.184914 
L 152.140661 311.304033 
L 152.626359 313.4184 
L 153.133177 315.527805 
L 153.661064 317.632036 
L 154.209965 319.730883 
L 154.779828 321.824136 
L 155.370594 323.911587 
L 155.982205 325.993025 
L 156.614599 328.068243 
L 157.267714 330.137033 
L 157.941483 332.199189 
L 158.63584 334.254505 
L 159.350715 336.302774 
L 160.086037 338.343792 
L 160.841731 340.377355 
L 161.617723 342.403259 
L 162.413936 344.421303 
L 163.230288 346.431283 
L 164.066699 348.433 
L 164.923085 350.426252 
L 165.79936 352.410842 
L 166.695438 354.386569 
L 167.611227 356.353237 
L 168.546637 358.310649 
L 169.501574 360.258609 
L 170.475942 362.196922 
L 171.469645 364.125395 
L 172.482582 366.043835 
L 173.514653 367.952049 
L 174.565754 369.849848 
L 175.63578 371.737041 
L 176.724624 373.613439 
L 177.832177 375.478856 
L 178.958329 377.333104 
L 180.102967 379.175997 
L 181.265976 381.007353 
L 182.44724 382.826987 
L 183.646641 384.634717 
L 184.864059 386.430364 
L 186.099373 388.213746 
L 187.352458 389.984687 
L 188.62319 391.743008 
L 189.911441 393.488534 
L 191.217083 395.221091 
L 192.539984 396.940505 
L 193.880014 398.646604 
L 195.237037 400.339217 
L 196.610918 402.018176 
L 198.001519 403.683313 
L 199.408703 405.334461 
L 200.832327 406.971454 
L 202.272249 408.594129 
L 203.728326 410.202325 
L 205.200412 411.795879 
L 206.68836 413.374633 
L 208.19202 414.938429 
L 209.711243 416.487111 
L 211.245877 418.020523 
L 212.795768 419.538512 
L 214.360761 421.040927 
L 215.940699 422.527617 
L 217.535425 423.998433 
L 219.14478 425.453229 
L 220.768601 426.891859 
L 222.406728 428.314179 
L 224.058995 429.720047 
L 225.725239 431.109322 
L 227.405291 432.481866 
L 229.098985 433.837541 
L 230.806151 435.176211 
L 232.526618 436.497743 
L 234.260214 437.802005 
L 236.006765 439.088865 
L 237.766098 440.358196 
L 239.538035 441.609871 
L 241.322401 442.843764 
L 243.119016 444.059752 
L 244.927701 445.257713 
L 246.748275 446.437528 
L 248.580556 447.599078 
L 250.424361 448.742248 
L 252.279505 449.866923 
L 254.145803 450.972991 
L 256.023068 452.06034 
L 257.911112 453.128863 
L 259.809747 454.178452 
L 261.718783 455.209003 
L 263.638029 456.220412 
L 265.567292 457.212579 
L 267.506381 458.185403 
L 269.455101 459.138789 
L 271.413257 460.07264 
L 273.380654 460.986863 
L 275.357094 461.881366 
L 277.34238 462.756061 
L 279.336314 463.610859 
L 281.338696 464.445676 
L 283.349326 465.260428 
L 285.368003 466.055033 
L 287.394525 466.829411 
L 289.428689 467.583486 
L 291.470292 468.317182 
L 293.51913 469.030426 
L 295.574997 469.723146 
L 297.637689 470.395273 
L 299.706999 471.04674 
L 301.78272 471.677481 
L 303.864645 472.287434 
L 305.952565 472.876538 
L 308.046271 473.444734 
L 310.145555 473.991964 
L 312.250206 474.518174 
L 314.360013 475.023312 
L 316.474767 475.507327 
L 318.594255 475.970171 
L 320.718265 476.411797 
L 322.846585 476.832161 
L 324.979002 477.231221 
L 327.115304 477.608938 
L 329.255275 477.965273 
L 331.398703 478.30019 
L 333.545373 478.613657 
L 335.69507 478.905642 
L 337.847579 479.176116 
L 340.002686 479.425052 
L 342.160174 479.652424 
L 344.319828 479.858211 
L 346.481431 480.042391 
L 348.644769 480.204946 
L 350.809623 480.34586 
L 352.975779 480.465119 
L 355.143019 480.562711 
L 357.311126 480.638626 
L 359.479884 480.692856 
L 361.649076 480.725396 
L 363.818485 480.736243 
L 363.818485 478.566798 
z
" clip-path="url(#p344aecb41f)" style="fill: none; stroke: #000000; stroke-width: 0.5; stroke-linejoin: miter"/>
   </g>
   <g id="text_1">
    <text style="font: 3px 'DejaVu Sans', 'Bitstream Vera Sans', 'Computer Modern Sans Serif', 'Lucida Grande', 'Verdana', 'Geneva', 'Lucid', 'Arial', 'Helvetica', 'Avant Garde', sans-serif; text-anchor: start" x="519.60381" y="109.703134" transform="rotate(-45 519.60381 109.703134)">Ecole Nationale dIngnieurs  Abderhamane Baba Tour</text>
   </g>
   <g id="text_2">
    <text style="font: 3px 'DejaVu Sans', 'Bitstream Vera Sans', 'Computer Modern Sans Serif', 'Lucida Grande', 'Verdana', 'Geneva', 'Lucid', 'Arial', 'Helvetica', 'Avant Garde', sans-serif; text-anchor: start" x="517.949512" y="419.534633" transform="rotate(-315 517.949512 419.534633)">University of Bamako</text>
   </g>
   <g id="text_3">
    <text style="font: 3px 'DejaVu Sans', 'Bitstream Vera Sans', 'Computer Modern Sans Serif', 'Lucida Grande', 'Verdana', 'Geneva', 'Lucid', 'Arial', 'Helvetica', 'Avant Garde', sans-serif; text-anchor: end" x="144.704531" y="264.9915" transform="rotate(-0 144.704531 264.9915)">Universit des Sciences, des Techniques et des Technologies de Bamako</text>
   </g>
  </g>
 </g>
 <defs>
  <clipPath id="p344aecb41f">
   <path d="M 591.61022 263.791734 
C 591.61022 233.878398 585.717945 204.255931 574.270606 176.619612 
C 562.823268 148.983292 546.043488 123.870577 524.891565 102.718654 
C 503.739642 81.566731 478.626927 64.786952 450.990608 53.339613 
C 423.354289 41.892275 393.731822 36 363.818485 36 
C 333.905149 36 304.282682 41.892275 276.646362 53.339613 
C 249.010043 64.786952 223.897328 81.566731 202.745405 102.718654 
C 181.593482 123.870577 164.813702 148.983292 153.366364 176.619612 
C 141.919026 204.255931 136.026751 233.878398 136.026751 263.791734 
C 136.026751 293.705071 141.919026 323.327538 153.366364 350.963857 
C 164.813702 378.600176 181.593482 403.712891 202.745405 424.864814 
C 223.897328 446.016738 249.010043 462.796517 276.646362 474.243855 
C 304.282682 485.691194 333.905149 491.583469 363.818485 491.583469 
C 393.731822 491.583469 423.354289 485.691194 450.990608 474.243855 
C 478.626927 462.796517 503.739642 446.016738 524.891565 424.864814 
C 546.043488 403.712891 562.823268 378.600176 574.270606 350.963857 
C 585.717945 323.327538 591.61022 293.705071 591.61022 263.791734 
M 363.818485 263.791734 
C 363.818485 263.791734 363.818485 263.791734 363.818485 263.791734 
C 363.818485 263.791734 363.818485 263.791734 363.818485 263.791734 
C 363.818485 263.791734 363.818485 263.791734 363.818485 263.791734 
C 363.818485 263.791734 363.818485 263.791734 363.818485 263.791734 
C 363.818485 263.791734 363.818485 263.791734 363.818485 263.791734 
C 363.818485 263.791734 363.818485 263.791734 363.818485 263.791734 
C 363.818485 263.791734 363.818485 263.791734 363.818485 263.791734 
C 363.818485 263.791734 363.818485 263.791734 363.818485 263.791734 
C 363.818485 263.791734 363.818485 263.791734 363.818485 263.791734 
C 363.818485 263.791734 363.818485 263.791734 363.818485 263.791734 
C 363.818485 263.791734 363.818485 263.791734 363.818485 263.791734 
C 363.818485 263.791734 363.818485 263.791734 363.818485 263.791734 
C 363.818485 263.791734 363.818485 263.791734 363.818485 263.791734 
C 363.818485 263.791734 363.818485 263.791734 363.818485 263.791734 
C 363.818485 263.791734 363.818485 263.791734 363.818485 263.791734 
C 363.818485 263.791734 363.818485 263.791734 363.818485 263.791734 
z
"/>
  </clipPath>
 </defs>
</svg>
