<?xml version="1.0" encoding="utf-8" standalone="no"?>
<!DOCTYPE svg PUBLIC "-//W3C//DTD SVG 1.1//EN"
  "http://www.w3.org/Graphics/SVG/1.1/DTD/svg11.dtd">
<svg xmlns:xlink="http://www.w3.org/1999/xlink" width="627.1322pt" height="571.89975pt" viewBox="0 0 627.1322 571.89975" xmlns="http://www.w3.org/2000/svg" version="1.1">
 <metadata>
  <rdf:RDF xmlns:dc="http://purl.org/dc/elements/1.1/" xmlns:cc="http://creativecommons.org/ns#" xmlns:rdf="http://www.w3.org/1999/02/22-rdf-syntax-ns#">
   <cc:Work>
    <dc:type rdf:resource="http://purl.org/dc/dcmitype/StillImage"/>
    <dc:date>2024-11-16T03:15:38.455791</dc:date>
    <dc:format>image/svg+xml</dc:format>
    <dc:creator>
     <cc:Agent>
      <dc:title>Matplotlib v3.8.4, https://matplotlib.org/</dc:title>
     </cc:Agent>
    </dc:creator>
   </cc:Work>
  </rdf:RDF>
 </metadata>
 <defs>
  <style type="text/css">*{stroke-linejoin: round; stroke-linecap: butt}</style>
 </defs>
 <g id="figure_1">
  <g id="patch_1">
   <path d="M 0 571.89975 
L 627.1322 571.89975 
L 627.1322 0 
L 0 0 
z
" style="fill: #ffffff"/>
  </g>
  <g id="axes_1">
   <g id="patch_2">
    <path d="M 309.238131 50.28285 
L 311.594762 50.294633 
L 313.951158 50.329982 
L 316.307082 50.388892 
L 318.662299 50.471358 
L 321.016573 50.577372 
L 323.36967 50.706923 
L 325.721354 50.859998 
L 328.071389 51.036582 
L 330.419542 51.236657 
L 332.765576 51.460204 
L 335.109257 51.707198 
L 337.450351 51.977617 
L 339.788624 52.271433 
L 342.123842 52.588617 
L 344.455771 52.929137 
L 346.784179 53.292958 
L 349.108832 53.680045 
L 351.429498 54.090359 
L 353.745945 54.523858 
L 356.057941 54.9805 
L 358.365256 55.460239 
L 360.667657 55.963026 
L 362.964916 56.488812 
L 365.256802 57.037544 
L 367.543086 57.609167 
L 369.82354 58.203624 
L 372.097935 58.820855 
L 374.366045 59.460799 
L 376.627641 60.123392 
L 378.882499 60.808567 
L 381.130393 61.516256 
L 383.371097 62.246388 
L 385.604388 62.99889 
L 387.830042 63.773688 
L 390.047837 64.570702 
L 392.257552 65.389855 
L 394.458964 66.231063 
L 396.651855 67.094243 
L 398.836004 67.979308 
L 401.011193 68.886171 
L 403.177206 69.814739 
L 405.333824 70.764921 
L 407.480833 71.736621 
L 409.618018 72.729742 
L 411.745165 73.744185 
L 413.862061 74.779849 
L 415.968495 75.836629 
L 418.064256 76.91442 
L 420.149134 78.013115 
L 422.222922 79.132603 
L 424.285411 80.272773 
L 426.336395 81.433511 
L 428.37567 82.6147 
L 430.403031 83.816222 
L 432.418275 85.037957 
L 434.421202 86.279784 
L 436.411611 87.541577 
L 438.389302 88.823211 
L 440.354078 90.124557 
L 442.305743 91.445486 
L 444.244101 92.785865 
L 446.168959 94.14556 
L 448.080124 95.524436 
L 449.977404 96.922354 
L 451.860611 98.339175 
L 453.729556 99.774756 
L 455.584051 101.228955 
L 457.423913 102.701626 
L 459.248955 104.192621 
L 461.058997 105.701792 
L 462.853857 107.228988 
L 464.633355 108.774055 
L 466.397314 110.33684 
L 468.145557 111.917187 
L 469.87791 113.514936 
L 471.594199 115.129929 
L 473.294252 116.762003 
L 474.9779 118.410996 
L 476.644974 120.076743 
L 478.295307 121.759078 
L 479.928735 123.457831 
L 481.545094 125.172833 
L 483.144222 126.903912 
L 484.72596 128.650897 
L 486.290149 130.41361 
L 487.836633 132.191878 
L 489.365258 133.985521 
L 490.87587 135.79436 
L 492.368318 137.618215 
L 493.842454 139.456903 
L 495.298129 141.31024 
L 496.735198 143.178041 
L 498.153518 145.060119 
L 499.552946 146.956286 
L 500.933343 148.866352 
L 502.294571 150.790126 
L 503.636493 152.727416 
L 504.958976 154.678029 
L 506.261886 156.641768 
L 507.545095 158.618438 
L 508.808473 160.607841 
L 510.051894 162.609778 
L 511.275234 164.624049 
L 512.47837 166.650453 
L 513.661182 168.688786 
L 514.823553 170.738846 
L 515.965364 172.800426 
L 517.086504 174.873322 
L 518.186858 176.957324 
L 519.266318 179.052227 
L 520.324776 181.157818 
L 521.362125 183.273889 
L 522.378261 185.400227 
L 523.373084 187.536621 
L 524.346494 189.682855 
L 525.298392 191.838716 
L 526.228685 194.003988 
L 527.137279 196.178455 
L 528.024084 198.361899 
L 528.88901 200.554101 
L 529.731971 202.754843 
L 530.552883 204.963904 
L 531.351663 207.181064 
L 532.128233 209.406101 
L 532.882513 211.638792 
L 533.61443 213.878914 
L 534.323908 216.126243 
L 535.010879 218.380555 
L 535.675272 220.641623 
L 536.317022 222.909222 
L 536.936064 225.183125 
L 537.532337 227.463105 
L 538.10578 229.748933 
L 538.656337 232.040381 
L 539.183952 234.337221 
L 539.688573 236.639221 
L 540.170149 238.946153 
L 540.628632 241.257784 
L 541.063976 243.573885 
L 541.476137 245.894224 
L 541.865075 248.218568 
L 542.230751 250.546685 
L 542.573127 252.878343 
L 542.892171 255.213308 
L 543.187849 257.551346 
L 543.460132 259.892224 
L 543.708993 262.235708 
L 543.934407 264.581563 
L 544.136352 266.929555 
L 544.314807 269.279449 
L 544.469755 271.63101 
L 544.60118 273.984003 
L 544.709068 276.338193 
L 544.79341 278.693343 
L 544.854197 281.04922 
L 544.891422 283.405586 
L 544.905082 285.762207 
L 544.895175 288.118847 
L 544.861703 290.475269 
L 544.804669 292.83124 
L 544.724078 295.186522 
L 544.619939 297.54088 
L 544.492262 299.894079 
L 544.341059 302.245884 
L 544.166347 304.596059 
L 543.968142 306.94437 
L 543.746464 309.290581 
L 543.501335 311.634459 
L 543.232781 313.975767 
L 542.940827 316.314274 
L 542.625503 318.649743 
L 542.28684 320.981943 
L 541.924873 323.31064 
L 541.539638 325.635601 
L 541.131172 327.956593 
L 540.699517 330.273384 
L 540.244717 332.585743 
L 539.766815 334.893439 
L 539.265862 337.19624 
L 538.741905 339.493917 
L 538.194999 341.786239 
L 537.625197 344.072978 
L 537.032556 346.353904 
L 536.417136 348.62879 
L 535.778999 350.897409 
L 535.118207 353.159532 
L 534.434828 355.414935 
L 533.728929 357.663391 
L 533.000581 359.904676 
L 532.249858 362.138565 
L 531.476833 364.364836 
L 530.681585 366.583265 
L 529.864192 368.793631 
L 529.024737 370.995713 
L 528.163304 373.18929 
L 527.279978 375.374144 
L 526.374848 377.550054 
L 525.448005 379.716805 
L 524.499541 381.87418 
L 523.529551 384.021962 
L 522.538132 386.159937 
L 521.525383 388.287891 
L 520.491405 390.405611 
L 519.436303 392.512886 
L 518.360181 394.609504 
L 517.263147 396.695257 
L 516.14531 398.769935 
L 515.006783 400.833332 
L 513.847679 402.88524 
L 512.668115 404.925455 
L 511.468207 406.953772 
L 510.248077 408.969989 
L 509.007846 410.973904 
L 507.747638 412.965316 
L 506.46758 414.944028 
L 505.167798 416.90984 
L 503.848424 418.862556 
L 502.509589 420.801981 
L 501.151427 422.72792 
L 499.774073 424.640183 
L 498.377667 426.538576 
L 496.962346 428.42291 
L 495.528254 430.292997 
L 494.075532 432.148651 
L 492.604327 433.989684 
L 491.114785 435.815913 
L 489.607056 437.627156 
L 488.08129 439.423232 
L 486.53764 441.20396 
L 484.97626 442.969163 
L 483.397307 444.718664 
L 481.800937 446.452288 
L 480.187312 448.169862 
L 478.556592 449.871215 
L 476.90894 451.556175 
L 475.244521 453.224575 
L 473.563501 454.876248 
L 471.86605 456.511028 
L 470.152335 458.128752 
L 468.42253 459.729258 
L 466.676805 461.312387 
L 464.915338 462.877979 
L 463.138302 464.425879 
L 461.345877 465.955931 
L 459.538241 467.467983 
L 457.715575 468.961883 
L 455.878062 470.437483 
L 454.025885 471.894633 
L 452.159229 473.333189 
L 450.278281 474.753007 
L 448.383229 476.153945 
L 446.474263 477.535863 
L 444.551573 478.898622 
L 442.615352 480.242087 
L 440.665794 481.566122 
L 438.703093 482.870596 
L 436.727445 484.155378 
L 434.739049 485.42034 
L 432.738102 486.665355 
L 430.724806 487.890298 
L 428.699361 489.095048 
L 426.66197 490.279483 
L 424.612837 491.443485 
L 422.552166 492.586939 
L 420.480165 493.709728 
L 418.397039 494.811742 
L 416.302997 495.89287 
L 414.198249 496.953004 
L 412.083005 497.992038 
L 409.957476 499.009867 
L 407.821876 500.006391 
L 405.676417 500.981509 
L 403.521315 501.935124 
L 401.356784 502.867141 
L 399.183042 503.777467 
L 397.000305 504.66601 
L 394.808792 505.532681 
L 392.608722 506.377394 
L 390.400315 507.200065 
L 388.183792 508.000611 
L 385.959374 508.778952 
L 383.727285 509.53501 
L 381.487746 510.26871 
L 379.240983 510.979978 
L 376.987219 511.668744 
L 374.726681 512.334938 
L 372.459593 512.978493 
L 370.186184 513.599346 
L 367.90668 514.197434 
L 365.621309 514.772697 
L 363.3303 515.325079 
L 361.033881 515.854523 
L 358.732283 516.360976 
L 356.425736 516.844389 
L 354.11447 517.304713 
L 351.798716 517.741901 
L 349.478707 518.15591 
L 347.154673 518.546699 
L 344.826848 518.914228 
L 342.495464 519.258461 
L 340.160754 519.579364 
L 337.822952 519.876904 
L 335.482291 520.151051 
L 333.139006 520.401778 
L 330.793331 520.62906 
L 328.445501 520.832875 
L 326.09575 521.013201 
L 323.744313 521.170022 
L 321.391425 521.30332 
L 319.037322 521.413083 
L 316.682239 521.499301 
L 314.326412 521.561963 
L 311.970076 521.601065 
L 309.613467 521.616601 
L 309.238131 521.6169 
L 309.238131 523.997375 
L 309.617258 523.997073 
L 311.997672 523.98138 
L 314.377809 523.941883 
L 316.757432 523.878588 
L 319.136304 523.7915 
L 321.514186 523.680628 
L 323.89084 523.545983 
L 326.266029 523.387578 
L 328.639515 523.20543 
L 331.011061 522.999557 
L 333.380429 522.769979 
L 335.747384 522.516719 
L 338.111687 522.239803 
L 340.473104 521.939258 
L 342.831396 521.615114 
L 345.18633 521.267404 
L 347.537669 520.896162 
L 349.885177 520.501426 
L 352.228621 520.083234 
L 354.567766 519.64163 
L 356.902379 519.176657 
L 359.232224 518.688361 
L 361.557071 518.176792 
L 363.876685 517.642 
L 366.190836 517.084039 
L 368.499291 516.502965 
L 370.801821 515.898835 
L 373.098194 515.271711 
L 375.388181 514.621655 
L 377.671553 513.948732 
L 379.948082 513.25301 
L 382.21754 512.534557 
L 384.4797 511.793446 
L 386.734336 511.029751 
L 388.981223 510.243548 
L 391.220135 509.434915 
L 393.450849 508.603935 
L 395.673142 507.750689 
L 397.886792 506.875263 
L 400.091576 505.977745 
L 402.287276 505.058225 
L 404.47367 504.116794 
L 406.650541 503.153546 
L 408.817671 502.168578 
L 410.974843 501.161988 
L 413.121842 500.133878 
L 415.258452 499.084349 
L 417.38446 498.013506 
L 419.499654 496.921458 
L 421.603822 495.808313 
L 423.696753 494.674182 
L 425.778238 493.519178 
L 427.84807 492.343418 
L 429.90604 491.147019 
L 431.951944 489.930101 
L 433.985577 488.692784 
L 436.006735 487.435193 
L 438.015216 486.157454 
L 440.01082 484.859694 
L 441.993346 483.542044 
L 443.962597 482.204634 
L 445.918376 480.8476 
L 447.860487 479.471075 
L 449.788735 478.075199 
L 451.702929 476.66011 
L 453.602876 475.22595 
L 455.488387 473.772863 
L 457.359274 472.300994 
L 459.215348 470.81049 
L 461.056424 469.301499 
L 462.882319 467.774174 
L 464.69285 466.228667 
L 466.487835 464.665132 
L 468.267095 463.083725 
L 470.030453 461.484606 
L 471.777731 459.867932 
L 473.508756 458.233868 
L 475.223354 456.582575 
L 476.921353 454.914219 
L 478.602584 453.228966 
L 480.266879 451.526986 
L 481.914071 449.808448 
L 483.543996 448.073525 
L 485.15649 446.322389 
L 486.751393 444.555216 
L 488.328544 442.772183 
L 489.887787 440.973468 
L 491.428964 439.15925 
L 492.951923 437.329712 
L 494.456511 435.485035 
L 495.942576 433.625406 
L 497.409972 431.751009 
L 498.858551 429.862032 
L 500.288167 427.958664 
L 501.698679 426.041095 
L 503.089945 424.109517 
L 504.461826 422.164123 
L 505.814184 420.205108 
L 507.146886 418.232668 
L 508.459796 416.246999 
L 509.752785 414.248301 
L 511.025722 412.236773 
L 512.278481 410.212616 
L 513.510935 408.176033 
L 514.722963 406.127228 
L 515.914442 404.066405 
L 517.085254 401.993771 
L 518.235282 399.909532 
L 519.364409 397.813897 
L 520.472525 395.707077 
L 521.559517 393.58928 
L 522.625277 391.46072 
L 523.669699 389.321608 
L 524.692677 387.17216 
L 525.69411 385.012589 
L 526.673898 382.843112 
L 527.631943 380.663946 
L 528.568148 378.475309 
L 529.482421 376.277419 
L 530.374669 374.070496 
L 531.244804 371.854762 
L 532.092738 369.630437 
L 532.918387 367.397744 
L 533.721668 365.156906 
L 534.502501 362.908148 
L 535.260808 360.651694 
L 535.996513 358.38777 
L 536.709542 356.116602 
L 537.399824 353.838418 
L 538.06729 351.553444 
L 538.711874 349.261911 
L 539.33351 346.964046 
L 539.932137 344.66008 
L 540.507694 342.350243 
L 541.060125 340.034766 
L 541.589374 337.71388 
L 542.095388 335.387818 
L 542.578116 333.056813 
L 543.037511 330.721096 
L 543.473526 328.380903 
L 543.886117 326.036466 
L 544.275244 323.688021 
L 544.640868 321.335803 
L 544.982951 318.980045 
L 545.30146 316.620985 
L 545.596363 314.258857 
L 545.86763 311.893899 
L 546.115235 309.526346 
L 546.339152 307.156436 
L 546.539359 304.784405 
L 546.715836 302.41049 
L 546.868566 300.03493 
L 546.997533 297.657961 
L 547.102724 295.279821 
L 547.184129 292.900748 
L 547.241739 290.52098 
L 547.275549 288.140755 
L 547.285556 285.760311 
L 547.271758 283.379886 
L 547.234157 280.999718 
L 547.172756 278.620045 
L 547.087563 276.241105 
L 546.978584 273.863136 
L 546.845832 271.486375 
L 546.689319 269.111061 
L 546.509061 266.737431 
L 546.305077 264.365721 
L 546.077385 261.996171 
L 545.82601 259.629015 
L 545.550977 257.264492 
L 545.252312 254.902837 
L 544.930047 252.544287 
L 544.584212 250.189077 
L 544.214843 247.837444 
L 543.821976 245.489622 
L 543.405651 243.145845 
L 542.96591 240.806349 
L 542.502795 238.471368 
L 542.016355 236.141134 
L 541.506637 233.815881 
L 540.973693 231.495841 
L 540.417575 229.181247 
L 539.838339 226.872329 
L 539.236044 224.569319 
L 538.610748 222.272448 
L 537.962516 219.981943 
L 537.291412 217.698036 
L 536.597502 215.420954 
L 535.880857 213.150925 
L 535.141547 210.888175 
L 534.379648 208.632931 
L 533.595234 206.38542 
L 532.788385 204.145864 
L 531.959181 201.914489 
L 531.107706 199.691517 
L 530.234043 197.477172 
L 529.338281 195.271673 
L 528.420509 193.075242 
L 527.480819 190.888098 
L 526.519305 188.710461 
L 525.536063 186.542547 
L 524.531192 184.384574 
L 523.504791 182.236758 
L 522.456964 180.099313 
L 521.387815 177.972452 
L 520.297452 175.85639 
L 519.185982 173.751336 
L 518.053518 171.657503 
L 516.900173 169.575098 
L 515.726062 167.504331 
L 514.531302 165.445408 
L 513.316012 163.398536 
L 512.080316 161.363919 
L 510.824335 159.34176 
L 509.548196 157.332262 
L 508.252025 155.335625 
L 506.935954 153.35205 
L 505.600113 151.381735 
L 504.244636 149.424876 
L 502.869659 147.48167 
L 501.475318 145.55231 
L 500.061754 143.63699 
L 498.629108 141.735901 
L 497.177523 139.849234 
L 495.707144 137.977176 
L 494.218118 136.119916 
L 492.710595 134.277638 
L 491.184724 132.450527 
L 489.640659 130.638767 
L 488.078553 128.842537 
L 486.498564 127.062018 
L 484.900849 125.297388 
L 483.285568 123.548822 
L 481.652882 121.816497 
L 480.002955 120.100585 
L 478.335952 118.401257 
L 476.652039 116.718685 
L 474.951384 115.053035 
L 473.234159 113.404475 
L 471.500534 111.773169 
L 469.750683 110.159281 
L 467.984781 108.562971 
L 466.203004 106.984401 
L 464.405531 105.423726 
L 462.592541 103.881104 
L 460.764216 102.356689 
L 458.920739 100.850633 
L 457.062293 99.363087 
L 455.189065 97.894199 
L 453.301242 96.444117 
L 451.399013 95.012985 
L 449.482568 93.600947 
L 447.552099 92.208143 
L 445.607798 90.834713 
L 443.64986 89.480795 
L 441.678482 88.146524 
L 439.693859 86.832032 
L 437.696191 85.537453 
L 435.685678 84.262914 
L 433.662519 83.008544 
L 431.626919 81.774468 
L 429.579079 80.560809 
L 427.519206 79.367689 
L 425.447504 78.195227 
L 423.364182 77.04354 
L 421.269447 75.912744 
L 419.16351 74.802951 
L 417.046579 73.714273 
L 414.918868 72.646818 
L 412.780589 71.600693 
L 410.631956 70.576003 
L 408.473184 69.572851 
L 406.304488 68.591335 
L 404.126085 67.631556 
L 401.938194 66.693608 
L 399.741033 65.777586 
L 397.534822 64.88358 
L 395.319781 64.011681 
L 393.096132 63.161976 
L 390.864097 62.334549 
L 388.6239 61.529484 
L 386.375764 60.74686 
L 384.119915 59.986757 
L 381.856577 59.24925 
L 379.585978 58.534412 
L 377.308344 57.842316 
L 375.023903 57.173031 
L 372.732883 56.526623 
L 370.435514 55.903157 
L 368.132025 55.302695 
L 365.822647 54.725298 
L 363.507611 54.171024 
L 361.187147 53.639927 
L 358.861489 53.132061 
L 356.530869 52.647476 
L 354.195519 52.186222 
L 351.855674 51.748344 
L 349.511566 51.333885 
L 347.163432 50.942888 
L 344.811505 50.575392 
L 342.456021 50.231433 
L 340.097215 49.911045 
L 337.735323 49.614261 
L 335.370581 49.341111 
L 333.003226 49.091621 
L 330.633495 48.865817 
L 328.261624 48.663721 
L 325.887851 48.485353 
L 323.512413 48.330732 
L 321.135548 48.199872 
L 318.757492 48.092788 
L 316.378485 48.009488 
L 313.998764 47.949983 
L 311.618567 47.914277 
L 309.238131 47.902375 
z
" clip-path="url(#p130caa7521)" style="fill: #000080"/>
   </g>
   <g id="patch_3">
    <path d="M 309.238131 521.6169 
L 306.8815 521.605117 
L 304.525105 521.569768 
L 302.169181 521.510858 
L 299.813964 521.428392 
L 297.459689 521.322378 
L 295.106592 521.192827 
L 292.754908 521.039752 
L 290.404873 520.863168 
L 288.056721 520.663093 
L 285.710687 520.439546 
L 283.367006 520.192552 
L 281.025912 519.922133 
L 278.687639 519.628317 
L 276.352421 519.311133 
L 274.020491 518.970613 
L 271.692083 518.606792 
L 269.36743 518.219705 
L 267.046764 517.809391 
L 264.730317 517.375892 
L 262.418321 516.91925 
L 260.111007 516.439511 
L 257.808605 515.936724 
L 255.511347 515.410938 
L 253.21946 514.862206 
L 250.933176 514.290583 
L 248.652722 513.696126 
L 246.378327 513.078895 
L 244.110218 512.438951 
L 241.848621 511.776358 
L 239.593763 511.091183 
L 237.34587 510.383494 
L 235.105166 509.653362 
L 232.871875 508.90086 
L 230.64622 508.126062 
L 228.428425 507.329048 
L 226.218711 506.509895 
L 224.017298 505.668687 
L 221.824408 504.805507 
L 219.640259 503.920442 
L 217.465069 503.013579 
L 215.299057 502.085011 
L 213.142438 501.134829 
L 210.995429 500.163129 
L 208.858245 499.170008 
L 206.731098 498.155565 
L 204.614202 497.119901 
L 202.507768 496.063121 
L 200.412007 494.98533 
L 198.327128 493.886635 
L 196.253341 492.767147 
L 194.190852 491.626977 
L 192.139867 490.466239 
L 190.100593 489.28505 
L 188.073232 488.083528 
L 186.057987 486.861793 
L 184.05506 485.619966 
L 182.064652 484.358173 
L 180.08696 483.076539 
L 178.122184 481.775193 
L 176.170519 480.454264 
L 174.232161 479.113885 
L 172.307304 477.75419 
L 170.396139 476.375314 
L 168.498858 474.977396 
L 166.615651 473.560575 
L 164.746707 472.124994 
L 162.892211 470.670795 
L 161.05235 469.198124 
L 159.227307 467.707129 
L 157.417265 466.197958 
L 155.622406 464.670762 
L 153.842907 463.125695 
L 152.078948 461.56291 
L 150.330705 459.982563 
L 148.598353 458.384814 
L 146.882064 456.769821 
L 145.182011 455.137747 
L 143.498363 453.488754 
L 141.831289 451.823007 
L 140.180955 450.140672 
L 138.547528 448.441919 
L 136.931169 446.726917 
L 135.33204 444.995838 
L 133.750302 443.248853 
L 132.186113 441.48614 
L 130.639629 439.707872 
L 129.111005 437.914229 
L 127.600393 436.10539 
L 126.107944 434.281535 
L 124.633809 432.442847 
L 123.178134 430.58951 
L 121.741064 428.721709 
L 120.322745 426.839631 
L 118.923316 424.943464 
L 117.542919 423.033398 
L 116.181691 421.109624 
L 114.839769 419.172334 
L 113.517287 417.221721 
L 112.214376 415.257982 
L 110.931168 413.281312 
L 109.66779 411.291909 
L 108.424369 409.289972 
L 107.201029 407.275701 
L 105.997893 405.249297 
L 104.81508 403.210964 
L 103.65271 401.160904 
L 102.510898 399.099324 
L 101.389759 397.026428 
L 100.289404 394.942426 
L 99.209944 392.847523 
L 98.151487 390.741932 
L 97.114138 388.625861 
L 96.098001 386.499523 
L 95.103178 384.363129 
L 94.129769 382.216895 
L 93.17787 380.061034 
L 92.247577 377.895762 
L 91.338983 375.721295 
L 90.452179 373.537851 
L 89.587253 371.345649 
L 88.744292 369.144907 
L 87.92338 366.935846 
L 87.124599 364.718686 
L 86.34803 362.493649 
L 85.593749 360.260958 
L 84.861833 358.020836 
L 84.152354 355.773507 
L 83.465384 353.519195 
L 82.80099 351.258127 
L 82.15924 348.990528 
L 81.540198 346.716625 
L 80.943926 344.436645 
L 80.370482 342.150817 
L 79.819925 339.859369 
L 79.29231 337.562529 
L 78.78769 335.260529 
L 78.306114 332.953597 
L 77.847631 330.641966 
L 77.412287 328.325865 
L 77.000125 326.005526 
L 76.611187 323.681182 
L 76.245512 321.353065 
L 75.903135 319.021407 
L 75.584092 316.686442 
L 75.288414 314.348404 
L 75.016131 312.007526 
L 74.76727 309.664042 
L 74.541855 307.318187 
L 74.339911 304.970195 
L 74.161455 302.620301 
L 74.006508 300.26874 
L 73.875083 297.915747 
L 73.767194 295.561557 
L 73.682852 293.206407 
L 73.622066 290.85053 
L 73.584841 288.494164 
L 73.571181 286.137543 
L 73.581088 283.780903 
L 73.61456 281.424481 
L 73.671594 279.06851 
L 73.752185 276.713228 
L 73.856324 274.35887 
L 73.984001 272.005671 
L 74.135203 269.653866 
L 74.309916 267.303691 
L 74.508121 264.95538 
L 74.729799 262.609169 
L 74.974927 260.265291 
L 75.243482 257.923983 
L 75.535436 255.585476 
L 75.85076 253.250007 
L 76.189422 250.917807 
L 76.551389 248.58911 
L 76.936625 246.264149 
L 77.345091 243.943157 
L 77.776745 241.626366 
L 78.231546 239.314007 
L 78.709447 237.006311 
L 79.210401 234.70351 
L 79.734357 232.405833 
L 80.281264 230.113511 
L 80.851066 227.826772 
L 81.443707 225.545846 
L 82.059126 223.27096 
L 82.697264 221.002341 
L 83.358055 218.740218 
L 84.041435 216.484815 
L 84.747333 214.236359 
L 85.475681 211.995074 
L 86.226405 209.761185 
L 86.99943 207.534914 
L 87.794678 205.316485 
L 88.61207 203.106119 
L 89.451525 200.904037 
L 90.312959 198.71046 
L 91.196285 196.525606 
L 92.101414 194.349696 
L 93.028258 192.182945 
L 93.976722 190.02557 
L 94.946712 187.877788 
L 95.938131 185.739813 
L 96.95088 183.611859 
L 97.984857 181.494139 
L 99.03996 179.386864 
L 100.116082 177.290246 
L 101.213116 175.204493 
L 102.330952 173.129815 
L 103.46948 171.066418 
L 104.628583 169.01451 
L 105.808148 166.974295 
L 107.008055 164.945978 
L 108.228185 162.929761 
L 109.468417 160.925846 
L 110.728624 158.934434 
L 112.008683 156.955722 
L 113.308464 154.98991 
L 114.627839 153.037194 
L 115.966674 151.097769 
L 117.324836 149.17183 
L 118.702189 147.259567 
L 120.098596 145.361174 
L 121.513916 143.47684 
L 122.948009 141.606753 
L 124.400731 139.751099 
L 125.871936 137.910066 
L 127.361477 136.083837 
L 128.869207 134.272594 
L 130.394972 132.476518 
L 131.938622 130.69579 
L 133.500002 128.930587 
L 135.078956 127.181086 
L 136.675325 125.447462 
L 138.288951 123.729888 
L 139.919671 122.028535 
L 141.567323 120.343575 
L 143.231742 118.675175 
L 144.912761 117.023502 
L 146.610213 115.388722 
L 148.323927 113.770998 
L 150.053733 112.170492 
L 151.799457 110.587363 
L 153.560925 109.021771 
L 155.33796 107.473871 
L 157.130385 105.943819 
L 158.938021 104.431767 
L 160.760687 102.937867 
L 162.5982 101.462267 
L 164.450378 100.005117 
L 166.317034 98.566561 
L 168.197982 97.146743 
L 170.093033 95.745805 
L 172.002 94.363887 
L 173.924689 93.001128 
L 175.86091 91.657663 
L 177.810469 90.333628 
L 179.77317 89.029154 
L 181.748817 87.744372 
L 183.737214 86.47941 
L 185.73816 85.234395 
L 187.751457 84.009452 
L 189.776901 82.804702 
L 191.814292 81.620267 
L 193.863425 80.456265 
L 195.924096 79.312811 
L 197.996098 78.190022 
L 200.079224 77.088008 
L 202.173266 76.00688 
L 204.278014 74.946746 
L 206.393258 73.907712 
L 208.518786 72.889883 
L 210.654387 71.893359 
L 212.799845 70.918241 
L 214.954948 69.964626 
L 217.119478 69.032609 
L 219.293221 68.122283 
L 221.475958 67.23374 
L 223.66747 66.367069 
L 225.86754 65.522356 
L 228.075947 64.699685 
L 230.29247 63.899139 
L 232.516888 63.120798 
L 234.748978 62.36474 
L 236.988516 61.63104 
L 239.23528 60.919772 
L 241.489043 60.231006 
L 243.749582 59.564812 
L 246.016669 58.921257 
L 248.290079 58.300404 
L 250.569583 57.702316 
L 252.854954 57.127053 
L 255.145963 56.574671 
L 257.442381 56.045227 
L 259.743979 55.538774 
L 262.050526 55.055361 
L 264.361792 54.595037 
L 266.677546 54.157849 
L 268.997556 53.74384 
L 271.321589 53.353051 
L 273.649415 52.985522 
L 275.980799 52.641289 
L 278.315509 52.320386 
L 280.653311 52.022846 
L 282.993971 51.748699 
L 285.337256 51.497972 
L 287.682931 51.27069 
L 290.030762 51.066875 
L 292.380513 50.886549 
L 294.73195 50.729728 
L 297.084837 50.59643 
L 299.43894 50.486667 
L 301.794023 50.400449 
L 304.14985 50.337787 
L 306.506186 50.298685 
L 308.862795 50.283149 
L 309.238131 50.28285 
L 309.238131 47.902375 
L 308.859004 47.902677 
L 306.478591 47.91837 
L 304.098453 47.957867 
L 301.71883 48.021162 
L 299.339959 48.10825 
L 296.962077 48.219122 
L 294.585423 48.353767 
L 292.210234 48.512172 
L 289.836748 48.69432 
L 287.465202 48.900193 
L 285.095833 49.129771 
L 282.728879 49.383031 
L 280.364575 49.659947 
L 278.003159 49.960492 
L 275.644866 50.284636 
L 273.289933 50.632346 
L 270.938594 51.003588 
L 268.591085 51.398324 
L 266.247641 51.816516 
L 263.908496 52.25812 
L 261.573884 52.723093 
L 259.244038 53.211389 
L 256.919192 53.722958 
L 254.599577 54.25775 
L 252.285427 54.815711 
L 249.976971 55.396785 
L 247.674442 56.000915 
L 245.378068 56.628039 
L 243.088081 57.278095 
L 240.804709 57.951018 
L 238.52818 58.64674 
L 236.258722 59.365193 
L 233.996562 60.106304 
L 231.741926 60.869999 
L 229.49504 61.656202 
L 227.256127 62.464835 
L 225.025413 63.295815 
L 222.80312 64.149061 
L 220.589471 65.024487 
L 218.384686 65.922005 
L 216.188987 66.841525 
L 214.002592 67.782956 
L 211.825721 68.746204 
L 209.658591 69.731172 
L 207.501419 70.737762 
L 205.354421 71.765872 
L 203.217811 72.815401 
L 201.091802 73.886244 
L 198.976609 74.978292 
L 196.872441 76.091437 
L 194.77951 77.225568 
L 192.698024 78.380572 
L 190.628193 79.556332 
L 188.570222 80.752731 
L 186.524318 81.969649 
L 184.490686 83.206966 
L 182.469528 84.464557 
L 180.461047 85.742296 
L 178.465443 87.040056 
L 176.482917 88.357706 
L 174.513665 89.695116 
L 172.557887 91.05215 
L 170.615776 92.428675 
L 168.687527 93.824551 
L 166.773334 95.23964 
L 164.873386 96.6738 
L 162.987875 98.126887 
L 161.116989 99.598756 
L 159.260915 101.08926 
L 157.419838 102.598251 
L 155.593943 104.125576 
L 153.783413 105.671083 
L 151.988428 107.234618 
L 150.209167 108.816025 
L 148.44581 110.415144 
L 146.698531 112.031818 
L 144.967507 113.665882 
L 143.252909 115.317175 
L 141.554909 116.985531 
L 139.873678 118.670784 
L 138.209383 120.372764 
L 136.562191 122.091302 
L 134.932267 123.826225 
L 133.319772 125.577361 
L 131.72487 127.344534 
L 130.147718 129.127567 
L 128.588476 130.926282 
L 127.047298 132.7405 
L 125.524339 134.570038 
L 124.019752 136.414715 
L 122.533686 138.274344 
L 121.066291 140.148741 
L 119.617712 142.037718 
L 118.188095 143.941086 
L 116.777584 145.858655 
L 115.386318 147.790233 
L 114.014437 149.735627 
L 112.662078 151.694642 
L 111.329377 153.667082 
L 110.016466 155.652751 
L 108.723478 157.651449 
L 107.450541 159.662977 
L 106.197782 161.687134 
L 104.965327 163.723717 
L 103.7533 165.772522 
L 102.56182 167.833345 
L 101.391008 169.905979 
L 100.240981 171.990218 
L 99.111853 174.085853 
L 98.003738 176.192673 
L 96.916746 178.31047 
L 95.850986 180.43903 
L 94.806564 182.578142 
L 93.783585 184.72759 
L 92.782152 186.887161 
L 91.802364 189.056638 
L 90.84432 191.235804 
L 89.908114 193.424441 
L 88.993842 195.622331 
L 88.101593 197.829254 
L 87.231459 200.044988 
L 86.383524 202.269313 
L 85.557875 204.502006 
L 84.754594 206.742844 
L 83.973761 208.991602 
L 83.215454 211.248056 
L 82.47975 213.51198 
L 81.766721 215.783148 
L 81.076438 218.061332 
L 80.408972 220.346306 
L 79.764389 222.637839 
L 79.142753 224.935704 
L 78.544126 227.23967 
L 77.968568 229.549507 
L 77.416137 231.864984 
L 76.886888 234.18587 
L 76.380874 236.511932 
L 75.898146 238.842937 
L 75.438751 241.178654 
L 75.002737 243.518847 
L 74.590145 245.863284 
L 74.201018 248.211729 
L 73.835395 250.563947 
L 73.493311 252.919705 
L 73.174802 255.278765 
L 72.879899 257.640893 
L 72.608632 260.005851 
L 72.361028 262.373404 
L 72.137111 264.743314 
L 71.936903 267.115345 
L 71.760426 269.48926 
L 71.607697 271.86482 
L 71.47873 274.241789 
L 71.373539 276.619929 
L 71.292134 278.999002 
L 71.234524 281.37877 
L 71.200713 283.758995 
L 71.190707 286.139439 
L 71.204505 288.519864 
L 71.242106 290.900032 
L 71.303506 293.279705 
L 71.3887 295.658645 
L 71.497678 298.036614 
L 71.630431 300.413375 
L 71.786943 302.788689 
L 71.967201 305.162319 
L 72.171186 307.534029 
L 72.398877 309.903579 
L 72.650252 312.270735 
L 72.925286 314.635258 
L 73.22395 316.996913 
L 73.546216 319.355463 
L 73.892051 321.710673 
L 74.26142 324.062306 
L 74.654287 326.410128 
L 75.070612 328.753905 
L 75.510353 331.093401 
L 75.973467 333.428382 
L 76.459907 335.758616 
L 76.969625 338.083869 
L 77.50257 340.403909 
L 78.058688 342.718503 
L 78.637923 345.027421 
L 79.240219 347.330431 
L 79.865514 349.627302 
L 80.513746 351.917807 
L 81.184851 354.201714 
L 81.87876 356.478796 
L 82.595406 358.748825 
L 83.334715 361.011575 
L 84.096615 363.266819 
L 84.881028 365.51433 
L 85.687877 367.753886 
L 86.517081 369.985261 
L 87.368557 372.208233 
L 88.24222 374.422578 
L 89.137982 376.628077 
L 90.055753 378.824508 
L 90.995443 381.011652 
L 91.956957 383.189289 
L 92.940199 385.357203 
L 93.945071 387.515176 
L 94.971471 389.662992 
L 96.019298 391.800437 
L 97.088447 393.927298 
L 98.178811 396.04336 
L 99.29028 398.148414 
L 100.422744 400.242247 
L 101.57609 402.324652 
L 102.750201 404.395419 
L 103.944961 406.454342 
L 105.16025 408.501214 
L 106.395947 410.535831 
L 107.651928 412.55799 
L 108.928067 414.567488 
L 110.224237 416.564125 
L 111.540308 418.5477 
L 112.876149 420.518015 
L 114.231626 422.474874 
L 115.606604 424.41808 
L 117.000944 426.34744 
L 118.414508 428.26276 
L 119.847155 430.163849 
L 121.29874 432.050516 
L 122.769119 433.922574 
L 124.258144 435.779834 
L 125.765668 437.622112 
L 127.291539 439.449223 
L 128.835604 441.260983 
L 130.397709 443.057213 
L 131.977698 444.837732 
L 133.575413 446.602362 
L 135.190694 448.350928 
L 136.82338 450.083253 
L 138.473307 451.799165 
L 140.140311 453.498493 
L 141.824224 455.181065 
L 143.524878 456.846715 
L 145.242104 458.495275 
L 146.975729 460.126581 
L 148.72558 461.740469 
L 150.491482 463.336779 
L 152.273259 464.915349 
L 154.070732 466.476024 
L 155.883721 468.018646 
L 157.712046 469.543061 
L 159.555524 471.049117 
L 161.41397 472.536663 
L 163.287197 474.005551 
L 165.17502 475.455633 
L 167.077249 476.886765 
L 168.993694 478.298803 
L 170.924164 479.691607 
L 172.868465 481.065037 
L 174.826402 482.418955 
L 176.797781 483.753226 
L 178.782403 485.067718 
L 180.780071 486.362297 
L 182.790585 487.636836 
L 184.813743 488.891206 
L 186.849344 490.125282 
L 188.897183 491.338941 
L 190.957057 492.532061 
L 193.028758 493.704523 
L 195.11208 494.85621 
L 197.206815 495.987006 
L 199.312753 497.096799 
L 201.429683 498.185477 
L 203.557394 499.252932 
L 205.695673 500.299057 
L 207.844306 501.323747 
L 210.003079 502.326899 
L 212.171775 503.308415 
L 214.350177 504.268194 
L 216.538068 505.206142 
L 218.73523 506.122164 
L 220.941441 507.01617 
L 223.156482 507.888069 
L 225.380131 508.737774 
L 227.612165 509.565201 
L 229.852363 510.370266 
L 232.100498 511.15289 
L 234.356348 511.912993 
L 236.619685 512.6505 
L 238.890285 513.365338 
L 241.167919 514.057434 
L 243.45236 514.726719 
L 245.74338 515.373127 
L 248.040749 515.996593 
L 250.344237 516.597055 
L 252.653615 517.174452 
L 254.968652 517.728726 
L 257.289115 518.259823 
L 259.614773 518.767689 
L 261.945394 519.252274 
L 264.280743 519.713528 
L 266.620589 520.151406 
L 268.964696 520.565865 
L 271.31283 520.956862 
L 273.664757 521.324358 
L 276.020242 521.668317 
L 278.379048 521.988705 
L 280.74094 522.285489 
L 283.105681 522.558639 
L 285.473036 522.808129 
L 287.842767 523.033933 
L 290.214638 523.236029 
L 292.588411 523.414397 
L 294.963849 523.569018 
L 297.340715 523.699878 
L 299.71877 523.806962 
L 302.097777 523.890262 
L 304.477499 523.949767 
L 306.857696 523.985473 
L 309.238131 523.997375 
z
" clip-path="url(#p130caa7521)" style="fill: #800000"/>
   </g>
   <g id="PatchCollection_1">
    <defs>
     <path id="m27eaa99939" d="M 309.238131 -521.6169 
L 309.238131 -521.6169 
L 311.594762 -521.605117 
L 313.951158 -521.569768 
L 316.307082 -521.510858 
L 318.662299 -521.428392 
L 321.016573 -521.322378 
L 323.36967 -521.192827 
L 325.721354 -521.039752 
L 328.071389 -520.863168 
L 330.419542 -520.663093 
L 332.765576 -520.439546 
L 335.109257 -520.192552 
L 337.450351 -519.922133 
L 339.788624 -519.628317 
L 342.123842 -519.311133 
L 344.455771 -518.970613 
L 346.784179 -518.606792 
L 349.108832 -518.219705 
L 351.429498 -517.809391 
L 353.745945 -517.375892 
L 356.057941 -516.91925 
L 358.365256 -516.439511 
L 360.667657 -515.936724 
L 362.964916 -515.410938 
L 365.256802 -514.862206 
L 367.543086 -514.290583 
L 369.82354 -513.696126 
L 372.097935 -513.078895 
L 374.366045 -512.438951 
L 376.627641 -511.776358 
L 378.882499 -511.091183 
L 381.130393 -510.383494 
L 383.371097 -509.653362 
L 385.604388 -508.90086 
L 387.830042 -508.126062 
L 390.047837 -507.329048 
L 392.257552 -506.509895 
L 394.458964 -505.668687 
L 396.651855 -504.805507 
L 398.836004 -503.920442 
L 401.011193 -503.013579 
L 403.177206 -502.085011 
L 405.333824 -501.134829 
L 407.480833 -500.163129 
L 409.618018 -499.170008 
L 411.745165 -498.155565 
L 413.862061 -497.119901 
L 415.968495 -496.063121 
L 418.064256 -494.98533 
L 420.149134 -493.886635 
L 422.222922 -492.767147 
L 424.285411 -491.626977 
L 426.336395 -490.466239 
L 428.37567 -489.28505 
L 430.403031 -488.083528 
L 432.418275 -486.861793 
L 434.421202 -485.619966 
L 436.411611 -484.358173 
L 438.389302 -483.076539 
L 440.354078 -481.775193 
L 442.305743 -480.454264 
L 444.244101 -479.113885 
L 446.168959 -477.75419 
L 448.080124 -476.375314 
L 449.977404 -474.977396 
L 451.860611 -473.560575 
L 453.729556 -472.124994 
L 455.584051 -470.670795 
L 457.423913 -469.198124 
L 459.248955 -467.707129 
L 461.058997 -466.197958 
L 462.853857 -464.670762 
L 464.633355 -463.125695 
L 466.397314 -461.56291 
L 468.145557 -459.982563 
L 469.87791 -458.384814 
L 471.594199 -456.769821 
L 473.294252 -455.137747 
L 474.9779 -453.488754 
L 476.644974 -451.823007 
L 478.295307 -450.140672 
L 479.928735 -448.441919 
L 481.545094 -446.726917 
L 483.144222 -444.995838 
L 484.72596 -443.248853 
L 486.290149 -441.48614 
L 487.836633 -439.707872 
L 489.365258 -437.914229 
L 490.87587 -436.10539 
L 492.368318 -434.281535 
L 493.842454 -432.442847 
L 495.298129 -430.58951 
L 496.735198 -428.721709 
L 498.153518 -426.839631 
L 499.552946 -424.943464 
L 500.933343 -423.033398 
L 502.294571 -421.109624 
L 503.636493 -419.172334 
L 504.958976 -417.221721 
L 506.261886 -415.257982 
L 507.545095 -413.281312 
L 508.808473 -411.291909 
L 510.051894 -409.289972 
L 511.275234 -407.275701 
L 512.47837 -405.249297 
L 513.661182 -403.210964 
L 514.823553 -401.160904 
L 515.965364 -399.099324 
L 517.086504 -397.026428 
L 518.186858 -394.942426 
L 519.266318 -392.847523 
L 520.324776 -390.741932 
L 521.362125 -388.625861 
L 522.378261 -386.499523 
L 523.373084 -384.363129 
L 524.346494 -382.216895 
L 525.298392 -380.061034 
L 526.228685 -377.895762 
L 527.137279 -375.721295 
L 528.024084 -373.537851 
L 528.88901 -371.345649 
L 529.731971 -369.144907 
L 530.552883 -366.935846 
L 531.351663 -364.718686 
L 532.128233 -362.493649 
L 532.882513 -360.260958 
L 533.61443 -358.020836 
L 534.323908 -355.773507 
L 535.010879 -353.519195 
L 535.675272 -351.258127 
L 536.317022 -348.990528 
L 536.936064 -346.716625 
L 537.532337 -344.436645 
L 538.10578 -342.150817 
L 538.656337 -339.859369 
L 539.183952 -337.562529 
L 539.688573 -335.260529 
L 540.170149 -332.953597 
L 540.628632 -330.641966 
L 541.063976 -328.325865 
L 541.476137 -326.005526 
L 541.865075 -323.681182 
L 542.230751 -321.353065 
L 542.573127 -319.021407 
L 542.892171 -316.686442 
L 543.187849 -314.348404 
L 543.460132 -312.007526 
L 543.708993 -309.664042 
L 543.934407 -307.318187 
L 544.136352 -304.970195 
L 544.314807 -302.620301 
L 544.469755 -300.26874 
L 544.60118 -297.915747 
L 544.709068 -295.561557 
L 544.79341 -293.206407 
L 544.854197 -290.85053 
L 544.891422 -288.494164 
L 544.905082 -286.137543 
L 544.895175 -283.780903 
L 544.861703 -281.424481 
L 544.804669 -279.06851 
L 544.724078 -276.713228 
L 544.619939 -274.35887 
L 544.492262 -272.005671 
L 544.341059 -269.653866 
L 544.166347 -267.303691 
L 543.968142 -264.95538 
L 543.746464 -262.609169 
L 543.501335 -260.265291 
L 543.232781 -257.923983 
L 542.940827 -255.585476 
L 542.625503 -253.250007 
L 542.28684 -250.917807 
L 541.924873 -248.58911 
L 541.539638 -246.264149 
L 541.131172 -243.943157 
L 540.699517 -241.626366 
L 540.244717 -239.314007 
L 539.766815 -237.006311 
L 539.265862 -234.70351 
L 538.741905 -232.405833 
L 538.194999 -230.113511 
L 537.625197 -227.826772 
L 537.032556 -225.545846 
L 536.417136 -223.27096 
L 535.778999 -221.002341 
L 535.118207 -218.740218 
L 534.434828 -216.484815 
L 533.728929 -214.236359 
L 533.000581 -211.995074 
L 532.249858 -209.761185 
L 531.476833 -207.534914 
L 530.681585 -205.316485 
L 529.864192 -203.106119 
L 529.024737 -200.904037 
L 528.163304 -198.71046 
L 527.279978 -196.525606 
L 526.374848 -194.349696 
L 525.448005 -192.182945 
L 524.499541 -190.02557 
L 523.529551 -187.877788 
L 522.538132 -185.739813 
L 521.525383 -183.611859 
L 520.491405 -181.494139 
L 519.436303 -179.386864 
L 518.360181 -177.290246 
L 517.263147 -175.204493 
L 516.14531 -173.129815 
L 515.006783 -171.066418 
L 513.847679 -169.01451 
L 512.668115 -166.974295 
L 511.468207 -164.945978 
L 510.248077 -162.929761 
L 509.007846 -160.925846 
L 507.747638 -158.934434 
L 506.46758 -156.955722 
L 505.167798 -154.98991 
L 503.848424 -153.037194 
L 502.509589 -151.097769 
L 501.151427 -149.17183 
L 499.774073 -147.259567 
L 498.377667 -145.361174 
L 496.962346 -143.47684 
L 495.528254 -141.606753 
L 494.075532 -139.751099 
L 492.604327 -137.910066 
L 491.114785 -136.083837 
L 489.607056 -134.272594 
L 488.08129 -132.476518 
L 486.53764 -130.69579 
L 484.97626 -128.930587 
L 483.397307 -127.181086 
L 481.800937 -125.447462 
L 480.187312 -123.729888 
L 478.556592 -122.028535 
L 476.90894 -120.343575 
L 475.244521 -118.675175 
L 473.563501 -117.023502 
L 471.86605 -115.388722 
L 470.152335 -113.770998 
L 468.42253 -112.170492 
L 466.676805 -110.587363 
L 464.915338 -109.021771 
L 463.138302 -107.473871 
L 461.345877 -105.943819 
L 459.538241 -104.431767 
L 457.715575 -102.937867 
L 455.878062 -101.462267 
L 454.025885 -100.005117 
L 452.159229 -98.566561 
L 450.278281 -97.146743 
L 448.383229 -95.745805 
L 446.474263 -94.363887 
L 444.551573 -93.001128 
L 442.615352 -91.657663 
L 440.665794 -90.333628 
L 438.703093 -89.029154 
L 436.727445 -87.744372 
L 434.739049 -86.47941 
L 432.738102 -85.234395 
L 430.724806 -84.009452 
L 428.699361 -82.804702 
L 426.66197 -81.620267 
L 424.612837 -80.456265 
L 422.552166 -79.312811 
L 420.480165 -78.190022 
L 418.397039 -77.088008 
L 416.302997 -76.00688 
L 414.198249 -74.946746 
L 412.083005 -73.907712 
L 409.957476 -72.889883 
L 407.821876 -71.893359 
L 405.676417 -70.918241 
L 403.521315 -69.964626 
L 401.356784 -69.032609 
L 399.183042 -68.122283 
L 397.000305 -67.23374 
L 394.808792 -66.367069 
L 392.608722 -65.522356 
L 390.400315 -64.699685 
L 388.183792 -63.899139 
L 385.959374 -63.120798 
L 383.727285 -62.36474 
L 381.487746 -61.63104 
L 379.240983 -60.919772 
L 376.987219 -60.231006 
L 374.726681 -59.564812 
L 372.459593 -58.921257 
L 370.186184 -58.300404 
L 367.90668 -57.702316 
L 365.621309 -57.127053 
L 363.3303 -56.574671 
L 361.033881 -56.045227 
L 358.732283 -55.538774 
L 356.425736 -55.055361 
L 354.11447 -54.595037 
L 351.798716 -54.157849 
L 349.478707 -53.74384 
L 347.154673 -53.353051 
L 344.826848 -52.985522 
L 342.495464 -52.641289 
L 340.160754 -52.320386 
L 337.822952 -52.022846 
L 335.482291 -51.748699 
L 333.139006 -51.497972 
L 330.793331 -51.27069 
L 328.445501 -51.066875 
L 326.09575 -50.886549 
L 323.744313 -50.729728 
L 321.391425 -50.59643 
L 319.037322 -50.486667 
L 316.682239 -50.400449 
L 314.326412 -50.337787 
L 311.970076 -50.298685 
L 309.613467 -50.283149 
L 309.238131 -50.28285 
L 309.238131 -50.28285 
Q 309.238131 -285.949875 309.238131 -50.28285 
L 309.238131 -50.28285 
L 309.238131 -50.28285 
L 306.8815 -50.294633 
L 304.525105 -50.329982 
L 302.169181 -50.388892 
L 299.813964 -50.471358 
L 297.459689 -50.577372 
L 295.106592 -50.706923 
L 292.754908 -50.859998 
L 290.404873 -51.036582 
L 288.056721 -51.236657 
L 285.710687 -51.460204 
L 283.367006 -51.707198 
L 281.025912 -51.977617 
L 278.687639 -52.271433 
L 276.352421 -52.588617 
L 274.020491 -52.929137 
L 271.692083 -53.292958 
L 269.36743 -53.680045 
L 267.046764 -54.090359 
L 264.730317 -54.523858 
L 262.418321 -54.9805 
L 260.111007 -55.460239 
L 257.808605 -55.963026 
L 255.511347 -56.488812 
L 253.21946 -57.037544 
L 250.933176 -57.609167 
L 248.652722 -58.203624 
L 246.378327 -58.820855 
L 244.110218 -59.460799 
L 241.848621 -60.123392 
L 239.593763 -60.808567 
L 237.34587 -61.516256 
L 235.105166 -62.246388 
L 232.871875 -62.99889 
L 230.64622 -63.773688 
L 228.428425 -64.570702 
L 226.218711 -65.389855 
L 224.017298 -66.231063 
L 221.824408 -67.094243 
L 219.640259 -67.979308 
L 217.465069 -68.886171 
L 215.299057 -69.814739 
L 213.142438 -70.764921 
L 210.995429 -71.736621 
L 208.858245 -72.729742 
L 206.731098 -73.744185 
L 204.614202 -74.779849 
L 202.507768 -75.836629 
L 200.412007 -76.91442 
L 198.327128 -78.013115 
L 196.253341 -79.132603 
L 194.190852 -80.272773 
L 192.139867 -81.433511 
L 190.100593 -82.6147 
L 188.073232 -83.816222 
L 186.057987 -85.037957 
L 184.05506 -86.279784 
L 182.064652 -87.541577 
L 180.08696 -88.823211 
L 178.122184 -90.124557 
L 176.170519 -91.445486 
L 174.232161 -92.785865 
L 172.307304 -94.14556 
L 170.396139 -95.524436 
L 168.498858 -96.922354 
L 166.615651 -98.339175 
L 164.746707 -99.774756 
L 162.892211 -101.228955 
L 161.05235 -102.701626 
L 159.227307 -104.192621 
L 157.417265 -105.701792 
L 155.622406 -107.228988 
L 153.842907 -108.774055 
L 152.078948 -110.33684 
L 150.330705 -111.917187 
L 148.598353 -113.514936 
L 146.882064 -115.129929 
L 145.182011 -116.762003 
L 143.498363 -118.410996 
L 141.831289 -120.076743 
L 140.180955 -121.759078 
L 138.547528 -123.457831 
L 136.931169 -125.172833 
L 135.33204 -126.903912 
L 133.750302 -128.650897 
L 132.186113 -130.41361 
L 130.639629 -132.191878 
L 129.111005 -133.985521 
L 127.600393 -135.79436 
L 126.107944 -137.618215 
L 124.633809 -139.456903 
L 123.178134 -141.31024 
L 121.741064 -143.178041 
L 120.322745 -145.060119 
L 118.923316 -146.956286 
L 117.542919 -148.866352 
L 116.181691 -150.790126 
L 114.839769 -152.727416 
L 113.517287 -154.678029 
L 112.214376 -156.641768 
L 110.931168 -158.618438 
L 109.66779 -160.607841 
L 108.424369 -162.609778 
L 107.201029 -164.624049 
L 105.997893 -166.650453 
L 104.81508 -168.688786 
L 103.65271 -170.738846 
L 102.510898 -172.800426 
L 101.389759 -174.873322 
L 100.289404 -176.957324 
L 99.209944 -179.052227 
L 98.151487 -181.157818 
L 97.114138 -183.273889 
L 96.098001 -185.400227 
L 95.103178 -187.536621 
L 94.129769 -189.682855 
L 93.17787 -191.838716 
L 92.247577 -194.003988 
L 91.338983 -196.178455 
L 90.452179 -198.361899 
L 89.587253 -200.554101 
L 88.744292 -202.754843 
L 87.92338 -204.963904 
L 87.124599 -207.181064 
L 86.34803 -209.406101 
L 85.593749 -211.638792 
L 84.861833 -213.878914 
L 84.152354 -216.126243 
L 83.465384 -218.380555 
L 82.80099 -220.641623 
L 82.15924 -222.909222 
L 81.540198 -225.183125 
L 80.943926 -227.463105 
L 80.370482 -229.748933 
L 79.819925 -232.040381 
L 79.29231 -234.337221 
L 78.78769 -236.639221 
L 78.306114 -238.946153 
L 77.847631 -241.257784 
L 77.412287 -243.573885 
L 77.000125 -245.894224 
L 76.611187 -248.218568 
L 76.245512 -250.546685 
L 75.903135 -252.878343 
L 75.584092 -255.213308 
L 75.288414 -257.551346 
L 75.016131 -259.892224 
L 74.76727 -262.235708 
L 74.541855 -264.581563 
L 74.339911 -266.929555 
L 74.161455 -269.279449 
L 74.006508 -271.63101 
L 73.875083 -273.984003 
L 73.767194 -276.338193 
L 73.682852 -278.693343 
L 73.622066 -281.04922 
L 73.584841 -283.405586 
L 73.571181 -285.762207 
L 73.581088 -288.118847 
L 73.61456 -290.475269 
L 73.671594 -292.83124 
L 73.752185 -295.186522 
L 73.856324 -297.54088 
L 73.984001 -299.894079 
L 74.135203 -302.245884 
L 74.309916 -304.596059 
L 74.508121 -306.94437 
L 74.729799 -309.290581 
L 74.974927 -311.634459 
L 75.243482 -313.975767 
L 75.535436 -316.314274 
L 75.85076 -318.649743 
L 76.189422 -320.981943 
L 76.551389 -323.31064 
L 76.936625 -325.635601 
L 77.345091 -327.956593 
L 77.776745 -330.273384 
L 78.231546 -332.585743 
L 78.709447 -334.893439 
L 79.210401 -337.19624 
L 79.734357 -339.493917 
L 80.281264 -341.786239 
L 80.851066 -344.072978 
L 81.443707 -346.353904 
L 82.059126 -348.62879 
L 82.697264 -350.897409 
L 83.358055 -353.159532 
L 84.041435 -355.414935 
L 84.747333 -357.663391 
L 85.475681 -359.904676 
L 86.226405 -362.138565 
L 86.99943 -364.364836 
L 87.794678 -366.583265 
L 88.61207 -368.793631 
L 89.451525 -370.995713 
L 90.312959 -373.18929 
L 91.196285 -375.374144 
L 92.101414 -377.550054 
L 93.028258 -379.716805 
L 93.976722 -381.87418 
L 94.946712 -384.021962 
L 95.938131 -386.159937 
L 96.95088 -388.287891 
L 97.984857 -390.405611 
L 99.03996 -392.512886 
L 100.116082 -394.609504 
L 101.213116 -396.695257 
L 102.330952 -398.769935 
L 103.46948 -400.833332 
L 104.628583 -402.88524 
L 105.808148 -404.925455 
L 107.008055 -406.953772 
L 108.228185 -408.969989 
L 109.468417 -410.973904 
L 110.728624 -412.965316 
L 112.008683 -414.944028 
L 113.308464 -416.90984 
L 114.627839 -418.862556 
L 115.966674 -420.801981 
L 117.324836 -422.72792 
L 118.702189 -424.640183 
L 120.098596 -426.538576 
L 121.513916 -428.42291 
L 122.948009 -430.292997 
L 124.400731 -432.148651 
L 125.871936 -433.989684 
L 127.361477 -435.815913 
L 128.869207 -437.627156 
L 130.394972 -439.423232 
L 131.938622 -441.20396 
L 133.500002 -442.969163 
L 135.078956 -444.718664 
L 136.675325 -446.452288 
L 138.288951 -448.169862 
L 139.919671 -449.871215 
L 141.567323 -451.556175 
L 143.231742 -453.224575 
L 144.912761 -454.876248 
L 146.610213 -456.511028 
L 148.323927 -458.128752 
L 150.053733 -459.729258 
L 151.799457 -461.312387 
L 153.560925 -462.877979 
L 155.33796 -464.425879 
L 157.130385 -465.955931 
L 158.938021 -467.467983 
L 160.760687 -468.961883 
L 162.5982 -470.437483 
L 164.450378 -471.894633 
L 166.317034 -473.333189 
L 168.197982 -474.753007 
L 170.093033 -476.153945 
L 172.002 -477.535863 
L 173.924689 -478.898622 
L 175.86091 -480.242087 
L 177.810469 -481.566122 
L 179.77317 -482.870596 
L 181.748817 -484.155378 
L 183.737214 -485.42034 
L 185.73816 -486.665355 
L 187.751457 -487.890298 
L 189.776901 -489.095048 
L 191.814292 -490.279483 
L 193.863425 -491.443485 
L 195.924096 -492.586939 
L 197.996098 -493.709728 
L 200.079224 -494.811742 
L 202.173266 -495.89287 
L 204.278014 -496.953004 
L 206.393258 -497.992038 
L 208.518786 -499.009867 
L 210.654387 -500.006391 
L 212.799845 -500.981509 
L 214.954948 -501.935124 
L 217.119478 -502.867141 
L 219.293221 -503.777467 
L 221.475958 -504.66601 
L 223.66747 -505.532681 
L 225.86754 -506.377394 
L 228.075947 -507.200065 
L 230.29247 -508.000611 
L 232.516888 -508.778952 
L 234.748978 -509.53501 
L 236.988516 -510.26871 
L 239.23528 -510.979978 
L 241.489043 -511.668744 
L 243.749582 -512.334938 
L 246.016669 -512.978493 
L 248.290079 -513.599346 
L 250.569583 -514.197434 
L 252.854954 -514.772697 
L 255.145963 -515.325079 
L 257.442381 -515.854523 
L 259.743979 -516.360976 
L 262.050526 -516.844389 
L 264.361792 -517.304713 
L 266.677546 -517.741901 
L 268.997556 -518.15591 
L 271.321589 -518.546699 
L 273.649415 -518.914228 
L 275.980799 -519.258461 
L 278.315509 -519.579364 
L 280.653311 -519.876904 
L 282.993971 -520.151051 
L 285.337256 -520.401778 
L 287.682931 -520.62906 
L 290.030762 -520.832875 
L 292.380513 -521.013201 
L 294.73195 -521.170022 
L 297.084837 -521.30332 
L 299.43894 -521.413083 
L 301.794023 -521.499301 
L 304.14985 -521.561963 
L 306.506186 -521.601065 
L 308.862795 -521.616601 
L 309.238131 -521.6169 
L 309.238131 -521.6169 
Q 309.238131 -285.949875 309.238131 -521.6169 
z
" style="stroke: #808080; stroke-opacity: 0.5; stroke-width: 0.1"/>
    </defs>
    <g clip-path="url(#p130caa7521)">
     <use xlink:href="#m27eaa99939" x="0" y="571.89975" style="fill: #000080; fill-opacity: 0.5; stroke: #808080; stroke-opacity: 0.5; stroke-width: 0.1"/>
    </g>
   </g>
   <g id="patch_4">
    <path d="M 309.238131 50.28285 
L 311.594762 50.294633 
L 313.951158 50.329982 
L 316.307082 50.388892 
L 318.662299 50.471358 
L 321.016573 50.577372 
L 323.36967 50.706923 
L 325.721354 50.859998 
L 328.071389 51.036582 
L 330.419542 51.236657 
L 332.765576 51.460204 
L 335.109257 51.707198 
L 337.450351 51.977617 
L 339.788624 52.271433 
L 342.123842 52.588617 
L 344.455771 52.929137 
L 346.784179 53.292958 
L 349.108832 53.680045 
L 351.429498 54.090359 
L 353.745945 54.523858 
L 356.057941 54.9805 
L 358.365256 55.460239 
L 360.667657 55.963026 
L 362.964916 56.488812 
L 365.256802 57.037544 
L 367.543086 57.609167 
L 369.82354 58.203624 
L 372.097935 58.820855 
L 374.366045 59.460799 
L 376.627641 60.123392 
L 378.882499 60.808567 
L 381.130393 61.516256 
L 383.371097 62.246388 
L 385.604388 62.99889 
L 387.830042 63.773688 
L 390.047837 64.570702 
L 392.257552 65.389855 
L 394.458964 66.231063 
L 396.651855 67.094243 
L 398.836004 67.979308 
L 401.011193 68.886171 
L 403.177206 69.814739 
L 405.333824 70.764921 
L 407.480833 71.736621 
L 409.618018 72.729742 
L 411.745165 73.744185 
L 413.862061 74.779849 
L 415.968495 75.836629 
L 418.064256 76.91442 
L 420.149134 78.013115 
L 422.222922 79.132603 
L 424.285411 80.272773 
L 426.336395 81.433511 
L 428.37567 82.6147 
L 430.403031 83.816222 
L 432.418275 85.037957 
L 434.421202 86.279784 
L 436.411611 87.541577 
L 438.389302 88.823211 
L 440.354078 90.124557 
L 442.305743 91.445486 
L 444.244101 92.785865 
L 446.168959 94.14556 
L 448.080124 95.524436 
L 449.977404 96.922354 
L 451.860611 98.339175 
L 453.729556 99.774756 
L 455.584051 101.228955 
L 457.423913 102.701626 
L 459.248955 104.192621 
L 461.058997 105.701792 
L 462.853857 107.228988 
L 464.633355 108.774055 
L 466.397314 110.33684 
L 468.145557 111.917187 
L 469.87791 113.514936 
L 471.594199 115.129929 
L 473.294252 116.762003 
L 474.9779 118.410996 
L 476.644974 120.076743 
L 478.295307 121.759078 
L 479.928735 123.457831 
L 481.545094 125.172833 
L 483.144222 126.903912 
L 484.72596 128.650897 
L 486.290149 130.41361 
L 487.836633 132.191878 
L 489.365258 133.985521 
L 490.87587 135.79436 
L 492.368318 137.618215 
L 493.842454 139.456903 
L 495.298129 141.31024 
L 496.735198 143.178041 
L 498.153518 145.060119 
L 499.552946 146.956286 
L 500.933343 148.866352 
L 502.294571 150.790126 
L 503.636493 152.727416 
L 504.958976 154.678029 
L 506.261886 156.641768 
L 507.545095 158.618438 
L 508.808473 160.607841 
L 510.051894 162.609778 
L 511.275234 164.624049 
L 512.47837 166.650453 
L 513.661182 168.688786 
L 514.823553 170.738846 
L 515.965364 172.800426 
L 517.086504 174.873322 
L 518.186858 176.957324 
L 519.266318 179.052227 
L 520.324776 181.157818 
L 521.362125 183.273889 
L 522.378261 185.400227 
L 523.373084 187.536621 
L 524.346494 189.682855 
L 525.298392 191.838716 
L 526.228685 194.003988 
L 527.137279 196.178455 
L 528.024084 198.361899 
L 528.88901 200.554101 
L 529.731971 202.754843 
L 530.552883 204.963904 
L 531.351663 207.181064 
L 532.128233 209.406101 
L 532.882513 211.638792 
L 533.61443 213.878914 
L 534.323908 216.126243 
L 535.010879 218.380555 
L 535.675272 220.641623 
L 536.317022 222.909222 
L 536.936064 225.183125 
L 537.532337 227.463105 
L 538.10578 229.748933 
L 538.656337 232.040381 
L 539.183952 234.337221 
L 539.688573 236.639221 
L 540.170149 238.946153 
L 540.628632 241.257784 
L 541.063976 243.573885 
L 541.476137 245.894224 
L 541.865075 248.218568 
L 542.230751 250.546685 
L 542.573127 252.878343 
L 542.892171 255.213308 
L 543.187849 257.551346 
L 543.460132 259.892224 
L 543.708993 262.235708 
L 543.934407 264.581563 
L 544.136352 266.929555 
L 544.314807 269.279449 
L 544.469755 271.63101 
L 544.60118 273.984003 
L 544.709068 276.338193 
L 544.79341 278.693343 
L 544.854197 281.04922 
L 544.891422 283.405586 
L 544.905082 285.762207 
L 544.895175 288.118847 
L 544.861703 290.475269 
L 544.804669 292.83124 
L 544.724078 295.186522 
L 544.619939 297.54088 
L 544.492262 299.894079 
L 544.341059 302.245884 
L 544.166347 304.596059 
L 543.968142 306.94437 
L 543.746464 309.290581 
L 543.501335 311.634459 
L 543.232781 313.975767 
L 542.940827 316.314274 
L 542.625503 318.649743 
L 542.28684 320.981943 
L 541.924873 323.31064 
L 541.539638 325.635601 
L 541.131172 327.956593 
L 540.699517 330.273384 
L 540.244717 332.585743 
L 539.766815 334.893439 
L 539.265862 337.19624 
L 538.741905 339.493917 
L 538.194999 341.786239 
L 537.625197 344.072978 
L 537.032556 346.353904 
L 536.417136 348.62879 
L 535.778999 350.897409 
L 535.118207 353.159532 
L 534.434828 355.414935 
L 533.728929 357.663391 
L 533.000581 359.904676 
L 532.249858 362.138565 
L 531.476833 364.364836 
L 530.681585 366.583265 
L 529.864192 368.793631 
L 529.024737 370.995713 
L 528.163304 373.18929 
L 527.279978 375.374144 
L 526.374848 377.550054 
L 525.448005 379.716805 
L 524.499541 381.87418 
L 523.529551 384.021962 
L 522.538132 386.159937 
L 521.525383 388.287891 
L 520.491405 390.405611 
L 519.436303 392.512886 
L 518.360181 394.609504 
L 517.263147 396.695257 
L 516.14531 398.769935 
L 515.006783 400.833332 
L 513.847679 402.88524 
L 512.668115 404.925455 
L 511.468207 406.953772 
L 510.248077 408.969989 
L 509.007846 410.973904 
L 507.747638 412.965316 
L 506.46758 414.944028 
L 505.167798 416.90984 
L 503.848424 418.862556 
L 502.509589 420.801981 
L 501.151427 422.72792 
L 499.774073 424.640183 
L 498.377667 426.538576 
L 496.962346 428.42291 
L 495.528254 430.292997 
L 494.075532 432.148651 
L 492.604327 433.989684 
L 491.114785 435.815913 
L 489.607056 437.627156 
L 488.08129 439.423232 
L 486.53764 441.20396 
L 484.97626 442.969163 
L 483.397307 444.718664 
L 481.800937 446.452288 
L 480.187312 448.169862 
L 478.556592 449.871215 
L 476.90894 451.556175 
L 475.244521 453.224575 
L 473.563501 454.876248 
L 471.86605 456.511028 
L 470.152335 458.128752 
L 468.42253 459.729258 
L 466.676805 461.312387 
L 464.915338 462.877979 
L 463.138302 464.425879 
L 461.345877 465.955931 
L 459.538241 467.467983 
L 457.715575 468.961883 
L 455.878062 470.437483 
L 454.025885 471.894633 
L 452.159229 473.333189 
L 450.278281 474.753007 
L 448.383229 476.153945 
L 446.474263 477.535863 
L 444.551573 478.898622 
L 442.615352 480.242087 
L 440.665794 481.566122 
L 438.703093 482.870596 
L 436.727445 484.155378 
L 434.739049 485.42034 
L 432.738102 486.665355 
L 430.724806 487.890298 
L 428.699361 489.095048 
L 426.66197 490.279483 
L 424.612837 491.443485 
L 422.552166 492.586939 
L 420.480165 493.709728 
L 418.397039 494.811742 
L 416.302997 495.89287 
L 414.198249 496.953004 
L 412.083005 497.992038 
L 409.957476 499.009867 
L 407.821876 500.006391 
L 405.676417 500.981509 
L 403.521315 501.935124 
L 401.356784 502.867141 
L 399.183042 503.777467 
L 397.000305 504.66601 
L 394.808792 505.532681 
L 392.608722 506.377394 
L 390.400315 507.200065 
L 388.183792 508.000611 
L 385.959374 508.778952 
L 383.727285 509.53501 
L 381.487746 510.26871 
L 379.240983 510.979978 
L 376.987219 511.668744 
L 374.726681 512.334938 
L 372.459593 512.978493 
L 370.186184 513.599346 
L 367.90668 514.197434 
L 365.621309 514.772697 
L 363.3303 515.325079 
L 361.033881 515.854523 
L 358.732283 516.360976 
L 356.425736 516.844389 
L 354.11447 517.304713 
L 351.798716 517.741901 
L 349.478707 518.15591 
L 347.154673 518.546699 
L 344.826848 518.914228 
L 342.495464 519.258461 
L 340.160754 519.579364 
L 337.822952 519.876904 
L 335.482291 520.151051 
L 333.139006 520.401778 
L 330.793331 520.62906 
L 328.445501 520.832875 
L 326.09575 521.013201 
L 323.744313 521.170022 
L 321.391425 521.30332 
L 319.037322 521.413083 
L 316.682239 521.499301 
L 314.326412 521.561963 
L 311.970076 521.601065 
L 309.613467 521.616601 
L 309.238131 521.6169 
L 309.238131 523.997375 
L 309.617258 523.997073 
L 311.997672 523.98138 
L 314.377809 523.941883 
L 316.757432 523.878588 
L 319.136304 523.7915 
L 321.514186 523.680628 
L 323.89084 523.545983 
L 326.266029 523.387578 
L 328.639515 523.20543 
L 331.011061 522.999557 
L 333.380429 522.769979 
L 335.747384 522.516719 
L 338.111687 522.239803 
L 340.473104 521.939258 
L 342.831396 521.615114 
L 345.18633 521.267404 
L 347.537669 520.896162 
L 349.885177 520.501426 
L 352.228621 520.083234 
L 354.567766 519.64163 
L 356.902379 519.176657 
L 359.232224 518.688361 
L 361.557071 518.176792 
L 363.876685 517.642 
L 366.190836 517.084039 
L 368.499291 516.502965 
L 370.801821 515.898835 
L 373.098194 515.271711 
L 375.388181 514.621655 
L 377.671553 513.948732 
L 379.948082 513.25301 
L 382.21754 512.534557 
L 384.4797 511.793446 
L 386.734336 511.029751 
L 388.981223 510.243548 
L 391.220135 509.434915 
L 393.450849 508.603935 
L 395.673142 507.750689 
L 397.886792 506.875263 
L 400.091576 505.977745 
L 402.287276 505.058225 
L 404.47367 504.116794 
L 406.650541 503.153546 
L 408.817671 502.168578 
L 410.974843 501.161988 
L 413.121842 500.133878 
L 415.258452 499.084349 
L 417.38446 498.013506 
L 419.499654 496.921458 
L 421.603822 495.808313 
L 423.696753 494.674182 
L 425.778238 493.519178 
L 427.84807 492.343418 
L 429.90604 491.147019 
L 431.951944 489.930101 
L 433.985577 488.692784 
L 436.006735 487.435193 
L 438.015216 486.157454 
L 440.01082 484.859694 
L 441.993346 483.542044 
L 443.962597 482.204634 
L 445.918376 480.8476 
L 447.860487 479.471075 
L 449.788735 478.075199 
L 451.702929 476.66011 
L 453.602876 475.22595 
L 455.488387 473.772863 
L 457.359274 472.300994 
L 459.215348 470.81049 
L 461.056424 469.301499 
L 462.882319 467.774174 
L 464.69285 466.228667 
L 466.487835 464.665132 
L 468.267095 463.083725 
L 470.030453 461.484606 
L 471.777731 459.867932 
L 473.508756 458.233868 
L 475.223354 456.582575 
L 476.921353 454.914219 
L 478.602584 453.228966 
L 480.266879 451.526986 
L 481.914071 449.808448 
L 483.543996 448.073525 
L 485.15649 446.322389 
L 486.751393 444.555216 
L 488.328544 442.772183 
L 489.887787 440.973468 
L 491.428964 439.15925 
L 492.951923 437.329712 
L 494.456511 435.485035 
L 495.942576 433.625406 
L 497.409972 431.751009 
L 498.858551 429.862032 
L 500.288167 427.958664 
L 501.698679 426.041095 
L 503.089945 424.109517 
L 504.461826 422.164123 
L 505.814184 420.205108 
L 507.146886 418.232668 
L 508.459796 416.246999 
L 509.752785 414.248301 
L 511.025722 412.236773 
L 512.278481 410.212616 
L 513.510935 408.176033 
L 514.722963 406.127228 
L 515.914442 404.066405 
L 517.085254 401.993771 
L 518.235282 399.909532 
L 519.364409 397.813897 
L 520.472525 395.707077 
L 521.559517 393.58928 
L 522.625277 391.46072 
L 523.669699 389.321608 
L 524.692677 387.17216 
L 525.69411 385.012589 
L 526.673898 382.843112 
L 527.631943 380.663946 
L 528.568148 378.475309 
L 529.482421 376.277419 
L 530.374669 374.070496 
L 531.244804 371.854762 
L 532.092738 369.630437 
L 532.918387 367.397744 
L 533.721668 365.156906 
L 534.502501 362.908148 
L 535.260808 360.651694 
L 535.996513 358.38777 
L 536.709542 356.116602 
L 537.399824 353.838418 
L 538.06729 351.553444 
L 538.711874 349.261911 
L 539.33351 346.964046 
L 539.932137 344.66008 
L 540.507694 342.350243 
L 541.060125 340.034766 
L 541.589374 337.71388 
L 542.095388 335.387818 
L 542.578116 333.056813 
L 543.037511 330.721096 
L 543.473526 328.380903 
L 543.886117 326.036466 
L 544.275244 323.688021 
L 544.640868 321.335803 
L 544.982951 318.980045 
L 545.30146 316.620985 
L 545.596363 314.258857 
L 545.86763 311.893899 
L 546.115235 309.526346 
L 546.339152 307.156436 
L 546.539359 304.784405 
L 546.715836 302.41049 
L 546.868566 300.03493 
L 546.997533 297.657961 
L 547.102724 295.279821 
L 547.184129 292.900748 
L 547.241739 290.52098 
L 547.275549 288.140755 
L 547.285556 285.760311 
L 547.271758 283.379886 
L 547.234157 280.999718 
L 547.172756 278.620045 
L 547.087563 276.241105 
L 546.978584 273.863136 
L 546.845832 271.486375 
L 546.689319 269.111061 
L 546.509061 266.737431 
L 546.305077 264.365721 
L 546.077385 261.996171 
L 545.82601 259.629015 
L 545.550977 257.264492 
L 545.252312 254.902837 
L 544.930047 252.544287 
L 544.584212 250.189077 
L 544.214843 247.837444 
L 543.821976 245.489622 
L 543.405651 243.145845 
L 542.96591 240.806349 
L 542.502795 238.471368 
L 542.016355 236.141134 
L 541.506637 233.815881 
L 540.973693 231.495841 
L 540.417575 229.181247 
L 539.838339 226.872329 
L 539.236044 224.569319 
L 538.610748 222.272448 
L 537.962516 219.981943 
L 537.291412 217.698036 
L 536.597502 215.420954 
L 535.880857 213.150925 
L 535.141547 210.888175 
L 534.379648 208.632931 
L 533.595234 206.38542 
L 532.788385 204.145864 
L 531.959181 201.914489 
L 531.107706 199.691517 
L 530.234043 197.477172 
L 529.338281 195.271673 
L 528.420509 193.075242 
L 527.480819 190.888098 
L 526.519305 188.710461 
L 525.536063 186.542547 
L 524.531192 184.384574 
L 523.504791 182.236758 
L 522.456964 180.099313 
L 521.387815 177.972452 
L 520.297452 175.85639 
L 519.185982 173.751336 
L 518.053518 171.657503 
L 516.900173 169.575098 
L 515.726062 167.504331 
L 514.531302 165.445408 
L 513.316012 163.398536 
L 512.080316 161.363919 
L 510.824335 159.34176 
L 509.548196 157.332262 
L 508.252025 155.335625 
L 506.935954 153.35205 
L 505.600113 151.381735 
L 504.244636 149.424876 
L 502.869659 147.48167 
L 501.475318 145.55231 
L 500.061754 143.63699 
L 498.629108 141.735901 
L 497.177523 139.849234 
L 495.707144 137.977176 
L 494.218118 136.119916 
L 492.710595 134.277638 
L 491.184724 132.450527 
L 489.640659 130.638767 
L 488.078553 128.842537 
L 486.498564 127.062018 
L 484.900849 125.297388 
L 483.285568 123.548822 
L 481.652882 121.816497 
L 480.002955 120.100585 
L 478.335952 118.401257 
L 476.652039 116.718685 
L 474.951384 115.053035 
L 473.234159 113.404475 
L 471.500534 111.773169 
L 469.750683 110.159281 
L 467.984781 108.562971 
L 466.203004 106.984401 
L 464.405531 105.423726 
L 462.592541 103.881104 
L 460.764216 102.356689 
L 458.920739 100.850633 
L 457.062293 99.363087 
L 455.189065 97.894199 
L 453.301242 96.444117 
L 451.399013 95.012985 
L 449.482568 93.600947 
L 447.552099 92.208143 
L 445.607798 90.834713 
L 443.64986 89.480795 
L 441.678482 88.146524 
L 439.693859 86.832032 
L 437.696191 85.537453 
L 435.685678 84.262914 
L 433.662519 83.008544 
L 431.626919 81.774468 
L 429.579079 80.560809 
L 427.519206 79.367689 
L 425.447504 78.195227 
L 423.364182 77.04354 
L 421.269447 75.912744 
L 419.16351 74.802951 
L 417.046579 73.714273 
L 414.918868 72.646818 
L 412.780589 71.600693 
L 410.631956 70.576003 
L 408.473184 69.572851 
L 406.304488 68.591335 
L 404.126085 67.631556 
L 401.938194 66.693608 
L 399.741033 65.777586 
L 397.534822 64.88358 
L 395.319781 64.011681 
L 393.096132 63.161976 
L 390.864097 62.334549 
L 388.6239 61.529484 
L 386.375764 60.74686 
L 384.119915 59.986757 
L 381.856577 59.24925 
L 379.585978 58.534412 
L 377.308344 57.842316 
L 375.023903 57.173031 
L 372.732883 56.526623 
L 370.435514 55.903157 
L 368.132025 55.302695 
L 365.822647 54.725298 
L 363.507611 54.171024 
L 361.187147 53.639927 
L 358.861489 53.132061 
L 356.530869 52.647476 
L 354.195519 52.186222 
L 351.855674 51.748344 
L 349.511566 51.333885 
L 347.163432 50.942888 
L 344.811505 50.575392 
L 342.456021 50.231433 
L 340.097215 49.911045 
L 337.735323 49.614261 
L 335.370581 49.341111 
L 333.003226 49.091621 
L 330.633495 48.865817 
L 328.261624 48.663721 
L 325.887851 48.485353 
L 323.512413 48.330732 
L 321.135548 48.199872 
L 318.757492 48.092788 
L 316.378485 48.009488 
L 313.998764 47.949983 
L 311.618567 47.914277 
L 309.238131 47.902375 
L 309.238131 50.28285 
z
" clip-path="url(#p130caa7521)" style="fill: none; stroke: #000000; stroke-width: 0.5; stroke-linejoin: miter"/>
   </g>
   <g id="patch_5">
    <path d="M 309.238131 521.6169 
L 306.8815 521.605117 
L 304.525105 521.569768 
L 302.169181 521.510858 
L 299.813964 521.428392 
L 297.459689 521.322378 
L 295.106592 521.192827 
L 292.754908 521.039752 
L 290.404873 520.863168 
L 288.056721 520.663093 
L 285.710687 520.439546 
L 283.367006 520.192552 
L 281.025912 519.922133 
L 278.687639 519.628317 
L 276.352421 519.311133 
L 274.020491 518.970613 
L 271.692083 518.606792 
L 269.36743 518.219705 
L 267.046764 517.809391 
L 264.730317 517.375892 
L 262.418321 516.91925 
L 260.111007 516.439511 
L 257.808605 515.936724 
L 255.511347 515.410938 
L 253.21946 514.862206 
L 250.933176 514.290583 
L 248.652722 513.696126 
L 246.378327 513.078895 
L 244.110218 512.438951 
L 241.848621 511.776358 
L 239.593763 511.091183 
L 237.34587 510.383494 
L 235.105166 509.653362 
L 232.871875 508.90086 
L 230.64622 508.126062 
L 228.428425 507.329048 
L 226.218711 506.509895 
L 224.017298 505.668687 
L 221.824408 504.805507 
L 219.640259 503.920442 
L 217.465069 503.013579 
L 215.299057 502.085011 
L 213.142438 501.134829 
L 210.995429 500.163129 
L 208.858245 499.170008 
L 206.731098 498.155565 
L 204.614202 497.119901 
L 202.507768 496.063121 
L 200.412007 494.98533 
L 198.327128 493.886635 
L 196.253341 492.767147 
L 194.190852 491.626977 
L 192.139867 490.466239 
L 190.100593 489.28505 
L 188.073232 488.083528 
L 186.057987 486.861793 
L 184.05506 485.619966 
L 182.064652 484.358173 
L 180.08696 483.076539 
L 178.122184 481.775193 
L 176.170519 480.454264 
L 174.232161 479.113885 
L 172.307304 477.75419 
L 170.396139 476.375314 
L 168.498858 474.977396 
L 166.615651 473.560575 
L 164.746707 472.124994 
L 162.892211 470.670795 
L 161.05235 469.198124 
L 159.227307 467.707129 
L 157.417265 466.197958 
L 155.622406 464.670762 
L 153.842907 463.125695 
L 152.078948 461.56291 
L 150.330705 459.982563 
L 148.598353 458.384814 
L 146.882064 456.769821 
L 145.182011 455.137747 
L 143.498363 453.488754 
L 141.831289 451.823007 
L 140.180955 450.140672 
L 138.547528 448.441919 
L 136.931169 446.726917 
L 135.33204 444.995838 
L 133.750302 443.248853 
L 132.186113 441.48614 
L 130.639629 439.707872 
L 129.111005 437.914229 
L 127.600393 436.10539 
L 126.107944 434.281535 
L 124.633809 432.442847 
L 123.178134 430.58951 
L 121.741064 428.721709 
L 120.322745 426.839631 
L 118.923316 424.943464 
L 117.542919 423.033398 
L 116.181691 421.109624 
L 114.839769 419.172334 
L 113.517287 417.221721 
L 112.214376 415.257982 
L 110.931168 413.281312 
L 109.66779 411.291909 
L 108.424369 409.289972 
L 107.201029 407.275701 
L 105.997893 405.249297 
L 104.81508 403.210964 
L 103.65271 401.160904 
L 102.510898 399.099324 
L 101.389759 397.026428 
L 100.289404 394.942426 
L 99.209944 392.847523 
L 98.151487 390.741932 
L 97.114138 388.625861 
L 96.098001 386.499523 
L 95.103178 384.363129 
L 94.129769 382.216895 
L 93.17787 380.061034 
L 92.247577 377.895762 
L 91.338983 375.721295 
L 90.452179 373.537851 
L 89.587253 371.345649 
L 88.744292 369.144907 
L 87.92338 366.935846 
L 87.124599 364.718686 
L 86.34803 362.493649 
L 85.593749 360.260958 
L 84.861833 358.020836 
L 84.152354 355.773507 
L 83.465384 353.519195 
L 82.80099 351.258127 
L 82.15924 348.990528 
L 81.540198 346.716625 
L 80.943926 344.436645 
L 80.370482 342.150817 
L 79.819925 339.859369 
L 79.29231 337.562529 
L 78.78769 335.260529 
L 78.306114 332.953597 
L 77.847631 330.641966 
L 77.412287 328.325865 
L 77.000125 326.005526 
L 76.611187 323.681182 
L 76.245512 321.353065 
L 75.903135 319.021407 
L 75.584092 316.686442 
L 75.288414 314.348404 
L 75.016131 312.007526 
L 74.76727 309.664042 
L 74.541855 307.318187 
L 74.339911 304.970195 
L 74.161455 302.620301 
L 74.006508 300.26874 
L 73.875083 297.915747 
L 73.767194 295.561557 
L 73.682852 293.206407 
L 73.622066 290.85053 
L 73.584841 288.494164 
L 73.571181 286.137543 
L 73.581088 283.780903 
L 73.61456 281.424481 
L 73.671594 279.06851 
L 73.752185 276.713228 
L 73.856324 274.35887 
L 73.984001 272.005671 
L 74.135203 269.653866 
L 74.309916 267.303691 
L 74.508121 264.95538 
L 74.729799 262.609169 
L 74.974927 260.265291 
L 75.243482 257.923983 
L 75.535436 255.585476 
L 75.85076 253.250007 
L 76.189422 250.917807 
L 76.551389 248.58911 
L 76.936625 246.264149 
L 77.345091 243.943157 
L 77.776745 241.626366 
L 78.231546 239.314007 
L 78.709447 237.006311 
L 79.210401 234.70351 
L 79.734357 232.405833 
L 80.281264 230.113511 
L 80.851066 227.826772 
L 81.443707 225.545846 
L 82.059126 223.27096 
L 82.697264 221.002341 
L 83.358055 218.740218 
L 84.041435 216.484815 
L 84.747333 214.236359 
L 85.475681 211.995074 
L 86.226405 209.761185 
L 86.99943 207.534914 
L 87.794678 205.316485 
L 88.61207 203.106119 
L 89.451525 200.904037 
L 90.312959 198.71046 
L 91.196285 196.525606 
L 92.101414 194.349696 
L 93.028258 192.182945 
L 93.976722 190.02557 
L 94.946712 187.877788 
L 95.938131 185.739813 
L 96.95088 183.611859 
L 97.984857 181.494139 
L 99.03996 179.386864 
L 100.116082 177.290246 
L 101.213116 175.204493 
L 102.330952 173.129815 
L 103.46948 171.066418 
L 104.628583 169.01451 
L 105.808148 166.974295 
L 107.008055 164.945978 
L 108.228185 162.929761 
L 109.468417 160.925846 
L 110.728624 158.934434 
L 112.008683 156.955722 
L 113.308464 154.98991 
L 114.627839 153.037194 
L 115.966674 151.097769 
L 117.324836 149.17183 
L 118.702189 147.259567 
L 120.098596 145.361174 
L 121.513916 143.47684 
L 122.948009 141.606753 
L 124.400731 139.751099 
L 125.871936 137.910066 
L 127.361477 136.083837 
L 128.869207 134.272594 
L 130.394972 132.476518 
L 131.938622 130.69579 
L 133.500002 128.930587 
L 135.078956 127.181086 
L 136.675325 125.447462 
L 138.288951 123.729888 
L 139.919671 122.028535 
L 141.567323 120.343575 
L 143.231742 118.675175 
L 144.912761 117.023502 
L 146.610213 115.388722 
L 148.323927 113.770998 
L 150.053733 112.170492 
L 151.799457 110.587363 
L 153.560925 109.021771 
L 155.33796 107.473871 
L 157.130385 105.943819 
L 158.938021 104.431767 
L 160.760687 102.937867 
L 162.5982 101.462267 
L 164.450378 100.005117 
L 166.317034 98.566561 
L 168.197982 97.146743 
L 170.093033 95.745805 
L 172.002 94.363887 
L 173.924689 93.001128 
L 175.86091 91.657663 
L 177.810469 90.333628 
L 179.77317 89.029154 
L 181.748817 87.744372 
L 183.737214 86.47941 
L 185.73816 85.234395 
L 187.751457 84.009452 
L 189.776901 82.804702 
L 191.814292 81.620267 
L 193.863425 80.456265 
L 195.924096 79.312811 
L 197.996098 78.190022 
L 200.079224 77.088008 
L 202.173266 76.00688 
L 204.278014 74.946746 
L 206.393258 73.907712 
L 208.518786 72.889883 
L 210.654387 71.893359 
L 212.799845 70.918241 
L 214.954948 69.964626 
L 217.119478 69.032609 
L 219.293221 68.122283 
L 221.475958 67.23374 
L 223.66747 66.367069 
L 225.86754 65.522356 
L 228.075947 64.699685 
L 230.29247 63.899139 
L 232.516888 63.120798 
L 234.748978 62.36474 
L 236.988516 61.63104 
L 239.23528 60.919772 
L 241.489043 60.231006 
L 243.749582 59.564812 
L 246.016669 58.921257 
L 248.290079 58.300404 
L 250.569583 57.702316 
L 252.854954 57.127053 
L 255.145963 56.574671 
L 257.442381 56.045227 
L 259.743979 55.538774 
L 262.050526 55.055361 
L 264.361792 54.595037 
L 266.677546 54.157849 
L 268.997556 53.74384 
L 271.321589 53.353051 
L 273.649415 52.985522 
L 275.980799 52.641289 
L 278.315509 52.320386 
L 280.653311 52.022846 
L 282.993971 51.748699 
L 285.337256 51.497972 
L 287.682931 51.27069 
L 290.030762 51.066875 
L 292.380513 50.886549 
L 294.73195 50.729728 
L 297.084837 50.59643 
L 299.43894 50.486667 
L 301.794023 50.400449 
L 304.14985 50.337787 
L 306.506186 50.298685 
L 308.862795 50.283149 
L 309.238131 50.28285 
L 309.238131 47.902375 
L 308.859004 47.902677 
L 306.478591 47.91837 
L 304.098453 47.957867 
L 301.71883 48.021162 
L 299.339959 48.10825 
L 296.962077 48.219122 
L 294.585423 48.353767 
L 292.210234 48.512172 
L 289.836748 48.69432 
L 287.465202 48.900193 
L 285.095833 49.129771 
L 282.728879 49.383031 
L 280.364575 49.659947 
L 278.003159 49.960492 
L 275.644866 50.284636 
L 273.289933 50.632346 
L 270.938594 51.003588 
L 268.591085 51.398324 
L 266.247641 51.816516 
L 263.908496 52.25812 
L 261.573884 52.723093 
L 259.244038 53.211389 
L 256.919192 53.722958 
L 254.599577 54.25775 
L 252.285427 54.815711 
L 249.976971 55.396785 
L 247.674442 56.000915 
L 245.378068 56.628039 
L 243.088081 57.278095 
L 240.804709 57.951018 
L 238.52818 58.64674 
L 236.258722 59.365193 
L 233.996562 60.106304 
L 231.741926 60.869999 
L 229.49504 61.656202 
L 227.256127 62.464835 
L 225.025413 63.295815 
L 222.80312 64.149061 
L 220.589471 65.024487 
L 218.384686 65.922005 
L 216.188987 66.841525 
L 214.002592 67.782956 
L 211.825721 68.746204 
L 209.658591 69.731172 
L 207.501419 70.737762 
L 205.354421 71.765872 
L 203.217811 72.815401 
L 201.091802 73.886244 
L 198.976609 74.978292 
L 196.872441 76.091437 
L 194.77951 77.225568 
L 192.698024 78.380572 
L 190.628193 79.556332 
L 188.570222 80.752731 
L 186.524318 81.969649 
L 184.490686 83.206966 
L 182.469528 84.464557 
L 180.461047 85.742296 
L 178.465443 87.040056 
L 176.482917 88.357706 
L 174.513665 89.695116 
L 172.557887 91.05215 
L 170.615776 92.428675 
L 168.687527 93.824551 
L 166.773334 95.23964 
L 164.873386 96.6738 
L 162.987875 98.126887 
L 161.116989 99.598756 
L 159.260915 101.08926 
L 157.419838 102.598251 
L 155.593943 104.125576 
L 153.783413 105.671083 
L 151.988428 107.234618 
L 150.209167 108.816025 
L 148.44581 110.415144 
L 146.698531 112.031818 
L 144.967507 113.665882 
L 143.252909 115.317175 
L 141.554909 116.985531 
L 139.873678 118.670784 
L 138.209383 120.372764 
L 136.562191 122.091302 
L 134.932267 123.826225 
L 133.319772 125.577361 
L 131.72487 127.344534 
L 130.147718 129.127567 
L 128.588476 130.926282 
L 127.047298 132.7405 
L 125.524339 134.570038 
L 124.019752 136.414715 
L 122.533686 138.274344 
L 121.066291 140.148741 
L 119.617712 142.037718 
L 118.188095 143.941086 
L 116.777584 145.858655 
L 115.386318 147.790233 
L 114.014437 149.735627 
L 112.662078 151.694642 
L 111.329377 153.667082 
L 110.016466 155.652751 
L 108.723478 157.651449 
L 107.450541 159.662977 
L 106.197782 161.687134 
L 104.965327 163.723717 
L 103.7533 165.772522 
L 102.56182 167.833345 
L 101.391008 169.905979 
L 100.240981 171.990218 
L 99.111853 174.085853 
L 98.003738 176.192673 
L 96.916746 178.31047 
L 95.850986 180.43903 
L 94.806564 182.578142 
L 93.783585 184.72759 
L 92.782152 186.887161 
L 91.802364 189.056638 
L 90.84432 191.235804 
L 89.908114 193.424441 
L 88.993842 195.622331 
L 88.101593 197.829254 
L 87.231459 200.044988 
L 86.383524 202.269313 
L 85.557875 204.502006 
L 84.754594 206.742844 
L 83.973761 208.991602 
L 83.215454 211.248056 
L 82.47975 213.51198 
L 81.766721 215.783148 
L 81.076438 218.061332 
L 80.408972 220.346306 
L 79.764389 222.637839 
L 79.142753 224.935704 
L 78.544126 227.23967 
L 77.968568 229.549507 
L 77.416137 231.864984 
L 76.886888 234.18587 
L 76.380874 236.511932 
L 75.898146 238.842937 
L 75.438751 241.178654 
L 75.002737 243.518847 
L 74.590145 245.863284 
L 74.201018 248.211729 
L 73.835395 250.563947 
L 73.493311 252.919705 
L 73.174802 255.278765 
L 72.879899 257.640893 
L 72.608632 260.005851 
L 72.361028 262.373404 
L 72.137111 264.743314 
L 71.936903 267.115345 
L 71.760426 269.48926 
L 71.607697 271.86482 
L 71.47873 274.241789 
L 71.373539 276.619929 
L 71.292134 278.999002 
L 71.234524 281.37877 
L 71.200713 283.758995 
L 71.190707 286.139439 
L 71.204505 288.519864 
L 71.242106 290.900032 
L 71.303506 293.279705 
L 71.3887 295.658645 
L 71.497678 298.036614 
L 71.630431 300.413375 
L 71.786943 302.788689 
L 71.967201 305.162319 
L 72.171186 307.534029 
L 72.398877 309.903579 
L 72.650252 312.270735 
L 72.925286 314.635258 
L 73.22395 316.996913 
L 73.546216 319.355463 
L 73.892051 321.710673 
L 74.26142 324.062306 
L 74.654287 326.410128 
L 75.070612 328.753905 
L 75.510353 331.093401 
L 75.973467 333.428382 
L 76.459907 335.758616 
L 76.969625 338.083869 
L 77.50257 340.403909 
L 78.058688 342.718503 
L 78.637923 345.027421 
L 79.240219 347.330431 
L 79.865514 349.627302 
L 80.513746 351.917807 
L 81.184851 354.201714 
L 81.87876 356.478796 
L 82.595406 358.748825 
L 83.334715 361.011575 
L 84.096615 363.266819 
L 84.881028 365.51433 
L 85.687877 367.753886 
L 86.517081 369.985261 
L 87.368557 372.208233 
L 88.24222 374.422578 
L 89.137982 376.628077 
L 90.055753 378.824508 
L 90.995443 381.011652 
L 91.956957 383.189289 
L 92.940199 385.357203 
L 93.945071 387.515176 
L 94.971471 389.662992 
L 96.019298 391.800437 
L 97.088447 393.927298 
L 98.178811 396.04336 
L 99.29028 398.148414 
L 100.422744 400.242247 
L 101.57609 402.324652 
L 102.750201 404.395419 
L 103.944961 406.454342 
L 105.16025 408.501214 
L 106.395947 410.535831 
L 107.651928 412.55799 
L 108.928067 414.567488 
L 110.224237 416.564125 
L 111.540308 418.5477 
L 112.876149 420.518015 
L 114.231626 422.474874 
L 115.606604 424.41808 
L 117.000944 426.34744 
L 118.414508 428.26276 
L 119.847155 430.163849 
L 121.29874 432.050516 
L 122.769119 433.922574 
L 124.258144 435.779834 
L 125.765668 437.622112 
L 127.291539 439.449223 
L 128.835604 441.260983 
L 130.397709 443.057213 
L 131.977698 444.837732 
L 133.575413 446.602362 
L 135.190694 448.350928 
L 136.82338 450.083253 
L 138.473307 451.799165 
L 140.140311 453.498493 
L 141.824224 455.181065 
L 143.524878 456.846715 
L 145.242104 458.495275 
L 146.975729 460.126581 
L 148.72558 461.740469 
L 150.491482 463.336779 
L 152.273259 464.915349 
L 154.070732 466.476024 
L 155.883721 468.018646 
L 157.712046 469.543061 
L 159.555524 471.049117 
L 161.41397 472.536663 
L 163.287197 474.005551 
L 165.17502 475.455633 
L 167.077249 476.886765 
L 168.993694 478.298803 
L 170.924164 479.691607 
L 172.868465 481.065037 
L 174.826402 482.418955 
L 176.797781 483.753226 
L 178.782403 485.067718 
L 180.780071 486.362297 
L 182.790585 487.636836 
L 184.813743 488.891206 
L 186.849344 490.125282 
L 188.897183 491.338941 
L 190.957057 492.532061 
L 193.028758 493.704523 
L 195.11208 494.85621 
L 197.206815 495.987006 
L 199.312753 497.096799 
L 201.429683 498.185477 
L 203.557394 499.252932 
L 205.695673 500.299057 
L 207.844306 501.323747 
L 210.003079 502.326899 
L 212.171775 503.308415 
L 214.350177 504.268194 
L 216.538068 505.206142 
L 218.73523 506.122164 
L 220.941441 507.01617 
L 223.156482 507.888069 
L 225.380131 508.737774 
L 227.612165 509.565201 
L 229.852363 510.370266 
L 232.100498 511.15289 
L 234.356348 511.912993 
L 236.619685 512.6505 
L 238.890285 513.365338 
L 241.167919 514.057434 
L 243.45236 514.726719 
L 245.74338 515.373127 
L 248.040749 515.996593 
L 250.344237 516.597055 
L 252.653615 517.174452 
L 254.968652 517.728726 
L 257.289115 518.259823 
L 259.614773 518.767689 
L 261.945394 519.252274 
L 264.280743 519.713528 
L 266.620589 520.151406 
L 268.964696 520.565865 
L 271.31283 520.956862 
L 273.664757 521.324358 
L 276.020242 521.668317 
L 278.379048 521.988705 
L 280.74094 522.285489 
L 283.105681 522.558639 
L 285.473036 522.808129 
L 287.842767 523.033933 
L 290.214638 523.236029 
L 292.588411 523.414397 
L 294.963849 523.569018 
L 297.340715 523.699878 
L 299.71877 523.806962 
L 302.097777 523.890262 
L 304.477499 523.949767 
L 306.857696 523.985473 
L 309.238131 523.997375 
L 309.238131 521.6169 
z
" clip-path="url(#p130caa7521)" style="fill: none; stroke: #000000; stroke-width: 0.5; stroke-linejoin: miter"/>
   </g>
   <g id="text_1">
    <text style="font: 3px 'DejaVu Sans', 'Bitstream Vera Sans', 'Computer Modern Sans Serif', 'Lucida Grande', 'Verdana', 'Geneva', 'Lucid', 'Arial', 'Helvetica', 'Avant Garde', sans-serif; text-anchor: start" x="549.666106" y="287.149641" transform="rotate(-0 549.666106 287.149641)">Universit d'Abomey-Calavi</text>
   </g>
   <g id="text_2">
    <text style="font: 3px 'DejaVu Sans', 'Bitstream Vera Sans', 'Computer Modern Sans Serif', 'Lucida Grande', 'Verdana', 'Geneva', 'Lucid', 'Arial', 'Helvetica', 'Avant Garde', sans-serif; text-anchor: end" x="68.810156" y="287.089641" transform="rotate(-0 68.810156 287.089641)">Universit de Parakou</text>
   </g>
  </g>
 </g>
 <defs>
  <clipPath id="p130caa7521">
   <path d="M 559.188006 285.949875 
C 559.188006 253.126758 552.722568 220.622805 540.161705 190.298199 
C 527.600842 159.973593 509.188831 132.418072 485.979383 109.208623 
C 462.769934 85.999175 435.214413 67.587164 404.889807 55.026301 
C 374.565201 42.465438 342.061248 36 309.238131 36 
C 276.415014 36 243.911061 42.465438 213.586455 55.026301 
C 183.261849 67.587164 155.706328 85.999175 132.49688 109.208623 
C 109.287431 132.418072 90.875421 159.973593 78.314558 190.298199 
C 65.753695 220.622805 59.288256 253.126758 59.288256 285.949875 
C 59.288256 318.772992 65.753695 351.276945 78.314558 381.601551 
C 90.875421 411.926157 109.287431 439.481678 132.49688 462.691127 
C 155.706328 485.900575 183.261849 504.312586 213.586455 516.873449 
C 243.911061 529.434312 276.415014 535.89975 309.238131 535.89975 
C 342.061248 535.89975 374.565201 529.434312 404.889807 516.873449 
C 435.214413 504.312586 462.769934 485.900575 485.979383 462.691127 
C 509.188831 439.481678 527.600842 411.926157 540.161705 381.601551 
C 552.722568 351.276945 559.188006 318.772992 559.188006 285.949875 
M 309.238131 285.949875 
C 309.238131 285.949875 309.238131 285.949875 309.238131 285.949875 
C 309.238131 285.949875 309.238131 285.949875 309.238131 285.949875 
C 309.238131 285.949875 309.238131 285.949875 309.238131 285.949875 
C 309.238131 285.949875 309.238131 285.949875 309.238131 285.949875 
C 309.238131 285.949875 309.238131 285.949875 309.238131 285.949875 
C 309.238131 285.949875 309.238131 285.949875 309.238131 285.949875 
C 309.238131 285.949875 309.238131 285.949875 309.238131 285.949875 
C 309.238131 285.949875 309.238131 285.949875 309.238131 285.949875 
C 309.238131 285.949875 309.238131 285.949875 309.238131 285.949875 
C 309.238131 285.949875 309.238131 285.949875 309.238131 285.949875 
C 309.238131 285.949875 309.238131 285.949875 309.238131 285.949875 
C 309.238131 285.949875 309.238131 285.949875 309.238131 285.949875 
C 309.238131 285.949875 309.238131 285.949875 309.238131 285.949875 
C 309.238131 285.949875 309.238131 285.949875 309.238131 285.949875 
C 309.238131 285.949875 309.238131 285.949875 309.238131 285.949875 
C 309.238131 285.949875 309.238131 285.949875 309.238131 285.949875 
z
"/>
  </clipPath>
 </defs>
</svg>
