<?xml version="1.0" encoding="utf-8" standalone="no"?>
<!DOCTYPE svg PUBLIC "-//W3C//DTD SVG 1.1//EN"
  "http://www.w3.org/Graphics/SVG/1.1/DTD/svg11.dtd">
<svg xmlns:xlink="http://www.w3.org/1999/xlink" width="533.109824pt" height="628.088433pt" viewBox="0 0 533.109824 628.088433" xmlns="http://www.w3.org/2000/svg" version="1.1">
 <metadata>
  <rdf:RDF xmlns:dc="http://purl.org/dc/elements/1.1/" xmlns:cc="http://creativecommons.org/ns#" xmlns:rdf="http://www.w3.org/1999/02/22-rdf-syntax-ns#">
   <cc:Work>
    <dc:type rdf:resource="http://purl.org/dc/dcmitype/StillImage"/>
    <dc:date>2024-11-16T04:08:12.707940</dc:date>
    <dc:format>image/svg+xml</dc:format>
    <dc:creator>
     <cc:Agent>
      <dc:title>Matplotlib v3.8.4, https://matplotlib.org/</dc:title>
     </cc:Agent>
    </dc:creator>
   </cc:Work>
  </rdf:RDF>
 </metadata>
 <defs>
  <style type="text/css">*{stroke-linejoin: round; stroke-linecap: butt}</style>
 </defs>
 <g id="figure_1">
  <g id="patch_1">
   <path d="M 0 628.088433 
L 533.109824 628.088433 
L 533.109824 0 
L 0 0 
z
" style="fill: #ffffff"/>
  </g>
  <g id="axes_1">
   <g id="patch_2">
    <path d="M 241.678536 135.808141 
L 243.610676 135.817802 
L 245.542624 135.846783 
L 247.474185 135.895083 
L 249.405166 135.962694 
L 251.335375 136.049613 
L 253.264618 136.155828 
L 255.192703 136.28133 
L 257.119436 136.426107 
L 259.044625 136.590143 
L 260.968077 136.773423 
L 262.889601 136.975928 
L 264.809003 137.197637 
L 266.726093 137.438529 
L 268.640677 137.69858 
L 270.552566 137.977763 
L 272.461567 138.276051 
L 274.36749 138.593413 
L 276.270144 138.929819 
L 278.169339 139.285234 
L 280.064884 139.659623 
L 281.956591 140.052948 
L 283.844271 140.465171 
L 285.727734 140.896249 
L 287.606792 141.34614 
L 289.481257 141.814799 
L 291.350942 142.302178 
L 293.21566 142.80823 
L 295.075224 143.332904 
L 296.929448 143.876146 
L 298.778147 144.437904 
L 300.621137 145.018119 
L 302.458232 145.616736 
L 304.28925 146.233693 
L 306.114006 146.868929 
L 307.932319 147.522381 
L 309.744006 148.193983 
L 311.548887 148.883668 
L 313.346781 149.591367 
L 315.137509 150.317009 
L 316.92089 151.060522 
L 318.696748 151.821831 
L 320.464903 152.60086 
L 322.22518 153.397532 
L 323.977402 154.211766 
L 325.512373 154.942668 
L 326.35918 153.184256 
L 324.808704 152.445972 
L 323.038783 151.623513 
L 321.260725 150.818794 
L 319.474709 150.031895 
L 317.680914 149.262896 
L 315.879519 148.511873 
L 314.070703 147.778901 
L 312.254649 147.064054 
L 310.431536 146.367403 
L 308.601549 145.689017 
L 306.764869 145.028965 
L 304.921681 144.387312 
L 303.072169 143.764123 
L 301.216517 143.15946 
L 299.354911 142.573383 
L 297.487538 142.005951 
L 295.614584 141.457222 
L 293.736237 140.927248 
L 291.852683 140.416085 
L 289.964113 139.923782 
L 288.070713 139.45039 
L 286.172675 138.995954 
L 284.270187 138.560522 
L 282.363441 138.144135 
L 280.452625 137.746837 
L 278.537933 137.368666 
L 276.619554 137.009661 
L 274.697681 136.669858 
L 272.772507 136.34929 
L 270.844223 136.047989 
L 268.913022 135.765985 
L 266.979098 135.503308 
L 265.042644 135.259983 
L 263.103854 135.036034 
L 261.162921 134.831483 
L 259.22004 134.646352 
L 257.275405 134.480659 
L 255.32921 134.33442 
L 253.381649 134.20765 
L 251.432919 134.100362 
L 249.483213 134.012566 
L 247.532727 133.944271 
L 245.581655 133.895484 
L 243.630193 133.86621 
L 241.678536 133.856452 
z
" clip-path="url(#p61883ab2ff)" style="fill: #000080"/>
   </g>
   <g id="patch_3">
    <path d="M 325.512373 154.942668 
L 327.24898 155.789696 
L 328.97703 156.654048 
L 330.69635 157.535637 
L 332.406769 158.434375 
L 334.108115 159.350171 
L 335.800217 160.282935 
L 337.482908 161.232574 
L 339.156019 162.198991 
L 340.819381 163.182091 
L 342.47283 164.181775 
L 344.116199 165.197943 
L 345.749325 166.230494 
L 347.372044 167.279324 
L 348.984193 168.344329 
L 350.585612 169.425401 
L 352.17614 170.522434 
L 353.755619 171.635317 
L 355.32389 172.763938 
L 356.880797 173.908186 
L 358.426183 175.067945 
L 359.959895 176.2431 
L 361.481779 177.433533 
L 362.991682 178.639125 
L 364.489455 179.859755 
L 365.974946 181.095302 
L 367.448008 182.345642 
L 368.908493 183.61065 
L 370.356255 184.890199 
L 371.791149 186.184161 
L 373.213032 187.492408 
L 374.621762 188.814807 
L 376.017198 190.151228 
L 377.3992 191.501536 
L 378.76763 192.865596 
L 380.122351 194.243272 
L 381.463228 195.634426 
L 382.790127 197.038919 
L 384.102914 198.456611 
L 385.40146 199.887359 
L 386.685633 201.331022 
L 387.955305 202.787453 
L 389.21035 204.256508 
L 390.450642 205.73804 
L 391.676057 207.231901 
L 392.886472 208.737941 
L 394.081766 210.256009 
L 395.26182 211.785954 
L 396.426516 213.327624 
L 397.575738 214.880862 
L 398.70937 216.445516 
L 399.827299 218.021427 
L 400.929413 219.608438 
L 402.015602 221.206391 
L 403.085757 222.815126 
L 404.139772 224.434482 
L 405.177541 226.064297 
L 406.198961 227.704407 
L 407.203928 229.35465 
L 408.192343 231.01486 
L 409.164107 232.684871 
L 410.119122 234.364516 
L 411.057293 236.053627 
L 411.978527 237.752034 
L 412.882731 239.45957 
L 413.769814 241.176061 
L 414.639689 242.901338 
L 415.492267 244.635227 
L 416.327465 246.377554 
L 417.145197 248.128147 
L 417.945383 249.886829 
L 418.727943 251.653425 
L 419.492797 253.427758 
L 420.239871 255.209651 
L 420.969088 256.998926 
L 421.680377 258.795402 
L 422.373665 260.598902 
L 423.048884 262.409245 
L 423.705967 264.226249 
L 424.344846 266.049733 
L 424.96546 267.879514 
L 425.567744 269.71541 
L 426.15164 271.557237 
L 426.717089 273.404811 
L 427.264034 275.257946 
L 427.79242 277.116459 
L 428.302196 278.980162 
L 428.793309 280.84887 
L 429.265711 282.722395 
L 429.719354 284.600551 
L 430.154194 286.483149 
L 430.570186 288.370001 
L 430.967289 290.260919 
L 431.345463 292.155713 
L 431.70467 294.054194 
L 432.044876 295.956172 
L 432.366045 297.861458 
L 432.668145 299.769859 
L 432.951146 301.681186 
L 433.21502 303.595247 
L 433.459741 305.511852 
L 433.685284 307.430808 
L 433.891626 309.351923 
L 434.078747 311.275005 
L 434.246629 313.199863 
L 434.395253 315.126303 
L 434.524607 317.054133 
L 434.634675 318.98316 
L 434.725449 320.913192 
L 434.796917 322.844034 
L 434.849074 324.775495 
L 434.881914 326.707381 
L 434.895434 328.639498 
L 434.889633 330.571654 
L 434.86451 332.503656 
L 434.820069 334.435309 
L 434.756315 336.366422 
L 434.673252 338.2968 
L 434.57089 340.226252 
L 434.449239 342.154583 
L 434.308311 344.081602 
L 434.148121 346.007114 
L 433.968683 347.930929 
L 433.770017 349.852853 
L 433.552142 351.772695 
L 433.315079 353.690261 
L 433.058853 355.605362 
L 432.783489 357.517804 
L 432.489015 359.427397 
L 432.17546 361.33395 
L 431.842855 363.237272 
L 431.491234 365.137173 
L 431.120632 367.033463 
L 430.731086 368.925952 
L 430.322635 370.814451 
L 429.89532 372.698771 
L 429.449183 374.578724 
L 428.984269 376.454121 
L 428.500625 378.324776 
L 427.998298 380.190501 
L 427.47734 382.051109 
L 426.937802 383.906415 
L 426.379739 385.756233 
L 425.803205 387.600377 
L 425.208259 389.438665 
L 424.59496 391.270911 
L 423.96337 393.096932 
L 423.313552 394.916547 
L 422.64557 396.729572 
L 421.959491 398.535827 
L 421.255385 400.335131 
L 420.533321 402.127304 
L 419.793372 403.912167 
L 419.035611 405.689541 
L 418.260115 407.45925 
L 417.466961 409.221114 
L 416.656228 410.974959 
L 415.827997 412.72061 
L 414.982352 414.457891 
L 414.119377 416.186628 
L 413.239157 417.90665 
L 412.341782 419.617784 
L 411.42734 421.319858 
L 410.495924 423.012703 
L 409.547626 424.696149 
L 408.582541 426.370029 
L 407.600766 428.034174 
L 406.602399 429.688418 
L 405.58754 431.332596 
L 404.55629 432.966544 
L 403.508752 434.590097 
L 402.445032 436.203094 
L 401.365235 437.805373 
L 400.269469 439.396775 
L 399.157844 440.977139 
L 398.030472 442.546308 
L 396.887465 444.104126 
L 395.728936 445.650435 
L 394.555003 447.185082 
L 393.365783 448.707914 
L 392.161393 450.218777 
L 390.941956 451.717521 
L 389.707592 453.203995 
L 388.458426 454.678052 
L 387.194582 456.139544 
L 385.916186 457.588325 
L 384.623367 459.024249 
L 383.316253 460.447174 
L 381.994975 461.856956 
L 380.659667 463.253456 
L 379.31046 464.636533 
L 377.94749 466.006048 
L 376.570893 467.361866 
L 375.180807 468.703851 
L 373.777371 470.031867 
L 372.360725 471.345783 
L 370.931011 472.645467 
L 369.488372 473.93079 
L 368.032952 475.201622 
L 366.564897 476.457836 
L 365.084353 477.699307 
L 363.591469 478.925911 
L 362.086393 480.137525 
L 360.569277 481.334028 
L 359.040272 482.5153 
L 357.499531 483.681224 
L 355.947208 484.831682 
L 354.383458 485.966559 
L 352.808437 487.085743 
L 351.222304 488.18912 
L 349.625216 489.276581 
L 348.017334 490.348018 
L 346.398818 491.403322 
L 344.76983 492.442388 
L 343.130534 493.465113 
L 341.481092 494.471395 
L 339.821669 495.461131 
L 338.152433 496.434225 
L 336.473549 497.390577 
L 334.785186 498.330093 
L 333.087512 499.252679 
L 331.380698 500.158242 
L 329.664913 501.046692 
L 327.94033 501.917941 
L 326.20712 502.7719 
L 325.512373 503.108183 
L 326.35918 504.866595 
L 327.060944 504.526914 
L 328.811661 503.66433 
L 330.553664 502.784281 
L 332.28678 501.886857 
L 334.010835 500.972146 
L 335.725657 500.040241 
L 337.431075 499.091235 
L 339.126917 498.125223 
L 340.813014 497.1423 
L 342.489198 496.142566 
L 344.155301 495.12612 
L 345.811157 494.093065 
L 347.456599 493.043503 
L 349.091464 491.977539 
L 350.715587 490.89528 
L 352.328807 489.796834 
L 353.930962 488.682311 
L 355.521891 487.551823 
L 357.101437 486.405482 
L 358.66944 485.243404 
L 360.225744 484.065703 
L 361.770194 482.872499 
L 363.302634 481.66391 
L 364.822913 480.440057 
L 366.330876 479.201064 
L 367.826375 477.947052 
L 369.309259 476.678149 
L 370.779381 475.39448 
L 372.236592 474.096175 
L 373.680747 472.783363 
L 375.111703 471.456175 
L 376.529315 470.114744 
L 377.933442 468.759204 
L 379.323944 467.389691 
L 380.700681 466.006342 
L 382.063516 464.609295 
L 383.412313 463.198689 
L 384.746937 461.774666 
L 386.067254 460.337369 
L 387.373132 458.88694 
L 388.664441 457.423525 
L 389.941051 455.947271 
L 391.202835 454.458324 
L 392.449667 452.956835 
L 393.681422 451.442952 
L 394.897977 449.916828 
L 396.09921 448.378614 
L 397.285001 446.828466 
L 398.455232 445.266537 
L 399.609785 443.692984 
L 400.748545 442.107965 
L 401.871398 440.511637 
L 402.978232 438.904161 
L 404.068936 437.285697 
L 405.143401 435.656407 
L 406.20152 434.016454 
L 407.243187 432.366002 
L 408.268297 430.705216 
L 409.276748 429.034262 
L 410.26844 427.353308 
L 411.243273 425.66252 
L 412.20115 423.962069 
L 413.141975 422.252125 
L 414.065653 420.532858 
L 414.972093 418.80444 
L 415.861203 417.067044 
L 416.732896 415.320845 
L 417.587083 413.566016 
L 418.423679 411.802732 
L 419.242601 410.031172 
L 420.043767 408.25151 
L 420.827097 406.463926 
L 421.592511 404.668599 
L 422.339935 402.865707 
L 423.069293 401.055431 
L 423.780511 399.237952 
L 424.47352 397.413452 
L 425.148249 395.582114 
L 425.804631 393.744119 
L 426.442601 391.899653 
L 427.062095 390.048899 
L 427.66305 388.192044 
L 428.245407 386.329271 
L 428.809108 384.460768 
L 429.354096 382.586722 
L 429.880316 380.70732 
L 430.387716 378.822749 
L 430.876246 376.933199 
L 431.345856 375.038858 
L 431.796499 373.139916 
L 432.228131 371.236562 
L 432.640708 369.328987 
L 433.034189 367.417382 
L 433.408534 365.501938 
L 433.763707 363.582846 
L 434.099671 361.660299 
L 434.416394 359.734488 
L 434.713842 357.805606 
L 434.991988 355.873846 
L 435.250802 353.939401 
L 435.490259 352.002465 
L 435.710335 350.063231 
L 435.911008 348.121894 
L 436.092258 346.178647 
L 436.254067 344.233684 
L 436.396418 342.287201 
L 436.519298 340.339391 
L 436.622694 338.390451 
L 436.706595 336.440573 
L 436.770994 334.489954 
L 436.815884 332.538789 
L 436.84126 330.587273 
L 436.84712 328.6356 
L 436.833464 326.683966 
L 436.800292 324.732566 
L 436.747608 322.781596 
L 436.675417 320.83125 
L 436.583727 318.881723 
L 436.472547 316.933211 
L 436.341887 314.985908 
L 436.191761 313.040009 
L 436.022184 311.095708 
L 435.833173 309.153201 
L 435.624746 307.21268 
L 435.396925 305.274341 
L 435.149732 303.338377 
L 434.883193 301.404982 
L 434.597333 299.474348 
L 434.292181 297.54667 
L 433.967768 295.62214 
L 433.624126 293.700949 
L 433.26129 291.783292 
L 432.879296 289.869358 
L 432.478182 287.95934 
L 432.057988 286.053429 
L 431.618756 284.151815 
L 431.160531 282.254688 
L 430.683357 280.362238 
L 430.187283 278.474654 
L 429.672359 276.592126 
L 429.138635 274.714841 
L 428.586165 272.842986 
L 428.015005 270.97675 
L 427.425211 269.116319 
L 426.816843 267.261879 
L 426.189961 265.413615 
L 425.544628 263.571712 
L 424.880908 261.736354 
L 424.198869 259.907725 
L 423.498577 258.086008 
L 422.780104 256.271385 
L 422.043521 254.464037 
L 421.288901 252.664146 
L 420.51632 250.87189 
L 419.725856 249.087449 
L 418.917588 247.311003 
L 418.091595 245.542727 
L 417.247961 243.7828 
L 416.386771 242.031397 
L 415.50811 240.288694 
L 414.612066 238.554864 
L 413.698729 236.830081 
L 412.76819 235.114517 
L 411.820542 233.408345 
L 410.85588 231.711734 
L 409.874301 230.024854 
L 408.875902 228.347875 
L 407.860783 226.680963 
L 406.829047 225.024285 
L 405.780795 223.378008 
L 404.716133 221.742295 
L 403.635168 220.11731 
L 402.538007 218.503216 
L 401.424761 216.900174 
L 400.29554 215.308345 
L 399.150457 213.727887 
L 397.989627 212.158959 
L 396.813167 210.601717 
L 395.621193 209.056318 
L 394.413825 207.522915 
L 393.191183 206.001663 
L 391.95339 204.492713 
L 390.70057 202.996216 
L 389.432848 201.512322 
L 388.150351 200.041179 
L 386.853206 198.582935 
L 385.541544 197.137734 
L 384.215496 195.705722 
L 382.875195 194.287042 
L 381.520774 192.881836 
L 380.152368 191.490244 
L 378.770116 190.112406 
L 377.374154 188.748458 
L 375.964623 187.398539 
L 374.541664 186.062781 
L 373.105418 184.74132 
L 371.65603 183.434288 
L 370.193644 182.141814 
L 368.718406 180.864028 
L 367.230465 179.601059 
L 365.729969 178.353031 
L 364.217068 177.120071 
L 362.691913 175.902302 
L 361.154656 174.699844 
L 359.605452 173.512819 
L 358.044456 172.341345 
L 356.471823 171.185539 
L 354.887711 170.045518 
L 353.292278 168.921394 
L 351.685684 167.81328 
L 350.068089 166.721287 
L 348.439655 165.645525 
L 346.800545 164.586101 
L 345.150923 163.54312 
L 343.490954 162.516687 
L 341.820804 161.506906 
L 340.14064 160.513875 
L 338.450629 159.537696 
L 336.750941 158.578466 
L 335.041747 157.63628 
L 333.323216 156.711233 
L 331.59552 155.803417 
L 329.858833 154.912923 
L 328.113328 154.03984 
L 326.35918 153.184256 
z
" clip-path="url(#p61883ab2ff)" style="fill: #004cff"/>
   </g>
   <g id="patch_4">
    <path d="M 325.512373 503.108183 
L 323.767383 503.937803 
L 322.014184 504.749933 
L 320.252952 505.54449 
L 318.483862 506.321395 
L 316.707091 507.080571 
L 314.922818 507.821941 
L 313.131221 508.545432 
L 311.332478 509.250971 
L 309.52677 509.938487 
L 307.714277 510.607913 
L 305.895181 511.25918 
L 304.069663 511.892224 
L 302.237906 512.506982 
L 300.400093 513.103392 
L 298.556408 513.681394 
L 296.707035 514.24093 
L 294.852159 514.781945 
L 292.991966 515.304385 
L 291.126642 515.808197 
L 289.256373 516.29333 
L 287.381346 516.759738 
L 285.50175 517.207371 
L 283.61777 517.636187 
L 281.729597 518.046142 
L 279.837419 518.437195 
L 277.941425 518.809307 
L 276.041805 519.162441 
L 274.138748 519.496561 
L 272.232445 519.811634 
L 270.323087 520.107629 
L 268.410865 520.384516 
L 266.495969 520.642267 
L 264.578592 520.880856 
L 262.658925 521.10026 
L 260.737159 521.300457 
L 258.813488 521.481426 
L 256.888104 521.64315 
L 254.961198 521.785613 
L 253.032964 521.908799 
L 251.103595 522.012697 
L 249.173283 522.097297 
L 247.242222 522.16259 
L 245.310604 522.208569 
L 243.378623 522.23523 
L 241.446472 522.24257 
L 239.514345 522.230589 
L 237.582433 522.199287 
L 235.650932 522.148668 
L 233.720033 522.078737 
L 231.78993 521.989501 
L 229.860816 521.880968 
L 227.932883 521.75315 
L 226.006326 521.60606 
L 224.081335 521.439711 
L 222.158104 521.254122 
L 220.236825 521.049309 
L 218.31769 520.825294 
L 216.400892 520.5821 
L 214.486621 520.31975 
L 212.575069 520.038271 
L 210.666427 519.73769 
L 208.760887 519.418039 
L 206.858639 519.079348 
L 204.959872 518.721653 
L 203.064777 518.344987 
L 201.173544 517.94939 
L 199.286361 517.534901 
L 197.403417 517.101561 
L 195.524901 516.649413 
L 193.651 516.178504 
L 191.781902 515.688879 
L 189.917793 515.180588 
L 188.058861 514.653681 
L 186.20529 514.108212 
L 184.357267 513.544235 
L 182.514975 512.961806 
L 180.6786 512.360983 
L 178.848325 511.741827 
L 177.024333 511.1044 
L 175.206806 510.448765 
L 173.395927 509.774987 
L 171.591875 509.083135 
L 169.794833 508.373278 
L 168.004978 507.645485 
L 166.222491 506.899831 
L 164.447549 506.136389 
L 162.680331 505.355237 
L 160.921012 504.556452 
L 159.169769 503.740113 
L 157.844698 503.108183 
L 156.997892 504.866595 
L 158.336347 505.504908 
L 160.105279 506.329492 
L 161.882369 507.136346 
L 163.667438 507.925389 
L 165.460309 508.696542 
L 167.260801 509.449728 
L 169.068735 510.184872 
L 170.883929 510.9019 
L 172.706203 511.600741 
L 174.535375 512.281324 
L 176.37126 512.943581 
L 178.213677 513.587447 
L 180.062439 514.212857 
L 181.917363 514.819749 
L 183.778264 515.408061 
L 185.644954 515.977735 
L 187.517248 516.528714 
L 189.394957 517.060943 
L 191.277895 517.574368 
L 193.165873 518.068939 
L 195.058703 518.544605 
L 196.956194 519.00132 
L 198.858157 519.439037 
L 200.764403 519.857713 
L 202.674739 520.257306 
L 204.588976 520.637776 
L 206.506922 520.999085 
L 208.428386 521.341197 
L 210.353174 521.664077 
L 212.281094 521.967693 
L 214.211955 522.252016 
L 216.145562 522.517016 
L 218.081722 522.762667 
L 220.020242 522.988944 
L 221.960928 523.195826 
L 223.903585 523.38329 
L 225.84802 523.551319 
L 227.794038 523.699895 
L 229.741445 523.829004 
L 231.690045 523.938633 
L 233.639644 524.02877 
L 235.590047 524.099408 
L 237.541059 524.150538 
L 239.492484 524.182156 
L 241.444128 524.194258 
L 243.395796 524.186844 
L 245.347292 524.159914 
L 247.29842 524.11347 
L 249.248987 524.047518 
L 251.198797 523.962064 
L 253.147655 523.857116 
L 255.095366 523.732685 
L 257.041735 523.588784 
L 258.986569 523.425426 
L 260.929671 523.242629 
L 262.870848 523.04041 
L 264.809906 522.81879 
L 266.746651 522.57779 
L 268.680889 522.317436 
L 270.612426 522.037752 
L 272.541071 521.738768 
L 274.466629 521.420512 
L 276.388908 521.083017 
L 278.307717 520.726316 
L 280.222862 520.350445 
L 282.134153 519.955442 
L 284.041399 519.541346 
L 285.944408 519.108199 
L 287.842991 518.656044 
L 289.736957 518.184925 
L 291.626118 517.694891 
L 293.510284 517.18599 
L 295.389267 516.658274 
L 297.262878 516.111794 
L 299.130932 515.546605 
L 300.99324 514.962765 
L 302.849616 514.360331 
L 304.699876 513.739364 
L 306.543834 513.099925 
L 308.381305 512.442079 
L 310.212106 511.765892 
L 312.036053 511.071431 
L 313.852965 510.358765 
L 315.662659 509.627966 
L 317.464956 508.879107 
L 319.259673 508.112263 
L 321.046633 507.32751 
L 322.825655 506.524928 
L 324.596564 505.704595 
L 326.35918 504.866595 
z
" clip-path="url(#p61883ab2ff)" style="fill: #29ffce"/>
   </g>
   <g id="patch_5">
    <path d="M 157.844698 503.108183 
L 156.108091 502.261155 
L 154.380041 501.396803 
L 152.660721 500.515214 
L 150.950303 499.616476 
L 149.248957 498.700679 
L 147.556854 497.767915 
L 145.874163 496.818277 
L 144.201053 495.85186 
L 142.53769 494.86876 
L 140.884242 493.869076 
L 139.240872 492.852908 
L 137.607747 491.820357 
L 135.985028 490.771527 
L 134.372878 489.706522 
L 132.771459 488.625449 
L 131.180931 487.528417 
L 129.601452 486.415534 
L 128.033181 485.286912 
L 126.476275 484.142665 
L 124.930888 482.982906 
L 123.397177 481.807751 
L 121.875293 480.617318 
L 120.365389 479.411726 
L 118.867617 478.191095 
L 117.382126 476.955548 
L 115.909064 475.705209 
L 114.448579 474.440201 
L 113.000817 473.160652 
L 111.565922 471.866689 
L 110.144039 470.558443 
L 108.735309 469.236043 
L 107.339873 467.899623 
L 105.957871 466.549315 
L 104.589441 465.185255 
L 103.23472 463.807579 
L 101.893843 462.416424 
L 100.566945 461.011931 
L 99.254157 459.59424 
L 97.955612 458.163491 
L 96.671439 456.719829 
L 95.401766 455.263398 
L 94.146722 453.794342 
L 92.90643 452.312811 
L 91.681015 450.81895 
L 90.4706 449.31291 
L 89.275305 447.794842 
L 88.095251 446.264896 
L 86.930555 444.723227 
L 85.781334 443.169988 
L 84.647702 441.605335 
L 83.529773 440.029424 
L 82.427659 438.442413 
L 81.34147 436.84446 
L 80.271314 435.235725 
L 79.217299 433.616369 
L 78.17953 431.986554 
L 77.158111 430.346443 
L 76.153144 428.6962 
L 75.164729 427.035991 
L 74.192965 425.36598 
L 73.23795 423.686335 
L 72.299778 421.997224 
L 71.378545 420.298816 
L 70.474341 418.591281 
L 69.587257 416.874789 
L 68.717383 415.149513 
L 67.864804 413.415624 
L 67.029607 411.673296 
L 66.211874 409.922704 
L 65.411688 408.164022 
L 64.629129 406.397426 
L 63.864274 404.623092 
L 63.117201 402.8412 
L 62.387983 401.051925 
L 61.676695 399.255448 
L 60.983406 397.451948 
L 60.308187 395.641606 
L 59.651105 393.824602 
L 59.012225 392.001118 
L 58.391612 390.171337 
L 57.789327 388.335441 
L 57.205431 386.493614 
L 56.639983 384.64604 
L 56.093038 382.792904 
L 55.564651 380.934392 
L 55.054876 379.070689 
L 54.563762 377.201981 
L 54.091361 375.328456 
L 53.637717 373.4503 
L 53.202878 371.567702 
L 52.786886 369.68085 
L 52.389783 367.789932 
L 52.011609 365.895138 
L 51.652401 363.996657 
L 51.312196 362.094678 
L 50.991027 360.189393 
L 50.688927 358.280992 
L 50.405925 356.369665 
L 50.142051 354.455603 
L 49.89733 352.538999 
L 49.671788 350.620043 
L 49.465445 348.698928 
L 49.278324 346.775845 
L 49.110443 344.850988 
L 48.961818 342.924548 
L 48.832465 340.996718 
L 48.722396 339.06769 
L 48.631623 337.137659 
L 48.560154 335.206817 
L 48.507997 333.275356 
L 48.475157 331.34347 
L 48.461637 329.411353 
L 48.467439 327.479197 
L 48.492561 325.547195 
L 48.537002 323.615542 
L 48.600757 321.684429 
L 48.68382 319.75405 
L 48.786181 317.824599 
L 48.907832 315.896268 
L 49.04876 313.969249 
L 49.208951 312.043736 
L 49.388388 310.119922 
L 49.587055 308.197997 
L 49.80493 306.278156 
L 50.041992 304.360589 
L 50.298218 302.445489 
L 50.573582 300.533047 
L 50.868057 298.623454 
L 51.181612 296.716901 
L 51.514216 294.813579 
L 51.865837 292.913678 
L 52.236439 291.017388 
L 52.625985 289.124899 
L 53.034436 287.2364 
L 53.305612 286.030535 
L 51.402856 285.596243 
L 51.12894 286.814289 
L 50.716363 288.721863 
L 50.322883 290.633468 
L 49.948537 292.548913 
L 49.593365 294.468004 
L 49.2574 296.390552 
L 48.940678 298.316363 
L 48.643229 300.245245 
L 48.365084 302.177005 
L 48.10627 304.111449 
L 47.866813 306.048386 
L 47.646737 307.987619 
L 47.446064 309.928957 
L 47.264814 311.872204 
L 47.103005 313.817166 
L 46.960654 315.76365 
L 46.837774 317.711459 
L 46.734378 319.6604 
L 46.650476 321.610277 
L 46.586077 323.560896 
L 46.541188 325.512062 
L 46.515811 327.463578 
L 46.509951 329.415251 
L 46.523608 331.366885 
L 46.55678 333.318284 
L 46.609464 335.269255 
L 46.681654 337.219601 
L 46.773344 339.169128 
L 46.884525 341.11764 
L 47.015185 343.064943 
L 47.16531 345.010842 
L 47.334888 346.955142 
L 47.523899 348.89765 
L 47.732325 350.83817 
L 47.960146 352.77651 
L 48.207339 354.712474 
L 48.473879 356.645869 
L 48.759739 358.576502 
L 49.064891 360.504181 
L 49.389303 362.428711 
L 49.732945 364.349901 
L 50.095781 366.267559 
L 50.477775 368.181493 
L 50.87889 370.09151 
L 51.299083 371.997422 
L 51.738315 373.899036 
L 52.196541 375.796163 
L 52.673714 377.688613 
L 53.169788 379.576196 
L 53.684713 381.458725 
L 54.218437 383.33601 
L 54.770906 385.207864 
L 55.342067 387.0741 
L 55.931861 388.934532 
L 56.540229 390.788972 
L 57.167111 392.637236 
L 57.812444 394.479139 
L 58.476163 396.314497 
L 59.158203 398.143125 
L 59.858494 399.964842 
L 60.576968 401.779466 
L 61.313551 403.586813 
L 62.068171 405.386705 
L 62.840751 407.178961 
L 63.631215 408.963401 
L 64.439484 410.739848 
L 65.265476 412.508123 
L 66.10911 414.26805 
L 66.9703 416.019453 
L 67.848962 417.762157 
L 68.745006 419.495987 
L 69.658343 421.22077 
L 70.588882 422.936333 
L 71.53653 424.642506 
L 72.501191 426.339117 
L 73.482771 428.025996 
L 74.48117 429.702976 
L 75.496288 431.369888 
L 76.528025 433.026565 
L 77.576277 434.672843 
L 78.640938 436.308556 
L 79.721903 437.933541 
L 80.819064 439.547635 
L 81.932311 441.150676 
L 83.061532 442.742506 
L 84.206614 444.322964 
L 85.367444 445.891892 
L 86.543905 447.449133 
L 87.735879 448.994533 
L 88.943247 450.527935 
L 90.165889 452.049188 
L 91.403681 453.558138 
L 92.656501 455.054635 
L 93.924223 456.538529 
L 95.206721 458.009672 
L 96.503865 459.467916 
L 97.815527 460.913117 
L 99.141575 462.345128 
L 100.481877 463.763808 
L 101.836298 465.169015 
L 103.204703 466.560606 
L 104.586956 467.938445 
L 105.982917 469.302392 
L 107.392448 470.652312 
L 108.815408 471.988069 
L 110.251653 473.30953 
L 111.701042 474.616563 
L 113.163428 475.909037 
L 114.638665 477.186823 
L 116.126606 478.449792 
L 117.627103 479.697819 
L 119.140004 480.930779 
L 120.665159 482.148549 
L 122.202415 483.351007 
L 123.751619 484.538032 
L 125.312616 485.709506 
L 126.885249 486.865311 
L 128.469361 488.005333 
L 130.064794 489.129457 
L 131.671388 490.237571 
L 133.288983 491.329563 
L 134.917417 492.405326 
L 136.556526 493.46475 
L 138.206148 494.507731 
L 139.866117 495.534163 
L 141.536268 496.543945 
L 143.216432 497.536975 
L 144.906442 498.513154 
L 146.60613 499.472385 
L 148.315325 500.414571 
L 150.033856 501.339618 
L 151.761551 502.247434 
L 153.498238 503.137928 
L 155.243743 504.01101 
L 156.997892 504.866595 
z
" clip-path="url(#p61883ab2ff)" style="fill: #ceff29"/>
   </g>
   <g id="patch_6">
    <path d="M 53.305612 286.030535 
L 53.744973 284.148987 
L 54.203126 282.271926 
L 54.680027 280.399541 
L 55.175628 278.532018 
L 55.689878 276.669545 
L 56.222728 274.812307 
L 56.774123 272.960491 
L 57.344008 271.114281 
L 57.932326 269.273862 
L 58.539019 267.439418 
L 59.164026 265.611132 
L 59.807284 263.789188 
L 60.468729 261.973768 
L 61.148295 260.165053 
L 61.845913 258.363223 
L 62.561515 256.56846 
L 63.295029 254.780943 
L 64.04638 253.000849 
L 64.815495 251.228359 
L 65.602295 249.463648 
L 66.406704 247.706893 
L 67.228639 245.958269 
L 68.068019 244.217953 
L 68.92476 242.486117 
L 69.798777 240.762935 
L 70.689981 239.048579 
L 71.598283 237.343221 
L 72.523594 235.647031 
L 73.46582 233.960178 
L 74.424867 232.282832 
L 75.40064 230.615161 
L 76.39304 228.95733 
L 77.401968 227.309506 
L 78.427324 225.671853 
L 79.469005 224.044536 
L 80.526907 222.427717 
L 81.600924 220.821557 
L 82.690948 219.226218 
L 83.796872 217.641858 
L 84.918583 216.068637 
L 86.05597 214.506712 
L 87.208919 212.956238 
L 88.377315 211.417371 
L 89.561041 209.890264 
L 90.759978 208.375072 
L 91.974008 206.871944 
L 93.203007 205.381031 
L 94.446854 203.902483 
L 95.705424 202.436446 
L 96.978592 200.983069 
L 98.266229 199.542496 
L 99.568207 198.114871 
L 100.884396 196.700336 
L 102.214665 195.299035 
L 103.558879 193.911106 
L 104.916906 192.536688 
L 106.288609 191.175919 
L 107.67385 189.828934 
L 109.072492 188.495869 
L 110.484395 187.176858 
L 111.909416 185.87203 
L 113.347415 184.581518 
L 114.798246 183.305451 
L 116.261766 182.043955 
L 117.737827 180.797157 
L 119.226282 179.565182 
L 120.726982 178.348153 
L 122.239777 177.146191 
L 123.764516 175.959418 
L 125.301046 174.78795 
L 126.849214 173.631907 
L 128.408865 172.491402 
L 129.979842 171.366551 
L 131.561989 170.257465 
L 133.155148 169.164257 
L 134.75916 168.087034 
L 136.373863 167.025905 
L 137.999096 165.980975 
L 139.634697 164.95235 
L 141.280503 163.940133 
L 142.936348 162.944423 
L 144.602067 161.965322 
L 146.277494 161.002926 
L 147.962461 160.057333 
L 149.6568 159.128636 
L 151.360341 158.216929 
L 153.072913 157.322302 
L 154.794346 156.444846 
L 156.524467 155.584647 
L 157.844698 154.942668 
L 156.997892 153.184256 
L 155.664325 153.83272 
L 153.916728 154.701608 
L 152.177907 155.587927 
L 150.448036 156.49159 
L 148.727287 157.412507 
L 147.015834 158.350584 
L 145.313848 159.305729 
L 143.621497 160.277846 
L 141.938952 161.266837 
L 140.266381 162.272604 
L 138.603951 163.295047 
L 136.951829 164.334062 
L 135.310179 165.389546 
L 133.679166 166.461394 
L 132.058953 167.549497 
L 130.449701 168.653749 
L 128.851572 169.774037 
L 127.264726 170.91025 
L 125.689322 172.062275 
L 124.125516 173.229996 
L 122.573465 174.413296 
L 121.033325 175.612058 
L 119.505249 176.82616 
L 117.98939 178.055483 
L 116.4859 179.299902 
L 114.99493 180.559294 
L 113.516627 181.833532 
L 112.051141 183.122489 
L 110.598617 184.426037 
L 109.159201 185.744044 
L 107.733037 187.076379 
L 106.320268 188.422909 
L 104.921034 189.783499 
L 103.535475 191.158014 
L 102.163731 192.546314 
L 100.805939 193.948263 
L 99.462233 195.363719 
L 98.132749 196.792542 
L 96.81762 198.234587 
L 95.516976 199.689712 
L 94.230948 201.15777 
L 92.959666 202.638614 
L 91.703254 204.132098 
L 90.461841 205.63807 
L 89.235548 207.156381 
L 88.0245 208.686879 
L 86.828818 210.229411 
L 85.64862 211.783822 
L 84.484025 213.349957 
L 83.335149 214.92766 
L 82.202107 216.516772 
L 81.085013 218.117135 
L 79.983978 219.728589 
L 78.899113 221.350972 
L 77.830525 222.984123 
L 76.778322 224.627878 
L 75.742609 226.282072 
L 74.723489 227.946541 
L 73.721065 229.621118 
L 72.735436 231.305634 
L 71.766702 232.999923 
L 70.814958 234.703814 
L 69.880301 236.417138 
L 68.962824 238.139722 
L 68.062617 239.871394 
L 67.179773 241.611982 
L 66.314378 243.361312 
L 65.466519 245.119207 
L 64.636281 246.885493 
L 63.823748 248.659993 
L 63.028999 250.44253 
L 62.252116 252.232924 
L 61.493175 254.030998 
L 60.752252 255.836572 
L 60.029422 257.649464 
L 59.324757 259.469493 
L 58.638327 261.296478 
L 57.970201 263.130236 
L 57.320445 264.970584 
L 56.689125 266.817337 
L 56.076304 268.67031 
L 55.482043 270.52932 
L 54.906401 272.394178 
L 54.349437 274.2647 
L 53.811205 276.140698 
L 53.29176 278.021984 
L 52.791153 279.90837 
L 52.309435 281.799669 
L 51.846654 283.695689 
L 51.402856 285.596243 
z
" clip-path="url(#p61883ab2ff)" style="fill: #ff6800"/>
   </g>
   <g id="patch_7">
    <path d="M 157.844698 154.942668 
L 159.589688 154.113047 
L 161.342887 153.300918 
L 163.10412 152.506361 
L 164.87321 151.729456 
L 166.64998 150.97028 
L 168.434253 150.22891 
L 170.225851 149.505419 
L 172.024594 148.79988 
L 173.830302 148.112363 
L 175.642795 147.442938 
L 177.461891 146.791671 
L 179.287409 146.158626 
L 181.119166 145.543869 
L 182.956979 144.947459 
L 184.800664 144.369457 
L 186.650037 143.809921 
L 188.504912 143.268906 
L 190.365105 142.746466 
L 192.230429 142.242654 
L 194.100698 141.75752 
L 195.975725 141.291113 
L 197.855322 140.843479 
L 199.739301 140.414664 
L 201.627474 140.004709 
L 203.519653 139.613656 
L 205.415647 139.241544 
L 207.315267 138.88841 
L 209.218324 138.55429 
L 211.124626 138.239217 
L 213.033984 137.943222 
L 214.946207 137.666335 
L 216.861102 137.408584 
L 218.778479 137.169995 
L 220.698147 136.950591 
L 222.619912 136.750394 
L 224.543583 136.569424 
L 226.468968 136.4077 
L 228.395874 136.265238 
L 230.324108 136.142052 
L 232.253477 136.038153 
L 234.183789 135.953554 
L 236.11485 135.888261 
L 238.046468 135.842282 
L 239.978448 135.815621 
L 241.678536 135.808141 
L 241.678536 133.856452 
L 239.961276 133.864007 
L 238.00978 133.890937 
L 236.058651 133.93738 
L 234.108084 134.003333 
L 232.158274 134.088787 
L 230.209416 134.193735 
L 228.261705 134.318166 
L 226.315336 134.462067 
L 224.370503 134.625424 
L 222.427401 134.808222 
L 220.486224 135.010441 
L 218.547166 135.232061 
L 216.610421 135.47306 
L 214.676183 135.733415 
L 212.744645 136.013098 
L 210.816001 136.312083 
L 208.890443 136.630339 
L 206.968163 136.967834 
L 205.049355 137.324535 
L 203.134209 137.700405 
L 201.222918 138.095408 
L 199.315673 138.509504 
L 197.412663 138.942652 
L 195.51408 139.394807 
L 193.620114 139.865925 
L 191.730954 140.355959 
L 189.846788 140.86486 
L 187.967805 141.392577 
L 186.094193 141.939057 
L 184.22614 142.504245 
L 182.363832 143.088086 
L 180.507455 143.69052 
L 178.657196 144.311487 
L 176.813238 144.950926 
L 174.975767 145.608771 
L 173.144966 146.284959 
L 171.321018 146.97942 
L 169.504107 147.692086 
L 167.694412 148.422884 
L 165.892116 149.171743 
L 164.097398 149.938588 
L 162.310439 150.72334 
L 160.531416 151.525923 
L 158.760508 152.346256 
L 156.997892 153.184256 
z
" clip-path="url(#p61883ab2ff)" style="fill: #800000"/>
   </g>
   <g id="PatchCollection_1">
    <path d="M 157.844698 503.108183 
L 157.844698 503.108183 
L 156.108091 502.261155 
L 154.380041 501.396803 
L 152.660721 500.515214 
L 150.950303 499.616476 
L 149.248957 498.700679 
L 147.556854 497.767915 
L 145.874163 496.818277 
L 144.201053 495.85186 
L 142.53769 494.86876 
L 140.884242 493.869076 
L 139.240872 492.852908 
L 137.607747 491.820357 
L 135.985028 490.771527 
L 134.372878 489.706522 
L 132.771459 488.625449 
L 131.180931 487.528417 
L 129.601452 486.415534 
L 128.033181 485.286912 
L 126.476275 484.142665 
L 124.930888 482.982906 
L 123.397177 481.807751 
L 121.875293 480.617318 
L 120.365389 479.411726 
L 118.867617 478.191095 
L 117.382126 476.955548 
L 115.909064 475.705209 
L 114.448579 474.440201 
L 113.000817 473.160652 
L 111.565922 471.866689 
L 110.144039 470.558443 
L 108.735309 469.236043 
L 107.339873 467.899623 
L 105.957871 466.549315 
L 104.589441 465.185255 
L 103.23472 463.807579 
L 101.893843 462.416424 
L 100.566945 461.011931 
L 99.254157 459.59424 
L 97.955612 458.163491 
L 96.671439 456.719829 
L 95.401766 455.263398 
L 94.146722 453.794342 
L 92.90643 452.312811 
L 91.681015 450.81895 
L 90.61518 449.494432 
L 90.61518 449.494432 
Q 241.678536 329.025425 157.844698 154.942668 
L 157.844698 154.942668 
L 157.844698 154.942668 
L 159.589688 154.113047 
L 161.342887 153.300918 
L 163.10412 152.506361 
L 164.87321 151.729456 
L 166.64998 150.97028 
L 168.434253 150.22891 
L 170.225851 149.505419 
L 172.024594 148.79988 
L 173.830302 148.112363 
L 175.642795 147.442938 
L 177.461891 146.791671 
L 179.287409 146.158626 
L 181.119166 145.543869 
L 182.956979 144.947459 
L 184.800664 144.369457 
L 186.650037 143.809921 
L 188.504912 143.268906 
L 190.365105 142.746466 
L 192.230429 142.242654 
L 194.100698 141.75752 
L 195.975725 141.291113 
L 197.855322 140.843479 
L 199.739301 140.414664 
L 201.627474 140.004709 
L 203.519653 139.613656 
L 205.415647 139.241544 
L 207.315267 138.88841 
L 209.218324 138.55429 
L 211.124626 138.239217 
L 213.033984 137.943222 
L 214.946207 137.666335 
L 216.861102 137.408584 
L 218.778479 137.169995 
L 220.698147 136.950591 
L 222.619912 136.750394 
L 224.543583 136.569424 
L 226.468968 136.4077 
L 228.395874 136.265238 
L 230.324108 136.142052 
L 232.253477 136.038153 
L 234.183789 135.953554 
L 236.11485 135.888261 
L 238.046468 135.842282 
L 239.978448 135.815621 
L 241.678536 135.808141 
L 241.678536 135.808141 
Q 241.678536 329.025425 157.844698 503.108183 
z
" clip-path="url(#p61883ab2ff)" style="fill: #ceff29; fill-opacity: 0.5; stroke: #808080; stroke-opacity: 0.5; stroke-width: 0.1"/>
    <path d="M 325.512373 503.108183 
L 325.512373 503.108183 
L 323.767383 503.937803 
L 322.014184 504.749933 
L 320.252952 505.54449 
L 318.483862 506.321395 
L 316.707091 507.080571 
L 314.922818 507.821941 
L 313.131221 508.545432 
L 311.332478 509.250971 
L 309.52677 509.938487 
L 307.714277 510.607913 
L 305.895181 511.25918 
L 304.069663 511.892224 
L 302.237906 512.506982 
L 300.400093 513.103392 
L 298.556408 513.681394 
L 296.707035 514.24093 
L 294.852159 514.781945 
L 292.991966 515.304385 
L 291.126642 515.808197 
L 289.256373 516.29333 
L 287.381346 516.759738 
L 285.50175 517.207371 
L 283.61777 517.636187 
L 281.729597 518.046142 
L 279.837419 518.437195 
L 277.941425 518.809307 
L 276.041805 519.162441 
L 274.138748 519.496561 
L 272.232445 519.811634 
L 270.323087 520.107629 
L 268.410865 520.384516 
L 266.495969 520.642267 
L 264.578592 520.880856 
L 262.658925 521.10026 
L 260.737159 521.300457 
L 258.813488 521.481426 
L 256.888104 521.64315 
L 254.961198 521.785613 
L 253.032964 521.908799 
L 251.103595 522.012697 
L 249.173283 522.097297 
L 247.242222 522.16259 
L 245.310604 522.208569 
L 243.378623 522.23523 
L 241.678536 522.242709 
L 241.678536 522.242709 
Q 241.678536 329.025425 325.512373 154.942668 
L 325.512373 154.942668 
L 325.512373 154.942668 
L 327.24898 155.789696 
L 328.97703 156.654048 
L 330.69635 157.535637 
L 332.406769 158.434375 
L 334.108115 159.350171 
L 335.800217 160.282935 
L 337.482908 161.232574 
L 339.156019 162.198991 
L 340.819381 163.182091 
L 342.47283 164.181775 
L 344.116199 165.197943 
L 345.749325 166.230494 
L 347.372044 167.279324 
L 348.984193 168.344329 
L 350.585612 169.425401 
L 352.17614 170.522434 
L 353.755619 171.635317 
L 355.32389 172.763938 
L 356.880797 173.908186 
L 358.426183 175.067945 
L 359.959895 176.2431 
L 361.481779 177.433533 
L 362.991682 178.639125 
L 364.489455 179.859755 
L 365.974946 181.095302 
L 367.448008 182.345642 
L 368.908493 183.61065 
L 370.356255 184.890199 
L 371.791149 186.184161 
L 373.213032 187.492408 
L 374.621762 188.814807 
L 376.017198 190.151228 
L 377.3992 191.501536 
L 378.76763 192.865596 
L 380.122351 194.243272 
L 381.463228 195.634426 
L 382.790127 197.038919 
L 384.102914 198.456611 
L 385.40146 199.887359 
L 386.685633 201.331022 
L 387.955305 202.787453 
L 389.21035 204.256508 
L 390.450642 205.73804 
L 391.676057 207.231901 
L 392.741891 208.556419 
L 392.741891 208.556419 
Q 241.678536 329.025425 325.512373 503.108183 
z
" clip-path="url(#p61883ab2ff)" style="fill: #29ffce; fill-opacity: 0.5; stroke: #808080; stroke-opacity: 0.5; stroke-width: 0.1"/>
    <path d="M 392.741891 208.556419 
L 392.741891 208.556419 
L 393.939008 210.073051 
L 395.120899 211.601578 
L 396.287446 213.141847 
L 397.438532 214.693705 
L 398.574042 216.256995 
L 399.693863 217.831562 
L 400.797883 219.417249 
L 401.88599 221.013896 
L 402.958077 222.621345 
L 404.014036 224.239433 
L 405.053762 225.868001 
L 406.07715 227.506883 
L 407.084099 229.155918 
L 408.074507 230.81494 
L 409.048276 232.483782 
L 410.005308 234.162279 
L 410.945507 235.850261 
L 411.86878 237.547562 
L 412.775034 239.25401 
L 413.664179 240.969435 
L 414.536125 242.693665 
L 415.390785 244.426529 
L 416.228074 246.167852 
L 417.047909 247.917461 
L 417.850207 249.675181 
L 418.634887 251.440836 
L 419.401873 253.214249 
L 420.151086 254.995243 
L 420.882452 256.783641 
L 421.595897 258.579262 
L 422.291351 260.381928 
L 422.968744 262.191458 
L 423.628008 264.007672 
L 424.269078 265.830387 
L 424.891888 267.659422 
L 425.496377 269.494593 
L 426.082485 271.335717 
L 426.650152 273.18261 
L 427.199323 275.035088 
L 427.729941 276.892964 
L 428.241954 278.756054 
L 428.735312 280.624171 
L 429.209963 282.497127 
L 429.665862 284.374737 
L 430.102962 286.256811 
L 430.52122 288.143162 
L 430.920594 290.033602 
L 431.301044 291.92794 
L 431.662531 293.825989 
L 432.005021 295.727557 
L 432.328478 297.632455 
L 432.63287 299.540492 
L 432.918166 301.451478 
L 433.184339 303.365221 
L 433.431362 305.28153 
L 433.659209 307.200214 
L 433.867859 309.12108 
L 434.05729 311.043936 
L 434.227483 312.968591 
L 434.378421 314.894851 
L 434.510089 316.822524 
L 434.622475 318.751418 
L 434.715566 320.681339 
L 434.789354 322.612094 
L 434.843831 324.543491 
L 434.878991 326.475335 
L 434.894832 328.407435 
L 434.891351 330.339597 
L 434.868549 332.271627 
L 434.826428 334.203333 
L 434.764992 336.134521 
L 434.684248 338.064998 
L 434.584204 339.994571 
L 434.464869 341.923047 
L 434.326256 343.850233 
L 434.168378 345.775937 
L 433.991251 347.699966 
L 433.794893 349.622127 
L 433.579324 351.542229 
L 433.344565 353.460079 
L 433.090639 355.375485 
L 432.817572 357.288257 
L 432.525392 359.198202 
L 432.214127 361.105131 
L 431.883808 363.008851 
L 431.534469 364.909173 
L 431.166145 366.805906 
L 430.778872 368.698862 
L 430.37269 370.58785 
L 430.051459 372.020316 
L 430.051459 372.020316 
Q 241.678536 329.025425 53.305612 286.030535 
L 53.305612 286.030535 
L 53.305612 286.030535 
L 53.744973 284.148987 
L 54.203126 282.271926 
L 54.680027 280.399541 
L 55.175628 278.532018 
L 55.689878 276.669545 
L 56.222728 274.812307 
L 56.774123 272.960491 
L 57.344008 271.114281 
L 57.932326 269.273862 
L 58.539019 267.439418 
L 59.164026 265.611132 
L 59.807284 263.789188 
L 60.468729 261.973768 
L 61.148295 260.165053 
L 61.845913 258.363223 
L 62.561515 256.56846 
L 63.295029 254.780943 
L 64.04638 253.000849 
L 64.815495 251.228359 
L 65.602295 249.463648 
L 66.406704 247.706893 
L 67.228639 245.958269 
L 68.068019 244.217953 
L 68.92476 242.486117 
L 69.798777 240.762935 
L 70.689981 239.048579 
L 71.598283 237.343221 
L 72.523594 235.647031 
L 73.46582 233.960178 
L 74.424867 232.282832 
L 75.40064 230.615161 
L 76.39304 228.95733 
L 77.401968 227.309506 
L 78.427324 225.671853 
L 79.469005 224.044536 
L 80.526907 222.427717 
L 81.600924 220.821557 
L 82.690948 219.226218 
L 83.796872 217.641858 
L 84.918583 216.068637 
L 86.05597 214.506712 
L 87.208919 212.956238 
L 88.377315 211.417371 
L 89.561041 209.890264 
L 90.759978 208.375072 
L 91.974008 206.871944 
L 93.203007 205.381031 
L 94.446854 203.902483 
L 95.705424 202.436446 
L 96.978592 200.983069 
L 98.266229 199.542496 
L 99.568207 198.114871 
L 100.884396 196.700336 
L 102.214665 195.299035 
L 103.558879 193.911106 
L 104.916906 192.536688 
L 106.288609 191.175919 
L 107.67385 189.828934 
L 109.072492 188.495869 
L 110.484395 187.176858 
L 111.909416 185.87203 
L 113.347415 184.581518 
L 114.798246 183.305451 
L 116.261766 182.043955 
L 117.737827 180.797157 
L 119.226282 179.565182 
L 120.726982 178.348153 
L 122.239777 177.146191 
L 123.764516 175.959418 
L 125.301046 174.78795 
L 126.849214 173.631907 
L 128.408865 172.491402 
L 129.979842 171.366551 
L 131.561989 170.257465 
L 133.155148 169.164257 
L 134.75916 168.087034 
L 136.373863 167.025905 
L 137.999096 165.980975 
L 139.634697 164.95235 
L 141.280503 163.940133 
L 142.936348 162.944423 
L 144.602067 161.965322 
L 146.277494 161.002926 
L 147.962461 160.057333 
L 149.6568 159.128636 
L 151.360341 158.216929 
L 153.072913 157.322302 
L 154.794346 156.444846 
L 156.524467 155.584647 
L 157.844698 154.942668 
L 157.844698 154.942668 
Q 241.678536 329.025425 392.741891 208.556419 
z
" clip-path="url(#p61883ab2ff)" style="fill: #004cff; fill-opacity: 0.5; stroke: #808080; stroke-opacity: 0.5; stroke-width: 0.1"/>
    <path d="M 430.051459 372.020316 
L 430.051459 372.020316 
L 429.612099 373.901864 
L 429.153945 375.778924 
L 428.677044 377.65131 
L 428.181444 379.518832 
L 427.667193 381.381306 
L 427.134344 383.238543 
L 426.582949 385.09036 
L 426.013064 386.93657 
L 425.424745 388.776989 
L 424.818052 390.611433 
L 424.193046 392.439718 
L 423.549788 394.261662 
L 422.888343 396.077083 
L 422.208777 397.885798 
L 421.511158 399.687627 
L 420.795556 401.482391 
L 420.062043 403.269908 
L 419.310691 405.050001 
L 418.541577 406.822492 
L 417.754776 408.587203 
L 416.950368 410.343958 
L 416.128432 412.092581 
L 415.289052 413.832898 
L 414.432311 415.564734 
L 413.558295 417.287916 
L 412.667091 419.002272 
L 411.758788 420.70763 
L 410.833477 422.40382 
L 409.891251 424.090672 
L 408.932204 425.768018 
L 407.956432 427.43569 
L 406.964032 429.093521 
L 405.955103 430.741345 
L 404.929747 432.378997 
L 403.888066 434.006315 
L 402.830164 435.623134 
L 401.756148 437.229294 
L 400.666123 438.824633 
L 399.5602 440.408992 
L 398.438489 441.982214 
L 397.301102 443.544139 
L 396.148153 445.094613 
L 394.979757 446.63348 
L 393.796031 448.160586 
L 392.741891 449.494432 
L 392.741891 449.494432 
Q 241.678536 329.025425 90.61518 449.494432 
L 90.61518 449.494432 
L 90.61518 449.494432 
L 89.418063 447.9778 
L 88.236172 446.449273 
L 87.069625 444.909004 
L 85.918539 443.357146 
L 84.783029 441.793856 
L 83.663208 440.219288 
L 82.559189 438.633602 
L 81.471081 437.036954 
L 80.398994 435.429506 
L 79.343035 433.811417 
L 78.303309 432.18285 
L 77.279921 430.543967 
L 76.272972 428.894933 
L 75.282564 427.235911 
L 74.308795 425.567069 
L 73.351764 423.888572 
L 72.411564 422.200589 
L 71.488291 420.503289 
L 70.582037 418.796841 
L 69.692893 417.081416 
L 68.820947 415.357186 
L 67.966286 413.624322 
L 67.128997 411.882999 
L 66.309163 410.133389 
L 65.506865 408.37567 
L 64.722184 406.610015 
L 63.955199 404.836602 
L 63.205986 403.055607 
L 62.47462 401.26721 
L 61.761174 399.471589 
L 61.06572 397.668923 
L 60.388327 395.859393 
L 59.729063 394.043179 
L 59.087994 392.220464 
L 58.465183 390.391429 
L 57.860694 388.556258 
L 57.274587 386.715134 
L 56.706919 384.86824 
L 56.157749 383.015763 
L 55.627131 381.157886 
L 55.115117 379.294797 
L 54.62176 377.42668 
L 54.147108 375.553724 
L 53.691209 373.676114 
L 53.305612 372.020316 
L 53.305612 372.020316 
Q 241.678536 329.025425 430.051459 372.020316 
z
" clip-path="url(#p61883ab2ff)" style="fill: #004cff; fill-opacity: 0.5; stroke: #808080; stroke-opacity: 0.5; stroke-width: 0.1"/>
    <path d="M 392.741891 449.494432 
L 392.741891 449.494432 
L 391.529668 450.999017 
L 390.30246 452.491404 
L 389.06039 453.971445 
L 387.803582 455.438992 
L 386.532161 456.893898 
L 385.246255 458.336016 
L 383.945992 459.765204 
L 382.631503 461.181318 
L 381.302918 462.584217 
L 379.960371 463.973759 
L 378.603997 465.349807 
L 377.233929 466.712223 
L 375.850306 468.06087 
L 374.453267 469.395613 
L 373.042949 470.71632 
L 371.619496 472.022858 
L 370.183049 473.315096 
L 368.733751 474.592905 
L 367.271747 475.856158 
L 365.797185 477.104728 
L 364.310211 478.33849 
L 362.810973 479.55732 
L 361.299623 480.761098 
L 359.776311 481.949702 
L 358.241188 483.123014 
L 356.69441 484.280916 
L 355.13613 485.423293 
L 353.566505 486.550031 
L 351.985691 487.661015 
L 350.393846 488.756137 
L 348.79113 489.835285 
L 347.177702 490.898353 
L 345.553725 491.945234 
L 343.919361 492.975822 
L 342.274772 493.990016 
L 340.620124 494.987713 
L 338.955581 495.968815 
L 337.281312 496.933222 
L 335.597482 497.880838 
L 333.90426 498.811569 
L 332.201815 499.725322 
L 330.490319 500.622005 
L 328.769941 501.501528 
L 327.040854 502.363804 
L 325.512373 503.108183 
L 325.512373 503.108183 
Q 241.678536 329.025425 241.678536 522.242709 
L 241.678536 522.242709 
L 241.678536 522.242709 
L 239.746395 522.233049 
L 237.814448 522.204067 
L 235.882887 522.155768 
L 233.951905 522.088156 
L 232.021696 522.001238 
L 230.092453 521.895023 
L 228.164369 521.76952 
L 226.237636 521.624744 
L 224.312447 521.460708 
L 222.388994 521.277428 
L 220.467471 521.074923 
L 218.548068 520.853214 
L 216.630979 520.612321 
L 214.716394 520.352271 
L 212.804506 520.073088 
L 210.895505 519.7748 
L 208.989582 519.457437 
L 207.086928 519.121032 
L 205.187733 518.765617 
L 203.292187 518.391228 
L 201.40048 517.997902 
L 199.512801 517.58568 
L 197.629338 517.154602 
L 195.75028 516.704711 
L 193.875815 516.236052 
L 192.00613 515.748672 
L 190.141412 515.24262 
L 188.281848 514.717947 
L 186.427623 514.174705 
L 184.578924 513.612947 
L 182.735935 513.032731 
L 180.898839 512.434115 
L 179.067822 511.817158 
L 177.243066 511.181921 
L 175.424753 510.52847 
L 173.613065 509.856868 
L 171.808184 509.167183 
L 170.01029 508.459484 
L 168.219563 507.733842 
L 166.436181 506.990329 
L 164.660324 506.22902 
L 162.892168 505.449991 
L 161.131891 504.653319 
L 159.379669 503.839085 
L 157.844698 503.108183 
L 157.844698 503.108183 
Q 241.678536 329.025425 392.741891 449.494432 
z
" clip-path="url(#p61883ab2ff)" style="fill: #004cff; fill-opacity: 0.5; stroke: #808080; stroke-opacity: 0.5; stroke-width: 0.1"/>
    <path d="M 241.678536 135.808141 
L 241.678536 135.808141 
L 243.610676 135.817802 
L 245.542624 135.846783 
L 247.474185 135.895083 
L 249.405166 135.962694 
L 251.335375 136.049613 
L 253.264618 136.155828 
L 255.192703 136.28133 
L 257.119436 136.426107 
L 259.044625 136.590143 
L 260.968077 136.773423 
L 262.889601 136.975928 
L 264.809003 137.197637 
L 266.726093 137.438529 
L 268.640677 137.69858 
L 270.552566 137.977763 
L 272.461567 138.276051 
L 274.36749 138.593413 
L 276.270144 138.929819 
L 278.169339 139.285234 
L 280.064884 139.659623 
L 281.956591 140.052948 
L 283.844271 140.465171 
L 285.727734 140.896249 
L 287.606792 141.34614 
L 289.481257 141.814799 
L 291.350942 142.302178 
L 293.21566 142.80823 
L 295.075224 143.332904 
L 296.929448 143.876146 
L 298.778147 144.437904 
L 300.621137 145.018119 
L 302.458232 145.616736 
L 304.28925 146.233693 
L 306.114006 146.868929 
L 307.932319 147.522381 
L 309.744006 148.193983 
L 311.548887 148.883668 
L 313.346781 149.591367 
L 315.137509 150.317009 
L 316.92089 151.060522 
L 318.696748 151.821831 
L 320.464903 152.60086 
L 322.22518 153.397532 
L 323.977402 154.211766 
L 325.512373 154.942668 
L 325.512373 154.942668 
Q 241.678536 329.025425 53.305612 372.020316 
L 53.305612 372.020316 
L 53.305612 372.020316 
L 52.885089 370.134468 
L 52.483445 368.24451 
L 52.100721 366.35063 
L 51.736954 364.453017 
L 51.392181 362.551861 
L 51.066436 360.647353 
L 50.759753 358.739683 
L 50.472161 356.829041 
L 50.203689 354.915619 
L 49.954366 352.999608 
L 49.724214 351.0812 
L 49.513257 349.160586 
L 49.321517 347.237958 
L 49.149013 345.313509 
L 48.995761 343.387432 
L 48.861777 341.459918 
L 48.747075 339.531161 
L 48.651666 337.601353 
L 48.57556 335.670688 
L 48.518763 333.739358 
L 48.481283 331.807557 
L 48.463122 329.875477 
L 48.464282 327.943313 
L 48.484763 326.011257 
L 48.524564 324.079502 
L 48.58368 322.148242 
L 48.662106 320.217669 
L 48.759832 318.287977 
L 48.876851 316.359359 
L 49.01315 314.432008 
L 49.168714 312.506116 
L 49.34353 310.581876 
L 49.537579 308.65948 
L 49.750842 306.739121 
L 49.983298 304.82099 
L 50.234923 302.90528 
L 50.505692 300.992181 
L 50.795579 299.081887 
L 51.104553 297.174586 
L 51.432585 295.27047 
L 51.779641 293.36973 
L 52.145687 291.472556 
L 52.530686 289.579137 
L 52.934599 287.689662 
L 53.305612 286.030535 
L 53.305612 286.030535 
Q 241.678536 329.025425 241.678536 135.808141 
z
" clip-path="url(#p61883ab2ff)" style="fill: #000080; fill-opacity: 0.5; stroke: #808080; stroke-opacity: 0.5; stroke-width: 0.1"/>
   </g>
   <g id="patch_8">
    <path d="M 241.678536 135.808141 
L 243.610676 135.817802 
L 245.542624 135.846783 
L 247.474185 135.895083 
L 249.405166 135.962694 
L 251.335375 136.049613 
L 253.264618 136.155828 
L 255.192703 136.28133 
L 257.119436 136.426107 
L 259.044625 136.590143 
L 260.968077 136.773423 
L 262.889601 136.975928 
L 264.809003 137.197637 
L 266.726093 137.438529 
L 268.640677 137.69858 
L 270.552566 137.977763 
L 272.461567 138.276051 
L 274.36749 138.593413 
L 276.270144 138.929819 
L 278.169339 139.285234 
L 280.064884 139.659623 
L 281.956591 140.052948 
L 283.844271 140.465171 
L 285.727734 140.896249 
L 287.606792 141.34614 
L 289.481257 141.814799 
L 291.350942 142.302178 
L 293.21566 142.80823 
L 295.075224 143.332904 
L 296.929448 143.876146 
L 298.778147 144.437904 
L 300.621137 145.018119 
L 302.458232 145.616736 
L 304.28925 146.233693 
L 306.114006 146.868929 
L 307.932319 147.522381 
L 309.744006 148.193983 
L 311.548887 148.883668 
L 313.346781 149.591367 
L 315.137509 150.317009 
L 316.92089 151.060522 
L 318.696748 151.821831 
L 320.464903 152.60086 
L 322.22518 153.397532 
L 323.977402 154.211766 
L 325.512373 154.942668 
L 326.35918 153.184256 
L 324.808704 152.445972 
L 323.038783 151.623513 
L 321.260725 150.818794 
L 319.474709 150.031895 
L 317.680914 149.262896 
L 315.879519 148.511873 
L 314.070703 147.778901 
L 312.254649 147.064054 
L 310.431536 146.367403 
L 308.601549 145.689017 
L 306.764869 145.028965 
L 304.921681 144.387312 
L 303.072169 143.764123 
L 301.216517 143.15946 
L 299.354911 142.573383 
L 297.487538 142.005951 
L 295.614584 141.457222 
L 293.736237 140.927248 
L 291.852683 140.416085 
L 289.964113 139.923782 
L 288.070713 139.45039 
L 286.172675 138.995954 
L 284.270187 138.560522 
L 282.363441 138.144135 
L 280.452625 137.746837 
L 278.537933 137.368666 
L 276.619554 137.009661 
L 274.697681 136.669858 
L 272.772507 136.34929 
L 270.844223 136.047989 
L 268.913022 135.765985 
L 266.979098 135.503308 
L 265.042644 135.259983 
L 263.103854 135.036034 
L 261.162921 134.831483 
L 259.22004 134.646352 
L 257.275405 134.480659 
L 255.32921 134.33442 
L 253.381649 134.20765 
L 251.432919 134.100362 
L 249.483213 134.012566 
L 247.532727 133.944271 
L 245.581655 133.895484 
L 243.630193 133.86621 
L 241.678536 133.856452 
L 241.678536 135.808141 
z
" clip-path="url(#p61883ab2ff)" style="fill: none; stroke: #000000; stroke-width: 0.5; stroke-linejoin: miter"/>
   </g>
   <g id="patch_9">
    <path d="M 325.512373 154.942668 
L 327.24898 155.789696 
L 328.97703 156.654048 
L 330.69635 157.535637 
L 332.406769 158.434375 
L 334.108115 159.350171 
L 335.800217 160.282935 
L 337.482908 161.232574 
L 339.156019 162.198991 
L 340.819381 163.182091 
L 342.47283 164.181775 
L 344.116199 165.197943 
L 345.749325 166.230494 
L 347.372044 167.279324 
L 348.984193 168.344329 
L 350.585612 169.425401 
L 352.17614 170.522434 
L 353.755619 171.635317 
L 355.32389 172.763938 
L 356.880797 173.908186 
L 358.426183 175.067945 
L 359.959895 176.2431 
L 361.481779 177.433533 
L 362.991682 178.639125 
L 364.489455 179.859755 
L 365.974946 181.095302 
L 367.448008 182.345642 
L 368.908493 183.61065 
L 370.356255 184.890199 
L 371.791149 186.184161 
L 373.213032 187.492408 
L 374.621762 188.814807 
L 376.017198 190.151228 
L 377.3992 191.501536 
L 378.76763 192.865596 
L 380.122351 194.243272 
L 381.463228 195.634426 
L 382.790127 197.038919 
L 384.102914 198.456611 
L 385.40146 199.887359 
L 386.685633 201.331022 
L 387.955305 202.787453 
L 389.21035 204.256508 
L 390.450642 205.73804 
L 391.676057 207.231901 
L 392.886472 208.737941 
L 394.081766 210.256009 
L 395.26182 211.785954 
L 396.426516 213.327624 
L 397.575738 214.880862 
L 398.70937 216.445516 
L 399.827299 218.021427 
L 400.929413 219.608438 
L 402.015602 221.206391 
L 403.085757 222.815126 
L 404.139772 224.434482 
L 405.177541 226.064297 
L 406.198961 227.704407 
L 407.203928 229.35465 
L 408.192343 231.01486 
L 409.164107 232.684871 
L 410.119122 234.364516 
L 411.057293 236.053627 
L 411.978527 237.752034 
L 412.882731 239.45957 
L 413.769814 241.176061 
L 414.639689 242.901338 
L 415.492267 244.635227 
L 416.327465 246.377554 
L 417.145197 248.128147 
L 417.945383 249.886829 
L 418.727943 251.653425 
L 419.492797 253.427758 
L 420.239871 255.209651 
L 420.969088 256.998926 
L 421.680377 258.795402 
L 422.373665 260.598902 
L 423.048884 262.409245 
L 423.705967 264.226249 
L 424.344846 266.049733 
L 424.96546 267.879514 
L 425.567744 269.71541 
L 426.15164 271.557237 
L 426.717089 273.404811 
L 427.264034 275.257946 
L 427.79242 277.116459 
L 428.302196 278.980162 
L 428.793309 280.84887 
L 429.265711 282.722395 
L 429.719354 284.600551 
L 430.154194 286.483149 
L 430.570186 288.370001 
L 430.967289 290.260919 
L 431.345463 292.155713 
L 431.70467 294.054194 
L 432.044876 295.956172 
L 432.366045 297.861458 
L 432.668145 299.769859 
L 432.951146 301.681186 
L 433.21502 303.595247 
L 433.459741 305.511852 
L 433.685284 307.430808 
L 433.891626 309.351923 
L 434.078747 311.275005 
L 434.246629 313.199863 
L 434.395253 315.126303 
L 434.524607 317.054133 
L 434.634675 318.98316 
L 434.725449 320.913192 
L 434.796917 322.844034 
L 434.849074 324.775495 
L 434.881914 326.707381 
L 434.895434 328.639498 
L 434.889633 330.571654 
L 434.86451 332.503656 
L 434.820069 334.435309 
L 434.756315 336.366422 
L 434.673252 338.2968 
L 434.57089 340.226252 
L 434.449239 342.154583 
L 434.308311 344.081602 
L 434.148121 346.007114 
L 433.968683 347.930929 
L 433.770017 349.852853 
L 433.552142 351.772695 
L 433.315079 353.690261 
L 433.058853 355.605362 
L 432.783489 357.517804 
L 432.489015 359.427397 
L 432.17546 361.33395 
L 431.842855 363.237272 
L 431.491234 365.137173 
L 431.120632 367.033463 
L 430.731086 368.925952 
L 430.322635 370.814451 
L 429.89532 372.698771 
L 429.449183 374.578724 
L 428.984269 376.454121 
L 428.500625 378.324776 
L 427.998298 380.190501 
L 427.47734 382.051109 
L 426.937802 383.906415 
L 426.379739 385.756233 
L 425.803205 387.600377 
L 425.208259 389.438665 
L 424.59496 391.270911 
L 423.96337 393.096932 
L 423.313552 394.916547 
L 422.64557 396.729572 
L 421.959491 398.535827 
L 421.255385 400.335131 
L 420.533321 402.127304 
L 419.793372 403.912167 
L 419.035611 405.689541 
L 418.260115 407.45925 
L 417.466961 409.221114 
L 416.656228 410.974959 
L 415.827997 412.72061 
L 414.982352 414.457891 
L 414.119377 416.186628 
L 413.239157 417.90665 
L 412.341782 419.617784 
L 411.42734 421.319858 
L 410.495924 423.012703 
L 409.547626 424.696149 
L 408.582541 426.370029 
L 407.600766 428.034174 
L 406.602399 429.688418 
L 405.58754 431.332596 
L 404.55629 432.966544 
L 403.508752 434.590097 
L 402.445032 436.203094 
L 401.365235 437.805373 
L 400.269469 439.396775 
L 399.157844 440.977139 
L 398.030472 442.546308 
L 396.887465 444.104126 
L 395.728936 445.650435 
L 394.555003 447.185082 
L 393.365783 448.707914 
L 392.161393 450.218777 
L 390.941956 451.717521 
L 389.707592 453.203995 
L 388.458426 454.678052 
L 387.194582 456.139544 
L 385.916186 457.588325 
L 384.623367 459.024249 
L 383.316253 460.447174 
L 381.994975 461.856956 
L 380.659667 463.253456 
L 379.31046 464.636533 
L 377.94749 466.006048 
L 376.570893 467.361866 
L 375.180807 468.703851 
L 373.777371 470.031867 
L 372.360725 471.345783 
L 370.931011 472.645467 
L 369.488372 473.93079 
L 368.032952 475.201622 
L 366.564897 476.457836 
L 365.084353 477.699307 
L 363.591469 478.925911 
L 362.086393 480.137525 
L 360.569277 481.334028 
L 359.040272 482.5153 
L 357.499531 483.681224 
L 355.947208 484.831682 
L 354.383458 485.966559 
L 352.808437 487.085743 
L 351.222304 488.18912 
L 349.625216 489.276581 
L 348.017334 490.348018 
L 346.398818 491.403322 
L 344.76983 492.442388 
L 343.130534 493.465113 
L 341.481092 494.471395 
L 339.821669 495.461131 
L 338.152433 496.434225 
L 336.473549 497.390577 
L 334.785186 498.330093 
L 333.087512 499.252679 
L 331.380698 500.158242 
L 329.664913 501.046692 
L 327.94033 501.917941 
L 326.20712 502.7719 
L 325.512373 503.108183 
L 326.35918 504.866595 
L 327.060944 504.526914 
L 328.811661 503.66433 
L 330.553664 502.784281 
L 332.28678 501.886857 
L 334.010835 500.972146 
L 335.725657 500.040241 
L 337.431075 499.091235 
L 339.126917 498.125223 
L 340.813014 497.1423 
L 342.489198 496.142566 
L 344.155301 495.12612 
L 345.811157 494.093065 
L 347.456599 493.043503 
L 349.091464 491.977539 
L 350.715587 490.89528 
L 352.328807 489.796834 
L 353.930962 488.682311 
L 355.521891 487.551823 
L 357.101437 486.405482 
L 358.66944 485.243404 
L 360.225744 484.065703 
L 361.770194 482.872499 
L 363.302634 481.66391 
L 364.822913 480.440057 
L 366.330876 479.201064 
L 367.826375 477.947052 
L 369.309259 476.678149 
L 370.779381 475.39448 
L 372.236592 474.096175 
L 373.680747 472.783363 
L 375.111703 471.456175 
L 376.529315 470.114744 
L 377.933442 468.759204 
L 379.323944 467.389691 
L 380.700681 466.006342 
L 382.063516 464.609295 
L 383.412313 463.198689 
L 384.746937 461.774666 
L 386.067254 460.337369 
L 387.373132 458.88694 
L 388.664441 457.423525 
L 389.941051 455.947271 
L 391.202835 454.458324 
L 392.449667 452.956835 
L 393.681422 451.442952 
L 394.897977 449.916828 
L 396.09921 448.378614 
L 397.285001 446.828466 
L 398.455232 445.266537 
L 399.609785 443.692984 
L 400.748545 442.107965 
L 401.871398 440.511637 
L 402.978232 438.904161 
L 404.068936 437.285697 
L 405.143401 435.656407 
L 406.20152 434.016454 
L 407.243187 432.366002 
L 408.268297 430.705216 
L 409.276748 429.034262 
L 410.26844 427.353308 
L 411.243273 425.66252 
L 412.20115 423.962069 
L 413.141975 422.252125 
L 414.065653 420.532858 
L 414.972093 418.80444 
L 415.861203 417.067044 
L 416.732896 415.320845 
L 417.587083 413.566016 
L 418.423679 411.802732 
L 419.242601 410.031172 
L 420.043767 408.25151 
L 420.827097 406.463926 
L 421.592511 404.668599 
L 422.339935 402.865707 
L 423.069293 401.055431 
L 423.780511 399.237952 
L 424.47352 397.413452 
L 425.148249 395.582114 
L 425.804631 393.744119 
L 426.442601 391.899653 
L 427.062095 390.048899 
L 427.66305 388.192044 
L 428.245407 386.329271 
L 428.809108 384.460768 
L 429.354096 382.586722 
L 429.880316 380.70732 
L 430.387716 378.822749 
L 430.876246 376.933199 
L 431.345856 375.038858 
L 431.796499 373.139916 
L 432.228131 371.236562 
L 432.640708 369.328987 
L 433.034189 367.417382 
L 433.408534 365.501938 
L 433.763707 363.582846 
L 434.099671 361.660299 
L 434.416394 359.734488 
L 434.713842 357.805606 
L 434.991988 355.873846 
L 435.250802 353.939401 
L 435.490259 352.002465 
L 435.710335 350.063231 
L 435.911008 348.121894 
L 436.092258 346.178647 
L 436.254067 344.233684 
L 436.396418 342.287201 
L 436.519298 340.339391 
L 436.622694 338.390451 
L 436.706595 336.440573 
L 436.770994 334.489954 
L 436.815884 332.538789 
L 436.84126 330.587273 
L 436.84712 328.6356 
L 436.833464 326.683966 
L 436.800292 324.732566 
L 436.747608 322.781596 
L 436.675417 320.83125 
L 436.583727 318.881723 
L 436.472547 316.933211 
L 436.341887 314.985908 
L 436.191761 313.040009 
L 436.022184 311.095708 
L 435.833173 309.153201 
L 435.624746 307.21268 
L 435.396925 305.274341 
L 435.149732 303.338377 
L 434.883193 301.404982 
L 434.597333 299.474348 
L 434.292181 297.54667 
L 433.967768 295.62214 
L 433.624126 293.700949 
L 433.26129 291.783292 
L 432.879296 289.869358 
L 432.478182 287.95934 
L 432.057988 286.053429 
L 431.618756 284.151815 
L 431.160531 282.254688 
L 430.683357 280.362238 
L 430.187283 278.474654 
L 429.672359 276.592126 
L 429.138635 274.714841 
L 428.586165 272.842986 
L 428.015005 270.97675 
L 427.425211 269.116319 
L 426.816843 267.261879 
L 426.189961 265.413615 
L 425.544628 263.571712 
L 424.880908 261.736354 
L 424.198869 259.907725 
L 423.498577 258.086008 
L 422.780104 256.271385 
L 422.043521 254.464037 
L 421.288901 252.664146 
L 420.51632 250.87189 
L 419.725856 249.087449 
L 418.917588 247.311003 
L 418.091595 245.542727 
L 417.247961 243.7828 
L 416.386771 242.031397 
L 415.50811 240.288694 
L 414.612066 238.554864 
L 413.698729 236.830081 
L 412.76819 235.114517 
L 411.820542 233.408345 
L 410.85588 231.711734 
L 409.874301 230.024854 
L 408.875902 228.347875 
L 407.860783 226.680963 
L 406.829047 225.024285 
L 405.780795 223.378008 
L 404.716133 221.742295 
L 403.635168 220.11731 
L 402.538007 218.503216 
L 401.424761 216.900174 
L 400.29554 215.308345 
L 399.150457 213.727887 
L 397.989627 212.158959 
L 396.813167 210.601717 
L 395.621193 209.056318 
L 394.413825 207.522915 
L 393.191183 206.001663 
L 391.95339 204.492713 
L 390.70057 202.996216 
L 389.432848 201.512322 
L 388.150351 200.041179 
L 386.853206 198.582935 
L 385.541544 197.137734 
L 384.215496 195.705722 
L 382.875195 194.287042 
L 381.520774 192.881836 
L 380.152368 191.490244 
L 378.770116 190.112406 
L 377.374154 188.748458 
L 375.964623 187.398539 
L 374.541664 186.062781 
L 373.105418 184.74132 
L 371.65603 183.434288 
L 370.193644 182.141814 
L 368.718406 180.864028 
L 367.230465 179.601059 
L 365.729969 178.353031 
L 364.217068 177.120071 
L 362.691913 175.902302 
L 361.154656 174.699844 
L 359.605452 173.512819 
L 358.044456 172.341345 
L 356.471823 171.185539 
L 354.887711 170.045518 
L 353.292278 168.921394 
L 351.685684 167.81328 
L 350.068089 166.721287 
L 348.439655 165.645525 
L 346.800545 164.586101 
L 345.150923 163.54312 
L 343.490954 162.516687 
L 341.820804 161.506906 
L 340.14064 160.513875 
L 338.450629 159.537696 
L 336.750941 158.578466 
L 335.041747 157.63628 
L 333.323216 156.711233 
L 331.59552 155.803417 
L 329.858833 154.912923 
L 328.113328 154.03984 
L 326.35918 153.184256 
L 325.512373 154.942668 
z
" clip-path="url(#p61883ab2ff)" style="fill: none; stroke: #000000; stroke-width: 0.5; stroke-linejoin: miter"/>
   </g>
   <g id="patch_10">
    <path d="M 325.512373 503.108183 
L 323.767383 503.937803 
L 322.014184 504.749933 
L 320.252952 505.54449 
L 318.483862 506.321395 
L 316.707091 507.080571 
L 314.922818 507.821941 
L 313.131221 508.545432 
L 311.332478 509.250971 
L 309.52677 509.938487 
L 307.714277 510.607913 
L 305.895181 511.25918 
L 304.069663 511.892224 
L 302.237906 512.506982 
L 300.400093 513.103392 
L 298.556408 513.681394 
L 296.707035 514.24093 
L 294.852159 514.781945 
L 292.991966 515.304385 
L 291.126642 515.808197 
L 289.256373 516.29333 
L 287.381346 516.759738 
L 285.50175 517.207371 
L 283.61777 517.636187 
L 281.729597 518.046142 
L 279.837419 518.437195 
L 277.941425 518.809307 
L 276.041805 519.162441 
L 274.138748 519.496561 
L 272.232445 519.811634 
L 270.323087 520.107629 
L 268.410865 520.384516 
L 266.495969 520.642267 
L 264.578592 520.880856 
L 262.658925 521.10026 
L 260.737159 521.300457 
L 258.813488 521.481426 
L 256.888104 521.64315 
L 254.961198 521.785613 
L 253.032964 521.908799 
L 251.103595 522.012697 
L 249.173283 522.097297 
L 247.242222 522.16259 
L 245.310604 522.208569 
L 243.378623 522.23523 
L 241.446472 522.24257 
L 239.514345 522.230589 
L 237.582433 522.199287 
L 235.650932 522.148668 
L 233.720033 522.078737 
L 231.78993 521.989501 
L 229.860816 521.880968 
L 227.932883 521.75315 
L 226.006326 521.60606 
L 224.081335 521.439711 
L 222.158104 521.254122 
L 220.236825 521.049309 
L 218.31769 520.825294 
L 216.400892 520.5821 
L 214.486621 520.31975 
L 212.575069 520.038271 
L 210.666427 519.73769 
L 208.760887 519.418039 
L 206.858639 519.079348 
L 204.959872 518.721653 
L 203.064777 518.344987 
L 201.173544 517.94939 
L 199.286361 517.534901 
L 197.403417 517.101561 
L 195.524901 516.649413 
L 193.651 516.178504 
L 191.781902 515.688879 
L 189.917793 515.180588 
L 188.058861 514.653681 
L 186.20529 514.108212 
L 184.357267 513.544235 
L 182.514975 512.961806 
L 180.6786 512.360983 
L 178.848325 511.741827 
L 177.024333 511.1044 
L 175.206806 510.448765 
L 173.395927 509.774987 
L 171.591875 509.083135 
L 169.794833 508.373278 
L 168.004978 507.645485 
L 166.222491 506.899831 
L 164.447549 506.136389 
L 162.680331 505.355237 
L 160.921012 504.556452 
L 159.169769 503.740113 
L 157.844698 503.108183 
L 156.997892 504.866595 
L 158.336347 505.504908 
L 160.105279 506.329492 
L 161.882369 507.136346 
L 163.667438 507.925389 
L 165.460309 508.696542 
L 167.260801 509.449728 
L 169.068735 510.184872 
L 170.883929 510.9019 
L 172.706203 511.600741 
L 174.535375 512.281324 
L 176.37126 512.943581 
L 178.213677 513.587447 
L 180.062439 514.212857 
L 181.917363 514.819749 
L 183.778264 515.408061 
L 185.644954 515.977735 
L 187.517248 516.528714 
L 189.394957 517.060943 
L 191.277895 517.574368 
L 193.165873 518.068939 
L 195.058703 518.544605 
L 196.956194 519.00132 
L 198.858157 519.439037 
L 200.764403 519.857713 
L 202.674739 520.257306 
L 204.588976 520.637776 
L 206.506922 520.999085 
L 208.428386 521.341197 
L 210.353174 521.664077 
L 212.281094 521.967693 
L 214.211955 522.252016 
L 216.145562 522.517016 
L 218.081722 522.762667 
L 220.020242 522.988944 
L 221.960928 523.195826 
L 223.903585 523.38329 
L 225.84802 523.551319 
L 227.794038 523.699895 
L 229.741445 523.829004 
L 231.690045 523.938633 
L 233.639644 524.02877 
L 235.590047 524.099408 
L 237.541059 524.150538 
L 239.492484 524.182156 
L 241.444128 524.194258 
L 243.395796 524.186844 
L 245.347292 524.159914 
L 247.29842 524.11347 
L 249.248987 524.047518 
L 251.198797 523.962064 
L 253.147655 523.857116 
L 255.095366 523.732685 
L 257.041735 523.588784 
L 258.986569 523.425426 
L 260.929671 523.242629 
L 262.870848 523.04041 
L 264.809906 522.81879 
L 266.746651 522.57779 
L 268.680889 522.317436 
L 270.612426 522.037752 
L 272.541071 521.738768 
L 274.466629 521.420512 
L 276.388908 521.083017 
L 278.307717 520.726316 
L 280.222862 520.350445 
L 282.134153 519.955442 
L 284.041399 519.541346 
L 285.944408 519.108199 
L 287.842991 518.656044 
L 289.736957 518.184925 
L 291.626118 517.694891 
L 293.510284 517.18599 
L 295.389267 516.658274 
L 297.262878 516.111794 
L 299.130932 515.546605 
L 300.99324 514.962765 
L 302.849616 514.360331 
L 304.699876 513.739364 
L 306.543834 513.099925 
L 308.381305 512.442079 
L 310.212106 511.765892 
L 312.036053 511.071431 
L 313.852965 510.358765 
L 315.662659 509.627966 
L 317.464956 508.879107 
L 319.259673 508.112263 
L 321.046633 507.32751 
L 322.825655 506.524928 
L 324.596564 505.704595 
L 326.35918 504.866595 
L 325.512373 503.108183 
z
" clip-path="url(#p61883ab2ff)" style="fill: none; stroke: #000000; stroke-width: 0.5; stroke-linejoin: miter"/>
   </g>
   <g id="patch_11">
    <path d="M 157.844698 503.108183 
L 156.108091 502.261155 
L 154.380041 501.396803 
L 152.660721 500.515214 
L 150.950303 499.616476 
L 149.248957 498.700679 
L 147.556854 497.767915 
L 145.874163 496.818277 
L 144.201053 495.85186 
L 142.53769 494.86876 
L 140.884242 493.869076 
L 139.240872 492.852908 
L 137.607747 491.820357 
L 135.985028 490.771527 
L 134.372878 489.706522 
L 132.771459 488.625449 
L 131.180931 487.528417 
L 129.601452 486.415534 
L 128.033181 485.286912 
L 126.476275 484.142665 
L 124.930888 482.982906 
L 123.397177 481.807751 
L 121.875293 480.617318 
L 120.365389 479.411726 
L 118.867617 478.191095 
L 117.382126 476.955548 
L 115.909064 475.705209 
L 114.448579 474.440201 
L 113.000817 473.160652 
L 111.565922 471.866689 
L 110.144039 470.558443 
L 108.735309 469.236043 
L 107.339873 467.899623 
L 105.957871 466.549315 
L 104.589441 465.185255 
L 103.23472 463.807579 
L 101.893843 462.416424 
L 100.566945 461.011931 
L 99.254157 459.59424 
L 97.955612 458.163491 
L 96.671439 456.719829 
L 95.401766 455.263398 
L 94.146722 453.794342 
L 92.90643 452.312811 
L 91.681015 450.81895 
L 90.4706 449.31291 
L 89.275305 447.794842 
L 88.095251 446.264896 
L 86.930555 444.723227 
L 85.781334 443.169988 
L 84.647702 441.605335 
L 83.529773 440.029424 
L 82.427659 438.442413 
L 81.34147 436.84446 
L 80.271314 435.235725 
L 79.217299 433.616369 
L 78.17953 431.986554 
L 77.158111 430.346443 
L 76.153144 428.6962 
L 75.164729 427.035991 
L 74.192965 425.36598 
L 73.23795 423.686335 
L 72.299778 421.997224 
L 71.378545 420.298816 
L 70.474341 418.591281 
L 69.587257 416.874789 
L 68.717383 415.149513 
L 67.864804 413.415624 
L 67.029607 411.673296 
L 66.211874 409.922704 
L 65.411688 408.164022 
L 64.629129 406.397426 
L 63.864274 404.623092 
L 63.117201 402.8412 
L 62.387983 401.051925 
L 61.676695 399.255448 
L 60.983406 397.451948 
L 60.308187 395.641606 
L 59.651105 393.824602 
L 59.012225 392.001118 
L 58.391612 390.171337 
L 57.789327 388.335441 
L 57.205431 386.493614 
L 56.639983 384.64604 
L 56.093038 382.792904 
L 55.564651 380.934392 
L 55.054876 379.070689 
L 54.563762 377.201981 
L 54.091361 375.328456 
L 53.637717 373.4503 
L 53.202878 371.567702 
L 52.786886 369.68085 
L 52.389783 367.789932 
L 52.011609 365.895138 
L 51.652401 363.996657 
L 51.312196 362.094678 
L 50.991027 360.189393 
L 50.688927 358.280992 
L 50.405925 356.369665 
L 50.142051 354.455603 
L 49.89733 352.538999 
L 49.671788 350.620043 
L 49.465445 348.698928 
L 49.278324 346.775845 
L 49.110443 344.850988 
L 48.961818 342.924548 
L 48.832465 340.996718 
L 48.722396 339.06769 
L 48.631623 337.137659 
L 48.560154 335.206817 
L 48.507997 333.275356 
L 48.475157 331.34347 
L 48.461637 329.411353 
L 48.467439 327.479197 
L 48.492561 325.547195 
L 48.537002 323.615542 
L 48.600757 321.684429 
L 48.68382 319.75405 
L 48.786181 317.824599 
L 48.907832 315.896268 
L 49.04876 313.969249 
L 49.208951 312.043736 
L 49.388388 310.119922 
L 49.587055 308.197997 
L 49.80493 306.278156 
L 50.041992 304.360589 
L 50.298218 302.445489 
L 50.573582 300.533047 
L 50.868057 298.623454 
L 51.181612 296.716901 
L 51.514216 294.813579 
L 51.865837 292.913678 
L 52.236439 291.017388 
L 52.625985 289.124899 
L 53.034436 287.2364 
L 53.305612 286.030535 
L 51.402856 285.596243 
L 51.12894 286.814289 
L 50.716363 288.721863 
L 50.322883 290.633468 
L 49.948537 292.548913 
L 49.593365 294.468004 
L 49.2574 296.390552 
L 48.940678 298.316363 
L 48.643229 300.245245 
L 48.365084 302.177005 
L 48.10627 304.111449 
L 47.866813 306.048386 
L 47.646737 307.987619 
L 47.446064 309.928957 
L 47.264814 311.872204 
L 47.103005 313.817166 
L 46.960654 315.76365 
L 46.837774 317.711459 
L 46.734378 319.6604 
L 46.650476 321.610277 
L 46.586077 323.560896 
L 46.541188 325.512062 
L 46.515811 327.463578 
L 46.509951 329.415251 
L 46.523608 331.366885 
L 46.55678 333.318284 
L 46.609464 335.269255 
L 46.681654 337.219601 
L 46.773344 339.169128 
L 46.884525 341.11764 
L 47.015185 343.064943 
L 47.16531 345.010842 
L 47.334888 346.955142 
L 47.523899 348.89765 
L 47.732325 350.83817 
L 47.960146 352.77651 
L 48.207339 354.712474 
L 48.473879 356.645869 
L 48.759739 358.576502 
L 49.064891 360.504181 
L 49.389303 362.428711 
L 49.732945 364.349901 
L 50.095781 366.267559 
L 50.477775 368.181493 
L 50.87889 370.09151 
L 51.299083 371.997422 
L 51.738315 373.899036 
L 52.196541 375.796163 
L 52.673714 377.688613 
L 53.169788 379.576196 
L 53.684713 381.458725 
L 54.218437 383.33601 
L 54.770906 385.207864 
L 55.342067 387.0741 
L 55.931861 388.934532 
L 56.540229 390.788972 
L 57.167111 392.637236 
L 57.812444 394.479139 
L 58.476163 396.314497 
L 59.158203 398.143125 
L 59.858494 399.964842 
L 60.576968 401.779466 
L 61.313551 403.586813 
L 62.068171 405.386705 
L 62.840751 407.178961 
L 63.631215 408.963401 
L 64.439484 410.739848 
L 65.265476 412.508123 
L 66.10911 414.26805 
L 66.9703 416.019453 
L 67.848962 417.762157 
L 68.745006 419.495987 
L 69.658343 421.22077 
L 70.588882 422.936333 
L 71.53653 424.642506 
L 72.501191 426.339117 
L 73.482771 428.025996 
L 74.48117 429.702976 
L 75.496288 431.369888 
L 76.528025 433.026565 
L 77.576277 434.672843 
L 78.640938 436.308556 
L 79.721903 437.933541 
L 80.819064 439.547635 
L 81.932311 441.150676 
L 83.061532 442.742506 
L 84.206614 444.322964 
L 85.367444 445.891892 
L 86.543905 447.449133 
L 87.735879 448.994533 
L 88.943247 450.527935 
L 90.165889 452.049188 
L 91.403681 453.558138 
L 92.656501 455.054635 
L 93.924223 456.538529 
L 95.206721 458.009672 
L 96.503865 459.467916 
L 97.815527 460.913117 
L 99.141575 462.345128 
L 100.481877 463.763808 
L 101.836298 465.169015 
L 103.204703 466.560606 
L 104.586956 467.938445 
L 105.982917 469.302392 
L 107.392448 470.652312 
L 108.815408 471.988069 
L 110.251653 473.30953 
L 111.701042 474.616563 
L 113.163428 475.909037 
L 114.638665 477.186823 
L 116.126606 478.449792 
L 117.627103 479.697819 
L 119.140004 480.930779 
L 120.665159 482.148549 
L 122.202415 483.351007 
L 123.751619 484.538032 
L 125.312616 485.709506 
L 126.885249 486.865311 
L 128.469361 488.005333 
L 130.064794 489.129457 
L 131.671388 490.237571 
L 133.288983 491.329563 
L 134.917417 492.405326 
L 136.556526 493.46475 
L 138.206148 494.507731 
L 139.866117 495.534163 
L 141.536268 496.543945 
L 143.216432 497.536975 
L 144.906442 498.513154 
L 146.60613 499.472385 
L 148.315325 500.414571 
L 150.033856 501.339618 
L 151.761551 502.247434 
L 153.498238 503.137928 
L 155.243743 504.01101 
L 156.997892 504.866595 
L 157.844698 503.108183 
z
" clip-path="url(#p61883ab2ff)" style="fill: none; stroke: #000000; stroke-width: 0.5; stroke-linejoin: miter"/>
   </g>
   <g id="patch_12">
    <path d="M 53.305612 286.030535 
L 53.744973 284.148987 
L 54.203126 282.271926 
L 54.680027 280.399541 
L 55.175628 278.532018 
L 55.689878 276.669545 
L 56.222728 274.812307 
L 56.774123 272.960491 
L 57.344008 271.114281 
L 57.932326 269.273862 
L 58.539019 267.439418 
L 59.164026 265.611132 
L 59.807284 263.789188 
L 60.468729 261.973768 
L 61.148295 260.165053 
L 61.845913 258.363223 
L 62.561515 256.56846 
L 63.295029 254.780943 
L 64.04638 253.000849 
L 64.815495 251.228359 
L 65.602295 249.463648 
L 66.406704 247.706893 
L 67.228639 245.958269 
L 68.068019 244.217953 
L 68.92476 242.486117 
L 69.798777 240.762935 
L 70.689981 239.048579 
L 71.598283 237.343221 
L 72.523594 235.647031 
L 73.46582 233.960178 
L 74.424867 232.282832 
L 75.40064 230.615161 
L 76.39304 228.95733 
L 77.401968 227.309506 
L 78.427324 225.671853 
L 79.469005 224.044536 
L 80.526907 222.427717 
L 81.600924 220.821557 
L 82.690948 219.226218 
L 83.796872 217.641858 
L 84.918583 216.068637 
L 86.05597 214.506712 
L 87.208919 212.956238 
L 88.377315 211.417371 
L 89.561041 209.890264 
L 90.759978 208.375072 
L 91.974008 206.871944 
L 93.203007 205.381031 
L 94.446854 203.902483 
L 95.705424 202.436446 
L 96.978592 200.983069 
L 98.266229 199.542496 
L 99.568207 198.114871 
L 100.884396 196.700336 
L 102.214665 195.299035 
L 103.558879 193.911106 
L 104.916906 192.536688 
L 106.288609 191.175919 
L 107.67385 189.828934 
L 109.072492 188.495869 
L 110.484395 187.176858 
L 111.909416 185.87203 
L 113.347415 184.581518 
L 114.798246 183.305451 
L 116.261766 182.043955 
L 117.737827 180.797157 
L 119.226282 179.565182 
L 120.726982 178.348153 
L 122.239777 177.146191 
L 123.764516 175.959418 
L 125.301046 174.78795 
L 126.849214 173.631907 
L 128.408865 172.491402 
L 129.979842 171.366551 
L 131.561989 170.257465 
L 133.155148 169.164257 
L 134.75916 168.087034 
L 136.373863 167.025905 
L 137.999096 165.980975 
L 139.634697 164.95235 
L 141.280503 163.940133 
L 142.936348 162.944423 
L 144.602067 161.965322 
L 146.277494 161.002926 
L 147.962461 160.057333 
L 149.6568 159.128636 
L 151.360341 158.216929 
L 153.072913 157.322302 
L 154.794346 156.444846 
L 156.524467 155.584647 
L 157.844698 154.942668 
L 156.997892 153.184256 
L 155.664325 153.83272 
L 153.916728 154.701608 
L 152.177907 155.587927 
L 150.448036 156.49159 
L 148.727287 157.412507 
L 147.015834 158.350584 
L 145.313848 159.305729 
L 143.621497 160.277846 
L 141.938952 161.266837 
L 140.266381 162.272604 
L 138.603951 163.295047 
L 136.951829 164.334062 
L 135.310179 165.389546 
L 133.679166 166.461394 
L 132.058953 167.549497 
L 130.449701 168.653749 
L 128.851572 169.774037 
L 127.264726 170.91025 
L 125.689322 172.062275 
L 124.125516 173.229996 
L 122.573465 174.413296 
L 121.033325 175.612058 
L 119.505249 176.82616 
L 117.98939 178.055483 
L 116.4859 179.299902 
L 114.99493 180.559294 
L 113.516627 181.833532 
L 112.051141 183.122489 
L 110.598617 184.426037 
L 109.159201 185.744044 
L 107.733037 187.076379 
L 106.320268 188.422909 
L 104.921034 189.783499 
L 103.535475 191.158014 
L 102.163731 192.546314 
L 100.805939 193.948263 
L 99.462233 195.363719 
L 98.132749 196.792542 
L 96.81762 198.234587 
L 95.516976 199.689712 
L 94.230948 201.15777 
L 92.959666 202.638614 
L 91.703254 204.132098 
L 90.461841 205.63807 
L 89.235548 207.156381 
L 88.0245 208.686879 
L 86.828818 210.229411 
L 85.64862 211.783822 
L 84.484025 213.349957 
L 83.335149 214.92766 
L 82.202107 216.516772 
L 81.085013 218.117135 
L 79.983978 219.728589 
L 78.899113 221.350972 
L 77.830525 222.984123 
L 76.778322 224.627878 
L 75.742609 226.282072 
L 74.723489 227.946541 
L 73.721065 229.621118 
L 72.735436 231.305634 
L 71.766702 232.999923 
L 70.814958 234.703814 
L 69.880301 236.417138 
L 68.962824 238.139722 
L 68.062617 239.871394 
L 67.179773 241.611982 
L 66.314378 243.361312 
L 65.466519 245.119207 
L 64.636281 246.885493 
L 63.823748 248.659993 
L 63.028999 250.44253 
L 62.252116 252.232924 
L 61.493175 254.030998 
L 60.752252 255.836572 
L 60.029422 257.649464 
L 59.324757 259.469493 
L 58.638327 261.296478 
L 57.970201 263.130236 
L 57.320445 264.970584 
L 56.689125 266.817337 
L 56.076304 268.67031 
L 55.482043 270.52932 
L 54.906401 272.394178 
L 54.349437 274.2647 
L 53.811205 276.140698 
L 53.29176 278.021984 
L 52.791153 279.90837 
L 52.309435 281.799669 
L 51.846654 283.695689 
L 51.402856 285.596243 
L 53.305612 286.030535 
z
" clip-path="url(#p61883ab2ff)" style="fill: none; stroke: #000000; stroke-width: 0.5; stroke-linejoin: miter"/>
   </g>
   <g id="patch_13">
    <path d="M 157.844698 154.942668 
L 159.589688 154.113047 
L 161.342887 153.300918 
L 163.10412 152.506361 
L 164.87321 151.729456 
L 166.64998 150.97028 
L 168.434253 150.22891 
L 170.225851 149.505419 
L 172.024594 148.79988 
L 173.830302 148.112363 
L 175.642795 147.442938 
L 177.461891 146.791671 
L 179.287409 146.158626 
L 181.119166 145.543869 
L 182.956979 144.947459 
L 184.800664 144.369457 
L 186.650037 143.809921 
L 188.504912 143.268906 
L 190.365105 142.746466 
L 192.230429 142.242654 
L 194.100698 141.75752 
L 195.975725 141.291113 
L 197.855322 140.843479 
L 199.739301 140.414664 
L 201.627474 140.004709 
L 203.519653 139.613656 
L 205.415647 139.241544 
L 207.315267 138.88841 
L 209.218324 138.55429 
L 211.124626 138.239217 
L 213.033984 137.943222 
L 214.946207 137.666335 
L 216.861102 137.408584 
L 218.778479 137.169995 
L 220.698147 136.950591 
L 222.619912 136.750394 
L 224.543583 136.569424 
L 226.468968 136.4077 
L 228.395874 136.265238 
L 230.324108 136.142052 
L 232.253477 136.038153 
L 234.183789 135.953554 
L 236.11485 135.888261 
L 238.046468 135.842282 
L 239.978448 135.815621 
L 241.678536 135.808141 
L 241.678536 133.856452 
L 239.961276 133.864007 
L 238.00978 133.890937 
L 236.058651 133.93738 
L 234.108084 134.003333 
L 232.158274 134.088787 
L 230.209416 134.193735 
L 228.261705 134.318166 
L 226.315336 134.462067 
L 224.370503 134.625424 
L 222.427401 134.808222 
L 220.486224 135.010441 
L 218.547166 135.232061 
L 216.610421 135.47306 
L 214.676183 135.733415 
L 212.744645 136.013098 
L 210.816001 136.312083 
L 208.890443 136.630339 
L 206.968163 136.967834 
L 205.049355 137.324535 
L 203.134209 137.700405 
L 201.222918 138.095408 
L 199.315673 138.509504 
L 197.412663 138.942652 
L 195.51408 139.394807 
L 193.620114 139.865925 
L 191.730954 140.355959 
L 189.846788 140.86486 
L 187.967805 141.392577 
L 186.094193 141.939057 
L 184.22614 142.504245 
L 182.363832 143.088086 
L 180.507455 143.69052 
L 178.657196 144.311487 
L 176.813238 144.950926 
L 174.975767 145.608771 
L 173.144966 146.284959 
L 171.321018 146.97942 
L 169.504107 147.692086 
L 167.694412 148.422884 
L 165.892116 149.171743 
L 164.097398 149.938588 
L 162.310439 150.72334 
L 160.531416 151.525923 
L 158.760508 152.346256 
L 156.997892 153.184256 
L 157.844698 154.942668 
z
" clip-path="url(#p61883ab2ff)" style="fill: none; stroke: #000000; stroke-width: 0.5; stroke-linejoin: miter"/>
   </g>
   <g id="text_1">
    <text style="font: 3px 'DejaVu Sans', 'Bitstream Vera Sans', 'Computer Modern Sans Serif', 'Lucida Grande', 'Verdana', 'Geneva', 'Lucid', 'Arial', 'Helvetica', 'Avant Garde', sans-serif; text-anchor: start" x="286.653199" y="137.10061" transform="rotate(-77.142857 286.653199 137.10061)">Divine Word University</text>
   </g>
   <g id="text_2">
    <text style="font: 3px 'DejaVu Sans', 'Bitstream Vera Sans', 'Computer Modern Sans Serif', 'Lucida Grande', 'Verdana', 'Geneva', 'Lucid', 'Arial', 'Helvetica', 'Avant Garde', sans-serif; text-anchor: start" x="438.799199" y="330.165191" transform="rotate(-360 438.799199 330.165191)">New Guinea Binatang Research Center</text>
   </g>
   <g id="text_3">
    <text style="font: 3px 'DejaVu Sans', 'Bitstream Vera Sans', 'Computer Modern Sans Serif', 'Lucida Grande', 'Verdana', 'Geneva', 'Lucid', 'Arial', 'Helvetica', 'Avant Garde', sans-serif; text-anchor: end" x="242.818301" y="526.146089" transform="rotate(-90 242.818301 526.146089)">Papua New Guinea University of Technology</text>
   </g>
   <g id="text_4">
    <text style="font: 3px 'DejaVu Sans', 'Bitstream Vera Sans', 'Computer Modern Sans Serif', 'Lucida Grande', 'Verdana', 'Geneva', 'Lucid', 'Arial', 'Helvetica', 'Avant Garde', sans-serif; text-anchor: end" x="64.57348" y="415.579769" transform="rotate(-25.714286 64.57348 415.579769)">University of Goroka</text>
   </g>
   <g id="text_5">
    <text style="font: 3px 'DejaVu Sans', 'Bitstream Vera Sans', 'Computer Modern Sans Serif', 'Lucida Grande', 'Verdana', 'Geneva', 'Lucid', 'Arial', 'Helvetica', 'Avant Garde', sans-serif; text-anchor: end" x="86.852763" y="207.013807" transform="rotate(-321.428571 86.852763 207.013807)">University of Papua New Guinea</text>
   </g>
   <g id="text_6">
    <text style="font: 3px 'DejaVu Sans', 'Bitstream Vera Sans', 'Computer Modern Sans Serif', 'Lucida Grande', 'Verdana', 'Geneva', 'Lucid', 'Arial', 'Helvetica', 'Avant Garde', sans-serif; text-anchor: end" x="196.703872" y="137.10061" transform="rotate(-282.857143 196.703872 137.10061)">Papua New Guinea University of Natural Resources and Environment</text>
   </g>
  </g>
 </g>
 <defs>
  <clipPath id="p61883ab2ff">
   <path d="M 446.605958 329.025425 
C 446.605958 302.114603 441.305113 275.465454 431.006787 250.603096 
C 420.708461 225.740738 405.612931 203.14868 386.584106 184.119855 
C 367.555281 165.09103 344.963223 149.9955 320.100865 139.697174 
C 295.238507 129.398848 268.589358 124.098003 241.678536 124.098003 
C 214.767713 124.098003 188.118564 129.398848 163.256206 139.697174 
C 138.393848 149.9955 115.801791 165.09103 96.772966 184.119855 
C 77.744141 203.14868 62.64861 225.740738 52.350284 250.603096 
C 42.051958 275.465454 36.751113 302.114603 36.751113 329.025425 
C 36.751113 355.936248 42.051958 382.585397 52.350284 407.447755 
C 62.64861 432.310113 77.744141 454.90217 96.772966 473.930995 
C 115.801791 492.959821 138.393848 508.055351 163.256206 518.353677 
C 188.118564 528.652003 214.767713 533.952848 241.678536 533.952848 
C 268.589358 533.952848 295.238507 528.652003 320.100865 518.353677 
C 344.963223 508.055351 367.555281 492.959821 386.584106 473.930995 
C 405.612931 454.90217 420.708461 432.310113 431.006787 407.447755 
C 441.305113 382.585397 446.605958 355.936248 446.605958 329.025425 
M 241.678536 329.025425 
C 241.678536 329.025425 241.678536 329.025425 241.678536 329.025425 
C 241.678536 329.025425 241.678536 329.025425 241.678536 329.025425 
C 241.678536 329.025425 241.678536 329.025425 241.678536 329.025425 
C 241.678536 329.025425 241.678536 329.025425 241.678536 329.025425 
C 241.678536 329.025425 241.678536 329.025425 241.678536 329.025425 
C 241.678536 329.025425 241.678536 329.025425 241.678536 329.025425 
C 241.678536 329.025425 241.678536 329.025425 241.678536 329.025425 
C 241.678536 329.025425 241.678536 329.025425 241.678536 329.025425 
C 241.678536 329.025425 241.678536 329.025425 241.678536 329.025425 
C 241.678536 329.025425 241.678536 329.025425 241.678536 329.025425 
C 241.678536 329.025425 241.678536 329.025425 241.678536 329.025425 
C 241.678536 329.025425 241.678536 329.025425 241.678536 329.025425 
C 241.678536 329.025425 241.678536 329.025425 241.678536 329.025425 
C 241.678536 329.025425 241.678536 329.025425 241.678536 329.025425 
C 241.678536 329.025425 241.678536 329.025425 241.678536 329.025425 
C 241.678536 329.025425 241.678536 329.025425 241.678536 329.025425 
z
"/>
  </clipPath>
 </defs>
</svg>
