<?xml version="1.0" encoding="utf-8" standalone="no"?>
<!DOCTYPE svg PUBLIC "-//W3C//DTD SVG 1.1//EN"
  "http://www.w3.org/Graphics/SVG/1.1/DTD/svg11.dtd">
<svg xmlns:xlink="http://www.w3.org/1999/xlink" width="629.218021pt" height="517.146937pt" viewBox="0 0 629.218021 517.146937" xmlns="http://www.w3.org/2000/svg" version="1.1">
 <metadata>
  <rdf:RDF xmlns:dc="http://purl.org/dc/elements/1.1/" xmlns:cc="http://creativecommons.org/ns#" xmlns:rdf="http://www.w3.org/1999/02/22-rdf-syntax-ns#">
   <cc:Work>
    <dc:type rdf:resource="http://purl.org/dc/dcmitype/StillImage"/>
    <dc:date>2024-11-16T04:11:59.771265</dc:date>
    <dc:format>image/svg+xml</dc:format>
    <dc:creator>
     <cc:Agent>
      <dc:title>Matplotlib v3.8.4, https://matplotlib.org/</dc:title>
     </cc:Agent>
    </dc:creator>
   </cc:Work>
  </rdf:RDF>
 </metadata>
 <defs>
  <style type="text/css">*{stroke-linejoin: round; stroke-linecap: butt}</style>
 </defs>
 <g id="figure_1">
  <g id="patch_1">
   <path d="M 0 517.146937 
L 629.218021 517.146937 
L 629.218021 0 
L 0 0 
z
" style="fill: #ffffff"/>
  </g>
  <g id="axes_1">
   <g id="patch_2">
    <path d="M 337.144636 48.718484 
L 339.243151 48.728977 
L 341.341456 48.760454 
L 343.439341 48.812912 
L 345.536597 48.886346 
L 347.633014 48.980748 
L 349.728381 49.09611 
L 351.822491 49.232419 
L 353.915133 49.389662 
L 356.006097 49.567823 
L 358.095176 49.766885 
L 360.182159 49.986827 
L 362.266839 50.227628 
L 364.349007 50.489263 
L 366.428454 50.771706 
L 368.504973 51.074929 
L 370.578356 51.398902 
L 372.648395 51.743592 
L 374.714884 52.108966 
L 376.777616 52.494985 
L 378.836385 52.901612 
L 380.890985 53.328806 
L 382.94121 53.776524 
L 384.986855 54.244722 
L 387.027717 54.733353 
L 389.06359 55.242367 
L 391.094271 55.771715 
L 393.119557 56.321342 
L 395.139246 56.891194 
L 397.153136 57.481215 
L 399.161024 58.091344 
L 401.162711 58.721522 
L 403.157997 59.371684 
L 405.146681 60.041767 
L 407.128564 60.731703 
L 409.10345 61.441422 
L 411.07114 62.170855 
L 413.031437 62.919928 
L 414.984145 63.688566 
L 416.92907 64.476692 
L 418.866016 65.284228 
L 420.79479 66.111092 
L 422.715199 66.957203 
L 424.627052 67.822475 
L 426.530156 68.706822 
L 428.424321 69.610156 
L 430.309359 70.532385 
L 432.18508 71.473419 
L 434.051298 72.433163 
L 435.907824 73.41152 
L 437.754475 74.408394 
L 439.591064 75.423683 
L 441.417409 76.457288 
L 443.233327 77.509104 
L 445.038636 78.579026 
L 446.833156 79.666948 
L 448.616707 80.77276 
L 450.389111 81.896352 
L 452.150191 83.037612 
L 453.89977 84.196425 
L 455.637673 85.372676 
L 457.363728 86.566246 
L 459.077761 87.777018 
L 460.7796 89.004868 
L 462.469076 90.249676 
L 464.14602 91.511315 
L 465.810263 92.789661 
L 467.461641 94.084585 
L 469.099986 95.395958 
L 470.725136 96.723648 
L 472.336929 98.067523 
L 473.935202 99.427449 
L 475.519796 100.803289 
L 477.090553 102.194906 
L 478.647315 103.602161 
L 480.189927 105.024912 
L 481.718235 106.463019 
L 483.232086 107.916336 
L 484.731328 109.384719 
L 486.215811 110.868021 
L 487.685387 112.366093 
L 489.13991 113.878786 
L 490.579233 115.405948 
L 492.003212 116.947426 
L 493.411706 118.503068 
L 494.804574 120.072716 
L 496.181675 121.656214 
L 497.542873 123.253403 
L 498.888031 124.864125 
L 500.217015 126.488217 
L 501.529692 128.125518 
L 502.825931 129.775864 
L 504.105602 131.439089 
L 505.368576 133.115027 
L 506.614729 134.803512 
L 507.843934 136.504373 
L 509.05607 138.217441 
L 510.251015 139.942544 
L 511.428649 141.679511 
L 512.588855 143.428166 
L 513.731516 145.188337 
L 514.85652 146.959845 
L 515.963752 148.742515 
L 517.053102 150.536168 
L 518.124462 152.340624 
L 519.177724 154.155704 
L 520.212782 155.981225 
L 521.229534 157.817006 
L 522.227878 159.662862 
L 523.207713 161.518609 
L 524.168943 163.384062 
L 525.11147 165.259033 
L 526.0352 167.143336 
L 526.940042 169.036781 
L 527.825904 170.93918 
L 528.692699 172.850343 
L 529.540338 174.770078 
L 530.368738 176.698193 
L 531.177816 178.634496 
L 531.967491 180.578792 
L 532.737684 182.530888 
L 533.488318 184.490588 
L 534.219317 186.457696 
L 534.930609 188.432016 
L 535.622123 190.413349 
L 536.293789 192.401499 
L 536.94554 194.396266 
L 537.577311 196.397451 
L 538.18904 198.404853 
L 538.780664 200.418272 
L 539.352124 202.437506 
L 539.903364 204.462354 
L 540.434328 206.492613 
L 540.944964 208.52808 
L 541.435219 210.568552 
L 541.905046 212.613824 
L 542.354397 214.663692 
L 542.783227 216.717951 
L 543.191493 218.776395 
L 543.579155 220.838819 
L 543.946174 222.905017 
L 544.292512 224.974781 
L 544.618136 227.047905 
L 544.923013 229.124182 
L 545.207112 231.203403 
L 545.470405 233.285362 
L 545.712866 235.369849 
L 545.93447 237.456657 
L 546.135195 239.545576 
L 546.315022 241.636399 
L 546.473931 243.728914 
L 546.611908 245.822915 
L 546.728938 247.91819 
L 546.82501 250.014531 
L 546.900114 252.111728 
L 546.954242 254.20957 
L 546.98739 256.30785 
L 546.999554 258.406356 
L 546.990732 260.504878 
L 546.960926 262.603208 
L 546.910139 264.701134 
L 546.838375 266.798448 
L 546.745642 268.894939 
L 546.631949 270.990398 
L 546.497308 273.084615 
L 546.341731 275.177382 
L 546.165235 277.268488 
L 545.967837 279.357724 
L 545.749557 281.444882 
L 545.510416 283.529753 
L 545.250439 285.612128 
L 544.969652 287.6918 
L 544.668083 289.768559 
L 544.345761 291.842199 
L 544.002719 293.912513 
L 543.638992 295.979292 
L 543.254615 298.042331 
L 542.849628 300.101423 
L 542.42407 302.156362 
L 541.977984 304.206943 
L 541.511416 306.252961 
L 541.02441 308.294211 
L 540.517017 310.330488 
L 539.989287 312.361591 
L 539.441273 314.387314 
L 538.873029 316.407456 
L 538.284612 318.421814 
L 537.676082 320.430188 
L 537.047499 322.432377 
L 536.398925 324.428179 
L 535.730426 326.417396 
L 535.042069 328.399829 
L 534.333922 330.375279 
L 533.606057 332.343549 
L 532.858545 334.304442 
L 532.091463 336.257761 
L 531.304885 338.203313 
L 530.498892 340.140902 
L 529.673564 342.070334 
L 528.828983 343.991416 
L 527.965233 345.903957 
L 527.082402 347.807765 
L 526.180577 349.702649 
L 525.259849 351.58842 
L 524.320309 353.46489 
L 523.362052 355.331871 
L 522.385173 357.189177 
L 521.389771 359.03662 
L 520.375944 360.874018 
L 519.343794 362.701185 
L 518.293424 364.51794 
L 517.22494 366.324101 
L 516.138448 368.119486 
L 515.034056 369.903917 
L 513.911876 371.677216 
L 512.772019 373.439203 
L 511.614599 375.189705 
L 510.439733 376.928544 
L 509.247537 378.655549 
L 508.038131 380.370545 
L 506.811636 382.073362 
L 505.568175 383.763829 
L 504.307871 385.441776 
L 503.030851 387.107038 
L 501.737242 388.759445 
L 500.427175 390.398835 
L 499.100779 392.025042 
L 497.758188 393.637904 
L 496.399535 395.237259 
L 495.024957 396.822949 
L 493.634592 398.394813 
L 492.228577 399.952696 
L 490.807054 401.49644 
L 489.370165 403.025893 
L 487.918054 404.5409 
L 486.450865 406.041311 
L 484.968746 407.526975 
L 483.471845 408.997744 
L 481.960311 410.45347 
L 480.434295 411.894009 
L 478.893951 413.319216 
L 477.339432 414.728948 
L 475.770894 416.123065 
L 474.188493 417.501427 
L 472.592387 418.863896 
L 470.982738 420.210337 
L 469.359704 421.540614 
L 467.723449 422.854594 
L 466.074136 424.152147 
L 464.411931 425.433141 
L 462.736998 426.69745 
L 461.049507 427.944947 
L 459.349625 429.175506 
L 457.637523 430.389006 
L 455.913372 431.585324 
L 454.177344 432.764341 
L 452.429612 433.925939 
L 450.670353 435.070002 
L 448.899741 436.196415 
L 447.117953 437.305067 
L 445.325168 438.395845 
L 443.521565 439.468641 
L 441.707325 440.523348 
L 439.882629 441.55986 
L 438.047658 442.578074 
L 436.202598 443.577887 
L 434.347632 444.5592 
L 432.482945 445.521915 
L 430.608725 446.465934 
L 428.725158 447.391165 
L 426.832434 448.297514 
L 424.930741 449.184891 
L 423.020269 450.053207 
L 421.10121 450.902375 
L 419.173755 451.732311 
L 417.238097 452.54293 
L 415.29443 453.334153 
L 413.342949 454.1059 
L 411.383847 454.858094 
L 409.417322 455.59066 
L 407.443569 456.303524 
L 405.462786 456.996615 
L 403.475172 457.669864 
L 401.480925 458.323204 
L 399.480244 458.956568 
L 397.47333 459.569895 
L 395.460382 460.163122 
L 393.441604 460.73619 
L 391.417195 461.289043 
L 389.38736 461.821624 
L 387.3523 462.33388 
L 385.31222 462.82576 
L 383.267322 463.297215 
L 381.217813 463.748198 
L 379.163896 464.178664 
L 377.105777 464.58857 
L 375.043663 464.977874 
L 372.977758 465.346538 
L 370.90827 465.694524 
L 368.835406 466.021799 
L 366.759373 466.328329 
L 364.680378 466.614084 
L 362.59863 466.879035 
L 360.514336 467.123155 
L 358.427706 467.346421 
L 356.338947 467.54881 
L 354.248269 467.730301 
L 352.15588 467.890877 
L 350.06199 468.030521 
L 347.966809 468.149219 
L 345.870545 468.246961 
L 343.773409 468.323735 
L 341.67561 468.379534 
L 339.577357 468.414353 
L 337.478862 468.428187 
L 337.144636 468.428454 
L 337.144636 470.548201 
L 337.482238 470.547932 
L 339.60193 470.533957 
L 341.721377 470.498787 
L 343.840366 470.442424 
L 345.958685 470.364875 
L 348.076124 470.266146 
L 350.192468 470.146248 
L 352.307509 470.005194 
L 354.421033 469.842996 
L 356.532829 469.659672 
L 358.642686 469.455239 
L 360.750394 469.229718 
L 362.855741 468.983131 
L 364.958517 468.715504 
L 367.058512 468.426863 
L 369.155515 468.117237 
L 371.249317 467.786656 
L 373.339709 467.435154 
L 375.426481 467.062767 
L 377.509425 466.66953 
L 379.588333 466.255484 
L 381.662996 465.82067 
L 383.733208 465.365132 
L 385.798761 464.888915 
L 387.859448 464.392066 
L 389.915064 463.874635 
L 391.965403 463.336675 
L 394.01026 462.778238 
L 396.04943 462.199381 
L 398.08271 461.600162 
L 400.109897 460.98064 
L 402.130786 460.340878 
L 404.145178 459.680939 
L 406.152869 459.000889 
L 408.153659 458.300797 
L 410.147349 457.580732 
L 412.133738 456.840767 
L 414.112629 456.080975 
L 416.083822 455.301433 
L 418.047122 454.502218 
L 420.002332 453.68341 
L 421.949256 452.845092 
L 423.8877 451.987346 
L 425.817469 451.110259 
L 427.738371 450.213919 
L 429.650214 449.298415 
L 431.552807 448.363838 
L 433.445958 447.410283 
L 435.32948 446.437844 
L 437.203183 445.446619 
L 439.066881 444.436706 
L 440.920386 443.408208 
L 442.763514 442.361226 
L 444.59608 441.295865 
L 446.417901 440.212233 
L 448.228795 439.110436 
L 450.02858 437.990587 
L 451.817077 436.852795 
L 453.594107 435.697176 
L 455.359492 434.523845 
L 457.113056 433.332918 
L 458.854623 432.124516 
L 460.584019 430.898759 
L 462.301071 429.65577 
L 464.005608 428.395672 
L 465.697459 427.118592 
L 467.376454 425.824658 
L 469.042427 424.513999 
L 470.69521 423.186747 
L 472.334638 421.843033 
L 473.960547 420.482992 
L 475.572774 419.10676 
L 477.171159 417.714475 
L 478.755541 416.306276 
L 480.325762 414.882304 
L 481.881666 413.442701 
L 483.423096 411.987612 
L 484.949898 410.517181 
L 486.461919 409.031556 
L 487.959009 407.530885 
L 489.441018 406.015319 
L 490.907797 404.485008 
L 492.3592 402.940107 
L 493.795082 401.380769 
L 495.215298 399.80715 
L 496.619708 398.219408 
L 498.008171 396.617702 
L 499.380547 395.002191 
L 500.7367 393.373037 
L 502.076493 391.730404 
L 503.399794 390.074455 
L 504.706469 388.405356 
L 505.996388 386.723274 
L 507.269423 385.028378 
L 508.525444 383.320835 
L 509.764328 381.600819 
L 510.98595 379.868499 
L 512.190188 378.12405 
L 513.376922 376.367646 
L 514.546033 374.599463 
L 515.697403 372.819678 
L 516.830919 371.028467 
L 517.946466 369.226012 
L 519.043933 367.412491 
L 520.12321 365.588087 
L 521.184189 363.752981 
L 522.226765 361.907357 
L 523.250833 360.0514 
L 524.25629 358.185295 
L 525.243036 356.309229 
L 526.210973 354.42339 
L 527.160003 352.527965 
L 528.090031 350.623146 
L 529.000965 348.709121 
L 529.892714 346.786083 
L 530.765188 344.854224 
L 531.618301 342.913736 
L 532.451966 340.964815 
L 533.2661 339.007655 
L 534.060622 337.042451 
L 534.835454 335.069401 
L 535.590516 333.088701 
L 536.325733 331.100549 
L 537.041033 329.105145 
L 537.736343 327.102688 
L 538.411595 325.093378 
L 539.066719 323.077416 
L 539.701652 321.055004 
L 540.316329 319.026343 
L 540.910689 316.991638 
L 541.484673 314.95109 
L 542.038223 312.904905 
L 542.571284 310.853287 
L 543.083802 308.79644 
L 543.575726 306.734572 
L 544.047008 304.667887 
L 544.497599 302.596593 
L 544.927456 300.520897 
L 545.336534 298.441006 
L 545.724793 296.357129 
L 546.092195 294.269473 
L 546.438701 292.178247 
L 546.764279 290.083661 
L 547.068895 287.985924 
L 547.352518 285.885246 
L 547.615121 283.781837 
L 547.856677 281.675906 
L 548.077162 279.567666 
L 548.276554 277.457326 
L 548.454833 275.345098 
L 548.611981 273.231193 
L 548.747983 271.115822 
L 548.862824 268.999196 
L 548.956494 266.881528 
L 549.028982 264.76303 
L 549.080283 262.643912 
L 549.11039 260.524387 
L 549.119301 258.404668 
L 549.107014 256.284965 
L 549.073531 254.165491 
L 549.018856 252.046457 
L 548.942993 249.928077 
L 548.845951 247.810561 
L 548.727739 245.694121 
L 548.588368 243.578969 
L 548.427854 241.465317 
L 548.246211 239.353375 
L 548.043458 237.243356 
L 547.819616 235.135469 
L 547.574706 233.029926 
L 547.308754 230.926938 
L 547.021785 228.826714 
L 546.713828 226.729465 
L 546.384915 224.6354 
L 546.035078 222.544729 
L 545.664352 220.457661 
L 545.272775 218.374404 
L 544.860385 216.295168 
L 544.427223 214.220159 
L 543.973333 212.149585 
L 543.498761 210.083654 
L 543.003553 208.022571 
L 542.48776 205.966544 
L 541.951432 203.915777 
L 541.394624 201.870476 
L 540.817391 199.830845 
L 540.219791 197.797089 
L 539.601884 195.76941 
L 538.963731 193.748012 
L 538.305396 191.733095 
L 537.626946 189.724863 
L 536.928447 187.723516 
L 536.20997 185.729254 
L 535.471587 183.742276 
L 534.713371 181.762781 
L 533.935399 179.790967 
L 533.137748 177.827031 
L 532.320497 175.87117 
L 531.483729 173.923579 
L 530.627527 171.984453 
L 529.751978 170.053986 
L 528.857167 168.13237 
L 527.943186 166.219799 
L 527.010125 164.316463 
L 526.058077 162.422552 
L 525.087138 160.538257 
L 524.097406 158.663765 
L 523.088978 156.799264 
L 522.061955 154.94494 
L 521.016442 153.100979 
L 519.952541 151.267565 
L 518.870359 149.444882 
L 517.770005 147.633111 
L 516.651589 145.832435 
L 515.515222 144.043032 
L 514.361019 142.265083 
L 513.189093 140.498764 
L 511.999564 138.744252 
L 510.792549 137.001723 
L 509.568169 135.271352 
L 508.326548 133.55331 
L 507.067808 131.84777 
L 505.792076 130.154903 
L 504.499479 128.474878 
L 503.190148 126.807862 
L 501.864211 125.154023 
L 500.521803 123.513526 
L 499.163057 121.886534 
L 497.78811 120.273211 
L 496.397098 118.673718 
L 494.990162 117.088215 
L 493.56744 115.51686 
L 492.129077 113.959811 
L 490.675215 112.417223 
L 489.206001 110.889251 
L 487.72158 109.376046 
L 486.222102 107.877762 
L 484.707716 106.394547 
L 483.178575 104.92655 
L 481.634829 103.473917 
L 480.076635 102.036794 
L 478.504148 100.615324 
L 476.917525 99.209651 
L 475.316925 97.819913 
L 473.702507 96.446251 
L 472.074434 95.088801 
L 470.432869 93.7477 
L 468.777974 92.423081 
L 467.109916 91.115077 
L 465.428862 89.823819 
L 463.734979 88.549435 
L 462.028438 87.292054 
L 460.309408 86.051801 
L 458.578062 84.8288 
L 456.834573 83.623173 
L 455.079115 82.435041 
L 453.311863 81.264523 
L 451.532995 80.111735 
L 449.742688 78.976794 
L 447.941121 77.859812 
L 446.128475 76.760901 
L 444.30493 75.680171 
L 442.47067 74.617731 
L 440.625877 73.573686 
L 438.770736 72.54814 
L 436.905432 71.541197 
L 435.030153 70.552958 
L 433.145085 69.58352 
L 431.250417 68.632981 
L 429.346338 67.701435 
L 427.43304 66.788977 
L 425.510712 65.895697 
L 423.579549 65.021685 
L 421.639741 64.167028 
L 419.691485 63.331811 
L 417.734973 62.516119 
L 415.770403 61.720031 
L 413.79797 60.943629 
L 411.817872 60.18699 
L 409.830307 59.45019 
L 407.835473 58.733301 
L 405.83357 58.036396 
L 403.824798 57.359545 
L 401.809358 56.702815 
L 399.787452 56.066272 
L 397.759282 55.44998 
L 395.72505 54.854 
L 393.684961 54.278391 
L 391.639217 53.723212 
L 389.588024 53.188518 
L 387.531586 52.674362 
L 385.47011 52.180795 
L 383.403802 51.707868 
L 381.332867 51.255628 
L 379.257514 50.824118 
L 377.177949 50.413384 
L 375.094382 50.023466 
L 373.007019 49.654402 
L 370.91607 49.30623 
L 368.821744 48.978984 
L 366.72425 48.672698 
L 364.623798 48.387402 
L 362.520599 48.123124 
L 360.414862 47.879891 
L 358.306797 47.657727 
L 356.196617 47.456655 
L 354.084532 47.276694 
L 351.970752 47.117863 
L 349.85549 46.980177 
L 347.738957 46.86365 
L 345.621364 46.768294 
L 343.502924 46.694118 
L 341.383848 46.64113 
L 339.264348 46.609335 
L 337.144636 46.598737 
z
" clip-path="url(#pba416c0735)" style="fill: #000080"/>
   </g>
   <g id="patch_3">
    <path d="M 337.144636 468.428454 
L 335.046121 468.417961 
L 332.947816 468.386484 
L 330.84993 468.334026 
L 328.752675 468.260592 
L 326.656258 468.166189 
L 324.56089 468.050828 
L 322.466781 467.914519 
L 320.374139 467.757276 
L 318.283174 467.579114 
L 316.194096 467.380053 
L 314.107112 467.160111 
L 312.022432 466.91931 
L 309.940265 466.657675 
L 307.860818 466.375232 
L 305.784299 466.072008 
L 303.710916 465.748035 
L 301.640876 465.403345 
L 299.574387 465.037972 
L 297.511655 464.651953 
L 295.452886 464.245326 
L 293.398287 463.818132 
L 291.348061 463.370413 
L 289.302416 462.902215 
L 287.261555 462.413585 
L 285.225682 461.90457 
L 283.195 461.375223 
L 281.169714 460.825596 
L 279.150025 460.255743 
L 277.136136 459.665723 
L 275.128247 459.055593 
L 273.12656 458.425416 
L 271.131275 457.775253 
L 269.142591 457.10517 
L 267.160707 456.415235 
L 265.185822 455.705515 
L 263.218132 454.976082 
L 261.257835 454.22701 
L 259.305126 453.458372 
L 257.360202 452.670245 
L 255.423255 451.86271 
L 253.494481 451.035845 
L 251.574072 450.189734 
L 249.66222 449.324462 
L 247.759116 448.440115 
L 245.86495 447.536782 
L 243.979912 446.614552 
L 242.104191 445.673518 
L 240.237974 444.713775 
L 238.381447 443.735417 
L 236.534797 442.738544 
L 234.698207 441.723254 
L 232.871862 440.68965 
L 231.055944 439.637833 
L 229.250635 438.567911 
L 227.456115 437.479989 
L 225.672564 436.374177 
L 223.90016 435.250585 
L 222.139081 434.109325 
L 220.389502 432.950512 
L 218.651598 431.774262 
L 216.925544 430.580691 
L 215.211511 429.36992 
L 213.509671 428.142069 
L 211.820195 426.897262 
L 210.143252 425.635622 
L 208.479008 424.357276 
L 206.827631 423.062353 
L 205.189285 421.75098 
L 203.564135 420.42329 
L 201.952343 419.079414 
L 200.35407 417.719489 
L 198.769475 416.343649 
L 197.198719 414.952032 
L 195.641956 413.544777 
L 194.099344 412.122025 
L 192.571036 410.683919 
L 191.057186 409.230601 
L 189.557944 407.762218 
L 188.073461 406.278917 
L 186.603884 404.780845 
L 185.149362 403.268152 
L 183.710039 401.74099 
L 182.286059 400.199511 
L 180.877565 398.64387 
L 179.484698 397.074222 
L 178.107596 395.490724 
L 176.746398 393.893534 
L 175.40124 392.282812 
L 174.072256 390.65872 
L 172.759579 389.021419 
L 171.46334 387.371074 
L 170.18367 385.707849 
L 168.920695 384.03191 
L 167.674543 382.343426 
L 166.445337 380.642565 
L 165.233202 378.929497 
L 164.038257 377.204393 
L 162.860623 375.467427 
L 161.700417 373.718771 
L 160.557755 371.958601 
L 159.432752 370.187092 
L 158.32552 368.404423 
L 157.236169 366.61077 
L 156.16481 364.806313 
L 155.111548 362.991233 
L 154.076489 361.165712 
L 153.059737 359.329932 
L 152.061394 357.484075 
L 151.081558 355.628328 
L 150.120329 353.762876 
L 149.177802 351.887905 
L 148.254071 350.003602 
L 147.349229 348.110156 
L 146.463367 346.207757 
L 145.596573 344.296594 
L 144.748933 342.37686 
L 143.920533 340.448745 
L 143.111455 338.512442 
L 142.32178 336.568146 
L 141.551587 334.61605 
L 140.800954 332.65635 
L 140.069955 330.689242 
L 139.358662 328.714922 
L 138.667149 326.733588 
L 137.995483 324.745438 
L 137.343732 322.750671 
L 136.71196 320.749487 
L 136.100232 318.742085 
L 135.508608 316.728666 
L 134.937147 314.709431 
L 134.385907 312.684583 
L 133.854943 310.654324 
L 133.344308 308.618857 
L 132.854052 306.578386 
L 132.384225 304.533114 
L 131.934874 302.483246 
L 131.506044 300.428987 
L 131.097778 298.370543 
L 130.710116 296.308118 
L 130.343098 294.241921 
L 129.996759 292.172157 
L 129.671135 290.099032 
L 129.366258 288.022756 
L 129.082159 285.943534 
L 128.818866 283.861576 
L 128.576405 281.777088 
L 128.354801 279.690281 
L 128.154076 277.601361 
L 127.97425 275.510539 
L 127.81534 273.418023 
L 127.677364 271.324023 
L 127.560334 269.228748 
L 127.464262 267.132407 
L 127.389158 265.03521 
L 127.335029 262.937367 
L 127.301881 260.839088 
L 127.289717 258.740582 
L 127.298539 256.642059 
L 127.328345 254.54373 
L 127.379132 252.445803 
L 127.450896 250.34849 
L 127.543629 248.251999 
L 127.657322 246.156539 
L 127.791964 244.062322 
L 127.94754 241.969556 
L 128.124036 239.87845 
L 128.321434 237.789214 
L 128.539715 235.702056 
L 128.778855 233.617185 
L 129.038832 231.534809 
L 129.319619 229.455138 
L 129.621189 227.378378 
L 129.943511 225.304738 
L 130.286552 223.234425 
L 130.65028 221.167645 
L 131.034656 219.104607 
L 131.439644 217.045515 
L 131.865202 214.990575 
L 132.311287 212.939994 
L 132.777856 210.893977 
L 133.264861 208.852727 
L 133.772254 206.816449 
L 134.299984 204.785347 
L 134.847999 202.759624 
L 135.416243 200.739482 
L 136.004659 198.725123 
L 136.61319 196.716749 
L 137.241773 194.714561 
L 137.890346 192.718759 
L 138.558845 190.729542 
L 139.247202 188.747109 
L 139.955349 186.771659 
L 140.683215 184.803389 
L 141.430726 182.842496 
L 142.197809 180.889176 
L 142.984386 178.943624 
L 143.790379 177.006036 
L 144.615708 175.076604 
L 145.460289 173.155521 
L 146.324038 171.242981 
L 147.206869 169.339173 
L 148.108694 167.444289 
L 149.029423 165.558517 
L 149.968962 163.682047 
L 150.927219 161.815066 
L 151.904098 159.957761 
L 152.899501 158.110317 
L 153.913328 156.27292 
L 154.945477 154.445752 
L 155.995847 152.628997 
L 157.064332 150.822837 
L 158.150824 149.027451 
L 159.255215 147.24302 
L 160.377396 145.469722 
L 161.517253 143.707734 
L 162.674672 141.957233 
L 163.849539 140.218393 
L 165.041734 138.491389 
L 166.25114 136.776392 
L 167.477635 135.073576 
L 168.721097 133.383109 
L 169.981401 131.705161 
L 171.258421 130.0399 
L 172.552029 128.387492 
L 173.862097 126.748103 
L 175.188493 125.121896 
L 176.531084 123.509034 
L 177.889736 121.909678 
L 179.264314 120.323989 
L 180.65468 118.752124 
L 182.060694 117.194242 
L 183.482217 115.650497 
L 184.919106 114.121045 
L 186.371217 112.606037 
L 187.838406 111.105627 
L 189.320525 109.619963 
L 190.817427 108.149194 
L 192.328961 106.693467 
L 193.854976 105.252929 
L 195.39532 103.827722 
L 196.949839 102.417989 
L 198.518378 101.023873 
L 200.100779 99.645511 
L 201.696884 98.283041 
L 203.306534 96.936601 
L 204.929567 95.606324 
L 206.565822 94.292343 
L 208.215135 92.994791 
L 209.877341 91.713796 
L 211.552273 90.449487 
L 213.239764 89.201991 
L 214.939646 87.971431 
L 216.651748 86.757932 
L 218.3759 85.561614 
L 220.111928 84.382597 
L 221.859659 83.220999 
L 223.618919 82.076936 
L 225.389531 80.950522 
L 227.171318 79.841871 
L 228.964103 78.751092 
L 230.767706 77.678296 
L 232.581946 76.623589 
L 234.406643 75.587077 
L 236.241613 74.568864 
L 238.086674 73.56905 
L 239.94164 72.587737 
L 241.806326 71.625023 
L 243.680546 70.681003 
L 245.564113 69.755772 
L 247.456837 68.849423 
L 249.358531 67.962046 
L 251.269002 67.09373 
L 253.188062 66.244562 
L 255.115516 65.414627 
L 257.051174 64.604007 
L 258.994841 63.812784 
L 260.946323 63.041037 
L 262.905424 62.288843 
L 264.87195 61.556278 
L 266.845703 60.843414 
L 268.826485 60.150323 
L 270.814099 59.477074 
L 272.808347 58.823734 
L 274.809027 58.190369 
L 276.815942 57.577043 
L 278.828889 56.983815 
L 280.847668 56.410747 
L 282.872076 55.857895 
L 284.901912 55.325314 
L 286.936971 54.813058 
L 288.977052 54.321177 
L 291.021949 53.849722 
L 293.071459 53.398739 
L 295.125375 52.968273 
L 297.183494 52.558368 
L 299.245609 52.169064 
L 301.311513 51.8004 
L 303.381001 51.452413 
L 305.453865 51.125138 
L 307.529899 50.818608 
L 309.608893 50.532854 
L 311.690642 50.267903 
L 313.774935 50.023782 
L 315.861566 49.800517 
L 317.950325 49.598128 
L 320.041003 49.416637 
L 322.133392 49.256061 
L 324.227281 49.116417 
L 326.322463 48.997718 
L 328.418726 48.899977 
L 330.515863 48.823203 
L 332.613662 48.767404 
L 334.711914 48.732585 
L 336.81041 48.71875 
L 337.144636 48.718484 
L 337.144636 46.598737 
L 336.807034 46.599005 
L 334.687341 46.61298 
L 332.567894 46.648151 
L 330.448905 46.704513 
L 328.330586 46.782063 
L 326.213148 46.880791 
L 324.096803 47.000689 
L 321.981763 47.141744 
L 319.868239 47.303941 
L 317.756443 47.487266 
L 315.646585 47.691699 
L 313.538878 47.91722 
L 311.43353 48.163806 
L 309.330754 48.431433 
L 307.23076 48.720074 
L 305.133757 49.029701 
L 303.039954 49.360281 
L 300.949563 49.711783 
L 298.86279 50.084171 
L 296.779846 50.477407 
L 294.700938 50.891453 
L 292.626275 51.326267 
L 290.556063 51.781805 
L 288.490511 52.258023 
L 286.429823 52.754872 
L 284.374207 53.272302 
L 282.323868 53.810263 
L 280.279011 54.368699 
L 278.239841 54.947556 
L 276.206561 55.546776 
L 274.179375 56.166297 
L 272.158485 56.80606 
L 270.144094 57.465999 
L 268.136403 58.146048 
L 266.135612 58.84614 
L 264.141923 59.566205 
L 262.155533 60.30617 
L 260.176643 61.065962 
L 258.205449 61.845505 
L 256.242149 62.64472 
L 254.286939 63.463527 
L 252.340015 64.301846 
L 250.401572 65.159591 
L 248.471802 66.036678 
L 246.5509 66.933019 
L 244.639057 67.848523 
L 242.736465 68.783099 
L 240.843313 69.736655 
L 238.959791 70.709094 
L 237.086088 71.700319 
L 235.222391 72.710231 
L 233.368885 73.73873 
L 231.525758 74.785712 
L 229.693191 75.851072 
L 227.871371 76.934705 
L 226.060477 78.036501 
L 224.260691 79.156351 
L 222.472194 80.294142 
L 220.695164 81.449762 
L 218.929779 82.623093 
L 217.176215 83.814019 
L 215.434648 85.022421 
L 213.705252 86.248178 
L 211.9882 87.491168 
L 210.283663 88.751265 
L 208.591813 90.028345 
L 206.912817 91.322279 
L 205.246844 92.632938 
L 203.594062 93.960191 
L 201.954634 95.303905 
L 200.328725 96.663946 
L 198.716497 98.040178 
L 197.118113 99.432463 
L 195.53373 100.840661 
L 193.963509 102.264633 
L 192.407606 103.704236 
L 190.866176 105.159326 
L 189.339374 106.629757 
L 187.827352 108.115382 
L 186.330262 109.616053 
L 184.848254 111.131619 
L 183.381474 112.661929 
L 181.930071 114.206831 
L 180.49419 115.766169 
L 179.073973 117.339788 
L 177.669563 118.92753 
L 176.281101 120.529236 
L 174.908725 122.144747 
L 173.552572 123.7739 
L 172.212778 125.416533 
L 170.889478 127.072482 
L 169.582802 128.741581 
L 168.292883 130.423663 
L 167.019849 132.11856 
L 165.763827 133.826102 
L 164.524943 135.546119 
L 163.303321 137.278438 
L 162.099083 139.022887 
L 160.912349 140.779291 
L 159.743239 142.547474 
L 158.591868 144.32726 
L 157.458353 146.11847 
L 156.342806 147.920926 
L 155.245339 149.734446 
L 154.166061 151.558851 
L 153.105082 153.393957 
L 152.062506 155.239581 
L 151.038439 157.095538 
L 150.032981 158.961643 
L 149.046235 160.837708 
L 148.078299 162.723548 
L 147.129269 164.618972 
L 146.19924 166.523792 
L 145.288306 168.437816 
L 144.396557 170.360855 
L 143.524083 172.292714 
L 142.670971 174.233201 
L 141.837306 176.182122 
L 141.023171 178.139283 
L 140.228649 180.104486 
L 139.453818 182.077537 
L 138.698756 184.058237 
L 137.963538 186.046388 
L 137.248238 188.041792 
L 136.552928 190.044249 
L 135.877677 192.053559 
L 135.222552 194.069521 
L 134.587619 196.091934 
L 133.972942 198.120594 
L 133.378582 200.1553 
L 132.804598 202.195847 
L 132.251048 204.242033 
L 131.717988 206.293651 
L 131.205469 208.350497 
L 130.713545 210.412366 
L 130.242263 212.47905 
L 129.791672 214.550344 
L 129.361816 216.62604 
L 128.952737 218.705931 
L 128.564478 220.789809 
L 128.197077 222.877465 
L 127.85057 224.96869 
L 127.524992 227.063276 
L 127.220377 229.161013 
L 126.936753 231.261692 
L 126.67415 233.365101 
L 126.432594 235.471031 
L 126.212109 237.579272 
L 126.012717 239.689611 
L 125.834438 241.80184 
L 125.67729 243.915745 
L 125.541289 246.031116 
L 125.426447 248.147741 
L 125.332778 250.265409 
L 125.260289 252.383908 
L 125.208989 254.503025 
L 125.178881 256.62255 
L 125.169971 258.74227 
L 125.182257 260.861973 
L 125.21574 262.981447 
L 125.270416 265.10048 
L 125.346278 267.218861 
L 125.44332 269.336377 
L 125.561533 271.452816 
L 125.700903 273.567968 
L 125.861418 275.68162 
L 126.04306 277.793562 
L 126.245813 279.903582 
L 126.469656 282.011468 
L 126.714565 284.117011 
L 126.980518 286.219999 
L 127.267487 288.320223 
L 127.575443 290.417472 
L 127.904356 292.511537 
L 128.254193 294.602208 
L 128.624919 296.689277 
L 129.016497 298.772533 
L 129.428887 300.85177 
L 129.862049 302.926779 
L 130.315938 304.997353 
L 130.790511 307.063284 
L 131.285718 309.124366 
L 131.801512 311.180394 
L 132.337839 313.23116 
L 132.894647 315.276461 
L 133.47188 317.316092 
L 134.06948 319.349849 
L 134.687388 321.377527 
L 135.325541 323.398926 
L 135.983875 325.413842 
L 136.662326 327.422074 
L 137.360824 329.423421 
L 138.079301 331.417684 
L 138.817684 333.404662 
L 139.5759 335.384157 
L 140.353873 337.355971 
L 141.151524 339.319906 
L 141.968774 341.275768 
L 142.805542 343.223359 
L 143.661744 345.162485 
L 144.537294 347.092952 
L 145.432104 349.014567 
L 146.346086 350.927139 
L 147.279147 352.830475 
L 148.231194 354.724385 
L 149.202133 356.608681 
L 150.191866 358.483172 
L 151.200294 360.347674 
L 152.227316 362.201997 
L 153.27283 364.045958 
L 154.336731 365.879372 
L 155.418912 367.702056 
L 156.519266 369.513826 
L 157.637682 371.314503 
L 158.774049 373.103905 
L 159.928253 374.881855 
L 161.100178 376.648174 
L 162.289708 378.402685 
L 163.496722 380.145214 
L 164.721102 381.875586 
L 165.962724 383.593627 
L 167.221463 385.299167 
L 168.497195 386.992034 
L 169.789792 388.67206 
L 171.099124 390.339075 
L 172.42506 391.992914 
L 173.767468 393.633412 
L 175.126214 395.260403 
L 176.501161 396.873726 
L 177.892173 398.473219 
L 179.29911 400.058722 
L 180.721831 401.630077 
L 182.160194 403.187126 
L 183.614056 404.729714 
L 185.08327 406.257687 
L 186.567691 407.770891 
L 188.067169 409.269176 
L 189.581555 410.752391 
L 191.110697 412.220388 
L 192.654442 413.673021 
L 194.212636 415.110144 
L 195.785123 416.531613 
L 197.371746 417.937287 
L 198.972347 419.327024 
L 200.586764 420.700687 
L 202.214837 422.058136 
L 203.856403 423.399238 
L 205.511297 424.723856 
L 207.179355 426.03186 
L 208.860409 427.323119 
L 210.554292 428.597502 
L 212.260833 429.854883 
L 213.979863 431.095137 
L 215.711209 432.318138 
L 217.454699 433.523765 
L 219.210157 434.711897 
L 220.977409 435.882415 
L 222.756277 437.035202 
L 224.546584 438.170144 
L 226.34815 439.287126 
L 228.160797 440.386037 
L 229.984341 441.466766 
L 231.818602 442.529207 
L 233.663395 443.573252 
L 235.518536 444.598797 
L 237.383839 445.60574 
L 239.259119 446.59398 
L 241.144187 447.563418 
L 243.038855 448.513957 
L 244.942933 449.445502 
L 246.856232 450.35796 
L 248.778559 451.25124 
L 250.709723 452.125252 
L 252.64953 452.97991 
L 254.597787 453.815126 
L 256.554298 454.630819 
L 258.518869 455.426906 
L 260.491301 456.203308 
L 262.471399 456.959947 
L 264.458965 457.696748 
L 266.453799 458.413636 
L 268.455702 459.110541 
L 270.464473 459.787392 
L 272.479913 460.444122 
L 274.501819 461.080665 
L 276.529989 461.696958 
L 278.564221 462.292938 
L 280.604311 462.868546 
L 282.650055 463.423726 
L 284.701248 463.95842 
L 286.757685 464.472576 
L 288.819161 464.966142 
L 290.88547 465.439069 
L 292.956404 465.89131 
L 295.031758 466.322819 
L 297.111322 466.733553 
L 299.19489 467.123472 
L 301.282253 467.492536 
L 303.373202 467.840708 
L 305.467528 468.167953 
L 307.565021 468.474239 
L 309.665473 468.759536 
L 311.768673 469.023813 
L 313.87441 469.267046 
L 315.982474 469.48921 
L 318.092654 469.690283 
L 320.20474 469.870243 
L 322.318519 470.029075 
L 324.433782 470.166761 
L 326.550315 470.283288 
L 328.667907 470.378644 
L 330.786348 470.452819 
L 332.905424 470.505807 
L 335.024924 470.537602 
L 337.144636 470.548201 
z
" clip-path="url(#pba416c0735)" style="fill: #800000"/>
   </g>
   <g id="PatchCollection_1">
    <defs>
     <path id="m7099a0a9aa" d="M 337.144636 -468.428454 
L 337.144636 -468.428454 
L 339.243151 -468.417961 
L 341.341456 -468.386484 
L 343.439341 -468.334026 
L 345.536597 -468.260592 
L 347.633014 -468.166189 
L 349.728381 -468.050828 
L 351.822491 -467.914519 
L 353.915133 -467.757276 
L 356.006097 -467.579114 
L 358.095176 -467.380053 
L 360.182159 -467.160111 
L 362.266839 -466.91931 
L 364.349007 -466.657675 
L 366.428454 -466.375232 
L 368.504973 -466.072008 
L 370.578356 -465.748035 
L 372.648395 -465.403345 
L 374.714884 -465.037972 
L 376.777616 -464.651953 
L 378.836385 -464.245326 
L 380.890985 -463.818132 
L 382.94121 -463.370413 
L 384.986855 -462.902215 
L 387.027717 -462.413585 
L 389.06359 -461.90457 
L 391.094271 -461.375223 
L 393.119557 -460.825596 
L 395.139246 -460.255743 
L 397.153136 -459.665723 
L 399.161024 -459.055593 
L 401.162711 -458.425416 
L 403.157997 -457.775253 
L 405.146681 -457.10517 
L 407.128564 -456.415235 
L 409.10345 -455.705515 
L 411.07114 -454.976082 
L 413.031437 -454.22701 
L 414.984145 -453.458372 
L 416.92907 -452.670245 
L 418.866016 -451.86271 
L 420.79479 -451.035845 
L 422.715199 -450.189734 
L 424.627052 -449.324462 
L 426.530156 -448.440115 
L 428.424321 -447.536782 
L 430.309359 -446.614552 
L 432.18508 -445.673518 
L 434.051298 -444.713775 
L 435.907824 -443.735417 
L 437.754475 -442.738544 
L 439.591064 -441.723254 
L 441.417409 -440.68965 
L 443.233327 -439.637833 
L 445.038636 -438.567911 
L 446.833156 -437.479989 
L 448.616707 -436.374177 
L 450.389111 -435.250585 
L 452.150191 -434.109325 
L 453.89977 -432.950512 
L 455.637673 -431.774262 
L 457.363728 -430.580691 
L 459.077761 -429.36992 
L 460.7796 -428.142069 
L 462.469076 -426.897262 
L 464.14602 -425.635622 
L 465.810263 -424.357276 
L 467.461641 -423.062353 
L 469.099986 -421.75098 
L 470.725136 -420.42329 
L 472.336929 -419.079414 
L 473.935202 -417.719489 
L 475.519796 -416.343649 
L 477.090553 -414.952032 
L 478.647315 -413.544777 
L 480.189927 -412.122025 
L 481.718235 -410.683919 
L 483.232086 -409.230601 
L 484.731328 -407.762218 
L 486.215811 -406.278917 
L 487.685387 -404.780845 
L 489.13991 -403.268152 
L 490.579233 -401.74099 
L 492.003212 -400.199511 
L 493.411706 -398.64387 
L 494.804574 -397.074222 
L 496.181675 -395.490724 
L 497.542873 -393.893534 
L 498.888031 -392.282812 
L 500.217015 -390.65872 
L 501.529692 -389.021419 
L 502.825931 -387.371074 
L 504.105602 -385.707849 
L 505.368576 -384.03191 
L 506.614729 -382.343426 
L 507.843934 -380.642565 
L 509.05607 -378.929497 
L 510.251015 -377.204393 
L 511.428649 -375.467427 
L 512.588855 -373.718771 
L 513.731516 -371.958601 
L 514.85652 -370.187092 
L 515.963752 -368.404423 
L 517.053102 -366.61077 
L 518.124462 -364.806313 
L 519.177724 -362.991233 
L 520.212782 -361.165712 
L 521.229534 -359.329932 
L 522.227878 -357.484075 
L 523.207713 -355.628328 
L 524.168943 -353.762876 
L 525.11147 -351.887905 
L 526.0352 -350.003602 
L 526.940042 -348.110156 
L 527.825904 -346.207757 
L 528.692699 -344.296594 
L 529.540338 -342.37686 
L 530.368738 -340.448745 
L 531.177816 -338.512442 
L 531.967491 -336.568146 
L 532.737684 -334.61605 
L 533.488318 -332.65635 
L 534.219317 -330.689242 
L 534.930609 -328.714922 
L 535.622123 -326.733588 
L 536.293789 -324.745438 
L 536.94554 -322.750671 
L 537.577311 -320.749487 
L 538.18904 -318.742085 
L 538.780664 -316.728666 
L 539.352124 -314.709431 
L 539.903364 -312.684583 
L 540.434328 -310.654324 
L 540.944964 -308.618857 
L 541.435219 -306.578386 
L 541.905046 -304.533114 
L 542.354397 -302.483246 
L 542.783227 -300.428987 
L 543.191493 -298.370543 
L 543.579155 -296.308118 
L 543.946174 -294.241921 
L 544.292512 -292.172157 
L 544.618136 -290.099032 
L 544.923013 -288.022756 
L 545.207112 -285.943534 
L 545.470405 -283.861576 
L 545.712866 -281.777088 
L 545.93447 -279.690281 
L 546.135195 -277.601361 
L 546.315022 -275.510539 
L 546.473931 -273.418023 
L 546.611908 -271.324023 
L 546.728938 -269.228748 
L 546.82501 -267.132407 
L 546.900114 -265.03521 
L 546.954242 -262.937367 
L 546.98739 -260.839088 
L 546.999554 -258.740582 
L 546.990732 -256.642059 
L 546.960926 -254.54373 
L 546.910139 -252.445803 
L 546.838375 -250.34849 
L 546.745642 -248.251999 
L 546.631949 -246.156539 
L 546.497308 -244.062322 
L 546.341731 -241.969556 
L 546.165235 -239.87845 
L 545.967837 -237.789214 
L 545.749557 -235.702056 
L 545.510416 -233.617185 
L 545.250439 -231.534809 
L 544.969652 -229.455138 
L 544.668083 -227.378378 
L 544.345761 -225.304738 
L 544.002719 -223.234425 
L 543.638992 -221.167645 
L 543.254615 -219.104607 
L 542.849628 -217.045515 
L 542.42407 -214.990575 
L 541.977984 -212.939994 
L 541.511416 -210.893977 
L 541.02441 -208.852727 
L 540.517017 -206.816449 
L 539.989287 -204.785347 
L 539.441273 -202.759624 
L 538.873029 -200.739482 
L 538.284612 -198.725123 
L 537.676082 -196.716749 
L 537.047499 -194.714561 
L 536.398925 -192.718759 
L 535.730426 -190.729542 
L 535.042069 -188.747109 
L 534.333922 -186.771659 
L 533.606057 -184.803389 
L 532.858545 -182.842496 
L 532.091463 -180.889176 
L 531.304885 -178.943624 
L 530.498892 -177.006036 
L 529.673564 -175.076604 
L 528.828983 -173.155521 
L 527.965233 -171.242981 
L 527.082402 -169.339173 
L 526.180577 -167.444289 
L 525.259849 -165.558517 
L 524.320309 -163.682047 
L 523.362052 -161.815066 
L 522.385173 -159.957761 
L 521.389771 -158.110317 
L 520.375944 -156.27292 
L 519.343794 -154.445752 
L 518.293424 -152.628997 
L 517.22494 -150.822837 
L 516.138448 -149.027451 
L 515.034056 -147.24302 
L 513.911876 -145.469722 
L 512.772019 -143.707734 
L 511.614599 -141.957233 
L 510.439733 -140.218393 
L 509.247537 -138.491389 
L 508.038131 -136.776392 
L 506.811636 -135.073576 
L 505.568175 -133.383109 
L 504.307871 -131.705161 
L 503.030851 -130.0399 
L 501.737242 -128.387492 
L 500.427175 -126.748103 
L 499.100779 -125.121896 
L 497.758188 -123.509034 
L 496.399535 -121.909678 
L 495.024957 -120.323989 
L 493.634592 -118.752124 
L 492.228577 -117.194242 
L 490.807054 -115.650497 
L 489.370165 -114.121045 
L 487.918054 -112.606037 
L 486.450865 -111.105627 
L 484.968746 -109.619963 
L 483.471845 -108.149194 
L 481.960311 -106.693467 
L 480.434295 -105.252929 
L 478.893951 -103.827722 
L 477.339432 -102.417989 
L 475.770894 -101.023873 
L 474.188493 -99.645511 
L 472.592387 -98.283041 
L 470.982738 -96.936601 
L 469.359704 -95.606324 
L 467.723449 -94.292343 
L 466.074136 -92.994791 
L 464.411931 -91.713796 
L 462.736998 -90.449487 
L 461.049507 -89.201991 
L 459.349625 -87.971431 
L 457.637523 -86.757932 
L 455.913372 -85.561614 
L 454.177344 -84.382597 
L 452.429612 -83.220999 
L 450.670353 -82.076936 
L 448.899741 -80.950522 
L 447.117953 -79.841871 
L 445.325168 -78.751092 
L 443.521565 -77.678296 
L 441.707325 -76.623589 
L 439.882629 -75.587077 
L 438.047658 -74.568864 
L 436.202598 -73.56905 
L 434.347632 -72.587737 
L 432.482945 -71.625023 
L 430.608725 -70.681003 
L 428.725158 -69.755772 
L 426.832434 -68.849423 
L 424.930741 -67.962046 
L 423.020269 -67.09373 
L 421.10121 -66.244562 
L 419.173755 -65.414627 
L 417.238097 -64.604007 
L 415.29443 -63.812784 
L 413.342949 -63.041037 
L 411.383847 -62.288843 
L 409.417322 -61.556278 
L 407.443569 -60.843414 
L 405.462786 -60.150323 
L 403.475172 -59.477074 
L 401.480925 -58.823734 
L 399.480244 -58.190369 
L 397.47333 -57.577043 
L 395.460382 -56.983815 
L 393.441604 -56.410747 
L 391.417195 -55.857895 
L 389.38736 -55.325314 
L 387.3523 -54.813058 
L 385.31222 -54.321177 
L 383.267322 -53.849722 
L 381.217813 -53.398739 
L 379.163896 -52.968273 
L 377.105777 -52.558368 
L 375.043663 -52.169064 
L 372.977758 -51.8004 
L 370.90827 -51.452413 
L 368.835406 -51.125138 
L 366.759373 -50.818608 
L 364.680378 -50.532854 
L 362.59863 -50.267903 
L 360.514336 -50.023782 
L 358.427706 -49.800517 
L 356.338947 -49.598128 
L 354.248269 -49.416637 
L 352.15588 -49.256061 
L 350.06199 -49.116417 
L 347.966809 -48.997718 
L 345.870545 -48.899977 
L 343.773409 -48.823203 
L 341.67561 -48.767404 
L 339.577357 -48.732585 
L 337.478862 -48.71875 
L 337.144636 -48.718484 
L 337.144636 -48.718484 
Q 337.144636 -258.573469 337.144636 -48.718484 
L 337.144636 -48.718484 
L 337.144636 -48.718484 
L 335.046121 -48.728977 
L 332.947816 -48.760454 
L 330.84993 -48.812912 
L 328.752675 -48.886346 
L 326.656258 -48.980748 
L 324.56089 -49.09611 
L 322.466781 -49.232419 
L 320.374139 -49.389662 
L 318.283174 -49.567823 
L 316.194096 -49.766885 
L 314.107112 -49.986827 
L 312.022432 -50.227628 
L 309.940265 -50.489263 
L 307.860818 -50.771706 
L 305.784299 -51.074929 
L 303.710916 -51.398902 
L 301.640876 -51.743592 
L 299.574387 -52.108966 
L 297.511655 -52.494985 
L 295.452886 -52.901612 
L 293.398287 -53.328806 
L 291.348061 -53.776524 
L 289.302416 -54.244722 
L 287.261555 -54.733353 
L 285.225682 -55.242367 
L 283.195 -55.771715 
L 281.169714 -56.321342 
L 279.150025 -56.891194 
L 277.136136 -57.481215 
L 275.128247 -58.091344 
L 273.12656 -58.721522 
L 271.131275 -59.371684 
L 269.142591 -60.041767 
L 267.160707 -60.731703 
L 265.185822 -61.441422 
L 263.218132 -62.170855 
L 261.257835 -62.919928 
L 259.305126 -63.688566 
L 257.360202 -64.476692 
L 255.423255 -65.284228 
L 253.494481 -66.111092 
L 251.574072 -66.957203 
L 249.66222 -67.822475 
L 247.759116 -68.706822 
L 245.86495 -69.610156 
L 243.979912 -70.532385 
L 242.104191 -71.473419 
L 240.237974 -72.433163 
L 238.381447 -73.41152 
L 236.534797 -74.408394 
L 234.698207 -75.423683 
L 232.871862 -76.457288 
L 231.055944 -77.509104 
L 229.250635 -78.579026 
L 227.456115 -79.666948 
L 225.672564 -80.77276 
L 223.90016 -81.896352 
L 222.139081 -83.037612 
L 220.389502 -84.196425 
L 218.651598 -85.372676 
L 216.925544 -86.566246 
L 215.211511 -87.777018 
L 213.509671 -89.004868 
L 211.820195 -90.249676 
L 210.143252 -91.511315 
L 208.479008 -92.789661 
L 206.827631 -94.084585 
L 205.189285 -95.395958 
L 203.564135 -96.723648 
L 201.952343 -98.067523 
L 200.35407 -99.427449 
L 198.769475 -100.803289 
L 197.198719 -102.194906 
L 195.641956 -103.602161 
L 194.099344 -105.024912 
L 192.571036 -106.463019 
L 191.057186 -107.916336 
L 189.557944 -109.384719 
L 188.073461 -110.868021 
L 186.603884 -112.366093 
L 185.149362 -113.878786 
L 183.710039 -115.405948 
L 182.286059 -116.947426 
L 180.877565 -118.503068 
L 179.484698 -120.072716 
L 178.107596 -121.656214 
L 176.746398 -123.253403 
L 175.40124 -124.864125 
L 174.072256 -126.488217 
L 172.759579 -128.125518 
L 171.46334 -129.775864 
L 170.18367 -131.439089 
L 168.920695 -133.115027 
L 167.674543 -134.803512 
L 166.445337 -136.504373 
L 165.233202 -138.217441 
L 164.038257 -139.942544 
L 162.860623 -141.679511 
L 161.700417 -143.428166 
L 160.557755 -145.188337 
L 159.432752 -146.959845 
L 158.32552 -148.742515 
L 157.236169 -150.536168 
L 156.16481 -152.340624 
L 155.111548 -154.155704 
L 154.076489 -155.981225 
L 153.059737 -157.817006 
L 152.061394 -159.662862 
L 151.081558 -161.518609 
L 150.120329 -163.384062 
L 149.177802 -165.259033 
L 148.254071 -167.143336 
L 147.349229 -169.036781 
L 146.463367 -170.93918 
L 145.596573 -172.850343 
L 144.748933 -174.770078 
L 143.920533 -176.698193 
L 143.111455 -178.634496 
L 142.32178 -180.578792 
L 141.551587 -182.530888 
L 140.800954 -184.490588 
L 140.069955 -186.457696 
L 139.358662 -188.432016 
L 138.667149 -190.413349 
L 137.995483 -192.401499 
L 137.343732 -194.396266 
L 136.71196 -196.397451 
L 136.100232 -198.404853 
L 135.508608 -200.418272 
L 134.937147 -202.437506 
L 134.385907 -204.462354 
L 133.854943 -206.492613 
L 133.344308 -208.52808 
L 132.854052 -210.568552 
L 132.384225 -212.613824 
L 131.934874 -214.663692 
L 131.506044 -216.717951 
L 131.097778 -218.776395 
L 130.710116 -220.838819 
L 130.343098 -222.905017 
L 129.996759 -224.974781 
L 129.671135 -227.047905 
L 129.366258 -229.124182 
L 129.082159 -231.203403 
L 128.818866 -233.285362 
L 128.576405 -235.369849 
L 128.354801 -237.456657 
L 128.154076 -239.545576 
L 127.97425 -241.636399 
L 127.81534 -243.728914 
L 127.677364 -245.822915 
L 127.560334 -247.91819 
L 127.464262 -250.014531 
L 127.389158 -252.111728 
L 127.335029 -254.20957 
L 127.301881 -256.30785 
L 127.289717 -258.406356 
L 127.298539 -260.504878 
L 127.328345 -262.603208 
L 127.379132 -264.701134 
L 127.450896 -266.798448 
L 127.543629 -268.894939 
L 127.657322 -270.990398 
L 127.791964 -273.084615 
L 127.94754 -275.177382 
L 128.124036 -277.268488 
L 128.321434 -279.357724 
L 128.539715 -281.444882 
L 128.778855 -283.529753 
L 129.038832 -285.612128 
L 129.319619 -287.6918 
L 129.621189 -289.768559 
L 129.943511 -291.842199 
L 130.286552 -293.912513 
L 130.65028 -295.979292 
L 131.034656 -298.042331 
L 131.439644 -300.101423 
L 131.865202 -302.156362 
L 132.311287 -304.206943 
L 132.777856 -306.252961 
L 133.264861 -308.294211 
L 133.772254 -310.330488 
L 134.299984 -312.361591 
L 134.847999 -314.387314 
L 135.416243 -316.407456 
L 136.004659 -318.421814 
L 136.61319 -320.430188 
L 137.241773 -322.432377 
L 137.890346 -324.428179 
L 138.558845 -326.417396 
L 139.247202 -328.399829 
L 139.955349 -330.375279 
L 140.683215 -332.343549 
L 141.430726 -334.304442 
L 142.197809 -336.257761 
L 142.984386 -338.203313 
L 143.790379 -340.140902 
L 144.615708 -342.070334 
L 145.460289 -343.991416 
L 146.324038 -345.903957 
L 147.206869 -347.807765 
L 148.108694 -349.702649 
L 149.029423 -351.58842 
L 149.968962 -353.46489 
L 150.927219 -355.331871 
L 151.904098 -357.189177 
L 152.899501 -359.03662 
L 153.913328 -360.874018 
L 154.945477 -362.701185 
L 155.995847 -364.51794 
L 157.064332 -366.324101 
L 158.150824 -368.119486 
L 159.255215 -369.903917 
L 160.377396 -371.677216 
L 161.517253 -373.439203 
L 162.674672 -375.189705 
L 163.849539 -376.928544 
L 165.041734 -378.655549 
L 166.25114 -380.370545 
L 167.477635 -382.073362 
L 168.721097 -383.763829 
L 169.981401 -385.441776 
L 171.258421 -387.107038 
L 172.552029 -388.759445 
L 173.862097 -390.398835 
L 175.188493 -392.025042 
L 176.531084 -393.637904 
L 177.889736 -395.237259 
L 179.264314 -396.822949 
L 180.65468 -398.394813 
L 182.060694 -399.952696 
L 183.482217 -401.49644 
L 184.919106 -403.025893 
L 186.371217 -404.5409 
L 187.838406 -406.041311 
L 189.320525 -407.526975 
L 190.817427 -408.997744 
L 192.328961 -410.45347 
L 193.854976 -411.894009 
L 195.39532 -413.319216 
L 196.949839 -414.728948 
L 198.518378 -416.123065 
L 200.100779 -417.501427 
L 201.696884 -418.863896 
L 203.306534 -420.210337 
L 204.929567 -421.540614 
L 206.565822 -422.854594 
L 208.215135 -424.152147 
L 209.877341 -425.433141 
L 211.552273 -426.69745 
L 213.239764 -427.944947 
L 214.939646 -429.175506 
L 216.651748 -430.389006 
L 218.3759 -431.585324 
L 220.111928 -432.764341 
L 221.859659 -433.925939 
L 223.618919 -435.070002 
L 225.389531 -436.196415 
L 227.171318 -437.305067 
L 228.964103 -438.395845 
L 230.767706 -439.468641 
L 232.581946 -440.523348 
L 234.406643 -441.55986 
L 236.241613 -442.578074 
L 238.086674 -443.577887 
L 239.94164 -444.5592 
L 241.806326 -445.521915 
L 243.680546 -446.465934 
L 245.564113 -447.391165 
L 247.456837 -448.297514 
L 249.358531 -449.184891 
L 251.269002 -450.053207 
L 253.188062 -450.902375 
L 255.115516 -451.732311 
L 257.051174 -452.54293 
L 258.994841 -453.334153 
L 260.946323 -454.1059 
L 262.905424 -454.858094 
L 264.87195 -455.59066 
L 266.845703 -456.303524 
L 268.826485 -456.996615 
L 270.814099 -457.669864 
L 272.808347 -458.323204 
L 274.809027 -458.956568 
L 276.815942 -459.569895 
L 278.828889 -460.163122 
L 280.847668 -460.73619 
L 282.872076 -461.289043 
L 284.901912 -461.821624 
L 286.936971 -462.33388 
L 288.977052 -462.82576 
L 291.021949 -463.297215 
L 293.071459 -463.748198 
L 295.125375 -464.178664 
L 297.183494 -464.58857 
L 299.245609 -464.977874 
L 301.311513 -465.346538 
L 303.381001 -465.694524 
L 305.453865 -466.021799 
L 307.529899 -466.328329 
L 309.608893 -466.614084 
L 311.690642 -466.879035 
L 313.774935 -467.123155 
L 315.861566 -467.346421 
L 317.950325 -467.54881 
L 320.041003 -467.730301 
L 322.133392 -467.890877 
L 324.227281 -468.030521 
L 326.322463 -468.149219 
L 328.418726 -468.246961 
L 330.515863 -468.323735 
L 332.613662 -468.379534 
L 334.711914 -468.414353 
L 336.81041 -468.428187 
L 337.144636 -468.428454 
L 337.144636 -468.428454 
Q 337.144636 -258.573469 337.144636 -468.428454 
z
" style="stroke: #808080; stroke-opacity: 0.5; stroke-width: 0.1"/>
    </defs>
    <g clip-path="url(#pba416c0735)">
     <use xlink:href="#m7099a0a9aa" x="0" y="517.146937" style="fill: #000080; fill-opacity: 0.5; stroke: #808080; stroke-opacity: 0.5; stroke-width: 0.1"/>
    </g>
   </g>
   <g id="patch_4">
    <path d="M 337.144636 48.718484 
L 339.243151 48.728977 
L 341.341456 48.760454 
L 343.439341 48.812912 
L 345.536597 48.886346 
L 347.633014 48.980748 
L 349.728381 49.09611 
L 351.822491 49.232419 
L 353.915133 49.389662 
L 356.006097 49.567823 
L 358.095176 49.766885 
L 360.182159 49.986827 
L 362.266839 50.227628 
L 364.349007 50.489263 
L 366.428454 50.771706 
L 368.504973 51.074929 
L 370.578356 51.398902 
L 372.648395 51.743592 
L 374.714884 52.108966 
L 376.777616 52.494985 
L 378.836385 52.901612 
L 380.890985 53.328806 
L 382.94121 53.776524 
L 384.986855 54.244722 
L 387.027717 54.733353 
L 389.06359 55.242367 
L 391.094271 55.771715 
L 393.119557 56.321342 
L 395.139246 56.891194 
L 397.153136 57.481215 
L 399.161024 58.091344 
L 401.162711 58.721522 
L 403.157997 59.371684 
L 405.146681 60.041767 
L 407.128564 60.731703 
L 409.10345 61.441422 
L 411.07114 62.170855 
L 413.031437 62.919928 
L 414.984145 63.688566 
L 416.92907 64.476692 
L 418.866016 65.284228 
L 420.79479 66.111092 
L 422.715199 66.957203 
L 424.627052 67.822475 
L 426.530156 68.706822 
L 428.424321 69.610156 
L 430.309359 70.532385 
L 432.18508 71.473419 
L 434.051298 72.433163 
L 435.907824 73.41152 
L 437.754475 74.408394 
L 439.591064 75.423683 
L 441.417409 76.457288 
L 443.233327 77.509104 
L 445.038636 78.579026 
L 446.833156 79.666948 
L 448.616707 80.77276 
L 450.389111 81.896352 
L 452.150191 83.037612 
L 453.89977 84.196425 
L 455.637673 85.372676 
L 457.363728 86.566246 
L 459.077761 87.777018 
L 460.7796 89.004868 
L 462.469076 90.249676 
L 464.14602 91.511315 
L 465.810263 92.789661 
L 467.461641 94.084585 
L 469.099986 95.395958 
L 470.725136 96.723648 
L 472.336929 98.067523 
L 473.935202 99.427449 
L 475.519796 100.803289 
L 477.090553 102.194906 
L 478.647315 103.602161 
L 480.189927 105.024912 
L 481.718235 106.463019 
L 483.232086 107.916336 
L 484.731328 109.384719 
L 486.215811 110.868021 
L 487.685387 112.366093 
L 489.13991 113.878786 
L 490.579233 115.405948 
L 492.003212 116.947426 
L 493.411706 118.503068 
L 494.804574 120.072716 
L 496.181675 121.656214 
L 497.542873 123.253403 
L 498.888031 124.864125 
L 500.217015 126.488217 
L 501.529692 128.125518 
L 502.825931 129.775864 
L 504.105602 131.439089 
L 505.368576 133.115027 
L 506.614729 134.803512 
L 507.843934 136.504373 
L 509.05607 138.217441 
L 510.251015 139.942544 
L 511.428649 141.679511 
L 512.588855 143.428166 
L 513.731516 145.188337 
L 514.85652 146.959845 
L 515.963752 148.742515 
L 517.053102 150.536168 
L 518.124462 152.340624 
L 519.177724 154.155704 
L 520.212782 155.981225 
L 521.229534 157.817006 
L 522.227878 159.662862 
L 523.207713 161.518609 
L 524.168943 163.384062 
L 525.11147 165.259033 
L 526.0352 167.143336 
L 526.940042 169.036781 
L 527.825904 170.93918 
L 528.692699 172.850343 
L 529.540338 174.770078 
L 530.368738 176.698193 
L 531.177816 178.634496 
L 531.967491 180.578792 
L 532.737684 182.530888 
L 533.488318 184.490588 
L 534.219317 186.457696 
L 534.930609 188.432016 
L 535.622123 190.413349 
L 536.293789 192.401499 
L 536.94554 194.396266 
L 537.577311 196.397451 
L 538.18904 198.404853 
L 538.780664 200.418272 
L 539.352124 202.437506 
L 539.903364 204.462354 
L 540.434328 206.492613 
L 540.944964 208.52808 
L 541.435219 210.568552 
L 541.905046 212.613824 
L 542.354397 214.663692 
L 542.783227 216.717951 
L 543.191493 218.776395 
L 543.579155 220.838819 
L 543.946174 222.905017 
L 544.292512 224.974781 
L 544.618136 227.047905 
L 544.923013 229.124182 
L 545.207112 231.203403 
L 545.470405 233.285362 
L 545.712866 235.369849 
L 545.93447 237.456657 
L 546.135195 239.545576 
L 546.315022 241.636399 
L 546.473931 243.728914 
L 546.611908 245.822915 
L 546.728938 247.91819 
L 546.82501 250.014531 
L 546.900114 252.111728 
L 546.954242 254.20957 
L 546.98739 256.30785 
L 546.999554 258.406356 
L 546.990732 260.504878 
L 546.960926 262.603208 
L 546.910139 264.701134 
L 546.838375 266.798448 
L 546.745642 268.894939 
L 546.631949 270.990398 
L 546.497308 273.084615 
L 546.341731 275.177382 
L 546.165235 277.268488 
L 545.967837 279.357724 
L 545.749557 281.444882 
L 545.510416 283.529753 
L 545.250439 285.612128 
L 544.969652 287.6918 
L 544.668083 289.768559 
L 544.345761 291.842199 
L 544.002719 293.912513 
L 543.638992 295.979292 
L 543.254615 298.042331 
L 542.849628 300.101423 
L 542.42407 302.156362 
L 541.977984 304.206943 
L 541.511416 306.252961 
L 541.02441 308.294211 
L 540.517017 310.330488 
L 539.989287 312.361591 
L 539.441273 314.387314 
L 538.873029 316.407456 
L 538.284612 318.421814 
L 537.676082 320.430188 
L 537.047499 322.432377 
L 536.398925 324.428179 
L 535.730426 326.417396 
L 535.042069 328.399829 
L 534.333922 330.375279 
L 533.606057 332.343549 
L 532.858545 334.304442 
L 532.091463 336.257761 
L 531.304885 338.203313 
L 530.498892 340.140902 
L 529.673564 342.070334 
L 528.828983 343.991416 
L 527.965233 345.903957 
L 527.082402 347.807765 
L 526.180577 349.702649 
L 525.259849 351.58842 
L 524.320309 353.46489 
L 523.362052 355.331871 
L 522.385173 357.189177 
L 521.389771 359.03662 
L 520.375944 360.874018 
L 519.343794 362.701185 
L 518.293424 364.51794 
L 517.22494 366.324101 
L 516.138448 368.119486 
L 515.034056 369.903917 
L 513.911876 371.677216 
L 512.772019 373.439203 
L 511.614599 375.189705 
L 510.439733 376.928544 
L 509.247537 378.655549 
L 508.038131 380.370545 
L 506.811636 382.073362 
L 505.568175 383.763829 
L 504.307871 385.441776 
L 503.030851 387.107038 
L 501.737242 388.759445 
L 500.427175 390.398835 
L 499.100779 392.025042 
L 497.758188 393.637904 
L 496.399535 395.237259 
L 495.024957 396.822949 
L 493.634592 398.394813 
L 492.228577 399.952696 
L 490.807054 401.49644 
L 489.370165 403.025893 
L 487.918054 404.5409 
L 486.450865 406.041311 
L 484.968746 407.526975 
L 483.471845 408.997744 
L 481.960311 410.45347 
L 480.434295 411.894009 
L 478.893951 413.319216 
L 477.339432 414.728948 
L 475.770894 416.123065 
L 474.188493 417.501427 
L 472.592387 418.863896 
L 470.982738 420.210337 
L 469.359704 421.540614 
L 467.723449 422.854594 
L 466.074136 424.152147 
L 464.411931 425.433141 
L 462.736998 426.69745 
L 461.049507 427.944947 
L 459.349625 429.175506 
L 457.637523 430.389006 
L 455.913372 431.585324 
L 454.177344 432.764341 
L 452.429612 433.925939 
L 450.670353 435.070002 
L 448.899741 436.196415 
L 447.117953 437.305067 
L 445.325168 438.395845 
L 443.521565 439.468641 
L 441.707325 440.523348 
L 439.882629 441.55986 
L 438.047658 442.578074 
L 436.202598 443.577887 
L 434.347632 444.5592 
L 432.482945 445.521915 
L 430.608725 446.465934 
L 428.725158 447.391165 
L 426.832434 448.297514 
L 424.930741 449.184891 
L 423.020269 450.053207 
L 421.10121 450.902375 
L 419.173755 451.732311 
L 417.238097 452.54293 
L 415.29443 453.334153 
L 413.342949 454.1059 
L 411.383847 454.858094 
L 409.417322 455.59066 
L 407.443569 456.303524 
L 405.462786 456.996615 
L 403.475172 457.669864 
L 401.480925 458.323204 
L 399.480244 458.956568 
L 397.47333 459.569895 
L 395.460382 460.163122 
L 393.441604 460.73619 
L 391.417195 461.289043 
L 389.38736 461.821624 
L 387.3523 462.33388 
L 385.31222 462.82576 
L 383.267322 463.297215 
L 381.217813 463.748198 
L 379.163896 464.178664 
L 377.105777 464.58857 
L 375.043663 464.977874 
L 372.977758 465.346538 
L 370.90827 465.694524 
L 368.835406 466.021799 
L 366.759373 466.328329 
L 364.680378 466.614084 
L 362.59863 466.879035 
L 360.514336 467.123155 
L 358.427706 467.346421 
L 356.338947 467.54881 
L 354.248269 467.730301 
L 352.15588 467.890877 
L 350.06199 468.030521 
L 347.966809 468.149219 
L 345.870545 468.246961 
L 343.773409 468.323735 
L 341.67561 468.379534 
L 339.577357 468.414353 
L 337.478862 468.428187 
L 337.144636 468.428454 
L 337.144636 470.548201 
L 337.482238 470.547932 
L 339.60193 470.533957 
L 341.721377 470.498787 
L 343.840366 470.442424 
L 345.958685 470.364875 
L 348.076124 470.266146 
L 350.192468 470.146248 
L 352.307509 470.005194 
L 354.421033 469.842996 
L 356.532829 469.659672 
L 358.642686 469.455239 
L 360.750394 469.229718 
L 362.855741 468.983131 
L 364.958517 468.715504 
L 367.058512 468.426863 
L 369.155515 468.117237 
L 371.249317 467.786656 
L 373.339709 467.435154 
L 375.426481 467.062767 
L 377.509425 466.66953 
L 379.588333 466.255484 
L 381.662996 465.82067 
L 383.733208 465.365132 
L 385.798761 464.888915 
L 387.859448 464.392066 
L 389.915064 463.874635 
L 391.965403 463.336675 
L 394.01026 462.778238 
L 396.04943 462.199381 
L 398.08271 461.600162 
L 400.109897 460.98064 
L 402.130786 460.340878 
L 404.145178 459.680939 
L 406.152869 459.000889 
L 408.153659 458.300797 
L 410.147349 457.580732 
L 412.133738 456.840767 
L 414.112629 456.080975 
L 416.083822 455.301433 
L 418.047122 454.502218 
L 420.002332 453.68341 
L 421.949256 452.845092 
L 423.8877 451.987346 
L 425.817469 451.110259 
L 427.738371 450.213919 
L 429.650214 449.298415 
L 431.552807 448.363838 
L 433.445958 447.410283 
L 435.32948 446.437844 
L 437.203183 445.446619 
L 439.066881 444.436706 
L 440.920386 443.408208 
L 442.763514 442.361226 
L 444.59608 441.295865 
L 446.417901 440.212233 
L 448.228795 439.110436 
L 450.02858 437.990587 
L 451.817077 436.852795 
L 453.594107 435.697176 
L 455.359492 434.523845 
L 457.113056 433.332918 
L 458.854623 432.124516 
L 460.584019 430.898759 
L 462.301071 429.65577 
L 464.005608 428.395672 
L 465.697459 427.118592 
L 467.376454 425.824658 
L 469.042427 424.513999 
L 470.69521 423.186747 
L 472.334638 421.843033 
L 473.960547 420.482992 
L 475.572774 419.10676 
L 477.171159 417.714475 
L 478.755541 416.306276 
L 480.325762 414.882304 
L 481.881666 413.442701 
L 483.423096 411.987612 
L 484.949898 410.517181 
L 486.461919 409.031556 
L 487.959009 407.530885 
L 489.441018 406.015319 
L 490.907797 404.485008 
L 492.3592 402.940107 
L 493.795082 401.380769 
L 495.215298 399.80715 
L 496.619708 398.219408 
L 498.008171 396.617702 
L 499.380547 395.002191 
L 500.7367 393.373037 
L 502.076493 391.730404 
L 503.399794 390.074455 
L 504.706469 388.405356 
L 505.996388 386.723274 
L 507.269423 385.028378 
L 508.525444 383.320835 
L 509.764328 381.600819 
L 510.98595 379.868499 
L 512.190188 378.12405 
L 513.376922 376.367646 
L 514.546033 374.599463 
L 515.697403 372.819678 
L 516.830919 371.028467 
L 517.946466 369.226012 
L 519.043933 367.412491 
L 520.12321 365.588087 
L 521.184189 363.752981 
L 522.226765 361.907357 
L 523.250833 360.0514 
L 524.25629 358.185295 
L 525.243036 356.309229 
L 526.210973 354.42339 
L 527.160003 352.527965 
L 528.090031 350.623146 
L 529.000965 348.709121 
L 529.892714 346.786083 
L 530.765188 344.854224 
L 531.618301 342.913736 
L 532.451966 340.964815 
L 533.2661 339.007655 
L 534.060622 337.042451 
L 534.835454 335.069401 
L 535.590516 333.088701 
L 536.325733 331.100549 
L 537.041033 329.105145 
L 537.736343 327.102688 
L 538.411595 325.093378 
L 539.066719 323.077416 
L 539.701652 321.055004 
L 540.316329 319.026343 
L 540.910689 316.991638 
L 541.484673 314.95109 
L 542.038223 312.904905 
L 542.571284 310.853287 
L 543.083802 308.79644 
L 543.575726 306.734572 
L 544.047008 304.667887 
L 544.497599 302.596593 
L 544.927456 300.520897 
L 545.336534 298.441006 
L 545.724793 296.357129 
L 546.092195 294.269473 
L 546.438701 292.178247 
L 546.764279 290.083661 
L 547.068895 287.985924 
L 547.352518 285.885246 
L 547.615121 283.781837 
L 547.856677 281.675906 
L 548.077162 279.567666 
L 548.276554 277.457326 
L 548.454833 275.345098 
L 548.611981 273.231193 
L 548.747983 271.115822 
L 548.862824 268.999196 
L 548.956494 266.881528 
L 549.028982 264.76303 
L 549.080283 262.643912 
L 549.11039 260.524387 
L 549.119301 258.404668 
L 549.107014 256.284965 
L 549.073531 254.165491 
L 549.018856 252.046457 
L 548.942993 249.928077 
L 548.845951 247.810561 
L 548.727739 245.694121 
L 548.588368 243.578969 
L 548.427854 241.465317 
L 548.246211 239.353375 
L 548.043458 237.243356 
L 547.819616 235.135469 
L 547.574706 233.029926 
L 547.308754 230.926938 
L 547.021785 228.826714 
L 546.713828 226.729465 
L 546.384915 224.6354 
L 546.035078 222.544729 
L 545.664352 220.457661 
L 545.272775 218.374404 
L 544.860385 216.295168 
L 544.427223 214.220159 
L 543.973333 212.149585 
L 543.498761 210.083654 
L 543.003553 208.022571 
L 542.48776 205.966544 
L 541.951432 203.915777 
L 541.394624 201.870476 
L 540.817391 199.830845 
L 540.219791 197.797089 
L 539.601884 195.76941 
L 538.963731 193.748012 
L 538.305396 191.733095 
L 537.626946 189.724863 
L 536.928447 187.723516 
L 536.20997 185.729254 
L 535.471587 183.742276 
L 534.713371 181.762781 
L 533.935399 179.790967 
L 533.137748 177.827031 
L 532.320497 175.87117 
L 531.483729 173.923579 
L 530.627527 171.984453 
L 529.751978 170.053986 
L 528.857167 168.13237 
L 527.943186 166.219799 
L 527.010125 164.316463 
L 526.058077 162.422552 
L 525.087138 160.538257 
L 524.097406 158.663765 
L 523.088978 156.799264 
L 522.061955 154.94494 
L 521.016442 153.100979 
L 519.952541 151.267565 
L 518.870359 149.444882 
L 517.770005 147.633111 
L 516.651589 145.832435 
L 515.515222 144.043032 
L 514.361019 142.265083 
L 513.189093 140.498764 
L 511.999564 138.744252 
L 510.792549 137.001723 
L 509.568169 135.271352 
L 508.326548 133.55331 
L 507.067808 131.84777 
L 505.792076 130.154903 
L 504.499479 128.474878 
L 503.190148 126.807862 
L 501.864211 125.154023 
L 500.521803 123.513526 
L 499.163057 121.886534 
L 497.78811 120.273211 
L 496.397098 118.673718 
L 494.990162 117.088215 
L 493.56744 115.51686 
L 492.129077 113.959811 
L 490.675215 112.417223 
L 489.206001 110.889251 
L 487.72158 109.376046 
L 486.222102 107.877762 
L 484.707716 106.394547 
L 483.178575 104.92655 
L 481.634829 103.473917 
L 480.076635 102.036794 
L 478.504148 100.615324 
L 476.917525 99.209651 
L 475.316925 97.819913 
L 473.702507 96.446251 
L 472.074434 95.088801 
L 470.432869 93.7477 
L 468.777974 92.423081 
L 467.109916 91.115077 
L 465.428862 89.823819 
L 463.734979 88.549435 
L 462.028438 87.292054 
L 460.309408 86.051801 
L 458.578062 84.8288 
L 456.834573 83.623173 
L 455.079115 82.435041 
L 453.311863 81.264523 
L 451.532995 80.111735 
L 449.742688 78.976794 
L 447.941121 77.859812 
L 446.128475 76.760901 
L 444.30493 75.680171 
L 442.47067 74.617731 
L 440.625877 73.573686 
L 438.770736 72.54814 
L 436.905432 71.541197 
L 435.030153 70.552958 
L 433.145085 69.58352 
L 431.250417 68.632981 
L 429.346338 67.701435 
L 427.43304 66.788977 
L 425.510712 65.895697 
L 423.579549 65.021685 
L 421.639741 64.167028 
L 419.691485 63.331811 
L 417.734973 62.516119 
L 415.770403 61.720031 
L 413.79797 60.943629 
L 411.817872 60.18699 
L 409.830307 59.45019 
L 407.835473 58.733301 
L 405.83357 58.036396 
L 403.824798 57.359545 
L 401.809358 56.702815 
L 399.787452 56.066272 
L 397.759282 55.44998 
L 395.72505 54.854 
L 393.684961 54.278391 
L 391.639217 53.723212 
L 389.588024 53.188518 
L 387.531586 52.674362 
L 385.47011 52.180795 
L 383.403802 51.707868 
L 381.332867 51.255628 
L 379.257514 50.824118 
L 377.177949 50.413384 
L 375.094382 50.023466 
L 373.007019 49.654402 
L 370.91607 49.30623 
L 368.821744 48.978984 
L 366.72425 48.672698 
L 364.623798 48.387402 
L 362.520599 48.123124 
L 360.414862 47.879891 
L 358.306797 47.657727 
L 356.196617 47.456655 
L 354.084532 47.276694 
L 351.970752 47.117863 
L 349.85549 46.980177 
L 347.738957 46.86365 
L 345.621364 46.768294 
L 343.502924 46.694118 
L 341.383848 46.64113 
L 339.264348 46.609335 
L 337.144636 46.598737 
L 337.144636 48.718484 
z
" clip-path="url(#pba416c0735)" style="fill: none; stroke: #000000; stroke-width: 0.5; stroke-linejoin: miter"/>
   </g>
   <g id="patch_5">
    <path d="M 337.144636 468.428454 
L 335.046121 468.417961 
L 332.947816 468.386484 
L 330.84993 468.334026 
L 328.752675 468.260592 
L 326.656258 468.166189 
L 324.56089 468.050828 
L 322.466781 467.914519 
L 320.374139 467.757276 
L 318.283174 467.579114 
L 316.194096 467.380053 
L 314.107112 467.160111 
L 312.022432 466.91931 
L 309.940265 466.657675 
L 307.860818 466.375232 
L 305.784299 466.072008 
L 303.710916 465.748035 
L 301.640876 465.403345 
L 299.574387 465.037972 
L 297.511655 464.651953 
L 295.452886 464.245326 
L 293.398287 463.818132 
L 291.348061 463.370413 
L 289.302416 462.902215 
L 287.261555 462.413585 
L 285.225682 461.90457 
L 283.195 461.375223 
L 281.169714 460.825596 
L 279.150025 460.255743 
L 277.136136 459.665723 
L 275.128247 459.055593 
L 273.12656 458.425416 
L 271.131275 457.775253 
L 269.142591 457.10517 
L 267.160707 456.415235 
L 265.185822 455.705515 
L 263.218132 454.976082 
L 261.257835 454.22701 
L 259.305126 453.458372 
L 257.360202 452.670245 
L 255.423255 451.86271 
L 253.494481 451.035845 
L 251.574072 450.189734 
L 249.66222 449.324462 
L 247.759116 448.440115 
L 245.86495 447.536782 
L 243.979912 446.614552 
L 242.104191 445.673518 
L 240.237974 444.713775 
L 238.381447 443.735417 
L 236.534797 442.738544 
L 234.698207 441.723254 
L 232.871862 440.68965 
L 231.055944 439.637833 
L 229.250635 438.567911 
L 227.456115 437.479989 
L 225.672564 436.374177 
L 223.90016 435.250585 
L 222.139081 434.109325 
L 220.389502 432.950512 
L 218.651598 431.774262 
L 216.925544 430.580691 
L 215.211511 429.36992 
L 213.509671 428.142069 
L 211.820195 426.897262 
L 210.143252 425.635622 
L 208.479008 424.357276 
L 206.827631 423.062353 
L 205.189285 421.75098 
L 203.564135 420.42329 
L 201.952343 419.079414 
L 200.35407 417.719489 
L 198.769475 416.343649 
L 197.198719 414.952032 
L 195.641956 413.544777 
L 194.099344 412.122025 
L 192.571036 410.683919 
L 191.057186 409.230601 
L 189.557944 407.762218 
L 188.073461 406.278917 
L 186.603884 404.780845 
L 185.149362 403.268152 
L 183.710039 401.74099 
L 182.286059 400.199511 
L 180.877565 398.64387 
L 179.484698 397.074222 
L 178.107596 395.490724 
L 176.746398 393.893534 
L 175.40124 392.282812 
L 174.072256 390.65872 
L 172.759579 389.021419 
L 171.46334 387.371074 
L 170.18367 385.707849 
L 168.920695 384.03191 
L 167.674543 382.343426 
L 166.445337 380.642565 
L 165.233202 378.929497 
L 164.038257 377.204393 
L 162.860623 375.467427 
L 161.700417 373.718771 
L 160.557755 371.958601 
L 159.432752 370.187092 
L 158.32552 368.404423 
L 157.236169 366.61077 
L 156.16481 364.806313 
L 155.111548 362.991233 
L 154.076489 361.165712 
L 153.059737 359.329932 
L 152.061394 357.484075 
L 151.081558 355.628328 
L 150.120329 353.762876 
L 149.177802 351.887905 
L 148.254071 350.003602 
L 147.349229 348.110156 
L 146.463367 346.207757 
L 145.596573 344.296594 
L 144.748933 342.37686 
L 143.920533 340.448745 
L 143.111455 338.512442 
L 142.32178 336.568146 
L 141.551587 334.61605 
L 140.800954 332.65635 
L 140.069955 330.689242 
L 139.358662 328.714922 
L 138.667149 326.733588 
L 137.995483 324.745438 
L 137.343732 322.750671 
L 136.71196 320.749487 
L 136.100232 318.742085 
L 135.508608 316.728666 
L 134.937147 314.709431 
L 134.385907 312.684583 
L 133.854943 310.654324 
L 133.344308 308.618857 
L 132.854052 306.578386 
L 132.384225 304.533114 
L 131.934874 302.483246 
L 131.506044 300.428987 
L 131.097778 298.370543 
L 130.710116 296.308118 
L 130.343098 294.241921 
L 129.996759 292.172157 
L 129.671135 290.099032 
L 129.366258 288.022756 
L 129.082159 285.943534 
L 128.818866 283.861576 
L 128.576405 281.777088 
L 128.354801 279.690281 
L 128.154076 277.601361 
L 127.97425 275.510539 
L 127.81534 273.418023 
L 127.677364 271.324023 
L 127.560334 269.228748 
L 127.464262 267.132407 
L 127.389158 265.03521 
L 127.335029 262.937367 
L 127.301881 260.839088 
L 127.289717 258.740582 
L 127.298539 256.642059 
L 127.328345 254.54373 
L 127.379132 252.445803 
L 127.450896 250.34849 
L 127.543629 248.251999 
L 127.657322 246.156539 
L 127.791964 244.062322 
L 127.94754 241.969556 
L 128.124036 239.87845 
L 128.321434 237.789214 
L 128.539715 235.702056 
L 128.778855 233.617185 
L 129.038832 231.534809 
L 129.319619 229.455138 
L 129.621189 227.378378 
L 129.943511 225.304738 
L 130.286552 223.234425 
L 130.65028 221.167645 
L 131.034656 219.104607 
L 131.439644 217.045515 
L 131.865202 214.990575 
L 132.311287 212.939994 
L 132.777856 210.893977 
L 133.264861 208.852727 
L 133.772254 206.816449 
L 134.299984 204.785347 
L 134.847999 202.759624 
L 135.416243 200.739482 
L 136.004659 198.725123 
L 136.61319 196.716749 
L 137.241773 194.714561 
L 137.890346 192.718759 
L 138.558845 190.729542 
L 139.247202 188.747109 
L 139.955349 186.771659 
L 140.683215 184.803389 
L 141.430726 182.842496 
L 142.197809 180.889176 
L 142.984386 178.943624 
L 143.790379 177.006036 
L 144.615708 175.076604 
L 145.460289 173.155521 
L 146.324038 171.242981 
L 147.206869 169.339173 
L 148.108694 167.444289 
L 149.029423 165.558517 
L 149.968962 163.682047 
L 150.927219 161.815066 
L 151.904098 159.957761 
L 152.899501 158.110317 
L 153.913328 156.27292 
L 154.945477 154.445752 
L 155.995847 152.628997 
L 157.064332 150.822837 
L 158.150824 149.027451 
L 159.255215 147.24302 
L 160.377396 145.469722 
L 161.517253 143.707734 
L 162.674672 141.957233 
L 163.849539 140.218393 
L 165.041734 138.491389 
L 166.25114 136.776392 
L 167.477635 135.073576 
L 168.721097 133.383109 
L 169.981401 131.705161 
L 171.258421 130.0399 
L 172.552029 128.387492 
L 173.862097 126.748103 
L 175.188493 125.121896 
L 176.531084 123.509034 
L 177.889736 121.909678 
L 179.264314 120.323989 
L 180.65468 118.752124 
L 182.060694 117.194242 
L 183.482217 115.650497 
L 184.919106 114.121045 
L 186.371217 112.606037 
L 187.838406 111.105627 
L 189.320525 109.619963 
L 190.817427 108.149194 
L 192.328961 106.693467 
L 193.854976 105.252929 
L 195.39532 103.827722 
L 196.949839 102.417989 
L 198.518378 101.023873 
L 200.100779 99.645511 
L 201.696884 98.283041 
L 203.306534 96.936601 
L 204.929567 95.606324 
L 206.565822 94.292343 
L 208.215135 92.994791 
L 209.877341 91.713796 
L 211.552273 90.449487 
L 213.239764 89.201991 
L 214.939646 87.971431 
L 216.651748 86.757932 
L 218.3759 85.561614 
L 220.111928 84.382597 
L 221.859659 83.220999 
L 223.618919 82.076936 
L 225.389531 80.950522 
L 227.171318 79.841871 
L 228.964103 78.751092 
L 230.767706 77.678296 
L 232.581946 76.623589 
L 234.406643 75.587077 
L 236.241613 74.568864 
L 238.086674 73.56905 
L 239.94164 72.587737 
L 241.806326 71.625023 
L 243.680546 70.681003 
L 245.564113 69.755772 
L 247.456837 68.849423 
L 249.358531 67.962046 
L 251.269002 67.09373 
L 253.188062 66.244562 
L 255.115516 65.414627 
L 257.051174 64.604007 
L 258.994841 63.812784 
L 260.946323 63.041037 
L 262.905424 62.288843 
L 264.87195 61.556278 
L 266.845703 60.843414 
L 268.826485 60.150323 
L 270.814099 59.477074 
L 272.808347 58.823734 
L 274.809027 58.190369 
L 276.815942 57.577043 
L 278.828889 56.983815 
L 280.847668 56.410747 
L 282.872076 55.857895 
L 284.901912 55.325314 
L 286.936971 54.813058 
L 288.977052 54.321177 
L 291.021949 53.849722 
L 293.071459 53.398739 
L 295.125375 52.968273 
L 297.183494 52.558368 
L 299.245609 52.169064 
L 301.311513 51.8004 
L 303.381001 51.452413 
L 305.453865 51.125138 
L 307.529899 50.818608 
L 309.608893 50.532854 
L 311.690642 50.267903 
L 313.774935 50.023782 
L 315.861566 49.800517 
L 317.950325 49.598128 
L 320.041003 49.416637 
L 322.133392 49.256061 
L 324.227281 49.116417 
L 326.322463 48.997718 
L 328.418726 48.899977 
L 330.515863 48.823203 
L 332.613662 48.767404 
L 334.711914 48.732585 
L 336.81041 48.71875 
L 337.144636 48.718484 
L 337.144636 46.598737 
L 336.807034 46.599005 
L 334.687341 46.61298 
L 332.567894 46.648151 
L 330.448905 46.704513 
L 328.330586 46.782063 
L 326.213148 46.880791 
L 324.096803 47.000689 
L 321.981763 47.141744 
L 319.868239 47.303941 
L 317.756443 47.487266 
L 315.646585 47.691699 
L 313.538878 47.91722 
L 311.43353 48.163806 
L 309.330754 48.431433 
L 307.23076 48.720074 
L 305.133757 49.029701 
L 303.039954 49.360281 
L 300.949563 49.711783 
L 298.86279 50.084171 
L 296.779846 50.477407 
L 294.700938 50.891453 
L 292.626275 51.326267 
L 290.556063 51.781805 
L 288.490511 52.258023 
L 286.429823 52.754872 
L 284.374207 53.272302 
L 282.323868 53.810263 
L 280.279011 54.368699 
L 278.239841 54.947556 
L 276.206561 55.546776 
L 274.179375 56.166297 
L 272.158485 56.80606 
L 270.144094 57.465999 
L 268.136403 58.146048 
L 266.135612 58.84614 
L 264.141923 59.566205 
L 262.155533 60.30617 
L 260.176643 61.065962 
L 258.205449 61.845505 
L 256.242149 62.64472 
L 254.286939 63.463527 
L 252.340015 64.301846 
L 250.401572 65.159591 
L 248.471802 66.036678 
L 246.5509 66.933019 
L 244.639057 67.848523 
L 242.736465 68.783099 
L 240.843313 69.736655 
L 238.959791 70.709094 
L 237.086088 71.700319 
L 235.222391 72.710231 
L 233.368885 73.73873 
L 231.525758 74.785712 
L 229.693191 75.851072 
L 227.871371 76.934705 
L 226.060477 78.036501 
L 224.260691 79.156351 
L 222.472194 80.294142 
L 220.695164 81.449762 
L 218.929779 82.623093 
L 217.176215 83.814019 
L 215.434648 85.022421 
L 213.705252 86.248178 
L 211.9882 87.491168 
L 210.283663 88.751265 
L 208.591813 90.028345 
L 206.912817 91.322279 
L 205.246844 92.632938 
L 203.594062 93.960191 
L 201.954634 95.303905 
L 200.328725 96.663946 
L 198.716497 98.040178 
L 197.118113 99.432463 
L 195.53373 100.840661 
L 193.963509 102.264633 
L 192.407606 103.704236 
L 190.866176 105.159326 
L 189.339374 106.629757 
L 187.827352 108.115382 
L 186.330262 109.616053 
L 184.848254 111.131619 
L 183.381474 112.661929 
L 181.930071 114.206831 
L 180.49419 115.766169 
L 179.073973 117.339788 
L 177.669563 118.92753 
L 176.281101 120.529236 
L 174.908725 122.144747 
L 173.552572 123.7739 
L 172.212778 125.416533 
L 170.889478 127.072482 
L 169.582802 128.741581 
L 168.292883 130.423663 
L 167.019849 132.11856 
L 165.763827 133.826102 
L 164.524943 135.546119 
L 163.303321 137.278438 
L 162.099083 139.022887 
L 160.912349 140.779291 
L 159.743239 142.547474 
L 158.591868 144.32726 
L 157.458353 146.11847 
L 156.342806 147.920926 
L 155.245339 149.734446 
L 154.166061 151.558851 
L 153.105082 153.393957 
L 152.062506 155.239581 
L 151.038439 157.095538 
L 150.032981 158.961643 
L 149.046235 160.837708 
L 148.078299 162.723548 
L 147.129269 164.618972 
L 146.19924 166.523792 
L 145.288306 168.437816 
L 144.396557 170.360855 
L 143.524083 172.292714 
L 142.670971 174.233201 
L 141.837306 176.182122 
L 141.023171 178.139283 
L 140.228649 180.104486 
L 139.453818 182.077537 
L 138.698756 184.058237 
L 137.963538 186.046388 
L 137.248238 188.041792 
L 136.552928 190.044249 
L 135.877677 192.053559 
L 135.222552 194.069521 
L 134.587619 196.091934 
L 133.972942 198.120594 
L 133.378582 200.1553 
L 132.804598 202.195847 
L 132.251048 204.242033 
L 131.717988 206.293651 
L 131.205469 208.350497 
L 130.713545 210.412366 
L 130.242263 212.47905 
L 129.791672 214.550344 
L 129.361816 216.62604 
L 128.952737 218.705931 
L 128.564478 220.789809 
L 128.197077 222.877465 
L 127.85057 224.96869 
L 127.524992 227.063276 
L 127.220377 229.161013 
L 126.936753 231.261692 
L 126.67415 233.365101 
L 126.432594 235.471031 
L 126.212109 237.579272 
L 126.012717 239.689611 
L 125.834438 241.80184 
L 125.67729 243.915745 
L 125.541289 246.031116 
L 125.426447 248.147741 
L 125.332778 250.265409 
L 125.260289 252.383908 
L 125.208989 254.503025 
L 125.178881 256.62255 
L 125.169971 258.74227 
L 125.182257 260.861973 
L 125.21574 262.981447 
L 125.270416 265.10048 
L 125.346278 267.218861 
L 125.44332 269.336377 
L 125.561533 271.452816 
L 125.700903 273.567968 
L 125.861418 275.68162 
L 126.04306 277.793562 
L 126.245813 279.903582 
L 126.469656 282.011468 
L 126.714565 284.117011 
L 126.980518 286.219999 
L 127.267487 288.320223 
L 127.575443 290.417472 
L 127.904356 292.511537 
L 128.254193 294.602208 
L 128.624919 296.689277 
L 129.016497 298.772533 
L 129.428887 300.85177 
L 129.862049 302.926779 
L 130.315938 304.997353 
L 130.790511 307.063284 
L 131.285718 309.124366 
L 131.801512 311.180394 
L 132.337839 313.23116 
L 132.894647 315.276461 
L 133.47188 317.316092 
L 134.06948 319.349849 
L 134.687388 321.377527 
L 135.325541 323.398926 
L 135.983875 325.413842 
L 136.662326 327.422074 
L 137.360824 329.423421 
L 138.079301 331.417684 
L 138.817684 333.404662 
L 139.5759 335.384157 
L 140.353873 337.355971 
L 141.151524 339.319906 
L 141.968774 341.275768 
L 142.805542 343.223359 
L 143.661744 345.162485 
L 144.537294 347.092952 
L 145.432104 349.014567 
L 146.346086 350.927139 
L 147.279147 352.830475 
L 148.231194 354.724385 
L 149.202133 356.608681 
L 150.191866 358.483172 
L 151.200294 360.347674 
L 152.227316 362.201997 
L 153.27283 364.045958 
L 154.336731 365.879372 
L 155.418912 367.702056 
L 156.519266 369.513826 
L 157.637682 371.314503 
L 158.774049 373.103905 
L 159.928253 374.881855 
L 161.100178 376.648174 
L 162.289708 378.402685 
L 163.496722 380.145214 
L 164.721102 381.875586 
L 165.962724 383.593627 
L 167.221463 385.299167 
L 168.497195 386.992034 
L 169.789792 388.67206 
L 171.099124 390.339075 
L 172.42506 391.992914 
L 173.767468 393.633412 
L 175.126214 395.260403 
L 176.501161 396.873726 
L 177.892173 398.473219 
L 179.29911 400.058722 
L 180.721831 401.630077 
L 182.160194 403.187126 
L 183.614056 404.729714 
L 185.08327 406.257687 
L 186.567691 407.770891 
L 188.067169 409.269176 
L 189.581555 410.752391 
L 191.110697 412.220388 
L 192.654442 413.673021 
L 194.212636 415.110144 
L 195.785123 416.531613 
L 197.371746 417.937287 
L 198.972347 419.327024 
L 200.586764 420.700687 
L 202.214837 422.058136 
L 203.856403 423.399238 
L 205.511297 424.723856 
L 207.179355 426.03186 
L 208.860409 427.323119 
L 210.554292 428.597502 
L 212.260833 429.854883 
L 213.979863 431.095137 
L 215.711209 432.318138 
L 217.454699 433.523765 
L 219.210157 434.711897 
L 220.977409 435.882415 
L 222.756277 437.035202 
L 224.546584 438.170144 
L 226.34815 439.287126 
L 228.160797 440.386037 
L 229.984341 441.466766 
L 231.818602 442.529207 
L 233.663395 443.573252 
L 235.518536 444.598797 
L 237.383839 445.60574 
L 239.259119 446.59398 
L 241.144187 447.563418 
L 243.038855 448.513957 
L 244.942933 449.445502 
L 246.856232 450.35796 
L 248.778559 451.25124 
L 250.709723 452.125252 
L 252.64953 452.97991 
L 254.597787 453.815126 
L 256.554298 454.630819 
L 258.518869 455.426906 
L 260.491301 456.203308 
L 262.471399 456.959947 
L 264.458965 457.696748 
L 266.453799 458.413636 
L 268.455702 459.110541 
L 270.464473 459.787392 
L 272.479913 460.444122 
L 274.501819 461.080665 
L 276.529989 461.696958 
L 278.564221 462.292938 
L 280.604311 462.868546 
L 282.650055 463.423726 
L 284.701248 463.95842 
L 286.757685 464.472576 
L 288.819161 464.966142 
L 290.88547 465.439069 
L 292.956404 465.89131 
L 295.031758 466.322819 
L 297.111322 466.733553 
L 299.19489 467.123472 
L 301.282253 467.492536 
L 303.373202 467.840708 
L 305.467528 468.167953 
L 307.565021 468.474239 
L 309.665473 468.759536 
L 311.768673 469.023813 
L 313.87441 469.267046 
L 315.982474 469.48921 
L 318.092654 469.690283 
L 320.20474 469.870243 
L 322.318519 470.029075 
L 324.433782 470.166761 
L 326.550315 470.283288 
L 328.667907 470.378644 
L 330.786348 470.452819 
L 332.905424 470.505807 
L 335.024924 470.537602 
L 337.144636 470.548201 
L 337.144636 468.428454 
z
" clip-path="url(#pba416c0735)" style="fill: none; stroke: #000000; stroke-width: 0.5; stroke-linejoin: miter"/>
   </g>
   <g id="text_1">
    <text style="font: 3px 'DejaVu Sans', 'Bitstream Vera Sans', 'Computer Modern Sans Serif', 'Lucida Grande', 'Verdana', 'Geneva', 'Lucid', 'Arial', 'Helvetica', 'Avant Garde', sans-serif; text-anchor: start" x="551.239115" y="259.713234" transform="rotate(-0 551.239115 259.713234)">University of Reunion Island</text>
   </g>
   <g id="text_2">
    <text style="font: 3px 'DejaVu Sans', 'Bitstream Vera Sans', 'Computer Modern Sans Serif', 'Lucida Grande', 'Verdana', 'Geneva', 'Lucid', 'Arial', 'Helvetica', 'Avant Garde', sans-serif; text-anchor: end" x="123.050156" y="259.773234" transform="rotate(-0 123.050156 259.773234)">Peuplement Vgtaux et Bio-agresseurs en Milieu Tropical</text>
   </g>
  </g>
 </g>
 <defs>
  <clipPath id="pba416c0735">
   <path d="M 559.718104 258.573469 
C 559.718104 229.345389 553.96081 200.401515 542.775708 173.39829 
C 531.590606 146.395065 515.195218 121.857633 494.527845 101.19026 
C 473.860471 80.522886 449.32304 64.127499 422.319815 52.942396 
C 395.31659 41.757294 366.372716 36 337.144636 36 
C 307.916556 36 278.972682 41.757294 251.969457 52.942396 
C 224.966232 64.127499 200.4288 80.522886 179.761427 101.19026 
C 159.094053 121.857633 142.698665 146.395065 131.513563 173.39829 
C 120.328461 200.401515 114.571167 229.345389 114.571167 258.573469 
C 114.571167 287.801549 120.328461 316.745423 131.513563 343.748648 
C 142.698665 370.751873 159.094053 395.289304 179.761427 415.956678 
C 200.4288 436.624051 224.966232 453.019439 251.969457 464.204541 
C 278.972682 475.389643 307.916556 481.146937 337.144636 481.146937 
C 366.372716 481.146937 395.31659 475.389643 422.319815 464.204541 
C 449.32304 453.019439 473.860471 436.624051 494.527845 415.956678 
C 515.195218 395.289304 531.590606 370.751873 542.775708 343.748648 
C 553.96081 316.745423 559.718104 287.801549 559.718104 258.573469 
M 337.144636 258.573469 
C 337.144636 258.573469 337.144636 258.573469 337.144636 258.573469 
C 337.144636 258.573469 337.144636 258.573469 337.144636 258.573469 
C 337.144636 258.573469 337.144636 258.573469 337.144636 258.573469 
C 337.144636 258.573469 337.144636 258.573469 337.144636 258.573469 
C 337.144636 258.573469 337.144636 258.573469 337.144636 258.573469 
C 337.144636 258.573469 337.144636 258.573469 337.144636 258.573469 
C 337.144636 258.573469 337.144636 258.573469 337.144636 258.573469 
C 337.144636 258.573469 337.144636 258.573469 337.144636 258.573469 
C 337.144636 258.573469 337.144636 258.573469 337.144636 258.573469 
C 337.144636 258.573469 337.144636 258.573469 337.144636 258.573469 
C 337.144636 258.573469 337.144636 258.573469 337.144636 258.573469 
C 337.144636 258.573469 337.144636 258.573469 337.144636 258.573469 
C 337.144636 258.573469 337.144636 258.573469 337.144636 258.573469 
C 337.144636 258.573469 337.144636 258.573469 337.144636 258.573469 
C 337.144636 258.573469 337.144636 258.573469 337.144636 258.573469 
C 337.144636 258.573469 337.144636 258.573469 337.144636 258.573469 
z
"/>
  </clipPath>
 </defs>
</svg>
