<?xml version="1.0" encoding="utf-8" standalone="no"?>
<!DOCTYPE svg PUBLIC "-//W3C//DTD SVG 1.1//EN"
  "http://www.w3.org/Graphics/SVG/1.1/DTD/svg11.dtd">
<svg xmlns:xlink="http://www.w3.org/1999/xlink" width="618.183645pt" height="621.850588pt" viewBox="0 0 618.183645 621.850588" xmlns="http://www.w3.org/2000/svg" version="1.1">
 <metadata>
  <rdf:RDF xmlns:dc="http://purl.org/dc/elements/1.1/" xmlns:cc="http://creativecommons.org/ns#" xmlns:rdf="http://www.w3.org/1999/02/22-rdf-syntax-ns#">
   <cc:Work>
    <dc:type rdf:resource="http://purl.org/dc/dcmitype/StillImage"/>
    <dc:date>2024-11-16T03:38:56.532776</dc:date>
    <dc:format>image/svg+xml</dc:format>
    <dc:creator>
     <cc:Agent>
      <dc:title>Matplotlib v3.8.4, https://matplotlib.org/</dc:title>
     </cc:Agent>
    </dc:creator>
   </cc:Work>
  </rdf:RDF>
 </metadata>
 <defs>
  <style type="text/css">*{stroke-linejoin: round; stroke-linecap: butt}</style>
 </defs>
 <g id="figure_1">
  <g id="patch_1">
   <path d="M 0 621.850588 
L 618.183645 621.850588 
L 618.183645 0 
L 0 0 
z
" style="fill: #ffffff"/>
  </g>
  <g id="axes_1">
   <g id="patch_2">
    <path d="M 290.72894 58.340707 
L 293.122402 58.352675 
L 295.515624 58.388576 
L 297.908369 58.448407 
L 300.300395 58.532162 
L 302.691464 58.639833 
L 305.081337 58.771409 
L 307.469774 58.926876 
L 309.856538 59.10622 
L 312.241388 59.309422 
L 314.624088 59.536461 
L 317.004398 59.787317 
L 319.38208 60.061962 
L 321.756898 60.36037 
L 324.128612 60.682511 
L 326.496987 61.028352 
L 328.861784 61.39786 
L 331.222769 61.790996 
L 333.579704 62.207723 
L 335.932354 62.647997 
L 338.280484 63.111776 
L 340.623859 63.599012 
L 342.962244 64.109658 
L 345.295406 64.643661 
L 347.623111 65.200969 
L 349.945127 65.781526 
L 352.261221 66.385273 
L 354.571163 67.012151 
L 356.87472 67.662096 
L 359.171662 68.335044 
L 361.46176 69.030928 
L 363.744786 69.749677 
L 366.020509 70.49122 
L 368.288704 71.255483 
L 370.549142 72.04239 
L 372.801599 72.851861 
L 375.045848 73.683816 
L 377.281666 74.538171 
L 379.508829 75.414841 
L 381.727113 76.313739 
L 383.936298 77.234774 
L 386.136162 78.177855 
L 388.326486 79.142887 
L 390.50705 80.129774 
L 392.677636 81.138416 
L 394.838028 82.168713 
L 396.988008 83.220563 
L 399.127363 84.293859 
L 401.255878 85.388495 
L 403.373341 86.504361 
L 405.479539 87.641346 
L 407.574262 88.799335 
L 409.6573 89.978213 
L 410.40404 90.407554 
L 411.61288 88.313783 
L 410.858597 87.880105 
L 408.754518 86.689319 
L 406.638636 85.519633 
L 404.511163 84.371164 
L 402.372312 83.244027 
L 400.222297 82.138334 
L 398.061332 81.054196 
L 395.889635 79.991722 
L 393.707421 78.951017 
L 391.51491 77.932186 
L 389.31232 76.935331 
L 387.099872 75.960552 
L 384.877787 75.007945 
L 382.646287 74.077606 
L 380.405595 73.169628 
L 378.155936 72.284103 
L 375.897534 71.421118 
L 373.630615 70.580759 
L 371.355407 69.763112 
L 369.072136 68.968257 
L 366.78103 68.196274 
L 364.482319 67.44724 
L 362.176233 66.721231 
L 359.863003 66.018318 
L 357.542859 65.338573 
L 355.216034 64.682062 
L 352.88276 64.048852 
L 350.54327 63.439007 
L 348.1978 62.852586 
L 345.846582 62.289648 
L 343.489853 61.750251 
L 341.127848 61.234448 
L 338.760802 60.74229 
L 336.388954 60.273827 
L 334.01254 59.829105 
L 331.631797 59.408169 
L 329.246965 59.011061 
L 326.85828 58.637821 
L 324.465983 58.288486 
L 322.070311 57.963092 
L 319.671506 57.661669 
L 317.269807 57.38425 
L 314.865453 57.130861 
L 312.458686 56.901528 
L 310.049746 56.696273 
L 307.638873 56.515118 
L 305.22631 56.35808 
L 302.812297 56.225176 
L 300.397076 56.116417 
L 297.980888 56.031816 
L 295.563975 55.971381 
L 293.146578 55.935117 
L 290.72894 55.923029 
z
" clip-path="url(#pf9d86f89f9)" style="fill: #000080"/>
   </g>
   <g id="patch_3">
    <path d="M 410.40404 90.407554 
L 412.470855 91.614649 
L 414.525497 92.842352 
L 416.567758 94.090539 
L 418.597436 95.359086 
L 420.614327 96.647866 
L 422.61823 97.956751 
L 424.608944 99.285608 
L 426.58627 100.634306 
L 428.55001 102.002709 
L 430.499969 103.390682 
L 432.43595 104.798083 
L 434.357761 106.224775 
L 436.265209 107.670612 
L 438.158103 109.135451 
L 440.036255 110.619146 
L 441.899476 112.121548 
L 443.74758 113.642506 
L 445.580383 115.18187 
L 447.3977 116.739484 
L 449.199351 118.315193 
L 450.985155 119.908839 
L 452.754933 121.520264 
L 454.508509 123.149305 
L 456.245707 124.7958 
L 457.966354 126.459585 
L 459.670277 128.140493 
L 461.357305 129.838356 
L 463.027272 131.553003 
L 464.680008 133.284265 
L 466.31535 135.031967 
L 467.933133 136.795934 
L 469.533196 138.575992 
L 471.115378 140.37196 
L 472.679522 142.18366 
L 474.225471 144.010911 
L 475.753071 145.85353 
L 477.262168 147.711332 
L 478.752612 149.584132 
L 480.224254 151.471743 
L 481.676947 153.373975 
L 483.110545 155.290639 
L 484.524905 157.221543 
L 485.919885 159.166494 
L 487.295347 161.125297 
L 488.651152 163.097757 
L 489.987165 165.083675 
L 491.303253 167.082855 
L 492.599283 169.095095 
L 493.875126 171.120194 
L 495.130655 173.157951 
L 496.365744 175.20816 
L 497.580269 177.270618 
L 498.774109 179.345118 
L 499.947145 181.431452 
L 501.09926 183.529412 
L 502.230337 185.638789 
L 503.340265 187.75937 
L 504.428931 189.890944 
L 505.496228 192.033298 
L 506.542048 194.186218 
L 507.566287 196.349489 
L 508.568843 198.522893 
L 509.549615 200.706214 
L 510.508504 202.899234 
L 511.445417 205.101732 
L 512.360257 207.31349 
L 513.252935 209.534285 
L 514.12336 211.763895 
L 514.971446 214.002099 
L 515.797108 216.248671 
L 516.600264 218.503387 
L 517.380833 220.766022 
L 518.138736 223.036349 
L 518.873899 225.314142 
L 519.586247 227.599172 
L 520.27571 229.891212 
L 520.942219 232.190031 
L 521.585706 234.495401 
L 522.206108 236.80709 
L 522.803362 239.124867 
L 523.377409 241.448501 
L 523.928191 243.777759 
L 524.455654 246.112408 
L 524.959744 248.452215 
L 525.440411 250.796946 
L 525.897608 253.146366 
L 526.331287 255.500241 
L 526.741407 257.858335 
L 527.127926 260.220412 
L 527.490805 262.586236 
L 527.830007 264.95557 
L 528.1455 267.328178 
L 528.437252 269.703822 
L 528.705233 272.082265 
L 528.949416 274.463269 
L 529.169778 276.846595 
L 529.366296 279.232006 
L 529.53895 281.619263 
L 529.687723 284.008127 
L 529.812601 286.398359 
L 529.91357 288.78972 
L 529.990622 291.181972 
L 530.043747 293.574874 
L 530.072941 295.968188 
L 530.078201 298.361674 
L 530.059526 300.755094 
L 530.016918 303.148206 
L 529.950382 305.540773 
L 529.859923 307.932555 
L 529.745552 310.323313 
L 529.60728 312.712808 
L 529.445119 315.1008 
L 529.259087 317.487052 
L 529.049203 319.871324 
L 528.815487 322.253378 
L 528.557962 324.632975 
L 528.276654 327.009879 
L 527.971592 329.383851 
L 527.642806 331.754653 
L 527.290329 334.122049 
L 526.914195 336.485802 
L 526.514444 338.845675 
L 526.091114 341.201433 
L 525.644248 343.55284 
L 525.17389 345.899661 
L 524.680089 348.241661 
L 524.162892 350.578606 
L 523.622352 352.910262 
L 523.058523 355.236397 
L 522.471462 357.556777 
L 521.861226 359.87117 
L 521.227877 362.179345 
L 520.571479 364.481072 
L 519.892096 366.77612 
L 519.189798 369.064259 
L 518.464653 371.345261 
L 517.716735 373.618897 
L 516.946119 375.884941 
L 516.152881 378.143165 
L 515.3371 380.393345 
L 514.498859 382.635254 
L 513.638242 384.868668 
L 512.755333 387.093365 
L 511.850222 389.309122 
L 510.922999 391.515717 
L 509.973757 393.71293 
L 509.002591 395.900541 
L 508.009598 398.07833 
L 506.994876 400.246081 
L 505.958528 402.403577 
L 504.900658 404.550601 
L 503.82137 406.68694 
L 502.720773 408.812379 
L 501.598978 410.926706 
L 500.456095 413.029709 
L 499.29224 415.121179 
L 498.107529 417.200906 
L 496.90208 419.268682 
L 495.676014 421.3243 
L 494.429453 423.367555 
L 493.162523 425.398242 
L 491.875349 427.416159 
L 490.568061 429.421103 
L 489.240789 431.412875 
L 487.893666 433.391274 
L 486.526827 435.356104 
L 485.140408 437.307167 
L 483.734549 439.244268 
L 482.309388 441.167215 
L 480.86507 443.075813 
L 479.401739 444.969874 
L 477.91954 446.849207 
L 476.418622 448.713623 
L 474.899136 450.562938 
L 473.361233 452.396966 
L 471.805066 454.215523 
L 470.230793 456.018428 
L 468.638569 457.8055 
L 467.028554 459.576561 
L 465.40091 461.331434 
L 463.755798 463.069943 
L 462.093384 464.791914 
L 460.413834 466.497174 
L 458.717315 468.185555 
L 457.003998 469.856886 
L 455.274053 471.511001 
L 453.527654 473.147733 
L 451.764975 474.766921 
L 449.986193 476.3684 
L 448.191485 477.952013 
L 446.381031 479.517599 
L 444.555012 481.065003 
L 442.71361 482.594069 
L 440.85701 484.104645 
L 438.985397 485.59658 
L 437.098959 487.069725 
L 435.197884 488.523932 
L 433.282362 489.959056 
L 431.352585 491.374953 
L 429.408746 492.771482 
L 427.451039 494.148503 
L 425.47966 495.505878 
L 423.494805 496.843472 
L 421.496675 498.161151 
L 419.485467 499.458783 
L 417.461384 500.736239 
L 415.424628 501.99339 
L 413.375403 503.230111 
L 411.313913 504.446278 
L 409.240364 505.64177 
L 407.154965 506.816467 
L 405.057923 507.970252 
L 402.949448 509.103009 
L 400.829751 510.214625 
L 398.699045 511.304989 
L 396.557541 512.373991 
L 394.405455 513.421525 
L 392.243001 514.447487 
L 390.070395 515.451773 
L 387.887856 516.434283 
L 385.695601 517.394919 
L 383.493849 518.333584 
L 381.282821 519.250186 
L 379.062737 520.144632 
L 376.83382 521.016832 
L 374.596293 521.866701 
L 372.350379 522.694151 
L 370.096303 523.499102 
L 367.834291 524.281472 
L 365.564568 525.041184 
L 363.287361 525.77816 
L 361.002899 526.492328 
L 358.711409 527.183616 
L 356.413121 527.851954 
L 354.108265 528.497277 
L 351.797071 529.11952 
L 349.47977 529.71862 
L 347.156594 530.294517 
L 344.827775 530.847154 
L 342.493546 531.376476 
L 340.154142 531.882429 
L 337.809794 532.364963 
L 335.460739 532.82403 
L 333.10721 533.259584 
L 330.749444 533.671582 
L 328.387675 534.059981 
L 326.022141 534.424744 
L 323.653077 534.765833 
L 321.280722 535.083215 
L 318.90531 535.376859 
L 316.527082 535.646733 
L 314.146273 535.892813 
L 311.763123 536.115072 
L 309.377869 536.31349 
L 306.990751 536.488045 
L 304.602006 536.63872 
L 302.211874 536.765501 
L 299.820594 536.868375 
L 297.428405 536.947331 
L 295.035545 537.002362 
L 292.642255 537.033462 
L 290.72894 537.04111 
L 290.72894 539.458788 
L 292.661582 539.451064 
L 295.079047 539.41965 
L 297.496076 539.364063 
L 299.912429 539.284309 
L 302.327864 539.180396 
L 304.742138 539.052335 
L 307.155012 538.900137 
L 309.566242 538.723819 
L 311.97559 538.523397 
L 314.382812 538.298893 
L 316.787669 538.050328 
L 319.18992 537.777727 
L 321.589325 537.481118 
L 323.985645 537.160529 
L 326.378638 536.815995 
L 328.768067 536.447547 
L 331.153691 536.055225 
L 333.535273 535.639066 
L 335.912575 535.199112 
L 338.285358 534.735408 
L 340.653386 534.248 
L 343.016421 533.736936 
L 345.374228 533.202268 
L 347.72657 532.644048 
L 350.073212 532.062334 
L 352.41392 531.457183 
L 354.74846 530.828655 
L 357.076598 530.176814 
L 359.3981 529.501724 
L 361.712737 528.803453 
L 364.020274 528.082072 
L 366.320483 527.337651 
L 368.613133 526.570266 
L 370.897994 525.779993 
L 373.174838 524.966912 
L 375.443438 524.131103 
L 377.703567 523.27265 
L 379.954998 522.391639 
L 382.197506 521.488158 
L 384.430868 520.562298 
L 386.65486 519.614151 
L 388.869259 518.643812 
L 391.073844 517.651377 
L 393.268395 516.636947 
L 395.452692 515.600622 
L 397.626517 514.542507 
L 399.789652 513.462706 
L 401.941881 512.361329 
L 404.082989 511.238485 
L 406.212761 510.094286 
L 408.330985 508.928847 
L 410.43745 507.742284 
L 412.531943 506.534716 
L 414.614256 505.306265 
L 416.684181 504.057051 
L 418.74151 502.787202 
L 420.786038 501.496843 
L 422.817561 500.186103 
L 424.835875 498.855114 
L 426.840778 497.504009 
L 428.83207 496.132923 
L 430.809552 494.741993 
L 432.773026 493.331357 
L 434.722296 491.901158 
L 436.657166 490.451538 
L 438.577444 488.982642 
L 440.482937 487.494617 
L 442.373455 485.987612 
L 444.248809 484.461778 
L 446.10881 482.917266 
L 447.953274 481.354232 
L 449.782015 479.772832 
L 451.594852 478.173224 
L 453.391602 476.555567 
L 455.172085 474.920025 
L 456.936125 473.266759 
L 458.683544 471.595936 
L 460.414167 469.907723 
L 462.127823 468.202288 
L 463.824338 466.479802 
L 465.503544 464.740438 
L 467.165273 462.984369 
L 468.809358 461.21177 
L 470.435636 459.42282 
L 472.043943 457.617696 
L 473.634118 455.79658 
L 475.206003 453.959653 
L 476.759441 452.1071 
L 478.294276 450.239105 
L 479.810354 448.355856 
L 481.307525 446.45754 
L 482.785637 444.544348 
L 484.244544 442.61647 
L 485.6841 440.6741 
L 487.104161 438.717432 
L 488.504584 436.746661 
L 489.885229 434.761985 
L 491.245959 432.763602 
L 492.586638 430.751711 
L 493.907131 428.726515 
L 495.207307 426.688215 
L 496.487034 424.637016 
L 497.746186 422.573122 
L 498.984637 420.49674 
L 500.202262 418.408078 
L 501.39894 416.307343 
L 502.574551 414.194748 
L 503.728978 412.070502 
L 504.862105 409.934818 
L 505.973819 407.78791 
L 507.064008 405.629992 
L 508.132565 403.461281 
L 509.179381 401.281992 
L 510.204352 399.092345 
L 511.207375 396.892557 
L 512.188352 394.682849 
L 513.147182 392.463443 
L 514.083771 390.234559 
L 514.998024 387.99642 
L 515.889851 385.749252 
L 516.759162 383.493277 
L 517.60587 381.228723 
L 518.42989 378.955814 
L 519.231141 376.67478 
L 520.009541 374.385846 
L 520.765014 372.089244 
L 521.497483 369.785202 
L 522.206876 367.47395 
L 522.893121 365.15572 
L 523.556149 362.830744 
L 524.195896 360.499253 
L 524.812295 358.161482 
L 525.405287 355.817664 
L 525.974811 353.468034 
L 526.520811 351.112825 
L 527.043232 348.752275 
L 527.542021 346.386618 
L 528.01713 344.016092 
L 528.468509 341.640934 
L 528.896115 339.26138 
L 529.299905 336.877669 
L 529.679838 334.49004 
L 530.035875 332.098731 
L 530.367983 329.703981 
L 530.676126 327.30603 
L 530.960275 324.905118 
L 531.220401 322.501484 
L 531.456478 320.095369 
L 531.668483 317.687013 
L 531.856394 315.276658 
L 532.020192 312.864544 
L 532.159861 310.450913 
L 532.275388 308.036006 
L 532.36676 305.620065 
L 532.433968 303.203331 
L 532.477007 300.786045 
L 532.49587 298.36845 
L 532.490557 295.950787 
L 532.461068 293.533298 
L 532.407406 291.116225 
L 532.329577 288.699809 
L 532.227587 286.284293 
L 532.101448 283.869917 
L 531.951172 281.456923 
L 531.776774 279.045553 
L 531.578271 276.636047 
L 531.355684 274.228646 
L 531.109034 271.823592 
L 530.838346 269.421124 
L 530.543647 267.021484 
L 530.224968 264.62491 
L 529.882339 262.231643 
L 529.515794 259.841922 
L 529.125371 257.455986 
L 528.711109 255.074073 
L 528.273049 252.696422 
L 527.811234 250.32327 
L 527.325712 247.954855 
L 526.81653 245.591413 
L 526.283739 243.233182 
L 525.727394 240.880396 
L 525.147548 238.533291 
L 524.544261 236.192102 
L 523.917592 233.857062 
L 523.267605 231.528406 
L 522.594364 229.206367 
L 521.897937 226.891175 
L 521.178393 224.583064 
L 520.435805 222.282263 
L 519.670246 219.989003 
L 518.881793 217.703513 
L 518.070524 215.426022 
L 517.236522 213.156757 
L 516.379869 210.895946 
L 515.500652 208.643814 
L 514.598957 206.400586 
L 513.674876 204.166488 
L 512.7285 201.941742 
L 511.759924 199.726571 
L 510.769246 197.521196 
L 509.756564 195.325838 
L 508.721979 193.140716 
L 507.665595 190.96605 
L 506.587517 188.802056 
L 505.487854 186.64895 
L 504.366715 184.506949 
L 503.224212 182.376266 
L 502.06046 180.257114 
L 500.875576 178.149706 
L 499.669676 176.054252 
L 498.442883 173.970961 
L 497.195319 171.900042 
L 495.927108 169.841702 
L 494.638377 167.796147 
L 493.329256 165.763581 
L 491.999875 163.744208 
L 490.650366 161.73823 
L 489.280866 159.745846 
L 487.891511 157.767257 
L 486.48244 155.802661 
L 485.053793 153.852253 
L 483.605715 151.916228 
L 482.138348 149.994781 
L 480.651841 148.088104 
L 479.146342 146.196387 
L 477.622001 144.319819 
L 476.078972 142.458588 
L 474.517407 140.61288 
L 472.937463 138.78288 
L 471.339299 136.96877 
L 469.723074 135.170733 
L 468.08895 133.388947 
L 466.43709 131.623592 
L 464.767659 129.874843 
L 463.080824 128.142875 
L 461.376755 126.427862 
L 459.65562 124.729976 
L 457.917594 123.049385 
L 456.162848 121.386259 
L 454.391559 119.740762 
L 452.603905 118.113061 
L 450.800062 116.503317 
L 448.980213 114.911692 
L 447.144539 113.338344 
L 445.293223 111.783432 
L 443.426451 110.24711 
L 441.54441 108.729532 
L 439.647287 107.230851 
L 437.735272 105.751215 
L 435.808557 104.290773 
L 433.867334 102.849671 
L 431.911797 101.428053 
L 429.942142 100.026061 
L 427.958566 98.643835 
L 425.961267 97.281514 
L 423.950445 95.939234 
L 421.926301 94.617128 
L 419.889037 93.31533 
L 417.838857 92.03397 
L 415.775967 90.773174 
L 413.700572 89.533071 
L 411.61288 88.313783 
z
" clip-path="url(#pf9d86f89f9)" style="fill: #0080ff"/>
   </g>
   <g id="patch_4">
    <path d="M 290.72894 537.04111 
L 288.335477 537.029142 
L 285.942255 536.993241 
L 283.549511 536.93341 
L 281.157484 536.849655 
L 278.766415 536.741984 
L 276.376543 536.610408 
L 273.988105 536.454941 
L 271.601341 536.275597 
L 269.216491 536.072395 
L 266.833791 535.845356 
L 264.453481 535.5945 
L 262.075799 535.319855 
L 259.700981 535.021447 
L 257.329267 534.699306 
L 254.960892 534.353465 
L 252.596095 533.983957 
L 250.23511 533.590821 
L 247.878175 533.174094 
L 245.525525 532.73382 
L 243.177395 532.270041 
L 240.834021 531.782805 
L 238.495635 531.272159 
L 236.162473 530.738156 
L 233.834768 530.180848 
L 231.512752 529.600292 
L 229.196658 528.996544 
L 226.886717 528.369666 
L 224.583159 527.719721 
L 222.286217 527.046773 
L 219.996119 526.350889 
L 217.713094 525.63214 
L 215.43737 524.890597 
L 213.169176 524.126334 
L 210.908737 523.339427 
L 208.65628 522.529956 
L 206.412031 521.698001 
L 204.176213 520.843646 
L 201.949051 519.966976 
L 199.730766 519.068078 
L 197.521581 518.147043 
L 195.321717 517.203962 
L 193.131393 516.23893 
L 190.950829 515.252044 
L 188.780243 514.243401 
L 186.619851 513.213104 
L 184.469871 512.161254 
L 182.330516 511.087958 
L 180.202001 509.993322 
L 178.084539 508.877456 
L 175.97834 507.740471 
L 173.883617 506.582482 
L 171.800579 505.403604 
L 171.053839 504.974263 
L 169.845 507.068034 
L 170.599282 507.501712 
L 172.703362 508.692498 
L 174.819244 509.862184 
L 176.946716 511.010653 
L 179.085567 512.13779 
L 181.235583 513.243483 
L 183.396547 514.327621 
L 185.568245 515.390095 
L 187.750458 516.4308 
L 189.942969 517.449631 
L 192.145559 518.446486 
L 194.358007 519.421265 
L 196.580093 520.373872 
L 198.811592 521.304211 
L 201.052284 522.212189 
L 203.301943 523.097714 
L 205.560345 523.960699 
L 207.827264 524.801058 
L 210.102472 525.618705 
L 212.385744 526.41356 
L 214.676849 527.185543 
L 216.97556 527.934577 
L 219.281646 528.660586 
L 221.594876 529.363499 
L 223.91502 530.043244 
L 226.241846 530.699755 
L 228.57512 531.332965 
L 230.914609 531.942811 
L 233.26008 532.529231 
L 235.611297 533.092169 
L 237.968026 533.631566 
L 240.330032 534.147369 
L 242.697077 534.639527 
L 245.068925 535.107991 
L 247.445339 535.552712 
L 249.826082 535.973648 
L 252.210915 536.370756 
L 254.599599 536.743996 
L 256.991897 537.093331 
L 259.387568 537.418725 
L 261.786373 537.720148 
L 264.188073 537.997567 
L 266.592426 538.250956 
L 268.999193 538.480289 
L 271.408133 538.685544 
L 273.819006 538.866699 
L 276.231569 539.023737 
L 278.645582 539.156642 
L 281.060803 539.2654 
L 283.476991 539.350001 
L 285.893904 539.410436 
L 288.311301 539.4467 
L 290.72894 539.458788 
z
" clip-path="url(#pf9d86f89f9)" style="fill: #7dff7a"/>
   </g>
   <g id="patch_5">
    <path d="M 171.053839 504.974263 
L 168.987024 503.767168 
L 166.932383 502.539465 
L 164.890121 501.291278 
L 162.860443 500.022731 
L 160.843552 498.733951 
L 158.839649 497.425066 
L 156.848935 496.096209 
L 154.871609 494.747511 
L 152.907869 493.379108 
L 150.957911 491.991136 
L 149.021929 490.583734 
L 147.100118 489.157043 
L 145.19267 487.711205 
L 143.299776 486.246366 
L 141.421624 484.762671 
L 139.558403 483.260269 
L 137.710299 481.739311 
L 135.877496 480.199947 
L 134.060179 478.642333 
L 132.258528 477.066624 
L 130.472724 475.472978 
L 128.702946 473.861553 
L 126.94937 472.232512 
L 125.212172 470.586017 
L 123.491525 468.922232 
L 121.787603 467.241324 
L 120.100574 465.543461 
L 118.430607 463.828814 
L 116.777871 462.097552 
L 115.142529 460.34985 
L 113.524746 458.585883 
L 111.924684 456.805825 
L 110.342501 455.009857 
L 108.778357 453.198157 
L 107.232408 451.370906 
L 105.704808 449.528287 
L 104.195711 447.670485 
L 102.705267 445.797685 
L 101.233625 443.910074 
L 99.780932 442.007842 
L 98.347334 440.091178 
L 96.932974 438.160274 
L 95.537994 436.215323 
L 94.162532 434.25652 
L 92.806727 432.28406 
L 91.470714 430.298142 
L 90.154627 428.298962 
L 88.858596 426.286722 
L 87.582753 424.261623 
L 86.327224 422.223866 
L 85.092135 420.173657 
L 83.87761 418.111199 
L 83.445585 417.366009 
L 81.351814 418.574848 
L 81.788203 419.327565 
L 83.014996 421.410856 
L 84.262561 423.481775 
L 85.530771 425.540115 
L 86.819502 427.58567 
L 88.128623 429.618236 
L 89.458005 431.637609 
L 90.807513 433.643587 
L 92.177013 435.635971 
L 93.566368 437.61456 
L 94.975439 439.579156 
L 96.404086 441.529564 
L 97.852164 443.465589 
L 99.319531 445.387036 
L 100.806038 447.293713 
L 102.311537 449.18543 
L 103.835878 451.061998 
L 105.378908 452.923229 
L 106.940472 454.768937 
L 108.520416 456.598937 
L 110.11858 458.413047 
L 111.734805 460.211084 
L 113.368929 461.99287 
L 115.020789 463.758225 
L 116.69022 465.506974 
L 118.377055 467.238942 
L 120.081124 468.953955 
L 121.802259 470.651841 
L 123.540285 472.332432 
L 125.295031 473.995559 
L 127.06632 475.641055 
L 128.853975 477.268756 
L 130.657817 478.8785 
L 132.477666 480.470125 
L 134.31334 482.043473 
L 136.164656 483.598385 
L 138.031428 485.134707 
L 139.913469 486.652285 
L 141.810592 488.150966 
L 143.722607 489.630602 
L 145.649322 491.091044 
L 147.590545 492.532146 
L 149.546082 493.953764 
L 151.515737 495.355756 
L 153.499313 496.737982 
L 155.496612 498.100303 
L 157.507434 499.442583 
L 159.531578 500.764689 
L 161.568842 502.066487 
L 163.619022 503.347847 
L 165.681912 504.608643 
L 167.757307 505.848746 
L 169.845 507.068034 
z
" clip-path="url(#pf9d86f89f9)" style="fill: #ff9400"/>
   </g>
   <g id="patch_6">
    <path d="M 83.445585 417.366009 
L 82.259218 415.287226 
L 81.093698 413.196684 
L 79.949141 411.094591 
L 78.825662 408.981158 
L 77.723373 406.856596 
L 76.642385 404.721118 
L 75.582805 402.574937 
L 74.544739 400.418267 
L 73.528292 398.251325 
L 72.533564 396.074327 
L 71.560656 393.88749 
L 70.609665 391.691034 
L 69.680685 389.485178 
L 68.77381 387.270143 
L 67.88913 385.046149 
L 67.026734 382.813421 
L 66.186708 380.57218 
L 65.369136 378.322651 
L 64.5741 376.065059 
L 63.801679 373.799629 
L 63.051951 371.526589 
L 62.32499 369.246166 
L 61.62087 366.958586 
L 60.93966 364.664081 
L 60.281429 362.362877 
L 59.646242 360.055207 
L 59.034164 357.7413 
L 58.445254 355.421389 
L 57.879573 353.095704 
L 57.337177 350.764479 
L 56.81812 348.427947 
L 56.322453 346.086341 
L 55.850227 343.739895 
L 55.401489 341.388845 
L 54.976283 339.033425 
L 54.574652 336.67387 
L 54.196637 334.310418 
L 53.842274 331.943303 
L 53.5116 329.572763 
L 53.204648 327.199035 
L 52.921447 324.822357 
L 52.662028 322.442965 
L 52.426415 320.061098 
L 52.214631 317.676994 
L 52.0267 315.290891 
L 51.862638 312.903028 
L 51.722462 310.513645 
L 51.606187 308.122979 
L 51.513824 305.731269 
L 51.445383 303.338756 
L 51.400869 300.945678 
L 51.380288 298.552274 
L 51.383642 296.158785 
L 51.41093 293.765448 
L 51.46215 291.372504 
L 51.537296 288.980192 
L 51.636362 286.588751 
L 51.759336 284.19842 
L 51.906207 281.809439 
L 52.07696 279.422045 
L 52.271578 277.036479 
L 52.490042 274.652977 
L 52.732329 272.27178 
L 52.998416 269.893125 
L 53.288275 267.517249 
L 53.601879 265.14439 
L 53.939195 262.774787 
L 54.30019 260.408674 
L 54.684827 258.04629 
L 55.093069 255.687871 
L 55.524874 253.333652 
L 55.980199 250.983868 
L 56.458999 248.638755 
L 56.961226 246.298547 
L 57.486829 243.963479 
L 58.035757 241.633783 
L 58.607953 239.309693 
L 59.203361 236.99144 
L 59.821922 234.679258 
L 60.463573 232.373377 
L 61.128251 230.074028 
L 61.815888 227.78144 
L 62.526417 225.495843 
L 63.259766 223.217465 
L 64.015861 220.946535 
L 64.794628 218.683279 
L 65.595987 216.427924 
L 66.41986 214.180695 
L 67.266164 211.941818 
L 68.134813 209.711514 
L 69.025722 207.490009 
L 69.938801 205.277524 
L 70.873959 203.07428 
L 71.831102 200.880498 
L 72.810135 198.696396 
L 73.81096 196.522194 
L 74.833476 194.358109 
L 75.877581 192.204357 
L 76.943172 190.061153 
L 78.03014 187.928713 
L 79.138379 185.807248 
L 80.267776 183.696972 
L 81.41822 181.598095 
L 82.589594 179.510828 
L 83.781782 177.435378 
L 84.994664 175.371953 
L 86.22812 173.320761 
L 87.482026 171.282005 
L 88.756256 169.25589 
L 90.050683 167.242619 
L 91.365178 165.242392 
L 92.69961 163.25541 
L 94.053844 161.281871 
L 95.427745 159.321974 
L 96.821176 157.375913 
L 98.233998 155.443883 
L 99.666069 153.526078 
L 101.117247 151.622689 
L 102.587385 149.733907 
L 104.076337 147.859921 
L 105.583955 146.000917 
L 107.110087 144.157083 
L 108.65458 142.328602 
L 110.217281 140.515656 
L 111.798033 138.718429 
L 113.396678 136.937098 
L 115.013055 135.171843 
L 116.647005 133.422839 
L 118.298362 131.690262 
L 119.966962 129.974285 
L 121.652639 128.275079 
L 123.355222 126.592815 
L 125.074543 124.927661 
L 126.81043 123.279782 
L 128.562708 121.649345 
L 130.331202 120.036512 
L 132.115737 118.441444 
L 133.916132 116.864301 
L 135.732208 115.30524 
L 137.563784 113.764418 
L 139.410677 112.241988 
L 141.272701 110.738103 
L 143.149671 109.252913 
L 145.041398 107.786567 
L 146.947694 106.339211 
L 148.868368 104.91099 
L 150.803228 103.502047 
L 152.752081 102.112522 
L 154.714731 100.742555 
L 156.690982 99.392283 
L 158.680637 98.061841 
L 160.683497 96.751361 
L 162.699361 95.460975 
L 164.728028 94.190812 
L 166.769295 92.940999 
L 168.822958 91.711661 
L 170.888812 90.50292 
L 172.966649 89.314898 
L 175.056262 88.147714 
L 177.157443 87.001483 
L 179.269981 85.876322 
L 181.393664 84.772341 
L 183.528281 83.689652 
L 185.673618 82.628364 
L 187.82946 81.588581 
L 189.995592 80.570408 
L 192.171798 79.573948 
L 194.357859 78.599298 
L 196.553557 77.646558 
L 198.758673 76.715822 
L 200.972985 75.807184 
L 203.196273 74.920733 
L 205.428314 74.056559 
L 207.668886 73.214749 
L 209.917763 72.395386 
L 212.174721 71.598552 
L 214.439535 70.824328 
L 216.711977 70.07279 
L 218.991821 69.344013 
L 221.278839 68.638071 
L 223.572801 67.955034 
L 225.87348 67.294971 
L 228.180643 66.657947 
L 230.494062 66.044026 
L 232.813504 65.453269 
L 235.138737 64.885736 
L 237.46953 64.341484 
L 239.805648 63.820566 
L 242.146859 63.323035 
L 244.492927 62.848941 
L 246.84362 62.39833 
L 249.1987 61.971249 
L 251.557934 61.567739 
L 253.921085 61.187842 
L 256.287917 60.831594 
L 258.658192 60.499033 
L 261.031675 60.19019 
L 263.408128 59.905097 
L 265.787312 59.643783 
L 268.168991 59.406273 
L 270.552925 59.192592 
L 272.938878 59.00276 
L 275.326609 58.836796 
L 277.71588 58.694718 
L 280.106453 58.576539 
L 282.498088 58.482272 
L 284.890546 58.411925 
L 287.283588 58.365506 
L 289.676974 58.343019 
L 290.72894 58.340707 
L 290.72894 55.923029 
L 289.666348 55.925364 
L 287.248786 55.948078 
L 284.831572 55.994966 
L 282.414948 56.066023 
L 279.999155 56.161243 
L 277.584435 56.280615 
L 275.17103 56.424128 
L 272.75918 56.591768 
L 270.349127 56.783518 
L 267.941113 56.999358 
L 265.535377 57.239267 
L 263.13216 57.50322 
L 260.731703 57.791193 
L 258.334246 58.103155 
L 255.940028 58.439076 
L 253.549289 58.798922 
L 251.162268 59.182657 
L 248.779203 59.590242 
L 246.400334 60.021637 
L 244.025897 60.476799 
L 241.65613 60.955683 
L 239.291271 61.458239 
L 236.931556 61.984419 
L 234.57722 62.534169 
L 232.228499 63.107435 
L 229.885629 63.704158 
L 227.548842 64.32428 
L 225.218374 64.967739 
L 222.894457 65.63447 
L 220.577323 66.324406 
L 218.267204 67.037479 
L 215.964331 67.773617 
L 213.668934 68.532746 
L 211.381244 69.314791 
L 209.101488 70.119674 
L 206.829895 70.947313 
L 204.566692 71.797627 
L 202.312105 72.670529 
L 200.066359 73.565934 
L 197.82968 74.483751 
L 195.602291 75.423888 
L 193.384414 76.386252 
L 191.176271 77.370746 
L 188.978084 78.377272 
L 186.790072 79.405729 
L 184.612453 80.456015 
L 182.445446 81.528024 
L 180.289267 82.621649 
L 178.144133 83.73678 
L 176.010256 84.873307 
L 173.887852 86.031116 
L 171.777131 87.21009 
L 169.678305 88.410112 
L 167.591585 89.631062 
L 165.517178 90.872818 
L 163.455292 92.135256 
L 161.406133 93.418249 
L 159.369907 94.721669 
L 157.346816 96.045386 
L 155.337064 97.389267 
L 153.34085 98.753178 
L 151.358375 100.136983 
L 149.389837 101.540543 
L 147.435433 102.963718 
L 145.495358 104.406365 
L 143.569807 105.868341 
L 141.658971 107.349499 
L 139.763042 108.849691 
L 137.88221 110.368766 
L 136.016662 111.906574 
L 134.166585 113.46296 
L 132.332164 115.037769 
L 130.513583 116.630843 
L 128.711023 118.242023 
L 126.924665 119.871147 
L 125.154687 121.518054 
L 123.401267 123.182577 
L 121.664579 124.864552 
L 119.944797 126.563808 
L 118.242094 128.280177 
L 116.556639 130.013488 
L 114.888601 131.763565 
L 113.238147 133.530236 
L 111.605443 135.313322 
L 109.99065 137.112646 
L 108.393931 138.928028 
L 106.815445 140.759285 
L 105.255351 142.606236 
L 103.713803 144.468695 
L 102.190958 146.346477 
L 100.686965 148.239392 
L 99.201977 150.147253 
L 97.736141 152.069868 
L 96.289605 154.007044 
L 94.862512 155.958589 
L 93.455006 157.924308 
L 92.067226 159.904002 
L 90.699313 161.897476 
L 89.351403 163.904528 
L 88.02363 165.924959 
L 86.716128 167.958567 
L 85.429027 170.005148 
L 84.162455 172.064497 
L 82.91654 174.136408 
L 81.691407 176.220675 
L 80.487176 178.317089 
L 79.30397 180.425441 
L 78.141906 182.545518 
L 77.001101 184.67711 
L 75.881668 186.820004 
L 74.783719 188.973984 
L 73.707365 191.138836 
L 72.652713 193.314343 
L 71.619869 195.500288 
L 70.608935 197.696452 
L 69.620013 199.902615 
L 68.653202 202.118557 
L 67.708598 204.344055 
L 66.786296 206.578889 
L 65.886388 208.822834 
L 65.008964 211.075665 
L 64.154112 213.337158 
L 63.321917 215.607086 
L 62.512463 217.885223 
L 61.72583 220.17134 
L 60.962097 222.465208 
L 60.221341 224.7666 
L 59.503635 227.075284 
L 58.809052 229.391029 
L 58.137661 231.713604 
L 57.489528 234.042777 
L 56.864719 236.378315 
L 56.263297 238.719983 
L 55.68532 241.067549 
L 55.130848 243.420777 
L 54.599936 245.779433 
L 54.092636 248.143279 
L 53.609 250.51208 
L 53.149075 252.885599 
L 52.712908 255.263598 
L 52.300543 257.64584 
L 51.91202 260.032086 
L 51.547379 262.422099 
L 51.206656 264.815638 
L 50.889885 267.212464 
L 50.597097 269.612339 
L 50.328323 272.015021 
L 50.083588 274.420271 
L 49.862918 276.827848 
L 49.666334 279.237511 
L 49.493856 281.64902 
L 49.345501 284.062133 
L 49.221285 286.476608 
L 49.121219 288.892205 
L 49.045314 291.308682 
L 48.993577 293.725797 
L 48.966013 296.143309 
L 48.962625 298.560975 
L 48.983414 300.978554 
L 49.028377 303.395805 
L 49.09751 305.812485 
L 49.190806 308.228353 
L 49.308255 310.643167 
L 49.449847 313.056686 
L 49.615566 315.468669 
L 49.805396 317.878873 
L 50.019318 320.287059 
L 50.257312 322.692985 
L 50.519352 325.096412 
L 50.805412 327.497097 
L 51.115465 329.894802 
L 51.44948 332.289287 
L 51.807421 334.680312 
L 52.189255 337.067637 
L 52.594943 339.451026 
L 53.024444 341.830238 
L 53.477715 344.205036 
L 53.954711 346.575183 
L 54.455384 348.940442 
L 54.979684 351.300576 
L 55.527559 353.655349 
L 56.098955 356.004525 
L 56.693812 358.34787 
L 57.312074 360.68515 
L 57.953676 363.01613 
L 58.618556 365.340577 
L 59.306647 367.65826 
L 60.01788 369.968946 
L 60.752184 372.272404 
L 61.509485 374.568404 
L 62.289708 376.856717 
L 63.092775 379.137113 
L 63.918605 381.409364 
L 64.767116 383.673244 
L 65.638223 385.928525 
L 66.531839 388.174983 
L 67.447874 390.412393 
L 68.386238 392.64053 
L 69.346835 394.859173 
L 70.329571 397.068098 
L 71.334346 399.267087 
L 72.36106 401.455917 
L 73.409611 403.634371 
L 74.479894 405.802231 
L 75.571802 407.95928 
L 76.685225 410.105302 
L 77.820052 412.240083 
L 78.97617 414.363409 
L 80.153463 416.475068 
L 81.351814 418.574848 
z
" clip-path="url(#pf9d86f89f9)" style="fill: #800000"/>
   </g>
   <g id="PatchCollection_1">
    <path d="M 410.40404 90.407554 
L 410.40404 90.407554 
L 412.470855 91.614649 
L 414.525497 92.842352 
L 416.567758 94.090539 
L 418.597436 95.359086 
L 420.614327 96.647866 
L 422.61823 97.956751 
L 424.608944 99.285608 
L 426.58627 100.634306 
L 428.55001 102.002709 
L 430.499969 103.390682 
L 432.43595 104.798083 
L 434.357761 106.224775 
L 436.265209 107.670612 
L 438.158103 109.135451 
L 440.036255 110.619146 
L 441.899476 112.121548 
L 443.74758 113.642506 
L 445.580383 115.18187 
L 447.3977 116.739484 
L 449.199351 118.315193 
L 450.985155 119.908839 
L 452.754933 121.520264 
L 454.508509 123.149305 
L 456.245707 124.7958 
L 457.966354 126.459585 
L 459.670277 128.140493 
L 461.357305 129.838356 
L 463.027272 131.553003 
L 464.680008 133.284265 
L 466.31535 135.031967 
L 467.933133 136.795934 
L 469.533196 138.575992 
L 471.115378 140.37196 
L 472.679522 142.18366 
L 474.225471 144.010911 
L 475.753071 145.85353 
L 477.262168 147.711332 
L 478.752612 149.584132 
L 480.224254 151.471743 
L 481.676947 153.373975 
L 483.110545 155.290639 
L 484.524905 157.221543 
L 485.919885 159.166494 
L 487.295347 161.125297 
L 488.651152 163.097757 
L 489.987165 165.083675 
L 491.303253 167.082855 
L 492.599283 169.095095 
L 493.875126 171.120194 
L 495.130655 173.157951 
L 496.365744 175.20816 
L 497.580269 177.270618 
L 498.774109 179.345118 
L 499.947145 181.431452 
L 501.09926 183.529412 
L 502.230337 185.638789 
L 503.340265 187.75937 
L 504.428931 189.890944 
L 505.496228 192.033298 
L 506.542048 194.186218 
L 507.566287 196.349489 
L 508.568843 198.522893 
L 509.549615 200.706214 
L 510.508504 202.899234 
L 511.445417 205.101732 
L 512.360257 207.31349 
L 513.252935 209.534285 
L 514.12336 211.763895 
L 514.971446 214.002099 
L 515.797108 216.248671 
L 516.600264 218.503387 
L 517.380833 220.766022 
L 518.138736 223.036349 
L 518.873899 225.314142 
L 519.586247 227.599172 
L 520.27571 229.891212 
L 520.942219 232.190031 
L 521.585706 234.495401 
L 522.206108 236.80709 
L 522.803362 239.124867 
L 523.377409 241.448501 
L 523.928191 243.777759 
L 524.455654 246.112408 
L 524.959744 248.452215 
L 525.440411 250.796946 
L 525.897608 253.146366 
L 526.331287 255.500241 
L 526.741407 257.858335 
L 527.127926 260.220412 
L 527.490805 262.586236 
L 527.830007 264.95557 
L 528.1455 267.328178 
L 528.437252 269.703822 
L 528.705233 272.082265 
L 528.949416 274.463269 
L 529.169778 276.846595 
L 529.366296 279.232006 
L 529.53895 281.619263 
L 529.687723 284.008127 
L 529.812601 286.398359 
L 529.91357 288.78972 
L 529.990622 291.181972 
L 530.043747 293.574874 
L 530.072941 295.968188 
L 530.078201 298.361674 
L 530.059526 300.755094 
L 530.016918 303.148206 
L 529.950382 305.540773 
L 529.859923 307.932555 
L 529.745552 310.323313 
L 529.60728 312.712808 
L 529.445119 315.1008 
L 529.259087 317.487052 
L 529.049203 319.871324 
L 528.815487 322.253378 
L 528.557962 324.632975 
L 528.276654 327.009879 
L 527.971592 329.383851 
L 527.642806 331.754653 
L 527.290329 334.122049 
L 526.914195 336.485802 
L 526.514444 338.845675 
L 526.091114 341.201433 
L 525.644248 343.55284 
L 525.17389 345.899661 
L 524.680089 348.241661 
L 524.162892 350.578606 
L 523.622352 352.910262 
L 523.058523 355.236397 
L 522.471462 357.556777 
L 521.861226 359.87117 
L 521.227877 362.179345 
L 520.571479 364.481072 
L 519.892096 366.77612 
L 519.189798 369.064259 
L 518.464653 371.345261 
L 517.716735 373.618897 
L 516.946119 375.884941 
L 516.152881 378.143165 
L 515.3371 380.393345 
L 514.498859 382.635254 
L 513.638242 384.868668 
L 512.755333 387.093365 
L 511.850222 389.309122 
L 510.922999 391.515717 
L 509.973757 393.71293 
L 509.002591 395.900541 
L 508.009598 398.07833 
L 506.994876 400.246081 
L 505.958528 402.403577 
L 504.900658 404.550601 
L 503.82137 406.68694 
L 502.720773 408.812379 
L 501.598978 410.926706 
L 500.456095 413.029709 
L 499.29224 415.121179 
L 498.107529 417.200906 
L 498.012294 417.366009 
L 498.012294 417.366009 
Q 290.72894 297.690909 83.445585 417.366009 
L 83.445585 417.366009 
L 83.445585 417.366009 
L 82.259218 415.287226 
L 81.093698 413.196684 
L 79.949141 411.094591 
L 78.825662 408.981158 
L 77.723373 406.856596 
L 76.642385 404.721118 
L 75.582805 402.574937 
L 74.544739 400.418267 
L 73.528292 398.251325 
L 72.533564 396.074327 
L 71.560656 393.88749 
L 70.609665 391.691034 
L 69.680685 389.485178 
L 68.77381 387.270143 
L 67.88913 385.046149 
L 67.026734 382.813421 
L 66.186708 380.57218 
L 65.369136 378.322651 
L 64.5741 376.065059 
L 63.801679 373.799629 
L 63.051951 371.526589 
L 62.32499 369.246166 
L 61.62087 366.958586 
L 60.93966 364.664081 
L 60.281429 362.362877 
L 59.646242 360.055207 
L 59.034164 357.7413 
L 58.445254 355.421389 
L 57.879573 353.095704 
L 57.337177 350.764479 
L 56.81812 348.427947 
L 56.322453 346.086341 
L 55.850227 343.739895 
L 55.401489 341.388845 
L 54.976283 339.033425 
L 54.574652 336.67387 
L 54.196637 334.310418 
L 53.842274 331.943303 
L 53.5116 329.572763 
L 53.204648 327.199035 
L 52.921447 324.822357 
L 52.662028 322.442965 
L 52.426415 320.061098 
L 52.214631 317.676994 
L 52.0267 315.290891 
L 51.862638 312.903028 
L 51.722462 310.513645 
L 51.606187 308.122979 
L 51.513824 305.731269 
L 51.445383 303.338756 
L 51.400869 300.945678 
L 51.380288 298.552274 
L 51.383642 296.158785 
L 51.41093 293.765448 
L 51.46215 291.372504 
L 51.537296 288.980192 
L 51.636362 286.588751 
L 51.759336 284.19842 
L 51.906207 281.809439 
L 52.07696 279.422045 
L 52.271578 277.036479 
L 52.490042 274.652977 
L 52.732329 272.27178 
L 52.998416 269.893125 
L 53.288275 267.517249 
L 53.601879 265.14439 
L 53.939195 262.774787 
L 54.30019 260.408674 
L 54.684827 258.04629 
L 55.093069 255.687871 
L 55.524874 253.333652 
L 55.980199 250.983868 
L 56.458999 248.638755 
L 56.961226 246.298547 
L 57.486829 243.963479 
L 58.035757 241.633783 
L 58.607953 239.309693 
L 59.203361 236.99144 
L 59.821922 234.679258 
L 60.463573 232.373377 
L 61.128251 230.074028 
L 61.815888 227.78144 
L 62.526417 225.495843 
L 63.259766 223.217465 
L 64.015861 220.946535 
L 64.794628 218.683279 
L 65.595987 216.427924 
L 66.41986 214.180695 
L 67.266164 211.941818 
L 68.134813 209.711514 
L 69.025722 207.490009 
L 69.938801 205.277524 
L 70.873959 203.07428 
L 71.831102 200.880498 
L 72.810135 198.696396 
L 73.81096 196.522194 
L 74.833476 194.358109 
L 75.877581 192.204357 
L 76.943172 190.061153 
L 78.03014 187.928713 
L 79.138379 185.807248 
L 80.267776 183.696972 
L 81.41822 181.598095 
L 82.589594 179.510828 
L 83.781782 177.435378 
L 84.994664 175.371953 
L 86.22812 173.320761 
L 87.482026 171.282005 
L 88.756256 169.25589 
L 90.050683 167.242619 
L 91.365178 165.242392 
L 92.69961 163.25541 
L 94.053844 161.281871 
L 95.427745 159.321974 
L 96.821176 157.375913 
L 98.233998 155.443883 
L 99.666069 153.526078 
L 101.117247 151.622689 
L 102.587385 149.733907 
L 104.076337 147.859921 
L 105.583955 146.000917 
L 107.110087 144.157083 
L 108.65458 142.328602 
L 110.217281 140.515656 
L 111.798033 138.718429 
L 113.396678 136.937098 
L 115.013055 135.171843 
L 116.647005 133.422839 
L 118.298362 131.690262 
L 119.966962 129.974285 
L 121.652639 128.275079 
L 123.355222 126.592815 
L 125.074543 124.927661 
L 126.81043 123.279782 
L 128.562708 121.649345 
L 130.331202 120.036512 
L 132.115737 118.441444 
L 133.916132 116.864301 
L 135.732208 115.30524 
L 137.563784 113.764418 
L 139.410677 112.241988 
L 141.272701 110.738103 
L 143.149671 109.252913 
L 145.041398 107.786567 
L 146.947694 106.339211 
L 148.868368 104.91099 
L 150.803228 103.502047 
L 152.752081 102.112522 
L 154.714731 100.742555 
L 156.690982 99.392283 
L 158.680637 98.061841 
L 160.683497 96.751361 
L 162.699361 95.460975 
L 164.728028 94.190812 
L 166.769295 92.940999 
L 168.822958 91.711661 
L 170.888812 90.50292 
L 171.053839 90.407554 
L 171.053839 90.407554 
Q 290.72894 297.690909 410.40404 90.407554 
z
" clip-path="url(#pf9d86f89f9)" style="fill: #0080ff; fill-opacity: 0.5; stroke: #808080; stroke-opacity: 0.5; stroke-width: 0.1"/>
    <path d="M 498.012294 417.366009 
L 498.012294 417.366009 
L 496.805199 419.432824 
L 495.577496 421.487466 
L 494.329309 423.529727 
L 493.060762 425.559405 
L 491.771982 427.576296 
L 490.463097 429.580199 
L 489.13424 431.570913 
L 487.785542 433.548239 
L 486.417139 435.511979 
L 485.029167 437.461938 
L 483.621765 439.397919 
L 482.195074 441.31973 
L 480.749236 443.227178 
L 479.284397 445.120072 
L 477.800702 446.998224 
L 476.2983 448.861445 
L 474.777342 450.709549 
L 473.237978 452.542352 
L 471.680364 454.359669 
L 470.104655 456.16132 
L 468.511009 457.947124 
L 466.899584 459.716902 
L 465.270543 461.470478 
L 463.624048 463.207676 
L 461.960263 464.928323 
L 460.279355 466.632246 
L 458.581492 468.319274 
L 456.866845 469.989241 
L 455.135583 471.641977 
L 453.387881 473.277319 
L 451.623914 474.895102 
L 449.843857 476.495165 
L 448.047888 478.077347 
L 446.236188 479.641491 
L 444.408937 481.18744 
L 442.566318 482.71504 
L 440.708516 484.224137 
L 438.835716 485.714581 
L 436.948105 487.186223 
L 435.045873 488.638916 
L 433.129209 490.072514 
L 431.198305 491.486874 
L 429.253354 492.881854 
L 427.294551 494.257316 
L 425.322091 495.613121 
L 423.336173 496.949134 
L 421.336993 498.265222 
L 419.324753 499.561252 
L 417.299654 500.837095 
L 415.261897 502.092624 
L 413.211688 503.327713 
L 411.14923 504.542238 
L 410.40404 504.974263 
L 410.40404 504.974263 
Q 290.72894 297.690909 171.053839 504.974263 
L 171.053839 504.974263 
L 171.053839 504.974263 
L 168.987024 503.767168 
L 166.932383 502.539465 
L 164.890121 501.291278 
L 162.860443 500.022731 
L 160.843552 498.733951 
L 158.839649 497.425066 
L 156.848935 496.096209 
L 154.871609 494.747511 
L 152.907869 493.379108 
L 150.957911 491.991136 
L 149.021929 490.583734 
L 147.100118 489.157043 
L 145.19267 487.711205 
L 143.299776 486.246366 
L 141.421624 484.762671 
L 139.558403 483.260269 
L 137.710299 481.739311 
L 135.877496 480.199947 
L 134.060179 478.642333 
L 132.258528 477.066624 
L 130.472724 475.472978 
L 128.702946 473.861553 
L 126.94937 472.232512 
L 125.212172 470.586017 
L 123.491525 468.922232 
L 121.787603 467.241324 
L 120.100574 465.543461 
L 118.430607 463.828814 
L 116.777871 462.097552 
L 115.142529 460.34985 
L 113.524746 458.585883 
L 111.924684 456.805825 
L 110.342501 455.009857 
L 108.778357 453.198157 
L 107.232408 451.370906 
L 105.704808 449.528287 
L 104.195711 447.670485 
L 102.705267 445.797685 
L 101.233625 443.910074 
L 99.780932 442.007842 
L 98.347334 440.091178 
L 96.932974 438.160274 
L 95.537994 436.215323 
L 94.162532 434.25652 
L 92.806727 432.28406 
L 91.470714 430.298142 
L 90.154627 428.298962 
L 88.858596 426.286722 
L 87.582753 424.261623 
L 86.327224 422.223866 
L 85.092135 420.173657 
L 83.87761 418.111199 
L 83.445585 417.366009 
L 83.445585 417.366009 
Q 290.72894 297.690909 498.012294 417.366009 
z
" clip-path="url(#pf9d86f89f9)" style="fill: #0080ff; fill-opacity: 0.5; stroke: #808080; stroke-opacity: 0.5; stroke-width: 0.1"/>
    <path d="M 410.40404 504.974263 
L 410.40404 504.974263 
L 408.325257 506.16063 
L 406.234715 507.32615 
L 404.132622 508.470707 
L 402.019189 509.594186 
L 399.894628 510.696475 
L 397.759149 511.777463 
L 395.612968 512.837043 
L 393.456298 513.875109 
L 391.289356 514.891556 
L 389.112358 515.886284 
L 386.925521 516.859192 
L 384.729065 517.810183 
L 382.523209 518.739163 
L 380.308174 519.646038 
L 378.08418 520.530718 
L 375.851452 521.393114 
L 373.610211 522.23314 
L 371.360682 523.050712 
L 369.10309 523.845748 
L 366.83766 524.618169 
L 364.56462 525.367897 
L 362.284197 526.094858 
L 359.996617 526.798978 
L 357.702112 527.480188 
L 355.400908 528.138419 
L 353.093238 528.773606 
L 350.779332 529.385684 
L 348.45942 529.974594 
L 346.133735 530.540275 
L 343.80251 531.082671 
L 341.465978 531.601729 
L 339.124372 532.097395 
L 336.777926 532.569621 
L 334.426876 533.018359 
L 332.071456 533.443565 
L 329.711901 533.845196 
L 327.348449 534.223211 
L 324.981334 534.577574 
L 322.610794 534.908248 
L 320.237066 535.2152 
L 317.860388 535.498401 
L 315.480996 535.75782 
L 313.099129 535.993433 
L 310.715025 536.205217 
L 308.328922 536.393149 
L 305.941059 536.55721 
L 303.551676 536.697386 
L 301.16101 536.813661 
L 298.7693 536.906024 
L 296.376787 536.974465 
L 293.983709 537.018979 
L 291.590305 537.03956 
L 290.72894 537.04111 
L 290.72894 537.04111 
Q 290.72894 297.690909 290.72894 537.04111 
L 290.72894 537.04111 
L 290.72894 537.04111 
L 288.335477 537.029142 
L 285.942255 536.993241 
L 283.549511 536.93341 
L 281.157484 536.849655 
L 278.766415 536.741984 
L 276.376543 536.610408 
L 273.988105 536.454941 
L 271.601341 536.275597 
L 269.216491 536.072395 
L 266.833791 535.845356 
L 264.453481 535.5945 
L 262.075799 535.319855 
L 259.700981 535.021447 
L 257.329267 534.699306 
L 254.960892 534.353465 
L 252.596095 533.983957 
L 250.23511 533.590821 
L 247.878175 533.174094 
L 245.525525 532.73382 
L 243.177395 532.270041 
L 240.834021 531.782805 
L 238.495635 531.272159 
L 236.162473 530.738156 
L 233.834768 530.180848 
L 231.512752 529.600292 
L 229.196658 528.996544 
L 226.886717 528.369666 
L 224.583159 527.719721 
L 222.286217 527.046773 
L 219.996119 526.350889 
L 217.713094 525.63214 
L 215.43737 524.890597 
L 213.169176 524.126334 
L 210.908737 523.339427 
L 208.65628 522.529956 
L 206.412031 521.698001 
L 204.176213 520.843646 
L 201.949051 519.966976 
L 199.730766 519.068078 
L 197.521581 518.147043 
L 195.321717 517.203962 
L 193.131393 516.23893 
L 190.950829 515.252044 
L 188.780243 514.243401 
L 186.619851 513.213104 
L 184.469871 512.161254 
L 182.330516 511.087958 
L 180.202001 509.993322 
L 178.084539 508.877456 
L 175.97834 507.740471 
L 173.883617 506.582482 
L 171.800579 505.403604 
L 171.053839 504.974263 
L 171.053839 504.974263 
Q 290.72894 297.690909 410.40404 504.974263 
z
" clip-path="url(#pf9d86f89f9)" style="fill: #0080ff; fill-opacity: 0.5; stroke: #808080; stroke-opacity: 0.5; stroke-width: 0.1"/>
    <path d="M 290.72894 58.340707 
L 290.72894 58.340707 
L 293.122402 58.352675 
L 295.515624 58.388576 
L 297.908369 58.448407 
L 300.300395 58.532162 
L 302.691464 58.639833 
L 305.081337 58.771409 
L 307.469774 58.926876 
L 309.856538 59.10622 
L 312.241388 59.309422 
L 314.624088 59.536461 
L 317.004398 59.787317 
L 319.38208 60.061962 
L 321.756898 60.36037 
L 324.128612 60.682511 
L 326.496987 61.028352 
L 328.861784 61.39786 
L 331.222769 61.790996 
L 333.579704 62.207723 
L 335.932354 62.647997 
L 338.280484 63.111776 
L 340.623859 63.599012 
L 342.962244 64.109658 
L 345.295406 64.643661 
L 347.623111 65.200969 
L 349.945127 65.781526 
L 352.261221 66.385273 
L 354.571163 67.012151 
L 356.87472 67.662096 
L 359.171662 68.335044 
L 361.46176 69.030928 
L 363.744786 69.749677 
L 366.020509 70.49122 
L 368.288704 71.255483 
L 370.549142 72.04239 
L 372.801599 72.851861 
L 375.045848 73.683816 
L 377.281666 74.538171 
L 379.508829 75.414841 
L 381.727113 76.313739 
L 383.936298 77.234774 
L 386.136162 78.177855 
L 388.326486 79.142887 
L 390.50705 80.129774 
L 392.677636 81.138416 
L 394.838028 82.168713 
L 396.988008 83.220563 
L 399.127363 84.293859 
L 401.255878 85.388495 
L 403.373341 86.504361 
L 405.479539 87.641346 
L 407.574262 88.799335 
L 409.6573 89.978213 
L 410.40404 90.407554 
L 410.40404 90.407554 
Q 290.72894 297.690909 171.053839 90.407554 
L 171.053839 90.407554 
L 171.053839 90.407554 
L 173.132622 89.221187 
L 175.223164 88.055667 
L 177.325257 86.91111 
L 179.43869 85.787631 
L 181.563252 84.685342 
L 183.69873 83.604354 
L 185.844911 82.544774 
L 188.001581 81.506708 
L 190.168523 80.490261 
L 192.345522 79.495533 
L 194.532358 78.522625 
L 196.728814 77.571634 
L 198.93467 76.642654 
L 201.149706 75.735779 
L 203.373699 74.851099 
L 205.606427 73.988703 
L 207.847668 73.148677 
L 210.097197 72.331105 
L 212.354789 71.536069 
L 214.620219 70.763648 
L 216.893259 70.01392 
L 219.173683 69.286959 
L 221.461262 68.582839 
L 223.755768 67.901629 
L 226.056971 67.243398 
L 228.364641 66.608211 
L 230.678548 65.996133 
L 232.998459 65.407223 
L 235.324144 64.841542 
L 237.655369 64.299146 
L 239.991901 63.780089 
L 242.333507 63.284422 
L 244.679953 62.812196 
L 247.031003 62.363458 
L 249.386423 61.938252 
L 251.745978 61.536621 
L 254.109431 61.158606 
L 256.476545 60.804243 
L 258.847085 60.473569 
L 261.220813 60.166617 
L 263.597492 59.883416 
L 265.976883 59.623997 
L 268.35875 59.388384 
L 270.742854 59.1766 
L 273.128957 58.988669 
L 275.51682 58.824607 
L 277.906203 58.684431 
L 280.29687 58.568156 
L 282.688579 58.475793 
L 285.081092 58.407352 
L 287.47417 58.362838 
L 289.867574 58.342257 
L 290.72894 58.340707 
L 290.72894 58.340707 
Q 290.72894 297.690909 290.72894 58.340707 
z
" clip-path="url(#pf9d86f89f9)" style="fill: #000080; fill-opacity: 0.5; stroke: #808080; stroke-opacity: 0.5; stroke-width: 0.1"/>
   </g>
   <g id="patch_7">
    <path d="M 290.72894 58.340707 
L 293.122402 58.352675 
L 295.515624 58.388576 
L 297.908369 58.448407 
L 300.300395 58.532162 
L 302.691464 58.639833 
L 305.081337 58.771409 
L 307.469774 58.926876 
L 309.856538 59.10622 
L 312.241388 59.309422 
L 314.624088 59.536461 
L 317.004398 59.787317 
L 319.38208 60.061962 
L 321.756898 60.36037 
L 324.128612 60.682511 
L 326.496987 61.028352 
L 328.861784 61.39786 
L 331.222769 61.790996 
L 333.579704 62.207723 
L 335.932354 62.647997 
L 338.280484 63.111776 
L 340.623859 63.599012 
L 342.962244 64.109658 
L 345.295406 64.643661 
L 347.623111 65.200969 
L 349.945127 65.781526 
L 352.261221 66.385273 
L 354.571163 67.012151 
L 356.87472 67.662096 
L 359.171662 68.335044 
L 361.46176 69.030928 
L 363.744786 69.749677 
L 366.020509 70.49122 
L 368.288704 71.255483 
L 370.549142 72.04239 
L 372.801599 72.851861 
L 375.045848 73.683816 
L 377.281666 74.538171 
L 379.508829 75.414841 
L 381.727113 76.313739 
L 383.936298 77.234774 
L 386.136162 78.177855 
L 388.326486 79.142887 
L 390.50705 80.129774 
L 392.677636 81.138416 
L 394.838028 82.168713 
L 396.988008 83.220563 
L 399.127363 84.293859 
L 401.255878 85.388495 
L 403.373341 86.504361 
L 405.479539 87.641346 
L 407.574262 88.799335 
L 409.6573 89.978213 
L 410.40404 90.407554 
L 411.61288 88.313783 
L 410.858597 87.880105 
L 408.754518 86.689319 
L 406.638636 85.519633 
L 404.511163 84.371164 
L 402.372312 83.244027 
L 400.222297 82.138334 
L 398.061332 81.054196 
L 395.889635 79.991722 
L 393.707421 78.951017 
L 391.51491 77.932186 
L 389.31232 76.935331 
L 387.099872 75.960552 
L 384.877787 75.007945 
L 382.646287 74.077606 
L 380.405595 73.169628 
L 378.155936 72.284103 
L 375.897534 71.421118 
L 373.630615 70.580759 
L 371.355407 69.763112 
L 369.072136 68.968257 
L 366.78103 68.196274 
L 364.482319 67.44724 
L 362.176233 66.721231 
L 359.863003 66.018318 
L 357.542859 65.338573 
L 355.216034 64.682062 
L 352.88276 64.048852 
L 350.54327 63.439007 
L 348.1978 62.852586 
L 345.846582 62.289648 
L 343.489853 61.750251 
L 341.127848 61.234448 
L 338.760802 60.74229 
L 336.388954 60.273827 
L 334.01254 59.829105 
L 331.631797 59.408169 
L 329.246965 59.011061 
L 326.85828 58.637821 
L 324.465983 58.288486 
L 322.070311 57.963092 
L 319.671506 57.661669 
L 317.269807 57.38425 
L 314.865453 57.130861 
L 312.458686 56.901528 
L 310.049746 56.696273 
L 307.638873 56.515118 
L 305.22631 56.35808 
L 302.812297 56.225176 
L 300.397076 56.116417 
L 297.980888 56.031816 
L 295.563975 55.971381 
L 293.146578 55.935117 
L 290.72894 55.923029 
L 290.72894 58.340707 
z
" clip-path="url(#pf9d86f89f9)" style="fill: none; stroke: #000000; stroke-width: 0.5; stroke-linejoin: miter"/>
   </g>
   <g id="patch_8">
    <path d="M 410.40404 90.407554 
L 412.470855 91.614649 
L 414.525497 92.842352 
L 416.567758 94.090539 
L 418.597436 95.359086 
L 420.614327 96.647866 
L 422.61823 97.956751 
L 424.608944 99.285608 
L 426.58627 100.634306 
L 428.55001 102.002709 
L 430.499969 103.390682 
L 432.43595 104.798083 
L 434.357761 106.224775 
L 436.265209 107.670612 
L 438.158103 109.135451 
L 440.036255 110.619146 
L 441.899476 112.121548 
L 443.74758 113.642506 
L 445.580383 115.18187 
L 447.3977 116.739484 
L 449.199351 118.315193 
L 450.985155 119.908839 
L 452.754933 121.520264 
L 454.508509 123.149305 
L 456.245707 124.7958 
L 457.966354 126.459585 
L 459.670277 128.140493 
L 461.357305 129.838356 
L 463.027272 131.553003 
L 464.680008 133.284265 
L 466.31535 135.031967 
L 467.933133 136.795934 
L 469.533196 138.575992 
L 471.115378 140.37196 
L 472.679522 142.18366 
L 474.225471 144.010911 
L 475.753071 145.85353 
L 477.262168 147.711332 
L 478.752612 149.584132 
L 480.224254 151.471743 
L 481.676947 153.373975 
L 483.110545 155.290639 
L 484.524905 157.221543 
L 485.919885 159.166494 
L 487.295347 161.125297 
L 488.651152 163.097757 
L 489.987165 165.083675 
L 491.303253 167.082855 
L 492.599283 169.095095 
L 493.875126 171.120194 
L 495.130655 173.157951 
L 496.365744 175.20816 
L 497.580269 177.270618 
L 498.774109 179.345118 
L 499.947145 181.431452 
L 501.09926 183.529412 
L 502.230337 185.638789 
L 503.340265 187.75937 
L 504.428931 189.890944 
L 505.496228 192.033298 
L 506.542048 194.186218 
L 507.566287 196.349489 
L 508.568843 198.522893 
L 509.549615 200.706214 
L 510.508504 202.899234 
L 511.445417 205.101732 
L 512.360257 207.31349 
L 513.252935 209.534285 
L 514.12336 211.763895 
L 514.971446 214.002099 
L 515.797108 216.248671 
L 516.600264 218.503387 
L 517.380833 220.766022 
L 518.138736 223.036349 
L 518.873899 225.314142 
L 519.586247 227.599172 
L 520.27571 229.891212 
L 520.942219 232.190031 
L 521.585706 234.495401 
L 522.206108 236.80709 
L 522.803362 239.124867 
L 523.377409 241.448501 
L 523.928191 243.777759 
L 524.455654 246.112408 
L 524.959744 248.452215 
L 525.440411 250.796946 
L 525.897608 253.146366 
L 526.331287 255.500241 
L 526.741407 257.858335 
L 527.127926 260.220412 
L 527.490805 262.586236 
L 527.830007 264.95557 
L 528.1455 267.328178 
L 528.437252 269.703822 
L 528.705233 272.082265 
L 528.949416 274.463269 
L 529.169778 276.846595 
L 529.366296 279.232006 
L 529.53895 281.619263 
L 529.687723 284.008127 
L 529.812601 286.398359 
L 529.91357 288.78972 
L 529.990622 291.181972 
L 530.043747 293.574874 
L 530.072941 295.968188 
L 530.078201 298.361674 
L 530.059526 300.755094 
L 530.016918 303.148206 
L 529.950382 305.540773 
L 529.859923 307.932555 
L 529.745552 310.323313 
L 529.60728 312.712808 
L 529.445119 315.1008 
L 529.259087 317.487052 
L 529.049203 319.871324 
L 528.815487 322.253378 
L 528.557962 324.632975 
L 528.276654 327.009879 
L 527.971592 329.383851 
L 527.642806 331.754653 
L 527.290329 334.122049 
L 526.914195 336.485802 
L 526.514444 338.845675 
L 526.091114 341.201433 
L 525.644248 343.55284 
L 525.17389 345.899661 
L 524.680089 348.241661 
L 524.162892 350.578606 
L 523.622352 352.910262 
L 523.058523 355.236397 
L 522.471462 357.556777 
L 521.861226 359.87117 
L 521.227877 362.179345 
L 520.571479 364.481072 
L 519.892096 366.77612 
L 519.189798 369.064259 
L 518.464653 371.345261 
L 517.716735 373.618897 
L 516.946119 375.884941 
L 516.152881 378.143165 
L 515.3371 380.393345 
L 514.498859 382.635254 
L 513.638242 384.868668 
L 512.755333 387.093365 
L 511.850222 389.309122 
L 510.922999 391.515717 
L 509.973757 393.71293 
L 509.002591 395.900541 
L 508.009598 398.07833 
L 506.994876 400.246081 
L 505.958528 402.403577 
L 504.900658 404.550601 
L 503.82137 406.68694 
L 502.720773 408.812379 
L 501.598978 410.926706 
L 500.456095 413.029709 
L 499.29224 415.121179 
L 498.107529 417.200906 
L 496.90208 419.268682 
L 495.676014 421.3243 
L 494.429453 423.367555 
L 493.162523 425.398242 
L 491.875349 427.416159 
L 490.568061 429.421103 
L 489.240789 431.412875 
L 487.893666 433.391274 
L 486.526827 435.356104 
L 485.140408 437.307167 
L 483.734549 439.244268 
L 482.309388 441.167215 
L 480.86507 443.075813 
L 479.401739 444.969874 
L 477.91954 446.849207 
L 476.418622 448.713623 
L 474.899136 450.562938 
L 473.361233 452.396966 
L 471.805066 454.215523 
L 470.230793 456.018428 
L 468.638569 457.8055 
L 467.028554 459.576561 
L 465.40091 461.331434 
L 463.755798 463.069943 
L 462.093384 464.791914 
L 460.413834 466.497174 
L 458.717315 468.185555 
L 457.003998 469.856886 
L 455.274053 471.511001 
L 453.527654 473.147733 
L 451.764975 474.766921 
L 449.986193 476.3684 
L 448.191485 477.952013 
L 446.381031 479.517599 
L 444.555012 481.065003 
L 442.71361 482.594069 
L 440.85701 484.104645 
L 438.985397 485.59658 
L 437.098959 487.069725 
L 435.197884 488.523932 
L 433.282362 489.959056 
L 431.352585 491.374953 
L 429.408746 492.771482 
L 427.451039 494.148503 
L 425.47966 495.505878 
L 423.494805 496.843472 
L 421.496675 498.161151 
L 419.485467 499.458783 
L 417.461384 500.736239 
L 415.424628 501.99339 
L 413.375403 503.230111 
L 411.313913 504.446278 
L 409.240364 505.64177 
L 407.154965 506.816467 
L 405.057923 507.970252 
L 402.949448 509.103009 
L 400.829751 510.214625 
L 398.699045 511.304989 
L 396.557541 512.373991 
L 394.405455 513.421525 
L 392.243001 514.447487 
L 390.070395 515.451773 
L 387.887856 516.434283 
L 385.695601 517.394919 
L 383.493849 518.333584 
L 381.282821 519.250186 
L 379.062737 520.144632 
L 376.83382 521.016832 
L 374.596293 521.866701 
L 372.350379 522.694151 
L 370.096303 523.499102 
L 367.834291 524.281472 
L 365.564568 525.041184 
L 363.287361 525.77816 
L 361.002899 526.492328 
L 358.711409 527.183616 
L 356.413121 527.851954 
L 354.108265 528.497277 
L 351.797071 529.11952 
L 349.47977 529.71862 
L 347.156594 530.294517 
L 344.827775 530.847154 
L 342.493546 531.376476 
L 340.154142 531.882429 
L 337.809794 532.364963 
L 335.460739 532.82403 
L 333.10721 533.259584 
L 330.749444 533.671582 
L 328.387675 534.059981 
L 326.022141 534.424744 
L 323.653077 534.765833 
L 321.280722 535.083215 
L 318.90531 535.376859 
L 316.527082 535.646733 
L 314.146273 535.892813 
L 311.763123 536.115072 
L 309.377869 536.31349 
L 306.990751 536.488045 
L 304.602006 536.63872 
L 302.211874 536.765501 
L 299.820594 536.868375 
L 297.428405 536.947331 
L 295.035545 537.002362 
L 292.642255 537.033462 
L 290.72894 537.04111 
L 290.72894 539.458788 
L 292.661582 539.451064 
L 295.079047 539.41965 
L 297.496076 539.364063 
L 299.912429 539.284309 
L 302.327864 539.180396 
L 304.742138 539.052335 
L 307.155012 538.900137 
L 309.566242 538.723819 
L 311.97559 538.523397 
L 314.382812 538.298893 
L 316.787669 538.050328 
L 319.18992 537.777727 
L 321.589325 537.481118 
L 323.985645 537.160529 
L 326.378638 536.815995 
L 328.768067 536.447547 
L 331.153691 536.055225 
L 333.535273 535.639066 
L 335.912575 535.199112 
L 338.285358 534.735408 
L 340.653386 534.248 
L 343.016421 533.736936 
L 345.374228 533.202268 
L 347.72657 532.644048 
L 350.073212 532.062334 
L 352.41392 531.457183 
L 354.74846 530.828655 
L 357.076598 530.176814 
L 359.3981 529.501724 
L 361.712737 528.803453 
L 364.020274 528.082072 
L 366.320483 527.337651 
L 368.613133 526.570266 
L 370.897994 525.779993 
L 373.174838 524.966912 
L 375.443438 524.131103 
L 377.703567 523.27265 
L 379.954998 522.391639 
L 382.197506 521.488158 
L 384.430868 520.562298 
L 386.65486 519.614151 
L 388.869259 518.643812 
L 391.073844 517.651377 
L 393.268395 516.636947 
L 395.452692 515.600622 
L 397.626517 514.542507 
L 399.789652 513.462706 
L 401.941881 512.361329 
L 404.082989 511.238485 
L 406.212761 510.094286 
L 408.330985 508.928847 
L 410.43745 507.742284 
L 412.531943 506.534716 
L 414.614256 505.306265 
L 416.684181 504.057051 
L 418.74151 502.787202 
L 420.786038 501.496843 
L 422.817561 500.186103 
L 424.835875 498.855114 
L 426.840778 497.504009 
L 428.83207 496.132923 
L 430.809552 494.741993 
L 432.773026 493.331357 
L 434.722296 491.901158 
L 436.657166 490.451538 
L 438.577444 488.982642 
L 440.482937 487.494617 
L 442.373455 485.987612 
L 444.248809 484.461778 
L 446.10881 482.917266 
L 447.953274 481.354232 
L 449.782015 479.772832 
L 451.594852 478.173224 
L 453.391602 476.555567 
L 455.172085 474.920025 
L 456.936125 473.266759 
L 458.683544 471.595936 
L 460.414167 469.907723 
L 462.127823 468.202288 
L 463.824338 466.479802 
L 465.503544 464.740438 
L 467.165273 462.984369 
L 468.809358 461.21177 
L 470.435636 459.42282 
L 472.043943 457.617696 
L 473.634118 455.79658 
L 475.206003 453.959653 
L 476.759441 452.1071 
L 478.294276 450.239105 
L 479.810354 448.355856 
L 481.307525 446.45754 
L 482.785637 444.544348 
L 484.244544 442.61647 
L 485.6841 440.6741 
L 487.104161 438.717432 
L 488.504584 436.746661 
L 489.885229 434.761985 
L 491.245959 432.763602 
L 492.586638 430.751711 
L 493.907131 428.726515 
L 495.207307 426.688215 
L 496.487034 424.637016 
L 497.746186 422.573122 
L 498.984637 420.49674 
L 500.202262 418.408078 
L 501.39894 416.307343 
L 502.574551 414.194748 
L 503.728978 412.070502 
L 504.862105 409.934818 
L 505.973819 407.78791 
L 507.064008 405.629992 
L 508.132565 403.461281 
L 509.179381 401.281992 
L 510.204352 399.092345 
L 511.207375 396.892557 
L 512.188352 394.682849 
L 513.147182 392.463443 
L 514.083771 390.234559 
L 514.998024 387.99642 
L 515.889851 385.749252 
L 516.759162 383.493277 
L 517.60587 381.228723 
L 518.42989 378.955814 
L 519.231141 376.67478 
L 520.009541 374.385846 
L 520.765014 372.089244 
L 521.497483 369.785202 
L 522.206876 367.47395 
L 522.893121 365.15572 
L 523.556149 362.830744 
L 524.195896 360.499253 
L 524.812295 358.161482 
L 525.405287 355.817664 
L 525.974811 353.468034 
L 526.520811 351.112825 
L 527.043232 348.752275 
L 527.542021 346.386618 
L 528.01713 344.016092 
L 528.468509 341.640934 
L 528.896115 339.26138 
L 529.299905 336.877669 
L 529.679838 334.49004 
L 530.035875 332.098731 
L 530.367983 329.703981 
L 530.676126 327.30603 
L 530.960275 324.905118 
L 531.220401 322.501484 
L 531.456478 320.095369 
L 531.668483 317.687013 
L 531.856394 315.276658 
L 532.020192 312.864544 
L 532.159861 310.450913 
L 532.275388 308.036006 
L 532.36676 305.620065 
L 532.433968 303.203331 
L 532.477007 300.786045 
L 532.49587 298.36845 
L 532.490557 295.950787 
L 532.461068 293.533298 
L 532.407406 291.116225 
L 532.329577 288.699809 
L 532.227587 286.284293 
L 532.101448 283.869917 
L 531.951172 281.456923 
L 531.776774 279.045553 
L 531.578271 276.636047 
L 531.355684 274.228646 
L 531.109034 271.823592 
L 530.838346 269.421124 
L 530.543647 267.021484 
L 530.224968 264.62491 
L 529.882339 262.231643 
L 529.515794 259.841922 
L 529.125371 257.455986 
L 528.711109 255.074073 
L 528.273049 252.696422 
L 527.811234 250.32327 
L 527.325712 247.954855 
L 526.81653 245.591413 
L 526.283739 243.233182 
L 525.727394 240.880396 
L 525.147548 238.533291 
L 524.544261 236.192102 
L 523.917592 233.857062 
L 523.267605 231.528406 
L 522.594364 229.206367 
L 521.897937 226.891175 
L 521.178393 224.583064 
L 520.435805 222.282263 
L 519.670246 219.989003 
L 518.881793 217.703513 
L 518.070524 215.426022 
L 517.236522 213.156757 
L 516.379869 210.895946 
L 515.500652 208.643814 
L 514.598957 206.400586 
L 513.674876 204.166488 
L 512.7285 201.941742 
L 511.759924 199.726571 
L 510.769246 197.521196 
L 509.756564 195.325838 
L 508.721979 193.140716 
L 507.665595 190.96605 
L 506.587517 188.802056 
L 505.487854 186.64895 
L 504.366715 184.506949 
L 503.224212 182.376266 
L 502.06046 180.257114 
L 500.875576 178.149706 
L 499.669676 176.054252 
L 498.442883 173.970961 
L 497.195319 171.900042 
L 495.927108 169.841702 
L 494.638377 167.796147 
L 493.329256 165.763581 
L 491.999875 163.744208 
L 490.650366 161.73823 
L 489.280866 159.745846 
L 487.891511 157.767257 
L 486.48244 155.802661 
L 485.053793 153.852253 
L 483.605715 151.916228 
L 482.138348 149.994781 
L 480.651841 148.088104 
L 479.146342 146.196387 
L 477.622001 144.319819 
L 476.078972 142.458588 
L 474.517407 140.61288 
L 472.937463 138.78288 
L 471.339299 136.96877 
L 469.723074 135.170733 
L 468.08895 133.388947 
L 466.43709 131.623592 
L 464.767659 129.874843 
L 463.080824 128.142875 
L 461.376755 126.427862 
L 459.65562 124.729976 
L 457.917594 123.049385 
L 456.162848 121.386259 
L 454.391559 119.740762 
L 452.603905 118.113061 
L 450.800062 116.503317 
L 448.980213 114.911692 
L 447.144539 113.338344 
L 445.293223 111.783432 
L 443.426451 110.24711 
L 441.54441 108.729532 
L 439.647287 107.230851 
L 437.735272 105.751215 
L 435.808557 104.290773 
L 433.867334 102.849671 
L 431.911797 101.428053 
L 429.942142 100.026061 
L 427.958566 98.643835 
L 425.961267 97.281514 
L 423.950445 95.939234 
L 421.926301 94.617128 
L 419.889037 93.31533 
L 417.838857 92.03397 
L 415.775967 90.773174 
L 413.700572 89.533071 
L 411.61288 88.313783 
L 410.40404 90.407554 
z
" clip-path="url(#pf9d86f89f9)" style="fill: none; stroke: #000000; stroke-width: 0.5; stroke-linejoin: miter"/>
   </g>
   <g id="patch_9">
    <path d="M 290.72894 537.04111 
L 288.335477 537.029142 
L 285.942255 536.993241 
L 283.549511 536.93341 
L 281.157484 536.849655 
L 278.766415 536.741984 
L 276.376543 536.610408 
L 273.988105 536.454941 
L 271.601341 536.275597 
L 269.216491 536.072395 
L 266.833791 535.845356 
L 264.453481 535.5945 
L 262.075799 535.319855 
L 259.700981 535.021447 
L 257.329267 534.699306 
L 254.960892 534.353465 
L 252.596095 533.983957 
L 250.23511 533.590821 
L 247.878175 533.174094 
L 245.525525 532.73382 
L 243.177395 532.270041 
L 240.834021 531.782805 
L 238.495635 531.272159 
L 236.162473 530.738156 
L 233.834768 530.180848 
L 231.512752 529.600292 
L 229.196658 528.996544 
L 226.886717 528.369666 
L 224.583159 527.719721 
L 222.286217 527.046773 
L 219.996119 526.350889 
L 217.713094 525.63214 
L 215.43737 524.890597 
L 213.169176 524.126334 
L 210.908737 523.339427 
L 208.65628 522.529956 
L 206.412031 521.698001 
L 204.176213 520.843646 
L 201.949051 519.966976 
L 199.730766 519.068078 
L 197.521581 518.147043 
L 195.321717 517.203962 
L 193.131393 516.23893 
L 190.950829 515.252044 
L 188.780243 514.243401 
L 186.619851 513.213104 
L 184.469871 512.161254 
L 182.330516 511.087958 
L 180.202001 509.993322 
L 178.084539 508.877456 
L 175.97834 507.740471 
L 173.883617 506.582482 
L 171.800579 505.403604 
L 171.053839 504.974263 
L 169.845 507.068034 
L 170.599282 507.501712 
L 172.703362 508.692498 
L 174.819244 509.862184 
L 176.946716 511.010653 
L 179.085567 512.13779 
L 181.235583 513.243483 
L 183.396547 514.327621 
L 185.568245 515.390095 
L 187.750458 516.4308 
L 189.942969 517.449631 
L 192.145559 518.446486 
L 194.358007 519.421265 
L 196.580093 520.373872 
L 198.811592 521.304211 
L 201.052284 522.212189 
L 203.301943 523.097714 
L 205.560345 523.960699 
L 207.827264 524.801058 
L 210.102472 525.618705 
L 212.385744 526.41356 
L 214.676849 527.185543 
L 216.97556 527.934577 
L 219.281646 528.660586 
L 221.594876 529.363499 
L 223.91502 530.043244 
L 226.241846 530.699755 
L 228.57512 531.332965 
L 230.914609 531.942811 
L 233.26008 532.529231 
L 235.611297 533.092169 
L 237.968026 533.631566 
L 240.330032 534.147369 
L 242.697077 534.639527 
L 245.068925 535.107991 
L 247.445339 535.552712 
L 249.826082 535.973648 
L 252.210915 536.370756 
L 254.599599 536.743996 
L 256.991897 537.093331 
L 259.387568 537.418725 
L 261.786373 537.720148 
L 264.188073 537.997567 
L 266.592426 538.250956 
L 268.999193 538.480289 
L 271.408133 538.685544 
L 273.819006 538.866699 
L 276.231569 539.023737 
L 278.645582 539.156642 
L 281.060803 539.2654 
L 283.476991 539.350001 
L 285.893904 539.410436 
L 288.311301 539.4467 
L 290.72894 539.458788 
L 290.72894 537.04111 
z
" clip-path="url(#pf9d86f89f9)" style="fill: none; stroke: #000000; stroke-width: 0.5; stroke-linejoin: miter"/>
   </g>
   <g id="patch_10">
    <path d="M 171.053839 504.974263 
L 168.987024 503.767168 
L 166.932383 502.539465 
L 164.890121 501.291278 
L 162.860443 500.022731 
L 160.843552 498.733951 
L 158.839649 497.425066 
L 156.848935 496.096209 
L 154.871609 494.747511 
L 152.907869 493.379108 
L 150.957911 491.991136 
L 149.021929 490.583734 
L 147.100118 489.157043 
L 145.19267 487.711205 
L 143.299776 486.246366 
L 141.421624 484.762671 
L 139.558403 483.260269 
L 137.710299 481.739311 
L 135.877496 480.199947 
L 134.060179 478.642333 
L 132.258528 477.066624 
L 130.472724 475.472978 
L 128.702946 473.861553 
L 126.94937 472.232512 
L 125.212172 470.586017 
L 123.491525 468.922232 
L 121.787603 467.241324 
L 120.100574 465.543461 
L 118.430607 463.828814 
L 116.777871 462.097552 
L 115.142529 460.34985 
L 113.524746 458.585883 
L 111.924684 456.805825 
L 110.342501 455.009857 
L 108.778357 453.198157 
L 107.232408 451.370906 
L 105.704808 449.528287 
L 104.195711 447.670485 
L 102.705267 445.797685 
L 101.233625 443.910074 
L 99.780932 442.007842 
L 98.347334 440.091178 
L 96.932974 438.160274 
L 95.537994 436.215323 
L 94.162532 434.25652 
L 92.806727 432.28406 
L 91.470714 430.298142 
L 90.154627 428.298962 
L 88.858596 426.286722 
L 87.582753 424.261623 
L 86.327224 422.223866 
L 85.092135 420.173657 
L 83.87761 418.111199 
L 83.445585 417.366009 
L 81.351814 418.574848 
L 81.788203 419.327565 
L 83.014996 421.410856 
L 84.262561 423.481775 
L 85.530771 425.540115 
L 86.819502 427.58567 
L 88.128623 429.618236 
L 89.458005 431.637609 
L 90.807513 433.643587 
L 92.177013 435.635971 
L 93.566368 437.61456 
L 94.975439 439.579156 
L 96.404086 441.529564 
L 97.852164 443.465589 
L 99.319531 445.387036 
L 100.806038 447.293713 
L 102.311537 449.18543 
L 103.835878 451.061998 
L 105.378908 452.923229 
L 106.940472 454.768937 
L 108.520416 456.598937 
L 110.11858 458.413047 
L 111.734805 460.211084 
L 113.368929 461.99287 
L 115.020789 463.758225 
L 116.69022 465.506974 
L 118.377055 467.238942 
L 120.081124 468.953955 
L 121.802259 470.651841 
L 123.540285 472.332432 
L 125.295031 473.995559 
L 127.06632 475.641055 
L 128.853975 477.268756 
L 130.657817 478.8785 
L 132.477666 480.470125 
L 134.31334 482.043473 
L 136.164656 483.598385 
L 138.031428 485.134707 
L 139.913469 486.652285 
L 141.810592 488.150966 
L 143.722607 489.630602 
L 145.649322 491.091044 
L 147.590545 492.532146 
L 149.546082 493.953764 
L 151.515737 495.355756 
L 153.499313 496.737982 
L 155.496612 498.100303 
L 157.507434 499.442583 
L 159.531578 500.764689 
L 161.568842 502.066487 
L 163.619022 503.347847 
L 165.681912 504.608643 
L 167.757307 505.848746 
L 169.845 507.068034 
L 171.053839 504.974263 
z
" clip-path="url(#pf9d86f89f9)" style="fill: none; stroke: #000000; stroke-width: 0.5; stroke-linejoin: miter"/>
   </g>
   <g id="patch_11">
    <path d="M 83.445585 417.366009 
L 82.259218 415.287226 
L 81.093698 413.196684 
L 79.949141 411.094591 
L 78.825662 408.981158 
L 77.723373 406.856596 
L 76.642385 404.721118 
L 75.582805 402.574937 
L 74.544739 400.418267 
L 73.528292 398.251325 
L 72.533564 396.074327 
L 71.560656 393.88749 
L 70.609665 391.691034 
L 69.680685 389.485178 
L 68.77381 387.270143 
L 67.88913 385.046149 
L 67.026734 382.813421 
L 66.186708 380.57218 
L 65.369136 378.322651 
L 64.5741 376.065059 
L 63.801679 373.799629 
L 63.051951 371.526589 
L 62.32499 369.246166 
L 61.62087 366.958586 
L 60.93966 364.664081 
L 60.281429 362.362877 
L 59.646242 360.055207 
L 59.034164 357.7413 
L 58.445254 355.421389 
L 57.879573 353.095704 
L 57.337177 350.764479 
L 56.81812 348.427947 
L 56.322453 346.086341 
L 55.850227 343.739895 
L 55.401489 341.388845 
L 54.976283 339.033425 
L 54.574652 336.67387 
L 54.196637 334.310418 
L 53.842274 331.943303 
L 53.5116 329.572763 
L 53.204648 327.199035 
L 52.921447 324.822357 
L 52.662028 322.442965 
L 52.426415 320.061098 
L 52.214631 317.676994 
L 52.0267 315.290891 
L 51.862638 312.903028 
L 51.722462 310.513645 
L 51.606187 308.122979 
L 51.513824 305.731269 
L 51.445383 303.338756 
L 51.400869 300.945678 
L 51.380288 298.552274 
L 51.383642 296.158785 
L 51.41093 293.765448 
L 51.46215 291.372504 
L 51.537296 288.980192 
L 51.636362 286.588751 
L 51.759336 284.19842 
L 51.906207 281.809439 
L 52.07696 279.422045 
L 52.271578 277.036479 
L 52.490042 274.652977 
L 52.732329 272.27178 
L 52.998416 269.893125 
L 53.288275 267.517249 
L 53.601879 265.14439 
L 53.939195 262.774787 
L 54.30019 260.408674 
L 54.684827 258.04629 
L 55.093069 255.687871 
L 55.524874 253.333652 
L 55.980199 250.983868 
L 56.458999 248.638755 
L 56.961226 246.298547 
L 57.486829 243.963479 
L 58.035757 241.633783 
L 58.607953 239.309693 
L 59.203361 236.99144 
L 59.821922 234.679258 
L 60.463573 232.373377 
L 61.128251 230.074028 
L 61.815888 227.78144 
L 62.526417 225.495843 
L 63.259766 223.217465 
L 64.015861 220.946535 
L 64.794628 218.683279 
L 65.595987 216.427924 
L 66.41986 214.180695 
L 67.266164 211.941818 
L 68.134813 209.711514 
L 69.025722 207.490009 
L 69.938801 205.277524 
L 70.873959 203.07428 
L 71.831102 200.880498 
L 72.810135 198.696396 
L 73.81096 196.522194 
L 74.833476 194.358109 
L 75.877581 192.204357 
L 76.943172 190.061153 
L 78.03014 187.928713 
L 79.138379 185.807248 
L 80.267776 183.696972 
L 81.41822 181.598095 
L 82.589594 179.510828 
L 83.781782 177.435378 
L 84.994664 175.371953 
L 86.22812 173.320761 
L 87.482026 171.282005 
L 88.756256 169.25589 
L 90.050683 167.242619 
L 91.365178 165.242392 
L 92.69961 163.25541 
L 94.053844 161.281871 
L 95.427745 159.321974 
L 96.821176 157.375913 
L 98.233998 155.443883 
L 99.666069 153.526078 
L 101.117247 151.622689 
L 102.587385 149.733907 
L 104.076337 147.859921 
L 105.583955 146.000917 
L 107.110087 144.157083 
L 108.65458 142.328602 
L 110.217281 140.515656 
L 111.798033 138.718429 
L 113.396678 136.937098 
L 115.013055 135.171843 
L 116.647005 133.422839 
L 118.298362 131.690262 
L 119.966962 129.974285 
L 121.652639 128.275079 
L 123.355222 126.592815 
L 125.074543 124.927661 
L 126.81043 123.279782 
L 128.562708 121.649345 
L 130.331202 120.036512 
L 132.115737 118.441444 
L 133.916132 116.864301 
L 135.732208 115.30524 
L 137.563784 113.764418 
L 139.410677 112.241988 
L 141.272701 110.738103 
L 143.149671 109.252913 
L 145.041398 107.786567 
L 146.947694 106.339211 
L 148.868368 104.91099 
L 150.803228 103.502047 
L 152.752081 102.112522 
L 154.714731 100.742555 
L 156.690982 99.392283 
L 158.680637 98.061841 
L 160.683497 96.751361 
L 162.699361 95.460975 
L 164.728028 94.190812 
L 166.769295 92.940999 
L 168.822958 91.711661 
L 170.888812 90.50292 
L 172.966649 89.314898 
L 175.056262 88.147714 
L 177.157443 87.001483 
L 179.269981 85.876322 
L 181.393664 84.772341 
L 183.528281 83.689652 
L 185.673618 82.628364 
L 187.82946 81.588581 
L 189.995592 80.570408 
L 192.171798 79.573948 
L 194.357859 78.599298 
L 196.553557 77.646558 
L 198.758673 76.715822 
L 200.972985 75.807184 
L 203.196273 74.920733 
L 205.428314 74.056559 
L 207.668886 73.214749 
L 209.917763 72.395386 
L 212.174721 71.598552 
L 214.439535 70.824328 
L 216.711977 70.07279 
L 218.991821 69.344013 
L 221.278839 68.638071 
L 223.572801 67.955034 
L 225.87348 67.294971 
L 228.180643 66.657947 
L 230.494062 66.044026 
L 232.813504 65.453269 
L 235.138737 64.885736 
L 237.46953 64.341484 
L 239.805648 63.820566 
L 242.146859 63.323035 
L 244.492927 62.848941 
L 246.84362 62.39833 
L 249.1987 61.971249 
L 251.557934 61.567739 
L 253.921085 61.187842 
L 256.287917 60.831594 
L 258.658192 60.499033 
L 261.031675 60.19019 
L 263.408128 59.905097 
L 265.787312 59.643783 
L 268.168991 59.406273 
L 270.552925 59.192592 
L 272.938878 59.00276 
L 275.326609 58.836796 
L 277.71588 58.694718 
L 280.106453 58.576539 
L 282.498088 58.482272 
L 284.890546 58.411925 
L 287.283588 58.365506 
L 289.676974 58.343019 
L 290.72894 58.340707 
L 290.72894 55.923029 
L 289.666348 55.925364 
L 287.248786 55.948078 
L 284.831572 55.994966 
L 282.414948 56.066023 
L 279.999155 56.161243 
L 277.584435 56.280615 
L 275.17103 56.424128 
L 272.75918 56.591768 
L 270.349127 56.783518 
L 267.941113 56.999358 
L 265.535377 57.239267 
L 263.13216 57.50322 
L 260.731703 57.791193 
L 258.334246 58.103155 
L 255.940028 58.439076 
L 253.549289 58.798922 
L 251.162268 59.182657 
L 248.779203 59.590242 
L 246.400334 60.021637 
L 244.025897 60.476799 
L 241.65613 60.955683 
L 239.291271 61.458239 
L 236.931556 61.984419 
L 234.57722 62.534169 
L 232.228499 63.107435 
L 229.885629 63.704158 
L 227.548842 64.32428 
L 225.218374 64.967739 
L 222.894457 65.63447 
L 220.577323 66.324406 
L 218.267204 67.037479 
L 215.964331 67.773617 
L 213.668934 68.532746 
L 211.381244 69.314791 
L 209.101488 70.119674 
L 206.829895 70.947313 
L 204.566692 71.797627 
L 202.312105 72.670529 
L 200.066359 73.565934 
L 197.82968 74.483751 
L 195.602291 75.423888 
L 193.384414 76.386252 
L 191.176271 77.370746 
L 188.978084 78.377272 
L 186.790072 79.405729 
L 184.612453 80.456015 
L 182.445446 81.528024 
L 180.289267 82.621649 
L 178.144133 83.73678 
L 176.010256 84.873307 
L 173.887852 86.031116 
L 171.777131 87.21009 
L 169.678305 88.410112 
L 167.591585 89.631062 
L 165.517178 90.872818 
L 163.455292 92.135256 
L 161.406133 93.418249 
L 159.369907 94.721669 
L 157.346816 96.045386 
L 155.337064 97.389267 
L 153.34085 98.753178 
L 151.358375 100.136983 
L 149.389837 101.540543 
L 147.435433 102.963718 
L 145.495358 104.406365 
L 143.569807 105.868341 
L 141.658971 107.349499 
L 139.763042 108.849691 
L 137.88221 110.368766 
L 136.016662 111.906574 
L 134.166585 113.46296 
L 132.332164 115.037769 
L 130.513583 116.630843 
L 128.711023 118.242023 
L 126.924665 119.871147 
L 125.154687 121.518054 
L 123.401267 123.182577 
L 121.664579 124.864552 
L 119.944797 126.563808 
L 118.242094 128.280177 
L 116.556639 130.013488 
L 114.888601 131.763565 
L 113.238147 133.530236 
L 111.605443 135.313322 
L 109.99065 137.112646 
L 108.393931 138.928028 
L 106.815445 140.759285 
L 105.255351 142.606236 
L 103.713803 144.468695 
L 102.190958 146.346477 
L 100.686965 148.239392 
L 99.201977 150.147253 
L 97.736141 152.069868 
L 96.289605 154.007044 
L 94.862512 155.958589 
L 93.455006 157.924308 
L 92.067226 159.904002 
L 90.699313 161.897476 
L 89.351403 163.904528 
L 88.02363 165.924959 
L 86.716128 167.958567 
L 85.429027 170.005148 
L 84.162455 172.064497 
L 82.91654 174.136408 
L 81.691407 176.220675 
L 80.487176 178.317089 
L 79.30397 180.425441 
L 78.141906 182.545518 
L 77.001101 184.67711 
L 75.881668 186.820004 
L 74.783719 188.973984 
L 73.707365 191.138836 
L 72.652713 193.314343 
L 71.619869 195.500288 
L 70.608935 197.696452 
L 69.620013 199.902615 
L 68.653202 202.118557 
L 67.708598 204.344055 
L 66.786296 206.578889 
L 65.886388 208.822834 
L 65.008964 211.075665 
L 64.154112 213.337158 
L 63.321917 215.607086 
L 62.512463 217.885223 
L 61.72583 220.17134 
L 60.962097 222.465208 
L 60.221341 224.7666 
L 59.503635 227.075284 
L 58.809052 229.391029 
L 58.137661 231.713604 
L 57.489528 234.042777 
L 56.864719 236.378315 
L 56.263297 238.719983 
L 55.68532 241.067549 
L 55.130848 243.420777 
L 54.599936 245.779433 
L 54.092636 248.143279 
L 53.609 250.51208 
L 53.149075 252.885599 
L 52.712908 255.263598 
L 52.300543 257.64584 
L 51.91202 260.032086 
L 51.547379 262.422099 
L 51.206656 264.815638 
L 50.889885 267.212464 
L 50.597097 269.612339 
L 50.328323 272.015021 
L 50.083588 274.420271 
L 49.862918 276.827848 
L 49.666334 279.237511 
L 49.493856 281.64902 
L 49.345501 284.062133 
L 49.221285 286.476608 
L 49.121219 288.892205 
L 49.045314 291.308682 
L 48.993577 293.725797 
L 48.966013 296.143309 
L 48.962625 298.560975 
L 48.983414 300.978554 
L 49.028377 303.395805 
L 49.09751 305.812485 
L 49.190806 308.228353 
L 49.308255 310.643167 
L 49.449847 313.056686 
L 49.615566 315.468669 
L 49.805396 317.878873 
L 50.019318 320.287059 
L 50.257312 322.692985 
L 50.519352 325.096412 
L 50.805412 327.497097 
L 51.115465 329.894802 
L 51.44948 332.289287 
L 51.807421 334.680312 
L 52.189255 337.067637 
L 52.594943 339.451026 
L 53.024444 341.830238 
L 53.477715 344.205036 
L 53.954711 346.575183 
L 54.455384 348.940442 
L 54.979684 351.300576 
L 55.527559 353.655349 
L 56.098955 356.004525 
L 56.693812 358.34787 
L 57.312074 360.68515 
L 57.953676 363.01613 
L 58.618556 365.340577 
L 59.306647 367.65826 
L 60.01788 369.968946 
L 60.752184 372.272404 
L 61.509485 374.568404 
L 62.289708 376.856717 
L 63.092775 379.137113 
L 63.918605 381.409364 
L 64.767116 383.673244 
L 65.638223 385.928525 
L 66.531839 388.174983 
L 67.447874 390.412393 
L 68.386238 392.64053 
L 69.346835 394.859173 
L 70.329571 397.068098 
L 71.334346 399.267087 
L 72.36106 401.455917 
L 73.409611 403.634371 
L 74.479894 405.802231 
L 75.571802 407.95928 
L 76.685225 410.105302 
L 77.820052 412.240083 
L 78.97617 414.363409 
L 80.153463 416.475068 
L 81.351814 418.574848 
L 83.445585 417.366009 
z
" clip-path="url(#pf9d86f89f9)" style="fill: none; stroke: #000000; stroke-width: 0.5; stroke-linejoin: miter"/>
   </g>
   <g id="text_1">
    <text style="font: 3px 'DejaVu Sans', 'Bitstream Vera Sans', 'Computer Modern Sans Serif', 'Lucida Grande', 'Verdana', 'Geneva', 'Lucid', 'Arial', 'Helvetica', 'Avant Garde', sans-serif; text-anchor: start" x="355.029742" y="62.120764" transform="rotate(-75 355.029742 62.120764)">Galileo University</text>
   </g>
   <g id="text_2">
    <text style="font: 3px 'DejaVu Sans', 'Bitstream Vera Sans', 'Computer Modern Sans Serif', 'Lucida Grande', 'Verdana', 'Geneva', 'Lucid', 'Arial', 'Helvetica', 'Avant Garde', sans-serif; text-anchor: start" x="526.299084" y="361.991711" transform="rotate(-345 526.299084 361.991711)">University of San Carlos of Guatemala</text>
   </g>
   <g id="text_3">
    <text style="font: 3px 'DejaVu Sans', 'Bitstream Vera Sans', 'Computer Modern Sans Serif', 'Lucida Grande', 'Verdana', 'Geneva', 'Lucid', 'Arial', 'Helvetica', 'Avant Garde', sans-serif; text-anchor: end" x="228.629995" y="533.851039" transform="rotate(-75 228.629995 533.851039)">Universidad del Valle de Guatemala</text>
   </g>
   <g id="text_4">
    <text style="font: 3px 'DejaVu Sans', 'Bitstream Vera Sans', 'Computer Modern Sans Serif', 'Lucida Grande', 'Verdana', 'Geneva', 'Lucid', 'Arial', 'Helvetica', 'Avant Garde', sans-serif; text-anchor: end" x="118.869611" y="471.162109" transform="rotate(-45 118.869611 471.162109)">Universidad Mariano Galvez</text>
   </g>
   <g id="text_5">
    <text style="font: 3px 'DejaVu Sans', 'Bitstream Vera Sans', 'Computer Modern Sans Serif', 'Lucida Grande', 'Verdana', 'Geneva', 'Lucid', 'Arial', 'Helvetica', 'Avant Garde', sans-serif; text-anchor: end" x="78.65816" y="176.637157" transform="rotate(-330 78.65816 176.637157)">Universidad Francisco Marroqun</text>
   </g>
  </g>
 </g>
 <defs>
  <clipPath id="pf9d86f89f9">
   <path d="M 544.585213 297.690909 
C 544.585213 264.354808 538.018729 231.342859 525.261555 200.544318 
C 512.504382 169.745777 493.804615 141.759598 470.232432 118.187416 
C 446.66025 94.615233 418.674071 75.915466 387.87553 63.158293 
C 357.076989 50.40112 324.06504 43.834635 290.72894 43.834635 
C 257.392839 43.834635 224.38089 50.40112 193.582349 63.158293 
C 162.783808 75.915466 134.79763 94.615233 111.225447 118.187416 
C 87.653264 141.759598 68.953497 169.745777 56.196324 200.544318 
C 43.439151 231.342859 36.872666 264.354808 36.872666 297.690909 
C 36.872666 331.027009 43.439151 364.038958 56.196324 394.837499 
C 68.953497 425.63604 87.653264 453.622219 111.225447 477.194401 
C 134.79763 500.766584 162.783808 519.466351 193.582349 532.223524 
C 224.38089 544.980698 257.392839 551.547182 290.72894 551.547182 
C 324.06504 551.547182 357.076989 544.980698 387.87553 532.223524 
C 418.674071 519.466351 446.66025 500.766584 470.232432 477.194401 
C 493.804615 453.622219 512.504382 425.63604 525.261555 394.837499 
C 538.018729 364.038958 544.585213 331.027009 544.585213 297.690909 
M 290.72894 297.690909 
C 290.72894 297.690909 290.72894 297.690909 290.72894 297.690909 
C 290.72894 297.690909 290.72894 297.690909 290.72894 297.690909 
C 290.72894 297.690909 290.72894 297.690909 290.72894 297.690909 
C 290.72894 297.690909 290.72894 297.690909 290.72894 297.690909 
C 290.72894 297.690909 290.72894 297.690909 290.72894 297.690909 
C 290.72894 297.690909 290.72894 297.690909 290.72894 297.690909 
C 290.72894 297.690909 290.72894 297.690909 290.72894 297.690909 
C 290.72894 297.690909 290.72894 297.690909 290.72894 297.690909 
C 290.72894 297.690909 290.72894 297.690909 290.72894 297.690909 
C 290.72894 297.690909 290.72894 297.690909 290.72894 297.690909 
C 290.72894 297.690909 290.72894 297.690909 290.72894 297.690909 
C 290.72894 297.690909 290.72894 297.690909 290.72894 297.690909 
C 290.72894 297.690909 290.72894 297.690909 290.72894 297.690909 
C 290.72894 297.690909 290.72894 297.690909 290.72894 297.690909 
C 290.72894 297.690909 290.72894 297.690909 290.72894 297.690909 
C 290.72894 297.690909 290.72894 297.690909 290.72894 297.690909 
z
"/>
  </clipPath>
 </defs>
</svg>
