<?xml version="1.0" encoding="utf-8" standalone="no"?>
<!DOCTYPE svg PUBLIC "-//W3C//DTD SVG 1.1//EN"
  "http://www.w3.org/Graphics/SVG/1.1/DTD/svg11.dtd">
<svg xmlns:xlink="http://www.w3.org/1999/xlink" width="628.855471pt" height="555.101658pt" viewBox="0 0 628.855471 555.101658" xmlns="http://www.w3.org/2000/svg" version="1.1">
 <metadata>
  <rdf:RDF xmlns:dc="http://purl.org/dc/elements/1.1/" xmlns:cc="http://creativecommons.org/ns#" xmlns:rdf="http://www.w3.org/1999/02/22-rdf-syntax-ns#">
   <cc:Work>
    <dc:type rdf:resource="http://purl.org/dc/dcmitype/StillImage"/>
    <dc:date>2024-11-16T03:14:01.643655</dc:date>
    <dc:format>image/svg+xml</dc:format>
    <dc:creator>
     <cc:Agent>
      <dc:title>Matplotlib v3.8.4, https://matplotlib.org/</dc:title>
     </cc:Agent>
    </dc:creator>
   </cc:Work>
  </rdf:RDF>
 </metadata>
 <defs>
  <style type="text/css">*{stroke-linejoin: round; stroke-linecap: butt}</style>
 </defs>
 <g id="figure_1">
  <g id="patch_1">
   <path d="M 0 555.101658 
L 628.855471 555.101658 
L 628.855471 0 
L 0 0 
z
" style="fill: #ffffff"/>
  </g>
  <g id="axes_1">
   <g id="patch_2">
    <path d="M 348.414711 65.008596 
L 350.538026 65.019213 
L 352.66113 65.051062 
L 354.783808 65.10414 
L 356.90585 65.178442 
L 359.027043 65.27396 
L 361.147175 65.390685 
L 363.266033 65.528605 
L 365.383406 65.687707 
L 367.499082 65.867973 
L 369.61285 66.069388 
L 371.724498 66.291929 
L 373.833816 66.535576 
L 375.940591 66.800303 
L 378.044613 67.086084 
L 380.145673 67.392891 
L 382.24356 67.720693 
L 384.338064 68.069457 
L 386.428975 68.439148 
L 388.516085 68.829729 
L 390.599185 69.241162 
L 392.678067 69.673405 
L 394.752522 70.126414 
L 396.822344 70.600145 
L 398.887324 71.094551 
L 400.947258 71.609581 
L 403.001938 72.145184 
L 405.05116 72.701307 
L 407.094718 73.277894 
L 409.132408 73.874888 
L 411.164027 74.492228 
L 413.18937 75.129853 
L 415.208237 75.7877 
L 417.220423 76.465702 
L 419.22573 77.163791 
L 421.223955 77.881898 
L 423.214899 78.619952 
L 425.198364 79.377877 
L 427.17415 80.155599 
L 429.14206 80.95304 
L 431.101898 81.770119 
L 433.053467 82.606756 
L 434.996572 83.462866 
L 436.931019 84.338364 
L 438.856615 85.233163 
L 440.773166 86.147172 
L 442.680482 87.080301 
L 444.578371 88.032456 
L 446.466644 89.003542 
L 448.345111 89.993462 
L 450.213586 91.002117 
L 452.071881 92.029406 
L 453.91981 93.075226 
L 455.757189 94.139473 
L 457.583834 95.22204 
L 459.399562 96.322819 
L 461.204192 97.4417 
L 462.997542 98.578571 
L 464.779435 99.733318 
L 466.549691 100.905826 
L 468.308134 102.095978 
L 470.054587 103.303655 
L 471.788877 104.528735 
L 473.510829 105.771097 
L 475.220272 107.030616 
L 476.917034 108.307166 
L 478.600946 109.60062 
L 480.27184 110.910847 
L 481.929548 112.237718 
L 483.573905 113.5811 
L 485.204746 114.940857 
L 486.821908 116.316855 
L 488.425229 117.708955 
L 490.014549 119.117018 
L 491.58971 120.540904 
L 493.150553 121.980471 
L 494.696923 123.435573 
L 496.228665 124.906066 
L 497.745625 126.391803 
L 499.247652 127.892635 
L 500.734597 129.408411 
L 502.206309 130.938982 
L 503.662642 132.484192 
L 505.103451 134.043888 
L 506.528591 135.617915 
L 507.93792 137.206113 
L 509.331296 138.808326 
L 510.708581 140.424391 
L 512.069637 142.054149 
L 513.414327 143.697435 
L 514.742518 145.354086 
L 516.054076 147.023936 
L 517.34887 148.706818 
L 518.626771 150.402563 
L 519.88765 152.111002 
L 521.131383 153.831965 
L 522.357844 155.565278 
L 523.566911 157.310769 
L 524.758463 159.068264 
L 525.932381 160.837586 
L 527.088547 162.618558 
L 528.226845 164.411003 
L 529.347163 166.214741 
L 530.449388 168.029592 
L 531.533409 169.855374 
L 532.599119 171.691904 
L 533.64641 173.539 
L 534.675178 175.396477 
L 535.685321 177.264148 
L 536.676736 179.141826 
L 537.649325 181.029325 
L 538.602992 182.926456 
L 539.537639 184.833028 
L 540.453174 186.748851 
L 541.349506 188.673733 
L 542.226544 190.607482 
L 543.084202 192.549905 
L 543.922392 194.500807 
L 544.741032 196.459993 
L 545.540039 198.427268 
L 546.319335 200.402434 
L 547.078839 202.385295 
L 547.818478 204.375651 
L 548.538176 206.373303 
L 549.237862 208.378053 
L 549.917466 210.3897 
L 550.57692 212.408041 
L 551.216158 214.432876 
L 551.835116 216.464003 
L 552.433732 218.501217 
L 553.011946 220.544315 
L 553.569701 222.593093 
L 554.10694 224.647346 
L 554.62361 226.706869 
L 555.11966 228.771456 
L 555.595039 230.840899 
L 556.049701 232.914993 
L 556.483599 234.99353 
L 556.89669 237.076302 
L 557.288934 239.1631 
L 557.66029 241.253716 
L 558.010721 243.347942 
L 558.340194 245.445567 
L 558.648674 247.546381 
L 558.93613 249.650176 
L 559.202535 251.75674 
L 559.447861 253.865862 
L 559.672084 255.977332 
L 559.875182 258.090939 
L 560.057133 260.206471 
L 560.217921 262.323717 
L 560.357528 264.442465 
L 560.475941 266.562503 
L 560.573148 268.683619 
L 560.64914 270.805601 
L 560.703908 272.928237 
L 560.737448 275.051314 
L 560.749756 277.174621 
L 560.74083 279.297944 
L 560.710671 281.421072 
L 560.659284 283.543793 
L 560.586672 285.665893 
L 560.492843 287.787161 
L 560.377806 289.907385 
L 560.241574 292.026352 
L 560.084158 294.143852 
L 559.905576 296.259671 
L 559.705845 298.373598 
L 559.484986 300.485423 
L 559.243019 302.594934 
L 558.979969 304.701919 
L 558.695864 306.806169 
L 558.39073 308.907472 
L 558.064599 311.005619 
L 557.717503 313.1004 
L 557.349477 315.191605 
L 556.960558 317.279025 
L 556.550784 319.362452 
L 556.120197 321.441678 
L 555.668839 323.516493 
L 555.196757 325.586691 
L 554.703996 327.652065 
L 554.190606 329.712408 
L 553.656639 331.767514 
L 553.102148 333.817178 
L 552.527189 335.861195 
L 551.931818 337.89936 
L 551.316096 339.931469 
L 550.680084 341.95732 
L 550.023845 343.976709 
L 549.347446 345.989435 
L 548.650954 347.995297 
L 547.934438 349.994093 
L 547.19797 351.985625 
L 546.441624 353.969692 
L 545.665476 355.946097 
L 544.869603 357.914642 
L 544.054084 359.87513 
L 543.219002 361.827364 
L 542.364439 363.77115 
L 541.490482 365.706294 
L 540.597217 367.632601 
L 539.684734 369.54988 
L 538.753124 371.457938 
L 537.802481 373.356585 
L 536.832899 375.24563 
L 535.844475 377.124886 
L 534.837308 378.994163 
L 533.8115 380.853276 
L 532.767152 382.702037 
L 531.704368 384.540263 
L 530.623256 386.367769 
L 529.523923 388.184373 
L 528.40648 389.989893 
L 527.271037 391.784149 
L 526.117709 393.56696 
L 524.946611 395.338149 
L 523.75786 397.097539 
L 522.551574 398.844954 
L 521.327875 400.580219 
L 520.086885 402.30316 
L 518.828728 404.013605 
L 517.55353 405.711383 
L 516.261417 407.396325 
L 514.952521 409.068261 
L 513.62697 410.727026 
L 512.284899 412.372451 
L 510.92644 414.004375 
L 509.551731 415.622632 
L 508.160908 417.227061 
L 506.754111 418.817503 
L 505.331479 420.393797 
L 503.893156 421.955786 
L 502.439286 423.503314 
L 500.970013 425.036226 
L 499.485485 426.554369 
L 497.98585 428.057591 
L 496.471257 429.545742 
L 494.94186 431.018673 
L 493.397809 432.476236 
L 491.839261 433.918286 
L 490.26637 435.344679 
L 488.679294 436.755272 
L 487.078192 438.149924 
L 485.463223 439.528496 
L 483.83455 440.890849 
L 482.192335 442.236847 
L 480.536742 443.566357 
L 478.867938 444.879244 
L 477.186088 446.175378 
L 475.49136 447.454628 
L 473.783926 448.716868 
L 473.222158 449.126423 
L 474.482839 450.861602 
L 475.050282 450.44791 
L 476.774963 449.17292 
L 478.486809 447.880748 
L 480.185647 446.571522 
L 481.871308 445.245373 
L 483.543624 443.902434 
L 485.202427 442.54284 
L 486.847552 441.166726 
L 488.478833 439.774229 
L 490.096108 438.36549 
L 491.699215 436.940649 
L 493.287994 435.499848 
L 494.862285 434.043231 
L 496.421932 432.570945 
L 497.966778 431.083136 
L 499.496669 429.579953 
L 501.011452 428.061547 
L 502.510976 426.528069 
L 503.99509 424.979673 
L 505.463646 423.416514 
L 506.916497 421.838747 
L 508.353498 420.246531 
L 509.774506 418.640025 
L 511.179378 417.019389 
L 512.567973 415.384785 
L 513.940153 413.736378 
L 515.295781 412.074332 
L 516.634721 410.398812 
L 517.956839 408.709988 
L 519.262002 407.008026 
L 520.550082 405.293099 
L 521.820948 403.565376 
L 523.074473 401.825032 
L 524.310533 400.072239 
L 525.529003 398.307174 
L 526.729762 396.530012 
L 527.912689 394.740932 
L 529.077667 392.940113 
L 530.224579 391.127733 
L 531.353309 389.303976 
L 532.463747 387.469022 
L 533.555779 385.623057 
L 534.629297 383.766263 
L 535.684195 381.898827 
L 536.720365 380.020936 
L 537.737705 378.132777 
L 538.736113 376.234539 
L 539.715489 374.326412 
L 540.675735 372.408587 
L 541.616754 370.481256 
L 542.538454 368.544611 
L 543.440742 366.598845 
L 544.323527 364.644155 
L 545.186722 362.680734 
L 546.030239 360.70878 
L 546.853996 358.72849 
L 547.657908 356.740061 
L 548.441896 354.743692 
L 549.205882 352.739584 
L 549.949789 350.727936 
L 550.673542 348.708949 
L 551.37707 346.682826 
L 552.060301 344.64977 
L 552.723168 342.609983 
L 553.365605 340.563669 
L 553.987546 338.511033 
L 554.588931 336.452281 
L 555.169698 334.387617 
L 555.72979 332.31725 
L 556.269151 330.241385 
L 556.787726 328.16023 
L 557.285464 326.073994 
L 557.762315 323.982885 
L 558.218232 321.887112 
L 558.653169 319.786884 
L 559.067081 317.682413 
L 559.459929 315.573907 
L 559.831673 313.461579 
L 560.182275 311.345638 
L 560.5117 309.226298 
L 560.819916 307.103769 
L 561.106891 304.978265 
L 561.372598 302.849996 
L 561.617009 300.719178 
L 561.840099 298.586022 
L 562.041848 296.450741 
L 562.222234 294.31355 
L 562.381239 292.174662 
L 562.518848 290.034291 
L 562.635046 287.892651 
L 562.729823 285.749955 
L 562.803168 283.60642 
L 562.855075 281.462258 
L 562.885538 279.317684 
L 562.894554 277.172913 
L 562.882122 275.028159 
L 562.848244 272.883636 
L 562.792922 270.739559 
L 562.716163 268.596143 
L 562.617974 266.453602 
L 562.498364 264.312149 
L 562.357347 262.172 
L 562.194935 260.033368 
L 562.011146 257.896467 
L 561.805997 255.76151 
L 561.579509 253.628712 
L 561.331705 251.498285 
L 561.062609 249.370443 
L 560.772249 247.245398 
L 560.460653 245.123363 
L 560.127853 243.00455 
L 559.773881 240.889171 
L 559.398774 238.777437 
L 559.002569 236.66956 
L 558.585305 234.56575 
L 558.147024 232.466218 
L 557.68777 230.371174 
L 557.207589 228.280827 
L 556.706529 226.195386 
L 556.184639 224.11506 
L 555.641973 222.040057 
L 555.078585 219.970584 
L 554.49453 217.906848 
L 553.889867 215.849056 
L 553.264657 213.797413 
L 552.618963 211.752125 
L 551.952848 209.713396 
L 551.266379 207.68143 
L 550.559625 205.656431 
L 549.832657 203.6386 
L 549.085548 201.628139 
L 548.318371 199.62525 
L 547.531204 197.630132 
L 546.724126 195.642986 
L 545.897217 193.66401 
L 545.05056 191.693402 
L 544.18424 189.731359 
L 543.298342 187.778077 
L 542.392957 185.833751 
L 541.468174 183.898576 
L 540.524085 181.972746 
L 539.560786 180.056453 
L 538.578373 178.149888 
L 537.576943 176.253243 
L 536.556597 174.366707 
L 535.517437 172.490468 
L 534.459567 170.624715 
L 533.383093 168.769633 
L 532.288122 166.925409 
L 531.174764 165.092226 
L 530.04313 163.270268 
L 528.893333 161.459718 
L 527.725488 159.660756 
L 526.539713 157.873562 
L 525.336125 156.098315 
L 524.114846 154.335193 
L 522.875996 152.584371 
L 521.6197 150.846025 
L 520.346084 149.120329 
L 519.055276 147.407455 
L 517.747403 145.707575 
L 516.422597 144.020858 
L 515.08099 142.347473 
L 513.722717 140.687588 
L 512.347913 139.041368 
L 510.956716 137.408978 
L 509.549265 135.790582 
L 508.125701 134.186341 
L 506.686166 132.596416 
L 505.230803 131.020965 
L 503.75976 129.460146 
L 502.273181 127.914115 
L 500.771217 126.383028 
L 499.254018 124.867036 
L 497.721735 123.366292 
L 496.174521 121.880945 
L 494.612531 120.411145 
L 493.035922 118.957038 
L 491.444851 117.518769 
L 489.839477 116.096483 
L 488.21996 114.690321 
L 486.586463 113.300424 
L 484.939149 111.926932 
L 483.278183 110.569981 
L 481.60373 109.229707 
L 479.915959 107.906245 
L 478.215037 106.599726 
L 476.501136 105.310282 
L 474.774426 104.03804 
L 473.03508 102.783129 
L 471.283273 101.545675 
L 469.519178 100.325799 
L 467.742973 99.123626 
L 465.954836 97.939274 
L 464.154945 96.772862 
L 462.343479 95.624508 
L 460.520621 94.494325 
L 458.686552 93.382427 
L 456.841457 92.288925 
L 454.985518 91.213928 
L 453.118923 90.157544 
L 451.241858 89.119879 
L 449.354509 88.101035 
L 447.457067 87.101116 
L 445.549721 86.120221 
L 443.632661 85.158448 
L 441.70608 84.215894 
L 439.770169 83.292652 
L 437.825123 82.388815 
L 435.871136 81.504474 
L 433.908404 80.639716 
L 431.937122 79.794628 
L 429.957488 78.969296 
L 427.9697 78.1638 
L 425.973956 77.378222 
L 423.970457 76.612641 
L 421.959402 75.867133 
L 419.940993 75.141772 
L 417.915431 74.436631 
L 415.882919 73.75178 
L 413.84366 73.087289 
L 411.797858 72.443223 
L 409.745718 71.819647 
L 407.687446 71.216623 
L 405.623245 70.634212 
L 403.553325 70.072472 
L 401.47789 69.531458 
L 399.397149 69.011226 
L 397.31131 68.511827 
L 395.220581 68.03331 
L 393.125171 67.575725 
L 391.025291 67.139116 
L 388.92115 66.723527 
L 386.812958 66.329001 
L 384.700926 65.955575 
L 382.585265 65.603288 
L 380.466188 65.272176 
L 378.343905 64.96227 
L 376.21863 64.673602 
L 374.090574 64.406201 
L 371.959951 64.160093 
L 369.826973 63.935304 
L 367.691854 63.731855 
L 365.554807 63.549767 
L 363.416046 63.389059 
L 361.275785 63.249745 
L 359.134238 63.131841 
L 356.991619 63.035358 
L 354.848143 62.960306 
L 352.704023 62.906692 
L 350.559474 62.874521 
L 348.414711 62.863797 
z
" clip-path="url(#pe2d15e5063)" style="fill: #000080"/>
   </g>
   <g id="patch_3">
    <path d="M 473.222158 449.126423 
L 471.498119 450.365888 
L 469.761772 451.58805 
L 468.013291 452.792789 
L 466.252849 453.979982 
L 464.480624 455.149512 
L 462.696792 456.301262 
L 460.901533 457.435116 
L 459.095024 458.550961 
L 457.277448 459.648685 
L 455.448985 460.728179 
L 453.60982 461.789335 
L 451.760134 462.832046 
L 449.900115 463.856209 
L 448.029947 464.86172 
L 446.149817 465.84848 
L 444.259914 466.81639 
L 442.360427 467.765352 
L 440.451545 468.695273 
L 438.533459 469.606058 
L 436.606362 470.497618 
L 434.670445 471.369862 
L 432.725903 472.222704 
L 430.77293 473.056058 
L 428.811722 473.869841 
L 426.842473 474.663971 
L 424.865382 475.43837 
L 422.880646 476.192959 
L 420.888463 476.927664 
L 418.889033 477.64241 
L 416.882556 478.337127 
L 414.869232 479.011744 
L 412.849263 479.666195 
L 410.82285 480.300414 
L 408.790196 480.914337 
L 406.751505 481.507903 
L 404.70698 482.081053 
L 402.656826 482.63373 
L 400.601248 483.165878 
L 398.540452 483.677443 
L 396.474642 484.168376 
L 394.404027 484.638626 
L 392.328813 485.088147 
L 390.249208 485.516893 
L 388.165419 485.924823 
L 386.077655 486.311894 
L 383.986125 486.678069 
L 381.891038 487.023311 
L 379.792603 487.347584 
L 377.69103 487.650858 
L 375.58653 487.933101 
L 373.479312 488.194285 
L 371.369589 488.434385 
L 369.257569 488.653375 
L 367.143466 488.851235 
L 365.027489 489.027944 
L 362.909851 489.183485 
L 360.790764 489.317842 
L 358.670439 489.431002 
L 356.549089 489.522953 
L 354.426925 489.593687 
L 352.30416 489.643196 
L 350.181006 489.671475 
L 348.057676 489.678521 
L 345.934381 489.664334 
L 343.811334 489.628915 
L 341.688747 489.572268 
L 339.566834 489.494398 
L 337.445804 489.395313 
L 335.325872 489.275024 
L 333.207249 489.133541 
L 331.090146 488.97088 
L 328.974776 488.787055 
L 326.86135 488.582087 
L 324.750079 488.355995 
L 322.641174 488.108803 
L 320.534847 487.840533 
L 318.431308 487.551215 
L 316.330767 487.240875 
L 314.233435 486.909546 
L 312.13952 486.557261 
L 310.049233 486.184055 
L 307.962783 485.789964 
L 305.880378 485.37503 
L 304.267758 485.038789 
L 303.82183 487.13672 
L 305.450738 487.476356 
L 307.554178 487.895482 
L 309.661703 488.293553 
L 311.773104 488.670529 
L 313.888169 489.026373 
L 316.006687 489.361049 
L 318.128445 489.674523 
L 320.253232 489.966764 
L 322.380836 490.237743 
L 324.511042 490.487433 
L 326.643639 490.715808 
L 328.778413 490.922847 
L 330.915151 491.108528 
L 333.053638 491.272832 
L 335.193662 491.415744 
L 337.335007 491.537249 
L 339.477461 491.637334 
L 341.620808 491.715991 
L 343.764835 491.77321 
L 345.909327 491.808987 
L 348.054069 491.823317 
L 350.198848 491.816199 
L 352.343448 491.787635 
L 354.487655 491.737626 
L 356.631255 491.666178 
L 358.774033 491.573298 
L 360.915775 491.458995 
L 363.056267 491.323281 
L 365.195295 491.166169 
L 367.332645 490.987675 
L 369.468103 490.787816 
L 371.601456 490.566614 
L 373.73249 490.324089 
L 375.860993 490.060267 
L 377.98675 489.775173 
L 380.109551 489.468836 
L 382.229182 489.141286 
L 384.345432 488.792558 
L 386.458089 488.422684 
L 388.566941 488.031703 
L 390.671778 487.619653 
L 392.77239 487.186575 
L 394.868566 486.732514 
L 396.960096 486.257514 
L 399.046772 485.761622 
L 401.128385 485.244889 
L 403.204727 484.707367 
L 405.275589 484.149107 
L 407.340766 483.570168 
L 409.40005 482.970606 
L 411.453235 482.350481 
L 413.500117 481.709856 
L 415.54049 481.048795 
L 417.57415 480.367363 
L 419.600895 479.665629 
L 421.620521 478.943663 
L 423.632827 478.201537 
L 425.637611 477.439326 
L 427.634673 476.657105 
L 429.623813 475.854953 
L 431.604831 475.03295 
L 433.577531 474.191179 
L 435.541715 473.329722 
L 437.497186 472.448667 
L 439.443749 471.548102 
L 441.38121 470.628117 
L 443.309373 469.688803 
L 445.228047 468.730255 
L 447.13704 467.752569 
L 449.036161 466.755842 
L 450.92522 465.740173 
L 452.804028 464.705666 
L 454.672396 463.652422 
L 456.53014 462.580547 
L 458.377072 461.490149 
L 460.213007 460.381337 
L 462.037763 459.254221 
L 463.851157 458.108914 
L 465.653007 456.94553 
L 467.443133 455.764187 
L 469.221357 454.565001 
L 470.9875 453.348094 
L 472.741386 452.113587 
L 474.482839 450.861602 
z
" clip-path="url(#pe2d15e5063)" style="fill: #0028ff"/>
   </g>
   <g id="patch_4">
    <path d="M 304.267758 485.038789 
L 302.193049 484.586943 
L 300.122963 484.114372 
L 298.057705 483.621124 
L 295.997483 483.107248 
L 293.942503 482.572797 
L 291.89297 482.017822 
L 289.849089 481.442381 
L 287.811064 480.846529 
L 285.7791 480.230328 
L 283.7534 479.593838 
L 281.734165 478.937123 
L 279.721599 478.260249 
L 277.715901 477.563284 
L 275.717274 476.846297 
L 273.725916 476.109359 
L 271.742027 475.352546 
L 269.765805 474.575931 
L 267.797448 473.779594 
L 265.837153 472.963613 
L 263.885115 472.12807 
L 261.941531 471.273049 
L 260.006593 470.398635 
L 258.080497 469.504916 
L 256.163433 468.591981 
L 254.255595 467.659922 
L 252.357172 466.70883 
L 250.468356 465.738803 
L 248.589333 464.749936 
L 246.720293 463.742329 
L 244.861423 462.716082 
L 243.012908 461.671297 
L 241.174933 460.608081 
L 239.347681 459.526538 
L 237.531337 458.426776 
L 235.72608 457.308907 
L 233.932093 456.173041 
L 232.149553 455.019293 
L 230.37864 453.847777 
L 228.619531 452.658611 
L 226.872401 451.451913 
L 225.137425 450.227805 
L 223.414777 448.986409 
L 221.704628 447.727848 
L 220.007151 446.452249 
L 218.322514 445.15974 
L 216.650886 443.850449 
L 214.992434 442.524507 
L 213.347325 441.182048 
L 211.715722 439.823204 
L 210.097789 438.448113 
L 208.493688 437.056912 
L 206.903578 435.64974 
L 205.32762 434.226737 
L 203.76597 432.788045 
L 202.218785 431.33381 
L 200.686219 429.864176 
L 199.168427 428.379289 
L 197.665558 426.8793 
L 196.177765 425.364357 
L 194.705195 423.834612 
L 193.247995 422.290218 
L 191.806313 420.731329 
L 190.380291 419.158102 
L 188.970072 417.570693 
L 187.575798 415.969262 
L 186.197607 414.353969 
L 184.835638 412.724974 
L 183.490027 411.082442 
L 182.160908 409.426536 
L 180.848415 407.757421 
L 179.552677 406.075265 
L 178.273826 404.380237 
L 177.011989 402.672504 
L 175.767292 400.952239 
L 174.53986 399.219614 
L 173.329815 397.4748 
L 172.137278 395.717974 
L 170.962369 393.94931 
L 169.805205 392.168986 
L 168.665902 390.37718 
L 167.544573 388.57407 
L 166.441331 386.759837 
L 165.356287 384.934663 
L 164.527109 383.511265 
L 162.669659 384.583664 
L 163.507212 386.021441 
L 164.603216 387.865051 
L 165.717602 389.697609 
L 166.850257 391.518932 
L 168.001068 393.328838 
L 169.169921 395.127145 
L 170.356698 396.913674 
L 171.56128 398.688246 
L 172.783548 400.450683 
L 174.023379 402.20081 
L 175.280649 403.938452 
L 176.555232 405.663434 
L 177.847 407.375584 
L 179.155826 409.074731 
L 180.481577 410.760705 
L 181.824121 412.433338 
L 183.183324 414.092462 
L 184.559051 415.737911 
L 185.951162 417.36952 
L 187.35952 418.987127 
L 188.783983 420.59057 
L 190.22441 422.179689 
L 191.680655 423.754324 
L 193.152573 425.314318 
L 194.640018 426.859515 
L 196.142839 428.38976 
L 197.660888 429.904901 
L 199.194012 431.404786 
L 200.742059 432.889266 
L 202.304872 434.35819 
L 203.882296 435.811414 
L 205.474173 437.24879 
L 207.080344 438.670177 
L 208.700649 440.075431 
L 210.334924 441.464411 
L 211.983008 442.83698 
L 213.644735 444.193 
L 215.319938 445.532335 
L 217.008451 446.854851 
L 218.710104 448.160416 
L 220.424728 449.4489 
L 222.152151 450.720173 
L 223.8922 451.974109 
L 225.644701 453.210582 
L 227.409479 454.429468 
L 229.186357 455.630646 
L 230.975158 456.813996 
L 232.775703 457.979398 
L 234.587812 459.126737 
L 236.411303 460.255898 
L 238.245994 461.366768 
L 240.091703 462.459236 
L 241.948243 463.533192 
L 243.81543 464.58853 
L 245.693077 465.625143 
L 247.580996 466.642928 
L 249.478998 467.641784 
L 251.386894 468.621609 
L 253.304493 469.582308 
L 255.231602 470.523782 
L 257.16803 471.445939 
L 259.113582 472.348685 
L 261.068064 473.231931 
L 263.031281 474.095589 
L 265.003036 474.939572 
L 266.983133 475.763795 
L 268.971372 476.568176 
L 270.967556 477.352635 
L 272.971484 478.117093 
L 274.982956 478.861474 
L 277.001772 479.585704 
L 279.027729 480.289709 
L 281.060624 480.97342 
L 283.100255 481.636769 
L 285.146417 482.279688 
L 287.198906 482.902113 
L 289.257517 483.503983 
L 291.322043 484.085238 
L 293.392279 484.645818 
L 295.468016 485.185668 
L 297.549049 485.704734 
L 299.635167 486.202964 
L 301.726164 486.680309 
L 303.82183 487.13672 
z
" clip-path="url(#pe2d15e5063)" style="fill: #00d4ff"/>
   </g>
   <g id="patch_5">
    <path d="M 164.527109 383.511265 
L 163.474646 381.667111 
L 162.440676 379.812525 
L 161.425303 377.947693 
L 160.42863 376.072799 
L 159.450755 374.188034 
L 158.491776 372.293583 
L 157.551789 370.389638 
L 156.630888 368.476389 
L 155.729165 366.554026 
L 154.846711 364.622742 
L 153.983614 362.68273 
L 153.139959 360.734185 
L 152.315832 358.7773 
L 151.511315 356.812273 
L 150.726487 354.839298 
L 149.961429 352.858574 
L 149.216215 350.870299 
L 148.490921 348.87467 
L 147.78562 346.871889 
L 147.100381 344.862156 
L 146.435273 342.84567 
L 145.790364 340.822634 
L 145.165716 338.79325 
L 144.561393 336.757722 
L 143.977456 334.716252 
L 143.413962 332.669045 
L 142.870967 330.616305 
L 142.348527 328.558239 
L 141.846694 326.49505 
L 141.365517 324.426947 
L 140.905045 322.354136 
L 140.465323 320.276823 
L 140.046397 318.195217 
L 139.648307 316.109526 
L 139.271093 314.019959 
L 138.914794 311.926724 
L 138.579445 309.83003 
L 138.265078 307.730088 
L 137.971727 305.627108 
L 137.69942 303.521299 
L 137.448184 301.412872 
L 137.242792 299.538772 
L 135.109743 299.762964 
L 135.317209 301.655995 
L 135.570983 303.785719 
L 135.84604 305.912799 
L 136.142355 308.037021 
L 136.459896 310.158175 
L 136.798633 312.276047 
L 137.158532 314.390426 
L 137.539555 316.5011 
L 137.941666 318.607859 
L 138.364825 320.710491 
L 138.808988 322.808786 
L 139.274111 324.902535 
L 139.760148 326.991529 
L 140.267051 329.075557 
L 140.794768 331.154412 
L 141.343247 333.227887 
L 141.912433 335.295773 
L 142.502269 337.357864 
L 143.112696 339.413953 
L 143.743653 341.463835 
L 144.395077 343.507306 
L 145.066903 345.54416 
L 145.759063 347.574194 
L 146.471489 349.597205 
L 147.204109 351.612991 
L 147.95685 353.62135 
L 148.729637 355.622082 
L 149.522392 357.614985 
L 150.335035 359.599862 
L 151.167487 361.576513 
L 152.019663 363.544741 
L 152.891479 365.504348 
L 153.782847 367.45514 
L 154.693678 369.396921 
L 155.62388 371.329496 
L 156.573362 373.252673 
L 157.542028 375.166259 
L 158.52978 377.070063 
L 159.536522 378.963894 
L 160.56215 380.847564 
L 161.606564 382.720883 
L 162.669659 384.583664 
z
" clip-path="url(#pe2d15e5063)" style="fill: #7dff7a"/>
   </g>
   <g id="patch_6">
    <path d="M 137.242792 299.538772 
L 137.031404 297.425978 
L 136.841153 295.311176 
L 136.67206 293.194577 
L 136.524141 291.076394 
L 136.397411 288.956837 
L 136.291883 286.836118 
L 136.207566 284.714451 
L 136.14447 282.592046 
L 136.102601 280.469117 
L 136.081963 278.345875 
L 136.082558 276.222533 
L 136.104386 274.099303 
L 136.147445 271.976397 
L 136.211731 269.854028 
L 136.297236 267.732408 
L 136.403954 265.611749 
L 136.531872 263.492264 
L 136.680978 261.374163 
L 136.851257 259.257659 
L 137.042693 257.142965 
L 137.242792 255.148646 
L 135.109743 254.924453 
L 134.907622 256.938917 
L 134.714253 259.074972 
L 134.542253 261.212855 
L 134.391641 263.35235 
L 134.262431 265.493245 
L 134.154636 267.635324 
L 134.068266 269.778375 
L 134.003332 271.922182 
L 133.959838 274.066531 
L 133.937789 276.211208 
L 133.937188 278.355998 
L 133.958035 280.500687 
L 134.000326 282.64506 
L 134.06406 284.788903 
L 134.149228 286.932001 
L 134.255822 289.074141 
L 134.383833 291.215108 
L 134.533246 293.354687 
L 134.704047 295.492666 
L 134.896219 297.628829 
L 135.109743 299.762964 
z
" clip-path="url(#pe2d15e5063)" style="fill: #ffe600"/>
   </g>
   <g id="patch_7">
    <path d="M 137.242792 255.148646 
L 137.475298 253.038072 
L 137.728897 250.929928 
L 138.003564 248.824426 
L 138.299273 246.721775 
L 138.615993 244.622187 
L 138.953693 242.525871 
L 139.312338 240.433036 
L 139.691894 238.343893 
L 140.092321 236.258649 
L 140.513581 234.177515 
L 140.955631 232.100696 
L 141.418426 230.028402 
L 141.901921 227.96084 
L 142.406067 225.898215 
L 142.930814 223.840735 
L 143.476109 221.788606 
L 144.041898 219.742032 
L 144.628123 217.701218 
L 145.234727 215.666368 
L 145.861649 213.637686 
L 146.508827 211.615374 
L 147.176194 209.599635 
L 147.863686 207.590671 
L 148.571232 205.588682 
L 149.298762 203.593868 
L 150.046204 201.606429 
L 150.813483 199.626564 
L 151.600521 197.65447 
L 152.407241 195.690346 
L 153.233561 193.734386 
L 154.079399 191.786788 
L 154.944671 189.847745 
L 155.829289 187.917451 
L 156.733166 185.996101 
L 157.656211 184.083884 
L 158.598332 182.180994 
L 159.559434 180.28762 
L 160.539421 178.403952 
L 161.538196 176.530177 
L 162.555658 174.666484 
L 163.591706 172.813058 
L 164.646236 170.970085 
L 165.719143 169.13775 
L 166.810319 167.316235 
L 167.919656 165.505722 
L 169.047042 163.706394 
L 170.192364 161.918429 
L 171.355509 160.142006 
L 172.536359 158.377304 
L 173.734797 156.624498 
L 174.950703 154.883764 
L 176.183956 153.155276 
L 177.434431 151.439206 
L 178.702004 149.735727 
L 179.986548 148.045008 
L 181.287935 146.36722 
L 182.606034 144.702529 
L 183.940714 143.051102 
L 185.291841 141.413104 
L 186.659281 139.788699 
L 188.042896 138.178049 
L 189.442548 136.581316 
L 190.858097 134.998659 
L 192.289401 133.430236 
L 193.736318 131.876204 
L 195.198703 130.33672 
L 196.676409 128.811935 
L 198.169289 127.302004 
L 199.677193 125.807077 
L 201.199971 124.327303 
L 202.73747 122.862831 
L 204.289537 121.413807 
L 205.856016 119.980376 
L 207.436751 118.562681 
L 209.031584 117.160864 
L 210.640355 115.775065 
L 212.262903 114.405422 
L 213.899066 113.052074 
L 215.548681 111.715154 
L 217.211582 110.394798 
L 218.887603 109.091136 
L 220.576577 107.804299 
L 222.278335 106.534416 
L 223.607263 105.560994 
L 222.346582 103.825815 
L 221.00423 104.809069 
L 219.285283 106.091779 
L 217.579249 107.391615 
L 215.886298 108.708445 
L 214.2066 110.042139 
L 212.540322 111.392562 
L 210.887632 112.759581 
L 209.248694 114.143058 
L 207.623673 115.542855 
L 206.012731 116.958832 
L 204.416029 118.390847 
L 202.833727 119.838758 
L 201.265983 121.302418 
L 199.712953 122.781683 
L 198.174794 124.276404 
L 196.651658 125.786431 
L 195.143699 127.311614 
L 193.651066 128.851801 
L 192.17391 130.406836 
L 190.712378 131.976564 
L 189.266616 133.56083 
L 187.836768 135.159473 
L 186.422978 136.772335 
L 185.025387 138.399254 
L 183.644135 140.040067 
L 182.27936 141.694611 
L 180.931199 143.362719 
L 179.599785 145.044225 
L 178.285253 146.738961 
L 176.987734 148.446757 
L 175.707357 150.167443 
L 174.444251 151.900847 
L 173.198542 153.646795 
L 171.970354 155.405112 
L 170.75981 157.175623 
L 169.567032 158.958151 
L 168.392139 160.752517 
L 167.235247 162.558542 
L 166.096474 164.376046 
L 164.975932 166.204846 
L 163.873733 168.04476 
L 162.789989 169.895604 
L 161.724807 171.757193 
L 160.678294 173.62934 
L 159.650554 175.511858 
L 158.641691 177.40456 
L 157.651805 179.307256 
L 156.680995 181.219755 
L 155.729358 183.141866 
L 154.796989 185.073397 
L 153.883982 187.014156 
L 152.990428 188.963947 
L 152.116416 190.922576 
L 151.262034 192.889848 
L 150.427367 194.865564 
L 149.612499 196.849529 
L 148.817511 198.841542 
L 148.042482 200.841406 
L 147.28749 202.84892 
L 146.552611 204.863883 
L 145.837918 206.886095 
L 145.143482 208.915352 
L 144.469373 210.951452 
L 143.815659 212.99419 
L 143.182404 215.043364 
L 142.569673 217.098768 
L 141.977526 219.160196 
L 141.406022 221.227443 
L 140.855219 223.300301 
L 140.325172 225.378564 
L 139.815933 227.462023 
L 139.327555 229.55047 
L 138.860085 231.643696 
L 138.41357 233.741492 
L 137.988055 235.843649 
L 137.583582 237.949955 
L 137.200193 240.060201 
L 136.837925 242.174175 
L 136.496814 244.291666 
L 136.176895 246.412463 
L 135.878199 248.536352 
L 135.600757 250.663122 
L 135.344596 252.79256 
L 135.109743 254.924453 
z
" clip-path="url(#pe2d15e5063)" style="fill: #ff4700"/>
   </g>
   <g id="patch_8">
    <path d="M 223.607263 105.560994 
L 225.331302 104.32153 
L 227.067649 103.099367 
L 228.816131 101.894629 
L 230.576572 100.707436 
L 232.348797 99.537906 
L 234.132629 98.386156 
L 235.927889 97.252302 
L 237.734397 96.136457 
L 239.551973 95.038733 
L 241.380436 93.959239 
L 243.219601 92.898083 
L 245.069287 91.855371 
L 246.929306 90.831209 
L 248.799475 89.825697 
L 250.679604 88.838937 
L 252.569507 87.871028 
L 254.468995 86.922065 
L 256.377877 85.992145 
L 258.295962 85.081359 
L 260.223059 84.1898 
L 262.158976 83.317556 
L 264.103518 82.464714 
L 266.056491 81.63136 
L 268.0177 80.817577 
L 269.986948 80.023446 
L 271.964039 79.249048 
L 273.948775 78.494458 
L 275.940958 77.759754 
L 277.940388 77.045007 
L 279.946865 76.350291 
L 281.960189 75.675673 
L 283.980159 75.021223 
L 286.006571 74.387004 
L 288.039225 73.773081 
L 290.077916 73.179514 
L 292.122441 72.606364 
L 294.172595 72.053688 
L 296.228173 71.52154 
L 298.288969 71.009974 
L 300.354779 70.519042 
L 302.425394 70.048792 
L 304.500608 69.599271 
L 306.580213 69.170524 
L 308.664002 68.762595 
L 310.751766 68.375523 
L 312.843296 68.009348 
L 314.938384 67.664107 
L 317.036818 67.339833 
L 319.138391 67.036559 
L 321.242891 66.754316 
L 323.350109 66.493132 
L 325.459833 66.253033 
L 327.571852 66.034042 
L 329.685955 65.836183 
L 331.801932 65.659473 
L 333.91957 65.503933 
L 336.038657 65.369575 
L 338.158982 65.256416 
L 340.280332 65.164464 
L 342.402496 65.093731 
L 344.525261 65.044222 
L 346.648415 65.015943 
L 348.414711 65.008596 
L 348.414711 62.863797 
L 346.630573 62.871218 
L 344.485973 62.899783 
L 342.341766 62.949792 
L 340.198167 63.02124 
L 338.055388 63.11412 
L 335.913646 63.228423 
L 333.773154 63.364137 
L 331.634126 63.521249 
L 329.496776 63.699743 
L 327.361318 63.899601 
L 325.227965 64.120804 
L 323.096931 64.363328 
L 320.968429 64.627151 
L 318.842671 64.912245 
L 316.71987 65.218582 
L 314.600239 65.546131 
L 312.483989 65.89486 
L 310.371332 66.264734 
L 308.26248 66.655715 
L 306.157643 67.067765 
L 304.057031 67.500842 
L 301.960855 67.954904 
L 299.869325 68.429904 
L 297.782649 68.925795 
L 295.701036 69.442528 
L 293.624695 69.980051 
L 291.553832 70.53831 
L 289.488656 71.11725 
L 287.429372 71.716812 
L 285.376186 72.336936 
L 283.329304 72.977561 
L 281.288931 73.638623 
L 279.255271 74.320054 
L 277.228526 75.021788 
L 275.2089 75.743754 
L 273.196594 76.48588 
L 271.19181 77.248092 
L 269.194748 78.030312 
L 267.205609 78.832464 
L 265.22459 79.654467 
L 263.25189 80.496239 
L 261.287706 81.357695 
L 259.332235 82.23875 
L 257.385672 83.139315 
L 255.448212 84.059301 
L 253.520048 84.998614 
L 251.601374 85.957162 
L 249.692381 86.934849 
L 247.79326 87.931576 
L 245.904201 88.947244 
L 244.025394 89.981752 
L 242.157025 91.034996 
L 240.299281 92.10687 
L 238.45235 93.197268 
L 236.616414 94.306081 
L 234.791658 95.433197 
L 232.978264 96.578504 
L 231.176414 97.741887 
L 229.386288 98.923231 
L 227.608064 100.122416 
L 225.841921 101.339323 
L 224.088035 102.573831 
L 222.346582 103.825815 
z
" clip-path="url(#pe2d15e5063)" style="fill: #800000"/>
   </g>
   <g id="PatchCollection_1">
    <path d="M 304.267758 485.038789 
L 304.267758 485.038789 
L 302.193049 484.586943 
L 300.122963 484.114372 
L 298.057705 483.621124 
L 295.997483 483.107248 
L 293.942503 482.572797 
L 291.89297 482.017822 
L 289.849089 481.442381 
L 287.811064 480.846529 
L 285.7791 480.230328 
L 283.7534 479.593838 
L 281.734165 478.937123 
L 279.721599 478.260249 
L 277.715901 477.563284 
L 275.717274 476.846297 
L 273.725916 476.109359 
L 271.742027 475.352546 
L 269.765805 474.575931 
L 267.797448 473.779594 
L 265.837153 472.963613 
L 263.885115 472.12807 
L 261.941531 471.273049 
L 260.006593 470.398635 
L 258.080497 469.504916 
L 256.163433 468.591981 
L 254.255595 467.659922 
L 252.357172 466.70883 
L 250.468356 465.738803 
L 248.589333 464.749936 
L 246.720293 463.742329 
L 244.861423 462.716082 
L 243.012908 461.671297 
L 241.174933 460.608081 
L 239.347681 459.526538 
L 237.531337 458.426776 
L 235.72608 457.308907 
L 233.932093 456.173041 
L 232.149553 455.019293 
L 230.37864 453.847777 
L 228.619531 452.658611 
L 226.872401 451.451913 
L 225.137425 450.227805 
L 223.607263 449.126423 
L 223.607263 449.126423 
Q 348.414711 277.343709 223.607263 105.560994 
L 223.607263 105.560994 
L 223.607263 105.560994 
L 225.331302 104.32153 
L 227.067649 103.099367 
L 228.816131 101.894629 
L 230.576572 100.707436 
L 232.348797 99.537906 
L 234.132629 98.386156 
L 235.927889 97.252302 
L 237.734397 96.136457 
L 239.551973 95.038733 
L 241.380436 93.959239 
L 243.219601 92.898083 
L 245.069287 91.855371 
L 246.929306 90.831209 
L 248.799475 89.825697 
L 250.679604 88.838937 
L 252.569507 87.871028 
L 254.468995 86.922065 
L 256.377877 85.992145 
L 258.295962 85.081359 
L 260.223059 84.1898 
L 262.158976 83.317556 
L 264.103518 82.464714 
L 266.056491 81.63136 
L 268.0177 80.817577 
L 269.986948 80.023446 
L 271.964039 79.249048 
L 273.948775 78.494458 
L 275.940958 77.759754 
L 277.940388 77.045007 
L 279.946865 76.350291 
L 281.960189 75.675673 
L 283.980159 75.021223 
L 286.006571 74.387004 
L 288.039225 73.773081 
L 290.077916 73.179514 
L 292.122441 72.606364 
L 294.172595 72.053688 
L 296.228173 71.52154 
L 298.288969 71.009974 
L 300.354779 70.519042 
L 302.425394 70.048792 
L 304.267758 69.648628 
L 304.267758 69.648628 
Q 348.414711 277.343709 304.267758 485.038789 
z
" clip-path="url(#pe2d15e5063)" style="fill: #00d4ff; fill-opacity: 0.5; stroke: #808080; stroke-opacity: 0.5; stroke-width: 0.1"/>
    <path d="M 473.222158 449.126423 
L 473.222158 449.126423 
L 471.498119 450.365888 
L 469.761772 451.58805 
L 468.013291 452.792789 
L 466.252849 453.979982 
L 464.480624 455.149512 
L 462.696792 456.301262 
L 460.901533 457.435116 
L 459.095024 458.550961 
L 457.277448 459.648685 
L 455.448985 460.728179 
L 453.60982 461.789335 
L 451.760134 462.832046 
L 449.900115 463.856209 
L 448.029947 464.86172 
L 446.149817 465.84848 
L 444.259914 466.81639 
L 442.360427 467.765352 
L 440.451545 468.695273 
L 438.533459 469.606058 
L 436.606362 470.497618 
L 434.779181 471.321486 
L 434.779181 471.321486 
Q 348.414711 277.343709 137.242792 255.148646 
L 137.242792 255.148646 
L 137.242792 255.148646 
L 137.475298 253.038072 
L 137.728897 250.929928 
L 138.003564 248.824426 
L 138.299273 246.721775 
L 138.615993 244.622187 
L 138.953693 242.525871 
L 139.312338 240.433036 
L 139.691894 238.343893 
L 140.092321 236.258649 
L 140.513581 234.177515 
L 140.955631 232.100696 
L 141.418426 230.028402 
L 141.901921 227.96084 
L 142.406067 225.898215 
L 142.930814 223.840735 
L 143.476109 221.788606 
L 144.041898 219.742032 
L 144.628123 217.701218 
L 145.234727 215.666368 
L 145.861649 213.637686 
L 146.472018 211.728551 
L 146.472018 211.728551 
Q 348.414711 277.343709 473.222158 449.126423 
z
" clip-path="url(#pe2d15e5063)" style="fill: #0028ff; fill-opacity: 0.5; stroke: #808080; stroke-opacity: 0.5; stroke-width: 0.1"/>
    <path d="M 434.779181 471.321486 
L 434.779181 471.321486 
L 432.835118 472.175418 
L 430.882612 473.009866 
L 428.92186 473.824748 
L 426.953057 474.619982 
L 424.9764 475.395489 
L 422.992087 476.151191 
L 421.000317 476.887012 
L 419.001288 477.602878 
L 416.9952 478.29872 
L 414.982254 478.974465 
L 412.962652 479.630048 
L 410.936595 480.265403 
L 408.904286 480.880465 
L 406.865928 481.475174 
L 404.821725 482.04947 
L 402.771881 482.603296 
L 400.716601 483.136595 
L 398.656092 483.649316 
L 396.590558 484.141406 
L 394.520207 484.612817 
L 392.561663 485.038789 
L 392.561663 485.038789 
Q 348.414711 277.343709 348.414711 65.008596 
L 348.414711 65.008596 
L 348.414711 65.008596 
L 350.538026 65.019213 
L 352.66113 65.051062 
L 354.783808 65.10414 
L 356.90585 65.178442 
L 359.027043 65.27396 
L 361.147175 65.390685 
L 363.266033 65.528605 
L 365.383406 65.687707 
L 367.499082 65.867973 
L 369.61285 66.069388 
L 371.724498 66.291929 
L 373.833816 66.535576 
L 375.940591 66.800303 
L 378.044613 67.086084 
L 380.145673 67.392891 
L 382.24356 67.720693 
L 384.338064 68.069457 
L 386.428975 68.439148 
L 388.516085 68.829729 
L 390.599185 69.241162 
L 392.561663 69.648628 
L 392.561663 69.648628 
Q 348.414711 277.343709 434.779181 471.321486 
z
" clip-path="url(#pe2d15e5063)" style="fill: #0028ff; fill-opacity: 0.5; stroke: #808080; stroke-opacity: 0.5; stroke-width: 0.1"/>
    <path d="M 392.561663 69.648628 
L 392.561663 69.648628 
L 394.636372 70.100475 
L 396.706458 70.573046 
L 398.771716 71.066294 
L 400.831938 71.580169 
L 402.886918 72.114621 
L 404.936451 72.669595 
L 406.980332 73.245037 
L 409.018357 73.840888 
L 411.050321 74.45709 
L 413.076021 75.093579 
L 415.095256 75.750294 
L 417.107823 76.427168 
L 419.11352 77.124134 
L 421.112147 77.841121 
L 423.103505 78.578058 
L 425.087394 79.334872 
L 427.063616 80.111486 
L 429.031973 80.907824 
L 430.992268 81.723805 
L 432.944306 82.559347 
L 434.779181 83.365931 
L 434.779181 83.365931 
Q 348.414711 277.343709 304.267758 69.648628 
L 304.267758 69.648628 
L 304.267758 69.648628 
L 306.346882 69.217551 
L 308.430212 68.807286 
L 310.517541 68.417874 
L 312.608659 68.049355 
L 314.703358 67.701765 
L 316.801428 67.375139 
L 318.90266 67.06951 
L 321.006842 66.784908 
L 323.113765 66.521362 
L 325.223219 66.278897 
L 327.334991 66.057539 
L 329.448872 65.85731 
L 331.564649 65.678229 
L 333.682111 65.520314 
L 335.801046 65.383582 
L 337.921243 65.268045 
L 340.042489 65.173716 
L 342.164572 65.100604 
L 344.28728 65.048715 
L 346.410401 65.018056 
L 348.414711 65.008596 
L 348.414711 65.008596 
Q 348.414711 277.343709 392.561663 69.648628 
z
" clip-path="url(#pe2d15e5063)" style="fill: #000080; fill-opacity: 0.5; stroke: #808080; stroke-opacity: 0.5; stroke-width: 0.1"/>
    <path d="M 434.779181 83.365931 
L 434.779181 83.365931 
L 436.714609 84.239261 
L 438.641206 85.1319 
L 440.558781 86.04376 
L 442.467141 86.974751 
L 444.366096 87.924778 
L 446.255457 88.893746 
L 448.135033 89.88156 
L 450.004637 90.88812 
L 451.864082 91.913325 
L 453.713183 92.957073 
L 455.551754 94.019259 
L 457.379611 95.099778 
L 459.196572 96.198521 
L 461.002454 97.315378 
L 462.797078 98.450238 
L 464.580264 99.602987 
L 466.351833 100.77351 
L 468.111609 101.96169 
L 469.859415 103.167408 
L 471.595077 104.390544 
L 473.318421 105.630975 
L 475.029275 106.888577 
L 476.727467 108.163224 
L 478.412828 109.454789 
L 480.085189 110.763143 
L 481.744384 112.088155 
L 483.390245 113.429692 
L 485.022609 114.78762 
L 486.641313 116.161804 
L 488.246194 117.552106 
L 489.837092 118.958387 
L 491.413847 120.380507 
L 492.976303 121.818322 
L 494.524303 123.27169 
L 496.057692 124.740466 
L 497.576317 126.224501 
L 499.080026 127.723648 
L 500.568669 129.237757 
L 502.042096 130.766676 
L 503.50016 132.310253 
L 504.942717 133.868334 
L 506.36962 135.440761 
L 507.780728 137.027379 
L 509.1759 138.628029 
L 510.554996 140.242549 
L 511.917877 141.87078 
L 513.264409 143.512558 
L 514.594456 145.167719 
L 515.907885 146.836098 
L 517.204564 148.517527 
L 518.484365 150.211839 
L 519.747159 151.918863 
L 520.99282 153.63843 
L 522.221224 155.370368 
L 523.432247 157.114503 
L 524.625768 158.87066 
L 525.801668 160.638665 
L 526.95983 162.41834 
L 528.100137 164.209508 
L 529.222476 166.011989 
L 530.326734 167.825603 
L 531.412802 169.650169 
L 532.302312 171.176153 
L 532.302312 171.176153 
Q 348.414711 277.343709 146.472018 211.728551 
L 146.472018 211.728551 
L 146.472018 211.728551 
L 147.138256 209.712438 
L 147.824621 207.703089 
L 148.531045 205.700703 
L 149.257457 203.705482 
L 150.003785 201.717624 
L 150.769954 199.73733 
L 151.555887 197.764795 
L 152.361506 195.800219 
L 153.18673 193.843796 
L 154.031476 191.895724 
L 154.895661 189.956197 
L 155.779197 188.025408 
L 156.681997 186.10355 
L 157.60397 184.190817 
L 158.545024 182.287399 
L 159.505064 180.393487 
L 160.483996 178.509269 
L 161.48172 176.634935 
L 162.498138 174.770672 
L 163.533147 172.916666 
L 164.586644 171.073102 
L 165.658524 169.240166 
L 166.748679 167.418039 
L 167.857 165.606906 
L 168.983378 163.806945 
L 170.127698 162.018339 
L 171.289846 160.241265 
L 172.469708 158.4759 
L 173.667163 156.722423 
L 174.882093 154.981008 
L 176.114376 153.251829 
L 177.363889 151.535059 
L 178.630507 149.830869 
L 179.914104 148.139431 
L 181.21455 146.460913 
L 182.531716 144.795484 
L 183.86547 143.143309 
L 185.215679 141.504554 
L 186.582208 139.879382 
L 187.96492 138.267958 
L 189.363677 136.67044 
L 190.778338 135.08699 
L 192.208764 133.517765 
L 193.654809 131.962923 
L 195.116331 130.422619 
L 196.593182 128.897006 
L 198.085215 127.386239 
L 199.592282 125.890467 
L 201.11423 124.40984 
L 202.650908 122.944506 
L 204.202162 121.494612 
L 205.767838 120.060303 
L 207.347778 118.641722 
L 208.941825 117.239012 
L 210.549819 115.852311 
L 212.171599 114.48176 
L 213.807003 113.127494 
L 215.455868 111.78965 
L 217.118029 110.468362 
L 218.79332 109.163761 
L 220.481572 107.875977 
L 222.182618 106.605141 
L 223.607263 105.560994 
L 223.607263 105.560994 
Q 348.414711 277.343709 434.779181 83.365931 
z
" clip-path="url(#pe2d15e5063)" style="fill: #000080; fill-opacity: 0.5; stroke: #808080; stroke-opacity: 0.5; stroke-width: 0.1"/>
    <path d="M 532.302312 171.176153 
L 532.302312 171.176153 
L 533.354775 173.020306 
L 534.388745 174.874892 
L 535.404118 176.739725 
L 536.400791 178.614618 
L 537.378667 180.499384 
L 538.337646 182.393834 
L 539.277632 184.297779 
L 540.198533 186.211029 
L 541.100256 188.133392 
L 541.98271 190.064676 
L 542.845807 192.004687 
L 543.689462 193.953233 
L 544.513589 195.910117 
L 545.318106 197.875145 
L 546.102934 199.84812 
L 546.867992 201.828844 
L 547.613206 203.817119 
L 548.3385 205.812747 
L 549.043801 207.815528 
L 549.72904 209.825262 
L 550.357403 211.728551 
L 550.357403 211.728551 
Q 348.414711 277.343709 137.242792 299.538772 
L 137.242792 299.538772 
L 137.242792 299.538772 
L 137.031404 297.425978 
L 136.841153 295.311176 
L 136.67206 293.194577 
L 136.524141 291.076394 
L 136.397411 288.956837 
L 136.291883 286.836118 
L 136.207566 284.714451 
L 136.14447 282.592046 
L 136.102601 280.469117 
L 136.081963 278.345875 
L 136.082558 276.222533 
L 136.104386 274.099303 
L 136.147445 271.976397 
L 136.211731 269.854028 
L 136.297236 267.732408 
L 136.403954 265.611749 
L 136.531872 263.492264 
L 136.680978 261.374163 
L 136.851257 259.257659 
L 137.042693 257.142965 
L 137.242792 255.148646 
L 137.242792 255.148646 
Q 348.414711 277.343709 532.302312 171.176153 
z
" clip-path="url(#pe2d15e5063)" style="fill: #000080; fill-opacity: 0.5; stroke: #808080; stroke-opacity: 0.5; stroke-width: 0.1"/>
    <path d="M 550.357403 211.728551 
L 550.357403 211.728551 
L 551.003446 213.751225 
L 551.629231 215.780258 
L 552.234695 217.815447 
L 552.819777 219.85659 
L 553.384418 221.90348 
L 553.928563 223.955915 
L 554.452156 226.013689 
L 554.955146 228.076596 
L 555.437482 230.144429 
L 555.899116 232.216982 
L 556.340001 234.294048 
L 556.760095 236.375419 
L 557.159354 238.460886 
L 557.537738 240.550242 
L 557.895211 242.643277 
L 558.231735 244.739782 
L 558.547278 246.839547 
L 558.841808 248.942363 
L 559.115296 251.048019 
L 559.367713 253.156305 
L 559.599036 255.267009 
L 559.80924 257.379921 
L 559.998305 259.494829 
L 560.166212 261.611522 
L 560.312943 263.729789 
L 560.438486 265.849416 
L 560.542825 267.970193 
L 560.625953 270.091908 
L 560.687859 272.214347 
L 560.728538 274.3373 
L 560.747986 276.460553 
L 560.746201 278.583895 
L 560.723183 280.707112 
L 560.678934 282.829993 
L 560.613459 284.952326 
L 560.526764 287.073898 
L 560.418859 289.194496 
L 560.289752 291.31391 
L 560.139459 293.431927 
L 559.967993 295.548334 
L 559.775373 297.662922 
L 559.586629 299.538772 
L 559.586629 299.538772 
Q 348.414711 277.343709 164.527109 383.511265 
L 164.527109 383.511265 
L 164.527109 383.511265 
L 163.474646 381.667111 
L 162.440676 379.812525 
L 161.425303 377.947693 
L 160.42863 376.072799 
L 159.450755 374.188034 
L 158.491776 372.293583 
L 157.551789 370.389638 
L 156.630888 368.476389 
L 155.729165 366.554026 
L 154.846711 364.622742 
L 153.983614 362.68273 
L 153.139959 360.734185 
L 152.315832 358.7773 
L 151.511315 356.812273 
L 150.726487 354.839298 
L 149.961429 352.858574 
L 149.216215 350.870299 
L 148.490921 348.87467 
L 147.78562 346.871889 
L 147.100381 344.862156 
L 146.435273 342.84567 
L 145.790364 340.822634 
L 145.165716 338.79325 
L 144.561393 336.757722 
L 143.977456 334.716252 
L 143.413962 332.669045 
L 142.870967 330.616305 
L 142.348527 328.558239 
L 141.846694 326.49505 
L 141.365517 324.426947 
L 140.905045 322.354136 
L 140.465323 320.276823 
L 140.046397 318.195217 
L 139.648307 316.109526 
L 139.271093 314.019959 
L 138.914794 311.926724 
L 138.579445 309.83003 
L 138.265078 307.730088 
L 137.971727 305.627108 
L 137.69942 303.521299 
L 137.448184 301.412872 
L 137.242792 299.538772 
L 137.242792 299.538772 
Q 348.414711 277.343709 550.357403 211.728551 
z
" clip-path="url(#pe2d15e5063)" style="fill: #000080; fill-opacity: 0.5; stroke: #808080; stroke-opacity: 0.5; stroke-width: 0.1"/>
    <path d="M 559.586629 299.538772 
L 559.586629 299.538772 
L 559.354123 301.649346 
L 559.100524 303.75749 
L 558.825857 305.862992 
L 558.530148 307.965643 
L 558.213428 310.065231 
L 557.875729 312.161547 
L 557.517083 314.254381 
L 557.137527 316.343525 
L 556.7371 318.428768 
L 556.31584 320.509903 
L 555.87379 322.586721 
L 555.410995 324.659015 
L 554.9275 326.726578 
L 554.423354 328.789202 
L 553.898607 330.846682 
L 553.353312 332.898812 
L 552.787524 334.945386 
L 552.201298 336.9862 
L 551.594694 339.02105 
L 550.967772 341.049732 
L 550.320594 343.072043 
L 549.653227 345.087782 
L 548.965736 347.096747 
L 548.258189 349.098736 
L 547.530659 351.09355 
L 546.783217 353.080989 
L 546.015939 355.060854 
L 545.2289 357.032947 
L 544.42218 358.997072 
L 543.59586 360.953031 
L 542.750022 362.90063 
L 541.88475 364.839673 
L 541.000132 366.769966 
L 540.096255 368.691317 
L 539.17321 370.603533 
L 538.231089 372.506423 
L 537.269987 374.399797 
L 536.29 376.283466 
L 535.291225 378.157241 
L 534.273763 380.020934 
L 533.237715 381.87436 
L 532.302312 383.511265 
L 532.302312 383.511265 
Q 348.414711 277.343709 223.607263 449.126423 
L 223.607263 449.126423 
L 223.607263 449.126423 
L 221.895705 447.86978 
L 220.196798 446.596085 
L 218.510714 445.305465 
L 216.837619 443.998049 
L 215.177682 442.673967 
L 213.531069 441.333352 
L 211.897944 439.976339 
L 210.278471 438.603063 
L 208.672811 437.21366 
L 207.081125 435.808271 
L 205.503572 434.387036 
L 203.940311 432.950096 
L 202.391497 431.497596 
L 200.857285 430.02968 
L 199.337828 428.546497 
L 197.833279 427.048192 
L 196.343788 425.534918 
L 194.869504 424.006825 
L 193.410575 422.464065 
L 191.967146 420.906794 
L 190.539361 419.335166 
L 189.127364 417.749339 
L 187.731295 416.149472 
L 186.351295 414.535725 
L 184.987501 412.908258 
L 183.640049 411.267235 
L 182.309075 409.61282 
L 180.994711 407.945178 
L 179.697089 406.264475 
L 178.416339 404.570881 
L 177.152588 402.864565 
L 175.905963 401.145696 
L 174.676589 399.414447 
L 173.464589 397.670991 
L 172.270084 395.915503 
L 171.093193 394.148158 
L 169.934034 392.369132 
L 168.792723 390.578604 
L 167.669374 388.776752 
L 166.564099 386.963757 
L 165.477009 385.1398 
L 164.527109 383.511265 
L 164.527109 383.511265 
Q 348.414711 277.343709 559.586629 299.538772 
z
" clip-path="url(#pe2d15e5063)" style="fill: #000080; fill-opacity: 0.5; stroke: #808080; stroke-opacity: 0.5; stroke-width: 0.1"/>
    <path d="M 532.302312 383.511265 
L 532.302312 383.511265 
L 531.23146 385.344802 
L 530.142326 387.167539 
L 529.03502 388.979294 
L 527.909652 390.779885 
L 526.766334 392.569133 
L 525.605181 394.346858 
L 524.42631 396.112883 
L 523.229838 397.867031 
L 522.015884 399.609127 
L 520.78457 401.338997 
L 519.536019 403.056467 
L 518.270357 404.761366 
L 516.987709 406.453523 
L 515.688203 408.13277 
L 514.371971 409.798937 
L 513.039143 411.45186 
L 511.689853 413.091371 
L 510.324235 414.717308 
L 508.942427 416.329508 
L 507.544565 417.927809 
L 506.130791 419.512052 
L 504.701246 421.082078 
L 503.256072 422.63773 
L 501.795414 424.178854 
L 500.319418 425.705293 
L 498.828232 427.216897 
L 497.322004 428.713514 
L 495.800886 430.194993 
L 494.265029 431.661188 
L 492.714588 433.111951 
L 491.149717 434.547137 
L 489.570572 435.966604 
L 487.977311 437.370208 
L 486.370095 438.757809 
L 484.749083 440.129269 
L 483.114438 441.484451 
L 481.466323 442.823219 
L 479.804903 444.145439 
L 478.130344 445.450979 
L 476.442814 446.739708 
L 474.742481 448.011498 
L 473.222158 449.126423 
L 473.222158 449.126423 
Q 348.414711 277.343709 392.561663 485.038789 
L 392.561663 485.038789 
L 392.561663 485.038789 
L 390.482539 485.469867 
L 388.399209 485.880132 
L 386.31188 486.269544 
L 384.220762 486.638063 
L 382.126063 486.985653 
L 380.027993 487.312279 
L 377.926762 487.617908 
L 375.822579 487.90251 
L 373.715656 488.166056 
L 371.606202 488.40852 
L 369.49443 488.629878 
L 367.380549 488.830108 
L 365.264772 489.009189 
L 363.14731 489.167103 
L 361.028375 489.303836 
L 358.908178 489.419372 
L 356.786933 489.513702 
L 354.664849 489.586814 
L 352.542141 489.638702 
L 350.41902 489.669361 
L 348.295699 489.678788 
L 346.172389 489.666981 
L 344.049304 489.633942 
L 341.926656 489.579674 
L 339.804656 489.504183 
L 337.683517 489.407476 
L 335.563451 489.289563 
L 333.44467 489.150455 
L 331.327387 488.990167 
L 329.211812 488.808714 
L 327.098157 488.606115 
L 324.986634 488.38239 
L 322.877454 488.137562 
L 320.770827 487.871654 
L 318.666965 487.584693 
L 316.566078 487.276709 
L 314.468375 486.947731 
L 312.374067 486.597793 
L 310.283363 486.22693 
L 308.196472 485.835179 
L 306.113603 485.422579 
L 304.267758 485.038789 
L 304.267758 485.038789 
Q 348.414711 277.343709 532.302312 383.511265 
z
" clip-path="url(#pe2d15e5063)" style="fill: #000080; fill-opacity: 0.5; stroke: #808080; stroke-opacity: 0.5; stroke-width: 0.1"/>
   </g>
   <g id="patch_9">
    <path d="M 348.414711 65.008596 
L 350.538026 65.019213 
L 352.66113 65.051062 
L 354.783808 65.10414 
L 356.90585 65.178442 
L 359.027043 65.27396 
L 361.147175 65.390685 
L 363.266033 65.528605 
L 365.383406 65.687707 
L 367.499082 65.867973 
L 369.61285 66.069388 
L 371.724498 66.291929 
L 373.833816 66.535576 
L 375.940591 66.800303 
L 378.044613 67.086084 
L 380.145673 67.392891 
L 382.24356 67.720693 
L 384.338064 68.069457 
L 386.428975 68.439148 
L 388.516085 68.829729 
L 390.599185 69.241162 
L 392.678067 69.673405 
L 394.752522 70.126414 
L 396.822344 70.600145 
L 398.887324 71.094551 
L 400.947258 71.609581 
L 403.001938 72.145184 
L 405.05116 72.701307 
L 407.094718 73.277894 
L 409.132408 73.874888 
L 411.164027 74.492228 
L 413.18937 75.129853 
L 415.208237 75.7877 
L 417.220423 76.465702 
L 419.22573 77.163791 
L 421.223955 77.881898 
L 423.214899 78.619952 
L 425.198364 79.377877 
L 427.17415 80.155599 
L 429.14206 80.95304 
L 431.101898 81.770119 
L 433.053467 82.606756 
L 434.996572 83.462866 
L 436.931019 84.338364 
L 438.856615 85.233163 
L 440.773166 86.147172 
L 442.680482 87.080301 
L 444.578371 88.032456 
L 446.466644 89.003542 
L 448.345111 89.993462 
L 450.213586 91.002117 
L 452.071881 92.029406 
L 453.91981 93.075226 
L 455.757189 94.139473 
L 457.583834 95.22204 
L 459.399562 96.322819 
L 461.204192 97.4417 
L 462.997542 98.578571 
L 464.779435 99.733318 
L 466.549691 100.905826 
L 468.308134 102.095978 
L 470.054587 103.303655 
L 471.788877 104.528735 
L 473.510829 105.771097 
L 475.220272 107.030616 
L 476.917034 108.307166 
L 478.600946 109.60062 
L 480.27184 110.910847 
L 481.929548 112.237718 
L 483.573905 113.5811 
L 485.204746 114.940857 
L 486.821908 116.316855 
L 488.425229 117.708955 
L 490.014549 119.117018 
L 491.58971 120.540904 
L 493.150553 121.980471 
L 494.696923 123.435573 
L 496.228665 124.906066 
L 497.745625 126.391803 
L 499.247652 127.892635 
L 500.734597 129.408411 
L 502.206309 130.938982 
L 503.662642 132.484192 
L 505.103451 134.043888 
L 506.528591 135.617915 
L 507.93792 137.206113 
L 509.331296 138.808326 
L 510.708581 140.424391 
L 512.069637 142.054149 
L 513.414327 143.697435 
L 514.742518 145.354086 
L 516.054076 147.023936 
L 517.34887 148.706818 
L 518.626771 150.402563 
L 519.88765 152.111002 
L 521.131383 153.831965 
L 522.357844 155.565278 
L 523.566911 157.310769 
L 524.758463 159.068264 
L 525.932381 160.837586 
L 527.088547 162.618558 
L 528.226845 164.411003 
L 529.347163 166.214741 
L 530.449388 168.029592 
L 531.533409 169.855374 
L 532.599119 171.691904 
L 533.64641 173.539 
L 534.675178 175.396477 
L 535.685321 177.264148 
L 536.676736 179.141826 
L 537.649325 181.029325 
L 538.602992 182.926456 
L 539.537639 184.833028 
L 540.453174 186.748851 
L 541.349506 188.673733 
L 542.226544 190.607482 
L 543.084202 192.549905 
L 543.922392 194.500807 
L 544.741032 196.459993 
L 545.540039 198.427268 
L 546.319335 200.402434 
L 547.078839 202.385295 
L 547.818478 204.375651 
L 548.538176 206.373303 
L 549.237862 208.378053 
L 549.917466 210.3897 
L 550.57692 212.408041 
L 551.216158 214.432876 
L 551.835116 216.464003 
L 552.433732 218.501217 
L 553.011946 220.544315 
L 553.569701 222.593093 
L 554.10694 224.647346 
L 554.62361 226.706869 
L 555.11966 228.771456 
L 555.595039 230.840899 
L 556.049701 232.914993 
L 556.483599 234.99353 
L 556.89669 237.076302 
L 557.288934 239.1631 
L 557.66029 241.253716 
L 558.010721 243.347942 
L 558.340194 245.445567 
L 558.648674 247.546381 
L 558.93613 249.650176 
L 559.202535 251.75674 
L 559.447861 253.865862 
L 559.672084 255.977332 
L 559.875182 258.090939 
L 560.057133 260.206471 
L 560.217921 262.323717 
L 560.357528 264.442465 
L 560.475941 266.562503 
L 560.573148 268.683619 
L 560.64914 270.805601 
L 560.703908 272.928237 
L 560.737448 275.051314 
L 560.749756 277.174621 
L 560.74083 279.297944 
L 560.710671 281.421072 
L 560.659284 283.543793 
L 560.586672 285.665893 
L 560.492843 287.787161 
L 560.377806 289.907385 
L 560.241574 292.026352 
L 560.084158 294.143852 
L 559.905576 296.259671 
L 559.705845 298.373598 
L 559.484986 300.485423 
L 559.243019 302.594934 
L 558.979969 304.701919 
L 558.695864 306.806169 
L 558.39073 308.907472 
L 558.064599 311.005619 
L 557.717503 313.1004 
L 557.349477 315.191605 
L 556.960558 317.279025 
L 556.550784 319.362452 
L 556.120197 321.441678 
L 555.668839 323.516493 
L 555.196757 325.586691 
L 554.703996 327.652065 
L 554.190606 329.712408 
L 553.656639 331.767514 
L 553.102148 333.817178 
L 552.527189 335.861195 
L 551.931818 337.89936 
L 551.316096 339.931469 
L 550.680084 341.95732 
L 550.023845 343.976709 
L 549.347446 345.989435 
L 548.650954 347.995297 
L 547.934438 349.994093 
L 547.19797 351.985625 
L 546.441624 353.969692 
L 545.665476 355.946097 
L 544.869603 357.914642 
L 544.054084 359.87513 
L 543.219002 361.827364 
L 542.364439 363.77115 
L 541.490482 365.706294 
L 540.597217 367.632601 
L 539.684734 369.54988 
L 538.753124 371.457938 
L 537.802481 373.356585 
L 536.832899 375.24563 
L 535.844475 377.124886 
L 534.837308 378.994163 
L 533.8115 380.853276 
L 532.767152 382.702037 
L 531.704368 384.540263 
L 530.623256 386.367769 
L 529.523923 388.184373 
L 528.40648 389.989893 
L 527.271037 391.784149 
L 526.117709 393.56696 
L 524.946611 395.338149 
L 523.75786 397.097539 
L 522.551574 398.844954 
L 521.327875 400.580219 
L 520.086885 402.30316 
L 518.828728 404.013605 
L 517.55353 405.711383 
L 516.261417 407.396325 
L 514.952521 409.068261 
L 513.62697 410.727026 
L 512.284899 412.372451 
L 510.92644 414.004375 
L 509.551731 415.622632 
L 508.160908 417.227061 
L 506.754111 418.817503 
L 505.331479 420.393797 
L 503.893156 421.955786 
L 502.439286 423.503314 
L 500.970013 425.036226 
L 499.485485 426.554369 
L 497.98585 428.057591 
L 496.471257 429.545742 
L 494.94186 431.018673 
L 493.397809 432.476236 
L 491.839261 433.918286 
L 490.26637 435.344679 
L 488.679294 436.755272 
L 487.078192 438.149924 
L 485.463223 439.528496 
L 483.83455 440.890849 
L 482.192335 442.236847 
L 480.536742 443.566357 
L 478.867938 444.879244 
L 477.186088 446.175378 
L 475.49136 447.454628 
L 473.783926 448.716868 
L 473.222158 449.126423 
L 474.482839 450.861602 
L 475.050282 450.44791 
L 476.774963 449.17292 
L 478.486809 447.880748 
L 480.185647 446.571522 
L 481.871308 445.245373 
L 483.543624 443.902434 
L 485.202427 442.54284 
L 486.847552 441.166726 
L 488.478833 439.774229 
L 490.096108 438.36549 
L 491.699215 436.940649 
L 493.287994 435.499848 
L 494.862285 434.043231 
L 496.421932 432.570945 
L 497.966778 431.083136 
L 499.496669 429.579953 
L 501.011452 428.061547 
L 502.510976 426.528069 
L 503.99509 424.979673 
L 505.463646 423.416514 
L 506.916497 421.838747 
L 508.353498 420.246531 
L 509.774506 418.640025 
L 511.179378 417.019389 
L 512.567973 415.384785 
L 513.940153 413.736378 
L 515.295781 412.074332 
L 516.634721 410.398812 
L 517.956839 408.709988 
L 519.262002 407.008026 
L 520.550082 405.293099 
L 521.820948 403.565376 
L 523.074473 401.825032 
L 524.310533 400.072239 
L 525.529003 398.307174 
L 526.729762 396.530012 
L 527.912689 394.740932 
L 529.077667 392.940113 
L 530.224579 391.127733 
L 531.353309 389.303976 
L 532.463747 387.469022 
L 533.555779 385.623057 
L 534.629297 383.766263 
L 535.684195 381.898827 
L 536.720365 380.020936 
L 537.737705 378.132777 
L 538.736113 376.234539 
L 539.715489 374.326412 
L 540.675735 372.408587 
L 541.616754 370.481256 
L 542.538454 368.544611 
L 543.440742 366.598845 
L 544.323527 364.644155 
L 545.186722 362.680734 
L 546.030239 360.70878 
L 546.853996 358.72849 
L 547.657908 356.740061 
L 548.441896 354.743692 
L 549.205882 352.739584 
L 549.949789 350.727936 
L 550.673542 348.708949 
L 551.37707 346.682826 
L 552.060301 344.64977 
L 552.723168 342.609983 
L 553.365605 340.563669 
L 553.987546 338.511033 
L 554.588931 336.452281 
L 555.169698 334.387617 
L 555.72979 332.31725 
L 556.269151 330.241385 
L 556.787726 328.16023 
L 557.285464 326.073994 
L 557.762315 323.982885 
L 558.218232 321.887112 
L 558.653169 319.786884 
L 559.067081 317.682413 
L 559.459929 315.573907 
L 559.831673 313.461579 
L 560.182275 311.345638 
L 560.5117 309.226298 
L 560.819916 307.103769 
L 561.106891 304.978265 
L 561.372598 302.849996 
L 561.617009 300.719178 
L 561.840099 298.586022 
L 562.041848 296.450741 
L 562.222234 294.31355 
L 562.381239 292.174662 
L 562.518848 290.034291 
L 562.635046 287.892651 
L 562.729823 285.749955 
L 562.803168 283.60642 
L 562.855075 281.462258 
L 562.885538 279.317684 
L 562.894554 277.172913 
L 562.882122 275.028159 
L 562.848244 272.883636 
L 562.792922 270.739559 
L 562.716163 268.596143 
L 562.617974 266.453602 
L 562.498364 264.312149 
L 562.357347 262.172 
L 562.194935 260.033368 
L 562.011146 257.896467 
L 561.805997 255.76151 
L 561.579509 253.628712 
L 561.331705 251.498285 
L 561.062609 249.370443 
L 560.772249 247.245398 
L 560.460653 245.123363 
L 560.127853 243.00455 
L 559.773881 240.889171 
L 559.398774 238.777437 
L 559.002569 236.66956 
L 558.585305 234.56575 
L 558.147024 232.466218 
L 557.68777 230.371174 
L 557.207589 228.280827 
L 556.706529 226.195386 
L 556.184639 224.11506 
L 555.641973 222.040057 
L 555.078585 219.970584 
L 554.49453 217.906848 
L 553.889867 215.849056 
L 553.264657 213.797413 
L 552.618963 211.752125 
L 551.952848 209.713396 
L 551.266379 207.68143 
L 550.559625 205.656431 
L 549.832657 203.6386 
L 549.085548 201.628139 
L 548.318371 199.62525 
L 547.531204 197.630132 
L 546.724126 195.642986 
L 545.897217 193.66401 
L 545.05056 191.693402 
L 544.18424 189.731359 
L 543.298342 187.778077 
L 542.392957 185.833751 
L 541.468174 183.898576 
L 540.524085 181.972746 
L 539.560786 180.056453 
L 538.578373 178.149888 
L 537.576943 176.253243 
L 536.556597 174.366707 
L 535.517437 172.490468 
L 534.459567 170.624715 
L 533.383093 168.769633 
L 532.288122 166.925409 
L 531.174764 165.092226 
L 530.04313 163.270268 
L 528.893333 161.459718 
L 527.725488 159.660756 
L 526.539713 157.873562 
L 525.336125 156.098315 
L 524.114846 154.335193 
L 522.875996 152.584371 
L 521.6197 150.846025 
L 520.346084 149.120329 
L 519.055276 147.407455 
L 517.747403 145.707575 
L 516.422597 144.020858 
L 515.08099 142.347473 
L 513.722717 140.687588 
L 512.347913 139.041368 
L 510.956716 137.408978 
L 509.549265 135.790582 
L 508.125701 134.186341 
L 506.686166 132.596416 
L 505.230803 131.020965 
L 503.75976 129.460146 
L 502.273181 127.914115 
L 500.771217 126.383028 
L 499.254018 124.867036 
L 497.721735 123.366292 
L 496.174521 121.880945 
L 494.612531 120.411145 
L 493.035922 118.957038 
L 491.444851 117.518769 
L 489.839477 116.096483 
L 488.21996 114.690321 
L 486.586463 113.300424 
L 484.939149 111.926932 
L 483.278183 110.569981 
L 481.60373 109.229707 
L 479.915959 107.906245 
L 478.215037 106.599726 
L 476.501136 105.310282 
L 474.774426 104.03804 
L 473.03508 102.783129 
L 471.283273 101.545675 
L 469.519178 100.325799 
L 467.742973 99.123626 
L 465.954836 97.939274 
L 464.154945 96.772862 
L 462.343479 95.624508 
L 460.520621 94.494325 
L 458.686552 93.382427 
L 456.841457 92.288925 
L 454.985518 91.213928 
L 453.118923 90.157544 
L 451.241858 89.119879 
L 449.354509 88.101035 
L 447.457067 87.101116 
L 445.549721 86.120221 
L 443.632661 85.158448 
L 441.70608 84.215894 
L 439.770169 83.292652 
L 437.825123 82.388815 
L 435.871136 81.504474 
L 433.908404 80.639716 
L 431.937122 79.794628 
L 429.957488 78.969296 
L 427.9697 78.1638 
L 425.973956 77.378222 
L 423.970457 76.612641 
L 421.959402 75.867133 
L 419.940993 75.141772 
L 417.915431 74.436631 
L 415.882919 73.75178 
L 413.84366 73.087289 
L 411.797858 72.443223 
L 409.745718 71.819647 
L 407.687446 71.216623 
L 405.623245 70.634212 
L 403.553325 70.072472 
L 401.47789 69.531458 
L 399.397149 69.011226 
L 397.31131 68.511827 
L 395.220581 68.03331 
L 393.125171 67.575725 
L 391.025291 67.139116 
L 388.92115 66.723527 
L 386.812958 66.329001 
L 384.700926 65.955575 
L 382.585265 65.603288 
L 380.466188 65.272176 
L 378.343905 64.96227 
L 376.21863 64.673602 
L 374.090574 64.406201 
L 371.959951 64.160093 
L 369.826973 63.935304 
L 367.691854 63.731855 
L 365.554807 63.549767 
L 363.416046 63.389059 
L 361.275785 63.249745 
L 359.134238 63.131841 
L 356.991619 63.035358 
L 354.848143 62.960306 
L 352.704023 62.906692 
L 350.559474 62.874521 
L 348.414711 62.863797 
L 348.414711 65.008596 
z
" clip-path="url(#pe2d15e5063)" style="fill: none; stroke: #000000; stroke-width: 0.5; stroke-linejoin: miter"/>
   </g>
   <g id="patch_10">
    <path d="M 473.222158 449.126423 
L 471.498119 450.365888 
L 469.761772 451.58805 
L 468.013291 452.792789 
L 466.252849 453.979982 
L 464.480624 455.149512 
L 462.696792 456.301262 
L 460.901533 457.435116 
L 459.095024 458.550961 
L 457.277448 459.648685 
L 455.448985 460.728179 
L 453.60982 461.789335 
L 451.760134 462.832046 
L 449.900115 463.856209 
L 448.029947 464.86172 
L 446.149817 465.84848 
L 444.259914 466.81639 
L 442.360427 467.765352 
L 440.451545 468.695273 
L 438.533459 469.606058 
L 436.606362 470.497618 
L 434.670445 471.369862 
L 432.725903 472.222704 
L 430.77293 473.056058 
L 428.811722 473.869841 
L 426.842473 474.663971 
L 424.865382 475.43837 
L 422.880646 476.192959 
L 420.888463 476.927664 
L 418.889033 477.64241 
L 416.882556 478.337127 
L 414.869232 479.011744 
L 412.849263 479.666195 
L 410.82285 480.300414 
L 408.790196 480.914337 
L 406.751505 481.507903 
L 404.70698 482.081053 
L 402.656826 482.63373 
L 400.601248 483.165878 
L 398.540452 483.677443 
L 396.474642 484.168376 
L 394.404027 484.638626 
L 392.328813 485.088147 
L 390.249208 485.516893 
L 388.165419 485.924823 
L 386.077655 486.311894 
L 383.986125 486.678069 
L 381.891038 487.023311 
L 379.792603 487.347584 
L 377.69103 487.650858 
L 375.58653 487.933101 
L 373.479312 488.194285 
L 371.369589 488.434385 
L 369.257569 488.653375 
L 367.143466 488.851235 
L 365.027489 489.027944 
L 362.909851 489.183485 
L 360.790764 489.317842 
L 358.670439 489.431002 
L 356.549089 489.522953 
L 354.426925 489.593687 
L 352.30416 489.643196 
L 350.181006 489.671475 
L 348.057676 489.678521 
L 345.934381 489.664334 
L 343.811334 489.628915 
L 341.688747 489.572268 
L 339.566834 489.494398 
L 337.445804 489.395313 
L 335.325872 489.275024 
L 333.207249 489.133541 
L 331.090146 488.97088 
L 328.974776 488.787055 
L 326.86135 488.582087 
L 324.750079 488.355995 
L 322.641174 488.108803 
L 320.534847 487.840533 
L 318.431308 487.551215 
L 316.330767 487.240875 
L 314.233435 486.909546 
L 312.13952 486.557261 
L 310.049233 486.184055 
L 307.962783 485.789964 
L 305.880378 485.37503 
L 304.267758 485.038789 
L 303.82183 487.13672 
L 305.450738 487.476356 
L 307.554178 487.895482 
L 309.661703 488.293553 
L 311.773104 488.670529 
L 313.888169 489.026373 
L 316.006687 489.361049 
L 318.128445 489.674523 
L 320.253232 489.966764 
L 322.380836 490.237743 
L 324.511042 490.487433 
L 326.643639 490.715808 
L 328.778413 490.922847 
L 330.915151 491.108528 
L 333.053638 491.272832 
L 335.193662 491.415744 
L 337.335007 491.537249 
L 339.477461 491.637334 
L 341.620808 491.715991 
L 343.764835 491.77321 
L 345.909327 491.808987 
L 348.054069 491.823317 
L 350.198848 491.816199 
L 352.343448 491.787635 
L 354.487655 491.737626 
L 356.631255 491.666178 
L 358.774033 491.573298 
L 360.915775 491.458995 
L 363.056267 491.323281 
L 365.195295 491.166169 
L 367.332645 490.987675 
L 369.468103 490.787816 
L 371.601456 490.566614 
L 373.73249 490.324089 
L 375.860993 490.060267 
L 377.98675 489.775173 
L 380.109551 489.468836 
L 382.229182 489.141286 
L 384.345432 488.792558 
L 386.458089 488.422684 
L 388.566941 488.031703 
L 390.671778 487.619653 
L 392.77239 487.186575 
L 394.868566 486.732514 
L 396.960096 486.257514 
L 399.046772 485.761622 
L 401.128385 485.244889 
L 403.204727 484.707367 
L 405.275589 484.149107 
L 407.340766 483.570168 
L 409.40005 482.970606 
L 411.453235 482.350481 
L 413.500117 481.709856 
L 415.54049 481.048795 
L 417.57415 480.367363 
L 419.600895 479.665629 
L 421.620521 478.943663 
L 423.632827 478.201537 
L 425.637611 477.439326 
L 427.634673 476.657105 
L 429.623813 475.854953 
L 431.604831 475.03295 
L 433.577531 474.191179 
L 435.541715 473.329722 
L 437.497186 472.448667 
L 439.443749 471.548102 
L 441.38121 470.628117 
L 443.309373 469.688803 
L 445.228047 468.730255 
L 447.13704 467.752569 
L 449.036161 466.755842 
L 450.92522 465.740173 
L 452.804028 464.705666 
L 454.672396 463.652422 
L 456.53014 462.580547 
L 458.377072 461.490149 
L 460.213007 460.381337 
L 462.037763 459.254221 
L 463.851157 458.108914 
L 465.653007 456.94553 
L 467.443133 455.764187 
L 469.221357 454.565001 
L 470.9875 453.348094 
L 472.741386 452.113587 
L 474.482839 450.861602 
L 473.222158 449.126423 
z
" clip-path="url(#pe2d15e5063)" style="fill: none; stroke: #000000; stroke-width: 0.5; stroke-linejoin: miter"/>
   </g>
   <g id="patch_11">
    <path d="M 304.267758 485.038789 
L 302.193049 484.586943 
L 300.122963 484.114372 
L 298.057705 483.621124 
L 295.997483 483.107248 
L 293.942503 482.572797 
L 291.89297 482.017822 
L 289.849089 481.442381 
L 287.811064 480.846529 
L 285.7791 480.230328 
L 283.7534 479.593838 
L 281.734165 478.937123 
L 279.721599 478.260249 
L 277.715901 477.563284 
L 275.717274 476.846297 
L 273.725916 476.109359 
L 271.742027 475.352546 
L 269.765805 474.575931 
L 267.797448 473.779594 
L 265.837153 472.963613 
L 263.885115 472.12807 
L 261.941531 471.273049 
L 260.006593 470.398635 
L 258.080497 469.504916 
L 256.163433 468.591981 
L 254.255595 467.659922 
L 252.357172 466.70883 
L 250.468356 465.738803 
L 248.589333 464.749936 
L 246.720293 463.742329 
L 244.861423 462.716082 
L 243.012908 461.671297 
L 241.174933 460.608081 
L 239.347681 459.526538 
L 237.531337 458.426776 
L 235.72608 457.308907 
L 233.932093 456.173041 
L 232.149553 455.019293 
L 230.37864 453.847777 
L 228.619531 452.658611 
L 226.872401 451.451913 
L 225.137425 450.227805 
L 223.414777 448.986409 
L 221.704628 447.727848 
L 220.007151 446.452249 
L 218.322514 445.15974 
L 216.650886 443.850449 
L 214.992434 442.524507 
L 213.347325 441.182048 
L 211.715722 439.823204 
L 210.097789 438.448113 
L 208.493688 437.056912 
L 206.903578 435.64974 
L 205.32762 434.226737 
L 203.76597 432.788045 
L 202.218785 431.33381 
L 200.686219 429.864176 
L 199.168427 428.379289 
L 197.665558 426.8793 
L 196.177765 425.364357 
L 194.705195 423.834612 
L 193.247995 422.290218 
L 191.806313 420.731329 
L 190.380291 419.158102 
L 188.970072 417.570693 
L 187.575798 415.969262 
L 186.197607 414.353969 
L 184.835638 412.724974 
L 183.490027 411.082442 
L 182.160908 409.426536 
L 180.848415 407.757421 
L 179.552677 406.075265 
L 178.273826 404.380237 
L 177.011989 402.672504 
L 175.767292 400.952239 
L 174.53986 399.219614 
L 173.329815 397.4748 
L 172.137278 395.717974 
L 170.962369 393.94931 
L 169.805205 392.168986 
L 168.665902 390.37718 
L 167.544573 388.57407 
L 166.441331 386.759837 
L 165.356287 384.934663 
L 164.527109 383.511265 
L 162.669659 384.583664 
L 163.507212 386.021441 
L 164.603216 387.865051 
L 165.717602 389.697609 
L 166.850257 391.518932 
L 168.001068 393.328838 
L 169.169921 395.127145 
L 170.356698 396.913674 
L 171.56128 398.688246 
L 172.783548 400.450683 
L 174.023379 402.20081 
L 175.280649 403.938452 
L 176.555232 405.663434 
L 177.847 407.375584 
L 179.155826 409.074731 
L 180.481577 410.760705 
L 181.824121 412.433338 
L 183.183324 414.092462 
L 184.559051 415.737911 
L 185.951162 417.36952 
L 187.35952 418.987127 
L 188.783983 420.59057 
L 190.22441 422.179689 
L 191.680655 423.754324 
L 193.152573 425.314318 
L 194.640018 426.859515 
L 196.142839 428.38976 
L 197.660888 429.904901 
L 199.194012 431.404786 
L 200.742059 432.889266 
L 202.304872 434.35819 
L 203.882296 435.811414 
L 205.474173 437.24879 
L 207.080344 438.670177 
L 208.700649 440.075431 
L 210.334924 441.464411 
L 211.983008 442.83698 
L 213.644735 444.193 
L 215.319938 445.532335 
L 217.008451 446.854851 
L 218.710104 448.160416 
L 220.424728 449.4489 
L 222.152151 450.720173 
L 223.8922 451.974109 
L 225.644701 453.210582 
L 227.409479 454.429468 
L 229.186357 455.630646 
L 230.975158 456.813996 
L 232.775703 457.979398 
L 234.587812 459.126737 
L 236.411303 460.255898 
L 238.245994 461.366768 
L 240.091703 462.459236 
L 241.948243 463.533192 
L 243.81543 464.58853 
L 245.693077 465.625143 
L 247.580996 466.642928 
L 249.478998 467.641784 
L 251.386894 468.621609 
L 253.304493 469.582308 
L 255.231602 470.523782 
L 257.16803 471.445939 
L 259.113582 472.348685 
L 261.068064 473.231931 
L 263.031281 474.095589 
L 265.003036 474.939572 
L 266.983133 475.763795 
L 268.971372 476.568176 
L 270.967556 477.352635 
L 272.971484 478.117093 
L 274.982956 478.861474 
L 277.001772 479.585704 
L 279.027729 480.289709 
L 281.060624 480.97342 
L 283.100255 481.636769 
L 285.146417 482.279688 
L 287.198906 482.902113 
L 289.257517 483.503983 
L 291.322043 484.085238 
L 293.392279 484.645818 
L 295.468016 485.185668 
L 297.549049 485.704734 
L 299.635167 486.202964 
L 301.726164 486.680309 
L 303.82183 487.13672 
L 304.267758 485.038789 
z
" clip-path="url(#pe2d15e5063)" style="fill: none; stroke: #000000; stroke-width: 0.5; stroke-linejoin: miter"/>
   </g>
   <g id="patch_12">
    <path d="M 164.527109 383.511265 
L 163.474646 381.667111 
L 162.440676 379.812525 
L 161.425303 377.947693 
L 160.42863 376.072799 
L 159.450755 374.188034 
L 158.491776 372.293583 
L 157.551789 370.389638 
L 156.630888 368.476389 
L 155.729165 366.554026 
L 154.846711 364.622742 
L 153.983614 362.68273 
L 153.139959 360.734185 
L 152.315832 358.7773 
L 151.511315 356.812273 
L 150.726487 354.839298 
L 149.961429 352.858574 
L 149.216215 350.870299 
L 148.490921 348.87467 
L 147.78562 346.871889 
L 147.100381 344.862156 
L 146.435273 342.84567 
L 145.790364 340.822634 
L 145.165716 338.79325 
L 144.561393 336.757722 
L 143.977456 334.716252 
L 143.413962 332.669045 
L 142.870967 330.616305 
L 142.348527 328.558239 
L 141.846694 326.49505 
L 141.365517 324.426947 
L 140.905045 322.354136 
L 140.465323 320.276823 
L 140.046397 318.195217 
L 139.648307 316.109526 
L 139.271093 314.019959 
L 138.914794 311.926724 
L 138.579445 309.83003 
L 138.265078 307.730088 
L 137.971727 305.627108 
L 137.69942 303.521299 
L 137.448184 301.412872 
L 137.242792 299.538772 
L 135.109743 299.762964 
L 135.317209 301.655995 
L 135.570983 303.785719 
L 135.84604 305.912799 
L 136.142355 308.037021 
L 136.459896 310.158175 
L 136.798633 312.276047 
L 137.158532 314.390426 
L 137.539555 316.5011 
L 137.941666 318.607859 
L 138.364825 320.710491 
L 138.808988 322.808786 
L 139.274111 324.902535 
L 139.760148 326.991529 
L 140.267051 329.075557 
L 140.794768 331.154412 
L 141.343247 333.227887 
L 141.912433 335.295773 
L 142.502269 337.357864 
L 143.112696 339.413953 
L 143.743653 341.463835 
L 144.395077 343.507306 
L 145.066903 345.54416 
L 145.759063 347.574194 
L 146.471489 349.597205 
L 147.204109 351.612991 
L 147.95685 353.62135 
L 148.729637 355.622082 
L 149.522392 357.614985 
L 150.335035 359.599862 
L 151.167487 361.576513 
L 152.019663 363.544741 
L 152.891479 365.504348 
L 153.782847 367.45514 
L 154.693678 369.396921 
L 155.62388 371.329496 
L 156.573362 373.252673 
L 157.542028 375.166259 
L 158.52978 377.070063 
L 159.536522 378.963894 
L 160.56215 380.847564 
L 161.606564 382.720883 
L 162.669659 384.583664 
L 164.527109 383.511265 
z
" clip-path="url(#pe2d15e5063)" style="fill: none; stroke: #000000; stroke-width: 0.5; stroke-linejoin: miter"/>
   </g>
   <g id="patch_13">
    <path d="M 137.242792 299.538772 
L 137.031404 297.425978 
L 136.841153 295.311176 
L 136.67206 293.194577 
L 136.524141 291.076394 
L 136.397411 288.956837 
L 136.291883 286.836118 
L 136.207566 284.714451 
L 136.14447 282.592046 
L 136.102601 280.469117 
L 136.081963 278.345875 
L 136.082558 276.222533 
L 136.104386 274.099303 
L 136.147445 271.976397 
L 136.211731 269.854028 
L 136.297236 267.732408 
L 136.403954 265.611749 
L 136.531872 263.492264 
L 136.680978 261.374163 
L 136.851257 259.257659 
L 137.042693 257.142965 
L 137.242792 255.148646 
L 135.109743 254.924453 
L 134.907622 256.938917 
L 134.714253 259.074972 
L 134.542253 261.212855 
L 134.391641 263.35235 
L 134.262431 265.493245 
L 134.154636 267.635324 
L 134.068266 269.778375 
L 134.003332 271.922182 
L 133.959838 274.066531 
L 133.937789 276.211208 
L 133.937188 278.355998 
L 133.958035 280.500687 
L 134.000326 282.64506 
L 134.06406 284.788903 
L 134.149228 286.932001 
L 134.255822 289.074141 
L 134.383833 291.215108 
L 134.533246 293.354687 
L 134.704047 295.492666 
L 134.896219 297.628829 
L 135.109743 299.762964 
L 137.242792 299.538772 
z
" clip-path="url(#pe2d15e5063)" style="fill: none; stroke: #000000; stroke-width: 0.5; stroke-linejoin: miter"/>
   </g>
   <g id="patch_14">
    <path d="M 137.242792 255.148646 
L 137.475298 253.038072 
L 137.728897 250.929928 
L 138.003564 248.824426 
L 138.299273 246.721775 
L 138.615993 244.622187 
L 138.953693 242.525871 
L 139.312338 240.433036 
L 139.691894 238.343893 
L 140.092321 236.258649 
L 140.513581 234.177515 
L 140.955631 232.100696 
L 141.418426 230.028402 
L 141.901921 227.96084 
L 142.406067 225.898215 
L 142.930814 223.840735 
L 143.476109 221.788606 
L 144.041898 219.742032 
L 144.628123 217.701218 
L 145.234727 215.666368 
L 145.861649 213.637686 
L 146.508827 211.615374 
L 147.176194 209.599635 
L 147.863686 207.590671 
L 148.571232 205.588682 
L 149.298762 203.593868 
L 150.046204 201.606429 
L 150.813483 199.626564 
L 151.600521 197.65447 
L 152.407241 195.690346 
L 153.233561 193.734386 
L 154.079399 191.786788 
L 154.944671 189.847745 
L 155.829289 187.917451 
L 156.733166 185.996101 
L 157.656211 184.083884 
L 158.598332 182.180994 
L 159.559434 180.28762 
L 160.539421 178.403952 
L 161.538196 176.530177 
L 162.555658 174.666484 
L 163.591706 172.813058 
L 164.646236 170.970085 
L 165.719143 169.13775 
L 166.810319 167.316235 
L 167.919656 165.505722 
L 169.047042 163.706394 
L 170.192364 161.918429 
L 171.355509 160.142006 
L 172.536359 158.377304 
L 173.734797 156.624498 
L 174.950703 154.883764 
L 176.183956 153.155276 
L 177.434431 151.439206 
L 178.702004 149.735727 
L 179.986548 148.045008 
L 181.287935 146.36722 
L 182.606034 144.702529 
L 183.940714 143.051102 
L 185.291841 141.413104 
L 186.659281 139.788699 
L 188.042896 138.178049 
L 189.442548 136.581316 
L 190.858097 134.998659 
L 192.289401 133.430236 
L 193.736318 131.876204 
L 195.198703 130.33672 
L 196.676409 128.811935 
L 198.169289 127.302004 
L 199.677193 125.807077 
L 201.199971 124.327303 
L 202.73747 122.862831 
L 204.289537 121.413807 
L 205.856016 119.980376 
L 207.436751 118.562681 
L 209.031584 117.160864 
L 210.640355 115.775065 
L 212.262903 114.405422 
L 213.899066 113.052074 
L 215.548681 111.715154 
L 217.211582 110.394798 
L 218.887603 109.091136 
L 220.576577 107.804299 
L 222.278335 106.534416 
L 223.607263 105.560994 
L 222.346582 103.825815 
L 221.00423 104.809069 
L 219.285283 106.091779 
L 217.579249 107.391615 
L 215.886298 108.708445 
L 214.2066 110.042139 
L 212.540322 111.392562 
L 210.887632 112.759581 
L 209.248694 114.143058 
L 207.623673 115.542855 
L 206.012731 116.958832 
L 204.416029 118.390847 
L 202.833727 119.838758 
L 201.265983 121.302418 
L 199.712953 122.781683 
L 198.174794 124.276404 
L 196.651658 125.786431 
L 195.143699 127.311614 
L 193.651066 128.851801 
L 192.17391 130.406836 
L 190.712378 131.976564 
L 189.266616 133.56083 
L 187.836768 135.159473 
L 186.422978 136.772335 
L 185.025387 138.399254 
L 183.644135 140.040067 
L 182.27936 141.694611 
L 180.931199 143.362719 
L 179.599785 145.044225 
L 178.285253 146.738961 
L 176.987734 148.446757 
L 175.707357 150.167443 
L 174.444251 151.900847 
L 173.198542 153.646795 
L 171.970354 155.405112 
L 170.75981 157.175623 
L 169.567032 158.958151 
L 168.392139 160.752517 
L 167.235247 162.558542 
L 166.096474 164.376046 
L 164.975932 166.204846 
L 163.873733 168.04476 
L 162.789989 169.895604 
L 161.724807 171.757193 
L 160.678294 173.62934 
L 159.650554 175.511858 
L 158.641691 177.40456 
L 157.651805 179.307256 
L 156.680995 181.219755 
L 155.729358 183.141866 
L 154.796989 185.073397 
L 153.883982 187.014156 
L 152.990428 188.963947 
L 152.116416 190.922576 
L 151.262034 192.889848 
L 150.427367 194.865564 
L 149.612499 196.849529 
L 148.817511 198.841542 
L 148.042482 200.841406 
L 147.28749 202.84892 
L 146.552611 204.863883 
L 145.837918 206.886095 
L 145.143482 208.915352 
L 144.469373 210.951452 
L 143.815659 212.99419 
L 143.182404 215.043364 
L 142.569673 217.098768 
L 141.977526 219.160196 
L 141.406022 221.227443 
L 140.855219 223.300301 
L 140.325172 225.378564 
L 139.815933 227.462023 
L 139.327555 229.55047 
L 138.860085 231.643696 
L 138.41357 233.741492 
L 137.988055 235.843649 
L 137.583582 237.949955 
L 137.200193 240.060201 
L 136.837925 242.174175 
L 136.496814 244.291666 
L 136.176895 246.412463 
L 135.878199 248.536352 
L 135.600757 250.663122 
L 135.344596 252.79256 
L 135.109743 254.924453 
L 137.242792 255.148646 
z
" clip-path="url(#pe2d15e5063)" style="fill: none; stroke: #000000; stroke-width: 0.5; stroke-linejoin: miter"/>
   </g>
   <g id="patch_15">
    <path d="M 223.607263 105.560994 
L 225.331302 104.32153 
L 227.067649 103.099367 
L 228.816131 101.894629 
L 230.576572 100.707436 
L 232.348797 99.537906 
L 234.132629 98.386156 
L 235.927889 97.252302 
L 237.734397 96.136457 
L 239.551973 95.038733 
L 241.380436 93.959239 
L 243.219601 92.898083 
L 245.069287 91.855371 
L 246.929306 90.831209 
L 248.799475 89.825697 
L 250.679604 88.838937 
L 252.569507 87.871028 
L 254.468995 86.922065 
L 256.377877 85.992145 
L 258.295962 85.081359 
L 260.223059 84.1898 
L 262.158976 83.317556 
L 264.103518 82.464714 
L 266.056491 81.63136 
L 268.0177 80.817577 
L 269.986948 80.023446 
L 271.964039 79.249048 
L 273.948775 78.494458 
L 275.940958 77.759754 
L 277.940388 77.045007 
L 279.946865 76.350291 
L 281.960189 75.675673 
L 283.980159 75.021223 
L 286.006571 74.387004 
L 288.039225 73.773081 
L 290.077916 73.179514 
L 292.122441 72.606364 
L 294.172595 72.053688 
L 296.228173 71.52154 
L 298.288969 71.009974 
L 300.354779 70.519042 
L 302.425394 70.048792 
L 304.500608 69.599271 
L 306.580213 69.170524 
L 308.664002 68.762595 
L 310.751766 68.375523 
L 312.843296 68.009348 
L 314.938384 67.664107 
L 317.036818 67.339833 
L 319.138391 67.036559 
L 321.242891 66.754316 
L 323.350109 66.493132 
L 325.459833 66.253033 
L 327.571852 66.034042 
L 329.685955 65.836183 
L 331.801932 65.659473 
L 333.91957 65.503933 
L 336.038657 65.369575 
L 338.158982 65.256416 
L 340.280332 65.164464 
L 342.402496 65.093731 
L 344.525261 65.044222 
L 346.648415 65.015943 
L 348.414711 65.008596 
L 348.414711 62.863797 
L 346.630573 62.871218 
L 344.485973 62.899783 
L 342.341766 62.949792 
L 340.198167 63.02124 
L 338.055388 63.11412 
L 335.913646 63.228423 
L 333.773154 63.364137 
L 331.634126 63.521249 
L 329.496776 63.699743 
L 327.361318 63.899601 
L 325.227965 64.120804 
L 323.096931 64.363328 
L 320.968429 64.627151 
L 318.842671 64.912245 
L 316.71987 65.218582 
L 314.600239 65.546131 
L 312.483989 65.89486 
L 310.371332 66.264734 
L 308.26248 66.655715 
L 306.157643 67.067765 
L 304.057031 67.500842 
L 301.960855 67.954904 
L 299.869325 68.429904 
L 297.782649 68.925795 
L 295.701036 69.442528 
L 293.624695 69.980051 
L 291.553832 70.53831 
L 289.488656 71.11725 
L 287.429372 71.716812 
L 285.376186 72.336936 
L 283.329304 72.977561 
L 281.288931 73.638623 
L 279.255271 74.320054 
L 277.228526 75.021788 
L 275.2089 75.743754 
L 273.196594 76.48588 
L 271.19181 77.248092 
L 269.194748 78.030312 
L 267.205609 78.832464 
L 265.22459 79.654467 
L 263.25189 80.496239 
L 261.287706 81.357695 
L 259.332235 82.23875 
L 257.385672 83.139315 
L 255.448212 84.059301 
L 253.520048 84.998614 
L 251.601374 85.957162 
L 249.692381 86.934849 
L 247.79326 87.931576 
L 245.904201 88.947244 
L 244.025394 89.981752 
L 242.157025 91.034996 
L 240.299281 92.10687 
L 238.45235 93.197268 
L 236.616414 94.306081 
L 234.791658 95.433197 
L 232.978264 96.578504 
L 231.176414 97.741887 
L 229.386288 98.923231 
L 227.608064 100.122416 
L 225.841921 101.339323 
L 224.088035 102.573831 
L 222.346582 103.825815 
L 223.607263 105.560994 
z
" clip-path="url(#pe2d15e5063)" style="fill: none; stroke: #000000; stroke-width: 0.5; stroke-linejoin: miter"/>
   </g>
   <g id="text_1">
    <text style="font: 3px 'DejaVu Sans', 'Bitstream Vera Sans', 'Computer Modern Sans Serif', 'Lucida Grande', 'Verdana', 'Geneva', 'Lucid', 'Arial', 'Helvetica', 'Avant Garde', sans-serif; text-anchor: start" x="554.807801" y="211.544037" transform="rotate(-18 554.807801 211.544037)">Universit Joseph Ki-Zerbo</text>
   </g>
   <g id="text_2">
    <text style="font: 3px 'DejaVu Sans', 'Bitstream Vera Sans', 'Computer Modern Sans Serif', 'Lucida Grande', 'Verdana', 'Geneva', 'Lucid', 'Arial', 'Helvetica', 'Avant Garde', sans-serif; text-anchor: start" x="392.338661" y="489.47162" transform="rotate(-282 392.338661 489.47162)">Nazi Boni University</text>
   </g>
   <g id="text_3">
    <text style="font: 3px 'DejaVu Sans', 'Bitstream Vera Sans', 'Computer Modern Sans Serif', 'Lucida Grande', 'Verdana', 'Geneva', 'Lucid', 'Arial', 'Helvetica', 'Avant Garde', sans-serif; text-anchor: end" x="222.056531" y="453.301986" transform="rotate(-54 222.056531 453.301986)">Universit Ouaga II</text>
   </g>
   <g id="text_4">
    <text style="font: 3px 'DejaVu Sans', 'Bitstream Vera Sans', 'Computer Modern Sans Serif', 'Lucida Grande', 'Verdana', 'Geneva', 'Lucid', 'Arial', 'Helvetica', 'Avant Garde', sans-serif; text-anchor: end" x="142.744575" y="345.368407" transform="rotate(-18 142.744575 345.368407)">Centre Muraz</text>
   </g>
   <g id="text_5">
    <text style="font: 3px 'DejaVu Sans', 'Bitstream Vera Sans', 'Computer Modern Sans Serif', 'Lucida Grande', 'Verdana', 'Geneva', 'Lucid', 'Arial', 'Helvetica', 'Avant Garde', sans-serif; text-anchor: end" x="131.79" y="278.483474" transform="rotate(-0 131.79 278.483474)">International Institute for Water and Environmental Engineering</text>
   </g>
   <g id="text_6">
    <text style="font: 3px 'DejaVu Sans', 'Bitstream Vera Sans', 'Computer Modern Sans Serif', 'Lucida Grande', 'Verdana', 'Geneva', 'Lucid', 'Arial', 'Helvetica', 'Avant Garde', sans-serif; text-anchor: end" x="160.242325" y="170.018419" transform="rotate(-330 160.242325 170.018419)">Centre National de la Recherche Scientifique et Technologique</text>
   </g>
   <g id="text_7">
    <text style="font: 3px 'DejaVu Sans', 'Bitstream Vera Sans', 'Computer Modern Sans Serif', 'Lucida Grande', 'Verdana', 'Geneva', 'Lucid', 'Arial', 'Helvetica', 'Avant Garde', sans-serif; text-anchor: end" x="280.390012" y="71.673573" transform="rotate(-288 280.390012 71.673573)">University of Koudougou</text>
   </g>
  </g>
 </g>
 <defs>
  <clipPath id="pe2d15e5063">
   <path d="M 573.618618 277.343709 
C 573.618618 247.770203 567.793282 218.484262 556.475991 191.161905 
C 545.1587 163.839548 528.569547 139.012126 507.65792 118.100499 
C 486.746294 97.188872 461.918872 80.599719 434.596515 69.282428 
C 407.274158 57.965138 377.988217 52.139802 348.414711 52.139802 
C 318.841204 52.139802 289.555263 57.965138 262.232906 69.282428 
C 234.910549 80.599719 210.083127 97.188872 189.171501 118.100499 
C 168.259874 139.012126 151.670721 163.839548 140.35343 191.161905 
C 129.036139 218.484262 123.210804 247.770203 123.210804 277.343709 
C 123.210804 306.917215 129.036139 336.203156 140.35343 363.525513 
C 151.670721 390.84787 168.259874 415.675292 189.171501 436.586919 
C 210.083127 457.498545 234.910549 474.087698 262.232906 485.404989 
C 289.555263 496.72228 318.841204 502.547616 348.414711 502.547616 
C 377.988217 502.547616 407.274158 496.72228 434.596515 485.404989 
C 461.918872 474.087698 486.746294 457.498545 507.65792 436.586919 
C 528.569547 415.675292 545.1587 390.84787 556.475991 363.525513 
C 567.793282 336.203156 573.618618 306.917215 573.618618 277.343709 
M 348.414711 277.343709 
C 348.414711 277.343709 348.414711 277.343709 348.414711 277.343709 
C 348.414711 277.343709 348.414711 277.343709 348.414711 277.343709 
C 348.414711 277.343709 348.414711 277.343709 348.414711 277.343709 
C 348.414711 277.343709 348.414711 277.343709 348.414711 277.343709 
C 348.414711 277.343709 348.414711 277.343709 348.414711 277.343709 
C 348.414711 277.343709 348.414711 277.343709 348.414711 277.343709 
C 348.414711 277.343709 348.414711 277.343709 348.414711 277.343709 
C 348.414711 277.343709 348.414711 277.343709 348.414711 277.343709 
C 348.414711 277.343709 348.414711 277.343709 348.414711 277.343709 
C 348.414711 277.343709 348.414711 277.343709 348.414711 277.343709 
C 348.414711 277.343709 348.414711 277.343709 348.414711 277.343709 
C 348.414711 277.343709 348.414711 277.343709 348.414711 277.343709 
C 348.414711 277.343709 348.414711 277.343709 348.414711 277.343709 
C 348.414711 277.343709 348.414711 277.343709 348.414711 277.343709 
C 348.414711 277.343709 348.414711 277.343709 348.414711 277.343709 
C 348.414711 277.343709 348.414711 277.343709 348.414711 277.343709 
z
"/>
  </clipPath>
 </defs>
</svg>
