<?xml version="1.0" encoding="utf-8" standalone="no"?>
<!DOCTYPE svg PUBLIC "-//W3C//DTD SVG 1.1//EN"
  "http://www.w3.org/Graphics/SVG/1.1/DTD/svg11.dtd">
<svg xmlns:xlink="http://www.w3.org/1999/xlink" width="607.813288pt" height="624.597172pt" viewBox="0 0 607.813288 624.597172" xmlns="http://www.w3.org/2000/svg" version="1.1">
 <metadata>
  <rdf:RDF xmlns:dc="http://purl.org/dc/elements/1.1/" xmlns:cc="http://creativecommons.org/ns#" xmlns:rdf="http://www.w3.org/1999/02/22-rdf-syntax-ns#">
   <cc:Work>
    <dc:type rdf:resource="http://purl.org/dc/dcmitype/StillImage"/>
    <dc:date>2024-11-16T03:54:58.598641</dc:date>
    <dc:format>image/svg+xml</dc:format>
    <dc:creator>
     <cc:Agent>
      <dc:title>Matplotlib v3.8.4, https://matplotlib.org/</dc:title>
     </cc:Agent>
    </dc:creator>
   </cc:Work>
  </rdf:RDF>
 </metadata>
 <defs>
  <style type="text/css">*{stroke-linejoin: round; stroke-linecap: butt}</style>
 </defs>
 <g id="figure_1">
  <g id="patch_1">
   <path d="M 0 624.597172 
L 607.813288 624.597172 
L 607.813288 0 
L 0 0 
z
" style="fill: #ffffff"/>
  </g>
  <g id="axes_1">
   <g id="patch_2">
    <path d="M 311.135876 50.895852 
L 313.59365 50.908141 
L 316.051179 50.945007 
L 318.508216 51.006446 
L 320.964517 51.092451 
L 323.419834 51.203015 
L 325.873923 51.338126 
L 328.326538 51.497771 
L 330.777434 51.681934 
L 333.226366 51.890596 
L 335.673089 52.123736 
L 338.117358 52.381332 
L 340.558929 52.663357 
L 342.997557 52.969783 
L 345.433 53.30058 
L 347.865013 53.655714 
L 350.293353 54.03515 
L 352.717777 54.438851 
L 355.138044 54.866775 
L 357.55391 55.318879 
L 359.965134 55.79512 
L 362.371475 56.295448 
L 364.772693 56.819815 
L 367.168547 57.368167 
L 369.558798 57.940449 
L 371.943207 58.536606 
L 374.321535 59.156576 
L 376.693544 59.800298 
L 379.058998 60.467707 
L 381.41766 61.158738 
L 383.769293 61.87332 
L 386.113663 62.611382 
L 388.450536 63.37285 
L 390.779677 64.157649 
L 393.100853 64.9657 
L 395.413834 65.796921 
L 397.718386 66.651231 
L 400.014281 67.528543 
L 402.301287 68.428769 
L 404.579177 69.351821 
L 406.847723 70.297604 
L 409.106698 71.266026 
L 411.355876 72.256988 
L 413.595032 73.270392 
L 415.823942 74.306137 
L 418.042383 75.364119 
L 420.250134 76.444231 
L 422.446973 77.546367 
L 424.632682 78.670416 
L 426.807041 79.816266 
L 428.969833 80.983801 
L 431.120841 82.172906 
L 433.259851 83.38346 
L 435.386649 84.615344 
L 437.501022 85.868434 
L 439.602758 87.142605 
L 441.691648 88.437729 
L 443.767482 89.753677 
L 445.830054 91.090317 
L 447.879156 92.447516 
L 449.914584 93.825137 
L 451.936134 95.223044 
L 453.943604 96.641095 
L 455.936793 98.079151 
L 457.915503 99.537066 
L 459.879535 101.014694 
L 461.828692 102.511889 
L 463.76278 104.0285 
L 465.681606 105.564376 
L 467.584977 107.119363 
L 469.472704 108.693306 
L 471.344597 110.286047 
L 473.200469 111.897427 
L 475.040135 113.527285 
L 476.863411 115.175458 
L 478.670114 116.841781 
L 480.460063 118.526087 
L 482.233081 120.228208 
L 483.988989 121.947974 
L 485.727611 123.685212 
L 487.448775 125.43975 
L 489.152307 127.211412 
L 490.838038 129.00002 
L 492.505799 130.805395 
L 494.155423 132.627358 
L 495.786746 134.465725 
L 497.399603 136.320313 
L 498.993834 138.190937 
L 500.56928 140.07741 
L 502.125782 141.979542 
L 503.663186 143.897144 
L 505.181337 145.830024 
L 506.680083 147.777989 
L 508.159275 149.740843 
L 509.618765 151.718391 
L 511.058407 153.710435 
L 512.478057 155.716775 
L 513.877573 157.737212 
L 515.256815 159.771542 
L 516.615645 161.819562 
L 517.953927 163.881069 
L 519.271528 165.955854 
L 520.568315 168.043712 
L 521.844159 170.144433 
L 523.098932 172.257808 
L 524.332509 174.383624 
L 525.544767 176.521669 
L 526.735584 178.67173 
L 527.904841 180.833592 
L 529.052422 183.007037 
L 530.178211 185.19185 
L 531.282096 187.387811 
L 532.363967 189.594701 
L 533.423715 191.812299 
L 534.461234 194.040384 
L 535.476421 196.278732 
L 536.469174 198.52712 
L 537.439394 200.785323 
L 538.386984 203.053115 
L 539.311849 205.330269 
L 540.213896 207.616558 
L 541.093036 209.911753 
L 541.949181 212.215625 
L 542.782244 214.527942 
L 543.592143 216.848475 
L 544.378796 219.17699 
L 545.142125 221.513255 
L 545.882054 223.857037 
L 546.598508 226.208101 
L 547.291417 228.566211 
L 547.96071 230.931133 
L 548.542632 233.064464 
L 550.94068 232.421909 
L 550.35288 230.267029 
L 549.676826 227.878219 
L 548.976919 225.496289 
L 548.253228 223.121478 
L 547.505825 220.754021 
L 546.734785 218.394158 
L 545.940186 216.042122 
L 545.122106 213.69815 
L 544.280628 211.362475 
L 543.415836 209.035332 
L 542.527816 206.716953 
L 541.616657 204.407571 
L 540.68245 202.107415 
L 539.725288 199.816716 
L 538.745268 197.535703 
L 537.742487 195.264604 
L 536.717046 193.003646 
L 535.669046 190.753055 
L 534.598594 188.513057 
L 533.505795 186.283876 
L 532.39076 184.065733 
L 531.253599 181.858852 
L 530.094427 179.663452 
L 528.913359 177.479754 
L 527.710513 175.307975 
L 526.486011 173.148333 
L 525.239973 171.001044 
L 523.972525 168.866322 
L 522.683794 166.744382 
L 521.373908 164.635435 
L 520.042998 162.539691 
L 518.691198 160.457362 
L 517.318643 158.388654 
L 515.925469 156.333775 
L 514.511817 154.29293 
L 513.077827 152.266324 
L 511.623643 150.254159 
L 510.149411 148.256636 
L 508.655277 146.273954 
L 507.141392 144.306313 
L 505.607906 142.353909 
L 504.054973 140.416938 
L 502.482748 138.495592 
L 500.891389 136.590064 
L 499.281055 134.700545 
L 497.651906 132.827223 
L 496.004106 130.970286 
L 494.337819 129.12992 
L 492.653212 127.306309 
L 490.950453 125.499634 
L 489.229713 123.710077 
L 487.491164 121.937817 
L 485.73498 120.18303 
L 483.961335 118.445893 
L 482.170409 116.726578 
L 480.362379 115.025259 
L 478.537426 113.342105 
L 476.695734 111.677284 
L 474.837485 110.030963 
L 472.962867 108.403306 
L 471.072066 106.794477 
L 469.165271 105.204636 
L 467.242674 103.633942 
L 465.304466 102.082552 
L 463.350842 100.550621 
L 461.381996 99.038303 
L 459.398125 97.545749 
L 457.399429 96.073108 
L 455.386106 94.620527 
L 453.358359 93.188151 
L 451.316389 91.776124 
L 449.260401 90.384588 
L 447.190601 89.01368 
L 445.107196 87.663538 
L 443.010393 86.334298 
L 440.900404 85.026092 
L 438.777437 83.739051 
L 436.641707 82.473303 
L 434.493427 81.228976 
L 432.33281 80.006193 
L 430.160074 78.805078 
L 427.975436 77.625749 
L 425.779114 76.468325 
L 423.571328 75.332923 
L 421.352298 74.219654 
L 419.122247 73.128631 
L 416.881397 72.059962 
L 414.629973 71.013756 
L 412.368199 69.990115 
L 410.096302 68.989143 
L 407.81451 68.010939 
L 405.523049 67.055602 
L 403.22215 66.123227 
L 400.912042 65.213908 
L 398.592957 64.327734 
L 396.265126 63.464795 
L 393.928783 62.625177 
L 391.58416 61.808965 
L 389.231492 61.016239 
L 386.871015 60.247078 
L 384.502964 59.501561 
L 382.127577 58.779761 
L 379.74509 58.081751 
L 377.355743 57.4076 
L 374.959774 56.757375 
L 372.557422 56.131143 
L 370.148929 55.528965 
L 367.734534 54.950902 
L 365.314479 54.397011 
L 362.889006 53.867348 
L 360.458359 53.361965 
L 358.022779 52.880914 
L 355.58251 52.424243 
L 353.137797 51.991996 
L 350.688883 51.584218 
L 348.236014 51.200949 
L 345.779436 50.842228 
L 343.319393 50.50809 
L 340.856131 50.198568 
L 338.389898 49.913695 
L 335.920939 49.653497 
L 333.449502 49.418002 
L 330.975833 49.207232 
L 328.500181 49.021209 
L 326.022792 48.859952 
L 323.543914 48.723476 
L 321.063796 48.611795 
L 318.582685 48.524921 
L 316.100829 48.462861 
L 313.618476 48.425623 
L 311.135876 48.41321 
z
" clip-path="url(#p9f14df0410)" style="fill: #000080"/>
   </g>
   <g id="patch_3">
    <path d="M 548.542632 233.064464 
L 549.166881 235.441672 
L 549.767327 237.825004 
L 550.343909 240.214222 
L 550.896572 242.609085 
L 551.425258 245.009356 
L 551.929916 247.414793 
L 552.410494 249.825156 
L 552.866945 252.240205 
L 553.299223 254.659697 
L 553.707285 257.083391 
L 554.09109 259.511044 
L 554.4506 261.942414 
L 554.785779 264.377258 
L 555.096593 266.815331 
L 555.38301 269.256391 
L 555.645004 271.700192 
L 555.882547 274.146492 
L 556.095615 276.595044 
L 556.284187 279.045605 
L 556.448245 281.497929 
L 556.587772 283.951771 
L 556.702754 286.406885 
L 556.793179 288.863026 
L 556.859039 291.319949 
L 556.900326 293.777408 
L 556.917038 296.235156 
L 556.909171 298.692949 
L 556.876728 301.15054 
L 556.81971 303.607684 
L 556.738125 306.064135 
L 556.631979 308.519647 
L 556.501284 310.973975 
L 556.346053 313.426874 
L 556.1663 315.878097 
L 555.962045 318.3274 
L 555.733308 320.774539 
L 555.480111 323.219267 
L 555.20248 325.661342 
L 554.900442 328.100518 
L 554.574028 330.536552 
L 554.22327 332.9692 
L 553.848204 335.398219 
L 553.448867 337.823366 
L 553.025299 340.244398 
L 552.577542 342.661074 
L 552.105641 345.073151 
L 551.609643 347.480389 
L 551.089598 349.882546 
L 550.545558 352.279383 
L 549.977577 354.67066 
L 549.385713 357.056137 
L 548.770023 359.435577 
L 548.13057 361.808741 
L 547.467418 364.175392 
L 546.780633 366.535293 
L 546.070284 368.888209 
L 545.336441 371.233903 
L 544.579179 373.572142 
L 543.798572 375.902691 
L 542.9947 378.225318 
L 542.167641 380.539791 
L 541.31748 382.845877 
L 540.444301 385.143346 
L 539.548191 387.431969 
L 538.62924 389.711516 
L 537.68754 391.98176 
L 536.723185 394.242474 
L 535.736271 396.493431 
L 534.726898 398.734407 
L 533.695165 400.965177 
L 532.641177 403.185519 
L 531.565039 405.395209 
L 530.466857 407.594028 
L 529.346743 409.781756 
L 528.204808 411.958173 
L 527.041167 414.123062 
L 525.855934 416.276207 
L 524.649231 418.417392 
L 523.421175 420.546403 
L 522.171892 422.663027 
L 520.901505 424.767053 
L 519.610142 426.85827 
L 518.297931 428.936469 
L 516.965005 431.001442 
L 515.611496 433.052982 
L 514.237539 435.090886 
L 512.843272 437.114948 
L 511.428835 439.124967 
L 509.994369 441.12074 
L 508.540017 443.10207 
L 507.065924 445.068758 
L 505.572239 447.020606 
L 504.059111 448.95742 
L 502.52669 450.879006 
L 500.97513 452.785172 
L 499.404587 454.675728 
L 497.815216 456.550484 
L 496.207178 458.409253 
L 494.580633 460.251848 
L 492.935744 462.078087 
L 491.272675 463.887785 
L 489.591593 465.680763 
L 487.892664 467.45684 
L 486.176061 469.215839 
L 484.441953 470.957585 
L 482.690516 472.681903 
L 480.921922 474.388621 
L 479.136351 476.077568 
L 477.333979 477.748574 
L 475.514988 479.401474 
L 473.679559 481.036102 
L 471.827875 482.652294 
L 469.960123 484.249888 
L 468.076488 485.828726 
L 466.17716 487.388648 
L 464.262327 488.9295 
L 462.332182 490.451126 
L 460.386918 491.953375 
L 458.426728 493.436097 
L 456.451809 494.899143 
L 454.462359 496.342368 
L 452.458577 497.765625 
L 450.440662 499.168774 
L 448.408817 500.551675 
L 446.363245 501.914187 
L 444.30415 503.256177 
L 442.231738 504.577509 
L 440.146217 505.87805 
L 438.047795 507.157672 
L 435.936682 508.416247 
L 433.813089 509.653647 
L 431.677229 510.86975 
L 429.529314 512.064434 
L 427.36956 513.237579 
L 425.198183 514.389069 
L 423.015399 515.518787 
L 420.821428 516.626622 
L 418.616489 517.712462 
L 416.400801 518.776198 
L 414.174587 519.817725 
L 411.938069 520.836938 
L 409.691471 521.833736 
L 407.435018 522.808017 
L 405.168934 523.759686 
L 402.893448 524.688647 
L 400.608786 525.594807 
L 398.315176 526.478076 
L 396.012849 527.338364 
L 393.702034 528.175587 
L 391.382963 528.98966 
L 389.055867 529.780502 
L 386.720979 530.548034 
L 384.378532 531.292179 
L 382.028761 532.012862 
L 379.671902 532.710013 
L 377.308188 533.38356 
L 374.937858 534.033437 
L 374.748824 534.084169 
L 375.391379 536.482217 
L 375.582322 536.430972 
L 377.976595 535.774531 
L 380.364185 535.09418 
L 382.744851 534.389988 
L 385.118357 533.662025 
L 387.484464 532.910363 
L 389.842937 532.135078 
L 392.193539 531.336248 
L 394.536036 530.513952 
L 396.870192 529.668273 
L 399.195775 528.799294 
L 401.512552 527.907104 
L 403.820292 526.991791 
L 406.118763 526.053447 
L 408.407736 525.092165 
L 410.686982 524.108042 
L 412.956273 523.101176 
L 415.215382 522.071668 
L 417.464083 521.01962 
L 419.702151 519.945139 
L 421.929363 518.848331 
L 424.145496 517.729306 
L 426.350327 516.588176 
L 428.543638 515.425056 
L 430.725207 514.24006 
L 432.894818 513.033309 
L 435.052253 511.804922 
L 437.197297 510.555023 
L 439.329734 509.283736 
L 441.449352 507.991188 
L 443.555939 506.67751 
L 445.649284 505.342831 
L 447.729178 503.987286 
L 449.795412 502.611011 
L 451.847781 501.214142 
L 453.886079 499.796819 
L 455.910102 498.359185 
L 457.919647 496.901383 
L 459.914514 495.423559 
L 461.894504 493.92586 
L 463.859418 492.408436 
L 465.809059 490.87144 
L 467.743233 489.315024 
L 469.661747 487.739345 
L 471.564408 486.14456 
L 473.451027 484.530828 
L 475.321414 482.898311 
L 477.175383 481.247172 
L 479.012748 479.577576 
L 480.833325 477.88969 
L 482.636933 476.183684 
L 484.423391 474.459726 
L 486.19252 472.717991 
L 487.944144 470.958652 
L 489.678087 469.181885 
L 491.394176 467.387867 
L 493.092239 465.576779 
L 494.772107 463.748801 
L 496.433611 461.904115 
L 498.076586 460.042908 
L 499.700866 458.165363 
L 501.306291 456.271671 
L 502.892698 454.362019 
L 504.45993 452.436598 
L 506.00783 450.495602 
L 507.536243 448.539224 
L 509.045016 446.56766 
L 510.533998 444.581107 
L 512.00304 442.579764 
L 513.451996 440.563831 
L 514.880721 438.533509 
L 516.289071 436.489002 
L 517.676906 434.430514 
L 519.044087 432.35825 
L 520.390477 430.272419 
L 521.715943 428.173228 
L 523.02035 426.060887 
L 524.303569 423.935609 
L 525.565471 421.797605 
L 526.805931 419.647088 
L 528.024824 417.484275 
L 529.222028 415.309382 
L 530.397424 413.122625 
L 531.550894 410.924224 
L 532.682322 408.714398 
L 533.791596 406.493369 
L 534.878604 404.261358 
L 535.943239 402.018589 
L 536.985393 399.765286 
L 538.004962 397.501674 
L 539.001844 395.22798 
L 539.975941 392.94443 
L 540.927153 390.651255 
L 541.855386 388.348681 
L 542.760548 386.036941 
L 543.642547 383.716265 
L 544.501296 381.386885 
L 545.336708 379.049035 
L 546.148701 376.702947 
L 546.937192 374.348856 
L 547.702104 371.986999 
L 548.443359 369.617611 
L 549.160883 367.240928 
L 549.854606 364.85719 
L 550.524456 362.466633 
L 551.170368 360.069498 
L 551.792277 357.666024 
L 552.39012 355.25645 
L 552.963838 352.841019 
L 553.513373 350.419972 
L 554.038671 347.99355 
L 554.539679 345.561997 
L 555.016347 343.125555 
L 555.468626 340.684469 
L 555.896473 338.238981 
L 556.299844 335.789338 
L 556.678699 333.335784 
L 557.032999 330.878564 
L 557.36271 328.417923 
L 557.667799 325.954109 
L 557.948234 323.487367 
L 558.203989 321.017944 
L 558.435037 318.546087 
L 558.641355 316.072043 
L 558.822923 313.59606 
L 558.979722 311.118385 
L 559.111738 308.639266 
L 559.218956 306.15895 
L 559.301365 303.677687 
L 559.358959 301.195723 
L 559.39173 298.713308 
L 559.399676 296.230689 
L 559.382796 293.748115 
L 559.341091 291.265833 
L 559.274566 288.784093 
L 559.183227 286.303142 
L 559.067084 283.823229 
L 558.926148 281.344601 
L 558.760433 278.867506 
L 558.569956 276.392192 
L 558.354735 273.918907 
L 558.114793 271.447897 
L 557.850153 268.979411 
L 557.560842 266.513694 
L 557.246889 264.050994 
L 556.908325 261.591556 
L 556.545184 259.135626 
L 556.157502 256.683451 
L 555.745318 254.235276 
L 555.308673 251.791344 
L 554.847611 249.351901 
L 554.362179 246.917191 
L 553.852423 244.487456 
L 553.318397 242.062941 
L 552.760152 239.643886 
L 552.177745 237.230536 
L 551.571234 234.823129 
L 550.94068 232.421909 
z
" clip-path="url(#p9f14df0410)" style="fill: #0000ff"/>
   </g>
   <g id="patch_4">
    <path d="M 374.748824 534.084169 
L 372.371616 534.708417 
L 369.988284 535.308863 
L 367.599066 535.885446 
L 365.204203 536.438108 
L 362.803932 536.966795 
L 360.398495 537.471452 
L 357.988132 537.95203 
L 355.573083 538.408482 
L 353.153591 538.84076 
L 350.729897 539.248822 
L 348.302244 539.632627 
L 345.870874 539.992137 
L 343.43603 540.327315 
L 340.997957 540.638129 
L 338.556897 540.924547 
L 336.113095 541.18654 
L 333.666796 541.424083 
L 331.218244 541.637151 
L 328.767683 541.825724 
L 326.315359 541.989782 
L 323.861517 542.129308 
L 321.406403 542.24429 
L 318.950262 542.334716 
L 316.493339 542.400575 
L 314.03588 542.441863 
L 311.578132 542.458574 
L 311.135876 542.458972 
L 311.135876 544.941614 
L 311.582599 544.941212 
L 314.065173 544.924332 
L 316.547455 544.882628 
L 319.029195 544.816102 
L 321.510146 544.724764 
L 323.990059 544.608621 
L 326.468687 544.467684 
L 328.945782 544.301969 
L 331.421096 544.111492 
L 333.894381 543.896272 
L 336.365391 543.65633 
L 338.833877 543.39169 
L 341.299594 543.102379 
L 343.762294 542.788426 
L 346.221732 542.449861 
L 348.677661 542.08672 
L 351.129837 541.699038 
L 353.578012 541.286854 
L 356.021944 540.85021 
L 358.461387 540.389148 
L 360.896097 539.903715 
L 363.325832 539.39396 
L 365.750347 538.859933 
L 368.169402 538.301689 
L 370.582752 537.719282 
L 372.990159 537.112771 
L 375.391379 536.482217 
z
" clip-path="url(#p9f14df0410)" style="fill: #0080ff"/>
   </g>
   <g id="patch_5">
    <path d="M 311.135876 542.458972 
L 308.678101 542.446683 
L 306.220572 542.409818 
L 303.763535 542.348379 
L 301.307235 542.262373 
L 298.851917 542.151809 
L 296.397829 542.016698 
L 293.945214 541.857053 
L 291.494317 541.672891 
L 289.045386 541.464229 
L 286.598663 541.231088 
L 284.154394 540.973493 
L 281.712823 540.691468 
L 279.274194 540.385041 
L 276.838751 540.054245 
L 274.406738 539.69911 
L 271.978398 539.319674 
L 269.553974 538.915974 
L 267.133708 538.48805 
L 264.717842 538.035945 
L 262.306618 537.559705 
L 259.900276 537.059376 
L 257.499058 536.53501 
L 255.103204 535.986658 
L 252.712953 535.414375 
L 250.328545 534.818219 
L 247.950217 534.198249 
L 247.522927 534.084169 
L 246.880372 536.482217 
L 247.311978 536.597449 
L 249.714329 537.223682 
L 252.122823 537.82586 
L 254.537218 538.403923 
L 256.957272 538.957814 
L 259.382745 539.487477 
L 261.813393 539.992859 
L 264.248973 540.47391 
L 266.689241 540.930582 
L 269.133955 541.362828 
L 271.582868 541.770606 
L 274.035737 542.153875 
L 276.492316 542.512597 
L 278.952359 542.846735 
L 281.41562 543.156256 
L 283.881853 543.44113 
L 286.350812 543.701327 
L 288.822249 543.936823 
L 291.295918 544.147593 
L 293.77157 544.333615 
L 296.248959 544.494873 
L 298.727837 544.631349 
L 301.207956 544.74303 
L 303.689067 544.829904 
L 306.170923 544.891963 
L 308.653275 544.929201 
L 311.135876 544.941614 
z
" clip-path="url(#p9f14df0410)" style="fill: #16ffe1"/>
   </g>
   <g id="patch_6">
    <path d="M 247.522927 534.084169 
L 245.15208 533.43618 
L 242.787831 532.764515 
L 240.430416 532.069242 
L 238.080072 531.350429 
L 235.737034 530.60815 
L 233.401536 529.842478 
L 231.073811 529.053489 
L 228.754092 528.241263 
L 226.442611 527.405881 
L 224.139599 526.547426 
L 221.845287 525.665984 
L 219.559904 524.761644 
L 217.283678 523.834495 
L 215.016838 522.884631 
L 212.759609 521.912147 
L 210.512218 520.917139 
L 208.27489 519.899707 
L 206.047847 518.859953 
L 203.831313 517.797981 
L 201.625509 516.713898 
L 199.430657 515.607811 
L 197.246974 514.479831 
L 195.074681 513.330071 
L 192.913993 512.158645 
L 190.765128 510.965672 
L 188.6283 509.751271 
L 186.503722 508.515562 
L 184.391607 507.258669 
L 182.292167 505.980718 
L 180.205611 504.681838 
L 178.132148 503.362157 
L 176.071985 502.021808 
L 174.025328 500.660924 
L 171.992383 499.279642 
L 169.973351 497.878101 
L 167.968436 496.456439 
L 165.977837 495.014799 
L 164.001754 493.553327 
L 162.040385 492.072166 
L 160.093924 490.571466 
L 158.162568 489.051377 
L 156.246509 487.512051 
L 154.345939 485.953642 
L 152.461048 484.376305 
L 150.592024 482.780198 
L 148.739054 481.165481 
L 146.902324 479.532316 
L 145.082017 477.880865 
L 143.278315 476.211294 
L 141.491399 474.52377 
L 139.721447 472.818461 
L 137.968637 471.095538 
L 136.233143 469.355174 
L 134.515139 467.597542 
L 132.814797 465.822818 
L 131.132287 464.03118 
L 129.467778 462.222806 
L 127.821435 460.397878 
L 126.193423 458.556579 
L 124.583905 456.699091 
L 122.993043 454.825601 
L 121.420994 452.936297 
L 119.867917 451.031367 
L 118.333967 449.111002 
L 116.819296 447.175393 
L 115.324057 445.224735 
L 113.848399 443.259222 
L 112.39247 441.279051 
L 110.956415 439.28442 
L 109.540377 437.275529 
L 108.144499 435.252577 
L 106.76892 433.215769 
L 105.413778 431.165306 
L 104.079207 429.101395 
L 102.765342 427.024242 
L 101.472314 424.934054 
L 100.200252 422.831041 
L 98.949283 420.715412 
L 98.282801 419.568192 
L 96.13277 420.809513 
L 96.805984 421.968321 
L 98.069589 424.10532 
L 99.3545 426.229576 
L 100.660589 428.340877 
L 101.987726 430.439011 
L 103.335777 432.52377 
L 104.704607 434.594944 
L 106.094081 436.652326 
L 107.504059 438.695712 
L 108.9344 440.724895 
L 110.384961 442.739674 
L 111.855596 444.739846 
L 113.34616 446.725213 
L 114.856502 448.695575 
L 116.386473 450.650735 
L 117.935918 452.590498 
L 119.504682 454.51467 
L 121.09261 456.423058 
L 122.699542 458.315472 
L 124.325317 460.191722 
L 125.969774 462.05162 
L 127.632746 463.894982 
L 129.314069 465.721622 
L 131.013574 467.531357 
L 132.731091 469.324008 
L 134.466449 471.099394 
L 136.219473 472.857338 
L 137.989988 474.597663 
L 139.777818 476.320198 
L 141.582784 478.024767 
L 143.404705 479.711203 
L 145.243399 481.379335 
L 147.098682 483.028997 
L 148.970369 484.660024 
L 150.858272 486.272253 
L 152.762202 487.865523 
L 154.68197 489.439674 
L 156.617383 490.994549 
L 158.568248 492.529992 
L 160.53437 494.04585 
L 162.515551 495.541972 
L 164.511594 497.018207 
L 166.5223 498.474409 
L 168.547467 499.910431 
L 170.586893 501.32613 
L 172.640373 502.721364 
L 174.707703 504.095993 
L 176.788676 505.449882 
L 178.883083 506.782893 
L 180.990715 508.094893 
L 183.111362 509.385752 
L 185.244811 510.655341 
L 187.390849 511.903532 
L 189.549262 513.1302 
L 191.719833 514.335224 
L 193.902345 515.518481 
L 196.096581 516.679855 
L 198.302321 517.819229 
L 200.519344 518.936489 
L 202.747428 520.031523 
L 204.986352 521.104221 
L 207.23589 522.154478 
L 209.495818 523.182186 
L 211.76591 524.187245 
L 214.045939 525.169553 
L 216.335676 526.129011 
L 218.634894 527.065525 
L 220.943362 527.979 
L 223.260849 528.869345 
L 225.587123 529.736471 
L 227.921952 530.580292 
L 230.265103 531.400722 
L 232.61634 532.19768 
L 234.97543 532.971087 
L 237.342135 533.720864 
L 239.71622 534.446937 
L 242.097446 535.149233 
L 244.485577 535.827682 
L 246.880372 536.482217 
z
" clip-path="url(#p9f14df0410)" style="fill: #7dff7a"/>
   </g>
   <g id="patch_7">
    <path d="M 98.282801 419.568192 
L 97.064556 417.433553 
L 95.867718 415.286837 
L 94.692407 413.128261 
L 93.53874 410.95804 
L 92.406833 408.776391 
L 91.296798 406.583532 
L 90.208747 404.379683 
L 89.142788 402.165063 
L 88.099029 399.939895 
L 87.077573 397.704401 
L 86.078523 395.458804 
L 85.101978 393.203329 
L 84.148037 390.938201 
L 83.216794 388.663647 
L 82.308343 386.379895 
L 81.422774 384.087173 
L 80.560177 381.78571 
L 79.720637 379.475736 
L 78.904238 377.157482 
L 78.111062 374.831181 
L 77.341188 372.497064 
L 76.594694 370.155365 
L 75.871654 367.806318 
L 75.17214 365.450159 
L 74.496222 363.087122 
L 73.843968 360.717445 
L 73.215443 358.341363 
L 72.610709 355.959115 
L 72.029828 353.570939 
L 71.472858 351.177074 
L 70.939853 348.777759 
L 70.430868 346.373234 
L 69.945953 343.963739 
L 69.485157 341.549516 
L 69.048526 339.130805 
L 68.636104 336.707849 
L 68.247931 334.28089 
L 67.884047 331.850171 
L 67.544487 329.415935 
L 67.229287 326.978425 
L 66.938477 324.537884 
L 66.672087 322.094558 
L 66.430143 319.64869 
L 66.212669 317.200525 
L 66.019687 314.750308 
L 65.851217 312.298283 
L 65.707275 309.844696 
L 65.587876 307.389793 
L 65.493031 304.933818 
L 65.422751 302.477018 
L 65.377041 300.019638 
L 65.355907 297.561923 
L 65.354316 296.677412 
L 62.871674 296.677412 
L 62.873281 297.570857 
L 62.894628 300.053397 
L 62.9408 302.5356 
L 63.01179 305.017216 
L 63.107593 307.497999 
L 63.228198 309.977699 
L 63.373594 312.45607 
L 63.543766 314.932862 
L 63.738697 317.407829 
L 63.958368 319.880723 
L 64.202756 322.351297 
L 64.471837 324.819303 
L 64.765584 327.284496 
L 65.083968 329.746627 
L 65.426957 332.205452 
L 65.794517 334.660724 
L 66.186611 337.112197 
L 66.603199 339.559627 
L 67.044241 342.002769 
L 67.509692 344.441379 
L 67.999504 346.875212 
L 68.513631 349.304025 
L 69.052019 351.727576 
L 69.614616 354.145621 
L 70.201364 356.55792 
L 70.812206 358.964231 
L 71.44708 361.364314 
L 72.105922 363.757927 
L 72.788668 366.144833 
L 73.495248 368.524792 
L 74.225591 370.897566 
L 74.979626 373.262919 
L 75.757276 375.620613 
L 76.558464 377.970412 
L 77.383109 380.312083 
L 78.231129 382.64539 
L 79.10244 384.9701 
L 79.996954 387.285981 
L 80.914581 389.592801 
L 81.85523 391.89033 
L 82.818808 394.178338 
L 83.805216 396.456595 
L 84.814358 398.724875 
L 85.846132 400.98295 
L 86.900434 403.230595 
L 87.97716 405.467584 
L 89.076201 407.693695 
L 90.197448 409.908704 
L 91.340789 412.11239 
L 92.506109 414.304532 
L 93.693292 416.484912 
L 94.902219 418.653312 
L 96.13277 420.809513 
z
" clip-path="url(#p9f14df0410)" style="fill: #e4ff13"/>
   </g>
   <g id="patch_8">
    <path d="M 65.354316 296.677412 
L 65.366605 294.219638 
L 65.40347 291.762109 
L 65.464909 289.305071 
L 65.550915 286.848771 
L 65.661478 284.393454 
L 65.79659 281.939365 
L 65.956235 279.48675 
L 66.140397 277.035854 
L 66.349059 274.586922 
L 66.5822 272.140199 
L 66.839795 269.69593 
L 67.12182 267.254359 
L 67.428246 264.81573 
L 67.759043 262.380288 
L 68.114178 259.948275 
L 68.493614 257.519935 
L 68.897314 255.095511 
L 69.325238 252.675244 
L 69.777343 250.259378 
L 70.253583 247.848154 
L 70.753912 245.441813 
L 71.278278 243.040595 
L 71.82663 240.644741 
L 72.398913 238.25449 
L 72.995069 235.870081 
L 73.615039 233.491753 
L 73.729119 233.064464 
L 71.331071 232.421909 
L 71.215839 232.853514 
L 70.589606 235.255866 
L 69.987428 237.664359 
L 69.409365 240.078754 
L 68.855474 242.498809 
L 68.325811 244.924282 
L 67.820429 247.354929 
L 67.339378 249.790509 
L 66.882706 252.230778 
L 66.45046 254.675491 
L 66.042682 257.124405 
L 65.659413 259.577274 
L 65.300691 262.033852 
L 64.966553 264.493895 
L 64.657032 266.957157 
L 64.372158 269.42339 
L 64.11196 271.892349 
L 63.876465 274.363786 
L 63.665695 276.837455 
L 63.479672 279.313107 
L 63.318415 281.790496 
L 63.181939 284.269374 
L 63.070258 286.749492 
L 62.983384 289.230603 
L 62.921325 291.712459 
L 62.884087 294.194812 
L 62.871674 296.677412 
z
" clip-path="url(#p9f14df0410)" style="fill: #ff9400"/>
   </g>
   <g id="patch_9">
    <path d="M 73.729119 233.064464 
L 74.377108 230.693616 
L 75.048773 228.329367 
L 75.744046 225.971953 
L 76.462859 223.621609 
L 77.205138 221.278571 
L 77.97081 218.943072 
L 78.759799 216.615347 
L 79.572025 214.295628 
L 80.407407 211.984147 
L 81.265862 209.681136 
L 82.147304 207.386824 
L 83.051644 205.101441 
L 83.978793 202.825215 
L 84.928657 200.558375 
L 85.901141 198.301146 
L 86.896149 196.053755 
L 87.913581 193.816426 
L 88.953335 191.589384 
L 90.015306 189.37285 
L 91.09939 187.167046 
L 92.205477 184.972193 
L 93.333457 182.788511 
L 94.483217 180.616217 
L 95.654643 178.45553 
L 96.847616 176.306665 
L 98.062017 174.169836 
L 98.282801 173.786632 
L 96.13277 172.545311 
L 95.909756 172.932386 
L 94.683088 175.090798 
L 93.478064 177.26137 
L 92.294807 179.443882 
L 91.133433 181.638118 
L 89.994059 183.843858 
L 88.876799 186.060881 
L 87.781765 188.288965 
L 86.709067 190.527888 
L 85.65881 192.777426 
L 84.631101 195.037354 
L 83.626043 197.307446 
L 82.643735 199.587475 
L 81.684277 201.877213 
L 80.747763 204.176431 
L 79.834288 206.484899 
L 78.943943 208.802385 
L 78.076817 211.12866 
L 77.232996 213.463489 
L 76.412566 215.806639 
L 75.615608 218.157877 
L 74.842201 220.516966 
L 74.092424 222.883672 
L 73.366351 225.257756 
L 72.664055 227.638983 
L 71.985606 230.027113 
L 71.331071 232.421909 
z
" clip-path="url(#p9f14df0410)" style="fill: #ff1e00"/>
   </g>
   <g id="patch_10">
    <path d="M 98.282801 173.786632 
L 99.522331 171.664281 
L 100.783022 169.554432 
L 102.064748 167.457294 
L 103.367381 165.373079 
L 104.690791 163.301994 
L 106.034845 161.244246 
L 107.399409 159.200042 
L 108.784347 157.169585 
L 110.189519 155.153078 
L 111.614786 153.150725 
L 113.060005 151.162723 
L 114.525031 149.189273 
L 116.009719 147.230572 
L 117.513918 145.286815 
L 119.03748 143.358197 
L 120.580252 141.444911 
L 122.142078 139.547148 
L 123.722804 137.665098 
L 125.322272 135.798949 
L 126.94032 133.948888 
L 128.576788 132.1151 
L 130.231511 130.297767 
L 131.904325 128.497073 
L 133.595062 126.713196 
L 135.303553 124.946315 
L 137.029627 123.196608 
L 138.773111 121.464249 
L 140.533832 119.74941 
L 142.311612 118.052265 
L 144.106275 116.372981 
L 145.917641 114.711728 
L 147.745528 113.068672 
L 149.589754 111.443976 
L 151.450135 109.837803 
L 153.326484 108.250314 
L 155.218614 106.681668 
L 157.126336 105.132021 
L 159.049458 103.601528 
L 160.987789 102.090343 
L 162.941135 100.598617 
L 164.9093 99.126498 
L 166.892087 97.674134 
L 168.889299 96.24167 
L 170.900735 94.82925 
L 172.926195 93.437014 
L 174.965476 92.065102 
L 177.018373 90.713651 
L 179.084682 89.382797 
L 181.164196 88.072672 
L 183.256707 86.783407 
L 185.362006 85.515131 
L 187.479883 84.267971 
L 189.610124 83.042052 
L 191.752519 81.837497 
L 193.906851 80.654425 
L 196.072906 79.492955 
L 198.250468 78.353204 
L 200.439318 77.235285 
L 202.639237 76.13931 
L 204.850006 75.065388 
L 207.071404 74.013628 
L 209.303208 72.984133 
L 211.545195 71.977008 
L 213.797141 70.992353 
L 216.058821 70.030266 
L 218.330008 69.090843 
L 220.610476 68.17418 
L 222.899997 67.280366 
L 225.198341 66.409491 
L 227.505278 65.561644 
L 229.820579 64.736907 
L 232.144011 63.935365 
L 234.475342 63.157096 
L 236.81434 62.40218 
L 239.160769 61.67069 
L 241.514396 60.962702 
L 243.874985 60.278284 
L 246.2423 59.617506 
L 248.616104 58.980434 
L 250.99616 58.367132 
L 253.38223 57.77766 
L 255.774075 57.212078 
L 258.171457 56.670442 
L 260.574135 56.152807 
L 262.981869 55.659224 
L 265.394418 55.189743 
L 267.811542 54.74441 
L 270.232998 54.323271 
L 272.658544 53.926366 
L 275.087938 53.553737 
L 277.520936 53.20542 
L 279.957296 52.881449 
L 282.396774 52.581859 
L 284.839126 52.306677 
L 287.284107 52.055932 
L 289.731474 51.82965 
L 292.180981 51.627851 
L 294.632384 51.450558 
L 297.085436 51.297787 
L 299.539894 51.169554 
L 301.995512 51.065871 
L 304.452043 50.98675 
L 306.909243 50.932197 
L 309.366866 50.902218 
L 311.135876 50.895852 
L 311.135876 48.41321 
L 309.348997 48.419641 
L 306.86655 48.449922 
L 304.38453 48.505026 
L 301.903185 48.584947 
L 299.422763 48.689677 
L 296.943513 48.819205 
L 294.465682 48.973519 
L 291.989517 49.152603 
L 289.515268 49.35644 
L 287.04318 49.585008 
L 284.573502 49.838286 
L 282.10648 50.116247 
L 279.642361 50.418864 
L 277.181391 50.746107 
L 274.723817 51.097942 
L 272.269884 51.474336 
L 269.819837 51.875249 
L 267.373922 52.300643 
L 264.932383 52.750474 
L 262.495465 53.224697 
L 260.06341 53.723266 
L 257.636463 54.246129 
L 255.214865 54.793236 
L 252.79886 55.364531 
L 250.388688 55.959957 
L 247.984591 56.579455 
L 245.586809 57.222962 
L 243.195582 57.890414 
L 240.811149 58.581745 
L 238.433748 59.296885 
L 236.063617 60.035763 
L 233.700994 60.798305 
L 231.346114 61.584435 
L 228.999212 62.394074 
L 226.660525 63.227141 
L 224.330285 64.083553 
L 222.008725 64.963224 
L 219.696078 65.866066 
L 217.392575 66.791989 
L 215.098446 67.740901 
L 212.813921 68.712706 
L 210.539228 69.707307 
L 208.274595 70.724605 
L 206.020248 71.764498 
L 203.776412 72.826883 
L 201.543312 73.911652 
L 199.321171 75.018698 
L 197.110211 76.147909 
L 194.910654 77.299173 
L 192.722719 78.472374 
L 190.546626 79.667396 
L 188.382592 80.884119 
L 186.230832 82.122421 
L 184.091563 83.382179 
L 181.964999 84.663265 
L 179.851351 85.965553 
L 177.750832 87.288912 
L 175.663651 88.633209 
L 173.590017 89.998311 
L 171.530138 91.384081 
L 169.484219 92.790379 
L 167.452465 94.217067 
L 165.435079 95.664 
L 163.432264 97.131034 
L 161.444218 98.618023 
L 159.471142 100.124817 
L 157.513232 101.651267 
L 155.570684 103.197219 
L 153.643692 104.762519 
L 151.73245 106.34701 
L 149.837148 107.950534 
L 147.957975 109.572931 
L 146.095121 111.214038 
L 144.24877 112.873691 
L 142.419107 114.551724 
L 140.606317 116.24797 
L 138.810579 117.962259 
L 137.032073 119.694419 
L 135.270978 121.444277 
L 133.527469 123.211658 
L 131.801721 124.996386 
L 130.093906 126.798281 
L 128.404195 128.617165 
L 126.732757 130.452854 
L 125.079759 132.305166 
L 123.445367 134.173914 
L 121.829743 136.058913 
L 120.23305 137.959974 
L 118.655447 139.876906 
L 117.097092 141.809518 
L 115.558141 143.757617 
L 114.038747 145.721008 
L 112.539063 147.699494 
L 111.059239 149.692878 
L 109.599421 151.70096 
L 108.159758 153.72354 
L 106.740392 155.760415 
L 105.341465 157.811381 
L 103.963117 159.876234 
L 102.605487 161.954767 
L 101.268709 164.046773 
L 99.952918 166.152041 
L 98.658245 168.270361 
L 97.38482 170.401523 
L 96.13277 172.545311 
z
" clip-path="url(#p9f14df0410)" style="fill: #800000"/>
   </g>
   <g id="PatchCollection_1">
    <path d="M 98.282801 419.568192 
L 98.282801 419.568192 
L 97.064556 417.433553 
L 95.867718 415.286837 
L 94.692407 413.128261 
L 93.53874 410.95804 
L 92.406833 408.776391 
L 91.296798 406.583532 
L 90.208747 404.379683 
L 89.142788 402.165063 
L 88.099029 399.939895 
L 87.077573 397.704401 
L 86.078523 395.458804 
L 85.101978 393.203329 
L 84.148037 390.938201 
L 83.216794 388.663647 
L 82.308343 386.379895 
L 81.422774 384.087173 
L 80.560177 381.78571 
L 79.720637 379.475736 
L 78.904238 377.157482 
L 78.111062 374.831181 
L 77.341188 372.497064 
L 76.594694 370.155365 
L 75.871654 367.806318 
L 75.17214 365.450159 
L 74.496222 363.087122 
L 73.843968 360.717445 
L 73.729119 360.290361 
L 73.729119 360.290361 
Q 311.135876 296.677412 98.282801 173.786632 
L 98.282801 173.786632 
L 98.282801 173.786632 
L 99.522331 171.664281 
L 100.783022 169.554432 
L 102.064748 167.457294 
L 103.367381 165.373079 
L 104.690791 163.301994 
L 106.034845 161.244246 
L 107.399409 159.200042 
L 108.784347 157.169585 
L 110.189519 155.153078 
L 111.614786 153.150725 
L 113.060005 151.162723 
L 114.525031 149.189273 
L 116.009719 147.230572 
L 117.513918 145.286815 
L 119.03748 143.358197 
L 120.580252 141.444911 
L 122.142078 139.547148 
L 123.722804 137.665098 
L 125.322272 135.798949 
L 126.94032 133.948888 
L 128.576788 132.1151 
L 130.231511 130.297767 
L 131.904325 128.497073 
L 133.595062 126.713196 
L 135.303553 124.946315 
L 137.029627 123.196608 
L 137.342068 122.883604 
L 137.342068 122.883604 
Q 311.135876 296.677412 98.282801 419.568192 
z
" clip-path="url(#p9f14df0410)" style="fill: #e4ff13; fill-opacity: 0.5; stroke: #808080; stroke-opacity: 0.5; stroke-width: 0.1"/>
    <path d="M 247.522927 534.084169 
L 247.522927 534.084169 
L 245.15208 533.43618 
L 242.787831 532.764515 
L 240.430416 532.069242 
L 238.080072 531.350429 
L 235.737034 530.60815 
L 233.401536 529.842478 
L 231.073811 529.053489 
L 228.754092 528.241263 
L 226.442611 527.405881 
L 224.139599 526.547426 
L 221.845287 525.665984 
L 219.559904 524.761644 
L 217.283678 523.834495 
L 215.016838 522.884631 
L 212.759609 521.912147 
L 210.512218 520.917139 
L 208.27489 519.899707 
L 206.047847 518.859953 
L 203.831313 517.797981 
L 201.625509 516.713898 
L 199.430657 515.607811 
L 197.246974 514.479831 
L 195.074681 513.330071 
L 192.913993 512.158645 
L 190.765128 510.965672 
L 188.6283 509.751271 
L 188.245096 509.530487 
L 188.245096 509.530487 
Q 311.135876 296.677412 73.729119 233.064464 
L 73.729119 233.064464 
L 73.729119 233.064464 
L 74.377108 230.693616 
L 75.048773 228.329367 
L 75.744046 225.971953 
L 76.462859 223.621609 
L 77.205138 221.278571 
L 77.97081 218.943072 
L 78.759799 216.615347 
L 79.572025 214.295628 
L 80.407407 211.984147 
L 81.265862 209.681136 
L 82.147304 207.386824 
L 83.051644 205.101441 
L 83.978793 202.825215 
L 84.928657 200.558375 
L 85.901141 198.301146 
L 86.896149 196.053755 
L 87.913581 193.816426 
L 88.953335 191.589384 
L 90.015306 189.37285 
L 91.09939 187.167046 
L 92.205477 184.972193 
L 93.333457 182.788511 
L 94.483217 180.616217 
L 95.654643 178.45553 
L 96.847616 176.306665 
L 98.062017 174.169836 
L 98.282801 173.786632 
L 98.282801 173.786632 
Q 311.135876 296.677412 247.522927 534.084169 
z
" clip-path="url(#p9f14df0410)" style="fill: #7dff7a; fill-opacity: 0.5; stroke: #808080; stroke-opacity: 0.5; stroke-width: 0.1"/>
    <path d="M 188.245096 509.530487 
L 188.245096 509.530487 
L 186.122745 508.290957 
L 184.012895 507.030266 
L 181.915758 505.74854 
L 179.831542 504.445907 
L 177.760457 503.122497 
L 175.702709 501.778443 
L 173.658505 500.413879 
L 171.628048 499.028941 
L 169.611542 497.623769 
L 167.609188 496.198502 
L 165.621187 494.753283 
L 163.647737 493.288257 
L 161.689035 491.803569 
L 159.745278 490.29937 
L 157.816661 488.775808 
L 155.903375 487.233036 
L 154.005612 485.67121 
L 152.123562 484.090484 
L 150.257413 482.491016 
L 148.407351 480.872968 
L 146.573563 479.2365 
L 144.756231 477.581776 
L 142.955536 475.908963 
L 141.171659 474.218226 
L 139.404779 472.509735 
L 137.655071 470.783661 
L 137.342068 470.47122 
L 137.342068 470.47122 
Q 311.135876 296.677412 65.354316 296.677412 
L 65.354316 296.677412 
L 65.354316 296.677412 
L 65.366605 294.219638 
L 65.40347 291.762109 
L 65.464909 289.305071 
L 65.550915 286.848771 
L 65.661478 284.393454 
L 65.79659 281.939365 
L 65.956235 279.48675 
L 66.140397 277.035854 
L 66.349059 274.586922 
L 66.5822 272.140199 
L 66.839795 269.69593 
L 67.12182 267.254359 
L 67.428246 264.81573 
L 67.759043 262.380288 
L 68.114178 259.948275 
L 68.493614 257.519935 
L 68.897314 255.095511 
L 69.325238 252.675244 
L 69.777343 250.259378 
L 70.253583 247.848154 
L 70.753912 245.441813 
L 71.278278 243.040595 
L 71.82663 240.644741 
L 72.398913 238.25449 
L 72.995069 235.870081 
L 73.615039 233.491753 
L 73.729119 233.064464 
L 73.729119 233.064464 
Q 311.135876 296.677412 188.245096 509.530487 
z
" clip-path="url(#p9f14df0410)" style="fill: #7dff7a; fill-opacity: 0.5; stroke: #808080; stroke-opacity: 0.5; stroke-width: 0.1"/>
    <path d="M 548.542632 233.064464 
L 548.542632 233.064464 
L 549.166881 235.441672 
L 549.767327 237.825004 
L 550.343909 240.214222 
L 550.896572 242.609085 
L 551.425258 245.009356 
L 551.929916 247.414793 
L 552.410494 249.825156 
L 552.866945 252.240205 
L 553.299223 254.659697 
L 553.707285 257.083391 
L 554.09109 259.511044 
L 554.4506 261.942414 
L 554.785779 264.377258 
L 555.096593 266.815331 
L 555.38301 269.256391 
L 555.645004 271.700192 
L 555.882547 274.146492 
L 556.095615 276.595044 
L 556.284187 279.045605 
L 556.448245 281.497929 
L 556.587772 283.951771 
L 556.702754 286.406885 
L 556.793179 288.863026 
L 556.859039 291.319949 
L 556.900326 293.777408 
L 556.917038 296.235156 
L 556.909171 298.692949 
L 556.876728 301.15054 
L 556.81971 303.607684 
L 556.738125 306.064135 
L 556.631979 308.519647 
L 556.501284 310.973975 
L 556.346053 313.426874 
L 556.1663 315.878097 
L 555.962045 318.3274 
L 555.733308 320.774539 
L 555.480111 323.219267 
L 555.20248 325.661342 
L 554.900442 328.100518 
L 554.574028 330.536552 
L 554.22327 332.9692 
L 553.848204 335.398219 
L 553.448867 337.823366 
L 553.025299 340.244398 
L 552.577542 342.661074 
L 552.105641 345.073151 
L 551.609643 347.480389 
L 551.089598 349.882546 
L 550.545558 352.279383 
L 549.977577 354.67066 
L 549.385713 357.056137 
L 548.770023 359.435577 
L 548.13057 361.808741 
L 547.467418 364.175392 
L 546.780633 366.535293 
L 546.070284 368.888209 
L 545.336441 371.233903 
L 544.579179 373.572142 
L 543.798572 375.902691 
L 542.9947 378.225318 
L 542.167641 380.539791 
L 541.31748 382.845877 
L 540.444301 385.143346 
L 539.548191 387.431969 
L 538.62924 389.711516 
L 537.68754 391.98176 
L 536.723185 394.242474 
L 535.736271 396.493431 
L 534.726898 398.734407 
L 533.695165 400.965177 
L 532.641177 403.185519 
L 531.565039 405.395209 
L 530.466857 407.594028 
L 529.346743 409.781756 
L 528.204808 411.958173 
L 527.041167 414.123062 
L 525.855934 416.276207 
L 524.649231 418.417392 
L 523.988951 419.568192 
L 523.988951 419.568192 
Q 311.135876 296.677412 137.342068 122.883604 
L 137.342068 122.883604 
L 137.342068 122.883604 
L 139.088667 121.154385 
L 140.85247 119.442718 
L 142.633301 117.748774 
L 144.430983 116.072722 
L 146.245335 114.414731 
L 148.076176 112.774966 
L 149.923323 111.153592 
L 151.78659 109.550769 
L 153.665793 107.966659 
L 155.560743 106.40142 
L 157.471249 104.855208 
L 159.397123 103.328179 
L 161.33817 101.820484 
L 163.294196 100.332274 
L 165.265007 98.863699 
L 167.250405 97.414906 
L 169.250191 95.986038 
L 171.264165 94.577239 
L 173.292127 93.18865 
L 175.333873 91.82041 
L 177.389199 90.472656 
L 179.457899 89.145521 
L 181.539767 87.83914 
L 183.634595 86.553642 
L 185.742173 85.289157 
L 187.86229 84.04581 
L 189.994734 82.823726 
L 192.139292 81.623028 
L 194.29575 80.443834 
L 196.463891 79.286264 
L 198.6435 78.150433 
L 200.834358 77.036454 
L 203.036246 75.944439 
L 205.248944 74.874497 
L 207.472231 73.826736 
L 209.705883 72.801259 
L 211.949679 71.79817 
L 214.203393 70.817568 
L 216.466801 69.859552 
L 218.739675 68.924218 
L 221.021789 68.011659 
L 223.312914 67.121967 
L 225.612821 66.255229 
L 227.92128 65.411534 
L 230.238061 64.590965 
L 232.562932 63.793605 
L 234.89566 63.019532 
L 237.236012 62.268826 
L 239.583754 61.54156 
L 241.93865 60.837807 
L 244.300467 60.157638 
L 246.668967 59.501121 
L 249.043914 58.868322 
L 251.42507 58.259303 
L 253.812197 57.674125 
L 256.205056 57.112848 
L 258.603408 56.575527 
L 261.007013 56.062216 
L 263.415632 55.572967 
L 265.829022 55.107827 
L 268.246943 54.666845 
L 270.669153 54.250063 
L 273.095409 53.857524 
L 275.525469 53.489266 
L 277.959091 53.145328 
L 280.39603 52.825742 
L 282.836043 52.530541 
L 285.278886 52.259755 
L 287.724315 52.01341 
L 290.172084 51.791531 
L 292.621951 51.594141 
L 295.073668 51.421259 
L 297.526992 51.272902 
L 299.981677 51.149086 
L 302.437477 51.049822 
L 304.894147 50.975121 
L 307.351441 50.924989 
L 309.809113 50.899433 
L 311.135876 50.895852 
L 311.135876 50.895852 
Q 311.135876 296.677412 548.542632 233.064464 
z
" clip-path="url(#p9f14df0410)" style="fill: #0000ff; fill-opacity: 0.5; stroke: #808080; stroke-opacity: 0.5; stroke-width: 0.1"/>
    <path d="M 523.988951 419.568192 
L 523.988951 419.568192 
L 522.749421 421.690543 
L 521.48873 423.800393 
L 520.207003 425.89753 
L 518.90437 427.981746 
L 517.58096 430.052831 
L 516.236906 432.110578 
L 514.872342 434.154783 
L 513.487405 436.18524 
L 512.082232 438.201746 
L 510.656965 440.2041 
L 509.211746 442.192101 
L 507.74672 444.165551 
L 506.262033 446.124253 
L 504.757833 448.068009 
L 503.234271 449.996627 
L 501.6915 451.909913 
L 500.129673 453.807676 
L 498.548947 455.689726 
L 496.94948 457.555875 
L 495.331431 459.405936 
L 493.694963 461.239725 
L 492.04024 463.057057 
L 490.367426 464.857752 
L 488.676689 466.641629 
L 486.968198 468.408509 
L 485.242124 470.158216 
L 484.929684 470.47122 
L 484.929684 470.47122 
Q 311.135876 296.677412 73.729119 360.290361 
L 73.729119 360.290361 
L 73.729119 360.290361 
L 73.10487 357.913152 
L 72.504425 355.52982 
L 71.927842 353.140603 
L 71.37518 350.745739 
L 70.846493 348.345469 
L 70.341836 345.940032 
L 69.861257 343.529668 
L 69.404806 341.11462 
L 68.972528 338.695128 
L 68.564466 336.271434 
L 68.180661 333.84378 
L 67.821151 331.41241 
L 67.485972 328.977567 
L 67.175159 326.539493 
L 66.888741 324.098434 
L 66.626747 321.654632 
L 66.389205 319.208333 
L 66.176137 316.75978 
L 65.987564 314.30922 
L 65.823506 311.856896 
L 65.683979 309.403054 
L 65.568998 306.94794 
L 65.478572 304.491798 
L 65.412713 302.034875 
L 65.371425 299.577417 
L 65.354713 297.119668 
L 65.354316 296.677412 
L 65.354316 296.677412 
Q 311.135876 296.677412 523.988951 419.568192 
z
" clip-path="url(#p9f14df0410)" style="fill: #0000ff; fill-opacity: 0.5; stroke: #808080; stroke-opacity: 0.5; stroke-width: 0.1"/>
    <path d="M 311.135876 50.895852 
L 311.135876 50.895852 
L 313.59365 50.908141 
L 316.051179 50.945007 
L 318.508216 51.006446 
L 320.964517 51.092451 
L 323.419834 51.203015 
L 325.873923 51.338126 
L 328.326538 51.497771 
L 330.777434 51.681934 
L 333.226366 51.890596 
L 335.673089 52.123736 
L 338.117358 52.381332 
L 340.558929 52.663357 
L 342.997557 52.969783 
L 345.433 53.30058 
L 347.865013 53.655714 
L 350.293353 54.03515 
L 352.717777 54.438851 
L 355.138044 54.866775 
L 357.55391 55.318879 
L 359.965134 55.79512 
L 362.371475 56.295448 
L 364.772693 56.819815 
L 367.168547 57.368167 
L 369.558798 57.940449 
L 371.943207 58.536606 
L 374.321535 59.156576 
L 374.748824 59.270656 
L 374.748824 59.270656 
Q 311.135876 296.677412 137.342068 470.47122 
L 137.342068 470.47122 
L 137.342068 470.47122 
L 135.612848 468.724621 
L 133.901181 466.960818 
L 132.207237 465.179987 
L 130.531186 463.382305 
L 128.873195 461.567953 
L 127.23343 459.737112 
L 125.612055 457.889965 
L 124.009232 456.026698 
L 122.425122 454.147495 
L 120.859883 452.252545 
L 119.313672 450.342038 
L 117.786642 448.416165 
L 116.278947 446.475118 
L 114.790738 444.519092 
L 113.322163 442.548281 
L 111.873369 440.562883 
L 110.444501 438.563097 
L 109.035703 436.549123 
L 107.647114 434.521161 
L 106.278874 432.479415 
L 104.931119 430.424089 
L 103.603985 428.355389 
L 102.297603 426.273521 
L 101.012106 424.178693 
L 99.74762 422.071115 
L 98.504273 419.950998 
L 98.282801 419.568192 
L 98.282801 419.568192 
Q 311.135876 296.677412 311.135876 50.895852 
z
" clip-path="url(#p9f14df0410)" style="fill: #000080; fill-opacity: 0.5; stroke: #808080; stroke-opacity: 0.5; stroke-width: 0.1"/>
    <path d="M 374.748824 59.270656 
L 374.748824 59.270656 
L 377.119672 59.918645 
L 379.483921 60.59031 
L 381.841335 61.285583 
L 384.191679 62.004395 
L 386.534717 62.746675 
L 388.870216 63.512347 
L 391.197941 64.301336 
L 393.51766 65.113562 
L 395.829141 65.948944 
L 398.132152 66.807399 
L 400.426464 67.68884 
L 402.711847 68.593181 
L 404.988073 69.520329 
L 407.254913 70.470193 
L 409.512142 71.442678 
L 411.759533 72.437686 
L 413.996862 73.455118 
L 416.223904 74.494871 
L 418.440438 75.556843 
L 420.646242 76.640927 
L 422.841095 77.747014 
L 425.024777 78.874994 
L 427.197071 80.024754 
L 429.357758 81.196179 
L 431.506623 82.389152 
L 433.643452 83.603554 
L 434.026656 83.824337 
L 434.026656 83.824337 
Q 311.135876 296.677412 311.135876 542.458972 
L 311.135876 542.458972 
L 311.135876 542.458972 
L 308.678101 542.446683 
L 306.220572 542.409818 
L 303.763535 542.348379 
L 301.307235 542.262373 
L 298.851917 542.151809 
L 296.397829 542.016698 
L 293.945214 541.857053 
L 291.494317 541.672891 
L 289.045386 541.464229 
L 286.598663 541.231088 
L 284.154394 540.973493 
L 281.712823 540.691468 
L 279.274194 540.385041 
L 276.838751 540.054245 
L 274.406738 539.69911 
L 271.978398 539.319674 
L 269.553974 538.915974 
L 267.133708 538.48805 
L 264.717842 538.035945 
L 262.306618 537.559705 
L 259.900276 537.059376 
L 257.499058 536.53501 
L 255.103204 535.986658 
L 252.712953 535.414375 
L 250.328545 534.818219 
L 247.950217 534.198249 
L 247.522927 534.084169 
L 247.522927 534.084169 
Q 311.135876 296.677412 374.748824 59.270656 
z
" clip-path="url(#p9f14df0410)" style="fill: #000080; fill-opacity: 0.5; stroke: #808080; stroke-opacity: 0.5; stroke-width: 0.1"/>
    <path d="M 434.026656 83.824337 
L 434.026656 83.824337 
L 436.149007 85.063867 
L 438.258856 86.324558 
L 440.355993 87.606285 
L 442.440209 88.908918 
L 444.511294 90.232327 
L 446.569042 91.576382 
L 448.613246 92.940946 
L 450.643703 94.325883 
L 452.660209 95.731056 
L 454.662563 97.156323 
L 456.650565 98.601542 
L 458.624015 100.066568 
L 460.582716 101.551255 
L 462.526473 103.055455 
L 464.455091 104.579017 
L 466.368377 106.121788 
L 468.26614 107.683615 
L 470.14819 109.264341 
L 472.014339 110.863808 
L 473.8644 112.481857 
L 475.698188 114.118324 
L 477.515521 115.773048 
L 479.316215 117.445862 
L 481.100092 119.136599 
L 482.866972 120.84509 
L 484.61668 122.571163 
L 484.929684 122.883604 
L 484.929684 122.883604 
Q 311.135876 296.677412 374.748824 534.084169 
L 374.748824 534.084169 
L 374.748824 534.084169 
L 372.371616 534.708417 
L 369.988284 535.308863 
L 367.599066 535.885446 
L 365.204203 536.438108 
L 362.803932 536.966795 
L 360.398495 537.471452 
L 357.988132 537.95203 
L 355.573083 538.408482 
L 353.153591 538.84076 
L 350.729897 539.248822 
L 348.302244 539.632627 
L 345.870874 539.992137 
L 343.43603 540.327315 
L 340.997957 540.638129 
L 338.556897 540.924547 
L 336.113095 541.18654 
L 333.666796 541.424083 
L 331.218244 541.637151 
L 328.767683 541.825724 
L 326.315359 541.989782 
L 323.861517 542.129308 
L 321.406403 542.24429 
L 318.950262 542.334716 
L 316.493339 542.400575 
L 314.03588 542.441863 
L 311.578132 542.458574 
L 311.135876 542.458972 
L 311.135876 542.458972 
Q 311.135876 296.677412 434.026656 83.824337 
z
" clip-path="url(#p9f14df0410)" style="fill: #000080; fill-opacity: 0.5; stroke: #808080; stroke-opacity: 0.5; stroke-width: 0.1"/>
    <path d="M 484.929684 122.883604 
L 484.929684 122.883604 
L 486.658903 124.630203 
L 488.37057 126.394006 
L 490.064514 128.174838 
L 491.740566 129.97252 
L 493.398557 131.786872 
L 495.038322 133.617712 
L 496.659696 135.464859 
L 498.262519 137.328127 
L 499.846629 139.20733 
L 501.411868 141.102279 
L 502.95808 143.012786 
L 504.485109 144.938659 
L 505.992804 146.879706 
L 507.481013 148.835733 
L 508.949588 150.806544 
L 510.398382 152.791941 
L 511.82725 154.791727 
L 513.236049 156.805702 
L 514.624638 158.833663 
L 515.992878 160.875409 
L 517.340632 162.930735 
L 518.667767 164.999436 
L 519.974148 167.081304 
L 521.259646 169.176131 
L 522.524131 171.283709 
L 523.767478 173.403826 
L 524.989562 175.53627 
L 526.19026 177.680829 
L 527.369454 179.837286 
L 528.527024 182.005428 
L 529.662855 184.185037 
L 530.776834 186.375895 
L 531.868849 188.577783 
L 532.93879 190.790481 
L 533.986552 193.013767 
L 535.012029 195.24742 
L 536.015118 197.491216 
L 536.99572 199.74493 
L 537.953735 202.008337 
L 538.88907 204.281211 
L 539.801629 206.563325 
L 540.691321 208.85445 
L 541.558059 211.154358 
L 542.401754 213.462817 
L 543.222323 215.779598 
L 544.019683 218.104469 
L 544.793755 220.437197 
L 545.544462 222.777548 
L 546.271728 225.12529 
L 546.975481 227.480187 
L 547.65565 229.842004 
L 548.312167 232.210504 
L 548.542632 233.064464 
L 548.542632 233.064464 
Q 311.135876 296.677412 484.929684 470.47122 
L 484.929684 470.47122 
L 484.929684 470.47122 
L 483.183085 472.20044 
L 481.419281 473.912107 
L 479.63845 475.606051 
L 477.840768 477.282102 
L 476.026416 478.940093 
L 474.195575 480.579858 
L 472.348429 482.201233 
L 470.485161 483.804055 
L 468.605958 485.388165 
L 466.711009 486.953405 
L 464.800502 488.499616 
L 462.874629 490.026646 
L 460.933582 491.534341 
L 458.977555 493.02255 
L 457.006744 494.491125 
L 455.021347 495.939919 
L 453.021561 497.368787 
L 451.007586 498.777585 
L 448.979625 500.166174 
L 446.937879 501.534414 
L 444.882553 502.882169 
L 442.813852 504.209303 
L 440.731984 505.515685 
L 438.637156 506.801182 
L 436.529579 508.065668 
L 434.409462 509.309014 
L 432.277018 510.531098 
L 430.132459 511.731797 
L 427.976002 512.91099 
L 425.80786 514.06856 
L 423.628251 515.204392 
L 421.437393 516.318371 
L 419.235505 517.410385 
L 417.022807 518.480327 
L 414.799521 519.528089 
L 412.565868 520.553565 
L 410.322072 521.556655 
L 408.068358 522.537256 
L 405.804951 523.495272 
L 403.532077 524.430606 
L 401.249963 525.343165 
L 398.958838 526.232858 
L 396.65893 527.099595 
L 394.350471 527.943291 
L 392.03369 528.763859 
L 389.708819 529.56122 
L 387.376091 530.335292 
L 385.03574 531.085999 
L 382.687998 531.813265 
L 380.333101 532.517017 
L 377.971284 533.197186 
L 375.602784 533.853703 
L 374.748824 534.084169 
L 374.748824 534.084169 
Q 311.135876 296.677412 484.929684 122.883604 
z
" clip-path="url(#p9f14df0410)" style="fill: #000080; fill-opacity: 0.5; stroke: #808080; stroke-opacity: 0.5; stroke-width: 0.1"/>
   </g>
   <g id="patch_11">
    <path d="M 311.135876 50.895852 
L 313.59365 50.908141 
L 316.051179 50.945007 
L 318.508216 51.006446 
L 320.964517 51.092451 
L 323.419834 51.203015 
L 325.873923 51.338126 
L 328.326538 51.497771 
L 330.777434 51.681934 
L 333.226366 51.890596 
L 335.673089 52.123736 
L 338.117358 52.381332 
L 340.558929 52.663357 
L 342.997557 52.969783 
L 345.433 53.30058 
L 347.865013 53.655714 
L 350.293353 54.03515 
L 352.717777 54.438851 
L 355.138044 54.866775 
L 357.55391 55.318879 
L 359.965134 55.79512 
L 362.371475 56.295448 
L 364.772693 56.819815 
L 367.168547 57.368167 
L 369.558798 57.940449 
L 371.943207 58.536606 
L 374.321535 59.156576 
L 376.693544 59.800298 
L 379.058998 60.467707 
L 381.41766 61.158738 
L 383.769293 61.87332 
L 386.113663 62.611382 
L 388.450536 63.37285 
L 390.779677 64.157649 
L 393.100853 64.9657 
L 395.413834 65.796921 
L 397.718386 66.651231 
L 400.014281 67.528543 
L 402.301287 68.428769 
L 404.579177 69.351821 
L 406.847723 70.297604 
L 409.106698 71.266026 
L 411.355876 72.256988 
L 413.595032 73.270392 
L 415.823942 74.306137 
L 418.042383 75.364119 
L 420.250134 76.444231 
L 422.446973 77.546367 
L 424.632682 78.670416 
L 426.807041 79.816266 
L 428.969833 80.983801 
L 431.120841 82.172906 
L 433.259851 83.38346 
L 435.386649 84.615344 
L 437.501022 85.868434 
L 439.602758 87.142605 
L 441.691648 88.437729 
L 443.767482 89.753677 
L 445.830054 91.090317 
L 447.879156 92.447516 
L 449.914584 93.825137 
L 451.936134 95.223044 
L 453.943604 96.641095 
L 455.936793 98.079151 
L 457.915503 99.537066 
L 459.879535 101.014694 
L 461.828692 102.511889 
L 463.76278 104.0285 
L 465.681606 105.564376 
L 467.584977 107.119363 
L 469.472704 108.693306 
L 471.344597 110.286047 
L 473.200469 111.897427 
L 475.040135 113.527285 
L 476.863411 115.175458 
L 478.670114 116.841781 
L 480.460063 118.526087 
L 482.233081 120.228208 
L 483.988989 121.947974 
L 485.727611 123.685212 
L 487.448775 125.43975 
L 489.152307 127.211412 
L 490.838038 129.00002 
L 492.505799 130.805395 
L 494.155423 132.627358 
L 495.786746 134.465725 
L 497.399603 136.320313 
L 498.993834 138.190937 
L 500.56928 140.07741 
L 502.125782 141.979542 
L 503.663186 143.897144 
L 505.181337 145.830024 
L 506.680083 147.777989 
L 508.159275 149.740843 
L 509.618765 151.718391 
L 511.058407 153.710435 
L 512.478057 155.716775 
L 513.877573 157.737212 
L 515.256815 159.771542 
L 516.615645 161.819562 
L 517.953927 163.881069 
L 519.271528 165.955854 
L 520.568315 168.043712 
L 521.844159 170.144433 
L 523.098932 172.257808 
L 524.332509 174.383624 
L 525.544767 176.521669 
L 526.735584 178.67173 
L 527.904841 180.833592 
L 529.052422 183.007037 
L 530.178211 185.19185 
L 531.282096 187.387811 
L 532.363967 189.594701 
L 533.423715 191.812299 
L 534.461234 194.040384 
L 535.476421 196.278732 
L 536.469174 198.52712 
L 537.439394 200.785323 
L 538.386984 203.053115 
L 539.311849 205.330269 
L 540.213896 207.616558 
L 541.093036 209.911753 
L 541.949181 212.215625 
L 542.782244 214.527942 
L 543.592143 216.848475 
L 544.378796 219.17699 
L 545.142125 221.513255 
L 545.882054 223.857037 
L 546.598508 226.208101 
L 547.291417 228.566211 
L 547.96071 230.931133 
L 548.542632 233.064464 
L 550.94068 232.421909 
L 550.35288 230.267029 
L 549.676826 227.878219 
L 548.976919 225.496289 
L 548.253228 223.121478 
L 547.505825 220.754021 
L 546.734785 218.394158 
L 545.940186 216.042122 
L 545.122106 213.69815 
L 544.280628 211.362475 
L 543.415836 209.035332 
L 542.527816 206.716953 
L 541.616657 204.407571 
L 540.68245 202.107415 
L 539.725288 199.816716 
L 538.745268 197.535703 
L 537.742487 195.264604 
L 536.717046 193.003646 
L 535.669046 190.753055 
L 534.598594 188.513057 
L 533.505795 186.283876 
L 532.39076 184.065733 
L 531.253599 181.858852 
L 530.094427 179.663452 
L 528.913359 177.479754 
L 527.710513 175.307975 
L 526.486011 173.148333 
L 525.239973 171.001044 
L 523.972525 168.866322 
L 522.683794 166.744382 
L 521.373908 164.635435 
L 520.042998 162.539691 
L 518.691198 160.457362 
L 517.318643 158.388654 
L 515.925469 156.333775 
L 514.511817 154.29293 
L 513.077827 152.266324 
L 511.623643 150.254159 
L 510.149411 148.256636 
L 508.655277 146.273954 
L 507.141392 144.306313 
L 505.607906 142.353909 
L 504.054973 140.416938 
L 502.482748 138.495592 
L 500.891389 136.590064 
L 499.281055 134.700545 
L 497.651906 132.827223 
L 496.004106 130.970286 
L 494.337819 129.12992 
L 492.653212 127.306309 
L 490.950453 125.499634 
L 489.229713 123.710077 
L 487.491164 121.937817 
L 485.73498 120.18303 
L 483.961335 118.445893 
L 482.170409 116.726578 
L 480.362379 115.025259 
L 478.537426 113.342105 
L 476.695734 111.677284 
L 474.837485 110.030963 
L 472.962867 108.403306 
L 471.072066 106.794477 
L 469.165271 105.204636 
L 467.242674 103.633942 
L 465.304466 102.082552 
L 463.350842 100.550621 
L 461.381996 99.038303 
L 459.398125 97.545749 
L 457.399429 96.073108 
L 455.386106 94.620527 
L 453.358359 93.188151 
L 451.316389 91.776124 
L 449.260401 90.384588 
L 447.190601 89.01368 
L 445.107196 87.663538 
L 443.010393 86.334298 
L 440.900404 85.026092 
L 438.777437 83.739051 
L 436.641707 82.473303 
L 434.493427 81.228976 
L 432.33281 80.006193 
L 430.160074 78.805078 
L 427.975436 77.625749 
L 425.779114 76.468325 
L 423.571328 75.332923 
L 421.352298 74.219654 
L 419.122247 73.128631 
L 416.881397 72.059962 
L 414.629973 71.013756 
L 412.368199 69.990115 
L 410.096302 68.989143 
L 407.81451 68.010939 
L 405.523049 67.055602 
L 403.22215 66.123227 
L 400.912042 65.213908 
L 398.592957 64.327734 
L 396.265126 63.464795 
L 393.928783 62.625177 
L 391.58416 61.808965 
L 389.231492 61.016239 
L 386.871015 60.247078 
L 384.502964 59.501561 
L 382.127577 58.779761 
L 379.74509 58.081751 
L 377.355743 57.4076 
L 374.959774 56.757375 
L 372.557422 56.131143 
L 370.148929 55.528965 
L 367.734534 54.950902 
L 365.314479 54.397011 
L 362.889006 53.867348 
L 360.458359 53.361965 
L 358.022779 52.880914 
L 355.58251 52.424243 
L 353.137797 51.991996 
L 350.688883 51.584218 
L 348.236014 51.200949 
L 345.779436 50.842228 
L 343.319393 50.50809 
L 340.856131 50.198568 
L 338.389898 49.913695 
L 335.920939 49.653497 
L 333.449502 49.418002 
L 330.975833 49.207232 
L 328.500181 49.021209 
L 326.022792 48.859952 
L 323.543914 48.723476 
L 321.063796 48.611795 
L 318.582685 48.524921 
L 316.100829 48.462861 
L 313.618476 48.425623 
L 311.135876 48.41321 
L 311.135876 50.895852 
z
" clip-path="url(#p9f14df0410)" style="fill: none; stroke: #000000; stroke-width: 0.5; stroke-linejoin: miter"/>
   </g>
   <g id="patch_12">
    <path d="M 548.542632 233.064464 
L 549.166881 235.441672 
L 549.767327 237.825004 
L 550.343909 240.214222 
L 550.896572 242.609085 
L 551.425258 245.009356 
L 551.929916 247.414793 
L 552.410494 249.825156 
L 552.866945 252.240205 
L 553.299223 254.659697 
L 553.707285 257.083391 
L 554.09109 259.511044 
L 554.4506 261.942414 
L 554.785779 264.377258 
L 555.096593 266.815331 
L 555.38301 269.256391 
L 555.645004 271.700192 
L 555.882547 274.146492 
L 556.095615 276.595044 
L 556.284187 279.045605 
L 556.448245 281.497929 
L 556.587772 283.951771 
L 556.702754 286.406885 
L 556.793179 288.863026 
L 556.859039 291.319949 
L 556.900326 293.777408 
L 556.917038 296.235156 
L 556.909171 298.692949 
L 556.876728 301.15054 
L 556.81971 303.607684 
L 556.738125 306.064135 
L 556.631979 308.519647 
L 556.501284 310.973975 
L 556.346053 313.426874 
L 556.1663 315.878097 
L 555.962045 318.3274 
L 555.733308 320.774539 
L 555.480111 323.219267 
L 555.20248 325.661342 
L 554.900442 328.100518 
L 554.574028 330.536552 
L 554.22327 332.9692 
L 553.848204 335.398219 
L 553.448867 337.823366 
L 553.025299 340.244398 
L 552.577542 342.661074 
L 552.105641 345.073151 
L 551.609643 347.480389 
L 551.089598 349.882546 
L 550.545558 352.279383 
L 549.977577 354.67066 
L 549.385713 357.056137 
L 548.770023 359.435577 
L 548.13057 361.808741 
L 547.467418 364.175392 
L 546.780633 366.535293 
L 546.070284 368.888209 
L 545.336441 371.233903 
L 544.579179 373.572142 
L 543.798572 375.902691 
L 542.9947 378.225318 
L 542.167641 380.539791 
L 541.31748 382.845877 
L 540.444301 385.143346 
L 539.548191 387.431969 
L 538.62924 389.711516 
L 537.68754 391.98176 
L 536.723185 394.242474 
L 535.736271 396.493431 
L 534.726898 398.734407 
L 533.695165 400.965177 
L 532.641177 403.185519 
L 531.565039 405.395209 
L 530.466857 407.594028 
L 529.346743 409.781756 
L 528.204808 411.958173 
L 527.041167 414.123062 
L 525.855934 416.276207 
L 524.649231 418.417392 
L 523.421175 420.546403 
L 522.171892 422.663027 
L 520.901505 424.767053 
L 519.610142 426.85827 
L 518.297931 428.936469 
L 516.965005 431.001442 
L 515.611496 433.052982 
L 514.237539 435.090886 
L 512.843272 437.114948 
L 511.428835 439.124967 
L 509.994369 441.12074 
L 508.540017 443.10207 
L 507.065924 445.068758 
L 505.572239 447.020606 
L 504.059111 448.95742 
L 502.52669 450.879006 
L 500.97513 452.785172 
L 499.404587 454.675728 
L 497.815216 456.550484 
L 496.207178 458.409253 
L 494.580633 460.251848 
L 492.935744 462.078087 
L 491.272675 463.887785 
L 489.591593 465.680763 
L 487.892664 467.45684 
L 486.176061 469.215839 
L 484.441953 470.957585 
L 482.690516 472.681903 
L 480.921922 474.388621 
L 479.136351 476.077568 
L 477.333979 477.748574 
L 475.514988 479.401474 
L 473.679559 481.036102 
L 471.827875 482.652294 
L 469.960123 484.249888 
L 468.076488 485.828726 
L 466.17716 487.388648 
L 464.262327 488.9295 
L 462.332182 490.451126 
L 460.386918 491.953375 
L 458.426728 493.436097 
L 456.451809 494.899143 
L 454.462359 496.342368 
L 452.458577 497.765625 
L 450.440662 499.168774 
L 448.408817 500.551675 
L 446.363245 501.914187 
L 444.30415 503.256177 
L 442.231738 504.577509 
L 440.146217 505.87805 
L 438.047795 507.157672 
L 435.936682 508.416247 
L 433.813089 509.653647 
L 431.677229 510.86975 
L 429.529314 512.064434 
L 427.36956 513.237579 
L 425.198183 514.389069 
L 423.015399 515.518787 
L 420.821428 516.626622 
L 418.616489 517.712462 
L 416.400801 518.776198 
L 414.174587 519.817725 
L 411.938069 520.836938 
L 409.691471 521.833736 
L 407.435018 522.808017 
L 405.168934 523.759686 
L 402.893448 524.688647 
L 400.608786 525.594807 
L 398.315176 526.478076 
L 396.012849 527.338364 
L 393.702034 528.175587 
L 391.382963 528.98966 
L 389.055867 529.780502 
L 386.720979 530.548034 
L 384.378532 531.292179 
L 382.028761 532.012862 
L 379.671902 532.710013 
L 377.308188 533.38356 
L 374.937858 534.033437 
L 374.748824 534.084169 
L 375.391379 536.482217 
L 375.582322 536.430972 
L 377.976595 535.774531 
L 380.364185 535.09418 
L 382.744851 534.389988 
L 385.118357 533.662025 
L 387.484464 532.910363 
L 389.842937 532.135078 
L 392.193539 531.336248 
L 394.536036 530.513952 
L 396.870192 529.668273 
L 399.195775 528.799294 
L 401.512552 527.907104 
L 403.820292 526.991791 
L 406.118763 526.053447 
L 408.407736 525.092165 
L 410.686982 524.108042 
L 412.956273 523.101176 
L 415.215382 522.071668 
L 417.464083 521.01962 
L 419.702151 519.945139 
L 421.929363 518.848331 
L 424.145496 517.729306 
L 426.350327 516.588176 
L 428.543638 515.425056 
L 430.725207 514.24006 
L 432.894818 513.033309 
L 435.052253 511.804922 
L 437.197297 510.555023 
L 439.329734 509.283736 
L 441.449352 507.991188 
L 443.555939 506.67751 
L 445.649284 505.342831 
L 447.729178 503.987286 
L 449.795412 502.611011 
L 451.847781 501.214142 
L 453.886079 499.796819 
L 455.910102 498.359185 
L 457.919647 496.901383 
L 459.914514 495.423559 
L 461.894504 493.92586 
L 463.859418 492.408436 
L 465.809059 490.87144 
L 467.743233 489.315024 
L 469.661747 487.739345 
L 471.564408 486.14456 
L 473.451027 484.530828 
L 475.321414 482.898311 
L 477.175383 481.247172 
L 479.012748 479.577576 
L 480.833325 477.88969 
L 482.636933 476.183684 
L 484.423391 474.459726 
L 486.19252 472.717991 
L 487.944144 470.958652 
L 489.678087 469.181885 
L 491.394176 467.387867 
L 493.092239 465.576779 
L 494.772107 463.748801 
L 496.433611 461.904115 
L 498.076586 460.042908 
L 499.700866 458.165363 
L 501.306291 456.271671 
L 502.892698 454.362019 
L 504.45993 452.436598 
L 506.00783 450.495602 
L 507.536243 448.539224 
L 509.045016 446.56766 
L 510.533998 444.581107 
L 512.00304 442.579764 
L 513.451996 440.563831 
L 514.880721 438.533509 
L 516.289071 436.489002 
L 517.676906 434.430514 
L 519.044087 432.35825 
L 520.390477 430.272419 
L 521.715943 428.173228 
L 523.02035 426.060887 
L 524.303569 423.935609 
L 525.565471 421.797605 
L 526.805931 419.647088 
L 528.024824 417.484275 
L 529.222028 415.309382 
L 530.397424 413.122625 
L 531.550894 410.924224 
L 532.682322 408.714398 
L 533.791596 406.493369 
L 534.878604 404.261358 
L 535.943239 402.018589 
L 536.985393 399.765286 
L 538.004962 397.501674 
L 539.001844 395.22798 
L 539.975941 392.94443 
L 540.927153 390.651255 
L 541.855386 388.348681 
L 542.760548 386.036941 
L 543.642547 383.716265 
L 544.501296 381.386885 
L 545.336708 379.049035 
L 546.148701 376.702947 
L 546.937192 374.348856 
L 547.702104 371.986999 
L 548.443359 369.617611 
L 549.160883 367.240928 
L 549.854606 364.85719 
L 550.524456 362.466633 
L 551.170368 360.069498 
L 551.792277 357.666024 
L 552.39012 355.25645 
L 552.963838 352.841019 
L 553.513373 350.419972 
L 554.038671 347.99355 
L 554.539679 345.561997 
L 555.016347 343.125555 
L 555.468626 340.684469 
L 555.896473 338.238981 
L 556.299844 335.789338 
L 556.678699 333.335784 
L 557.032999 330.878564 
L 557.36271 328.417923 
L 557.667799 325.954109 
L 557.948234 323.487367 
L 558.203989 321.017944 
L 558.435037 318.546087 
L 558.641355 316.072043 
L 558.822923 313.59606 
L 558.979722 311.118385 
L 559.111738 308.639266 
L 559.218956 306.15895 
L 559.301365 303.677687 
L 559.358959 301.195723 
L 559.39173 298.713308 
L 559.399676 296.230689 
L 559.382796 293.748115 
L 559.341091 291.265833 
L 559.274566 288.784093 
L 559.183227 286.303142 
L 559.067084 283.823229 
L 558.926148 281.344601 
L 558.760433 278.867506 
L 558.569956 276.392192 
L 558.354735 273.918907 
L 558.114793 271.447897 
L 557.850153 268.979411 
L 557.560842 266.513694 
L 557.246889 264.050994 
L 556.908325 261.591556 
L 556.545184 259.135626 
L 556.157502 256.683451 
L 555.745318 254.235276 
L 555.308673 251.791344 
L 554.847611 249.351901 
L 554.362179 246.917191 
L 553.852423 244.487456 
L 553.318397 242.062941 
L 552.760152 239.643886 
L 552.177745 237.230536 
L 551.571234 234.823129 
L 550.94068 232.421909 
L 548.542632 233.064464 
z
" clip-path="url(#p9f14df0410)" style="fill: none; stroke: #000000; stroke-width: 0.5; stroke-linejoin: miter"/>
   </g>
   <g id="patch_13">
    <path d="M 374.748824 534.084169 
L 372.371616 534.708417 
L 369.988284 535.308863 
L 367.599066 535.885446 
L 365.204203 536.438108 
L 362.803932 536.966795 
L 360.398495 537.471452 
L 357.988132 537.95203 
L 355.573083 538.408482 
L 353.153591 538.84076 
L 350.729897 539.248822 
L 348.302244 539.632627 
L 345.870874 539.992137 
L 343.43603 540.327315 
L 340.997957 540.638129 
L 338.556897 540.924547 
L 336.113095 541.18654 
L 333.666796 541.424083 
L 331.218244 541.637151 
L 328.767683 541.825724 
L 326.315359 541.989782 
L 323.861517 542.129308 
L 321.406403 542.24429 
L 318.950262 542.334716 
L 316.493339 542.400575 
L 314.03588 542.441863 
L 311.578132 542.458574 
L 311.135876 542.458972 
L 311.135876 544.941614 
L 311.582599 544.941212 
L 314.065173 544.924332 
L 316.547455 544.882628 
L 319.029195 544.816102 
L 321.510146 544.724764 
L 323.990059 544.608621 
L 326.468687 544.467684 
L 328.945782 544.301969 
L 331.421096 544.111492 
L 333.894381 543.896272 
L 336.365391 543.65633 
L 338.833877 543.39169 
L 341.299594 543.102379 
L 343.762294 542.788426 
L 346.221732 542.449861 
L 348.677661 542.08672 
L 351.129837 541.699038 
L 353.578012 541.286854 
L 356.021944 540.85021 
L 358.461387 540.389148 
L 360.896097 539.903715 
L 363.325832 539.39396 
L 365.750347 538.859933 
L 368.169402 538.301689 
L 370.582752 537.719282 
L 372.990159 537.112771 
L 375.391379 536.482217 
L 374.748824 534.084169 
z
" clip-path="url(#p9f14df0410)" style="fill: none; stroke: #000000; stroke-width: 0.5; stroke-linejoin: miter"/>
   </g>
   <g id="patch_14">
    <path d="M 311.135876 542.458972 
L 308.678101 542.446683 
L 306.220572 542.409818 
L 303.763535 542.348379 
L 301.307235 542.262373 
L 298.851917 542.151809 
L 296.397829 542.016698 
L 293.945214 541.857053 
L 291.494317 541.672891 
L 289.045386 541.464229 
L 286.598663 541.231088 
L 284.154394 540.973493 
L 281.712823 540.691468 
L 279.274194 540.385041 
L 276.838751 540.054245 
L 274.406738 539.69911 
L 271.978398 539.319674 
L 269.553974 538.915974 
L 267.133708 538.48805 
L 264.717842 538.035945 
L 262.306618 537.559705 
L 259.900276 537.059376 
L 257.499058 536.53501 
L 255.103204 535.986658 
L 252.712953 535.414375 
L 250.328545 534.818219 
L 247.950217 534.198249 
L 247.522927 534.084169 
L 246.880372 536.482217 
L 247.311978 536.597449 
L 249.714329 537.223682 
L 252.122823 537.82586 
L 254.537218 538.403923 
L 256.957272 538.957814 
L 259.382745 539.487477 
L 261.813393 539.992859 
L 264.248973 540.47391 
L 266.689241 540.930582 
L 269.133955 541.362828 
L 271.582868 541.770606 
L 274.035737 542.153875 
L 276.492316 542.512597 
L 278.952359 542.846735 
L 281.41562 543.156256 
L 283.881853 543.44113 
L 286.350812 543.701327 
L 288.822249 543.936823 
L 291.295918 544.147593 
L 293.77157 544.333615 
L 296.248959 544.494873 
L 298.727837 544.631349 
L 301.207956 544.74303 
L 303.689067 544.829904 
L 306.170923 544.891963 
L 308.653275 544.929201 
L 311.135876 544.941614 
L 311.135876 542.458972 
z
" clip-path="url(#p9f14df0410)" style="fill: none; stroke: #000000; stroke-width: 0.5; stroke-linejoin: miter"/>
   </g>
   <g id="patch_15">
    <path d="M 247.522927 534.084169 
L 245.15208 533.43618 
L 242.787831 532.764515 
L 240.430416 532.069242 
L 238.080072 531.350429 
L 235.737034 530.60815 
L 233.401536 529.842478 
L 231.073811 529.053489 
L 228.754092 528.241263 
L 226.442611 527.405881 
L 224.139599 526.547426 
L 221.845287 525.665984 
L 219.559904 524.761644 
L 217.283678 523.834495 
L 215.016838 522.884631 
L 212.759609 521.912147 
L 210.512218 520.917139 
L 208.27489 519.899707 
L 206.047847 518.859953 
L 203.831313 517.797981 
L 201.625509 516.713898 
L 199.430657 515.607811 
L 197.246974 514.479831 
L 195.074681 513.330071 
L 192.913993 512.158645 
L 190.765128 510.965672 
L 188.6283 509.751271 
L 186.503722 508.515562 
L 184.391607 507.258669 
L 182.292167 505.980718 
L 180.205611 504.681838 
L 178.132148 503.362157 
L 176.071985 502.021808 
L 174.025328 500.660924 
L 171.992383 499.279642 
L 169.973351 497.878101 
L 167.968436 496.456439 
L 165.977837 495.014799 
L 164.001754 493.553327 
L 162.040385 492.072166 
L 160.093924 490.571466 
L 158.162568 489.051377 
L 156.246509 487.512051 
L 154.345939 485.953642 
L 152.461048 484.376305 
L 150.592024 482.780198 
L 148.739054 481.165481 
L 146.902324 479.532316 
L 145.082017 477.880865 
L 143.278315 476.211294 
L 141.491399 474.52377 
L 139.721447 472.818461 
L 137.968637 471.095538 
L 136.233143 469.355174 
L 134.515139 467.597542 
L 132.814797 465.822818 
L 131.132287 464.03118 
L 129.467778 462.222806 
L 127.821435 460.397878 
L 126.193423 458.556579 
L 124.583905 456.699091 
L 122.993043 454.825601 
L 121.420994 452.936297 
L 119.867917 451.031367 
L 118.333967 449.111002 
L 116.819296 447.175393 
L 115.324057 445.224735 
L 113.848399 443.259222 
L 112.39247 441.279051 
L 110.956415 439.28442 
L 109.540377 437.275529 
L 108.144499 435.252577 
L 106.76892 433.215769 
L 105.413778 431.165306 
L 104.079207 429.101395 
L 102.765342 427.024242 
L 101.472314 424.934054 
L 100.200252 422.831041 
L 98.949283 420.715412 
L 98.282801 419.568192 
L 96.13277 420.809513 
L 96.805984 421.968321 
L 98.069589 424.10532 
L 99.3545 426.229576 
L 100.660589 428.340877 
L 101.987726 430.439011 
L 103.335777 432.52377 
L 104.704607 434.594944 
L 106.094081 436.652326 
L 107.504059 438.695712 
L 108.9344 440.724895 
L 110.384961 442.739674 
L 111.855596 444.739846 
L 113.34616 446.725213 
L 114.856502 448.695575 
L 116.386473 450.650735 
L 117.935918 452.590498 
L 119.504682 454.51467 
L 121.09261 456.423058 
L 122.699542 458.315472 
L 124.325317 460.191722 
L 125.969774 462.05162 
L 127.632746 463.894982 
L 129.314069 465.721622 
L 131.013574 467.531357 
L 132.731091 469.324008 
L 134.466449 471.099394 
L 136.219473 472.857338 
L 137.989988 474.597663 
L 139.777818 476.320198 
L 141.582784 478.024767 
L 143.404705 479.711203 
L 145.243399 481.379335 
L 147.098682 483.028997 
L 148.970369 484.660024 
L 150.858272 486.272253 
L 152.762202 487.865523 
L 154.68197 489.439674 
L 156.617383 490.994549 
L 158.568248 492.529992 
L 160.53437 494.04585 
L 162.515551 495.541972 
L 164.511594 497.018207 
L 166.5223 498.474409 
L 168.547467 499.910431 
L 170.586893 501.32613 
L 172.640373 502.721364 
L 174.707703 504.095993 
L 176.788676 505.449882 
L 178.883083 506.782893 
L 180.990715 508.094893 
L 183.111362 509.385752 
L 185.244811 510.655341 
L 187.390849 511.903532 
L 189.549262 513.1302 
L 191.719833 514.335224 
L 193.902345 515.518481 
L 196.096581 516.679855 
L 198.302321 517.819229 
L 200.519344 518.936489 
L 202.747428 520.031523 
L 204.986352 521.104221 
L 207.23589 522.154478 
L 209.495818 523.182186 
L 211.76591 524.187245 
L 214.045939 525.169553 
L 216.335676 526.129011 
L 218.634894 527.065525 
L 220.943362 527.979 
L 223.260849 528.869345 
L 225.587123 529.736471 
L 227.921952 530.580292 
L 230.265103 531.400722 
L 232.61634 532.19768 
L 234.97543 532.971087 
L 237.342135 533.720864 
L 239.71622 534.446937 
L 242.097446 535.149233 
L 244.485577 535.827682 
L 246.880372 536.482217 
L 247.522927 534.084169 
z
" clip-path="url(#p9f14df0410)" style="fill: none; stroke: #000000; stroke-width: 0.5; stroke-linejoin: miter"/>
   </g>
   <g id="patch_16">
    <path d="M 98.282801 419.568192 
L 97.064556 417.433553 
L 95.867718 415.286837 
L 94.692407 413.128261 
L 93.53874 410.95804 
L 92.406833 408.776391 
L 91.296798 406.583532 
L 90.208747 404.379683 
L 89.142788 402.165063 
L 88.099029 399.939895 
L 87.077573 397.704401 
L 86.078523 395.458804 
L 85.101978 393.203329 
L 84.148037 390.938201 
L 83.216794 388.663647 
L 82.308343 386.379895 
L 81.422774 384.087173 
L 80.560177 381.78571 
L 79.720637 379.475736 
L 78.904238 377.157482 
L 78.111062 374.831181 
L 77.341188 372.497064 
L 76.594694 370.155365 
L 75.871654 367.806318 
L 75.17214 365.450159 
L 74.496222 363.087122 
L 73.843968 360.717445 
L 73.215443 358.341363 
L 72.610709 355.959115 
L 72.029828 353.570939 
L 71.472858 351.177074 
L 70.939853 348.777759 
L 70.430868 346.373234 
L 69.945953 343.963739 
L 69.485157 341.549516 
L 69.048526 339.130805 
L 68.636104 336.707849 
L 68.247931 334.28089 
L 67.884047 331.850171 
L 67.544487 329.415935 
L 67.229287 326.978425 
L 66.938477 324.537884 
L 66.672087 322.094558 
L 66.430143 319.64869 
L 66.212669 317.200525 
L 66.019687 314.750308 
L 65.851217 312.298283 
L 65.707275 309.844696 
L 65.587876 307.389793 
L 65.493031 304.933818 
L 65.422751 302.477018 
L 65.377041 300.019638 
L 65.355907 297.561923 
L 65.354316 296.677412 
L 62.871674 296.677412 
L 62.873281 297.570857 
L 62.894628 300.053397 
L 62.9408 302.5356 
L 63.01179 305.017216 
L 63.107593 307.497999 
L 63.228198 309.977699 
L 63.373594 312.45607 
L 63.543766 314.932862 
L 63.738697 317.407829 
L 63.958368 319.880723 
L 64.202756 322.351297 
L 64.471837 324.819303 
L 64.765584 327.284496 
L 65.083968 329.746627 
L 65.426957 332.205452 
L 65.794517 334.660724 
L 66.186611 337.112197 
L 66.603199 339.559627 
L 67.044241 342.002769 
L 67.509692 344.441379 
L 67.999504 346.875212 
L 68.513631 349.304025 
L 69.052019 351.727576 
L 69.614616 354.145621 
L 70.201364 356.55792 
L 70.812206 358.964231 
L 71.44708 361.364314 
L 72.105922 363.757927 
L 72.788668 366.144833 
L 73.495248 368.524792 
L 74.225591 370.897566 
L 74.979626 373.262919 
L 75.757276 375.620613 
L 76.558464 377.970412 
L 77.383109 380.312083 
L 78.231129 382.64539 
L 79.10244 384.9701 
L 79.996954 387.285981 
L 80.914581 389.592801 
L 81.85523 391.89033 
L 82.818808 394.178338 
L 83.805216 396.456595 
L 84.814358 398.724875 
L 85.846132 400.98295 
L 86.900434 403.230595 
L 87.97716 405.467584 
L 89.076201 407.693695 
L 90.197448 409.908704 
L 91.340789 412.11239 
L 92.506109 414.304532 
L 93.693292 416.484912 
L 94.902219 418.653312 
L 96.13277 420.809513 
L 98.282801 419.568192 
z
" clip-path="url(#p9f14df0410)" style="fill: none; stroke: #000000; stroke-width: 0.5; stroke-linejoin: miter"/>
   </g>
   <g id="patch_17">
    <path d="M 65.354316 296.677412 
L 65.366605 294.219638 
L 65.40347 291.762109 
L 65.464909 289.305071 
L 65.550915 286.848771 
L 65.661478 284.393454 
L 65.79659 281.939365 
L 65.956235 279.48675 
L 66.140397 277.035854 
L 66.349059 274.586922 
L 66.5822 272.140199 
L 66.839795 269.69593 
L 67.12182 267.254359 
L 67.428246 264.81573 
L 67.759043 262.380288 
L 68.114178 259.948275 
L 68.493614 257.519935 
L 68.897314 255.095511 
L 69.325238 252.675244 
L 69.777343 250.259378 
L 70.253583 247.848154 
L 70.753912 245.441813 
L 71.278278 243.040595 
L 71.82663 240.644741 
L 72.398913 238.25449 
L 72.995069 235.870081 
L 73.615039 233.491753 
L 73.729119 233.064464 
L 71.331071 232.421909 
L 71.215839 232.853514 
L 70.589606 235.255866 
L 69.987428 237.664359 
L 69.409365 240.078754 
L 68.855474 242.498809 
L 68.325811 244.924282 
L 67.820429 247.354929 
L 67.339378 249.790509 
L 66.882706 252.230778 
L 66.45046 254.675491 
L 66.042682 257.124405 
L 65.659413 259.577274 
L 65.300691 262.033852 
L 64.966553 264.493895 
L 64.657032 266.957157 
L 64.372158 269.42339 
L 64.11196 271.892349 
L 63.876465 274.363786 
L 63.665695 276.837455 
L 63.479672 279.313107 
L 63.318415 281.790496 
L 63.181939 284.269374 
L 63.070258 286.749492 
L 62.983384 289.230603 
L 62.921325 291.712459 
L 62.884087 294.194812 
L 62.871674 296.677412 
L 65.354316 296.677412 
z
" clip-path="url(#p9f14df0410)" style="fill: none; stroke: #000000; stroke-width: 0.5; stroke-linejoin: miter"/>
   </g>
   <g id="patch_18">
    <path d="M 73.729119 233.064464 
L 74.377108 230.693616 
L 75.048773 228.329367 
L 75.744046 225.971953 
L 76.462859 223.621609 
L 77.205138 221.278571 
L 77.97081 218.943072 
L 78.759799 216.615347 
L 79.572025 214.295628 
L 80.407407 211.984147 
L 81.265862 209.681136 
L 82.147304 207.386824 
L 83.051644 205.101441 
L 83.978793 202.825215 
L 84.928657 200.558375 
L 85.901141 198.301146 
L 86.896149 196.053755 
L 87.913581 193.816426 
L 88.953335 191.589384 
L 90.015306 189.37285 
L 91.09939 187.167046 
L 92.205477 184.972193 
L 93.333457 182.788511 
L 94.483217 180.616217 
L 95.654643 178.45553 
L 96.847616 176.306665 
L 98.062017 174.169836 
L 98.282801 173.786632 
L 96.13277 172.545311 
L 95.909756 172.932386 
L 94.683088 175.090798 
L 93.478064 177.26137 
L 92.294807 179.443882 
L 91.133433 181.638118 
L 89.994059 183.843858 
L 88.876799 186.060881 
L 87.781765 188.288965 
L 86.709067 190.527888 
L 85.65881 192.777426 
L 84.631101 195.037354 
L 83.626043 197.307446 
L 82.643735 199.587475 
L 81.684277 201.877213 
L 80.747763 204.176431 
L 79.834288 206.484899 
L 78.943943 208.802385 
L 78.076817 211.12866 
L 77.232996 213.463489 
L 76.412566 215.806639 
L 75.615608 218.157877 
L 74.842201 220.516966 
L 74.092424 222.883672 
L 73.366351 225.257756 
L 72.664055 227.638983 
L 71.985606 230.027113 
L 71.331071 232.421909 
L 73.729119 233.064464 
z
" clip-path="url(#p9f14df0410)" style="fill: none; stroke: #000000; stroke-width: 0.5; stroke-linejoin: miter"/>
   </g>
   <g id="patch_19">
    <path d="M 98.282801 173.786632 
L 99.522331 171.664281 
L 100.783022 169.554432 
L 102.064748 167.457294 
L 103.367381 165.373079 
L 104.690791 163.301994 
L 106.034845 161.244246 
L 107.399409 159.200042 
L 108.784347 157.169585 
L 110.189519 155.153078 
L 111.614786 153.150725 
L 113.060005 151.162723 
L 114.525031 149.189273 
L 116.009719 147.230572 
L 117.513918 145.286815 
L 119.03748 143.358197 
L 120.580252 141.444911 
L 122.142078 139.547148 
L 123.722804 137.665098 
L 125.322272 135.798949 
L 126.94032 133.948888 
L 128.576788 132.1151 
L 130.231511 130.297767 
L 131.904325 128.497073 
L 133.595062 126.713196 
L 135.303553 124.946315 
L 137.029627 123.196608 
L 138.773111 121.464249 
L 140.533832 119.74941 
L 142.311612 118.052265 
L 144.106275 116.372981 
L 145.917641 114.711728 
L 147.745528 113.068672 
L 149.589754 111.443976 
L 151.450135 109.837803 
L 153.326484 108.250314 
L 155.218614 106.681668 
L 157.126336 105.132021 
L 159.049458 103.601528 
L 160.987789 102.090343 
L 162.941135 100.598617 
L 164.9093 99.126498 
L 166.892087 97.674134 
L 168.889299 96.24167 
L 170.900735 94.82925 
L 172.926195 93.437014 
L 174.965476 92.065102 
L 177.018373 90.713651 
L 179.084682 89.382797 
L 181.164196 88.072672 
L 183.256707 86.783407 
L 185.362006 85.515131 
L 187.479883 84.267971 
L 189.610124 83.042052 
L 191.752519 81.837497 
L 193.906851 80.654425 
L 196.072906 79.492955 
L 198.250468 78.353204 
L 200.439318 77.235285 
L 202.639237 76.13931 
L 204.850006 75.065388 
L 207.071404 74.013628 
L 209.303208 72.984133 
L 211.545195 71.977008 
L 213.797141 70.992353 
L 216.058821 70.030266 
L 218.330008 69.090843 
L 220.610476 68.17418 
L 222.899997 67.280366 
L 225.198341 66.409491 
L 227.505278 65.561644 
L 229.820579 64.736907 
L 232.144011 63.935365 
L 234.475342 63.157096 
L 236.81434 62.40218 
L 239.160769 61.67069 
L 241.514396 60.962702 
L 243.874985 60.278284 
L 246.2423 59.617506 
L 248.616104 58.980434 
L 250.99616 58.367132 
L 253.38223 57.77766 
L 255.774075 57.212078 
L 258.171457 56.670442 
L 260.574135 56.152807 
L 262.981869 55.659224 
L 265.394418 55.189743 
L 267.811542 54.74441 
L 270.232998 54.323271 
L 272.658544 53.926366 
L 275.087938 53.553737 
L 277.520936 53.20542 
L 279.957296 52.881449 
L 282.396774 52.581859 
L 284.839126 52.306677 
L 287.284107 52.055932 
L 289.731474 51.82965 
L 292.180981 51.627851 
L 294.632384 51.450558 
L 297.085436 51.297787 
L 299.539894 51.169554 
L 301.995512 51.065871 
L 304.452043 50.98675 
L 306.909243 50.932197 
L 309.366866 50.902218 
L 311.135876 50.895852 
L 311.135876 48.41321 
L 309.348997 48.419641 
L 306.86655 48.449922 
L 304.38453 48.505026 
L 301.903185 48.584947 
L 299.422763 48.689677 
L 296.943513 48.819205 
L 294.465682 48.973519 
L 291.989517 49.152603 
L 289.515268 49.35644 
L 287.04318 49.585008 
L 284.573502 49.838286 
L 282.10648 50.116247 
L 279.642361 50.418864 
L 277.181391 50.746107 
L 274.723817 51.097942 
L 272.269884 51.474336 
L 269.819837 51.875249 
L 267.373922 52.300643 
L 264.932383 52.750474 
L 262.495465 53.224697 
L 260.06341 53.723266 
L 257.636463 54.246129 
L 255.214865 54.793236 
L 252.79886 55.364531 
L 250.388688 55.959957 
L 247.984591 56.579455 
L 245.586809 57.222962 
L 243.195582 57.890414 
L 240.811149 58.581745 
L 238.433748 59.296885 
L 236.063617 60.035763 
L 233.700994 60.798305 
L 231.346114 61.584435 
L 228.999212 62.394074 
L 226.660525 63.227141 
L 224.330285 64.083553 
L 222.008725 64.963224 
L 219.696078 65.866066 
L 217.392575 66.791989 
L 215.098446 67.740901 
L 212.813921 68.712706 
L 210.539228 69.707307 
L 208.274595 70.724605 
L 206.020248 71.764498 
L 203.776412 72.826883 
L 201.543312 73.911652 
L 199.321171 75.018698 
L 197.110211 76.147909 
L 194.910654 77.299173 
L 192.722719 78.472374 
L 190.546626 79.667396 
L 188.382592 80.884119 
L 186.230832 82.122421 
L 184.091563 83.382179 
L 181.964999 84.663265 
L 179.851351 85.965553 
L 177.750832 87.288912 
L 175.663651 88.633209 
L 173.590017 89.998311 
L 171.530138 91.384081 
L 169.484219 92.790379 
L 167.452465 94.217067 
L 165.435079 95.664 
L 163.432264 97.131034 
L 161.444218 98.618023 
L 159.471142 100.124817 
L 157.513232 101.651267 
L 155.570684 103.197219 
L 153.643692 104.762519 
L 151.73245 106.34701 
L 149.837148 107.950534 
L 147.957975 109.572931 
L 146.095121 111.214038 
L 144.24877 112.873691 
L 142.419107 114.551724 
L 140.606317 116.24797 
L 138.810579 117.962259 
L 137.032073 119.694419 
L 135.270978 121.444277 
L 133.527469 123.211658 
L 131.801721 124.996386 
L 130.093906 126.798281 
L 128.404195 128.617165 
L 126.732757 130.452854 
L 125.079759 132.305166 
L 123.445367 134.173914 
L 121.829743 136.058913 
L 120.23305 137.959974 
L 118.655447 139.876906 
L 117.097092 141.809518 
L 115.558141 143.757617 
L 114.038747 145.721008 
L 112.539063 147.699494 
L 111.059239 149.692878 
L 109.599421 151.70096 
L 108.159758 153.72354 
L 106.740392 155.760415 
L 105.341465 157.811381 
L 103.963117 159.876234 
L 102.605487 161.954767 
L 101.268709 164.046773 
L 99.952918 166.152041 
L 98.658245 168.270361 
L 97.38482 170.401523 
L 96.13277 172.545311 
L 98.282801 173.786632 
z
" clip-path="url(#p9f14df0410)" style="fill: none; stroke: #000000; stroke-width: 0.5; stroke-linejoin: miter"/>
   </g>
   <g id="text_1">
    <text style="font: 3px 'DejaVu Sans', 'Bitstream Vera Sans', 'Computer Modern Sans Serif', 'Lucida Grande', 'Verdana', 'Geneva', 'Lucid', 'Arial', 'Helvetica', 'Avant Garde', sans-serif; text-anchor: start" x="464.68512" y="98.440411" transform="rotate(-52.5 464.68512 98.440411)">Libyan Academy</text>
   </g>
   <g id="text_2">
    <text style="font: 3px 'DejaVu Sans', 'Bitstream Vera Sans', 'Computer Modern Sans Serif', 'Lucida Grande', 'Verdana', 'Geneva', 'Lucid', 'Arial', 'Helvetica', 'Avant Garde', sans-serif; text-anchor: start" x="527.71913" y="423.0379" transform="rotate(-330 527.71913 423.0379)">University of Tripoli</text>
   </g>
   <g id="text_3">
    <text style="font: 3px 'DejaVu Sans', 'Bitstream Vera Sans', 'Computer Modern Sans Serif', 'Lucida Grande', 'Verdana', 'Geneva', 'Lucid', 'Arial', 'Helvetica', 'Avant Garde', sans-serif; text-anchor: start" x="342.734892" y="545.427852" transform="rotate(-277.5 342.734892 545.427852)">University Elmergib</text>
   </g>
   <g id="text_4">
    <text style="font: 3px 'DejaVu Sans', 'Bitstream Vera Sans', 'Computer Modern Sans Serif', 'Lucida Grande', 'Verdana', 'Geneva', 'Lucid', 'Arial', 'Helvetica', 'Avant Garde', sans-serif; text-anchor: end" x="279.53686" y="545.427852" transform="rotate(-82.5 279.53686 545.427852)">Alasmarya Islamic University</text>
   </g>
   <g id="text_5">
    <text style="font: 3px 'DejaVu Sans', 'Bitstream Vera Sans', 'Computer Modern Sans Serif', 'Lucida Grande', 'Verdana', 'Geneva', 'Lucid', 'Arial', 'Helvetica', 'Avant Garde', sans-serif; text-anchor: end" x="159.395105" y="496.302104" transform="rotate(-52.5 159.395105 496.302104)">Misurata University</text>
   </g>
   <g id="text_6">
    <text style="font: 3px 'DejaVu Sans', 'Bitstream Vera Sans', 'Computer Modern Sans Serif', 'Lucida Grande', 'Verdana', 'Geneva', 'Lucid', 'Arial', 'Helvetica', 'Avant Garde', sans-serif; text-anchor: end" x="69.228016" y="362.6764" transform="rotate(-15 69.228016 362.6764)">University of Benghazi</text>
   </g>
   <g id="text_7">
    <text style="font: 3px 'DejaVu Sans', 'Bitstream Vera Sans', 'Computer Modern Sans Serif', 'Lucida Grande', 'Verdana', 'Geneva', 'Lucid', 'Arial', 'Helvetica', 'Avant Garde', sans-serif; text-anchor: end" x="62.385436" y="265.078396" transform="rotate(-352.5 62.385436 265.078396)">Sirte University</text>
   </g>
   <g id="text_8">
    <text style="font: 3px 'DejaVu Sans', 'Bitstream Vera Sans', 'Computer Modern Sans Serif', 'Lucida Grande', 'Verdana', 'Geneva', 'Lucid', 'Arial', 'Helvetica', 'Avant Garde', sans-serif; text-anchor: end" x="79.039829" y="201.773755" transform="rotate(-337.5 79.039829 201.773755)">Sebha University</text>
   </g>
   <g id="text_9">
    <text style="font: 3px 'DejaVu Sans', 'Bitstream Vera Sans', 'Computer Modern Sans Serif', 'Lucida Grande', 'Verdana', 'Geneva', 'Lucid', 'Arial', 'Helvetica', 'Avant Garde', sans-serif; text-anchor: end" x="184.775388" y="80.094158" transform="rotate(-300 184.775388 80.094158)">Omar Al-Mukhtar University</text>
   </g>
  </g>
 </g>
 <defs>
  <clipPath id="p9f14df0410">
   <path d="M 571.813288 296.677412 
C 571.813288 262.445568 565.070361 228.546586 551.970401 196.920485 
C 538.870442 165.294385 519.668211 136.556215 495.462642 112.350646 
C 471.257072 88.145077 442.518903 68.942846 410.892803 55.842886 
C 379.266702 42.742927 345.36772 36 311.135876 36 
C 276.904032 36 243.005049 42.742927 211.378949 55.842886 
C 179.752849 68.942846 151.014679 88.145077 126.80911 112.350646 
C 102.603541 136.556215 83.401309 165.294385 70.30135 196.920485 
C 57.20139 228.546586 50.458463 262.445568 50.458463 296.677412 
C 50.458463 330.909256 57.20139 364.808239 70.30135 396.434339 
C 83.401309 428.060439 102.603541 456.798609 126.80911 481.004178 
C 151.014679 505.209747 179.752849 524.411978 211.378949 537.511938 
C 243.005049 550.611898 276.904032 557.354825 311.135876 557.354825 
C 345.36772 557.354825 379.266702 550.611898 410.892803 537.511938 
C 442.518903 524.411978 471.257072 505.209747 495.462642 481.004178 
C 519.668211 456.798609 538.870442 428.060439 551.970401 396.434339 
C 565.070361 364.808239 571.813288 330.909256 571.813288 296.677412 
M 311.135876 296.677412 
C 311.135876 296.677412 311.135876 296.677412 311.135876 296.677412 
C 311.135876 296.677412 311.135876 296.677412 311.135876 296.677412 
C 311.135876 296.677412 311.135876 296.677412 311.135876 296.677412 
C 311.135876 296.677412 311.135876 296.677412 311.135876 296.677412 
C 311.135876 296.677412 311.135876 296.677412 311.135876 296.677412 
C 311.135876 296.677412 311.135876 296.677412 311.135876 296.677412 
C 311.135876 296.677412 311.135876 296.677412 311.135876 296.677412 
C 311.135876 296.677412 311.135876 296.677412 311.135876 296.677412 
C 311.135876 296.677412 311.135876 296.677412 311.135876 296.677412 
C 311.135876 296.677412 311.135876 296.677412 311.135876 296.677412 
C 311.135876 296.677412 311.135876 296.677412 311.135876 296.677412 
C 311.135876 296.677412 311.135876 296.677412 311.135876 296.677412 
C 311.135876 296.677412 311.135876 296.677412 311.135876 296.677412 
C 311.135876 296.677412 311.135876 296.677412 311.135876 296.677412 
C 311.135876 296.677412 311.135876 296.677412 311.135876 296.677412 
C 311.135876 296.677412 311.135876 296.677412 311.135876 296.677412 
z
"/>
  </clipPath>
 </defs>
</svg>
