<?xml version="1.0" encoding="utf-8" standalone="no"?>
<!DOCTYPE svg PUBLIC "-//W3C//DTD SVG 1.1//EN"
  "http://www.w3.org/Graphics/SVG/1.1/DTD/svg11.dtd">
<svg xmlns:xlink="http://www.w3.org/1999/xlink" width="614.806154pt" height="619.256335pt" viewBox="0 0 614.806154 619.256335" xmlns="http://www.w3.org/2000/svg" version="1.1">
 <metadata>
  <rdf:RDF xmlns:dc="http://purl.org/dc/elements/1.1/" xmlns:cc="http://creativecommons.org/ns#" xmlns:rdf="http://www.w3.org/1999/02/22-rdf-syntax-ns#">
   <cc:Work>
    <dc:type rdf:resource="http://purl.org/dc/dcmitype/StillImage"/>
    <dc:date>2024-11-16T04:00:37.687240</dc:date>
    <dc:format>image/svg+xml</dc:format>
    <dc:creator>
     <cc:Agent>
      <dc:title>Matplotlib v3.8.4, https://matplotlib.org/</dc:title>
     </cc:Agent>
    </dc:creator>
   </cc:Work>
  </rdf:RDF>
 </metadata>
 <defs>
  <style type="text/css">*{stroke-linejoin: round; stroke-linecap: butt}</style>
 </defs>
 <g id="figure_1">
  <g id="patch_1">
   <path d="M 0 619.256335 
L 614.806154 619.256335 
L 614.806154 0 
L 0 0 
z
" style="fill: #ffffff"/>
  </g>
  <g id="axes_1">
   <g id="patch_2">
    <path d="M 299.003691 72.277736 
L 301.483398 72.290134 
L 303.962858 72.327329 
L 306.441822 72.389316 
L 308.920042 72.476089 
L 311.397271 72.58764 
L 313.87326 72.723957 
L 316.347762 72.885026 
L 318.82053 73.070832 
L 321.291316 73.281356 
L 323.759873 73.516577 
L 326.225955 73.776472 
L 328.689314 74.061013 
L 331.149705 74.370174 
L 333.606882 74.703923 
L 336.060598 75.062227 
L 338.510608 75.445049 
L 340.956668 75.852352 
L 343.398533 76.284094 
L 345.835958 76.740234 
L 348.2687 77.220724 
L 350.696515 77.725518 
L 353.119161 78.254563 
L 355.536396 78.807809 
L 357.947978 79.385199 
L 360.353665 79.986675 
L 362.753217 80.612178 
L 365.146394 81.261644 
L 367.532957 81.93501 
L 369.912667 82.632207 
L 372.285287 83.353166 
L 374.650578 84.097814 
L 377.008305 84.866078 
L 379.358231 85.657881 
L 381.700122 86.473142 
L 384.033743 87.311782 
L 386.358861 88.173715 
L 388.675244 89.058856 
L 390.98266 89.967116 
L 393.280878 90.898405 
L 395.569668 91.852628 
L 397.848802 92.829692 
L 399.864172 93.716293 
L 400.882965 91.428047 
L 398.847238 90.53249 
L 396.545082 89.545558 
L 394.233173 88.581695 
L 391.911741 87.641 
L 389.581017 86.723565 
L 387.241237 85.829483 
L 384.892632 84.958844 
L 382.535439 84.111733 
L 380.169893 83.288236 
L 377.79623 82.488436 
L 375.414688 81.712412 
L 373.025505 80.960242 
L 370.62892 80.232 
L 368.225172 79.527761 
L 365.814502 78.847594 
L 363.397152 78.191567 
L 360.973361 77.559746 
L 358.543374 76.952194 
L 356.107434 76.368972 
L 353.665782 75.810138 
L 351.218665 75.275749 
L 348.766326 74.765856 
L 346.309011 74.280512 
L 343.846965 73.819766 
L 341.380436 73.383662 
L 338.909668 72.972245 
L 336.43491 72.585556 
L 333.956409 72.223633 
L 331.474412 71.886513 
L 328.989169 71.574229 
L 326.500927 71.286813 
L 324.009935 71.024294 
L 321.516443 70.786697 
L 319.0207 70.574046 
L 316.522954 70.386363 
L 314.023457 70.223667 
L 311.522458 70.085973 
L 309.020207 69.973296 
L 306.516955 69.885646 
L 304.012951 69.823033 
L 301.508446 69.785462 
L 299.003691 69.772939 
z
" clip-path="url(#p5fd0d3fc3c)" style="fill: #000080"/>
   </g>
   <g id="patch_3">
    <path d="M 399.864172 93.716293 
L 402.124455 94.736208 
L 404.374426 95.778674 
L 406.61386 96.843587 
L 408.842533 97.930841 
L 411.060222 99.040327 
L 413.266705 100.171935 
L 415.461763 101.32555 
L 417.645174 102.501057 
L 419.816722 103.69834 
L 421.976188 104.917277 
L 424.123357 106.157749 
L 426.258015 107.419629 
L 428.379947 108.702793 
L 430.488941 110.007111 
L 432.584787 111.332454 
L 434.667275 112.678689 
L 436.736197 114.04568 
L 438.791346 115.433293 
L 440.832516 116.841387 
L 442.859503 118.269822 
L 444.872105 119.718455 
L 446.87012 121.187142 
L 448.853349 122.675734 
L 450.821592 124.184085 
L 452.774654 125.712042 
L 454.71234 127.259453 
L 456.634454 128.826163 
L 458.540805 130.412016 
L 460.431203 132.016852 
L 462.305458 133.640512 
L 464.163384 135.282833 
L 466.004793 136.943651 
L 467.829502 138.622799 
L 469.637329 140.320111 
L 471.428093 142.035415 
L 473.201615 143.768541 
L 474.957716 145.519316 
L 476.696223 147.287563 
L 478.41696 149.073107 
L 480.119757 150.875769 
L 481.804441 152.695368 
L 483.470846 154.531723 
L 485.118805 156.38465 
L 486.748151 158.253963 
L 488.358724 160.139476 
L 489.950361 162.041001 
L 491.522904 163.958346 
L 493.076195 165.891321 
L 494.610079 167.839732 
L 496.124403 169.803383 
L 497.619014 171.78208 
L 499.093765 173.775624 
L 500.548506 175.783815 
L 501.983093 177.806453 
L 503.397382 179.843335 
L 504.791232 181.894258 
L 506.164504 183.959017 
L 507.517059 186.037406 
L 508.848764 188.129215 
L 510.159484 190.234237 
L 511.449089 192.352261 
L 512.717449 194.483074 
L 513.964438 196.626465 
L 515.189931 198.782218 
L 516.393806 200.950117 
L 517.575942 203.129947 
L 518.736221 205.32149 
L 519.874527 207.524525 
L 520.990746 209.738833 
L 522.084766 211.964192 
L 523.156479 214.20038 
L 524.205776 216.447173 
L 525.232554 218.704347 
L 526.236708 220.971675 
L 527.21814 223.248931 
L 528.17675 225.535888 
L 529.112443 227.832316 
L 530.025126 230.137986 
L 530.914707 232.452668 
L 531.781096 234.776129 
L 532.624208 237.108138 
L 533.443959 239.448462 
L 534.240265 241.796865 
L 535.013048 244.153115 
L 535.76223 246.516974 
L 536.487737 248.888207 
L 537.189495 251.266576 
L 537.867435 253.651843 
L 538.521489 256.043771 
L 539.151591 258.442119 
L 539.757679 260.846649 
L 540.339691 263.257119 
L 540.89757 265.673288 
L 541.43126 268.094916 
L 541.940708 270.521759 
L 542.425861 272.953575 
L 542.886673 275.390121 
L 543.323097 277.831154 
L 543.735089 280.276428 
L 544.122608 282.7257 
L 544.485615 285.178725 
L 544.824075 287.635257 
L 545.137952 290.09505 
L 545.427216 292.55786 
L 545.691839 295.023439 
L 545.931792 297.491541 
L 546.147053 299.961918 
L 546.3376 302.434325 
L 546.503414 304.908514 
L 546.644477 307.384237 
L 546.760777 309.861247 
L 546.852302 312.339297 
L 546.919042 314.818137 
L 546.96099 317.297521 
L 546.978143 319.7772 
L 546.970499 322.256927 
L 546.938058 324.736454 
L 546.880824 327.215532 
L 546.798803 329.693914 
L 546.692002 332.171352 
L 546.560433 334.647598 
L 546.404108 337.122404 
L 546.223043 339.595523 
L 546.017257 342.066709 
L 545.786769 344.535712 
L 545.531603 347.002288 
L 545.251785 349.466189 
L 544.947342 351.927168 
L 544.618305 354.38498 
L 544.264707 356.839378 
L 543.886583 359.290118 
L 543.48397 361.736954 
L 543.05691 364.179642 
L 542.605445 366.617937 
L 542.12962 369.051596 
L 541.629482 371.480375 
L 541.105082 373.904031 
L 540.556472 376.322322 
L 539.983707 378.735006 
L 539.386845 381.141842 
L 538.765944 383.542589 
L 538.121067 385.937007 
L 537.452278 388.324857 
L 536.759645 390.7059 
L 536.043237 393.079897 
L 535.303124 395.446611 
L 534.841843 396.881105 
L 537.224047 397.65513 
L 537.689987 396.206146 
L 538.437576 393.815526 
L 539.161221 391.417549 
L 539.86085 389.012455 
L 540.536394 386.600486 
L 541.187785 384.181882 
L 541.814957 381.756885 
L 542.417849 379.325737 
L 542.996399 376.888682 
L 543.550551 374.445964 
L 544.080248 371.997827 
L 544.585437 369.544515 
L 545.066069 367.086274 
L 545.522094 364.623349 
L 545.953468 362.155988 
L 546.360147 359.684436 
L 546.742091 357.208941 
L 547.099261 354.729751 
L 547.431621 352.247112 
L 547.739139 349.761275 
L 548.021784 347.272486 
L 548.279527 344.780996 
L 548.512343 342.287053 
L 548.720208 339.790906 
L 548.903102 337.292806 
L 549.061006 334.793001 
L 549.193904 332.291743 
L 549.301784 329.78928 
L 549.384634 327.285864 
L 549.442446 324.781745 
L 549.475214 322.277173 
L 549.482936 319.772398 
L 549.465609 317.267671 
L 549.423237 314.763243 
L 549.355823 312.259364 
L 549.263374 309.756284 
L 549.145899 307.254254 
L 549.003411 304.753523 
L 548.835922 302.254342 
L 548.643451 299.756962 
L 548.426015 297.26163 
L 548.183638 294.768598 
L 547.916343 292.278115 
L 547.624157 289.790428 
L 547.307109 287.305788 
L 546.965231 284.824443 
L 546.598557 282.34664 
L 546.207123 279.872628 
L 545.79097 277.402654 
L 545.350138 274.936965 
L 544.884671 272.475807 
L 544.394617 270.019427 
L 543.880024 267.56807 
L 543.340943 265.121982 
L 542.777429 262.681407 
L 542.189537 260.246588 
L 541.577328 257.817771 
L 540.940861 255.395196 
L 540.2802 252.979108 
L 539.595413 250.569747 
L 538.886566 248.167354 
L 538.153731 245.772169 
L 537.396981 243.384433 
L 536.616392 241.004383 
L 535.812042 238.632258 
L 534.984012 236.268295 
L 534.132383 233.91273 
L 533.257242 231.565799 
L 532.358676 229.227737 
L 531.436774 226.898777 
L 530.49163 224.579153 
L 529.523336 222.269096 
L 528.531991 219.968837 
L 527.517694 217.678606 
L 526.480545 215.398633 
L 525.420648 213.129145 
L 524.338111 210.870369 
L 523.233039 208.622532 
L 522.105545 206.385857 
L 520.955742 204.160569 
L 519.783743 201.94689 
L 518.589666 199.745041 
L 517.373631 197.555244 
L 516.135759 195.377715 
L 514.876174 193.212675 
L 513.595002 191.060338 
L 512.292371 188.92092 
L 510.968411 186.794635 
L 509.623255 184.681696 
L 508.257037 182.582314 
L 506.869894 180.496699 
L 505.461965 178.425059 
L 504.03339 176.367602 
L 502.584312 174.324534 
L 501.114876 172.296058 
L 499.62523 170.282377 
L 498.115521 168.283694 
L 496.585901 166.300207 
L 495.036524 164.332116 
L 493.467543 162.379616 
L 491.879116 160.442903 
L 490.271401 158.522172 
L 488.64456 156.617613 
L 486.998755 154.729417 
L 485.334151 152.857774 
L 483.650914 151.00287 
L 481.949212 149.164891 
L 480.229216 147.344021 
L 478.491097 145.540441 
L 476.73503 143.754333 
L 474.96119 141.985874 
L 473.169754 140.235241 
L 471.360902 138.50261 
L 469.534814 136.788155 
L 467.691673 135.092045 
L 465.831663 133.414451 
L 463.954971 131.755541 
L 462.061784 130.11548 
L 460.152291 128.494433 
L 458.226684 126.892562 
L 456.285154 125.310027 
L 454.327897 123.746985 
L 452.355107 122.203594 
L 450.366982 120.680008 
L 448.36372 119.176379 
L 446.345523 117.692857 
L 444.312592 116.229591 
L 442.26513 114.786728 
L 440.203342 113.36441 
L 438.127435 111.962782 
L 436.037614 110.581982 
L 433.934091 109.222149 
L 431.817075 107.883419 
L 429.686777 106.565926 
L 427.543412 105.269801 
L 425.387192 103.995174 
L 423.218334 102.742173 
L 421.037055 101.510922 
L 418.843573 100.301546 
L 416.638107 99.114165 
L 414.420877 97.948897 
L 412.192106 96.80586 
L 409.952016 95.685166 
L 407.700831 94.58693 
L 405.438777 93.51126 
L 403.166079 92.458264 
L 400.882965 91.428047 
z
" clip-path="url(#p5fd0d3fc3c)" style="fill: #004cff"/>
   </g>
   <g id="patch_4">
    <path d="M 534.841843 396.881105 
L 534.063779 399.235616 
L 533.26221 401.582228 
L 532.437215 403.920708 
L 531.588877 406.250821 
L 530.71728 408.572334 
L 529.822512 410.885015 
L 528.904663 413.188634 
L 527.963823 415.482958 
L 527.000088 417.76776 
L 526.013554 420.04281 
L 525.004318 422.307882 
L 523.972483 424.562747 
L 522.918151 426.807182 
L 521.841428 429.040962 
L 520.742421 431.263863 
L 519.62124 433.475663 
L 518.477998 435.67614 
L 517.312809 437.865076 
L 516.125789 440.04225 
L 514.917057 442.207445 
L 513.756261 444.240098 
L 515.925479 445.492497 
L 517.098 443.439312 
L 518.318941 441.252246 
L 519.517951 439.05308 
L 520.69491 436.842034 
L 521.8497 434.61933 
L 522.982206 432.385188 
L 524.092314 430.139834 
L 525.179913 427.883491 
L 526.244895 425.616385 
L 527.287153 423.338743 
L 528.306583 421.050792 
L 529.303082 418.752761 
L 530.276552 416.444881 
L 531.226895 414.127381 
L 532.154015 411.800494 
L 533.057821 409.464452 
L 533.938222 407.119489 
L 534.795129 404.76584 
L 535.628458 402.403739 
L 536.438124 400.033423 
L 537.224047 397.65513 
z
" clip-path="url(#p5fd0d3fc3c)" style="fill: #29ffce"/>
   </g>
   <g id="patch_5">
    <path d="M 513.756261 444.240098 
L 512.505669 446.381389 
L 511.233728 448.510066 
L 509.940564 450.625919 
L 508.626306 452.728734 
L 507.291086 454.818301 
L 505.935038 456.894412 
L 504.558296 458.956859 
L 503.161 461.005436 
L 501.743287 463.039937 
L 500.305301 465.06016 
L 498.847185 467.065902 
L 497.369085 469.056963 
L 495.871148 471.033144 
L 494.353525 472.994247 
L 492.816367 474.940076 
L 491.259828 476.870436 
L 489.684064 478.785134 
L 488.089231 480.68398 
L 486.47549 482.566782 
L 484.843003 484.433353 
L 483.191931 486.283506 
L 481.522441 488.117057 
L 479.834699 489.933821 
L 478.128874 491.733617 
L 476.405136 493.516265 
L 474.663659 495.281586 
L 472.904616 497.029405 
L 471.128183 498.759547 
L 469.334537 500.471838 
L 467.523859 502.166107 
L 465.696329 503.842185 
L 463.852129 505.499904 
L 461.991445 507.139099 
L 460.114462 508.759605 
L 458.221369 510.361261 
L 456.312354 511.943905 
L 454.387607 513.507381 
L 452.447323 515.051532 
L 450.491695 516.576203 
L 448.520917 518.081242 
L 446.535189 519.566498 
L 444.534707 521.031822 
L 442.519672 522.477069 
L 440.490286 523.902094 
L 438.446751 525.306754 
L 436.389272 526.690909 
L 434.318054 528.05442 
L 432.233306 529.397151 
L 430.135234 530.718968 
L 428.024049 532.019738 
L 425.899963 533.299332 
L 423.763187 534.557621 
L 421.613935 535.79448 
L 419.452422 537.009785 
L 417.278864 538.203415 
L 415.093479 539.375249 
L 412.896485 540.525172 
L 410.688102 541.653067 
L 408.46855 542.758823 
L 406.238052 543.842328 
L 403.996831 544.903474 
L 401.745111 545.942156 
L 399.483116 546.958269 
L 397.211074 547.951711 
L 394.929211 548.922383 
L 392.637755 549.870189 
L 390.336936 550.795034 
L 388.026984 551.696824 
L 385.70813 552.57547 
L 383.380605 553.430884 
L 381.044643 554.26298 
L 378.700476 555.071675 
L 376.34834 555.856889 
L 373.98847 556.618543 
L 371.621101 557.35656 
L 369.246471 558.070867 
L 366.864816 558.761392 
L 364.476375 559.428066 
L 362.081387 560.070824 
L 359.680092 560.689599 
L 357.272728 561.284331 
L 354.859538 561.854961 
L 352.440763 562.40143 
L 350.016643 562.923684 
L 347.587423 563.421672 
L 345.153344 563.895343 
L 342.71465 564.34465 
L 340.271585 564.769547 
L 337.824393 565.169994 
L 335.37332 565.545948 
L 332.918609 565.897374 
L 330.460507 566.224236 
L 327.999259 566.5265 
L 325.535112 566.804137 
L 323.068311 567.05712 
L 320.599105 567.285422 
L 318.127738 567.489021 
L 315.65446 567.667896 
L 313.179516 567.82203 
L 310.703154 567.951408 
L 308.225623 568.056016 
L 305.747169 568.135844 
L 303.268042 568.190883 
L 300.788487 568.221129 
L 298.308755 568.226578 
L 295.829091 568.207231 
L 293.349745 568.163088 
L 290.870965 568.094154 
L 288.392998 568.000436 
L 285.916092 567.881943 
L 283.440494 567.738688 
L 280.966453 567.570685 
L 278.494216 567.377949 
L 276.02403 567.160502 
L 273.556141 566.918364 
L 271.090798 566.651559 
L 268.628245 566.360115 
L 266.16873 566.044061 
L 263.712499 565.703427 
L 261.259796 565.338249 
L 258.810868 564.948562 
L 256.365959 564.534406 
L 253.925314 564.095821 
L 251.489177 563.632853 
L 249.057791 563.145547 
L 246.6314 562.633952 
L 244.210246 562.098119 
L 241.794571 561.538101 
L 239.384617 560.953955 
L 236.980625 560.345739 
L 234.582835 559.713515 
L 232.191488 559.057344 
L 229.806821 558.377293 
L 227.429074 557.673429 
L 225.058484 556.945824 
L 222.695289 556.19455 
L 220.339725 555.419682 
L 217.992027 554.621297 
L 215.65243 553.799475 
L 213.321168 552.954299 
L 210.998475 552.085854 
L 208.684581 551.194225 
L 206.37972 550.279501 
L 204.084121 549.341776 
L 201.798014 548.381142 
L 199.521627 547.397695 
L 197.255188 546.391534 
L 194.998924 545.362759 
L 192.753061 544.311473 
L 190.517823 543.237782 
L 188.293433 542.141792 
L 186.080114 541.023613 
L 183.878087 539.883358 
L 181.687573 538.72114 
L 179.50879 537.537075 
L 177.341956 536.331281 
L 175.187289 535.10388 
L 173.045003 533.854995 
L 170.915313 532.584749 
L 168.798432 531.29327 
L 166.694571 529.980687 
L 164.603941 528.647131 
L 162.526751 527.292737 
L 160.463208 525.917638 
L 158.413519 524.521973 
L 156.37789 523.105882 
L 154.356522 521.669505 
L 152.34962 520.212986 
L 150.357382 518.736472 
L 148.380009 517.24011 
L 146.417698 515.724049 
L 144.470646 514.188441 
L 142.539047 512.633439 
L 140.623094 511.0592 
L 138.72298 509.46588 
L 136.838893 507.853639 
L 134.971022 506.222638 
L 133.119555 504.573041 
L 131.284676 502.905011 
L 129.466568 501.218716 
L 127.665415 499.514325 
L 125.881395 497.792008 
L 124.114687 496.051937 
L 122.365467 494.294286 
L 120.633912 492.519231 
L 118.920193 490.72695 
L 117.224482 488.917621 
L 115.54695 487.091426 
L 113.887762 485.248548 
L 112.247087 483.38917 
L 110.625086 481.513478 
L 109.021924 479.62166 
L 107.437759 477.713906 
L 105.872751 475.790405 
L 104.327056 473.851351 
L 102.800828 471.896938 
L 101.29422 469.92736 
L 99.807383 467.942814 
L 98.340466 465.9435 
L 96.893615 463.929617 
L 95.466975 461.901366 
L 94.060688 459.85895 
L 92.674895 457.802574 
L 91.309735 455.732443 
L 89.965344 453.648764 
L 88.641857 451.551746 
L 87.339406 449.441597 
L 86.058121 447.318531 
L 84.798131 445.182757 
L 83.55956 443.034491 
L 82.342535 440.873946 
L 81.147175 438.70134 
L 79.9736 436.516889 
L 78.821928 434.320811 
L 77.692275 432.113327 
L 76.584752 429.894656 
L 75.499471 427.665022 
L 74.43654 425.424647 
L 73.396066 423.173754 
L 72.378152 420.912569 
L 71.382901 418.641319 
L 70.410412 416.360229 
L 69.460781 414.069529 
L 68.534105 411.769448 
L 67.630476 409.460214 
L 66.749984 407.142061 
L 65.892716 404.815218 
L 65.05876 402.479919 
L 64.248198 400.136397 
L 63.461112 397.784887 
L 62.697579 395.425624 
L 61.957677 393.058844 
L 61.24148 390.684783 
L 60.549058 388.303679 
L 59.880482 385.91577 
L 59.235817 383.521294 
L 58.61513 381.120492 
L 58.018481 378.713603 
L 57.44593 376.300868 
L 56.897535 373.882528 
L 56.37335 371.458826 
L 55.873428 369.030003 
L 55.397819 366.596302 
L 54.946571 364.157966 
L 54.519727 361.715241 
L 54.117333 359.268369 
L 53.739426 356.817595 
L 53.386046 354.363165 
L 53.057227 351.905324 
L 52.753003 349.444318 
L 52.473403 346.980392 
L 52.218457 344.513794 
L 51.988188 342.04477 
L 51.782621 339.573566 
L 51.601776 337.100431 
L 51.445671 334.625611 
L 51.314322 332.149353 
L 51.207741 329.671906 
L 51.12594 327.193517 
L 51.068926 324.714433 
L 51.036705 322.234904 
L 51.029281 319.755176 
L 51.046655 317.275498 
L 51.088823 314.796118 
L 51.155783 312.317284 
L 51.247528 309.839243 
L 51.364048 307.362243 
L 51.505332 304.886532 
L 51.671365 302.412358 
L 51.862131 299.939968 
L 52.077612 297.46961 
L 52.317784 295.001529 
L 52.582625 292.535974 
L 52.872109 290.07319 
L 53.186205 287.613424 
L 53.524882 285.156922 
L 53.888107 282.70393 
L 54.275844 280.254692 
L 54.688053 277.809454 
L 55.124693 275.368461 
L 55.585722 272.931956 
L 56.071091 270.500183 
L 56.580754 268.073385 
L 57.114659 265.651805 
L 57.672753 263.235685 
L 58.254979 260.825266 
L 58.861281 258.420791 
L 59.491596 256.022498 
L 60.145862 253.630629 
L 60.824014 251.245421 
L 61.525984 248.867115 
L 62.251701 246.495946 
L 63.001093 244.132154 
L 63.165538 243.624183 
L 60.783335 242.850158 
L 60.617228 243.36326 
L 59.860267 245.750929 
L 59.127219 248.146049 
L 58.418159 250.548379 
L 57.733157 252.957679 
L 57.072282 255.373709 
L 56.4356 257.796227 
L 55.823174 260.22499 
L 55.235067 262.659756 
L 54.671336 265.100281 
L 54.132038 267.546321 
L 53.617227 269.997633 
L 53.126954 272.453969 
L 52.661269 274.915085 
L 52.220218 277.380735 
L 51.803845 279.850672 
L 51.412192 282.32465 
L 51.045298 284.80242 
L 50.7032 287.283735 
L 50.385931 289.768347 
L 50.093524 292.256007 
L 49.826008 294.746467 
L 49.583409 297.239478 
L 49.365752 299.73479 
L 49.173059 302.232153 
L 49.005348 304.731319 
L 48.862637 307.232037 
L 48.74494 309.734057 
L 48.652269 312.237129 
L 48.584633 314.741002 
L 48.542038 317.245426 
L 48.524489 319.750151 
L 48.531988 322.254927 
L 48.564534 324.759502 
L 48.622124 327.263626 
L 48.704752 329.76705 
L 48.812409 332.269522 
L 48.945085 334.770792 
L 49.102767 337.270611 
L 49.285439 339.768727 
L 49.493082 342.264892 
L 49.725676 344.758856 
L 49.983198 347.25037 
L 50.265622 349.739183 
L 50.572919 352.225048 
L 50.905059 354.707716 
L 51.262009 357.186938 
L 51.643733 359.662467 
L 52.050193 362.134055 
L 52.481347 364.601454 
L 52.937154 367.064419 
L 53.417567 369.522703 
L 53.922539 371.97606 
L 54.452018 374.424244 
L 55.005953 376.867012 
L 55.584287 379.304118 
L 56.186962 381.735319 
L 56.81392 384.160372 
L 57.465096 386.579034 
L 58.140425 388.991063 
L 58.839841 391.396219 
L 59.563273 393.79426 
L 60.310649 396.184947 
L 61.081894 398.568041 
L 61.876931 400.943304 
L 62.69568 403.310497 
L 63.53806 405.669385 
L 64.403987 408.019731 
L 65.293373 410.361301 
L 66.20613 412.69386 
L 67.142166 415.017175 
L 68.101389 417.331013 
L 69.083701 419.635144 
L 70.089006 421.929336 
L 71.117201 424.213361 
L 72.168185 426.48699 
L 73.241853 428.749996 
L 74.338096 431.002152 
L 75.456806 433.243233 
L 76.59787 435.473015 
L 77.761175 437.691275 
L 78.946604 439.897791 
L 80.154038 442.092343 
L 81.383357 444.274711 
L 82.634438 446.444677 
L 83.907156 448.602024 
L 85.201383 450.746536 
L 86.51699 452.877999 
L 87.853846 454.9962 
L 89.211816 457.100926 
L 90.590766 459.191967 
L 91.990556 461.269115 
L 93.411048 463.332161 
L 94.852099 465.380899 
L 96.313565 467.415125 
L 97.7953 469.434634 
L 99.297155 471.439225 
L 100.818981 473.428698 
L 102.360625 475.402853 
L 103.921933 477.361494 
L 105.50275 479.304424 
L 107.102916 481.231448 
L 108.722272 483.142375 
L 110.360656 485.037013 
L 112.017904 486.915173 
L 113.693851 488.776667 
L 115.388329 490.621308 
L 117.101168 492.448913 
L 118.832197 494.259298 
L 120.581243 496.052282 
L 122.348131 497.827687 
L 124.132684 499.585335 
L 125.934725 501.325049 
L 127.754072 503.046656 
L 129.590544 504.749984 
L 131.443958 506.434863 
L 133.314127 508.101123 
L 135.200864 509.748599 
L 137.103983 511.377125 
L 139.02329 512.986539 
L 140.958596 514.57668 
L 142.909706 516.147388 
L 144.876426 517.698507 
L 146.858558 519.229882 
L 148.855904 520.741359 
L 150.868265 522.232788 
L 152.89544 523.704019 
L 154.937225 525.154904 
L 156.993417 526.5853 
L 159.063809 527.995062 
L 161.148196 529.384051 
L 163.246368 530.752126 
L 165.358115 532.099152 
L 167.483227 533.424993 
L 169.621491 534.729517 
L 171.772693 536.012594 
L 173.936618 537.274095 
L 176.11305 538.513894 
L 178.301771 539.731867 
L 180.502561 540.927892 
L 182.715202 542.10185 
L 184.939471 543.253623 
L 187.175147 544.383096 
L 189.422006 545.490157 
L 191.679822 546.574693 
L 193.948371 547.636598 
L 196.227426 548.675765 
L 198.516758 549.692089 
L 200.816138 550.68547 
L 203.125337 551.655808 
L 205.444124 552.603005 
L 207.772267 553.526968 
L 210.109533 554.427603 
L 212.455688 555.304821 
L 214.810498 556.158534 
L 217.173727 556.988657 
L 219.545139 557.795106 
L 221.924497 558.577802 
L 224.311563 559.336665 
L 226.706098 560.071619 
L 229.107863 560.782592 
L 231.516617 561.469513 
L 233.93212 562.132311 
L 236.35413 562.770922 
L 238.782404 563.385282 
L 241.216701 563.975328 
L 243.656777 564.541002 
L 246.102387 565.082248 
L 248.553287 565.599011 
L 251.009233 566.091239 
L 253.469977 566.558884 
L 255.935275 567.001898 
L 258.40488 567.420238 
L 260.878545 567.813861 
L 263.356022 568.182728 
L 265.837064 568.526802 
L 268.321422 568.846049 
L 270.808849 569.140437 
L 273.299095 569.409937 
L 275.791912 569.654521 
L 278.28705 569.874165 
L 280.784259 570.068847 
L 283.28329 570.238547 
L 285.783894 570.383249 
L 288.285819 570.502939 
L 290.788816 570.597603 
L 293.292635 570.667233 
L 295.797025 570.711822 
L 298.301735 570.731366 
L 300.806516 570.725861 
L 303.311116 570.69531 
L 305.815285 570.639714 
L 308.318774 570.55908 
L 310.821331 570.453416 
L 313.322706 570.322731 
L 315.822649 570.16704 
L 318.32091 569.986358 
L 320.81724 569.780702 
L 323.311388 569.550094 
L 325.803106 569.294556 
L 328.292144 569.014115 
L 330.778253 568.708797 
L 333.261184 568.378634 
L 335.74069 568.023659 
L 338.216522 567.643906 
L 340.688432 567.239415 
L 343.156175 566.810225 
L 345.619502 566.35638 
L 348.078167 565.877925 
L 350.531926 565.374907 
L 352.980531 564.847377 
L 355.423739 564.295388 
L 357.861305 563.718995 
L 360.292985 563.118255 
L 362.718536 562.49323 
L 365.137716 561.84398 
L 367.550282 561.170571 
L 369.955994 560.473071 
L 372.35461 559.751549 
L 374.745892 559.006077 
L 377.1296 558.23673 
L 379.505494 557.443585 
L 381.873339 556.626721 
L 384.232897 555.786219 
L 386.583932 554.922165 
L 388.926209 554.034644 
L 391.259494 553.123745 
L 393.583554 552.189558 
L 395.898155 551.232179 
L 398.203067 550.251701 
L 400.49806 549.248224 
L 402.782903 548.221848 
L 405.057368 547.172675 
L 407.321228 546.10081 
L 409.574256 545.00636 
L 411.816227 543.889435 
L 414.046917 542.750147 
L 416.266103 541.588609 
L 418.473563 540.404938 
L 420.669076 539.199251 
L 422.852422 537.971671 
L 425.023383 536.722318 
L 427.181743 535.451319 
L 429.327285 534.1588 
L 431.459795 532.84489 
L 433.579059 531.509722 
L 435.684866 530.153428 
L 437.777005 528.776144 
L 439.855267 527.378008 
L 441.919443 525.959159 
L 443.969328 524.51974 
L 446.004717 523.059895 
L 448.025406 521.579769 
L 450.031192 520.07951 
L 452.021877 518.559269 
L 453.997259 517.019198 
L 455.957142 515.459449 
L 457.90133 513.880181 
L 459.829628 512.28155 
L 461.741844 510.663716 
L 463.637786 509.026841 
L 465.517265 507.371089 
L 467.380093 505.696625 
L 469.226083 504.003617 
L 471.055051 502.292234 
L 472.866814 500.562647 
L 474.661191 498.815029 
L 476.438002 497.049555 
L 478.19707 495.266402 
L 479.938219 493.465748 
L 481.661274 491.647772 
L 483.366064 489.812657 
L 485.052418 487.960586 
L 486.720167 486.091744 
L 488.369145 484.206319 
L 489.999186 482.304498 
L 491.610128 480.386473 
L 493.201809 478.452434 
L 494.774071 476.502575 
L 496.326756 474.537091 
L 497.859709 472.556179 
L 499.372776 470.560037 
L 500.865806 468.548865 
L 502.338651 466.522862 
L 503.791162 464.482233 
L 505.223195 462.427181 
L 506.634605 460.357912 
L 508.025253 458.274632 
L 509.394999 456.17755 
L 510.743706 454.066876 
L 512.071239 451.94282 
L 513.377466 449.805596 
L 514.662255 447.655416 
L 515.925479 445.492497 
z
" clip-path="url(#p5fd0d3fc3c)" style="fill: #ceff29"/>
   </g>
   <g id="patch_6">
    <path d="M 63.165538 243.624183 
L 63.943602 241.269672 
L 64.745171 238.92306 
L 65.570166 236.58458 
L 66.418505 234.254467 
L 67.290101 231.932954 
L 68.184869 229.620272 
L 69.102719 227.316654 
L 70.043558 225.02233 
L 71.007293 222.737528 
L 71.993828 220.462478 
L 73.003063 218.197406 
L 74.034898 215.94254 
L 75.08923 213.698105 
L 76.165954 211.464326 
L 77.264961 209.241425 
L 78.386141 207.029625 
L 79.529383 204.829148 
L 80.694573 202.640212 
L 81.881593 200.463038 
L 83.090325 198.297843 
L 84.320648 196.144843 
L 85.572439 194.004253 
L 86.845574 191.876289 
L 88.139924 189.761162 
L 89.45536 187.659084 
L 90.791751 185.570265 
L 92.148963 183.494914 
L 93.52686 181.433239 
L 94.925304 179.385446 
L 96.344157 177.35174 
L 97.783275 175.332323 
L 99.242515 173.327398 
L 100.721731 171.337166 
L 102.220775 169.361825 
L 103.739497 167.401573 
L 105.277745 165.456606 
L 106.835366 163.527119 
L 108.412203 161.613304 
L 110.0081 159.715353 
L 111.622896 157.833455 
L 113.25643 155.967799 
L 114.908538 154.118572 
L 116.579056 152.285958 
L 118.267816 150.47014 
L 119.974649 148.6713 
L 121.699385 146.889619 
L 123.441852 145.125273 
L 125.201874 143.378441 
L 126.979277 141.649295 
L 128.773882 139.93801 
L 130.585509 138.244756 
L 132.413979 136.569702 
L 134.259107 134.913017 
L 136.12071 133.274865 
L 137.9986 131.655412 
L 139.892591 130.054817 
L 141.802493 128.473243 
L 143.728115 126.910846 
L 145.669265 125.367783 
L 147.625748 123.844208 
L 149.597368 122.340275 
L 151.583929 120.856132 
L 153.585232 119.391928 
L 155.601077 117.947811 
L 157.631261 116.523924 
L 159.675583 115.12041 
L 161.733838 113.737408 
L 163.805819 112.375058 
L 165.89132 111.033496 
L 167.990132 109.712855 
L 170.102046 108.413268 
L 172.226849 107.134865 
L 174.36433 105.877774 
L 176.514275 104.64212 
L 178.676469 103.428026 
L 180.850695 102.235615 
L 183.036737 101.065006 
L 185.234375 99.916315 
L 187.44339 98.789657 
L 189.663561 97.685146 
L 191.894665 96.602891 
L 194.136481 95.543001 
L 196.388783 94.505582 
L 198.143209 93.716293 
L 197.124416 91.428047 
L 195.352269 92.225309 
L 193.077216 93.273207 
L 190.812756 94.343803 
L 188.559115 95.436989 
L 186.316518 96.552658 
L 184.08519 97.690695 
L 181.865353 98.850989 
L 179.65723 100.033423 
L 177.461042 101.237879 
L 175.277008 102.464236 
L 173.105347 103.712371 
L 170.946275 104.98216 
L 168.800009 106.273477 
L 166.666763 107.586191 
L 164.546751 108.920171 
L 162.440184 110.275285 
L 160.347273 111.651396 
L 158.268228 113.048367 
L 156.203257 114.466058 
L 154.152565 115.904328 
L 152.116359 117.363032 
L 150.094841 118.842026 
L 148.088213 120.34116 
L 146.096678 121.860285 
L 144.120432 123.399249 
L 142.159675 124.957898 
L 140.214603 126.536077 
L 138.285409 128.133627 
L 136.372286 129.750389 
L 134.475427 131.386201 
L 132.59502 133.040899 
L 130.731254 134.714319 
L 128.884316 136.406292 
L 127.054389 138.11665 
L 125.241657 139.845221 
L 123.4463 141.591833 
L 121.6685 143.35631 
L 119.908433 145.138477 
L 118.166275 146.938156 
L 116.442201 148.755165 
L 114.736382 150.589325 
L 113.048991 152.44045 
L 111.380195 154.308357 
L 109.73016 156.192857 
L 108.099054 158.093764 
L 106.487037 160.010886 
L 104.894272 161.944033 
L 103.320917 163.89301 
L 101.767131 165.857623 
L 100.233068 167.837676 
L 98.718883 169.832969 
L 97.224725 171.843305 
L 95.750745 173.868481 
L 94.297091 175.908296 
L 92.863907 177.962545 
L 91.451336 180.031023 
L 90.059521 182.113523 
L 88.6886 184.209837 
L 87.33871 186.319755 
L 86.009987 188.443066 
L 84.702562 190.579558 
L 83.416568 192.729017 
L 82.152132 194.891228 
L 80.909382 197.065976 
L 79.68844 199.253042 
L 78.48943 201.452208 
L 77.312471 203.663254 
L 76.157681 205.885958 
L 75.025175 208.1201 
L 73.915067 210.365454 
L 72.827468 212.621797 
L 71.762486 214.888903 
L 70.720229 217.166545 
L 69.700799 219.454496 
L 68.704299 221.752527 
L 67.730829 224.060407 
L 66.780486 226.377907 
L 65.853366 228.704794 
L 64.94956 231.040836 
L 64.069159 233.385799 
L 63.212252 235.739448 
L 62.378924 238.101549 
L 61.569258 240.471864 
L 60.783335 242.850158 
z
" clip-path="url(#p5fd0d3fc3c)" style="fill: #ff6800"/>
   </g>
   <g id="patch_7">
    <path d="M 198.143209 93.716293 
L 200.413578 92.719032 
L 202.693805 91.744523 
L 204.983664 90.792866 
L 207.282924 89.864154 
L 209.591357 88.958481 
L 211.90873 88.075937 
L 214.234814 87.216611 
L 216.569373 86.380588 
L 218.912177 85.567952 
L 221.262989 84.778784 
L 223.621575 84.013164 
L 225.9877 83.271167 
L 228.361126 82.552869 
L 230.741616 81.85834 
L 233.128933 81.18765 
L 235.522836 80.540866 
L 237.923088 79.918054 
L 240.329448 79.319275 
L 242.741675 78.744589 
L 245.159529 78.194053 
L 247.582766 77.667723 
L 250.011146 77.165652 
L 252.444425 76.687889 
L 254.88236 76.234482 
L 257.324707 75.805477 
L 259.771222 75.400916 
L 262.22166 75.020841 
L 264.675776 74.665288 
L 267.133325 74.334294 
L 269.594061 74.027891 
L 272.057738 73.746111 
L 274.52411 73.488981 
L 276.992929 73.256527 
L 279.46395 73.048773 
L 281.936924 72.865739 
L 284.411606 72.707444 
L 286.887746 72.573902 
L 289.365098 72.465129 
L 291.843414 72.381134 
L 294.322445 72.321926 
L 296.801945 72.28751 
L 299.003691 72.277736 
L 299.003691 69.772939 
L 296.779705 69.782812 
L 294.27516 69.817575 
L 291.771088 69.877381 
L 289.267738 69.962225 
L 286.765363 70.072097 
L 284.264211 70.206987 
L 281.764533 70.366882 
L 279.266579 70.551764 
L 276.770598 70.761617 
L 274.276841 70.996419 
L 271.785557 71.256146 
L 269.296994 71.540772 
L 266.811402 71.85027 
L 264.32903 72.184608 
L 261.850124 72.543752 
L 259.374934 72.927666 
L 256.903707 73.336314 
L 254.43669 73.769652 
L 251.97413 74.227639 
L 249.516272 74.710228 
L 247.063363 75.217371 
L 244.615648 75.749017 
L 242.173372 76.305113 
L 239.736779 76.885604 
L 237.306112 77.490432 
L 234.881616 78.119535 
L 232.463531 78.772852 
L 230.0521 79.450316 
L 227.647565 80.151861 
L 225.250165 80.877415 
L 222.86014 81.626907 
L 220.477729 82.400261 
L 218.103172 83.1974 
L 215.736704 84.018244 
L 213.378562 84.862712 
L 211.028983 85.730718 
L 208.688202 86.622177 
L 206.356452 87.536998 
L 204.033967 88.47509 
L 201.720978 89.436361 
L 199.417718 90.420712 
L 197.124416 91.428047 
z
" clip-path="url(#p5fd0d3fc3c)" style="fill: #800000"/>
   </g>
   <g id="PatchCollection_1">
    <path d="M 63.165538 243.624183 
L 63.165538 243.624183 
L 63.943602 241.269672 
L 64.745171 238.92306 
L 65.570166 236.58458 
L 66.418505 234.254467 
L 67.290101 231.932954 
L 68.184869 229.620272 
L 69.102719 227.316654 
L 70.043558 225.02233 
L 71.007293 222.737528 
L 71.993828 220.462478 
L 73.003063 218.197406 
L 74.034898 215.94254 
L 75.08923 213.698105 
L 76.165954 211.464326 
L 77.264961 209.241425 
L 78.386141 207.029625 
L 79.529383 204.829148 
L 80.694573 202.640212 
L 81.881593 200.463038 
L 83.090325 198.297843 
L 84.320648 196.144843 
L 85.572439 194.004253 
L 86.845574 191.876289 
L 88.139924 189.761162 
L 89.45536 187.659084 
L 90.791751 185.570265 
L 92.148963 183.494914 
L 93.52686 181.433239 
L 94.925304 179.385446 
L 96.344157 177.35174 
L 97.783275 175.332323 
L 99.242515 173.327398 
L 100.721731 171.337166 
L 102.220775 169.361825 
L 103.739497 167.401573 
L 105.277745 165.456606 
L 106.835366 163.527119 
L 108.412203 161.613304 
L 110.0081 159.715353 
L 111.622896 157.833455 
L 113.25643 155.967799 
L 114.722421 154.325043 
L 114.722421 154.325043 
Q 299.003691 320.252644 513.756261 444.240098 
L 513.756261 444.240098 
L 513.756261 444.240098 
L 512.505669 446.381389 
L 511.233728 448.510066 
L 509.940564 450.625919 
L 508.626306 452.728734 
L 507.291086 454.818301 
L 505.935038 456.894412 
L 504.558296 458.956859 
L 503.161 461.005436 
L 501.743287 463.039937 
L 500.305301 465.06016 
L 498.847185 467.065902 
L 497.369085 469.056963 
L 495.871148 471.033144 
L 494.353525 472.994247 
L 492.816367 474.940076 
L 491.259828 476.870436 
L 489.684064 478.785134 
L 488.089231 480.68398 
L 486.47549 482.566782 
L 484.843003 484.433353 
L 483.191931 486.283506 
L 481.522441 488.117057 
L 479.834699 489.933821 
L 478.128874 491.733617 
L 476.405136 493.516265 
L 474.663659 495.281586 
L 472.904616 497.029405 
L 471.128183 498.759547 
L 469.334537 500.471838 
L 467.523859 502.166107 
L 465.696329 503.842185 
L 463.852129 505.499904 
L 461.991445 507.139099 
L 460.114462 508.759605 
L 458.221369 510.361261 
L 456.312354 511.943905 
L 454.387607 513.507381 
L 452.447323 515.051532 
L 450.491695 516.576203 
L 448.520917 518.081242 
L 446.535189 519.566498 
L 444.759685 520.868559 
L 444.759685 520.868559 
Q 299.003691 320.252644 63.165538 243.624183 
z
" clip-path="url(#p5fd0d3fc3c)" style="fill: #ff6800; fill-opacity: 0.5; stroke: #808080; stroke-opacity: 0.5; stroke-width: 0.1"/>
    <path d="M 444.759685 520.868559 
L 444.759685 520.868559 
L 442.746271 522.316064 
L 440.718484 523.743363 
L 438.676525 525.150312 
L 436.620599 526.536773 
L 434.550911 527.902605 
L 432.467669 529.247672 
L 430.37108 530.57184 
L 428.261355 531.874976 
L 426.138704 533.15695 
L 424.00334 534.417634 
L 421.855475 535.656901 
L 419.695326 536.874629 
L 417.523108 538.070694 
L 415.339038 539.244977 
L 413.143334 540.397362 
L 410.936217 541.527732 
L 408.717906 542.635975 
L 406.488624 543.72198 
L 404.248594 544.785638 
L 401.998039 545.826843 
L 399.737185 546.845491 
L 397.466258 547.841479 
L 395.185484 548.814709 
L 392.895093 549.765083 
L 390.595312 550.692506 
L 388.286372 551.596885 
L 385.968504 552.47813 
L 383.64194 553.336152 
L 381.306912 554.170867 
L 378.963654 554.982189 
L 376.612399 555.770039 
L 374.253384 556.534338 
L 371.886844 557.275008 
L 369.513016 557.991976 
L 367.132137 558.685171 
L 364.744445 559.354523 
L 362.350179 559.999964 
L 359.949578 560.621431 
L 357.542883 561.218862 
L 355.130334 561.792196 
L 352.712173 562.341376 
L 350.560573 562.808706 
L 350.560573 562.808706 
Q 299.003691 320.252644 198.143209 93.716293 
L 198.143209 93.716293 
L 198.143209 93.716293 
L 200.413578 92.719032 
L 202.693805 91.744523 
L 204.983664 90.792866 
L 207.282924 89.864154 
L 209.591357 88.958481 
L 211.90873 88.075937 
L 214.234814 87.216611 
L 216.569373 86.380588 
L 218.912177 85.567952 
L 221.262989 84.778784 
L 223.621575 84.013164 
L 225.9877 83.271167 
L 228.361126 82.552869 
L 230.741616 81.85834 
L 233.128933 81.18765 
L 235.522836 80.540866 
L 237.923088 79.918054 
L 240.329448 79.319275 
L 242.741675 78.744589 
L 245.159529 78.194053 
L 247.582766 77.667723 
L 250.011146 77.165652 
L 252.444425 76.687889 
L 254.88236 76.234482 
L 257.324707 75.805477 
L 259.771222 75.400916 
L 262.22166 75.020841 
L 264.675776 74.665288 
L 267.133325 74.334294 
L 269.594061 74.027891 
L 272.057738 73.746111 
L 274.52411 73.488981 
L 276.992929 73.256527 
L 279.46395 73.048773 
L 281.936924 72.865739 
L 284.411606 72.707444 
L 286.887746 72.573902 
L 289.365098 72.465129 
L 291.843414 72.381134 
L 294.322445 72.321926 
L 296.801945 72.28751 
L 299.003691 72.277736 
L 299.003691 72.277736 
Q 299.003691 320.252644 444.759685 520.868559 
z
" clip-path="url(#p5fd0d3fc3c)" style="fill: #ceff29; fill-opacity: 0.5; stroke: #808080; stroke-opacity: 0.5; stroke-width: 0.1"/>
    <path d="M 350.560573 562.808706 
L 350.560573 562.808706 
L 348.132475 563.312138 
L 345.699464 563.791265 
L 343.261784 564.246038 
L 340.819678 564.676412 
L 338.37339 565.082344 
L 335.923165 565.463793 
L 333.469249 565.820721 
L 331.011886 566.153093 
L 328.551322 566.460874 
L 326.087803 566.744035 
L 323.621576 567.002547 
L 321.152887 567.236385 
L 318.681984 567.445524 
L 316.209112 567.629944 
L 313.73452 567.789627 
L 311.258455 567.924556 
L 308.781164 568.034718 
L 306.302896 568.120102 
L 303.823898 568.1807 
L 301.344418 568.216505 
L 298.864703 568.227513 
L 296.385003 568.213725 
L 293.905564 568.17514 
L 291.426636 568.111764 
L 288.948465 568.023602 
L 286.471299 567.910663 
L 283.995387 567.772958 
L 281.520975 567.610502 
L 279.048312 567.42331 
L 276.577644 567.211401 
L 274.109219 566.974796 
L 271.643283 566.71352 
L 269.180084 566.427597 
L 266.719866 566.117057 
L 264.262877 565.781932 
L 261.809363 565.422253 
L 259.359567 565.038057 
L 256.913736 564.629384 
L 254.472114 564.196272 
L 252.034945 563.738767 
L 249.602472 563.256913 
L 247.446808 562.808706 
L 247.446808 562.808706 
Q 299.003691 320.252644 114.722421 154.325043 
L 114.722421 154.325043 
L 114.722421 154.325043 
L 116.390883 152.490557 
L 118.077606 150.672848 
L 119.782422 148.872096 
L 121.50516 147.088482 
L 123.245648 145.322185 
L 125.003711 143.57338 
L 126.779174 141.842243 
L 128.57186 140.128947 
L 130.381588 138.433663 
L 132.208179 136.756561 
L 134.051449 135.097809 
L 135.911214 133.457571 
L 137.787288 131.836013 
L 139.679484 130.233297 
L 141.587611 128.649582 
L 143.511481 127.085028 
L 145.450899 125.53979 
L 147.405673 124.014023 
L 149.375606 122.50788 
L 151.360502 121.021511 
L 153.360163 119.555066 
L 155.374387 118.108689 
L 157.402974 116.682528 
L 159.445722 115.276722 
L 161.502424 113.891415 
L 163.572877 112.526743 
L 165.656873 111.182844 
L 167.754204 109.859851 
L 169.864659 108.557898 
L 171.988028 107.277113 
L 174.124099 106.017627 
L 176.272657 104.779563 
L 178.433488 103.563047 
L 180.606377 102.368199 
L 182.791105 101.19514 
L 184.987454 100.043986 
L 187.195204 98.914853 
L 189.414136 97.807854 
L 191.644026 96.723099 
L 193.884652 95.660696 
L 196.13579 94.620753 
L 198.143209 93.716293 
L 198.143209 93.716293 
Q 299.003691 320.252644 350.560573 562.808706 
z
" clip-path="url(#p5fd0d3fc3c)" style="fill: #ceff29; fill-opacity: 0.5; stroke: #808080; stroke-opacity: 0.5; stroke-width: 0.1"/>
    <path d="M 247.446808 562.808706 
L 247.446808 562.808706 
L 245.023866 562.281018 
L 242.606321 561.729127 
L 240.194417 561.153089 
L 237.788393 560.552961 
L 235.38849 559.928803 
L 232.994949 559.280678 
L 230.608009 558.608651 
L 228.227909 557.912788 
L 225.854886 557.193159 
L 223.489177 556.449836 
L 221.131021 555.682894 
L 218.780651 554.892408 
L 216.438304 554.078459 
L 214.104213 553.241128 
L 211.778612 552.380498 
L 209.461733 551.496656 
L 207.153808 550.589689 
L 204.855069 549.659689 
L 202.565744 548.706748 
L 200.286063 547.730962 
L 198.016253 546.732428 
L 195.756543 545.711247 
L 193.507157 544.66752 
L 191.26832 543.601351 
L 189.040257 542.512848 
L 186.82319 541.402119 
L 184.617341 540.269276 
L 182.422931 539.11443 
L 180.240178 537.937699 
L 178.069302 536.7392 
L 175.910519 535.519052 
L 173.764046 534.277377 
L 171.630096 533.014301 
L 169.508883 531.729948 
L 167.40062 530.424448 
L 165.305517 529.09793 
L 163.223784 527.750529 
L 161.155629 526.382377 
L 159.101258 524.993613 
L 157.060878 523.584375 
L 155.034691 522.154804 
L 153.022902 520.705043 
L 151.02571 519.235237 
L 149.043316 517.745533 
L 147.075918 516.23608 
L 145.123713 514.707028 
L 143.186895 513.158532 
L 141.26566 511.590744 
L 139.360197 510.003824 
L 137.470699 508.397928 
L 135.597354 506.773218 
L 133.74035 505.129855 
L 131.899872 503.468006 
L 130.076104 501.787835 
L 128.269228 500.08951 
L 126.479426 498.373202 
L 124.706877 496.639083 
L 122.951756 494.887324 
L 121.214241 493.118103 
L 119.494505 491.331595 
L 117.792719 489.527979 
L 116.109055 487.707436 
L 114.722421 486.180245 
L 114.722421 486.180245 
Q 299.003691 320.252644 399.864172 93.716293 
L 399.864172 93.716293 
L 399.864172 93.716293 
L 402.124455 94.736208 
L 404.374426 95.778674 
L 406.61386 96.843587 
L 408.842533 97.930841 
L 411.060222 99.040327 
L 413.266705 100.171935 
L 415.461763 101.32555 
L 417.645174 102.501057 
L 419.816722 103.69834 
L 421.976188 104.917277 
L 424.123357 106.157749 
L 426.258015 107.419629 
L 428.379947 108.702793 
L 430.488941 110.007111 
L 432.584787 111.332454 
L 434.667275 112.678689 
L 436.736197 114.04568 
L 438.791346 115.433293 
L 440.832516 116.841387 
L 442.859503 118.269822 
L 444.872105 119.718455 
L 446.87012 121.187142 
L 448.853349 122.675734 
L 450.821592 124.184085 
L 452.774654 125.712042 
L 454.71234 127.259453 
L 456.634454 128.826163 
L 458.540805 130.412016 
L 460.431203 132.016852 
L 462.305458 133.640512 
L 464.163384 135.282833 
L 466.004793 136.943651 
L 467.829502 138.622799 
L 469.637329 140.320111 
L 471.428093 142.035415 
L 473.201615 143.768541 
L 474.957716 145.519316 
L 476.696223 147.287563 
L 478.41696 149.073107 
L 480.119757 150.875769 
L 481.804441 152.695368 
L 483.470846 154.531723 
L 485.118805 156.38465 
L 486.748151 158.253963 
L 488.358724 160.139476 
L 489.950361 162.041001 
L 491.522904 163.958346 
L 493.076195 165.891321 
L 494.610079 167.839732 
L 496.124403 169.803383 
L 497.619014 171.78208 
L 499.093765 173.775624 
L 500.548506 175.783815 
L 501.983093 177.806453 
L 503.397382 179.843335 
L 504.791232 181.894258 
L 506.164504 183.959017 
L 507.517059 186.037406 
L 508.848764 188.129215 
L 510.159484 190.234237 
L 511.449089 192.352261 
L 512.717449 194.483074 
L 513.756261 196.26519 
L 513.756261 196.26519 
Q 299.003691 320.252644 247.446808 562.808706 
z
" clip-path="url(#p5fd0d3fc3c)" style="fill: #ceff29; fill-opacity: 0.5; stroke: #808080; stroke-opacity: 0.5; stroke-width: 0.1"/>
    <path d="M 513.756261 196.26519 
L 513.756261 196.26519 
L 514.985377 198.418879 
L 516.192895 200.584752 
L 517.378695 202.762591 
L 518.542657 204.952179 
L 519.684666 207.153297 
L 520.804607 209.365725 
L 521.902367 211.589241 
L 522.977838 213.823624 
L 524.030912 216.06865 
L 525.061484 218.324093 
L 526.069449 220.58973 
L 527.054709 222.865333 
L 528.017163 225.150674 
L 528.956716 227.445526 
L 529.873274 229.749658 
L 530.766746 232.062841 
L 531.637041 234.384842 
L 532.484073 236.71543 
L 533.307758 239.054372 
L 534.108012 241.401433 
L 534.884755 243.75638 
L 535.637911 246.118976 
L 536.367404 248.488986 
L 537.073161 250.866171 
L 537.75511 253.250296 
L 538.413185 255.64112 
L 539.047319 258.038406 
L 539.657449 260.441913 
L 540.243514 262.851401 
L 540.805455 265.266629 
L 541.343216 267.687355 
L 541.856743 270.113338 
L 542.345985 272.544335 
L 542.810894 274.980103 
L 543.251421 277.420398 
L 543.667524 279.864976 
L 544.059161 282.313593 
L 544.426293 284.766004 
L 544.768882 287.221964 
L 545.086895 289.681226 
L 545.3803 292.143546 
L 545.649068 294.608676 
L 545.893171 297.076371 
L 546.112586 299.546383 
L 546.307289 302.018466 
L 546.477263 304.492373 
L 546.62249 306.967855 
L 546.742954 309.444666 
L 546.838645 311.922558 
L 546.909553 314.401283 
L 546.955671 316.880593 
L 546.976993 319.36024 
L 546.973519 321.839976 
L 546.945247 324.319554 
L 546.892182 326.798725 
L 546.814328 329.277241 
L 546.711693 331.754855 
L 546.584287 334.231318 
L 546.432124 336.706384 
L 546.255218 339.179805 
L 546.053587 341.651332 
L 545.827251 344.12072 
L 545.576233 346.587721 
L 545.300559 349.052089 
L 545.000254 351.513576 
L 544.67535 353.971938 
L 544.325879 356.426928 
L 543.951877 358.8783 
L 543.553379 361.32581 
L 543.130427 363.769212 
L 542.683062 366.208263 
L 542.21133 368.642719 
L 541.715277 371.072335 
L 541.194953 373.496869 
L 540.65041 375.916079 
L 540.081703 378.329723 
L 539.488888 380.737559 
L 538.872025 383.139347 
L 538.231175 385.534846 
L 537.566403 387.923817 
L 536.877774 390.306021 
L 536.165358 392.681219 
L 535.429227 395.049175 
L 534.841843 396.881105 
L 534.841843 396.881105 
Q 299.003691 320.252644 114.722421 486.180245 
L 114.722421 486.180245 
L 114.722421 486.180245 
L 113.072386 484.329166 
L 111.440945 482.461681 
L 109.82826 480.577974 
L 108.234492 478.678235 
L 106.659801 476.762654 
L 105.104344 474.831421 
L 103.568277 472.884731 
L 102.051753 470.922778 
L 100.554924 468.945758 
L 99.07794 466.953869 
L 97.620949 464.94731 
L 96.184095 462.926281 
L 94.767523 460.890986 
L 93.371375 458.841626 
L 91.99579 456.778408 
L 90.640905 454.701537 
L 89.306857 452.611222 
L 87.993778 450.50767 
L 86.7018 448.391094 
L 85.431052 446.261703 
L 84.181661 444.119712 
L 82.953752 441.965334 
L 81.747447 439.798785 
L 80.562869 437.620282 
L 79.400134 435.430042 
L 78.259359 433.228284 
L 77.140659 431.015229 
L 76.044144 428.791097 
L 74.969926 426.556112 
L 73.91811 424.310497 
L 72.888803 422.054475 
L 71.882108 419.788274 
L 70.898124 417.512119 
L 69.936951 415.226239 
L 68.998684 412.930861 
L 68.083417 410.626215 
L 67.191242 408.312532 
L 66.322249 405.990044 
L 65.476523 403.658981 
L 64.65415 401.319578 
L 63.855211 398.972068 
L 63.079787 396.616687 
L 62.327956 394.253669 
L 61.599792 391.883251 
L 60.895368 389.50567 
L 60.214754 387.121164 
L 59.558019 384.729971 
L 58.925229 382.33233 
L 58.316446 379.928482 
L 57.731732 377.518666 
L 57.171145 375.103123 
L 56.634741 372.682095 
L 56.122574 370.255825 
L 55.634694 367.824554 
L 55.171151 365.388526 
L 54.731991 362.947985 
L 54.317259 360.503174 
L 53.926994 358.054338 
L 53.561237 355.601721 
L 53.220024 353.14557 
L 52.90339 350.68613 
L 52.611365 348.223646 
L 52.343979 345.758366 
L 52.101259 343.290534 
L 51.883229 340.820399 
L 51.689911 338.348207 
L 51.521324 335.874206 
L 51.377485 333.398643 
L 51.258408 330.921764 
L 51.164106 328.443819 
L 51.094587 325.965055 
L 51.04986 323.48572 
L 51.029927 321.006061 
L 51.034791 318.526327 
L 51.064453 316.046766 
L 51.118908 313.567625 
L 51.198151 311.089153 
L 51.302174 308.611597 
L 51.430968 306.135205 
L 51.584518 303.660225 
L 51.762811 301.186904 
L 51.965827 298.71549 
L 52.193547 296.246229 
L 52.387215 294.332208 
L 52.387215 294.332208 
Q 299.003691 320.252644 513.756261 196.26519 
z
" clip-path="url(#p5fd0d3fc3c)" style="fill: #004cff; fill-opacity: 0.5; stroke: #808080; stroke-opacity: 0.5; stroke-width: 0.1"/>
    <path d="M 299.003691 72.277736 
L 299.003691 72.277736 
L 301.483398 72.290134 
L 303.962858 72.327329 
L 306.441822 72.389316 
L 308.920042 72.476089 
L 311.397271 72.58764 
L 313.87326 72.723957 
L 316.347762 72.885026 
L 318.82053 73.070832 
L 321.291316 73.281356 
L 323.759873 73.516577 
L 326.225955 73.776472 
L 328.689314 74.061013 
L 331.149705 74.370174 
L 333.606882 74.703923 
L 336.060598 75.062227 
L 338.510608 75.445049 
L 340.956668 75.852352 
L 343.398533 76.284094 
L 345.835958 76.740234 
L 348.2687 77.220724 
L 350.560573 77.696582 
L 350.560573 77.696582 
Q 299.003691 320.252644 52.387215 294.332208 
L 52.387215 294.332208 
L 52.387215 294.332208 
L 52.658746 291.86738 
L 52.954911 289.405391 
L 53.27568 286.946487 
L 53.621023 284.490913 
L 53.990903 282.038915 
L 54.385285 279.590739 
L 54.804128 277.146628 
L 55.24739 274.706829 
L 55.715029 272.271584 
L 56.206996 269.841137 
L 56.723242 267.415731 
L 57.263716 264.995608 
L 57.828364 262.581012 
L 58.41713 260.172182 
L 59.029954 257.769361 
L 59.666775 255.372788 
L 60.327529 252.982702 
L 61.012151 250.599344 
L 61.720572 248.222951 
L 62.452721 245.853761 
L 63.165538 243.624183 
L 63.165538 243.624183 
Q 299.003691 320.252644 299.003691 72.277736 
z
" clip-path="url(#p5fd0d3fc3c)" style="fill: #000080; fill-opacity: 0.5; stroke: #808080; stroke-opacity: 0.5; stroke-width: 0.1"/>
    <path d="M 350.560573 77.696582 
L 350.560573 77.696582 
L 352.983515 78.22427 
L 355.40106 78.776161 
L 357.812965 79.352199 
L 360.218989 79.952327 
L 362.618891 80.576484 
L 365.012432 81.224609 
L 367.399372 81.896637 
L 369.779472 82.5925 
L 372.152496 83.312129 
L 374.518204 84.055452 
L 376.876361 84.822394 
L 379.22673 85.612879 
L 381.569078 86.426828 
L 383.903169 87.26416 
L 386.22877 88.12479 
L 388.545648 89.008632 
L 390.853573 89.915599 
L 393.152313 90.845599 
L 395.441637 91.79854 
L 397.721318 92.774326 
L 399.864172 93.716293 
L 399.864172 93.716293 
Q 299.003691 320.252644 534.841843 396.881105 
L 534.841843 396.881105 
L 534.841843 396.881105 
L 534.063779 399.235616 
L 533.26221 401.582228 
L 532.437215 403.920708 
L 531.588877 406.250821 
L 530.71728 408.572334 
L 529.822512 410.885015 
L 528.904663 413.188634 
L 527.963823 415.482958 
L 527.000088 417.76776 
L 526.013554 420.04281 
L 525.004318 422.307882 
L 523.972483 424.562747 
L 522.918151 426.807182 
L 521.841428 429.040962 
L 520.742421 431.263863 
L 519.62124 433.475663 
L 518.477998 435.67614 
L 517.312809 437.865076 
L 516.125789 440.04225 
L 514.917057 442.207445 
L 513.756261 444.240098 
L 513.756261 444.240098 
Q 299.003691 320.252644 350.560573 77.696582 
z
" clip-path="url(#p5fd0d3fc3c)" style="fill: #000080; fill-opacity: 0.5; stroke: #808080; stroke-opacity: 0.5; stroke-width: 0.1"/>
   </g>
   <g id="patch_8">
    <path d="M 299.003691 72.277736 
L 301.483398 72.290134 
L 303.962858 72.327329 
L 306.441822 72.389316 
L 308.920042 72.476089 
L 311.397271 72.58764 
L 313.87326 72.723957 
L 316.347762 72.885026 
L 318.82053 73.070832 
L 321.291316 73.281356 
L 323.759873 73.516577 
L 326.225955 73.776472 
L 328.689314 74.061013 
L 331.149705 74.370174 
L 333.606882 74.703923 
L 336.060598 75.062227 
L 338.510608 75.445049 
L 340.956668 75.852352 
L 343.398533 76.284094 
L 345.835958 76.740234 
L 348.2687 77.220724 
L 350.696515 77.725518 
L 353.119161 78.254563 
L 355.536396 78.807809 
L 357.947978 79.385199 
L 360.353665 79.986675 
L 362.753217 80.612178 
L 365.146394 81.261644 
L 367.532957 81.93501 
L 369.912667 82.632207 
L 372.285287 83.353166 
L 374.650578 84.097814 
L 377.008305 84.866078 
L 379.358231 85.657881 
L 381.700122 86.473142 
L 384.033743 87.311782 
L 386.358861 88.173715 
L 388.675244 89.058856 
L 390.98266 89.967116 
L 393.280878 90.898405 
L 395.569668 91.852628 
L 397.848802 92.829692 
L 399.864172 93.716293 
L 400.882965 91.428047 
L 398.847238 90.53249 
L 396.545082 89.545558 
L 394.233173 88.581695 
L 391.911741 87.641 
L 389.581017 86.723565 
L 387.241237 85.829483 
L 384.892632 84.958844 
L 382.535439 84.111733 
L 380.169893 83.288236 
L 377.79623 82.488436 
L 375.414688 81.712412 
L 373.025505 80.960242 
L 370.62892 80.232 
L 368.225172 79.527761 
L 365.814502 78.847594 
L 363.397152 78.191567 
L 360.973361 77.559746 
L 358.543374 76.952194 
L 356.107434 76.368972 
L 353.665782 75.810138 
L 351.218665 75.275749 
L 348.766326 74.765856 
L 346.309011 74.280512 
L 343.846965 73.819766 
L 341.380436 73.383662 
L 338.909668 72.972245 
L 336.43491 72.585556 
L 333.956409 72.223633 
L 331.474412 71.886513 
L 328.989169 71.574229 
L 326.500927 71.286813 
L 324.009935 71.024294 
L 321.516443 70.786697 
L 319.0207 70.574046 
L 316.522954 70.386363 
L 314.023457 70.223667 
L 311.522458 70.085973 
L 309.020207 69.973296 
L 306.516955 69.885646 
L 304.012951 69.823033 
L 301.508446 69.785462 
L 299.003691 69.772939 
L 299.003691 72.277736 
z
" clip-path="url(#p5fd0d3fc3c)" style="fill: none; stroke: #000000; stroke-width: 0.5; stroke-linejoin: miter"/>
   </g>
   <g id="patch_9">
    <path d="M 399.864172 93.716293 
L 402.124455 94.736208 
L 404.374426 95.778674 
L 406.61386 96.843587 
L 408.842533 97.930841 
L 411.060222 99.040327 
L 413.266705 100.171935 
L 415.461763 101.32555 
L 417.645174 102.501057 
L 419.816722 103.69834 
L 421.976188 104.917277 
L 424.123357 106.157749 
L 426.258015 107.419629 
L 428.379947 108.702793 
L 430.488941 110.007111 
L 432.584787 111.332454 
L 434.667275 112.678689 
L 436.736197 114.04568 
L 438.791346 115.433293 
L 440.832516 116.841387 
L 442.859503 118.269822 
L 444.872105 119.718455 
L 446.87012 121.187142 
L 448.853349 122.675734 
L 450.821592 124.184085 
L 452.774654 125.712042 
L 454.71234 127.259453 
L 456.634454 128.826163 
L 458.540805 130.412016 
L 460.431203 132.016852 
L 462.305458 133.640512 
L 464.163384 135.282833 
L 466.004793 136.943651 
L 467.829502 138.622799 
L 469.637329 140.320111 
L 471.428093 142.035415 
L 473.201615 143.768541 
L 474.957716 145.519316 
L 476.696223 147.287563 
L 478.41696 149.073107 
L 480.119757 150.875769 
L 481.804441 152.695368 
L 483.470846 154.531723 
L 485.118805 156.38465 
L 486.748151 158.253963 
L 488.358724 160.139476 
L 489.950361 162.041001 
L 491.522904 163.958346 
L 493.076195 165.891321 
L 494.610079 167.839732 
L 496.124403 169.803383 
L 497.619014 171.78208 
L 499.093765 173.775624 
L 500.548506 175.783815 
L 501.983093 177.806453 
L 503.397382 179.843335 
L 504.791232 181.894258 
L 506.164504 183.959017 
L 507.517059 186.037406 
L 508.848764 188.129215 
L 510.159484 190.234237 
L 511.449089 192.352261 
L 512.717449 194.483074 
L 513.964438 196.626465 
L 515.189931 198.782218 
L 516.393806 200.950117 
L 517.575942 203.129947 
L 518.736221 205.32149 
L 519.874527 207.524525 
L 520.990746 209.738833 
L 522.084766 211.964192 
L 523.156479 214.20038 
L 524.205776 216.447173 
L 525.232554 218.704347 
L 526.236708 220.971675 
L 527.21814 223.248931 
L 528.17675 225.535888 
L 529.112443 227.832316 
L 530.025126 230.137986 
L 530.914707 232.452668 
L 531.781096 234.776129 
L 532.624208 237.108138 
L 533.443959 239.448462 
L 534.240265 241.796865 
L 535.013048 244.153115 
L 535.76223 246.516974 
L 536.487737 248.888207 
L 537.189495 251.266576 
L 537.867435 253.651843 
L 538.521489 256.043771 
L 539.151591 258.442119 
L 539.757679 260.846649 
L 540.339691 263.257119 
L 540.89757 265.673288 
L 541.43126 268.094916 
L 541.940708 270.521759 
L 542.425861 272.953575 
L 542.886673 275.390121 
L 543.323097 277.831154 
L 543.735089 280.276428 
L 544.122608 282.7257 
L 544.485615 285.178725 
L 544.824075 287.635257 
L 545.137952 290.09505 
L 545.427216 292.55786 
L 545.691839 295.023439 
L 545.931792 297.491541 
L 546.147053 299.961918 
L 546.3376 302.434325 
L 546.503414 304.908514 
L 546.644477 307.384237 
L 546.760777 309.861247 
L 546.852302 312.339297 
L 546.919042 314.818137 
L 546.96099 317.297521 
L 546.978143 319.7772 
L 546.970499 322.256927 
L 546.938058 324.736454 
L 546.880824 327.215532 
L 546.798803 329.693914 
L 546.692002 332.171352 
L 546.560433 334.647598 
L 546.404108 337.122404 
L 546.223043 339.595523 
L 546.017257 342.066709 
L 545.786769 344.535712 
L 545.531603 347.002288 
L 545.251785 349.466189 
L 544.947342 351.927168 
L 544.618305 354.38498 
L 544.264707 356.839378 
L 543.886583 359.290118 
L 543.48397 361.736954 
L 543.05691 364.179642 
L 542.605445 366.617937 
L 542.12962 369.051596 
L 541.629482 371.480375 
L 541.105082 373.904031 
L 540.556472 376.322322 
L 539.983707 378.735006 
L 539.386845 381.141842 
L 538.765944 383.542589 
L 538.121067 385.937007 
L 537.452278 388.324857 
L 536.759645 390.7059 
L 536.043237 393.079897 
L 535.303124 395.446611 
L 534.841843 396.881105 
L 537.224047 397.65513 
L 537.689987 396.206146 
L 538.437576 393.815526 
L 539.161221 391.417549 
L 539.86085 389.012455 
L 540.536394 386.600486 
L 541.187785 384.181882 
L 541.814957 381.756885 
L 542.417849 379.325737 
L 542.996399 376.888682 
L 543.550551 374.445964 
L 544.080248 371.997827 
L 544.585437 369.544515 
L 545.066069 367.086274 
L 545.522094 364.623349 
L 545.953468 362.155988 
L 546.360147 359.684436 
L 546.742091 357.208941 
L 547.099261 354.729751 
L 547.431621 352.247112 
L 547.739139 349.761275 
L 548.021784 347.272486 
L 548.279527 344.780996 
L 548.512343 342.287053 
L 548.720208 339.790906 
L 548.903102 337.292806 
L 549.061006 334.793001 
L 549.193904 332.291743 
L 549.301784 329.78928 
L 549.384634 327.285864 
L 549.442446 324.781745 
L 549.475214 322.277173 
L 549.482936 319.772398 
L 549.465609 317.267671 
L 549.423237 314.763243 
L 549.355823 312.259364 
L 549.263374 309.756284 
L 549.145899 307.254254 
L 549.003411 304.753523 
L 548.835922 302.254342 
L 548.643451 299.756962 
L 548.426015 297.26163 
L 548.183638 294.768598 
L 547.916343 292.278115 
L 547.624157 289.790428 
L 547.307109 287.305788 
L 546.965231 284.824443 
L 546.598557 282.34664 
L 546.207123 279.872628 
L 545.79097 277.402654 
L 545.350138 274.936965 
L 544.884671 272.475807 
L 544.394617 270.019427 
L 543.880024 267.56807 
L 543.340943 265.121982 
L 542.777429 262.681407 
L 542.189537 260.246588 
L 541.577328 257.817771 
L 540.940861 255.395196 
L 540.2802 252.979108 
L 539.595413 250.569747 
L 538.886566 248.167354 
L 538.153731 245.772169 
L 537.396981 243.384433 
L 536.616392 241.004383 
L 535.812042 238.632258 
L 534.984012 236.268295 
L 534.132383 233.91273 
L 533.257242 231.565799 
L 532.358676 229.227737 
L 531.436774 226.898777 
L 530.49163 224.579153 
L 529.523336 222.269096 
L 528.531991 219.968837 
L 527.517694 217.678606 
L 526.480545 215.398633 
L 525.420648 213.129145 
L 524.338111 210.870369 
L 523.233039 208.622532 
L 522.105545 206.385857 
L 520.955742 204.160569 
L 519.783743 201.94689 
L 518.589666 199.745041 
L 517.373631 197.555244 
L 516.135759 195.377715 
L 514.876174 193.212675 
L 513.595002 191.060338 
L 512.292371 188.92092 
L 510.968411 186.794635 
L 509.623255 184.681696 
L 508.257037 182.582314 
L 506.869894 180.496699 
L 505.461965 178.425059 
L 504.03339 176.367602 
L 502.584312 174.324534 
L 501.114876 172.296058 
L 499.62523 170.282377 
L 498.115521 168.283694 
L 496.585901 166.300207 
L 495.036524 164.332116 
L 493.467543 162.379616 
L 491.879116 160.442903 
L 490.271401 158.522172 
L 488.64456 156.617613 
L 486.998755 154.729417 
L 485.334151 152.857774 
L 483.650914 151.00287 
L 481.949212 149.164891 
L 480.229216 147.344021 
L 478.491097 145.540441 
L 476.73503 143.754333 
L 474.96119 141.985874 
L 473.169754 140.235241 
L 471.360902 138.50261 
L 469.534814 136.788155 
L 467.691673 135.092045 
L 465.831663 133.414451 
L 463.954971 131.755541 
L 462.061784 130.11548 
L 460.152291 128.494433 
L 458.226684 126.892562 
L 456.285154 125.310027 
L 454.327897 123.746985 
L 452.355107 122.203594 
L 450.366982 120.680008 
L 448.36372 119.176379 
L 446.345523 117.692857 
L 444.312592 116.229591 
L 442.26513 114.786728 
L 440.203342 113.36441 
L 438.127435 111.962782 
L 436.037614 110.581982 
L 433.934091 109.222149 
L 431.817075 107.883419 
L 429.686777 106.565926 
L 427.543412 105.269801 
L 425.387192 103.995174 
L 423.218334 102.742173 
L 421.037055 101.510922 
L 418.843573 100.301546 
L 416.638107 99.114165 
L 414.420877 97.948897 
L 412.192106 96.80586 
L 409.952016 95.685166 
L 407.700831 94.58693 
L 405.438777 93.51126 
L 403.166079 92.458264 
L 400.882965 91.428047 
L 399.864172 93.716293 
z
" clip-path="url(#p5fd0d3fc3c)" style="fill: none; stroke: #000000; stroke-width: 0.5; stroke-linejoin: miter"/>
   </g>
   <g id="patch_10">
    <path d="M 534.841843 396.881105 
L 534.063779 399.235616 
L 533.26221 401.582228 
L 532.437215 403.920708 
L 531.588877 406.250821 
L 530.71728 408.572334 
L 529.822512 410.885015 
L 528.904663 413.188634 
L 527.963823 415.482958 
L 527.000088 417.76776 
L 526.013554 420.04281 
L 525.004318 422.307882 
L 523.972483 424.562747 
L 522.918151 426.807182 
L 521.841428 429.040962 
L 520.742421 431.263863 
L 519.62124 433.475663 
L 518.477998 435.67614 
L 517.312809 437.865076 
L 516.125789 440.04225 
L 514.917057 442.207445 
L 513.756261 444.240098 
L 515.925479 445.492497 
L 517.098 443.439312 
L 518.318941 441.252246 
L 519.517951 439.05308 
L 520.69491 436.842034 
L 521.8497 434.61933 
L 522.982206 432.385188 
L 524.092314 430.139834 
L 525.179913 427.883491 
L 526.244895 425.616385 
L 527.287153 423.338743 
L 528.306583 421.050792 
L 529.303082 418.752761 
L 530.276552 416.444881 
L 531.226895 414.127381 
L 532.154015 411.800494 
L 533.057821 409.464452 
L 533.938222 407.119489 
L 534.795129 404.76584 
L 535.628458 402.403739 
L 536.438124 400.033423 
L 537.224047 397.65513 
L 534.841843 396.881105 
z
" clip-path="url(#p5fd0d3fc3c)" style="fill: none; stroke: #000000; stroke-width: 0.5; stroke-linejoin: miter"/>
   </g>
   <g id="patch_11">
    <path d="M 513.756261 444.240098 
L 512.505669 446.381389 
L 511.233728 448.510066 
L 509.940564 450.625919 
L 508.626306 452.728734 
L 507.291086 454.818301 
L 505.935038 456.894412 
L 504.558296 458.956859 
L 503.161 461.005436 
L 501.743287 463.039937 
L 500.305301 465.06016 
L 498.847185 467.065902 
L 497.369085 469.056963 
L 495.871148 471.033144 
L 494.353525 472.994247 
L 492.816367 474.940076 
L 491.259828 476.870436 
L 489.684064 478.785134 
L 488.089231 480.68398 
L 486.47549 482.566782 
L 484.843003 484.433353 
L 483.191931 486.283506 
L 481.522441 488.117057 
L 479.834699 489.933821 
L 478.128874 491.733617 
L 476.405136 493.516265 
L 474.663659 495.281586 
L 472.904616 497.029405 
L 471.128183 498.759547 
L 469.334537 500.471838 
L 467.523859 502.166107 
L 465.696329 503.842185 
L 463.852129 505.499904 
L 461.991445 507.139099 
L 460.114462 508.759605 
L 458.221369 510.361261 
L 456.312354 511.943905 
L 454.387607 513.507381 
L 452.447323 515.051532 
L 450.491695 516.576203 
L 448.520917 518.081242 
L 446.535189 519.566498 
L 444.534707 521.031822 
L 442.519672 522.477069 
L 440.490286 523.902094 
L 438.446751 525.306754 
L 436.389272 526.690909 
L 434.318054 528.05442 
L 432.233306 529.397151 
L 430.135234 530.718968 
L 428.024049 532.019738 
L 425.899963 533.299332 
L 423.763187 534.557621 
L 421.613935 535.79448 
L 419.452422 537.009785 
L 417.278864 538.203415 
L 415.093479 539.375249 
L 412.896485 540.525172 
L 410.688102 541.653067 
L 408.46855 542.758823 
L 406.238052 543.842328 
L 403.996831 544.903474 
L 401.745111 545.942156 
L 399.483116 546.958269 
L 397.211074 547.951711 
L 394.929211 548.922383 
L 392.637755 549.870189 
L 390.336936 550.795034 
L 388.026984 551.696824 
L 385.70813 552.57547 
L 383.380605 553.430884 
L 381.044643 554.26298 
L 378.700476 555.071675 
L 376.34834 555.856889 
L 373.98847 556.618543 
L 371.621101 557.35656 
L 369.246471 558.070867 
L 366.864816 558.761392 
L 364.476375 559.428066 
L 362.081387 560.070824 
L 359.680092 560.689599 
L 357.272728 561.284331 
L 354.859538 561.854961 
L 352.440763 562.40143 
L 350.016643 562.923684 
L 347.587423 563.421672 
L 345.153344 563.895343 
L 342.71465 564.34465 
L 340.271585 564.769547 
L 337.824393 565.169994 
L 335.37332 565.545948 
L 332.918609 565.897374 
L 330.460507 566.224236 
L 327.999259 566.5265 
L 325.535112 566.804137 
L 323.068311 567.05712 
L 320.599105 567.285422 
L 318.127738 567.489021 
L 315.65446 567.667896 
L 313.179516 567.82203 
L 310.703154 567.951408 
L 308.225623 568.056016 
L 305.747169 568.135844 
L 303.268042 568.190883 
L 300.788487 568.221129 
L 298.308755 568.226578 
L 295.829091 568.207231 
L 293.349745 568.163088 
L 290.870965 568.094154 
L 288.392998 568.000436 
L 285.916092 567.881943 
L 283.440494 567.738688 
L 280.966453 567.570685 
L 278.494216 567.377949 
L 276.02403 567.160502 
L 273.556141 566.918364 
L 271.090798 566.651559 
L 268.628245 566.360115 
L 266.16873 566.044061 
L 263.712499 565.703427 
L 261.259796 565.338249 
L 258.810868 564.948562 
L 256.365959 564.534406 
L 253.925314 564.095821 
L 251.489177 563.632853 
L 249.057791 563.145547 
L 246.6314 562.633952 
L 244.210246 562.098119 
L 241.794571 561.538101 
L 239.384617 560.953955 
L 236.980625 560.345739 
L 234.582835 559.713515 
L 232.191488 559.057344 
L 229.806821 558.377293 
L 227.429074 557.673429 
L 225.058484 556.945824 
L 222.695289 556.19455 
L 220.339725 555.419682 
L 217.992027 554.621297 
L 215.65243 553.799475 
L 213.321168 552.954299 
L 210.998475 552.085854 
L 208.684581 551.194225 
L 206.37972 550.279501 
L 204.084121 549.341776 
L 201.798014 548.381142 
L 199.521627 547.397695 
L 197.255188 546.391534 
L 194.998924 545.362759 
L 192.753061 544.311473 
L 190.517823 543.237782 
L 188.293433 542.141792 
L 186.080114 541.023613 
L 183.878087 539.883358 
L 181.687573 538.72114 
L 179.50879 537.537075 
L 177.341956 536.331281 
L 175.187289 535.10388 
L 173.045003 533.854995 
L 170.915313 532.584749 
L 168.798432 531.29327 
L 166.694571 529.980687 
L 164.603941 528.647131 
L 162.526751 527.292737 
L 160.463208 525.917638 
L 158.413519 524.521973 
L 156.37789 523.105882 
L 154.356522 521.669505 
L 152.34962 520.212986 
L 150.357382 518.736472 
L 148.380009 517.24011 
L 146.417698 515.724049 
L 144.470646 514.188441 
L 142.539047 512.633439 
L 140.623094 511.0592 
L 138.72298 509.46588 
L 136.838893 507.853639 
L 134.971022 506.222638 
L 133.119555 504.573041 
L 131.284676 502.905011 
L 129.466568 501.218716 
L 127.665415 499.514325 
L 125.881395 497.792008 
L 124.114687 496.051937 
L 122.365467 494.294286 
L 120.633912 492.519231 
L 118.920193 490.72695 
L 117.224482 488.917621 
L 115.54695 487.091426 
L 113.887762 485.248548 
L 112.247087 483.38917 
L 110.625086 481.513478 
L 109.021924 479.62166 
L 107.437759 477.713906 
L 105.872751 475.790405 
L 104.327056 473.851351 
L 102.800828 471.896938 
L 101.29422 469.92736 
L 99.807383 467.942814 
L 98.340466 465.9435 
L 96.893615 463.929617 
L 95.466975 461.901366 
L 94.060688 459.85895 
L 92.674895 457.802574 
L 91.309735 455.732443 
L 89.965344 453.648764 
L 88.641857 451.551746 
L 87.339406 449.441597 
L 86.058121 447.318531 
L 84.798131 445.182757 
L 83.55956 443.034491 
L 82.342535 440.873946 
L 81.147175 438.70134 
L 79.9736 436.516889 
L 78.821928 434.320811 
L 77.692275 432.113327 
L 76.584752 429.894656 
L 75.499471 427.665022 
L 74.43654 425.424647 
L 73.396066 423.173754 
L 72.378152 420.912569 
L 71.382901 418.641319 
L 70.410412 416.360229 
L 69.460781 414.069529 
L 68.534105 411.769448 
L 67.630476 409.460214 
L 66.749984 407.142061 
L 65.892716 404.815218 
L 65.05876 402.479919 
L 64.248198 400.136397 
L 63.461112 397.784887 
L 62.697579 395.425624 
L 61.957677 393.058844 
L 61.24148 390.684783 
L 60.549058 388.303679 
L 59.880482 385.91577 
L 59.235817 383.521294 
L 58.61513 381.120492 
L 58.018481 378.713603 
L 57.44593 376.300868 
L 56.897535 373.882528 
L 56.37335 371.458826 
L 55.873428 369.030003 
L 55.397819 366.596302 
L 54.946571 364.157966 
L 54.519727 361.715241 
L 54.117333 359.268369 
L 53.739426 356.817595 
L 53.386046 354.363165 
L 53.057227 351.905324 
L 52.753003 349.444318 
L 52.473403 346.980392 
L 52.218457 344.513794 
L 51.988188 342.04477 
L 51.782621 339.573566 
L 51.601776 337.100431 
L 51.445671 334.625611 
L 51.314322 332.149353 
L 51.207741 329.671906 
L 51.12594 327.193517 
L 51.068926 324.714433 
L 51.036705 322.234904 
L 51.029281 319.755176 
L 51.046655 317.275498 
L 51.088823 314.796118 
L 51.155783 312.317284 
L 51.247528 309.839243 
L 51.364048 307.362243 
L 51.505332 304.886532 
L 51.671365 302.412358 
L 51.862131 299.939968 
L 52.077612 297.46961 
L 52.317784 295.001529 
L 52.582625 292.535974 
L 52.872109 290.07319 
L 53.186205 287.613424 
L 53.524882 285.156922 
L 53.888107 282.70393 
L 54.275844 280.254692 
L 54.688053 277.809454 
L 55.124693 275.368461 
L 55.585722 272.931956 
L 56.071091 270.500183 
L 56.580754 268.073385 
L 57.114659 265.651805 
L 57.672753 263.235685 
L 58.254979 260.825266 
L 58.861281 258.420791 
L 59.491596 256.022498 
L 60.145862 253.630629 
L 60.824014 251.245421 
L 61.525984 248.867115 
L 62.251701 246.495946 
L 63.001093 244.132154 
L 63.165538 243.624183 
L 60.783335 242.850158 
L 60.617228 243.36326 
L 59.860267 245.750929 
L 59.127219 248.146049 
L 58.418159 250.548379 
L 57.733157 252.957679 
L 57.072282 255.373709 
L 56.4356 257.796227 
L 55.823174 260.22499 
L 55.235067 262.659756 
L 54.671336 265.100281 
L 54.132038 267.546321 
L 53.617227 269.997633 
L 53.126954 272.453969 
L 52.661269 274.915085 
L 52.220218 277.380735 
L 51.803845 279.850672 
L 51.412192 282.32465 
L 51.045298 284.80242 
L 50.7032 287.283735 
L 50.385931 289.768347 
L 50.093524 292.256007 
L 49.826008 294.746467 
L 49.583409 297.239478 
L 49.365752 299.73479 
L 49.173059 302.232153 
L 49.005348 304.731319 
L 48.862637 307.232037 
L 48.74494 309.734057 
L 48.652269 312.237129 
L 48.584633 314.741002 
L 48.542038 317.245426 
L 48.524489 319.750151 
L 48.531988 322.254927 
L 48.564534 324.759502 
L 48.622124 327.263626 
L 48.704752 329.76705 
L 48.812409 332.269522 
L 48.945085 334.770792 
L 49.102767 337.270611 
L 49.285439 339.768727 
L 49.493082 342.264892 
L 49.725676 344.758856 
L 49.983198 347.25037 
L 50.265622 349.739183 
L 50.572919 352.225048 
L 50.905059 354.707716 
L 51.262009 357.186938 
L 51.643733 359.662467 
L 52.050193 362.134055 
L 52.481347 364.601454 
L 52.937154 367.064419 
L 53.417567 369.522703 
L 53.922539 371.97606 
L 54.452018 374.424244 
L 55.005953 376.867012 
L 55.584287 379.304118 
L 56.186962 381.735319 
L 56.81392 384.160372 
L 57.465096 386.579034 
L 58.140425 388.991063 
L 58.839841 391.396219 
L 59.563273 393.79426 
L 60.310649 396.184947 
L 61.081894 398.568041 
L 61.876931 400.943304 
L 62.69568 403.310497 
L 63.53806 405.669385 
L 64.403987 408.019731 
L 65.293373 410.361301 
L 66.20613 412.69386 
L 67.142166 415.017175 
L 68.101389 417.331013 
L 69.083701 419.635144 
L 70.089006 421.929336 
L 71.117201 424.213361 
L 72.168185 426.48699 
L 73.241853 428.749996 
L 74.338096 431.002152 
L 75.456806 433.243233 
L 76.59787 435.473015 
L 77.761175 437.691275 
L 78.946604 439.897791 
L 80.154038 442.092343 
L 81.383357 444.274711 
L 82.634438 446.444677 
L 83.907156 448.602024 
L 85.201383 450.746536 
L 86.51699 452.877999 
L 87.853846 454.9962 
L 89.211816 457.100926 
L 90.590766 459.191967 
L 91.990556 461.269115 
L 93.411048 463.332161 
L 94.852099 465.380899 
L 96.313565 467.415125 
L 97.7953 469.434634 
L 99.297155 471.439225 
L 100.818981 473.428698 
L 102.360625 475.402853 
L 103.921933 477.361494 
L 105.50275 479.304424 
L 107.102916 481.231448 
L 108.722272 483.142375 
L 110.360656 485.037013 
L 112.017904 486.915173 
L 113.693851 488.776667 
L 115.388329 490.621308 
L 117.101168 492.448913 
L 118.832197 494.259298 
L 120.581243 496.052282 
L 122.348131 497.827687 
L 124.132684 499.585335 
L 125.934725 501.325049 
L 127.754072 503.046656 
L 129.590544 504.749984 
L 131.443958 506.434863 
L 133.314127 508.101123 
L 135.200864 509.748599 
L 137.103983 511.377125 
L 139.02329 512.986539 
L 140.958596 514.57668 
L 142.909706 516.147388 
L 144.876426 517.698507 
L 146.858558 519.229882 
L 148.855904 520.741359 
L 150.868265 522.232788 
L 152.89544 523.704019 
L 154.937225 525.154904 
L 156.993417 526.5853 
L 159.063809 527.995062 
L 161.148196 529.384051 
L 163.246368 530.752126 
L 165.358115 532.099152 
L 167.483227 533.424993 
L 169.621491 534.729517 
L 171.772693 536.012594 
L 173.936618 537.274095 
L 176.11305 538.513894 
L 178.301771 539.731867 
L 180.502561 540.927892 
L 182.715202 542.10185 
L 184.939471 543.253623 
L 187.175147 544.383096 
L 189.422006 545.490157 
L 191.679822 546.574693 
L 193.948371 547.636598 
L 196.227426 548.675765 
L 198.516758 549.692089 
L 200.816138 550.68547 
L 203.125337 551.655808 
L 205.444124 552.603005 
L 207.772267 553.526968 
L 210.109533 554.427603 
L 212.455688 555.304821 
L 214.810498 556.158534 
L 217.173727 556.988657 
L 219.545139 557.795106 
L 221.924497 558.577802 
L 224.311563 559.336665 
L 226.706098 560.071619 
L 229.107863 560.782592 
L 231.516617 561.469513 
L 233.93212 562.132311 
L 236.35413 562.770922 
L 238.782404 563.385282 
L 241.216701 563.975328 
L 243.656777 564.541002 
L 246.102387 565.082248 
L 248.553287 565.599011 
L 251.009233 566.091239 
L 253.469977 566.558884 
L 255.935275 567.001898 
L 258.40488 567.420238 
L 260.878545 567.813861 
L 263.356022 568.182728 
L 265.837064 568.526802 
L 268.321422 568.846049 
L 270.808849 569.140437 
L 273.299095 569.409937 
L 275.791912 569.654521 
L 278.28705 569.874165 
L 280.784259 570.068847 
L 283.28329 570.238547 
L 285.783894 570.383249 
L 288.285819 570.502939 
L 290.788816 570.597603 
L 293.292635 570.667233 
L 295.797025 570.711822 
L 298.301735 570.731366 
L 300.806516 570.725861 
L 303.311116 570.69531 
L 305.815285 570.639714 
L 308.318774 570.55908 
L 310.821331 570.453416 
L 313.322706 570.322731 
L 315.822649 570.16704 
L 318.32091 569.986358 
L 320.81724 569.780702 
L 323.311388 569.550094 
L 325.803106 569.294556 
L 328.292144 569.014115 
L 330.778253 568.708797 
L 333.261184 568.378634 
L 335.74069 568.023659 
L 338.216522 567.643906 
L 340.688432 567.239415 
L 343.156175 566.810225 
L 345.619502 566.35638 
L 348.078167 565.877925 
L 350.531926 565.374907 
L 352.980531 564.847377 
L 355.423739 564.295388 
L 357.861305 563.718995 
L 360.292985 563.118255 
L 362.718536 562.49323 
L 365.137716 561.84398 
L 367.550282 561.170571 
L 369.955994 560.473071 
L 372.35461 559.751549 
L 374.745892 559.006077 
L 377.1296 558.23673 
L 379.505494 557.443585 
L 381.873339 556.626721 
L 384.232897 555.786219 
L 386.583932 554.922165 
L 388.926209 554.034644 
L 391.259494 553.123745 
L 393.583554 552.189558 
L 395.898155 551.232179 
L 398.203067 550.251701 
L 400.49806 549.248224 
L 402.782903 548.221848 
L 405.057368 547.172675 
L 407.321228 546.10081 
L 409.574256 545.00636 
L 411.816227 543.889435 
L 414.046917 542.750147 
L 416.266103 541.588609 
L 418.473563 540.404938 
L 420.669076 539.199251 
L 422.852422 537.971671 
L 425.023383 536.722318 
L 427.181743 535.451319 
L 429.327285 534.1588 
L 431.459795 532.84489 
L 433.579059 531.509722 
L 435.684866 530.153428 
L 437.777005 528.776144 
L 439.855267 527.378008 
L 441.919443 525.959159 
L 443.969328 524.51974 
L 446.004717 523.059895 
L 448.025406 521.579769 
L 450.031192 520.07951 
L 452.021877 518.559269 
L 453.997259 517.019198 
L 455.957142 515.459449 
L 457.90133 513.880181 
L 459.829628 512.28155 
L 461.741844 510.663716 
L 463.637786 509.026841 
L 465.517265 507.371089 
L 467.380093 505.696625 
L 469.226083 504.003617 
L 471.055051 502.292234 
L 472.866814 500.562647 
L 474.661191 498.815029 
L 476.438002 497.049555 
L 478.19707 495.266402 
L 479.938219 493.465748 
L 481.661274 491.647772 
L 483.366064 489.812657 
L 485.052418 487.960586 
L 486.720167 486.091744 
L 488.369145 484.206319 
L 489.999186 482.304498 
L 491.610128 480.386473 
L 493.201809 478.452434 
L 494.774071 476.502575 
L 496.326756 474.537091 
L 497.859709 472.556179 
L 499.372776 470.560037 
L 500.865806 468.548865 
L 502.338651 466.522862 
L 503.791162 464.482233 
L 505.223195 462.427181 
L 506.634605 460.357912 
L 508.025253 458.274632 
L 509.394999 456.17755 
L 510.743706 454.066876 
L 512.071239 451.94282 
L 513.377466 449.805596 
L 514.662255 447.655416 
L 515.925479 445.492497 
L 513.756261 444.240098 
z
" clip-path="url(#p5fd0d3fc3c)" style="fill: none; stroke: #000000; stroke-width: 0.5; stroke-linejoin: miter"/>
   </g>
   <g id="patch_12">
    <path d="M 63.165538 243.624183 
L 63.943602 241.269672 
L 64.745171 238.92306 
L 65.570166 236.58458 
L 66.418505 234.254467 
L 67.290101 231.932954 
L 68.184869 229.620272 
L 69.102719 227.316654 
L 70.043558 225.02233 
L 71.007293 222.737528 
L 71.993828 220.462478 
L 73.003063 218.197406 
L 74.034898 215.94254 
L 75.08923 213.698105 
L 76.165954 211.464326 
L 77.264961 209.241425 
L 78.386141 207.029625 
L 79.529383 204.829148 
L 80.694573 202.640212 
L 81.881593 200.463038 
L 83.090325 198.297843 
L 84.320648 196.144843 
L 85.572439 194.004253 
L 86.845574 191.876289 
L 88.139924 189.761162 
L 89.45536 187.659084 
L 90.791751 185.570265 
L 92.148963 183.494914 
L 93.52686 181.433239 
L 94.925304 179.385446 
L 96.344157 177.35174 
L 97.783275 175.332323 
L 99.242515 173.327398 
L 100.721731 171.337166 
L 102.220775 169.361825 
L 103.739497 167.401573 
L 105.277745 165.456606 
L 106.835366 163.527119 
L 108.412203 161.613304 
L 110.0081 159.715353 
L 111.622896 157.833455 
L 113.25643 155.967799 
L 114.908538 154.118572 
L 116.579056 152.285958 
L 118.267816 150.47014 
L 119.974649 148.6713 
L 121.699385 146.889619 
L 123.441852 145.125273 
L 125.201874 143.378441 
L 126.979277 141.649295 
L 128.773882 139.93801 
L 130.585509 138.244756 
L 132.413979 136.569702 
L 134.259107 134.913017 
L 136.12071 133.274865 
L 137.9986 131.655412 
L 139.892591 130.054817 
L 141.802493 128.473243 
L 143.728115 126.910846 
L 145.669265 125.367783 
L 147.625748 123.844208 
L 149.597368 122.340275 
L 151.583929 120.856132 
L 153.585232 119.391928 
L 155.601077 117.947811 
L 157.631261 116.523924 
L 159.675583 115.12041 
L 161.733838 113.737408 
L 163.805819 112.375058 
L 165.89132 111.033496 
L 167.990132 109.712855 
L 170.102046 108.413268 
L 172.226849 107.134865 
L 174.36433 105.877774 
L 176.514275 104.64212 
L 178.676469 103.428026 
L 180.850695 102.235615 
L 183.036737 101.065006 
L 185.234375 99.916315 
L 187.44339 98.789657 
L 189.663561 97.685146 
L 191.894665 96.602891 
L 194.136481 95.543001 
L 196.388783 94.505582 
L 198.143209 93.716293 
L 197.124416 91.428047 
L 195.352269 92.225309 
L 193.077216 93.273207 
L 190.812756 94.343803 
L 188.559115 95.436989 
L 186.316518 96.552658 
L 184.08519 97.690695 
L 181.865353 98.850989 
L 179.65723 100.033423 
L 177.461042 101.237879 
L 175.277008 102.464236 
L 173.105347 103.712371 
L 170.946275 104.98216 
L 168.800009 106.273477 
L 166.666763 107.586191 
L 164.546751 108.920171 
L 162.440184 110.275285 
L 160.347273 111.651396 
L 158.268228 113.048367 
L 156.203257 114.466058 
L 154.152565 115.904328 
L 152.116359 117.363032 
L 150.094841 118.842026 
L 148.088213 120.34116 
L 146.096678 121.860285 
L 144.120432 123.399249 
L 142.159675 124.957898 
L 140.214603 126.536077 
L 138.285409 128.133627 
L 136.372286 129.750389 
L 134.475427 131.386201 
L 132.59502 133.040899 
L 130.731254 134.714319 
L 128.884316 136.406292 
L 127.054389 138.11665 
L 125.241657 139.845221 
L 123.4463 141.591833 
L 121.6685 143.35631 
L 119.908433 145.138477 
L 118.166275 146.938156 
L 116.442201 148.755165 
L 114.736382 150.589325 
L 113.048991 152.44045 
L 111.380195 154.308357 
L 109.73016 156.192857 
L 108.099054 158.093764 
L 106.487037 160.010886 
L 104.894272 161.944033 
L 103.320917 163.89301 
L 101.767131 165.857623 
L 100.233068 167.837676 
L 98.718883 169.832969 
L 97.224725 171.843305 
L 95.750745 173.868481 
L 94.297091 175.908296 
L 92.863907 177.962545 
L 91.451336 180.031023 
L 90.059521 182.113523 
L 88.6886 184.209837 
L 87.33871 186.319755 
L 86.009987 188.443066 
L 84.702562 190.579558 
L 83.416568 192.729017 
L 82.152132 194.891228 
L 80.909382 197.065976 
L 79.68844 199.253042 
L 78.48943 201.452208 
L 77.312471 203.663254 
L 76.157681 205.885958 
L 75.025175 208.1201 
L 73.915067 210.365454 
L 72.827468 212.621797 
L 71.762486 214.888903 
L 70.720229 217.166545 
L 69.700799 219.454496 
L 68.704299 221.752527 
L 67.730829 224.060407 
L 66.780486 226.377907 
L 65.853366 228.704794 
L 64.94956 231.040836 
L 64.069159 233.385799 
L 63.212252 235.739448 
L 62.378924 238.101549 
L 61.569258 240.471864 
L 60.783335 242.850158 
L 63.165538 243.624183 
z
" clip-path="url(#p5fd0d3fc3c)" style="fill: none; stroke: #000000; stroke-width: 0.5; stroke-linejoin: miter"/>
   </g>
   <g id="patch_13">
    <path d="M 198.143209 93.716293 
L 200.413578 92.719032 
L 202.693805 91.744523 
L 204.983664 90.792866 
L 207.282924 89.864154 
L 209.591357 88.958481 
L 211.90873 88.075937 
L 214.234814 87.216611 
L 216.569373 86.380588 
L 218.912177 85.567952 
L 221.262989 84.778784 
L 223.621575 84.013164 
L 225.9877 83.271167 
L 228.361126 82.552869 
L 230.741616 81.85834 
L 233.128933 81.18765 
L 235.522836 80.540866 
L 237.923088 79.918054 
L 240.329448 79.319275 
L 242.741675 78.744589 
L 245.159529 78.194053 
L 247.582766 77.667723 
L 250.011146 77.165652 
L 252.444425 76.687889 
L 254.88236 76.234482 
L 257.324707 75.805477 
L 259.771222 75.400916 
L 262.22166 75.020841 
L 264.675776 74.665288 
L 267.133325 74.334294 
L 269.594061 74.027891 
L 272.057738 73.746111 
L 274.52411 73.488981 
L 276.992929 73.256527 
L 279.46395 73.048773 
L 281.936924 72.865739 
L 284.411606 72.707444 
L 286.887746 72.573902 
L 289.365098 72.465129 
L 291.843414 72.381134 
L 294.322445 72.321926 
L 296.801945 72.28751 
L 299.003691 72.277736 
L 299.003691 69.772939 
L 296.779705 69.782812 
L 294.27516 69.817575 
L 291.771088 69.877381 
L 289.267738 69.962225 
L 286.765363 70.072097 
L 284.264211 70.206987 
L 281.764533 70.366882 
L 279.266579 70.551764 
L 276.770598 70.761617 
L 274.276841 70.996419 
L 271.785557 71.256146 
L 269.296994 71.540772 
L 266.811402 71.85027 
L 264.32903 72.184608 
L 261.850124 72.543752 
L 259.374934 72.927666 
L 256.903707 73.336314 
L 254.43669 73.769652 
L 251.97413 74.227639 
L 249.516272 74.710228 
L 247.063363 75.217371 
L 244.615648 75.749017 
L 242.173372 76.305113 
L 239.736779 76.885604 
L 237.306112 77.490432 
L 234.881616 78.119535 
L 232.463531 78.772852 
L 230.0521 79.450316 
L 227.647565 80.151861 
L 225.250165 80.877415 
L 222.86014 81.626907 
L 220.477729 82.400261 
L 218.103172 83.1974 
L 215.736704 84.018244 
L 213.378562 84.862712 
L 211.028983 85.730718 
L 208.688202 86.622177 
L 206.356452 87.536998 
L 204.033967 88.47509 
L 201.720978 89.436361 
L 199.417718 90.420712 
L 197.124416 91.428047 
L 198.143209 93.716293 
z
" clip-path="url(#p5fd0d3fc3c)" style="fill: none; stroke: #000000; stroke-width: 0.5; stroke-linejoin: miter"/>
   </g>
   <g id="text_1">
    <text style="font: 3px 'DejaVu Sans', 'Bitstream Vera Sans', 'Computer Modern Sans Serif', 'Lucida Grande', 'Verdana', 'Geneva', 'Lucid', 'Arial', 'Helvetica', 'Avant Garde', sans-serif; text-anchor: start" x="352.716985" y="73.03343" transform="rotate(-78 352.716985 73.03343)">Government of Mauritius</text>
   </g>
   <g id="text_2">
    <text style="font: 3px 'DejaVu Sans', 'Bitstream Vera Sans', 'Computer Modern Sans Serif', 'Lucida Grande', 'Verdana', 'Geneva', 'Lucid', 'Arial', 'Helvetica', 'Avant Garde', sans-serif; text-anchor: start" x="530.580118" y="218.395804" transform="rotate(-24 530.580118 218.395804)">University of Technology, Mauritius</text>
   </g>
   <g id="text_3">
    <text style="font: 3px 'DejaVu Sans', 'Bitstream Vera Sans', 'Computer Modern Sans Serif', 'Lucida Grande', 'Verdana', 'Geneva', 'Lucid', 'Arial', 'Helvetica', 'Avant Garde', sans-serif; text-anchor: start" x="529.652949" y="424.191939" transform="rotate(-336 529.652949 424.191939)">Open University of Mauritius</text>
   </g>
   <g id="text_4">
    <text style="font: 3px 'DejaVu Sans', 'Bitstream Vera Sans', 'Computer Modern Sans Serif', 'Lucida Grande', 'Verdana', 'Geneva', 'Lucid', 'Arial', 'Helvetica', 'Avant Garde', sans-serif; text-anchor: end" x="197.146851" y="551.829071" transform="rotate(-66 197.146851 551.829071)">University of Mauritius</text>
   </g>
   <g id="text_5">
    <text style="font: 3px 'DejaVu Sans', 'Bitstream Vera Sans', 'Computer Modern Sans Serif', 'Lucida Grande', 'Verdana', 'Geneva', 'Lucid', 'Arial', 'Helvetica', 'Avant Garde', sans-serif; text-anchor: end" x="110.236915" y="151.819981" transform="rotate(-318 110.236915 151.819981)">Mauritius Institute of Education</text>
   </g>
   <g id="text_6">
    <text style="font: 3px 'DejaVu Sans', 'Bitstream Vera Sans', 'Computer Modern Sans Serif', 'Lucida Grande', 'Verdana', 'Geneva', 'Lucid', 'Arial', 'Helvetica', 'Avant Garde', sans-serif; text-anchor: end" x="245.290396" y="73.03343" transform="rotate(-282 245.290396 73.03343)">Middlesex University</text>
   </g>
  </g>
 </g>
 <defs>
  <clipPath id="p5fd0d3fc3c">
   <path d="M 562.007381 320.252644 
C 562.007381 285.715316 555.204281 251.51382 541.987417 219.605489 
C 528.770554 187.697158 509.396963 158.70253 484.975384 134.280951 
C 460.553805 109.859372 431.559176 90.48578 399.650846 77.268917 
C 367.742515 64.052054 333.541019 57.248953 299.003691 57.248953 
C 264.466362 57.248953 230.264866 64.052054 198.356536 77.268917 
C 166.448205 90.48578 137.453576 109.859372 113.031998 134.280951 
C 88.610419 158.70253 69.236827 187.697158 56.019964 219.605489 
C 42.803101 251.51382 36 285.715316 36 320.252644 
C 36 354.789972 42.803101 388.991468 56.019964 420.899799 
C 69.236827 452.80813 88.610419 481.802758 113.031998 506.224337 
C 137.453576 530.645916 166.448205 550.019507 198.356536 563.236371 
C 230.264866 576.453234 264.466362 583.256335 299.003691 583.256335 
C 333.541019 583.256335 367.742515 576.453234 399.650846 563.236371 
C 431.559176 550.019507 460.553805 530.645916 484.975384 506.224337 
C 509.396963 481.802758 528.770554 452.80813 541.987417 420.899799 
C 555.204281 388.991468 562.007381 354.789972 562.007381 320.252644 
M 299.003691 320.252644 
C 299.003691 320.252644 299.003691 320.252644 299.003691 320.252644 
C 299.003691 320.252644 299.003691 320.252644 299.003691 320.252644 
C 299.003691 320.252644 299.003691 320.252644 299.003691 320.252644 
C 299.003691 320.252644 299.003691 320.252644 299.003691 320.252644 
C 299.003691 320.252644 299.003691 320.252644 299.003691 320.252644 
C 299.003691 320.252644 299.003691 320.252644 299.003691 320.252644 
C 299.003691 320.252644 299.003691 320.252644 299.003691 320.252644 
C 299.003691 320.252644 299.003691 320.252644 299.003691 320.252644 
C 299.003691 320.252644 299.003691 320.252644 299.003691 320.252644 
C 299.003691 320.252644 299.003691 320.252644 299.003691 320.252644 
C 299.003691 320.252644 299.003691 320.252644 299.003691 320.252644 
C 299.003691 320.252644 299.003691 320.252644 299.003691 320.252644 
C 299.003691 320.252644 299.003691 320.252644 299.003691 320.252644 
C 299.003691 320.252644 299.003691 320.252644 299.003691 320.252644 
C 299.003691 320.252644 299.003691 320.252644 299.003691 320.252644 
C 299.003691 320.252644 299.003691 320.252644 299.003691 320.252644 
z
"/>
  </clipPath>
 </defs>
</svg>
