<?xml version="1.0" encoding="utf-8" standalone="no"?>
<!DOCTYPE svg PUBLIC "-//W3C//DTD SVG 1.1//EN"
  "http://www.w3.org/Graphics/SVG/1.1/DTD/svg11.dtd">
<svg xmlns:xlink="http://www.w3.org/1999/xlink" width="624.492787pt" height="622.053311pt" viewBox="0 0 624.492787 622.053311" xmlns="http://www.w3.org/2000/svg" version="1.1">
 <metadata>
  <rdf:RDF xmlns:dc="http://purl.org/dc/elements/1.1/" xmlns:cc="http://creativecommons.org/ns#" xmlns:rdf="http://www.w3.org/1999/02/22-rdf-syntax-ns#">
   <cc:Work>
    <dc:type rdf:resource="http://purl.org/dc/dcmitype/StillImage"/>
    <dc:date>2024-11-16T03:40:21.920355</dc:date>
    <dc:format>image/svg+xml</dc:format>
    <dc:creator>
     <cc:Agent>
      <dc:title>Matplotlib v3.8.4, https://matplotlib.org/</dc:title>
     </cc:Agent>
    </dc:creator>
   </cc:Work>
  </rdf:RDF>
 </metadata>
 <defs>
  <style type="text/css">*{stroke-linejoin: round; stroke-linecap: butt}</style>
 </defs>
 <g id="figure_1">
  <g id="patch_1">
   <path d="M 0 622.053311 
L 624.492787 622.053311 
L 624.492787 0 
L 0 0 
z
" style="fill: #ffffff"/>
  </g>
  <g id="axes_1">
   <g id="patch_2">
    <path d="M 325.765241 75.611221 
L 328.242346 75.623607 
L 330.719202 75.660763 
L 333.195563 75.722685 
L 335.671181 75.809367 
L 338.145809 75.9208 
L 340.619198 76.056974 
L 343.091102 76.217874 
L 345.561273 76.403485 
L 348.029465 76.613788 
L 350.495431 76.848762 
L 352.958923 77.108384 
L 355.419696 77.392627 
L 357.877504 77.701463 
L 360.3321 78.034862 
L 362.78324 78.392789 
L 365.230678 78.775209 
L 367.67417 79.182084 
L 370.11347 79.613374 
L 372.548336 80.069034 
L 374.978524 80.54902 
L 377.40379 81.053283 
L 379.823893 81.581774 
L 382.23859 82.134438 
L 384.647639 82.711222 
L 387.0508 83.312067 
L 389.447833 83.936913 
L 391.838497 84.585697 
L 394.222555 85.258356 
L 396.599766 85.954821 
L 398.969894 86.675023 
L 401.332702 87.418889 
L 403.687953 88.186347 
L 406.035412 88.977318 
L 408.374844 89.791723 
L 410.706015 90.629482 
L 413.028692 91.490511 
L 415.342643 92.374722 
L 417.647636 93.282029 
L 419.943441 94.212339 
L 422.229828 95.165561 
L 424.506569 96.141599 
L 426.773436 97.140355 
L 429.030202 98.161729 
L 431.276641 99.20562 
L 433.51253 100.271922 
L 435.737644 101.36053 
L 437.951761 102.471333 
L 440.154659 103.604223 
L 442.346118 104.759084 
L 444.52592 105.935801 
L 446.693845 107.134258 
L 448.849678 108.354333 
L 450.993202 109.595905 
L 453.124204 110.85885 
L 455.24247 112.143042 
L 457.347788 113.448352 
L 459.439948 114.774649 
L 461.518741 116.121801 
L 463.583958 117.489674 
L 465.635394 118.87813 
L 467.672843 120.28703 
L 469.696101 121.716235 
L 471.704966 123.1656 
L 473.699237 124.63498 
L 475.678715 126.12423 
L 477.643202 127.6332 
L 479.592502 129.161739 
L 481.526418 130.709694 
L 483.444759 132.27691 
L 485.347332 133.863232 
L 487.233946 135.468499 
L 489.104414 137.092552 
L 490.958548 138.735228 
L 492.796163 140.396363 
L 494.617076 142.075791 
L 496.421103 143.773343 
L 498.208064 145.488851 
L 499.977782 147.222142 
L 501.730078 148.973044 
L 503.464778 150.74138 
L 505.181708 152.526975 
L 506.880697 154.32965 
L 508.561574 156.149224 
L 510.224172 157.985516 
L 511.868324 159.838341 
L 513.493866 161.707515 
L 515.100635 163.592851 
L 516.688471 165.49416 
L 518.257214 167.411252 
L 519.806709 169.343935 
L 521.3368 171.292017 
L 522.847333 173.255301 
L 524.338159 175.233593 
L 525.809127 177.226694 
L 527.260092 179.234404 
L 528.690907 181.256523 
L 530.101429 183.29285 
L 531.491518 185.343179 
L 532.861035 187.407307 
L 534.209842 189.485026 
L 535.537805 191.576129 
L 536.844791 193.680407 
L 538.130669 195.79765 
L 539.395311 197.927645 
L 540.63859 200.07018 
L 541.860381 202.22504 
L 543.060564 204.392011 
L 544.239017 206.570874 
L 545.395623 208.761413 
L 546.530266 210.963409 
L 547.642832 213.17664 
L 548.733211 215.400887 
L 549.801294 217.635925 
L 550.846973 219.881533 
L 551.870144 222.137485 
L 552.870705 224.403556 
L 553.848555 226.679518 
L 554.803597 228.965146 
L 555.735736 231.260209 
L 556.644878 233.564479 
L 557.530932 235.877725 
L 558.39381 238.199716 
L 559.233425 240.530219 
L 560.049693 242.869001 
L 560.842533 245.21583 
L 561.611866 247.570469 
L 562.357614 249.932684 
L 563.079703 252.302238 
L 563.77806 254.678894 
L 564.452617 257.062415 
L 565.103305 259.452562 
L 565.73006 261.849096 
L 566.213704 263.768801 
L 568.642476 263.167216 
L 568.153947 261.22812 
L 567.520862 258.807378 
L 566.863601 256.393088 
L 566.18223 253.985491 
L 565.476818 251.584828 
L 564.747436 249.191339 
L 563.994155 246.805264 
L 563.217051 244.426841 
L 562.416202 242.056307 
L 561.591689 239.6939 
L 560.743593 237.339857 
L 559.871999 234.994411 
L 558.976995 232.657799 
L 558.05867 230.330254 
L 557.117116 228.012008 
L 556.152427 225.703294 
L 555.164699 223.404341 
L 554.154032 221.115381 
L 553.120526 218.836642 
L 552.064284 216.568351 
L 550.985413 214.310736 
L 549.88402 212.064023 
L 548.760215 209.828435 
L 547.614111 207.604198 
L 546.445823 205.391532 
L 545.255466 203.19066 
L 544.04316 201.001801 
L 542.809027 198.825174 
L 541.55319 196.660997 
L 540.275774 194.509487 
L 538.976908 192.370858 
L 537.65672 190.245325 
L 536.315343 188.133099 
L 534.952912 186.034393 
L 533.569561 183.949415 
L 532.165431 181.878376 
L 530.740661 179.821481 
L 529.295393 177.778936 
L 527.829773 175.750945 
L 526.343946 173.737712 
L 524.838062 171.739438 
L 523.31227 169.756322 
L 521.766724 167.788563 
L 520.201578 165.836358 
L 518.616988 163.899901 
L 517.013114 161.979387 
L 515.390114 160.075008 
L 513.748153 158.186953 
L 512.087393 156.315412 
L 510.408002 154.460572 
L 508.710146 152.622619 
L 506.993996 150.801735 
L 505.259723 148.998104 
L 503.5075 147.211905 
L 501.737504 145.443318 
L 499.949911 143.692519 
L 498.144899 141.959683 
L 496.32265 140.244983 
L 494.483344 138.548591 
L 492.627168 136.870677 
L 490.754305 135.211408 
L 488.864943 133.570951 
L 486.959272 131.949469 
L 485.037481 130.347124 
L 483.099763 128.764077 
L 481.146312 127.200486 
L 479.177323 125.656507 
L 477.192993 124.132296 
L 475.19352 122.628003 
L 473.179105 121.14378 
L 471.149948 119.679775 
L 469.106253 118.236134 
L 467.048224 116.813002 
L 464.976066 115.410522 
L 462.889988 114.028832 
L 460.790197 112.668072 
L 458.676904 111.328378 
L 456.55032 110.009883 
L 454.410658 108.71272 
L 452.258131 107.437018 
L 450.092955 106.182904 
L 447.915346 104.950505 
L 445.725523 103.739943 
L 443.523703 102.551339 
L 441.310108 101.384813 
L 439.084958 100.240481 
L 436.848476 99.118457 
L 434.600886 98.018853 
L 432.342413 96.94178 
L 430.073282 95.887345 
L 427.793721 94.855654 
L 425.503956 93.846809 
L 423.204218 92.860913 
L 420.894736 91.898062 
L 418.575741 90.958355 
L 416.247465 90.041883 
L 413.910141 89.14874 
L 411.564003 88.279015 
L 409.209285 87.432794 
L 406.846222 86.610162 
L 404.475051 85.811201 
L 402.09601 85.035992 
L 399.709335 84.284611 
L 397.315267 83.557134 
L 394.914043 82.853635 
L 392.505904 82.174182 
L 390.091091 81.518843 
L 387.669846 80.887686 
L 385.242411 80.280772 
L 382.809027 79.698162 
L 380.36994 79.139915 
L 377.925392 78.606087 
L 375.475628 78.09673 
L 373.020893 77.611895 
L 370.561432 77.151632 
L 368.097492 76.715987 
L 365.629319 76.305002 
L 363.157159 75.918718 
L 360.681261 75.557176 
L 358.20187 75.22041 
L 355.719236 74.908454 
L 353.233607 74.62134 
L 350.745231 74.359096 
L 348.254356 74.121748 
L 345.761233 73.909321 
L 343.266111 73.721835 
L 340.769238 73.559309 
L 338.270865 73.42176 
L 335.771241 73.309201 
L 333.270617 73.221643 
L 330.769242 73.159096 
L 328.267367 73.121565 
L 325.765241 73.109054 
z
" clip-path="url(#pc7dcb1146f)" style="fill: #000080"/>
   </g>
   <g id="patch_3">
    <path d="M 566.213704 263.768801 
L 566.797241 266.176223 
L 567.356675 268.589361 
L 567.891951 271.007972 
L 568.403014 273.431814 
L 568.889813 275.860646 
L 569.3523 278.294225 
L 569.790429 280.732306 
L 570.204155 283.174647 
L 570.593438 285.621003 
L 570.958238 288.071129 
L 571.298519 290.524781 
L 571.614247 292.981713 
L 571.90539 295.441679 
L 572.171919 297.904434 
L 572.413808 300.369731 
L 572.631032 302.837323 
L 572.82357 305.306964 
L 572.991402 307.778407 
L 573.134512 310.251405 
L 573.252885 312.72571 
L 573.34651 315.201075 
L 573.415376 317.677253 
L 573.459478 320.153996 
L 573.478811 322.631055 
L 573.473372 325.108184 
L 573.443163 327.585135 
L 573.388186 330.06166 
L 573.308447 332.537512 
L 573.203954 335.012442 
L 573.074717 337.486203 
L 572.92075 339.958549 
L 572.742067 342.429231 
L 572.538687 344.898003 
L 572.31063 347.364618 
L 572.057918 349.828829 
L 571.780577 352.290389 
L 571.478635 354.749053 
L 571.152122 357.204575 
L 570.80107 359.656709 
L 570.425515 362.10521 
L 570.025494 364.549833 
L 569.601048 366.990334 
L 569.152217 369.426468 
L 568.679049 371.857992 
L 568.181589 374.284663 
L 567.659888 376.706238 
L 567.113997 379.122476 
L 566.543972 381.533133 
L 565.949869 383.93797 
L 565.331748 386.336746 
L 564.689671 388.72922 
L 564.023701 391.115154 
L 563.333906 393.49431 
L 562.620354 395.866449 
L 561.883116 398.231333 
L 561.122267 400.588727 
L 560.337883 402.938395 
L 559.530041 405.280102 
L 558.698823 407.613613 
L 557.844312 409.938696 
L 556.966593 412.255117 
L 556.065755 414.562646 
L 555.141886 416.861051 
L 554.19508 419.150102 
L 553.225431 421.429572 
L 552.233037 423.69923 
L 551.217996 425.958852 
L 550.180409 428.20821 
L 549.120382 430.447081 
L 548.038019 432.675239 
L 546.933429 434.892462 
L 545.806722 437.098529 
L 544.658011 439.293218 
L 543.487411 441.476311 
L 542.29504 443.647589 
L 541.081015 445.806835 
L 539.845459 447.953833 
L 538.588495 450.088368 
L 537.310249 452.210227 
L 536.010849 454.319198 
L 534.690424 456.415069 
L 533.349107 458.497632 
L 531.987032 460.566677 
L 530.604335 462.621999 
L 529.201154 464.663391 
L 527.777629 466.690649 
L 526.333904 468.703571 
L 524.870122 470.701955 
L 523.386429 472.685602 
L 521.882975 474.654313 
L 520.359909 476.607892 
L 518.817383 478.546142 
L 517.255553 480.46887 
L 515.674574 482.375884 
L 514.074603 484.266993 
L 512.455803 486.142009 
L 510.818333 488.000742 
L 509.162358 489.843009 
L 507.488043 491.668624 
L 505.795557 493.477404 
L 504.085067 495.26917 
L 502.356746 497.043741 
L 500.610766 498.800941 
L 498.847301 500.540594 
L 497.066528 502.262525 
L 495.268626 503.966562 
L 493.453773 505.652536 
L 491.622151 507.320277 
L 489.773944 508.969619 
L 487.909336 510.600396 
L 486.028513 512.212447 
L 484.131665 513.805608 
L 482.21898 515.379722 
L 480.29065 516.934631 
L 478.346867 518.470179 
L 476.387827 519.986213 
L 474.413724 521.48258 
L 472.424756 522.959133 
L 470.421123 524.415722 
L 468.403024 525.852202 
L 466.370662 527.26843 
L 464.324239 528.664264 
L 462.26396 530.039564 
L 460.190032 531.394193 
L 458.102661 532.728015 
L 456.002057 534.040897 
L 453.888429 535.332708 
L 451.761988 536.603318 
L 449.622949 537.852601 
L 447.471523 539.080431 
L 445.307927 540.286686 
L 443.132377 541.471245 
L 440.94509 542.633989 
L 438.746286 543.774803 
L 436.536183 544.893572 
L 434.315003 545.990185 
L 432.082969 547.064532 
L 429.840303 548.116504 
L 427.587229 549.145998 
L 425.323973 550.15291 
L 423.050762 551.137139 
L 420.767822 552.098588 
L 418.475382 553.037159 
L 416.17367 553.95276 
L 413.862919 554.845298 
L 411.543357 555.714684 
L 409.215218 556.560832 
L 406.878733 557.383656 
L 404.534138 558.183074 
L 402.181665 558.959007 
L 399.821552 559.711377 
L 397.454032 560.440109 
L 395.079344 561.145129 
L 392.697724 561.826368 
L 390.309411 562.483757 
L 387.914644 563.11723 
L 385.513662 563.726724 
L 383.106705 564.312178 
L 380.694014 564.873534 
L 378.27583 565.410735 
L 375.852395 565.923728 
L 373.423952 566.412462 
L 370.990742 566.876887 
L 368.55301 567.316957 
L 366.111 567.732628 
L 363.664954 568.123858 
L 361.215119 568.490609 
L 358.761739 568.832844 
L 356.30506 569.150528 
L 353.845326 569.44363 
L 351.382784 569.712121 
L 348.917681 569.955973 
L 346.450262 570.175162 
L 343.980775 570.369666 
L 341.509467 570.539466 
L 339.036584 570.684545 
L 336.562374 570.804889 
L 334.087084 570.900485 
L 331.610962 570.971323 
L 329.134255 571.017397 
L 326.657212 571.038702 
L 324.180079 571.035236 
L 321.703105 571.006999 
L 319.226537 570.953995 
L 316.750623 570.876227 
L 314.27561 570.773705 
L 311.801746 570.646439 
L 309.329279 570.49444 
L 306.858455 570.317725 
L 304.389522 570.116311 
L 301.922727 569.890218 
L 299.458315 569.639468 
L 296.996535 569.364088 
L 294.537631 569.064104 
L 292.08185 568.739546 
L 289.629437 568.390447 
L 287.180638 568.016842 
L 284.735697 567.618768 
L 282.294859 567.196265 
L 279.858368 566.749375 
L 277.426468 566.278143 
L 274.999402 565.782615 
L 272.577412 565.262843 
L 270.160741 564.718877 
L 267.74963 564.150771 
L 265.344321 563.558584 
L 262.945054 562.942373 
L 260.552069 562.302201 
L 258.165605 561.638131 
L 255.785901 560.950231 
L 253.413195 560.238568 
L 251.047724 559.503214 
L 248.689724 558.744242 
L 246.339433 557.961729 
L 243.997083 557.155753 
L 241.662911 556.326393 
L 239.337148 555.473734 
L 237.020029 554.59786 
L 236.954092 554.572548 
L 236.057009 556.908374 
L 236.123612 556.933942 
L 238.464137 557.818663 
L 240.813392 558.679935 
L 243.171142 559.517672 
L 245.537152 560.331789 
L 247.911184 561.122207 
L 250.293001 561.888845 
L 252.682366 562.631626 
L 255.079039 563.350478 
L 257.48278 564.045327 
L 259.89335 564.716104 
L 262.310506 565.362743 
L 264.734009 565.985178 
L 267.163614 566.583347 
L 269.599079 567.157191 
L 272.040161 567.706652 
L 274.486615 568.231675 
L 276.938198 568.732207 
L 279.394662 569.208199 
L 281.855764 569.659603 
L 284.321257 570.086374 
L 286.790894 570.488469 
L 289.264429 570.865848 
L 291.741613 571.218473 
L 294.2222 571.546309 
L 296.705942 571.849323 
L 299.192589 572.127486 
L 301.681893 572.380768 
L 304.173606 572.609144 
L 306.667478 572.812593 
L 309.163259 572.991093 
L 311.660701 573.144627 
L 314.159553 573.273179 
L 316.659566 573.376737 
L 319.160489 573.45529 
L 321.662073 573.50883 
L 324.164067 573.537352 
L 326.666221 573.540853 
L 329.168286 573.519333 
L 331.670009 573.472793 
L 334.171143 573.401239 
L 336.671435 573.304678 
L 339.170638 573.183119 
L 341.668499 573.036575 
L 344.164771 572.865059 
L 346.659202 572.66859 
L 349.151544 572.447187 
L 351.641547 572.200872 
L 354.128963 571.929669 
L 356.613543 571.633607 
L 359.095037 571.312714 
L 361.573199 570.967022 
L 364.04778 570.596566 
L 366.518533 570.201384 
L 368.98521 569.781514 
L 371.447565 569.336999 
L 373.905353 568.867883 
L 376.358326 568.374213 
L 378.80624 567.856038 
L 381.24885 567.313411 
L 383.685912 566.746384 
L 386.117181 566.155017 
L 388.542416 565.539366 
L 390.961372 564.899494 
L 393.37381 564.235465 
L 395.779486 563.547345 
L 398.178161 562.835203 
L 400.569595 562.099111 
L 402.953549 561.339141 
L 405.329783 560.55537 
L 407.698062 559.747877 
L 410.058147 558.916741 
L 412.409803 558.062047 
L 414.752794 557.183879 
L 417.086887 556.282326 
L 419.411848 555.357477 
L 421.727444 554.409425 
L 424.033444 553.438264 
L 426.329617 552.444093 
L 428.615734 551.42701 
L 430.891566 550.387118 
L 433.156885 549.324519 
L 435.411466 548.239321 
L 437.655082 547.131631 
L 439.887508 546.001561 
L 442.108523 544.849224 
L 444.317904 543.674734 
L 446.515429 542.47821 
L 448.70088 541.259771 
L 450.874037 540.019538 
L 453.034683 538.757637 
L 455.182602 537.474192 
L 457.31758 536.169333 
L 459.439403 534.843189 
L 461.547858 533.495894 
L 463.642735 532.127582 
L 465.723825 530.73839 
L 467.790919 529.328457 
L 469.84381 527.897924 
L 471.882294 526.446934 
L 473.906166 524.975631 
L 475.915224 523.484164 
L 477.909267 521.972682 
L 479.888096 520.441335 
L 481.851513 518.890276 
L 483.799321 517.319661 
L 485.731326 515.729647 
L 487.647334 514.120393 
L 489.547155 512.492059 
L 491.430597 510.844809 
L 493.297473 509.178807 
L 495.147596 507.49422 
L 496.980781 505.791217 
L 498.796844 504.069967 
L 500.595605 502.330642 
L 502.376882 500.573418 
L 504.140499 498.798468 
L 505.886278 497.005972 
L 507.614045 495.196108 
L 509.323627 493.369057 
L 511.014854 491.525001 
L 512.687556 489.664126 
L 514.341566 487.786617 
L 515.976718 485.892662 
L 517.59285 483.982451 
L 519.189798 482.056174 
L 520.767405 480.114024 
L 522.325511 478.156196 
L 523.863962 476.182885 
L 525.382603 474.194288 
L 526.881282 472.190604 
L 528.35985 470.172034 
L 529.818159 468.138779 
L 531.256062 466.091043 
L 532.673417 464.029031 
L 534.07008 461.952949 
L 535.445914 459.863004 
L 536.80078 457.759405 
L 538.134542 455.642364 
L 539.447068 453.51209 
L 540.738225 451.368798 
L 542.007886 449.212702 
L 543.255922 447.044017 
L 544.482209 444.862961 
L 545.686625 442.669751 
L 546.869049 440.464607 
L 548.029363 438.247749 
L 549.167451 436.019398 
L 550.283198 433.779779 
L 551.376494 431.529114 
L 552.447229 429.267629 
L 553.495296 426.99555 
L 554.52059 424.713104 
L 555.523009 422.420519 
L 556.502452 420.118025 
L 557.458822 417.805852 
L 558.392023 415.484231 
L 559.301961 413.153394 
L 560.188545 410.813574 
L 561.051688 408.465006 
L 561.891302 406.107924 
L 562.707303 403.742563 
L 563.499611 401.369161 
L 564.268145 398.987955 
L 565.012829 396.599183 
L 565.733589 394.203083 
L 566.430352 391.799896 
L 567.103049 389.389861 
L 567.751612 386.97322 
L 568.375977 384.550214 
L 568.976081 382.121086 
L 569.551864 379.686079 
L 570.103268 377.245435 
L 570.630239 374.7994 
L 571.132724 372.348217 
L 571.610672 369.892132 
L 572.064035 367.43139 
L 572.49277 364.966238 
L 572.896831 362.496922 
L 573.27618 360.023689 
L 573.630777 357.546786 
L 573.960589 355.06646 
L 574.265581 352.582961 
L 574.545723 350.096536 
L 574.800987 347.607435 
L 575.031348 345.115905 
L 575.236783 342.622196 
L 575.41727 340.126557 
L 575.572793 337.629238 
L 575.703335 335.130489 
L 575.808883 332.63056 
L 575.889428 330.1297 
L 575.94496 327.628159 
L 575.975474 325.126189 
L 575.980968 322.624038 
L 575.96144 320.121958 
L 575.916893 317.620197 
L 575.847331 315.119008 
L 575.75276 312.618639 
L 575.633192 310.119341 
L 575.488636 307.621363 
L 575.319109 305.124956 
L 575.124626 302.630369 
L 574.905208 300.137852 
L 574.660876 297.647653 
L 574.391654 295.160022 
L 574.09757 292.675207 
L 573.778653 290.193458 
L 573.434935 287.715022 
L 573.06645 285.240147 
L 572.673235 282.76908 
L 572.25533 280.302069 
L 571.812776 277.839361 
L 571.345617 275.381201 
L 570.8539 272.927835 
L 570.337675 270.479509 
L 569.796993 268.036468 
L 569.231908 265.598955 
L 568.642476 263.167216 
z
" clip-path="url(#pc7dcb1146f)" style="fill: #0028ff"/>
   </g>
   <g id="patch_4">
    <path d="M 236.954092 554.572548 
L 234.646103 553.672889 
L 232.347226 552.750195 
L 230.057691 551.80456 
L 227.777726 550.836076 
L 225.50756 549.844842 
L 223.24742 548.830956 
L 220.997532 547.79452 
L 218.75812 546.735637 
L 216.529409 545.654413 
L 214.311621 544.550956 
L 212.104979 543.425378 
L 209.909702 542.277789 
L 207.726011 541.108305 
L 205.554124 539.917044 
L 203.394258 538.704123 
L 201.246628 537.469665 
L 199.111451 536.213792 
L 196.988939 534.936631 
L 194.879304 533.638309 
L 192.782758 532.318956 
L 190.69951 530.978704 
L 188.629768 529.617687 
L 186.57374 528.23604 
L 184.531631 526.833903 
L 182.503645 525.411415 
L 180.489986 523.968719 
L 178.490853 522.505958 
L 176.506448 521.02328 
L 174.536969 519.520832 
L 172.582612 517.998765 
L 170.643574 516.457231 
L 168.720047 514.896383 
L 166.812225 513.316379 
L 164.920298 511.717376 
L 163.044456 510.099534 
L 161.184885 508.463015 
L 159.341772 506.807982 
L 157.515302 505.134601 
L 155.705656 503.443039 
L 153.913017 501.733466 
L 152.137562 500.006052 
L 150.37947 498.26097 
L 148.638916 496.498395 
L 146.916075 494.718502 
L 145.211118 492.921471 
L 143.524217 491.10748 
L 141.85554 489.276711 
L 140.205254 487.429347 
L 138.573523 485.565573 
L 136.960512 483.685576 
L 135.36638 481.789542 
L 133.791289 479.877662 
L 132.235395 477.950127 
L 130.698853 476.007129 
L 129.181818 474.048864 
L 127.684441 472.075526 
L 126.206873 470.087314 
L 124.749259 468.084426 
L 123.311748 466.067061 
L 121.894481 464.035423 
L 120.497601 461.989714 
L 119.121248 459.930139 
L 117.765559 457.856903 
L 116.43067 455.770214 
L 115.116714 453.670281 
L 113.823823 451.557314 
L 112.552126 449.431524 
L 111.30175 447.293123 
L 110.07282 445.142325 
L 108.86546 442.979346 
L 107.679789 440.804402 
L 106.515926 438.61771 
L 105.373988 436.419489 
L 104.254089 434.209958 
L 103.156341 431.98934 
L 102.080854 429.757855 
L 101.027735 427.515726 
L 99.997089 425.263179 
L 98.989021 423.000439 
L 98.003629 420.727731 
L 97.041014 418.445282 
L 96.101271 416.153322 
L 95.184494 413.852079 
L 94.290774 411.541784 
L 93.420203 409.222667 
L 92.572865 406.894961 
L 91.748847 404.558898 
L 90.948229 402.214711 
L 90.171094 399.862636 
L 89.417518 397.502907 
L 88.687576 395.13576 
L 87.981342 392.761432 
L 87.298886 390.380161 
L 86.640276 387.992185 
L 86.005579 385.597742 
L 85.394857 383.197071 
L 84.808173 380.790414 
L 84.245583 378.37801 
L 83.707146 375.960101 
L 83.192914 373.536929 
L 82.702939 371.108736 
L 82.237271 368.675764 
L 81.795955 366.238257 
L 81.379035 363.79646 
L 80.986554 361.350615 
L 80.618551 358.900967 
L 80.275062 356.447763 
L 79.956122 353.991246 
L 79.661763 351.531662 
L 79.392013 349.069258 
L 79.146901 346.60428 
L 78.926451 344.136974 
L 78.730684 341.667586 
L 78.559621 339.196365 
L 78.413277 336.723556 
L 78.291669 334.249408 
L 78.194808 331.774167 
L 78.122704 329.298082 
L 78.075364 326.821399 
L 78.052792 324.344367 
L 78.054992 321.867233 
L 78.081963 319.390244 
L 78.133701 316.91365 
L 78.210203 314.437696 
L 78.31146 311.962631 
L 78.437462 309.488703 
L 78.588196 307.016158 
L 78.763648 304.545244 
L 78.9638 302.076209 
L 79.188632 299.609298 
L 79.438122 297.144759 
L 79.712244 294.682838 
L 80.010971 292.223781 
L 80.334273 289.767834 
L 80.682118 287.315243 
L 81.054471 284.866253 
L 81.451296 282.421109 
L 81.872551 279.980056 
L 82.318195 277.543337 
L 82.788184 275.111196 
L 83.282471 272.683877 
L 83.801005 270.261621 
L 84.343736 267.844673 
L 84.910608 265.433272 
L 85.501566 263.02766 
L 86.11655 260.628078 
L 86.755499 258.234766 
L 87.418349 255.847963 
L 88.105033 253.467908 
L 88.815483 251.094838 
L 89.549627 248.728992 
L 90.307393 246.370605 
L 91.088705 244.019913 
L 91.893484 241.677152 
L 92.72165 239.342556 
L 93.57312 237.016358 
L 94.447809 234.698791 
L 95.34563 232.390087 
L 96.266492 230.090476 
L 97.210305 227.800188 
L 98.176972 225.519453 
L 99.166398 223.248499 
L 100.178484 220.987552 
L 101.213128 218.736839 
L 102.270228 216.496584 
L 103.349676 214.267013 
L 104.451366 212.048347 
L 105.575188 209.840809 
L 106.721028 207.644619 
L 107.888772 205.459998 
L 109.078304 203.287163 
L 110.289504 201.126331 
L 111.522252 198.97772 
L 112.776423 196.841543 
L 114.051894 194.718014 
L 115.348536 192.607347 
L 116.666219 190.50975 
L 118.004812 188.425436 
L 119.36418 186.354611 
L 120.744189 184.297483 
L 121.258657 183.541818 
L 119.192934 182.129859 
L 118.673269 182.893157 
L 117.279321 184.971064 
L 115.906221 187.062806 
L 114.554107 189.168175 
L 113.223114 191.286958 
L 111.913375 193.418946 
L 110.625021 195.563925 
L 109.358181 197.721679 
L 108.112981 199.891994 
L 106.889547 202.074652 
L 105.688 204.269435 
L 104.50846 206.476123 
L 103.351046 208.694496 
L 102.215873 210.924333 
L 101.103055 213.165409 
L 100.012702 215.417502 
L 98.944925 217.680385 
L 97.89983 219.953832 
L 96.877521 222.237617 
L 95.878101 224.53151 
L 94.901669 226.835283 
L 93.948323 229.148705 
L 93.018159 231.471544 
L 92.111269 233.803569 
L 91.227745 236.144546 
L 90.367674 238.494241 
L 89.531143 240.852419 
L 88.718235 243.218844 
L 87.929031 245.59328 
L 87.163611 247.975489 
L 86.422051 250.365233 
L 85.704425 252.762273 
L 85.010804 255.166369 
L 84.341259 257.577281 
L 83.695857 259.994768 
L 83.074661 262.418588 
L 82.477733 264.848499 
L 81.905135 267.284258 
L 81.356922 269.72562 
L 80.83315 272.172342 
L 80.333871 274.62418 
L 79.859134 277.080888 
L 79.408988 279.54222 
L 78.983478 282.007931 
L 78.582646 284.477773 
L 78.206531 286.951501 
L 77.855172 289.428865 
L 77.528604 291.909619 
L 77.22686 294.393515 
L 76.949969 296.880304 
L 76.69796 299.369738 
L 76.470857 301.861567 
L 76.268683 304.355542 
L 76.091458 306.851415 
L 75.939201 309.348935 
L 75.811926 311.847852 
L 75.709647 314.347918 
L 75.632373 316.848881 
L 75.580111 319.350492 
L 75.552868 321.8525 
L 75.550646 324.354656 
L 75.573446 326.856708 
L 75.621264 329.358408 
L 75.694097 331.859505 
L 75.791936 334.359748 
L 75.914773 336.858887 
L 76.062594 339.356674 
L 76.235386 341.852857 
L 76.43313 344.347188 
L 76.655807 346.839416 
L 76.903395 349.329293 
L 77.175869 351.81657 
L 77.473202 354.300998 
L 77.795363 356.782328 
L 78.142322 359.260313 
L 78.514042 361.734704 
L 78.910488 364.205254 
L 79.331618 366.671717 
L 79.777392 369.133845 
L 80.247765 371.591392 
L 80.742689 374.044112 
L 81.262115 376.491761 
L 81.805991 378.934093 
L 82.374263 381.370865 
L 82.966874 383.801832 
L 83.583764 386.226751 
L 84.224872 388.645381 
L 84.890135 391.057478 
L 85.579484 393.462803 
L 86.292852 395.861113 
L 87.030167 398.252171 
L 87.791355 400.635735 
L 88.57634 403.011569 
L 89.385045 405.379434 
L 90.217386 407.739094 
L 91.073283 410.090313 
L 91.952649 412.432855 
L 92.855395 414.766487 
L 93.781432 417.090974 
L 94.730668 419.406086 
L 95.703007 421.711589 
L 96.698352 424.007254 
L 97.716603 426.29285 
L 98.757659 428.56815 
L 99.821416 430.832926 
L 100.907767 433.086952 
L 102.016603 435.330001 
L 103.147814 437.56185 
L 104.301286 439.782275 
L 105.476905 441.991055 
L 106.674553 444.187968 
L 107.894109 446.372796 
L 109.135452 448.545318 
L 110.398458 450.705319 
L 111.683001 452.852582 
L 112.988952 454.986893 
L 114.31618 457.108037 
L 115.664552 459.215803 
L 117.033935 461.309981 
L 118.424191 463.39036 
L 119.83518 465.456733 
L 121.266763 467.508893 
L 122.718795 469.546634 
L 124.191131 471.569754 
L 125.683625 473.578049 
L 127.196127 475.571319 
L 128.728486 477.549365 
L 130.280548 479.511989 
L 131.852158 481.458994 
L 133.443159 483.390186 
L 135.053393 485.305372 
L 136.682698 487.204359 
L 138.33091 489.086959 
L 139.997866 490.952984 
L 141.683399 492.802245 
L 143.387339 494.634559 
L 145.109518 496.449742 
L 146.849761 498.247613 
L 148.607896 500.027992 
L 150.383747 501.790701 
L 152.177136 503.535564 
L 153.987883 505.262405 
L 155.815808 506.971054 
L 157.660727 508.661337 
L 159.522457 510.333088 
L 161.400811 511.986138 
L 163.295602 513.620322 
L 165.206639 515.235476 
L 167.133732 516.83144 
L 169.076688 518.408054 
L 171.035313 519.965159 
L 173.009411 521.502601 
L 174.998784 523.020225 
L 177.003233 524.517879 
L 179.022559 525.995415 
L 181.056559 527.452684 
L 183.105029 528.889541 
L 185.167766 530.305841 
L 187.244562 531.701443 
L 189.33521 533.076208 
L 191.439501 534.429998 
L 193.557224 535.762678 
L 195.688168 537.074115 
L 197.83212 538.364176 
L 199.988865 539.632735 
L 202.158187 540.879662 
L 204.33987 542.104834 
L 206.533696 543.308129 
L 208.739444 544.489426 
L 210.956895 545.648606 
L 213.185827 546.785554 
L 215.426016 547.900157 
L 217.67724 548.992302 
L 219.939272 550.061881 
L 222.211887 551.108786 
L 224.494856 552.132913 
L 226.787953 553.13416 
L 229.090948 554.112426 
L 231.40361 555.067614 
L 233.725707 555.999627 
L 236.057009 556.908374 
z
" clip-path="url(#pc7dcb1146f)" style="fill: #00d4ff"/>
   </g>
   <g id="patch_5">
    <path d="M 121.258657 183.541818 
L 122.666698 181.503776 
L 124.095049 179.479915 
L 125.543567 177.470439 
L 127.012107 175.475548 
L 128.500522 173.495442 
L 130.008664 171.53032 
L 131.53638 169.580376 
L 133.08352 167.645807 
L 134.649928 165.726806 
L 136.235447 163.823565 
L 137.839919 161.936273 
L 139.463183 160.065121 
L 141.105077 158.210294 
L 142.765437 156.371979 
L 144.444097 154.550359 
L 146.140889 152.745617 
L 147.855643 150.957932 
L 149.588188 149.187484 
L 151.338351 147.43445 
L 153.105956 145.699004 
L 154.890827 143.981321 
L 156.692785 142.281573 
L 158.51165 140.599929 
L 160.347241 138.936557 
L 162.199373 137.291624 
L 164.067862 135.665294 
L 165.95252 134.05773 
L 167.853159 132.469093 
L 169.76959 130.899541 
L 171.70162 129.349232 
L 173.649056 127.81832 
L 175.047347 126.738351 
L 173.524944 124.75262 
L 172.112529 125.843497 
L 170.145421 127.389873 
L 168.193876 128.955842 
L 166.258088 130.541248 
L 164.33825 132.145932 
L 162.434555 133.769734 
L 160.547192 135.412491 
L 158.676352 137.07404 
L 156.82222 138.754213 
L 154.984982 140.452844 
L 153.164823 142.169761 
L 151.361923 143.904795 
L 149.576463 145.65777 
L 147.808622 147.428511 
L 146.058577 149.216843 
L 144.326502 151.022585 
L 142.61257 152.845557 
L 140.916954 154.685577 
L 139.239823 156.542461 
L 137.581344 158.416023 
L 135.941683 160.306076 
L 134.321004 162.212431 
L 132.71947 164.134897 
L 131.13724 166.073282 
L 129.574473 168.027392 
L 128.031324 169.997032 
L 126.507949 171.982005 
L 125.0045 173.982112 
L 123.521126 175.997153 
L 122.057977 178.026927 
L 120.615198 180.07123 
L 119.192934 182.129859 
z
" clip-path="url(#pc7dcb1146f)" style="fill: #7dff7a"/>
   </g>
   <g id="patch_6">
    <path d="M 175.047347 126.738351 
L 177.020724 125.241027 
L 179.008975 123.763511 
L 181.011902 122.30595 
L 183.029305 120.868492 
L 185.06098 119.451279 
L 187.106726 118.054454 
L 189.166338 116.678155 
L 191.23961 115.322521 
L 193.326334 113.987687 
L 195.426301 112.673787 
L 197.539303 111.380952 
L 199.665127 110.109311 
L 201.803561 108.858992 
L 203.954391 107.630119 
L 206.117402 106.422815 
L 208.292378 105.237202 
L 210.479101 104.073397 
L 212.677352 102.931518 
L 214.886912 101.811677 
L 217.10756 100.713988 
L 219.339073 99.63856 
L 221.581229 98.5855 
L 223.833804 97.554914 
L 226.096571 96.546905 
L 228.369305 95.561574 
L 230.651779 94.599019 
L 232.943764 93.659336 
L 235.245031 92.74262 
L 237.55535 91.848962 
L 239.87449 90.978452 
L 242.202219 90.131176 
L 244.538304 89.307219 
L 246.882512 88.506664 
L 249.234608 87.729591 
L 251.594357 86.976077 
L 253.961523 86.246198 
L 256.335869 85.540027 
L 258.717158 84.857634 
L 261.105152 84.199087 
L 263.499612 83.564454 
L 265.900298 82.953796 
L 268.306971 82.367175 
L 270.71939 81.804649 
L 273.137313 81.266276 
L 275.560499 80.752108 
L 277.988705 80.262198 
L 280.421689 79.796594 
L 282.859208 79.355342 
L 285.301017 78.938487 
L 287.746872 78.546071 
L 289.076514 78.343251 
L 288.705921 75.86868 
L 287.362848 76.073549 
L 284.892287 76.469929 
L 282.425813 76.890994 
L 279.963674 77.336703 
L 277.506114 77.80701 
L 275.05338 78.301869 
L 272.605718 78.821231 
L 270.163371 79.365042 
L 267.726585 79.93325 
L 265.295602 80.525796 
L 262.870666 81.142622 
L 260.45202 81.783666 
L 258.039905 82.448865 
L 255.634562 83.138151 
L 253.236233 83.851455 
L 250.845156 84.588707 
L 248.461571 85.349832 
L 246.085717 86.134754 
L 243.71783 86.943396 
L 241.358148 87.775675 
L 239.006907 88.631509 
L 236.664341 89.510813 
L 234.330686 90.413498 
L 232.006173 91.339474 
L 229.691037 92.288648 
L 227.385508 93.260926 
L 225.089817 94.25621 
L 222.804193 95.274401 
L 220.528866 96.315396 
L 218.264062 97.379093 
L 216.010008 98.465384 
L 213.766929 99.574161 
L 211.53505 100.705313 
L 209.314594 101.858727 
L 207.105783 103.034287 
L 204.908838 104.231876 
L 202.723978 105.451375 
L 200.551423 106.692661 
L 198.391389 107.95561 
L 196.244092 109.240095 
L 194.109747 110.545989 
L 191.988567 111.873161 
L 189.880765 113.221478 
L 187.786551 114.590806 
L 185.706135 115.981006 
L 183.639725 117.391941 
L 181.587527 118.823469 
L 179.549747 120.275447 
L 177.526589 121.74773 
L 175.518254 123.240171 
L 173.524944 124.75262 
z
" clip-path="url(#pc7dcb1146f)" style="fill: #ffe600"/>
   </g>
   <g id="patch_7">
    <path d="M 289.076514 78.343251 
L 291.506147 77.991688 
L 291.160096 75.513566 
L 288.705921 75.86868 
z
" clip-path="url(#pc7dcb1146f)" style="fill: #ff4700"/>
   </g>
   <g id="patch_8">
    <path d="M 291.506147 77.991688 
L 293.96116 77.661369 
L 296.419353 77.355617 
L 298.880481 77.074461 
L 301.344297 76.81793 
L 303.810556 76.58605 
L 306.27901 76.378844 
L 308.749412 76.196332 
L 311.221516 76.038533 
L 313.695074 75.905462 
L 316.169839 75.797134 
L 318.645564 75.713558 
L 321.122001 75.654743 
L 323.598902 75.620694 
L 325.765241 75.611221 
L 325.765241 73.109054 
L 323.57702 73.118623 
L 321.0751 73.153015 
L 318.573648 73.212424 
L 316.072916 73.296844 
L 313.573153 73.406267 
L 311.074609 73.540682 
L 308.577535 73.700075 
L 306.082179 73.884431 
L 303.588791 74.09373 
L 301.097621 74.327952 
L 298.608918 74.587074 
L 296.12293 74.87107 
L 293.639907 75.17991 
L 291.160096 75.513566 
z
" clip-path="url(#pc7dcb1146f)" style="fill: #800000"/>
   </g>
   <g id="PatchCollection_1">
    <path d="M 175.047347 126.738351 
L 175.047347 126.738351 
L 177.020724 125.241027 
L 179.008975 123.763511 
L 180.957866 122.344873 
L 180.957866 122.344873 
Q 325.765241 323.325765 121.258657 183.541818 
L 121.258657 183.541818 
L 121.258657 183.541818 
L 122.666698 181.503776 
L 124.095049 179.479915 
L 125.504363 177.524272 
L 125.504363 177.524272 
Q 325.765241 323.325765 175.047347 126.738351 
z
" clip-path="url(#pc7dcb1146f)" style="fill: #ffe600; fill-opacity: 0.5; stroke: #808080; stroke-opacity: 0.5; stroke-width: 0.1"/>
    <path d="M 180.957866 122.344873 
L 180.957866 122.344873 
L 182.974881 120.906872 
L 185.006176 119.489113 
L 186.996376 118.129037 
L 186.996376 118.129037 
Q 325.765241 323.325765 236.954092 554.572548 
L 236.954092 554.572548 
L 236.954092 554.572548 
L 234.646103 553.672889 
L 232.347226 552.750195 
L 230.119118 551.830281 
L 230.119118 551.830281 
Q 325.765241 323.325765 180.957866 122.344873 
z
" clip-path="url(#pc7dcb1146f)" style="fill: #ffe600; fill-opacity: 0.5; stroke: #808080; stroke-opacity: 0.5; stroke-width: 0.1"/>
    <path d="M 186.996376 118.129037 
L 186.996376 118.129037 
L 189.036737 116.763883 
L 189.036737 116.763883 
Q 325.765241 323.325765 566.213704 263.768801 
L 566.213704 263.768801 
L 566.213704 263.768801 
L 566.792119 266.154624 
L 566.792119 266.154624 
Q 325.765241 323.325765 186.996376 118.129037 
z
" clip-path="url(#pc7dcb1146f)" style="fill: #ffe600; fill-opacity: 0.5; stroke: #808080; stroke-opacity: 0.5; stroke-width: 0.1"/>
    <path d="M 125.504363 177.524272 
L 125.504363 177.524272 
L 126.972366 175.528986 
L 128.433408 173.583845 
L 128.433408 173.583845 
Q 325.765241 323.325765 230.119118 551.830281 
L 230.119118 551.830281 
L 230.119118 551.830281 
L 227.838893 550.862411 
L 225.609066 549.889741 
L 225.609066 549.889741 
Q 325.765241 323.325765 125.504363 177.524272 
z
" clip-path="url(#pc7dcb1146f)" style="fill: #7dff7a; fill-opacity: 0.5; stroke: #808080; stroke-opacity: 0.5; stroke-width: 0.1"/>
    <path d="M 128.433408 173.583845 
L 128.433408 173.583845 
L 129.940669 171.618047 
L 131.467512 169.667419 
L 132.971962 167.783982 
L 132.971962 167.783982 
Q 325.765241 323.325765 566.792119 266.154624 
L 566.792119 266.154624 
L 566.792119 266.154624 
L 567.351769 268.567711 
L 567.887262 270.986274 
L 568.385114 273.344843 
L 568.385114 273.344843 
Q 325.765241 323.325765 128.433408 173.583845 
z
" clip-path="url(#pc7dcb1146f)" style="fill: #7dff7a; fill-opacity: 0.5; stroke: #808080; stroke-opacity: 0.5; stroke-width: 0.1"/>
    <path d="M 225.609066 549.889741 
L 225.609066 549.889741 
L 223.348471 548.876868 
L 221.098119 547.84144 
L 218.858233 546.78356 
L 216.629037 545.703335 
L 214.509912 544.650745 
L 214.509912 544.650745 
Q 325.765241 323.325765 291.506147 77.991688 
L 291.506147 77.991688 
L 291.506147 77.991688 
L 293.96116 77.661369 
L 296.419353 77.355617 
L 298.880481 77.074461 
L 301.344297 76.81793 
L 303.700002 76.595912 
L 303.700002 76.595912 
Q 325.765241 323.325765 225.609066 549.889741 
z
" clip-path="url(#pc7dcb1146f)" style="fill: #00d4ff; fill-opacity: 0.5; stroke: #808080; stroke-opacity: 0.5; stroke-width: 0.1"/>
    <path d="M 214.509912 544.650745 
L 214.509912 544.650745 
L 212.302262 543.527144 
L 210.105958 542.381523 
L 207.92122 541.213997 
L 205.82595 540.067688 
L 205.82595 540.067688 
Q 325.765241 323.325765 189.036737 116.763883 
L 189.036737 116.763883 
L 189.036737 116.763883 
L 191.109157 115.406949 
L 193.195044 114.070806 
L 195.294187 112.755589 
L 197.330442 111.507453 
L 197.330442 111.507453 
Q 325.765241 323.325765 214.509912 544.650745 
z
" clip-path="url(#pc7dcb1146f)" style="fill: #00d4ff; fill-opacity: 0.5; stroke: #808080; stroke-opacity: 0.5; stroke-width: 0.1"/>
    <path d="M 205.82595 540.067688 
L 205.82595 540.067688 
L 203.683879 538.868419 
L 203.683879 538.868419 
Q 325.765241 323.325765 132.971962 167.783982 
L 132.971962 167.783982 
L 132.971962 167.783982 
L 134.522884 165.880995 
L 134.522884 165.880995 
Q 325.765241 323.325765 205.82595 540.067688 
z
" clip-path="url(#pc7dcb1146f)" style="fill: #00d4ff; fill-opacity: 0.5; stroke: #808080; stroke-opacity: 0.5; stroke-width: 0.1"/>
    <path d="M 203.683879 538.868419 
L 203.683879 538.868419 
L 201.534592 537.636849 
L 199.397729 536.383848 
L 197.273502 535.109541 
L 195.162124 533.814056 
L 193.063806 532.497522 
L 190.978758 531.160071 
L 188.907189 529.801837 
L 186.849306 528.422956 
L 184.805314 527.023565 
L 182.775418 525.603804 
L 180.75982 524.163816 
L 178.758723 522.703744 
L 176.772327 521.223735 
L 174.80083 519.723935 
L 172.844429 518.204497 
L 170.90332 516.66557 
L 168.977698 515.10731 
L 167.067753 513.529872 
L 165.173679 511.933413 
L 163.295663 510.318094 
L 161.433895 508.684076 
L 159.588559 507.031522 
L 157.759841 505.360597 
L 155.947923 503.67147 
L 154.152987 501.964308 
L 152.78788 500.64279 
L 152.78788 500.64279 
Q 325.765241 323.325765 568.385114 273.344843 
L 568.385114 273.344843 
L 568.385114 273.344843 
L 568.872784 275.773501 
L 569.336143 278.206913 
L 569.775146 280.644838 
L 570.189747 283.08703 
L 570.579907 285.533246 
L 570.945585 287.983242 
L 571.286746 290.436771 
L 571.603354 292.89359 
L 571.895379 295.353452 
L 572.162791 297.816111 
L 572.405564 300.28132 
L 572.623672 302.748835 
L 572.817095 305.218407 
L 572.985813 307.68979 
L 573.12981 310.162736 
L 573.24907 312.636998 
L 573.343581 315.11233 
L 573.413336 317.588483 
L 573.458325 320.065209 
L 573.478546 322.542262 
L 573.473995 325.019393 
L 573.444674 327.496354 
L 573.390585 329.972899 
L 573.311733 332.448779 
L 573.208127 334.923746 
L 573.111892 336.821288 
L 573.111892 336.821288 
Q 325.765241 323.325765 203.683879 538.868419 
z
" clip-path="url(#pc7dcb1146f)" style="fill: #00d4ff; fill-opacity: 0.5; stroke: #808080; stroke-opacity: 0.5; stroke-width: 0.1"/>
    <path d="M 152.78788 500.64279 
L 152.78788 500.64279 
L 151.023388 498.904179 
L 149.27637 497.148011 
L 147.547001 495.37446 
L 145.835453 493.583705 
L 144.141899 491.775925 
L 142.466506 489.951299 
L 140.809444 488.110011 
L 139.170876 486.252245 
L 137.550968 484.378186 
L 135.949882 482.488022 
L 134.367776 480.581942 
L 132.804811 478.660136 
L 131.261141 476.722798 
L 129.736921 474.770119 
L 128.232304 472.802297 
L 126.74744 470.819526 
L 125.504363 469.127258 
L 125.504363 469.127258 
Q 325.765241 323.325765 325.765241 75.611221 
L 325.765241 75.611221 
L 325.765241 75.611221 
L 328.242346 75.623607 
L 330.719202 75.660763 
L 333.195563 75.722685 
L 335.671181 75.809367 
L 338.145809 75.9208 
L 340.619198 76.056974 
L 343.091102 76.217874 
L 345.561273 76.403485 
L 348.029465 76.613788 
L 350.495431 76.848762 
L 352.958923 77.108384 
L 355.419696 77.392627 
L 357.877504 77.701463 
L 360.3321 78.034862 
L 362.78324 78.392789 
L 365.230678 78.775209 
L 367.302187 79.118523 
L 367.302187 79.118523 
Q 325.765241 323.325765 152.78788 500.64279 
z
" clip-path="url(#pc7dcb1146f)" style="fill: #00d4ff; fill-opacity: 0.5; stroke: #808080; stroke-opacity: 0.5; stroke-width: 0.1"/>
    <path d="M 573.111892 336.821288 
L 573.111892 336.821288 
L 572.964572 339.294039 
L 572.792532 341.765192 
L 572.59579 344.234502 
L 572.382728 346.613322 
L 572.382728 346.613322 
Q 325.765241 323.325765 303.700002 76.595912 
L 303.700002 76.595912 
L 303.700002 76.595912 
L 306.168363 76.3876 
L 308.638683 76.203981 
L 311.110716 76.045074 
L 313.495529 75.915278 
L 313.495529 75.915278 
Q 325.765241 323.325765 573.111892 336.821288 
z
" clip-path="url(#pc7dcb1146f)" style="fill: #0028ff; fill-opacity: 0.5; stroke: #808080; stroke-opacity: 0.5; stroke-width: 0.1"/>
    <path d="M 572.382728 346.613322 
L 572.382728 346.613322 
L 572.139832 349.056213 
L 572.139832 349.056213 
Q 325.765241 323.325765 289.076514 78.343251 
L 289.076514 78.343251 
L 289.076514 78.343251 
L 291.506147 77.991688 
L 291.506147 77.991688 
Q 325.765241 323.325765 572.382728 346.613322 
z
" clip-path="url(#pc7dcb1146f)" style="fill: #0028ff; fill-opacity: 0.5; stroke: #808080; stroke-opacity: 0.5; stroke-width: 0.1"/>
    <path d="M 572.139832 349.056213 
L 572.139832 349.056213 
L 571.870213 351.518631 
L 571.575984 353.97823 
L 571.257174 356.434764 
L 570.913815 358.887987 
L 570.545942 361.337654 
L 570.15359 363.78352 
L 569.7368 366.22534 
L 569.295613 368.66287 
L 568.830073 371.095866 
L 568.340227 373.524085 
L 567.826123 375.947285 
L 567.287814 378.365222 
L 566.725353 380.777656 
L 566.138795 383.184344 
L 565.528201 385.585047 
L 564.89363 387.979523 
L 564.235147 390.367535 
L 563.552817 392.748842 
L 562.846709 395.123207 
L 562.116892 397.490392 
L 561.363441 399.850161 
L 560.58643 402.202278 
L 559.785937 404.546507 
L 558.962042 406.882614 
L 558.114828 409.210365 
L 557.244379 411.529528 
L 556.350782 413.839871 
L 555.434127 416.141162 
L 554.494505 418.433172 
L 553.532011 420.715671 
L 552.546739 422.988431 
L 551.830145 424.603375 
L 551.830145 424.603375 
Q 325.765241 323.325765 197.330442 111.507453 
L 197.330442 111.507453 
L 197.330442 111.507453 
L 199.455012 110.233717 
L 201.592212 108.98129 
L 203.74183 107.750298 
L 205.903649 106.540863 
L 208.077455 105.353106 
L 210.26303 104.187146 
L 212.460155 103.0431 
L 214.66861 101.921082 
L 216.888175 100.821205 
L 219.118627 99.743577 
L 221.359744 98.688308 
L 223.611301 97.655502 
L 225.873074 96.645263 
L 228.144836 95.657692 
L 230.426359 94.692888 
L 232.717417 93.750946 
L 235.017779 92.831962 
L 237.327216 91.936027 
L 239.645497 91.063231 
L 241.972389 90.213661 
L 244.307661 89.387402 
L 246.651079 88.584537 
L 249.002408 87.805145 
L 251.361413 87.049306 
L 253.727858 86.317093 
L 256.101507 85.608582 
L 258.482122 84.923842 
L 260.869466 84.262942 
L 263.263299 83.625948 
L 265.663382 83.012924 
L 268.069476 82.423931 
L 269.789133 82.018554 
L 269.789133 82.018554 
Q 325.765241 323.325765 572.139832 349.056213 
z
" clip-path="url(#pc7dcb1146f)" style="fill: #0028ff; fill-opacity: 0.5; stroke: #808080; stroke-opacity: 0.5; stroke-width: 0.1"/>
    <path d="M 551.830145 424.603375 
L 551.830145 424.603375 
L 550.806083 426.858922 
L 549.759516 429.104116 
L 548.690551 431.338733 
L 547.599293 433.562548 
L 546.485852 435.77534 
L 545.350339 437.976887 
L 544.192868 440.166969 
L 543.013554 442.345367 
L 541.812515 444.511863 
L 540.589872 446.66624 
L 539.345747 448.808284 
L 538.080264 450.937779 
L 536.944536 452.808584 
L 536.944536 452.808584 
Q 325.765241 323.325765 134.522884 165.880995 
L 134.522884 165.880995 
L 134.522884 165.880995 
L 136.106867 163.976476 
L 137.709816 162.087891 
L 139.331571 160.21543 
L 140.971969 158.35928 
L 142.630846 156.519626 
L 144.308036 154.696653 
L 146.003372 152.890542 
L 147.716683 151.101475 
L 149.4478 149.32963 
L 151.196548 147.575185 
L 152.962753 145.838315 
L 154.746238 144.119193 
L 156.336187 142.615249 
L 156.336187 142.615249 
Q 325.765241 323.325765 551.830145 424.603375 
z
" clip-path="url(#pc7dcb1146f)" style="fill: #0028ff; fill-opacity: 0.5; stroke: #808080; stroke-opacity: 0.5; stroke-width: 0.1"/>
    <path d="M 536.944536 452.808584 
L 536.944536 452.808584 
L 535.639171 454.913867 
L 534.312818 457.005992 
L 532.965611 459.084749 
L 531.597684 461.149931 
L 530.209173 463.20133 
L 528.800219 465.238741 
L 527.370961 467.261962 
L 525.921543 469.270788 
L 524.452109 471.265021 
L 522.962807 473.244459 
L 521.453785 475.208906 
L 519.925195 477.158165 
L 518.377189 479.092041 
L 516.809921 481.01034 
L 515.22355 482.912871 
L 513.618232 484.799443 
L 511.99413 486.669868 
L 510.351405 488.523959 
L 508.690221 490.36153 
L 507.010745 492.182397 
L 505.313145 493.986379 
L 503.59759 495.773295 
L 501.864252 497.542967 
L 500.113304 499.295217 
L 498.344921 501.02987 
L 496.559281 502.746753 
L 494.756561 504.445694 
L 492.936943 506.126523 
L 491.100607 507.789072 
L 489.247738 509.433175 
L 487.378521 511.058668 
L 485.493143 512.665387 
L 483.591792 514.253172 
L 481.674658 515.821865 
L 479.741934 517.371309 
L 477.793812 518.901348 
L 475.830487 520.41183 
L 473.852156 521.902603 
L 471.859017 523.373518 
L 469.851268 524.82443 
L 467.829111 526.255191 
L 465.792747 527.66566 
L 463.742381 529.055694 
L 461.678217 530.425156 
L 459.600462 531.773909 
L 457.509324 533.101816 
L 455.405011 534.408746 
L 453.287734 535.694568 
L 451.157706 536.959154 
L 449.015138 538.202376 
L 446.860245 539.424111 
L 444.693243 540.624236 
L 442.514348 541.802631 
L 440.323778 542.959179 
L 438.121753 544.093763 
L 435.908492 545.206272 
L 433.684217 546.296592 
L 431.44915 547.364615 
L 429.203514 548.410235 
L 426.947535 549.433346 
L 424.681438 550.433847 
L 422.405449 551.411637 
L 420.119797 552.366619 
L 417.824709 553.298697 
L 415.520415 554.207777 
L 413.207145 555.09377 
L 410.885132 555.956586 
L 408.554606 556.79614 
L 406.215802 557.612346 
L 403.868953 558.405124 
L 401.514293 559.174394 
L 399.152059 559.92008 
L 396.782486 560.642106 
L 394.405811 561.340401 
L 392.022273 562.014895 
L 389.632108 562.66552 
L 387.235557 563.292211 
L 384.832859 563.894905 
L 382.424255 564.473543 
L 380.009984 565.028067 
L 377.590289 565.55842 
L 375.165412 566.064551 
L 372.735594 566.546407 
L 370.30108 567.003942 
L 369.720296 567.109374 
L 369.720296 567.109374 
Q 325.765241 323.325765 125.504363 469.127258 
L 125.504363 469.127258 
L 125.504363 469.127258 
L 124.056385 467.117392 
L 122.628578 465.093148 
L 121.221085 463.054727 
L 119.834045 461.002333 
L 118.467599 458.936172 
L 117.121883 456.856449 
L 115.79703 454.763374 
L 114.493174 452.657155 
L 113.210445 450.538003 
L 111.948972 448.40613 
L 110.70888 446.261749 
L 109.490293 444.105074 
L 108.293334 441.936322 
L 107.118121 439.755709 
L 105.964774 437.563453 
L 104.833406 435.359773 
L 103.724131 433.144889 
L 102.63706 430.919024 
L 101.572302 428.6824 
L 100.529962 426.43524 
L 99.510146 424.17777 
L 98.512956 421.910214 
L 97.53849 419.6328 
L 96.586847 417.345755 
L 95.658122 415.049308 
L 94.752407 412.743689 
L 93.869793 410.429129 
L 93.010369 408.105858 
L 92.17422 405.774109 
L 91.361429 403.434115 
L 90.572079 401.086111 
L 89.806248 398.73033 
L 89.064013 396.367009 
L 88.345448 393.996385 
L 87.650624 391.618693 
L 86.979612 389.234172 
L 86.332478 386.84306 
L 85.709287 384.445596 
L 85.110102 382.042021 
L 84.534982 379.632574 
L 83.983984 377.217496 
L 83.457165 374.797029 
L 82.954576 372.371415 
L 82.476268 369.940897 
L 82.022289 367.505717 
L 81.592684 365.066119 
L 81.187496 362.622347 
L 80.806765 360.174645 
L 80.450531 357.723259 
L 80.118827 355.268433 
L 79.811688 352.810413 
L 79.529144 350.349444 
L 79.271223 347.885773 
L 79.037952 345.419646 
L 78.829353 342.951309 
L 78.645448 340.48101 
L 78.486254 338.008996 
L 78.351788 335.535513 
L 78.242063 333.060809 
L 78.15709 330.585132 
L 78.096878 328.108729 
L 78.061433 325.631847 
L 78.050757 323.154735 
L 78.064853 320.67764 
L 78.103719 318.20081 
L 78.16735 315.724492 
L 78.255742 313.248935 
L 78.368884 310.774385 
L 78.506765 308.30109 
L 78.669372 305.829298 
L 78.856689 303.359255 
L 79.068696 300.891209 
L 79.305372 298.425406 
L 79.566695 295.962094 
L 79.852637 293.501517 
L 80.16317 291.043923 
L 80.498263 288.589558 
L 80.857882 286.138666 
L 81.241992 283.691492 
L 81.650554 281.248282 
L 82.083528 278.80928 
L 82.540869 276.374729 
L 83.022533 273.944873 
L 83.528471 271.519956 
L 83.652606 270.94288 
L 83.652606 270.94288 
Q 325.765241 323.325765 536.944536 452.808584 
z
" clip-path="url(#pc7dcb1146f)" style="fill: #0028ff; fill-opacity: 0.5; stroke: #808080; stroke-opacity: 0.5; stroke-width: 0.1"/>
    <path d="M 369.720296 567.109374 
L 369.720296 567.109374 
L 367.280303 567.536728 
L 364.836158 567.939661 
L 362.388107 568.318133 
L 359.936393 568.672106 
L 357.481262 569.001545 
L 355.022959 569.306416 
L 352.561731 569.58669 
L 350.097822 569.842337 
L 347.631481 570.073333 
L 345.162953 570.279655 
L 342.692486 570.461281 
L 340.220325 570.618194 
L 337.74672 570.750378 
L 335.271916 570.857819 
L 332.796161 570.940508 
L 330.319703 570.998435 
L 327.84279 571.031596 
L 325.365669 571.039986 
L 322.888588 571.023604 
L 320.411795 570.982454 
L 317.935537 570.916537 
L 315.460062 570.825862 
L 312.985618 570.710437 
L 310.512451 570.570274 
L 308.594393 570.444475 
L 308.594393 570.444475 
Q 325.765241 323.325765 367.302187 79.118523 
L 367.302187 79.118523 
L 367.302187 79.118523 
L 369.742142 79.546096 
L 372.177699 79.998046 
L 374.608615 80.474329 
L 377.034647 80.974897 
L 379.455552 81.4997 
L 381.871088 82.048686 
L 384.281013 82.621798 
L 386.685087 83.218982 
L 389.083069 83.840175 
L 391.474719 84.485317 
L 393.859798 85.154343 
L 396.238068 85.847185 
L 398.609291 86.563776 
L 400.973229 87.304042 
L 403.329646 88.06791 
L 405.678308 88.855304 
L 408.018977 89.666145 
L 410.351422 90.500352 
L 412.675408 91.357841 
L 414.990703 92.238526 
L 417.297076 93.14232 
L 419.594295 94.069132 
L 421.882132 95.01887 
L 424.160357 95.991438 
L 425.921417 96.761788 
L 425.921417 96.761788 
Q 325.765241 323.325765 369.720296 567.109374 
z
" clip-path="url(#pc7dcb1146f)" style="fill: #0028ff; fill-opacity: 0.5; stroke: #808080; stroke-opacity: 0.5; stroke-width: 0.1"/>
    <path d="M 425.921417 96.761788 
L 425.921417 96.761788 
L 428.182011 97.774662 
L 430.432364 98.81009 
L 432.67225 99.867969 
L 434.901445 100.948194 
L 437.02057 102.000785 
L 437.02057 102.000785 
Q 325.765241 323.325765 313.495529 75.915278 
L 313.495529 75.915278 
L 313.495529 75.915278 
L 315.970206 75.804953 
L 318.445863 75.71938 
L 320.922251 75.658568 
L 323.399124 75.622522 
L 325.765241 75.611221 
L 325.765241 75.611221 
Q 325.765241 323.325765 425.921417 96.761788 
z
" clip-path="url(#pc7dcb1146f)" style="fill: #000080; fill-opacity: 0.5; stroke: #808080; stroke-opacity: 0.5; stroke-width: 0.1"/>
    <path d="M 437.02057 102.000785 
L 437.02057 102.000785 
L 439.228221 103.124386 
L 441.424525 104.270007 
L 443.609263 105.437533 
L 445.782217 106.626848 
L 447.943169 107.837832 
L 450.091903 109.070366 
L 452.228205 110.324324 
L 454.200041 111.507453 
L 454.200041 111.507453 
Q 325.765241 323.325765 269.789133 82.018554 
L 269.789133 82.018554 
L 269.789133 82.018554 
L 272.204963 81.470867 
L 274.62615 80.947366 
L 277.05245 80.448102 
L 279.483622 79.973126 
L 281.919422 79.522485 
L 284.359607 79.096224 
L 286.803931 78.694386 
L 289.076514 78.343251 
L 289.076514 78.343251 
Q 325.765241 323.325765 437.02057 102.000785 
z
" clip-path="url(#pc7dcb1146f)" style="fill: #000080; fill-opacity: 0.5; stroke: #808080; stroke-opacity: 0.5; stroke-width: 0.1"/>
    <path d="M 454.200041 111.507453 
L 454.200041 111.507453 
L 456.311767 112.80237 
L 458.410438 114.11834 
L 460.495846 115.45523 
L 462.56778 116.812907 
L 464.626034 118.191235 
L 466.670402 119.590077 
L 468.70068 121.009291 
L 470.716664 122.448738 
L 472.718153 123.908272 
L 474.527509 125.254357 
L 474.527509 125.254357 
Q 325.765241 323.325765 156.336187 142.615249 
L 156.336187 142.615249 
L 156.336187 142.615249 
L 158.151734 140.930022 
L 159.984041 139.263034 
L 161.832927 137.614453 
L 163.698206 135.984443 
L 165.579691 134.373166 
L 167.477195 132.780785 
L 169.390527 131.207458 
L 171.319497 129.653343 
L 173.263911 128.118595 
L 175.047347 126.738351 
L 175.047347 126.738351 
Q 325.765241 323.325765 454.200041 111.507453 
z
" clip-path="url(#pc7dcb1146f)" style="fill: #000080; fill-opacity: 0.5; stroke: #808080; stroke-opacity: 0.5; stroke-width: 0.1"/>
    <path d="M 474.527509 125.254357 
L 474.527509 125.254357 
L 476.500752 126.751858 
L 478.458922 128.269017 
L 480.401822 129.805681 
L 482.329259 131.361697 
L 484.24104 132.936909 
L 486.136973 134.53116 
L 488.016869 136.14429 
L 489.88054 137.776139 
L 491.7278 139.426542 
L 493.558463 141.095335 
L 495.372347 142.78235 
L 497.169271 144.48742 
L 498.949055 146.210374 
L 500.71152 147.951039 
L 502.456491 149.709241 
L 504.183793 151.484805 
L 505.893253 153.277552 
L 507.5847 155.087305 
L 509.257966 156.913881 
L 510.912882 158.757098 
L 512.549284 160.616772 
L 514.167008 162.492717 
L 515.765892 164.384745 
L 517.345775 166.292666 
L 518.906501 168.216291 
L 520.447913 170.155427 
L 521.969857 172.10988 
L 523.47218 174.079454 
L 524.954733 176.063953 
L 526.417368 178.063178 
L 527.859937 180.076929 
L 529.282297 182.105004 
L 530.684305 184.147202 
L 532.065821 186.203317 
L 533.426708 188.273145 
L 534.766829 190.356477 
L 536.08605 192.453107 
L 537.384238 194.562823 
L 538.217369 195.942139 
L 538.217369 195.942139 
Q 325.765241 323.325765 83.652606 270.94288 
L 83.652606 270.94288 
L 83.652606 270.94288 
L 84.188531 268.524413 
L 84.748614 266.111427 
L 85.332799 263.704161 
L 85.941027 261.302858 
L 86.573237 258.907757 
L 87.229365 256.519098 
L 87.909348 254.137119 
L 88.613115 251.762059 
L 89.340598 249.394155 
L 90.091723 247.033645 
L 90.866415 244.680764 
L 91.664597 242.335747 
L 92.486188 239.998829 
L 93.331108 237.670243 
L 94.19927 235.350224 
L 95.090589 233.039001 
L 96.004975 230.736807 
L 96.942337 228.443872 
L 97.902581 226.160426 
L 98.885612 223.886695 
L 99.89133 221.622909 
L 100.919635 219.369292 
L 101.970425 217.126071 
L 103.043593 214.89347 
L 104.139034 212.671713 
L 105.256638 210.46102 
L 106.396292 208.261614 
L 107.557882 206.073714 
L 108.741293 203.89754 
L 109.946407 201.733308 
L 111.173102 199.581235 
L 112.421256 197.441536 
L 113.690745 195.314426 
L 114.98144 193.200117 
L 116.293214 191.098821 
L 117.625935 189.010747 
L 118.97947 186.936104 
L 120.353683 184.8751 
L 121.258657 183.541818 
L 121.258657 183.541818 
Q 325.765241 323.325765 474.527509 125.254357 
z
" clip-path="url(#pc7dcb1146f)" style="fill: #000080; fill-opacity: 0.5; stroke: #808080; stroke-opacity: 0.5; stroke-width: 0.1"/>
    <path d="M 538.217369 195.942139 
L 538.217369 195.942139 
L 539.480562 198.072994 
L 540.722383 200.216374 
L 541.942709 202.372065 
L 543.141417 204.539851 
L 544.318387 206.719516 
L 545.473503 208.910841 
L 546.606648 211.113608 
L 547.717709 213.327596 
L 548.806575 215.552583 
L 549.873136 217.788348 
L 550.917288 220.034666 
L 551.938924 222.291314 
L 552.937943 224.558065 
L 553.914245 226.834692 
L 554.867732 229.120969 
L 555.79831 231.416666 
L 556.705884 233.721553 
L 557.590364 236.035401 
L 558.451662 238.357979 
L 559.289691 240.689052 
L 560.104369 243.02839 
L 560.895612 245.375757 
L 561.663343 247.730919 
L 562.407484 250.09364 
L 563.127961 252.463685 
L 563.824702 254.840815 
L 564.497637 257.224795 
L 565.146699 259.615384 
L 565.771823 262.012344 
L 566.213704 263.768801 
L 566.213704 263.768801 
Q 325.765241 323.325765 308.594393 570.444475 
L 308.594393 570.444475 
L 308.594393 570.444475 
L 306.124106 570.260413 
L 303.655782 570.051659 
L 301.18967 569.818232 
L 298.726015 569.560155 
L 296.265064 569.277456 
L 293.807063 568.970162 
L 291.352258 568.638303 
L 288.900894 568.281914 
L 286.453217 567.901029 
L 284.009471 567.495686 
L 281.5699 567.065927 
L 279.134749 566.611794 
L 276.70426 566.133333 
L 274.278678 565.630591 
L 271.858245 565.103619 
L 269.443202 564.552469 
L 267.033791 563.977197 
L 264.630253 563.377859 
L 262.232829 562.754517 
L 259.841758 562.107232 
L 257.457279 561.43607 
L 255.079631 560.741096 
L 252.709052 560.022381 
L 250.345778 559.279996 
L 247.990046 558.514017 
L 245.642091 557.724518 
L 243.302149 556.91158 
L 240.970453 556.075284 
L 238.647236 555.215713 
L 236.954092 554.572548 
L 236.954092 554.572548 
Q 325.765241 323.325765 538.217369 195.942139 
z
" clip-path="url(#pc7dcb1146f)" style="fill: #000080; fill-opacity: 0.5; stroke: #808080; stroke-opacity: 0.5; stroke-width: 0.1"/>
   </g>
   <g id="patch_9">
    <path d="M 325.765241 75.611221 
L 328.242346 75.623607 
L 330.719202 75.660763 
L 333.195563 75.722685 
L 335.671181 75.809367 
L 338.145809 75.9208 
L 340.619198 76.056974 
L 343.091102 76.217874 
L 345.561273 76.403485 
L 348.029465 76.613788 
L 350.495431 76.848762 
L 352.958923 77.108384 
L 355.419696 77.392627 
L 357.877504 77.701463 
L 360.3321 78.034862 
L 362.78324 78.392789 
L 365.230678 78.775209 
L 367.67417 79.182084 
L 370.11347 79.613374 
L 372.548336 80.069034 
L 374.978524 80.54902 
L 377.40379 81.053283 
L 379.823893 81.581774 
L 382.23859 82.134438 
L 384.647639 82.711222 
L 387.0508 83.312067 
L 389.447833 83.936913 
L 391.838497 84.585697 
L 394.222555 85.258356 
L 396.599766 85.954821 
L 398.969894 86.675023 
L 401.332702 87.418889 
L 403.687953 88.186347 
L 406.035412 88.977318 
L 408.374844 89.791723 
L 410.706015 90.629482 
L 413.028692 91.490511 
L 415.342643 92.374722 
L 417.647636 93.282029 
L 419.943441 94.212339 
L 422.229828 95.165561 
L 424.506569 96.141599 
L 426.773436 97.140355 
L 429.030202 98.161729 
L 431.276641 99.20562 
L 433.51253 100.271922 
L 435.737644 101.36053 
L 437.951761 102.471333 
L 440.154659 103.604223 
L 442.346118 104.759084 
L 444.52592 105.935801 
L 446.693845 107.134258 
L 448.849678 108.354333 
L 450.993202 109.595905 
L 453.124204 110.85885 
L 455.24247 112.143042 
L 457.347788 113.448352 
L 459.439948 114.774649 
L 461.518741 116.121801 
L 463.583958 117.489674 
L 465.635394 118.87813 
L 467.672843 120.28703 
L 469.696101 121.716235 
L 471.704966 123.1656 
L 473.699237 124.63498 
L 475.678715 126.12423 
L 477.643202 127.6332 
L 479.592502 129.161739 
L 481.526418 130.709694 
L 483.444759 132.27691 
L 485.347332 133.863232 
L 487.233946 135.468499 
L 489.104414 137.092552 
L 490.958548 138.735228 
L 492.796163 140.396363 
L 494.617076 142.075791 
L 496.421103 143.773343 
L 498.208064 145.488851 
L 499.977782 147.222142 
L 501.730078 148.973044 
L 503.464778 150.74138 
L 505.181708 152.526975 
L 506.880697 154.32965 
L 508.561574 156.149224 
L 510.224172 157.985516 
L 511.868324 159.838341 
L 513.493866 161.707515 
L 515.100635 163.592851 
L 516.688471 165.49416 
L 518.257214 167.411252 
L 519.806709 169.343935 
L 521.3368 171.292017 
L 522.847333 173.255301 
L 524.338159 175.233593 
L 525.809127 177.226694 
L 527.260092 179.234404 
L 528.690907 181.256523 
L 530.101429 183.29285 
L 531.491518 185.343179 
L 532.861035 187.407307 
L 534.209842 189.485026 
L 535.537805 191.576129 
L 536.844791 193.680407 
L 538.130669 195.79765 
L 539.395311 197.927645 
L 540.63859 200.07018 
L 541.860381 202.22504 
L 543.060564 204.392011 
L 544.239017 206.570874 
L 545.395623 208.761413 
L 546.530266 210.963409 
L 547.642832 213.17664 
L 548.733211 215.400887 
L 549.801294 217.635925 
L 550.846973 219.881533 
L 551.870144 222.137485 
L 552.870705 224.403556 
L 553.848555 226.679518 
L 554.803597 228.965146 
L 555.735736 231.260209 
L 556.644878 233.564479 
L 557.530932 235.877725 
L 558.39381 238.199716 
L 559.233425 240.530219 
L 560.049693 242.869001 
L 560.842533 245.21583 
L 561.611866 247.570469 
L 562.357614 249.932684 
L 563.079703 252.302238 
L 563.77806 254.678894 
L 564.452617 257.062415 
L 565.103305 259.452562 
L 565.73006 261.849096 
L 566.213704 263.768801 
L 568.642476 263.167216 
L 568.153947 261.22812 
L 567.520862 258.807378 
L 566.863601 256.393088 
L 566.18223 253.985491 
L 565.476818 251.584828 
L 564.747436 249.191339 
L 563.994155 246.805264 
L 563.217051 244.426841 
L 562.416202 242.056307 
L 561.591689 239.6939 
L 560.743593 237.339857 
L 559.871999 234.994411 
L 558.976995 232.657799 
L 558.05867 230.330254 
L 557.117116 228.012008 
L 556.152427 225.703294 
L 555.164699 223.404341 
L 554.154032 221.115381 
L 553.120526 218.836642 
L 552.064284 216.568351 
L 550.985413 214.310736 
L 549.88402 212.064023 
L 548.760215 209.828435 
L 547.614111 207.604198 
L 546.445823 205.391532 
L 545.255466 203.19066 
L 544.04316 201.001801 
L 542.809027 198.825174 
L 541.55319 196.660997 
L 540.275774 194.509487 
L 538.976908 192.370858 
L 537.65672 190.245325 
L 536.315343 188.133099 
L 534.952912 186.034393 
L 533.569561 183.949415 
L 532.165431 181.878376 
L 530.740661 179.821481 
L 529.295393 177.778936 
L 527.829773 175.750945 
L 526.343946 173.737712 
L 524.838062 171.739438 
L 523.31227 169.756322 
L 521.766724 167.788563 
L 520.201578 165.836358 
L 518.616988 163.899901 
L 517.013114 161.979387 
L 515.390114 160.075008 
L 513.748153 158.186953 
L 512.087393 156.315412 
L 510.408002 154.460572 
L 508.710146 152.622619 
L 506.993996 150.801735 
L 505.259723 148.998104 
L 503.5075 147.211905 
L 501.737504 145.443318 
L 499.949911 143.692519 
L 498.144899 141.959683 
L 496.32265 140.244983 
L 494.483344 138.548591 
L 492.627168 136.870677 
L 490.754305 135.211408 
L 488.864943 133.570951 
L 486.959272 131.949469 
L 485.037481 130.347124 
L 483.099763 128.764077 
L 481.146312 127.200486 
L 479.177323 125.656507 
L 477.192993 124.132296 
L 475.19352 122.628003 
L 473.179105 121.14378 
L 471.149948 119.679775 
L 469.106253 118.236134 
L 467.048224 116.813002 
L 464.976066 115.410522 
L 462.889988 114.028832 
L 460.790197 112.668072 
L 458.676904 111.328378 
L 456.55032 110.009883 
L 454.410658 108.71272 
L 452.258131 107.437018 
L 450.092955 106.182904 
L 447.915346 104.950505 
L 445.725523 103.739943 
L 443.523703 102.551339 
L 441.310108 101.384813 
L 439.084958 100.240481 
L 436.848476 99.118457 
L 434.600886 98.018853 
L 432.342413 96.94178 
L 430.073282 95.887345 
L 427.793721 94.855654 
L 425.503956 93.846809 
L 423.204218 92.860913 
L 420.894736 91.898062 
L 418.575741 90.958355 
L 416.247465 90.041883 
L 413.910141 89.14874 
L 411.564003 88.279015 
L 409.209285 87.432794 
L 406.846222 86.610162 
L 404.475051 85.811201 
L 402.09601 85.035992 
L 399.709335 84.284611 
L 397.315267 83.557134 
L 394.914043 82.853635 
L 392.505904 82.174182 
L 390.091091 81.518843 
L 387.669846 80.887686 
L 385.242411 80.280772 
L 382.809027 79.698162 
L 380.36994 79.139915 
L 377.925392 78.606087 
L 375.475628 78.09673 
L 373.020893 77.611895 
L 370.561432 77.151632 
L 368.097492 76.715987 
L 365.629319 76.305002 
L 363.157159 75.918718 
L 360.681261 75.557176 
L 358.20187 75.22041 
L 355.719236 74.908454 
L 353.233607 74.62134 
L 350.745231 74.359096 
L 348.254356 74.121748 
L 345.761233 73.909321 
L 343.266111 73.721835 
L 340.769238 73.559309 
L 338.270865 73.42176 
L 335.771241 73.309201 
L 333.270617 73.221643 
L 330.769242 73.159096 
L 328.267367 73.121565 
L 325.765241 73.109054 
L 325.765241 75.611221 
z
" clip-path="url(#pc7dcb1146f)" style="fill: none; stroke: #000000; stroke-width: 0.5; stroke-linejoin: miter"/>
   </g>
   <g id="patch_10">
    <path d="M 566.213704 263.768801 
L 566.797241 266.176223 
L 567.356675 268.589361 
L 567.891951 271.007972 
L 568.403014 273.431814 
L 568.889813 275.860646 
L 569.3523 278.294225 
L 569.790429 280.732306 
L 570.204155 283.174647 
L 570.593438 285.621003 
L 570.958238 288.071129 
L 571.298519 290.524781 
L 571.614247 292.981713 
L 571.90539 295.441679 
L 572.171919 297.904434 
L 572.413808 300.369731 
L 572.631032 302.837323 
L 572.82357 305.306964 
L 572.991402 307.778407 
L 573.134512 310.251405 
L 573.252885 312.72571 
L 573.34651 315.201075 
L 573.415376 317.677253 
L 573.459478 320.153996 
L 573.478811 322.631055 
L 573.473372 325.108184 
L 573.443163 327.585135 
L 573.388186 330.06166 
L 573.308447 332.537512 
L 573.203954 335.012442 
L 573.074717 337.486203 
L 572.92075 339.958549 
L 572.742067 342.429231 
L 572.538687 344.898003 
L 572.31063 347.364618 
L 572.057918 349.828829 
L 571.780577 352.290389 
L 571.478635 354.749053 
L 571.152122 357.204575 
L 570.80107 359.656709 
L 570.425515 362.10521 
L 570.025494 364.549833 
L 569.601048 366.990334 
L 569.152217 369.426468 
L 568.679049 371.857992 
L 568.181589 374.284663 
L 567.659888 376.706238 
L 567.113997 379.122476 
L 566.543972 381.533133 
L 565.949869 383.93797 
L 565.331748 386.336746 
L 564.689671 388.72922 
L 564.023701 391.115154 
L 563.333906 393.49431 
L 562.620354 395.866449 
L 561.883116 398.231333 
L 561.122267 400.588727 
L 560.337883 402.938395 
L 559.530041 405.280102 
L 558.698823 407.613613 
L 557.844312 409.938696 
L 556.966593 412.255117 
L 556.065755 414.562646 
L 555.141886 416.861051 
L 554.19508 419.150102 
L 553.225431 421.429572 
L 552.233037 423.69923 
L 551.217996 425.958852 
L 550.180409 428.20821 
L 549.120382 430.447081 
L 548.038019 432.675239 
L 546.933429 434.892462 
L 545.806722 437.098529 
L 544.658011 439.293218 
L 543.487411 441.476311 
L 542.29504 443.647589 
L 541.081015 445.806835 
L 539.845459 447.953833 
L 538.588495 450.088368 
L 537.310249 452.210227 
L 536.010849 454.319198 
L 534.690424 456.415069 
L 533.349107 458.497632 
L 531.987032 460.566677 
L 530.604335 462.621999 
L 529.201154 464.663391 
L 527.777629 466.690649 
L 526.333904 468.703571 
L 524.870122 470.701955 
L 523.386429 472.685602 
L 521.882975 474.654313 
L 520.359909 476.607892 
L 518.817383 478.546142 
L 517.255553 480.46887 
L 515.674574 482.375884 
L 514.074603 484.266993 
L 512.455803 486.142009 
L 510.818333 488.000742 
L 509.162358 489.843009 
L 507.488043 491.668624 
L 505.795557 493.477404 
L 504.085067 495.26917 
L 502.356746 497.043741 
L 500.610766 498.800941 
L 498.847301 500.540594 
L 497.066528 502.262525 
L 495.268626 503.966562 
L 493.453773 505.652536 
L 491.622151 507.320277 
L 489.773944 508.969619 
L 487.909336 510.600396 
L 486.028513 512.212447 
L 484.131665 513.805608 
L 482.21898 515.379722 
L 480.29065 516.934631 
L 478.346867 518.470179 
L 476.387827 519.986213 
L 474.413724 521.48258 
L 472.424756 522.959133 
L 470.421123 524.415722 
L 468.403024 525.852202 
L 466.370662 527.26843 
L 464.324239 528.664264 
L 462.26396 530.039564 
L 460.190032 531.394193 
L 458.102661 532.728015 
L 456.002057 534.040897 
L 453.888429 535.332708 
L 451.761988 536.603318 
L 449.622949 537.852601 
L 447.471523 539.080431 
L 445.307927 540.286686 
L 443.132377 541.471245 
L 440.94509 542.633989 
L 438.746286 543.774803 
L 436.536183 544.893572 
L 434.315003 545.990185 
L 432.082969 547.064532 
L 429.840303 548.116504 
L 427.587229 549.145998 
L 425.323973 550.15291 
L 423.050762 551.137139 
L 420.767822 552.098588 
L 418.475382 553.037159 
L 416.17367 553.95276 
L 413.862919 554.845298 
L 411.543357 555.714684 
L 409.215218 556.560832 
L 406.878733 557.383656 
L 404.534138 558.183074 
L 402.181665 558.959007 
L 399.821552 559.711377 
L 397.454032 560.440109 
L 395.079344 561.145129 
L 392.697724 561.826368 
L 390.309411 562.483757 
L 387.914644 563.11723 
L 385.513662 563.726724 
L 383.106705 564.312178 
L 380.694014 564.873534 
L 378.27583 565.410735 
L 375.852395 565.923728 
L 373.423952 566.412462 
L 370.990742 566.876887 
L 368.55301 567.316957 
L 366.111 567.732628 
L 363.664954 568.123858 
L 361.215119 568.490609 
L 358.761739 568.832844 
L 356.30506 569.150528 
L 353.845326 569.44363 
L 351.382784 569.712121 
L 348.917681 569.955973 
L 346.450262 570.175162 
L 343.980775 570.369666 
L 341.509467 570.539466 
L 339.036584 570.684545 
L 336.562374 570.804889 
L 334.087084 570.900485 
L 331.610962 570.971323 
L 329.134255 571.017397 
L 326.657212 571.038702 
L 324.180079 571.035236 
L 321.703105 571.006999 
L 319.226537 570.953995 
L 316.750623 570.876227 
L 314.27561 570.773705 
L 311.801746 570.646439 
L 309.329279 570.49444 
L 306.858455 570.317725 
L 304.389522 570.116311 
L 301.922727 569.890218 
L 299.458315 569.639468 
L 296.996535 569.364088 
L 294.537631 569.064104 
L 292.08185 568.739546 
L 289.629437 568.390447 
L 287.180638 568.016842 
L 284.735697 567.618768 
L 282.294859 567.196265 
L 279.858368 566.749375 
L 277.426468 566.278143 
L 274.999402 565.782615 
L 272.577412 565.262843 
L 270.160741 564.718877 
L 267.74963 564.150771 
L 265.344321 563.558584 
L 262.945054 562.942373 
L 260.552069 562.302201 
L 258.165605 561.638131 
L 255.785901 560.950231 
L 253.413195 560.238568 
L 251.047724 559.503214 
L 248.689724 558.744242 
L 246.339433 557.961729 
L 243.997083 557.155753 
L 241.662911 556.326393 
L 239.337148 555.473734 
L 237.020029 554.59786 
L 236.954092 554.572548 
L 236.057009 556.908374 
L 236.123612 556.933942 
L 238.464137 557.818663 
L 240.813392 558.679935 
L 243.171142 559.517672 
L 245.537152 560.331789 
L 247.911184 561.122207 
L 250.293001 561.888845 
L 252.682366 562.631626 
L 255.079039 563.350478 
L 257.48278 564.045327 
L 259.89335 564.716104 
L 262.310506 565.362743 
L 264.734009 565.985178 
L 267.163614 566.583347 
L 269.599079 567.157191 
L 272.040161 567.706652 
L 274.486615 568.231675 
L 276.938198 568.732207 
L 279.394662 569.208199 
L 281.855764 569.659603 
L 284.321257 570.086374 
L 286.790894 570.488469 
L 289.264429 570.865848 
L 291.741613 571.218473 
L 294.2222 571.546309 
L 296.705942 571.849323 
L 299.192589 572.127486 
L 301.681893 572.380768 
L 304.173606 572.609144 
L 306.667478 572.812593 
L 309.163259 572.991093 
L 311.660701 573.144627 
L 314.159553 573.273179 
L 316.659566 573.376737 
L 319.160489 573.45529 
L 321.662073 573.50883 
L 324.164067 573.537352 
L 326.666221 573.540853 
L 329.168286 573.519333 
L 331.670009 573.472793 
L 334.171143 573.401239 
L 336.671435 573.304678 
L 339.170638 573.183119 
L 341.668499 573.036575 
L 344.164771 572.865059 
L 346.659202 572.66859 
L 349.151544 572.447187 
L 351.641547 572.200872 
L 354.128963 571.929669 
L 356.613543 571.633607 
L 359.095037 571.312714 
L 361.573199 570.967022 
L 364.04778 570.596566 
L 366.518533 570.201384 
L 368.98521 569.781514 
L 371.447565 569.336999 
L 373.905353 568.867883 
L 376.358326 568.374213 
L 378.80624 567.856038 
L 381.24885 567.313411 
L 383.685912 566.746384 
L 386.117181 566.155017 
L 388.542416 565.539366 
L 390.961372 564.899494 
L 393.37381 564.235465 
L 395.779486 563.547345 
L 398.178161 562.835203 
L 400.569595 562.099111 
L 402.953549 561.339141 
L 405.329783 560.55537 
L 407.698062 559.747877 
L 410.058147 558.916741 
L 412.409803 558.062047 
L 414.752794 557.183879 
L 417.086887 556.282326 
L 419.411848 555.357477 
L 421.727444 554.409425 
L 424.033444 553.438264 
L 426.329617 552.444093 
L 428.615734 551.42701 
L 430.891566 550.387118 
L 433.156885 549.324519 
L 435.411466 548.239321 
L 437.655082 547.131631 
L 439.887508 546.001561 
L 442.108523 544.849224 
L 444.317904 543.674734 
L 446.515429 542.47821 
L 448.70088 541.259771 
L 450.874037 540.019538 
L 453.034683 538.757637 
L 455.182602 537.474192 
L 457.31758 536.169333 
L 459.439403 534.843189 
L 461.547858 533.495894 
L 463.642735 532.127582 
L 465.723825 530.73839 
L 467.790919 529.328457 
L 469.84381 527.897924 
L 471.882294 526.446934 
L 473.906166 524.975631 
L 475.915224 523.484164 
L 477.909267 521.972682 
L 479.888096 520.441335 
L 481.851513 518.890276 
L 483.799321 517.319661 
L 485.731326 515.729647 
L 487.647334 514.120393 
L 489.547155 512.492059 
L 491.430597 510.844809 
L 493.297473 509.178807 
L 495.147596 507.49422 
L 496.980781 505.791217 
L 498.796844 504.069967 
L 500.595605 502.330642 
L 502.376882 500.573418 
L 504.140499 498.798468 
L 505.886278 497.005972 
L 507.614045 495.196108 
L 509.323627 493.369057 
L 511.014854 491.525001 
L 512.687556 489.664126 
L 514.341566 487.786617 
L 515.976718 485.892662 
L 517.59285 483.982451 
L 519.189798 482.056174 
L 520.767405 480.114024 
L 522.325511 478.156196 
L 523.863962 476.182885 
L 525.382603 474.194288 
L 526.881282 472.190604 
L 528.35985 470.172034 
L 529.818159 468.138779 
L 531.256062 466.091043 
L 532.673417 464.029031 
L 534.07008 461.952949 
L 535.445914 459.863004 
L 536.80078 457.759405 
L 538.134542 455.642364 
L 539.447068 453.51209 
L 540.738225 451.368798 
L 542.007886 449.212702 
L 543.255922 447.044017 
L 544.482209 444.862961 
L 545.686625 442.669751 
L 546.869049 440.464607 
L 548.029363 438.247749 
L 549.167451 436.019398 
L 550.283198 433.779779 
L 551.376494 431.529114 
L 552.447229 429.267629 
L 553.495296 426.99555 
L 554.52059 424.713104 
L 555.523009 422.420519 
L 556.502452 420.118025 
L 557.458822 417.805852 
L 558.392023 415.484231 
L 559.301961 413.153394 
L 560.188545 410.813574 
L 561.051688 408.465006 
L 561.891302 406.107924 
L 562.707303 403.742563 
L 563.499611 401.369161 
L 564.268145 398.987955 
L 565.012829 396.599183 
L 565.733589 394.203083 
L 566.430352 391.799896 
L 567.103049 389.389861 
L 567.751612 386.97322 
L 568.375977 384.550214 
L 568.976081 382.121086 
L 569.551864 379.686079 
L 570.103268 377.245435 
L 570.630239 374.7994 
L 571.132724 372.348217 
L 571.610672 369.892132 
L 572.064035 367.43139 
L 572.49277 364.966238 
L 572.896831 362.496922 
L 573.27618 360.023689 
L 573.630777 357.546786 
L 573.960589 355.06646 
L 574.265581 352.582961 
L 574.545723 350.096536 
L 574.800987 347.607435 
L 575.031348 345.115905 
L 575.236783 342.622196 
L 575.41727 340.126557 
L 575.572793 337.629238 
L 575.703335 335.130489 
L 575.808883 332.63056 
L 575.889428 330.1297 
L 575.94496 327.628159 
L 575.975474 325.126189 
L 575.980968 322.624038 
L 575.96144 320.121958 
L 575.916893 317.620197 
L 575.847331 315.119008 
L 575.75276 312.618639 
L 575.633192 310.119341 
L 575.488636 307.621363 
L 575.319109 305.124956 
L 575.124626 302.630369 
L 574.905208 300.137852 
L 574.660876 297.647653 
L 574.391654 295.160022 
L 574.09757 292.675207 
L 573.778653 290.193458 
L 573.434935 287.715022 
L 573.06645 285.240147 
L 572.673235 282.76908 
L 572.25533 280.302069 
L 571.812776 277.839361 
L 571.345617 275.381201 
L 570.8539 272.927835 
L 570.337675 270.479509 
L 569.796993 268.036468 
L 569.231908 265.598955 
L 568.642476 263.167216 
L 566.213704 263.768801 
z
" clip-path="url(#pc7dcb1146f)" style="fill: none; stroke: #000000; stroke-width: 0.5; stroke-linejoin: miter"/>
   </g>
   <g id="patch_11">
    <path d="M 236.954092 554.572548 
L 234.646103 553.672889 
L 232.347226 552.750195 
L 230.057691 551.80456 
L 227.777726 550.836076 
L 225.50756 549.844842 
L 223.24742 548.830956 
L 220.997532 547.79452 
L 218.75812 546.735637 
L 216.529409 545.654413 
L 214.311621 544.550956 
L 212.104979 543.425378 
L 209.909702 542.277789 
L 207.726011 541.108305 
L 205.554124 539.917044 
L 203.394258 538.704123 
L 201.246628 537.469665 
L 199.111451 536.213792 
L 196.988939 534.936631 
L 194.879304 533.638309 
L 192.782758 532.318956 
L 190.69951 530.978704 
L 188.629768 529.617687 
L 186.57374 528.23604 
L 184.531631 526.833903 
L 182.503645 525.411415 
L 180.489986 523.968719 
L 178.490853 522.505958 
L 176.506448 521.02328 
L 174.536969 519.520832 
L 172.582612 517.998765 
L 170.643574 516.457231 
L 168.720047 514.896383 
L 166.812225 513.316379 
L 164.920298 511.717376 
L 163.044456 510.099534 
L 161.184885 508.463015 
L 159.341772 506.807982 
L 157.515302 505.134601 
L 155.705656 503.443039 
L 153.913017 501.733466 
L 152.137562 500.006052 
L 150.37947 498.26097 
L 148.638916 496.498395 
L 146.916075 494.718502 
L 145.211118 492.921471 
L 143.524217 491.10748 
L 141.85554 489.276711 
L 140.205254 487.429347 
L 138.573523 485.565573 
L 136.960512 483.685576 
L 135.36638 481.789542 
L 133.791289 479.877662 
L 132.235395 477.950127 
L 130.698853 476.007129 
L 129.181818 474.048864 
L 127.684441 472.075526 
L 126.206873 470.087314 
L 124.749259 468.084426 
L 123.311748 466.067061 
L 121.894481 464.035423 
L 120.497601 461.989714 
L 119.121248 459.930139 
L 117.765559 457.856903 
L 116.43067 455.770214 
L 115.116714 453.670281 
L 113.823823 451.557314 
L 112.552126 449.431524 
L 111.30175 447.293123 
L 110.07282 445.142325 
L 108.86546 442.979346 
L 107.679789 440.804402 
L 106.515926 438.61771 
L 105.373988 436.419489 
L 104.254089 434.209958 
L 103.156341 431.98934 
L 102.080854 429.757855 
L 101.027735 427.515726 
L 99.997089 425.263179 
L 98.989021 423.000439 
L 98.003629 420.727731 
L 97.041014 418.445282 
L 96.101271 416.153322 
L 95.184494 413.852079 
L 94.290774 411.541784 
L 93.420203 409.222667 
L 92.572865 406.894961 
L 91.748847 404.558898 
L 90.948229 402.214711 
L 90.171094 399.862636 
L 89.417518 397.502907 
L 88.687576 395.13576 
L 87.981342 392.761432 
L 87.298886 390.380161 
L 86.640276 387.992185 
L 86.005579 385.597742 
L 85.394857 383.197071 
L 84.808173 380.790414 
L 84.245583 378.37801 
L 83.707146 375.960101 
L 83.192914 373.536929 
L 82.702939 371.108736 
L 82.237271 368.675764 
L 81.795955 366.238257 
L 81.379035 363.79646 
L 80.986554 361.350615 
L 80.618551 358.900967 
L 80.275062 356.447763 
L 79.956122 353.991246 
L 79.661763 351.531662 
L 79.392013 349.069258 
L 79.146901 346.60428 
L 78.926451 344.136974 
L 78.730684 341.667586 
L 78.559621 339.196365 
L 78.413277 336.723556 
L 78.291669 334.249408 
L 78.194808 331.774167 
L 78.122704 329.298082 
L 78.075364 326.821399 
L 78.052792 324.344367 
L 78.054992 321.867233 
L 78.081963 319.390244 
L 78.133701 316.91365 
L 78.210203 314.437696 
L 78.31146 311.962631 
L 78.437462 309.488703 
L 78.588196 307.016158 
L 78.763648 304.545244 
L 78.9638 302.076209 
L 79.188632 299.609298 
L 79.438122 297.144759 
L 79.712244 294.682838 
L 80.010971 292.223781 
L 80.334273 289.767834 
L 80.682118 287.315243 
L 81.054471 284.866253 
L 81.451296 282.421109 
L 81.872551 279.980056 
L 82.318195 277.543337 
L 82.788184 275.111196 
L 83.282471 272.683877 
L 83.801005 270.261621 
L 84.343736 267.844673 
L 84.910608 265.433272 
L 85.501566 263.02766 
L 86.11655 260.628078 
L 86.755499 258.234766 
L 87.418349 255.847963 
L 88.105033 253.467908 
L 88.815483 251.094838 
L 89.549627 248.728992 
L 90.307393 246.370605 
L 91.088705 244.019913 
L 91.893484 241.677152 
L 92.72165 239.342556 
L 93.57312 237.016358 
L 94.447809 234.698791 
L 95.34563 232.390087 
L 96.266492 230.090476 
L 97.210305 227.800188 
L 98.176972 225.519453 
L 99.166398 223.248499 
L 100.178484 220.987552 
L 101.213128 218.736839 
L 102.270228 216.496584 
L 103.349676 214.267013 
L 104.451366 212.048347 
L 105.575188 209.840809 
L 106.721028 207.644619 
L 107.888772 205.459998 
L 109.078304 203.287163 
L 110.289504 201.126331 
L 111.522252 198.97772 
L 112.776423 196.841543 
L 114.051894 194.718014 
L 115.348536 192.607347 
L 116.666219 190.50975 
L 118.004812 188.425436 
L 119.36418 186.354611 
L 120.744189 184.297483 
L 121.258657 183.541818 
L 119.192934 182.129859 
L 118.673269 182.893157 
L 117.279321 184.971064 
L 115.906221 187.062806 
L 114.554107 189.168175 
L 113.223114 191.286958 
L 111.913375 193.418946 
L 110.625021 195.563925 
L 109.358181 197.721679 
L 108.112981 199.891994 
L 106.889547 202.074652 
L 105.688 204.269435 
L 104.50846 206.476123 
L 103.351046 208.694496 
L 102.215873 210.924333 
L 101.103055 213.165409 
L 100.012702 215.417502 
L 98.944925 217.680385 
L 97.89983 219.953832 
L 96.877521 222.237617 
L 95.878101 224.53151 
L 94.901669 226.835283 
L 93.948323 229.148705 
L 93.018159 231.471544 
L 92.111269 233.803569 
L 91.227745 236.144546 
L 90.367674 238.494241 
L 89.531143 240.852419 
L 88.718235 243.218844 
L 87.929031 245.59328 
L 87.163611 247.975489 
L 86.422051 250.365233 
L 85.704425 252.762273 
L 85.010804 255.166369 
L 84.341259 257.577281 
L 83.695857 259.994768 
L 83.074661 262.418588 
L 82.477733 264.848499 
L 81.905135 267.284258 
L 81.356922 269.72562 
L 80.83315 272.172342 
L 80.333871 274.62418 
L 79.859134 277.080888 
L 79.408988 279.54222 
L 78.983478 282.007931 
L 78.582646 284.477773 
L 78.206531 286.951501 
L 77.855172 289.428865 
L 77.528604 291.909619 
L 77.22686 294.393515 
L 76.949969 296.880304 
L 76.69796 299.369738 
L 76.470857 301.861567 
L 76.268683 304.355542 
L 76.091458 306.851415 
L 75.939201 309.348935 
L 75.811926 311.847852 
L 75.709647 314.347918 
L 75.632373 316.848881 
L 75.580111 319.350492 
L 75.552868 321.8525 
L 75.550646 324.354656 
L 75.573446 326.856708 
L 75.621264 329.358408 
L 75.694097 331.859505 
L 75.791936 334.359748 
L 75.914773 336.858887 
L 76.062594 339.356674 
L 76.235386 341.852857 
L 76.43313 344.347188 
L 76.655807 346.839416 
L 76.903395 349.329293 
L 77.175869 351.81657 
L 77.473202 354.300998 
L 77.795363 356.782328 
L 78.142322 359.260313 
L 78.514042 361.734704 
L 78.910488 364.205254 
L 79.331618 366.671717 
L 79.777392 369.133845 
L 80.247765 371.591392 
L 80.742689 374.044112 
L 81.262115 376.491761 
L 81.805991 378.934093 
L 82.374263 381.370865 
L 82.966874 383.801832 
L 83.583764 386.226751 
L 84.224872 388.645381 
L 84.890135 391.057478 
L 85.579484 393.462803 
L 86.292852 395.861113 
L 87.030167 398.252171 
L 87.791355 400.635735 
L 88.57634 403.011569 
L 89.385045 405.379434 
L 90.217386 407.739094 
L 91.073283 410.090313 
L 91.952649 412.432855 
L 92.855395 414.766487 
L 93.781432 417.090974 
L 94.730668 419.406086 
L 95.703007 421.711589 
L 96.698352 424.007254 
L 97.716603 426.29285 
L 98.757659 428.56815 
L 99.821416 430.832926 
L 100.907767 433.086952 
L 102.016603 435.330001 
L 103.147814 437.56185 
L 104.301286 439.782275 
L 105.476905 441.991055 
L 106.674553 444.187968 
L 107.894109 446.372796 
L 109.135452 448.545318 
L 110.398458 450.705319 
L 111.683001 452.852582 
L 112.988952 454.986893 
L 114.31618 457.108037 
L 115.664552 459.215803 
L 117.033935 461.309981 
L 118.424191 463.39036 
L 119.83518 465.456733 
L 121.266763 467.508893 
L 122.718795 469.546634 
L 124.191131 471.569754 
L 125.683625 473.578049 
L 127.196127 475.571319 
L 128.728486 477.549365 
L 130.280548 479.511989 
L 131.852158 481.458994 
L 133.443159 483.390186 
L 135.053393 485.305372 
L 136.682698 487.204359 
L 138.33091 489.086959 
L 139.997866 490.952984 
L 141.683399 492.802245 
L 143.387339 494.634559 
L 145.109518 496.449742 
L 146.849761 498.247613 
L 148.607896 500.027992 
L 150.383747 501.790701 
L 152.177136 503.535564 
L 153.987883 505.262405 
L 155.815808 506.971054 
L 157.660727 508.661337 
L 159.522457 510.333088 
L 161.400811 511.986138 
L 163.295602 513.620322 
L 165.206639 515.235476 
L 167.133732 516.83144 
L 169.076688 518.408054 
L 171.035313 519.965159 
L 173.009411 521.502601 
L 174.998784 523.020225 
L 177.003233 524.517879 
L 179.022559 525.995415 
L 181.056559 527.452684 
L 183.105029 528.889541 
L 185.167766 530.305841 
L 187.244562 531.701443 
L 189.33521 533.076208 
L 191.439501 534.429998 
L 193.557224 535.762678 
L 195.688168 537.074115 
L 197.83212 538.364176 
L 199.988865 539.632735 
L 202.158187 540.879662 
L 204.33987 542.104834 
L 206.533696 543.308129 
L 208.739444 544.489426 
L 210.956895 545.648606 
L 213.185827 546.785554 
L 215.426016 547.900157 
L 217.67724 548.992302 
L 219.939272 550.061881 
L 222.211887 551.108786 
L 224.494856 552.132913 
L 226.787953 553.13416 
L 229.090948 554.112426 
L 231.40361 555.067614 
L 233.725707 555.999627 
L 236.057009 556.908374 
L 236.954092 554.572548 
z
" clip-path="url(#pc7dcb1146f)" style="fill: none; stroke: #000000; stroke-width: 0.5; stroke-linejoin: miter"/>
   </g>
   <g id="patch_12">
    <path d="M 121.258657 183.541818 
L 122.666698 181.503776 
L 124.095049 179.479915 
L 125.543567 177.470439 
L 127.012107 175.475548 
L 128.500522 173.495442 
L 130.008664 171.53032 
L 131.53638 169.580376 
L 133.08352 167.645807 
L 134.649928 165.726806 
L 136.235447 163.823565 
L 137.839919 161.936273 
L 139.463183 160.065121 
L 141.105077 158.210294 
L 142.765437 156.371979 
L 144.444097 154.550359 
L 146.140889 152.745617 
L 147.855643 150.957932 
L 149.588188 149.187484 
L 151.338351 147.43445 
L 153.105956 145.699004 
L 154.890827 143.981321 
L 156.692785 142.281573 
L 158.51165 140.599929 
L 160.347241 138.936557 
L 162.199373 137.291624 
L 164.067862 135.665294 
L 165.95252 134.05773 
L 167.853159 132.469093 
L 169.76959 130.899541 
L 171.70162 129.349232 
L 173.649056 127.81832 
L 175.047347 126.738351 
L 173.524944 124.75262 
L 172.112529 125.843497 
L 170.145421 127.389873 
L 168.193876 128.955842 
L 166.258088 130.541248 
L 164.33825 132.145932 
L 162.434555 133.769734 
L 160.547192 135.412491 
L 158.676352 137.07404 
L 156.82222 138.754213 
L 154.984982 140.452844 
L 153.164823 142.169761 
L 151.361923 143.904795 
L 149.576463 145.65777 
L 147.808622 147.428511 
L 146.058577 149.216843 
L 144.326502 151.022585 
L 142.61257 152.845557 
L 140.916954 154.685577 
L 139.239823 156.542461 
L 137.581344 158.416023 
L 135.941683 160.306076 
L 134.321004 162.212431 
L 132.71947 164.134897 
L 131.13724 166.073282 
L 129.574473 168.027392 
L 128.031324 169.997032 
L 126.507949 171.982005 
L 125.0045 173.982112 
L 123.521126 175.997153 
L 122.057977 178.026927 
L 120.615198 180.07123 
L 119.192934 182.129859 
L 121.258657 183.541818 
z
" clip-path="url(#pc7dcb1146f)" style="fill: none; stroke: #000000; stroke-width: 0.5; stroke-linejoin: miter"/>
   </g>
   <g id="patch_13">
    <path d="M 175.047347 126.738351 
L 177.020724 125.241027 
L 179.008975 123.763511 
L 181.011902 122.30595 
L 183.029305 120.868492 
L 185.06098 119.451279 
L 187.106726 118.054454 
L 189.166338 116.678155 
L 191.23961 115.322521 
L 193.326334 113.987687 
L 195.426301 112.673787 
L 197.539303 111.380952 
L 199.665127 110.109311 
L 201.803561 108.858992 
L 203.954391 107.630119 
L 206.117402 106.422815 
L 208.292378 105.237202 
L 210.479101 104.073397 
L 212.677352 102.931518 
L 214.886912 101.811677 
L 217.10756 100.713988 
L 219.339073 99.63856 
L 221.581229 98.5855 
L 223.833804 97.554914 
L 226.096571 96.546905 
L 228.369305 95.561574 
L 230.651779 94.599019 
L 232.943764 93.659336 
L 235.245031 92.74262 
L 237.55535 91.848962 
L 239.87449 90.978452 
L 242.202219 90.131176 
L 244.538304 89.307219 
L 246.882512 88.506664 
L 249.234608 87.729591 
L 251.594357 86.976077 
L 253.961523 86.246198 
L 256.335869 85.540027 
L 258.717158 84.857634 
L 261.105152 84.199087 
L 263.499612 83.564454 
L 265.900298 82.953796 
L 268.306971 82.367175 
L 270.71939 81.804649 
L 273.137313 81.266276 
L 275.560499 80.752108 
L 277.988705 80.262198 
L 280.421689 79.796594 
L 282.859208 79.355342 
L 285.301017 78.938487 
L 287.746872 78.546071 
L 289.076514 78.343251 
L 288.705921 75.86868 
L 287.362848 76.073549 
L 284.892287 76.469929 
L 282.425813 76.890994 
L 279.963674 77.336703 
L 277.506114 77.80701 
L 275.05338 78.301869 
L 272.605718 78.821231 
L 270.163371 79.365042 
L 267.726585 79.93325 
L 265.295602 80.525796 
L 262.870666 81.142622 
L 260.45202 81.783666 
L 258.039905 82.448865 
L 255.634562 83.138151 
L 253.236233 83.851455 
L 250.845156 84.588707 
L 248.461571 85.349832 
L 246.085717 86.134754 
L 243.71783 86.943396 
L 241.358148 87.775675 
L 239.006907 88.631509 
L 236.664341 89.510813 
L 234.330686 90.413498 
L 232.006173 91.339474 
L 229.691037 92.288648 
L 227.385508 93.260926 
L 225.089817 94.25621 
L 222.804193 95.274401 
L 220.528866 96.315396 
L 218.264062 97.379093 
L 216.010008 98.465384 
L 213.766929 99.574161 
L 211.53505 100.705313 
L 209.314594 101.858727 
L 207.105783 103.034287 
L 204.908838 104.231876 
L 202.723978 105.451375 
L 200.551423 106.692661 
L 198.391389 107.95561 
L 196.244092 109.240095 
L 194.109747 110.545989 
L 191.988567 111.873161 
L 189.880765 113.221478 
L 187.786551 114.590806 
L 185.706135 115.981006 
L 183.639725 117.391941 
L 181.587527 118.823469 
L 179.549747 120.275447 
L 177.526589 121.74773 
L 175.518254 123.240171 
L 173.524944 124.75262 
L 175.047347 126.738351 
z
" clip-path="url(#pc7dcb1146f)" style="fill: none; stroke: #000000; stroke-width: 0.5; stroke-linejoin: miter"/>
   </g>
   <g id="patch_14">
    <path d="M 289.076514 78.343251 
L 291.506147 77.991688 
L 291.160096 75.513566 
L 288.705921 75.86868 
L 289.076514 78.343251 
z
" clip-path="url(#pc7dcb1146f)" style="fill: none; stroke: #000000; stroke-width: 0.5; stroke-linejoin: miter"/>
   </g>
   <g id="patch_15">
    <path d="M 291.506147 77.991688 
L 293.96116 77.661369 
L 296.419353 77.355617 
L 298.880481 77.074461 
L 301.344297 76.81793 
L 303.810556 76.58605 
L 306.27901 76.378844 
L 308.749412 76.196332 
L 311.221516 76.038533 
L 313.695074 75.905462 
L 316.169839 75.797134 
L 318.645564 75.713558 
L 321.122001 75.654743 
L 323.598902 75.620694 
L 325.765241 75.611221 
L 325.765241 73.109054 
L 323.57702 73.118623 
L 321.0751 73.153015 
L 318.573648 73.212424 
L 316.072916 73.296844 
L 313.573153 73.406267 
L 311.074609 73.540682 
L 308.577535 73.700075 
L 306.082179 73.884431 
L 303.588791 74.09373 
L 301.097621 74.327952 
L 298.608918 74.587074 
L 296.12293 74.87107 
L 293.639907 75.17991 
L 291.160096 75.513566 
L 291.506147 77.991688 
z
" clip-path="url(#pc7dcb1146f)" style="fill: none; stroke: #000000; stroke-width: 0.5; stroke-linejoin: miter"/>
   </g>
   <g id="text_1">
    <text style="font: 3px 'DejaVu Sans', 'Bitstream Vera Sans', 'Computer Modern Sans Serif', 'Lucida Grande', 'Verdana', 'Geneva', 'Lucid', 'Arial', 'Helvetica', 'Avant Garde', sans-serif; text-anchor: start" x="482.405581" y="125.002962" transform="rotate(-51.955836 482.405581 125.002962)">City University of Hong Kong</text>
   </g>
   <g id="text_2">
    <text style="font: 3px 'DejaVu Sans', 'Bitstream Vera Sans', 'Computer Modern Sans Serif', 'Lucida Grande', 'Verdana', 'Geneva', 'Lucid', 'Arial', 'Helvetica', 'Avant Garde', sans-serif; text-anchor: start" x="492.205971" y="513.498354" transform="rotate(-311.451104 492.205971 513.498354)">University of Hong Kong</text>
   </g>
   <g id="text_3">
    <text style="font: 3px 'DejaVu Sans', 'Bitstream Vera Sans', 'Computer Modern Sans Serif', 'Lucida Grande', 'Verdana', 'Geneva', 'Lucid', 'Arial', 'Helvetica', 'Avant Garde', sans-serif; text-anchor: end" x="84.84288" y="399.644478" transform="rotate(-17.318612 84.84288 399.644478)">Hong Kong Polytechnic University</text>
   </g>
   <g id="text_4">
    <text style="font: 3px 'DejaVu Sans', 'Bitstream Vera Sans', 'Computer Modern Sans Serif', 'Lucida Grande', 'Verdana', 'Geneva', 'Lucid', 'Arial', 'Helvetica', 'Avant Garde', sans-serif; text-anchor: end" x="141.479107" y="150.39008" transform="rotate(-316.561514 141.479107 150.39008)">Lingnan University</text>
   </g>
   <g id="text_5">
    <text style="font: 3px 'DejaVu Sans', 'Bitstream Vera Sans', 'Computer Modern Sans Serif', 'Lucida Grande', 'Verdana', 'Geneva', 'Lucid', 'Arial', 'Helvetica', 'Avant Garde', sans-serif; text-anchor: end" x="225.983733" y="91.136659" transform="rotate(-292.996845 225.983733 91.136659)">Education University of Hong Kong</text>
   </g>
   <g id="text_6">
    <text style="font: 3px 'DejaVu Sans', 'Bitstream Vera Sans', 'Computer Modern Sans Serif', 'Lucida Grande', 'Verdana', 'Geneva', 'Lucid', 'Arial', 'Helvetica', 'Avant Garde', sans-serif; text-anchor: end" x="288.446224" y="73.374928" transform="rotate(-278.233438 288.446224 73.374928)">Croucher Foundation</text>
   </g>
   <g id="text_7">
    <text style="font: 3px 'DejaVu Sans', 'Bitstream Vera Sans', 'Computer Modern Sans Serif', 'Lucida Grande', 'Verdana', 'Geneva', 'Lucid', 'Arial', 'Helvetica', 'Avant Garde', sans-serif; text-anchor: end" x="307.110483" y="71.293763" transform="rotate(-273.974763 307.110483 71.293763)">Saint Francis University</text>
   </g>
  </g>
 </g>
 <defs>
  <clipPath id="pc7dcb1146f">
   <path d="M 588.492787 323.325765 
C 588.492787 288.8247 581.69683 254.659114 568.493844 222.784286 
C 555.290858 190.909458 535.937608 161.945273 511.541671 137.549335 
C 487.145734 113.153398 458.181548 93.800149 426.30672 80.597162 
C 394.431892 67.394176 360.266307 60.598219 325.765241 60.598219 
C 291.264176 60.598219 257.09859 67.394176 225.223762 80.597162 
C 193.348934 93.800149 164.384749 113.153398 139.988812 137.549335 
C 115.592875 161.945273 96.239625 190.909458 83.036639 222.784286 
C 69.833653 254.659114 63.037696 288.8247 63.037696 323.325765 
C 63.037696 357.82683 69.833653 391.992416 83.036639 423.867244 
C 96.239625 455.742072 115.592875 484.706257 139.988812 509.102194 
C 164.384749 533.498131 193.348934 552.851381 225.223762 566.054367 
C 257.09859 579.257353 291.264176 586.053311 325.765241 586.053311 
C 360.266307 586.053311 394.431892 579.257353 426.30672 566.054367 
C 458.181548 552.851381 487.145734 533.498131 511.541671 509.102194 
C 535.937608 484.706257 555.290858 455.742072 568.493844 423.867244 
C 581.69683 391.992416 588.492787 357.82683 588.492787 323.325765 
M 325.765241 323.325765 
C 325.765241 323.325765 325.765241 323.325765 325.765241 323.325765 
C 325.765241 323.325765 325.765241 323.325765 325.765241 323.325765 
C 325.765241 323.325765 325.765241 323.325765 325.765241 323.325765 
C 325.765241 323.325765 325.765241 323.325765 325.765241 323.325765 
C 325.765241 323.325765 325.765241 323.325765 325.765241 323.325765 
C 325.765241 323.325765 325.765241 323.325765 325.765241 323.325765 
C 325.765241 323.325765 325.765241 323.325765 325.765241 323.325765 
C 325.765241 323.325765 325.765241 323.325765 325.765241 323.325765 
C 325.765241 323.325765 325.765241 323.325765 325.765241 323.325765 
C 325.765241 323.325765 325.765241 323.325765 325.765241 323.325765 
C 325.765241 323.325765 325.765241 323.325765 325.765241 323.325765 
C 325.765241 323.325765 325.765241 323.325765 325.765241 323.325765 
C 325.765241 323.325765 325.765241 323.325765 325.765241 323.325765 
C 325.765241 323.325765 325.765241 323.325765 325.765241 323.325765 
C 325.765241 323.325765 325.765241 323.325765 325.765241 323.325765 
C 325.765241 323.325765 325.765241 323.325765 325.765241 323.325765 
z
"/>
  </clipPath>
 </defs>
</svg>
