<?xml version="1.0" encoding="utf-8" standalone="no"?>
<!DOCTYPE svg PUBLIC "-//W3C//DTD SVG 1.1//EN"
  "http://www.w3.org/Graphics/SVG/1.1/DTD/svg11.dtd">
<svg xmlns:xlink="http://www.w3.org/1999/xlink" width="581.389523pt" height="623.022844pt" viewBox="0 0 581.389523 623.022844" xmlns="http://www.w3.org/2000/svg" version="1.1">
 <metadata>
  <rdf:RDF xmlns:dc="http://purl.org/dc/elements/1.1/" xmlns:cc="http://creativecommons.org/ns#" xmlns:rdf="http://www.w3.org/1999/02/22-rdf-syntax-ns#">
   <cc:Work>
    <dc:type rdf:resource="http://purl.org/dc/dcmitype/StillImage"/>
    <dc:date>2024-11-16T04:19:58.324435</dc:date>
    <dc:format>image/svg+xml</dc:format>
    <dc:creator>
     <cc:Agent>
      <dc:title>Matplotlib v3.8.4, https://matplotlib.org/</dc:title>
     </cc:Agent>
    </dc:creator>
   </cc:Work>
  </rdf:RDF>
 </metadata>
 <defs>
  <style type="text/css">*{stroke-linejoin: round; stroke-linecap: butt}</style>
 </defs>
 <g id="figure_1">
  <g id="patch_1">
   <path d="M 0 623.022844 
L 581.389523 623.022844 
L 581.389523 0 
L 0 0 
z
" style="fill: #ffffff"/>
  </g>
  <g id="axes_1">
   <g id="patch_2">
    <path d="M 277.584992 90.989824 
L 279.862755 91.001213 
L 282.140291 91.035378 
L 284.417371 91.092317 
L 286.693768 91.172024 
L 288.969254 91.27449 
L 291.243602 91.399705 
L 293.516583 91.547657 
L 295.787972 91.718332 
L 298.05754 91.911711 
L 300.325061 92.127776 
L 302.590308 92.366505 
L 304.853055 92.627874 
L 307.113075 92.911857 
L 309.370142 93.218426 
L 311.62403 93.547549 
L 313.874515 93.899195 
L 316.12137 94.273328 
L 318.364373 94.66991 
L 320.603297 95.088902 
L 322.837919 95.530261 
L 325.068016 95.993945 
L 327.293365 96.479906 
L 329.513743 96.988096 
L 331.728929 97.518464 
L 333.938699 98.070957 
L 336.142835 98.645519 
L 338.341115 99.242094 
L 340.533319 99.860621 
L 342.719229 100.50104 
L 344.898625 101.163284 
L 347.07129 101.84729 
L 349.237006 102.552987 
L 351.395557 103.280306 
L 353.546727 104.029174 
L 355.690301 104.799516 
L 357.826065 105.591254 
L 359.953804 106.40431 
L 362.073307 107.238603 
L 364.184361 108.094048 
L 366.286755 108.970561 
L 368.380279 109.868054 
L 370.464723 110.786437 
L 372.53988 111.725618 
L 374.605541 112.685503 
L 376.6615 113.665996 
L 378.707552 114.667 
L 380.743492 115.688414 
L 382.769115 116.730136 
L 384.784221 117.792061 
L 386.788606 118.874085 
L 388.782072 119.976097 
L 390.764417 121.097989 
L 392.735445 122.239648 
L 394.694958 123.40096 
L 396.64276 124.581808 
L 398.578656 125.782075 
L 400.502453 127.001641 
L 402.413959 128.240384 
L 404.312981 129.498179 
L 406.199331 130.774901 
L 408.07282 132.070423 
L 409.93326 133.384614 
L 411.470796 134.491959 
L 412.823178 132.630565 
L 411.270111 131.512035 
L 409.390879 130.184569 
L 407.498466 128.875961 
L 405.593062 127.586343 
L 403.674857 126.315842 
L 401.744044 125.064587 
L 399.800814 123.832703 
L 397.845364 122.620312 
L 395.877887 121.427535 
L 393.898581 120.254493 
L 391.907644 119.101302 
L 389.905274 117.968078 
L 387.891673 116.854934 
L 385.867041 115.761982 
L 383.831581 114.689329 
L 381.785497 113.637085 
L 379.728992 112.605354 
L 377.662273 111.594239 
L 375.585547 110.603842 
L 373.49902 109.634261 
L 371.402902 108.685593 
L 369.297403 107.757934 
L 367.182732 106.851376 
L 365.059102 105.966009 
L 362.926724 105.101922 
L 360.785812 104.259203 
L 358.636581 103.437934 
L 356.479244 102.638198 
L 354.314017 101.860075 
L 352.141118 101.103643 
L 349.960764 100.368977 
L 347.773171 99.656152 
L 345.57856 98.965237 
L 343.37715 98.296303 
L 341.169161 97.649416 
L 338.954813 97.024641 
L 336.734328 96.42204 
L 334.507929 95.841674 
L 332.275837 95.2836 
L 330.038276 94.747875 
L 327.79547 94.234552 
L 325.547643 93.743682 
L 323.295019 93.275315 
L 321.037825 92.829497 
L 318.776286 92.406273 
L 316.510627 92.005685 
L 314.241076 91.627773 
L 311.967859 91.272575 
L 309.691204 90.940127 
L 307.411338 90.630462 
L 305.12849 90.34361 
L 302.842887 90.079601 
L 300.554759 89.838461 
L 298.264334 89.620213 
L 295.97184 89.424881 
L 293.677509 89.252483 
L 291.381567 89.103036 
L 289.084247 88.976556 
L 286.785776 88.873055 
L 284.486385 88.792543 
L 282.186304 88.735029 
L 279.885763 88.700518 
L 277.584992 88.689014 
z
" clip-path="url(#pcdc279bc63)" style="fill: #000080"/>
   </g>
   <g id="patch_3">
    <path d="M 411.470796 134.491959 
L 413.306852 135.840008 
L 415.129335 137.206351 
L 416.938063 138.590849 
L 418.732857 139.993366 
L 420.513535 141.41376 
L 422.279922 142.851889 
L 424.031838 144.30761 
L 425.76911 145.780777 
L 427.491564 147.271243 
L 429.199028 148.778859 
L 430.89133 150.303473 
L 432.568301 151.844934 
L 434.229774 153.403088 
L 435.875583 154.977778 
L 437.505563 156.568847 
L 439.119552 158.176136 
L 440.717386 159.799484 
L 442.298908 161.438729 
L 443.863959 163.093707 
L 445.412381 164.764253 
L 446.944021 166.450199 
L 448.458726 168.151377 
L 449.956343 169.867617 
L 451.436723 171.598747 
L 452.899718 173.344594 
L 454.345182 175.104983 
L 455.77297 176.879739 
L 457.182939 178.668683 
L 458.574948 180.471638 
L 459.948859 182.288422 
L 461.304534 184.118854 
L 462.641836 185.962751 
L 463.960634 187.819929 
L 465.260793 189.690202 
L 466.542186 191.573383 
L 467.804682 193.469283 
L 469.048157 195.377713 
L 470.272486 197.298483 
L 471.477547 199.231399 
L 472.663218 201.176269 
L 473.829381 203.132898 
L 474.97592 205.101091 
L 476.102721 207.080651 
L 477.209669 209.07138 
L 478.296656 211.073078 
L 479.363571 213.085546 
L 480.410309 215.108582 
L 481.436764 217.141985 
L 482.442834 219.18555 
L 483.428419 221.239073 
L 484.393419 223.30235 
L 485.337739 225.375173 
L 486.261284 227.457336 
L 487.163961 229.548629 
L 488.045681 231.648845 
L 488.906355 233.757773 
L 489.745896 235.875202 
L 490.564222 238.00092 
L 491.36125 240.134715 
L 492.136901 242.276374 
L 492.891096 244.425682 
L 493.623762 246.582424 
L 494.334823 248.746386 
L 495.02421 250.917349 
L 495.691853 253.095097 
L 496.337685 255.279413 
L 496.961642 257.470078 
L 497.563662 259.666873 
L 498.143684 261.869578 
L 498.701651 264.077974 
L 499.237506 266.291838 
L 499.751196 268.51095 
L 500.242669 270.735088 
L 500.711877 272.964029 
L 501.158773 275.197551 
L 501.583311 277.43543 
L 501.985449 279.677443 
L 502.365148 281.923365 
L 502.722369 284.172971 
L 503.057076 286.426037 
L 503.369237 288.682338 
L 503.658819 290.941647 
L 503.925794 293.203739 
L 504.170135 295.468387 
L 504.391817 297.735366 
L 504.59082 300.004448 
L 504.767121 302.275407 
L 504.920705 304.548015 
L 505.051555 306.822046 
L 505.159659 309.097271 
L 505.245006 311.373463 
L 505.307587 313.650395 
L 505.347396 315.927839 
L 505.364428 318.205567 
L 505.358683 320.483352 
L 505.330161 322.760965 
L 505.278864 325.038179 
L 505.204799 327.314767 
L 505.107971 329.590499 
L 504.988392 331.86515 
L 504.846072 334.138492 
L 504.681026 336.410296 
L 504.493271 338.680337 
L 504.282825 340.948386 
L 504.04971 343.214218 
L 503.793948 345.477605 
L 503.515566 347.738321 
L 503.21459 349.996141 
L 502.891052 352.250838 
L 502.544984 354.502187 
L 502.17642 356.749963 
L 501.785397 358.993941 
L 501.371954 361.233896 
L 500.936132 363.469606 
L 500.477976 365.700845 
L 499.99753 367.927391 
L 499.494843 370.149021 
L 498.969966 372.365514 
L 498.42295 374.576647 
L 497.853851 376.7822 
L 497.262725 378.981951 
L 496.649631 381.175681 
L 496.014631 383.363171 
L 495.357788 385.544201 
L 494.679168 387.718554 
L 493.978839 389.886012 
L 493.256871 392.046359 
L 492.513336 394.199378 
L 491.748308 396.344854 
L 490.961864 398.482573 
L 490.154082 400.61232 
L 489.325044 402.733884 
L 488.474832 404.847051 
L 487.603531 406.95161 
L 486.711228 409.047352 
L 485.798013 411.134065 
L 484.863977 413.211543 
L 483.909213 415.279576 
L 482.933817 417.337958 
L 481.937886 419.386484 
L 480.92152 421.424948 
L 479.88482 423.453147 
L 478.827891 425.470877 
L 477.750837 427.477937 
L 476.653767 429.474127 
L 475.536791 431.459247 
L 474.400019 433.433097 
L 473.243566 435.395482 
L 472.067548 437.346203 
L 470.872081 439.285068 
L 469.657286 441.211881 
L 468.423283 443.12645 
L 467.170197 445.028583 
L 465.898153 446.918091 
L 464.607277 448.794783 
L 463.2977 450.658474 
L 461.969551 452.508976 
L 460.622964 454.346104 
L 459.258073 456.169674 
L 457.875016 457.979505 
L 456.473929 459.775415 
L 455.054953 461.557224 
L 453.618231 463.324755 
L 452.163906 465.07783 
L 450.692123 466.816275 
L 449.203029 468.539915 
L 447.696773 470.248578 
L 446.173507 471.942094 
L 444.633382 473.620292 
L 443.076552 475.283006 
L 441.503173 476.930068 
L 439.913402 478.561315 
L 438.307399 480.176582 
L 436.685324 481.775709 
L 435.047338 483.358536 
L 433.393607 484.924904 
L 431.724295 486.474656 
L 430.039569 488.007639 
L 428.339598 489.523697 
L 426.624551 491.02268 
L 424.894601 492.504439 
L 423.149919 493.968823 
L 421.390682 495.415689 
L 419.617064 496.844889 
L 417.829243 498.256283 
L 416.027397 499.649728 
L 414.211708 501.025085 
L 412.382355 502.382216 
L 410.539524 503.720987 
L 408.683396 505.041263 
L 406.81416 506.342911 
L 404.932 507.625803 
L 403.037106 508.889809 
L 401.129666 510.134803 
L 399.209873 511.360661 
L 397.277916 512.56726 
L 395.333991 513.75448 
L 393.378291 514.922201 
L 391.411012 516.070307 
L 389.43235 517.198684 
L 387.442503 518.307217 
L 385.441671 519.395797 
L 383.430053 520.464315 
L 381.407851 521.512663 
L 379.375267 522.540737 
L 377.332504 523.548435 
L 375.279766 524.535654 
L 373.217258 525.502298 
L 371.145188 526.448268 
L 370.23152 526.857467 
L 371.167343 528.959361 
L 372.09024 528.546029 
L 374.183241 527.590503 
L 376.266582 526.614096 
L 378.340054 525.616904 
L 380.403452 524.599028 
L 382.456567 523.560569 
L 384.499196 522.501632 
L 386.531133 521.422321 
L 388.552175 520.322745 
L 390.562121 519.203014 
L 392.560769 518.06324 
L 394.54792 516.903537 
L 396.523375 515.724021 
L 398.486936 514.524809 
L 400.438407 513.306022 
L 402.377592 512.067782 
L 404.304299 510.810212 
L 406.218333 509.533438 
L 408.119505 508.237588 
L 410.007623 506.922791 
L 411.882499 505.589179 
L 413.743945 504.236886 
L 415.591775 502.866046 
L 417.425805 501.476796 
L 419.245851 500.069276 
L 421.051731 498.643626 
L 422.843265 497.199989 
L 424.620272 495.738509 
L 426.382577 494.259332 
L 428.130001 492.762607 
L 429.862372 491.248482 
L 431.579514 489.71711 
L 433.281258 488.168643 
L 434.967431 486.603237 
L 436.637867 485.021047 
L 438.292398 483.422232 
L 439.930858 481.806952 
L 441.553083 480.175369 
L 443.158912 478.527645 
L 444.748184 476.863946 
L 446.320739 475.184437 
L 447.876421 473.489287 
L 449.415074 471.778665 
L 450.936544 470.052743 
L 452.440679 468.311692 
L 453.927329 466.555687 
L 455.396345 464.784904 
L 456.847579 462.999519 
L 458.280888 461.199712 
L 459.696127 459.385662 
L 461.093155 457.55755 
L 462.471832 455.71556 
L 463.832021 453.859875 
L 465.173586 451.990681 
L 466.496391 450.108166 
L 467.800306 448.212516 
L 469.085199 446.303923 
L 470.350943 444.382576 
L 471.59741 442.448668 
L 472.824476 440.502392 
L 474.032018 438.543943 
L 475.219916 436.573517 
L 476.38805 434.591311 
L 477.536304 432.597522 
L 478.664563 430.592351 
L 479.772714 428.575998 
L 480.860647 426.548664 
L 481.928253 424.510553 
L 482.975424 422.461867 
L 484.002056 420.402812 
L 485.008047 418.333595 
L 485.993296 416.25442 
L 486.957704 414.165498 
L 487.901175 412.067036 
L 488.823614 409.959244 
L 489.72493 407.842334 
L 490.605032 405.716516 
L 491.463832 403.582004 
L 492.301245 401.439011 
L 493.117186 399.287751 
L 493.911574 397.128439 
L 494.684329 394.961291 
L 495.435375 392.786524 
L 496.164636 390.604356 
L 496.872039 388.415004 
L 497.557513 386.218688 
L 498.220991 384.015627 
L 498.862405 381.806042 
L 499.481692 379.590153 
L 500.078789 377.368182 
L 500.653637 375.140351 
L 501.206178 372.906883 
L 501.736357 370.668002 
L 502.244121 368.423931 
L 502.72942 366.174894 
L 503.192204 363.921117 
L 503.632428 361.662825 
L 504.050047 359.400244 
L 504.44502 357.133599 
L 504.817307 354.863119 
L 505.166871 352.589029 
L 505.493677 350.311557 
L 505.797693 348.030931 
L 506.078887 345.747379 
L 506.337232 343.461129 
L 506.572702 341.172411 
L 506.785274 338.881452 
L 506.974925 336.588481 
L 507.141638 334.293729 
L 507.285396 331.997425 
L 507.406183 329.699798 
L 507.503989 327.401078 
L 507.578803 325.101495 
L 507.630617 322.801278 
L 507.659428 320.500659 
L 507.665231 318.199866 
L 507.648026 315.899131 
L 507.607815 313.598682 
L 507.544602 311.298751 
L 507.458393 308.999567 
L 507.349198 306.70136 
L 507.217025 304.404359 
L 507.06189 302.108795 
L 506.883808 299.814898 
L 506.682795 297.522896 
L 506.458873 295.233018 
L 506.212064 292.945494 
L 505.942393 290.660553 
L 505.649886 288.378422 
L 505.334572 286.099331 
L 504.996484 283.823507 
L 504.635655 281.551177 
L 504.252121 279.282569 
L 503.84592 277.01791 
L 503.417094 274.757426 
L 502.965684 272.501343 
L 502.491737 270.249887 
L 501.995299 268.003283 
L 501.47642 265.761756 
L 500.935152 263.525529 
L 500.37155 261.294827 
L 499.785669 259.069872 
L 499.177568 256.850888 
L 498.547308 254.638095 
L 497.894952 252.431715 
L 497.220565 250.231969 
L 496.524215 248.039077 
L 495.805971 245.853257 
L 495.065906 243.67473 
L 494.304092 241.503712 
L 493.520606 239.34042 
L 492.715527 237.185071 
L 491.888936 235.037881 
L 491.040914 232.899064 
L 490.171546 230.768834 
L 489.280921 228.647404 
L 488.369125 226.534986 
L 487.436252 224.431791 
L 486.482393 222.338031 
L 485.507645 220.253913 
L 484.512105 218.179647 
L 483.495873 216.11544 
L 482.459049 214.061498 
L 481.401738 212.018027 
L 480.324046 209.985231 
L 479.22608 207.963313 
L 478.10795 205.952476 
L 476.969768 203.952921 
L 475.811648 201.964847 
L 474.633705 199.988454 
L 473.436057 198.023939 
L 472.218825 196.071498 
L 470.982129 194.131327 
L 469.726094 192.20362 
L 468.450844 190.288569 
L 467.156509 188.386366 
L 465.843216 186.497202 
L 464.511097 184.621264 
L 463.160287 182.758742 
L 461.790918 180.90982 
L 460.40313 179.074685 
L 458.99706 177.253519 
L 457.572848 175.446504 
L 456.130638 173.653822 
L 454.670574 171.875651 
L 453.192801 170.112169 
L 451.697468 168.363553 
L 450.184723 166.629977 
L 448.654719 164.911616 
L 447.107607 163.20864 
L 445.543544 161.52122 
L 443.962685 159.849525 
L 442.365188 158.193722 
L 440.751214 156.553976 
L 439.120923 154.930452 
L 437.474478 153.323311 
L 435.812045 151.732715 
L 434.133789 150.158823 
L 432.439878 148.601791 
L 430.730482 147.061777 
L 429.005772 145.538933 
L 427.26592 144.033412 
L 425.511099 142.545364 
L 423.741486 141.074939 
L 421.957258 139.622283 
L 420.158593 138.187542 
L 418.34567 136.770858 
L 416.518671 135.372375 
L 414.677779 133.992231 
L 412.823178 132.630565 
z
" clip-path="url(#pcdc279bc63)" style="fill: #0028ff"/>
   </g>
   <g id="patch_4">
    <path d="M 370.23152 526.857467 
L 368.146047 527.773513 
L 366.051518 528.668658 
L 363.948143 529.542814 
L 361.836132 530.395892 
L 359.715695 531.227809 
L 357.587045 532.038479 
L 355.450396 532.827823 
L 353.305959 533.595761 
L 351.153951 534.342217 
L 348.994586 535.067116 
L 346.82808 535.770385 
L 344.65465 536.451955 
L 342.474513 537.111756 
L 340.287887 537.749723 
L 338.094991 538.365793 
L 335.896043 538.959903 
L 333.691265 539.531995 
L 331.480876 540.08201 
L 329.265098 540.609894 
L 327.044151 541.115595 
L 324.943145 541.572552 
L 325.42151 543.823083 
L 327.543739 543.36151 
L 329.787119 542.850702 
L 332.025279 542.317485 
L 334.257995 541.761914 
L 336.485044 541.184044 
L 338.706203 540.583933 
L 340.921249 539.96164 
L 343.129963 539.317229 
L 345.332121 538.650763 
L 347.527505 537.962309 
L 349.715895 537.251936 
L 351.897072 536.519715 
L 354.070818 535.765719 
L 356.236915 534.990024 
L 358.395147 534.192707 
L 360.545298 533.373848 
L 362.687153 532.533528 
L 364.820498 531.671833 
L 366.94512 530.788847 
L 369.060805 529.88466 
L 371.167343 528.959361 
z
" clip-path="url(#pcdc279bc63)" style="fill: #00d4ff"/>
   </g>
   <g id="patch_5">
    <path d="M 324.943145 541.572552 
L 322.712789 542.034986 
L 320.477919 542.475093 
L 318.23876 542.89283 
L 315.995536 543.288155 
L 313.748471 543.661028 
L 311.49779 544.011412 
L 309.243717 544.339273 
L 306.986479 544.644576 
L 304.7263 544.927293 
L 302.463408 545.187394 
L 300.198027 545.424853 
L 297.930385 545.639647 
L 295.660709 545.831754 
L 293.389225 546.001155 
L 291.116161 546.147833 
L 288.841743 546.271774 
L 286.5662 546.372965 
L 284.289759 546.451395 
L 282.012648 546.507058 
L 279.735093 546.539947 
L 277.457324 546.550059 
L 275.179567 546.537393 
L 272.902051 546.501951 
L 270.625003 546.443736 
L 268.348651 546.362754 
L 266.073223 546.259012 
L 263.798946 546.132522 
L 261.526048 545.983296 
L 259.254755 545.811349 
L 256.985295 545.616697 
L 254.717896 545.399362 
L 252.452783 545.159363 
L 250.190183 544.896726 
L 247.930323 544.611476 
L 245.673428 544.303642 
L 243.419725 543.973255 
L 241.169437 543.620348 
L 238.922792 543.244956 
L 236.680012 542.847117 
L 234.441323 542.426871 
L 232.206949 541.984258 
L 229.977112 541.519325 
L 227.752036 541.032117 
L 225.531943 540.522682 
L 223.317055 539.991073 
L 221.107594 539.437342 
L 218.903781 538.861544 
L 216.705836 538.263737 
L 214.513979 537.643981 
L 212.328428 537.002338 
L 210.149404 536.338871 
L 207.977123 535.653648 
L 205.811802 534.946737 
L 203.653659 534.218209 
L 201.502909 533.468135 
L 199.359767 532.696592 
L 197.224448 531.903657 
L 195.097164 531.089408 
L 192.978129 530.253928 
L 190.867555 529.397299 
L 188.765653 528.519608 
L 186.672632 527.620942 
L 184.588703 526.701391 
L 182.514073 525.761047 
L 180.44895 524.800004 
L 178.393541 523.818359 
L 176.34805 522.816208 
L 174.312684 521.793654 
L 172.287644 520.750797 
L 170.273134 519.687742 
L 168.269356 518.604595 
L 166.276508 517.501465 
L 164.294792 516.378463 
L 162.324404 515.235699 
L 160.365542 514.073289 
L 158.418403 512.891349 
L 156.483179 511.689997 
L 154.560066 510.469353 
L 152.649255 509.22954 
L 150.750938 507.97068 
L 148.865304 506.692901 
L 146.992542 505.396329 
L 145.132839 504.081095 
L 143.286381 502.74733 
L 141.453353 501.395168 
L 139.633938 500.024743 
L 137.828317 498.636193 
L 136.036673 497.229656 
L 134.259183 495.805274 
L 132.496026 494.363188 
L 130.747377 492.903543 
L 129.013412 491.426484 
L 127.294304 489.932161 
L 125.590225 488.420721 
L 123.901345 486.892316 
L 122.227834 485.347099 
L 120.569858 483.785225 
L 118.927584 482.206849 
L 117.301175 480.612129 
L 115.690794 479.001226 
L 114.096603 477.374299 
L 112.51876 475.731512 
L 110.957424 474.07303 
L 109.412751 472.399017 
L 107.884894 470.709641 
L 106.374008 469.005071 
L 104.880242 467.285478 
L 103.403747 465.551034 
L 101.944669 463.801911 
L 100.503156 462.038286 
L 99.079351 460.260334 
L 97.673396 458.468233 
L 96.285432 456.662162 
L 94.915598 454.842302 
L 93.56403 453.008835 
L 92.230865 451.161944 
L 90.916235 449.301814 
L 89.620271 447.428631 
L 88.343104 445.542582 
L 87.084861 443.643856 
L 85.845668 441.732643 
L 84.625648 439.809134 
L 83.424925 437.873521 
L 82.243617 435.925997 
L 81.081843 433.966758 
L 79.939719 431.996 
L 78.81736 430.013919 
L 77.714877 428.020713 
L 76.632381 426.016583 
L 75.56998 424.001728 
L 74.527781 421.97635 
L 73.505887 419.940651 
L 72.504401 417.894836 
L 71.523423 415.839108 
L 70.56305 413.773673 
L 69.62338 411.698738 
L 68.704506 409.61451 
L 67.806519 407.521198 
L 66.92951 405.419011 
L 66.073567 403.308159 
L 65.238775 401.188853 
L 64.425217 399.061305 
L 63.632974 396.925728 
L 62.862127 394.782336 
L 62.112752 392.631343 
L 61.384924 390.472963 
L 60.678716 388.307413 
L 59.994198 386.13491 
L 59.33144 383.95567 
L 58.690506 381.769912 
L 58.071461 379.577853 
L 57.474368 377.379714 
L 56.899286 375.175714 
L 56.346272 372.966074 
L 55.815382 370.751013 
L 55.306668 368.530755 
L 54.820182 366.305521 
L 54.355973 364.075533 
L 53.914086 361.841015 
L 53.494566 359.60219 
L 53.097455 357.359281 
L 52.722792 355.112514 
L 52.370616 352.862112 
L 52.040961 350.608301 
L 51.73386 348.351307 
L 51.449344 346.091354 
L 51.187441 343.828669 
L 50.948178 341.563478 
L 50.731578 339.296008 
L 50.537664 337.026486 
L 50.366454 334.755138 
L 50.217965 332.482191 
L 50.092214 330.207873 
L 49.989211 327.932411 
L 49.908968 325.656033 
L 49.851492 323.378966 
L 49.816789 321.101439 
L 49.804863 318.823678 
L 49.815715 316.545912 
L 49.849343 314.268369 
L 49.905745 311.991275 
L 49.984915 309.71486 
L 50.086844 307.43935 
L 50.211523 305.164972 
L 50.358939 302.891956 
L 50.529078 300.620527 
L 50.721922 298.350913 
L 50.937452 296.083341 
L 51.175647 293.818038 
L 51.436482 291.55523 
L 51.719932 289.295143 
L 52.025969 287.038004 
L 52.354561 284.784038 
L 52.705676 282.53347 
L 53.079278 280.286527 
L 53.475331 278.043431 
L 53.893795 275.804408 
L 54.334628 273.569682 
L 54.797786 271.339475 
L 55.283222 269.114012 
L 55.790888 266.893514 
L 56.320734 264.678204 
L 56.872705 262.468303 
L 57.446748 260.264032 
L 58.042804 258.065611 
L 58.660815 255.873261 
L 59.300717 253.6872 
L 59.962448 251.507648 
L 60.645941 249.334822 
L 60.95321 248.382026 
L 58.76501 247.671037 
L 58.454638 248.633457 
L 57.764241 250.828231 
L 57.095826 253.029799 
L 56.449459 255.237941 
L 55.825207 257.452436 
L 55.223129 259.673063 
L 54.643288 261.899599 
L 54.085741 264.131822 
L 53.550544 266.369509 
L 53.03775 268.612437 
L 52.54741 270.860379 
L 52.079574 273.113113 
L 51.634288 275.370413 
L 51.211598 277.632052 
L 50.811544 279.897805 
L 50.434167 282.167445 
L 50.079506 284.440746 
L 49.747595 286.717479 
L 49.438467 288.997418 
L 49.152154 291.280334 
L 48.888684 293.565998 
L 48.648083 295.854184 
L 48.430376 298.14466 
L 48.235584 300.4372 
L 48.063727 302.731572 
L 47.914821 305.027548 
L 47.788883 307.324899 
L 47.685924 309.623394 
L 47.605955 311.922804 
L 47.548983 314.222898 
L 47.515015 316.523447 
L 47.504054 318.824221 
L 47.5161 321.124989 
L 47.551153 323.425522 
L 47.60921 325.725589 
L 47.690264 328.024961 
L 47.794307 330.323407 
L 47.921329 332.620698 
L 48.071317 334.916604 
L 48.244256 337.210895 
L 48.44013 339.503342 
L 48.658917 341.793716 
L 48.900597 344.081787 
L 49.165145 346.367328 
L 49.452535 348.650108 
L 49.762738 350.929901 
L 50.095723 353.206477 
L 50.451457 355.47961 
L 50.829904 357.749072 
L 51.231026 360.014637 
L 51.654784 362.276076 
L 52.101134 364.533165 
L 52.570033 366.785678 
L 53.061433 369.03339 
L 53.575285 371.276075 
L 54.111537 373.513509 
L 54.670137 375.745469 
L 55.251029 377.971732 
L 55.854153 380.192074 
L 56.47945 382.406275 
L 57.126858 384.614111 
L 57.796312 386.815364 
L 58.487744 389.009812 
L 59.201085 391.197236 
L 59.936265 393.377417 
L 60.693209 395.550138 
L 61.471843 397.715181 
L 62.272088 399.872329 
L 63.093863 402.021367 
L 63.937088 404.16208 
L 64.801677 406.294254 
L 65.687545 408.417675 
L 66.594602 410.532132 
L 67.522758 412.637413 
L 68.471919 414.733307 
L 69.441993 416.819604 
L 70.43288 418.896097 
L 71.444482 420.962578 
L 72.476698 423.018839 
L 73.529425 425.064675 
L 74.602557 427.099882 
L 75.695987 429.124256 
L 76.809606 431.137595 
L 77.943302 433.139697 
L 79.096963 435.130362 
L 80.270472 437.109391 
L 81.463712 439.076587 
L 82.676564 441.031752 
L 83.908907 442.97469 
L 85.160617 444.905209 
L 86.43157 446.823114 
L 87.721638 448.728214 
L 89.030692 450.620318 
L 90.358601 452.499237 
L 91.705233 454.364783 
L 93.070452 456.21677 
L 94.454123 458.055012 
L 95.856107 459.879326 
L 97.276263 461.689529 
L 98.714451 463.485441 
L 100.170525 465.266881 
L 101.64434 467.033671 
L 103.13575 468.785635 
L 104.644604 470.522598 
L 106.170752 472.244385 
L 107.714041 473.950825 
L 109.274317 475.641748 
L 110.851425 477.316983 
L 112.445205 478.976363 
L 114.055499 480.619723 
L 115.682146 482.246899 
L 117.324983 483.857726 
L 118.983847 485.452045 
L 120.65857 487.029696 
L 122.348985 488.590522 
L 124.054924 490.134365 
L 125.776216 491.661072 
L 127.512689 493.17049 
L 129.264169 494.662468 
L 131.03048 496.136857 
L 132.811448 497.593509 
L 134.606892 499.032279 
L 136.416634 500.453023 
L 138.240493 501.855599 
L 140.078286 503.239867 
L 141.929829 504.605688 
L 143.794938 505.952925 
L 145.673426 507.281444 
L 147.565105 508.591112 
L 149.469786 509.881799 
L 151.387278 511.153374 
L 153.31739 512.405711 
L 155.259929 513.638684 
L 157.2147 514.852171 
L 159.181508 516.04605 
L 161.160156 517.220202 
L 163.150446 518.374508 
L 165.15218 519.508854 
L 167.165157 520.623127 
L 169.189176 521.717214 
L 171.224035 522.791007 
L 173.269529 523.844398 
L 175.325455 524.877282 
L 177.391607 525.889555 
L 179.467778 526.881116 
L 181.553761 527.851866 
L 183.649346 528.801708 
L 185.754326 529.730548 
L 187.868488 530.638291 
L 189.991622 531.524848 
L 192.123515 532.390129 
L 194.263954 533.234049 
L 196.412725 534.056522 
L 198.569613 534.857467 
L 200.734403 535.636804 
L 202.906878 536.394453 
L 205.08682 537.130341 
L 207.274013 537.844393 
L 209.468236 538.536537 
L 211.669271 539.206705 
L 213.876898 539.85483 
L 216.090895 540.480846 
L 218.311041 541.084691 
L 220.537115 541.666305 
L 222.768894 542.22563 
L 225.006154 542.762609 
L 227.248672 543.277189 
L 229.496224 543.769318 
L 231.748585 544.238948 
L 234.005529 544.686031 
L 236.266831 545.110523 
L 238.532264 545.512381 
L 240.801603 545.891564 
L 243.074621 546.248036 
L 245.351089 546.58176 
L 247.630781 546.892704 
L 249.913468 547.180835 
L 252.198922 547.446125 
L 254.486915 547.688548 
L 256.777218 547.908079 
L 259.069601 548.104696 
L 261.363836 548.27838 
L 263.659693 548.429114 
L 265.956943 548.556882 
L 268.255355 548.661671 
L 270.5547 548.743471 
L 272.854748 548.802274 
L 275.15527 548.838075 
L 277.456034 548.850868 
L 279.756811 548.840654 
L 282.057371 548.807432 
L 284.357484 548.751208 
L 286.65692 548.671985 
L 288.955448 548.569772 
L 291.252839 548.444579 
L 293.548864 548.29642 
L 295.843292 548.125307 
L 298.135894 547.93126 
L 300.426442 547.714296 
L 302.714705 547.474438 
L 305.000455 547.21171 
L 307.283464 546.926138 
L 309.563502 546.617751 
L 311.840343 546.286579 
L 314.113759 545.932655 
L 316.383522 545.556016 
L 318.649405 545.156697 
L 320.911181 544.734741 
L 323.168625 544.290188 
L 325.42151 543.823083 
z
" clip-path="url(#pcdc279bc63)" style="fill: #7dff7a"/>
   </g>
   <g id="patch_6">
    <path d="M 60.95321 248.382026 
L 61.667909 246.219264 
L 62.4042 244.063757 
L 63.162008 241.91572 
L 63.941259 239.775369 
L 64.741874 237.642917 
L 65.563773 235.518577 
L 66.406874 233.402563 
L 67.271092 231.295085 
L 68.156342 229.196355 
L 69.062534 227.106582 
L 69.989579 225.025975 
L 70.937383 222.954743 
L 71.905851 220.893092 
L 72.894888 218.841229 
L 73.904393 216.799358 
L 74.934266 214.767685 
L 75.984403 212.746411 
L 77.054701 210.73574 
L 78.145052 208.735872 
L 79.255346 206.747008 
L 80.385474 204.769345 
L 81.535321 202.803083 
L 82.704772 200.848417 
L 83.893712 198.905544 
L 85.102021 196.974656 
L 86.329578 195.055948 
L 87.57626 193.149612 
L 88.841943 191.255837 
L 90.1265 189.374814 
L 91.429802 187.50673 
L 92.751721 185.651772 
L 94.092122 183.810126 
L 95.450872 181.981976 
L 96.827836 180.167504 
L 98.222875 178.366893 
L 99.63585 176.580322 
L 101.06662 174.807969 
L 102.515042 173.050013 
L 103.980971 171.306629 
L 105.46426 169.57799 
L 106.96476 167.864271 
L 108.482323 166.165643 
L 110.016796 164.482274 
L 111.568025 162.814335 
L 113.135856 161.16199 
L 114.720132 159.525407 
L 116.320694 157.904747 
L 117.937383 156.300175 
L 119.570036 154.711848 
L 121.21849 153.139928 
L 122.882581 151.584571 
L 124.562142 150.045931 
L 126.257006 148.524165 
L 127.967002 147.019422 
L 129.691959 145.531855 
L 131.431706 144.061611 
L 133.186068 142.608838 
L 134.95487 141.17368 
L 136.737934 139.756283 
L 138.535084 138.356786 
L 140.346138 136.975331 
L 142.170915 135.612055 
L 144.009235 134.267095 
L 145.860911 132.940584 
L 147.72576 131.632657 
L 149.603595 130.343443 
L 151.494228 129.073072 
L 153.397469 127.82167 
L 155.31313 126.589362 
L 157.241017 125.376273 
L 159.180939 124.182523 
L 161.132701 123.008232 
L 163.096108 121.853516 
L 165.070964 120.718492 
L 167.057072 119.603273 
L 169.054232 118.507971 
L 171.062245 117.432694 
L 173.08091 116.377551 
L 175.110025 115.342647 
L 177.149388 114.328086 
L 179.198795 113.333969 
L 181.25804 112.360395 
L 183.326917 111.407462 
L 184.938464 110.682451 
L 184.002641 108.580557 
L 182.374816 109.312891 
L 180.28504 110.27545 
L 178.204995 111.258858 
L 176.134887 112.263016 
L 174.074925 113.287826 
L 172.025313 114.333183 
L 169.986257 115.398984 
L 167.957961 116.485122 
L 165.940628 117.591488 
L 163.934459 118.717972 
L 161.939655 119.864461 
L 159.956415 121.03084 
L 157.984939 122.216993 
L 156.025422 123.422802 
L 154.078061 124.648144 
L 152.14305 125.892899 
L 150.220584 127.156941 
L 148.310854 128.440145 
L 146.414051 129.742381 
L 144.530365 131.06352 
L 142.659985 132.403429 
L 140.803097 133.761975 
L 138.959887 135.139022 
L 137.130539 136.534431 
L 135.315237 137.948064 
L 133.514161 139.379779 
L 131.727493 140.829432 
L 129.95541 142.29688 
L 128.19809 143.781975 
L 126.455709 145.284568 
L 124.72844 146.80451 
L 123.016457 148.341648 
L 121.319931 149.895829 
L 119.639031 151.466897 
L 117.973925 153.054696 
L 116.324781 154.659066 
L 114.691762 156.279846 
L 113.075033 157.916876 
L 111.474754 159.569991 
L 109.891086 161.239025 
L 108.324188 162.923813 
L 106.774215 164.624185 
L 105.241324 166.339971 
L 103.725666 168.071001 
L 102.227395 169.8171 
L 100.746659 171.578094 
L 99.283607 173.353808 
L 97.838384 175.144063 
L 96.411137 176.94868 
L 95.002006 178.767479 
L 93.611134 180.600279 
L 92.238658 182.446895 
L 90.884718 184.307144 
L 89.549447 186.180838 
L 88.23298 188.067792 
L 86.935447 189.967816 
L 85.65698 191.880719 
L 84.397705 193.806312 
L 83.157748 195.744401 
L 81.937235 197.694792 
L 80.736285 199.657291 
L 79.555021 201.6317 
L 78.393559 203.617824 
L 77.252017 205.615463 
L 76.130507 207.624417 
L 75.029143 209.644485 
L 73.948034 211.675466 
L 72.887289 213.717157 
L 71.847013 215.769352 
L 70.827311 217.831848 
L 69.828284 219.904437 
L 68.850033 221.986912 
L 67.892656 224.079066 
L 66.956247 226.180689 
L 66.040901 228.291571 
L 65.146709 230.411501 
L 64.273761 232.540266 
L 63.422144 234.677654 
L 62.591943 236.823451 
L 61.783241 238.977443 
L 60.99612 241.139415 
L 60.230656 243.309149 
L 59.486928 245.486429 
L 58.76501 247.671037 
z
" clip-path="url(#pcdc279bc63)" style="fill: #ffe600"/>
   </g>
   <g id="patch_7">
    <path d="M 184.938464 110.682451 
L 187.023937 109.766406 
L 189.118466 108.87126 
L 191.221841 107.997105 
L 193.333853 107.144026 
L 195.454289 106.31211 
L 197.582939 105.501439 
L 199.719589 104.712096 
L 201.864025 103.944157 
L 204.016033 103.197701 
L 206.175398 102.472803 
L 208.341904 101.769533 
L 210.515334 101.087964 
L 212.695471 100.428163 
L 214.882097 99.790195 
L 217.074994 99.174126 
L 219.273941 98.580015 
L 221.478719 98.007924 
L 223.689108 97.457909 
L 225.904886 96.930024 
L 228.125833 96.424324 
L 230.226839 95.967366 
L 229.748474 93.716835 
L 227.626245 94.178408 
L 225.382865 94.689217 
L 223.144705 95.222433 
L 220.911989 95.778004 
L 218.68494 96.355875 
L 216.463782 96.955986 
L 214.248735 97.578278 
L 212.040022 98.22269 
L 209.837863 98.889156 
L 207.642479 99.57761 
L 205.454089 100.287983 
L 203.272912 101.020204 
L 201.099167 101.7742 
L 198.933069 102.549895 
L 196.774837 103.347212 
L 194.624686 104.166071 
L 192.482831 105.00639 
L 190.349486 105.868086 
L 188.224865 106.751071 
L 186.109179 107.655259 
L 184.002641 108.580557 
z
" clip-path="url(#pcdc279bc63)" style="fill: #ff4700"/>
   </g>
   <g id="patch_8">
    <path d="M 230.226839 95.967366 
L 232.457196 95.504933 
L 234.692065 95.064825 
L 236.931224 94.647089 
L 239.174448 94.251764 
L 241.421513 93.87889 
L 243.672194 93.528506 
L 245.926267 93.200646 
L 248.183505 92.895342 
L 250.443684 92.612626 
L 252.706577 92.352525 
L 254.971957 92.115066 
L 257.239599 91.900272 
L 259.509275 91.708165 
L 261.780759 91.538764 
L 264.053823 91.392085 
L 266.328241 91.268145 
L 268.603784 91.166954 
L 270.880225 91.088524 
L 273.157337 91.032861 
L 275.434891 90.999972 
L 277.584992 90.989824 
L 277.584992 88.689014 
L 275.413173 88.699265 
L 273.112613 88.732486 
L 270.8125 88.788711 
L 268.513065 88.867934 
L 266.214536 88.970147 
L 263.917145 89.095339 
L 261.62112 89.243499 
L 259.326692 89.414611 
L 257.03409 89.608659 
L 254.743543 89.825622 
L 252.455279 90.06548 
L 250.169529 90.328208 
L 247.886521 90.61378 
L 245.606482 90.922168 
L 243.329641 91.25334 
L 241.056225 91.607263 
L 238.786463 91.983903 
L 236.52058 92.383221 
L 234.258803 92.805178 
L 232.001359 93.24973 
L 229.748474 93.716835 
z
" clip-path="url(#pcdc279bc63)" style="fill: #800000"/>
   </g>
   <g id="PatchCollection_1">
    <path d="M 60.95321 248.382026 
L 60.95321 248.382026 
L 61.667909 246.219264 
L 62.4042 244.063757 
L 63.162008 241.91572 
L 63.941259 239.775369 
L 64.741874 237.642917 
L 65.563773 235.518577 
L 66.406874 233.402563 
L 67.271092 231.295085 
L 68.156342 229.196355 
L 69.062534 227.106582 
L 69.989579 225.025975 
L 70.937383 222.954743 
L 71.905851 220.893092 
L 72.894888 218.841229 
L 73.904393 216.799358 
L 74.934266 214.767685 
L 75.984403 212.746411 
L 77.054701 210.73574 
L 78.145052 208.735872 
L 79.255346 206.747008 
L 80.321608 204.879892 
L 80.321608 204.879892 
Q 277.584992 318.769959 230.226839 95.967366 
L 230.226839 95.967366 
L 230.226839 95.967366 
L 232.457196 95.504933 
L 234.692065 95.064825 
L 236.931224 94.647089 
L 239.174448 94.251764 
L 241.421513 93.87889 
L 243.672194 93.528506 
L 245.926267 93.200646 
L 248.183505 92.895342 
L 250.443684 92.612626 
L 252.706577 92.352525 
L 254.971957 92.115066 
L 257.239599 91.900272 
L 259.509275 91.708165 
L 261.780759 91.538764 
L 264.053823 91.392085 
L 266.328241 91.268145 
L 268.603784 91.166954 
L 270.880225 91.088524 
L 273.157337 91.032861 
L 275.434891 90.999972 
L 277.584992 90.989824 
L 277.584992 90.989824 
Q 277.584992 318.769959 60.95321 248.382026 
z
" clip-path="url(#pcdc279bc63)" style="fill: #ffe600; fill-opacity: 0.5; stroke: #808080; stroke-opacity: 0.5; stroke-width: 0.1"/>
    <path d="M 324.943145 541.572552 
L 324.943145 541.572552 
L 322.712789 542.034986 
L 320.477919 542.475093 
L 318.23876 542.89283 
L 315.995536 543.288155 
L 313.748471 543.661028 
L 311.49779 544.011412 
L 309.243717 544.339273 
L 306.986479 544.644576 
L 304.7263 544.927293 
L 302.463408 545.187394 
L 300.198027 545.424853 
L 297.930385 545.639647 
L 295.660709 545.831754 
L 293.389225 546.001155 
L 291.116161 546.147833 
L 288.841743 546.271774 
L 286.5662 546.372965 
L 284.289759 546.451395 
L 282.012648 546.507058 
L 279.735093 546.539947 
L 277.584992 546.550095 
L 277.584992 546.550095 
Q 277.584992 318.769959 184.938464 110.682451 
L 184.938464 110.682451 
L 184.938464 110.682451 
L 187.023937 109.766406 
L 189.118466 108.87126 
L 191.221841 107.997105 
L 193.333853 107.144026 
L 195.454289 106.31211 
L 197.582939 105.501439 
L 199.719589 104.712096 
L 201.864025 103.944157 
L 204.016033 103.197701 
L 206.175398 102.472803 
L 208.341904 101.769533 
L 210.515334 101.087964 
L 212.695471 100.428163 
L 214.882097 99.790195 
L 217.074994 99.174126 
L 219.273941 98.580015 
L 221.478719 98.007924 
L 223.689108 97.457909 
L 225.904886 96.930024 
L 228.125833 96.424324 
L 230.226839 95.967366 
L 230.226839 95.967366 
Q 277.584992 318.769959 324.943145 541.572552 
z
" clip-path="url(#pcdc279bc63)" style="fill: #7dff7a; fill-opacity: 0.5; stroke: #808080; stroke-opacity: 0.5; stroke-width: 0.1"/>
    <path d="M 277.584992 546.550095 
L 277.584992 546.550095 
L 275.307229 546.538706 
L 273.029693 546.50454 
L 270.752613 546.447601 
L 268.476216 546.367895 
L 266.20073 546.265429 
L 263.926383 546.140213 
L 261.653401 545.992261 
L 259.382012 545.821587 
L 257.112444 545.628208 
L 254.844923 545.412143 
L 252.579676 545.173414 
L 250.316929 544.912045 
L 248.05691 544.628062 
L 245.799843 544.321493 
L 243.545954 543.992369 
L 241.295469 543.640724 
L 239.048614 543.266591 
L 236.805612 542.870009 
L 234.566687 542.451017 
L 232.332065 542.009657 
L 230.226839 541.572552 
L 230.226839 541.572552 
Q 277.584992 318.769959 80.321608 204.879892 
L 80.321608 204.879892 
L 80.321608 204.879892 
L 81.470353 202.912985 
L 82.638709 200.957664 
L 83.82656 199.014124 
L 85.033786 197.08256 
L 86.260267 195.163164 
L 87.505881 193.256129 
L 88.770502 191.361646 
L 90.054005 189.479903 
L 91.35626 187.611088 
L 92.677138 185.75539 
L 94.016507 183.912993 
L 95.374233 182.084081 
L 96.750179 180.268838 
L 98.144209 178.467445 
L 99.556183 176.680083 
L 100.985959 174.906929 
L 102.433395 173.148161 
L 103.898346 171.403955 
L 105.380666 169.674486 
L 106.880206 167.959926 
L 108.311363 166.355299 
L 108.311363 166.355299 
Q 277.584992 318.769959 277.584992 546.550095 
z
" clip-path="url(#pcdc279bc63)" style="fill: #7dff7a; fill-opacity: 0.5; stroke: #808080; stroke-opacity: 0.5; stroke-width: 0.1"/>
    <path d="M 230.226839 541.572552 
L 230.226839 541.572552 
L 228.001218 541.087839 
L 225.780556 540.580893 
L 223.565073 540.051767 
L 221.354993 539.500513 
L 219.150536 538.927186 
L 216.951922 538.331843 
L 214.759371 537.714545 
L 212.573103 537.075352 
L 210.393336 536.414329 
L 208.220288 535.731541 
L 206.054177 535.027058 
L 203.895219 534.300949 
L 201.743629 533.553287 
L 199.599624 532.784147 
L 197.463417 531.993605 
L 195.335222 531.181742 
L 193.215252 530.348637 
L 191.103719 529.494375 
L 189.000834 528.619041 
L 186.906807 527.722722 
L 184.821848 526.805507 
L 182.746165 525.86749 
L 180.679967 524.908762 
L 178.623458 523.929421 
L 176.576846 522.929565 
L 174.540334 521.909292 
L 172.514127 520.868706 
L 170.498426 519.80791 
L 168.493435 518.72701 
L 166.499352 517.626115 
L 164.516378 516.505334 
L 162.54471 515.36478 
L 160.584547 514.204567 
L 158.636083 513.024811 
L 156.699515 511.825629 
L 154.775034 510.607141 
L 152.862835 509.36947 
L 150.963108 508.11274 
L 149.076043 506.837075 
L 147.201828 505.542604 
L 145.340652 504.229455 
L 143.4927 502.897761 
L 141.658157 501.547654 
L 139.837207 500.179269 
L 138.030032 498.792744 
L 136.236811 497.388217 
L 134.457726 495.965828 
L 132.692953 494.525719 
L 130.942669 493.068035 
L 129.20705 491.592922 
L 127.486268 490.100526 
L 125.780495 488.590997 
L 124.089904 487.064486 
L 122.414661 485.521147 
L 120.754935 483.961132 
L 119.110893 482.384598 
L 117.482697 480.791702 
L 115.870512 479.182605 
L 114.274498 477.557467 
L 112.694815 475.91645 
L 111.13162 474.259718 
L 109.585071 472.587438 
L 108.311363 471.184619 
L 108.311363 471.184619 
Q 277.584992 318.769959 411.470796 134.491959 
L 411.470796 134.491959 
L 411.470796 134.491959 
L 413.306852 135.840008 
L 415.129335 137.206351 
L 416.938063 138.590849 
L 418.732857 139.993366 
L 420.513535 141.41376 
L 422.279922 142.851889 
L 424.031838 144.30761 
L 425.76911 145.780777 
L 427.491564 147.271243 
L 429.199028 148.778859 
L 430.89133 150.303473 
L 432.568301 151.844934 
L 434.229774 153.403088 
L 435.875583 154.977778 
L 437.505563 156.568847 
L 439.119552 158.176136 
L 440.717386 159.799484 
L 442.298908 161.438729 
L 443.863959 163.093707 
L 445.412381 164.764253 
L 446.944021 166.450199 
L 448.458726 168.151377 
L 449.956343 169.867617 
L 451.436723 171.598747 
L 452.899718 173.344594 
L 454.345182 175.104983 
L 455.77297 176.879739 
L 457.182939 178.668683 
L 458.574948 180.471638 
L 459.948859 182.288422 
L 461.304534 184.118854 
L 462.641836 185.962751 
L 463.960634 187.819929 
L 465.260793 189.690202 
L 466.542186 191.573383 
L 467.804682 193.469283 
L 469.048157 195.377713 
L 470.272486 197.298483 
L 471.477547 199.231399 
L 472.663218 201.176269 
L 473.829381 203.132898 
L 474.97592 205.101091 
L 476.102721 207.080651 
L 477.209669 209.07138 
L 478.296656 211.073078 
L 479.363571 213.085546 
L 480.410309 215.108582 
L 481.436764 217.141985 
L 482.442834 219.18555 
L 483.428419 221.239073 
L 484.393419 223.30235 
L 485.337739 225.375173 
L 486.261284 227.457336 
L 487.163961 229.548629 
L 488.045681 231.648845 
L 488.906355 233.757773 
L 489.745896 235.875202 
L 490.564222 238.00092 
L 491.36125 240.134715 
L 492.136901 242.276374 
L 492.891096 244.425682 
L 493.623762 246.582424 
L 494.216774 248.382026 
L 494.216774 248.382026 
Q 277.584992 318.769959 230.226839 541.572552 
z
" clip-path="url(#pcdc279bc63)" style="fill: #7dff7a; fill-opacity: 0.5; stroke: #808080; stroke-opacity: 0.5; stroke-width: 0.1"/>
    <path d="M 494.216774 248.382026 
L 494.216774 248.382026 
L 494.90981 250.551828 
L 495.581114 252.72845 
L 496.230618 254.911677 
L 496.858258 257.10129 
L 497.463971 259.29707 
L 498.047696 261.498796 
L 498.609375 263.70625 
L 499.148952 265.91921 
L 499.666373 268.137456 
L 500.161585 270.360764 
L 500.634541 272.588913 
L 501.085191 274.821681 
L 501.513491 277.058843 
L 501.919399 279.300176 
L 502.302874 281.545456 
L 502.663877 283.794459 
L 503.002372 286.046959 
L 503.318326 288.302731 
L 503.611707 290.56155 
L 503.882485 292.82319 
L 504.130634 295.087425 
L 504.356128 297.354027 
L 504.558945 299.622772 
L 504.739065 301.893431 
L 504.89647 304.165777 
L 505.031144 306.439585 
L 505.143073 308.714625 
L 505.232247 310.99067 
L 505.298657 313.267494 
L 505.342295 315.544868 
L 505.363157 317.822564 
L 505.361242 320.100355 
L 505.33655 322.378013 
L 505.289082 324.65531 
L 505.218845 326.932019 
L 505.125844 329.207911 
L 505.010089 331.48276 
L 504.871592 333.756338 
L 504.710367 336.028416 
L 504.526429 338.298769 
L 504.319797 340.56717 
L 504.117324 342.579467 
L 504.117324 342.579467 
Q 277.584992 318.769959 108.311363 166.355299 
L 108.311363 166.355299 
L 108.311363 166.355299 
L 109.843948 164.670212 
L 111.393307 163.000534 
L 112.959285 161.346433 
L 114.541725 159.708075 
L 116.140469 158.085622 
L 117.755358 156.479238 
L 119.38623 154.889083 
L 121.032921 153.315316 
L 122.695267 151.758094 
L 124.373102 150.217573 
L 126.066259 148.693907 
L 127.774567 147.187249 
L 129.497856 145.697749 
L 131.235953 144.225555 
L 132.988686 142.770817 
L 134.755878 141.333677 
L 136.537352 139.914282 
L 138.332931 138.512772 
L 140.142436 137.129287 
L 141.965684 135.763966 
L 143.802495 134.416946 
L 145.652683 133.088361 
L 147.516065 131.778344 
L 149.392453 130.487026 
L 151.281661 129.214536 
L 153.183498 127.961001 
L 155.097776 126.726547 
L 157.024303 125.511298 
L 158.962885 124.315374 
L 160.91333 123.138895 
L 162.875441 121.981979 
L 164.849024 120.844742 
L 166.833879 119.727298 
L 168.82981 118.629757 
L 170.836617 117.55223 
L 172.854098 116.494825 
L 174.882052 115.457647 
L 176.920276 114.440801 
L 178.968567 113.444387 
L 181.026719 112.468505 
L 183.094527 111.513253 
L 184.938464 110.682451 
L 184.938464 110.682451 
Q 277.584992 318.769959 494.216774 248.382026 
z
" clip-path="url(#pcdc279bc63)" style="fill: #0028ff; fill-opacity: 0.5; stroke: #808080; stroke-opacity: 0.5; stroke-width: 0.1"/>
    <path d="M 504.117324 342.579467 
L 504.117324 342.579467 
L 503.867906 344.843562 
L 503.595861 347.10505 
L 503.301214 349.363704 
L 502.983996 351.619299 
L 502.644238 353.871609 
L 502.281975 356.120409 
L 501.897242 358.365474 
L 501.490078 360.606579 
L 501.060523 362.843501 
L 500.608622 365.076015 
L 500.134418 367.303899 
L 499.637959 369.526929 
L 499.119295 371.744884 
L 498.578478 373.957542 
L 498.015562 376.16468 
L 497.430603 378.36608 
L 496.823659 380.561519 
L 496.194792 382.75078 
L 495.544064 384.933642 
L 494.871541 387.109889 
L 494.177288 389.279301 
L 493.461377 391.441662 
L 492.723879 393.596757 
L 491.964866 395.744368 
L 491.184416 397.884283 
L 490.382606 400.016286 
L 489.559517 402.140164 
L 488.71523 404.255706 
L 487.84983 406.362698 
L 486.963404 408.460932 
L 486.056041 410.550197 
L 485.12783 412.630284 
L 484.178865 414.700984 
L 483.209242 416.762092 
L 482.219055 418.813401 
L 481.208406 420.854705 
L 480.177395 422.885801 
L 479.126124 424.906486 
L 478.054699 426.916557 
L 476.963228 428.915813 
L 475.851819 430.904055 
L 474.720584 432.881084 
L 473.569635 434.846701 
L 472.399087 436.800711 
L 471.209059 438.742918 
L 469.999668 440.673128 
L 468.771036 442.591148 
L 467.523286 444.496785 
L 466.256542 446.38985 
L 464.97093 448.270153 
L 463.666581 450.137506 
L 462.343623 451.991723 
L 461.00219 453.832617 
L 459.642415 455.660006 
L 458.264435 457.473705 
L 456.868386 459.273534 
L 455.45441 461.059313 
L 454.022647 462.830863 
L 452.57324 464.588008 
L 451.106334 466.33057 
L 449.622077 468.058377 
L 448.120616 469.771254 
L 446.602101 471.469032 
L 445.066685 473.15154 
L 443.514521 474.81861 
L 441.945764 476.470076 
L 440.360571 478.105771 
L 438.759101 479.725533 
L 437.141514 481.329199 
L 435.507971 482.91661 
L 433.858635 484.487606 
L 432.193673 486.042031 
L 430.51325 487.579728 
L 428.817534 489.100545 
L 427.106695 490.604329 
L 425.380904 492.090929 
L 423.640333 493.560198 
L 421.885157 495.011987 
L 420.115551 496.446153 
L 418.331692 497.862551 
L 416.533759 499.26104 
L 414.721931 500.64148 
L 412.896389 502.003733 
L 411.470796 503.04796 
L 411.470796 503.04796 
Q 277.584992 318.769959 108.311363 471.184619 
L 108.311363 471.184619 
L 108.311363 471.184619 
L 106.795706 469.484291 
L 105.297127 467.768891 
L 103.815777 466.038591 
L 102.351803 464.293564 
L 100.905353 462.533985 
L 99.476571 460.76003 
L 98.065599 458.971876 
L 96.672579 457.169702 
L 95.29765 455.353688 
L 93.94095 453.524016 
L 92.602614 451.680869 
L 91.282776 449.82443 
L 89.981568 447.954887 
L 88.699121 446.072424 
L 87.435561 444.177232 
L 86.191017 442.269499 
L 84.965612 440.349416 
L 83.759468 438.417176 
L 82.572707 436.472971 
L 81.405447 434.516995 
L 80.257805 432.549445 
L 79.129896 430.570517 
L 78.021831 428.580409 
L 76.933723 426.57932 
L 75.86568 424.567451 
L 74.817809 422.545001 
L 73.790214 420.512175 
L 72.782998 418.469174 
L 71.796263 416.416203 
L 70.830106 414.353468 
L 69.884624 412.281174 
L 68.959913 410.19953 
L 68.056063 408.108742 
L 67.173167 406.009021 
L 66.311311 403.900576 
L 65.470583 401.783618 
L 64.651066 399.658358 
L 63.852842 397.52501 
L 63.075991 395.383787 
L 62.320591 393.234902 
L 61.586717 391.07857 
L 60.874443 388.915008 
L 60.183839 386.744432 
L 59.514976 384.567058 
L 58.867919 382.383104 
L 58.242734 380.192789 
L 57.639483 377.996332 
L 57.058227 375.793952 
L 56.499022 373.58587 
L 55.961927 371.372306 
L 55.446993 369.153483 
L 54.954273 366.929621 
L 54.483816 364.700942 
L 54.035669 362.467671 
L 53.609876 360.230031 
L 53.206481 357.988244 
L 52.825523 355.742535 
L 52.467042 353.493129 
L 52.131072 351.240251 
L 51.817647 348.984126 
L 51.526798 346.724979 
L 51.258556 344.463037 
L 51.012945 342.198526 
L 50.789992 339.931672 
L 50.589718 337.662702 
L 50.412144 335.391842 
L 50.257286 333.119321 
L 50.125161 330.845364 
L 50.015782 328.5702 
L 49.92916 326.294056 
L 49.865303 324.017159 
L 49.824217 321.739738 
L 49.805908 319.462019 
L 49.810376 317.184232 
L 49.837622 314.906603 
L 49.887642 312.62936 
L 49.960432 310.352732 
L 50.055984 308.076945 
L 50.174289 305.802228 
L 50.315334 303.528807 
L 50.479107 301.25691 
L 50.665589 298.986765 
L 50.874764 296.718598 
L 51.05266 294.960452 
L 51.05266 294.960452 
Q 277.584992 318.769959 504.117324 342.579467 
z
" clip-path="url(#pcdc279bc63)" style="fill: #0028ff; fill-opacity: 0.5; stroke: #808080; stroke-opacity: 0.5; stroke-width: 0.1"/>
    <path d="M 277.584992 90.989824 
L 277.584992 90.989824 
L 279.862755 91.001213 
L 282.140291 91.035378 
L 284.417371 91.092317 
L 286.693768 91.172024 
L 288.969254 91.27449 
L 291.243602 91.399705 
L 293.516583 91.547657 
L 295.787972 91.718332 
L 298.05754 91.911711 
L 300.325061 92.127776 
L 302.590308 92.366505 
L 304.853055 92.627874 
L 307.113075 92.911857 
L 309.370142 93.218426 
L 311.62403 93.547549 
L 313.874515 93.899195 
L 316.12137 94.273328 
L 318.364373 94.66991 
L 320.603297 95.088902 
L 322.837919 95.530261 
L 324.943145 95.967366 
L 324.943145 95.967366 
Q 277.584992 318.769959 51.05266 294.960452 
L 51.05266 294.960452 
L 51.05266 294.960452 
L 51.302078 292.696357 
L 51.574123 290.434869 
L 51.86877 288.176215 
L 52.185988 285.92062 
L 52.525746 283.66831 
L 52.888009 281.41951 
L 53.272742 279.174445 
L 53.679907 276.93334 
L 54.109461 274.696418 
L 54.561363 272.463903 
L 55.035567 270.23602 
L 55.532025 268.012989 
L 56.050689 265.795034 
L 56.591506 263.582377 
L 57.154422 261.375238 
L 57.739381 259.173839 
L 58.346325 256.978399 
L 58.975192 254.789139 
L 59.62592 252.606276 
L 60.298444 250.43003 
L 60.95321 248.382026 
L 60.95321 248.382026 
Q 277.584992 318.769959 277.584992 90.989824 
z
" clip-path="url(#pcdc279bc63)" style="fill: #000080; fill-opacity: 0.5; stroke: #808080; stroke-opacity: 0.5; stroke-width: 0.1"/>
    <path d="M 324.943145 95.967366 
L 324.943145 95.967366 
L 327.168766 96.45208 
L 329.389429 96.959025 
L 331.604911 97.488151 
L 333.814991 98.039406 
L 336.019448 98.612733 
L 338.218062 99.208075 
L 340.410613 99.825374 
L 342.596881 100.464567 
L 344.776648 101.12559 
L 346.949696 101.808378 
L 349.115807 102.512861 
L 351.274766 103.23897 
L 353.426355 103.986632 
L 355.570361 104.755772 
L 357.706568 105.546313 
L 359.834762 106.358177 
L 361.954732 107.191281 
L 364.066265 108.045543 
L 366.169151 108.920878 
L 368.263177 109.817197 
L 370.23152 110.682451 
L 370.23152 110.682451 
Q 277.584992 318.769959 370.23152 526.857467 
L 370.23152 526.857467 
L 370.23152 526.857467 
L 368.146047 527.773513 
L 366.051518 528.668658 
L 363.948143 529.542814 
L 361.836132 530.395892 
L 359.715695 531.227809 
L 357.587045 532.038479 
L 355.450396 532.827823 
L 353.305959 533.595761 
L 351.153951 534.342217 
L 348.994586 535.067116 
L 346.82808 535.770385 
L 344.65465 536.451955 
L 342.474513 537.111756 
L 340.287887 537.749723 
L 338.094991 538.365793 
L 335.896043 538.959903 
L 333.691265 539.531995 
L 331.480876 540.08201 
L 329.265098 540.609894 
L 327.044151 541.115595 
L 324.943145 541.572552 
L 324.943145 541.572552 
Q 277.584992 318.769959 324.943145 95.967366 
z
" clip-path="url(#pcdc279bc63)" style="fill: #000080; fill-opacity: 0.5; stroke: #808080; stroke-opacity: 0.5; stroke-width: 0.1"/>
    <path d="M 370.23152 110.682451 
L 370.23152 110.682451 
L 372.307728 111.619305 
L 374.374464 112.576874 
L 376.431521 113.555063 
L 378.478693 114.553772 
L 380.515776 115.572903 
L 382.542567 116.612353 
L 384.558861 117.672019 
L 386.564458 118.751795 
L 388.559158 119.851572 
L 390.54276 120.971241 
L 392.515066 122.11069 
L 394.47588 123.269805 
L 396.425004 124.448469 
L 398.362245 125.646565 
L 400.287408 126.863974 
L 402.2003 128.100573 
L 404.100732 129.356238 
L 405.988512 130.630845 
L 407.863451 131.924266 
L 409.725363 133.236371 
L 411.470796 134.491959 
L 411.470796 134.491959 
Q 277.584992 318.769959 411.470796 503.04796 
L 411.470796 503.04796 
L 411.470796 503.04796 
L 409.621353 504.377582 
L 407.758706 505.688643 
L 405.883042 506.981013 
L 403.994548 508.254561 
L 402.093413 509.509162 
L 400.179827 510.744688 
L 398.253982 511.961017 
L 396.31607 513.158028 
L 394.366286 514.335599 
L 392.404823 515.493615 
L 390.431878 516.631958 
L 388.447649 517.750515 
L 386.452333 518.849174 
L 384.446131 519.927825 
L 382.429243 520.986361 
L 380.40187 522.024675 
L 378.364216 523.042664 
L 376.316484 524.040226 
L 374.258879 525.017261 
L 372.191607 525.973672 
L 370.23152 526.857467 
L 370.23152 526.857467 
Q 277.584992 318.769959 370.23152 110.682451 
z
" clip-path="url(#pcdc279bc63)" style="fill: #000080; fill-opacity: 0.5; stroke: #808080; stroke-opacity: 0.5; stroke-width: 0.1"/>
   </g>
   <g id="patch_9">
    <path d="M 277.584992 90.989824 
L 279.862755 91.001213 
L 282.140291 91.035378 
L 284.417371 91.092317 
L 286.693768 91.172024 
L 288.969254 91.27449 
L 291.243602 91.399705 
L 293.516583 91.547657 
L 295.787972 91.718332 
L 298.05754 91.911711 
L 300.325061 92.127776 
L 302.590308 92.366505 
L 304.853055 92.627874 
L 307.113075 92.911857 
L 309.370142 93.218426 
L 311.62403 93.547549 
L 313.874515 93.899195 
L 316.12137 94.273328 
L 318.364373 94.66991 
L 320.603297 95.088902 
L 322.837919 95.530261 
L 325.068016 95.993945 
L 327.293365 96.479906 
L 329.513743 96.988096 
L 331.728929 97.518464 
L 333.938699 98.070957 
L 336.142835 98.645519 
L 338.341115 99.242094 
L 340.533319 99.860621 
L 342.719229 100.50104 
L 344.898625 101.163284 
L 347.07129 101.84729 
L 349.237006 102.552987 
L 351.395557 103.280306 
L 353.546727 104.029174 
L 355.690301 104.799516 
L 357.826065 105.591254 
L 359.953804 106.40431 
L 362.073307 107.238603 
L 364.184361 108.094048 
L 366.286755 108.970561 
L 368.380279 109.868054 
L 370.464723 110.786437 
L 372.53988 111.725618 
L 374.605541 112.685503 
L 376.6615 113.665996 
L 378.707552 114.667 
L 380.743492 115.688414 
L 382.769115 116.730136 
L 384.784221 117.792061 
L 386.788606 118.874085 
L 388.782072 119.976097 
L 390.764417 121.097989 
L 392.735445 122.239648 
L 394.694958 123.40096 
L 396.64276 124.581808 
L 398.578656 125.782075 
L 400.502453 127.001641 
L 402.413959 128.240384 
L 404.312981 129.498179 
L 406.199331 130.774901 
L 408.07282 132.070423 
L 409.93326 133.384614 
L 411.470796 134.491959 
L 412.823178 132.630565 
L 411.270111 131.512035 
L 409.390879 130.184569 
L 407.498466 128.875961 
L 405.593062 127.586343 
L 403.674857 126.315842 
L 401.744044 125.064587 
L 399.800814 123.832703 
L 397.845364 122.620312 
L 395.877887 121.427535 
L 393.898581 120.254493 
L 391.907644 119.101302 
L 389.905274 117.968078 
L 387.891673 116.854934 
L 385.867041 115.761982 
L 383.831581 114.689329 
L 381.785497 113.637085 
L 379.728992 112.605354 
L 377.662273 111.594239 
L 375.585547 110.603842 
L 373.49902 109.634261 
L 371.402902 108.685593 
L 369.297403 107.757934 
L 367.182732 106.851376 
L 365.059102 105.966009 
L 362.926724 105.101922 
L 360.785812 104.259203 
L 358.636581 103.437934 
L 356.479244 102.638198 
L 354.314017 101.860075 
L 352.141118 101.103643 
L 349.960764 100.368977 
L 347.773171 99.656152 
L 345.57856 98.965237 
L 343.37715 98.296303 
L 341.169161 97.649416 
L 338.954813 97.024641 
L 336.734328 96.42204 
L 334.507929 95.841674 
L 332.275837 95.2836 
L 330.038276 94.747875 
L 327.79547 94.234552 
L 325.547643 93.743682 
L 323.295019 93.275315 
L 321.037825 92.829497 
L 318.776286 92.406273 
L 316.510627 92.005685 
L 314.241076 91.627773 
L 311.967859 91.272575 
L 309.691204 90.940127 
L 307.411338 90.630462 
L 305.12849 90.34361 
L 302.842887 90.079601 
L 300.554759 89.838461 
L 298.264334 89.620213 
L 295.97184 89.424881 
L 293.677509 89.252483 
L 291.381567 89.103036 
L 289.084247 88.976556 
L 286.785776 88.873055 
L 284.486385 88.792543 
L 282.186304 88.735029 
L 279.885763 88.700518 
L 277.584992 88.689014 
L 277.584992 90.989824 
z
" clip-path="url(#pcdc279bc63)" style="fill: none; stroke: #000000; stroke-width: 0.5; stroke-linejoin: miter"/>
   </g>
   <g id="patch_10">
    <path d="M 411.470796 134.491959 
L 413.306852 135.840008 
L 415.129335 137.206351 
L 416.938063 138.590849 
L 418.732857 139.993366 
L 420.513535 141.41376 
L 422.279922 142.851889 
L 424.031838 144.30761 
L 425.76911 145.780777 
L 427.491564 147.271243 
L 429.199028 148.778859 
L 430.89133 150.303473 
L 432.568301 151.844934 
L 434.229774 153.403088 
L 435.875583 154.977778 
L 437.505563 156.568847 
L 439.119552 158.176136 
L 440.717386 159.799484 
L 442.298908 161.438729 
L 443.863959 163.093707 
L 445.412381 164.764253 
L 446.944021 166.450199 
L 448.458726 168.151377 
L 449.956343 169.867617 
L 451.436723 171.598747 
L 452.899718 173.344594 
L 454.345182 175.104983 
L 455.77297 176.879739 
L 457.182939 178.668683 
L 458.574948 180.471638 
L 459.948859 182.288422 
L 461.304534 184.118854 
L 462.641836 185.962751 
L 463.960634 187.819929 
L 465.260793 189.690202 
L 466.542186 191.573383 
L 467.804682 193.469283 
L 469.048157 195.377713 
L 470.272486 197.298483 
L 471.477547 199.231399 
L 472.663218 201.176269 
L 473.829381 203.132898 
L 474.97592 205.101091 
L 476.102721 207.080651 
L 477.209669 209.07138 
L 478.296656 211.073078 
L 479.363571 213.085546 
L 480.410309 215.108582 
L 481.436764 217.141985 
L 482.442834 219.18555 
L 483.428419 221.239073 
L 484.393419 223.30235 
L 485.337739 225.375173 
L 486.261284 227.457336 
L 487.163961 229.548629 
L 488.045681 231.648845 
L 488.906355 233.757773 
L 489.745896 235.875202 
L 490.564222 238.00092 
L 491.36125 240.134715 
L 492.136901 242.276374 
L 492.891096 244.425682 
L 493.623762 246.582424 
L 494.334823 248.746386 
L 495.02421 250.917349 
L 495.691853 253.095097 
L 496.337685 255.279413 
L 496.961642 257.470078 
L 497.563662 259.666873 
L 498.143684 261.869578 
L 498.701651 264.077974 
L 499.237506 266.291838 
L 499.751196 268.51095 
L 500.242669 270.735088 
L 500.711877 272.964029 
L 501.158773 275.197551 
L 501.583311 277.43543 
L 501.985449 279.677443 
L 502.365148 281.923365 
L 502.722369 284.172971 
L 503.057076 286.426037 
L 503.369237 288.682338 
L 503.658819 290.941647 
L 503.925794 293.203739 
L 504.170135 295.468387 
L 504.391817 297.735366 
L 504.59082 300.004448 
L 504.767121 302.275407 
L 504.920705 304.548015 
L 505.051555 306.822046 
L 505.159659 309.097271 
L 505.245006 311.373463 
L 505.307587 313.650395 
L 505.347396 315.927839 
L 505.364428 318.205567 
L 505.358683 320.483352 
L 505.330161 322.760965 
L 505.278864 325.038179 
L 505.204799 327.314767 
L 505.107971 329.590499 
L 504.988392 331.86515 
L 504.846072 334.138492 
L 504.681026 336.410296 
L 504.493271 338.680337 
L 504.282825 340.948386 
L 504.04971 343.214218 
L 503.793948 345.477605 
L 503.515566 347.738321 
L 503.21459 349.996141 
L 502.891052 352.250838 
L 502.544984 354.502187 
L 502.17642 356.749963 
L 501.785397 358.993941 
L 501.371954 361.233896 
L 500.936132 363.469606 
L 500.477976 365.700845 
L 499.99753 367.927391 
L 499.494843 370.149021 
L 498.969966 372.365514 
L 498.42295 374.576647 
L 497.853851 376.7822 
L 497.262725 378.981951 
L 496.649631 381.175681 
L 496.014631 383.363171 
L 495.357788 385.544201 
L 494.679168 387.718554 
L 493.978839 389.886012 
L 493.256871 392.046359 
L 492.513336 394.199378 
L 491.748308 396.344854 
L 490.961864 398.482573 
L 490.154082 400.61232 
L 489.325044 402.733884 
L 488.474832 404.847051 
L 487.603531 406.95161 
L 486.711228 409.047352 
L 485.798013 411.134065 
L 484.863977 413.211543 
L 483.909213 415.279576 
L 482.933817 417.337958 
L 481.937886 419.386484 
L 480.92152 421.424948 
L 479.88482 423.453147 
L 478.827891 425.470877 
L 477.750837 427.477937 
L 476.653767 429.474127 
L 475.536791 431.459247 
L 474.400019 433.433097 
L 473.243566 435.395482 
L 472.067548 437.346203 
L 470.872081 439.285068 
L 469.657286 441.211881 
L 468.423283 443.12645 
L 467.170197 445.028583 
L 465.898153 446.918091 
L 464.607277 448.794783 
L 463.2977 450.658474 
L 461.969551 452.508976 
L 460.622964 454.346104 
L 459.258073 456.169674 
L 457.875016 457.979505 
L 456.473929 459.775415 
L 455.054953 461.557224 
L 453.618231 463.324755 
L 452.163906 465.07783 
L 450.692123 466.816275 
L 449.203029 468.539915 
L 447.696773 470.248578 
L 446.173507 471.942094 
L 444.633382 473.620292 
L 443.076552 475.283006 
L 441.503173 476.930068 
L 439.913402 478.561315 
L 438.307399 480.176582 
L 436.685324 481.775709 
L 435.047338 483.358536 
L 433.393607 484.924904 
L 431.724295 486.474656 
L 430.039569 488.007639 
L 428.339598 489.523697 
L 426.624551 491.02268 
L 424.894601 492.504439 
L 423.149919 493.968823 
L 421.390682 495.415689 
L 419.617064 496.844889 
L 417.829243 498.256283 
L 416.027397 499.649728 
L 414.211708 501.025085 
L 412.382355 502.382216 
L 410.539524 503.720987 
L 408.683396 505.041263 
L 406.81416 506.342911 
L 404.932 507.625803 
L 403.037106 508.889809 
L 401.129666 510.134803 
L 399.209873 511.360661 
L 397.277916 512.56726 
L 395.333991 513.75448 
L 393.378291 514.922201 
L 391.411012 516.070307 
L 389.43235 517.198684 
L 387.442503 518.307217 
L 385.441671 519.395797 
L 383.430053 520.464315 
L 381.407851 521.512663 
L 379.375267 522.540737 
L 377.332504 523.548435 
L 375.279766 524.535654 
L 373.217258 525.502298 
L 371.145188 526.448268 
L 370.23152 526.857467 
L 371.167343 528.959361 
L 372.09024 528.546029 
L 374.183241 527.590503 
L 376.266582 526.614096 
L 378.340054 525.616904 
L 380.403452 524.599028 
L 382.456567 523.560569 
L 384.499196 522.501632 
L 386.531133 521.422321 
L 388.552175 520.322745 
L 390.562121 519.203014 
L 392.560769 518.06324 
L 394.54792 516.903537 
L 396.523375 515.724021 
L 398.486936 514.524809 
L 400.438407 513.306022 
L 402.377592 512.067782 
L 404.304299 510.810212 
L 406.218333 509.533438 
L 408.119505 508.237588 
L 410.007623 506.922791 
L 411.882499 505.589179 
L 413.743945 504.236886 
L 415.591775 502.866046 
L 417.425805 501.476796 
L 419.245851 500.069276 
L 421.051731 498.643626 
L 422.843265 497.199989 
L 424.620272 495.738509 
L 426.382577 494.259332 
L 428.130001 492.762607 
L 429.862372 491.248482 
L 431.579514 489.71711 
L 433.281258 488.168643 
L 434.967431 486.603237 
L 436.637867 485.021047 
L 438.292398 483.422232 
L 439.930858 481.806952 
L 441.553083 480.175369 
L 443.158912 478.527645 
L 444.748184 476.863946 
L 446.320739 475.184437 
L 447.876421 473.489287 
L 449.415074 471.778665 
L 450.936544 470.052743 
L 452.440679 468.311692 
L 453.927329 466.555687 
L 455.396345 464.784904 
L 456.847579 462.999519 
L 458.280888 461.199712 
L 459.696127 459.385662 
L 461.093155 457.55755 
L 462.471832 455.71556 
L 463.832021 453.859875 
L 465.173586 451.990681 
L 466.496391 450.108166 
L 467.800306 448.212516 
L 469.085199 446.303923 
L 470.350943 444.382576 
L 471.59741 442.448668 
L 472.824476 440.502392 
L 474.032018 438.543943 
L 475.219916 436.573517 
L 476.38805 434.591311 
L 477.536304 432.597522 
L 478.664563 430.592351 
L 479.772714 428.575998 
L 480.860647 426.548664 
L 481.928253 424.510553 
L 482.975424 422.461867 
L 484.002056 420.402812 
L 485.008047 418.333595 
L 485.993296 416.25442 
L 486.957704 414.165498 
L 487.901175 412.067036 
L 488.823614 409.959244 
L 489.72493 407.842334 
L 490.605032 405.716516 
L 491.463832 403.582004 
L 492.301245 401.439011 
L 493.117186 399.287751 
L 493.911574 397.128439 
L 494.684329 394.961291 
L 495.435375 392.786524 
L 496.164636 390.604356 
L 496.872039 388.415004 
L 497.557513 386.218688 
L 498.220991 384.015627 
L 498.862405 381.806042 
L 499.481692 379.590153 
L 500.078789 377.368182 
L 500.653637 375.140351 
L 501.206178 372.906883 
L 501.736357 370.668002 
L 502.244121 368.423931 
L 502.72942 366.174894 
L 503.192204 363.921117 
L 503.632428 361.662825 
L 504.050047 359.400244 
L 504.44502 357.133599 
L 504.817307 354.863119 
L 505.166871 352.589029 
L 505.493677 350.311557 
L 505.797693 348.030931 
L 506.078887 345.747379 
L 506.337232 343.461129 
L 506.572702 341.172411 
L 506.785274 338.881452 
L 506.974925 336.588481 
L 507.141638 334.293729 
L 507.285396 331.997425 
L 507.406183 329.699798 
L 507.503989 327.401078 
L 507.578803 325.101495 
L 507.630617 322.801278 
L 507.659428 320.500659 
L 507.665231 318.199866 
L 507.648026 315.899131 
L 507.607815 313.598682 
L 507.544602 311.298751 
L 507.458393 308.999567 
L 507.349198 306.70136 
L 507.217025 304.404359 
L 507.06189 302.108795 
L 506.883808 299.814898 
L 506.682795 297.522896 
L 506.458873 295.233018 
L 506.212064 292.945494 
L 505.942393 290.660553 
L 505.649886 288.378422 
L 505.334572 286.099331 
L 504.996484 283.823507 
L 504.635655 281.551177 
L 504.252121 279.282569 
L 503.84592 277.01791 
L 503.417094 274.757426 
L 502.965684 272.501343 
L 502.491737 270.249887 
L 501.995299 268.003283 
L 501.47642 265.761756 
L 500.935152 263.525529 
L 500.37155 261.294827 
L 499.785669 259.069872 
L 499.177568 256.850888 
L 498.547308 254.638095 
L 497.894952 252.431715 
L 497.220565 250.231969 
L 496.524215 248.039077 
L 495.805971 245.853257 
L 495.065906 243.67473 
L 494.304092 241.503712 
L 493.520606 239.34042 
L 492.715527 237.185071 
L 491.888936 235.037881 
L 491.040914 232.899064 
L 490.171546 230.768834 
L 489.280921 228.647404 
L 488.369125 226.534986 
L 487.436252 224.431791 
L 486.482393 222.338031 
L 485.507645 220.253913 
L 484.512105 218.179647 
L 483.495873 216.11544 
L 482.459049 214.061498 
L 481.401738 212.018027 
L 480.324046 209.985231 
L 479.22608 207.963313 
L 478.10795 205.952476 
L 476.969768 203.952921 
L 475.811648 201.964847 
L 474.633705 199.988454 
L 473.436057 198.023939 
L 472.218825 196.071498 
L 470.982129 194.131327 
L 469.726094 192.20362 
L 468.450844 190.288569 
L 467.156509 188.386366 
L 465.843216 186.497202 
L 464.511097 184.621264 
L 463.160287 182.758742 
L 461.790918 180.90982 
L 460.40313 179.074685 
L 458.99706 177.253519 
L 457.572848 175.446504 
L 456.130638 173.653822 
L 454.670574 171.875651 
L 453.192801 170.112169 
L 451.697468 168.363553 
L 450.184723 166.629977 
L 448.654719 164.911616 
L 447.107607 163.20864 
L 445.543544 161.52122 
L 443.962685 159.849525 
L 442.365188 158.193722 
L 440.751214 156.553976 
L 439.120923 154.930452 
L 437.474478 153.323311 
L 435.812045 151.732715 
L 434.133789 150.158823 
L 432.439878 148.601791 
L 430.730482 147.061777 
L 429.005772 145.538933 
L 427.26592 144.033412 
L 425.511099 142.545364 
L 423.741486 141.074939 
L 421.957258 139.622283 
L 420.158593 138.187542 
L 418.34567 136.770858 
L 416.518671 135.372375 
L 414.677779 133.992231 
L 412.823178 132.630565 
L 411.470796 134.491959 
z
" clip-path="url(#pcdc279bc63)" style="fill: none; stroke: #000000; stroke-width: 0.5; stroke-linejoin: miter"/>
   </g>
   <g id="patch_11">
    <path d="M 370.23152 526.857467 
L 368.146047 527.773513 
L 366.051518 528.668658 
L 363.948143 529.542814 
L 361.836132 530.395892 
L 359.715695 531.227809 
L 357.587045 532.038479 
L 355.450396 532.827823 
L 353.305959 533.595761 
L 351.153951 534.342217 
L 348.994586 535.067116 
L 346.82808 535.770385 
L 344.65465 536.451955 
L 342.474513 537.111756 
L 340.287887 537.749723 
L 338.094991 538.365793 
L 335.896043 538.959903 
L 333.691265 539.531995 
L 331.480876 540.08201 
L 329.265098 540.609894 
L 327.044151 541.115595 
L 324.943145 541.572552 
L 325.42151 543.823083 
L 327.543739 543.36151 
L 329.787119 542.850702 
L 332.025279 542.317485 
L 334.257995 541.761914 
L 336.485044 541.184044 
L 338.706203 540.583933 
L 340.921249 539.96164 
L 343.129963 539.317229 
L 345.332121 538.650763 
L 347.527505 537.962309 
L 349.715895 537.251936 
L 351.897072 536.519715 
L 354.070818 535.765719 
L 356.236915 534.990024 
L 358.395147 534.192707 
L 360.545298 533.373848 
L 362.687153 532.533528 
L 364.820498 531.671833 
L 366.94512 530.788847 
L 369.060805 529.88466 
L 371.167343 528.959361 
L 370.23152 526.857467 
z
" clip-path="url(#pcdc279bc63)" style="fill: none; stroke: #000000; stroke-width: 0.5; stroke-linejoin: miter"/>
   </g>
   <g id="patch_12">
    <path d="M 324.943145 541.572552 
L 322.712789 542.034986 
L 320.477919 542.475093 
L 318.23876 542.89283 
L 315.995536 543.288155 
L 313.748471 543.661028 
L 311.49779 544.011412 
L 309.243717 544.339273 
L 306.986479 544.644576 
L 304.7263 544.927293 
L 302.463408 545.187394 
L 300.198027 545.424853 
L 297.930385 545.639647 
L 295.660709 545.831754 
L 293.389225 546.001155 
L 291.116161 546.147833 
L 288.841743 546.271774 
L 286.5662 546.372965 
L 284.289759 546.451395 
L 282.012648 546.507058 
L 279.735093 546.539947 
L 277.457324 546.550059 
L 275.179567 546.537393 
L 272.902051 546.501951 
L 270.625003 546.443736 
L 268.348651 546.362754 
L 266.073223 546.259012 
L 263.798946 546.132522 
L 261.526048 545.983296 
L 259.254755 545.811349 
L 256.985295 545.616697 
L 254.717896 545.399362 
L 252.452783 545.159363 
L 250.190183 544.896726 
L 247.930323 544.611476 
L 245.673428 544.303642 
L 243.419725 543.973255 
L 241.169437 543.620348 
L 238.922792 543.244956 
L 236.680012 542.847117 
L 234.441323 542.426871 
L 232.206949 541.984258 
L 229.977112 541.519325 
L 227.752036 541.032117 
L 225.531943 540.522682 
L 223.317055 539.991073 
L 221.107594 539.437342 
L 218.903781 538.861544 
L 216.705836 538.263737 
L 214.513979 537.643981 
L 212.328428 537.002338 
L 210.149404 536.338871 
L 207.977123 535.653648 
L 205.811802 534.946737 
L 203.653659 534.218209 
L 201.502909 533.468135 
L 199.359767 532.696592 
L 197.224448 531.903657 
L 195.097164 531.089408 
L 192.978129 530.253928 
L 190.867555 529.397299 
L 188.765653 528.519608 
L 186.672632 527.620942 
L 184.588703 526.701391 
L 182.514073 525.761047 
L 180.44895 524.800004 
L 178.393541 523.818359 
L 176.34805 522.816208 
L 174.312684 521.793654 
L 172.287644 520.750797 
L 170.273134 519.687742 
L 168.269356 518.604595 
L 166.276508 517.501465 
L 164.294792 516.378463 
L 162.324404 515.235699 
L 160.365542 514.073289 
L 158.418403 512.891349 
L 156.483179 511.689997 
L 154.560066 510.469353 
L 152.649255 509.22954 
L 150.750938 507.97068 
L 148.865304 506.692901 
L 146.992542 505.396329 
L 145.132839 504.081095 
L 143.286381 502.74733 
L 141.453353 501.395168 
L 139.633938 500.024743 
L 137.828317 498.636193 
L 136.036673 497.229656 
L 134.259183 495.805274 
L 132.496026 494.363188 
L 130.747377 492.903543 
L 129.013412 491.426484 
L 127.294304 489.932161 
L 125.590225 488.420721 
L 123.901345 486.892316 
L 122.227834 485.347099 
L 120.569858 483.785225 
L 118.927584 482.206849 
L 117.301175 480.612129 
L 115.690794 479.001226 
L 114.096603 477.374299 
L 112.51876 475.731512 
L 110.957424 474.07303 
L 109.412751 472.399017 
L 107.884894 470.709641 
L 106.374008 469.005071 
L 104.880242 467.285478 
L 103.403747 465.551034 
L 101.944669 463.801911 
L 100.503156 462.038286 
L 99.079351 460.260334 
L 97.673396 458.468233 
L 96.285432 456.662162 
L 94.915598 454.842302 
L 93.56403 453.008835 
L 92.230865 451.161944 
L 90.916235 449.301814 
L 89.620271 447.428631 
L 88.343104 445.542582 
L 87.084861 443.643856 
L 85.845668 441.732643 
L 84.625648 439.809134 
L 83.424925 437.873521 
L 82.243617 435.925997 
L 81.081843 433.966758 
L 79.939719 431.996 
L 78.81736 430.013919 
L 77.714877 428.020713 
L 76.632381 426.016583 
L 75.56998 424.001728 
L 74.527781 421.97635 
L 73.505887 419.940651 
L 72.504401 417.894836 
L 71.523423 415.839108 
L 70.56305 413.773673 
L 69.62338 411.698738 
L 68.704506 409.61451 
L 67.806519 407.521198 
L 66.92951 405.419011 
L 66.073567 403.308159 
L 65.238775 401.188853 
L 64.425217 399.061305 
L 63.632974 396.925728 
L 62.862127 394.782336 
L 62.112752 392.631343 
L 61.384924 390.472963 
L 60.678716 388.307413 
L 59.994198 386.13491 
L 59.33144 383.95567 
L 58.690506 381.769912 
L 58.071461 379.577853 
L 57.474368 377.379714 
L 56.899286 375.175714 
L 56.346272 372.966074 
L 55.815382 370.751013 
L 55.306668 368.530755 
L 54.820182 366.305521 
L 54.355973 364.075533 
L 53.914086 361.841015 
L 53.494566 359.60219 
L 53.097455 357.359281 
L 52.722792 355.112514 
L 52.370616 352.862112 
L 52.040961 350.608301 
L 51.73386 348.351307 
L 51.449344 346.091354 
L 51.187441 343.828669 
L 50.948178 341.563478 
L 50.731578 339.296008 
L 50.537664 337.026486 
L 50.366454 334.755138 
L 50.217965 332.482191 
L 50.092214 330.207873 
L 49.989211 327.932411 
L 49.908968 325.656033 
L 49.851492 323.378966 
L 49.816789 321.101439 
L 49.804863 318.823678 
L 49.815715 316.545912 
L 49.849343 314.268369 
L 49.905745 311.991275 
L 49.984915 309.71486 
L 50.086844 307.43935 
L 50.211523 305.164972 
L 50.358939 302.891956 
L 50.529078 300.620527 
L 50.721922 298.350913 
L 50.937452 296.083341 
L 51.175647 293.818038 
L 51.436482 291.55523 
L 51.719932 289.295143 
L 52.025969 287.038004 
L 52.354561 284.784038 
L 52.705676 282.53347 
L 53.079278 280.286527 
L 53.475331 278.043431 
L 53.893795 275.804408 
L 54.334628 273.569682 
L 54.797786 271.339475 
L 55.283222 269.114012 
L 55.790888 266.893514 
L 56.320734 264.678204 
L 56.872705 262.468303 
L 57.446748 260.264032 
L 58.042804 258.065611 
L 58.660815 255.873261 
L 59.300717 253.6872 
L 59.962448 251.507648 
L 60.645941 249.334822 
L 60.95321 248.382026 
L 58.76501 247.671037 
L 58.454638 248.633457 
L 57.764241 250.828231 
L 57.095826 253.029799 
L 56.449459 255.237941 
L 55.825207 257.452436 
L 55.223129 259.673063 
L 54.643288 261.899599 
L 54.085741 264.131822 
L 53.550544 266.369509 
L 53.03775 268.612437 
L 52.54741 270.860379 
L 52.079574 273.113113 
L 51.634288 275.370413 
L 51.211598 277.632052 
L 50.811544 279.897805 
L 50.434167 282.167445 
L 50.079506 284.440746 
L 49.747595 286.717479 
L 49.438467 288.997418 
L 49.152154 291.280334 
L 48.888684 293.565998 
L 48.648083 295.854184 
L 48.430376 298.14466 
L 48.235584 300.4372 
L 48.063727 302.731572 
L 47.914821 305.027548 
L 47.788883 307.324899 
L 47.685924 309.623394 
L 47.605955 311.922804 
L 47.548983 314.222898 
L 47.515015 316.523447 
L 47.504054 318.824221 
L 47.5161 321.124989 
L 47.551153 323.425522 
L 47.60921 325.725589 
L 47.690264 328.024961 
L 47.794307 330.323407 
L 47.921329 332.620698 
L 48.071317 334.916604 
L 48.244256 337.210895 
L 48.44013 339.503342 
L 48.658917 341.793716 
L 48.900597 344.081787 
L 49.165145 346.367328 
L 49.452535 348.650108 
L 49.762738 350.929901 
L 50.095723 353.206477 
L 50.451457 355.47961 
L 50.829904 357.749072 
L 51.231026 360.014637 
L 51.654784 362.276076 
L 52.101134 364.533165 
L 52.570033 366.785678 
L 53.061433 369.03339 
L 53.575285 371.276075 
L 54.111537 373.513509 
L 54.670137 375.745469 
L 55.251029 377.971732 
L 55.854153 380.192074 
L 56.47945 382.406275 
L 57.126858 384.614111 
L 57.796312 386.815364 
L 58.487744 389.009812 
L 59.201085 391.197236 
L 59.936265 393.377417 
L 60.693209 395.550138 
L 61.471843 397.715181 
L 62.272088 399.872329 
L 63.093863 402.021367 
L 63.937088 404.16208 
L 64.801677 406.294254 
L 65.687545 408.417675 
L 66.594602 410.532132 
L 67.522758 412.637413 
L 68.471919 414.733307 
L 69.441993 416.819604 
L 70.43288 418.896097 
L 71.444482 420.962578 
L 72.476698 423.018839 
L 73.529425 425.064675 
L 74.602557 427.099882 
L 75.695987 429.124256 
L 76.809606 431.137595 
L 77.943302 433.139697 
L 79.096963 435.130362 
L 80.270472 437.109391 
L 81.463712 439.076587 
L 82.676564 441.031752 
L 83.908907 442.97469 
L 85.160617 444.905209 
L 86.43157 446.823114 
L 87.721638 448.728214 
L 89.030692 450.620318 
L 90.358601 452.499237 
L 91.705233 454.364783 
L 93.070452 456.21677 
L 94.454123 458.055012 
L 95.856107 459.879326 
L 97.276263 461.689529 
L 98.714451 463.485441 
L 100.170525 465.266881 
L 101.64434 467.033671 
L 103.13575 468.785635 
L 104.644604 470.522598 
L 106.170752 472.244385 
L 107.714041 473.950825 
L 109.274317 475.641748 
L 110.851425 477.316983 
L 112.445205 478.976363 
L 114.055499 480.619723 
L 115.682146 482.246899 
L 117.324983 483.857726 
L 118.983847 485.452045 
L 120.65857 487.029696 
L 122.348985 488.590522 
L 124.054924 490.134365 
L 125.776216 491.661072 
L 127.512689 493.17049 
L 129.264169 494.662468 
L 131.03048 496.136857 
L 132.811448 497.593509 
L 134.606892 499.032279 
L 136.416634 500.453023 
L 138.240493 501.855599 
L 140.078286 503.239867 
L 141.929829 504.605688 
L 143.794938 505.952925 
L 145.673426 507.281444 
L 147.565105 508.591112 
L 149.469786 509.881799 
L 151.387278 511.153374 
L 153.31739 512.405711 
L 155.259929 513.638684 
L 157.2147 514.852171 
L 159.181508 516.04605 
L 161.160156 517.220202 
L 163.150446 518.374508 
L 165.15218 519.508854 
L 167.165157 520.623127 
L 169.189176 521.717214 
L 171.224035 522.791007 
L 173.269529 523.844398 
L 175.325455 524.877282 
L 177.391607 525.889555 
L 179.467778 526.881116 
L 181.553761 527.851866 
L 183.649346 528.801708 
L 185.754326 529.730548 
L 187.868488 530.638291 
L 189.991622 531.524848 
L 192.123515 532.390129 
L 194.263954 533.234049 
L 196.412725 534.056522 
L 198.569613 534.857467 
L 200.734403 535.636804 
L 202.906878 536.394453 
L 205.08682 537.130341 
L 207.274013 537.844393 
L 209.468236 538.536537 
L 211.669271 539.206705 
L 213.876898 539.85483 
L 216.090895 540.480846 
L 218.311041 541.084691 
L 220.537115 541.666305 
L 222.768894 542.22563 
L 225.006154 542.762609 
L 227.248672 543.277189 
L 229.496224 543.769318 
L 231.748585 544.238948 
L 234.005529 544.686031 
L 236.266831 545.110523 
L 238.532264 545.512381 
L 240.801603 545.891564 
L 243.074621 546.248036 
L 245.351089 546.58176 
L 247.630781 546.892704 
L 249.913468 547.180835 
L 252.198922 547.446125 
L 254.486915 547.688548 
L 256.777218 547.908079 
L 259.069601 548.104696 
L 261.363836 548.27838 
L 263.659693 548.429114 
L 265.956943 548.556882 
L 268.255355 548.661671 
L 270.5547 548.743471 
L 272.854748 548.802274 
L 275.15527 548.838075 
L 277.456034 548.850868 
L 279.756811 548.840654 
L 282.057371 548.807432 
L 284.357484 548.751208 
L 286.65692 548.671985 
L 288.955448 548.569772 
L 291.252839 548.444579 
L 293.548864 548.29642 
L 295.843292 548.125307 
L 298.135894 547.93126 
L 300.426442 547.714296 
L 302.714705 547.474438 
L 305.000455 547.21171 
L 307.283464 546.926138 
L 309.563502 546.617751 
L 311.840343 546.286579 
L 314.113759 545.932655 
L 316.383522 545.556016 
L 318.649405 545.156697 
L 320.911181 544.734741 
L 323.168625 544.290188 
L 325.42151 543.823083 
L 324.943145 541.572552 
z
" clip-path="url(#pcdc279bc63)" style="fill: none; stroke: #000000; stroke-width: 0.5; stroke-linejoin: miter"/>
   </g>
   <g id="patch_13">
    <path d="M 60.95321 248.382026 
L 61.667909 246.219264 
L 62.4042 244.063757 
L 63.162008 241.91572 
L 63.941259 239.775369 
L 64.741874 237.642917 
L 65.563773 235.518577 
L 66.406874 233.402563 
L 67.271092 231.295085 
L 68.156342 229.196355 
L 69.062534 227.106582 
L 69.989579 225.025975 
L 70.937383 222.954743 
L 71.905851 220.893092 
L 72.894888 218.841229 
L 73.904393 216.799358 
L 74.934266 214.767685 
L 75.984403 212.746411 
L 77.054701 210.73574 
L 78.145052 208.735872 
L 79.255346 206.747008 
L 80.385474 204.769345 
L 81.535321 202.803083 
L 82.704772 200.848417 
L 83.893712 198.905544 
L 85.102021 196.974656 
L 86.329578 195.055948 
L 87.57626 193.149612 
L 88.841943 191.255837 
L 90.1265 189.374814 
L 91.429802 187.50673 
L 92.751721 185.651772 
L 94.092122 183.810126 
L 95.450872 181.981976 
L 96.827836 180.167504 
L 98.222875 178.366893 
L 99.63585 176.580322 
L 101.06662 174.807969 
L 102.515042 173.050013 
L 103.980971 171.306629 
L 105.46426 169.57799 
L 106.96476 167.864271 
L 108.482323 166.165643 
L 110.016796 164.482274 
L 111.568025 162.814335 
L 113.135856 161.16199 
L 114.720132 159.525407 
L 116.320694 157.904747 
L 117.937383 156.300175 
L 119.570036 154.711848 
L 121.21849 153.139928 
L 122.882581 151.584571 
L 124.562142 150.045931 
L 126.257006 148.524165 
L 127.967002 147.019422 
L 129.691959 145.531855 
L 131.431706 144.061611 
L 133.186068 142.608838 
L 134.95487 141.17368 
L 136.737934 139.756283 
L 138.535084 138.356786 
L 140.346138 136.975331 
L 142.170915 135.612055 
L 144.009235 134.267095 
L 145.860911 132.940584 
L 147.72576 131.632657 
L 149.603595 130.343443 
L 151.494228 129.073072 
L 153.397469 127.82167 
L 155.31313 126.589362 
L 157.241017 125.376273 
L 159.180939 124.182523 
L 161.132701 123.008232 
L 163.096108 121.853516 
L 165.070964 120.718492 
L 167.057072 119.603273 
L 169.054232 118.507971 
L 171.062245 117.432694 
L 173.08091 116.377551 
L 175.110025 115.342647 
L 177.149388 114.328086 
L 179.198795 113.333969 
L 181.25804 112.360395 
L 183.326917 111.407462 
L 184.938464 110.682451 
L 184.002641 108.580557 
L 182.374816 109.312891 
L 180.28504 110.27545 
L 178.204995 111.258858 
L 176.134887 112.263016 
L 174.074925 113.287826 
L 172.025313 114.333183 
L 169.986257 115.398984 
L 167.957961 116.485122 
L 165.940628 117.591488 
L 163.934459 118.717972 
L 161.939655 119.864461 
L 159.956415 121.03084 
L 157.984939 122.216993 
L 156.025422 123.422802 
L 154.078061 124.648144 
L 152.14305 125.892899 
L 150.220584 127.156941 
L 148.310854 128.440145 
L 146.414051 129.742381 
L 144.530365 131.06352 
L 142.659985 132.403429 
L 140.803097 133.761975 
L 138.959887 135.139022 
L 137.130539 136.534431 
L 135.315237 137.948064 
L 133.514161 139.379779 
L 131.727493 140.829432 
L 129.95541 142.29688 
L 128.19809 143.781975 
L 126.455709 145.284568 
L 124.72844 146.80451 
L 123.016457 148.341648 
L 121.319931 149.895829 
L 119.639031 151.466897 
L 117.973925 153.054696 
L 116.324781 154.659066 
L 114.691762 156.279846 
L 113.075033 157.916876 
L 111.474754 159.569991 
L 109.891086 161.239025 
L 108.324188 162.923813 
L 106.774215 164.624185 
L 105.241324 166.339971 
L 103.725666 168.071001 
L 102.227395 169.8171 
L 100.746659 171.578094 
L 99.283607 173.353808 
L 97.838384 175.144063 
L 96.411137 176.94868 
L 95.002006 178.767479 
L 93.611134 180.600279 
L 92.238658 182.446895 
L 90.884718 184.307144 
L 89.549447 186.180838 
L 88.23298 188.067792 
L 86.935447 189.967816 
L 85.65698 191.880719 
L 84.397705 193.806312 
L 83.157748 195.744401 
L 81.937235 197.694792 
L 80.736285 199.657291 
L 79.555021 201.6317 
L 78.393559 203.617824 
L 77.252017 205.615463 
L 76.130507 207.624417 
L 75.029143 209.644485 
L 73.948034 211.675466 
L 72.887289 213.717157 
L 71.847013 215.769352 
L 70.827311 217.831848 
L 69.828284 219.904437 
L 68.850033 221.986912 
L 67.892656 224.079066 
L 66.956247 226.180689 
L 66.040901 228.291571 
L 65.146709 230.411501 
L 64.273761 232.540266 
L 63.422144 234.677654 
L 62.591943 236.823451 
L 61.783241 238.977443 
L 60.99612 241.139415 
L 60.230656 243.309149 
L 59.486928 245.486429 
L 58.76501 247.671037 
L 60.95321 248.382026 
z
" clip-path="url(#pcdc279bc63)" style="fill: none; stroke: #000000; stroke-width: 0.5; stroke-linejoin: miter"/>
   </g>
   <g id="patch_14">
    <path d="M 184.938464 110.682451 
L 187.023937 109.766406 
L 189.118466 108.87126 
L 191.221841 107.997105 
L 193.333853 107.144026 
L 195.454289 106.31211 
L 197.582939 105.501439 
L 199.719589 104.712096 
L 201.864025 103.944157 
L 204.016033 103.197701 
L 206.175398 102.472803 
L 208.341904 101.769533 
L 210.515334 101.087964 
L 212.695471 100.428163 
L 214.882097 99.790195 
L 217.074994 99.174126 
L 219.273941 98.580015 
L 221.478719 98.007924 
L 223.689108 97.457909 
L 225.904886 96.930024 
L 228.125833 96.424324 
L 230.226839 95.967366 
L 229.748474 93.716835 
L 227.626245 94.178408 
L 225.382865 94.689217 
L 223.144705 95.222433 
L 220.911989 95.778004 
L 218.68494 96.355875 
L 216.463782 96.955986 
L 214.248735 97.578278 
L 212.040022 98.22269 
L 209.837863 98.889156 
L 207.642479 99.57761 
L 205.454089 100.287983 
L 203.272912 101.020204 
L 201.099167 101.7742 
L 198.933069 102.549895 
L 196.774837 103.347212 
L 194.624686 104.166071 
L 192.482831 105.00639 
L 190.349486 105.868086 
L 188.224865 106.751071 
L 186.109179 107.655259 
L 184.002641 108.580557 
L 184.938464 110.682451 
z
" clip-path="url(#pcdc279bc63)" style="fill: none; stroke: #000000; stroke-width: 0.5; stroke-linejoin: miter"/>
   </g>
   <g id="patch_15">
    <path d="M 230.226839 95.967366 
L 232.457196 95.504933 
L 234.692065 95.064825 
L 236.931224 94.647089 
L 239.174448 94.251764 
L 241.421513 93.87889 
L 243.672194 93.528506 
L 245.926267 93.200646 
L 248.183505 92.895342 
L 250.443684 92.612626 
L 252.706577 92.352525 
L 254.971957 92.115066 
L 257.239599 91.900272 
L 259.509275 91.708165 
L 261.780759 91.538764 
L 264.053823 91.392085 
L 266.328241 91.268145 
L 268.603784 91.166954 
L 270.880225 91.088524 
L 273.157337 91.032861 
L 275.434891 90.999972 
L 277.584992 90.989824 
L 277.584992 88.689014 
L 275.413173 88.699265 
L 273.112613 88.732486 
L 270.8125 88.788711 
L 268.513065 88.867934 
L 266.214536 88.970147 
L 263.917145 89.095339 
L 261.62112 89.243499 
L 259.326692 89.414611 
L 257.03409 89.608659 
L 254.743543 89.825622 
L 252.455279 90.06548 
L 250.169529 90.328208 
L 247.886521 90.61378 
L 245.606482 90.922168 
L 243.329641 91.25334 
L 241.056225 91.607263 
L 238.786463 91.983903 
L 236.52058 92.383221 
L 234.258803 92.805178 
L 232.001359 93.24973 
L 229.748474 93.716835 
L 230.226839 95.967366 
z
" clip-path="url(#pcdc279bc63)" style="fill: none; stroke: #000000; stroke-width: 0.5; stroke-linejoin: miter"/>
   </g>
   <g id="text_1">
    <text style="font: 3px 'DejaVu Sans', 'Bitstream Vera Sans', 'Computer Modern Sans Serif', 'Lucida Grande', 'Verdana', 'Geneva', 'Lucid', 'Arial', 'Helvetica', 'Avant Garde', sans-serif; text-anchor: start" x="350.478885" y="98.113985" transform="rotate(-72 350.478885 98.113985)">Universidad Salvadorea Alberto Masferrer</text>
   </g>
   <g id="text_2">
    <text style="font: 3px 'DejaVu Sans', 'Bitstream Vera Sans', 'Computer Modern Sans Serif', 'Lucida Grande', 'Verdana', 'Geneva', 'Lucid', 'Arial', 'Helvetica', 'Avant Garde', sans-serif; text-anchor: start" x="508.574597" y="344.193989" transform="rotate(-354 508.574597 344.193989)">University of El Salvador</text>
   </g>
   <g id="text_3">
    <text style="font: 3px 'DejaVu Sans', 'Bitstream Vera Sans', 'Computer Modern Sans Serif', 'Lucida Grande', 'Verdana', 'Geneva', 'Lucid', 'Arial', 'Helvetica', 'Avant Garde', sans-serif; text-anchor: start" x="348.310922" y="540.130348" transform="rotate(-288 348.310922 540.130348)">Universidad Nueva San Salvador</text>
   </g>
   <g id="text_4">
    <text style="font: 3px 'DejaVu Sans', 'Bitstream Vera Sans', 'Computer Modern Sans Serif', 'Lucida Grande', 'Verdana', 'Geneva', 'Lucid', 'Arial', 'Helvetica', 'Avant Garde', sans-serif; text-anchor: end" x="105.654346" y="475.110714" transform="rotate(-42 105.654346 475.110714)">Universidad Evangelica de El Salvador</text>
   </g>
   <g id="text_5">
    <text style="font: 3px 'DejaVu Sans', 'Bitstream Vera Sans', 'Computer Modern Sans Serif', 'Lucida Grande', 'Verdana', 'Geneva', 'Lucid', 'Arial', 'Helvetica', 'Avant Garde', sans-serif; text-anchor: end" x="104.096735" y="164.159106" transform="rotate(-318 104.096735 164.159106)">Universidad Centroamericana Jos Simen Caas</text>
   </g>
   <g id="text_6">
    <text style="font: 3px 'DejaVu Sans', 'Bitstream Vera Sans', 'Computer Modern Sans Serif', 'Lucida Grande', 'Verdana', 'Geneva', 'Lucid', 'Arial', 'Helvetica', 'Avant Garde', sans-serif; text-anchor: end" x="204.691099" y="98.113985" transform="rotate(-288 204.691099 98.113985)">Universidad Dr. Andrs Bello</text>
   </g>
   <g id="text_7">
    <text style="font: 3px 'DejaVu Sans', 'Bitstream Vera Sans', 'Computer Modern Sans Serif', 'Lucida Grande', 'Verdana', 'Geneva', 'Lucid', 'Arial', 'Helvetica', 'Avant Garde', sans-serif; text-anchor: end" x="252.160963" y="87.780355" transform="rotate(-276 252.160963 87.780355)">Universidad Don Bosco</text>
   </g>
  </g>
 </g>
 <defs>
  <clipPath id="pcdc279bc63">
   <path d="M 519.169984 318.769959 
C 519.169984 287.045309 512.92092 255.629141 500.780422 226.319385 
C 488.639924 197.00963 470.844094 170.376289 448.411378 147.943573 
C 425.978663 125.510858 399.345321 107.715028 370.035566 95.57453 
C 340.725811 83.434032 309.309643 77.184967 277.584992 77.184967 
C 245.860342 77.184967 214.444173 83.434032 185.134418 95.57453 
C 155.824663 107.715028 129.191321 125.510858 106.758606 147.943573 
C 84.32589 170.376289 66.530061 197.00963 54.389563 226.319385 
C 42.249064 255.629141 36 287.045309 36 318.769959 
C 36 350.49461 42.249064 381.910778 54.389563 411.220533 
C 66.530061 440.530289 84.32589 467.16363 106.758606 489.596345 
C 129.191321 512.029061 155.824663 529.824891 185.134418 541.965389 
C 214.444173 554.105887 245.860342 560.354951 277.584992 560.354951 
C 309.309643 560.354951 340.725811 554.105887 370.035566 541.965389 
C 399.345321 529.824891 425.978663 512.029061 448.411378 489.596345 
C 470.844094 467.16363 488.639924 440.530289 500.780422 411.220533 
C 512.92092 381.910778 519.169984 350.49461 519.169984 318.769959 
M 277.584992 318.769959 
C 277.584992 318.769959 277.584992 318.769959 277.584992 318.769959 
C 277.584992 318.769959 277.584992 318.769959 277.584992 318.769959 
C 277.584992 318.769959 277.584992 318.769959 277.584992 318.769959 
C 277.584992 318.769959 277.584992 318.769959 277.584992 318.769959 
C 277.584992 318.769959 277.584992 318.769959 277.584992 318.769959 
C 277.584992 318.769959 277.584992 318.769959 277.584992 318.769959 
C 277.584992 318.769959 277.584992 318.769959 277.584992 318.769959 
C 277.584992 318.769959 277.584992 318.769959 277.584992 318.769959 
C 277.584992 318.769959 277.584992 318.769959 277.584992 318.769959 
C 277.584992 318.769959 277.584992 318.769959 277.584992 318.769959 
C 277.584992 318.769959 277.584992 318.769959 277.584992 318.769959 
C 277.584992 318.769959 277.584992 318.769959 277.584992 318.769959 
C 277.584992 318.769959 277.584992 318.769959 277.584992 318.769959 
C 277.584992 318.769959 277.584992 318.769959 277.584992 318.769959 
C 277.584992 318.769959 277.584992 318.769959 277.584992 318.769959 
C 277.584992 318.769959 277.584992 318.769959 277.584992 318.769959 
z
"/>
  </clipPath>
 </defs>
</svg>
