<?xml version="1.0" encoding="utf-8" standalone="no"?>
<!DOCTYPE svg PUBLIC "-//W3C//DTD SVG 1.1//EN"
  "http://www.w3.org/Graphics/SVG/1.1/DTD/svg11.dtd">
<svg xmlns:xlink="http://www.w3.org/1999/xlink" width="599.087749pt" height="623.871655pt" viewBox="0 0 599.087749 623.871655" xmlns="http://www.w3.org/2000/svg" version="1.1">
 <metadata>
  <rdf:RDF xmlns:dc="http://purl.org/dc/elements/1.1/" xmlns:cc="http://creativecommons.org/ns#" xmlns:rdf="http://www.w3.org/1999/02/22-rdf-syntax-ns#">
   <cc:Work>
    <dc:type rdf:resource="http://purl.org/dc/dcmitype/StillImage"/>
    <dc:date>2024-11-16T04:01:20.637469</dc:date>
    <dc:format>image/svg+xml</dc:format>
    <dc:creator>
     <cc:Agent>
      <dc:title>Matplotlib v3.8.4, https://matplotlib.org/</dc:title>
     </cc:Agent>
    </dc:creator>
   </cc:Work>
  </rdf:RDF>
 </metadata>
 <defs>
  <style type="text/css">*{stroke-linejoin: round; stroke-linecap: butt}</style>
 </defs>
 <g id="figure_1">
  <g id="patch_1">
   <path d="M 0 623.871655 
L 599.087749 623.871655 
L 599.087749 0 
L 0 0 
z
" style="fill: #ffffff"/>
  </g>
  <g id="axes_1">
   <g id="patch_2">
    <path d="M 272.602199 118.961276 
L 274.832983 118.97243 
L 277.063543 119.005891 
L 279.293657 119.061655 
L 281.523103 119.139718 
L 283.751656 119.24007 
L 285.979094 119.362703 
L 288.205194 119.507604 
L 290.429735 119.674758 
L 292.652492 119.864148 
L 294.873245 120.075757 
L 297.09177 120.309562 
L 299.307846 120.56554 
L 301.521252 120.843666 
L 303.731766 121.143912 
L 305.939167 121.466247 
L 308.143235 121.81064 
L 310.343748 122.177056 
L 312.540487 122.565458 
L 314.733233 122.975808 
L 316.921765 123.408065 
L 318.98357 123.836154 
L 319.452069 121.632041 
L 317.369438 121.199628 
L 315.158799 120.763005 
L 312.943904 120.34851 
L 310.724976 119.956184 
L 308.502235 119.586067 
L 306.275904 119.238195 
L 304.046206 118.912604 
L 301.813364 118.609326 
L 299.5776 118.32839 
L 297.339139 118.069827 
L 295.098205 117.83366 
L 292.85502 117.619914 
L 290.609811 117.42861 
L 288.3628 117.259768 
L 286.114214 117.113403 
L 283.864276 116.989532 
L 281.613213 116.888166 
L 279.361248 116.809315 
L 277.108607 116.752987 
L 274.855516 116.719188 
L 272.602199 116.707921 
z
" clip-path="url(#p4c8eabb26d)" style="fill: #000080"/>
   </g>
   <g id="patch_3">
    <path d="M 318.98357 123.836154 
L 321.163287 124.31087 
L 323.338147 124.80736 
L 325.507934 125.325572 
L 327.67243 125.865457 
L 329.83142 126.426959 
L 331.984686 127.010022 
L 334.132015 127.614589 
L 336.27319 128.240598 
L 338.407998 128.887987 
L 340.536226 129.556692 
L 342.657661 130.246645 
L 344.77209 130.957778 
L 346.879302 131.690019 
L 348.979086 132.443295 
L 351.071233 133.217531 
L 353.155533 134.01265 
L 355.231778 134.828571 
L 357.299759 135.665214 
L 359.359271 136.522494 
L 361.410108 137.400326 
L 363.337853 138.247734 
L 364.254374 136.189193 
L 362.307158 135.333225 
L 360.235606 134.446526 
L 358.15529 133.580586 
L 356.06642 132.735493 
L 353.969203 131.91133 
L 351.863849 131.10818 
L 349.75057 130.326123 
L 347.629575 129.565238 
L 345.501078 128.8256 
L 343.365292 128.107285 
L 341.222428 127.410362 
L 339.072703 126.734903 
L 336.916331 126.080974 
L 334.753528 125.448642 
L 332.584509 124.837968 
L 330.409493 124.249015 
L 328.228695 123.681842 
L 326.042335 123.136504 
L 323.850631 122.613057 
L 321.653803 122.111552 
L 319.452069 121.632041 
z
" clip-path="url(#p4c8eabb26d)" style="fill: #0010ff"/>
   </g>
   <g id="patch_4">
    <path d="M 363.337853 138.247734 
L 365.371238 139.165265 
L 367.395347 140.103084 
L 369.409976 141.061097 
L 371.414925 142.039207 
L 373.409992 143.037318 
L 375.394979 144.05533 
L 377.369687 145.09314 
L 379.333918 146.150644 
L 381.287475 147.227738 
L 383.230165 148.324314 
L 385.161792 149.440261 
L 387.082162 150.575468 
L 388.991085 151.729822 
L 390.888369 152.903207 
L 392.773825 154.095506 
L 394.647264 155.306599 
L 396.508498 156.536367 
L 398.357341 157.784684 
L 400.19361 159.051427 
L 402.017119 160.33647 
L 403.827687 161.639683 
L 405.625132 162.960936 
L 407.409275 164.300097 
L 409.179938 165.657032 
L 410.936943 167.031606 
L 412.680114 168.423681 
L 414.409278 169.833118 
L 416.124262 171.259776 
L 417.824893 172.703511 
L 419.511002 174.164181 
L 421.18242 175.641638 
L 422.838981 177.135736 
L 424.480518 178.646324 
L 426.106867 180.173252 
L 427.717866 181.716366 
L 429.313353 183.275513 
L 430.893169 184.850537 
L 432.457157 186.44128 
L 434.005159 188.047583 
L 435.537021 189.669285 
L 437.052589 191.306225 
L 438.551713 192.958238 
L 440.034242 194.62516 
L 441.500028 196.306823 
L 442.948924 198.00306 
L 444.380785 199.713701 
L 445.795469 201.438575 
L 447.192834 203.177509 
L 448.57274 204.930329 
L 449.935049 206.696861 
L 451.279624 208.476927 
L 452.606333 210.27035 
L 453.915041 212.07695 
L 455.205617 213.896546 
L 456.477934 215.728957 
L 457.731863 217.574 
L 458.967279 219.431489 
L 460.184059 221.301239 
L 461.382081 223.183064 
L 462.561225 225.076774 
L 463.721374 226.982181 
L 464.86241 228.899094 
L 465.984221 230.827321 
L 467.086694 232.76667 
L 468.169718 234.716946 
L 469.233186 236.677955 
L 470.276991 238.6495 
L 471.301029 240.631385 
L 472.305197 242.62341 
L 473.289394 244.625378 
L 474.253524 246.637088 
L 475.197488 248.658337 
L 476.121193 250.688926 
L 477.024546 252.728649 
L 477.907457 254.777305 
L 478.769838 256.834686 
L 479.611602 258.900589 
L 480.432665 260.974805 
L 481.232946 263.057129 
L 482.012363 265.147351 
L 482.77084 267.245262 
L 483.5083 269.350653 
L 484.22467 271.463314 
L 484.919877 273.583032 
L 485.593853 275.709597 
L 486.24653 277.842794 
L 486.877843 279.982412 
L 487.487728 282.128236 
L 488.076125 284.280051 
L 488.642975 286.437642 
L 489.188221 288.600795 
L 489.711808 290.769291 
L 490.213685 292.942914 
L 490.6938 295.121448 
L 491.152107 297.304674 
L 491.588559 299.492373 
L 492.003112 301.684328 
L 492.395726 303.880318 
L 492.76636 306.080125 
L 493.114979 308.283528 
L 493.441546 310.490307 
L 493.746029 312.700242 
L 494.028398 314.91311 
L 494.288625 317.128692 
L 494.462205 318.724923 
L 496.703216 318.489383 
L 496.527881 316.877028 
L 496.265026 314.639067 
L 495.979805 312.403846 
L 495.672246 310.17159 
L 495.34238 307.94252 
L 494.990241 305.71686 
L 494.615863 303.494833 
L 494.219283 301.276661 
L 493.800542 299.062565 
L 493.359682 296.852768 
L 492.896746 294.647489 
L 492.411781 292.44695 
L 491.904834 290.251371 
L 491.375958 288.060971 
L 490.825205 285.875969 
L 490.252629 283.696583 
L 489.658289 281.523033 
L 489.042243 279.355534 
L 488.404554 277.194304 
L 487.745284 275.039559 
L 487.0645 272.891514 
L 486.36227 270.750384 
L 485.638665 268.616384 
L 484.893755 266.489726 
L 484.127617 264.370623 
L 483.340327 262.259288 
L 482.531963 260.155931 
L 481.702606 258.060763 
L 480.852339 255.973993 
L 479.981247 253.895829 
L 479.089418 251.826481 
L 478.17694 249.766154 
L 477.243905 247.715054 
L 476.290406 245.673388 
L 475.316538 243.641358 
L 474.322399 241.619169 
L 473.308088 239.607021 
L 472.273706 237.605118 
L 471.219358 235.613658 
L 470.145148 233.632841 
L 469.051184 231.662865 
L 467.937575 229.703927 
L 466.804433 227.756222 
L 465.651871 225.819947 
L 464.480003 223.895293 
L 463.288949 221.982455 
L 462.078826 220.081622 
L 460.849755 218.192985 
L 459.60186 216.316733 
L 458.335265 214.453054 
L 457.050096 212.602134 
L 455.746483 210.764158 
L 454.424556 208.939309 
L 453.084447 207.127771 
L 451.72629 205.329725 
L 450.35022 203.545349 
L 448.956376 201.774823 
L 447.544896 200.018324 
L 446.115923 198.276028 
L 444.669598 196.548108 
L 443.206066 194.834737 
L 441.725475 193.136087 
L 440.227971 191.452328 
L 438.713704 189.783628 
L 437.182827 188.130153 
L 435.635492 186.49207 
L 434.071853 184.869542 
L 432.492068 183.262731 
L 430.896294 181.671798 
L 429.28469 180.096902 
L 427.657419 178.5382 
L 426.014642 176.995849 
L 424.356524 175.470002 
L 422.683231 173.960813 
L 420.994929 172.468432 
L 419.291789 170.993008 
L 417.573979 169.534689 
L 415.841673 168.093621 
L 414.095043 166.669947 
L 412.334263 165.263811 
L 410.559511 163.875352 
L 408.770963 162.504711 
L 406.968798 161.152023 
L 405.153197 159.817423 
L 403.32434 158.501047 
L 401.482412 157.203024 
L 399.627595 155.923485 
L 397.760077 154.662559 
L 395.880042 153.42037 
L 393.98768 152.197043 
L 392.083179 150.992701 
L 390.166731 149.807463 
L 388.238526 148.641449 
L 386.298757 147.494775 
L 384.347619 146.367556 
L 382.385306 145.259904 
L 380.412016 144.17193 
L 378.427944 143.103744 
L 376.43329 142.055451 
L 374.428253 141.027156 
L 372.413033 140.018963 
L 370.387832 139.030973 
L 368.352853 138.063283 
L 366.308299 137.115992 
L 364.254374 136.189193 
z
" clip-path="url(#p4c8eabb26d)" style="fill: #00a4ff"/>
   </g>
   <g id="patch_5">
    <path d="M 494.462205 318.724923 
L 494.684293 320.944652 
L 494.884172 323.166491 
L 495.061824 325.390217 
L 495.217229 327.615609 
L 495.350374 329.842443 
L 495.461243 332.070498 
L 495.549827 334.29955 
L 495.616117 336.529376 
L 495.660105 338.759754 
L 495.681788 340.99046 
L 495.681162 343.221271 
L 495.65823 345.451965 
L 495.612991 347.682318 
L 495.545452 349.912107 
L 495.455619 352.141108 
L 495.3435 354.369101 
L 495.209108 356.59586 
L 495.052455 358.821165 
L 494.873557 361.044791 
L 494.672432 363.266518 
L 494.462205 365.361775 
L 496.703216 365.597315 
L 496.915566 363.480893 
L 497.118722 361.236725 
L 497.299427 358.990638 
L 497.457662 356.742855 
L 497.593412 354.493603 
L 497.706663 352.243106 
L 497.797404 349.991589 
L 497.865626 347.739277 
L 497.911321 345.486395 
L 497.934485 343.23317 
L 497.935117 340.979825 
L 497.913215 338.726586 
L 497.868783 336.47368 
L 497.801824 334.22133 
L 497.712345 331.969762 
L 497.600355 329.719202 
L 497.465866 327.469874 
L 497.308891 325.222004 
L 497.129445 322.975815 
L 496.927546 320.731534 
L 496.703216 318.489383 
z
" clip-path="url(#p4c8eabb26d)" style="fill: #40ffb7"/>
   </g>
   <g id="patch_6">
    <path d="M 494.462205 365.361775 
L 494.217932 367.579172 
L 493.951497 369.794016 
L 493.662928 372.006085 
L 493.352253 374.215157 
L 493.019503 376.421012 
L 492.664711 378.62343 
L 492.287913 380.822189 
L 491.889147 383.017071 
L 491.468452 385.207855 
L 491.025871 387.394323 
L 490.561448 389.576256 
L 490.075229 391.753435 
L 489.567263 393.925644 
L 489.0376 396.092664 
L 488.486295 398.25428 
L 487.9134 400.410274 
L 487.318976 402.560432 
L 486.703079 404.704538 
L 486.065773 406.842378 
L 485.40712 408.973738 
L 484.727187 411.098405 
L 484.026042 413.216167 
L 483.303754 415.326812 
L 482.560397 417.430128 
L 481.796044 419.525906 
L 481.010772 421.613935 
L 480.204659 423.694008 
L 479.377786 425.765915 
L 478.530235 427.829451 
L 477.662092 429.884407 
L 476.773444 431.93058 
L 475.864378 433.967764 
L 474.934986 435.995756 
L 473.985361 438.014353 
L 473.015598 440.023352 
L 472.025793 442.022554 
L 471.016047 444.011758 
L 469.986459 445.990765 
L 468.937133 447.959377 
L 467.868174 449.917398 
L 466.779688 451.864631 
L 465.796942 453.584386 
L 467.748404 454.711063 
L 468.741077 452.973937 
L 469.840558 451.007035 
L 470.920315 449.029236 
L 471.98024 447.040738 
L 473.020227 445.041741 
L 474.040173 443.032445 
L 475.039976 441.013049 
L 476.019534 438.983757 
L 476.978751 436.94477 
L 477.917531 434.896294 
L 478.835779 432.838532 
L 479.733404 430.771691 
L 480.610317 428.695977 
L 481.466428 426.611598 
L 482.301653 424.518762 
L 483.115909 422.417679 
L 483.909113 420.308558 
L 484.681187 418.191611 
L 485.432053 416.067049 
L 486.161636 413.935085 
L 486.869864 411.795931 
L 487.556665 409.649803 
L 488.22197 407.496914 
L 488.865714 405.337479 
L 489.487832 403.171715 
L 490.088261 400.999839 
L 490.666942 398.822067 
L 491.223817 396.638617 
L 491.758829 394.449707 
L 492.271926 392.255557 
L 492.763057 390.056386 
L 493.232171 387.852413 
L 493.679223 385.64386 
L 494.104167 383.430947 
L 494.506961 381.213894 
L 494.887565 378.992925 
L 495.24594 376.768261 
L 495.582051 374.540125 
L 495.895865 372.308739 
L 496.187349 370.074326 
L 496.456475 367.83711 
L 496.703216 365.597315 
z
" clip-path="url(#p4c8eabb26d)" style="fill: #b7ff40"/>
   </g>
   <g id="patch_7">
    <path d="M 465.796942 453.584386 
L 464.67189 455.510724 
L 463.527632 457.425715 
L 462.364281 459.329169 
L 461.181955 461.220894 
L 459.98077 463.100701 
L 458.760848 464.968403 
L 457.52231 466.823812 
L 456.26528 468.666743 
L 454.989884 470.497012 
L 453.69625 472.314436 
L 452.384506 474.118833 
L 451.054784 475.910022 
L 449.707217 477.687825 
L 448.34194 479.452064 
L 446.959089 481.202562 
L 445.558802 482.939143 
L 444.14122 484.661636 
L 442.706484 486.369867 
L 441.254738 488.063665 
L 439.786126 489.742861 
L 438.300796 491.407288 
L 436.798897 493.056778 
L 435.280578 494.691167 
L 433.745992 496.310291 
L 432.195291 497.913989 
L 430.628631 499.5021 
L 429.046168 501.074465 
L 427.448061 502.630927 
L 425.83447 504.171331 
L 424.205556 505.695522 
L 422.561481 507.203347 
L 420.902411 508.694657 
L 419.228511 510.169302 
L 417.539948 511.627135 
L 415.836892 513.068009 
L 414.119512 514.491781 
L 412.38798 515.898308 
L 410.642471 517.28745 
L 408.883157 518.659067 
L 407.110215 520.013023 
L 405.323823 521.349183 
L 403.524158 522.667412 
L 401.711402 523.967578 
L 399.885734 525.249553 
L 398.047339 526.513207 
L 396.196399 527.758414 
L 394.333099 528.985049 
L 392.457627 530.192991 
L 390.570169 531.382118 
L 388.670915 532.552311 
L 386.760053 533.703454 
L 384.837776 534.83543 
L 382.904276 535.948128 
L 380.959745 537.041435 
L 379.004379 538.115243 
L 377.038373 539.169443 
L 375.061923 540.203931 
L 373.075227 541.218603 
L 371.078484 542.213358 
L 369.071894 543.188096 
L 367.055656 544.14272 
L 365.029974 545.077134 
L 362.995048 545.991245 
L 360.951084 546.884961 
L 358.898284 547.758193 
L 356.836856 548.610854 
L 354.767003 549.442858 
L 352.688934 550.254123 
L 350.602857 551.044566 
L 348.50898 551.81411 
L 346.407512 552.562676 
L 344.298663 553.290191 
L 342.182645 553.996582 
L 340.059669 554.681777 
L 337.929948 555.345709 
L 335.793693 555.98831 
L 333.65112 556.609518 
L 331.502441 557.209268 
L 329.347873 557.787503 
L 327.18763 558.344163 
L 325.021929 558.879193 
L 322.850986 559.39254 
L 320.675018 559.884152 
L 318.494242 560.35398 
L 316.308878 560.801978 
L 314.119143 561.228099 
L 311.925256 561.632303 
L 309.727437 562.014547 
L 307.525905 562.374795 
L 305.320881 562.71301 
L 303.112586 563.029158 
L 300.901239 563.323207 
L 298.687062 563.595129 
L 296.470277 563.844896 
L 294.251105 564.072483 
L 292.029768 564.277867 
L 289.806489 564.461028 
L 287.581489 564.621947 
L 285.354991 564.760609 
L 283.127218 564.876999 
L 280.898392 564.971105 
L 278.668737 565.04292 
L 276.438475 565.092434 
L 274.20783 565.119644 
L 271.977024 565.124546 
L 269.74628 565.107141 
L 267.515822 565.067429 
L 265.285873 565.005415 
L 263.056655 564.921105 
L 260.828392 564.814507 
L 258.601306 564.685633 
L 256.375621 564.534494 
L 254.151558 564.361106 
L 251.92934 564.165487 
L 249.709189 563.947656 
L 247.491327 563.707635 
L 245.275977 563.445447 
L 243.063359 563.161119 
L 240.853695 562.85468 
L 238.647206 562.52616 
L 236.444113 562.175592 
L 234.244635 561.80301 
L 232.048993 561.408453 
L 229.857406 560.99196 
L 227.670093 560.553571 
L 225.487274 560.093332 
L 223.309166 559.611289 
L 221.135988 559.107488 
L 218.967956 558.581982 
L 216.805287 558.034821 
L 214.648199 557.466062 
L 212.496905 556.875761 
L 210.351622 556.263976 
L 208.212564 555.63077 
L 206.079945 554.976205 
L 203.953978 554.300347 
L 201.834875 553.603263 
L 199.72285 552.885024 
L 197.618112 552.145701 
L 195.520873 551.385367 
L 193.431342 550.6041 
L 191.349727 549.801976 
L 189.276238 548.979077 
L 187.211082 548.135485 
L 185.154464 547.271284 
L 183.106592 546.38656 
L 181.067668 545.481401 
L 179.037898 544.555899 
L 177.017485 543.610146 
L 175.00663 542.644237 
L 173.005534 541.658268 
L 171.014398 540.652337 
L 169.03342 539.626545 
L 167.0628 538.580996 
L 165.102733 537.515793 
L 163.153416 536.431042 
L 161.215044 535.326853 
L 159.28781 534.203336 
L 157.371908 533.060603 
L 155.467529 531.898769 
L 153.574863 530.717949 
L 151.6941 529.518262 
L 149.825427 528.299827 
L 147.969032 527.062767 
L 146.125101 525.807206 
L 144.293816 524.533268 
L 142.475363 523.241081 
L 140.669922 521.930774 
L 138.877674 520.602479 
L 137.098799 519.256328 
L 135.333474 517.892456 
L 133.581876 516.511 
L 131.844179 515.112096 
L 130.120558 513.695886 
L 128.411186 512.262511 
L 126.716232 510.812114 
L 125.035867 509.34484 
L 123.370258 507.860836 
L 121.719572 506.360251 
L 120.083974 504.843234 
L 118.463629 503.309937 
L 116.858696 501.760514 
L 115.269339 500.195119 
L 113.695714 498.613909 
L 112.13798 497.017043 
L 110.596292 495.404678 
L 109.070804 493.776978 
L 107.56167 492.134105 
L 106.069039 490.476223 
L 104.593062 488.803497 
L 103.133885 487.116096 
L 101.691655 485.414188 
L 100.266516 483.697942 
L 98.85861 481.967531 
L 97.468079 480.223128 
L 96.095061 478.464907 
L 94.739693 476.693044 
L 93.402112 474.907717 
L 92.08245 473.109102 
L 90.78084 471.297382 
L 89.497413 469.472736 
L 88.232295 467.635347 
L 86.985614 465.785399 
L 85.757495 463.923077 
L 84.548061 462.048567 
L 83.357431 460.162057 
L 82.185726 458.263735 
L 81.033062 456.353791 
L 79.899555 454.432416 
L 78.785318 452.499803 
L 77.690463 450.556143 
L 76.615098 448.601633 
L 75.559333 446.636467 
L 74.523271 444.660841 
L 73.507017 442.674954 
L 72.510672 440.679004 
L 71.534337 438.67319 
L 70.578108 436.657714 
L 69.642081 434.632776 
L 68.72635 432.598579 
L 67.831007 430.555327 
L 66.95614 428.503223 
L 66.101838 426.442474 
L 65.268186 424.373285 
L 64.455267 422.295863 
L 63.663162 420.210416 
L 62.891951 418.117152 
L 62.141711 416.016281 
L 61.412517 413.908012 
L 60.704442 411.792557 
L 60.017556 409.670128 
L 59.351929 407.540935 
L 58.707627 405.405193 
L 58.084713 403.263115 
L 57.483252 401.114915 
L 56.903302 398.960808 
L 56.344921 396.801009 
L 55.808167 394.635735 
L 55.293091 392.465201 
L 54.799747 390.289625 
L 54.328182 388.109224 
L 53.878444 385.924217 
L 53.450579 383.734822 
L 53.044629 381.541258 
L 52.660634 379.343744 
L 52.298633 377.1425 
L 51.958663 374.937746 
L 51.640756 372.729703 
L 51.344946 370.518591 
L 51.071261 368.304631 
L 50.819729 366.088046 
L 50.590375 363.869056 
L 50.383222 361.647883 
L 50.198291 359.42475 
L 50.0356 357.199879 
L 49.895165 354.973493 
L 49.777001 352.745813 
L 49.68112 350.517063 
L 49.60753 348.287466 
L 49.556239 346.057244 
L 49.527253 343.826621 
L 49.520575 341.595819 
L 49.536204 339.365063 
L 49.574139 337.134574 
L 49.634378 334.904576 
L 49.716912 332.675292 
L 49.821736 330.446944 
L 49.948837 328.219757 
L 50.098203 325.993951 
L 50.269819 323.769751 
L 50.463669 321.547378 
L 50.679732 319.327054 
L 50.742193 318.724923 
L 48.501182 318.489383 
L 48.438091 319.097597 
L 48.219845 321.340348 
L 48.024038 323.585169 
L 47.850688 325.831836 
L 47.699813 328.080125 
L 47.571428 330.329809 
L 47.465546 332.580665 
L 47.382177 334.832467 
L 47.321331 337.08499 
L 47.283012 339.338009 
L 47.267225 341.591299 
L 47.273971 343.844634 
L 47.30325 346.097788 
L 47.355058 348.350538 
L 47.429392 350.602656 
L 47.526242 352.853919 
L 47.645599 355.1041 
L 47.787452 357.352976 
L 47.951787 359.60032 
L 48.138586 361.845909 
L 48.347831 364.089518 
L 48.579502 366.330922 
L 48.833575 368.569897 
L 49.110024 370.80622 
L 49.408823 373.039666 
L 49.72994 375.270013 
L 50.073345 377.497037 
L 50.439002 379.720516 
L 50.826876 381.940227 
L 51.236926 384.155948 
L 51.669113 386.367458 
L 52.123394 388.574536 
L 52.599722 390.776961 
L 53.09805 392.974512 
L 53.618328 395.166971 
L 54.160504 397.354117 
L 54.724525 399.535732 
L 55.310333 401.711598 
L 55.91787 403.881497 
L 56.547075 406.045212 
L 57.197886 408.202527 
L 57.870237 410.353226 
L 58.564061 412.497095 
L 59.279288 414.633918 
L 60.015848 416.763482 
L 60.773666 418.885574 
L 61.552667 420.999982 
L 62.352772 423.106494 
L 63.173903 425.2049 
L 64.015976 427.29499 
L 64.878907 429.376555 
L 65.762611 431.449387 
L 66.666998 433.513278 
L 67.591979 435.568022 
L 68.53746 437.613414 
L 69.503348 439.649249 
L 70.489546 441.675324 
L 71.495955 443.691435 
L 72.522474 445.697381 
L 73.569001 447.692963 
L 74.635431 449.677979 
L 75.721657 451.652232 
L 76.827572 453.615524 
L 77.953064 455.567659 
L 79.09802 457.508442 
L 80.262327 459.437678 
L 81.445868 461.355175 
L 82.648524 463.260741 
L 83.870175 465.154186 
L 85.110699 467.035319 
L 86.369973 468.903953 
L 87.647869 470.759901 
L 88.944261 472.602978 
L 90.259018 474.432999 
L 91.59201 476.249781 
L 92.943102 478.053142 
L 94.31216 479.842903 
L 95.699047 481.618884 
L 97.103625 483.380907 
L 98.525751 485.128797 
L 99.965286 486.862378 
L 101.422084 488.581477 
L 102.896 490.285923 
L 104.386886 491.975545 
L 105.894593 493.650173 
L 107.418972 495.309641 
L 108.959868 496.953783 
L 110.517129 498.582433 
L 112.090598 500.19543 
L 113.680118 501.792612 
L 115.28553 503.373819 
L 116.906673 504.938893 
L 118.543386 506.487677 
L 120.195505 508.020018 
L 121.862864 509.535761 
L 123.545297 511.034754 
L 125.242636 512.516849 
L 126.954711 513.981896 
L 128.68135 515.42975 
L 130.422381 516.860265 
L 132.17763 518.273299 
L 133.946921 519.66871 
L 135.730078 521.046358 
L 137.526922 522.406107 
L 139.337273 523.747819 
L 141.160951 525.071361 
L 142.997772 526.3766 
L 144.847554 527.663406 
L 146.710111 528.93165 
L 148.585258 530.181206 
L 150.472806 531.411948 
L 152.372567 532.623753 
L 154.28435 533.8165 
L 156.207966 534.990071 
L 158.143221 536.144346 
L 160.089921 537.279212 
L 162.047873 538.394554 
L 164.01688 539.490262 
L 165.996745 540.566225 
L 167.987271 541.622335 
L 169.988258 542.658488 
L 171.999507 543.67458 
L 174.020816 544.670509 
L 176.051983 545.646175 
L 178.092804 546.601481 
L 180.143077 547.536331 
L 182.202596 548.450632 
L 184.271154 549.344293 
L 186.348545 550.217224 
L 188.434562 551.069337 
L 190.528995 551.900548 
L 192.631636 552.710774 
L 194.742274 553.499933 
L 196.860697 554.267947 
L 198.986695 555.014738 
L 201.120054 555.740232 
L 203.260561 556.444357 
L 205.408003 557.127042 
L 207.562163 557.788218 
L 209.722828 558.427821 
L 211.889781 559.045785 
L 214.062805 559.642049 
L 216.241682 560.216553 
L 218.426196 560.76924 
L 220.616127 561.300055 
L 222.811257 561.808945 
L 225.011366 562.295858 
L 227.216234 562.760745 
L 229.42564 563.203562 
L 231.639364 563.624262 
L 233.857185 564.022805 
L 236.078879 564.39915 
L 238.304227 564.753259 
L 240.533003 565.085098 
L 242.764987 565.394632 
L 244.999955 565.681832 
L 247.237682 565.946668 
L 249.477946 566.189114 
L 251.720523 566.409145 
L 253.965187 566.60674 
L 256.211716 566.781879 
L 258.459883 566.934545 
L 260.709465 567.064721 
L 262.960236 567.172395 
L 265.211971 567.257557 
L 267.464445 567.320197 
L 269.717433 567.36031 
L 271.970709 567.377892 
L 274.224048 567.37294 
L 276.477226 567.345455 
L 278.730015 567.295441 
L 280.982192 567.222901 
L 283.233531 567.127844 
L 285.483807 567.010278 
L 287.732795 566.870216 
L 289.98027 566.707671 
L 292.226006 566.52266 
L 294.469781 566.315201 
L 296.711369 566.085316 
L 298.950546 565.833026 
L 301.187088 565.558358 
L 303.420771 565.261338 
L 305.651373 564.941996 
L 307.87867 564.600365 
L 310.102439 564.236479 
L 312.322458 563.850373 
L 314.538506 563.442087 
L 316.750359 563.011661 
L 318.957798 562.559138 
L 321.160602 562.084564 
L 323.358549 561.587986 
L 325.551421 561.069454 
L 327.738998 560.52902 
L 329.921062 559.966737 
L 332.097393 559.382661 
L 334.267776 558.776853 
L 336.431991 558.149371 
L 338.589824 557.500278 
L 340.741058 556.82964 
L 342.885478 556.137524 
L 345.02287 555.423998 
L 347.15302 554.689134 
L 349.275715 553.933006 
L 351.390743 553.155689 
L 353.497891 552.357262 
L 355.596951 551.537803 
L 357.687711 550.697394 
L 359.769962 549.836121 
L 361.843497 548.954068 
L 363.908108 548.051325 
L 365.963588 547.12798 
L 368.009732 546.184128 
L 370.046335 545.219861 
L 372.073194 544.235278 
L 374.090106 543.230475 
L 376.09687 542.205553 
L 378.093284 541.160616 
L 380.079149 540.095767 
L 382.054266 539.011113 
L 384.018438 537.906762 
L 385.971469 536.782825 
L 387.913163 535.639414 
L 389.843326 534.476644 
L 391.761765 533.294631 
L 393.668288 532.093493 
L 395.562704 530.873349 
L 397.444825 529.634323 
L 399.314461 528.376539 
L 401.171426 527.10012 
L 403.015535 525.805197 
L 404.846602 524.491897 
L 406.664445 523.160353 
L 408.468882 521.810697 
L 410.259732 520.443064 
L 412.036817 519.057592 
L 413.799958 517.654419 
L 415.54898 516.233684 
L 417.283707 514.795531 
L 419.003966 513.340102 
L 420.709585 511.867544 
L 422.400393 510.378004 
L 424.076222 508.87163 
L 425.736903 507.348574 
L 427.382271 505.808987 
L 429.012161 504.253024 
L 430.62641 502.68084 
L 432.224857 501.092592 
L 433.807342 499.48844 
L 435.373707 497.868543 
L 436.923794 496.233064 
L 438.45745 494.582166 
L 439.97452 492.916014 
L 441.474853 491.234776 
L 442.958298 489.538618 
L 444.424709 487.82771 
L 445.873937 486.102225 
L 447.305838 484.362333 
L 448.720269 482.60821 
L 450.117089 480.840031 
L 451.496157 479.057972 
L 452.857336 477.262211 
L 454.200489 475.452929 
L 455.525483 473.630306 
L 456.832184 471.794524 
L 458.120463 469.945768 
L 459.39019 468.084221 
L 460.641238 466.21007 
L 461.873483 464.323503 
L 463.086801 462.424707 
L 464.28107 460.513874 
L 465.456172 458.591194 
L 466.611988 456.656859 
L 467.748404 454.711063 
z
" clip-path="url(#p4c8eabb26d)" style="fill: #ffb900"/>
   </g>
   <g id="patch_8">
    <path d="M 50.742193 318.724923 
L 50.986466 316.507525 
L 51.252901 314.292682 
L 51.54147 312.080613 
L 51.852145 309.871541 
L 52.184895 307.665686 
L 52.539687 305.463268 
L 52.916485 303.264509 
L 53.315251 301.069627 
L 53.735946 298.878843 
L 54.178527 296.692375 
L 54.64295 294.510442 
L 55.129169 292.333263 
L 55.637135 290.161054 
L 56.166798 287.994034 
L 56.718103 285.832418 
L 57.290997 283.676424 
L 57.885422 281.526266 
L 58.501319 279.38216 
L 59.138625 277.24432 
L 59.797278 275.11296 
L 60.477211 272.988292 
L 61.178356 270.870531 
L 61.900643 268.759886 
L 62.644001 266.65657 
L 63.408354 264.560792 
L 64.193626 262.472763 
L 64.999739 260.39269 
L 65.826612 258.320783 
L 66.674163 256.257247 
L 67.542306 254.202291 
L 68.430954 252.156118 
L 69.34002 250.118934 
L 70.269412 248.090942 
L 71.219037 246.072345 
L 72.1888 244.063346 
L 73.178604 242.064144 
L 74.188351 240.07494 
L 75.217939 238.095933 
L 76.267265 236.127321 
L 77.336224 234.1693 
L 78.42471 232.222067 
L 79.532613 230.285815 
L 80.659823 228.360739 
L 81.806227 226.447032 
L 82.971711 224.544883 
L 84.156157 222.654485 
L 85.359448 220.776025 
L 86.581463 218.909692 
L 87.82208 217.055673 
L 89.081175 215.214152 
L 90.358622 213.385313 
L 91.654293 211.569341 
L 92.968059 209.766416 
L 94.299788 207.976718 
L 95.649347 206.200427 
L 97.016601 204.43772 
L 98.401413 202.688773 
L 99.803646 200.953762 
L 101.223158 199.23286 
L 102.659808 197.526239 
L 104.113452 195.834069 
L 105.583945 194.15652 
L 107.071139 192.493759 
L 108.574887 190.845954 
L 110.095037 189.213268 
L 111.631438 187.595865 
L 113.183935 185.993906 
L 114.752374 184.407553 
L 116.336599 182.836962 
L 117.936449 181.282293 
L 119.551766 179.743699 
L 121.182388 178.221335 
L 122.828152 176.715353 
L 124.488893 175.225904 
L 126.164445 173.753136 
L 127.854641 172.297198 
L 129.559311 170.858233 
L 131.278286 169.436388 
L 133.011393 168.031802 
L 134.758459 166.644618 
L 136.519309 165.274973 
L 138.293768 163.923006 
L 140.081657 162.58885 
L 141.882798 161.272639 
L 143.697011 159.974505 
L 145.524114 158.694578 
L 147.363925 157.432986 
L 149.21626 156.189854 
L 151.080933 154.965308 
L 152.957758 153.75947 
L 154.846548 152.572459 
L 156.747113 151.404396 
L 158.659263 150.255396 
L 160.582808 149.125575 
L 162.517555 148.015046 
L 164.463309 146.923919 
L 166.419878 145.852304 
L 168.387065 144.800308 
L 170.364673 143.768036 
L 172.352505 142.755591 
L 174.350362 141.763075 
L 176.358044 140.790587 
L 178.37535 139.838224 
L 180.402079 138.906082 
L 182.438028 137.994253 
L 184.482993 137.102828 
L 186.53677 136.231898 
L 188.599153 135.381549 
L 190.669937 134.551865 
L 192.748914 133.742931 
L 194.835876 132.954826 
L 196.930614 132.18763 
L 199.03292 131.44142 
L 201.142583 130.716269 
L 203.259391 130.012251 
L 205.383134 129.329436 
L 207.513599 128.667892 
L 209.650572 128.027686 
L 211.793841 127.408881 
L 213.94319 126.811539 
L 216.098405 126.23572 
L 218.259271 125.681482 
L 220.42557 125.14888 
L 222.597088 124.637967 
L 224.773606 124.148794 
L 226.220828 123.836154 
L 225.752329 121.632041 
L 224.290488 121.947839 
L 222.091986 122.441953 
L 219.898534 122.958026 
L 217.710352 123.496008 
L 215.52766 124.055845 
L 213.350675 124.63748 
L 211.179615 125.240856 
L 209.014697 125.865911 
L 206.856138 126.512585 
L 204.704154 127.180811 
L 202.558959 127.870523 
L 200.420769 128.581652 
L 198.289796 129.314127 
L 196.166255 130.067875 
L 194.050357 130.842821 
L 191.942315 131.638886 
L 189.842338 132.455992 
L 187.750638 133.294056 
L 185.667422 134.152994 
L 183.5929 135.032722 
L 181.527278 135.933151 
L 179.470765 136.85419 
L 177.423564 137.795748 
L 175.385881 138.757731 
L 173.357919 139.740042 
L 171.339882 140.742584 
L 169.331971 141.765255 
L 167.334387 142.807954 
L 165.347329 143.870576 
L 163.370997 144.953016 
L 161.405588 146.055164 
L 159.451299 147.176911 
L 157.508325 148.318144 
L 155.57686 149.47875 
L 153.657097 150.658612 
L 151.749229 151.857612 
L 149.853445 153.075631 
L 147.969937 154.312546 
L 146.098892 155.568235 
L 144.240497 156.84257 
L 142.394938 158.135426 
L 140.5624 159.446672 
L 138.743066 160.776178 
L 136.937117 162.12381 
L 135.144735 163.489434 
L 133.366098 164.872914 
L 131.601385 166.27411 
L 129.850772 167.692883 
L 128.114434 169.129091 
L 126.392544 170.58259 
L 124.685276 172.053235 
L 122.992799 173.540879 
L 121.315283 175.045373 
L 119.652895 176.566567 
L 118.005802 178.104308 
L 116.374169 179.658444 
L 114.758158 181.228817 
L 113.157932 182.815272 
L 111.57365 184.417649 
L 110.00547 186.035789 
L 108.45355 187.66953 
L 106.918045 189.318707 
L 105.399109 190.983157 
L 103.896892 192.662713 
L 102.411546 194.357207 
L 100.943218 196.06647 
L 99.492057 197.79033 
L 98.058206 199.528615 
L 96.64181 201.281151 
L 95.243009 203.047764 
L 93.861944 204.828276 
L 92.498753 206.62251 
L 91.153573 208.430285 
L 89.826536 210.251422 
L 88.517778 212.085737 
L 87.227428 213.933049 
L 85.955615 215.793171 
L 84.702466 217.665918 
L 83.468107 219.551103 
L 82.252662 221.448537 
L 81.056251 223.35803 
L 79.878995 225.279392 
L 78.721011 227.21243 
L 77.582415 229.156951 
L 76.463321 231.112761 
L 75.36384 233.079663 
L 74.284083 235.057462 
L 73.224158 237.045959 
L 72.184171 239.044956 
L 71.164225 241.054253 
L 70.164422 243.073649 
L 69.184864 245.102941 
L 68.225647 247.141928 
L 67.286867 249.190404 
L 66.368619 251.248166 
L 65.470994 253.315007 
L 64.594081 255.390721 
L 63.73797 257.4751 
L 62.902745 259.567936 
L 62.088489 261.669019 
L 61.295285 263.77814 
L 60.523211 265.895087 
L 59.772345 268.019649 
L 59.042762 270.151613 
L 58.334534 272.290767 
L 57.647733 274.436895 
L 56.982428 276.589784 
L 56.338684 278.749219 
L 55.716566 280.914983 
L 55.116137 283.086859 
L 54.537456 285.264631 
L 53.980581 287.448081 
L 53.445569 289.636991 
L 52.932472 291.831141 
L 52.441341 294.030312 
L 51.972227 296.234285 
L 51.525175 298.442838 
L 51.100231 300.655751 
L 50.697437 302.872803 
L 50.316833 305.093773 
L 49.958458 307.318437 
L 49.622347 309.546573 
L 49.308533 311.777959 
L 49.017049 314.012372 
L 48.747923 316.249588 
L 48.501182 318.489383 
z
" clip-path="url(#p4c8eabb26d)" style="fill: #ff3000"/>
   </g>
   <g id="patch_9">
    <path d="M 226.220828 123.836154 
L 228.405183 123.383258 
L 230.593957 122.952229 
L 232.786932 122.543108 
L 234.983889 122.155937 
L 237.184607 121.790754 
L 239.388867 121.447596 
L 241.596448 121.126498 
L 243.80713 120.827492 
L 246.020692 120.550607 
L 248.236911 120.295871 
L 250.455567 120.063309 
L 252.676438 119.852945 
L 254.899301 119.6648 
L 257.123935 119.498893 
L 259.350116 119.35524 
L 261.577623 119.233856 
L 263.806232 119.134752 
L 266.035721 119.05794 
L 268.265866 119.003425 
L 270.496445 118.971214 
L 272.602199 118.961276 
L 272.602199 116.707921 
L 270.475174 116.71796 
L 268.222065 116.750497 
L 265.969393 116.805562 
L 263.717384 116.88315 
L 261.466264 116.983255 
L 259.216257 117.105865 
L 256.967589 117.250969 
L 254.720484 117.418552 
L 252.475168 117.608598 
L 250.231864 117.821086 
L 247.990797 118.055997 
L 245.752192 118.313306 
L 243.516271 118.592988 
L 241.283259 118.895015 
L 239.053379 119.219357 
L 236.826853 119.56598 
L 234.603906 119.934852 
L 232.384758 120.325933 
L 230.169631 120.739187 
L 227.958748 121.174571 
L 225.752329 121.632041 
z
" clip-path="url(#p4c8eabb26d)" style="fill: #800000"/>
   </g>
   <g id="PatchCollection_1">
    <path d="M 50.742193 318.724923 
L 50.742193 318.724923 
L 50.986466 316.507525 
L 51.252901 314.292682 
L 51.54147 312.080613 
L 51.852145 309.871541 
L 52.184895 307.665686 
L 52.539687 305.463268 
L 52.916485 303.264509 
L 53.315251 301.069627 
L 53.735946 298.878843 
L 54.178527 296.692375 
L 54.64295 294.510442 
L 55.129169 292.333263 
L 55.637135 290.161054 
L 56.166798 287.994034 
L 56.718103 285.832418 
L 57.290997 283.676424 
L 57.885422 281.526266 
L 58.501319 279.38216 
L 59.138625 277.24432 
L 59.797278 275.11296 
L 60.438539 273.107197 
L 60.438539 273.107197 
Q 272.602199 342.043349 226.220828 123.836154 
L 226.220828 123.836154 
L 226.220828 123.836154 
L 228.405183 123.383258 
L 230.593957 122.952229 
L 232.786932 122.543108 
L 234.983889 122.155937 
L 237.184607 121.790754 
L 239.388867 121.447596 
L 241.596448 121.126498 
L 243.80713 120.827492 
L 246.020692 120.550607 
L 248.236911 120.295871 
L 250.455567 120.063309 
L 252.676438 119.852945 
L 254.899301 119.6648 
L 257.123935 119.498893 
L 259.350116 119.35524 
L 261.577623 119.233856 
L 263.806232 119.134752 
L 266.035721 119.05794 
L 268.265866 119.003425 
L 270.496445 118.971214 
L 272.602199 118.961276 
L 272.602199 118.961276 
Q 272.602199 342.043349 50.742193 318.724923 
z
" clip-path="url(#p4c8eabb26d)" style="fill: #ff3000; fill-opacity: 0.5; stroke: #808080; stroke-opacity: 0.5; stroke-width: 0.1"/>
    <path d="M 60.438539 273.107197 
L 60.438539 273.107197 
L 61.138498 270.989043 
L 61.859602 268.877994 
L 62.60178 266.774261 
L 63.364959 264.678055 
L 64.14906 262.589586 
L 64.954007 260.509062 
L 65.779719 258.436691 
L 66.626113 256.372681 
L 67.493104 254.317238 
L 68.380606 252.270568 
L 69.288529 250.232874 
L 70.216785 248.204362 
L 71.165278 246.185234 
L 72.133915 244.175691 
L 73.122598 242.175935 
L 74.13123 240.186165 
L 75.159708 238.206582 
L 76.207931 236.237381 
L 77.275792 234.278762 
L 78.363186 232.330918 
L 79.470004 230.394046 
L 80.596135 228.468339 
L 81.741467 226.553989 
L 82.905884 224.651188 
L 84.089271 222.760126 
L 85.291509 220.880992 
L 86.512477 219.013974 
L 87.752055 217.15926 
L 89.010118 215.317033 
L 90.286539 213.487479 
L 91.581192 211.670781 
L 92.893947 209.867119 
L 94.224673 208.076676 
L 95.573236 206.299628 
L 96.939502 204.536155 
L 98.323334 202.786433 
L 99.724594 201.050636 
L 101.143141 199.328939 
L 102.578834 197.621512 
L 104.03153 195.928528 
L 105.501082 194.250155 
L 106.819911 192.772306 
L 106.819911 192.772306 
Q 272.602199 342.043349 465.796942 453.584386 
L 465.796942 453.584386 
L 465.796942 453.584386 
L 464.67189 455.510724 
L 463.527632 457.425715 
L 462.364281 459.329169 
L 461.181955 461.220894 
L 459.98077 463.100701 
L 458.760848 464.968403 
L 457.52231 466.823812 
L 456.26528 468.666743 
L 454.989884 470.497012 
L 453.69625 472.314436 
L 452.384506 474.118833 
L 451.054784 475.910022 
L 449.707217 477.687825 
L 448.34194 479.452064 
L 446.959089 481.202562 
L 445.558802 482.939143 
L 444.14122 484.661636 
L 442.706484 486.369867 
L 441.254738 488.063665 
L 439.786126 489.742861 
L 438.300796 491.407288 
L 436.798897 493.056778 
L 435.280578 494.691167 
L 433.745992 496.310291 
L 432.195291 497.913989 
L 430.628631 499.5021 
L 429.046168 501.074465 
L 427.448061 502.630927 
L 425.83447 504.171331 
L 424.205556 505.695522 
L 422.561481 507.203347 
L 420.902411 508.694657 
L 419.228511 510.169302 
L 417.539948 511.627135 
L 415.836892 513.068009 
L 414.119512 514.491781 
L 412.38798 515.898308 
L 410.642471 517.28745 
L 408.883157 518.659067 
L 407.110215 520.013023 
L 405.323823 521.349183 
L 403.726552 522.520537 
L 403.726552 522.520537 
Q 272.602199 342.043349 60.438539 273.107197 
z
" clip-path="url(#p4c8eabb26d)" style="fill: #ff3000; fill-opacity: 0.5; stroke: #808080; stroke-opacity: 0.5; stroke-width: 0.1"/>
    <path d="M 403.726552 522.520537 
L 403.726552 522.520537 
L 401.915254 523.822735 
L 400.091025 525.106755 
L 398.254047 526.372469 
L 396.404504 527.61975 
L 394.54258 528.848474 
L 392.668463 530.058517 
L 390.78234 531.249759 
L 388.884398 532.422081 
L 386.974829 533.575365 
L 385.053822 534.709495 
L 383.12157 535.82436 
L 381.178266 536.919846 
L 379.224105 537.995845 
L 377.259282 539.052249 
L 375.283993 540.088952 
L 373.298436 541.10585 
L 371.302809 542.102843 
L 369.297312 543.079829 
L 367.282146 544.036713 
L 365.257512 544.973397 
L 363.223613 545.889788 
L 361.180652 546.785795 
L 359.128832 547.661328 
L 357.068361 548.516299 
L 354.999442 549.350623 
L 352.922284 550.164216 
L 350.837094 550.956998 
L 348.744081 551.728888 
L 346.643453 552.47981 
L 344.535422 553.209688 
L 342.420197 553.91845 
L 340.29799 554.606025 
L 338.169014 555.272344 
L 336.033482 555.91734 
L 333.891606 556.540948 
L 331.743601 557.143107 
L 329.589682 557.723756 
L 327.430065 558.282838 
L 325.264965 558.820296 
L 323.094598 559.336076 
L 320.919182 559.830127 
L 318.738935 560.302399 
L 316.554074 560.752846 
L 314.364818 561.181422 
L 312.171386 561.588084 
L 309.973997 561.972793 
L 307.77287 562.335508 
L 305.568227 562.676194 
L 303.360287 562.994818 
L 301.149271 563.291346 
L 298.935401 563.565749 
L 296.718897 563.818001 
L 294.499982 564.048075 
L 292.278876 564.255949 
L 290.055804 564.441602 
L 287.830985 564.605016 
L 285.604644 564.746173 
L 283.377003 564.86506 
L 281.148285 564.961666 
L 278.918711 565.035979 
L 276.688506 565.087994 
L 274.457893 565.117704 
L 272.602199 565.125422 
L 272.602199 565.125422 
Q 272.602199 342.043349 106.819911 192.772306 
L 106.819911 192.772306 
L 106.819911 192.772306 
L 108.320885 191.121974 
L 109.838288 189.486734 
L 111.371967 187.86675 
L 112.921768 186.262184 
L 114.487538 184.673195 
L 116.069119 183.099943 
L 117.666353 181.542585 
L 119.279081 180.001278 
L 120.90714 178.476174 
L 122.55037 176.967427 
L 124.208604 175.475188 
L 125.881677 173.999605 
L 127.569423 172.540826 
L 129.271671 171.098998 
L 130.988253 169.674263 
L 132.718996 168.266766 
L 134.463727 166.876646 
L 136.222271 165.504042 
L 137.994454 164.149093 
L 139.780097 162.811932 
L 141.579022 161.492695 
L 143.39105 160.191513 
L 145.215999 158.908515 
L 147.053686 157.643831 
L 148.903927 156.397587 
L 150.766539 155.169907 
L 152.641334 153.960914 
L 154.528125 152.770729 
L 156.426723 151.599472 
L 158.336939 150.447259 
L 160.258581 149.314205 
L 162.191458 148.200424 
L 164.135375 147.106027 
L 166.090139 146.031123 
L 168.055554 144.975821 
L 170.031424 143.940225 
L 172.017551 142.92444 
L 174.013736 141.928566 
L 176.01978 140.952703 
L 178.035482 139.99695 
L 180.06064 139.061401 
L 182.095053 138.146149 
L 184.138516 137.251288 
L 186.190826 136.376905 
L 188.251777 135.523089 
L 190.321162 134.689925 
L 192.398776 133.877496 
L 194.48441 133.085883 
L 196.577856 132.315166 
L 198.678904 131.565422 
L 200.787344 130.836725 
L 202.902966 130.129149 
L 205.025557 129.442763 
L 207.154907 128.777638 
L 209.290801 128.133839 
L 211.433026 127.511431 
L 213.581367 126.910476 
L 215.735611 126.331034 
L 217.895542 125.773164 
L 220.060943 125.23692 
L 222.231598 124.722356 
L 224.40729 124.229524 
L 226.220828 123.836154 
L 226.220828 123.836154 
Q 272.602199 342.043349 403.726552 522.520537 
z
" clip-path="url(#p4c8eabb26d)" style="fill: #ffb900; fill-opacity: 0.5; stroke: #808080; stroke-opacity: 0.5; stroke-width: 0.1"/>
    <path d="M 272.602199 565.125422 
L 272.602199 565.125422 
L 270.371415 565.114268 
L 268.140855 565.080807 
L 265.910741 565.025043 
L 263.681295 564.94698 
L 261.452742 564.846628 
L 259.225304 564.723995 
L 256.999204 564.579094 
L 254.774663 564.41194 
L 252.551906 564.22255 
L 250.331153 564.010941 
L 248.112628 563.777136 
L 245.896552 563.521158 
L 243.683146 563.243032 
L 241.472632 562.942786 
L 239.265231 562.620451 
L 237.061163 562.276058 
L 234.86065 561.909642 
L 232.663911 561.52124 
L 230.471165 561.11089 
L 228.282633 560.678633 
L 226.220828 560.250544 
L 226.220828 560.250544 
Q 272.602199 342.043349 494.462205 365.361775 
L 494.462205 365.361775 
L 494.462205 365.361775 
L 494.217932 367.579172 
L 493.951497 369.794016 
L 493.662928 372.006085 
L 493.352253 374.215157 
L 493.019503 376.421012 
L 492.664711 378.62343 
L 492.287913 380.822189 
L 491.889147 383.017071 
L 491.468452 385.207855 
L 491.025871 387.394323 
L 490.561448 389.576256 
L 490.075229 391.753435 
L 489.567263 393.925644 
L 489.0376 396.092664 
L 488.486295 398.25428 
L 487.9134 400.410274 
L 487.318976 402.560432 
L 486.703079 404.704538 
L 486.065773 406.842378 
L 485.40712 408.973738 
L 484.765858 410.979501 
L 484.765858 410.979501 
Q 272.602199 342.043349 272.602199 565.125422 
z
" clip-path="url(#p4c8eabb26d)" style="fill: #ffb900; fill-opacity: 0.5; stroke: #808080; stroke-opacity: 0.5; stroke-width: 0.1"/>
    <path d="M 484.765858 410.979501 
L 484.765858 410.979501 
L 484.0659 413.097655 
L 483.344796 415.208704 
L 482.602618 417.312437 
L 481.839439 419.408643 
L 481.055338 421.497112 
L 480.250391 423.577636 
L 479.424679 425.650007 
L 478.578285 427.714017 
L 477.711294 429.76946 
L 476.823792 431.81613 
L 475.915868 433.853823 
L 474.987613 435.882336 
L 474.03912 437.901464 
L 473.070483 439.911007 
L 472.081799 441.910763 
L 471.073168 443.900533 
L 470.04469 445.880116 
L 468.996467 447.849317 
L 467.928606 449.807936 
L 466.841212 451.75578 
L 465.796942 453.584386 
L 465.796942 453.584386 
Q 272.602199 342.043349 226.220828 560.250544 
L 226.220828 560.250544 
L 226.220828 560.250544 
L 224.041111 559.775827 
L 221.866251 559.279338 
L 219.696464 558.761125 
L 217.531968 558.221241 
L 215.372978 557.659739 
L 213.219712 557.076676 
L 211.072383 556.472109 
L 208.931208 555.8461 
L 206.7964 555.198711 
L 204.668172 554.530006 
L 202.546737 553.840053 
L 200.432308 553.12892 
L 198.325096 552.396679 
L 196.225312 551.643403 
L 194.133165 550.869167 
L 192.048865 550.074048 
L 189.97262 549.258127 
L 187.904639 548.421484 
L 185.845126 547.564204 
L 183.79429 546.686372 
L 181.866545 545.838964 
L 181.866545 545.838964 
Q 272.602199 342.043349 484.765858 410.979501 
z
" clip-path="url(#p4c8eabb26d)" style="fill: #b7ff40; fill-opacity: 0.5; stroke: #808080; stroke-opacity: 0.5; stroke-width: 0.1"/>
    <path d="M 363.337853 138.247734 
L 363.337853 138.247734 
L 365.371238 139.165265 
L 367.395347 140.103084 
L 369.409976 141.061097 
L 371.414925 142.039207 
L 373.409992 143.037318 
L 375.394979 144.05533 
L 377.369687 145.09314 
L 379.333918 146.150644 
L 381.287475 147.227738 
L 383.230165 148.324314 
L 385.161792 149.440261 
L 387.082162 150.575468 
L 388.991085 151.729822 
L 390.888369 152.903207 
L 392.773825 154.095506 
L 394.647264 155.306599 
L 396.508498 156.536367 
L 398.357341 157.784684 
L 400.19361 159.051427 
L 402.017119 160.33647 
L 403.827687 161.639683 
L 405.625132 162.960936 
L 407.409275 164.300097 
L 409.179938 165.657032 
L 410.936943 167.031606 
L 412.680114 168.423681 
L 414.409278 169.833118 
L 416.124262 171.259776 
L 417.824893 172.703511 
L 419.511002 174.164181 
L 421.18242 175.641638 
L 422.838981 177.135736 
L 424.480518 178.646324 
L 426.106867 180.173252 
L 427.717866 181.716366 
L 429.313353 183.275513 
L 430.893169 184.850537 
L 432.457157 186.44128 
L 434.005159 188.047583 
L 435.537021 189.669285 
L 437.052589 191.306225 
L 438.551713 192.958238 
L 440.034242 194.62516 
L 441.500028 196.306823 
L 442.948924 198.00306 
L 444.380785 199.713701 
L 445.795469 201.438575 
L 447.192834 203.177509 
L 448.57274 204.930329 
L 449.935049 206.696861 
L 451.279624 208.476927 
L 452.606333 210.27035 
L 453.915041 212.07695 
L 455.205617 213.896546 
L 456.477934 215.728957 
L 457.731863 217.574 
L 458.967279 219.431489 
L 460.184059 221.301239 
L 461.382081 223.183064 
L 462.561225 225.076774 
L 463.721374 226.982181 
L 464.86241 228.899094 
L 465.984221 230.827321 
L 467.086694 232.76667 
L 468.169718 234.716946 
L 469.233186 236.677955 
L 470.276991 238.6495 
L 471.301029 240.631385 
L 472.305197 242.62341 
L 473.289394 244.625378 
L 474.253524 246.637088 
L 475.197488 248.658337 
L 476.121193 250.688926 
L 477.024546 252.728649 
L 477.907457 254.777305 
L 478.769838 256.834686 
L 479.611602 258.900589 
L 480.432665 260.974805 
L 481.232946 263.057129 
L 482.012363 265.147351 
L 482.77084 267.245262 
L 483.5083 269.350653 
L 484.22467 271.463314 
L 484.765858 273.107197 
L 484.765858 273.107197 
Q 272.602199 342.043349 181.866545 545.838964 
L 181.866545 545.838964 
L 181.866545 545.838964 
L 179.83316 544.921433 
L 177.809051 543.983614 
L 175.794422 543.025601 
L 173.789473 542.047491 
L 171.794406 541.04938 
L 169.809419 540.031368 
L 167.834711 538.993558 
L 165.87048 537.936054 
L 163.916923 536.85896 
L 161.974233 535.762384 
L 160.042606 534.646437 
L 158.122236 533.51123 
L 156.213313 532.356876 
L 154.316028 531.183491 
L 152.430573 529.991192 
L 150.557134 528.780098 
L 148.6959 527.550331 
L 146.847056 526.302014 
L 145.010788 525.03527 
L 143.187279 523.750228 
L 141.376711 522.447015 
L 139.579266 521.125762 
L 137.795123 519.786601 
L 136.02446 518.429666 
L 134.267455 517.055092 
L 132.524284 515.663017 
L 130.79512 514.25358 
L 129.080136 512.826922 
L 127.379505 511.383187 
L 125.693396 509.922517 
L 124.021978 508.44506 
L 122.365417 506.950962 
L 120.72388 505.440374 
L 119.097531 503.913446 
L 117.486532 502.370332 
L 115.891045 500.811185 
L 114.311229 499.236161 
L 112.747241 497.645418 
L 111.199239 496.039115 
L 109.667377 494.417413 
L 108.151809 492.780473 
L 106.652685 491.12846 
L 105.170156 489.461538 
L 103.70437 487.779875 
L 102.255474 486.083638 
L 100.823613 484.372997 
L 99.408929 482.648123 
L 98.011564 480.909189 
L 96.631658 479.156369 
L 95.269349 477.389837 
L 93.924773 475.609771 
L 92.598065 473.816348 
L 91.289357 472.009748 
L 89.998781 470.190152 
L 88.726464 468.357741 
L 87.472535 466.512698 
L 86.237119 464.655209 
L 85.020339 462.785459 
L 83.822317 460.903634 
L 82.643173 459.009924 
L 81.483024 457.104517 
L 80.341987 455.187604 
L 79.220177 453.259377 
L 78.117704 451.320028 
L 77.03468 449.369752 
L 75.971212 447.408743 
L 74.927407 445.437198 
L 73.903369 443.455313 
L 72.899201 441.463287 
L 71.915004 439.46132 
L 70.950874 437.44961 
L 70.00691 435.428361 
L 69.083205 433.397772 
L 68.179852 431.358048 
L 67.296941 429.309393 
L 66.43456 427.252012 
L 65.592796 425.186109 
L 64.771733 423.111893 
L 63.971452 421.029569 
L 63.192035 418.939347 
L 62.433558 416.841436 
L 61.696098 414.736045 
L 60.979728 412.623384 
L 60.438539 410.979501 
L 60.438539 410.979501 
Q 272.602199 342.043349 363.337853 138.247734 
z
" clip-path="url(#p4c8eabb26d)" style="fill: #00a4ff; fill-opacity: 0.5; stroke: #808080; stroke-opacity: 0.5; stroke-width: 0.1"/>
    <path d="M 484.765858 273.107197 
L 484.765858 273.107197 
L 485.4446 275.232245 
L 486.102058 277.363974 
L 486.738166 279.502171 
L 487.352861 281.646622 
L 487.946081 283.797113 
L 488.517766 285.953428 
L 489.06786 288.115352 
L 489.596308 290.282669 
L 490.103057 292.455162 
L 490.588055 294.632614 
L 491.051256 296.814807 
L 491.492611 299.001522 
L 491.912078 301.192542 
L 492.309614 303.387647 
L 492.685179 305.586617 
L 493.038736 307.789233 
L 493.37025 309.995274 
L 493.679687 312.20452 
L 493.967017 314.41675 
L 494.23221 316.631743 
L 494.462205 318.724923 
L 494.462205 318.724923 
Q 272.602199 342.043349 494.462205 318.724923 
L 494.462205 318.724923 
L 494.462205 318.724923 
L 494.684293 320.944652 
L 494.884172 323.166491 
L 495.061824 325.390217 
L 495.217229 327.615609 
L 495.350374 329.842443 
L 495.461243 332.070498 
L 495.549827 334.29955 
L 495.616117 336.529376 
L 495.660105 338.759754 
L 495.681788 340.99046 
L 495.681162 343.221271 
L 495.65823 345.451965 
L 495.612991 347.682318 
L 495.545452 349.912107 
L 495.455619 352.141108 
L 495.3435 354.369101 
L 495.209108 356.59586 
L 495.052455 358.821165 
L 494.873557 361.044791 
L 494.672432 363.266518 
L 494.462205 365.361775 
L 494.462205 365.361775 
Q 272.602199 342.043349 484.765858 273.107197 
z
" clip-path="url(#p4c8eabb26d)" style="fill: #00a4ff; fill-opacity: 0.5; stroke: #808080; stroke-opacity: 0.5; stroke-width: 0.1"/>
    <path d="M 318.98357 123.836154 
L 318.98357 123.836154 
L 321.163287 124.31087 
L 323.338147 124.80736 
L 325.507934 125.325572 
L 327.67243 125.865457 
L 329.83142 126.426959 
L 331.984686 127.010022 
L 334.132015 127.614589 
L 336.27319 128.240598 
L 338.407998 128.887987 
L 340.536226 129.556692 
L 342.657661 130.246645 
L 344.77209 130.957778 
L 346.879302 131.690019 
L 348.979086 132.443295 
L 351.071233 133.217531 
L 353.155533 134.01265 
L 355.231778 134.828571 
L 357.299759 135.665214 
L 359.359271 136.522494 
L 361.410108 137.400326 
L 363.337853 138.247734 
L 363.337853 138.247734 
Q 272.602199 342.043349 60.438539 410.979501 
L 60.438539 410.979501 
L 60.438539 410.979501 
L 59.759798 408.854453 
L 59.10234 406.722724 
L 58.466232 404.584527 
L 57.851537 402.440076 
L 57.258317 400.289585 
L 56.686632 398.13327 
L 56.136537 395.971346 
L 55.60809 393.804029 
L 55.101341 391.631536 
L 54.616342 389.454084 
L 54.153142 387.271891 
L 53.711787 385.085176 
L 53.29232 382.894156 
L 52.894784 380.699051 
L 52.519219 378.500081 
L 52.165662 376.297465 
L 51.834148 374.091424 
L 51.524711 371.882178 
L 51.237381 369.669948 
L 50.972188 367.454955 
L 50.742193 365.361775 
L 50.742193 365.361775 
Q 272.602199 342.043349 318.98357 123.836154 
z
" clip-path="url(#p4c8eabb26d)" style="fill: #0010ff; fill-opacity: 0.5; stroke: #808080; stroke-opacity: 0.5; stroke-width: 0.1"/>
    <path d="M 272.602199 118.961276 
L 272.602199 118.961276 
L 274.832983 118.97243 
L 277.063543 119.005891 
L 279.293657 119.061655 
L 281.523103 119.139718 
L 283.751656 119.24007 
L 285.979094 119.362703 
L 288.205194 119.507604 
L 290.429735 119.674758 
L 292.652492 119.864148 
L 294.873245 120.075757 
L 297.09177 120.309562 
L 299.307846 120.56554 
L 301.521252 120.843666 
L 303.731766 121.143912 
L 305.939167 121.466247 
L 308.143235 121.81064 
L 310.343748 122.177056 
L 312.540487 122.565458 
L 314.733233 122.975808 
L 316.921765 123.408065 
L 318.98357 123.836154 
L 318.98357 123.836154 
Q 272.602199 342.043349 50.742193 365.361775 
L 50.742193 365.361775 
L 50.742193 365.361775 
L 50.520105 363.142046 
L 50.320226 360.920207 
L 50.142574 358.696481 
L 49.987169 356.471089 
L 49.854024 354.244254 
L 49.743155 352.0162 
L 49.654571 349.787148 
L 49.588281 347.557322 
L 49.544293 345.326944 
L 49.52261 343.096238 
L 49.523236 340.865426 
L 49.546168 338.634733 
L 49.591407 336.40438 
L 49.658946 334.174591 
L 49.748779 331.945589 
L 49.860898 329.717597 
L 49.99529 327.490838 
L 50.151943 325.265533 
L 50.330841 323.041907 
L 50.531966 320.82018 
L 50.742193 318.724923 
L 50.742193 318.724923 
Q 272.602199 342.043349 272.602199 118.961276 
z
" clip-path="url(#p4c8eabb26d)" style="fill: #000080; fill-opacity: 0.5; stroke: #808080; stroke-opacity: 0.5; stroke-width: 0.1"/>
   </g>
   <g id="patch_10">
    <path d="M 272.602199 118.961276 
L 274.832983 118.97243 
L 277.063543 119.005891 
L 279.293657 119.061655 
L 281.523103 119.139718 
L 283.751656 119.24007 
L 285.979094 119.362703 
L 288.205194 119.507604 
L 290.429735 119.674758 
L 292.652492 119.864148 
L 294.873245 120.075757 
L 297.09177 120.309562 
L 299.307846 120.56554 
L 301.521252 120.843666 
L 303.731766 121.143912 
L 305.939167 121.466247 
L 308.143235 121.81064 
L 310.343748 122.177056 
L 312.540487 122.565458 
L 314.733233 122.975808 
L 316.921765 123.408065 
L 318.98357 123.836154 
L 319.452069 121.632041 
L 317.369438 121.199628 
L 315.158799 120.763005 
L 312.943904 120.34851 
L 310.724976 119.956184 
L 308.502235 119.586067 
L 306.275904 119.238195 
L 304.046206 118.912604 
L 301.813364 118.609326 
L 299.5776 118.32839 
L 297.339139 118.069827 
L 295.098205 117.83366 
L 292.85502 117.619914 
L 290.609811 117.42861 
L 288.3628 117.259768 
L 286.114214 117.113403 
L 283.864276 116.989532 
L 281.613213 116.888166 
L 279.361248 116.809315 
L 277.108607 116.752987 
L 274.855516 116.719188 
L 272.602199 116.707921 
L 272.602199 118.961276 
z
" clip-path="url(#p4c8eabb26d)" style="fill: none; stroke: #000000; stroke-width: 0.5; stroke-linejoin: miter"/>
   </g>
   <g id="patch_11">
    <path d="M 318.98357 123.836154 
L 321.163287 124.31087 
L 323.338147 124.80736 
L 325.507934 125.325572 
L 327.67243 125.865457 
L 329.83142 126.426959 
L 331.984686 127.010022 
L 334.132015 127.614589 
L 336.27319 128.240598 
L 338.407998 128.887987 
L 340.536226 129.556692 
L 342.657661 130.246645 
L 344.77209 130.957778 
L 346.879302 131.690019 
L 348.979086 132.443295 
L 351.071233 133.217531 
L 353.155533 134.01265 
L 355.231778 134.828571 
L 357.299759 135.665214 
L 359.359271 136.522494 
L 361.410108 137.400326 
L 363.337853 138.247734 
L 364.254374 136.189193 
L 362.307158 135.333225 
L 360.235606 134.446526 
L 358.15529 133.580586 
L 356.06642 132.735493 
L 353.969203 131.91133 
L 351.863849 131.10818 
L 349.75057 130.326123 
L 347.629575 129.565238 
L 345.501078 128.8256 
L 343.365292 128.107285 
L 341.222428 127.410362 
L 339.072703 126.734903 
L 336.916331 126.080974 
L 334.753528 125.448642 
L 332.584509 124.837968 
L 330.409493 124.249015 
L 328.228695 123.681842 
L 326.042335 123.136504 
L 323.850631 122.613057 
L 321.653803 122.111552 
L 319.452069 121.632041 
L 318.98357 123.836154 
z
" clip-path="url(#p4c8eabb26d)" style="fill: none; stroke: #000000; stroke-width: 0.5; stroke-linejoin: miter"/>
   </g>
   <g id="patch_12">
    <path d="M 363.337853 138.247734 
L 365.371238 139.165265 
L 367.395347 140.103084 
L 369.409976 141.061097 
L 371.414925 142.039207 
L 373.409992 143.037318 
L 375.394979 144.05533 
L 377.369687 145.09314 
L 379.333918 146.150644 
L 381.287475 147.227738 
L 383.230165 148.324314 
L 385.161792 149.440261 
L 387.082162 150.575468 
L 388.991085 151.729822 
L 390.888369 152.903207 
L 392.773825 154.095506 
L 394.647264 155.306599 
L 396.508498 156.536367 
L 398.357341 157.784684 
L 400.19361 159.051427 
L 402.017119 160.33647 
L 403.827687 161.639683 
L 405.625132 162.960936 
L 407.409275 164.300097 
L 409.179938 165.657032 
L 410.936943 167.031606 
L 412.680114 168.423681 
L 414.409278 169.833118 
L 416.124262 171.259776 
L 417.824893 172.703511 
L 419.511002 174.164181 
L 421.18242 175.641638 
L 422.838981 177.135736 
L 424.480518 178.646324 
L 426.106867 180.173252 
L 427.717866 181.716366 
L 429.313353 183.275513 
L 430.893169 184.850537 
L 432.457157 186.44128 
L 434.005159 188.047583 
L 435.537021 189.669285 
L 437.052589 191.306225 
L 438.551713 192.958238 
L 440.034242 194.62516 
L 441.500028 196.306823 
L 442.948924 198.00306 
L 444.380785 199.713701 
L 445.795469 201.438575 
L 447.192834 203.177509 
L 448.57274 204.930329 
L 449.935049 206.696861 
L 451.279624 208.476927 
L 452.606333 210.27035 
L 453.915041 212.07695 
L 455.205617 213.896546 
L 456.477934 215.728957 
L 457.731863 217.574 
L 458.967279 219.431489 
L 460.184059 221.301239 
L 461.382081 223.183064 
L 462.561225 225.076774 
L 463.721374 226.982181 
L 464.86241 228.899094 
L 465.984221 230.827321 
L 467.086694 232.76667 
L 468.169718 234.716946 
L 469.233186 236.677955 
L 470.276991 238.6495 
L 471.301029 240.631385 
L 472.305197 242.62341 
L 473.289394 244.625378 
L 474.253524 246.637088 
L 475.197488 248.658337 
L 476.121193 250.688926 
L 477.024546 252.728649 
L 477.907457 254.777305 
L 478.769838 256.834686 
L 479.611602 258.900589 
L 480.432665 260.974805 
L 481.232946 263.057129 
L 482.012363 265.147351 
L 482.77084 267.245262 
L 483.5083 269.350653 
L 484.22467 271.463314 
L 484.919877 273.583032 
L 485.593853 275.709597 
L 486.24653 277.842794 
L 486.877843 279.982412 
L 487.487728 282.128236 
L 488.076125 284.280051 
L 488.642975 286.437642 
L 489.188221 288.600795 
L 489.711808 290.769291 
L 490.213685 292.942914 
L 490.6938 295.121448 
L 491.152107 297.304674 
L 491.588559 299.492373 
L 492.003112 301.684328 
L 492.395726 303.880318 
L 492.76636 306.080125 
L 493.114979 308.283528 
L 493.441546 310.490307 
L 493.746029 312.700242 
L 494.028398 314.91311 
L 494.288625 317.128692 
L 494.462205 318.724923 
L 496.703216 318.489383 
L 496.527881 316.877028 
L 496.265026 314.639067 
L 495.979805 312.403846 
L 495.672246 310.17159 
L 495.34238 307.94252 
L 494.990241 305.71686 
L 494.615863 303.494833 
L 494.219283 301.276661 
L 493.800542 299.062565 
L 493.359682 296.852768 
L 492.896746 294.647489 
L 492.411781 292.44695 
L 491.904834 290.251371 
L 491.375958 288.060971 
L 490.825205 285.875969 
L 490.252629 283.696583 
L 489.658289 281.523033 
L 489.042243 279.355534 
L 488.404554 277.194304 
L 487.745284 275.039559 
L 487.0645 272.891514 
L 486.36227 270.750384 
L 485.638665 268.616384 
L 484.893755 266.489726 
L 484.127617 264.370623 
L 483.340327 262.259288 
L 482.531963 260.155931 
L 481.702606 258.060763 
L 480.852339 255.973993 
L 479.981247 253.895829 
L 479.089418 251.826481 
L 478.17694 249.766154 
L 477.243905 247.715054 
L 476.290406 245.673388 
L 475.316538 243.641358 
L 474.322399 241.619169 
L 473.308088 239.607021 
L 472.273706 237.605118 
L 471.219358 235.613658 
L 470.145148 233.632841 
L 469.051184 231.662865 
L 467.937575 229.703927 
L 466.804433 227.756222 
L 465.651871 225.819947 
L 464.480003 223.895293 
L 463.288949 221.982455 
L 462.078826 220.081622 
L 460.849755 218.192985 
L 459.60186 216.316733 
L 458.335265 214.453054 
L 457.050096 212.602134 
L 455.746483 210.764158 
L 454.424556 208.939309 
L 453.084447 207.127771 
L 451.72629 205.329725 
L 450.35022 203.545349 
L 448.956376 201.774823 
L 447.544896 200.018324 
L 446.115923 198.276028 
L 444.669598 196.548108 
L 443.206066 194.834737 
L 441.725475 193.136087 
L 440.227971 191.452328 
L 438.713704 189.783628 
L 437.182827 188.130153 
L 435.635492 186.49207 
L 434.071853 184.869542 
L 432.492068 183.262731 
L 430.896294 181.671798 
L 429.28469 180.096902 
L 427.657419 178.5382 
L 426.014642 176.995849 
L 424.356524 175.470002 
L 422.683231 173.960813 
L 420.994929 172.468432 
L 419.291789 170.993008 
L 417.573979 169.534689 
L 415.841673 168.093621 
L 414.095043 166.669947 
L 412.334263 165.263811 
L 410.559511 163.875352 
L 408.770963 162.504711 
L 406.968798 161.152023 
L 405.153197 159.817423 
L 403.32434 158.501047 
L 401.482412 157.203024 
L 399.627595 155.923485 
L 397.760077 154.662559 
L 395.880042 153.42037 
L 393.98768 152.197043 
L 392.083179 150.992701 
L 390.166731 149.807463 
L 388.238526 148.641449 
L 386.298757 147.494775 
L 384.347619 146.367556 
L 382.385306 145.259904 
L 380.412016 144.17193 
L 378.427944 143.103744 
L 376.43329 142.055451 
L 374.428253 141.027156 
L 372.413033 140.018963 
L 370.387832 139.030973 
L 368.352853 138.063283 
L 366.308299 137.115992 
L 364.254374 136.189193 
L 363.337853 138.247734 
z
" clip-path="url(#p4c8eabb26d)" style="fill: none; stroke: #000000; stroke-width: 0.5; stroke-linejoin: miter"/>
   </g>
   <g id="patch_13">
    <path d="M 494.462205 318.724923 
L 494.684293 320.944652 
L 494.884172 323.166491 
L 495.061824 325.390217 
L 495.217229 327.615609 
L 495.350374 329.842443 
L 495.461243 332.070498 
L 495.549827 334.29955 
L 495.616117 336.529376 
L 495.660105 338.759754 
L 495.681788 340.99046 
L 495.681162 343.221271 
L 495.65823 345.451965 
L 495.612991 347.682318 
L 495.545452 349.912107 
L 495.455619 352.141108 
L 495.3435 354.369101 
L 495.209108 356.59586 
L 495.052455 358.821165 
L 494.873557 361.044791 
L 494.672432 363.266518 
L 494.462205 365.361775 
L 496.703216 365.597315 
L 496.915566 363.480893 
L 497.118722 361.236725 
L 497.299427 358.990638 
L 497.457662 356.742855 
L 497.593412 354.493603 
L 497.706663 352.243106 
L 497.797404 349.991589 
L 497.865626 347.739277 
L 497.911321 345.486395 
L 497.934485 343.23317 
L 497.935117 340.979825 
L 497.913215 338.726586 
L 497.868783 336.47368 
L 497.801824 334.22133 
L 497.712345 331.969762 
L 497.600355 329.719202 
L 497.465866 327.469874 
L 497.308891 325.222004 
L 497.129445 322.975815 
L 496.927546 320.731534 
L 496.703216 318.489383 
L 494.462205 318.724923 
z
" clip-path="url(#p4c8eabb26d)" style="fill: none; stroke: #000000; stroke-width: 0.5; stroke-linejoin: miter"/>
   </g>
   <g id="patch_14">
    <path d="M 494.462205 365.361775 
L 494.217932 367.579172 
L 493.951497 369.794016 
L 493.662928 372.006085 
L 493.352253 374.215157 
L 493.019503 376.421012 
L 492.664711 378.62343 
L 492.287913 380.822189 
L 491.889147 383.017071 
L 491.468452 385.207855 
L 491.025871 387.394323 
L 490.561448 389.576256 
L 490.075229 391.753435 
L 489.567263 393.925644 
L 489.0376 396.092664 
L 488.486295 398.25428 
L 487.9134 400.410274 
L 487.318976 402.560432 
L 486.703079 404.704538 
L 486.065773 406.842378 
L 485.40712 408.973738 
L 484.727187 411.098405 
L 484.026042 413.216167 
L 483.303754 415.326812 
L 482.560397 417.430128 
L 481.796044 419.525906 
L 481.010772 421.613935 
L 480.204659 423.694008 
L 479.377786 425.765915 
L 478.530235 427.829451 
L 477.662092 429.884407 
L 476.773444 431.93058 
L 475.864378 433.967764 
L 474.934986 435.995756 
L 473.985361 438.014353 
L 473.015598 440.023352 
L 472.025793 442.022554 
L 471.016047 444.011758 
L 469.986459 445.990765 
L 468.937133 447.959377 
L 467.868174 449.917398 
L 466.779688 451.864631 
L 465.796942 453.584386 
L 467.748404 454.711063 
L 468.741077 452.973937 
L 469.840558 451.007035 
L 470.920315 449.029236 
L 471.98024 447.040738 
L 473.020227 445.041741 
L 474.040173 443.032445 
L 475.039976 441.013049 
L 476.019534 438.983757 
L 476.978751 436.94477 
L 477.917531 434.896294 
L 478.835779 432.838532 
L 479.733404 430.771691 
L 480.610317 428.695977 
L 481.466428 426.611598 
L 482.301653 424.518762 
L 483.115909 422.417679 
L 483.909113 420.308558 
L 484.681187 418.191611 
L 485.432053 416.067049 
L 486.161636 413.935085 
L 486.869864 411.795931 
L 487.556665 409.649803 
L 488.22197 407.496914 
L 488.865714 405.337479 
L 489.487832 403.171715 
L 490.088261 400.999839 
L 490.666942 398.822067 
L 491.223817 396.638617 
L 491.758829 394.449707 
L 492.271926 392.255557 
L 492.763057 390.056386 
L 493.232171 387.852413 
L 493.679223 385.64386 
L 494.104167 383.430947 
L 494.506961 381.213894 
L 494.887565 378.992925 
L 495.24594 376.768261 
L 495.582051 374.540125 
L 495.895865 372.308739 
L 496.187349 370.074326 
L 496.456475 367.83711 
L 496.703216 365.597315 
L 494.462205 365.361775 
z
" clip-path="url(#p4c8eabb26d)" style="fill: none; stroke: #000000; stroke-width: 0.5; stroke-linejoin: miter"/>
   </g>
   <g id="patch_15">
    <path d="M 465.796942 453.584386 
L 464.67189 455.510724 
L 463.527632 457.425715 
L 462.364281 459.329169 
L 461.181955 461.220894 
L 459.98077 463.100701 
L 458.760848 464.968403 
L 457.52231 466.823812 
L 456.26528 468.666743 
L 454.989884 470.497012 
L 453.69625 472.314436 
L 452.384506 474.118833 
L 451.054784 475.910022 
L 449.707217 477.687825 
L 448.34194 479.452064 
L 446.959089 481.202562 
L 445.558802 482.939143 
L 444.14122 484.661636 
L 442.706484 486.369867 
L 441.254738 488.063665 
L 439.786126 489.742861 
L 438.300796 491.407288 
L 436.798897 493.056778 
L 435.280578 494.691167 
L 433.745992 496.310291 
L 432.195291 497.913989 
L 430.628631 499.5021 
L 429.046168 501.074465 
L 427.448061 502.630927 
L 425.83447 504.171331 
L 424.205556 505.695522 
L 422.561481 507.203347 
L 420.902411 508.694657 
L 419.228511 510.169302 
L 417.539948 511.627135 
L 415.836892 513.068009 
L 414.119512 514.491781 
L 412.38798 515.898308 
L 410.642471 517.28745 
L 408.883157 518.659067 
L 407.110215 520.013023 
L 405.323823 521.349183 
L 403.524158 522.667412 
L 401.711402 523.967578 
L 399.885734 525.249553 
L 398.047339 526.513207 
L 396.196399 527.758414 
L 394.333099 528.985049 
L 392.457627 530.192991 
L 390.570169 531.382118 
L 388.670915 532.552311 
L 386.760053 533.703454 
L 384.837776 534.83543 
L 382.904276 535.948128 
L 380.959745 537.041435 
L 379.004379 538.115243 
L 377.038373 539.169443 
L 375.061923 540.203931 
L 373.075227 541.218603 
L 371.078484 542.213358 
L 369.071894 543.188096 
L 367.055656 544.14272 
L 365.029974 545.077134 
L 362.995048 545.991245 
L 360.951084 546.884961 
L 358.898284 547.758193 
L 356.836856 548.610854 
L 354.767003 549.442858 
L 352.688934 550.254123 
L 350.602857 551.044566 
L 348.50898 551.81411 
L 346.407512 552.562676 
L 344.298663 553.290191 
L 342.182645 553.996582 
L 340.059669 554.681777 
L 337.929948 555.345709 
L 335.793693 555.98831 
L 333.65112 556.609518 
L 331.502441 557.209268 
L 329.347873 557.787503 
L 327.18763 558.344163 
L 325.021929 558.879193 
L 322.850986 559.39254 
L 320.675018 559.884152 
L 318.494242 560.35398 
L 316.308878 560.801978 
L 314.119143 561.228099 
L 311.925256 561.632303 
L 309.727437 562.014547 
L 307.525905 562.374795 
L 305.320881 562.71301 
L 303.112586 563.029158 
L 300.901239 563.323207 
L 298.687062 563.595129 
L 296.470277 563.844896 
L 294.251105 564.072483 
L 292.029768 564.277867 
L 289.806489 564.461028 
L 287.581489 564.621947 
L 285.354991 564.760609 
L 283.127218 564.876999 
L 280.898392 564.971105 
L 278.668737 565.04292 
L 276.438475 565.092434 
L 274.20783 565.119644 
L 271.977024 565.124546 
L 269.74628 565.107141 
L 267.515822 565.067429 
L 265.285873 565.005415 
L 263.056655 564.921105 
L 260.828392 564.814507 
L 258.601306 564.685633 
L 256.375621 564.534494 
L 254.151558 564.361106 
L 251.92934 564.165487 
L 249.709189 563.947656 
L 247.491327 563.707635 
L 245.275977 563.445447 
L 243.063359 563.161119 
L 240.853695 562.85468 
L 238.647206 562.52616 
L 236.444113 562.175592 
L 234.244635 561.80301 
L 232.048993 561.408453 
L 229.857406 560.99196 
L 227.670093 560.553571 
L 225.487274 560.093332 
L 223.309166 559.611289 
L 221.135988 559.107488 
L 218.967956 558.581982 
L 216.805287 558.034821 
L 214.648199 557.466062 
L 212.496905 556.875761 
L 210.351622 556.263976 
L 208.212564 555.63077 
L 206.079945 554.976205 
L 203.953978 554.300347 
L 201.834875 553.603263 
L 199.72285 552.885024 
L 197.618112 552.145701 
L 195.520873 551.385367 
L 193.431342 550.6041 
L 191.349727 549.801976 
L 189.276238 548.979077 
L 187.211082 548.135485 
L 185.154464 547.271284 
L 183.106592 546.38656 
L 181.067668 545.481401 
L 179.037898 544.555899 
L 177.017485 543.610146 
L 175.00663 542.644237 
L 173.005534 541.658268 
L 171.014398 540.652337 
L 169.03342 539.626545 
L 167.0628 538.580996 
L 165.102733 537.515793 
L 163.153416 536.431042 
L 161.215044 535.326853 
L 159.28781 534.203336 
L 157.371908 533.060603 
L 155.467529 531.898769 
L 153.574863 530.717949 
L 151.6941 529.518262 
L 149.825427 528.299827 
L 147.969032 527.062767 
L 146.125101 525.807206 
L 144.293816 524.533268 
L 142.475363 523.241081 
L 140.669922 521.930774 
L 138.877674 520.602479 
L 137.098799 519.256328 
L 135.333474 517.892456 
L 133.581876 516.511 
L 131.844179 515.112096 
L 130.120558 513.695886 
L 128.411186 512.262511 
L 126.716232 510.812114 
L 125.035867 509.34484 
L 123.370258 507.860836 
L 121.719572 506.360251 
L 120.083974 504.843234 
L 118.463629 503.309937 
L 116.858696 501.760514 
L 115.269339 500.195119 
L 113.695714 498.613909 
L 112.13798 497.017043 
L 110.596292 495.404678 
L 109.070804 493.776978 
L 107.56167 492.134105 
L 106.069039 490.476223 
L 104.593062 488.803497 
L 103.133885 487.116096 
L 101.691655 485.414188 
L 100.266516 483.697942 
L 98.85861 481.967531 
L 97.468079 480.223128 
L 96.095061 478.464907 
L 94.739693 476.693044 
L 93.402112 474.907717 
L 92.08245 473.109102 
L 90.78084 471.297382 
L 89.497413 469.472736 
L 88.232295 467.635347 
L 86.985614 465.785399 
L 85.757495 463.923077 
L 84.548061 462.048567 
L 83.357431 460.162057 
L 82.185726 458.263735 
L 81.033062 456.353791 
L 79.899555 454.432416 
L 78.785318 452.499803 
L 77.690463 450.556143 
L 76.615098 448.601633 
L 75.559333 446.636467 
L 74.523271 444.660841 
L 73.507017 442.674954 
L 72.510672 440.679004 
L 71.534337 438.67319 
L 70.578108 436.657714 
L 69.642081 434.632776 
L 68.72635 432.598579 
L 67.831007 430.555327 
L 66.95614 428.503223 
L 66.101838 426.442474 
L 65.268186 424.373285 
L 64.455267 422.295863 
L 63.663162 420.210416 
L 62.891951 418.117152 
L 62.141711 416.016281 
L 61.412517 413.908012 
L 60.704442 411.792557 
L 60.017556 409.670128 
L 59.351929 407.540935 
L 58.707627 405.405193 
L 58.084713 403.263115 
L 57.483252 401.114915 
L 56.903302 398.960808 
L 56.344921 396.801009 
L 55.808167 394.635735 
L 55.293091 392.465201 
L 54.799747 390.289625 
L 54.328182 388.109224 
L 53.878444 385.924217 
L 53.450579 383.734822 
L 53.044629 381.541258 
L 52.660634 379.343744 
L 52.298633 377.1425 
L 51.958663 374.937746 
L 51.640756 372.729703 
L 51.344946 370.518591 
L 51.071261 368.304631 
L 50.819729 366.088046 
L 50.590375 363.869056 
L 50.383222 361.647883 
L 50.198291 359.42475 
L 50.0356 357.199879 
L 49.895165 354.973493 
L 49.777001 352.745813 
L 49.68112 350.517063 
L 49.60753 348.287466 
L 49.556239 346.057244 
L 49.527253 343.826621 
L 49.520575 341.595819 
L 49.536204 339.365063 
L 49.574139 337.134574 
L 49.634378 334.904576 
L 49.716912 332.675292 
L 49.821736 330.446944 
L 49.948837 328.219757 
L 50.098203 325.993951 
L 50.269819 323.769751 
L 50.463669 321.547378 
L 50.679732 319.327054 
L 50.742193 318.724923 
L 48.501182 318.489383 
L 48.438091 319.097597 
L 48.219845 321.340348 
L 48.024038 323.585169 
L 47.850688 325.831836 
L 47.699813 328.080125 
L 47.571428 330.329809 
L 47.465546 332.580665 
L 47.382177 334.832467 
L 47.321331 337.08499 
L 47.283012 339.338009 
L 47.267225 341.591299 
L 47.273971 343.844634 
L 47.30325 346.097788 
L 47.355058 348.350538 
L 47.429392 350.602656 
L 47.526242 352.853919 
L 47.645599 355.1041 
L 47.787452 357.352976 
L 47.951787 359.60032 
L 48.138586 361.845909 
L 48.347831 364.089518 
L 48.579502 366.330922 
L 48.833575 368.569897 
L 49.110024 370.80622 
L 49.408823 373.039666 
L 49.72994 375.270013 
L 50.073345 377.497037 
L 50.439002 379.720516 
L 50.826876 381.940227 
L 51.236926 384.155948 
L 51.669113 386.367458 
L 52.123394 388.574536 
L 52.599722 390.776961 
L 53.09805 392.974512 
L 53.618328 395.166971 
L 54.160504 397.354117 
L 54.724525 399.535732 
L 55.310333 401.711598 
L 55.91787 403.881497 
L 56.547075 406.045212 
L 57.197886 408.202527 
L 57.870237 410.353226 
L 58.564061 412.497095 
L 59.279288 414.633918 
L 60.015848 416.763482 
L 60.773666 418.885574 
L 61.552667 420.999982 
L 62.352772 423.106494 
L 63.173903 425.2049 
L 64.015976 427.29499 
L 64.878907 429.376555 
L 65.762611 431.449387 
L 66.666998 433.513278 
L 67.591979 435.568022 
L 68.53746 437.613414 
L 69.503348 439.649249 
L 70.489546 441.675324 
L 71.495955 443.691435 
L 72.522474 445.697381 
L 73.569001 447.692963 
L 74.635431 449.677979 
L 75.721657 451.652232 
L 76.827572 453.615524 
L 77.953064 455.567659 
L 79.09802 457.508442 
L 80.262327 459.437678 
L 81.445868 461.355175 
L 82.648524 463.260741 
L 83.870175 465.154186 
L 85.110699 467.035319 
L 86.369973 468.903953 
L 87.647869 470.759901 
L 88.944261 472.602978 
L 90.259018 474.432999 
L 91.59201 476.249781 
L 92.943102 478.053142 
L 94.31216 479.842903 
L 95.699047 481.618884 
L 97.103625 483.380907 
L 98.525751 485.128797 
L 99.965286 486.862378 
L 101.422084 488.581477 
L 102.896 490.285923 
L 104.386886 491.975545 
L 105.894593 493.650173 
L 107.418972 495.309641 
L 108.959868 496.953783 
L 110.517129 498.582433 
L 112.090598 500.19543 
L 113.680118 501.792612 
L 115.28553 503.373819 
L 116.906673 504.938893 
L 118.543386 506.487677 
L 120.195505 508.020018 
L 121.862864 509.535761 
L 123.545297 511.034754 
L 125.242636 512.516849 
L 126.954711 513.981896 
L 128.68135 515.42975 
L 130.422381 516.860265 
L 132.17763 518.273299 
L 133.946921 519.66871 
L 135.730078 521.046358 
L 137.526922 522.406107 
L 139.337273 523.747819 
L 141.160951 525.071361 
L 142.997772 526.3766 
L 144.847554 527.663406 
L 146.710111 528.93165 
L 148.585258 530.181206 
L 150.472806 531.411948 
L 152.372567 532.623753 
L 154.28435 533.8165 
L 156.207966 534.990071 
L 158.143221 536.144346 
L 160.089921 537.279212 
L 162.047873 538.394554 
L 164.01688 539.490262 
L 165.996745 540.566225 
L 167.987271 541.622335 
L 169.988258 542.658488 
L 171.999507 543.67458 
L 174.020816 544.670509 
L 176.051983 545.646175 
L 178.092804 546.601481 
L 180.143077 547.536331 
L 182.202596 548.450632 
L 184.271154 549.344293 
L 186.348545 550.217224 
L 188.434562 551.069337 
L 190.528995 551.900548 
L 192.631636 552.710774 
L 194.742274 553.499933 
L 196.860697 554.267947 
L 198.986695 555.014738 
L 201.120054 555.740232 
L 203.260561 556.444357 
L 205.408003 557.127042 
L 207.562163 557.788218 
L 209.722828 558.427821 
L 211.889781 559.045785 
L 214.062805 559.642049 
L 216.241682 560.216553 
L 218.426196 560.76924 
L 220.616127 561.300055 
L 222.811257 561.808945 
L 225.011366 562.295858 
L 227.216234 562.760745 
L 229.42564 563.203562 
L 231.639364 563.624262 
L 233.857185 564.022805 
L 236.078879 564.39915 
L 238.304227 564.753259 
L 240.533003 565.085098 
L 242.764987 565.394632 
L 244.999955 565.681832 
L 247.237682 565.946668 
L 249.477946 566.189114 
L 251.720523 566.409145 
L 253.965187 566.60674 
L 256.211716 566.781879 
L 258.459883 566.934545 
L 260.709465 567.064721 
L 262.960236 567.172395 
L 265.211971 567.257557 
L 267.464445 567.320197 
L 269.717433 567.36031 
L 271.970709 567.377892 
L 274.224048 567.37294 
L 276.477226 567.345455 
L 278.730015 567.295441 
L 280.982192 567.222901 
L 283.233531 567.127844 
L 285.483807 567.010278 
L 287.732795 566.870216 
L 289.98027 566.707671 
L 292.226006 566.52266 
L 294.469781 566.315201 
L 296.711369 566.085316 
L 298.950546 565.833026 
L 301.187088 565.558358 
L 303.420771 565.261338 
L 305.651373 564.941996 
L 307.87867 564.600365 
L 310.102439 564.236479 
L 312.322458 563.850373 
L 314.538506 563.442087 
L 316.750359 563.011661 
L 318.957798 562.559138 
L 321.160602 562.084564 
L 323.358549 561.587986 
L 325.551421 561.069454 
L 327.738998 560.52902 
L 329.921062 559.966737 
L 332.097393 559.382661 
L 334.267776 558.776853 
L 336.431991 558.149371 
L 338.589824 557.500278 
L 340.741058 556.82964 
L 342.885478 556.137524 
L 345.02287 555.423998 
L 347.15302 554.689134 
L 349.275715 553.933006 
L 351.390743 553.155689 
L 353.497891 552.357262 
L 355.596951 551.537803 
L 357.687711 550.697394 
L 359.769962 549.836121 
L 361.843497 548.954068 
L 363.908108 548.051325 
L 365.963588 547.12798 
L 368.009732 546.184128 
L 370.046335 545.219861 
L 372.073194 544.235278 
L 374.090106 543.230475 
L 376.09687 542.205553 
L 378.093284 541.160616 
L 380.079149 540.095767 
L 382.054266 539.011113 
L 384.018438 537.906762 
L 385.971469 536.782825 
L 387.913163 535.639414 
L 389.843326 534.476644 
L 391.761765 533.294631 
L 393.668288 532.093493 
L 395.562704 530.873349 
L 397.444825 529.634323 
L 399.314461 528.376539 
L 401.171426 527.10012 
L 403.015535 525.805197 
L 404.846602 524.491897 
L 406.664445 523.160353 
L 408.468882 521.810697 
L 410.259732 520.443064 
L 412.036817 519.057592 
L 413.799958 517.654419 
L 415.54898 516.233684 
L 417.283707 514.795531 
L 419.003966 513.340102 
L 420.709585 511.867544 
L 422.400393 510.378004 
L 424.076222 508.87163 
L 425.736903 507.348574 
L 427.382271 505.808987 
L 429.012161 504.253024 
L 430.62641 502.68084 
L 432.224857 501.092592 
L 433.807342 499.48844 
L 435.373707 497.868543 
L 436.923794 496.233064 
L 438.45745 494.582166 
L 439.97452 492.916014 
L 441.474853 491.234776 
L 442.958298 489.538618 
L 444.424709 487.82771 
L 445.873937 486.102225 
L 447.305838 484.362333 
L 448.720269 482.60821 
L 450.117089 480.840031 
L 451.496157 479.057972 
L 452.857336 477.262211 
L 454.200489 475.452929 
L 455.525483 473.630306 
L 456.832184 471.794524 
L 458.120463 469.945768 
L 459.39019 468.084221 
L 460.641238 466.21007 
L 461.873483 464.323503 
L 463.086801 462.424707 
L 464.28107 460.513874 
L 465.456172 458.591194 
L 466.611988 456.656859 
L 467.748404 454.711063 
L 465.796942 453.584386 
z
" clip-path="url(#p4c8eabb26d)" style="fill: none; stroke: #000000; stroke-width: 0.5; stroke-linejoin: miter"/>
   </g>
   <g id="patch_16">
    <path d="M 50.742193 318.724923 
L 50.986466 316.507525 
L 51.252901 314.292682 
L 51.54147 312.080613 
L 51.852145 309.871541 
L 52.184895 307.665686 
L 52.539687 305.463268 
L 52.916485 303.264509 
L 53.315251 301.069627 
L 53.735946 298.878843 
L 54.178527 296.692375 
L 54.64295 294.510442 
L 55.129169 292.333263 
L 55.637135 290.161054 
L 56.166798 287.994034 
L 56.718103 285.832418 
L 57.290997 283.676424 
L 57.885422 281.526266 
L 58.501319 279.38216 
L 59.138625 277.24432 
L 59.797278 275.11296 
L 60.477211 272.988292 
L 61.178356 270.870531 
L 61.900643 268.759886 
L 62.644001 266.65657 
L 63.408354 264.560792 
L 64.193626 262.472763 
L 64.999739 260.39269 
L 65.826612 258.320783 
L 66.674163 256.257247 
L 67.542306 254.202291 
L 68.430954 252.156118 
L 69.34002 250.118934 
L 70.269412 248.090942 
L 71.219037 246.072345 
L 72.1888 244.063346 
L 73.178604 242.064144 
L 74.188351 240.07494 
L 75.217939 238.095933 
L 76.267265 236.127321 
L 77.336224 234.1693 
L 78.42471 232.222067 
L 79.532613 230.285815 
L 80.659823 228.360739 
L 81.806227 226.447032 
L 82.971711 224.544883 
L 84.156157 222.654485 
L 85.359448 220.776025 
L 86.581463 218.909692 
L 87.82208 217.055673 
L 89.081175 215.214152 
L 90.358622 213.385313 
L 91.654293 211.569341 
L 92.968059 209.766416 
L 94.299788 207.976718 
L 95.649347 206.200427 
L 97.016601 204.43772 
L 98.401413 202.688773 
L 99.803646 200.953762 
L 101.223158 199.23286 
L 102.659808 197.526239 
L 104.113452 195.834069 
L 105.583945 194.15652 
L 107.071139 192.493759 
L 108.574887 190.845954 
L 110.095037 189.213268 
L 111.631438 187.595865 
L 113.183935 185.993906 
L 114.752374 184.407553 
L 116.336599 182.836962 
L 117.936449 181.282293 
L 119.551766 179.743699 
L 121.182388 178.221335 
L 122.828152 176.715353 
L 124.488893 175.225904 
L 126.164445 173.753136 
L 127.854641 172.297198 
L 129.559311 170.858233 
L 131.278286 169.436388 
L 133.011393 168.031802 
L 134.758459 166.644618 
L 136.519309 165.274973 
L 138.293768 163.923006 
L 140.081657 162.58885 
L 141.882798 161.272639 
L 143.697011 159.974505 
L 145.524114 158.694578 
L 147.363925 157.432986 
L 149.21626 156.189854 
L 151.080933 154.965308 
L 152.957758 153.75947 
L 154.846548 152.572459 
L 156.747113 151.404396 
L 158.659263 150.255396 
L 160.582808 149.125575 
L 162.517555 148.015046 
L 164.463309 146.923919 
L 166.419878 145.852304 
L 168.387065 144.800308 
L 170.364673 143.768036 
L 172.352505 142.755591 
L 174.350362 141.763075 
L 176.358044 140.790587 
L 178.37535 139.838224 
L 180.402079 138.906082 
L 182.438028 137.994253 
L 184.482993 137.102828 
L 186.53677 136.231898 
L 188.599153 135.381549 
L 190.669937 134.551865 
L 192.748914 133.742931 
L 194.835876 132.954826 
L 196.930614 132.18763 
L 199.03292 131.44142 
L 201.142583 130.716269 
L 203.259391 130.012251 
L 205.383134 129.329436 
L 207.513599 128.667892 
L 209.650572 128.027686 
L 211.793841 127.408881 
L 213.94319 126.811539 
L 216.098405 126.23572 
L 218.259271 125.681482 
L 220.42557 125.14888 
L 222.597088 124.637967 
L 224.773606 124.148794 
L 226.220828 123.836154 
L 225.752329 121.632041 
L 224.290488 121.947839 
L 222.091986 122.441953 
L 219.898534 122.958026 
L 217.710352 123.496008 
L 215.52766 124.055845 
L 213.350675 124.63748 
L 211.179615 125.240856 
L 209.014697 125.865911 
L 206.856138 126.512585 
L 204.704154 127.180811 
L 202.558959 127.870523 
L 200.420769 128.581652 
L 198.289796 129.314127 
L 196.166255 130.067875 
L 194.050357 130.842821 
L 191.942315 131.638886 
L 189.842338 132.455992 
L 187.750638 133.294056 
L 185.667422 134.152994 
L 183.5929 135.032722 
L 181.527278 135.933151 
L 179.470765 136.85419 
L 177.423564 137.795748 
L 175.385881 138.757731 
L 173.357919 139.740042 
L 171.339882 140.742584 
L 169.331971 141.765255 
L 167.334387 142.807954 
L 165.347329 143.870576 
L 163.370997 144.953016 
L 161.405588 146.055164 
L 159.451299 147.176911 
L 157.508325 148.318144 
L 155.57686 149.47875 
L 153.657097 150.658612 
L 151.749229 151.857612 
L 149.853445 153.075631 
L 147.969937 154.312546 
L 146.098892 155.568235 
L 144.240497 156.84257 
L 142.394938 158.135426 
L 140.5624 159.446672 
L 138.743066 160.776178 
L 136.937117 162.12381 
L 135.144735 163.489434 
L 133.366098 164.872914 
L 131.601385 166.27411 
L 129.850772 167.692883 
L 128.114434 169.129091 
L 126.392544 170.58259 
L 124.685276 172.053235 
L 122.992799 173.540879 
L 121.315283 175.045373 
L 119.652895 176.566567 
L 118.005802 178.104308 
L 116.374169 179.658444 
L 114.758158 181.228817 
L 113.157932 182.815272 
L 111.57365 184.417649 
L 110.00547 186.035789 
L 108.45355 187.66953 
L 106.918045 189.318707 
L 105.399109 190.983157 
L 103.896892 192.662713 
L 102.411546 194.357207 
L 100.943218 196.06647 
L 99.492057 197.79033 
L 98.058206 199.528615 
L 96.64181 201.281151 
L 95.243009 203.047764 
L 93.861944 204.828276 
L 92.498753 206.62251 
L 91.153573 208.430285 
L 89.826536 210.251422 
L 88.517778 212.085737 
L 87.227428 213.933049 
L 85.955615 215.793171 
L 84.702466 217.665918 
L 83.468107 219.551103 
L 82.252662 221.448537 
L 81.056251 223.35803 
L 79.878995 225.279392 
L 78.721011 227.21243 
L 77.582415 229.156951 
L 76.463321 231.112761 
L 75.36384 233.079663 
L 74.284083 235.057462 
L 73.224158 237.045959 
L 72.184171 239.044956 
L 71.164225 241.054253 
L 70.164422 243.073649 
L 69.184864 245.102941 
L 68.225647 247.141928 
L 67.286867 249.190404 
L 66.368619 251.248166 
L 65.470994 253.315007 
L 64.594081 255.390721 
L 63.73797 257.4751 
L 62.902745 259.567936 
L 62.088489 261.669019 
L 61.295285 263.77814 
L 60.523211 265.895087 
L 59.772345 268.019649 
L 59.042762 270.151613 
L 58.334534 272.290767 
L 57.647733 274.436895 
L 56.982428 276.589784 
L 56.338684 278.749219 
L 55.716566 280.914983 
L 55.116137 283.086859 
L 54.537456 285.264631 
L 53.980581 287.448081 
L 53.445569 289.636991 
L 52.932472 291.831141 
L 52.441341 294.030312 
L 51.972227 296.234285 
L 51.525175 298.442838 
L 51.100231 300.655751 
L 50.697437 302.872803 
L 50.316833 305.093773 
L 49.958458 307.318437 
L 49.622347 309.546573 
L 49.308533 311.777959 
L 49.017049 314.012372 
L 48.747923 316.249588 
L 48.501182 318.489383 
L 50.742193 318.724923 
z
" clip-path="url(#p4c8eabb26d)" style="fill: none; stroke: #000000; stroke-width: 0.5; stroke-linejoin: miter"/>
   </g>
   <g id="patch_17">
    <path d="M 226.220828 123.836154 
L 228.405183 123.383258 
L 230.593957 122.952229 
L 232.786932 122.543108 
L 234.983889 122.155937 
L 237.184607 121.790754 
L 239.388867 121.447596 
L 241.596448 121.126498 
L 243.80713 120.827492 
L 246.020692 120.550607 
L 248.236911 120.295871 
L 250.455567 120.063309 
L 252.676438 119.852945 
L 254.899301 119.6648 
L 257.123935 119.498893 
L 259.350116 119.35524 
L 261.577623 119.233856 
L 263.806232 119.134752 
L 266.035721 119.05794 
L 268.265866 119.003425 
L 270.496445 118.971214 
L 272.602199 118.961276 
L 272.602199 116.707921 
L 270.475174 116.71796 
L 268.222065 116.750497 
L 265.969393 116.805562 
L 263.717384 116.88315 
L 261.466264 116.983255 
L 259.216257 117.105865 
L 256.967589 117.250969 
L 254.720484 117.418552 
L 252.475168 117.608598 
L 250.231864 117.821086 
L 247.990797 118.055997 
L 245.752192 118.313306 
L 243.516271 118.592988 
L 241.283259 118.895015 
L 239.053379 119.219357 
L 236.826853 119.56598 
L 234.603906 119.934852 
L 232.384758 120.325933 
L 230.169631 120.739187 
L 227.958748 121.174571 
L 225.752329 121.632041 
L 226.220828 123.836154 
z
" clip-path="url(#p4c8eabb26d)" style="fill: none; stroke: #000000; stroke-width: 0.5; stroke-linejoin: miter"/>
   </g>
   <g id="text_1">
    <text style="font: 3px 'DejaVu Sans', 'Bitstream Vera Sans', 'Computer Modern Sans Serif', 'Lucida Grande', 'Verdana', 'Geneva', 'Lucid', 'Arial', 'Helvetica', 'Avant Garde', sans-serif; text-anchor: start" x="297.525226" y="115.82046" transform="rotate(-84 297.525226 115.82046)">Malawi University of Science and Technology</text>
   </g>
   <g id="text_2">
    <text style="font: 3px 'DejaVu Sans', 'Bitstream Vera Sans', 'Computer Modern Sans Serif', 'Lucida Grande', 'Verdana', 'Geneva', 'Lucid', 'Arial', 'Helvetica', 'Avant Garde', sans-serif; text-anchor: start" x="344.014982" y="125.945762" transform="rotate(-72 344.014982 125.945762)">Malawi-Liverpool-Wellcome Trust Clinical Research Programme</text>
   </g>
   <g id="text_3">
    <text style="font: 3px 'DejaVu Sans', 'Bitstream Vera Sans', 'Computer Modern Sans Serif', 'Lucida Grande', 'Verdana', 'Geneva', 'Lucid', 'Arial', 'Helvetica', 'Avant Garde', sans-serif; text-anchor: start" x="457.395329" y="209.192109" transform="rotate(-36 457.395329 209.192109)">Lilongwe University of Agriculture and Natural Resources</text>
   </g>
   <g id="text_4">
    <text style="font: 3px 'DejaVu Sans', 'Bitstream Vera Sans', 'Computer Modern Sans Serif', 'Lucida Grande', 'Verdana', 'Geneva', 'Lucid', 'Arial', 'Helvetica', 'Avant Garde', sans-serif; text-anchor: start" x="500.190981" y="343.183115" transform="rotate(-0 500.190981 343.183115)">Malawi Government</text>
   </g>
   <g id="text_5">
    <text style="font: 3px 'DejaVu Sans', 'Bitstream Vera Sans', 'Computer Modern Sans Serif', 'Lucida Grande', 'Verdana', 'Geneva', 'Lucid', 'Arial', 'Helvetica', 'Avant Garde', sans-serif; text-anchor: start" x="488.699786" y="413.456132" transform="rotate(-342 488.699786 413.456132)">Malawi University of Business and Applied Sciences</text>
   </g>
   <g id="text_6">
    <text style="font: 3px 'DejaVu Sans', 'Bitstream Vera Sans', 'Computer Modern Sans Serif', 'Lucida Grande', 'Verdana', 'Geneva', 'Lucid', 'Arial', 'Helvetica', 'Avant Garde', sans-serif; text-anchor: end" x="203.357379" y="558.84535" transform="rotate(-72 203.357379 558.84535)">University of Malawi</text>
   </g>
   <g id="text_7">
    <text style="font: 3px 'DejaVu Sans', 'Bitstream Vera Sans', 'Computer Modern Sans Serif', 'Lucida Grande', 'Verdana', 'Geneva', 'Lucid', 'Arial', 'Helvetica', 'Avant Garde', sans-serif; text-anchor: end" x="102.708121" y="190.60374" transform="rotate(-318 102.708121 190.60374)">Mzuzu University</text>
   </g>
   <g id="text_8">
    <text style="font: 3px 'DejaVu Sans', 'Bitstream Vera Sans', 'Computer Modern Sans Serif', 'Lucida Grande', 'Verdana', 'Geneva', 'Lucid', 'Arial', 'Helvetica', 'Avant Garde', sans-serif; text-anchor: end" x="247.679171" y="115.82046" transform="rotate(-276 247.679171 115.82046)">University of Livingstonia</text>
   </g>
  </g>
 </g>
 <defs>
  <clipPath id="p4c8eabb26d">
   <path d="M 509.204398 342.043349 
C 509.204398 310.973033 503.084223 280.204836 491.194128 251.499607 
C 479.304033 222.794378 461.87525 196.710361 439.905218 174.74033 
C 417.935187 152.770298 391.85117 135.341515 363.145941 123.45142 
C 334.440711 111.561325 303.672515 105.44115 272.602199 105.44115 
C 241.531883 105.44115 210.763686 111.561325 182.058457 123.45142 
C 153.353228 135.341515 127.269211 152.770298 105.29918 174.74033 
C 83.329148 196.710361 65.900365 222.794378 54.01027 251.499607 
C 42.120175 280.204836 36 310.973033 36 342.043349 
C 36 373.113665 42.120175 403.881861 54.01027 432.587091 
C 65.900365 461.29232 83.329148 487.376337 105.29918 509.346368 
C 127.269211 531.3164 153.353228 548.745183 182.058457 560.635278 
C 210.763686 572.525373 241.531883 578.645548 272.602199 578.645548 
C 303.672515 578.645548 334.440711 572.525373 363.145941 560.635278 
C 391.85117 548.745183 417.935187 531.3164 439.905218 509.346368 
C 461.87525 487.376337 479.304033 461.29232 491.194128 432.587091 
C 503.084223 403.881861 509.204398 373.113665 509.204398 342.043349 
M 272.602199 342.043349 
C 272.602199 342.043349 272.602199 342.043349 272.602199 342.043349 
C 272.602199 342.043349 272.602199 342.043349 272.602199 342.043349 
C 272.602199 342.043349 272.602199 342.043349 272.602199 342.043349 
C 272.602199 342.043349 272.602199 342.043349 272.602199 342.043349 
C 272.602199 342.043349 272.602199 342.043349 272.602199 342.043349 
C 272.602199 342.043349 272.602199 342.043349 272.602199 342.043349 
C 272.602199 342.043349 272.602199 342.043349 272.602199 342.043349 
C 272.602199 342.043349 272.602199 342.043349 272.602199 342.043349 
C 272.602199 342.043349 272.602199 342.043349 272.602199 342.043349 
C 272.602199 342.043349 272.602199 342.043349 272.602199 342.043349 
C 272.602199 342.043349 272.602199 342.043349 272.602199 342.043349 
C 272.602199 342.043349 272.602199 342.043349 272.602199 342.043349 
C 272.602199 342.043349 272.602199 342.043349 272.602199 342.043349 
C 272.602199 342.043349 272.602199 342.043349 272.602199 342.043349 
C 272.602199 342.043349 272.602199 342.043349 272.602199 342.043349 
C 272.602199 342.043349 272.602199 342.043349 272.602199 342.043349 
z
"/>
  </clipPath>
 </defs>
</svg>
