<?xml version="1.0" encoding="utf-8" standalone="no"?>
<!DOCTYPE svg PUBLIC "-//W3C//DTD SVG 1.1//EN"
  "http://www.w3.org/Graphics/SVG/1.1/DTD/svg11.dtd">
<svg xmlns:xlink="http://www.w3.org/1999/xlink" width="629.795807pt" height="501.980062pt" viewBox="0 0 629.795807 501.980062" xmlns="http://www.w3.org/2000/svg" version="1.1">
 <metadata>
  <rdf:RDF xmlns:dc="http://purl.org/dc/elements/1.1/" xmlns:cc="http://creativecommons.org/ns#" xmlns:rdf="http://www.w3.org/1999/02/22-rdf-syntax-ns#">
   <cc:Work>
    <dc:type rdf:resource="http://purl.org/dc/dcmitype/StillImage"/>
    <dc:date>2024-11-16T03:34:05.642729</dc:date>
    <dc:format>image/svg+xml</dc:format>
    <dc:creator>
     <cc:Agent>
      <dc:title>Matplotlib v3.8.4, https://matplotlib.org/</dc:title>
     </cc:Agent>
    </dc:creator>
   </cc:Work>
  </rdf:RDF>
 </metadata>
 <defs>
  <style type="text/css">*{stroke-linejoin: round; stroke-linecap: butt}</style>
 </defs>
 <g id="figure_1">
  <g id="patch_1">
   <path d="M 0 501.980062 
L 629.795807 501.980062 
L 629.795807 0 
L 0 0 
z
" style="fill: #ffffff"/>
  </g>
  <g id="axes_1">
   <g id="patch_2">
    <path d="M 312.689154 48.285145 
L 314.716169 48.29528 
L 316.742981 48.325684 
L 318.769388 48.376355 
L 320.795187 48.447287 
L 322.820175 48.538473 
L 324.844151 48.649904 
L 326.866911 48.781569 
L 328.888253 48.933454 
L 330.907975 49.105545 
L 332.925875 49.297825 
L 334.941752 49.510273 
L 336.955403 49.742869 
L 338.966628 49.99559 
L 340.975225 50.26841 
L 342.980993 50.561302 
L 344.983733 50.874237 
L 346.983242 51.207183 
L 348.979323 51.560107 
L 350.971774 51.932974 
L 352.960398 52.325747 
L 354.944994 52.738386 
L 356.925365 53.170849 
L 358.901312 53.623095 
L 360.872638 54.095077 
L 362.839145 54.586749 
L 364.800638 55.09806 
L 366.756919 55.628961 
L 368.707794 56.179398 
L 370.653067 56.749315 
L 372.592544 57.338657 
L 374.52603 57.947363 
L 376.453333 58.575373 
L 378.374259 59.222625 
L 380.288617 59.889054 
L 382.196215 60.574592 
L 384.096862 61.279172 
L 385.990369 62.002722 
L 387.876545 62.745172 
L 389.755203 63.506445 
L 391.626154 64.286467 
L 393.489212 65.085159 
L 395.34419 65.902441 
L 397.190902 66.738232 
L 399.029165 67.592448 
L 400.858793 68.465003 
L 402.679604 69.355811 
L 404.491417 70.264782 
L 406.294049 71.191826 
L 408.087321 72.136849 
L 409.871053 73.099758 
L 411.645067 74.080455 
L 413.409186 75.078843 
L 415.163232 76.094822 
L 416.907031 77.12829 
L 418.640409 78.179145 
L 420.363192 79.24728 
L 422.075207 80.33259 
L 423.776284 81.434965 
L 425.466252 82.554295 
L 427.144942 83.690469 
L 428.812187 84.843373 
L 430.46782 86.012891 
L 432.111675 87.198907 
L 433.743588 88.401302 
L 435.363395 89.619955 
L 436.970936 90.854746 
L 438.566048 92.105549 
L 440.148572 93.372241 
L 441.718351 94.654695 
L 443.275227 95.952782 
L 444.819044 97.266373 
L 446.349649 98.595336 
L 447.866887 99.939539 
L 449.370608 101.298846 
L 450.860661 102.673122 
L 452.336897 104.06223 
L 453.799168 105.46603 
L 455.247328 106.884383 
L 456.681233 108.317146 
L 458.100739 109.764177 
L 459.505703 111.22533 
L 460.895986 112.700459 
L 462.271448 114.189417 
L 463.631953 115.692055 
L 464.977363 117.208223 
L 466.307544 118.737768 
L 467.622364 120.280539 
L 468.921691 121.836381 
L 470.205394 123.405138 
L 471.473346 124.986653 
L 472.72542 126.580769 
L 473.96149 128.187325 
L 475.181433 129.806162 
L 476.385127 131.437117 
L 477.572451 133.080027 
L 478.743288 134.734728 
L 479.897519 136.401054 
L 481.035029 138.078839 
L 482.155705 139.767915 
L 483.259434 141.468114 
L 484.346107 143.179264 
L 485.415614 144.901195 
L 486.467848 146.633736 
L 487.502705 148.376711 
L 488.52008 150.129948 
L 489.519873 151.893271 
L 490.501982 153.666504 
L 491.466311 155.449469 
L 492.412762 157.241987 
L 493.34124 159.043881 
L 494.251654 160.854969 
L 495.143912 162.67507 
L 496.017924 164.504003 
L 496.873603 166.341585 
L 497.710865 168.187631 
L 498.529624 170.041957 
L 499.329799 171.904378 
L 500.11131 173.774708 
L 500.87408 175.652759 
L 501.618031 177.538344 
L 502.343089 179.431274 
L 503.049182 181.331359 
L 503.736239 183.238411 
L 504.404192 185.152237 
L 505.052973 187.072648 
L 505.682518 188.99945 
L 506.292764 190.93245 
L 506.88365 192.871457 
L 507.455116 194.816276 
L 508.007106 196.766712 
L 508.539565 198.72257 
L 509.052438 200.683654 
L 509.545675 202.64977 
L 510.019227 204.620719 
L 510.473046 206.596306 
L 510.907087 208.576331 
L 511.321306 210.560598 
L 511.715662 212.548908 
L 512.090116 214.541062 
L 512.444629 216.536861 
L 512.779168 218.536105 
L 513.093697 220.538594 
L 513.388186 222.544129 
L 513.662606 224.552508 
L 513.916928 226.563531 
L 514.151127 228.576997 
L 514.365181 230.592703 
L 514.559067 232.61045 
L 514.732767 234.630034 
L 514.886262 236.651255 
L 515.019537 238.673909 
L 515.13258 240.697795 
L 515.225379 242.72271 
L 515.297924 244.748452 
L 515.350208 246.774818 
L 515.382227 248.801606 
L 515.393976 250.828612 
L 515.385455 252.855634 
L 515.356664 254.88247 
L 515.307607 256.908917 
L 515.238289 258.934772 
L 515.148715 260.959832 
L 515.038896 262.983896 
L 514.908842 265.00676 
L 514.758566 267.028222 
L 514.588084 269.048081 
L 514.397411 271.066133 
L 514.186568 273.082179 
L 513.955576 275.096014 
L 513.704457 277.10744 
L 513.433236 279.116254 
L 513.141941 281.122255 
L 512.830602 283.125242 
L 512.499248 285.125017 
L 512.147913 287.121378 
L 511.776633 289.114126 
L 511.385444 291.103061 
L 510.974386 293.087985 
L 510.543499 295.0687 
L 510.092827 297.045006 
L 509.622415 299.016707 
L 509.13231 300.983606 
L 508.62256 302.945505 
L 508.093217 304.902208 
L 507.544335 306.853521 
L 506.975966 308.799247 
L 506.38817 310.739192 
L 505.781003 312.673163 
L 505.154527 314.600965 
L 504.508806 316.522406 
L 503.843902 318.437294 
L 503.159883 320.345437 
L 502.456817 322.246645 
L 501.734774 324.140727 
L 500.993827 326.027495 
L 500.23405 327.906758 
L 499.455518 329.77833 
L 498.65831 331.642023 
L 497.842505 333.497651 
L 497.008185 335.345029 
L 496.155434 337.18397 
L 495.284335 339.014293 
L 494.394978 340.835813 
L 493.48745 342.648349 
L 492.561842 344.451719 
L 491.618247 346.245743 
L 490.656759 348.030241 
L 489.677475 349.805036 
L 488.680492 351.569949 
L 487.66591 353.324804 
L 486.633831 355.069425 
L 485.584357 356.803639 
L 484.517594 358.527272 
L 483.433648 360.240151 
L 482.332628 361.942105 
L 481.214644 363.632964 
L 480.079807 365.312558 
L 478.928231 366.980721 
L 477.760032 368.637285 
L 476.575325 370.282083 
L 475.374231 371.914953 
L 474.156867 373.535731 
L 472.923357 375.144254 
L 471.673824 376.740361 
L 470.408393 378.323894 
L 469.127189 379.894694 
L 467.830342 381.452603 
L 466.517981 382.997466 
L 465.190238 384.529128 
L 463.847244 386.047437 
L 462.489135 387.552239 
L 461.116045 389.043386 
L 459.728114 390.520728 
L 458.325478 391.984116 
L 456.908279 393.433406 
L 455.476658 394.868451 
L 454.030758 396.289108 
L 452.570725 397.695236 
L 451.096703 399.086693 
L 449.608841 400.463341 
L 448.107287 401.825041 
L 446.592191 403.171658 
L 445.063705 404.503057 
L 443.521982 405.819105 
L 441.967175 407.11967 
L 440.399441 408.404623 
L 438.818936 409.673833 
L 437.225818 410.927176 
L 435.620246 412.164525 
L 434.002382 413.385757 
L 432.372386 414.590749 
L 430.730422 415.779382 
L 429.076654 416.951535 
L 427.411247 418.107093 
L 425.734368 419.245939 
L 424.046185 420.36796 
L 422.346866 421.473042 
L 420.636582 422.561077 
L 418.915502 423.631955 
L 417.183801 424.685569 
L 415.44165 425.721813 
L 413.689223 426.740585 
L 411.926697 427.741781 
L 410.154247 428.725302 
L 408.372051 429.69105 
L 406.580286 430.638928 
L 404.779133 431.568842 
L 402.96877 432.480697 
L 401.14938 433.374404 
L 399.321144 434.249872 
L 397.484244 435.107015 
L 395.638865 435.945746 
L 393.785192 436.765981 
L 391.923408 437.56764 
L 390.053702 438.35064 
L 388.176259 439.114905 
L 386.291267 439.860357 
L 384.398915 440.586922 
L 382.499392 441.294528 
L 380.592889 441.983104 
L 378.679595 442.65258 
L 376.759701 443.302891 
L 374.833401 443.93397 
L 372.900887 444.545755 
L 370.962351 445.138185 
L 369.017989 445.7112 
L 367.067993 446.264743 
L 365.11256 446.798758 
L 363.151884 447.313193 
L 361.186162 447.807996 
L 359.21559 448.283117 
L 357.240366 448.738509 
L 355.260686 449.174127 
L 353.27675 449.589926 
L 351.288755 449.985865 
L 349.2969 450.361905 
L 347.301384 450.718008 
L 345.302407 451.054138 
L 343.300168 451.370262 
L 341.294869 451.666348 
L 339.286709 451.942367 
L 337.275889 452.19829 
L 335.262611 452.434093 
L 333.247075 452.649752 
L 331.229484 452.845245 
L 329.210038 453.020552 
L 327.18894 453.175657 
L 325.166393 453.310543 
L 323.142598 453.425198 
L 321.117757 453.519609 
L 319.092074 453.593767 
L 317.06575 453.647665 
L 315.038988 453.681297 
L 313.011992 453.694661 
L 312.689154 453.694918 
L 312.689154 455.742442 
L 313.015253 455.742182 
L 315.062724 455.728684 
L 317.109958 455.694712 
L 319.15675 455.640269 
L 321.202894 455.565362 
L 323.248188 455.469997 
L 325.292426 455.354185 
L 327.335403 455.217936 
L 329.376916 455.061265 
L 331.41676 454.884186 
L 333.454731 454.686719 
L 335.490625 454.468882 
L 337.52424 454.230697 
L 339.555371 453.972188 
L 341.583815 453.693382 
L 343.60937 453.394305 
L 345.631833 453.074987 
L 347.651002 452.735462 
L 349.666675 452.375762 
L 351.67865 451.995924 
L 353.686726 451.595985 
L 355.690702 451.175986 
L 357.690378 450.735969 
L 359.685554 450.275977 
L 361.67603 449.796056 
L 363.661608 449.296255 
L 365.642089 448.776624 
L 367.617274 448.237214 
L 369.586967 447.67808 
L 371.55097 447.099277 
L 373.509086 446.500863 
L 375.461121 445.882899 
L 377.406879 445.245445 
L 379.346165 444.588566 
L 381.278785 443.912327 
L 383.204546 443.216796 
L 385.123256 442.502043 
L 387.034723 441.768138 
L 388.938755 441.015156 
L 390.835162 440.243172 
L 392.723754 439.452262 
L 394.604344 438.642506 
L 396.476741 437.813985 
L 398.34076 436.966782 
L 400.196214 436.100982 
L 402.042918 435.21667 
L 403.880686 434.313936 
L 405.709335 433.39287 
L 407.528682 432.453564 
L 409.338545 431.496111 
L 411.138743 430.520608 
L 412.929097 429.527152 
L 414.709426 428.515843 
L 416.479554 427.486781 
L 418.239302 426.440069 
L 419.988496 425.375813 
L 421.72696 424.294118 
L 423.45452 423.195093 
L 425.171004 422.078848 
L 426.876239 420.945494 
L 428.570056 419.795144 
L 430.252285 418.627914 
L 431.922758 417.443921 
L 433.581307 416.243282 
L 435.227768 415.026118 
L 436.861974 413.79255 
L 438.483764 412.542703 
L 440.092974 411.2767 
L 441.689444 409.994669 
L 443.273014 408.696737 
L 444.843525 407.383035 
L 446.400822 406.053694 
L 447.944747 404.708846 
L 449.475147 403.348627 
L 450.991868 401.973172 
L 452.494759 400.582619 
L 453.98367 399.177107 
L 455.458451 397.756776 
L 456.918956 396.321768 
L 458.365038 394.872228 
L 459.796552 393.408299 
L 461.213356 391.930129 
L 462.615307 390.437865 
L 464.002266 388.931656 
L 465.374093 387.411653 
L 466.730653 385.878008 
L 468.071808 384.330874 
L 469.397425 382.770407 
L 470.707372 381.196761 
L 472.001516 379.610095 
L 473.27973 378.010567 
L 474.541885 376.398337 
L 475.787854 374.773566 
L 477.017514 373.136417 
L 478.230741 371.487054 
L 479.427414 369.825641 
L 480.607414 368.152344 
L 481.770622 366.467331 
L 482.916921 364.770771 
L 484.046199 363.062833 
L 485.15834 361.343687 
L 486.253235 359.613507 
L 487.330773 357.872464 
L 488.390848 356.120732 
L 489.433352 354.358488 
L 490.458183 352.585907 
L 491.465236 350.803167 
L 492.454412 349.010445 
L 493.425612 347.207922 
L 494.378738 345.395776 
L 495.313695 343.574191 
L 496.23039 341.743346 
L 497.128731 339.903427 
L 498.008628 338.054616 
L 498.869994 336.197099 
L 499.712741 334.331062 
L 500.536787 332.45669 
L 501.342047 330.574172 
L 502.128443 328.683695 
L 502.895895 326.785449 
L 503.644326 324.879623 
L 504.373662 322.966409 
L 505.08383 321.045997 
L 505.774758 319.11858 
L 506.446378 317.184349 
L 507.098622 315.2435 
L 507.731426 313.296225 
L 508.344725 311.342719 
L 508.938459 309.383179 
L 509.512569 307.417799 
L 510.066996 305.446776 
L 510.601685 303.470308 
L 511.116584 301.488591 
L 511.61164 299.501825 
L 512.086804 297.510208 
L 512.542028 295.513939 
L 512.977267 293.513217 
L 513.392477 291.508243 
L 513.787618 289.499217 
L 514.162648 287.486341 
L 514.517532 285.469815 
L 514.852232 283.449841 
L 515.166717 281.42662 
L 515.460954 279.400357 
L 515.734914 277.371252 
L 515.98857 275.339509 
L 516.221896 273.305332 
L 516.434868 271.268922 
L 516.627467 269.230485 
L 516.799671 267.190224 
L 516.951465 265.148343 
L 517.082833 263.105046 
L 517.193761 261.060537 
L 517.28424 259.015022 
L 517.354258 256.968704 
L 517.403811 254.921788 
L 517.432892 252.874479 
L 517.441499 250.826981 
L 517.429631 248.7795 
L 517.397289 246.73224 
L 517.344477 244.685406 
L 517.271199 242.639202 
L 517.177463 240.593833 
L 517.063279 238.549504 
L 516.928657 236.506419 
L 516.773611 234.464782 
L 516.598157 232.424798 
L 516.402313 230.38667 
L 516.186097 228.350602 
L 515.949532 226.316799 
L 515.69264 224.285462 
L 515.415449 222.256797 
L 515.117985 220.231004 
L 514.800279 218.208287 
L 514.462361 216.188849 
L 514.104267 214.172891 
L 513.726031 212.160614 
L 513.327691 210.15222 
L 512.909288 208.14791 
L 512.470863 206.147884 
L 512.01246 204.152342 
L 511.534125 202.161484 
L 511.035906 200.175509 
L 510.517852 198.194615 
L 509.980015 196.219001 
L 509.422449 194.248864 
L 508.84521 192.284401 
L 508.248356 190.325808 
L 507.631946 188.373282 
L 506.996042 186.427017 
L 506.340707 184.487209 
L 505.666008 182.554051 
L 504.972011 180.627736 
L 504.258785 178.708458 
L 503.526403 176.796407 
L 502.774938 174.891776 
L 502.004464 172.994755 
L 501.215058 171.105533 
L 500.4068 169.2243 
L 499.579771 167.351243 
L 498.734052 165.48655 
L 497.86973 163.630407 
L 496.986889 161.783 
L 496.085619 159.944514 
L 495.166009 158.115132 
L 494.228152 156.295037 
L 493.272141 154.484412 
L 492.298072 152.683438 
L 491.306042 150.892294 
L 490.29615 149.11116 
L 489.268498 147.340213 
L 488.223188 145.579632 
L 487.160325 143.829591 
L 486.080015 142.090266 
L 484.982366 140.361832 
L 483.867488 138.64446 
L 482.735492 136.938322 
L 481.586492 135.243589 
L 480.420602 133.560432 
L 479.237939 131.889016 
L 478.038621 130.229511 
L 476.822769 128.582082 
L 475.590503 126.946894 
L 474.341948 125.324109 
L 473.077227 123.713892 
L 471.796467 122.116401 
L 470.499797 120.531798 
L 469.187346 118.960241 
L 467.859245 117.401887 
L 466.515628 115.856891 
L 465.156628 114.325409 
L 463.782381 112.807592 
L 462.393025 111.303594 
L 460.988699 109.813565 
L 459.569543 108.337653 
L 458.135699 106.876006 
L 456.68731 105.428771 
L 455.224522 103.996091 
L 453.74748 102.578111 
L 452.256333 101.174971 
L 450.751229 99.786814 
L 449.232319 98.413776 
L 447.699755 97.055996 
L 446.15369 95.713609 
L 444.594278 94.38675 
L 443.021676 93.07555 
L 441.436041 91.780143 
L 439.837531 90.500656 
L 438.226307 89.237217 
L 436.602529 87.989954 
L 434.96636 86.758991 
L 433.317963 85.544451 
L 431.657503 84.346455 
L 429.985147 83.165124 
L 428.301061 82.000574 
L 426.605414 80.852924 
L 424.898376 79.722287 
L 423.180116 78.608777 
L 421.450808 77.512505 
L 419.710624 76.43358 
L 417.959737 75.372111 
L 416.198324 74.328204 
L 414.42656 73.301962 
L 412.644622 72.293489 
L 410.852688 71.302886 
L 409.050939 70.330251 
L 407.239553 69.375683 
L 405.418712 68.439275 
L 403.588599 67.521122 
L 401.749395 66.621316 
L 399.901286 65.739947 
L 398.044455 64.877103 
L 396.179089 64.03287 
L 394.305374 63.207332 
L 392.423498 62.400572 
L 390.533648 61.612672 
L 388.636014 60.843708 
L 386.730785 60.09376 
L 384.818152 59.3629 
L 382.898306 58.651204 
L 380.97144 57.958741 
L 379.037745 57.285581 
L 377.097415 56.631791 
L 375.150645 55.997437 
L 373.197628 55.382582 
L 371.238561 54.787288 
L 369.273639 54.211613 
L 367.303058 53.655617 
L 365.327016 53.119354 
L 363.345711 52.602877 
L 361.359339 52.106239 
L 359.368101 51.62949 
L 357.372195 51.172676 
L 355.371821 50.735844 
L 353.367178 50.319037 
L 351.358468 49.922297 
L 349.34589 49.545663 
L 347.329647 49.189174 
L 345.30994 48.852865 
L 343.286971 48.536769 
L 341.260943 48.240919 
L 339.232057 47.965343 
L 337.200517 47.71007 
L 335.166525 47.475124 
L 333.130286 47.26053 
L 331.092003 47.066308 
L 329.05188 46.892479 
L 327.01012 46.739059 
L 324.966928 46.606064 
L 322.922509 46.493508 
L 320.877066 46.401401 
L 318.830805 46.329752 
L 316.783929 46.27857 
L 314.736644 46.247858 
L 312.689154 46.237621 
z
" clip-path="url(#pa8075d863c)" style="fill: #000080"/>
   </g>
   <g id="patch_3">
    <path d="M 312.689154 453.694918 
L 310.662138 453.684783 
L 308.635326 453.654378 
L 306.608919 453.603707 
L 304.58312 453.532776 
L 302.558132 453.44159 
L 300.534156 453.330159 
L 298.511397 453.198494 
L 296.490055 453.046608 
L 294.470332 452.874517 
L 292.452432 452.682238 
L 290.436556 452.469789 
L 288.422904 452.237193 
L 286.411679 451.984472 
L 284.403082 451.711652 
L 282.397314 451.41876 
L 280.394575 451.105826 
L 278.395065 450.77288 
L 276.398984 450.419955 
L 274.406533 450.047088 
L 272.417909 449.654316 
L 270.433313 449.241677 
L 268.452943 448.809213 
L 266.476996 448.356967 
L 264.50567 447.884985 
L 262.539162 447.393314 
L 260.577669 446.882002 
L 258.621388 446.351102 
L 256.670513 445.800665 
L 254.72524 445.230747 
L 252.785764 444.641406 
L 250.852277 444.0327 
L 248.924975 443.404689 
L 247.004048 442.757437 
L 245.08969 442.091009 
L 243.182092 441.40547 
L 241.281445 440.700891 
L 239.387938 439.97734 
L 237.501762 439.234891 
L 235.623104 438.473617 
L 233.752153 437.693596 
L 231.889095 436.894904 
L 230.034117 436.077621 
L 228.187405 435.24183 
L 226.349143 434.387615 
L 224.519514 433.515059 
L 222.698703 432.624251 
L 220.88689 431.71528 
L 219.084258 430.788236 
L 217.290986 429.843213 
L 215.507254 428.880305 
L 213.73324 427.899608 
L 211.969122 426.90122 
L 210.215075 425.885241 
L 208.471276 424.851772 
L 206.737898 423.800918 
L 205.015116 422.732782 
L 203.3031 421.647473 
L 201.602024 420.545098 
L 199.912056 419.425767 
L 198.233365 418.289593 
L 196.56612 417.13669 
L 194.910487 415.967172 
L 193.266632 414.781156 
L 191.634719 413.578761 
L 190.014912 412.360107 
L 188.407372 411.125317 
L 186.812259 409.874513 
L 185.229735 408.607821 
L 183.659956 407.325367 
L 182.10308 406.02728 
L 180.559263 404.713689 
L 179.028658 403.384726 
L 177.51142 402.040524 
L 176.007699 400.681217 
L 174.517646 399.30694 
L 173.04141 397.917833 
L 171.579139 396.514032 
L 170.130979 395.095679 
L 168.697074 393.662916 
L 167.277569 392.215886 
L 165.872604 390.754733 
L 164.482321 389.279604 
L 163.106859 387.790646 
L 161.746354 386.288008 
L 160.400944 384.77184 
L 159.070763 383.242294 
L 157.755943 381.699523 
L 156.456617 380.143682 
L 155.172913 378.574925 
L 153.904961 376.993409 
L 152.652888 375.399294 
L 151.416817 373.792737 
L 150.196874 372.173901 
L 148.99318 370.542946 
L 147.805856 368.900036 
L 146.63502 367.245335 
L 145.480789 365.579009 
L 144.343278 363.901223 
L 143.222602 362.212147 
L 142.118873 360.511949 
L 141.032201 358.800798 
L 139.962694 357.078867 
L 138.910459 355.346327 
L 137.875602 353.603351 
L 136.858227 351.850114 
L 135.858434 350.086791 
L 134.876325 348.313559 
L 133.911996 346.530594 
L 132.965545 344.738075 
L 132.037067 342.936182 
L 131.126653 341.125094 
L 130.234396 339.304992 
L 129.360383 337.476059 
L 128.504704 335.638478 
L 127.667443 333.792432 
L 126.848683 331.938105 
L 126.048508 330.075684 
L 125.266997 328.205355 
L 124.504227 326.327304 
L 123.760276 324.441719 
L 123.035218 322.548789 
L 122.329125 320.648703 
L 121.642068 318.741652 
L 120.974115 316.827825 
L 120.325334 314.907415 
L 119.695789 312.980613 
L 119.085543 311.047612 
L 118.494657 309.108605 
L 117.923191 307.163787 
L 117.371201 305.213351 
L 116.838743 303.257493 
L 116.325869 301.296408 
L 115.832632 299.330293 
L 115.35908 297.359343 
L 114.905261 295.383757 
L 114.47122 293.403731 
L 114.057001 291.419464 
L 113.662645 289.431154 
L 113.288191 287.439 
L 112.933678 285.443202 
L 112.59914 283.443958 
L 112.28461 281.441468 
L 111.990121 279.435934 
L 111.715702 277.427554 
L 111.461379 275.416531 
L 111.22718 273.403066 
L 111.013126 271.387359 
L 110.81924 269.369613 
L 110.645541 267.350028 
L 110.492045 265.328808 
L 110.35877 263.306153 
L 110.245727 261.282267 
L 110.152929 259.257352 
L 110.080383 257.23161 
L 110.028099 255.205244 
L 109.996081 253.178457 
L 109.984331 251.151451 
L 109.992852 249.124428 
L 110.021643 247.097592 
L 110.0707 245.071145 
L 110.140018 243.045291 
L 110.229592 241.02023 
L 110.339411 238.996167 
L 110.469465 236.973303 
L 110.619741 234.95184 
L 110.790224 232.931982 
L 110.980896 230.913929 
L 111.191739 228.897884 
L 111.422732 226.884048 
L 111.673851 224.872623 
L 111.945071 222.863809 
L 112.236366 220.857808 
L 112.547705 218.85482 
L 112.879059 216.855046 
L 113.230394 214.858685 
L 113.601674 212.865937 
L 113.992863 210.877002 
L 114.403921 208.892077 
L 114.834808 206.911363 
L 115.28548 204.935056 
L 115.755892 202.963355 
L 116.245997 200.996457 
L 116.755747 199.034558 
L 117.28509 197.077854 
L 117.833973 195.126542 
L 118.402341 193.180815 
L 118.990138 191.24087 
L 119.597304 189.3069 
L 120.22378 187.379097 
L 120.869502 185.457656 
L 121.534405 183.542768 
L 122.218424 181.634625 
L 122.92149 179.733417 
L 123.643533 177.839335 
L 124.38448 175.952568 
L 125.144257 174.073304 
L 125.922789 172.201732 
L 126.719997 170.338039 
L 127.535802 168.482411 
L 128.370122 166.635034 
L 129.222874 164.796092 
L 130.093972 162.965769 
L 130.983329 161.144249 
L 131.890858 159.331714 
L 132.816465 157.528344 
L 133.76006 155.73432 
L 134.721548 153.949821 
L 135.700832 152.175027 
L 136.697815 150.410114 
L 137.712397 148.655259 
L 138.744476 146.910637 
L 139.79395 145.176423 
L 140.860713 143.452791 
L 141.944659 141.739912 
L 143.045679 140.037958 
L 144.163663 138.347099 
L 145.2985 136.667504 
L 146.450076 134.999342 
L 147.618275 133.342778 
L 148.802982 131.697979 
L 150.004077 130.065109 
L 151.22144 128.444332 
L 152.45495 126.835809 
L 153.704483 125.239701 
L 154.969914 123.656168 
L 156.251118 122.085369 
L 157.547965 120.52746 
L 158.860326 118.982597 
L 160.188069 117.450934 
L 161.531063 115.932626 
L 162.889172 114.427823 
L 164.262262 112.936676 
L 165.650194 111.459335 
L 167.052829 109.995946 
L 168.470028 108.546657 
L 169.901649 107.111612 
L 171.347549 105.690954 
L 172.807582 104.284827 
L 174.281604 102.893369 
L 175.769466 101.516722 
L 177.27102 100.155021 
L 178.786116 98.808404 
L 180.314602 97.477005 
L 181.856325 96.160957 
L 183.411132 94.860392 
L 184.978866 93.57544 
L 186.559371 92.306229 
L 188.152489 91.052886 
L 189.758061 89.815537 
L 191.375925 88.594306 
L 193.005921 87.389313 
L 194.647885 86.200681 
L 196.301653 85.028527 
L 197.96706 83.87297 
L 199.643939 82.734124 
L 201.332122 81.612103 
L 203.031441 80.50702 
L 204.741726 79.418985 
L 206.462805 78.348107 
L 208.194506 77.294494 
L 209.936658 76.258249 
L 211.689084 75.239478 
L 213.45161 74.238282 
L 215.22406 73.25476 
L 217.006256 72.289012 
L 218.798021 71.341134 
L 220.599174 70.411221 
L 222.409537 69.499365 
L 224.228927 68.605659 
L 226.057163 67.73019 
L 227.894063 66.873048 
L 229.739442 66.034317 
L 231.593115 65.214081 
L 233.454899 64.412423 
L 235.324605 63.629422 
L 237.202049 62.865158 
L 239.08704 62.119705 
L 240.979392 61.39314 
L 242.878915 60.685534 
L 244.785419 59.996959 
L 246.698713 59.327482 
L 248.618606 58.677172 
L 250.544906 58.046092 
L 252.47742 57.434307 
L 254.415956 56.841878 
L 256.360318 56.268863 
L 258.310314 55.71532 
L 260.265748 55.181304 
L 262.226423 54.666869 
L 264.192145 54.172066 
L 266.162717 53.696945 
L 268.137941 53.241553 
L 270.117621 52.805936 
L 272.101557 52.390137 
L 274.089552 51.994198 
L 276.081408 51.618158 
L 278.076923 51.262055 
L 280.075901 50.925925 
L 282.078139 50.609801 
L 284.083438 50.313714 
L 286.091598 50.037696 
L 288.102418 49.781772 
L 290.115696 49.545969 
L 292.131232 49.330311 
L 294.148824 49.134818 
L 296.168269 48.95951 
L 298.189367 48.804406 
L 300.211914 48.669519 
L 302.23571 48.554865 
L 304.26055 48.460454 
L 306.286234 48.386296 
L 308.312557 48.332398 
L 310.339319 48.298765 
L 312.366315 48.285402 
L 312.689154 48.285145 
L 312.689154 46.237621 
L 312.363054 46.23788 
L 310.315583 46.251379 
L 308.268349 46.285351 
L 306.221558 46.339793 
L 304.175413 46.414701 
L 302.130119 46.510065 
L 300.085882 46.625878 
L 298.042904 46.762127 
L 296.001392 46.918798 
L 293.961548 47.095876 
L 291.923576 47.293344 
L 289.887682 47.511181 
L 287.854067 47.749366 
L 285.822936 48.007874 
L 283.794492 48.286681 
L 281.768937 48.585758 
L 279.746474 48.905075 
L 277.727305 49.2446 
L 275.711632 49.6043 
L 273.699657 49.984139 
L 271.691582 50.384077 
L 269.687605 50.804076 
L 267.687929 51.244094 
L 265.692753 51.704086 
L 263.702277 52.184006 
L 261.716699 52.683807 
L 259.736218 53.203438 
L 257.761033 53.742848 
L 255.79134 54.301982 
L 253.827338 54.880785 
L 251.869221 55.479199 
L 249.917186 56.097164 
L 247.971428 56.734618 
L 246.032143 57.391497 
L 244.099522 58.067736 
L 242.173761 58.763266 
L 240.255051 59.47802 
L 238.343585 60.211924 
L 236.439553 60.964907 
L 234.543145 61.736891 
L 232.654553 62.527801 
L 230.773964 63.337556 
L 228.901566 64.166077 
L 227.037547 65.01328 
L 225.182093 65.879081 
L 223.335389 66.763392 
L 221.497621 67.666126 
L 219.668972 68.587192 
L 217.849625 69.526499 
L 216.039762 70.483951 
L 214.239564 71.459454 
L 212.449211 72.45291 
L 210.668881 73.46422 
L 208.898754 74.493282 
L 207.139005 75.539993 
L 205.389811 76.60425 
L 203.651347 77.685944 
L 201.923787 78.784969 
L 200.207304 79.901215 
L 198.502068 81.034569 
L 196.808251 82.184918 
L 195.126022 83.352148 
L 193.455549 84.536142 
L 191.797 85.736781 
L 190.150539 86.953945 
L 188.516333 88.187512 
L 186.894543 89.43736 
L 185.285333 90.703362 
L 183.688863 91.985394 
L 182.105293 93.283325 
L 180.534782 94.597027 
L 178.977485 95.926369 
L 177.43356 97.271216 
L 175.90316 98.631435 
L 174.386439 100.00689 
L 172.883548 101.397444 
L 171.394637 102.802956 
L 169.919856 104.223287 
L 168.459351 105.658294 
L 167.013269 107.107835 
L 165.581755 108.571763 
L 164.164952 110.049934 
L 162.763 111.542198 
L 161.376041 113.048407 
L 160.004214 114.56841 
L 158.647654 116.102055 
L 157.306499 117.649188 
L 155.980882 119.209656 
L 154.670936 120.783302 
L 153.376791 122.369968 
L 152.098577 123.969496 
L 150.836422 125.581726 
L 149.590453 127.206496 
L 148.360793 128.843645 
L 147.147566 130.493009 
L 145.950893 132.154422 
L 144.770893 133.827718 
L 143.607686 135.512731 
L 142.461386 137.209291 
L 141.332109 138.91723 
L 140.219967 140.636375 
L 139.125072 142.366556 
L 138.047534 144.107599 
L 136.987459 145.85933 
L 135.944955 147.621574 
L 134.920125 149.394155 
L 133.913071 151.176896 
L 132.923895 152.969617 
L 131.952696 154.772141 
L 130.999569 156.584286 
L 130.064612 158.405872 
L 129.147917 160.236716 
L 128.249576 162.076636 
L 127.369679 163.925446 
L 126.508313 165.782963 
L 125.665566 167.649001 
L 124.841521 169.523373 
L 124.03626 171.405891 
L 123.249864 173.296368 
L 122.482412 175.194614 
L 121.733981 177.100439 
L 121.004645 179.013653 
L 120.294478 180.934065 
L 119.603549 182.861483 
L 118.931929 184.795713 
L 118.279685 186.736563 
L 117.646881 188.683838 
L 117.033582 190.637343 
L 116.439848 192.596884 
L 115.865738 194.562264 
L 115.311311 196.533287 
L 114.776622 198.509755 
L 114.261723 200.491471 
L 113.766667 202.478237 
L 113.291503 204.469855 
L 112.836279 206.466124 
L 112.40104 208.466846 
L 111.98583 210.471819 
L 111.590689 212.480845 
L 111.215659 214.493722 
L 110.860775 216.510248 
L 110.526075 218.530222 
L 110.21159 220.553442 
L 109.917353 222.579706 
L 109.643393 224.60881 
L 109.389737 226.640553 
L 109.156412 228.674731 
L 108.943439 230.71114 
L 108.750841 232.749577 
L 108.578636 234.789839 
L 108.426842 236.83172 
L 108.295474 238.875017 
L 108.184546 240.919525 
L 108.094068 242.965041 
L 108.024049 245.011359 
L 107.974496 247.058275 
L 107.945415 249.105584 
L 107.936808 251.153081 
L 107.948676 253.200562 
L 107.981018 255.247822 
L 108.03383 257.294657 
L 108.107108 259.340861 
L 108.200844 261.386229 
L 108.315029 263.430559 
L 108.44965 265.473644 
L 108.604696 267.515281 
L 108.78015 269.555265 
L 108.975994 271.593393 
L 109.19221 273.62946 
L 109.428776 275.663264 
L 109.685667 277.6946 
L 109.962858 279.723266 
L 110.260322 281.749058 
L 110.578028 283.771775 
L 110.915946 285.791214 
L 111.27404 287.807172 
L 111.652276 289.819449 
L 112.050616 291.827842 
L 112.469019 293.832153 
L 112.907444 295.832178 
L 113.365847 297.82772 
L 113.844182 299.818578 
L 114.342402 301.804553 
L 114.860456 303.785447 
L 115.398292 305.761061 
L 115.955858 307.731198 
L 116.533097 309.695662 
L 117.129951 311.654254 
L 117.746361 313.60678 
L 118.382265 315.553045 
L 119.0376 317.492853 
L 119.712299 319.426012 
L 120.406296 321.352326 
L 121.119522 323.271605 
L 121.851904 325.183655 
L 122.603369 327.088286 
L 123.373844 328.985307 
L 124.163249 330.874529 
L 124.971507 332.755763 
L 125.798536 334.62882 
L 126.644255 336.493513 
L 127.508578 338.349655 
L 128.391418 340.197062 
L 129.292688 342.035549 
L 130.212298 343.864931 
L 131.150155 345.685025 
L 132.106166 347.49565 
L 133.080236 349.296625 
L 134.072266 351.087769 
L 135.082157 352.868903 
L 136.109809 354.639849 
L 137.155119 356.400431 
L 138.217982 358.150471 
L 139.298292 359.889796 
L 140.395941 361.618231 
L 141.510819 363.335603 
L 142.642815 365.041741 
L 143.791815 366.736473 
L 144.957705 368.419631 
L 146.140368 370.091046 
L 147.339686 371.750551 
L 148.555538 373.39798 
L 149.787804 375.033169 
L 151.03636 376.655953 
L 152.30108 378.266171 
L 153.58184 379.863661 
L 154.87851 381.448264 
L 156.190961 383.019821 
L 157.519062 384.578176 
L 158.862679 386.123171 
L 160.22168 387.654654 
L 161.595926 389.17247 
L 162.985282 390.676468 
L 164.389609 392.166498 
L 165.808765 393.64241 
L 167.242609 395.104056 
L 168.690997 396.551292 
L 170.153785 397.983972 
L 171.630827 399.401952 
L 173.121974 400.805091 
L 174.627078 402.193249 
L 176.145988 403.566287 
L 177.678552 404.924067 
L 179.224618 406.266454 
L 180.784029 407.593313 
L 182.356631 408.904512 
L 183.942266 410.19992 
L 185.540776 411.479407 
L 187.152 412.742845 
L 188.775778 413.990108 
L 190.411947 415.221071 
L 192.060344 416.435612 
L 193.720804 417.633607 
L 195.39316 418.814939 
L 197.077246 419.979488 
L 198.772893 421.127138 
L 200.479931 422.257775 
L 202.198191 423.371285 
L 203.927499 424.467558 
L 205.667683 425.546482 
L 207.41857 426.607951 
L 209.179983 427.651859 
L 210.951748 428.6781 
L 212.733685 429.686573 
L 214.525619 430.677176 
L 216.327368 431.649811 
L 218.138754 432.60438 
L 219.959595 433.540788 
L 221.789708 434.45894 
L 223.628912 435.358746 
L 225.477021 436.240115 
L 227.333852 437.10296 
L 229.199218 437.947193 
L 231.072933 438.772731 
L 232.954809 439.57949 
L 234.844659 440.367391 
L 236.742293 441.136354 
L 238.647522 441.886303 
L 240.560155 442.617162 
L 242.480001 443.328859 
L 244.406868 444.021322 
L 246.340562 444.694482 
L 248.280892 445.348271 
L 250.227662 445.982625 
L 252.180679 446.59748 
L 254.139746 447.192775 
L 256.104668 447.768449 
L 258.075249 448.324446 
L 260.051291 448.860709 
L 262.032596 449.377185 
L 264.018968 449.873823 
L 266.010206 450.350573 
L 268.006112 450.807387 
L 270.006487 451.244219 
L 272.011129 451.661026 
L 274.01984 452.057766 
L 276.032417 452.434399 
L 278.04866 452.790888 
L 280.068367 453.127197 
L 282.091336 453.443293 
L 284.117364 453.739144 
L 286.14625 454.014719 
L 288.177791 454.269993 
L 290.211782 454.504938 
L 292.248021 454.719533 
L 294.286304 454.913754 
L 296.326427 455.087584 
L 298.368187 455.241003 
L 300.411379 455.373998 
L 302.455798 455.486555 
L 304.501241 455.578662 
L 306.547503 455.65031 
L 308.594378 455.701493 
L 310.641664 455.732204 
L 312.689154 455.742442 
z
" clip-path="url(#pa8075d863c)" style="fill: #800000"/>
   </g>
   <g id="PatchCollection_1">
    <defs>
     <path id="m1d3ac9804d" d="M 312.689154 -453.694918 
L 312.689154 -453.694918 
L 314.716169 -453.684783 
L 316.742981 -453.654378 
L 318.769388 -453.603707 
L 320.795187 -453.532776 
L 322.820175 -453.44159 
L 324.844151 -453.330159 
L 326.866911 -453.198494 
L 328.888253 -453.046608 
L 330.907975 -452.874517 
L 332.925875 -452.682238 
L 334.941752 -452.469789 
L 336.955403 -452.237193 
L 338.966628 -451.984472 
L 340.975225 -451.711652 
L 342.980993 -451.41876 
L 344.983733 -451.105826 
L 346.983242 -450.77288 
L 348.979323 -450.419955 
L 350.971774 -450.047088 
L 352.960398 -449.654316 
L 354.944994 -449.241677 
L 356.925365 -448.809213 
L 358.901312 -448.356967 
L 360.872638 -447.884985 
L 362.839145 -447.393314 
L 364.800638 -446.882002 
L 366.756919 -446.351102 
L 368.707794 -445.800665 
L 370.653067 -445.230747 
L 372.592544 -444.641406 
L 374.52603 -444.0327 
L 376.453333 -443.404689 
L 378.374259 -442.757437 
L 380.288617 -442.091009 
L 382.196215 -441.40547 
L 384.096862 -440.700891 
L 385.990369 -439.97734 
L 387.876545 -439.234891 
L 389.755203 -438.473617 
L 391.626154 -437.693596 
L 393.489212 -436.894904 
L 395.34419 -436.077621 
L 397.190902 -435.24183 
L 399.029165 -434.387615 
L 400.858793 -433.515059 
L 402.679604 -432.624251 
L 404.491417 -431.71528 
L 406.294049 -430.788236 
L 408.087321 -429.843213 
L 409.871053 -428.880305 
L 411.645067 -427.899608 
L 413.409186 -426.90122 
L 415.163232 -425.885241 
L 416.907031 -424.851772 
L 418.640409 -423.800918 
L 420.363192 -422.732782 
L 422.075207 -421.647473 
L 423.776284 -420.545098 
L 425.466252 -419.425767 
L 427.144942 -418.289593 
L 428.812187 -417.13669 
L 430.46782 -415.967172 
L 432.111675 -414.781156 
L 433.743588 -413.578761 
L 435.363395 -412.360107 
L 436.970936 -411.125317 
L 438.566048 -409.874513 
L 440.148572 -408.607821 
L 441.718351 -407.325367 
L 443.275227 -406.02728 
L 444.819044 -404.713689 
L 446.349649 -403.384726 
L 447.866887 -402.040524 
L 449.370608 -400.681217 
L 450.860661 -399.30694 
L 452.336897 -397.917833 
L 453.799168 -396.514032 
L 455.247328 -395.095679 
L 456.681233 -393.662916 
L 458.100739 -392.215886 
L 459.505703 -390.754733 
L 460.895986 -389.279604 
L 462.271448 -387.790646 
L 463.631953 -386.288008 
L 464.977363 -384.77184 
L 466.307544 -383.242294 
L 467.622364 -381.699523 
L 468.921691 -380.143682 
L 470.205394 -378.574925 
L 471.473346 -376.993409 
L 472.72542 -375.399294 
L 473.96149 -373.792737 
L 475.181433 -372.173901 
L 476.385127 -370.542946 
L 477.572451 -368.900036 
L 478.743288 -367.245335 
L 479.897519 -365.579009 
L 481.035029 -363.901223 
L 482.155705 -362.212147 
L 483.259434 -360.511949 
L 484.346107 -358.800798 
L 485.415614 -357.078867 
L 486.467848 -355.346327 
L 487.502705 -353.603351 
L 488.52008 -351.850114 
L 489.519873 -350.086791 
L 490.501982 -348.313559 
L 491.466311 -346.530594 
L 492.412762 -344.738075 
L 493.34124 -342.936182 
L 494.251654 -341.125094 
L 495.143912 -339.304992 
L 496.017924 -337.476059 
L 496.873603 -335.638478 
L 497.710865 -333.792432 
L 498.529624 -331.938105 
L 499.329799 -330.075684 
L 500.11131 -328.205355 
L 500.87408 -326.327304 
L 501.618031 -324.441719 
L 502.343089 -322.548789 
L 503.049182 -320.648703 
L 503.736239 -318.741652 
L 504.404192 -316.827825 
L 505.052973 -314.907415 
L 505.682518 -312.980613 
L 506.292764 -311.047612 
L 506.88365 -309.108605 
L 507.455116 -307.163787 
L 508.007106 -305.213351 
L 508.539565 -303.257493 
L 509.052438 -301.296408 
L 509.545675 -299.330293 
L 510.019227 -297.359343 
L 510.473046 -295.383757 
L 510.907087 -293.403731 
L 511.321306 -291.419464 
L 511.715662 -289.431154 
L 512.090116 -287.439 
L 512.444629 -285.443202 
L 512.779168 -283.443958 
L 513.093697 -281.441468 
L 513.388186 -279.435934 
L 513.662606 -277.427554 
L 513.916928 -275.416531 
L 514.151127 -273.403066 
L 514.365181 -271.387359 
L 514.559067 -269.369613 
L 514.732767 -267.350028 
L 514.886262 -265.328808 
L 515.019537 -263.306153 
L 515.13258 -261.282267 
L 515.225379 -259.257352 
L 515.297924 -257.23161 
L 515.350208 -255.205244 
L 515.382227 -253.178457 
L 515.393976 -251.151451 
L 515.385455 -249.124428 
L 515.356664 -247.097592 
L 515.307607 -245.071145 
L 515.238289 -243.045291 
L 515.148715 -241.02023 
L 515.038896 -238.996167 
L 514.908842 -236.973303 
L 514.758566 -234.95184 
L 514.588084 -232.931982 
L 514.397411 -230.913929 
L 514.186568 -228.897884 
L 513.955576 -226.884048 
L 513.704457 -224.872623 
L 513.433236 -222.863809 
L 513.141941 -220.857808 
L 512.830602 -218.85482 
L 512.499248 -216.855046 
L 512.147913 -214.858685 
L 511.776633 -212.865937 
L 511.385444 -210.877002 
L 510.974386 -208.892077 
L 510.543499 -206.911363 
L 510.092827 -204.935056 
L 509.622415 -202.963355 
L 509.13231 -200.996457 
L 508.62256 -199.034558 
L 508.093217 -197.077854 
L 507.544335 -195.126542 
L 506.975966 -193.180815 
L 506.38817 -191.24087 
L 505.781003 -189.3069 
L 505.154527 -187.379097 
L 504.508806 -185.457656 
L 503.843902 -183.542768 
L 503.159883 -181.634625 
L 502.456817 -179.733417 
L 501.734774 -177.839335 
L 500.993827 -175.952568 
L 500.23405 -174.073304 
L 499.455518 -172.201732 
L 498.65831 -170.338039 
L 497.842505 -168.482411 
L 497.008185 -166.635034 
L 496.155434 -164.796092 
L 495.284335 -162.965769 
L 494.394978 -161.144249 
L 493.48745 -159.331714 
L 492.561842 -157.528344 
L 491.618247 -155.73432 
L 490.656759 -153.949821 
L 489.677475 -152.175027 
L 488.680492 -150.410114 
L 487.66591 -148.655259 
L 486.633831 -146.910637 
L 485.584357 -145.176423 
L 484.517594 -143.452791 
L 483.433648 -141.739912 
L 482.332628 -140.037958 
L 481.214644 -138.347099 
L 480.079807 -136.667504 
L 478.928231 -134.999342 
L 477.760032 -133.342778 
L 476.575325 -131.697979 
L 475.374231 -130.065109 
L 474.156867 -128.444332 
L 472.923357 -126.835809 
L 471.673824 -125.239701 
L 470.408393 -123.656168 
L 469.127189 -122.085369 
L 467.830342 -120.52746 
L 466.517981 -118.982597 
L 465.190238 -117.450934 
L 463.847244 -115.932626 
L 462.489135 -114.427823 
L 461.116045 -112.936676 
L 459.728114 -111.459335 
L 458.325478 -109.995946 
L 456.908279 -108.546657 
L 455.476658 -107.111612 
L 454.030758 -105.690954 
L 452.570725 -104.284827 
L 451.096703 -102.893369 
L 449.608841 -101.516722 
L 448.107287 -100.155021 
L 446.592191 -98.808404 
L 445.063705 -97.477005 
L 443.521982 -96.160957 
L 441.967175 -94.860392 
L 440.399441 -93.57544 
L 438.818936 -92.306229 
L 437.225818 -91.052886 
L 435.620246 -89.815537 
L 434.002382 -88.594306 
L 432.372386 -87.389313 
L 430.730422 -86.200681 
L 429.076654 -85.028527 
L 427.411247 -83.87297 
L 425.734368 -82.734124 
L 424.046185 -81.612103 
L 422.346866 -80.50702 
L 420.636582 -79.418985 
L 418.915502 -78.348107 
L 417.183801 -77.294494 
L 415.44165 -76.258249 
L 413.689223 -75.239478 
L 411.926697 -74.238282 
L 410.154247 -73.25476 
L 408.372051 -72.289012 
L 406.580286 -71.341134 
L 404.779133 -70.411221 
L 402.96877 -69.499365 
L 401.14938 -68.605659 
L 399.321144 -67.73019 
L 397.484244 -66.873048 
L 395.638865 -66.034317 
L 393.785192 -65.214081 
L 391.923408 -64.412423 
L 390.053702 -63.629422 
L 388.176259 -62.865158 
L 386.291267 -62.119705 
L 384.398915 -61.39314 
L 382.499392 -60.685534 
L 380.592889 -59.996959 
L 378.679595 -59.327482 
L 376.759701 -58.677172 
L 374.833401 -58.046092 
L 372.900887 -57.434307 
L 370.962351 -56.841878 
L 369.017989 -56.268863 
L 367.067993 -55.71532 
L 365.11256 -55.181304 
L 363.151884 -54.666869 
L 361.186162 -54.172066 
L 359.21559 -53.696945 
L 357.240366 -53.241553 
L 355.260686 -52.805936 
L 353.27675 -52.390137 
L 351.288755 -51.994198 
L 349.2969 -51.618158 
L 347.301384 -51.262055 
L 345.302407 -50.925925 
L 343.300168 -50.609801 
L 341.294869 -50.313714 
L 339.286709 -50.037696 
L 337.275889 -49.781772 
L 335.262611 -49.545969 
L 333.247075 -49.330311 
L 331.229484 -49.134818 
L 329.210038 -48.95951 
L 327.18894 -48.804406 
L 325.166393 -48.669519 
L 323.142598 -48.554865 
L 321.117757 -48.460454 
L 319.092074 -48.386296 
L 317.06575 -48.332398 
L 315.038988 -48.298765 
L 313.011992 -48.285402 
L 312.689154 -48.285145 
L 312.689154 -48.285145 
Q 312.689154 -250.990031 312.689154 -48.285145 
L 312.689154 -48.285145 
L 312.689154 -48.285145 
L 310.662138 -48.29528 
L 308.635326 -48.325684 
L 306.608919 -48.376355 
L 304.58312 -48.447287 
L 302.558132 -48.538473 
L 300.534156 -48.649904 
L 298.511397 -48.781569 
L 296.490055 -48.933454 
L 294.470332 -49.105545 
L 292.452432 -49.297825 
L 290.436556 -49.510273 
L 288.422904 -49.742869 
L 286.411679 -49.99559 
L 284.403082 -50.26841 
L 282.397314 -50.561302 
L 280.394575 -50.874237 
L 278.395065 -51.207183 
L 276.398984 -51.560107 
L 274.406533 -51.932974 
L 272.417909 -52.325747 
L 270.433313 -52.738386 
L 268.452943 -53.170849 
L 266.476996 -53.623095 
L 264.50567 -54.095077 
L 262.539162 -54.586749 
L 260.577669 -55.09806 
L 258.621388 -55.628961 
L 256.670513 -56.179398 
L 254.72524 -56.749315 
L 252.785764 -57.338657 
L 250.852277 -57.947363 
L 248.924975 -58.575373 
L 247.004048 -59.222625 
L 245.08969 -59.889054 
L 243.182092 -60.574592 
L 241.281445 -61.279172 
L 239.387938 -62.002722 
L 237.501762 -62.745172 
L 235.623104 -63.506445 
L 233.752153 -64.286467 
L 231.889095 -65.085159 
L 230.034117 -65.902441 
L 228.187405 -66.738232 
L 226.349143 -67.592448 
L 224.519514 -68.465003 
L 222.698703 -69.355811 
L 220.88689 -70.264782 
L 219.084258 -71.191826 
L 217.290986 -72.136849 
L 215.507254 -73.099758 
L 213.73324 -74.080455 
L 211.969122 -75.078843 
L 210.215075 -76.094822 
L 208.471276 -77.12829 
L 206.737898 -78.179145 
L 205.015116 -79.24728 
L 203.3031 -80.33259 
L 201.602024 -81.434965 
L 199.912056 -82.554295 
L 198.233365 -83.690469 
L 196.56612 -84.843373 
L 194.910487 -86.012891 
L 193.266632 -87.198907 
L 191.634719 -88.401302 
L 190.014912 -89.619955 
L 188.407372 -90.854746 
L 186.812259 -92.105549 
L 185.229735 -93.372241 
L 183.659956 -94.654695 
L 182.10308 -95.952782 
L 180.559263 -97.266373 
L 179.028658 -98.595336 
L 177.51142 -99.939539 
L 176.007699 -101.298846 
L 174.517646 -102.673122 
L 173.04141 -104.06223 
L 171.579139 -105.46603 
L 170.130979 -106.884383 
L 168.697074 -108.317146 
L 167.277569 -109.764177 
L 165.872604 -111.22533 
L 164.482321 -112.700459 
L 163.106859 -114.189417 
L 161.746354 -115.692055 
L 160.400944 -117.208223 
L 159.070763 -118.737768 
L 157.755943 -120.280539 
L 156.456617 -121.836381 
L 155.172913 -123.405138 
L 153.904961 -124.986653 
L 152.652888 -126.580769 
L 151.416817 -128.187325 
L 150.196874 -129.806162 
L 148.99318 -131.437117 
L 147.805856 -133.080027 
L 146.63502 -134.734728 
L 145.480789 -136.401054 
L 144.343278 -138.078839 
L 143.222602 -139.767915 
L 142.118873 -141.468114 
L 141.032201 -143.179264 
L 139.962694 -144.901195 
L 138.910459 -146.633736 
L 137.875602 -148.376711 
L 136.858227 -150.129948 
L 135.858434 -151.893271 
L 134.876325 -153.666504 
L 133.911996 -155.449469 
L 132.965545 -157.241987 
L 132.037067 -159.043881 
L 131.126653 -160.854969 
L 130.234396 -162.67507 
L 129.360383 -164.504003 
L 128.504704 -166.341585 
L 127.667443 -168.187631 
L 126.848683 -170.041957 
L 126.048508 -171.904378 
L 125.266997 -173.774708 
L 124.504227 -175.652759 
L 123.760276 -177.538344 
L 123.035218 -179.431274 
L 122.329125 -181.331359 
L 121.642068 -183.238411 
L 120.974115 -185.152237 
L 120.325334 -187.072648 
L 119.695789 -188.99945 
L 119.085543 -190.93245 
L 118.494657 -192.871457 
L 117.923191 -194.816276 
L 117.371201 -196.766712 
L 116.838743 -198.72257 
L 116.325869 -200.683654 
L 115.832632 -202.64977 
L 115.35908 -204.620719 
L 114.905261 -206.596306 
L 114.47122 -208.576331 
L 114.057001 -210.560598 
L 113.662645 -212.548908 
L 113.288191 -214.541062 
L 112.933678 -216.536861 
L 112.59914 -218.536105 
L 112.28461 -220.538594 
L 111.990121 -222.544129 
L 111.715702 -224.552508 
L 111.461379 -226.563531 
L 111.22718 -228.576997 
L 111.013126 -230.592703 
L 110.81924 -232.61045 
L 110.645541 -234.630034 
L 110.492045 -236.651255 
L 110.35877 -238.673909 
L 110.245727 -240.697795 
L 110.152929 -242.72271 
L 110.080383 -244.748452 
L 110.028099 -246.774818 
L 109.996081 -248.801606 
L 109.984331 -250.828612 
L 109.992852 -252.855634 
L 110.021643 -254.88247 
L 110.0707 -256.908917 
L 110.140018 -258.934772 
L 110.229592 -260.959832 
L 110.339411 -262.983896 
L 110.469465 -265.00676 
L 110.619741 -267.028222 
L 110.790224 -269.048081 
L 110.980896 -271.066133 
L 111.191739 -273.082179 
L 111.422732 -275.096014 
L 111.673851 -277.10744 
L 111.945071 -279.116254 
L 112.236366 -281.122255 
L 112.547705 -283.125242 
L 112.879059 -285.125017 
L 113.230394 -287.121378 
L 113.601674 -289.114126 
L 113.992863 -291.103061 
L 114.403921 -293.087985 
L 114.834808 -295.0687 
L 115.28548 -297.045006 
L 115.755892 -299.016707 
L 116.245997 -300.983606 
L 116.755747 -302.945505 
L 117.28509 -304.902208 
L 117.833973 -306.853521 
L 118.402341 -308.799247 
L 118.990138 -310.739192 
L 119.597304 -312.673163 
L 120.22378 -314.600965 
L 120.869502 -316.522406 
L 121.534405 -318.437294 
L 122.218424 -320.345437 
L 122.92149 -322.246645 
L 123.643533 -324.140727 
L 124.38448 -326.027495 
L 125.144257 -327.906758 
L 125.922789 -329.77833 
L 126.719997 -331.642023 
L 127.535802 -333.497651 
L 128.370122 -335.345029 
L 129.222874 -337.18397 
L 130.093972 -339.014293 
L 130.983329 -340.835813 
L 131.890858 -342.648349 
L 132.816465 -344.451719 
L 133.76006 -346.245743 
L 134.721548 -348.030241 
L 135.700832 -349.805036 
L 136.697815 -351.569949 
L 137.712397 -353.324804 
L 138.744476 -355.069425 
L 139.79395 -356.803639 
L 140.860713 -358.527272 
L 141.944659 -360.240151 
L 143.045679 -361.942105 
L 144.163663 -363.632964 
L 145.2985 -365.312558 
L 146.450076 -366.980721 
L 147.618275 -368.637285 
L 148.802982 -370.282083 
L 150.004077 -371.914953 
L 151.22144 -373.535731 
L 152.45495 -375.144254 
L 153.704483 -376.740361 
L 154.969914 -378.323894 
L 156.251118 -379.894694 
L 157.547965 -381.452603 
L 158.860326 -382.997466 
L 160.188069 -384.529128 
L 161.531063 -386.047437 
L 162.889172 -387.552239 
L 164.262262 -389.043386 
L 165.650194 -390.520728 
L 167.052829 -391.984116 
L 168.470028 -393.433406 
L 169.901649 -394.868451 
L 171.347549 -396.289108 
L 172.807582 -397.695236 
L 174.281604 -399.086693 
L 175.769466 -400.463341 
L 177.27102 -401.825041 
L 178.786116 -403.171658 
L 180.314602 -404.503057 
L 181.856325 -405.819105 
L 183.411132 -407.11967 
L 184.978866 -408.404623 
L 186.559371 -409.673833 
L 188.152489 -410.927176 
L 189.758061 -412.164525 
L 191.375925 -413.385757 
L 193.005921 -414.590749 
L 194.647885 -415.779382 
L 196.301653 -416.951535 
L 197.96706 -418.107093 
L 199.643939 -419.245939 
L 201.332122 -420.36796 
L 203.031441 -421.473042 
L 204.741726 -422.561077 
L 206.462805 -423.631955 
L 208.194506 -424.685569 
L 209.936658 -425.721813 
L 211.689084 -426.740585 
L 213.45161 -427.741781 
L 215.22406 -428.725302 
L 217.006256 -429.69105 
L 218.798021 -430.638928 
L 220.599174 -431.568842 
L 222.409537 -432.480697 
L 224.228927 -433.374404 
L 226.057163 -434.249872 
L 227.894063 -435.107015 
L 229.739442 -435.945746 
L 231.593115 -436.765981 
L 233.454899 -437.56764 
L 235.324605 -438.35064 
L 237.202049 -439.114905 
L 239.08704 -439.860357 
L 240.979392 -440.586922 
L 242.878915 -441.294528 
L 244.785419 -441.983104 
L 246.698713 -442.65258 
L 248.618606 -443.302891 
L 250.544906 -443.93397 
L 252.47742 -444.545755 
L 254.415956 -445.138185 
L 256.360318 -445.7112 
L 258.310314 -446.264743 
L 260.265748 -446.798758 
L 262.226423 -447.313193 
L 264.192145 -447.807996 
L 266.162717 -448.283117 
L 268.137941 -448.738509 
L 270.117621 -449.174127 
L 272.101557 -449.589926 
L 274.089552 -449.985865 
L 276.081408 -450.361905 
L 278.076923 -450.718008 
L 280.075901 -451.054138 
L 282.078139 -451.370262 
L 284.083438 -451.666348 
L 286.091598 -451.942367 
L 288.102418 -452.19829 
L 290.115696 -452.434093 
L 292.131232 -452.649752 
L 294.148824 -452.845245 
L 296.168269 -453.020552 
L 298.189367 -453.175657 
L 300.211914 -453.310543 
L 302.23571 -453.425198 
L 304.26055 -453.519609 
L 306.286234 -453.593767 
L 308.312557 -453.647665 
L 310.339319 -453.681297 
L 312.366315 -453.694661 
L 312.689154 -453.694918 
L 312.689154 -453.694918 
Q 312.689154 -250.990031 312.689154 -453.694918 
z
" style="stroke: #808080; stroke-opacity: 0.5; stroke-width: 0.1"/>
    </defs>
    <g clip-path="url(#pa8075d863c)">
     <use xlink:href="#m1d3ac9804d" x="0" y="501.980062" style="fill: #000080; fill-opacity: 0.5; stroke: #808080; stroke-opacity: 0.5; stroke-width: 0.1"/>
    </g>
   </g>
   <g id="patch_4">
    <path d="M 312.689154 48.285145 
L 314.716169 48.29528 
L 316.742981 48.325684 
L 318.769388 48.376355 
L 320.795187 48.447287 
L 322.820175 48.538473 
L 324.844151 48.649904 
L 326.866911 48.781569 
L 328.888253 48.933454 
L 330.907975 49.105545 
L 332.925875 49.297825 
L 334.941752 49.510273 
L 336.955403 49.742869 
L 338.966628 49.99559 
L 340.975225 50.26841 
L 342.980993 50.561302 
L 344.983733 50.874237 
L 346.983242 51.207183 
L 348.979323 51.560107 
L 350.971774 51.932974 
L 352.960398 52.325747 
L 354.944994 52.738386 
L 356.925365 53.170849 
L 358.901312 53.623095 
L 360.872638 54.095077 
L 362.839145 54.586749 
L 364.800638 55.09806 
L 366.756919 55.628961 
L 368.707794 56.179398 
L 370.653067 56.749315 
L 372.592544 57.338657 
L 374.52603 57.947363 
L 376.453333 58.575373 
L 378.374259 59.222625 
L 380.288617 59.889054 
L 382.196215 60.574592 
L 384.096862 61.279172 
L 385.990369 62.002722 
L 387.876545 62.745172 
L 389.755203 63.506445 
L 391.626154 64.286467 
L 393.489212 65.085159 
L 395.34419 65.902441 
L 397.190902 66.738232 
L 399.029165 67.592448 
L 400.858793 68.465003 
L 402.679604 69.355811 
L 404.491417 70.264782 
L 406.294049 71.191826 
L 408.087321 72.136849 
L 409.871053 73.099758 
L 411.645067 74.080455 
L 413.409186 75.078843 
L 415.163232 76.094822 
L 416.907031 77.12829 
L 418.640409 78.179145 
L 420.363192 79.24728 
L 422.075207 80.33259 
L 423.776284 81.434965 
L 425.466252 82.554295 
L 427.144942 83.690469 
L 428.812187 84.843373 
L 430.46782 86.012891 
L 432.111675 87.198907 
L 433.743588 88.401302 
L 435.363395 89.619955 
L 436.970936 90.854746 
L 438.566048 92.105549 
L 440.148572 93.372241 
L 441.718351 94.654695 
L 443.275227 95.952782 
L 444.819044 97.266373 
L 446.349649 98.595336 
L 447.866887 99.939539 
L 449.370608 101.298846 
L 450.860661 102.673122 
L 452.336897 104.06223 
L 453.799168 105.46603 
L 455.247328 106.884383 
L 456.681233 108.317146 
L 458.100739 109.764177 
L 459.505703 111.22533 
L 460.895986 112.700459 
L 462.271448 114.189417 
L 463.631953 115.692055 
L 464.977363 117.208223 
L 466.307544 118.737768 
L 467.622364 120.280539 
L 468.921691 121.836381 
L 470.205394 123.405138 
L 471.473346 124.986653 
L 472.72542 126.580769 
L 473.96149 128.187325 
L 475.181433 129.806162 
L 476.385127 131.437117 
L 477.572451 133.080027 
L 478.743288 134.734728 
L 479.897519 136.401054 
L 481.035029 138.078839 
L 482.155705 139.767915 
L 483.259434 141.468114 
L 484.346107 143.179264 
L 485.415614 144.901195 
L 486.467848 146.633736 
L 487.502705 148.376711 
L 488.52008 150.129948 
L 489.519873 151.893271 
L 490.501982 153.666504 
L 491.466311 155.449469 
L 492.412762 157.241987 
L 493.34124 159.043881 
L 494.251654 160.854969 
L 495.143912 162.67507 
L 496.017924 164.504003 
L 496.873603 166.341585 
L 497.710865 168.187631 
L 498.529624 170.041957 
L 499.329799 171.904378 
L 500.11131 173.774708 
L 500.87408 175.652759 
L 501.618031 177.538344 
L 502.343089 179.431274 
L 503.049182 181.331359 
L 503.736239 183.238411 
L 504.404192 185.152237 
L 505.052973 187.072648 
L 505.682518 188.99945 
L 506.292764 190.93245 
L 506.88365 192.871457 
L 507.455116 194.816276 
L 508.007106 196.766712 
L 508.539565 198.72257 
L 509.052438 200.683654 
L 509.545675 202.64977 
L 510.019227 204.620719 
L 510.473046 206.596306 
L 510.907087 208.576331 
L 511.321306 210.560598 
L 511.715662 212.548908 
L 512.090116 214.541062 
L 512.444629 216.536861 
L 512.779168 218.536105 
L 513.093697 220.538594 
L 513.388186 222.544129 
L 513.662606 224.552508 
L 513.916928 226.563531 
L 514.151127 228.576997 
L 514.365181 230.592703 
L 514.559067 232.61045 
L 514.732767 234.630034 
L 514.886262 236.651255 
L 515.019537 238.673909 
L 515.13258 240.697795 
L 515.225379 242.72271 
L 515.297924 244.748452 
L 515.350208 246.774818 
L 515.382227 248.801606 
L 515.393976 250.828612 
L 515.385455 252.855634 
L 515.356664 254.88247 
L 515.307607 256.908917 
L 515.238289 258.934772 
L 515.148715 260.959832 
L 515.038896 262.983896 
L 514.908842 265.00676 
L 514.758566 267.028222 
L 514.588084 269.048081 
L 514.397411 271.066133 
L 514.186568 273.082179 
L 513.955576 275.096014 
L 513.704457 277.10744 
L 513.433236 279.116254 
L 513.141941 281.122255 
L 512.830602 283.125242 
L 512.499248 285.125017 
L 512.147913 287.121378 
L 511.776633 289.114126 
L 511.385444 291.103061 
L 510.974386 293.087985 
L 510.543499 295.0687 
L 510.092827 297.045006 
L 509.622415 299.016707 
L 509.13231 300.983606 
L 508.62256 302.945505 
L 508.093217 304.902208 
L 507.544335 306.853521 
L 506.975966 308.799247 
L 506.38817 310.739192 
L 505.781003 312.673163 
L 505.154527 314.600965 
L 504.508806 316.522406 
L 503.843902 318.437294 
L 503.159883 320.345437 
L 502.456817 322.246645 
L 501.734774 324.140727 
L 500.993827 326.027495 
L 500.23405 327.906758 
L 499.455518 329.77833 
L 498.65831 331.642023 
L 497.842505 333.497651 
L 497.008185 335.345029 
L 496.155434 337.18397 
L 495.284335 339.014293 
L 494.394978 340.835813 
L 493.48745 342.648349 
L 492.561842 344.451719 
L 491.618247 346.245743 
L 490.656759 348.030241 
L 489.677475 349.805036 
L 488.680492 351.569949 
L 487.66591 353.324804 
L 486.633831 355.069425 
L 485.584357 356.803639 
L 484.517594 358.527272 
L 483.433648 360.240151 
L 482.332628 361.942105 
L 481.214644 363.632964 
L 480.079807 365.312558 
L 478.928231 366.980721 
L 477.760032 368.637285 
L 476.575325 370.282083 
L 475.374231 371.914953 
L 474.156867 373.535731 
L 472.923357 375.144254 
L 471.673824 376.740361 
L 470.408393 378.323894 
L 469.127189 379.894694 
L 467.830342 381.452603 
L 466.517981 382.997466 
L 465.190238 384.529128 
L 463.847244 386.047437 
L 462.489135 387.552239 
L 461.116045 389.043386 
L 459.728114 390.520728 
L 458.325478 391.984116 
L 456.908279 393.433406 
L 455.476658 394.868451 
L 454.030758 396.289108 
L 452.570725 397.695236 
L 451.096703 399.086693 
L 449.608841 400.463341 
L 448.107287 401.825041 
L 446.592191 403.171658 
L 445.063705 404.503057 
L 443.521982 405.819105 
L 441.967175 407.11967 
L 440.399441 408.404623 
L 438.818936 409.673833 
L 437.225818 410.927176 
L 435.620246 412.164525 
L 434.002382 413.385757 
L 432.372386 414.590749 
L 430.730422 415.779382 
L 429.076654 416.951535 
L 427.411247 418.107093 
L 425.734368 419.245939 
L 424.046185 420.36796 
L 422.346866 421.473042 
L 420.636582 422.561077 
L 418.915502 423.631955 
L 417.183801 424.685569 
L 415.44165 425.721813 
L 413.689223 426.740585 
L 411.926697 427.741781 
L 410.154247 428.725302 
L 408.372051 429.69105 
L 406.580286 430.638928 
L 404.779133 431.568842 
L 402.96877 432.480697 
L 401.14938 433.374404 
L 399.321144 434.249872 
L 397.484244 435.107015 
L 395.638865 435.945746 
L 393.785192 436.765981 
L 391.923408 437.56764 
L 390.053702 438.35064 
L 388.176259 439.114905 
L 386.291267 439.860357 
L 384.398915 440.586922 
L 382.499392 441.294528 
L 380.592889 441.983104 
L 378.679595 442.65258 
L 376.759701 443.302891 
L 374.833401 443.93397 
L 372.900887 444.545755 
L 370.962351 445.138185 
L 369.017989 445.7112 
L 367.067993 446.264743 
L 365.11256 446.798758 
L 363.151884 447.313193 
L 361.186162 447.807996 
L 359.21559 448.283117 
L 357.240366 448.738509 
L 355.260686 449.174127 
L 353.27675 449.589926 
L 351.288755 449.985865 
L 349.2969 450.361905 
L 347.301384 450.718008 
L 345.302407 451.054138 
L 343.300168 451.370262 
L 341.294869 451.666348 
L 339.286709 451.942367 
L 337.275889 452.19829 
L 335.262611 452.434093 
L 333.247075 452.649752 
L 331.229484 452.845245 
L 329.210038 453.020552 
L 327.18894 453.175657 
L 325.166393 453.310543 
L 323.142598 453.425198 
L 321.117757 453.519609 
L 319.092074 453.593767 
L 317.06575 453.647665 
L 315.038988 453.681297 
L 313.011992 453.694661 
L 312.689154 453.694918 
L 312.689154 455.742442 
L 313.015253 455.742182 
L 315.062724 455.728684 
L 317.109958 455.694712 
L 319.15675 455.640269 
L 321.202894 455.565362 
L 323.248188 455.469997 
L 325.292426 455.354185 
L 327.335403 455.217936 
L 329.376916 455.061265 
L 331.41676 454.884186 
L 333.454731 454.686719 
L 335.490625 454.468882 
L 337.52424 454.230697 
L 339.555371 453.972188 
L 341.583815 453.693382 
L 343.60937 453.394305 
L 345.631833 453.074987 
L 347.651002 452.735462 
L 349.666675 452.375762 
L 351.67865 451.995924 
L 353.686726 451.595985 
L 355.690702 451.175986 
L 357.690378 450.735969 
L 359.685554 450.275977 
L 361.67603 449.796056 
L 363.661608 449.296255 
L 365.642089 448.776624 
L 367.617274 448.237214 
L 369.586967 447.67808 
L 371.55097 447.099277 
L 373.509086 446.500863 
L 375.461121 445.882899 
L 377.406879 445.245445 
L 379.346165 444.588566 
L 381.278785 443.912327 
L 383.204546 443.216796 
L 385.123256 442.502043 
L 387.034723 441.768138 
L 388.938755 441.015156 
L 390.835162 440.243172 
L 392.723754 439.452262 
L 394.604344 438.642506 
L 396.476741 437.813985 
L 398.34076 436.966782 
L 400.196214 436.100982 
L 402.042918 435.21667 
L 403.880686 434.313936 
L 405.709335 433.39287 
L 407.528682 432.453564 
L 409.338545 431.496111 
L 411.138743 430.520608 
L 412.929097 429.527152 
L 414.709426 428.515843 
L 416.479554 427.486781 
L 418.239302 426.440069 
L 419.988496 425.375813 
L 421.72696 424.294118 
L 423.45452 423.195093 
L 425.171004 422.078848 
L 426.876239 420.945494 
L 428.570056 419.795144 
L 430.252285 418.627914 
L 431.922758 417.443921 
L 433.581307 416.243282 
L 435.227768 415.026118 
L 436.861974 413.79255 
L 438.483764 412.542703 
L 440.092974 411.2767 
L 441.689444 409.994669 
L 443.273014 408.696737 
L 444.843525 407.383035 
L 446.400822 406.053694 
L 447.944747 404.708846 
L 449.475147 403.348627 
L 450.991868 401.973172 
L 452.494759 400.582619 
L 453.98367 399.177107 
L 455.458451 397.756776 
L 456.918956 396.321768 
L 458.365038 394.872228 
L 459.796552 393.408299 
L 461.213356 391.930129 
L 462.615307 390.437865 
L 464.002266 388.931656 
L 465.374093 387.411653 
L 466.730653 385.878008 
L 468.071808 384.330874 
L 469.397425 382.770407 
L 470.707372 381.196761 
L 472.001516 379.610095 
L 473.27973 378.010567 
L 474.541885 376.398337 
L 475.787854 374.773566 
L 477.017514 373.136417 
L 478.230741 371.487054 
L 479.427414 369.825641 
L 480.607414 368.152344 
L 481.770622 366.467331 
L 482.916921 364.770771 
L 484.046199 363.062833 
L 485.15834 361.343687 
L 486.253235 359.613507 
L 487.330773 357.872464 
L 488.390848 356.120732 
L 489.433352 354.358488 
L 490.458183 352.585907 
L 491.465236 350.803167 
L 492.454412 349.010445 
L 493.425612 347.207922 
L 494.378738 345.395776 
L 495.313695 343.574191 
L 496.23039 341.743346 
L 497.128731 339.903427 
L 498.008628 338.054616 
L 498.869994 336.197099 
L 499.712741 334.331062 
L 500.536787 332.45669 
L 501.342047 330.574172 
L 502.128443 328.683695 
L 502.895895 326.785449 
L 503.644326 324.879623 
L 504.373662 322.966409 
L 505.08383 321.045997 
L 505.774758 319.11858 
L 506.446378 317.184349 
L 507.098622 315.2435 
L 507.731426 313.296225 
L 508.344725 311.342719 
L 508.938459 309.383179 
L 509.512569 307.417799 
L 510.066996 305.446776 
L 510.601685 303.470308 
L 511.116584 301.488591 
L 511.61164 299.501825 
L 512.086804 297.510208 
L 512.542028 295.513939 
L 512.977267 293.513217 
L 513.392477 291.508243 
L 513.787618 289.499217 
L 514.162648 287.486341 
L 514.517532 285.469815 
L 514.852232 283.449841 
L 515.166717 281.42662 
L 515.460954 279.400357 
L 515.734914 277.371252 
L 515.98857 275.339509 
L 516.221896 273.305332 
L 516.434868 271.268922 
L 516.627467 269.230485 
L 516.799671 267.190224 
L 516.951465 265.148343 
L 517.082833 263.105046 
L 517.193761 261.060537 
L 517.28424 259.015022 
L 517.354258 256.968704 
L 517.403811 254.921788 
L 517.432892 252.874479 
L 517.441499 250.826981 
L 517.429631 248.7795 
L 517.397289 246.73224 
L 517.344477 244.685406 
L 517.271199 242.639202 
L 517.177463 240.593833 
L 517.063279 238.549504 
L 516.928657 236.506419 
L 516.773611 234.464782 
L 516.598157 232.424798 
L 516.402313 230.38667 
L 516.186097 228.350602 
L 515.949532 226.316799 
L 515.69264 224.285462 
L 515.415449 222.256797 
L 515.117985 220.231004 
L 514.800279 218.208287 
L 514.462361 216.188849 
L 514.104267 214.172891 
L 513.726031 212.160614 
L 513.327691 210.15222 
L 512.909288 208.14791 
L 512.470863 206.147884 
L 512.01246 204.152342 
L 511.534125 202.161484 
L 511.035906 200.175509 
L 510.517852 198.194615 
L 509.980015 196.219001 
L 509.422449 194.248864 
L 508.84521 192.284401 
L 508.248356 190.325808 
L 507.631946 188.373282 
L 506.996042 186.427017 
L 506.340707 184.487209 
L 505.666008 182.554051 
L 504.972011 180.627736 
L 504.258785 178.708458 
L 503.526403 176.796407 
L 502.774938 174.891776 
L 502.004464 172.994755 
L 501.215058 171.105533 
L 500.4068 169.2243 
L 499.579771 167.351243 
L 498.734052 165.48655 
L 497.86973 163.630407 
L 496.986889 161.783 
L 496.085619 159.944514 
L 495.166009 158.115132 
L 494.228152 156.295037 
L 493.272141 154.484412 
L 492.298072 152.683438 
L 491.306042 150.892294 
L 490.29615 149.11116 
L 489.268498 147.340213 
L 488.223188 145.579632 
L 487.160325 143.829591 
L 486.080015 142.090266 
L 484.982366 140.361832 
L 483.867488 138.64446 
L 482.735492 136.938322 
L 481.586492 135.243589 
L 480.420602 133.560432 
L 479.237939 131.889016 
L 478.038621 130.229511 
L 476.822769 128.582082 
L 475.590503 126.946894 
L 474.341948 125.324109 
L 473.077227 123.713892 
L 471.796467 122.116401 
L 470.499797 120.531798 
L 469.187346 118.960241 
L 467.859245 117.401887 
L 466.515628 115.856891 
L 465.156628 114.325409 
L 463.782381 112.807592 
L 462.393025 111.303594 
L 460.988699 109.813565 
L 459.569543 108.337653 
L 458.135699 106.876006 
L 456.68731 105.428771 
L 455.224522 103.996091 
L 453.74748 102.578111 
L 452.256333 101.174971 
L 450.751229 99.786814 
L 449.232319 98.413776 
L 447.699755 97.055996 
L 446.15369 95.713609 
L 444.594278 94.38675 
L 443.021676 93.07555 
L 441.436041 91.780143 
L 439.837531 90.500656 
L 438.226307 89.237217 
L 436.602529 87.989954 
L 434.96636 86.758991 
L 433.317963 85.544451 
L 431.657503 84.346455 
L 429.985147 83.165124 
L 428.301061 82.000574 
L 426.605414 80.852924 
L 424.898376 79.722287 
L 423.180116 78.608777 
L 421.450808 77.512505 
L 419.710624 76.43358 
L 417.959737 75.372111 
L 416.198324 74.328204 
L 414.42656 73.301962 
L 412.644622 72.293489 
L 410.852688 71.302886 
L 409.050939 70.330251 
L 407.239553 69.375683 
L 405.418712 68.439275 
L 403.588599 67.521122 
L 401.749395 66.621316 
L 399.901286 65.739947 
L 398.044455 64.877103 
L 396.179089 64.03287 
L 394.305374 63.207332 
L 392.423498 62.400572 
L 390.533648 61.612672 
L 388.636014 60.843708 
L 386.730785 60.09376 
L 384.818152 59.3629 
L 382.898306 58.651204 
L 380.97144 57.958741 
L 379.037745 57.285581 
L 377.097415 56.631791 
L 375.150645 55.997437 
L 373.197628 55.382582 
L 371.238561 54.787288 
L 369.273639 54.211613 
L 367.303058 53.655617 
L 365.327016 53.119354 
L 363.345711 52.602877 
L 361.359339 52.106239 
L 359.368101 51.62949 
L 357.372195 51.172676 
L 355.371821 50.735844 
L 353.367178 50.319037 
L 351.358468 49.922297 
L 349.34589 49.545663 
L 347.329647 49.189174 
L 345.30994 48.852865 
L 343.286971 48.536769 
L 341.260943 48.240919 
L 339.232057 47.965343 
L 337.200517 47.71007 
L 335.166525 47.475124 
L 333.130286 47.26053 
L 331.092003 47.066308 
L 329.05188 46.892479 
L 327.01012 46.739059 
L 324.966928 46.606064 
L 322.922509 46.493508 
L 320.877066 46.401401 
L 318.830805 46.329752 
L 316.783929 46.27857 
L 314.736644 46.247858 
L 312.689154 46.237621 
L 312.689154 48.285145 
z
" clip-path="url(#pa8075d863c)" style="fill: none; stroke: #000000; stroke-width: 0.5; stroke-linejoin: miter"/>
   </g>
   <g id="patch_5">
    <path d="M 312.689154 453.694918 
L 310.662138 453.684783 
L 308.635326 453.654378 
L 306.608919 453.603707 
L 304.58312 453.532776 
L 302.558132 453.44159 
L 300.534156 453.330159 
L 298.511397 453.198494 
L 296.490055 453.046608 
L 294.470332 452.874517 
L 292.452432 452.682238 
L 290.436556 452.469789 
L 288.422904 452.237193 
L 286.411679 451.984472 
L 284.403082 451.711652 
L 282.397314 451.41876 
L 280.394575 451.105826 
L 278.395065 450.77288 
L 276.398984 450.419955 
L 274.406533 450.047088 
L 272.417909 449.654316 
L 270.433313 449.241677 
L 268.452943 448.809213 
L 266.476996 448.356967 
L 264.50567 447.884985 
L 262.539162 447.393314 
L 260.577669 446.882002 
L 258.621388 446.351102 
L 256.670513 445.800665 
L 254.72524 445.230747 
L 252.785764 444.641406 
L 250.852277 444.0327 
L 248.924975 443.404689 
L 247.004048 442.757437 
L 245.08969 442.091009 
L 243.182092 441.40547 
L 241.281445 440.700891 
L 239.387938 439.97734 
L 237.501762 439.234891 
L 235.623104 438.473617 
L 233.752153 437.693596 
L 231.889095 436.894904 
L 230.034117 436.077621 
L 228.187405 435.24183 
L 226.349143 434.387615 
L 224.519514 433.515059 
L 222.698703 432.624251 
L 220.88689 431.71528 
L 219.084258 430.788236 
L 217.290986 429.843213 
L 215.507254 428.880305 
L 213.73324 427.899608 
L 211.969122 426.90122 
L 210.215075 425.885241 
L 208.471276 424.851772 
L 206.737898 423.800918 
L 205.015116 422.732782 
L 203.3031 421.647473 
L 201.602024 420.545098 
L 199.912056 419.425767 
L 198.233365 418.289593 
L 196.56612 417.13669 
L 194.910487 415.967172 
L 193.266632 414.781156 
L 191.634719 413.578761 
L 190.014912 412.360107 
L 188.407372 411.125317 
L 186.812259 409.874513 
L 185.229735 408.607821 
L 183.659956 407.325367 
L 182.10308 406.02728 
L 180.559263 404.713689 
L 179.028658 403.384726 
L 177.51142 402.040524 
L 176.007699 400.681217 
L 174.517646 399.30694 
L 173.04141 397.917833 
L 171.579139 396.514032 
L 170.130979 395.095679 
L 168.697074 393.662916 
L 167.277569 392.215886 
L 165.872604 390.754733 
L 164.482321 389.279604 
L 163.106859 387.790646 
L 161.746354 386.288008 
L 160.400944 384.77184 
L 159.070763 383.242294 
L 157.755943 381.699523 
L 156.456617 380.143682 
L 155.172913 378.574925 
L 153.904961 376.993409 
L 152.652888 375.399294 
L 151.416817 373.792737 
L 150.196874 372.173901 
L 148.99318 370.542946 
L 147.805856 368.900036 
L 146.63502 367.245335 
L 145.480789 365.579009 
L 144.343278 363.901223 
L 143.222602 362.212147 
L 142.118873 360.511949 
L 141.032201 358.800798 
L 139.962694 357.078867 
L 138.910459 355.346327 
L 137.875602 353.603351 
L 136.858227 351.850114 
L 135.858434 350.086791 
L 134.876325 348.313559 
L 133.911996 346.530594 
L 132.965545 344.738075 
L 132.037067 342.936182 
L 131.126653 341.125094 
L 130.234396 339.304992 
L 129.360383 337.476059 
L 128.504704 335.638478 
L 127.667443 333.792432 
L 126.848683 331.938105 
L 126.048508 330.075684 
L 125.266997 328.205355 
L 124.504227 326.327304 
L 123.760276 324.441719 
L 123.035218 322.548789 
L 122.329125 320.648703 
L 121.642068 318.741652 
L 120.974115 316.827825 
L 120.325334 314.907415 
L 119.695789 312.980613 
L 119.085543 311.047612 
L 118.494657 309.108605 
L 117.923191 307.163787 
L 117.371201 305.213351 
L 116.838743 303.257493 
L 116.325869 301.296408 
L 115.832632 299.330293 
L 115.35908 297.359343 
L 114.905261 295.383757 
L 114.47122 293.403731 
L 114.057001 291.419464 
L 113.662645 289.431154 
L 113.288191 287.439 
L 112.933678 285.443202 
L 112.59914 283.443958 
L 112.28461 281.441468 
L 111.990121 279.435934 
L 111.715702 277.427554 
L 111.461379 275.416531 
L 111.22718 273.403066 
L 111.013126 271.387359 
L 110.81924 269.369613 
L 110.645541 267.350028 
L 110.492045 265.328808 
L 110.35877 263.306153 
L 110.245727 261.282267 
L 110.152929 259.257352 
L 110.080383 257.23161 
L 110.028099 255.205244 
L 109.996081 253.178457 
L 109.984331 251.151451 
L 109.992852 249.124428 
L 110.021643 247.097592 
L 110.0707 245.071145 
L 110.140018 243.045291 
L 110.229592 241.02023 
L 110.339411 238.996167 
L 110.469465 236.973303 
L 110.619741 234.95184 
L 110.790224 232.931982 
L 110.980896 230.913929 
L 111.191739 228.897884 
L 111.422732 226.884048 
L 111.673851 224.872623 
L 111.945071 222.863809 
L 112.236366 220.857808 
L 112.547705 218.85482 
L 112.879059 216.855046 
L 113.230394 214.858685 
L 113.601674 212.865937 
L 113.992863 210.877002 
L 114.403921 208.892077 
L 114.834808 206.911363 
L 115.28548 204.935056 
L 115.755892 202.963355 
L 116.245997 200.996457 
L 116.755747 199.034558 
L 117.28509 197.077854 
L 117.833973 195.126542 
L 118.402341 193.180815 
L 118.990138 191.24087 
L 119.597304 189.3069 
L 120.22378 187.379097 
L 120.869502 185.457656 
L 121.534405 183.542768 
L 122.218424 181.634625 
L 122.92149 179.733417 
L 123.643533 177.839335 
L 124.38448 175.952568 
L 125.144257 174.073304 
L 125.922789 172.201732 
L 126.719997 170.338039 
L 127.535802 168.482411 
L 128.370122 166.635034 
L 129.222874 164.796092 
L 130.093972 162.965769 
L 130.983329 161.144249 
L 131.890858 159.331714 
L 132.816465 157.528344 
L 133.76006 155.73432 
L 134.721548 153.949821 
L 135.700832 152.175027 
L 136.697815 150.410114 
L 137.712397 148.655259 
L 138.744476 146.910637 
L 139.79395 145.176423 
L 140.860713 143.452791 
L 141.944659 141.739912 
L 143.045679 140.037958 
L 144.163663 138.347099 
L 145.2985 136.667504 
L 146.450076 134.999342 
L 147.618275 133.342778 
L 148.802982 131.697979 
L 150.004077 130.065109 
L 151.22144 128.444332 
L 152.45495 126.835809 
L 153.704483 125.239701 
L 154.969914 123.656168 
L 156.251118 122.085369 
L 157.547965 120.52746 
L 158.860326 118.982597 
L 160.188069 117.450934 
L 161.531063 115.932626 
L 162.889172 114.427823 
L 164.262262 112.936676 
L 165.650194 111.459335 
L 167.052829 109.995946 
L 168.470028 108.546657 
L 169.901649 107.111612 
L 171.347549 105.690954 
L 172.807582 104.284827 
L 174.281604 102.893369 
L 175.769466 101.516722 
L 177.27102 100.155021 
L 178.786116 98.808404 
L 180.314602 97.477005 
L 181.856325 96.160957 
L 183.411132 94.860392 
L 184.978866 93.57544 
L 186.559371 92.306229 
L 188.152489 91.052886 
L 189.758061 89.815537 
L 191.375925 88.594306 
L 193.005921 87.389313 
L 194.647885 86.200681 
L 196.301653 85.028527 
L 197.96706 83.87297 
L 199.643939 82.734124 
L 201.332122 81.612103 
L 203.031441 80.50702 
L 204.741726 79.418985 
L 206.462805 78.348107 
L 208.194506 77.294494 
L 209.936658 76.258249 
L 211.689084 75.239478 
L 213.45161 74.238282 
L 215.22406 73.25476 
L 217.006256 72.289012 
L 218.798021 71.341134 
L 220.599174 70.411221 
L 222.409537 69.499365 
L 224.228927 68.605659 
L 226.057163 67.73019 
L 227.894063 66.873048 
L 229.739442 66.034317 
L 231.593115 65.214081 
L 233.454899 64.412423 
L 235.324605 63.629422 
L 237.202049 62.865158 
L 239.08704 62.119705 
L 240.979392 61.39314 
L 242.878915 60.685534 
L 244.785419 59.996959 
L 246.698713 59.327482 
L 248.618606 58.677172 
L 250.544906 58.046092 
L 252.47742 57.434307 
L 254.415956 56.841878 
L 256.360318 56.268863 
L 258.310314 55.71532 
L 260.265748 55.181304 
L 262.226423 54.666869 
L 264.192145 54.172066 
L 266.162717 53.696945 
L 268.137941 53.241553 
L 270.117621 52.805936 
L 272.101557 52.390137 
L 274.089552 51.994198 
L 276.081408 51.618158 
L 278.076923 51.262055 
L 280.075901 50.925925 
L 282.078139 50.609801 
L 284.083438 50.313714 
L 286.091598 50.037696 
L 288.102418 49.781772 
L 290.115696 49.545969 
L 292.131232 49.330311 
L 294.148824 49.134818 
L 296.168269 48.95951 
L 298.189367 48.804406 
L 300.211914 48.669519 
L 302.23571 48.554865 
L 304.26055 48.460454 
L 306.286234 48.386296 
L 308.312557 48.332398 
L 310.339319 48.298765 
L 312.366315 48.285402 
L 312.689154 48.285145 
L 312.689154 46.237621 
L 312.363054 46.23788 
L 310.315583 46.251379 
L 308.268349 46.285351 
L 306.221558 46.339793 
L 304.175413 46.414701 
L 302.130119 46.510065 
L 300.085882 46.625878 
L 298.042904 46.762127 
L 296.001392 46.918798 
L 293.961548 47.095876 
L 291.923576 47.293344 
L 289.887682 47.511181 
L 287.854067 47.749366 
L 285.822936 48.007874 
L 283.794492 48.286681 
L 281.768937 48.585758 
L 279.746474 48.905075 
L 277.727305 49.2446 
L 275.711632 49.6043 
L 273.699657 49.984139 
L 271.691582 50.384077 
L 269.687605 50.804076 
L 267.687929 51.244094 
L 265.692753 51.704086 
L 263.702277 52.184006 
L 261.716699 52.683807 
L 259.736218 53.203438 
L 257.761033 53.742848 
L 255.79134 54.301982 
L 253.827338 54.880785 
L 251.869221 55.479199 
L 249.917186 56.097164 
L 247.971428 56.734618 
L 246.032143 57.391497 
L 244.099522 58.067736 
L 242.173761 58.763266 
L 240.255051 59.47802 
L 238.343585 60.211924 
L 236.439553 60.964907 
L 234.543145 61.736891 
L 232.654553 62.527801 
L 230.773964 63.337556 
L 228.901566 64.166077 
L 227.037547 65.01328 
L 225.182093 65.879081 
L 223.335389 66.763392 
L 221.497621 67.666126 
L 219.668972 68.587192 
L 217.849625 69.526499 
L 216.039762 70.483951 
L 214.239564 71.459454 
L 212.449211 72.45291 
L 210.668881 73.46422 
L 208.898754 74.493282 
L 207.139005 75.539993 
L 205.389811 76.60425 
L 203.651347 77.685944 
L 201.923787 78.784969 
L 200.207304 79.901215 
L 198.502068 81.034569 
L 196.808251 82.184918 
L 195.126022 83.352148 
L 193.455549 84.536142 
L 191.797 85.736781 
L 190.150539 86.953945 
L 188.516333 88.187512 
L 186.894543 89.43736 
L 185.285333 90.703362 
L 183.688863 91.985394 
L 182.105293 93.283325 
L 180.534782 94.597027 
L 178.977485 95.926369 
L 177.43356 97.271216 
L 175.90316 98.631435 
L 174.386439 100.00689 
L 172.883548 101.397444 
L 171.394637 102.802956 
L 169.919856 104.223287 
L 168.459351 105.658294 
L 167.013269 107.107835 
L 165.581755 108.571763 
L 164.164952 110.049934 
L 162.763 111.542198 
L 161.376041 113.048407 
L 160.004214 114.56841 
L 158.647654 116.102055 
L 157.306499 117.649188 
L 155.980882 119.209656 
L 154.670936 120.783302 
L 153.376791 122.369968 
L 152.098577 123.969496 
L 150.836422 125.581726 
L 149.590453 127.206496 
L 148.360793 128.843645 
L 147.147566 130.493009 
L 145.950893 132.154422 
L 144.770893 133.827718 
L 143.607686 135.512731 
L 142.461386 137.209291 
L 141.332109 138.91723 
L 140.219967 140.636375 
L 139.125072 142.366556 
L 138.047534 144.107599 
L 136.987459 145.85933 
L 135.944955 147.621574 
L 134.920125 149.394155 
L 133.913071 151.176896 
L 132.923895 152.969617 
L 131.952696 154.772141 
L 130.999569 156.584286 
L 130.064612 158.405872 
L 129.147917 160.236716 
L 128.249576 162.076636 
L 127.369679 163.925446 
L 126.508313 165.782963 
L 125.665566 167.649001 
L 124.841521 169.523373 
L 124.03626 171.405891 
L 123.249864 173.296368 
L 122.482412 175.194614 
L 121.733981 177.100439 
L 121.004645 179.013653 
L 120.294478 180.934065 
L 119.603549 182.861483 
L 118.931929 184.795713 
L 118.279685 186.736563 
L 117.646881 188.683838 
L 117.033582 190.637343 
L 116.439848 192.596884 
L 115.865738 194.562264 
L 115.311311 196.533287 
L 114.776622 198.509755 
L 114.261723 200.491471 
L 113.766667 202.478237 
L 113.291503 204.469855 
L 112.836279 206.466124 
L 112.40104 208.466846 
L 111.98583 210.471819 
L 111.590689 212.480845 
L 111.215659 214.493722 
L 110.860775 216.510248 
L 110.526075 218.530222 
L 110.21159 220.553442 
L 109.917353 222.579706 
L 109.643393 224.60881 
L 109.389737 226.640553 
L 109.156412 228.674731 
L 108.943439 230.71114 
L 108.750841 232.749577 
L 108.578636 234.789839 
L 108.426842 236.83172 
L 108.295474 238.875017 
L 108.184546 240.919525 
L 108.094068 242.965041 
L 108.024049 245.011359 
L 107.974496 247.058275 
L 107.945415 249.105584 
L 107.936808 251.153081 
L 107.948676 253.200562 
L 107.981018 255.247822 
L 108.03383 257.294657 
L 108.107108 259.340861 
L 108.200844 261.386229 
L 108.315029 263.430559 
L 108.44965 265.473644 
L 108.604696 267.515281 
L 108.78015 269.555265 
L 108.975994 271.593393 
L 109.19221 273.62946 
L 109.428776 275.663264 
L 109.685667 277.6946 
L 109.962858 279.723266 
L 110.260322 281.749058 
L 110.578028 283.771775 
L 110.915946 285.791214 
L 111.27404 287.807172 
L 111.652276 289.819449 
L 112.050616 291.827842 
L 112.469019 293.832153 
L 112.907444 295.832178 
L 113.365847 297.82772 
L 113.844182 299.818578 
L 114.342402 301.804553 
L 114.860456 303.785447 
L 115.398292 305.761061 
L 115.955858 307.731198 
L 116.533097 309.695662 
L 117.129951 311.654254 
L 117.746361 313.60678 
L 118.382265 315.553045 
L 119.0376 317.492853 
L 119.712299 319.426012 
L 120.406296 321.352326 
L 121.119522 323.271605 
L 121.851904 325.183655 
L 122.603369 327.088286 
L 123.373844 328.985307 
L 124.163249 330.874529 
L 124.971507 332.755763 
L 125.798536 334.62882 
L 126.644255 336.493513 
L 127.508578 338.349655 
L 128.391418 340.197062 
L 129.292688 342.035549 
L 130.212298 343.864931 
L 131.150155 345.685025 
L 132.106166 347.49565 
L 133.080236 349.296625 
L 134.072266 351.087769 
L 135.082157 352.868903 
L 136.109809 354.639849 
L 137.155119 356.400431 
L 138.217982 358.150471 
L 139.298292 359.889796 
L 140.395941 361.618231 
L 141.510819 363.335603 
L 142.642815 365.041741 
L 143.791815 366.736473 
L 144.957705 368.419631 
L 146.140368 370.091046 
L 147.339686 371.750551 
L 148.555538 373.39798 
L 149.787804 375.033169 
L 151.03636 376.655953 
L 152.30108 378.266171 
L 153.58184 379.863661 
L 154.87851 381.448264 
L 156.190961 383.019821 
L 157.519062 384.578176 
L 158.862679 386.123171 
L 160.22168 387.654654 
L 161.595926 389.17247 
L 162.985282 390.676468 
L 164.389609 392.166498 
L 165.808765 393.64241 
L 167.242609 395.104056 
L 168.690997 396.551292 
L 170.153785 397.983972 
L 171.630827 399.401952 
L 173.121974 400.805091 
L 174.627078 402.193249 
L 176.145988 403.566287 
L 177.678552 404.924067 
L 179.224618 406.266454 
L 180.784029 407.593313 
L 182.356631 408.904512 
L 183.942266 410.19992 
L 185.540776 411.479407 
L 187.152 412.742845 
L 188.775778 413.990108 
L 190.411947 415.221071 
L 192.060344 416.435612 
L 193.720804 417.633607 
L 195.39316 418.814939 
L 197.077246 419.979488 
L 198.772893 421.127138 
L 200.479931 422.257775 
L 202.198191 423.371285 
L 203.927499 424.467558 
L 205.667683 425.546482 
L 207.41857 426.607951 
L 209.179983 427.651859 
L 210.951748 428.6781 
L 212.733685 429.686573 
L 214.525619 430.677176 
L 216.327368 431.649811 
L 218.138754 432.60438 
L 219.959595 433.540788 
L 221.789708 434.45894 
L 223.628912 435.358746 
L 225.477021 436.240115 
L 227.333852 437.10296 
L 229.199218 437.947193 
L 231.072933 438.772731 
L 232.954809 439.57949 
L 234.844659 440.367391 
L 236.742293 441.136354 
L 238.647522 441.886303 
L 240.560155 442.617162 
L 242.480001 443.328859 
L 244.406868 444.021322 
L 246.340562 444.694482 
L 248.280892 445.348271 
L 250.227662 445.982625 
L 252.180679 446.59748 
L 254.139746 447.192775 
L 256.104668 447.768449 
L 258.075249 448.324446 
L 260.051291 448.860709 
L 262.032596 449.377185 
L 264.018968 449.873823 
L 266.010206 450.350573 
L 268.006112 450.807387 
L 270.006487 451.244219 
L 272.011129 451.661026 
L 274.01984 452.057766 
L 276.032417 452.434399 
L 278.04866 452.790888 
L 280.068367 453.127197 
L 282.091336 453.443293 
L 284.117364 453.739144 
L 286.14625 454.014719 
L 288.177791 454.269993 
L 290.211782 454.504938 
L 292.248021 454.719533 
L 294.286304 454.913754 
L 296.326427 455.087584 
L 298.368187 455.241003 
L 300.411379 455.373998 
L 302.455798 455.486555 
L 304.501241 455.578662 
L 306.547503 455.65031 
L 308.594378 455.701493 
L 310.641664 455.732204 
L 312.689154 455.742442 
L 312.689154 453.694918 
z
" clip-path="url(#pa8075d863c)" style="fill: none; stroke: #000000; stroke-width: 0.5; stroke-linejoin: miter"/>
   </g>
   <g id="text_1">
    <text style="font: 3px 'DejaVu Sans', 'Bitstream Vera Sans', 'Computer Modern Sans Serif', 'Lucida Grande', 'Verdana', 'Geneva', 'Lucid', 'Arial', 'Helvetica', 'Avant Garde', sans-serif; text-anchor: start" x="519.489088" y="252.189797" transform="rotate(-0 519.489088 252.189797)">Universit des Sciences et Techniques de Masuku</text>
   </g>
   <g id="text_2">
    <text style="font: 3px 'DejaVu Sans', 'Bitstream Vera Sans', 'Computer Modern Sans Serif', 'Lucida Grande', 'Verdana', 'Geneva', 'Lucid', 'Arial', 'Helvetica', 'Avant Garde', sans-serif; text-anchor: end" x="105.889219" y="252.129797" transform="rotate(-0 105.889219 252.129797)">Centre de Recherche Mdicales de Lambarn</text>
   </g>
  </g>
 </g>
 <defs>
  <clipPath id="pa8075d863c">
   <path d="M 527.679185 250.990031 
C 527.679185 222.757799 522.118051 194.80009 511.314043 168.716908 
C 500.510036 142.633727 484.673265 118.932325 464.710063 98.969122 
C 444.74686 79.005919 421.045458 63.169149 394.962277 52.365142 
C 368.879095 41.561134 340.921386 36 312.689154 36 
C 284.456921 36 256.499212 41.561134 230.41603 52.365142 
C 204.332849 63.169149 180.631447 79.005919 160.668245 98.969122 
C 140.705042 118.932325 124.868272 142.633727 114.064264 168.716908 
C 103.260256 194.80009 97.699122 222.757799 97.699122 250.990031 
C 97.699122 279.222263 103.260256 307.179973 114.064264 333.263154 
C 124.868272 359.346336 140.705042 383.047737 160.668245 403.01094 
C 180.631447 422.974143 204.332849 438.810913 230.41603 449.614921 
C 256.499212 460.418928 284.456921 465.980062 312.689154 465.980062 
C 340.921386 465.980062 368.879095 460.418928 394.962277 449.614921 
C 421.045458 438.810913 444.74686 422.974143 464.710063 403.01094 
C 484.673265 383.047737 500.510036 359.346336 511.314043 333.263154 
C 522.118051 307.179973 527.679185 279.222263 527.679185 250.990031 
M 312.689154 250.990031 
C 312.689154 250.990031 312.689154 250.990031 312.689154 250.990031 
C 312.689154 250.990031 312.689154 250.990031 312.689154 250.990031 
C 312.689154 250.990031 312.689154 250.990031 312.689154 250.990031 
C 312.689154 250.990031 312.689154 250.990031 312.689154 250.990031 
C 312.689154 250.990031 312.689154 250.990031 312.689154 250.990031 
C 312.689154 250.990031 312.689154 250.990031 312.689154 250.990031 
C 312.689154 250.990031 312.689154 250.990031 312.689154 250.990031 
C 312.689154 250.990031 312.689154 250.990031 312.689154 250.990031 
C 312.689154 250.990031 312.689154 250.990031 312.689154 250.990031 
C 312.689154 250.990031 312.689154 250.990031 312.689154 250.990031 
C 312.689154 250.990031 312.689154 250.990031 312.689154 250.990031 
C 312.689154 250.990031 312.689154 250.990031 312.689154 250.990031 
C 312.689154 250.990031 312.689154 250.990031 312.689154 250.990031 
C 312.689154 250.990031 312.689154 250.990031 312.689154 250.990031 
C 312.689154 250.990031 312.689154 250.990031 312.689154 250.990031 
C 312.689154 250.990031 312.689154 250.990031 312.689154 250.990031 
z
"/>
  </clipPath>
 </defs>
</svg>
