<?xml version="1.0" encoding="utf-8" standalone="no"?>
<!DOCTYPE svg PUBLIC "-//W3C//DTD SVG 1.1//EN"
  "http://www.w3.org/Graphics/SVG/1.1/DTD/svg11.dtd">
<svg xmlns:xlink="http://www.w3.org/1999/xlink" width="628.148236pt" height="545.228812pt" viewBox="0 0 628.148236 545.228812" xmlns="http://www.w3.org/2000/svg" version="1.1">
 <metadata>
  <rdf:RDF xmlns:dc="http://purl.org/dc/elements/1.1/" xmlns:cc="http://creativecommons.org/ns#" xmlns:rdf="http://www.w3.org/1999/02/22-rdf-syntax-ns#">
   <cc:Work>
    <dc:type rdf:resource="http://purl.org/dc/dcmitype/StillImage"/>
    <dc:date>2024-11-16T04:18:54.975348</dc:date>
    <dc:format>image/svg+xml</dc:format>
    <dc:creator>
     <cc:Agent>
      <dc:title>Matplotlib v3.8.4, https://matplotlib.org/</dc:title>
     </cc:Agent>
    </dc:creator>
   </cc:Work>
  </rdf:RDF>
 </metadata>
 <defs>
  <style type="text/css">*{stroke-linejoin: round; stroke-linecap: butt}</style>
 </defs>
 <g id="figure_1">
  <g id="patch_1">
   <path d="M 0 545.228812 
L 628.148236 545.228812 
L 628.148236 0 
L 0 0 
z
" style="fill: #ffffff"/>
  </g>
  <g id="axes_1">
   <g id="patch_2">
    <path d="M 308.183337 49.520823 
L 310.414235 49.531978 
L 312.644911 49.56544 
L 314.87514 49.621208 
L 317.1047 49.699274 
L 319.333369 49.799632 
L 321.560922 49.922271 
L 323.787137 50.067179 
L 326.011792 50.234342 
L 328.234664 50.423743 
L 330.455531 50.635362 
L 332.674171 50.869179 
L 334.890362 51.12517 
L 337.103882 51.403311 
L 339.31451 51.703572 
L 341.522025 52.025924 
L 343.726206 52.370334 
L 345.926833 52.736769 
L 348.123686 53.125192 
L 350.316544 53.535563 
L 352.505189 53.967842 
L 354.689403 54.421985 
L 356.868965 54.897948 
L 359.043659 55.395682 
L 361.213267 55.915137 
L 363.377572 56.456262 
L 365.536358 57.019003 
L 367.689409 57.603304 
L 369.836508 58.209105 
L 371.977443 58.836347 
L 374.111998 59.484966 
L 376.239961 60.154898 
L 378.361118 60.846076 
L 380.475257 61.55843 
L 382.582167 62.29189 
L 384.681637 63.046382 
L 386.773458 63.821831 
L 388.857419 64.618158 
L 390.933313 65.435285 
L 393.000932 66.27313 
L 395.06007 67.131609 
L 397.11052 68.010636 
L 399.152077 68.910123 
L 401.184538 69.82998 
L 403.207698 70.770116 
L 405.221356 71.730436 
L 407.22531 72.710844 
L 409.219361 73.711242 
L 411.203307 74.731531 
L 413.176952 75.771607 
L 415.140098 76.831368 
L 417.092548 77.910707 
L 419.034107 79.009516 
L 420.964581 80.127685 
L 422.883777 81.265103 
L 424.791503 82.421656 
L 426.687569 83.597228 
L 428.571784 84.791701 
L 430.44396 86.004957 
L 432.303911 87.236873 
L 434.151449 88.487327 
L 435.986391 89.756193 
L 437.808552 91.043345 
L 439.617752 92.348654 
L 441.413807 93.67199 
L 443.19654 95.013219 
L 444.965772 96.372209 
L 446.721325 97.748822 
L 448.463025 99.142922 
L 450.190697 100.554369 
L 451.904169 101.983022 
L 453.603268 103.428738 
L 455.287826 104.891372 
L 456.957673 106.370779 
L 458.612643 107.86681 
L 460.25257 109.379315 
L 461.87729 110.908144 
L 463.486641 112.453143 
L 465.080462 114.014158 
L 466.658593 115.591033 
L 468.220877 117.18361 
L 469.767157 118.79173 
L 471.297279 120.415233 
L 472.81109 122.053955 
L 474.308438 123.707733 
L 475.789174 125.376401 
L 477.253149 127.059794 
L 478.700218 128.757741 
L 480.130235 130.470075 
L 481.543057 132.196622 
L 482.938544 133.937211 
L 484.316555 135.691668 
L 485.676953 137.459817 
L 487.019601 139.241481 
L 488.344367 141.036483 
L 489.651116 142.844642 
L 490.939719 144.665778 
L 492.210046 146.499708 
L 493.461971 148.34625 
L 494.695368 150.205219 
L 495.910114 152.076429 
L 497.106087 153.959692 
L 498.283168 155.854821 
L 499.44124 157.761626 
L 500.580186 159.679915 
L 501.699892 161.609498 
L 502.800247 163.550182 
L 503.88114 165.501772 
L 504.942464 167.464073 
L 505.984112 169.436889 
L 507.00598 171.420022 
L 508.007966 173.413275 
L 508.989969 175.416448 
L 509.951892 177.429341 
L 510.893639 179.451752 
L 511.815115 181.483479 
L 512.716227 183.52432 
L 513.596887 185.574069 
L 514.457005 187.632522 
L 515.296496 189.699474 
L 516.115276 191.774716 
L 516.913263 193.858043 
L 517.690377 195.949245 
L 518.44654 198.048114 
L 519.181678 200.154439 
L 519.895716 202.268011 
L 520.588582 204.388616 
L 521.260209 206.516045 
L 521.910527 208.650083 
L 522.539474 210.790517 
L 523.146985 212.937134 
L 523.732999 215.089719 
L 524.297459 217.248056 
L 524.840308 219.411929 
L 525.361491 221.581123 
L 525.860957 223.75542 
L 526.338654 225.934603 
L 526.794537 228.118453 
L 527.228559 230.306754 
L 527.640676 232.499285 
L 528.030848 234.695827 
L 528.399035 236.896162 
L 528.745201 239.100068 
L 529.069311 241.307325 
L 529.371332 243.517714 
L 529.651235 245.731012 
L 529.908991 247.946998 
L 530.144575 250.165451 
L 530.357962 252.386149 
L 530.549133 254.608869 
L 530.718067 256.83339 
L 530.864748 259.05949 
L 530.989161 261.286944 
L 531.091294 263.515532 
L 531.171135 265.745029 
L 531.228679 267.975214 
L 531.263918 270.205862 
L 531.276849 272.436751 
L 531.267471 274.667658 
L 531.235785 276.898359 
L 531.181793 279.128632 
L 531.105502 281.358254 
L 531.006919 283.587001 
L 530.886054 285.814651 
L 530.742919 288.040981 
L 530.577528 290.265769 
L 530.389897 292.488791 
L 530.180047 294.709826 
L 529.947996 296.928651 
L 529.69377 299.145045 
L 529.417392 301.358786 
L 529.118892 303.569653 
L 528.798298 305.777424 
L 528.455642 307.981878 
L 528.09096 310.182796 
L 527.704287 312.379957 
L 527.295662 314.573142 
L 526.865126 316.762131 
L 526.412723 318.946705 
L 525.938496 321.126646 
L 525.442494 323.301736 
L 524.924766 325.471757 
L 524.385365 327.636492 
L 523.824343 329.795725 
L 523.241757 331.94924 
L 522.637666 334.096822 
L 522.012129 336.238255 
L 521.36521 338.373326 
L 520.696973 340.501822 
L 520.007484 342.623528 
L 519.296814 344.738234 
L 518.565032 346.845728 
L 517.812212 348.945798 
L 517.03843 351.038235 
L 516.243762 353.12283 
L 515.428288 355.199374 
L 514.59209 357.26766 
L 513.735251 359.327481 
L 512.857857 361.37863 
L 511.959996 363.420903 
L 511.041758 365.454095 
L 510.103233 367.478004 
L 509.144517 369.492426 
L 508.165705 371.49716 
L 507.166895 373.492006 
L 506.148187 375.476765 
L 505.109682 377.451237 
L 504.051485 379.415226 
L 502.973701 381.368535 
L 501.876439 383.310969 
L 500.759807 385.242333 
L 499.623918 387.162434 
L 498.468885 389.07108 
L 497.294823 390.968081 
L 496.101851 392.853247 
L 494.890086 394.726389 
L 493.659652 396.58732 
L 492.41067 398.435854 
L 491.143265 400.271805 
L 489.857564 402.094991 
L 488.553696 403.905229 
L 487.231791 405.702338 
L 485.891982 407.486139 
L 484.534402 409.256452 
L 483.159187 411.013101 
L 481.766474 412.755911 
L 480.356403 414.484706 
L 478.929115 416.199314 
L 477.484753 417.899565 
L 476.023461 419.585286 
L 474.545384 421.256311 
L 473.050672 422.912472 
L 471.539473 424.553603 
L 470.011939 426.17954 
L 468.468222 427.790121 
L 466.908476 429.385184 
L 465.332858 430.964571 
L 463.741526 432.528122 
L 462.134637 434.075683 
L 460.512354 435.607097 
L 458.874838 437.122212 
L 457.222253 438.620877 
L 455.554764 440.102941 
L 453.872538 441.568256 
L 452.175743 443.016676 
L 450.464549 444.448056 
L 448.739127 445.862253 
L 446.99965 447.259125 
L 445.246291 448.638533 
L 443.479226 450.000339 
L 441.698632 451.344406 
L 439.904686 452.6706 
L 438.097568 453.978789 
L 436.277458 455.268842 
L 434.44454 456.540629 
L 432.598995 457.794024 
L 430.741009 459.0289 
L 428.870768 460.245136 
L 426.988457 461.442609 
L 425.094266 462.621199 
L 423.188385 463.780789 
L 421.271003 464.921262 
L 419.342312 466.042504 
L 417.402505 467.144404 
L 415.451777 468.226851 
L 413.490321 469.289737 
L 411.518336 470.332956 
L 409.536016 471.356403 
L 407.543562 472.359975 
L 405.541171 473.343574 
L 403.529045 474.3071 
L 401.507385 475.250456 
L 399.476392 476.17355 
L 397.43627 477.076287 
L 395.387222 477.958579 
L 393.329455 478.820336 
L 391.263173 479.661472 
L 389.188583 480.481905 
L 387.105892 481.28155 
L 385.015309 482.06033 
L 382.917043 482.818164 
L 380.811304 483.554979 
L 378.698302 484.270699 
L 376.578249 484.965255 
L 374.451356 485.638575 
L 372.317836 486.290593 
L 370.177903 486.921243 
L 368.031771 487.530464 
L 365.879654 488.118192 
L 363.721767 488.684371 
L 361.558327 489.228942 
L 359.389549 489.751853 
L 357.21565 490.253049 
L 355.036848 490.732483 
L 352.853361 491.190104 
L 350.665407 491.625868 
L 348.473205 492.039731 
L 346.276974 492.431652 
L 344.076933 492.801591 
L 341.873304 493.149512 
L 339.666305 493.475379 
L 337.456158 493.779161 
L 335.243083 494.060826 
L 333.027303 494.320347 
L 330.809039 494.557697 
L 328.588511 494.772853 
L 326.365944 494.965794 
L 324.141558 495.136499 
L 321.915576 495.284953 
L 319.688221 495.41114 
L 317.459716 495.515047 
L 315.230283 495.596664 
L 313.000145 495.655983 
L 310.769525 495.692999 
L 308.538647 495.707706 
L 308.183337 495.707989 
L 308.183337 497.96146 
L 308.542236 497.961174 
L 310.795648 497.946318 
L 313.048799 497.908929 
L 315.301464 497.84901 
L 317.553416 497.766568 
L 319.804432 497.661612 
L 322.054285 497.53415 
L 324.302752 497.384197 
L 326.549606 497.211768 
L 328.794624 497.016878 
L 331.037581 496.799549 
L 333.278252 496.559801 
L 335.516414 496.297659 
L 337.751843 496.013148 
L 339.984315 495.706298 
L 342.213606 495.377139 
L 344.439495 495.025704 
L 346.661758 494.652028 
L 348.880173 494.256149 
L 351.094519 493.838105 
L 353.304574 493.397939 
L 355.510116 492.935695 
L 357.710926 492.45142 
L 359.906783 491.94516 
L 362.097468 491.416968 
L 364.282761 490.866896 
L 366.462445 490.294998 
L 368.636301 489.701333 
L 370.804111 489.085959 
L 372.96566 488.448938 
L 375.12073 487.790334 
L 377.269106 487.110213 
L 379.410575 486.408642 
L 381.54492 485.685692 
L 383.671929 484.941435 
L 385.79139 484.175945 
L 387.903089 483.389299 
L 390.006817 482.581576 
L 392.102363 481.752857 
L 394.189517 480.903224 
L 396.26807 480.032762 
L 398.337815 479.141559 
L 400.398544 478.229703 
L 402.450052 477.297285 
L 404.492133 476.3444 
L 406.524584 475.371141 
L 408.5472 474.377608 
L 410.559781 473.363898 
L 412.562123 472.330113 
L 414.554028 471.276357 
L 416.535296 470.202734 
L 418.505729 469.109353 
L 420.46513 467.996323 
L 422.413302 466.863755 
L 424.350052 465.711762 
L 426.275185 464.540459 
L 428.188509 463.349964 
L 430.089833 462.140396 
L 431.978966 460.911875 
L 433.855719 459.664525 
L 435.719906 458.398469 
L 437.571338 457.113836 
L 439.409833 455.810753 
L 441.235204 454.48935 
L 443.047271 453.14976 
L 444.845851 451.792116 
L 446.630765 450.416555 
L 448.401835 449.023214 
L 450.158883 447.612232 
L 451.901733 446.18375 
L 453.630212 444.737912 
L 455.344146 443.274861 
L 457.043364 441.794744 
L 458.727696 440.29771 
L 460.396974 438.783907 
L 462.051031 437.253488 
L 463.689701 435.706605 
L 465.31282 434.143413 
L 466.920227 432.564067 
L 468.51176 430.968728 
L 470.087261 429.357552 
L 471.646571 427.730703 
L 473.189535 426.088342 
L 474.715999 424.430634 
L 476.225809 422.757745 
L 477.718815 421.069841 
L 479.194868 419.367091 
L 480.65382 417.649667 
L 482.095525 415.917739 
L 483.519839 414.171481 
L 484.926619 412.411068 
L 486.315726 410.636675 
L 487.687019 408.848479 
L 489.040362 407.046661 
L 490.375619 405.231399 
L 491.692657 403.402876 
L 492.991345 401.561274 
L 494.271552 399.706777 
L 495.53315 397.839572 
L 496.776013 395.959843 
L 498.000018 394.067781 
L 499.20504 392.163573 
L 500.390961 390.24741 
L 501.557661 388.319485 
L 502.705024 386.379988 
L 503.832935 384.429116 
L 504.941281 382.467062 
L 506.029951 380.494022 
L 507.098837 378.510195 
L 508.147832 376.515779 
L 509.17683 374.510972 
L 510.185729 372.495976 
L 511.174428 370.470992 
L 512.142828 368.436222 
L 513.090833 366.39187 
L 514.018346 364.33814 
L 514.925277 362.275238 
L 515.811533 360.20337 
L 516.677027 358.122743 
L 517.521671 356.033566 
L 518.345382 353.936047 
L 519.148077 351.830395 
L 519.929676 349.716822 
L 520.6901 347.595539 
L 521.429273 345.466758 
L 522.147122 343.330691 
L 522.843575 341.187553 
L 523.518562 339.037558 
L 524.172016 336.88092 
L 524.803871 334.717856 
L 525.414064 332.548582 
L 526.002535 330.373314 
L 526.569223 328.192271 
L 527.114074 326.005669 
L 527.637031 323.813729 
L 528.138043 321.616669 
L 528.61706 319.414708 
L 529.074033 317.208068 
L 529.508918 314.996968 
L 529.92167 312.78163 
L 530.312249 310.562275 
L 530.680615 308.339125 
L 531.026732 306.112404 
L 531.350564 303.882332 
L 531.65208 301.649133 
L 531.931249 299.413031 
L 532.188043 297.17425 
L 532.422438 294.933012 
L 532.634408 292.689542 
L 532.823934 290.444065 
L 532.990995 288.196805 
L 533.135576 285.947987 
L 533.257662 283.697836 
L 533.357241 281.446576 
L 533.434303 279.194433 
L 533.48884 276.941631 
L 533.520846 274.688398 
L 533.530319 272.434956 
L 533.517257 270.181533 
L 533.481662 267.928353 
L 533.423538 265.675642 
L 533.342889 263.423624 
L 533.239725 261.172526 
L 533.114055 258.922571 
L 532.965893 256.673986 
L 532.795252 254.426995 
L 532.602151 252.181823 
L 532.386607 249.938694 
L 532.148644 247.697832 
L 531.888284 245.459462 
L 531.605554 243.223808 
L 531.300482 240.991092 
L 530.973098 238.761539 
L 530.623436 236.535371 
L 530.25153 234.312811 
L 529.857417 232.094082 
L 529.441137 229.879404 
L 529.002731 227.668999 
L 528.542244 225.463089 
L 528.05972 223.261895 
L 527.55521 221.065635 
L 527.028762 218.87453 
L 526.48043 216.688799 
L 525.910269 214.508661 
L 525.318335 212.334333 
L 524.704687 210.166034 
L 524.069388 208.003979 
L 523.4125 205.848385 
L 522.73409 203.699467 
L 522.034224 201.557441 
L 521.312974 199.422521 
L 520.570411 197.294919 
L 519.80661 195.17485 
L 519.021646 193.062524 
L 518.215598 190.958154 
L 517.388548 188.861949 
L 516.540577 186.774119 
L 515.671771 184.694874 
L 514.782216 182.62442 
L 513.872001 180.562965 
L 512.941218 178.510715 
L 511.989959 176.467876 
L 511.018319 174.434651 
L 510.026396 172.411244 
L 509.014289 170.397857 
L 507.982099 168.394692 
L 506.92993 166.401948 
L 505.857886 164.419826 
L 504.766074 162.448523 
L 503.654605 160.488237 
L 502.523588 158.539163 
L 501.373138 156.601496 
L 500.203369 154.675431 
L 499.014398 152.76116 
L 497.806344 150.858874 
L 496.579328 148.968763 
L 495.333472 147.091017 
L 494.068902 145.225823 
L 492.785743 143.373367 
L 491.484124 141.533836 
L 490.164175 139.707413 
L 488.826028 137.89428 
L 487.469817 136.094619 
L 486.095678 134.30861 
L 484.703748 132.536431 
L 483.294165 130.778261 
L 481.867072 129.034273 
L 480.422611 127.304644 
L 478.960925 125.589545 
L 477.482162 123.889149 
L 475.98647 122.203625 
L 474.473997 120.533142 
L 472.944895 118.877867 
L 471.399317 117.237966 
L 469.837418 115.613602 
L 468.259354 114.004938 
L 466.665282 112.412135 
L 465.055362 110.835352 
L 463.429754 109.274747 
L 461.788623 107.730476 
L 460.132131 106.202692 
L 458.460444 104.69155 
L 456.77373 103.1972 
L 455.072156 101.719792 
L 453.355894 100.259473 
L 451.625115 98.816389 
L 449.879992 97.390685 
L 448.120699 95.982503 
L 446.347413 94.591985 
L 444.56031 93.219268 
L 442.75957 91.864491 
L 440.945372 90.527788 
L 439.117898 89.209294 
L 437.277331 87.90914 
L 435.423854 86.627457 
L 433.557654 85.364373 
L 431.678916 84.120013 
L 429.787829 82.894502 
L 427.884581 81.687963 
L 425.969364 80.500517 
L 424.042367 79.332282 
L 422.103786 78.183375 
L 420.153812 77.053911 
L 418.192641 75.944003 
L 416.220469 74.853762 
L 414.237494 73.783296 
L 412.243913 72.732714 
L 410.239927 71.702119 
L 408.225734 70.691616 
L 406.201538 69.701305 
L 404.16754 68.731285 
L 402.123944 67.781653 
L 400.070953 66.852504 
L 398.008774 65.943931 
L 395.937613 65.056025 
L 393.857676 64.188875 
L 391.769171 63.342567 
L 389.672309 62.517186 
L 387.567297 61.712815 
L 385.454347 60.929533 
L 383.33367 60.16742 
L 381.205478 59.426552 
L 379.069984 58.707002 
L 376.927401 58.008842 
L 374.777944 57.332143 
L 372.621828 56.676972 
L 370.459268 56.043395 
L 368.29048 55.431474 
L 366.115682 54.841272 
L 363.93509 54.272847 
L 361.748923 53.726256 
L 359.5574 53.201553 
L 357.360739 52.698791 
L 355.159161 52.218021 
L 352.952885 51.759291 
L 350.742132 51.322645 
L 348.527123 50.908129 
L 346.30808 50.515783 
L 344.085225 50.145647 
L 341.858779 49.797757 
L 339.628966 49.472149 
L 337.396009 49.168855 
L 335.16013 48.887905 
L 332.921553 48.629328 
L 330.680503 48.393149 
L 328.437203 48.179392 
L 326.191877 47.988079 
L 323.944751 47.819228 
L 321.696049 47.672856 
L 319.445995 47.548978 
L 317.194815 47.447606 
L 314.942734 47.368751 
L 312.689977 47.312421 
L 310.43677 47.27862 
L 308.183337 47.267353 
z
" clip-path="url(#pf59a9f16cf)" style="fill: #000080"/>
   </g>
   <g id="patch_3">
    <path d="M 308.183337 495.707989 
L 305.952438 495.696835 
L 303.721762 495.663372 
L 301.491533 495.607605 
L 299.261973 495.529538 
L 297.033305 495.42918 
L 294.805752 495.306541 
L 292.579536 495.161633 
L 290.354881 494.99447 
L 288.132009 494.80507 
L 285.911142 494.593451 
L 283.692502 494.359634 
L 281.476311 494.103642 
L 279.262791 493.825502 
L 277.052163 493.525241 
L 274.844648 493.202889 
L 272.640467 492.858478 
L 270.43984 492.492043 
L 268.242988 492.103621 
L 266.050129 491.69325 
L 263.861484 491.260971 
L 261.677271 490.806827 
L 259.497708 490.330865 
L 257.323014 489.833131 
L 255.153406 489.313675 
L 252.989101 488.77255 
L 250.830315 488.209809 
L 248.677265 487.625509 
L 246.530165 487.019707 
L 244.38923 486.392466 
L 242.254675 485.743847 
L 240.126712 485.073915 
L 238.005555 484.382737 
L 235.891416 483.670382 
L 233.784506 482.936923 
L 231.685036 482.182431 
L 229.593216 481.406982 
L 227.509254 480.610654 
L 225.43336 479.793527 
L 223.365741 478.955682 
L 221.306603 478.097204 
L 219.256153 477.218177 
L 217.214596 476.31869 
L 215.182136 475.398832 
L 213.158975 474.458697 
L 211.145317 473.498377 
L 209.141363 472.517969 
L 207.147312 471.51757 
L 205.163366 470.497282 
L 203.189721 469.457205 
L 201.226575 468.397444 
L 199.274125 467.318106 
L 197.332566 466.219296 
L 195.402092 465.101127 
L 193.482896 463.963709 
L 191.57517 462.807157 
L 189.679104 461.631585 
L 187.794889 460.437111 
L 185.922713 459.223856 
L 184.062763 457.99194 
L 182.215224 456.741486 
L 180.380282 455.472619 
L 178.558121 454.185467 
L 176.748922 452.880158 
L 174.952866 451.556823 
L 173.170133 450.215593 
L 171.400901 448.856604 
L 169.645348 447.47999 
L 167.903648 446.08589 
L 166.175976 444.674443 
L 164.462505 443.24579 
L 162.763405 441.800074 
L 161.078848 440.33744 
L 159.409 438.858034 
L 157.75403 437.362003 
L 156.114103 435.849498 
L 154.489383 434.320669 
L 152.880032 432.77567 
L 151.286211 431.214655 
L 149.70808 429.63778 
L 148.145796 428.045202 
L 146.599516 426.437082 
L 145.069394 424.81358 
L 143.555583 423.174858 
L 142.058235 421.52108 
L 140.577499 419.852411 
L 139.113524 418.169019 
L 137.666455 416.471071 
L 136.236439 414.758738 
L 134.823616 413.03219 
L 133.42813 411.291601 
L 132.050118 409.537145 
L 130.689721 407.768996 
L 129.347072 405.987331 
L 128.022306 404.19233 
L 126.715557 402.384171 
L 125.426954 400.563035 
L 124.156627 398.729104 
L 122.904703 396.882562 
L 121.671306 395.023593 
L 120.45656 393.152384 
L 119.260586 391.26912 
L 118.083505 389.373992 
L 116.925433 387.467187 
L 115.786488 385.548897 
L 114.666781 383.619314 
L 113.566426 381.678631 
L 112.485533 379.727041 
L 111.424209 377.76474 
L 110.382561 375.791924 
L 109.360693 373.80879 
L 108.358707 371.815537 
L 107.376704 369.812364 
L 106.414781 367.799472 
L 105.473034 365.77706 
L 104.551559 363.745333 
L 103.650446 361.704493 
L 102.769787 359.654743 
L 101.909668 357.59629 
L 101.070177 355.529339 
L 100.251397 353.454096 
L 99.45341 351.370769 
L 98.676296 349.279567 
L 97.920133 347.180698 
L 97.184995 345.074373 
L 96.470958 342.960802 
L 95.778091 340.840196 
L 95.106465 338.712768 
L 94.456146 336.57873 
L 93.827199 334.438295 
L 93.219689 332.291678 
L 92.633674 330.139094 
L 92.069214 327.980757 
L 91.526365 325.816883 
L 91.005182 323.64769 
L 90.505717 321.473393 
L 90.028019 319.29421 
L 89.572136 317.110359 
L 89.138115 314.922059 
L 88.725997 312.729528 
L 88.335825 310.532985 
L 87.967638 308.332651 
L 87.621472 306.128745 
L 87.297363 303.921487 
L 86.995341 301.711099 
L 86.715439 299.497801 
L 86.457682 297.281815 
L 86.222099 295.063362 
L 86.008711 292.842664 
L 85.81754 290.619943 
L 85.648606 288.395422 
L 85.501925 286.169323 
L 85.377512 283.941868 
L 85.27538 281.713281 
L 85.195538 279.483783 
L 85.137994 277.253599 
L 85.102755 275.022951 
L 85.089824 272.792062 
L 85.099202 270.561155 
L 85.130889 268.330453 
L 85.18488 266.10018 
L 85.261171 263.870559 
L 85.359754 261.641811 
L 85.480619 259.414161 
L 85.623755 257.187831 
L 85.789146 254.963044 
L 85.976776 252.740021 
L 86.186627 250.518987 
L 86.418677 248.300161 
L 86.672903 246.083767 
L 86.949281 243.870026 
L 87.247781 241.65916 
L 87.568375 239.451389 
L 87.911031 237.246934 
L 88.275713 235.046016 
L 88.662386 232.848855 
L 89.071011 230.65567 
L 89.501547 228.466682 
L 89.953951 226.282107 
L 90.428177 224.102167 
L 90.924179 221.927077 
L 91.441907 219.757056 
L 91.981309 217.592321 
L 92.54233 215.433087 
L 93.124916 213.279572 
L 93.729007 211.131991 
L 94.354544 208.990557 
L 95.001463 206.855486 
L 95.6697 204.726991 
L 96.359189 202.605284 
L 97.069859 200.490578 
L 97.801641 198.383085 
L 98.554461 196.283015 
L 99.328244 194.190577 
L 100.122912 192.105982 
L 100.938385 190.029438 
L 101.774583 187.961152 
L 102.631422 185.901332 
L 103.508816 183.850183 
L 104.406677 181.80791 
L 105.324916 179.774717 
L 106.26344 177.750809 
L 107.222156 175.736387 
L 108.200968 173.731652 
L 109.199778 171.736806 
L 110.218486 169.752047 
L 111.256991 167.777575 
L 112.315188 165.813586 
L 113.392972 163.860277 
L 114.490234 161.917844 
L 115.606866 159.98648 
L 116.742755 158.066379 
L 117.897788 156.157732 
L 119.07185 154.260731 
L 120.264823 152.375565 
L 121.476587 150.502423 
L 122.707021 148.641493 
L 123.956004 146.792959 
L 125.223408 144.957007 
L 126.509109 143.133821 
L 127.812977 141.323583 
L 129.134882 139.526474 
L 130.474691 137.742674 
L 131.832271 135.972361 
L 133.207487 134.215711 
L 134.600199 132.472902 
L 136.01027 130.744107 
L 137.437558 129.029498 
L 138.88192 127.329248 
L 140.343213 125.643526 
L 141.821289 123.972501 
L 143.316001 122.316341 
L 144.8272 120.67521 
L 146.354735 119.049272 
L 147.898452 117.438692 
L 149.458197 115.843628 
L 151.033815 114.264242 
L 152.625148 112.70069 
L 154.232036 111.15313 
L 155.854319 109.621715 
L 157.491835 108.1066 
L 159.144421 106.607936 
L 160.81191 105.125872 
L 162.494135 103.660556 
L 164.19093 102.212136 
L 165.902124 100.780756 
L 167.627546 99.366559 
L 169.367023 97.969687 
L 171.120382 96.590279 
L 172.887447 95.228474 
L 174.668042 93.884407 
L 176.461988 92.558212 
L 178.269105 91.250023 
L 180.089215 89.959971 
L 181.922133 88.688184 
L 183.767678 87.434789 
L 185.625664 86.199912 
L 187.495906 84.983676 
L 189.378216 83.786204 
L 191.272407 82.607614 
L 193.178289 81.448024 
L 195.095671 80.307551 
L 197.024362 79.186308 
L 198.964168 78.084408 
L 200.914897 77.001961 
L 202.876352 75.939075 
L 204.848338 74.895857 
L 206.830657 73.87241 
L 208.823111 72.868837 
L 210.825502 71.885239 
L 212.837628 70.921713 
L 214.859288 69.978356 
L 216.890281 69.055263 
L 218.930403 68.152525 
L 220.979451 67.270234 
L 223.037218 66.408477 
L 225.103501 65.56734 
L 227.178091 64.746908 
L 229.260781 63.947262 
L 231.351364 63.168483 
L 233.44963 62.410648 
L 235.555369 61.673834 
L 237.668371 60.958113 
L 239.788424 60.263558 
L 241.915317 59.590238 
L 244.048837 58.93822 
L 246.18877 58.307569 
L 248.334902 57.698349 
L 250.487019 57.11062 
L 252.644906 56.544442 
L 254.808347 55.99987 
L 256.977124 55.47696 
L 259.151023 54.975763 
L 261.329825 54.49633 
L 263.513312 54.038708 
L 265.701266 53.602944 
L 267.893468 53.189081 
L 270.089699 52.79716 
L 272.28974 52.427221 
L 274.49337 52.0793 
L 276.700368 51.753433 
L 278.910515 51.449652 
L 281.12359 51.167986 
L 283.33937 50.908466 
L 285.557635 50.671115 
L 287.778162 50.455959 
L 290.00073 50.263019 
L 292.225115 50.092313 
L 294.451097 49.943859 
L 296.678452 49.817673 
L 298.906958 49.713766 
L 301.136391 49.632148 
L 303.366528 49.572829 
L 305.597148 49.535814 
L 307.828026 49.521106 
L 308.183337 49.520823 
L 308.183337 47.267353 
L 307.824437 47.267638 
L 305.571025 47.282495 
L 303.317874 47.319884 
L 301.065209 47.379802 
L 298.813257 47.462244 
L 296.562241 47.567201 
L 294.312388 47.694662 
L 292.063921 47.844615 
L 289.817067 48.017045 
L 287.572049 48.211934 
L 285.329092 48.429264 
L 283.088421 48.669012 
L 280.850259 48.931154 
L 278.61483 49.215664 
L 276.382359 49.522514 
L 274.153067 49.851673 
L 271.927178 50.203108 
L 269.704915 50.576784 
L 267.4865 50.972664 
L 265.272154 51.390707 
L 263.0621 51.830873 
L 260.856557 52.293117 
L 258.655747 52.777393 
L 256.45989 53.283652 
L 254.269205 53.811845 
L 252.083912 54.361917 
L 249.904228 54.933814 
L 247.730372 55.52748 
L 245.562562 56.142854 
L 243.401014 56.779874 
L 241.245943 57.438478 
L 239.097567 58.1186 
L 236.956099 58.820171 
L 234.821753 59.543121 
L 232.694744 60.287378 
L 230.575283 61.052868 
L 228.463584 61.839513 
L 226.359856 62.647236 
L 224.26431 63.475956 
L 222.177157 64.325589 
L 220.098603 65.19605 
L 218.028859 66.087254 
L 215.968129 66.99911 
L 213.916621 67.931527 
L 211.87454 68.884413 
L 209.842089 69.857671 
L 207.819473 70.851205 
L 205.806892 71.864915 
L 203.80455 72.8987 
L 201.812645 73.952456 
L 199.831377 75.026078 
L 197.860944 76.119459 
L 195.901544 77.232489 
L 193.953371 78.365057 
L 192.016621 79.51705 
L 190.091488 80.688353 
L 188.178164 81.878848 
L 186.276841 83.088416 
L 184.387708 84.316937 
L 182.510954 85.564288 
L 180.646768 86.830343 
L 178.795335 88.114977 
L 176.956841 89.41806 
L 175.131469 90.739463 
L 173.319402 92.079053 
L 171.520822 93.436697 
L 169.735908 94.812258 
L 167.964838 96.205599 
L 166.20779 97.616581 
L 164.46494 99.045063 
L 162.736461 100.490901 
L 161.022527 101.953952 
L 159.323309 103.434068 
L 157.638977 104.931103 
L 155.969699 106.444905 
L 154.315642 107.975325 
L 152.676972 109.522208 
L 151.053853 111.0854 
L 149.446446 112.664745 
L 147.854913 114.260085 
L 146.279412 115.87126 
L 144.720102 117.498109 
L 143.177138 119.14047 
L 141.650675 120.798178 
L 140.140864 122.471068 
L 138.647858 124.158972 
L 137.171805 125.861721 
L 135.712853 127.579145 
L 134.271148 129.311073 
L 132.846834 131.057331 
L 131.440054 132.817745 
L 130.050948 134.592138 
L 128.679654 136.380333 
L 127.326312 138.182152 
L 125.991054 139.997413 
L 124.674016 141.825937 
L 123.375328 143.667539 
L 122.095122 145.522035 
L 120.833523 147.389241 
L 119.59066 149.268969 
L 118.366656 151.161032 
L 117.161633 153.065239 
L 115.975712 154.981402 
L 114.809012 156.909328 
L 113.661649 158.848824 
L 112.533738 160.799697 
L 111.425392 162.761751 
L 110.336722 164.73479 
L 109.267836 166.718617 
L 108.218841 168.713034 
L 107.189843 170.71784 
L 106.180944 172.732837 
L 105.192245 174.757821 
L 104.223845 176.792591 
L 103.275841 178.836943 
L 102.348327 180.890672 
L 101.441397 182.953574 
L 100.55514 185.025442 
L 99.689646 187.106069 
L 98.845002 189.195247 
L 98.021291 191.292766 
L 97.218596 193.398417 
L 96.436998 195.51199 
L 95.676574 197.633274 
L 94.9374 199.762055 
L 94.219551 201.898121 
L 93.523098 204.041259 
L 92.848111 206.191255 
L 92.194657 208.347892 
L 91.562802 210.510956 
L 90.952609 212.680231 
L 90.364138 214.855498 
L 89.79745 217.036542 
L 89.2526 219.223143 
L 88.729642 221.415084 
L 88.22863 223.612144 
L 87.749613 225.814104 
L 87.29264 228.020745 
L 86.857755 230.231845 
L 86.445003 232.447183 
L 86.054424 234.666538 
L 85.686058 236.889687 
L 85.339942 239.116409 
L 85.016109 241.346481 
L 84.714593 243.579679 
L 84.435424 245.815781 
L 84.17863 248.054563 
L 83.944236 250.2958 
L 83.732265 252.53927 
L 83.54274 254.784747 
L 83.375678 257.032007 
L 83.231097 259.280825 
L 83.109011 261.530977 
L 83.009432 263.782237 
L 82.93237 266.03438 
L 82.877834 268.287181 
L 82.845827 270.540415 
L 82.836354 272.793856 
L 82.849416 275.047279 
L 82.885011 277.300459 
L 82.943136 279.553171 
L 83.023784 281.805188 
L 83.126948 284.056287 
L 83.252618 286.306241 
L 83.40078 288.554826 
L 83.571421 290.801817 
L 83.764523 293.04699 
L 83.980066 295.290119 
L 84.218029 297.53098 
L 84.478389 299.76935 
L 84.761119 302.005005 
L 85.066191 304.23772 
L 85.393575 306.467273 
L 85.743237 308.693441 
L 86.115144 310.916001 
L 86.509256 313.134731 
L 86.925536 315.349409 
L 87.363942 317.559813 
L 87.82443 319.765723 
L 88.306953 321.966918 
L 88.811463 324.163177 
L 89.337911 326.354282 
L 89.886243 328.540013 
L 90.456405 330.720151 
L 91.048339 332.894479 
L 91.661986 335.062779 
L 92.297285 337.224834 
L 92.954173 339.380428 
L 93.632583 341.529345 
L 94.332449 343.671372 
L 95.053699 345.806292 
L 95.796262 347.933893 
L 96.560064 350.053963 
L 97.345027 352.166288 
L 98.151075 354.270659 
L 98.978125 356.366863 
L 99.826096 358.454693 
L 100.694902 360.533939 
L 101.584457 362.604393 
L 102.494672 364.665847 
L 103.425455 366.718097 
L 104.376715 368.760937 
L 105.348354 370.794162 
L 106.340277 372.817569 
L 107.352384 374.830956 
L 108.384574 376.834121 
L 109.436743 378.826864 
L 110.508788 380.808987 
L 111.600599 382.780289 
L 112.712069 384.740576 
L 113.843085 386.68965 
L 114.993535 388.627316 
L 116.163305 390.553381 
L 117.352276 392.467653 
L 118.56033 394.369939 
L 119.787346 396.26005 
L 121.033201 398.137796 
L 122.297772 400.00299 
L 123.58093 401.855445 
L 124.882549 403.694977 
L 126.202498 405.5214 
L 127.540645 407.334533 
L 128.896856 409.134194 
L 130.270995 410.920203 
L 131.662926 412.692381 
L 133.072508 414.450552 
L 134.499601 416.194539 
L 135.944063 417.924169 
L 137.405748 419.639267 
L 138.884511 421.339664 
L 140.380204 423.025187 
L 141.892676 424.69567 
L 143.421778 426.350945 
L 144.967356 427.990847 
L 146.529255 429.61521 
L 148.10732 431.223874 
L 149.701392 432.816677 
L 151.311312 434.39346 
L 152.936919 435.954066 
L 154.57805 437.498337 
L 156.234542 439.02612 
L 157.906229 440.537262 
L 159.592944 442.031612 
L 161.294517 443.509021 
L 163.010779 444.96934 
L 164.741558 446.412423 
L 166.486681 447.838127 
L 168.245974 449.246309 
L 170.019261 450.636828 
L 171.806363 452.009545 
L 173.607103 453.364322 
L 175.421301 454.701024 
L 177.248775 456.019518 
L 179.089342 457.319672 
L 180.942819 458.601355 
L 182.809019 459.86444 
L 184.687757 461.1088 
L 186.578844 462.33431 
L 188.482092 463.540849 
L 190.39731 464.728295 
L 192.324306 465.89653 
L 194.262888 467.045437 
L 196.212862 468.174901 
L 198.174032 469.28481 
L 200.146204 470.375051 
L 202.129179 471.445516 
L 204.12276 472.496099 
L 206.126747 473.526693 
L 208.140939 474.537196 
L 210.165135 475.527508 
L 212.199133 476.497528 
L 214.24273 477.44716 
L 216.29572 478.376309 
L 218.357899 479.284881 
L 220.429061 480.172787 
L 222.508997 481.039938 
L 224.597502 481.886246 
L 226.694364 482.711627 
L 228.799376 483.515998 
L 230.912326 484.299279 
L 233.033003 485.061392 
L 235.161195 485.802261 
L 237.296689 486.521811 
L 239.439272 487.21997 
L 241.588729 487.896669 
L 243.744845 488.55184 
L 245.907405 489.185418 
L 248.076193 489.797338 
L 250.250992 490.38754 
L 252.431583 490.955966 
L 254.61775 491.502557 
L 256.809273 492.02726 
L 259.005934 492.530021 
L 261.207512 493.010791 
L 263.413788 493.469522 
L 265.624541 493.906167 
L 267.83955 494.320684 
L 270.058593 494.71303 
L 272.281448 495.083166 
L 274.507894 495.431055 
L 276.737707 495.756663 
L 278.970665 496.059957 
L 281.206543 496.340907 
L 283.44512 496.599484 
L 285.68617 496.835663 
L 287.92947 497.04942 
L 290.174796 497.240734 
L 292.421922 497.409585 
L 294.670624 497.555957 
L 296.920678 497.679835 
L 299.171858 497.781206 
L 301.423939 497.860061 
L 303.676696 497.916392 
L 305.929904 497.950193 
L 308.183337 497.96146 
z
" clip-path="url(#pf59a9f16cf)" style="fill: #800000"/>
   </g>
   <g id="PatchCollection_1">
    <defs>
     <path id="m6d3c6c109f" d="M 308.183337 -495.707989 
L 308.183337 -495.707989 
L 310.414235 -495.696835 
L 312.644911 -495.663372 
L 314.87514 -495.607605 
L 317.1047 -495.529538 
L 319.333369 -495.42918 
L 321.560922 -495.306541 
L 323.787137 -495.161633 
L 326.011792 -494.99447 
L 328.234664 -494.80507 
L 330.455531 -494.593451 
L 332.674171 -494.359634 
L 334.890362 -494.103642 
L 337.103882 -493.825502 
L 339.31451 -493.525241 
L 341.522025 -493.202889 
L 343.726206 -492.858478 
L 345.926833 -492.492043 
L 348.123686 -492.103621 
L 350.316544 -491.69325 
L 352.505189 -491.260971 
L 354.689403 -490.806827 
L 356.868965 -490.330865 
L 359.043659 -489.833131 
L 361.213267 -489.313675 
L 363.377572 -488.77255 
L 365.536358 -488.209809 
L 367.689409 -487.625509 
L 369.836508 -487.019707 
L 371.977443 -486.392466 
L 374.111998 -485.743847 
L 376.239961 -485.073915 
L 378.361118 -484.382737 
L 380.475257 -483.670382 
L 382.582167 -482.936923 
L 384.681637 -482.182431 
L 386.773458 -481.406982 
L 388.857419 -480.610654 
L 390.933313 -479.793527 
L 393.000932 -478.955682 
L 395.06007 -478.097204 
L 397.11052 -477.218177 
L 399.152077 -476.31869 
L 401.184538 -475.398832 
L 403.207698 -474.458697 
L 405.221356 -473.498377 
L 407.22531 -472.517969 
L 409.219361 -471.51757 
L 411.203307 -470.497282 
L 413.176952 -469.457205 
L 415.140098 -468.397444 
L 417.092548 -467.318106 
L 419.034107 -466.219296 
L 420.964581 -465.101127 
L 422.883777 -463.963709 
L 424.791503 -462.807157 
L 426.687569 -461.631585 
L 428.571784 -460.437111 
L 430.44396 -459.223856 
L 432.303911 -457.99194 
L 434.151449 -456.741486 
L 435.986391 -455.472619 
L 437.808552 -454.185467 
L 439.617752 -452.880158 
L 441.413807 -451.556823 
L 443.19654 -450.215593 
L 444.965772 -448.856604 
L 446.721325 -447.47999 
L 448.463025 -446.08589 
L 450.190697 -444.674443 
L 451.904169 -443.24579 
L 453.603268 -441.800074 
L 455.287826 -440.33744 
L 456.957673 -438.858034 
L 458.612643 -437.362003 
L 460.25257 -435.849498 
L 461.87729 -434.320669 
L 463.486641 -432.77567 
L 465.080462 -431.214655 
L 466.658593 -429.63778 
L 468.220877 -428.045202 
L 469.767157 -426.437082 
L 471.297279 -424.81358 
L 472.81109 -423.174858 
L 474.308438 -421.52108 
L 475.789174 -419.852411 
L 477.253149 -418.169019 
L 478.700218 -416.471071 
L 480.130235 -414.758738 
L 481.543057 -413.03219 
L 482.938544 -411.291601 
L 484.316555 -409.537145 
L 485.676953 -407.768996 
L 487.019601 -405.987331 
L 488.344367 -404.19233 
L 489.651116 -402.384171 
L 490.939719 -400.563035 
L 492.210046 -398.729104 
L 493.461971 -396.882562 
L 494.695368 -395.023593 
L 495.910114 -393.152384 
L 497.106087 -391.26912 
L 498.283168 -389.373992 
L 499.44124 -387.467187 
L 500.580186 -385.548897 
L 501.699892 -383.619314 
L 502.800247 -381.678631 
L 503.88114 -379.727041 
L 504.942464 -377.76474 
L 505.984112 -375.791924 
L 507.00598 -373.80879 
L 508.007966 -371.815537 
L 508.989969 -369.812364 
L 509.951892 -367.799472 
L 510.893639 -365.77706 
L 511.815115 -363.745333 
L 512.716227 -361.704493 
L 513.596887 -359.654743 
L 514.457005 -357.59629 
L 515.296496 -355.529339 
L 516.115276 -353.454096 
L 516.913263 -351.370769 
L 517.690377 -349.279567 
L 518.44654 -347.180698 
L 519.181678 -345.074373 
L 519.895716 -342.960802 
L 520.588582 -340.840196 
L 521.260209 -338.712768 
L 521.910527 -336.57873 
L 522.539474 -334.438295 
L 523.146985 -332.291678 
L 523.732999 -330.139094 
L 524.297459 -327.980757 
L 524.840308 -325.816883 
L 525.361491 -323.64769 
L 525.860957 -321.473393 
L 526.338654 -319.29421 
L 526.794537 -317.110359 
L 527.228559 -314.922059 
L 527.640676 -312.729528 
L 528.030848 -310.532985 
L 528.399035 -308.332651 
L 528.745201 -306.128745 
L 529.069311 -303.921487 
L 529.371332 -301.711099 
L 529.651235 -299.497801 
L 529.908991 -297.281815 
L 530.144575 -295.063362 
L 530.357962 -292.842664 
L 530.549133 -290.619943 
L 530.718067 -288.395422 
L 530.864748 -286.169323 
L 530.989161 -283.941868 
L 531.091294 -281.713281 
L 531.171135 -279.483783 
L 531.228679 -277.253599 
L 531.263918 -275.022951 
L 531.276849 -272.792062 
L 531.267471 -270.561155 
L 531.235785 -268.330453 
L 531.181793 -266.10018 
L 531.105502 -263.870559 
L 531.006919 -261.641811 
L 530.886054 -259.414161 
L 530.742919 -257.187831 
L 530.577528 -254.963044 
L 530.389897 -252.740021 
L 530.180047 -250.518987 
L 529.947996 -248.300161 
L 529.69377 -246.083767 
L 529.417392 -243.870026 
L 529.118892 -241.65916 
L 528.798298 -239.451389 
L 528.455642 -237.246934 
L 528.09096 -235.046016 
L 527.704287 -232.848855 
L 527.295662 -230.65567 
L 526.865126 -228.466682 
L 526.412723 -226.282107 
L 525.938496 -224.102167 
L 525.442494 -221.927077 
L 524.924766 -219.757056 
L 524.385365 -217.592321 
L 523.824343 -215.433087 
L 523.241757 -213.279572 
L 522.637666 -211.131991 
L 522.012129 -208.990557 
L 521.36521 -206.855486 
L 520.696973 -204.726991 
L 520.007484 -202.605284 
L 519.296814 -200.490578 
L 518.565032 -198.383085 
L 517.812212 -196.283015 
L 517.03843 -194.190577 
L 516.243762 -192.105982 
L 515.428288 -190.029438 
L 514.59209 -187.961152 
L 513.735251 -185.901332 
L 512.857857 -183.850183 
L 511.959996 -181.80791 
L 511.041758 -179.774717 
L 510.103233 -177.750809 
L 509.144517 -175.736387 
L 508.165705 -173.731652 
L 507.166895 -171.736806 
L 506.148187 -169.752047 
L 505.109682 -167.777575 
L 504.051485 -165.813586 
L 502.973701 -163.860277 
L 501.876439 -161.917844 
L 500.759807 -159.98648 
L 499.623918 -158.066379 
L 498.468885 -156.157732 
L 497.294823 -154.260731 
L 496.101851 -152.375565 
L 494.890086 -150.502423 
L 493.659652 -148.641493 
L 492.41067 -146.792959 
L 491.143265 -144.957007 
L 489.857564 -143.133821 
L 488.553696 -141.323583 
L 487.231791 -139.526474 
L 485.891982 -137.742674 
L 484.534402 -135.972361 
L 483.159187 -134.215711 
L 481.766474 -132.472902 
L 480.356403 -130.744107 
L 478.929115 -129.029498 
L 477.484753 -127.329248 
L 476.023461 -125.643526 
L 474.545384 -123.972501 
L 473.050672 -122.316341 
L 471.539473 -120.67521 
L 470.011939 -119.049272 
L 468.468222 -117.438692 
L 466.908476 -115.843628 
L 465.332858 -114.264242 
L 463.741526 -112.70069 
L 462.134637 -111.15313 
L 460.512354 -109.621715 
L 458.874838 -108.1066 
L 457.222253 -106.607936 
L 455.554764 -105.125872 
L 453.872538 -103.660556 
L 452.175743 -102.212136 
L 450.464549 -100.780756 
L 448.739127 -99.366559 
L 446.99965 -97.969687 
L 445.246291 -96.590279 
L 443.479226 -95.228474 
L 441.698632 -93.884407 
L 439.904686 -92.558212 
L 438.097568 -91.250023 
L 436.277458 -89.959971 
L 434.44454 -88.688184 
L 432.598995 -87.434789 
L 430.741009 -86.199912 
L 428.870768 -84.983676 
L 426.988457 -83.786204 
L 425.094266 -82.607614 
L 423.188385 -81.448024 
L 421.271003 -80.307551 
L 419.342312 -79.186308 
L 417.402505 -78.084408 
L 415.451777 -77.001961 
L 413.490321 -75.939075 
L 411.518336 -74.895857 
L 409.536016 -73.87241 
L 407.543562 -72.868837 
L 405.541171 -71.885239 
L 403.529045 -70.921713 
L 401.507385 -69.978356 
L 399.476392 -69.055263 
L 397.43627 -68.152525 
L 395.387222 -67.270234 
L 393.329455 -66.408477 
L 391.263173 -65.56734 
L 389.188583 -64.746908 
L 387.105892 -63.947262 
L 385.015309 -63.168483 
L 382.917043 -62.410648 
L 380.811304 -61.673834 
L 378.698302 -60.958113 
L 376.578249 -60.263558 
L 374.451356 -59.590238 
L 372.317836 -58.93822 
L 370.177903 -58.307569 
L 368.031771 -57.698349 
L 365.879654 -57.11062 
L 363.721767 -56.544442 
L 361.558327 -55.99987 
L 359.389549 -55.47696 
L 357.21565 -54.975763 
L 355.036848 -54.49633 
L 352.853361 -54.038708 
L 350.665407 -53.602944 
L 348.473205 -53.189081 
L 346.276974 -52.79716 
L 344.076933 -52.427221 
L 341.873304 -52.0793 
L 339.666305 -51.753433 
L 337.456158 -51.449652 
L 335.243083 -51.167986 
L 333.027303 -50.908466 
L 330.809039 -50.671115 
L 328.588511 -50.455959 
L 326.365944 -50.263019 
L 324.141558 -50.092313 
L 321.915576 -49.943859 
L 319.688221 -49.817673 
L 317.459716 -49.713766 
L 315.230283 -49.632148 
L 313.000145 -49.572829 
L 310.769525 -49.535814 
L 308.538647 -49.521106 
L 308.183337 -49.520823 
L 308.183337 -49.520823 
Q 308.183337 -272.614406 308.183337 -49.520823 
L 308.183337 -49.520823 
L 308.183337 -49.520823 
L 305.952438 -49.531978 
L 303.721762 -49.56544 
L 301.491533 -49.621208 
L 299.261973 -49.699274 
L 297.033305 -49.799632 
L 294.805752 -49.922271 
L 292.579536 -50.067179 
L 290.354881 -50.234342 
L 288.132009 -50.423743 
L 285.911142 -50.635362 
L 283.692502 -50.869179 
L 281.476311 -51.12517 
L 279.262791 -51.403311 
L 277.052163 -51.703572 
L 274.844648 -52.025924 
L 272.640467 -52.370334 
L 270.43984 -52.736769 
L 268.242988 -53.125192 
L 266.050129 -53.535563 
L 263.861484 -53.967842 
L 261.677271 -54.421985 
L 259.497708 -54.897948 
L 257.323014 -55.395682 
L 255.153406 -55.915137 
L 252.989101 -56.456262 
L 250.830315 -57.019003 
L 248.677265 -57.603304 
L 246.530165 -58.209105 
L 244.38923 -58.836347 
L 242.254675 -59.484966 
L 240.126712 -60.154898 
L 238.005555 -60.846076 
L 235.891416 -61.55843 
L 233.784506 -62.29189 
L 231.685036 -63.046382 
L 229.593216 -63.821831 
L 227.509254 -64.618158 
L 225.43336 -65.435285 
L 223.365741 -66.27313 
L 221.306603 -67.131609 
L 219.256153 -68.010636 
L 217.214596 -68.910123 
L 215.182136 -69.82998 
L 213.158975 -70.770116 
L 211.145317 -71.730436 
L 209.141363 -72.710844 
L 207.147312 -73.711242 
L 205.163366 -74.731531 
L 203.189721 -75.771607 
L 201.226575 -76.831368 
L 199.274125 -77.910707 
L 197.332566 -79.009516 
L 195.402092 -80.127685 
L 193.482896 -81.265103 
L 191.57517 -82.421656 
L 189.679104 -83.597228 
L 187.794889 -84.791701 
L 185.922713 -86.004957 
L 184.062763 -87.236873 
L 182.215224 -88.487327 
L 180.380282 -89.756193 
L 178.558121 -91.043345 
L 176.748922 -92.348654 
L 174.952866 -93.67199 
L 173.170133 -95.013219 
L 171.400901 -96.372209 
L 169.645348 -97.748822 
L 167.903648 -99.142922 
L 166.175976 -100.554369 
L 164.462505 -101.983022 
L 162.763405 -103.428738 
L 161.078848 -104.891372 
L 159.409 -106.370779 
L 157.75403 -107.86681 
L 156.114103 -109.379315 
L 154.489383 -110.908144 
L 152.880032 -112.453143 
L 151.286211 -114.014158 
L 149.70808 -115.591033 
L 148.145796 -117.18361 
L 146.599516 -118.79173 
L 145.069394 -120.415233 
L 143.555583 -122.053955 
L 142.058235 -123.707733 
L 140.577499 -125.376401 
L 139.113524 -127.059794 
L 137.666455 -128.757741 
L 136.236439 -130.470075 
L 134.823616 -132.196622 
L 133.42813 -133.937211 
L 132.050118 -135.691668 
L 130.689721 -137.459817 
L 129.347072 -139.241481 
L 128.022306 -141.036483 
L 126.715557 -142.844642 
L 125.426954 -144.665778 
L 124.156627 -146.499708 
L 122.904703 -148.34625 
L 121.671306 -150.205219 
L 120.45656 -152.076429 
L 119.260586 -153.959692 
L 118.083505 -155.854821 
L 116.925433 -157.761626 
L 115.786488 -159.679915 
L 114.666781 -161.609498 
L 113.566426 -163.550182 
L 112.485533 -165.501772 
L 111.424209 -167.464073 
L 110.382561 -169.436889 
L 109.360693 -171.420022 
L 108.358707 -173.413275 
L 107.376704 -175.416448 
L 106.414781 -177.429341 
L 105.473034 -179.451752 
L 104.551559 -181.483479 
L 103.650446 -183.52432 
L 102.769787 -185.574069 
L 101.909668 -187.632522 
L 101.070177 -189.699474 
L 100.251397 -191.774716 
L 99.45341 -193.858043 
L 98.676296 -195.949245 
L 97.920133 -198.048114 
L 97.184995 -200.154439 
L 96.470958 -202.268011 
L 95.778091 -204.388616 
L 95.106465 -206.516045 
L 94.456146 -208.650083 
L 93.827199 -210.790517 
L 93.219689 -212.937134 
L 92.633674 -215.089719 
L 92.069214 -217.248056 
L 91.526365 -219.411929 
L 91.005182 -221.581123 
L 90.505717 -223.75542 
L 90.028019 -225.934603 
L 89.572136 -228.118453 
L 89.138115 -230.306754 
L 88.725997 -232.499285 
L 88.335825 -234.695827 
L 87.967638 -236.896162 
L 87.621472 -239.100068 
L 87.297363 -241.307325 
L 86.995341 -243.517714 
L 86.715439 -245.731012 
L 86.457682 -247.946998 
L 86.222099 -250.165451 
L 86.008711 -252.386149 
L 85.81754 -254.608869 
L 85.648606 -256.83339 
L 85.501925 -259.05949 
L 85.377512 -261.286944 
L 85.27538 -263.515532 
L 85.195538 -265.745029 
L 85.137994 -267.975214 
L 85.102755 -270.205862 
L 85.089824 -272.436751 
L 85.099202 -274.667658 
L 85.130889 -276.898359 
L 85.18488 -279.128632 
L 85.261171 -281.358254 
L 85.359754 -283.587001 
L 85.480619 -285.814651 
L 85.623755 -288.040981 
L 85.789146 -290.265769 
L 85.976776 -292.488791 
L 86.186627 -294.709826 
L 86.418677 -296.928651 
L 86.672903 -299.145045 
L 86.949281 -301.358786 
L 87.247781 -303.569653 
L 87.568375 -305.777424 
L 87.911031 -307.981878 
L 88.275713 -310.182796 
L 88.662386 -312.379957 
L 89.071011 -314.573142 
L 89.501547 -316.762131 
L 89.953951 -318.946705 
L 90.428177 -321.126646 
L 90.924179 -323.301736 
L 91.441907 -325.471757 
L 91.981309 -327.636492 
L 92.54233 -329.795725 
L 93.124916 -331.94924 
L 93.729007 -334.096822 
L 94.354544 -336.238255 
L 95.001463 -338.373326 
L 95.6697 -340.501822 
L 96.359189 -342.623528 
L 97.069859 -344.738234 
L 97.801641 -346.845728 
L 98.554461 -348.945798 
L 99.328244 -351.038235 
L 100.122912 -353.12283 
L 100.938385 -355.199374 
L 101.774583 -357.26766 
L 102.631422 -359.327481 
L 103.508816 -361.37863 
L 104.406677 -363.420903 
L 105.324916 -365.454095 
L 106.26344 -367.478004 
L 107.222156 -369.492426 
L 108.200968 -371.49716 
L 109.199778 -373.492006 
L 110.218486 -375.476765 
L 111.256991 -377.451237 
L 112.315188 -379.415226 
L 113.392972 -381.368535 
L 114.490234 -383.310969 
L 115.606866 -385.242333 
L 116.742755 -387.162434 
L 117.897788 -389.07108 
L 119.07185 -390.968081 
L 120.264823 -392.853247 
L 121.476587 -394.726389 
L 122.707021 -396.58732 
L 123.956004 -398.435854 
L 125.223408 -400.271805 
L 126.509109 -402.094991 
L 127.812977 -403.905229 
L 129.134882 -405.702338 
L 130.474691 -407.486139 
L 131.832271 -409.256452 
L 133.207487 -411.013101 
L 134.600199 -412.755911 
L 136.01027 -414.484706 
L 137.437558 -416.199314 
L 138.88192 -417.899565 
L 140.343213 -419.585286 
L 141.821289 -421.256311 
L 143.316001 -422.912472 
L 144.8272 -424.553603 
L 146.354735 -426.17954 
L 147.898452 -427.790121 
L 149.458197 -429.385184 
L 151.033815 -430.964571 
L 152.625148 -432.528122 
L 154.232036 -434.075683 
L 155.854319 -435.607097 
L 157.491835 -437.122212 
L 159.144421 -438.620877 
L 160.81191 -440.102941 
L 162.494135 -441.568256 
L 164.19093 -443.016676 
L 165.902124 -444.448056 
L 167.627546 -445.862253 
L 169.367023 -447.259125 
L 171.120382 -448.638533 
L 172.887447 -450.000339 
L 174.668042 -451.344406 
L 176.461988 -452.6706 
L 178.269105 -453.978789 
L 180.089215 -455.268842 
L 181.922133 -456.540629 
L 183.767678 -457.794024 
L 185.625664 -459.0289 
L 187.495906 -460.245136 
L 189.378216 -461.442609 
L 191.272407 -462.621199 
L 193.178289 -463.780789 
L 195.095671 -464.921262 
L 197.024362 -466.042504 
L 198.964168 -467.144404 
L 200.914897 -468.226851 
L 202.876352 -469.289737 
L 204.848338 -470.332956 
L 206.830657 -471.356403 
L 208.823111 -472.359975 
L 210.825502 -473.343574 
L 212.837628 -474.3071 
L 214.859288 -475.250456 
L 216.890281 -476.17355 
L 218.930403 -477.076287 
L 220.979451 -477.958579 
L 223.037218 -478.820336 
L 225.103501 -479.661472 
L 227.178091 -480.481905 
L 229.260781 -481.28155 
L 231.351364 -482.06033 
L 233.44963 -482.818164 
L 235.555369 -483.554979 
L 237.668371 -484.270699 
L 239.788424 -484.965255 
L 241.915317 -485.638575 
L 244.048837 -486.290593 
L 246.18877 -486.921243 
L 248.334902 -487.530464 
L 250.487019 -488.118192 
L 252.644906 -488.684371 
L 254.808347 -489.228942 
L 256.977124 -489.751853 
L 259.151023 -490.253049 
L 261.329825 -490.732483 
L 263.513312 -491.190104 
L 265.701266 -491.625868 
L 267.893468 -492.039731 
L 270.089699 -492.431652 
L 272.28974 -492.801591 
L 274.49337 -493.149512 
L 276.700368 -493.475379 
L 278.910515 -493.779161 
L 281.12359 -494.060826 
L 283.33937 -494.320347 
L 285.557635 -494.557697 
L 287.778162 -494.772853 
L 290.00073 -494.965794 
L 292.225115 -495.136499 
L 294.451097 -495.284953 
L 296.678452 -495.41114 
L 298.906958 -495.515047 
L 301.136391 -495.596664 
L 303.366528 -495.655983 
L 305.597148 -495.692999 
L 307.828026 -495.707706 
L 308.183337 -495.707989 
L 308.183337 -495.707989 
Q 308.183337 -272.614406 308.183337 -495.707989 
z
" style="stroke: #808080; stroke-opacity: 0.5; stroke-width: 0.1"/>
    </defs>
    <g clip-path="url(#pf59a9f16cf)">
     <use xlink:href="#m6d3c6c109f" x="0" y="545.228812" style="fill: #000080; fill-opacity: 0.5; stroke: #808080; stroke-opacity: 0.5; stroke-width: 0.1"/>
    </g>
   </g>
   <g id="patch_4">
    <path d="M 308.183337 49.520823 
L 310.414235 49.531978 
L 312.644911 49.56544 
L 314.87514 49.621208 
L 317.1047 49.699274 
L 319.333369 49.799632 
L 321.560922 49.922271 
L 323.787137 50.067179 
L 326.011792 50.234342 
L 328.234664 50.423743 
L 330.455531 50.635362 
L 332.674171 50.869179 
L 334.890362 51.12517 
L 337.103882 51.403311 
L 339.31451 51.703572 
L 341.522025 52.025924 
L 343.726206 52.370334 
L 345.926833 52.736769 
L 348.123686 53.125192 
L 350.316544 53.535563 
L 352.505189 53.967842 
L 354.689403 54.421985 
L 356.868965 54.897948 
L 359.043659 55.395682 
L 361.213267 55.915137 
L 363.377572 56.456262 
L 365.536358 57.019003 
L 367.689409 57.603304 
L 369.836508 58.209105 
L 371.977443 58.836347 
L 374.111998 59.484966 
L 376.239961 60.154898 
L 378.361118 60.846076 
L 380.475257 61.55843 
L 382.582167 62.29189 
L 384.681637 63.046382 
L 386.773458 63.821831 
L 388.857419 64.618158 
L 390.933313 65.435285 
L 393.000932 66.27313 
L 395.06007 67.131609 
L 397.11052 68.010636 
L 399.152077 68.910123 
L 401.184538 69.82998 
L 403.207698 70.770116 
L 405.221356 71.730436 
L 407.22531 72.710844 
L 409.219361 73.711242 
L 411.203307 74.731531 
L 413.176952 75.771607 
L 415.140098 76.831368 
L 417.092548 77.910707 
L 419.034107 79.009516 
L 420.964581 80.127685 
L 422.883777 81.265103 
L 424.791503 82.421656 
L 426.687569 83.597228 
L 428.571784 84.791701 
L 430.44396 86.004957 
L 432.303911 87.236873 
L 434.151449 88.487327 
L 435.986391 89.756193 
L 437.808552 91.043345 
L 439.617752 92.348654 
L 441.413807 93.67199 
L 443.19654 95.013219 
L 444.965772 96.372209 
L 446.721325 97.748822 
L 448.463025 99.142922 
L 450.190697 100.554369 
L 451.904169 101.983022 
L 453.603268 103.428738 
L 455.287826 104.891372 
L 456.957673 106.370779 
L 458.612643 107.86681 
L 460.25257 109.379315 
L 461.87729 110.908144 
L 463.486641 112.453143 
L 465.080462 114.014158 
L 466.658593 115.591033 
L 468.220877 117.18361 
L 469.767157 118.79173 
L 471.297279 120.415233 
L 472.81109 122.053955 
L 474.308438 123.707733 
L 475.789174 125.376401 
L 477.253149 127.059794 
L 478.700218 128.757741 
L 480.130235 130.470075 
L 481.543057 132.196622 
L 482.938544 133.937211 
L 484.316555 135.691668 
L 485.676953 137.459817 
L 487.019601 139.241481 
L 488.344367 141.036483 
L 489.651116 142.844642 
L 490.939719 144.665778 
L 492.210046 146.499708 
L 493.461971 148.34625 
L 494.695368 150.205219 
L 495.910114 152.076429 
L 497.106087 153.959692 
L 498.283168 155.854821 
L 499.44124 157.761626 
L 500.580186 159.679915 
L 501.699892 161.609498 
L 502.800247 163.550182 
L 503.88114 165.501772 
L 504.942464 167.464073 
L 505.984112 169.436889 
L 507.00598 171.420022 
L 508.007966 173.413275 
L 508.989969 175.416448 
L 509.951892 177.429341 
L 510.893639 179.451752 
L 511.815115 181.483479 
L 512.716227 183.52432 
L 513.596887 185.574069 
L 514.457005 187.632522 
L 515.296496 189.699474 
L 516.115276 191.774716 
L 516.913263 193.858043 
L 517.690377 195.949245 
L 518.44654 198.048114 
L 519.181678 200.154439 
L 519.895716 202.268011 
L 520.588582 204.388616 
L 521.260209 206.516045 
L 521.910527 208.650083 
L 522.539474 210.790517 
L 523.146985 212.937134 
L 523.732999 215.089719 
L 524.297459 217.248056 
L 524.840308 219.411929 
L 525.361491 221.581123 
L 525.860957 223.75542 
L 526.338654 225.934603 
L 526.794537 228.118453 
L 527.228559 230.306754 
L 527.640676 232.499285 
L 528.030848 234.695827 
L 528.399035 236.896162 
L 528.745201 239.100068 
L 529.069311 241.307325 
L 529.371332 243.517714 
L 529.651235 245.731012 
L 529.908991 247.946998 
L 530.144575 250.165451 
L 530.357962 252.386149 
L 530.549133 254.608869 
L 530.718067 256.83339 
L 530.864748 259.05949 
L 530.989161 261.286944 
L 531.091294 263.515532 
L 531.171135 265.745029 
L 531.228679 267.975214 
L 531.263918 270.205862 
L 531.276849 272.436751 
L 531.267471 274.667658 
L 531.235785 276.898359 
L 531.181793 279.128632 
L 531.105502 281.358254 
L 531.006919 283.587001 
L 530.886054 285.814651 
L 530.742919 288.040981 
L 530.577528 290.265769 
L 530.389897 292.488791 
L 530.180047 294.709826 
L 529.947996 296.928651 
L 529.69377 299.145045 
L 529.417392 301.358786 
L 529.118892 303.569653 
L 528.798298 305.777424 
L 528.455642 307.981878 
L 528.09096 310.182796 
L 527.704287 312.379957 
L 527.295662 314.573142 
L 526.865126 316.762131 
L 526.412723 318.946705 
L 525.938496 321.126646 
L 525.442494 323.301736 
L 524.924766 325.471757 
L 524.385365 327.636492 
L 523.824343 329.795725 
L 523.241757 331.94924 
L 522.637666 334.096822 
L 522.012129 336.238255 
L 521.36521 338.373326 
L 520.696973 340.501822 
L 520.007484 342.623528 
L 519.296814 344.738234 
L 518.565032 346.845728 
L 517.812212 348.945798 
L 517.03843 351.038235 
L 516.243762 353.12283 
L 515.428288 355.199374 
L 514.59209 357.26766 
L 513.735251 359.327481 
L 512.857857 361.37863 
L 511.959996 363.420903 
L 511.041758 365.454095 
L 510.103233 367.478004 
L 509.144517 369.492426 
L 508.165705 371.49716 
L 507.166895 373.492006 
L 506.148187 375.476765 
L 505.109682 377.451237 
L 504.051485 379.415226 
L 502.973701 381.368535 
L 501.876439 383.310969 
L 500.759807 385.242333 
L 499.623918 387.162434 
L 498.468885 389.07108 
L 497.294823 390.968081 
L 496.101851 392.853247 
L 494.890086 394.726389 
L 493.659652 396.58732 
L 492.41067 398.435854 
L 491.143265 400.271805 
L 489.857564 402.094991 
L 488.553696 403.905229 
L 487.231791 405.702338 
L 485.891982 407.486139 
L 484.534402 409.256452 
L 483.159187 411.013101 
L 481.766474 412.755911 
L 480.356403 414.484706 
L 478.929115 416.199314 
L 477.484753 417.899565 
L 476.023461 419.585286 
L 474.545384 421.256311 
L 473.050672 422.912472 
L 471.539473 424.553603 
L 470.011939 426.17954 
L 468.468222 427.790121 
L 466.908476 429.385184 
L 465.332858 430.964571 
L 463.741526 432.528122 
L 462.134637 434.075683 
L 460.512354 435.607097 
L 458.874838 437.122212 
L 457.222253 438.620877 
L 455.554764 440.102941 
L 453.872538 441.568256 
L 452.175743 443.016676 
L 450.464549 444.448056 
L 448.739127 445.862253 
L 446.99965 447.259125 
L 445.246291 448.638533 
L 443.479226 450.000339 
L 441.698632 451.344406 
L 439.904686 452.6706 
L 438.097568 453.978789 
L 436.277458 455.268842 
L 434.44454 456.540629 
L 432.598995 457.794024 
L 430.741009 459.0289 
L 428.870768 460.245136 
L 426.988457 461.442609 
L 425.094266 462.621199 
L 423.188385 463.780789 
L 421.271003 464.921262 
L 419.342312 466.042504 
L 417.402505 467.144404 
L 415.451777 468.226851 
L 413.490321 469.289737 
L 411.518336 470.332956 
L 409.536016 471.356403 
L 407.543562 472.359975 
L 405.541171 473.343574 
L 403.529045 474.3071 
L 401.507385 475.250456 
L 399.476392 476.17355 
L 397.43627 477.076287 
L 395.387222 477.958579 
L 393.329455 478.820336 
L 391.263173 479.661472 
L 389.188583 480.481905 
L 387.105892 481.28155 
L 385.015309 482.06033 
L 382.917043 482.818164 
L 380.811304 483.554979 
L 378.698302 484.270699 
L 376.578249 484.965255 
L 374.451356 485.638575 
L 372.317836 486.290593 
L 370.177903 486.921243 
L 368.031771 487.530464 
L 365.879654 488.118192 
L 363.721767 488.684371 
L 361.558327 489.228942 
L 359.389549 489.751853 
L 357.21565 490.253049 
L 355.036848 490.732483 
L 352.853361 491.190104 
L 350.665407 491.625868 
L 348.473205 492.039731 
L 346.276974 492.431652 
L 344.076933 492.801591 
L 341.873304 493.149512 
L 339.666305 493.475379 
L 337.456158 493.779161 
L 335.243083 494.060826 
L 333.027303 494.320347 
L 330.809039 494.557697 
L 328.588511 494.772853 
L 326.365944 494.965794 
L 324.141558 495.136499 
L 321.915576 495.284953 
L 319.688221 495.41114 
L 317.459716 495.515047 
L 315.230283 495.596664 
L 313.000145 495.655983 
L 310.769525 495.692999 
L 308.538647 495.707706 
L 308.183337 495.707989 
L 308.183337 497.96146 
L 308.542236 497.961174 
L 310.795648 497.946318 
L 313.048799 497.908929 
L 315.301464 497.84901 
L 317.553416 497.766568 
L 319.804432 497.661612 
L 322.054285 497.53415 
L 324.302752 497.384197 
L 326.549606 497.211768 
L 328.794624 497.016878 
L 331.037581 496.799549 
L 333.278252 496.559801 
L 335.516414 496.297659 
L 337.751843 496.013148 
L 339.984315 495.706298 
L 342.213606 495.377139 
L 344.439495 495.025704 
L 346.661758 494.652028 
L 348.880173 494.256149 
L 351.094519 493.838105 
L 353.304574 493.397939 
L 355.510116 492.935695 
L 357.710926 492.45142 
L 359.906783 491.94516 
L 362.097468 491.416968 
L 364.282761 490.866896 
L 366.462445 490.294998 
L 368.636301 489.701333 
L 370.804111 489.085959 
L 372.96566 488.448938 
L 375.12073 487.790334 
L 377.269106 487.110213 
L 379.410575 486.408642 
L 381.54492 485.685692 
L 383.671929 484.941435 
L 385.79139 484.175945 
L 387.903089 483.389299 
L 390.006817 482.581576 
L 392.102363 481.752857 
L 394.189517 480.903224 
L 396.26807 480.032762 
L 398.337815 479.141559 
L 400.398544 478.229703 
L 402.450052 477.297285 
L 404.492133 476.3444 
L 406.524584 475.371141 
L 408.5472 474.377608 
L 410.559781 473.363898 
L 412.562123 472.330113 
L 414.554028 471.276357 
L 416.535296 470.202734 
L 418.505729 469.109353 
L 420.46513 467.996323 
L 422.413302 466.863755 
L 424.350052 465.711762 
L 426.275185 464.540459 
L 428.188509 463.349964 
L 430.089833 462.140396 
L 431.978966 460.911875 
L 433.855719 459.664525 
L 435.719906 458.398469 
L 437.571338 457.113836 
L 439.409833 455.810753 
L 441.235204 454.48935 
L 443.047271 453.14976 
L 444.845851 451.792116 
L 446.630765 450.416555 
L 448.401835 449.023214 
L 450.158883 447.612232 
L 451.901733 446.18375 
L 453.630212 444.737912 
L 455.344146 443.274861 
L 457.043364 441.794744 
L 458.727696 440.29771 
L 460.396974 438.783907 
L 462.051031 437.253488 
L 463.689701 435.706605 
L 465.31282 434.143413 
L 466.920227 432.564067 
L 468.51176 430.968728 
L 470.087261 429.357552 
L 471.646571 427.730703 
L 473.189535 426.088342 
L 474.715999 424.430634 
L 476.225809 422.757745 
L 477.718815 421.069841 
L 479.194868 419.367091 
L 480.65382 417.649667 
L 482.095525 415.917739 
L 483.519839 414.171481 
L 484.926619 412.411068 
L 486.315726 410.636675 
L 487.687019 408.848479 
L 489.040362 407.046661 
L 490.375619 405.231399 
L 491.692657 403.402876 
L 492.991345 401.561274 
L 494.271552 399.706777 
L 495.53315 397.839572 
L 496.776013 395.959843 
L 498.000018 394.067781 
L 499.20504 392.163573 
L 500.390961 390.24741 
L 501.557661 388.319485 
L 502.705024 386.379988 
L 503.832935 384.429116 
L 504.941281 382.467062 
L 506.029951 380.494022 
L 507.098837 378.510195 
L 508.147832 376.515779 
L 509.17683 374.510972 
L 510.185729 372.495976 
L 511.174428 370.470992 
L 512.142828 368.436222 
L 513.090833 366.39187 
L 514.018346 364.33814 
L 514.925277 362.275238 
L 515.811533 360.20337 
L 516.677027 358.122743 
L 517.521671 356.033566 
L 518.345382 353.936047 
L 519.148077 351.830395 
L 519.929676 349.716822 
L 520.6901 347.595539 
L 521.429273 345.466758 
L 522.147122 343.330691 
L 522.843575 341.187553 
L 523.518562 339.037558 
L 524.172016 336.88092 
L 524.803871 334.717856 
L 525.414064 332.548582 
L 526.002535 330.373314 
L 526.569223 328.192271 
L 527.114074 326.005669 
L 527.637031 323.813729 
L 528.138043 321.616669 
L 528.61706 319.414708 
L 529.074033 317.208068 
L 529.508918 314.996968 
L 529.92167 312.78163 
L 530.312249 310.562275 
L 530.680615 308.339125 
L 531.026732 306.112404 
L 531.350564 303.882332 
L 531.65208 301.649133 
L 531.931249 299.413031 
L 532.188043 297.17425 
L 532.422438 294.933012 
L 532.634408 292.689542 
L 532.823934 290.444065 
L 532.990995 288.196805 
L 533.135576 285.947987 
L 533.257662 283.697836 
L 533.357241 281.446576 
L 533.434303 279.194433 
L 533.48884 276.941631 
L 533.520846 274.688398 
L 533.530319 272.434956 
L 533.517257 270.181533 
L 533.481662 267.928353 
L 533.423538 265.675642 
L 533.342889 263.423624 
L 533.239725 261.172526 
L 533.114055 258.922571 
L 532.965893 256.673986 
L 532.795252 254.426995 
L 532.602151 252.181823 
L 532.386607 249.938694 
L 532.148644 247.697832 
L 531.888284 245.459462 
L 531.605554 243.223808 
L 531.300482 240.991092 
L 530.973098 238.761539 
L 530.623436 236.535371 
L 530.25153 234.312811 
L 529.857417 232.094082 
L 529.441137 229.879404 
L 529.002731 227.668999 
L 528.542244 225.463089 
L 528.05972 223.261895 
L 527.55521 221.065635 
L 527.028762 218.87453 
L 526.48043 216.688799 
L 525.910269 214.508661 
L 525.318335 212.334333 
L 524.704687 210.166034 
L 524.069388 208.003979 
L 523.4125 205.848385 
L 522.73409 203.699467 
L 522.034224 201.557441 
L 521.312974 199.422521 
L 520.570411 197.294919 
L 519.80661 195.17485 
L 519.021646 193.062524 
L 518.215598 190.958154 
L 517.388548 188.861949 
L 516.540577 186.774119 
L 515.671771 184.694874 
L 514.782216 182.62442 
L 513.872001 180.562965 
L 512.941218 178.510715 
L 511.989959 176.467876 
L 511.018319 174.434651 
L 510.026396 172.411244 
L 509.014289 170.397857 
L 507.982099 168.394692 
L 506.92993 166.401948 
L 505.857886 164.419826 
L 504.766074 162.448523 
L 503.654605 160.488237 
L 502.523588 158.539163 
L 501.373138 156.601496 
L 500.203369 154.675431 
L 499.014398 152.76116 
L 497.806344 150.858874 
L 496.579328 148.968763 
L 495.333472 147.091017 
L 494.068902 145.225823 
L 492.785743 143.373367 
L 491.484124 141.533836 
L 490.164175 139.707413 
L 488.826028 137.89428 
L 487.469817 136.094619 
L 486.095678 134.30861 
L 484.703748 132.536431 
L 483.294165 130.778261 
L 481.867072 129.034273 
L 480.422611 127.304644 
L 478.960925 125.589545 
L 477.482162 123.889149 
L 475.98647 122.203625 
L 474.473997 120.533142 
L 472.944895 118.877867 
L 471.399317 117.237966 
L 469.837418 115.613602 
L 468.259354 114.004938 
L 466.665282 112.412135 
L 465.055362 110.835352 
L 463.429754 109.274747 
L 461.788623 107.730476 
L 460.132131 106.202692 
L 458.460444 104.69155 
L 456.77373 103.1972 
L 455.072156 101.719792 
L 453.355894 100.259473 
L 451.625115 98.816389 
L 449.879992 97.390685 
L 448.120699 95.982503 
L 446.347413 94.591985 
L 444.56031 93.219268 
L 442.75957 91.864491 
L 440.945372 90.527788 
L 439.117898 89.209294 
L 437.277331 87.90914 
L 435.423854 86.627457 
L 433.557654 85.364373 
L 431.678916 84.120013 
L 429.787829 82.894502 
L 427.884581 81.687963 
L 425.969364 80.500517 
L 424.042367 79.332282 
L 422.103786 78.183375 
L 420.153812 77.053911 
L 418.192641 75.944003 
L 416.220469 74.853762 
L 414.237494 73.783296 
L 412.243913 72.732714 
L 410.239927 71.702119 
L 408.225734 70.691616 
L 406.201538 69.701305 
L 404.16754 68.731285 
L 402.123944 67.781653 
L 400.070953 66.852504 
L 398.008774 65.943931 
L 395.937613 65.056025 
L 393.857676 64.188875 
L 391.769171 63.342567 
L 389.672309 62.517186 
L 387.567297 61.712815 
L 385.454347 60.929533 
L 383.33367 60.16742 
L 381.205478 59.426552 
L 379.069984 58.707002 
L 376.927401 58.008842 
L 374.777944 57.332143 
L 372.621828 56.676972 
L 370.459268 56.043395 
L 368.29048 55.431474 
L 366.115682 54.841272 
L 363.93509 54.272847 
L 361.748923 53.726256 
L 359.5574 53.201553 
L 357.360739 52.698791 
L 355.159161 52.218021 
L 352.952885 51.759291 
L 350.742132 51.322645 
L 348.527123 50.908129 
L 346.30808 50.515783 
L 344.085225 50.145647 
L 341.858779 49.797757 
L 339.628966 49.472149 
L 337.396009 49.168855 
L 335.16013 48.887905 
L 332.921553 48.629328 
L 330.680503 48.393149 
L 328.437203 48.179392 
L 326.191877 47.988079 
L 323.944751 47.819228 
L 321.696049 47.672856 
L 319.445995 47.548978 
L 317.194815 47.447606 
L 314.942734 47.368751 
L 312.689977 47.312421 
L 310.43677 47.27862 
L 308.183337 47.267353 
L 308.183337 49.520823 
z
" clip-path="url(#pf59a9f16cf)" style="fill: none; stroke: #000000; stroke-width: 0.5; stroke-linejoin: miter"/>
   </g>
   <g id="patch_5">
    <path d="M 308.183337 495.707989 
L 305.952438 495.696835 
L 303.721762 495.663372 
L 301.491533 495.607605 
L 299.261973 495.529538 
L 297.033305 495.42918 
L 294.805752 495.306541 
L 292.579536 495.161633 
L 290.354881 494.99447 
L 288.132009 494.80507 
L 285.911142 494.593451 
L 283.692502 494.359634 
L 281.476311 494.103642 
L 279.262791 493.825502 
L 277.052163 493.525241 
L 274.844648 493.202889 
L 272.640467 492.858478 
L 270.43984 492.492043 
L 268.242988 492.103621 
L 266.050129 491.69325 
L 263.861484 491.260971 
L 261.677271 490.806827 
L 259.497708 490.330865 
L 257.323014 489.833131 
L 255.153406 489.313675 
L 252.989101 488.77255 
L 250.830315 488.209809 
L 248.677265 487.625509 
L 246.530165 487.019707 
L 244.38923 486.392466 
L 242.254675 485.743847 
L 240.126712 485.073915 
L 238.005555 484.382737 
L 235.891416 483.670382 
L 233.784506 482.936923 
L 231.685036 482.182431 
L 229.593216 481.406982 
L 227.509254 480.610654 
L 225.43336 479.793527 
L 223.365741 478.955682 
L 221.306603 478.097204 
L 219.256153 477.218177 
L 217.214596 476.31869 
L 215.182136 475.398832 
L 213.158975 474.458697 
L 211.145317 473.498377 
L 209.141363 472.517969 
L 207.147312 471.51757 
L 205.163366 470.497282 
L 203.189721 469.457205 
L 201.226575 468.397444 
L 199.274125 467.318106 
L 197.332566 466.219296 
L 195.402092 465.101127 
L 193.482896 463.963709 
L 191.57517 462.807157 
L 189.679104 461.631585 
L 187.794889 460.437111 
L 185.922713 459.223856 
L 184.062763 457.99194 
L 182.215224 456.741486 
L 180.380282 455.472619 
L 178.558121 454.185467 
L 176.748922 452.880158 
L 174.952866 451.556823 
L 173.170133 450.215593 
L 171.400901 448.856604 
L 169.645348 447.47999 
L 167.903648 446.08589 
L 166.175976 444.674443 
L 164.462505 443.24579 
L 162.763405 441.800074 
L 161.078848 440.33744 
L 159.409 438.858034 
L 157.75403 437.362003 
L 156.114103 435.849498 
L 154.489383 434.320669 
L 152.880032 432.77567 
L 151.286211 431.214655 
L 149.70808 429.63778 
L 148.145796 428.045202 
L 146.599516 426.437082 
L 145.069394 424.81358 
L 143.555583 423.174858 
L 142.058235 421.52108 
L 140.577499 419.852411 
L 139.113524 418.169019 
L 137.666455 416.471071 
L 136.236439 414.758738 
L 134.823616 413.03219 
L 133.42813 411.291601 
L 132.050118 409.537145 
L 130.689721 407.768996 
L 129.347072 405.987331 
L 128.022306 404.19233 
L 126.715557 402.384171 
L 125.426954 400.563035 
L 124.156627 398.729104 
L 122.904703 396.882562 
L 121.671306 395.023593 
L 120.45656 393.152384 
L 119.260586 391.26912 
L 118.083505 389.373992 
L 116.925433 387.467187 
L 115.786488 385.548897 
L 114.666781 383.619314 
L 113.566426 381.678631 
L 112.485533 379.727041 
L 111.424209 377.76474 
L 110.382561 375.791924 
L 109.360693 373.80879 
L 108.358707 371.815537 
L 107.376704 369.812364 
L 106.414781 367.799472 
L 105.473034 365.77706 
L 104.551559 363.745333 
L 103.650446 361.704493 
L 102.769787 359.654743 
L 101.909668 357.59629 
L 101.070177 355.529339 
L 100.251397 353.454096 
L 99.45341 351.370769 
L 98.676296 349.279567 
L 97.920133 347.180698 
L 97.184995 345.074373 
L 96.470958 342.960802 
L 95.778091 340.840196 
L 95.106465 338.712768 
L 94.456146 336.57873 
L 93.827199 334.438295 
L 93.219689 332.291678 
L 92.633674 330.139094 
L 92.069214 327.980757 
L 91.526365 325.816883 
L 91.005182 323.64769 
L 90.505717 321.473393 
L 90.028019 319.29421 
L 89.572136 317.110359 
L 89.138115 314.922059 
L 88.725997 312.729528 
L 88.335825 310.532985 
L 87.967638 308.332651 
L 87.621472 306.128745 
L 87.297363 303.921487 
L 86.995341 301.711099 
L 86.715439 299.497801 
L 86.457682 297.281815 
L 86.222099 295.063362 
L 86.008711 292.842664 
L 85.81754 290.619943 
L 85.648606 288.395422 
L 85.501925 286.169323 
L 85.377512 283.941868 
L 85.27538 281.713281 
L 85.195538 279.483783 
L 85.137994 277.253599 
L 85.102755 275.022951 
L 85.089824 272.792062 
L 85.099202 270.561155 
L 85.130889 268.330453 
L 85.18488 266.10018 
L 85.261171 263.870559 
L 85.359754 261.641811 
L 85.480619 259.414161 
L 85.623755 257.187831 
L 85.789146 254.963044 
L 85.976776 252.740021 
L 86.186627 250.518987 
L 86.418677 248.300161 
L 86.672903 246.083767 
L 86.949281 243.870026 
L 87.247781 241.65916 
L 87.568375 239.451389 
L 87.911031 237.246934 
L 88.275713 235.046016 
L 88.662386 232.848855 
L 89.071011 230.65567 
L 89.501547 228.466682 
L 89.953951 226.282107 
L 90.428177 224.102167 
L 90.924179 221.927077 
L 91.441907 219.757056 
L 91.981309 217.592321 
L 92.54233 215.433087 
L 93.124916 213.279572 
L 93.729007 211.131991 
L 94.354544 208.990557 
L 95.001463 206.855486 
L 95.6697 204.726991 
L 96.359189 202.605284 
L 97.069859 200.490578 
L 97.801641 198.383085 
L 98.554461 196.283015 
L 99.328244 194.190577 
L 100.122912 192.105982 
L 100.938385 190.029438 
L 101.774583 187.961152 
L 102.631422 185.901332 
L 103.508816 183.850183 
L 104.406677 181.80791 
L 105.324916 179.774717 
L 106.26344 177.750809 
L 107.222156 175.736387 
L 108.200968 173.731652 
L 109.199778 171.736806 
L 110.218486 169.752047 
L 111.256991 167.777575 
L 112.315188 165.813586 
L 113.392972 163.860277 
L 114.490234 161.917844 
L 115.606866 159.98648 
L 116.742755 158.066379 
L 117.897788 156.157732 
L 119.07185 154.260731 
L 120.264823 152.375565 
L 121.476587 150.502423 
L 122.707021 148.641493 
L 123.956004 146.792959 
L 125.223408 144.957007 
L 126.509109 143.133821 
L 127.812977 141.323583 
L 129.134882 139.526474 
L 130.474691 137.742674 
L 131.832271 135.972361 
L 133.207487 134.215711 
L 134.600199 132.472902 
L 136.01027 130.744107 
L 137.437558 129.029498 
L 138.88192 127.329248 
L 140.343213 125.643526 
L 141.821289 123.972501 
L 143.316001 122.316341 
L 144.8272 120.67521 
L 146.354735 119.049272 
L 147.898452 117.438692 
L 149.458197 115.843628 
L 151.033815 114.264242 
L 152.625148 112.70069 
L 154.232036 111.15313 
L 155.854319 109.621715 
L 157.491835 108.1066 
L 159.144421 106.607936 
L 160.81191 105.125872 
L 162.494135 103.660556 
L 164.19093 102.212136 
L 165.902124 100.780756 
L 167.627546 99.366559 
L 169.367023 97.969687 
L 171.120382 96.590279 
L 172.887447 95.228474 
L 174.668042 93.884407 
L 176.461988 92.558212 
L 178.269105 91.250023 
L 180.089215 89.959971 
L 181.922133 88.688184 
L 183.767678 87.434789 
L 185.625664 86.199912 
L 187.495906 84.983676 
L 189.378216 83.786204 
L 191.272407 82.607614 
L 193.178289 81.448024 
L 195.095671 80.307551 
L 197.024362 79.186308 
L 198.964168 78.084408 
L 200.914897 77.001961 
L 202.876352 75.939075 
L 204.848338 74.895857 
L 206.830657 73.87241 
L 208.823111 72.868837 
L 210.825502 71.885239 
L 212.837628 70.921713 
L 214.859288 69.978356 
L 216.890281 69.055263 
L 218.930403 68.152525 
L 220.979451 67.270234 
L 223.037218 66.408477 
L 225.103501 65.56734 
L 227.178091 64.746908 
L 229.260781 63.947262 
L 231.351364 63.168483 
L 233.44963 62.410648 
L 235.555369 61.673834 
L 237.668371 60.958113 
L 239.788424 60.263558 
L 241.915317 59.590238 
L 244.048837 58.93822 
L 246.18877 58.307569 
L 248.334902 57.698349 
L 250.487019 57.11062 
L 252.644906 56.544442 
L 254.808347 55.99987 
L 256.977124 55.47696 
L 259.151023 54.975763 
L 261.329825 54.49633 
L 263.513312 54.038708 
L 265.701266 53.602944 
L 267.893468 53.189081 
L 270.089699 52.79716 
L 272.28974 52.427221 
L 274.49337 52.0793 
L 276.700368 51.753433 
L 278.910515 51.449652 
L 281.12359 51.167986 
L 283.33937 50.908466 
L 285.557635 50.671115 
L 287.778162 50.455959 
L 290.00073 50.263019 
L 292.225115 50.092313 
L 294.451097 49.943859 
L 296.678452 49.817673 
L 298.906958 49.713766 
L 301.136391 49.632148 
L 303.366528 49.572829 
L 305.597148 49.535814 
L 307.828026 49.521106 
L 308.183337 49.520823 
L 308.183337 47.267353 
L 307.824437 47.267638 
L 305.571025 47.282495 
L 303.317874 47.319884 
L 301.065209 47.379802 
L 298.813257 47.462244 
L 296.562241 47.567201 
L 294.312388 47.694662 
L 292.063921 47.844615 
L 289.817067 48.017045 
L 287.572049 48.211934 
L 285.329092 48.429264 
L 283.088421 48.669012 
L 280.850259 48.931154 
L 278.61483 49.215664 
L 276.382359 49.522514 
L 274.153067 49.851673 
L 271.927178 50.203108 
L 269.704915 50.576784 
L 267.4865 50.972664 
L 265.272154 51.390707 
L 263.0621 51.830873 
L 260.856557 52.293117 
L 258.655747 52.777393 
L 256.45989 53.283652 
L 254.269205 53.811845 
L 252.083912 54.361917 
L 249.904228 54.933814 
L 247.730372 55.52748 
L 245.562562 56.142854 
L 243.401014 56.779874 
L 241.245943 57.438478 
L 239.097567 58.1186 
L 236.956099 58.820171 
L 234.821753 59.543121 
L 232.694744 60.287378 
L 230.575283 61.052868 
L 228.463584 61.839513 
L 226.359856 62.647236 
L 224.26431 63.475956 
L 222.177157 64.325589 
L 220.098603 65.19605 
L 218.028859 66.087254 
L 215.968129 66.99911 
L 213.916621 67.931527 
L 211.87454 68.884413 
L 209.842089 69.857671 
L 207.819473 70.851205 
L 205.806892 71.864915 
L 203.80455 72.8987 
L 201.812645 73.952456 
L 199.831377 75.026078 
L 197.860944 76.119459 
L 195.901544 77.232489 
L 193.953371 78.365057 
L 192.016621 79.51705 
L 190.091488 80.688353 
L 188.178164 81.878848 
L 186.276841 83.088416 
L 184.387708 84.316937 
L 182.510954 85.564288 
L 180.646768 86.830343 
L 178.795335 88.114977 
L 176.956841 89.41806 
L 175.131469 90.739463 
L 173.319402 92.079053 
L 171.520822 93.436697 
L 169.735908 94.812258 
L 167.964838 96.205599 
L 166.20779 97.616581 
L 164.46494 99.045063 
L 162.736461 100.490901 
L 161.022527 101.953952 
L 159.323309 103.434068 
L 157.638977 104.931103 
L 155.969699 106.444905 
L 154.315642 107.975325 
L 152.676972 109.522208 
L 151.053853 111.0854 
L 149.446446 112.664745 
L 147.854913 114.260085 
L 146.279412 115.87126 
L 144.720102 117.498109 
L 143.177138 119.14047 
L 141.650675 120.798178 
L 140.140864 122.471068 
L 138.647858 124.158972 
L 137.171805 125.861721 
L 135.712853 127.579145 
L 134.271148 129.311073 
L 132.846834 131.057331 
L 131.440054 132.817745 
L 130.050948 134.592138 
L 128.679654 136.380333 
L 127.326312 138.182152 
L 125.991054 139.997413 
L 124.674016 141.825937 
L 123.375328 143.667539 
L 122.095122 145.522035 
L 120.833523 147.389241 
L 119.59066 149.268969 
L 118.366656 151.161032 
L 117.161633 153.065239 
L 115.975712 154.981402 
L 114.809012 156.909328 
L 113.661649 158.848824 
L 112.533738 160.799697 
L 111.425392 162.761751 
L 110.336722 164.73479 
L 109.267836 166.718617 
L 108.218841 168.713034 
L 107.189843 170.71784 
L 106.180944 172.732837 
L 105.192245 174.757821 
L 104.223845 176.792591 
L 103.275841 178.836943 
L 102.348327 180.890672 
L 101.441397 182.953574 
L 100.55514 185.025442 
L 99.689646 187.106069 
L 98.845002 189.195247 
L 98.021291 191.292766 
L 97.218596 193.398417 
L 96.436998 195.51199 
L 95.676574 197.633274 
L 94.9374 199.762055 
L 94.219551 201.898121 
L 93.523098 204.041259 
L 92.848111 206.191255 
L 92.194657 208.347892 
L 91.562802 210.510956 
L 90.952609 212.680231 
L 90.364138 214.855498 
L 89.79745 217.036542 
L 89.2526 219.223143 
L 88.729642 221.415084 
L 88.22863 223.612144 
L 87.749613 225.814104 
L 87.29264 228.020745 
L 86.857755 230.231845 
L 86.445003 232.447183 
L 86.054424 234.666538 
L 85.686058 236.889687 
L 85.339942 239.116409 
L 85.016109 241.346481 
L 84.714593 243.579679 
L 84.435424 245.815781 
L 84.17863 248.054563 
L 83.944236 250.2958 
L 83.732265 252.53927 
L 83.54274 254.784747 
L 83.375678 257.032007 
L 83.231097 259.280825 
L 83.109011 261.530977 
L 83.009432 263.782237 
L 82.93237 266.03438 
L 82.877834 268.287181 
L 82.845827 270.540415 
L 82.836354 272.793856 
L 82.849416 275.047279 
L 82.885011 277.300459 
L 82.943136 279.553171 
L 83.023784 281.805188 
L 83.126948 284.056287 
L 83.252618 286.306241 
L 83.40078 288.554826 
L 83.571421 290.801817 
L 83.764523 293.04699 
L 83.980066 295.290119 
L 84.218029 297.53098 
L 84.478389 299.76935 
L 84.761119 302.005005 
L 85.066191 304.23772 
L 85.393575 306.467273 
L 85.743237 308.693441 
L 86.115144 310.916001 
L 86.509256 313.134731 
L 86.925536 315.349409 
L 87.363942 317.559813 
L 87.82443 319.765723 
L 88.306953 321.966918 
L 88.811463 324.163177 
L 89.337911 326.354282 
L 89.886243 328.540013 
L 90.456405 330.720151 
L 91.048339 332.894479 
L 91.661986 335.062779 
L 92.297285 337.224834 
L 92.954173 339.380428 
L 93.632583 341.529345 
L 94.332449 343.671372 
L 95.053699 345.806292 
L 95.796262 347.933893 
L 96.560064 350.053963 
L 97.345027 352.166288 
L 98.151075 354.270659 
L 98.978125 356.366863 
L 99.826096 358.454693 
L 100.694902 360.533939 
L 101.584457 362.604393 
L 102.494672 364.665847 
L 103.425455 366.718097 
L 104.376715 368.760937 
L 105.348354 370.794162 
L 106.340277 372.817569 
L 107.352384 374.830956 
L 108.384574 376.834121 
L 109.436743 378.826864 
L 110.508788 380.808987 
L 111.600599 382.780289 
L 112.712069 384.740576 
L 113.843085 386.68965 
L 114.993535 388.627316 
L 116.163305 390.553381 
L 117.352276 392.467653 
L 118.56033 394.369939 
L 119.787346 396.26005 
L 121.033201 398.137796 
L 122.297772 400.00299 
L 123.58093 401.855445 
L 124.882549 403.694977 
L 126.202498 405.5214 
L 127.540645 407.334533 
L 128.896856 409.134194 
L 130.270995 410.920203 
L 131.662926 412.692381 
L 133.072508 414.450552 
L 134.499601 416.194539 
L 135.944063 417.924169 
L 137.405748 419.639267 
L 138.884511 421.339664 
L 140.380204 423.025187 
L 141.892676 424.69567 
L 143.421778 426.350945 
L 144.967356 427.990847 
L 146.529255 429.61521 
L 148.10732 431.223874 
L 149.701392 432.816677 
L 151.311312 434.39346 
L 152.936919 435.954066 
L 154.57805 437.498337 
L 156.234542 439.02612 
L 157.906229 440.537262 
L 159.592944 442.031612 
L 161.294517 443.509021 
L 163.010779 444.96934 
L 164.741558 446.412423 
L 166.486681 447.838127 
L 168.245974 449.246309 
L 170.019261 450.636828 
L 171.806363 452.009545 
L 173.607103 453.364322 
L 175.421301 454.701024 
L 177.248775 456.019518 
L 179.089342 457.319672 
L 180.942819 458.601355 
L 182.809019 459.86444 
L 184.687757 461.1088 
L 186.578844 462.33431 
L 188.482092 463.540849 
L 190.39731 464.728295 
L 192.324306 465.89653 
L 194.262888 467.045437 
L 196.212862 468.174901 
L 198.174032 469.28481 
L 200.146204 470.375051 
L 202.129179 471.445516 
L 204.12276 472.496099 
L 206.126747 473.526693 
L 208.140939 474.537196 
L 210.165135 475.527508 
L 212.199133 476.497528 
L 214.24273 477.44716 
L 216.29572 478.376309 
L 218.357899 479.284881 
L 220.429061 480.172787 
L 222.508997 481.039938 
L 224.597502 481.886246 
L 226.694364 482.711627 
L 228.799376 483.515998 
L 230.912326 484.299279 
L 233.033003 485.061392 
L 235.161195 485.802261 
L 237.296689 486.521811 
L 239.439272 487.21997 
L 241.588729 487.896669 
L 243.744845 488.55184 
L 245.907405 489.185418 
L 248.076193 489.797338 
L 250.250992 490.38754 
L 252.431583 490.955966 
L 254.61775 491.502557 
L 256.809273 492.02726 
L 259.005934 492.530021 
L 261.207512 493.010791 
L 263.413788 493.469522 
L 265.624541 493.906167 
L 267.83955 494.320684 
L 270.058593 494.71303 
L 272.281448 495.083166 
L 274.507894 495.431055 
L 276.737707 495.756663 
L 278.970665 496.059957 
L 281.206543 496.340907 
L 283.44512 496.599484 
L 285.68617 496.835663 
L 287.92947 497.04942 
L 290.174796 497.240734 
L 292.421922 497.409585 
L 294.670624 497.555957 
L 296.920678 497.679835 
L 299.171858 497.781206 
L 301.423939 497.860061 
L 303.676696 497.916392 
L 305.929904 497.950193 
L 308.183337 497.96146 
L 308.183337 495.707989 
z
" clip-path="url(#pf59a9f16cf)" style="fill: none; stroke: #000000; stroke-width: 0.5; stroke-linejoin: miter"/>
   </g>
   <g id="text_1">
    <text style="font: 3px 'DejaVu Sans', 'Bitstream Vera Sans', 'Computer Modern Sans Serif', 'Lucida Grande', 'Verdana', 'Geneva', 'Lucid', 'Arial', 'Helvetica', 'Avant Garde', sans-serif; text-anchor: start" x="535.783861" y="273.754172" transform="rotate(-0 535.783861 273.754172)">Anton de Kom University of Suriname</text>
   </g>
   <g id="text_2">
    <text style="font: 3px 'DejaVu Sans', 'Bitstream Vera Sans', 'Computer Modern Sans Serif', 'Lucida Grande', 'Verdana', 'Geneva', 'Lucid', 'Arial', 'Helvetica', 'Avant Garde', sans-serif; text-anchor: end" x="80.582813" y="273.754172" transform="rotate(-0 80.582813 273.754172)">Polytechnic College Suriname</text>
   </g>
  </g>
 </g>
 <defs>
  <clipPath id="pf59a9f16cf">
   <path d="M 544.797743 272.614406 
C 544.797743 241.542487 538.677252 210.772703 526.786544 182.065993 
C 514.895835 153.359283 497.466153 127.27392 475.494988 105.302755 
C 453.523823 83.33159 427.43846 65.901908 398.73175 54.011199 
C 370.02504 42.120491 339.255256 36 308.183337 36 
C 277.111417 36 246.341634 42.120491 217.634923 54.011199 
C 188.928213 65.901908 162.84285 83.33159 140.871685 105.302755 
C 118.900521 127.27392 101.470838 153.359283 89.58013 182.065993 
C 77.689421 210.772703 71.56893 241.542487 71.56893 272.614406 
C 71.56893 303.686325 77.689421 334.456109 89.58013 363.162819 
C 101.470838 391.86953 118.900521 417.954893 140.871685 439.926057 
C 162.84285 461.897222 188.928213 479.326905 217.634923 491.217613 
C 246.341634 503.108322 277.111417 509.228812 308.183337 509.228812 
C 339.255256 509.228812 370.02504 503.108322 398.73175 491.217613 
C 427.43846 479.326905 453.523823 461.897222 475.494988 439.926057 
C 497.466153 417.954893 514.895835 391.86953 526.786544 363.162819 
C 538.677252 334.456109 544.797743 303.686325 544.797743 272.614406 
M 308.183337 272.614406 
C 308.183337 272.614406 308.183337 272.614406 308.183337 272.614406 
C 308.183337 272.614406 308.183337 272.614406 308.183337 272.614406 
C 308.183337 272.614406 308.183337 272.614406 308.183337 272.614406 
C 308.183337 272.614406 308.183337 272.614406 308.183337 272.614406 
C 308.183337 272.614406 308.183337 272.614406 308.183337 272.614406 
C 308.183337 272.614406 308.183337 272.614406 308.183337 272.614406 
C 308.183337 272.614406 308.183337 272.614406 308.183337 272.614406 
C 308.183337 272.614406 308.183337 272.614406 308.183337 272.614406 
C 308.183337 272.614406 308.183337 272.614406 308.183337 272.614406 
C 308.183337 272.614406 308.183337 272.614406 308.183337 272.614406 
C 308.183337 272.614406 308.183337 272.614406 308.183337 272.614406 
C 308.183337 272.614406 308.183337 272.614406 308.183337 272.614406 
C 308.183337 272.614406 308.183337 272.614406 308.183337 272.614406 
C 308.183337 272.614406 308.183337 272.614406 308.183337 272.614406 
C 308.183337 272.614406 308.183337 272.614406 308.183337 272.614406 
C 308.183337 272.614406 308.183337 272.614406 308.183337 272.614406 
z
"/>
  </clipPath>
 </defs>
</svg>
