<?xml version="1.0" encoding="utf-8" standalone="no"?>
<!DOCTYPE svg PUBLIC "-//W3C//DTD SVG 1.1//EN"
  "http://www.w3.org/Graphics/SVG/1.1/DTD/svg11.dtd">
<svg xmlns:xlink="http://www.w3.org/1999/xlink" width="597.166914pt" height="624.501612pt" viewBox="0 0 597.166914 624.501612" xmlns="http://www.w3.org/2000/svg" version="1.1">
 <metadata>
  <rdf:RDF xmlns:dc="http://purl.org/dc/elements/1.1/" xmlns:cc="http://creativecommons.org/ns#" xmlns:rdf="http://www.w3.org/1999/02/22-rdf-syntax-ns#">
   <cc:Work>
    <dc:type rdf:resource="http://purl.org/dc/dcmitype/StillImage"/>
    <dc:date>2024-11-16T03:20:16.649651</dc:date>
    <dc:format>image/svg+xml</dc:format>
    <dc:creator>
     <cc:Agent>
      <dc:title>Matplotlib v3.8.4, https://matplotlib.org/</dc:title>
     </cc:Agent>
    </dc:creator>
   </cc:Work>
  </rdf:RDF>
 </metadata>
 <defs>
  <style type="text/css">*{stroke-linejoin: round; stroke-linecap: butt}</style>
 </defs>
 <g id="figure_1">
  <g id="patch_1">
   <path d="M 0 624.501612 
L 597.166914 624.501612 
L 597.166914 0 
L 0 0 
z
" style="fill: #ffffff"/>
  </g>
  <g id="axes_1">
   <g id="patch_2">
    <path d="M 303.206807 88.170151 
L 305.45583 88.181397 
L 307.704628 88.215131 
L 309.952977 88.271352 
L 312.200651 88.350052 
L 314.447425 88.451225 
L 316.693076 88.574861 
L 318.937378 88.720946 
L 321.180107 88.889467 
L 323.421038 89.080406 
L 325.659948 89.293745 
L 327.896613 89.529462 
L 330.130809 89.787533 
L 332.362313 90.067933 
L 334.590901 90.370633 
L 336.81635 90.695604 
L 339.038439 91.042813 
L 341.256945 91.412225 
L 343.471645 91.803803 
L 345.682319 92.217508 
L 347.888746 92.653299 
L 350.090704 93.111132 
L 352.287974 93.590961 
L 354.480336 94.092739 
L 356.667571 94.616415 
L 358.84946 95.161937 
L 361.025784 95.729249 
L 363.196327 96.318297 
L 365.360871 96.92902 
L 367.519199 97.561357 
L 369.671096 98.215246 
L 371.816347 98.890621 
L 373.954737 99.587414 
L 376.086052 100.305556 
L 378.210079 101.044975 
L 380.326606 101.805597 
L 382.435421 102.587345 
L 384.536314 103.390142 
L 386.629073 104.213908 
L 388.71349 105.05856 
L 390.789357 105.924013 
L 392.856466 106.810182 
L 394.914609 107.716977 
L 396.963582 108.644307 
L 399.00318 109.592081 
L 401.033197 110.560203 
L 403.053432 111.548576 
L 405.063683 112.557102 
L 407.063748 113.58568 
L 409.053428 114.634206 
L 411.032522 115.702577 
L 413.000835 116.790685 
L 414.958168 117.898421 
L 416.904326 119.025675 
L 418.839114 120.172333 
L 420.762339 121.338282 
L 422.673809 122.523405 
L 424.573332 123.727582 
L 426.460719 124.950695 
L 428.33578 126.19262 
L 430.198329 127.453233 
L 432.048178 128.732408 
L 433.885144 130.030017 
L 435.709041 131.345931 
L 437.519689 132.680018 
L 439.316905 134.032144 
L 441.100511 135.402174 
L 442.870327 136.789972 
L 444.626177 138.195398 
L 446.367885 139.618312 
L 448.095278 141.058572 
L 449.808181 142.516033 
L 451.506425 143.99055 
L 453.189838 145.481976 
L 454.858254 146.990161 
L 456.511504 148.514955 
L 458.149424 150.056204 
L 459.77185 151.613755 
L 461.37862 153.187453 
L 462.239417 154.043615 
L 463.845807 152.437225 
L 462.976315 151.572415 
L 461.353315 149.982821 
L 459.714501 148.409537 
L 458.060036 146.852719 
L 456.390086 145.312524 
L 454.704818 143.789105 
L 453.0044 142.282614 
L 451.289003 140.793203 
L 449.558797 139.32102 
L 447.813957 137.866212 
L 446.054656 136.428925 
L 444.28107 135.009303 
L 442.493376 133.607487 
L 440.691755 132.223618 
L 438.876385 130.857834 
L 437.047448 129.510271 
L 435.205127 128.181065 
L 433.349606 126.870349 
L 431.481071 125.578253 
L 429.599709 124.304906 
L 427.705708 123.050437 
L 425.799257 121.81497 
L 423.880546 120.598629 
L 421.949769 119.401535 
L 420.007117 118.223809 
L 418.052786 117.065568 
L 416.086969 115.926928 
L 414.109865 114.808002 
L 412.121671 113.708904 
L 410.122585 112.629741 
L 408.112808 111.570624 
L 406.09254 110.531656 
L 404.061984 109.512943 
L 402.021343 108.514586 
L 399.97082 107.536685 
L 397.91062 106.579338 
L 395.840951 105.642641 
L 393.762018 104.726686 
L 391.674029 103.831567 
L 389.577194 102.957371 
L 387.471722 102.104188 
L 385.357824 101.272101 
L 383.23571 100.461195 
L 381.105594 99.67155 
L 378.967688 98.903245 
L 376.822206 98.156357 
L 374.669362 97.430962 
L 372.509373 96.72713 
L 370.342453 96.044933 
L 368.168819 95.38444 
L 365.988689 94.745715 
L 363.802282 94.128823 
L 361.609814 93.533825 
L 359.411507 92.960782 
L 357.207579 92.40975 
L 354.998251 91.880785 
L 352.783744 91.373939 
L 350.564279 90.889262 
L 348.340079 90.426805 
L 346.111365 89.986612 
L 343.878361 89.568728 
L 341.641289 89.173195 
L 339.400375 88.800051 
L 337.155841 88.449335 
L 334.907912 88.121082 
L 332.656813 87.815324 
L 330.402769 87.532092 
L 328.146005 87.271414 
L 325.886748 87.033316 
L 323.625222 86.817822 
L 321.361655 86.624954 
L 319.096272 86.454731 
L 316.829301 86.30717 
L 314.560967 86.182286 
L 312.291498 86.080091 
L 310.02112 86.000595 
L 307.750061 85.943807 
L 305.478547 85.909732 
L 303.206807 85.898373 
z
" clip-path="url(#p2b33a1ade8)" style="fill: #000080"/>
   </g>
   <g id="patch_3">
    <path d="M 462.239417 154.043615 
L 463.821765 155.641867 
L 465.388051 157.255861 
L 466.93812 158.885437 
L 468.471816 160.530433 
L 469.988985 162.190682 
L 471.489476 163.866021 
L 472.97314 165.55628 
L 474.439826 167.261291 
L 475.88939 168.980883 
L 477.321685 170.714885 
L 478.736569 172.463123 
L 480.1339 174.225422 
L 481.513539 176.001606 
L 482.875347 177.791497 
L 484.219188 179.594916 
L 485.544929 181.411684 
L 486.852435 183.241618 
L 488.141577 185.084535 
L 489.412226 186.940252 
L 490.664255 188.808582 
L 491.897538 190.689338 
L 493.111952 192.582333 
L 494.307375 194.487378 
L 495.483689 196.404281 
L 496.640775 198.332852 
L 497.778518 200.272896 
L 498.896804 202.224221 
L 499.995522 204.186631 
L 501.07456 206.15993 
L 502.133812 208.14392 
L 503.173171 210.138403 
L 504.192534 212.143181 
L 505.191798 214.158051 
L 506.170865 216.182813 
L 507.129634 218.217264 
L 508.068012 220.261202 
L 508.985904 222.31442 
L 509.883218 224.376715 
L 510.759865 226.44788 
L 511.615756 228.527707 
L 512.450807 230.615989 
L 513.264933 232.712517 
L 514.058054 234.817082 
L 514.83009 236.929472 
L 515.580964 239.049477 
L 516.3106 241.176884 
L 517.018927 243.311482 
L 517.705872 245.453055 
L 518.371368 247.601391 
L 519.015347 249.756275 
L 519.637745 251.91749 
L 520.238501 254.084822 
L 520.817554 256.258052 
L 521.374846 258.436964 
L 521.910321 260.62134 
L 522.423926 262.810961 
L 522.915609 265.005609 
L 523.385322 267.205064 
L 523.833017 269.409106 
L 524.25865 271.617515 
L 524.662178 273.830069 
L 525.04356 276.046548 
L 525.402759 278.26673 
L 525.739738 280.490393 
L 526.054465 282.717315 
L 526.346907 284.947272 
L 526.617034 287.180043 
L 526.864822 289.415402 
L 527.090243 291.653128 
L 527.293276 293.892996 
L 527.473901 296.134783 
L 527.6321 298.378264 
L 527.767856 300.623214 
L 527.881156 302.86941 
L 527.971988 305.116626 
L 528.040345 307.364638 
L 528.086218 309.613222 
L 528.109604 311.862152 
L 528.110499 314.111203 
L 528.088905 316.360151 
L 528.044822 318.60877 
L 527.978256 320.856836 
L 527.889212 323.104124 
L 527.777701 325.350409 
L 527.643733 327.595467 
L 527.487321 329.839073 
L 527.308481 332.081003 
L 527.107232 334.321032 
L 526.883592 336.558936 
L 526.637585 338.794493 
L 526.369236 341.027478 
L 526.07857 343.257667 
L 525.765617 345.484838 
L 525.430408 347.708769 
L 525.072978 349.929236 
L 524.69336 352.146019 
L 524.291595 354.358894 
L 523.867721 356.567641 
L 523.421781 358.772038 
L 522.95382 360.971867 
L 522.463884 363.166905 
L 521.952023 365.356935 
L 521.418287 367.541737 
L 520.862731 369.721092 
L 520.285409 371.894783 
L 519.686379 374.062592 
L 519.065702 376.224302 
L 518.423439 378.379698 
L 517.759654 380.528563 
L 517.074414 382.670683 
L 516.367788 384.805844 
L 515.639846 386.933832 
L 514.890661 389.054434 
L 514.120307 391.167438 
L 513.328862 393.272634 
L 512.516406 395.369809 
L 511.683018 397.458756 
L 510.828783 399.539264 
L 509.953786 401.611126 
L 509.058115 403.674135 
L 508.141858 405.728084 
L 507.205108 407.772767 
L 506.247959 409.807982 
L 505.270506 411.833523 
L 504.272846 413.849188 
L 503.25508 415.854777 
L 502.217309 417.850087 
L 501.159638 419.83492 
L 500.082171 421.809078 
L 498.985017 423.772362 
L 497.868285 425.724577 
L 496.732087 427.665527 
L 495.576537 429.595018 
L 494.40175 431.512857 
L 493.207844 433.418853 
L 491.994938 435.312815 
L 490.763153 437.194553 
L 489.512613 439.063879 
L 488.243442 440.920607 
L 486.955768 442.76455 
L 485.649719 444.595525 
L 484.325426 446.413347 
L 482.983021 448.217837 
L 481.622638 450.008812 
L 480.244415 451.786094 
L 478.848487 453.549505 
L 477.434996 455.298869 
L 476.004082 457.034011 
L 474.555888 458.754757 
L 473.09056 460.460935 
L 471.608243 462.152375 
L 470.109086 463.828908 
L 468.59324 465.490365 
L 467.060855 467.136581 
L 465.512084 468.767391 
L 463.947083 470.382633 
L 462.366008 471.982143 
L 460.769018 473.565764 
L 459.156271 475.133335 
L 457.52793 476.684701 
L 455.884156 478.219706 
L 454.225115 479.738197 
L 452.550972 481.240022 
L 450.861895 482.725031 
L 449.158053 484.193075 
L 447.439615 485.644007 
L 445.706755 487.077683 
L 443.959644 488.493958 
L 442.198458 489.892692 
L 440.423374 491.273745 
L 438.634567 492.636978 
L 436.832218 493.982255 
L 435.016507 495.309442 
L 433.187615 496.618405 
L 431.345725 497.909015 
L 429.491021 499.181141 
L 427.623688 500.434657 
L 425.743914 501.669437 
L 423.851887 502.885358 
L 421.947795 504.082298 
L 420.031829 505.260138 
L 418.104181 506.41876 
L 416.165043 507.558047 
L 414.214609 508.677887 
L 412.253075 509.778167 
L 410.280636 510.858776 
L 408.29749 511.919607 
L 406.303835 512.960555 
L 404.29987 513.981514 
L 402.285796 514.982382 
L 400.261814 515.96306 
L 398.228127 516.92345 
L 396.184938 517.863455 
L 394.132451 518.782982 
L 392.070871 519.681938 
L 390.000405 520.560233 
L 389.274635 520.862344 
L 390.144007 522.961194 
L 390.877108 522.656031 
L 392.968488 521.768864 
L 395.050891 520.860828 
L 397.124111 519.932013 
L 399.187938 518.982513 
L 401.242168 518.012422 
L 403.286594 517.021838 
L 405.321012 516.01086 
L 407.345219 514.979588 
L 409.359012 513.928126 
L 411.36219 512.85658 
L 413.354552 511.765055 
L 415.3359 510.653661 
L 417.306035 509.52251 
L 419.26476 508.371715 
L 421.21188 507.20139 
L 423.147199 506.011653 
L 425.070524 504.802622 
L 426.981663 503.574419 
L 428.880425 502.327166 
L 430.766619 501.060988 
L 432.640057 499.776012 
L 434.500552 498.472367 
L 436.347918 497.150181 
L 438.18197 495.809589 
L 440.002525 494.450723 
L 441.8094 493.07372 
L 443.602414 491.678717 
L 445.38139 490.265855 
L 447.146148 488.835273 
L 448.896512 487.387116 
L 450.632308 485.921528 
L 452.353361 484.438655 
L 454.059499 482.938646 
L 455.750552 481.421651 
L 457.426351 479.887822 
L 459.086729 478.337312 
L 460.731518 476.770276 
L 462.360555 475.18687 
L 463.973677 473.587254 
L 465.570722 471.971586 
L 467.151531 470.34003 
L 468.715946 468.692746 
L 470.26381 467.029902 
L 471.794968 465.351662 
L 473.309268 463.658195 
L 474.806557 461.94967 
L 476.286687 460.226257 
L 477.749509 458.48813 
L 479.194877 456.735461 
L 480.622646 454.968427 
L 482.032673 453.187204 
L 483.424819 451.391969 
L 484.798942 449.582903 
L 486.154907 447.760187 
L 487.492576 445.924002 
L 488.811818 444.074533 
L 490.112499 442.211964 
L 491.39449 440.336482 
L 492.657662 438.448273 
L 493.901889 436.547528 
L 495.127047 434.634435 
L 496.333012 432.709187 
L 497.519666 430.771975 
L 498.686888 428.822994 
L 499.834563 426.862439 
L 500.962575 424.890505 
L 502.070811 422.907389 
L 503.159161 420.913291 
L 504.227516 418.908409 
L 505.27577 416.892944 
L 506.303816 414.867097 
L 507.311553 412.831071 
L 508.29888 410.78507 
L 509.265697 408.729298 
L 510.211909 406.663961 
L 511.137421 404.589265 
L 512.04214 402.505418 
L 512.925975 400.412628 
L 513.788839 398.311105 
L 514.630644 396.201058 
L 515.451307 394.082698 
L 516.250747 391.956238 
L 517.028881 389.82189 
L 517.785634 387.679868 
L 518.520929 385.530385 
L 519.234693 383.373657 
L 519.926855 381.2099 
L 520.597344 379.039329 
L 521.246095 376.862161 
L 521.873042 374.678616 
L 522.478122 372.48891 
L 523.061275 370.293262 
L 523.622444 368.091894 
L 524.16157 365.885023 
L 524.678602 363.672872 
L 525.173487 361.455661 
L 525.646175 359.233612 
L 526.096619 357.006948 
L 526.524774 354.77589 
L 526.930598 352.540663 
L 527.31405 350.301489 
L 527.675091 348.058593 
L 528.013686 345.812198 
L 528.3298 343.56253 
L 528.623402 341.309813 
L 528.894462 339.054273 
L 529.142954 336.796136 
L 529.368852 334.535626 
L 529.572135 332.27297 
L 529.752781 330.008395 
L 529.910772 327.742126 
L 530.046094 325.474391 
L 530.158732 323.205416 
L 530.248674 320.935428 
L 530.315913 318.664654 
L 530.360441 316.393322 
L 530.382254 314.121657 
L 530.381349 311.849888 
L 530.357728 309.578242 
L 530.311391 307.306946 
L 530.242344 305.036226 
L 530.150594 302.766311 
L 530.036149 300.497426 
L 529.899022 298.229799 
L 529.739225 295.963657 
L 529.556776 293.699226 
L 529.351692 291.436733 
L 529.123993 289.176404 
L 528.873703 286.918465 
L 528.600847 284.663141 
L 528.305451 282.410659 
L 527.987546 280.161244 
L 527.647163 277.915119 
L 527.284335 275.672511 
L 526.899101 273.433644 
L 526.491497 271.19874 
L 526.061565 268.968024 
L 525.609348 266.741719 
L 525.13489 264.520047 
L 524.63824 262.303231 
L 524.119447 260.091493 
L 523.578563 257.885052 
L 523.015642 255.684131 
L 522.430741 253.488949 
L 521.823917 251.299725 
L 521.195231 249.116679 
L 520.544747 246.940029 
L 519.872529 244.769993 
L 519.178645 242.606787 
L 518.463164 240.450628 
L 517.726157 238.301732 
L 516.967699 236.160313 
L 516.187865 234.026585 
L 515.386733 231.900763 
L 514.564383 229.783057 
L 513.720897 227.673682 
L 512.85636 225.572846 
L 511.970859 223.48076 
L 511.064481 221.397634 
L 510.137317 219.323676 
L 509.189461 217.259093 
L 508.221007 215.204092 
L 507.232051 213.158877 
L 506.222693 211.123655 
L 505.193033 209.098627 
L 504.143176 207.083998 
L 503.073224 205.079967 
L 501.983286 203.086736 
L 500.873471 201.104504 
L 499.743889 199.133469 
L 498.594654 197.173828 
L 497.42588 195.225777 
L 496.237684 193.289511 
L 495.030186 191.365223 
L 493.803505 189.453107 
L 492.557764 187.553353 
L 491.293089 185.666151 
L 490.009605 183.79169 
L 488.707442 181.930157 
L 487.386728 180.081739 
L 486.047596 178.24662 
L 484.690181 176.424984 
L 483.314617 174.617013 
L 481.921043 172.822888 
L 480.509597 171.042788 
L 479.080421 169.276891 
L 477.633658 167.525375 
L 476.169453 165.788413 
L 474.687951 164.066179 
L 473.189301 162.358847 
L 471.673654 160.666586 
L 470.141159 158.989566 
L 468.591972 157.327955 
L 467.026246 155.681918 
L 465.444138 154.05162 
L 463.845807 152.437225 
z
" clip-path="url(#p2b33a1ade8)" style="fill: #0028ff"/>
   </g>
   <g id="patch_4">
    <path d="M 389.274635 520.862344 
L 387.192505 521.712619 
L 385.101977 522.54203 
L 383.003259 523.350495 
L 380.896561 524.137933 
L 378.782095 524.904264 
L 376.660071 525.649413 
L 374.530702 526.373305 
L 372.394201 527.075867 
L 370.250781 527.75703 
L 368.100656 528.416725 
L 365.944042 529.054885 
L 363.781155 529.671448 
L 361.61221 530.266352 
L 359.437425 530.839537 
L 357.257017 531.390946 
L 355.071203 531.920523 
L 352.880204 532.428216 
L 350.684237 532.913975 
L 348.483522 533.377749 
L 346.27828 533.819494 
L 344.06873 534.239164 
L 341.855094 534.636719 
L 339.637594 535.012117 
L 337.416451 535.365322 
L 335.191886 535.696299 
L 332.964123 536.005013 
L 330.733385 536.291435 
L 328.499894 536.555536 
L 326.263873 536.797288 
L 324.025547 537.016669 
L 321.785139 537.213656 
L 319.542873 537.38823 
L 317.298974 537.540372 
L 315.053665 537.670068 
L 312.807172 537.777305 
L 310.559718 537.862072 
L 308.31153 537.924361 
L 306.06283 537.964165 
L 303.813846 537.981481 
L 303.206807 537.9823 
L 303.206807 540.254078 
L 303.819977 540.253251 
L 306.091679 540.23576 
L 308.363092 540.195554 
L 310.63399 540.132636 
L 312.904145 540.047013 
L 315.17333 539.938693 
L 317.441319 539.807687 
L 319.707884 539.654007 
L 321.972799 539.477671 
L 324.235837 539.278694 
L 326.496773 539.057097 
L 328.755379 538.812902 
L 331.011431 538.546134 
L 333.264702 538.256819 
L 335.514968 537.944986 
L 337.762003 537.610667 
L 340.005582 537.253894 
L 342.245481 536.874703 
L 344.481477 536.473133 
L 346.713345 536.049224 
L 348.940862 535.603017 
L 351.163807 535.134558 
L 353.381955 534.643893 
L 355.595086 534.131072 
L 357.802978 533.596145 
L 360.005411 533.039166 
L 362.202164 532.460192 
L 364.393017 531.859279 
L 366.577752 531.236488 
L 368.75615 530.591881 
L 370.927993 529.925523 
L 373.093063 529.23748 
L 375.251146 528.527821 
L 377.402023 527.796617 
L 379.545482 527.043941 
L 381.681306 526.269869 
L 383.809284 525.474478 
L 385.929201 524.657846 
L 388.040846 523.820057 
L 390.144007 522.961194 
z
" clip-path="url(#p2b33a1ade8)" style="fill: #00d4ff"/>
   </g>
   <g id="patch_5">
    <path d="M 303.206807 537.9823 
L 300.957783 537.971055 
L 298.708985 537.93732 
L 296.460636 537.8811 
L 294.212962 537.802399 
L 291.966188 537.701226 
L 289.720537 537.57759 
L 287.476235 537.431505 
L 285.233506 537.262984 
L 282.992575 537.072045 
L 280.753665 536.858706 
L 278.517 536.622989 
L 276.282804 536.364918 
L 274.0513 536.084518 
L 271.822712 535.781818 
L 269.597263 535.456847 
L 267.375174 535.109638 
L 265.156669 534.740226 
L 262.941968 534.348648 
L 260.731294 533.934943 
L 258.524867 533.499152 
L 256.322909 533.041319 
L 254.125639 532.56149 
L 251.933277 532.059712 
L 249.746042 531.536036 
L 247.564153 530.990515 
L 245.387829 530.423202 
L 243.217286 529.834154 
L 241.052743 529.223431 
L 238.894414 528.591094 
L 236.742517 527.937205 
L 234.597266 527.26183 
L 232.458876 526.565037 
L 230.327561 525.846895 
L 228.203534 525.107476 
L 226.087007 524.346855 
L 223.978192 523.565106 
L 221.877299 522.762309 
L 219.78454 521.938543 
L 217.700123 521.093891 
L 215.624256 520.228438 
L 213.557147 519.342269 
L 211.499004 518.435475 
L 209.450031 517.508144 
L 207.410434 516.56037 
L 205.380416 515.592248 
L 203.360181 514.603875 
L 201.34993 513.595349 
L 199.349865 512.566771 
L 197.360186 511.518245 
L 195.381091 510.449874 
L 193.412778 509.361767 
L 191.455445 508.25403 
L 189.509287 507.126777 
L 187.574499 505.980118 
L 185.651274 504.814169 
L 183.739804 503.629046 
L 181.840281 502.424869 
L 179.952894 501.201756 
L 178.077833 499.959832 
L 176.215285 498.699219 
L 174.365435 497.420043 
L 172.52847 496.122434 
L 170.704572 494.80652 
L 168.893924 493.472434 
L 167.096708 492.120307 
L 165.313102 490.750277 
L 163.543286 489.362479 
L 161.787436 487.957053 
L 160.045728 486.534139 
L 158.318336 485.093879 
L 156.605432 483.636418 
L 154.907189 482.161901 
L 153.223775 480.670475 
L 151.555359 479.16229 
L 149.902109 477.637497 
L 148.264189 476.096247 
L 146.641763 474.538696 
L 145.034993 472.964999 
L 143.444041 471.375312 
L 141.869064 469.769796 
L 140.310222 468.148611 
L 138.767668 466.511919 
L 137.241559 464.859883 
L 135.732046 463.192669 
L 134.23928 461.510444 
L 132.763411 459.813375 
L 131.304586 458.101633 
L 129.862951 456.375388 
L 128.43865 454.634814 
L 127.031827 452.880083 
L 125.64262 451.111373 
L 124.27117 449.328859 
L 122.917613 447.53272 
L 121.582085 445.723135 
L 120.264719 443.900286 
L 118.965647 442.064354 
L 117.684999 440.215524 
L 116.422903 438.35398 
L 115.179486 436.479908 
L 113.954871 434.593496 
L 112.749181 432.694932 
L 111.562537 430.784407 
L 110.395057 428.862111 
L 109.246857 426.928236 
L 108.118054 424.982977 
L 107.00876 423.026526 
L 105.919085 421.059081 
L 104.849139 419.080838 
L 103.799028 417.091994 
L 102.768858 415.092749 
L 101.758732 413.083302 
L 100.76875 411.063854 
L 99.799012 409.034608 
L 98.849614 406.995766 
L 97.920652 404.947532 
L 97.012219 402.890111 
L 96.124404 400.823709 
L 95.420688 399.144054 
L 93.321838 400.013426 
L 94.032663 401.710047 
L 94.929445 403.797322 
L 95.847055 405.875525 
L 96.7854 407.944448 
L 97.744387 410.003885 
L 98.723921 412.053628 
L 99.723902 414.093474 
L 100.744232 416.123218 
L 101.784808 418.142658 
L 102.845526 420.151591 
L 103.92628 422.149817 
L 105.026961 424.137135 
L 106.147461 426.113348 
L 107.287666 428.078257 
L 108.447463 430.031665 
L 109.626736 431.973379 
L 110.825367 433.903202 
L 112.043235 435.820943 
L 113.28022 437.72641 
L 114.536197 439.619412 
L 115.811041 441.499759 
L 117.104625 443.367265 
L 118.416819 445.221741 
L 119.747491 447.063003 
L 121.09651 448.890866 
L 122.463739 450.705148 
L 123.849042 452.505667 
L 125.252281 454.292243 
L 126.673316 456.064698 
L 128.112003 457.822854 
L 129.5682 459.566536 
L 131.04176 461.295569 
L 132.532537 463.009779 
L 134.040382 464.708997 
L 135.565142 466.393052 
L 137.106667 468.061775 
L 138.664802 469.714999 
L 140.23939 471.35256 
L 141.830275 472.974293 
L 143.437298 474.580037 
L 145.060298 476.16963 
L 146.699112 477.742914 
L 148.353577 479.299732 
L 150.023527 480.839927 
L 151.708795 482.363346 
L 153.409213 483.869837 
L 155.12461 485.359248 
L 156.854816 486.831431 
L 158.599656 488.286239 
L 160.358958 489.723526 
L 162.132543 491.143149 
L 163.920237 492.544964 
L 165.721858 493.928834 
L 167.537229 495.294618 
L 169.366166 496.64218 
L 171.208486 497.971386 
L 173.064007 499.282102 
L 174.932542 500.574198 
L 176.813904 501.847545 
L 178.707905 503.102014 
L 180.614356 504.337481 
L 182.533067 505.553822 
L 184.463844 506.750916 
L 186.406496 507.928642 
L 188.360828 509.086883 
L 190.326644 510.225523 
L 192.303748 511.344449 
L 194.291942 512.443548 
L 196.291028 513.52271 
L 198.300805 514.581828 
L 200.321073 515.620795 
L 202.351629 516.639508 
L 204.392271 517.637865 
L 206.442794 518.615766 
L 208.502993 519.573113 
L 210.572662 520.50981 
L 212.651595 521.425765 
L 214.739584 522.320884 
L 216.836419 523.19508 
L 218.941891 524.048263 
L 221.055789 524.88035 
L 223.177903 525.691256 
L 225.308019 526.480901 
L 227.445925 527.249206 
L 229.591407 527.996094 
L 231.744251 528.72149 
L 233.904241 529.425321 
L 236.071161 530.107518 
L 238.244794 530.768012 
L 240.424924 531.406736 
L 242.611332 532.023628 
L 244.803799 532.618626 
L 247.002106 533.191669 
L 249.206034 533.742701 
L 251.415362 534.271666 
L 253.629869 534.778513 
L 255.849334 535.263189 
L 258.073535 535.725646 
L 260.302248 536.165839 
L 262.535253 536.583723 
L 264.772324 536.979257 
L 267.013239 537.3524 
L 269.257773 537.703116 
L 271.505701 538.031369 
L 273.7568 538.337127 
L 276.010844 538.62036 
L 278.267608 538.881038 
L 280.526865 539.119135 
L 282.788391 539.334629 
L 285.051958 539.527497 
L 287.317341 539.69772 
L 289.584312 539.845281 
L 291.852646 539.970165 
L 294.122116 540.07236 
L 296.392493 540.151856 
L 298.663552 540.208644 
L 300.935066 540.24272 
L 303.206807 540.254078 
z
" clip-path="url(#p2b33a1ade8)" style="fill: #7dff7a"/>
   </g>
   <g id="patch_6">
    <path d="M 95.420688 399.144054 
L 94.570413 397.061924 
L 93.741002 394.971396 
L 92.932537 392.872678 
L 92.145099 390.76598 
L 91.378768 388.651514 
L 90.633619 386.52949 
L 89.909727 384.400121 
L 89.207165 382.26362 
L 88.526002 380.1202 
L 87.866308 377.970075 
L 87.228147 375.813461 
L 86.611584 373.650574 
L 86.01668 371.481629 
L 85.443495 369.306844 
L 84.892086 367.126436 
L 84.362509 364.940622 
L 83.854816 362.749623 
L 83.369058 360.553656 
L 82.905283 358.352941 
L 82.463538 356.147699 
L 82.043868 353.938149 
L 81.646314 351.724513 
L 81.270915 349.507013 
L 80.91771 347.28587 
L 80.586734 345.061305 
L 80.278019 342.833542 
L 79.991597 340.602804 
L 79.727497 338.369313 
L 79.485744 336.133292 
L 79.266363 333.894966 
L 79.069376 331.654558 
L 78.894803 329.412292 
L 78.74266 327.168393 
L 78.612964 324.923084 
L 78.505727 322.676591 
L 78.42096 320.429137 
L 78.358671 318.180949 
L 78.318867 315.932249 
L 78.301552 313.683265 
L 78.306726 311.434219 
L 78.334391 309.185338 
L 78.384543 306.936846 
L 78.457177 304.688968 
L 78.552285 302.441928 
L 78.669859 300.195952 
L 78.809886 297.951264 
L 78.972353 295.708089 
L 79.157243 293.46665 
L 79.364538 291.227172 
L 79.594217 288.989879 
L 79.846257 286.754995 
L 80.120633 284.522743 
L 80.417317 282.293346 
L 80.73628 280.067027 
L 81.07749 277.844009 
L 81.440913 275.624515 
L 81.826512 273.408765 
L 82.234249 271.196983 
L 82.664083 268.989388 
L 83.115971 266.786202 
L 83.589868 264.587644 
L 84.085726 262.393936 
L 84.603497 260.205296 
L 85.143127 258.021943 
L 85.704564 255.844095 
L 86.287751 253.67197 
L 86.892629 251.505786 
L 87.519139 249.345759 
L 88.167218 247.192105 
L 88.8368 245.045039 
L 89.527819 242.904776 
L 90.240205 240.77153 
L 90.973888 238.645515 
L 91.728795 236.526943 
L 92.504849 234.416025 
L 93.301972 232.312974 
L 94.120087 230.217999 
L 94.959109 228.131309 
L 95.818957 226.053114 
L 96.699543 223.983621 
L 97.600779 221.923038 
L 98.522576 219.871569 
L 99.464841 217.829421 
L 100.42748 215.796798 
L 101.410397 213.773902 
L 102.413494 211.760937 
L 103.436669 209.758103 
L 104.479822 207.765601 
L 105.542847 205.78363 
L 106.625638 203.812387 
L 107.728087 201.852072 
L 108.850084 199.902878 
L 109.991516 197.965002 
L 111.15227 196.038637 
L 112.332229 194.123975 
L 113.531275 192.221209 
L 114.749289 190.330528 
L 115.986148 188.452121 
L 117.24173 186.586177 
L 118.515907 184.732882 
L 119.808554 182.892421 
L 121.11954 181.064978 
L 122.448735 179.250736 
L 123.796005 177.449877 
L 125.161216 175.66258 
L 126.544232 173.889024 
L 127.944914 172.129387 
L 129.363122 170.383845 
L 130.798714 168.652571 
L 132.251547 166.93574 
L 133.721475 165.233523 
L 135.208352 163.54609 
L 136.712028 161.87361 
L 138.232354 160.21625 
L 139.769176 158.574176 
L 141.322343 156.947552 
L 142.891698 155.336541 
L 144.174196 154.043615 
L 142.567806 152.437225 
L 141.272353 153.743211 
L 139.687146 155.370495 
L 138.118291 157.013549 
L 136.565945 158.67221 
L 135.030263 160.346311 
L 133.511398 162.035685 
L 132.009502 163.740163 
L 130.524726 165.459574 
L 129.057218 167.193747 
L 127.607125 168.942508 
L 126.174592 170.705682 
L 124.759762 172.483093 
L 123.362776 174.274563 
L 121.983775 176.079914 
L 120.622896 177.898963 
L 119.280275 179.731531 
L 117.956046 181.577433 
L 116.650343 183.436484 
L 115.363294 185.3085 
L 114.095031 187.193292 
L 112.845678 189.090672 
L 111.615361 191.000451 
L 110.404203 192.922437 
L 109.212325 194.856439 
L 108.039847 196.802262 
L 106.886885 198.759713 
L 105.753554 200.728595 
L 104.639969 202.708712 
L 103.546241 204.699866 
L 102.472478 206.701857 
L 101.418789 208.714486 
L 100.385278 210.73755 
L 99.37205 212.770849 
L 98.379204 214.814177 
L 97.406842 216.867332 
L 96.455059 218.930108 
L 95.523951 221.002298 
L 94.613611 223.083696 
L 93.72413 225.174093 
L 92.855597 227.27328 
L 92.0081 229.381047 
L 91.181722 231.497183 
L 90.376546 233.621478 
L 89.592653 235.753718 
L 88.830122 237.89369 
L 88.089028 240.04118 
L 87.369445 242.195974 
L 86.671446 244.357855 
L 85.995101 246.526609 
L 85.340476 248.702017 
L 84.707638 250.883863 
L 84.096649 253.071927 
L 83.507572 255.265993 
L 82.940464 257.465839 
L 82.395383 259.671246 
L 81.872382 261.881994 
L 81.371515 264.097861 
L 80.892831 266.318626 
L 80.436379 268.544066 
L 80.002203 270.77396 
L 79.590347 273.008084 
L 79.200853 275.246215 
L 78.83376 277.488128 
L 78.489103 279.733601 
L 78.166918 281.982407 
L 77.867237 284.234324 
L 77.59009 286.489124 
L 77.335504 288.746583 
L 77.103505 291.006474 
L 76.894117 293.268573 
L 76.707359 295.532653 
L 76.543251 297.798487 
L 76.401809 300.065848 
L 76.283048 302.334511 
L 76.186978 304.604248 
L 76.113611 306.874832 
L 76.062953 309.146036 
L 76.035009 311.417633 
L 76.029781 313.689396 
L 76.047272 315.961098 
L 76.087478 318.232511 
L 76.150396 320.503409 
L 76.236019 322.773564 
L 76.344339 325.042749 
L 76.475346 327.310738 
L 76.629025 329.577303 
L 76.805362 331.842218 
L 77.004338 334.105256 
L 77.225935 336.366192 
L 77.47013 338.624798 
L 77.736898 340.88085 
L 78.026213 343.134121 
L 78.338046 345.384387 
L 78.672366 347.631422 
L 79.029138 349.875001 
L 79.408329 352.1149 
L 79.809899 354.350896 
L 80.233808 356.582764 
L 80.680015 358.810281 
L 81.148474 361.033226 
L 81.639139 363.251374 
L 82.151961 365.464505 
L 82.686887 367.672397 
L 83.243866 369.87483 
L 83.82284 372.071583 
L 84.423753 374.262436 
L 85.046544 376.447171 
L 85.691151 378.625569 
L 86.357509 380.797411 
L 87.045552 382.962482 
L 87.755211 385.120565 
L 88.486415 387.271442 
L 89.239091 389.414901 
L 90.013163 391.550725 
L 90.808555 393.678703 
L 91.625186 395.79862 
L 92.462975 397.910264 
L 93.321838 400.013426 
z
" clip-path="url(#p2b33a1ade8)" style="fill: #ffe600"/>
   </g>
   <g id="patch_7">
    <path d="M 144.174196 154.043615 
L 145.772448 152.461267 
L 147.386442 150.894981 
L 149.016018 149.344912 
L 150.661014 147.811216 
L 152.321263 146.294047 
L 153.996602 144.793556 
L 155.686861 143.309893 
L 157.391872 141.843206 
L 159.111464 140.393643 
L 160.845466 138.961347 
L 162.593704 137.546463 
L 164.356003 136.149132 
L 166.132187 134.769493 
L 167.922078 133.407685 
L 169.725497 132.063844 
L 171.542265 130.738104 
L 173.372199 129.430597 
L 175.215116 128.141455 
L 177.070833 126.870806 
L 178.939163 125.618777 
L 180.819919 124.385494 
L 182.712915 123.17108 
L 184.617959 121.975657 
L 186.534862 120.799343 
L 188.463433 119.642257 
L 190.403477 118.504514 
L 192.354802 117.386228 
L 194.317212 116.287511 
L 196.290511 115.208472 
L 198.274501 114.14922 
L 200.268984 113.109861 
L 202.273762 112.090498 
L 204.288632 111.091234 
L 206.313394 110.112168 
L 208.347845 109.153398 
L 210.391783 108.21502 
L 212.445001 107.297128 
L 214.507296 106.399814 
L 216.578461 105.523168 
L 217.138978 105.290107 
L 216.269606 103.191257 
L 215.703427 103.426672 
L 213.611341 104.312174 
L 211.528215 105.218551 
L 209.454257 106.145715 
L 207.389674 107.093571 
L 205.334673 108.062026 
L 203.289458 109.050981 
L 201.254236 110.060339 
L 199.229208 111.089999 
L 197.214579 112.139857 
L 195.210548 113.209808 
L 193.217317 114.299746 
L 191.235085 115.409561 
L 189.26405 116.539143 
L 187.304409 117.688378 
L 185.356358 118.857152 
L 183.420092 120.045348 
L 181.495804 121.252847 
L 179.583688 122.479527 
L 177.683934 123.725268 
L 175.796732 124.989943 
L 173.922271 126.273427 
L 172.060738 127.575591 
L 170.21232 128.896304 
L 168.377201 130.235436 
L 166.555565 131.592852 
L 164.747594 132.968415 
L 162.953469 134.36199 
L 161.173369 135.773435 
L 159.407473 137.202611 
L 157.655956 138.649374 
L 155.918994 140.11358 
L 154.19676 141.595081 
L 152.489428 143.093731 
L 150.797167 144.609379 
L 149.120147 146.141873 
L 147.458536 147.69106 
L 145.812499 149.256786 
L 144.182201 150.838894 
L 142.567806 152.437225 
z
" clip-path="url(#p2b33a1ade8)" style="fill: #ff4700"/>
   </g>
   <g id="patch_8">
    <path d="M 217.138978 105.290107 
L 219.221108 104.439832 
L 221.311636 103.610421 
L 223.410354 102.801956 
L 225.517052 102.014518 
L 227.631518 101.248187 
L 229.753542 100.503038 
L 231.882911 99.779146 
L 234.019412 99.076584 
L 236.162833 98.395421 
L 238.312957 97.735727 
L 240.469571 97.097566 
L 242.632458 96.481003 
L 244.801403 95.886099 
L 246.976188 95.312914 
L 249.156597 94.761505 
L 251.34241 94.231928 
L 253.53341 93.724235 
L 255.729377 93.238477 
L 257.930091 92.774702 
L 260.135334 92.332957 
L 262.344883 91.913287 
L 264.558519 91.515733 
L 266.776019 91.140334 
L 268.997163 90.787129 
L 271.221727 90.456153 
L 273.44949 90.147438 
L 275.680228 89.861016 
L 277.91372 89.596916 
L 280.14974 89.355163 
L 282.388066 89.135782 
L 284.628474 88.938795 
L 286.87074 88.764222 
L 289.11464 88.612079 
L 291.359948 88.482383 
L 293.606442 88.375146 
L 295.853895 88.290379 
L 298.102084 88.22809 
L 300.350783 88.188286 
L 302.599767 88.170971 
L 303.206807 88.170151 
L 303.206807 85.898373 
L 302.593636 85.8992 
L 300.321934 85.916691 
L 298.050521 85.956897 
L 295.779623 86.019815 
L 293.509468 86.105438 
L 291.240283 86.213758 
L 288.972295 86.344764 
L 286.705729 86.498444 
L 284.440814 86.674781 
L 282.177776 86.873757 
L 279.91684 87.095354 
L 277.658234 87.339549 
L 275.402182 87.606317 
L 273.148911 87.895632 
L 270.898645 88.207465 
L 268.651611 88.541785 
L 266.408031 88.898557 
L 264.168132 89.277748 
L 261.932136 89.679318 
L 259.700268 90.103227 
L 257.472751 90.549434 
L 255.249807 91.017893 
L 253.031658 91.508558 
L 250.818527 92.02138 
L 248.610635 92.556306 
L 246.408202 93.113285 
L 244.211449 93.692259 
L 242.020596 94.293172 
L 239.835861 94.915963 
L 237.657464 95.56057 
L 235.485621 96.226928 
L 233.32055 96.914971 
L 231.162468 97.62463 
L 229.01159 98.355834 
L 226.868131 99.10851 
L 224.732307 99.882582 
L 222.60433 100.677974 
L 220.484413 101.494605 
L 218.372768 102.332394 
L 216.269606 103.191257 
z
" clip-path="url(#p2b33a1ade8)" style="fill: #800000"/>
   </g>
   <g id="PatchCollection_1">
    <path d="M 95.420688 399.144054 
L 95.420688 399.144054 
L 94.570413 397.061924 
L 93.741002 394.971396 
L 92.932537 392.872678 
L 92.145099 390.76598 
L 91.378768 388.651514 
L 90.633619 386.52949 
L 89.909727 384.400121 
L 89.207165 382.26362 
L 88.526002 380.1202 
L 87.866308 377.970075 
L 87.228147 375.813461 
L 86.611584 373.650574 
L 86.01668 371.481629 
L 85.443495 369.306844 
L 84.892086 367.126436 
L 84.362509 364.940622 
L 83.854816 362.749623 
L 83.369058 360.553656 
L 82.905283 358.352941 
L 82.463538 356.147699 
L 82.043868 353.938149 
L 81.646314 351.724513 
L 81.270915 349.507013 
L 80.91771 347.28587 
L 80.586734 345.061305 
L 80.278019 342.833542 
L 79.991597 340.602804 
L 79.727497 338.369313 
L 79.485744 336.133292 
L 79.266363 333.894966 
L 79.069376 331.654558 
L 78.894803 329.412292 
L 78.74266 327.168393 
L 78.612964 324.923084 
L 78.505727 322.676591 
L 78.42096 320.429137 
L 78.358671 318.180949 
L 78.318867 315.932249 
L 78.301552 313.683265 
L 78.300732 313.076226 
L 78.300732 313.076226 
Q 303.206807 313.076226 217.138978 105.290107 
L 217.138978 105.290107 
L 217.138978 105.290107 
L 219.221108 104.439832 
L 221.311636 103.610421 
L 223.410354 102.801956 
L 225.517052 102.014518 
L 227.631518 101.248187 
L 229.753542 100.503038 
L 231.882911 99.779146 
L 234.019412 99.076584 
L 236.162833 98.395421 
L 238.312957 97.735727 
L 240.469571 97.097566 
L 242.632458 96.481003 
L 244.801403 95.886099 
L 246.976188 95.312914 
L 249.156597 94.761505 
L 251.34241 94.231928 
L 253.53341 93.724235 
L 255.729377 93.238477 
L 257.930091 92.774702 
L 260.135334 92.332957 
L 262.344883 91.913287 
L 264.558519 91.515733 
L 266.776019 91.140334 
L 268.997163 90.787129 
L 271.221727 90.456153 
L 273.44949 90.147438 
L 275.680228 89.861016 
L 277.91372 89.596916 
L 280.14974 89.355163 
L 282.388066 89.135782 
L 284.628474 88.938795 
L 286.87074 88.764222 
L 289.11464 88.612079 
L 291.359948 88.482383 
L 293.606442 88.375146 
L 295.853895 88.290379 
L 298.102084 88.22809 
L 300.350783 88.188286 
L 302.599767 88.170971 
L 303.206807 88.170151 
L 303.206807 88.170151 
Q 303.206807 313.076226 95.420688 399.144054 
z
" clip-path="url(#p2b33a1ade8)" style="fill: #ffe600; fill-opacity: 0.5; stroke: #808080; stroke-opacity: 0.5; stroke-width: 0.1"/>
    <path d="M 389.274635 520.862344 
L 389.274635 520.862344 
L 387.192505 521.712619 
L 385.101977 522.54203 
L 383.003259 523.350495 
L 380.896561 524.137933 
L 378.782095 524.904264 
L 376.660071 525.649413 
L 374.530702 526.373305 
L 372.394201 527.075867 
L 370.250781 527.75703 
L 368.100656 528.416725 
L 365.944042 529.054885 
L 363.781155 529.671448 
L 361.61221 530.266352 
L 359.437425 530.839537 
L 357.257017 531.390946 
L 355.071203 531.920523 
L 352.880204 532.428216 
L 350.684237 532.913975 
L 348.483522 533.377749 
L 346.27828 533.819494 
L 344.06873 534.239164 
L 341.855094 534.636719 
L 339.637594 535.012117 
L 337.416451 535.365322 
L 335.191886 535.696299 
L 332.964123 536.005013 
L 330.733385 536.291435 
L 328.499894 536.555536 
L 326.263873 536.797288 
L 324.025547 537.016669 
L 321.785139 537.213656 
L 319.542873 537.38823 
L 317.298974 537.540372 
L 315.053665 537.670068 
L 312.807172 537.777305 
L 310.559718 537.862072 
L 308.31153 537.924361 
L 306.06283 537.964165 
L 303.813846 537.981481 
L 303.206807 537.9823 
L 303.206807 537.9823 
Q 303.206807 313.076226 144.174196 154.043615 
L 144.174196 154.043615 
L 144.174196 154.043615 
L 145.772448 152.461267 
L 147.386442 150.894981 
L 149.016018 149.344912 
L 150.661014 147.811216 
L 152.321263 146.294047 
L 153.996602 144.793556 
L 155.686861 143.309893 
L 157.391872 141.843206 
L 159.111464 140.393643 
L 160.845466 138.961347 
L 162.593704 137.546463 
L 164.356003 136.149132 
L 166.132187 134.769493 
L 167.922078 133.407685 
L 169.725497 132.063844 
L 171.542265 130.738104 
L 173.372199 129.430597 
L 175.215116 128.141455 
L 177.070833 126.870806 
L 178.939163 125.618777 
L 180.819919 124.385494 
L 182.712915 123.17108 
L 184.617959 121.975657 
L 186.534862 120.799343 
L 188.463433 119.642257 
L 190.403477 118.504514 
L 192.354802 117.386228 
L 194.317212 116.287511 
L 196.290511 115.208472 
L 198.274501 114.14922 
L 200.268984 113.109861 
L 202.273762 112.090498 
L 204.288632 111.091234 
L 206.313394 110.112168 
L 208.347845 109.153398 
L 210.391783 108.21502 
L 212.445001 107.297128 
L 214.507296 106.399814 
L 216.578461 105.523168 
L 217.138978 105.290107 
L 217.138978 105.290107 
Q 303.206807 313.076226 389.274635 520.862344 
z
" clip-path="url(#p2b33a1ade8)" style="fill: #00d4ff; fill-opacity: 0.5; stroke: #808080; stroke-opacity: 0.5; stroke-width: 0.1"/>
    <path d="M 462.239417 154.043615 
L 462.239417 154.043615 
L 463.821765 155.641867 
L 465.388051 157.255861 
L 466.93812 158.885437 
L 468.471816 160.530433 
L 469.988985 162.190682 
L 471.489476 163.866021 
L 472.97314 165.55628 
L 474.439826 167.261291 
L 475.88939 168.980883 
L 477.321685 170.714885 
L 478.736569 172.463123 
L 480.1339 174.225422 
L 481.513539 176.001606 
L 482.875347 177.791497 
L 484.219188 179.594916 
L 485.544929 181.411684 
L 486.852435 183.241618 
L 488.141577 185.084535 
L 489.412226 186.940252 
L 490.664255 188.808582 
L 491.897538 190.689338 
L 493.111952 192.582333 
L 494.307375 194.487378 
L 495.483689 196.404281 
L 496.640775 198.332852 
L 497.778518 200.272896 
L 498.896804 202.224221 
L 499.995522 204.186631 
L 501.07456 206.15993 
L 502.133812 208.14392 
L 503.173171 210.138403 
L 504.192534 212.143181 
L 505.191798 214.158051 
L 506.170865 216.182813 
L 507.129634 218.217264 
L 508.068012 220.261202 
L 508.985904 222.31442 
L 509.883218 224.376715 
L 510.759865 226.44788 
L 511.615756 228.527707 
L 512.450807 230.615989 
L 513.264933 232.712517 
L 514.058054 234.817082 
L 514.83009 236.929472 
L 515.580964 239.049477 
L 516.3106 241.176884 
L 517.018927 243.311482 
L 517.705872 245.453055 
L 518.371368 247.601391 
L 519.015347 249.756275 
L 519.637745 251.91749 
L 520.238501 254.084822 
L 520.817554 256.258052 
L 521.374846 258.436964 
L 521.910321 260.62134 
L 522.423926 262.810961 
L 522.915609 265.005609 
L 523.385322 267.205064 
L 523.833017 269.409106 
L 524.25865 271.617515 
L 524.662178 273.830069 
L 525.04356 276.046548 
L 525.402759 278.26673 
L 525.739738 280.490393 
L 526.054465 282.717315 
L 526.346907 284.947272 
L 526.617034 287.180043 
L 526.864822 289.415402 
L 527.090243 291.653128 
L 527.293276 293.892996 
L 527.473901 296.134783 
L 527.6321 298.378264 
L 527.767856 300.623214 
L 527.881156 302.86941 
L 527.971988 305.116626 
L 528.040345 307.364638 
L 528.086218 309.613222 
L 528.109604 311.862152 
L 528.112881 313.076226 
L 528.112881 313.076226 
Q 303.206807 313.076226 78.300732 313.076226 
L 78.300732 313.076226 
L 78.300732 313.076226 
L 78.311978 310.827202 
L 78.345712 308.578404 
L 78.401933 306.330055 
L 78.480633 304.082381 
L 78.581806 301.835607 
L 78.705442 299.589956 
L 78.851527 297.345654 
L 79.020048 295.102925 
L 79.210987 292.861994 
L 79.424326 290.623084 
L 79.660043 288.386419 
L 79.918114 286.152223 
L 80.198514 283.920719 
L 80.501214 281.692131 
L 80.826185 279.466682 
L 81.173394 277.244593 
L 81.542806 275.026088 
L 81.934384 272.811387 
L 82.348089 270.600713 
L 82.78388 268.394286 
L 83.241713 266.192328 
L 83.721542 263.995058 
L 84.22332 261.802696 
L 84.746996 259.615461 
L 85.292518 257.433572 
L 85.85983 255.257248 
L 86.448878 253.086705 
L 87.059601 250.922162 
L 87.691938 248.763833 
L 88.345827 246.611936 
L 89.021202 244.466685 
L 89.717995 242.328295 
L 90.436137 240.19698 
L 91.175556 238.072953 
L 91.936178 235.956426 
L 92.717926 233.847611 
L 93.520723 231.746718 
L 94.344489 229.653959 
L 95.189141 227.569542 
L 96.054594 225.493675 
L 96.940763 223.426566 
L 97.847558 221.368423 
L 98.774888 219.31945 
L 99.722662 217.279853 
L 100.690784 215.249835 
L 101.679157 213.2296 
L 102.687683 211.219349 
L 103.716261 209.219284 
L 104.764787 207.229605 
L 105.833158 205.25051 
L 106.921266 203.282197 
L 108.029002 201.324864 
L 109.156256 199.378706 
L 110.302914 197.443918 
L 111.468863 195.520693 
L 112.653986 193.609223 
L 113.858163 191.7097 
L 115.081276 189.822313 
L 116.323201 187.947252 
L 117.583814 186.084704 
L 118.862989 184.234854 
L 120.160598 182.397889 
L 121.476512 180.573991 
L 122.810599 178.763343 
L 124.162725 176.966127 
L 125.532755 175.182521 
L 126.920553 173.412705 
L 128.325979 171.656855 
L 129.748893 169.915147 
L 131.189153 168.187755 
L 132.646614 166.474851 
L 134.121131 164.776608 
L 135.612557 163.093194 
L 137.120742 161.424778 
L 138.645536 159.771528 
L 140.186785 158.133608 
L 141.744336 156.511182 
L 143.318034 154.904412 
L 144.174196 154.043615 
L 144.174196 154.043615 
Q 303.206807 313.076226 462.239417 154.043615 
z
" clip-path="url(#p2b33a1ade8)" style="fill: #0028ff; fill-opacity: 0.5; stroke: #808080; stroke-opacity: 0.5; stroke-width: 0.1"/>
    <path d="M 528.112881 313.076226 
L 528.112881 313.076226 
L 528.101636 315.325249 
L 528.067901 317.574047 
L 528.011681 319.822396 
L 527.93298 322.07007 
L 527.831807 324.316844 
L 527.708171 326.562495 
L 527.562086 328.806797 
L 527.393565 331.049526 
L 527.202626 333.290457 
L 526.989287 335.529367 
L 526.753571 337.766032 
L 526.495499 340.000228 
L 526.215099 342.231732 
L 525.912399 344.46032 
L 525.587428 346.685769 
L 525.240219 348.907858 
L 524.870807 351.126364 
L 524.479229 353.341064 
L 524.065524 355.551738 
L 523.629733 357.758165 
L 523.1719 359.960123 
L 522.692071 362.157393 
L 522.190293 364.349755 
L 521.666617 366.53699 
L 521.121096 368.718879 
L 520.553783 370.895203 
L 519.964735 373.065746 
L 519.354012 375.23029 
L 518.721675 377.388618 
L 518.067786 379.540515 
L 517.392411 381.685766 
L 516.695618 383.824156 
L 515.977476 385.955471 
L 515.238057 388.079498 
L 514.477436 390.196025 
L 513.695687 392.30484 
L 512.89289 394.405733 
L 512.069124 396.498492 
L 511.224472 398.582909 
L 510.359019 400.658776 
L 509.47285 402.725885 
L 508.566056 404.784028 
L 507.638725 406.833001 
L 506.690951 408.872599 
L 505.722829 410.902616 
L 504.734456 412.922851 
L 503.72593 414.933102 
L 502.697353 416.933167 
L 501.648826 418.922847 
L 500.580455 420.901941 
L 499.492348 422.870254 
L 498.384611 424.827587 
L 497.257358 426.773745 
L 496.110699 428.708533 
L 494.94475 430.631758 
L 493.759627 432.543228 
L 492.55545 434.442751 
L 491.332337 436.330138 
L 490.090413 438.205199 
L 488.8298 440.067748 
L 487.550625 441.917597 
L 486.253015 443.754563 
L 484.937101 445.57846 
L 483.603015 447.389108 
L 482.250888 449.186324 
L 480.880858 450.96993 
L 479.49306 452.739746 
L 478.087634 454.495596 
L 476.66472 456.237304 
L 475.22446 457.964697 
L 473.766999 459.6776 
L 472.292482 461.375844 
L 470.801056 463.059257 
L 469.292871 464.727673 
L 467.768078 466.380923 
L 466.226828 468.018843 
L 464.669277 469.641269 
L 463.09558 471.248039 
L 462.239417 472.108836 
L 462.239417 472.108836 
Q 303.206807 313.076226 303.206807 537.9823 
L 303.206807 537.9823 
L 303.206807 537.9823 
L 300.957783 537.971055 
L 298.708985 537.93732 
L 296.460636 537.8811 
L 294.212962 537.802399 
L 291.966188 537.701226 
L 289.720537 537.57759 
L 287.476235 537.431505 
L 285.233506 537.262984 
L 282.992575 537.072045 
L 280.753665 536.858706 
L 278.517 536.622989 
L 276.282804 536.364918 
L 274.0513 536.084518 
L 271.822712 535.781818 
L 269.597263 535.456847 
L 267.375174 535.109638 
L 265.156669 534.740226 
L 262.941968 534.348648 
L 260.731294 533.934943 
L 258.524867 533.499152 
L 256.322909 533.041319 
L 254.125639 532.56149 
L 251.933277 532.059712 
L 249.746042 531.536036 
L 247.564153 530.990515 
L 245.387829 530.423202 
L 243.217286 529.834154 
L 241.052743 529.223431 
L 238.894414 528.591094 
L 236.742517 527.937205 
L 234.597266 527.26183 
L 232.458876 526.565037 
L 230.327561 525.846895 
L 228.203534 525.107476 
L 226.087007 524.346855 
L 223.978192 523.565106 
L 221.877299 522.762309 
L 219.78454 521.938543 
L 217.700123 521.093891 
L 215.624256 520.228438 
L 213.557147 519.342269 
L 211.499004 518.435475 
L 209.450031 517.508144 
L 207.410434 516.56037 
L 205.380416 515.592248 
L 203.360181 514.603875 
L 201.34993 513.595349 
L 199.349865 512.566771 
L 197.360186 511.518245 
L 195.381091 510.449874 
L 193.412778 509.361767 
L 191.455445 508.25403 
L 189.509287 507.126777 
L 187.574499 505.980118 
L 185.651274 504.814169 
L 183.739804 503.629046 
L 181.840281 502.424869 
L 179.952894 501.201756 
L 178.077833 499.959832 
L 176.215285 498.699219 
L 174.365435 497.420043 
L 172.52847 496.122434 
L 170.704572 494.80652 
L 168.893924 493.472434 
L 167.096708 492.120307 
L 165.313102 490.750277 
L 163.543286 489.362479 
L 161.787436 487.957053 
L 160.045728 486.534139 
L 158.318336 485.093879 
L 156.605432 483.636418 
L 154.907189 482.161901 
L 153.223775 480.670475 
L 151.555359 479.16229 
L 149.902109 477.637497 
L 148.264189 476.096247 
L 146.641763 474.538696 
L 145.034993 472.964999 
L 144.174196 472.108836 
L 144.174196 472.108836 
Q 303.206807 313.076226 528.112881 313.076226 
z
" clip-path="url(#p2b33a1ade8)" style="fill: #0028ff; fill-opacity: 0.5; stroke: #808080; stroke-opacity: 0.5; stroke-width: 0.1"/>
    <path d="M 303.206807 88.170151 
L 303.206807 88.170151 
L 305.45583 88.181397 
L 307.704628 88.215131 
L 309.952977 88.271352 
L 312.200651 88.350052 
L 314.447425 88.451225 
L 316.693076 88.574861 
L 318.937378 88.720946 
L 321.180107 88.889467 
L 323.421038 89.080406 
L 325.659948 89.293745 
L 327.896613 89.529462 
L 330.130809 89.787533 
L 332.362313 90.067933 
L 334.590901 90.370633 
L 336.81635 90.695604 
L 339.038439 91.042813 
L 341.256945 91.412225 
L 343.471645 91.803803 
L 345.682319 92.217508 
L 347.888746 92.653299 
L 350.090704 93.111132 
L 352.287974 93.590961 
L 354.480336 94.092739 
L 356.667571 94.616415 
L 358.84946 95.161937 
L 361.025784 95.729249 
L 363.196327 96.318297 
L 365.360871 96.92902 
L 367.519199 97.561357 
L 369.671096 98.215246 
L 371.816347 98.890621 
L 373.954737 99.587414 
L 376.086052 100.305556 
L 378.210079 101.044975 
L 380.326606 101.805597 
L 382.435421 102.587345 
L 384.536314 103.390142 
L 386.629073 104.213908 
L 388.71349 105.05856 
L 389.274635 105.290107 
L 389.274635 105.290107 
Q 303.206807 313.076226 144.174196 472.108836 
L 144.174196 472.108836 
L 144.174196 472.108836 
L 142.591848 470.510585 
L 141.025562 468.89659 
L 139.475493 467.267014 
L 137.941797 465.622018 
L 136.424628 463.961769 
L 134.924137 462.28643 
L 133.440474 460.596171 
L 131.973787 458.89116 
L 130.524224 457.171568 
L 129.091928 455.437566 
L 127.677044 453.689329 
L 126.279713 451.92703 
L 124.900074 450.150846 
L 123.538266 448.360954 
L 122.194425 446.557535 
L 120.868685 444.740767 
L 119.561178 442.910833 
L 118.272036 441.067916 
L 117.001387 439.212199 
L 115.749358 437.343869 
L 114.516075 435.463113 
L 113.301661 433.570118 
L 112.106238 431.665073 
L 110.929924 429.74817 
L 109.772838 427.8196 
L 108.635095 425.879555 
L 107.516809 423.92823 
L 106.418092 421.96582 
L 105.339053 419.992522 
L 104.279801 418.008531 
L 103.240442 416.014048 
L 102.221079 414.009271 
L 101.221815 411.9944 
L 100.242749 409.969638 
L 99.283979 407.935187 
L 98.345601 405.891249 
L 97.427709 403.838031 
L 96.530395 401.775736 
L 95.653749 399.704572 
L 95.420688 399.144054 
L 95.420688 399.144054 
Q 303.206807 313.076226 303.206807 88.170151 
z
" clip-path="url(#p2b33a1ade8)" style="fill: #000080; fill-opacity: 0.5; stroke: #808080; stroke-opacity: 0.5; stroke-width: 0.1"/>
    <path d="M 389.274635 105.290107 
L 389.274635 105.290107 
L 391.348158 106.16116 
L 393.412867 107.052905 
L 395.468556 107.965251 
L 397.515018 108.898109 
L 399.55205 109.851384 
L 401.579448 110.824982 
L 403.597008 111.818804 
L 405.604529 112.832752 
L 407.60181 113.866724 
L 409.588653 114.920617 
L 411.564857 115.994326 
L 413.530225 117.087742 
L 415.484561 118.200757 
L 417.427669 119.33326 
L 419.359356 120.485137 
L 421.279427 121.656272 
L 423.187691 122.84655 
L 425.083957 124.05585 
L 426.968035 125.284052 
L 428.839738 126.531033 
L 430.698877 127.796669 
L 432.545267 129.080832 
L 434.378724 130.383395 
L 436.199063 131.704227 
L 438.006103 133.043196 
L 439.799664 134.400168 
L 441.579565 135.775007 
L 443.345629 137.167577 
L 445.097679 138.577737 
L 446.83554 140.005347 
L 448.559039 141.450264 
L 450.268002 142.912343 
L 451.96226 144.391439 
L 453.641642 145.887403 
L 455.305981 147.400085 
L 456.955109 148.929335 
L 458.588864 150.475 
L 460.20708 152.036925 
L 461.809596 153.614953 
L 462.239417 154.043615 
L 462.239417 154.043615 
Q 303.206807 313.076226 462.239417 472.108836 
L 462.239417 472.108836 
L 462.239417 472.108836 
L 460.641166 473.691184 
L 459.027171 475.25747 
L 457.397595 476.807539 
L 455.752599 478.341235 
L 454.09235 479.858404 
L 452.417011 481.358895 
L 450.726752 482.842559 
L 449.021741 484.309245 
L 447.302149 485.758809 
L 445.568147 487.191104 
L 443.81991 488.605988 
L 442.057611 490.003319 
L 440.281427 491.382958 
L 438.491535 492.744766 
L 436.688116 494.088607 
L 434.871348 495.414348 
L 433.041414 496.721854 
L 431.198497 498.010996 
L 429.34278 499.281645 
L 427.47445 500.533674 
L 425.593694 501.766957 
L 423.700699 502.981371 
L 421.795654 504.176794 
L 419.878751 505.353108 
L 417.950181 506.510194 
L 416.010136 507.647937 
L 414.058811 508.766223 
L 412.096401 509.864941 
L 410.123103 510.943979 
L 408.139112 512.003231 
L 406.144629 513.04259 
L 404.139852 514.061953 
L 402.124981 515.061217 
L 400.100219 516.040284 
L 398.065768 516.999053 
L 396.021831 517.937431 
L 393.968612 518.855323 
L 391.906317 519.752637 
L 389.835153 520.629284 
L 389.274635 520.862344 
L 389.274635 520.862344 
Q 303.206807 313.076226 389.274635 105.290107 
z
" clip-path="url(#p2b33a1ade8)" style="fill: #000080; fill-opacity: 0.5; stroke: #808080; stroke-opacity: 0.5; stroke-width: 0.1"/>
   </g>
   <g id="patch_9">
    <path d="M 303.206807 88.170151 
L 305.45583 88.181397 
L 307.704628 88.215131 
L 309.952977 88.271352 
L 312.200651 88.350052 
L 314.447425 88.451225 
L 316.693076 88.574861 
L 318.937378 88.720946 
L 321.180107 88.889467 
L 323.421038 89.080406 
L 325.659948 89.293745 
L 327.896613 89.529462 
L 330.130809 89.787533 
L 332.362313 90.067933 
L 334.590901 90.370633 
L 336.81635 90.695604 
L 339.038439 91.042813 
L 341.256945 91.412225 
L 343.471645 91.803803 
L 345.682319 92.217508 
L 347.888746 92.653299 
L 350.090704 93.111132 
L 352.287974 93.590961 
L 354.480336 94.092739 
L 356.667571 94.616415 
L 358.84946 95.161937 
L 361.025784 95.729249 
L 363.196327 96.318297 
L 365.360871 96.92902 
L 367.519199 97.561357 
L 369.671096 98.215246 
L 371.816347 98.890621 
L 373.954737 99.587414 
L 376.086052 100.305556 
L 378.210079 101.044975 
L 380.326606 101.805597 
L 382.435421 102.587345 
L 384.536314 103.390142 
L 386.629073 104.213908 
L 388.71349 105.05856 
L 390.789357 105.924013 
L 392.856466 106.810182 
L 394.914609 107.716977 
L 396.963582 108.644307 
L 399.00318 109.592081 
L 401.033197 110.560203 
L 403.053432 111.548576 
L 405.063683 112.557102 
L 407.063748 113.58568 
L 409.053428 114.634206 
L 411.032522 115.702577 
L 413.000835 116.790685 
L 414.958168 117.898421 
L 416.904326 119.025675 
L 418.839114 120.172333 
L 420.762339 121.338282 
L 422.673809 122.523405 
L 424.573332 123.727582 
L 426.460719 124.950695 
L 428.33578 126.19262 
L 430.198329 127.453233 
L 432.048178 128.732408 
L 433.885144 130.030017 
L 435.709041 131.345931 
L 437.519689 132.680018 
L 439.316905 134.032144 
L 441.100511 135.402174 
L 442.870327 136.789972 
L 444.626177 138.195398 
L 446.367885 139.618312 
L 448.095278 141.058572 
L 449.808181 142.516033 
L 451.506425 143.99055 
L 453.189838 145.481976 
L 454.858254 146.990161 
L 456.511504 148.514955 
L 458.149424 150.056204 
L 459.77185 151.613755 
L 461.37862 153.187453 
L 462.239417 154.043615 
L 463.845807 152.437225 
L 462.976315 151.572415 
L 461.353315 149.982821 
L 459.714501 148.409537 
L 458.060036 146.852719 
L 456.390086 145.312524 
L 454.704818 143.789105 
L 453.0044 142.282614 
L 451.289003 140.793203 
L 449.558797 139.32102 
L 447.813957 137.866212 
L 446.054656 136.428925 
L 444.28107 135.009303 
L 442.493376 133.607487 
L 440.691755 132.223618 
L 438.876385 130.857834 
L 437.047448 129.510271 
L 435.205127 128.181065 
L 433.349606 126.870349 
L 431.481071 125.578253 
L 429.599709 124.304906 
L 427.705708 123.050437 
L 425.799257 121.81497 
L 423.880546 120.598629 
L 421.949769 119.401535 
L 420.007117 118.223809 
L 418.052786 117.065568 
L 416.086969 115.926928 
L 414.109865 114.808002 
L 412.121671 113.708904 
L 410.122585 112.629741 
L 408.112808 111.570624 
L 406.09254 110.531656 
L 404.061984 109.512943 
L 402.021343 108.514586 
L 399.97082 107.536685 
L 397.91062 106.579338 
L 395.840951 105.642641 
L 393.762018 104.726686 
L 391.674029 103.831567 
L 389.577194 102.957371 
L 387.471722 102.104188 
L 385.357824 101.272101 
L 383.23571 100.461195 
L 381.105594 99.67155 
L 378.967688 98.903245 
L 376.822206 98.156357 
L 374.669362 97.430962 
L 372.509373 96.72713 
L 370.342453 96.044933 
L 368.168819 95.38444 
L 365.988689 94.745715 
L 363.802282 94.128823 
L 361.609814 93.533825 
L 359.411507 92.960782 
L 357.207579 92.40975 
L 354.998251 91.880785 
L 352.783744 91.373939 
L 350.564279 90.889262 
L 348.340079 90.426805 
L 346.111365 89.986612 
L 343.878361 89.568728 
L 341.641289 89.173195 
L 339.400375 88.800051 
L 337.155841 88.449335 
L 334.907912 88.121082 
L 332.656813 87.815324 
L 330.402769 87.532092 
L 328.146005 87.271414 
L 325.886748 87.033316 
L 323.625222 86.817822 
L 321.361655 86.624954 
L 319.096272 86.454731 
L 316.829301 86.30717 
L 314.560967 86.182286 
L 312.291498 86.080091 
L 310.02112 86.000595 
L 307.750061 85.943807 
L 305.478547 85.909732 
L 303.206807 85.898373 
L 303.206807 88.170151 
z
" clip-path="url(#p2b33a1ade8)" style="fill: none; stroke: #000000; stroke-width: 0.5; stroke-linejoin: miter"/>
   </g>
   <g id="patch_10">
    <path d="M 462.239417 154.043615 
L 463.821765 155.641867 
L 465.388051 157.255861 
L 466.93812 158.885437 
L 468.471816 160.530433 
L 469.988985 162.190682 
L 471.489476 163.866021 
L 472.97314 165.55628 
L 474.439826 167.261291 
L 475.88939 168.980883 
L 477.321685 170.714885 
L 478.736569 172.463123 
L 480.1339 174.225422 
L 481.513539 176.001606 
L 482.875347 177.791497 
L 484.219188 179.594916 
L 485.544929 181.411684 
L 486.852435 183.241618 
L 488.141577 185.084535 
L 489.412226 186.940252 
L 490.664255 188.808582 
L 491.897538 190.689338 
L 493.111952 192.582333 
L 494.307375 194.487378 
L 495.483689 196.404281 
L 496.640775 198.332852 
L 497.778518 200.272896 
L 498.896804 202.224221 
L 499.995522 204.186631 
L 501.07456 206.15993 
L 502.133812 208.14392 
L 503.173171 210.138403 
L 504.192534 212.143181 
L 505.191798 214.158051 
L 506.170865 216.182813 
L 507.129634 218.217264 
L 508.068012 220.261202 
L 508.985904 222.31442 
L 509.883218 224.376715 
L 510.759865 226.44788 
L 511.615756 228.527707 
L 512.450807 230.615989 
L 513.264933 232.712517 
L 514.058054 234.817082 
L 514.83009 236.929472 
L 515.580964 239.049477 
L 516.3106 241.176884 
L 517.018927 243.311482 
L 517.705872 245.453055 
L 518.371368 247.601391 
L 519.015347 249.756275 
L 519.637745 251.91749 
L 520.238501 254.084822 
L 520.817554 256.258052 
L 521.374846 258.436964 
L 521.910321 260.62134 
L 522.423926 262.810961 
L 522.915609 265.005609 
L 523.385322 267.205064 
L 523.833017 269.409106 
L 524.25865 271.617515 
L 524.662178 273.830069 
L 525.04356 276.046548 
L 525.402759 278.26673 
L 525.739738 280.490393 
L 526.054465 282.717315 
L 526.346907 284.947272 
L 526.617034 287.180043 
L 526.864822 289.415402 
L 527.090243 291.653128 
L 527.293276 293.892996 
L 527.473901 296.134783 
L 527.6321 298.378264 
L 527.767856 300.623214 
L 527.881156 302.86941 
L 527.971988 305.116626 
L 528.040345 307.364638 
L 528.086218 309.613222 
L 528.109604 311.862152 
L 528.110499 314.111203 
L 528.088905 316.360151 
L 528.044822 318.60877 
L 527.978256 320.856836 
L 527.889212 323.104124 
L 527.777701 325.350409 
L 527.643733 327.595467 
L 527.487321 329.839073 
L 527.308481 332.081003 
L 527.107232 334.321032 
L 526.883592 336.558936 
L 526.637585 338.794493 
L 526.369236 341.027478 
L 526.07857 343.257667 
L 525.765617 345.484838 
L 525.430408 347.708769 
L 525.072978 349.929236 
L 524.69336 352.146019 
L 524.291595 354.358894 
L 523.867721 356.567641 
L 523.421781 358.772038 
L 522.95382 360.971867 
L 522.463884 363.166905 
L 521.952023 365.356935 
L 521.418287 367.541737 
L 520.862731 369.721092 
L 520.285409 371.894783 
L 519.686379 374.062592 
L 519.065702 376.224302 
L 518.423439 378.379698 
L 517.759654 380.528563 
L 517.074414 382.670683 
L 516.367788 384.805844 
L 515.639846 386.933832 
L 514.890661 389.054434 
L 514.120307 391.167438 
L 513.328862 393.272634 
L 512.516406 395.369809 
L 511.683018 397.458756 
L 510.828783 399.539264 
L 509.953786 401.611126 
L 509.058115 403.674135 
L 508.141858 405.728084 
L 507.205108 407.772767 
L 506.247959 409.807982 
L 505.270506 411.833523 
L 504.272846 413.849188 
L 503.25508 415.854777 
L 502.217309 417.850087 
L 501.159638 419.83492 
L 500.082171 421.809078 
L 498.985017 423.772362 
L 497.868285 425.724577 
L 496.732087 427.665527 
L 495.576537 429.595018 
L 494.40175 431.512857 
L 493.207844 433.418853 
L 491.994938 435.312815 
L 490.763153 437.194553 
L 489.512613 439.063879 
L 488.243442 440.920607 
L 486.955768 442.76455 
L 485.649719 444.595525 
L 484.325426 446.413347 
L 482.983021 448.217837 
L 481.622638 450.008812 
L 480.244415 451.786094 
L 478.848487 453.549505 
L 477.434996 455.298869 
L 476.004082 457.034011 
L 474.555888 458.754757 
L 473.09056 460.460935 
L 471.608243 462.152375 
L 470.109086 463.828908 
L 468.59324 465.490365 
L 467.060855 467.136581 
L 465.512084 468.767391 
L 463.947083 470.382633 
L 462.366008 471.982143 
L 460.769018 473.565764 
L 459.156271 475.133335 
L 457.52793 476.684701 
L 455.884156 478.219706 
L 454.225115 479.738197 
L 452.550972 481.240022 
L 450.861895 482.725031 
L 449.158053 484.193075 
L 447.439615 485.644007 
L 445.706755 487.077683 
L 443.959644 488.493958 
L 442.198458 489.892692 
L 440.423374 491.273745 
L 438.634567 492.636978 
L 436.832218 493.982255 
L 435.016507 495.309442 
L 433.187615 496.618405 
L 431.345725 497.909015 
L 429.491021 499.181141 
L 427.623688 500.434657 
L 425.743914 501.669437 
L 423.851887 502.885358 
L 421.947795 504.082298 
L 420.031829 505.260138 
L 418.104181 506.41876 
L 416.165043 507.558047 
L 414.214609 508.677887 
L 412.253075 509.778167 
L 410.280636 510.858776 
L 408.29749 511.919607 
L 406.303835 512.960555 
L 404.29987 513.981514 
L 402.285796 514.982382 
L 400.261814 515.96306 
L 398.228127 516.92345 
L 396.184938 517.863455 
L 394.132451 518.782982 
L 392.070871 519.681938 
L 390.000405 520.560233 
L 389.274635 520.862344 
L 390.144007 522.961194 
L 390.877108 522.656031 
L 392.968488 521.768864 
L 395.050891 520.860828 
L 397.124111 519.932013 
L 399.187938 518.982513 
L 401.242168 518.012422 
L 403.286594 517.021838 
L 405.321012 516.01086 
L 407.345219 514.979588 
L 409.359012 513.928126 
L 411.36219 512.85658 
L 413.354552 511.765055 
L 415.3359 510.653661 
L 417.306035 509.52251 
L 419.26476 508.371715 
L 421.21188 507.20139 
L 423.147199 506.011653 
L 425.070524 504.802622 
L 426.981663 503.574419 
L 428.880425 502.327166 
L 430.766619 501.060988 
L 432.640057 499.776012 
L 434.500552 498.472367 
L 436.347918 497.150181 
L 438.18197 495.809589 
L 440.002525 494.450723 
L 441.8094 493.07372 
L 443.602414 491.678717 
L 445.38139 490.265855 
L 447.146148 488.835273 
L 448.896512 487.387116 
L 450.632308 485.921528 
L 452.353361 484.438655 
L 454.059499 482.938646 
L 455.750552 481.421651 
L 457.426351 479.887822 
L 459.086729 478.337312 
L 460.731518 476.770276 
L 462.360555 475.18687 
L 463.973677 473.587254 
L 465.570722 471.971586 
L 467.151531 470.34003 
L 468.715946 468.692746 
L 470.26381 467.029902 
L 471.794968 465.351662 
L 473.309268 463.658195 
L 474.806557 461.94967 
L 476.286687 460.226257 
L 477.749509 458.48813 
L 479.194877 456.735461 
L 480.622646 454.968427 
L 482.032673 453.187204 
L 483.424819 451.391969 
L 484.798942 449.582903 
L 486.154907 447.760187 
L 487.492576 445.924002 
L 488.811818 444.074533 
L 490.112499 442.211964 
L 491.39449 440.336482 
L 492.657662 438.448273 
L 493.901889 436.547528 
L 495.127047 434.634435 
L 496.333012 432.709187 
L 497.519666 430.771975 
L 498.686888 428.822994 
L 499.834563 426.862439 
L 500.962575 424.890505 
L 502.070811 422.907389 
L 503.159161 420.913291 
L 504.227516 418.908409 
L 505.27577 416.892944 
L 506.303816 414.867097 
L 507.311553 412.831071 
L 508.29888 410.78507 
L 509.265697 408.729298 
L 510.211909 406.663961 
L 511.137421 404.589265 
L 512.04214 402.505418 
L 512.925975 400.412628 
L 513.788839 398.311105 
L 514.630644 396.201058 
L 515.451307 394.082698 
L 516.250747 391.956238 
L 517.028881 389.82189 
L 517.785634 387.679868 
L 518.520929 385.530385 
L 519.234693 383.373657 
L 519.926855 381.2099 
L 520.597344 379.039329 
L 521.246095 376.862161 
L 521.873042 374.678616 
L 522.478122 372.48891 
L 523.061275 370.293262 
L 523.622444 368.091894 
L 524.16157 365.885023 
L 524.678602 363.672872 
L 525.173487 361.455661 
L 525.646175 359.233612 
L 526.096619 357.006948 
L 526.524774 354.77589 
L 526.930598 352.540663 
L 527.31405 350.301489 
L 527.675091 348.058593 
L 528.013686 345.812198 
L 528.3298 343.56253 
L 528.623402 341.309813 
L 528.894462 339.054273 
L 529.142954 336.796136 
L 529.368852 334.535626 
L 529.572135 332.27297 
L 529.752781 330.008395 
L 529.910772 327.742126 
L 530.046094 325.474391 
L 530.158732 323.205416 
L 530.248674 320.935428 
L 530.315913 318.664654 
L 530.360441 316.393322 
L 530.382254 314.121657 
L 530.381349 311.849888 
L 530.357728 309.578242 
L 530.311391 307.306946 
L 530.242344 305.036226 
L 530.150594 302.766311 
L 530.036149 300.497426 
L 529.899022 298.229799 
L 529.739225 295.963657 
L 529.556776 293.699226 
L 529.351692 291.436733 
L 529.123993 289.176404 
L 528.873703 286.918465 
L 528.600847 284.663141 
L 528.305451 282.410659 
L 527.987546 280.161244 
L 527.647163 277.915119 
L 527.284335 275.672511 
L 526.899101 273.433644 
L 526.491497 271.19874 
L 526.061565 268.968024 
L 525.609348 266.741719 
L 525.13489 264.520047 
L 524.63824 262.303231 
L 524.119447 260.091493 
L 523.578563 257.885052 
L 523.015642 255.684131 
L 522.430741 253.488949 
L 521.823917 251.299725 
L 521.195231 249.116679 
L 520.544747 246.940029 
L 519.872529 244.769993 
L 519.178645 242.606787 
L 518.463164 240.450628 
L 517.726157 238.301732 
L 516.967699 236.160313 
L 516.187865 234.026585 
L 515.386733 231.900763 
L 514.564383 229.783057 
L 513.720897 227.673682 
L 512.85636 225.572846 
L 511.970859 223.48076 
L 511.064481 221.397634 
L 510.137317 219.323676 
L 509.189461 217.259093 
L 508.221007 215.204092 
L 507.232051 213.158877 
L 506.222693 211.123655 
L 505.193033 209.098627 
L 504.143176 207.083998 
L 503.073224 205.079967 
L 501.983286 203.086736 
L 500.873471 201.104504 
L 499.743889 199.133469 
L 498.594654 197.173828 
L 497.42588 195.225777 
L 496.237684 193.289511 
L 495.030186 191.365223 
L 493.803505 189.453107 
L 492.557764 187.553353 
L 491.293089 185.666151 
L 490.009605 183.79169 
L 488.707442 181.930157 
L 487.386728 180.081739 
L 486.047596 178.24662 
L 484.690181 176.424984 
L 483.314617 174.617013 
L 481.921043 172.822888 
L 480.509597 171.042788 
L 479.080421 169.276891 
L 477.633658 167.525375 
L 476.169453 165.788413 
L 474.687951 164.066179 
L 473.189301 162.358847 
L 471.673654 160.666586 
L 470.141159 158.989566 
L 468.591972 157.327955 
L 467.026246 155.681918 
L 465.444138 154.05162 
L 463.845807 152.437225 
L 462.239417 154.043615 
z
" clip-path="url(#p2b33a1ade8)" style="fill: none; stroke: #000000; stroke-width: 0.5; stroke-linejoin: miter"/>
   </g>
   <g id="patch_11">
    <path d="M 389.274635 520.862344 
L 387.192505 521.712619 
L 385.101977 522.54203 
L 383.003259 523.350495 
L 380.896561 524.137933 
L 378.782095 524.904264 
L 376.660071 525.649413 
L 374.530702 526.373305 
L 372.394201 527.075867 
L 370.250781 527.75703 
L 368.100656 528.416725 
L 365.944042 529.054885 
L 363.781155 529.671448 
L 361.61221 530.266352 
L 359.437425 530.839537 
L 357.257017 531.390946 
L 355.071203 531.920523 
L 352.880204 532.428216 
L 350.684237 532.913975 
L 348.483522 533.377749 
L 346.27828 533.819494 
L 344.06873 534.239164 
L 341.855094 534.636719 
L 339.637594 535.012117 
L 337.416451 535.365322 
L 335.191886 535.696299 
L 332.964123 536.005013 
L 330.733385 536.291435 
L 328.499894 536.555536 
L 326.263873 536.797288 
L 324.025547 537.016669 
L 321.785139 537.213656 
L 319.542873 537.38823 
L 317.298974 537.540372 
L 315.053665 537.670068 
L 312.807172 537.777305 
L 310.559718 537.862072 
L 308.31153 537.924361 
L 306.06283 537.964165 
L 303.813846 537.981481 
L 303.206807 537.9823 
L 303.206807 540.254078 
L 303.819977 540.253251 
L 306.091679 540.23576 
L 308.363092 540.195554 
L 310.63399 540.132636 
L 312.904145 540.047013 
L 315.17333 539.938693 
L 317.441319 539.807687 
L 319.707884 539.654007 
L 321.972799 539.477671 
L 324.235837 539.278694 
L 326.496773 539.057097 
L 328.755379 538.812902 
L 331.011431 538.546134 
L 333.264702 538.256819 
L 335.514968 537.944986 
L 337.762003 537.610667 
L 340.005582 537.253894 
L 342.245481 536.874703 
L 344.481477 536.473133 
L 346.713345 536.049224 
L 348.940862 535.603017 
L 351.163807 535.134558 
L 353.381955 534.643893 
L 355.595086 534.131072 
L 357.802978 533.596145 
L 360.005411 533.039166 
L 362.202164 532.460192 
L 364.393017 531.859279 
L 366.577752 531.236488 
L 368.75615 530.591881 
L 370.927993 529.925523 
L 373.093063 529.23748 
L 375.251146 528.527821 
L 377.402023 527.796617 
L 379.545482 527.043941 
L 381.681306 526.269869 
L 383.809284 525.474478 
L 385.929201 524.657846 
L 388.040846 523.820057 
L 390.144007 522.961194 
L 389.274635 520.862344 
z
" clip-path="url(#p2b33a1ade8)" style="fill: none; stroke: #000000; stroke-width: 0.5; stroke-linejoin: miter"/>
   </g>
   <g id="patch_12">
    <path d="M 303.206807 537.9823 
L 300.957783 537.971055 
L 298.708985 537.93732 
L 296.460636 537.8811 
L 294.212962 537.802399 
L 291.966188 537.701226 
L 289.720537 537.57759 
L 287.476235 537.431505 
L 285.233506 537.262984 
L 282.992575 537.072045 
L 280.753665 536.858706 
L 278.517 536.622989 
L 276.282804 536.364918 
L 274.0513 536.084518 
L 271.822712 535.781818 
L 269.597263 535.456847 
L 267.375174 535.109638 
L 265.156669 534.740226 
L 262.941968 534.348648 
L 260.731294 533.934943 
L 258.524867 533.499152 
L 256.322909 533.041319 
L 254.125639 532.56149 
L 251.933277 532.059712 
L 249.746042 531.536036 
L 247.564153 530.990515 
L 245.387829 530.423202 
L 243.217286 529.834154 
L 241.052743 529.223431 
L 238.894414 528.591094 
L 236.742517 527.937205 
L 234.597266 527.26183 
L 232.458876 526.565037 
L 230.327561 525.846895 
L 228.203534 525.107476 
L 226.087007 524.346855 
L 223.978192 523.565106 
L 221.877299 522.762309 
L 219.78454 521.938543 
L 217.700123 521.093891 
L 215.624256 520.228438 
L 213.557147 519.342269 
L 211.499004 518.435475 
L 209.450031 517.508144 
L 207.410434 516.56037 
L 205.380416 515.592248 
L 203.360181 514.603875 
L 201.34993 513.595349 
L 199.349865 512.566771 
L 197.360186 511.518245 
L 195.381091 510.449874 
L 193.412778 509.361767 
L 191.455445 508.25403 
L 189.509287 507.126777 
L 187.574499 505.980118 
L 185.651274 504.814169 
L 183.739804 503.629046 
L 181.840281 502.424869 
L 179.952894 501.201756 
L 178.077833 499.959832 
L 176.215285 498.699219 
L 174.365435 497.420043 
L 172.52847 496.122434 
L 170.704572 494.80652 
L 168.893924 493.472434 
L 167.096708 492.120307 
L 165.313102 490.750277 
L 163.543286 489.362479 
L 161.787436 487.957053 
L 160.045728 486.534139 
L 158.318336 485.093879 
L 156.605432 483.636418 
L 154.907189 482.161901 
L 153.223775 480.670475 
L 151.555359 479.16229 
L 149.902109 477.637497 
L 148.264189 476.096247 
L 146.641763 474.538696 
L 145.034993 472.964999 
L 143.444041 471.375312 
L 141.869064 469.769796 
L 140.310222 468.148611 
L 138.767668 466.511919 
L 137.241559 464.859883 
L 135.732046 463.192669 
L 134.23928 461.510444 
L 132.763411 459.813375 
L 131.304586 458.101633 
L 129.862951 456.375388 
L 128.43865 454.634814 
L 127.031827 452.880083 
L 125.64262 451.111373 
L 124.27117 449.328859 
L 122.917613 447.53272 
L 121.582085 445.723135 
L 120.264719 443.900286 
L 118.965647 442.064354 
L 117.684999 440.215524 
L 116.422903 438.35398 
L 115.179486 436.479908 
L 113.954871 434.593496 
L 112.749181 432.694932 
L 111.562537 430.784407 
L 110.395057 428.862111 
L 109.246857 426.928236 
L 108.118054 424.982977 
L 107.00876 423.026526 
L 105.919085 421.059081 
L 104.849139 419.080838 
L 103.799028 417.091994 
L 102.768858 415.092749 
L 101.758732 413.083302 
L 100.76875 411.063854 
L 99.799012 409.034608 
L 98.849614 406.995766 
L 97.920652 404.947532 
L 97.012219 402.890111 
L 96.124404 400.823709 
L 95.420688 399.144054 
L 93.321838 400.013426 
L 94.032663 401.710047 
L 94.929445 403.797322 
L 95.847055 405.875525 
L 96.7854 407.944448 
L 97.744387 410.003885 
L 98.723921 412.053628 
L 99.723902 414.093474 
L 100.744232 416.123218 
L 101.784808 418.142658 
L 102.845526 420.151591 
L 103.92628 422.149817 
L 105.026961 424.137135 
L 106.147461 426.113348 
L 107.287666 428.078257 
L 108.447463 430.031665 
L 109.626736 431.973379 
L 110.825367 433.903202 
L 112.043235 435.820943 
L 113.28022 437.72641 
L 114.536197 439.619412 
L 115.811041 441.499759 
L 117.104625 443.367265 
L 118.416819 445.221741 
L 119.747491 447.063003 
L 121.09651 448.890866 
L 122.463739 450.705148 
L 123.849042 452.505667 
L 125.252281 454.292243 
L 126.673316 456.064698 
L 128.112003 457.822854 
L 129.5682 459.566536 
L 131.04176 461.295569 
L 132.532537 463.009779 
L 134.040382 464.708997 
L 135.565142 466.393052 
L 137.106667 468.061775 
L 138.664802 469.714999 
L 140.23939 471.35256 
L 141.830275 472.974293 
L 143.437298 474.580037 
L 145.060298 476.16963 
L 146.699112 477.742914 
L 148.353577 479.299732 
L 150.023527 480.839927 
L 151.708795 482.363346 
L 153.409213 483.869837 
L 155.12461 485.359248 
L 156.854816 486.831431 
L 158.599656 488.286239 
L 160.358958 489.723526 
L 162.132543 491.143149 
L 163.920237 492.544964 
L 165.721858 493.928834 
L 167.537229 495.294618 
L 169.366166 496.64218 
L 171.208486 497.971386 
L 173.064007 499.282102 
L 174.932542 500.574198 
L 176.813904 501.847545 
L 178.707905 503.102014 
L 180.614356 504.337481 
L 182.533067 505.553822 
L 184.463844 506.750916 
L 186.406496 507.928642 
L 188.360828 509.086883 
L 190.326644 510.225523 
L 192.303748 511.344449 
L 194.291942 512.443548 
L 196.291028 513.52271 
L 198.300805 514.581828 
L 200.321073 515.620795 
L 202.351629 516.639508 
L 204.392271 517.637865 
L 206.442794 518.615766 
L 208.502993 519.573113 
L 210.572662 520.50981 
L 212.651595 521.425765 
L 214.739584 522.320884 
L 216.836419 523.19508 
L 218.941891 524.048263 
L 221.055789 524.88035 
L 223.177903 525.691256 
L 225.308019 526.480901 
L 227.445925 527.249206 
L 229.591407 527.996094 
L 231.744251 528.72149 
L 233.904241 529.425321 
L 236.071161 530.107518 
L 238.244794 530.768012 
L 240.424924 531.406736 
L 242.611332 532.023628 
L 244.803799 532.618626 
L 247.002106 533.191669 
L 249.206034 533.742701 
L 251.415362 534.271666 
L 253.629869 534.778513 
L 255.849334 535.263189 
L 258.073535 535.725646 
L 260.302248 536.165839 
L 262.535253 536.583723 
L 264.772324 536.979257 
L 267.013239 537.3524 
L 269.257773 537.703116 
L 271.505701 538.031369 
L 273.7568 538.337127 
L 276.010844 538.62036 
L 278.267608 538.881038 
L 280.526865 539.119135 
L 282.788391 539.334629 
L 285.051958 539.527497 
L 287.317341 539.69772 
L 289.584312 539.845281 
L 291.852646 539.970165 
L 294.122116 540.07236 
L 296.392493 540.151856 
L 298.663552 540.208644 
L 300.935066 540.24272 
L 303.206807 540.254078 
L 303.206807 537.9823 
z
" clip-path="url(#p2b33a1ade8)" style="fill: none; stroke: #000000; stroke-width: 0.5; stroke-linejoin: miter"/>
   </g>
   <g id="patch_13">
    <path d="M 95.420688 399.144054 
L 94.570413 397.061924 
L 93.741002 394.971396 
L 92.932537 392.872678 
L 92.145099 390.76598 
L 91.378768 388.651514 
L 90.633619 386.52949 
L 89.909727 384.400121 
L 89.207165 382.26362 
L 88.526002 380.1202 
L 87.866308 377.970075 
L 87.228147 375.813461 
L 86.611584 373.650574 
L 86.01668 371.481629 
L 85.443495 369.306844 
L 84.892086 367.126436 
L 84.362509 364.940622 
L 83.854816 362.749623 
L 83.369058 360.553656 
L 82.905283 358.352941 
L 82.463538 356.147699 
L 82.043868 353.938149 
L 81.646314 351.724513 
L 81.270915 349.507013 
L 80.91771 347.28587 
L 80.586734 345.061305 
L 80.278019 342.833542 
L 79.991597 340.602804 
L 79.727497 338.369313 
L 79.485744 336.133292 
L 79.266363 333.894966 
L 79.069376 331.654558 
L 78.894803 329.412292 
L 78.74266 327.168393 
L 78.612964 324.923084 
L 78.505727 322.676591 
L 78.42096 320.429137 
L 78.358671 318.180949 
L 78.318867 315.932249 
L 78.301552 313.683265 
L 78.306726 311.434219 
L 78.334391 309.185338 
L 78.384543 306.936846 
L 78.457177 304.688968 
L 78.552285 302.441928 
L 78.669859 300.195952 
L 78.809886 297.951264 
L 78.972353 295.708089 
L 79.157243 293.46665 
L 79.364538 291.227172 
L 79.594217 288.989879 
L 79.846257 286.754995 
L 80.120633 284.522743 
L 80.417317 282.293346 
L 80.73628 280.067027 
L 81.07749 277.844009 
L 81.440913 275.624515 
L 81.826512 273.408765 
L 82.234249 271.196983 
L 82.664083 268.989388 
L 83.115971 266.786202 
L 83.589868 264.587644 
L 84.085726 262.393936 
L 84.603497 260.205296 
L 85.143127 258.021943 
L 85.704564 255.844095 
L 86.287751 253.67197 
L 86.892629 251.505786 
L 87.519139 249.345759 
L 88.167218 247.192105 
L 88.8368 245.045039 
L 89.527819 242.904776 
L 90.240205 240.77153 
L 90.973888 238.645515 
L 91.728795 236.526943 
L 92.504849 234.416025 
L 93.301972 232.312974 
L 94.120087 230.217999 
L 94.959109 228.131309 
L 95.818957 226.053114 
L 96.699543 223.983621 
L 97.600779 221.923038 
L 98.522576 219.871569 
L 99.464841 217.829421 
L 100.42748 215.796798 
L 101.410397 213.773902 
L 102.413494 211.760937 
L 103.436669 209.758103 
L 104.479822 207.765601 
L 105.542847 205.78363 
L 106.625638 203.812387 
L 107.728087 201.852072 
L 108.850084 199.902878 
L 109.991516 197.965002 
L 111.15227 196.038637 
L 112.332229 194.123975 
L 113.531275 192.221209 
L 114.749289 190.330528 
L 115.986148 188.452121 
L 117.24173 186.586177 
L 118.515907 184.732882 
L 119.808554 182.892421 
L 121.11954 181.064978 
L 122.448735 179.250736 
L 123.796005 177.449877 
L 125.161216 175.66258 
L 126.544232 173.889024 
L 127.944914 172.129387 
L 129.363122 170.383845 
L 130.798714 168.652571 
L 132.251547 166.93574 
L 133.721475 165.233523 
L 135.208352 163.54609 
L 136.712028 161.87361 
L 138.232354 160.21625 
L 139.769176 158.574176 
L 141.322343 156.947552 
L 142.891698 155.336541 
L 144.174196 154.043615 
L 142.567806 152.437225 
L 141.272353 153.743211 
L 139.687146 155.370495 
L 138.118291 157.013549 
L 136.565945 158.67221 
L 135.030263 160.346311 
L 133.511398 162.035685 
L 132.009502 163.740163 
L 130.524726 165.459574 
L 129.057218 167.193747 
L 127.607125 168.942508 
L 126.174592 170.705682 
L 124.759762 172.483093 
L 123.362776 174.274563 
L 121.983775 176.079914 
L 120.622896 177.898963 
L 119.280275 179.731531 
L 117.956046 181.577433 
L 116.650343 183.436484 
L 115.363294 185.3085 
L 114.095031 187.193292 
L 112.845678 189.090672 
L 111.615361 191.000451 
L 110.404203 192.922437 
L 109.212325 194.856439 
L 108.039847 196.802262 
L 106.886885 198.759713 
L 105.753554 200.728595 
L 104.639969 202.708712 
L 103.546241 204.699866 
L 102.472478 206.701857 
L 101.418789 208.714486 
L 100.385278 210.73755 
L 99.37205 212.770849 
L 98.379204 214.814177 
L 97.406842 216.867332 
L 96.455059 218.930108 
L 95.523951 221.002298 
L 94.613611 223.083696 
L 93.72413 225.174093 
L 92.855597 227.27328 
L 92.0081 229.381047 
L 91.181722 231.497183 
L 90.376546 233.621478 
L 89.592653 235.753718 
L 88.830122 237.89369 
L 88.089028 240.04118 
L 87.369445 242.195974 
L 86.671446 244.357855 
L 85.995101 246.526609 
L 85.340476 248.702017 
L 84.707638 250.883863 
L 84.096649 253.071927 
L 83.507572 255.265993 
L 82.940464 257.465839 
L 82.395383 259.671246 
L 81.872382 261.881994 
L 81.371515 264.097861 
L 80.892831 266.318626 
L 80.436379 268.544066 
L 80.002203 270.77396 
L 79.590347 273.008084 
L 79.200853 275.246215 
L 78.83376 277.488128 
L 78.489103 279.733601 
L 78.166918 281.982407 
L 77.867237 284.234324 
L 77.59009 286.489124 
L 77.335504 288.746583 
L 77.103505 291.006474 
L 76.894117 293.268573 
L 76.707359 295.532653 
L 76.543251 297.798487 
L 76.401809 300.065848 
L 76.283048 302.334511 
L 76.186978 304.604248 
L 76.113611 306.874832 
L 76.062953 309.146036 
L 76.035009 311.417633 
L 76.029781 313.689396 
L 76.047272 315.961098 
L 76.087478 318.232511 
L 76.150396 320.503409 
L 76.236019 322.773564 
L 76.344339 325.042749 
L 76.475346 327.310738 
L 76.629025 329.577303 
L 76.805362 331.842218 
L 77.004338 334.105256 
L 77.225935 336.366192 
L 77.47013 338.624798 
L 77.736898 340.88085 
L 78.026213 343.134121 
L 78.338046 345.384387 
L 78.672366 347.631422 
L 79.029138 349.875001 
L 79.408329 352.1149 
L 79.809899 354.350896 
L 80.233808 356.582764 
L 80.680015 358.810281 
L 81.148474 361.033226 
L 81.639139 363.251374 
L 82.151961 365.464505 
L 82.686887 367.672397 
L 83.243866 369.87483 
L 83.82284 372.071583 
L 84.423753 374.262436 
L 85.046544 376.447171 
L 85.691151 378.625569 
L 86.357509 380.797411 
L 87.045552 382.962482 
L 87.755211 385.120565 
L 88.486415 387.271442 
L 89.239091 389.414901 
L 90.013163 391.550725 
L 90.808555 393.678703 
L 91.625186 395.79862 
L 92.462975 397.910264 
L 93.321838 400.013426 
L 95.420688 399.144054 
z
" clip-path="url(#p2b33a1ade8)" style="fill: none; stroke: #000000; stroke-width: 0.5; stroke-linejoin: miter"/>
   </g>
   <g id="patch_14">
    <path d="M 144.174196 154.043615 
L 145.772448 152.461267 
L 147.386442 150.894981 
L 149.016018 149.344912 
L 150.661014 147.811216 
L 152.321263 146.294047 
L 153.996602 144.793556 
L 155.686861 143.309893 
L 157.391872 141.843206 
L 159.111464 140.393643 
L 160.845466 138.961347 
L 162.593704 137.546463 
L 164.356003 136.149132 
L 166.132187 134.769493 
L 167.922078 133.407685 
L 169.725497 132.063844 
L 171.542265 130.738104 
L 173.372199 129.430597 
L 175.215116 128.141455 
L 177.070833 126.870806 
L 178.939163 125.618777 
L 180.819919 124.385494 
L 182.712915 123.17108 
L 184.617959 121.975657 
L 186.534862 120.799343 
L 188.463433 119.642257 
L 190.403477 118.504514 
L 192.354802 117.386228 
L 194.317212 116.287511 
L 196.290511 115.208472 
L 198.274501 114.14922 
L 200.268984 113.109861 
L 202.273762 112.090498 
L 204.288632 111.091234 
L 206.313394 110.112168 
L 208.347845 109.153398 
L 210.391783 108.21502 
L 212.445001 107.297128 
L 214.507296 106.399814 
L 216.578461 105.523168 
L 217.138978 105.290107 
L 216.269606 103.191257 
L 215.703427 103.426672 
L 213.611341 104.312174 
L 211.528215 105.218551 
L 209.454257 106.145715 
L 207.389674 107.093571 
L 205.334673 108.062026 
L 203.289458 109.050981 
L 201.254236 110.060339 
L 199.229208 111.089999 
L 197.214579 112.139857 
L 195.210548 113.209808 
L 193.217317 114.299746 
L 191.235085 115.409561 
L 189.26405 116.539143 
L 187.304409 117.688378 
L 185.356358 118.857152 
L 183.420092 120.045348 
L 181.495804 121.252847 
L 179.583688 122.479527 
L 177.683934 123.725268 
L 175.796732 124.989943 
L 173.922271 126.273427 
L 172.060738 127.575591 
L 170.21232 128.896304 
L 168.377201 130.235436 
L 166.555565 131.592852 
L 164.747594 132.968415 
L 162.953469 134.36199 
L 161.173369 135.773435 
L 159.407473 137.202611 
L 157.655956 138.649374 
L 155.918994 140.11358 
L 154.19676 141.595081 
L 152.489428 143.093731 
L 150.797167 144.609379 
L 149.120147 146.141873 
L 147.458536 147.69106 
L 145.812499 149.256786 
L 144.182201 150.838894 
L 142.567806 152.437225 
L 144.174196 154.043615 
z
" clip-path="url(#p2b33a1ade8)" style="fill: none; stroke: #000000; stroke-width: 0.5; stroke-linejoin: miter"/>
   </g>
   <g id="patch_15">
    <path d="M 217.138978 105.290107 
L 219.221108 104.439832 
L 221.311636 103.610421 
L 223.410354 102.801956 
L 225.517052 102.014518 
L 227.631518 101.248187 
L 229.753542 100.503038 
L 231.882911 99.779146 
L 234.019412 99.076584 
L 236.162833 98.395421 
L 238.312957 97.735727 
L 240.469571 97.097566 
L 242.632458 96.481003 
L 244.801403 95.886099 
L 246.976188 95.312914 
L 249.156597 94.761505 
L 251.34241 94.231928 
L 253.53341 93.724235 
L 255.729377 93.238477 
L 257.930091 92.774702 
L 260.135334 92.332957 
L 262.344883 91.913287 
L 264.558519 91.515733 
L 266.776019 91.140334 
L 268.997163 90.787129 
L 271.221727 90.456153 
L 273.44949 90.147438 
L 275.680228 89.861016 
L 277.91372 89.596916 
L 280.14974 89.355163 
L 282.388066 89.135782 
L 284.628474 88.938795 
L 286.87074 88.764222 
L 289.11464 88.612079 
L 291.359948 88.482383 
L 293.606442 88.375146 
L 295.853895 88.290379 
L 298.102084 88.22809 
L 300.350783 88.188286 
L 302.599767 88.170971 
L 303.206807 88.170151 
L 303.206807 85.898373 
L 302.593636 85.8992 
L 300.321934 85.916691 
L 298.050521 85.956897 
L 295.779623 86.019815 
L 293.509468 86.105438 
L 291.240283 86.213758 
L 288.972295 86.344764 
L 286.705729 86.498444 
L 284.440814 86.674781 
L 282.177776 86.873757 
L 279.91684 87.095354 
L 277.658234 87.339549 
L 275.402182 87.606317 
L 273.148911 87.895632 
L 270.898645 88.207465 
L 268.651611 88.541785 
L 266.408031 88.898557 
L 264.168132 89.277748 
L 261.932136 89.679318 
L 259.700268 90.103227 
L 257.472751 90.549434 
L 255.249807 91.017893 
L 253.031658 91.508558 
L 250.818527 92.02138 
L 248.610635 92.556306 
L 246.408202 93.113285 
L 244.211449 93.692259 
L 242.020596 94.293172 
L 239.835861 94.915963 
L 237.657464 95.56057 
L 235.485621 96.226928 
L 233.32055 96.914971 
L 231.162468 97.62463 
L 229.01159 98.355834 
L 226.868131 99.10851 
L 224.732307 99.882582 
L 222.60433 100.677974 
L 220.484413 101.494605 
L 218.372768 102.332394 
L 216.269606 103.191257 
L 217.138978 105.290107 
z
" clip-path="url(#p2b33a1ade8)" style="fill: none; stroke: #000000; stroke-width: 0.5; stroke-linejoin: miter"/>
   </g>
   <g id="text_1">
    <text style="font: 3px 'DejaVu Sans', 'Bitstream Vera Sans', 'Computer Modern Sans Serif', 'Lucida Grande', 'Verdana', 'Geneva', 'Lucid', 'Arial', 'Helvetica', 'Avant Garde', sans-serif; text-anchor: start" x="392.066385" y="101.528577" transform="rotate(-67.5 392.066385 101.528577)">University of Lubumbashi</text>
   </g>
   <g id="text_2">
    <text style="font: 3px 'DejaVu Sans', 'Bitstream Vera Sans', 'Computer Modern Sans Serif', 'Lucida Grande', 'Verdana', 'Geneva', 'Lucid', 'Arial', 'Helvetica', 'Avant Garde', sans-serif; text-anchor: start" x="528.02527" y="358.957493" transform="rotate(-348.75 528.02527 358.957493)">University of Kinshasa</text>
   </g>
   <g id="text_3">
    <text style="font: 3px 'DejaVu Sans', 'Bitstream Vera Sans', 'Computer Modern Sans Serif', 'Lucida Grande', 'Verdana', 'Geneva', 'Lucid', 'Arial', 'Helvetica', 'Avant Garde', sans-serif; text-anchor: start" x="346.793497" y="538.351109" transform="rotate(-281.25 346.793497 538.351109)">Universit Evanglique en Afrique</text>
   </g>
   <g id="text_4">
    <text style="font: 3px 'DejaVu Sans', 'Bitstream Vera Sans', 'Computer Modern Sans Serif', 'Lucida Grande', 'Verdana', 'Geneva', 'Lucid', 'Arial', 'Helvetica', 'Avant Garde', sans-serif; text-anchor: end" x="176.679102" y="504.489841" transform="rotate(-56.25 176.679102 504.489841)">National Institute of Biomedical Research</text>
   </g>
   <g id="text_5">
    <text style="font: 3px 'DejaVu Sans', 'Bitstream Vera Sans', 'Computer Modern Sans Serif', 'Lucida Grande', 'Verdana', 'Geneva', 'Lucid', 'Arial', 'Helvetica', 'Avant Garde', sans-serif; text-anchor: end" x="77.943628" y="269.430688" transform="rotate(-348.75 77.943628 269.430688)">Universit Libre de Kinshasa</text>
   </g>
   <g id="text_6">
    <text style="font: 3px 'DejaVu Sans', 'Bitstream Vera Sans', 'Computer Modern Sans Serif', 'Lucida Grande', 'Verdana', 'Geneva', 'Lucid', 'Arial', 'Helvetica', 'Avant Garde', sans-serif; text-anchor: end" x="174.733853" y="122.962384" transform="rotate(-303.75 174.733853 122.962384)">Universit Catholique de Bukavu</text>
   </g>
   <g id="text_7">
    <text style="font: 3px 'DejaVu Sans', 'Bitstream Vera Sans', 'Computer Modern Sans Serif', 'Lucida Grande', 'Verdana', 'Geneva', 'Lucid', 'Arial', 'Helvetica', 'Avant Garde', sans-serif; text-anchor: end" x="257.325539" y="88.257762" transform="rotate(-281.25 257.325539 88.257762)">Universit de Notre-Dame du Kasai</text>
   </g>
  </g>
 </g>
 <defs>
  <clipPath id="p2b33a1ade8">
   <path d="M 541.743552 313.076226 
C 541.743552 281.751867 535.573336 250.732099 523.586023 221.792165 
C 511.59871 192.852232 494.027423 166.554942 471.877757 144.405275 
C 449.728091 122.255609 423.430801 104.684322 394.490867 92.697009 
C 365.550933 80.709696 334.531165 74.53948 303.206807 74.53948 
C 271.882448 74.53948 240.86268 80.709696 211.922746 92.697009 
C 182.982813 104.684322 156.685523 122.255609 134.535856 144.405275 
C 112.38619 166.554942 94.814903 192.852232 82.82759 221.792165 
C 70.840277 250.732099 64.670061 281.751867 64.670061 313.076226 
C 64.670061 344.400584 70.840277 375.420352 82.82759 404.360286 
C 94.814903 433.30022 112.38619 459.59751 134.535856 481.747176 
C 156.685523 503.896842 182.982813 521.468129 211.922746 533.455442 
C 240.86268 545.442755 271.882448 551.612971 303.206807 551.612971 
C 334.531165 551.612971 365.550933 545.442755 394.490867 533.455442 
C 423.430801 521.468129 449.728091 503.896842 471.877757 481.747176 
C 494.027423 459.59751 511.59871 433.30022 523.586023 404.360286 
C 535.573336 375.420352 541.743552 344.400584 541.743552 313.076226 
M 303.206807 313.076226 
C 303.206807 313.076226 303.206807 313.076226 303.206807 313.076226 
C 303.206807 313.076226 303.206807 313.076226 303.206807 313.076226 
C 303.206807 313.076226 303.206807 313.076226 303.206807 313.076226 
C 303.206807 313.076226 303.206807 313.076226 303.206807 313.076226 
C 303.206807 313.076226 303.206807 313.076226 303.206807 313.076226 
C 303.206807 313.076226 303.206807 313.076226 303.206807 313.076226 
C 303.206807 313.076226 303.206807 313.076226 303.206807 313.076226 
C 303.206807 313.076226 303.206807 313.076226 303.206807 313.076226 
C 303.206807 313.076226 303.206807 313.076226 303.206807 313.076226 
C 303.206807 313.076226 303.206807 313.076226 303.206807 313.076226 
C 303.206807 313.076226 303.206807 313.076226 303.206807 313.076226 
C 303.206807 313.076226 303.206807 313.076226 303.206807 313.076226 
C 303.206807 313.076226 303.206807 313.076226 303.206807 313.076226 
C 303.206807 313.076226 303.206807 313.076226 303.206807 313.076226 
C 303.206807 313.076226 303.206807 313.076226 303.206807 313.076226 
C 303.206807 313.076226 303.206807 313.076226 303.206807 313.076226 
z
"/>
  </clipPath>
 </defs>
</svg>
