<?xml version="1.0" encoding="utf-8" standalone="no"?>
<!DOCTYPE svg PUBLIC "-//W3C//DTD SVG 1.1//EN"
  "http://www.w3.org/Graphics/SVG/1.1/DTD/svg11.dtd">
<svg xmlns:xlink="http://www.w3.org/1999/xlink" width="628.298455pt" height="596.439426pt" viewBox="0 0 628.298455 596.439426" xmlns="http://www.w3.org/2000/svg" version="1.1">
 <metadata>
  <rdf:RDF xmlns:dc="http://purl.org/dc/elements/1.1/" xmlns:cc="http://creativecommons.org/ns#" xmlns:rdf="http://www.w3.org/1999/02/22-rdf-syntax-ns#">
   <cc:Work>
    <dc:type rdf:resource="http://purl.org/dc/dcmitype/StillImage"/>
    <dc:date>2024-11-16T03:48:12.065815</dc:date>
    <dc:format>image/svg+xml</dc:format>
    <dc:creator>
     <cc:Agent>
      <dc:title>Matplotlib v3.8.4, https://matplotlib.org/</dc:title>
     </cc:Agent>
    </dc:creator>
   </cc:Work>
  </rdf:RDF>
 </metadata>
 <defs>
  <style type="text/css">*{stroke-linejoin: round; stroke-linecap: butt}</style>
 </defs>
 <g id="figure_1">
  <g id="patch_1">
   <path d="M 0 596.439426 
L 628.298455 596.439426 
L 628.298455 0 
L 0 0 
z
" style="fill: #ffffff"/>
  </g>
  <g id="axes_1">
   <g id="patch_2">
    <path d="M 313.195378 94.785331 
L 315.40148 94.796361 
L 317.607362 94.829452 
L 319.812802 94.8846 
L 322.017581 94.961798 
L 324.221477 95.061041 
L 326.424271 95.182317 
L 328.625742 95.325614 
L 330.82567 95.490919 
L 333.023834 95.678214 
L 335.220016 95.887481 
L 337.413996 96.1187 
L 339.605554 96.371846 
L 341.79447 96.646894 
L 343.980527 96.943818 
L 346.163505 97.262587 
L 348.343187 97.60317 
L 350.519354 97.965531 
L 352.691788 98.349637 
L 353.733074 98.541702 
L 354.142545 96.351222 
L 353.090742 96.157217 
L 350.896364 95.769232 
L 348.698215 95.403209 
L 346.496517 95.059187 
L 344.291488 94.737198 
L 342.08335 94.437275 
L 339.872323 94.159448 
L 337.658628 93.903745 
L 335.442487 93.670191 
L 333.224122 93.45881 
L 331.003753 93.269623 
L 328.781604 93.102649 
L 326.557896 92.957904 
L 324.332852 92.835403 
L 322.106694 92.735158 
L 319.879645 92.657179 
L 317.651927 92.601475 
L 315.423764 92.56805 
L 313.195378 92.556908 
z
" clip-path="url(#pca0acadb5b)" style="fill: #000080"/>
   </g>
   <g id="patch_3">
    <path d="M 353.733074 98.541702 
L 355.899586 98.957915 
L 358.061827 99.395771 
L 360.219583 99.855229 
L 362.372635 100.33624 
L 364.52077 100.838757 
L 366.663773 101.362731 
L 368.801429 101.908107 
L 370.933524 102.474833 
L 373.059846 103.062851 
L 375.180181 103.672102 
L 377.294317 104.302526 
L 379.402044 104.95406 
L 381.50315 105.626638 
L 383.597426 106.320193 
L 385.684661 107.034655 
L 387.764648 107.769954 
L 389.837177 108.526016 
L 391.902043 109.302764 
L 393.959038 110.100123 
L 396.007956 110.918011 
L 398.048593 111.756347 
L 400.080746 112.615047 
L 402.104209 113.494025 
L 404.118782 114.393194 
L 406.124263 115.312463 
L 408.120451 116.25174 
L 410.107146 117.210933 
L 412.08415 118.189943 
L 414.051266 119.188675 
L 416.008296 120.207028 
L 417.955044 121.244899 
L 419.891317 122.302186 
L 421.816921 123.378782 
L 423.731662 124.474581 
L 425.63535 125.589471 
L 427.527794 126.723343 
L 429.408804 127.876081 
L 431.278194 129.047572 
L 433.135775 130.237698 
L 434.981362 131.44634 
L 436.814771 132.673377 
L 438.635818 133.918687 
L 440.444321 135.182144 
L 442.2401 136.463623 
L 444.022974 137.762996 
L 445.792765 139.080132 
L 447.549297 140.414899 
L 449.292393 141.767165 
L 451.02188 143.136794 
L 452.737584 144.523649 
L 454.439334 145.927592 
L 456.12696 147.348481 
L 457.800293 148.786176 
L 459.459165 150.240532 
L 461.103412 151.711403 
L 461.821992 152.363588 
L 463.323271 150.716763 
L 462.597432 150.057991 
L 460.936577 148.572262 
L 459.260949 147.103216 
L 457.570713 145.650999 
L 455.866041 144.215757 
L 454.147101 142.797634 
L 452.414067 141.39677 
L 450.66711 140.013306 
L 448.906407 138.647381 
L 447.132132 137.299131 
L 445.344465 135.968691 
L 443.543582 134.656193 
L 441.729664 133.36177 
L 439.902893 132.08555 
L 438.063452 130.827662 
L 436.211524 129.58823 
L 434.347294 128.36738 
L 432.47095 127.165233 
L 430.582677 125.981908 
L 428.682666 124.817526 
L 426.771107 123.672201 
L 424.84819 122.546049 
L 422.914108 121.439182 
L 420.969054 120.351711 
L 419.013223 119.283744 
L 417.04681 118.235389 
L 415.070012 117.20675 
L 413.083027 116.197931 
L 411.086053 115.209031 
L 409.07929 114.24015 
L 407.062938 113.291385 
L 405.0372 112.36283 
L 403.002278 111.454579 
L 400.958376 110.566722 
L 398.905697 109.699348 
L 396.844447 108.852544 
L 394.774832 108.026395 
L 392.697059 107.220982 
L 390.611337 106.436387 
L 388.517872 105.672689 
L 386.416876 104.929963 
L 384.308558 104.208283 
L 382.193128 103.507723 
L 380.070798 102.828351 
L 377.941781 102.170237 
L 375.80629 101.533445 
L 373.664537 100.918039 
L 371.516738 100.324082 
L 369.363106 99.751632 
L 367.203858 99.200746 
L 365.039209 98.67148 
L 362.869375 98.163887 
L 360.694575 97.678017 
L 358.515024 97.213918 
L 356.330941 96.771639 
L 354.142545 96.351222 
z
" clip-path="url(#pca0acadb5b)" style="fill: #0000df"/>
   </g>
   <g id="patch_4">
    <path d="M 461.821992 152.363588 
L 463.44489 153.857981 
L 465.052763 155.368528 
L 466.645451 156.895078 
L 468.222793 158.437478 
L 469.784633 159.995575 
L 471.330814 161.569211 
L 472.861182 163.158231 
L 474.375583 164.762474 
L 475.873867 166.381781 
L 477.355882 168.01599 
L 478.821482 169.664936 
L 480.270519 171.328457 
L 481.702849 173.006384 
L 483.118329 174.69855 
L 484.516816 176.404786 
L 485.898171 178.124921 
L 487.262256 179.858784 
L 488.608934 181.606201 
L 489.938072 183.366997 
L 491.249535 185.140996 
L 492.543193 186.928021 
L 493.818916 188.727892 
L 495.076577 190.540431 
L 496.31605 192.365456 
L 497.537211 194.202784 
L 498.739938 196.052231 
L 499.924111 197.913613 
L 501.089611 199.786743 
L 502.236322 201.671435 
L 503.364129 203.567499 
L 504.472919 205.474747 
L 505.562582 207.392986 
L 506.633008 209.322027 
L 507.68409 211.261674 
L 508.715724 213.211736 
L 509.727806 215.172016 
L 510.720234 217.142319 
L 511.692911 219.122447 
L 512.645738 221.112204 
L 513.57862 223.111388 
L 514.491464 225.119802 
L 515.384178 227.137243 
L 516.256674 229.16351 
L 517.108863 231.198401 
L 517.940662 233.241712 
L 518.751986 235.293238 
L 519.542755 237.352775 
L 520.312889 239.420117 
L 521.062311 241.495057 
L 521.790947 243.577387 
L 522.498724 245.666899 
L 523.185571 247.763384 
L 523.851418 249.866632 
L 524.4962 251.976434 
L 525.119853 254.092578 
L 525.722313 256.214853 
L 526.30352 258.343046 
L 526.863417 260.476945 
L 527.401947 262.616336 
L 527.919057 264.761005 
L 528.414695 266.910738 
L 528.888811 269.065319 
L 529.341357 271.224535 
L 529.77229 273.388167 
L 530.181564 275.556001 
L 530.569141 277.727818 
L 530.93498 279.903403 
L 531.279045 282.082538 
L 531.601302 284.265004 
L 531.901719 286.450584 
L 532.180265 288.639058 
L 532.436913 290.830208 
L 532.671637 293.023816 
L 532.868165 295.043536 
L 535.087082 294.837923 
L 534.888569 292.797801 
L 534.651474 290.582036 
L 534.392234 288.368753 
L 534.110874 286.158173 
L 533.807423 283.950517 
L 533.48191 281.746006 
L 533.13437 279.54486 
L 532.764835 277.347299 
L 532.373344 275.153544 
L 531.959935 272.963813 
L 531.52465 270.778326 
L 531.067532 268.5973 
L 530.588627 266.420955 
L 530.087983 264.249508 
L 529.56565 262.083175 
L 529.02168 259.922174 
L 528.456128 257.766721 
L 527.86905 255.617031 
L 527.260504 253.473319 
L 526.630552 251.3358 
L 525.979257 249.204687 
L 525.306684 247.080193 
L 524.612899 244.962532 
L 523.897973 242.851913 
L 523.161977 240.74855 
L 522.404985 238.652652 
L 521.627072 236.564428 
L 520.828315 234.484087 
L 520.008796 232.411838 
L 519.168596 230.347888 
L 518.307798 228.292442 
L 517.426489 226.245708 
L 516.524757 224.207888 
L 515.602693 222.179188 
L 514.660388 220.159809 
L 513.697936 218.149955 
L 512.715435 216.149825 
L 511.712982 214.15962 
L 510.690677 212.179539 
L 509.648623 210.20978 
L 508.586923 208.25054 
L 507.505685 206.302014 
L 506.405015 204.364398 
L 505.285025 202.437886 
L 504.145826 200.52267 
L 502.987533 198.618941 
L 501.81026 196.72689 
L 500.614126 194.846706 
L 499.39925 192.978577 
L 498.165754 191.122691 
L 496.913761 189.279231 
L 495.643396 187.448384 
L 494.354787 185.630332 
L 493.048062 183.825256 
L 491.723351 182.033338 
L 490.380788 180.254756 
L 489.020507 178.489689 
L 487.642644 176.738312 
L 486.247335 175.000802 
L 484.834722 173.277331 
L 483.404945 171.568072 
L 481.958147 169.873196 
L 480.494473 168.192873 
L 479.014069 166.52727 
L 477.517084 164.876554 
L 476.003666 163.240891 
L 474.473968 161.620443 
L 472.928142 160.015373 
L 471.366343 158.425841 
L 469.788727 156.852006 
L 468.195451 155.294026 
L 466.586676 153.752057 
L 464.962562 152.226251 
L 463.323271 150.716763 
z
" clip-path="url(#pca0acadb5b)" style="fill: #0028ff"/>
   </g>
   <g id="patch_5">
    <path d="M 532.868165 295.043536 
L 533.060735 297.241245 
L 533.231318 299.44077 
L 533.379898 301.64189 
L 533.50646 303.844387 
L 533.610991 306.048039 
L 533.69348 308.252625 
L 533.75392 310.457927 
L 533.792305 312.663723 
L 533.808629 314.869792 
L 533.802893 317.075914 
L 533.775096 319.281869 
L 533.725241 321.487435 
L 533.653334 323.692393 
L 533.55938 325.896521 
L 533.443391 328.099599 
L 533.305377 330.301408 
L 533.145352 332.501726 
L 532.963333 334.700334 
L 532.868165 335.754899 
L 535.087082 335.960511 
L 535.183211 334.895294 
L 535.367069 332.674478 
L 535.52871 330.451935 
L 535.668118 328.227886 
L 535.78528 326.002554 
L 535.880182 323.776162 
L 535.952816 321.548932 
L 536.003174 319.321088 
L 536.031252 317.092851 
L 536.037046 314.864444 
L 536.020556 312.636092 
L 535.981784 310.408015 
L 535.920734 308.180438 
L 535.837411 305.953582 
L 535.731824 303.727671 
L 535.603984 301.502927 
L 535.453903 299.279573 
L 535.281597 297.057831 
L 535.087082 294.837923 
z
" clip-path="url(#pca0acadb5b)" style="fill: #0080ff"/>
   </g>
   <g id="patch_6">
    <path d="M 532.868165 335.754899 
L 532.653628 337.950572 
L 532.417145 340.14399 
L 532.158741 342.334934 
L 531.87844 344.523185 
L 531.576271 346.708523 
L 531.252264 348.89073 
L 530.906452 351.069588 
L 530.538869 353.244879 
L 530.149551 355.416385 
L 529.738539 357.58389 
L 529.305872 359.747176 
L 528.851594 361.906028 
L 528.375751 364.060228 
L 527.87839 366.209563 
L 527.359561 368.353817 
L 526.819316 370.492776 
L 526.257708 372.626225 
L 525.674795 374.753951 
L 525.387471 375.773073 
L 527.530826 376.38291 
L 527.821051 375.353494 
L 528.409853 373.204275 
L 528.977133 371.049276 
L 529.522836 368.888712 
L 530.046905 366.722799 
L 530.54929 364.551754 
L 531.02994 362.375793 
L 531.488806 360.195135 
L 531.925843 358.009998 
L 532.341007 355.820599 
L 532.734257 353.627158 
L 533.105554 351.429894 
L 533.454859 349.229028 
L 533.782138 347.024778 
L 534.08736 344.817366 
L 534.370492 342.607012 
L 534.631506 340.393938 
L 534.870378 338.178363 
L 535.087082 335.960511 
z
" clip-path="url(#pca0acadb5b)" style="fill: #00d4ff"/>
   </g>
   <g id="patch_7">
    <path d="M 525.387471 375.773073 
L 524.773133 377.89194 
L 524.137638 380.004558 
L 523.481048 382.110715 
L 522.80343 384.210201 
L 522.104851 386.302806 
L 521.385382 388.388321 
L 520.645094 390.466537 
L 519.884061 392.537246 
L 519.102359 394.600241 
L 518.300066 396.655317 
L 517.477264 398.702267 
L 516.634033 400.740886 
L 515.770459 402.770972 
L 514.886627 404.792321 
L 513.982627 406.80473 
L 513.058548 408.807999 
L 512.114482 410.801927 
L 511.150525 412.786314 
L 510.166773 414.760963 
L 509.163323 416.725677 
L 508.140277 418.680257 
L 507.097737 420.62451 
L 506.035807 422.55824 
L 504.954592 424.481254 
L 503.854202 426.39336 
L 502.734746 428.294367 
L 501.596337 430.184084 
L 500.439087 432.062323 
L 499.263114 433.928896 
L 498.068533 435.783616 
L 496.855466 437.626297 
L 495.624032 439.456756 
L 494.374356 441.27481 
L 493.106562 443.080275 
L 491.820778 444.872973 
L 490.517131 446.652724 
L 489.195751 448.419349 
L 487.856772 450.172673 
L 486.500327 451.912519 
L 485.126552 453.638714 
L 483.735583 455.351085 
L 482.327561 457.049461 
L 480.902626 458.733672 
L 479.46092 460.40355 
L 478.002587 462.058928 
L 476.527774 463.699639 
L 475.036628 465.325521 
L 473.529298 466.936411 
L 472.005935 468.532146 
L 470.466691 470.112569 
L 468.911719 471.67752 
L 467.341177 473.226844 
L 465.75522 474.760385 
L 464.154006 476.27799 
L 462.537698 477.779507 
L 461.821992 478.434846 
L 463.323271 480.081671 
L 464.046206 479.419712 
L 465.678841 477.903028 
L 467.296228 476.370093 
L 468.898205 474.821062 
L 470.484612 473.256089 
L 472.05529 471.67533 
L 473.610082 470.078943 
L 475.148833 468.467089 
L 476.671388 466.839928 
L 478.177596 465.197624 
L 479.667307 463.540339 
L 481.14037 461.86824 
L 482.596638 460.181495 
L 484.035967 458.480272 
L 485.458212 456.76474 
L 486.86323 455.035072 
L 488.250882 453.291441 
L 489.621029 451.534021 
L 490.973533 449.762987 
L 492.308259 447.978517 
L 493.625075 446.180789 
L 494.923847 444.369983 
L 496.204447 442.54628 
L 497.466746 440.709863 
L 498.710618 438.860914 
L 499.935939 436.99962 
L 501.142586 435.126165 
L 502.330438 433.240738 
L 503.499377 431.343527 
L 504.649285 429.434722 
L 505.780049 427.514513 
L 506.891554 425.583093 
L 507.98369 423.640654 
L 509.056347 421.687391 
L 510.109418 419.7235 
L 511.142798 417.749176 
L 512.156383 415.764617 
L 513.150072 413.770022 
L 514.123766 411.76559 
L 515.077367 409.751522 
L 516.010781 407.728018 
L 516.923913 405.695281 
L 517.816672 403.653515 
L 518.688969 401.602923 
L 519.540717 399.543712 
L 520.371831 397.476085 
L 521.182227 395.400252 
L 521.971825 393.316418 
L 522.740545 391.224792 
L 523.488311 389.125584 
L 524.215048 387.019004 
L 524.920683 384.905261 
L 525.605146 382.784568 
L 526.268368 380.657137 
L 526.910282 378.523179 
L 527.530826 376.38291 
z
" clip-path="url(#pca0acadb5b)" style="fill: #36ffc1"/>
   </g>
   <g id="patch_8">
    <path d="M 461.821992 478.434846 
L 460.184232 479.912936 
L 458.531773 481.374575 
L 456.86478 482.819616 
L 455.183421 484.247915 
L 453.487863 485.659329 
L 451.778275 487.053718 
L 450.05483 488.430941 
L 448.317698 489.790861 
L 446.567055 491.133342 
L 444.803075 492.45825 
L 443.025933 493.765452 
L 441.235809 495.054818 
L 439.432881 496.326218 
L 437.61733 497.579526 
L 435.789336 498.814616 
L 433.949083 500.031364 
L 432.096754 501.22965 
L 430.232536 502.409352 
L 428.356614 503.570354 
L 426.469176 504.712538 
L 424.570411 505.835792 
L 422.660508 506.940002 
L 420.739659 508.025058 
L 418.808055 509.090852 
L 416.865891 510.137276 
L 414.913359 511.164227 
L 412.950656 512.171602 
L 410.977977 513.1593 
L 408.99552 514.127221 
L 407.003483 515.075271 
L 405.002066 516.003352 
L 402.991467 516.911374 
L 400.97189 517.799244 
L 398.943534 518.666875 
L 396.906604 519.514179 
L 394.861303 520.341071 
L 392.807835 521.14747 
L 390.746407 521.933294 
L 388.677223 522.698465 
L 386.600491 523.442906 
L 384.516418 524.166542 
L 382.425214 524.869303 
L 380.327086 525.551116 
L 378.222246 526.211914 
L 376.110903 526.851632 
L 373.993268 527.470204 
L 371.869554 528.067569 
L 369.739972 528.643668 
L 367.604736 529.198442 
L 365.464059 529.731837 
L 363.318155 530.243798 
L 361.167239 530.734276 
L 359.011525 531.20322 
L 356.851231 531.650583 
L 354.68657 532.076322 
L 353.733074 532.256733 
L 354.142545 534.447213 
L 355.105673 534.26498 
L 357.292199 533.834941 
L 359.474315 533.383058 
L 361.651803 532.909377 
L 363.824446 532.413946 
L 365.992025 531.896813 
L 368.154325 531.35803 
L 370.31113 530.797652 
L 372.462222 530.215734 
L 374.607388 529.612335 
L 376.746413 528.987515 
L 378.879083 528.341336 
L 381.005185 527.673862 
L 383.124505 526.985162 
L 385.236833 526.275303 
L 387.341957 525.544357 
L 389.439666 524.792396 
L 391.52975 524.019497 
L 393.612002 523.225735 
L 395.686211 522.411191 
L 397.752172 521.575946 
L 399.809677 520.720083 
L 401.858521 519.843689 
L 403.898499 518.94685 
L 405.929406 518.029657 
L 407.95104 517.0922 
L 409.963198 516.134575 
L 411.96568 515.156876 
L 413.958285 514.159202 
L 415.940814 513.141652 
L 417.913068 512.104327 
L 419.87485 511.047333 
L 421.825965 509.970774 
L 423.766216 508.874757 
L 425.695411 507.759394 
L 427.613356 506.624794 
L 429.519859 505.471072 
L 431.41473 504.298343 
L 433.297778 503.106725 
L 435.168817 501.896335 
L 437.027659 500.667296 
L 438.874117 499.419731 
L 440.708008 498.153764 
L 442.529147 496.869521 
L 444.337353 495.567131 
L 446.132445 494.246725 
L 447.914244 492.908434 
L 449.68257 491.552393 
L 451.437248 490.178736 
L 453.178103 488.787601 
L 454.904958 487.379128 
L 456.617643 485.953457 
L 458.315986 484.510731 
L 459.999817 483.051093 
L 461.668968 481.574691 
L 463.323271 480.081671 
z
" clip-path="url(#pca0acadb5b)" style="fill: #7dff7a"/>
   </g>
   <g id="patch_9">
    <path d="M 353.733074 532.256733 
L 351.562508 532.65126 
L 349.388105 533.024063 
L 347.210083 533.375103 
L 345.02866 533.704345 
L 342.844054 534.011758 
L 340.656482 534.297309 
L 338.466165 534.560971 
L 336.27332 534.802716 
L 334.078168 535.022522 
L 331.880927 535.220365 
L 329.681818 535.396227 
L 327.48106 535.550088 
L 325.278874 535.681935 
L 323.075479 535.791754 
L 320.871097 535.879534 
L 318.665947 535.945266 
L 316.460249 535.988944 
L 314.254226 536.010562 
L 312.048096 536.01012 
L 309.842081 535.987617 
L 307.636401 535.943055 
L 305.431278 535.87644 
L 303.226931 535.787776 
L 301.02358 535.677074 
L 298.821447 535.544344 
L 296.620751 535.3896 
L 294.421712 535.212857 
L 292.224551 535.014133 
L 290.029487 534.793448 
L 287.83674 534.550823 
L 285.646528 534.286283 
L 283.459072 533.999855 
L 281.274588 533.691567 
L 279.093297 533.36145 
L 276.915416 533.009537 
L 274.741163 532.635863 
L 272.570756 532.240465 
L 270.404411 531.823384 
L 268.242345 531.38466 
L 266.084774 530.924338 
L 263.931914 530.442464 
L 261.783981 529.939085 
L 259.641188 529.414253 
L 257.503751 528.868019 
L 255.371883 528.300439 
L 253.245798 527.711569 
L 251.125707 527.101467 
L 249.011823 526.470196 
L 246.904358 525.817818 
L 244.803522 525.144398 
L 242.709524 524.450003 
L 240.622575 523.734704 
L 238.542884 522.998572 
L 236.470658 522.241679 
L 234.406104 521.464103 
L 232.349429 520.66592 
L 230.300838 519.847211 
L 228.260537 519.008057 
L 226.228729 518.148542 
L 224.205618 517.268753 
L 222.191406 516.368777 
L 220.186294 515.448704 
L 218.190483 514.508626 
L 216.204172 513.548637 
L 214.22756 512.568834 
L 212.260845 511.569314 
L 210.304224 510.550177 
L 208.357891 509.511525 
L 206.422042 508.453462 
L 204.496871 507.376094 
L 202.582569 506.279528 
L 200.679328 505.163875 
L 198.787339 504.029245 
L 196.90679 502.875752 
L 195.037871 501.703512 
L 193.180767 500.512641 
L 191.335664 499.30326 
L 189.502747 498.075488 
L 187.682199 496.829448 
L 185.874203 495.565266 
L 184.078938 494.283067 
L 182.296586 492.98298 
L 180.527322 491.665135 
L 178.771326 490.329663 
L 177.028772 488.976699 
L 175.299834 487.606377 
L 173.584686 486.218834 
L 171.883499 484.814209 
L 170.196443 483.392643 
L 168.523686 481.954278 
L 166.865397 480.499258 
L 165.22174 479.027727 
L 163.592881 477.539834 
L 161.978982 476.035727 
L 160.380205 474.515557 
L 158.796708 472.979475 
L 157.228652 471.427635 
L 155.676192 469.860192 
L 154.139484 468.277304 
L 152.618681 466.679127 
L 151.113936 465.065823 
L 149.625399 463.437552 
L 148.153219 461.794478 
L 146.697543 460.136764 
L 145.258516 458.464577 
L 143.836283 456.778083 
L 142.430986 455.077451 
L 141.042765 453.362852 
L 139.671759 451.634457 
L 138.318106 449.892438 
L 136.98194 448.136969 
L 135.663395 446.368228 
L 134.362603 444.586389 
L 133.079694 442.791632 
L 131.814797 440.984135 
L 130.568038 439.16408 
L 129.339541 437.331649 
L 128.12943 435.487025 
L 126.937825 433.630392 
L 125.764846 431.761936 
L 124.61061 429.881844 
L 123.475232 427.990303 
L 122.358825 426.087504 
L 121.261503 424.173636 
L 120.183373 422.248891 
L 119.124545 420.31346 
L 118.085123 418.367539 
L 117.065213 416.41132 
L 116.064915 414.445001 
L 115.709926 413.735288 
L 113.715123 414.728582 
L 114.073698 415.445463 
L 115.0841 417.431644 
L 116.114313 419.407623 
L 117.164233 421.3732 
L 118.233757 423.32818 
L 119.322777 425.272368 
L 120.431183 427.205568 
L 121.558866 429.127587 
L 122.705713 431.038234 
L 123.871608 432.937317 
L 125.056436 434.824646 
L 126.260077 436.700033 
L 127.482412 438.56329 
L 128.723317 440.414231 
L 129.98267 442.25267 
L 131.260344 444.078424 
L 132.556211 445.89131 
L 133.870142 447.691147 
L 135.202006 449.477755 
L 136.551669 451.250955 
L 137.918995 453.01057 
L 139.30385 454.756424 
L 140.706093 456.488343 
L 142.125585 458.206152 
L 143.562184 459.909681 
L 145.015746 461.59876 
L 146.486126 463.273218 
L 147.973177 464.932889 
L 149.47675 466.577607 
L 150.996694 468.207207 
L 152.532859 469.821527 
L 154.085089 471.420404 
L 155.65323 473.003679 
L 157.237126 474.571194 
L 158.836617 476.122792 
L 160.451544 477.658318 
L 162.081745 479.177618 
L 163.727057 480.680541 
L 165.387316 482.166935 
L 167.062356 483.636652 
L 168.752009 485.089547 
L 170.456106 486.525472 
L 172.174477 487.944284 
L 173.90695 489.345843 
L 175.653351 490.730007 
L 177.413507 492.096637 
L 179.187241 493.445599 
L 180.974375 494.776756 
L 182.774732 496.089975 
L 184.58813 497.385125 
L 186.414389 498.662077 
L 188.253327 499.920702 
L 190.104758 501.160876 
L 191.968498 502.382474 
L 193.84436 503.585373 
L 195.732158 504.769454 
L 197.631702 505.934599 
L 199.542802 507.080689 
L 201.465268 508.207612 
L 203.398906 509.315254 
L 205.343524 510.403505 
L 207.298927 511.472256 
L 209.264919 512.521399 
L 211.241305 513.55083 
L 213.227885 514.560446 
L 215.224463 515.550147 
L 217.230837 516.519832 
L 219.246808 517.469405 
L 221.272174 518.398772 
L 223.306731 519.307839 
L 225.350278 520.196515 
L 227.402609 521.064712 
L 229.463519 521.912342 
L 231.532803 522.739321 
L 233.610252 523.545566 
L 235.69566 524.330997 
L 237.788818 525.095535 
L 239.889517 525.839103 
L 241.997546 526.561627 
L 244.112695 527.263036 
L 246.234752 527.943258 
L 248.363505 528.602226 
L 250.498741 529.239874 
L 252.640247 529.856138 
L 254.787808 530.450956 
L 256.94121 531.02427 
L 259.100237 531.576021 
L 261.264674 532.106155 
L 263.434303 532.614618 
L 265.608909 533.10136 
L 267.788274 533.566331 
L 269.972179 534.009487 
L 272.160406 534.430781 
L 274.352737 534.830172 
L 276.548952 535.207621 
L 278.748832 535.563089 
L 280.952156 535.89654 
L 283.158705 536.207942 
L 285.368257 536.497264 
L 287.580592 536.764475 
L 289.795488 537.009551 
L 292.012725 537.232465 
L 294.23208 537.433197 
L 296.45333 537.611725 
L 298.676256 537.768032 
L 300.900633 537.902103 
L 303.126239 538.013923 
L 305.352853 538.103482 
L 307.58025 538.170771 
L 309.808209 538.215783 
L 312.036507 538.238513 
L 314.264921 538.23896 
L 316.493228 538.217123 
L 318.721205 538.173004 
L 320.948629 538.106608 
L 323.175278 538.017942 
L 325.40093 537.907013 
L 327.62536 537.773835 
L 329.848348 537.618419 
L 332.06967 537.440781 
L 334.289105 537.240939 
L 336.506431 537.018913 
L 338.721425 536.774726 
L 340.933867 536.508401 
L 343.143535 536.219965 
L 345.350208 535.909448 
L 347.553666 535.576879 
L 349.753688 535.222293 
L 351.950054 534.845725 
L 354.142545 534.447213 
z
" clip-path="url(#pca0acadb5b)" style="fill: #c1ff36"/>
   </g>
   <g id="patch_10">
    <path d="M 115.709926 413.735288 
L 114.736456 411.75555 
L 113.782831 409.766176 
L 112.849148 407.767365 
L 111.935499 405.759318 
L 111.041976 403.742235 
L 110.168668 401.716317 
L 109.315663 399.681768 
L 108.483045 397.638791 
L 107.670899 395.58759 
L 106.879304 393.52837 
L 106.108342 391.461337 
L 105.358087 389.386698 
L 104.628617 387.304661 
L 103.920003 385.215432 
L 103.232316 383.119223 
L 102.565625 381.016241 
L 101.919997 378.906698 
L 101.295497 376.790804 
L 100.692186 374.668771 
L 100.110125 372.540811 
L 99.549373 370.407137 
L 99.009985 368.267962 
L 98.492016 366.1235 
L 97.995516 363.973966 
L 97.520537 361.819575 
L 97.067125 359.660541 
L 96.635325 357.497082 
L 96.225181 355.329413 
L 95.836735 353.15775 
L 95.470023 350.982312 
L 95.125085 348.803316 
L 94.801953 346.620979 
L 94.50066 344.43552 
L 94.221236 342.247158 
L 93.96371 340.05611 
L 93.728107 337.862597 
L 93.522592 335.754899 
L 91.303675 335.960511 
L 91.511265 338.0895 
L 91.749249 340.30517 
L 92.009376 342.518349 
L 92.291622 344.728816 
L 92.595958 346.93635 
L 92.922354 349.140731 
L 93.270777 351.341737 
L 93.641193 353.53915 
L 94.033563 355.732748 
L 94.44785 357.922313 
L 94.884011 360.107626 
L 95.342003 362.288467 
L 95.82178 364.46462 
L 96.323295 366.635867 
L 96.846496 368.80199 
L 97.391333 370.962772 
L 97.957749 373.117999 
L 98.545689 375.267453 
L 99.155094 377.410921 
L 99.785902 379.548188 
L 100.438052 381.679039 
L 101.111477 383.803263 
L 101.80611 385.920647 
L 102.521882 388.030978 
L 103.258721 390.134046 
L 104.016553 392.229641 
L 104.795304 394.317553 
L 105.594894 396.397573 
L 106.415244 398.469494 
L 107.256272 400.533107 
L 108.117893 402.588207 
L 109.000022 404.634588 
L 109.902571 406.672046 
L 110.825449 408.700377 
L 111.768563 410.719377 
L 112.73182 412.728846 
L 113.715123 414.728582 
z
" clip-path="url(#pca0acadb5b)" style="fill: #ffe600"/>
   </g>
   <g id="patch_11">
    <path d="M 93.522592 335.754899 
L 93.330022 333.55719 
L 93.159439 331.357665 
L 93.010858 329.156544 
L 92.884297 326.954048 
L 92.779766 324.750396 
L 92.697276 322.545809 
L 92.636836 320.340507 
L 92.598452 318.134712 
L 92.582127 315.928642 
L 92.587864 313.72252 
L 92.615661 311.516566 
L 92.665515 309.310999 
L 92.737423 307.106042 
L 92.831376 304.901914 
L 92.947366 302.698835 
L 93.08538 300.497027 
L 93.245404 298.296709 
L 93.427424 296.098101 
L 93.63142 293.901423 
L 93.857373 291.706895 
L 94.105259 289.514736 
L 94.375054 287.325165 
L 94.666731 285.138402 
L 94.98026 282.954665 
L 95.315611 280.774173 
L 95.672749 278.597143 
L 96.05164 276.423793 
L 96.452245 274.25434 
L 96.874524 272.089002 
L 97.318435 269.927995 
L 97.783933 267.771535 
L 98.270972 265.619838 
L 98.779504 263.473119 
L 99.309477 261.331592 
L 99.860839 259.195472 
L 100.433533 257.064972 
L 101.003285 255.025361 
L 98.859931 254.415524 
L 98.284424 256.475738 
L 97.705944 258.627757 
L 97.149013 260.785454 
L 96.613687 262.948613 
L 96.100019 265.117016 
L 95.60806 267.290448 
L 95.13786 269.46869 
L 94.689465 271.651525 
L 94.26292 273.838735 
L 93.858269 276.030101 
L 93.475551 278.225404 
L 93.114805 280.424425 
L 92.776067 282.626942 
L 92.45937 284.832737 
L 92.164747 287.041589 
L 91.892227 289.253276 
L 91.641837 291.467578 
L 91.413603 293.684273 
L 91.207546 295.90314 
L 91.023688 298.123956 
L 90.862046 300.3465 
L 90.722638 302.570549 
L 90.605477 304.79588 
L 90.510575 307.022272 
L 90.437941 309.249502 
L 90.387583 311.477347 
L 90.359505 313.705584 
L 90.353711 315.93399 
L 90.3702 318.162343 
L 90.408972 320.390419 
L 90.470023 322.617997 
L 90.553345 324.844852 
L 90.658932 327.070763 
L 90.786772 329.295507 
L 90.936853 331.518861 
L 91.10916 333.740603 
L 91.303675 335.960511 
z
" clip-path="url(#pca0acadb5b)" style="fill: #ff9400"/>
   </g>
   <g id="patch_12">
    <path d="M 101.003285 255.025361 
L 101.617623 252.906495 
L 102.253119 250.793877 
L 102.909709 248.68772 
L 103.587327 246.588234 
L 104.285905 244.495628 
L 105.005375 242.410114 
L 105.745663 240.331898 
L 106.506696 238.261189 
L 107.288398 236.198193 
L 108.09069 234.143118 
L 108.913493 232.096168 
L 109.756723 230.057548 
L 110.620298 228.027462 
L 111.504129 226.006114 
L 112.40813 223.993705 
L 113.332209 221.990436 
L 114.276274 219.996508 
L 115.240232 218.01212 
L 116.223984 216.037471 
L 117.227433 214.072758 
L 118.250479 212.118177 
L 119.29302 210.173925 
L 120.35495 208.240195 
L 121.436164 206.317181 
L 122.536555 204.405074 
L 123.65601 202.504068 
L 124.79442 200.61435 
L 125.951669 198.736111 
L 127.127643 196.869538 
L 128.322223 195.014819 
L 129.535291 193.172137 
L 130.766724 191.341678 
L 132.0164 189.523625 
L 133.284194 187.718159 
L 134.569979 185.925461 
L 135.873626 184.14571 
L 137.141696 182.449648 
L 135.363376 181.106723 
L 134.082497 182.819917 
L 132.765682 184.617645 
L 131.46691 186.428451 
L 130.18631 188.252154 
L 128.924011 190.088572 
L 127.680139 191.93752 
L 126.454818 193.798815 
L 125.248171 195.672269 
L 124.060319 197.557696 
L 122.89138 199.454907 
L 121.741471 201.363713 
L 120.610708 203.283921 
L 119.499203 205.215342 
L 118.407067 207.15778 
L 117.33441 209.111043 
L 116.281339 211.074935 
L 115.247959 213.049258 
L 114.234374 215.033817 
L 113.240685 217.028412 
L 112.266991 219.032844 
L 111.313389 221.046913 
L 110.379976 223.070417 
L 109.466844 225.103153 
L 108.574085 227.144919 
L 107.701787 229.195511 
L 106.850039 231.254723 
L 106.018926 233.322349 
L 105.208529 235.398183 
L 104.418932 237.482017 
L 103.650211 239.573642 
L 102.902445 241.67285 
L 102.175709 243.779431 
L 101.470074 245.893173 
L 100.785611 248.013866 
L 100.122389 250.141298 
L 99.480474 252.275255 
L 98.859931 254.415524 
z
" clip-path="url(#pca0acadb5b)" style="fill: #ff4700"/>
   </g>
   <g id="patch_13">
    <path d="M 137.141696 182.449648 
L 138.479973 180.695788 
L 139.83572 178.955398 
L 141.208804 177.228653 
L 142.599085 175.515724 
L 144.006427 173.816784 
L 145.430687 172.132001 
L 146.871723 170.461546 
L 148.329392 168.805584 
L 149.803547 167.164281 
L 151.294041 165.537802 
L 152.800725 163.926308 
L 154.323449 162.329962 
L 155.86206 160.748923 
L 157.416403 159.183348 
L 158.986325 157.633395 
L 160.571667 156.099218 
L 162.172272 154.580972 
L 163.787979 153.078807 
L 165.418626 151.592873 
L 167.064051 150.123321 
L 168.724089 148.670296 
L 170.398574 147.233943 
L 172.087338 145.814407 
L 173.790213 144.411829 
L 175.507029 143.02635 
L 177.237613 141.658108 
L 178.981793 140.30724 
L 180.739394 138.973881 
L 182.510241 137.658165 
L 184.294156 136.360222 
L 186.090961 135.080183 
L 187.900477 133.818176 
L 189.722522 132.574327 
L 191.556914 131.34876 
L 193.403469 130.141598 
L 195.262004 128.952962 
L 197.132332 127.78297 
L 199.014267 126.63174 
L 200.907619 125.499386 
L 202.8122 124.386022 
L 204.727819 123.291759 
L 206.654285 122.216707 
L 208.591405 121.160973 
L 210.538985 120.124662 
L 212.496831 119.107879 
L 214.464747 118.110725 
L 216.442535 117.133299 
L 218.429999 116.1757 
L 220.426939 115.238023 
L 222.433156 114.320362 
L 224.448449 113.422809 
L 226.472617 112.545453 
L 228.505457 111.688383 
L 230.546766 110.851683 
L 232.596339 110.035438 
L 234.653973 109.239729 
L 236.71946 108.464636 
L 238.792595 107.710236 
L 240.873171 106.976605 
L 242.960978 106.263816 
L 245.055809 105.571941 
L 247.157454 104.901048 
L 249.265702 104.251204 
L 251.380344 103.622476 
L 253.501166 103.014924 
L 255.627959 102.428611 
L 257.760508 101.863595 
L 259.8986 101.319932 
L 262.042022 100.797677 
L 264.190559 100.296882 
L 266.343997 99.817597 
L 268.50212 99.35987 
L 270.664712 98.923747 
L 272.657683 98.541702 
L 272.248211 96.351222 
L 270.235109 96.737126 
L 268.050673 97.177655 
L 265.870751 97.640005 
L 263.695561 98.124131 
L 261.525321 98.629985 
L 259.360249 99.157515 
L 257.200559 99.70667 
L 255.04647 100.277393 
L 252.898195 100.869628 
L 250.755949 101.483317 
L 248.619948 102.118396 
L 246.490404 102.774804 
L 244.36753 103.452473 
L 242.25154 104.151338 
L 240.142643 104.871326 
L 238.041052 105.612368 
L 235.946976 106.374388 
L 233.860625 107.15731 
L 231.782208 107.961057 
L 229.711931 108.785547 
L 227.650003 109.630698 
L 225.596629 110.496426 
L 223.552015 111.382643 
L 221.516366 112.289263 
L 219.489884 113.216193 
L 217.472773 114.163342 
L 215.465234 115.130613 
L 213.467467 116.117912 
L 211.479674 117.125138 
L 209.502052 118.152192 
L 207.534799 119.19897 
L 205.578112 120.265368 
L 203.632187 121.35128 
L 201.697218 122.456596 
L 199.773399 123.581206 
L 197.860922 124.724997 
L 195.959978 125.887856 
L 194.070758 127.069666 
L 192.19345 128.270309 
L 190.328242 129.489665 
L 188.475321 130.727611 
L 186.634872 131.984024 
L 184.807078 133.258779 
L 182.992124 134.551747 
L 181.190189 135.862801 
L 179.401455 137.191807 
L 177.6261 138.538634 
L 175.864302 139.903148 
L 174.116237 141.28521 
L 172.38208 142.684684 
L 170.662004 144.101429 
L 168.956182 145.535304 
L 167.264783 146.986165 
L 165.587977 148.453867 
L 163.925931 149.938264 
L 162.278813 151.439206 
L 160.646786 152.956545 
L 159.030014 154.490127 
L 157.428658 156.039801 
L 155.842878 157.60541 
L 154.272834 159.186798 
L 152.718682 160.783808 
L 151.180577 162.396279 
L 149.658674 164.02405 
L 148.153125 165.666958 
L 146.664079 167.32484 
L 145.191686 168.997529 
L 143.736094 170.684858 
L 142.297447 172.386658 
L 140.875891 174.102759 
L 139.471565 175.83299 
L 138.084613 177.577178 
L 136.715171 179.335147 
L 135.363376 181.106723 
z
" clip-path="url(#pca0acadb5b)" style="fill: #df0000"/>
   </g>
   <g id="patch_14">
    <path d="M 272.657683 98.541702 
L 274.828249 98.147174 
L 277.002652 97.774372 
L 279.180673 97.423332 
L 281.362097 97.094089 
L 283.546703 96.786677 
L 285.734275 96.501125 
L 287.924592 96.237464 
L 290.117437 95.995718 
L 292.312589 95.775913 
L 294.509829 95.578069 
L 296.708939 95.402208 
L 298.909696 95.248346 
L 301.111883 95.116499 
L 303.315277 95.00668 
L 305.51966 94.9189 
L 307.72481 94.853168 
L 309.930507 94.809491 
L 312.136531 94.787872 
L 313.195378 94.785331 
L 313.195378 92.556908 
L 312.125836 92.559474 
L 309.897529 92.581312 
L 307.669552 92.62543 
L 305.442127 92.691826 
L 303.215478 92.780493 
L 300.989827 92.891421 
L 298.765396 93.0246 
L 296.542409 93.180016 
L 294.321087 93.357654 
L 292.101652 93.557495 
L 289.884326 93.779521 
L 287.669332 94.023709 
L 285.45689 94.290034 
L 283.247222 94.578469 
L 281.040548 94.888987 
L 278.83709 95.221555 
L 276.637068 95.576141 
L 274.440702 95.952709 
L 272.248211 96.351222 
z
" clip-path="url(#pca0acadb5b)" style="fill: #800000"/>
   </g>
   <g id="PatchCollection_1">
    <path d="M 137.141696 182.449648 
L 137.141696 182.449648 
L 138.479973 180.695788 
L 139.83572 178.955398 
L 141.208804 177.228653 
L 142.599085 175.515724 
L 144.006427 173.816784 
L 145.430687 172.132001 
L 146.871723 170.461546 
L 148.329392 168.805584 
L 149.803547 167.164281 
L 151.294041 165.537802 
L 152.800725 163.926308 
L 154.323449 162.329962 
L 155.86206 160.748923 
L 157.416403 159.183348 
L 158.986325 157.633395 
L 160.571667 156.099218 
L 162.172272 154.580972 
L 163.787979 153.078807 
L 164.568764 152.363588 
L 164.568764 152.363588 
Q 313.195378 315.399217 272.657683 98.541702 
L 272.657683 98.541702 
L 272.657683 98.541702 
L 274.828249 98.147174 
L 277.002652 97.774372 
L 279.180673 97.423332 
L 281.362097 97.094089 
L 283.546703 96.786677 
L 285.734275 96.501125 
L 287.924592 96.237464 
L 290.117437 95.995718 
L 292.312589 95.775913 
L 294.509829 95.578069 
L 296.708939 95.402208 
L 298.909696 95.248346 
L 301.111883 95.116499 
L 303.315277 95.00668 
L 305.51966 94.9189 
L 307.72481 94.853168 
L 309.930507 94.809491 
L 312.136531 94.787872 
L 313.195378 94.785331 
L 313.195378 94.785331 
Q 313.195378 315.399217 137.141696 182.449648 
z
" clip-path="url(#pca0acadb5b)" style="fill: #df0000; fill-opacity: 0.5; stroke: #808080; stroke-opacity: 0.5; stroke-width: 0.1"/>
    <path d="M 353.733074 532.256733 
L 353.733074 532.256733 
L 351.562508 532.65126 
L 349.388105 533.024063 
L 347.210083 533.375103 
L 345.02866 533.704345 
L 342.844054 534.011758 
L 340.656482 534.297309 
L 338.466165 534.560971 
L 336.27332 534.802716 
L 334.078168 535.022522 
L 331.880927 535.220365 
L 329.681818 535.396227 
L 327.48106 535.550088 
L 325.278874 535.681935 
L 323.075479 535.791754 
L 320.871097 535.879534 
L 318.665947 535.945266 
L 316.460249 535.988944 
L 314.254226 536.010562 
L 312.048096 536.01012 
L 309.842081 535.987617 
L 307.636401 535.943055 
L 305.431278 535.87644 
L 303.226931 535.787776 
L 301.02358 535.677074 
L 298.821447 535.544344 
L 296.620751 535.3896 
L 294.421712 535.212857 
L 292.224551 535.014133 
L 290.029487 534.793448 
L 287.83674 534.550823 
L 285.646528 534.286283 
L 283.459072 533.999855 
L 281.274588 533.691567 
L 279.093297 533.36145 
L 276.915416 533.009537 
L 274.741163 532.635863 
L 272.657683 532.256733 
L 272.657683 532.256733 
Q 313.195378 315.399217 164.568764 152.363588 
L 164.568764 152.363588 
L 164.568764 152.363588 
L 166.206525 150.885498 
L 167.858984 149.42386 
L 169.525976 147.978819 
L 171.207336 146.55052 
L 172.902894 145.139105 
L 174.612481 143.744717 
L 176.335927 142.367494 
L 178.073058 141.007573 
L 179.823702 139.665092 
L 181.587682 138.340184 
L 183.364823 137.032982 
L 185.154947 135.743616 
L 186.957875 134.472216 
L 188.773427 133.218909 
L 190.601421 131.983819 
L 192.441674 130.76707 
L 194.294002 129.568785 
L 196.158221 128.389082 
L 198.034143 127.228081 
L 199.921581 126.085896 
L 201.820346 124.962643 
L 203.730249 123.858432 
L 205.651098 122.773376 
L 207.582701 121.707583 
L 209.524866 120.661158 
L 211.477397 119.634207 
L 213.440101 118.626832 
L 215.41278 117.639135 
L 217.395237 116.671213 
L 219.387273 115.723164 
L 221.388691 114.795082 
L 223.399289 113.887061 
L 225.418867 112.99919 
L 227.447222 112.13156 
L 229.484152 111.284256 
L 231.529454 110.457363 
L 233.50045 109.682895 
L 233.50045 109.682895 
Q 313.195378 315.399217 353.733074 532.256733 
z
" clip-path="url(#pca0acadb5b)" style="fill: #c1ff36; fill-opacity: 0.5; stroke: #808080; stroke-opacity: 0.5; stroke-width: 0.1"/>
    <path d="M 272.657683 532.256733 
L 272.657683 532.256733 
L 270.491171 531.84052 
L 268.328929 531.402663 
L 266.171174 530.943206 
L 264.018121 530.462195 
L 261.869986 529.959677 
L 259.726984 529.435704 
L 257.589328 528.890327 
L 255.457233 528.323601 
L 253.330911 527.735583 
L 251.210576 527.126332 
L 249.096439 526.495908 
L 246.988713 525.844375 
L 244.887606 525.171797 
L 242.793331 524.478242 
L 240.706096 523.763779 
L 238.626109 523.02848 
L 236.55358 522.272419 
L 234.488714 521.49567 
L 233.50045 521.11554 
L 233.50045 521.11554 
Q 313.195378 315.399217 93.522592 335.754899 
L 93.522592 335.754899 
L 93.522592 335.754899 
L 93.330022 333.55719 
L 93.159439 331.357665 
L 93.010858 329.156544 
L 92.884297 326.954048 
L 92.779766 324.750396 
L 92.697276 322.545809 
L 92.636836 320.340507 
L 92.598452 318.134712 
L 92.582127 315.928642 
L 92.587864 313.72252 
L 92.615661 311.516566 
L 92.665515 309.310999 
L 92.737423 307.106042 
L 92.831376 304.901914 
L 92.947366 302.698835 
L 93.08538 300.497027 
L 93.245404 298.296709 
L 93.427424 296.098101 
L 93.522592 295.043536 
L 93.522592 295.043536 
Q 313.195378 315.399217 272.657683 532.256733 
z
" clip-path="url(#pca0acadb5b)" style="fill: #c1ff36; fill-opacity: 0.5; stroke: #808080; stroke-opacity: 0.5; stroke-width: 0.1"/>
    <path d="M 233.50045 521.11554 
L 233.50045 521.11554 
L 231.447306 520.308318 
L 229.402337 519.480605 
L 227.365747 518.632485 
L 225.337739 517.764041 
L 223.318517 516.875361 
L 221.308283 515.966534 
L 219.307238 515.03765 
L 217.315581 514.088803 
L 215.333513 513.120086 
L 213.36123 512.131598 
L 211.39893 511.123437 
L 209.446811 510.095703 
L 207.505066 509.0485 
L 205.57389 507.981932 
L 203.653476 506.896106 
L 201.744016 505.79113 
L 199.845701 504.667116 
L 197.958721 503.524175 
L 197.057133 502.968924 
L 197.057133 502.968924 
Q 313.195378 315.399217 525.387471 375.773073 
L 525.387471 375.773073 
L 525.387471 375.773073 
L 524.773133 377.89194 
L 524.137638 380.004558 
L 523.481048 382.110715 
L 522.80343 384.210201 
L 522.104851 386.302806 
L 521.385382 388.388321 
L 520.645094 390.466537 
L 519.884061 392.537246 
L 519.102359 394.600241 
L 518.300066 396.655317 
L 517.477264 398.702267 
L 516.634033 400.740886 
L 515.770459 402.770972 
L 514.886627 404.792321 
L 513.982627 406.80473 
L 513.058548 408.807999 
L 512.114482 410.801927 
L 511.150525 412.786314 
L 510.680831 413.735288 
L 510.680831 413.735288 
Q 313.195378 315.399217 233.50045 521.11554 
z
" clip-path="url(#pca0acadb5b)" style="fill: #c1ff36; fill-opacity: 0.5; stroke: #808080; stroke-opacity: 0.5; stroke-width: 0.1"/>
    <path d="M 461.821992 478.434846 
L 461.821992 478.434846 
L 460.184232 479.912936 
L 458.531773 481.374575 
L 456.86478 482.819616 
L 455.183421 484.247915 
L 453.487863 485.659329 
L 451.778275 487.053718 
L 450.05483 488.430941 
L 448.317698 489.790861 
L 446.567055 491.133342 
L 444.803075 492.45825 
L 443.025933 493.765452 
L 441.235809 495.054818 
L 439.432881 496.326218 
L 437.61733 497.579526 
L 435.789336 498.814616 
L 433.949083 500.031364 
L 432.096754 501.22965 
L 430.232536 502.409352 
L 429.333624 502.968924 
L 429.333624 502.968924 
Q 313.195378 315.399217 233.50045 109.682895 
L 233.50045 109.682895 
L 233.50045 109.682895 
L 235.561564 108.896245 
L 237.630441 108.130244 
L 239.706874 107.384971 
L 241.790657 106.660499 
L 243.881579 105.9569 
L 245.979433 105.274246 
L 248.084009 104.612604 
L 250.195095 103.97204 
L 252.312482 103.352619 
L 254.435956 102.754403 
L 256.565307 102.17745 
L 258.700321 101.62182 
L 260.840784 101.087567 
L 262.986482 100.574746 
L 265.137202 100.083406 
L 267.292727 99.613598 
L 269.452842 99.165368 
L 271.617332 98.738762 
L 272.657683 98.541702 
L 272.657683 98.541702 
Q 313.195378 315.399217 461.821992 478.434846 
z
" clip-path="url(#pca0acadb5b)" style="fill: #7dff7a; fill-opacity: 0.5; stroke: #808080; stroke-opacity: 0.5; stroke-width: 0.1"/>
    <path d="M 429.333624 502.968924 
L 429.333624 502.968924 
L 427.452151 504.120908 
L 425.559253 505.254021 
L 423.655118 506.368148 
L 421.739938 507.463179 
L 419.813903 508.539003 
L 417.877206 509.595514 
L 415.930042 510.632605 
L 413.972604 511.650173 
L 412.005088 512.648116 
L 410.027692 513.626334 
L 408.040612 514.58473 
L 406.044048 515.523207 
L 404.038199 516.441672 
L 402.023266 517.340033 
L 399.99945 518.218201 
L 397.966954 519.076086 
L 395.92598 519.913604 
L 393.876734 520.73067 
L 392.890306 521.11554 
L 392.890306 521.11554 
Q 313.195378 315.399217 197.057133 502.968924 
L 197.057133 502.968924 
L 197.057133 502.968924 
L 195.187274 501.798182 
L 193.329216 500.608801 
L 191.483144 499.400899 
L 189.649244 498.174597 
L 187.827697 496.930017 
L 186.018688 495.667285 
L 184.222396 494.386526 
L 182.439002 493.087868 
L 180.668682 491.771442 
L 178.911616 490.437379 
L 177.167978 489.085812 
L 175.437942 487.716876 
L 173.721682 486.330709 
L 172.019369 484.927449 
L 170.331174 483.507236 
L 168.657265 482.070212 
L 166.997809 480.616522 
L 165.352974 479.146309 
L 164.568764 478.434846 
L 164.568764 478.434846 
Q 313.195378 315.399217 429.333624 502.968924 
z
" clip-path="url(#pca0acadb5b)" style="fill: #7dff7a; fill-opacity: 0.5; stroke: #808080; stroke-opacity: 0.5; stroke-width: 0.1"/>
    <path d="M 510.680831 413.735288 
L 510.680831 413.735288 
L 509.687612 415.705193 
L 508.674745 417.665067 
L 507.642329 419.614715 
L 506.59047 421.553942 
L 505.51927 423.482553 
L 504.428839 425.400355 
L 503.319284 427.307158 
L 502.190717 429.20277 
L 501.043251 431.087002 
L 499.877 432.959665 
L 498.692081 434.820572 
L 497.488613 436.669537 
L 496.266715 438.506375 
L 495.026511 440.330903 
L 493.768123 442.142937 
L 492.491679 443.942298 
L 491.197305 445.728804 
L 489.88513 447.502277 
L 489.24906 448.348786 
L 489.24906 448.348786 
Q 313.195378 315.399217 101.003285 255.025361 
L 101.003285 255.025361 
L 101.003285 255.025361 
L 101.617623 252.906495 
L 102.253119 250.793877 
L 102.909709 248.68772 
L 103.587327 246.588234 
L 104.285905 244.495628 
L 105.005375 242.410114 
L 105.745663 240.331898 
L 106.506696 238.261189 
L 107.288398 236.198193 
L 108.09069 234.143118 
L 108.913493 232.096168 
L 109.756723 230.057548 
L 110.620298 228.027462 
L 111.504129 226.006114 
L 112.40813 223.993705 
L 113.332209 221.990436 
L 114.276274 219.996508 
L 115.240232 218.01212 
L 115.709926 217.063146 
L 115.709926 217.063146 
Q 313.195378 315.399217 510.680831 413.735288 
z
" clip-path="url(#pca0acadb5b)" style="fill: #36ffc1; fill-opacity: 0.5; stroke: #808080; stroke-opacity: 0.5; stroke-width: 0.1"/>
    <path d="M 489.24906 448.348786 
L 489.24906 448.348786 
L 487.910784 450.102646 
L 486.555036 451.843036 
L 485.181953 453.569782 
L 483.791671 455.28271 
L 482.38433 456.981651 
L 480.96007 458.666433 
L 479.519033 460.336889 
L 478.061365 461.992851 
L 476.58721 463.634153 
L 475.096715 465.260633 
L 473.590031 466.872126 
L 472.067308 468.468472 
L 470.528697 470.049512 
L 468.974353 471.615086 
L 467.404432 473.165039 
L 465.819089 474.699216 
L 464.218485 476.217463 
L 462.602778 477.719628 
L 461.821992 478.434846 
L 461.821992 478.434846 
Q 313.195378 315.399217 392.890306 521.11554 
L 392.890306 521.11554 
L 392.890306 521.11554 
L 390.829193 521.90219 
L 388.760316 522.66819 
L 386.683882 523.413463 
L 384.6001 524.137936 
L 382.509177 524.841534 
L 380.411323 525.524188 
L 378.306748 526.185831 
L 376.195661 526.826394 
L 374.078275 527.445815 
L 371.9548 528.044032 
L 369.82545 528.620984 
L 367.690436 529.176614 
L 365.549973 529.710867 
L 363.404274 530.223689 
L 361.253555 530.715028 
L 359.09803 531.184836 
L 356.937915 531.633066 
L 354.773425 532.059672 
L 353.733074 532.256733 
L 353.733074 532.256733 
Q 313.195378 315.399217 489.24906 448.348786 
z
" clip-path="url(#pca0acadb5b)" style="fill: #36ffc1; fill-opacity: 0.5; stroke: #808080; stroke-opacity: 0.5; stroke-width: 0.1"/>
    <path d="M 532.868165 335.754899 
L 532.868165 335.754899 
L 532.653628 337.950572 
L 532.417145 340.14399 
L 532.158741 342.334934 
L 531.87844 344.523185 
L 531.576271 346.708523 
L 531.252264 348.89073 
L 530.906452 351.069588 
L 530.538869 353.244879 
L 530.149551 355.416385 
L 529.738539 357.58389 
L 529.305872 359.747176 
L 528.851594 361.906028 
L 528.375751 364.060228 
L 527.87839 366.209563 
L 527.359561 368.353817 
L 526.819316 370.492776 
L 526.257708 372.626225 
L 525.674795 374.753951 
L 525.387471 375.773073 
L 525.387471 375.773073 
Q 313.195378 315.399217 115.709926 217.063146 
L 115.709926 217.063146 
L 115.709926 217.063146 
L 116.703144 215.093241 
L 117.716012 213.133367 
L 118.748427 211.183719 
L 119.800287 209.244493 
L 120.871486 207.315882 
L 121.961918 205.398079 
L 123.071472 203.491276 
L 124.200039 201.595664 
L 125.347505 199.711433 
L 126.513756 197.83877 
L 127.698675 195.977862 
L 128.902144 194.128897 
L 130.124041 192.292059 
L 131.364246 190.467532 
L 132.622633 188.655497 
L 133.899078 186.856137 
L 135.193452 185.069631 
L 136.505626 183.296158 
L 137.141696 182.449648 
L 137.141696 182.449648 
Q 313.195378 315.399217 532.868165 335.754899 
z
" clip-path="url(#pca0acadb5b)" style="fill: #00d4ff; fill-opacity: 0.5; stroke: #808080; stroke-opacity: 0.5; stroke-width: 0.1"/>
    <path d="M 461.821992 152.363588 
L 461.821992 152.363588 
L 463.44489 153.857981 
L 465.052763 155.368528 
L 466.645451 156.895078 
L 468.222793 158.437478 
L 469.784633 159.995575 
L 471.330814 161.569211 
L 472.861182 163.158231 
L 474.375583 164.762474 
L 475.873867 166.381781 
L 477.355882 168.01599 
L 478.821482 169.664936 
L 480.270519 171.328457 
L 481.702849 173.006384 
L 483.118329 174.69855 
L 484.516816 176.404786 
L 485.898171 178.124921 
L 487.262256 179.858784 
L 488.608934 181.606201 
L 489.938072 183.366997 
L 491.249535 185.140996 
L 492.543193 186.928021 
L 493.818916 188.727892 
L 495.076577 190.540431 
L 496.31605 192.365456 
L 497.537211 194.202784 
L 498.739938 196.052231 
L 499.924111 197.913613 
L 501.089611 199.786743 
L 502.236322 201.671435 
L 503.364129 203.567499 
L 504.472919 205.474747 
L 505.562582 207.392986 
L 506.633008 209.322027 
L 507.68409 211.261674 
L 508.715724 213.211736 
L 509.727806 215.172016 
L 510.680831 217.063146 
L 510.680831 217.063146 
Q 313.195378 315.399217 115.709926 413.735288 
L 115.709926 413.735288 
L 115.709926 413.735288 
L 114.736456 411.75555 
L 113.782831 409.766176 
L 112.849148 407.767365 
L 111.935499 405.759318 
L 111.041976 403.742235 
L 110.168668 401.716317 
L 109.315663 399.681768 
L 108.483045 397.638791 
L 107.670899 395.58759 
L 106.879304 393.52837 
L 106.108342 391.461337 
L 105.358087 389.386698 
L 104.628617 387.304661 
L 103.920003 385.215432 
L 103.232316 383.119223 
L 102.565625 381.016241 
L 101.919997 378.906698 
L 101.295497 376.790804 
L 100.692186 374.668771 
L 100.110125 372.540811 
L 99.549373 370.407137 
L 99.009985 368.267962 
L 98.492016 366.1235 
L 97.995516 363.973966 
L 97.520537 361.819575 
L 97.067125 359.660541 
L 96.635325 357.497082 
L 96.225181 355.329413 
L 95.836735 353.15775 
L 95.470023 350.982312 
L 95.125085 348.803316 
L 94.801953 346.620979 
L 94.50066 344.43552 
L 94.221236 342.247158 
L 93.96371 340.05611 
L 93.728107 337.862597 
L 93.522592 335.754899 
L 93.522592 335.754899 
Q 313.195378 315.399217 461.821992 152.363588 
z
" clip-path="url(#pca0acadb5b)" style="fill: #0028ff; fill-opacity: 0.5; stroke: #808080; stroke-opacity: 0.5; stroke-width: 0.1"/>
    <path d="M 510.680831 217.063146 
L 510.680831 217.063146 
L 511.654301 219.042885 
L 512.607925 221.032259 
L 513.541609 223.031069 
L 514.455258 225.039116 
L 515.348781 227.0562 
L 516.222089 229.082117 
L 517.075094 231.116666 
L 517.907711 233.159643 
L 518.719858 235.210845 
L 519.511452 237.270064 
L 520.282415 239.337097 
L 521.032669 241.411736 
L 521.76214 243.493774 
L 522.470754 245.583002 
L 523.158441 247.679212 
L 523.825132 249.782193 
L 524.47076 251.891736 
L 525.09526 254.00763 
L 525.387471 255.025361 
L 525.387471 255.025361 
Q 313.195378 315.399217 164.568764 478.434846 
L 164.568764 478.434846 
L 164.568764 478.434846 
L 162.945866 476.940453 
L 161.337993 475.429906 
L 159.745306 473.903356 
L 158.167963 472.360956 
L 156.606123 470.80286 
L 155.059942 469.229223 
L 153.529575 467.640204 
L 152.015173 466.03596 
L 150.51689 464.416653 
L 149.034874 462.782445 
L 147.569275 461.133498 
L 146.120237 459.469978 
L 144.687907 457.792051 
L 143.272428 456.099885 
L 141.873941 454.393648 
L 140.492586 452.673513 
L 139.128501 450.93965 
L 137.781822 449.192233 
L 137.141696 448.348786 
L 137.141696 448.348786 
Q 313.195378 315.399217 510.680831 217.063146 
z
" clip-path="url(#pca0acadb5b)" style="fill: #0028ff; fill-opacity: 0.5; stroke: #808080; stroke-opacity: 0.5; stroke-width: 0.1"/>
    <path d="M 353.733074 98.541702 
L 353.733074 98.541702 
L 355.899586 98.957915 
L 358.061827 99.395771 
L 360.219583 99.855229 
L 362.372635 100.33624 
L 364.52077 100.838757 
L 366.663773 101.362731 
L 368.801429 101.908107 
L 370.933524 102.474833 
L 373.059846 103.062851 
L 375.180181 103.672102 
L 377.294317 104.302526 
L 379.402044 104.95406 
L 381.50315 105.626638 
L 383.597426 106.320193 
L 385.684661 107.034655 
L 387.764648 107.769954 
L 389.837177 108.526016 
L 391.902043 109.302764 
L 392.890306 109.682895 
L 392.890306 109.682895 
Q 313.195378 315.399217 93.522592 295.043536 
L 93.522592 295.043536 
L 93.522592 295.043536 
L 93.737129 292.847862 
L 93.973612 290.654444 
L 94.232016 288.4635 
L 94.512317 286.27525 
L 94.814486 284.089912 
L 95.138493 281.907705 
L 95.484305 279.728847 
L 95.851888 277.553556 
L 96.241206 275.382049 
L 96.652218 273.214545 
L 97.084885 271.051258 
L 97.539163 268.892407 
L 98.015006 266.738206 
L 98.512367 264.588871 
L 99.031196 262.444617 
L 99.571441 260.305659 
L 100.133048 258.17221 
L 100.715962 256.044483 
L 101.003285 255.025361 
L 101.003285 255.025361 
Q 313.195378 315.399217 353.733074 98.541702 
z
" clip-path="url(#pca0acadb5b)" style="fill: #0000df; fill-opacity: 0.5; stroke: #808080; stroke-opacity: 0.5; stroke-width: 0.1"/>
    <path d="M 392.890306 109.682895 
L 392.890306 109.682895 
L 394.94345 110.490117 
L 396.98842 111.317829 
L 399.02501 112.165949 
L 401.053018 113.034393 
L 403.072239 113.923073 
L 405.082473 114.8319 
L 407.083519 115.760784 
L 409.075175 116.709632 
L 411.057244 117.678348 
L 413.029527 118.666836 
L 414.991826 119.674998 
L 416.943946 120.702732 
L 418.885691 121.749935 
L 420.816867 122.816503 
L 422.737281 123.902329 
L 424.646741 125.007304 
L 426.545056 126.131319 
L 428.432036 127.27426 
L 429.333624 127.829511 
L 429.333624 127.829511 
Q 313.195378 315.399217 137.141696 448.348786 
L 137.141696 448.348786 
L 137.141696 448.348786 
L 135.821026 446.581631 
L 134.518092 444.801358 
L 133.233026 443.008145 
L 131.965956 441.202171 
L 130.717009 439.383617 
L 129.486309 437.552665 
L 128.27398 435.709497 
L 127.080144 433.854298 
L 125.904918 431.987254 
L 124.748422 430.108552 
L 123.61077 428.218378 
L 122.492076 426.316923 
L 121.392453 424.404376 
L 120.312009 422.480928 
L 119.250854 420.546773 
L 118.209093 418.602102 
L 117.186831 416.647112 
L 116.184169 414.681997 
L 115.709926 413.735288 
L 115.709926 413.735288 
Q 313.195378 315.399217 392.890306 109.682895 
z
" clip-path="url(#pca0acadb5b)" style="fill: #0000df; fill-opacity: 0.5; stroke: #808080; stroke-opacity: 0.5; stroke-width: 0.1"/>
    <path d="M 429.333624 127.829511 
L 429.333624 127.829511 
L 431.203483 129.000252 
L 433.061541 130.189633 
L 434.907613 131.397535 
L 436.741513 132.623838 
L 438.563059 133.868417 
L 440.372069 135.131149 
L 442.16836 136.411908 
L 443.951755 137.710566 
L 445.722074 139.026992 
L 447.479141 140.361056 
L 449.222779 141.712623 
L 450.952815 143.081558 
L 452.669075 144.467726 
L 454.371388 145.870986 
L 456.059583 147.291199 
L 457.733492 148.728222 
L 459.392947 150.181913 
L 461.037783 151.652125 
L 461.821992 152.363588 
L 461.821992 152.363588 
Q 313.195378 315.399217 525.387471 255.025361 
L 525.387471 255.025361 
L 525.387471 255.025361 
L 525.98059 257.150266 
L 526.552431 259.280995 
L 527.102936 261.417336 
L 527.632051 263.559075 
L 528.139722 265.705998 
L 528.625898 267.85789 
L 529.090532 270.014536 
L 529.533577 272.175721 
L 529.954988 274.341228 
L 530.354723 276.510841 
L 530.732742 278.684343 
L 531.089008 280.861516 
L 531.423485 283.042142 
L 531.736139 285.226005 
L 532.026939 287.412885 
L 532.295856 289.602563 
L 532.542864 291.794821 
L 532.767936 293.98944 
L 532.868165 295.043536 
L 532.868165 295.043536 
Q 313.195378 315.399217 429.333624 127.829511 
z
" clip-path="url(#pca0acadb5b)" style="fill: #0000df; fill-opacity: 0.5; stroke: #808080; stroke-opacity: 0.5; stroke-width: 0.1"/>
    <path d="M 313.195378 94.785331 
L 313.195378 94.785331 
L 315.40148 94.796361 
L 317.607362 94.829452 
L 319.812802 94.8846 
L 322.017581 94.961798 
L 324.221477 95.061041 
L 326.424271 95.182317 
L 328.625742 95.325614 
L 330.82567 95.490919 
L 333.023834 95.678214 
L 335.220016 95.887481 
L 337.413996 96.1187 
L 339.605554 96.371846 
L 341.79447 96.646894 
L 343.980527 96.943818 
L 346.163505 97.262587 
L 348.343187 97.60317 
L 350.519354 97.965531 
L 352.691788 98.349637 
L 353.733074 98.541702 
L 353.733074 98.541702 
Q 313.195378 315.399217 532.868165 295.043536 
L 532.868165 295.043536 
L 532.868165 295.043536 
L 533.060735 297.241245 
L 533.231318 299.44077 
L 533.379898 301.64189 
L 533.50646 303.844387 
L 533.610991 306.048039 
L 533.69348 308.252625 
L 533.75392 310.457927 
L 533.792305 312.663723 
L 533.808629 314.869792 
L 533.802893 317.075914 
L 533.775096 319.281869 
L 533.725241 321.487435 
L 533.653334 323.692393 
L 533.55938 325.896521 
L 533.443391 328.099599 
L 533.305377 330.301408 
L 533.145352 332.501726 
L 532.963333 334.700334 
L 532.868165 335.754899 
L 532.868165 335.754899 
Q 313.195378 315.399217 313.195378 94.785331 
z
" clip-path="url(#pca0acadb5b)" style="fill: #000080; fill-opacity: 0.5; stroke: #808080; stroke-opacity: 0.5; stroke-width: 0.1"/>
   </g>
   <g id="patch_15">
    <path d="M 313.195378 94.785331 
L 315.40148 94.796361 
L 317.607362 94.829452 
L 319.812802 94.8846 
L 322.017581 94.961798 
L 324.221477 95.061041 
L 326.424271 95.182317 
L 328.625742 95.325614 
L 330.82567 95.490919 
L 333.023834 95.678214 
L 335.220016 95.887481 
L 337.413996 96.1187 
L 339.605554 96.371846 
L 341.79447 96.646894 
L 343.980527 96.943818 
L 346.163505 97.262587 
L 348.343187 97.60317 
L 350.519354 97.965531 
L 352.691788 98.349637 
L 353.733074 98.541702 
L 354.142545 96.351222 
L 353.090742 96.157217 
L 350.896364 95.769232 
L 348.698215 95.403209 
L 346.496517 95.059187 
L 344.291488 94.737198 
L 342.08335 94.437275 
L 339.872323 94.159448 
L 337.658628 93.903745 
L 335.442487 93.670191 
L 333.224122 93.45881 
L 331.003753 93.269623 
L 328.781604 93.102649 
L 326.557896 92.957904 
L 324.332852 92.835403 
L 322.106694 92.735158 
L 319.879645 92.657179 
L 317.651927 92.601475 
L 315.423764 92.56805 
L 313.195378 92.556908 
L 313.195378 94.785331 
z
" clip-path="url(#pca0acadb5b)" style="fill: none; stroke: #000000; stroke-width: 0.5; stroke-linejoin: miter"/>
   </g>
   <g id="patch_16">
    <path d="M 353.733074 98.541702 
L 355.899586 98.957915 
L 358.061827 99.395771 
L 360.219583 99.855229 
L 362.372635 100.33624 
L 364.52077 100.838757 
L 366.663773 101.362731 
L 368.801429 101.908107 
L 370.933524 102.474833 
L 373.059846 103.062851 
L 375.180181 103.672102 
L 377.294317 104.302526 
L 379.402044 104.95406 
L 381.50315 105.626638 
L 383.597426 106.320193 
L 385.684661 107.034655 
L 387.764648 107.769954 
L 389.837177 108.526016 
L 391.902043 109.302764 
L 393.959038 110.100123 
L 396.007956 110.918011 
L 398.048593 111.756347 
L 400.080746 112.615047 
L 402.104209 113.494025 
L 404.118782 114.393194 
L 406.124263 115.312463 
L 408.120451 116.25174 
L 410.107146 117.210933 
L 412.08415 118.189943 
L 414.051266 119.188675 
L 416.008296 120.207028 
L 417.955044 121.244899 
L 419.891317 122.302186 
L 421.816921 123.378782 
L 423.731662 124.474581 
L 425.63535 125.589471 
L 427.527794 126.723343 
L 429.408804 127.876081 
L 431.278194 129.047572 
L 433.135775 130.237698 
L 434.981362 131.44634 
L 436.814771 132.673377 
L 438.635818 133.918687 
L 440.444321 135.182144 
L 442.2401 136.463623 
L 444.022974 137.762996 
L 445.792765 139.080132 
L 447.549297 140.414899 
L 449.292393 141.767165 
L 451.02188 143.136794 
L 452.737584 144.523649 
L 454.439334 145.927592 
L 456.12696 147.348481 
L 457.800293 148.786176 
L 459.459165 150.240532 
L 461.103412 151.711403 
L 461.821992 152.363588 
L 463.323271 150.716763 
L 462.597432 150.057991 
L 460.936577 148.572262 
L 459.260949 147.103216 
L 457.570713 145.650999 
L 455.866041 144.215757 
L 454.147101 142.797634 
L 452.414067 141.39677 
L 450.66711 140.013306 
L 448.906407 138.647381 
L 447.132132 137.299131 
L 445.344465 135.968691 
L 443.543582 134.656193 
L 441.729664 133.36177 
L 439.902893 132.08555 
L 438.063452 130.827662 
L 436.211524 129.58823 
L 434.347294 128.36738 
L 432.47095 127.165233 
L 430.582677 125.981908 
L 428.682666 124.817526 
L 426.771107 123.672201 
L 424.84819 122.546049 
L 422.914108 121.439182 
L 420.969054 120.351711 
L 419.013223 119.283744 
L 417.04681 118.235389 
L 415.070012 117.20675 
L 413.083027 116.197931 
L 411.086053 115.209031 
L 409.07929 114.24015 
L 407.062938 113.291385 
L 405.0372 112.36283 
L 403.002278 111.454579 
L 400.958376 110.566722 
L 398.905697 109.699348 
L 396.844447 108.852544 
L 394.774832 108.026395 
L 392.697059 107.220982 
L 390.611337 106.436387 
L 388.517872 105.672689 
L 386.416876 104.929963 
L 384.308558 104.208283 
L 382.193128 103.507723 
L 380.070798 102.828351 
L 377.941781 102.170237 
L 375.80629 101.533445 
L 373.664537 100.918039 
L 371.516738 100.324082 
L 369.363106 99.751632 
L 367.203858 99.200746 
L 365.039209 98.67148 
L 362.869375 98.163887 
L 360.694575 97.678017 
L 358.515024 97.213918 
L 356.330941 96.771639 
L 354.142545 96.351222 
L 353.733074 98.541702 
z
" clip-path="url(#pca0acadb5b)" style="fill: none; stroke: #000000; stroke-width: 0.5; stroke-linejoin: miter"/>
   </g>
   <g id="patch_17">
    <path d="M 461.821992 152.363588 
L 463.44489 153.857981 
L 465.052763 155.368528 
L 466.645451 156.895078 
L 468.222793 158.437478 
L 469.784633 159.995575 
L 471.330814 161.569211 
L 472.861182 163.158231 
L 474.375583 164.762474 
L 475.873867 166.381781 
L 477.355882 168.01599 
L 478.821482 169.664936 
L 480.270519 171.328457 
L 481.702849 173.006384 
L 483.118329 174.69855 
L 484.516816 176.404786 
L 485.898171 178.124921 
L 487.262256 179.858784 
L 488.608934 181.606201 
L 489.938072 183.366997 
L 491.249535 185.140996 
L 492.543193 186.928021 
L 493.818916 188.727892 
L 495.076577 190.540431 
L 496.31605 192.365456 
L 497.537211 194.202784 
L 498.739938 196.052231 
L 499.924111 197.913613 
L 501.089611 199.786743 
L 502.236322 201.671435 
L 503.364129 203.567499 
L 504.472919 205.474747 
L 505.562582 207.392986 
L 506.633008 209.322027 
L 507.68409 211.261674 
L 508.715724 213.211736 
L 509.727806 215.172016 
L 510.720234 217.142319 
L 511.692911 219.122447 
L 512.645738 221.112204 
L 513.57862 223.111388 
L 514.491464 225.119802 
L 515.384178 227.137243 
L 516.256674 229.16351 
L 517.108863 231.198401 
L 517.940662 233.241712 
L 518.751986 235.293238 
L 519.542755 237.352775 
L 520.312889 239.420117 
L 521.062311 241.495057 
L 521.790947 243.577387 
L 522.498724 245.666899 
L 523.185571 247.763384 
L 523.851418 249.866632 
L 524.4962 251.976434 
L 525.119853 254.092578 
L 525.722313 256.214853 
L 526.30352 258.343046 
L 526.863417 260.476945 
L 527.401947 262.616336 
L 527.919057 264.761005 
L 528.414695 266.910738 
L 528.888811 269.065319 
L 529.341357 271.224535 
L 529.77229 273.388167 
L 530.181564 275.556001 
L 530.569141 277.727818 
L 530.93498 279.903403 
L 531.279045 282.082538 
L 531.601302 284.265004 
L 531.901719 286.450584 
L 532.180265 288.639058 
L 532.436913 290.830208 
L 532.671637 293.023816 
L 532.868165 295.043536 
L 535.087082 294.837923 
L 534.888569 292.797801 
L 534.651474 290.582036 
L 534.392234 288.368753 
L 534.110874 286.158173 
L 533.807423 283.950517 
L 533.48191 281.746006 
L 533.13437 279.54486 
L 532.764835 277.347299 
L 532.373344 275.153544 
L 531.959935 272.963813 
L 531.52465 270.778326 
L 531.067532 268.5973 
L 530.588627 266.420955 
L 530.087983 264.249508 
L 529.56565 262.083175 
L 529.02168 259.922174 
L 528.456128 257.766721 
L 527.86905 255.617031 
L 527.260504 253.473319 
L 526.630552 251.3358 
L 525.979257 249.204687 
L 525.306684 247.080193 
L 524.612899 244.962532 
L 523.897973 242.851913 
L 523.161977 240.74855 
L 522.404985 238.652652 
L 521.627072 236.564428 
L 520.828315 234.484087 
L 520.008796 232.411838 
L 519.168596 230.347888 
L 518.307798 228.292442 
L 517.426489 226.245708 
L 516.524757 224.207888 
L 515.602693 222.179188 
L 514.660388 220.159809 
L 513.697936 218.149955 
L 512.715435 216.149825 
L 511.712982 214.15962 
L 510.690677 212.179539 
L 509.648623 210.20978 
L 508.586923 208.25054 
L 507.505685 206.302014 
L 506.405015 204.364398 
L 505.285025 202.437886 
L 504.145826 200.52267 
L 502.987533 198.618941 
L 501.81026 196.72689 
L 500.614126 194.846706 
L 499.39925 192.978577 
L 498.165754 191.122691 
L 496.913761 189.279231 
L 495.643396 187.448384 
L 494.354787 185.630332 
L 493.048062 183.825256 
L 491.723351 182.033338 
L 490.380788 180.254756 
L 489.020507 178.489689 
L 487.642644 176.738312 
L 486.247335 175.000802 
L 484.834722 173.277331 
L 483.404945 171.568072 
L 481.958147 169.873196 
L 480.494473 168.192873 
L 479.014069 166.52727 
L 477.517084 164.876554 
L 476.003666 163.240891 
L 474.473968 161.620443 
L 472.928142 160.015373 
L 471.366343 158.425841 
L 469.788727 156.852006 
L 468.195451 155.294026 
L 466.586676 153.752057 
L 464.962562 152.226251 
L 463.323271 150.716763 
L 461.821992 152.363588 
z
" clip-path="url(#pca0acadb5b)" style="fill: none; stroke: #000000; stroke-width: 0.5; stroke-linejoin: miter"/>
   </g>
   <g id="patch_18">
    <path d="M 532.868165 295.043536 
L 533.060735 297.241245 
L 533.231318 299.44077 
L 533.379898 301.64189 
L 533.50646 303.844387 
L 533.610991 306.048039 
L 533.69348 308.252625 
L 533.75392 310.457927 
L 533.792305 312.663723 
L 533.808629 314.869792 
L 533.802893 317.075914 
L 533.775096 319.281869 
L 533.725241 321.487435 
L 533.653334 323.692393 
L 533.55938 325.896521 
L 533.443391 328.099599 
L 533.305377 330.301408 
L 533.145352 332.501726 
L 532.963333 334.700334 
L 532.868165 335.754899 
L 535.087082 335.960511 
L 535.183211 334.895294 
L 535.367069 332.674478 
L 535.52871 330.451935 
L 535.668118 328.227886 
L 535.78528 326.002554 
L 535.880182 323.776162 
L 535.952816 321.548932 
L 536.003174 319.321088 
L 536.031252 317.092851 
L 536.037046 314.864444 
L 536.020556 312.636092 
L 535.981784 310.408015 
L 535.920734 308.180438 
L 535.837411 305.953582 
L 535.731824 303.727671 
L 535.603984 301.502927 
L 535.453903 299.279573 
L 535.281597 297.057831 
L 535.087082 294.837923 
L 532.868165 295.043536 
z
" clip-path="url(#pca0acadb5b)" style="fill: none; stroke: #000000; stroke-width: 0.5; stroke-linejoin: miter"/>
   </g>
   <g id="patch_19">
    <path d="M 532.868165 335.754899 
L 532.653628 337.950572 
L 532.417145 340.14399 
L 532.158741 342.334934 
L 531.87844 344.523185 
L 531.576271 346.708523 
L 531.252264 348.89073 
L 530.906452 351.069588 
L 530.538869 353.244879 
L 530.149551 355.416385 
L 529.738539 357.58389 
L 529.305872 359.747176 
L 528.851594 361.906028 
L 528.375751 364.060228 
L 527.87839 366.209563 
L 527.359561 368.353817 
L 526.819316 370.492776 
L 526.257708 372.626225 
L 525.674795 374.753951 
L 525.387471 375.773073 
L 527.530826 376.38291 
L 527.821051 375.353494 
L 528.409853 373.204275 
L 528.977133 371.049276 
L 529.522836 368.888712 
L 530.046905 366.722799 
L 530.54929 364.551754 
L 531.02994 362.375793 
L 531.488806 360.195135 
L 531.925843 358.009998 
L 532.341007 355.820599 
L 532.734257 353.627158 
L 533.105554 351.429894 
L 533.454859 349.229028 
L 533.782138 347.024778 
L 534.08736 344.817366 
L 534.370492 342.607012 
L 534.631506 340.393938 
L 534.870378 338.178363 
L 535.087082 335.960511 
L 532.868165 335.754899 
z
" clip-path="url(#pca0acadb5b)" style="fill: none; stroke: #000000; stroke-width: 0.5; stroke-linejoin: miter"/>
   </g>
   <g id="patch_20">
    <path d="M 525.387471 375.773073 
L 524.773133 377.89194 
L 524.137638 380.004558 
L 523.481048 382.110715 
L 522.80343 384.210201 
L 522.104851 386.302806 
L 521.385382 388.388321 
L 520.645094 390.466537 
L 519.884061 392.537246 
L 519.102359 394.600241 
L 518.300066 396.655317 
L 517.477264 398.702267 
L 516.634033 400.740886 
L 515.770459 402.770972 
L 514.886627 404.792321 
L 513.982627 406.80473 
L 513.058548 408.807999 
L 512.114482 410.801927 
L 511.150525 412.786314 
L 510.166773 414.760963 
L 509.163323 416.725677 
L 508.140277 418.680257 
L 507.097737 420.62451 
L 506.035807 422.55824 
L 504.954592 424.481254 
L 503.854202 426.39336 
L 502.734746 428.294367 
L 501.596337 430.184084 
L 500.439087 432.062323 
L 499.263114 433.928896 
L 498.068533 435.783616 
L 496.855466 437.626297 
L 495.624032 439.456756 
L 494.374356 441.27481 
L 493.106562 443.080275 
L 491.820778 444.872973 
L 490.517131 446.652724 
L 489.195751 448.419349 
L 487.856772 450.172673 
L 486.500327 451.912519 
L 485.126552 453.638714 
L 483.735583 455.351085 
L 482.327561 457.049461 
L 480.902626 458.733672 
L 479.46092 460.40355 
L 478.002587 462.058928 
L 476.527774 463.699639 
L 475.036628 465.325521 
L 473.529298 466.936411 
L 472.005935 468.532146 
L 470.466691 470.112569 
L 468.911719 471.67752 
L 467.341177 473.226844 
L 465.75522 474.760385 
L 464.154006 476.27799 
L 462.537698 477.779507 
L 461.821992 478.434846 
L 463.323271 480.081671 
L 464.046206 479.419712 
L 465.678841 477.903028 
L 467.296228 476.370093 
L 468.898205 474.821062 
L 470.484612 473.256089 
L 472.05529 471.67533 
L 473.610082 470.078943 
L 475.148833 468.467089 
L 476.671388 466.839928 
L 478.177596 465.197624 
L 479.667307 463.540339 
L 481.14037 461.86824 
L 482.596638 460.181495 
L 484.035967 458.480272 
L 485.458212 456.76474 
L 486.86323 455.035072 
L 488.250882 453.291441 
L 489.621029 451.534021 
L 490.973533 449.762987 
L 492.308259 447.978517 
L 493.625075 446.180789 
L 494.923847 444.369983 
L 496.204447 442.54628 
L 497.466746 440.709863 
L 498.710618 438.860914 
L 499.935939 436.99962 
L 501.142586 435.126165 
L 502.330438 433.240738 
L 503.499377 431.343527 
L 504.649285 429.434722 
L 505.780049 427.514513 
L 506.891554 425.583093 
L 507.98369 423.640654 
L 509.056347 421.687391 
L 510.109418 419.7235 
L 511.142798 417.749176 
L 512.156383 415.764617 
L 513.150072 413.770022 
L 514.123766 411.76559 
L 515.077367 409.751522 
L 516.010781 407.728018 
L 516.923913 405.695281 
L 517.816672 403.653515 
L 518.688969 401.602923 
L 519.540717 399.543712 
L 520.371831 397.476085 
L 521.182227 395.400252 
L 521.971825 393.316418 
L 522.740545 391.224792 
L 523.488311 389.125584 
L 524.215048 387.019004 
L 524.920683 384.905261 
L 525.605146 382.784568 
L 526.268368 380.657137 
L 526.910282 378.523179 
L 527.530826 376.38291 
L 525.387471 375.773073 
z
" clip-path="url(#pca0acadb5b)" style="fill: none; stroke: #000000; stroke-width: 0.5; stroke-linejoin: miter"/>
   </g>
   <g id="patch_21">
    <path d="M 461.821992 478.434846 
L 460.184232 479.912936 
L 458.531773 481.374575 
L 456.86478 482.819616 
L 455.183421 484.247915 
L 453.487863 485.659329 
L 451.778275 487.053718 
L 450.05483 488.430941 
L 448.317698 489.790861 
L 446.567055 491.133342 
L 444.803075 492.45825 
L 443.025933 493.765452 
L 441.235809 495.054818 
L 439.432881 496.326218 
L 437.61733 497.579526 
L 435.789336 498.814616 
L 433.949083 500.031364 
L 432.096754 501.22965 
L 430.232536 502.409352 
L 428.356614 503.570354 
L 426.469176 504.712538 
L 424.570411 505.835792 
L 422.660508 506.940002 
L 420.739659 508.025058 
L 418.808055 509.090852 
L 416.865891 510.137276 
L 414.913359 511.164227 
L 412.950656 512.171602 
L 410.977977 513.1593 
L 408.99552 514.127221 
L 407.003483 515.075271 
L 405.002066 516.003352 
L 402.991467 516.911374 
L 400.97189 517.799244 
L 398.943534 518.666875 
L 396.906604 519.514179 
L 394.861303 520.341071 
L 392.807835 521.14747 
L 390.746407 521.933294 
L 388.677223 522.698465 
L 386.600491 523.442906 
L 384.516418 524.166542 
L 382.425214 524.869303 
L 380.327086 525.551116 
L 378.222246 526.211914 
L 376.110903 526.851632 
L 373.993268 527.470204 
L 371.869554 528.067569 
L 369.739972 528.643668 
L 367.604736 529.198442 
L 365.464059 529.731837 
L 363.318155 530.243798 
L 361.167239 530.734276 
L 359.011525 531.20322 
L 356.851231 531.650583 
L 354.68657 532.076322 
L 353.733074 532.256733 
L 354.142545 534.447213 
L 355.105673 534.26498 
L 357.292199 533.834941 
L 359.474315 533.383058 
L 361.651803 532.909377 
L 363.824446 532.413946 
L 365.992025 531.896813 
L 368.154325 531.35803 
L 370.31113 530.797652 
L 372.462222 530.215734 
L 374.607388 529.612335 
L 376.746413 528.987515 
L 378.879083 528.341336 
L 381.005185 527.673862 
L 383.124505 526.985162 
L 385.236833 526.275303 
L 387.341957 525.544357 
L 389.439666 524.792396 
L 391.52975 524.019497 
L 393.612002 523.225735 
L 395.686211 522.411191 
L 397.752172 521.575946 
L 399.809677 520.720083 
L 401.858521 519.843689 
L 403.898499 518.94685 
L 405.929406 518.029657 
L 407.95104 517.0922 
L 409.963198 516.134575 
L 411.96568 515.156876 
L 413.958285 514.159202 
L 415.940814 513.141652 
L 417.913068 512.104327 
L 419.87485 511.047333 
L 421.825965 509.970774 
L 423.766216 508.874757 
L 425.695411 507.759394 
L 427.613356 506.624794 
L 429.519859 505.471072 
L 431.41473 504.298343 
L 433.297778 503.106725 
L 435.168817 501.896335 
L 437.027659 500.667296 
L 438.874117 499.419731 
L 440.708008 498.153764 
L 442.529147 496.869521 
L 444.337353 495.567131 
L 446.132445 494.246725 
L 447.914244 492.908434 
L 449.68257 491.552393 
L 451.437248 490.178736 
L 453.178103 488.787601 
L 454.904958 487.379128 
L 456.617643 485.953457 
L 458.315986 484.510731 
L 459.999817 483.051093 
L 461.668968 481.574691 
L 463.323271 480.081671 
L 461.821992 478.434846 
z
" clip-path="url(#pca0acadb5b)" style="fill: none; stroke: #000000; stroke-width: 0.5; stroke-linejoin: miter"/>
   </g>
   <g id="patch_22">
    <path d="M 353.733074 532.256733 
L 351.562508 532.65126 
L 349.388105 533.024063 
L 347.210083 533.375103 
L 345.02866 533.704345 
L 342.844054 534.011758 
L 340.656482 534.297309 
L 338.466165 534.560971 
L 336.27332 534.802716 
L 334.078168 535.022522 
L 331.880927 535.220365 
L 329.681818 535.396227 
L 327.48106 535.550088 
L 325.278874 535.681935 
L 323.075479 535.791754 
L 320.871097 535.879534 
L 318.665947 535.945266 
L 316.460249 535.988944 
L 314.254226 536.010562 
L 312.048096 536.01012 
L 309.842081 535.987617 
L 307.636401 535.943055 
L 305.431278 535.87644 
L 303.226931 535.787776 
L 301.02358 535.677074 
L 298.821447 535.544344 
L 296.620751 535.3896 
L 294.421712 535.212857 
L 292.224551 535.014133 
L 290.029487 534.793448 
L 287.83674 534.550823 
L 285.646528 534.286283 
L 283.459072 533.999855 
L 281.274588 533.691567 
L 279.093297 533.36145 
L 276.915416 533.009537 
L 274.741163 532.635863 
L 272.570756 532.240465 
L 270.404411 531.823384 
L 268.242345 531.38466 
L 266.084774 530.924338 
L 263.931914 530.442464 
L 261.783981 529.939085 
L 259.641188 529.414253 
L 257.503751 528.868019 
L 255.371883 528.300439 
L 253.245798 527.711569 
L 251.125707 527.101467 
L 249.011823 526.470196 
L 246.904358 525.817818 
L 244.803522 525.144398 
L 242.709524 524.450003 
L 240.622575 523.734704 
L 238.542884 522.998572 
L 236.470658 522.241679 
L 234.406104 521.464103 
L 232.349429 520.66592 
L 230.300838 519.847211 
L 228.260537 519.008057 
L 226.228729 518.148542 
L 224.205618 517.268753 
L 222.191406 516.368777 
L 220.186294 515.448704 
L 218.190483 514.508626 
L 216.204172 513.548637 
L 214.22756 512.568834 
L 212.260845 511.569314 
L 210.304224 510.550177 
L 208.357891 509.511525 
L 206.422042 508.453462 
L 204.496871 507.376094 
L 202.582569 506.279528 
L 200.679328 505.163875 
L 198.787339 504.029245 
L 196.90679 502.875752 
L 195.037871 501.703512 
L 193.180767 500.512641 
L 191.335664 499.30326 
L 189.502747 498.075488 
L 187.682199 496.829448 
L 185.874203 495.565266 
L 184.078938 494.283067 
L 182.296586 492.98298 
L 180.527322 491.665135 
L 178.771326 490.329663 
L 177.028772 488.976699 
L 175.299834 487.606377 
L 173.584686 486.218834 
L 171.883499 484.814209 
L 170.196443 483.392643 
L 168.523686 481.954278 
L 166.865397 480.499258 
L 165.22174 479.027727 
L 163.592881 477.539834 
L 161.978982 476.035727 
L 160.380205 474.515557 
L 158.796708 472.979475 
L 157.228652 471.427635 
L 155.676192 469.860192 
L 154.139484 468.277304 
L 152.618681 466.679127 
L 151.113936 465.065823 
L 149.625399 463.437552 
L 148.153219 461.794478 
L 146.697543 460.136764 
L 145.258516 458.464577 
L 143.836283 456.778083 
L 142.430986 455.077451 
L 141.042765 453.362852 
L 139.671759 451.634457 
L 138.318106 449.892438 
L 136.98194 448.136969 
L 135.663395 446.368228 
L 134.362603 444.586389 
L 133.079694 442.791632 
L 131.814797 440.984135 
L 130.568038 439.16408 
L 129.339541 437.331649 
L 128.12943 435.487025 
L 126.937825 433.630392 
L 125.764846 431.761936 
L 124.61061 429.881844 
L 123.475232 427.990303 
L 122.358825 426.087504 
L 121.261503 424.173636 
L 120.183373 422.248891 
L 119.124545 420.31346 
L 118.085123 418.367539 
L 117.065213 416.41132 
L 116.064915 414.445001 
L 115.709926 413.735288 
L 113.715123 414.728582 
L 114.073698 415.445463 
L 115.0841 417.431644 
L 116.114313 419.407623 
L 117.164233 421.3732 
L 118.233757 423.32818 
L 119.322777 425.272368 
L 120.431183 427.205568 
L 121.558866 429.127587 
L 122.705713 431.038234 
L 123.871608 432.937317 
L 125.056436 434.824646 
L 126.260077 436.700033 
L 127.482412 438.56329 
L 128.723317 440.414231 
L 129.98267 442.25267 
L 131.260344 444.078424 
L 132.556211 445.89131 
L 133.870142 447.691147 
L 135.202006 449.477755 
L 136.551669 451.250955 
L 137.918995 453.01057 
L 139.30385 454.756424 
L 140.706093 456.488343 
L 142.125585 458.206152 
L 143.562184 459.909681 
L 145.015746 461.59876 
L 146.486126 463.273218 
L 147.973177 464.932889 
L 149.47675 466.577607 
L 150.996694 468.207207 
L 152.532859 469.821527 
L 154.085089 471.420404 
L 155.65323 473.003679 
L 157.237126 474.571194 
L 158.836617 476.122792 
L 160.451544 477.658318 
L 162.081745 479.177618 
L 163.727057 480.680541 
L 165.387316 482.166935 
L 167.062356 483.636652 
L 168.752009 485.089547 
L 170.456106 486.525472 
L 172.174477 487.944284 
L 173.90695 489.345843 
L 175.653351 490.730007 
L 177.413507 492.096637 
L 179.187241 493.445599 
L 180.974375 494.776756 
L 182.774732 496.089975 
L 184.58813 497.385125 
L 186.414389 498.662077 
L 188.253327 499.920702 
L 190.104758 501.160876 
L 191.968498 502.382474 
L 193.84436 503.585373 
L 195.732158 504.769454 
L 197.631702 505.934599 
L 199.542802 507.080689 
L 201.465268 508.207612 
L 203.398906 509.315254 
L 205.343524 510.403505 
L 207.298927 511.472256 
L 209.264919 512.521399 
L 211.241305 513.55083 
L 213.227885 514.560446 
L 215.224463 515.550147 
L 217.230837 516.519832 
L 219.246808 517.469405 
L 221.272174 518.398772 
L 223.306731 519.307839 
L 225.350278 520.196515 
L 227.402609 521.064712 
L 229.463519 521.912342 
L 231.532803 522.739321 
L 233.610252 523.545566 
L 235.69566 524.330997 
L 237.788818 525.095535 
L 239.889517 525.839103 
L 241.997546 526.561627 
L 244.112695 527.263036 
L 246.234752 527.943258 
L 248.363505 528.602226 
L 250.498741 529.239874 
L 252.640247 529.856138 
L 254.787808 530.450956 
L 256.94121 531.02427 
L 259.100237 531.576021 
L 261.264674 532.106155 
L 263.434303 532.614618 
L 265.608909 533.10136 
L 267.788274 533.566331 
L 269.972179 534.009487 
L 272.160406 534.430781 
L 274.352737 534.830172 
L 276.548952 535.207621 
L 278.748832 535.563089 
L 280.952156 535.89654 
L 283.158705 536.207942 
L 285.368257 536.497264 
L 287.580592 536.764475 
L 289.795488 537.009551 
L 292.012725 537.232465 
L 294.23208 537.433197 
L 296.45333 537.611725 
L 298.676256 537.768032 
L 300.900633 537.902103 
L 303.126239 538.013923 
L 305.352853 538.103482 
L 307.58025 538.170771 
L 309.808209 538.215783 
L 312.036507 538.238513 
L 314.264921 538.23896 
L 316.493228 538.217123 
L 318.721205 538.173004 
L 320.948629 538.106608 
L 323.175278 538.017942 
L 325.40093 537.907013 
L 327.62536 537.773835 
L 329.848348 537.618419 
L 332.06967 537.440781 
L 334.289105 537.240939 
L 336.506431 537.018913 
L 338.721425 536.774726 
L 340.933867 536.508401 
L 343.143535 536.219965 
L 345.350208 535.909448 
L 347.553666 535.576879 
L 349.753688 535.222293 
L 351.950054 534.845725 
L 354.142545 534.447213 
L 353.733074 532.256733 
z
" clip-path="url(#pca0acadb5b)" style="fill: none; stroke: #000000; stroke-width: 0.5; stroke-linejoin: miter"/>
   </g>
   <g id="patch_23">
    <path d="M 115.709926 413.735288 
L 114.736456 411.75555 
L 113.782831 409.766176 
L 112.849148 407.767365 
L 111.935499 405.759318 
L 111.041976 403.742235 
L 110.168668 401.716317 
L 109.315663 399.681768 
L 108.483045 397.638791 
L 107.670899 395.58759 
L 106.879304 393.52837 
L 106.108342 391.461337 
L 105.358087 389.386698 
L 104.628617 387.304661 
L 103.920003 385.215432 
L 103.232316 383.119223 
L 102.565625 381.016241 
L 101.919997 378.906698 
L 101.295497 376.790804 
L 100.692186 374.668771 
L 100.110125 372.540811 
L 99.549373 370.407137 
L 99.009985 368.267962 
L 98.492016 366.1235 
L 97.995516 363.973966 
L 97.520537 361.819575 
L 97.067125 359.660541 
L 96.635325 357.497082 
L 96.225181 355.329413 
L 95.836735 353.15775 
L 95.470023 350.982312 
L 95.125085 348.803316 
L 94.801953 346.620979 
L 94.50066 344.43552 
L 94.221236 342.247158 
L 93.96371 340.05611 
L 93.728107 337.862597 
L 93.522592 335.754899 
L 91.303675 335.960511 
L 91.511265 338.0895 
L 91.749249 340.30517 
L 92.009376 342.518349 
L 92.291622 344.728816 
L 92.595958 346.93635 
L 92.922354 349.140731 
L 93.270777 351.341737 
L 93.641193 353.53915 
L 94.033563 355.732748 
L 94.44785 357.922313 
L 94.884011 360.107626 
L 95.342003 362.288467 
L 95.82178 364.46462 
L 96.323295 366.635867 
L 96.846496 368.80199 
L 97.391333 370.962772 
L 97.957749 373.117999 
L 98.545689 375.267453 
L 99.155094 377.410921 
L 99.785902 379.548188 
L 100.438052 381.679039 
L 101.111477 383.803263 
L 101.80611 385.920647 
L 102.521882 388.030978 
L 103.258721 390.134046 
L 104.016553 392.229641 
L 104.795304 394.317553 
L 105.594894 396.397573 
L 106.415244 398.469494 
L 107.256272 400.533107 
L 108.117893 402.588207 
L 109.000022 404.634588 
L 109.902571 406.672046 
L 110.825449 408.700377 
L 111.768563 410.719377 
L 112.73182 412.728846 
L 113.715123 414.728582 
L 115.709926 413.735288 
z
" clip-path="url(#pca0acadb5b)" style="fill: none; stroke: #000000; stroke-width: 0.5; stroke-linejoin: miter"/>
   </g>
   <g id="patch_24">
    <path d="M 93.522592 335.754899 
L 93.330022 333.55719 
L 93.159439 331.357665 
L 93.010858 329.156544 
L 92.884297 326.954048 
L 92.779766 324.750396 
L 92.697276 322.545809 
L 92.636836 320.340507 
L 92.598452 318.134712 
L 92.582127 315.928642 
L 92.587864 313.72252 
L 92.615661 311.516566 
L 92.665515 309.310999 
L 92.737423 307.106042 
L 92.831376 304.901914 
L 92.947366 302.698835 
L 93.08538 300.497027 
L 93.245404 298.296709 
L 93.427424 296.098101 
L 93.63142 293.901423 
L 93.857373 291.706895 
L 94.105259 289.514736 
L 94.375054 287.325165 
L 94.666731 285.138402 
L 94.98026 282.954665 
L 95.315611 280.774173 
L 95.672749 278.597143 
L 96.05164 276.423793 
L 96.452245 274.25434 
L 96.874524 272.089002 
L 97.318435 269.927995 
L 97.783933 267.771535 
L 98.270972 265.619838 
L 98.779504 263.473119 
L 99.309477 261.331592 
L 99.860839 259.195472 
L 100.433533 257.064972 
L 101.003285 255.025361 
L 98.859931 254.415524 
L 98.284424 256.475738 
L 97.705944 258.627757 
L 97.149013 260.785454 
L 96.613687 262.948613 
L 96.100019 265.117016 
L 95.60806 267.290448 
L 95.13786 269.46869 
L 94.689465 271.651525 
L 94.26292 273.838735 
L 93.858269 276.030101 
L 93.475551 278.225404 
L 93.114805 280.424425 
L 92.776067 282.626942 
L 92.45937 284.832737 
L 92.164747 287.041589 
L 91.892227 289.253276 
L 91.641837 291.467578 
L 91.413603 293.684273 
L 91.207546 295.90314 
L 91.023688 298.123956 
L 90.862046 300.3465 
L 90.722638 302.570549 
L 90.605477 304.79588 
L 90.510575 307.022272 
L 90.437941 309.249502 
L 90.387583 311.477347 
L 90.359505 313.705584 
L 90.353711 315.93399 
L 90.3702 318.162343 
L 90.408972 320.390419 
L 90.470023 322.617997 
L 90.553345 324.844852 
L 90.658932 327.070763 
L 90.786772 329.295507 
L 90.936853 331.518861 
L 91.10916 333.740603 
L 91.303675 335.960511 
L 93.522592 335.754899 
z
" clip-path="url(#pca0acadb5b)" style="fill: none; stroke: #000000; stroke-width: 0.5; stroke-linejoin: miter"/>
   </g>
   <g id="patch_25">
    <path d="M 101.003285 255.025361 
L 101.617623 252.906495 
L 102.253119 250.793877 
L 102.909709 248.68772 
L 103.587327 246.588234 
L 104.285905 244.495628 
L 105.005375 242.410114 
L 105.745663 240.331898 
L 106.506696 238.261189 
L 107.288398 236.198193 
L 108.09069 234.143118 
L 108.913493 232.096168 
L 109.756723 230.057548 
L 110.620298 228.027462 
L 111.504129 226.006114 
L 112.40813 223.993705 
L 113.332209 221.990436 
L 114.276274 219.996508 
L 115.240232 218.01212 
L 116.223984 216.037471 
L 117.227433 214.072758 
L 118.250479 212.118177 
L 119.29302 210.173925 
L 120.35495 208.240195 
L 121.436164 206.317181 
L 122.536555 204.405074 
L 123.65601 202.504068 
L 124.79442 200.61435 
L 125.951669 198.736111 
L 127.127643 196.869538 
L 128.322223 195.014819 
L 129.535291 193.172137 
L 130.766724 191.341678 
L 132.0164 189.523625 
L 133.284194 187.718159 
L 134.569979 185.925461 
L 135.873626 184.14571 
L 137.141696 182.449648 
L 135.363376 181.106723 
L 134.082497 182.819917 
L 132.765682 184.617645 
L 131.46691 186.428451 
L 130.18631 188.252154 
L 128.924011 190.088572 
L 127.680139 191.93752 
L 126.454818 193.798815 
L 125.248171 195.672269 
L 124.060319 197.557696 
L 122.89138 199.454907 
L 121.741471 201.363713 
L 120.610708 203.283921 
L 119.499203 205.215342 
L 118.407067 207.15778 
L 117.33441 209.111043 
L 116.281339 211.074935 
L 115.247959 213.049258 
L 114.234374 215.033817 
L 113.240685 217.028412 
L 112.266991 219.032844 
L 111.313389 221.046913 
L 110.379976 223.070417 
L 109.466844 225.103153 
L 108.574085 227.144919 
L 107.701787 229.195511 
L 106.850039 231.254723 
L 106.018926 233.322349 
L 105.208529 235.398183 
L 104.418932 237.482017 
L 103.650211 239.573642 
L 102.902445 241.67285 
L 102.175709 243.779431 
L 101.470074 245.893173 
L 100.785611 248.013866 
L 100.122389 250.141298 
L 99.480474 252.275255 
L 98.859931 254.415524 
L 101.003285 255.025361 
z
" clip-path="url(#pca0acadb5b)" style="fill: none; stroke: #000000; stroke-width: 0.5; stroke-linejoin: miter"/>
   </g>
   <g id="patch_26">
    <path d="M 137.141696 182.449648 
L 138.479973 180.695788 
L 139.83572 178.955398 
L 141.208804 177.228653 
L 142.599085 175.515724 
L 144.006427 173.816784 
L 145.430687 172.132001 
L 146.871723 170.461546 
L 148.329392 168.805584 
L 149.803547 167.164281 
L 151.294041 165.537802 
L 152.800725 163.926308 
L 154.323449 162.329962 
L 155.86206 160.748923 
L 157.416403 159.183348 
L 158.986325 157.633395 
L 160.571667 156.099218 
L 162.172272 154.580972 
L 163.787979 153.078807 
L 165.418626 151.592873 
L 167.064051 150.123321 
L 168.724089 148.670296 
L 170.398574 147.233943 
L 172.087338 145.814407 
L 173.790213 144.411829 
L 175.507029 143.02635 
L 177.237613 141.658108 
L 178.981793 140.30724 
L 180.739394 138.973881 
L 182.510241 137.658165 
L 184.294156 136.360222 
L 186.090961 135.080183 
L 187.900477 133.818176 
L 189.722522 132.574327 
L 191.556914 131.34876 
L 193.403469 130.141598 
L 195.262004 128.952962 
L 197.132332 127.78297 
L 199.014267 126.63174 
L 200.907619 125.499386 
L 202.8122 124.386022 
L 204.727819 123.291759 
L 206.654285 122.216707 
L 208.591405 121.160973 
L 210.538985 120.124662 
L 212.496831 119.107879 
L 214.464747 118.110725 
L 216.442535 117.133299 
L 218.429999 116.1757 
L 220.426939 115.238023 
L 222.433156 114.320362 
L 224.448449 113.422809 
L 226.472617 112.545453 
L 228.505457 111.688383 
L 230.546766 110.851683 
L 232.596339 110.035438 
L 234.653973 109.239729 
L 236.71946 108.464636 
L 238.792595 107.710236 
L 240.873171 106.976605 
L 242.960978 106.263816 
L 245.055809 105.571941 
L 247.157454 104.901048 
L 249.265702 104.251204 
L 251.380344 103.622476 
L 253.501166 103.014924 
L 255.627959 102.428611 
L 257.760508 101.863595 
L 259.8986 101.319932 
L 262.042022 100.797677 
L 264.190559 100.296882 
L 266.343997 99.817597 
L 268.50212 99.35987 
L 270.664712 98.923747 
L 272.657683 98.541702 
L 272.248211 96.351222 
L 270.235109 96.737126 
L 268.050673 97.177655 
L 265.870751 97.640005 
L 263.695561 98.124131 
L 261.525321 98.629985 
L 259.360249 99.157515 
L 257.200559 99.70667 
L 255.04647 100.277393 
L 252.898195 100.869628 
L 250.755949 101.483317 
L 248.619948 102.118396 
L 246.490404 102.774804 
L 244.36753 103.452473 
L 242.25154 104.151338 
L 240.142643 104.871326 
L 238.041052 105.612368 
L 235.946976 106.374388 
L 233.860625 107.15731 
L 231.782208 107.961057 
L 229.711931 108.785547 
L 227.650003 109.630698 
L 225.596629 110.496426 
L 223.552015 111.382643 
L 221.516366 112.289263 
L 219.489884 113.216193 
L 217.472773 114.163342 
L 215.465234 115.130613 
L 213.467467 116.117912 
L 211.479674 117.125138 
L 209.502052 118.152192 
L 207.534799 119.19897 
L 205.578112 120.265368 
L 203.632187 121.35128 
L 201.697218 122.456596 
L 199.773399 123.581206 
L 197.860922 124.724997 
L 195.959978 125.887856 
L 194.070758 127.069666 
L 192.19345 128.270309 
L 190.328242 129.489665 
L 188.475321 130.727611 
L 186.634872 131.984024 
L 184.807078 133.258779 
L 182.992124 134.551747 
L 181.190189 135.862801 
L 179.401455 137.191807 
L 177.6261 138.538634 
L 175.864302 139.903148 
L 174.116237 141.28521 
L 172.38208 142.684684 
L 170.662004 144.101429 
L 168.956182 145.535304 
L 167.264783 146.986165 
L 165.587977 148.453867 
L 163.925931 149.938264 
L 162.278813 151.439206 
L 160.646786 152.956545 
L 159.030014 154.490127 
L 157.428658 156.039801 
L 155.842878 157.60541 
L 154.272834 159.186798 
L 152.718682 160.783808 
L 151.180577 162.396279 
L 149.658674 164.02405 
L 148.153125 165.666958 
L 146.664079 167.32484 
L 145.191686 168.997529 
L 143.736094 170.684858 
L 142.297447 172.386658 
L 140.875891 174.102759 
L 139.471565 175.83299 
L 138.084613 177.577178 
L 136.715171 179.335147 
L 135.363376 181.106723 
L 137.141696 182.449648 
z
" clip-path="url(#pca0acadb5b)" style="fill: none; stroke: #000000; stroke-width: 0.5; stroke-linejoin: miter"/>
   </g>
   <g id="patch_27">
    <path d="M 272.657683 98.541702 
L 274.828249 98.147174 
L 277.002652 97.774372 
L 279.180673 97.423332 
L 281.362097 97.094089 
L 283.546703 96.786677 
L 285.734275 96.501125 
L 287.924592 96.237464 
L 290.117437 95.995718 
L 292.312589 95.775913 
L 294.509829 95.578069 
L 296.708939 95.402208 
L 298.909696 95.248346 
L 301.111883 95.116499 
L 303.315277 95.00668 
L 305.51966 94.9189 
L 307.72481 94.853168 
L 309.930507 94.809491 
L 312.136531 94.787872 
L 313.195378 94.785331 
L 313.195378 92.556908 
L 312.125836 92.559474 
L 309.897529 92.581312 
L 307.669552 92.62543 
L 305.442127 92.691826 
L 303.215478 92.780493 
L 300.989827 92.891421 
L 298.765396 93.0246 
L 296.542409 93.180016 
L 294.321087 93.357654 
L 292.101652 93.557495 
L 289.884326 93.779521 
L 287.669332 94.023709 
L 285.45689 94.290034 
L 283.247222 94.578469 
L 281.040548 94.888987 
L 278.83709 95.221555 
L 276.637068 95.576141 
L 274.440702 95.952709 
L 272.248211 96.351222 
L 272.657683 98.541702 
z
" clip-path="url(#pca0acadb5b)" style="fill: none; stroke: #000000; stroke-width: 0.5; stroke-linejoin: miter"/>
   </g>
   <g id="text_1">
    <text style="font: 3px 'DejaVu Sans', 'Bitstream Vera Sans', 'Computer Modern Sans Serif', 'Lucida Grande', 'Verdana', 'Geneva', 'Lucid', 'Arial', 'Helvetica', 'Avant Garde', sans-serif; text-anchor: start" x="335.097189" y="91.393761" transform="rotate(-84.705882 335.097189 91.393761)">Cambodian University for Specialties</text>
   </g>
   <g id="text_2">
    <text style="font: 3px 'DejaVu Sans', 'Bitstream Vera Sans', 'Computer Modern Sans Serif', 'Lucida Grande', 'Verdana', 'Geneva', 'Lucid', 'Arial', 'Helvetica', 'Avant Garde', sans-serif; text-anchor: start" x="414.538313" y="114.432197" transform="rotate(-63.529412 414.538313 114.432197)">Ministry of Health</text>
   </g>
   <g id="text_3">
    <text style="font: 3px 'DejaVu Sans', 'Bitstream Vera Sans', 'Computer Modern Sans Serif', 'Lucida Grande', 'Verdana', 'Geneva', 'Lucid', 'Arial', 'Helvetica', 'Avant Garde', sans-serif; text-anchor: start" x="515.18986" y="216.119704" transform="rotate(-26.470588 515.18986 216.119704)">Passtra University of Cambodia</text>
   </g>
   <g id="text_4">
    <text style="font: 3px 'DejaVu Sans', 'Bitstream Vera Sans', 'Computer Modern Sans Serif', 'Lucida Grande', 'Verdana', 'Geneva', 'Lucid', 'Arial', 'Helvetica', 'Avant Garde', sans-serif; text-anchor: start" x="538.266111" y="316.538983" transform="rotate(-0 538.266111 316.538983)">Institute of Technology of Cambodia</text>
   </g>
   <g id="text_5">
    <text style="font: 3px 'DejaVu Sans', 'Bitstream Vera Sans', 'Computer Modern Sans Serif', 'Lucida Grande', 'Verdana', 'Geneva', 'Lucid', 'Arial', 'Helvetica', 'Avant Garde', sans-serif; text-anchor: start" x="534.224423" y="357.876215" transform="rotate(-349.411765 534.224423 357.876215)">Human Resources University</text>
   </g>
   <g id="text_6">
    <text style="font: 3px 'DejaVu Sans', 'Bitstream Vera Sans', 'Computer Modern Sans Serif', 'Lucida Grande', 'Verdana', 'Geneva', 'Lucid', 'Arial', 'Helvetica', 'Avant Garde', sans-serif; text-anchor: start" x="503.954363" y="434.852738" transform="rotate(-328.235294 503.954363 434.852738)">University of Cambodia</text>
   </g>
   <g id="text_7">
    <text style="font: 3px 'DejaVu Sans', 'Bitstream Vera Sans', 'Computer Modern Sans Serif', 'Lucida Grande', 'Verdana', 'Geneva', 'Lucid', 'Arial', 'Helvetica', 'Avant Garde', sans-serif; text-anchor: start" x="412.49776" y="517.382312" transform="rotate(-296.470588 412.49776 517.382312)">Build Bright University</text>
   </g>
   <g id="text_8">
    <text style="font: 3px 'DejaVu Sans', 'Bitstream Vera Sans', 'Computer Modern Sans Serif', 'Lucida Grande', 'Verdana', 'Geneva', 'Lucid', 'Arial', 'Helvetica', 'Avant Garde', sans-serif; text-anchor: end" x="213.892996" y="517.382312" transform="rotate(-63.529412 213.892996 517.382312)">Royal University of Phnom Penh</text>
   </g>
   <g id="text_9">
    <text style="font: 3px 'DejaVu Sans', 'Bitstream Vera Sans', 'Computer Modern Sans Serif', 'Lucida Grande', 'Verdana', 'Geneva', 'Lucid', 'Arial', 'Helvetica', 'Avant Garde', sans-serif; text-anchor: end" x="97.028488" y="378.089003" transform="rotate(-15.882353 97.028488 378.089003)">Royal School of Administration</text>
   </g>
   <g id="text_10">
    <text style="font: 3px 'DejaVu Sans', 'Bitstream Vera Sans', 'Computer Modern Sans Serif', 'Lucida Grande', 'Verdana', 'Geneva', 'Lucid', 'Arial', 'Helvetica', 'Avant Garde', sans-serif; text-anchor: end" x="88.979594" y="295.767214" transform="rotate(-354.705882 88.979594 295.767214)">National University of Management</text>
   </g>
   <g id="text_11">
    <text style="font: 3px 'DejaVu Sans', 'Bitstream Vera Sans', 'Computer Modern Sans Serif', 'Lucida Grande', 'Verdana', 'Geneva', 'Lucid', 'Arial', 'Helvetica', 'Avant Garde', sans-serif; text-anchor: end" x="111.212283" y="216.096835" transform="rotate(-333.529412 111.212283 216.096835)">Cambodian Mekong University</text>
   </g>
   <g id="text_12">
    <text style="font: 3px 'DejaVu Sans', 'Bitstream Vera Sans', 'Computer Modern Sans Serif', 'Lucida Grande', 'Verdana', 'Geneva', 'Lucid', 'Arial', 'Helvetica', 'Avant Garde', sans-serif; text-anchor: end" x="193.741858" y="124.640233" transform="rotate(-301.764706 193.741858 124.640233)">Royal University of Agriculture, Cambodia</text>
   </g>
   <g id="text_13">
    <text style="font: 3px 'DejaVu Sans', 'Bitstream Vera Sans', 'Computer Modern Sans Serif', 'Lucida Grande', 'Verdana', 'Geneva', 'Lucid', 'Arial', 'Helvetica', 'Avant Garde', sans-serif; text-anchor: end" x="291.293567" y="91.393761" transform="rotate(-275.294118 291.293567 91.393761)">Svay Rieng University</text>
   </g>
  </g>
 </g>
 <defs>
  <clipPath id="pca0acadb5b">
   <path d="M 547.179803 315.399217 
C 547.179803 284.672664 541.127342 254.244888 529.368799 225.857254 
C 517.610257 197.469621 500.374306 171.674198 478.647352 149.947244 
C 456.920398 128.22029 431.124975 110.984339 402.737341 99.225796 
C 374.349708 87.467253 343.921931 81.414792 313.195378 81.414792 
C 282.468825 81.414792 252.041049 87.467253 223.653416 99.225796 
C 195.265782 110.984339 169.470359 128.22029 147.743405 149.947244 
C 126.016451 171.674198 108.7805 197.469621 97.021957 225.857254 
C 85.263414 254.244888 79.210953 284.672664 79.210953 315.399217 
C 79.210953 346.12577 85.263414 376.553546 97.021957 404.94118 
C 108.7805 433.328814 126.016451 459.124237 147.743405 480.851191 
C 169.470359 502.578145 195.265782 519.814095 223.653416 531.572638 
C 252.041049 543.331181 282.468825 549.383642 313.195378 549.383642 
C 343.921931 549.383642 374.349708 543.331181 402.737341 531.572638 
C 431.124975 519.814095 456.920398 502.578145 478.647352 480.851191 
C 500.374306 459.124237 517.610257 433.328814 529.368799 404.94118 
C 541.127342 376.553546 547.179803 346.12577 547.179803 315.399217 
M 313.195378 315.399217 
C 313.195378 315.399217 313.195378 315.399217 313.195378 315.399217 
C 313.195378 315.399217 313.195378 315.399217 313.195378 315.399217 
C 313.195378 315.399217 313.195378 315.399217 313.195378 315.399217 
C 313.195378 315.399217 313.195378 315.399217 313.195378 315.399217 
C 313.195378 315.399217 313.195378 315.399217 313.195378 315.399217 
C 313.195378 315.399217 313.195378 315.399217 313.195378 315.399217 
C 313.195378 315.399217 313.195378 315.399217 313.195378 315.399217 
C 313.195378 315.399217 313.195378 315.399217 313.195378 315.399217 
C 313.195378 315.399217 313.195378 315.399217 313.195378 315.399217 
C 313.195378 315.399217 313.195378 315.399217 313.195378 315.399217 
C 313.195378 315.399217 313.195378 315.399217 313.195378 315.399217 
C 313.195378 315.399217 313.195378 315.399217 313.195378 315.399217 
C 313.195378 315.399217 313.195378 315.399217 313.195378 315.399217 
C 313.195378 315.399217 313.195378 315.399217 313.195378 315.399217 
C 313.195378 315.399217 313.195378 315.399217 313.195378 315.399217 
C 313.195378 315.399217 313.195378 315.399217 313.195378 315.399217 
z
"/>
  </clipPath>
 </defs>
</svg>
