<?xml version="1.0" encoding="utf-8" standalone="no"?>
<!DOCTYPE svg PUBLIC "-//W3C//DTD SVG 1.1//EN"
  "http://www.w3.org/Graphics/SVG/1.1/DTD/svg11.dtd">
<svg xmlns:xlink="http://www.w3.org/1999/xlink" width="627.298781pt" height="618.856368pt" viewBox="0 0 627.298781 618.856368" xmlns="http://www.w3.org/2000/svg" version="1.1">
 <metadata>
  <rdf:RDF xmlns:dc="http://purl.org/dc/elements/1.1/" xmlns:cc="http://creativecommons.org/ns#" xmlns:rdf="http://www.w3.org/1999/02/22-rdf-syntax-ns#">
   <cc:Work>
    <dc:type rdf:resource="http://purl.org/dc/dcmitype/StillImage"/>
    <dc:date>2024-11-16T04:13:34.065457</dc:date>
    <dc:format>image/svg+xml</dc:format>
    <dc:creator>
     <cc:Agent>
      <dc:title>Matplotlib v3.8.4, https://matplotlib.org/</dc:title>
     </cc:Agent>
    </dc:creator>
   </cc:Work>
  </rdf:RDF>
 </metadata>
 <defs>
  <style type="text/css">*{stroke-linejoin: round; stroke-linecap: butt}</style>
 </defs>
 <g id="figure_1">
  <g id="patch_1">
   <path d="M 0 618.856368 
L 627.298781 618.856368 
L 627.298781 0 
L 0 0 
z
" style="fill: #ffffff"/>
  </g>
  <g id="axes_1">
   <g id="patch_2">
    <path d="M 303.660939 90.224516 
L 305.982906 90.236126 
L 308.30464 90.270955 
L 310.62591 90.328999 
L 312.946483 90.410252 
L 315.266128 90.514706 
L 317.584612 90.642352 
L 319.901704 90.793175 
L 322.217172 90.967162 
L 324.530785 91.164294 
L 326.84231 91.384552 
L 329.151517 91.627913 
L 331.458175 91.894355 
L 333.762054 92.183849 
L 336.062922 92.496367 
L 338.360551 92.831878 
L 340.654709 93.190348 
L 342.945168 93.571741 
L 345.231698 93.976019 
L 347.514072 94.403142 
L 349.79206 94.853067 
L 352.065435 95.325749 
L 354.33397 95.821141 
L 356.597438 96.339193 
L 358.855612 96.879853 
L 361.108266 97.443068 
L 363.355176 98.028781 
L 365.596116 98.636933 
L 367.830863 99.267463 
L 370.059193 99.92031 
L 372.280884 100.595406 
L 374.495712 101.292686 
L 376.703457 102.012078 
L 378.903897 102.753512 
L 381.096814 103.516912 
L 383.281987 104.302203 
L 385.459198 105.109307 
L 387.628229 105.938141 
L 389.788863 106.788625 
L 391.940885 107.660671 
L 392.520229 107.899728 
L 393.417798 105.732806 
L 392.832602 105.491334 
L 390.658842 104.610479 
L 388.476383 103.751405 
L 386.285443 102.914198 
L 384.08624 102.098943 
L 381.878994 101.305719 
L 379.663927 100.534608 
L 377.44126 99.785685 
L 375.211215 99.059026 
L 372.974014 98.354703 
L 370.729883 97.672787 
L 368.479044 97.013347 
L 366.221724 96.376447 
L 363.958148 95.762152 
L 361.688542 95.170523 
L 359.413134 94.601619 
L 357.13215 94.055497 
L 354.845819 93.532213 
L 352.55437 93.031817 
L 350.258031 92.55436 
L 347.957033 92.099891 
L 345.651605 91.668453 
L 343.341978 91.260091 
L 341.028383 90.874846 
L 338.711052 90.512755 
L 336.390215 90.173855 
L 334.066106 89.85818 
L 331.738956 89.565762 
L 329.408998 89.296629 
L 327.076465 89.050809 
L 324.741591 88.828327 
L 322.404609 88.629203 
L 320.065753 88.453459 
L 317.725256 88.301112 
L 315.383352 88.172178 
L 313.040277 88.066668 
L 310.696263 87.984594 
L 308.351546 87.925964 
L 306.00636 87.890784 
L 303.660939 87.879056 
z
" clip-path="url(#pb594952988)" style="fill: #000080"/>
   </g>
   <g id="patch_3">
    <path d="M 392.520229 107.899728 
L 394.661004 108.799032 
L 396.792678 109.719699 
L 398.91504 110.661636 
L 401.027876 111.624749 
L 403.130975 112.608942 
L 405.224127 113.614117 
L 407.307124 114.640172 
L 409.379755 115.687006 
L 411.441815 116.754513 
L 413.493097 117.842587 
L 415.533396 118.95112 
L 417.562508 120.079999 
L 419.580229 121.229113 
L 421.586359 122.398346 
L 423.580696 123.587582 
L 425.563042 124.796702 
L 427.533197 126.025584 
L 429.490965 127.274105 
L 431.43615 128.542142 
L 432.664634 129.357359 
L 433.967701 127.407181 
L 432.726809 126.583729 
L 430.761975 125.302884 
L 428.784432 124.041751 
L 426.794376 122.800456 
L 424.792007 121.579123 
L 422.777525 120.377875 
L 420.751131 119.196831 
L 418.713029 118.03611 
L 416.663421 116.895828 
L 414.602513 115.776098 
L 412.530511 114.677033 
L 410.447622 113.598743 
L 408.354055 112.541335 
L 406.250018 111.504916 
L 404.135723 110.489588 
L 402.01138 109.495453 
L 399.877202 108.522612 
L 397.733403 107.57116 
L 395.580196 106.641194 
L 393.417798 105.732806 
z
" clip-path="url(#pb594952988)" style="fill: #0028ff"/>
   </g>
   <g id="patch_4">
    <path d="M 432.664634 129.357359 
L 434.588828 130.657028 
L 436.49993 131.975873 
L 438.397748 133.313763 
L 440.282092 134.670564 
L 442.152775 136.046141 
L 444.009608 137.440355 
L 445.852406 138.853067 
L 447.680986 140.284137 
L 449.495164 141.73342 
L 451.294758 143.200773 
L 453.079589 144.686048 
L 454.849478 146.189096 
L 456.604249 147.709768 
L 458.343725 149.247911 
L 460.067734 150.803372 
L 461.776101 152.375995 
L 463.468658 153.965623 
L 465.145234 155.572096 
L 466.805661 157.195255 
L 467.851498 158.234473 
L 469.509989 156.575982 
L 468.453587 155.526267 
L 466.776388 153.886713 
L 465.082877 152.264012 
L 463.373224 150.658328 
L 461.6476 149.06982 
L 459.906178 147.498647 
L 458.149131 145.944967 
L 456.376635 144.408935 
L 454.588868 142.890704 
L 452.786009 141.390427 
L 450.968237 139.908253 
L 449.135734 138.44433 
L 447.288684 136.998805 
L 445.427271 135.571823 
L 443.551682 134.163526 
L 441.662104 132.774055 
L 439.758726 131.403548 
L 437.841738 130.052144 
L 435.911332 128.719977 
L 433.967701 127.407181 
z
" clip-path="url(#pb594952988)" style="fill: #00d4ff"/>
   </g>
   <g id="patch_5">
    <path d="M 467.851498 158.234473 
L 469.485167 159.88456 
L 471.102254 161.550902 
L 472.702596 163.233331 
L 474.286035 164.931679 
L 475.852411 166.645776 
L 477.401568 168.375451 
L 478.933351 170.12053 
L 480.447607 171.88084 
L 481.944185 173.656205 
L 483.422934 175.446446 
L 484.883707 177.251385 
L 486.326359 179.070841 
L 487.750743 180.904632 
L 489.156719 182.752576 
L 490.544146 184.614486 
L 491.912884 186.490177 
L 493.262798 188.379462 
L 494.593751 190.282151 
L 495.905611 192.198055 
L 497.198247 194.126981 
L 498.471529 196.068736 
L 499.725331 198.023128 
L 500.959526 199.989959 
L 502.173992 201.969034 
L 503.368606 203.960154 
L 504.54325 205.96312 
L 505.697805 207.977733 
L 506.832157 210.00379 
L 507.946193 212.04109 
L 509.0398 214.089427 
L 510.112869 216.148598 
L 511.165293 218.218397 
L 512.196967 220.298616 
L 513.207787 222.389048 
L 514.197653 224.489483 
L 515.166465 226.599712 
L 516.114127 228.719524 
L 517.040544 230.848705 
L 517.945623 232.987044 
L 518.829274 235.134327 
L 519.691408 237.290339 
L 520.53194 239.454865 
L 521.350784 241.627687 
L 522.14786 243.808589 
L 522.923087 245.997353 
L 523.676388 248.193759 
L 524.407687 250.397588 
L 525.116913 252.60862 
L 525.803992 254.826634 
L 526.468858 257.051407 
L 527.111443 259.282718 
L 527.731683 261.520343 
L 528.329517 263.764058 
L 528.904883 266.01364 
L 529.457726 268.268862 
L 529.987988 270.5295 
L 530.495619 272.795328 
L 530.980566 275.066118 
L 531.442781 277.341644 
L 531.882219 279.621679 
L 532.298834 281.905994 
L 532.692586 284.194361 
L 533.063435 286.486551 
L 533.411344 288.782334 
L 533.736278 291.081482 
L 534.038204 293.383764 
L 534.317093 295.688951 
L 534.572917 297.99681 
L 534.80565 300.307113 
L 535.015268 302.619628 
L 535.201751 304.934123 
L 535.36508 307.250367 
L 535.505239 309.568128 
L 535.622214 311.887175 
L 535.715993 314.207276 
L 535.786566 316.528199 
L 535.833928 318.849712 
L 535.858072 321.171582 
L 535.858996 323.493577 
L 535.836701 325.815465 
L 535.791189 328.137015 
L 535.722463 330.457993 
L 535.630532 332.778168 
L 535.515404 335.097307 
L 535.377091 337.41518 
L 535.215606 339.731553 
L 535.030966 342.046196 
L 534.823189 344.358877 
L 534.592297 346.669364 
L 534.338311 348.977427 
L 534.061257 351.282834 
L 533.761164 353.585356 
L 533.438061 355.884762 
L 533.091981 358.180822 
L 532.722957 360.473307 
L 532.331028 362.761986 
L 531.916232 365.046632 
L 531.47861 367.327016 
L 531.018207 369.60291 
L 530.535068 371.874086 
L 530.029243 374.140317 
L 529.50078 376.401376 
L 528.949734 378.657038 
L 528.376159 380.907077 
L 527.780112 383.151268 
L 527.161654 385.389386 
L 526.520846 387.621207 
L 525.857752 389.84651 
L 525.172439 392.06507 
L 524.464975 394.276666 
L 523.73543 396.481077 
L 522.983879 398.678082 
L 522.210395 400.867462 
L 521.415056 403.048998 
L 520.597942 405.222472 
L 519.759135 407.387666 
L 518.898718 409.544364 
L 518.016777 411.69235 
L 517.113401 413.831409 
L 516.18868 415.961328 
L 515.242707 418.081893 
L 514.275575 420.192893 
L 513.287382 422.294116 
L 512.278226 424.385352 
L 511.248209 426.466392 
L 510.197434 428.537028 
L 509.126005 430.597053 
L 508.03403 432.646261 
L 506.921617 434.684447 
L 505.788879 436.711407 
L 504.635928 438.726938 
L 503.462879 440.73084 
L 502.269851 442.72291 
L 501.056962 444.702952 
L 499.824333 446.670765 
L 498.572089 448.626154 
L 497.300353 450.568923 
L 496.009253 452.498878 
L 494.698919 454.415825 
L 493.369482 456.319574 
L 492.021073 458.209933 
L 490.653829 460.086714 
L 489.267885 461.949728 
L 487.863381 463.798791 
L 486.440457 465.633716 
L 484.999255 467.45432 
L 483.53992 469.260422 
L 482.062597 471.05184 
L 480.567433 472.828395 
L 479.05458 474.589911 
L 477.524186 476.33621 
L 475.976407 478.067118 
L 474.411397 479.782462 
L 472.829311 481.48207 
L 471.230309 483.165773 
L 469.61455 484.833401 
L 467.982196 486.48479 
L 467.851498 486.615591 
L 469.509989 488.274081 
L 469.642006 488.141959 
L 471.290849 486.47389 
L 472.922929 484.789416 
L 474.538083 483.088707 
L 476.136149 481.371931 
L 477.716968 479.63926 
L 479.280381 477.890868 
L 480.826232 476.12693 
L 482.354368 474.347621 
L 483.864634 472.553121 
L 485.356879 470.743607 
L 486.830956 468.919262 
L 488.286715 467.080268 
L 489.724012 465.226808 
L 491.142703 463.359069 
L 492.542646 461.477236 
L 493.923701 459.581498 
L 495.28573 457.672044 
L 496.628596 455.749066 
L 497.952166 453.812755 
L 499.256307 451.863306 
L 500.540888 449.900913 
L 501.805782 447.925772 
L 503.050861 445.938082 
L 504.276002 443.93804 
L 505.481081 441.925848 
L 506.665978 439.901705 
L 507.830575 437.865815 
L 508.974755 435.81838 
L 510.098404 433.759607 
L 511.20141 431.6897 
L 512.283661 429.608866 
L 513.345051 427.517315 
L 514.385472 425.415254 
L 515.404821 423.302894 
L 516.402995 421.180447 
L 517.379896 419.048124 
L 518.335425 416.906139 
L 519.269487 414.754706 
L 520.181988 412.59404 
L 521.072837 410.424357 
L 521.941945 408.245875 
L 522.789225 406.05881 
L 523.614593 403.863382 
L 524.417965 401.65981 
L 525.199262 399.448315 
L 525.958405 397.229118 
L 526.695319 395.00244 
L 527.409929 392.768504 
L 528.102165 390.527535 
L 528.771956 388.279755 
L 529.419237 386.025389 
L 530.043942 383.764664 
L 530.646009 381.497805 
L 531.225378 379.225038 
L 531.78199 376.946592 
L 532.315791 374.662693 
L 532.826726 372.373571 
L 533.314745 370.079454 
L 533.779799 367.780571 
L 534.221841 365.477153 
L 534.640827 363.16943 
L 535.036715 360.857633 
L 535.409466 358.541992 
L 535.759042 356.222739 
L 536.085409 353.900107 
L 536.388533 351.574327 
L 536.668385 349.245633 
L 536.924937 346.914256 
L 537.158162 344.580431 
L 537.368037 342.24439 
L 537.554542 339.906367 
L 537.717658 337.566595 
L 537.857368 335.22531 
L 537.973659 332.882745 
L 538.066519 330.539134 
L 538.135939 328.194711 
L 538.181911 325.849712 
L 538.204431 323.50437 
L 538.203497 321.15892 
L 538.179109 318.813597 
L 538.13127 316.468635 
L 538.059983 314.124269 
L 537.965257 311.780732 
L 537.847101 309.43826 
L 537.705526 307.097087 
L 537.540547 304.757447 
L 537.35218 302.419573 
L 537.140445 300.0837 
L 536.905361 297.750061 
L 536.646953 295.418889 
L 536.365247 293.090418 
L 536.060271 290.764881 
L 535.732055 288.442509 
L 535.380632 286.123536 
L 535.006037 283.808192 
L 534.608308 281.496711 
L 534.187484 279.189322 
L 533.743608 276.886257 
L 533.276724 274.587745 
L 532.786878 272.294018 
L 532.27412 270.005303 
L 531.738501 267.72183 
L 531.180075 265.443828 
L 530.598896 263.171523 
L 529.995024 260.905144 
L 529.368519 258.644917 
L 528.719443 256.391068 
L 528.047862 254.143822 
L 527.353842 251.903404 
L 526.637453 249.670038 
L 525.898766 247.443948 
L 525.137856 245.225356 
L 524.354798 243.014484 
L 523.549671 240.811552 
L 522.722556 238.616782 
L 521.873534 236.430393 
L 521.002692 234.252603 
L 520.110115 232.08363 
L 519.195894 229.923692 
L 518.260119 227.773003 
L 517.302885 225.63178 
L 516.324286 223.500236 
L 515.324422 221.378584 
L 514.303391 219.267036 
L 513.261296 217.165805 
L 512.198242 215.075099 
L 511.114333 212.995128 
L 510.00968 210.9261 
L 508.884392 208.868222 
L 507.738582 206.8217 
L 506.572364 204.786737 
L 505.385855 202.763539 
L 504.179174 200.752306 
L 502.952441 198.753241 
L 501.705779 196.766543 
L 500.439313 194.79241 
L 499.153169 192.831041 
L 497.847477 190.882631 
L 496.522365 188.947375 
L 495.177968 187.025467 
L 493.814419 185.117098 
L 492.431855 183.22246 
L 491.030414 181.341743 
L 489.610236 179.475133 
L 488.171464 177.622819 
L 486.71424 175.784984 
L 485.238712 173.961814 
L 483.745025 172.153489 
L 482.233331 170.360192 
L 480.703779 168.582101 
L 479.156524 166.819394 
L 477.591718 165.072248 
L 476.00952 163.340837 
L 474.410088 161.625334 
L 472.79358 159.925911 
L 471.160159 158.242737 
L 469.509989 156.575982 
z
" clip-path="url(#pb594952988)" style="fill: #7dff7a"/>
   </g>
   <g id="patch_6">
    <path d="M 467.851498 486.615591 
L 466.201411 488.24926 
L 464.535069 489.866346 
L 462.85264 491.466689 
L 461.154292 493.050127 
L 459.440195 494.616503 
L 457.71052 496.16566 
L 455.965441 497.697444 
L 454.20513 499.2117 
L 452.429766 500.708277 
L 450.639525 502.187027 
L 448.834586 503.6478 
L 447.01513 505.090451 
L 445.181339 506.514836 
L 443.333395 507.920812 
L 441.471485 509.308238 
L 439.595793 510.676977 
L 437.706509 512.02689 
L 435.803819 513.357844 
L 433.887916 514.669704 
L 431.95899 515.96234 
L 430.017234 517.235622 
L 428.062843 518.489424 
L 426.096012 519.723619 
L 424.116937 520.938084 
L 422.125817 522.132698 
L 420.122851 523.307342 
L 418.108238 524.461898 
L 416.082181 525.59625 
L 414.044881 526.710285 
L 411.996544 527.803892 
L 409.937372 528.876961 
L 407.867574 529.929385 
L 405.787355 530.961059 
L 403.696923 531.97188 
L 401.596487 532.961746 
L 399.486259 533.930558 
L 397.366447 534.87822 
L 395.237266 535.804637 
L 393.098926 536.709716 
L 390.951643 537.593367 
L 388.795631 538.455501 
L 386.631106 539.296032 
L 384.458284 540.114877 
L 382.277382 540.911952 
L 380.088618 541.687179 
L 377.892212 542.44048 
L 375.688383 543.17178 
L 373.47735 543.881005 
L 371.259337 544.568085 
L 369.034563 545.232951 
L 366.803253 545.875536 
L 364.565628 546.495776 
L 362.321913 547.093609 
L 360.072331 547.668976 
L 357.817109 548.221818 
L 355.556471 548.752081 
L 353.290643 549.259711 
L 351.019853 549.744659 
L 348.744326 550.206874 
L 346.464292 550.646311 
L 344.179977 551.062927 
L 341.89161 551.456679 
L 339.59942 551.827527 
L 337.303637 552.175436 
L 335.004489 552.50037 
L 332.702207 552.802297 
L 330.39702 553.081186 
L 328.08916 553.337009 
L 325.778858 553.569742 
L 323.466343 553.77936 
L 321.151848 553.965844 
L 318.835604 554.129173 
L 316.517843 554.269332 
L 314.198796 554.386307 
L 311.878695 554.480085 
L 309.557772 554.550659 
L 307.236259 554.59802 
L 304.914389 554.622164 
L 303.660939 554.625547 
L 303.660939 556.971007 
L 304.927051 556.96759 
L 307.272374 556.943202 
L 309.617336 556.895362 
L 311.961702 556.824076 
L 314.305238 556.72935 
L 316.64771 556.611193 
L 318.988884 556.469619 
L 321.328524 556.30464 
L 323.666398 556.116273 
L 326.002271 555.904537 
L 328.33591 555.669454 
L 330.667082 555.411046 
L 332.995553 555.12934 
L 335.32109 554.824363 
L 337.643462 554.496147 
L 339.962435 554.144724 
L 342.277779 553.77013 
L 344.58926 553.3724 
L 346.896649 552.951577 
L 349.199714 552.507701 
L 351.498226 552.040816 
L 353.791953 551.550971 
L 356.080668 551.038213 
L 358.364141 550.502594 
L 360.642143 549.944167 
L 362.914448 549.362989 
L 365.180827 548.759117 
L 367.441054 548.132611 
L 369.694903 547.483536 
L 371.942149 546.811954 
L 374.182567 546.117934 
L 376.415932 545.401545 
L 378.642023 544.662859 
L 380.860615 543.901948 
L 383.071487 543.118891 
L 385.274419 542.313764 
L 387.469189 541.486648 
L 389.655578 540.637627 
L 391.833368 539.766784 
L 394.00234 538.874208 
L 396.162279 537.959986 
L 398.312968 537.024212 
L 400.454191 536.066977 
L 402.585735 535.088379 
L 404.707387 534.088514 
L 406.818934 533.067484 
L 408.920166 532.025389 
L 411.010872 530.962334 
L 413.090843 529.878426 
L 415.15987 528.773773 
L 417.217749 527.648485 
L 419.264271 526.502674 
L 421.299233 525.336456 
L 423.322432 524.149948 
L 425.333665 522.943266 
L 427.33273 521.716534 
L 429.319428 520.469872 
L 431.293561 519.203406 
L 433.25493 517.917262 
L 435.20334 516.611569 
L 437.138596 515.286458 
L 439.060504 513.942061 
L 440.968873 512.578512 
L 442.863511 511.195948 
L 444.744228 509.794507 
L 446.610838 508.374329 
L 448.463152 506.935556 
L 450.300987 505.478333 
L 452.124157 504.002804 
L 453.932481 502.509118 
L 455.725779 500.997424 
L 457.50387 499.467872 
L 459.266577 497.920616 
L 461.013723 496.355811 
L 462.745134 494.773613 
L 464.460637 493.17418 
L 466.16006 491.557673 
L 467.843234 489.924252 
L 469.509989 488.274081 
z
" clip-path="url(#pb594952988)" style="fill: #ffe600"/>
   </g>
   <g id="patch_7">
    <path d="M 303.660939 554.625547 
L 301.338973 554.613937 
L 299.017238 554.579109 
L 296.695969 554.521065 
L 294.375395 554.439812 
L 292.05575 554.335357 
L 289.737266 554.207712 
L 287.420174 554.056888 
L 285.104706 553.882902 
L 282.791094 553.68577 
L 280.479568 553.465512 
L 278.170361 553.22215 
L 275.863703 552.955709 
L 273.559824 552.666215 
L 271.258956 552.353697 
L 268.961328 552.018186 
L 266.667169 551.659716 
L 264.37671 551.278323 
L 262.09018 550.874044 
L 259.807806 550.446921 
L 257.529818 549.996996 
L 255.256443 549.524314 
L 252.987908 549.028923 
L 250.724441 548.510871 
L 248.466267 547.97021 
L 246.213612 547.406996 
L 243.966702 546.821283 
L 241.725762 546.213131 
L 239.491015 545.5826 
L 237.262685 544.929754 
L 235.040995 544.254657 
L 232.826166 543.557378 
L 230.618422 542.837985 
L 228.417981 542.096552 
L 226.225064 541.333151 
L 224.039891 540.54786 
L 221.862681 539.740757 
L 219.693649 538.911922 
L 217.533015 538.061439 
L 215.380993 537.189392 
L 213.237799 536.295869 
L 211.103648 535.38096 
L 208.978752 534.444754 
L 206.863324 533.487348 
L 204.757576 532.508834 
L 202.661718 531.509313 
L 200.57596 530.488884 
L 198.50051 529.447648 
L 196.435577 528.38571 
L 194.381365 527.303176 
L 192.338082 526.200155 
L 190.305931 525.076756 
L 188.285115 523.933093 
L 186.275837 522.769278 
L 184.278297 521.58543 
L 182.292695 520.381665 
L 180.31923 519.158105 
L 178.358099 517.914872 
L 176.409498 516.65209 
L 174.473623 515.369886 
L 172.550666 514.068387 
L 170.64082 512.747724 
L 168.744275 511.408029 
L 166.861223 510.049436 
L 164.99185 508.67208 
L 163.136344 507.2761 
L 161.29489 505.861635 
L 159.467673 504.428827 
L 157.654875 502.977818 
L 155.856677 501.508754 
L 154.07326 500.021782 
L 152.304801 498.51705 
L 150.551478 496.99471 
L 148.813466 495.454912 
L 147.090938 493.897812 
L 145.384068 492.323564 
L 143.693024 490.732327 
L 142.017978 489.124259 
L 140.359095 487.499522 
L 138.716543 485.858277 
L 137.090485 484.200689 
L 135.481084 482.526923 
L 133.888501 480.837148 
L 132.312894 479.131531 
L 130.754423 477.410244 
L 129.213242 475.673459 
L 127.689505 473.921348 
L 126.183366 472.154088 
L 124.694974 470.371856 
L 123.224479 468.574829 
L 121.772027 466.763187 
L 120.337764 464.937111 
L 118.921833 463.096784 
L 117.524376 461.242391 
L 116.145532 459.374115 
L 114.78544 457.492145 
L 113.444235 455.596668 
L 112.122051 453.687874 
L 110.819022 451.765954 
L 109.535276 449.8311 
L 108.270943 447.883506 
L 107.026148 445.923365 
L 105.801017 443.950875 
L 104.595672 441.966233 
L 103.410233 439.969636 
L 102.244819 437.961286 
L 101.099546 435.941381 
L 99.97453 433.910125 
L 98.869882 431.867721 
L 97.785712 429.814372 
L 96.722131 427.750285 
L 95.679243 425.675665 
L 94.657152 423.59072 
L 93.655962 421.495659 
L 92.675773 419.390691 
L 91.716682 417.276026 
L 90.778785 415.151876 
L 89.862176 413.018454 
L 88.966946 410.875972 
L 88.093186 408.724646 
L 87.240983 406.564689 
L 86.410421 404.396319 
L 85.601584 402.219751 
L 84.814553 400.035204 
L 84.049407 397.842896 
L 83.306221 395.643047 
L 82.585071 393.435876 
L 81.886028 391.221603 
L 81.209162 389.000451 
L 80.554542 386.772642 
L 79.922232 384.538398 
L 79.312295 382.297942 
L 78.724793 380.0515 
L 78.159785 377.799294 
L 77.617327 375.541552 
L 77.097472 373.278497 
L 76.600274 371.010358 
L 76.125782 368.73736 
L 75.674043 366.459731 
L 75.245103 364.177698 
L 74.839004 361.89149 
L 74.455787 359.601335 
L 74.09549 357.307463 
L 73.75815 355.010103 
L 73.4438 352.709484 
L 73.152471 350.405837 
L 72.884193 348.099392 
L 72.638992 345.790379 
L 72.416894 343.47903 
L 72.217919 341.165575 
L 72.042089 338.850246 
L 71.88942 336.533275 
L 71.759929 334.214893 
L 71.653627 331.895332 
L 71.570526 329.574824 
L 71.510634 327.253601 
L 71.473956 324.931896 
L 71.460497 322.609939 
L 71.470258 320.287964 
L 71.503238 317.966203 
L 71.559433 315.644888 
L 71.638838 313.32425 
L 71.741446 311.004523 
L 71.867245 308.685938 
L 72.016223 306.368726 
L 72.188366 304.053121 
L 72.383655 301.739352 
L 72.602072 299.427652 
L 72.843595 297.118252 
L 73.108199 294.811382 
L 73.395859 292.507274 
L 73.706545 290.206157 
L 74.040226 287.908262 
L 74.396868 285.613819 
L 74.776438 283.323058 
L 75.178895 281.036206 
L 75.6042 278.753493 
L 76.052311 276.475147 
L 76.523183 274.201396 
L 77.016768 271.932468 
L 77.533017 269.668588 
L 78.071879 267.409984 
L 78.6333 265.156882 
L 79.217223 262.909507 
L 79.82359 260.668083 
L 80.452341 258.432834 
L 81.103413 256.203985 
L 81.77674 253.981758 
L 82.472256 251.766375 
L 83.18989 249.558058 
L 83.929571 247.357028 
L 84.691225 245.163504 
L 85.474776 242.977706 
L 86.280145 240.799853 
L 87.107252 238.630163 
L 87.956014 236.468852 
L 88.826347 234.316136 
L 89.718163 232.172232 
L 90.631373 230.037352 
L 91.565886 227.911711 
L 92.521608 225.795522 
L 93.498444 223.688995 
L 94.496296 221.592342 
L 95.515064 219.505772 
L 96.554647 217.429494 
L 97.61494 215.363715 
L 98.695837 213.308642 
L 99.797231 211.264481 
L 100.919011 209.231436 
L 102.061065 207.20971 
L 103.223279 205.199506 
L 104.405537 203.201024 
L 105.60772 201.214464 
L 106.829708 199.240026 
L 108.071379 197.277905 
L 109.332608 195.3283 
L 110.613271 193.391403 
L 111.913238 191.467411 
L 113.23238 189.556513 
L 114.570564 187.658903 
L 115.927657 185.774769 
L 117.303524 183.9043 
L 118.698026 182.047683 
L 120.111024 180.205103 
L 121.542377 178.376746 
L 122.991942 176.562793 
L 124.459573 174.763426 
L 125.945125 172.978825 
L 127.448447 171.209169 
L 128.969391 169.454634 
L 130.507804 167.715396 
L 132.063533 165.991629 
L 133.63642 164.283505 
L 135.22631 162.591195 
L 136.833044 160.914869 
L 138.45646 159.254693 
L 140.096396 157.610834 
L 141.752689 155.983457 
L 143.425172 154.372723 
L 145.113679 152.778795 
L 146.81804 151.201831 
L 148.538086 149.641989 
L 150.273644 148.099425 
L 152.02454 146.574294 
L 153.7906 145.066748 
L 155.571646 143.576937 
L 157.367502 142.105011 
L 159.177987 140.651117 
L 161.00292 139.215401 
L 162.842118 137.798005 
L 164.695399 136.399071 
L 166.562576 135.01874 
L 168.443462 133.65715 
L 170.33787 132.314436 
L 172.245611 130.990733 
L 174.166492 129.686173 
L 176.100324 128.400887 
L 178.046911 127.135003 
L 180.006059 125.888648 
L 181.977573 124.661947 
L 183.961255 123.455021 
L 185.956907 122.267993 
L 187.964329 121.10098 
L 189.983321 119.954099 
L 192.01368 118.827465 
L 194.055204 117.721191 
L 196.107689 116.635387 
L 198.170928 115.570162 
L 200.244717 114.525622 
L 202.328847 113.501872 
L 204.423111 112.499014 
L 206.527298 111.517149 
L 208.641198 110.556374 
L 210.7646 109.616786 
L 212.897292 108.698478 
L 215.03906 107.801543 
L 217.18969 106.92607 
L 219.348967 106.072147 
L 221.516676 105.239859 
L 223.692598 104.429289 
L 225.876518 103.640518 
L 228.068216 102.873626 
L 230.267473 102.128689 
L 232.474069 101.405781 
L 234.687784 100.704975 
L 236.908396 100.026341 
L 239.135684 99.369947 
L 241.369424 98.735858 
L 243.609393 98.124137 
L 245.855367 97.534847 
L 248.107122 96.968045 
L 250.364432 96.423789 
L 252.627071 95.902133 
L 254.894814 95.403129 
L 257.167433 94.926827 
L 258.360866 94.686184 
L 257.903289 92.385792 
L 256.697802 92.628865 
L 254.402227 93.109978 
L 252.111577 93.614023 
L 249.826083 94.140948 
L 247.545972 94.690702 
L 245.271472 95.263229 
L 243.002812 95.858472 
L 240.740217 96.476371 
L 238.483914 97.116865 
L 236.234128 97.77989 
L 233.991086 98.465379 
L 231.75501 99.173264 
L 229.526125 99.903474 
L 227.304653 100.655935 
L 225.090817 101.430574 
L 222.884837 102.227312 
L 220.686936 103.046069 
L 218.497331 103.886764 
L 216.316243 104.749313 
L 214.14389 105.633629 
L 211.980487 106.539624 
L 209.826253 107.467207 
L 207.681403 108.416286 
L 205.54615 109.386766 
L 203.420708 110.378549 
L 201.305291 111.391537 
L 199.200109 112.425628 
L 197.105373 113.480719 
L 195.021292 114.556704 
L 192.948075 115.653476 
L 190.88593 116.770924 
L 188.835062 117.908938 
L 186.795676 119.067404 
L 184.767977 120.246205 
L 182.752167 121.445223 
L 180.748448 122.66434 
L 178.75702 123.903432 
L 176.778082 125.162377 
L 174.811833 126.441047 
L 172.858468 127.739316 
L 170.918183 129.057053 
L 168.991173 130.394127 
L 167.077629 131.750403 
L 165.177744 133.125747 
L 163.291706 134.520021 
L 161.419706 135.933085 
L 159.56193 137.364798 
L 157.718563 138.815017 
L 155.889791 140.283597 
L 154.075795 141.770391 
L 152.276758 143.27525 
L 150.492859 144.798024 
L 148.724277 146.338561 
L 146.971188 147.896706 
L 145.233769 149.472303 
L 143.512191 151.065196 
L 141.806629 152.675225 
L 140.117252 154.302229 
L 138.444229 155.946044 
L 136.787728 157.606508 
L 135.147914 159.283453 
L 133.52495 160.976712 
L 131.919001 162.686116 
L 130.330225 164.411494 
L 128.758783 166.152672 
L 127.20483 167.909478 
L 125.668523 169.681736 
L 124.150015 171.469267 
L 122.649458 173.271894 
L 121.167002 175.089437 
L 119.702796 176.921712 
L 118.256984 178.768538 
L 116.829714 180.62973 
L 115.421126 182.5051 
L 114.031362 184.394463 
L 112.66056 186.297629 
L 111.308859 188.214407 
L 109.976393 190.144606 
L 108.663294 192.088033 
L 107.369696 194.044494 
L 106.095726 196.013793 
L 104.841513 197.995733 
L 103.607182 199.990115 
L 102.392856 201.996741 
L 101.198656 204.01541 
L 100.024703 206.045919 
L 98.871113 208.088067 
L 97.738002 210.141648 
L 96.625483 212.206457 
L 95.533667 214.282288 
L 94.462664 216.368933 
L 93.41258 218.466183 
L 92.383521 220.57383 
L 91.37559 222.691661 
L 90.388887 224.819466 
L 89.423511 226.957031 
L 88.479559 229.104143 
L 87.557125 231.260587 
L 86.656301 233.426147 
L 85.777177 235.600608 
L 84.919841 237.78375 
L 84.084379 239.975357 
L 83.270875 242.175208 
L 82.47941 244.383084 
L 81.710062 246.598765 
L 80.96291 248.822028 
L 80.238027 251.052651 
L 79.535486 253.290412 
L 78.855357 255.535086 
L 78.197709 257.786448 
L 77.562607 260.044275 
L 76.950115 262.30834 
L 76.360293 264.578416 
L 75.793202 266.854277 
L 75.248897 269.135695 
L 74.727433 271.422442 
L 74.228862 273.714289 
L 73.753234 276.011007 
L 73.300597 278.312366 
L 72.870996 280.618137 
L 72.464473 282.928088 
L 72.08107 285.241989 
L 71.720824 287.559608 
L 71.383773 289.880714 
L 71.069949 292.205074 
L 70.779384 294.532456 
L 70.512107 296.862628 
L 70.268144 299.195355 
L 70.047521 301.530406 
L 69.850259 303.867546 
L 69.676377 306.206541 
L 69.525894 308.547159 
L 69.398825 310.889164 
L 69.295181 313.232323 
L 69.214973 315.576401 
L 69.158211 317.921164 
L 69.124898 320.266378 
L 69.115038 322.611807 
L 69.128633 324.957218 
L 69.165681 327.302375 
L 69.226178 329.647045 
L 69.310119 331.990992 
L 69.417494 334.333983 
L 69.548294 336.675783 
L 69.702505 339.016158 
L 69.880111 341.354874 
L 70.081095 343.691696 
L 70.305437 346.026393 
L 70.553114 348.358729 
L 70.824102 350.688471 
L 71.118374 353.015388 
L 71.435899 355.339245 
L 71.776647 357.659811 
L 72.140583 359.976854 
L 72.527671 362.290141 
L 72.937872 364.599442 
L 73.371145 366.904525 
L 73.827447 369.205161 
L 74.306732 371.501119 
L 74.808953 373.792169 
L 75.334058 376.078082 
L 75.881996 378.35863 
L 76.452711 380.633585 
L 77.046147 382.902719 
L 77.662245 385.165805 
L 78.300942 387.422618 
L 78.962175 389.67293 
L 79.645877 391.916518 
L 80.351981 394.153157 
L 81.080416 396.382623 
L 81.831109 398.604693 
L 82.603984 400.819145 
L 83.398965 403.025758 
L 84.215972 405.224312 
L 85.054923 407.414585 
L 85.915734 409.596359 
L 86.79832 411.769416 
L 87.702592 413.933539 
L 88.62846 416.088511 
L 89.575831 418.234117 
L 90.54461 420.370142 
L 91.5347 422.496373 
L 92.546003 424.612596 
L 93.578417 426.718601 
L 94.63184 428.814176 
L 95.706165 430.899113 
L 96.801285 432.973203 
L 97.917091 435.036237 
L 99.053472 437.088011 
L 100.210313 439.128318 
L 101.387499 441.156956 
L 102.584912 443.17372 
L 103.802432 445.178409 
L 105.039938 447.170823 
L 106.297306 449.150763 
L 107.574411 451.11803 
L 108.871123 453.072428 
L 110.187315 455.013762 
L 111.522854 456.941836 
L 112.877606 458.856459 
L 114.251437 460.757439 
L 115.644208 462.644586 
L 117.055781 464.517711 
L 118.486014 466.376627 
L 119.934765 468.221148 
L 121.401888 470.051089 
L 122.887237 471.866268 
L 124.390663 473.666503 
L 125.912016 475.451614 
L 127.451144 477.221422 
L 129.007892 478.975751 
L 130.582106 480.714425 
L 132.173627 482.43727 
L 133.782297 484.144114 
L 135.407955 485.834786 
L 137.050438 487.509118 
L 138.709582 489.166941 
L 140.385221 490.80809 
L 142.077187 492.432401 
L 143.785311 494.039711 
L 145.509423 495.62986 
L 147.24935 497.202689 
L 149.004918 498.75804 
L 150.775952 500.295758 
L 152.562273 501.815689 
L 154.363705 503.317681 
L 156.180066 504.801583 
L 158.011175 506.267249 
L 159.856849 507.71453 
L 161.716903 509.143283 
L 163.591152 510.553364 
L 165.479407 511.944632 
L 167.381481 513.316948 
L 169.297182 514.670176 
L 171.22632 516.004179 
L 173.1687 517.318824 
L 175.12413 518.61398 
L 177.092414 519.889517 
L 179.073354 521.145308 
L 181.066753 522.381227 
L 183.072412 523.597151 
L 185.090129 524.792958 
L 187.119703 525.968528 
L 189.160931 527.123744 
L 191.213609 528.25849 
L 193.277531 529.372653 
L 195.352492 530.466121 
L 197.438284 531.538786 
L 199.534697 532.590539 
L 201.641524 533.621276 
L 203.758552 534.630893 
L 205.88557 535.61929 
L 208.022366 536.586368 
L 210.168726 537.53203 
L 212.324434 538.456181 
L 214.489277 539.358729 
L 216.663036 540.239584 
L 218.845495 541.098658 
L 221.036436 541.935865 
L 223.235638 542.751121 
L 225.442884 543.544344 
L 227.657951 544.315456 
L 229.880618 545.064379 
L 232.110664 545.791038 
L 234.347864 546.49536 
L 236.591996 547.177276 
L 238.842834 547.836717 
L 241.100154 548.473617 
L 243.36373 549.087912 
L 245.633336 549.679541 
L 247.908745 550.248444 
L 250.189729 550.794566 
L 252.476059 551.317851 
L 254.767509 551.818247 
L 257.063847 552.295703 
L 259.364845 552.750173 
L 261.670273 553.18161 
L 263.9799 553.589972 
L 266.293495 553.975218 
L 268.610827 554.337309 
L 270.931663 554.676208 
L 273.255773 554.991883 
L 275.582923 555.284302 
L 277.912881 555.553434 
L 280.245413 555.799254 
L 282.580287 556.021737 
L 284.917269 556.22086 
L 287.256126 556.396604 
L 289.596623 556.548951 
L 291.938526 556.677886 
L 294.281602 556.783395 
L 296.625615 556.865469 
L 298.970332 556.924099 
L 301.315519 556.95928 
L 303.660939 556.971007 
z
" clip-path="url(#pb594952988)" style="fill: #ff4700"/>
   </g>
   <g id="patch_8">
    <path d="M 258.360866 94.686184 
L 260.640481 94.244578 
L 262.924399 93.825789 
L 265.21239 93.42986 
L 267.504226 93.056831 
L 269.799678 92.706738 
L 272.098515 92.379617 
L 274.400509 92.0755 
L 276.705429 91.794418 
L 279.013045 91.536399 
L 281.323125 91.301468 
L 283.635439 91.08965 
L 285.949755 90.900965 
L 288.265843 90.735432 
L 290.58347 90.593068 
L 292.902405 90.473887 
L 295.222416 90.377901 
L 297.54327 90.30512 
L 299.864736 90.25555 
L 302.186582 90.229197 
L 303.660939 90.224516 
L 303.660939 87.879056 
L 302.17169 87.883784 
L 299.826391 87.910404 
L 297.481476 87.960474 
L 295.137178 88.033991 
L 292.793733 88.130946 
L 290.451374 88.251331 
L 288.110337 88.395133 
L 285.770854 88.562338 
L 283.433161 88.752929 
L 281.09749 88.966887 
L 278.764076 89.204191 
L 276.433151 89.464816 
L 274.104949 89.748737 
L 271.779703 90.055926 
L 269.457645 90.386351 
L 267.139007 90.73998 
L 264.824021 91.116778 
L 262.512919 91.516706 
L 260.205931 91.939725 
L 257.903289 92.385792 
z
" clip-path="url(#pb594952988)" style="fill: #800000"/>
   </g>
   <g id="PatchCollection_1">
    <path d="M 303.660939 554.625547 
L 303.660939 554.625547 
L 301.338973 554.613937 
L 299.017238 554.579109 
L 296.695969 554.521065 
L 294.375395 554.439812 
L 292.05575 554.335357 
L 289.737266 554.207712 
L 287.420174 554.056888 
L 285.104706 553.882902 
L 282.791094 553.68577 
L 280.479568 553.465512 
L 278.170361 553.22215 
L 275.863703 552.955709 
L 273.559824 552.666215 
L 271.258956 552.353697 
L 268.961328 552.018186 
L 266.667169 551.659716 
L 264.37671 551.278323 
L 262.09018 550.874044 
L 259.807806 550.446921 
L 258.360866 550.16388 
L 258.360866 550.16388 
Q 303.660939 322.425032 258.360866 94.686184 
L 258.360866 94.686184 
L 258.360866 94.686184 
L 260.640481 94.244578 
L 262.924399 93.825789 
L 265.21239 93.42986 
L 267.504226 93.056831 
L 269.799678 92.706738 
L 272.098515 92.379617 
L 274.400509 92.0755 
L 276.705429 91.794418 
L 279.013045 91.536399 
L 281.323125 91.301468 
L 283.635439 91.08965 
L 285.949755 90.900965 
L 288.265843 90.735432 
L 290.58347 90.593068 
L 292.902405 90.473887 
L 295.222416 90.377901 
L 297.54327 90.30512 
L 299.864736 90.25555 
L 302.186582 90.229197 
L 303.660939 90.224516 
L 303.660939 90.224516 
Q 303.660939 322.425032 303.660939 554.625547 
z
" clip-path="url(#pb594952988)" style="fill: #ff4700; fill-opacity: 0.5; stroke: #808080; stroke-opacity: 0.5; stroke-width: 0.1"/>
    <path d="M 258.360866 550.16388 
L 258.360866 550.16388 
L 256.08578 549.6995 
L 253.815452 549.212392 
L 251.550109 548.702606 
L 249.289976 548.170193 
L 247.035281 547.615205 
L 244.786248 547.037699 
L 242.543102 546.437731 
L 240.306068 545.815362 
L 238.07537 545.170655 
L 235.85123 544.503673 
L 233.633871 543.814483 
L 231.423515 543.103155 
L 229.220382 542.369759 
L 227.024694 541.614368 
L 224.836669 540.837059 
L 222.656526 540.037909 
L 220.484484 539.216998 
L 218.320759 538.374408 
L 216.165568 537.510223 
L 214.801649 536.950336 
L 214.801649 536.950336 
Q 303.660939 322.425032 467.851498 486.615591 
L 467.851498 486.615591 
L 467.851498 486.615591 
L 466.201411 488.24926 
L 464.535069 489.866346 
L 462.85264 491.466689 
L 461.154292 493.050127 
L 459.440195 494.616503 
L 457.71052 496.16566 
L 455.965441 497.697444 
L 454.20513 499.2117 
L 452.429766 500.708277 
L 450.639525 502.187027 
L 448.834586 503.6478 
L 447.01513 505.090451 
L 445.181339 506.514836 
L 443.333395 507.920812 
L 441.471485 509.308238 
L 439.595793 510.676977 
L 437.706509 512.02689 
L 435.803819 513.357844 
L 433.887916 514.669704 
L 432.664634 515.492704 
L 432.664634 515.492704 
Q 303.660939 322.425032 258.360866 550.16388 
z
" clip-path="url(#pb594952988)" style="fill: #ff4700; fill-opacity: 0.5; stroke: #808080; stroke-opacity: 0.5; stroke-width: 0.1"/>
    <path d="M 214.801649 536.950336 
L 214.801649 536.950336 
L 212.660874 536.051031 
L 210.5292 535.130365 
L 208.406839 534.188428 
L 206.294003 533.225314 
L 204.190903 532.241121 
L 202.097751 531.235947 
L 200.014755 530.209891 
L 197.942123 529.163058 
L 195.880063 528.09555 
L 193.828781 527.007476 
L 191.788482 525.898944 
L 189.759371 524.770064 
L 187.741649 523.62095 
L 185.735519 522.451717 
L 183.741182 521.262481 
L 181.758837 520.053362 
L 179.788681 518.82448 
L 177.830913 517.575958 
L 175.885728 516.307921 
L 173.95332 515.020496 
L 172.033883 513.713812 
L 170.127608 512.387999 
L 168.234687 511.04319 
L 166.355308 509.679519 
L 164.489659 508.297123 
L 162.637928 506.89614 
L 160.800299 505.47671 
L 158.976955 504.038975 
L 157.16808 502.583078 
L 155.373855 501.109166 
L 153.594457 499.617386 
L 151.830067 498.107887 
L 150.080859 496.580819 
L 148.347009 495.036336 
L 146.62869 493.474593 
L 144.926075 491.895744 
L 143.239332 490.299948 
L 141.568632 488.687365 
L 139.914141 487.058156 
L 138.276025 485.412484 
L 136.654447 483.750513 
L 135.049569 482.07241 
L 133.461552 480.378342 
L 131.890555 478.668479 
L 130.336735 476.942991 
L 128.800248 475.202052 
L 127.281246 473.445836 
L 125.779882 471.674517 
L 124.296306 469.888274 
L 122.830666 468.087284 
L 121.383109 466.271729 
L 119.95378 464.441789 
L 118.542822 462.597647 
L 117.150375 460.739488 
L 115.776579 458.867498 
L 114.421571 456.981863 
L 113.085487 455.082773 
L 111.76846 453.170418 
L 110.593266 451.428726 
L 110.593266 451.428726 
Q 303.660939 322.425032 467.851498 158.234473 
L 467.851498 158.234473 
L 467.851498 158.234473 
L 469.485167 159.88456 
L 471.102254 161.550902 
L 472.702596 163.233331 
L 474.286035 164.931679 
L 475.852411 166.645776 
L 477.401568 168.375451 
L 478.933351 170.12053 
L 480.447607 171.88084 
L 481.944185 173.656205 
L 483.422934 175.446446 
L 484.883707 177.251385 
L 486.326359 179.070841 
L 487.750743 180.904632 
L 489.156719 182.752576 
L 490.544146 184.614486 
L 491.912884 186.490177 
L 493.262798 188.379462 
L 494.593751 190.282151 
L 495.905611 192.198055 
L 497.198247 194.126981 
L 498.471529 196.068736 
L 499.725331 198.023128 
L 500.959526 199.989959 
L 502.173992 201.969034 
L 503.368606 203.960154 
L 504.54325 205.96312 
L 505.697805 207.977733 
L 506.832157 210.00379 
L 507.946193 212.04109 
L 509.0398 214.089427 
L 510.112869 216.148598 
L 511.165293 218.218397 
L 512.196967 220.298616 
L 513.207787 222.389048 
L 514.197653 224.489483 
L 515.166465 226.599712 
L 516.114127 228.719524 
L 517.040544 230.848705 
L 517.945623 232.987044 
L 518.829274 235.134327 
L 519.691408 237.290339 
L 520.53194 239.454865 
L 521.350784 241.627687 
L 522.14786 243.808589 
L 522.923087 245.997353 
L 523.676388 248.193759 
L 524.407687 250.397588 
L 525.116913 252.60862 
L 525.803992 254.826634 
L 526.468858 257.051407 
L 527.111443 259.282718 
L 527.731683 261.520343 
L 528.329517 263.764058 
L 528.904883 266.01364 
L 529.457726 268.268862 
L 529.987988 270.5295 
L 530.495619 272.795328 
L 530.980566 275.066118 
L 531.399787 277.124958 
L 531.399787 277.124958 
Q 303.660939 322.425032 214.801649 536.950336 
z
" clip-path="url(#pb594952988)" style="fill: #ff4700; fill-opacity: 0.5; stroke: #808080; stroke-opacity: 0.5; stroke-width: 0.1"/>
    <path d="M 432.664634 515.492704 
L 432.664634 515.492704 
L 430.727539 516.773067 
L 428.777738 518.033994 
L 426.815425 519.275361 
L 424.840797 520.497043 
L 422.854051 521.698918 
L 420.855386 522.880865 
L 418.845001 524.042767 
L 416.823098 525.184508 
L 414.789879 526.305973 
L 412.745547 527.40705 
L 410.690307 528.487629 
L 408.624364 529.547602 
L 406.547925 530.586862 
L 404.461197 531.605307 
L 402.364389 532.602834 
L 400.257711 533.579343 
L 398.141373 534.534737 
L 396.015587 535.46892 
L 393.880566 536.381799 
L 391.736523 537.273283 
L 389.583673 538.143282 
L 387.42223 538.991709 
L 385.252412 539.818479 
L 383.074434 540.623511 
L 380.888515 541.406723 
L 378.694873 542.168037 
L 376.493728 542.907377 
L 374.285299 543.624668 
L 372.069809 544.31984 
L 369.847477 544.992823 
L 367.618527 545.643549 
L 365.383181 546.271953 
L 363.141663 546.877973 
L 360.894197 547.461548 
L 358.641008 548.022619 
L 356.382321 548.561131 
L 354.118361 549.077029 
L 351.849356 549.570263 
L 349.575533 550.040782 
L 348.961013 550.16388 
L 348.961013 550.16388 
Q 303.660939 322.425032 110.593266 451.428726 
L 110.593266 451.428726 
L 110.593266 451.428726 
L 109.312904 449.491632 
L 108.051977 447.54183 
L 106.81061 445.579518 
L 105.588928 443.604889 
L 104.387053 441.618143 
L 103.205106 439.619478 
L 102.043203 437.609094 
L 100.901463 435.587191 
L 99.779998 433.553972 
L 98.678921 431.50964 
L 97.598342 429.4544 
L 96.538369 427.388457 
L 95.499109 425.312017 
L 94.480664 423.225289 
L 93.483137 421.128481 
L 92.506628 419.021803 
L 91.551234 416.905466 
L 90.617051 414.77968 
L 89.704172 412.644659 
L 88.812688 410.500616 
L 87.942689 408.347765 
L 87.094262 406.186323 
L 86.267491 404.016504 
L 85.46246 401.838526 
L 84.679248 399.652607 
L 83.917934 397.458965 
L 83.178594 395.25782 
L 82.461303 393.049392 
L 81.766131 390.833901 
L 81.093148 388.61157 
L 80.442422 386.38262 
L 79.814018 384.147274 
L 79.207998 381.905756 
L 78.624423 379.65829 
L 78.063352 377.405101 
L 77.52484 375.146413 
L 77.008942 372.882454 
L 76.515708 370.613449 
L 76.045189 368.339625 
L 75.922091 367.725105 
L 75.922091 367.725105 
Q 303.660939 322.425032 432.664634 515.492704 
z
" clip-path="url(#pb594952988)" style="fill: #ffe600; fill-opacity: 0.5; stroke: #808080; stroke-opacity: 0.5; stroke-width: 0.1"/>
    <path d="M 531.399787 277.124958 
L 531.399787 277.124958 
L 531.841393 279.404574 
L 532.260182 281.688491 
L 532.656111 283.976483 
L 533.02914 286.268318 
L 533.379233 288.56377 
L 533.706354 290.862608 
L 534.010471 293.164602 
L 534.291553 295.469522 
L 534.549572 297.777137 
L 534.784502 300.087217 
L 534.996321 302.399531 
L 535.185006 304.713848 
L 535.350539 307.029935 
L 535.492903 309.347563 
L 535.612084 311.666497 
L 535.70807 313.986508 
L 535.780851 316.307363 
L 535.830421 318.628829 
L 535.856774 320.950675 
L 535.859908 323.272668 
L 535.839822 325.594577 
L 535.796518 327.916169 
L 535.730001 330.237211 
L 535.640277 332.557472 
L 535.527355 334.876721 
L 535.391247 337.194724 
L 535.231966 339.51125 
L 535.049529 341.826067 
L 534.843952 344.138944 
L 534.615258 346.44965 
L 534.363468 348.757954 
L 534.088608 351.063624 
L 533.790705 353.36643 
L 533.46979 355.666142 
L 533.125894 357.962531 
L 532.759052 360.255365 
L 532.3693 362.544416 
L 531.956678 364.829456 
L 531.521226 367.110255 
L 531.062988 369.386586 
L 530.58201 371.65822 
L 530.078341 373.924932 
L 529.55203 376.186493 
L 529.00313 378.442678 
L 528.431695 380.693262 
L 527.837784 382.938018 
L 527.221456 385.176724 
L 526.582771 387.409154 
L 525.921795 389.635086 
L 525.238593 391.854297 
L 524.533233 394.066565 
L 523.805786 396.271669 
L 523.056325 398.469389 
L 522.284924 400.659504 
L 521.491661 402.841796 
L 520.676616 405.016046 
L 519.839869 407.182037 
L 518.981504 409.339552 
L 518.101607 411.488376 
L 517.200267 413.628294 
L 516.277572 415.759092 
L 515.333617 417.880556 
L 514.368494 419.992475 
L 513.3823 422.094637 
L 512.375135 424.186832 
L 511.347098 426.268851 
L 510.298293 428.340486 
L 509.228824 430.401529 
L 508.138799 432.451775 
L 507.028326 434.491018 
L 505.897517 436.519055 
L 504.746484 438.535683 
L 503.575342 440.540699 
L 502.38421 442.533904 
L 501.173205 444.515098 
L 499.942449 446.484083 
L 498.692065 448.440663 
L 497.422179 450.384641 
L 496.728612 451.428726 
L 496.728612 451.428726 
Q 303.660939 322.425032 75.922091 367.725105 
L 75.922091 367.725105 
L 75.922091 367.725105 
L 75.480485 365.44549 
L 75.061697 363.161572 
L 74.665768 360.873581 
L 74.292738 358.581745 
L 73.942646 356.286293 
L 73.615524 353.987456 
L 73.311408 351.685462 
L 73.030326 349.380542 
L 72.772306 347.072926 
L 72.537376 344.762846 
L 72.325558 342.450532 
L 72.136873 340.136216 
L 71.97134 337.820128 
L 71.828976 335.502501 
L 71.709795 333.183566 
L 71.613809 330.863555 
L 71.541027 328.542701 
L 71.491457 326.221234 
L 71.465104 323.899388 
L 71.461971 321.577395 
L 71.482057 319.255487 
L 71.525361 316.933895 
L 71.591878 314.612852 
L 71.681602 312.292591 
L 71.794523 309.973343 
L 71.930631 307.65534 
L 72.089912 305.338814 
L 72.27235 303.023997 
L 72.477926 300.711119 
L 72.706621 298.400413 
L 72.958411 296.09211 
L 73.23327 293.78644 
L 73.531173 291.483633 
L 73.852088 289.183921 
L 74.195984 286.887533 
L 74.562826 284.594699 
L 74.952578 282.305647 
L 75.365201 280.020608 
L 75.800652 277.739808 
L 76.25889 275.463478 
L 76.739868 273.191843 
L 77.243538 270.925132 
L 77.769849 268.663571 
L 78.318749 266.407385 
L 78.890183 264.156802 
L 79.484094 261.912045 
L 80.100423 259.67334 
L 80.739107 257.440909 
L 81.400083 255.214977 
L 82.083286 252.995766 
L 82.788645 250.783498 
L 83.516092 248.578394 
L 84.265554 246.380675 
L 85.036954 244.19056 
L 85.830217 242.008268 
L 86.645263 239.834018 
L 87.48201 237.668027 
L 88.340374 235.510511 
L 89.220271 233.361687 
L 90.121612 231.221769 
L 91.044306 229.090972 
L 91.988262 226.969508 
L 92.953385 224.857589 
L 93.939578 222.755427 
L 94.946744 220.663231 
L 95.97478 218.581212 
L 97.023585 216.509578 
L 98.093054 214.448534 
L 99.183079 212.398288 
L 100.293552 210.359045 
L 101.424362 208.331008 
L 102.575395 206.314381 
L 103.746536 204.309365 
L 104.937669 202.31616 
L 106.148673 200.334965 
L 107.379429 198.36598 
L 108.629813 196.409401 
L 109.8997 194.465423 
L 110.593266 193.421337 
L 110.593266 193.421337 
Q 303.660939 322.425032 531.399787 277.124958 
z
" clip-path="url(#pb594952988)" style="fill: #7dff7a; fill-opacity: 0.5; stroke: #808080; stroke-opacity: 0.5; stroke-width: 0.1"/>
    <path d="M 496.728612 451.428726 
L 496.728612 451.428726 
L 495.428943 453.352921 
L 494.110098 455.264022 
L 492.772208 457.16184 
L 491.415406 459.046185 
L 490.03983 460.916867 
L 488.645616 462.7737 
L 487.232903 464.616499 
L 485.801834 466.445079 
L 484.352551 468.259256 
L 482.885198 470.058851 
L 481.399923 471.843682 
L 479.896875 473.613571 
L 478.376203 475.368342 
L 476.83806 477.107818 
L 475.282599 478.831826 
L 473.709976 480.540194 
L 472.120348 482.23275 
L 470.513875 483.909326 
L 468.890716 485.569753 
L 467.851498 486.615591 
L 467.851498 486.615591 
Q 303.660939 322.425032 348.961013 550.16388 
L 348.961013 550.16388 
L 348.961013 550.16388 
L 346.681397 550.605486 
L 344.39748 551.024274 
L 342.109488 551.420203 
L 339.817652 551.793233 
L 337.522201 552.143325 
L 335.223363 552.470446 
L 332.921369 552.774563 
L 330.616449 553.055645 
L 328.308834 553.313665 
L 325.998754 553.548595 
L 323.68644 553.760413 
L 321.372123 553.949098 
L 319.056035 554.114631 
L 316.738408 554.256995 
L 314.419473 554.376176 
L 312.099463 554.472162 
L 309.778608 554.544944 
L 307.457142 554.594514 
L 305.135296 554.620867 
L 303.660939 554.625547 
L 303.660939 554.625547 
Q 303.660939 322.425032 496.728612 451.428726 
z
" clip-path="url(#pb594952988)" style="fill: #7dff7a; fill-opacity: 0.5; stroke: #808080; stroke-opacity: 0.5; stroke-width: 0.1"/>
    <path d="M 432.664634 129.357359 
L 432.664634 129.357359 
L 434.588828 130.657028 
L 436.49993 131.975873 
L 438.397748 133.313763 
L 440.282092 134.670564 
L 442.152775 136.046141 
L 444.009608 137.440355 
L 445.852406 138.853067 
L 447.680986 140.284137 
L 449.495164 141.73342 
L 451.294758 143.200773 
L 453.079589 144.686048 
L 454.849478 146.189096 
L 456.604249 147.709768 
L 458.343725 149.247911 
L 460.067734 150.803372 
L 461.776101 152.375995 
L 463.468658 153.965623 
L 465.145234 155.572096 
L 466.805661 157.195255 
L 467.851498 158.234473 
L 467.851498 158.234473 
Q 303.660939 322.425032 110.593266 193.421337 
L 110.593266 193.421337 
L 110.593266 193.421337 
L 111.892935 191.497143 
L 113.211781 189.586041 
L 114.549671 187.688223 
L 115.906472 185.803879 
L 117.282048 183.933196 
L 118.676262 182.076363 
L 120.088975 180.233564 
L 121.520044 178.404985 
L 122.969328 176.590807 
L 124.43668 174.791213 
L 125.921955 173.006382 
L 127.425003 171.236492 
L 128.945675 169.481722 
L 130.483819 167.742245 
L 132.03928 166.018237 
L 133.611902 164.309869 
L 135.20153 162.617313 
L 136.808004 160.940737 
L 138.431162 159.28031 
L 139.47038 158.234473 
L 139.47038 158.234473 
Q 303.660939 322.425032 432.664634 129.357359 
z
" clip-path="url(#pb594952988)" style="fill: #00d4ff; fill-opacity: 0.5; stroke: #808080; stroke-opacity: 0.5; stroke-width: 0.1"/>
    <path d="M 392.520229 107.899728 
L 392.520229 107.899728 
L 394.661004 108.799032 
L 396.792678 109.719699 
L 398.91504 110.661636 
L 401.027876 111.624749 
L 403.130975 112.608942 
L 405.224127 113.614117 
L 407.307124 114.640172 
L 409.379755 115.687006 
L 411.441815 116.754513 
L 413.493097 117.842587 
L 415.533396 118.95112 
L 417.562508 120.079999 
L 419.580229 121.229113 
L 421.586359 122.398346 
L 423.580696 123.587582 
L 425.563042 124.796702 
L 427.533197 126.025584 
L 429.490965 127.274105 
L 431.43615 128.542142 
L 432.664634 129.357359 
L 432.664634 129.357359 
Q 303.660939 322.425032 139.47038 158.234473 
L 139.47038 158.234473 
L 139.47038 158.234473 
L 141.120468 156.600804 
L 142.786809 154.983717 
L 144.469238 153.383375 
L 146.167586 151.799936 
L 147.881683 150.23356 
L 149.611358 148.684403 
L 151.356438 147.15262 
L 153.116748 145.638364 
L 154.892112 144.141786 
L 156.682353 142.663037 
L 158.487292 141.202264 
L 160.306748 139.759612 
L 162.14054 138.335228 
L 163.988483 136.929252 
L 165.850394 135.541825 
L 167.726085 134.173087 
L 169.61537 132.823173 
L 171.518059 131.49222 
L 173.433962 130.18036 
L 174.657245 129.357359 
L 174.657245 129.357359 
Q 303.660939 322.425032 392.520229 107.899728 
z
" clip-path="url(#pb594952988)" style="fill: #0028ff; fill-opacity: 0.5; stroke: #808080; stroke-opacity: 0.5; stroke-width: 0.1"/>
    <path d="M 303.660939 90.224516 
L 303.660939 90.224516 
L 305.982906 90.236126 
L 308.30464 90.270955 
L 310.62591 90.328999 
L 312.946483 90.410252 
L 315.266128 90.514706 
L 317.584612 90.642352 
L 319.901704 90.793175 
L 322.217172 90.967162 
L 324.530785 91.164294 
L 326.84231 91.384552 
L 329.151517 91.627913 
L 331.458175 91.894355 
L 333.762054 92.183849 
L 336.062922 92.496367 
L 338.360551 92.831878 
L 340.654709 93.190348 
L 342.945168 93.571741 
L 345.231698 93.976019 
L 347.514072 94.403142 
L 349.79206 94.853067 
L 352.065435 95.325749 
L 354.33397 95.821141 
L 356.597438 96.339193 
L 358.855612 96.879853 
L 361.108266 97.443068 
L 363.355176 98.028781 
L 365.596116 98.636933 
L 367.830863 99.267463 
L 370.059193 99.92031 
L 372.280884 100.595406 
L 374.495712 101.292686 
L 376.703457 102.012078 
L 378.903897 102.753512 
L 381.096814 103.516912 
L 383.281987 104.302203 
L 385.459198 105.109307 
L 387.628229 105.938141 
L 389.788863 106.788625 
L 391.940885 107.660671 
L 392.520229 107.899728 
L 392.520229 107.899728 
Q 303.660939 322.425032 174.657245 129.357359 
L 174.657245 129.357359 
L 174.657245 129.357359 
L 176.594339 128.076997 
L 178.544141 126.816069 
L 180.506453 125.574703 
L 182.481081 124.353021 
L 184.467828 123.151146 
L 186.466493 121.969198 
L 188.476877 120.807296 
L 190.49878 119.665555 
L 192.531999 118.544091 
L 194.576331 117.443014 
L 196.631571 116.362435 
L 198.697514 115.302462 
L 200.773954 114.263201 
L 202.860682 113.244757 
L 204.957489 112.24723 
L 207.064168 111.27072 
L 209.180505 110.315326 
L 211.306291 109.381143 
L 213.441312 108.468264 
L 215.585355 107.576781 
L 217.738205 106.706782 
L 219.899648 105.858355 
L 222.069467 105.031584 
L 224.247445 104.226553 
L 226.433364 103.443341 
L 228.627005 102.682027 
L 230.828151 101.942687 
L 233.036579 101.225395 
L 235.25207 100.530223 
L 237.474401 99.857241 
L 239.703351 99.206515 
L 241.938697 98.57811 
L 244.180215 97.97209 
L 246.427681 97.388516 
L 248.68087 96.827444 
L 250.939558 96.288933 
L 253.203517 95.773034 
L 255.472522 95.279801 
L 257.746346 94.809282 
L 258.360866 94.686184 
L 258.360866 94.686184 
Q 303.660939 322.425032 303.660939 90.224516 
z
" clip-path="url(#pb594952988)" style="fill: #000080; fill-opacity: 0.5; stroke: #808080; stroke-opacity: 0.5; stroke-width: 0.1"/>
   </g>
   <g id="patch_9">
    <path d="M 303.660939 90.224516 
L 305.982906 90.236126 
L 308.30464 90.270955 
L 310.62591 90.328999 
L 312.946483 90.410252 
L 315.266128 90.514706 
L 317.584612 90.642352 
L 319.901704 90.793175 
L 322.217172 90.967162 
L 324.530785 91.164294 
L 326.84231 91.384552 
L 329.151517 91.627913 
L 331.458175 91.894355 
L 333.762054 92.183849 
L 336.062922 92.496367 
L 338.360551 92.831878 
L 340.654709 93.190348 
L 342.945168 93.571741 
L 345.231698 93.976019 
L 347.514072 94.403142 
L 349.79206 94.853067 
L 352.065435 95.325749 
L 354.33397 95.821141 
L 356.597438 96.339193 
L 358.855612 96.879853 
L 361.108266 97.443068 
L 363.355176 98.028781 
L 365.596116 98.636933 
L 367.830863 99.267463 
L 370.059193 99.92031 
L 372.280884 100.595406 
L 374.495712 101.292686 
L 376.703457 102.012078 
L 378.903897 102.753512 
L 381.096814 103.516912 
L 383.281987 104.302203 
L 385.459198 105.109307 
L 387.628229 105.938141 
L 389.788863 106.788625 
L 391.940885 107.660671 
L 392.520229 107.899728 
L 393.417798 105.732806 
L 392.832602 105.491334 
L 390.658842 104.610479 
L 388.476383 103.751405 
L 386.285443 102.914198 
L 384.08624 102.098943 
L 381.878994 101.305719 
L 379.663927 100.534608 
L 377.44126 99.785685 
L 375.211215 99.059026 
L 372.974014 98.354703 
L 370.729883 97.672787 
L 368.479044 97.013347 
L 366.221724 96.376447 
L 363.958148 95.762152 
L 361.688542 95.170523 
L 359.413134 94.601619 
L 357.13215 94.055497 
L 354.845819 93.532213 
L 352.55437 93.031817 
L 350.258031 92.55436 
L 347.957033 92.099891 
L 345.651605 91.668453 
L 343.341978 91.260091 
L 341.028383 90.874846 
L 338.711052 90.512755 
L 336.390215 90.173855 
L 334.066106 89.85818 
L 331.738956 89.565762 
L 329.408998 89.296629 
L 327.076465 89.050809 
L 324.741591 88.828327 
L 322.404609 88.629203 
L 320.065753 88.453459 
L 317.725256 88.301112 
L 315.383352 88.172178 
L 313.040277 88.066668 
L 310.696263 87.984594 
L 308.351546 87.925964 
L 306.00636 87.890784 
L 303.660939 87.879056 
L 303.660939 90.224516 
z
" clip-path="url(#pb594952988)" style="fill: none; stroke: #000000; stroke-width: 0.5; stroke-linejoin: miter"/>
   </g>
   <g id="patch_10">
    <path d="M 392.520229 107.899728 
L 394.661004 108.799032 
L 396.792678 109.719699 
L 398.91504 110.661636 
L 401.027876 111.624749 
L 403.130975 112.608942 
L 405.224127 113.614117 
L 407.307124 114.640172 
L 409.379755 115.687006 
L 411.441815 116.754513 
L 413.493097 117.842587 
L 415.533396 118.95112 
L 417.562508 120.079999 
L 419.580229 121.229113 
L 421.586359 122.398346 
L 423.580696 123.587582 
L 425.563042 124.796702 
L 427.533197 126.025584 
L 429.490965 127.274105 
L 431.43615 128.542142 
L 432.664634 129.357359 
L 433.967701 127.407181 
L 432.726809 126.583729 
L 430.761975 125.302884 
L 428.784432 124.041751 
L 426.794376 122.800456 
L 424.792007 121.579123 
L 422.777525 120.377875 
L 420.751131 119.196831 
L 418.713029 118.03611 
L 416.663421 116.895828 
L 414.602513 115.776098 
L 412.530511 114.677033 
L 410.447622 113.598743 
L 408.354055 112.541335 
L 406.250018 111.504916 
L 404.135723 110.489588 
L 402.01138 109.495453 
L 399.877202 108.522612 
L 397.733403 107.57116 
L 395.580196 106.641194 
L 393.417798 105.732806 
L 392.520229 107.899728 
z
" clip-path="url(#pb594952988)" style="fill: none; stroke: #000000; stroke-width: 0.5; stroke-linejoin: miter"/>
   </g>
   <g id="patch_11">
    <path d="M 432.664634 129.357359 
L 434.588828 130.657028 
L 436.49993 131.975873 
L 438.397748 133.313763 
L 440.282092 134.670564 
L 442.152775 136.046141 
L 444.009608 137.440355 
L 445.852406 138.853067 
L 447.680986 140.284137 
L 449.495164 141.73342 
L 451.294758 143.200773 
L 453.079589 144.686048 
L 454.849478 146.189096 
L 456.604249 147.709768 
L 458.343725 149.247911 
L 460.067734 150.803372 
L 461.776101 152.375995 
L 463.468658 153.965623 
L 465.145234 155.572096 
L 466.805661 157.195255 
L 467.851498 158.234473 
L 469.509989 156.575982 
L 468.453587 155.526267 
L 466.776388 153.886713 
L 465.082877 152.264012 
L 463.373224 150.658328 
L 461.6476 149.06982 
L 459.906178 147.498647 
L 458.149131 145.944967 
L 456.376635 144.408935 
L 454.588868 142.890704 
L 452.786009 141.390427 
L 450.968237 139.908253 
L 449.135734 138.44433 
L 447.288684 136.998805 
L 445.427271 135.571823 
L 443.551682 134.163526 
L 441.662104 132.774055 
L 439.758726 131.403548 
L 437.841738 130.052144 
L 435.911332 128.719977 
L 433.967701 127.407181 
L 432.664634 129.357359 
z
" clip-path="url(#pb594952988)" style="fill: none; stroke: #000000; stroke-width: 0.5; stroke-linejoin: miter"/>
   </g>
   <g id="patch_12">
    <path d="M 467.851498 158.234473 
L 469.485167 159.88456 
L 471.102254 161.550902 
L 472.702596 163.233331 
L 474.286035 164.931679 
L 475.852411 166.645776 
L 477.401568 168.375451 
L 478.933351 170.12053 
L 480.447607 171.88084 
L 481.944185 173.656205 
L 483.422934 175.446446 
L 484.883707 177.251385 
L 486.326359 179.070841 
L 487.750743 180.904632 
L 489.156719 182.752576 
L 490.544146 184.614486 
L 491.912884 186.490177 
L 493.262798 188.379462 
L 494.593751 190.282151 
L 495.905611 192.198055 
L 497.198247 194.126981 
L 498.471529 196.068736 
L 499.725331 198.023128 
L 500.959526 199.989959 
L 502.173992 201.969034 
L 503.368606 203.960154 
L 504.54325 205.96312 
L 505.697805 207.977733 
L 506.832157 210.00379 
L 507.946193 212.04109 
L 509.0398 214.089427 
L 510.112869 216.148598 
L 511.165293 218.218397 
L 512.196967 220.298616 
L 513.207787 222.389048 
L 514.197653 224.489483 
L 515.166465 226.599712 
L 516.114127 228.719524 
L 517.040544 230.848705 
L 517.945623 232.987044 
L 518.829274 235.134327 
L 519.691408 237.290339 
L 520.53194 239.454865 
L 521.350784 241.627687 
L 522.14786 243.808589 
L 522.923087 245.997353 
L 523.676388 248.193759 
L 524.407687 250.397588 
L 525.116913 252.60862 
L 525.803992 254.826634 
L 526.468858 257.051407 
L 527.111443 259.282718 
L 527.731683 261.520343 
L 528.329517 263.764058 
L 528.904883 266.01364 
L 529.457726 268.268862 
L 529.987988 270.5295 
L 530.495619 272.795328 
L 530.980566 275.066118 
L 531.442781 277.341644 
L 531.882219 279.621679 
L 532.298834 281.905994 
L 532.692586 284.194361 
L 533.063435 286.486551 
L 533.411344 288.782334 
L 533.736278 291.081482 
L 534.038204 293.383764 
L 534.317093 295.688951 
L 534.572917 297.99681 
L 534.80565 300.307113 
L 535.015268 302.619628 
L 535.201751 304.934123 
L 535.36508 307.250367 
L 535.505239 309.568128 
L 535.622214 311.887175 
L 535.715993 314.207276 
L 535.786566 316.528199 
L 535.833928 318.849712 
L 535.858072 321.171582 
L 535.858996 323.493577 
L 535.836701 325.815465 
L 535.791189 328.137015 
L 535.722463 330.457993 
L 535.630532 332.778168 
L 535.515404 335.097307 
L 535.377091 337.41518 
L 535.215606 339.731553 
L 535.030966 342.046196 
L 534.823189 344.358877 
L 534.592297 346.669364 
L 534.338311 348.977427 
L 534.061257 351.282834 
L 533.761164 353.585356 
L 533.438061 355.884762 
L 533.091981 358.180822 
L 532.722957 360.473307 
L 532.331028 362.761986 
L 531.916232 365.046632 
L 531.47861 367.327016 
L 531.018207 369.60291 
L 530.535068 371.874086 
L 530.029243 374.140317 
L 529.50078 376.401376 
L 528.949734 378.657038 
L 528.376159 380.907077 
L 527.780112 383.151268 
L 527.161654 385.389386 
L 526.520846 387.621207 
L 525.857752 389.84651 
L 525.172439 392.06507 
L 524.464975 394.276666 
L 523.73543 396.481077 
L 522.983879 398.678082 
L 522.210395 400.867462 
L 521.415056 403.048998 
L 520.597942 405.222472 
L 519.759135 407.387666 
L 518.898718 409.544364 
L 518.016777 411.69235 
L 517.113401 413.831409 
L 516.18868 415.961328 
L 515.242707 418.081893 
L 514.275575 420.192893 
L 513.287382 422.294116 
L 512.278226 424.385352 
L 511.248209 426.466392 
L 510.197434 428.537028 
L 509.126005 430.597053 
L 508.03403 432.646261 
L 506.921617 434.684447 
L 505.788879 436.711407 
L 504.635928 438.726938 
L 503.462879 440.73084 
L 502.269851 442.72291 
L 501.056962 444.702952 
L 499.824333 446.670765 
L 498.572089 448.626154 
L 497.300353 450.568923 
L 496.009253 452.498878 
L 494.698919 454.415825 
L 493.369482 456.319574 
L 492.021073 458.209933 
L 490.653829 460.086714 
L 489.267885 461.949728 
L 487.863381 463.798791 
L 486.440457 465.633716 
L 484.999255 467.45432 
L 483.53992 469.260422 
L 482.062597 471.05184 
L 480.567433 472.828395 
L 479.05458 474.589911 
L 477.524186 476.33621 
L 475.976407 478.067118 
L 474.411397 479.782462 
L 472.829311 481.48207 
L 471.230309 483.165773 
L 469.61455 484.833401 
L 467.982196 486.48479 
L 467.851498 486.615591 
L 469.509989 488.274081 
L 469.642006 488.141959 
L 471.290849 486.47389 
L 472.922929 484.789416 
L 474.538083 483.088707 
L 476.136149 481.371931 
L 477.716968 479.63926 
L 479.280381 477.890868 
L 480.826232 476.12693 
L 482.354368 474.347621 
L 483.864634 472.553121 
L 485.356879 470.743607 
L 486.830956 468.919262 
L 488.286715 467.080268 
L 489.724012 465.226808 
L 491.142703 463.359069 
L 492.542646 461.477236 
L 493.923701 459.581498 
L 495.28573 457.672044 
L 496.628596 455.749066 
L 497.952166 453.812755 
L 499.256307 451.863306 
L 500.540888 449.900913 
L 501.805782 447.925772 
L 503.050861 445.938082 
L 504.276002 443.93804 
L 505.481081 441.925848 
L 506.665978 439.901705 
L 507.830575 437.865815 
L 508.974755 435.81838 
L 510.098404 433.759607 
L 511.20141 431.6897 
L 512.283661 429.608866 
L 513.345051 427.517315 
L 514.385472 425.415254 
L 515.404821 423.302894 
L 516.402995 421.180447 
L 517.379896 419.048124 
L 518.335425 416.906139 
L 519.269487 414.754706 
L 520.181988 412.59404 
L 521.072837 410.424357 
L 521.941945 408.245875 
L 522.789225 406.05881 
L 523.614593 403.863382 
L 524.417965 401.65981 
L 525.199262 399.448315 
L 525.958405 397.229118 
L 526.695319 395.00244 
L 527.409929 392.768504 
L 528.102165 390.527535 
L 528.771956 388.279755 
L 529.419237 386.025389 
L 530.043942 383.764664 
L 530.646009 381.497805 
L 531.225378 379.225038 
L 531.78199 376.946592 
L 532.315791 374.662693 
L 532.826726 372.373571 
L 533.314745 370.079454 
L 533.779799 367.780571 
L 534.221841 365.477153 
L 534.640827 363.16943 
L 535.036715 360.857633 
L 535.409466 358.541992 
L 535.759042 356.222739 
L 536.085409 353.900107 
L 536.388533 351.574327 
L 536.668385 349.245633 
L 536.924937 346.914256 
L 537.158162 344.580431 
L 537.368037 342.24439 
L 537.554542 339.906367 
L 537.717658 337.566595 
L 537.857368 335.22531 
L 537.973659 332.882745 
L 538.066519 330.539134 
L 538.135939 328.194711 
L 538.181911 325.849712 
L 538.204431 323.50437 
L 538.203497 321.15892 
L 538.179109 318.813597 
L 538.13127 316.468635 
L 538.059983 314.124269 
L 537.965257 311.780732 
L 537.847101 309.43826 
L 537.705526 307.097087 
L 537.540547 304.757447 
L 537.35218 302.419573 
L 537.140445 300.0837 
L 536.905361 297.750061 
L 536.646953 295.418889 
L 536.365247 293.090418 
L 536.060271 290.764881 
L 535.732055 288.442509 
L 535.380632 286.123536 
L 535.006037 283.808192 
L 534.608308 281.496711 
L 534.187484 279.189322 
L 533.743608 276.886257 
L 533.276724 274.587745 
L 532.786878 272.294018 
L 532.27412 270.005303 
L 531.738501 267.72183 
L 531.180075 265.443828 
L 530.598896 263.171523 
L 529.995024 260.905144 
L 529.368519 258.644917 
L 528.719443 256.391068 
L 528.047862 254.143822 
L 527.353842 251.903404 
L 526.637453 249.670038 
L 525.898766 247.443948 
L 525.137856 245.225356 
L 524.354798 243.014484 
L 523.549671 240.811552 
L 522.722556 238.616782 
L 521.873534 236.430393 
L 521.002692 234.252603 
L 520.110115 232.08363 
L 519.195894 229.923692 
L 518.260119 227.773003 
L 517.302885 225.63178 
L 516.324286 223.500236 
L 515.324422 221.378584 
L 514.303391 219.267036 
L 513.261296 217.165805 
L 512.198242 215.075099 
L 511.114333 212.995128 
L 510.00968 210.9261 
L 508.884392 208.868222 
L 507.738582 206.8217 
L 506.572364 204.786737 
L 505.385855 202.763539 
L 504.179174 200.752306 
L 502.952441 198.753241 
L 501.705779 196.766543 
L 500.439313 194.79241 
L 499.153169 192.831041 
L 497.847477 190.882631 
L 496.522365 188.947375 
L 495.177968 187.025467 
L 493.814419 185.117098 
L 492.431855 183.22246 
L 491.030414 181.341743 
L 489.610236 179.475133 
L 488.171464 177.622819 
L 486.71424 175.784984 
L 485.238712 173.961814 
L 483.745025 172.153489 
L 482.233331 170.360192 
L 480.703779 168.582101 
L 479.156524 166.819394 
L 477.591718 165.072248 
L 476.00952 163.340837 
L 474.410088 161.625334 
L 472.79358 159.925911 
L 471.160159 158.242737 
L 469.509989 156.575982 
L 467.851498 158.234473 
z
" clip-path="url(#pb594952988)" style="fill: none; stroke: #000000; stroke-width: 0.5; stroke-linejoin: miter"/>
   </g>
   <g id="patch_13">
    <path d="M 467.851498 486.615591 
L 466.201411 488.24926 
L 464.535069 489.866346 
L 462.85264 491.466689 
L 461.154292 493.050127 
L 459.440195 494.616503 
L 457.71052 496.16566 
L 455.965441 497.697444 
L 454.20513 499.2117 
L 452.429766 500.708277 
L 450.639525 502.187027 
L 448.834586 503.6478 
L 447.01513 505.090451 
L 445.181339 506.514836 
L 443.333395 507.920812 
L 441.471485 509.308238 
L 439.595793 510.676977 
L 437.706509 512.02689 
L 435.803819 513.357844 
L 433.887916 514.669704 
L 431.95899 515.96234 
L 430.017234 517.235622 
L 428.062843 518.489424 
L 426.096012 519.723619 
L 424.116937 520.938084 
L 422.125817 522.132698 
L 420.122851 523.307342 
L 418.108238 524.461898 
L 416.082181 525.59625 
L 414.044881 526.710285 
L 411.996544 527.803892 
L 409.937372 528.876961 
L 407.867574 529.929385 
L 405.787355 530.961059 
L 403.696923 531.97188 
L 401.596487 532.961746 
L 399.486259 533.930558 
L 397.366447 534.87822 
L 395.237266 535.804637 
L 393.098926 536.709716 
L 390.951643 537.593367 
L 388.795631 538.455501 
L 386.631106 539.296032 
L 384.458284 540.114877 
L 382.277382 540.911952 
L 380.088618 541.687179 
L 377.892212 542.44048 
L 375.688383 543.17178 
L 373.47735 543.881005 
L 371.259337 544.568085 
L 369.034563 545.232951 
L 366.803253 545.875536 
L 364.565628 546.495776 
L 362.321913 547.093609 
L 360.072331 547.668976 
L 357.817109 548.221818 
L 355.556471 548.752081 
L 353.290643 549.259711 
L 351.019853 549.744659 
L 348.744326 550.206874 
L 346.464292 550.646311 
L 344.179977 551.062927 
L 341.89161 551.456679 
L 339.59942 551.827527 
L 337.303637 552.175436 
L 335.004489 552.50037 
L 332.702207 552.802297 
L 330.39702 553.081186 
L 328.08916 553.337009 
L 325.778858 553.569742 
L 323.466343 553.77936 
L 321.151848 553.965844 
L 318.835604 554.129173 
L 316.517843 554.269332 
L 314.198796 554.386307 
L 311.878695 554.480085 
L 309.557772 554.550659 
L 307.236259 554.59802 
L 304.914389 554.622164 
L 303.660939 554.625547 
L 303.660939 556.971007 
L 304.927051 556.96759 
L 307.272374 556.943202 
L 309.617336 556.895362 
L 311.961702 556.824076 
L 314.305238 556.72935 
L 316.64771 556.611193 
L 318.988884 556.469619 
L 321.328524 556.30464 
L 323.666398 556.116273 
L 326.002271 555.904537 
L 328.33591 555.669454 
L 330.667082 555.411046 
L 332.995553 555.12934 
L 335.32109 554.824363 
L 337.643462 554.496147 
L 339.962435 554.144724 
L 342.277779 553.77013 
L 344.58926 553.3724 
L 346.896649 552.951577 
L 349.199714 552.507701 
L 351.498226 552.040816 
L 353.791953 551.550971 
L 356.080668 551.038213 
L 358.364141 550.502594 
L 360.642143 549.944167 
L 362.914448 549.362989 
L 365.180827 548.759117 
L 367.441054 548.132611 
L 369.694903 547.483536 
L 371.942149 546.811954 
L 374.182567 546.117934 
L 376.415932 545.401545 
L 378.642023 544.662859 
L 380.860615 543.901948 
L 383.071487 543.118891 
L 385.274419 542.313764 
L 387.469189 541.486648 
L 389.655578 540.637627 
L 391.833368 539.766784 
L 394.00234 538.874208 
L 396.162279 537.959986 
L 398.312968 537.024212 
L 400.454191 536.066977 
L 402.585735 535.088379 
L 404.707387 534.088514 
L 406.818934 533.067484 
L 408.920166 532.025389 
L 411.010872 530.962334 
L 413.090843 529.878426 
L 415.15987 528.773773 
L 417.217749 527.648485 
L 419.264271 526.502674 
L 421.299233 525.336456 
L 423.322432 524.149948 
L 425.333665 522.943266 
L 427.33273 521.716534 
L 429.319428 520.469872 
L 431.293561 519.203406 
L 433.25493 517.917262 
L 435.20334 516.611569 
L 437.138596 515.286458 
L 439.060504 513.942061 
L 440.968873 512.578512 
L 442.863511 511.195948 
L 444.744228 509.794507 
L 446.610838 508.374329 
L 448.463152 506.935556 
L 450.300987 505.478333 
L 452.124157 504.002804 
L 453.932481 502.509118 
L 455.725779 500.997424 
L 457.50387 499.467872 
L 459.266577 497.920616 
L 461.013723 496.355811 
L 462.745134 494.773613 
L 464.460637 493.17418 
L 466.16006 491.557673 
L 467.843234 489.924252 
L 469.509989 488.274081 
L 467.851498 486.615591 
z
" clip-path="url(#pb594952988)" style="fill: none; stroke: #000000; stroke-width: 0.5; stroke-linejoin: miter"/>
   </g>
   <g id="patch_14">
    <path d="M 303.660939 554.625547 
L 301.338973 554.613937 
L 299.017238 554.579109 
L 296.695969 554.521065 
L 294.375395 554.439812 
L 292.05575 554.335357 
L 289.737266 554.207712 
L 287.420174 554.056888 
L 285.104706 553.882902 
L 282.791094 553.68577 
L 280.479568 553.465512 
L 278.170361 553.22215 
L 275.863703 552.955709 
L 273.559824 552.666215 
L 271.258956 552.353697 
L 268.961328 552.018186 
L 266.667169 551.659716 
L 264.37671 551.278323 
L 262.09018 550.874044 
L 259.807806 550.446921 
L 257.529818 549.996996 
L 255.256443 549.524314 
L 252.987908 549.028923 
L 250.724441 548.510871 
L 248.466267 547.97021 
L 246.213612 547.406996 
L 243.966702 546.821283 
L 241.725762 546.213131 
L 239.491015 545.5826 
L 237.262685 544.929754 
L 235.040995 544.254657 
L 232.826166 543.557378 
L 230.618422 542.837985 
L 228.417981 542.096552 
L 226.225064 541.333151 
L 224.039891 540.54786 
L 221.862681 539.740757 
L 219.693649 538.911922 
L 217.533015 538.061439 
L 215.380993 537.189392 
L 213.237799 536.295869 
L 211.103648 535.38096 
L 208.978752 534.444754 
L 206.863324 533.487348 
L 204.757576 532.508834 
L 202.661718 531.509313 
L 200.57596 530.488884 
L 198.50051 529.447648 
L 196.435577 528.38571 
L 194.381365 527.303176 
L 192.338082 526.200155 
L 190.305931 525.076756 
L 188.285115 523.933093 
L 186.275837 522.769278 
L 184.278297 521.58543 
L 182.292695 520.381665 
L 180.31923 519.158105 
L 178.358099 517.914872 
L 176.409498 516.65209 
L 174.473623 515.369886 
L 172.550666 514.068387 
L 170.64082 512.747724 
L 168.744275 511.408029 
L 166.861223 510.049436 
L 164.99185 508.67208 
L 163.136344 507.2761 
L 161.29489 505.861635 
L 159.467673 504.428827 
L 157.654875 502.977818 
L 155.856677 501.508754 
L 154.07326 500.021782 
L 152.304801 498.51705 
L 150.551478 496.99471 
L 148.813466 495.454912 
L 147.090938 493.897812 
L 145.384068 492.323564 
L 143.693024 490.732327 
L 142.017978 489.124259 
L 140.359095 487.499522 
L 138.716543 485.858277 
L 137.090485 484.200689 
L 135.481084 482.526923 
L 133.888501 480.837148 
L 132.312894 479.131531 
L 130.754423 477.410244 
L 129.213242 475.673459 
L 127.689505 473.921348 
L 126.183366 472.154088 
L 124.694974 470.371856 
L 123.224479 468.574829 
L 121.772027 466.763187 
L 120.337764 464.937111 
L 118.921833 463.096784 
L 117.524376 461.242391 
L 116.145532 459.374115 
L 114.78544 457.492145 
L 113.444235 455.596668 
L 112.122051 453.687874 
L 110.819022 451.765954 
L 109.535276 449.8311 
L 108.270943 447.883506 
L 107.026148 445.923365 
L 105.801017 443.950875 
L 104.595672 441.966233 
L 103.410233 439.969636 
L 102.244819 437.961286 
L 101.099546 435.941381 
L 99.97453 433.910125 
L 98.869882 431.867721 
L 97.785712 429.814372 
L 96.722131 427.750285 
L 95.679243 425.675665 
L 94.657152 423.59072 
L 93.655962 421.495659 
L 92.675773 419.390691 
L 91.716682 417.276026 
L 90.778785 415.151876 
L 89.862176 413.018454 
L 88.966946 410.875972 
L 88.093186 408.724646 
L 87.240983 406.564689 
L 86.410421 404.396319 
L 85.601584 402.219751 
L 84.814553 400.035204 
L 84.049407 397.842896 
L 83.306221 395.643047 
L 82.585071 393.435876 
L 81.886028 391.221603 
L 81.209162 389.000451 
L 80.554542 386.772642 
L 79.922232 384.538398 
L 79.312295 382.297942 
L 78.724793 380.0515 
L 78.159785 377.799294 
L 77.617327 375.541552 
L 77.097472 373.278497 
L 76.600274 371.010358 
L 76.125782 368.73736 
L 75.674043 366.459731 
L 75.245103 364.177698 
L 74.839004 361.89149 
L 74.455787 359.601335 
L 74.09549 357.307463 
L 73.75815 355.010103 
L 73.4438 352.709484 
L 73.152471 350.405837 
L 72.884193 348.099392 
L 72.638992 345.790379 
L 72.416894 343.47903 
L 72.217919 341.165575 
L 72.042089 338.850246 
L 71.88942 336.533275 
L 71.759929 334.214893 
L 71.653627 331.895332 
L 71.570526 329.574824 
L 71.510634 327.253601 
L 71.473956 324.931896 
L 71.460497 322.609939 
L 71.470258 320.287964 
L 71.503238 317.966203 
L 71.559433 315.644888 
L 71.638838 313.32425 
L 71.741446 311.004523 
L 71.867245 308.685938 
L 72.016223 306.368726 
L 72.188366 304.053121 
L 72.383655 301.739352 
L 72.602072 299.427652 
L 72.843595 297.118252 
L 73.108199 294.811382 
L 73.395859 292.507274 
L 73.706545 290.206157 
L 74.040226 287.908262 
L 74.396868 285.613819 
L 74.776438 283.323058 
L 75.178895 281.036206 
L 75.6042 278.753493 
L 76.052311 276.475147 
L 76.523183 274.201396 
L 77.016768 271.932468 
L 77.533017 269.668588 
L 78.071879 267.409984 
L 78.6333 265.156882 
L 79.217223 262.909507 
L 79.82359 260.668083 
L 80.452341 258.432834 
L 81.103413 256.203985 
L 81.77674 253.981758 
L 82.472256 251.766375 
L 83.18989 249.558058 
L 83.929571 247.357028 
L 84.691225 245.163504 
L 85.474776 242.977706 
L 86.280145 240.799853 
L 87.107252 238.630163 
L 87.956014 236.468852 
L 88.826347 234.316136 
L 89.718163 232.172232 
L 90.631373 230.037352 
L 91.565886 227.911711 
L 92.521608 225.795522 
L 93.498444 223.688995 
L 94.496296 221.592342 
L 95.515064 219.505772 
L 96.554647 217.429494 
L 97.61494 215.363715 
L 98.695837 213.308642 
L 99.797231 211.264481 
L 100.919011 209.231436 
L 102.061065 207.20971 
L 103.223279 205.199506 
L 104.405537 203.201024 
L 105.60772 201.214464 
L 106.829708 199.240026 
L 108.071379 197.277905 
L 109.332608 195.3283 
L 110.613271 193.391403 
L 111.913238 191.467411 
L 113.23238 189.556513 
L 114.570564 187.658903 
L 115.927657 185.774769 
L 117.303524 183.9043 
L 118.698026 182.047683 
L 120.111024 180.205103 
L 121.542377 178.376746 
L 122.991942 176.562793 
L 124.459573 174.763426 
L 125.945125 172.978825 
L 127.448447 171.209169 
L 128.969391 169.454634 
L 130.507804 167.715396 
L 132.063533 165.991629 
L 133.63642 164.283505 
L 135.22631 162.591195 
L 136.833044 160.914869 
L 138.45646 159.254693 
L 140.096396 157.610834 
L 141.752689 155.983457 
L 143.425172 154.372723 
L 145.113679 152.778795 
L 146.81804 151.201831 
L 148.538086 149.641989 
L 150.273644 148.099425 
L 152.02454 146.574294 
L 153.7906 145.066748 
L 155.571646 143.576937 
L 157.367502 142.105011 
L 159.177987 140.651117 
L 161.00292 139.215401 
L 162.842118 137.798005 
L 164.695399 136.399071 
L 166.562576 135.01874 
L 168.443462 133.65715 
L 170.33787 132.314436 
L 172.245611 130.990733 
L 174.166492 129.686173 
L 176.100324 128.400887 
L 178.046911 127.135003 
L 180.006059 125.888648 
L 181.977573 124.661947 
L 183.961255 123.455021 
L 185.956907 122.267993 
L 187.964329 121.10098 
L 189.983321 119.954099 
L 192.01368 118.827465 
L 194.055204 117.721191 
L 196.107689 116.635387 
L 198.170928 115.570162 
L 200.244717 114.525622 
L 202.328847 113.501872 
L 204.423111 112.499014 
L 206.527298 111.517149 
L 208.641198 110.556374 
L 210.7646 109.616786 
L 212.897292 108.698478 
L 215.03906 107.801543 
L 217.18969 106.92607 
L 219.348967 106.072147 
L 221.516676 105.239859 
L 223.692598 104.429289 
L 225.876518 103.640518 
L 228.068216 102.873626 
L 230.267473 102.128689 
L 232.474069 101.405781 
L 234.687784 100.704975 
L 236.908396 100.026341 
L 239.135684 99.369947 
L 241.369424 98.735858 
L 243.609393 98.124137 
L 245.855367 97.534847 
L 248.107122 96.968045 
L 250.364432 96.423789 
L 252.627071 95.902133 
L 254.894814 95.403129 
L 257.167433 94.926827 
L 258.360866 94.686184 
L 257.903289 92.385792 
L 256.697802 92.628865 
L 254.402227 93.109978 
L 252.111577 93.614023 
L 249.826083 94.140948 
L 247.545972 94.690702 
L 245.271472 95.263229 
L 243.002812 95.858472 
L 240.740217 96.476371 
L 238.483914 97.116865 
L 236.234128 97.77989 
L 233.991086 98.465379 
L 231.75501 99.173264 
L 229.526125 99.903474 
L 227.304653 100.655935 
L 225.090817 101.430574 
L 222.884837 102.227312 
L 220.686936 103.046069 
L 218.497331 103.886764 
L 216.316243 104.749313 
L 214.14389 105.633629 
L 211.980487 106.539624 
L 209.826253 107.467207 
L 207.681403 108.416286 
L 205.54615 109.386766 
L 203.420708 110.378549 
L 201.305291 111.391537 
L 199.200109 112.425628 
L 197.105373 113.480719 
L 195.021292 114.556704 
L 192.948075 115.653476 
L 190.88593 116.770924 
L 188.835062 117.908938 
L 186.795676 119.067404 
L 184.767977 120.246205 
L 182.752167 121.445223 
L 180.748448 122.66434 
L 178.75702 123.903432 
L 176.778082 125.162377 
L 174.811833 126.441047 
L 172.858468 127.739316 
L 170.918183 129.057053 
L 168.991173 130.394127 
L 167.077629 131.750403 
L 165.177744 133.125747 
L 163.291706 134.520021 
L 161.419706 135.933085 
L 159.56193 137.364798 
L 157.718563 138.815017 
L 155.889791 140.283597 
L 154.075795 141.770391 
L 152.276758 143.27525 
L 150.492859 144.798024 
L 148.724277 146.338561 
L 146.971188 147.896706 
L 145.233769 149.472303 
L 143.512191 151.065196 
L 141.806629 152.675225 
L 140.117252 154.302229 
L 138.444229 155.946044 
L 136.787728 157.606508 
L 135.147914 159.283453 
L 133.52495 160.976712 
L 131.919001 162.686116 
L 130.330225 164.411494 
L 128.758783 166.152672 
L 127.20483 167.909478 
L 125.668523 169.681736 
L 124.150015 171.469267 
L 122.649458 173.271894 
L 121.167002 175.089437 
L 119.702796 176.921712 
L 118.256984 178.768538 
L 116.829714 180.62973 
L 115.421126 182.5051 
L 114.031362 184.394463 
L 112.66056 186.297629 
L 111.308859 188.214407 
L 109.976393 190.144606 
L 108.663294 192.088033 
L 107.369696 194.044494 
L 106.095726 196.013793 
L 104.841513 197.995733 
L 103.607182 199.990115 
L 102.392856 201.996741 
L 101.198656 204.01541 
L 100.024703 206.045919 
L 98.871113 208.088067 
L 97.738002 210.141648 
L 96.625483 212.206457 
L 95.533667 214.282288 
L 94.462664 216.368933 
L 93.41258 218.466183 
L 92.383521 220.57383 
L 91.37559 222.691661 
L 90.388887 224.819466 
L 89.423511 226.957031 
L 88.479559 229.104143 
L 87.557125 231.260587 
L 86.656301 233.426147 
L 85.777177 235.600608 
L 84.919841 237.78375 
L 84.084379 239.975357 
L 83.270875 242.175208 
L 82.47941 244.383084 
L 81.710062 246.598765 
L 80.96291 248.822028 
L 80.238027 251.052651 
L 79.535486 253.290412 
L 78.855357 255.535086 
L 78.197709 257.786448 
L 77.562607 260.044275 
L 76.950115 262.30834 
L 76.360293 264.578416 
L 75.793202 266.854277 
L 75.248897 269.135695 
L 74.727433 271.422442 
L 74.228862 273.714289 
L 73.753234 276.011007 
L 73.300597 278.312366 
L 72.870996 280.618137 
L 72.464473 282.928088 
L 72.08107 285.241989 
L 71.720824 287.559608 
L 71.383773 289.880714 
L 71.069949 292.205074 
L 70.779384 294.532456 
L 70.512107 296.862628 
L 70.268144 299.195355 
L 70.047521 301.530406 
L 69.850259 303.867546 
L 69.676377 306.206541 
L 69.525894 308.547159 
L 69.398825 310.889164 
L 69.295181 313.232323 
L 69.214973 315.576401 
L 69.158211 317.921164 
L 69.124898 320.266378 
L 69.115038 322.611807 
L 69.128633 324.957218 
L 69.165681 327.302375 
L 69.226178 329.647045 
L 69.310119 331.990992 
L 69.417494 334.333983 
L 69.548294 336.675783 
L 69.702505 339.016158 
L 69.880111 341.354874 
L 70.081095 343.691696 
L 70.305437 346.026393 
L 70.553114 348.358729 
L 70.824102 350.688471 
L 71.118374 353.015388 
L 71.435899 355.339245 
L 71.776647 357.659811 
L 72.140583 359.976854 
L 72.527671 362.290141 
L 72.937872 364.599442 
L 73.371145 366.904525 
L 73.827447 369.205161 
L 74.306732 371.501119 
L 74.808953 373.792169 
L 75.334058 376.078082 
L 75.881996 378.35863 
L 76.452711 380.633585 
L 77.046147 382.902719 
L 77.662245 385.165805 
L 78.300942 387.422618 
L 78.962175 389.67293 
L 79.645877 391.916518 
L 80.351981 394.153157 
L 81.080416 396.382623 
L 81.831109 398.604693 
L 82.603984 400.819145 
L 83.398965 403.025758 
L 84.215972 405.224312 
L 85.054923 407.414585 
L 85.915734 409.596359 
L 86.79832 411.769416 
L 87.702592 413.933539 
L 88.62846 416.088511 
L 89.575831 418.234117 
L 90.54461 420.370142 
L 91.5347 422.496373 
L 92.546003 424.612596 
L 93.578417 426.718601 
L 94.63184 428.814176 
L 95.706165 430.899113 
L 96.801285 432.973203 
L 97.917091 435.036237 
L 99.053472 437.088011 
L 100.210313 439.128318 
L 101.387499 441.156956 
L 102.584912 443.17372 
L 103.802432 445.178409 
L 105.039938 447.170823 
L 106.297306 449.150763 
L 107.574411 451.11803 
L 108.871123 453.072428 
L 110.187315 455.013762 
L 111.522854 456.941836 
L 112.877606 458.856459 
L 114.251437 460.757439 
L 115.644208 462.644586 
L 117.055781 464.517711 
L 118.486014 466.376627 
L 119.934765 468.221148 
L 121.401888 470.051089 
L 122.887237 471.866268 
L 124.390663 473.666503 
L 125.912016 475.451614 
L 127.451144 477.221422 
L 129.007892 478.975751 
L 130.582106 480.714425 
L 132.173627 482.43727 
L 133.782297 484.144114 
L 135.407955 485.834786 
L 137.050438 487.509118 
L 138.709582 489.166941 
L 140.385221 490.80809 
L 142.077187 492.432401 
L 143.785311 494.039711 
L 145.509423 495.62986 
L 147.24935 497.202689 
L 149.004918 498.75804 
L 150.775952 500.295758 
L 152.562273 501.815689 
L 154.363705 503.317681 
L 156.180066 504.801583 
L 158.011175 506.267249 
L 159.856849 507.71453 
L 161.716903 509.143283 
L 163.591152 510.553364 
L 165.479407 511.944632 
L 167.381481 513.316948 
L 169.297182 514.670176 
L 171.22632 516.004179 
L 173.1687 517.318824 
L 175.12413 518.61398 
L 177.092414 519.889517 
L 179.073354 521.145308 
L 181.066753 522.381227 
L 183.072412 523.597151 
L 185.090129 524.792958 
L 187.119703 525.968528 
L 189.160931 527.123744 
L 191.213609 528.25849 
L 193.277531 529.372653 
L 195.352492 530.466121 
L 197.438284 531.538786 
L 199.534697 532.590539 
L 201.641524 533.621276 
L 203.758552 534.630893 
L 205.88557 535.61929 
L 208.022366 536.586368 
L 210.168726 537.53203 
L 212.324434 538.456181 
L 214.489277 539.358729 
L 216.663036 540.239584 
L 218.845495 541.098658 
L 221.036436 541.935865 
L 223.235638 542.751121 
L 225.442884 543.544344 
L 227.657951 544.315456 
L 229.880618 545.064379 
L 232.110664 545.791038 
L 234.347864 546.49536 
L 236.591996 547.177276 
L 238.842834 547.836717 
L 241.100154 548.473617 
L 243.36373 549.087912 
L 245.633336 549.679541 
L 247.908745 550.248444 
L 250.189729 550.794566 
L 252.476059 551.317851 
L 254.767509 551.818247 
L 257.063847 552.295703 
L 259.364845 552.750173 
L 261.670273 553.18161 
L 263.9799 553.589972 
L 266.293495 553.975218 
L 268.610827 554.337309 
L 270.931663 554.676208 
L 273.255773 554.991883 
L 275.582923 555.284302 
L 277.912881 555.553434 
L 280.245413 555.799254 
L 282.580287 556.021737 
L 284.917269 556.22086 
L 287.256126 556.396604 
L 289.596623 556.548951 
L 291.938526 556.677886 
L 294.281602 556.783395 
L 296.625615 556.865469 
L 298.970332 556.924099 
L 301.315519 556.95928 
L 303.660939 556.971007 
L 303.660939 554.625547 
z
" clip-path="url(#pb594952988)" style="fill: none; stroke: #000000; stroke-width: 0.5; stroke-linejoin: miter"/>
   </g>
   <g id="patch_15">
    <path d="M 258.360866 94.686184 
L 260.640481 94.244578 
L 262.924399 93.825789 
L 265.21239 93.42986 
L 267.504226 93.056831 
L 269.799678 92.706738 
L 272.098515 92.379617 
L 274.400509 92.0755 
L 276.705429 91.794418 
L 279.013045 91.536399 
L 281.323125 91.301468 
L 283.635439 91.08965 
L 285.949755 90.900965 
L 288.265843 90.735432 
L 290.58347 90.593068 
L 292.902405 90.473887 
L 295.222416 90.377901 
L 297.54327 90.30512 
L 299.864736 90.25555 
L 302.186582 90.229197 
L 303.660939 90.224516 
L 303.660939 87.879056 
L 302.17169 87.883784 
L 299.826391 87.910404 
L 297.481476 87.960474 
L 295.137178 88.033991 
L 292.793733 88.130946 
L 290.451374 88.251331 
L 288.110337 88.395133 
L 285.770854 88.562338 
L 283.433161 88.752929 
L 281.09749 88.966887 
L 278.764076 89.204191 
L 276.433151 89.464816 
L 274.104949 89.748737 
L 271.779703 90.055926 
L 269.457645 90.386351 
L 267.139007 90.73998 
L 264.824021 91.116778 
L 262.512919 91.516706 
L 260.205931 91.939725 
L 257.903289 92.385792 
L 258.360866 94.686184 
z
" clip-path="url(#pb594952988)" style="fill: none; stroke: #000000; stroke-width: 0.5; stroke-linejoin: miter"/>
   </g>
   <g id="text_1">
    <text style="font: 3px 'DejaVu Sans', 'Bitstream Vera Sans', 'Computer Modern Sans Serif', 'Lucida Grande', 'Verdana', 'Geneva', 'Lucid', 'Arial', 'Helvetica', 'Avant Garde', sans-serif; text-anchor: start" x="350.994031" y="90.307756" transform="rotate(-78.75 350.994031 90.307756)">University of Lay Adventists of Kigali</text>
   </g>
   <g id="text_2">
    <text style="font: 3px 'DejaVu Sans', 'Bitstream Vera Sans', 'Computer Modern Sans Serif', 'Lucida Grande', 'Verdana', 'Geneva', 'Lucid', 'Arial', 'Helvetica', 'Avant Garde', sans-serif; text-anchor: start" x="416.335972" y="114.04272" transform="rotate(-61.875 416.335972 114.04272)">African Institute for Mathematical Sciences</text>
   </g>
   <g id="text_3">
    <text style="font: 3px 'DejaVu Sans', 'Bitstream Vera Sans', 'Computer Modern Sans Serif', 'Lucida Grande', 'Verdana', 'Geneva', 'Lucid', 'Arial', 'Helvetica', 'Avant Garde', sans-serif; text-anchor: start" x="454.824325" y="140.028536" transform="rotate(-50.625 454.824325 140.028536)">University of Kigali</text>
   </g>
   <g id="text_4">
    <text style="font: 3px 'DejaVu Sans', 'Bitstream Vera Sans', 'Computer Modern Sans Serif', 'Lucida Grande', 'Verdana', 'Geneva', 'Lucid', 'Arial', 'Helvetica', 'Avant Garde', sans-serif; text-anchor: start" x="540.552374" y="323.564797" transform="rotate(-0 540.552374 323.564797)">University of Global Health Equity</text>
   </g>
   <g id="text_5">
    <text style="font: 3px 'DejaVu Sans', 'Bitstream Vera Sans', 'Computer Modern Sans Serif', 'Lucida Grande', 'Verdana', 'Geneva', 'Lucid', 'Arial', 'Helvetica', 'Avant Garde', sans-serif; text-anchor: start" x="393.262361" y="541.72035" transform="rotate(-292.5 393.262361 541.72035)">Kigali Independent University</text>
   </g>
   <g id="text_6">
    <text style="font: 3px 'DejaVu Sans', 'Bitstream Vera Sans', 'Computer Modern Sans Serif', 'Lucida Grande', 'Verdana', 'Geneva', 'Lucid', 'Arial', 'Helvetica', 'Avant Garde', sans-serif; text-anchor: end" x="68.021918" y="346.77873" transform="rotate(-5.625 68.021918 346.77873)">University of Rwanda</text>
   </g>
   <g id="text_7">
    <text style="font: 3px 'DejaVu Sans', 'Bitstream Vera Sans', 'Computer Modern Sans Serif', 'Lucida Grande', 'Verdana', 'Geneva', 'Lucid', 'Arial', 'Helvetica', 'Avant Garde', sans-serif; text-anchor: end" x="279.307241" y="86.78601" transform="rotate(-275.625 279.307241 86.78601)">Ministry of Health</text>
   </g>
  </g>
 </g>
 <defs>
  <clipPath id="pb594952988">
   <path d="M 549.934213 322.425032 
C 549.934213 290.084722 543.563877 258.05888 531.187777 228.18033 
C 518.811676 198.301779 500.670494 171.151582 477.802441 148.28353 
C 454.934389 125.415477 427.784192 107.274295 397.905641 94.898194 
C 368.02709 82.522094 336.001249 76.151758 303.660939 76.151758 
C 271.320629 76.151758 239.294788 82.522094 209.416237 94.898194 
C 179.537687 107.274295 152.38749 125.415477 129.519437 148.28353 
C 106.651384 171.151582 88.510203 198.301779 76.134102 228.18033 
C 63.758001 258.05888 57.387665 290.084722 57.387665 322.425032 
C 57.387665 354.765342 63.758001 386.791183 76.134102 416.669734 
C 88.510203 446.548284 106.651384 473.698481 129.519437 496.566534 
C 152.38749 519.434586 179.537687 537.575768 209.416237 549.951869 
C 239.294788 562.32797 271.320629 568.698306 303.660939 568.698306 
C 336.001249 568.698306 368.02709 562.32797 397.905641 549.951869 
C 427.784192 537.575768 454.934389 519.434586 477.802441 496.566534 
C 500.670494 473.698481 518.811676 446.548284 531.187777 416.669734 
C 543.563877 386.791183 549.934213 354.765342 549.934213 322.425032 
M 303.660939 322.425032 
C 303.660939 322.425032 303.660939 322.425032 303.660939 322.425032 
C 303.660939 322.425032 303.660939 322.425032 303.660939 322.425032 
C 303.660939 322.425032 303.660939 322.425032 303.660939 322.425032 
C 303.660939 322.425032 303.660939 322.425032 303.660939 322.425032 
C 303.660939 322.425032 303.660939 322.425032 303.660939 322.425032 
C 303.660939 322.425032 303.660939 322.425032 303.660939 322.425032 
C 303.660939 322.425032 303.660939 322.425032 303.660939 322.425032 
C 303.660939 322.425032 303.660939 322.425032 303.660939 322.425032 
C 303.660939 322.425032 303.660939 322.425032 303.660939 322.425032 
C 303.660939 322.425032 303.660939 322.425032 303.660939 322.425032 
C 303.660939 322.425032 303.660939 322.425032 303.660939 322.425032 
C 303.660939 322.425032 303.660939 322.425032 303.660939 322.425032 
C 303.660939 322.425032 303.660939 322.425032 303.660939 322.425032 
C 303.660939 322.425032 303.660939 322.425032 303.660939 322.425032 
C 303.660939 322.425032 303.660939 322.425032 303.660939 322.425032 
C 303.660939 322.425032 303.660939 322.425032 303.660939 322.425032 
z
"/>
  </clipPath>
 </defs>
</svg>
