<?xml version="1.0" encoding="utf-8" standalone="no"?>
<!DOCTYPE svg PUBLIC "-//W3C//DTD SVG 1.1//EN"
  "http://www.w3.org/Graphics/SVG/1.1/DTD/svg11.dtd">
<svg xmlns:xlink="http://www.w3.org/1999/xlink" width="624.326646pt" height="568.396498pt" viewBox="0 0 624.326646 568.396498" xmlns="http://www.w3.org/2000/svg" version="1.1">
 <metadata>
  <rdf:RDF xmlns:dc="http://purl.org/dc/elements/1.1/" xmlns:cc="http://creativecommons.org/ns#" xmlns:rdf="http://www.w3.org/1999/02/22-rdf-syntax-ns#">
   <cc:Work>
    <dc:type rdf:resource="http://purl.org/dc/dcmitype/StillImage"/>
    <dc:date>2024-11-16T03:58:22.227237</dc:date>
    <dc:format>image/svg+xml</dc:format>
    <dc:creator>
     <cc:Agent>
      <dc:title>Matplotlib v3.8.4, https://matplotlib.org/</dc:title>
     </cc:Agent>
    </dc:creator>
   </cc:Work>
  </rdf:RDF>
 </metadata>
 <defs>
  <style type="text/css">*{stroke-linejoin: round; stroke-linecap: butt}</style>
 </defs>
 <g id="figure_1">
  <g id="patch_1">
   <path d="M 0 568.396498 
L 624.326646 568.396498 
L 624.326646 0 
L 0 0 
z
" style="fill: #ffffff"/>
  </g>
  <g id="axes_1">
   <g id="patch_2">
    <path d="M 320.467101 50.145251 
L 322.801029 50.156921 
L 325.134723 50.191929 
L 327.46795 50.250272 
L 329.800478 50.331944 
L 332.132072 50.436936 
L 334.462499 50.565239 
L 336.791527 50.71684 
L 339.118923 50.891722 
L 341.444453 51.08987 
L 343.767886 51.311263 
L 346.088988 51.555878 
L 348.407529 51.823692 
L 350.723275 52.114677 
L 353.035996 52.428805 
L 355.34546 52.766044 
L 357.651436 53.126361 
L 359.953694 53.509719 
L 362.252003 53.916079 
L 364.546134 54.345403 
L 366.835857 54.797645 
L 369.120943 55.272762 
L 371.401164 55.770706 
L 373.676291 56.291427 
L 375.946097 56.834872 
L 378.210356 57.400988 
L 380.46884 57.989718 
L 382.721324 58.601003 
L 384.967583 59.234782 
L 387.207392 59.890991 
L 389.440527 60.569565 
L 391.666764 61.270436 
L 393.885882 61.993535 
L 396.097658 62.738788 
L 398.301871 63.506121 
L 400.4983 64.295457 
L 402.686726 65.106718 
L 404.866931 65.939822 
L 407.038695 66.794686 
L 409.201803 67.671225 
L 411.356037 68.569351 
L 413.501182 69.488974 
L 415.637024 70.430002 
L 417.763349 71.39234 
L 419.879945 72.375894 
L 421.986599 73.380564 
L 424.083101 74.40625 
L 426.169242 75.45285 
L 428.244813 76.520258 
L 430.309606 77.608368 
L 432.363415 78.717071 
L 434.406034 79.846257 
L 436.43726 80.995812 
L 438.456889 82.165621 
L 440.464718 83.355568 
L 442.460549 84.565534 
L 444.444179 85.795397 
L 446.415413 87.045034 
L 448.374051 88.314321 
L 450.319899 89.60313 
L 452.252762 90.911334 
L 454.172446 92.2388 
L 456.07876 93.585396 
L 457.971513 94.950988 
L 459.850516 96.335438 
L 461.71558 97.738609 
L 463.56652 99.160361 
L 465.403149 100.60055 
L 467.225286 102.059033 
L 469.032746 103.535665 
L 470.82535 105.030297 
L 472.602919 106.54278 
L 474.365274 108.072962 
L 476.112239 109.620692 
L 477.84364 111.185813 
L 479.559303 112.76817 
L 481.259058 114.367604 
L 482.942733 115.983956 
L 484.610161 117.617063 
L 486.261174 119.266762 
L 487.895609 120.932889 
L 489.5133 122.615277 
L 491.114087 124.313757 
L 492.69781 126.028159 
L 494.26431 127.758313 
L 495.81343 129.504046 
L 497.345015 131.265182 
L 498.858913 133.041545 
L 500.354972 134.832958 
L 501.833043 136.639242 
L 503.292977 138.460217 
L 504.734628 140.295699 
L 506.157853 142.145506 
L 507.562509 144.009452 
L 508.948455 145.887352 
L 510.315554 147.779016 
L 511.663668 149.684257 
L 512.992662 151.602884 
L 514.302404 153.534704 
L 515.592763 155.479526 
L 516.863609 157.437153 
L 518.114816 159.40739 
L 519.346258 161.390041 
L 520.557812 163.384907 
L 521.749357 165.391789 
L 522.920775 167.410485 
L 524.071947 169.440795 
L 525.202759 171.482514 
L 526.313097 173.53544 
L 527.402851 175.599365 
L 528.471912 177.674086 
L 529.520172 179.759392 
L 530.547528 181.855077 
L 531.553875 183.960931 
L 532.539114 186.076742 
L 533.503146 188.2023 
L 534.445874 190.337392 
L 535.367205 192.481805 
L 536.267046 194.635323 
L 537.145307 196.797732 
L 538.0019 198.968815 
L 538.83674 201.148355 
L 539.649744 203.336135 
L 540.440829 205.531935 
L 541.209917 207.735536 
L 541.956931 209.946718 
L 542.681796 212.165259 
L 543.38444 214.390937 
L 544.064792 216.623531 
L 544.722785 218.862817 
L 545.358352 221.10857 
L 545.971431 223.360567 
L 546.561959 225.618581 
L 547.129878 227.882388 
L 547.675131 230.151761 
L 548.197663 232.426473 
L 548.697422 234.706297 
L 549.174359 236.991004 
L 549.628425 239.280366 
L 550.059575 241.574154 
L 550.467765 243.872139 
L 550.852957 246.17409 
L 551.215109 248.479779 
L 551.554187 250.788974 
L 551.870157 253.101444 
L 552.162986 255.416958 
L 552.432646 257.735284 
L 552.67911 260.056191 
L 552.902353 262.379447 
L 553.102352 264.704819 
L 553.279088 267.032074 
L 553.432543 269.360981 
L 553.562702 271.691306 
L 553.669551 274.022815 
L 553.75308 276.355277 
L 553.813281 278.688457 
L 553.850147 281.022123 
L 553.863676 283.35604 
L 553.853865 285.689976 
L 553.820715 288.023698 
L 553.76423 290.356971 
L 553.684416 292.689562 
L 553.58128 295.021239 
L 553.454833 297.351768 
L 553.305087 299.680916 
L 553.132058 302.00845 
L 552.935762 304.334138 
L 552.71622 306.657746 
L 552.473453 308.979043 
L 552.207486 311.297796 
L 551.918344 313.613773 
L 551.606058 315.926744 
L 551.270658 318.236475 
L 550.912178 320.542738 
L 550.530654 322.8453 
L 550.126123 325.143932 
L 549.698627 327.438404 
L 549.248208 329.728486 
L 548.774911 332.01395 
L 548.278783 334.294566 
L 547.759874 336.570108 
L 547.218237 338.840346 
L 546.653924 341.105055 
L 546.066993 343.364007 
L 545.457502 345.616977 
L 544.825512 347.86374 
L 544.171086 350.104071 
L 543.494291 352.337745 
L 542.795192 354.56454 
L 542.073862 356.784233 
L 541.33037 358.996602 
L 540.564793 361.201425 
L 539.777206 363.398482 
L 538.967688 365.587554 
L 538.13632 367.768421 
L 537.283185 369.940866 
L 536.408369 372.10467 
L 535.511959 374.259619 
L 534.594045 376.405496 
L 533.654718 378.542087 
L 532.694073 380.669177 
L 531.712205 382.786555 
L 530.709213 384.894009 
L 529.685197 386.991327 
L 528.640259 389.078301 
L 527.574504 391.154721 
L 526.488038 393.22038 
L 525.380971 395.275071 
L 524.253412 397.318589 
L 523.105475 399.35073 
L 521.937274 401.371289 
L 520.748927 403.380066 
L 519.540551 405.376859 
L 518.312268 407.361468 
L 517.064201 409.333696 
L 515.796474 411.293345 
L 514.509215 413.240219 
L 513.202551 415.174123 
L 511.876614 417.094863 
L 510.531536 419.002249 
L 509.167452 420.896089 
L 507.784498 422.776193 
L 506.382813 424.642374 
L 504.962536 426.494445 
L 503.523809 428.332221 
L 502.066778 430.155519 
L 500.591586 431.964154 
L 499.098382 433.757948 
L 497.587315 435.53672 
L 496.058536 437.300293 
L 494.512198 439.048491 
L 492.948456 440.781137 
L 491.367466 442.49806 
L 489.769386 444.199088 
L 488.154376 445.88405 
L 486.522597 447.552777 
L 484.874213 449.205104 
L 483.209388 450.840865 
L 481.52829 452.459896 
L 479.831085 454.062035 
L 478.117944 455.647122 
L 476.389038 457.214999 
L 474.64454 458.765509 
L 472.884624 460.298496 
L 471.109467 461.813809 
L 469.319245 463.311294 
L 467.514139 464.790802 
L 465.694328 466.252185 
L 463.859994 467.695298 
L 462.011321 469.119995 
L 460.148494 470.526135 
L 458.271699 471.913577 
L 456.381123 473.282181 
L 454.476956 474.631812 
L 452.559388 475.962334 
L 450.628612 477.273614 
L 448.684819 478.56552 
L 446.728204 479.837925 
L 444.758964 481.0907 
L 442.777294 482.323721 
L 440.783394 483.536864 
L 438.777462 484.730007 
L 436.759699 485.903031 
L 434.730306 487.05582 
L 432.689488 488.188257 
L 430.637447 489.30023 
L 428.57439 490.391628 
L 426.500522 491.46234 
L 424.41605 492.512261 
L 422.321184 493.541284 
L 420.216133 494.549308 
L 418.101106 495.536232 
L 415.976317 496.501956 
L 413.841976 497.446384 
L 411.698298 498.369422 
L 409.545497 499.270978 
L 407.383789 500.15096 
L 405.213388 501.009283 
L 403.034514 501.845858 
L 400.847382 502.660603 
L 398.652213 503.453437 
L 396.449225 504.224279 
L 394.238639 504.973054 
L 392.020675 505.699686 
L 389.795557 506.404102 
L 387.563506 507.086232 
L 385.324745 507.746007 
L 383.079498 508.383363 
L 380.82799 508.998234 
L 378.570447 509.590561 
L 376.307093 510.160282 
L 374.038155 510.707342 
L 371.76386 511.231685 
L 369.484435 511.73326 
L 367.200108 512.212016 
L 364.911109 512.667904 
L 362.617665 513.100881 
L 360.320006 513.510902 
L 358.018361 513.897926 
L 355.712962 514.261914 
L 353.404038 514.602831 
L 351.09182 514.920642 
L 348.77654 515.215315 
L 346.458429 515.486821 
L 344.137719 515.735133 
L 341.814642 515.960226 
L 339.48943 516.162077 
L 337.162316 516.340666 
L 334.833532 516.495976 
L 332.503312 516.62799 
L 330.171888 516.736696 
L 327.839494 516.822082 
L 325.506362 516.884141 
L 323.172727 516.922866 
L 320.838821 516.938253 
L 320.467101 516.938549 
L 320.467101 519.296091 
L 320.842576 519.295792 
L 323.200056 519.28025 
L 325.557264 519.241134 
L 327.913963 519.178448 
L 330.269916 519.092199 
L 332.62489 518.982395 
L 334.978648 518.849047 
L 337.330954 518.692169 
L 339.681575 518.511776 
L 342.030274 518.307886 
L 344.376816 518.080519 
L 346.720968 517.829699 
L 349.062494 517.555451 
L 351.401161 517.257801 
L 353.736734 516.93678 
L 356.068981 516.592419 
L 358.397667 516.224754 
L 360.72256 515.833821 
L 363.043428 515.419658 
L 365.360038 514.982308 
L 367.672159 514.521815 
L 369.979559 514.038223 
L 372.282009 513.531582 
L 374.579276 513.001942 
L 376.871133 512.449357 
L 379.157349 511.87388 
L 381.437696 511.275571 
L 383.711947 510.654489 
L 385.979873 510.010695 
L 388.241247 509.344255 
L 390.495844 508.655235 
L 392.743439 507.943704 
L 394.983806 507.209732 
L 397.216721 506.453394 
L 399.441961 505.674765 
L 401.659304 504.873923 
L 403.868528 504.050948 
L 406.069412 503.205923 
L 408.261735 502.338931 
L 410.445279 501.450059 
L 412.619826 500.539397 
L 414.785157 499.607036 
L 416.941056 498.653068 
L 419.087309 497.677589 
L 421.223699 496.680696 
L 423.350013 495.66249 
L 425.46604 494.623072 
L 427.571566 493.562546 
L 429.666383 492.481019 
L 431.750279 491.378597 
L 433.823047 490.255392 
L 435.88448 489.111516 
L 437.934371 487.947083 
L 439.972516 486.76221 
L 441.99871 485.557015 
L 444.012751 484.331618 
L 446.014437 483.086143 
L 448.003569 481.820713 
L 449.979947 480.535456 
L 451.943374 479.2305 
L 453.893654 477.905974 
L 455.830591 476.562013 
L 457.753992 475.19875 
L 459.663664 473.816321 
L 461.559417 472.414865 
L 463.441061 470.994522 
L 465.308407 469.555433 
L 467.161269 468.097744 
L 468.999462 466.621599 
L 470.822802 465.127146 
L 472.631107 463.614535 
L 474.424195 462.083917 
L 476.201887 460.535444 
L 477.964007 458.969273 
L 479.710376 457.385559 
L 481.440822 455.78446 
L 483.15517 454.166138 
L 484.85325 452.530753 
L 486.534891 450.87847 
L 488.199925 449.209453 
L 489.848187 447.523869 
L 491.47951 445.821888 
L 493.093732 444.103678 
L 494.690692 442.369412 
L 496.27023 440.619264 
L 497.832187 438.853409 
L 499.376408 437.072022 
L 500.902738 435.275282 
L 502.411025 433.463369 
L 503.901118 431.636464 
L 505.372867 429.79475 
L 506.826126 427.93841 
L 508.260749 426.067632 
L 509.676593 424.1826 
L 511.073516 422.283505 
L 512.451379 420.370535 
L 513.810043 418.443883 
L 515.149374 416.503741 
L 516.469236 414.550303 
L 517.769498 412.583764 
L 519.05003 410.60432 
L 520.310704 408.612171 
L 521.551394 406.607515 
L 522.771975 404.590552 
L 523.972327 402.561485 
L 525.152327 400.520516 
L 526.31186 398.467849 
L 527.450808 396.403689 
L 528.569058 394.328243 
L 529.666498 392.241719 
L 530.743018 390.144325 
L 531.798511 388.036271 
L 532.832871 385.917768 
L 533.845994 383.789026 
L 534.83778 381.650261 
L 535.808129 379.501684 
L 536.756944 377.343512 
L 537.68413 375.17596 
L 538.589594 372.999244 
L 539.473247 370.813582 
L 540.334999 368.619194 
L 541.174764 366.416298 
L 541.992459 364.205114 
L 542.788002 361.985864 
L 543.561312 359.75877 
L 544.312314 357.524055 
L 545.040931 355.281941 
L 545.747091 353.032653 
L 546.430723 350.776416 
L 547.091758 348.513456 
L 547.730132 346.243998 
L 548.345779 343.968271 
L 548.938639 341.686501 
L 549.508652 339.398916 
L 550.055761 337.105746 
L 550.579911 334.80722 
L 551.08105 332.503567 
L 551.559128 330.195017 
L 552.014097 327.881803 
L 552.445911 325.564155 
L 552.854528 323.242304 
L 553.239906 320.916484 
L 553.602007 318.586926 
L 553.940795 316.253863 
L 554.256236 313.91753 
L 554.548298 311.578158 
L 554.816952 309.235984 
L 555.062171 306.89124 
L 555.283931 304.544161 
L 555.482209 302.194981 
L 555.656986 299.843937 
L 555.808244 297.491262 
L 555.935969 295.137192 
L 556.040146 292.781963 
L 556.120767 290.42581 
L 556.177822 288.068968 
L 556.211307 285.711674 
L 556.221217 283.354163 
L 556.207552 280.99667 
L 556.170313 278.639432 
L 556.109504 276.282685 
L 556.025131 273.926663 
L 555.917203 271.571603 
L 555.785729 269.217739 
L 555.630724 266.865308 
L 555.452203 264.514545 
L 555.250183 262.165685 
L 555.024686 259.818962 
L 554.775733 257.474611 
L 554.503349 255.132867 
L 554.207561 252.793964 
L 553.8884 250.458136 
L 553.545897 248.125616 
L 553.180086 245.796638 
L 552.791004 243.471434 
L 552.37869 241.150237 
L 551.943185 238.833279 
L 551.484533 236.520793 
L 551.002779 234.213008 
L 550.497971 231.910156 
L 549.970161 229.612467 
L 549.419401 227.320171 
L 548.845745 225.033497 
L 548.249252 222.752674 
L 547.629981 220.47793 
L 546.987994 218.209493 
L 546.323355 215.947588 
L 545.63613 213.692443 
L 544.926389 211.444282 
L 544.194202 209.203332 
L 543.439642 206.969815 
L 542.662786 204.743955 
L 541.86371 202.525975 
L 541.042494 200.316097 
L 540.199221 198.114541 
L 539.333975 195.921528 
L 538.446843 193.737277 
L 537.537913 191.562006 
L 536.607276 189.395933 
L 535.655025 187.239274 
L 534.681255 185.092246 
L 533.686065 182.955062 
L 532.669552 180.827938 
L 531.63182 178.711084 
L 530.572971 176.604714 
L 529.493112 174.509037 
L 528.39235 172.424263 
L 527.270796 170.350601 
L 526.128562 168.288258 
L 524.965761 166.23744 
L 523.782512 164.198353 
L 522.57893 162.1712 
L 521.355138 160.156184 
L 520.111257 158.153506 
L 518.847412 156.163367 
L 517.563729 154.185966 
L 516.260336 152.2215 
L 514.937365 150.270167 
L 513.594946 148.33216 
L 512.233215 146.407674 
L 510.852307 144.496902 
L 509.452361 142.600034 
L 508.033517 140.717259 
L 506.595916 138.848768 
L 505.139703 136.994745 
L 503.665022 135.155377 
L 502.172022 133.330848 
L 500.660851 131.521339 
L 499.131661 129.727033 
L 497.584605 127.948108 
L 496.019837 126.184742 
L 494.437514 124.437112 
L 492.837794 122.705392 
L 491.220838 120.989755 
L 489.586806 119.290374 
L 487.935862 117.607417 
L 486.268171 115.941054 
L 484.583901 114.291451 
L 482.883219 112.658773 
L 481.166295 111.043183 
L 479.433302 109.444843 
L 477.684412 107.863912 
L 475.919801 106.300549 
L 474.139644 104.75491 
L 472.34412 103.227149 
L 470.533409 101.71742 
L 468.707691 100.225873 
L 466.86715 98.752658 
L 465.011968 97.297921 
L 463.142332 95.861809 
L 461.258429 94.444464 
L 459.360447 93.046029 
L 457.448575 91.666643 
L 455.523005 90.306445 
L 453.58393 88.96557 
L 451.631544 87.644153 
L 449.666041 86.342325 
L 447.687618 85.060217 
L 445.696473 83.797957 
L 443.692806 82.555671 
L 441.676816 81.333484 
L 439.648705 80.131518 
L 437.608676 78.949892 
L 435.556933 77.788725 
L 433.493681 76.648134 
L 431.419126 75.528231 
L 429.333477 74.42913 
L 427.236941 73.35094 
L 425.129728 72.293769 
L 423.012048 71.257722 
L 420.884115 70.242904 
L 418.74614 69.249416 
L 416.598337 68.277356 
L 414.44092 67.326823 
L 412.274107 66.397911 
L 410.098113 65.490713 
L 407.913156 64.605321 
L 405.719454 63.741821 
L 403.517228 62.900302 
L 401.306696 62.080847 
L 399.08808 61.283537 
L 396.861603 60.508453 
L 394.627486 59.755672 
L 392.385953 59.02527 
L 390.137228 58.317319 
L 387.881536 57.631891 
L 385.619103 56.969053 
L 383.350155 56.328873 
L 381.074918 55.711413 
L 378.793621 55.116736 
L 376.506491 54.544902 
L 374.213758 53.995967 
L 371.915649 53.469987 
L 369.612396 52.967013 
L 367.304228 52.487097 
L 364.991377 52.030287 
L 362.674073 51.596627 
L 360.352549 51.186161 
L 358.027036 50.798931 
L 355.697767 50.434975 
L 353.364975 50.094329 
L 351.028893 49.777028 
L 348.689756 49.483104 
L 346.347795 49.212585 
L 344.003247 48.965499 
L 341.656346 48.74187 
L 339.307325 48.541721 
L 336.95642 48.365071 
L 334.603867 48.21194 
L 332.2499 48.082341 
L 329.894754 47.976288 
L 327.538666 47.893791 
L 325.18187 47.834859 
L 322.824604 47.799497 
L 320.467101 47.78771 
z
" clip-path="url(#p98b4758cff)" style="fill: #000080"/>
   </g>
   <g id="patch_3">
    <path d="M 320.467101 516.938549 
L 318.133173 516.926879 
L 315.799479 516.891871 
L 313.466252 516.833528 
L 311.133724 516.751856 
L 308.80213 516.646864 
L 306.471703 516.518561 
L 304.142675 516.366961 
L 301.815279 516.192078 
L 299.489749 515.99393 
L 297.166316 515.772538 
L 294.845213 515.527922 
L 292.526673 515.260109 
L 290.210927 514.969123 
L 287.898206 514.654995 
L 285.588742 514.317756 
L 283.282765 513.95744 
L 280.980508 513.574082 
L 278.682199 513.167721 
L 276.388068 512.738398 
L 274.098345 512.286155 
L 271.813259 511.811038 
L 269.533038 511.313094 
L 267.257911 510.792374 
L 264.988105 510.248928 
L 262.723846 509.682812 
L 260.465362 509.094082 
L 258.212878 508.482798 
L 255.966619 507.849019 
L 253.72681 507.192809 
L 251.493675 506.514235 
L 249.267438 505.813364 
L 247.04832 505.090266 
L 244.836544 504.345013 
L 242.632331 503.57768 
L 240.435902 502.788343 
L 238.247476 501.977082 
L 236.067271 501.143978 
L 233.895506 500.289114 
L 231.732399 499.412575 
L 229.578165 498.514449 
L 227.43302 497.594827 
L 225.297178 496.653799 
L 223.170853 495.69146 
L 221.054257 494.707906 
L 218.947603 493.703236 
L 216.851101 492.67755 
L 214.76496 491.630951 
L 212.689389 490.563543 
L 210.624596 489.475432 
L 208.570787 488.366729 
L 206.528168 487.237543 
L 204.496942 486.087988 
L 202.477313 484.918179 
L 200.469484 483.728232 
L 198.473653 482.518267 
L 196.490023 481.288404 
L 194.518789 480.038766 
L 192.560151 478.769479 
L 190.614303 477.48067 
L 188.68144 476.172467 
L 186.761756 474.845001 
L 184.855442 473.498404 
L 182.962689 472.132813 
L 181.083686 470.748362 
L 179.218622 469.345191 
L 177.367682 467.92344 
L 175.531053 466.48325 
L 173.708916 465.024767 
L 171.901456 463.548135 
L 170.108852 462.053503 
L 168.331283 460.541021 
L 166.568928 459.010838 
L 164.821963 457.463108 
L 163.090562 455.897987 
L 161.374899 454.31563 
L 159.675144 452.716196 
L 157.991469 451.099845 
L 156.324041 449.466737 
L 154.673028 447.817038 
L 153.038593 446.150911 
L 151.420902 444.468524 
L 149.820115 442.770044 
L 148.236392 441.055641 
L 146.669892 439.325487 
L 145.120772 437.579755 
L 143.589187 435.818619 
L 142.075289 434.042255 
L 140.57923 432.250842 
L 139.101159 430.444558 
L 137.641225 428.623584 
L 136.199574 426.788101 
L 134.776349 424.938294 
L 133.371693 423.074348 
L 131.985747 421.196449 
L 130.618648 419.304784 
L 129.270534 417.399543 
L 127.94154 415.480916 
L 126.631798 413.549096 
L 125.341439 411.604275 
L 125.075251 411.197767 
L 123.101595 412.48722 
L 123.370473 412.897834 
L 124.673866 414.8623 
L 125.996837 416.813634 
L 127.339256 418.75164 
L 128.700987 420.676126 
L 130.081895 422.586899 
L 131.481841 424.483767 
L 132.900685 426.366541 
L 134.338286 428.235033 
L 135.794499 430.089055 
L 137.26918 431.928423 
L 138.76218 433.752952 
L 140.273351 435.562461 
L 141.802541 437.356767 
L 143.349597 439.135693 
L 144.914365 440.899058 
L 146.496688 442.646689 
L 148.096408 444.378409 
L 149.713364 446.094045 
L 151.347396 447.793427 
L 152.99834 449.476383 
L 154.666031 451.142746 
L 156.350301 452.792349 
L 158.050983 454.425027 
L 159.767907 456.040617 
L 161.5009 457.638958 
L 163.24979 459.219888 
L 165.014401 460.783251 
L 166.794558 462.32889 
L 168.590082 463.856651 
L 170.400793 465.36638 
L 172.226511 466.857927 
L 174.067052 468.331143 
L 175.922234 469.785879 
L 177.79187 471.221992 
L 179.675773 472.639336 
L 181.573755 474.037771 
L 183.485627 475.417157 
L 185.411197 476.777355 
L 187.350272 478.11823 
L 189.302658 479.439647 
L 191.268161 480.741475 
L 193.246584 482.023583 
L 195.237729 483.285843 
L 197.241396 484.528129 
L 199.257386 485.750316 
L 201.285497 486.952283 
L 203.325526 488.133908 
L 205.377269 489.295075 
L 207.440521 490.435667 
L 209.515076 491.555569 
L 211.600725 492.65467 
L 213.697261 493.73286 
L 215.804474 494.790031 
L 217.922154 495.826078 
L 220.050087 496.840896 
L 222.188062 497.834385 
L 224.335865 498.806444 
L 226.493281 499.756977 
L 228.660095 500.685889 
L 230.836089 501.593087 
L 233.021046 502.47848 
L 235.214747 503.341979 
L 237.416974 504.183498 
L 239.627506 505.002954 
L 241.846121 505.800263 
L 244.072599 506.575347 
L 246.306716 507.328128 
L 248.548249 508.05853 
L 250.796974 508.766481 
L 253.052666 509.451909 
L 255.315099 510.114747 
L 257.584047 510.754928 
L 259.859284 511.372387 
L 262.140581 511.967064 
L 264.427711 512.538898 
L 266.720444 513.087833 
L 269.018553 513.613813 
L 271.321806 514.116787 
L 273.629974 514.596703 
L 275.942825 515.053514 
L 278.260129 515.487174 
L 280.581653 515.897639 
L 282.907166 516.284869 
L 285.236435 516.648825 
L 287.569227 516.989471 
L 289.905309 517.306772 
L 292.244446 517.600697 
L 294.586407 517.871216 
L 296.930955 518.118302 
L 299.277856 518.341931 
L 301.626877 518.54208 
L 303.977782 518.718729 
L 306.330335 518.871861 
L 308.684302 519.001459 
L 311.039448 519.107513 
L 313.395536 519.190009 
L 315.752332 519.248942 
L 318.109598 519.284303 
L 320.467101 519.296091 
z
" clip-path="url(#p98b4758cff)" style="fill: #7dff7a"/>
   </g>
   <g id="patch_4">
    <path d="M 125.075251 411.197767 
L 123.808483 409.237499 
L 122.56138 407.26466 
L 121.334069 405.27945 
L 120.12667 403.282066 
L 118.939305 401.272708 
L 117.772093 399.251577 
L 116.62515 397.218876 
L 115.498592 395.174806 
L 114.392529 393.119574 
L 113.307075 391.053384 
L 112.242336 388.976442 
L 111.198419 386.888958 
L 110.175429 384.791139 
L 109.173468 382.683194 
L 108.192636 380.565336 
L 107.233031 378.437776 
L 106.29475 376.300726 
L 105.377886 374.1544 
L 104.48253 371.999013 
L 103.608773 369.834781 
L 102.756701 367.661919 
L 101.926401 365.480645 
L 101.117954 363.291178 
L 100.331442 361.093736 
L 99.566943 358.888538 
L 98.824534 356.675806 
L 98.104289 354.455761 
L 97.406281 352.228624 
L 96.730578 349.994619 
L 96.077248 347.753968 
L 95.446358 345.506896 
L 94.837969 343.253628 
L 94.252143 340.994389 
L 93.688938 338.729404 
L 93.148411 336.458901 
L 92.630616 334.183106 
L 92.135604 331.902248 
L 91.663425 329.616553 
L 91.214126 327.32625 
L 90.787753 325.03157 
L 90.384347 322.73274 
L 90.003949 320.429991 
L 89.646597 318.123554 
L 89.312328 315.813658 
L 89.001173 313.500535 
L 88.713165 311.184417 
L 88.448332 308.865534 
L 88.206701 306.544119 
L 87.988295 304.220403 
L 87.793137 301.89462 
L 87.621247 299.567001 
L 87.472641 297.23778 
L 87.347334 294.90719 
L 87.245339 292.575463 
L 87.166666 290.242832 
L 87.111322 287.909532 
L 87.079314 285.575795 
L 87.070645 283.241854 
L 87.085315 280.907943 
L 87.123323 278.574296 
L 87.184666 276.241146 
L 87.269336 273.908725 
L 87.377326 271.577268 
L 87.508625 269.247007 
L 87.663219 266.918176 
L 87.841094 264.591007 
L 88.042231 262.265733 
L 88.26661 259.942587 
L 88.514209 257.621801 
L 88.785003 255.303607 
L 89.078965 252.988236 
L 89.396066 250.675921 
L 89.736274 248.366893 
L 90.099555 246.061382 
L 90.485872 243.759619 
L 90.895187 241.461834 
L 91.327459 239.168257 
L 91.782645 236.879117 
L 92.260699 234.594644 
L 92.761574 232.315065 
L 93.285219 230.040609 
L 93.831582 227.771503 
L 94.400608 225.507974 
L 94.992241 223.250249 
L 95.606421 220.998552 
L 96.243087 218.75311 
L 96.902175 216.514147 
L 97.58362 214.281886 
L 98.287353 212.056552 
L 99.013303 209.838365 
L 99.761399 207.627549 
L 100.531565 205.424325 
L 101.323724 203.228912 
L 102.137798 201.04153 
L 102.973704 198.862399 
L 103.83136 196.691735 
L 104.710679 194.529756 
L 105.611573 192.376678 
L 106.533953 190.232717 
L 107.477725 188.098087 
L 108.442797 185.973001 
L 109.429071 183.857671 
L 110.436448 181.75231 
L 111.464829 179.657128 
L 112.514109 177.572335 
L 113.584185 175.498138 
L 114.674948 173.434745 
L 115.786291 171.382363 
L 116.918102 169.341197 
L 118.070267 167.311451 
L 119.242672 165.293328 
L 120.435199 163.28703 
L 121.647729 161.292757 
L 122.880141 159.310708 
L 124.132312 157.341083 
L 125.404116 155.384078 
L 126.695425 153.439889 
L 128.006112 151.508709 
L 129.336045 149.590733 
L 130.685091 147.686152 
L 132.053115 145.795156 
L 133.43998 143.917935 
L 134.845548 142.054676 
L 136.269677 140.205566 
L 137.712227 138.370789 
L 139.173051 136.550529 
L 140.652005 134.744968 
L 142.14894 132.954287 
L 143.663707 131.178665 
L 145.196154 129.418278 
L 146.746128 127.673304 
L 148.313474 125.943917 
L 149.898035 124.230289 
L 151.499653 122.532592 
L 153.118168 120.850996 
L 154.753417 119.185669 
L 156.405238 117.536778 
L 158.073464 115.904487 
L 159.75793 114.288959 
L 161.458467 112.690357 
L 163.174904 111.10884 
L 164.90707 109.544565 
L 166.654793 107.997691 
L 168.417896 106.46837 
L 170.196204 104.956757 
L 171.989539 103.463003 
L 173.797722 101.987256 
L 175.620572 100.529664 
L 177.457906 99.090373 
L 179.309541 97.669528 
L 181.175291 96.267269 
L 183.054971 94.883738 
L 184.948392 93.519072 
L 186.855364 92.173409 
L 188.775698 90.846882 
L 190.7092 89.539625 
L 192.655679 88.251767 
L 194.614938 86.983439 
L 196.586782 85.734766 
L 198.571015 84.505874 
L 200.567436 83.296885 
L 202.575848 82.107921 
L 204.596049 80.939099 
L 206.627837 79.790538 
L 208.671008 78.662352 
L 210.725359 77.554654 
L 212.790685 76.467554 
L 214.866777 75.401161 
L 216.95343 74.355582 
L 219.050434 73.330922 
L 221.157579 72.327283 
L 223.274656 71.344765 
L 225.401451 70.383466 
L 227.537753 69.443484 
L 229.683348 68.52491 
L 231.838022 67.627839 
L 234.001558 66.752358 
L 236.17374 65.898557 
L 238.354352 65.066519 
L 240.543175 64.256329 
L 242.73999 63.468067 
L 244.944578 62.701813 
L 247.156718 61.957642 
L 249.37619 61.23563 
L 251.60277 60.535848 
L 253.836236 59.858366 
L 256.076366 59.203252 
L 258.322934 58.570573 
L 260.575717 57.96039 
L 262.834489 57.372765 
L 265.099025 56.807757 
L 267.369097 56.265422 
L 269.644478 55.745814 
L 271.924942 55.248986 
L 274.210261 54.774987 
L 276.500204 54.323865 
L 278.794545 53.895664 
L 281.093053 53.490428 
L 283.395498 53.108196 
L 285.70165 52.749008 
L 288.011279 52.412899 
L 290.324153 52.099902 
L 292.640041 51.81005 
L 294.958713 51.543371 
L 297.279935 51.299891 
L 299.603475 51.079635 
L 301.929103 50.882625 
L 304.256583 50.708881 
L 306.585685 50.55842 
L 308.916175 50.431257 
L 311.24782 50.327406 
L 313.580387 50.246875 
L 315.913643 50.189674 
L 318.247354 50.155807 
L 320.467101 50.145251 
L 320.467101 47.78771 
L 318.224933 47.798372 
L 315.867649 47.83258 
L 313.510825 47.890359 
L 311.154696 47.971704 
L 308.799499 48.076604 
L 306.445469 48.205052 
L 304.092841 48.357032 
L 301.74185 48.532531 
L 299.392732 48.731531 
L 297.045721 48.954012 
L 294.701052 49.199951 
L 292.35896 49.469324 
L 290.019679 49.762104 
L 287.683442 50.078263 
L 285.350484 50.417767 
L 283.021037 50.780583 
L 280.695335 51.166676 
L 278.37361 51.576005 
L 276.056094 52.008531 
L 273.74302 52.464211 
L 271.434618 52.942997 
L 269.131119 53.444844 
L 266.832753 53.9697 
L 264.539751 54.517513 
L 262.252342 55.088228 
L 259.970754 55.681789 
L 257.695216 56.298135 
L 255.425954 56.937205 
L 253.163197 57.598936 
L 250.90717 58.283261 
L 248.6581 58.990112 
L 246.416209 59.719417 
L 244.181724 60.471105 
L 241.954868 61.245099 
L 239.735863 62.041323 
L 237.52493 62.859697 
L 235.322292 63.700139 
L 233.128168 64.562565 
L 230.942778 65.446889 
L 228.766341 66.353022 
L 226.599073 67.280873 
L 224.441192 68.230351 
L 222.292914 69.201359 
L 220.154453 70.193802 
L 218.026023 71.207579 
L 215.907837 72.242589 
L 213.800107 73.298729 
L 211.703044 74.375894 
L 209.616857 75.473974 
L 207.541755 76.592862 
L 205.477945 77.732444 
L 203.425634 78.892606 
L 201.385027 80.073234 
L 199.356329 81.274208 
L 197.339741 82.495409 
L 195.335466 83.736714 
L 193.343704 84.998 
L 191.364654 86.27914 
L 189.398514 87.580006 
L 187.445482 88.900468 
L 185.505751 90.240394 
L 183.579516 91.59965 
L 181.66697 92.9781 
L 179.768303 94.375606 
L 177.883707 95.792029 
L 176.013369 97.227227 
L 174.157475 98.681056 
L 172.316213 100.15337 
L 170.489766 101.644024 
L 168.678316 103.152867 
L 166.882045 104.679749 
L 165.101133 106.224517 
L 163.335757 107.787017 
L 161.586094 109.367091 
L 159.852319 110.964584 
L 158.134605 112.579334 
L 156.433124 114.21118 
L 154.748047 115.859958 
L 153.079542 117.525505 
L 151.427775 119.207654 
L 149.792911 120.906236 
L 148.175115 122.621081 
L 146.574549 124.352018 
L 144.991371 126.098874 
L 143.425741 127.861474 
L 141.877814 129.639642 
L 140.347747 131.4332 
L 138.835691 133.241969 
L 137.341798 135.065768 
L 135.866218 136.904414 
L 134.409097 138.757724 
L 132.970583 140.625512 
L 131.550817 142.507592 
L 130.149943 144.403775 
L 128.768101 146.313872 
L 127.405429 148.237691 
L 126.062062 150.175041 
L 124.738136 152.125727 
L 123.433782 154.089555 
L 122.149132 156.066328 
L 120.884313 158.055848 
L 119.639453 160.057917 
L 118.414675 162.072334 
L 117.210102 164.098898 
L 116.025855 166.137406 
L 114.862051 168.187655 
L 113.718808 170.249439 
L 112.59624 172.322552 
L 111.494458 174.406787 
L 110.413574 176.501935 
L 109.353695 178.607787 
L 108.314927 180.724133 
L 107.297374 182.85076 
L 106.301137 184.987456 
L 105.326318 187.134008 
L 104.373012 189.2902 
L 103.441315 191.455818 
L 102.531321 193.630643 
L 101.64312 195.81446 
L 100.776801 198.00705 
L 99.932451 200.208193 
L 99.110155 202.41767 
L 98.309994 204.635258 
L 97.532048 206.860738 
L 96.776396 209.093885 
L 96.043113 211.334477 
L 95.332272 213.58229 
L 94.643944 215.837099 
L 93.978198 218.098678 
L 93.335101 220.366801 
L 92.714717 222.641242 
L 92.117108 224.921773 
L 91.542334 227.208166 
L 90.990453 229.500192 
L 90.461518 231.797622 
L 89.955584 234.100227 
L 89.472701 236.407776 
L 89.012917 238.720038 
L 88.576279 241.036782 
L 88.162829 243.357777 
L 87.77261 245.68279 
L 87.40566 248.01159 
L 87.062015 250.343942 
L 86.741712 252.679613 
L 86.44478 255.018372 
L 86.17125 257.359982 
L 85.92115 259.70421 
L 85.694505 262.050823 
L 85.491336 264.399584 
L 85.311665 266.75026 
L 85.155509 269.102614 
L 85.022884 271.456413 
L 84.913803 273.81142 
L 84.828277 276.167401 
L 84.766316 278.524118 
L 84.727923 280.881338 
L 84.713105 283.238823 
L 84.721862 285.596339 
L 84.754193 287.953649 
L 84.810096 290.310519 
L 84.889563 292.666711 
L 84.992589 295.021991 
L 85.119161 297.376123 
L 85.269269 299.728871 
L 85.442895 302.080001 
L 85.640024 304.429277 
L 85.860636 306.776464 
L 86.104708 309.121328 
L 86.372216 311.463634 
L 86.663133 313.803148 
L 86.977431 316.139635 
L 87.315077 318.472863 
L 87.676038 320.802598 
L 88.060279 323.128607 
L 88.467759 325.450657 
L 88.89844 327.768516 
L 89.352277 330.081953 
L 89.829225 332.390736 
L 90.329237 334.694634 
L 90.852263 336.993416 
L 91.39825 339.286854 
L 91.967144 341.574717 
L 92.558887 343.856777 
L 93.173421 346.132805 
L 93.810684 348.402575 
L 94.470613 350.665858 
L 95.153141 352.922429 
L 95.8582 355.172062 
L 96.58572 357.414532 
L 97.335628 359.649615 
L 98.107849 361.877087 
L 98.902306 364.096726 
L 99.718919 366.30831 
L 100.557607 368.511616 
L 101.418285 370.706426 
L 102.300868 372.89252 
L 103.205268 375.069678 
L 104.131393 377.237684 
L 105.079152 379.39632 
L 106.048449 381.545371 
L 107.039189 383.684622 
L 108.051271 385.813858 
L 109.084594 387.932867 
L 110.139055 390.041438 
L 111.214549 392.139358 
L 112.310968 394.226419 
L 113.428203 396.302412 
L 114.566141 398.367128 
L 115.724669 400.420362 
L 116.903671 402.461908 
L 118.103029 404.491563 
L 119.322624 406.509122 
L 120.562333 408.514385 
L 121.822032 410.507151 
L 123.101595 412.48722 
z
" clip-path="url(#p98b4758cff)" style="fill: #800000"/>
   </g>
   <g id="PatchCollection_1">
    <path d="M 125.075251 411.197767 
L 125.075251 411.197767 
L 123.808483 409.237499 
L 122.56138 407.26466 
L 121.334069 405.27945 
L 120.12667 403.282066 
L 118.939305 401.272708 
L 117.772093 399.251577 
L 116.62515 397.218876 
L 115.498592 395.174806 
L 114.392529 393.119574 
L 113.307075 391.053384 
L 112.242336 388.976442 
L 111.198419 386.888958 
L 110.175429 384.791139 
L 109.173468 382.683194 
L 108.192636 380.565336 
L 107.233031 378.437776 
L 106.728676 377.296266 
L 106.728676 377.296266 
Q 320.467101 283.5419 320.467101 50.145251 
L 320.467101 50.145251 
L 320.467101 50.145251 
L 322.801029 50.156921 
L 325.134723 50.191929 
L 327.46795 50.250272 
L 329.800478 50.331944 
L 332.132072 50.436936 
L 334.462499 50.565239 
L 336.791527 50.71684 
L 339.118923 50.891722 
L 341.444453 51.08987 
L 343.767886 51.311263 
L 346.088988 51.555878 
L 348.407529 51.823692 
L 350.723275 52.114677 
L 353.035996 52.428805 
L 355.34546 52.766044 
L 357.651436 53.126361 
L 358.882927 53.328478 
L 358.882927 53.328478 
Q 320.467101 283.5419 125.075251 411.197767 
z
" clip-path="url(#p98b4758cff)" style="fill: #800000; fill-opacity: 0.5; stroke: #808080; stroke-opacity: 0.5; stroke-width: 0.1"/>
    <path d="M 320.467101 516.938549 
L 320.467101 516.938549 
L 318.133173 516.926879 
L 315.799479 516.891871 
L 313.466252 516.833528 
L 311.133724 516.751856 
L 308.80213 516.646864 
L 306.471703 516.518561 
L 304.142675 516.366961 
L 301.815279 516.192078 
L 299.489749 515.99393 
L 297.166316 515.772538 
L 294.845213 515.527922 
L 292.526673 515.260109 
L 290.210927 514.969123 
L 287.898206 514.654995 
L 285.588742 514.317756 
L 283.282765 513.95744 
L 282.051275 513.755323 
L 282.051275 513.755323 
Q 320.467101 283.5419 358.882927 53.328478 
L 358.882927 53.328478 
L 358.882927 53.328478 
L 361.183102 53.72414 
L 363.479205 54.142784 
L 365.771008 54.584368 
L 368.05828 55.048847 
L 370.340793 55.536175 
L 372.618318 56.046304 
L 374.890629 56.579182 
L 377.157497 57.134757 
L 379.418696 57.712971 
L 381.674 58.313769 
L 383.923184 58.937089 
L 386.166022 59.582869 
L 388.40229 60.251045 
L 390.631764 60.94155 
L 392.854222 61.654315 
L 395.069442 62.389269 
L 396.250869 62.791326 
L 396.250869 62.791326 
Q 320.467101 283.5419 320.467101 516.938549 
z
" clip-path="url(#p98b4758cff)" style="fill: #7dff7a; fill-opacity: 0.5; stroke: #808080; stroke-opacity: 0.5; stroke-width: 0.1"/>
    <path d="M 396.250869 62.791326 
L 396.250869 62.791326 
L 398.454549 63.560188 
L 400.65043 64.351049 
L 402.838293 65.163828 
L 405.017919 65.998445 
L 407.189089 66.854816 
L 409.351588 67.732856 
L 411.505198 68.632476 
L 413.649705 69.553587 
L 415.784893 70.496097 
L 417.91055 71.459912 
L 420.026462 72.444934 
L 422.132419 73.451066 
L 424.228209 74.478206 
L 426.313623 75.526253 
L 428.388453 76.595101 
L 430.45249 77.684644 
L 432.505529 78.794773 
L 434.547364 79.925375 
L 436.577792 81.07634 
L 438.596608 82.247551 
L 440.603612 83.438891 
L 442.598602 84.650241 
L 444.581378 85.88148 
L 446.551744 87.132485 
L 448.509501 88.403131 
L 450.454454 89.69329 
L 452.386409 91.002834 
L 454.305172 92.331632 
L 456.21055 93.679551 
L 458.102355 95.046456 
L 459.980397 96.43221 
L 461.844487 97.836676 
L 463.694439 99.259711 
L 465.530069 100.701175 
L 467.351193 102.160922 
L 469.157628 103.638807 
L 470.949195 105.134683 
L 472.725713 106.648399 
L 474.487006 108.179804 
L 476.232896 109.728746 
L 477.963211 111.295068 
L 479.677776 112.878616 
L 481.37642 114.479229 
L 483.058973 116.096748 
L 484.725267 117.731012 
L 486.375135 119.381857 
L 488.008413 121.049117 
L 489.624937 122.732627 
L 491.224545 124.432218 
L 492.807077 126.147719 
L 494.372376 127.87896 
L 495.920284 129.625767 
L 497.450647 131.387965 
L 498.963312 133.165379 
L 500.458128 134.95783 
L 501.934944 136.765139 
L 503.393614 138.587126 
L 504.833991 140.423608 
L 506.255932 142.274403 
L 507.659294 144.139323 
L 509.043937 146.018184 
L 510.409723 147.910797 
L 511.756514 149.816973 
L 513.084177 151.736522 
L 514.392578 153.66925 
L 515.681586 155.614966 
L 516.951074 157.573475 
L 518.200913 159.54458 
L 519.430979 161.528085 
L 520.641148 163.523792 
L 521.831301 165.5315 
L 523.001317 167.551009 
L 524.15108 169.582116 
L 525.280475 171.62462 
L 526.389388 173.678316 
L 527.47771 175.742997 
L 528.54533 177.818459 
L 529.592143 179.904493 
L 530.618044 182.00089 
L 531.62293 184.107441 
L 532.6067 186.223936 
L 533.569257 188.350163 
L 534.510503 190.485908 
L 535.430345 192.630959 
L 536.328692 194.785101 
L 537.205452 196.948119 
L 538.060538 199.119796 
L 538.893866 201.299915 
L 539.705351 203.488259 
L 540.494912 205.684607 
L 541.262471 207.888742 
L 542.00795 210.100441 
L 542.731275 212.319485 
L 543.432374 214.54565 
L 544.111177 216.778716 
L 544.767616 219.018457 
L 545.401625 221.264651 
L 546.01314 223.517073 
L 546.602101 225.775497 
L 547.168449 228.039698 
L 547.712127 230.309448 
L 548.23308 232.584522 
L 548.731257 234.864692 
L 549.206608 237.149729 
L 549.659085 239.439406 
L 550.088643 241.733493 
L 550.495239 244.03176 
L 550.878833 246.333979 
L 551.239385 248.639918 
L 551.576861 250.949348 
L 551.891226 253.262036 
L 552.182448 255.577753 
L 552.450499 257.896266 
L 552.695352 260.217344 
L 552.916983 262.540754 
L 553.115368 264.866264 
L 553.290489 267.193641 
L 553.442328 269.522654 
L 553.570869 271.853068 
L 553.676101 274.184651 
L 553.758011 276.51717 
L 553.816593 278.850392 
L 553.85184 281.184083 
L 553.863748 283.518009 
L 553.852318 285.851938 
L 553.817549 288.185635 
L 553.759444 290.518869 
L 553.678011 292.851405 
L 553.573258 295.183009 
L 553.445193 297.51345 
L 553.293831 299.842494 
L 553.119187 302.169907 
L 552.921277 304.495458 
L 552.700123 306.818913 
L 552.455745 309.140041 
L 552.188168 311.458609 
L 551.89742 313.774385 
L 551.583529 316.087138 
L 551.246526 318.396636 
L 550.886446 320.702649 
L 550.503323 323.004946 
L 550.097198 325.303297 
L 549.668109 327.597472 
L 549.216101 329.887241 
L 548.741218 332.172376 
L 548.243508 334.452647 
L 547.72302 336.727828 
L 547.179807 338.99769 
L 546.613923 341.262006 
L 546.025424 343.520551 
L 545.41437 345.773098 
L 544.780821 348.019421 
L 544.124841 350.259297 
L 543.446495 352.492501 
L 542.745852 354.718811 
L 542.022981 356.938002 
L 541.277954 359.149855 
L 540.510847 361.354146 
L 539.721735 363.550656 
L 538.910698 365.739165 
L 538.077817 367.919455 
L 537.223175 370.091307 
L 536.346858 372.254504 
L 535.448953 374.40883 
L 534.52955 376.55407 
L 533.58874 378.690008 
L 532.626619 380.816432 
L 531.643282 382.933128 
L 530.638828 385.039885 
L 529.613356 387.136492 
L 528.56697 389.22274 
L 527.499775 391.29842 
L 526.411876 393.363325 
L 525.303383 395.417247 
L 524.174406 397.459982 
L 523.025059 399.491325 
L 521.855456 401.511074 
L 520.665715 403.519025 
L 519.455954 405.514979 
L 518.226294 407.498736 
L 516.976859 409.470097 
L 515.707772 411.428866 
L 514.419162 413.374846 
L 513.111157 415.307842 
L 511.783887 417.227662 
L 510.437486 419.134114 
L 509.072088 421.027007 
L 507.68783 422.906151 
L 506.284849 424.771359 
L 504.863287 426.622444 
L 503.423286 428.459221 
L 501.964989 430.281507 
L 500.488543 432.089118 
L 498.994095 433.881876 
L 497.481794 435.659599 
L 495.951791 437.42211 
L 494.404241 439.169234 
L 492.839296 440.900795 
L 492.182596 441.617149 
L 492.182596 441.617149 
Q 320.467101 283.5419 106.728676 377.296266 
L 106.728676 377.296266 
L 106.728676 377.296266 
L 105.801834 375.15423 
L 104.896459 373.003032 
L 104.012642 370.842889 
L 103.150469 368.674015 
L 102.310028 366.496629 
L 101.491402 364.310947 
L 100.694674 362.117188 
L 99.919922 359.915571 
L 99.167226 357.706318 
L 98.436659 355.489647 
L 97.728295 353.265783 
L 97.042204 351.034946 
L 96.378456 348.797359 
L 95.737117 346.553247 
L 95.11825 344.302834 
L 94.521918 342.046346 
L 93.948181 339.784006 
L 93.397095 337.516043 
L 92.868716 335.242682 
L 92.363097 332.964151 
L 91.880288 330.680678 
L 91.420337 328.392491 
L 90.983291 326.099819 
L 90.569193 323.802891 
L 90.178084 321.501937 
L 89.810005 319.197187 
L 89.46499 316.888872 
L 89.143076 314.577222 
L 88.844294 312.262469 
L 88.568674 309.944843 
L 88.316244 307.624578 
L 88.087029 305.301904 
L 87.881051 302.977054 
L 87.698332 300.65026 
L 87.53889 298.321756 
L 87.40274 295.991773 
L 87.289897 293.660546 
L 87.200371 291.328307 
L 87.134171 288.995289 
L 87.091305 286.661726 
L 87.071776 284.327851 
L 87.075586 281.993898 
L 87.102735 279.660099 
L 87.153221 277.326688 
L 87.227037 274.993899 
L 87.324178 272.661965 
L 87.444632 270.331118 
L 87.588389 268.001593 
L 87.755433 265.673622 
L 87.945749 263.347437 
L 88.159316 261.023272 
L 88.396114 258.701359 
L 88.656118 256.38193 
L 88.939304 254.065216 
L 89.245642 251.751451 
L 89.575102 249.440864 
L 89.927652 247.133688 
L 90.303255 244.830152 
L 90.701874 242.530488 
L 91.123469 240.234924 
L 91.567999 237.943691 
L 92.035418 235.657018 
L 92.52568 233.375134 
L 93.038737 231.098266 
L 93.574536 228.826642 
L 94.133024 226.56049 
L 94.714145 224.300036 
L 95.317841 222.045506 
L 95.944052 219.797126 
L 96.592715 217.55512 
L 97.263766 215.319713 
L 97.957136 213.091128 
L 98.672758 210.869588 
L 99.410558 208.655315 
L 100.170465 206.448531 
L 100.9524 204.249456 
L 101.756287 202.05831 
L 102.582045 199.875312 
L 103.429591 197.700681 
L 104.29884 195.534635 
L 105.189707 193.377388 
L 106.102101 191.229158 
L 107.035931 189.09016 
L 107.991104 186.960606 
L 108.967525 184.840711 
L 109.965095 182.730685 
L 110.983715 180.630741 
L 112.023284 178.541087 
L 113.083697 176.461934 
L 114.164847 174.393488 
L 115.266628 172.335958 
L 116.388929 170.289547 
L 117.531638 168.254462 
L 118.69464 166.230906 
L 119.877818 164.21908 
L 121.081056 162.219187 
L 122.304232 160.231426 
L 123.547225 158.255996 
L 124.809909 156.293094 
L 126.092158 154.342917 
L 127.393845 152.40566 
L 128.714839 150.481516 
L 130.055009 148.570678 
L 131.414219 146.673338 
L 132.792334 144.789684 
L 134.189217 142.919905 
L 135.604727 141.064188 
L 137.038724 139.222719 
L 138.491063 137.395682 
L 139.961599 135.583259 
L 141.450186 133.785632 
L 142.956675 132.00298 
L 144.480914 130.235483 
L 146.022752 128.483315 
L 147.582034 126.746654 
L 149.158605 125.025672 
L 150.752306 123.320541 
L 152.362978 121.631432 
L 153.990461 119.958515 
L 155.634592 118.301955 
L 157.295205 116.661919 
L 158.972136 115.038571 
L 160.665215 113.432074 
L 162.374275 111.842587 
L 164.099144 110.27027 
L 165.83965 108.71528 
L 167.595619 107.177773 
L 169.366874 105.657901 
L 171.153239 104.155818 
L 172.954536 102.671674 
L 174.770584 101.205616 
L 176.601201 99.757792 
L 178.446204 98.328346 
L 180.30541 96.917421 
L 182.178632 95.525159 
L 184.065682 94.151698 
L 185.966373 92.797176 
L 187.880513 91.461728 
L 189.807912 90.145489 
L 191.748377 88.848588 
L 193.701713 87.571157 
L 195.667726 86.313323 
L 197.646219 85.075211 
L 199.636994 83.856946 
L 201.639852 82.658649 
L 203.654592 81.480441 
L 205.681014 80.322438 
L 207.718914 79.184757 
L 209.768088 78.067512 
L 211.828333 76.970814 
L 213.899441 75.894773 
L 215.981206 74.839496 
L 218.07342 73.80509 
L 220.175873 72.791657 
L 222.288354 71.799299 
L 224.410654 70.828114 
L 226.542559 69.878202 
L 228.683857 68.949655 
L 230.834333 68.042567 
L 232.993772 67.157029 
L 235.161958 66.29313 
L 237.338675 65.450955 
L 239.523704 64.630589 
L 241.716828 63.832114 
L 243.917827 63.05561 
L 246.12648 62.301154 
L 248.342568 61.568822 
L 250.565868 60.858687 
L 252.796158 60.170821 
L 255.033215 59.505291 
L 257.276815 58.862165 
L 259.526735 58.241507 
L 261.782748 57.643378 
L 264.04463 57.067839 
L 266.312154 56.514947 
L 268.585093 55.984758 
L 270.863221 55.477324 
L 273.146309 54.992697 
L 275.434129 54.530924 
L 277.726452 54.092053 
L 280.023049 53.676126 
L 282.323691 53.283185 
L 284.628147 52.91327 
L 286.936186 52.566418 
L 289.247579 52.242663 
L 291.562094 51.942038 
L 293.879499 51.664573 
L 296.199563 51.410295 
L 298.522054 51.17923 
L 300.846739 50.971401 
L 303.173387 50.786829 
L 305.501763 50.625533 
L 307.831636 50.487527 
L 310.162773 50.372827 
L 312.49494 50.281444 
L 314.827904 50.213387 
L 317.161432 50.168662 
L 319.495291 50.147275 
L 320.467101 50.145251 
L 320.467101 50.145251 
Q 320.467101 283.5419 396.250869 62.791326 
z
" clip-path="url(#p98b4758cff)" style="fill: #000080; fill-opacity: 0.5; stroke: #808080; stroke-opacity: 0.5; stroke-width: 0.1"/>
    <path d="M 492.182596 441.617149 
L 492.182596 441.617149 
L 490.593284 443.326372 
L 488.98696 445.019616 
L 487.363784 446.696713 
L 485.723918 448.357494 
L 484.067527 450.001794 
L 482.394776 451.629448 
L 480.705832 453.240294 
L 479.000864 454.834169 
L 477.280044 456.410916 
L 475.543542 457.970376 
L 473.791532 459.512393 
L 472.02419 461.036813 
L 470.241693 462.543484 
L 468.444218 464.032255 
L 466.631946 465.502977 
L 464.805058 466.955504 
L 462.963735 468.389688 
L 461.108163 469.805389 
L 459.238528 471.202463 
L 457.355015 472.580771 
L 455.457813 473.940176 
L 453.547113 475.28054 
L 451.623104 476.601731 
L 449.68598 477.903617 
L 447.735935 479.186066 
L 445.773162 480.448951 
L 443.797859 481.692145 
L 441.810223 482.915525 
L 439.810453 484.118967 
L 437.798749 485.302352 
L 435.775312 486.465561 
L 433.740343 487.608478 
L 431.694048 488.730988 
L 429.63663 489.83298 
L 427.568295 490.914342 
L 425.48925 491.974968 
L 423.399703 493.01475 
L 421.299863 494.033586 
L 419.18994 495.031372 
L 417.070144 496.00801 
L 414.940688 496.963401 
L 412.801785 497.89745 
L 410.653649 498.810064 
L 408.496494 499.701151 
L 406.330536 500.570622 
L 404.155992 501.418391 
L 401.973079 502.244372 
L 399.782015 503.048483 
L 397.58302 503.830644 
L 395.376314 504.590776 
L 393.162116 505.328803 
L 390.94065 506.044652 
L 388.712135 506.738251 
L 386.476797 507.40953 
L 384.234858 508.058423 
L 381.986541 508.684864 
L 379.732073 509.288791 
L 377.471679 509.870144 
L 375.205584 510.428863 
L 372.934015 510.964895 
L 370.6572 511.478184 
L 368.375365 511.96868 
L 366.08874 512.436334 
L 363.797553 512.881098 
L 361.502033 513.302928 
L 359.202409 513.701783 
L 356.898912 514.077621 
L 354.591772 514.430407 
L 352.281219 514.760103 
L 349.967485 515.066679 
L 347.6508 515.350101 
L 345.331398 515.610343 
L 343.009509 515.847379 
L 340.685366 516.061184 
L 338.359201 516.251738 
L 336.031246 516.41902 
L 333.701736 516.563015 
L 331.370902 516.683708 
L 329.038977 516.781088 
L 326.706196 516.855143 
L 324.37279 516.905867 
L 322.038994 516.933256 
L 320.467101 516.938549 
L 320.467101 516.938549 
Q 320.467101 283.5419 282.051275 513.755323 
L 282.051275 513.755323 
L 282.051275 513.755323 
L 279.7511 513.35966 
L 277.454997 512.941016 
L 275.163194 512.499433 
L 272.875922 512.034953 
L 270.593409 511.547625 
L 268.315884 511.037496 
L 266.043573 510.504618 
L 263.776705 509.949044 
L 261.515506 509.370829 
L 259.260202 508.770031 
L 257.011018 508.146711 
L 254.76818 507.500931 
L 252.531912 506.832755 
L 250.302438 506.14225 
L 248.07998 505.429485 
L 245.86476 504.694532 
L 243.657001 503.937463 
L 241.456922 503.158355 
L 239.264745 502.357286 
L 237.080687 501.534335 
L 234.904969 500.689585 
L 232.737806 499.823121 
L 230.579416 498.935029 
L 228.430015 498.025397 
L 226.289818 497.094318 
L 224.159038 496.141883 
L 222.037889 495.168188 
L 219.926583 494.173332 
L 217.825331 493.157412 
L 215.734343 492.12053 
L 213.653828 491.062791 
L 211.583994 489.9843 
L 209.525048 488.885166 
L 207.477197 487.765496 
L 205.440645 486.625405 
L 203.415595 485.465006 
L 201.40225 484.284414 
L 199.400811 483.083748 
L 197.411479 481.863129 
L 195.434453 480.622677 
L 193.46993 479.362517 
L 191.518106 478.082776 
L 189.579177 476.78358 
L 187.653337 475.465061 
L 185.740778 474.127349 
L 183.841691 472.770579 
L 181.956267 471.394887 
L 180.084694 470.000409 
L 178.227159 468.587285 
L 176.383848 467.155657 
L 174.554945 465.705668 
L 172.740633 464.237463 
L 170.941094 462.751188 
L 169.156507 461.246993 
L 167.387052 459.725027 
L 165.632904 458.185443 
L 163.894239 456.628394 
L 162.171231 455.054038 
L 160.464053 453.46253 
L 158.772875 451.85403 
L 157.097867 450.228699 
L 155.439195 448.5867 
L 153.797026 446.928196 
L 152.171524 445.253354 
L 150.562851 443.562341 
L 148.971168 441.855325 
L 147.396635 440.132479 
L 145.839409 438.393974 
L 144.299645 436.639983 
L 142.777498 434.870683 
L 141.27312 433.086251 
L 139.786661 431.286864 
L 138.31827 429.472702 
L 136.868094 427.643948 
L 135.436277 425.800783 
L 134.022963 423.943393 
L 132.628294 422.071963 
L 131.252408 420.186679 
L 129.895444 418.287732 
L 128.557536 416.37531 
L 127.23882 414.449604 
L 125.939426 412.510808 
L 125.075251 411.197767 
L 125.075251 411.197767 
Q 320.467101 283.5419 492.182596 441.617149 
z
" clip-path="url(#p98b4758cff)" style="fill: #000080; fill-opacity: 0.5; stroke: #808080; stroke-opacity: 0.5; stroke-width: 0.1"/>
   </g>
   <g id="patch_5">
    <path d="M 320.467101 50.145251 
L 322.801029 50.156921 
L 325.134723 50.191929 
L 327.46795 50.250272 
L 329.800478 50.331944 
L 332.132072 50.436936 
L 334.462499 50.565239 
L 336.791527 50.71684 
L 339.118923 50.891722 
L 341.444453 51.08987 
L 343.767886 51.311263 
L 346.088988 51.555878 
L 348.407529 51.823692 
L 350.723275 52.114677 
L 353.035996 52.428805 
L 355.34546 52.766044 
L 357.651436 53.126361 
L 359.953694 53.509719 
L 362.252003 53.916079 
L 364.546134 54.345403 
L 366.835857 54.797645 
L 369.120943 55.272762 
L 371.401164 55.770706 
L 373.676291 56.291427 
L 375.946097 56.834872 
L 378.210356 57.400988 
L 380.46884 57.989718 
L 382.721324 58.601003 
L 384.967583 59.234782 
L 387.207392 59.890991 
L 389.440527 60.569565 
L 391.666764 61.270436 
L 393.885882 61.993535 
L 396.097658 62.738788 
L 398.301871 63.506121 
L 400.4983 64.295457 
L 402.686726 65.106718 
L 404.866931 65.939822 
L 407.038695 66.794686 
L 409.201803 67.671225 
L 411.356037 68.569351 
L 413.501182 69.488974 
L 415.637024 70.430002 
L 417.763349 71.39234 
L 419.879945 72.375894 
L 421.986599 73.380564 
L 424.083101 74.40625 
L 426.169242 75.45285 
L 428.244813 76.520258 
L 430.309606 77.608368 
L 432.363415 78.717071 
L 434.406034 79.846257 
L 436.43726 80.995812 
L 438.456889 82.165621 
L 440.464718 83.355568 
L 442.460549 84.565534 
L 444.444179 85.795397 
L 446.415413 87.045034 
L 448.374051 88.314321 
L 450.319899 89.60313 
L 452.252762 90.911334 
L 454.172446 92.2388 
L 456.07876 93.585396 
L 457.971513 94.950988 
L 459.850516 96.335438 
L 461.71558 97.738609 
L 463.56652 99.160361 
L 465.403149 100.60055 
L 467.225286 102.059033 
L 469.032746 103.535665 
L 470.82535 105.030297 
L 472.602919 106.54278 
L 474.365274 108.072962 
L 476.112239 109.620692 
L 477.84364 111.185813 
L 479.559303 112.76817 
L 481.259058 114.367604 
L 482.942733 115.983956 
L 484.610161 117.617063 
L 486.261174 119.266762 
L 487.895609 120.932889 
L 489.5133 122.615277 
L 491.114087 124.313757 
L 492.69781 126.028159 
L 494.26431 127.758313 
L 495.81343 129.504046 
L 497.345015 131.265182 
L 498.858913 133.041545 
L 500.354972 134.832958 
L 501.833043 136.639242 
L 503.292977 138.460217 
L 504.734628 140.295699 
L 506.157853 142.145506 
L 507.562509 144.009452 
L 508.948455 145.887352 
L 510.315554 147.779016 
L 511.663668 149.684257 
L 512.992662 151.602884 
L 514.302404 153.534704 
L 515.592763 155.479526 
L 516.863609 157.437153 
L 518.114816 159.40739 
L 519.346258 161.390041 
L 520.557812 163.384907 
L 521.749357 165.391789 
L 522.920775 167.410485 
L 524.071947 169.440795 
L 525.202759 171.482514 
L 526.313097 173.53544 
L 527.402851 175.599365 
L 528.471912 177.674086 
L 529.520172 179.759392 
L 530.547528 181.855077 
L 531.553875 183.960931 
L 532.539114 186.076742 
L 533.503146 188.2023 
L 534.445874 190.337392 
L 535.367205 192.481805 
L 536.267046 194.635323 
L 537.145307 196.797732 
L 538.0019 198.968815 
L 538.83674 201.148355 
L 539.649744 203.336135 
L 540.440829 205.531935 
L 541.209917 207.735536 
L 541.956931 209.946718 
L 542.681796 212.165259 
L 543.38444 214.390937 
L 544.064792 216.623531 
L 544.722785 218.862817 
L 545.358352 221.10857 
L 545.971431 223.360567 
L 546.561959 225.618581 
L 547.129878 227.882388 
L 547.675131 230.151761 
L 548.197663 232.426473 
L 548.697422 234.706297 
L 549.174359 236.991004 
L 549.628425 239.280366 
L 550.059575 241.574154 
L 550.467765 243.872139 
L 550.852957 246.17409 
L 551.215109 248.479779 
L 551.554187 250.788974 
L 551.870157 253.101444 
L 552.162986 255.416958 
L 552.432646 257.735284 
L 552.67911 260.056191 
L 552.902353 262.379447 
L 553.102352 264.704819 
L 553.279088 267.032074 
L 553.432543 269.360981 
L 553.562702 271.691306 
L 553.669551 274.022815 
L 553.75308 276.355277 
L 553.813281 278.688457 
L 553.850147 281.022123 
L 553.863676 283.35604 
L 553.853865 285.689976 
L 553.820715 288.023698 
L 553.76423 290.356971 
L 553.684416 292.689562 
L 553.58128 295.021239 
L 553.454833 297.351768 
L 553.305087 299.680916 
L 553.132058 302.00845 
L 552.935762 304.334138 
L 552.71622 306.657746 
L 552.473453 308.979043 
L 552.207486 311.297796 
L 551.918344 313.613773 
L 551.606058 315.926744 
L 551.270658 318.236475 
L 550.912178 320.542738 
L 550.530654 322.8453 
L 550.126123 325.143932 
L 549.698627 327.438404 
L 549.248208 329.728486 
L 548.774911 332.01395 
L 548.278783 334.294566 
L 547.759874 336.570108 
L 547.218237 338.840346 
L 546.653924 341.105055 
L 546.066993 343.364007 
L 545.457502 345.616977 
L 544.825512 347.86374 
L 544.171086 350.104071 
L 543.494291 352.337745 
L 542.795192 354.56454 
L 542.073862 356.784233 
L 541.33037 358.996602 
L 540.564793 361.201425 
L 539.777206 363.398482 
L 538.967688 365.587554 
L 538.13632 367.768421 
L 537.283185 369.940866 
L 536.408369 372.10467 
L 535.511959 374.259619 
L 534.594045 376.405496 
L 533.654718 378.542087 
L 532.694073 380.669177 
L 531.712205 382.786555 
L 530.709213 384.894009 
L 529.685197 386.991327 
L 528.640259 389.078301 
L 527.574504 391.154721 
L 526.488038 393.22038 
L 525.380971 395.275071 
L 524.253412 397.318589 
L 523.105475 399.35073 
L 521.937274 401.371289 
L 520.748927 403.380066 
L 519.540551 405.376859 
L 518.312268 407.361468 
L 517.064201 409.333696 
L 515.796474 411.293345 
L 514.509215 413.240219 
L 513.202551 415.174123 
L 511.876614 417.094863 
L 510.531536 419.002249 
L 509.167452 420.896089 
L 507.784498 422.776193 
L 506.382813 424.642374 
L 504.962536 426.494445 
L 503.523809 428.332221 
L 502.066778 430.155519 
L 500.591586 431.964154 
L 499.098382 433.757948 
L 497.587315 435.53672 
L 496.058536 437.300293 
L 494.512198 439.048491 
L 492.948456 440.781137 
L 491.367466 442.49806 
L 489.769386 444.199088 
L 488.154376 445.88405 
L 486.522597 447.552777 
L 484.874213 449.205104 
L 483.209388 450.840865 
L 481.52829 452.459896 
L 479.831085 454.062035 
L 478.117944 455.647122 
L 476.389038 457.214999 
L 474.64454 458.765509 
L 472.884624 460.298496 
L 471.109467 461.813809 
L 469.319245 463.311294 
L 467.514139 464.790802 
L 465.694328 466.252185 
L 463.859994 467.695298 
L 462.011321 469.119995 
L 460.148494 470.526135 
L 458.271699 471.913577 
L 456.381123 473.282181 
L 454.476956 474.631812 
L 452.559388 475.962334 
L 450.628612 477.273614 
L 448.684819 478.56552 
L 446.728204 479.837925 
L 444.758964 481.0907 
L 442.777294 482.323721 
L 440.783394 483.536864 
L 438.777462 484.730007 
L 436.759699 485.903031 
L 434.730306 487.05582 
L 432.689488 488.188257 
L 430.637447 489.30023 
L 428.57439 490.391628 
L 426.500522 491.46234 
L 424.41605 492.512261 
L 422.321184 493.541284 
L 420.216133 494.549308 
L 418.101106 495.536232 
L 415.976317 496.501956 
L 413.841976 497.446384 
L 411.698298 498.369422 
L 409.545497 499.270978 
L 407.383789 500.15096 
L 405.213388 501.009283 
L 403.034514 501.845858 
L 400.847382 502.660603 
L 398.652213 503.453437 
L 396.449225 504.224279 
L 394.238639 504.973054 
L 392.020675 505.699686 
L 389.795557 506.404102 
L 387.563506 507.086232 
L 385.324745 507.746007 
L 383.079498 508.383363 
L 380.82799 508.998234 
L 378.570447 509.590561 
L 376.307093 510.160282 
L 374.038155 510.707342 
L 371.76386 511.231685 
L 369.484435 511.73326 
L 367.200108 512.212016 
L 364.911109 512.667904 
L 362.617665 513.100881 
L 360.320006 513.510902 
L 358.018361 513.897926 
L 355.712962 514.261914 
L 353.404038 514.602831 
L 351.09182 514.920642 
L 348.77654 515.215315 
L 346.458429 515.486821 
L 344.137719 515.735133 
L 341.814642 515.960226 
L 339.48943 516.162077 
L 337.162316 516.340666 
L 334.833532 516.495976 
L 332.503312 516.62799 
L 330.171888 516.736696 
L 327.839494 516.822082 
L 325.506362 516.884141 
L 323.172727 516.922866 
L 320.838821 516.938253 
L 320.467101 516.938549 
L 320.467101 519.296091 
L 320.842576 519.295792 
L 323.200056 519.28025 
L 325.557264 519.241134 
L 327.913963 519.178448 
L 330.269916 519.092199 
L 332.62489 518.982395 
L 334.978648 518.849047 
L 337.330954 518.692169 
L 339.681575 518.511776 
L 342.030274 518.307886 
L 344.376816 518.080519 
L 346.720968 517.829699 
L 349.062494 517.555451 
L 351.401161 517.257801 
L 353.736734 516.93678 
L 356.068981 516.592419 
L 358.397667 516.224754 
L 360.72256 515.833821 
L 363.043428 515.419658 
L 365.360038 514.982308 
L 367.672159 514.521815 
L 369.979559 514.038223 
L 372.282009 513.531582 
L 374.579276 513.001942 
L 376.871133 512.449357 
L 379.157349 511.87388 
L 381.437696 511.275571 
L 383.711947 510.654489 
L 385.979873 510.010695 
L 388.241247 509.344255 
L 390.495844 508.655235 
L 392.743439 507.943704 
L 394.983806 507.209732 
L 397.216721 506.453394 
L 399.441961 505.674765 
L 401.659304 504.873923 
L 403.868528 504.050948 
L 406.069412 503.205923 
L 408.261735 502.338931 
L 410.445279 501.450059 
L 412.619826 500.539397 
L 414.785157 499.607036 
L 416.941056 498.653068 
L 419.087309 497.677589 
L 421.223699 496.680696 
L 423.350013 495.66249 
L 425.46604 494.623072 
L 427.571566 493.562546 
L 429.666383 492.481019 
L 431.750279 491.378597 
L 433.823047 490.255392 
L 435.88448 489.111516 
L 437.934371 487.947083 
L 439.972516 486.76221 
L 441.99871 485.557015 
L 444.012751 484.331618 
L 446.014437 483.086143 
L 448.003569 481.820713 
L 449.979947 480.535456 
L 451.943374 479.2305 
L 453.893654 477.905974 
L 455.830591 476.562013 
L 457.753992 475.19875 
L 459.663664 473.816321 
L 461.559417 472.414865 
L 463.441061 470.994522 
L 465.308407 469.555433 
L 467.161269 468.097744 
L 468.999462 466.621599 
L 470.822802 465.127146 
L 472.631107 463.614535 
L 474.424195 462.083917 
L 476.201887 460.535444 
L 477.964007 458.969273 
L 479.710376 457.385559 
L 481.440822 455.78446 
L 483.15517 454.166138 
L 484.85325 452.530753 
L 486.534891 450.87847 
L 488.199925 449.209453 
L 489.848187 447.523869 
L 491.47951 445.821888 
L 493.093732 444.103678 
L 494.690692 442.369412 
L 496.27023 440.619264 
L 497.832187 438.853409 
L 499.376408 437.072022 
L 500.902738 435.275282 
L 502.411025 433.463369 
L 503.901118 431.636464 
L 505.372867 429.79475 
L 506.826126 427.93841 
L 508.260749 426.067632 
L 509.676593 424.1826 
L 511.073516 422.283505 
L 512.451379 420.370535 
L 513.810043 418.443883 
L 515.149374 416.503741 
L 516.469236 414.550303 
L 517.769498 412.583764 
L 519.05003 410.60432 
L 520.310704 408.612171 
L 521.551394 406.607515 
L 522.771975 404.590552 
L 523.972327 402.561485 
L 525.152327 400.520516 
L 526.31186 398.467849 
L 527.450808 396.403689 
L 528.569058 394.328243 
L 529.666498 392.241719 
L 530.743018 390.144325 
L 531.798511 388.036271 
L 532.832871 385.917768 
L 533.845994 383.789026 
L 534.83778 381.650261 
L 535.808129 379.501684 
L 536.756944 377.343512 
L 537.68413 375.17596 
L 538.589594 372.999244 
L 539.473247 370.813582 
L 540.334999 368.619194 
L 541.174764 366.416298 
L 541.992459 364.205114 
L 542.788002 361.985864 
L 543.561312 359.75877 
L 544.312314 357.524055 
L 545.040931 355.281941 
L 545.747091 353.032653 
L 546.430723 350.776416 
L 547.091758 348.513456 
L 547.730132 346.243998 
L 548.345779 343.968271 
L 548.938639 341.686501 
L 549.508652 339.398916 
L 550.055761 337.105746 
L 550.579911 334.80722 
L 551.08105 332.503567 
L 551.559128 330.195017 
L 552.014097 327.881803 
L 552.445911 325.564155 
L 552.854528 323.242304 
L 553.239906 320.916484 
L 553.602007 318.586926 
L 553.940795 316.253863 
L 554.256236 313.91753 
L 554.548298 311.578158 
L 554.816952 309.235984 
L 555.062171 306.89124 
L 555.283931 304.544161 
L 555.482209 302.194981 
L 555.656986 299.843937 
L 555.808244 297.491262 
L 555.935969 295.137192 
L 556.040146 292.781963 
L 556.120767 290.42581 
L 556.177822 288.068968 
L 556.211307 285.711674 
L 556.221217 283.354163 
L 556.207552 280.99667 
L 556.170313 278.639432 
L 556.109504 276.282685 
L 556.025131 273.926663 
L 555.917203 271.571603 
L 555.785729 269.217739 
L 555.630724 266.865308 
L 555.452203 264.514545 
L 555.250183 262.165685 
L 555.024686 259.818962 
L 554.775733 257.474611 
L 554.503349 255.132867 
L 554.207561 252.793964 
L 553.8884 250.458136 
L 553.545897 248.125616 
L 553.180086 245.796638 
L 552.791004 243.471434 
L 552.37869 241.150237 
L 551.943185 238.833279 
L 551.484533 236.520793 
L 551.002779 234.213008 
L 550.497971 231.910156 
L 549.970161 229.612467 
L 549.419401 227.320171 
L 548.845745 225.033497 
L 548.249252 222.752674 
L 547.629981 220.47793 
L 546.987994 218.209493 
L 546.323355 215.947588 
L 545.63613 213.692443 
L 544.926389 211.444282 
L 544.194202 209.203332 
L 543.439642 206.969815 
L 542.662786 204.743955 
L 541.86371 202.525975 
L 541.042494 200.316097 
L 540.199221 198.114541 
L 539.333975 195.921528 
L 538.446843 193.737277 
L 537.537913 191.562006 
L 536.607276 189.395933 
L 535.655025 187.239274 
L 534.681255 185.092246 
L 533.686065 182.955062 
L 532.669552 180.827938 
L 531.63182 178.711084 
L 530.572971 176.604714 
L 529.493112 174.509037 
L 528.39235 172.424263 
L 527.270796 170.350601 
L 526.128562 168.288258 
L 524.965761 166.23744 
L 523.782512 164.198353 
L 522.57893 162.1712 
L 521.355138 160.156184 
L 520.111257 158.153506 
L 518.847412 156.163367 
L 517.563729 154.185966 
L 516.260336 152.2215 
L 514.937365 150.270167 
L 513.594946 148.33216 
L 512.233215 146.407674 
L 510.852307 144.496902 
L 509.452361 142.600034 
L 508.033517 140.717259 
L 506.595916 138.848768 
L 505.139703 136.994745 
L 503.665022 135.155377 
L 502.172022 133.330848 
L 500.660851 131.521339 
L 499.131661 129.727033 
L 497.584605 127.948108 
L 496.019837 126.184742 
L 494.437514 124.437112 
L 492.837794 122.705392 
L 491.220838 120.989755 
L 489.586806 119.290374 
L 487.935862 117.607417 
L 486.268171 115.941054 
L 484.583901 114.291451 
L 482.883219 112.658773 
L 481.166295 111.043183 
L 479.433302 109.444843 
L 477.684412 107.863912 
L 475.919801 106.300549 
L 474.139644 104.75491 
L 472.34412 103.227149 
L 470.533409 101.71742 
L 468.707691 100.225873 
L 466.86715 98.752658 
L 465.011968 97.297921 
L 463.142332 95.861809 
L 461.258429 94.444464 
L 459.360447 93.046029 
L 457.448575 91.666643 
L 455.523005 90.306445 
L 453.58393 88.96557 
L 451.631544 87.644153 
L 449.666041 86.342325 
L 447.687618 85.060217 
L 445.696473 83.797957 
L 443.692806 82.555671 
L 441.676816 81.333484 
L 439.648705 80.131518 
L 437.608676 78.949892 
L 435.556933 77.788725 
L 433.493681 76.648134 
L 431.419126 75.528231 
L 429.333477 74.42913 
L 427.236941 73.35094 
L 425.129728 72.293769 
L 423.012048 71.257722 
L 420.884115 70.242904 
L 418.74614 69.249416 
L 416.598337 68.277356 
L 414.44092 67.326823 
L 412.274107 66.397911 
L 410.098113 65.490713 
L 407.913156 64.605321 
L 405.719454 63.741821 
L 403.517228 62.900302 
L 401.306696 62.080847 
L 399.08808 61.283537 
L 396.861603 60.508453 
L 394.627486 59.755672 
L 392.385953 59.02527 
L 390.137228 58.317319 
L 387.881536 57.631891 
L 385.619103 56.969053 
L 383.350155 56.328873 
L 381.074918 55.711413 
L 378.793621 55.116736 
L 376.506491 54.544902 
L 374.213758 53.995967 
L 371.915649 53.469987 
L 369.612396 52.967013 
L 367.304228 52.487097 
L 364.991377 52.030287 
L 362.674073 51.596627 
L 360.352549 51.186161 
L 358.027036 50.798931 
L 355.697767 50.434975 
L 353.364975 50.094329 
L 351.028893 49.777028 
L 348.689756 49.483104 
L 346.347795 49.212585 
L 344.003247 48.965499 
L 341.656346 48.74187 
L 339.307325 48.541721 
L 336.95642 48.365071 
L 334.603867 48.21194 
L 332.2499 48.082341 
L 329.894754 47.976288 
L 327.538666 47.893791 
L 325.18187 47.834859 
L 322.824604 47.799497 
L 320.467101 47.78771 
L 320.467101 50.145251 
z
" clip-path="url(#p98b4758cff)" style="fill: none; stroke: #000000; stroke-width: 0.5; stroke-linejoin: miter"/>
   </g>
   <g id="patch_6">
    <path d="M 320.467101 516.938549 
L 318.133173 516.926879 
L 315.799479 516.891871 
L 313.466252 516.833528 
L 311.133724 516.751856 
L 308.80213 516.646864 
L 306.471703 516.518561 
L 304.142675 516.366961 
L 301.815279 516.192078 
L 299.489749 515.99393 
L 297.166316 515.772538 
L 294.845213 515.527922 
L 292.526673 515.260109 
L 290.210927 514.969123 
L 287.898206 514.654995 
L 285.588742 514.317756 
L 283.282765 513.95744 
L 280.980508 513.574082 
L 278.682199 513.167721 
L 276.388068 512.738398 
L 274.098345 512.286155 
L 271.813259 511.811038 
L 269.533038 511.313094 
L 267.257911 510.792374 
L 264.988105 510.248928 
L 262.723846 509.682812 
L 260.465362 509.094082 
L 258.212878 508.482798 
L 255.966619 507.849019 
L 253.72681 507.192809 
L 251.493675 506.514235 
L 249.267438 505.813364 
L 247.04832 505.090266 
L 244.836544 504.345013 
L 242.632331 503.57768 
L 240.435902 502.788343 
L 238.247476 501.977082 
L 236.067271 501.143978 
L 233.895506 500.289114 
L 231.732399 499.412575 
L 229.578165 498.514449 
L 227.43302 497.594827 
L 225.297178 496.653799 
L 223.170853 495.69146 
L 221.054257 494.707906 
L 218.947603 493.703236 
L 216.851101 492.67755 
L 214.76496 491.630951 
L 212.689389 490.563543 
L 210.624596 489.475432 
L 208.570787 488.366729 
L 206.528168 487.237543 
L 204.496942 486.087988 
L 202.477313 484.918179 
L 200.469484 483.728232 
L 198.473653 482.518267 
L 196.490023 481.288404 
L 194.518789 480.038766 
L 192.560151 478.769479 
L 190.614303 477.48067 
L 188.68144 476.172467 
L 186.761756 474.845001 
L 184.855442 473.498404 
L 182.962689 472.132813 
L 181.083686 470.748362 
L 179.218622 469.345191 
L 177.367682 467.92344 
L 175.531053 466.48325 
L 173.708916 465.024767 
L 171.901456 463.548135 
L 170.108852 462.053503 
L 168.331283 460.541021 
L 166.568928 459.010838 
L 164.821963 457.463108 
L 163.090562 455.897987 
L 161.374899 454.31563 
L 159.675144 452.716196 
L 157.991469 451.099845 
L 156.324041 449.466737 
L 154.673028 447.817038 
L 153.038593 446.150911 
L 151.420902 444.468524 
L 149.820115 442.770044 
L 148.236392 441.055641 
L 146.669892 439.325487 
L 145.120772 437.579755 
L 143.589187 435.818619 
L 142.075289 434.042255 
L 140.57923 432.250842 
L 139.101159 430.444558 
L 137.641225 428.623584 
L 136.199574 426.788101 
L 134.776349 424.938294 
L 133.371693 423.074348 
L 131.985747 421.196449 
L 130.618648 419.304784 
L 129.270534 417.399543 
L 127.94154 415.480916 
L 126.631798 413.549096 
L 125.341439 411.604275 
L 125.075251 411.197767 
L 123.101595 412.48722 
L 123.370473 412.897834 
L 124.673866 414.8623 
L 125.996837 416.813634 
L 127.339256 418.75164 
L 128.700987 420.676126 
L 130.081895 422.586899 
L 131.481841 424.483767 
L 132.900685 426.366541 
L 134.338286 428.235033 
L 135.794499 430.089055 
L 137.26918 431.928423 
L 138.76218 433.752952 
L 140.273351 435.562461 
L 141.802541 437.356767 
L 143.349597 439.135693 
L 144.914365 440.899058 
L 146.496688 442.646689 
L 148.096408 444.378409 
L 149.713364 446.094045 
L 151.347396 447.793427 
L 152.99834 449.476383 
L 154.666031 451.142746 
L 156.350301 452.792349 
L 158.050983 454.425027 
L 159.767907 456.040617 
L 161.5009 457.638958 
L 163.24979 459.219888 
L 165.014401 460.783251 
L 166.794558 462.32889 
L 168.590082 463.856651 
L 170.400793 465.36638 
L 172.226511 466.857927 
L 174.067052 468.331143 
L 175.922234 469.785879 
L 177.79187 471.221992 
L 179.675773 472.639336 
L 181.573755 474.037771 
L 183.485627 475.417157 
L 185.411197 476.777355 
L 187.350272 478.11823 
L 189.302658 479.439647 
L 191.268161 480.741475 
L 193.246584 482.023583 
L 195.237729 483.285843 
L 197.241396 484.528129 
L 199.257386 485.750316 
L 201.285497 486.952283 
L 203.325526 488.133908 
L 205.377269 489.295075 
L 207.440521 490.435667 
L 209.515076 491.555569 
L 211.600725 492.65467 
L 213.697261 493.73286 
L 215.804474 494.790031 
L 217.922154 495.826078 
L 220.050087 496.840896 
L 222.188062 497.834385 
L 224.335865 498.806444 
L 226.493281 499.756977 
L 228.660095 500.685889 
L 230.836089 501.593087 
L 233.021046 502.47848 
L 235.214747 503.341979 
L 237.416974 504.183498 
L 239.627506 505.002954 
L 241.846121 505.800263 
L 244.072599 506.575347 
L 246.306716 507.328128 
L 248.548249 508.05853 
L 250.796974 508.766481 
L 253.052666 509.451909 
L 255.315099 510.114747 
L 257.584047 510.754928 
L 259.859284 511.372387 
L 262.140581 511.967064 
L 264.427711 512.538898 
L 266.720444 513.087833 
L 269.018553 513.613813 
L 271.321806 514.116787 
L 273.629974 514.596703 
L 275.942825 515.053514 
L 278.260129 515.487174 
L 280.581653 515.897639 
L 282.907166 516.284869 
L 285.236435 516.648825 
L 287.569227 516.989471 
L 289.905309 517.306772 
L 292.244446 517.600697 
L 294.586407 517.871216 
L 296.930955 518.118302 
L 299.277856 518.341931 
L 301.626877 518.54208 
L 303.977782 518.718729 
L 306.330335 518.871861 
L 308.684302 519.001459 
L 311.039448 519.107513 
L 313.395536 519.190009 
L 315.752332 519.248942 
L 318.109598 519.284303 
L 320.467101 519.296091 
L 320.467101 516.938549 
z
" clip-path="url(#p98b4758cff)" style="fill: none; stroke: #000000; stroke-width: 0.5; stroke-linejoin: miter"/>
   </g>
   <g id="patch_7">
    <path d="M 125.075251 411.197767 
L 123.808483 409.237499 
L 122.56138 407.26466 
L 121.334069 405.27945 
L 120.12667 403.282066 
L 118.939305 401.272708 
L 117.772093 399.251577 
L 116.62515 397.218876 
L 115.498592 395.174806 
L 114.392529 393.119574 
L 113.307075 391.053384 
L 112.242336 388.976442 
L 111.198419 386.888958 
L 110.175429 384.791139 
L 109.173468 382.683194 
L 108.192636 380.565336 
L 107.233031 378.437776 
L 106.29475 376.300726 
L 105.377886 374.1544 
L 104.48253 371.999013 
L 103.608773 369.834781 
L 102.756701 367.661919 
L 101.926401 365.480645 
L 101.117954 363.291178 
L 100.331442 361.093736 
L 99.566943 358.888538 
L 98.824534 356.675806 
L 98.104289 354.455761 
L 97.406281 352.228624 
L 96.730578 349.994619 
L 96.077248 347.753968 
L 95.446358 345.506896 
L 94.837969 343.253628 
L 94.252143 340.994389 
L 93.688938 338.729404 
L 93.148411 336.458901 
L 92.630616 334.183106 
L 92.135604 331.902248 
L 91.663425 329.616553 
L 91.214126 327.32625 
L 90.787753 325.03157 
L 90.384347 322.73274 
L 90.003949 320.429991 
L 89.646597 318.123554 
L 89.312328 315.813658 
L 89.001173 313.500535 
L 88.713165 311.184417 
L 88.448332 308.865534 
L 88.206701 306.544119 
L 87.988295 304.220403 
L 87.793137 301.89462 
L 87.621247 299.567001 
L 87.472641 297.23778 
L 87.347334 294.90719 
L 87.245339 292.575463 
L 87.166666 290.242832 
L 87.111322 287.909532 
L 87.079314 285.575795 
L 87.070645 283.241854 
L 87.085315 280.907943 
L 87.123323 278.574296 
L 87.184666 276.241146 
L 87.269336 273.908725 
L 87.377326 271.577268 
L 87.508625 269.247007 
L 87.663219 266.918176 
L 87.841094 264.591007 
L 88.042231 262.265733 
L 88.26661 259.942587 
L 88.514209 257.621801 
L 88.785003 255.303607 
L 89.078965 252.988236 
L 89.396066 250.675921 
L 89.736274 248.366893 
L 90.099555 246.061382 
L 90.485872 243.759619 
L 90.895187 241.461834 
L 91.327459 239.168257 
L 91.782645 236.879117 
L 92.260699 234.594644 
L 92.761574 232.315065 
L 93.285219 230.040609 
L 93.831582 227.771503 
L 94.400608 225.507974 
L 94.992241 223.250249 
L 95.606421 220.998552 
L 96.243087 218.75311 
L 96.902175 216.514147 
L 97.58362 214.281886 
L 98.287353 212.056552 
L 99.013303 209.838365 
L 99.761399 207.627549 
L 100.531565 205.424325 
L 101.323724 203.228912 
L 102.137798 201.04153 
L 102.973704 198.862399 
L 103.83136 196.691735 
L 104.710679 194.529756 
L 105.611573 192.376678 
L 106.533953 190.232717 
L 107.477725 188.098087 
L 108.442797 185.973001 
L 109.429071 183.857671 
L 110.436448 181.75231 
L 111.464829 179.657128 
L 112.514109 177.572335 
L 113.584185 175.498138 
L 114.674948 173.434745 
L 115.786291 171.382363 
L 116.918102 169.341197 
L 118.070267 167.311451 
L 119.242672 165.293328 
L 120.435199 163.28703 
L 121.647729 161.292757 
L 122.880141 159.310708 
L 124.132312 157.341083 
L 125.404116 155.384078 
L 126.695425 153.439889 
L 128.006112 151.508709 
L 129.336045 149.590733 
L 130.685091 147.686152 
L 132.053115 145.795156 
L 133.43998 143.917935 
L 134.845548 142.054676 
L 136.269677 140.205566 
L 137.712227 138.370789 
L 139.173051 136.550529 
L 140.652005 134.744968 
L 142.14894 132.954287 
L 143.663707 131.178665 
L 145.196154 129.418278 
L 146.746128 127.673304 
L 148.313474 125.943917 
L 149.898035 124.230289 
L 151.499653 122.532592 
L 153.118168 120.850996 
L 154.753417 119.185669 
L 156.405238 117.536778 
L 158.073464 115.904487 
L 159.75793 114.288959 
L 161.458467 112.690357 
L 163.174904 111.10884 
L 164.90707 109.544565 
L 166.654793 107.997691 
L 168.417896 106.46837 
L 170.196204 104.956757 
L 171.989539 103.463003 
L 173.797722 101.987256 
L 175.620572 100.529664 
L 177.457906 99.090373 
L 179.309541 97.669528 
L 181.175291 96.267269 
L 183.054971 94.883738 
L 184.948392 93.519072 
L 186.855364 92.173409 
L 188.775698 90.846882 
L 190.7092 89.539625 
L 192.655679 88.251767 
L 194.614938 86.983439 
L 196.586782 85.734766 
L 198.571015 84.505874 
L 200.567436 83.296885 
L 202.575848 82.107921 
L 204.596049 80.939099 
L 206.627837 79.790538 
L 208.671008 78.662352 
L 210.725359 77.554654 
L 212.790685 76.467554 
L 214.866777 75.401161 
L 216.95343 74.355582 
L 219.050434 73.330922 
L 221.157579 72.327283 
L 223.274656 71.344765 
L 225.401451 70.383466 
L 227.537753 69.443484 
L 229.683348 68.52491 
L 231.838022 67.627839 
L 234.001558 66.752358 
L 236.17374 65.898557 
L 238.354352 65.066519 
L 240.543175 64.256329 
L 242.73999 63.468067 
L 244.944578 62.701813 
L 247.156718 61.957642 
L 249.37619 61.23563 
L 251.60277 60.535848 
L 253.836236 59.858366 
L 256.076366 59.203252 
L 258.322934 58.570573 
L 260.575717 57.96039 
L 262.834489 57.372765 
L 265.099025 56.807757 
L 267.369097 56.265422 
L 269.644478 55.745814 
L 271.924942 55.248986 
L 274.210261 54.774987 
L 276.500204 54.323865 
L 278.794545 53.895664 
L 281.093053 53.490428 
L 283.395498 53.108196 
L 285.70165 52.749008 
L 288.011279 52.412899 
L 290.324153 52.099902 
L 292.640041 51.81005 
L 294.958713 51.543371 
L 297.279935 51.299891 
L 299.603475 51.079635 
L 301.929103 50.882625 
L 304.256583 50.708881 
L 306.585685 50.55842 
L 308.916175 50.431257 
L 311.24782 50.327406 
L 313.580387 50.246875 
L 315.913643 50.189674 
L 318.247354 50.155807 
L 320.467101 50.145251 
L 320.467101 47.78771 
L 318.224933 47.798372 
L 315.867649 47.83258 
L 313.510825 47.890359 
L 311.154696 47.971704 
L 308.799499 48.076604 
L 306.445469 48.205052 
L 304.092841 48.357032 
L 301.74185 48.532531 
L 299.392732 48.731531 
L 297.045721 48.954012 
L 294.701052 49.199951 
L 292.35896 49.469324 
L 290.019679 49.762104 
L 287.683442 50.078263 
L 285.350484 50.417767 
L 283.021037 50.780583 
L 280.695335 51.166676 
L 278.37361 51.576005 
L 276.056094 52.008531 
L 273.74302 52.464211 
L 271.434618 52.942997 
L 269.131119 53.444844 
L 266.832753 53.9697 
L 264.539751 54.517513 
L 262.252342 55.088228 
L 259.970754 55.681789 
L 257.695216 56.298135 
L 255.425954 56.937205 
L 253.163197 57.598936 
L 250.90717 58.283261 
L 248.6581 58.990112 
L 246.416209 59.719417 
L 244.181724 60.471105 
L 241.954868 61.245099 
L 239.735863 62.041323 
L 237.52493 62.859697 
L 235.322292 63.700139 
L 233.128168 64.562565 
L 230.942778 65.446889 
L 228.766341 66.353022 
L 226.599073 67.280873 
L 224.441192 68.230351 
L 222.292914 69.201359 
L 220.154453 70.193802 
L 218.026023 71.207579 
L 215.907837 72.242589 
L 213.800107 73.298729 
L 211.703044 74.375894 
L 209.616857 75.473974 
L 207.541755 76.592862 
L 205.477945 77.732444 
L 203.425634 78.892606 
L 201.385027 80.073234 
L 199.356329 81.274208 
L 197.339741 82.495409 
L 195.335466 83.736714 
L 193.343704 84.998 
L 191.364654 86.27914 
L 189.398514 87.580006 
L 187.445482 88.900468 
L 185.505751 90.240394 
L 183.579516 91.59965 
L 181.66697 92.9781 
L 179.768303 94.375606 
L 177.883707 95.792029 
L 176.013369 97.227227 
L 174.157475 98.681056 
L 172.316213 100.15337 
L 170.489766 101.644024 
L 168.678316 103.152867 
L 166.882045 104.679749 
L 165.101133 106.224517 
L 163.335757 107.787017 
L 161.586094 109.367091 
L 159.852319 110.964584 
L 158.134605 112.579334 
L 156.433124 114.21118 
L 154.748047 115.859958 
L 153.079542 117.525505 
L 151.427775 119.207654 
L 149.792911 120.906236 
L 148.175115 122.621081 
L 146.574549 124.352018 
L 144.991371 126.098874 
L 143.425741 127.861474 
L 141.877814 129.639642 
L 140.347747 131.4332 
L 138.835691 133.241969 
L 137.341798 135.065768 
L 135.866218 136.904414 
L 134.409097 138.757724 
L 132.970583 140.625512 
L 131.550817 142.507592 
L 130.149943 144.403775 
L 128.768101 146.313872 
L 127.405429 148.237691 
L 126.062062 150.175041 
L 124.738136 152.125727 
L 123.433782 154.089555 
L 122.149132 156.066328 
L 120.884313 158.055848 
L 119.639453 160.057917 
L 118.414675 162.072334 
L 117.210102 164.098898 
L 116.025855 166.137406 
L 114.862051 168.187655 
L 113.718808 170.249439 
L 112.59624 172.322552 
L 111.494458 174.406787 
L 110.413574 176.501935 
L 109.353695 178.607787 
L 108.314927 180.724133 
L 107.297374 182.85076 
L 106.301137 184.987456 
L 105.326318 187.134008 
L 104.373012 189.2902 
L 103.441315 191.455818 
L 102.531321 193.630643 
L 101.64312 195.81446 
L 100.776801 198.00705 
L 99.932451 200.208193 
L 99.110155 202.41767 
L 98.309994 204.635258 
L 97.532048 206.860738 
L 96.776396 209.093885 
L 96.043113 211.334477 
L 95.332272 213.58229 
L 94.643944 215.837099 
L 93.978198 218.098678 
L 93.335101 220.366801 
L 92.714717 222.641242 
L 92.117108 224.921773 
L 91.542334 227.208166 
L 90.990453 229.500192 
L 90.461518 231.797622 
L 89.955584 234.100227 
L 89.472701 236.407776 
L 89.012917 238.720038 
L 88.576279 241.036782 
L 88.162829 243.357777 
L 87.77261 245.68279 
L 87.40566 248.01159 
L 87.062015 250.343942 
L 86.741712 252.679613 
L 86.44478 255.018372 
L 86.17125 257.359982 
L 85.92115 259.70421 
L 85.694505 262.050823 
L 85.491336 264.399584 
L 85.311665 266.75026 
L 85.155509 269.102614 
L 85.022884 271.456413 
L 84.913803 273.81142 
L 84.828277 276.167401 
L 84.766316 278.524118 
L 84.727923 280.881338 
L 84.713105 283.238823 
L 84.721862 285.596339 
L 84.754193 287.953649 
L 84.810096 290.310519 
L 84.889563 292.666711 
L 84.992589 295.021991 
L 85.119161 297.376123 
L 85.269269 299.728871 
L 85.442895 302.080001 
L 85.640024 304.429277 
L 85.860636 306.776464 
L 86.104708 309.121328 
L 86.372216 311.463634 
L 86.663133 313.803148 
L 86.977431 316.139635 
L 87.315077 318.472863 
L 87.676038 320.802598 
L 88.060279 323.128607 
L 88.467759 325.450657 
L 88.89844 327.768516 
L 89.352277 330.081953 
L 89.829225 332.390736 
L 90.329237 334.694634 
L 90.852263 336.993416 
L 91.39825 339.286854 
L 91.967144 341.574717 
L 92.558887 343.856777 
L 93.173421 346.132805 
L 93.810684 348.402575 
L 94.470613 350.665858 
L 95.153141 352.922429 
L 95.8582 355.172062 
L 96.58572 357.414532 
L 97.335628 359.649615 
L 98.107849 361.877087 
L 98.902306 364.096726 
L 99.718919 366.30831 
L 100.557607 368.511616 
L 101.418285 370.706426 
L 102.300868 372.89252 
L 103.205268 375.069678 
L 104.131393 377.237684 
L 105.079152 379.39632 
L 106.048449 381.545371 
L 107.039189 383.684622 
L 108.051271 385.813858 
L 109.084594 387.932867 
L 110.139055 390.041438 
L 111.214549 392.139358 
L 112.310968 394.226419 
L 113.428203 396.302412 
L 114.566141 398.367128 
L 115.724669 400.420362 
L 116.903671 402.461908 
L 118.103029 404.491563 
L 119.322624 406.509122 
L 120.562333 408.514385 
L 121.822032 410.507151 
L 123.101595 412.48722 
L 125.075251 411.197767 
z
" clip-path="url(#p98b4758cff)" style="fill: none; stroke: #000000; stroke-width: 0.5; stroke-linejoin: miter"/>
   </g>
   <g id="text_1">
    <text style="font: 3px 'DejaVu Sans', 'Bitstream Vera Sans', 'Computer Modern Sans Serif', 'Lucida Grande', 'Verdana', 'Geneva', 'Lucid', 'Arial', 'Helvetica', 'Avant Garde', sans-serif; text-anchor: start" x="558.578834" y="284.681666" transform="rotate(-0 558.578834 284.681666)">University of Macau</text>
   </g>
   <g id="text_2">
    <text style="font: 3px 'DejaVu Sans', 'Bitstream Vera Sans', 'Computer Modern Sans Serif', 'Lucida Grande', 'Verdana', 'Geneva', 'Lucid', 'Arial', 'Helvetica', 'Avant Garde', sans-serif; text-anchor: end" x="208.140837" y="493.497387" transform="rotate(-61.578947 208.140837 493.497387)">Macao Polytechnic University</text>
   </g>
   <g id="text_3">
    <text style="font: 3px 'DejaVu Sans', 'Bitstream Vera Sans', 'Computer Modern Sans Serif', 'Lucida Grande', 'Verdana', 'Geneva', 'Lucid', 'Arial', 'Helvetica', 'Avant Garde', sans-serif; text-anchor: end" x="110.511614" y="171.215636" transform="rotate(-331.578947 110.511614 171.215636)">Macau University of Science and Technology Foundation</text>
   </g>
  </g>
 </g>
 <defs>
  <clipPath id="p98b4758cff">
   <path d="M 568.009001 283.5419 
C 568.009001 251.034996 561.60585 218.84418 549.165996 188.811716 
C 536.726142 158.779252 518.49151 131.489197 495.505657 108.503344 
C 472.519805 85.517491 445.229749 67.282859 415.197285 54.843005 
C 385.164821 42.403151 352.974005 36 320.467101 36 
C 287.960196 36 255.769381 42.403151 225.736917 54.843005 
C 195.704453 67.282859 168.414397 85.517491 145.428545 108.503344 
C 122.442692 131.489197 104.20806 158.779252 91.768206 188.811716 
C 79.328352 218.84418 72.925201 251.034996 72.925201 283.5419 
C 72.925201 316.048805 79.328352 348.23962 91.768206 378.272084 
C 104.20806 408.304548 122.442692 435.594604 145.428545 458.580456 
C 168.414397 481.566309 195.704453 499.800941 225.736917 512.240795 
C 255.769381 524.680649 287.960196 531.0838 320.467101 531.0838 
C 352.974005 531.0838 385.164821 524.680649 415.197285 512.240795 
C 445.229749 499.800941 472.519805 481.566309 495.505657 458.580456 
C 518.49151 435.594604 536.726142 408.304548 549.165996 378.272084 
C 561.60585 348.23962 568.009001 316.048805 568.009001 283.5419 
M 320.467101 283.5419 
C 320.467101 283.5419 320.467101 283.5419 320.467101 283.5419 
C 320.467101 283.5419 320.467101 283.5419 320.467101 283.5419 
C 320.467101 283.5419 320.467101 283.5419 320.467101 283.5419 
C 320.467101 283.5419 320.467101 283.5419 320.467101 283.5419 
C 320.467101 283.5419 320.467101 283.5419 320.467101 283.5419 
C 320.467101 283.5419 320.467101 283.5419 320.467101 283.5419 
C 320.467101 283.5419 320.467101 283.5419 320.467101 283.5419 
C 320.467101 283.5419 320.467101 283.5419 320.467101 283.5419 
C 320.467101 283.5419 320.467101 283.5419 320.467101 283.5419 
C 320.467101 283.5419 320.467101 283.5419 320.467101 283.5419 
C 320.467101 283.5419 320.467101 283.5419 320.467101 283.5419 
C 320.467101 283.5419 320.467101 283.5419 320.467101 283.5419 
C 320.467101 283.5419 320.467101 283.5419 320.467101 283.5419 
C 320.467101 283.5419 320.467101 283.5419 320.467101 283.5419 
C 320.467101 283.5419 320.467101 283.5419 320.467101 283.5419 
C 320.467101 283.5419 320.467101 283.5419 320.467101 283.5419 
z
"/>
  </clipPath>
 </defs>
</svg>
