<?xml version="1.0" encoding="utf-8" standalone="no"?>
<!DOCTYPE svg PUBLIC "-//W3C//DTD SVG 1.1//EN"
  "http://www.w3.org/Graphics/SVG/1.1/DTD/svg11.dtd">
<svg xmlns:xlink="http://www.w3.org/1999/xlink" width="626.394486pt" height="591.26475pt" viewBox="0 0 626.394486 591.26475" xmlns="http://www.w3.org/2000/svg" version="1.1">
 <metadata>
  <rdf:RDF xmlns:dc="http://purl.org/dc/elements/1.1/" xmlns:cc="http://creativecommons.org/ns#" xmlns:rdf="http://www.w3.org/1999/02/22-rdf-syntax-ns#">
   <cc:Work>
    <dc:type rdf:resource="http://purl.org/dc/dcmitype/StillImage"/>
    <dc:date>2024-11-16T04:22:15.108944</dc:date>
    <dc:format>image/svg+xml</dc:format>
    <dc:creator>
     <cc:Agent>
      <dc:title>Matplotlib v3.8.4, https://matplotlib.org/</dc:title>
     </cc:Agent>
    </dc:creator>
   </cc:Work>
  </rdf:RDF>
 </metadata>
 <defs>
  <style type="text/css">*{stroke-linejoin: round; stroke-linecap: butt}</style>
 </defs>
 <g id="figure_1">
  <g id="patch_1">
   <path d="M 0 591.26475 
L 626.394486 591.26475 
L 626.394486 0 
L 0 0 
z
" style="fill: #ffffff"/>
  </g>
  <g id="axes_1">
   <g id="patch_2">
    <path d="M 312.498337 50.836136 
L 314.946258 50.848375 
L 317.393935 50.885093 
L 319.841122 50.946286 
L 322.287575 51.031947 
L 324.733049 51.142067 
L 327.1773 51.276637 
L 329.620083 51.435642 
L 332.061153 51.619066 
L 334.500267 51.826891 
L 336.937182 52.059097 
L 339.371652 52.31566 
L 341.803435 52.596555 
L 344.232287 52.901752 
L 346.657966 53.231223 
L 349.080229 53.584934 
L 351.498834 53.962849 
L 353.913539 54.364931 
L 356.324103 54.791139 
L 358.730284 55.241431 
L 361.131842 55.715762 
L 363.528536 56.214085 
L 365.920128 56.736349 
L 368.306377 57.282503 
L 370.687046 57.852492 
L 373.061895 58.446258 
L 375.430689 59.063743 
L 377.793189 59.704884 
L 380.14916 60.369618 
L 382.498366 61.057878 
L 384.840572 61.769595 
L 387.175544 62.504699 
L 389.503048 63.263114 
L 391.822851 64.044767 
L 394.134723 64.849578 
L 396.43843 65.677468 
L 398.733744 66.528352 
L 401.020434 67.402147 
L 403.298273 68.298765 
L 405.567031 69.218115 
L 407.826482 70.160108 
L 410.076401 71.124647 
L 412.316562 72.111636 
L 414.546741 73.120978 
L 416.766716 74.15257 
L 418.976264 75.206311 
L 421.175164 76.282093 
L 423.363196 77.379811 
L 425.540142 78.499354 
L 427.705784 79.640609 
L 429.859905 80.803464 
L 432.002291 81.987802 
L 434.132726 83.193503 
L 436.250997 84.420449 
L 438.356894 85.668515 
L 440.450205 86.937578 
L 442.53072 88.22751 
L 444.598233 89.538182 
L 446.652535 90.869464 
L 448.693423 92.221222 
L 450.720691 93.59332 
L 452.734136 94.985623 
L 454.733559 96.39799 
L 456.718758 97.83028 
L 458.689535 99.28235 
L 460.645693 100.754055 
L 462.587036 102.245248 
L 464.513371 103.755779 
L 466.424504 105.285498 
L 468.320245 106.834251 
L 470.200404 108.401884 
L 472.064792 109.98824 
L 473.913225 111.59316 
L 475.745515 113.216484 
L 477.561482 114.858049 
L 479.360942 116.517692 
L 481.143716 118.195245 
L 482.909625 119.890543 
L 484.658494 121.603414 
L 486.390146 123.333689 
L 488.10441 125.081193 
L 489.801113 126.845752 
L 491.480086 128.627189 
L 493.141161 130.425327 
L 494.784172 132.239985 
L 496.408954 134.070983 
L 498.015346 135.918136 
L 499.603186 137.781261 
L 501.172316 139.660171 
L 502.722578 141.554678 
L 504.253818 143.464592 
L 505.765883 145.389724 
L 507.258621 147.329879 
L 508.731883 149.284864 
L 510.185523 151.254484 
L 511.619393 153.238542 
L 513.033352 155.236839 
L 514.427257 157.249176 
L 515.80097 159.27535 
L 517.154352 161.315161 
L 518.487269 163.368402 
L 519.799587 165.434871 
L 521.091176 167.514358 
L 522.361905 169.606658 
L 523.611648 171.71156 
L 524.84028 173.828854 
L 526.047678 175.958328 
L 527.233721 178.099769 
L 528.398291 180.252964 
L 529.541271 182.417696 
L 530.662547 184.59375 
L 531.762006 186.780908 
L 532.83954 188.978951 
L 533.895039 191.187659 
L 534.928399 193.406811 
L 535.939517 195.636186 
L 536.92829 197.87556 
L 537.89462 200.12471 
L 538.838411 202.383411 
L 539.759568 204.651436 
L 540.658 206.928559 
L 541.533615 209.214553 
L 542.386327 211.509189 
L 543.216051 213.812236 
L 544.022703 216.123466 
L 544.806203 218.442647 
L 545.566472 220.769546 
L 546.303434 223.103932 
L 547.017016 225.44557 
L 547.707147 227.794227 
L 548.373757 230.149668 
L 549.016779 232.511657 
L 549.63615 234.879958 
L 550.231807 237.254334 
L 550.803691 239.634548 
L 551.351745 242.020362 
L 551.875914 244.411536 
L 552.376145 246.807833 
L 552.852388 249.209013 
L 553.304597 251.614834 
L 553.732725 254.025058 
L 554.136729 256.439442 
L 554.51657 258.857745 
L 554.872209 261.279726 
L 555.203612 263.705142 
L 555.510744 266.13375 
L 555.793574 268.565309 
L 556.052076 270.999574 
L 556.286222 273.436302 
L 556.49599 275.87525 
L 556.681358 278.316174 
L 556.842308 280.758829 
L 556.978824 283.202972 
L 557.090892 285.648358 
L 557.178501 288.094742 
L 557.241642 290.541879 
L 557.280309 292.989526 
L 557.294498 295.437437 
L 557.284208 297.885368 
L 557.249439 300.333073 
L 557.190196 302.780308 
L 557.106483 305.226829 
L 556.99831 307.67239 
L 556.865687 310.116747 
L 556.708627 312.559655 
L 556.527147 315.000871 
L 556.321264 317.44015 
L 556.090998 319.877248 
L 555.836374 322.311922 
L 555.557416 324.743928 
L 555.254153 327.173023 
L 554.926614 329.598963 
L 554.574832 332.021507 
L 554.198843 334.440413 
L 553.798685 336.855437 
L 553.374396 339.266339 
L 552.92602 341.672878 
L 552.453601 344.074813 
L 551.957187 346.471903 
L 551.436828 348.86391 
L 550.892574 351.250593 
L 550.324482 353.631715 
L 549.732607 356.007037 
L 549.117009 358.376321 
L 548.477749 360.739332 
L 547.814891 363.095831 
L 547.128502 365.445584 
L 546.41865 367.788356 
L 545.685407 370.123912 
L 544.928844 372.45202 
L 544.149039 374.772445 
L 543.346069 377.084957 
L 542.520015 379.389323 
L 541.670958 381.685314 
L 540.798985 383.972699 
L 539.904181 386.25125 
L 538.986637 388.52074 
L 538.046445 390.780941 
L 537.083698 393.031627 
L 536.098492 395.272573 
L 535.090927 397.503556 
L 534.061103 399.724351 
L 533.009122 401.934737 
L 531.935091 404.134493 
L 530.839116 406.323399 
L 529.721307 408.501236 
L 528.581776 410.667786 
L 527.420637 412.822833 
L 526.238006 414.96616 
L 525.034002 417.097555 
L 523.808743 419.216803 
L 522.562354 421.323693 
L 521.294959 423.418013 
L 520.006684 425.499555 
L 518.697659 427.568111 
L 517.368013 429.623473 
L 516.017881 431.665436 
L 514.647397 433.693796 
L 513.256699 435.70835 
L 511.845925 437.708896 
L 510.415216 439.695235 
L 508.964715 441.667168 
L 507.494569 443.624497 
L 506.004922 445.567028 
L 504.495925 447.494565 
L 502.967729 449.406915 
L 501.420486 451.303889 
L 499.854351 453.185295 
L 498.26948 455.050947 
L 496.666032 456.900656 
L 495.044168 458.734239 
L 493.404049 460.551512 
L 491.74584 462.352293 
L 490.069707 464.136403 
L 488.375816 465.903662 
L 486.664338 467.653893 
L 484.935443 469.386923 
L 483.189305 471.102578 
L 481.426097 472.800686 
L 479.645998 474.481077 
L 477.849183 476.143583 
L 476.035834 477.788039 
L 474.20613 479.414279 
L 472.360257 481.022141 
L 470.498397 482.611464 
L 468.620737 484.182089 
L 466.727465 485.73386 
L 464.818771 487.266621 
L 462.894844 488.780218 
L 460.955878 490.274501 
L 459.002067 491.749319 
L 457.033605 493.204526 
L 455.05069 494.639976 
L 453.053519 496.055526 
L 451.042293 497.451033 
L 449.017213 498.826359 
L 446.978481 500.181365 
L 444.926302 501.515917 
L 442.860879 502.82988 
L 440.782421 504.123124 
L 438.691134 505.395519 
L 436.587228 506.646938 
L 434.470913 507.877256 
L 432.342401 509.086349 
L 430.201905 510.274097 
L 428.049638 511.440381 
L 425.885816 512.585085 
L 423.710656 513.708093 
L 421.524375 514.809294 
L 419.327191 515.888577 
L 417.119324 516.945835 
L 414.900995 517.980962 
L 412.672426 518.993854 
L 410.43384 519.984411 
L 408.18546 520.952532 
L 405.927512 521.898121 
L 403.660221 522.821084 
L 401.383814 523.721329 
L 399.098518 524.598764 
L 396.804562 525.453303 
L 394.502176 526.284861 
L 392.191589 527.093353 
L 389.873034 527.878699 
L 387.54674 528.640821 
L 385.212942 529.379642 
L 382.871873 530.095089 
L 380.523766 530.787089 
L 378.168857 531.455575 
L 375.807381 532.100478 
L 373.439574 532.721734 
L 371.065673 533.319282 
L 368.685915 533.893062 
L 366.300538 534.443015 
L 363.909782 534.969088 
L 361.513884 535.471227 
L 359.113085 535.949382 
L 356.707624 536.403506 
L 354.297742 536.833553 
L 351.883681 537.239481 
L 349.465681 537.621247 
L 347.043984 537.978815 
L 344.618833 538.312149 
L 342.190469 538.621214 
L 339.759137 538.905981 
L 337.325078 539.166421 
L 334.888537 539.402508 
L 332.449757 539.614218 
L 330.008982 539.80153 
L 327.566455 539.964425 
L 325.122422 540.102887 
L 322.677126 540.216902 
L 320.230813 540.306459 
L 317.783726 540.371549 
L 315.336111 540.412165 
L 312.888212 540.428304 
L 312.498337 540.428614 
L 312.498337 542.901304 
L 312.89215 542.90099 
L 315.364775 542.884689 
L 317.837114 542.843662 
L 320.308919 542.777915 
L 322.779942 542.687453 
L 325.249938 542.572286 
L 327.718658 542.432425 
L 330.185857 542.267885 
L 332.651286 542.078681 
L 335.114701 541.864832 
L 337.575853 541.626361 
L 340.034498 541.36329 
L 342.49039 541.075647 
L 344.943282 540.763459 
L 347.39293 540.426759 
L 349.839088 540.065579 
L 352.281512 539.679956 
L 354.719958 539.269929 
L 357.154182 538.835538 
L 359.583941 538.376827 
L 362.00899 537.893842 
L 364.429089 537.38663 
L 366.843995 536.855244 
L 369.253466 536.299735 
L 371.657262 535.72016 
L 374.055142 535.116577 
L 376.446866 534.489045 
L 378.832196 533.837627 
L 381.210892 533.16239 
L 383.582717 532.463399 
L 385.947433 531.740726 
L 388.304805 530.994442 
L 390.654596 530.224622 
L 392.996572 529.431342 
L 395.330498 528.614684 
L 397.65614 527.774727 
L 399.973267 526.911556 
L 402.281647 526.025257 
L 404.581048 525.11592 
L 406.871241 524.183634 
L 409.151997 523.228493 
L 411.423088 522.250593 
L 413.684286 521.250031 
L 415.935366 520.226908 
L 418.176102 519.181325 
L 420.40627 518.113388 
L 422.625648 517.023202 
L 424.834013 515.910878 
L 427.031144 514.776526 
L 429.216823 513.62026 
L 431.390829 512.442195 
L 433.552947 511.24245 
L 435.702959 510.021143 
L 437.840651 508.778398 
L 439.965808 507.514339 
L 442.07822 506.229091 
L 444.177673 504.922784 
L 446.263958 503.595549 
L 448.336867 502.247517 
L 450.396192 500.878823 
L 452.441727 499.489606 
L 454.473269 498.080002 
L 456.490612 496.650154 
L 458.493557 495.200205 
L 460.481902 493.730298 
L 462.45545 492.240583 
L 464.414001 490.731206 
L 466.357361 489.20232 
L 468.285335 487.654077 
L 470.197731 486.086632 
L 472.094357 484.500142 
L 473.975024 482.894765 
L 475.839542 481.270662 
L 477.687727 479.627995 
L 479.519394 477.966929 
L 481.334358 476.28763 
L 483.132438 474.590265 
L 484.913456 472.875004 
L 486.677232 471.14202 
L 488.42359 469.391485 
L 490.152356 467.623573 
L 491.863357 465.838463 
L 493.556421 464.036333 
L 495.23138 462.217362 
L 496.888065 460.381733 
L 498.526312 458.529629 
L 500.145956 456.661235 
L 501.746836 454.776739 
L 503.32879 452.876329 
L 504.891662 450.960194 
L 506.435295 449.028526 
L 507.959534 447.081519 
L 509.464227 445.119367 
L 510.949224 443.142267 
L 512.414376 441.150416 
L 513.859537 439.144013 
L 515.284561 437.123259 
L 516.689307 435.088356 
L 518.073634 433.039508 
L 519.437404 430.976918 
L 520.78048 428.900795 
L 522.102728 426.811345 
L 523.404016 424.708777 
L 524.684213 422.593302 
L 525.943192 420.46513 
L 527.180826 418.324476 
L 528.396993 416.171552 
L 529.59157 414.006575 
L 530.764437 411.82976 
L 531.915479 409.641325 
L 533.044578 407.44149 
L 534.151624 405.230474 
L 535.236504 403.008498 
L 536.29911 400.775785 
L 537.339337 398.532557 
L 538.35708 396.27904 
L 539.352237 394.015458 
L 540.324709 391.742038 
L 541.274398 389.459006 
L 542.20121 387.166593 
L 543.105052 384.865025 
L 543.985833 382.554535 
L 544.843466 380.235353 
L 545.677865 377.90771 
L 546.488945 375.57184 
L 547.276627 373.227976 
L 548.040832 370.876352 
L 548.781482 368.517204 
L 549.498504 366.150768 
L 550.191826 363.77728 
L 550.861379 361.396978 
L 551.507096 359.010099 
L 552.128913 356.616882 
L 552.726766 354.217567 
L 553.300597 351.812394 
L 553.850348 349.401602 
L 554.375964 346.985434 
L 554.877392 344.56413 
L 555.354582 342.137933 
L 555.807487 339.707086 
L 556.236062 337.271832 
L 556.640263 334.832413 
L 557.02005 332.389074 
L 557.375384 329.94206 
L 557.706232 327.491615 
L 558.012559 325.037984 
L 558.294334 322.581412 
L 558.55153 320.122146 
L 558.784121 317.660431 
L 558.992084 315.196512 
L 559.175398 312.730638 
L 559.334044 310.263053 
L 559.468006 307.794006 
L 559.577272 305.323742 
L 559.66183 302.85251 
L 559.721673 300.380555 
L 559.756792 297.908125 
L 559.767187 295.435468 
L 559.752854 292.962831 
L 559.713797 290.49046 
L 559.650018 288.018604 
L 559.561524 285.547509 
L 559.448324 283.077423 
L 559.310429 280.608592 
L 559.147853 278.141263 
L 558.960613 275.675683 
L 558.748726 273.2121 
L 558.512215 270.750758 
L 558.251102 268.291904 
L 557.965414 265.835784 
L 557.65518 263.382644 
L 557.32043 260.932729 
L 556.961199 258.486284 
L 556.577521 256.043553 
L 556.169436 253.604782 
L 555.736983 251.170213 
L 555.280207 248.74009 
L 554.799153 246.314656 
L 554.293869 243.894154 
L 553.764406 241.478826 
L 553.210816 239.068913 
L 552.633155 236.664657 
L 552.031482 234.266297 
L 551.405854 231.874074 
L 550.756337 229.488226 
L 550.082993 227.108993 
L 549.385892 224.736612 
L 548.665102 222.371321 
L 547.920695 220.013356 
L 547.152747 217.662952 
L 546.361333 215.320346 
L 545.546533 212.98577 
L 544.708428 210.65946 
L 543.847103 208.341646 
L 542.962643 206.032561 
L 542.055136 203.732437 
L 541.124675 201.441502 
L 540.17135 199.159986 
L 539.195259 196.888117 
L 538.196498 194.626123 
L 537.175168 192.374229 
L 536.13137 190.132661 
L 535.065209 187.901643 
L 533.976791 185.681398 
L 532.866226 183.472148 
L 531.733624 181.274114 
L 530.579099 179.087515 
L 529.402765 176.912571 
L 528.204742 174.749499 
L 526.985148 172.598515 
L 525.744106 170.459834 
L 524.481739 168.333671 
L 523.198174 166.220237 
L 521.89354 164.119744 
L 520.567965 162.032403 
L 519.221585 159.958421 
L 517.854532 157.898007 
L 516.466943 155.851366 
L 515.058958 153.818703 
L 513.630717 151.800221 
L 512.182363 149.796122 
L 510.714041 147.806607 
L 509.225897 145.831874 
L 507.71808 143.872121 
L 506.190742 141.927544 
L 504.644035 139.998338 
L 503.078113 138.084694 
L 501.493134 136.186806 
L 499.889255 134.304861 
L 498.266637 132.43905 
L 496.625443 130.589557 
L 494.965836 128.756569 
L 493.287983 126.940268 
L 491.59205 125.140836 
L 489.878209 123.358453 
L 488.146629 121.593298 
L 486.397485 119.845546 
L 484.630951 118.115373 
L 482.847204 116.402951 
L 481.046422 114.708452 
L 479.228786 113.032046 
L 477.394477 111.373899 
L 475.543678 109.734178 
L 473.676575 108.113046 
L 471.793354 106.510667 
L 469.894204 104.927199 
L 467.979314 103.362802 
L 466.048876 101.817631 
L 464.103084 100.291842 
L 462.142131 98.785587 
L 460.166214 97.299016 
L 458.17553 95.832279 
L 456.170278 94.385521 
L 454.15066 92.958888 
L 452.116876 91.552522 
L 450.069131 90.166564 
L 448.007628 88.801152 
L 445.932575 87.456423 
L 443.844179 86.132511 
L 441.742648 84.82955 
L 439.628192 83.547668 
L 437.501024 82.286995 
L 435.361356 81.047656 
L 433.209401 79.829776 
L 431.045376 78.633475 
L 428.869496 77.458874 
L 426.681979 76.306091 
L 424.483043 75.17524 
L 422.272909 74.066434 
L 420.051798 72.979785 
L 417.819932 71.915401 
L 415.577533 70.873388 
L 413.324827 69.853851 
L 411.062038 68.856892 
L 408.789393 67.88261 
L 406.507119 66.931103 
L 404.215444 66.002466 
L 401.914597 65.096791 
L 399.604809 64.21417 
L 397.28631 63.354691 
L 394.959333 62.518439 
L 392.624109 61.705498 
L 390.280873 60.91595 
L 387.929859 60.149874 
L 385.571301 59.407345 
L 383.205437 58.688439 
L 380.832502 57.993226 
L 378.452733 57.321778 
L 376.066369 56.674161 
L 373.673649 56.050439 
L 371.27481 55.450675 
L 368.870095 54.874929 
L 366.459742 54.323258 
L 364.043993 53.795719 
L 361.623089 53.292362 
L 359.197273 52.81324 
L 356.766787 52.358399 
L 354.331875 51.927886 
L 351.892779 51.521742 
L 349.449744 51.14001 
L 347.003013 50.782727 
L 344.552832 50.449928 
L 342.099446 50.141647 
L 339.643099 49.857916 
L 337.184039 49.598761 
L 334.722509 49.36421 
L 332.258757 49.154285 
L 329.79303 48.969008 
L 327.325572 48.808397 
L 324.856632 48.672468 
L 322.386456 48.561235 
L 319.915292 48.474709 
L 317.443385 48.412899 
L 314.970985 48.37581 
L 312.498337 48.363446 
z
" clip-path="url(#p997efaeea6)" style="fill: #000080"/>
   </g>
   <g id="patch_3">
    <path d="M 312.498337 540.428614 
L 310.050415 540.416375 
L 307.602738 540.379657 
L 305.155551 540.318464 
L 302.709098 540.232803 
L 300.263624 540.122683 
L 297.819373 539.988113 
L 295.376591 539.829108 
L 292.93552 539.645684 
L 290.496406 539.437859 
L 288.059492 539.205653 
L 285.625021 538.94909 
L 283.193238 538.668195 
L 280.764386 538.362998 
L 278.338707 538.033527 
L 275.916444 537.679816 
L 273.497839 537.301901 
L 271.083134 536.899819 
L 268.67257 536.473611 
L 266.266389 536.023319 
L 263.864832 535.548988 
L 261.468137 535.050665 
L 259.076546 534.528401 
L 256.690296 533.982247 
L 254.309628 533.412258 
L 251.934778 532.818492 
L 249.565984 532.201007 
L 247.203484 531.559866 
L 244.847513 530.895132 
L 242.498307 530.206872 
L 240.156101 529.495155 
L 237.82113 528.760051 
L 235.493626 528.001636 
L 233.173822 527.219983 
L 230.861951 526.415172 
L 228.558243 525.587282 
L 226.262929 524.736398 
L 223.976239 523.862603 
L 221.698401 522.965985 
L 219.429642 522.046635 
L 217.170191 521.104642 
L 214.920272 520.140103 
L 212.680111 519.153114 
L 210.449932 518.143772 
L 208.229957 517.11218 
L 206.02041 516.058439 
L 203.82151 514.982657 
L 201.633477 513.884939 
L 199.456531 512.765396 
L 197.290889 511.624141 
L 195.136768 510.461286 
L 192.994382 509.276948 
L 190.863947 508.071247 
L 188.745676 506.844301 
L 186.639779 505.596235 
L 184.546469 504.327172 
L 182.465953 503.03724 
L 180.39844 501.726568 
L 178.344138 500.395286 
L 176.303251 499.043528 
L 174.275983 497.67143 
L 172.262537 496.279127 
L 170.263114 494.86676 
L 168.277915 493.43447 
L 166.307138 491.9824 
L 164.35098 490.510695 
L 162.409637 489.019502 
L 160.483302 487.508971 
L 158.572169 485.979252 
L 156.676428 484.430499 
L 154.796269 482.862866 
L 152.931881 481.27651 
L 151.083449 479.67159 
L 149.251158 478.048266 
L 147.435192 476.406701 
L 145.635732 474.747058 
L 143.852958 473.069505 
L 142.087048 471.374207 
L 140.33818 469.661336 
L 138.606527 467.931061 
L 136.892263 466.183557 
L 135.19556 464.418998 
L 133.516587 462.637561 
L 131.855512 460.839423 
L 130.212501 459.024765 
L 128.587719 457.193767 
L 126.981327 455.346614 
L 125.393487 453.483489 
L 123.824358 451.604579 
L 122.274095 449.710072 
L 120.742855 447.800158 
L 119.23079 445.875026 
L 117.738052 443.934871 
L 116.26479 441.979886 
L 114.811151 440.010266 
L 113.37728 438.026208 
L 111.963321 436.027911 
L 110.569416 434.015574 
L 109.195704 431.9894 
L 107.842321 429.949589 
L 106.509404 427.896348 
L 105.197086 425.829879 
L 103.905497 423.750392 
L 102.634768 421.658092 
L 101.385025 419.55319 
L 100.156393 417.435896 
L 98.948995 415.306422 
L 97.762952 413.164981 
L 96.598382 411.011786 
L 95.455402 408.847054 
L 94.334126 406.671 
L 93.234667 404.483842 
L 92.157133 402.285799 
L 91.101634 400.077091 
L 90.068274 397.857939 
L 89.057157 395.628564 
L 88.068383 393.38919 
L 87.102053 391.14004 
L 86.158262 388.881339 
L 85.237105 386.613314 
L 84.338673 384.336191 
L 83.463058 382.050197 
L 82.610346 379.755561 
L 81.780622 377.452514 
L 80.97397 375.141284 
L 80.190471 372.822103 
L 79.430202 370.495204 
L 78.693239 368.160818 
L 77.979657 365.81918 
L 77.289526 363.470523 
L 76.622916 361.115082 
L 75.979894 358.753093 
L 75.360523 356.384792 
L 74.764866 354.010416 
L 74.192982 351.630202 
L 73.644928 349.244388 
L 73.120759 346.853214 
L 72.620528 344.456917 
L 72.144285 342.055737 
L 71.692077 339.649916 
L 71.263949 337.239692 
L 70.859944 334.825308 
L 70.480103 332.407005 
L 70.124464 329.985024 
L 69.793062 327.559608 
L 69.48593 325.131 
L 69.203099 322.699441 
L 68.944597 320.265176 
L 68.710451 317.828448 
L 68.500683 315.3895 
L 68.315315 312.948576 
L 68.154365 310.505921 
L 68.017849 308.061778 
L 67.905781 305.616392 
L 67.818172 303.170008 
L 67.755031 300.722871 
L 67.716364 298.275224 
L 67.702175 295.827313 
L 67.712465 293.379382 
L 67.747234 290.931677 
L 67.806478 288.484442 
L 67.89019 286.037921 
L 67.998364 283.59236 
L 68.130987 281.148003 
L 68.288046 278.705095 
L 68.469527 276.263879 
L 68.67541 273.8246 
L 68.905675 271.387502 
L 69.160299 268.952828 
L 69.439257 266.520822 
L 69.74252 264.091727 
L 70.070059 261.665787 
L 70.421841 259.243243 
L 70.79783 256.824337 
L 71.197989 254.409313 
L 71.622277 251.998411 
L 72.070653 249.591872 
L 72.543072 247.189937 
L 73.039486 244.792847 
L 73.559846 242.40084 
L 74.104099 240.014157 
L 74.672191 237.633035 
L 75.264066 235.257713 
L 75.879665 232.888429 
L 76.518924 230.525418 
L 77.181782 228.168919 
L 77.868171 225.819166 
L 78.578023 223.476394 
L 79.311267 221.140838 
L 80.067829 218.81273 
L 80.847634 216.492305 
L 81.650604 214.179793 
L 82.476658 211.875427 
L 83.325715 209.579436 
L 84.197688 207.292051 
L 85.092492 205.0135 
L 86.010036 202.74401 
L 86.950228 200.483809 
L 87.912975 198.233123 
L 88.898181 195.992177 
L 89.905746 193.761194 
L 90.93557 191.540399 
L 91.987551 189.330013 
L 93.061582 187.130257 
L 94.157557 184.941351 
L 95.275366 182.763514 
L 96.414897 180.596964 
L 97.576036 178.441917 
L 98.758667 176.29859 
L 99.962672 174.167195 
L 101.18793 172.047947 
L 102.434319 169.941057 
L 103.701714 167.846737 
L 104.989989 165.765195 
L 106.299015 163.696639 
L 107.62866 161.641277 
L 108.978792 159.599314 
L 110.349276 157.570954 
L 111.739974 155.5564 
L 113.150749 153.555854 
L 114.581457 151.569515 
L 116.031958 149.597582 
L 117.502105 147.640253 
L 118.991751 145.697722 
L 120.500748 143.770185 
L 122.028944 141.857835 
L 123.576187 139.960861 
L 125.142323 138.079455 
L 126.727193 136.213803 
L 128.330641 134.364094 
L 129.952505 132.530511 
L 131.592624 130.713238 
L 133.250833 128.912457 
L 134.926967 127.128347 
L 136.620857 125.361088 
L 138.332335 123.610857 
L 140.06123 121.877827 
L 141.807369 120.162172 
L 143.570576 118.464064 
L 145.350676 116.783673 
L 147.14749 115.121167 
L 148.96084 113.476711 
L 150.790543 111.850471 
L 152.636417 110.242609 
L 154.498276 108.653286 
L 156.375936 107.082661 
L 158.269208 105.53089 
L 160.177902 103.998129 
L 162.101829 102.484532 
L 164.040795 100.990249 
L 165.994606 99.515431 
L 167.963068 98.060224 
L 169.945984 96.624774 
L 171.943154 95.209224 
L 173.95438 93.813717 
L 175.97946 92.438391 
L 178.018192 91.083385 
L 180.070372 89.748833 
L 182.135794 88.43487 
L 184.214253 87.141626 
L 186.305539 85.869231 
L 188.409446 84.617812 
L 190.52576 83.387494 
L 192.654272 82.178401 
L 194.794769 80.990653 
L 196.947035 79.824369 
L 199.110857 78.679665 
L 201.286017 77.556657 
L 203.472299 76.455456 
L 205.669482 75.376173 
L 207.877349 74.318915 
L 210.095678 73.283788 
L 212.324247 72.270896 
L 214.562833 71.280339 
L 216.811213 70.312218 
L 219.069161 69.366629 
L 221.336452 68.443666 
L 223.61286 67.543421 
L 225.898155 66.665986 
L 228.192111 65.811447 
L 230.494497 64.979889 
L 232.805084 64.171397 
L 235.12364 63.386051 
L 237.449933 62.623929 
L 239.783731 61.885108 
L 242.1248 61.169661 
L 244.472907 60.477661 
L 246.827816 59.809175 
L 249.189292 59.164272 
L 251.557099 58.543016 
L 253.931001 57.945468 
L 256.310758 57.371688 
L 258.696135 56.821735 
L 261.086892 56.295662 
L 263.482789 55.793523 
L 265.883589 55.315368 
L 268.289049 54.861244 
L 270.698931 54.431197 
L 273.112993 54.025269 
L 275.530993 53.643503 
L 277.952689 53.285935 
L 280.377841 52.952601 
L 282.806204 52.643536 
L 285.237536 52.358769 
L 287.671595 52.098329 
L 290.108136 51.862242 
L 292.546916 51.650532 
L 294.987692 51.46322 
L 297.430218 51.300325 
L 299.874251 51.161863 
L 302.319547 51.047848 
L 304.76586 50.958291 
L 307.212947 50.893201 
L 309.660562 50.852585 
L 312.108461 50.836446 
L 312.498337 50.836136 
L 312.498337 48.363446 
L 312.104523 48.36376 
L 309.631898 48.380061 
L 307.159559 48.421088 
L 304.687754 48.486835 
L 302.216731 48.577297 
L 299.746735 48.692464 
L 297.278015 48.832325 
L 294.810816 48.996865 
L 292.345387 49.186069 
L 289.881973 49.399918 
L 287.42082 49.638389 
L 284.962175 49.90146 
L 282.506283 50.189103 
L 280.053391 50.501291 
L 277.603743 50.837991 
L 275.157585 51.199171 
L 272.715161 51.584794 
L 270.276715 51.994821 
L 267.842491 52.429212 
L 265.412733 52.887923 
L 262.987683 53.370908 
L 260.567584 53.87812 
L 258.152678 54.409506 
L 255.743207 54.965015 
L 253.339411 55.54459 
L 250.941531 56.148173 
L 248.549807 56.775705 
L 246.164478 57.427123 
L 243.785781 58.10236 
L 241.413957 58.801351 
L 239.04924 59.524024 
L 236.691868 60.270308 
L 234.342077 61.040128 
L 232.000101 61.833408 
L 229.666176 62.650066 
L 227.340533 63.490023 
L 225.023406 64.353194 
L 222.715026 65.239493 
L 220.415625 66.14883 
L 218.125432 67.081116 
L 215.844676 68.036257 
L 213.573586 69.014157 
L 211.312387 70.014719 
L 209.061308 71.037842 
L 206.820572 72.083425 
L 204.590403 73.151362 
L 202.371025 74.241548 
L 200.16266 75.353872 
L 197.965529 76.488224 
L 195.77985 77.64449 
L 193.605844 78.822555 
L 191.443726 80.0223 
L 189.293714 81.243607 
L 187.156022 82.486352 
L 185.030865 83.750411 
L 182.918454 85.035659 
L 180.819001 86.341966 
L 178.732715 87.669201 
L 176.659806 89.017233 
L 174.600481 90.385927 
L 172.554946 91.775144 
L 170.523405 93.184748 
L 168.506061 94.614596 
L 166.503116 96.064545 
L 164.514771 97.534452 
L 162.541224 99.024167 
L 160.582672 100.533544 
L 158.639312 102.06243 
L 156.711338 103.610673 
L 154.798942 105.178118 
L 152.902316 106.764608 
L 151.02165 108.369985 
L 149.157131 109.994088 
L 147.308946 111.636755 
L 145.47728 113.297821 
L 143.662315 114.97712 
L 141.864235 116.674485 
L 140.083217 118.389746 
L 138.319441 120.12273 
L 136.573083 121.873265 
L 134.844317 123.641177 
L 133.133316 125.426287 
L 131.440252 127.228417 
L 129.765293 129.047388 
L 128.108608 130.883017 
L 126.470361 132.735121 
L 124.850717 134.603515 
L 123.249838 136.488011 
L 121.667883 138.388421 
L 120.105011 140.304556 
L 118.561378 142.236224 
L 117.037139 144.183231 
L 115.532446 146.145383 
L 114.047449 148.122483 
L 112.582297 150.114334 
L 111.137137 152.120737 
L 109.712112 154.141491 
L 108.307366 156.176394 
L 106.923039 158.225242 
L 105.559269 160.287832 
L 104.216193 162.363955 
L 102.893945 164.453405 
L 101.592658 166.555973 
L 100.31246 168.671448 
L 99.053481 170.79962 
L 97.815847 172.940274 
L 96.59968 175.093198 
L 95.405103 177.258175 
L 94.232236 179.43499 
L 93.081194 181.623425 
L 91.952095 183.82326 
L 90.845049 186.034276 
L 89.760169 188.256252 
L 88.697563 190.488965 
L 87.657336 192.732193 
L 86.639593 194.98571 
L 85.644436 197.249292 
L 84.671965 199.522712 
L 83.722275 201.805744 
L 82.795463 204.098157 
L 81.891621 206.399725 
L 81.01084 208.710215 
L 80.153207 211.029397 
L 79.318809 213.35704 
L 78.507728 215.69291 
L 77.720046 218.036774 
L 76.955842 220.388398 
L 76.215191 222.747546 
L 75.498169 225.113982 
L 74.804847 227.48747 
L 74.135294 229.867772 
L 73.489577 232.254651 
L 72.867761 234.647868 
L 72.269907 237.047183 
L 71.696076 239.452356 
L 71.146326 241.863148 
L 70.62071 244.279316 
L 70.119281 246.70062 
L 69.642091 249.126817 
L 69.189186 251.557664 
L 68.760611 253.992918 
L 68.356411 256.432337 
L 67.976624 258.875676 
L 67.621289 261.32269 
L 67.290441 263.773135 
L 66.984115 266.226766 
L 66.702339 268.683338 
L 66.445143 271.142604 
L 66.212552 273.604319 
L 66.004589 276.068238 
L 65.821276 278.534112 
L 65.66263 281.001697 
L 65.528667 283.470744 
L 65.419401 285.941008 
L 65.334843 288.41224 
L 65.275001 290.884195 
L 65.239881 293.356625 
L 65.229486 295.829282 
L 65.243819 298.301919 
L 65.282876 300.77429 
L 65.346655 303.246146 
L 65.435149 305.717241 
L 65.548349 308.187327 
L 65.686244 310.656158 
L 65.84882 313.123487 
L 66.036061 315.589067 
L 66.247947 318.05265 
L 66.484459 320.513992 
L 66.745571 322.972846 
L 67.031259 325.428966 
L 67.341493 327.882106 
L 67.676243 330.332021 
L 68.035474 332.778466 
L 68.419152 335.221197 
L 68.827238 337.659968 
L 69.25969 340.094537 
L 69.716466 342.52466 
L 70.19752 344.950094 
L 70.702804 347.370596 
L 71.232267 349.785924 
L 71.785857 352.195837 
L 72.363518 354.600093 
L 72.965192 356.998453 
L 73.590819 359.390676 
L 74.240336 361.776524 
L 74.91368 364.155757 
L 75.610781 366.528138 
L 76.331571 368.893429 
L 77.075978 371.251394 
L 77.843927 373.601798 
L 78.63534 375.944404 
L 79.45014 378.27898 
L 80.288245 380.60529 
L 81.14957 382.923104 
L 82.03403 385.232189 
L 82.941537 387.532313 
L 83.871999 389.823248 
L 84.825323 392.104764 
L 85.801414 394.376633 
L 86.800175 396.638627 
L 87.821506 398.890521 
L 88.865304 401.132089 
L 89.931465 403.363107 
L 91.019882 405.583352 
L 92.130448 407.792602 
L 93.263049 409.990636 
L 94.417575 412.177235 
L 95.593908 414.352179 
L 96.791931 416.515251 
L 98.011525 418.666235 
L 99.252567 420.804916 
L 100.514934 422.931079 
L 101.798499 425.044513 
L 103.103134 427.145006 
L 104.428708 429.232347 
L 105.775089 431.306329 
L 107.142142 433.366743 
L 108.52973 435.413384 
L 109.937715 437.446047 
L 111.365956 439.464529 
L 112.81431 441.468628 
L 114.282633 443.458143 
L 115.770776 445.432876 
L 117.278593 447.392629 
L 118.805931 449.337206 
L 120.352638 451.266412 
L 121.91856 453.180056 
L 123.503539 455.077944 
L 125.107418 456.959889 
L 126.730036 458.8257 
L 128.37123 460.675193 
L 130.030837 462.508181 
L 131.708691 464.324482 
L 133.404623 466.123914 
L 135.118465 467.906297 
L 136.850044 469.671452 
L 138.599188 471.419204 
L 140.365722 473.149377 
L 142.149469 474.861799 
L 143.950251 476.556298 
L 145.767887 478.232704 
L 147.602196 479.890851 
L 149.452995 481.530572 
L 151.320098 483.151704 
L 153.203319 484.754083 
L 155.10247 486.337551 
L 157.017359 487.901948 
L 158.947797 489.447119 
L 160.89359 490.972908 
L 162.854542 492.479163 
L 164.83046 493.965734 
L 166.821144 495.432471 
L 168.826395 496.879229 
L 170.846014 498.305862 
L 172.879797 499.712228 
L 174.927543 501.098186 
L 176.989045 502.463598 
L 179.064098 503.808327 
L 181.152495 505.132239 
L 183.254026 506.4352 
L 185.368481 507.717082 
L 187.495649 508.977755 
L 189.635317 510.217094 
L 191.787272 511.434974 
L 193.951297 512.631275 
L 196.127177 513.805876 
L 198.314695 514.958659 
L 200.51363 516.08951 
L 202.723764 517.198316 
L 204.944875 518.284965 
L 207.176741 519.349349 
L 209.41914 520.391362 
L 211.671846 521.410899 
L 213.934635 522.407858 
L 216.20728 523.38214 
L 218.489555 524.333647 
L 220.78123 525.262284 
L 223.082076 526.167959 
L 225.391864 527.05058 
L 227.710363 527.910059 
L 230.037341 528.746311 
L 232.372564 529.559252 
L 234.7158 530.3488 
L 237.066814 531.114876 
L 239.425372 531.857405 
L 241.791236 532.576311 
L 244.164171 533.271524 
L 246.54394 533.942972 
L 248.930304 534.590589 
L 251.323025 535.214311 
L 253.721863 535.814075 
L 256.126579 536.389821 
L 258.536932 536.941492 
L 260.952681 537.469031 
L 263.373584 537.972388 
L 265.7994 538.45151 
L 268.229886 538.906351 
L 270.664798 539.336864 
L 273.103894 539.743008 
L 275.54693 540.12474 
L 277.99366 540.482023 
L 280.443841 540.814822 
L 282.897227 541.123103 
L 285.353574 541.406834 
L 287.812635 541.665989 
L 290.274164 541.90054 
L 292.737916 542.110465 
L 295.203644 542.295742 
L 297.671101 542.456353 
L 300.140041 542.592282 
L 302.610217 542.703515 
L 305.081381 542.790041 
L 307.553288 542.851851 
L 310.025689 542.88894 
L 312.498337 542.901304 
z
" clip-path="url(#p997efaeea6)" style="fill: #800000"/>
   </g>
   <g id="PatchCollection_1">
    <defs>
     <path id="m56e2ff8652" d="M 312.498337 -540.428614 
L 312.498337 -540.428614 
L 314.946258 -540.416375 
L 317.393935 -540.379657 
L 319.841122 -540.318464 
L 322.287575 -540.232803 
L 324.733049 -540.122683 
L 327.1773 -539.988113 
L 329.620083 -539.829108 
L 332.061153 -539.645684 
L 334.500267 -539.437859 
L 336.937182 -539.205653 
L 339.371652 -538.94909 
L 341.803435 -538.668195 
L 344.232287 -538.362998 
L 346.657966 -538.033527 
L 349.080229 -537.679816 
L 351.498834 -537.301901 
L 353.913539 -536.899819 
L 356.324103 -536.473611 
L 358.730284 -536.023319 
L 361.131842 -535.548988 
L 363.528536 -535.050665 
L 365.920128 -534.528401 
L 368.306377 -533.982247 
L 370.687046 -533.412258 
L 373.061895 -532.818492 
L 375.430689 -532.201007 
L 377.793189 -531.559866 
L 380.14916 -530.895132 
L 382.498366 -530.206872 
L 384.840572 -529.495155 
L 387.175544 -528.760051 
L 389.503048 -528.001636 
L 391.822851 -527.219983 
L 394.134723 -526.415172 
L 396.43843 -525.587282 
L 398.733744 -524.736398 
L 401.020434 -523.862603 
L 403.298273 -522.965985 
L 405.567031 -522.046635 
L 407.826482 -521.104642 
L 410.076401 -520.140103 
L 412.316562 -519.153114 
L 414.546741 -518.143772 
L 416.766716 -517.11218 
L 418.976264 -516.058439 
L 421.175164 -514.982657 
L 423.363196 -513.884939 
L 425.540142 -512.765396 
L 427.705784 -511.624141 
L 429.859905 -510.461286 
L 432.002291 -509.276948 
L 434.132726 -508.071247 
L 436.250997 -506.844301 
L 438.356894 -505.596235 
L 440.450205 -504.327172 
L 442.53072 -503.03724 
L 444.598233 -501.726568 
L 446.652535 -500.395286 
L 448.693423 -499.043528 
L 450.720691 -497.67143 
L 452.734136 -496.279127 
L 454.733559 -494.86676 
L 456.718758 -493.43447 
L 458.689535 -491.9824 
L 460.645693 -490.510695 
L 462.587036 -489.019502 
L 464.513371 -487.508971 
L 466.424504 -485.979252 
L 468.320245 -484.430499 
L 470.200404 -482.862866 
L 472.064792 -481.27651 
L 473.913225 -479.67159 
L 475.745515 -478.048266 
L 477.561482 -476.406701 
L 479.360942 -474.747058 
L 481.143716 -473.069505 
L 482.909625 -471.374207 
L 484.658494 -469.661336 
L 486.390146 -467.931061 
L 488.10441 -466.183557 
L 489.801113 -464.418998 
L 491.480086 -462.637561 
L 493.141161 -460.839423 
L 494.784172 -459.024765 
L 496.408954 -457.193767 
L 498.015346 -455.346614 
L 499.603186 -453.483489 
L 501.172316 -451.604579 
L 502.722578 -449.710072 
L 504.253818 -447.800158 
L 505.765883 -445.875026 
L 507.258621 -443.934871 
L 508.731883 -441.979886 
L 510.185523 -440.010266 
L 511.619393 -438.026208 
L 513.033352 -436.027911 
L 514.427257 -434.015574 
L 515.80097 -431.9894 
L 517.154352 -429.949589 
L 518.487269 -427.896348 
L 519.799587 -425.829879 
L 521.091176 -423.750392 
L 522.361905 -421.658092 
L 523.611648 -419.55319 
L 524.84028 -417.435896 
L 526.047678 -415.306422 
L 527.233721 -413.164981 
L 528.398291 -411.011786 
L 529.541271 -408.847054 
L 530.662547 -406.671 
L 531.762006 -404.483842 
L 532.83954 -402.285799 
L 533.895039 -400.077091 
L 534.928399 -397.857939 
L 535.939517 -395.628564 
L 536.92829 -393.38919 
L 537.89462 -391.14004 
L 538.838411 -388.881339 
L 539.759568 -386.613314 
L 540.658 -384.336191 
L 541.533615 -382.050197 
L 542.386327 -379.755561 
L 543.216051 -377.452514 
L 544.022703 -375.141284 
L 544.806203 -372.822103 
L 545.566472 -370.495204 
L 546.303434 -368.160818 
L 547.017016 -365.81918 
L 547.707147 -363.470523 
L 548.373757 -361.115082 
L 549.016779 -358.753093 
L 549.63615 -356.384792 
L 550.231807 -354.010416 
L 550.803691 -351.630202 
L 551.351745 -349.244388 
L 551.875914 -346.853214 
L 552.376145 -344.456917 
L 552.852388 -342.055737 
L 553.304597 -339.649916 
L 553.732725 -337.239692 
L 554.136729 -334.825308 
L 554.51657 -332.407005 
L 554.872209 -329.985024 
L 555.203612 -327.559608 
L 555.510744 -325.131 
L 555.793574 -322.699441 
L 556.052076 -320.265176 
L 556.286222 -317.828448 
L 556.49599 -315.3895 
L 556.681358 -312.948576 
L 556.842308 -310.505921 
L 556.978824 -308.061778 
L 557.090892 -305.616392 
L 557.178501 -303.170008 
L 557.241642 -300.722871 
L 557.280309 -298.275224 
L 557.294498 -295.827313 
L 557.284208 -293.379382 
L 557.249439 -290.931677 
L 557.190196 -288.484442 
L 557.106483 -286.037921 
L 556.99831 -283.59236 
L 556.865687 -281.148003 
L 556.708627 -278.705095 
L 556.527147 -276.263879 
L 556.321264 -273.8246 
L 556.090998 -271.387502 
L 555.836374 -268.952828 
L 555.557416 -266.520822 
L 555.254153 -264.091727 
L 554.926614 -261.665787 
L 554.574832 -259.243243 
L 554.198843 -256.824337 
L 553.798685 -254.409313 
L 553.374396 -251.998411 
L 552.92602 -249.591872 
L 552.453601 -247.189937 
L 551.957187 -244.792847 
L 551.436828 -242.40084 
L 550.892574 -240.014157 
L 550.324482 -237.633035 
L 549.732607 -235.257713 
L 549.117009 -232.888429 
L 548.477749 -230.525418 
L 547.814891 -228.168919 
L 547.128502 -225.819166 
L 546.41865 -223.476394 
L 545.685407 -221.140838 
L 544.928844 -218.81273 
L 544.149039 -216.492305 
L 543.346069 -214.179793 
L 542.520015 -211.875427 
L 541.670958 -209.579436 
L 540.798985 -207.292051 
L 539.904181 -205.0135 
L 538.986637 -202.74401 
L 538.046445 -200.483809 
L 537.083698 -198.233123 
L 536.098492 -195.992177 
L 535.090927 -193.761194 
L 534.061103 -191.540399 
L 533.009122 -189.330013 
L 531.935091 -187.130257 
L 530.839116 -184.941351 
L 529.721307 -182.763514 
L 528.581776 -180.596964 
L 527.420637 -178.441917 
L 526.238006 -176.29859 
L 525.034002 -174.167195 
L 523.808743 -172.047947 
L 522.562354 -169.941057 
L 521.294959 -167.846737 
L 520.006684 -165.765195 
L 518.697659 -163.696639 
L 517.368013 -161.641277 
L 516.017881 -159.599314 
L 514.647397 -157.570954 
L 513.256699 -155.5564 
L 511.845925 -153.555854 
L 510.415216 -151.569515 
L 508.964715 -149.597582 
L 507.494569 -147.640253 
L 506.004922 -145.697722 
L 504.495925 -143.770185 
L 502.967729 -141.857835 
L 501.420486 -139.960861 
L 499.854351 -138.079455 
L 498.26948 -136.213803 
L 496.666032 -134.364094 
L 495.044168 -132.530511 
L 493.404049 -130.713238 
L 491.74584 -128.912457 
L 490.069707 -127.128347 
L 488.375816 -125.361088 
L 486.664338 -123.610857 
L 484.935443 -121.877827 
L 483.189305 -120.162172 
L 481.426097 -118.464064 
L 479.645998 -116.783673 
L 477.849183 -115.121167 
L 476.035834 -113.476711 
L 474.20613 -111.850471 
L 472.360257 -110.242609 
L 470.498397 -108.653286 
L 468.620737 -107.082661 
L 466.727465 -105.53089 
L 464.818771 -103.998129 
L 462.894844 -102.484532 
L 460.955878 -100.990249 
L 459.002067 -99.515431 
L 457.033605 -98.060224 
L 455.05069 -96.624774 
L 453.053519 -95.209224 
L 451.042293 -93.813717 
L 449.017213 -92.438391 
L 446.978481 -91.083385 
L 444.926302 -89.748833 
L 442.860879 -88.43487 
L 440.782421 -87.141626 
L 438.691134 -85.869231 
L 436.587228 -84.617812 
L 434.470913 -83.387494 
L 432.342401 -82.178401 
L 430.201905 -80.990653 
L 428.049638 -79.824369 
L 425.885816 -78.679665 
L 423.710656 -77.556657 
L 421.524375 -76.455456 
L 419.327191 -75.376173 
L 417.119324 -74.318915 
L 414.900995 -73.283788 
L 412.672426 -72.270896 
L 410.43384 -71.280339 
L 408.18546 -70.312218 
L 405.927512 -69.366629 
L 403.660221 -68.443666 
L 401.383814 -67.543421 
L 399.098518 -66.665986 
L 396.804562 -65.811447 
L 394.502176 -64.979889 
L 392.191589 -64.171397 
L 389.873034 -63.386051 
L 387.54674 -62.623929 
L 385.212942 -61.885108 
L 382.871873 -61.169661 
L 380.523766 -60.477661 
L 378.168857 -59.809175 
L 375.807381 -59.164272 
L 373.439574 -58.543016 
L 371.065673 -57.945468 
L 368.685915 -57.371688 
L 366.300538 -56.821735 
L 363.909782 -56.295662 
L 361.513884 -55.793523 
L 359.113085 -55.315368 
L 356.707624 -54.861244 
L 354.297742 -54.431197 
L 351.883681 -54.025269 
L 349.465681 -53.643503 
L 347.043984 -53.285935 
L 344.618833 -52.952601 
L 342.190469 -52.643536 
L 339.759137 -52.358769 
L 337.325078 -52.098329 
L 334.888537 -51.862242 
L 332.449757 -51.650532 
L 330.008982 -51.46322 
L 327.566455 -51.300325 
L 325.122422 -51.161863 
L 322.677126 -51.047848 
L 320.230813 -50.958291 
L 317.783726 -50.893201 
L 315.336111 -50.852585 
L 312.888212 -50.836446 
L 312.498337 -50.836136 
L 312.498337 -50.836136 
Q 312.498337 -295.632375 312.498337 -50.836136 
L 312.498337 -50.836136 
L 312.498337 -50.836136 
L 310.050415 -50.848375 
L 307.602738 -50.885093 
L 305.155551 -50.946286 
L 302.709098 -51.031947 
L 300.263624 -51.142067 
L 297.819373 -51.276637 
L 295.376591 -51.435642 
L 292.93552 -51.619066 
L 290.496406 -51.826891 
L 288.059492 -52.059097 
L 285.625021 -52.31566 
L 283.193238 -52.596555 
L 280.764386 -52.901752 
L 278.338707 -53.231223 
L 275.916444 -53.584934 
L 273.497839 -53.962849 
L 271.083134 -54.364931 
L 268.67257 -54.791139 
L 266.266389 -55.241431 
L 263.864832 -55.715762 
L 261.468137 -56.214085 
L 259.076546 -56.736349 
L 256.690296 -57.282503 
L 254.309628 -57.852492 
L 251.934778 -58.446258 
L 249.565984 -59.063743 
L 247.203484 -59.704884 
L 244.847513 -60.369618 
L 242.498307 -61.057878 
L 240.156101 -61.769595 
L 237.82113 -62.504699 
L 235.493626 -63.263114 
L 233.173822 -64.044767 
L 230.861951 -64.849578 
L 228.558243 -65.677468 
L 226.262929 -66.528352 
L 223.976239 -67.402147 
L 221.698401 -68.298765 
L 219.429642 -69.218115 
L 217.170191 -70.160108 
L 214.920272 -71.124647 
L 212.680111 -72.111636 
L 210.449932 -73.120978 
L 208.229957 -74.15257 
L 206.02041 -75.206311 
L 203.82151 -76.282093 
L 201.633477 -77.379811 
L 199.456531 -78.499354 
L 197.290889 -79.640609 
L 195.136768 -80.803464 
L 192.994382 -81.987802 
L 190.863947 -83.193503 
L 188.745676 -84.420449 
L 186.639779 -85.668515 
L 184.546469 -86.937578 
L 182.465953 -88.22751 
L 180.39844 -89.538182 
L 178.344138 -90.869464 
L 176.303251 -92.221222 
L 174.275983 -93.59332 
L 172.262537 -94.985623 
L 170.263114 -96.39799 
L 168.277915 -97.83028 
L 166.307138 -99.28235 
L 164.35098 -100.754055 
L 162.409637 -102.245248 
L 160.483302 -103.755779 
L 158.572169 -105.285498 
L 156.676428 -106.834251 
L 154.796269 -108.401884 
L 152.931881 -109.98824 
L 151.083449 -111.59316 
L 149.251158 -113.216484 
L 147.435192 -114.858049 
L 145.635732 -116.517692 
L 143.852958 -118.195245 
L 142.087048 -119.890543 
L 140.33818 -121.603414 
L 138.606527 -123.333689 
L 136.892263 -125.081193 
L 135.19556 -126.845752 
L 133.516587 -128.627189 
L 131.855512 -130.425327 
L 130.212501 -132.239985 
L 128.587719 -134.070983 
L 126.981327 -135.918136 
L 125.393487 -137.781261 
L 123.824358 -139.660171 
L 122.274095 -141.554678 
L 120.742855 -143.464592 
L 119.23079 -145.389724 
L 117.738052 -147.329879 
L 116.26479 -149.284864 
L 114.811151 -151.254484 
L 113.37728 -153.238542 
L 111.963321 -155.236839 
L 110.569416 -157.249176 
L 109.195704 -159.27535 
L 107.842321 -161.315161 
L 106.509404 -163.368402 
L 105.197086 -165.434871 
L 103.905497 -167.514358 
L 102.634768 -169.606658 
L 101.385025 -171.71156 
L 100.156393 -173.828854 
L 98.948995 -175.958328 
L 97.762952 -178.099769 
L 96.598382 -180.252964 
L 95.455402 -182.417696 
L 94.334126 -184.59375 
L 93.234667 -186.780908 
L 92.157133 -188.978951 
L 91.101634 -191.187659 
L 90.068274 -193.406811 
L 89.057157 -195.636186 
L 88.068383 -197.87556 
L 87.102053 -200.12471 
L 86.158262 -202.383411 
L 85.237105 -204.651436 
L 84.338673 -206.928559 
L 83.463058 -209.214553 
L 82.610346 -211.509189 
L 81.780622 -213.812236 
L 80.97397 -216.123466 
L 80.190471 -218.442647 
L 79.430202 -220.769546 
L 78.693239 -223.103932 
L 77.979657 -225.44557 
L 77.289526 -227.794227 
L 76.622916 -230.149668 
L 75.979894 -232.511657 
L 75.360523 -234.879958 
L 74.764866 -237.254334 
L 74.192982 -239.634548 
L 73.644928 -242.020362 
L 73.120759 -244.411536 
L 72.620528 -246.807833 
L 72.144285 -249.209013 
L 71.692077 -251.614834 
L 71.263949 -254.025058 
L 70.859944 -256.439442 
L 70.480103 -258.857745 
L 70.124464 -261.279726 
L 69.793062 -263.705142 
L 69.48593 -266.13375 
L 69.203099 -268.565309 
L 68.944597 -270.999574 
L 68.710451 -273.436302 
L 68.500683 -275.87525 
L 68.315315 -278.316174 
L 68.154365 -280.758829 
L 68.017849 -283.202972 
L 67.905781 -285.648358 
L 67.818172 -288.094742 
L 67.755031 -290.541879 
L 67.716364 -292.989526 
L 67.702175 -295.437437 
L 67.712465 -297.885368 
L 67.747234 -300.333073 
L 67.806478 -302.780308 
L 67.89019 -305.226829 
L 67.998364 -307.67239 
L 68.130987 -310.116747 
L 68.288046 -312.559655 
L 68.469527 -315.000871 
L 68.67541 -317.44015 
L 68.905675 -319.877248 
L 69.160299 -322.311922 
L 69.439257 -324.743928 
L 69.74252 -327.173023 
L 70.070059 -329.598963 
L 70.421841 -332.021507 
L 70.79783 -334.440413 
L 71.197989 -336.855437 
L 71.622277 -339.266339 
L 72.070653 -341.672878 
L 72.543072 -344.074813 
L 73.039486 -346.471903 
L 73.559846 -348.86391 
L 74.104099 -351.250593 
L 74.672191 -353.631715 
L 75.264066 -356.007037 
L 75.879665 -358.376321 
L 76.518924 -360.739332 
L 77.181782 -363.095831 
L 77.868171 -365.445584 
L 78.578023 -367.788356 
L 79.311267 -370.123912 
L 80.067829 -372.45202 
L 80.847634 -374.772445 
L 81.650604 -377.084957 
L 82.476658 -379.389323 
L 83.325715 -381.685314 
L 84.197688 -383.972699 
L 85.092492 -386.25125 
L 86.010036 -388.52074 
L 86.950228 -390.780941 
L 87.912975 -393.031627 
L 88.898181 -395.272573 
L 89.905746 -397.503556 
L 90.93557 -399.724351 
L 91.987551 -401.934737 
L 93.061582 -404.134493 
L 94.157557 -406.323399 
L 95.275366 -408.501236 
L 96.414897 -410.667786 
L 97.576036 -412.822833 
L 98.758667 -414.96616 
L 99.962672 -417.097555 
L 101.18793 -419.216803 
L 102.434319 -421.323693 
L 103.701714 -423.418013 
L 104.989989 -425.499555 
L 106.299015 -427.568111 
L 107.62866 -429.623473 
L 108.978792 -431.665436 
L 110.349276 -433.693796 
L 111.739974 -435.70835 
L 113.150749 -437.708896 
L 114.581457 -439.695235 
L 116.031958 -441.667168 
L 117.502105 -443.624497 
L 118.991751 -445.567028 
L 120.500748 -447.494565 
L 122.028944 -449.406915 
L 123.576187 -451.303889 
L 125.142323 -453.185295 
L 126.727193 -455.050947 
L 128.330641 -456.900656 
L 129.952505 -458.734239 
L 131.592624 -460.551512 
L 133.250833 -462.352293 
L 134.926967 -464.136403 
L 136.620857 -465.903662 
L 138.332335 -467.653893 
L 140.06123 -469.386923 
L 141.807369 -471.102578 
L 143.570576 -472.800686 
L 145.350676 -474.481077 
L 147.14749 -476.143583 
L 148.96084 -477.788039 
L 150.790543 -479.414279 
L 152.636417 -481.022141 
L 154.498276 -482.611464 
L 156.375936 -484.182089 
L 158.269208 -485.73386 
L 160.177902 -487.266621 
L 162.101829 -488.780218 
L 164.040795 -490.274501 
L 165.994606 -491.749319 
L 167.963068 -493.204526 
L 169.945984 -494.639976 
L 171.943154 -496.055526 
L 173.95438 -497.451033 
L 175.97946 -498.826359 
L 178.018192 -500.181365 
L 180.070372 -501.515917 
L 182.135794 -502.82988 
L 184.214253 -504.123124 
L 186.305539 -505.395519 
L 188.409446 -506.646938 
L 190.52576 -507.877256 
L 192.654272 -509.086349 
L 194.794769 -510.274097 
L 196.947035 -511.440381 
L 199.110857 -512.585085 
L 201.286017 -513.708093 
L 203.472299 -514.809294 
L 205.669482 -515.888577 
L 207.877349 -516.945835 
L 210.095678 -517.980962 
L 212.324247 -518.993854 
L 214.562833 -519.984411 
L 216.811213 -520.952532 
L 219.069161 -521.898121 
L 221.336452 -522.821084 
L 223.61286 -523.721329 
L 225.898155 -524.598764 
L 228.192111 -525.453303 
L 230.494497 -526.284861 
L 232.805084 -527.093353 
L 235.12364 -527.878699 
L 237.449933 -528.640821 
L 239.783731 -529.379642 
L 242.1248 -530.095089 
L 244.472907 -530.787089 
L 246.827816 -531.455575 
L 249.189292 -532.100478 
L 251.557099 -532.721734 
L 253.931001 -533.319282 
L 256.310758 -533.893062 
L 258.696135 -534.443015 
L 261.086892 -534.969088 
L 263.482789 -535.471227 
L 265.883589 -535.949382 
L 268.289049 -536.403506 
L 270.698931 -536.833553 
L 273.112993 -537.239481 
L 275.530993 -537.621247 
L 277.952689 -537.978815 
L 280.377841 -538.312149 
L 282.806204 -538.621214 
L 285.237536 -538.905981 
L 287.671595 -539.166421 
L 290.108136 -539.402508 
L 292.546916 -539.614218 
L 294.987692 -539.80153 
L 297.430218 -539.964425 
L 299.874251 -540.102887 
L 302.319547 -540.216902 
L 304.76586 -540.306459 
L 307.212947 -540.371549 
L 309.660562 -540.412165 
L 312.108461 -540.428304 
L 312.498337 -540.428614 
L 312.498337 -540.428614 
Q 312.498337 -295.632375 312.498337 -540.428614 
z
" style="stroke: #808080; stroke-opacity: 0.5; stroke-width: 0.1"/>
    </defs>
    <g clip-path="url(#p997efaeea6)">
     <use xlink:href="#m56e2ff8652" x="0" y="591.26475" style="fill: #000080; fill-opacity: 0.5; stroke: #808080; stroke-opacity: 0.5; stroke-width: 0.1"/>
    </g>
   </g>
   <g id="patch_4">
    <path d="M 312.498337 50.836136 
L 314.946258 50.848375 
L 317.393935 50.885093 
L 319.841122 50.946286 
L 322.287575 51.031947 
L 324.733049 51.142067 
L 327.1773 51.276637 
L 329.620083 51.435642 
L 332.061153 51.619066 
L 334.500267 51.826891 
L 336.937182 52.059097 
L 339.371652 52.31566 
L 341.803435 52.596555 
L 344.232287 52.901752 
L 346.657966 53.231223 
L 349.080229 53.584934 
L 351.498834 53.962849 
L 353.913539 54.364931 
L 356.324103 54.791139 
L 358.730284 55.241431 
L 361.131842 55.715762 
L 363.528536 56.214085 
L 365.920128 56.736349 
L 368.306377 57.282503 
L 370.687046 57.852492 
L 373.061895 58.446258 
L 375.430689 59.063743 
L 377.793189 59.704884 
L 380.14916 60.369618 
L 382.498366 61.057878 
L 384.840572 61.769595 
L 387.175544 62.504699 
L 389.503048 63.263114 
L 391.822851 64.044767 
L 394.134723 64.849578 
L 396.43843 65.677468 
L 398.733744 66.528352 
L 401.020434 67.402147 
L 403.298273 68.298765 
L 405.567031 69.218115 
L 407.826482 70.160108 
L 410.076401 71.124647 
L 412.316562 72.111636 
L 414.546741 73.120978 
L 416.766716 74.15257 
L 418.976264 75.206311 
L 421.175164 76.282093 
L 423.363196 77.379811 
L 425.540142 78.499354 
L 427.705784 79.640609 
L 429.859905 80.803464 
L 432.002291 81.987802 
L 434.132726 83.193503 
L 436.250997 84.420449 
L 438.356894 85.668515 
L 440.450205 86.937578 
L 442.53072 88.22751 
L 444.598233 89.538182 
L 446.652535 90.869464 
L 448.693423 92.221222 
L 450.720691 93.59332 
L 452.734136 94.985623 
L 454.733559 96.39799 
L 456.718758 97.83028 
L 458.689535 99.28235 
L 460.645693 100.754055 
L 462.587036 102.245248 
L 464.513371 103.755779 
L 466.424504 105.285498 
L 468.320245 106.834251 
L 470.200404 108.401884 
L 472.064792 109.98824 
L 473.913225 111.59316 
L 475.745515 113.216484 
L 477.561482 114.858049 
L 479.360942 116.517692 
L 481.143716 118.195245 
L 482.909625 119.890543 
L 484.658494 121.603414 
L 486.390146 123.333689 
L 488.10441 125.081193 
L 489.801113 126.845752 
L 491.480086 128.627189 
L 493.141161 130.425327 
L 494.784172 132.239985 
L 496.408954 134.070983 
L 498.015346 135.918136 
L 499.603186 137.781261 
L 501.172316 139.660171 
L 502.722578 141.554678 
L 504.253818 143.464592 
L 505.765883 145.389724 
L 507.258621 147.329879 
L 508.731883 149.284864 
L 510.185523 151.254484 
L 511.619393 153.238542 
L 513.033352 155.236839 
L 514.427257 157.249176 
L 515.80097 159.27535 
L 517.154352 161.315161 
L 518.487269 163.368402 
L 519.799587 165.434871 
L 521.091176 167.514358 
L 522.361905 169.606658 
L 523.611648 171.71156 
L 524.84028 173.828854 
L 526.047678 175.958328 
L 527.233721 178.099769 
L 528.398291 180.252964 
L 529.541271 182.417696 
L 530.662547 184.59375 
L 531.762006 186.780908 
L 532.83954 188.978951 
L 533.895039 191.187659 
L 534.928399 193.406811 
L 535.939517 195.636186 
L 536.92829 197.87556 
L 537.89462 200.12471 
L 538.838411 202.383411 
L 539.759568 204.651436 
L 540.658 206.928559 
L 541.533615 209.214553 
L 542.386327 211.509189 
L 543.216051 213.812236 
L 544.022703 216.123466 
L 544.806203 218.442647 
L 545.566472 220.769546 
L 546.303434 223.103932 
L 547.017016 225.44557 
L 547.707147 227.794227 
L 548.373757 230.149668 
L 549.016779 232.511657 
L 549.63615 234.879958 
L 550.231807 237.254334 
L 550.803691 239.634548 
L 551.351745 242.020362 
L 551.875914 244.411536 
L 552.376145 246.807833 
L 552.852388 249.209013 
L 553.304597 251.614834 
L 553.732725 254.025058 
L 554.136729 256.439442 
L 554.51657 258.857745 
L 554.872209 261.279726 
L 555.203612 263.705142 
L 555.510744 266.13375 
L 555.793574 268.565309 
L 556.052076 270.999574 
L 556.286222 273.436302 
L 556.49599 275.87525 
L 556.681358 278.316174 
L 556.842308 280.758829 
L 556.978824 283.202972 
L 557.090892 285.648358 
L 557.178501 288.094742 
L 557.241642 290.541879 
L 557.280309 292.989526 
L 557.294498 295.437437 
L 557.284208 297.885368 
L 557.249439 300.333073 
L 557.190196 302.780308 
L 557.106483 305.226829 
L 556.99831 307.67239 
L 556.865687 310.116747 
L 556.708627 312.559655 
L 556.527147 315.000871 
L 556.321264 317.44015 
L 556.090998 319.877248 
L 555.836374 322.311922 
L 555.557416 324.743928 
L 555.254153 327.173023 
L 554.926614 329.598963 
L 554.574832 332.021507 
L 554.198843 334.440413 
L 553.798685 336.855437 
L 553.374396 339.266339 
L 552.92602 341.672878 
L 552.453601 344.074813 
L 551.957187 346.471903 
L 551.436828 348.86391 
L 550.892574 351.250593 
L 550.324482 353.631715 
L 549.732607 356.007037 
L 549.117009 358.376321 
L 548.477749 360.739332 
L 547.814891 363.095831 
L 547.128502 365.445584 
L 546.41865 367.788356 
L 545.685407 370.123912 
L 544.928844 372.45202 
L 544.149039 374.772445 
L 543.346069 377.084957 
L 542.520015 379.389323 
L 541.670958 381.685314 
L 540.798985 383.972699 
L 539.904181 386.25125 
L 538.986637 388.52074 
L 538.046445 390.780941 
L 537.083698 393.031627 
L 536.098492 395.272573 
L 535.090927 397.503556 
L 534.061103 399.724351 
L 533.009122 401.934737 
L 531.935091 404.134493 
L 530.839116 406.323399 
L 529.721307 408.501236 
L 528.581776 410.667786 
L 527.420637 412.822833 
L 526.238006 414.96616 
L 525.034002 417.097555 
L 523.808743 419.216803 
L 522.562354 421.323693 
L 521.294959 423.418013 
L 520.006684 425.499555 
L 518.697659 427.568111 
L 517.368013 429.623473 
L 516.017881 431.665436 
L 514.647397 433.693796 
L 513.256699 435.70835 
L 511.845925 437.708896 
L 510.415216 439.695235 
L 508.964715 441.667168 
L 507.494569 443.624497 
L 506.004922 445.567028 
L 504.495925 447.494565 
L 502.967729 449.406915 
L 501.420486 451.303889 
L 499.854351 453.185295 
L 498.26948 455.050947 
L 496.666032 456.900656 
L 495.044168 458.734239 
L 493.404049 460.551512 
L 491.74584 462.352293 
L 490.069707 464.136403 
L 488.375816 465.903662 
L 486.664338 467.653893 
L 484.935443 469.386923 
L 483.189305 471.102578 
L 481.426097 472.800686 
L 479.645998 474.481077 
L 477.849183 476.143583 
L 476.035834 477.788039 
L 474.20613 479.414279 
L 472.360257 481.022141 
L 470.498397 482.611464 
L 468.620737 484.182089 
L 466.727465 485.73386 
L 464.818771 487.266621 
L 462.894844 488.780218 
L 460.955878 490.274501 
L 459.002067 491.749319 
L 457.033605 493.204526 
L 455.05069 494.639976 
L 453.053519 496.055526 
L 451.042293 497.451033 
L 449.017213 498.826359 
L 446.978481 500.181365 
L 444.926302 501.515917 
L 442.860879 502.82988 
L 440.782421 504.123124 
L 438.691134 505.395519 
L 436.587228 506.646938 
L 434.470913 507.877256 
L 432.342401 509.086349 
L 430.201905 510.274097 
L 428.049638 511.440381 
L 425.885816 512.585085 
L 423.710656 513.708093 
L 421.524375 514.809294 
L 419.327191 515.888577 
L 417.119324 516.945835 
L 414.900995 517.980962 
L 412.672426 518.993854 
L 410.43384 519.984411 
L 408.18546 520.952532 
L 405.927512 521.898121 
L 403.660221 522.821084 
L 401.383814 523.721329 
L 399.098518 524.598764 
L 396.804562 525.453303 
L 394.502176 526.284861 
L 392.191589 527.093353 
L 389.873034 527.878699 
L 387.54674 528.640821 
L 385.212942 529.379642 
L 382.871873 530.095089 
L 380.523766 530.787089 
L 378.168857 531.455575 
L 375.807381 532.100478 
L 373.439574 532.721734 
L 371.065673 533.319282 
L 368.685915 533.893062 
L 366.300538 534.443015 
L 363.909782 534.969088 
L 361.513884 535.471227 
L 359.113085 535.949382 
L 356.707624 536.403506 
L 354.297742 536.833553 
L 351.883681 537.239481 
L 349.465681 537.621247 
L 347.043984 537.978815 
L 344.618833 538.312149 
L 342.190469 538.621214 
L 339.759137 538.905981 
L 337.325078 539.166421 
L 334.888537 539.402508 
L 332.449757 539.614218 
L 330.008982 539.80153 
L 327.566455 539.964425 
L 325.122422 540.102887 
L 322.677126 540.216902 
L 320.230813 540.306459 
L 317.783726 540.371549 
L 315.336111 540.412165 
L 312.888212 540.428304 
L 312.498337 540.428614 
L 312.498337 542.901304 
L 312.89215 542.90099 
L 315.364775 542.884689 
L 317.837114 542.843662 
L 320.308919 542.777915 
L 322.779942 542.687453 
L 325.249938 542.572286 
L 327.718658 542.432425 
L 330.185857 542.267885 
L 332.651286 542.078681 
L 335.114701 541.864832 
L 337.575853 541.626361 
L 340.034498 541.36329 
L 342.49039 541.075647 
L 344.943282 540.763459 
L 347.39293 540.426759 
L 349.839088 540.065579 
L 352.281512 539.679956 
L 354.719958 539.269929 
L 357.154182 538.835538 
L 359.583941 538.376827 
L 362.00899 537.893842 
L 364.429089 537.38663 
L 366.843995 536.855244 
L 369.253466 536.299735 
L 371.657262 535.72016 
L 374.055142 535.116577 
L 376.446866 534.489045 
L 378.832196 533.837627 
L 381.210892 533.16239 
L 383.582717 532.463399 
L 385.947433 531.740726 
L 388.304805 530.994442 
L 390.654596 530.224622 
L 392.996572 529.431342 
L 395.330498 528.614684 
L 397.65614 527.774727 
L 399.973267 526.911556 
L 402.281647 526.025257 
L 404.581048 525.11592 
L 406.871241 524.183634 
L 409.151997 523.228493 
L 411.423088 522.250593 
L 413.684286 521.250031 
L 415.935366 520.226908 
L 418.176102 519.181325 
L 420.40627 518.113388 
L 422.625648 517.023202 
L 424.834013 515.910878 
L 427.031144 514.776526 
L 429.216823 513.62026 
L 431.390829 512.442195 
L 433.552947 511.24245 
L 435.702959 510.021143 
L 437.840651 508.778398 
L 439.965808 507.514339 
L 442.07822 506.229091 
L 444.177673 504.922784 
L 446.263958 503.595549 
L 448.336867 502.247517 
L 450.396192 500.878823 
L 452.441727 499.489606 
L 454.473269 498.080002 
L 456.490612 496.650154 
L 458.493557 495.200205 
L 460.481902 493.730298 
L 462.45545 492.240583 
L 464.414001 490.731206 
L 466.357361 489.20232 
L 468.285335 487.654077 
L 470.197731 486.086632 
L 472.094357 484.500142 
L 473.975024 482.894765 
L 475.839542 481.270662 
L 477.687727 479.627995 
L 479.519394 477.966929 
L 481.334358 476.28763 
L 483.132438 474.590265 
L 484.913456 472.875004 
L 486.677232 471.14202 
L 488.42359 469.391485 
L 490.152356 467.623573 
L 491.863357 465.838463 
L 493.556421 464.036333 
L 495.23138 462.217362 
L 496.888065 460.381733 
L 498.526312 458.529629 
L 500.145956 456.661235 
L 501.746836 454.776739 
L 503.32879 452.876329 
L 504.891662 450.960194 
L 506.435295 449.028526 
L 507.959534 447.081519 
L 509.464227 445.119367 
L 510.949224 443.142267 
L 512.414376 441.150416 
L 513.859537 439.144013 
L 515.284561 437.123259 
L 516.689307 435.088356 
L 518.073634 433.039508 
L 519.437404 430.976918 
L 520.78048 428.900795 
L 522.102728 426.811345 
L 523.404016 424.708777 
L 524.684213 422.593302 
L 525.943192 420.46513 
L 527.180826 418.324476 
L 528.396993 416.171552 
L 529.59157 414.006575 
L 530.764437 411.82976 
L 531.915479 409.641325 
L 533.044578 407.44149 
L 534.151624 405.230474 
L 535.236504 403.008498 
L 536.29911 400.775785 
L 537.339337 398.532557 
L 538.35708 396.27904 
L 539.352237 394.015458 
L 540.324709 391.742038 
L 541.274398 389.459006 
L 542.20121 387.166593 
L 543.105052 384.865025 
L 543.985833 382.554535 
L 544.843466 380.235353 
L 545.677865 377.90771 
L 546.488945 375.57184 
L 547.276627 373.227976 
L 548.040832 370.876352 
L 548.781482 368.517204 
L 549.498504 366.150768 
L 550.191826 363.77728 
L 550.861379 361.396978 
L 551.507096 359.010099 
L 552.128913 356.616882 
L 552.726766 354.217567 
L 553.300597 351.812394 
L 553.850348 349.401602 
L 554.375964 346.985434 
L 554.877392 344.56413 
L 555.354582 342.137933 
L 555.807487 339.707086 
L 556.236062 337.271832 
L 556.640263 334.832413 
L 557.02005 332.389074 
L 557.375384 329.94206 
L 557.706232 327.491615 
L 558.012559 325.037984 
L 558.294334 322.581412 
L 558.55153 320.122146 
L 558.784121 317.660431 
L 558.992084 315.196512 
L 559.175398 312.730638 
L 559.334044 310.263053 
L 559.468006 307.794006 
L 559.577272 305.323742 
L 559.66183 302.85251 
L 559.721673 300.380555 
L 559.756792 297.908125 
L 559.767187 295.435468 
L 559.752854 292.962831 
L 559.713797 290.49046 
L 559.650018 288.018604 
L 559.561524 285.547509 
L 559.448324 283.077423 
L 559.310429 280.608592 
L 559.147853 278.141263 
L 558.960613 275.675683 
L 558.748726 273.2121 
L 558.512215 270.750758 
L 558.251102 268.291904 
L 557.965414 265.835784 
L 557.65518 263.382644 
L 557.32043 260.932729 
L 556.961199 258.486284 
L 556.577521 256.043553 
L 556.169436 253.604782 
L 555.736983 251.170213 
L 555.280207 248.74009 
L 554.799153 246.314656 
L 554.293869 243.894154 
L 553.764406 241.478826 
L 553.210816 239.068913 
L 552.633155 236.664657 
L 552.031482 234.266297 
L 551.405854 231.874074 
L 550.756337 229.488226 
L 550.082993 227.108993 
L 549.385892 224.736612 
L 548.665102 222.371321 
L 547.920695 220.013356 
L 547.152747 217.662952 
L 546.361333 215.320346 
L 545.546533 212.98577 
L 544.708428 210.65946 
L 543.847103 208.341646 
L 542.962643 206.032561 
L 542.055136 203.732437 
L 541.124675 201.441502 
L 540.17135 199.159986 
L 539.195259 196.888117 
L 538.196498 194.626123 
L 537.175168 192.374229 
L 536.13137 190.132661 
L 535.065209 187.901643 
L 533.976791 185.681398 
L 532.866226 183.472148 
L 531.733624 181.274114 
L 530.579099 179.087515 
L 529.402765 176.912571 
L 528.204742 174.749499 
L 526.985148 172.598515 
L 525.744106 170.459834 
L 524.481739 168.333671 
L 523.198174 166.220237 
L 521.89354 164.119744 
L 520.567965 162.032403 
L 519.221585 159.958421 
L 517.854532 157.898007 
L 516.466943 155.851366 
L 515.058958 153.818703 
L 513.630717 151.800221 
L 512.182363 149.796122 
L 510.714041 147.806607 
L 509.225897 145.831874 
L 507.71808 143.872121 
L 506.190742 141.927544 
L 504.644035 139.998338 
L 503.078113 138.084694 
L 501.493134 136.186806 
L 499.889255 134.304861 
L 498.266637 132.43905 
L 496.625443 130.589557 
L 494.965836 128.756569 
L 493.287983 126.940268 
L 491.59205 125.140836 
L 489.878209 123.358453 
L 488.146629 121.593298 
L 486.397485 119.845546 
L 484.630951 118.115373 
L 482.847204 116.402951 
L 481.046422 114.708452 
L 479.228786 113.032046 
L 477.394477 111.373899 
L 475.543678 109.734178 
L 473.676575 108.113046 
L 471.793354 106.510667 
L 469.894204 104.927199 
L 467.979314 103.362802 
L 466.048876 101.817631 
L 464.103084 100.291842 
L 462.142131 98.785587 
L 460.166214 97.299016 
L 458.17553 95.832279 
L 456.170278 94.385521 
L 454.15066 92.958888 
L 452.116876 91.552522 
L 450.069131 90.166564 
L 448.007628 88.801152 
L 445.932575 87.456423 
L 443.844179 86.132511 
L 441.742648 84.82955 
L 439.628192 83.547668 
L 437.501024 82.286995 
L 435.361356 81.047656 
L 433.209401 79.829776 
L 431.045376 78.633475 
L 428.869496 77.458874 
L 426.681979 76.306091 
L 424.483043 75.17524 
L 422.272909 74.066434 
L 420.051798 72.979785 
L 417.819932 71.915401 
L 415.577533 70.873388 
L 413.324827 69.853851 
L 411.062038 68.856892 
L 408.789393 67.88261 
L 406.507119 66.931103 
L 404.215444 66.002466 
L 401.914597 65.096791 
L 399.604809 64.21417 
L 397.28631 63.354691 
L 394.959333 62.518439 
L 392.624109 61.705498 
L 390.280873 60.91595 
L 387.929859 60.149874 
L 385.571301 59.407345 
L 383.205437 58.688439 
L 380.832502 57.993226 
L 378.452733 57.321778 
L 376.066369 56.674161 
L 373.673649 56.050439 
L 371.27481 55.450675 
L 368.870095 54.874929 
L 366.459742 54.323258 
L 364.043993 53.795719 
L 361.623089 53.292362 
L 359.197273 52.81324 
L 356.766787 52.358399 
L 354.331875 51.927886 
L 351.892779 51.521742 
L 349.449744 51.14001 
L 347.003013 50.782727 
L 344.552832 50.449928 
L 342.099446 50.141647 
L 339.643099 49.857916 
L 337.184039 49.598761 
L 334.722509 49.36421 
L 332.258757 49.154285 
L 329.79303 48.969008 
L 327.325572 48.808397 
L 324.856632 48.672468 
L 322.386456 48.561235 
L 319.915292 48.474709 
L 317.443385 48.412899 
L 314.970985 48.37581 
L 312.498337 48.363446 
L 312.498337 50.836136 
z
" clip-path="url(#p997efaeea6)" style="fill: none; stroke: #000000; stroke-width: 0.5; stroke-linejoin: miter"/>
   </g>
   <g id="patch_5">
    <path d="M 312.498337 540.428614 
L 310.050415 540.416375 
L 307.602738 540.379657 
L 305.155551 540.318464 
L 302.709098 540.232803 
L 300.263624 540.122683 
L 297.819373 539.988113 
L 295.376591 539.829108 
L 292.93552 539.645684 
L 290.496406 539.437859 
L 288.059492 539.205653 
L 285.625021 538.94909 
L 283.193238 538.668195 
L 280.764386 538.362998 
L 278.338707 538.033527 
L 275.916444 537.679816 
L 273.497839 537.301901 
L 271.083134 536.899819 
L 268.67257 536.473611 
L 266.266389 536.023319 
L 263.864832 535.548988 
L 261.468137 535.050665 
L 259.076546 534.528401 
L 256.690296 533.982247 
L 254.309628 533.412258 
L 251.934778 532.818492 
L 249.565984 532.201007 
L 247.203484 531.559866 
L 244.847513 530.895132 
L 242.498307 530.206872 
L 240.156101 529.495155 
L 237.82113 528.760051 
L 235.493626 528.001636 
L 233.173822 527.219983 
L 230.861951 526.415172 
L 228.558243 525.587282 
L 226.262929 524.736398 
L 223.976239 523.862603 
L 221.698401 522.965985 
L 219.429642 522.046635 
L 217.170191 521.104642 
L 214.920272 520.140103 
L 212.680111 519.153114 
L 210.449932 518.143772 
L 208.229957 517.11218 
L 206.02041 516.058439 
L 203.82151 514.982657 
L 201.633477 513.884939 
L 199.456531 512.765396 
L 197.290889 511.624141 
L 195.136768 510.461286 
L 192.994382 509.276948 
L 190.863947 508.071247 
L 188.745676 506.844301 
L 186.639779 505.596235 
L 184.546469 504.327172 
L 182.465953 503.03724 
L 180.39844 501.726568 
L 178.344138 500.395286 
L 176.303251 499.043528 
L 174.275983 497.67143 
L 172.262537 496.279127 
L 170.263114 494.86676 
L 168.277915 493.43447 
L 166.307138 491.9824 
L 164.35098 490.510695 
L 162.409637 489.019502 
L 160.483302 487.508971 
L 158.572169 485.979252 
L 156.676428 484.430499 
L 154.796269 482.862866 
L 152.931881 481.27651 
L 151.083449 479.67159 
L 149.251158 478.048266 
L 147.435192 476.406701 
L 145.635732 474.747058 
L 143.852958 473.069505 
L 142.087048 471.374207 
L 140.33818 469.661336 
L 138.606527 467.931061 
L 136.892263 466.183557 
L 135.19556 464.418998 
L 133.516587 462.637561 
L 131.855512 460.839423 
L 130.212501 459.024765 
L 128.587719 457.193767 
L 126.981327 455.346614 
L 125.393487 453.483489 
L 123.824358 451.604579 
L 122.274095 449.710072 
L 120.742855 447.800158 
L 119.23079 445.875026 
L 117.738052 443.934871 
L 116.26479 441.979886 
L 114.811151 440.010266 
L 113.37728 438.026208 
L 111.963321 436.027911 
L 110.569416 434.015574 
L 109.195704 431.9894 
L 107.842321 429.949589 
L 106.509404 427.896348 
L 105.197086 425.829879 
L 103.905497 423.750392 
L 102.634768 421.658092 
L 101.385025 419.55319 
L 100.156393 417.435896 
L 98.948995 415.306422 
L 97.762952 413.164981 
L 96.598382 411.011786 
L 95.455402 408.847054 
L 94.334126 406.671 
L 93.234667 404.483842 
L 92.157133 402.285799 
L 91.101634 400.077091 
L 90.068274 397.857939 
L 89.057157 395.628564 
L 88.068383 393.38919 
L 87.102053 391.14004 
L 86.158262 388.881339 
L 85.237105 386.613314 
L 84.338673 384.336191 
L 83.463058 382.050197 
L 82.610346 379.755561 
L 81.780622 377.452514 
L 80.97397 375.141284 
L 80.190471 372.822103 
L 79.430202 370.495204 
L 78.693239 368.160818 
L 77.979657 365.81918 
L 77.289526 363.470523 
L 76.622916 361.115082 
L 75.979894 358.753093 
L 75.360523 356.384792 
L 74.764866 354.010416 
L 74.192982 351.630202 
L 73.644928 349.244388 
L 73.120759 346.853214 
L 72.620528 344.456917 
L 72.144285 342.055737 
L 71.692077 339.649916 
L 71.263949 337.239692 
L 70.859944 334.825308 
L 70.480103 332.407005 
L 70.124464 329.985024 
L 69.793062 327.559608 
L 69.48593 325.131 
L 69.203099 322.699441 
L 68.944597 320.265176 
L 68.710451 317.828448 
L 68.500683 315.3895 
L 68.315315 312.948576 
L 68.154365 310.505921 
L 68.017849 308.061778 
L 67.905781 305.616392 
L 67.818172 303.170008 
L 67.755031 300.722871 
L 67.716364 298.275224 
L 67.702175 295.827313 
L 67.712465 293.379382 
L 67.747234 290.931677 
L 67.806478 288.484442 
L 67.89019 286.037921 
L 67.998364 283.59236 
L 68.130987 281.148003 
L 68.288046 278.705095 
L 68.469527 276.263879 
L 68.67541 273.8246 
L 68.905675 271.387502 
L 69.160299 268.952828 
L 69.439257 266.520822 
L 69.74252 264.091727 
L 70.070059 261.665787 
L 70.421841 259.243243 
L 70.79783 256.824337 
L 71.197989 254.409313 
L 71.622277 251.998411 
L 72.070653 249.591872 
L 72.543072 247.189937 
L 73.039486 244.792847 
L 73.559846 242.40084 
L 74.104099 240.014157 
L 74.672191 237.633035 
L 75.264066 235.257713 
L 75.879665 232.888429 
L 76.518924 230.525418 
L 77.181782 228.168919 
L 77.868171 225.819166 
L 78.578023 223.476394 
L 79.311267 221.140838 
L 80.067829 218.81273 
L 80.847634 216.492305 
L 81.650604 214.179793 
L 82.476658 211.875427 
L 83.325715 209.579436 
L 84.197688 207.292051 
L 85.092492 205.0135 
L 86.010036 202.74401 
L 86.950228 200.483809 
L 87.912975 198.233123 
L 88.898181 195.992177 
L 89.905746 193.761194 
L 90.93557 191.540399 
L 91.987551 189.330013 
L 93.061582 187.130257 
L 94.157557 184.941351 
L 95.275366 182.763514 
L 96.414897 180.596964 
L 97.576036 178.441917 
L 98.758667 176.29859 
L 99.962672 174.167195 
L 101.18793 172.047947 
L 102.434319 169.941057 
L 103.701714 167.846737 
L 104.989989 165.765195 
L 106.299015 163.696639 
L 107.62866 161.641277 
L 108.978792 159.599314 
L 110.349276 157.570954 
L 111.739974 155.5564 
L 113.150749 153.555854 
L 114.581457 151.569515 
L 116.031958 149.597582 
L 117.502105 147.640253 
L 118.991751 145.697722 
L 120.500748 143.770185 
L 122.028944 141.857835 
L 123.576187 139.960861 
L 125.142323 138.079455 
L 126.727193 136.213803 
L 128.330641 134.364094 
L 129.952505 132.530511 
L 131.592624 130.713238 
L 133.250833 128.912457 
L 134.926967 127.128347 
L 136.620857 125.361088 
L 138.332335 123.610857 
L 140.06123 121.877827 
L 141.807369 120.162172 
L 143.570576 118.464064 
L 145.350676 116.783673 
L 147.14749 115.121167 
L 148.96084 113.476711 
L 150.790543 111.850471 
L 152.636417 110.242609 
L 154.498276 108.653286 
L 156.375936 107.082661 
L 158.269208 105.53089 
L 160.177902 103.998129 
L 162.101829 102.484532 
L 164.040795 100.990249 
L 165.994606 99.515431 
L 167.963068 98.060224 
L 169.945984 96.624774 
L 171.943154 95.209224 
L 173.95438 93.813717 
L 175.97946 92.438391 
L 178.018192 91.083385 
L 180.070372 89.748833 
L 182.135794 88.43487 
L 184.214253 87.141626 
L 186.305539 85.869231 
L 188.409446 84.617812 
L 190.52576 83.387494 
L 192.654272 82.178401 
L 194.794769 80.990653 
L 196.947035 79.824369 
L 199.110857 78.679665 
L 201.286017 77.556657 
L 203.472299 76.455456 
L 205.669482 75.376173 
L 207.877349 74.318915 
L 210.095678 73.283788 
L 212.324247 72.270896 
L 214.562833 71.280339 
L 216.811213 70.312218 
L 219.069161 69.366629 
L 221.336452 68.443666 
L 223.61286 67.543421 
L 225.898155 66.665986 
L 228.192111 65.811447 
L 230.494497 64.979889 
L 232.805084 64.171397 
L 235.12364 63.386051 
L 237.449933 62.623929 
L 239.783731 61.885108 
L 242.1248 61.169661 
L 244.472907 60.477661 
L 246.827816 59.809175 
L 249.189292 59.164272 
L 251.557099 58.543016 
L 253.931001 57.945468 
L 256.310758 57.371688 
L 258.696135 56.821735 
L 261.086892 56.295662 
L 263.482789 55.793523 
L 265.883589 55.315368 
L 268.289049 54.861244 
L 270.698931 54.431197 
L 273.112993 54.025269 
L 275.530993 53.643503 
L 277.952689 53.285935 
L 280.377841 52.952601 
L 282.806204 52.643536 
L 285.237536 52.358769 
L 287.671595 52.098329 
L 290.108136 51.862242 
L 292.546916 51.650532 
L 294.987692 51.46322 
L 297.430218 51.300325 
L 299.874251 51.161863 
L 302.319547 51.047848 
L 304.76586 50.958291 
L 307.212947 50.893201 
L 309.660562 50.852585 
L 312.108461 50.836446 
L 312.498337 50.836136 
L 312.498337 48.363446 
L 312.104523 48.36376 
L 309.631898 48.380061 
L 307.159559 48.421088 
L 304.687754 48.486835 
L 302.216731 48.577297 
L 299.746735 48.692464 
L 297.278015 48.832325 
L 294.810816 48.996865 
L 292.345387 49.186069 
L 289.881973 49.399918 
L 287.42082 49.638389 
L 284.962175 49.90146 
L 282.506283 50.189103 
L 280.053391 50.501291 
L 277.603743 50.837991 
L 275.157585 51.199171 
L 272.715161 51.584794 
L 270.276715 51.994821 
L 267.842491 52.429212 
L 265.412733 52.887923 
L 262.987683 53.370908 
L 260.567584 53.87812 
L 258.152678 54.409506 
L 255.743207 54.965015 
L 253.339411 55.54459 
L 250.941531 56.148173 
L 248.549807 56.775705 
L 246.164478 57.427123 
L 243.785781 58.10236 
L 241.413957 58.801351 
L 239.04924 59.524024 
L 236.691868 60.270308 
L 234.342077 61.040128 
L 232.000101 61.833408 
L 229.666176 62.650066 
L 227.340533 63.490023 
L 225.023406 64.353194 
L 222.715026 65.239493 
L 220.415625 66.14883 
L 218.125432 67.081116 
L 215.844676 68.036257 
L 213.573586 69.014157 
L 211.312387 70.014719 
L 209.061308 71.037842 
L 206.820572 72.083425 
L 204.590403 73.151362 
L 202.371025 74.241548 
L 200.16266 75.353872 
L 197.965529 76.488224 
L 195.77985 77.64449 
L 193.605844 78.822555 
L 191.443726 80.0223 
L 189.293714 81.243607 
L 187.156022 82.486352 
L 185.030865 83.750411 
L 182.918454 85.035659 
L 180.819001 86.341966 
L 178.732715 87.669201 
L 176.659806 89.017233 
L 174.600481 90.385927 
L 172.554946 91.775144 
L 170.523405 93.184748 
L 168.506061 94.614596 
L 166.503116 96.064545 
L 164.514771 97.534452 
L 162.541224 99.024167 
L 160.582672 100.533544 
L 158.639312 102.06243 
L 156.711338 103.610673 
L 154.798942 105.178118 
L 152.902316 106.764608 
L 151.02165 108.369985 
L 149.157131 109.994088 
L 147.308946 111.636755 
L 145.47728 113.297821 
L 143.662315 114.97712 
L 141.864235 116.674485 
L 140.083217 118.389746 
L 138.319441 120.12273 
L 136.573083 121.873265 
L 134.844317 123.641177 
L 133.133316 125.426287 
L 131.440252 127.228417 
L 129.765293 129.047388 
L 128.108608 130.883017 
L 126.470361 132.735121 
L 124.850717 134.603515 
L 123.249838 136.488011 
L 121.667883 138.388421 
L 120.105011 140.304556 
L 118.561378 142.236224 
L 117.037139 144.183231 
L 115.532446 146.145383 
L 114.047449 148.122483 
L 112.582297 150.114334 
L 111.137137 152.120737 
L 109.712112 154.141491 
L 108.307366 156.176394 
L 106.923039 158.225242 
L 105.559269 160.287832 
L 104.216193 162.363955 
L 102.893945 164.453405 
L 101.592658 166.555973 
L 100.31246 168.671448 
L 99.053481 170.79962 
L 97.815847 172.940274 
L 96.59968 175.093198 
L 95.405103 177.258175 
L 94.232236 179.43499 
L 93.081194 181.623425 
L 91.952095 183.82326 
L 90.845049 186.034276 
L 89.760169 188.256252 
L 88.697563 190.488965 
L 87.657336 192.732193 
L 86.639593 194.98571 
L 85.644436 197.249292 
L 84.671965 199.522712 
L 83.722275 201.805744 
L 82.795463 204.098157 
L 81.891621 206.399725 
L 81.01084 208.710215 
L 80.153207 211.029397 
L 79.318809 213.35704 
L 78.507728 215.69291 
L 77.720046 218.036774 
L 76.955842 220.388398 
L 76.215191 222.747546 
L 75.498169 225.113982 
L 74.804847 227.48747 
L 74.135294 229.867772 
L 73.489577 232.254651 
L 72.867761 234.647868 
L 72.269907 237.047183 
L 71.696076 239.452356 
L 71.146326 241.863148 
L 70.62071 244.279316 
L 70.119281 246.70062 
L 69.642091 249.126817 
L 69.189186 251.557664 
L 68.760611 253.992918 
L 68.356411 256.432337 
L 67.976624 258.875676 
L 67.621289 261.32269 
L 67.290441 263.773135 
L 66.984115 266.226766 
L 66.702339 268.683338 
L 66.445143 271.142604 
L 66.212552 273.604319 
L 66.004589 276.068238 
L 65.821276 278.534112 
L 65.66263 281.001697 
L 65.528667 283.470744 
L 65.419401 285.941008 
L 65.334843 288.41224 
L 65.275001 290.884195 
L 65.239881 293.356625 
L 65.229486 295.829282 
L 65.243819 298.301919 
L 65.282876 300.77429 
L 65.346655 303.246146 
L 65.435149 305.717241 
L 65.548349 308.187327 
L 65.686244 310.656158 
L 65.84882 313.123487 
L 66.036061 315.589067 
L 66.247947 318.05265 
L 66.484459 320.513992 
L 66.745571 322.972846 
L 67.031259 325.428966 
L 67.341493 327.882106 
L 67.676243 330.332021 
L 68.035474 332.778466 
L 68.419152 335.221197 
L 68.827238 337.659968 
L 69.25969 340.094537 
L 69.716466 342.52466 
L 70.19752 344.950094 
L 70.702804 347.370596 
L 71.232267 349.785924 
L 71.785857 352.195837 
L 72.363518 354.600093 
L 72.965192 356.998453 
L 73.590819 359.390676 
L 74.240336 361.776524 
L 74.91368 364.155757 
L 75.610781 366.528138 
L 76.331571 368.893429 
L 77.075978 371.251394 
L 77.843927 373.601798 
L 78.63534 375.944404 
L 79.45014 378.27898 
L 80.288245 380.60529 
L 81.14957 382.923104 
L 82.03403 385.232189 
L 82.941537 387.532313 
L 83.871999 389.823248 
L 84.825323 392.104764 
L 85.801414 394.376633 
L 86.800175 396.638627 
L 87.821506 398.890521 
L 88.865304 401.132089 
L 89.931465 403.363107 
L 91.019882 405.583352 
L 92.130448 407.792602 
L 93.263049 409.990636 
L 94.417575 412.177235 
L 95.593908 414.352179 
L 96.791931 416.515251 
L 98.011525 418.666235 
L 99.252567 420.804916 
L 100.514934 422.931079 
L 101.798499 425.044513 
L 103.103134 427.145006 
L 104.428708 429.232347 
L 105.775089 431.306329 
L 107.142142 433.366743 
L 108.52973 435.413384 
L 109.937715 437.446047 
L 111.365956 439.464529 
L 112.81431 441.468628 
L 114.282633 443.458143 
L 115.770776 445.432876 
L 117.278593 447.392629 
L 118.805931 449.337206 
L 120.352638 451.266412 
L 121.91856 453.180056 
L 123.503539 455.077944 
L 125.107418 456.959889 
L 126.730036 458.8257 
L 128.37123 460.675193 
L 130.030837 462.508181 
L 131.708691 464.324482 
L 133.404623 466.123914 
L 135.118465 467.906297 
L 136.850044 469.671452 
L 138.599188 471.419204 
L 140.365722 473.149377 
L 142.149469 474.861799 
L 143.950251 476.556298 
L 145.767887 478.232704 
L 147.602196 479.890851 
L 149.452995 481.530572 
L 151.320098 483.151704 
L 153.203319 484.754083 
L 155.10247 486.337551 
L 157.017359 487.901948 
L 158.947797 489.447119 
L 160.89359 490.972908 
L 162.854542 492.479163 
L 164.83046 493.965734 
L 166.821144 495.432471 
L 168.826395 496.879229 
L 170.846014 498.305862 
L 172.879797 499.712228 
L 174.927543 501.098186 
L 176.989045 502.463598 
L 179.064098 503.808327 
L 181.152495 505.132239 
L 183.254026 506.4352 
L 185.368481 507.717082 
L 187.495649 508.977755 
L 189.635317 510.217094 
L 191.787272 511.434974 
L 193.951297 512.631275 
L 196.127177 513.805876 
L 198.314695 514.958659 
L 200.51363 516.08951 
L 202.723764 517.198316 
L 204.944875 518.284965 
L 207.176741 519.349349 
L 209.41914 520.391362 
L 211.671846 521.410899 
L 213.934635 522.407858 
L 216.20728 523.38214 
L 218.489555 524.333647 
L 220.78123 525.262284 
L 223.082076 526.167959 
L 225.391864 527.05058 
L 227.710363 527.910059 
L 230.037341 528.746311 
L 232.372564 529.559252 
L 234.7158 530.3488 
L 237.066814 531.114876 
L 239.425372 531.857405 
L 241.791236 532.576311 
L 244.164171 533.271524 
L 246.54394 533.942972 
L 248.930304 534.590589 
L 251.323025 535.214311 
L 253.721863 535.814075 
L 256.126579 536.389821 
L 258.536932 536.941492 
L 260.952681 537.469031 
L 263.373584 537.972388 
L 265.7994 538.45151 
L 268.229886 538.906351 
L 270.664798 539.336864 
L 273.103894 539.743008 
L 275.54693 540.12474 
L 277.99366 540.482023 
L 280.443841 540.814822 
L 282.897227 541.123103 
L 285.353574 541.406834 
L 287.812635 541.665989 
L 290.274164 541.90054 
L 292.737916 542.110465 
L 295.203644 542.295742 
L 297.671101 542.456353 
L 300.140041 542.592282 
L 302.610217 542.703515 
L 305.081381 542.790041 
L 307.553288 542.851851 
L 310.025689 542.88894 
L 312.498337 542.901304 
L 312.498337 540.428614 
z
" clip-path="url(#p997efaeea6)" style="fill: none; stroke: #000000; stroke-width: 0.5; stroke-linejoin: miter"/>
   </g>
   <g id="text_1">
    <text style="font: 3px 'DejaVu Sans', 'Bitstream Vera Sans', 'Computer Modern Sans Serif', 'Lucida Grande', 'Verdana', 'Geneva', 'Lucid', 'Arial', 'Helvetica', 'Avant Garde', sans-serif; text-anchor: start" x="562.239954" y="296.832141" transform="rotate(-0 562.239954 296.832141)">University of Lom</text>
   </g>
   <g id="text_2">
    <text style="font: 3px 'DejaVu Sans', 'Bitstream Vera Sans', 'Computer Modern Sans Serif', 'Lucida Grande', 'Verdana', 'Geneva', 'Lucid', 'Arial', 'Helvetica', 'Avant Garde', sans-serif; text-anchor: end" x="62.756719" y="296.772141" transform="rotate(-0 62.756719 296.772141)">University of Kara</text>
   </g>
  </g>
 </g>
 <defs>
  <clipPath id="p997efaeea6">
   <path d="M 572.130712 295.632375 
C 572.130712 261.537764 565.414817 227.77468 552.367374 196.275367 
C 539.319931 164.776053 520.19468 136.153093 496.08615 112.044562 
C 471.977619 87.936031 443.354658 68.810781 411.855345 55.763338 
C 380.356032 42.715895 346.592948 36 312.498337 36 
C 278.403726 36 244.640642 42.715895 213.141328 55.763338 
C 181.642015 68.810781 153.019054 87.936031 128.910524 112.044562 
C 104.801993 136.153093 85.676742 164.776053 72.629299 196.275367 
C 59.581857 227.77468 52.865962 261.537764 52.865962 295.632375 
C 52.865962 329.726986 59.581857 363.49007 72.629299 394.989383 
C 85.676742 426.488697 104.801993 455.111657 128.910524 479.220188 
C 153.019054 503.328719 181.642015 522.453969 213.141328 535.501412 
C 244.640642 548.548855 278.403726 555.26475 312.498337 555.26475 
C 346.592948 555.26475 380.356032 548.548855 411.855345 535.501412 
C 443.354658 522.453969 471.977619 503.328719 496.08615 479.220188 
C 520.19468 455.111657 539.319931 426.488697 552.367374 394.989383 
C 565.414817 363.49007 572.130712 329.726986 572.130712 295.632375 
M 312.498337 295.632375 
C 312.498337 295.632375 312.498337 295.632375 312.498337 295.632375 
C 312.498337 295.632375 312.498337 295.632375 312.498337 295.632375 
C 312.498337 295.632375 312.498337 295.632375 312.498337 295.632375 
C 312.498337 295.632375 312.498337 295.632375 312.498337 295.632375 
C 312.498337 295.632375 312.498337 295.632375 312.498337 295.632375 
C 312.498337 295.632375 312.498337 295.632375 312.498337 295.632375 
C 312.498337 295.632375 312.498337 295.632375 312.498337 295.632375 
C 312.498337 295.632375 312.498337 295.632375 312.498337 295.632375 
C 312.498337 295.632375 312.498337 295.632375 312.498337 295.632375 
C 312.498337 295.632375 312.498337 295.632375 312.498337 295.632375 
C 312.498337 295.632375 312.498337 295.632375 312.498337 295.632375 
C 312.498337 295.632375 312.498337 295.632375 312.498337 295.632375 
C 312.498337 295.632375 312.498337 295.632375 312.498337 295.632375 
C 312.498337 295.632375 312.498337 295.632375 312.498337 295.632375 
C 312.498337 295.632375 312.498337 295.632375 312.498337 295.632375 
C 312.498337 295.632375 312.498337 295.632375 312.498337 295.632375 
z
"/>
  </clipPath>
 </defs>
</svg>
