<?xml version="1.0" encoding="utf-8" standalone="no"?>
<!DOCTYPE svg PUBLIC "-//W3C//DTD SVG 1.1//EN"
  "http://www.w3.org/Graphics/SVG/1.1/DTD/svg11.dtd">
<svg xmlns:xlink="http://www.w3.org/1999/xlink" width="612.246944pt" height="624.098693pt" viewBox="0 0 612.246944 624.098693" xmlns="http://www.w3.org/2000/svg" version="1.1">
 <metadata>
  <rdf:RDF xmlns:dc="http://purl.org/dc/elements/1.1/" xmlns:cc="http://creativecommons.org/ns#" xmlns:rdf="http://www.w3.org/1999/02/22-rdf-syntax-ns#">
   <cc:Work>
    <dc:type rdf:resource="http://purl.org/dc/dcmitype/StillImage"/>
    <dc:date>2024-11-16T04:33:14.238601</dc:date>
    <dc:format>image/svg+xml</dc:format>
    <dc:creator>
     <cc:Agent>
      <dc:title>Matplotlib v3.8.4, https://matplotlib.org/</dc:title>
     </cc:Agent>
    </dc:creator>
   </cc:Work>
  </rdf:RDF>
 </metadata>
 <defs>
  <style type="text/css">*{stroke-linejoin: round; stroke-linecap: butt}</style>
 </defs>
 <g id="figure_1">
  <g id="patch_1">
   <path d="M 0 624.098693 
L 612.246944 624.098693 
L 612.246944 0 
L 0 0 
z
" style="fill: #ffffff"/>
  </g>
  <g id="axes_1">
   <g id="patch_2">
    <path d="M 294.459929 85.947974 
L 296.896796 85.960158 
L 299.33342 85.99671 
L 301.769556 86.057626 
L 304.204961 86.1429 
L 306.639392 86.252524 
L 309.072605 86.386486 
L 311.504357 86.544772 
L 313.934404 86.727368 
L 316.362503 86.934255 
L 318.788413 87.165413 
L 321.21189 87.420817 
L 323.632691 87.700443 
L 326.050575 88.004263 
L 328.465301 88.332245 
L 330.876625 88.684359 
L 333.284308 89.060567 
L 335.688109 89.460833 
L 338.087787 89.885117 
L 340.483102 90.333376 
L 342.873815 90.805565 
L 345.259687 91.301638 
L 347.640478 91.821543 
L 350.015952 92.365231 
L 352.38587 92.932645 
L 354.749995 93.52373 
L 357.108092 94.138427 
L 359.459923 94.776673 
L 361.805255 95.438405 
L 364.143852 96.123557 
L 366.475481 96.83206 
L 368.799909 97.563844 
L 371.116902 98.318835 
L 373.42623 99.096958 
L 375.727662 99.898135 
L 378.020966 100.722285 
L 380.305915 101.569327 
L 382.582279 102.439176 
L 384.849831 103.331745 
L 387.108344 104.246944 
L 387.716357 104.497831 
L 388.658341 102.22368 
L 388.044187 101.970259 
L 385.76286 101.045816 
L 383.472404 100.144231 
L 381.173046 99.265596 
L 378.865017 98.409998 
L 376.548548 97.577522 
L 374.22387 96.768253 
L 371.891215 95.98227 
L 369.550818 95.219653 
L 367.202911 94.480477 
L 364.84773 93.764817 
L 362.485511 93.072745 
L 360.116489 92.404328 
L 357.740901 91.759635 
L 355.358986 91.13873 
L 352.97098 90.541674 
L 350.577124 89.968528 
L 348.177655 89.419349 
L 345.772815 88.894192 
L 343.362844 88.393109 
L 340.947983 87.91615 
L 338.528472 87.463363 
L 336.104555 87.034794 
L 333.676474 86.630484 
L 331.244471 86.250476 
L 328.808789 85.894806 
L 326.369673 85.56351 
L 323.927366 85.256622 
L 321.482112 84.974171 
L 319.034155 84.716187 
L 316.583742 84.482695 
L 314.131116 84.273718 
L 311.676522 84.089278 
L 309.220208 83.929392 
L 306.762417 83.794077 
L 304.303396 83.683346 
L 301.843391 83.597211 
L 299.382647 83.535679 
L 296.921411 83.498758 
L 294.459929 83.486451 
z
" clip-path="url(#pf2ac91921d)" style="fill: #000080"/>
   </g>
   <g id="patch_3">
    <path d="M 387.716357 104.497831 
L 389.963066 105.441636 
L 392.200225 106.407862 
L 394.427609 107.39641 
L 396.644998 108.407182 
L 398.852167 109.440077 
L 401.048898 110.494992 
L 403.23497 111.571821 
L 405.410164 112.670456 
L 407.574264 113.790789 
L 409.727052 114.932705 
L 411.868313 116.096093 
L 413.997834 117.280834 
L 416.115401 118.486811 
L 418.220803 119.713903 
L 420.313828 120.961987 
L 422.394269 122.230939 
L 424.461916 123.520631 
L 426.516563 124.830935 
L 428.558004 126.16172 
L 430.586036 127.512852 
L 432.600455 128.884197 
L 434.60106 130.275616 
L 436.587651 131.686973 
L 438.56003 133.118124 
L 440.517999 134.568927 
L 442.461362 136.039236 
L 444.389925 137.528906 
L 446.303495 139.037786 
L 448.201881 140.565727 
L 450.084892 142.112574 
L 451.952342 143.678174 
L 453.804042 145.26237 
L 455.639808 146.865003 
L 457.459457 148.485914 
L 459.262805 150.124939 
L 461.049673 151.781916 
L 462.819883 153.456679 
L 464.573256 155.149059 
L 466.309618 156.858889 
L 466.775339 157.323354 
L 468.515899 155.582794 
L 468.045474 155.113637 
L 466.291573 153.386537 
L 464.520488 151.677062 
L 462.732398 149.985382 
L 460.92748 148.311668 
L 459.105916 146.656087 
L 457.267888 145.018803 
L 455.413579 143.399982 
L 453.543174 141.799784 
L 451.656862 140.21837 
L 449.75483 138.655898 
L 447.837268 137.112524 
L 445.904369 135.588402 
L 443.956326 134.083685 
L 441.993333 132.598524 
L 440.015586 131.133067 
L 438.023285 129.687459 
L 436.016627 128.261847 
L 433.995814 126.856373 
L 431.961047 125.471176 
L 429.91253 124.106396 
L 427.850468 122.762169 
L 425.775067 121.43863 
L 423.686535 120.13591 
L 421.58508 118.854141 
L 419.470912 117.59345 
L 417.344244 116.353963 
L 415.205288 115.135804 
L 413.054256 113.939096 
L 410.891366 112.763957 
L 408.716833 111.610506 
L 406.530874 110.478857 
L 404.333708 109.369124 
L 402.125554 108.281418 
L 399.906634 107.215848 
L 397.67717 106.172519 
L 395.437384 105.151537 
L 393.1875 104.153004 
L 390.927744 103.177019 
L 388.658341 102.22368 
z
" clip-path="url(#pf2ac91921d)" style="fill: #0000ff"/>
   </g>
   <g id="patch_4">
    <path d="M 466.775339 157.323354 
L 468.489849 159.055095 
L 470.186955 160.803894 
L 471.86649 162.569577 
L 473.528284 164.351966 
L 475.172171 166.150884 
L 476.797987 167.966151 
L 478.405569 169.797584 
L 479.994757 171.645002 
L 481.565392 173.508219 
L 483.117316 175.387049 
L 484.650374 177.281304 
L 486.164414 179.190795 
L 487.659284 181.11533 
L 489.134833 183.054717 
L 490.590916 185.008763 
L 492.027385 186.977272 
L 493.444098 188.960046 
L 494.840913 190.956889 
L 496.217689 192.967599 
L 497.57429 194.991977 
L 498.91058 197.029819 
L 500.226425 199.080922 
L 501.521693 201.14508 
L 502.796256 203.222088 
L 504.049985 205.311737 
L 505.282755 207.413819 
L 506.494443 209.528123 
L 507.684928 211.654439 
L 508.85409 213.792552 
L 510.001813 215.94225 
L 511.127983 218.103318 
L 512.232485 220.275539 
L 513.315211 222.458697 
L 514.376051 224.652572 
L 515.414899 226.856946 
L 516.431653 229.071598 
L 517.426209 231.296306 
L 518.398469 233.530849 
L 519.348336 235.775002 
L 519.600862 236.382336 
L 521.875013 235.440352 
L 521.619936 234.826884 
L 520.660475 232.560062 
L 519.678394 230.302948 
L 518.673791 228.055768 
L 517.646768 225.818746 
L 516.597426 223.592105 
L 515.52587 221.37607 
L 514.432208 219.17086 
L 513.316549 216.976698 
L 512.179004 214.793801 
L 511.019688 212.622389 
L 509.838716 210.462678 
L 508.636206 208.314885 
L 507.412278 206.179224 
L 506.167056 204.055909 
L 504.900663 201.945152 
L 503.613226 199.847164 
L 502.304875 197.762155 
L 500.975738 195.690334 
L 499.625951 193.631908 
L 498.255646 191.587082 
L 496.864963 189.556062 
L 495.454039 187.539049 
L 494.023016 185.536246 
L 492.572037 183.547854 
L 491.101247 181.57407 
L 489.610792 179.615093 
L 488.100823 177.671118 
L 486.57149 175.74234 
L 485.022946 173.828951 
L 483.455346 171.931143 
L 481.868846 170.049106 
L 480.263606 168.183027 
L 478.639785 166.333094 
L 476.997547 164.499491 
L 475.337055 162.682403 
L 473.658475 160.882009 
L 471.961976 159.098491 
L 470.247727 157.332027 
L 468.515899 155.582794 
z
" clip-path="url(#pf2ac91921d)" style="fill: #0080ff"/>
   </g>
   <g id="patch_5">
    <path d="M 519.600862 236.382336 
L 520.522154 238.63837 
L 521.42084 240.903505 
L 522.296829 243.177513 
L 523.150036 245.460167 
L 523.980373 247.751239 
L 524.787759 250.050499 
L 525.572112 252.357719 
L 526.333354 254.672666 
L 527.071409 256.99511 
L 527.786203 259.324818 
L 528.477664 261.661558 
L 529.145724 264.005095 
L 529.790316 266.355195 
L 530.411375 268.711624 
L 531.008838 271.074146 
L 531.582648 273.442523 
L 532.132745 275.816521 
L 532.659074 278.195901 
L 533.161585 280.580424 
L 533.640225 282.969854 
L 534.094947 285.363951 
L 534.525706 287.762475 
L 534.932459 290.165186 
L 535.315165 292.571845 
L 535.673785 294.982211 
L 536.008284 297.396042 
L 536.318629 299.813097 
L 536.604788 302.233135 
L 536.866732 304.655914 
L 537.104436 307.08119 
L 537.317876 309.508723 
L 537.50703 311.938268 
L 537.67188 314.369584 
L 537.812409 316.802426 
L 537.928603 319.236552 
L 538.02045 321.671719 
L 538.087941 324.107682 
L 538.13107 326.544198 
L 538.149831 328.981023 
L 538.150719 329.638764 
L 540.612242 329.638764 
L 540.611345 328.974379 
L 540.592394 326.512939 
L 540.54883 324.051812 
L 540.480657 321.591243 
L 540.387882 319.13148 
L 540.270515 316.672766 
L 540.128567 314.21535 
L 539.962052 311.759476 
L 539.770987 309.305389 
L 539.555391 306.853336 
L 539.315286 304.403562 
L 539.050695 301.956311 
L 538.761646 299.511828 
L 538.448167 297.070358 
L 538.110289 294.632144 
L 537.748046 292.197432 
L 537.361475 289.766463 
L 536.950613 287.339482 
L 536.515503 284.91673 
L 536.056187 282.498451 
L 535.572712 280.084886 
L 535.065126 277.676276 
L 534.53348 275.272862 
L 533.977826 272.874885 
L 533.398221 270.482584 
L 532.794723 268.096198 
L 532.167391 265.715967 
L 531.516288 263.342128 
L 530.84148 260.974919 
L 530.143034 258.614576 
L 529.42102 256.261336 
L 528.67551 253.915433 
L 527.906579 251.577102 
L 527.114303 249.246578 
L 526.298762 246.924092 
L 525.460037 244.609878 
L 524.598212 242.304167 
L 523.713374 240.007189 
L 522.805611 237.719175 
L 521.875013 235.440352 
z
" clip-path="url(#pf2ac91921d)" style="fill: #16ffe1"/>
   </g>
   <g id="patch_6">
    <path d="M 538.150719 329.638764 
L 538.138534 332.075631 
L 538.101982 334.512255 
L 538.041066 336.948391 
L 537.955792 339.383796 
L 537.846169 341.818227 
L 537.712207 344.25144 
L 537.55392 346.683192 
L 537.371324 349.113239 
L 537.164437 351.541338 
L 536.93328 353.967248 
L 536.677876 356.390725 
L 536.39825 358.811526 
L 536.09443 361.22941 
L 535.766447 363.644136 
L 535.414334 366.05546 
L 535.038125 368.463143 
L 534.637859 370.866944 
L 534.213576 373.266622 
L 533.765317 375.661937 
L 533.293127 378.05265 
L 532.797055 380.438521 
L 532.277149 382.819313 
L 531.733462 385.194787 
L 531.166047 387.564705 
L 530.574962 389.92883 
L 529.960266 392.286927 
L 529.32202 394.638758 
L 528.660288 396.98409 
L 527.975136 399.322687 
L 527.266633 401.654316 
L 526.534849 403.978744 
L 525.779858 406.295737 
L 525.001735 408.605065 
L 524.200558 410.906497 
L 523.376407 413.199801 
L 522.529365 415.48475 
L 521.659516 417.761114 
L 520.766948 420.028666 
L 519.851748 422.287179 
L 518.91401 424.536427 
L 517.953827 426.776186 
L 516.971294 429.006231 
L 515.96651 431.226339 
L 514.939576 433.436289 
L 513.890595 435.635858 
L 512.81967 437.824829 
L 511.726909 440.00298 
L 510.612422 442.170096 
L 509.47632 444.325958 
L 508.318717 446.470352 
L 507.139727 448.603063 
L 505.93947 450.723877 
L 504.718065 452.832583 
L 503.475635 454.92897 
L 502.212303 457.012828 
L 500.928196 459.083948 
L 499.623443 461.142124 
L 498.298173 463.18715 
L 496.952519 465.218821 
L 495.586617 467.236934 
L 494.200602 469.241288 
L 492.794613 471.231681 
L 491.368791 473.207915 
L 489.923278 475.169793 
L 488.458219 477.117117 
L 486.97376 479.049694 
L 485.47005 480.96733 
L 483.947239 482.869833 
L 482.40548 484.757013 
L 480.844926 486.628681 
L 479.265734 488.48465 
L 477.668061 490.324735 
L 476.052068 492.148752 
L 474.417915 493.956518 
L 472.765767 495.747852 
L 471.095789 497.522575 
L 469.408147 499.28051 
L 467.703011 501.021481 
L 466.775339 501.954174 
L 468.515899 503.694734 
L 469.452941 502.75262 
L 471.175301 500.994063 
L 472.87999 499.218371 
L 474.566836 497.425721 
L 476.235673 495.616293 
L 477.886332 493.790267 
L 479.518648 491.947826 
L 481.132459 490.089154 
L 482.727602 488.214438 
L 484.303919 486.323864 
L 485.861252 484.417621 
L 487.399445 482.495901 
L 488.918344 480.558895 
L 490.417797 478.606797 
L 491.897655 476.639803 
L 493.357769 474.658109 
L 494.797994 472.661913 
L 496.218184 470.651414 
L 497.6182 468.626815 
L 498.997899 466.588317 
L 500.357145 464.536124 
L 501.695801 462.470441 
L 503.013734 460.391475 
L 504.310812 458.299434 
L 505.586905 456.194527 
L 506.841885 454.076965 
L 508.075627 451.946959 
L 509.288008 449.804722 
L 510.478906 447.650469 
L 511.648203 445.484415 
L 512.795781 443.306776 
L 513.921525 441.117771 
L 515.025324 438.917617 
L 516.107066 436.706536 
L 517.166644 434.484748 
L 518.203951 432.252476 
L 519.218884 430.009943 
L 520.211341 427.757372 
L 521.181223 425.49499 
L 522.128433 423.223022 
L 523.052877 420.941695 
L 523.954462 418.651239 
L 524.833097 416.351881 
L 525.688695 414.043852 
L 526.52117 411.727383 
L 527.33044 409.402705 
L 528.116423 407.07005 
L 528.87904 404.729653 
L 529.618215 402.381746 
L 530.333875 400.026565 
L 531.025948 397.664346 
L 531.694364 395.295324 
L 532.339057 392.919736 
L 532.959963 390.537821 
L 533.557018 388.149815 
L 534.130164 385.755959 
L 534.679343 383.35649 
L 535.204501 380.95165 
L 535.705584 378.541679 
L 536.182543 376.126818 
L 536.63533 373.707307 
L 537.063899 371.28339 
L 537.468208 368.855309 
L 537.848217 366.423306 
L 538.203887 363.987624 
L 538.535183 361.548508 
L 538.842071 359.106201 
L 539.124522 356.660946 
L 539.382506 354.21299 
L 539.615998 351.762577 
L 539.824975 349.309951 
L 540.009415 346.855357 
L 540.169301 344.399043 
L 540.304616 341.941252 
L 540.415346 339.482231 
L 540.501482 337.022226 
L 540.563013 334.561482 
L 540.599934 332.100246 
L 540.612242 329.638764 
z
" clip-path="url(#pf2ac91921d)" style="fill: #7dff7a"/>
   </g>
   <g id="patch_7">
    <path d="M 466.775339 501.954174 
L 465.043598 503.668684 
L 463.294799 505.36579 
L 461.529116 507.045325 
L 459.746726 508.707119 
L 457.947809 510.351006 
L 456.132542 511.976822 
L 454.301108 513.584404 
L 452.45369 515.173592 
L 450.590473 516.744227 
L 448.711644 518.296151 
L 446.817389 519.829209 
L 444.907898 521.343249 
L 442.983363 522.838119 
L 441.043975 524.313668 
L 439.08993 525.769751 
L 437.121421 527.20622 
L 435.138646 528.622933 
L 433.141804 530.019748 
L 431.131093 531.396524 
L 429.106716 532.753125 
L 427.068874 534.089415 
L 425.017771 535.40526 
L 422.953613 536.700528 
L 420.876605 537.975091 
L 418.786955 539.22882 
L 416.684874 540.46159 
L 414.570569 541.673278 
L 412.444254 542.863763 
L 410.30614 544.032925 
L 408.156442 545.180648 
L 405.995374 546.306818 
L 403.823153 547.41132 
L 401.639996 548.494046 
L 399.446121 549.554886 
L 397.241747 550.593734 
L 395.027095 551.610488 
L 392.802386 552.605044 
L 390.567844 553.577304 
L 388.32369 554.52717 
L 386.07015 555.454548 
L 383.80745 556.359344 
L 381.535814 557.241469 
L 379.255471 558.100833 
L 376.966649 558.937351 
L 374.669576 559.75094 
L 372.364482 560.541518 
L 370.051598 561.309005 
L 367.731155 562.053326 
L 365.403384 562.774405 
L 363.06852 563.472171 
L 360.726794 564.146554 
L 358.378442 564.797486 
L 356.023698 565.424903 
L 353.662798 566.028741 
L 351.295977 566.608941 
L 348.923473 567.165443 
L 346.545523 567.698193 
L 344.162364 568.207138 
L 341.774235 568.692226 
L 339.381374 569.153408 
L 336.984022 569.59064 
L 334.582417 570.003876 
L 332.1768 570.393076 
L 329.767411 570.758201 
L 327.354491 571.099214 
L 324.938282 571.416081 
L 322.519026 571.708771 
L 320.096963 571.977254 
L 317.672337 572.221503 
L 315.245389 572.441494 
L 312.816363 572.637205 
L 310.385501 572.808617 
L 307.953047 572.955711 
L 305.519243 573.078474 
L 303.084334 573.176894 
L 300.648562 573.25096 
L 298.212171 573.300664 
L 295.775405 573.326003 
L 293.338508 573.326974 
L 290.901722 573.303575 
L 288.465293 573.255811 
L 286.029462 573.183684 
L 283.594475 573.087204 
L 281.160575 572.966379 
L 278.728004 572.821221 
L 276.297007 572.651746 
L 273.867826 572.457969 
L 271.440704 572.239911 
L 269.015883 571.997592 
L 266.593608 571.731038 
L 264.174119 571.440275 
L 261.757658 571.125332 
L 259.344468 570.786241 
L 256.934789 570.423035 
L 254.528863 570.03575 
L 252.126929 569.624427 
L 249.729229 569.189104 
L 247.336002 568.729827 
L 244.947488 568.246642 
L 242.563924 567.739595 
L 240.185551 567.208739 
L 237.812604 566.654126 
L 235.445322 566.075811 
L 233.083942 565.473853 
L 230.728699 564.848312 
L 228.379829 564.19925 
L 226.037568 563.526732 
L 223.702148 562.830825 
L 221.373804 562.1116 
L 219.052769 561.369127 
L 216.739274 560.603482 
L 214.433551 559.81474 
L 212.135831 559.002981 
L 209.846343 558.168286 
L 207.565317 557.310737 
L 205.29298 556.430422 
L 203.029559 555.527428 
L 200.775282 554.601845 
L 198.530373 553.653766 
L 196.295057 552.683286 
L 194.069557 551.690502 
L 191.854096 550.675512 
L 189.648895 549.638419 
L 187.454176 548.579327 
L 185.270157 547.49834 
L 183.097057 546.395567 
L 180.935093 545.27112 
L 178.784482 544.125109 
L 176.645438 542.957649 
L 174.518175 541.768858 
L 172.402907 540.558854 
L 170.299844 539.327758 
L 168.209197 538.075694 
L 166.131175 536.802786 
L 164.065985 535.509161 
L 162.013835 534.19495 
L 159.97493 532.860284 
L 157.949473 531.505295 
L 155.937666 530.13012 
L 153.939712 528.734896 
L 151.95581 527.319763 
L 149.986158 525.884861 
L 148.030954 524.430335 
L 146.090392 522.956331 
L 144.164667 521.462994 
L 142.253971 519.950475 
L 140.358496 518.418926 
L 138.478431 516.868498 
L 136.613964 515.299348 
L 134.765281 513.711631 
L 132.932568 512.105508 
L 131.116007 510.481138 
L 129.31578 508.838684 
L 127.532068 507.17831 
L 125.765049 505.500182 
L 124.014899 503.804469 
L 122.281793 502.091339 
L 120.565905 500.360963 
L 118.867406 498.613516 
L 117.186466 496.849172 
L 115.523253 495.068106 
L 113.877934 493.270498 
L 112.250673 491.456526 
L 110.641633 489.626373 
L 109.050974 487.780222 
L 107.478856 485.918256 
L 105.925436 484.040663 
L 104.39087 482.147629 
L 102.87531 480.239345 
L 101.378908 478.316 
L 99.901815 476.377789 
L 98.444177 474.424903 
L 97.00614 472.457539 
L 95.587849 470.475893 
L 94.189445 468.480164 
L 92.811067 466.47055 
L 91.452855 464.447254 
L 90.114942 462.410476 
L 88.797465 460.360422 
L 87.500553 458.297296 
L 86.224337 456.221303 
L 84.968944 454.132653 
L 83.7345 452.031554 
L 82.521129 449.918215 
L 81.328952 447.792848 
L 80.158087 445.655666 
L 79.008652 443.506883 
L 77.880762 441.346713 
L 76.77453 439.175372 
L 75.690067 436.993077 
L 74.62748 434.800047 
L 73.586876 432.596502 
L 72.56836 430.38266 
L 71.572032 428.158744 
L 70.597993 425.924976 
L 69.64634 423.68158 
L 68.717168 421.428779 
L 67.81057 419.1668 
L 66.926637 416.895868 
L 66.065457 414.61621 
L 65.227116 412.328055 
L 64.411699 410.03163 
L 63.619286 407.727167 
L 62.849957 405.414894 
L 62.103788 403.095044 
L 61.380856 400.767849 
L 60.68123 398.433541 
L 60.004983 396.092353 
L 59.352181 393.74452 
L 58.722889 391.390276 
L 58.117171 389.029858 
L 57.535087 386.6635 
L 56.976695 384.29144 
L 56.442052 381.913914 
L 55.93121 379.531162 
L 55.44422 377.14342 
L 54.981133 374.750927 
L 54.541992 372.353923 
L 54.126844 369.952648 
L 53.735728 367.547342 
L 53.368685 365.138245 
L 53.02575 362.725597 
L 52.706959 360.309641 
L 52.412343 357.890618 
L 52.141931 355.46877 
L 51.895751 353.044339 
L 51.673828 350.617568 
L 51.476182 348.188698 
L 51.302835 345.757974 
L 51.153803 343.325637 
L 51.029102 340.891932 
L 50.928744 338.457102 
L 50.852738 336.02139 
L 50.801093 333.585039 
L 50.773814 331.148294 
L 50.769139 329.638764 
L 48.307616 329.638764 
L 48.312338 331.163542 
L 48.339893 333.624901 
L 48.39206 336.085861 
L 48.468833 338.546176 
L 48.570205 341.005601 
L 48.696166 343.463889 
L 48.846703 345.920794 
L 49.021801 348.376071 
L 49.221443 350.829475 
L 49.445608 353.280759 
L 49.694275 355.72968 
L 49.967418 358.175991 
L 50.26501 360.619448 
L 50.587021 363.059808 
L 50.93342 365.496825 
L 51.30417 367.930257 
L 51.699237 370.359859 
L 52.118579 372.78539 
L 52.562155 375.206605 
L 53.02992 377.623265 
L 53.521829 380.035125 
L 54.037831 382.441946 
L 54.577875 384.843487 
L 55.141907 387.239507 
L 55.729871 389.629768 
L 56.341707 392.014029 
L 56.977355 394.392053 
L 57.636751 396.763601 
L 58.319829 399.128437 
L 59.026521 401.486325 
L 59.756757 403.837027 
L 60.510462 406.18031 
L 61.287562 408.515938 
L 62.087979 410.843679 
L 62.911633 413.1633 
L 63.758442 415.474568 
L 64.628321 417.777253 
L 65.521182 420.071124 
L 66.436938 422.355951 
L 67.375495 424.631507 
L 68.336761 426.897564 
L 69.320639 429.153895 
L 70.327031 431.400275 
L 71.355835 433.636479 
L 72.40695 435.862283 
L 73.48027 438.077464 
L 74.575688 440.281802 
L 75.693094 442.475076 
L 76.832377 444.657066 
L 77.993422 446.827554 
L 79.176113 448.986324 
L 80.380333 451.133159 
L 81.605961 453.267844 
L 82.852874 455.390167 
L 84.120947 457.499915 
L 85.410054 459.596877 
L 86.720066 461.680843 
L 88.050852 463.751605 
L 89.402278 465.808956 
L 90.77421 467.852689 
L 92.16651 469.882602 
L 93.57904 471.89849 
L 95.011658 473.900153 
L 96.46422 475.887389 
L 97.936581 477.860001 
L 99.428595 479.817791 
L 100.940112 481.760563 
L 102.47098 483.688123 
L 104.021048 485.600278 
L 105.590159 487.496837 
L 107.178156 489.37761 
L 108.784882 491.24241 
L 110.410176 493.091049 
L 112.053874 494.923343 
L 113.715812 496.739109 
L 115.395825 498.538166 
L 117.093744 500.320332 
L 118.809399 502.08543 
L 120.54262 503.833284 
L 122.293232 505.563718 
L 124.06106 507.27656 
L 125.845928 508.971639 
L 127.647658 510.648784 
L 129.466068 512.307829 
L 131.300978 513.948606 
L 133.152204 515.570953 
L 135.01956 517.174707 
L 136.90286 518.759708 
L 138.801916 520.325796 
L 140.716537 521.872816 
L 142.646533 523.400613 
L 144.59171 524.909033 
L 146.551873 526.397927 
L 148.526827 527.867145 
L 150.516375 529.31654 
L 152.520316 530.745968 
L 154.538452 532.155285 
L 156.570579 533.544351 
L 158.616495 534.913026 
L 160.675996 536.261174 
L 162.748875 537.58866 
L 164.834925 538.895352 
L 166.933937 540.181117 
L 169.045701 541.445829 
L 171.170008 542.68936 
L 173.306642 543.911586 
L 175.455393 545.112385 
L 177.616043 546.291637 
L 179.788378 547.449224 
L 181.97218 548.58503 
L 184.16723 549.698942 
L 186.37331 550.790847 
L 188.590198 551.860638 
L 190.817673 552.908207 
L 193.055513 553.933449 
L 195.303492 554.936261 
L 197.561387 555.916544 
L 199.828972 556.8742 
L 202.10602 557.809132 
L 204.392304 558.721247 
L 206.687594 559.610454 
L 208.991661 560.476665 
L 211.304275 561.319791 
L 213.625204 562.13975 
L 215.954217 562.936459 
L 218.29108 563.709838 
L 220.63556 564.45981 
L 222.987423 565.186301 
L 225.346433 565.889237 
L 227.712354 566.568548 
L 230.084949 567.224166 
L 232.463982 567.856026 
L 234.849215 568.464064 
L 237.240409 569.04822 
L 239.637324 569.608435 
L 242.039722 570.144654 
L 244.447362 570.656822 
L 246.860003 571.144889 
L 249.277404 571.608805 
L 251.699323 572.048524 
L 254.125519 572.464003 
L 256.555747 572.855199 
L 258.989766 573.222074 
L 261.427332 573.56459 
L 263.868201 573.882715 
L 266.31213 574.176415 
L 268.758873 574.445661 
L 271.208186 574.690427 
L 273.659824 574.910688 
L 276.113543 575.106422 
L 278.569096 575.27761 
L 281.026238 575.424234 
L 283.484723 575.546279 
L 285.944306 575.643734 
L 288.404741 575.716589 
L 290.865781 575.764836 
L 293.32718 575.788471 
L 295.788693 575.787491 
L 298.250073 575.761896 
L 300.711073 575.711689 
L 303.171449 575.636875 
L 305.630954 575.537461 
L 308.089341 575.413458 
L 310.546366 575.264878 
L 313.001781 575.091735 
L 315.455343 574.894047 
L 317.906805 574.671834 
L 320.355923 574.425117 
L 322.802451 574.153922 
L 325.246145 573.858276 
L 327.68676 573.538208 
L 330.124052 573.193751 
L 332.557778 572.824938 
L 334.987695 572.431806 
L 337.413558 572.014396 
L 339.835126 571.572748 
L 342.252157 571.106907 
L 344.664409 570.616919 
L 347.07164 570.102834 
L 349.47361 569.564703 
L 351.870079 569.002579 
L 354.260807 568.416519 
L 356.645554 567.806581 
L 359.024084 567.172827 
L 361.396156 566.51532 
L 363.761536 565.834125 
L 366.119985 565.129311 
L 368.471268 564.400948 
L 370.81515 563.649109 
L 373.151397 562.873869 
L 375.479775 562.075305 
L 377.80005 561.253499 
L 380.111992 560.408531 
L 382.415369 559.540486 
L 384.70995 558.649451 
L 386.995506 557.735516 
L 389.271809 556.798771 
L 391.538631 555.83931 
L 393.795744 554.857229 
L 396.042925 553.852626 
L 398.279947 552.825603 
L 400.506587 551.776261 
L 402.722623 550.704705 
L 404.927832 549.611043 
L 407.121995 548.495384 
L 409.304892 547.357839 
L 411.476304 546.198523 
L 413.636015 545.017551 
L 415.783808 543.815041 
L 417.919469 542.591113 
L 420.042784 541.345891 
L 422.153541 540.079498 
L 424.251529 538.792061 
L 426.336537 537.48371 
L 428.408358 536.154573 
L 430.466784 534.804786 
L 432.51161 533.434481 
L 434.542631 532.043798 
L 436.559643 530.632874 
L 438.562446 529.201851 
L 440.550839 527.750872 
L 442.524622 526.280082 
L 444.483599 524.789627 
L 446.427574 523.279658 
L 448.356353 521.750325 
L 450.269742 520.201781 
L 452.16755 518.634181 
L 454.049587 517.047681 
L 455.915666 515.442441 
L 457.765599 513.81862 
L 459.599201 512.176382 
L 461.41629 510.51589 
L 463.216683 508.83731 
L 465.000201 507.140811 
L 466.766665 505.426562 
L 468.515899 503.694734 
z
" clip-path="url(#pf2ac91921d)" style="fill: #e4ff13"/>
   </g>
   <g id="patch_8">
    <path d="M 50.769139 329.638764 
L 50.781323 327.201897 
L 50.817875 324.765273 
L 50.878791 322.329137 
L 50.964065 319.893731 
L 51.073689 317.459301 
L 51.207651 315.026088 
L 51.365937 312.594336 
L 51.548534 310.164289 
L 51.75542 307.736189 
L 51.986578 305.31028 
L 52.241982 302.886803 
L 52.521608 300.466001 
L 52.825428 298.048117 
L 53.15341 295.633392 
L 53.505524 293.222067 
L 53.881732 290.814384 
L 54.281998 288.410583 
L 54.706282 286.010906 
L 55.154541 283.61559 
L 55.62673 281.224878 
L 56.122803 278.839006 
L 56.642708 276.458215 
L 57.186396 274.082741 
L 57.75381 271.712823 
L 58.344895 269.348698 
L 58.959592 266.990601 
L 59.597838 264.638769 
L 60.25957 262.293437 
L 60.944722 259.95484 
L 61.653225 257.623211 
L 62.385009 255.298784 
L 63.14 252.98179 
L 63.918123 250.672462 
L 64.7193 248.371031 
L 65.54345 246.077726 
L 66.390492 243.792778 
L 67.260341 241.516413 
L 68.15291 239.248862 
L 69.068109 236.990349 
L 70.005848 234.7411 
L 70.966031 232.501342 
L 71.948564 230.271297 
L 72.953347 228.051189 
L 73.980281 225.841239 
L 75.029263 223.641669 
L 76.100188 221.452699 
L 77.192948 219.274547 
L 78.307435 217.107432 
L 79.443537 214.951569 
L 80.601141 212.807176 
L 81.78013 210.674465 
L 82.980387 208.55365 
L 84.201792 206.444944 
L 85.444223 204.348558 
L 86.707555 202.2647 
L 87.991661 200.19358 
L 89.296415 198.135404 
L 90.621685 196.090378 
L 91.967338 194.058707 
L 93.333241 192.040593 
L 94.719256 190.03624 
L 96.125245 188.045846 
L 97.551067 186.069612 
L 98.99658 184.107735 
L 100.461639 182.16041 
L 101.946098 180.227834 
L 103.449808 178.310198 
L 104.972619 176.407695 
L 106.514378 174.520515 
L 108.074932 172.648847 
L 109.654124 170.792877 
L 111.251797 168.952792 
L 112.86779 167.128776 
L 114.501942 165.32101 
L 116.15409 163.529676 
L 117.824069 161.754953 
L 119.511711 159.997018 
L 121.216847 158.256047 
L 122.144519 157.323354 
L 120.403959 155.582794 
L 119.466917 156.524908 
L 117.744557 158.283465 
L 116.039868 160.059156 
L 114.353021 161.851806 
L 112.684185 163.661235 
L 111.033526 165.487261 
L 109.40121 167.329702 
L 107.787399 169.188373 
L 106.192255 171.06309 
L 104.615938 172.953664 
L 103.058605 174.859906 
L 101.520413 176.781627 
L 100.001514 178.718632 
L 98.50206 180.67073 
L 97.022203 182.637724 
L 95.562089 184.619419 
L 94.121864 186.615615 
L 92.701673 188.626113 
L 91.301658 190.650713 
L 89.921959 192.689211 
L 88.562713 194.741404 
L 87.224056 196.807087 
L 85.906123 198.886052 
L 84.609046 200.978093 
L 83.332953 203.083 
L 82.077973 205.200562 
L 80.84423 207.330569 
L 79.631849 209.472805 
L 78.440951 211.627058 
L 77.271655 213.793113 
L 76.124077 215.970752 
L 74.998332 218.159757 
L 73.894534 220.35991 
L 72.812792 222.570991 
L 71.753214 224.792779 
L 70.715907 227.025051 
L 69.700974 229.267585 
L 68.708517 231.520156 
L 67.738635 233.782538 
L 66.791424 236.054506 
L 65.866981 238.335832 
L 64.965396 240.626289 
L 64.086761 242.925646 
L 63.231163 245.233675 
L 62.398687 247.550145 
L 61.589418 249.874823 
L 60.803435 252.207477 
L 60.040818 254.547875 
L 59.301642 256.895781 
L 58.585982 259.250962 
L 57.89391 261.613182 
L 57.225493 263.982204 
L 56.5808 266.357791 
L 55.959895 268.739707 
L 55.362839 271.127712 
L 54.789693 273.521569 
L 54.240514 275.921037 
L 53.715357 278.325877 
L 53.214274 280.735848 
L 52.737315 283.15071 
L 52.284528 285.57022 
L 51.855959 287.994137 
L 51.451649 290.422219 
L 51.071641 292.854222 
L 50.715971 295.289903 
L 50.384675 297.72902 
L 50.077787 300.171327 
L 49.795336 302.616581 
L 49.537352 305.064537 
L 49.30386 307.514951 
L 49.094883 309.967577 
L 48.910443 312.42217 
L 48.750557 314.878485 
L 48.615242 317.336276 
L 48.504511 319.795297 
L 48.418376 322.255302 
L 48.356844 324.716046 
L 48.319923 327.177282 
L 48.307616 329.638764 
z
" clip-path="url(#pf2ac91921d)" style="fill: #ff9400"/>
   </g>
   <g id="patch_9">
    <path d="M 122.144519 157.323354 
L 123.87626 155.608844 
L 125.625059 153.911737 
L 127.390742 152.232203 
L 129.173131 150.570409 
L 130.972049 148.926522 
L 132.787316 147.300706 
L 134.618749 145.693124 
L 136.466167 144.103936 
L 138.329384 142.533301 
L 140.208214 140.981377 
L 142.102469 139.448318 
L 144.01196 137.934278 
L 145.936495 136.439409 
L 147.875882 134.963859 
L 149.829928 133.507777 
L 151.798437 132.071307 
L 153.781211 130.654595 
L 155.778054 129.25778 
L 157.788764 127.881003 
L 159.813142 126.524402 
L 161.850984 125.188112 
L 163.902087 123.872268 
L 165.966245 122.576999 
L 168.043253 121.302437 
L 170.132902 120.048708 
L 172.234984 118.815938 
L 174.349288 117.60425 
L 176.475604 116.413765 
L 178.613717 115.244602 
L 180.763415 114.096879 
L 182.924483 112.97071 
L 185.096704 111.866207 
L 187.279862 110.783482 
L 189.473737 109.722642 
L 191.678111 108.683793 
L 193.892763 107.66704 
L 196.117471 106.672483 
L 198.352014 105.700223 
L 200.596168 104.750357 
L 201.203501 104.497831 
L 200.261517 102.22368 
L 199.648049 102.478757 
L 197.381227 103.438218 
L 195.124113 104.420299 
L 192.876933 105.424901 
L 190.639911 106.451925 
L 188.41327 107.501267 
L 186.197235 108.572823 
L 183.992025 109.666485 
L 181.797863 110.782144 
L 179.614966 111.919688 
L 177.443554 113.079005 
L 175.283843 114.259977 
L 173.13605 115.462487 
L 171.000389 116.686414 
L 168.877074 117.931636 
L 166.766317 119.198029 
L 164.668329 120.485466 
L 162.583321 121.793818 
L 160.511499 123.122954 
L 158.453073 124.472742 
L 156.408247 125.843046 
L 154.377227 127.23373 
L 152.360214 128.644653 
L 150.357412 130.075677 
L 148.369019 131.526656 
L 146.395235 132.997446 
L 144.436258 134.4879 
L 142.492283 135.997869 
L 140.563505 137.527203 
L 138.650116 139.075747 
L 136.752308 140.643347 
L 134.870271 142.229847 
L 133.004192 143.835087 
L 131.154259 145.458907 
L 129.320656 147.101146 
L 127.503568 148.761638 
L 125.703174 150.440217 
L 123.919656 152.136717 
L 122.153192 153.850966 
L 120.403959 155.582794 
z
" clip-path="url(#pf2ac91921d)" style="fill: #ff1e00"/>
   </g>
   <g id="patch_10">
    <path d="M 201.203501 104.497831 
L 203.459535 103.576539 
L 205.72467 102.677853 
L 207.998678 101.801863 
L 210.281332 100.948657 
L 212.572404 100.118319 
L 214.871664 99.310934 
L 217.178884 98.526581 
L 219.493831 97.765339 
L 221.816275 97.027284 
L 224.145983 96.31249 
L 226.482723 95.621028 
L 228.82626 94.952968 
L 231.17636 94.308377 
L 233.532789 93.687318 
L 235.895311 93.089854 
L 238.263688 92.516045 
L 240.637686 91.965948 
L 243.017066 91.439618 
L 245.401589 90.937108 
L 247.791019 90.458468 
L 250.185116 90.003745 
L 252.58364 89.572986 
L 254.986351 89.166234 
L 257.39301 88.783528 
L 259.803376 88.424908 
L 262.217207 88.090408 
L 264.634262 87.780064 
L 267.0543 87.493905 
L 269.477079 87.23196 
L 271.902355 86.994256 
L 274.329888 86.780816 
L 276.759433 86.591662 
L 279.190749 86.426812 
L 281.623591 86.286284 
L 284.057717 86.17009 
L 286.492884 86.078243 
L 288.928847 86.010752 
L 291.365363 85.967623 
L 293.802188 85.948861 
L 294.459929 85.947974 
L 294.459929 83.486451 
L 293.795544 83.487347 
L 291.334105 83.506298 
L 288.872977 83.549863 
L 286.412409 83.618036 
L 283.952645 83.71081 
L 281.493931 83.828178 
L 279.036515 83.970126 
L 276.580641 84.136641 
L 274.126554 84.327706 
L 271.674501 84.543302 
L 269.224727 84.783407 
L 266.777476 85.047997 
L 264.332993 85.337047 
L 261.891523 85.650526 
L 259.453309 85.988404 
L 257.018597 86.350647 
L 254.587628 86.737218 
L 252.160647 87.148079 
L 249.737895 87.58319 
L 247.319616 88.042505 
L 244.906051 88.52598 
L 242.497441 89.033566 
L 240.094027 89.565213 
L 237.69605 90.120866 
L 235.303749 90.700471 
L 232.917363 91.30397 
L 230.537132 91.931302 
L 228.163293 92.582405 
L 225.796084 93.257213 
L 223.435741 93.955659 
L 221.082501 94.677673 
L 218.736598 95.423183 
L 216.398267 96.192114 
L 214.067743 96.98439 
L 211.745257 97.799931 
L 209.431043 98.638656 
L 207.125332 99.50048 
L 204.828354 100.385319 
L 202.54034 101.293082 
L 200.261517 102.22368 
z
" clip-path="url(#pf2ac91921d)" style="fill: #800000"/>
   </g>
   <g id="PatchCollection_1">
    <path d="M 466.775339 501.954174 
L 466.775339 501.954174 
L 465.043598 503.668684 
L 463.294799 505.36579 
L 461.529116 507.045325 
L 459.746726 508.707119 
L 457.947809 510.351006 
L 456.132542 511.976822 
L 454.301108 513.584404 
L 452.45369 515.173592 
L 450.590473 516.744227 
L 448.711644 518.296151 
L 446.817389 519.829209 
L 444.907898 521.343249 
L 442.983363 522.838119 
L 441.043975 524.313668 
L 439.08993 525.769751 
L 437.121421 527.20622 
L 435.138646 528.622933 
L 433.141804 530.019748 
L 431.131093 531.396524 
L 429.106716 532.753125 
L 427.068874 534.089415 
L 425.017771 535.40526 
L 422.953613 536.700528 
L 420.876605 537.975091 
L 418.786955 539.22882 
L 416.684874 540.46159 
L 414.570569 541.673278 
L 412.444254 542.863763 
L 410.30614 544.032925 
L 408.156442 545.180648 
L 405.995374 546.306818 
L 403.823153 547.41132 
L 401.639996 548.494046 
L 399.446121 549.554886 
L 397.241747 550.593734 
L 395.027095 551.610488 
L 392.802386 552.605044 
L 390.567844 553.577304 
L 388.32369 554.52717 
L 387.716357 554.779697 
L 387.716357 554.779697 
Q 294.459929 329.638764 201.203501 104.497831 
L 201.203501 104.497831 
L 201.203501 104.497831 
L 203.459535 103.576539 
L 205.72467 102.677853 
L 207.998678 101.801863 
L 210.281332 100.948657 
L 212.572404 100.118319 
L 214.871664 99.310934 
L 217.178884 98.526581 
L 219.493831 97.765339 
L 221.816275 97.027284 
L 224.145983 96.31249 
L 226.482723 95.621028 
L 228.82626 94.952968 
L 231.17636 94.308377 
L 233.532789 93.687318 
L 235.895311 93.089854 
L 238.263688 92.516045 
L 240.637686 91.965948 
L 243.017066 91.439618 
L 245.401589 90.937108 
L 247.791019 90.458468 
L 250.185116 90.003745 
L 252.58364 89.572986 
L 254.986351 89.166234 
L 257.39301 88.783528 
L 259.803376 88.424908 
L 262.217207 88.090408 
L 264.634262 87.780064 
L 267.0543 87.493905 
L 269.477079 87.23196 
L 271.902355 86.994256 
L 274.329888 86.780816 
L 276.759433 86.591662 
L 279.190749 86.426812 
L 281.623591 86.286284 
L 284.057717 86.17009 
L 286.492884 86.078243 
L 288.928847 86.010752 
L 291.365363 85.967623 
L 293.802188 85.948861 
L 294.459929 85.947974 
L 294.459929 85.947974 
Q 294.459929 329.638764 466.775339 501.954174 
z
" clip-path="url(#pf2ac91921d)" style="fill: #e4ff13; fill-opacity: 0.5; stroke: #808080; stroke-opacity: 0.5; stroke-width: 0.1"/>
    <path d="M 387.716357 554.779697 
L 387.716357 554.779697 
L 385.460322 555.700989 
L 383.195188 556.599675 
L 380.92118 557.475664 
L 378.638526 558.328871 
L 376.347454 559.159208 
L 374.048193 559.966594 
L 371.740974 560.750947 
L 369.426027 561.512189 
L 367.103583 562.250244 
L 364.773875 562.965038 
L 362.437135 563.656499 
L 360.093598 564.324559 
L 357.743497 564.969151 
L 355.387068 565.59021 
L 353.024547 566.187673 
L 350.656169 566.761482 
L 348.282172 567.311579 
L 345.902792 567.837909 
L 343.518268 568.34042 
L 341.128839 568.81906 
L 338.734742 569.273782 
L 336.336218 569.704541 
L 333.933506 570.111294 
L 331.526848 570.494 
L 329.116482 570.85262 
L 326.702651 571.187119 
L 324.285595 571.497464 
L 321.865557 571.783623 
L 319.442779 572.045567 
L 317.017502 572.283271 
L 314.58997 572.496711 
L 312.160424 572.685865 
L 309.729109 572.850715 
L 307.296266 572.991244 
L 304.86214 573.107438 
L 302.426974 573.199285 
L 299.991011 573.266776 
L 297.554495 573.309904 
L 295.117669 573.328666 
L 294.459929 573.329554 
L 294.459929 573.329554 
Q 294.459929 329.638764 122.144519 157.323354 
L 122.144519 157.323354 
L 122.144519 157.323354 
L 123.87626 155.608844 
L 125.625059 153.911737 
L 127.390742 152.232203 
L 129.173131 150.570409 
L 130.972049 148.926522 
L 132.787316 147.300706 
L 134.618749 145.693124 
L 136.466167 144.103936 
L 138.329384 142.533301 
L 140.208214 140.981377 
L 142.102469 139.448318 
L 144.01196 137.934278 
L 145.936495 136.439409 
L 147.875882 134.963859 
L 149.829928 133.507777 
L 151.798437 132.071307 
L 153.781211 130.654595 
L 155.778054 129.25778 
L 157.788764 127.881003 
L 159.813142 126.524402 
L 161.850984 125.188112 
L 163.902087 123.872268 
L 165.966245 122.576999 
L 168.043253 121.302437 
L 170.132902 120.048708 
L 172.234984 118.815938 
L 174.349288 117.60425 
L 176.475604 116.413765 
L 178.613717 115.244602 
L 180.763415 114.096879 
L 182.924483 112.97071 
L 185.096704 111.866207 
L 187.279862 110.783482 
L 189.473737 109.722642 
L 191.678111 108.683793 
L 193.892763 107.66704 
L 196.117471 106.672483 
L 198.352014 105.700223 
L 200.596168 104.750357 
L 201.203501 104.497831 
L 201.203501 104.497831 
Q 294.459929 329.638764 387.716357 554.779697 
z
" clip-path="url(#pf2ac91921d)" style="fill: #e4ff13; fill-opacity: 0.5; stroke: #808080; stroke-opacity: 0.5; stroke-width: 0.1"/>
    <path d="M 294.459929 573.329554 
L 294.459929 573.329554 
L 292.023062 573.317369 
L 289.586438 573.280817 
L 287.150302 573.219901 
L 284.714896 573.134627 
L 282.280466 573.025004 
L 279.847253 572.891042 
L 277.415501 572.732755 
L 274.985454 572.550159 
L 272.557354 572.343272 
L 270.131445 572.112115 
L 267.707968 571.856711 
L 265.287166 571.577085 
L 262.869282 571.273265 
L 260.454557 570.945282 
L 258.043232 570.593169 
L 255.635549 570.21696 
L 253.231749 569.816694 
L 250.832071 569.392411 
L 248.436756 568.944152 
L 246.046043 568.471962 
L 243.660171 567.97589 
L 241.27938 567.455984 
L 238.903906 566.912297 
L 236.533988 566.344882 
L 234.169863 565.753797 
L 231.811766 565.139101 
L 229.459934 564.500855 
L 227.114602 563.839123 
L 224.776005 563.153971 
L 222.444376 562.445468 
L 220.119949 561.713684 
L 217.802955 560.958693 
L 215.493627 560.18057 
L 213.192196 559.379393 
L 210.898891 558.555242 
L 208.613943 557.7082 
L 206.337579 556.838351 
L 204.070027 555.945783 
L 201.811514 555.030583 
L 201.203501 554.779697 
L 201.203501 554.779697 
Q 294.459929 329.638764 50.769139 329.638764 
L 50.769139 329.638764 
L 50.769139 329.638764 
L 50.781323 327.201897 
L 50.817875 324.765273 
L 50.878791 322.329137 
L 50.964065 319.893731 
L 51.073689 317.459301 
L 51.207651 315.026088 
L 51.365937 312.594336 
L 51.548534 310.164289 
L 51.75542 307.736189 
L 51.986578 305.31028 
L 52.241982 302.886803 
L 52.521608 300.466001 
L 52.825428 298.048117 
L 53.15341 295.633392 
L 53.505524 293.222067 
L 53.881732 290.814384 
L 54.281998 288.410583 
L 54.706282 286.010906 
L 55.154541 283.61559 
L 55.62673 281.224878 
L 56.122803 278.839006 
L 56.642708 276.458215 
L 57.186396 274.082741 
L 57.75381 271.712823 
L 58.344895 269.348698 
L 58.959592 266.990601 
L 59.597838 264.638769 
L 60.25957 262.293437 
L 60.944722 259.95484 
L 61.653225 257.623211 
L 62.385009 255.298784 
L 63.14 252.98179 
L 63.918123 250.672462 
L 64.7193 248.371031 
L 65.54345 246.077726 
L 66.390492 243.792778 
L 67.260341 241.516413 
L 68.15291 239.248862 
L 69.068109 236.990349 
L 69.318996 236.382336 
L 69.318996 236.382336 
Q 294.459929 329.638764 294.459929 573.329554 
z
" clip-path="url(#pf2ac91921d)" style="fill: #e4ff13; fill-opacity: 0.5; stroke: #808080; stroke-opacity: 0.5; stroke-width: 0.1"/>
    <path d="M 201.203501 554.779697 
L 201.203501 554.779697 
L 198.956792 553.835891 
L 196.719633 552.869666 
L 194.492248 551.881118 
L 192.27486 550.870346 
L 190.06769 549.837451 
L 187.87096 548.782536 
L 185.684888 547.705707 
L 183.509694 546.607071 
L 181.345594 545.486739 
L 179.192806 544.344822 
L 177.051544 543.181435 
L 174.922024 541.996694 
L 172.804457 540.790717 
L 170.699055 539.563625 
L 168.606029 538.315541 
L 166.525589 537.046589 
L 164.457942 535.756896 
L 162.403295 534.446592 
L 160.361854 533.115808 
L 158.333822 531.764676 
L 156.319403 530.393331 
L 154.318798 529.001911 
L 152.332206 527.590555 
L 150.359828 526.159404 
L 148.401859 524.708601 
L 146.458496 523.238291 
L 144.529933 521.748622 
L 142.616363 520.239741 
L 140.717977 518.711801 
L 138.834965 517.164954 
L 136.967516 515.599354 
L 135.115815 514.015158 
L 133.280049 512.412525 
L 131.460401 510.791614 
L 129.657053 509.152588 
L 127.870184 507.495611 
L 126.099975 505.820849 
L 124.346602 504.128468 
L 122.610239 502.418639 
L 122.144519 501.954174 
L 122.144519 501.954174 
Q 294.459929 329.638764 538.150719 329.638764 
L 538.150719 329.638764 
L 538.150719 329.638764 
L 538.138534 332.075631 
L 538.101982 334.512255 
L 538.041066 336.948391 
L 537.955792 339.383796 
L 537.846169 341.818227 
L 537.712207 344.25144 
L 537.55392 346.683192 
L 537.371324 349.113239 
L 537.164437 351.541338 
L 536.93328 353.967248 
L 536.677876 356.390725 
L 536.39825 358.811526 
L 536.09443 361.22941 
L 535.766447 363.644136 
L 535.414334 366.05546 
L 535.038125 368.463143 
L 534.637859 370.866944 
L 534.213576 373.266622 
L 533.765317 375.661937 
L 533.293127 378.05265 
L 532.797055 380.438521 
L 532.277149 382.819313 
L 531.733462 385.194787 
L 531.166047 387.564705 
L 530.574962 389.92883 
L 529.960266 392.286927 
L 529.32202 394.638758 
L 528.660288 396.98409 
L 527.975136 399.322687 
L 527.266633 401.654316 
L 526.534849 403.978744 
L 525.779858 406.295737 
L 525.001735 408.605065 
L 524.200558 410.906497 
L 523.376407 413.199801 
L 522.529365 415.48475 
L 521.659516 417.761114 
L 520.766948 420.028666 
L 519.851748 422.287179 
L 519.600862 422.895192 
L 519.600862 422.895192 
Q 294.459929 329.638764 201.203501 554.779697 
z
" clip-path="url(#pf2ac91921d)" style="fill: #e4ff13; fill-opacity: 0.5; stroke: #808080; stroke-opacity: 0.5; stroke-width: 0.1"/>
    <path d="M 519.600862 422.895192 
L 519.600862 422.895192 
L 518.657056 425.141901 
L 517.690831 427.37906 
L 516.702283 429.606444 
L 515.691511 431.823833 
L 514.658616 434.031002 
L 513.603701 436.227733 
L 512.526872 438.413805 
L 511.428236 440.588999 
L 510.307904 442.753099 
L 509.165987 444.905887 
L 508.0026 447.047148 
L 506.817859 449.176669 
L 505.611882 451.294236 
L 504.38479 453.399638 
L 503.136706 455.492663 
L 501.867754 457.573104 
L 500.578061 459.640751 
L 499.267757 461.695397 
L 497.936973 463.736839 
L 496.585841 465.764871 
L 495.214496 467.77929 
L 493.823076 469.779895 
L 492.41172 471.766486 
L 490.980569 473.738865 
L 489.529766 475.696834 
L 488.059456 477.640197 
L 486.569787 479.56876 
L 485.060906 481.48233 
L 483.532966 483.380716 
L 481.986119 485.263727 
L 480.420519 487.131177 
L 478.836323 488.982877 
L 477.23369 490.818643 
L 475.612779 492.638291 
L 473.973753 494.44164 
L 472.316776 496.228508 
L 470.642014 497.998718 
L 468.949633 499.752091 
L 467.239804 501.488453 
L 466.775339 501.954174 
L 466.775339 501.954174 
Q 294.459929 329.638764 122.144519 501.954174 
L 122.144519 501.954174 
L 122.144519 501.954174 
L 120.430009 500.222433 
L 118.732902 498.473634 
L 117.053368 496.707951 
L 115.391574 494.925561 
L 113.747687 493.126643 
L 112.121871 491.311377 
L 110.514289 489.479943 
L 108.925101 487.632525 
L 107.354466 485.769308 
L 105.802542 483.890478 
L 104.269483 481.996224 
L 102.755443 480.086733 
L 101.260574 478.162198 
L 99.785024 476.22281 
L 98.328942 474.268765 
L 96.892472 472.300256 
L 95.47576 470.317481 
L 94.078945 468.320639 
L 92.702168 466.309928 
L 91.345567 464.285551 
L 90.009277 462.247709 
L 88.693433 460.196606 
L 87.398164 458.132448 
L 86.123602 456.05544 
L 84.869873 453.96579 
L 83.637103 451.863708 
L 82.425415 449.749404 
L 81.23493 447.623089 
L 80.065767 445.484975 
L 78.918044 443.335277 
L 77.791875 441.174209 
L 76.687373 439.001988 
L 75.604647 436.818831 
L 74.543807 434.624956 
L 73.504958 432.420582 
L 72.488205 430.20593 
L 71.493648 427.981221 
L 70.521388 425.746679 
L 69.571522 423.502525 
L 69.318996 422.895192 
L 69.318996 422.895192 
Q 294.459929 329.638764 519.600862 422.895192 
z
" clip-path="url(#pf2ac91921d)" style="fill: #7dff7a; fill-opacity: 0.5; stroke: #808080; stroke-opacity: 0.5; stroke-width: 0.1"/>
    <path d="M 519.600862 236.382336 
L 519.600862 236.382336 
L 520.522154 238.63837 
L 521.42084 240.903505 
L 522.296829 243.177513 
L 523.150036 245.460167 
L 523.980373 247.751239 
L 524.787759 250.050499 
L 525.572112 252.357719 
L 526.333354 254.672666 
L 527.071409 256.99511 
L 527.786203 259.324818 
L 528.477664 261.661558 
L 529.145724 264.005095 
L 529.790316 266.355195 
L 530.411375 268.711624 
L 531.008838 271.074146 
L 531.582648 273.442523 
L 532.132745 275.816521 
L 532.659074 278.195901 
L 533.161585 280.580424 
L 533.640225 282.969854 
L 534.094947 285.363951 
L 534.525706 287.762475 
L 534.932459 290.165186 
L 535.315165 292.571845 
L 535.673785 294.982211 
L 536.008284 297.396042 
L 536.318629 299.813097 
L 536.604788 302.233135 
L 536.866732 304.655914 
L 537.104436 307.08119 
L 537.317876 309.508723 
L 537.50703 311.938268 
L 537.67188 314.369584 
L 537.812409 316.802426 
L 537.928603 319.236552 
L 538.02045 321.671719 
L 538.087941 324.107682 
L 538.13107 326.544198 
L 538.149831 328.981023 
L 538.150719 329.638764 
L 538.150719 329.638764 
Q 294.459929 329.638764 69.318996 236.382336 
L 69.318996 236.382336 
L 69.318996 236.382336 
L 70.262801 234.135627 
L 71.229027 231.898468 
L 72.217575 229.671083 
L 73.228347 227.453695 
L 74.261242 225.246525 
L 75.316157 223.049795 
L 76.392986 220.863723 
L 77.491621 218.688529 
L 78.611954 216.524429 
L 79.75387 214.371641 
L 80.917258 212.230379 
L 82.101999 210.100859 
L 83.307976 207.983292 
L 84.535068 205.87789 
L 85.783152 203.784864 
L 87.052104 201.704424 
L 88.341796 199.636777 
L 89.6521 197.58213 
L 90.982885 195.540689 
L 92.334017 193.512657 
L 93.705362 191.498238 
L 95.096782 189.497633 
L 96.508138 187.511041 
L 97.939289 185.538663 
L 99.390092 183.580694 
L 100.860401 181.637331 
L 102.350071 179.708768 
L 103.858951 177.795198 
L 105.386892 175.896812 
L 106.933739 174.0138 
L 108.499339 172.146351 
L 110.083535 170.29465 
L 111.686168 168.458884 
L 113.307079 166.639236 
L 114.946104 164.835888 
L 116.603081 163.049019 
L 118.277844 161.27881 
L 119.970224 159.525436 
L 121.680054 157.789074 
L 122.144519 157.323354 
L 122.144519 157.323354 
Q 294.459929 329.638764 519.600862 236.382336 
z
" clip-path="url(#pf2ac91921d)" style="fill: #16ffe1; fill-opacity: 0.5; stroke: #808080; stroke-opacity: 0.5; stroke-width: 0.1"/>
    <path d="M 387.716357 104.497831 
L 387.716357 104.497831 
L 389.963066 105.441636 
L 392.200225 106.407862 
L 394.427609 107.39641 
L 396.644998 108.407182 
L 398.852167 109.440077 
L 401.048898 110.494992 
L 403.23497 111.571821 
L 405.410164 112.670456 
L 407.574264 113.790789 
L 409.727052 114.932705 
L 411.868313 116.096093 
L 413.997834 117.280834 
L 416.115401 118.486811 
L 418.220803 119.713903 
L 420.313828 120.961987 
L 422.394269 122.230939 
L 424.461916 123.520631 
L 426.516563 124.830935 
L 428.558004 126.16172 
L 430.586036 127.512852 
L 432.600455 128.884197 
L 434.60106 130.275616 
L 436.587651 131.686973 
L 438.56003 133.118124 
L 440.517999 134.568927 
L 442.461362 136.039236 
L 444.389925 137.528906 
L 446.303495 139.037786 
L 448.201881 140.565727 
L 450.084892 142.112574 
L 451.952342 143.678174 
L 453.804042 145.26237 
L 455.639808 146.865003 
L 457.459457 148.485914 
L 459.262805 150.124939 
L 461.049673 151.781916 
L 462.819883 153.456679 
L 464.573256 155.149059 
L 466.309618 156.858889 
L 466.775339 157.323354 
L 466.775339 157.323354 
Q 294.459929 329.638764 69.318996 422.895192 
L 69.318996 422.895192 
L 69.318996 422.895192 
L 68.397704 420.639157 
L 67.499018 418.374023 
L 66.623028 416.100015 
L 65.769822 413.817361 
L 64.939484 411.526289 
L 64.132099 409.227028 
L 63.347746 406.919809 
L 62.586504 404.604862 
L 61.848449 402.282418 
L 61.133655 399.952709 
L 60.442193 397.61597 
L 59.774133 395.272433 
L 59.129542 392.922332 
L 58.508483 390.565903 
L 57.911019 388.203382 
L 57.33721 385.835004 
L 56.787113 383.461007 
L 56.260783 381.081627 
L 55.758273 378.697103 
L 55.279633 376.307673 
L 54.82491 373.913577 
L 54.394151 371.515053 
L 53.987399 369.112341 
L 53.604693 366.705683 
L 53.246073 364.295317 
L 52.911573 361.881486 
L 52.601229 359.46443 
L 52.31507 357.044392 
L 52.053125 354.621614 
L 51.815421 352.196337 
L 51.601981 349.768805 
L 51.412827 347.339259 
L 51.247977 344.907944 
L 51.107449 342.475101 
L 50.991255 340.040975 
L 50.899408 337.605809 
L 50.831917 335.169846 
L 50.788788 332.73333 
L 50.770026 330.296504 
L 50.769139 329.638764 
L 50.769139 329.638764 
Q 294.459929 329.638764 387.716357 104.497831 
z
" clip-path="url(#pf2ac91921d)" style="fill: #0000ff; fill-opacity: 0.5; stroke: #808080; stroke-opacity: 0.5; stroke-width: 0.1"/>
    <path d="M 294.459929 85.947974 
L 294.459929 85.947974 
L 296.896796 85.960158 
L 299.33342 85.99671 
L 301.769556 86.057626 
L 304.204961 86.1429 
L 306.639392 86.252524 
L 309.072605 86.386486 
L 311.504357 86.544772 
L 313.934404 86.727368 
L 316.362503 86.934255 
L 318.788413 87.165413 
L 321.21189 87.420817 
L 323.632691 87.700443 
L 326.050575 88.004263 
L 328.465301 88.332245 
L 330.876625 88.684359 
L 333.284308 89.060567 
L 335.688109 89.460833 
L 338.087787 89.885117 
L 340.483102 90.333376 
L 342.873815 90.805565 
L 345.259687 91.301638 
L 347.640478 91.821543 
L 350.015952 92.365231 
L 352.38587 92.932645 
L 354.749995 93.52373 
L 357.108092 94.138427 
L 359.459923 94.776673 
L 361.805255 95.438405 
L 364.143852 96.123557 
L 366.475481 96.83206 
L 368.799909 97.563844 
L 371.116902 98.318835 
L 373.42623 99.096958 
L 375.727662 99.898135 
L 378.020966 100.722285 
L 380.305915 101.569327 
L 382.582279 102.439176 
L 384.849831 103.331745 
L 387.108344 104.246944 
L 387.716357 104.497831 
L 387.716357 104.497831 
Q 294.459929 329.638764 466.775339 157.323354 
L 466.775339 157.323354 
L 466.775339 157.323354 
L 468.489849 159.055095 
L 470.186955 160.803894 
L 471.86649 162.569577 
L 473.528284 164.351966 
L 475.172171 166.150884 
L 476.797987 167.966151 
L 478.405569 169.797584 
L 479.994757 171.645002 
L 481.565392 173.508219 
L 483.117316 175.387049 
L 484.650374 177.281304 
L 486.164414 179.190795 
L 487.659284 181.11533 
L 489.134833 183.054717 
L 490.590916 185.008763 
L 492.027385 186.977272 
L 493.444098 188.960046 
L 494.840913 190.956889 
L 496.217689 192.967599 
L 497.57429 194.991977 
L 498.91058 197.029819 
L 500.226425 199.080922 
L 501.521693 201.14508 
L 502.796256 203.222088 
L 504.049985 205.311737 
L 505.282755 207.413819 
L 506.494443 209.528123 
L 507.684928 211.654439 
L 508.85409 213.792552 
L 510.001813 215.94225 
L 511.127983 218.103318 
L 512.232485 220.275539 
L 513.315211 222.458697 
L 514.376051 224.652572 
L 515.414899 226.856946 
L 516.431653 229.071598 
L 517.426209 231.296306 
L 518.398469 233.530849 
L 519.348336 235.775002 
L 519.600862 236.382336 
L 519.600862 236.382336 
Q 294.459929 329.638764 294.459929 85.947974 
z
" clip-path="url(#pf2ac91921d)" style="fill: #000080; fill-opacity: 0.5; stroke: #808080; stroke-opacity: 0.5; stroke-width: 0.1"/>
   </g>
   <g id="patch_11">
    <path d="M 294.459929 85.947974 
L 296.896796 85.960158 
L 299.33342 85.99671 
L 301.769556 86.057626 
L 304.204961 86.1429 
L 306.639392 86.252524 
L 309.072605 86.386486 
L 311.504357 86.544772 
L 313.934404 86.727368 
L 316.362503 86.934255 
L 318.788413 87.165413 
L 321.21189 87.420817 
L 323.632691 87.700443 
L 326.050575 88.004263 
L 328.465301 88.332245 
L 330.876625 88.684359 
L 333.284308 89.060567 
L 335.688109 89.460833 
L 338.087787 89.885117 
L 340.483102 90.333376 
L 342.873815 90.805565 
L 345.259687 91.301638 
L 347.640478 91.821543 
L 350.015952 92.365231 
L 352.38587 92.932645 
L 354.749995 93.52373 
L 357.108092 94.138427 
L 359.459923 94.776673 
L 361.805255 95.438405 
L 364.143852 96.123557 
L 366.475481 96.83206 
L 368.799909 97.563844 
L 371.116902 98.318835 
L 373.42623 99.096958 
L 375.727662 99.898135 
L 378.020966 100.722285 
L 380.305915 101.569327 
L 382.582279 102.439176 
L 384.849831 103.331745 
L 387.108344 104.246944 
L 387.716357 104.497831 
L 388.658341 102.22368 
L 388.044187 101.970259 
L 385.76286 101.045816 
L 383.472404 100.144231 
L 381.173046 99.265596 
L 378.865017 98.409998 
L 376.548548 97.577522 
L 374.22387 96.768253 
L 371.891215 95.98227 
L 369.550818 95.219653 
L 367.202911 94.480477 
L 364.84773 93.764817 
L 362.485511 93.072745 
L 360.116489 92.404328 
L 357.740901 91.759635 
L 355.358986 91.13873 
L 352.97098 90.541674 
L 350.577124 89.968528 
L 348.177655 89.419349 
L 345.772815 88.894192 
L 343.362844 88.393109 
L 340.947983 87.91615 
L 338.528472 87.463363 
L 336.104555 87.034794 
L 333.676474 86.630484 
L 331.244471 86.250476 
L 328.808789 85.894806 
L 326.369673 85.56351 
L 323.927366 85.256622 
L 321.482112 84.974171 
L 319.034155 84.716187 
L 316.583742 84.482695 
L 314.131116 84.273718 
L 311.676522 84.089278 
L 309.220208 83.929392 
L 306.762417 83.794077 
L 304.303396 83.683346 
L 301.843391 83.597211 
L 299.382647 83.535679 
L 296.921411 83.498758 
L 294.459929 83.486451 
L 294.459929 85.947974 
z
" clip-path="url(#pf2ac91921d)" style="fill: none; stroke: #000000; stroke-width: 0.5; stroke-linejoin: miter"/>
   </g>
   <g id="patch_12">
    <path d="M 387.716357 104.497831 
L 389.963066 105.441636 
L 392.200225 106.407862 
L 394.427609 107.39641 
L 396.644998 108.407182 
L 398.852167 109.440077 
L 401.048898 110.494992 
L 403.23497 111.571821 
L 405.410164 112.670456 
L 407.574264 113.790789 
L 409.727052 114.932705 
L 411.868313 116.096093 
L 413.997834 117.280834 
L 416.115401 118.486811 
L 418.220803 119.713903 
L 420.313828 120.961987 
L 422.394269 122.230939 
L 424.461916 123.520631 
L 426.516563 124.830935 
L 428.558004 126.16172 
L 430.586036 127.512852 
L 432.600455 128.884197 
L 434.60106 130.275616 
L 436.587651 131.686973 
L 438.56003 133.118124 
L 440.517999 134.568927 
L 442.461362 136.039236 
L 444.389925 137.528906 
L 446.303495 139.037786 
L 448.201881 140.565727 
L 450.084892 142.112574 
L 451.952342 143.678174 
L 453.804042 145.26237 
L 455.639808 146.865003 
L 457.459457 148.485914 
L 459.262805 150.124939 
L 461.049673 151.781916 
L 462.819883 153.456679 
L 464.573256 155.149059 
L 466.309618 156.858889 
L 466.775339 157.323354 
L 468.515899 155.582794 
L 468.045474 155.113637 
L 466.291573 153.386537 
L 464.520488 151.677062 
L 462.732398 149.985382 
L 460.92748 148.311668 
L 459.105916 146.656087 
L 457.267888 145.018803 
L 455.413579 143.399982 
L 453.543174 141.799784 
L 451.656862 140.21837 
L 449.75483 138.655898 
L 447.837268 137.112524 
L 445.904369 135.588402 
L 443.956326 134.083685 
L 441.993333 132.598524 
L 440.015586 131.133067 
L 438.023285 129.687459 
L 436.016627 128.261847 
L 433.995814 126.856373 
L 431.961047 125.471176 
L 429.91253 124.106396 
L 427.850468 122.762169 
L 425.775067 121.43863 
L 423.686535 120.13591 
L 421.58508 118.854141 
L 419.470912 117.59345 
L 417.344244 116.353963 
L 415.205288 115.135804 
L 413.054256 113.939096 
L 410.891366 112.763957 
L 408.716833 111.610506 
L 406.530874 110.478857 
L 404.333708 109.369124 
L 402.125554 108.281418 
L 399.906634 107.215848 
L 397.67717 106.172519 
L 395.437384 105.151537 
L 393.1875 104.153004 
L 390.927744 103.177019 
L 388.658341 102.22368 
L 387.716357 104.497831 
z
" clip-path="url(#pf2ac91921d)" style="fill: none; stroke: #000000; stroke-width: 0.5; stroke-linejoin: miter"/>
   </g>
   <g id="patch_13">
    <path d="M 466.775339 157.323354 
L 468.489849 159.055095 
L 470.186955 160.803894 
L 471.86649 162.569577 
L 473.528284 164.351966 
L 475.172171 166.150884 
L 476.797987 167.966151 
L 478.405569 169.797584 
L 479.994757 171.645002 
L 481.565392 173.508219 
L 483.117316 175.387049 
L 484.650374 177.281304 
L 486.164414 179.190795 
L 487.659284 181.11533 
L 489.134833 183.054717 
L 490.590916 185.008763 
L 492.027385 186.977272 
L 493.444098 188.960046 
L 494.840913 190.956889 
L 496.217689 192.967599 
L 497.57429 194.991977 
L 498.91058 197.029819 
L 500.226425 199.080922 
L 501.521693 201.14508 
L 502.796256 203.222088 
L 504.049985 205.311737 
L 505.282755 207.413819 
L 506.494443 209.528123 
L 507.684928 211.654439 
L 508.85409 213.792552 
L 510.001813 215.94225 
L 511.127983 218.103318 
L 512.232485 220.275539 
L 513.315211 222.458697 
L 514.376051 224.652572 
L 515.414899 226.856946 
L 516.431653 229.071598 
L 517.426209 231.296306 
L 518.398469 233.530849 
L 519.348336 235.775002 
L 519.600862 236.382336 
L 521.875013 235.440352 
L 521.619936 234.826884 
L 520.660475 232.560062 
L 519.678394 230.302948 
L 518.673791 228.055768 
L 517.646768 225.818746 
L 516.597426 223.592105 
L 515.52587 221.37607 
L 514.432208 219.17086 
L 513.316549 216.976698 
L 512.179004 214.793801 
L 511.019688 212.622389 
L 509.838716 210.462678 
L 508.636206 208.314885 
L 507.412278 206.179224 
L 506.167056 204.055909 
L 504.900663 201.945152 
L 503.613226 199.847164 
L 502.304875 197.762155 
L 500.975738 195.690334 
L 499.625951 193.631908 
L 498.255646 191.587082 
L 496.864963 189.556062 
L 495.454039 187.539049 
L 494.023016 185.536246 
L 492.572037 183.547854 
L 491.101247 181.57407 
L 489.610792 179.615093 
L 488.100823 177.671118 
L 486.57149 175.74234 
L 485.022946 173.828951 
L 483.455346 171.931143 
L 481.868846 170.049106 
L 480.263606 168.183027 
L 478.639785 166.333094 
L 476.997547 164.499491 
L 475.337055 162.682403 
L 473.658475 160.882009 
L 471.961976 159.098491 
L 470.247727 157.332027 
L 468.515899 155.582794 
L 466.775339 157.323354 
z
" clip-path="url(#pf2ac91921d)" style="fill: none; stroke: #000000; stroke-width: 0.5; stroke-linejoin: miter"/>
   </g>
   <g id="patch_14">
    <path d="M 519.600862 236.382336 
L 520.522154 238.63837 
L 521.42084 240.903505 
L 522.296829 243.177513 
L 523.150036 245.460167 
L 523.980373 247.751239 
L 524.787759 250.050499 
L 525.572112 252.357719 
L 526.333354 254.672666 
L 527.071409 256.99511 
L 527.786203 259.324818 
L 528.477664 261.661558 
L 529.145724 264.005095 
L 529.790316 266.355195 
L 530.411375 268.711624 
L 531.008838 271.074146 
L 531.582648 273.442523 
L 532.132745 275.816521 
L 532.659074 278.195901 
L 533.161585 280.580424 
L 533.640225 282.969854 
L 534.094947 285.363951 
L 534.525706 287.762475 
L 534.932459 290.165186 
L 535.315165 292.571845 
L 535.673785 294.982211 
L 536.008284 297.396042 
L 536.318629 299.813097 
L 536.604788 302.233135 
L 536.866732 304.655914 
L 537.104436 307.08119 
L 537.317876 309.508723 
L 537.50703 311.938268 
L 537.67188 314.369584 
L 537.812409 316.802426 
L 537.928603 319.236552 
L 538.02045 321.671719 
L 538.087941 324.107682 
L 538.13107 326.544198 
L 538.149831 328.981023 
L 538.150719 329.638764 
L 540.612242 329.638764 
L 540.611345 328.974379 
L 540.592394 326.512939 
L 540.54883 324.051812 
L 540.480657 321.591243 
L 540.387882 319.13148 
L 540.270515 316.672766 
L 540.128567 314.21535 
L 539.962052 311.759476 
L 539.770987 309.305389 
L 539.555391 306.853336 
L 539.315286 304.403562 
L 539.050695 301.956311 
L 538.761646 299.511828 
L 538.448167 297.070358 
L 538.110289 294.632144 
L 537.748046 292.197432 
L 537.361475 289.766463 
L 536.950613 287.339482 
L 536.515503 284.91673 
L 536.056187 282.498451 
L 535.572712 280.084886 
L 535.065126 277.676276 
L 534.53348 275.272862 
L 533.977826 272.874885 
L 533.398221 270.482584 
L 532.794723 268.096198 
L 532.167391 265.715967 
L 531.516288 263.342128 
L 530.84148 260.974919 
L 530.143034 258.614576 
L 529.42102 256.261336 
L 528.67551 253.915433 
L 527.906579 251.577102 
L 527.114303 249.246578 
L 526.298762 246.924092 
L 525.460037 244.609878 
L 524.598212 242.304167 
L 523.713374 240.007189 
L 522.805611 237.719175 
L 521.875013 235.440352 
L 519.600862 236.382336 
z
" clip-path="url(#pf2ac91921d)" style="fill: none; stroke: #000000; stroke-width: 0.5; stroke-linejoin: miter"/>
   </g>
   <g id="patch_15">
    <path d="M 538.150719 329.638764 
L 538.138534 332.075631 
L 538.101982 334.512255 
L 538.041066 336.948391 
L 537.955792 339.383796 
L 537.846169 341.818227 
L 537.712207 344.25144 
L 537.55392 346.683192 
L 537.371324 349.113239 
L 537.164437 351.541338 
L 536.93328 353.967248 
L 536.677876 356.390725 
L 536.39825 358.811526 
L 536.09443 361.22941 
L 535.766447 363.644136 
L 535.414334 366.05546 
L 535.038125 368.463143 
L 534.637859 370.866944 
L 534.213576 373.266622 
L 533.765317 375.661937 
L 533.293127 378.05265 
L 532.797055 380.438521 
L 532.277149 382.819313 
L 531.733462 385.194787 
L 531.166047 387.564705 
L 530.574962 389.92883 
L 529.960266 392.286927 
L 529.32202 394.638758 
L 528.660288 396.98409 
L 527.975136 399.322687 
L 527.266633 401.654316 
L 526.534849 403.978744 
L 525.779858 406.295737 
L 525.001735 408.605065 
L 524.200558 410.906497 
L 523.376407 413.199801 
L 522.529365 415.48475 
L 521.659516 417.761114 
L 520.766948 420.028666 
L 519.851748 422.287179 
L 518.91401 424.536427 
L 517.953827 426.776186 
L 516.971294 429.006231 
L 515.96651 431.226339 
L 514.939576 433.436289 
L 513.890595 435.635858 
L 512.81967 437.824829 
L 511.726909 440.00298 
L 510.612422 442.170096 
L 509.47632 444.325958 
L 508.318717 446.470352 
L 507.139727 448.603063 
L 505.93947 450.723877 
L 504.718065 452.832583 
L 503.475635 454.92897 
L 502.212303 457.012828 
L 500.928196 459.083948 
L 499.623443 461.142124 
L 498.298173 463.18715 
L 496.952519 465.218821 
L 495.586617 467.236934 
L 494.200602 469.241288 
L 492.794613 471.231681 
L 491.368791 473.207915 
L 489.923278 475.169793 
L 488.458219 477.117117 
L 486.97376 479.049694 
L 485.47005 480.96733 
L 483.947239 482.869833 
L 482.40548 484.757013 
L 480.844926 486.628681 
L 479.265734 488.48465 
L 477.668061 490.324735 
L 476.052068 492.148752 
L 474.417915 493.956518 
L 472.765767 495.747852 
L 471.095789 497.522575 
L 469.408147 499.28051 
L 467.703011 501.021481 
L 466.775339 501.954174 
L 468.515899 503.694734 
L 469.452941 502.75262 
L 471.175301 500.994063 
L 472.87999 499.218371 
L 474.566836 497.425721 
L 476.235673 495.616293 
L 477.886332 493.790267 
L 479.518648 491.947826 
L 481.132459 490.089154 
L 482.727602 488.214438 
L 484.303919 486.323864 
L 485.861252 484.417621 
L 487.399445 482.495901 
L 488.918344 480.558895 
L 490.417797 478.606797 
L 491.897655 476.639803 
L 493.357769 474.658109 
L 494.797994 472.661913 
L 496.218184 470.651414 
L 497.6182 468.626815 
L 498.997899 466.588317 
L 500.357145 464.536124 
L 501.695801 462.470441 
L 503.013734 460.391475 
L 504.310812 458.299434 
L 505.586905 456.194527 
L 506.841885 454.076965 
L 508.075627 451.946959 
L 509.288008 449.804722 
L 510.478906 447.650469 
L 511.648203 445.484415 
L 512.795781 443.306776 
L 513.921525 441.117771 
L 515.025324 438.917617 
L 516.107066 436.706536 
L 517.166644 434.484748 
L 518.203951 432.252476 
L 519.218884 430.009943 
L 520.211341 427.757372 
L 521.181223 425.49499 
L 522.128433 423.223022 
L 523.052877 420.941695 
L 523.954462 418.651239 
L 524.833097 416.351881 
L 525.688695 414.043852 
L 526.52117 411.727383 
L 527.33044 409.402705 
L 528.116423 407.07005 
L 528.87904 404.729653 
L 529.618215 402.381746 
L 530.333875 400.026565 
L 531.025948 397.664346 
L 531.694364 395.295324 
L 532.339057 392.919736 
L 532.959963 390.537821 
L 533.557018 388.149815 
L 534.130164 385.755959 
L 534.679343 383.35649 
L 535.204501 380.95165 
L 535.705584 378.541679 
L 536.182543 376.126818 
L 536.63533 373.707307 
L 537.063899 371.28339 
L 537.468208 368.855309 
L 537.848217 366.423306 
L 538.203887 363.987624 
L 538.535183 361.548508 
L 538.842071 359.106201 
L 539.124522 356.660946 
L 539.382506 354.21299 
L 539.615998 351.762577 
L 539.824975 349.309951 
L 540.009415 346.855357 
L 540.169301 344.399043 
L 540.304616 341.941252 
L 540.415346 339.482231 
L 540.501482 337.022226 
L 540.563013 334.561482 
L 540.599934 332.100246 
L 540.612242 329.638764 
L 538.150719 329.638764 
z
" clip-path="url(#pf2ac91921d)" style="fill: none; stroke: #000000; stroke-width: 0.5; stroke-linejoin: miter"/>
   </g>
   <g id="patch_16">
    <path d="M 466.775339 501.954174 
L 465.043598 503.668684 
L 463.294799 505.36579 
L 461.529116 507.045325 
L 459.746726 508.707119 
L 457.947809 510.351006 
L 456.132542 511.976822 
L 454.301108 513.584404 
L 452.45369 515.173592 
L 450.590473 516.744227 
L 448.711644 518.296151 
L 446.817389 519.829209 
L 444.907898 521.343249 
L 442.983363 522.838119 
L 441.043975 524.313668 
L 439.08993 525.769751 
L 437.121421 527.20622 
L 435.138646 528.622933 
L 433.141804 530.019748 
L 431.131093 531.396524 
L 429.106716 532.753125 
L 427.068874 534.089415 
L 425.017771 535.40526 
L 422.953613 536.700528 
L 420.876605 537.975091 
L 418.786955 539.22882 
L 416.684874 540.46159 
L 414.570569 541.673278 
L 412.444254 542.863763 
L 410.30614 544.032925 
L 408.156442 545.180648 
L 405.995374 546.306818 
L 403.823153 547.41132 
L 401.639996 548.494046 
L 399.446121 549.554886 
L 397.241747 550.593734 
L 395.027095 551.610488 
L 392.802386 552.605044 
L 390.567844 553.577304 
L 388.32369 554.52717 
L 386.07015 555.454548 
L 383.80745 556.359344 
L 381.535814 557.241469 
L 379.255471 558.100833 
L 376.966649 558.937351 
L 374.669576 559.75094 
L 372.364482 560.541518 
L 370.051598 561.309005 
L 367.731155 562.053326 
L 365.403384 562.774405 
L 363.06852 563.472171 
L 360.726794 564.146554 
L 358.378442 564.797486 
L 356.023698 565.424903 
L 353.662798 566.028741 
L 351.295977 566.608941 
L 348.923473 567.165443 
L 346.545523 567.698193 
L 344.162364 568.207138 
L 341.774235 568.692226 
L 339.381374 569.153408 
L 336.984022 569.59064 
L 334.582417 570.003876 
L 332.1768 570.393076 
L 329.767411 570.758201 
L 327.354491 571.099214 
L 324.938282 571.416081 
L 322.519026 571.708771 
L 320.096963 571.977254 
L 317.672337 572.221503 
L 315.245389 572.441494 
L 312.816363 572.637205 
L 310.385501 572.808617 
L 307.953047 572.955711 
L 305.519243 573.078474 
L 303.084334 573.176894 
L 300.648562 573.25096 
L 298.212171 573.300664 
L 295.775405 573.326003 
L 293.338508 573.326974 
L 290.901722 573.303575 
L 288.465293 573.255811 
L 286.029462 573.183684 
L 283.594475 573.087204 
L 281.160575 572.966379 
L 278.728004 572.821221 
L 276.297007 572.651746 
L 273.867826 572.457969 
L 271.440704 572.239911 
L 269.015883 571.997592 
L 266.593608 571.731038 
L 264.174119 571.440275 
L 261.757658 571.125332 
L 259.344468 570.786241 
L 256.934789 570.423035 
L 254.528863 570.03575 
L 252.126929 569.624427 
L 249.729229 569.189104 
L 247.336002 568.729827 
L 244.947488 568.246642 
L 242.563924 567.739595 
L 240.185551 567.208739 
L 237.812604 566.654126 
L 235.445322 566.075811 
L 233.083942 565.473853 
L 230.728699 564.848312 
L 228.379829 564.19925 
L 226.037568 563.526732 
L 223.702148 562.830825 
L 221.373804 562.1116 
L 219.052769 561.369127 
L 216.739274 560.603482 
L 214.433551 559.81474 
L 212.135831 559.002981 
L 209.846343 558.168286 
L 207.565317 557.310737 
L 205.29298 556.430422 
L 203.029559 555.527428 
L 200.775282 554.601845 
L 198.530373 553.653766 
L 196.295057 552.683286 
L 194.069557 551.690502 
L 191.854096 550.675512 
L 189.648895 549.638419 
L 187.454176 548.579327 
L 185.270157 547.49834 
L 183.097057 546.395567 
L 180.935093 545.27112 
L 178.784482 544.125109 
L 176.645438 542.957649 
L 174.518175 541.768858 
L 172.402907 540.558854 
L 170.299844 539.327758 
L 168.209197 538.075694 
L 166.131175 536.802786 
L 164.065985 535.509161 
L 162.013835 534.19495 
L 159.97493 532.860284 
L 157.949473 531.505295 
L 155.937666 530.13012 
L 153.939712 528.734896 
L 151.95581 527.319763 
L 149.986158 525.884861 
L 148.030954 524.430335 
L 146.090392 522.956331 
L 144.164667 521.462994 
L 142.253971 519.950475 
L 140.358496 518.418926 
L 138.478431 516.868498 
L 136.613964 515.299348 
L 134.765281 513.711631 
L 132.932568 512.105508 
L 131.116007 510.481138 
L 129.31578 508.838684 
L 127.532068 507.17831 
L 125.765049 505.500182 
L 124.014899 503.804469 
L 122.281793 502.091339 
L 120.565905 500.360963 
L 118.867406 498.613516 
L 117.186466 496.849172 
L 115.523253 495.068106 
L 113.877934 493.270498 
L 112.250673 491.456526 
L 110.641633 489.626373 
L 109.050974 487.780222 
L 107.478856 485.918256 
L 105.925436 484.040663 
L 104.39087 482.147629 
L 102.87531 480.239345 
L 101.378908 478.316 
L 99.901815 476.377789 
L 98.444177 474.424903 
L 97.00614 472.457539 
L 95.587849 470.475893 
L 94.189445 468.480164 
L 92.811067 466.47055 
L 91.452855 464.447254 
L 90.114942 462.410476 
L 88.797465 460.360422 
L 87.500553 458.297296 
L 86.224337 456.221303 
L 84.968944 454.132653 
L 83.7345 452.031554 
L 82.521129 449.918215 
L 81.328952 447.792848 
L 80.158087 445.655666 
L 79.008652 443.506883 
L 77.880762 441.346713 
L 76.77453 439.175372 
L 75.690067 436.993077 
L 74.62748 434.800047 
L 73.586876 432.596502 
L 72.56836 430.38266 
L 71.572032 428.158744 
L 70.597993 425.924976 
L 69.64634 423.68158 
L 68.717168 421.428779 
L 67.81057 419.1668 
L 66.926637 416.895868 
L 66.065457 414.61621 
L 65.227116 412.328055 
L 64.411699 410.03163 
L 63.619286 407.727167 
L 62.849957 405.414894 
L 62.103788 403.095044 
L 61.380856 400.767849 
L 60.68123 398.433541 
L 60.004983 396.092353 
L 59.352181 393.74452 
L 58.722889 391.390276 
L 58.117171 389.029858 
L 57.535087 386.6635 
L 56.976695 384.29144 
L 56.442052 381.913914 
L 55.93121 379.531162 
L 55.44422 377.14342 
L 54.981133 374.750927 
L 54.541992 372.353923 
L 54.126844 369.952648 
L 53.735728 367.547342 
L 53.368685 365.138245 
L 53.02575 362.725597 
L 52.706959 360.309641 
L 52.412343 357.890618 
L 52.141931 355.46877 
L 51.895751 353.044339 
L 51.673828 350.617568 
L 51.476182 348.188698 
L 51.302835 345.757974 
L 51.153803 343.325637 
L 51.029102 340.891932 
L 50.928744 338.457102 
L 50.852738 336.02139 
L 50.801093 333.585039 
L 50.773814 331.148294 
L 50.769139 329.638764 
L 48.307616 329.638764 
L 48.312338 331.163542 
L 48.339893 333.624901 
L 48.39206 336.085861 
L 48.468833 338.546176 
L 48.570205 341.005601 
L 48.696166 343.463889 
L 48.846703 345.920794 
L 49.021801 348.376071 
L 49.221443 350.829475 
L 49.445608 353.280759 
L 49.694275 355.72968 
L 49.967418 358.175991 
L 50.26501 360.619448 
L 50.587021 363.059808 
L 50.93342 365.496825 
L 51.30417 367.930257 
L 51.699237 370.359859 
L 52.118579 372.78539 
L 52.562155 375.206605 
L 53.02992 377.623265 
L 53.521829 380.035125 
L 54.037831 382.441946 
L 54.577875 384.843487 
L 55.141907 387.239507 
L 55.729871 389.629768 
L 56.341707 392.014029 
L 56.977355 394.392053 
L 57.636751 396.763601 
L 58.319829 399.128437 
L 59.026521 401.486325 
L 59.756757 403.837027 
L 60.510462 406.18031 
L 61.287562 408.515938 
L 62.087979 410.843679 
L 62.911633 413.1633 
L 63.758442 415.474568 
L 64.628321 417.777253 
L 65.521182 420.071124 
L 66.436938 422.355951 
L 67.375495 424.631507 
L 68.336761 426.897564 
L 69.320639 429.153895 
L 70.327031 431.400275 
L 71.355835 433.636479 
L 72.40695 435.862283 
L 73.48027 438.077464 
L 74.575688 440.281802 
L 75.693094 442.475076 
L 76.832377 444.657066 
L 77.993422 446.827554 
L 79.176113 448.986324 
L 80.380333 451.133159 
L 81.605961 453.267844 
L 82.852874 455.390167 
L 84.120947 457.499915 
L 85.410054 459.596877 
L 86.720066 461.680843 
L 88.050852 463.751605 
L 89.402278 465.808956 
L 90.77421 467.852689 
L 92.16651 469.882602 
L 93.57904 471.89849 
L 95.011658 473.900153 
L 96.46422 475.887389 
L 97.936581 477.860001 
L 99.428595 479.817791 
L 100.940112 481.760563 
L 102.47098 483.688123 
L 104.021048 485.600278 
L 105.590159 487.496837 
L 107.178156 489.37761 
L 108.784882 491.24241 
L 110.410176 493.091049 
L 112.053874 494.923343 
L 113.715812 496.739109 
L 115.395825 498.538166 
L 117.093744 500.320332 
L 118.809399 502.08543 
L 120.54262 503.833284 
L 122.293232 505.563718 
L 124.06106 507.27656 
L 125.845928 508.971639 
L 127.647658 510.648784 
L 129.466068 512.307829 
L 131.300978 513.948606 
L 133.152204 515.570953 
L 135.01956 517.174707 
L 136.90286 518.759708 
L 138.801916 520.325796 
L 140.716537 521.872816 
L 142.646533 523.400613 
L 144.59171 524.909033 
L 146.551873 526.397927 
L 148.526827 527.867145 
L 150.516375 529.31654 
L 152.520316 530.745968 
L 154.538452 532.155285 
L 156.570579 533.544351 
L 158.616495 534.913026 
L 160.675996 536.261174 
L 162.748875 537.58866 
L 164.834925 538.895352 
L 166.933937 540.181117 
L 169.045701 541.445829 
L 171.170008 542.68936 
L 173.306642 543.911586 
L 175.455393 545.112385 
L 177.616043 546.291637 
L 179.788378 547.449224 
L 181.97218 548.58503 
L 184.16723 549.698942 
L 186.37331 550.790847 
L 188.590198 551.860638 
L 190.817673 552.908207 
L 193.055513 553.933449 
L 195.303492 554.936261 
L 197.561387 555.916544 
L 199.828972 556.8742 
L 202.10602 557.809132 
L 204.392304 558.721247 
L 206.687594 559.610454 
L 208.991661 560.476665 
L 211.304275 561.319791 
L 213.625204 562.13975 
L 215.954217 562.936459 
L 218.29108 563.709838 
L 220.63556 564.45981 
L 222.987423 565.186301 
L 225.346433 565.889237 
L 227.712354 566.568548 
L 230.084949 567.224166 
L 232.463982 567.856026 
L 234.849215 568.464064 
L 237.240409 569.04822 
L 239.637324 569.608435 
L 242.039722 570.144654 
L 244.447362 570.656822 
L 246.860003 571.144889 
L 249.277404 571.608805 
L 251.699323 572.048524 
L 254.125519 572.464003 
L 256.555747 572.855199 
L 258.989766 573.222074 
L 261.427332 573.56459 
L 263.868201 573.882715 
L 266.31213 574.176415 
L 268.758873 574.445661 
L 271.208186 574.690427 
L 273.659824 574.910688 
L 276.113543 575.106422 
L 278.569096 575.27761 
L 281.026238 575.424234 
L 283.484723 575.546279 
L 285.944306 575.643734 
L 288.404741 575.716589 
L 290.865781 575.764836 
L 293.32718 575.788471 
L 295.788693 575.787491 
L 298.250073 575.761896 
L 300.711073 575.711689 
L 303.171449 575.636875 
L 305.630954 575.537461 
L 308.089341 575.413458 
L 310.546366 575.264878 
L 313.001781 575.091735 
L 315.455343 574.894047 
L 317.906805 574.671834 
L 320.355923 574.425117 
L 322.802451 574.153922 
L 325.246145 573.858276 
L 327.68676 573.538208 
L 330.124052 573.193751 
L 332.557778 572.824938 
L 334.987695 572.431806 
L 337.413558 572.014396 
L 339.835126 571.572748 
L 342.252157 571.106907 
L 344.664409 570.616919 
L 347.07164 570.102834 
L 349.47361 569.564703 
L 351.870079 569.002579 
L 354.260807 568.416519 
L 356.645554 567.806581 
L 359.024084 567.172827 
L 361.396156 566.51532 
L 363.761536 565.834125 
L 366.119985 565.129311 
L 368.471268 564.400948 
L 370.81515 563.649109 
L 373.151397 562.873869 
L 375.479775 562.075305 
L 377.80005 561.253499 
L 380.111992 560.408531 
L 382.415369 559.540486 
L 384.70995 558.649451 
L 386.995506 557.735516 
L 389.271809 556.798771 
L 391.538631 555.83931 
L 393.795744 554.857229 
L 396.042925 553.852626 
L 398.279947 552.825603 
L 400.506587 551.776261 
L 402.722623 550.704705 
L 404.927832 549.611043 
L 407.121995 548.495384 
L 409.304892 547.357839 
L 411.476304 546.198523 
L 413.636015 545.017551 
L 415.783808 543.815041 
L 417.919469 542.591113 
L 420.042784 541.345891 
L 422.153541 540.079498 
L 424.251529 538.792061 
L 426.336537 537.48371 
L 428.408358 536.154573 
L 430.466784 534.804786 
L 432.51161 533.434481 
L 434.542631 532.043798 
L 436.559643 530.632874 
L 438.562446 529.201851 
L 440.550839 527.750872 
L 442.524622 526.280082 
L 444.483599 524.789627 
L 446.427574 523.279658 
L 448.356353 521.750325 
L 450.269742 520.201781 
L 452.16755 518.634181 
L 454.049587 517.047681 
L 455.915666 515.442441 
L 457.765599 513.81862 
L 459.599201 512.176382 
L 461.41629 510.51589 
L 463.216683 508.83731 
L 465.000201 507.140811 
L 466.766665 505.426562 
L 468.515899 503.694734 
L 466.775339 501.954174 
z
" clip-path="url(#pf2ac91921d)" style="fill: none; stroke: #000000; stroke-width: 0.5; stroke-linejoin: miter"/>
   </g>
   <g id="patch_17">
    <path d="M 50.769139 329.638764 
L 50.781323 327.201897 
L 50.817875 324.765273 
L 50.878791 322.329137 
L 50.964065 319.893731 
L 51.073689 317.459301 
L 51.207651 315.026088 
L 51.365937 312.594336 
L 51.548534 310.164289 
L 51.75542 307.736189 
L 51.986578 305.31028 
L 52.241982 302.886803 
L 52.521608 300.466001 
L 52.825428 298.048117 
L 53.15341 295.633392 
L 53.505524 293.222067 
L 53.881732 290.814384 
L 54.281998 288.410583 
L 54.706282 286.010906 
L 55.154541 283.61559 
L 55.62673 281.224878 
L 56.122803 278.839006 
L 56.642708 276.458215 
L 57.186396 274.082741 
L 57.75381 271.712823 
L 58.344895 269.348698 
L 58.959592 266.990601 
L 59.597838 264.638769 
L 60.25957 262.293437 
L 60.944722 259.95484 
L 61.653225 257.623211 
L 62.385009 255.298784 
L 63.14 252.98179 
L 63.918123 250.672462 
L 64.7193 248.371031 
L 65.54345 246.077726 
L 66.390492 243.792778 
L 67.260341 241.516413 
L 68.15291 239.248862 
L 69.068109 236.990349 
L 70.005848 234.7411 
L 70.966031 232.501342 
L 71.948564 230.271297 
L 72.953347 228.051189 
L 73.980281 225.841239 
L 75.029263 223.641669 
L 76.100188 221.452699 
L 77.192948 219.274547 
L 78.307435 217.107432 
L 79.443537 214.951569 
L 80.601141 212.807176 
L 81.78013 210.674465 
L 82.980387 208.55365 
L 84.201792 206.444944 
L 85.444223 204.348558 
L 86.707555 202.2647 
L 87.991661 200.19358 
L 89.296415 198.135404 
L 90.621685 196.090378 
L 91.967338 194.058707 
L 93.333241 192.040593 
L 94.719256 190.03624 
L 96.125245 188.045846 
L 97.551067 186.069612 
L 98.99658 184.107735 
L 100.461639 182.16041 
L 101.946098 180.227834 
L 103.449808 178.310198 
L 104.972619 176.407695 
L 106.514378 174.520515 
L 108.074932 172.648847 
L 109.654124 170.792877 
L 111.251797 168.952792 
L 112.86779 167.128776 
L 114.501942 165.32101 
L 116.15409 163.529676 
L 117.824069 161.754953 
L 119.511711 159.997018 
L 121.216847 158.256047 
L 122.144519 157.323354 
L 120.403959 155.582794 
L 119.466917 156.524908 
L 117.744557 158.283465 
L 116.039868 160.059156 
L 114.353021 161.851806 
L 112.684185 163.661235 
L 111.033526 165.487261 
L 109.40121 167.329702 
L 107.787399 169.188373 
L 106.192255 171.06309 
L 104.615938 172.953664 
L 103.058605 174.859906 
L 101.520413 176.781627 
L 100.001514 178.718632 
L 98.50206 180.67073 
L 97.022203 182.637724 
L 95.562089 184.619419 
L 94.121864 186.615615 
L 92.701673 188.626113 
L 91.301658 190.650713 
L 89.921959 192.689211 
L 88.562713 194.741404 
L 87.224056 196.807087 
L 85.906123 198.886052 
L 84.609046 200.978093 
L 83.332953 203.083 
L 82.077973 205.200562 
L 80.84423 207.330569 
L 79.631849 209.472805 
L 78.440951 211.627058 
L 77.271655 213.793113 
L 76.124077 215.970752 
L 74.998332 218.159757 
L 73.894534 220.35991 
L 72.812792 222.570991 
L 71.753214 224.792779 
L 70.715907 227.025051 
L 69.700974 229.267585 
L 68.708517 231.520156 
L 67.738635 233.782538 
L 66.791424 236.054506 
L 65.866981 238.335832 
L 64.965396 240.626289 
L 64.086761 242.925646 
L 63.231163 245.233675 
L 62.398687 247.550145 
L 61.589418 249.874823 
L 60.803435 252.207477 
L 60.040818 254.547875 
L 59.301642 256.895781 
L 58.585982 259.250962 
L 57.89391 261.613182 
L 57.225493 263.982204 
L 56.5808 266.357791 
L 55.959895 268.739707 
L 55.362839 271.127712 
L 54.789693 273.521569 
L 54.240514 275.921037 
L 53.715357 278.325877 
L 53.214274 280.735848 
L 52.737315 283.15071 
L 52.284528 285.57022 
L 51.855959 287.994137 
L 51.451649 290.422219 
L 51.071641 292.854222 
L 50.715971 295.289903 
L 50.384675 297.72902 
L 50.077787 300.171327 
L 49.795336 302.616581 
L 49.537352 305.064537 
L 49.30386 307.514951 
L 49.094883 309.967577 
L 48.910443 312.42217 
L 48.750557 314.878485 
L 48.615242 317.336276 
L 48.504511 319.795297 
L 48.418376 322.255302 
L 48.356844 324.716046 
L 48.319923 327.177282 
L 48.307616 329.638764 
L 50.769139 329.638764 
z
" clip-path="url(#pf2ac91921d)" style="fill: none; stroke: #000000; stroke-width: 0.5; stroke-linejoin: miter"/>
   </g>
   <g id="patch_18">
    <path d="M 122.144519 157.323354 
L 123.87626 155.608844 
L 125.625059 153.911737 
L 127.390742 152.232203 
L 129.173131 150.570409 
L 130.972049 148.926522 
L 132.787316 147.300706 
L 134.618749 145.693124 
L 136.466167 144.103936 
L 138.329384 142.533301 
L 140.208214 140.981377 
L 142.102469 139.448318 
L 144.01196 137.934278 
L 145.936495 136.439409 
L 147.875882 134.963859 
L 149.829928 133.507777 
L 151.798437 132.071307 
L 153.781211 130.654595 
L 155.778054 129.25778 
L 157.788764 127.881003 
L 159.813142 126.524402 
L 161.850984 125.188112 
L 163.902087 123.872268 
L 165.966245 122.576999 
L 168.043253 121.302437 
L 170.132902 120.048708 
L 172.234984 118.815938 
L 174.349288 117.60425 
L 176.475604 116.413765 
L 178.613717 115.244602 
L 180.763415 114.096879 
L 182.924483 112.97071 
L 185.096704 111.866207 
L 187.279862 110.783482 
L 189.473737 109.722642 
L 191.678111 108.683793 
L 193.892763 107.66704 
L 196.117471 106.672483 
L 198.352014 105.700223 
L 200.596168 104.750357 
L 201.203501 104.497831 
L 200.261517 102.22368 
L 199.648049 102.478757 
L 197.381227 103.438218 
L 195.124113 104.420299 
L 192.876933 105.424901 
L 190.639911 106.451925 
L 188.41327 107.501267 
L 186.197235 108.572823 
L 183.992025 109.666485 
L 181.797863 110.782144 
L 179.614966 111.919688 
L 177.443554 113.079005 
L 175.283843 114.259977 
L 173.13605 115.462487 
L 171.000389 116.686414 
L 168.877074 117.931636 
L 166.766317 119.198029 
L 164.668329 120.485466 
L 162.583321 121.793818 
L 160.511499 123.122954 
L 158.453073 124.472742 
L 156.408247 125.843046 
L 154.377227 127.23373 
L 152.360214 128.644653 
L 150.357412 130.075677 
L 148.369019 131.526656 
L 146.395235 132.997446 
L 144.436258 134.4879 
L 142.492283 135.997869 
L 140.563505 137.527203 
L 138.650116 139.075747 
L 136.752308 140.643347 
L 134.870271 142.229847 
L 133.004192 143.835087 
L 131.154259 145.458907 
L 129.320656 147.101146 
L 127.503568 148.761638 
L 125.703174 150.440217 
L 123.919656 152.136717 
L 122.153192 153.850966 
L 120.403959 155.582794 
L 122.144519 157.323354 
z
" clip-path="url(#pf2ac91921d)" style="fill: none; stroke: #000000; stroke-width: 0.5; stroke-linejoin: miter"/>
   </g>
   <g id="patch_19">
    <path d="M 201.203501 104.497831 
L 203.459535 103.576539 
L 205.72467 102.677853 
L 207.998678 101.801863 
L 210.281332 100.948657 
L 212.572404 100.118319 
L 214.871664 99.310934 
L 217.178884 98.526581 
L 219.493831 97.765339 
L 221.816275 97.027284 
L 224.145983 96.31249 
L 226.482723 95.621028 
L 228.82626 94.952968 
L 231.17636 94.308377 
L 233.532789 93.687318 
L 235.895311 93.089854 
L 238.263688 92.516045 
L 240.637686 91.965948 
L 243.017066 91.439618 
L 245.401589 90.937108 
L 247.791019 90.458468 
L 250.185116 90.003745 
L 252.58364 89.572986 
L 254.986351 89.166234 
L 257.39301 88.783528 
L 259.803376 88.424908 
L 262.217207 88.090408 
L 264.634262 87.780064 
L 267.0543 87.493905 
L 269.477079 87.23196 
L 271.902355 86.994256 
L 274.329888 86.780816 
L 276.759433 86.591662 
L 279.190749 86.426812 
L 281.623591 86.286284 
L 284.057717 86.17009 
L 286.492884 86.078243 
L 288.928847 86.010752 
L 291.365363 85.967623 
L 293.802188 85.948861 
L 294.459929 85.947974 
L 294.459929 83.486451 
L 293.795544 83.487347 
L 291.334105 83.506298 
L 288.872977 83.549863 
L 286.412409 83.618036 
L 283.952645 83.71081 
L 281.493931 83.828178 
L 279.036515 83.970126 
L 276.580641 84.136641 
L 274.126554 84.327706 
L 271.674501 84.543302 
L 269.224727 84.783407 
L 266.777476 85.047997 
L 264.332993 85.337047 
L 261.891523 85.650526 
L 259.453309 85.988404 
L 257.018597 86.350647 
L 254.587628 86.737218 
L 252.160647 87.148079 
L 249.737895 87.58319 
L 247.319616 88.042505 
L 244.906051 88.52598 
L 242.497441 89.033566 
L 240.094027 89.565213 
L 237.69605 90.120866 
L 235.303749 90.700471 
L 232.917363 91.30397 
L 230.537132 91.931302 
L 228.163293 92.582405 
L 225.796084 93.257213 
L 223.435741 93.955659 
L 221.082501 94.677673 
L 218.736598 95.423183 
L 216.398267 96.192114 
L 214.067743 96.98439 
L 211.745257 97.799931 
L 209.431043 98.638656 
L 207.125332 99.50048 
L 204.828354 100.385319 
L 202.54034 101.293082 
L 200.261517 102.22368 
L 201.203501 104.497831 
z
" clip-path="url(#pf2ac91921d)" style="fill: none; stroke: #000000; stroke-width: 0.5; stroke-linejoin: miter"/>
   </g>
   <g id="text_1">
    <text style="font: 3px 'DejaVu Sans', 'Bitstream Vera Sans', 'Computer Modern Sans Serif', 'Lucida Grande', 'Verdana', 'Geneva', 'Lucid', 'Arial', 'Helvetica', 'Avant Garde', sans-serif; text-anchor: start" x="344.079948" y="86.02433" transform="rotate(-78.75 344.079948 86.02433)">Lebanese International University</text>
   </g>
   <g id="text_2">
    <text style="font: 3px 'DejaVu Sans', 'Bitstream Vera Sans', 'Computer Modern Sans Serif', 'Lucida Grande', 'Verdana', 'Geneva', 'Lucid', 'Arial', 'Helvetica', 'Avant Garde', sans-serif; text-anchor: start" x="433.530056" y="123.557134" transform="rotate(-56.25 433.530056 123.557134)">Yemenia University</text>
   </g>
   <g id="text_3">
    <text style="font: 3px 'DejaVu Sans', 'Bitstream Vera Sans', 'Computer Modern Sans Serif', 'Lucida Grande', 'Verdana', 'Geneva', 'Lucid', 'Arial', 'Helvetica', 'Avant Garde', sans-serif; text-anchor: start" x="501.807999" y="192.463997" transform="rotate(-33.75 501.807999 192.463997)">Ibb University</text>
   </g>
   <g id="text_4">
    <text style="font: 3px 'DejaVu Sans', 'Bitstream Vera Sans', 'Computer Modern Sans Serif', 'Lucida Grande', 'Verdana', 'Geneva', 'Lucid', 'Arial', 'Helvetica', 'Avant Garde', sans-serif; text-anchor: start" x="538.519077" y="282.254476" transform="rotate(-11.25 538.519077 282.254476)">University of Aden</text>
   </g>
   <g id="text_5">
    <text style="font: 3px 'DejaVu Sans', 'Bitstream Vera Sans', 'Computer Modern Sans Serif', 'Lucida Grande', 'Verdana', 'Geneva', 'Lucid', 'Arial', 'Helvetica', 'Avant Garde', sans-serif; text-anchor: start" x="523.712994" y="425.832166" transform="rotate(-337.5 523.712994 425.832166)">University of Science and Technology</text>
   </g>
   <g id="text_6">
    <text style="font: 3px 'DejaVu Sans', 'Bitstream Vera Sans', 'Computer Modern Sans Serif', 'Lucida Grande', 'Verdana', 'Geneva', 'Lucid', 'Arial', 'Helvetica', 'Avant Garde', sans-serif; text-anchor: end" x="200.372539" y="559.764168" transform="rotate(-67.5 200.372539 559.764168)">Sana'a University</text>
   </g>
   <g id="text_7">
    <text style="font: 3px 'DejaVu Sans', 'Bitstream Vera Sans', 'Computer Modern Sans Serif', 'Lucida Grande', 'Verdana', 'Geneva', 'Lucid', 'Arial', 'Helvetica', 'Avant Garde', sans-serif; text-anchor: end" x="64.334525" y="235.551374" transform="rotate(-337.5 64.334525 235.551374)">Thamar University</text>
   </g>
   <g id="text_8">
    <text style="font: 3px 'DejaVu Sans', 'Bitstream Vera Sans', 'Computer Modern Sans Serif', 'Lucida Grande', 'Verdana', 'Geneva', 'Lucid', 'Arial', 'Helvetica', 'Avant Garde', sans-serif; text-anchor: end" x="155.389801" y="123.557134" transform="rotate(-303.75 155.389801 123.557134)">Al-Razi University</text>
   </g>
   <g id="text_9">
    <text style="font: 3px 'DejaVu Sans', 'Bitstream Vera Sans', 'Computer Modern Sans Serif', 'Lucida Grande', 'Verdana', 'Geneva', 'Lucid', 'Arial', 'Helvetica', 'Avant Garde', sans-serif; text-anchor: end" x="244.83991" y="86.02433" transform="rotate(-281.25 244.83991 86.02433)">Amran University</text>
   </g>
  </g>
 </g>
 <defs>
  <clipPath id="pf2ac91921d">
   <path d="M 552.919858 329.638764 
C 552.919858 295.698117 546.23429 262.0875 533.245767 230.730431 
C 520.257244 199.373362 501.218359 170.879657 477.218697 146.879995 
C 453.219036 122.880334 424.72533 103.841449 393.368262 90.852926 
C 362.011193 77.864402 328.400576 71.178835 294.459929 71.178835 
C 260.519282 71.178835 226.908665 77.864402 195.551596 90.852926 
C 164.194527 103.841449 135.700822 122.880334 111.70116 146.879995 
C 87.701499 170.879657 68.662614 199.373362 55.674091 230.730431 
C 42.685567 262.0875 36 295.698117 36 329.638764 
C 36 363.579411 42.685567 397.190028 55.674091 428.547096 
C 68.662614 459.904165 87.701499 488.397871 111.70116 512.397532 
C 135.700822 536.397194 164.194527 555.436079 195.551596 568.424602 
C 226.908665 581.413125 260.519282 588.098693 294.459929 588.098693 
C 328.400576 588.098693 362.011193 581.413125 393.368262 568.424602 
C 424.72533 555.436079 453.219036 536.397194 477.218697 512.397532 
C 501.218359 488.397871 520.257244 459.904165 533.245767 428.547096 
C 546.23429 397.190028 552.919858 363.579411 552.919858 329.638764 
M 294.459929 329.638764 
C 294.459929 329.638764 294.459929 329.638764 294.459929 329.638764 
C 294.459929 329.638764 294.459929 329.638764 294.459929 329.638764 
C 294.459929 329.638764 294.459929 329.638764 294.459929 329.638764 
C 294.459929 329.638764 294.459929 329.638764 294.459929 329.638764 
C 294.459929 329.638764 294.459929 329.638764 294.459929 329.638764 
C 294.459929 329.638764 294.459929 329.638764 294.459929 329.638764 
C 294.459929 329.638764 294.459929 329.638764 294.459929 329.638764 
C 294.459929 329.638764 294.459929 329.638764 294.459929 329.638764 
C 294.459929 329.638764 294.459929 329.638764 294.459929 329.638764 
C 294.459929 329.638764 294.459929 329.638764 294.459929 329.638764 
C 294.459929 329.638764 294.459929 329.638764 294.459929 329.638764 
C 294.459929 329.638764 294.459929 329.638764 294.459929 329.638764 
C 294.459929 329.638764 294.459929 329.638764 294.459929 329.638764 
C 294.459929 329.638764 294.459929 329.638764 294.459929 329.638764 
C 294.459929 329.638764 294.459929 329.638764 294.459929 329.638764 
C 294.459929 329.638764 294.459929 329.638764 294.459929 329.638764 
z
"/>
  </clipPath>
 </defs>
</svg>
