<?xml version="1.0" encoding="utf-8" standalone="no"?>
<!DOCTYPE svg PUBLIC "-//W3C//DTD SVG 1.1//EN"
  "http://www.w3.org/Graphics/SVG/1.1/DTD/svg11.dtd">
<svg xmlns:xlink="http://www.w3.org/1999/xlink" width="558.87299pt" height="628.452315pt" viewBox="0 0 558.87299 628.452315" xmlns="http://www.w3.org/2000/svg" version="1.1">
 <metadata>
  <rdf:RDF xmlns:dc="http://purl.org/dc/elements/1.1/" xmlns:cc="http://creativecommons.org/ns#" xmlns:rdf="http://www.w3.org/1999/02/22-rdf-syntax-ns#">
   <cc:Work>
    <dc:type rdf:resource="http://purl.org/dc/dcmitype/StillImage"/>
    <dc:date>2024-11-16T03:57:15.798462</dc:date>
    <dc:format>image/svg+xml</dc:format>
    <dc:creator>
     <cc:Agent>
      <dc:title>Matplotlib v3.8.4, https://matplotlib.org/</dc:title>
     </cc:Agent>
    </dc:creator>
   </cc:Work>
  </rdf:RDF>
 </metadata>
 <defs>
  <style type="text/css">*{stroke-linejoin: round; stroke-linecap: butt}</style>
 </defs>
 <g id="figure_1">
  <g id="patch_1">
   <path d="M 0 628.452315 
L 558.87299 628.452315 
L 558.87299 0 
L 0 0 
z
" style="fill: #ffffff"/>
  </g>
  <g id="axes_1">
   <g id="patch_2">
    <path d="M 278.872062 131.934884 
L 280.803798 131.944542 
L 282.73534 131.973518 
L 284.666496 132.021807 
L 286.597073 132.089404 
L 288.526878 132.176304 
L 290.455716 132.282497 
L 292.383397 132.407973 
L 294.309726 132.55272 
L 296.234512 132.716722 
L 298.157561 132.899963 
L 300.078682 133.102425 
L 301.997682 133.324088 
L 303.91437 133.56493 
L 305.828553 133.824926 
L 307.740041 134.104051 
L 309.648642 134.402276 
L 311.554166 134.719572 
L 313.456421 135.055907 
L 315.355218 135.411248 
L 317.250366 135.785558 
L 319.141677 136.178801 
L 321.028961 136.590937 
L 322.912029 137.021925 
L 324.790693 137.471722 
L 326.664765 137.940282 
L 328.534058 138.42756 
L 330.398385 138.933506 
L 332.25756 139.458069 
L 334.111396 140.001198 
L 335.959708 140.562837 
L 337.802311 141.142932 
L 339.639021 141.741423 
L 341.469655 142.358251 
L 343.294029 142.993354 
L 345.111961 143.646668 
L 346.923268 144.31813 
L 348.727771 145.00767 
L 350.525289 145.71522 
L 352.315641 146.44071 
L 354.098648 147.184068 
L 355.874133 147.945217 
L 357.641918 148.724083 
L 359.401827 149.520588 
L 361.153682 150.334652 
L 362.688331 151.0654 
L 363.53496 149.307357 
L 361.984809 148.569227 
L 360.215259 147.746941 
L 358.437574 146.94239 
L 356.651932 146.155657 
L 354.858513 145.386819 
L 353.057495 144.635953 
L 351.249059 143.903135 
L 349.433385 143.188437 
L 347.610654 142.491932 
L 345.781051 141.813689 
L 343.944756 141.153775 
L 342.101954 140.512256 
L 340.252829 139.889198 
L 338.397566 139.284661 
L 336.536351 138.698708 
L 334.669369 138.131395 
L 332.796807 137.58278 
L 330.918853 137.052918 
L 329.035695 136.541862 
L 327.14752 136.049662 
L 325.254517 135.576369 
L 323.356877 135.122028 
L 321.454788 134.686687 
L 319.548441 134.270388 
L 317.638026 133.873173 
L 315.723734 133.495082 
L 313.805758 133.136152 
L 311.884288 132.796419 
L 309.959517 132.475918 
L 308.031637 132.174681 
L 306.100841 131.892737 
L 304.167322 131.630114 
L 302.231274 131.38684 
L 300.29289 131.162938 
L 298.352364 130.95843 
L 296.40989 130.773338 
L 294.465662 130.60768 
L 292.519875 130.461471 
L 290.572723 130.334728 
L 288.624401 130.227462 
L 286.675104 130.139684 
L 284.725026 130.071404 
L 282.774363 130.022627 
L 280.82331 129.993359 
L 278.872062 129.983603 
z
" clip-path="url(#p6cd76e9bbb)" style="fill: #000080"/>
   </g>
   <g id="patch_3">
    <path d="M 362.688331 151.0654 
L 364.424574 151.912251 
L 366.152262 152.776422 
L 367.871222 153.657826 
L 369.581282 154.556375 
L 371.282271 155.47198 
L 372.974019 156.404549 
L 374.656357 157.353988 
L 376.329117 158.320203 
L 377.992131 159.303096 
L 379.645233 160.302571 
L 381.288258 161.318526 
L 382.921042 162.350861 
L 384.54342 163.399471 
L 386.155232 164.464253 
L 387.692424 165.50152 
L 388.79162 163.889296 
L 387.2389 162.841551 
L 385.610808 161.766015 
L 383.972041 160.706812 
L 382.322765 159.66405 
L 380.663144 158.637833 
L 378.993344 157.628262 
L 377.313532 156.63544 
L 375.623875 155.659466 
L 373.924544 154.700436 
L 372.215707 153.758448 
L 370.497536 152.833594 
L 368.770203 151.925969 
L 367.03388 151.035662 
L 365.288741 150.162762 
L 363.53496 149.307357 
z
" clip-path="url(#p6cd76e9bbb)" style="fill: #0000e8"/>
   </g>
   <g id="patch_4">
    <path d="M 387.692424 165.50152 
L 389.283058 166.597686 
L 390.862651 167.709703 
L 392.431045 168.83746 
L 393.988083 169.980845 
L 395.53361 171.139742 
L 397.067471 172.314037 
L 398.589512 173.503611 
L 400.099581 174.708346 
L 401.597528 175.928121 
L 403.083203 177.162814 
L 404.556456 178.412302 
L 406.017141 179.67646 
L 407.465112 180.955162 
L 408.900224 182.248278 
L 410.322332 183.555682 
L 411.731296 184.87724 
L 413.126974 186.212822 
L 414.509227 187.562294 
L 415.877916 188.92552 
L 417.232905 190.302365 
L 418.574057 191.692691 
L 419.90124 193.096358 
L 421.21432 194.513227 
L 422.513166 195.943156 
L 423.797647 197.386001 
L 425.067636 198.841619 
L 426.323006 200.309864 
L 427.563631 201.790589 
L 428.789387 203.283646 
L 430.000151 204.788886 
L 431.195803 206.306157 
L 432.376222 207.83531 
L 433.541291 209.376189 
L 434.690893 210.928643 
L 435.824913 212.492514 
L 436.943239 214.067647 
L 438.045757 215.653885 
L 439.132358 217.251068 
L 440.202933 218.859038 
L 441.257375 220.477632 
L 442.295579 222.10669 
L 443.317441 223.746048 
L 444.322858 225.395542 
L 445.31173 227.055009 
L 446.168072 228.52328 
L 447.857931 227.54764 
L 446.992939 226.064537 
L 445.994078 224.388309 
L 444.978505 222.722153 
L 443.946322 221.066235 
L 442.897631 219.420722 
L 441.832538 217.785779 
L 440.751149 216.161567 
L 439.653572 214.548251 
L 438.539917 212.945991 
L 437.410296 211.354947 
L 436.264821 209.775279 
L 435.103606 208.207144 
L 433.926769 206.6507 
L 432.734426 205.106102 
L 431.526697 203.573504 
L 430.303703 202.05306 
L 429.065566 200.544922 
L 427.81241 199.04924 
L 426.544359 197.566164 
L 425.261542 196.095843 
L 423.964086 194.638423 
L 422.65212 193.194051 
L 421.325777 191.76287 
L 419.985189 190.345024 
L 418.630489 188.940655 
L 417.261814 187.549902 
L 415.879299 186.172906 
L 414.483085 184.809803 
L 413.073309 183.460731 
L 411.650113 182.125823 
L 410.213639 180.805214 
L 408.764032 179.499035 
L 407.301435 178.207418 
L 405.825996 176.930491 
L 404.337861 175.668381 
L 402.837179 174.421216 
L 401.324102 173.18912 
L 399.798779 171.972216 
L 398.261364 170.770626 
L 396.712009 169.58447 
L 395.150871 168.413867 
L 393.578105 167.258933 
L 391.993869 166.119784 
L 390.398321 164.996534 
L 388.79162 163.889296 
z
" clip-path="url(#p6cd76e9bbb)" style="fill: #0038ff"/>
   </g>
   <g id="patch_5">
    <path d="M 446.168072 228.52328 
L 447.125575 230.201042 
L 448.066253 231.888294 
L 448.990012 233.584869 
L 449.896759 235.290596 
L 450.786403 237.005306 
L 451.658857 238.728826 
L 452.514031 240.460984 
L 453.351842 242.201607 
L 454.172205 243.950522 
L 454.975038 245.707552 
L 455.760261 247.472522 
L 456.527796 249.245257 
L 457.277564 251.025578 
L 458.009493 252.813307 
L 458.723508 254.608267 
L 459.419537 256.410276 
L 460.097513 258.219156 
L 460.757366 260.034725 
L 461.39903 261.856802 
L 462.022442 263.685204 
L 462.627539 265.519748 
L 463.214261 267.360252 
L 463.782548 269.206531 
L 464.332345 271.0584 
L 464.863596 272.915674 
L 465.376248 274.778169 
L 465.870249 276.645696 
L 466.345551 278.51807 
L 466.802106 280.395103 
L 467.239868 282.276608 
L 467.658793 284.162397 
L 468.05884 286.05228 
L 468.439968 287.946069 
L 468.802139 289.843575 
L 469.145318 291.744607 
L 469.46947 293.648977 
L 469.774562 295.556492 
L 470.060563 297.466963 
L 470.327447 299.380198 
L 470.575184 301.296007 
L 470.803752 303.214197 
L 471.013127 305.134577 
L 471.203287 307.056954 
L 471.374215 308.981137 
L 471.525893 310.906933 
L 471.658305 312.834149 
L 471.771439 314.762594 
L 471.865283 316.692073 
L 471.939829 318.622394 
L 471.995067 320.553364 
L 472.030993 322.484789 
L 472.047604 324.416478 
L 472.044897 326.348236 
L 472.022873 328.27987 
L 471.981534 330.211188 
L 471.920884 332.141995 
L 471.84093 334.0721 
L 471.741679 336.001308 
L 471.623141 337.929428 
L 471.485328 339.856266 
L 471.328254 341.781629 
L 471.151935 343.705325 
L 470.956387 345.627162 
L 470.741632 347.546948 
L 470.507689 349.46449 
L 470.254584 351.379597 
L 469.98234 353.292076 
L 469.690985 355.201738 
L 469.380549 357.108391 
L 469.051061 359.011845 
L 468.702557 360.911908 
L 468.335069 362.808391 
L 467.948635 364.701105 
L 467.543293 366.58986 
L 467.119085 368.474467 
L 466.676052 370.354737 
L 466.214239 372.230484 
L 465.733692 374.101518 
L 465.234458 375.967654 
L 464.716589 377.828704 
L 464.180135 379.684483 
L 463.625151 381.534804 
L 463.051692 383.379483 
L 462.459814 385.218335 
L 461.849578 387.051177 
L 461.221045 388.877825 
L 460.574277 390.698096 
L 459.909338 392.511808 
L 459.226297 394.318781 
L 458.695267 395.687084 
L 460.511663 396.399967 
L 461.048057 395.017843 
L 461.737998 393.192618 
L 462.409653 391.360585 
L 463.062954 389.521927 
L 463.697836 387.676828 
L 464.314236 385.825473 
L 464.912092 383.968047 
L 465.491344 382.104735 
L 466.051934 380.235723 
L 466.593806 378.3612 
L 467.116907 376.481351 
L 467.621183 374.596365 
L 468.106584 372.706431 
L 468.573062 370.811738 
L 469.02057 368.912475 
L 469.449063 367.008831 
L 469.858499 365.100998 
L 470.248837 363.189166 
L 470.620036 361.273526 
L 470.972061 359.354271 
L 471.304877 357.43159 
L 471.618449 355.505678 
L 471.912747 353.576727 
L 472.187741 351.644929 
L 472.443403 349.710478 
L 472.679708 347.773567 
L 472.896633 345.83439 
L 473.094156 343.89314 
L 473.272256 341.950012 
L 473.430917 340.005201 
L 473.570122 338.0589 
L 473.689857 336.111305 
L 473.790111 334.162609 
L 473.870873 332.213009 
L 473.932135 330.262698 
L 473.973891 328.311872 
L 473.996138 326.360726 
L 473.998872 324.409456 
L 473.982094 322.458255 
L 473.945804 320.50732 
L 473.890008 318.556845 
L 473.81471 316.607026 
L 473.719918 314.658057 
L 473.605641 312.710134 
L 473.471891 310.763451 
L 473.318681 308.818202 
L 473.146027 306.874583 
L 472.953946 304.932788 
L 472.742456 302.99301 
L 472.51158 301.055444 
L 472.261339 299.120284 
L 471.99176 297.187723 
L 471.70287 295.257955 
L 471.394696 293.331172 
L 471.06727 291.407566 
L 470.720625 289.487331 
L 470.354795 287.570659 
L 469.969817 285.657741 
L 469.56573 283.748768 
L 469.142573 281.843931 
L 468.700389 279.943421 
L 468.239223 278.047428 
L 467.75912 276.156141 
L 467.260128 274.269749 
L 466.742298 272.388442 
L 466.205681 270.512407 
L 465.650331 268.641832 
L 465.076303 266.776904 
L 464.483655 264.917809 
L 463.872446 263.064734 
L 463.242737 261.217863 
L 462.594591 259.377382 
L 461.928073 257.543474 
L 461.243249 255.716323 
L 460.540189 253.896111 
L 459.818962 252.083021 
L 459.07964 250.277233 
L 458.322298 248.478929 
L 457.547011 246.688289 
L 456.753856 244.90549 
L 455.942914 243.130712 
L 455.114264 241.364132 
L 454.267991 239.605927 
L 453.404178 237.856272 
L 452.522912 236.115343 
L 451.624281 234.383313 
L 450.708375 232.660356 
L 449.775285 230.946644 
L 448.825105 229.242348 
L 447.857931 227.54764 
z
" clip-path="url(#p6cd76e9bbb)" style="fill: #0094ff"/>
   </g>
   <g id="patch_6">
    <path d="M 458.695267 395.687084 
L 457.980534 397.481757 
L 457.24789 399.269193 
L 456.497408 401.049214 
L 455.729164 402.821641 
L 454.943235 404.586297 
L 454.139698 406.343006 
L 453.318635 408.091592 
L 452.480128 409.831879 
L 451.624259 411.563695 
L 450.751116 413.286866 
L 449.860785 415.001219 
L 448.953355 416.706583 
L 448.028917 418.402788 
L 447.087564 420.089664 
L 446.129389 421.767042 
L 445.154489 423.434755 
L 444.162961 425.092635 
L 443.154903 426.740517 
L 442.130418 428.378237 
L 441.089606 430.00563 
L 440.032574 431.622534 
L 438.959425 433.228787 
L 437.870267 434.824228 
L 436.76521 436.408698 
L 435.644364 437.982038 
L 434.507841 439.544092 
L 433.355754 441.094702 
L 432.188219 442.633714 
L 431.005352 444.160974 
L 429.807273 445.676329 
L 428.594099 447.179628 
L 427.365954 448.67072 
L 426.12296 450.149456 
L 424.86524 451.615689 
L 423.592922 453.069271 
L 422.306131 454.510058 
L 421.004997 455.937905 
L 419.68965 457.352669 
L 418.360221 458.754209 
L 417.016844 460.142386 
L 415.659652 461.517059 
L 414.288782 462.878092 
L 412.90437 464.225348 
L 411.506555 465.558693 
L 410.095476 466.877994 
L 408.671276 468.183118 
L 407.234095 469.473935 
L 405.784079 470.750316 
L 404.321371 472.012133 
L 402.846118 473.25926 
L 401.358469 474.491573 
L 399.85857 475.708947 
L 398.346573 476.911263 
L 396.822629 478.098398 
L 395.28689 479.270235 
L 393.739509 480.426656 
L 392.180642 481.567545 
L 390.610444 482.692789 
L 389.029072 483.802276 
L 387.436685 484.895893 
L 385.833441 485.973532 
L 384.219502 487.035085 
L 382.595027 488.080446 
L 380.96018 489.10951 
L 379.315125 490.122174 
L 377.660026 491.118337 
L 375.995047 492.0979 
L 374.320357 493.060765 
L 372.636121 494.006834 
L 370.94251 494.936015 
L 369.239691 495.848213 
L 367.527836 496.743337 
L 365.807115 497.621299 
L 364.077701 498.482009 
L 362.339766 499.325383 
L 360.593485 500.151336 
L 358.839032 500.959784 
L 357.076581 501.750648 
L 355.306311 502.523849 
L 353.528397 503.279308 
L 351.743018 504.01695 
L 349.950351 504.736703 
L 348.150577 505.438492 
L 346.343875 506.12225 
L 344.530426 506.787906 
L 342.710411 507.435395 
L 340.884012 508.064652 
L 339.051413 508.675614 
L 337.212795 509.268219 
L 335.368343 509.842409 
L 333.518242 510.398126 
L 331.662676 510.935314 
L 329.801831 511.45392 
L 327.935893 511.953893 
L 326.065049 512.435181 
L 324.189485 512.897737 
L 322.30939 513.341514 
L 320.424951 513.766469 
L 318.536357 514.172558 
L 316.643797 514.559741 
L 314.747459 514.92798 
L 312.847534 515.277237 
L 310.944211 515.607478 
L 309.037681 515.91867 
L 307.128135 516.210781 
L 305.215763 516.483782 
L 303.300757 516.737646 
L 301.383308 516.972347 
L 299.463607 517.187863 
L 297.541848 517.384171 
L 295.618221 517.561253 
L 293.692921 517.719089 
L 291.766137 517.857665 
L 289.838065 517.976966 
L 287.908896 518.076981 
L 285.978823 518.1577 
L 284.04804 518.219114 
L 282.116739 518.261218 
L 280.185113 518.284007 
L 278.253357 518.287478 
L 276.321662 518.271633 
L 274.390222 518.236471 
L 272.45923 518.181997 
L 270.52888 518.108217 
L 268.599364 518.015137 
L 266.670875 517.902766 
L 264.743606 517.771117 
L 262.81775 517.620202 
L 260.8935 517.450036 
L 258.971047 517.260637 
L 257.050585 517.052022 
L 255.132304 516.824214 
L 253.216398 516.577235 
L 251.303057 516.31111 
L 249.392473 516.025864 
L 247.484837 515.721528 
L 245.580339 515.39813 
L 243.679171 515.055704 
L 241.781522 514.694284 
L 239.887582 514.313906 
L 237.997541 513.914607 
L 236.111587 513.496429 
L 234.229908 513.059412 
L 232.352694 512.603601 
L 230.480132 512.12904 
L 228.612409 511.635778 
L 226.749713 511.123864 
L 224.892228 510.593349 
L 223.040141 510.044285 
L 221.193637 509.476729 
L 219.352901 508.890736 
L 217.518117 508.286366 
L 215.689469 507.663678 
L 213.867138 507.022735 
L 212.051308 506.363601 
L 210.24216 505.686342 
L 208.439875 504.991026 
L 206.644633 504.277722 
L 204.856614 503.546501 
L 203.075996 502.797437 
L 201.302958 502.030605 
L 199.537676 501.246081 
L 197.780328 500.443944 
L 196.031089 499.624274 
L 194.290135 498.787152 
L 192.557638 497.932663 
L 190.833772 497.060892 
L 189.118711 496.171927 
L 187.412624 495.265855 
L 185.715684 494.342768 
L 184.028059 493.402759 
L 182.349918 492.44592 
L 180.68143 491.472348 
L 179.02276 490.48214 
L 177.374076 489.475395 
L 175.735541 488.452214 
L 174.107319 487.412699 
L 172.489575 486.356954 
L 170.882468 485.285085 
L 169.28616 484.197198 
L 167.70081 483.093403 
L 166.126578 481.97381 
L 164.56362 480.838531 
L 163.012093 479.68768 
L 161.472151 478.521371 
L 159.94395 477.339721 
L 158.427641 476.142848 
L 156.923377 474.930872 
L 155.431307 473.703915 
L 153.951582 472.462098 
L 152.484348 471.205547 
L 151.029753 469.934386 
L 149.587942 468.648743 
L 148.159059 467.348747 
L 146.743248 466.034527 
L 145.340649 464.706215 
L 143.951404 463.363943 
L 142.57565 462.007847 
L 141.213526 460.63806 
L 139.865168 459.254722 
L 138.53071 457.857969 
L 137.210286 456.447941 
L 135.904028 455.02478 
L 134.612067 453.588628 
L 133.334532 452.139629 
L 132.07155 450.677926 
L 130.823249 449.203667 
L 129.589752 447.716999 
L 128.371183 446.218071 
L 127.167665 444.707032 
L 125.979316 443.184034 
L 124.806257 441.649228 
L 123.648604 440.102769 
L 122.506473 438.544811 
L 121.379979 436.975509 
L 120.269234 435.395021 
L 119.174349 433.803505 
L 118.095433 432.20112 
L 117.032596 430.588027 
L 115.985942 428.964385 
L 114.955576 427.330358 
L 113.941602 425.68611 
L 112.944121 424.031804 
L 111.963232 422.367606 
L 111.576052 421.700073 
L 109.886193 422.675713 
L 110.277285 423.34999 
L 111.268081 425.030997 
L 112.275638 426.702013 
L 113.299854 428.36287 
L 114.340627 430.013402 
L 115.397854 431.653444 
L 116.471427 433.282832 
L 117.561241 434.901403 
L 118.667185 436.508995 
L 119.78915 438.105447 
L 120.927023 439.6906 
L 122.08069 441.264295 
L 123.250036 442.826375 
L 124.434945 444.376684 
L 125.635297 445.915066 
L 126.850972 447.441368 
L 128.08185 448.955437 
L 129.327806 450.457122 
L 130.588717 451.946272 
L 131.864456 453.422739 
L 133.154896 454.886375 
L 134.459907 456.337034 
L 135.779359 457.77457 
L 137.11312 459.19884 
L 138.461058 460.609702 
L 139.823036 462.007014 
L 141.198919 463.390636 
L 142.588569 464.760431 
L 143.991847 466.116261 
L 145.408613 467.45799 
L 146.838726 468.785485 
L 148.282042 470.098613 
L 149.738416 471.397242 
L 151.207704 472.681243 
L 152.689759 473.950486 
L 154.184431 475.204847 
L 155.691572 476.444198 
L 157.211031 477.668415 
L 158.742656 478.877378 
L 160.286294 480.070963 
L 161.84179 481.249053 
L 163.408989 482.41153 
L 164.987735 483.558276 
L 166.577868 484.689178 
L 168.179231 485.804123 
L 169.791664 486.902998 
L 171.415004 487.985694 
L 173.04909 489.052103 
L 174.693758 490.102119 
L 176.348844 491.135635 
L 178.014182 492.152549 
L 179.689605 493.152759 
L 181.374947 494.136165 
L 183.070039 495.102669 
L 184.77471 496.052173 
L 186.488792 496.984584 
L 188.212111 497.899808 
L 189.944497 498.797753 
L 191.685775 499.67833 
L 193.435772 500.54145 
L 195.194312 501.387027 
L 196.96122 502.214977 
L 198.736319 503.025217 
L 200.519431 503.817665 
L 202.310379 504.592243 
L 204.108983 505.348873 
L 205.915063 506.08748 
L 207.728439 506.807989 
L 209.548929 507.510328 
L 211.376351 508.194428 
L 213.210523 508.86022 
L 215.051261 509.507637 
L 216.89838 510.136615 
L 218.751698 510.74709 
L 220.611027 511.339002 
L 222.476182 511.912292 
L 224.346977 512.466901 
L 226.223224 513.002775 
L 228.104736 513.51986 
L 229.991325 514.018105 
L 231.882802 514.497459 
L 233.778978 514.957874 
L 235.679663 515.399305 
L 237.584667 515.821708 
L 239.4938 516.225039 
L 241.40687 516.60926 
L 243.323687 516.974331 
L 245.244059 517.320216 
L 247.167794 517.64688 
L 249.094699 517.95429 
L 251.024582 518.242417 
L 252.95725 518.511231 
L 254.892509 518.760705 
L 256.830166 518.990814 
L 258.770027 519.201535 
L 260.711898 519.392848 
L 262.655586 519.564732 
L 264.600895 519.717172 
L 266.547631 519.850151 
L 268.495599 519.963656 
L 270.444605 520.057677 
L 272.394454 520.132203 
L 274.344951 520.187227 
L 276.2959 520.222743 
L 278.247107 520.238749 
L 280.198377 520.235242 
L 282.149513 520.212223 
L 284.100322 520.169694 
L 286.050609 520.10766 
L 288.000177 520.026126 
L 289.948833 519.925101 
L 291.896381 519.804594 
L 293.842626 519.664618 
L 295.787375 519.505188 
L 297.730432 519.326318 
L 299.671603 519.128027 
L 301.610694 518.910334 
L 303.547511 518.673262 
L 305.481861 518.416833 
L 307.41355 518.141074 
L 309.342385 517.846013 
L 311.268172 517.531678 
L 313.190721 517.198102 
L 315.109837 516.845316 
L 317.02533 516.473358 
L 318.937007 516.082264 
L 320.844678 515.672073 
L 322.748151 515.242825 
L 324.647237 514.794565 
L 326.541746 514.327337 
L 328.431487 513.841188 
L 330.316273 513.336165 
L 332.195914 512.812321 
L 334.070223 512.269706 
L 335.939013 511.708376 
L 337.802095 511.128386 
L 339.659285 510.529795 
L 341.510396 509.912662 
L 343.355243 509.277049 
L 345.193642 508.62302 
L 347.025409 507.950639 
L 348.85036 507.259975 
L 350.668314 506.551097 
L 352.479088 505.824074 
L 354.282502 505.078981 
L 356.078374 504.315891 
L 357.866526 503.53488 
L 359.646779 502.736028 
L 361.418954 501.919413 
L 363.182875 501.085117 
L 364.938364 500.233225 
L 366.685247 499.36382 
L 368.423349 498.47699 
L 370.152496 497.572824 
L 371.872514 496.651412 
L 373.583233 495.712846 
L 375.284481 494.75722 
L 376.976087 493.78463 
L 378.657884 492.795172 
L 380.329702 491.788947 
L 381.991374 490.766053 
L 383.642734 489.726595 
L 385.283617 488.670675 
L 386.913859 487.598399 
L 388.533297 486.509875 
L 390.141769 485.405211 
L 391.739115 484.284518 
L 393.325173 483.147908 
L 394.899787 481.995494 
L 396.462797 480.827392 
L 398.014049 479.643718 
L 399.553387 478.444592 
L 401.080656 477.230132 
L 402.595705 476.000461 
L 404.098382 474.7557 
L 405.588536 473.495976 
L 407.066018 472.221413 
L 408.530681 470.93214 
L 409.982379 469.628284 
L 411.420965 468.309977 
L 412.846297 466.97735 
L 414.258232 465.630537 
L 415.656627 464.269672 
L 417.041345 462.894891 
L 418.412246 461.506332 
L 419.769193 460.104134 
L 421.11205 458.688437 
L 422.440683 457.259382 
L 423.75496 455.817112 
L 425.054749 454.361772 
L 426.339919 452.893507 
L 427.610343 451.412464 
L 428.865893 449.918791 
L 430.106443 448.412637 
L 431.331871 446.894154 
L 432.542052 445.363492 
L 433.736867 443.820805 
L 434.916195 442.266248 
L 436.079919 440.699975 
L 437.227923 439.122143 
L 438.360091 437.53291 
L 439.47631 435.932435 
L 440.576469 434.320879 
L 441.660457 432.698401 
L 442.728167 431.065165 
L 443.779492 429.421334 
L 444.814326 427.767071 
L 445.832566 426.102544 
L 446.834109 424.427917 
L 447.818857 422.743359 
L 448.786711 421.049037 
L 449.737573 419.345122 
L 450.671348 417.631784 
L 451.587944 415.909194 
L 452.487268 414.177524 
L 453.369231 412.436948 
L 454.233745 410.687639 
L 455.080722 408.929773 
L 455.910079 407.163524 
L 456.721731 405.389071 
L 457.5156 403.60659 
L 458.291604 401.81626 
L 459.049666 400.018259 
L 459.78971 398.212768 
L 460.511663 396.399967 
z
" clip-path="url(#p6cd76e9bbb)" style="fill: #0cf4eb"/>
   </g>
   <g id="patch_7">
    <path d="M 111.576052 421.700073 
L 110.618549 420.022311 
L 109.677871 418.335059 
L 108.754112 416.638484 
L 107.847365 414.932756 
L 106.957721 413.218047 
L 106.085267 411.494527 
L 105.230092 409.762368 
L 104.392282 408.021745 
L 103.571919 406.272831 
L 102.769085 404.515801 
L 101.983863 402.75083 
L 101.216328 400.978096 
L 100.466559 399.197775 
L 99.734631 397.410045 
L 99.048857 395.687084 
L 97.232461 396.399967 
L 97.925162 398.140332 
L 98.664484 399.946119 
L 99.421826 401.744423 
L 100.197113 403.535064 
L 100.990268 405.317863 
L 101.80121 407.092641 
L 102.62986 408.859221 
L 103.476133 410.617426 
L 104.339946 412.367081 
L 105.221212 414.10801 
L 106.119843 415.84004 
L 107.035749 417.562997 
L 107.968839 419.276709 
L 108.919018 420.981004 
L 109.886193 422.675713 
z
" clip-path="url(#p6cd76e9bbb)" style="fill: #56ffa0"/>
   </g>
   <g id="patch_8">
    <path d="M 99.048857 395.687084 
L 98.352105 393.885353 
L 97.673406 392.076745 
L 97.012826 390.26144 
L 96.370432 388.439621 
L 95.746289 386.611468 
L 95.140457 384.777166 
L 94.552999 382.936898 
L 93.983972 381.090846 
L 93.433434 379.239197 
L 92.90144 377.382136 
L 92.388042 375.519847 
L 91.893293 373.652517 
L 91.417242 371.780334 
L 90.959935 369.903484 
L 90.52142 368.022154 
L 90.10174 366.136533 
L 89.700937 364.24681 
L 89.31905 362.353174 
L 88.956119 360.455813 
L 88.61218 358.554918 
L 88.287266 356.650679 
L 87.98141 354.743286 
L 87.694643 352.83293 
L 87.426994 350.919801 
L 87.178489 349.004092 
L 86.949154 347.085994 
L 86.73901 345.165698 
L 86.54808 343.243397 
L 86.376382 341.319283 
L 86.235431 339.547796 
L 84.289606 339.693616 
L 84.431981 341.482996 
L 84.605414 343.426546 
L 84.798272 345.368264 
L 85.010539 347.307957 
L 85.242191 349.24543 
L 85.493206 351.18049 
L 85.763558 353.112942 
L 86.053222 355.042595 
L 86.362167 356.969255 
L 86.690363 358.892729 
L 87.037776 360.812825 
L 87.404374 362.729351 
L 87.790117 364.642115 
L 88.194969 366.550926 
L 88.618889 368.455593 
L 89.061833 370.355926 
L 89.523758 372.251734 
L 90.004619 374.142829 
L 90.504365 376.02902 
L 91.022948 377.91012 
L 91.560316 379.78594 
L 92.116415 381.656293 
L 92.69119 383.520991 
L 93.284582 385.379848 
L 93.896533 387.232678 
L 94.526982 389.079297 
L 95.175864 390.919519 
L 95.843117 392.75316 
L 96.528671 394.580036 
L 97.232461 396.399967 
z
" clip-path="url(#p6cd76e9bbb)" style="fill: #a0ff56"/>
   </g>
   <g id="patch_9">
    <path d="M 86.235431 339.547796 
L 86.100704 337.62074 
L 85.985253 335.692433 
L 85.889092 333.763068 
L 85.812229 331.832838 
L 85.754671 329.901936 
L 85.716425 327.970555 
L 85.697494 326.038888 
L 85.697881 324.107128 
L 85.717585 322.175468 
L 85.756604 320.244103 
L 85.814935 318.313224 
L 85.892571 316.383024 
L 85.989505 314.453698 
L 86.105727 312.525438 
L 86.241226 310.598436 
L 86.395987 308.672885 
L 86.569996 306.748978 
L 86.763235 304.826908 
L 86.975684 302.906866 
L 87.207324 300.989044 
L 87.458129 299.073635 
L 87.728076 297.160829 
L 88.017137 295.250819 
L 88.325283 293.343794 
L 88.652484 291.439947 
L 88.998706 289.539466 
L 89.363916 287.642543 
L 89.748076 285.749367 
L 90.151149 283.860126 
L 90.538615 282.125796 
L 88.636257 281.691595 
L 88.244877 283.443444 
L 87.837733 285.351768 
L 87.449692 287.264067 
L 87.080794 289.180151 
L 86.731074 291.099828 
L 86.400568 293.022907 
L 86.089309 294.949194 
L 85.797328 296.878498 
L 85.524655 298.810624 
L 85.271316 300.745381 
L 85.037337 302.682575 
L 84.822742 304.622011 
L 84.627551 306.563497 
L 84.451784 308.506837 
L 84.295459 310.451837 
L 84.158592 312.398304 
L 84.041196 314.346042 
L 83.943283 316.294856 
L 83.864863 318.244552 
L 83.805943 320.194935 
L 83.76653 322.14581 
L 83.746627 324.096981 
L 83.746236 326.048253 
L 83.765358 327.999432 
L 83.80399 329.950322 
L 83.862129 331.900729 
L 83.939769 333.850456 
L 84.036902 335.79931 
L 84.153518 337.747094 
L 84.289606 339.693616 
z
" clip-path="url(#p6cd76e9bbb)" style="fill: #ebff0c"/>
   </g>
   <g id="patch_10">
    <path d="M 90.538615 282.125796 
L 90.977883 280.244642 
L 91.43594 278.367975 
L 91.912741 276.495982 
L 92.408238 274.628851 
L 92.922381 272.766768 
L 93.455119 270.909919 
L 94.006398 269.058491 
L 94.576164 267.212668 
L 95.164359 265.372634 
L 95.770925 263.538575 
L 96.3958 261.710673 
L 97.038924 259.88911 
L 97.70023 258.07407 
L 98.379653 256.265734 
L 99.077126 254.464282 
L 99.792578 252.669895 
L 100.525937 250.882752 
L 101.277131 249.103032 
L 102.046085 247.330913 
L 102.832721 245.566572 
L 103.63696 243.810185 
L 104.458724 242.061928 
L 105.297928 240.321976 
L 106.154489 238.590503 
L 107.028322 236.867682 
L 107.91934 235.153686 
L 108.827452 233.448685 
L 109.752569 231.75285 
L 110.694598 230.066351 
L 111.653444 228.389357 
L 112.629012 226.722035 
L 113.621204 225.064551 
L 114.629921 223.417073 
L 115.655062 221.779763 
L 116.696525 220.152787 
L 117.754205 218.536307 
L 118.827997 216.930484 
L 119.917793 215.335479 
L 121.023484 213.751451 
L 122.14496 212.17856 
L 123.282109 210.616961 
L 124.434816 209.066813 
L 125.602967 207.528268 
L 126.786445 206.001482 
L 127.985131 204.486606 
L 129.198906 202.983793 
L 130.427648 201.493193 
L 131.671235 200.014955 
L 132.929541 198.549226 
L 134.202442 197.096153 
L 135.489809 195.655882 
L 136.791514 194.228556 
L 138.107428 192.814318 
L 139.437417 191.41331 
L 140.78135 190.025672 
L 142.139092 188.651542 
L 143.510508 187.291058 
L 144.895459 185.944356 
L 146.293808 184.61157 
L 147.478474 183.503067 
L 146.151266 182.072677 
L 144.954633 183.192377 
L 143.54216 184.538625 
L 142.143219 185.89893 
L 140.757951 187.273156 
L 139.386495 188.661166 
L 138.028987 190.062821 
L 136.685563 191.477981 
L 135.356357 192.906504 
L 134.041503 194.348247 
L 132.741132 195.803067 
L 131.455374 197.270817 
L 130.184358 198.751351 
L 128.92821 200.244522 
L 127.687056 201.750178 
L 126.461021 203.268171 
L 125.250227 204.798349 
L 124.054795 206.340557 
L 122.874844 207.894642 
L 121.710493 209.460449 
L 120.561858 211.037821 
L 119.429054 212.626601 
L 118.312194 214.226628 
L 117.21139 215.837744 
L 116.126752 217.459788 
L 115.058388 219.092596 
L 114.006405 220.736007 
L 112.970909 222.389855 
L 111.952003 224.053974 
L 110.949789 225.7282 
L 109.964367 227.412364 
L 108.995835 229.106298 
L 108.044291 230.809832 
L 107.10983 232.522796 
L 106.192545 234.245019 
L 105.292527 235.976329 
L 104.409867 237.716552 
L 103.544654 239.465515 
L 102.696973 241.223042 
L 101.866909 242.988958 
L 101.054546 244.763086 
L 100.259964 246.545249 
L 99.483243 248.335268 
L 98.724461 250.132965 
L 97.983694 251.93816 
L 97.261015 253.750672 
L 96.556498 255.570321 
L 95.870211 257.396923 
L 95.202225 259.230297 
L 94.552606 261.070258 
L 93.921418 262.916624 
L 93.308726 264.76921 
L 92.714589 266.627829 
L 92.139068 268.492297 
L 91.58222 270.362427 
L 91.044101 272.238031 
L 90.524765 274.118923 
L 90.024263 276.004915 
L 89.542646 277.895816 
L 89.079962 279.79144 
L 88.636257 281.691595 
z
" clip-path="url(#p6cd76e9bbb)" style="fill: #ffab00"/>
   </g>
   <g id="patch_11">
    <path d="M 147.478474 183.503067 
L 148.901106 182.196233 
L 150.336735 180.903691 
L 151.785218 179.625569 
L 153.246409 178.361996 
L 154.720162 177.113098 
L 156.206331 175.879 
L 157.704766 174.659825 
L 159.215318 173.455694 
L 160.737835 172.26673 
L 162.272166 171.093049 
L 163.818156 169.93477 
L 165.375652 168.792009 
L 166.944498 167.66488 
L 168.524536 166.553495 
L 170.115608 165.457966 
L 171.717557 164.378403 
L 173.33022 163.314912 
L 174.953438 162.267601 
L 176.587047 161.236574 
L 178.230885 160.221935 
L 179.884787 159.223784 
L 181.548588 158.242222 
L 183.222121 157.277347 
L 184.905219 156.329255 
L 186.597713 155.398042 
L 188.299435 154.483799 
L 190.010214 153.586619 
L 191.729879 152.706592 
L 193.458258 151.843805 
L 195.055793 151.0654 
L 194.209164 149.307357 
L 192.595492 150.093624 
L 190.849655 150.965126 
L 189.112619 151.854043 
L 187.38456 152.760285 
L 185.665649 153.683762 
L 183.956059 154.624382 
L 182.25596 155.582051 
L 180.565523 156.556672 
L 178.884916 157.548149 
L 177.214308 158.556382 
L 175.553866 159.58127 
L 173.903755 160.622711 
L 172.264141 161.680601 
L 170.635188 162.754834 
L 169.017058 163.845303 
L 167.409914 164.951898 
L 165.813916 166.074508 
L 164.229224 167.213023 
L 162.655996 168.367327 
L 161.094389 169.537305 
L 159.54456 170.722841 
L 158.006664 171.923816 
L 156.480854 173.140109 
L 154.967283 174.371599 
L 153.466103 175.618163 
L 151.977463 176.879676 
L 150.501512 178.156013 
L 149.038398 179.447045 
L 147.588268 180.752643 
L 146.151266 182.072677 
z
" clip-path="url(#p6cd76e9bbb)" style="fill: #ff5500"/>
   </g>
   <g id="patch_12">
    <path d="M 195.055793 151.0654 
L 196.800417 150.235954 
L 198.553249 149.423994 
L 200.314112 148.629604 
L 202.082832 147.852862 
L 203.85923 147.093845 
L 205.643129 146.35263 
L 207.434351 145.629291 
L 209.232717 144.9239 
L 211.038046 144.236527 
L 212.850159 143.567242 
L 214.668875 142.916111 
L 216.49401 142.2832 
L 218.325383 141.668571 
L 220.162811 141.072286 
L 222.00611 140.494405 
L 223.855095 139.934986 
L 225.709582 139.394084 
L 227.569385 138.871754 
L 229.434318 138.368048 
L 231.304195 137.883016 
L 233.178829 137.416706 
L 235.058032 136.969166 
L 236.941616 136.54044 
L 238.829394 136.130571 
L 240.721175 135.7396 
L 242.616772 135.367566 
L 244.515994 135.014507 
L 246.418652 134.680457 
L 248.324555 134.365449 
L 250.080555 134.092509 
L 249.789732 132.163022 
L 248.015995 132.43872 
L 246.09084 132.756909 
L 244.168963 133.094333 
L 242.250557 133.450959 
L 240.335813 133.826751 
L 238.424922 134.221671 
L 236.518076 134.63568 
L 234.615466 135.068737 
L 232.717281 135.520798 
L 230.823712 135.991817 
L 228.934947 136.481749 
L 227.051176 136.990543 
L 225.172587 137.518149 
L 223.299368 138.064514 
L 221.431706 138.629584 
L 219.569788 139.213302 
L 217.713801 139.81561 
L 215.863929 140.436447 
L 214.020357 141.075752 
L 212.183271 141.73346 
L 210.352854 142.409505 
L 208.529289 143.103821 
L 206.712758 143.816337 
L 204.903443 144.546983 
L 203.101524 145.295685 
L 201.307183 146.062369 
L 199.520598 146.846957 
L 197.741948 147.649371 
L 195.971411 148.469532 
L 194.209164 149.307357 
z
" clip-path="url(#p6cd76e9bbb)" style="fill: #e80000"/>
   </g>
   <g id="patch_13">
    <path d="M 250.080555 134.092509 
L 251.992154 133.814149 
L 253.906442 133.554919 
L 255.823226 133.314845 
L 257.742314 133.09395 
L 259.663516 132.892257 
L 261.586639 132.709786 
L 263.51149 132.546555 
L 265.437877 132.40258 
L 267.365608 132.277875 
L 269.294489 132.172454 
L 271.224328 132.086327 
L 273.154931 132.019502 
L 275.086107 131.971986 
L 277.017661 131.943784 
L 278.872062 131.934884 
L 278.872062 129.983603 
L 276.998929 129.992594 
L 275.047865 130.02108 
L 273.097183 130.069076 
L 271.147078 130.136576 
L 269.197746 130.223573 
L 267.249381 130.330059 
L 265.302178 130.456023 
L 263.356333 130.601452 
L 261.412038 130.766332 
L 259.46949 130.950647 
L 257.528883 131.154377 
L 255.590409 131.377503 
L 253.654264 131.620003 
L 251.72064 131.881851 
L 249.789732 132.163022 
z
" clip-path="url(#p6cd76e9bbb)" style="fill: #800000"/>
   </g>
   <g id="PatchCollection_1">
    <path d="M 111.576052 421.700073 
L 111.576052 421.700073 
L 110.618549 420.022311 
L 109.677871 418.335059 
L 108.754112 416.638484 
L 107.847365 414.932756 
L 106.957721 413.218047 
L 106.085267 411.494527 
L 105.230092 409.762368 
L 104.392282 408.021745 
L 103.571919 406.272831 
L 102.769085 404.515801 
L 101.983863 402.75083 
L 101.216328 400.978096 
L 100.466559 399.197775 
L 99.734631 397.410045 
L 99.048857 395.687084 
L 99.048857 395.687084 
Q 278.872062 325.111676 195.055793 151.0654 
L 195.055793 151.0654 
L 195.055793 151.0654 
L 196.800417 150.235954 
L 198.553249 149.423994 
L 200.314112 148.629604 
L 202.082832 147.852862 
L 203.85923 147.093845 
L 205.643129 146.35263 
L 207.434351 145.629291 
L 209.232717 144.9239 
L 211.038046 144.236527 
L 212.850159 143.567242 
L 214.668875 142.916111 
L 216.49401 142.2832 
L 218.325383 141.668571 
L 220.162811 141.072286 
L 221.932203 140.517186 
L 221.932203 140.517186 
Q 278.872062 325.111676 111.576052 421.700073 
z
" clip-path="url(#p6cd76e9bbb)" style="fill: #56ffa0; fill-opacity: 0.5; stroke: #808080; stroke-opacity: 0.5; stroke-width: 0.1"/>
    <path d="M 458.695267 395.687084 
L 458.695267 395.687084 
L 457.980534 397.481757 
L 457.24789 399.269193 
L 456.497408 401.049214 
L 455.729164 402.821641 
L 454.943235 404.586297 
L 454.139698 406.343006 
L 453.318635 408.091592 
L 452.480128 409.831879 
L 451.624259 411.563695 
L 450.751116 413.286866 
L 449.860785 415.001219 
L 448.953355 416.706583 
L 448.028917 418.402788 
L 447.087564 420.089664 
L 446.168072 421.700073 
L 446.168072 421.700073 
Q 278.872062 325.111676 250.080555 134.092509 
L 250.080555 134.092509 
L 250.080555 134.092509 
L 251.992154 133.814149 
L 253.906442 133.554919 
L 255.823226 133.314845 
L 257.742314 133.09395 
L 259.663516 132.892257 
L 261.586639 132.709786 
L 263.51149 132.546555 
L 265.437877 132.40258 
L 267.365608 132.277875 
L 269.294489 132.172454 
L 271.224328 132.086327 
L 273.154931 132.019502 
L 275.086107 131.971986 
L 277.017661 131.943784 
L 278.872062 131.934884 
L 278.872062 131.934884 
Q 278.872062 325.111676 458.695267 395.687084 
z
" clip-path="url(#p6cd76e9bbb)" style="fill: #0cf4eb; fill-opacity: 0.5; stroke: #808080; stroke-opacity: 0.5; stroke-width: 0.1"/>
    <path d="M 446.168072 421.700073 
L 446.168072 421.700073 
L 445.193839 423.368176 
L 444.202975 425.026453 
L 443.195577 426.674739 
L 442.171747 428.312868 
L 441.131588 429.940678 
L 440.075202 431.558005 
L 439.002697 433.164687 
L 437.914178 434.760564 
L 436.809755 436.345476 
L 435.689539 437.919265 
L 434.553641 439.481774 
L 433.402175 441.032845 
L 432.235256 442.572324 
L 431.053001 444.100058 
L 429.90376 445.555437 
L 429.90376 445.555437 
Q 278.872062 325.111676 221.932203 140.517186 
L 221.932203 140.517186 
L 221.932203 140.517186 
L 223.780964 139.957027 
L 225.635234 139.415383 
L 227.494828 138.892308 
L 229.359559 138.387855 
L 231.229242 137.902075 
L 233.103689 137.435015 
L 234.982713 136.986722 
L 236.866125 136.557242 
L 238.753738 136.146618 
L 240.645363 135.754889 
L 242.540811 135.382096 
L 244.439892 135.028276 
L 246.342416 134.693464 
L 248.248193 134.377694 
L 250.080555 134.092509 
L 250.080555 134.092509 
Q 278.872062 325.111676 446.168072 421.700073 
z
" clip-path="url(#p6cd76e9bbb)" style="fill: #0cf4eb; fill-opacity: 0.5; stroke: #808080; stroke-opacity: 0.5; stroke-width: 0.1"/>
    <path d="M 429.90376 445.555437 
L 429.90376 445.555437 
L 428.691791 447.059706 
L 427.46484 448.551781 
L 426.22303 450.031512 
L 424.966485 451.498752 
L 423.695331 452.953352 
L 422.409694 454.395169 
L 421.109704 455.824057 
L 419.79549 457.239874 
L 418.467184 458.642478 
L 417.124919 460.03173 
L 415.768828 461.40749 
L 414.399048 462.76962 
L 413.015715 464.117984 
L 411.618968 465.452448 
L 410.208946 466.772878 
L 408.785791 468.079142 
L 407.349645 469.371109 
L 405.900651 470.648651 
L 404.438954 471.911639 
L 402.9647 473.159947 
L 401.478038 474.39345 
L 399.979115 475.612025 
L 398.468081 476.815551 
L 396.945088 478.003906 
L 395.410287 479.176972 
L 393.863833 480.334632 
L 392.30588 481.476769 
L 390.736583 482.60327 
L 389.156101 483.714022 
L 387.692424 484.721833 
L 387.692424 484.721833 
Q 278.872062 325.111676 147.478474 183.503067 
L 147.478474 183.503067 
L 147.478474 183.503067 
L 148.901106 182.196233 
L 150.336735 180.903691 
L 151.785218 179.625569 
L 153.246409 178.361996 
L 154.720162 177.113098 
L 156.206331 175.879 
L 157.704766 174.659825 
L 159.215318 173.455694 
L 160.737835 172.26673 
L 162.272166 171.093049 
L 163.818156 169.93477 
L 165.375652 168.792009 
L 166.944498 167.66488 
L 168.524536 166.553495 
L 170.115608 165.457966 
L 171.717557 164.378403 
L 173.33022 163.314912 
L 174.953438 162.267601 
L 176.587047 161.236574 
L 178.230885 160.221935 
L 179.884787 159.223784 
L 181.548588 158.242222 
L 183.222121 157.277347 
L 184.905219 156.329255 
L 186.597713 155.398042 
L 188.299435 154.483799 
L 190.010214 153.586619 
L 191.729879 152.706592 
L 193.458258 151.843805 
L 195.055793 151.0654 
L 195.055793 151.0654 
Q 278.872062 325.111676 429.90376 445.555437 
z
" clip-path="url(#p6cd76e9bbb)" style="fill: #0cf4eb; fill-opacity: 0.5; stroke: #808080; stroke-opacity: 0.5; stroke-width: 0.1"/>
    <path d="M 387.692424 484.721833 
L 387.692424 484.721833 
L 386.090908 485.802038 
L 384.47867 486.866174 
L 382.855872 487.914135 
L 381.222675 488.945816 
L 379.579244 489.961113 
L 377.925742 490.959926 
L 376.262334 491.942154 
L 374.589188 492.907699 
L 372.90647 493.856464 
L 371.214348 494.788355 
L 369.512993 495.703279 
L 367.802573 496.601144 
L 366.08326 497.48186 
L 364.355227 498.345339 
L 362.618645 499.191495 
L 360.873689 500.020243 
L 359.120532 500.8315 
L 357.359351 501.625185 
L 355.590321 502.401219 
L 353.813619 503.159525 
L 352.029423 503.900026 
L 350.237911 504.622648 
L 348.439263 505.327319 
L 346.633659 506.013968 
L 344.821278 506.682528 
L 343.002302 507.332931 
L 341.176914 507.965111 
L 339.345294 508.579007 
L 337.507628 509.174556 
L 335.664098 509.751699 
L 333.814889 510.310378 
L 331.960186 510.850537 
L 330.100174 511.372123 
L 328.235039 511.875082 
L 326.364968 512.359366 
L 324.490148 512.824924 
L 322.610766 513.271712 
L 320.72701 513.699684 
L 318.839068 514.108797 
L 316.94713 514.499011 
L 315.051385 514.870286 
L 313.152021 515.222585 
L 311.24923 515.555874 
L 309.343201 515.870118 
L 307.434125 516.165286 
L 305.522192 516.441349 
L 303.607595 516.69828 
L 301.690524 516.936052 
L 299.771171 517.154642 
L 297.849729 517.354027 
L 295.926389 517.534189 
L 294.001343 517.695108 
L 292.074784 517.836769 
L 290.146905 517.959158 
L 288.217899 518.062262 
L 286.287958 518.146072 
L 284.357275 518.210578 
L 282.426044 518.255774 
L 280.494458 518.281656 
L 278.872062 518.288469 
L 278.872062 518.288469 
Q 278.872062 325.111676 90.538615 282.125796 
L 90.538615 282.125796 
L 90.538615 282.125796 
L 90.977883 280.244642 
L 91.43594 278.367975 
L 91.912741 276.495982 
L 92.408238 274.628851 
L 92.922381 272.766768 
L 93.455119 270.909919 
L 94.006398 269.058491 
L 94.576164 267.212668 
L 95.164359 265.372634 
L 95.770925 263.538575 
L 96.3958 261.710673 
L 97.038924 259.88911 
L 97.70023 258.07407 
L 98.379653 256.265734 
L 99.077126 254.464282 
L 99.792578 252.669895 
L 100.525937 250.882752 
L 101.277131 249.103032 
L 102.046085 247.330913 
L 102.832721 245.566572 
L 103.63696 243.810185 
L 104.458724 242.061928 
L 105.297928 240.321976 
L 106.154489 238.590503 
L 107.028322 236.867682 
L 107.91934 235.153686 
L 108.827452 233.448685 
L 109.752569 231.75285 
L 110.694598 230.066351 
L 111.653444 228.389357 
L 112.629012 226.722035 
L 113.621204 225.064551 
L 114.629921 223.417073 
L 115.655062 221.779763 
L 116.696525 220.152787 
L 117.754205 218.536307 
L 118.827997 216.930484 
L 119.917793 215.335479 
L 121.023484 213.751451 
L 122.14496 212.17856 
L 123.282109 210.616961 
L 124.434816 209.066813 
L 125.602967 207.528268 
L 126.786445 206.001482 
L 127.985131 204.486606 
L 129.198906 202.983793 
L 130.427648 201.493193 
L 131.671235 200.014955 
L 132.929541 198.549226 
L 134.202442 197.096153 
L 135.489809 195.655882 
L 136.791514 194.228556 
L 138.107428 192.814318 
L 139.437417 191.41331 
L 140.78135 190.025672 
L 142.139092 188.651542 
L 143.510508 187.291058 
L 144.895459 185.944356 
L 146.293808 184.61157 
L 147.478474 183.503067 
L 147.478474 183.503067 
Q 278.872062 325.111676 387.692424 484.721833 
z
" clip-path="url(#p6cd76e9bbb)" style="fill: #0cf4eb; fill-opacity: 0.5; stroke: #808080; stroke-opacity: 0.5; stroke-width: 0.1"/>
    <path d="M 278.872062 518.288469 
L 278.872062 518.288469 
L 276.940326 518.27881 
L 275.008784 518.249835 
L 273.077627 518.201546 
L 271.147051 518.133948 
L 269.217246 518.047048 
L 267.288407 517.940855 
L 265.360727 517.815379 
L 263.434398 517.670633 
L 261.509612 517.506631 
L 259.586563 517.32339 
L 257.665442 517.120928 
L 255.746442 516.899264 
L 253.829754 516.658423 
L 251.915571 516.398427 
L 250.080555 516.130844 
L 250.080555 516.130844 
Q 278.872062 325.111676 86.235431 339.547796 
L 86.235431 339.547796 
L 86.235431 339.547796 
L 86.100704 337.62074 
L 85.985253 335.692433 
L 85.889092 333.763068 
L 85.812229 331.832838 
L 85.754671 329.901936 
L 85.716425 327.970555 
L 85.697494 326.038888 
L 85.697881 324.107128 
L 85.717585 322.175468 
L 85.756604 320.244103 
L 85.814935 318.313224 
L 85.892571 316.383024 
L 85.989505 314.453698 
L 86.105727 312.525438 
L 86.235431 310.675557 
L 86.235431 310.675557 
Q 278.872062 325.111676 278.872062 518.288469 
z
" clip-path="url(#p6cd76e9bbb)" style="fill: #0cf4eb; fill-opacity: 0.5; stroke: #808080; stroke-opacity: 0.5; stroke-width: 0.1"/>
    <path d="M 250.080555 516.130844 
L 250.080555 516.130844 
L 248.171835 515.833383 
L 246.266184 515.51685 
L 244.363795 515.181276 
L 242.464856 514.826696 
L 240.569558 514.453144 
L 238.678089 514.060659 
L 236.790641 513.649278 
L 234.9074 513.219044 
L 233.028556 512.77 
L 231.154296 512.302189 
L 229.284808 511.81566 
L 227.420279 511.310461 
L 225.560895 510.786642 
L 223.706842 510.244255 
L 221.932203 509.706166 
L 221.932203 509.706166 
Q 278.872062 325.111676 387.692424 165.50152 
L 387.692424 165.50152 
L 387.692424 165.50152 
L 389.283058 166.597686 
L 390.862651 167.709703 
L 392.431045 168.83746 
L 393.988083 169.980845 
L 395.53361 171.139742 
L 397.067471 172.314037 
L 398.589512 173.503611 
L 400.099581 174.708346 
L 401.597528 175.928121 
L 403.083203 177.162814 
L 404.556456 178.412302 
L 406.017141 179.67646 
L 407.465112 180.955162 
L 408.900224 182.248278 
L 410.26565 183.503067 
L 410.26565 183.503067 
Q 278.872062 325.111676 250.080555 516.130844 
z
" clip-path="url(#p6cd76e9bbb)" style="fill: #0cf4eb; fill-opacity: 0.5; stroke: #808080; stroke-opacity: 0.5; stroke-width: 0.1"/>
    <path d="M 446.168072 228.52328 
L 446.168072 228.52328 
L 447.125575 230.201042 
L 448.066253 231.888294 
L 448.990012 233.584869 
L 449.896759 235.290596 
L 450.786403 237.005306 
L 451.658857 238.728826 
L 452.514031 240.460984 
L 453.351842 242.201607 
L 454.172205 243.950522 
L 454.975038 245.707552 
L 455.760261 247.472522 
L 456.527796 249.245257 
L 457.277564 251.025578 
L 458.009493 252.813307 
L 458.695267 254.536269 
L 458.695267 254.536269 
Q 278.872062 325.111676 86.235431 310.675557 
L 86.235431 310.675557 
L 86.235431 310.675557 
L 86.389421 308.749944 
L 86.56266 306.825968 
L 86.755129 304.90382 
L 86.96681 302.983693 
L 87.197681 301.065779 
L 87.44772 299.15027 
L 87.716901 297.237356 
L 88.005197 295.32723 
L 88.31258 293.420082 
L 88.639019 291.516104 
L 88.98448 289.615485 
L 89.348931 287.718416 
L 89.732333 285.825085 
L 90.134649 283.935684 
L 90.538615 282.125796 
L 90.538615 282.125796 
Q 278.872062 325.111676 446.168072 228.52328 
z
" clip-path="url(#p6cd76e9bbb)" style="fill: #0094ff; fill-opacity: 0.5; stroke: #808080; stroke-opacity: 0.5; stroke-width: 0.1"/>
    <path d="M 458.695267 254.536269 
L 458.695267 254.536269 
L 459.392018 256.338 
L 460.070718 258.146608 
L 460.731297 259.961912 
L 461.373691 261.783732 
L 461.997835 263.611884 
L 462.603667 265.446186 
L 463.191125 267.286455 
L 463.760152 269.132506 
L 464.31069 270.984155 
L 464.842684 272.841217 
L 465.356082 274.703506 
L 465.850831 276.570835 
L 466.326882 278.443019 
L 466.784188 280.319869 
L 467.222704 282.201199 
L 467.642384 284.086819 
L 468.043187 285.976542 
L 468.425073 287.870179 
L 468.788005 289.767539 
L 469.131944 291.668434 
L 469.456858 293.572673 
L 469.762714 295.480067 
L 470.049481 297.390423 
L 470.31713 299.303551 
L 470.565634 301.21926 
L 470.79497 303.137359 
L 471.005113 305.057655 
L 471.196044 306.979956 
L 471.367742 308.90407 
L 471.508693 310.675557 
L 471.508693 310.675557 
Q 278.872062 325.111676 99.048857 395.687084 
L 99.048857 395.687084 
L 99.048857 395.687084 
L 98.352105 393.885353 
L 97.673406 392.076745 
L 97.012826 390.26144 
L 96.370432 388.439621 
L 95.746289 386.611468 
L 95.140457 384.777166 
L 94.552999 382.936898 
L 93.983972 381.090846 
L 93.433434 379.239197 
L 92.90144 377.382136 
L 92.388042 375.519847 
L 91.893293 373.652517 
L 91.417242 371.780334 
L 90.959935 369.903484 
L 90.52142 368.022154 
L 90.10174 366.136533 
L 89.700937 364.24681 
L 89.31905 362.353174 
L 88.956119 360.455813 
L 88.61218 358.554918 
L 88.287266 356.650679 
L 87.98141 354.743286 
L 87.694643 352.83293 
L 87.426994 350.919801 
L 87.178489 349.004092 
L 86.949154 347.085994 
L 86.73901 345.165698 
L 86.54808 343.243397 
L 86.376382 341.319283 
L 86.235431 339.547796 
L 86.235431 339.547796 
Q 278.872062 325.111676 458.695267 254.536269 
z
" clip-path="url(#p6cd76e9bbb)" style="fill: #0094ff; fill-opacity: 0.5; stroke: #808080; stroke-opacity: 0.5; stroke-width: 0.1"/>
    <path d="M 471.508693 310.675557 
L 471.508693 310.675557 
L 471.64342 312.602613 
L 471.75887 314.530919 
L 471.855032 316.460284 
L 471.931895 318.390515 
L 471.989453 320.321417 
L 472.027699 322.252798 
L 472.04663 324.184465 
L 472.046243 326.116225 
L 472.026539 328.047884 
L 471.98752 329.97925 
L 471.929189 331.910129 
L 471.851553 333.840328 
L 471.754619 335.769655 
L 471.638397 337.697915 
L 471.508693 339.547796 
L 471.508693 339.547796 
Q 278.872062 325.111676 221.932203 509.706166 
L 221.932203 509.706166 
L 221.932203 509.706166 
L 220.089135 509.127548 
L 218.251947 508.530527 
L 216.42082 507.915165 
L 214.595938 507.281523 
L 212.777483 506.629664 
L 210.965638 505.959654 
L 209.160584 505.271559 
L 207.362501 504.565447 
L 205.571569 503.841391 
L 203.787966 503.099462 
L 202.011872 502.339734 
L 200.243464 501.562284 
L 198.482919 500.767189 
L 196.730412 499.954528 
L 195.055793 499.157953 
L 195.055793 499.157953 
Q 278.872062 325.111676 471.508693 310.675557 
z
" clip-path="url(#p6cd76e9bbb)" style="fill: #0094ff; fill-opacity: 0.5; stroke: #808080; stroke-opacity: 0.5; stroke-width: 0.1"/>
    <path d="M 410.26565 183.503067 
L 410.26565 183.503067 
L 411.675143 184.824061 
L 413.071356 186.159084 
L 414.454148 187.508002 
L 415.823383 188.870681 
L 417.178923 190.246983 
L 418.520632 191.636772 
L 419.848376 193.039908 
L 421.162023 194.456251 
L 422.461441 195.88566 
L 423.746501 197.327991 
L 425.017073 198.7831 
L 426.27303 200.250842 
L 427.514248 201.73107 
L 428.740601 203.223636 
L 429.90376 204.667916 
L 429.90376 204.667916 
Q 278.872062 325.111676 195.055793 499.157953 
L 195.055793 499.157953 
L 195.055793 499.157953 
L 193.31955 498.311102 
L 191.591862 497.446931 
L 189.872902 496.565527 
L 188.162842 495.666977 
L 186.461853 494.751373 
L 184.770105 493.818804 
L 183.087767 492.869365 
L 181.415007 491.90315 
L 179.751993 490.920256 
L 178.098891 489.920782 
L 176.455866 488.904826 
L 174.823082 487.872492 
L 173.200704 486.823881 
L 171.588892 485.7591 
L 170.0517 484.721833 
L 170.0517 484.721833 
Q 278.872062 325.111676 410.26565 183.503067 
z
" clip-path="url(#p6cd76e9bbb)" style="fill: #0038ff; fill-opacity: 0.5; stroke: #808080; stroke-opacity: 0.5; stroke-width: 0.1"/>
    <path d="M 429.90376 204.667916 
L 429.90376 204.667916 
L 431.100626 206.18423 
L 432.28227 207.712437 
L 433.448572 209.252383 
L 434.599417 210.803915 
L 435.734689 212.366878 
L 436.854275 213.941116 
L 437.958063 215.52647 
L 439.045943 217.122783 
L 440.117805 218.729894 
L 441.173543 220.347644 
L 442.213051 221.97587 
L 443.236225 223.614409 
L 444.242962 225.263098 
L 445.233163 226.921772 
L 446.168072 228.52328 
L 446.168072 228.52328 
Q 278.872062 325.111676 471.508693 339.547796 
L 471.508693 339.547796 
L 471.508693 339.547796 
L 471.354703 341.473409 
L 471.181464 343.397385 
L 470.988995 345.319532 
L 470.777314 347.239659 
L 470.546442 349.157574 
L 470.296404 351.073083 
L 470.027223 352.985997 
L 469.738927 354.896123 
L 469.431544 356.80327 
L 469.105105 358.707249 
L 468.759644 360.607868 
L 468.395193 362.504937 
L 468.011791 364.398267 
L 467.609475 366.287669 
L 467.205509 368.097557 
L 467.205509 368.097557 
Q 278.872062 325.111676 429.90376 204.667916 
z
" clip-path="url(#p6cd76e9bbb)" style="fill: #0038ff; fill-opacity: 0.5; stroke: #808080; stroke-opacity: 0.5; stroke-width: 0.1"/>
    <path d="M 362.688331 151.0654 
L 362.688331 151.0654 
L 364.424574 151.912251 
L 366.152262 152.776422 
L 367.871222 153.657826 
L 369.581282 154.556375 
L 371.282271 155.47198 
L 372.974019 156.404549 
L 374.656357 157.353988 
L 376.329117 158.320203 
L 377.992131 159.303096 
L 379.645233 160.302571 
L 381.288258 161.318526 
L 382.921042 162.350861 
L 384.54342 163.399471 
L 386.155232 164.464253 
L 387.692424 165.50152 
L 387.692424 165.50152 
Q 278.872062 325.111676 170.0517 484.721833 
L 170.0517 484.721833 
L 170.0517 484.721833 
L 168.461066 483.625667 
L 166.881473 482.51365 
L 165.313079 481.385892 
L 163.756041 480.242508 
L 162.210514 479.08361 
L 160.676653 477.909316 
L 159.154612 476.719742 
L 157.644542 475.515007 
L 156.146596 474.295232 
L 154.660921 473.060538 
L 153.187668 471.81105 
L 151.726982 470.546892 
L 150.279012 469.268191 
L 148.8439 467.975074 
L 147.478474 466.720286 
L 147.478474 466.720286 
Q 278.872062 325.111676 362.688331 151.0654 
z
" clip-path="url(#p6cd76e9bbb)" style="fill: #0000e8; fill-opacity: 0.5; stroke: #808080; stroke-opacity: 0.5; stroke-width: 0.1"/>
    <path d="M 278.872062 131.934884 
L 278.872062 131.934884 
L 280.803798 131.944542 
L 282.73534 131.973518 
L 284.666496 132.021807 
L 286.597073 132.089404 
L 288.526878 132.176304 
L 290.455716 132.282497 
L 292.383397 132.407973 
L 294.309726 132.55272 
L 296.234512 132.716722 
L 298.157561 132.899963 
L 300.078682 133.102425 
L 301.997682 133.324088 
L 303.91437 133.56493 
L 305.828553 133.824926 
L 307.740041 134.104051 
L 309.648642 134.402276 
L 311.554166 134.719572 
L 313.456421 135.055907 
L 315.355218 135.411248 
L 317.250366 135.785558 
L 319.141677 136.178801 
L 321.028961 136.590937 
L 322.912029 137.021925 
L 324.790693 137.471722 
L 326.664765 137.940282 
L 328.534058 138.42756 
L 330.398385 138.933506 
L 332.25756 139.458069 
L 334.111396 140.001198 
L 335.811921 140.517186 
L 335.811921 140.517186 
Q 278.872062 325.111676 147.478474 466.720286 
L 147.478474 466.720286 
L 147.478474 466.720286 
L 146.068981 465.399292 
L 144.672768 464.064269 
L 143.289975 462.71535 
L 141.920741 461.352672 
L 140.565201 459.97637 
L 139.223492 458.586581 
L 137.895747 457.183445 
L 136.5821 455.767102 
L 135.282682 454.337693 
L 133.997623 452.895362 
L 132.727051 451.440253 
L 131.471094 449.97251 
L 130.229876 448.492282 
L 129.003523 446.999716 
L 127.792156 445.494961 
L 126.595897 443.978168 
L 125.414866 442.449489 
L 124.24918 440.909076 
L 123.098956 439.357083 
L 121.96431 437.793666 
L 120.845354 436.21898 
L 119.742201 434.633184 
L 118.654961 433.036436 
L 117.583742 431.428895 
L 116.528652 429.810723 
L 115.489796 428.182081 
L 114.467278 426.543132 
L 113.4612 424.89404 
L 112.471664 423.23497 
L 111.576052 421.700073 
L 111.576052 421.700073 
Q 278.872062 325.111676 278.872062 131.934884 
z
" clip-path="url(#p6cd76e9bbb)" style="fill: #000080; fill-opacity: 0.5; stroke: #808080; stroke-opacity: 0.5; stroke-width: 0.1"/>
    <path d="M 335.811921 140.517186 
L 335.811921 140.517186 
L 337.654988 141.095805 
L 339.492177 141.692825 
L 341.323304 142.308187 
L 343.148186 142.941829 
L 344.96664 143.593688 
L 346.778485 144.263699 
L 348.58354 144.951794 
L 350.381623 145.657905 
L 352.172555 146.381962 
L 353.956158 147.123891 
L 355.732252 147.883618 
L 357.50066 148.661069 
L 359.261205 149.456164 
L 361.013711 150.268825 
L 362.688331 151.0654 
L 362.688331 151.0654 
Q 278.872062 325.111676 467.205509 368.097557 
L 467.205509 368.097557 
L 467.205509 368.097557 
L 466.766241 369.97871 
L 466.308183 371.855378 
L 465.831383 373.72737 
L 465.335886 375.594502 
L 464.821743 377.456585 
L 464.289005 379.313433 
L 463.737726 381.164862 
L 463.16796 383.010685 
L 462.579765 384.850718 
L 461.973199 386.684778 
L 461.348323 388.51268 
L 460.7052 390.334242 
L 460.043894 392.149282 
L 459.36447 393.957619 
L 458.695267 395.687084 
L 458.695267 395.687084 
Q 278.872062 325.111676 335.811921 140.517186 
z
" clip-path="url(#p6cd76e9bbb)" style="fill: #000080; fill-opacity: 0.5; stroke: #808080; stroke-opacity: 0.5; stroke-width: 0.1"/>
   </g>
   <g id="patch_14">
    <path d="M 278.872062 131.934884 
L 280.803798 131.944542 
L 282.73534 131.973518 
L 284.666496 132.021807 
L 286.597073 132.089404 
L 288.526878 132.176304 
L 290.455716 132.282497 
L 292.383397 132.407973 
L 294.309726 132.55272 
L 296.234512 132.716722 
L 298.157561 132.899963 
L 300.078682 133.102425 
L 301.997682 133.324088 
L 303.91437 133.56493 
L 305.828553 133.824926 
L 307.740041 134.104051 
L 309.648642 134.402276 
L 311.554166 134.719572 
L 313.456421 135.055907 
L 315.355218 135.411248 
L 317.250366 135.785558 
L 319.141677 136.178801 
L 321.028961 136.590937 
L 322.912029 137.021925 
L 324.790693 137.471722 
L 326.664765 137.940282 
L 328.534058 138.42756 
L 330.398385 138.933506 
L 332.25756 139.458069 
L 334.111396 140.001198 
L 335.959708 140.562837 
L 337.802311 141.142932 
L 339.639021 141.741423 
L 341.469655 142.358251 
L 343.294029 142.993354 
L 345.111961 143.646668 
L 346.923268 144.31813 
L 348.727771 145.00767 
L 350.525289 145.71522 
L 352.315641 146.44071 
L 354.098648 147.184068 
L 355.874133 147.945217 
L 357.641918 148.724083 
L 359.401827 149.520588 
L 361.153682 150.334652 
L 362.688331 151.0654 
L 363.53496 149.307357 
L 361.984809 148.569227 
L 360.215259 147.746941 
L 358.437574 146.94239 
L 356.651932 146.155657 
L 354.858513 145.386819 
L 353.057495 144.635953 
L 351.249059 143.903135 
L 349.433385 143.188437 
L 347.610654 142.491932 
L 345.781051 141.813689 
L 343.944756 141.153775 
L 342.101954 140.512256 
L 340.252829 139.889198 
L 338.397566 139.284661 
L 336.536351 138.698708 
L 334.669369 138.131395 
L 332.796807 137.58278 
L 330.918853 137.052918 
L 329.035695 136.541862 
L 327.14752 136.049662 
L 325.254517 135.576369 
L 323.356877 135.122028 
L 321.454788 134.686687 
L 319.548441 134.270388 
L 317.638026 133.873173 
L 315.723734 133.495082 
L 313.805758 133.136152 
L 311.884288 132.796419 
L 309.959517 132.475918 
L 308.031637 132.174681 
L 306.100841 131.892737 
L 304.167322 131.630114 
L 302.231274 131.38684 
L 300.29289 131.162938 
L 298.352364 130.95843 
L 296.40989 130.773338 
L 294.465662 130.60768 
L 292.519875 130.461471 
L 290.572723 130.334728 
L 288.624401 130.227462 
L 286.675104 130.139684 
L 284.725026 130.071404 
L 282.774363 130.022627 
L 280.82331 129.993359 
L 278.872062 129.983603 
L 278.872062 131.934884 
z
" clip-path="url(#p6cd76e9bbb)" style="fill: none; stroke: #000000; stroke-width: 0.5; stroke-linejoin: miter"/>
   </g>
   <g id="patch_15">
    <path d="M 362.688331 151.0654 
L 364.424574 151.912251 
L 366.152262 152.776422 
L 367.871222 153.657826 
L 369.581282 154.556375 
L 371.282271 155.47198 
L 372.974019 156.404549 
L 374.656357 157.353988 
L 376.329117 158.320203 
L 377.992131 159.303096 
L 379.645233 160.302571 
L 381.288258 161.318526 
L 382.921042 162.350861 
L 384.54342 163.399471 
L 386.155232 164.464253 
L 387.692424 165.50152 
L 388.79162 163.889296 
L 387.2389 162.841551 
L 385.610808 161.766015 
L 383.972041 160.706812 
L 382.322765 159.66405 
L 380.663144 158.637833 
L 378.993344 157.628262 
L 377.313532 156.63544 
L 375.623875 155.659466 
L 373.924544 154.700436 
L 372.215707 153.758448 
L 370.497536 152.833594 
L 368.770203 151.925969 
L 367.03388 151.035662 
L 365.288741 150.162762 
L 363.53496 149.307357 
L 362.688331 151.0654 
z
" clip-path="url(#p6cd76e9bbb)" style="fill: none; stroke: #000000; stroke-width: 0.5; stroke-linejoin: miter"/>
   </g>
   <g id="patch_16">
    <path d="M 387.692424 165.50152 
L 389.283058 166.597686 
L 390.862651 167.709703 
L 392.431045 168.83746 
L 393.988083 169.980845 
L 395.53361 171.139742 
L 397.067471 172.314037 
L 398.589512 173.503611 
L 400.099581 174.708346 
L 401.597528 175.928121 
L 403.083203 177.162814 
L 404.556456 178.412302 
L 406.017141 179.67646 
L 407.465112 180.955162 
L 408.900224 182.248278 
L 410.322332 183.555682 
L 411.731296 184.87724 
L 413.126974 186.212822 
L 414.509227 187.562294 
L 415.877916 188.92552 
L 417.232905 190.302365 
L 418.574057 191.692691 
L 419.90124 193.096358 
L 421.21432 194.513227 
L 422.513166 195.943156 
L 423.797647 197.386001 
L 425.067636 198.841619 
L 426.323006 200.309864 
L 427.563631 201.790589 
L 428.789387 203.283646 
L 430.000151 204.788886 
L 431.195803 206.306157 
L 432.376222 207.83531 
L 433.541291 209.376189 
L 434.690893 210.928643 
L 435.824913 212.492514 
L 436.943239 214.067647 
L 438.045757 215.653885 
L 439.132358 217.251068 
L 440.202933 218.859038 
L 441.257375 220.477632 
L 442.295579 222.10669 
L 443.317441 223.746048 
L 444.322858 225.395542 
L 445.31173 227.055009 
L 446.168072 228.52328 
L 447.857931 227.54764 
L 446.992939 226.064537 
L 445.994078 224.388309 
L 444.978505 222.722153 
L 443.946322 221.066235 
L 442.897631 219.420722 
L 441.832538 217.785779 
L 440.751149 216.161567 
L 439.653572 214.548251 
L 438.539917 212.945991 
L 437.410296 211.354947 
L 436.264821 209.775279 
L 435.103606 208.207144 
L 433.926769 206.6507 
L 432.734426 205.106102 
L 431.526697 203.573504 
L 430.303703 202.05306 
L 429.065566 200.544922 
L 427.81241 199.04924 
L 426.544359 197.566164 
L 425.261542 196.095843 
L 423.964086 194.638423 
L 422.65212 193.194051 
L 421.325777 191.76287 
L 419.985189 190.345024 
L 418.630489 188.940655 
L 417.261814 187.549902 
L 415.879299 186.172906 
L 414.483085 184.809803 
L 413.073309 183.460731 
L 411.650113 182.125823 
L 410.213639 180.805214 
L 408.764032 179.499035 
L 407.301435 178.207418 
L 405.825996 176.930491 
L 404.337861 175.668381 
L 402.837179 174.421216 
L 401.324102 173.18912 
L 399.798779 171.972216 
L 398.261364 170.770626 
L 396.712009 169.58447 
L 395.150871 168.413867 
L 393.578105 167.258933 
L 391.993869 166.119784 
L 390.398321 164.996534 
L 388.79162 163.889296 
L 387.692424 165.50152 
z
" clip-path="url(#p6cd76e9bbb)" style="fill: none; stroke: #000000; stroke-width: 0.5; stroke-linejoin: miter"/>
   </g>
   <g id="patch_17">
    <path d="M 446.168072 228.52328 
L 447.125575 230.201042 
L 448.066253 231.888294 
L 448.990012 233.584869 
L 449.896759 235.290596 
L 450.786403 237.005306 
L 451.658857 238.728826 
L 452.514031 240.460984 
L 453.351842 242.201607 
L 454.172205 243.950522 
L 454.975038 245.707552 
L 455.760261 247.472522 
L 456.527796 249.245257 
L 457.277564 251.025578 
L 458.009493 252.813307 
L 458.723508 254.608267 
L 459.419537 256.410276 
L 460.097513 258.219156 
L 460.757366 260.034725 
L 461.39903 261.856802 
L 462.022442 263.685204 
L 462.627539 265.519748 
L 463.214261 267.360252 
L 463.782548 269.206531 
L 464.332345 271.0584 
L 464.863596 272.915674 
L 465.376248 274.778169 
L 465.870249 276.645696 
L 466.345551 278.51807 
L 466.802106 280.395103 
L 467.239868 282.276608 
L 467.658793 284.162397 
L 468.05884 286.05228 
L 468.439968 287.946069 
L 468.802139 289.843575 
L 469.145318 291.744607 
L 469.46947 293.648977 
L 469.774562 295.556492 
L 470.060563 297.466963 
L 470.327447 299.380198 
L 470.575184 301.296007 
L 470.803752 303.214197 
L 471.013127 305.134577 
L 471.203287 307.056954 
L 471.374215 308.981137 
L 471.525893 310.906933 
L 471.658305 312.834149 
L 471.771439 314.762594 
L 471.865283 316.692073 
L 471.939829 318.622394 
L 471.995067 320.553364 
L 472.030993 322.484789 
L 472.047604 324.416478 
L 472.044897 326.348236 
L 472.022873 328.27987 
L 471.981534 330.211188 
L 471.920884 332.141995 
L 471.84093 334.0721 
L 471.741679 336.001308 
L 471.623141 337.929428 
L 471.485328 339.856266 
L 471.328254 341.781629 
L 471.151935 343.705325 
L 470.956387 345.627162 
L 470.741632 347.546948 
L 470.507689 349.46449 
L 470.254584 351.379597 
L 469.98234 353.292076 
L 469.690985 355.201738 
L 469.380549 357.108391 
L 469.051061 359.011845 
L 468.702557 360.911908 
L 468.335069 362.808391 
L 467.948635 364.701105 
L 467.543293 366.58986 
L 467.119085 368.474467 
L 466.676052 370.354737 
L 466.214239 372.230484 
L 465.733692 374.101518 
L 465.234458 375.967654 
L 464.716589 377.828704 
L 464.180135 379.684483 
L 463.625151 381.534804 
L 463.051692 383.379483 
L 462.459814 385.218335 
L 461.849578 387.051177 
L 461.221045 388.877825 
L 460.574277 390.698096 
L 459.909338 392.511808 
L 459.226297 394.318781 
L 458.695267 395.687084 
L 460.511663 396.399967 
L 461.048057 395.017843 
L 461.737998 393.192618 
L 462.409653 391.360585 
L 463.062954 389.521927 
L 463.697836 387.676828 
L 464.314236 385.825473 
L 464.912092 383.968047 
L 465.491344 382.104735 
L 466.051934 380.235723 
L 466.593806 378.3612 
L 467.116907 376.481351 
L 467.621183 374.596365 
L 468.106584 372.706431 
L 468.573062 370.811738 
L 469.02057 368.912475 
L 469.449063 367.008831 
L 469.858499 365.100998 
L 470.248837 363.189166 
L 470.620036 361.273526 
L 470.972061 359.354271 
L 471.304877 357.43159 
L 471.618449 355.505678 
L 471.912747 353.576727 
L 472.187741 351.644929 
L 472.443403 349.710478 
L 472.679708 347.773567 
L 472.896633 345.83439 
L 473.094156 343.89314 
L 473.272256 341.950012 
L 473.430917 340.005201 
L 473.570122 338.0589 
L 473.689857 336.111305 
L 473.790111 334.162609 
L 473.870873 332.213009 
L 473.932135 330.262698 
L 473.973891 328.311872 
L 473.996138 326.360726 
L 473.998872 324.409456 
L 473.982094 322.458255 
L 473.945804 320.50732 
L 473.890008 318.556845 
L 473.81471 316.607026 
L 473.719918 314.658057 
L 473.605641 312.710134 
L 473.471891 310.763451 
L 473.318681 308.818202 
L 473.146027 306.874583 
L 472.953946 304.932788 
L 472.742456 302.99301 
L 472.51158 301.055444 
L 472.261339 299.120284 
L 471.99176 297.187723 
L 471.70287 295.257955 
L 471.394696 293.331172 
L 471.06727 291.407566 
L 470.720625 289.487331 
L 470.354795 287.570659 
L 469.969817 285.657741 
L 469.56573 283.748768 
L 469.142573 281.843931 
L 468.700389 279.943421 
L 468.239223 278.047428 
L 467.75912 276.156141 
L 467.260128 274.269749 
L 466.742298 272.388442 
L 466.205681 270.512407 
L 465.650331 268.641832 
L 465.076303 266.776904 
L 464.483655 264.917809 
L 463.872446 263.064734 
L 463.242737 261.217863 
L 462.594591 259.377382 
L 461.928073 257.543474 
L 461.243249 255.716323 
L 460.540189 253.896111 
L 459.818962 252.083021 
L 459.07964 250.277233 
L 458.322298 248.478929 
L 457.547011 246.688289 
L 456.753856 244.90549 
L 455.942914 243.130712 
L 455.114264 241.364132 
L 454.267991 239.605927 
L 453.404178 237.856272 
L 452.522912 236.115343 
L 451.624281 234.383313 
L 450.708375 232.660356 
L 449.775285 230.946644 
L 448.825105 229.242348 
L 447.857931 227.54764 
L 446.168072 228.52328 
z
" clip-path="url(#p6cd76e9bbb)" style="fill: none; stroke: #000000; stroke-width: 0.5; stroke-linejoin: miter"/>
   </g>
   <g id="patch_18">
    <path d="M 458.695267 395.687084 
L 457.980534 397.481757 
L 457.24789 399.269193 
L 456.497408 401.049214 
L 455.729164 402.821641 
L 454.943235 404.586297 
L 454.139698 406.343006 
L 453.318635 408.091592 
L 452.480128 409.831879 
L 451.624259 411.563695 
L 450.751116 413.286866 
L 449.860785 415.001219 
L 448.953355 416.706583 
L 448.028917 418.402788 
L 447.087564 420.089664 
L 446.129389 421.767042 
L 445.154489 423.434755 
L 444.162961 425.092635 
L 443.154903 426.740517 
L 442.130418 428.378237 
L 441.089606 430.00563 
L 440.032574 431.622534 
L 438.959425 433.228787 
L 437.870267 434.824228 
L 436.76521 436.408698 
L 435.644364 437.982038 
L 434.507841 439.544092 
L 433.355754 441.094702 
L 432.188219 442.633714 
L 431.005352 444.160974 
L 429.807273 445.676329 
L 428.594099 447.179628 
L 427.365954 448.67072 
L 426.12296 450.149456 
L 424.86524 451.615689 
L 423.592922 453.069271 
L 422.306131 454.510058 
L 421.004997 455.937905 
L 419.68965 457.352669 
L 418.360221 458.754209 
L 417.016844 460.142386 
L 415.659652 461.517059 
L 414.288782 462.878092 
L 412.90437 464.225348 
L 411.506555 465.558693 
L 410.095476 466.877994 
L 408.671276 468.183118 
L 407.234095 469.473935 
L 405.784079 470.750316 
L 404.321371 472.012133 
L 402.846118 473.25926 
L 401.358469 474.491573 
L 399.85857 475.708947 
L 398.346573 476.911263 
L 396.822629 478.098398 
L 395.28689 479.270235 
L 393.739509 480.426656 
L 392.180642 481.567545 
L 390.610444 482.692789 
L 389.029072 483.802276 
L 387.436685 484.895893 
L 385.833441 485.973532 
L 384.219502 487.035085 
L 382.595027 488.080446 
L 380.96018 489.10951 
L 379.315125 490.122174 
L 377.660026 491.118337 
L 375.995047 492.0979 
L 374.320357 493.060765 
L 372.636121 494.006834 
L 370.94251 494.936015 
L 369.239691 495.848213 
L 367.527836 496.743337 
L 365.807115 497.621299 
L 364.077701 498.482009 
L 362.339766 499.325383 
L 360.593485 500.151336 
L 358.839032 500.959784 
L 357.076581 501.750648 
L 355.306311 502.523849 
L 353.528397 503.279308 
L 351.743018 504.01695 
L 349.950351 504.736703 
L 348.150577 505.438492 
L 346.343875 506.12225 
L 344.530426 506.787906 
L 342.710411 507.435395 
L 340.884012 508.064652 
L 339.051413 508.675614 
L 337.212795 509.268219 
L 335.368343 509.842409 
L 333.518242 510.398126 
L 331.662676 510.935314 
L 329.801831 511.45392 
L 327.935893 511.953893 
L 326.065049 512.435181 
L 324.189485 512.897737 
L 322.30939 513.341514 
L 320.424951 513.766469 
L 318.536357 514.172558 
L 316.643797 514.559741 
L 314.747459 514.92798 
L 312.847534 515.277237 
L 310.944211 515.607478 
L 309.037681 515.91867 
L 307.128135 516.210781 
L 305.215763 516.483782 
L 303.300757 516.737646 
L 301.383308 516.972347 
L 299.463607 517.187863 
L 297.541848 517.384171 
L 295.618221 517.561253 
L 293.692921 517.719089 
L 291.766137 517.857665 
L 289.838065 517.976966 
L 287.908896 518.076981 
L 285.978823 518.1577 
L 284.04804 518.219114 
L 282.116739 518.261218 
L 280.185113 518.284007 
L 278.253357 518.287478 
L 276.321662 518.271633 
L 274.390222 518.236471 
L 272.45923 518.181997 
L 270.52888 518.108217 
L 268.599364 518.015137 
L 266.670875 517.902766 
L 264.743606 517.771117 
L 262.81775 517.620202 
L 260.8935 517.450036 
L 258.971047 517.260637 
L 257.050585 517.052022 
L 255.132304 516.824214 
L 253.216398 516.577235 
L 251.303057 516.31111 
L 249.392473 516.025864 
L 247.484837 515.721528 
L 245.580339 515.39813 
L 243.679171 515.055704 
L 241.781522 514.694284 
L 239.887582 514.313906 
L 237.997541 513.914607 
L 236.111587 513.496429 
L 234.229908 513.059412 
L 232.352694 512.603601 
L 230.480132 512.12904 
L 228.612409 511.635778 
L 226.749713 511.123864 
L 224.892228 510.593349 
L 223.040141 510.044285 
L 221.193637 509.476729 
L 219.352901 508.890736 
L 217.518117 508.286366 
L 215.689469 507.663678 
L 213.867138 507.022735 
L 212.051308 506.363601 
L 210.24216 505.686342 
L 208.439875 504.991026 
L 206.644633 504.277722 
L 204.856614 503.546501 
L 203.075996 502.797437 
L 201.302958 502.030605 
L 199.537676 501.246081 
L 197.780328 500.443944 
L 196.031089 499.624274 
L 194.290135 498.787152 
L 192.557638 497.932663 
L 190.833772 497.060892 
L 189.118711 496.171927 
L 187.412624 495.265855 
L 185.715684 494.342768 
L 184.028059 493.402759 
L 182.349918 492.44592 
L 180.68143 491.472348 
L 179.02276 490.48214 
L 177.374076 489.475395 
L 175.735541 488.452214 
L 174.107319 487.412699 
L 172.489575 486.356954 
L 170.882468 485.285085 
L 169.28616 484.197198 
L 167.70081 483.093403 
L 166.126578 481.97381 
L 164.56362 480.838531 
L 163.012093 479.68768 
L 161.472151 478.521371 
L 159.94395 477.339721 
L 158.427641 476.142848 
L 156.923377 474.930872 
L 155.431307 473.703915 
L 153.951582 472.462098 
L 152.484348 471.205547 
L 151.029753 469.934386 
L 149.587942 468.648743 
L 148.159059 467.348747 
L 146.743248 466.034527 
L 145.340649 464.706215 
L 143.951404 463.363943 
L 142.57565 462.007847 
L 141.213526 460.63806 
L 139.865168 459.254722 
L 138.53071 457.857969 
L 137.210286 456.447941 
L 135.904028 455.02478 
L 134.612067 453.588628 
L 133.334532 452.139629 
L 132.07155 450.677926 
L 130.823249 449.203667 
L 129.589752 447.716999 
L 128.371183 446.218071 
L 127.167665 444.707032 
L 125.979316 443.184034 
L 124.806257 441.649228 
L 123.648604 440.102769 
L 122.506473 438.544811 
L 121.379979 436.975509 
L 120.269234 435.395021 
L 119.174349 433.803505 
L 118.095433 432.20112 
L 117.032596 430.588027 
L 115.985942 428.964385 
L 114.955576 427.330358 
L 113.941602 425.68611 
L 112.944121 424.031804 
L 111.963232 422.367606 
L 111.576052 421.700073 
L 109.886193 422.675713 
L 110.277285 423.34999 
L 111.268081 425.030997 
L 112.275638 426.702013 
L 113.299854 428.36287 
L 114.340627 430.013402 
L 115.397854 431.653444 
L 116.471427 433.282832 
L 117.561241 434.901403 
L 118.667185 436.508995 
L 119.78915 438.105447 
L 120.927023 439.6906 
L 122.08069 441.264295 
L 123.250036 442.826375 
L 124.434945 444.376684 
L 125.635297 445.915066 
L 126.850972 447.441368 
L 128.08185 448.955437 
L 129.327806 450.457122 
L 130.588717 451.946272 
L 131.864456 453.422739 
L 133.154896 454.886375 
L 134.459907 456.337034 
L 135.779359 457.77457 
L 137.11312 459.19884 
L 138.461058 460.609702 
L 139.823036 462.007014 
L 141.198919 463.390636 
L 142.588569 464.760431 
L 143.991847 466.116261 
L 145.408613 467.45799 
L 146.838726 468.785485 
L 148.282042 470.098613 
L 149.738416 471.397242 
L 151.207704 472.681243 
L 152.689759 473.950486 
L 154.184431 475.204847 
L 155.691572 476.444198 
L 157.211031 477.668415 
L 158.742656 478.877378 
L 160.286294 480.070963 
L 161.84179 481.249053 
L 163.408989 482.41153 
L 164.987735 483.558276 
L 166.577868 484.689178 
L 168.179231 485.804123 
L 169.791664 486.902998 
L 171.415004 487.985694 
L 173.04909 489.052103 
L 174.693758 490.102119 
L 176.348844 491.135635 
L 178.014182 492.152549 
L 179.689605 493.152759 
L 181.374947 494.136165 
L 183.070039 495.102669 
L 184.77471 496.052173 
L 186.488792 496.984584 
L 188.212111 497.899808 
L 189.944497 498.797753 
L 191.685775 499.67833 
L 193.435772 500.54145 
L 195.194312 501.387027 
L 196.96122 502.214977 
L 198.736319 503.025217 
L 200.519431 503.817665 
L 202.310379 504.592243 
L 204.108983 505.348873 
L 205.915063 506.08748 
L 207.728439 506.807989 
L 209.548929 507.510328 
L 211.376351 508.194428 
L 213.210523 508.86022 
L 215.051261 509.507637 
L 216.89838 510.136615 
L 218.751698 510.74709 
L 220.611027 511.339002 
L 222.476182 511.912292 
L 224.346977 512.466901 
L 226.223224 513.002775 
L 228.104736 513.51986 
L 229.991325 514.018105 
L 231.882802 514.497459 
L 233.778978 514.957874 
L 235.679663 515.399305 
L 237.584667 515.821708 
L 239.4938 516.225039 
L 241.40687 516.60926 
L 243.323687 516.974331 
L 245.244059 517.320216 
L 247.167794 517.64688 
L 249.094699 517.95429 
L 251.024582 518.242417 
L 252.95725 518.511231 
L 254.892509 518.760705 
L 256.830166 518.990814 
L 258.770027 519.201535 
L 260.711898 519.392848 
L 262.655586 519.564732 
L 264.600895 519.717172 
L 266.547631 519.850151 
L 268.495599 519.963656 
L 270.444605 520.057677 
L 272.394454 520.132203 
L 274.344951 520.187227 
L 276.2959 520.222743 
L 278.247107 520.238749 
L 280.198377 520.235242 
L 282.149513 520.212223 
L 284.100322 520.169694 
L 286.050609 520.10766 
L 288.000177 520.026126 
L 289.948833 519.925101 
L 291.896381 519.804594 
L 293.842626 519.664618 
L 295.787375 519.505188 
L 297.730432 519.326318 
L 299.671603 519.128027 
L 301.610694 518.910334 
L 303.547511 518.673262 
L 305.481861 518.416833 
L 307.41355 518.141074 
L 309.342385 517.846013 
L 311.268172 517.531678 
L 313.190721 517.198102 
L 315.109837 516.845316 
L 317.02533 516.473358 
L 318.937007 516.082264 
L 320.844678 515.672073 
L 322.748151 515.242825 
L 324.647237 514.794565 
L 326.541746 514.327337 
L 328.431487 513.841188 
L 330.316273 513.336165 
L 332.195914 512.812321 
L 334.070223 512.269706 
L 335.939013 511.708376 
L 337.802095 511.128386 
L 339.659285 510.529795 
L 341.510396 509.912662 
L 343.355243 509.277049 
L 345.193642 508.62302 
L 347.025409 507.950639 
L 348.85036 507.259975 
L 350.668314 506.551097 
L 352.479088 505.824074 
L 354.282502 505.078981 
L 356.078374 504.315891 
L 357.866526 503.53488 
L 359.646779 502.736028 
L 361.418954 501.919413 
L 363.182875 501.085117 
L 364.938364 500.233225 
L 366.685247 499.36382 
L 368.423349 498.47699 
L 370.152496 497.572824 
L 371.872514 496.651412 
L 373.583233 495.712846 
L 375.284481 494.75722 
L 376.976087 493.78463 
L 378.657884 492.795172 
L 380.329702 491.788947 
L 381.991374 490.766053 
L 383.642734 489.726595 
L 385.283617 488.670675 
L 386.913859 487.598399 
L 388.533297 486.509875 
L 390.141769 485.405211 
L 391.739115 484.284518 
L 393.325173 483.147908 
L 394.899787 481.995494 
L 396.462797 480.827392 
L 398.014049 479.643718 
L 399.553387 478.444592 
L 401.080656 477.230132 
L 402.595705 476.000461 
L 404.098382 474.7557 
L 405.588536 473.495976 
L 407.066018 472.221413 
L 408.530681 470.93214 
L 409.982379 469.628284 
L 411.420965 468.309977 
L 412.846297 466.97735 
L 414.258232 465.630537 
L 415.656627 464.269672 
L 417.041345 462.894891 
L 418.412246 461.506332 
L 419.769193 460.104134 
L 421.11205 458.688437 
L 422.440683 457.259382 
L 423.75496 455.817112 
L 425.054749 454.361772 
L 426.339919 452.893507 
L 427.610343 451.412464 
L 428.865893 449.918791 
L 430.106443 448.412637 
L 431.331871 446.894154 
L 432.542052 445.363492 
L 433.736867 443.820805 
L 434.916195 442.266248 
L 436.079919 440.699975 
L 437.227923 439.122143 
L 438.360091 437.53291 
L 439.47631 435.932435 
L 440.576469 434.320879 
L 441.660457 432.698401 
L 442.728167 431.065165 
L 443.779492 429.421334 
L 444.814326 427.767071 
L 445.832566 426.102544 
L 446.834109 424.427917 
L 447.818857 422.743359 
L 448.786711 421.049037 
L 449.737573 419.345122 
L 450.671348 417.631784 
L 451.587944 415.909194 
L 452.487268 414.177524 
L 453.369231 412.436948 
L 454.233745 410.687639 
L 455.080722 408.929773 
L 455.910079 407.163524 
L 456.721731 405.389071 
L 457.5156 403.60659 
L 458.291604 401.81626 
L 459.049666 400.018259 
L 459.78971 398.212768 
L 460.511663 396.399967 
L 458.695267 395.687084 
z
" clip-path="url(#p6cd76e9bbb)" style="fill: none; stroke: #000000; stroke-width: 0.5; stroke-linejoin: miter"/>
   </g>
   <g id="patch_19">
    <path d="M 111.576052 421.700073 
L 110.618549 420.022311 
L 109.677871 418.335059 
L 108.754112 416.638484 
L 107.847365 414.932756 
L 106.957721 413.218047 
L 106.085267 411.494527 
L 105.230092 409.762368 
L 104.392282 408.021745 
L 103.571919 406.272831 
L 102.769085 404.515801 
L 101.983863 402.75083 
L 101.216328 400.978096 
L 100.466559 399.197775 
L 99.734631 397.410045 
L 99.048857 395.687084 
L 97.232461 396.399967 
L 97.925162 398.140332 
L 98.664484 399.946119 
L 99.421826 401.744423 
L 100.197113 403.535064 
L 100.990268 405.317863 
L 101.80121 407.092641 
L 102.62986 408.859221 
L 103.476133 410.617426 
L 104.339946 412.367081 
L 105.221212 414.10801 
L 106.119843 415.84004 
L 107.035749 417.562997 
L 107.968839 419.276709 
L 108.919018 420.981004 
L 109.886193 422.675713 
L 111.576052 421.700073 
z
" clip-path="url(#p6cd76e9bbb)" style="fill: none; stroke: #000000; stroke-width: 0.5; stroke-linejoin: miter"/>
   </g>
   <g id="patch_20">
    <path d="M 99.048857 395.687084 
L 98.352105 393.885353 
L 97.673406 392.076745 
L 97.012826 390.26144 
L 96.370432 388.439621 
L 95.746289 386.611468 
L 95.140457 384.777166 
L 94.552999 382.936898 
L 93.983972 381.090846 
L 93.433434 379.239197 
L 92.90144 377.382136 
L 92.388042 375.519847 
L 91.893293 373.652517 
L 91.417242 371.780334 
L 90.959935 369.903484 
L 90.52142 368.022154 
L 90.10174 366.136533 
L 89.700937 364.24681 
L 89.31905 362.353174 
L 88.956119 360.455813 
L 88.61218 358.554918 
L 88.287266 356.650679 
L 87.98141 354.743286 
L 87.694643 352.83293 
L 87.426994 350.919801 
L 87.178489 349.004092 
L 86.949154 347.085994 
L 86.73901 345.165698 
L 86.54808 343.243397 
L 86.376382 341.319283 
L 86.235431 339.547796 
L 84.289606 339.693616 
L 84.431981 341.482996 
L 84.605414 343.426546 
L 84.798272 345.368264 
L 85.010539 347.307957 
L 85.242191 349.24543 
L 85.493206 351.18049 
L 85.763558 353.112942 
L 86.053222 355.042595 
L 86.362167 356.969255 
L 86.690363 358.892729 
L 87.037776 360.812825 
L 87.404374 362.729351 
L 87.790117 364.642115 
L 88.194969 366.550926 
L 88.618889 368.455593 
L 89.061833 370.355926 
L 89.523758 372.251734 
L 90.004619 374.142829 
L 90.504365 376.02902 
L 91.022948 377.91012 
L 91.560316 379.78594 
L 92.116415 381.656293 
L 92.69119 383.520991 
L 93.284582 385.379848 
L 93.896533 387.232678 
L 94.526982 389.079297 
L 95.175864 390.919519 
L 95.843117 392.75316 
L 96.528671 394.580036 
L 97.232461 396.399967 
L 99.048857 395.687084 
z
" clip-path="url(#p6cd76e9bbb)" style="fill: none; stroke: #000000; stroke-width: 0.5; stroke-linejoin: miter"/>
   </g>
   <g id="patch_21">
    <path d="M 86.235431 339.547796 
L 86.100704 337.62074 
L 85.985253 335.692433 
L 85.889092 333.763068 
L 85.812229 331.832838 
L 85.754671 329.901936 
L 85.716425 327.970555 
L 85.697494 326.038888 
L 85.697881 324.107128 
L 85.717585 322.175468 
L 85.756604 320.244103 
L 85.814935 318.313224 
L 85.892571 316.383024 
L 85.989505 314.453698 
L 86.105727 312.525438 
L 86.241226 310.598436 
L 86.395987 308.672885 
L 86.569996 306.748978 
L 86.763235 304.826908 
L 86.975684 302.906866 
L 87.207324 300.989044 
L 87.458129 299.073635 
L 87.728076 297.160829 
L 88.017137 295.250819 
L 88.325283 293.343794 
L 88.652484 291.439947 
L 88.998706 289.539466 
L 89.363916 287.642543 
L 89.748076 285.749367 
L 90.151149 283.860126 
L 90.538615 282.125796 
L 88.636257 281.691595 
L 88.244877 283.443444 
L 87.837733 285.351768 
L 87.449692 287.264067 
L 87.080794 289.180151 
L 86.731074 291.099828 
L 86.400568 293.022907 
L 86.089309 294.949194 
L 85.797328 296.878498 
L 85.524655 298.810624 
L 85.271316 300.745381 
L 85.037337 302.682575 
L 84.822742 304.622011 
L 84.627551 306.563497 
L 84.451784 308.506837 
L 84.295459 310.451837 
L 84.158592 312.398304 
L 84.041196 314.346042 
L 83.943283 316.294856 
L 83.864863 318.244552 
L 83.805943 320.194935 
L 83.76653 322.14581 
L 83.746627 324.096981 
L 83.746236 326.048253 
L 83.765358 327.999432 
L 83.80399 329.950322 
L 83.862129 331.900729 
L 83.939769 333.850456 
L 84.036902 335.79931 
L 84.153518 337.747094 
L 84.289606 339.693616 
L 86.235431 339.547796 
z
" clip-path="url(#p6cd76e9bbb)" style="fill: none; stroke: #000000; stroke-width: 0.5; stroke-linejoin: miter"/>
   </g>
   <g id="patch_22">
    <path d="M 90.538615 282.125796 
L 90.977883 280.244642 
L 91.43594 278.367975 
L 91.912741 276.495982 
L 92.408238 274.628851 
L 92.922381 272.766768 
L 93.455119 270.909919 
L 94.006398 269.058491 
L 94.576164 267.212668 
L 95.164359 265.372634 
L 95.770925 263.538575 
L 96.3958 261.710673 
L 97.038924 259.88911 
L 97.70023 258.07407 
L 98.379653 256.265734 
L 99.077126 254.464282 
L 99.792578 252.669895 
L 100.525937 250.882752 
L 101.277131 249.103032 
L 102.046085 247.330913 
L 102.832721 245.566572 
L 103.63696 243.810185 
L 104.458724 242.061928 
L 105.297928 240.321976 
L 106.154489 238.590503 
L 107.028322 236.867682 
L 107.91934 235.153686 
L 108.827452 233.448685 
L 109.752569 231.75285 
L 110.694598 230.066351 
L 111.653444 228.389357 
L 112.629012 226.722035 
L 113.621204 225.064551 
L 114.629921 223.417073 
L 115.655062 221.779763 
L 116.696525 220.152787 
L 117.754205 218.536307 
L 118.827997 216.930484 
L 119.917793 215.335479 
L 121.023484 213.751451 
L 122.14496 212.17856 
L 123.282109 210.616961 
L 124.434816 209.066813 
L 125.602967 207.528268 
L 126.786445 206.001482 
L 127.985131 204.486606 
L 129.198906 202.983793 
L 130.427648 201.493193 
L 131.671235 200.014955 
L 132.929541 198.549226 
L 134.202442 197.096153 
L 135.489809 195.655882 
L 136.791514 194.228556 
L 138.107428 192.814318 
L 139.437417 191.41331 
L 140.78135 190.025672 
L 142.139092 188.651542 
L 143.510508 187.291058 
L 144.895459 185.944356 
L 146.293808 184.61157 
L 147.478474 183.503067 
L 146.151266 182.072677 
L 144.954633 183.192377 
L 143.54216 184.538625 
L 142.143219 185.89893 
L 140.757951 187.273156 
L 139.386495 188.661166 
L 138.028987 190.062821 
L 136.685563 191.477981 
L 135.356357 192.906504 
L 134.041503 194.348247 
L 132.741132 195.803067 
L 131.455374 197.270817 
L 130.184358 198.751351 
L 128.92821 200.244522 
L 127.687056 201.750178 
L 126.461021 203.268171 
L 125.250227 204.798349 
L 124.054795 206.340557 
L 122.874844 207.894642 
L 121.710493 209.460449 
L 120.561858 211.037821 
L 119.429054 212.626601 
L 118.312194 214.226628 
L 117.21139 215.837744 
L 116.126752 217.459788 
L 115.058388 219.092596 
L 114.006405 220.736007 
L 112.970909 222.389855 
L 111.952003 224.053974 
L 110.949789 225.7282 
L 109.964367 227.412364 
L 108.995835 229.106298 
L 108.044291 230.809832 
L 107.10983 232.522796 
L 106.192545 234.245019 
L 105.292527 235.976329 
L 104.409867 237.716552 
L 103.544654 239.465515 
L 102.696973 241.223042 
L 101.866909 242.988958 
L 101.054546 244.763086 
L 100.259964 246.545249 
L 99.483243 248.335268 
L 98.724461 250.132965 
L 97.983694 251.93816 
L 97.261015 253.750672 
L 96.556498 255.570321 
L 95.870211 257.396923 
L 95.202225 259.230297 
L 94.552606 261.070258 
L 93.921418 262.916624 
L 93.308726 264.76921 
L 92.714589 266.627829 
L 92.139068 268.492297 
L 91.58222 270.362427 
L 91.044101 272.238031 
L 90.524765 274.118923 
L 90.024263 276.004915 
L 89.542646 277.895816 
L 89.079962 279.79144 
L 88.636257 281.691595 
L 90.538615 282.125796 
z
" clip-path="url(#p6cd76e9bbb)" style="fill: none; stroke: #000000; stroke-width: 0.5; stroke-linejoin: miter"/>
   </g>
   <g id="patch_23">
    <path d="M 147.478474 183.503067 
L 148.901106 182.196233 
L 150.336735 180.903691 
L 151.785218 179.625569 
L 153.246409 178.361996 
L 154.720162 177.113098 
L 156.206331 175.879 
L 157.704766 174.659825 
L 159.215318 173.455694 
L 160.737835 172.26673 
L 162.272166 171.093049 
L 163.818156 169.93477 
L 165.375652 168.792009 
L 166.944498 167.66488 
L 168.524536 166.553495 
L 170.115608 165.457966 
L 171.717557 164.378403 
L 173.33022 163.314912 
L 174.953438 162.267601 
L 176.587047 161.236574 
L 178.230885 160.221935 
L 179.884787 159.223784 
L 181.548588 158.242222 
L 183.222121 157.277347 
L 184.905219 156.329255 
L 186.597713 155.398042 
L 188.299435 154.483799 
L 190.010214 153.586619 
L 191.729879 152.706592 
L 193.458258 151.843805 
L 195.055793 151.0654 
L 194.209164 149.307357 
L 192.595492 150.093624 
L 190.849655 150.965126 
L 189.112619 151.854043 
L 187.38456 152.760285 
L 185.665649 153.683762 
L 183.956059 154.624382 
L 182.25596 155.582051 
L 180.565523 156.556672 
L 178.884916 157.548149 
L 177.214308 158.556382 
L 175.553866 159.58127 
L 173.903755 160.622711 
L 172.264141 161.680601 
L 170.635188 162.754834 
L 169.017058 163.845303 
L 167.409914 164.951898 
L 165.813916 166.074508 
L 164.229224 167.213023 
L 162.655996 168.367327 
L 161.094389 169.537305 
L 159.54456 170.722841 
L 158.006664 171.923816 
L 156.480854 173.140109 
L 154.967283 174.371599 
L 153.466103 175.618163 
L 151.977463 176.879676 
L 150.501512 178.156013 
L 149.038398 179.447045 
L 147.588268 180.752643 
L 146.151266 182.072677 
L 147.478474 183.503067 
z
" clip-path="url(#p6cd76e9bbb)" style="fill: none; stroke: #000000; stroke-width: 0.5; stroke-linejoin: miter"/>
   </g>
   <g id="patch_24">
    <path d="M 195.055793 151.0654 
L 196.800417 150.235954 
L 198.553249 149.423994 
L 200.314112 148.629604 
L 202.082832 147.852862 
L 203.85923 147.093845 
L 205.643129 146.35263 
L 207.434351 145.629291 
L 209.232717 144.9239 
L 211.038046 144.236527 
L 212.850159 143.567242 
L 214.668875 142.916111 
L 216.49401 142.2832 
L 218.325383 141.668571 
L 220.162811 141.072286 
L 222.00611 140.494405 
L 223.855095 139.934986 
L 225.709582 139.394084 
L 227.569385 138.871754 
L 229.434318 138.368048 
L 231.304195 137.883016 
L 233.178829 137.416706 
L 235.058032 136.969166 
L 236.941616 136.54044 
L 238.829394 136.130571 
L 240.721175 135.7396 
L 242.616772 135.367566 
L 244.515994 135.014507 
L 246.418652 134.680457 
L 248.324555 134.365449 
L 250.080555 134.092509 
L 249.789732 132.163022 
L 248.015995 132.43872 
L 246.09084 132.756909 
L 244.168963 133.094333 
L 242.250557 133.450959 
L 240.335813 133.826751 
L 238.424922 134.221671 
L 236.518076 134.63568 
L 234.615466 135.068737 
L 232.717281 135.520798 
L 230.823712 135.991817 
L 228.934947 136.481749 
L 227.051176 136.990543 
L 225.172587 137.518149 
L 223.299368 138.064514 
L 221.431706 138.629584 
L 219.569788 139.213302 
L 217.713801 139.81561 
L 215.863929 140.436447 
L 214.020357 141.075752 
L 212.183271 141.73346 
L 210.352854 142.409505 
L 208.529289 143.103821 
L 206.712758 143.816337 
L 204.903443 144.546983 
L 203.101524 145.295685 
L 201.307183 146.062369 
L 199.520598 146.846957 
L 197.741948 147.649371 
L 195.971411 148.469532 
L 194.209164 149.307357 
L 195.055793 151.0654 
z
" clip-path="url(#p6cd76e9bbb)" style="fill: none; stroke: #000000; stroke-width: 0.5; stroke-linejoin: miter"/>
   </g>
   <g id="patch_25">
    <path d="M 250.080555 134.092509 
L 251.992154 133.814149 
L 253.906442 133.554919 
L 255.823226 133.314845 
L 257.742314 133.09395 
L 259.663516 132.892257 
L 261.586639 132.709786 
L 263.51149 132.546555 
L 265.437877 132.40258 
L 267.365608 132.277875 
L 269.294489 132.172454 
L 271.224328 132.086327 
L 273.154931 132.019502 
L 275.086107 131.971986 
L 277.017661 131.943784 
L 278.872062 131.934884 
L 278.872062 129.983603 
L 276.998929 129.992594 
L 275.047865 130.02108 
L 273.097183 130.069076 
L 271.147078 130.136576 
L 269.197746 130.223573 
L 267.249381 130.330059 
L 265.302178 130.456023 
L 263.356333 130.601452 
L 261.412038 130.766332 
L 259.46949 130.950647 
L 257.528883 131.154377 
L 255.590409 131.377503 
L 253.654264 131.620003 
L 251.72064 131.881851 
L 249.789732 132.163022 
L 250.080555 134.092509 
z
" clip-path="url(#p6cd76e9bbb)" style="fill: none; stroke: #000000; stroke-width: 0.5; stroke-linejoin: miter"/>
   </g>
   <g id="text_1">
    <text style="font: 3px 'DejaVu Sans', 'Bitstream Vera Sans', 'Computer Modern Sans Serif', 'Lucida Grande', 'Verdana', 'Geneva', 'Lucid', 'Arial', 'Helvetica', 'Avant Garde', sans-serif; text-anchor: start" x="323.837533" y="133.227135" transform="rotate(-77.142857 323.837533 133.227135)">American University of Europe</text>
   </g>
   <g id="text_2">
    <text style="font: 3px 'DejaVu Sans', 'Bitstream Vera Sans', 'Computer Modern Sans Serif', 'Lucida Grande', 'Verdana', 'Geneva', 'Lucid', 'Arial', 'Helvetica', 'Avant Garde', sans-serif; text-anchor: start" x="378.398805" y="155.005832" transform="rotate(-60 378.398805 155.005832)">International Vision University</text>
   </g>
   <g id="text_3">
    <text style="font: 3px 'DejaVu Sans', 'Bitstream Vera Sans', 'Computer Modern Sans Serif', 'Lucida Grande', 'Verdana', 'Geneva', 'Lucid', 'Arial', 'Helvetica', 'Avant Garde', sans-serif; text-anchor: start" x="424.116689" y="191.89918" transform="rotate(-42.857143 424.116689 191.89918)">University American College Skopje</text>
   </g>
   <g id="text_4">
    <text style="font: 3px 'DejaVu Sans', 'Bitstream Vera Sans', 'Computer Modern Sans Serif', 'Lucida Grande', 'Verdana', 'Geneva', 'Lucid', 'Arial', 'Helvetica', 'Avant Garde', sans-serif; text-anchor: start" x="475.485517" y="311.520496" transform="rotate(-4.285714 475.485517 311.520496)">South East European University</text>
   </g>
   <g id="text_5">
    <text style="font: 3px 'DejaVu Sans', 'Bitstream Vera Sans', 'Computer Modern Sans Serif', 'Lucida Grande', 'Verdana', 'Geneva', 'Lucid', 'Arial', 'Helvetica', 'Avant Garde', sans-serif; text-anchor: start" x="292.463242" y="521.725132" transform="rotate(-274.285714 292.463242 521.725132)">Saints Cyril and Methodius University of Skopje</text>
   </g>
   <g id="text_6">
    <text style="font: 3px 'DejaVu Sans', 'Bitstream Vera Sans', 'Computer Modern Sans Serif', 'Lucida Grande', 'Verdana', 'Geneva', 'Lucid', 'Arial', 'Helvetica', 'Avant Garde', sans-serif; text-anchor: end" x="101.804225" y="411.648097" transform="rotate(-25.714286 101.804225 411.648097)">University St. Clement of Ohrid</text>
   </g>
   <g id="text_7">
    <text style="font: 3px 'DejaVu Sans', 'Bitstream Vera Sans', 'Computer Modern Sans Serif', 'Lucida Grande', 'Verdana', 'Geneva', 'Lucid', 'Arial', 'Helvetica', 'Avant Garde', sans-serif; text-anchor: end" x="86.98752" y="370.077148" transform="rotate(-12.857143 86.98752 370.077148)">State University of Tetova</text>
   </g>
   <g id="text_8">
    <text style="font: 3px 'DejaVu Sans', 'Bitstream Vera Sans', 'Computer Modern Sans Serif', 'Lucida Grande', 'Verdana', 'Geneva', 'Lucid', 'Arial', 'Helvetica', 'Avant Garde', sans-serif; text-anchor: end" x="82.258607" y="311.520496" transform="rotate(-355.714286 82.258607 311.520496)">International Balkan University</text>
   </g>
   <g id="text_9">
    <text style="font: 3px 'DejaVu Sans', 'Bitstream Vera Sans', 'Computer Modern Sans Serif', 'Lucida Grande', 'Verdana', 'Geneva', 'Lucid', 'Arial', 'Helvetica', 'Avant Garde', sans-serif; text-anchor: end" x="107.626452" y="227.559065" transform="rotate(-330 107.626452 227.559065)">Goce Delcev University</text>
   </g>
   <g id="text_10">
    <text style="font: 3px 'DejaVu Sans', 'Bitstream Vera Sans', 'Computer Modern Sans Serif', 'Lucida Grande', 'Verdana', 'Geneva', 'Lucid', 'Arial', 'Helvetica', 'Avant Garde', sans-serif; text-anchor: end" x="166.91159" y="162.919125" transform="rotate(-304.285714 166.91159 162.919125)">Macedonian Academy of Sciences and Arts</text>
   </g>
   <g id="text_11">
    <text style="font: 3px 'DejaVu Sans', 'Bitstream Vera Sans', 'Computer Modern Sans Serif', 'Lucida Grande', 'Verdana', 'Geneva', 'Lucid', 'Arial', 'Helvetica', 'Avant Garde', sans-serif; text-anchor: end" x="219.692773" y="137.123957" transform="rotate(-287.142857 219.692773 137.123957)">University of Information Science and Technology St. Paul The Apostle</text>
   </g>
   <g id="text_12">
    <text style="font: 3px 'DejaVu Sans', 'Bitstream Vera Sans', 'Computer Modern Sans Serif', 'Lucida Grande', 'Verdana', 'Geneva', 'Lucid', 'Arial', 'Helvetica', 'Avant Garde', sans-serif; text-anchor: end" x="263.007725" y="128.668571" transform="rotate(-274.285714 263.007725 128.668571)">European University</text>
   </g>
  </g>
 </g>
 <defs>
  <clipPath id="p6cd76e9bbb">
   <path d="M 483.756539 325.111676 
C 483.756539 298.206493 478.456805 271.562929 468.160637 246.705781 
C 457.864469 221.848633 442.772102 199.26131 423.747265 180.236473 
C 404.722428 161.211636 382.135105 146.119269 357.277957 135.823101 
C 332.420809 125.526933 305.777245 120.227199 278.872062 120.227199 
C 251.966879 120.227199 225.323315 125.526933 200.466167 135.823101 
C 175.609019 146.119269 153.021696 161.211636 133.996859 180.236473 
C 114.972021 199.26131 99.879655 221.848633 89.583487 246.705781 
C 79.287319 271.562929 73.987585 298.206493 73.987585 325.111676 
C 73.987585 352.016859 79.287319 378.660423 89.583487 403.517571 
C 99.879655 428.374719 114.972021 450.962042 133.996859 469.98688 
C 153.021696 489.011717 175.609019 504.104084 200.466167 514.400251 
C 225.323315 524.696419 251.966879 529.996154 278.872062 529.996154 
C 305.777245 529.996154 332.420809 524.696419 357.277957 514.400251 
C 382.135105 504.104084 404.722428 489.011717 423.747265 469.98688 
C 442.772102 450.962042 457.864469 428.374719 468.160637 403.517571 
C 478.456805 378.660423 483.756539 352.016859 483.756539 325.111676 
M 278.872062 325.111676 
C 278.872062 325.111676 278.872062 325.111676 278.872062 325.111676 
C 278.872062 325.111676 278.872062 325.111676 278.872062 325.111676 
C 278.872062 325.111676 278.872062 325.111676 278.872062 325.111676 
C 278.872062 325.111676 278.872062 325.111676 278.872062 325.111676 
C 278.872062 325.111676 278.872062 325.111676 278.872062 325.111676 
C 278.872062 325.111676 278.872062 325.111676 278.872062 325.111676 
C 278.872062 325.111676 278.872062 325.111676 278.872062 325.111676 
C 278.872062 325.111676 278.872062 325.111676 278.872062 325.111676 
C 278.872062 325.111676 278.872062 325.111676 278.872062 325.111676 
C 278.872062 325.111676 278.872062 325.111676 278.872062 325.111676 
C 278.872062 325.111676 278.872062 325.111676 278.872062 325.111676 
C 278.872062 325.111676 278.872062 325.111676 278.872062 325.111676 
C 278.872062 325.111676 278.872062 325.111676 278.872062 325.111676 
C 278.872062 325.111676 278.872062 325.111676 278.872062 325.111676 
C 278.872062 325.111676 278.872062 325.111676 278.872062 325.111676 
C 278.872062 325.111676 278.872062 325.111676 278.872062 325.111676 
z
"/>
  </clipPath>
 </defs>
</svg>
