<?xml version="1.0" encoding="utf-8" standalone="no"?>
<!DOCTYPE svg PUBLIC "-//W3C//DTD SVG 1.1//EN"
  "http://www.w3.org/Graphics/SVG/1.1/DTD/svg11.dtd">
<svg xmlns:xlink="http://www.w3.org/1999/xlink" width="548.891743pt" height="630.885859pt" viewBox="0 0 548.891743 630.885859" xmlns="http://www.w3.org/2000/svg" version="1.1">
 <metadata>
  <rdf:RDF xmlns:dc="http://purl.org/dc/elements/1.1/" xmlns:cc="http://creativecommons.org/ns#" xmlns:rdf="http://www.w3.org/1999/02/22-rdf-syntax-ns#">
   <cc:Work>
    <dc:type rdf:resource="http://purl.org/dc/dcmitype/StillImage"/>
    <dc:date>2024-11-16T03:47:50.549142</dc:date>
    <dc:format>image/svg+xml</dc:format>
    <dc:creator>
     <cc:Agent>
      <dc:title>Matplotlib v3.8.4, https://matplotlib.org/</dc:title>
     </cc:Agent>
    </dc:creator>
   </cc:Work>
  </rdf:RDF>
 </metadata>
 <defs>
  <style type="text/css">*{stroke-linejoin: round; stroke-linecap: butt}</style>
 </defs>
 <g id="figure_1">
  <g id="patch_1">
   <path d="M 0 630.885859 
L 548.891743 630.885859 
L 548.891743 0 
L 0 0 
z
" style="fill: #ffffff"/>
  </g>
  <g id="axes_1">
   <g id="patch_2">
    <path d="M 260.066673 126.460625 
L 261.734046 126.468962 
L 263.401253 126.493972 
L 265.068127 126.535653 
L 266.7345 126.594 
L 268.400207 126.669007 
L 270.06508 126.760667 
L 271.728953 126.868972 
L 273.39166 126.993909 
L 275.053035 127.135467 
L 276.712911 127.293631 
L 278.371123 127.468386 
L 280.027504 127.659714 
L 281.681889 127.867596 
L 283.334112 128.092011 
L 284.984009 128.332937 
L 286.631414 128.59035 
L 288.276162 128.864223 
L 289.91809 129.15453 
L 291.557032 129.461242 
L 293.192826 129.784327 
L 294.825307 130.123754 
L 296.454312 130.479488 
L 298.079678 130.851494 
L 299.701243 131.239736 
L 301.318845 131.644173 
L 302.932322 132.064765 
L 304.541511 132.501471 
L 306.146254 132.954247 
L 307.746389 133.423048 
L 309.341755 133.907826 
L 310.932194 134.408533 
L 311.592212 134.621469 
L 312.112672 133.019658 
L 311.445988 132.804571 
L 309.839483 132.298806 
L 308.228002 131.809131 
L 306.611704 131.335595 
L 304.990752 130.878246 
L 303.365308 130.437129 
L 301.735534 130.012288 
L 300.101593 129.603765 
L 298.463648 129.211603 
L 296.821864 128.835839 
L 295.176404 128.476511 
L 293.527434 128.133656 
L 291.875117 127.807307 
L 290.219619 127.497498 
L 288.561107 127.204258 
L 286.899744 126.927618 
L 285.235699 126.667606 
L 283.569137 126.424246 
L 281.900224 126.197564 
L 280.229128 125.987582 
L 278.556016 125.794322 
L 276.881055 125.617802 
L 275.204412 125.45804 
L 273.526256 125.315052 
L 271.846754 125.188853 
L 270.166074 125.079454 
L 268.484384 124.986868 
L 266.801852 124.911103 
L 265.118646 124.852167 
L 263.434936 124.810065 
L 261.750888 124.784802 
L 260.066673 124.776381 
z
" clip-path="url(#pf97404d900)" style="fill: #000080"/>
   </g>
   <g id="patch_3">
    <path d="M 311.592212 134.621469 
L 313.175402 135.144645 
L 314.753281 135.683626 
L 316.325692 136.238359 
L 317.892477 136.808787 
L 319.45348 137.394855 
L 321.008544 137.996504 
L 322.557514 138.613672 
L 324.100234 139.2463 
L 325.636552 139.894322 
L 327.166312 140.557675 
L 328.689363 141.236293 
L 330.205551 141.930106 
L 331.714726 142.639047 
L 333.216735 143.363044 
L 334.71143 144.102024 
L 336.198661 144.855914 
L 337.678278 145.624638 
L 339.150134 146.40812 
L 340.614082 147.206281 
L 342.069975 148.019041 
L 343.517668 148.84632 
L 344.957016 149.688034 
L 346.387875 150.544098 
L 347.810102 151.414429 
L 349.223555 152.298938 
L 350.628092 153.197537 
L 352.023573 154.110136 
L 353.409858 155.036644 
L 354.786809 155.976969 
L 356.154289 156.931015 
L 357.512159 157.898689 
L 358.074072 158.30516 
L 359.064046 156.942578 
L 358.496457 156.532001 
L 357.124871 155.554553 
L 355.743578 154.59087 
L 354.352719 153.641047 
L 352.95243 152.70518 
L 351.542854 151.783363 
L 350.124129 150.875687 
L 348.696399 149.982244 
L 347.259807 149.103122 
L 345.814494 148.23841 
L 344.360608 147.388194 
L 342.898292 146.552559 
L 341.427692 145.731589 
L 339.948957 144.925366 
L 338.462234 144.13397 
L 336.967671 143.357481 
L 335.465418 142.595976 
L 333.955625 141.849531 
L 332.438443 141.118221 
L 330.914025 140.40212 
L 329.382521 139.701298 
L 327.844086 139.015826 
L 326.298874 138.345772 
L 324.747038 137.691204 
L 323.188734 137.052187 
L 321.624118 136.428784 
L 320.053347 135.821058 
L 318.476576 135.22907 
L 316.893965 134.65288 
L 315.305671 134.092543 
L 313.711854 133.548118 
L 312.112672 133.019658 
z
" clip-path="url(#pf97404d900)" style="fill: #0000d6"/>
   </g>
   <g id="patch_4">
    <path d="M 358.074072 158.30516 
L 359.418105 159.291962 
L 360.752203 160.292155 
L 362.076233 161.305639 
L 363.390062 162.332312 
L 364.693559 163.372072 
L 365.986593 164.424815 
L 367.269035 165.490436 
L 368.540757 166.568827 
L 369.801632 167.659881 
L 371.051533 168.763489 
L 372.290336 169.879541 
L 373.517917 171.007925 
L 374.734152 172.148528 
L 375.938921 173.301237 
L 377.132103 174.465935 
L 378.313578 175.642506 
L 379.483229 176.830833 
L 380.640938 178.030798 
L 381.78659 179.242279 
L 382.92007 180.465155 
L 384.041265 181.699306 
L 385.150062 182.944606 
L 386.246351 184.200932 
L 387.330023 185.468157 
L 388.400968 186.746156 
L 389.45908 188.0348 
L 390.504252 189.333961 
L 391.536381 190.643509 
L 392.555363 191.963312 
L 393.561097 193.293238 
L 394.553481 194.633156 
L 395.532416 195.98293 
L 396.497805 197.342425 
L 397.449551 198.711507 
L 398.387559 200.090037 
L 399.311735 201.477878 
L 400.221986 202.874892 
L 401.118222 204.280938 
L 402.000353 205.695876 
L 402.868291 207.119564 
L 403.721949 208.551861 
L 404.561241 209.992622 
L 405.386084 211.441704 
L 406.196395 212.898962 
L 406.992093 214.36425 
L 407.773099 215.837421 
L 408.539335 217.318329 
L 409.290723 218.806825 
L 410.027189 220.30276 
L 410.748659 221.805985 
L 411.455061 223.31635 
L 412.146324 224.833703 
L 412.822379 226.357892 
L 413.483159 227.888766 
L 414.128598 229.426171 
L 414.75863 230.969953 
L 415.373193 232.519958 
L 415.972226 234.076032 
L 416.555669 235.638017 
L 417.123462 237.205759 
L 417.67555 238.779101 
L 418.211877 240.357884 
L 418.645976 241.675233 
L 420.247787 241.154773 
L 419.809304 239.824118 
L 419.267559 238.229387 
L 418.709894 236.640153 
L 418.136365 235.056575 
L 417.54703 233.478812 
L 416.941946 231.907021 
L 416.321175 230.341359 
L 415.684779 228.781983 
L 415.032821 227.229048 
L 414.365366 225.682711 
L 413.682482 224.143126 
L 412.984236 222.610446 
L 412.270699 221.084826 
L 411.541942 219.566417 
L 410.798037 218.055371 
L 410.039059 216.55184 
L 409.265083 215.055973 
L 408.476189 213.567921 
L 407.672453 212.087832 
L 406.853957 210.615855 
L 406.020782 209.152136 
L 405.173012 207.696821 
L 404.310732 206.250057 
L 403.434027 204.811988 
L 402.542985 203.382758 
L 401.637696 201.962509 
L 400.718251 200.551384 
L 399.78474 199.149525 
L 398.837257 197.75707 
L 397.875897 196.374159 
L 396.900757 195.000931 
L 395.911933 193.637523 
L 394.909525 192.284071 
L 393.893633 190.940711 
L 392.864358 189.607577 
L 391.821804 188.284802 
L 390.766074 186.972518 
L 389.697274 185.670857 
L 388.615511 184.379949 
L 387.520894 183.099923 
L 386.413531 181.830907 
L 385.293533 180.573028 
L 384.161014 179.326412 
L 383.016084 178.091183 
L 381.85886 176.867464 
L 380.689457 175.655379 
L 379.507991 174.455049 
L 378.314582 173.266593 
L 377.109348 172.09013 
L 375.892409 170.925778 
L 374.663889 169.773654 
L 373.423908 168.633872 
L 372.172592 167.506547 
L 370.910066 166.391791 
L 369.636455 165.289716 
L 368.351887 164.200432 
L 367.056491 163.124048 
L 365.750396 162.060671 
L 364.433733 161.010409 
L 363.106633 159.973365 
L 361.769229 158.949644 
L 360.421655 157.939348 
L 359.064046 156.942578 
z
" clip-path="url(#pf97404d900)" style="fill: #001cff"/>
   </g>
   <g id="patch_5">
    <path d="M 418.645976 241.675233 
L 419.153294 243.263576 
L 419.644703 244.856913 
L 420.120155 246.455083 
L 420.579601 248.057929 
L 421.022997 249.665289 
L 421.450296 251.277002 
L 421.861458 252.892907 
L 422.25644 254.512843 
L 422.635204 256.136649 
L 422.99771 257.76416 
L 423.343924 259.395215 
L 423.67381 261.029651 
L 423.987336 262.667303 
L 424.28447 264.308009 
L 424.565182 265.951604 
L 424.829444 267.597924 
L 425.07723 269.246805 
L 425.308515 270.898081 
L 425.523276 272.551587 
L 425.721492 274.207158 
L 425.903142 275.864628 
L 426.068209 277.523832 
L 426.216676 279.184603 
L 426.348528 280.846776 
L 426.463752 282.510185 
L 426.562336 284.174662 
L 426.644271 285.840043 
L 426.709548 287.506159 
L 426.758161 289.172845 
L 426.790105 290.839933 
L 426.805377 292.507258 
L 426.80682 293.200772 
L 428.491063 293.200772 
L 428.489607 292.500253 
L 428.47418 290.816086 
L 428.441914 289.132159 
L 428.39281 287.448638 
L 428.326873 285.765692 
L 428.24411 284.08349 
L 428.14453 282.402199 
L 428.028143 280.721989 
L 427.894959 279.043026 
L 427.744992 277.365479 
L 427.578258 275.689515 
L 427.394773 274.015303 
L 427.194555 272.343009 
L 426.977625 270.672801 
L 426.744003 269.004846 
L 426.493714 267.33931 
L 426.226783 265.67636 
L 425.943235 264.016163 
L 425.6431 262.358884 
L 425.326408 260.70469 
L 424.993189 259.053745 
L 424.643479 257.406214 
L 424.27731 255.762263 
L 423.894721 254.122056 
L 423.495749 252.485757 
L 423.080434 250.853529 
L 422.648818 249.225536 
L 422.200944 247.601941 
L 421.736857 245.982905 
L 421.256602 244.368591 
L 420.760229 242.75916 
L 420.247787 241.154773 
z
" clip-path="url(#pf97404d900)" style="fill: #006cff"/>
   </g>
   <g id="patch_6">
    <path d="M 426.80682 293.200772 
L 426.798483 294.868146 
L 426.773473 296.535353 
L 426.731792 298.202226 
L 426.673445 299.8686 
L 426.598438 301.534306 
L 426.506777 303.19918 
L 426.398473 304.863053 
L 426.273536 306.52576 
L 426.131978 308.187135 
L 425.973813 309.847011 
L 425.799058 311.505222 
L 425.60773 313.161603 
L 425.399848 314.815988 
L 425.175433 316.468212 
L 424.934507 318.118108 
L 424.677095 319.765513 
L 424.403221 321.410262 
L 424.112914 323.05219 
L 423.806203 324.691132 
L 423.483118 326.326926 
L 423.143691 327.959407 
L 422.787957 329.588412 
L 422.41595 331.213778 
L 422.027709 332.835343 
L 421.623272 334.452945 
L 421.20268 336.066421 
L 420.765973 337.675611 
L 420.313198 339.280354 
L 419.844397 340.880488 
L 419.359619 342.475855 
L 418.858912 344.066294 
L 418.645976 344.726311 
L 420.247787 345.246771 
L 420.462874 344.580087 
L 420.968639 342.973583 
L 421.458314 341.362102 
L 421.931849 339.745804 
L 422.389199 338.124852 
L 422.830316 336.499408 
L 423.255157 334.869633 
L 423.663679 333.235692 
L 424.055842 331.597748 
L 424.431606 329.955964 
L 424.790934 328.310504 
L 425.133789 326.661533 
L 425.460138 325.009217 
L 425.769947 323.353719 
L 426.063187 321.695206 
L 426.339826 320.033844 
L 426.599839 318.369799 
L 426.843199 316.703236 
L 427.069881 315.034324 
L 427.279862 313.363228 
L 427.473123 311.690116 
L 427.649643 310.015155 
L 427.809405 308.338512 
L 427.952393 306.660356 
L 428.078592 304.980854 
L 428.18799 303.300174 
L 428.280577 301.618483 
L 428.356342 299.935952 
L 428.415278 298.252746 
L 428.45738 296.569036 
L 428.482642 294.884988 
L 428.491063 293.200772 
z
" clip-path="url(#pf97404d900)" style="fill: #00b8ff"/>
   </g>
   <g id="patch_7">
    <path d="M 418.645976 344.726311 
L 418.1228 346.309502 
L 417.583819 347.887381 
L 417.029086 349.459792 
L 416.458657 351.026577 
L 415.872589 352.58758 
L 415.270941 354.142644 
L 414.653772 355.691613 
L 414.021145 357.234334 
L 413.373122 358.770651 
L 412.709769 360.300412 
L 412.031152 361.823462 
L 411.337338 363.339651 
L 410.628398 364.848825 
L 409.904401 366.350835 
L 409.165421 367.84553 
L 408.411531 369.33276 
L 407.642806 370.812378 
L 406.859325 372.284234 
L 406.061164 373.748182 
L 405.248403 375.204075 
L 404.421125 376.651768 
L 403.579411 378.091116 
L 402.723346 379.521975 
L 401.853016 380.944202 
L 400.968507 382.357655 
L 400.069908 383.762192 
L 399.157309 385.157673 
L 398.230801 386.543958 
L 397.290476 387.920909 
L 396.336429 389.288388 
L 395.368756 390.646259 
L 394.962285 391.208172 
L 396.324867 392.198145 
L 396.735444 391.630557 
L 397.712892 390.25897 
L 398.676575 388.877678 
L 399.626398 387.486818 
L 400.562265 386.08653 
L 401.484082 384.676953 
L 402.391758 383.258229 
L 403.285201 381.830499 
L 404.164323 380.393906 
L 405.029035 378.948594 
L 405.879251 377.494707 
L 406.714885 376.032391 
L 407.535855 374.561792 
L 408.342079 373.083057 
L 409.133475 371.596333 
L 409.909964 370.10177 
L 410.671469 368.599517 
L 411.417914 367.089725 
L 412.149223 365.572543 
L 412.865325 364.048124 
L 413.566147 362.516621 
L 414.251619 360.978186 
L 414.921672 359.432973 
L 415.576241 357.881138 
L 416.215258 356.322834 
L 416.838661 354.758218 
L 417.446387 353.187446 
L 418.038374 351.610676 
L 418.614565 350.028065 
L 419.174901 348.439771 
L 419.719327 346.845953 
L 420.247787 345.246771 
z
" clip-path="url(#pf97404d900)" style="fill: #1cffdb"/>
   </g>
   <g id="patch_8">
    <path d="M 394.962285 391.208172 
L 393.975483 392.552205 
L 392.97529 393.886303 
L 391.961806 395.210333 
L 390.935132 396.524162 
L 389.895372 397.827659 
L 388.842629 399.120693 
L 387.777009 400.403135 
L 386.698618 401.674857 
L 385.607564 402.935731 
L 384.503955 404.185633 
L 383.387903 405.424436 
L 382.25952 406.652016 
L 381.118916 407.868252 
L 379.966208 409.073021 
L 378.80151 410.266203 
L 377.624939 411.447678 
L 376.436611 412.617329 
L 375.236647 413.775038 
L 374.025166 414.92069 
L 372.802289 416.05417 
L 371.568139 417.175365 
L 370.322839 418.284162 
L 369.066513 419.380451 
L 367.799287 420.464122 
L 366.521289 421.535068 
L 365.232644 422.593179 
L 363.933484 423.638352 
L 362.623936 424.670481 
L 361.304133 425.689463 
L 359.974207 426.695196 
L 358.634289 427.68758 
L 357.284515 428.666516 
L 355.925019 429.631905 
L 354.555938 430.583651 
L 353.177408 431.521659 
L 351.789566 432.445835 
L 350.392553 433.356086 
L 348.986507 434.252322 
L 347.571569 435.134453 
L 346.147881 436.002391 
L 344.715584 436.856048 
L 343.274823 437.695341 
L 341.825741 438.520184 
L 340.368483 439.330495 
L 338.903195 440.126193 
L 337.430024 440.907199 
L 335.949116 441.673434 
L 334.46062 442.424823 
L 332.964685 443.161289 
L 331.46146 443.882759 
L 329.951095 444.589161 
L 328.433742 445.280424 
L 326.909553 445.956479 
L 325.378679 446.617259 
L 323.841274 447.262697 
L 322.297492 447.89273 
L 320.747487 448.507293 
L 319.191413 449.106326 
L 317.629427 449.689768 
L 316.061685 450.257562 
L 314.488344 450.80965 
L 312.90956 451.345977 
L 311.325493 451.86649 
L 309.736299 452.371136 
L 308.142138 452.859866 
L 306.54317 453.33263 
L 304.939555 453.78938 
L 303.331452 454.230072 
L 301.719022 454.654662 
L 300.102428 455.063106 
L 298.48183 455.455363 
L 296.85739 455.831396 
L 295.229271 456.191165 
L 293.597636 456.534636 
L 291.962649 456.861774 
L 290.324471 457.172545 
L 288.683268 457.466919 
L 287.039203 457.744867 
L 285.392441 458.006361 
L 283.743146 458.251374 
L 282.091484 458.479883 
L 280.437619 458.691863 
L 278.781717 458.887295 
L 277.123944 459.066158 
L 275.464465 459.228434 
L 273.803446 459.374109 
L 272.141053 459.503165 
L 270.477453 459.615592 
L 268.812812 459.711378 
L 267.147297 459.790512 
L 265.481073 459.852988 
L 263.814308 459.898798 
L 262.147168 459.927939 
L 260.47982 459.940407 
L 260.066673 459.940919 
L 260.066673 461.625163 
L 260.483993 461.624646 
L 262.168183 461.612052 
L 263.852163 461.582617 
L 265.535764 461.536343 
L 267.218818 461.473237 
L 268.901157 461.393303 
L 270.582613 461.29655 
L 272.263017 461.182988 
L 273.942201 461.052627 
L 275.619998 460.905482 
L 277.296239 460.741566 
L 278.970758 460.560896 
L 280.643386 460.36349 
L 282.313956 460.149369 
L 283.982302 459.918552 
L 285.648256 459.671064 
L 287.311653 459.406929 
L 288.972324 459.126173 
L 290.630105 458.828826 
L 292.28483 458.514915 
L 293.936333 458.184473 
L 295.584449 457.837533 
L 297.229013 457.474129 
L 298.869861 457.094299 
L 300.506829 456.698079 
L 302.139753 456.285509 
L 303.76847 455.856631 
L 305.392816 455.411488 
L 307.01263 454.950123 
L 308.627749 454.472584 
L 310.238012 453.978918 
L 311.843259 453.469174 
L 313.443327 452.943403 
L 315.038058 452.401659 
L 316.627292 451.843994 
L 318.210869 451.270465 
L 319.788633 450.681129 
L 321.360424 450.076046 
L 322.926086 449.455275 
L 324.485462 448.818879 
L 326.038396 448.166921 
L 327.584733 447.499466 
L 329.124319 446.816582 
L 330.656998 446.118336 
L 332.182619 445.404799 
L 333.701028 444.676041 
L 335.212074 443.932136 
L 336.715605 443.173158 
L 338.211472 442.399183 
L 339.699524 441.610288 
L 341.179612 440.806553 
L 342.65159 439.988057 
L 344.115309 439.154882 
L 345.570624 438.307112 
L 347.017388 437.444831 
L 348.455457 436.568127 
L 349.884687 435.677085 
L 351.304935 434.771796 
L 352.71606 433.85235 
L 354.11792 432.918839 
L 355.510375 431.971357 
L 356.893286 431.009997 
L 358.266514 430.034857 
L 359.629922 429.046033 
L 360.983374 428.043625 
L 362.326734 427.027733 
L 363.659868 425.998458 
L 364.982643 424.955903 
L 366.294927 423.900173 
L 367.596588 422.831374 
L 368.887496 421.749611 
L 370.167522 420.654993 
L 371.436538 419.547631 
L 372.694417 418.427633 
L 373.941033 417.295113 
L 375.176262 416.150184 
L 376.39998 414.99296 
L 377.612065 413.823557 
L 378.812396 412.642091 
L 380.000852 411.448682 
L 381.177315 410.243448 
L 382.341666 409.026509 
L 383.493791 407.797988 
L 384.633572 406.558008 
L 385.760898 405.306692 
L 386.875653 404.044165 
L 387.977729 402.770555 
L 389.067013 401.485987 
L 390.143397 400.190591 
L 391.206773 398.884496 
L 392.257036 397.567832 
L 393.29408 396.240733 
L 394.317801 394.903329 
L 395.328097 393.555755 
L 396.324867 392.198145 
z
" clip-path="url(#pf97404d900)" style="fill: #5dff9a"/>
   </g>
   <g id="patch_9">
    <path d="M 260.066673 459.940919 
L 258.399299 459.932582 
L 256.732092 459.907572 
L 255.065218 459.865892 
L 253.398845 459.807545 
L 251.733138 459.732537 
L 250.068265 459.640877 
L 248.404392 459.532573 
L 246.741685 459.407635 
L 245.08031 459.266077 
L 243.420434 459.107913 
L 241.762222 458.933158 
L 240.105841 458.74183 
L 238.451457 458.533948 
L 236.799233 458.309533 
L 235.149336 458.068607 
L 233.501931 457.811195 
L 231.857183 457.537321 
L 230.215255 457.247014 
L 228.576313 456.940303 
L 226.940519 456.617218 
L 225.308038 456.277791 
L 223.679033 455.922056 
L 222.053667 455.55005 
L 220.432102 455.161809 
L 218.8145 454.757372 
L 217.201023 454.336779 
L 215.591834 453.900073 
L 213.987091 453.447297 
L 212.386956 452.978497 
L 210.79159 452.493719 
L 209.201151 451.993012 
L 208.541133 451.780076 
L 208.020673 453.381887 
L 208.687357 453.596974 
L 210.293862 454.102739 
L 211.905343 454.592413 
L 213.521641 455.065949 
L 215.142593 455.523298 
L 216.768037 455.964416 
L 218.397811 456.389257 
L 220.031752 456.797779 
L 221.669697 457.189942 
L 223.311481 457.565706 
L 224.956941 457.925033 
L 226.605911 458.267889 
L 228.258228 458.594237 
L 229.913726 458.904047 
L 231.572238 459.197286 
L 233.233601 459.473926 
L 234.897646 459.733939 
L 236.564208 459.977298 
L 238.233121 460.20398 
L 239.904217 460.413962 
L 241.577329 460.607223 
L 243.25229 460.783743 
L 244.928933 460.943505 
L 246.607089 461.086493 
L 248.286591 461.212692 
L 249.967271 461.32209 
L 251.648961 461.414677 
L 253.331493 461.490442 
L 255.014699 461.549378 
L 256.698409 461.591479 
L 258.382457 461.616742 
L 260.066673 461.625163 
z
" clip-path="url(#pf97404d900)" style="fill: #9aff5d"/>
   </g>
   <g id="patch_10">
    <path d="M 208.541133 451.780076 
L 206.957943 451.2569 
L 205.380064 450.717919 
L 203.807653 450.163186 
L 202.240868 449.592757 
L 200.679865 449.006689 
L 199.124801 448.405041 
L 197.575831 447.787872 
L 196.033111 447.155245 
L 194.496793 446.507222 
L 192.967033 445.843869 
L 191.443982 445.165252 
L 189.927794 444.471438 
L 188.418619 443.762497 
L 186.91661 443.038501 
L 185.421915 442.299521 
L 183.934684 441.545631 
L 182.455067 440.776906 
L 180.983211 439.993424 
L 179.519263 439.195263 
L 178.06337 438.382503 
L 176.615677 437.555225 
L 175.176329 436.713511 
L 173.74547 435.857446 
L 172.323243 434.987116 
L 170.90979 434.102607 
L 169.505253 433.204008 
L 168.109772 432.291409 
L 166.723487 431.3649 
L 165.346536 430.424576 
L 163.979056 429.470529 
L 162.621186 428.502856 
L 161.27306 427.521652 
L 159.934813 426.527016 
L 158.606579 425.519048 
L 157.288492 424.497848 
L 155.980682 423.463519 
L 154.68328 422.416163 
L 153.396417 421.355886 
L 152.120221 420.282794 
L 150.854819 419.196993 
L 149.600338 418.098593 
L 148.356904 416.987703 
L 147.124641 415.864435 
L 145.903672 414.7289 
L 144.694119 413.581213 
L 143.496103 412.421488 
L 142.309744 411.24984 
L 141.135161 410.066388 
L 139.972471 408.87125 
L 138.82179 407.664544 
L 137.683234 406.446392 
L 136.556915 405.216916 
L 135.442948 403.976238 
L 134.341443 402.724483 
L 133.25251 401.461776 
L 132.176259 400.188242 
L 131.112797 398.90401 
L 130.062229 397.609208 
L 129.024663 396.303965 
L 128.0002 394.988411 
L 126.988944 393.662679 
L 125.990995 392.326901 
L 125.17106 391.208172 
L 123.808478 392.198145 
L 124.636696 393.328175 
L 125.644724 394.677446 
L 126.666195 396.016569 
L 127.701006 397.345411 
L 128.749053 398.663838 
L 129.810232 399.97172 
L 130.884437 401.268924 
L 131.971559 402.555321 
L 133.071491 403.830783 
L 134.184123 405.095183 
L 135.309342 406.348392 
L 136.447037 407.590288 
L 137.597094 408.820744 
L 138.759398 410.039638 
L 139.933833 411.246849 
L 141.12028 412.442255 
L 142.318623 413.625737 
L 143.528739 414.797177 
L 144.75051 415.956457 
L 145.983812 417.103462 
L 147.228523 418.238076 
L 148.484517 419.360187 
L 149.751669 420.469682 
L 151.029852 421.56645 
L 152.31894 422.650382 
L 153.618801 423.721369 
L 154.929308 424.779304 
L 156.250328 425.824081 
L 157.58173 426.855596 
L 158.92338 427.873746 
L 160.275145 428.878429 
L 161.636888 429.869543 
L 163.008474 430.846991 
L 164.389767 431.810675 
L 165.780626 432.760498 
L 167.180915 433.696364 
L 168.590491 434.618182 
L 170.009216 435.525858 
L 171.436946 436.419301 
L 172.873538 437.298423 
L 174.318851 438.163135 
L 175.772737 439.01335 
L 177.235053 439.848985 
L 178.705653 440.669955 
L 180.184388 441.476178 
L 181.671111 442.267574 
L 183.165674 443.044064 
L 184.667927 443.805569 
L 186.17772 444.552013 
L 187.694902 445.283323 
L 189.21932 445.999425 
L 190.750824 446.700246 
L 192.289259 447.385718 
L 193.834471 448.055772 
L 195.386307 448.71034 
L 196.944611 449.349358 
L 198.509227 449.972761 
L 200.079998 450.580486 
L 201.656769 451.172474 
L 203.23938 451.748665 
L 204.827674 452.309001 
L 206.421491 452.853426 
L 208.020673 453.381887 
z
" clip-path="url(#pf97404d900)" style="fill: #dbff1c"/>
   </g>
   <g id="patch_11">
    <path d="M 125.17106 391.208172 
L 124.197747 389.854338 
L 123.238021 388.490838 
L 122.291977 387.11781 
L 121.359711 385.73539 
L 120.441316 384.343717 
L 119.536883 382.94293 
L 118.646503 381.533168 
L 117.770264 380.114574 
L 116.908256 378.687288 
L 116.060563 377.251453 
L 115.22727 375.807213 
L 114.408461 374.354713 
L 113.604218 372.894098 
L 112.814621 371.425513 
L 112.03975 369.949106 
L 111.27968 368.465024 
L 110.53449 366.973416 
L 109.804252 365.47443 
L 109.089041 363.968217 
L 108.388927 362.454928 
L 107.70398 360.934713 
L 107.03427 359.407725 
L 106.379864 357.874116 
L 105.740825 356.33404 
L 105.117219 354.78765 
L 104.509108 353.235102 
L 103.916553 351.676551 
L 103.339612 350.112152 
L 102.778344 348.542062 
L 102.232805 346.966438 
L 101.703049 345.385437 
L 101.487369 344.726311 
L 99.885558 345.246771 
L 100.103416 345.912555 
L 100.638523 347.509525 
L 101.189573 349.101065 
L 101.75651 350.687014 
L 102.339279 352.267215 
L 102.93782 353.84151 
L 103.552073 355.40974 
L 104.181978 356.971749 
L 104.827471 358.527382 
L 105.488489 360.076482 
L 106.164963 361.618894 
L 106.856828 363.154465 
L 107.564014 364.68304 
L 108.28645 366.204467 
L 109.024063 367.718594 
L 109.776781 369.225269 
L 110.544528 370.724341 
L 111.327227 372.215662 
L 112.1248 373.699081 
L 112.937166 375.17445 
L 113.764246 376.641622 
L 114.605955 378.10045 
L 115.462211 379.550788 
L 116.332927 380.992491 
L 117.218016 382.425415 
L 118.11739 383.849416 
L 119.030959 385.264353 
L 119.958631 386.670084 
L 120.900314 388.066467 
L 121.855913 389.453364 
L 122.825334 390.830636 
L 123.808478 392.198145 
z
" clip-path="url(#pf97404d900)" style="fill: #ffcc00"/>
   </g>
   <g id="patch_12">
    <path d="M 101.487369 344.726311 
L 100.980051 343.137968 
L 100.488642 341.544632 
L 100.01319 339.946461 
L 99.553744 338.343616 
L 99.110348 336.736256 
L 98.683049 335.124543 
L 98.271887 333.508637 
L 97.876905 331.888701 
L 97.498141 330.264896 
L 97.135635 328.637385 
L 96.789421 327.00633 
L 96.459535 325.371894 
L 96.146009 323.734241 
L 95.848875 322.093535 
L 95.568163 320.44994 
L 95.303901 318.80362 
L 95.056115 317.15474 
L 94.82483 315.503464 
L 94.610069 313.849958 
L 94.411853 312.194387 
L 94.230203 310.536917 
L 94.065136 308.877713 
L 93.916669 307.216941 
L 93.784817 305.554768 
L 93.669593 303.89136 
L 93.571009 302.226882 
L 93.489074 300.561502 
L 93.423797 298.895386 
L 93.375184 297.2287 
L 93.34324 295.561611 
L 93.327968 293.894287 
L 93.326525 293.200772 
L 91.642282 293.200772 
L 91.643738 293.901292 
L 91.659165 295.585458 
L 91.691431 297.269386 
L 91.740535 298.952907 
L 91.806472 300.635853 
L 91.889235 302.318055 
L 91.988815 303.999345 
L 92.105202 305.679556 
L 92.238386 307.358519 
L 92.388353 309.036066 
L 92.555087 310.712029 
L 92.738572 312.386242 
L 92.93879 314.058535 
L 93.15572 315.728744 
L 93.389342 317.396699 
L 93.639631 319.062235 
L 93.906562 320.725184 
L 94.19011 322.385381 
L 94.490245 324.04266 
L 94.806937 325.696855 
L 95.140156 327.3478 
L 95.489866 328.99533 
L 95.856035 330.639281 
L 96.238624 332.279488 
L 96.637596 333.915787 
L 97.052911 335.548015 
L 97.484527 337.176008 
L 97.932401 338.799604 
L 98.396488 340.41864 
L 98.876743 342.032954 
L 99.373116 343.642385 
L 99.885558 345.246771 
z
" clip-path="url(#pf97404d900)" style="fill: #ff8600"/>
   </g>
   <g id="patch_13">
    <path d="M 93.326525 293.200772 
L 93.334862 291.533399 
L 93.359872 289.866192 
L 93.401553 288.199318 
L 93.4599 286.532945 
L 93.534907 284.867238 
L 93.626568 283.202365 
L 93.734872 281.538492 
L 93.859809 279.875784 
L 94.001367 278.21441 
L 94.159532 276.554534 
L 94.334287 274.896322 
L 94.525615 273.239941 
L 94.733497 271.585556 
L 94.957912 269.933333 
L 95.198838 268.283436 
L 95.45625 266.636031 
L 95.730124 264.991282 
L 96.020431 263.349355 
L 96.327142 261.710412 
L 96.650227 260.074619 
L 96.989654 258.442138 
L 97.345388 256.813133 
L 97.717395 255.187766 
L 98.105636 253.566201 
L 98.510073 251.9486 
L 98.930665 250.335123 
L 99.367372 248.725933 
L 99.820147 247.121191 
L 100.288948 245.521056 
L 100.773726 243.92569 
L 101.274433 242.33525 
L 101.487369 241.675233 
L 99.885558 241.154773 
L 99.670471 241.821457 
L 99.164706 243.427961 
L 98.675031 245.039443 
L 98.201496 246.65574 
L 97.744146 248.276692 
L 97.303029 249.902137 
L 96.878188 251.531911 
L 96.469666 253.165852 
L 96.077503 254.803797 
L 95.701739 256.445581 
L 95.342411 258.091041 
L 94.999556 259.740011 
L 94.673207 261.392328 
L 94.363398 263.047825 
L 94.070158 264.706338 
L 93.793519 266.3677 
L 93.533506 268.031746 
L 93.290146 269.698308 
L 93.063464 271.367221 
L 92.853483 273.038317 
L 92.660222 274.711429 
L 92.483702 276.38639 
L 92.32394 278.063032 
L 92.180952 279.741189 
L 92.054753 281.420691 
L 91.945355 283.101371 
L 91.852768 284.783061 
L 91.777003 286.465593 
L 91.718067 288.148798 
L 91.675965 289.832509 
L 91.650703 291.516556 
L 91.642282 293.200772 
z
" clip-path="url(#pf97404d900)" style="fill: #ff3b00"/>
   </g>
   <g id="patch_14">
    <path d="M 101.487369 241.675233 
L 102.010545 240.092043 
L 102.549526 238.514163 
L 103.104259 236.941752 
L 103.674688 235.374967 
L 104.260756 233.813965 
L 104.862404 232.258901 
L 105.479573 230.709931 
L 106.1122 229.16721 
L 106.760223 227.630893 
L 107.423576 226.101133 
L 108.102193 224.578082 
L 108.796007 223.061894 
L 109.504947 221.552719 
L 110.228944 220.050709 
L 110.967924 218.556014 
L 111.721814 217.068784 
L 112.490539 215.589167 
L 113.27402 214.117311 
L 114.072181 212.653363 
L 114.884942 211.197469 
L 115.71222 209.749776 
L 116.553934 208.310428 
L 117.409999 206.87957 
L 118.280329 205.457343 
L 119.164838 204.04389 
L 120.063437 202.639353 
L 120.976036 201.243872 
L 121.902544 199.857586 
L 122.842869 198.480635 
L 123.796916 197.113156 
L 124.764589 195.755286 
L 125.745793 194.40716 
L 126.740428 193.068913 
L 127.748397 191.740679 
L 128.769596 190.422591 
L 129.803926 189.114781 
L 130.851282 187.81738 
L 131.911559 186.530517 
L 132.984651 185.25432 
L 134.070452 183.988919 
L 135.168852 182.734438 
L 136.279742 181.491004 
L 137.40301 180.258741 
L 138.538545 179.037771 
L 139.686232 177.828219 
L 140.845957 176.630203 
L 142.017604 175.443844 
L 143.201057 174.269261 
L 144.396195 173.106571 
L 145.602901 171.95589 
L 146.821052 170.817333 
L 148.050529 169.691015 
L 149.291206 168.577048 
L 150.542961 167.475543 
L 151.805669 166.38661 
L 153.079202 165.310359 
L 154.363435 164.246896 
L 155.658237 163.196329 
L 156.96348 162.158762 
L 158.279033 161.1343 
L 159.604766 160.123044 
L 160.940544 159.125095 
L 162.286234 158.140554 
L 163.641703 157.169519 
L 165.006814 156.212087 
L 166.381431 155.268353 
L 167.765417 154.338413 
L 169.158632 153.422359 
L 170.560938 152.520283 
L 171.972195 151.632274 
L 173.392261 150.758422 
L 174.820994 149.898815 
L 176.258252 149.053537 
L 177.703891 148.222674 
L 179.157766 147.406309 
L 180.619732 146.604523 
L 182.089642 145.817397 
L 183.56735 145.045009 
L 185.052708 144.287436 
L 186.545567 143.544754 
L 188.045778 142.817038 
L 189.553192 142.10436 
L 191.067656 141.406792 
L 192.589021 140.724403 
L 194.117133 140.057262 
L 195.65184 139.405434 
L 197.192988 138.768986 
L 198.740424 138.147982 
L 200.293993 137.542482 
L 201.853538 136.952548 
L 203.418905 136.378239 
L 204.989936 135.819611 
L 206.566476 135.276722 
L 208.148365 134.749625 
L 208.541133 134.621469 
L 208.020673 133.019658 
L 207.623937 133.149109 
L 206.02607 133.68153 
L 204.433606 134.229903 
L 202.846705 134.794173 
L 201.265527 135.374283 
L 199.690228 135.970176 
L 198.120967 136.581792 
L 196.557901 137.209069 
L 195.001185 137.851946 
L 193.450976 138.510357 
L 191.907428 139.184238 
L 190.370697 139.87352 
L 188.840934 140.578134 
L 187.318295 141.298011 
L 185.80293 142.033077 
L 184.294991 142.783261 
L 182.79463 143.548486 
L 181.301995 144.328676 
L 179.817237 145.123753 
L 178.340504 145.933638 
L 176.871944 146.758249 
L 175.411703 147.597505 
L 173.959927 148.45132 
L 172.516762 149.319611 
L 171.082352 150.202289 
L 169.65684 151.099268 
L 168.240369 152.010456 
L 166.833081 152.935763 
L 165.435116 153.875097 
L 164.046614 154.828363 
L 162.667713 155.795466 
L 161.298553 156.776309 
L 159.93927 157.770795 
L 158.589999 158.778824 
L 157.250876 159.800295 
L 155.922034 160.835106 
L 154.603606 161.883153 
L 153.295725 162.944332 
L 151.998521 164.018536 
L 150.712123 165.105659 
L 149.436661 166.205591 
L 148.172262 167.318222 
L 146.919052 168.443442 
L 145.677157 169.581137 
L 144.446701 170.731194 
L 143.227806 171.893498 
L 142.020596 173.067932 
L 140.82519 174.25438 
L 139.641708 175.452722 
L 138.470268 176.662839 
L 137.310988 177.88461 
L 136.163983 179.117912 
L 135.029369 180.362622 
L 133.907258 181.618616 
L 132.797763 182.885769 
L 131.700994 184.163952 
L 130.617063 185.453039 
L 129.546076 186.752901 
L 128.488141 188.063408 
L 127.443363 189.384428 
L 126.411848 190.71583 
L 125.393699 192.05748 
L 124.389016 193.409244 
L 123.397901 194.770988 
L 122.420453 196.142574 
L 121.45677 197.523866 
L 120.506947 198.914726 
L 119.57108 200.315014 
L 118.649263 201.724591 
L 117.741587 203.143315 
L 116.848144 204.571045 
L 115.969022 206.007638 
L 115.10431 207.45295 
L 114.254094 208.906837 
L 113.41846 210.369153 
L 112.59749 211.839752 
L 111.791266 213.318488 
L 110.999871 214.805211 
L 110.223381 216.299774 
L 109.461876 217.802027 
L 108.715431 219.31182 
L 107.984122 220.829001 
L 107.26802 222.35342 
L 106.567198 223.884924 
L 105.881726 225.423358 
L 105.211673 226.968571 
L 104.557104 228.520407 
L 103.918087 230.078711 
L 103.294684 231.643326 
L 102.686958 233.214098 
L 102.094971 234.790868 
L 101.51878 236.373479 
L 100.958444 237.961773 
L 100.414018 239.555591 
L 99.885558 241.154773 
z
" clip-path="url(#pf97404d900)" style="fill: #d60000"/>
   </g>
   <g id="patch_15">
    <path d="M 208.541133 134.621469 
L 210.129476 134.114151 
L 211.722813 133.622742 
L 213.320984 133.14729 
L 214.923829 132.687843 
L 216.531189 132.244448 
L 218.142902 131.817148 
L 219.758807 131.405987 
L 221.378744 131.011004 
L 223.002549 130.632241 
L 224.63006 130.269734 
L 226.261115 129.923521 
L 227.895551 129.593634 
L 229.533203 129.280109 
L 231.173909 128.982975 
L 232.817505 128.702263 
L 234.463825 128.438001 
L 236.112705 128.190215 
L 237.763981 127.95893 
L 239.417487 127.744168 
L 241.073058 127.545953 
L 242.730528 127.364302 
L 244.389732 127.199236 
L 246.050503 127.050769 
L 247.712677 126.918917 
L 249.376085 126.803693 
L 251.040563 126.705109 
L 252.705943 126.623174 
L 254.372059 126.557897 
L 256.038745 126.509283 
L 257.705833 126.477339 
L 259.373158 126.462067 
L 260.066673 126.460625 
L 260.066673 124.776381 
L 259.366153 124.777838 
L 257.681987 124.793264 
L 255.998059 124.825531 
L 254.314538 124.874635 
L 252.631592 124.940572 
L 250.94939 125.023334 
L 249.268099 125.122914 
L 247.587889 125.239302 
L 245.908926 125.372486 
L 244.231379 125.522452 
L 242.555416 125.689187 
L 240.881203 125.872672 
L 239.208909 126.07289 
L 237.538701 126.28982 
L 235.870746 126.523441 
L 234.20521 126.773731 
L 232.542261 127.040662 
L 230.882063 127.32421 
L 229.224785 127.624345 
L 227.57059 127.941037 
L 225.919645 128.274255 
L 224.272115 128.623966 
L 222.628164 128.990135 
L 220.987957 129.372724 
L 219.351657 129.771696 
L 217.71943 130.187011 
L 216.091436 130.618627 
L 214.467841 131.066501 
L 212.848805 131.530588 
L 211.234491 132.010842 
L 209.62506 132.507215 
L 208.020673 133.019658 
z
" clip-path="url(#pf97404d900)" style="fill: #800000"/>
   </g>
   <g id="PatchCollection_1">
    <path d="M 260.066673 459.940919 
L 260.066673 459.940919 
L 258.399299 459.932582 
L 256.732092 459.907572 
L 255.065218 459.865892 
L 253.398845 459.807545 
L 251.733138 459.732537 
L 250.068265 459.640877 
L 248.404392 459.532573 
L 246.741685 459.407635 
L 245.08031 459.266077 
L 243.420434 459.107913 
L 241.762222 458.933158 
L 240.105841 458.74183 
L 238.451457 458.533948 
L 236.799233 458.309533 
L 235.149336 458.068607 
L 233.501931 457.811195 
L 231.857183 457.537321 
L 230.215255 457.247014 
L 228.576313 456.940303 
L 226.940519 456.617218 
L 225.308038 456.277791 
L 223.679033 455.922056 
L 222.053667 455.55005 
L 220.432102 455.161809 
L 218.8145 454.757372 
L 217.201023 454.336779 
L 215.591834 453.900073 
L 213.987091 453.447297 
L 212.386956 452.978497 
L 210.79159 452.493719 
L 209.201151 451.993012 
L 208.541133 451.780076 
L 208.541133 451.780076 
Q 260.066673 293.200772 208.541133 134.621469 
L 208.541133 134.621469 
L 208.541133 134.621469 
L 210.129476 134.114151 
L 211.722813 133.622742 
L 213.320984 133.14729 
L 214.923829 132.687843 
L 216.531189 132.244448 
L 218.142902 131.817148 
L 219.758807 131.405987 
L 221.378744 131.011004 
L 223.002549 130.632241 
L 224.63006 130.269734 
L 226.261115 129.923521 
L 227.895551 129.593634 
L 229.533203 129.280109 
L 231.173909 128.982975 
L 232.817505 128.702263 
L 234.463825 128.438001 
L 236.112705 128.190215 
L 237.763981 127.95893 
L 239.417487 127.744168 
L 241.073058 127.545953 
L 242.730528 127.364302 
L 244.389732 127.199236 
L 246.050503 127.050769 
L 247.712677 126.918917 
L 249.376085 126.803693 
L 251.040563 126.705109 
L 252.705943 126.623174 
L 254.372059 126.557897 
L 256.038745 126.509283 
L 257.705833 126.477339 
L 259.373158 126.462067 
L 260.066673 126.460625 
L 260.066673 126.460625 
Q 260.066673 293.200772 260.066673 459.940919 
z
" clip-path="url(#pf97404d900)" style="fill: #9aff5d; fill-opacity: 0.5; stroke: #808080; stroke-opacity: 0.5; stroke-width: 0.1"/>
    <path d="M 394.962285 391.208172 
L 394.962285 391.208172 
L 393.975483 392.552205 
L 392.97529 393.886303 
L 391.961806 395.210333 
L 390.935132 396.524162 
L 389.895372 397.827659 
L 388.842629 399.120693 
L 387.777009 400.403135 
L 386.698618 401.674857 
L 385.607564 402.935731 
L 384.503955 404.185633 
L 383.387903 405.424436 
L 382.25952 406.652016 
L 381.118916 407.868252 
L 379.966208 409.073021 
L 378.80151 410.266203 
L 377.624939 411.447678 
L 376.436611 412.617329 
L 375.236647 413.775038 
L 374.025166 414.92069 
L 372.802289 416.05417 
L 371.568139 417.175365 
L 370.322839 418.284162 
L 369.066513 419.380451 
L 367.799287 420.464122 
L 366.521289 421.535068 
L 365.232644 422.593179 
L 363.933484 423.638352 
L 362.623936 424.670481 
L 361.304133 425.689463 
L 359.974207 426.695196 
L 358.634289 427.68758 
L 358.074072 428.096385 
L 358.074072 428.096385 
Q 260.066673 293.200772 93.326525 293.200772 
L 93.326525 293.200772 
L 93.326525 293.200772 
L 93.334862 291.533399 
L 93.359872 289.866192 
L 93.401553 288.199318 
L 93.4599 286.532945 
L 93.534907 284.867238 
L 93.626568 283.202365 
L 93.734872 281.538492 
L 93.859809 279.875784 
L 94.001367 278.21441 
L 94.159532 276.554534 
L 94.334287 274.896322 
L 94.525615 273.239941 
L 94.733497 271.585556 
L 94.957912 269.933333 
L 95.198838 268.283436 
L 95.45625 266.636031 
L 95.730124 264.991282 
L 96.020431 263.349355 
L 96.327142 261.710412 
L 96.650227 260.074619 
L 96.989654 258.442138 
L 97.345388 256.813133 
L 97.717395 255.187766 
L 98.105636 253.566201 
L 98.510073 251.9486 
L 98.930665 250.335123 
L 99.367372 248.725933 
L 99.820147 247.121191 
L 100.288948 245.521056 
L 100.773726 243.92569 
L 101.274433 242.33525 
L 101.487369 241.675233 
L 101.487369 241.675233 
Q 260.066673 293.200772 394.962285 391.208172 
z
" clip-path="url(#pf97404d900)" style="fill: #5dff9a; fill-opacity: 0.5; stroke: #808080; stroke-opacity: 0.5; stroke-width: 0.1"/>
    <path d="M 358.074072 428.096385 
L 358.074072 428.096385 
L 356.720238 429.069698 
L 355.356739 430.029424 
L 353.98371 430.975467 
L 352.601291 431.907733 
L 351.209618 432.826129 
L 349.80883 433.730562 
L 348.399069 434.620942 
L 346.980474 435.49718 
L 345.553188 436.359189 
L 344.117353 437.206882 
L 342.673114 438.040175 
L 341.220613 438.858983 
L 339.759998 439.663227 
L 338.291413 440.452823 
L 336.815006 441.227695 
L 335.330924 441.987764 
L 333.839316 442.732955 
L 332.34033 443.463193 
L 330.834117 444.178404 
L 329.320828 444.878518 
L 327.800613 445.563464 
L 326.273625 446.233174 
L 324.740016 446.887581 
L 323.19994 447.52662 
L 321.653551 448.150226 
L 320.101003 448.758337 
L 318.542451 449.350892 
L 316.978052 449.927833 
L 315.407962 450.489101 
L 313.832338 451.03464 
L 312.251337 451.564396 
L 311.592212 451.780076 
L 311.592212 451.780076 
Q 260.066673 293.200772 101.487369 344.726311 
L 101.487369 344.726311 
L 101.487369 344.726311 
L 100.980051 343.137968 
L 100.488642 341.544632 
L 100.01319 339.946461 
L 99.553744 338.343616 
L 99.110348 336.736256 
L 98.683049 335.124543 
L 98.271887 333.508637 
L 97.876905 331.888701 
L 97.498141 330.264896 
L 97.135635 328.637385 
L 96.789421 327.00633 
L 96.459535 325.371894 
L 96.146009 323.734241 
L 95.848875 322.093535 
L 95.568163 320.44994 
L 95.303901 318.80362 
L 95.056115 317.15474 
L 94.82483 315.503464 
L 94.610069 313.849958 
L 94.411853 312.194387 
L 94.230203 310.536917 
L 94.065136 308.877713 
L 93.916669 307.216941 
L 93.784817 305.554768 
L 93.669593 303.89136 
L 93.571009 302.226882 
L 93.489074 300.561502 
L 93.423797 298.895386 
L 93.375184 297.2287 
L 93.34324 295.561611 
L 93.327968 293.894287 
L 93.326525 293.200772 
L 93.326525 293.200772 
Q 260.066673 293.200772 358.074072 428.096385 
z
" clip-path="url(#pf97404d900)" style="fill: #5dff9a; fill-opacity: 0.5; stroke: #808080; stroke-opacity: 0.5; stroke-width: 0.1"/>
    <path d="M 418.645976 344.726311 
L 418.645976 344.726311 
L 418.1228 346.309502 
L 417.583819 347.887381 
L 417.029086 349.459792 
L 416.458657 351.026577 
L 415.872589 352.58758 
L 415.270941 354.142644 
L 414.653772 355.691613 
L 414.021145 357.234334 
L 413.373122 358.770651 
L 412.709769 360.300412 
L 412.031152 361.823462 
L 411.337338 363.339651 
L 410.628398 364.848825 
L 409.904401 366.350835 
L 409.165421 367.84553 
L 408.411531 369.33276 
L 407.642806 370.812378 
L 406.859325 372.284234 
L 406.061164 373.748182 
L 405.248403 375.204075 
L 404.421125 376.651768 
L 403.579411 378.091116 
L 402.723346 379.521975 
L 401.853016 380.944202 
L 400.968507 382.357655 
L 400.069908 383.762192 
L 399.157309 385.157673 
L 398.230801 386.543958 
L 397.290476 387.920909 
L 396.336429 389.288388 
L 395.368756 390.646259 
L 394.962285 391.208172 
L 394.962285 391.208172 
Q 260.066673 293.200772 101.487369 241.675233 
L 101.487369 241.675233 
L 101.487369 241.675233 
L 102.010545 240.092043 
L 102.549526 238.514163 
L 103.104259 236.941752 
L 103.674688 235.374967 
L 104.260756 233.813965 
L 104.862404 232.258901 
L 105.479573 230.709931 
L 106.1122 229.16721 
L 106.760223 227.630893 
L 107.423576 226.101133 
L 108.102193 224.578082 
L 108.796007 223.061894 
L 109.504947 221.552719 
L 110.228944 220.050709 
L 110.967924 218.556014 
L 111.721814 217.068784 
L 112.490539 215.589167 
L 113.27402 214.117311 
L 114.072181 212.653363 
L 114.884942 211.197469 
L 115.71222 209.749776 
L 116.553934 208.310428 
L 117.409999 206.87957 
L 118.280329 205.457343 
L 119.164838 204.04389 
L 120.063437 202.639353 
L 120.976036 201.243872 
L 121.902544 199.857586 
L 122.842869 198.480635 
L 123.796916 197.113156 
L 124.764589 195.755286 
L 125.17106 195.193373 
L 125.17106 195.193373 
Q 260.066673 293.200772 418.645976 344.726311 
z
" clip-path="url(#pf97404d900)" style="fill: #1cffdb; fill-opacity: 0.5; stroke: #808080; stroke-opacity: 0.5; stroke-width: 0.1"/>
    <path d="M 426.80682 293.200772 
L 426.80682 293.200772 
L 426.798483 294.868146 
L 426.773473 296.535353 
L 426.731792 298.202226 
L 426.673445 299.8686 
L 426.598438 301.534306 
L 426.506777 303.19918 
L 426.398473 304.863053 
L 426.273536 306.52576 
L 426.131978 308.187135 
L 425.973813 309.847011 
L 425.799058 311.505222 
L 425.60773 313.161603 
L 425.399848 314.815988 
L 425.175433 316.468212 
L 424.934507 318.118108 
L 424.677095 319.765513 
L 424.403221 321.410262 
L 424.112914 323.05219 
L 423.806203 324.691132 
L 423.483118 326.326926 
L 423.143691 327.959407 
L 422.787957 329.588412 
L 422.41595 331.213778 
L 422.027709 332.835343 
L 421.623272 334.452945 
L 421.20268 336.066421 
L 420.765973 337.675611 
L 420.313198 339.280354 
L 419.844397 340.880488 
L 419.359619 342.475855 
L 418.858912 344.066294 
L 418.645976 344.726311 
L 418.645976 344.726311 
Q 260.066673 293.200772 125.17106 195.193373 
L 125.17106 195.193373 
L 125.17106 195.193373 
L 126.157862 193.84934 
L 127.158055 192.515241 
L 128.171539 191.191212 
L 129.198213 189.877383 
L 130.237973 188.573886 
L 131.290716 187.280852 
L 132.356336 185.99841 
L 133.434727 184.726688 
L 134.525781 183.465813 
L 135.62939 182.215912 
L 136.745442 180.977109 
L 137.873826 179.749528 
L 139.014429 178.533293 
L 140.167137 177.328524 
L 141.331835 176.135342 
L 142.508406 174.953867 
L 143.696734 173.784216 
L 144.896698 172.626507 
L 146.108179 171.480855 
L 147.331056 170.347375 
L 148.565206 169.22618 
L 149.810506 168.117382 
L 151.066832 167.021093 
L 152.334058 165.937422 
L 153.612056 164.866477 
L 154.900701 163.808365 
L 156.199862 162.763193 
L 157.509409 161.731064 
L 158.829212 160.712081 
L 160.159139 159.706348 
L 161.499056 158.713964 
L 162.059273 158.30516 
L 162.059273 158.30516 
Q 260.066673 293.200772 426.80682 293.200772 
z
" clip-path="url(#pf97404d900)" style="fill: #00b8ff; fill-opacity: 0.5; stroke: #808080; stroke-opacity: 0.5; stroke-width: 0.1"/>
    <path d="M 418.645976 241.675233 
L 418.645976 241.675233 
L 419.153294 243.263576 
L 419.644703 244.856913 
L 420.120155 246.455083 
L 420.579601 248.057929 
L 421.022997 249.665289 
L 421.450296 251.277002 
L 421.861458 252.892907 
L 422.25644 254.512843 
L 422.635204 256.136649 
L 422.99771 257.76416 
L 423.343924 259.395215 
L 423.67381 261.029651 
L 423.987336 262.667303 
L 424.28447 264.308009 
L 424.565182 265.951604 
L 424.829444 267.597924 
L 425.07723 269.246805 
L 425.308515 270.898081 
L 425.523276 272.551587 
L 425.721492 274.207158 
L 425.903142 275.864628 
L 426.068209 277.523832 
L 426.216676 279.184603 
L 426.348528 280.846776 
L 426.463752 282.510185 
L 426.562336 284.174662 
L 426.644271 285.840043 
L 426.709548 287.506159 
L 426.758161 289.172845 
L 426.790105 290.839933 
L 426.805377 292.507258 
L 426.80682 293.200772 
L 426.80682 293.200772 
Q 260.066673 293.200772 162.059273 158.30516 
L 162.059273 158.30516 
L 162.059273 158.30516 
L 163.413107 157.331847 
L 164.776606 156.372121 
L 166.149635 155.426077 
L 167.532054 154.493811 
L 168.923728 153.575416 
L 170.324515 152.670983 
L 171.734276 151.780602 
L 173.152871 150.904364 
L 174.580157 150.042355 
L 176.015992 149.194662 
L 177.460231 148.36137 
L 178.912732 147.542561 
L 180.373347 146.738318 
L 181.841932 145.948721 
L 183.318339 145.173849 
L 184.802421 144.41378 
L 186.294029 143.668589 
L 187.793015 142.938352 
L 189.299228 142.22314 
L 190.812517 141.523026 
L 192.332732 140.83808 
L 193.85972 140.16837 
L 195.393329 139.513963 
L 196.933405 138.874925 
L 198.479794 138.251319 
L 200.032342 137.643208 
L 201.590894 137.050652 
L 203.155293 136.473712 
L 204.725383 135.912444 
L 206.301007 135.366904 
L 207.882008 134.837148 
L 208.541133 134.621469 
L 208.541133 134.621469 
Q 260.066673 293.200772 418.645976 241.675233 
z
" clip-path="url(#pf97404d900)" style="fill: #006cff; fill-opacity: 0.5; stroke: #808080; stroke-opacity: 0.5; stroke-width: 0.1"/>
    <path d="M 358.074072 158.30516 
L 358.074072 158.30516 
L 359.418105 159.291962 
L 360.752203 160.292155 
L 362.076233 161.305639 
L 363.390062 162.332312 
L 364.693559 163.372072 
L 365.986593 164.424815 
L 367.269035 165.490436 
L 368.540757 166.568827 
L 369.801632 167.659881 
L 371.051533 168.763489 
L 372.290336 169.879541 
L 373.517917 171.007925 
L 374.734152 172.148528 
L 375.938921 173.301237 
L 377.132103 174.465935 
L 378.313578 175.642506 
L 379.483229 176.830833 
L 380.640938 178.030798 
L 381.78659 179.242279 
L 382.92007 180.465155 
L 384.041265 181.699306 
L 385.150062 182.944606 
L 386.246351 184.200932 
L 387.330023 185.468157 
L 388.400968 186.746156 
L 389.45908 188.0348 
L 390.504252 189.333961 
L 391.536381 190.643509 
L 392.555363 191.963312 
L 393.561097 193.293238 
L 394.553481 194.633156 
L 395.532416 195.98293 
L 396.497805 197.342425 
L 397.449551 198.711507 
L 398.387559 200.090037 
L 399.311735 201.477878 
L 400.221986 202.874892 
L 401.118222 204.280938 
L 402.000353 205.695876 
L 402.868291 207.119564 
L 403.721949 208.551861 
L 404.561241 209.992622 
L 405.386084 211.441704 
L 406.196395 212.898962 
L 406.992093 214.36425 
L 407.773099 215.837421 
L 408.539335 217.318329 
L 409.290723 218.806825 
L 410.027189 220.30276 
L 410.748659 221.805985 
L 411.455061 223.31635 
L 412.146324 224.833703 
L 412.822379 226.357892 
L 413.483159 227.888766 
L 414.128598 229.426171 
L 414.75863 230.969953 
L 415.373193 232.519958 
L 415.972226 234.076032 
L 416.555669 235.638017 
L 417.123462 237.205759 
L 417.67555 238.779101 
L 418.211877 240.357884 
L 418.645976 241.675233 
L 418.645976 241.675233 
Q 260.066673 293.200772 208.541133 451.780076 
L 208.541133 451.780076 
L 208.541133 451.780076 
L 206.957943 451.2569 
L 205.380064 450.717919 
L 203.807653 450.163186 
L 202.240868 449.592757 
L 200.679865 449.006689 
L 199.124801 448.405041 
L 197.575831 447.787872 
L 196.033111 447.155245 
L 194.496793 446.507222 
L 192.967033 445.843869 
L 191.443982 445.165252 
L 189.927794 444.471438 
L 188.418619 443.762497 
L 186.91661 443.038501 
L 185.421915 442.299521 
L 183.934684 441.545631 
L 182.455067 440.776906 
L 180.983211 439.993424 
L 179.519263 439.195263 
L 178.06337 438.382503 
L 176.615677 437.555225 
L 175.176329 436.713511 
L 173.74547 435.857446 
L 172.323243 434.987116 
L 170.90979 434.102607 
L 169.505253 433.204008 
L 168.109772 432.291409 
L 166.723487 431.3649 
L 165.346536 430.424576 
L 163.979056 429.470529 
L 162.621186 428.502856 
L 161.27306 427.521652 
L 159.934813 426.527016 
L 158.606579 425.519048 
L 157.288492 424.497848 
L 155.980682 423.463519 
L 154.68328 422.416163 
L 153.396417 421.355886 
L 152.120221 420.282794 
L 150.854819 419.196993 
L 149.600338 418.098593 
L 148.356904 416.987703 
L 147.124641 415.864435 
L 145.903672 414.7289 
L 144.694119 413.581213 
L 143.496103 412.421488 
L 142.309744 411.24984 
L 141.135161 410.066388 
L 139.972471 408.87125 
L 138.82179 407.664544 
L 137.683234 406.446392 
L 136.556915 405.216916 
L 135.442948 403.976238 
L 134.341443 402.724483 
L 133.25251 401.461776 
L 132.176259 400.188242 
L 131.112797 398.90401 
L 130.062229 397.609208 
L 129.024663 396.303965 
L 128.0002 394.988411 
L 126.988944 393.662679 
L 125.990995 392.326901 
L 125.17106 391.208172 
L 125.17106 391.208172 
Q 260.066673 293.200772 358.074072 158.30516 
z
" clip-path="url(#pf97404d900)" style="fill: #001cff; fill-opacity: 0.5; stroke: #808080; stroke-opacity: 0.5; stroke-width: 0.1"/>
    <path d="M 311.592212 134.621469 
L 311.592212 134.621469 
L 313.175402 135.144645 
L 314.753281 135.683626 
L 316.325692 136.238359 
L 317.892477 136.808787 
L 319.45348 137.394855 
L 321.008544 137.996504 
L 322.557514 138.613672 
L 324.100234 139.2463 
L 325.636552 139.894322 
L 327.166312 140.557675 
L 328.689363 141.236293 
L 330.205551 141.930106 
L 331.714726 142.639047 
L 333.216735 143.363044 
L 334.71143 144.102024 
L 336.198661 144.855914 
L 337.678278 145.624638 
L 339.150134 146.40812 
L 340.614082 147.206281 
L 342.069975 148.019041 
L 343.517668 148.84632 
L 344.957016 149.688034 
L 346.387875 150.544098 
L 347.810102 151.414429 
L 349.223555 152.298938 
L 350.628092 153.197537 
L 352.023573 154.110136 
L 353.409858 155.036644 
L 354.786809 155.976969 
L 356.154289 156.931015 
L 357.512159 157.898689 
L 358.074072 158.30516 
L 358.074072 158.30516 
Q 260.066673 293.200772 125.17106 391.208172 
L 125.17106 391.208172 
L 125.17106 391.208172 
L 124.197747 389.854338 
L 123.238021 388.490838 
L 122.291977 387.11781 
L 121.359711 385.73539 
L 120.441316 384.343717 
L 119.536883 382.94293 
L 118.646503 381.533168 
L 117.770264 380.114574 
L 116.908256 378.687288 
L 116.060563 377.251453 
L 115.22727 375.807213 
L 114.408461 374.354713 
L 113.604218 372.894098 
L 112.814621 371.425513 
L 112.03975 369.949106 
L 111.27968 368.465024 
L 110.53449 366.973416 
L 109.804252 365.47443 
L 109.089041 363.968217 
L 108.388927 362.454928 
L 107.70398 360.934713 
L 107.03427 359.407725 
L 106.379864 357.874116 
L 105.740825 356.33404 
L 105.117219 354.78765 
L 104.509108 353.235102 
L 103.916553 351.676551 
L 103.339612 350.112152 
L 102.778344 348.542062 
L 102.232805 346.966438 
L 101.703049 345.385437 
L 101.487369 344.726311 
L 101.487369 344.726311 
Q 260.066673 293.200772 311.592212 134.621469 
z
" clip-path="url(#pf97404d900)" style="fill: #0000d6; fill-opacity: 0.5; stroke: #808080; stroke-opacity: 0.5; stroke-width: 0.1"/>
    <path d="M 260.066673 126.460625 
L 260.066673 126.460625 
L 261.734046 126.468962 
L 263.401253 126.493972 
L 265.068127 126.535653 
L 266.7345 126.594 
L 268.400207 126.669007 
L 270.06508 126.760667 
L 271.728953 126.868972 
L 273.39166 126.993909 
L 275.053035 127.135467 
L 276.712911 127.293631 
L 278.371123 127.468386 
L 280.027504 127.659714 
L 281.681889 127.867596 
L 283.334112 128.092011 
L 284.984009 128.332937 
L 286.631414 128.59035 
L 288.276162 128.864223 
L 289.91809 129.15453 
L 291.557032 129.461242 
L 293.192826 129.784327 
L 294.825307 130.123754 
L 296.454312 130.479488 
L 298.079678 130.851494 
L 299.701243 131.239736 
L 301.318845 131.644173 
L 302.932322 132.064765 
L 304.541511 132.501471 
L 306.146254 132.954247 
L 307.746389 133.423048 
L 309.341755 133.907826 
L 310.932194 134.408533 
L 311.592212 134.621469 
L 311.592212 134.621469 
Q 260.066673 293.200772 311.592212 451.780076 
L 311.592212 451.780076 
L 311.592212 451.780076 
L 310.003869 452.287393 
L 308.410532 452.778803 
L 306.812361 453.254255 
L 305.209516 453.713701 
L 303.602156 454.157096 
L 301.990443 454.584396 
L 300.374538 454.995558 
L 298.754601 455.39054 
L 297.130796 455.769304 
L 295.503285 456.13181 
L 293.87223 456.478024 
L 292.237794 456.80791 
L 290.600142 457.121436 
L 288.959436 457.418569 
L 287.31584 457.699281 
L 285.66952 457.963544 
L 284.02064 458.21133 
L 282.369364 458.442615 
L 280.715858 458.657376 
L 279.060287 458.855592 
L 277.402817 459.037242 
L 275.743613 459.202309 
L 274.082842 459.350776 
L 272.420668 459.482628 
L 270.75726 459.597851 
L 269.092782 459.696436 
L 267.427402 459.778371 
L 265.761286 459.843648 
L 264.0946 459.892261 
L 262.427512 459.924205 
L 260.760187 459.939477 
L 260.066673 459.940919 
L 260.066673 459.940919 
Q 260.066673 293.200772 260.066673 126.460625 
z
" clip-path="url(#pf97404d900)" style="fill: #000080; fill-opacity: 0.5; stroke: #808080; stroke-opacity: 0.5; stroke-width: 0.1"/>
   </g>
   <g id="patch_16">
    <path d="M 260.066673 126.460625 
L 261.734046 126.468962 
L 263.401253 126.493972 
L 265.068127 126.535653 
L 266.7345 126.594 
L 268.400207 126.669007 
L 270.06508 126.760667 
L 271.728953 126.868972 
L 273.39166 126.993909 
L 275.053035 127.135467 
L 276.712911 127.293631 
L 278.371123 127.468386 
L 280.027504 127.659714 
L 281.681889 127.867596 
L 283.334112 128.092011 
L 284.984009 128.332937 
L 286.631414 128.59035 
L 288.276162 128.864223 
L 289.91809 129.15453 
L 291.557032 129.461242 
L 293.192826 129.784327 
L 294.825307 130.123754 
L 296.454312 130.479488 
L 298.079678 130.851494 
L 299.701243 131.239736 
L 301.318845 131.644173 
L 302.932322 132.064765 
L 304.541511 132.501471 
L 306.146254 132.954247 
L 307.746389 133.423048 
L 309.341755 133.907826 
L 310.932194 134.408533 
L 311.592212 134.621469 
L 312.112672 133.019658 
L 311.445988 132.804571 
L 309.839483 132.298806 
L 308.228002 131.809131 
L 306.611704 131.335595 
L 304.990752 130.878246 
L 303.365308 130.437129 
L 301.735534 130.012288 
L 300.101593 129.603765 
L 298.463648 129.211603 
L 296.821864 128.835839 
L 295.176404 128.476511 
L 293.527434 128.133656 
L 291.875117 127.807307 
L 290.219619 127.497498 
L 288.561107 127.204258 
L 286.899744 126.927618 
L 285.235699 126.667606 
L 283.569137 126.424246 
L 281.900224 126.197564 
L 280.229128 125.987582 
L 278.556016 125.794322 
L 276.881055 125.617802 
L 275.204412 125.45804 
L 273.526256 125.315052 
L 271.846754 125.188853 
L 270.166074 125.079454 
L 268.484384 124.986868 
L 266.801852 124.911103 
L 265.118646 124.852167 
L 263.434936 124.810065 
L 261.750888 124.784802 
L 260.066673 124.776381 
L 260.066673 126.460625 
z
" clip-path="url(#pf97404d900)" style="fill: none; stroke: #000000; stroke-width: 0.5; stroke-linejoin: miter"/>
   </g>
   <g id="patch_17">
    <path d="M 311.592212 134.621469 
L 313.175402 135.144645 
L 314.753281 135.683626 
L 316.325692 136.238359 
L 317.892477 136.808787 
L 319.45348 137.394855 
L 321.008544 137.996504 
L 322.557514 138.613672 
L 324.100234 139.2463 
L 325.636552 139.894322 
L 327.166312 140.557675 
L 328.689363 141.236293 
L 330.205551 141.930106 
L 331.714726 142.639047 
L 333.216735 143.363044 
L 334.71143 144.102024 
L 336.198661 144.855914 
L 337.678278 145.624638 
L 339.150134 146.40812 
L 340.614082 147.206281 
L 342.069975 148.019041 
L 343.517668 148.84632 
L 344.957016 149.688034 
L 346.387875 150.544098 
L 347.810102 151.414429 
L 349.223555 152.298938 
L 350.628092 153.197537 
L 352.023573 154.110136 
L 353.409858 155.036644 
L 354.786809 155.976969 
L 356.154289 156.931015 
L 357.512159 157.898689 
L 358.074072 158.30516 
L 359.064046 156.942578 
L 358.496457 156.532001 
L 357.124871 155.554553 
L 355.743578 154.59087 
L 354.352719 153.641047 
L 352.95243 152.70518 
L 351.542854 151.783363 
L 350.124129 150.875687 
L 348.696399 149.982244 
L 347.259807 149.103122 
L 345.814494 148.23841 
L 344.360608 147.388194 
L 342.898292 146.552559 
L 341.427692 145.731589 
L 339.948957 144.925366 
L 338.462234 144.13397 
L 336.967671 143.357481 
L 335.465418 142.595976 
L 333.955625 141.849531 
L 332.438443 141.118221 
L 330.914025 140.40212 
L 329.382521 139.701298 
L 327.844086 139.015826 
L 326.298874 138.345772 
L 324.747038 137.691204 
L 323.188734 137.052187 
L 321.624118 136.428784 
L 320.053347 135.821058 
L 318.476576 135.22907 
L 316.893965 134.65288 
L 315.305671 134.092543 
L 313.711854 133.548118 
L 312.112672 133.019658 
L 311.592212 134.621469 
z
" clip-path="url(#pf97404d900)" style="fill: none; stroke: #000000; stroke-width: 0.5; stroke-linejoin: miter"/>
   </g>
   <g id="patch_18">
    <path d="M 358.074072 158.30516 
L 359.418105 159.291962 
L 360.752203 160.292155 
L 362.076233 161.305639 
L 363.390062 162.332312 
L 364.693559 163.372072 
L 365.986593 164.424815 
L 367.269035 165.490436 
L 368.540757 166.568827 
L 369.801632 167.659881 
L 371.051533 168.763489 
L 372.290336 169.879541 
L 373.517917 171.007925 
L 374.734152 172.148528 
L 375.938921 173.301237 
L 377.132103 174.465935 
L 378.313578 175.642506 
L 379.483229 176.830833 
L 380.640938 178.030798 
L 381.78659 179.242279 
L 382.92007 180.465155 
L 384.041265 181.699306 
L 385.150062 182.944606 
L 386.246351 184.200932 
L 387.330023 185.468157 
L 388.400968 186.746156 
L 389.45908 188.0348 
L 390.504252 189.333961 
L 391.536381 190.643509 
L 392.555363 191.963312 
L 393.561097 193.293238 
L 394.553481 194.633156 
L 395.532416 195.98293 
L 396.497805 197.342425 
L 397.449551 198.711507 
L 398.387559 200.090037 
L 399.311735 201.477878 
L 400.221986 202.874892 
L 401.118222 204.280938 
L 402.000353 205.695876 
L 402.868291 207.119564 
L 403.721949 208.551861 
L 404.561241 209.992622 
L 405.386084 211.441704 
L 406.196395 212.898962 
L 406.992093 214.36425 
L 407.773099 215.837421 
L 408.539335 217.318329 
L 409.290723 218.806825 
L 410.027189 220.30276 
L 410.748659 221.805985 
L 411.455061 223.31635 
L 412.146324 224.833703 
L 412.822379 226.357892 
L 413.483159 227.888766 
L 414.128598 229.426171 
L 414.75863 230.969953 
L 415.373193 232.519958 
L 415.972226 234.076032 
L 416.555669 235.638017 
L 417.123462 237.205759 
L 417.67555 238.779101 
L 418.211877 240.357884 
L 418.645976 241.675233 
L 420.247787 241.154773 
L 419.809304 239.824118 
L 419.267559 238.229387 
L 418.709894 236.640153 
L 418.136365 235.056575 
L 417.54703 233.478812 
L 416.941946 231.907021 
L 416.321175 230.341359 
L 415.684779 228.781983 
L 415.032821 227.229048 
L 414.365366 225.682711 
L 413.682482 224.143126 
L 412.984236 222.610446 
L 412.270699 221.084826 
L 411.541942 219.566417 
L 410.798037 218.055371 
L 410.039059 216.55184 
L 409.265083 215.055973 
L 408.476189 213.567921 
L 407.672453 212.087832 
L 406.853957 210.615855 
L 406.020782 209.152136 
L 405.173012 207.696821 
L 404.310732 206.250057 
L 403.434027 204.811988 
L 402.542985 203.382758 
L 401.637696 201.962509 
L 400.718251 200.551384 
L 399.78474 199.149525 
L 398.837257 197.75707 
L 397.875897 196.374159 
L 396.900757 195.000931 
L 395.911933 193.637523 
L 394.909525 192.284071 
L 393.893633 190.940711 
L 392.864358 189.607577 
L 391.821804 188.284802 
L 390.766074 186.972518 
L 389.697274 185.670857 
L 388.615511 184.379949 
L 387.520894 183.099923 
L 386.413531 181.830907 
L 385.293533 180.573028 
L 384.161014 179.326412 
L 383.016084 178.091183 
L 381.85886 176.867464 
L 380.689457 175.655379 
L 379.507991 174.455049 
L 378.314582 173.266593 
L 377.109348 172.09013 
L 375.892409 170.925778 
L 374.663889 169.773654 
L 373.423908 168.633872 
L 372.172592 167.506547 
L 370.910066 166.391791 
L 369.636455 165.289716 
L 368.351887 164.200432 
L 367.056491 163.124048 
L 365.750396 162.060671 
L 364.433733 161.010409 
L 363.106633 159.973365 
L 361.769229 158.949644 
L 360.421655 157.939348 
L 359.064046 156.942578 
L 358.074072 158.30516 
z
" clip-path="url(#pf97404d900)" style="fill: none; stroke: #000000; stroke-width: 0.5; stroke-linejoin: miter"/>
   </g>
   <g id="patch_19">
    <path d="M 418.645976 241.675233 
L 419.153294 243.263576 
L 419.644703 244.856913 
L 420.120155 246.455083 
L 420.579601 248.057929 
L 421.022997 249.665289 
L 421.450296 251.277002 
L 421.861458 252.892907 
L 422.25644 254.512843 
L 422.635204 256.136649 
L 422.99771 257.76416 
L 423.343924 259.395215 
L 423.67381 261.029651 
L 423.987336 262.667303 
L 424.28447 264.308009 
L 424.565182 265.951604 
L 424.829444 267.597924 
L 425.07723 269.246805 
L 425.308515 270.898081 
L 425.523276 272.551587 
L 425.721492 274.207158 
L 425.903142 275.864628 
L 426.068209 277.523832 
L 426.216676 279.184603 
L 426.348528 280.846776 
L 426.463752 282.510185 
L 426.562336 284.174662 
L 426.644271 285.840043 
L 426.709548 287.506159 
L 426.758161 289.172845 
L 426.790105 290.839933 
L 426.805377 292.507258 
L 426.80682 293.200772 
L 428.491063 293.200772 
L 428.489607 292.500253 
L 428.47418 290.816086 
L 428.441914 289.132159 
L 428.39281 287.448638 
L 428.326873 285.765692 
L 428.24411 284.08349 
L 428.14453 282.402199 
L 428.028143 280.721989 
L 427.894959 279.043026 
L 427.744992 277.365479 
L 427.578258 275.689515 
L 427.394773 274.015303 
L 427.194555 272.343009 
L 426.977625 270.672801 
L 426.744003 269.004846 
L 426.493714 267.33931 
L 426.226783 265.67636 
L 425.943235 264.016163 
L 425.6431 262.358884 
L 425.326408 260.70469 
L 424.993189 259.053745 
L 424.643479 257.406214 
L 424.27731 255.762263 
L 423.894721 254.122056 
L 423.495749 252.485757 
L 423.080434 250.853529 
L 422.648818 249.225536 
L 422.200944 247.601941 
L 421.736857 245.982905 
L 421.256602 244.368591 
L 420.760229 242.75916 
L 420.247787 241.154773 
L 418.645976 241.675233 
z
" clip-path="url(#pf97404d900)" style="fill: none; stroke: #000000; stroke-width: 0.5; stroke-linejoin: miter"/>
   </g>
   <g id="patch_20">
    <path d="M 426.80682 293.200772 
L 426.798483 294.868146 
L 426.773473 296.535353 
L 426.731792 298.202226 
L 426.673445 299.8686 
L 426.598438 301.534306 
L 426.506777 303.19918 
L 426.398473 304.863053 
L 426.273536 306.52576 
L 426.131978 308.187135 
L 425.973813 309.847011 
L 425.799058 311.505222 
L 425.60773 313.161603 
L 425.399848 314.815988 
L 425.175433 316.468212 
L 424.934507 318.118108 
L 424.677095 319.765513 
L 424.403221 321.410262 
L 424.112914 323.05219 
L 423.806203 324.691132 
L 423.483118 326.326926 
L 423.143691 327.959407 
L 422.787957 329.588412 
L 422.41595 331.213778 
L 422.027709 332.835343 
L 421.623272 334.452945 
L 421.20268 336.066421 
L 420.765973 337.675611 
L 420.313198 339.280354 
L 419.844397 340.880488 
L 419.359619 342.475855 
L 418.858912 344.066294 
L 418.645976 344.726311 
L 420.247787 345.246771 
L 420.462874 344.580087 
L 420.968639 342.973583 
L 421.458314 341.362102 
L 421.931849 339.745804 
L 422.389199 338.124852 
L 422.830316 336.499408 
L 423.255157 334.869633 
L 423.663679 333.235692 
L 424.055842 331.597748 
L 424.431606 329.955964 
L 424.790934 328.310504 
L 425.133789 326.661533 
L 425.460138 325.009217 
L 425.769947 323.353719 
L 426.063187 321.695206 
L 426.339826 320.033844 
L 426.599839 318.369799 
L 426.843199 316.703236 
L 427.069881 315.034324 
L 427.279862 313.363228 
L 427.473123 311.690116 
L 427.649643 310.015155 
L 427.809405 308.338512 
L 427.952393 306.660356 
L 428.078592 304.980854 
L 428.18799 303.300174 
L 428.280577 301.618483 
L 428.356342 299.935952 
L 428.415278 298.252746 
L 428.45738 296.569036 
L 428.482642 294.884988 
L 428.491063 293.200772 
L 426.80682 293.200772 
z
" clip-path="url(#pf97404d900)" style="fill: none; stroke: #000000; stroke-width: 0.5; stroke-linejoin: miter"/>
   </g>
   <g id="patch_21">
    <path d="M 418.645976 344.726311 
L 418.1228 346.309502 
L 417.583819 347.887381 
L 417.029086 349.459792 
L 416.458657 351.026577 
L 415.872589 352.58758 
L 415.270941 354.142644 
L 414.653772 355.691613 
L 414.021145 357.234334 
L 413.373122 358.770651 
L 412.709769 360.300412 
L 412.031152 361.823462 
L 411.337338 363.339651 
L 410.628398 364.848825 
L 409.904401 366.350835 
L 409.165421 367.84553 
L 408.411531 369.33276 
L 407.642806 370.812378 
L 406.859325 372.284234 
L 406.061164 373.748182 
L 405.248403 375.204075 
L 404.421125 376.651768 
L 403.579411 378.091116 
L 402.723346 379.521975 
L 401.853016 380.944202 
L 400.968507 382.357655 
L 400.069908 383.762192 
L 399.157309 385.157673 
L 398.230801 386.543958 
L 397.290476 387.920909 
L 396.336429 389.288388 
L 395.368756 390.646259 
L 394.962285 391.208172 
L 396.324867 392.198145 
L 396.735444 391.630557 
L 397.712892 390.25897 
L 398.676575 388.877678 
L 399.626398 387.486818 
L 400.562265 386.08653 
L 401.484082 384.676953 
L 402.391758 383.258229 
L 403.285201 381.830499 
L 404.164323 380.393906 
L 405.029035 378.948594 
L 405.879251 377.494707 
L 406.714885 376.032391 
L 407.535855 374.561792 
L 408.342079 373.083057 
L 409.133475 371.596333 
L 409.909964 370.10177 
L 410.671469 368.599517 
L 411.417914 367.089725 
L 412.149223 365.572543 
L 412.865325 364.048124 
L 413.566147 362.516621 
L 414.251619 360.978186 
L 414.921672 359.432973 
L 415.576241 357.881138 
L 416.215258 356.322834 
L 416.838661 354.758218 
L 417.446387 353.187446 
L 418.038374 351.610676 
L 418.614565 350.028065 
L 419.174901 348.439771 
L 419.719327 346.845953 
L 420.247787 345.246771 
L 418.645976 344.726311 
z
" clip-path="url(#pf97404d900)" style="fill: none; stroke: #000000; stroke-width: 0.5; stroke-linejoin: miter"/>
   </g>
   <g id="patch_22">
    <path d="M 394.962285 391.208172 
L 393.975483 392.552205 
L 392.97529 393.886303 
L 391.961806 395.210333 
L 390.935132 396.524162 
L 389.895372 397.827659 
L 388.842629 399.120693 
L 387.777009 400.403135 
L 386.698618 401.674857 
L 385.607564 402.935731 
L 384.503955 404.185633 
L 383.387903 405.424436 
L 382.25952 406.652016 
L 381.118916 407.868252 
L 379.966208 409.073021 
L 378.80151 410.266203 
L 377.624939 411.447678 
L 376.436611 412.617329 
L 375.236647 413.775038 
L 374.025166 414.92069 
L 372.802289 416.05417 
L 371.568139 417.175365 
L 370.322839 418.284162 
L 369.066513 419.380451 
L 367.799287 420.464122 
L 366.521289 421.535068 
L 365.232644 422.593179 
L 363.933484 423.638352 
L 362.623936 424.670481 
L 361.304133 425.689463 
L 359.974207 426.695196 
L 358.634289 427.68758 
L 357.284515 428.666516 
L 355.925019 429.631905 
L 354.555938 430.583651 
L 353.177408 431.521659 
L 351.789566 432.445835 
L 350.392553 433.356086 
L 348.986507 434.252322 
L 347.571569 435.134453 
L 346.147881 436.002391 
L 344.715584 436.856048 
L 343.274823 437.695341 
L 341.825741 438.520184 
L 340.368483 439.330495 
L 338.903195 440.126193 
L 337.430024 440.907199 
L 335.949116 441.673434 
L 334.46062 442.424823 
L 332.964685 443.161289 
L 331.46146 443.882759 
L 329.951095 444.589161 
L 328.433742 445.280424 
L 326.909553 445.956479 
L 325.378679 446.617259 
L 323.841274 447.262697 
L 322.297492 447.89273 
L 320.747487 448.507293 
L 319.191413 449.106326 
L 317.629427 449.689768 
L 316.061685 450.257562 
L 314.488344 450.80965 
L 312.90956 451.345977 
L 311.325493 451.86649 
L 309.736299 452.371136 
L 308.142138 452.859866 
L 306.54317 453.33263 
L 304.939555 453.78938 
L 303.331452 454.230072 
L 301.719022 454.654662 
L 300.102428 455.063106 
L 298.48183 455.455363 
L 296.85739 455.831396 
L 295.229271 456.191165 
L 293.597636 456.534636 
L 291.962649 456.861774 
L 290.324471 457.172545 
L 288.683268 457.466919 
L 287.039203 457.744867 
L 285.392441 458.006361 
L 283.743146 458.251374 
L 282.091484 458.479883 
L 280.437619 458.691863 
L 278.781717 458.887295 
L 277.123944 459.066158 
L 275.464465 459.228434 
L 273.803446 459.374109 
L 272.141053 459.503165 
L 270.477453 459.615592 
L 268.812812 459.711378 
L 267.147297 459.790512 
L 265.481073 459.852988 
L 263.814308 459.898798 
L 262.147168 459.927939 
L 260.47982 459.940407 
L 260.066673 459.940919 
L 260.066673 461.625163 
L 260.483993 461.624646 
L 262.168183 461.612052 
L 263.852163 461.582617 
L 265.535764 461.536343 
L 267.218818 461.473237 
L 268.901157 461.393303 
L 270.582613 461.29655 
L 272.263017 461.182988 
L 273.942201 461.052627 
L 275.619998 460.905482 
L 277.296239 460.741566 
L 278.970758 460.560896 
L 280.643386 460.36349 
L 282.313956 460.149369 
L 283.982302 459.918552 
L 285.648256 459.671064 
L 287.311653 459.406929 
L 288.972324 459.126173 
L 290.630105 458.828826 
L 292.28483 458.514915 
L 293.936333 458.184473 
L 295.584449 457.837533 
L 297.229013 457.474129 
L 298.869861 457.094299 
L 300.506829 456.698079 
L 302.139753 456.285509 
L 303.76847 455.856631 
L 305.392816 455.411488 
L 307.01263 454.950123 
L 308.627749 454.472584 
L 310.238012 453.978918 
L 311.843259 453.469174 
L 313.443327 452.943403 
L 315.038058 452.401659 
L 316.627292 451.843994 
L 318.210869 451.270465 
L 319.788633 450.681129 
L 321.360424 450.076046 
L 322.926086 449.455275 
L 324.485462 448.818879 
L 326.038396 448.166921 
L 327.584733 447.499466 
L 329.124319 446.816582 
L 330.656998 446.118336 
L 332.182619 445.404799 
L 333.701028 444.676041 
L 335.212074 443.932136 
L 336.715605 443.173158 
L 338.211472 442.399183 
L 339.699524 441.610288 
L 341.179612 440.806553 
L 342.65159 439.988057 
L 344.115309 439.154882 
L 345.570624 438.307112 
L 347.017388 437.444831 
L 348.455457 436.568127 
L 349.884687 435.677085 
L 351.304935 434.771796 
L 352.71606 433.85235 
L 354.11792 432.918839 
L 355.510375 431.971357 
L 356.893286 431.009997 
L 358.266514 430.034857 
L 359.629922 429.046033 
L 360.983374 428.043625 
L 362.326734 427.027733 
L 363.659868 425.998458 
L 364.982643 424.955903 
L 366.294927 423.900173 
L 367.596588 422.831374 
L 368.887496 421.749611 
L 370.167522 420.654993 
L 371.436538 419.547631 
L 372.694417 418.427633 
L 373.941033 417.295113 
L 375.176262 416.150184 
L 376.39998 414.99296 
L 377.612065 413.823557 
L 378.812396 412.642091 
L 380.000852 411.448682 
L 381.177315 410.243448 
L 382.341666 409.026509 
L 383.493791 407.797988 
L 384.633572 406.558008 
L 385.760898 405.306692 
L 386.875653 404.044165 
L 387.977729 402.770555 
L 389.067013 401.485987 
L 390.143397 400.190591 
L 391.206773 398.884496 
L 392.257036 397.567832 
L 393.29408 396.240733 
L 394.317801 394.903329 
L 395.328097 393.555755 
L 396.324867 392.198145 
L 394.962285 391.208172 
z
" clip-path="url(#pf97404d900)" style="fill: none; stroke: #000000; stroke-width: 0.5; stroke-linejoin: miter"/>
   </g>
   <g id="patch_23">
    <path d="M 260.066673 459.940919 
L 258.399299 459.932582 
L 256.732092 459.907572 
L 255.065218 459.865892 
L 253.398845 459.807545 
L 251.733138 459.732537 
L 250.068265 459.640877 
L 248.404392 459.532573 
L 246.741685 459.407635 
L 245.08031 459.266077 
L 243.420434 459.107913 
L 241.762222 458.933158 
L 240.105841 458.74183 
L 238.451457 458.533948 
L 236.799233 458.309533 
L 235.149336 458.068607 
L 233.501931 457.811195 
L 231.857183 457.537321 
L 230.215255 457.247014 
L 228.576313 456.940303 
L 226.940519 456.617218 
L 225.308038 456.277791 
L 223.679033 455.922056 
L 222.053667 455.55005 
L 220.432102 455.161809 
L 218.8145 454.757372 
L 217.201023 454.336779 
L 215.591834 453.900073 
L 213.987091 453.447297 
L 212.386956 452.978497 
L 210.79159 452.493719 
L 209.201151 451.993012 
L 208.541133 451.780076 
L 208.020673 453.381887 
L 208.687357 453.596974 
L 210.293862 454.102739 
L 211.905343 454.592413 
L 213.521641 455.065949 
L 215.142593 455.523298 
L 216.768037 455.964416 
L 218.397811 456.389257 
L 220.031752 456.797779 
L 221.669697 457.189942 
L 223.311481 457.565706 
L 224.956941 457.925033 
L 226.605911 458.267889 
L 228.258228 458.594237 
L 229.913726 458.904047 
L 231.572238 459.197286 
L 233.233601 459.473926 
L 234.897646 459.733939 
L 236.564208 459.977298 
L 238.233121 460.20398 
L 239.904217 460.413962 
L 241.577329 460.607223 
L 243.25229 460.783743 
L 244.928933 460.943505 
L 246.607089 461.086493 
L 248.286591 461.212692 
L 249.967271 461.32209 
L 251.648961 461.414677 
L 253.331493 461.490442 
L 255.014699 461.549378 
L 256.698409 461.591479 
L 258.382457 461.616742 
L 260.066673 461.625163 
L 260.066673 459.940919 
z
" clip-path="url(#pf97404d900)" style="fill: none; stroke: #000000; stroke-width: 0.5; stroke-linejoin: miter"/>
   </g>
   <g id="patch_24">
    <path d="M 208.541133 451.780076 
L 206.957943 451.2569 
L 205.380064 450.717919 
L 203.807653 450.163186 
L 202.240868 449.592757 
L 200.679865 449.006689 
L 199.124801 448.405041 
L 197.575831 447.787872 
L 196.033111 447.155245 
L 194.496793 446.507222 
L 192.967033 445.843869 
L 191.443982 445.165252 
L 189.927794 444.471438 
L 188.418619 443.762497 
L 186.91661 443.038501 
L 185.421915 442.299521 
L 183.934684 441.545631 
L 182.455067 440.776906 
L 180.983211 439.993424 
L 179.519263 439.195263 
L 178.06337 438.382503 
L 176.615677 437.555225 
L 175.176329 436.713511 
L 173.74547 435.857446 
L 172.323243 434.987116 
L 170.90979 434.102607 
L 169.505253 433.204008 
L 168.109772 432.291409 
L 166.723487 431.3649 
L 165.346536 430.424576 
L 163.979056 429.470529 
L 162.621186 428.502856 
L 161.27306 427.521652 
L 159.934813 426.527016 
L 158.606579 425.519048 
L 157.288492 424.497848 
L 155.980682 423.463519 
L 154.68328 422.416163 
L 153.396417 421.355886 
L 152.120221 420.282794 
L 150.854819 419.196993 
L 149.600338 418.098593 
L 148.356904 416.987703 
L 147.124641 415.864435 
L 145.903672 414.7289 
L 144.694119 413.581213 
L 143.496103 412.421488 
L 142.309744 411.24984 
L 141.135161 410.066388 
L 139.972471 408.87125 
L 138.82179 407.664544 
L 137.683234 406.446392 
L 136.556915 405.216916 
L 135.442948 403.976238 
L 134.341443 402.724483 
L 133.25251 401.461776 
L 132.176259 400.188242 
L 131.112797 398.90401 
L 130.062229 397.609208 
L 129.024663 396.303965 
L 128.0002 394.988411 
L 126.988944 393.662679 
L 125.990995 392.326901 
L 125.17106 391.208172 
L 123.808478 392.198145 
L 124.636696 393.328175 
L 125.644724 394.677446 
L 126.666195 396.016569 
L 127.701006 397.345411 
L 128.749053 398.663838 
L 129.810232 399.97172 
L 130.884437 401.268924 
L 131.971559 402.555321 
L 133.071491 403.830783 
L 134.184123 405.095183 
L 135.309342 406.348392 
L 136.447037 407.590288 
L 137.597094 408.820744 
L 138.759398 410.039638 
L 139.933833 411.246849 
L 141.12028 412.442255 
L 142.318623 413.625737 
L 143.528739 414.797177 
L 144.75051 415.956457 
L 145.983812 417.103462 
L 147.228523 418.238076 
L 148.484517 419.360187 
L 149.751669 420.469682 
L 151.029852 421.56645 
L 152.31894 422.650382 
L 153.618801 423.721369 
L 154.929308 424.779304 
L 156.250328 425.824081 
L 157.58173 426.855596 
L 158.92338 427.873746 
L 160.275145 428.878429 
L 161.636888 429.869543 
L 163.008474 430.846991 
L 164.389767 431.810675 
L 165.780626 432.760498 
L 167.180915 433.696364 
L 168.590491 434.618182 
L 170.009216 435.525858 
L 171.436946 436.419301 
L 172.873538 437.298423 
L 174.318851 438.163135 
L 175.772737 439.01335 
L 177.235053 439.848985 
L 178.705653 440.669955 
L 180.184388 441.476178 
L 181.671111 442.267574 
L 183.165674 443.044064 
L 184.667927 443.805569 
L 186.17772 444.552013 
L 187.694902 445.283323 
L 189.21932 445.999425 
L 190.750824 446.700246 
L 192.289259 447.385718 
L 193.834471 448.055772 
L 195.386307 448.71034 
L 196.944611 449.349358 
L 198.509227 449.972761 
L 200.079998 450.580486 
L 201.656769 451.172474 
L 203.23938 451.748665 
L 204.827674 452.309001 
L 206.421491 452.853426 
L 208.020673 453.381887 
L 208.541133 451.780076 
z
" clip-path="url(#pf97404d900)" style="fill: none; stroke: #000000; stroke-width: 0.5; stroke-linejoin: miter"/>
   </g>
   <g id="patch_25">
    <path d="M 125.17106 391.208172 
L 124.197747 389.854338 
L 123.238021 388.490838 
L 122.291977 387.11781 
L 121.359711 385.73539 
L 120.441316 384.343717 
L 119.536883 382.94293 
L 118.646503 381.533168 
L 117.770264 380.114574 
L 116.908256 378.687288 
L 116.060563 377.251453 
L 115.22727 375.807213 
L 114.408461 374.354713 
L 113.604218 372.894098 
L 112.814621 371.425513 
L 112.03975 369.949106 
L 111.27968 368.465024 
L 110.53449 366.973416 
L 109.804252 365.47443 
L 109.089041 363.968217 
L 108.388927 362.454928 
L 107.70398 360.934713 
L 107.03427 359.407725 
L 106.379864 357.874116 
L 105.740825 356.33404 
L 105.117219 354.78765 
L 104.509108 353.235102 
L 103.916553 351.676551 
L 103.339612 350.112152 
L 102.778344 348.542062 
L 102.232805 346.966438 
L 101.703049 345.385437 
L 101.487369 344.726311 
L 99.885558 345.246771 
L 100.103416 345.912555 
L 100.638523 347.509525 
L 101.189573 349.101065 
L 101.75651 350.687014 
L 102.339279 352.267215 
L 102.93782 353.84151 
L 103.552073 355.40974 
L 104.181978 356.971749 
L 104.827471 358.527382 
L 105.488489 360.076482 
L 106.164963 361.618894 
L 106.856828 363.154465 
L 107.564014 364.68304 
L 108.28645 366.204467 
L 109.024063 367.718594 
L 109.776781 369.225269 
L 110.544528 370.724341 
L 111.327227 372.215662 
L 112.1248 373.699081 
L 112.937166 375.17445 
L 113.764246 376.641622 
L 114.605955 378.10045 
L 115.462211 379.550788 
L 116.332927 380.992491 
L 117.218016 382.425415 
L 118.11739 383.849416 
L 119.030959 385.264353 
L 119.958631 386.670084 
L 120.900314 388.066467 
L 121.855913 389.453364 
L 122.825334 390.830636 
L 123.808478 392.198145 
L 125.17106 391.208172 
z
" clip-path="url(#pf97404d900)" style="fill: none; stroke: #000000; stroke-width: 0.5; stroke-linejoin: miter"/>
   </g>
   <g id="patch_26">
    <path d="M 101.487369 344.726311 
L 100.980051 343.137968 
L 100.488642 341.544632 
L 100.01319 339.946461 
L 99.553744 338.343616 
L 99.110348 336.736256 
L 98.683049 335.124543 
L 98.271887 333.508637 
L 97.876905 331.888701 
L 97.498141 330.264896 
L 97.135635 328.637385 
L 96.789421 327.00633 
L 96.459535 325.371894 
L 96.146009 323.734241 
L 95.848875 322.093535 
L 95.568163 320.44994 
L 95.303901 318.80362 
L 95.056115 317.15474 
L 94.82483 315.503464 
L 94.610069 313.849958 
L 94.411853 312.194387 
L 94.230203 310.536917 
L 94.065136 308.877713 
L 93.916669 307.216941 
L 93.784817 305.554768 
L 93.669593 303.89136 
L 93.571009 302.226882 
L 93.489074 300.561502 
L 93.423797 298.895386 
L 93.375184 297.2287 
L 93.34324 295.561611 
L 93.327968 293.894287 
L 93.326525 293.200772 
L 91.642282 293.200772 
L 91.643738 293.901292 
L 91.659165 295.585458 
L 91.691431 297.269386 
L 91.740535 298.952907 
L 91.806472 300.635853 
L 91.889235 302.318055 
L 91.988815 303.999345 
L 92.105202 305.679556 
L 92.238386 307.358519 
L 92.388353 309.036066 
L 92.555087 310.712029 
L 92.738572 312.386242 
L 92.93879 314.058535 
L 93.15572 315.728744 
L 93.389342 317.396699 
L 93.639631 319.062235 
L 93.906562 320.725184 
L 94.19011 322.385381 
L 94.490245 324.04266 
L 94.806937 325.696855 
L 95.140156 327.3478 
L 95.489866 328.99533 
L 95.856035 330.639281 
L 96.238624 332.279488 
L 96.637596 333.915787 
L 97.052911 335.548015 
L 97.484527 337.176008 
L 97.932401 338.799604 
L 98.396488 340.41864 
L 98.876743 342.032954 
L 99.373116 343.642385 
L 99.885558 345.246771 
L 101.487369 344.726311 
z
" clip-path="url(#pf97404d900)" style="fill: none; stroke: #000000; stroke-width: 0.5; stroke-linejoin: miter"/>
   </g>
   <g id="patch_27">
    <path d="M 93.326525 293.200772 
L 93.334862 291.533399 
L 93.359872 289.866192 
L 93.401553 288.199318 
L 93.4599 286.532945 
L 93.534907 284.867238 
L 93.626568 283.202365 
L 93.734872 281.538492 
L 93.859809 279.875784 
L 94.001367 278.21441 
L 94.159532 276.554534 
L 94.334287 274.896322 
L 94.525615 273.239941 
L 94.733497 271.585556 
L 94.957912 269.933333 
L 95.198838 268.283436 
L 95.45625 266.636031 
L 95.730124 264.991282 
L 96.020431 263.349355 
L 96.327142 261.710412 
L 96.650227 260.074619 
L 96.989654 258.442138 
L 97.345388 256.813133 
L 97.717395 255.187766 
L 98.105636 253.566201 
L 98.510073 251.9486 
L 98.930665 250.335123 
L 99.367372 248.725933 
L 99.820147 247.121191 
L 100.288948 245.521056 
L 100.773726 243.92569 
L 101.274433 242.33525 
L 101.487369 241.675233 
L 99.885558 241.154773 
L 99.670471 241.821457 
L 99.164706 243.427961 
L 98.675031 245.039443 
L 98.201496 246.65574 
L 97.744146 248.276692 
L 97.303029 249.902137 
L 96.878188 251.531911 
L 96.469666 253.165852 
L 96.077503 254.803797 
L 95.701739 256.445581 
L 95.342411 258.091041 
L 94.999556 259.740011 
L 94.673207 261.392328 
L 94.363398 263.047825 
L 94.070158 264.706338 
L 93.793519 266.3677 
L 93.533506 268.031746 
L 93.290146 269.698308 
L 93.063464 271.367221 
L 92.853483 273.038317 
L 92.660222 274.711429 
L 92.483702 276.38639 
L 92.32394 278.063032 
L 92.180952 279.741189 
L 92.054753 281.420691 
L 91.945355 283.101371 
L 91.852768 284.783061 
L 91.777003 286.465593 
L 91.718067 288.148798 
L 91.675965 289.832509 
L 91.650703 291.516556 
L 91.642282 293.200772 
L 93.326525 293.200772 
z
" clip-path="url(#pf97404d900)" style="fill: none; stroke: #000000; stroke-width: 0.5; stroke-linejoin: miter"/>
   </g>
   <g id="patch_28">
    <path d="M 101.487369 241.675233 
L 102.010545 240.092043 
L 102.549526 238.514163 
L 103.104259 236.941752 
L 103.674688 235.374967 
L 104.260756 233.813965 
L 104.862404 232.258901 
L 105.479573 230.709931 
L 106.1122 229.16721 
L 106.760223 227.630893 
L 107.423576 226.101133 
L 108.102193 224.578082 
L 108.796007 223.061894 
L 109.504947 221.552719 
L 110.228944 220.050709 
L 110.967924 218.556014 
L 111.721814 217.068784 
L 112.490539 215.589167 
L 113.27402 214.117311 
L 114.072181 212.653363 
L 114.884942 211.197469 
L 115.71222 209.749776 
L 116.553934 208.310428 
L 117.409999 206.87957 
L 118.280329 205.457343 
L 119.164838 204.04389 
L 120.063437 202.639353 
L 120.976036 201.243872 
L 121.902544 199.857586 
L 122.842869 198.480635 
L 123.796916 197.113156 
L 124.764589 195.755286 
L 125.745793 194.40716 
L 126.740428 193.068913 
L 127.748397 191.740679 
L 128.769596 190.422591 
L 129.803926 189.114781 
L 130.851282 187.81738 
L 131.911559 186.530517 
L 132.984651 185.25432 
L 134.070452 183.988919 
L 135.168852 182.734438 
L 136.279742 181.491004 
L 137.40301 180.258741 
L 138.538545 179.037771 
L 139.686232 177.828219 
L 140.845957 176.630203 
L 142.017604 175.443844 
L 143.201057 174.269261 
L 144.396195 173.106571 
L 145.602901 171.95589 
L 146.821052 170.817333 
L 148.050529 169.691015 
L 149.291206 168.577048 
L 150.542961 167.475543 
L 151.805669 166.38661 
L 153.079202 165.310359 
L 154.363435 164.246896 
L 155.658237 163.196329 
L 156.96348 162.158762 
L 158.279033 161.1343 
L 159.604766 160.123044 
L 160.940544 159.125095 
L 162.286234 158.140554 
L 163.641703 157.169519 
L 165.006814 156.212087 
L 166.381431 155.268353 
L 167.765417 154.338413 
L 169.158632 153.422359 
L 170.560938 152.520283 
L 171.972195 151.632274 
L 173.392261 150.758422 
L 174.820994 149.898815 
L 176.258252 149.053537 
L 177.703891 148.222674 
L 179.157766 147.406309 
L 180.619732 146.604523 
L 182.089642 145.817397 
L 183.56735 145.045009 
L 185.052708 144.287436 
L 186.545567 143.544754 
L 188.045778 142.817038 
L 189.553192 142.10436 
L 191.067656 141.406792 
L 192.589021 140.724403 
L 194.117133 140.057262 
L 195.65184 139.405434 
L 197.192988 138.768986 
L 198.740424 138.147982 
L 200.293993 137.542482 
L 201.853538 136.952548 
L 203.418905 136.378239 
L 204.989936 135.819611 
L 206.566476 135.276722 
L 208.148365 134.749625 
L 208.541133 134.621469 
L 208.020673 133.019658 
L 207.623937 133.149109 
L 206.02607 133.68153 
L 204.433606 134.229903 
L 202.846705 134.794173 
L 201.265527 135.374283 
L 199.690228 135.970176 
L 198.120967 136.581792 
L 196.557901 137.209069 
L 195.001185 137.851946 
L 193.450976 138.510357 
L 191.907428 139.184238 
L 190.370697 139.87352 
L 188.840934 140.578134 
L 187.318295 141.298011 
L 185.80293 142.033077 
L 184.294991 142.783261 
L 182.79463 143.548486 
L 181.301995 144.328676 
L 179.817237 145.123753 
L 178.340504 145.933638 
L 176.871944 146.758249 
L 175.411703 147.597505 
L 173.959927 148.45132 
L 172.516762 149.319611 
L 171.082352 150.202289 
L 169.65684 151.099268 
L 168.240369 152.010456 
L 166.833081 152.935763 
L 165.435116 153.875097 
L 164.046614 154.828363 
L 162.667713 155.795466 
L 161.298553 156.776309 
L 159.93927 157.770795 
L 158.589999 158.778824 
L 157.250876 159.800295 
L 155.922034 160.835106 
L 154.603606 161.883153 
L 153.295725 162.944332 
L 151.998521 164.018536 
L 150.712123 165.105659 
L 149.436661 166.205591 
L 148.172262 167.318222 
L 146.919052 168.443442 
L 145.677157 169.581137 
L 144.446701 170.731194 
L 143.227806 171.893498 
L 142.020596 173.067932 
L 140.82519 174.25438 
L 139.641708 175.452722 
L 138.470268 176.662839 
L 137.310988 177.88461 
L 136.163983 179.117912 
L 135.029369 180.362622 
L 133.907258 181.618616 
L 132.797763 182.885769 
L 131.700994 184.163952 
L 130.617063 185.453039 
L 129.546076 186.752901 
L 128.488141 188.063408 
L 127.443363 189.384428 
L 126.411848 190.71583 
L 125.393699 192.05748 
L 124.389016 193.409244 
L 123.397901 194.770988 
L 122.420453 196.142574 
L 121.45677 197.523866 
L 120.506947 198.914726 
L 119.57108 200.315014 
L 118.649263 201.724591 
L 117.741587 203.143315 
L 116.848144 204.571045 
L 115.969022 206.007638 
L 115.10431 207.45295 
L 114.254094 208.906837 
L 113.41846 210.369153 
L 112.59749 211.839752 
L 111.791266 213.318488 
L 110.999871 214.805211 
L 110.223381 216.299774 
L 109.461876 217.802027 
L 108.715431 219.31182 
L 107.984122 220.829001 
L 107.26802 222.35342 
L 106.567198 223.884924 
L 105.881726 225.423358 
L 105.211673 226.968571 
L 104.557104 228.520407 
L 103.918087 230.078711 
L 103.294684 231.643326 
L 102.686958 233.214098 
L 102.094971 234.790868 
L 101.51878 236.373479 
L 100.958444 237.961773 
L 100.414018 239.555591 
L 99.885558 241.154773 
L 101.487369 241.675233 
z
" clip-path="url(#pf97404d900)" style="fill: none; stroke: #000000; stroke-width: 0.5; stroke-linejoin: miter"/>
   </g>
   <g id="patch_29">
    <path d="M 208.541133 134.621469 
L 210.129476 134.114151 
L 211.722813 133.622742 
L 213.320984 133.14729 
L 214.923829 132.687843 
L 216.531189 132.244448 
L 218.142902 131.817148 
L 219.758807 131.405987 
L 221.378744 131.011004 
L 223.002549 130.632241 
L 224.63006 130.269734 
L 226.261115 129.923521 
L 227.895551 129.593634 
L 229.533203 129.280109 
L 231.173909 128.982975 
L 232.817505 128.702263 
L 234.463825 128.438001 
L 236.112705 128.190215 
L 237.763981 127.95893 
L 239.417487 127.744168 
L 241.073058 127.545953 
L 242.730528 127.364302 
L 244.389732 127.199236 
L 246.050503 127.050769 
L 247.712677 126.918917 
L 249.376085 126.803693 
L 251.040563 126.705109 
L 252.705943 126.623174 
L 254.372059 126.557897 
L 256.038745 126.509283 
L 257.705833 126.477339 
L 259.373158 126.462067 
L 260.066673 126.460625 
L 260.066673 124.776381 
L 259.366153 124.777838 
L 257.681987 124.793264 
L 255.998059 124.825531 
L 254.314538 124.874635 
L 252.631592 124.940572 
L 250.94939 125.023334 
L 249.268099 125.122914 
L 247.587889 125.239302 
L 245.908926 125.372486 
L 244.231379 125.522452 
L 242.555416 125.689187 
L 240.881203 125.872672 
L 239.208909 126.07289 
L 237.538701 126.28982 
L 235.870746 126.523441 
L 234.20521 126.773731 
L 232.542261 127.040662 
L 230.882063 127.32421 
L 229.224785 127.624345 
L 227.57059 127.941037 
L 225.919645 128.274255 
L 224.272115 128.623966 
L 222.628164 128.990135 
L 220.987957 129.372724 
L 219.351657 129.771696 
L 217.71943 130.187011 
L 216.091436 130.618627 
L 214.467841 131.066501 
L 212.848805 131.530588 
L 211.234491 132.010842 
L 209.62506 132.507215 
L 208.020673 133.019658 
L 208.541133 134.621469 
z
" clip-path="url(#pf97404d900)" style="fill: none; stroke: #000000; stroke-width: 0.5; stroke-linejoin: miter"/>
   </g>
   <g id="text_1">
    <text style="font: 3px 'DejaVu Sans', 'Bitstream Vera Sans', 'Computer Modern Sans Serif', 'Lucida Grande', 'Verdana', 'Geneva', 'Lucid', 'Arial', 'Helvetica', 'Avant Garde', sans-serif; text-anchor: start" x="287.803259" y="125.364756" transform="rotate(-81 287.803259 125.364756)">National Academy of Sciences of the Republic of Kyrgyzstan</text>
   </g>
   <g id="text_2">
    <text style="font: 3px 'DejaVu Sans', 'Bitstream Vera Sans', 'Computer Modern Sans Serif', 'Lucida Grande', 'Verdana', 'Geneva', 'Lucid', 'Arial', 'Helvetica', 'Avant Garde', sans-serif; text-anchor: start" x="338.309915" y="142.150312" transform="rotate(-63 338.309915 142.150312)">Kyrgyz Economic University</text>
   </g>
   <g id="text_3">
    <text style="font: 3px 'DejaVu Sans', 'Bitstream Vera Sans', 'Computer Modern Sans Serif', 'Lucida Grande', 'Verdana', 'Geneva', 'Lucid', 'Arial', 'Helvetica', 'Avant Garde', sans-serif; text-anchor: start" x="398.357386" y="194.135515" transform="rotate(-36 398.357386 194.135515)">Kyrgyz State Medical Academy</text>
   </g>
   <g id="text_4">
    <text style="font: 3px 'DejaVu Sans', 'Bitstream Vera Sans', 'Computer Modern Sans Serif', 'Lucida Grande', 'Verdana', 'Geneva', 'Lucid', 'Arial', 'Helvetica', 'Avant Garde', sans-serif; text-anchor: start" x="428.259286" y="267.715652" transform="rotate(-9 428.259286 267.715652)">Kyrgyz-Russian Slavic University named after B.N. Yeltsin</text>
   </g>
   <g id="text_5">
    <text style="font: 3px 'DejaVu Sans', 'Bitstream Vera Sans', 'Computer Modern Sans Serif', 'Lucida Grande', 'Verdana', 'Geneva', 'Lucid', 'Arial', 'Helvetica', 'Avant Garde', sans-serif; text-anchor: start" x="427.902689" y="320.937359" transform="rotate(-351 427.902689 320.937359)">International Atatrk-Alatoo University</text>
   </g>
   <g id="text_6">
    <text style="font: 3px 'DejaVu Sans', 'Bitstream Vera Sans', 'Computer Modern Sans Serif', 'Lucida Grande', 'Verdana', 'Geneva', 'Lucid', 'Arial', 'Helvetica', 'Avant Garde', sans-serif; text-anchor: start" x="411.117133" y="371.444015" transform="rotate(-333 411.117133 371.444015)">National Center of Cardiology and Internal Medicine</text>
   </g>
   <g id="text_7">
    <text style="font: 3px 'DejaVu Sans', 'Bitstream Vera Sans', 'Computer Modern Sans Serif', 'Lucida Grande', 'Verdana', 'Geneva', 'Lucid', 'Arial', 'Helvetica', 'Avant Garde', sans-serif; text-anchor: start" x="336.278838" y="445.286118" transform="rotate(-297 336.278838 445.286118)">Kyrgyz National University</text>
   </g>
   <g id="text_8">
    <text style="font: 3px 'DejaVu Sans', 'Bitstream Vera Sans', 'Computer Modern Sans Serif', 'Lucida Grande', 'Verdana', 'Geneva', 'Lucid', 'Arial', 'Helvetica', 'Avant Garde', sans-serif; text-anchor: end" x="234.581552" y="461.393386" transform="rotate(-81 234.581552 461.393386)">Kyrgyz State University of Construction, Transport and Architecture named after N. Isanov</text>
   </g>
   <g id="text_9">
    <text style="font: 3px 'DejaVu Sans', 'Bitstream Vera Sans', 'Computer Modern Sans Serif', 'Lucida Grande', 'Verdana', 'Geneva', 'Lucid', 'Arial', 'Helvetica', 'Avant Garde', sans-serif; text-anchor: end" x="161.001415" y="431.491486" transform="rotate(-54 161.001415 431.491486)">International Higher School of Medicine</text>
   </g>
   <g id="text_10">
    <text style="font: 3px 'DejaVu Sans', 'Bitstream Vera Sans', 'Computer Modern Sans Serif', 'Lucida Grande', 'Verdana', 'Geneva', 'Lucid', 'Arial', 'Helvetica', 'Avant Garde', sans-serif; text-anchor: end" x="109.016212" y="371.444015" transform="rotate(-27 109.016212 371.444015)">University of Central Asia</text>
   </g>
   <g id="text_11">
    <text style="font: 3px 'DejaVu Sans', 'Bitstream Vera Sans', 'Computer Modern Sans Serif', 'Lucida Grande', 'Verdana', 'Geneva', 'Lucid', 'Arial', 'Helvetica', 'Avant Garde', sans-serif; text-anchor: end" x="92.230656" y="320.937359" transform="rotate(-9 92.230656 320.937359)">Issyk-Kul State University</text>
   </g>
   <g id="text_12">
    <text style="font: 3px 'DejaVu Sans', 'Bitstream Vera Sans', 'Computer Modern Sans Serif', 'Lucida Grande', 'Verdana', 'Geneva', 'Lucid', 'Arial', 'Helvetica', 'Avant Garde', sans-serif; text-anchor: end" x="91.874059" y="267.715652" transform="rotate(-351 91.874059 267.715652)">International University of Kyrgyzstan</text>
   </g>
   <g id="text_13">
    <text style="font: 3px 'DejaVu Sans', 'Bitstream Vera Sans', 'Computer Modern Sans Serif', 'Lucida Grande', 'Verdana', 'Geneva', 'Lucid', 'Arial', 'Helvetica', 'Avant Garde', sans-serif; text-anchor: end" x="138.975767" y="173.721739" transform="rotate(-315 138.975767 173.721739)">Osh State University</text>
   </g>
   <g id="text_14">
    <text style="font: 3px 'DejaVu Sans', 'Bitstream Vera Sans', 'Computer Modern Sans Serif', 'Lucida Grande', 'Verdana', 'Geneva', 'Lucid', 'Arial', 'Helvetica', 'Avant Garde', sans-serif; text-anchor: end" x="232.330086" y="125.364756" transform="rotate(-279 232.330086 125.364756)">Kyrgyz State Technical University</text>
   </g>
  </g>
 </g>
 <defs>
  <clipPath id="pf97404d900">
   <path d="M 436.912283 293.200772 
C 436.912283 269.977619 432.337828 246.980283 423.450712 225.524887 
C 414.563597 204.069491 401.536652 184.573291 385.115403 168.152042 
C 368.694154 151.730793 349.197953 138.703848 327.742558 129.816732 
C 306.287162 120.929616 283.289825 116.355162 260.066673 116.355162 
C 236.84352 116.355162 213.846183 120.929616 192.390787 129.816732 
C 170.935392 138.703848 151.439191 151.730793 135.017942 168.152042 
C 118.596693 184.573291 105.569748 204.069491 96.682633 225.524887 
C 87.795517 246.980283 83.221062 269.977619 83.221062 293.200772 
C 83.221062 316.423925 87.795517 339.421262 96.682633 360.876657 
C 105.569748 382.332053 118.596693 401.828254 135.017942 418.249503 
C 151.439191 434.670751 170.935392 447.697696 192.390787 456.584812 
C 213.846183 465.471928 236.84352 470.046383 260.066673 470.046383 
C 283.289825 470.046383 306.287162 465.471928 327.742558 456.584812 
C 349.197953 447.697696 368.694154 434.670751 385.115403 418.249503 
C 401.536652 401.828254 414.563597 382.332053 423.450712 360.876657 
C 432.337828 339.421262 436.912283 316.423925 436.912283 293.200772 
M 260.066673 293.200772 
C 260.066673 293.200772 260.066673 293.200772 260.066673 293.200772 
C 260.066673 293.200772 260.066673 293.200772 260.066673 293.200772 
C 260.066673 293.200772 260.066673 293.200772 260.066673 293.200772 
C 260.066673 293.200772 260.066673 293.200772 260.066673 293.200772 
C 260.066673 293.200772 260.066673 293.200772 260.066673 293.200772 
C 260.066673 293.200772 260.066673 293.200772 260.066673 293.200772 
C 260.066673 293.200772 260.066673 293.200772 260.066673 293.200772 
C 260.066673 293.200772 260.066673 293.200772 260.066673 293.200772 
C 260.066673 293.200772 260.066673 293.200772 260.066673 293.200772 
C 260.066673 293.200772 260.066673 293.200772 260.066673 293.200772 
C 260.066673 293.200772 260.066673 293.200772 260.066673 293.200772 
C 260.066673 293.200772 260.066673 293.200772 260.066673 293.200772 
C 260.066673 293.200772 260.066673 293.200772 260.066673 293.200772 
C 260.066673 293.200772 260.066673 293.200772 260.066673 293.200772 
C 260.066673 293.200772 260.066673 293.200772 260.066673 293.200772 
C 260.066673 293.200772 260.066673 293.200772 260.066673 293.200772 
z
"/>
  </clipPath>
 </defs>
</svg>
