<?xml version="1.0" encoding="utf-8" standalone="no"?>
<!DOCTYPE svg PUBLIC "-//W3C//DTD SVG 1.1//EN"
  "http://www.w3.org/Graphics/SVG/1.1/DTD/svg11.dtd">
<svg xmlns:xlink="http://www.w3.org/1999/xlink" width="617.059789pt" height="623.832211pt" viewBox="0 0 617.059789 623.832211" xmlns="http://www.w3.org/2000/svg" version="1.1">
 <metadata>
  <rdf:RDF xmlns:dc="http://purl.org/dc/elements/1.1/" xmlns:cc="http://creativecommons.org/ns#" xmlns:rdf="http://www.w3.org/1999/02/22-rdf-syntax-ns#">
   <cc:Work>
    <dc:type rdf:resource="http://purl.org/dc/dcmitype/StillImage"/>
    <dc:date>2024-11-16T04:11:37.629333</dc:date>
    <dc:format>image/svg+xml</dc:format>
    <dc:creator>
     <cc:Agent>
      <dc:title>Matplotlib v3.8.4, https://matplotlib.org/</dc:title>
     </cc:Agent>
    </dc:creator>
   </cc:Work>
  </rdf:RDF>
 </metadata>
 <defs>
  <style type="text/css">*{stroke-linejoin: round; stroke-linecap: butt}</style>
 </defs>
 <g id="figure_1">
  <g id="patch_1">
   <path d="M 0 623.832211 
L 617.059789 623.832211 
L 617.059789 0 
L 0 0 
z
" style="fill: #ffffff"/>
  </g>
  <g id="axes_1">
   <g id="patch_2">
    <path d="M 322.406962 109.393335 
L 324.728759 109.404944 
L 327.050324 109.439771 
L 329.371424 109.49781 
L 331.691828 109.579057 
L 334.011304 109.683504 
L 336.329619 109.81114 
L 338.646542 109.961953 
L 340.961841 110.135927 
L 343.275284 110.333044 
L 345.586641 110.553286 
L 347.89568 110.79663 
L 350.20217 111.063052 
L 352.50588 111.352525 
L 354.806581 111.66502 
L 357.104041 112.000507 
L 359.398032 112.35895 
L 361.688324 112.740316 
L 363.974688 113.144565 
L 366.256895 113.571656 
L 368.534717 114.021549 
L 370.807926 114.494196 
L 373.076295 114.989552 
L 375.339598 115.507566 
L 377.597607 116.048187 
L 379.850097 116.61136 
L 382.096843 117.19703 
L 384.33762 117.805138 
L 386.572203 118.435623 
L 388.800371 119.088422 
L 391.021899 119.763469 
L 393.236566 120.460697 
L 395.44415 121.180037 
L 397.64443 121.921417 
L 399.837186 122.684762 
L 402.0222 123.469995 
L 404.199252 124.27704 
L 406.368125 125.105814 
L 408.528601 125.956235 
L 410.680466 126.828218 
L 412.823504 127.721676 
L 414.957499 128.636519 
L 417.08224 129.572656 
L 419.197514 130.529993 
L 421.303108 131.508434 
L 423.398813 132.507883 
L 425.484419 133.528238 
L 427.559717 134.569398 
L 429.6245 135.631258 
L 431.678562 136.713713 
L 433.721696 137.816653 
L 435.753699 138.93997 
L 437.774367 140.08355 
L 439.783499 141.24728 
L 441.780893 142.431042 
L 443.76635 143.634719 
L 445.739671 144.858189 
L 447.700659 146.101332 
L 449.649117 147.364022 
L 451.584852 148.646132 
L 453.507668 149.947536 
L 455.417375 151.268103 
L 457.313781 152.6077 
L 459.196696 153.966194 
L 461.065933 155.343449 
L 462.921303 156.739327 
L 464.762623 158.153689 
L 466.589707 159.586393 
L 468.402372 161.037296 
L 470.200439 162.506253 
L 471.983726 163.993116 
L 473.752055 165.497738 
L 475.50525 167.019968 
L 477.243136 168.559653 
L 478.965538 170.11664 
L 480.672284 171.690772 
L 482.363204 173.281893 
L 484.038128 174.889844 
L 485.69689 176.514463 
L 487.339322 178.155588 
L 488.965261 179.813055 
L 490.574545 181.486698 
L 492.167012 183.176351 
L 493.742504 184.881843 
L 495.300861 186.603004 
L 496.84193 188.339663 
L 498.365555 190.091646 
L 499.871585 191.858776 
L 501.359868 193.640879 
L 502.830256 195.437775 
L 504.282602 197.249285 
L 505.71676 199.075227 
L 507.132588 200.915419 
L 508.529943 202.769678 
L 509.908686 204.637817 
L 511.268679 206.51965 
L 512.609786 208.414988 
L 513.931873 210.323643 
L 515.234808 212.245423 
L 516.51846 214.180136 
L 517.782701 216.127588 
L 519.027404 218.087585 
L 520.252446 220.059931 
L 521.457704 222.044429 
L 522.643056 224.04088 
L 523.808385 226.049084 
L 524.953574 228.068841 
L 526.078508 230.099949 
L 527.183076 232.142204 
L 528.267166 234.195403 
L 529.33067 236.25934 
L 530.373482 238.333808 
L 531.395498 240.418601 
L 532.396615 242.513509 
L 533.376733 244.618324 
L 534.335754 246.732834 
L 535.273583 248.856829 
L 536.190125 250.990096 
L 537.085289 253.132421 
L 537.958985 255.283591 
L 538.811126 257.44339 
L 539.641627 259.611602 
L 540.450405 261.788011 
L 541.237379 263.972398 
L 542.002469 266.164546 
L 542.745601 268.364235 
L 543.466698 270.571245 
L 544.16569 272.785356 
L 544.842506 275.006346 
L 545.497079 277.233993 
L 546.129343 279.468074 
L 546.739235 281.708366 
L 547.326694 283.954645 
L 547.891661 286.206686 
L 548.43408 288.464263 
L 548.953896 290.727153 
L 549.451058 292.995127 
L 549.925516 295.267959 
L 550.377222 297.545422 
L 550.806131 299.827288 
L 551.2122 302.113329 
L 551.595389 304.403317 
L 551.95566 306.697021 
L 552.292975 308.994214 
L 552.607303 311.294665 
L 552.89861 313.598144 
L 553.166869 315.904421 
L 553.412051 318.213265 
L 553.634134 320.524446 
L 553.833094 322.837732 
L 554.008911 325.152891 
L 554.161568 327.469693 
L 554.291051 329.787906 
L 554.397344 332.107298 
L 554.48044 334.427637 
L 554.540328 336.74869 
L 554.577002 339.070226 
L 554.59046 341.392014 
L 554.5807 343.713819 
L 554.547723 346.035411 
L 554.491532 348.356557 
L 554.412132 350.677025 
L 554.309532 352.996583 
L 554.183742 355.314999 
L 554.034775 357.632041 
L 553.862645 359.947478 
L 553.66737 362.261078 
L 553.448969 364.572609 
L 553.207463 366.881841 
L 552.942878 369.188542 
L 552.65524 371.492482 
L 552.344577 373.793431 
L 552.01092 376.091158 
L 551.654303 378.385434 
L 551.274762 380.676029 
L 550.872334 382.962713 
L 550.44706 385.24526 
L 549.998981 387.523439 
L 549.528144 389.797024 
L 549.034595 392.065787 
L 548.518383 394.329501 
L 547.979561 396.58794 
L 547.418181 398.840878 
L 546.834301 401.08809 
L 546.227977 403.32935 
L 545.599272 405.564435 
L 544.948248 407.793122 
L 544.27497 410.015187 
L 543.579505 412.230408 
L 542.861924 414.438564 
L 542.122296 416.639434 
L 541.360698 418.832798 
L 540.577204 421.018436 
L 539.771894 423.19613 
L 538.944847 425.365662 
L 538.096147 427.526815 
L 537.225878 429.679374 
L 536.334127 431.823122 
L 535.420983 433.957846 
L 534.486539 436.083331 
L 533.530886 438.199367 
L 532.554122 440.30574 
L 531.556343 442.40224 
L 530.537649 444.488657 
L 529.498142 446.564784 
L 528.437926 448.630412 
L 527.357108 450.685335 
L 526.255794 452.729347 
L 525.134096 454.762243 
L 523.992125 456.783822 
L 522.829996 458.793879 
L 521.647825 460.792216 
L 520.44573 462.77863 
L 519.223831 464.752925 
L 517.98225 466.714902 
L 516.721113 468.664365 
L 515.440544 470.60112 
L 514.140671 472.524973 
L 512.821626 474.435731 
L 511.483539 476.333203 
L 510.126545 478.217199 
L 508.750779 480.087532 
L 507.356379 481.944013 
L 505.943484 483.786458 
L 504.512235 485.614683 
L 503.062776 487.428503 
L 501.595252 489.227739 
L 500.109809 491.012209 
L 498.606595 492.781736 
L 497.085762 494.536143 
L 495.547462 496.275254 
L 493.991847 497.998895 
L 492.419074 499.706895 
L 490.8293 501.399081 
L 490.228055 502.030302 
L 491.923218 503.651043 
L 492.530536 503.013446 
L 494.136368 501.304167 
L 495.725028 499.578916 
L 497.296356 497.837864 
L 498.850195 496.081186 
L 500.38639 494.309058 
L 501.904787 492.521657 
L 503.405234 490.719161 
L 504.887582 488.901752 
L 506.351682 487.06961 
L 507.797388 485.222918 
L 509.224555 483.361863 
L 510.63304 481.486629 
L 512.022702 479.597404 
L 513.393404 477.694377 
L 514.745006 475.777739 
L 516.077375 473.847681 
L 517.390378 471.904395 
L 518.683882 469.948077 
L 519.957758 467.978922 
L 521.21188 465.997127 
L 522.446121 464.00289 
L 523.660359 461.996411 
L 524.854471 459.977889 
L 526.028339 457.947528 
L 527.181845 455.90553 
L 528.314873 453.852099 
L 529.427311 451.78744 
L 530.519047 449.711761 
L 531.589972 447.625268 
L 532.639979 445.52817 
L 533.668963 443.420677 
L 534.67682 441.303 
L 535.663451 439.175351 
L 536.628757 437.037942 
L 537.57264 434.890986 
L 538.495007 432.7347 
L 539.395766 430.569298 
L 540.274825 428.394996 
L 541.132099 426.212013 
L 541.967499 424.020566 
L 542.780944 421.820875 
L 543.572352 419.61316 
L 544.341643 417.397641 
L 545.088741 415.17454 
L 545.813571 412.94408 
L 546.516061 410.706483 
L 547.19614 408.461973 
L 547.85374 406.210774 
L 548.488796 403.953112 
L 549.101243 401.689213 
L 549.691022 399.419302 
L 550.258072 397.143607 
L 550.802337 394.862356 
L 551.323763 392.575776 
L 551.822298 390.284096 
L 552.297891 387.987546 
L 552.750495 385.686354 
L 553.180065 383.380752 
L 553.586558 381.070969 
L 553.969933 378.757237 
L 554.330152 376.439787 
L 554.667179 374.118851 
L 554.98098 371.79466 
L 555.271524 369.467448 
L 555.538782 367.137446 
L 555.782726 364.804889 
L 556.003333 362.470009 
L 556.200581 360.133039 
L 556.37445 357.794214 
L 556.524922 355.453768 
L 556.651982 353.111933 
L 556.755619 350.768945 
L 556.83582 348.425038 
L 556.892579 346.080446 
L 556.925889 343.735404 
L 556.935748 341.390146 
L 556.922154 339.044906 
L 556.885109 336.69992 
L 556.824616 334.355422 
L 556.740682 332.011645 
L 556.633314 329.668825 
L 556.502524 327.327196 
L 556.348325 324.986992 
L 556.170731 322.648447 
L 555.969762 320.311795 
L 555.745436 317.977269 
L 555.497777 315.645103 
L 555.226809 313.31553 
L 554.932559 310.988784 
L 554.615056 308.665096 
L 554.274333 306.344699 
L 553.910424 304.027826 
L 553.523364 301.714707 
L 553.113193 299.405575 
L 552.679952 297.100659 
L 552.223683 294.800192 
L 551.744433 292.504402 
L 551.242249 290.213519 
L 550.717182 287.927772 
L 550.169284 285.64739 
L 549.598611 283.372602 
L 549.005218 281.103633 
L 548.389165 278.840712 
L 547.750515 276.584064 
L 547.08933 274.333916 
L 546.405677 272.090492 
L 545.699625 269.854016 
L 544.971243 267.624713 
L 544.220606 265.402805 
L 543.447787 263.188514 
L 542.652864 260.982062 
L 541.835917 258.78367 
L 540.997027 256.593556 
L 540.136278 254.411941 
L 539.253757 252.239042 
L 538.349551 250.075077 
L 537.42375 247.920263 
L 536.476449 245.774813 
L 535.50774 243.638944 
L 534.517722 241.512869 
L 533.506493 239.3968 
L 532.474154 237.290949 
L 531.420809 235.195526 
L 530.346562 233.110741 
L 529.251521 231.036803 
L 528.135797 228.973919 
L 526.999499 226.922295 
L 525.842743 224.882137 
L 524.665643 222.853647 
L 523.468317 220.83703 
L 522.250885 218.832487 
L 521.01347 216.840218 
L 519.756193 214.860423 
L 518.479182 212.8933 
L 517.182564 210.939044 
L 515.866468 208.997852 
L 514.531027 207.069919 
L 513.176373 205.155435 
L 511.802643 203.254594 
L 510.409973 201.367585 
L 508.998503 199.494596 
L 507.568374 197.635816 
L 506.11973 195.79143 
L 504.652713 193.961622 
L 503.167473 192.146576 
L 501.664157 190.346472 
L 500.142915 188.561491 
L 498.603899 186.791812 
L 497.047264 185.037611 
L 495.473166 183.299064 
L 493.88176 181.576345 
L 492.273208 179.869626 
L 490.647669 178.179077 
L 489.005306 176.504868 
L 487.346283 174.847165 
L 485.670766 173.206136 
L 483.978923 171.581944 
L 482.270924 169.974751 
L 480.546938 168.384718 
L 478.807138 166.812004 
L 477.051698 165.256766 
L 475.280794 163.719161 
L 473.494602 162.199341 
L 471.693302 160.697458 
L 469.877073 159.213664 
L 468.046098 157.748105 
L 466.200559 156.300929 
L 464.34064 154.872281 
L 462.466528 153.462303 
L 460.578411 152.071137 
L 458.676476 150.69892 
L 456.760915 149.345792 
L 454.831918 148.011886 
L 452.889679 146.697337 
L 450.934391 145.402275 
L 448.966251 144.126831 
L 446.985456 142.871132 
L 444.992202 141.635303 
L 442.98669 140.419468 
L 440.96912 139.223748 
L 438.939694 138.048264 
L 436.898615 136.893132 
L 434.846087 135.758469 
L 432.782315 134.644387 
L 430.707506 133.550999 
L 428.621866 132.478413 
L 426.525606 131.426736 
L 424.418933 130.396074 
L 422.302059 129.386531 
L 420.175196 128.398206 
L 418.038556 127.431199 
L 415.892353 126.485606 
L 413.736802 125.561522 
L 411.572118 124.659039 
L 409.398517 123.778249 
L 407.216217 122.919237 
L 405.025436 122.082092 
L 402.826394 121.266895 
L 400.61931 120.47373 
L 398.404404 119.702674 
L 396.181899 118.953806 
L 393.952016 118.2272 
L 391.714979 117.522929 
L 389.471011 116.841063 
L 387.220337 116.18167 
L 384.963182 115.544817 
L 382.699771 114.930567 
L 380.430331 114.338981 
L 378.155088 113.770119 
L 375.874271 113.224037 
L 373.588107 112.700791 
L 371.296825 112.200431 
L 369.000654 111.72301 
L 366.699823 111.268573 
L 364.394564 110.837167 
L 362.085105 110.428835 
L 359.771679 110.043617 
L 357.454517 109.681553 
L 355.13385 109.342678 
L 352.80991 109.027026 
L 350.482929 108.734629 
L 348.153142 108.465516 
L 345.820779 108.219714 
L 343.486076 107.997248 
L 341.149264 107.798139 
L 338.810578 107.622408 
L 336.470252 107.470072 
L 334.128519 107.341147 
L 331.785615 107.235645 
L 329.441772 107.153577 
L 327.097226 107.094951 
L 324.752211 107.059773 
L 322.406962 107.048047 
z
" clip-path="url(#p77e18f2f62)" style="fill: #000080"/>
   </g>
   <g id="patch_3">
    <path d="M 490.228055 502.030302 
L 488.615157 503.700462 
L 486.985638 505.35441 
L 485.339662 506.991981 
L 483.677392 508.61301 
L 481.998995 510.217336 
L 480.304639 511.804798 
L 478.594494 513.375237 
L 476.86873 514.928496 
L 475.169525 516.427731 
L 476.712582 518.1939 
L 478.42895 516.679522 
L 480.172146 515.110573 
L 481.899566 513.524271 
L 483.611036 511.920774 
L 485.306386 510.300243 
L 486.985446 508.66284 
L 488.648049 507.008729 
L 490.294028 505.338074 
L 491.923218 503.651043 
z
" clip-path="url(#p77e18f2f62)" style="fill: #0000ff"/>
   </g>
   <g id="patch_4">
    <path d="M 475.169525 516.427731 
L 473.413408 517.946588 
L 471.642191 519.447809 
L 469.85605 520.931243 
L 468.055164 522.396742 
L 466.239713 523.844159 
L 464.409879 525.273349 
L 462.565846 526.68417 
L 460.707796 528.07648 
L 458.835916 529.45014 
L 456.950394 530.805013 
L 455.051417 532.140964 
L 453.139176 533.457858 
L 451.213862 534.755565 
L 449.275667 536.033953 
L 447.324786 537.292896 
L 445.361413 538.532268 
L 443.385745 539.751945 
L 441.397978 540.951804 
L 439.398313 542.131725 
L 437.386949 543.291592 
L 435.364087 544.431287 
L 433.329929 545.550696 
L 431.284679 546.649709 
L 429.228541 547.728214 
L 427.161721 548.786105 
L 425.084426 549.823275 
L 422.996863 550.83962 
L 420.899242 551.835039 
L 418.791771 552.809433 
L 416.674662 553.762703 
L 414.548126 554.694755 
L 412.412376 555.605496 
L 410.267625 556.494834 
L 408.114089 557.36268 
L 405.951982 558.208948 
L 403.78152 559.033552 
L 401.602921 559.836412 
L 399.416403 560.617445 
L 397.222184 561.376575 
L 395.020483 562.113725 
L 392.811521 562.828821 
L 390.595518 563.521792 
L 388.372697 564.192569 
L 386.143279 564.841085 
L 383.907488 565.467275 
L 381.665547 566.071075 
L 379.417679 566.652426 
L 377.164111 567.21127 
L 374.905067 567.747551 
L 372.640774 568.261215 
L 370.371457 568.752211 
L 368.097343 569.220489 
L 365.818661 569.666003 
L 363.535638 570.088708 
L 361.248501 570.488563 
L 358.957481 570.865526 
L 356.662805 571.219561 
L 354.364704 571.550632 
L 352.063407 571.858705 
L 349.759145 572.143751 
L 347.452147 572.40574 
L 345.142645 572.644646 
L 342.83087 572.860446 
L 340.517052 573.053118 
L 338.201423 573.222642 
L 335.884214 573.369001 
L 333.565658 573.492182 
L 331.245986 573.592172 
L 328.92543 573.66896 
L 326.604222 573.722539 
L 324.282595 573.752904 
L 321.96078 573.760051 
L 319.639009 573.74398 
L 317.317516 573.704693 
L 314.996531 573.642193 
L 312.676287 573.556487 
L 310.357017 573.447583 
L 308.038951 573.315492 
L 305.722322 573.160227 
L 303.407362 572.981805 
L 301.094302 572.780242 
L 298.783372 572.555558 
L 296.474805 572.307778 
L 294.168832 572.036924 
L 291.865682 571.743024 
L 289.565586 571.426109 
L 287.268775 571.086208 
L 284.975477 570.723356 
L 282.685922 570.337591 
L 280.400339 569.928949 
L 278.118957 569.497472 
L 275.842004 569.043204 
L 273.569707 568.566189 
L 271.302294 568.066475 
L 269.039991 567.544112 
L 266.783025 566.999153 
L 264.531622 566.431652 
L 262.286005 565.841666 
L 260.046401 565.229253 
L 257.813033 564.594475 
L 255.586124 563.937396 
L 253.365897 563.258081 
L 251.152575 562.556598 
L 248.946377 561.833017 
L 246.747526 561.08741 
L 244.55624 560.319853 
L 242.37274 559.530422 
L 240.197243 558.719195 
L 238.029966 557.886255 
L 235.871128 557.031684 
L 233.720943 556.155567 
L 231.579626 555.257993 
L 229.447392 554.339051 
L 227.324454 553.398832 
L 225.211024 552.437432 
L 223.107314 551.454946 
L 221.013533 550.451472 
L 218.929892 549.427111 
L 216.856599 548.381965 
L 214.79386 547.316139 
L 212.741883 546.229739 
L 210.700872 545.122874 
L 208.671031 543.995655 
L 206.652564 542.848194 
L 204.645673 541.680605 
L 202.650557 540.493007 
L 200.667417 539.285517 
L 198.696451 538.058257 
L 196.737855 536.811348 
L 194.791827 535.544916 
L 192.85856 534.259088 
L 190.938248 532.953992 
L 189.031082 531.629758 
L 187.137254 530.286518 
L 185.256953 528.924409 
L 183.390366 527.543564 
L 181.537681 526.144123 
L 179.699083 524.726225 
L 177.874756 523.290013 
L 176.064882 521.835629 
L 174.269642 520.36322 
L 172.489215 518.872932 
L 170.72378 517.364915 
L 168.973514 515.839319 
L 167.23859 514.296297 
L 165.519184 512.736004 
L 163.815465 511.158594 
L 162.127606 509.564227 
L 160.455775 507.95306 
L 158.800139 506.325257 
L 157.160863 504.680978 
L 155.538112 503.02039 
L 153.932047 501.343657 
L 152.34283 499.650948 
L 150.770619 497.942431 
L 149.215572 496.218278 
L 147.677843 494.478661 
L 146.157587 492.723754 
L 144.654957 490.953732 
L 143.170101 489.168773 
L 141.703168 487.369055 
L 140.254306 485.554757 
L 138.823659 483.726062 
L 137.411371 481.883153 
L 136.017581 480.026212 
L 134.642431 478.155427 
L 133.286056 476.270984 
L 131.948594 474.373072 
L 130.630177 472.46188 
L 129.330938 470.5376 
L 128.051007 468.600424 
L 126.79051 466.650546 
L 125.549575 464.68816 
L 124.328326 462.713464 
L 123.126885 460.726654 
L 121.945371 458.727929 
L 120.783903 456.717489 
L 119.642598 454.695535 
L 118.521569 452.662269 
L 117.420928 450.617895 
L 116.340785 448.562617 
L 115.281249 446.49664 
L 114.242425 444.420172 
L 113.224418 442.333419 
L 112.227329 440.23659 
L 111.251257 438.129896 
L 110.296301 436.013547 
L 109.362556 433.887754 
L 108.450115 431.75273 
L 107.55907 429.608688 
L 106.689509 427.455843 
L 105.84152 425.294411 
L 105.015187 423.124607 
L 104.210593 420.946648 
L 103.427818 418.760752 
L 102.666942 416.567138 
L 101.928039 414.366025 
L 101.211183 412.157633 
L 100.516448 409.942183 
L 99.843901 407.719897 
L 99.19361 405.490996 
L 98.56564 403.255704 
L 97.960055 401.014244 
L 97.376913 398.766841 
L 96.816275 396.513718 
L 96.278195 394.255102 
L 95.762729 391.991218 
L 95.269926 389.722293 
L 94.799837 387.448553 
L 94.352508 385.170226 
L 93.927985 382.88754 
L 93.52631 380.600723 
L 93.147522 378.310003 
L 92.79166 376.015611 
L 92.458759 373.717774 
L 92.324706 372.743667 
L 90.000643 373.058482 
L 90.13605 374.042429 
L 90.472313 376.363476 
L 90.83177 378.681045 
L 91.214384 380.994903 
L 91.620117 383.304819 
L 92.048928 385.610563 
L 92.500775 387.911903 
L 92.975613 390.20861 
L 93.473393 392.500454 
L 93.994067 394.787205 
L 94.537581 397.068636 
L 95.103883 399.344517 
L 95.692914 401.614621 
L 96.304617 403.878722 
L 96.93893 406.136593 
L 97.595789 408.388008 
L 98.275129 410.632741 
L 98.976883 412.87057 
L 99.700979 415.101268 
L 100.447345 417.324615 
L 101.215908 419.540387 
L 102.006589 421.748362 
L 102.81931 423.948321 
L 103.65399 426.140042 
L 104.510545 428.323307 
L 105.388889 430.497898 
L 106.288935 432.663596 
L 107.210592 434.820186 
L 108.153769 436.967452 
L 109.118371 439.105179 
L 110.104302 441.233153 
L 111.111463 443.351161 
L 112.139753 445.458992 
L 113.18907 447.556435 
L 114.259309 449.64328 
L 115.350362 451.719319 
L 116.46212 453.784343 
L 117.594473 455.838147 
L 118.747307 457.880525 
L 119.920507 459.911272 
L 121.113955 461.930187 
L 122.327532 463.937065 
L 123.561117 465.931708 
L 124.814587 467.913916 
L 126.087815 469.88349 
L 127.380675 471.840234 
L 128.693038 473.783951 
L 130.024772 475.714447 
L 131.375744 477.631531 
L 132.745819 479.535008 
L 134.13486 481.42469 
L 135.542728 483.300387 
L 136.969283 485.161913 
L 138.414381 487.009079 
L 139.877878 488.841703 
L 141.359627 490.6596 
L 142.859482 492.462589 
L 144.377291 494.25049 
L 145.912903 496.023123 
L 147.466164 497.780312 
L 149.036919 499.521881 
L 150.62501 501.247655 
L 152.23028 502.957463 
L 153.852568 504.651132 
L 155.49171 506.328494 
L 157.147545 507.989382 
L 158.819904 509.633628 
L 160.508623 511.261068 
L 162.213531 512.87154 
L 163.934458 514.464883 
L 165.671233 516.040938 
L 167.423681 517.599546 
L 169.191627 519.140552 
L 170.974895 520.663801 
L 172.773305 522.169142 
L 174.586679 523.656425 
L 176.414835 525.125499 
L 178.25759 526.576218 
L 180.114759 528.008438 
L 181.986158 529.422015 
L 183.871599 530.816808 
L 185.770893 532.192676 
L 187.683851 533.549483 
L 189.610281 534.887093 
L 191.54999 536.205373 
L 193.502785 537.504189 
L 195.46847 538.783413 
L 197.44685 540.042917 
L 199.437724 541.282574 
L 201.440896 542.502261 
L 203.456165 543.701855 
L 205.483328 544.881237 
L 207.522183 546.040289 
L 209.572527 547.178894 
L 211.634155 548.29694 
L 213.706859 549.394313 
L 215.790433 550.470905 
L 217.884669 551.526608 
L 219.989357 552.561316 
L 222.104287 553.574926 
L 224.229247 554.567337 
L 226.364025 555.538448 
L 228.508407 556.488163 
L 230.662178 557.416388 
L 232.825124 558.323028 
L 234.997028 559.207995 
L 237.177674 560.071198 
L 239.366841 560.912552 
L 241.564313 561.731973 
L 243.769869 562.529378 
L 245.983289 563.304688 
L 248.204351 564.057826 
L 250.432833 564.788716 
L 252.668513 565.497285 
L 254.911166 566.183461 
L 257.160569 566.847178 
L 259.416496 567.488368 
L 261.678723 568.106966 
L 263.947022 568.702912 
L 266.221167 569.276146 
L 268.500931 569.826609 
L 270.786085 570.354248 
L 273.076402 570.85901 
L 275.371651 571.340843 
L 277.671604 571.7997 
L 279.97603 572.235535 
L 282.284699 572.648305 
L 284.597381 573.037967 
L 286.913843 573.404484 
L 289.233855 573.747818 
L 291.557184 574.067935 
L 293.883598 574.364803 
L 296.212865 574.638392 
L 298.54475 574.888676 
L 300.879022 575.115629 
L 303.215447 575.319228 
L 305.553791 575.499453 
L 307.89382 575.656286 
L 310.2353 575.789711 
L 312.577998 575.899715 
L 314.921678 575.986287 
L 317.266107 576.049418 
L 319.61105 576.089102 
L 321.956273 576.105335 
L 324.301541 576.098116 
L 326.646619 576.067444 
L 328.991273 576.013324 
L 331.335269 575.93576 
L 333.678372 575.834761 
L 336.020348 575.710336 
L 338.360963 575.562498 
L 340.699982 575.391261 
L 343.037172 575.196643 
L 345.372299 574.978664 
L 347.705129 574.737344 
L 350.03543 574.472709 
L 352.362967 574.184784 
L 354.68751 573.873599 
L 357.008824 573.539184 
L 359.326678 573.181573 
L 361.64084 572.800802 
L 363.951079 572.396909 
L 366.257163 571.969933 
L 368.558862 571.519919 
L 370.855947 571.046911 
L 373.148186 570.550956 
L 375.435351 570.032103 
L 377.717214 569.490405 
L 379.993545 568.925917 
L 382.264118 568.338693 
L 384.528705 567.728793 
L 386.78708 567.096279 
L 389.039018 566.441212 
L 391.284292 565.76366 
L 393.522678 565.063689 
L 395.753953 564.341369 
L 397.977893 563.596773 
L 400.194276 562.829976 
L 402.402881 562.041053 
L 404.603486 561.230084 
L 406.795871 560.39715 
L 408.979817 559.542334 
L 411.155107 558.665722 
L 413.321521 557.767401 
L 415.478845 556.847461 
L 417.626861 555.905994 
L 419.765355 554.943095 
L 421.894113 553.958859 
L 424.012923 552.953385 
L 426.121572 551.926773 
L 428.21985 550.879127 
L 430.307547 549.810551 
L 432.384454 548.721151 
L 434.450363 547.611038 
L 436.505068 546.480321 
L 438.548363 545.329114 
L 440.580044 544.157531 
L 442.599908 542.965691 
L 444.607752 541.753713 
L 446.603377 540.521716 
L 448.586582 539.269826 
L 450.55717 537.998166 
L 452.514942 536.706864 
L 454.459704 535.39605 
L 456.39126 534.065853 
L 458.309418 532.716408 
L 460.213987 531.34785 
L 462.104774 529.960314 
L 463.981592 528.55394 
L 465.844252 527.128868 
L 467.692569 525.685242 
L 469.526358 524.223205 
L 471.345434 522.742903 
L 473.149617 521.244485 
L 474.938726 519.7281 
L 476.712582 518.1939 
z
" clip-path="url(#p77e18f2f62)" style="fill: #0060ff"/>
   </g>
   <g id="patch_5">
    <path d="M 92.324706 372.743667 
L 92.024548 370.441324 
L 91.747428 368.136095 
L 91.493373 365.82821 
L 91.26241 363.5179 
L 91.054561 361.205396 
L 90.869846 358.890929 
L 90.708286 356.574731 
L 90.569895 354.257033 
L 90.454688 351.938067 
L 90.362675 349.618065 
L 90.293867 347.297259 
L 90.24827 344.97588 
L 90.225889 342.654162 
L 90.226725 340.332336 
L 90.25078 338.010635 
L 90.29805 335.68929 
L 90.36853 333.368534 
L 90.462214 331.048599 
L 90.579093 328.729716 
L 90.719154 326.412119 
L 90.882384 324.096038 
L 91.068765 321.781704 
L 91.278281 319.469351 
L 91.510909 317.159208 
L 91.766627 314.851507 
L 92.045408 312.546478 
L 92.324706 310.410148 
L 90.000643 310.095333 
L 89.718524 312.253241 
L 89.436927 314.581553 
L 89.178626 316.912564 
L 88.943648 319.246042 
L 88.732016 321.581753 
L 88.543751 323.919463 
L 88.378873 326.258939 
L 88.237397 328.599947 
L 88.119338 330.942252 
L 88.024708 333.285621 
L 87.953515 335.629819 
L 87.905768 337.974612 
L 87.88147 340.319765 
L 87.880625 342.665044 
L 87.903233 345.010214 
L 87.94929 347.35504 
L 88.018794 349.699289 
L 88.111735 352.042725 
L 88.228106 354.385115 
L 88.367895 356.726224 
L 88.531088 359.065819 
L 88.717668 361.403664 
L 88.927616 363.739527 
L 89.160913 366.073173 
L 89.417533 368.40437 
L 89.697453 370.732884 
L 90.000643 373.058482 
z
" clip-path="url(#p77e18f2f62)" style="fill: #00d4ff"/>
   </g>
   <g id="patch_6">
    <path d="M 92.324706 310.410148 
L 92.647873 308.110922 
L 92.994015 305.815043 
L 93.363098 303.52274 
L 93.755086 301.234242 
L 94.169938 298.949779 
L 94.607614 296.669578 
L 95.06807 294.393868 
L 95.551259 292.122876 
L 96.057134 289.856829 
L 96.585643 287.595955 
L 97.136735 285.340478 
L 97.710353 283.090625 
L 98.306441 280.846621 
L 98.924939 278.608689 
L 99.565784 276.377055 
L 100.228914 274.15194 
L 100.914261 271.933568 
L 101.587263 269.828238 
L 99.356761 269.103504 
L 98.676961 271.2301 
L 97.984691 273.47088 
L 97.314863 275.718471 
L 96.667544 277.972647 
L 96.042799 280.233184 
L 95.44069 282.499855 
L 94.861278 284.772433 
L 94.30462 287.050693 
L 93.770772 289.334404 
L 93.259787 291.62334 
L 92.771717 293.917271 
L 92.30661 296.215968 
L 91.864514 298.519202 
L 91.445471 300.826741 
L 91.049524 303.138354 
L 90.676712 305.453812 
L 90.327074 307.772882 
L 90.000643 310.095333 
z
" clip-path="url(#p77e18f2f62)" style="fill: #4dffaa"/>
   </g>
   <g id="patch_7">
    <path d="M 101.587263 269.828238 
L 102.315778 267.623665 
L 103.066303 265.426488 
L 103.838761 263.236925 
L 104.633076 261.055196 
L 105.449169 258.88152 
L 106.286957 256.716113 
L 107.146356 254.559192 
L 108.027282 252.410973 
L 108.929645 250.27167 
L 109.853356 248.141497 
L 110.798322 246.020668 
L 111.764449 243.909395 
L 112.75164 241.807888 
L 113.759796 239.716359 
L 114.788817 237.635015 
L 115.838599 235.564065 
L 116.909038 233.503716 
L 117.947146 231.552389 
L 115.881895 230.44103 
L 114.833302 232.412068 
L 113.75205 234.493228 
L 112.691664 236.585097 
L 111.652249 238.687464 
L 110.633909 240.800121 
L 109.636747 242.922855 
L 108.660861 245.055454 
L 107.70635 247.197705 
L 106.773309 249.349395 
L 105.861831 251.510307 
L 104.972007 253.680225 
L 104.103926 255.858933 
L 103.257676 258.046213 
L 102.43334 260.241846 
L 101.631002 262.445612 
L 100.850741 264.657291 
L 100.092635 266.876663 
L 99.356761 269.103504 
z
" clip-path="url(#p77e18f2f62)" style="fill: #aaff4d"/>
   </g>
   <g id="patch_8">
    <path d="M 117.947146 231.552389 
L 119.057595 229.513326 
L 120.18838 227.485469 
L 121.339386 225.469022 
L 122.510499 223.464185 
L 123.701601 221.471159 
L 124.912574 219.490144 
L 126.143296 217.521337 
L 127.393644 215.564936 
L 128.663493 213.621136 
L 129.952717 211.690131 
L 131.261185 209.772115 
L 132.588769 207.867279 
L 133.935333 205.975814 
L 135.300745 204.097909 
L 136.684868 202.233752 
L 138.087562 200.38353 
L 139.508688 198.547426 
L 140.948104 196.725625 
L 142.405665 194.918309 
L 143.881227 193.125659 
L 145.374641 191.347854 
L 146.885758 189.585072 
L 148.414427 187.837488 
L 149.960495 186.105279 
L 151.523808 184.388617 
L 153.104209 182.687673 
L 154.701539 181.002618 
L 156.315641 179.33362 
L 157.946351 177.680847 
L 159.593507 176.044463 
L 161.256945 174.424632 
L 162.936497 172.821516 
L 164.631996 171.235276 
L 166.343273 169.66607 
L 168.070156 168.114054 
L 169.644398 166.726084 
L 168.101342 164.959915 
L 166.511198 166.361904 
L 164.766872 167.929596 
L 163.03831 169.514653 
L 161.325684 171.116916 
L 159.629167 172.736225 
L 157.948927 174.372418 
L 156.285133 176.025331 
L 154.637951 177.694799 
L 153.007545 179.380655 
L 151.39408 181.082731 
L 149.797715 182.800856 
L 148.218612 184.534858 
L 146.656927 186.284565 
L 145.112817 188.049801 
L 143.586436 189.830389 
L 142.077937 191.626152 
L 140.587471 193.436909 
L 139.115186 195.262481 
L 137.661231 197.102684 
L 136.22575 198.957334 
L 134.808887 200.826246 
L 133.410784 202.709233 
L 132.03158 204.606106 
L 130.671413 206.516677 
L 129.33042 208.440753 
L 128.008734 210.378143 
L 126.706489 212.328653 
L 125.423812 214.292088 
L 124.160835 216.26825 
L 122.917681 218.256944 
L 121.694476 220.25797 
L 120.491343 222.271127 
L 119.308401 224.296215 
L 118.145768 226.33303 
L 117.003561 228.38137 
L 115.881895 230.44103 
z
" clip-path="url(#p77e18f2f62)" style="fill: #ffe600"/>
   </g>
   <g id="patch_9">
    <path d="M 169.644398 166.726084 
L 171.400515 165.207227 
L 173.171733 163.706006 
L 174.957874 162.222572 
L 176.75876 160.757073 
L 178.574211 159.309656 
L 180.404044 157.880466 
L 182.248078 156.469645 
L 184.106128 155.077335 
L 185.978007 153.703675 
L 187.86353 152.348802 
L 189.762506 151.012851 
L 191.674747 149.695957 
L 193.600061 148.39825 
L 195.538256 147.119862 
L 197.489138 145.860919 
L 199.452511 144.621547 
L 201.428179 143.40187 
L 203.320175 142.2592 
L 202.117279 140.24589 
L 200.206171 141.400102 
L 198.210547 142.632099 
L 196.227341 143.883989 
L 194.256754 145.155649 
L 192.298982 146.446951 
L 190.35422 147.757765 
L 188.422663 149.087962 
L 186.504505 150.437407 
L 184.599937 151.805965 
L 182.70915 153.193501 
L 180.832332 154.599875 
L 178.969671 156.024947 
L 177.121354 157.468573 
L 175.287566 158.93061 
L 173.468489 160.410912 
L 171.664306 161.90933 
L 169.875198 163.425715 
L 168.101342 164.959915 
z
" clip-path="url(#p77e18f2f62)" style="fill: #ff7a00"/>
   </g>
   <g id="patch_10">
    <path d="M 203.320175 142.2592 
L 205.319274 141.078318 
L 207.33008 139.917485 
L 209.352395 138.776819 
L 211.386015 137.656432 
L 213.430736 136.556437 
L 215.486356 135.476944 
L 217.552667 134.41806 
L 219.629464 133.379893 
L 221.716538 132.362545 
L 223.813681 131.366118 
L 225.920684 130.390712 
L 228.037335 129.436424 
L 230.163423 128.503351 
L 232.298735 127.591584 
L 234.443058 126.701216 
L 236.596177 125.832335 
L 238.757877 124.985029 
L 240.927942 124.159382 
L 243.106155 123.355476 
L 245.292298 122.573392 
L 247.486153 121.813208 
L 249.687499 121.075001 
L 251.896117 120.358843 
L 254.111786 119.664807 
L 256.334285 118.992963 
L 258.563391 118.343376 
L 260.798881 117.716112 
L 263.040532 117.111235 
L 265.28812 116.528804 
L 267.54142 115.968877 
L 269.800205 115.431511 
L 272.064252 114.916759 
L 274.333333 114.424674 
L 276.607221 113.955303 
L 278.885689 113.508694 
L 280.948984 113.124621 
L 280.530217 110.817022 
L 278.44608 111.204975 
L 276.144597 111.656095 
L 273.847741 112.130207 
L 271.55574 112.627263 
L 269.268824 113.147214 
L 266.987222 113.690008 
L 264.711162 114.25559 
L 262.440872 114.843905 
L 260.176578 115.454892 
L 257.918507 116.088492 
L 255.666884 116.74464 
L 253.421936 117.423271 
L 251.183886 118.124317 
L 248.952959 118.847709 
L 246.729377 119.593373 
L 244.513362 120.361235 
L 242.305137 121.151219 
L 240.104922 121.963245 
L 237.912937 122.797232 
L 235.729401 123.653097 
L 233.554533 124.530755 
L 231.388551 125.430116 
L 229.23167 126.351093 
L 227.084106 127.293591 
L 224.946075 128.257518 
L 222.817789 129.242776 
L 220.699463 130.249268 
L 218.591307 131.276892 
L 216.493533 132.325547 
L 214.40635 133.395126 
L 212.329966 134.485523 
L 210.264591 135.596629 
L 208.21043 136.728333 
L 206.167688 137.880522 
L 204.13657 139.05308 
L 202.117279 140.24589 
z
" clip-path="url(#p77e18f2f62)" style="fill: #ff1300"/>
   </g>
   <g id="patch_11">
    <path d="M 280.948984 113.124621 
L 283.235542 112.721471 
L 285.526017 112.341206 
L 287.820179 111.983864 
L 290.117801 111.649481 
L 292.418651 111.338092 
L 294.722501 111.049725 
L 297.029118 110.784412 
L 299.338274 110.542177 
L 301.649736 110.323045 
L 303.963274 110.127039 
L 306.278656 109.954178 
L 308.595651 109.804478 
L 310.914027 109.677956 
L 313.233553 109.574624 
L 315.553996 109.494491 
L 317.875124 109.437567 
L 320.196705 109.403856 
L 322.406962 109.393335 
L 322.406962 107.048047 
L 320.174379 107.058673 
L 317.829348 107.092725 
L 315.484774 107.150224 
L 313.140892 107.231166 
L 310.797937 107.335543 
L 308.456143 107.463343 
L 306.115744 107.614554 
L 303.776974 107.789162 
L 301.440067 107.987148 
L 299.105256 108.208493 
L 296.772776 108.453174 
L 294.44286 108.721168 
L 292.115739 109.012447 
L 289.791648 109.326982 
L 287.470818 109.664742 
L 285.153482 110.025693 
L 282.839871 110.409799 
L 280.530217 110.817022 
z
" clip-path="url(#p77e18f2f62)" style="fill: #800000"/>
   </g>
   <g id="PatchCollection_1">
    <path d="M 117.947146 231.552389 
L 117.947146 231.552389 
L 119.057595 229.513326 
L 120.18838 227.485469 
L 121.339386 225.469022 
L 122.510499 223.464185 
L 123.701601 221.471159 
L 124.912574 219.490144 
L 126.143296 217.521337 
L 127.393644 215.564936 
L 128.663493 213.621136 
L 129.952717 211.690131 
L 131.261185 209.772115 
L 132.588769 207.867279 
L 133.935333 205.975814 
L 135.300745 204.097909 
L 136.684868 202.233752 
L 138.087562 200.38353 
L 139.508688 198.547426 
L 140.878535 196.812818 
L 140.878535 196.812818 
Q 322.406962 341.576908 280.948984 113.124621 
L 280.948984 113.124621 
L 280.948984 113.124621 
L 283.235542 112.721471 
L 285.526017 112.341206 
L 287.820179 111.983864 
L 290.117801 111.649481 
L 292.418651 111.338092 
L 294.722501 111.049725 
L 297.029118 110.784412 
L 299.338274 110.542177 
L 301.649736 110.323045 
L 303.963274 110.127039 
L 306.278656 109.954178 
L 308.595651 109.804478 
L 310.914027 109.677956 
L 313.233553 109.574624 
L 315.553996 109.494491 
L 317.875124 109.437567 
L 320.196705 109.403856 
L 322.406962 109.393335 
L 322.406962 109.393335 
Q 322.406962 341.576908 117.947146 231.552389 
z
" clip-path="url(#p77e18f2f62)" style="fill: #ffe600; fill-opacity: 0.5; stroke: #808080; stroke-opacity: 0.5; stroke-width: 0.1"/>
    <path d="M 140.878535 196.812818 
L 140.878535 196.812818 
L 142.335229 195.004802 
L 143.809929 193.211443 
L 145.302488 191.432921 
L 146.812758 189.669413 
L 148.340588 187.921096 
L 149.885823 186.188144 
L 151.448311 184.47073 
L 153.027895 182.769028 
L 154.624416 181.083205 
L 156.237715 179.413433 
L 157.867631 177.759876 
L 159.514001 176.122701 
L 161.17666 174.502071 
L 162.855442 172.898149 
L 164.550179 171.311094 
L 166.260702 169.741065 
L 167.986839 168.188221 
L 169.644398 166.726084 
L 169.644398 166.726084 
Q 322.406962 341.576908 203.320175 142.2592 
L 203.320175 142.2592 
L 203.320175 142.2592 
L 205.319274 141.078318 
L 207.33008 139.917485 
L 209.352395 138.776819 
L 211.386015 137.656432 
L 213.430736 136.556437 
L 215.486356 135.476944 
L 217.552667 134.41806 
L 219.629464 133.379893 
L 221.716538 132.362545 
L 223.813681 131.366118 
L 225.920684 130.390712 
L 228.037335 129.436424 
L 230.163423 128.503351 
L 232.298735 127.591584 
L 234.443058 126.701216 
L 236.596177 125.832335 
L 238.757877 124.985029 
L 240.8235 124.198551 
L 240.8235 124.198551 
Q 322.406962 341.576908 140.878535 196.812818 
z
" clip-path="url(#p77e18f2f62)" style="fill: #ffe600; fill-opacity: 0.5; stroke: #808080; stroke-opacity: 0.5; stroke-width: 0.1"/>
    <path d="M 101.587263 269.828238 
L 101.587263 269.828238 
L 102.315778 267.623665 
L 103.066303 265.426488 
L 103.838761 263.236925 
L 104.633076 261.055196 
L 105.449169 258.88152 
L 106.286957 256.716113 
L 107.146356 254.559192 
L 108.027282 252.410973 
L 108.907719 250.322952 
L 108.907719 250.322952 
Q 322.406962 341.576908 240.8235 124.198551 
L 240.8235 124.198551 
L 240.8235 124.198551 
L 243.001326 123.393599 
L 245.187093 122.610465 
L 247.380582 121.849227 
L 249.581574 121.109962 
L 251.789848 120.392744 
L 254.005183 119.697643 
L 256.227359 119.024731 
L 258.456153 118.374073 
L 260.637577 117.760567 
L 260.637577 117.760567 
Q 322.406962 341.576908 101.587263 269.828238 
z
" clip-path="url(#p77e18f2f62)" style="fill: #aaff4d; fill-opacity: 0.5; stroke: #808080; stroke-opacity: 0.5; stroke-width: 0.1"/>
    <path d="M 475.169525 516.427731 
L 475.169525 516.427731 
L 473.413408 517.946588 
L 471.642191 519.447809 
L 469.85605 520.931243 
L 468.055164 522.396742 
L 466.239713 523.844159 
L 464.409879 525.273349 
L 462.565846 526.68417 
L 460.707796 528.07648 
L 458.881041 529.417363 
L 458.881041 529.417363 
Q 322.406962 341.576908 260.637577 117.760567 
L 260.637577 117.760567 
L 260.637577 117.760567 
L 262.878791 117.154074 
L 265.125959 116.570024 
L 267.378854 116.008473 
L 269.637252 115.46948 
L 271.900927 114.953097 
L 274.169653 114.459376 
L 276.443202 113.988367 
L 278.721348 113.540116 
L 280.948984 113.124621 
L 280.948984 113.124621 
Q 322.406962 341.576908 475.169525 516.427731 
z
" clip-path="url(#p77e18f2f62)" style="fill: #0060ff; fill-opacity: 0.5; stroke: #808080; stroke-opacity: 0.5; stroke-width: 0.1"/>
    <path d="M 458.881041 529.417363 
L 458.881041 529.417363 
L 456.995844 530.772689 
L 455.097189 532.109096 
L 453.185264 533.42645 
L 451.260262 534.724618 
L 449.322374 536.003473 
L 447.371795 537.262884 
L 445.40872 538.502728 
L 443.433345 539.722879 
L 441.445867 540.923215 
L 439.446485 542.103617 
L 437.435399 543.263966 
L 435.412811 544.404147 
L 433.378922 545.524046 
L 431.333936 546.62355 
L 429.278058 547.702549 
L 427.211492 548.760936 
L 425.134446 549.798605 
L 423.147638 550.767078 
L 423.147638 550.767078 
Q 322.406962 341.576908 169.644398 166.726084 
L 169.644398 166.726084 
L 169.644398 166.726084 
L 171.400515 165.207227 
L 173.171733 163.706006 
L 174.957874 162.222572 
L 176.75876 160.757073 
L 178.574211 159.309656 
L 180.404044 157.880466 
L 182.248078 156.469645 
L 184.106128 155.077335 
L 185.978007 153.703675 
L 187.86353 152.348802 
L 189.762506 151.012851 
L 191.674747 149.695957 
L 193.600061 148.39825 
L 195.538256 147.119862 
L 197.489138 145.860919 
L 199.452511 144.621547 
L 201.428179 143.40187 
L 203.320175 142.2592 
L 203.320175 142.2592 
Q 322.406962 341.576908 458.881041 529.417363 
z
" clip-path="url(#p77e18f2f62)" style="fill: #0060ff; fill-opacity: 0.5; stroke: #808080; stroke-opacity: 0.5; stroke-width: 0.1"/>
    <path d="M 490.228055 502.030302 
L 490.228055 502.030302 
L 488.615157 503.700462 
L 486.985638 505.35441 
L 485.339662 506.991981 
L 483.677392 508.61301 
L 481.998995 510.217336 
L 480.304639 511.804798 
L 478.594494 513.375237 
L 476.86873 514.928496 
L 475.169525 516.427731 
L 475.169525 516.427731 
Q 322.406962 341.576908 423.147638 550.767078 
L 423.147638 550.767078 
L 423.147638 550.767078 
L 421.050734 551.764008 
L 418.943966 552.73992 
L 416.827545 553.694716 
L 414.701681 554.6283 
L 412.566588 555.54058 
L 410.422479 556.431463 
L 408.269568 557.300861 
L 406.108072 558.148686 
L 403.990424 558.955264 
L 403.990424 558.955264 
Q 322.406962 341.576908 490.228055 502.030302 
z
" clip-path="url(#p77e18f2f62)" style="fill: #0000ff; fill-opacity: 0.5; stroke: #808080; stroke-opacity: 0.5; stroke-width: 0.1"/>
    <path d="M 322.406962 109.393335 
L 322.406962 109.393335 
L 324.728759 109.404944 
L 327.050324 109.439771 
L 329.371424 109.49781 
L 331.691828 109.579057 
L 334.011304 109.683504 
L 336.329619 109.81114 
L 338.646542 109.961953 
L 340.961841 110.135927 
L 343.219737 110.328038 
L 343.219737 110.328038 
Q 322.406962 341.576908 108.907719 250.322952 
L 108.907719 250.322952 
L 108.907719 250.322952 
L 109.830918 248.192558 
L 110.775375 246.071502 
L 111.740994 243.959996 
L 112.72768 241.858253 
L 113.735334 239.766481 
L 114.763855 237.68489 
L 115.81314 235.613688 
L 116.883084 233.553082 
L 117.947146 231.552389 
L 117.947146 231.552389 
Q 322.406962 341.576908 322.406962 109.393335 
z
" clip-path="url(#p77e18f2f62)" style="fill: #000080; fill-opacity: 0.5; stroke: #808080; stroke-opacity: 0.5; stroke-width: 0.1"/>
    <path d="M 343.219737 110.328038 
L 343.219737 110.328038 
L 345.531146 110.547725 
L 347.840243 110.790514 
L 350.146797 111.056382 
L 352.450577 111.345302 
L 354.751353 111.657244 
L 357.048894 111.992179 
L 359.342971 112.350071 
L 361.633354 112.730887 
L 363.919815 113.134586 
L 366.202124 113.56113 
L 368.480054 114.010475 
L 370.753377 114.482576 
L 373.021865 114.977387 
L 375.285292 115.494857 
L 377.543431 116.034936 
L 379.796056 116.597568 
L 382.042943 117.182699 
L 384.176347 117.760567 
L 384.176347 117.760567 
Q 322.406962 341.576908 92.324706 310.410148 
L 92.324706 310.410148 
L 92.324706 310.410148 
L 92.647873 308.110922 
L 92.994015 305.815043 
L 93.363098 303.52274 
L 93.755086 301.234242 
L 94.169938 298.949779 
L 94.607614 296.669578 
L 95.06807 294.393868 
L 95.551259 292.122876 
L 96.057134 289.856829 
L 96.585643 287.595955 
L 97.136735 285.340478 
L 97.710353 283.090625 
L 98.306441 280.846621 
L 98.924939 278.608689 
L 99.565784 276.377055 
L 100.228914 274.15194 
L 100.914261 271.933568 
L 101.587263 269.828238 
L 101.587263 269.828238 
Q 322.406962 341.576908 343.219737 110.328038 
z
" clip-path="url(#p77e18f2f62)" style="fill: #000080; fill-opacity: 0.5; stroke: #808080; stroke-opacity: 0.5; stroke-width: 0.1"/>
    <path d="M 384.176347 117.760567 
L 384.176347 117.760567 
L 386.411385 118.389441 
L 388.640022 119.040634 
L 390.862036 119.714081 
L 393.077204 120.409713 
L 395.285306 121.127462 
L 397.48612 121.867256 
L 399.679426 122.62902 
L 401.865005 123.412679 
L 404.042638 124.218154 
L 406.212107 125.045365 
L 408.373196 125.894229 
L 410.525689 126.764661 
L 412.66937 127.656574 
L 414.804024 128.569879 
L 416.929439 129.504485 
L 419.045402 130.460297 
L 421.151701 131.437222 
L 423.248126 132.435159 
L 425.334466 133.454011 
L 427.410514 134.493675 
L 429.476062 135.554047 
L 431.530903 136.635021 
L 433.574831 137.73649 
L 435.607643 138.858342 
L 437.629135 140.000466 
L 439.639105 141.162747 
L 441.493748 142.2592 
L 441.493748 142.2592 
Q 322.406962 341.576908 92.324706 372.743667 
L 92.324706 372.743667 
L 92.324706 372.743667 
L 92.024548 370.441324 
L 91.747428 368.136095 
L 91.493373 365.82821 
L 91.26241 363.5179 
L 91.054561 361.205396 
L 90.869846 358.890929 
L 90.708286 356.574731 
L 90.569895 354.257033 
L 90.454688 351.938067 
L 90.362675 349.618065 
L 90.293867 347.297259 
L 90.24827 344.97588 
L 90.225889 342.654162 
L 90.226725 340.332336 
L 90.25078 338.010635 
L 90.29805 335.68929 
L 90.36853 333.368534 
L 90.462214 331.048599 
L 90.579093 328.729716 
L 90.719154 326.412119 
L 90.882384 324.096038 
L 91.068765 321.781704 
L 91.278281 319.469351 
L 91.510909 317.159208 
L 91.766627 314.851507 
L 92.045408 312.546478 
L 92.324706 310.410148 
L 92.324706 310.410148 
Q 322.406962 341.576908 384.176347 117.760567 
z
" clip-path="url(#p77e18f2f62)" style="fill: #000080; fill-opacity: 0.5; stroke: #808080; stroke-opacity: 0.5; stroke-width: 0.1"/>
    <path d="M 441.493748 142.2592 
L 441.493748 142.2592 
L 443.480938 143.460014 
L 445.45602 144.680639 
L 447.418797 145.920954 
L 449.369074 147.180834 
L 451.306654 148.460154 
L 453.231345 149.758785 
L 455.142953 151.076598 
L 457.041287 152.413461 
L 458.926159 153.76924 
L 460.797378 155.143799 
L 462.654759 156.537002 
L 464.498114 157.948708 
L 466.327261 159.378778 
L 468.142016 160.827066 
L 469.942198 162.29343 
L 471.727626 163.777722 
L 473.498122 165.279794 
L 475.25351 166.799495 
L 476.993612 168.336674 
L 478.718257 169.891176 
L 480.42727 171.462847 
L 482.120481 173.05153 
L 483.797721 174.657065 
L 485.458822 176.279291 
L 487.103618 177.918047 
L 488.731945 179.573169 
L 490.343639 181.244492 
L 491.93854 182.931847 
L 493.516487 184.635067 
L 495.077324 186.35398 
L 496.620894 188.088416 
L 498.147043 189.838201 
L 499.655618 191.603159 
L 501.146468 193.383115 
L 502.619444 195.17789 
L 504.074399 196.987305 
L 505.511188 198.811178 
L 506.929666 200.649328 
L 508.329693 202.501571 
L 509.711127 204.367721 
L 511.073831 206.247592 
L 512.417668 208.140995 
L 513.742504 210.047742 
L 515.048208 211.967642 
L 516.334647 213.900503 
L 517.601693 215.846131 
L 518.84922 217.804333 
L 520.077103 219.774911 
L 521.28522 221.75767 
L 522.473448 223.75241 
L 523.64167 225.758933 
L 524.789769 227.777037 
L 525.91763 229.806521 
L 527.025139 231.847183 
L 528.112188 233.898817 
L 529.178665 235.961218 
L 530.224466 238.034182 
L 531.249485 240.117499 
L 532.253621 242.210963 
L 533.236771 244.314363 
L 534.198839 246.427489 
L 535.139728 248.550129 
L 536.059344 250.682073 
L 536.957594 252.823106 
L 537.83439 254.973014 
L 538.689643 257.131583 
L 539.523268 259.298596 
L 540.335182 261.473836 
L 541.125303 263.657087 
L 541.893552 265.84813 
L 542.639853 268.046746 
L 543.364131 270.252715 
L 544.066313 272.465816 
L 544.74633 274.685828 
L 545.404113 276.912529 
L 546.039596 279.145697 
L 546.652716 281.385107 
L 547.243412 283.630537 
L 547.811624 285.881761 
L 548.357296 288.138555 
L 548.880373 290.400693 
L 549.380804 292.667948 
L 549.858536 294.940094 
L 550.313524 297.216903 
L 550.745722 299.498149 
L 551.155085 301.783603 
L 551.541575 304.073035 
L 551.90515 306.366218 
L 552.245777 308.662923 
L 552.563419 310.962918 
L 552.858046 313.265975 
L 553.129628 315.571863 
L 553.378138 317.880351 
L 553.603552 320.191209 
L 553.805845 322.504206 
L 553.984999 324.81911 
L 554.140996 327.13569 
L 554.273819 329.453713 
L 554.383455 331.77295 
L 554.469895 334.093166 
L 554.533128 336.414131 
L 554.573148 338.735612 
L 554.589953 341.057377 
L 554.583539 343.379194 
L 554.553908 345.700831 
L 554.501062 348.022056 
L 554.425007 350.342636 
L 554.32575 352.662339 
L 554.203302 354.980934 
L 554.057674 357.298189 
L 553.888881 359.613871 
L 553.696941 361.92775 
L 553.481871 364.239594 
L 553.243695 366.549171 
L 552.982434 368.856252 
L 552.698117 371.160604 
L 552.39077 373.461998 
L 552.060426 375.760203 
L 551.707116 378.054991 
L 551.330876 380.34613 
L 550.931744 382.633393 
L 550.50976 384.91655 
L 550.064966 387.195373 
L 549.597406 389.469634 
L 549.107127 391.739106 
L 548.594179 394.003562 
L 548.058612 396.262775 
L 547.50048 398.516519 
L 546.919838 400.76457 
L 546.316746 403.006702 
L 545.691263 405.242691 
L 545.043452 407.472314 
L 544.373377 409.695347 
L 543.681106 411.911568 
L 542.966707 414.120756 
L 542.230253 416.322689 
L 541.471816 418.517148 
L 540.691474 420.703913 
L 539.889303 422.882766 
L 539.065384 425.053488 
L 538.219799 427.215862 
L 537.352633 429.369673 
L 536.463973 431.514704 
L 535.553907 433.650741 
L 534.622527 435.777572 
L 533.669925 437.894982 
L 532.696197 440.002761 
L 531.701441 442.100697 
L 530.685755 444.18858 
L 529.649242 446.266203 
L 528.592004 448.333357 
L 527.514148 450.389835 
L 526.415782 452.435432 
L 525.297015 454.469944 
L 524.157959 456.493166 
L 522.998728 458.504896 
L 521.819438 460.504934 
L 520.620207 462.493079 
L 519.401155 464.469133 
L 518.162403 466.432897 
L 516.904077 468.384177 
L 515.6263 470.322775 
L 514.329202 472.248499 
L 513.012912 474.161156 
L 511.677561 476.060554 
L 510.323284 477.946505 
L 508.950215 479.818818 
L 507.558492 481.677308 
L 506.148254 483.521787 
L 504.719642 485.352072 
L 503.272798 487.16798 
L 501.807869 488.969329 
L 500.324999 490.755938 
L 498.824338 492.52763 
L 497.306035 494.284227 
L 495.770242 496.025553 
L 494.217113 497.751435 
L 492.646804 499.461699 
L 491.05947 501.156175 
L 490.228055 502.030302 
L 490.228055 502.030302 
Q 322.406962 341.576908 403.990424 558.955264 
L 403.990424 558.955264 
L 403.990424 558.955264 
L 401.812597 559.760216 
L 399.62683 560.54335 
L 397.433341 561.304588 
L 395.23235 562.043853 
L 393.024076 562.761071 
L 390.80874 563.456172 
L 388.586565 564.129084 
L 386.357771 564.779742 
L 384.122582 565.408079 
L 381.881222 566.014033 
L 379.633915 566.597544 
L 377.380884 567.158553 
L 375.122357 567.697005 
L 372.858558 568.212844 
L 370.589714 568.70602 
L 368.316051 569.176483 
L 366.037798 569.624186 
L 363.755182 570.049085 
L 361.468431 570.451137 
L 359.177773 570.830301 
L 356.883439 571.186541 
L 354.585657 571.519819 
L 352.284658 571.830104 
L 349.98067 572.117363 
L 347.673925 572.381569 
L 345.364654 572.622694 
L 343.053087 572.840715 
L 340.739455 573.03561 
L 338.42399 573.207359 
L 336.106923 573.355945 
L 333.788486 573.481353 
L 331.468911 573.583572 
L 329.14843 573.662589 
L 326.827275 573.718399 
L 324.505678 573.750994 
L 322.183871 573.760372 
L 319.862086 573.746532 
L 317.540556 573.709476 
L 315.219512 573.649206 
L 312.899187 573.565729 
L 310.579813 573.459054 
L 308.261621 573.32919 
L 305.944844 573.176152 
L 303.629714 572.999953 
L 301.316461 572.800613 
L 299.005317 572.57815 
L 296.696513 572.332588 
L 294.39028 572.06395 
L 292.086849 571.772263 
L 289.78645 571.457558 
L 287.489312 571.119864 
L 285.195667 570.759216 
L 282.905743 570.375651 
L 280.619768 569.969205 
L 278.337973 569.539921 
L 276.060584 569.08784 
L 273.78783 568.613009 
L 271.519938 568.115474 
L 269.257134 567.595285 
L 266.999646 567.052495 
L 264.747698 566.487157 
L 262.501515 565.899329 
L 260.261324 565.289068 
L 258.027347 564.656437 
L 255.799808 564.001497 
L 253.578929 563.324316 
L 251.364933 562.62496 
L 249.158042 561.903499 
L 246.958475 561.160006 
L 244.766453 560.394554 
L 242.582195 559.607221 
L 240.405919 558.798086 
L 238.237844 557.967228 
L 236.078185 557.114731 
L 233.927159 556.240681 
L 231.784981 555.345165 
L 229.651865 554.428272 
L 227.528025 553.490094 
L 225.413672 552.530725 
L 223.309019 551.55026 
L 221.214275 550.548799 
L 219.129651 549.52644 
L 217.055354 548.483287 
L 214.991592 547.419443 
L 212.938572 546.335015 
L 210.896498 545.230112 
L 208.865576 544.104843 
L 206.846007 542.959322 
L 204.837994 541.793663 
L 202.841739 540.607982 
L 200.857439 539.402398 
L 198.885295 538.177032 
L 196.925502 536.932006 
L 194.978258 535.667445 
L 193.043756 534.383474 
L 191.122191 533.080224 
L 189.213754 531.757823 
L 187.318636 530.416404 
L 185.437027 529.056101 
L 183.569115 527.677051 
L 181.715086 526.279391 
L 179.875126 524.86326 
L 178.04942 523.428801 
L 176.238149 521.976157 
L 174.441495 520.505474 
L 172.659638 519.016897 
L 170.892754 517.510577 
L 169.141023 515.986664 
L 167.404618 514.44531 
L 165.683712 512.886669 
L 163.978479 511.310897 
L 162.289089 509.718152 
L 160.615711 508.108593 
L 158.958511 506.482381 
L 157.317656 504.839678 
L 155.69331 503.18065 
L 154.085635 501.505461 
L 152.494792 499.814279 
L 150.92094 498.107274 
L 149.364237 496.384616 
L 147.824838 494.646477 
L 146.302897 492.893032 
L 144.798566 491.124455 
L 143.311996 489.340923 
L 141.843335 487.542615 
L 140.39273 485.72971 
L 138.960327 483.902391 
L 137.546268 482.060839 
L 136.150695 480.205239 
L 134.773747 478.335776 
L 133.415563 476.452637 
L 132.076278 474.556011 
L 130.756025 472.646087 
L 129.454938 470.723056 
L 128.173145 468.787111 
L 126.910776 466.838444 
L 125.667957 464.877252 
L 124.44481 462.90373 
L 123.241461 460.918075 
L 122.058027 458.920486 
L 120.894628 456.911163 
L 119.75138 454.890307 
L 118.628398 452.858119 
L 117.525793 450.814803 
L 116.443676 448.760564 
L 115.382156 446.695606 
L 114.341337 444.620137 
L 113.321325 442.534363 
L 112.322222 440.438494 
L 111.344127 438.332738 
L 110.387138 436.217307 
L 109.45135 434.092412 
L 108.536858 431.958266 
L 107.643753 429.815082 
L 106.772124 427.663074 
L 105.922059 425.502457 
L 105.093641 423.333448 
L 104.286955 421.156263 
L 103.502081 418.97112 
L 102.739097 416.778238 
L 101.998079 414.577836 
L 101.279102 412.370134 
L 100.582238 410.155353 
L 99.907556 407.933713 
L 99.255124 405.705439 
L 98.625007 403.470751 
L 98.017268 401.229874 
L 97.431968 398.983032 
L 96.869165 396.730449 
L 96.328915 394.472351 
L 95.811273 392.208964 
L 95.316291 389.940513 
L 94.844017 387.667226 
L 94.3945 385.38933 
L 93.967784 383.107053 
L 93.563911 380.820623 
L 93.182922 378.530268 
L 92.824856 376.236218 
L 92.489748 373.938702 
L 92.324706 372.743667 
L 92.324706 372.743667 
Q 322.406962 341.576908 441.493748 142.2592 
z
" clip-path="url(#p77e18f2f62)" style="fill: #000080; fill-opacity: 0.5; stroke: #808080; stroke-opacity: 0.5; stroke-width: 0.1"/>
   </g>
   <g id="patch_12">
    <path d="M 322.406962 109.393335 
L 324.728759 109.404944 
L 327.050324 109.439771 
L 329.371424 109.49781 
L 331.691828 109.579057 
L 334.011304 109.683504 
L 336.329619 109.81114 
L 338.646542 109.961953 
L 340.961841 110.135927 
L 343.275284 110.333044 
L 345.586641 110.553286 
L 347.89568 110.79663 
L 350.20217 111.063052 
L 352.50588 111.352525 
L 354.806581 111.66502 
L 357.104041 112.000507 
L 359.398032 112.35895 
L 361.688324 112.740316 
L 363.974688 113.144565 
L 366.256895 113.571656 
L 368.534717 114.021549 
L 370.807926 114.494196 
L 373.076295 114.989552 
L 375.339598 115.507566 
L 377.597607 116.048187 
L 379.850097 116.61136 
L 382.096843 117.19703 
L 384.33762 117.805138 
L 386.572203 118.435623 
L 388.800371 119.088422 
L 391.021899 119.763469 
L 393.236566 120.460697 
L 395.44415 121.180037 
L 397.64443 121.921417 
L 399.837186 122.684762 
L 402.0222 123.469995 
L 404.199252 124.27704 
L 406.368125 125.105814 
L 408.528601 125.956235 
L 410.680466 126.828218 
L 412.823504 127.721676 
L 414.957499 128.636519 
L 417.08224 129.572656 
L 419.197514 130.529993 
L 421.303108 131.508434 
L 423.398813 132.507883 
L 425.484419 133.528238 
L 427.559717 134.569398 
L 429.6245 135.631258 
L 431.678562 136.713713 
L 433.721696 137.816653 
L 435.753699 138.93997 
L 437.774367 140.08355 
L 439.783499 141.24728 
L 441.780893 142.431042 
L 443.76635 143.634719 
L 445.739671 144.858189 
L 447.700659 146.101332 
L 449.649117 147.364022 
L 451.584852 148.646132 
L 453.507668 149.947536 
L 455.417375 151.268103 
L 457.313781 152.6077 
L 459.196696 153.966194 
L 461.065933 155.343449 
L 462.921303 156.739327 
L 464.762623 158.153689 
L 466.589707 159.586393 
L 468.402372 161.037296 
L 470.200439 162.506253 
L 471.983726 163.993116 
L 473.752055 165.497738 
L 475.50525 167.019968 
L 477.243136 168.559653 
L 478.965538 170.11664 
L 480.672284 171.690772 
L 482.363204 173.281893 
L 484.038128 174.889844 
L 485.69689 176.514463 
L 487.339322 178.155588 
L 488.965261 179.813055 
L 490.574545 181.486698 
L 492.167012 183.176351 
L 493.742504 184.881843 
L 495.300861 186.603004 
L 496.84193 188.339663 
L 498.365555 190.091646 
L 499.871585 191.858776 
L 501.359868 193.640879 
L 502.830256 195.437775 
L 504.282602 197.249285 
L 505.71676 199.075227 
L 507.132588 200.915419 
L 508.529943 202.769678 
L 509.908686 204.637817 
L 511.268679 206.51965 
L 512.609786 208.414988 
L 513.931873 210.323643 
L 515.234808 212.245423 
L 516.51846 214.180136 
L 517.782701 216.127588 
L 519.027404 218.087585 
L 520.252446 220.059931 
L 521.457704 222.044429 
L 522.643056 224.04088 
L 523.808385 226.049084 
L 524.953574 228.068841 
L 526.078508 230.099949 
L 527.183076 232.142204 
L 528.267166 234.195403 
L 529.33067 236.25934 
L 530.373482 238.333808 
L 531.395498 240.418601 
L 532.396615 242.513509 
L 533.376733 244.618324 
L 534.335754 246.732834 
L 535.273583 248.856829 
L 536.190125 250.990096 
L 537.085289 253.132421 
L 537.958985 255.283591 
L 538.811126 257.44339 
L 539.641627 259.611602 
L 540.450405 261.788011 
L 541.237379 263.972398 
L 542.002469 266.164546 
L 542.745601 268.364235 
L 543.466698 270.571245 
L 544.16569 272.785356 
L 544.842506 275.006346 
L 545.497079 277.233993 
L 546.129343 279.468074 
L 546.739235 281.708366 
L 547.326694 283.954645 
L 547.891661 286.206686 
L 548.43408 288.464263 
L 548.953896 290.727153 
L 549.451058 292.995127 
L 549.925516 295.267959 
L 550.377222 297.545422 
L 550.806131 299.827288 
L 551.2122 302.113329 
L 551.595389 304.403317 
L 551.95566 306.697021 
L 552.292975 308.994214 
L 552.607303 311.294665 
L 552.89861 313.598144 
L 553.166869 315.904421 
L 553.412051 318.213265 
L 553.634134 320.524446 
L 553.833094 322.837732 
L 554.008911 325.152891 
L 554.161568 327.469693 
L 554.291051 329.787906 
L 554.397344 332.107298 
L 554.48044 334.427637 
L 554.540328 336.74869 
L 554.577002 339.070226 
L 554.59046 341.392014 
L 554.5807 343.713819 
L 554.547723 346.035411 
L 554.491532 348.356557 
L 554.412132 350.677025 
L 554.309532 352.996583 
L 554.183742 355.314999 
L 554.034775 357.632041 
L 553.862645 359.947478 
L 553.66737 362.261078 
L 553.448969 364.572609 
L 553.207463 366.881841 
L 552.942878 369.188542 
L 552.65524 371.492482 
L 552.344577 373.793431 
L 552.01092 376.091158 
L 551.654303 378.385434 
L 551.274762 380.676029 
L 550.872334 382.962713 
L 550.44706 385.24526 
L 549.998981 387.523439 
L 549.528144 389.797024 
L 549.034595 392.065787 
L 548.518383 394.329501 
L 547.979561 396.58794 
L 547.418181 398.840878 
L 546.834301 401.08809 
L 546.227977 403.32935 
L 545.599272 405.564435 
L 544.948248 407.793122 
L 544.27497 410.015187 
L 543.579505 412.230408 
L 542.861924 414.438564 
L 542.122296 416.639434 
L 541.360698 418.832798 
L 540.577204 421.018436 
L 539.771894 423.19613 
L 538.944847 425.365662 
L 538.096147 427.526815 
L 537.225878 429.679374 
L 536.334127 431.823122 
L 535.420983 433.957846 
L 534.486539 436.083331 
L 533.530886 438.199367 
L 532.554122 440.30574 
L 531.556343 442.40224 
L 530.537649 444.488657 
L 529.498142 446.564784 
L 528.437926 448.630412 
L 527.357108 450.685335 
L 526.255794 452.729347 
L 525.134096 454.762243 
L 523.992125 456.783822 
L 522.829996 458.793879 
L 521.647825 460.792216 
L 520.44573 462.77863 
L 519.223831 464.752925 
L 517.98225 466.714902 
L 516.721113 468.664365 
L 515.440544 470.60112 
L 514.140671 472.524973 
L 512.821626 474.435731 
L 511.483539 476.333203 
L 510.126545 478.217199 
L 508.750779 480.087532 
L 507.356379 481.944013 
L 505.943484 483.786458 
L 504.512235 485.614683 
L 503.062776 487.428503 
L 501.595252 489.227739 
L 500.109809 491.012209 
L 498.606595 492.781736 
L 497.085762 494.536143 
L 495.547462 496.275254 
L 493.991847 497.998895 
L 492.419074 499.706895 
L 490.8293 501.399081 
L 490.228055 502.030302 
L 491.923218 503.651043 
L 492.530536 503.013446 
L 494.136368 501.304167 
L 495.725028 499.578916 
L 497.296356 497.837864 
L 498.850195 496.081186 
L 500.38639 494.309058 
L 501.904787 492.521657 
L 503.405234 490.719161 
L 504.887582 488.901752 
L 506.351682 487.06961 
L 507.797388 485.222918 
L 509.224555 483.361863 
L 510.63304 481.486629 
L 512.022702 479.597404 
L 513.393404 477.694377 
L 514.745006 475.777739 
L 516.077375 473.847681 
L 517.390378 471.904395 
L 518.683882 469.948077 
L 519.957758 467.978922 
L 521.21188 465.997127 
L 522.446121 464.00289 
L 523.660359 461.996411 
L 524.854471 459.977889 
L 526.028339 457.947528 
L 527.181845 455.90553 
L 528.314873 453.852099 
L 529.427311 451.78744 
L 530.519047 449.711761 
L 531.589972 447.625268 
L 532.639979 445.52817 
L 533.668963 443.420677 
L 534.67682 441.303 
L 535.663451 439.175351 
L 536.628757 437.037942 
L 537.57264 434.890986 
L 538.495007 432.7347 
L 539.395766 430.569298 
L 540.274825 428.394996 
L 541.132099 426.212013 
L 541.967499 424.020566 
L 542.780944 421.820875 
L 543.572352 419.61316 
L 544.341643 417.397641 
L 545.088741 415.17454 
L 545.813571 412.94408 
L 546.516061 410.706483 
L 547.19614 408.461973 
L 547.85374 406.210774 
L 548.488796 403.953112 
L 549.101243 401.689213 
L 549.691022 399.419302 
L 550.258072 397.143607 
L 550.802337 394.862356 
L 551.323763 392.575776 
L 551.822298 390.284096 
L 552.297891 387.987546 
L 552.750495 385.686354 
L 553.180065 383.380752 
L 553.586558 381.070969 
L 553.969933 378.757237 
L 554.330152 376.439787 
L 554.667179 374.118851 
L 554.98098 371.79466 
L 555.271524 369.467448 
L 555.538782 367.137446 
L 555.782726 364.804889 
L 556.003333 362.470009 
L 556.200581 360.133039 
L 556.37445 357.794214 
L 556.524922 355.453768 
L 556.651982 353.111933 
L 556.755619 350.768945 
L 556.83582 348.425038 
L 556.892579 346.080446 
L 556.925889 343.735404 
L 556.935748 341.390146 
L 556.922154 339.044906 
L 556.885109 336.69992 
L 556.824616 334.355422 
L 556.740682 332.011645 
L 556.633314 329.668825 
L 556.502524 327.327196 
L 556.348325 324.986992 
L 556.170731 322.648447 
L 555.969762 320.311795 
L 555.745436 317.977269 
L 555.497777 315.645103 
L 555.226809 313.31553 
L 554.932559 310.988784 
L 554.615056 308.665096 
L 554.274333 306.344699 
L 553.910424 304.027826 
L 553.523364 301.714707 
L 553.113193 299.405575 
L 552.679952 297.100659 
L 552.223683 294.800192 
L 551.744433 292.504402 
L 551.242249 290.213519 
L 550.717182 287.927772 
L 550.169284 285.64739 
L 549.598611 283.372602 
L 549.005218 281.103633 
L 548.389165 278.840712 
L 547.750515 276.584064 
L 547.08933 274.333916 
L 546.405677 272.090492 
L 545.699625 269.854016 
L 544.971243 267.624713 
L 544.220606 265.402805 
L 543.447787 263.188514 
L 542.652864 260.982062 
L 541.835917 258.78367 
L 540.997027 256.593556 
L 540.136278 254.411941 
L 539.253757 252.239042 
L 538.349551 250.075077 
L 537.42375 247.920263 
L 536.476449 245.774813 
L 535.50774 243.638944 
L 534.517722 241.512869 
L 533.506493 239.3968 
L 532.474154 237.290949 
L 531.420809 235.195526 
L 530.346562 233.110741 
L 529.251521 231.036803 
L 528.135797 228.973919 
L 526.999499 226.922295 
L 525.842743 224.882137 
L 524.665643 222.853647 
L 523.468317 220.83703 
L 522.250885 218.832487 
L 521.01347 216.840218 
L 519.756193 214.860423 
L 518.479182 212.8933 
L 517.182564 210.939044 
L 515.866468 208.997852 
L 514.531027 207.069919 
L 513.176373 205.155435 
L 511.802643 203.254594 
L 510.409973 201.367585 
L 508.998503 199.494596 
L 507.568374 197.635816 
L 506.11973 195.79143 
L 504.652713 193.961622 
L 503.167473 192.146576 
L 501.664157 190.346472 
L 500.142915 188.561491 
L 498.603899 186.791812 
L 497.047264 185.037611 
L 495.473166 183.299064 
L 493.88176 181.576345 
L 492.273208 179.869626 
L 490.647669 178.179077 
L 489.005306 176.504868 
L 487.346283 174.847165 
L 485.670766 173.206136 
L 483.978923 171.581944 
L 482.270924 169.974751 
L 480.546938 168.384718 
L 478.807138 166.812004 
L 477.051698 165.256766 
L 475.280794 163.719161 
L 473.494602 162.199341 
L 471.693302 160.697458 
L 469.877073 159.213664 
L 468.046098 157.748105 
L 466.200559 156.300929 
L 464.34064 154.872281 
L 462.466528 153.462303 
L 460.578411 152.071137 
L 458.676476 150.69892 
L 456.760915 149.345792 
L 454.831918 148.011886 
L 452.889679 146.697337 
L 450.934391 145.402275 
L 448.966251 144.126831 
L 446.985456 142.871132 
L 444.992202 141.635303 
L 442.98669 140.419468 
L 440.96912 139.223748 
L 438.939694 138.048264 
L 436.898615 136.893132 
L 434.846087 135.758469 
L 432.782315 134.644387 
L 430.707506 133.550999 
L 428.621866 132.478413 
L 426.525606 131.426736 
L 424.418933 130.396074 
L 422.302059 129.386531 
L 420.175196 128.398206 
L 418.038556 127.431199 
L 415.892353 126.485606 
L 413.736802 125.561522 
L 411.572118 124.659039 
L 409.398517 123.778249 
L 407.216217 122.919237 
L 405.025436 122.082092 
L 402.826394 121.266895 
L 400.61931 120.47373 
L 398.404404 119.702674 
L 396.181899 118.953806 
L 393.952016 118.2272 
L 391.714979 117.522929 
L 389.471011 116.841063 
L 387.220337 116.18167 
L 384.963182 115.544817 
L 382.699771 114.930567 
L 380.430331 114.338981 
L 378.155088 113.770119 
L 375.874271 113.224037 
L 373.588107 112.700791 
L 371.296825 112.200431 
L 369.000654 111.72301 
L 366.699823 111.268573 
L 364.394564 110.837167 
L 362.085105 110.428835 
L 359.771679 110.043617 
L 357.454517 109.681553 
L 355.13385 109.342678 
L 352.80991 109.027026 
L 350.482929 108.734629 
L 348.153142 108.465516 
L 345.820779 108.219714 
L 343.486076 107.997248 
L 341.149264 107.798139 
L 338.810578 107.622408 
L 336.470252 107.470072 
L 334.128519 107.341147 
L 331.785615 107.235645 
L 329.441772 107.153577 
L 327.097226 107.094951 
L 324.752211 107.059773 
L 322.406962 107.048047 
L 322.406962 109.393335 
z
" clip-path="url(#p77e18f2f62)" style="fill: none; stroke: #000000; stroke-width: 0.5; stroke-linejoin: miter"/>
   </g>
   <g id="patch_13">
    <path d="M 490.228055 502.030302 
L 488.615157 503.700462 
L 486.985638 505.35441 
L 485.339662 506.991981 
L 483.677392 508.61301 
L 481.998995 510.217336 
L 480.304639 511.804798 
L 478.594494 513.375237 
L 476.86873 514.928496 
L 475.169525 516.427731 
L 476.712582 518.1939 
L 478.42895 516.679522 
L 480.172146 515.110573 
L 481.899566 513.524271 
L 483.611036 511.920774 
L 485.306386 510.300243 
L 486.985446 508.66284 
L 488.648049 507.008729 
L 490.294028 505.338074 
L 491.923218 503.651043 
L 490.228055 502.030302 
z
" clip-path="url(#p77e18f2f62)" style="fill: none; stroke: #000000; stroke-width: 0.5; stroke-linejoin: miter"/>
   </g>
   <g id="patch_14">
    <path d="M 475.169525 516.427731 
L 473.413408 517.946588 
L 471.642191 519.447809 
L 469.85605 520.931243 
L 468.055164 522.396742 
L 466.239713 523.844159 
L 464.409879 525.273349 
L 462.565846 526.68417 
L 460.707796 528.07648 
L 458.835916 529.45014 
L 456.950394 530.805013 
L 455.051417 532.140964 
L 453.139176 533.457858 
L 451.213862 534.755565 
L 449.275667 536.033953 
L 447.324786 537.292896 
L 445.361413 538.532268 
L 443.385745 539.751945 
L 441.397978 540.951804 
L 439.398313 542.131725 
L 437.386949 543.291592 
L 435.364087 544.431287 
L 433.329929 545.550696 
L 431.284679 546.649709 
L 429.228541 547.728214 
L 427.161721 548.786105 
L 425.084426 549.823275 
L 422.996863 550.83962 
L 420.899242 551.835039 
L 418.791771 552.809433 
L 416.674662 553.762703 
L 414.548126 554.694755 
L 412.412376 555.605496 
L 410.267625 556.494834 
L 408.114089 557.36268 
L 405.951982 558.208948 
L 403.78152 559.033552 
L 401.602921 559.836412 
L 399.416403 560.617445 
L 397.222184 561.376575 
L 395.020483 562.113725 
L 392.811521 562.828821 
L 390.595518 563.521792 
L 388.372697 564.192569 
L 386.143279 564.841085 
L 383.907488 565.467275 
L 381.665547 566.071075 
L 379.417679 566.652426 
L 377.164111 567.21127 
L 374.905067 567.747551 
L 372.640774 568.261215 
L 370.371457 568.752211 
L 368.097343 569.220489 
L 365.818661 569.666003 
L 363.535638 570.088708 
L 361.248501 570.488563 
L 358.957481 570.865526 
L 356.662805 571.219561 
L 354.364704 571.550632 
L 352.063407 571.858705 
L 349.759145 572.143751 
L 347.452147 572.40574 
L 345.142645 572.644646 
L 342.83087 572.860446 
L 340.517052 573.053118 
L 338.201423 573.222642 
L 335.884214 573.369001 
L 333.565658 573.492182 
L 331.245986 573.592172 
L 328.92543 573.66896 
L 326.604222 573.722539 
L 324.282595 573.752904 
L 321.96078 573.760051 
L 319.639009 573.74398 
L 317.317516 573.704693 
L 314.996531 573.642193 
L 312.676287 573.556487 
L 310.357017 573.447583 
L 308.038951 573.315492 
L 305.722322 573.160227 
L 303.407362 572.981805 
L 301.094302 572.780242 
L 298.783372 572.555558 
L 296.474805 572.307778 
L 294.168832 572.036924 
L 291.865682 571.743024 
L 289.565586 571.426109 
L 287.268775 571.086208 
L 284.975477 570.723356 
L 282.685922 570.337591 
L 280.400339 569.928949 
L 278.118957 569.497472 
L 275.842004 569.043204 
L 273.569707 568.566189 
L 271.302294 568.066475 
L 269.039991 567.544112 
L 266.783025 566.999153 
L 264.531622 566.431652 
L 262.286005 565.841666 
L 260.046401 565.229253 
L 257.813033 564.594475 
L 255.586124 563.937396 
L 253.365897 563.258081 
L 251.152575 562.556598 
L 248.946377 561.833017 
L 246.747526 561.08741 
L 244.55624 560.319853 
L 242.37274 559.530422 
L 240.197243 558.719195 
L 238.029966 557.886255 
L 235.871128 557.031684 
L 233.720943 556.155567 
L 231.579626 555.257993 
L 229.447392 554.339051 
L 227.324454 553.398832 
L 225.211024 552.437432 
L 223.107314 551.454946 
L 221.013533 550.451472 
L 218.929892 549.427111 
L 216.856599 548.381965 
L 214.79386 547.316139 
L 212.741883 546.229739 
L 210.700872 545.122874 
L 208.671031 543.995655 
L 206.652564 542.848194 
L 204.645673 541.680605 
L 202.650557 540.493007 
L 200.667417 539.285517 
L 198.696451 538.058257 
L 196.737855 536.811348 
L 194.791827 535.544916 
L 192.85856 534.259088 
L 190.938248 532.953992 
L 189.031082 531.629758 
L 187.137254 530.286518 
L 185.256953 528.924409 
L 183.390366 527.543564 
L 181.537681 526.144123 
L 179.699083 524.726225 
L 177.874756 523.290013 
L 176.064882 521.835629 
L 174.269642 520.36322 
L 172.489215 518.872932 
L 170.72378 517.364915 
L 168.973514 515.839319 
L 167.23859 514.296297 
L 165.519184 512.736004 
L 163.815465 511.158594 
L 162.127606 509.564227 
L 160.455775 507.95306 
L 158.800139 506.325257 
L 157.160863 504.680978 
L 155.538112 503.02039 
L 153.932047 501.343657 
L 152.34283 499.650948 
L 150.770619 497.942431 
L 149.215572 496.218278 
L 147.677843 494.478661 
L 146.157587 492.723754 
L 144.654957 490.953732 
L 143.170101 489.168773 
L 141.703168 487.369055 
L 140.254306 485.554757 
L 138.823659 483.726062 
L 137.411371 481.883153 
L 136.017581 480.026212 
L 134.642431 478.155427 
L 133.286056 476.270984 
L 131.948594 474.373072 
L 130.630177 472.46188 
L 129.330938 470.5376 
L 128.051007 468.600424 
L 126.79051 466.650546 
L 125.549575 464.68816 
L 124.328326 462.713464 
L 123.126885 460.726654 
L 121.945371 458.727929 
L 120.783903 456.717489 
L 119.642598 454.695535 
L 118.521569 452.662269 
L 117.420928 450.617895 
L 116.340785 448.562617 
L 115.281249 446.49664 
L 114.242425 444.420172 
L 113.224418 442.333419 
L 112.227329 440.23659 
L 111.251257 438.129896 
L 110.296301 436.013547 
L 109.362556 433.887754 
L 108.450115 431.75273 
L 107.55907 429.608688 
L 106.689509 427.455843 
L 105.84152 425.294411 
L 105.015187 423.124607 
L 104.210593 420.946648 
L 103.427818 418.760752 
L 102.666942 416.567138 
L 101.928039 414.366025 
L 101.211183 412.157633 
L 100.516448 409.942183 
L 99.843901 407.719897 
L 99.19361 405.490996 
L 98.56564 403.255704 
L 97.960055 401.014244 
L 97.376913 398.766841 
L 96.816275 396.513718 
L 96.278195 394.255102 
L 95.762729 391.991218 
L 95.269926 389.722293 
L 94.799837 387.448553 
L 94.352508 385.170226 
L 93.927985 382.88754 
L 93.52631 380.600723 
L 93.147522 378.310003 
L 92.79166 376.015611 
L 92.458759 373.717774 
L 92.324706 372.743667 
L 90.000643 373.058482 
L 90.13605 374.042429 
L 90.472313 376.363476 
L 90.83177 378.681045 
L 91.214384 380.994903 
L 91.620117 383.304819 
L 92.048928 385.610563 
L 92.500775 387.911903 
L 92.975613 390.20861 
L 93.473393 392.500454 
L 93.994067 394.787205 
L 94.537581 397.068636 
L 95.103883 399.344517 
L 95.692914 401.614621 
L 96.304617 403.878722 
L 96.93893 406.136593 
L 97.595789 408.388008 
L 98.275129 410.632741 
L 98.976883 412.87057 
L 99.700979 415.101268 
L 100.447345 417.324615 
L 101.215908 419.540387 
L 102.006589 421.748362 
L 102.81931 423.948321 
L 103.65399 426.140042 
L 104.510545 428.323307 
L 105.388889 430.497898 
L 106.288935 432.663596 
L 107.210592 434.820186 
L 108.153769 436.967452 
L 109.118371 439.105179 
L 110.104302 441.233153 
L 111.111463 443.351161 
L 112.139753 445.458992 
L 113.18907 447.556435 
L 114.259309 449.64328 
L 115.350362 451.719319 
L 116.46212 453.784343 
L 117.594473 455.838147 
L 118.747307 457.880525 
L 119.920507 459.911272 
L 121.113955 461.930187 
L 122.327532 463.937065 
L 123.561117 465.931708 
L 124.814587 467.913916 
L 126.087815 469.88349 
L 127.380675 471.840234 
L 128.693038 473.783951 
L 130.024772 475.714447 
L 131.375744 477.631531 
L 132.745819 479.535008 
L 134.13486 481.42469 
L 135.542728 483.300387 
L 136.969283 485.161913 
L 138.414381 487.009079 
L 139.877878 488.841703 
L 141.359627 490.6596 
L 142.859482 492.462589 
L 144.377291 494.25049 
L 145.912903 496.023123 
L 147.466164 497.780312 
L 149.036919 499.521881 
L 150.62501 501.247655 
L 152.23028 502.957463 
L 153.852568 504.651132 
L 155.49171 506.328494 
L 157.147545 507.989382 
L 158.819904 509.633628 
L 160.508623 511.261068 
L 162.213531 512.87154 
L 163.934458 514.464883 
L 165.671233 516.040938 
L 167.423681 517.599546 
L 169.191627 519.140552 
L 170.974895 520.663801 
L 172.773305 522.169142 
L 174.586679 523.656425 
L 176.414835 525.125499 
L 178.25759 526.576218 
L 180.114759 528.008438 
L 181.986158 529.422015 
L 183.871599 530.816808 
L 185.770893 532.192676 
L 187.683851 533.549483 
L 189.610281 534.887093 
L 191.54999 536.205373 
L 193.502785 537.504189 
L 195.46847 538.783413 
L 197.44685 540.042917 
L 199.437724 541.282574 
L 201.440896 542.502261 
L 203.456165 543.701855 
L 205.483328 544.881237 
L 207.522183 546.040289 
L 209.572527 547.178894 
L 211.634155 548.29694 
L 213.706859 549.394313 
L 215.790433 550.470905 
L 217.884669 551.526608 
L 219.989357 552.561316 
L 222.104287 553.574926 
L 224.229247 554.567337 
L 226.364025 555.538448 
L 228.508407 556.488163 
L 230.662178 557.416388 
L 232.825124 558.323028 
L 234.997028 559.207995 
L 237.177674 560.071198 
L 239.366841 560.912552 
L 241.564313 561.731973 
L 243.769869 562.529378 
L 245.983289 563.304688 
L 248.204351 564.057826 
L 250.432833 564.788716 
L 252.668513 565.497285 
L 254.911166 566.183461 
L 257.160569 566.847178 
L 259.416496 567.488368 
L 261.678723 568.106966 
L 263.947022 568.702912 
L 266.221167 569.276146 
L 268.500931 569.826609 
L 270.786085 570.354248 
L 273.076402 570.85901 
L 275.371651 571.340843 
L 277.671604 571.7997 
L 279.97603 572.235535 
L 282.284699 572.648305 
L 284.597381 573.037967 
L 286.913843 573.404484 
L 289.233855 573.747818 
L 291.557184 574.067935 
L 293.883598 574.364803 
L 296.212865 574.638392 
L 298.54475 574.888676 
L 300.879022 575.115629 
L 303.215447 575.319228 
L 305.553791 575.499453 
L 307.89382 575.656286 
L 310.2353 575.789711 
L 312.577998 575.899715 
L 314.921678 575.986287 
L 317.266107 576.049418 
L 319.61105 576.089102 
L 321.956273 576.105335 
L 324.301541 576.098116 
L 326.646619 576.067444 
L 328.991273 576.013324 
L 331.335269 575.93576 
L 333.678372 575.834761 
L 336.020348 575.710336 
L 338.360963 575.562498 
L 340.699982 575.391261 
L 343.037172 575.196643 
L 345.372299 574.978664 
L 347.705129 574.737344 
L 350.03543 574.472709 
L 352.362967 574.184784 
L 354.68751 573.873599 
L 357.008824 573.539184 
L 359.326678 573.181573 
L 361.64084 572.800802 
L 363.951079 572.396909 
L 366.257163 571.969933 
L 368.558862 571.519919 
L 370.855947 571.046911 
L 373.148186 570.550956 
L 375.435351 570.032103 
L 377.717214 569.490405 
L 379.993545 568.925917 
L 382.264118 568.338693 
L 384.528705 567.728793 
L 386.78708 567.096279 
L 389.039018 566.441212 
L 391.284292 565.76366 
L 393.522678 565.063689 
L 395.753953 564.341369 
L 397.977893 563.596773 
L 400.194276 562.829976 
L 402.402881 562.041053 
L 404.603486 561.230084 
L 406.795871 560.39715 
L 408.979817 559.542334 
L 411.155107 558.665722 
L 413.321521 557.767401 
L 415.478845 556.847461 
L 417.626861 555.905994 
L 419.765355 554.943095 
L 421.894113 553.958859 
L 424.012923 552.953385 
L 426.121572 551.926773 
L 428.21985 550.879127 
L 430.307547 549.810551 
L 432.384454 548.721151 
L 434.450363 547.611038 
L 436.505068 546.480321 
L 438.548363 545.329114 
L 440.580044 544.157531 
L 442.599908 542.965691 
L 444.607752 541.753713 
L 446.603377 540.521716 
L 448.586582 539.269826 
L 450.55717 537.998166 
L 452.514942 536.706864 
L 454.459704 535.39605 
L 456.39126 534.065853 
L 458.309418 532.716408 
L 460.213987 531.34785 
L 462.104774 529.960314 
L 463.981592 528.55394 
L 465.844252 527.128868 
L 467.692569 525.685242 
L 469.526358 524.223205 
L 471.345434 522.742903 
L 473.149617 521.244485 
L 474.938726 519.7281 
L 476.712582 518.1939 
L 475.169525 516.427731 
z
" clip-path="url(#p77e18f2f62)" style="fill: none; stroke: #000000; stroke-width: 0.5; stroke-linejoin: miter"/>
   </g>
   <g id="patch_15">
    <path d="M 92.324706 372.743667 
L 92.024548 370.441324 
L 91.747428 368.136095 
L 91.493373 365.82821 
L 91.26241 363.5179 
L 91.054561 361.205396 
L 90.869846 358.890929 
L 90.708286 356.574731 
L 90.569895 354.257033 
L 90.454688 351.938067 
L 90.362675 349.618065 
L 90.293867 347.297259 
L 90.24827 344.97588 
L 90.225889 342.654162 
L 90.226725 340.332336 
L 90.25078 338.010635 
L 90.29805 335.68929 
L 90.36853 333.368534 
L 90.462214 331.048599 
L 90.579093 328.729716 
L 90.719154 326.412119 
L 90.882384 324.096038 
L 91.068765 321.781704 
L 91.278281 319.469351 
L 91.510909 317.159208 
L 91.766627 314.851507 
L 92.045408 312.546478 
L 92.324706 310.410148 
L 90.000643 310.095333 
L 89.718524 312.253241 
L 89.436927 314.581553 
L 89.178626 316.912564 
L 88.943648 319.246042 
L 88.732016 321.581753 
L 88.543751 323.919463 
L 88.378873 326.258939 
L 88.237397 328.599947 
L 88.119338 330.942252 
L 88.024708 333.285621 
L 87.953515 335.629819 
L 87.905768 337.974612 
L 87.88147 340.319765 
L 87.880625 342.665044 
L 87.903233 345.010214 
L 87.94929 347.35504 
L 88.018794 349.699289 
L 88.111735 352.042725 
L 88.228106 354.385115 
L 88.367895 356.726224 
L 88.531088 359.065819 
L 88.717668 361.403664 
L 88.927616 363.739527 
L 89.160913 366.073173 
L 89.417533 368.40437 
L 89.697453 370.732884 
L 90.000643 373.058482 
L 92.324706 372.743667 
z
" clip-path="url(#p77e18f2f62)" style="fill: none; stroke: #000000; stroke-width: 0.5; stroke-linejoin: miter"/>
   </g>
   <g id="patch_16">
    <path d="M 92.324706 310.410148 
L 92.647873 308.110922 
L 92.994015 305.815043 
L 93.363098 303.52274 
L 93.755086 301.234242 
L 94.169938 298.949779 
L 94.607614 296.669578 
L 95.06807 294.393868 
L 95.551259 292.122876 
L 96.057134 289.856829 
L 96.585643 287.595955 
L 97.136735 285.340478 
L 97.710353 283.090625 
L 98.306441 280.846621 
L 98.924939 278.608689 
L 99.565784 276.377055 
L 100.228914 274.15194 
L 100.914261 271.933568 
L 101.587263 269.828238 
L 99.356761 269.103504 
L 98.676961 271.2301 
L 97.984691 273.47088 
L 97.314863 275.718471 
L 96.667544 277.972647 
L 96.042799 280.233184 
L 95.44069 282.499855 
L 94.861278 284.772433 
L 94.30462 287.050693 
L 93.770772 289.334404 
L 93.259787 291.62334 
L 92.771717 293.917271 
L 92.30661 296.215968 
L 91.864514 298.519202 
L 91.445471 300.826741 
L 91.049524 303.138354 
L 90.676712 305.453812 
L 90.327074 307.772882 
L 90.000643 310.095333 
L 92.324706 310.410148 
z
" clip-path="url(#p77e18f2f62)" style="fill: none; stroke: #000000; stroke-width: 0.5; stroke-linejoin: miter"/>
   </g>
   <g id="patch_17">
    <path d="M 101.587263 269.828238 
L 102.315778 267.623665 
L 103.066303 265.426488 
L 103.838761 263.236925 
L 104.633076 261.055196 
L 105.449169 258.88152 
L 106.286957 256.716113 
L 107.146356 254.559192 
L 108.027282 252.410973 
L 108.929645 250.27167 
L 109.853356 248.141497 
L 110.798322 246.020668 
L 111.764449 243.909395 
L 112.75164 241.807888 
L 113.759796 239.716359 
L 114.788817 237.635015 
L 115.838599 235.564065 
L 116.909038 233.503716 
L 117.947146 231.552389 
L 115.881895 230.44103 
L 114.833302 232.412068 
L 113.75205 234.493228 
L 112.691664 236.585097 
L 111.652249 238.687464 
L 110.633909 240.800121 
L 109.636747 242.922855 
L 108.660861 245.055454 
L 107.70635 247.197705 
L 106.773309 249.349395 
L 105.861831 251.510307 
L 104.972007 253.680225 
L 104.103926 255.858933 
L 103.257676 258.046213 
L 102.43334 260.241846 
L 101.631002 262.445612 
L 100.850741 264.657291 
L 100.092635 266.876663 
L 99.356761 269.103504 
L 101.587263 269.828238 
z
" clip-path="url(#p77e18f2f62)" style="fill: none; stroke: #000000; stroke-width: 0.5; stroke-linejoin: miter"/>
   </g>
   <g id="patch_18">
    <path d="M 117.947146 231.552389 
L 119.057595 229.513326 
L 120.18838 227.485469 
L 121.339386 225.469022 
L 122.510499 223.464185 
L 123.701601 221.471159 
L 124.912574 219.490144 
L 126.143296 217.521337 
L 127.393644 215.564936 
L 128.663493 213.621136 
L 129.952717 211.690131 
L 131.261185 209.772115 
L 132.588769 207.867279 
L 133.935333 205.975814 
L 135.300745 204.097909 
L 136.684868 202.233752 
L 138.087562 200.38353 
L 139.508688 198.547426 
L 140.948104 196.725625 
L 142.405665 194.918309 
L 143.881227 193.125659 
L 145.374641 191.347854 
L 146.885758 189.585072 
L 148.414427 187.837488 
L 149.960495 186.105279 
L 151.523808 184.388617 
L 153.104209 182.687673 
L 154.701539 181.002618 
L 156.315641 179.33362 
L 157.946351 177.680847 
L 159.593507 176.044463 
L 161.256945 174.424632 
L 162.936497 172.821516 
L 164.631996 171.235276 
L 166.343273 169.66607 
L 168.070156 168.114054 
L 169.644398 166.726084 
L 168.101342 164.959915 
L 166.511198 166.361904 
L 164.766872 167.929596 
L 163.03831 169.514653 
L 161.325684 171.116916 
L 159.629167 172.736225 
L 157.948927 174.372418 
L 156.285133 176.025331 
L 154.637951 177.694799 
L 153.007545 179.380655 
L 151.39408 181.082731 
L 149.797715 182.800856 
L 148.218612 184.534858 
L 146.656927 186.284565 
L 145.112817 188.049801 
L 143.586436 189.830389 
L 142.077937 191.626152 
L 140.587471 193.436909 
L 139.115186 195.262481 
L 137.661231 197.102684 
L 136.22575 198.957334 
L 134.808887 200.826246 
L 133.410784 202.709233 
L 132.03158 204.606106 
L 130.671413 206.516677 
L 129.33042 208.440753 
L 128.008734 210.378143 
L 126.706489 212.328653 
L 125.423812 214.292088 
L 124.160835 216.26825 
L 122.917681 218.256944 
L 121.694476 220.25797 
L 120.491343 222.271127 
L 119.308401 224.296215 
L 118.145768 226.33303 
L 117.003561 228.38137 
L 115.881895 230.44103 
L 117.947146 231.552389 
z
" clip-path="url(#p77e18f2f62)" style="fill: none; stroke: #000000; stroke-width: 0.5; stroke-linejoin: miter"/>
   </g>
   <g id="patch_19">
    <path d="M 169.644398 166.726084 
L 171.400515 165.207227 
L 173.171733 163.706006 
L 174.957874 162.222572 
L 176.75876 160.757073 
L 178.574211 159.309656 
L 180.404044 157.880466 
L 182.248078 156.469645 
L 184.106128 155.077335 
L 185.978007 153.703675 
L 187.86353 152.348802 
L 189.762506 151.012851 
L 191.674747 149.695957 
L 193.600061 148.39825 
L 195.538256 147.119862 
L 197.489138 145.860919 
L 199.452511 144.621547 
L 201.428179 143.40187 
L 203.320175 142.2592 
L 202.117279 140.24589 
L 200.206171 141.400102 
L 198.210547 142.632099 
L 196.227341 143.883989 
L 194.256754 145.155649 
L 192.298982 146.446951 
L 190.35422 147.757765 
L 188.422663 149.087962 
L 186.504505 150.437407 
L 184.599937 151.805965 
L 182.70915 153.193501 
L 180.832332 154.599875 
L 178.969671 156.024947 
L 177.121354 157.468573 
L 175.287566 158.93061 
L 173.468489 160.410912 
L 171.664306 161.90933 
L 169.875198 163.425715 
L 168.101342 164.959915 
L 169.644398 166.726084 
z
" clip-path="url(#p77e18f2f62)" style="fill: none; stroke: #000000; stroke-width: 0.5; stroke-linejoin: miter"/>
   </g>
   <g id="patch_20">
    <path d="M 203.320175 142.2592 
L 205.319274 141.078318 
L 207.33008 139.917485 
L 209.352395 138.776819 
L 211.386015 137.656432 
L 213.430736 136.556437 
L 215.486356 135.476944 
L 217.552667 134.41806 
L 219.629464 133.379893 
L 221.716538 132.362545 
L 223.813681 131.366118 
L 225.920684 130.390712 
L 228.037335 129.436424 
L 230.163423 128.503351 
L 232.298735 127.591584 
L 234.443058 126.701216 
L 236.596177 125.832335 
L 238.757877 124.985029 
L 240.927942 124.159382 
L 243.106155 123.355476 
L 245.292298 122.573392 
L 247.486153 121.813208 
L 249.687499 121.075001 
L 251.896117 120.358843 
L 254.111786 119.664807 
L 256.334285 118.992963 
L 258.563391 118.343376 
L 260.798881 117.716112 
L 263.040532 117.111235 
L 265.28812 116.528804 
L 267.54142 115.968877 
L 269.800205 115.431511 
L 272.064252 114.916759 
L 274.333333 114.424674 
L 276.607221 113.955303 
L 278.885689 113.508694 
L 280.948984 113.124621 
L 280.530217 110.817022 
L 278.44608 111.204975 
L 276.144597 111.656095 
L 273.847741 112.130207 
L 271.55574 112.627263 
L 269.268824 113.147214 
L 266.987222 113.690008 
L 264.711162 114.25559 
L 262.440872 114.843905 
L 260.176578 115.454892 
L 257.918507 116.088492 
L 255.666884 116.74464 
L 253.421936 117.423271 
L 251.183886 118.124317 
L 248.952959 118.847709 
L 246.729377 119.593373 
L 244.513362 120.361235 
L 242.305137 121.151219 
L 240.104922 121.963245 
L 237.912937 122.797232 
L 235.729401 123.653097 
L 233.554533 124.530755 
L 231.388551 125.430116 
L 229.23167 126.351093 
L 227.084106 127.293591 
L 224.946075 128.257518 
L 222.817789 129.242776 
L 220.699463 130.249268 
L 218.591307 131.276892 
L 216.493533 132.325547 
L 214.40635 133.395126 
L 212.329966 134.485523 
L 210.264591 135.596629 
L 208.21043 136.728333 
L 206.167688 137.880522 
L 204.13657 139.05308 
L 202.117279 140.24589 
L 203.320175 142.2592 
z
" clip-path="url(#p77e18f2f62)" style="fill: none; stroke: #000000; stroke-width: 0.5; stroke-linejoin: miter"/>
   </g>
   <g id="patch_21">
    <path d="M 280.948984 113.124621 
L 283.235542 112.721471 
L 285.526017 112.341206 
L 287.820179 111.983864 
L 290.117801 111.649481 
L 292.418651 111.338092 
L 294.722501 111.049725 
L 297.029118 110.784412 
L 299.338274 110.542177 
L 301.649736 110.323045 
L 303.963274 110.127039 
L 306.278656 109.954178 
L 308.595651 109.804478 
L 310.914027 109.677956 
L 313.233553 109.574624 
L 315.553996 109.494491 
L 317.875124 109.437567 
L 320.196705 109.403856 
L 322.406962 109.393335 
L 322.406962 107.048047 
L 320.174379 107.058673 
L 317.829348 107.092725 
L 315.484774 107.150224 
L 313.140892 107.231166 
L 310.797937 107.335543 
L 308.456143 107.463343 
L 306.115744 107.614554 
L 303.776974 107.789162 
L 301.440067 107.987148 
L 299.105256 108.208493 
L 296.772776 108.453174 
L 294.44286 108.721168 
L 292.115739 109.012447 
L 289.791648 109.326982 
L 287.470818 109.664742 
L 285.153482 110.025693 
L 282.839871 110.409799 
L 280.530217 110.817022 
L 280.948984 113.124621 
z
" clip-path="url(#p77e18f2f62)" style="fill: none; stroke: #000000; stroke-width: 0.5; stroke-linejoin: miter"/>
   </g>
   <g id="text_1">
    <text style="font: 3px 'DejaVu Sans', 'Bitstream Vera Sans', 'Computer Modern Sans Serif', 'Lucida Grande', 'Verdana', 'Geneva', 'Lucid', 'Arial', 'Helvetica', 'Avant Garde', sans-serif; text-anchor: start" x="540.667277" y="249.527484" transform="rotate(-23.142857 540.667277 249.527484)">Hamad bin Khalifa University</text>
   </g>
   <g id="text_2">
    <text style="font: 3px 'DejaVu Sans', 'Bitstream Vera Sans', 'Computer Modern Sans Serif', 'Lucida Grande', 'Verdana', 'Geneva', 'Lucid', 'Arial', 'Helvetica', 'Avant Garde', sans-serif; text-anchor: start" x="485.278022" y="513.575975" transform="rotate(-313.714286 485.278022 513.575975)">Doha Institute for Graduate Studies</text>
   </g>
   <g id="text_3">
    <text style="font: 3px 'DejaVu Sans', 'Bitstream Vera Sans', 'Computer Modern Sans Serif', 'Lucida Grande', 'Verdana', 'Geneva', 'Lucid', 'Arial', 'Helvetica', 'Avant Garde', sans-serif; text-anchor: end" x="240.242438" y="563.747231" transform="rotate(-69.428571 240.242438 563.747231)">Qatar University</text>
   </g>
   <g id="text_4">
    <text style="font: 3px 'DejaVu Sans', 'Bitstream Vera Sans', 'Computer Modern Sans Serif', 'Lucida Grande', 'Verdana', 'Geneva', 'Lucid', 'Arial', 'Helvetica', 'Avant Garde', sans-serif; text-anchor: end" x="85.532813" y="342.716673" transform="rotate(-0 85.532813 342.716673)">Northwestern University in Qatar</text>
   </g>
   <g id="text_5">
    <text style="font: 3px 'DejaVu Sans', 'Bitstream Vera Sans', 'Computer Modern Sans Serif', 'Lucida Grande', 'Verdana', 'Geneva', 'Lucid', 'Arial', 'Helvetica', 'Avant Garde', sans-serif; text-anchor: end" x="91.21812" y="289.97864" transform="rotate(-347.142857 91.21812 289.97864)">Sidra Medical and Research Center</text>
   </g>
   <g id="text_6">
    <text style="font: 3px 'DejaVu Sans', 'Bitstream Vera Sans', 'Computer Modern Sans Serif', 'Lucida Grande', 'Verdana', 'Geneva', 'Lucid', 'Arial', 'Helvetica', 'Avant Garde', sans-serif; text-anchor: end" x="104.146647" y="249.527484" transform="rotate(-336.857143 104.146647 249.527484)">Qatar Foundation</text>
   </g>
   <g id="text_7">
    <text style="font: 3px 'DejaVu Sans', 'Bitstream Vera Sans', 'Computer Modern Sans Serif', 'Lucida Grande', 'Verdana', 'Geneva', 'Lucid', 'Arial', 'Helvetica', 'Avant Garde', sans-serif; text-anchor: end" x="136.500662" y="194.779396" transform="rotate(-321.428571 136.500662 194.779396)">University of Calgary in Qatar</text>
   </g>
   <g id="text_8">
    <text style="font: 3px 'DejaVu Sans', 'Bitstream Vera Sans', 'Computer Modern Sans Serif', 'Lucida Grande', 'Verdana', 'Geneva', 'Lucid', 'Arial', 'Helvetica', 'Avant Garde', sans-serif; text-anchor: end" x="182.25374" y="150.611633" transform="rotate(-306 182.25374 150.611633)">Qatar Mobility Innovations Center</text>
   </g>
   <g id="text_9">
    <text style="font: 3px 'DejaVu Sans', 'Bitstream Vera Sans', 'Computer Modern Sans Serif', 'Lucida Grande', 'Verdana', 'Geneva', 'Lucid', 'Arial', 'Helvetica', 'Avant Garde', sans-serif; text-anchor: end" x="238.108261" y="120.207554" transform="rotate(-290.571429 238.108261 120.207554)">Hamad Medical Corporation</text>
   </g>
   <g id="text_10">
    <text style="font: 3px 'DejaVu Sans', 'Bitstream Vera Sans', 'Computer Modern Sans Serif', 'Lucida Grande', 'Verdana', 'Geneva', 'Lucid', 'Arial', 'Helvetica', 'Avant Garde', sans-serif; text-anchor: end" x="300.03855" y="105.758512" transform="rotate(-275.142857 300.03855 105.758512)">University of Doha for Science and Technology</text>
   </g>
  </g>
 </g>
 <defs>
  <clipPath id="p77e18f2f62">
   <path d="M 568.662266 341.576908 
C 568.662266 309.238957 562.292395 277.215453 549.917197 247.339083 
C 537.541999 217.462712 519.402141 190.314496 496.535757 167.448112 
C 473.669373 144.581728 446.521157 126.44187 416.644787 114.066673 
C 386.768416 101.691475 354.744912 95.321604 322.406962 95.321604 
C 290.069012 95.321604 258.045507 101.691475 228.169137 114.066673 
C 198.292767 126.44187 171.144551 144.581728 148.278167 167.448112 
C 125.411783 190.314496 107.271925 217.462712 94.896727 247.339083 
C 82.521529 277.215453 76.151658 309.238957 76.151658 341.576908 
C 76.151658 373.914858 82.521529 405.938362 94.896727 435.814732 
C 107.271925 465.691103 125.411783 492.839319 148.278167 515.705703 
C 171.144551 538.572087 198.292767 556.711945 228.169137 569.087142 
C 258.045507 581.46234 290.069012 587.832211 322.406962 587.832211 
C 354.744912 587.832211 386.768416 581.46234 416.644787 569.087142 
C 446.521157 556.711945 473.669373 538.572087 496.535757 515.705703 
C 519.402141 492.839319 537.541999 465.691103 549.917197 435.814732 
C 562.292395 405.938362 568.662266 373.914858 568.662266 341.576908 
M 322.406962 341.576908 
C 322.406962 341.576908 322.406962 341.576908 322.406962 341.576908 
C 322.406962 341.576908 322.406962 341.576908 322.406962 341.576908 
C 322.406962 341.576908 322.406962 341.576908 322.406962 341.576908 
C 322.406962 341.576908 322.406962 341.576908 322.406962 341.576908 
C 322.406962 341.576908 322.406962 341.576908 322.406962 341.576908 
C 322.406962 341.576908 322.406962 341.576908 322.406962 341.576908 
C 322.406962 341.576908 322.406962 341.576908 322.406962 341.576908 
C 322.406962 341.576908 322.406962 341.576908 322.406962 341.576908 
C 322.406962 341.576908 322.406962 341.576908 322.406962 341.576908 
C 322.406962 341.576908 322.406962 341.576908 322.406962 341.576908 
C 322.406962 341.576908 322.406962 341.576908 322.406962 341.576908 
C 322.406962 341.576908 322.406962 341.576908 322.406962 341.576908 
C 322.406962 341.576908 322.406962 341.576908 322.406962 341.576908 
C 322.406962 341.576908 322.406962 341.576908 322.406962 341.576908 
C 322.406962 341.576908 322.406962 341.576908 322.406962 341.576908 
C 322.406962 341.576908 322.406962 341.576908 322.406962 341.576908 
z
"/>
  </clipPath>
 </defs>
</svg>
