<?xml version="1.0" encoding="utf-8" standalone="no"?>
<!DOCTYPE svg PUBLIC "-//W3C//DTD SVG 1.1//EN"
  "http://www.w3.org/Graphics/SVG/1.1/DTD/svg11.dtd">
<svg xmlns:xlink="http://www.w3.org/1999/xlink" width="629.184432pt" height="518.028656pt" viewBox="0 0 629.184432 518.028656" xmlns="http://www.w3.org/2000/svg" version="1.1">
 <metadata>
  <rdf:RDF xmlns:dc="http://purl.org/dc/elements/1.1/" xmlns:cc="http://creativecommons.org/ns#" xmlns:rdf="http://www.w3.org/1999/02/22-rdf-syntax-ns#">
   <cc:Work>
    <dc:type rdf:resource="http://purl.org/dc/dcmitype/StillImage"/>
    <dc:date>2024-11-16T03:40:44.128708</dc:date>
    <dc:format>image/svg+xml</dc:format>
    <dc:creator>
     <cc:Agent>
      <dc:title>Matplotlib v3.8.4, https://matplotlib.org/</dc:title>
     </cc:Agent>
    </dc:creator>
   </cc:Work>
  </rdf:RDF>
 </metadata>
 <defs>
  <style type="text/css">*{stroke-linejoin: round; stroke-linecap: butt}</style>
 </defs>
 <g id="figure_1">
  <g id="patch_1">
   <path d="M 0 518.028656 
L 629.184432 518.028656 
L 629.184432 0 
L 0 0 
z
" style="fill: #ffffff"/>
  </g>
  <g id="axes_1">
   <g id="patch_2">
    <path d="M 299.971669 48.743676 
L 302.074341 48.754189 
L 304.176802 48.785729 
L 306.278843 48.838291 
L 308.380253 48.91187 
L 310.480822 49.006459 
L 312.58034 49.12205 
L 314.678597 49.258629 
L 316.775384 49.416183 
L 318.87049 49.594697 
L 320.963707 49.794153 
L 323.054824 50.014531 
L 325.143633 50.255809 
L 327.229925 50.517962 
L 329.313491 50.800965 
L 331.394123 51.104789 
L 333.471612 51.429403 
L 335.545752 51.774776 
L 337.616334 52.140873 
L 339.683152 52.527657 
L 341.745999 52.93509 
L 343.804668 53.36313 
L 345.858954 53.811735 
L 347.908652 54.28086 
L 349.953555 54.770459 
L 351.993461 55.280481 
L 354.028165 55.810877 
L 356.057462 56.361593 
L 358.081152 56.932574 
L 360.09903 57.523763 
L 362.110896 58.135101 
L 364.116548 58.766527 
L 366.115785 59.417978 
L 368.108408 60.089388 
L 370.094218 60.78069 
L 372.073015 61.491815 
L 374.044602 62.222693 
L 376.008782 62.973249 
L 377.965358 63.743409 
L 379.914135 64.533097 
L 381.854918 65.342232 
L 383.787513 66.170735 
L 385.711726 67.018521 
L 387.627365 67.885507 
L 389.534238 68.771606 
L 391.432156 69.676729 
L 393.320927 70.600785 
L 395.200364 71.543683 
L 397.070278 72.505327 
L 398.930482 73.485622 
L 400.78079 74.48447 
L 402.621017 75.501771 
L 404.45098 76.537423 
L 406.270495 77.591323 
L 408.079379 78.663364 
L 409.877454 79.753441 
L 411.664537 80.861443 
L 413.440452 81.987261 
L 415.20502 83.130781 
L 416.958064 84.29189 
L 418.69941 85.47047 
L 420.428884 86.666405 
L 422.146311 87.879574 
L 423.851522 89.109857 
L 425.544344 90.35713 
L 427.224609 91.621269 
L 428.89215 92.902146 
L 430.546798 94.199635 
L 432.188388 95.513605 
L 433.816758 96.843926 
L 435.431742 98.190463 
L 437.033181 99.553082 
L 438.620914 100.931647 
L 440.194782 102.326021 
L 441.754628 103.736063 
L 443.300296 105.161632 
L 444.831631 106.602587 
L 446.34848 108.058783 
L 447.850691 109.530075 
L 449.338115 111.016315 
L 450.810602 112.517354 
L 452.268006 114.033043 
L 453.71018 115.56323 
L 455.13698 117.107762 
L 456.548264 118.666484 
L 457.94389 120.239242 
L 459.323719 121.825876 
L 460.687613 123.426229 
L 462.035436 125.040141 
L 463.367052 126.667451 
L 464.682329 128.307995 
L 465.981135 129.961609 
L 467.263341 131.628129 
L 468.528817 133.307387 
L 469.777438 134.999215 
L 471.009078 136.703446 
L 472.223615 138.419907 
L 473.420926 140.148427 
L 474.600893 141.888834 
L 475.763397 143.640953 
L 476.908322 145.40461 
L 478.035553 147.179627 
L 479.144979 148.965828 
L 480.236487 150.763034 
L 481.309969 152.571064 
L 482.365317 154.389739 
L 483.402425 156.218877 
L 484.421191 158.058293 
L 485.421512 159.907806 
L 486.403289 161.767228 
L 487.366422 163.636376 
L 488.310816 165.515061 
L 489.236376 167.403096 
L 490.14301 169.300292 
L 491.030627 171.206459 
L 491.899138 173.121408 
L 492.748457 175.044945 
L 493.578498 176.976879 
L 494.389178 178.917017 
L 495.180417 180.865164 
L 495.952136 182.821127 
L 496.704256 184.784708 
L 497.436703 186.755713 
L 498.149404 188.733943 
L 498.842288 190.719202 
L 499.515284 192.711289 
L 500.168326 194.710007 
L 500.801349 196.715156 
L 501.414289 198.726534 
L 502.007085 200.743941 
L 502.579677 202.767175 
L 503.132009 204.796034 
L 503.664025 206.830314 
L 504.175672 208.869813 
L 504.666899 210.914326 
L 505.137656 212.963649 
L 505.587897 215.017577 
L 506.017576 217.075905 
L 506.426651 219.138427 
L 506.815081 221.204936 
L 507.182827 223.275226 
L 507.529851 225.34909 
L 507.85612 227.426321 
L 508.161601 229.50671 
L 508.446263 231.59005 
L 508.710077 233.676132 
L 508.953018 235.764748 
L 509.175061 237.85569 
L 509.376184 239.948747 
L 509.556366 242.04371 
L 509.715591 244.140371 
L 509.853841 246.238519 
L 509.971103 248.337944 
L 510.067365 250.438437 
L 510.142618 252.539788 
L 510.196853 254.641786 
L 510.230067 256.744222 
L 510.242255 258.846884 
L 510.233416 260.949563 
L 510.203551 263.052049 
L 510.152663 265.154131 
L 510.080757 267.255599 
L 509.98784 269.356242 
L 509.873922 271.455852 
L 509.739014 273.554218 
L 509.583129 275.651129 
L 509.406283 277.746377 
L 509.208494 279.839751 
L 508.989782 281.931044 
L 508.750168 284.020044 
L 508.489676 286.106544 
L 508.208332 288.190335 
L 507.906165 290.271208 
L 507.583205 292.348955 
L 507.239484 294.423369 
L 506.875036 296.494243 
L 506.489898 298.561368 
L 506.084108 300.624538 
L 505.657708 302.683548 
L 505.210739 304.73819 
L 504.743246 306.788261 
L 504.255276 308.833554 
L 503.746878 310.873865 
L 503.218102 312.90899 
L 502.669003 314.938726 
L 502.099633 316.962869 
L 501.510051 318.981218 
L 500.900315 320.99357 
L 500.270487 322.999724 
L 499.620629 324.999479 
L 498.950806 326.992636 
L 498.261085 328.978996 
L 497.551536 330.958358 
L 496.822229 332.930527 
L 496.073236 334.895304 
L 495.304634 336.852493 
L 494.516499 338.801898 
L 493.70891 340.743325 
L 492.881946 342.676578 
L 492.035692 344.601466 
L 491.170232 346.517795 
L 490.285652 348.425373 
L 489.382041 350.324011 
L 488.459489 352.213518 
L 487.518088 354.093705 
L 486.557933 355.964384 
L 485.57912 357.825368 
L 484.581745 359.676471 
L 483.56591 361.517508 
L 482.531716 363.348294 
L 481.479266 365.168648 
L 480.408665 366.978386 
L 479.320021 368.777328 
L 478.213442 370.565293 
L 477.089038 372.342104 
L 475.946924 374.107581 
L 474.787212 375.86155 
L 473.610018 377.603834 
L 472.415461 379.334259 
L 471.20366 381.052652 
L 469.974735 382.758842 
L 468.728811 384.452657 
L 467.466011 386.133928 
L 466.186461 387.802488 
L 464.89029 389.458169 
L 463.577628 391.100805 
L 462.248605 392.730234 
L 460.903354 394.34629 
L 459.542011 395.948814 
L 458.16471 397.537644 
L 456.771591 399.112622 
L 455.362791 400.67359 
L 453.938453 402.220392 
L 452.498717 403.752874 
L 451.04373 405.270882 
L 449.573635 406.774265 
L 448.08858 408.262872 
L 446.588714 409.736554 
L 445.074186 411.195164 
L 443.545148 412.638556 
L 442.001753 414.066586 
L 440.444155 415.47911 
L 438.872509 416.875989 
L 437.286974 418.257081 
L 435.687707 419.622249 
L 434.074869 420.971356 
L 432.448621 422.304268 
L 430.809125 423.620851 
L 429.156545 424.920974 
L 427.491047 426.204506 
L 425.812797 427.471319 
L 424.121963 428.721286 
L 422.418715 429.954283 
L 420.703221 431.170186 
L 418.975655 432.368874 
L 417.236188 433.550226 
L 415.484995 434.714125 
L 413.722251 435.860454 
L 411.948132 436.989099 
L 410.162815 438.099946 
L 408.366479 439.192885 
L 406.559304 440.267806 
L 404.74147 441.324602 
L 402.913159 442.363167 
L 401.074554 443.383398 
L 399.225839 444.385191 
L 397.367199 445.368448 
L 395.498819 446.33307 
L 393.620886 447.278959 
L 391.733589 448.206023 
L 389.837115 449.114167 
L 387.931655 450.003302 
L 386.0174 450.873337 
L 384.094539 451.724188 
L 382.163267 452.555767 
L 380.223775 453.367992 
L 378.276258 454.160782 
L 376.320911 454.934058 
L 374.357929 455.687742 
L 372.387508 456.421758 
L 370.409846 457.136034 
L 368.42514 457.830498 
L 366.433589 458.505081 
L 364.435392 459.159715 
L 362.430748 459.794334 
L 360.419858 460.408875 
L 358.402924 461.003277 
L 356.380147 461.577481 
L 354.351729 462.131428 
L 352.317872 462.665064 
L 350.278782 463.178335 
L 348.23466 463.671189 
L 346.185713 464.143579 
L 344.132144 464.595455 
L 342.074159 465.026773 
L 340.011963 465.437491 
L 337.945764 465.827566 
L 335.875768 466.19696 
L 333.802181 466.545636 
L 331.725211 466.873559 
L 329.645065 467.180696 
L 327.561953 467.467017 
L 325.476081 467.732493 
L 323.387659 467.977097 
L 321.296895 468.200805 
L 319.203999 468.403594 
L 317.10918 468.585445 
L 315.012647 468.746339 
L 312.91461 468.886259 
L 310.815278 469.005193 
L 308.714862 469.103128 
L 306.613572 469.180054 
L 304.511618 469.235964 
L 302.409209 469.270851 
L 300.306557 469.284714 
L 299.971669 469.28498 
L 299.971669 471.408926 
L 300.30994 471.408657 
L 302.433831 471.394655 
L 304.557476 471.359415 
L 306.680662 471.30294 
L 308.803177 471.225237 
L 310.924809 471.126313 
L 313.045346 471.006178 
L 315.164576 470.864844 
L 317.282286 470.702325 
L 319.398265 470.518637 
L 321.512302 470.313799 
L 323.624184 470.087832 
L 325.733701 469.840757 
L 327.840642 469.5726 
L 329.944797 469.283387 
L 332.045954 468.973147 
L 334.143903 468.641912 
L 336.238435 468.289714 
L 338.329341 467.916588 
L 340.416411 467.522573 
L 342.499436 467.107707 
L 344.578209 466.672032 
L 346.652521 466.215591 
L 348.722165 465.73843 
L 350.786934 465.240597 
L 352.846622 464.722142 
L 354.901022 464.183116 
L 356.949929 463.623573 
L 358.993139 463.04357 
L 361.030446 462.443164 
L 363.061648 461.822415 
L 365.08654 461.181385 
L 367.104921 460.520139 
L 369.116589 459.838742 
L 371.121343 459.137264 
L 373.118981 458.415773 
L 375.109305 457.674342 
L 377.092115 456.913045 
L 379.067214 456.131959 
L 381.034402 455.33116 
L 382.993485 454.510731 
L 384.944265 453.670752 
L 386.886548 452.811307 
L 388.82014 451.932483 
L 390.744847 451.034367 
L 392.660477 450.11705 
L 394.566838 449.180622 
L 396.463739 448.225178 
L 398.350992 447.250813 
L 400.228406 446.257624 
L 402.095795 445.245712 
L 403.952972 444.215176 
L 405.799751 443.16612 
L 407.635946 442.09865 
L 409.461376 441.012871 
L 411.275857 439.908892 
L 413.079207 438.786824 
L 414.871247 437.646779 
L 416.651796 436.488871 
L 418.420678 435.313215 
L 420.177715 434.11993 
L 421.922732 432.909134 
L 423.655554 431.680949 
L 425.376007 430.435498 
L 427.08392 429.172904 
L 428.779122 427.893295 
L 430.461443 426.596798 
L 432.130715 425.283543 
L 433.786772 423.953661 
L 435.429447 422.607286 
L 437.058576 421.244551 
L 438.673997 419.865593 
L 440.275548 418.470551 
L 441.863069 417.059563 
L 443.4364 415.63277 
L 444.995385 414.190316 
L 446.539868 412.732344 
L 448.069694 411.259001 
L 449.584711 409.770433 
L 451.084766 408.26679 
L 452.56971 406.748221 
L 454.039395 405.21488 
L 455.493673 403.666918 
L 456.932398 402.104492 
L 458.355428 400.527756 
L 459.76262 398.936869 
L 461.153832 397.33199 
L 462.528927 395.71328 
L 463.887766 394.080899 
L 465.230213 392.435012 
L 466.556135 390.775783 
L 467.865398 389.103379 
L 469.157873 387.417965 
L 470.433428 385.719711 
L 471.691938 384.008786 
L 472.933276 382.285363 
L 474.157318 380.549612 
L 475.363941 378.801708 
L 476.553025 377.041825 
L 477.724452 375.27014 
L 478.878103 373.486829 
L 480.013863 371.692071 
L 481.13162 369.886045 
L 482.231261 368.068932 
L 483.312676 366.240914 
L 484.375757 364.402173 
L 485.420398 362.552893 
L 486.446494 360.69326 
L 487.453942 358.823459 
L 488.442643 356.943677 
L 489.412497 355.054102 
L 490.363406 353.154924 
L 491.295277 351.246331 
L 492.208016 349.328515 
L 493.101531 347.401668 
L 493.975733 345.465983 
L 494.830535 343.521652 
L 495.665851 341.56887 
L 496.481598 339.607833 
L 497.277695 337.638737 
L 498.05406 335.661779 
L 498.810618 333.677155 
L 499.547292 331.685066 
L 500.264009 329.685709 
L 500.960696 327.679286 
L 501.637285 325.665996 
L 502.293707 323.646041 
L 502.929898 321.619622 
L 503.545792 319.586944 
L 504.14133 317.548208 
L 504.71645 315.503619 
L 505.271097 313.45338 
L 505.805213 311.397699 
L 506.318747 309.336778 
L 506.811645 307.270826 
L 507.28386 305.200048 
L 507.735344 303.124651 
L 508.166052 301.044843 
L 508.575941 298.960833 
L 508.964969 296.872827 
L 509.333098 294.781036 
L 509.680291 292.685669 
L 510.006514 290.586934 
L 510.311733 288.485042 
L 510.595918 286.380203 
L 510.859041 284.272627 
L 511.101076 282.162526 
L 511.321997 280.050109 
L 511.521784 277.935589 
L 511.700416 275.819178 
L 511.857876 273.701085 
L 511.994147 271.581524 
L 512.109215 269.460706 
L 512.203071 267.338844 
L 512.275703 265.216149 
L 512.327105 263.092834 
L 512.357272 260.969111 
L 512.3662 258.845193 
L 512.353889 256.721291 
L 512.32034 254.597619 
L 512.265556 252.474389 
L 512.189543 250.351812 
L 512.092309 248.230102 
L 511.973863 246.10947 
L 511.834216 243.990129 
L 511.673384 241.87229 
L 511.491381 239.756165 
L 511.288227 237.641966 
L 511.063941 235.529904 
L 510.818546 233.420191 
L 510.552067 231.313037 
L 510.264529 229.208653 
L 509.955963 227.10725 
L 509.626399 225.009037 
L 509.275869 222.914225 
L 508.904409 220.823023 
L 508.512055 218.73564 
L 508.098848 216.652285 
L 507.664829 214.573166 
L 507.21004 212.498491 
L 506.734527 210.428467 
L 506.238339 208.363303 
L 505.721524 206.303203 
L 505.184134 204.248374 
L 504.626223 202.199022 
L 504.047847 200.155351 
L 503.449063 198.117566 
L 502.829932 196.085871 
L 502.190515 194.060469 
L 501.530876 192.041562 
L 500.851082 190.029352 
L 500.1512 188.02404 
L 499.4313 186.025828 
L 498.691454 184.034914 
L 497.931736 182.051498 
L 497.152223 180.075779 
L 496.352992 178.107953 
L 495.534122 176.148218 
L 494.695697 174.196769 
L 493.8378 172.253802 
L 492.960516 170.319511 
L 492.063933 168.39409 
L 491.148141 166.47773 
L 490.213232 164.570624 
L 489.259298 162.672962 
L 488.286436 160.784934 
L 487.294743 158.90673 
L 486.284318 157.038535 
L 485.255261 155.180539 
L 484.207677 153.332925 
L 483.141669 151.49588 
L 482.057344 149.669586 
L 480.95481 147.854227 
L 479.834179 146.049984 
L 478.695561 144.257037 
L 477.539071 142.475566 
L 476.364825 140.705748 
L 475.172939 138.947761 
L 473.963533 137.201781 
L 472.736729 135.467982 
L 471.492647 133.746538 
L 470.231414 132.03762 
L 468.953156 130.341399 
L 467.657999 128.658046 
L 466.346073 126.987729 
L 465.017511 125.330614 
L 463.672444 123.686867 
L 462.311007 122.056653 
L 460.933336 120.440134 
L 459.539569 118.837473 
L 458.129845 117.248829 
L 456.704306 115.674362 
L 455.263094 114.114229 
L 453.806353 112.568585 
L 452.334228 111.037587 
L 450.846867 109.521385 
L 449.344419 108.020133 
L 447.827034 106.53398 
L 446.294863 105.063075 
L 444.74806 103.607565 
L 443.186779 102.167595 
L 441.611177 100.74331 
L 440.021412 99.334852 
L 438.417641 97.942362 
L 436.800026 96.565979 
L 435.168728 95.205841 
L 433.523911 93.862083 
L 431.865738 92.53484 
L 430.194377 91.224246 
L 428.509993 89.93043 
L 426.812755 88.653522 
L 425.102833 87.39365 
L 423.380399 86.15094 
L 421.645623 84.925517 
L 419.89868 83.717502 
L 418.139745 82.527016 
L 416.368993 81.35418 
L 414.586601 80.199109 
L 412.792748 79.061919 
L 410.987613 77.942725 
L 409.171377 76.841637 
L 407.34422 75.758767 
L 405.506326 74.694222 
L 403.657879 73.648109 
L 401.799064 72.620532 
L 399.930066 71.611595 
L 398.051072 70.621398 
L 396.16227 69.65004 
L 394.263849 68.697618 
L 392.355999 67.764228 
L 390.438911 66.849962 
L 388.512776 65.954913 
L 386.577787 65.07917 
L 384.634137 64.222819 
L 382.682022 63.385948 
L 380.721635 62.56864 
L 378.753173 61.770976 
L 376.776834 60.993036 
L 374.792813 60.234898 
L 372.801311 59.496638 
L 370.802526 58.77833 
L 368.796658 58.080045 
L 366.783907 57.401853 
L 364.764476 56.743822 
L 362.738565 56.106018 
L 360.706377 55.488505 
L 358.668116 54.891344 
L 356.623986 54.314596 
L 354.57419 53.758317 
L 352.518934 53.222564 
L 350.458423 52.707389 
L 348.392864 52.212845 
L 346.322462 51.738981 
L 344.247426 51.285845 
L 342.167962 50.853481 
L 340.084278 50.441933 
L 337.996584 50.051242 
L 335.905086 49.681448 
L 333.809996 49.332586 
L 331.711521 49.004692 
L 329.609873 48.697799 
L 327.505261 48.411938 
L 325.397895 48.147137 
L 323.287987 47.903422 
L 321.175748 47.680818 
L 319.061388 47.479348 
L 316.945119 47.29903 
L 314.827152 47.139884 
L 312.7077 47.001926 
L 310.586975 46.885168 
L 308.465188 46.789623 
L 306.342551 46.7153 
L 304.219278 46.662207 
L 302.09558 46.63035 
L 299.971669 46.61973 
z
" clip-path="url(#p98f0432710)" style="fill: #000080"/>
   </g>
   <g id="patch_3">
    <path d="M 299.971669 469.28498 
L 297.868998 469.274467 
L 295.766537 469.242928 
L 293.664496 469.190366 
L 291.563086 469.116786 
L 289.462517 469.022197 
L 287.362998 468.906607 
L 285.264741 468.770028 
L 283.167954 468.612473 
L 281.072848 468.433959 
L 278.979632 468.234503 
L 276.888514 468.014125 
L 274.799705 467.772848 
L 272.713413 467.510694 
L 270.629847 467.227691 
L 268.549216 466.923868 
L 266.471726 466.599253 
L 264.397586 466.25388 
L 262.327004 465.887783 
L 260.260186 465.500999 
L 258.197339 465.093567 
L 256.13867 464.665526 
L 254.084384 464.216921 
L 252.034687 463.747796 
L 249.989783 463.258198 
L 247.949877 462.748175 
L 245.915174 462.217779 
L 243.885876 461.667063 
L 241.862187 461.096082 
L 239.844308 460.504893 
L 237.832443 459.893555 
L 235.826791 459.262129 
L 233.827553 458.610679 
L 231.83493 457.939269 
L 229.849121 457.247967 
L 227.870324 456.536841 
L 225.898736 455.805964 
L 223.934556 455.055407 
L 221.97798 454.285247 
L 220.029203 453.495559 
L 218.08842 452.686424 
L 216.155826 451.857922 
L 214.231613 451.010135 
L 212.315974 450.143149 
L 210.4091 449.25705 
L 208.511183 448.351928 
L 206.622411 447.427871 
L 204.742975 446.484974 
L 202.873061 445.523329 
L 201.012857 444.543034 
L 199.162548 443.544186 
L 197.322321 442.526885 
L 195.492359 441.491233 
L 193.672844 440.437334 
L 191.863959 439.365292 
L 190.065885 438.275215 
L 188.278801 437.167213 
L 186.502886 436.041395 
L 184.738319 434.897875 
L 182.985274 433.736767 
L 181.243928 432.558186 
L 179.514455 431.362251 
L 177.797027 430.149082 
L 176.091817 428.918799 
L 174.398994 427.671526 
L 172.718729 426.407388 
L 171.051189 425.12651 
L 169.396541 423.829021 
L 167.75495 422.515051 
L 166.126581 421.184731 
L 164.511596 419.838194 
L 162.910157 418.475574 
L 161.322424 417.097009 
L 159.748556 415.702636 
L 158.18871 414.292594 
L 156.643043 412.867024 
L 155.111708 411.426069 
L 153.594859 409.969873 
L 152.092647 408.498581 
L 150.605223 407.012342 
L 149.132736 405.511302 
L 147.675333 403.995613 
L 146.233159 402.465426 
L 144.806358 400.920894 
L 143.395075 399.362172 
L 141.999448 397.789415 
L 140.619619 396.20278 
L 139.255725 394.602427 
L 137.907902 392.988515 
L 136.576286 391.361205 
L 135.261009 389.720662 
L 133.962203 388.067047 
L 132.679998 386.400528 
L 131.414521 384.72127 
L 130.165901 383.029441 
L 128.93426 381.325211 
L 127.719724 379.60875 
L 126.522412 377.880229 
L 125.342445 376.139822 
L 124.179941 374.387703 
L 123.035016 372.624046 
L 121.907785 370.849029 
L 120.79836 369.062828 
L 119.706852 367.265622 
L 118.63337 365.457592 
L 117.578022 363.638917 
L 116.540913 361.80978 
L 115.522147 359.970363 
L 114.521826 358.120851 
L 113.54005 356.261428 
L 112.576916 354.39228 
L 111.632522 352.513595 
L 110.706962 350.62556 
L 109.800328 348.728364 
L 108.912711 346.822197 
L 108.0442 344.907249 
L 107.194882 342.983711 
L 106.36484 341.051777 
L 105.55416 339.111639 
L 104.762921 337.163492 
L 103.991203 335.20753 
L 103.239082 333.243948 
L 102.506635 331.272943 
L 101.793934 329.294713 
L 101.101051 327.309455 
L 100.428054 325.317367 
L 99.775012 323.318649 
L 99.141989 321.313501 
L 98.529049 319.302122 
L 97.936254 317.284715 
L 97.363661 315.261481 
L 96.811329 313.232623 
L 96.279313 311.198342 
L 95.767666 309.158843 
L 95.27644 307.11433 
L 94.805682 305.065007 
L 94.355441 303.011079 
L 93.925762 300.952751 
L 93.516687 298.890229 
L 93.128257 296.82372 
L 92.760512 294.75343 
L 92.413487 292.679566 
L 92.087218 290.602336 
L 91.781738 288.521946 
L 91.497076 286.438606 
L 91.233261 284.352524 
L 90.99032 282.263908 
L 90.768277 280.172967 
L 90.567154 278.07991 
L 90.386972 275.984946 
L 90.227748 273.888286 
L 90.089498 271.790138 
L 89.972236 269.690712 
L 89.875974 267.590219 
L 89.800721 265.488868 
L 89.746485 263.38687 
L 89.713271 261.284435 
L 89.701084 259.181772 
L 89.709923 257.079093 
L 89.739788 254.976607 
L 89.790676 252.874526 
L 89.862582 250.773058 
L 89.955498 248.672414 
L 90.069417 246.572804 
L 90.204325 244.474439 
L 90.360209 242.377527 
L 90.537055 240.282279 
L 90.734844 238.188905 
L 90.953557 236.097613 
L 91.193171 234.008612 
L 91.453663 231.922112 
L 91.735006 229.838322 
L 92.037173 227.757448 
L 92.360133 225.679701 
L 92.703855 223.605287 
L 93.068302 221.534414 
L 93.45344 219.467289 
L 93.85923 217.404118 
L 94.285631 215.345108 
L 94.7326 213.290466 
L 95.200093 211.240395 
L 95.688063 209.195103 
L 96.196461 207.154791 
L 96.725236 205.119666 
L 97.274336 203.089931 
L 97.843705 201.065787 
L 98.433287 199.047439 
L 99.043023 197.035087 
L 99.672852 195.028933 
L 100.32271 193.029177 
L 100.992533 191.03602 
L 101.682253 189.049661 
L 102.391803 187.070298 
L 103.12111 185.098129 
L 103.870102 183.133352 
L 104.638704 181.176163 
L 105.426839 179.226758 
L 106.234429 177.285332 
L 107.061392 175.352078 
L 107.907646 173.42719 
L 108.773106 171.510861 
L 109.657686 169.603283 
L 110.561297 167.704645 
L 111.483849 165.815138 
L 112.42525 163.934952 
L 113.385405 162.064273 
L 114.364219 160.203289 
L 115.361593 158.352185 
L 116.377428 156.511149 
L 117.411622 154.680362 
L 118.464073 152.860008 
L 119.534673 151.05027 
L 120.623318 149.251329 
L 121.729897 147.463363 
L 122.8543 145.686553 
L 123.996415 143.921075 
L 125.156127 142.167106 
L 126.33332 140.424822 
L 127.527877 138.694397 
L 128.739679 136.976004 
L 129.968603 135.269814 
L 131.214528 133.575999 
L 132.477328 131.894728 
L 133.756877 130.226168 
L 135.053048 128.570487 
L 136.365711 126.927851 
L 137.694734 125.298423 
L 139.039984 123.682366 
L 140.401328 122.079843 
L 141.778628 120.491013 
L 143.171748 118.916035 
L 144.580547 117.355066 
L 146.004886 115.808264 
L 147.444621 114.275782 
L 148.899609 112.757774 
L 150.369703 111.254391 
L 151.854758 109.765784 
L 153.354624 108.292102 
L 154.869152 106.833492 
L 156.39819 105.3901 
L 157.941586 103.962071 
L 159.499184 102.549546 
L 161.070829 101.152668 
L 162.656364 99.771575 
L 164.255631 98.406407 
L 165.868469 97.0573 
L 167.494718 95.724388 
L 169.134214 94.407805 
L 170.786793 93.107683 
L 172.452291 91.824151 
L 174.130541 90.557338 
L 175.821375 89.30737 
L 177.524624 88.074373 
L 179.240117 86.85847 
L 180.967683 85.659782 
L 182.70715 84.47843 
L 184.458343 83.314531 
L 186.221088 82.168202 
L 187.995207 81.039557 
L 189.780524 79.92871 
L 191.57686 78.835771 
L 193.384035 77.76085 
L 195.201869 76.704054 
L 197.030179 75.665489 
L 198.868784 74.645258 
L 200.717499 73.643465 
L 202.57614 72.660208 
L 204.44452 71.695587 
L 206.322452 70.749697 
L 208.20975 69.822634 
L 210.106223 68.914489 
L 212.011683 68.025355 
L 213.925939 67.155319 
L 215.848799 66.304469 
L 217.780072 65.472889 
L 219.719563 64.660664 
L 221.66708 63.867874 
L 223.622427 63.094598 
L 225.58541 62.340915 
L 227.55583 61.606898 
L 229.533492 60.892622 
L 231.518198 60.198158 
L 233.50975 59.523575 
L 235.507947 58.868942 
L 237.512591 58.234322 
L 239.52348 57.619781 
L 241.540414 57.025379 
L 243.563192 56.451175 
L 245.59161 55.897228 
L 247.625466 55.363592 
L 249.664557 54.850321 
L 251.708678 54.357467 
L 253.757626 53.885078 
L 255.811195 53.433201 
L 257.86918 53.001883 
L 259.931375 52.591166 
L 261.997574 52.20109 
L 264.067571 51.831696 
L 266.141158 51.48302 
L 268.218128 51.155097 
L 270.298273 50.84796 
L 272.381386 50.561639 
L 274.467257 50.296164 
L 276.555679 50.05156 
L 278.646443 49.827852 
L 280.739339 49.625062 
L 282.834159 49.443212 
L 284.930692 49.282318 
L 287.028729 49.142397 
L 289.12806 49.023463 
L 291.228476 48.925528 
L 293.329766 48.848602 
L 295.431721 48.792693 
L 297.534129 48.757805 
L 299.636781 48.743943 
L 299.971669 48.743676 
L 299.971669 46.61973 
L 299.633398 46.619999 
L 297.509507 46.634002 
L 295.385863 46.669242 
L 293.262676 46.725716 
L 291.140161 46.803419 
L 289.018529 46.902343 
L 286.897992 47.022478 
L 284.778763 47.163813 
L 282.661052 47.326332 
L 280.545073 47.510019 
L 278.431037 47.714857 
L 276.319154 47.940825 
L 274.209637 48.187899 
L 272.102696 48.456057 
L 269.998542 48.74527 
L 267.897385 49.055509 
L 265.799435 49.386745 
L 263.704903 49.738943 
L 261.613997 50.112068 
L 259.526928 50.506083 
L 257.443902 50.920949 
L 255.365129 51.356624 
L 253.290817 51.813065 
L 251.221173 52.290226 
L 249.156404 52.788059 
L 247.096716 53.306514 
L 245.042316 53.84554 
L 242.993409 54.405083 
L 240.9502 54.985086 
L 238.912892 55.585493 
L 236.881691 56.206242 
L 234.856798 56.847271 
L 232.838417 57.508517 
L 230.826749 58.189914 
L 228.821996 58.891393 
L 226.824357 59.612884 
L 224.834033 60.354315 
L 222.851223 61.115611 
L 220.876125 61.896698 
L 218.908936 62.697496 
L 216.949854 63.517925 
L 214.999073 64.357904 
L 213.05679 65.217349 
L 211.123198 66.096173 
L 209.198491 66.994289 
L 207.282861 67.911606 
L 205.376501 68.848034 
L 203.479599 69.803478 
L 201.592347 70.777843 
L 199.714932 71.771032 
L 197.847543 72.782945 
L 195.990366 73.81348 
L 194.143588 74.862536 
L 192.307392 75.930007 
L 190.481962 77.015786 
L 188.667482 78.119764 
L 186.864131 79.241832 
L 185.072092 80.381877 
L 183.291542 81.539786 
L 181.52266 82.715441 
L 179.765623 83.908726 
L 178.020606 85.119522 
L 176.287785 86.347707 
L 174.567332 87.593158 
L 172.859419 88.855752 
L 171.164217 90.135361 
L 169.481896 91.431858 
L 167.812623 92.745113 
L 166.156567 94.074995 
L 164.513892 95.42137 
L 162.884762 96.784105 
L 161.269341 98.163063 
L 159.66779 99.558105 
L 158.08027 100.969094 
L 156.506938 102.395886 
L 154.947953 103.83834 
L 153.40347 105.296312 
L 151.873644 106.769656 
L 150.358628 108.258223 
L 148.858572 109.761867 
L 147.373628 111.280435 
L 145.903944 112.813776 
L 144.449666 114.361738 
L 143.01094 115.924165 
L 141.58791 117.5009 
L 140.180719 119.091787 
L 138.789506 120.696666 
L 137.414412 122.315377 
L 136.055573 123.947757 
L 134.713125 125.593644 
L 133.387203 127.252873 
L 132.07794 128.925278 
L 130.785466 130.610691 
L 129.50991 132.308945 
L 128.2514 134.01987 
L 127.010063 135.743294 
L 125.786021 137.479044 
L 124.579397 139.226948 
L 123.390313 140.986831 
L 122.218887 142.758517 
L 121.065236 144.541828 
L 119.929475 146.336586 
L 118.811718 148.142611 
L 117.712078 149.959724 
L 116.630663 151.787743 
L 115.567582 153.626483 
L 114.522941 155.475763 
L 113.496845 157.335396 
L 112.489396 159.205197 
L 111.500695 161.084979 
L 110.530842 162.974554 
L 109.579932 164.873732 
L 108.648061 166.782325 
L 107.735323 168.700141 
L 106.841808 170.626988 
L 105.967605 172.562674 
L 105.112803 174.507005 
L 104.277487 176.459786 
L 103.46174 178.420823 
L 102.665644 180.389919 
L 101.889278 182.366878 
L 101.13272 184.351501 
L 100.396046 186.34359 
L 99.67933 188.342947 
L 98.982642 190.34937 
L 98.306054 192.36266 
L 97.649631 194.382616 
L 97.013441 196.409034 
L 96.397546 198.441712 
L 95.802009 200.480448 
L 95.226888 202.525038 
L 94.672242 204.575276 
L 94.138125 206.630958 
L 93.624592 208.691878 
L 93.131693 210.757831 
L 92.659478 212.828609 
L 92.207994 214.904005 
L 91.777286 216.983813 
L 91.367398 219.067823 
L 90.978369 221.155829 
L 90.61024 223.24762 
L 90.263047 225.342988 
L 89.936825 227.441722 
L 89.631606 229.543614 
L 89.34742 231.648454 
L 89.084297 233.756029 
L 88.842263 235.866131 
L 88.621341 237.978547 
L 88.421554 240.093067 
L 88.242922 242.209479 
L 88.085463 244.327571 
L 87.949192 246.447132 
L 87.834123 248.56795 
L 87.740268 250.689812 
L 87.667635 252.812507 
L 87.616233 254.935822 
L 87.586067 257.059545 
L 87.577138 259.183464 
L 87.589449 261.307365 
L 87.622998 263.431037 
L 87.677782 265.554268 
L 87.753795 267.676844 
L 87.851029 269.798554 
L 87.969476 271.919186 
L 88.109122 274.038528 
L 88.269955 276.156367 
L 88.451957 278.272491 
L 88.655112 280.38669 
L 88.879397 282.498752 
L 89.124792 284.608465 
L 89.391272 286.715619 
L 89.678809 288.820003 
L 89.987375 290.921406 
L 90.31694 293.019619 
L 90.66747 295.114431 
L 91.03893 297.205633 
L 91.431283 299.293016 
L 91.84449 301.376371 
L 92.27851 303.45549 
L 92.733299 305.530165 
L 93.208811 307.600189 
L 93.705 309.665354 
L 94.221815 311.725453 
L 94.759205 313.780282 
L 95.317116 315.829634 
L 95.895492 317.873305 
L 96.494275 319.91109 
L 97.113407 321.942785 
L 97.752824 323.968188 
L 98.412462 325.987095 
L 99.092257 327.999304 
L 99.792139 330.004616 
L 100.512039 332.002828 
L 101.251884 333.993742 
L 102.011602 335.977158 
L 102.791115 337.952877 
L 103.590347 339.920703 
L 104.409216 341.880438 
L 105.247641 343.831887 
L 106.105539 345.774854 
L 106.982823 347.709145 
L 107.879406 349.634567 
L 108.795197 351.550926 
L 109.730107 353.458032 
L 110.68404 355.355694 
L 111.656902 357.243722 
L 112.648595 359.121927 
L 113.659021 360.990121 
L 114.688077 362.848118 
L 115.735662 364.695731 
L 116.80167 366.532776 
L 117.885995 368.35907 
L 118.988528 370.174429 
L 120.10916 371.978672 
L 121.247777 373.771619 
L 122.404267 375.553091 
L 123.578514 377.322908 
L 124.7704 379.080895 
L 125.979805 380.826875 
L 127.20661 382.560674 
L 128.450691 384.282119 
L 129.711924 385.991037 
L 130.990183 387.687257 
L 132.28534 389.37061 
L 133.597265 391.040928 
L 134.925828 392.698043 
L 136.270895 394.341789 
L 137.632332 395.972004 
L 139.010003 397.588522 
L 140.403769 399.191183 
L 141.813493 400.779827 
L 143.239032 402.354294 
L 144.680244 403.914427 
L 146.136986 405.460071 
L 147.60911 406.99107 
L 149.096471 408.507271 
L 150.59892 410.008523 
L 152.116305 411.494676 
L 153.648476 412.965581 
L 155.195279 414.421091 
L 156.756559 415.861061 
L 158.332161 417.285346 
L 159.921927 418.693804 
L 161.525697 420.086294 
L 163.143312 421.462677 
L 164.77461 422.822816 
L 166.419428 424.166573 
L 168.0776 425.493816 
L 169.748962 426.804411 
L 171.433346 428.098227 
L 173.130583 429.375134 
L 174.840505 430.635006 
L 176.56294 431.877716 
L 178.297715 433.10314 
L 180.044658 434.311154 
L 181.803593 435.50164 
L 183.574345 436.674477 
L 185.356737 437.829547 
L 187.15059 438.966737 
L 188.955725 440.085931 
L 190.771962 441.187019 
L 192.599118 442.269889 
L 194.437012 443.334434 
L 196.285459 444.380547 
L 198.144275 445.408124 
L 200.013273 446.417061 
L 201.892267 447.407258 
L 203.781069 448.378616 
L 205.679489 449.331038 
L 207.587339 450.264429 
L 209.504428 451.178694 
L 211.430563 452.073743 
L 213.365552 452.949487 
L 215.309201 453.805837 
L 217.261317 454.642708 
L 219.221704 455.460016 
L 221.190165 456.25768 
L 223.166505 457.03562 
L 225.150525 457.793758 
L 227.142027 458.532018 
L 229.140812 459.250327 
L 231.14668 459.948612 
L 233.159431 460.626803 
L 235.178863 461.284834 
L 237.204774 461.922638 
L 239.236961 462.540151 
L 241.275222 463.137312 
L 243.319353 463.71406 
L 245.369149 464.270339 
L 247.424405 464.806093 
L 249.484915 465.321267 
L 251.550475 465.815811 
L 253.620876 466.289675 
L 255.695913 466.742811 
L 257.775377 467.175175 
L 259.85906 467.586723 
L 261.946755 467.977414 
L 264.038252 468.347209 
L 266.133343 468.69607 
L 268.231817 469.023964 
L 270.333465 469.330857 
L 272.438078 469.616718 
L 274.545443 469.881519 
L 276.655351 470.125234 
L 278.767591 470.347838 
L 280.881951 470.549309 
L 282.99822 470.729626 
L 285.116186 470.888772 
L 287.235638 471.026731 
L 289.356364 471.143488 
L 291.478151 471.239033 
L 293.600787 471.313356 
L 295.72406 471.366449 
L 297.847759 471.398307 
L 299.971669 471.408926 
z
" clip-path="url(#p98f0432710)" style="fill: #800000"/>
   </g>
   <g id="PatchCollection_1">
    <defs>
     <path id="m6f5273b32b" d="M 299.971669 -469.28498 
L 299.971669 -469.28498 
L 302.074341 -469.274467 
L 304.176802 -469.242928 
L 306.278843 -469.190366 
L 308.380253 -469.116786 
L 310.480822 -469.022197 
L 312.58034 -468.906607 
L 314.678597 -468.770028 
L 316.775384 -468.612473 
L 318.87049 -468.433959 
L 320.963707 -468.234503 
L 323.054824 -468.014125 
L 325.143633 -467.772848 
L 327.229925 -467.510694 
L 329.313491 -467.227691 
L 331.394123 -466.923868 
L 333.471612 -466.599253 
L 335.545752 -466.25388 
L 337.616334 -465.887783 
L 339.683152 -465.500999 
L 341.745999 -465.093567 
L 343.804668 -464.665526 
L 345.858954 -464.216921 
L 347.908652 -463.747796 
L 349.953555 -463.258198 
L 351.993461 -462.748175 
L 354.028165 -462.217779 
L 356.057462 -461.667063 
L 358.081152 -461.096082 
L 360.09903 -460.504893 
L 362.110896 -459.893555 
L 364.116548 -459.262129 
L 366.115785 -458.610679 
L 368.108408 -457.939269 
L 370.094218 -457.247967 
L 372.073015 -456.536841 
L 374.044602 -455.805964 
L 376.008782 -455.055407 
L 377.965358 -454.285247 
L 379.914135 -453.495559 
L 381.854918 -452.686424 
L 383.787513 -451.857922 
L 385.711726 -451.010135 
L 387.627365 -450.143149 
L 389.534238 -449.25705 
L 391.432156 -448.351928 
L 393.320927 -447.427871 
L 395.200364 -446.484974 
L 397.070278 -445.523329 
L 398.930482 -444.543034 
L 400.78079 -443.544186 
L 402.621017 -442.526885 
L 404.45098 -441.491233 
L 406.270495 -440.437334 
L 408.079379 -439.365292 
L 409.877454 -438.275215 
L 411.664537 -437.167213 
L 413.440452 -436.041395 
L 415.20502 -434.897875 
L 416.958064 -433.736767 
L 418.69941 -432.558186 
L 420.428884 -431.362251 
L 422.146311 -430.149082 
L 423.851522 -428.918799 
L 425.544344 -427.671526 
L 427.224609 -426.407388 
L 428.89215 -425.12651 
L 430.546798 -423.829021 
L 432.188388 -422.515051 
L 433.816758 -421.184731 
L 435.431742 -419.838194 
L 437.033181 -418.475574 
L 438.620914 -417.097009 
L 440.194782 -415.702636 
L 441.754628 -414.292594 
L 443.300296 -412.867024 
L 444.831631 -411.426069 
L 446.34848 -409.969873 
L 447.850691 -408.498581 
L 449.338115 -407.012342 
L 450.810602 -405.511302 
L 452.268006 -403.995613 
L 453.71018 -402.465426 
L 455.13698 -400.920894 
L 456.548264 -399.362172 
L 457.94389 -397.789415 
L 459.323719 -396.20278 
L 460.687613 -394.602427 
L 462.035436 -392.988515 
L 463.367052 -391.361205 
L 464.682329 -389.720662 
L 465.981135 -388.067047 
L 467.263341 -386.400528 
L 468.528817 -384.72127 
L 469.777438 -383.029441 
L 471.009078 -381.325211 
L 472.223615 -379.60875 
L 473.420926 -377.880229 
L 474.600893 -376.139822 
L 475.763397 -374.387703 
L 476.908322 -372.624046 
L 478.035553 -370.849029 
L 479.144979 -369.062828 
L 480.236487 -367.265622 
L 481.309969 -365.457592 
L 482.365317 -363.638917 
L 483.402425 -361.80978 
L 484.421191 -359.970363 
L 485.421512 -358.120851 
L 486.403289 -356.261428 
L 487.366422 -354.39228 
L 488.310816 -352.513595 
L 489.236376 -350.62556 
L 490.14301 -348.728364 
L 491.030627 -346.822197 
L 491.899138 -344.907249 
L 492.748457 -342.983711 
L 493.578498 -341.051777 
L 494.389178 -339.111639 
L 495.180417 -337.163492 
L 495.952136 -335.20753 
L 496.704256 -333.243948 
L 497.436703 -331.272943 
L 498.149404 -329.294713 
L 498.842288 -327.309455 
L 499.515284 -325.317367 
L 500.168326 -323.318649 
L 500.801349 -321.313501 
L 501.414289 -319.302122 
L 502.007085 -317.284715 
L 502.579677 -315.261481 
L 503.132009 -313.232623 
L 503.664025 -311.198342 
L 504.175672 -309.158843 
L 504.666899 -307.11433 
L 505.137656 -305.065007 
L 505.587897 -303.011079 
L 506.017576 -300.952751 
L 506.426651 -298.890229 
L 506.815081 -296.82372 
L 507.182827 -294.75343 
L 507.529851 -292.679566 
L 507.85612 -290.602336 
L 508.161601 -288.521946 
L 508.446263 -286.438606 
L 508.710077 -284.352524 
L 508.953018 -282.263908 
L 509.175061 -280.172967 
L 509.376184 -278.07991 
L 509.556366 -275.984946 
L 509.715591 -273.888286 
L 509.853841 -271.790138 
L 509.971103 -269.690712 
L 510.067365 -267.590219 
L 510.142618 -265.488868 
L 510.196853 -263.38687 
L 510.230067 -261.284435 
L 510.242255 -259.181772 
L 510.233416 -257.079093 
L 510.203551 -254.976607 
L 510.152663 -252.874526 
L 510.080757 -250.773058 
L 509.98784 -248.672414 
L 509.873922 -246.572804 
L 509.739014 -244.474439 
L 509.583129 -242.377527 
L 509.406283 -240.282279 
L 509.208494 -238.188905 
L 508.989782 -236.097613 
L 508.750168 -234.008612 
L 508.489676 -231.922112 
L 508.208332 -229.838322 
L 507.906165 -227.757448 
L 507.583205 -225.679701 
L 507.239484 -223.605287 
L 506.875036 -221.534414 
L 506.489898 -219.467289 
L 506.084108 -217.404118 
L 505.657708 -215.345108 
L 505.210739 -213.290466 
L 504.743246 -211.240395 
L 504.255276 -209.195103 
L 503.746878 -207.154791 
L 503.218102 -205.119666 
L 502.669003 -203.089931 
L 502.099633 -201.065787 
L 501.510051 -199.047439 
L 500.900315 -197.035087 
L 500.270487 -195.028933 
L 499.620629 -193.029177 
L 498.950806 -191.03602 
L 498.261085 -189.049661 
L 497.551536 -187.070298 
L 496.822229 -185.098129 
L 496.073236 -183.133352 
L 495.304634 -181.176163 
L 494.516499 -179.226758 
L 493.70891 -177.285332 
L 492.881946 -175.352078 
L 492.035692 -173.42719 
L 491.170232 -171.510861 
L 490.285652 -169.603283 
L 489.382041 -167.704645 
L 488.459489 -165.815138 
L 487.518088 -163.934952 
L 486.557933 -162.064273 
L 485.57912 -160.203289 
L 484.581745 -158.352185 
L 483.56591 -156.511149 
L 482.531716 -154.680362 
L 481.479266 -152.860008 
L 480.408665 -151.05027 
L 479.320021 -149.251329 
L 478.213442 -147.463363 
L 477.089038 -145.686553 
L 475.946924 -143.921075 
L 474.787212 -142.167106 
L 473.610018 -140.424822 
L 472.415461 -138.694397 
L 471.20366 -136.976004 
L 469.974735 -135.269814 
L 468.728811 -133.575999 
L 467.466011 -131.894728 
L 466.186461 -130.226168 
L 464.89029 -128.570487 
L 463.577628 -126.927851 
L 462.248605 -125.298423 
L 460.903354 -123.682366 
L 459.542011 -122.079843 
L 458.16471 -120.491013 
L 456.771591 -118.916035 
L 455.362791 -117.355066 
L 453.938453 -115.808264 
L 452.498717 -114.275782 
L 451.04373 -112.757774 
L 449.573635 -111.254391 
L 448.08858 -109.765784 
L 446.588714 -108.292102 
L 445.074186 -106.833492 
L 443.545148 -105.3901 
L 442.001753 -103.962071 
L 440.444155 -102.549546 
L 438.872509 -101.152668 
L 437.286974 -99.771575 
L 435.687707 -98.406407 
L 434.074869 -97.0573 
L 432.448621 -95.724388 
L 430.809125 -94.407805 
L 429.156545 -93.107683 
L 427.491047 -91.824151 
L 425.812797 -90.557338 
L 424.121963 -89.30737 
L 422.418715 -88.074373 
L 420.703221 -86.85847 
L 418.975655 -85.659782 
L 417.236188 -84.47843 
L 415.484995 -83.314531 
L 413.722251 -82.168202 
L 411.948132 -81.039557 
L 410.162815 -79.92871 
L 408.366479 -78.835771 
L 406.559304 -77.76085 
L 404.74147 -76.704054 
L 402.913159 -75.665489 
L 401.074554 -74.645258 
L 399.225839 -73.643465 
L 397.367199 -72.660208 
L 395.498819 -71.695587 
L 393.620886 -70.749697 
L 391.733589 -69.822634 
L 389.837115 -68.914489 
L 387.931655 -68.025355 
L 386.0174 -67.155319 
L 384.094539 -66.304469 
L 382.163267 -65.472889 
L 380.223775 -64.660664 
L 378.276258 -63.867874 
L 376.320911 -63.094598 
L 374.357929 -62.340915 
L 372.387508 -61.606898 
L 370.409846 -60.892622 
L 368.42514 -60.198158 
L 366.433589 -59.523575 
L 364.435392 -58.868942 
L 362.430748 -58.234322 
L 360.419858 -57.619781 
L 358.402924 -57.025379 
L 356.380147 -56.451175 
L 354.351729 -55.897228 
L 352.317872 -55.363592 
L 350.278782 -54.850321 
L 348.23466 -54.357467 
L 346.185713 -53.885078 
L 344.132144 -53.433201 
L 342.074159 -53.001883 
L 340.011963 -52.591166 
L 337.945764 -52.20109 
L 335.875768 -51.831696 
L 333.802181 -51.48302 
L 331.725211 -51.155097 
L 329.645065 -50.84796 
L 327.561953 -50.561639 
L 325.476081 -50.296164 
L 323.387659 -50.05156 
L 321.296895 -49.827852 
L 319.203999 -49.625062 
L 317.10918 -49.443212 
L 315.012647 -49.282318 
L 312.91461 -49.142397 
L 310.815278 -49.023463 
L 308.714862 -48.925528 
L 306.613572 -48.848602 
L 304.511618 -48.792693 
L 302.409209 -48.757805 
L 300.306557 -48.743943 
L 299.971669 -48.743676 
L 299.971669 -48.743676 
Q 299.971669 -259.014328 299.971669 -48.743676 
L 299.971669 -48.743676 
L 299.971669 -48.743676 
L 297.868998 -48.754189 
L 295.766537 -48.785729 
L 293.664496 -48.838291 
L 291.563086 -48.91187 
L 289.462517 -49.006459 
L 287.362998 -49.12205 
L 285.264741 -49.258629 
L 283.167954 -49.416183 
L 281.072848 -49.594697 
L 278.979632 -49.794153 
L 276.888514 -50.014531 
L 274.799705 -50.255809 
L 272.713413 -50.517962 
L 270.629847 -50.800965 
L 268.549216 -51.104789 
L 266.471726 -51.429403 
L 264.397586 -51.774776 
L 262.327004 -52.140873 
L 260.260186 -52.527657 
L 258.197339 -52.93509 
L 256.13867 -53.36313 
L 254.084384 -53.811735 
L 252.034687 -54.28086 
L 249.989783 -54.770459 
L 247.949877 -55.280481 
L 245.915174 -55.810877 
L 243.885876 -56.361593 
L 241.862187 -56.932574 
L 239.844308 -57.523763 
L 237.832443 -58.135101 
L 235.826791 -58.766527 
L 233.827553 -59.417978 
L 231.83493 -60.089388 
L 229.849121 -60.78069 
L 227.870324 -61.491815 
L 225.898736 -62.222693 
L 223.934556 -62.973249 
L 221.97798 -63.743409 
L 220.029203 -64.533097 
L 218.08842 -65.342232 
L 216.155826 -66.170735 
L 214.231613 -67.018521 
L 212.315974 -67.885507 
L 210.4091 -68.771606 
L 208.511183 -69.676729 
L 206.622411 -70.600785 
L 204.742975 -71.543683 
L 202.873061 -72.505327 
L 201.012857 -73.485622 
L 199.162548 -74.48447 
L 197.322321 -75.501771 
L 195.492359 -76.537423 
L 193.672844 -77.591323 
L 191.863959 -78.663364 
L 190.065885 -79.753441 
L 188.278801 -80.861443 
L 186.502886 -81.987261 
L 184.738319 -83.130781 
L 182.985274 -84.29189 
L 181.243928 -85.47047 
L 179.514455 -86.666405 
L 177.797027 -87.879574 
L 176.091817 -89.109857 
L 174.398994 -90.35713 
L 172.718729 -91.621269 
L 171.051189 -92.902146 
L 169.396541 -94.199635 
L 167.75495 -95.513605 
L 166.126581 -96.843926 
L 164.511596 -98.190463 
L 162.910157 -99.553082 
L 161.322424 -100.931647 
L 159.748556 -102.326021 
L 158.18871 -103.736063 
L 156.643043 -105.161632 
L 155.111708 -106.602587 
L 153.594859 -108.058783 
L 152.092647 -109.530075 
L 150.605223 -111.016315 
L 149.132736 -112.517354 
L 147.675333 -114.033043 
L 146.233159 -115.56323 
L 144.806358 -117.107762 
L 143.395075 -118.666484 
L 141.999448 -120.239242 
L 140.619619 -121.825876 
L 139.255725 -123.426229 
L 137.907902 -125.040141 
L 136.576286 -126.667451 
L 135.261009 -128.307995 
L 133.962203 -129.961609 
L 132.679998 -131.628129 
L 131.414521 -133.307387 
L 130.165901 -134.999215 
L 128.93426 -136.703446 
L 127.719724 -138.419907 
L 126.522412 -140.148427 
L 125.342445 -141.888834 
L 124.179941 -143.640953 
L 123.035016 -145.40461 
L 121.907785 -147.179627 
L 120.79836 -148.965828 
L 119.706852 -150.763034 
L 118.63337 -152.571064 
L 117.578022 -154.389739 
L 116.540913 -156.218877 
L 115.522147 -158.058293 
L 114.521826 -159.907806 
L 113.54005 -161.767228 
L 112.576916 -163.636376 
L 111.632522 -165.515061 
L 110.706962 -167.403096 
L 109.800328 -169.300292 
L 108.912711 -171.206459 
L 108.0442 -173.121408 
L 107.194882 -175.044945 
L 106.36484 -176.976879 
L 105.55416 -178.917017 
L 104.762921 -180.865164 
L 103.991203 -182.821127 
L 103.239082 -184.784708 
L 102.506635 -186.755713 
L 101.793934 -188.733943 
L 101.101051 -190.719202 
L 100.428054 -192.711289 
L 99.775012 -194.710007 
L 99.141989 -196.715156 
L 98.529049 -198.726534 
L 97.936254 -200.743941 
L 97.363661 -202.767175 
L 96.811329 -204.796034 
L 96.279313 -206.830314 
L 95.767666 -208.869813 
L 95.27644 -210.914326 
L 94.805682 -212.963649 
L 94.355441 -215.017577 
L 93.925762 -217.075905 
L 93.516687 -219.138427 
L 93.128257 -221.204936 
L 92.760512 -223.275226 
L 92.413487 -225.34909 
L 92.087218 -227.426321 
L 91.781738 -229.50671 
L 91.497076 -231.59005 
L 91.233261 -233.676132 
L 90.99032 -235.764748 
L 90.768277 -237.85569 
L 90.567154 -239.948747 
L 90.386972 -242.04371 
L 90.227748 -244.140371 
L 90.089498 -246.238519 
L 89.972236 -248.337944 
L 89.875974 -250.438437 
L 89.800721 -252.539788 
L 89.746485 -254.641786 
L 89.713271 -256.744222 
L 89.701084 -258.846884 
L 89.709923 -260.949563 
L 89.739788 -263.052049 
L 89.790676 -265.154131 
L 89.862582 -267.255599 
L 89.955498 -269.356242 
L 90.069417 -271.455852 
L 90.204325 -273.554218 
L 90.360209 -275.651129 
L 90.537055 -277.746377 
L 90.734844 -279.839751 
L 90.953557 -281.931044 
L 91.193171 -284.020044 
L 91.453663 -286.106544 
L 91.735006 -288.190335 
L 92.037173 -290.271208 
L 92.360133 -292.348955 
L 92.703855 -294.423369 
L 93.068302 -296.494243 
L 93.45344 -298.561368 
L 93.85923 -300.624538 
L 94.285631 -302.683548 
L 94.7326 -304.73819 
L 95.200093 -306.788261 
L 95.688063 -308.833554 
L 96.196461 -310.873865 
L 96.725236 -312.90899 
L 97.274336 -314.938726 
L 97.843705 -316.962869 
L 98.433287 -318.981218 
L 99.043023 -320.99357 
L 99.672852 -322.999724 
L 100.32271 -324.999479 
L 100.992533 -326.992636 
L 101.682253 -328.978996 
L 102.391803 -330.958358 
L 103.12111 -332.930527 
L 103.870102 -334.895304 
L 104.638704 -336.852493 
L 105.426839 -338.801898 
L 106.234429 -340.743325 
L 107.061392 -342.676578 
L 107.907646 -344.601466 
L 108.773106 -346.517795 
L 109.657686 -348.425373 
L 110.561297 -350.324011 
L 111.483849 -352.213518 
L 112.42525 -354.093705 
L 113.385405 -355.964384 
L 114.364219 -357.825368 
L 115.361593 -359.676471 
L 116.377428 -361.517508 
L 117.411622 -363.348294 
L 118.464073 -365.168648 
L 119.534673 -366.978386 
L 120.623318 -368.777328 
L 121.729897 -370.565293 
L 122.8543 -372.342104 
L 123.996415 -374.107581 
L 125.156127 -375.86155 
L 126.33332 -377.603834 
L 127.527877 -379.334259 
L 128.739679 -381.052652 
L 129.968603 -382.758842 
L 131.214528 -384.452657 
L 132.477328 -386.133928 
L 133.756877 -387.802488 
L 135.053048 -389.458169 
L 136.365711 -391.100805 
L 137.694734 -392.730234 
L 139.039984 -394.34629 
L 140.401328 -395.948814 
L 141.778628 -397.537644 
L 143.171748 -399.112622 
L 144.580547 -400.67359 
L 146.004886 -402.220392 
L 147.444621 -403.752874 
L 148.899609 -405.270882 
L 150.369703 -406.774265 
L 151.854758 -408.262872 
L 153.354624 -409.736554 
L 154.869152 -411.195164 
L 156.39819 -412.638556 
L 157.941586 -414.066586 
L 159.499184 -415.47911 
L 161.070829 -416.875989 
L 162.656364 -418.257081 
L 164.255631 -419.622249 
L 165.868469 -420.971356 
L 167.494718 -422.304268 
L 169.134214 -423.620851 
L 170.786793 -424.920974 
L 172.452291 -426.204506 
L 174.130541 -427.471319 
L 175.821375 -428.721286 
L 177.524624 -429.954283 
L 179.240117 -431.170186 
L 180.967683 -432.368874 
L 182.70715 -433.550226 
L 184.458343 -434.714125 
L 186.221088 -435.860454 
L 187.995207 -436.989099 
L 189.780524 -438.099946 
L 191.57686 -439.192885 
L 193.384035 -440.267806 
L 195.201869 -441.324602 
L 197.030179 -442.363167 
L 198.868784 -443.383398 
L 200.717499 -444.385191 
L 202.57614 -445.368448 
L 204.44452 -446.33307 
L 206.322452 -447.278959 
L 208.20975 -448.206023 
L 210.106223 -449.114167 
L 212.011683 -450.003302 
L 213.925939 -450.873337 
L 215.848799 -451.724188 
L 217.780072 -452.555767 
L 219.719563 -453.367992 
L 221.66708 -454.160782 
L 223.622427 -454.934058 
L 225.58541 -455.687742 
L 227.55583 -456.421758 
L 229.533492 -457.136034 
L 231.518198 -457.830498 
L 233.50975 -458.505081 
L 235.507947 -459.159715 
L 237.512591 -459.794334 
L 239.52348 -460.408875 
L 241.540414 -461.003277 
L 243.563192 -461.577481 
L 245.59161 -462.131428 
L 247.625466 -462.665064 
L 249.664557 -463.178335 
L 251.708678 -463.671189 
L 253.757626 -464.143579 
L 255.811195 -464.595455 
L 257.86918 -465.026773 
L 259.931375 -465.437491 
L 261.997574 -465.827566 
L 264.067571 -466.19696 
L 266.141158 -466.545636 
L 268.218128 -466.873559 
L 270.298273 -467.180696 
L 272.381386 -467.467017 
L 274.467257 -467.732493 
L 276.555679 -467.977097 
L 278.646443 -468.200805 
L 280.739339 -468.403594 
L 282.834159 -468.585445 
L 284.930692 -468.746339 
L 287.028729 -468.886259 
L 289.12806 -469.005193 
L 291.228476 -469.103128 
L 293.329766 -469.180054 
L 295.431721 -469.235964 
L 297.534129 -469.270851 
L 299.636781 -469.284714 
L 299.971669 -469.28498 
L 299.971669 -469.28498 
Q 299.971669 -259.014328 299.971669 -469.28498 
z
" style="stroke: #808080; stroke-opacity: 0.5; stroke-width: 0.1"/>
    </defs>
    <g clip-path="url(#p98f0432710)">
     <use xlink:href="#m6f5273b32b" x="0" y="518.028656" style="fill: #000080; fill-opacity: 0.5; stroke: #808080; stroke-opacity: 0.5; stroke-width: 0.1"/>
    </g>
   </g>
   <g id="patch_4">
    <path d="M 299.971669 48.743676 
L 302.074341 48.754189 
L 304.176802 48.785729 
L 306.278843 48.838291 
L 308.380253 48.91187 
L 310.480822 49.006459 
L 312.58034 49.12205 
L 314.678597 49.258629 
L 316.775384 49.416183 
L 318.87049 49.594697 
L 320.963707 49.794153 
L 323.054824 50.014531 
L 325.143633 50.255809 
L 327.229925 50.517962 
L 329.313491 50.800965 
L 331.394123 51.104789 
L 333.471612 51.429403 
L 335.545752 51.774776 
L 337.616334 52.140873 
L 339.683152 52.527657 
L 341.745999 52.93509 
L 343.804668 53.36313 
L 345.858954 53.811735 
L 347.908652 54.28086 
L 349.953555 54.770459 
L 351.993461 55.280481 
L 354.028165 55.810877 
L 356.057462 56.361593 
L 358.081152 56.932574 
L 360.09903 57.523763 
L 362.110896 58.135101 
L 364.116548 58.766527 
L 366.115785 59.417978 
L 368.108408 60.089388 
L 370.094218 60.78069 
L 372.073015 61.491815 
L 374.044602 62.222693 
L 376.008782 62.973249 
L 377.965358 63.743409 
L 379.914135 64.533097 
L 381.854918 65.342232 
L 383.787513 66.170735 
L 385.711726 67.018521 
L 387.627365 67.885507 
L 389.534238 68.771606 
L 391.432156 69.676729 
L 393.320927 70.600785 
L 395.200364 71.543683 
L 397.070278 72.505327 
L 398.930482 73.485622 
L 400.78079 74.48447 
L 402.621017 75.501771 
L 404.45098 76.537423 
L 406.270495 77.591323 
L 408.079379 78.663364 
L 409.877454 79.753441 
L 411.664537 80.861443 
L 413.440452 81.987261 
L 415.20502 83.130781 
L 416.958064 84.29189 
L 418.69941 85.47047 
L 420.428884 86.666405 
L 422.146311 87.879574 
L 423.851522 89.109857 
L 425.544344 90.35713 
L 427.224609 91.621269 
L 428.89215 92.902146 
L 430.546798 94.199635 
L 432.188388 95.513605 
L 433.816758 96.843926 
L 435.431742 98.190463 
L 437.033181 99.553082 
L 438.620914 100.931647 
L 440.194782 102.326021 
L 441.754628 103.736063 
L 443.300296 105.161632 
L 444.831631 106.602587 
L 446.34848 108.058783 
L 447.850691 109.530075 
L 449.338115 111.016315 
L 450.810602 112.517354 
L 452.268006 114.033043 
L 453.71018 115.56323 
L 455.13698 117.107762 
L 456.548264 118.666484 
L 457.94389 120.239242 
L 459.323719 121.825876 
L 460.687613 123.426229 
L 462.035436 125.040141 
L 463.367052 126.667451 
L 464.682329 128.307995 
L 465.981135 129.961609 
L 467.263341 131.628129 
L 468.528817 133.307387 
L 469.777438 134.999215 
L 471.009078 136.703446 
L 472.223615 138.419907 
L 473.420926 140.148427 
L 474.600893 141.888834 
L 475.763397 143.640953 
L 476.908322 145.40461 
L 478.035553 147.179627 
L 479.144979 148.965828 
L 480.236487 150.763034 
L 481.309969 152.571064 
L 482.365317 154.389739 
L 483.402425 156.218877 
L 484.421191 158.058293 
L 485.421512 159.907806 
L 486.403289 161.767228 
L 487.366422 163.636376 
L 488.310816 165.515061 
L 489.236376 167.403096 
L 490.14301 169.300292 
L 491.030627 171.206459 
L 491.899138 173.121408 
L 492.748457 175.044945 
L 493.578498 176.976879 
L 494.389178 178.917017 
L 495.180417 180.865164 
L 495.952136 182.821127 
L 496.704256 184.784708 
L 497.436703 186.755713 
L 498.149404 188.733943 
L 498.842288 190.719202 
L 499.515284 192.711289 
L 500.168326 194.710007 
L 500.801349 196.715156 
L 501.414289 198.726534 
L 502.007085 200.743941 
L 502.579677 202.767175 
L 503.132009 204.796034 
L 503.664025 206.830314 
L 504.175672 208.869813 
L 504.666899 210.914326 
L 505.137656 212.963649 
L 505.587897 215.017577 
L 506.017576 217.075905 
L 506.426651 219.138427 
L 506.815081 221.204936 
L 507.182827 223.275226 
L 507.529851 225.34909 
L 507.85612 227.426321 
L 508.161601 229.50671 
L 508.446263 231.59005 
L 508.710077 233.676132 
L 508.953018 235.764748 
L 509.175061 237.85569 
L 509.376184 239.948747 
L 509.556366 242.04371 
L 509.715591 244.140371 
L 509.853841 246.238519 
L 509.971103 248.337944 
L 510.067365 250.438437 
L 510.142618 252.539788 
L 510.196853 254.641786 
L 510.230067 256.744222 
L 510.242255 258.846884 
L 510.233416 260.949563 
L 510.203551 263.052049 
L 510.152663 265.154131 
L 510.080757 267.255599 
L 509.98784 269.356242 
L 509.873922 271.455852 
L 509.739014 273.554218 
L 509.583129 275.651129 
L 509.406283 277.746377 
L 509.208494 279.839751 
L 508.989782 281.931044 
L 508.750168 284.020044 
L 508.489676 286.106544 
L 508.208332 288.190335 
L 507.906165 290.271208 
L 507.583205 292.348955 
L 507.239484 294.423369 
L 506.875036 296.494243 
L 506.489898 298.561368 
L 506.084108 300.624538 
L 505.657708 302.683548 
L 505.210739 304.73819 
L 504.743246 306.788261 
L 504.255276 308.833554 
L 503.746878 310.873865 
L 503.218102 312.90899 
L 502.669003 314.938726 
L 502.099633 316.962869 
L 501.510051 318.981218 
L 500.900315 320.99357 
L 500.270487 322.999724 
L 499.620629 324.999479 
L 498.950806 326.992636 
L 498.261085 328.978996 
L 497.551536 330.958358 
L 496.822229 332.930527 
L 496.073236 334.895304 
L 495.304634 336.852493 
L 494.516499 338.801898 
L 493.70891 340.743325 
L 492.881946 342.676578 
L 492.035692 344.601466 
L 491.170232 346.517795 
L 490.285652 348.425373 
L 489.382041 350.324011 
L 488.459489 352.213518 
L 487.518088 354.093705 
L 486.557933 355.964384 
L 485.57912 357.825368 
L 484.581745 359.676471 
L 483.56591 361.517508 
L 482.531716 363.348294 
L 481.479266 365.168648 
L 480.408665 366.978386 
L 479.320021 368.777328 
L 478.213442 370.565293 
L 477.089038 372.342104 
L 475.946924 374.107581 
L 474.787212 375.86155 
L 473.610018 377.603834 
L 472.415461 379.334259 
L 471.20366 381.052652 
L 469.974735 382.758842 
L 468.728811 384.452657 
L 467.466011 386.133928 
L 466.186461 387.802488 
L 464.89029 389.458169 
L 463.577628 391.100805 
L 462.248605 392.730234 
L 460.903354 394.34629 
L 459.542011 395.948814 
L 458.16471 397.537644 
L 456.771591 399.112622 
L 455.362791 400.67359 
L 453.938453 402.220392 
L 452.498717 403.752874 
L 451.04373 405.270882 
L 449.573635 406.774265 
L 448.08858 408.262872 
L 446.588714 409.736554 
L 445.074186 411.195164 
L 443.545148 412.638556 
L 442.001753 414.066586 
L 440.444155 415.47911 
L 438.872509 416.875989 
L 437.286974 418.257081 
L 435.687707 419.622249 
L 434.074869 420.971356 
L 432.448621 422.304268 
L 430.809125 423.620851 
L 429.156545 424.920974 
L 427.491047 426.204506 
L 425.812797 427.471319 
L 424.121963 428.721286 
L 422.418715 429.954283 
L 420.703221 431.170186 
L 418.975655 432.368874 
L 417.236188 433.550226 
L 415.484995 434.714125 
L 413.722251 435.860454 
L 411.948132 436.989099 
L 410.162815 438.099946 
L 408.366479 439.192885 
L 406.559304 440.267806 
L 404.74147 441.324602 
L 402.913159 442.363167 
L 401.074554 443.383398 
L 399.225839 444.385191 
L 397.367199 445.368448 
L 395.498819 446.33307 
L 393.620886 447.278959 
L 391.733589 448.206023 
L 389.837115 449.114167 
L 387.931655 450.003302 
L 386.0174 450.873337 
L 384.094539 451.724188 
L 382.163267 452.555767 
L 380.223775 453.367992 
L 378.276258 454.160782 
L 376.320911 454.934058 
L 374.357929 455.687742 
L 372.387508 456.421758 
L 370.409846 457.136034 
L 368.42514 457.830498 
L 366.433589 458.505081 
L 364.435392 459.159715 
L 362.430748 459.794334 
L 360.419858 460.408875 
L 358.402924 461.003277 
L 356.380147 461.577481 
L 354.351729 462.131428 
L 352.317872 462.665064 
L 350.278782 463.178335 
L 348.23466 463.671189 
L 346.185713 464.143579 
L 344.132144 464.595455 
L 342.074159 465.026773 
L 340.011963 465.437491 
L 337.945764 465.827566 
L 335.875768 466.19696 
L 333.802181 466.545636 
L 331.725211 466.873559 
L 329.645065 467.180696 
L 327.561953 467.467017 
L 325.476081 467.732493 
L 323.387659 467.977097 
L 321.296895 468.200805 
L 319.203999 468.403594 
L 317.10918 468.585445 
L 315.012647 468.746339 
L 312.91461 468.886259 
L 310.815278 469.005193 
L 308.714862 469.103128 
L 306.613572 469.180054 
L 304.511618 469.235964 
L 302.409209 469.270851 
L 300.306557 469.284714 
L 299.971669 469.28498 
L 299.971669 471.408926 
L 300.30994 471.408657 
L 302.433831 471.394655 
L 304.557476 471.359415 
L 306.680662 471.30294 
L 308.803177 471.225237 
L 310.924809 471.126313 
L 313.045346 471.006178 
L 315.164576 470.864844 
L 317.282286 470.702325 
L 319.398265 470.518637 
L 321.512302 470.313799 
L 323.624184 470.087832 
L 325.733701 469.840757 
L 327.840642 469.5726 
L 329.944797 469.283387 
L 332.045954 468.973147 
L 334.143903 468.641912 
L 336.238435 468.289714 
L 338.329341 467.916588 
L 340.416411 467.522573 
L 342.499436 467.107707 
L 344.578209 466.672032 
L 346.652521 466.215591 
L 348.722165 465.73843 
L 350.786934 465.240597 
L 352.846622 464.722142 
L 354.901022 464.183116 
L 356.949929 463.623573 
L 358.993139 463.04357 
L 361.030446 462.443164 
L 363.061648 461.822415 
L 365.08654 461.181385 
L 367.104921 460.520139 
L 369.116589 459.838742 
L 371.121343 459.137264 
L 373.118981 458.415773 
L 375.109305 457.674342 
L 377.092115 456.913045 
L 379.067214 456.131959 
L 381.034402 455.33116 
L 382.993485 454.510731 
L 384.944265 453.670752 
L 386.886548 452.811307 
L 388.82014 451.932483 
L 390.744847 451.034367 
L 392.660477 450.11705 
L 394.566838 449.180622 
L 396.463739 448.225178 
L 398.350992 447.250813 
L 400.228406 446.257624 
L 402.095795 445.245712 
L 403.952972 444.215176 
L 405.799751 443.16612 
L 407.635946 442.09865 
L 409.461376 441.012871 
L 411.275857 439.908892 
L 413.079207 438.786824 
L 414.871247 437.646779 
L 416.651796 436.488871 
L 418.420678 435.313215 
L 420.177715 434.11993 
L 421.922732 432.909134 
L 423.655554 431.680949 
L 425.376007 430.435498 
L 427.08392 429.172904 
L 428.779122 427.893295 
L 430.461443 426.596798 
L 432.130715 425.283543 
L 433.786772 423.953661 
L 435.429447 422.607286 
L 437.058576 421.244551 
L 438.673997 419.865593 
L 440.275548 418.470551 
L 441.863069 417.059563 
L 443.4364 415.63277 
L 444.995385 414.190316 
L 446.539868 412.732344 
L 448.069694 411.259001 
L 449.584711 409.770433 
L 451.084766 408.26679 
L 452.56971 406.748221 
L 454.039395 405.21488 
L 455.493673 403.666918 
L 456.932398 402.104492 
L 458.355428 400.527756 
L 459.76262 398.936869 
L 461.153832 397.33199 
L 462.528927 395.71328 
L 463.887766 394.080899 
L 465.230213 392.435012 
L 466.556135 390.775783 
L 467.865398 389.103379 
L 469.157873 387.417965 
L 470.433428 385.719711 
L 471.691938 384.008786 
L 472.933276 382.285363 
L 474.157318 380.549612 
L 475.363941 378.801708 
L 476.553025 377.041825 
L 477.724452 375.27014 
L 478.878103 373.486829 
L 480.013863 371.692071 
L 481.13162 369.886045 
L 482.231261 368.068932 
L 483.312676 366.240914 
L 484.375757 364.402173 
L 485.420398 362.552893 
L 486.446494 360.69326 
L 487.453942 358.823459 
L 488.442643 356.943677 
L 489.412497 355.054102 
L 490.363406 353.154924 
L 491.295277 351.246331 
L 492.208016 349.328515 
L 493.101531 347.401668 
L 493.975733 345.465983 
L 494.830535 343.521652 
L 495.665851 341.56887 
L 496.481598 339.607833 
L 497.277695 337.638737 
L 498.05406 335.661779 
L 498.810618 333.677155 
L 499.547292 331.685066 
L 500.264009 329.685709 
L 500.960696 327.679286 
L 501.637285 325.665996 
L 502.293707 323.646041 
L 502.929898 321.619622 
L 503.545792 319.586944 
L 504.14133 317.548208 
L 504.71645 315.503619 
L 505.271097 313.45338 
L 505.805213 311.397699 
L 506.318747 309.336778 
L 506.811645 307.270826 
L 507.28386 305.200048 
L 507.735344 303.124651 
L 508.166052 301.044843 
L 508.575941 298.960833 
L 508.964969 296.872827 
L 509.333098 294.781036 
L 509.680291 292.685669 
L 510.006514 290.586934 
L 510.311733 288.485042 
L 510.595918 286.380203 
L 510.859041 284.272627 
L 511.101076 282.162526 
L 511.321997 280.050109 
L 511.521784 277.935589 
L 511.700416 275.819178 
L 511.857876 273.701085 
L 511.994147 271.581524 
L 512.109215 269.460706 
L 512.203071 267.338844 
L 512.275703 265.216149 
L 512.327105 263.092834 
L 512.357272 260.969111 
L 512.3662 258.845193 
L 512.353889 256.721291 
L 512.32034 254.597619 
L 512.265556 252.474389 
L 512.189543 250.351812 
L 512.092309 248.230102 
L 511.973863 246.10947 
L 511.834216 243.990129 
L 511.673384 241.87229 
L 511.491381 239.756165 
L 511.288227 237.641966 
L 511.063941 235.529904 
L 510.818546 233.420191 
L 510.552067 231.313037 
L 510.264529 229.208653 
L 509.955963 227.10725 
L 509.626399 225.009037 
L 509.275869 222.914225 
L 508.904409 220.823023 
L 508.512055 218.73564 
L 508.098848 216.652285 
L 507.664829 214.573166 
L 507.21004 212.498491 
L 506.734527 210.428467 
L 506.238339 208.363303 
L 505.721524 206.303203 
L 505.184134 204.248374 
L 504.626223 202.199022 
L 504.047847 200.155351 
L 503.449063 198.117566 
L 502.829932 196.085871 
L 502.190515 194.060469 
L 501.530876 192.041562 
L 500.851082 190.029352 
L 500.1512 188.02404 
L 499.4313 186.025828 
L 498.691454 184.034914 
L 497.931736 182.051498 
L 497.152223 180.075779 
L 496.352992 178.107953 
L 495.534122 176.148218 
L 494.695697 174.196769 
L 493.8378 172.253802 
L 492.960516 170.319511 
L 492.063933 168.39409 
L 491.148141 166.47773 
L 490.213232 164.570624 
L 489.259298 162.672962 
L 488.286436 160.784934 
L 487.294743 158.90673 
L 486.284318 157.038535 
L 485.255261 155.180539 
L 484.207677 153.332925 
L 483.141669 151.49588 
L 482.057344 149.669586 
L 480.95481 147.854227 
L 479.834179 146.049984 
L 478.695561 144.257037 
L 477.539071 142.475566 
L 476.364825 140.705748 
L 475.172939 138.947761 
L 473.963533 137.201781 
L 472.736729 135.467982 
L 471.492647 133.746538 
L 470.231414 132.03762 
L 468.953156 130.341399 
L 467.657999 128.658046 
L 466.346073 126.987729 
L 465.017511 125.330614 
L 463.672444 123.686867 
L 462.311007 122.056653 
L 460.933336 120.440134 
L 459.539569 118.837473 
L 458.129845 117.248829 
L 456.704306 115.674362 
L 455.263094 114.114229 
L 453.806353 112.568585 
L 452.334228 111.037587 
L 450.846867 109.521385 
L 449.344419 108.020133 
L 447.827034 106.53398 
L 446.294863 105.063075 
L 444.74806 103.607565 
L 443.186779 102.167595 
L 441.611177 100.74331 
L 440.021412 99.334852 
L 438.417641 97.942362 
L 436.800026 96.565979 
L 435.168728 95.205841 
L 433.523911 93.862083 
L 431.865738 92.53484 
L 430.194377 91.224246 
L 428.509993 89.93043 
L 426.812755 88.653522 
L 425.102833 87.39365 
L 423.380399 86.15094 
L 421.645623 84.925517 
L 419.89868 83.717502 
L 418.139745 82.527016 
L 416.368993 81.35418 
L 414.586601 80.199109 
L 412.792748 79.061919 
L 410.987613 77.942725 
L 409.171377 76.841637 
L 407.34422 75.758767 
L 405.506326 74.694222 
L 403.657879 73.648109 
L 401.799064 72.620532 
L 399.930066 71.611595 
L 398.051072 70.621398 
L 396.16227 69.65004 
L 394.263849 68.697618 
L 392.355999 67.764228 
L 390.438911 66.849962 
L 388.512776 65.954913 
L 386.577787 65.07917 
L 384.634137 64.222819 
L 382.682022 63.385948 
L 380.721635 62.56864 
L 378.753173 61.770976 
L 376.776834 60.993036 
L 374.792813 60.234898 
L 372.801311 59.496638 
L 370.802526 58.77833 
L 368.796658 58.080045 
L 366.783907 57.401853 
L 364.764476 56.743822 
L 362.738565 56.106018 
L 360.706377 55.488505 
L 358.668116 54.891344 
L 356.623986 54.314596 
L 354.57419 53.758317 
L 352.518934 53.222564 
L 350.458423 52.707389 
L 348.392864 52.212845 
L 346.322462 51.738981 
L 344.247426 51.285845 
L 342.167962 50.853481 
L 340.084278 50.441933 
L 337.996584 50.051242 
L 335.905086 49.681448 
L 333.809996 49.332586 
L 331.711521 49.004692 
L 329.609873 48.697799 
L 327.505261 48.411938 
L 325.397895 48.147137 
L 323.287987 47.903422 
L 321.175748 47.680818 
L 319.061388 47.479348 
L 316.945119 47.29903 
L 314.827152 47.139884 
L 312.7077 47.001926 
L 310.586975 46.885168 
L 308.465188 46.789623 
L 306.342551 46.7153 
L 304.219278 46.662207 
L 302.09558 46.63035 
L 299.971669 46.61973 
L 299.971669 48.743676 
z
" clip-path="url(#p98f0432710)" style="fill: none; stroke: #000000; stroke-width: 0.5; stroke-linejoin: miter"/>
   </g>
   <g id="patch_5">
    <path d="M 299.971669 469.28498 
L 297.868998 469.274467 
L 295.766537 469.242928 
L 293.664496 469.190366 
L 291.563086 469.116786 
L 289.462517 469.022197 
L 287.362998 468.906607 
L 285.264741 468.770028 
L 283.167954 468.612473 
L 281.072848 468.433959 
L 278.979632 468.234503 
L 276.888514 468.014125 
L 274.799705 467.772848 
L 272.713413 467.510694 
L 270.629847 467.227691 
L 268.549216 466.923868 
L 266.471726 466.599253 
L 264.397586 466.25388 
L 262.327004 465.887783 
L 260.260186 465.500999 
L 258.197339 465.093567 
L 256.13867 464.665526 
L 254.084384 464.216921 
L 252.034687 463.747796 
L 249.989783 463.258198 
L 247.949877 462.748175 
L 245.915174 462.217779 
L 243.885876 461.667063 
L 241.862187 461.096082 
L 239.844308 460.504893 
L 237.832443 459.893555 
L 235.826791 459.262129 
L 233.827553 458.610679 
L 231.83493 457.939269 
L 229.849121 457.247967 
L 227.870324 456.536841 
L 225.898736 455.805964 
L 223.934556 455.055407 
L 221.97798 454.285247 
L 220.029203 453.495559 
L 218.08842 452.686424 
L 216.155826 451.857922 
L 214.231613 451.010135 
L 212.315974 450.143149 
L 210.4091 449.25705 
L 208.511183 448.351928 
L 206.622411 447.427871 
L 204.742975 446.484974 
L 202.873061 445.523329 
L 201.012857 444.543034 
L 199.162548 443.544186 
L 197.322321 442.526885 
L 195.492359 441.491233 
L 193.672844 440.437334 
L 191.863959 439.365292 
L 190.065885 438.275215 
L 188.278801 437.167213 
L 186.502886 436.041395 
L 184.738319 434.897875 
L 182.985274 433.736767 
L 181.243928 432.558186 
L 179.514455 431.362251 
L 177.797027 430.149082 
L 176.091817 428.918799 
L 174.398994 427.671526 
L 172.718729 426.407388 
L 171.051189 425.12651 
L 169.396541 423.829021 
L 167.75495 422.515051 
L 166.126581 421.184731 
L 164.511596 419.838194 
L 162.910157 418.475574 
L 161.322424 417.097009 
L 159.748556 415.702636 
L 158.18871 414.292594 
L 156.643043 412.867024 
L 155.111708 411.426069 
L 153.594859 409.969873 
L 152.092647 408.498581 
L 150.605223 407.012342 
L 149.132736 405.511302 
L 147.675333 403.995613 
L 146.233159 402.465426 
L 144.806358 400.920894 
L 143.395075 399.362172 
L 141.999448 397.789415 
L 140.619619 396.20278 
L 139.255725 394.602427 
L 137.907902 392.988515 
L 136.576286 391.361205 
L 135.261009 389.720662 
L 133.962203 388.067047 
L 132.679998 386.400528 
L 131.414521 384.72127 
L 130.165901 383.029441 
L 128.93426 381.325211 
L 127.719724 379.60875 
L 126.522412 377.880229 
L 125.342445 376.139822 
L 124.179941 374.387703 
L 123.035016 372.624046 
L 121.907785 370.849029 
L 120.79836 369.062828 
L 119.706852 367.265622 
L 118.63337 365.457592 
L 117.578022 363.638917 
L 116.540913 361.80978 
L 115.522147 359.970363 
L 114.521826 358.120851 
L 113.54005 356.261428 
L 112.576916 354.39228 
L 111.632522 352.513595 
L 110.706962 350.62556 
L 109.800328 348.728364 
L 108.912711 346.822197 
L 108.0442 344.907249 
L 107.194882 342.983711 
L 106.36484 341.051777 
L 105.55416 339.111639 
L 104.762921 337.163492 
L 103.991203 335.20753 
L 103.239082 333.243948 
L 102.506635 331.272943 
L 101.793934 329.294713 
L 101.101051 327.309455 
L 100.428054 325.317367 
L 99.775012 323.318649 
L 99.141989 321.313501 
L 98.529049 319.302122 
L 97.936254 317.284715 
L 97.363661 315.261481 
L 96.811329 313.232623 
L 96.279313 311.198342 
L 95.767666 309.158843 
L 95.27644 307.11433 
L 94.805682 305.065007 
L 94.355441 303.011079 
L 93.925762 300.952751 
L 93.516687 298.890229 
L 93.128257 296.82372 
L 92.760512 294.75343 
L 92.413487 292.679566 
L 92.087218 290.602336 
L 91.781738 288.521946 
L 91.497076 286.438606 
L 91.233261 284.352524 
L 90.99032 282.263908 
L 90.768277 280.172967 
L 90.567154 278.07991 
L 90.386972 275.984946 
L 90.227748 273.888286 
L 90.089498 271.790138 
L 89.972236 269.690712 
L 89.875974 267.590219 
L 89.800721 265.488868 
L 89.746485 263.38687 
L 89.713271 261.284435 
L 89.701084 259.181772 
L 89.709923 257.079093 
L 89.739788 254.976607 
L 89.790676 252.874526 
L 89.862582 250.773058 
L 89.955498 248.672414 
L 90.069417 246.572804 
L 90.204325 244.474439 
L 90.360209 242.377527 
L 90.537055 240.282279 
L 90.734844 238.188905 
L 90.953557 236.097613 
L 91.193171 234.008612 
L 91.453663 231.922112 
L 91.735006 229.838322 
L 92.037173 227.757448 
L 92.360133 225.679701 
L 92.703855 223.605287 
L 93.068302 221.534414 
L 93.45344 219.467289 
L 93.85923 217.404118 
L 94.285631 215.345108 
L 94.7326 213.290466 
L 95.200093 211.240395 
L 95.688063 209.195103 
L 96.196461 207.154791 
L 96.725236 205.119666 
L 97.274336 203.089931 
L 97.843705 201.065787 
L 98.433287 199.047439 
L 99.043023 197.035087 
L 99.672852 195.028933 
L 100.32271 193.029177 
L 100.992533 191.03602 
L 101.682253 189.049661 
L 102.391803 187.070298 
L 103.12111 185.098129 
L 103.870102 183.133352 
L 104.638704 181.176163 
L 105.426839 179.226758 
L 106.234429 177.285332 
L 107.061392 175.352078 
L 107.907646 173.42719 
L 108.773106 171.510861 
L 109.657686 169.603283 
L 110.561297 167.704645 
L 111.483849 165.815138 
L 112.42525 163.934952 
L 113.385405 162.064273 
L 114.364219 160.203289 
L 115.361593 158.352185 
L 116.377428 156.511149 
L 117.411622 154.680362 
L 118.464073 152.860008 
L 119.534673 151.05027 
L 120.623318 149.251329 
L 121.729897 147.463363 
L 122.8543 145.686553 
L 123.996415 143.921075 
L 125.156127 142.167106 
L 126.33332 140.424822 
L 127.527877 138.694397 
L 128.739679 136.976004 
L 129.968603 135.269814 
L 131.214528 133.575999 
L 132.477328 131.894728 
L 133.756877 130.226168 
L 135.053048 128.570487 
L 136.365711 126.927851 
L 137.694734 125.298423 
L 139.039984 123.682366 
L 140.401328 122.079843 
L 141.778628 120.491013 
L 143.171748 118.916035 
L 144.580547 117.355066 
L 146.004886 115.808264 
L 147.444621 114.275782 
L 148.899609 112.757774 
L 150.369703 111.254391 
L 151.854758 109.765784 
L 153.354624 108.292102 
L 154.869152 106.833492 
L 156.39819 105.3901 
L 157.941586 103.962071 
L 159.499184 102.549546 
L 161.070829 101.152668 
L 162.656364 99.771575 
L 164.255631 98.406407 
L 165.868469 97.0573 
L 167.494718 95.724388 
L 169.134214 94.407805 
L 170.786793 93.107683 
L 172.452291 91.824151 
L 174.130541 90.557338 
L 175.821375 89.30737 
L 177.524624 88.074373 
L 179.240117 86.85847 
L 180.967683 85.659782 
L 182.70715 84.47843 
L 184.458343 83.314531 
L 186.221088 82.168202 
L 187.995207 81.039557 
L 189.780524 79.92871 
L 191.57686 78.835771 
L 193.384035 77.76085 
L 195.201869 76.704054 
L 197.030179 75.665489 
L 198.868784 74.645258 
L 200.717499 73.643465 
L 202.57614 72.660208 
L 204.44452 71.695587 
L 206.322452 70.749697 
L 208.20975 69.822634 
L 210.106223 68.914489 
L 212.011683 68.025355 
L 213.925939 67.155319 
L 215.848799 66.304469 
L 217.780072 65.472889 
L 219.719563 64.660664 
L 221.66708 63.867874 
L 223.622427 63.094598 
L 225.58541 62.340915 
L 227.55583 61.606898 
L 229.533492 60.892622 
L 231.518198 60.198158 
L 233.50975 59.523575 
L 235.507947 58.868942 
L 237.512591 58.234322 
L 239.52348 57.619781 
L 241.540414 57.025379 
L 243.563192 56.451175 
L 245.59161 55.897228 
L 247.625466 55.363592 
L 249.664557 54.850321 
L 251.708678 54.357467 
L 253.757626 53.885078 
L 255.811195 53.433201 
L 257.86918 53.001883 
L 259.931375 52.591166 
L 261.997574 52.20109 
L 264.067571 51.831696 
L 266.141158 51.48302 
L 268.218128 51.155097 
L 270.298273 50.84796 
L 272.381386 50.561639 
L 274.467257 50.296164 
L 276.555679 50.05156 
L 278.646443 49.827852 
L 280.739339 49.625062 
L 282.834159 49.443212 
L 284.930692 49.282318 
L 287.028729 49.142397 
L 289.12806 49.023463 
L 291.228476 48.925528 
L 293.329766 48.848602 
L 295.431721 48.792693 
L 297.534129 48.757805 
L 299.636781 48.743943 
L 299.971669 48.743676 
L 299.971669 46.61973 
L 299.633398 46.619999 
L 297.509507 46.634002 
L 295.385863 46.669242 
L 293.262676 46.725716 
L 291.140161 46.803419 
L 289.018529 46.902343 
L 286.897992 47.022478 
L 284.778763 47.163813 
L 282.661052 47.326332 
L 280.545073 47.510019 
L 278.431037 47.714857 
L 276.319154 47.940825 
L 274.209637 48.187899 
L 272.102696 48.456057 
L 269.998542 48.74527 
L 267.897385 49.055509 
L 265.799435 49.386745 
L 263.704903 49.738943 
L 261.613997 50.112068 
L 259.526928 50.506083 
L 257.443902 50.920949 
L 255.365129 51.356624 
L 253.290817 51.813065 
L 251.221173 52.290226 
L 249.156404 52.788059 
L 247.096716 53.306514 
L 245.042316 53.84554 
L 242.993409 54.405083 
L 240.9502 54.985086 
L 238.912892 55.585493 
L 236.881691 56.206242 
L 234.856798 56.847271 
L 232.838417 57.508517 
L 230.826749 58.189914 
L 228.821996 58.891393 
L 226.824357 59.612884 
L 224.834033 60.354315 
L 222.851223 61.115611 
L 220.876125 61.896698 
L 218.908936 62.697496 
L 216.949854 63.517925 
L 214.999073 64.357904 
L 213.05679 65.217349 
L 211.123198 66.096173 
L 209.198491 66.994289 
L 207.282861 67.911606 
L 205.376501 68.848034 
L 203.479599 69.803478 
L 201.592347 70.777843 
L 199.714932 71.771032 
L 197.847543 72.782945 
L 195.990366 73.81348 
L 194.143588 74.862536 
L 192.307392 75.930007 
L 190.481962 77.015786 
L 188.667482 78.119764 
L 186.864131 79.241832 
L 185.072092 80.381877 
L 183.291542 81.539786 
L 181.52266 82.715441 
L 179.765623 83.908726 
L 178.020606 85.119522 
L 176.287785 86.347707 
L 174.567332 87.593158 
L 172.859419 88.855752 
L 171.164217 90.135361 
L 169.481896 91.431858 
L 167.812623 92.745113 
L 166.156567 94.074995 
L 164.513892 95.42137 
L 162.884762 96.784105 
L 161.269341 98.163063 
L 159.66779 99.558105 
L 158.08027 100.969094 
L 156.506938 102.395886 
L 154.947953 103.83834 
L 153.40347 105.296312 
L 151.873644 106.769656 
L 150.358628 108.258223 
L 148.858572 109.761867 
L 147.373628 111.280435 
L 145.903944 112.813776 
L 144.449666 114.361738 
L 143.01094 115.924165 
L 141.58791 117.5009 
L 140.180719 119.091787 
L 138.789506 120.696666 
L 137.414412 122.315377 
L 136.055573 123.947757 
L 134.713125 125.593644 
L 133.387203 127.252873 
L 132.07794 128.925278 
L 130.785466 130.610691 
L 129.50991 132.308945 
L 128.2514 134.01987 
L 127.010063 135.743294 
L 125.786021 137.479044 
L 124.579397 139.226948 
L 123.390313 140.986831 
L 122.218887 142.758517 
L 121.065236 144.541828 
L 119.929475 146.336586 
L 118.811718 148.142611 
L 117.712078 149.959724 
L 116.630663 151.787743 
L 115.567582 153.626483 
L 114.522941 155.475763 
L 113.496845 157.335396 
L 112.489396 159.205197 
L 111.500695 161.084979 
L 110.530842 162.974554 
L 109.579932 164.873732 
L 108.648061 166.782325 
L 107.735323 168.700141 
L 106.841808 170.626988 
L 105.967605 172.562674 
L 105.112803 174.507005 
L 104.277487 176.459786 
L 103.46174 178.420823 
L 102.665644 180.389919 
L 101.889278 182.366878 
L 101.13272 184.351501 
L 100.396046 186.34359 
L 99.67933 188.342947 
L 98.982642 190.34937 
L 98.306054 192.36266 
L 97.649631 194.382616 
L 97.013441 196.409034 
L 96.397546 198.441712 
L 95.802009 200.480448 
L 95.226888 202.525038 
L 94.672242 204.575276 
L 94.138125 206.630958 
L 93.624592 208.691878 
L 93.131693 210.757831 
L 92.659478 212.828609 
L 92.207994 214.904005 
L 91.777286 216.983813 
L 91.367398 219.067823 
L 90.978369 221.155829 
L 90.61024 223.24762 
L 90.263047 225.342988 
L 89.936825 227.441722 
L 89.631606 229.543614 
L 89.34742 231.648454 
L 89.084297 233.756029 
L 88.842263 235.866131 
L 88.621341 237.978547 
L 88.421554 240.093067 
L 88.242922 242.209479 
L 88.085463 244.327571 
L 87.949192 246.447132 
L 87.834123 248.56795 
L 87.740268 250.689812 
L 87.667635 252.812507 
L 87.616233 254.935822 
L 87.586067 257.059545 
L 87.577138 259.183464 
L 87.589449 261.307365 
L 87.622998 263.431037 
L 87.677782 265.554268 
L 87.753795 267.676844 
L 87.851029 269.798554 
L 87.969476 271.919186 
L 88.109122 274.038528 
L 88.269955 276.156367 
L 88.451957 278.272491 
L 88.655112 280.38669 
L 88.879397 282.498752 
L 89.124792 284.608465 
L 89.391272 286.715619 
L 89.678809 288.820003 
L 89.987375 290.921406 
L 90.31694 293.019619 
L 90.66747 295.114431 
L 91.03893 297.205633 
L 91.431283 299.293016 
L 91.84449 301.376371 
L 92.27851 303.45549 
L 92.733299 305.530165 
L 93.208811 307.600189 
L 93.705 309.665354 
L 94.221815 311.725453 
L 94.759205 313.780282 
L 95.317116 315.829634 
L 95.895492 317.873305 
L 96.494275 319.91109 
L 97.113407 321.942785 
L 97.752824 323.968188 
L 98.412462 325.987095 
L 99.092257 327.999304 
L 99.792139 330.004616 
L 100.512039 332.002828 
L 101.251884 333.993742 
L 102.011602 335.977158 
L 102.791115 337.952877 
L 103.590347 339.920703 
L 104.409216 341.880438 
L 105.247641 343.831887 
L 106.105539 345.774854 
L 106.982823 347.709145 
L 107.879406 349.634567 
L 108.795197 351.550926 
L 109.730107 353.458032 
L 110.68404 355.355694 
L 111.656902 357.243722 
L 112.648595 359.121927 
L 113.659021 360.990121 
L 114.688077 362.848118 
L 115.735662 364.695731 
L 116.80167 366.532776 
L 117.885995 368.35907 
L 118.988528 370.174429 
L 120.10916 371.978672 
L 121.247777 373.771619 
L 122.404267 375.553091 
L 123.578514 377.322908 
L 124.7704 379.080895 
L 125.979805 380.826875 
L 127.20661 382.560674 
L 128.450691 384.282119 
L 129.711924 385.991037 
L 130.990183 387.687257 
L 132.28534 389.37061 
L 133.597265 391.040928 
L 134.925828 392.698043 
L 136.270895 394.341789 
L 137.632332 395.972004 
L 139.010003 397.588522 
L 140.403769 399.191183 
L 141.813493 400.779827 
L 143.239032 402.354294 
L 144.680244 403.914427 
L 146.136986 405.460071 
L 147.60911 406.99107 
L 149.096471 408.507271 
L 150.59892 410.008523 
L 152.116305 411.494676 
L 153.648476 412.965581 
L 155.195279 414.421091 
L 156.756559 415.861061 
L 158.332161 417.285346 
L 159.921927 418.693804 
L 161.525697 420.086294 
L 163.143312 421.462677 
L 164.77461 422.822816 
L 166.419428 424.166573 
L 168.0776 425.493816 
L 169.748962 426.804411 
L 171.433346 428.098227 
L 173.130583 429.375134 
L 174.840505 430.635006 
L 176.56294 431.877716 
L 178.297715 433.10314 
L 180.044658 434.311154 
L 181.803593 435.50164 
L 183.574345 436.674477 
L 185.356737 437.829547 
L 187.15059 438.966737 
L 188.955725 440.085931 
L 190.771962 441.187019 
L 192.599118 442.269889 
L 194.437012 443.334434 
L 196.285459 444.380547 
L 198.144275 445.408124 
L 200.013273 446.417061 
L 201.892267 447.407258 
L 203.781069 448.378616 
L 205.679489 449.331038 
L 207.587339 450.264429 
L 209.504428 451.178694 
L 211.430563 452.073743 
L 213.365552 452.949487 
L 215.309201 453.805837 
L 217.261317 454.642708 
L 219.221704 455.460016 
L 221.190165 456.25768 
L 223.166505 457.03562 
L 225.150525 457.793758 
L 227.142027 458.532018 
L 229.140812 459.250327 
L 231.14668 459.948612 
L 233.159431 460.626803 
L 235.178863 461.284834 
L 237.204774 461.922638 
L 239.236961 462.540151 
L 241.275222 463.137312 
L 243.319353 463.71406 
L 245.369149 464.270339 
L 247.424405 464.806093 
L 249.484915 465.321267 
L 251.550475 465.815811 
L 253.620876 466.289675 
L 255.695913 466.742811 
L 257.775377 467.175175 
L 259.85906 467.586723 
L 261.946755 467.977414 
L 264.038252 468.347209 
L 266.133343 468.69607 
L 268.231817 469.023964 
L 270.333465 469.330857 
L 272.438078 469.616718 
L 274.545443 469.881519 
L 276.655351 470.125234 
L 278.767591 470.347838 
L 280.881951 470.549309 
L 282.99822 470.729626 
L 285.116186 470.888772 
L 287.235638 471.026731 
L 289.356364 471.143488 
L 291.478151 471.239033 
L 293.600787 471.313356 
L 295.72406 471.366449 
L 297.847759 471.398307 
L 299.971669 471.408926 
L 299.971669 469.28498 
z
" clip-path="url(#p98f0432710)" style="fill: none; stroke: #000000; stroke-width: 0.5; stroke-linejoin: miter"/>
   </g>
   <g id="text_1">
    <text style="font: 3px 'DejaVu Sans', 'Bitstream Vera Sans', 'Computer Modern Sans Serif', 'Lucida Grande', 'Verdana', 'Geneva', 'Lucid', 'Arial', 'Helvetica', 'Avant Garde', sans-serif; text-anchor: start" x="514.490213" y="260.214094" transform="rotate(-0 514.490213 260.214094)">Universidad Pedaggica Nacional Francisco Morazn</text>
   </g>
   <g id="text_2">
    <text style="font: 3px 'DejaVu Sans', 'Bitstream Vera Sans', 'Computer Modern Sans Serif', 'Lucida Grande', 'Verdana', 'Geneva', 'Lucid', 'Arial', 'Helvetica', 'Avant Garde', sans-serif; text-anchor: end" x="85.453125" y="260.202375" transform="rotate(-0 85.453125 260.202375)">Universidad Jos Cecilio del Valle</text>
   </g>
  </g>
 </g>
 <defs>
  <clipPath id="p98f0432710">
   <path d="M 522.985997 259.014328 
C 522.985997 229.728355 517.217299 200.727151 506.010042 173.67044 
C 494.802786 146.613728 478.374923 122.027695 457.666613 101.319384 
C 436.958303 80.611074 412.372269 64.183212 385.315558 52.975955 
C 358.258846 41.768698 329.257642 36 299.971669 36 
C 270.685696 36 241.684492 41.768698 214.627781 52.975955 
C 187.571069 64.183212 162.985036 80.611074 142.276725 101.319384 
C 121.568415 122.027695 105.140553 146.613728 93.933296 173.67044 
C 82.726039 200.727151 76.957341 229.728355 76.957341 259.014328 
C 76.957341 288.300301 82.726039 317.301505 93.933296 344.358217 
C 105.140553 371.414928 121.568415 396.000962 142.276725 416.709272 
C 162.985036 437.417582 187.571069 453.845445 214.627781 465.052701 
C 241.684492 476.259958 270.685696 482.028656 299.971669 482.028656 
C 329.257642 482.028656 358.258846 476.259958 385.315558 465.052701 
C 412.372269 453.845445 436.958303 437.417582 457.666613 416.709272 
C 478.374923 396.000962 494.802786 371.414928 506.010042 344.358217 
C 517.217299 317.301505 522.985997 288.300301 522.985997 259.014328 
M 299.971669 259.014328 
C 299.971669 259.014328 299.971669 259.014328 299.971669 259.014328 
C 299.971669 259.014328 299.971669 259.014328 299.971669 259.014328 
C 299.971669 259.014328 299.971669 259.014328 299.971669 259.014328 
C 299.971669 259.014328 299.971669 259.014328 299.971669 259.014328 
C 299.971669 259.014328 299.971669 259.014328 299.971669 259.014328 
C 299.971669 259.014328 299.971669 259.014328 299.971669 259.014328 
C 299.971669 259.014328 299.971669 259.014328 299.971669 259.014328 
C 299.971669 259.014328 299.971669 259.014328 299.971669 259.014328 
C 299.971669 259.014328 299.971669 259.014328 299.971669 259.014328 
C 299.971669 259.014328 299.971669 259.014328 299.971669 259.014328 
C 299.971669 259.014328 299.971669 259.014328 299.971669 259.014328 
C 299.971669 259.014328 299.971669 259.014328 299.971669 259.014328 
C 299.971669 259.014328 299.971669 259.014328 299.971669 259.014328 
C 299.971669 259.014328 299.971669 259.014328 299.971669 259.014328 
C 299.971669 259.014328 299.971669 259.014328 299.971669 259.014328 
C 299.971669 259.014328 299.971669 259.014328 299.971669 259.014328 
z
"/>
  </clipPath>
 </defs>
</svg>
