<?xml version="1.0" encoding="utf-8" standalone="no"?>
<!DOCTYPE svg PUBLIC "-//W3C//DTD SVG 1.1//EN"
  "http://www.w3.org/Graphics/SVG/1.1/DTD/svg11.dtd">
<svg xmlns:xlink="http://www.w3.org/1999/xlink" width="534.419025pt" height="626.562866pt" viewBox="0 0 534.419025 626.562866" xmlns="http://www.w3.org/2000/svg" version="1.1">
 <metadata>
  <rdf:RDF xmlns:dc="http://purl.org/dc/elements/1.1/" xmlns:cc="http://creativecommons.org/ns#" xmlns:rdf="http://www.w3.org/1999/02/22-rdf-syntax-ns#">
   <cc:Work>
    <dc:type rdf:resource="http://purl.org/dc/dcmitype/StillImage"/>
    <dc:date>2024-11-16T03:50:04.863463</dc:date>
    <dc:format>image/svg+xml</dc:format>
    <dc:creator>
     <cc:Agent>
      <dc:title>Matplotlib v3.8.4, https://matplotlib.org/</dc:title>
     </cc:Agent>
    </dc:creator>
   </cc:Work>
  </rdf:RDF>
 </metadata>
 <defs>
  <style type="text/css">*{stroke-linejoin: round; stroke-linecap: butt}</style>
 </defs>
 <g id="figure_1">
  <g id="patch_1">
   <path d="M 0 626.562866 
L 534.419025 626.562866 
L 534.419025 0 
L 0 0 
z
" style="fill: #ffffff"/>
  </g>
  <g id="axes_1">
   <g id="patch_2">
    <path d="M 269.949955 95.467758 
L 272.022941 95.478123 
L 274.095719 95.509217 
L 276.168083 95.561037 
L 278.239825 95.633577 
L 280.310739 95.726832 
L 282.380616 95.84079 
L 284.44925 95.975441 
L 286.516434 96.130771 
L 288.581961 96.306765 
L 290.645625 96.503405 
L 292.70722 96.720671 
L 294.766539 96.958542 
L 296.823376 97.216995 
L 298.877526 97.496002 
L 300.928784 97.795536 
L 302.976943 98.115568 
L 305.0218 98.456065 
L 307.06315 98.816993 
L 309.100788 99.198317 
L 311.134511 99.599997 
L 313.164116 100.021994 
L 315.189399 100.464266 
L 317.210159 100.926768 
L 319.226193 101.409454 
L 321.237299 101.912276 
L 323.243276 102.435184 
L 325.243924 102.978125 
L 327.239043 103.541045 
L 329.228432 104.123887 
L 331.211895 104.726595 
L 333.18923 105.349106 
L 335.160242 105.991359 
L 337.124733 106.65329 
L 339.082507 107.334832 
L 341.033367 108.035918 
L 342.97712 108.756477 
L 344.913569 109.496437 
L 346.842522 110.255724 
L 348.763786 111.034262 
L 350.677169 111.831974 
L 352.582479 112.64878 
L 354.479526 113.484597 
L 356.36812 114.339343 
L 358.248072 115.212932 
L 360.119194 116.105276 
L 361.9813 117.016286 
L 363.834202 117.945872 
L 365.677717 118.89394 
L 367.511658 119.860395 
L 369.335843 120.845142 
L 371.15009 121.84808 
L 372.954217 122.869111 
L 374.748044 123.908131 
L 376.531391 124.965037 
L 378.30408 126.039724 
L 380.065933 127.132084 
L 381.816775 128.242007 
L 383.556431 129.369383 
L 385.284726 130.514099 
L 387.001487 131.67604 
L 388.706544 132.85509 
L 390.399725 134.051132 
L 392.080861 135.264046 
L 393.749784 136.493709 
L 395.406327 137.740001 
L 397.050324 139.002795 
L 398.681612 140.281966 
L 400.300027 141.577385 
L 401.905406 142.888924 
L 403.497591 144.21645 
L 405.07642 145.559832 
L 406.641737 146.918935 
L 408.193386 148.293622 
L 409.731209 149.683757 
L 411.255055 151.089201 
L 412.764771 152.509812 
L 414.260205 153.945449 
L 415.741208 155.395969 
L 417.207632 156.861226 
L 418.65933 158.341073 
L 420.096158 159.835364 
L 421.517971 161.343947 
L 422.924628 162.866673 
L 424.315987 164.40339 
L 425.69191 165.953943 
L 427.052258 167.518177 
L 428.396897 169.095936 
L 429.725691 170.687063 
L 431.038507 172.291398 
L 432.335215 173.90878 
L 433.615685 175.539049 
L 434.879788 177.18204 
L 436.127398 178.837591 
L 437.35839 180.505534 
L 438.572642 182.185703 
L 439.770032 183.877931 
L 440.95044 185.582048 
L 442.113748 187.297884 
L 443.259839 189.025267 
L 444.3886 190.764024 
L 445.499917 192.513982 
L 446.59368 194.274965 
L 447.669778 196.046797 
L 448.728104 197.829302 
L 449.768552 199.622301 
L 450.791019 201.425614 
L 451.795402 203.239062 
L 452.781601 205.062462 
L 453.749516 206.895634 
L 454.699052 208.738392 
L 455.630113 210.590554 
L 456.542606 212.451933 
L 457.43644 214.322345 
L 458.311525 216.201601 
L 459.167775 218.089513 
L 460.005102 219.985894 
L 460.823425 221.890553 
L 461.62266 223.8033 
L 462.402728 225.723943 
L 463.163551 227.652291 
L 463.905053 229.588151 
L 464.62716 231.531328 
L 465.329799 233.48163 
L 466.0129 235.43886 
L 466.676395 237.402823 
L 467.320218 239.373323 
L 467.944303 241.350163 
L 468.54859 243.333144 
L 469.133016 245.322069 
L 469.697525 247.316739 
L 470.242059 249.316954 
L 470.766564 251.322514 
L 471.270987 253.333219 
L 471.755279 255.348868 
L 472.21939 257.369259 
L 472.663274 259.394189 
L 473.086887 261.423457 
L 473.490187 263.45686 
L 473.873133 265.494194 
L 474.235687 267.535256 
L 474.577812 269.579841 
L 474.899474 271.627745 
L 475.200642 273.678763 
L 475.481285 275.73269 
L 475.741375 277.789321 
L 475.980886 279.84845 
L 476.199794 281.909871 
L 476.398078 283.973378 
L 476.575716 286.038764 
L 476.732693 288.105824 
L 476.868991 290.17435 
L 476.984597 292.244136 
L 477.0795 294.314974 
L 477.153691 296.386658 
L 477.207161 298.45898 
L 477.239906 300.531733 
L 477.251921 302.60471 
L 477.243207 304.677703 
L 477.213764 306.750506 
L 477.163594 308.82291 
L 477.092703 310.894709 
L 477.001098 312.965696 
L 476.888789 315.035663 
L 476.755785 317.104404 
L 476.602101 319.171711 
L 476.427752 321.237378 
L 476.232755 323.301198 
L 476.017131 325.362965 
L 475.7809 327.422473 
L 475.524085 329.479515 
L 475.246714 331.533887 
L 474.948813 333.585382 
L 474.630412 335.633796 
L 474.291544 337.678923 
L 473.932241 339.720559 
L 473.552541 341.758501 
L 473.15248 343.792543 
L 472.732099 345.822483 
L 472.291441 347.848118 
L 471.830548 349.869246 
L 471.349467 351.885663 
L 470.848247 353.897169 
L 470.326937 355.903562 
L 469.785589 357.904642 
L 469.224258 359.900208 
L 468.643 361.890061 
L 468.041872 363.874003 
L 467.420936 365.851834 
L 466.780252 367.823356 
L 466.119886 369.788374 
L 465.439903 371.74669 
L 464.740371 373.698108 
L 464.02136 375.642433 
L 463.282943 377.579471 
L 462.525192 379.509028 
L 461.748183 381.430912 
L 460.951995 383.344929 
L 460.136707 385.250889 
L 459.302401 387.148601 
L 458.449159 389.037875 
L 457.577068 390.918522 
L 456.686214 392.790354 
L 455.776687 394.653185 
L 454.848577 396.506827 
L 453.901977 398.351096 
L 452.936983 400.185806 
L 451.953689 402.010775 
L 450.952196 403.82582 
L 449.932602 405.63076 
L 448.895011 407.425413 
L 447.839525 409.209601 
L 446.76625 410.983145 
L 445.675294 412.745868 
L 444.566765 414.497593 
L 443.440775 416.238146 
L 442.297436 417.967352 
L 441.136862 419.685038 
L 439.95917 421.391033 
L 438.764477 423.085166 
L 437.552902 424.767267 
L 436.324568 426.437169 
L 435.079596 428.094704 
L 433.818111 429.739707 
L 432.54024 431.372012 
L 431.24611 432.991458 
L 429.93585 434.597882 
L 428.609592 436.191123 
L 427.267468 437.771022 
L 425.909612 439.337421 
L 424.536161 440.890163 
L 423.147251 442.429093 
L 421.743021 443.954058 
L 420.323613 445.464904 
L 418.889167 446.961481 
L 417.439827 448.443638 
L 415.975738 449.911229 
L 414.497047 451.364105 
L 413.003901 452.802123 
L 411.49645 454.225137 
L 409.974845 455.633005 
L 408.439237 457.025588 
L 406.88978 458.402745 
L 405.32663 459.764339 
L 403.749942 461.110233 
L 402.159874 462.440294 
L 400.556585 463.754387 
L 398.940236 465.052383 
L 397.310987 466.33415 
L 395.669003 467.599561 
L 394.014447 468.848489 
L 392.347484 470.080809 
L 390.668282 471.296399 
L 388.977008 472.495136 
L 387.273832 473.6769 
L 385.558923 474.841574 
L 383.832453 475.989041 
L 382.094596 477.119186 
L 382.025895 477.163356 
L 383.157975 478.924908 
L 383.22737 478.880291 
L 384.982782 477.73873 
L 386.72669 476.579673 
L 388.458921 475.403235 
L 390.179302 474.209533 
L 391.887659 472.998688 
L 393.583823 471.77082 
L 395.267623 470.526052 
L 396.938892 469.264508 
L 398.597462 467.986315 
L 400.243168 466.691601 
L 401.875844 465.380494 
L 403.495328 464.053127 
L 405.101457 462.709632 
L 406.694071 461.350142 
L 408.273011 459.974795 
L 409.838119 458.583727 
L 411.389238 457.177078 
L 412.926213 455.754989 
L 414.448891 454.317601 
L 415.957119 452.865058 
L 417.450746 451.397506 
L 418.929624 449.915091 
L 420.393603 448.417962 
L 421.842538 446.906269 
L 423.276285 445.380161 
L 424.694698 443.839793 
L 426.097638 442.285318 
L 427.484962 440.716892 
L 428.856534 439.13467 
L 430.212215 437.538813 
L 431.551869 435.929479 
L 432.875364 434.306829 
L 434.182566 432.671025 
L 435.473345 431.022231 
L 436.747572 429.360612 
L 438.00512 427.686334 
L 439.245862 425.999565 
L 440.469674 424.300473 
L 441.676435 422.589227 
L 442.866023 420.866 
L 444.03832 419.130964 
L 445.193208 417.384291 
L 446.330571 415.626157 
L 447.450297 413.856737 
L 448.552273 412.076209 
L 449.636389 410.284751 
L 450.702537 408.482541 
L 451.750609 406.669759 
L 452.780501 404.846588 
L 453.792111 403.013209 
L 454.785336 401.169806 
L 455.760078 399.316563 
L 456.71624 397.453666 
L 457.653724 395.5813 
L 458.572439 393.699653 
L 459.472291 391.808913 
L 460.353192 389.909269 
L 461.215052 388.000912 
L 462.057786 386.084031 
L 462.881309 384.158819 
L 463.685539 382.225468 
L 464.470396 380.284172 
L 465.235801 378.335124 
L 465.981678 376.37852 
L 466.707951 374.414555 
L 467.414549 372.443426 
L 468.101401 370.465329 
L 468.768437 368.480463 
L 469.415592 366.489026 
L 470.042801 364.491217 
L 470.65 362.487236 
L 471.23713 360.477283 
L 471.804131 358.461559 
L 472.350947 356.440267 
L 472.877522 354.413607 
L 473.383806 352.381783 
L 473.869746 350.344998 
L 474.335294 348.303455 
L 474.780404 346.257359 
L 475.205031 344.206914 
L 475.609133 342.152326 
L 475.992668 340.093799 
L 476.3556 338.03154 
L 476.697892 335.965755 
L 477.019509 333.896651 
L 477.320419 331.824433 
L 477.600592 329.74931 
L 477.86 327.67149 
L 478.098617 325.591179 
L 478.31642 323.508586 
L 478.513386 321.423919 
L 478.689497 319.337387 
L 478.844733 317.249198 
L 478.97908 315.159561 
L 479.092524 313.068685 
L 479.185054 310.976779 
L 479.256661 308.884053 
L 479.307338 306.790715 
L 479.337078 304.696975 
L 479.345881 302.603042 
L 479.333743 300.509126 
L 479.300668 298.415436 
L 479.246658 296.322182 
L 479.171718 294.229572 
L 479.075856 292.137816 
L 478.959082 290.047124 
L 478.821407 287.957703 
L 478.662845 285.869764 
L 478.483412 283.783515 
L 478.283126 281.699165 
L 478.062007 279.616921 
L 477.820077 277.536993 
L 477.557359 275.459588 
L 477.273882 273.384914 
L 476.969672 271.313179 
L 476.64476 269.244589 
L 476.299179 267.179351 
L 475.932963 265.117673 
L 475.546149 263.05976 
L 475.138776 261.005818 
L 474.710883 258.956052 
L 474.262515 256.910667 
L 473.793716 254.869869 
L 473.304533 252.83386 
L 472.795014 250.802845 
L 472.265211 248.777027 
L 471.715177 246.756607 
L 471.144966 244.741789 
L 470.554636 242.732774 
L 469.944246 240.729763 
L 469.313857 238.732955 
L 468.663531 236.742551 
L 467.993334 234.75875 
L 467.303333 232.781749 
L 466.593596 230.811748 
L 465.864196 228.848942 
L 465.115204 226.893528 
L 464.346696 224.945702 
L 463.558748 223.005658 
L 462.75144 221.073591 
L 461.924851 219.149693 
L 461.079066 217.234157 
L 460.214167 215.327174 
L 459.330243 213.428936 
L 458.42738 211.539632 
L 457.50567 209.659451 
L 456.565204 207.78858 
L 455.606077 205.927208 
L 454.628385 204.07552 
L 453.632225 202.233701 
L 452.617697 200.401935 
L 451.584902 198.580407 
L 450.533944 196.769297 
L 449.464927 194.968787 
L 448.37796 193.179057 
L 447.273149 191.400287 
L 446.150607 189.632653 
L 445.010444 187.876332 
L 443.852776 186.131501 
L 442.677717 184.398334 
L 441.485386 182.677004 
L 440.275902 180.967682 
L 439.049385 179.270541 
L 437.805958 177.58575 
L 436.545745 175.913477 
L 435.268874 174.25389 
L 433.97547 172.607154 
L 432.665664 170.973434 
L 431.339587 169.352894 
L 429.997371 167.745695 
L 428.63915 166.151999 
L 427.265061 164.571964 
L 425.87524 163.005749 
L 424.469827 161.453511 
L 423.048961 159.915404 
L 421.612786 158.391582 
L 420.161445 156.882197 
L 418.695083 155.387402 
L 417.213847 153.907344 
L 415.717884 152.442173 
L 414.207344 150.992034 
L 412.682379 149.557073 
L 411.143141 148.137434 
L 409.589784 146.733257 
L 408.022463 145.344684 
L 406.441334 143.971853 
L 404.846557 142.614901 
L 403.23829 141.273966 
L 401.616694 139.949179 
L 399.981932 138.640675 
L 398.334167 137.348583 
L 396.673563 136.073033 
L 395.000287 134.814153 
L 393.314506 133.572068 
L 391.616389 132.346903 
L 389.906105 131.13878 
L 388.183826 129.94782 
L 386.449723 128.774142 
L 384.703971 127.617864 
L 382.946743 126.4791 
L 381.178216 125.357966 
L 379.398566 124.254572 
L 377.607971 123.16903 
L 375.806611 122.101448 
L 373.994664 121.051932 
L 372.172314 120.020588 
L 370.339741 119.007519 
L 368.49713 118.012826 
L 366.644664 117.036608 
L 364.782528 116.078964 
L 362.910909 115.139988 
L 361.029995 114.219776 
L 359.139972 113.318418 
L 357.24103 112.436005 
L 355.33336 111.572626 
L 353.417151 110.728366 
L 351.492595 109.903309 
L 349.559885 109.09754 
L 347.619215 108.311137 
L 345.670777 107.544181 
L 343.714768 106.796746 
L 341.751382 106.068909 
L 339.780816 105.360742 
L 337.803267 104.672315 
L 335.818932 104.003698 
L 333.828011 103.354957 
L 331.830702 102.726158 
L 329.827205 102.117363 
L 327.81772 101.528633 
L 325.802449 100.960027 
L 323.781592 100.411602 
L 321.755353 99.883412 
L 319.723932 99.375511 
L 317.687535 98.887949 
L 315.646364 98.420776 
L 313.600623 97.974036 
L 311.550517 97.547777 
L 309.496251 97.142039 
L 307.43803 96.756864 
L 305.376061 96.39229 
L 303.310549 96.048354 
L 301.241701 95.725089 
L 299.169724 95.422529 
L 297.094825 95.140704 
L 295.017212 94.879641 
L 292.937091 94.639367 
L 290.854673 94.419906 
L 288.770163 94.22128 
L 286.683772 94.043508 
L 284.595707 93.886609 
L 282.506178 93.750598 
L 280.415393 93.635489 
L 278.323562 93.541293 
L 276.230893 93.468019 
L 274.137596 93.415676 
L 272.04388 93.384268 
L 269.949955 93.373798 
z
" clip-path="url(#p451917b65c)" style="fill: #000080"/>
   </g>
   <g id="patch_3">
    <path d="M 382.025895 477.163356 
L 380.276385 478.275378 
L 378.515842 479.369848 
L 376.744443 480.446659 
L 374.962364 481.505702 
L 373.169784 482.546872 
L 371.366882 483.570065 
L 369.553839 484.575177 
L 367.730835 485.562109 
L 365.898053 486.530762 
L 364.055677 487.481039 
L 362.20389 488.412845 
L 360.342877 489.326087 
L 358.472826 490.220673 
L 356.593922 491.096515 
L 354.706354 491.953524 
L 352.810311 492.791615 
L 350.905981 493.610703 
L 348.993556 494.410708 
L 347.073227 495.191549 
L 345.145185 495.953148 
L 343.209624 496.695429 
L 341.266737 497.418317 
L 339.316718 498.12174 
L 337.359763 498.805629 
L 335.396067 499.469914 
L 333.425826 500.114529 
L 331.449238 500.73941 
L 329.4665 501.344495 
L 328.353687 501.674633 
L 328.943623 503.683773 
L 330.067677 503.3503 
L 332.070443 502.739103 
L 334.066996 502.107911 
L 336.057139 501.456784 
L 338.04067 500.785789 
L 340.017393 500.094992 
L 341.987108 499.384464 
L 343.949621 498.654273 
L 345.904733 497.904495 
L 347.85225 497.135203 
L 349.791976 496.346475 
L 351.723719 495.538389 
L 353.647284 494.711027 
L 355.56248 493.864471 
L 357.469114 492.998805 
L 359.366996 492.114117 
L 361.255937 491.210494 
L 363.135748 490.288027 
L 365.00624 489.346809 
L 366.867226 488.386933 
L 368.718521 487.408496 
L 370.559938 486.411595 
L 372.391295 485.39633 
L 374.212408 484.362802 
L 376.023095 483.311116 
L 377.823175 482.241375 
L 379.612467 481.153687 
L 381.390793 480.048161 
L 383.157975 478.924908 
z
" clip-path="url(#p451917b65c)" style="fill: #0010ff"/>
   </g>
   <g id="patch_4">
    <path d="M 328.353687 501.674633 
L 326.361751 502.248715 
L 324.364175 502.80285 
L 322.361157 503.336981 
L 320.352898 503.851056 
L 318.339598 504.345023 
L 316.32146 504.818833 
L 314.298685 505.272438 
L 312.271475 505.705793 
L 310.240032 506.118854 
L 308.204561 506.511581 
L 306.165265 506.883934 
L 304.122346 507.235875 
L 302.076011 507.56737 
L 300.026463 507.878386 
L 297.973907 508.16889 
L 295.91855 508.438855 
L 293.860595 508.688254 
L 291.800249 508.91706 
L 289.737718 509.125252 
L 287.673208 509.312809 
L 285.606926 509.479711 
L 283.539079 509.625943 
L 281.469872 509.751489 
L 279.399514 509.856338 
L 277.32821 509.940477 
L 275.256169 510.0039 
L 273.183597 510.0466 
L 271.110702 510.068572 
L 269.037691 510.069814 
L 266.964771 510.050327 
L 264.892149 510.010112 
L 262.820033 509.949173 
L 260.748631 509.867516 
L 258.678148 509.765149 
L 256.608792 509.642083 
L 254.540771 509.49833 
L 252.47429 509.333905 
L 250.409557 509.148823 
L 248.346779 508.943103 
L 246.28616 508.716766 
L 244.227908 508.469835 
L 242.172228 508.202334 
L 240.119325 507.91429 
L 238.069406 507.605731 
L 236.022675 507.27669 
L 233.979336 506.927197 
L 231.939595 506.557289 
L 229.903654 506.167003 
L 227.871718 505.756376 
L 225.84399 505.325452 
L 223.820672 504.874272 
L 221.801968 504.402882 
L 219.788078 503.911328 
L 217.779204 503.399661 
L 215.775547 502.867931 
L 213.777308 502.316191 
L 211.784686 501.744496 
L 211.546224 501.674633 
L 210.956287 503.683773 
L 211.197158 503.754342 
L 213.209907 504.331811 
L 215.228331 504.889124 
L 217.252227 505.426225 
L 219.281392 505.943061 
L 221.315624 506.43958 
L 223.35472 506.915731 
L 225.398475 507.371469 
L 227.446685 507.806746 
L 229.499146 508.22152 
L 231.555652 508.615749 
L 233.615997 508.989393 
L 235.679975 509.342416 
L 237.74738 509.674781 
L 239.818006 509.986457 
L 241.891645 510.27741 
L 243.968089 510.547613 
L 246.047132 510.797039 
L 248.128565 511.025662 
L 250.21218 511.23346 
L 252.297769 511.420411 
L 254.385123 511.586497 
L 256.474033 511.731702 
L 258.564291 511.856011 
L 260.655688 511.959412 
L 262.748014 512.041894 
L 264.84106 512.103448 
L 266.934617 512.14407 
L 269.028476 512.163754 
L 271.122427 512.162499 
L 273.21626 512.140305 
L 275.309767 512.097174 
L 277.402738 512.033111 
L 279.494964 511.948121 
L 281.586235 511.842214 
L 283.676343 511.715399 
L 285.765078 511.56769 
L 287.852231 511.399102 
L 289.937594 511.209651 
L 292.020959 510.999356 
L 294.102116 510.768238 
L 296.180859 510.516321 
L 298.256978 510.243629 
L 300.330266 509.95019 
L 302.400517 509.636033 
L 304.467522 509.301189 
L 306.531076 508.945693 
L 308.590971 508.569579 
L 310.647003 508.172885 
L 312.698965 507.755652 
L 314.746652 507.317919 
L 316.789859 506.859733 
L 318.828383 506.381137 
L 320.862018 505.88218 
L 322.890563 505.362913 
L 324.913813 504.823386 
L 326.931567 504.263654 
L 328.943623 503.683773 
z
" clip-path="url(#p451917b65c)" style="fill: #00a4ff"/>
   </g>
   <g id="patch_5">
    <path d="M 211.546224 501.674633 
L 209.560129 501.08066 
L 207.580072 500.466856 
L 205.606253 499.833283 
L 203.638868 499.180004 
L 201.678114 498.507084 
L 199.724188 497.81459 
L 197.777283 497.102592 
L 195.837596 496.37116 
L 193.905321 495.620369 
L 191.980649 494.850293 
L 190.063774 494.061009 
L 188.154888 493.252596 
L 186.254182 492.425135 
L 184.361845 491.578708 
L 182.478066 490.713401 
L 180.603035 489.8293 
L 178.736939 488.926493 
L 176.879963 488.00507 
L 175.032295 487.065124 
L 173.194118 486.106748 
L 171.365617 485.130039 
L 169.546974 484.135094 
L 167.738371 483.122013 
L 165.939989 482.090897 
L 164.152009 481.041848 
L 162.374608 479.974973 
L 160.607964 478.890377 
L 158.852255 477.78817 
L 157.874015 477.163356 
L 156.741935 478.924908 
L 157.730056 479.556032 
L 159.503499 480.669373 
L 161.287988 481.764924 
L 163.083343 482.842576 
L 164.889384 483.902221 
L 166.705931 484.943753 
L 168.532802 485.967067 
L 170.369815 486.972062 
L 172.216786 487.958637 
L 174.07353 488.926693 
L 175.939862 489.876133 
L 177.815595 490.806863 
L 179.700541 491.71879 
L 181.594512 492.611822 
L 183.497318 493.485869 
L 185.40877 494.340845 
L 187.328676 495.176665 
L 189.256843 495.993244 
L 191.19308 496.7905 
L 193.137193 497.568355 
L 195.088987 498.32673 
L 197.048267 499.065549 
L 199.014836 499.784739 
L 200.9885 500.484228 
L 202.969059 501.163945 
L 204.956317 501.823824 
L 206.950074 502.463796 
L 208.95013 503.0838 
L 210.956287 503.683773 
z
" clip-path="url(#p451917b65c)" style="fill: #40ffb7"/>
   </g>
   <g id="patch_6">
    <path d="M 157.874015 477.163356 
L 156.135712 476.033896 
L 154.408791 474.88711 
L 152.693423 473.723111 
L 150.989781 472.542018 
L 149.298035 471.343948 
L 147.618354 470.12902 
L 145.950907 468.897356 
L 144.295859 467.64908 
L 142.653376 466.384316 
L 141.023623 465.103191 
L 139.406762 463.805833 
L 137.802955 462.492371 
L 136.212363 461.162937 
L 134.635145 459.817663 
L 133.071458 458.456686 
L 131.521459 457.080139 
L 129.985303 455.688162 
L 128.463143 454.280893 
L 126.955131 452.858473 
L 125.461419 451.421044 
L 123.982156 449.96875 
L 122.517489 448.501737 
L 121.067565 447.02015 
L 119.63253 445.524138 
L 118.212526 444.013852 
L 116.807696 442.48944 
L 115.41818 440.951057 
L 114.044116 439.398856 
L 113.281533 438.523751 
L 111.699024 439.895003 
L 112.46931 440.778948 
L 113.857252 442.346828 
L 115.260804 443.90075 
L 116.679825 445.440559 
L 118.114172 446.966101 
L 119.563703 448.477224 
L 121.028272 449.973776 
L 122.507733 451.455608 
L 124.001939 452.922572 
L 125.510739 454.37452 
L 127.033983 455.811308 
L 128.571518 457.232792 
L 130.123192 458.638829 
L 131.688847 460.02928 
L 133.268329 461.404006 
L 134.861479 462.762867 
L 136.468137 464.10573 
L 138.088144 465.432459 
L 139.721336 466.742922 
L 141.367552 468.036988 
L 143.026625 469.314528 
L 144.698391 470.575413 
L 146.382682 471.819517 
L 148.079329 473.046717 
L 149.788164 474.256889 
L 151.509014 475.449913 
L 153.241708 476.625668 
L 154.986074 477.784039 
L 156.741935 478.924908 
z
" clip-path="url(#p451917b65c)" style="fill: #b7ff40"/>
   </g>
   <g id="patch_7">
    <path d="M 113.281533 438.523751 
L 111.931849 436.950305 
L 110.597967 435.363441 
L 109.28002 433.763318 
L 107.97814 432.150096 
L 106.692457 430.523936 
L 105.4231 428.885 
L 104.170195 427.233454 
L 102.933868 425.56946 
L 101.714243 423.893187 
L 100.511441 422.204802 
L 99.325582 420.504474 
L 98.156786 418.792372 
L 97.005169 417.068668 
L 95.870847 415.333534 
L 94.753932 413.587143 
L 93.654537 411.829672 
L 92.572771 410.061294 
L 91.508742 408.282187 
L 90.462558 406.492529 
L 89.434322 404.692499 
L 88.424138 402.882277 
L 87.432106 401.062043 
L 86.458325 399.23198 
L 85.502894 397.392272 
L 84.565907 395.543101 
L 83.647459 393.684652 
L 82.74764 391.817113 
L 81.866542 389.940669 
L 81.004252 388.055507 
L 80.160856 386.161817 
L 79.336439 384.259789 
L 78.531083 382.349611 
L 77.744869 380.431475 
L 76.977876 378.505573 
L 76.230179 376.572098 
L 75.501854 374.631242 
L 74.792974 372.6832 
L 74.103609 370.728168 
L 73.433829 368.766339 
L 72.7837 366.79791 
L 72.153288 364.823079 
L 71.542655 362.842043 
L 70.951863 360.855 
L 70.38097 358.862148 
L 69.830034 356.863686 
L 69.29911 354.859816 
L 68.788251 352.850736 
L 68.297508 350.836649 
L 67.82693 348.817755 
L 67.376564 346.794256 
L 66.946455 344.766354 
L 66.536647 342.734253 
L 66.147179 340.698156 
L 65.778092 338.658266 
L 65.429422 336.614787 
L 65.101203 334.567923 
L 64.79347 332.51788 
L 64.757959 332.271945 
L 62.685313 332.569947 
L 62.721182 332.818366 
L 63.032024 334.889117 
L 63.363558 336.956655 
L 63.71575 339.020776 
L 64.088565 341.081271 
L 64.481967 343.137935 
L 64.895915 345.190562 
L 65.330368 347.238947 
L 65.785283 349.282886 
L 66.260615 351.322173 
L 66.756315 353.356605 
L 67.272334 355.385978 
L 67.808621 357.410089 
L 68.365122 359.428737 
L 68.941781 361.441719 
L 69.538541 363.448834 
L 70.155342 365.44988 
L 70.792122 367.444659 
L 71.448817 369.432971 
L 72.125363 371.414616 
L 72.821691 373.389397 
L 73.537732 375.357115 
L 74.273413 377.317576 
L 75.028663 379.270581 
L 75.803404 381.215936 
L 76.597559 383.153447 
L 77.41105 385.08292 
L 78.243795 387.004161 
L 79.095709 388.916979 
L 79.96671 390.821182 
L 80.856708 392.716581 
L 81.765615 394.602984 
L 82.693341 396.480205 
L 83.639793 398.348054 
L 84.604875 400.206346 
L 85.588491 402.054894 
L 86.590544 403.893514 
L 87.610932 405.722021 
L 88.649554 407.540233 
L 89.706306 409.347969 
L 90.781082 411.145046 
L 91.873775 412.931287 
L 92.984275 414.706511 
L 94.112472 416.470541 
L 95.258252 418.223202 
L 96.421502 419.964317 
L 97.602104 421.693713 
L 98.799941 423.411217 
L 100.014892 425.116656 
L 101.246837 426.809861 
L 102.495652 428.490662 
L 103.761213 430.158891 
L 105.043392 431.814382 
L 106.342061 433.456968 
L 107.657092 435.086485 
L 108.988351 436.702771 
L 110.335707 438.305664 
L 111.699024 439.895003 
z
" clip-path="url(#p451917b65c)" style="fill: #ffb900"/>
   </g>
   <g id="patch_8">
    <path d="M 64.757959 332.271945 
L 64.473202 330.218584 
L 64.208992 328.162478 
L 63.965357 326.103833 
L 63.742319 324.042855 
L 63.539903 321.979749 
L 63.358127 319.914723 
L 63.19701 317.847982 
L 63.056568 315.779733 
L 62.936815 313.710183 
L 62.837764 311.639539 
L 62.759423 309.568008 
L 62.701801 307.495797 
L 62.664904 305.423114 
L 62.648736 303.350166 
L 62.653297 301.277159 
L 62.678588 299.204301 
L 62.724606 297.131801 
L 62.791346 295.059864 
L 62.878802 292.988697 
L 62.986964 290.918509 
L 63.115823 288.849507 
L 63.265365 286.781896 
L 63.435576 284.715884 
L 63.626438 282.651677 
L 63.837931 280.589482 
L 64.070036 278.529505 
L 64.322729 276.471952 
L 64.595984 274.417029 
L 64.889775 272.364941 
L 65.204071 270.315894 
L 65.538842 268.270092 
L 65.894054 266.22774 
L 66.269671 264.189042 
L 66.665656 262.154202 
L 67.081969 260.123424 
L 67.518569 258.09691 
L 67.975412 256.074863 
L 68.452452 254.057486 
L 68.949641 252.044981 
L 69.466931 250.037547 
L 70.004269 248.035387 
L 70.561601 246.0387 
L 71.138872 244.047686 
L 71.736023 242.062545 
L 72.352996 240.083474 
L 72.989729 238.110671 
L 73.646157 236.144335 
L 74.322216 234.184661 
L 75.017837 232.231845 
L 75.732951 230.286083 
L 76.467487 228.34757 
L 77.221371 226.416499 
L 77.994527 224.493062 
L 78.786879 222.577454 
L 79.598347 220.669865 
L 80.42885 218.770485 
L 81.278305 216.879506 
L 82.146627 214.997115 
L 83.033729 213.123502 
L 83.939523 211.258853 
L 84.863918 209.403355 
L 85.806821 207.557194 
L 86.768138 205.720554 
L 87.747773 203.893619 
L 88.745628 202.076571 
L 89.761604 200.269592 
L 90.795598 198.472864 
L 91.847508 196.686565 
L 92.917227 194.910874 
L 94.00465 193.14597 
L 95.109667 191.392027 
L 96.232168 189.649222 
L 97.372041 187.917729 
L 98.529171 186.197721 
L 99.703443 184.489371 
L 100.89474 182.792848 
L 102.102942 181.108323 
L 103.327929 179.435963 
L 104.569578 177.775938 
L 105.827764 176.128411 
L 107.102363 174.493549 
L 108.393246 172.871513 
L 109.700285 171.262468 
L 111.023349 169.666573 
L 112.362305 168.083989 
L 113.71702 166.514873 
L 115.087358 164.959382 
L 116.473182 163.417673 
L 117.874354 161.889898 
L 119.290733 160.376211 
L 120.722178 158.876764 
L 122.168546 157.391706 
L 123.629691 155.921185 
L 125.105469 154.465349 
L 126.595731 153.024343 
L 128.100328 151.598312 
L 129.61911 150.187398 
L 131.151925 148.791742 
L 132.698619 147.411484 
L 134.259039 146.046761 
L 135.833028 144.697711 
L 137.420428 143.364467 
L 139.021081 142.047164 
L 140.634827 140.745934 
L 142.261504 139.460905 
L 143.90095 138.192207 
L 145.553001 136.939967 
L 147.217491 135.704309 
L 148.894255 134.485359 
L 150.583124 133.283236 
L 152.283929 132.098062 
L 153.996502 130.929955 
L 155.720669 129.779031 
L 157.456259 128.645407 
L 159.203098 127.529195 
L 160.961013 126.430507 
L 162.729825 125.349452 
L 164.50936 124.28614 
L 166.299439 123.240676 
L 168.099883 122.213164 
L 169.910511 121.203708 
L 171.731144 120.212408 
L 173.561598 119.239365 
L 175.401691 118.284673 
L 177.251239 117.348431 
L 179.110056 116.43073 
L 180.977958 115.531663 
L 182.854757 114.65132 
L 184.740265 113.789788 
L 186.634294 112.947154 
L 188.536654 112.123503 
L 190.447156 111.318915 
L 192.365608 110.533473 
L 194.291818 109.767254 
L 196.225594 109.020336 
L 198.166743 108.292792 
L 200.115069 107.584695 
L 202.070379 106.896117 
L 204.032477 106.227126 
L 206.001167 105.57779 
L 207.976252 104.948172 
L 209.957534 104.338336 
L 211.546224 103.864947 
L 210.956287 101.855807 
L 209.351549 102.333978 
L 207.350255 102.949974 
L 205.35522 103.585951 
L 203.366644 104.241847 
L 201.384727 104.917595 
L 199.409666 105.613129 
L 197.44166 106.328378 
L 195.480904 107.06327 
L 193.527594 107.817734 
L 191.581927 108.591692 
L 189.644097 109.385068 
L 187.714297 110.197783 
L 185.792721 111.029754 
L 183.879561 111.880899 
L 181.975007 112.751133 
L 180.079251 113.640369 
L 178.192482 114.548517 
L 176.314888 115.475488 
L 174.446658 116.421187 
L 172.587978 117.385522 
L 170.739034 118.368395 
L 168.900012 119.369707 
L 167.071094 120.38936 
L 165.252464 121.42725 
L 163.444304 122.483275 
L 161.646794 123.557328 
L 159.860114 124.649302 
L 158.084443 125.759088 
L 156.319959 126.886575 
L 154.566838 128.03165 
L 152.825255 129.194199 
L 151.095384 130.374105 
L 149.377398 131.57125 
L 147.67147 132.785516 
L 145.977769 134.016779 
L 144.296466 135.264918 
L 142.627728 136.529807 
L 140.971722 137.81132 
L 139.328613 139.109329 
L 137.698567 140.423704 
L 136.081746 141.754313 
L 134.478311 143.101023 
L 132.888424 144.4637 
L 131.312242 145.842208 
L 129.749924 147.236408 
L 128.201626 148.646162 
L 126.667503 150.071328 
L 125.147708 151.511763 
L 123.642393 152.967324 
L 122.151709 154.437866 
L 120.675804 155.92324 
L 119.214827 157.423299 
L 117.768923 158.937892 
L 116.338237 160.466869 
L 114.922912 162.010076 
L 113.523089 163.567358 
L 112.138909 165.138561 
L 110.770511 166.723526 
L 109.41803 168.322097 
L 108.081602 169.934111 
L 106.76136 171.55941 
L 105.457438 173.197829 
L 104.169964 174.849205 
L 102.899069 176.513373 
L 101.644878 178.190167 
L 100.407518 179.879419 
L 99.187112 181.580959 
L 97.983782 183.294619 
L 96.797648 185.020226 
L 95.628829 186.757607 
L 94.477443 188.50659 
L 93.343604 190.266999 
L 92.227425 192.038658 
L 91.129018 193.82139 
L 90.048493 195.615017 
L 88.985958 197.41936 
L 87.94152 199.234237 
L 86.915282 201.059468 
L 85.907347 202.894869 
L 84.917816 204.740259 
L 83.946789 206.595451 
L 82.994362 208.46026 
L 82.06063 210.3345 
L 81.145687 212.217984 
L 80.249624 214.110523 
L 79.372531 216.011927 
L 78.514496 217.922007 
L 77.675604 219.840573 
L 76.855939 221.76743 
L 76.055583 223.702388 
L 75.274617 225.645253 
L 74.513118 227.59583 
L 73.771163 229.553925 
L 73.048826 231.519341 
L 72.346178 233.491882 
L 71.66329 235.47135 
L 71.000232 237.457549 
L 70.357067 239.450279 
L 69.733862 241.44934 
L 69.130679 243.454534 
L 68.547577 245.465659 
L 67.984615 247.482514 
L 67.44185 249.504898 
L 66.919335 251.532609 
L 66.417123 253.565443 
L 65.935265 255.603198 
L 65.473807 257.645669 
L 65.032797 259.692652 
L 64.612279 261.743944 
L 64.212294 263.799337 
L 63.832883 265.858628 
L 63.474083 267.92161 
L 63.135931 269.988077 
L 62.81846 272.057822 
L 62.521702 274.130638 
L 62.245686 276.206318 
L 61.990441 278.284654 
L 61.755992 280.365439 
L 61.542362 282.448464 
L 61.349572 284.533521 
L 61.177642 286.620402 
L 61.02659 288.708898 
L 60.896429 290.7988 
L 60.787174 292.889899 
L 60.698835 294.981985 
L 60.63142 297.074851 
L 60.584938 299.168286 
L 60.559391 301.262082 
L 60.554784 303.356028 
L 60.571116 305.449915 
L 60.608386 307.543535 
L 60.666589 309.636677 
L 60.745721 311.729132 
L 60.845773 313.820692 
L 60.966736 315.911146 
L 61.108596 318.000287 
L 61.27134 320.087904 
L 61.454952 322.173789 
L 61.659414 324.257735 
L 61.884704 326.339531 
L 62.130801 328.41897 
L 62.397679 330.495845 
L 62.685313 332.569947 
z
" clip-path="url(#p451917b65c)" style="fill: #ff3000"/>
   </g>
   <g id="patch_9">
    <path d="M 211.546224 103.864947 
L 213.538159 103.290864 
L 215.535736 102.73673 
L 217.538754 102.202598 
L 219.547013 101.688523 
L 221.560312 101.194556 
L 223.57845 100.720746 
L 225.601226 100.267141 
L 227.628436 99.833787 
L 229.659878 99.420725 
L 231.695349 99.027998 
L 233.734646 98.655646 
L 235.777564 98.303704 
L 237.823899 97.972209 
L 239.873447 97.661194 
L 241.926003 97.370689 
L 243.981361 97.100724 
L 246.039316 96.851326 
L 248.099662 96.622519 
L 250.162192 96.414327 
L 252.226702 96.226771 
L 254.292984 96.059868 
L 256.360832 95.913637 
L 258.430038 95.78809 
L 260.500397 95.683242 
L 262.5717 95.599102 
L 264.643741 95.535679 
L 266.716313 95.49298 
L 268.789208 95.471008 
L 269.949955 95.467758 
L 269.949955 93.373798 
L 268.777484 93.377081 
L 266.68365 93.399275 
L 264.590143 93.442406 
L 262.497172 93.506469 
L 260.404946 93.591459 
L 258.313675 93.697366 
L 256.223568 93.82418 
L 254.134833 93.971889 
L 252.047679 94.140478 
L 249.962316 94.329929 
L 247.878952 94.540224 
L 245.797794 94.771342 
L 243.719052 95.023259 
L 241.642933 95.295951 
L 239.569644 95.58939 
L 237.499394 95.903547 
L 235.432388 96.23839 
L 233.368835 96.593887 
L 231.308939 96.970001 
L 229.252907 97.366694 
L 227.200946 97.783928 
L 225.153259 98.22166 
L 223.110051 98.679847 
L 221.071528 99.158443 
L 219.037892 99.657399 
L 217.009348 100.176667 
L 214.986097 100.716194 
L 212.968343 101.275926 
L 210.956287 101.855807 
z
" clip-path="url(#p451917b65c)" style="fill: #800000"/>
   </g>
   <g id="PatchCollection_1">
    <path d="M 328.353687 501.674633 
L 328.353687 501.674633 
L 326.361751 502.248715 
L 324.364175 502.80285 
L 322.361157 503.336981 
L 320.352898 503.851056 
L 318.339598 504.345023 
L 316.32146 504.818833 
L 314.298685 505.272438 
L 312.271475 505.705793 
L 310.240032 506.118854 
L 308.204561 506.511581 
L 306.165265 506.883934 
L 304.122346 507.235875 
L 302.076011 507.56737 
L 300.026463 507.878386 
L 297.973907 508.16889 
L 295.91855 508.438855 
L 293.860595 508.688254 
L 291.800249 508.91706 
L 289.737718 509.125252 
L 287.673208 509.312809 
L 285.606926 509.479711 
L 283.539079 509.625943 
L 281.469872 509.751489 
L 279.399514 509.856338 
L 277.32821 509.940477 
L 275.256169 510.0039 
L 273.183597 510.0466 
L 271.110702 510.068572 
L 269.949955 510.071822 
L 269.949955 510.071822 
Q 269.949955 302.76979 211.546224 103.864947 
L 211.546224 103.864947 
L 211.546224 103.864947 
L 213.538159 103.290864 
L 215.535736 102.73673 
L 217.538754 102.202598 
L 219.547013 101.688523 
L 221.560312 101.194556 
L 223.57845 100.720746 
L 225.601226 100.267141 
L 227.628436 99.833787 
L 229.659878 99.420725 
L 231.695349 99.027998 
L 233.734646 98.655646 
L 235.777564 98.303704 
L 237.823899 97.972209 
L 239.873447 97.661194 
L 241.926003 97.370689 
L 243.981361 97.100724 
L 246.039316 96.851326 
L 248.099662 96.622519 
L 250.162192 96.414327 
L 252.226702 96.226771 
L 254.292984 96.059868 
L 256.360832 95.913637 
L 258.430038 95.78809 
L 260.500397 95.683242 
L 262.5717 95.599102 
L 264.643741 95.535679 
L 266.716313 95.49298 
L 268.789208 95.471008 
L 269.949955 95.467758 
L 269.949955 95.467758 
Q 269.949955 302.76979 328.353687 501.674633 
z
" clip-path="url(#p451917b65c)" style="fill: #00a4ff; fill-opacity: 0.5; stroke: #808080; stroke-opacity: 0.5; stroke-width: 0.1"/>
    <path d="M 382.025895 477.163356 
L 382.025895 477.163356 
L 380.276385 478.275378 
L 378.515842 479.369848 
L 376.744443 480.446659 
L 374.962364 481.505702 
L 373.169784 482.546872 
L 371.366882 483.570065 
L 369.553839 484.575177 
L 367.730835 485.562109 
L 365.898053 486.530762 
L 364.055677 487.481039 
L 362.20389 488.412845 
L 360.342877 489.326087 
L 358.472826 490.220673 
L 356.593922 491.096515 
L 354.706354 491.953524 
L 352.810311 492.791615 
L 350.905981 493.610703 
L 348.993556 494.410708 
L 347.073227 495.191549 
L 345.145185 495.953148 
L 343.209624 496.695429 
L 341.266737 497.418317 
L 339.316718 498.12174 
L 337.359763 498.805629 
L 335.396067 499.469914 
L 333.425826 500.114529 
L 331.449238 500.73941 
L 329.4665 501.344495 
L 328.353687 501.674633 
L 328.353687 501.674633 
Q 269.949955 302.76979 64.757959 332.271945 
L 64.757959 332.271945 
L 64.757959 332.271945 
L 64.473202 330.218584 
L 64.208992 328.162478 
L 63.965357 326.103833 
L 63.742319 324.042855 
L 63.539903 321.979749 
L 63.358127 319.914723 
L 63.19701 317.847982 
L 63.056568 315.779733 
L 62.936815 313.710183 
L 62.837764 311.639539 
L 62.759423 309.568008 
L 62.701801 307.495797 
L 62.664904 305.423114 
L 62.648736 303.350166 
L 62.653297 301.277159 
L 62.678588 299.204301 
L 62.724606 297.131801 
L 62.791346 295.059864 
L 62.878802 292.988697 
L 62.986964 290.918509 
L 63.115823 288.849507 
L 63.265365 286.781896 
L 63.435576 284.715884 
L 63.626438 282.651677 
L 63.837931 280.589482 
L 64.070036 278.529505 
L 64.322729 276.471952 
L 64.595984 274.417029 
L 64.757959 273.267635 
L 64.757959 273.267635 
Q 269.949955 302.76979 382.025895 477.163356 
z
" clip-path="url(#p451917b65c)" style="fill: #0010ff; fill-opacity: 0.5; stroke: #808080; stroke-opacity: 0.5; stroke-width: 0.1"/>
    <path d="M 269.949955 95.467758 
L 269.949955 95.467758 
L 272.022941 95.478123 
L 274.095719 95.509217 
L 276.168083 95.561037 
L 278.239825 95.633577 
L 280.310739 95.726832 
L 282.380616 95.84079 
L 284.44925 95.975441 
L 286.516434 96.130771 
L 288.581961 96.306765 
L 290.645625 96.503405 
L 292.70722 96.720671 
L 294.766539 96.958542 
L 296.823376 97.216995 
L 298.877526 97.496002 
L 300.928784 97.795536 
L 302.976943 98.115568 
L 305.0218 98.456065 
L 307.06315 98.816993 
L 309.100788 99.198317 
L 311.134511 99.599997 
L 313.164116 100.021994 
L 315.189399 100.464266 
L 317.210159 100.926768 
L 319.226193 101.409454 
L 321.237299 101.912276 
L 323.243276 102.435184 
L 325.243924 102.978125 
L 327.239043 103.541045 
L 329.228432 104.123887 
L 331.211895 104.726595 
L 333.18923 105.349106 
L 335.160242 105.991359 
L 337.124733 106.65329 
L 339.082507 107.334832 
L 341.033367 108.035918 
L 342.97712 108.756477 
L 344.913569 109.496437 
L 346.842522 110.255724 
L 348.763786 111.034262 
L 350.677169 111.831974 
L 352.582479 112.64878 
L 354.479526 113.484597 
L 356.36812 114.339343 
L 358.248072 115.212932 
L 360.119194 116.105276 
L 361.9813 117.016286 
L 363.834202 117.945872 
L 365.677717 118.89394 
L 367.511658 119.860395 
L 369.335843 120.845142 
L 371.15009 121.84808 
L 372.954217 122.869111 
L 374.748044 123.908131 
L 376.531391 124.965037 
L 378.30408 126.039724 
L 380.065933 127.132084 
L 381.816775 128.242007 
L 383.556431 129.369383 
L 385.284726 130.514099 
L 387.001487 131.67604 
L 388.706544 132.85509 
L 390.399725 134.051132 
L 392.080861 135.264046 
L 393.749784 136.493709 
L 395.406327 137.740001 
L 397.050324 139.002795 
L 398.681612 140.281966 
L 400.300027 141.577385 
L 401.905406 142.888924 
L 403.497591 144.21645 
L 405.07642 145.559832 
L 406.641737 146.918935 
L 408.193386 148.293622 
L 409.731209 149.683757 
L 411.255055 151.089201 
L 412.764771 152.509812 
L 414.260205 153.945449 
L 415.741208 155.395969 
L 417.207632 156.861226 
L 418.65933 158.341073 
L 420.096158 159.835364 
L 421.517971 161.343947 
L 422.924628 162.866673 
L 424.315987 164.40339 
L 425.69191 165.953943 
L 427.052258 167.518177 
L 428.396897 169.095936 
L 429.725691 170.687063 
L 431.038507 172.291398 
L 432.335215 173.90878 
L 433.615685 175.539049 
L 434.879788 177.18204 
L 436.127398 178.837591 
L 437.35839 180.505534 
L 438.572642 182.185703 
L 439.770032 183.877931 
L 440.95044 185.582048 
L 442.113748 187.297884 
L 443.259839 189.025267 
L 444.3886 190.764024 
L 445.499917 192.513982 
L 446.59368 194.274965 
L 447.669778 196.046797 
L 448.728104 197.829302 
L 449.768552 199.622301 
L 450.791019 201.425614 
L 451.795402 203.239062 
L 452.781601 205.062462 
L 453.749516 206.895634 
L 454.699052 208.738392 
L 455.630113 210.590554 
L 456.542606 212.451933 
L 457.43644 214.322345 
L 458.311525 216.201601 
L 458.518516 216.653414 
L 458.518516 216.653414 
Q 269.949955 302.76979 64.757959 273.267635 
L 64.757959 273.267635 
L 64.757959 273.267635 
L 65.063235 271.217224 
L 65.389 269.169969 
L 65.735221 267.126073 
L 66.101862 265.085742 
L 66.488889 263.049179 
L 66.896261 261.016588 
L 67.323939 258.988173 
L 67.771879 256.964136 
L 68.240037 254.944679 
L 68.728365 252.930005 
L 69.236816 250.920314 
L 69.765338 248.915809 
L 70.313878 246.916689 
L 70.882381 244.923154 
L 71.470791 242.935403 
L 72.079049 240.953637 
L 72.707094 238.978051 
L 73.354862 237.008845 
L 74.02229 235.046215 
L 74.709311 233.090357 
L 75.415856 231.141467 
L 76.141854 229.19974 
L 76.887232 227.26537 
L 77.651917 225.33855 
L 78.435831 223.419473 
L 79.238897 221.508331 
L 80.061033 219.605315 
L 80.902159 217.710616 
L 81.762189 215.824422 
L 82.641037 213.946923 
L 83.538616 212.078307 
L 84.454837 210.218759 
L 85.389606 208.368466 
L 86.342832 206.527613 
L 87.314418 204.696385 
L 88.304267 202.874963 
L 89.312281 201.063532 
L 90.338358 199.26227 
L 91.382397 197.471359 
L 92.444292 195.690979 
L 93.523937 193.921305 
L 94.621225 192.162517 
L 95.736046 190.414789 
L 96.868288 188.678297 
L 98.017838 186.953214 
L 99.184581 185.239712 
L 100.3684 183.537963 
L 101.569177 181.848137 
L 102.786793 180.170404 
L 104.021124 178.50493 
L 105.272049 176.851882 
L 106.53944 175.211426 
L 107.823173 173.583726 
L 109.123119 171.968945 
L 110.439147 170.367243 
L 111.771125 168.778782 
L 113.118922 167.203719 
L 114.482402 165.642213 
L 115.861428 164.09442 
L 117.255863 162.560494 
L 118.665567 161.040589 
L 120.0904 159.534857 
L 121.530218 158.043448 
L 122.984878 156.566512 
L 124.454235 155.104195 
L 125.938141 153.656646 
L 127.436448 152.224007 
L 128.949006 150.806423 
L 130.475665 149.404035 
L 132.01627 148.016984 
L 133.570669 146.645408 
L 135.138706 145.289444 
L 136.720224 143.949227 
L 138.315064 142.624893 
L 139.923068 141.316574 
L 141.544075 140.024399 
L 143.177922 138.748499 
L 144.824446 137.489001 
L 146.483482 136.24603 
L 148.154866 135.019712 
L 149.838428 133.810169 
L 151.534002 132.617522 
L 153.241417 131.441889 
L 154.960503 130.28339 
L 156.691087 129.142139 
L 158.432998 128.01825 
L 160.18606 126.911837 
L 161.950098 125.823009 
L 163.724936 124.751876 
L 165.510397 123.698544 
L 167.306302 122.663119 
L 169.11247 121.645705 
L 170.928723 120.646403 
L 172.754877 119.665313 
L 174.590751 118.702534 
L 176.436161 117.758161 
L 178.290922 116.832289 
L 180.154849 115.925011 
L 182.027756 115.036417 
L 183.909454 114.166596 
L 185.799757 113.315636 
L 187.698474 112.48362 
L 189.605417 111.670634 
L 191.520393 110.876756 
L 193.443213 110.102068 
L 195.373684 109.346647 
L 197.311612 108.610568 
L 199.256803 107.893904 
L 201.209064 107.196728 
L 203.168199 106.51911 
L 205.134013 105.861116 
L 207.106307 105.222812 
L 209.084886 104.604264 
L 211.069552 104.005531 
L 211.546224 103.864947 
L 211.546224 103.864947 
Q 269.949955 302.76979 269.949955 95.467758 
z
" clip-path="url(#p451917b65c)" style="fill: #000080; fill-opacity: 0.5; stroke: #808080; stroke-opacity: 0.5; stroke-width: 0.1"/>
    <path d="M 458.518516 216.653414 
L 458.518516 216.653414 
L 459.370237 218.543374 
L 460.203016 220.441756 
L 461.01677 222.348371 
L 461.811418 224.263029 
L 462.586879 226.185537 
L 463.343077 228.115703 
L 464.079936 230.053335 
L 464.797382 231.998238 
L 465.495344 233.950218 
L 466.173751 235.90908 
L 466.832536 237.874629 
L 467.471632 239.846666 
L 468.090977 241.824996 
L 468.690508 243.809421 
L 469.270165 245.799741 
L 469.82989 247.795759 
L 470.369627 249.797273 
L 470.889323 251.804085 
L 471.388924 253.815994 
L 471.868382 255.832797 
L 472.327648 257.854295 
L 472.766677 259.880284 
L 473.185424 261.910562 
L 473.583848 263.944925 
L 473.961909 265.983172 
L 474.319568 268.025097 
L 474.656791 270.070496 
L 474.973543 272.119165 
L 475.269793 274.170899 
L 475.545511 276.225493 
L 475.80067 278.282742 
L 476.035244 280.342439 
L 476.24921 282.404379 
L 476.442546 284.468355 
L 476.615232 286.534162 
L 476.767253 288.601592 
L 476.898592 290.670439 
L 477.009236 292.740496 
L 477.099174 294.811556 
L 477.168398 296.883411 
L 477.2169 298.955855 
L 477.244675 301.028681 
L 477.251721 303.101681 
L 477.238038 305.174647 
L 477.203625 307.247373 
L 477.148487 309.319651 
L 477.07263 311.391275 
L 476.976061 313.462036 
L 476.858789 315.531728 
L 476.720826 317.600144 
L 476.562186 319.667076 
L 476.382886 321.732319 
L 476.182942 323.795666 
L 475.962375 325.85691 
L 475.721208 327.915846 
L 475.459463 329.972267 
L 475.177167 332.025967 
L 475.141951 332.271945 
L 475.141951 332.271945 
Q 269.949955 302.76979 113.281533 438.523751 
L 113.281533 438.523751 
L 113.281533 438.523751 
L 111.931849 436.950305 
L 110.597967 435.363441 
L 109.28002 433.763318 
L 107.97814 432.150096 
L 106.692457 430.523936 
L 105.4231 428.885 
L 104.170195 427.233454 
L 102.933868 425.56946 
L 101.714243 423.893187 
L 100.511441 422.204802 
L 99.325582 420.504474 
L 98.156786 418.792372 
L 97.005169 417.068668 
L 95.870847 415.333534 
L 94.753932 413.587143 
L 93.654537 411.829672 
L 92.572771 410.061294 
L 91.508742 408.282187 
L 90.462558 406.492529 
L 89.434322 404.692499 
L 88.424138 402.882277 
L 87.432106 401.062043 
L 86.458325 399.23198 
L 85.502894 397.392272 
L 84.565907 395.543101 
L 83.647459 393.684652 
L 82.74764 391.817113 
L 81.866542 389.940669 
L 81.004252 388.055507 
L 80.160856 386.161817 
L 79.336439 384.259789 
L 78.531083 382.349611 
L 77.744869 380.431475 
L 76.977876 378.505573 
L 76.230179 376.572098 
L 75.501854 374.631242 
L 74.792974 372.6832 
L 74.103609 370.728168 
L 73.433829 368.766339 
L 72.7837 366.79791 
L 72.153288 364.823079 
L 71.542655 362.842043 
L 70.951863 360.855 
L 70.38097 358.862148 
L 69.830034 356.863686 
L 69.29911 354.859816 
L 68.788251 352.850736 
L 68.297508 350.836649 
L 67.82693 348.817755 
L 67.376564 346.794256 
L 66.946455 344.766354 
L 66.536647 342.734253 
L 66.147179 340.698156 
L 65.778092 338.658266 
L 65.429422 336.614787 
L 65.101203 334.567923 
L 64.79347 332.51788 
L 64.757959 332.271945 
L 64.757959 332.271945 
Q 269.949955 302.76979 458.518516 216.653414 
z
" clip-path="url(#p451917b65c)" style="fill: #000080; fill-opacity: 0.5; stroke: #808080; stroke-opacity: 0.5; stroke-width: 0.1"/>
    <path d="M 475.141951 332.271945 
L 475.141951 332.271945 
L 474.836675 334.322356 
L 474.51091 336.369611 
L 474.16469 338.413507 
L 473.798048 340.453838 
L 473.411022 342.4904 
L 473.003649 344.522991 
L 472.575971 346.551407 
L 472.128031 348.575444 
L 471.659874 350.594901 
L 471.171545 352.609575 
L 470.663094 354.619265 
L 470.134573 356.623771 
L 469.586033 358.622891 
L 469.017529 360.616426 
L 468.429119 362.604176 
L 467.820862 364.585943 
L 467.192817 366.561528 
L 466.545048 368.530735 
L 465.87762 370.493365 
L 465.190599 372.449223 
L 464.484055 374.398113 
L 463.758057 376.33984 
L 463.012678 378.27421 
L 462.247993 380.20103 
L 461.464079 382.120107 
L 460.661013 384.031248 
L 459.838877 385.934264 
L 458.997752 387.828964 
L 458.518516 388.886166 
L 458.518516 388.886166 
Q 269.949955 302.76979 157.874015 477.163356 
L 157.874015 477.163356 
L 157.874015 477.163356 
L 156.135712 476.033896 
L 154.408791 474.88711 
L 152.693423 473.723111 
L 150.989781 472.542018 
L 149.298035 471.343948 
L 147.618354 470.12902 
L 145.950907 468.897356 
L 144.295859 467.64908 
L 142.653376 466.384316 
L 141.023623 465.103191 
L 139.406762 463.805833 
L 137.802955 462.492371 
L 136.212363 461.162937 
L 134.635145 459.817663 
L 133.071458 458.456686 
L 131.521459 457.080139 
L 129.985303 455.688162 
L 128.463143 454.280893 
L 126.955131 452.858473 
L 125.461419 451.421044 
L 123.982156 449.96875 
L 122.517489 448.501737 
L 121.067565 447.02015 
L 119.63253 445.524138 
L 118.212526 444.013852 
L 116.807696 442.48944 
L 115.41818 440.951057 
L 114.044116 439.398856 
L 113.281533 438.523751 
L 113.281533 438.523751 
Q 269.949955 302.76979 475.141951 332.271945 
z
" clip-path="url(#p451917b65c)" style="fill: #000080; fill-opacity: 0.5; stroke: #808080; stroke-opacity: 0.5; stroke-width: 0.1"/>
    <path d="M 458.518516 388.886166 
L 458.518516 388.886166 
L 457.647938 390.767514 
L 456.758591 392.640063 
L 455.850563 394.503625 
L 454.923945 396.358013 
L 453.97883 398.203043 
L 453.015312 400.038529 
L 452.033487 401.864289 
L 451.033455 403.680139 
L 450.015314 405.485899 
L 448.979167 407.281387 
L 447.925117 409.066423 
L 446.853269 410.84083 
L 445.763732 412.604431 
L 444.656613 414.357047 
L 443.532024 416.098506 
L 442.390077 417.828631 
L 441.230885 419.547251 
L 440.054566 421.254192 
L 438.861237 422.949286 
L 437.651017 424.632362 
L 436.424026 426.303251 
L 435.180388 427.961788 
L 433.920228 429.607805 
L 432.64367 431.241138 
L 431.350844 432.861625 
L 430.041877 434.469102 
L 428.716901 436.06341 
L 427.376049 437.644388 
L 426.618378 438.523751 
L 426.618378 438.523751 
Q 269.949955 302.76979 211.546224 501.674633 
L 211.546224 501.674633 
L 211.546224 501.674633 
L 209.560129 501.08066 
L 207.580072 500.466856 
L 205.606253 499.833283 
L 203.638868 499.180004 
L 201.678114 498.507084 
L 199.724188 497.81459 
L 197.777283 497.102592 
L 195.837596 496.37116 
L 193.905321 495.620369 
L 191.980649 494.850293 
L 190.063774 494.061009 
L 188.154888 493.252596 
L 186.254182 492.425135 
L 184.361845 491.578708 
L 182.478066 490.713401 
L 180.603035 489.8293 
L 178.736939 488.926493 
L 176.879963 488.00507 
L 175.032295 487.065124 
L 173.194118 486.106748 
L 171.365617 485.130039 
L 169.546974 484.135094 
L 167.738371 483.122013 
L 165.939989 482.090897 
L 164.152009 481.041848 
L 162.374608 479.974973 
L 160.607964 478.890377 
L 158.852255 477.78817 
L 157.874015 477.163356 
L 157.874015 477.163356 
Q 269.949955 302.76979 458.518516 388.886166 
z
" clip-path="url(#p451917b65c)" style="fill: #000080; fill-opacity: 0.5; stroke: #808080; stroke-opacity: 0.5; stroke-width: 0.1"/>
    <path d="M 426.618378 438.523751 
L 426.618378 438.523751 
L 425.253027 440.083621 
L 423.872147 441.62976 
L 422.475874 443.162014 
L 421.064349 444.680228 
L 419.637713 446.184251 
L 418.196108 447.673933 
L 416.739678 449.149125 
L 415.26857 450.609679 
L 413.78293 452.055449 
L 412.282906 453.48629 
L 410.76865 454.90206 
L 409.240312 456.302617 
L 407.698044 457.687821 
L 406.142003 459.057533 
L 404.572342 460.411616 
L 402.989219 461.749936 
L 401.392792 463.072357 
L 399.783221 464.378749 
L 398.160666 465.668979 
L 396.525291 466.94292 
L 394.877259 468.200444 
L 393.216733 469.441425 
L 391.543881 470.665738 
L 389.85887 471.873263 
L 388.161868 473.063877 
L 386.453045 474.237461 
L 384.732572 475.3939 
L 383.000621 476.533075 
L 382.025895 477.163356 
L 382.025895 477.163356 
Q 269.949955 302.76979 269.949955 510.071822 
L 269.949955 510.071822 
L 269.949955 510.071822 
L 267.876969 510.061457 
L 265.804191 510.030363 
L 263.731827 509.978543 
L 261.660085 509.906002 
L 259.589172 509.812748 
L 257.519295 509.69879 
L 255.450661 509.564139 
L 253.383477 509.408809 
L 251.317949 509.232815 
L 249.254285 509.036175 
L 247.19269 508.818908 
L 245.133371 508.581037 
L 243.076534 508.322585 
L 241.022384 508.043578 
L 238.971127 507.744043 
L 236.922967 507.424012 
L 234.878111 507.083515 
L 232.836761 506.722586 
L 230.799123 506.341263 
L 228.765399 505.939583 
L 226.735794 505.517586 
L 224.710511 505.075314 
L 222.689751 504.612812 
L 220.673718 504.130126 
L 218.662612 503.627304 
L 216.656634 503.104396 
L 214.655986 502.561455 
L 212.660868 501.998535 
L 211.546224 501.674633 
L 211.546224 501.674633 
Q 269.949955 302.76979 426.618378 438.523751 
z
" clip-path="url(#p451917b65c)" style="fill: #000080; fill-opacity: 0.5; stroke: #808080; stroke-opacity: 0.5; stroke-width: 0.1"/>
   </g>
   <g id="patch_10">
    <path d="M 269.949955 95.467758 
L 272.022941 95.478123 
L 274.095719 95.509217 
L 276.168083 95.561037 
L 278.239825 95.633577 
L 280.310739 95.726832 
L 282.380616 95.84079 
L 284.44925 95.975441 
L 286.516434 96.130771 
L 288.581961 96.306765 
L 290.645625 96.503405 
L 292.70722 96.720671 
L 294.766539 96.958542 
L 296.823376 97.216995 
L 298.877526 97.496002 
L 300.928784 97.795536 
L 302.976943 98.115568 
L 305.0218 98.456065 
L 307.06315 98.816993 
L 309.100788 99.198317 
L 311.134511 99.599997 
L 313.164116 100.021994 
L 315.189399 100.464266 
L 317.210159 100.926768 
L 319.226193 101.409454 
L 321.237299 101.912276 
L 323.243276 102.435184 
L 325.243924 102.978125 
L 327.239043 103.541045 
L 329.228432 104.123887 
L 331.211895 104.726595 
L 333.18923 105.349106 
L 335.160242 105.991359 
L 337.124733 106.65329 
L 339.082507 107.334832 
L 341.033367 108.035918 
L 342.97712 108.756477 
L 344.913569 109.496437 
L 346.842522 110.255724 
L 348.763786 111.034262 
L 350.677169 111.831974 
L 352.582479 112.64878 
L 354.479526 113.484597 
L 356.36812 114.339343 
L 358.248072 115.212932 
L 360.119194 116.105276 
L 361.9813 117.016286 
L 363.834202 117.945872 
L 365.677717 118.89394 
L 367.511658 119.860395 
L 369.335843 120.845142 
L 371.15009 121.84808 
L 372.954217 122.869111 
L 374.748044 123.908131 
L 376.531391 124.965037 
L 378.30408 126.039724 
L 380.065933 127.132084 
L 381.816775 128.242007 
L 383.556431 129.369383 
L 385.284726 130.514099 
L 387.001487 131.67604 
L 388.706544 132.85509 
L 390.399725 134.051132 
L 392.080861 135.264046 
L 393.749784 136.493709 
L 395.406327 137.740001 
L 397.050324 139.002795 
L 398.681612 140.281966 
L 400.300027 141.577385 
L 401.905406 142.888924 
L 403.497591 144.21645 
L 405.07642 145.559832 
L 406.641737 146.918935 
L 408.193386 148.293622 
L 409.731209 149.683757 
L 411.255055 151.089201 
L 412.764771 152.509812 
L 414.260205 153.945449 
L 415.741208 155.395969 
L 417.207632 156.861226 
L 418.65933 158.341073 
L 420.096158 159.835364 
L 421.517971 161.343947 
L 422.924628 162.866673 
L 424.315987 164.40339 
L 425.69191 165.953943 
L 427.052258 167.518177 
L 428.396897 169.095936 
L 429.725691 170.687063 
L 431.038507 172.291398 
L 432.335215 173.90878 
L 433.615685 175.539049 
L 434.879788 177.18204 
L 436.127398 178.837591 
L 437.35839 180.505534 
L 438.572642 182.185703 
L 439.770032 183.877931 
L 440.95044 185.582048 
L 442.113748 187.297884 
L 443.259839 189.025267 
L 444.3886 190.764024 
L 445.499917 192.513982 
L 446.59368 194.274965 
L 447.669778 196.046797 
L 448.728104 197.829302 
L 449.768552 199.622301 
L 450.791019 201.425614 
L 451.795402 203.239062 
L 452.781601 205.062462 
L 453.749516 206.895634 
L 454.699052 208.738392 
L 455.630113 210.590554 
L 456.542606 212.451933 
L 457.43644 214.322345 
L 458.311525 216.201601 
L 459.167775 218.089513 
L 460.005102 219.985894 
L 460.823425 221.890553 
L 461.62266 223.8033 
L 462.402728 225.723943 
L 463.163551 227.652291 
L 463.905053 229.588151 
L 464.62716 231.531328 
L 465.329799 233.48163 
L 466.0129 235.43886 
L 466.676395 237.402823 
L 467.320218 239.373323 
L 467.944303 241.350163 
L 468.54859 243.333144 
L 469.133016 245.322069 
L 469.697525 247.316739 
L 470.242059 249.316954 
L 470.766564 251.322514 
L 471.270987 253.333219 
L 471.755279 255.348868 
L 472.21939 257.369259 
L 472.663274 259.394189 
L 473.086887 261.423457 
L 473.490187 263.45686 
L 473.873133 265.494194 
L 474.235687 267.535256 
L 474.577812 269.579841 
L 474.899474 271.627745 
L 475.200642 273.678763 
L 475.481285 275.73269 
L 475.741375 277.789321 
L 475.980886 279.84845 
L 476.199794 281.909871 
L 476.398078 283.973378 
L 476.575716 286.038764 
L 476.732693 288.105824 
L 476.868991 290.17435 
L 476.984597 292.244136 
L 477.0795 294.314974 
L 477.153691 296.386658 
L 477.207161 298.45898 
L 477.239906 300.531733 
L 477.251921 302.60471 
L 477.243207 304.677703 
L 477.213764 306.750506 
L 477.163594 308.82291 
L 477.092703 310.894709 
L 477.001098 312.965696 
L 476.888789 315.035663 
L 476.755785 317.104404 
L 476.602101 319.171711 
L 476.427752 321.237378 
L 476.232755 323.301198 
L 476.017131 325.362965 
L 475.7809 327.422473 
L 475.524085 329.479515 
L 475.246714 331.533887 
L 474.948813 333.585382 
L 474.630412 335.633796 
L 474.291544 337.678923 
L 473.932241 339.720559 
L 473.552541 341.758501 
L 473.15248 343.792543 
L 472.732099 345.822483 
L 472.291441 347.848118 
L 471.830548 349.869246 
L 471.349467 351.885663 
L 470.848247 353.897169 
L 470.326937 355.903562 
L 469.785589 357.904642 
L 469.224258 359.900208 
L 468.643 361.890061 
L 468.041872 363.874003 
L 467.420936 365.851834 
L 466.780252 367.823356 
L 466.119886 369.788374 
L 465.439903 371.74669 
L 464.740371 373.698108 
L 464.02136 375.642433 
L 463.282943 377.579471 
L 462.525192 379.509028 
L 461.748183 381.430912 
L 460.951995 383.344929 
L 460.136707 385.250889 
L 459.302401 387.148601 
L 458.449159 389.037875 
L 457.577068 390.918522 
L 456.686214 392.790354 
L 455.776687 394.653185 
L 454.848577 396.506827 
L 453.901977 398.351096 
L 452.936983 400.185806 
L 451.953689 402.010775 
L 450.952196 403.82582 
L 449.932602 405.63076 
L 448.895011 407.425413 
L 447.839525 409.209601 
L 446.76625 410.983145 
L 445.675294 412.745868 
L 444.566765 414.497593 
L 443.440775 416.238146 
L 442.297436 417.967352 
L 441.136862 419.685038 
L 439.95917 421.391033 
L 438.764477 423.085166 
L 437.552902 424.767267 
L 436.324568 426.437169 
L 435.079596 428.094704 
L 433.818111 429.739707 
L 432.54024 431.372012 
L 431.24611 432.991458 
L 429.93585 434.597882 
L 428.609592 436.191123 
L 427.267468 437.771022 
L 425.909612 439.337421 
L 424.536161 440.890163 
L 423.147251 442.429093 
L 421.743021 443.954058 
L 420.323613 445.464904 
L 418.889167 446.961481 
L 417.439827 448.443638 
L 415.975738 449.911229 
L 414.497047 451.364105 
L 413.003901 452.802123 
L 411.49645 454.225137 
L 409.974845 455.633005 
L 408.439237 457.025588 
L 406.88978 458.402745 
L 405.32663 459.764339 
L 403.749942 461.110233 
L 402.159874 462.440294 
L 400.556585 463.754387 
L 398.940236 465.052383 
L 397.310987 466.33415 
L 395.669003 467.599561 
L 394.014447 468.848489 
L 392.347484 470.080809 
L 390.668282 471.296399 
L 388.977008 472.495136 
L 387.273832 473.6769 
L 385.558923 474.841574 
L 383.832453 475.989041 
L 382.094596 477.119186 
L 382.025895 477.163356 
L 383.157975 478.924908 
L 383.22737 478.880291 
L 384.982782 477.73873 
L 386.72669 476.579673 
L 388.458921 475.403235 
L 390.179302 474.209533 
L 391.887659 472.998688 
L 393.583823 471.77082 
L 395.267623 470.526052 
L 396.938892 469.264508 
L 398.597462 467.986315 
L 400.243168 466.691601 
L 401.875844 465.380494 
L 403.495328 464.053127 
L 405.101457 462.709632 
L 406.694071 461.350142 
L 408.273011 459.974795 
L 409.838119 458.583727 
L 411.389238 457.177078 
L 412.926213 455.754989 
L 414.448891 454.317601 
L 415.957119 452.865058 
L 417.450746 451.397506 
L 418.929624 449.915091 
L 420.393603 448.417962 
L 421.842538 446.906269 
L 423.276285 445.380161 
L 424.694698 443.839793 
L 426.097638 442.285318 
L 427.484962 440.716892 
L 428.856534 439.13467 
L 430.212215 437.538813 
L 431.551869 435.929479 
L 432.875364 434.306829 
L 434.182566 432.671025 
L 435.473345 431.022231 
L 436.747572 429.360612 
L 438.00512 427.686334 
L 439.245862 425.999565 
L 440.469674 424.300473 
L 441.676435 422.589227 
L 442.866023 420.866 
L 444.03832 419.130964 
L 445.193208 417.384291 
L 446.330571 415.626157 
L 447.450297 413.856737 
L 448.552273 412.076209 
L 449.636389 410.284751 
L 450.702537 408.482541 
L 451.750609 406.669759 
L 452.780501 404.846588 
L 453.792111 403.013209 
L 454.785336 401.169806 
L 455.760078 399.316563 
L 456.71624 397.453666 
L 457.653724 395.5813 
L 458.572439 393.699653 
L 459.472291 391.808913 
L 460.353192 389.909269 
L 461.215052 388.000912 
L 462.057786 386.084031 
L 462.881309 384.158819 
L 463.685539 382.225468 
L 464.470396 380.284172 
L 465.235801 378.335124 
L 465.981678 376.37852 
L 466.707951 374.414555 
L 467.414549 372.443426 
L 468.101401 370.465329 
L 468.768437 368.480463 
L 469.415592 366.489026 
L 470.042801 364.491217 
L 470.65 362.487236 
L 471.23713 360.477283 
L 471.804131 358.461559 
L 472.350947 356.440267 
L 472.877522 354.413607 
L 473.383806 352.381783 
L 473.869746 350.344998 
L 474.335294 348.303455 
L 474.780404 346.257359 
L 475.205031 344.206914 
L 475.609133 342.152326 
L 475.992668 340.093799 
L 476.3556 338.03154 
L 476.697892 335.965755 
L 477.019509 333.896651 
L 477.320419 331.824433 
L 477.600592 329.74931 
L 477.86 327.67149 
L 478.098617 325.591179 
L 478.31642 323.508586 
L 478.513386 321.423919 
L 478.689497 319.337387 
L 478.844733 317.249198 
L 478.97908 315.159561 
L 479.092524 313.068685 
L 479.185054 310.976779 
L 479.256661 308.884053 
L 479.307338 306.790715 
L 479.337078 304.696975 
L 479.345881 302.603042 
L 479.333743 300.509126 
L 479.300668 298.415436 
L 479.246658 296.322182 
L 479.171718 294.229572 
L 479.075856 292.137816 
L 478.959082 290.047124 
L 478.821407 287.957703 
L 478.662845 285.869764 
L 478.483412 283.783515 
L 478.283126 281.699165 
L 478.062007 279.616921 
L 477.820077 277.536993 
L 477.557359 275.459588 
L 477.273882 273.384914 
L 476.969672 271.313179 
L 476.64476 269.244589 
L 476.299179 267.179351 
L 475.932963 265.117673 
L 475.546149 263.05976 
L 475.138776 261.005818 
L 474.710883 258.956052 
L 474.262515 256.910667 
L 473.793716 254.869869 
L 473.304533 252.83386 
L 472.795014 250.802845 
L 472.265211 248.777027 
L 471.715177 246.756607 
L 471.144966 244.741789 
L 470.554636 242.732774 
L 469.944246 240.729763 
L 469.313857 238.732955 
L 468.663531 236.742551 
L 467.993334 234.75875 
L 467.303333 232.781749 
L 466.593596 230.811748 
L 465.864196 228.848942 
L 465.115204 226.893528 
L 464.346696 224.945702 
L 463.558748 223.005658 
L 462.75144 221.073591 
L 461.924851 219.149693 
L 461.079066 217.234157 
L 460.214167 215.327174 
L 459.330243 213.428936 
L 458.42738 211.539632 
L 457.50567 209.659451 
L 456.565204 207.78858 
L 455.606077 205.927208 
L 454.628385 204.07552 
L 453.632225 202.233701 
L 452.617697 200.401935 
L 451.584902 198.580407 
L 450.533944 196.769297 
L 449.464927 194.968787 
L 448.37796 193.179057 
L 447.273149 191.400287 
L 446.150607 189.632653 
L 445.010444 187.876332 
L 443.852776 186.131501 
L 442.677717 184.398334 
L 441.485386 182.677004 
L 440.275902 180.967682 
L 439.049385 179.270541 
L 437.805958 177.58575 
L 436.545745 175.913477 
L 435.268874 174.25389 
L 433.97547 172.607154 
L 432.665664 170.973434 
L 431.339587 169.352894 
L 429.997371 167.745695 
L 428.63915 166.151999 
L 427.265061 164.571964 
L 425.87524 163.005749 
L 424.469827 161.453511 
L 423.048961 159.915404 
L 421.612786 158.391582 
L 420.161445 156.882197 
L 418.695083 155.387402 
L 417.213847 153.907344 
L 415.717884 152.442173 
L 414.207344 150.992034 
L 412.682379 149.557073 
L 411.143141 148.137434 
L 409.589784 146.733257 
L 408.022463 145.344684 
L 406.441334 143.971853 
L 404.846557 142.614901 
L 403.23829 141.273966 
L 401.616694 139.949179 
L 399.981932 138.640675 
L 398.334167 137.348583 
L 396.673563 136.073033 
L 395.000287 134.814153 
L 393.314506 133.572068 
L 391.616389 132.346903 
L 389.906105 131.13878 
L 388.183826 129.94782 
L 386.449723 128.774142 
L 384.703971 127.617864 
L 382.946743 126.4791 
L 381.178216 125.357966 
L 379.398566 124.254572 
L 377.607971 123.16903 
L 375.806611 122.101448 
L 373.994664 121.051932 
L 372.172314 120.020588 
L 370.339741 119.007519 
L 368.49713 118.012826 
L 366.644664 117.036608 
L 364.782528 116.078964 
L 362.910909 115.139988 
L 361.029995 114.219776 
L 359.139972 113.318418 
L 357.24103 112.436005 
L 355.33336 111.572626 
L 353.417151 110.728366 
L 351.492595 109.903309 
L 349.559885 109.09754 
L 347.619215 108.311137 
L 345.670777 107.544181 
L 343.714768 106.796746 
L 341.751382 106.068909 
L 339.780816 105.360742 
L 337.803267 104.672315 
L 335.818932 104.003698 
L 333.828011 103.354957 
L 331.830702 102.726158 
L 329.827205 102.117363 
L 327.81772 101.528633 
L 325.802449 100.960027 
L 323.781592 100.411602 
L 321.755353 99.883412 
L 319.723932 99.375511 
L 317.687535 98.887949 
L 315.646364 98.420776 
L 313.600623 97.974036 
L 311.550517 97.547777 
L 309.496251 97.142039 
L 307.43803 96.756864 
L 305.376061 96.39229 
L 303.310549 96.048354 
L 301.241701 95.725089 
L 299.169724 95.422529 
L 297.094825 95.140704 
L 295.017212 94.879641 
L 292.937091 94.639367 
L 290.854673 94.419906 
L 288.770163 94.22128 
L 286.683772 94.043508 
L 284.595707 93.886609 
L 282.506178 93.750598 
L 280.415393 93.635489 
L 278.323562 93.541293 
L 276.230893 93.468019 
L 274.137596 93.415676 
L 272.04388 93.384268 
L 269.949955 93.373798 
L 269.949955 95.467758 
z
" clip-path="url(#p451917b65c)" style="fill: none; stroke: #000000; stroke-width: 0.5; stroke-linejoin: miter"/>
   </g>
   <g id="patch_11">
    <path d="M 382.025895 477.163356 
L 380.276385 478.275378 
L 378.515842 479.369848 
L 376.744443 480.446659 
L 374.962364 481.505702 
L 373.169784 482.546872 
L 371.366882 483.570065 
L 369.553839 484.575177 
L 367.730835 485.562109 
L 365.898053 486.530762 
L 364.055677 487.481039 
L 362.20389 488.412845 
L 360.342877 489.326087 
L 358.472826 490.220673 
L 356.593922 491.096515 
L 354.706354 491.953524 
L 352.810311 492.791615 
L 350.905981 493.610703 
L 348.993556 494.410708 
L 347.073227 495.191549 
L 345.145185 495.953148 
L 343.209624 496.695429 
L 341.266737 497.418317 
L 339.316718 498.12174 
L 337.359763 498.805629 
L 335.396067 499.469914 
L 333.425826 500.114529 
L 331.449238 500.73941 
L 329.4665 501.344495 
L 328.353687 501.674633 
L 328.943623 503.683773 
L 330.067677 503.3503 
L 332.070443 502.739103 
L 334.066996 502.107911 
L 336.057139 501.456784 
L 338.04067 500.785789 
L 340.017393 500.094992 
L 341.987108 499.384464 
L 343.949621 498.654273 
L 345.904733 497.904495 
L 347.85225 497.135203 
L 349.791976 496.346475 
L 351.723719 495.538389 
L 353.647284 494.711027 
L 355.56248 493.864471 
L 357.469114 492.998805 
L 359.366996 492.114117 
L 361.255937 491.210494 
L 363.135748 490.288027 
L 365.00624 489.346809 
L 366.867226 488.386933 
L 368.718521 487.408496 
L 370.559938 486.411595 
L 372.391295 485.39633 
L 374.212408 484.362802 
L 376.023095 483.311116 
L 377.823175 482.241375 
L 379.612467 481.153687 
L 381.390793 480.048161 
L 383.157975 478.924908 
L 382.025895 477.163356 
z
" clip-path="url(#p451917b65c)" style="fill: none; stroke: #000000; stroke-width: 0.5; stroke-linejoin: miter"/>
   </g>
   <g id="patch_12">
    <path d="M 328.353687 501.674633 
L 326.361751 502.248715 
L 324.364175 502.80285 
L 322.361157 503.336981 
L 320.352898 503.851056 
L 318.339598 504.345023 
L 316.32146 504.818833 
L 314.298685 505.272438 
L 312.271475 505.705793 
L 310.240032 506.118854 
L 308.204561 506.511581 
L 306.165265 506.883934 
L 304.122346 507.235875 
L 302.076011 507.56737 
L 300.026463 507.878386 
L 297.973907 508.16889 
L 295.91855 508.438855 
L 293.860595 508.688254 
L 291.800249 508.91706 
L 289.737718 509.125252 
L 287.673208 509.312809 
L 285.606926 509.479711 
L 283.539079 509.625943 
L 281.469872 509.751489 
L 279.399514 509.856338 
L 277.32821 509.940477 
L 275.256169 510.0039 
L 273.183597 510.0466 
L 271.110702 510.068572 
L 269.037691 510.069814 
L 266.964771 510.050327 
L 264.892149 510.010112 
L 262.820033 509.949173 
L 260.748631 509.867516 
L 258.678148 509.765149 
L 256.608792 509.642083 
L 254.540771 509.49833 
L 252.47429 509.333905 
L 250.409557 509.148823 
L 248.346779 508.943103 
L 246.28616 508.716766 
L 244.227908 508.469835 
L 242.172228 508.202334 
L 240.119325 507.91429 
L 238.069406 507.605731 
L 236.022675 507.27669 
L 233.979336 506.927197 
L 231.939595 506.557289 
L 229.903654 506.167003 
L 227.871718 505.756376 
L 225.84399 505.325452 
L 223.820672 504.874272 
L 221.801968 504.402882 
L 219.788078 503.911328 
L 217.779204 503.399661 
L 215.775547 502.867931 
L 213.777308 502.316191 
L 211.784686 501.744496 
L 211.546224 501.674633 
L 210.956287 503.683773 
L 211.197158 503.754342 
L 213.209907 504.331811 
L 215.228331 504.889124 
L 217.252227 505.426225 
L 219.281392 505.943061 
L 221.315624 506.43958 
L 223.35472 506.915731 
L 225.398475 507.371469 
L 227.446685 507.806746 
L 229.499146 508.22152 
L 231.555652 508.615749 
L 233.615997 508.989393 
L 235.679975 509.342416 
L 237.74738 509.674781 
L 239.818006 509.986457 
L 241.891645 510.27741 
L 243.968089 510.547613 
L 246.047132 510.797039 
L 248.128565 511.025662 
L 250.21218 511.23346 
L 252.297769 511.420411 
L 254.385123 511.586497 
L 256.474033 511.731702 
L 258.564291 511.856011 
L 260.655688 511.959412 
L 262.748014 512.041894 
L 264.84106 512.103448 
L 266.934617 512.14407 
L 269.028476 512.163754 
L 271.122427 512.162499 
L 273.21626 512.140305 
L 275.309767 512.097174 
L 277.402738 512.033111 
L 279.494964 511.948121 
L 281.586235 511.842214 
L 283.676343 511.715399 
L 285.765078 511.56769 
L 287.852231 511.399102 
L 289.937594 511.209651 
L 292.020959 510.999356 
L 294.102116 510.768238 
L 296.180859 510.516321 
L 298.256978 510.243629 
L 300.330266 509.95019 
L 302.400517 509.636033 
L 304.467522 509.301189 
L 306.531076 508.945693 
L 308.590971 508.569579 
L 310.647003 508.172885 
L 312.698965 507.755652 
L 314.746652 507.317919 
L 316.789859 506.859733 
L 318.828383 506.381137 
L 320.862018 505.88218 
L 322.890563 505.362913 
L 324.913813 504.823386 
L 326.931567 504.263654 
L 328.943623 503.683773 
L 328.353687 501.674633 
z
" clip-path="url(#p451917b65c)" style="fill: none; stroke: #000000; stroke-width: 0.5; stroke-linejoin: miter"/>
   </g>
   <g id="patch_13">
    <path d="M 211.546224 501.674633 
L 209.560129 501.08066 
L 207.580072 500.466856 
L 205.606253 499.833283 
L 203.638868 499.180004 
L 201.678114 498.507084 
L 199.724188 497.81459 
L 197.777283 497.102592 
L 195.837596 496.37116 
L 193.905321 495.620369 
L 191.980649 494.850293 
L 190.063774 494.061009 
L 188.154888 493.252596 
L 186.254182 492.425135 
L 184.361845 491.578708 
L 182.478066 490.713401 
L 180.603035 489.8293 
L 178.736939 488.926493 
L 176.879963 488.00507 
L 175.032295 487.065124 
L 173.194118 486.106748 
L 171.365617 485.130039 
L 169.546974 484.135094 
L 167.738371 483.122013 
L 165.939989 482.090897 
L 164.152009 481.041848 
L 162.374608 479.974973 
L 160.607964 478.890377 
L 158.852255 477.78817 
L 157.874015 477.163356 
L 156.741935 478.924908 
L 157.730056 479.556032 
L 159.503499 480.669373 
L 161.287988 481.764924 
L 163.083343 482.842576 
L 164.889384 483.902221 
L 166.705931 484.943753 
L 168.532802 485.967067 
L 170.369815 486.972062 
L 172.216786 487.958637 
L 174.07353 488.926693 
L 175.939862 489.876133 
L 177.815595 490.806863 
L 179.700541 491.71879 
L 181.594512 492.611822 
L 183.497318 493.485869 
L 185.40877 494.340845 
L 187.328676 495.176665 
L 189.256843 495.993244 
L 191.19308 496.7905 
L 193.137193 497.568355 
L 195.088987 498.32673 
L 197.048267 499.065549 
L 199.014836 499.784739 
L 200.9885 500.484228 
L 202.969059 501.163945 
L 204.956317 501.823824 
L 206.950074 502.463796 
L 208.95013 503.0838 
L 210.956287 503.683773 
L 211.546224 501.674633 
z
" clip-path="url(#p451917b65c)" style="fill: none; stroke: #000000; stroke-width: 0.5; stroke-linejoin: miter"/>
   </g>
   <g id="patch_14">
    <path d="M 157.874015 477.163356 
L 156.135712 476.033896 
L 154.408791 474.88711 
L 152.693423 473.723111 
L 150.989781 472.542018 
L 149.298035 471.343948 
L 147.618354 470.12902 
L 145.950907 468.897356 
L 144.295859 467.64908 
L 142.653376 466.384316 
L 141.023623 465.103191 
L 139.406762 463.805833 
L 137.802955 462.492371 
L 136.212363 461.162937 
L 134.635145 459.817663 
L 133.071458 458.456686 
L 131.521459 457.080139 
L 129.985303 455.688162 
L 128.463143 454.280893 
L 126.955131 452.858473 
L 125.461419 451.421044 
L 123.982156 449.96875 
L 122.517489 448.501737 
L 121.067565 447.02015 
L 119.63253 445.524138 
L 118.212526 444.013852 
L 116.807696 442.48944 
L 115.41818 440.951057 
L 114.044116 439.398856 
L 113.281533 438.523751 
L 111.699024 439.895003 
L 112.46931 440.778948 
L 113.857252 442.346828 
L 115.260804 443.90075 
L 116.679825 445.440559 
L 118.114172 446.966101 
L 119.563703 448.477224 
L 121.028272 449.973776 
L 122.507733 451.455608 
L 124.001939 452.922572 
L 125.510739 454.37452 
L 127.033983 455.811308 
L 128.571518 457.232792 
L 130.123192 458.638829 
L 131.688847 460.02928 
L 133.268329 461.404006 
L 134.861479 462.762867 
L 136.468137 464.10573 
L 138.088144 465.432459 
L 139.721336 466.742922 
L 141.367552 468.036988 
L 143.026625 469.314528 
L 144.698391 470.575413 
L 146.382682 471.819517 
L 148.079329 473.046717 
L 149.788164 474.256889 
L 151.509014 475.449913 
L 153.241708 476.625668 
L 154.986074 477.784039 
L 156.741935 478.924908 
L 157.874015 477.163356 
z
" clip-path="url(#p451917b65c)" style="fill: none; stroke: #000000; stroke-width: 0.5; stroke-linejoin: miter"/>
   </g>
   <g id="patch_15">
    <path d="M 113.281533 438.523751 
L 111.931849 436.950305 
L 110.597967 435.363441 
L 109.28002 433.763318 
L 107.97814 432.150096 
L 106.692457 430.523936 
L 105.4231 428.885 
L 104.170195 427.233454 
L 102.933868 425.56946 
L 101.714243 423.893187 
L 100.511441 422.204802 
L 99.325582 420.504474 
L 98.156786 418.792372 
L 97.005169 417.068668 
L 95.870847 415.333534 
L 94.753932 413.587143 
L 93.654537 411.829672 
L 92.572771 410.061294 
L 91.508742 408.282187 
L 90.462558 406.492529 
L 89.434322 404.692499 
L 88.424138 402.882277 
L 87.432106 401.062043 
L 86.458325 399.23198 
L 85.502894 397.392272 
L 84.565907 395.543101 
L 83.647459 393.684652 
L 82.74764 391.817113 
L 81.866542 389.940669 
L 81.004252 388.055507 
L 80.160856 386.161817 
L 79.336439 384.259789 
L 78.531083 382.349611 
L 77.744869 380.431475 
L 76.977876 378.505573 
L 76.230179 376.572098 
L 75.501854 374.631242 
L 74.792974 372.6832 
L 74.103609 370.728168 
L 73.433829 368.766339 
L 72.7837 366.79791 
L 72.153288 364.823079 
L 71.542655 362.842043 
L 70.951863 360.855 
L 70.38097 358.862148 
L 69.830034 356.863686 
L 69.29911 354.859816 
L 68.788251 352.850736 
L 68.297508 350.836649 
L 67.82693 348.817755 
L 67.376564 346.794256 
L 66.946455 344.766354 
L 66.536647 342.734253 
L 66.147179 340.698156 
L 65.778092 338.658266 
L 65.429422 336.614787 
L 65.101203 334.567923 
L 64.79347 332.51788 
L 64.757959 332.271945 
L 62.685313 332.569947 
L 62.721182 332.818366 
L 63.032024 334.889117 
L 63.363558 336.956655 
L 63.71575 339.020776 
L 64.088565 341.081271 
L 64.481967 343.137935 
L 64.895915 345.190562 
L 65.330368 347.238947 
L 65.785283 349.282886 
L 66.260615 351.322173 
L 66.756315 353.356605 
L 67.272334 355.385978 
L 67.808621 357.410089 
L 68.365122 359.428737 
L 68.941781 361.441719 
L 69.538541 363.448834 
L 70.155342 365.44988 
L 70.792122 367.444659 
L 71.448817 369.432971 
L 72.125363 371.414616 
L 72.821691 373.389397 
L 73.537732 375.357115 
L 74.273413 377.317576 
L 75.028663 379.270581 
L 75.803404 381.215936 
L 76.597559 383.153447 
L 77.41105 385.08292 
L 78.243795 387.004161 
L 79.095709 388.916979 
L 79.96671 390.821182 
L 80.856708 392.716581 
L 81.765615 394.602984 
L 82.693341 396.480205 
L 83.639793 398.348054 
L 84.604875 400.206346 
L 85.588491 402.054894 
L 86.590544 403.893514 
L 87.610932 405.722021 
L 88.649554 407.540233 
L 89.706306 409.347969 
L 90.781082 411.145046 
L 91.873775 412.931287 
L 92.984275 414.706511 
L 94.112472 416.470541 
L 95.258252 418.223202 
L 96.421502 419.964317 
L 97.602104 421.693713 
L 98.799941 423.411217 
L 100.014892 425.116656 
L 101.246837 426.809861 
L 102.495652 428.490662 
L 103.761213 430.158891 
L 105.043392 431.814382 
L 106.342061 433.456968 
L 107.657092 435.086485 
L 108.988351 436.702771 
L 110.335707 438.305664 
L 111.699024 439.895003 
L 113.281533 438.523751 
z
" clip-path="url(#p451917b65c)" style="fill: none; stroke: #000000; stroke-width: 0.5; stroke-linejoin: miter"/>
   </g>
   <g id="patch_16">
    <path d="M 64.757959 332.271945 
L 64.473202 330.218584 
L 64.208992 328.162478 
L 63.965357 326.103833 
L 63.742319 324.042855 
L 63.539903 321.979749 
L 63.358127 319.914723 
L 63.19701 317.847982 
L 63.056568 315.779733 
L 62.936815 313.710183 
L 62.837764 311.639539 
L 62.759423 309.568008 
L 62.701801 307.495797 
L 62.664904 305.423114 
L 62.648736 303.350166 
L 62.653297 301.277159 
L 62.678588 299.204301 
L 62.724606 297.131801 
L 62.791346 295.059864 
L 62.878802 292.988697 
L 62.986964 290.918509 
L 63.115823 288.849507 
L 63.265365 286.781896 
L 63.435576 284.715884 
L 63.626438 282.651677 
L 63.837931 280.589482 
L 64.070036 278.529505 
L 64.322729 276.471952 
L 64.595984 274.417029 
L 64.889775 272.364941 
L 65.204071 270.315894 
L 65.538842 268.270092 
L 65.894054 266.22774 
L 66.269671 264.189042 
L 66.665656 262.154202 
L 67.081969 260.123424 
L 67.518569 258.09691 
L 67.975412 256.074863 
L 68.452452 254.057486 
L 68.949641 252.044981 
L 69.466931 250.037547 
L 70.004269 248.035387 
L 70.561601 246.0387 
L 71.138872 244.047686 
L 71.736023 242.062545 
L 72.352996 240.083474 
L 72.989729 238.110671 
L 73.646157 236.144335 
L 74.322216 234.184661 
L 75.017837 232.231845 
L 75.732951 230.286083 
L 76.467487 228.34757 
L 77.221371 226.416499 
L 77.994527 224.493062 
L 78.786879 222.577454 
L 79.598347 220.669865 
L 80.42885 218.770485 
L 81.278305 216.879506 
L 82.146627 214.997115 
L 83.033729 213.123502 
L 83.939523 211.258853 
L 84.863918 209.403355 
L 85.806821 207.557194 
L 86.768138 205.720554 
L 87.747773 203.893619 
L 88.745628 202.076571 
L 89.761604 200.269592 
L 90.795598 198.472864 
L 91.847508 196.686565 
L 92.917227 194.910874 
L 94.00465 193.14597 
L 95.109667 191.392027 
L 96.232168 189.649222 
L 97.372041 187.917729 
L 98.529171 186.197721 
L 99.703443 184.489371 
L 100.89474 182.792848 
L 102.102942 181.108323 
L 103.327929 179.435963 
L 104.569578 177.775938 
L 105.827764 176.128411 
L 107.102363 174.493549 
L 108.393246 172.871513 
L 109.700285 171.262468 
L 111.023349 169.666573 
L 112.362305 168.083989 
L 113.71702 166.514873 
L 115.087358 164.959382 
L 116.473182 163.417673 
L 117.874354 161.889898 
L 119.290733 160.376211 
L 120.722178 158.876764 
L 122.168546 157.391706 
L 123.629691 155.921185 
L 125.105469 154.465349 
L 126.595731 153.024343 
L 128.100328 151.598312 
L 129.61911 150.187398 
L 131.151925 148.791742 
L 132.698619 147.411484 
L 134.259039 146.046761 
L 135.833028 144.697711 
L 137.420428 143.364467 
L 139.021081 142.047164 
L 140.634827 140.745934 
L 142.261504 139.460905 
L 143.90095 138.192207 
L 145.553001 136.939967 
L 147.217491 135.704309 
L 148.894255 134.485359 
L 150.583124 133.283236 
L 152.283929 132.098062 
L 153.996502 130.929955 
L 155.720669 129.779031 
L 157.456259 128.645407 
L 159.203098 127.529195 
L 160.961013 126.430507 
L 162.729825 125.349452 
L 164.50936 124.28614 
L 166.299439 123.240676 
L 168.099883 122.213164 
L 169.910511 121.203708 
L 171.731144 120.212408 
L 173.561598 119.239365 
L 175.401691 118.284673 
L 177.251239 117.348431 
L 179.110056 116.43073 
L 180.977958 115.531663 
L 182.854757 114.65132 
L 184.740265 113.789788 
L 186.634294 112.947154 
L 188.536654 112.123503 
L 190.447156 111.318915 
L 192.365608 110.533473 
L 194.291818 109.767254 
L 196.225594 109.020336 
L 198.166743 108.292792 
L 200.115069 107.584695 
L 202.070379 106.896117 
L 204.032477 106.227126 
L 206.001167 105.57779 
L 207.976252 104.948172 
L 209.957534 104.338336 
L 211.546224 103.864947 
L 210.956287 101.855807 
L 209.351549 102.333978 
L 207.350255 102.949974 
L 205.35522 103.585951 
L 203.366644 104.241847 
L 201.384727 104.917595 
L 199.409666 105.613129 
L 197.44166 106.328378 
L 195.480904 107.06327 
L 193.527594 107.817734 
L 191.581927 108.591692 
L 189.644097 109.385068 
L 187.714297 110.197783 
L 185.792721 111.029754 
L 183.879561 111.880899 
L 181.975007 112.751133 
L 180.079251 113.640369 
L 178.192482 114.548517 
L 176.314888 115.475488 
L 174.446658 116.421187 
L 172.587978 117.385522 
L 170.739034 118.368395 
L 168.900012 119.369707 
L 167.071094 120.38936 
L 165.252464 121.42725 
L 163.444304 122.483275 
L 161.646794 123.557328 
L 159.860114 124.649302 
L 158.084443 125.759088 
L 156.319959 126.886575 
L 154.566838 128.03165 
L 152.825255 129.194199 
L 151.095384 130.374105 
L 149.377398 131.57125 
L 147.67147 132.785516 
L 145.977769 134.016779 
L 144.296466 135.264918 
L 142.627728 136.529807 
L 140.971722 137.81132 
L 139.328613 139.109329 
L 137.698567 140.423704 
L 136.081746 141.754313 
L 134.478311 143.101023 
L 132.888424 144.4637 
L 131.312242 145.842208 
L 129.749924 147.236408 
L 128.201626 148.646162 
L 126.667503 150.071328 
L 125.147708 151.511763 
L 123.642393 152.967324 
L 122.151709 154.437866 
L 120.675804 155.92324 
L 119.214827 157.423299 
L 117.768923 158.937892 
L 116.338237 160.466869 
L 114.922912 162.010076 
L 113.523089 163.567358 
L 112.138909 165.138561 
L 110.770511 166.723526 
L 109.41803 168.322097 
L 108.081602 169.934111 
L 106.76136 171.55941 
L 105.457438 173.197829 
L 104.169964 174.849205 
L 102.899069 176.513373 
L 101.644878 178.190167 
L 100.407518 179.879419 
L 99.187112 181.580959 
L 97.983782 183.294619 
L 96.797648 185.020226 
L 95.628829 186.757607 
L 94.477443 188.50659 
L 93.343604 190.266999 
L 92.227425 192.038658 
L 91.129018 193.82139 
L 90.048493 195.615017 
L 88.985958 197.41936 
L 87.94152 199.234237 
L 86.915282 201.059468 
L 85.907347 202.894869 
L 84.917816 204.740259 
L 83.946789 206.595451 
L 82.994362 208.46026 
L 82.06063 210.3345 
L 81.145687 212.217984 
L 80.249624 214.110523 
L 79.372531 216.011927 
L 78.514496 217.922007 
L 77.675604 219.840573 
L 76.855939 221.76743 
L 76.055583 223.702388 
L 75.274617 225.645253 
L 74.513118 227.59583 
L 73.771163 229.553925 
L 73.048826 231.519341 
L 72.346178 233.491882 
L 71.66329 235.47135 
L 71.000232 237.457549 
L 70.357067 239.450279 
L 69.733862 241.44934 
L 69.130679 243.454534 
L 68.547577 245.465659 
L 67.984615 247.482514 
L 67.44185 249.504898 
L 66.919335 251.532609 
L 66.417123 253.565443 
L 65.935265 255.603198 
L 65.473807 257.645669 
L 65.032797 259.692652 
L 64.612279 261.743944 
L 64.212294 263.799337 
L 63.832883 265.858628 
L 63.474083 267.92161 
L 63.135931 269.988077 
L 62.81846 272.057822 
L 62.521702 274.130638 
L 62.245686 276.206318 
L 61.990441 278.284654 
L 61.755992 280.365439 
L 61.542362 282.448464 
L 61.349572 284.533521 
L 61.177642 286.620402 
L 61.02659 288.708898 
L 60.896429 290.7988 
L 60.787174 292.889899 
L 60.698835 294.981985 
L 60.63142 297.074851 
L 60.584938 299.168286 
L 60.559391 301.262082 
L 60.554784 303.356028 
L 60.571116 305.449915 
L 60.608386 307.543535 
L 60.666589 309.636677 
L 60.745721 311.729132 
L 60.845773 313.820692 
L 60.966736 315.911146 
L 61.108596 318.000287 
L 61.27134 320.087904 
L 61.454952 322.173789 
L 61.659414 324.257735 
L 61.884704 326.339531 
L 62.130801 328.41897 
L 62.397679 330.495845 
L 62.685313 332.569947 
L 64.757959 332.271945 
z
" clip-path="url(#p451917b65c)" style="fill: none; stroke: #000000; stroke-width: 0.5; stroke-linejoin: miter"/>
   </g>
   <g id="patch_17">
    <path d="M 211.546224 103.864947 
L 213.538159 103.290864 
L 215.535736 102.73673 
L 217.538754 102.202598 
L 219.547013 101.688523 
L 221.560312 101.194556 
L 223.57845 100.720746 
L 225.601226 100.267141 
L 227.628436 99.833787 
L 229.659878 99.420725 
L 231.695349 99.027998 
L 233.734646 98.655646 
L 235.777564 98.303704 
L 237.823899 97.972209 
L 239.873447 97.661194 
L 241.926003 97.370689 
L 243.981361 97.100724 
L 246.039316 96.851326 
L 248.099662 96.622519 
L 250.162192 96.414327 
L 252.226702 96.226771 
L 254.292984 96.059868 
L 256.360832 95.913637 
L 258.430038 95.78809 
L 260.500397 95.683242 
L 262.5717 95.599102 
L 264.643741 95.535679 
L 266.716313 95.49298 
L 268.789208 95.471008 
L 269.949955 95.467758 
L 269.949955 93.373798 
L 268.777484 93.377081 
L 266.68365 93.399275 
L 264.590143 93.442406 
L 262.497172 93.506469 
L 260.404946 93.591459 
L 258.313675 93.697366 
L 256.223568 93.82418 
L 254.134833 93.971889 
L 252.047679 94.140478 
L 249.962316 94.329929 
L 247.878952 94.540224 
L 245.797794 94.771342 
L 243.719052 95.023259 
L 241.642933 95.295951 
L 239.569644 95.58939 
L 237.499394 95.903547 
L 235.432388 96.23839 
L 233.368835 96.593887 
L 231.308939 96.970001 
L 229.252907 97.366694 
L 227.200946 97.783928 
L 225.153259 98.22166 
L 223.110051 98.679847 
L 221.071528 99.158443 
L 219.037892 99.657399 
L 217.009348 100.176667 
L 214.986097 100.716194 
L 212.968343 101.275926 
L 210.956287 101.855807 
L 211.546224 103.864947 
z
" clip-path="url(#p451917b65c)" style="fill: none; stroke: #000000; stroke-width: 0.5; stroke-linejoin: miter"/>
   </g>
   <g id="text_1">
    <text style="font: 3px 'DejaVu Sans', 'Bitstream Vera Sans', 'Computer Modern Sans Serif', 'Lucida Grande', 'Verdana', 'Geneva', 'Lucid', 'Arial', 'Helvetica', 'Avant Garde', sans-serif; text-anchor: start" x="473.194187" y="244.279782" transform="rotate(-16.363636 473.194187 244.279782)">Kuwait University</text>
   </g>
   <g id="text_2">
    <text style="font: 3px 'DejaVu Sans', 'Bitstream Vera Sans', 'Computer Modern Sans Serif', 'Lucida Grande', 'Verdana', 'Geneva', 'Lucid', 'Arial', 'Helvetica', 'Avant Garde', sans-serif; text-anchor: start" x="356.769289" y="495.621292" transform="rotate(-294.545455 356.769289 495.621292)">Arab Open University</text>
   </g>
   <g id="text_3">
    <text style="font: 3px 'DejaVu Sans', 'Bitstream Vera Sans', 'Computer Modern Sans Serif', 'Lucida Grande', 'Verdana', 'Geneva', 'Lucid', 'Arial', 'Helvetica', 'Avant Garde', sans-serif; text-anchor: end" x="271.089721" y="514.259741" transform="rotate(-90 271.089721 514.259741)">Public Authority for Applied Education and Training</text>
   </g>
   <g id="text_4">
    <text style="font: 3px 'DejaVu Sans', 'Bitstream Vera Sans', 'Computer Modern Sans Serif', 'Lucida Grande', 'Verdana', 'Geneva', 'Lucid', 'Arial', 'Helvetica', 'Avant Garde', sans-serif; text-anchor: end" x="183.130621" y="495.621292" transform="rotate(-65.454545 183.130621 495.621292)">Ministry of Health</text>
   </g>
   <g id="text_5">
    <text style="font: 3px 'DejaVu Sans', 'Bitstream Vera Sans', 'Computer Modern Sans Serif', 'Lucida Grande', 'Verdana', 'Geneva', 'Lucid', 'Arial', 'Helvetica', 'Avant Garde', sans-serif; text-anchor: end" x="132.314868" y="463.349619" transform="rotate(-49.090909 132.314868 463.349619)">Amiri Hospital</text>
   </g>
   <g id="text_6">
    <text style="font: 3px 'DejaVu Sans', 'Bitstream Vera Sans', 'Computer Modern Sans Serif', 'Lucida Grande', 'Verdana', 'Geneva', 'Lucid', 'Arial', 'Helvetica', 'Avant Garde', sans-serif; text-anchor: end" x="78.045404" y="391.662658" transform="rotate(-24.545455 78.045404 391.662658)">American University of Kuwait</text>
   </g>
   <g id="text_7">
    <text style="font: 3px 'DejaVu Sans', 'Bitstream Vera Sans', 'Computer Modern Sans Serif', 'Lucida Grande', 'Verdana', 'Geneva', 'Lucid', 'Arial', 'Helvetica', 'Avant Garde', sans-serif; text-anchor: end" x="91.417082" y="189.388521" transform="rotate(-327.272727 91.417082 189.388521)">Gulf University for Science &amp; Technology</text>
   </g>
   <g id="text_8">
    <text style="font: 3px 'DejaVu Sans', 'Bitstream Vera Sans', 'Computer Modern Sans Serif', 'Lucida Grande', 'Verdana', 'Geneva', 'Lucid', 'Arial', 'Helvetica', 'Avant Garde', sans-serif; text-anchor: end" x="238.723632" y="93.594706" transform="rotate(-278.181818 238.723632 93.594706)">Kuwait Institute for Scientific Research</text>
   </g>
  </g>
 </g>
 <defs>
  <clipPath id="p451917b65c">
   <path d="M 489.815747 302.76979 
C 489.815747 273.897279 484.128491 245.305516 473.07946 218.630794 
C 462.030428 191.956072 445.834496 167.717146 425.418547 147.301198 
C 405.002599 126.885249 380.763673 110.689317 354.088951 99.640285 
C 327.414229 88.591254 298.822466 82.903998 269.949955 82.903998 
C 241.077444 82.903998 212.485682 88.591254 185.81096 99.640285 
C 159.136237 110.689317 134.897312 126.885249 114.481363 147.301198 
C 94.065415 167.717146 77.869482 191.956072 66.820451 218.630794 
C 55.771419 245.305516 50.084164 273.897279 50.084164 302.76979 
C 50.084164 331.642301 55.771419 360.234063 66.820451 386.908785 
C 77.869482 413.583508 94.065415 437.822433 114.481363 458.238382 
C 134.897312 478.65433 159.136237 494.850263 185.81096 505.899294 
C 212.485682 516.948326 241.077444 522.635581 269.949955 522.635581 
C 298.822466 522.635581 327.414229 516.948326 354.088951 505.899294 
C 380.763673 494.850263 405.002599 478.65433 425.418547 458.238382 
C 445.834496 437.822433 462.030428 413.583508 473.07946 386.908785 
C 484.128491 360.234063 489.815747 331.642301 489.815747 302.76979 
M 269.949955 302.76979 
C 269.949955 302.76979 269.949955 302.76979 269.949955 302.76979 
C 269.949955 302.76979 269.949955 302.76979 269.949955 302.76979 
C 269.949955 302.76979 269.949955 302.76979 269.949955 302.76979 
C 269.949955 302.76979 269.949955 302.76979 269.949955 302.76979 
C 269.949955 302.76979 269.949955 302.76979 269.949955 302.76979 
C 269.949955 302.76979 269.949955 302.76979 269.949955 302.76979 
C 269.949955 302.76979 269.949955 302.76979 269.949955 302.76979 
C 269.949955 302.76979 269.949955 302.76979 269.949955 302.76979 
C 269.949955 302.76979 269.949955 302.76979 269.949955 302.76979 
C 269.949955 302.76979 269.949955 302.76979 269.949955 302.76979 
C 269.949955 302.76979 269.949955 302.76979 269.949955 302.76979 
C 269.949955 302.76979 269.949955 302.76979 269.949955 302.76979 
C 269.949955 302.76979 269.949955 302.76979 269.949955 302.76979 
C 269.949955 302.76979 269.949955 302.76979 269.949955 302.76979 
C 269.949955 302.76979 269.949955 302.76979 269.949955 302.76979 
C 269.949955 302.76979 269.949955 302.76979 269.949955 302.76979 
z
"/>
  </clipPath>
 </defs>
</svg>
