<?xml version="1.0" encoding="utf-8" standalone="no"?>
<!DOCTYPE svg PUBLIC "-//W3C//DTD SVG 1.1//EN"
  "http://www.w3.org/Graphics/SVG/1.1/DTD/svg11.dtd">
<svg xmlns:xlink="http://www.w3.org/1999/xlink" width="625.208583pt" height="611.710937pt" viewBox="0 0 625.208583 611.710937" xmlns="http://www.w3.org/2000/svg" version="1.1">
 <metadata>
  <rdf:RDF xmlns:dc="http://purl.org/dc/elements/1.1/" xmlns:cc="http://creativecommons.org/ns#" xmlns:rdf="http://www.w3.org/1999/02/22-rdf-syntax-ns#">
   <cc:Work>
    <dc:type rdf:resource="http://purl.org/dc/dcmitype/StillImage"/>
    <dc:date>2024-11-16T04:04:28.117197</dc:date>
    <dc:format>image/svg+xml</dc:format>
    <dc:creator>
     <cc:Agent>
      <dc:title>Matplotlib v3.8.4, https://matplotlib.org/</dc:title>
     </cc:Agent>
    </dc:creator>
   </cc:Work>
  </rdf:RDF>
 </metadata>
 <defs>
  <style type="text/css">*{stroke-linejoin: round; stroke-linecap: butt}</style>
 </defs>
 <g id="figure_1">
  <g id="patch_1">
   <path d="M 0 611.710937 
L 625.208583 611.710937 
L 625.208583 0 
L 0 0 
z
" style="fill: #ffffff"/>
  </g>
  <g id="axes_1">
   <g id="patch_2">
    <path d="M 323.953142 49.931958 
L 326.216411 49.943275 
L 328.479453 49.977223 
L 330.742043 50.033799 
L 333.003954 50.112999 
L 335.264961 50.214813 
L 337.524835 50.339231 
L 339.783353 50.486242 
L 342.040288 50.65583 
L 344.295414 50.847979 
L 346.548505 51.062669 
L 348.799338 51.299879 
L 351.047685 51.559584 
L 353.293324 51.84176 
L 355.536028 52.146378 
L 357.775574 52.473408 
L 360.011738 52.822816 
L 362.244295 53.194567 
L 364.473024 53.588626 
L 366.697701 54.004952 
L 368.918104 54.443503 
L 371.13401 54.904236 
L 373.345198 55.387104 
L 375.551446 55.89206 
L 377.752535 56.419053 
L 379.948244 56.96803 
L 382.138354 57.538937 
L 384.322645 58.131715 
L 386.5009 58.746307 
L 388.672899 59.38265 
L 390.838427 60.04068 
L 392.997266 60.720333 
L 395.149201 61.42154 
L 397.294016 62.14423 
L 399.431497 62.888333 
L 401.561431 63.653772 
L 403.683603 64.440473 
L 405.797803 65.248355 
L 407.903818 66.077339 
L 410.001439 66.927341 
L 412.090454 67.798276 
L 414.170656 68.690057 
L 416.241836 69.602596 
L 418.303788 70.535801 
L 420.356304 71.489578 
L 422.39918 72.463832 
L 424.432212 73.458465 
L 426.455196 74.47338 
L 428.46793 75.508472 
L 430.470212 76.56364 
L 432.461843 77.638778 
L 434.442623 78.733778 
L 436.412354 79.848531 
L 438.370839 80.982925 
L 440.317883 82.136847 
L 442.25329 83.310181 
L 444.176867 84.50281 
L 446.088422 85.714616 
L 447.987764 86.945475 
L 449.874702 88.195267 
L 451.749048 89.463865 
L 453.610615 90.751142 
L 455.459216 92.056971 
L 457.294667 93.38122 
L 459.116783 94.723757 
L 460.925383 96.084448 
L 462.720287 97.463156 
L 464.501313 98.859744 
L 466.268285 100.274073 
L 468.021026 101.706 
L 469.759359 103.155382 
L 471.483113 104.622075 
L 473.192113 106.105932 
L 474.88619 107.606805 
L 476.565173 109.124543 
L 478.228896 110.658995 
L 479.877191 112.210007 
L 481.509893 113.777424 
L 483.12684 115.361089 
L 484.72787 116.960845 
L 486.312823 118.57653 
L 487.88154 120.207984 
L 489.433864 121.855044 
L 490.96964 123.517544 
L 492.488714 125.195318 
L 493.990935 126.888199 
L 495.476153 128.596017 
L 496.944218 130.318602 
L 498.394985 132.055781 
L 499.828307 133.807381 
L 501.244042 135.573226 
L 502.642048 137.353139 
L 504.022185 139.146944 
L 505.384316 140.95446 
L 506.728304 142.775507 
L 508.054014 144.609903 
L 509.361314 146.457463 
L 510.650074 148.318004 
L 511.920164 150.19134 
L 513.171457 152.077282 
L 514.403829 153.975643 
L 515.617156 155.886232 
L 516.811317 157.808859 
L 517.986192 159.743332 
L 519.141664 161.689456 
L 520.277617 163.647037 
L 521.393938 165.61588 
L 522.490515 167.595787 
L 523.567239 169.586561 
L 524.624001 171.588002 
L 525.660696 173.599911 
L 526.677221 175.622086 
L 527.673473 177.654325 
L 528.649354 179.696425 
L 529.604765 181.748181 
L 530.539611 183.809389 
L 531.453799 185.879842 
L 532.347237 187.959333 
L 533.219835 190.047654 
L 534.071507 192.144597 
L 534.902168 194.249951 
L 535.711734 196.363507 
L 536.500124 198.485053 
L 537.267259 200.614376 
L 538.013063 202.751264 
L 538.737462 204.895503 
L 539.440382 207.046879 
L 540.121754 209.205176 
L 540.781508 211.370179 
L 541.419581 213.541671 
L 542.035907 215.719435 
L 542.630424 217.903254 
L 543.203075 220.092908 
L 543.7538 222.288179 
L 544.282545 224.488848 
L 544.789258 226.694694 
L 545.273887 228.905497 
L 545.736385 231.121035 
L 546.176704 233.341088 
L 546.594801 235.565432 
L 546.990634 237.793847 
L 547.364164 240.026108 
L 547.715353 242.261992 
L 548.044165 244.501277 
L 548.350569 246.743738 
L 548.634533 248.989151 
L 548.896029 251.237291 
L 549.135031 253.487934 
L 549.351516 255.740854 
L 549.54546 257.995826 
L 549.716845 260.252625 
L 549.865655 262.511025 
L 549.991873 264.7708 
L 550.095487 267.031724 
L 550.176488 269.293572 
L 550.234866 271.556116 
L 550.270616 273.819131 
L 550.283735 276.08239 
L 550.283807 276.262623 
L 552.569975 276.262623 
L 552.569903 276.080569 
L 552.556651 273.794449 
L 552.52054 271.508575 
L 552.461572 269.223177 
L 552.379753 266.938483 
L 552.275092 264.654721 
L 552.147599 262.37212 
L 551.997287 260.090908 
L 551.82417 257.811313 
L 551.628267 255.533563 
L 551.409596 253.257886 
L 551.16818 250.98451 
L 550.904042 248.713661 
L 550.61721 246.445568 
L 550.307711 244.180456 
L 549.975577 241.918552 
L 549.620841 239.660082 
L 549.243538 237.405273 
L 548.843707 235.154349 
L 548.421387 232.907537 
L 547.97662 230.665059 
L 547.509451 228.427142 
L 547.019926 226.194008 
L 546.508095 223.96588 
L 545.974009 221.742983 
L 545.41772 219.525537 
L 544.839286 217.313765 
L 544.238763 215.107888 
L 543.616211 212.908126 
L 542.971694 210.7147 
L 542.305275 208.527828 
L 541.617021 206.34773 
L 540.907 204.174623 
L 540.175285 202.008725 
L 539.421947 199.850252 
L 538.647063 197.699421 
L 537.850709 195.556445 
L 537.032966 193.421541 
L 536.193915 191.29492 
L 535.33364 189.176796 
L 534.452228 187.06738 
L 533.549765 184.966884 
L 532.626343 182.875518 
L 531.682054 180.79349 
L 530.716992 178.721009 
L 529.731255 176.658282 
L 528.724939 174.605515 
L 527.698146 172.562914 
L 526.650979 170.530683 
L 525.583543 168.509025 
L 524.495943 166.498142 
L 523.38829 164.498236 
L 522.260693 162.509506 
L 521.113265 160.532151 
L 519.946122 158.566369 
L 518.759379 156.612357 
L 517.553156 154.670309 
L 516.327574 152.740421 
L 515.082754 150.822885 
L 513.818821 148.917892 
L 512.535901 147.025634 
L 511.234124 145.1463 
L 509.913619 143.280077 
L 508.574517 141.427152 
L 507.216954 139.587711 
L 505.841065 137.761937 
L 504.446987 135.950013 
L 503.034859 134.152121 
L 501.604824 132.368439 
L 500.157024 130.599146 
L 498.691603 128.84442 
L 497.208709 127.104435 
L 495.708489 125.379366 
L 494.191094 123.669385 
L 492.656675 121.974664 
L 491.105386 120.295371 
L 489.537382 118.631675 
L 487.95282 116.983741 
L 486.351857 115.351736 
L 484.734656 113.735821 
L 483.101376 112.136159 
L 481.452181 110.55291 
L 479.787237 108.986231 
L 478.106709 107.43628 
L 476.410766 105.903211 
L 474.699577 104.387178 
L 472.973314 102.888332 
L 471.232149 101.406824 
L 469.476257 99.942801 
L 467.705812 98.49641 
L 465.920992 97.067796 
L 464.121975 95.657101 
L 462.308941 94.264466 
L 460.482072 92.890031 
L 458.641551 91.533933 
L 456.78756 90.196308 
L 454.920286 88.877289 
L 453.039916 87.577008 
L 451.146637 86.295596 
L 449.240639 85.033181 
L 447.322112 83.789888 
L 445.391248 82.565843 
L 443.448241 81.361167 
L 441.493284 80.17598 
L 439.526573 79.010403 
L 437.548305 77.86455 
L 435.558678 76.738537 
L 433.55789 75.632477 
L 431.546142 74.546479 
L 429.523635 73.480653 
L 427.49057 72.435104 
L 425.447152 71.409939 
L 423.393585 70.405258 
L 421.330074 69.421163 
L 419.256825 68.457752 
L 417.174045 67.515121 
L 415.081944 66.593365 
L 412.98073 65.692575 
L 410.870613 64.812843 
L 408.751805 63.954255 
L 406.624517 63.116898 
L 404.488962 62.300855 
L 402.345353 61.506208 
L 400.193905 60.733037 
L 398.034833 59.981418 
L 395.868353 59.251428 
L 393.694681 58.543138 
L 391.514036 57.85662 
L 389.326634 57.191943 
L 387.132695 56.549172 
L 384.932438 55.928373 
L 382.726084 55.329607 
L 380.513852 54.752934 
L 378.295964 54.198411 
L 376.072641 53.666095 
L 373.844107 53.156039 
L 371.610584 52.668293 
L 369.372295 52.202906 
L 367.129464 51.759925 
L 364.882316 51.339394 
L 362.631075 50.941355 
L 360.375966 50.565848 
L 358.117215 50.21291 
L 355.855047 49.882578 
L 353.589689 49.574883 
L 351.321368 49.289857 
L 349.050309 49.027528 
L 346.776741 48.787922 
L 344.500891 48.571063 
L 342.222986 48.376974 
L 339.943254 48.205672 
L 337.661923 48.057177 
L 335.379221 47.931501 
L 333.095377 47.828659 
L 330.810618 47.74866 
L 328.525174 47.691512 
L 326.239272 47.657221 
L 323.953142 47.64579 
z
" clip-path="url(#pe830e1aa60)" style="fill: #000080"/>
   </g>
   <g id="patch_3">
    <path d="M 550.283807 276.262623 
L 550.27249 278.525892 
L 550.238542 280.788934 
L 550.181966 283.051524 
L 550.102766 285.313436 
L 550.000952 287.574442 
L 549.876534 289.834316 
L 549.729523 292.092834 
L 549.559935 294.349769 
L 549.367786 296.604895 
L 549.153096 298.857987 
L 548.915886 301.108819 
L 548.65618 303.357166 
L 548.374005 305.602805 
L 548.069387 307.845509 
L 547.742357 310.085055 
L 547.392949 312.321219 
L 547.021197 314.553776 
L 546.627139 316.782505 
L 546.210813 319.007182 
L 545.772262 321.227585 
L 545.311529 323.443491 
L 544.82866 325.654679 
L 544.323704 327.860927 
L 543.796712 330.062016 
L 543.247734 332.257726 
L 542.676828 334.447835 
L 542.08405 336.632126 
L 541.469458 338.810381 
L 540.833115 340.98238 
L 540.175085 343.147908 
L 539.495432 345.306747 
L 538.794225 347.458682 
L 538.071534 349.603497 
L 537.327432 351.740978 
L 536.561993 353.870912 
L 535.775292 355.993084 
L 534.96741 358.107284 
L 534.138426 360.213299 
L 533.288424 362.31092 
L 532.417489 364.399935 
L 531.525707 366.480137 
L 530.613169 368.551317 
L 529.679964 370.613269 
L 528.726187 372.665785 
L 527.751933 374.708661 
L 526.757299 376.741693 
L 525.742385 378.764677 
L 524.707292 380.777411 
L 523.652124 382.779693 
L 522.576987 384.771324 
L 521.481987 386.752104 
L 520.367234 388.721835 
L 519.23284 390.68032 
L 518.078918 392.627364 
L 516.905584 394.562771 
L 515.712954 396.486348 
L 514.501149 398.397903 
L 513.27029 400.297245 
L 512.020498 402.184183 
L 510.7519 404.058529 
L 509.464623 405.920096 
L 508.158794 407.768697 
L 506.834545 409.604148 
L 505.492008 411.426264 
L 504.131317 413.234864 
L 502.752609 415.029768 
L 501.356021 416.810794 
L 499.941692 418.577766 
L 498.509765 420.330507 
L 497.060383 422.06884 
L 495.593689 423.792594 
L 494.109832 425.501594 
L 492.60896 427.195671 
L 491.091222 428.874654 
L 489.55677 430.538377 
L 488.005758 432.186672 
L 486.438341 433.819374 
L 484.854676 435.436321 
L 483.99309 436.302571 
L 485.609655 437.919136 
L 486.479944 437.044137 
L 488.079606 435.410857 
L 489.662855 433.761662 
L 491.229534 432.096718 
L 492.779485 430.41619 
L 494.312554 428.720247 
L 495.828587 427.009058 
L 497.327432 425.282795 
L 498.808941 423.54163 
L 500.272963 421.785738 
L 501.719354 420.015293 
L 503.147969 418.230473 
L 504.558664 416.431456 
L 505.951299 414.618422 
L 507.325734 412.791554 
L 508.681832 410.951032 
L 510.019457 409.097041 
L 511.338476 407.229767 
L 512.638756 405.349397 
L 513.920168 403.456118 
L 515.182584 401.55012 
L 516.425877 399.631593 
L 517.649922 397.700729 
L 518.854598 395.757722 
L 520.039784 393.802765 
L 521.205362 391.836054 
L 522.351215 389.857787 
L 523.477227 387.868159 
L 524.583288 385.867371 
L 525.669286 383.855623 
L 526.735112 381.833116 
L 527.78066 379.800051 
L 528.805826 377.756633 
L 529.810507 375.703066 
L 530.794602 373.639555 
L 531.758013 371.566306 
L 532.700644 369.483526 
L 533.6224 367.391425 
L 534.523189 365.290211 
L 535.402922 363.180094 
L 536.26151 361.061286 
L 537.098867 358.933998 
L 537.91491 356.798443 
L 538.709557 354.654834 
L 539.482728 352.503386 
L 540.234346 350.344314 
L 540.964337 348.177834 
L 541.672627 346.004162 
L 542.359145 343.823517 
L 543.023822 341.636115 
L 543.666593 339.442176 
L 544.287392 337.241919 
L 544.886158 335.035565 
L 545.462831 332.823333 
L 546.017354 330.605445 
L 546.54967 328.382122 
L 547.059726 326.153588 
L 547.547472 323.920065 
L 548.012859 321.681776 
L 548.45584 319.438945 
L 548.876371 317.191797 
L 549.27441 314.940556 
L 549.649917 312.685447 
L 550.002854 310.426696 
L 550.333187 308.164528 
L 550.640882 305.89917 
L 550.925908 303.630849 
L 551.188237 301.35979 
L 551.427843 299.086223 
L 551.644702 296.810372 
L 551.838791 294.532467 
L 552.010092 292.252735 
L 552.158588 289.971404 
L 552.284264 287.688702 
L 552.387106 285.404858 
L 552.467105 283.120099 
L 552.524253 280.834655 
L 552.558544 278.548753 
L 552.569975 276.262623 
z
" clip-path="url(#pe830e1aa60)" style="fill: #004cff"/>
   </g>
   <g id="patch_4">
    <path d="M 483.99309 436.302571 
L 482.384715 437.894942 
L 480.760497 439.471149 
L 479.120599 441.031037 
L 477.465184 442.574447 
L 475.794418 444.101226 
L 474.108468 445.611222 
L 472.407502 447.104283 
L 470.691692 448.58026 
L 468.961207 450.039005 
L 467.216222 451.480372 
L 465.45691 452.904219 
L 463.683449 454.310401 
L 461.896014 455.698778 
L 460.094786 457.069212 
L 458.279943 458.421566 
L 456.451667 459.755703 
L 454.610142 461.071492 
L 452.755552 462.3688 
L 450.888081 463.647497 
L 449.007917 464.907456 
L 447.115247 466.148551 
L 445.210261 467.370657 
L 443.29315 468.573653 
L 441.364105 469.757418 
L 439.423319 470.921833 
L 437.470986 472.066783 
L 435.507301 473.192152 
L 433.532461 474.297829 
L 431.546663 475.383702 
L 429.550105 476.449663 
L 427.542989 477.495606 
L 425.525513 478.521426 
L 423.49788 479.52702 
L 421.460293 480.512287 
L 419.412955 481.47713 
L 417.356071 482.421452 
L 415.289847 483.345158 
L 413.214489 484.248155 
L 411.130205 485.130355 
L 409.037204 485.991668 
L 406.935695 486.832008 
L 404.825887 487.651291 
L 402.707992 488.449436 
L 400.582221 489.226362 
L 398.448788 489.981992 
L 396.307905 490.71625 
L 394.159787 491.429063 
L 392.004648 492.120359 
L 389.842704 492.79007 
L 387.674171 493.438129 
L 385.499266 494.06447 
L 383.318207 494.669031 
L 381.131211 495.251751 
L 378.938497 495.812573 
L 376.740285 496.35144 
L 374.536794 496.868298 
L 372.328245 497.363096 
L 370.114859 497.835784 
L 367.896856 498.286315 
L 365.674459 498.714644 
L 363.44789 499.120727 
L 361.217371 499.504526 
L 358.983126 499.866 
L 356.745378 500.205114 
L 354.504351 500.521833 
L 352.260268 500.816128 
L 350.013355 501.087966 
L 347.763836 501.337323 
L 345.511936 501.564172 
L 343.257881 501.768492 
L 341.001894 501.950261 
L 338.744203 502.109461 
L 336.485033 502.246077 
L 334.224609 502.360095 
L 331.963159 502.451503 
L 329.700907 502.520292 
L 327.438081 502.566456 
L 325.174906 502.58999 
L 322.911609 502.590891 
L 320.648416 502.56916 
L 318.385554 502.524798 
L 316.123248 502.45781 
L 313.861725 502.368203 
L 311.601212 502.255985 
L 309.341933 502.121168 
L 307.084116 501.963766 
L 304.827986 501.783793 
L 302.573768 501.581269 
L 300.321688 501.356213 
L 298.071971 501.108648 
L 295.824842 500.838598 
L 293.580526 500.546091 
L 291.339248 500.231156 
L 289.10123 499.893824 
L 286.866698 499.534129 
L 284.635875 499.152108 
L 282.408983 498.747797 
L 280.186245 498.321238 
L 277.967885 497.872474 
L 275.754122 497.401548 
L 273.54518 496.908509 
L 271.341278 496.393406 
L 269.142637 495.85629 
L 266.949478 495.297214 
L 264.762019 494.716235 
L 262.580478 494.113411 
L 260.405076 493.488803 
L 258.236027 492.842471 
L 256.073551 492.174482 
L 253.917862 491.484902 
L 251.769177 490.7738 
L 249.62771 490.041247 
L 247.493676 489.287316 
L 245.367287 488.512083 
L 243.248757 487.715625 
L 241.138298 486.898022 
L 239.036119 486.059356 
L 236.942433 485.19971 
L 234.857447 484.319171 
L 232.781371 483.417826 
L 230.714412 482.495766 
L 228.656777 481.553082 
L 226.608672 480.58987 
L 224.5703 479.606225 
L 222.541867 478.602246 
L 220.523575 477.578034 
L 218.515626 476.53369 
L 216.518221 475.469319 
L 214.531559 474.385027 
L 212.555839 473.280923 
L 210.591258 472.157118 
L 208.638014 471.013723 
L 206.696301 469.850854 
L 204.766314 468.668626 
L 202.848245 467.467157 
L 200.942287 466.246568 
L 199.04863 465.006981 
L 197.167463 463.74852 
L 195.298974 462.47131 
L 193.443351 461.175479 
L 191.600779 459.861157 
L 189.771442 458.528476 
L 187.955523 457.177568 
L 186.153203 455.808569 
L 184.364663 454.421615 
L 182.590083 453.016846 
L 180.829638 451.594401 
L 179.083506 450.154423 
L 177.35186 448.697057 
L 175.634874 447.222447 
L 173.93272 445.730741 
L 172.245568 444.222088 
L 170.573587 442.69664 
L 168.916944 441.154548 
L 167.275804 439.595968 
L 165.650331 438.021054 
L 164.040689 436.429964 
L 163.913194 436.302571 
L 162.296629 437.919136 
L 162.425412 438.047816 
L 164.051313 439.654977 
L 165.693204 441.245799 
L 167.350921 442.820123 
L 169.024299 444.377792 
L 170.713169 445.918649 
L 172.417363 447.44254 
L 174.13671 448.949314 
L 175.871039 450.438819 
L 177.620176 451.910906 
L 179.383946 453.365429 
L 181.162173 454.802242 
L 182.954679 456.221201 
L 184.761285 457.622164 
L 186.581809 459.004992 
L 188.416071 460.369545 
L 190.263886 461.715688 
L 192.12507 463.043286 
L 193.999437 464.352205 
L 195.886799 465.642316 
L 197.786968 466.91349 
L 199.699753 468.165598 
L 201.624964 469.398516 
L 203.562407 470.612121 
L 205.511889 471.806291 
L 207.473215 472.980906 
L 209.446189 474.13585 
L 211.430613 475.271007 
L 213.42629 476.386263 
L 215.43302 477.481507 
L 217.450601 478.55663 
L 219.478832 479.611523 
L 221.517511 480.646081 
L 223.566433 481.660201 
L 225.625394 482.653782 
L 227.694188 483.626723 
L 229.772607 484.578929 
L 231.860444 485.510303 
L 233.957491 486.420752 
L 236.063537 487.310186 
L 238.178372 488.178515 
L 240.301784 489.025652 
L 242.433561 489.851514 
L 244.573491 490.656017 
L 246.721358 491.439081 
L 248.876948 492.200627 
L 251.040046 492.940579 
L 253.210435 493.658864 
L 255.387898 494.35541 
L 257.572218 495.030146 
L 259.763176 495.683006 
L 261.960553 496.313924 
L 264.164129 496.922837 
L 266.373683 497.509685 
L 268.588996 498.074407 
L 270.809845 498.616949 
L 273.036008 499.137256 
L 275.267263 499.635275 
L 277.503387 500.110957 
L 279.744156 500.564255 
L 281.989345 500.995122 
L 284.238731 501.403516 
L 286.492088 501.789397 
L 288.749191 502.152725 
L 291.009814 502.493464 
L 293.273732 502.811581 
L 295.540718 503.107042 
L 297.810545 503.37982 
L 300.082986 503.629885 
L 302.357815 503.857215 
L 304.634802 504.061785 
L 306.913722 504.243575 
L 309.194345 504.402568 
L 311.476445 504.538746 
L 313.759792 504.652097 
L 316.044158 504.74261 
L 318.329315 504.810274 
L 320.615035 504.855084 
L 322.901088 504.877035 
L 325.187247 504.876125 
L 327.473282 504.852354 
L 329.758965 504.805724 
L 332.044068 504.736239 
L 334.328362 504.643908 
L 336.611618 504.528738 
L 338.893608 504.390742 
L 341.174104 504.229934 
L 343.452878 504.046329 
L 345.729702 503.839946 
L 348.004349 503.610805 
L 350.27659 503.35893 
L 352.546199 503.084345 
L 354.812949 502.787078 
L 357.076613 502.467159 
L 359.336964 502.12462 
L 361.593777 501.759494 
L 363.846826 501.371819 
L 366.095886 500.961634 
L 368.340732 500.528979 
L 370.581138 500.073897 
L 372.816883 499.596434 
L 375.04774 499.096638 
L 377.273489 498.574559 
L 379.493905 498.030249 
L 381.708767 497.463763 
L 383.917854 496.875156 
L 386.120944 496.264488 
L 388.317818 495.631821 
L 390.508255 494.977216 
L 392.692037 494.300741 
L 394.868945 493.602461 
L 397.038761 492.882448 
L 399.201269 492.140773 
L 401.356252 491.377511 
L 403.503495 490.592737 
L 405.642783 489.78653 
L 407.773902 488.958971 
L 409.896639 488.110143 
L 412.010782 487.24013 
L 414.116119 486.349019 
L 416.21244 485.4369 
L 418.299535 484.503864 
L 420.377195 483.550004 
L 422.445213 482.575415 
L 424.503382 481.580195 
L 426.551496 480.564444 
L 428.589351 479.528263 
L 430.616741 478.471755 
L 432.633466 477.395026 
L 434.639322 476.298184 
L 436.63411 475.181339 
L 438.61763 474.044603 
L 440.589684 472.888088 
L 442.550074 471.711911 
L 444.498605 470.516189 
L 446.435081 469.301042 
L 448.359309 468.066591 
L 450.271096 466.81296 
L 452.170252 465.540274 
L 454.056586 464.24866 
L 455.92991 462.938248 
L 457.790036 461.609169 
L 459.636779 460.261555 
L 461.469954 458.895541 
L 463.289377 457.511265 
L 465.094866 456.108863 
L 466.886241 454.688477 
L 468.663324 453.250249 
L 470.425935 451.794322 
L 472.173899 450.320842 
L 473.907041 448.829956 
L 475.625188 447.321814 
L 477.328168 445.796566 
L 479.015811 444.254364 
L 480.687947 442.695364 
L 482.34441 441.11972 
L 483.985034 439.527591 
L 485.609655 437.919136 
z
" clip-path="url(#pe830e1aa60)" style="fill: #29ffce"/>
   </g>
   <g id="patch_5">
    <path d="M 163.913194 436.302571 
L 162.320823 434.694196 
L 160.744615 433.069978 
L 159.184728 431.43008 
L 157.641318 429.774665 
L 156.114539 428.103899 
L 154.604543 426.417949 
L 153.111482 424.716983 
L 151.635505 423.001173 
L 150.17676 421.270688 
L 148.735392 419.525703 
L 147.311546 417.766392 
L 145.905364 415.99293 
L 144.516987 414.205495 
L 143.146553 412.404267 
L 141.794199 410.589424 
L 140.460061 408.761148 
L 139.144273 406.919623 
L 137.846965 405.065033 
L 136.568268 403.197562 
L 135.308309 401.317398 
L 134.067214 399.424728 
L 132.845107 397.519742 
L 131.642112 395.602631 
L 130.458347 393.673586 
L 129.293932 391.7328 
L 128.148982 389.780467 
L 127.023613 387.816782 
L 125.917936 385.841942 
L 124.832063 383.856144 
L 123.766102 381.859586 
L 122.720159 379.85247 
L 121.694339 377.834994 
L 120.688745 375.807361 
L 119.703478 373.769774 
L 118.738635 371.722436 
L 117.794313 369.665552 
L 116.870607 367.599328 
L 115.967609 365.52397 
L 115.08541 363.439687 
L 114.224097 361.346685 
L 113.383757 359.245176 
L 112.564474 357.135368 
L 111.766329 355.017473 
L 110.989403 352.891702 
L 110.233773 350.758269 
L 109.499515 348.617386 
L 108.786702 346.469268 
L 108.095406 344.314129 
L 107.425695 342.152185 
L 106.777636 339.983652 
L 106.151295 337.808747 
L 105.546734 335.627688 
L 104.964014 333.440692 
L 104.403192 331.247978 
L 103.864325 329.049766 
L 103.347467 326.846275 
L 102.852669 324.637726 
L 102.379981 322.42434 
L 101.92945 320.206337 
L 101.501121 317.98394 
L 101.095037 315.757371 
L 100.711239 313.526852 
L 100.349765 311.292607 
L 100.010651 309.054859 
L 99.693931 306.813832 
L 99.399637 304.569749 
L 99.127798 302.322837 
L 98.878442 300.073318 
L 98.651592 297.821418 
L 98.447273 295.567362 
L 98.265504 293.311375 
L 98.106304 291.053684 
L 97.969688 288.794514 
L 97.85567 286.53409 
L 97.764262 284.27264 
L 97.695472 282.010388 
L 97.649308 279.747562 
L 97.625775 277.484387 
L 97.622477 276.262623 
L 95.336309 276.262623 
L 95.33964 277.496728 
L 95.363411 279.782763 
L 95.410041 282.068446 
L 95.479526 284.353549 
L 95.571857 286.637843 
L 95.687027 288.921099 
L 95.825022 291.203089 
L 95.985831 293.483585 
L 96.169436 295.762359 
L 96.375819 298.039183 
L 96.60496 300.31383 
L 96.856835 302.586071 
L 97.13142 304.85568 
L 97.428687 307.12243 
L 97.748606 309.386094 
L 98.091145 311.646445 
L 98.456271 313.903258 
L 98.843945 316.156307 
L 99.254131 318.405367 
L 99.686786 320.650213 
L 100.141868 322.89062 
L 100.619331 325.126364 
L 101.119127 327.357221 
L 101.641206 329.58297 
L 102.185516 331.803386 
L 102.752002 334.018248 
L 103.340609 336.227335 
L 103.951277 338.430425 
L 104.583944 340.627299 
L 105.238549 342.817736 
L 105.915024 345.001518 
L 106.613304 347.178426 
L 107.333317 349.348242 
L 108.074992 351.51075 
L 108.838254 353.665733 
L 109.623028 355.812976 
L 110.429235 357.952264 
L 111.256794 360.083383 
L 112.105622 362.20612 
L 112.975635 364.320263 
L 113.866745 366.4256 
L 114.778864 368.521921 
L 115.711901 370.609016 
L 116.665761 372.686676 
L 117.64035 374.754694 
L 118.635569 376.812863 
L 119.651321 378.860977 
L 120.687502 380.898832 
L 121.74401 382.926222 
L 122.820739 384.942947 
L 123.91758 386.948803 
L 125.034425 388.943591 
L 126.171162 390.927111 
L 127.327677 392.899165 
L 128.503854 394.859555 
L 129.699576 396.808086 
L 130.914723 398.744562 
L 132.149174 400.66879 
L 133.402805 402.580577 
L 134.675491 404.479733 
L 135.967105 406.366067 
L 137.277517 408.239391 
L 138.606596 410.099517 
L 139.95421 411.94626 
L 141.320224 413.779435 
L 142.7045 415.598858 
L 144.106902 417.404347 
L 145.527288 419.195723 
L 146.965516 420.972805 
L 148.421443 422.735416 
L 149.894923 424.48338 
L 151.385809 426.216522 
L 152.893951 427.934669 
L 154.419199 429.637649 
L 155.961401 431.325292 
L 157.520401 432.997428 
L 159.096044 434.653891 
L 160.688173 436.294515 
L 162.296629 437.919136 
z
" clip-path="url(#pe830e1aa60)" style="fill: #ceff29"/>
   </g>
   <g id="patch_6">
    <path d="M 97.622477 276.262623 
L 97.633794 273.999354 
L 97.667742 271.736311 
L 97.724318 269.473721 
L 97.803517 267.21181 
L 97.905331 264.950804 
L 98.02975 262.690929 
L 98.176761 260.432412 
L 98.346349 258.175477 
L 98.538498 255.920351 
L 98.753188 253.667259 
L 98.990397 251.416427 
L 99.250103 249.168079 
L 99.532279 246.922441 
L 99.836897 244.679737 
L 100.163926 242.440191 
L 100.513335 240.204027 
L 100.885086 237.971469 
L 101.279145 235.742741 
L 101.695471 233.518064 
L 102.134022 231.297661 
L 102.594755 229.081755 
L 103.077623 226.870567 
L 103.582579 224.664318 
L 104.109572 222.463229 
L 104.658549 220.26752 
L 105.229456 218.077411 
L 105.822234 215.89312 
L 106.436826 213.714865 
L 107.073169 211.542866 
L 107.731199 209.377338 
L 108.410852 207.218499 
L 109.112059 205.066564 
L 109.834749 202.921749 
L 110.578852 200.784268 
L 111.344291 198.654334 
L 112.130992 196.532162 
L 112.938874 194.417962 
L 113.767858 192.311947 
L 114.617859 190.214326 
L 115.488795 188.125311 
L 116.380576 186.045109 
L 117.293115 183.973929 
L 118.226319 181.911977 
L 119.180096 179.859461 
L 120.154351 177.816584 
L 121.148984 175.783553 
L 122.163899 173.760569 
L 123.198991 171.747835 
L 124.254159 169.745553 
L 125.329297 167.753922 
L 126.424297 165.773142 
L 127.53905 163.803411 
L 128.673444 161.844926 
L 129.827366 159.897882 
L 131.0007 157.962475 
L 132.193329 156.038898 
L 133.405134 154.127343 
L 134.635994 152.228001 
L 135.885786 150.341063 
L 137.154383 148.466717 
L 138.441661 146.60515 
L 139.74749 144.756549 
L 141.071739 142.921098 
L 142.414276 141.098982 
L 143.774967 139.290381 
L 145.153675 137.495478 
L 146.550263 135.714452 
L 147.964592 133.94748 
L 149.396519 132.194739 
L 150.845901 130.456406 
L 152.312594 128.732652 
L 153.796451 127.023652 
L 155.297324 125.329575 
L 156.815062 123.650592 
L 158.349514 121.986869 
L 159.900526 120.338574 
L 161.467943 118.705872 
L 163.051608 117.088924 
L 163.913194 116.222675 
L 162.296629 114.60611 
L 161.42634 115.481109 
L 159.826678 117.114389 
L 158.243429 118.763584 
L 156.67675 120.428528 
L 155.126799 122.109056 
L 153.59373 123.804999 
L 152.077697 125.516187 
L 150.578851 127.24245 
L 149.097343 128.983615 
L 147.63332 130.739508 
L 146.186929 132.509953 
L 144.758315 134.294773 
L 143.34762 136.09379 
L 141.954985 137.906823 
L 140.58055 139.733692 
L 139.224452 141.574214 
L 137.886827 143.428205 
L 136.567808 145.295478 
L 135.267527 147.175849 
L 133.986115 149.069128 
L 132.7237 150.975126 
L 131.480407 152.893653 
L 130.256362 154.824517 
L 129.051685 156.767524 
L 127.866499 158.722481 
L 126.700922 160.689191 
L 125.555069 162.667459 
L 124.429056 164.657087 
L 123.322996 166.657875 
L 122.236998 168.669623 
L 121.171172 170.69213 
L 120.125623 172.725195 
L 119.100458 174.768613 
L 118.095777 176.82218 
L 117.111682 178.885691 
L 116.148271 180.95894 
L 115.20564 183.041719 
L 114.283884 185.133821 
L 113.383094 187.235035 
L 112.503362 189.345151 
L 111.644774 191.46396 
L 110.807417 193.591248 
L 109.991374 195.726803 
L 109.196727 197.870412 
L 108.423556 200.02186 
L 107.671937 202.180932 
L 106.941947 204.347412 
L 106.233657 206.521084 
L 105.547139 208.701729 
L 104.882462 210.889131 
L 104.239691 213.08307 
L 103.618892 215.283327 
L 103.020126 217.489681 
L 102.443452 219.701913 
L 101.88893 221.919801 
L 101.356614 224.143123 
L 100.846558 226.371658 
L 100.358811 228.605181 
L 99.893425 230.84347 
L 99.450444 233.0863 
L 99.029913 235.333449 
L 98.631874 237.58469 
L 98.256367 239.839799 
L 97.903429 242.09855 
L 97.573097 244.360718 
L 97.265402 246.626076 
L 96.980376 248.894397 
L 96.718047 251.165455 
L 96.478441 253.439023 
L 96.261582 255.714874 
L 96.067493 257.992779 
L 95.896191 260.272511 
L 95.747696 262.553842 
L 95.62202 264.836544 
L 95.519178 267.120388 
L 95.439179 269.405147 
L 95.382031 271.690591 
L 95.34774 273.976493 
L 95.336309 276.262623 
z
" clip-path="url(#pe830e1aa60)" style="fill: #ff6800"/>
   </g>
   <g id="patch_7">
    <path d="M 163.913194 116.222675 
L 165.521569 114.630304 
L 167.145787 113.054096 
L 168.785685 111.494209 
L 170.4411 109.950799 
L 172.111866 108.42402 
L 173.797816 106.914024 
L 175.498781 105.420963 
L 177.214592 103.944986 
L 178.945077 102.486241 
L 180.690062 101.044873 
L 182.449373 99.621027 
L 184.222835 98.214845 
L 186.01027 96.826468 
L 187.811498 95.456034 
L 189.626341 94.10368 
L 191.454616 92.769542 
L 193.296142 91.453754 
L 195.150732 90.156446 
L 197.018203 88.877749 
L 198.898367 87.61779 
L 200.791037 86.376695 
L 202.696022 85.154589 
L 204.613134 83.951593 
L 206.542179 82.767828 
L 208.482965 81.603413 
L 210.435298 80.458463 
L 212.398983 79.333094 
L 214.373823 78.227417 
L 216.359621 77.141544 
L 218.356178 76.075583 
L 220.363295 75.02964 
L 222.380771 74.00382 
L 224.408404 72.998226 
L 226.445991 72.012959 
L 228.493329 71.048116 
L 230.550213 70.103794 
L 232.616437 69.180088 
L 234.691795 68.27709 
L 236.776078 67.394891 
L 238.86908 66.533578 
L 240.970589 65.693238 
L 243.080397 64.873955 
L 245.198292 64.07581 
L 247.324063 63.298884 
L 249.457496 62.543254 
L 251.598379 61.808996 
L 253.746497 61.096183 
L 255.901636 60.404887 
L 258.06358 59.735176 
L 260.232113 59.087117 
L 262.407018 58.460776 
L 264.588077 57.856215 
L 266.775073 57.273495 
L 268.967787 56.712673 
L 271.165999 56.173806 
L 273.36949 55.656948 
L 275.578039 55.16215 
L 277.791425 54.689462 
L 280.009428 54.238931 
L 282.231825 53.810602 
L 284.458394 53.404518 
L 286.688913 53.02072 
L 288.923158 52.659246 
L 291.160906 52.320132 
L 293.401933 52.003412 
L 295.646015 51.709118 
L 297.892928 51.437279 
L 300.142447 51.187923 
L 302.394347 50.961073 
L 304.648403 50.756754 
L 306.90439 50.574985 
L 309.162081 50.415785 
L 311.421251 50.279169 
L 313.681674 50.165151 
L 315.943125 50.073743 
L 318.205377 50.004953 
L 320.468203 49.958789 
L 322.731378 49.935256 
L 323.953142 49.931958 
L 323.953142 47.64579 
L 322.719037 47.649121 
L 320.433002 47.672892 
L 318.147318 47.719522 
L 315.862216 47.789007 
L 313.577922 47.881338 
L 311.294666 47.996508 
L 309.012676 48.134504 
L 306.73218 48.295312 
L 304.453406 48.478917 
L 302.176582 48.6853 
L 299.901935 48.914441 
L 297.629694 49.166316 
L 295.360085 49.440901 
L 293.093335 49.738168 
L 290.829671 50.058087 
L 288.56932 50.400626 
L 286.312507 50.765752 
L 284.059457 51.153426 
L 281.810398 51.563612 
L 279.565552 51.996267 
L 277.325145 52.451349 
L 275.089401 52.928812 
L 272.858544 53.428608 
L 270.632795 53.950687 
L 268.412379 54.494997 
L 266.197517 55.061483 
L 263.98843 55.65009 
L 261.78534 56.260758 
L 259.588466 56.893425 
L 257.398029 57.54803 
L 255.214247 58.224505 
L 253.037339 58.922785 
L 250.867523 59.642798 
L 248.705015 60.384473 
L 246.550032 61.147735 
L 244.402789 61.932509 
L 242.263501 62.738716 
L 240.132382 63.566275 
L 238.009645 64.415103 
L 235.895502 65.285116 
L 233.790165 66.176227 
L 231.693844 67.088345 
L 229.606749 68.021382 
L 227.529089 68.975242 
L 225.461071 69.949831 
L 223.402902 70.945051 
L 221.354787 71.960802 
L 219.316933 72.996983 
L 217.289542 74.053491 
L 215.272818 75.13022 
L 213.266961 76.227061 
L 211.272173 77.343907 
L 209.288653 78.480643 
L 207.3166 79.637158 
L 205.35621 80.813335 
L 203.407679 82.009057 
L 201.471203 83.224204 
L 199.546975 84.458655 
L 197.635188 85.712286 
L 195.736032 86.984972 
L 193.849698 88.276586 
L 191.976374 89.586998 
L 190.116247 90.916077 
L 188.269505 92.263691 
L 186.43633 93.629705 
L 184.616907 95.013981 
L 182.811418 96.416383 
L 181.020042 97.836769 
L 179.24296 99.274997 
L 177.480349 100.730924 
L 175.732385 102.204404 
L 173.999242 103.69529 
L 172.281096 105.203432 
L 170.578116 106.72868 
L 168.890473 108.270882 
L 167.218337 109.829882 
L 165.561874 111.405525 
L 163.92125 112.997655 
L 162.296629 114.60611 
z
" clip-path="url(#pe830e1aa60)" style="fill: #800000"/>
   </g>
   <g id="PatchCollection_1">
    <path d="M 483.99309 436.302571 
L 483.99309 436.302571 
L 482.384715 437.894942 
L 480.760497 439.471149 
L 479.120599 441.031037 
L 477.465184 442.574447 
L 475.794418 444.101226 
L 474.108468 445.611222 
L 472.407502 447.104283 
L 470.691692 448.58026 
L 468.961207 450.039005 
L 467.216222 451.480372 
L 465.45691 452.904219 
L 463.683449 454.310401 
L 461.896014 455.698778 
L 460.094786 457.069212 
L 458.279943 458.421566 
L 456.451667 459.755703 
L 454.610142 461.071492 
L 452.755552 462.3688 
L 450.888081 463.647497 
L 449.007917 464.907456 
L 447.115247 466.148551 
L 445.210261 467.370657 
L 443.29315 468.573653 
L 441.364105 469.757418 
L 439.423319 470.921833 
L 437.470986 472.066783 
L 435.507301 473.192152 
L 433.532461 474.297829 
L 431.546663 475.383702 
L 429.550105 476.449663 
L 427.542989 477.495606 
L 425.525513 478.521426 
L 423.49788 479.52702 
L 421.460293 480.512287 
L 419.412955 481.47713 
L 417.356071 482.421452 
L 415.289847 483.345158 
L 413.214489 484.248155 
L 411.130205 485.130355 
L 409.037204 485.991668 
L 406.935695 486.832008 
L 404.825887 487.651291 
L 402.707992 488.449436 
L 400.582221 489.226362 
L 398.448788 489.981992 
L 396.307905 490.71625 
L 394.159787 491.429063 
L 392.004648 492.120359 
L 389.842704 492.79007 
L 387.674171 493.438129 
L 385.499266 494.06447 
L 383.318207 494.669031 
L 381.131211 495.251751 
L 378.938497 495.812573 
L 376.740285 496.35144 
L 374.536794 496.868298 
L 372.328245 497.363096 
L 370.114859 497.835784 
L 367.896856 498.286315 
L 365.674459 498.714644 
L 363.44789 499.120727 
L 361.217371 499.504526 
L 358.983126 499.866 
L 356.745378 500.205114 
L 354.504351 500.521833 
L 352.260268 500.816128 
L 350.013355 501.087966 
L 347.763836 501.337323 
L 345.511936 501.564172 
L 343.257881 501.768492 
L 341.001894 501.950261 
L 338.744203 502.109461 
L 336.485033 502.246077 
L 334.224609 502.360095 
L 331.963159 502.451503 
L 329.700907 502.520292 
L 327.438081 502.566456 
L 325.174906 502.58999 
L 323.953142 502.593288 
L 323.953142 502.593288 
Q 323.953142 276.262623 163.913194 116.222675 
L 163.913194 116.222675 
L 163.913194 116.222675 
L 165.521569 114.630304 
L 167.145787 113.054096 
L 168.785685 111.494209 
L 170.4411 109.950799 
L 172.111866 108.42402 
L 173.797816 106.914024 
L 175.498781 105.420963 
L 177.214592 103.944986 
L 178.945077 102.486241 
L 180.690062 101.044873 
L 182.449373 99.621027 
L 184.222835 98.214845 
L 186.01027 96.826468 
L 187.811498 95.456034 
L 189.626341 94.10368 
L 191.454616 92.769542 
L 193.296142 91.453754 
L 195.150732 90.156446 
L 197.018203 88.877749 
L 198.898367 87.61779 
L 200.791037 86.376695 
L 202.696022 85.154589 
L 204.613134 83.951593 
L 206.542179 82.767828 
L 208.482965 81.603413 
L 210.435298 80.458463 
L 212.398983 79.333094 
L 214.373823 78.227417 
L 216.359621 77.141544 
L 218.356178 76.075583 
L 220.363295 75.02964 
L 222.380771 74.00382 
L 224.408404 72.998226 
L 226.445991 72.012959 
L 228.493329 71.048116 
L 230.550213 70.103794 
L 232.616437 69.180088 
L 234.691795 68.27709 
L 236.776078 67.394891 
L 238.86908 66.533578 
L 240.970589 65.693238 
L 243.080397 64.873955 
L 245.198292 64.07581 
L 247.324063 63.298884 
L 249.457496 62.543254 
L 251.598379 61.808996 
L 253.746497 61.096183 
L 255.901636 60.404887 
L 258.06358 59.735176 
L 260.232113 59.087117 
L 262.407018 58.460776 
L 264.588077 57.856215 
L 266.775073 57.273495 
L 268.967787 56.712673 
L 271.165999 56.173806 
L 273.36949 55.656948 
L 275.578039 55.16215 
L 277.791425 54.689462 
L 280.009428 54.238931 
L 282.231825 53.810602 
L 284.458394 53.404518 
L 286.688913 53.02072 
L 288.923158 52.659246 
L 291.160906 52.320132 
L 293.401933 52.003412 
L 295.646015 51.709118 
L 297.892928 51.437279 
L 300.142447 51.187923 
L 302.394347 50.961073 
L 304.648403 50.756754 
L 306.90439 50.574985 
L 309.162081 50.415785 
L 311.421251 50.279169 
L 313.681674 50.165151 
L 315.943125 50.073743 
L 318.205377 50.004953 
L 320.468203 49.958789 
L 322.731378 49.935256 
L 323.953142 49.931958 
L 323.953142 49.931958 
Q 323.953142 276.262623 483.99309 436.302571 
z
" clip-path="url(#pe830e1aa60)" style="fill: #29ffce; fill-opacity: 0.5; stroke: #808080; stroke-opacity: 0.5; stroke-width: 0.1"/>
    <path d="M 550.283807 276.262623 
L 550.283807 276.262623 
L 550.27249 278.525892 
L 550.238542 280.788934 
L 550.181966 283.051524 
L 550.102766 285.313436 
L 550.000952 287.574442 
L 549.876534 289.834316 
L 549.729523 292.092834 
L 549.559935 294.349769 
L 549.367786 296.604895 
L 549.153096 298.857987 
L 548.915886 301.108819 
L 548.65618 303.357166 
L 548.374005 305.602805 
L 548.069387 307.845509 
L 547.742357 310.085055 
L 547.392949 312.321219 
L 547.021197 314.553776 
L 546.627139 316.782505 
L 546.210813 319.007182 
L 545.772262 321.227585 
L 545.311529 323.443491 
L 544.82866 325.654679 
L 544.323704 327.860927 
L 543.796712 330.062016 
L 543.247734 332.257726 
L 542.676828 334.447835 
L 542.08405 336.632126 
L 541.469458 338.810381 
L 540.833115 340.98238 
L 540.175085 343.147908 
L 539.495432 345.306747 
L 538.794225 347.458682 
L 538.071534 349.603497 
L 537.327432 351.740978 
L 536.561993 353.870912 
L 535.775292 355.993084 
L 534.96741 358.107284 
L 534.138426 360.213299 
L 533.288424 362.31092 
L 532.417489 364.399935 
L 531.525707 366.480137 
L 530.613169 368.551317 
L 529.679964 370.613269 
L 528.726187 372.665785 
L 527.751933 374.708661 
L 526.757299 376.741693 
L 525.742385 378.764677 
L 524.707292 380.777411 
L 523.652124 382.779693 
L 522.576987 384.771324 
L 521.481987 386.752104 
L 520.367234 388.721835 
L 519.23284 390.68032 
L 518.078918 392.627364 
L 516.905584 394.562771 
L 515.712954 396.486348 
L 514.501149 398.397903 
L 513.27029 400.297245 
L 512.020498 402.184183 
L 510.7519 404.058529 
L 509.464623 405.920096 
L 508.158794 407.768697 
L 506.834545 409.604148 
L 505.492008 411.426264 
L 504.131317 413.234864 
L 502.752609 415.029768 
L 501.356021 416.810794 
L 499.941692 418.577766 
L 498.509765 420.330507 
L 497.060383 422.06884 
L 495.593689 423.792594 
L 494.109832 425.501594 
L 492.60896 427.195671 
L 491.091222 428.874654 
L 489.55677 430.538377 
L 488.005758 432.186672 
L 486.438341 433.819374 
L 484.854676 435.436321 
L 483.99309 436.302571 
L 483.99309 436.302571 
Q 323.953142 276.262623 97.622477 276.262623 
L 97.622477 276.262623 
L 97.622477 276.262623 
L 97.633794 273.999354 
L 97.667742 271.736311 
L 97.724318 269.473721 
L 97.803517 267.21181 
L 97.905331 264.950804 
L 98.02975 262.690929 
L 98.176761 260.432412 
L 98.346349 258.175477 
L 98.538498 255.920351 
L 98.753188 253.667259 
L 98.990397 251.416427 
L 99.250103 249.168079 
L 99.532279 246.922441 
L 99.836897 244.679737 
L 100.163926 242.440191 
L 100.513335 240.204027 
L 100.885086 237.971469 
L 101.279145 235.742741 
L 101.695471 233.518064 
L 102.134022 231.297661 
L 102.594755 229.081755 
L 103.077623 226.870567 
L 103.582579 224.664318 
L 104.109572 222.463229 
L 104.658549 220.26752 
L 105.229456 218.077411 
L 105.822234 215.89312 
L 106.436826 213.714865 
L 107.073169 211.542866 
L 107.731199 209.377338 
L 108.410852 207.218499 
L 109.112059 205.066564 
L 109.834749 202.921749 
L 110.578852 200.784268 
L 111.344291 198.654334 
L 112.130992 196.532162 
L 112.938874 194.417962 
L 113.767858 192.311947 
L 114.617859 190.214326 
L 115.488795 188.125311 
L 116.380576 186.045109 
L 117.293115 183.973929 
L 118.226319 181.911977 
L 119.180096 179.859461 
L 120.154351 177.816584 
L 121.148984 175.783553 
L 122.163899 173.760569 
L 123.198991 171.747835 
L 124.254159 169.745553 
L 125.329297 167.753922 
L 126.424297 165.773142 
L 127.53905 163.803411 
L 128.673444 161.844926 
L 129.827366 159.897882 
L 131.0007 157.962475 
L 132.193329 156.038898 
L 133.405134 154.127343 
L 134.635994 152.228001 
L 135.885786 150.341063 
L 137.154383 148.466717 
L 138.441661 146.60515 
L 139.74749 144.756549 
L 141.071739 142.921098 
L 142.414276 141.098982 
L 143.774967 139.290381 
L 145.153675 137.495478 
L 146.550263 135.714452 
L 147.964592 133.94748 
L 149.396519 132.194739 
L 150.845901 130.456406 
L 152.312594 128.732652 
L 153.796451 127.023652 
L 155.297324 125.329575 
L 156.815062 123.650592 
L 158.349514 121.986869 
L 159.900526 120.338574 
L 161.467943 118.705872 
L 163.051608 117.088924 
L 163.913194 116.222675 
L 163.913194 116.222675 
Q 323.953142 276.262623 550.283807 276.262623 
z
" clip-path="url(#pe830e1aa60)" style="fill: #004cff; fill-opacity: 0.5; stroke: #808080; stroke-opacity: 0.5; stroke-width: 0.1"/>
    <path d="M 323.953142 49.931958 
L 323.953142 49.931958 
L 326.216411 49.943275 
L 328.479453 49.977223 
L 330.742043 50.033799 
L 333.003954 50.112999 
L 335.264961 50.214813 
L 337.524835 50.339231 
L 339.783353 50.486242 
L 342.040288 50.65583 
L 344.295414 50.847979 
L 346.548505 51.062669 
L 348.799338 51.299879 
L 351.047685 51.559584 
L 353.293324 51.84176 
L 355.536028 52.146378 
L 357.775574 52.473408 
L 360.011738 52.822816 
L 362.244295 53.194567 
L 364.473024 53.588626 
L 366.697701 54.004952 
L 368.918104 54.443503 
L 371.13401 54.904236 
L 373.345198 55.387104 
L 375.551446 55.89206 
L 377.752535 56.419053 
L 379.948244 56.96803 
L 382.138354 57.538937 
L 384.322645 58.131715 
L 386.5009 58.746307 
L 388.672899 59.38265 
L 390.838427 60.04068 
L 392.997266 60.720333 
L 395.149201 61.42154 
L 397.294016 62.14423 
L 399.431497 62.888333 
L 401.561431 63.653772 
L 403.683603 64.440473 
L 405.797803 65.248355 
L 407.903818 66.077339 
L 410.001439 66.927341 
L 412.090454 67.798276 
L 414.170656 68.690057 
L 416.241836 69.602596 
L 418.303788 70.535801 
L 420.356304 71.489578 
L 422.39918 72.463832 
L 424.432212 73.458465 
L 426.455196 74.47338 
L 428.46793 75.508472 
L 430.470212 76.56364 
L 432.461843 77.638778 
L 434.442623 78.733778 
L 436.412354 79.848531 
L 438.370839 80.982925 
L 440.317883 82.136847 
L 442.25329 83.310181 
L 444.176867 84.50281 
L 446.088422 85.714616 
L 447.987764 86.945475 
L 449.874702 88.195267 
L 451.749048 89.463865 
L 453.610615 90.751142 
L 455.459216 92.056971 
L 457.294667 93.38122 
L 459.116783 94.723757 
L 460.925383 96.084448 
L 462.720287 97.463156 
L 464.501313 98.859744 
L 466.268285 100.274073 
L 468.021026 101.706 
L 469.759359 103.155382 
L 471.483113 104.622075 
L 473.192113 106.105932 
L 474.88619 107.606805 
L 476.565173 109.124543 
L 478.228896 110.658995 
L 479.877191 112.210007 
L 481.509893 113.777424 
L 483.12684 115.361089 
L 483.99309 116.222675 
L 483.99309 116.222675 
Q 323.953142 276.262623 163.913194 436.302571 
L 163.913194 436.302571 
L 163.913194 436.302571 
L 162.320823 434.694196 
L 160.744615 433.069978 
L 159.184728 431.43008 
L 157.641318 429.774665 
L 156.114539 428.103899 
L 154.604543 426.417949 
L 153.111482 424.716983 
L 151.635505 423.001173 
L 150.17676 421.270688 
L 148.735392 419.525703 
L 147.311546 417.766392 
L 145.905364 415.99293 
L 144.516987 414.205495 
L 143.146553 412.404267 
L 141.794199 410.589424 
L 140.460061 408.761148 
L 139.144273 406.919623 
L 137.846965 405.065033 
L 136.568268 403.197562 
L 135.308309 401.317398 
L 134.067214 399.424728 
L 132.845107 397.519742 
L 131.642112 395.602631 
L 130.458347 393.673586 
L 129.293932 391.7328 
L 128.148982 389.780467 
L 127.023613 387.816782 
L 125.917936 385.841942 
L 124.832063 383.856144 
L 123.766102 381.859586 
L 122.720159 379.85247 
L 121.694339 377.834994 
L 120.688745 375.807361 
L 119.703478 373.769774 
L 118.738635 371.722436 
L 117.794313 369.665552 
L 116.870607 367.599328 
L 115.967609 365.52397 
L 115.08541 363.439687 
L 114.224097 361.346685 
L 113.383757 359.245176 
L 112.564474 357.135368 
L 111.766329 355.017473 
L 110.989403 352.891702 
L 110.233773 350.758269 
L 109.499515 348.617386 
L 108.786702 346.469268 
L 108.095406 344.314129 
L 107.425695 342.152185 
L 106.777636 339.983652 
L 106.151295 337.808747 
L 105.546734 335.627688 
L 104.964014 333.440692 
L 104.403192 331.247978 
L 103.864325 329.049766 
L 103.347467 326.846275 
L 102.852669 324.637726 
L 102.379981 322.42434 
L 101.92945 320.206337 
L 101.501121 317.98394 
L 101.095037 315.757371 
L 100.711239 313.526852 
L 100.349765 311.292607 
L 100.010651 309.054859 
L 99.693931 306.813832 
L 99.399637 304.569749 
L 99.127798 302.322837 
L 98.878442 300.073318 
L 98.651592 297.821418 
L 98.447273 295.567362 
L 98.265504 293.311375 
L 98.106304 291.053684 
L 97.969688 288.794514 
L 97.85567 286.53409 
L 97.764262 284.27264 
L 97.695472 282.010388 
L 97.649308 279.747562 
L 97.625775 277.484387 
L 97.622477 276.262623 
L 97.622477 276.262623 
Q 323.953142 276.262623 323.953142 49.931958 
z
" clip-path="url(#pe830e1aa60)" style="fill: #000080; fill-opacity: 0.5; stroke: #808080; stroke-opacity: 0.5; stroke-width: 0.1"/>
    <path d="M 483.99309 116.222675 
L 483.99309 116.222675 
L 485.585461 117.83105 
L 487.161668 119.455268 
L 488.721555 121.095166 
L 490.264966 122.750581 
L 491.791745 124.421347 
L 493.301741 126.107297 
L 494.794802 127.808263 
L 496.270778 129.524073 
L 497.729524 131.254558 
L 499.170891 132.999543 
L 500.594738 134.758854 
L 502.00092 136.532316 
L 503.389297 138.319751 
L 504.759731 140.120979 
L 506.112085 141.935822 
L 507.446222 143.764097 
L 508.762011 145.605623 
L 510.059319 147.460213 
L 511.338016 149.327684 
L 512.597975 151.207848 
L 513.83907 153.100518 
L 515.061176 155.005504 
L 516.264172 156.922615 
L 517.447937 158.85166 
L 518.612352 160.792446 
L 519.757302 162.744779 
L 520.882671 164.708464 
L 521.988348 166.683304 
L 523.074221 168.669102 
L 524.140182 170.665659 
L 525.186125 172.672776 
L 526.211945 174.690252 
L 527.217539 176.717885 
L 528.202806 178.755472 
L 529.167649 180.80281 
L 530.111971 182.859694 
L 531.035677 184.925918 
L 531.938674 187.001276 
L 532.820874 189.085559 
L 533.682187 191.178561 
L 534.522527 193.28007 
L 535.34181 195.389878 
L 536.139955 197.507773 
L 536.916881 199.633544 
L 537.672511 201.766977 
L 538.406769 203.90786 
L 539.119582 206.055978 
L 539.810878 208.211117 
L 540.480589 210.373061 
L 541.128648 212.541594 
L 541.754989 214.716499 
L 542.35955 216.897558 
L 542.94227 219.084554 
L 543.503092 221.277268 
L 544.041959 223.47548 
L 544.558817 225.678971 
L 545.053615 227.88752 
L 545.526303 230.100906 
L 545.976834 232.318909 
L 546.405163 234.541306 
L 546.811246 236.767875 
L 547.195044 238.998394 
L 547.556519 241.232639 
L 547.895632 243.470387 
L 548.212352 245.711414 
L 548.506646 247.955496 
L 548.778485 250.202409 
L 549.027842 252.451928 
L 549.254691 254.703828 
L 549.459011 256.957884 
L 549.64078 259.213871 
L 549.79998 261.471562 
L 549.936596 263.730732 
L 550.050614 265.991156 
L 550.142022 268.252606 
L 550.210811 270.514858 
L 550.256975 272.777684 
L 550.280509 275.040859 
L 550.283807 276.262623 
L 550.283807 276.262623 
Q 323.953142 276.262623 323.953142 502.593288 
L 323.953142 502.593288 
L 323.953142 502.593288 
L 321.689873 502.581971 
L 319.42683 502.548023 
L 317.16424 502.491447 
L 314.902329 502.412247 
L 312.641323 502.310433 
L 310.381448 502.186015 
L 308.122931 502.039004 
L 305.865996 501.869416 
L 303.61087 501.677267 
L 301.357778 501.462577 
L 299.106946 501.225367 
L 296.858598 500.965662 
L 294.61296 500.683486 
L 292.370256 500.378868 
L 290.13071 500.051838 
L 287.894546 499.70243 
L 285.661988 499.330678 
L 283.43326 498.93662 
L 281.208583 498.520294 
L 278.98818 498.081743 
L 276.772274 497.62101 
L 274.561086 497.138141 
L 272.354837 496.633185 
L 270.153748 496.106193 
L 267.958039 495.557215 
L 265.76793 494.986309 
L 263.583639 494.393531 
L 261.405384 493.778939 
L 259.233385 493.142596 
L 257.067857 492.484566 
L 254.909018 491.804913 
L 252.757083 491.103706 
L 250.612268 490.381015 
L 248.474787 489.636913 
L 246.344853 488.871474 
L 244.22268 488.084773 
L 242.108481 487.276891 
L 240.002465 486.447907 
L 237.904845 485.597905 
L 235.81583 484.72697 
L 233.735628 483.835188 
L 231.664447 482.92265 
L 229.602496 481.989445 
L 227.54998 481.035668 
L 225.507103 480.061414 
L 223.474072 479.06678 
L 221.451088 478.051866 
L 219.438354 477.016774 
L 217.436072 475.961605 
L 215.444441 474.886468 
L 213.463661 473.791468 
L 211.49393 472.676715 
L 209.535445 471.542321 
L 207.588401 470.388399 
L 205.652994 469.215065 
L 203.729417 468.022435 
L 201.817862 466.81063 
L 199.91852 465.579771 
L 198.031582 464.329979 
L 196.157236 463.061381 
L 194.295669 461.774104 
L 192.447068 460.468275 
L 190.611617 459.144026 
L 188.789501 457.801489 
L 186.9809 456.440798 
L 185.185997 455.06209 
L 183.404971 453.665502 
L 181.637999 452.251173 
L 179.885258 450.819246 
L 178.146924 449.369864 
L 176.423171 447.903171 
L 174.714171 446.419313 
L 173.020094 444.918441 
L 171.341111 443.400703 
L 169.677388 441.866251 
L 168.029093 440.315239 
L 166.396391 438.747822 
L 164.779443 437.164157 
L 163.913194 436.302571 
L 163.913194 436.302571 
Q 323.953142 276.262623 483.99309 116.222675 
z
" clip-path="url(#pe830e1aa60)" style="fill: #000080; fill-opacity: 0.5; stroke: #808080; stroke-opacity: 0.5; stroke-width: 0.1"/>
   </g>
   <g id="patch_8">
    <path d="M 323.953142 49.931958 
L 326.216411 49.943275 
L 328.479453 49.977223 
L 330.742043 50.033799 
L 333.003954 50.112999 
L 335.264961 50.214813 
L 337.524835 50.339231 
L 339.783353 50.486242 
L 342.040288 50.65583 
L 344.295414 50.847979 
L 346.548505 51.062669 
L 348.799338 51.299879 
L 351.047685 51.559584 
L 353.293324 51.84176 
L 355.536028 52.146378 
L 357.775574 52.473408 
L 360.011738 52.822816 
L 362.244295 53.194567 
L 364.473024 53.588626 
L 366.697701 54.004952 
L 368.918104 54.443503 
L 371.13401 54.904236 
L 373.345198 55.387104 
L 375.551446 55.89206 
L 377.752535 56.419053 
L 379.948244 56.96803 
L 382.138354 57.538937 
L 384.322645 58.131715 
L 386.5009 58.746307 
L 388.672899 59.38265 
L 390.838427 60.04068 
L 392.997266 60.720333 
L 395.149201 61.42154 
L 397.294016 62.14423 
L 399.431497 62.888333 
L 401.561431 63.653772 
L 403.683603 64.440473 
L 405.797803 65.248355 
L 407.903818 66.077339 
L 410.001439 66.927341 
L 412.090454 67.798276 
L 414.170656 68.690057 
L 416.241836 69.602596 
L 418.303788 70.535801 
L 420.356304 71.489578 
L 422.39918 72.463832 
L 424.432212 73.458465 
L 426.455196 74.47338 
L 428.46793 75.508472 
L 430.470212 76.56364 
L 432.461843 77.638778 
L 434.442623 78.733778 
L 436.412354 79.848531 
L 438.370839 80.982925 
L 440.317883 82.136847 
L 442.25329 83.310181 
L 444.176867 84.50281 
L 446.088422 85.714616 
L 447.987764 86.945475 
L 449.874702 88.195267 
L 451.749048 89.463865 
L 453.610615 90.751142 
L 455.459216 92.056971 
L 457.294667 93.38122 
L 459.116783 94.723757 
L 460.925383 96.084448 
L 462.720287 97.463156 
L 464.501313 98.859744 
L 466.268285 100.274073 
L 468.021026 101.706 
L 469.759359 103.155382 
L 471.483113 104.622075 
L 473.192113 106.105932 
L 474.88619 107.606805 
L 476.565173 109.124543 
L 478.228896 110.658995 
L 479.877191 112.210007 
L 481.509893 113.777424 
L 483.12684 115.361089 
L 484.72787 116.960845 
L 486.312823 118.57653 
L 487.88154 120.207984 
L 489.433864 121.855044 
L 490.96964 123.517544 
L 492.488714 125.195318 
L 493.990935 126.888199 
L 495.476153 128.596017 
L 496.944218 130.318602 
L 498.394985 132.055781 
L 499.828307 133.807381 
L 501.244042 135.573226 
L 502.642048 137.353139 
L 504.022185 139.146944 
L 505.384316 140.95446 
L 506.728304 142.775507 
L 508.054014 144.609903 
L 509.361314 146.457463 
L 510.650074 148.318004 
L 511.920164 150.19134 
L 513.171457 152.077282 
L 514.403829 153.975643 
L 515.617156 155.886232 
L 516.811317 157.808859 
L 517.986192 159.743332 
L 519.141664 161.689456 
L 520.277617 163.647037 
L 521.393938 165.61588 
L 522.490515 167.595787 
L 523.567239 169.586561 
L 524.624001 171.588002 
L 525.660696 173.599911 
L 526.677221 175.622086 
L 527.673473 177.654325 
L 528.649354 179.696425 
L 529.604765 181.748181 
L 530.539611 183.809389 
L 531.453799 185.879842 
L 532.347237 187.959333 
L 533.219835 190.047654 
L 534.071507 192.144597 
L 534.902168 194.249951 
L 535.711734 196.363507 
L 536.500124 198.485053 
L 537.267259 200.614376 
L 538.013063 202.751264 
L 538.737462 204.895503 
L 539.440382 207.046879 
L 540.121754 209.205176 
L 540.781508 211.370179 
L 541.419581 213.541671 
L 542.035907 215.719435 
L 542.630424 217.903254 
L 543.203075 220.092908 
L 543.7538 222.288179 
L 544.282545 224.488848 
L 544.789258 226.694694 
L 545.273887 228.905497 
L 545.736385 231.121035 
L 546.176704 233.341088 
L 546.594801 235.565432 
L 546.990634 237.793847 
L 547.364164 240.026108 
L 547.715353 242.261992 
L 548.044165 244.501277 
L 548.350569 246.743738 
L 548.634533 248.989151 
L 548.896029 251.237291 
L 549.135031 253.487934 
L 549.351516 255.740854 
L 549.54546 257.995826 
L 549.716845 260.252625 
L 549.865655 262.511025 
L 549.991873 264.7708 
L 550.095487 267.031724 
L 550.176488 269.293572 
L 550.234866 271.556116 
L 550.270616 273.819131 
L 550.283735 276.08239 
L 550.283807 276.262623 
L 552.569975 276.262623 
L 552.569903 276.080569 
L 552.556651 273.794449 
L 552.52054 271.508575 
L 552.461572 269.223177 
L 552.379753 266.938483 
L 552.275092 264.654721 
L 552.147599 262.37212 
L 551.997287 260.090908 
L 551.82417 257.811313 
L 551.628267 255.533563 
L 551.409596 253.257886 
L 551.16818 250.98451 
L 550.904042 248.713661 
L 550.61721 246.445568 
L 550.307711 244.180456 
L 549.975577 241.918552 
L 549.620841 239.660082 
L 549.243538 237.405273 
L 548.843707 235.154349 
L 548.421387 232.907537 
L 547.97662 230.665059 
L 547.509451 228.427142 
L 547.019926 226.194008 
L 546.508095 223.96588 
L 545.974009 221.742983 
L 545.41772 219.525537 
L 544.839286 217.313765 
L 544.238763 215.107888 
L 543.616211 212.908126 
L 542.971694 210.7147 
L 542.305275 208.527828 
L 541.617021 206.34773 
L 540.907 204.174623 
L 540.175285 202.008725 
L 539.421947 199.850252 
L 538.647063 197.699421 
L 537.850709 195.556445 
L 537.032966 193.421541 
L 536.193915 191.29492 
L 535.33364 189.176796 
L 534.452228 187.06738 
L 533.549765 184.966884 
L 532.626343 182.875518 
L 531.682054 180.79349 
L 530.716992 178.721009 
L 529.731255 176.658282 
L 528.724939 174.605515 
L 527.698146 172.562914 
L 526.650979 170.530683 
L 525.583543 168.509025 
L 524.495943 166.498142 
L 523.38829 164.498236 
L 522.260693 162.509506 
L 521.113265 160.532151 
L 519.946122 158.566369 
L 518.759379 156.612357 
L 517.553156 154.670309 
L 516.327574 152.740421 
L 515.082754 150.822885 
L 513.818821 148.917892 
L 512.535901 147.025634 
L 511.234124 145.1463 
L 509.913619 143.280077 
L 508.574517 141.427152 
L 507.216954 139.587711 
L 505.841065 137.761937 
L 504.446987 135.950013 
L 503.034859 134.152121 
L 501.604824 132.368439 
L 500.157024 130.599146 
L 498.691603 128.84442 
L 497.208709 127.104435 
L 495.708489 125.379366 
L 494.191094 123.669385 
L 492.656675 121.974664 
L 491.105386 120.295371 
L 489.537382 118.631675 
L 487.95282 116.983741 
L 486.351857 115.351736 
L 484.734656 113.735821 
L 483.101376 112.136159 
L 481.452181 110.55291 
L 479.787237 108.986231 
L 478.106709 107.43628 
L 476.410766 105.903211 
L 474.699577 104.387178 
L 472.973314 102.888332 
L 471.232149 101.406824 
L 469.476257 99.942801 
L 467.705812 98.49641 
L 465.920992 97.067796 
L 464.121975 95.657101 
L 462.308941 94.264466 
L 460.482072 92.890031 
L 458.641551 91.533933 
L 456.78756 90.196308 
L 454.920286 88.877289 
L 453.039916 87.577008 
L 451.146637 86.295596 
L 449.240639 85.033181 
L 447.322112 83.789888 
L 445.391248 82.565843 
L 443.448241 81.361167 
L 441.493284 80.17598 
L 439.526573 79.010403 
L 437.548305 77.86455 
L 435.558678 76.738537 
L 433.55789 75.632477 
L 431.546142 74.546479 
L 429.523635 73.480653 
L 427.49057 72.435104 
L 425.447152 71.409939 
L 423.393585 70.405258 
L 421.330074 69.421163 
L 419.256825 68.457752 
L 417.174045 67.515121 
L 415.081944 66.593365 
L 412.98073 65.692575 
L 410.870613 64.812843 
L 408.751805 63.954255 
L 406.624517 63.116898 
L 404.488962 62.300855 
L 402.345353 61.506208 
L 400.193905 60.733037 
L 398.034833 59.981418 
L 395.868353 59.251428 
L 393.694681 58.543138 
L 391.514036 57.85662 
L 389.326634 57.191943 
L 387.132695 56.549172 
L 384.932438 55.928373 
L 382.726084 55.329607 
L 380.513852 54.752934 
L 378.295964 54.198411 
L 376.072641 53.666095 
L 373.844107 53.156039 
L 371.610584 52.668293 
L 369.372295 52.202906 
L 367.129464 51.759925 
L 364.882316 51.339394 
L 362.631075 50.941355 
L 360.375966 50.565848 
L 358.117215 50.21291 
L 355.855047 49.882578 
L 353.589689 49.574883 
L 351.321368 49.289857 
L 349.050309 49.027528 
L 346.776741 48.787922 
L 344.500891 48.571063 
L 342.222986 48.376974 
L 339.943254 48.205672 
L 337.661923 48.057177 
L 335.379221 47.931501 
L 333.095377 47.828659 
L 330.810618 47.74866 
L 328.525174 47.691512 
L 326.239272 47.657221 
L 323.953142 47.64579 
L 323.953142 49.931958 
z
" clip-path="url(#pe830e1aa60)" style="fill: none; stroke: #000000; stroke-width: 0.5; stroke-linejoin: miter"/>
   </g>
   <g id="patch_9">
    <path d="M 550.283807 276.262623 
L 550.27249 278.525892 
L 550.238542 280.788934 
L 550.181966 283.051524 
L 550.102766 285.313436 
L 550.000952 287.574442 
L 549.876534 289.834316 
L 549.729523 292.092834 
L 549.559935 294.349769 
L 549.367786 296.604895 
L 549.153096 298.857987 
L 548.915886 301.108819 
L 548.65618 303.357166 
L 548.374005 305.602805 
L 548.069387 307.845509 
L 547.742357 310.085055 
L 547.392949 312.321219 
L 547.021197 314.553776 
L 546.627139 316.782505 
L 546.210813 319.007182 
L 545.772262 321.227585 
L 545.311529 323.443491 
L 544.82866 325.654679 
L 544.323704 327.860927 
L 543.796712 330.062016 
L 543.247734 332.257726 
L 542.676828 334.447835 
L 542.08405 336.632126 
L 541.469458 338.810381 
L 540.833115 340.98238 
L 540.175085 343.147908 
L 539.495432 345.306747 
L 538.794225 347.458682 
L 538.071534 349.603497 
L 537.327432 351.740978 
L 536.561993 353.870912 
L 535.775292 355.993084 
L 534.96741 358.107284 
L 534.138426 360.213299 
L 533.288424 362.31092 
L 532.417489 364.399935 
L 531.525707 366.480137 
L 530.613169 368.551317 
L 529.679964 370.613269 
L 528.726187 372.665785 
L 527.751933 374.708661 
L 526.757299 376.741693 
L 525.742385 378.764677 
L 524.707292 380.777411 
L 523.652124 382.779693 
L 522.576987 384.771324 
L 521.481987 386.752104 
L 520.367234 388.721835 
L 519.23284 390.68032 
L 518.078918 392.627364 
L 516.905584 394.562771 
L 515.712954 396.486348 
L 514.501149 398.397903 
L 513.27029 400.297245 
L 512.020498 402.184183 
L 510.7519 404.058529 
L 509.464623 405.920096 
L 508.158794 407.768697 
L 506.834545 409.604148 
L 505.492008 411.426264 
L 504.131317 413.234864 
L 502.752609 415.029768 
L 501.356021 416.810794 
L 499.941692 418.577766 
L 498.509765 420.330507 
L 497.060383 422.06884 
L 495.593689 423.792594 
L 494.109832 425.501594 
L 492.60896 427.195671 
L 491.091222 428.874654 
L 489.55677 430.538377 
L 488.005758 432.186672 
L 486.438341 433.819374 
L 484.854676 435.436321 
L 483.99309 436.302571 
L 485.609655 437.919136 
L 486.479944 437.044137 
L 488.079606 435.410857 
L 489.662855 433.761662 
L 491.229534 432.096718 
L 492.779485 430.41619 
L 494.312554 428.720247 
L 495.828587 427.009058 
L 497.327432 425.282795 
L 498.808941 423.54163 
L 500.272963 421.785738 
L 501.719354 420.015293 
L 503.147969 418.230473 
L 504.558664 416.431456 
L 505.951299 414.618422 
L 507.325734 412.791554 
L 508.681832 410.951032 
L 510.019457 409.097041 
L 511.338476 407.229767 
L 512.638756 405.349397 
L 513.920168 403.456118 
L 515.182584 401.55012 
L 516.425877 399.631593 
L 517.649922 397.700729 
L 518.854598 395.757722 
L 520.039784 393.802765 
L 521.205362 391.836054 
L 522.351215 389.857787 
L 523.477227 387.868159 
L 524.583288 385.867371 
L 525.669286 383.855623 
L 526.735112 381.833116 
L 527.78066 379.800051 
L 528.805826 377.756633 
L 529.810507 375.703066 
L 530.794602 373.639555 
L 531.758013 371.566306 
L 532.700644 369.483526 
L 533.6224 367.391425 
L 534.523189 365.290211 
L 535.402922 363.180094 
L 536.26151 361.061286 
L 537.098867 358.933998 
L 537.91491 356.798443 
L 538.709557 354.654834 
L 539.482728 352.503386 
L 540.234346 350.344314 
L 540.964337 348.177834 
L 541.672627 346.004162 
L 542.359145 343.823517 
L 543.023822 341.636115 
L 543.666593 339.442176 
L 544.287392 337.241919 
L 544.886158 335.035565 
L 545.462831 332.823333 
L 546.017354 330.605445 
L 546.54967 328.382122 
L 547.059726 326.153588 
L 547.547472 323.920065 
L 548.012859 321.681776 
L 548.45584 319.438945 
L 548.876371 317.191797 
L 549.27441 314.940556 
L 549.649917 312.685447 
L 550.002854 310.426696 
L 550.333187 308.164528 
L 550.640882 305.89917 
L 550.925908 303.630849 
L 551.188237 301.35979 
L 551.427843 299.086223 
L 551.644702 296.810372 
L 551.838791 294.532467 
L 552.010092 292.252735 
L 552.158588 289.971404 
L 552.284264 287.688702 
L 552.387106 285.404858 
L 552.467105 283.120099 
L 552.524253 280.834655 
L 552.558544 278.548753 
L 552.569975 276.262623 
L 550.283807 276.262623 
z
" clip-path="url(#pe830e1aa60)" style="fill: none; stroke: #000000; stroke-width: 0.5; stroke-linejoin: miter"/>
   </g>
   <g id="patch_10">
    <path d="M 483.99309 436.302571 
L 482.384715 437.894942 
L 480.760497 439.471149 
L 479.120599 441.031037 
L 477.465184 442.574447 
L 475.794418 444.101226 
L 474.108468 445.611222 
L 472.407502 447.104283 
L 470.691692 448.58026 
L 468.961207 450.039005 
L 467.216222 451.480372 
L 465.45691 452.904219 
L 463.683449 454.310401 
L 461.896014 455.698778 
L 460.094786 457.069212 
L 458.279943 458.421566 
L 456.451667 459.755703 
L 454.610142 461.071492 
L 452.755552 462.3688 
L 450.888081 463.647497 
L 449.007917 464.907456 
L 447.115247 466.148551 
L 445.210261 467.370657 
L 443.29315 468.573653 
L 441.364105 469.757418 
L 439.423319 470.921833 
L 437.470986 472.066783 
L 435.507301 473.192152 
L 433.532461 474.297829 
L 431.546663 475.383702 
L 429.550105 476.449663 
L 427.542989 477.495606 
L 425.525513 478.521426 
L 423.49788 479.52702 
L 421.460293 480.512287 
L 419.412955 481.47713 
L 417.356071 482.421452 
L 415.289847 483.345158 
L 413.214489 484.248155 
L 411.130205 485.130355 
L 409.037204 485.991668 
L 406.935695 486.832008 
L 404.825887 487.651291 
L 402.707992 488.449436 
L 400.582221 489.226362 
L 398.448788 489.981992 
L 396.307905 490.71625 
L 394.159787 491.429063 
L 392.004648 492.120359 
L 389.842704 492.79007 
L 387.674171 493.438129 
L 385.499266 494.06447 
L 383.318207 494.669031 
L 381.131211 495.251751 
L 378.938497 495.812573 
L 376.740285 496.35144 
L 374.536794 496.868298 
L 372.328245 497.363096 
L 370.114859 497.835784 
L 367.896856 498.286315 
L 365.674459 498.714644 
L 363.44789 499.120727 
L 361.217371 499.504526 
L 358.983126 499.866 
L 356.745378 500.205114 
L 354.504351 500.521833 
L 352.260268 500.816128 
L 350.013355 501.087966 
L 347.763836 501.337323 
L 345.511936 501.564172 
L 343.257881 501.768492 
L 341.001894 501.950261 
L 338.744203 502.109461 
L 336.485033 502.246077 
L 334.224609 502.360095 
L 331.963159 502.451503 
L 329.700907 502.520292 
L 327.438081 502.566456 
L 325.174906 502.58999 
L 322.911609 502.590891 
L 320.648416 502.56916 
L 318.385554 502.524798 
L 316.123248 502.45781 
L 313.861725 502.368203 
L 311.601212 502.255985 
L 309.341933 502.121168 
L 307.084116 501.963766 
L 304.827986 501.783793 
L 302.573768 501.581269 
L 300.321688 501.356213 
L 298.071971 501.108648 
L 295.824842 500.838598 
L 293.580526 500.546091 
L 291.339248 500.231156 
L 289.10123 499.893824 
L 286.866698 499.534129 
L 284.635875 499.152108 
L 282.408983 498.747797 
L 280.186245 498.321238 
L 277.967885 497.872474 
L 275.754122 497.401548 
L 273.54518 496.908509 
L 271.341278 496.393406 
L 269.142637 495.85629 
L 266.949478 495.297214 
L 264.762019 494.716235 
L 262.580478 494.113411 
L 260.405076 493.488803 
L 258.236027 492.842471 
L 256.073551 492.174482 
L 253.917862 491.484902 
L 251.769177 490.7738 
L 249.62771 490.041247 
L 247.493676 489.287316 
L 245.367287 488.512083 
L 243.248757 487.715625 
L 241.138298 486.898022 
L 239.036119 486.059356 
L 236.942433 485.19971 
L 234.857447 484.319171 
L 232.781371 483.417826 
L 230.714412 482.495766 
L 228.656777 481.553082 
L 226.608672 480.58987 
L 224.5703 479.606225 
L 222.541867 478.602246 
L 220.523575 477.578034 
L 218.515626 476.53369 
L 216.518221 475.469319 
L 214.531559 474.385027 
L 212.555839 473.280923 
L 210.591258 472.157118 
L 208.638014 471.013723 
L 206.696301 469.850854 
L 204.766314 468.668626 
L 202.848245 467.467157 
L 200.942287 466.246568 
L 199.04863 465.006981 
L 197.167463 463.74852 
L 195.298974 462.47131 
L 193.443351 461.175479 
L 191.600779 459.861157 
L 189.771442 458.528476 
L 187.955523 457.177568 
L 186.153203 455.808569 
L 184.364663 454.421615 
L 182.590083 453.016846 
L 180.829638 451.594401 
L 179.083506 450.154423 
L 177.35186 448.697057 
L 175.634874 447.222447 
L 173.93272 445.730741 
L 172.245568 444.222088 
L 170.573587 442.69664 
L 168.916944 441.154548 
L 167.275804 439.595968 
L 165.650331 438.021054 
L 164.040689 436.429964 
L 163.913194 436.302571 
L 162.296629 437.919136 
L 162.425412 438.047816 
L 164.051313 439.654977 
L 165.693204 441.245799 
L 167.350921 442.820123 
L 169.024299 444.377792 
L 170.713169 445.918649 
L 172.417363 447.44254 
L 174.13671 448.949314 
L 175.871039 450.438819 
L 177.620176 451.910906 
L 179.383946 453.365429 
L 181.162173 454.802242 
L 182.954679 456.221201 
L 184.761285 457.622164 
L 186.581809 459.004992 
L 188.416071 460.369545 
L 190.263886 461.715688 
L 192.12507 463.043286 
L 193.999437 464.352205 
L 195.886799 465.642316 
L 197.786968 466.91349 
L 199.699753 468.165598 
L 201.624964 469.398516 
L 203.562407 470.612121 
L 205.511889 471.806291 
L 207.473215 472.980906 
L 209.446189 474.13585 
L 211.430613 475.271007 
L 213.42629 476.386263 
L 215.43302 477.481507 
L 217.450601 478.55663 
L 219.478832 479.611523 
L 221.517511 480.646081 
L 223.566433 481.660201 
L 225.625394 482.653782 
L 227.694188 483.626723 
L 229.772607 484.578929 
L 231.860444 485.510303 
L 233.957491 486.420752 
L 236.063537 487.310186 
L 238.178372 488.178515 
L 240.301784 489.025652 
L 242.433561 489.851514 
L 244.573491 490.656017 
L 246.721358 491.439081 
L 248.876948 492.200627 
L 251.040046 492.940579 
L 253.210435 493.658864 
L 255.387898 494.35541 
L 257.572218 495.030146 
L 259.763176 495.683006 
L 261.960553 496.313924 
L 264.164129 496.922837 
L 266.373683 497.509685 
L 268.588996 498.074407 
L 270.809845 498.616949 
L 273.036008 499.137256 
L 275.267263 499.635275 
L 277.503387 500.110957 
L 279.744156 500.564255 
L 281.989345 500.995122 
L 284.238731 501.403516 
L 286.492088 501.789397 
L 288.749191 502.152725 
L 291.009814 502.493464 
L 293.273732 502.811581 
L 295.540718 503.107042 
L 297.810545 503.37982 
L 300.082986 503.629885 
L 302.357815 503.857215 
L 304.634802 504.061785 
L 306.913722 504.243575 
L 309.194345 504.402568 
L 311.476445 504.538746 
L 313.759792 504.652097 
L 316.044158 504.74261 
L 318.329315 504.810274 
L 320.615035 504.855084 
L 322.901088 504.877035 
L 325.187247 504.876125 
L 327.473282 504.852354 
L 329.758965 504.805724 
L 332.044068 504.736239 
L 334.328362 504.643908 
L 336.611618 504.528738 
L 338.893608 504.390742 
L 341.174104 504.229934 
L 343.452878 504.046329 
L 345.729702 503.839946 
L 348.004349 503.610805 
L 350.27659 503.35893 
L 352.546199 503.084345 
L 354.812949 502.787078 
L 357.076613 502.467159 
L 359.336964 502.12462 
L 361.593777 501.759494 
L 363.846826 501.371819 
L 366.095886 500.961634 
L 368.340732 500.528979 
L 370.581138 500.073897 
L 372.816883 499.596434 
L 375.04774 499.096638 
L 377.273489 498.574559 
L 379.493905 498.030249 
L 381.708767 497.463763 
L 383.917854 496.875156 
L 386.120944 496.264488 
L 388.317818 495.631821 
L 390.508255 494.977216 
L 392.692037 494.300741 
L 394.868945 493.602461 
L 397.038761 492.882448 
L 399.201269 492.140773 
L 401.356252 491.377511 
L 403.503495 490.592737 
L 405.642783 489.78653 
L 407.773902 488.958971 
L 409.896639 488.110143 
L 412.010782 487.24013 
L 414.116119 486.349019 
L 416.21244 485.4369 
L 418.299535 484.503864 
L 420.377195 483.550004 
L 422.445213 482.575415 
L 424.503382 481.580195 
L 426.551496 480.564444 
L 428.589351 479.528263 
L 430.616741 478.471755 
L 432.633466 477.395026 
L 434.639322 476.298184 
L 436.63411 475.181339 
L 438.61763 474.044603 
L 440.589684 472.888088 
L 442.550074 471.711911 
L 444.498605 470.516189 
L 446.435081 469.301042 
L 448.359309 468.066591 
L 450.271096 466.81296 
L 452.170252 465.540274 
L 454.056586 464.24866 
L 455.92991 462.938248 
L 457.790036 461.609169 
L 459.636779 460.261555 
L 461.469954 458.895541 
L 463.289377 457.511265 
L 465.094866 456.108863 
L 466.886241 454.688477 
L 468.663324 453.250249 
L 470.425935 451.794322 
L 472.173899 450.320842 
L 473.907041 448.829956 
L 475.625188 447.321814 
L 477.328168 445.796566 
L 479.015811 444.254364 
L 480.687947 442.695364 
L 482.34441 441.11972 
L 483.985034 439.527591 
L 485.609655 437.919136 
L 483.99309 436.302571 
z
" clip-path="url(#pe830e1aa60)" style="fill: none; stroke: #000000; stroke-width: 0.5; stroke-linejoin: miter"/>
   </g>
   <g id="patch_11">
    <path d="M 163.913194 436.302571 
L 162.320823 434.694196 
L 160.744615 433.069978 
L 159.184728 431.43008 
L 157.641318 429.774665 
L 156.114539 428.103899 
L 154.604543 426.417949 
L 153.111482 424.716983 
L 151.635505 423.001173 
L 150.17676 421.270688 
L 148.735392 419.525703 
L 147.311546 417.766392 
L 145.905364 415.99293 
L 144.516987 414.205495 
L 143.146553 412.404267 
L 141.794199 410.589424 
L 140.460061 408.761148 
L 139.144273 406.919623 
L 137.846965 405.065033 
L 136.568268 403.197562 
L 135.308309 401.317398 
L 134.067214 399.424728 
L 132.845107 397.519742 
L 131.642112 395.602631 
L 130.458347 393.673586 
L 129.293932 391.7328 
L 128.148982 389.780467 
L 127.023613 387.816782 
L 125.917936 385.841942 
L 124.832063 383.856144 
L 123.766102 381.859586 
L 122.720159 379.85247 
L 121.694339 377.834994 
L 120.688745 375.807361 
L 119.703478 373.769774 
L 118.738635 371.722436 
L 117.794313 369.665552 
L 116.870607 367.599328 
L 115.967609 365.52397 
L 115.08541 363.439687 
L 114.224097 361.346685 
L 113.383757 359.245176 
L 112.564474 357.135368 
L 111.766329 355.017473 
L 110.989403 352.891702 
L 110.233773 350.758269 
L 109.499515 348.617386 
L 108.786702 346.469268 
L 108.095406 344.314129 
L 107.425695 342.152185 
L 106.777636 339.983652 
L 106.151295 337.808747 
L 105.546734 335.627688 
L 104.964014 333.440692 
L 104.403192 331.247978 
L 103.864325 329.049766 
L 103.347467 326.846275 
L 102.852669 324.637726 
L 102.379981 322.42434 
L 101.92945 320.206337 
L 101.501121 317.98394 
L 101.095037 315.757371 
L 100.711239 313.526852 
L 100.349765 311.292607 
L 100.010651 309.054859 
L 99.693931 306.813832 
L 99.399637 304.569749 
L 99.127798 302.322837 
L 98.878442 300.073318 
L 98.651592 297.821418 
L 98.447273 295.567362 
L 98.265504 293.311375 
L 98.106304 291.053684 
L 97.969688 288.794514 
L 97.85567 286.53409 
L 97.764262 284.27264 
L 97.695472 282.010388 
L 97.649308 279.747562 
L 97.625775 277.484387 
L 97.622477 276.262623 
L 95.336309 276.262623 
L 95.33964 277.496728 
L 95.363411 279.782763 
L 95.410041 282.068446 
L 95.479526 284.353549 
L 95.571857 286.637843 
L 95.687027 288.921099 
L 95.825022 291.203089 
L 95.985831 293.483585 
L 96.169436 295.762359 
L 96.375819 298.039183 
L 96.60496 300.31383 
L 96.856835 302.586071 
L 97.13142 304.85568 
L 97.428687 307.12243 
L 97.748606 309.386094 
L 98.091145 311.646445 
L 98.456271 313.903258 
L 98.843945 316.156307 
L 99.254131 318.405367 
L 99.686786 320.650213 
L 100.141868 322.89062 
L 100.619331 325.126364 
L 101.119127 327.357221 
L 101.641206 329.58297 
L 102.185516 331.803386 
L 102.752002 334.018248 
L 103.340609 336.227335 
L 103.951277 338.430425 
L 104.583944 340.627299 
L 105.238549 342.817736 
L 105.915024 345.001518 
L 106.613304 347.178426 
L 107.333317 349.348242 
L 108.074992 351.51075 
L 108.838254 353.665733 
L 109.623028 355.812976 
L 110.429235 357.952264 
L 111.256794 360.083383 
L 112.105622 362.20612 
L 112.975635 364.320263 
L 113.866745 366.4256 
L 114.778864 368.521921 
L 115.711901 370.609016 
L 116.665761 372.686676 
L 117.64035 374.754694 
L 118.635569 376.812863 
L 119.651321 378.860977 
L 120.687502 380.898832 
L 121.74401 382.926222 
L 122.820739 384.942947 
L 123.91758 386.948803 
L 125.034425 388.943591 
L 126.171162 390.927111 
L 127.327677 392.899165 
L 128.503854 394.859555 
L 129.699576 396.808086 
L 130.914723 398.744562 
L 132.149174 400.66879 
L 133.402805 402.580577 
L 134.675491 404.479733 
L 135.967105 406.366067 
L 137.277517 408.239391 
L 138.606596 410.099517 
L 139.95421 411.94626 
L 141.320224 413.779435 
L 142.7045 415.598858 
L 144.106902 417.404347 
L 145.527288 419.195723 
L 146.965516 420.972805 
L 148.421443 422.735416 
L 149.894923 424.48338 
L 151.385809 426.216522 
L 152.893951 427.934669 
L 154.419199 429.637649 
L 155.961401 431.325292 
L 157.520401 432.997428 
L 159.096044 434.653891 
L 160.688173 436.294515 
L 162.296629 437.919136 
L 163.913194 436.302571 
z
" clip-path="url(#pe830e1aa60)" style="fill: none; stroke: #000000; stroke-width: 0.5; stroke-linejoin: miter"/>
   </g>
   <g id="patch_12">
    <path d="M 97.622477 276.262623 
L 97.633794 273.999354 
L 97.667742 271.736311 
L 97.724318 269.473721 
L 97.803517 267.21181 
L 97.905331 264.950804 
L 98.02975 262.690929 
L 98.176761 260.432412 
L 98.346349 258.175477 
L 98.538498 255.920351 
L 98.753188 253.667259 
L 98.990397 251.416427 
L 99.250103 249.168079 
L 99.532279 246.922441 
L 99.836897 244.679737 
L 100.163926 242.440191 
L 100.513335 240.204027 
L 100.885086 237.971469 
L 101.279145 235.742741 
L 101.695471 233.518064 
L 102.134022 231.297661 
L 102.594755 229.081755 
L 103.077623 226.870567 
L 103.582579 224.664318 
L 104.109572 222.463229 
L 104.658549 220.26752 
L 105.229456 218.077411 
L 105.822234 215.89312 
L 106.436826 213.714865 
L 107.073169 211.542866 
L 107.731199 209.377338 
L 108.410852 207.218499 
L 109.112059 205.066564 
L 109.834749 202.921749 
L 110.578852 200.784268 
L 111.344291 198.654334 
L 112.130992 196.532162 
L 112.938874 194.417962 
L 113.767858 192.311947 
L 114.617859 190.214326 
L 115.488795 188.125311 
L 116.380576 186.045109 
L 117.293115 183.973929 
L 118.226319 181.911977 
L 119.180096 179.859461 
L 120.154351 177.816584 
L 121.148984 175.783553 
L 122.163899 173.760569 
L 123.198991 171.747835 
L 124.254159 169.745553 
L 125.329297 167.753922 
L 126.424297 165.773142 
L 127.53905 163.803411 
L 128.673444 161.844926 
L 129.827366 159.897882 
L 131.0007 157.962475 
L 132.193329 156.038898 
L 133.405134 154.127343 
L 134.635994 152.228001 
L 135.885786 150.341063 
L 137.154383 148.466717 
L 138.441661 146.60515 
L 139.74749 144.756549 
L 141.071739 142.921098 
L 142.414276 141.098982 
L 143.774967 139.290381 
L 145.153675 137.495478 
L 146.550263 135.714452 
L 147.964592 133.94748 
L 149.396519 132.194739 
L 150.845901 130.456406 
L 152.312594 128.732652 
L 153.796451 127.023652 
L 155.297324 125.329575 
L 156.815062 123.650592 
L 158.349514 121.986869 
L 159.900526 120.338574 
L 161.467943 118.705872 
L 163.051608 117.088924 
L 163.913194 116.222675 
L 162.296629 114.60611 
L 161.42634 115.481109 
L 159.826678 117.114389 
L 158.243429 118.763584 
L 156.67675 120.428528 
L 155.126799 122.109056 
L 153.59373 123.804999 
L 152.077697 125.516187 
L 150.578851 127.24245 
L 149.097343 128.983615 
L 147.63332 130.739508 
L 146.186929 132.509953 
L 144.758315 134.294773 
L 143.34762 136.09379 
L 141.954985 137.906823 
L 140.58055 139.733692 
L 139.224452 141.574214 
L 137.886827 143.428205 
L 136.567808 145.295478 
L 135.267527 147.175849 
L 133.986115 149.069128 
L 132.7237 150.975126 
L 131.480407 152.893653 
L 130.256362 154.824517 
L 129.051685 156.767524 
L 127.866499 158.722481 
L 126.700922 160.689191 
L 125.555069 162.667459 
L 124.429056 164.657087 
L 123.322996 166.657875 
L 122.236998 168.669623 
L 121.171172 170.69213 
L 120.125623 172.725195 
L 119.100458 174.768613 
L 118.095777 176.82218 
L 117.111682 178.885691 
L 116.148271 180.95894 
L 115.20564 183.041719 
L 114.283884 185.133821 
L 113.383094 187.235035 
L 112.503362 189.345151 
L 111.644774 191.46396 
L 110.807417 193.591248 
L 109.991374 195.726803 
L 109.196727 197.870412 
L 108.423556 200.02186 
L 107.671937 202.180932 
L 106.941947 204.347412 
L 106.233657 206.521084 
L 105.547139 208.701729 
L 104.882462 210.889131 
L 104.239691 213.08307 
L 103.618892 215.283327 
L 103.020126 217.489681 
L 102.443452 219.701913 
L 101.88893 221.919801 
L 101.356614 224.143123 
L 100.846558 226.371658 
L 100.358811 228.605181 
L 99.893425 230.84347 
L 99.450444 233.0863 
L 99.029913 235.333449 
L 98.631874 237.58469 
L 98.256367 239.839799 
L 97.903429 242.09855 
L 97.573097 244.360718 
L 97.265402 246.626076 
L 96.980376 248.894397 
L 96.718047 251.165455 
L 96.478441 253.439023 
L 96.261582 255.714874 
L 96.067493 257.992779 
L 95.896191 260.272511 
L 95.747696 262.553842 
L 95.62202 264.836544 
L 95.519178 267.120388 
L 95.439179 269.405147 
L 95.382031 271.690591 
L 95.34774 273.976493 
L 95.336309 276.262623 
L 97.622477 276.262623 
z
" clip-path="url(#pe830e1aa60)" style="fill: none; stroke: #000000; stroke-width: 0.5; stroke-linejoin: miter"/>
   </g>
   <g id="patch_13">
    <path d="M 163.913194 116.222675 
L 165.521569 114.630304 
L 167.145787 113.054096 
L 168.785685 111.494209 
L 170.4411 109.950799 
L 172.111866 108.42402 
L 173.797816 106.914024 
L 175.498781 105.420963 
L 177.214592 103.944986 
L 178.945077 102.486241 
L 180.690062 101.044873 
L 182.449373 99.621027 
L 184.222835 98.214845 
L 186.01027 96.826468 
L 187.811498 95.456034 
L 189.626341 94.10368 
L 191.454616 92.769542 
L 193.296142 91.453754 
L 195.150732 90.156446 
L 197.018203 88.877749 
L 198.898367 87.61779 
L 200.791037 86.376695 
L 202.696022 85.154589 
L 204.613134 83.951593 
L 206.542179 82.767828 
L 208.482965 81.603413 
L 210.435298 80.458463 
L 212.398983 79.333094 
L 214.373823 78.227417 
L 216.359621 77.141544 
L 218.356178 76.075583 
L 220.363295 75.02964 
L 222.380771 74.00382 
L 224.408404 72.998226 
L 226.445991 72.012959 
L 228.493329 71.048116 
L 230.550213 70.103794 
L 232.616437 69.180088 
L 234.691795 68.27709 
L 236.776078 67.394891 
L 238.86908 66.533578 
L 240.970589 65.693238 
L 243.080397 64.873955 
L 245.198292 64.07581 
L 247.324063 63.298884 
L 249.457496 62.543254 
L 251.598379 61.808996 
L 253.746497 61.096183 
L 255.901636 60.404887 
L 258.06358 59.735176 
L 260.232113 59.087117 
L 262.407018 58.460776 
L 264.588077 57.856215 
L 266.775073 57.273495 
L 268.967787 56.712673 
L 271.165999 56.173806 
L 273.36949 55.656948 
L 275.578039 55.16215 
L 277.791425 54.689462 
L 280.009428 54.238931 
L 282.231825 53.810602 
L 284.458394 53.404518 
L 286.688913 53.02072 
L 288.923158 52.659246 
L 291.160906 52.320132 
L 293.401933 52.003412 
L 295.646015 51.709118 
L 297.892928 51.437279 
L 300.142447 51.187923 
L 302.394347 50.961073 
L 304.648403 50.756754 
L 306.90439 50.574985 
L 309.162081 50.415785 
L 311.421251 50.279169 
L 313.681674 50.165151 
L 315.943125 50.073743 
L 318.205377 50.004953 
L 320.468203 49.958789 
L 322.731378 49.935256 
L 323.953142 49.931958 
L 323.953142 47.64579 
L 322.719037 47.649121 
L 320.433002 47.672892 
L 318.147318 47.719522 
L 315.862216 47.789007 
L 313.577922 47.881338 
L 311.294666 47.996508 
L 309.012676 48.134504 
L 306.73218 48.295312 
L 304.453406 48.478917 
L 302.176582 48.6853 
L 299.901935 48.914441 
L 297.629694 49.166316 
L 295.360085 49.440901 
L 293.093335 49.738168 
L 290.829671 50.058087 
L 288.56932 50.400626 
L 286.312507 50.765752 
L 284.059457 51.153426 
L 281.810398 51.563612 
L 279.565552 51.996267 
L 277.325145 52.451349 
L 275.089401 52.928812 
L 272.858544 53.428608 
L 270.632795 53.950687 
L 268.412379 54.494997 
L 266.197517 55.061483 
L 263.98843 55.65009 
L 261.78534 56.260758 
L 259.588466 56.893425 
L 257.398029 57.54803 
L 255.214247 58.224505 
L 253.037339 58.922785 
L 250.867523 59.642798 
L 248.705015 60.384473 
L 246.550032 61.147735 
L 244.402789 61.932509 
L 242.263501 62.738716 
L 240.132382 63.566275 
L 238.009645 64.415103 
L 235.895502 65.285116 
L 233.790165 66.176227 
L 231.693844 67.088345 
L 229.606749 68.021382 
L 227.529089 68.975242 
L 225.461071 69.949831 
L 223.402902 70.945051 
L 221.354787 71.960802 
L 219.316933 72.996983 
L 217.289542 74.053491 
L 215.272818 75.13022 
L 213.266961 76.227061 
L 211.272173 77.343907 
L 209.288653 78.480643 
L 207.3166 79.637158 
L 205.35621 80.813335 
L 203.407679 82.009057 
L 201.471203 83.224204 
L 199.546975 84.458655 
L 197.635188 85.712286 
L 195.736032 86.984972 
L 193.849698 88.276586 
L 191.976374 89.586998 
L 190.116247 90.916077 
L 188.269505 92.263691 
L 186.43633 93.629705 
L 184.616907 95.013981 
L 182.811418 96.416383 
L 181.020042 97.836769 
L 179.24296 99.274997 
L 177.480349 100.730924 
L 175.732385 102.204404 
L 173.999242 103.69529 
L 172.281096 105.203432 
L 170.578116 106.72868 
L 168.890473 108.270882 
L 167.218337 109.829882 
L 165.561874 111.405525 
L 163.92125 112.997655 
L 162.296629 114.60611 
L 163.913194 116.222675 
z
" clip-path="url(#pe830e1aa60)" style="fill: none; stroke: #000000; stroke-width: 0.5; stroke-linejoin: miter"/>
   </g>
   <g id="text_1">
    <text style="font: 3px 'DejaVu Sans', 'Bitstream Vera Sans', 'Computer Modern Sans Serif', 'Lucida Grande', 'Verdana', 'Geneva', 'Lucid', 'Arial', 'Helvetica', 'Avant Garde', sans-serif; text-anchor: start" x="488.074582" y="113.837907" transform="rotate(-45 488.074582 113.837907)">Universidad Nacional Autnoma de Nicaragua-Len</text>
   </g>
   <g id="text_2">
    <text style="font: 3px 'DejaVu Sans', 'Bitstream Vera Sans', 'Computer Modern Sans Serif', 'Lucida Grande', 'Verdana', 'Geneva', 'Lucid', 'Arial', 'Helvetica', 'Avant Garde', sans-serif; text-anchor: start" x="536.84353" y="365.678382" transform="rotate(-337.5 536.84353 365.678382)">Universidad Adventista de Nicaragua</text>
   </g>
   <g id="text_3">
    <text style="font: 3px 'DejaVu Sans', 'Bitstream Vera Sans', 'Computer Modern Sans Serif', 'Lucida Grande', 'Verdana', 'Geneva', 'Lucid', 'Arial', 'Helvetica', 'Avant Garde', sans-serif; text-anchor: end" x="325.092908" y="507.165624" transform="rotate(-90 325.092908 507.165624)">National Autonomous University of Nicaragua</text>
   </g>
   <g id="text_4">
    <text style="font: 3px 'DejaVu Sans', 'Bitstream Vera Sans', 'Computer Modern Sans Serif', 'Lucida Grande', 'Verdana', 'Geneva', 'Lucid', 'Arial', 'Helvetica', 'Avant Garde', sans-serif; text-anchor: end" x="111.062754" y="365.678382" transform="rotate(-22.5 111.062754 365.678382)">Universidad Jean-Jacques Rousseau</text>
   </g>
   <g id="text_5">
    <text style="font: 3px 'DejaVu Sans', 'Bitstream Vera Sans', 'Computer Modern Sans Serif', 'Lucida Grande', 'Verdana', 'Geneva', 'Lucid', 'Arial', 'Helvetica', 'Avant Garde', sans-serif; text-anchor: end" x="110.167454" y="189.008309" transform="rotate(-337.5 110.167454 189.008309)">Universidad Iberoamericana de Ciencias y Tecnologa</text>
   </g>
   <g id="text_6">
    <text style="font: 3px 'DejaVu Sans', 'Bitstream Vera Sans', 'Computer Modern Sans Serif', 'Lucida Grande', 'Verdana', 'Geneva', 'Lucid', 'Arial', 'Helvetica', 'Avant Garde', sans-serif; text-anchor: end" x="234.537383" y="63.372235" transform="rotate(-292.5 234.537383 63.372235)">Ministerio de Salud</text>
   </g>
  </g>
 </g>
 <defs>
  <clipPath id="pe830e1aa60">
   <path d="M 564.000817 276.262623 
C 564.000817 244.739851 557.791518 213.523599 545.728275 184.400355 
C 533.665033 155.277111 515.982446 128.81325 493.692481 106.523284 
C 471.402515 84.233319 444.938654 66.550732 415.81541 54.487489 
C 386.692166 42.424247 355.475914 36.214948 323.953142 36.214948 
C 292.43037 36.214948 261.214117 42.424247 232.090874 54.487489 
C 202.96763 66.550732 176.503769 84.233319 154.213803 106.523284 
C 131.923838 128.81325 114.241251 155.277111 102.178008 184.400355 
C 90.114766 213.523599 83.905467 244.739851 83.905467 276.262623 
C 83.905467 307.785395 90.114766 339.001647 102.178008 368.124891 
C 114.241251 397.248135 131.923838 423.711996 154.213803 446.001962 
C 176.503769 468.291927 202.96763 485.974514 232.090874 498.037757 
C 261.214117 510.100999 292.43037 516.310298 323.953142 516.310298 
C 355.475914 516.310298 386.692166 510.100999 415.81541 498.037757 
C 444.938654 485.974514 471.402515 468.291927 493.692481 446.001962 
C 515.982446 423.711996 533.665033 397.248135 545.728275 368.124891 
C 557.791518 339.001647 564.000817 307.785395 564.000817 276.262623 
M 323.953142 276.262623 
C 323.953142 276.262623 323.953142 276.262623 323.953142 276.262623 
C 323.953142 276.262623 323.953142 276.262623 323.953142 276.262623 
C 323.953142 276.262623 323.953142 276.262623 323.953142 276.262623 
C 323.953142 276.262623 323.953142 276.262623 323.953142 276.262623 
C 323.953142 276.262623 323.953142 276.262623 323.953142 276.262623 
C 323.953142 276.262623 323.953142 276.262623 323.953142 276.262623 
C 323.953142 276.262623 323.953142 276.262623 323.953142 276.262623 
C 323.953142 276.262623 323.953142 276.262623 323.953142 276.262623 
C 323.953142 276.262623 323.953142 276.262623 323.953142 276.262623 
C 323.953142 276.262623 323.953142 276.262623 323.953142 276.262623 
C 323.953142 276.262623 323.953142 276.262623 323.953142 276.262623 
C 323.953142 276.262623 323.953142 276.262623 323.953142 276.262623 
C 323.953142 276.262623 323.953142 276.262623 323.953142 276.262623 
C 323.953142 276.262623 323.953142 276.262623 323.953142 276.262623 
C 323.953142 276.262623 323.953142 276.262623 323.953142 276.262623 
C 323.953142 276.262623 323.953142 276.262623 323.953142 276.262623 
z
"/>
  </clipPath>
 </defs>
</svg>
