<?xml version="1.0" encoding="utf-8" standalone="no"?>
<!DOCTYPE svg PUBLIC "-//W3C//DTD SVG 1.1//EN"
  "http://www.w3.org/Graphics/SVG/1.1/DTD/svg11.dtd">
<svg xmlns:xlink="http://www.w3.org/1999/xlink" width="629.365254pt" height="513.282094pt" viewBox="0 0 629.365254 513.282094" xmlns="http://www.w3.org/2000/svg" version="1.1">
 <metadata>
  <rdf:RDF xmlns:dc="http://purl.org/dc/elements/1.1/" xmlns:cc="http://creativecommons.org/ns#" xmlns:rdf="http://www.w3.org/1999/02/22-rdf-syntax-ns#">
   <cc:Work>
    <dc:type rdf:resource="http://purl.org/dc/dcmitype/StillImage"/>
    <dc:date>2024-11-16T04:02:31.847774</dc:date>
    <dc:format>image/svg+xml</dc:format>
    <dc:creator>
     <cc:Agent>
      <dc:title>Matplotlib v3.8.4, https://matplotlib.org/</dc:title>
     </cc:Agent>
    </dc:creator>
   </cc:Work>
  </rdf:RDF>
 </metadata>
 <defs>
  <style type="text/css">*{stroke-linejoin: round; stroke-linecap: butt}</style>
 </defs>
 <g id="figure_1">
  <g id="patch_1">
   <path d="M 0 513.282094 
L 629.365254 513.282094 
L 629.365254 0 
L 0 0 
z
" style="fill: #ffffff"/>
  </g>
  <g id="axes_1">
   <g id="patch_2">
    <path d="M 292.385361 48.60806 
L 294.465656 48.618461 
L 296.545744 48.649665 
L 298.625415 48.701668 
L 300.704462 48.774464 
L 302.782677 48.868047 
L 304.859853 48.982407 
L 306.935781 49.117533 
L 309.010254 49.27341 
L 311.083064 49.450025 
L 313.154005 49.647358 
L 315.222869 49.865391 
L 317.289449 50.104101 
L 319.353539 50.363464 
L 321.414932 50.643455 
L 323.473422 50.944046 
L 325.528804 51.265206 
L 327.580871 51.606904 
L 329.629418 51.969105 
L 331.674241 52.351773 
L 333.715135 52.754869 
L 335.751897 53.178354 
L 337.784322 53.622185 
L 339.812206 54.086318 
L 341.835349 54.570707 
L 343.853546 55.075302 
L 345.866596 55.600053 
L 347.874299 56.144908 
L 349.876452 56.709813 
L 351.872857 57.294711 
L 353.863312 57.899543 
L 355.847621 58.52425 
L 357.825582 59.168767 
L 359.797 59.833032 
L 361.761677 60.516978 
L 363.719416 61.220535 
L 365.670022 61.943635 
L 367.6133 62.686204 
L 369.549054 63.448169 
L 371.477093 64.229452 
L 373.397222 65.029977 
L 375.30925 65.849663 
L 377.212986 66.688427 
L 379.108239 67.546187 
L 380.99482 68.422856 
L 382.87254 69.318346 
L 384.741212 70.232569 
L 386.600648 71.165433 
L 388.450662 72.116844 
L 390.29107 73.086707 
L 392.121688 74.074925 
L 393.942332 75.0814 
L 395.75282 76.106031 
L 397.552972 77.148715 
L 399.342607 78.209348 
L 401.121547 79.287824 
L 402.889613 80.384035 
L 404.646628 81.497872 
L 406.392418 82.629223 
L 408.126807 83.777975 
L 409.849622 84.944014 
L 411.56069 86.127221 
L 413.259841 87.32748 
L 414.946905 88.544671 
L 416.621713 89.77867 
L 418.284097 91.029356 
L 419.933891 92.296603 
L 421.570931 93.580284 
L 423.195052 94.880272 
L 424.806093 96.196435 
L 426.403891 97.528642 
L 427.988288 98.876761 
L 429.559124 100.240655 
L 431.116243 101.62019 
L 432.65949 103.015227 
L 434.188708 104.425626 
L 435.703747 105.851246 
L 437.204454 107.291946 
L 438.690679 108.74758 
L 440.162274 110.218003 
L 441.619092 111.703069 
L 443.060986 113.202628 
L 444.487812 114.716531 
L 445.899429 116.244627 
L 447.295694 117.786761 
L 448.676468 119.342782 
L 450.041613 120.912532 
L 451.390993 122.495854 
L 452.724472 124.092591 
L 454.041918 125.702583 
L 455.343198 127.325668 
L 456.628182 128.961685 
L 457.896743 130.61047 
L 459.148752 132.271858 
L 460.384085 133.945682 
L 461.602618 135.631776 
L 462.80423 137.329971 
L 463.9888 139.040097 
L 465.15621 140.761983 
L 466.306343 142.495456 
L 467.439084 144.240344 
L 468.554319 145.996472 
L 469.651938 147.763665 
L 470.731831 149.541745 
L 471.793889 151.330535 
L 472.838006 153.129856 
L 473.864078 154.939527 
L 474.872002 156.759369 
L 475.861678 158.589199 
L 476.833007 160.428835 
L 477.78589 162.278091 
L 478.720234 164.136783 
L 479.635945 166.004726 
L 480.53293 167.881733 
L 481.411101 169.767615 
L 482.27037 171.662184 
L 483.11065 173.565252 
L 483.931858 175.476627 
L 484.733912 177.396118 
L 485.516731 179.323533 
L 486.280236 181.258681 
L 487.024353 183.201366 
L 487.749005 185.151396 
L 488.454122 187.108574 
L 489.139632 189.072706 
L 489.805466 191.043594 
L 490.451559 193.021042 
L 491.077845 195.004852 
L 491.684262 196.994825 
L 492.27075 198.990763 
L 492.837249 200.992467 
L 493.383703 202.999734 
L 493.910057 205.012366 
L 494.416259 207.030161 
L 494.902258 209.052917 
L 495.368006 211.080432 
L 495.813455 213.112502 
L 496.238562 215.148926 
L 496.643284 217.189498 
L 497.02758 219.234016 
L 497.391412 221.282274 
L 497.734744 223.334069 
L 498.057541 225.389194 
L 498.35977 227.447444 
L 498.641403 229.508613 
L 498.90241 231.572496 
L 499.142766 233.638885 
L 499.362446 235.707575 
L 499.561428 237.778358 
L 499.739693 239.851027 
L 499.897223 241.925376 
L 500.034002 244.001195 
L 500.150016 246.078279 
L 500.245253 248.156419 
L 500.319705 250.235408 
L 500.373364 252.315037 
L 500.406224 254.395098 
L 500.418282 256.475385 
L 500.409537 258.555687 
L 500.37999 260.635799 
L 500.329644 262.715511 
L 500.258503 264.794615 
L 500.166575 266.872904 
L 500.053869 268.95017 
L 499.920397 271.026205 
L 499.766171 273.100802 
L 499.591207 275.173752 
L 499.395523 277.24485 
L 499.179138 279.313886 
L 498.942074 281.380656 
L 498.684354 283.444952 
L 498.406004 285.506567 
L 498.107053 287.565296 
L 497.78753 289.620933 
L 497.447466 291.673271 
L 497.086897 293.722106 
L 496.705858 295.767233 
L 496.304386 297.808448 
L 495.882523 299.845546 
L 495.440311 301.878323 
L 494.977793 303.906577 
L 494.495016 305.930105 
L 493.992028 307.948703 
L 493.46888 309.962171 
L 492.925623 311.970306 
L 492.362313 313.972909 
L 491.779005 315.969779 
L 491.175758 317.960716 
L 490.552632 319.94552 
L 489.90969 321.923995 
L 489.246995 323.895941 
L 488.564614 325.861162 
L 487.862616 327.819461 
L 487.14107 329.770642 
L 486.400048 331.71451 
L 485.639626 333.650871 
L 484.859877 335.579531 
L 484.060882 337.500297 
L 483.242719 339.412977 
L 482.405471 341.317381 
L 481.549221 343.213316 
L 480.674055 345.100595 
L 479.78006 346.979027 
L 478.867325 348.848426 
L 477.935943 350.708605 
L 476.986005 352.559376 
L 476.017608 354.400556 
L 475.030848 356.23196 
L 474.025823 358.053405 
L 473.002634 359.864709 
L 471.961384 361.66569 
L 470.902177 363.456169 
L 469.825117 365.235967 
L 468.730314 367.004905 
L 467.617877 368.762807 
L 466.487916 370.509497 
L 465.340546 372.2448 
L 464.17588 373.968543 
L 462.994035 375.680553 
L 461.795129 377.38066 
L 460.579283 379.068692 
L 459.346617 380.744482 
L 458.097256 382.407862 
L 456.831323 384.058665 
L 455.548946 385.696726 
L 454.250252 387.321882 
L 452.935373 388.93397 
L 451.604438 390.532829 
L 450.257582 392.118298 
L 448.894938 393.69022 
L 447.516644 395.248438 
L 446.122837 396.792794 
L 444.713656 398.323136 
L 443.289242 399.83931 
L 441.849738 401.341163 
L 440.395288 402.828547 
L 438.926037 404.301313 
L 437.442132 405.759312 
L 435.943721 407.2024 
L 434.430955 408.630431 
L 432.903984 410.043264 
L 431.362962 411.440757 
L 429.808042 412.82277 
L 428.239379 414.189165 
L 426.657132 415.539805 
L 425.061457 416.874555 
L 423.452515 418.193283 
L 421.830466 419.495855 
L 420.195473 420.782142 
L 418.547699 422.052014 
L 416.887309 423.305346 
L 415.214469 424.542012 
L 413.529346 425.761887 
L 411.832108 426.964851 
L 410.122926 428.150783 
L 408.401971 429.319563 
L 406.669414 430.471076 
L 404.925428 431.605206 
L 403.170189 432.72184 
L 401.403871 433.820866 
L 399.626651 434.902174 
L 397.838708 435.965656 
L 396.040219 437.011206 
L 394.231365 438.038718 
L 392.412326 439.048092 
L 390.583285 440.039224 
L 388.744424 441.012017 
L 386.895927 441.966374 
L 385.037979 442.902197 
L 383.170766 443.819395 
L 381.294474 444.717875 
L 379.409292 445.597548 
L 377.515407 446.458325 
L 375.61301 447.30012 
L 373.702289 448.12285 
L 371.783437 448.926432 
L 369.856646 449.710785 
L 367.922107 450.475832 
L 365.980015 451.221495 
L 364.030563 451.9477 
L 362.073947 452.654375 
L 360.110362 453.341449 
L 358.140004 454.008852 
L 356.163071 454.656519 
L 354.179761 455.284385 
L 352.190271 455.892387 
L 350.1948 456.480464 
L 348.193549 457.048556 
L 346.186717 457.596609 
L 344.174505 458.124566 
L 342.157114 458.632374 
L 340.134746 459.119984 
L 338.107603 459.587346 
L 336.075887 460.034414 
L 334.039803 460.461142 
L 331.999553 460.867489 
L 329.955342 461.253413 
L 327.907374 461.618876 
L 325.855854 461.963841 
L 323.800987 462.288274 
L 321.742978 462.592143 
L 319.682033 462.875417 
L 317.618359 463.138067 
L 315.552162 463.380068 
L 313.483648 463.601396 
L 311.413024 463.802027 
L 309.340497 463.981943 
L 307.266275 464.141124 
L 305.190565 464.279556 
L 303.113574 464.397224 
L 301.035511 464.494117 
L 298.956582 464.570224 
L 296.876996 464.625539 
L 294.796961 464.660055 
L 292.716686 464.67377 
L 292.385361 464.674034 
L 292.385361 466.775377 
L 292.720032 466.775111 
L 294.821321 466.761257 
L 296.922366 466.726392 
L 299.022958 466.670519 
L 301.122886 466.593643 
L 303.22194 466.495771 
L 305.31991 466.376915 
L 307.416587 466.237085 
L 309.511761 466.076295 
L 311.605223 465.894562 
L 313.696762 465.691904 
L 315.78617 465.468341 
L 317.873238 465.223896 
L 319.957757 464.958592 
L 322.03952 464.672457 
L 324.118316 464.365519 
L 326.19394 464.037809 
L 328.266182 463.689359 
L 330.334837 463.320204 
L 332.399697 462.930382 
L 334.460555 462.519931 
L 336.517206 462.088892 
L 338.569443 461.637309 
L 340.617063 461.165226 
L 342.659859 460.672691 
L 344.697627 460.159753 
L 346.730165 459.626463 
L 348.757268 459.072875 
L 350.778734 458.499043 
L 352.794361 457.905027 
L 354.803947 457.290884 
L 356.807291 456.656676 
L 358.804193 456.002467 
L 360.794453 455.328321 
L 362.777872 454.634307 
L 364.754252 453.920495 
L 366.723395 453.186954 
L 368.685104 452.433759 
L 370.639184 451.660984 
L 372.585438 450.868708 
L 374.523672 450.05701 
L 376.453693 449.225969 
L 378.375307 448.375671 
L 380.288322 447.506199 
L 382.192546 446.617641 
L 384.08779 445.710085 
L 385.973864 444.783623 
L 387.850579 443.838347 
L 389.717747 442.87435 
L 391.575183 441.891731 
L 393.422699 440.890587 
L 395.260112 439.871018 
L 397.087238 438.833126 
L 398.903893 437.777016 
L 400.709897 436.702791 
L 402.505068 435.610561 
L 404.289227 434.500434 
L 406.062196 433.372521 
L 407.823798 432.226935 
L 409.573856 431.063791 
L 411.312195 429.883204 
L 413.038641 428.685294 
L 414.753022 427.470179 
L 416.455167 426.237981 
L 418.144904 424.988824 
L 419.822066 423.722832 
L 421.486484 422.440132 
L 423.137993 421.140853 
L 424.776426 419.825123 
L 426.40162 418.493076 
L 428.013412 417.144843 
L 429.611642 415.78056 
L 431.19615 414.400363 
L 432.766776 413.00439 
L 434.323364 411.592781 
L 435.865759 410.165678 
L 437.393806 408.723221 
L 438.907352 407.265557 
L 440.406246 405.79283 
L 441.890338 404.305189 
L 443.359479 402.802781 
L 444.813524 401.285757 
L 446.252325 399.754268 
L 447.67574 398.208469 
L 449.083627 396.648512 
L 450.475843 395.074556 
L 451.852251 393.486755 
L 453.212712 391.885271 
L 454.55709 390.270262 
L 455.885251 388.64189 
L 457.197063 387.000319 
L 458.492393 385.345711 
L 459.771113 383.678234 
L 461.033095 381.998052 
L 462.278212 380.305335 
L 463.506339 378.600252 
L 464.717355 376.882973 
L 465.911138 375.153669 
L 467.087568 373.412515 
L 468.246528 371.659683 
L 469.387902 369.89535 
L 470.511576 368.119692 
L 471.617438 366.332885 
L 472.705377 364.53511 
L 473.775283 362.726545 
L 474.827051 360.907372 
L 475.860575 359.077772 
L 476.875752 357.237929 
L 477.872479 355.388026 
L 478.850658 353.528248 
L 479.810191 351.658782 
L 480.750981 349.779814 
L 481.672935 347.891532 
L 482.575961 345.994126 
L 483.459967 344.087784 
L 484.324866 342.172697 
L 485.170572 340.249058 
L 485.996999 338.317057 
L 486.804065 336.376889 
L 487.591689 334.428748 
L 488.359793 332.472828 
L 489.108299 330.509325 
L 489.837134 328.538435 
L 490.546223 326.560355 
L 491.235496 324.575284 
L 491.904885 322.583419 
L 492.554322 320.58496 
L 493.183742 318.580106 
L 493.793082 316.569059 
L 494.382282 314.552019 
L 494.951283 312.529188 
L 495.500026 310.500768 
L 496.028459 308.466962 
L 496.536527 306.427974 
L 497.024181 304.384007 
L 497.491371 302.335266 
L 497.93805 300.281955 
L 498.364174 298.22428 
L 498.769701 296.162447 
L 499.154589 294.096662 
L 499.518801 292.027132 
L 499.862299 289.954063 
L 500.18505 287.877662 
L 500.487021 285.798138 
L 500.768182 283.715698 
L 501.028505 281.630551 
L 501.267964 279.542905 
L 501.486535 277.452969 
L 501.684195 275.360951 
L 501.860926 273.267062 
L 502.01671 271.17151 
L 502.151531 269.074505 
L 502.265375 266.976256 
L 502.358232 264.876974 
L 502.430091 262.776869 
L 502.480946 260.67615 
L 502.510792 258.575027 
L 502.519625 256.473711 
L 502.507445 254.372412 
L 502.474253 252.27134 
L 502.420052 250.170704 
L 502.344848 248.070716 
L 502.248648 245.971584 
L 502.131463 243.87352 
L 501.993302 241.776732 
L 501.834181 239.681431 
L 501.654116 237.587826 
L 501.453123 235.496126 
L 501.231224 233.40654 
L 500.988441 231.319278 
L 500.724797 229.234548 
L 500.44032 227.152559 
L 500.135037 225.073518 
L 499.80898 222.997635 
L 499.46218 220.925115 
L 499.094673 218.856167 
L 498.706495 216.790998 
L 498.297685 214.729813 
L 497.868285 212.67282 
L 497.418336 210.620223 
L 496.947883 208.572229 
L 496.456975 206.529041 
L 495.94566 204.490865 
L 495.413989 202.457903 
L 494.862015 200.43036 
L 494.289794 198.408437 
L 493.697382 196.392338 
L 493.08484 194.382264 
L 492.452228 192.378416 
L 491.799609 190.380993 
L 491.127049 188.390197 
L 490.434614 186.406226 
L 489.722376 184.429278 
L 488.990403 182.459551 
L 488.23877 180.497243 
L 487.467552 178.542548 
L 486.676826 176.595664 
L 485.866671 174.656784 
L 485.037168 172.726102 
L 484.188401 170.803812 
L 483.320452 168.890105 
L 482.433411 166.985174 
L 481.527365 165.089208 
L 480.602405 163.202397 
L 479.658623 161.32493 
L 478.696114 159.456994 
L 477.714974 157.598777 
L 476.715302 155.750464 
L 475.697196 153.912239 
L 474.66076 152.084288 
L 473.606096 150.266792 
L 472.53331 148.459934 
L 471.44251 146.663893 
L 470.333804 144.87885 
L 469.207303 143.104984 
L 468.06312 141.34247 
L 466.90137 139.591487 
L 465.722168 137.852208 
L 464.525633 136.124809 
L 463.311884 134.40946 
L 462.081042 132.706335 
L 460.833231 131.015603 
L 459.568575 129.337434 
L 458.287201 127.671995 
L 456.989237 126.019452 
L 455.674812 124.379972 
L 454.344059 122.753718 
L 452.997111 121.140852 
L 451.634101 119.541536 
L 450.255166 117.95593 
L 448.860445 116.384193 
L 447.450076 114.826481 
L 446.0242 113.28295 
L 444.582962 111.753755 
L 443.126503 110.239049 
L 441.65497 108.738983 
L 440.168511 107.253707 
L 438.667273 105.783369 
L 437.151408 104.328117 
L 435.621066 102.888096 
L 434.0764 101.463451 
L 432.517565 100.054323 
L 430.944718 98.660853 
L 429.358014 97.283182 
L 427.757613 95.921446 
L 426.143676 94.575782 
L 424.516362 93.246324 
L 422.875836 91.933206 
L 421.22226 90.636558 
L 419.555801 89.356511 
L 417.876625 88.093192 
L 416.1849 86.846728 
L 414.480796 85.617242 
L 412.764481 84.40486 
L 411.036129 83.2097 
L 409.295912 82.031884 
L 407.544004 80.871528 
L 405.78058 79.728749 
L 404.005817 78.603661 
L 402.219892 77.496377 
L 400.422983 76.407007 
L 398.615271 75.335661 
L 396.796936 74.282445 
L 394.96816 73.247464 
L 393.129126 72.230823 
L 391.280017 71.232622 
L 389.421019 70.252963 
L 387.552317 69.291942 
L 385.674099 68.349655 
L 383.786552 67.426198 
L 381.889865 66.521662 
L 379.984228 65.636138 
L 378.069831 64.769714 
L 376.146865 63.922477 
L 374.215524 63.094512 
L 372.275999 62.285901 
L 370.328486 61.496726 
L 368.373178 60.727064 
L 366.410271 59.976995 
L 364.439962 59.246591 
L 362.462448 58.535927 
L 360.477926 57.845073 
L 358.486595 57.174098 
L 356.488653 56.52307 
L 354.484302 55.892053 
L 352.47374 55.281112 
L 350.45717 54.690306 
L 348.434793 54.119695 
L 346.406811 53.569336 
L 344.373426 53.039284 
L 342.334843 52.529592 
L 340.291265 52.040311 
L 338.242897 51.57149 
L 336.189943 51.123176 
L 334.132608 50.695413 
L 332.071099 50.288245 
L 330.005621 49.901711 
L 327.936381 49.535852 
L 325.863586 49.190703 
L 323.787443 48.866299 
L 321.70816 48.562672 
L 319.625945 48.279852 
L 317.541006 48.017869 
L 315.453551 47.776748 
L 313.363789 47.556513 
L 311.27193 47.357186 
L 309.178182 47.178788 
L 307.082755 47.021335 
L 304.985858 46.884845 
L 302.8877 46.76933 
L 300.788493 46.674802 
L 298.688446 46.60127 
L 296.587768 46.548742 
L 294.486669 46.517223 
L 292.385361 46.506717 
z
" clip-path="url(#pace24bab17)" style="fill: #000080"/>
   </g>
   <g id="patch_3">
    <path d="M 292.385361 464.674034 
L 290.305066 464.663632 
L 288.224979 464.632429 
L 286.145308 464.580426 
L 284.066261 464.50763 
L 281.988045 464.414047 
L 279.91087 464.299687 
L 277.834942 464.164561 
L 275.760469 464.008683 
L 273.687658 463.832069 
L 271.616717 463.634736 
L 269.547853 463.416703 
L 267.481273 463.177993 
L 265.417183 462.918629 
L 263.35579 462.638638 
L 261.2973 462.338048 
L 259.241919 462.016888 
L 257.189852 461.67519 
L 255.141304 461.312989 
L 253.096481 460.930321 
L 251.055587 460.527225 
L 249.018826 460.103739 
L 246.986401 459.659908 
L 244.958516 459.195775 
L 242.935374 458.711387 
L 240.917177 458.206792 
L 238.904126 457.682041 
L 236.896424 457.137185 
L 234.89427 456.57228 
L 232.897866 455.987383 
L 230.90741 455.38255 
L 228.923102 454.757844 
L 226.94514 454.113326 
L 224.973722 453.449061 
L 223.009045 452.765116 
L 221.051306 452.061558 
L 219.1007 451.338459 
L 217.157423 450.595889 
L 215.221668 449.833925 
L 213.29363 449.052641 
L 211.3735 448.252117 
L 209.461472 447.432431 
L 207.557736 446.593667 
L 205.662483 445.735907 
L 203.775902 444.859238 
L 201.898182 443.963747 
L 200.02951 443.049524 
L 198.170074 442.116661 
L 196.32006 441.16525 
L 194.479652 440.195387 
L 192.649034 439.207169 
L 190.82839 438.200694 
L 189.017902 437.176063 
L 187.21775 436.133379 
L 185.428115 435.072746 
L 183.649176 433.99427 
L 181.88111 432.898058 
L 180.124094 431.784222 
L 178.378305 430.65287 
L 176.643916 429.504118 
L 174.921101 428.33808 
L 173.210032 427.154872 
L 171.510881 425.954613 
L 169.823817 424.737423 
L 168.14901 423.503423 
L 166.486625 422.252737 
L 164.836831 420.985491 
L 163.199791 419.701809 
L 161.57567 418.401822 
L 159.96463 417.085659 
L 158.366831 415.753452 
L 156.782435 414.405333 
L 155.211598 413.041438 
L 153.654479 411.661904 
L 152.111233 410.266867 
L 150.582014 408.856468 
L 149.066975 407.430847 
L 147.566268 405.990148 
L 146.080043 404.534514 
L 144.608448 403.06409 
L 143.151631 401.579025 
L 141.709737 400.079465 
L 140.28291 398.565562 
L 138.871294 397.037467 
L 137.475029 395.495332 
L 136.094254 393.939312 
L 134.729109 392.369562 
L 133.379729 390.78624 
L 132.04625 389.189503 
L 130.728804 387.579511 
L 129.427524 385.956425 
L 128.14254 384.320408 
L 126.87398 382.671624 
L 125.62197 381.010236 
L 124.386637 379.336411 
L 123.168104 377.650317 
L 121.966492 375.952123 
L 120.781922 374.241997 
L 119.614512 372.520111 
L 118.46438 370.786638 
L 117.331639 369.041749 
L 116.216403 367.285621 
L 115.118784 365.518429 
L 114.038892 363.740349 
L 112.976834 361.951559 
L 111.932717 360.152238 
L 110.906644 358.342566 
L 109.89872 356.522724 
L 108.909044 354.692894 
L 107.937716 352.853259 
L 106.984832 351.004003 
L 106.050488 349.14531 
L 105.134778 347.277368 
L 104.237792 345.400361 
L 103.359621 343.514479 
L 102.500352 341.619909 
L 101.660072 339.716842 
L 100.838864 337.805467 
L 100.036811 335.885976 
L 99.253992 333.95856 
L 98.490486 332.023413 
L 97.74637 330.080727 
L 97.021717 328.130698 
L 96.3166 326.17352 
L 95.631091 324.209388 
L 94.965256 322.2385 
L 94.319163 320.261052 
L 93.692877 318.277242 
L 93.08646 316.287268 
L 92.499973 314.29133 
L 91.933474 312.289627 
L 91.38702 310.282359 
L 90.860665 308.269727 
L 90.354463 306.251933 
L 89.868464 304.229177 
L 89.402716 302.201662 
L 88.957267 300.169592 
L 88.53216 298.133168 
L 88.127438 296.092595 
L 87.743142 294.048078 
L 87.37931 291.999819 
L 87.035979 289.948025 
L 86.713182 287.8929 
L 86.410952 285.83465 
L 86.129319 283.773481 
L 85.868312 281.709598 
L 85.627957 279.643208 
L 85.408277 277.574519 
L 85.209294 275.503736 
L 85.031029 273.431066 
L 84.8735 271.356718 
L 84.736721 269.280898 
L 84.620707 267.203815 
L 84.525469 265.125675 
L 84.451017 263.046686 
L 84.397358 260.967057 
L 84.364498 258.886995 
L 84.35244 256.806709 
L 84.361185 254.726406 
L 84.390732 252.646295 
L 84.441079 250.566583 
L 84.512219 248.487479 
L 84.604147 246.409189 
L 84.716853 244.331924 
L 84.850326 242.255889 
L 85.004552 240.181292 
L 85.179515 238.108341 
L 85.3752 236.037244 
L 85.591585 233.968207 
L 85.828649 231.901438 
L 86.086368 229.837142 
L 86.364718 227.775527 
L 86.663669 225.716798 
L 86.983193 223.661161 
L 87.323256 221.608823 
L 87.683825 219.559987 
L 88.064865 217.51486 
L 88.466336 215.473646 
L 88.888199 213.436548 
L 89.330412 211.40377 
L 89.79293 209.375516 
L 90.275707 207.351989 
L 90.778694 205.333391 
L 91.301843 203.319923 
L 91.845099 201.311787 
L 92.408409 199.309185 
L 92.991717 197.312315 
L 93.594964 195.321378 
L 94.21809 193.336573 
L 94.861033 191.358099 
L 95.523727 189.386153 
L 96.206108 187.420932 
L 96.908106 185.462633 
L 97.629653 183.511452 
L 98.370674 181.567584 
L 99.131097 179.631223 
L 99.910845 177.702563 
L 100.70984 175.781797 
L 101.528003 173.869116 
L 102.365251 171.964713 
L 103.221501 170.068777 
L 104.096668 168.181499 
L 104.990663 166.303066 
L 105.903397 164.433667 
L 106.83478 162.573489 
L 107.784717 160.722718 
L 108.753114 158.881538 
L 109.739875 157.050134 
L 110.744899 155.228689 
L 111.768088 153.417385 
L 112.809338 151.616404 
L 113.868546 149.825925 
L 114.945605 148.046127 
L 116.040408 146.277189 
L 117.152845 144.519287 
L 118.282806 142.772597 
L 119.430176 141.037294 
L 120.594842 139.313551 
L 121.776687 137.60154 
L 122.975593 135.901434 
L 124.191439 134.213402 
L 125.424105 132.537612 
L 126.673467 130.874232 
L 127.939399 129.223429 
L 129.221776 127.585368 
L 130.52047 125.960212 
L 131.83535 124.348124 
L 133.166284 122.749265 
L 134.513141 121.163795 
L 135.875784 119.591873 
L 137.254078 118.033656 
L 138.647886 116.489299 
L 140.057067 114.958958 
L 141.48148 113.442784 
L 142.920984 111.94093 
L 144.375434 110.453546 
L 145.844685 108.980781 
L 147.32859 107.522782 
L 148.827001 106.079694 
L 150.339767 104.651662 
L 151.866738 103.23883 
L 153.407761 101.841337 
L 154.962681 100.459324 
L 156.531343 99.092929 
L 158.113591 97.742289 
L 159.709265 96.407538 
L 161.318207 95.088811 
L 162.940256 93.786239 
L 164.575249 92.499952 
L 166.223023 91.230079 
L 167.883413 89.976747 
L 169.556254 88.740082 
L 171.241377 87.520206 
L 172.938614 86.317243 
L 174.647796 85.131311 
L 176.368752 83.962531 
L 178.101309 82.811018 
L 179.845294 81.676888 
L 181.600534 80.560254 
L 183.366851 79.461228 
L 185.144071 78.37992 
L 186.932015 77.316438 
L 188.730503 76.270888 
L 190.539358 75.243375 
L 192.358396 74.234002 
L 194.187438 73.242869 
L 196.026299 72.270076 
L 197.874796 71.31572 
L 199.732743 70.379896 
L 201.599957 69.462699 
L 203.476248 68.564219 
L 205.36143 67.684546 
L 207.255315 66.823769 
L 209.157713 65.981974 
L 211.068433 65.159244 
L 212.987285 64.355662 
L 214.914077 63.571309 
L 216.848615 62.806262 
L 218.790708 62.060599 
L 220.740159 61.334394 
L 222.696776 60.627719 
L 224.660361 59.940645 
L 226.630718 59.273241 
L 228.607651 58.625574 
L 230.590962 57.997708 
L 232.580452 57.389707 
L 234.575922 56.80163 
L 236.577173 56.233537 
L 238.584005 55.685485 
L 240.596218 55.157528 
L 242.613609 54.649719 
L 244.635977 54.16211 
L 246.66312 53.694748 
L 248.694835 53.24768 
L 250.730919 52.820952 
L 252.771169 52.414605 
L 254.81538 52.028681 
L 256.863348 51.663218 
L 258.914868 51.318253 
L 260.969736 50.993819 
L 263.027744 50.689951 
L 265.088689 50.406677 
L 267.152363 50.144026 
L 269.21856 49.902025 
L 271.287075 49.680698 
L 273.357698 49.480067 
L 275.430225 49.300151 
L 277.504447 49.14097 
L 279.580157 49.002538 
L 281.657148 48.88487 
L 283.735212 48.787977 
L 285.81414 48.71187 
L 287.893726 48.656555 
L 289.973761 48.622038 
L 292.054037 48.608324 
L 292.385361 48.60806 
L 292.385361 46.506717 
L 292.05069 46.506983 
L 289.949401 46.520836 
L 287.848356 46.555701 
L 285.747764 46.611575 
L 283.647837 46.688451 
L 281.548782 46.786322 
L 279.450812 46.905179 
L 277.354135 47.045009 
L 275.258961 47.205799 
L 273.1655 47.387531 
L 271.073961 47.590189 
L 268.984552 47.813752 
L 266.897484 48.058198 
L 264.812965 48.323501 
L 262.731203 48.609637 
L 260.652406 48.916575 
L 258.576783 49.244285 
L 256.50454 49.592735 
L 254.435885 49.96189 
L 252.371026 50.351712 
L 250.310167 50.762163 
L 248.253517 51.193202 
L 246.201279 51.644785 
L 244.15366 52.116868 
L 242.110864 52.609403 
L 240.073095 53.122341 
L 238.040557 53.655631 
L 236.013454 54.209219 
L 233.991988 54.78305 
L 231.976362 55.377067 
L 229.966776 55.99121 
L 227.963432 56.625418 
L 225.96653 57.279627 
L 223.97627 57.953772 
L 221.992851 58.647786 
L 220.016471 59.361599 
L 218.047327 60.09514 
L 216.085618 60.848335 
L 214.131538 61.621109 
L 212.185284 62.413385 
L 210.24705 63.225084 
L 208.317029 64.056124 
L 206.395416 64.906423 
L 204.482401 65.775895 
L 202.578176 66.664453 
L 200.682932 67.572008 
L 198.796858 68.498471 
L 196.920143 69.443747 
L 195.052975 70.407743 
L 193.195539 71.390362 
L 191.348023 72.391507 
L 189.51061 73.411076 
L 187.683485 74.448967 
L 185.866829 75.505078 
L 184.060826 76.579302 
L 182.265654 77.671533 
L 180.481495 78.78166 
L 178.708526 79.909573 
L 176.946924 81.055159 
L 175.196867 82.218303 
L 173.458528 83.39889 
L 171.732081 84.5968 
L 170.0177 85.811915 
L 168.315556 87.044113 
L 166.625818 88.29327 
L 164.948656 89.559261 
L 163.284238 90.841961 
L 161.63273 92.141241 
L 159.994297 93.45697 
L 158.369103 94.789018 
L 156.75731 96.137251 
L 155.15908 97.501534 
L 153.574573 98.881731 
L 152.003946 100.277703 
L 150.447358 101.689312 
L 148.904963 103.116416 
L 147.376917 104.558872 
L 145.863371 106.016537 
L 144.364477 107.489263 
L 142.880385 108.976905 
L 141.411243 110.479313 
L 139.957199 111.996337 
L 138.518397 113.527825 
L 137.094982 115.073625 
L 135.687096 116.633581 
L 134.294879 118.207538 
L 132.918472 119.795338 
L 131.558011 121.396823 
L 130.213632 123.011832 
L 128.885471 124.640203 
L 127.573659 126.281775 
L 126.278329 127.936382 
L 124.999609 129.60386 
L 123.737628 131.284042 
L 122.492511 132.976759 
L 121.264383 134.681842 
L 120.053367 136.399121 
L 118.859585 138.128424 
L 117.683154 139.869579 
L 116.524194 141.62241 
L 115.38282 143.386744 
L 114.259146 145.162402 
L 113.153284 146.949209 
L 112.065346 148.746984 
L 110.995439 150.555549 
L 109.943671 152.374722 
L 108.910147 154.204322 
L 107.894971 156.044165 
L 106.898243 157.894068 
L 105.920064 159.753846 
L 104.960531 161.623312 
L 104.019741 163.50228 
L 103.097787 165.390561 
L 102.194762 167.287968 
L 101.310755 169.19431 
L 100.445856 171.109397 
L 99.600151 173.033036 
L 98.773724 174.965037 
L 97.966658 176.905204 
L 97.179034 178.853346 
L 96.41093 180.809266 
L 95.662423 182.772769 
L 94.933589 184.743659 
L 94.224499 186.721739 
L 93.535226 188.70681 
L 92.865837 190.698675 
L 92.2164 192.697134 
L 91.58698 194.701988 
L 90.97764 196.713035 
L 90.38844 198.730075 
L 89.81944 200.752906 
L 89.270696 202.781326 
L 88.742263 204.815132 
L 88.234195 206.85412 
L 87.746541 208.898087 
L 87.279352 210.946828 
L 86.832672 213.000139 
L 86.406548 215.057813 
L 86.001021 217.119646 
L 85.616133 219.185431 
L 85.251922 221.254962 
L 84.908423 223.328031 
L 84.585672 225.404432 
L 84.283701 227.483956 
L 84.00254 229.566395 
L 83.742217 231.651543 
L 83.502759 233.739189 
L 83.284188 235.829125 
L 83.086527 237.921142 
L 82.909796 240.015032 
L 82.754012 242.110584 
L 82.619192 244.207589 
L 82.505347 246.305837 
L 82.412491 248.405119 
L 82.340631 250.505225 
L 82.289776 252.605944 
L 82.259931 254.707066 
L 82.251097 256.808382 
L 82.263277 258.909682 
L 82.296469 261.010754 
L 82.35067 263.11139 
L 82.425874 265.211378 
L 82.522074 267.310509 
L 82.63926 269.408574 
L 82.77742 271.505361 
L 82.936541 273.600663 
L 83.116607 275.694268 
L 83.317599 277.785968 
L 83.539498 279.875554 
L 83.782282 281.962816 
L 84.045925 284.047546 
L 84.330402 286.129535 
L 84.635685 288.208575 
L 84.961742 290.284459 
L 85.308542 292.356979 
L 85.676049 294.425927 
L 86.064227 296.491096 
L 86.473037 298.55228 
L 86.902438 300.609274 
L 87.352387 302.66187 
L 87.822839 304.709865 
L 88.313747 306.753053 
L 88.825062 308.791229 
L 89.356733 310.824191 
L 89.908707 312.851734 
L 90.480928 314.873656 
L 91.07334 316.889755 
L 91.685882 318.89983 
L 92.318495 320.903678 
L 92.971114 322.9011 
L 93.643674 324.891897 
L 94.336108 326.875868 
L 95.048347 328.852816 
L 95.780319 330.822542 
L 96.531952 332.784851 
L 97.30317 334.739545 
L 98.093896 336.68643 
L 98.904051 338.62531 
L 99.733554 340.555991 
L 100.582322 342.478282 
L 101.45027 344.391988 
L 102.337311 346.29692 
L 103.243357 348.192886 
L 104.168318 350.079697 
L 105.112099 351.957164 
L 106.074608 353.8251 
L 107.055748 355.683317 
L 108.055421 357.53163 
L 109.073526 359.369854 
L 110.109963 361.197806 
L 111.164626 363.015302 
L 112.237412 364.82216 
L 113.328213 366.618201 
L 114.436919 368.403243 
L 115.563419 370.17711 
L 116.707602 371.939623 
L 117.869352 373.690607 
L 119.048554 375.429885 
L 120.24509 377.157285 
L 121.458839 378.872633 
L 122.689681 380.575759 
L 123.937492 382.26649 
L 125.202148 383.94466 
L 126.483522 385.610099 
L 127.781486 387.262641 
L 129.09591 388.902122 
L 130.426663 390.528376 
L 131.773612 392.141242 
L 133.136622 393.740557 
L 134.515556 395.326163 
L 135.910278 396.897901 
L 137.320647 398.455613 
L 138.746522 399.999143 
L 140.187761 401.528338 
L 141.644219 403.043045 
L 143.115752 404.543111 
L 144.602211 406.028387 
L 146.103449 407.498725 
L 147.619315 408.953977 
L 149.149657 410.393997 
L 150.694322 411.818643 
L 152.253157 413.227771 
L 153.826005 414.62124 
L 155.412708 415.998912 
L 157.013109 417.360648 
L 158.627047 418.706312 
L 160.25436 420.035769 
L 161.894887 421.348888 
L 163.548462 422.645535 
L 165.214921 423.925583 
L 166.894097 425.188902 
L 168.585822 426.435366 
L 170.289927 427.664851 
L 172.006241 428.877234 
L 173.734593 430.072394 
L 175.47481 431.25021 
L 177.226718 432.410566 
L 178.990142 433.553345 
L 180.764905 434.678432 
L 182.55083 435.785716 
L 184.347739 436.875086 
L 186.155451 437.946433 
L 187.973786 438.999649 
L 189.802562 440.03463 
L 191.641597 441.051271 
L 193.490705 442.049471 
L 195.349703 443.029131 
L 197.218405 443.990152 
L 199.096623 444.932438 
L 200.98417 445.855896 
L 202.880857 446.760432 
L 204.786494 447.645956 
L 206.700891 448.51238 
L 208.623857 449.359617 
L 210.555199 450.187582 
L 212.494723 450.996193 
L 214.442237 451.785368 
L 216.397545 452.555029 
L 218.360451 453.305099 
L 220.33076 454.035503 
L 222.308274 454.746167 
L 224.292796 455.437021 
L 226.284128 456.107996 
L 228.282069 456.759024 
L 230.28642 457.39004 
L 232.296982 458.000982 
L 234.313552 458.591788 
L 236.335929 459.162399 
L 238.363912 459.712758 
L 240.397296 460.24281 
L 242.435879 460.752502 
L 244.479457 461.241783 
L 246.527825 461.710604 
L 248.58078 462.158918 
L 250.638114 462.586681 
L 252.699624 462.993849 
L 254.765102 463.380382 
L 256.834342 463.746242 
L 258.907137 464.091391 
L 260.983279 464.415795 
L 263.062562 464.719422 
L 265.144777 465.002241 
L 267.229717 465.264225 
L 269.317171 465.505346 
L 271.406933 465.725581 
L 273.498792 465.924907 
L 275.59254 466.103306 
L 277.687968 466.260758 
L 279.784865 466.397249 
L 281.883022 466.512764 
L 283.982229 466.607292 
L 286.082277 466.680824 
L 288.182955 466.733352 
L 290.284053 466.764871 
L 292.385361 466.775377 
z
" clip-path="url(#pace24bab17)" style="fill: #800000"/>
   </g>
   <g id="PatchCollection_1">
    <defs>
     <path id="me9dae12ad8" d="M 292.385361 -464.674034 
L 292.385361 -464.674034 
L 294.465656 -464.663632 
L 296.545744 -464.632429 
L 298.625415 -464.580426 
L 300.704462 -464.50763 
L 302.782677 -464.414047 
L 304.859853 -464.299687 
L 306.935781 -464.164561 
L 309.010254 -464.008683 
L 311.083064 -463.832069 
L 313.154005 -463.634736 
L 315.222869 -463.416703 
L 317.289449 -463.177993 
L 319.353539 -462.918629 
L 321.414932 -462.638638 
L 323.473422 -462.338048 
L 325.528804 -462.016888 
L 327.580871 -461.67519 
L 329.629418 -461.312989 
L 331.674241 -460.930321 
L 333.715135 -460.527225 
L 335.751897 -460.103739 
L 337.784322 -459.659908 
L 339.812206 -459.195775 
L 341.835349 -458.711387 
L 343.853546 -458.206792 
L 345.866596 -457.682041 
L 347.874299 -457.137185 
L 349.876452 -456.57228 
L 351.872857 -455.987383 
L 353.863312 -455.38255 
L 355.847621 -454.757844 
L 357.825582 -454.113326 
L 359.797 -453.449061 
L 361.761677 -452.765116 
L 363.719416 -452.061558 
L 365.670022 -451.338459 
L 367.6133 -450.595889 
L 369.549054 -449.833925 
L 371.477093 -449.052641 
L 373.397222 -448.252117 
L 375.30925 -447.432431 
L 377.212986 -446.593667 
L 379.108239 -445.735907 
L 380.99482 -444.859238 
L 382.87254 -443.963747 
L 384.741212 -443.049524 
L 386.600648 -442.116661 
L 388.450662 -441.16525 
L 390.29107 -440.195387 
L 392.121688 -439.207169 
L 393.942332 -438.200694 
L 395.75282 -437.176063 
L 397.552972 -436.133379 
L 399.342607 -435.072746 
L 401.121547 -433.99427 
L 402.889613 -432.898058 
L 404.646628 -431.784222 
L 406.392418 -430.65287 
L 408.126807 -429.504118 
L 409.849622 -428.33808 
L 411.56069 -427.154872 
L 413.259841 -425.954613 
L 414.946905 -424.737423 
L 416.621713 -423.503423 
L 418.284097 -422.252737 
L 419.933891 -420.985491 
L 421.570931 -419.701809 
L 423.195052 -418.401822 
L 424.806093 -417.085659 
L 426.403891 -415.753452 
L 427.988288 -414.405333 
L 429.559124 -413.041438 
L 431.116243 -411.661904 
L 432.65949 -410.266867 
L 434.188708 -408.856468 
L 435.703747 -407.430847 
L 437.204454 -405.990148 
L 438.690679 -404.534514 
L 440.162274 -403.06409 
L 441.619092 -401.579025 
L 443.060986 -400.079465 
L 444.487812 -398.565562 
L 445.899429 -397.037467 
L 447.295694 -395.495332 
L 448.676468 -393.939312 
L 450.041613 -392.369562 
L 451.390993 -390.78624 
L 452.724472 -389.189503 
L 454.041918 -387.579511 
L 455.343198 -385.956425 
L 456.628182 -384.320408 
L 457.896743 -382.671624 
L 459.148752 -381.010236 
L 460.384085 -379.336411 
L 461.602618 -377.650317 
L 462.80423 -375.952123 
L 463.9888 -374.241997 
L 465.15621 -372.520111 
L 466.306343 -370.786638 
L 467.439084 -369.041749 
L 468.554319 -367.285621 
L 469.651938 -365.518429 
L 470.731831 -363.740349 
L 471.793889 -361.951559 
L 472.838006 -360.152238 
L 473.864078 -358.342566 
L 474.872002 -356.522724 
L 475.861678 -354.692894 
L 476.833007 -352.853259 
L 477.78589 -351.004003 
L 478.720234 -349.14531 
L 479.635945 -347.277368 
L 480.53293 -345.400361 
L 481.411101 -343.514479 
L 482.27037 -341.619909 
L 483.11065 -339.716842 
L 483.931858 -337.805467 
L 484.733912 -335.885976 
L 485.516731 -333.95856 
L 486.280236 -332.023413 
L 487.024353 -330.080727 
L 487.749005 -328.130698 
L 488.454122 -326.17352 
L 489.139632 -324.209388 
L 489.805466 -322.2385 
L 490.451559 -320.261052 
L 491.077845 -318.277242 
L 491.684262 -316.287268 
L 492.27075 -314.29133 
L 492.837249 -312.289627 
L 493.383703 -310.282359 
L 493.910057 -308.269727 
L 494.416259 -306.251933 
L 494.902258 -304.229177 
L 495.368006 -302.201662 
L 495.813455 -300.169592 
L 496.238562 -298.133168 
L 496.643284 -296.092595 
L 497.02758 -294.048078 
L 497.391412 -291.999819 
L 497.734744 -289.948025 
L 498.057541 -287.8929 
L 498.35977 -285.83465 
L 498.641403 -283.773481 
L 498.90241 -281.709598 
L 499.142766 -279.643208 
L 499.362446 -277.574519 
L 499.561428 -275.503736 
L 499.739693 -273.431066 
L 499.897223 -271.356718 
L 500.034002 -269.280898 
L 500.150016 -267.203815 
L 500.245253 -265.125675 
L 500.319705 -263.046686 
L 500.373364 -260.967057 
L 500.406224 -258.886995 
L 500.418282 -256.806709 
L 500.409537 -254.726406 
L 500.37999 -252.646295 
L 500.329644 -250.566583 
L 500.258503 -248.487479 
L 500.166575 -246.409189 
L 500.053869 -244.331924 
L 499.920397 -242.255889 
L 499.766171 -240.181292 
L 499.591207 -238.108341 
L 499.395523 -236.037244 
L 499.179138 -233.968207 
L 498.942074 -231.901438 
L 498.684354 -229.837142 
L 498.406004 -227.775527 
L 498.107053 -225.716798 
L 497.78753 -223.661161 
L 497.447466 -221.608823 
L 497.086897 -219.559987 
L 496.705858 -217.51486 
L 496.304386 -215.473646 
L 495.882523 -213.436548 
L 495.440311 -211.40377 
L 494.977793 -209.375516 
L 494.495016 -207.351989 
L 493.992028 -205.333391 
L 493.46888 -203.319923 
L 492.925623 -201.311787 
L 492.362313 -199.309185 
L 491.779005 -197.312315 
L 491.175758 -195.321378 
L 490.552632 -193.336573 
L 489.90969 -191.358099 
L 489.246995 -189.386153 
L 488.564614 -187.420932 
L 487.862616 -185.462633 
L 487.14107 -183.511452 
L 486.400048 -181.567584 
L 485.639626 -179.631223 
L 484.859877 -177.702563 
L 484.060882 -175.781797 
L 483.242719 -173.869116 
L 482.405471 -171.964713 
L 481.549221 -170.068777 
L 480.674055 -168.181499 
L 479.78006 -166.303066 
L 478.867325 -164.433667 
L 477.935943 -162.573489 
L 476.986005 -160.722718 
L 476.017608 -158.881538 
L 475.030848 -157.050134 
L 474.025823 -155.228689 
L 473.002634 -153.417385 
L 471.961384 -151.616404 
L 470.902177 -149.825925 
L 469.825117 -148.046127 
L 468.730314 -146.277189 
L 467.617877 -144.519287 
L 466.487916 -142.772597 
L 465.340546 -141.037294 
L 464.17588 -139.313551 
L 462.994035 -137.60154 
L 461.795129 -135.901434 
L 460.579283 -134.213402 
L 459.346617 -132.537612 
L 458.097256 -130.874232 
L 456.831323 -129.223429 
L 455.548946 -127.585368 
L 454.250252 -125.960212 
L 452.935373 -124.348124 
L 451.604438 -122.749265 
L 450.257582 -121.163795 
L 448.894938 -119.591873 
L 447.516644 -118.033656 
L 446.122837 -116.489299 
L 444.713656 -114.958958 
L 443.289242 -113.442784 
L 441.849738 -111.94093 
L 440.395288 -110.453546 
L 438.926037 -108.980781 
L 437.442132 -107.522782 
L 435.943721 -106.079694 
L 434.430955 -104.651662 
L 432.903984 -103.23883 
L 431.362962 -101.841337 
L 429.808042 -100.459324 
L 428.239379 -99.092929 
L 426.657132 -97.742289 
L 425.061457 -96.407538 
L 423.452515 -95.088811 
L 421.830466 -93.786239 
L 420.195473 -92.499952 
L 418.547699 -91.230079 
L 416.887309 -89.976747 
L 415.214469 -88.740082 
L 413.529346 -87.520206 
L 411.832108 -86.317243 
L 410.122926 -85.131311 
L 408.401971 -83.962531 
L 406.669414 -82.811018 
L 404.925428 -81.676888 
L 403.170189 -80.560254 
L 401.403871 -79.461228 
L 399.626651 -78.37992 
L 397.838708 -77.316438 
L 396.040219 -76.270888 
L 394.231365 -75.243375 
L 392.412326 -74.234002 
L 390.583285 -73.242869 
L 388.744424 -72.270076 
L 386.895927 -71.31572 
L 385.037979 -70.379896 
L 383.170766 -69.462699 
L 381.294474 -68.564219 
L 379.409292 -67.684546 
L 377.515407 -66.823769 
L 375.61301 -65.981974 
L 373.702289 -65.159244 
L 371.783437 -64.355662 
L 369.856646 -63.571309 
L 367.922107 -62.806262 
L 365.980015 -62.060599 
L 364.030563 -61.334394 
L 362.073947 -60.627719 
L 360.110362 -59.940645 
L 358.140004 -59.273241 
L 356.163071 -58.625574 
L 354.179761 -57.997708 
L 352.190271 -57.389707 
L 350.1948 -56.80163 
L 348.193549 -56.233537 
L 346.186717 -55.685485 
L 344.174505 -55.157528 
L 342.157114 -54.649719 
L 340.134746 -54.16211 
L 338.107603 -53.694748 
L 336.075887 -53.24768 
L 334.039803 -52.820952 
L 331.999553 -52.414605 
L 329.955342 -52.028681 
L 327.907374 -51.663218 
L 325.855854 -51.318253 
L 323.800987 -50.993819 
L 321.742978 -50.689951 
L 319.682033 -50.406677 
L 317.618359 -50.144026 
L 315.552162 -49.902025 
L 313.483648 -49.680698 
L 311.413024 -49.480067 
L 309.340497 -49.300151 
L 307.266275 -49.14097 
L 305.190565 -49.002538 
L 303.113574 -48.88487 
L 301.035511 -48.787977 
L 298.956582 -48.71187 
L 296.876996 -48.656555 
L 294.796961 -48.622038 
L 292.716686 -48.608324 
L 292.385361 -48.60806 
L 292.385361 -48.60806 
Q 292.385361 -256.641047 292.385361 -48.60806 
L 292.385361 -48.60806 
L 292.385361 -48.60806 
L 290.305066 -48.618461 
L 288.224979 -48.649665 
L 286.145308 -48.701668 
L 284.066261 -48.774464 
L 281.988045 -48.868047 
L 279.91087 -48.982407 
L 277.834942 -49.117533 
L 275.760469 -49.27341 
L 273.687658 -49.450025 
L 271.616717 -49.647358 
L 269.547853 -49.865391 
L 267.481273 -50.104101 
L 265.417183 -50.363464 
L 263.35579 -50.643455 
L 261.2973 -50.944046 
L 259.241919 -51.265206 
L 257.189852 -51.606904 
L 255.141304 -51.969105 
L 253.096481 -52.351773 
L 251.055587 -52.754869 
L 249.018826 -53.178354 
L 246.986401 -53.622185 
L 244.958516 -54.086318 
L 242.935374 -54.570707 
L 240.917177 -55.075302 
L 238.904126 -55.600053 
L 236.896424 -56.144908 
L 234.89427 -56.709813 
L 232.897866 -57.294711 
L 230.90741 -57.899543 
L 228.923102 -58.52425 
L 226.94514 -59.168767 
L 224.973722 -59.833032 
L 223.009045 -60.516978 
L 221.051306 -61.220535 
L 219.1007 -61.943635 
L 217.157423 -62.686204 
L 215.221668 -63.448169 
L 213.29363 -64.229452 
L 211.3735 -65.029977 
L 209.461472 -65.849663 
L 207.557736 -66.688427 
L 205.662483 -67.546187 
L 203.775902 -68.422856 
L 201.898182 -69.318346 
L 200.02951 -70.232569 
L 198.170074 -71.165433 
L 196.32006 -72.116844 
L 194.479652 -73.086707 
L 192.649034 -74.074925 
L 190.82839 -75.0814 
L 189.017902 -76.106031 
L 187.21775 -77.148715 
L 185.428115 -78.209348 
L 183.649176 -79.287824 
L 181.88111 -80.384035 
L 180.124094 -81.497872 
L 178.378305 -82.629223 
L 176.643916 -83.777975 
L 174.921101 -84.944014 
L 173.210032 -86.127221 
L 171.510881 -87.32748 
L 169.823817 -88.544671 
L 168.14901 -89.77867 
L 166.486625 -91.029356 
L 164.836831 -92.296603 
L 163.199791 -93.580284 
L 161.57567 -94.880272 
L 159.96463 -96.196435 
L 158.366831 -97.528642 
L 156.782435 -98.876761 
L 155.211598 -100.240655 
L 153.654479 -101.62019 
L 152.111233 -103.015227 
L 150.582014 -104.425626 
L 149.066975 -105.851246 
L 147.566268 -107.291946 
L 146.080043 -108.74758 
L 144.608448 -110.218003 
L 143.151631 -111.703069 
L 141.709737 -113.202628 
L 140.28291 -114.716531 
L 138.871294 -116.244627 
L 137.475029 -117.786761 
L 136.094254 -119.342782 
L 134.729109 -120.912532 
L 133.379729 -122.495854 
L 132.04625 -124.092591 
L 130.728804 -125.702583 
L 129.427524 -127.325668 
L 128.14254 -128.961685 
L 126.87398 -130.61047 
L 125.62197 -132.271858 
L 124.386637 -133.945682 
L 123.168104 -135.631776 
L 121.966492 -137.329971 
L 120.781922 -139.040097 
L 119.614512 -140.761983 
L 118.46438 -142.495456 
L 117.331639 -144.240344 
L 116.216403 -145.996472 
L 115.118784 -147.763665 
L 114.038892 -149.541745 
L 112.976834 -151.330535 
L 111.932717 -153.129856 
L 110.906644 -154.939527 
L 109.89872 -156.759369 
L 108.909044 -158.589199 
L 107.937716 -160.428835 
L 106.984832 -162.278091 
L 106.050488 -164.136783 
L 105.134778 -166.004726 
L 104.237792 -167.881733 
L 103.359621 -169.767615 
L 102.500352 -171.662184 
L 101.660072 -173.565252 
L 100.838864 -175.476627 
L 100.036811 -177.396118 
L 99.253992 -179.323533 
L 98.490486 -181.258681 
L 97.74637 -183.201366 
L 97.021717 -185.151396 
L 96.3166 -187.108574 
L 95.631091 -189.072706 
L 94.965256 -191.043594 
L 94.319163 -193.021042 
L 93.692877 -195.004852 
L 93.08646 -196.994825 
L 92.499973 -198.990763 
L 91.933474 -200.992467 
L 91.38702 -202.999734 
L 90.860665 -205.012366 
L 90.354463 -207.030161 
L 89.868464 -209.052917 
L 89.402716 -211.080432 
L 88.957267 -213.112502 
L 88.53216 -215.148926 
L 88.127438 -217.189498 
L 87.743142 -219.234016 
L 87.37931 -221.282274 
L 87.035979 -223.334069 
L 86.713182 -225.389194 
L 86.410952 -227.447444 
L 86.129319 -229.508613 
L 85.868312 -231.572496 
L 85.627957 -233.638885 
L 85.408277 -235.707575 
L 85.209294 -237.778358 
L 85.031029 -239.851027 
L 84.8735 -241.925376 
L 84.736721 -244.001195 
L 84.620707 -246.078279 
L 84.525469 -248.156419 
L 84.451017 -250.235408 
L 84.397358 -252.315037 
L 84.364498 -254.395098 
L 84.35244 -256.475385 
L 84.361185 -258.555687 
L 84.390732 -260.635799 
L 84.441079 -262.715511 
L 84.512219 -264.794615 
L 84.604147 -266.872904 
L 84.716853 -268.95017 
L 84.850326 -271.026205 
L 85.004552 -273.100802 
L 85.179515 -275.173752 
L 85.3752 -277.24485 
L 85.591585 -279.313886 
L 85.828649 -281.380656 
L 86.086368 -283.444952 
L 86.364718 -285.506567 
L 86.663669 -287.565296 
L 86.983193 -289.620933 
L 87.323256 -291.673271 
L 87.683825 -293.722106 
L 88.064865 -295.767233 
L 88.466336 -297.808448 
L 88.888199 -299.845546 
L 89.330412 -301.878323 
L 89.79293 -303.906577 
L 90.275707 -305.930105 
L 90.778694 -307.948703 
L 91.301843 -309.962171 
L 91.845099 -311.970306 
L 92.408409 -313.972909 
L 92.991717 -315.969779 
L 93.594964 -317.960716 
L 94.21809 -319.94552 
L 94.861033 -321.923995 
L 95.523727 -323.895941 
L 96.206108 -325.861162 
L 96.908106 -327.819461 
L 97.629653 -329.770642 
L 98.370674 -331.71451 
L 99.131097 -333.650871 
L 99.910845 -335.579531 
L 100.70984 -337.500297 
L 101.528003 -339.412977 
L 102.365251 -341.317381 
L 103.221501 -343.213316 
L 104.096668 -345.100595 
L 104.990663 -346.979027 
L 105.903397 -348.848426 
L 106.83478 -350.708605 
L 107.784717 -352.559376 
L 108.753114 -354.400556 
L 109.739875 -356.23196 
L 110.744899 -358.053405 
L 111.768088 -359.864709 
L 112.809338 -361.66569 
L 113.868546 -363.456169 
L 114.945605 -365.235967 
L 116.040408 -367.004905 
L 117.152845 -368.762807 
L 118.282806 -370.509497 
L 119.430176 -372.2448 
L 120.594842 -373.968543 
L 121.776687 -375.680553 
L 122.975593 -377.38066 
L 124.191439 -379.068692 
L 125.424105 -380.744482 
L 126.673467 -382.407862 
L 127.939399 -384.058665 
L 129.221776 -385.696726 
L 130.52047 -387.321882 
L 131.83535 -388.93397 
L 133.166284 -390.532829 
L 134.513141 -392.118298 
L 135.875784 -393.69022 
L 137.254078 -395.248438 
L 138.647886 -396.792794 
L 140.057067 -398.323136 
L 141.48148 -399.83931 
L 142.920984 -401.341163 
L 144.375434 -402.828547 
L 145.844685 -404.301313 
L 147.32859 -405.759312 
L 148.827001 -407.2024 
L 150.339767 -408.630431 
L 151.866738 -410.043264 
L 153.407761 -411.440757 
L 154.962681 -412.82277 
L 156.531343 -414.189165 
L 158.113591 -415.539805 
L 159.709265 -416.874555 
L 161.318207 -418.193283 
L 162.940256 -419.495855 
L 164.575249 -420.782142 
L 166.223023 -422.052014 
L 167.883413 -423.305346 
L 169.556254 -424.542012 
L 171.241377 -425.761887 
L 172.938614 -426.964851 
L 174.647796 -428.150783 
L 176.368752 -429.319563 
L 178.101309 -430.471076 
L 179.845294 -431.605206 
L 181.600534 -432.72184 
L 183.366851 -433.820866 
L 185.144071 -434.902174 
L 186.932015 -435.965656 
L 188.730503 -437.011206 
L 190.539358 -438.038718 
L 192.358396 -439.048092 
L 194.187438 -440.039224 
L 196.026299 -441.012017 
L 197.874796 -441.966374 
L 199.732743 -442.902197 
L 201.599957 -443.819395 
L 203.476248 -444.717875 
L 205.36143 -445.597548 
L 207.255315 -446.458325 
L 209.157713 -447.30012 
L 211.068433 -448.12285 
L 212.987285 -448.926432 
L 214.914077 -449.710785 
L 216.848615 -450.475832 
L 218.790708 -451.221495 
L 220.740159 -451.9477 
L 222.696776 -452.654375 
L 224.660361 -453.341449 
L 226.630718 -454.008852 
L 228.607651 -454.656519 
L 230.590962 -455.284385 
L 232.580452 -455.892387 
L 234.575922 -456.480464 
L 236.577173 -457.048556 
L 238.584005 -457.596609 
L 240.596218 -458.124566 
L 242.613609 -458.632374 
L 244.635977 -459.119984 
L 246.66312 -459.587346 
L 248.694835 -460.034414 
L 250.730919 -460.461142 
L 252.771169 -460.867489 
L 254.81538 -461.253413 
L 256.863348 -461.618876 
L 258.914868 -461.963841 
L 260.969736 -462.288274 
L 263.027744 -462.592143 
L 265.088689 -462.875417 
L 267.152363 -463.138067 
L 269.21856 -463.380068 
L 271.287075 -463.601396 
L 273.357698 -463.802027 
L 275.430225 -463.981943 
L 277.504447 -464.141124 
L 279.580157 -464.279556 
L 281.657148 -464.397224 
L 283.735212 -464.494117 
L 285.81414 -464.570224 
L 287.893726 -464.625539 
L 289.973761 -464.660055 
L 292.054037 -464.67377 
L 292.385361 -464.674034 
L 292.385361 -464.674034 
Q 292.385361 -256.641047 292.385361 -464.674034 
z
" style="stroke: #808080; stroke-opacity: 0.5; stroke-width: 0.1"/>
    </defs>
    <g clip-path="url(#pace24bab17)">
     <use xlink:href="#me9dae12ad8" x="0" y="513.282094" style="fill: #000080; fill-opacity: 0.5; stroke: #808080; stroke-opacity: 0.5; stroke-width: 0.1"/>
    </g>
   </g>
   <g id="patch_4">
    <path d="M 292.385361 48.60806 
L 294.465656 48.618461 
L 296.545744 48.649665 
L 298.625415 48.701668 
L 300.704462 48.774464 
L 302.782677 48.868047 
L 304.859853 48.982407 
L 306.935781 49.117533 
L 309.010254 49.27341 
L 311.083064 49.450025 
L 313.154005 49.647358 
L 315.222869 49.865391 
L 317.289449 50.104101 
L 319.353539 50.363464 
L 321.414932 50.643455 
L 323.473422 50.944046 
L 325.528804 51.265206 
L 327.580871 51.606904 
L 329.629418 51.969105 
L 331.674241 52.351773 
L 333.715135 52.754869 
L 335.751897 53.178354 
L 337.784322 53.622185 
L 339.812206 54.086318 
L 341.835349 54.570707 
L 343.853546 55.075302 
L 345.866596 55.600053 
L 347.874299 56.144908 
L 349.876452 56.709813 
L 351.872857 57.294711 
L 353.863312 57.899543 
L 355.847621 58.52425 
L 357.825582 59.168767 
L 359.797 59.833032 
L 361.761677 60.516978 
L 363.719416 61.220535 
L 365.670022 61.943635 
L 367.6133 62.686204 
L 369.549054 63.448169 
L 371.477093 64.229452 
L 373.397222 65.029977 
L 375.30925 65.849663 
L 377.212986 66.688427 
L 379.108239 67.546187 
L 380.99482 68.422856 
L 382.87254 69.318346 
L 384.741212 70.232569 
L 386.600648 71.165433 
L 388.450662 72.116844 
L 390.29107 73.086707 
L 392.121688 74.074925 
L 393.942332 75.0814 
L 395.75282 76.106031 
L 397.552972 77.148715 
L 399.342607 78.209348 
L 401.121547 79.287824 
L 402.889613 80.384035 
L 404.646628 81.497872 
L 406.392418 82.629223 
L 408.126807 83.777975 
L 409.849622 84.944014 
L 411.56069 86.127221 
L 413.259841 87.32748 
L 414.946905 88.544671 
L 416.621713 89.77867 
L 418.284097 91.029356 
L 419.933891 92.296603 
L 421.570931 93.580284 
L 423.195052 94.880272 
L 424.806093 96.196435 
L 426.403891 97.528642 
L 427.988288 98.876761 
L 429.559124 100.240655 
L 431.116243 101.62019 
L 432.65949 103.015227 
L 434.188708 104.425626 
L 435.703747 105.851246 
L 437.204454 107.291946 
L 438.690679 108.74758 
L 440.162274 110.218003 
L 441.619092 111.703069 
L 443.060986 113.202628 
L 444.487812 114.716531 
L 445.899429 116.244627 
L 447.295694 117.786761 
L 448.676468 119.342782 
L 450.041613 120.912532 
L 451.390993 122.495854 
L 452.724472 124.092591 
L 454.041918 125.702583 
L 455.343198 127.325668 
L 456.628182 128.961685 
L 457.896743 130.61047 
L 459.148752 132.271858 
L 460.384085 133.945682 
L 461.602618 135.631776 
L 462.80423 137.329971 
L 463.9888 139.040097 
L 465.15621 140.761983 
L 466.306343 142.495456 
L 467.439084 144.240344 
L 468.554319 145.996472 
L 469.651938 147.763665 
L 470.731831 149.541745 
L 471.793889 151.330535 
L 472.838006 153.129856 
L 473.864078 154.939527 
L 474.872002 156.759369 
L 475.861678 158.589199 
L 476.833007 160.428835 
L 477.78589 162.278091 
L 478.720234 164.136783 
L 479.635945 166.004726 
L 480.53293 167.881733 
L 481.411101 169.767615 
L 482.27037 171.662184 
L 483.11065 173.565252 
L 483.931858 175.476627 
L 484.733912 177.396118 
L 485.516731 179.323533 
L 486.280236 181.258681 
L 487.024353 183.201366 
L 487.749005 185.151396 
L 488.454122 187.108574 
L 489.139632 189.072706 
L 489.805466 191.043594 
L 490.451559 193.021042 
L 491.077845 195.004852 
L 491.684262 196.994825 
L 492.27075 198.990763 
L 492.837249 200.992467 
L 493.383703 202.999734 
L 493.910057 205.012366 
L 494.416259 207.030161 
L 494.902258 209.052917 
L 495.368006 211.080432 
L 495.813455 213.112502 
L 496.238562 215.148926 
L 496.643284 217.189498 
L 497.02758 219.234016 
L 497.391412 221.282274 
L 497.734744 223.334069 
L 498.057541 225.389194 
L 498.35977 227.447444 
L 498.641403 229.508613 
L 498.90241 231.572496 
L 499.142766 233.638885 
L 499.362446 235.707575 
L 499.561428 237.778358 
L 499.739693 239.851027 
L 499.897223 241.925376 
L 500.034002 244.001195 
L 500.150016 246.078279 
L 500.245253 248.156419 
L 500.319705 250.235408 
L 500.373364 252.315037 
L 500.406224 254.395098 
L 500.418282 256.475385 
L 500.409537 258.555687 
L 500.37999 260.635799 
L 500.329644 262.715511 
L 500.258503 264.794615 
L 500.166575 266.872904 
L 500.053869 268.95017 
L 499.920397 271.026205 
L 499.766171 273.100802 
L 499.591207 275.173752 
L 499.395523 277.24485 
L 499.179138 279.313886 
L 498.942074 281.380656 
L 498.684354 283.444952 
L 498.406004 285.506567 
L 498.107053 287.565296 
L 497.78753 289.620933 
L 497.447466 291.673271 
L 497.086897 293.722106 
L 496.705858 295.767233 
L 496.304386 297.808448 
L 495.882523 299.845546 
L 495.440311 301.878323 
L 494.977793 303.906577 
L 494.495016 305.930105 
L 493.992028 307.948703 
L 493.46888 309.962171 
L 492.925623 311.970306 
L 492.362313 313.972909 
L 491.779005 315.969779 
L 491.175758 317.960716 
L 490.552632 319.94552 
L 489.90969 321.923995 
L 489.246995 323.895941 
L 488.564614 325.861162 
L 487.862616 327.819461 
L 487.14107 329.770642 
L 486.400048 331.71451 
L 485.639626 333.650871 
L 484.859877 335.579531 
L 484.060882 337.500297 
L 483.242719 339.412977 
L 482.405471 341.317381 
L 481.549221 343.213316 
L 480.674055 345.100595 
L 479.78006 346.979027 
L 478.867325 348.848426 
L 477.935943 350.708605 
L 476.986005 352.559376 
L 476.017608 354.400556 
L 475.030848 356.23196 
L 474.025823 358.053405 
L 473.002634 359.864709 
L 471.961384 361.66569 
L 470.902177 363.456169 
L 469.825117 365.235967 
L 468.730314 367.004905 
L 467.617877 368.762807 
L 466.487916 370.509497 
L 465.340546 372.2448 
L 464.17588 373.968543 
L 462.994035 375.680553 
L 461.795129 377.38066 
L 460.579283 379.068692 
L 459.346617 380.744482 
L 458.097256 382.407862 
L 456.831323 384.058665 
L 455.548946 385.696726 
L 454.250252 387.321882 
L 452.935373 388.93397 
L 451.604438 390.532829 
L 450.257582 392.118298 
L 448.894938 393.69022 
L 447.516644 395.248438 
L 446.122837 396.792794 
L 444.713656 398.323136 
L 443.289242 399.83931 
L 441.849738 401.341163 
L 440.395288 402.828547 
L 438.926037 404.301313 
L 437.442132 405.759312 
L 435.943721 407.2024 
L 434.430955 408.630431 
L 432.903984 410.043264 
L 431.362962 411.440757 
L 429.808042 412.82277 
L 428.239379 414.189165 
L 426.657132 415.539805 
L 425.061457 416.874555 
L 423.452515 418.193283 
L 421.830466 419.495855 
L 420.195473 420.782142 
L 418.547699 422.052014 
L 416.887309 423.305346 
L 415.214469 424.542012 
L 413.529346 425.761887 
L 411.832108 426.964851 
L 410.122926 428.150783 
L 408.401971 429.319563 
L 406.669414 430.471076 
L 404.925428 431.605206 
L 403.170189 432.72184 
L 401.403871 433.820866 
L 399.626651 434.902174 
L 397.838708 435.965656 
L 396.040219 437.011206 
L 394.231365 438.038718 
L 392.412326 439.048092 
L 390.583285 440.039224 
L 388.744424 441.012017 
L 386.895927 441.966374 
L 385.037979 442.902197 
L 383.170766 443.819395 
L 381.294474 444.717875 
L 379.409292 445.597548 
L 377.515407 446.458325 
L 375.61301 447.30012 
L 373.702289 448.12285 
L 371.783437 448.926432 
L 369.856646 449.710785 
L 367.922107 450.475832 
L 365.980015 451.221495 
L 364.030563 451.9477 
L 362.073947 452.654375 
L 360.110362 453.341449 
L 358.140004 454.008852 
L 356.163071 454.656519 
L 354.179761 455.284385 
L 352.190271 455.892387 
L 350.1948 456.480464 
L 348.193549 457.048556 
L 346.186717 457.596609 
L 344.174505 458.124566 
L 342.157114 458.632374 
L 340.134746 459.119984 
L 338.107603 459.587346 
L 336.075887 460.034414 
L 334.039803 460.461142 
L 331.999553 460.867489 
L 329.955342 461.253413 
L 327.907374 461.618876 
L 325.855854 461.963841 
L 323.800987 462.288274 
L 321.742978 462.592143 
L 319.682033 462.875417 
L 317.618359 463.138067 
L 315.552162 463.380068 
L 313.483648 463.601396 
L 311.413024 463.802027 
L 309.340497 463.981943 
L 307.266275 464.141124 
L 305.190565 464.279556 
L 303.113574 464.397224 
L 301.035511 464.494117 
L 298.956582 464.570224 
L 296.876996 464.625539 
L 294.796961 464.660055 
L 292.716686 464.67377 
L 292.385361 464.674034 
L 292.385361 466.775377 
L 292.720032 466.775111 
L 294.821321 466.761257 
L 296.922366 466.726392 
L 299.022958 466.670519 
L 301.122886 466.593643 
L 303.22194 466.495771 
L 305.31991 466.376915 
L 307.416587 466.237085 
L 309.511761 466.076295 
L 311.605223 465.894562 
L 313.696762 465.691904 
L 315.78617 465.468341 
L 317.873238 465.223896 
L 319.957757 464.958592 
L 322.03952 464.672457 
L 324.118316 464.365519 
L 326.19394 464.037809 
L 328.266182 463.689359 
L 330.334837 463.320204 
L 332.399697 462.930382 
L 334.460555 462.519931 
L 336.517206 462.088892 
L 338.569443 461.637309 
L 340.617063 461.165226 
L 342.659859 460.672691 
L 344.697627 460.159753 
L 346.730165 459.626463 
L 348.757268 459.072875 
L 350.778734 458.499043 
L 352.794361 457.905027 
L 354.803947 457.290884 
L 356.807291 456.656676 
L 358.804193 456.002467 
L 360.794453 455.328321 
L 362.777872 454.634307 
L 364.754252 453.920495 
L 366.723395 453.186954 
L 368.685104 452.433759 
L 370.639184 451.660984 
L 372.585438 450.868708 
L 374.523672 450.05701 
L 376.453693 449.225969 
L 378.375307 448.375671 
L 380.288322 447.506199 
L 382.192546 446.617641 
L 384.08779 445.710085 
L 385.973864 444.783623 
L 387.850579 443.838347 
L 389.717747 442.87435 
L 391.575183 441.891731 
L 393.422699 440.890587 
L 395.260112 439.871018 
L 397.087238 438.833126 
L 398.903893 437.777016 
L 400.709897 436.702791 
L 402.505068 435.610561 
L 404.289227 434.500434 
L 406.062196 433.372521 
L 407.823798 432.226935 
L 409.573856 431.063791 
L 411.312195 429.883204 
L 413.038641 428.685294 
L 414.753022 427.470179 
L 416.455167 426.237981 
L 418.144904 424.988824 
L 419.822066 423.722832 
L 421.486484 422.440132 
L 423.137993 421.140853 
L 424.776426 419.825123 
L 426.40162 418.493076 
L 428.013412 417.144843 
L 429.611642 415.78056 
L 431.19615 414.400363 
L 432.766776 413.00439 
L 434.323364 411.592781 
L 435.865759 410.165678 
L 437.393806 408.723221 
L 438.907352 407.265557 
L 440.406246 405.79283 
L 441.890338 404.305189 
L 443.359479 402.802781 
L 444.813524 401.285757 
L 446.252325 399.754268 
L 447.67574 398.208469 
L 449.083627 396.648512 
L 450.475843 395.074556 
L 451.852251 393.486755 
L 453.212712 391.885271 
L 454.55709 390.270262 
L 455.885251 388.64189 
L 457.197063 387.000319 
L 458.492393 385.345711 
L 459.771113 383.678234 
L 461.033095 381.998052 
L 462.278212 380.305335 
L 463.506339 378.600252 
L 464.717355 376.882973 
L 465.911138 375.153669 
L 467.087568 373.412515 
L 468.246528 371.659683 
L 469.387902 369.89535 
L 470.511576 368.119692 
L 471.617438 366.332885 
L 472.705377 364.53511 
L 473.775283 362.726545 
L 474.827051 360.907372 
L 475.860575 359.077772 
L 476.875752 357.237929 
L 477.872479 355.388026 
L 478.850658 353.528248 
L 479.810191 351.658782 
L 480.750981 349.779814 
L 481.672935 347.891532 
L 482.575961 345.994126 
L 483.459967 344.087784 
L 484.324866 342.172697 
L 485.170572 340.249058 
L 485.996999 338.317057 
L 486.804065 336.376889 
L 487.591689 334.428748 
L 488.359793 332.472828 
L 489.108299 330.509325 
L 489.837134 328.538435 
L 490.546223 326.560355 
L 491.235496 324.575284 
L 491.904885 322.583419 
L 492.554322 320.58496 
L 493.183742 318.580106 
L 493.793082 316.569059 
L 494.382282 314.552019 
L 494.951283 312.529188 
L 495.500026 310.500768 
L 496.028459 308.466962 
L 496.536527 306.427974 
L 497.024181 304.384007 
L 497.491371 302.335266 
L 497.93805 300.281955 
L 498.364174 298.22428 
L 498.769701 296.162447 
L 499.154589 294.096662 
L 499.518801 292.027132 
L 499.862299 289.954063 
L 500.18505 287.877662 
L 500.487021 285.798138 
L 500.768182 283.715698 
L 501.028505 281.630551 
L 501.267964 279.542905 
L 501.486535 277.452969 
L 501.684195 275.360951 
L 501.860926 273.267062 
L 502.01671 271.17151 
L 502.151531 269.074505 
L 502.265375 266.976256 
L 502.358232 264.876974 
L 502.430091 262.776869 
L 502.480946 260.67615 
L 502.510792 258.575027 
L 502.519625 256.473711 
L 502.507445 254.372412 
L 502.474253 252.27134 
L 502.420052 250.170704 
L 502.344848 248.070716 
L 502.248648 245.971584 
L 502.131463 243.87352 
L 501.993302 241.776732 
L 501.834181 239.681431 
L 501.654116 237.587826 
L 501.453123 235.496126 
L 501.231224 233.40654 
L 500.988441 231.319278 
L 500.724797 229.234548 
L 500.44032 227.152559 
L 500.135037 225.073518 
L 499.80898 222.997635 
L 499.46218 220.925115 
L 499.094673 218.856167 
L 498.706495 216.790998 
L 498.297685 214.729813 
L 497.868285 212.67282 
L 497.418336 210.620223 
L 496.947883 208.572229 
L 496.456975 206.529041 
L 495.94566 204.490865 
L 495.413989 202.457903 
L 494.862015 200.43036 
L 494.289794 198.408437 
L 493.697382 196.392338 
L 493.08484 194.382264 
L 492.452228 192.378416 
L 491.799609 190.380993 
L 491.127049 188.390197 
L 490.434614 186.406226 
L 489.722376 184.429278 
L 488.990403 182.459551 
L 488.23877 180.497243 
L 487.467552 178.542548 
L 486.676826 176.595664 
L 485.866671 174.656784 
L 485.037168 172.726102 
L 484.188401 170.803812 
L 483.320452 168.890105 
L 482.433411 166.985174 
L 481.527365 165.089208 
L 480.602405 163.202397 
L 479.658623 161.32493 
L 478.696114 159.456994 
L 477.714974 157.598777 
L 476.715302 155.750464 
L 475.697196 153.912239 
L 474.66076 152.084288 
L 473.606096 150.266792 
L 472.53331 148.459934 
L 471.44251 146.663893 
L 470.333804 144.87885 
L 469.207303 143.104984 
L 468.06312 141.34247 
L 466.90137 139.591487 
L 465.722168 137.852208 
L 464.525633 136.124809 
L 463.311884 134.40946 
L 462.081042 132.706335 
L 460.833231 131.015603 
L 459.568575 129.337434 
L 458.287201 127.671995 
L 456.989237 126.019452 
L 455.674812 124.379972 
L 454.344059 122.753718 
L 452.997111 121.140852 
L 451.634101 119.541536 
L 450.255166 117.95593 
L 448.860445 116.384193 
L 447.450076 114.826481 
L 446.0242 113.28295 
L 444.582962 111.753755 
L 443.126503 110.239049 
L 441.65497 108.738983 
L 440.168511 107.253707 
L 438.667273 105.783369 
L 437.151408 104.328117 
L 435.621066 102.888096 
L 434.0764 101.463451 
L 432.517565 100.054323 
L 430.944718 98.660853 
L 429.358014 97.283182 
L 427.757613 95.921446 
L 426.143676 94.575782 
L 424.516362 93.246324 
L 422.875836 91.933206 
L 421.22226 90.636558 
L 419.555801 89.356511 
L 417.876625 88.093192 
L 416.1849 86.846728 
L 414.480796 85.617242 
L 412.764481 84.40486 
L 411.036129 83.2097 
L 409.295912 82.031884 
L 407.544004 80.871528 
L 405.78058 79.728749 
L 404.005817 78.603661 
L 402.219892 77.496377 
L 400.422983 76.407007 
L 398.615271 75.335661 
L 396.796936 74.282445 
L 394.96816 73.247464 
L 393.129126 72.230823 
L 391.280017 71.232622 
L 389.421019 70.252963 
L 387.552317 69.291942 
L 385.674099 68.349655 
L 383.786552 67.426198 
L 381.889865 66.521662 
L 379.984228 65.636138 
L 378.069831 64.769714 
L 376.146865 63.922477 
L 374.215524 63.094512 
L 372.275999 62.285901 
L 370.328486 61.496726 
L 368.373178 60.727064 
L 366.410271 59.976995 
L 364.439962 59.246591 
L 362.462448 58.535927 
L 360.477926 57.845073 
L 358.486595 57.174098 
L 356.488653 56.52307 
L 354.484302 55.892053 
L 352.47374 55.281112 
L 350.45717 54.690306 
L 348.434793 54.119695 
L 346.406811 53.569336 
L 344.373426 53.039284 
L 342.334843 52.529592 
L 340.291265 52.040311 
L 338.242897 51.57149 
L 336.189943 51.123176 
L 334.132608 50.695413 
L 332.071099 50.288245 
L 330.005621 49.901711 
L 327.936381 49.535852 
L 325.863586 49.190703 
L 323.787443 48.866299 
L 321.70816 48.562672 
L 319.625945 48.279852 
L 317.541006 48.017869 
L 315.453551 47.776748 
L 313.363789 47.556513 
L 311.27193 47.357186 
L 309.178182 47.178788 
L 307.082755 47.021335 
L 304.985858 46.884845 
L 302.8877 46.76933 
L 300.788493 46.674802 
L 298.688446 46.60127 
L 296.587768 46.548742 
L 294.486669 46.517223 
L 292.385361 46.506717 
L 292.385361 48.60806 
z
" clip-path="url(#pace24bab17)" style="fill: none; stroke: #000000; stroke-width: 0.5; stroke-linejoin: miter"/>
   </g>
   <g id="patch_5">
    <path d="M 292.385361 464.674034 
L 290.305066 464.663632 
L 288.224979 464.632429 
L 286.145308 464.580426 
L 284.066261 464.50763 
L 281.988045 464.414047 
L 279.91087 464.299687 
L 277.834942 464.164561 
L 275.760469 464.008683 
L 273.687658 463.832069 
L 271.616717 463.634736 
L 269.547853 463.416703 
L 267.481273 463.177993 
L 265.417183 462.918629 
L 263.35579 462.638638 
L 261.2973 462.338048 
L 259.241919 462.016888 
L 257.189852 461.67519 
L 255.141304 461.312989 
L 253.096481 460.930321 
L 251.055587 460.527225 
L 249.018826 460.103739 
L 246.986401 459.659908 
L 244.958516 459.195775 
L 242.935374 458.711387 
L 240.917177 458.206792 
L 238.904126 457.682041 
L 236.896424 457.137185 
L 234.89427 456.57228 
L 232.897866 455.987383 
L 230.90741 455.38255 
L 228.923102 454.757844 
L 226.94514 454.113326 
L 224.973722 453.449061 
L 223.009045 452.765116 
L 221.051306 452.061558 
L 219.1007 451.338459 
L 217.157423 450.595889 
L 215.221668 449.833925 
L 213.29363 449.052641 
L 211.3735 448.252117 
L 209.461472 447.432431 
L 207.557736 446.593667 
L 205.662483 445.735907 
L 203.775902 444.859238 
L 201.898182 443.963747 
L 200.02951 443.049524 
L 198.170074 442.116661 
L 196.32006 441.16525 
L 194.479652 440.195387 
L 192.649034 439.207169 
L 190.82839 438.200694 
L 189.017902 437.176063 
L 187.21775 436.133379 
L 185.428115 435.072746 
L 183.649176 433.99427 
L 181.88111 432.898058 
L 180.124094 431.784222 
L 178.378305 430.65287 
L 176.643916 429.504118 
L 174.921101 428.33808 
L 173.210032 427.154872 
L 171.510881 425.954613 
L 169.823817 424.737423 
L 168.14901 423.503423 
L 166.486625 422.252737 
L 164.836831 420.985491 
L 163.199791 419.701809 
L 161.57567 418.401822 
L 159.96463 417.085659 
L 158.366831 415.753452 
L 156.782435 414.405333 
L 155.211598 413.041438 
L 153.654479 411.661904 
L 152.111233 410.266867 
L 150.582014 408.856468 
L 149.066975 407.430847 
L 147.566268 405.990148 
L 146.080043 404.534514 
L 144.608448 403.06409 
L 143.151631 401.579025 
L 141.709737 400.079465 
L 140.28291 398.565562 
L 138.871294 397.037467 
L 137.475029 395.495332 
L 136.094254 393.939312 
L 134.729109 392.369562 
L 133.379729 390.78624 
L 132.04625 389.189503 
L 130.728804 387.579511 
L 129.427524 385.956425 
L 128.14254 384.320408 
L 126.87398 382.671624 
L 125.62197 381.010236 
L 124.386637 379.336411 
L 123.168104 377.650317 
L 121.966492 375.952123 
L 120.781922 374.241997 
L 119.614512 372.520111 
L 118.46438 370.786638 
L 117.331639 369.041749 
L 116.216403 367.285621 
L 115.118784 365.518429 
L 114.038892 363.740349 
L 112.976834 361.951559 
L 111.932717 360.152238 
L 110.906644 358.342566 
L 109.89872 356.522724 
L 108.909044 354.692894 
L 107.937716 352.853259 
L 106.984832 351.004003 
L 106.050488 349.14531 
L 105.134778 347.277368 
L 104.237792 345.400361 
L 103.359621 343.514479 
L 102.500352 341.619909 
L 101.660072 339.716842 
L 100.838864 337.805467 
L 100.036811 335.885976 
L 99.253992 333.95856 
L 98.490486 332.023413 
L 97.74637 330.080727 
L 97.021717 328.130698 
L 96.3166 326.17352 
L 95.631091 324.209388 
L 94.965256 322.2385 
L 94.319163 320.261052 
L 93.692877 318.277242 
L 93.08646 316.287268 
L 92.499973 314.29133 
L 91.933474 312.289627 
L 91.38702 310.282359 
L 90.860665 308.269727 
L 90.354463 306.251933 
L 89.868464 304.229177 
L 89.402716 302.201662 
L 88.957267 300.169592 
L 88.53216 298.133168 
L 88.127438 296.092595 
L 87.743142 294.048078 
L 87.37931 291.999819 
L 87.035979 289.948025 
L 86.713182 287.8929 
L 86.410952 285.83465 
L 86.129319 283.773481 
L 85.868312 281.709598 
L 85.627957 279.643208 
L 85.408277 277.574519 
L 85.209294 275.503736 
L 85.031029 273.431066 
L 84.8735 271.356718 
L 84.736721 269.280898 
L 84.620707 267.203815 
L 84.525469 265.125675 
L 84.451017 263.046686 
L 84.397358 260.967057 
L 84.364498 258.886995 
L 84.35244 256.806709 
L 84.361185 254.726406 
L 84.390732 252.646295 
L 84.441079 250.566583 
L 84.512219 248.487479 
L 84.604147 246.409189 
L 84.716853 244.331924 
L 84.850326 242.255889 
L 85.004552 240.181292 
L 85.179515 238.108341 
L 85.3752 236.037244 
L 85.591585 233.968207 
L 85.828649 231.901438 
L 86.086368 229.837142 
L 86.364718 227.775527 
L 86.663669 225.716798 
L 86.983193 223.661161 
L 87.323256 221.608823 
L 87.683825 219.559987 
L 88.064865 217.51486 
L 88.466336 215.473646 
L 88.888199 213.436548 
L 89.330412 211.40377 
L 89.79293 209.375516 
L 90.275707 207.351989 
L 90.778694 205.333391 
L 91.301843 203.319923 
L 91.845099 201.311787 
L 92.408409 199.309185 
L 92.991717 197.312315 
L 93.594964 195.321378 
L 94.21809 193.336573 
L 94.861033 191.358099 
L 95.523727 189.386153 
L 96.206108 187.420932 
L 96.908106 185.462633 
L 97.629653 183.511452 
L 98.370674 181.567584 
L 99.131097 179.631223 
L 99.910845 177.702563 
L 100.70984 175.781797 
L 101.528003 173.869116 
L 102.365251 171.964713 
L 103.221501 170.068777 
L 104.096668 168.181499 
L 104.990663 166.303066 
L 105.903397 164.433667 
L 106.83478 162.573489 
L 107.784717 160.722718 
L 108.753114 158.881538 
L 109.739875 157.050134 
L 110.744899 155.228689 
L 111.768088 153.417385 
L 112.809338 151.616404 
L 113.868546 149.825925 
L 114.945605 148.046127 
L 116.040408 146.277189 
L 117.152845 144.519287 
L 118.282806 142.772597 
L 119.430176 141.037294 
L 120.594842 139.313551 
L 121.776687 137.60154 
L 122.975593 135.901434 
L 124.191439 134.213402 
L 125.424105 132.537612 
L 126.673467 130.874232 
L 127.939399 129.223429 
L 129.221776 127.585368 
L 130.52047 125.960212 
L 131.83535 124.348124 
L 133.166284 122.749265 
L 134.513141 121.163795 
L 135.875784 119.591873 
L 137.254078 118.033656 
L 138.647886 116.489299 
L 140.057067 114.958958 
L 141.48148 113.442784 
L 142.920984 111.94093 
L 144.375434 110.453546 
L 145.844685 108.980781 
L 147.32859 107.522782 
L 148.827001 106.079694 
L 150.339767 104.651662 
L 151.866738 103.23883 
L 153.407761 101.841337 
L 154.962681 100.459324 
L 156.531343 99.092929 
L 158.113591 97.742289 
L 159.709265 96.407538 
L 161.318207 95.088811 
L 162.940256 93.786239 
L 164.575249 92.499952 
L 166.223023 91.230079 
L 167.883413 89.976747 
L 169.556254 88.740082 
L 171.241377 87.520206 
L 172.938614 86.317243 
L 174.647796 85.131311 
L 176.368752 83.962531 
L 178.101309 82.811018 
L 179.845294 81.676888 
L 181.600534 80.560254 
L 183.366851 79.461228 
L 185.144071 78.37992 
L 186.932015 77.316438 
L 188.730503 76.270888 
L 190.539358 75.243375 
L 192.358396 74.234002 
L 194.187438 73.242869 
L 196.026299 72.270076 
L 197.874796 71.31572 
L 199.732743 70.379896 
L 201.599957 69.462699 
L 203.476248 68.564219 
L 205.36143 67.684546 
L 207.255315 66.823769 
L 209.157713 65.981974 
L 211.068433 65.159244 
L 212.987285 64.355662 
L 214.914077 63.571309 
L 216.848615 62.806262 
L 218.790708 62.060599 
L 220.740159 61.334394 
L 222.696776 60.627719 
L 224.660361 59.940645 
L 226.630718 59.273241 
L 228.607651 58.625574 
L 230.590962 57.997708 
L 232.580452 57.389707 
L 234.575922 56.80163 
L 236.577173 56.233537 
L 238.584005 55.685485 
L 240.596218 55.157528 
L 242.613609 54.649719 
L 244.635977 54.16211 
L 246.66312 53.694748 
L 248.694835 53.24768 
L 250.730919 52.820952 
L 252.771169 52.414605 
L 254.81538 52.028681 
L 256.863348 51.663218 
L 258.914868 51.318253 
L 260.969736 50.993819 
L 263.027744 50.689951 
L 265.088689 50.406677 
L 267.152363 50.144026 
L 269.21856 49.902025 
L 271.287075 49.680698 
L 273.357698 49.480067 
L 275.430225 49.300151 
L 277.504447 49.14097 
L 279.580157 49.002538 
L 281.657148 48.88487 
L 283.735212 48.787977 
L 285.81414 48.71187 
L 287.893726 48.656555 
L 289.973761 48.622038 
L 292.054037 48.608324 
L 292.385361 48.60806 
L 292.385361 46.506717 
L 292.05069 46.506983 
L 289.949401 46.520836 
L 287.848356 46.555701 
L 285.747764 46.611575 
L 283.647837 46.688451 
L 281.548782 46.786322 
L 279.450812 46.905179 
L 277.354135 47.045009 
L 275.258961 47.205799 
L 273.1655 47.387531 
L 271.073961 47.590189 
L 268.984552 47.813752 
L 266.897484 48.058198 
L 264.812965 48.323501 
L 262.731203 48.609637 
L 260.652406 48.916575 
L 258.576783 49.244285 
L 256.50454 49.592735 
L 254.435885 49.96189 
L 252.371026 50.351712 
L 250.310167 50.762163 
L 248.253517 51.193202 
L 246.201279 51.644785 
L 244.15366 52.116868 
L 242.110864 52.609403 
L 240.073095 53.122341 
L 238.040557 53.655631 
L 236.013454 54.209219 
L 233.991988 54.78305 
L 231.976362 55.377067 
L 229.966776 55.99121 
L 227.963432 56.625418 
L 225.96653 57.279627 
L 223.97627 57.953772 
L 221.992851 58.647786 
L 220.016471 59.361599 
L 218.047327 60.09514 
L 216.085618 60.848335 
L 214.131538 61.621109 
L 212.185284 62.413385 
L 210.24705 63.225084 
L 208.317029 64.056124 
L 206.395416 64.906423 
L 204.482401 65.775895 
L 202.578176 66.664453 
L 200.682932 67.572008 
L 198.796858 68.498471 
L 196.920143 69.443747 
L 195.052975 70.407743 
L 193.195539 71.390362 
L 191.348023 72.391507 
L 189.51061 73.411076 
L 187.683485 74.448967 
L 185.866829 75.505078 
L 184.060826 76.579302 
L 182.265654 77.671533 
L 180.481495 78.78166 
L 178.708526 79.909573 
L 176.946924 81.055159 
L 175.196867 82.218303 
L 173.458528 83.39889 
L 171.732081 84.5968 
L 170.0177 85.811915 
L 168.315556 87.044113 
L 166.625818 88.29327 
L 164.948656 89.559261 
L 163.284238 90.841961 
L 161.63273 92.141241 
L 159.994297 93.45697 
L 158.369103 94.789018 
L 156.75731 96.137251 
L 155.15908 97.501534 
L 153.574573 98.881731 
L 152.003946 100.277703 
L 150.447358 101.689312 
L 148.904963 103.116416 
L 147.376917 104.558872 
L 145.863371 106.016537 
L 144.364477 107.489263 
L 142.880385 108.976905 
L 141.411243 110.479313 
L 139.957199 111.996337 
L 138.518397 113.527825 
L 137.094982 115.073625 
L 135.687096 116.633581 
L 134.294879 118.207538 
L 132.918472 119.795338 
L 131.558011 121.396823 
L 130.213632 123.011832 
L 128.885471 124.640203 
L 127.573659 126.281775 
L 126.278329 127.936382 
L 124.999609 129.60386 
L 123.737628 131.284042 
L 122.492511 132.976759 
L 121.264383 134.681842 
L 120.053367 136.399121 
L 118.859585 138.128424 
L 117.683154 139.869579 
L 116.524194 141.62241 
L 115.38282 143.386744 
L 114.259146 145.162402 
L 113.153284 146.949209 
L 112.065346 148.746984 
L 110.995439 150.555549 
L 109.943671 152.374722 
L 108.910147 154.204322 
L 107.894971 156.044165 
L 106.898243 157.894068 
L 105.920064 159.753846 
L 104.960531 161.623312 
L 104.019741 163.50228 
L 103.097787 165.390561 
L 102.194762 167.287968 
L 101.310755 169.19431 
L 100.445856 171.109397 
L 99.600151 173.033036 
L 98.773724 174.965037 
L 97.966658 176.905204 
L 97.179034 178.853346 
L 96.41093 180.809266 
L 95.662423 182.772769 
L 94.933589 184.743659 
L 94.224499 186.721739 
L 93.535226 188.70681 
L 92.865837 190.698675 
L 92.2164 192.697134 
L 91.58698 194.701988 
L 90.97764 196.713035 
L 90.38844 198.730075 
L 89.81944 200.752906 
L 89.270696 202.781326 
L 88.742263 204.815132 
L 88.234195 206.85412 
L 87.746541 208.898087 
L 87.279352 210.946828 
L 86.832672 213.000139 
L 86.406548 215.057813 
L 86.001021 217.119646 
L 85.616133 219.185431 
L 85.251922 221.254962 
L 84.908423 223.328031 
L 84.585672 225.404432 
L 84.283701 227.483956 
L 84.00254 229.566395 
L 83.742217 231.651543 
L 83.502759 233.739189 
L 83.284188 235.829125 
L 83.086527 237.921142 
L 82.909796 240.015032 
L 82.754012 242.110584 
L 82.619192 244.207589 
L 82.505347 246.305837 
L 82.412491 248.405119 
L 82.340631 250.505225 
L 82.289776 252.605944 
L 82.259931 254.707066 
L 82.251097 256.808382 
L 82.263277 258.909682 
L 82.296469 261.010754 
L 82.35067 263.11139 
L 82.425874 265.211378 
L 82.522074 267.310509 
L 82.63926 269.408574 
L 82.77742 271.505361 
L 82.936541 273.600663 
L 83.116607 275.694268 
L 83.317599 277.785968 
L 83.539498 279.875554 
L 83.782282 281.962816 
L 84.045925 284.047546 
L 84.330402 286.129535 
L 84.635685 288.208575 
L 84.961742 290.284459 
L 85.308542 292.356979 
L 85.676049 294.425927 
L 86.064227 296.491096 
L 86.473037 298.55228 
L 86.902438 300.609274 
L 87.352387 302.66187 
L 87.822839 304.709865 
L 88.313747 306.753053 
L 88.825062 308.791229 
L 89.356733 310.824191 
L 89.908707 312.851734 
L 90.480928 314.873656 
L 91.07334 316.889755 
L 91.685882 318.89983 
L 92.318495 320.903678 
L 92.971114 322.9011 
L 93.643674 324.891897 
L 94.336108 326.875868 
L 95.048347 328.852816 
L 95.780319 330.822542 
L 96.531952 332.784851 
L 97.30317 334.739545 
L 98.093896 336.68643 
L 98.904051 338.62531 
L 99.733554 340.555991 
L 100.582322 342.478282 
L 101.45027 344.391988 
L 102.337311 346.29692 
L 103.243357 348.192886 
L 104.168318 350.079697 
L 105.112099 351.957164 
L 106.074608 353.8251 
L 107.055748 355.683317 
L 108.055421 357.53163 
L 109.073526 359.369854 
L 110.109963 361.197806 
L 111.164626 363.015302 
L 112.237412 364.82216 
L 113.328213 366.618201 
L 114.436919 368.403243 
L 115.563419 370.17711 
L 116.707602 371.939623 
L 117.869352 373.690607 
L 119.048554 375.429885 
L 120.24509 377.157285 
L 121.458839 378.872633 
L 122.689681 380.575759 
L 123.937492 382.26649 
L 125.202148 383.94466 
L 126.483522 385.610099 
L 127.781486 387.262641 
L 129.09591 388.902122 
L 130.426663 390.528376 
L 131.773612 392.141242 
L 133.136622 393.740557 
L 134.515556 395.326163 
L 135.910278 396.897901 
L 137.320647 398.455613 
L 138.746522 399.999143 
L 140.187761 401.528338 
L 141.644219 403.043045 
L 143.115752 404.543111 
L 144.602211 406.028387 
L 146.103449 407.498725 
L 147.619315 408.953977 
L 149.149657 410.393997 
L 150.694322 411.818643 
L 152.253157 413.227771 
L 153.826005 414.62124 
L 155.412708 415.998912 
L 157.013109 417.360648 
L 158.627047 418.706312 
L 160.25436 420.035769 
L 161.894887 421.348888 
L 163.548462 422.645535 
L 165.214921 423.925583 
L 166.894097 425.188902 
L 168.585822 426.435366 
L 170.289927 427.664851 
L 172.006241 428.877234 
L 173.734593 430.072394 
L 175.47481 431.25021 
L 177.226718 432.410566 
L 178.990142 433.553345 
L 180.764905 434.678432 
L 182.55083 435.785716 
L 184.347739 436.875086 
L 186.155451 437.946433 
L 187.973786 438.999649 
L 189.802562 440.03463 
L 191.641597 441.051271 
L 193.490705 442.049471 
L 195.349703 443.029131 
L 197.218405 443.990152 
L 199.096623 444.932438 
L 200.98417 445.855896 
L 202.880857 446.760432 
L 204.786494 447.645956 
L 206.700891 448.51238 
L 208.623857 449.359617 
L 210.555199 450.187582 
L 212.494723 450.996193 
L 214.442237 451.785368 
L 216.397545 452.555029 
L 218.360451 453.305099 
L 220.33076 454.035503 
L 222.308274 454.746167 
L 224.292796 455.437021 
L 226.284128 456.107996 
L 228.282069 456.759024 
L 230.28642 457.39004 
L 232.296982 458.000982 
L 234.313552 458.591788 
L 236.335929 459.162399 
L 238.363912 459.712758 
L 240.397296 460.24281 
L 242.435879 460.752502 
L 244.479457 461.241783 
L 246.527825 461.710604 
L 248.58078 462.158918 
L 250.638114 462.586681 
L 252.699624 462.993849 
L 254.765102 463.380382 
L 256.834342 463.746242 
L 258.907137 464.091391 
L 260.983279 464.415795 
L 263.062562 464.719422 
L 265.144777 465.002241 
L 267.229717 465.264225 
L 269.317171 465.505346 
L 271.406933 465.725581 
L 273.498792 465.924907 
L 275.59254 466.103306 
L 277.687968 466.260758 
L 279.784865 466.397249 
L 281.883022 466.512764 
L 283.982229 466.607292 
L 286.082277 466.680824 
L 288.182955 466.733352 
L 290.284053 466.764871 
L 292.385361 466.775377 
L 292.385361 464.674034 
z
" clip-path="url(#pace24bab17)" style="fill: none; stroke: #000000; stroke-width: 0.5; stroke-linejoin: miter"/>
   </g>
   <g id="text_1">
    <text style="font: 3px 'DejaVu Sans', 'Bitstream Vera Sans', 'Computer Modern Sans Serif', 'Lucida Grande', 'Verdana', 'Geneva', 'Lucid', 'Arial', 'Helvetica', 'Avant Garde', sans-serif; text-anchor: start" x="504.621035" y="257.840812" transform="rotate(-0 504.621035 257.840812)">Instituto Superior de Cincias e Tecnologia de Moambique</text>
   </g>
   <g id="text_2">
    <text style="font: 3px 'DejaVu Sans', 'Bitstream Vera Sans', 'Computer Modern Sans Serif', 'Lucida Grande', 'Verdana', 'Geneva', 'Lucid', 'Arial', 'Helvetica', 'Avant Garde', sans-serif; text-anchor: end" x="80.149688" y="257.780812" transform="rotate(-0 80.149688 257.780812)">Eduardo Mondlane University</text>
   </g>
  </g>
 </g>
 <defs>
  <clipPath id="pace24bab17">
   <path d="M 513.026408 256.641047 
C 513.026408 227.66673 507.319099 198.974152 496.231108 172.205374 
C 485.143117 145.436595 468.890078 121.112202 448.402142 100.624266 
C 427.914206 80.136331 403.589813 63.883291 376.821034 52.7953 
C 350.052256 41.707309 321.359678 36 292.385361 36 
C 263.411044 36 234.718466 41.707309 207.949688 52.7953 
C 181.18091 63.883291 156.856517 80.136331 136.368581 100.624266 
C 115.880645 121.112202 99.627605 145.436595 88.539614 172.205374 
C 77.451623 198.974152 71.744314 227.66673 71.744314 256.641047 
C 71.744314 285.615364 77.451623 314.307942 88.539614 341.07672 
C 99.627605 367.845498 115.880645 392.169891 136.368581 412.657827 
C 156.856517 433.145763 181.18091 449.398803 207.949688 460.486794 
C 234.718466 471.574785 263.411044 477.282094 292.385361 477.282094 
C 321.359678 477.282094 350.052256 471.574785 376.821034 460.486794 
C 403.589813 449.398803 427.914206 433.145763 448.402142 412.657827 
C 468.890078 392.169891 485.143117 367.845498 496.231108 341.07672 
C 507.319099 314.307942 513.026408 285.615364 513.026408 256.641047 
M 292.385361 256.641047 
C 292.385361 256.641047 292.385361 256.641047 292.385361 256.641047 
C 292.385361 256.641047 292.385361 256.641047 292.385361 256.641047 
C 292.385361 256.641047 292.385361 256.641047 292.385361 256.641047 
C 292.385361 256.641047 292.385361 256.641047 292.385361 256.641047 
C 292.385361 256.641047 292.385361 256.641047 292.385361 256.641047 
C 292.385361 256.641047 292.385361 256.641047 292.385361 256.641047 
C 292.385361 256.641047 292.385361 256.641047 292.385361 256.641047 
C 292.385361 256.641047 292.385361 256.641047 292.385361 256.641047 
C 292.385361 256.641047 292.385361 256.641047 292.385361 256.641047 
C 292.385361 256.641047 292.385361 256.641047 292.385361 256.641047 
C 292.385361 256.641047 292.385361 256.641047 292.385361 256.641047 
C 292.385361 256.641047 292.385361 256.641047 292.385361 256.641047 
C 292.385361 256.641047 292.385361 256.641047 292.385361 256.641047 
C 292.385361 256.641047 292.385361 256.641047 292.385361 256.641047 
C 292.385361 256.641047 292.385361 256.641047 292.385361 256.641047 
C 292.385361 256.641047 292.385361 256.641047 292.385361 256.641047 
z
"/>
  </clipPath>
 </defs>
</svg>
