<?xml version="1.0" encoding="utf-8" standalone="no"?>
<!DOCTYPE svg PUBLIC "-//W3C//DTD SVG 1.1//EN"
  "http://www.w3.org/Graphics/SVG/1.1/DTD/svg11.dtd">
<svg xmlns:xlink="http://www.w3.org/1999/xlink" width="625.330022pt" height="622.621668pt" viewBox="0 0 625.330022 622.621668" xmlns="http://www.w3.org/2000/svg" version="1.1">
 <metadata>
  <rdf:RDF xmlns:dc="http://purl.org/dc/elements/1.1/" xmlns:cc="http://creativecommons.org/ns#" xmlns:rdf="http://www.w3.org/1999/02/22-rdf-syntax-ns#">
   <cc:Work>
    <dc:type rdf:resource="http://purl.org/dc/dcmitype/StillImage"/>
    <dc:date>2024-11-16T04:32:48.517857</dc:date>
    <dc:format>image/svg+xml</dc:format>
    <dc:creator>
     <cc:Agent>
      <dc:title>Matplotlib v3.8.4, https://matplotlib.org/</dc:title>
     </cc:Agent>
    </dc:creator>
   </cc:Work>
  </rdf:RDF>
 </metadata>
 <defs>
  <style type="text/css">*{stroke-linejoin: round; stroke-linecap: butt}</style>
 </defs>
 <g id="figure_1">
  <g id="patch_1">
   <path d="M 0 622.621668 
L 625.330022 622.621668 
L 625.330022 0 
L 0 0 
z
" style="fill: #ffffff"/>
  </g>
  <g id="axes_1">
   <g id="patch_2">
    <path d="M 293.175983 86.965472 
L 295.600745 86.977595 
L 298.025264 87.013966 
L 300.449299 87.074579 
L 302.872606 87.15943 
L 305.294943 87.268509 
L 307.716069 87.401805 
L 310.13574 87.559306 
L 312.553715 87.740994 
L 314.969753 87.946854 
L 317.383612 88.176863 
L 319.795049 88.430998 
L 322.203825 88.709235 
L 324.609698 89.011545 
L 327.012428 89.337899 
L 329.411774 89.688263 
L 331.807496 90.062603 
L 334.199355 90.46088 
L 336.587113 90.883056 
L 338.970529 91.329088 
L 341.349365 91.798932 
L 343.723384 92.29254 
L 346.092349 92.809863 
L 348.456022 93.35085 
L 350.814167 93.915445 
L 353.166548 94.503594 
L 355.51293 95.115237 
L 357.853079 95.750312 
L 360.18676 96.408757 
L 362.51374 97.090505 
L 364.833786 97.795489 
L 367.146667 98.523638 
L 369.45215 99.274878 
L 371.750006 100.049136 
L 374.040005 100.846332 
L 376.321917 101.666389 
L 378.595515 102.509223 
L 380.86057 103.374751 
L 383.116858 104.262886 
L 385.364151 105.173539 
L 387.602226 106.106619 
L 389.830858 107.062032 
L 392.049825 108.039684 
L 394.258904 109.039476 
L 396.457876 110.061309 
L 398.646519 111.105079 
L 400.824615 112.170684 
L 402.991946 113.258016 
L 405.148296 114.366967 
L 407.293449 115.497425 
L 409.42719 116.649278 
L 411.549306 117.82241 
L 413.659585 119.016705 
L 414.41609 119.45166 
L 415.640737 117.330508 
L 414.876591 116.89116 
L 412.744996 115.684802 
L 410.601445 114.499819 
L 408.446151 113.336332 
L 406.27933 112.194454 
L 404.101199 111.074302 
L 401.911975 109.975987 
L 399.711878 108.899619 
L 397.501127 107.845305 
L 395.279944 106.813151 
L 393.048551 105.80326 
L 390.80717 104.815733 
L 388.556026 103.850668 
L 386.295345 102.908163 
L 384.025352 101.988312 
L 381.746273 101.091206 
L 379.458338 100.216936 
L 377.161775 99.365588 
L 374.856813 98.537248 
L 372.543683 97.731999 
L 370.222616 96.949921 
L 367.893845 96.191092 
L 365.557602 95.455588 
L 363.214121 94.743483 
L 360.863637 94.054849 
L 358.506383 93.389753 
L 356.142597 92.748263 
L 353.772513 92.130442 
L 351.396371 91.536352 
L 349.014406 90.966053 
L 346.626858 90.419602 
L 344.233964 89.897054 
L 341.835965 89.39846 
L 339.4331 88.92387 
L 337.025609 88.473333 
L 334.613733 88.046892 
L 332.197713 87.644592 
L 329.777792 87.266471 
L 327.35421 86.912568 
L 324.92721 86.582918 
L 322.497035 86.277554 
L 320.063929 85.996506 
L 317.628133 85.739804 
L 315.189892 85.507472 
L 312.74945 85.299533 
L 310.307051 85.116009 
L 307.862938 84.956917 
L 305.417357 84.822275 
L 302.970551 84.712094 
L 300.522767 84.626386 
L 298.074247 84.565161 
L 295.625238 84.528423 
L 293.175983 84.516176 
z
" clip-path="url(#pecfc3f7cf6)" style="fill: #000080"/>
   </g>
   <g id="patch_3">
    <path d="M 414.41609 119.45166 
L 416.509933 120.674541 
L 418.591443 121.918298 
L 420.660412 123.182808 
L 422.716632 124.467944 
L 424.759898 125.773578 
L 426.790006 127.099579 
L 428.806753 128.445814 
L 430.809937 129.812149 
L 432.799357 131.198447 
L 434.774815 132.60457 
L 436.736114 134.030376 
L 438.683056 135.475724 
L 440.615448 136.940469 
L 442.533096 138.424465 
L 444.435809 139.927562 
L 446.323396 141.449611 
L 448.195668 142.990459 
L 450.052438 144.549953 
L 451.893521 146.127936 
L 453.718732 147.724251 
L 455.527889 149.338737 
L 457.320811 150.971235 
L 459.097318 152.621579 
L 460.857234 154.289606 
L 462.600382 155.975148 
L 464.326587 157.678037 
L 466.035677 159.398103 
L 467.727482 161.135174 
L 469.401831 162.889075 
L 471.058559 164.659632 
L 472.697498 166.446667 
L 474.318485 168.250002 
L 475.921358 170.069457 
L 477.505956 171.904849 
L 479.072122 173.755995 
L 480.619698 175.62271 
L 482.14853 177.504807 
L 483.658465 179.402098 
L 485.149352 181.314393 
L 486.621041 183.241501 
L 488.073387 185.183229 
L 489.506242 187.139384 
L 490.919465 189.109769 
L 492.312914 191.094188 
L 493.686449 193.092441 
L 495.039933 195.10433 
L 496.373231 197.129653 
L 497.68621 199.168208 
L 498.978737 201.21979 
L 500.250685 203.284194 
L 501.501925 205.361215 
L 502.732333 207.450643 
L 503.941785 209.552272 
L 505.130161 211.665889 
L 506.297342 213.791285 
L 507.443211 215.928245 
L 508.567653 218.076558 
L 509.670556 220.236007 
L 510.75181 222.406377 
L 511.811307 224.587451 
L 512.84894 226.779011 
L 513.864606 228.980837 
L 514.858203 231.192709 
L 515.829633 233.414407 
L 516.778797 235.645708 
L 517.705601 237.886389 
L 518.609952 240.136226 
L 519.49176 242.394993 
L 520.350937 244.662466 
L 521.187396 246.938417 
L 522.001055 249.222618 
L 522.791831 251.514842 
L 523.559646 253.814858 
L 524.304422 256.122438 
L 525.026086 258.43735 
L 525.724565 260.759363 
L 526.39979 263.088244 
L 527.051692 265.423761 
L 527.680207 267.765681 
L 528.285271 270.113768 
L 528.866825 272.467788 
L 529.42481 274.827506 
L 529.959171 277.192686 
L 530.469853 279.563091 
L 530.956806 281.938484 
L 531.419981 284.318628 
L 531.859332 286.703285 
L 532.274815 289.092215 
L 532.666388 291.485181 
L 533.034012 293.881944 
L 533.377651 296.282262 
L 533.69727 298.685897 
L 533.992837 301.092608 
L 534.264322 303.502154 
L 534.511698 305.914294 
L 534.734942 308.328788 
L 534.934029 310.745393 
L 535.108941 313.163868 
L 535.25966 315.583971 
L 535.386171 318.005461 
L 535.488461 320.428094 
L 535.56652 322.85163 
L 535.62034 325.275824 
L 535.649916 327.700436 
L 535.655244 330.125222 
L 535.636325 332.54994 
L 535.59316 334.974348 
L 535.525754 337.398203 
L 535.434112 339.821263 
L 535.318246 342.243285 
L 535.178165 344.664027 
L 535.013884 347.083248 
L 534.825419 349.500705 
L 534.61279 351.916156 
L 534.376017 354.32936 
L 534.115125 356.740076 
L 533.830139 359.148063 
L 533.521087 361.553079 
L 533.188001 363.954885 
L 532.830915 366.353239 
L 532.449863 368.747903 
L 532.044883 371.138637 
L 531.616017 373.525202 
L 531.163308 375.907358 
L 530.6868 378.284869 
L 530.18654 380.657496 
L 529.66258 383.025001 
L 529.114972 385.387149 
L 528.54377 387.743702 
L 527.949031 390.094426 
L 527.330815 392.439085 
L 526.689184 394.777445 
L 526.024202 397.109271 
L 525.335935 399.434331 
L 524.624452 401.752393 
L 523.889825 404.063224 
L 523.132126 406.366593 
L 522.351432 408.66227 
L 521.547821 410.950025 
L 520.721373 413.22963 
L 519.87217 415.500857 
L 519.000298 417.763479 
L 518.105843 420.017268 
L 517.188896 422.262001 
L 516.249548 424.497452 
L 515.287893 426.723398 
L 514.304026 428.939616 
L 513.298047 431.145885 
L 512.270056 433.341984 
L 511.220156 435.527693 
L 510.148451 437.702795 
L 509.05505 439.86707 
L 507.94006 442.020304 
L 506.803595 444.16228 
L 505.645767 446.292785 
L 504.466692 448.411605 
L 503.266488 450.518529 
L 503.170008 450.685791 
L 505.29116 451.910439 
L 505.388614 451.741487 
L 506.600941 449.613281 
L 507.791926 447.473059 
L 508.961449 445.321034 
L 510.109394 443.157421 
L 511.235646 440.982438 
L 512.340092 438.796301 
L 513.422622 436.599229 
L 514.483128 434.391441 
L 515.521502 432.17316 
L 516.537643 429.944605 
L 517.531447 427.706001 
L 518.502816 425.457571 
L 519.451653 423.199539 
L 520.377862 420.932133 
L 521.281351 418.655577 
L 522.16203 416.370101 
L 523.019811 414.075933 
L 523.854607 411.773301 
L 524.666336 409.462437 
L 525.454915 407.143572 
L 526.220268 404.816936 
L 526.962315 402.482764 
L 527.680985 400.141287 
L 528.376204 397.792742 
L 529.047903 395.437361 
L 529.696015 393.075382 
L 530.320476 390.70704 
L 530.921222 388.332571 
L 531.498194 385.952214 
L 532.051334 383.566206 
L 532.580586 381.174787 
L 533.085899 378.778194 
L 533.56722 376.376668 
L 534.024503 373.970449 
L 534.457701 371.559778 
L 534.866771 369.144896 
L 535.251672 366.726043 
L 535.612365 364.303462 
L 535.948816 361.877396 
L 536.260989 359.448087 
L 536.548854 357.015777 
L 536.812381 354.58071 
L 537.051546 352.14313 
L 537.266323 349.703281 
L 537.456691 347.261405 
L 537.622631 344.817748 
L 537.764127 342.372553 
L 537.881164 339.926066 
L 537.973731 337.478531 
L 538.041819 335.030193 
L 538.085419 332.581296 
L 538.10453 330.132086 
L 538.099147 327.682807 
L 538.069273 325.233704 
L 538.014909 322.785023 
L 537.936062 320.337007 
L 537.832739 317.889903 
L 537.70495 315.443954 
L 537.552709 312.999405 
L 537.37603 310.556501 
L 537.174931 308.115486 
L 536.949433 305.676603 
L 536.699558 303.240098 
L 536.42533 300.806213 
L 536.126778 298.375192 
L 535.80393 295.947278 
L 535.456821 293.522714 
L 535.085483 291.101742 
L 534.689955 288.684605 
L 534.270275 286.271543 
L 533.826486 283.862799 
L 533.358633 281.458613 
L 532.866761 279.059226 
L 532.35092 276.664878 
L 531.811162 274.275807 
L 531.247541 271.892254 
L 530.660113 269.514455 
L 530.048936 267.14265 
L 529.414073 264.777075 
L 528.755586 262.417967 
L 528.073541 260.065562 
L 527.368006 257.720094 
L 526.639053 255.381799 
L 525.886753 253.050911 
L 525.111183 250.727662 
L 524.312419 248.412284 
L 523.490542 246.10501 
L 522.645633 243.80607 
L 521.777778 241.515693 
L 520.887063 239.23411 
L 519.973577 236.961548 
L 519.037411 234.698234 
L 518.078659 232.444394 
L 517.097418 230.200255 
L 516.093784 227.96604 
L 515.067859 225.741973 
L 514.019744 223.528277 
L 512.949546 221.325172 
L 511.85737 219.132879 
L 510.743326 216.951617 
L 509.607526 214.781604 
L 508.450083 212.623058 
L 507.271113 210.476194 
L 506.070733 208.341227 
L 504.849064 206.21837 
L 503.606228 204.107836 
L 502.342349 202.009835 
L 501.057553 199.924578 
L 499.75197 197.852273 
L 498.425729 195.793128 
L 497.078963 193.747347 
L 495.711807 191.715136 
L 494.324398 189.696698 
L 492.916874 187.692235 
L 491.489376 185.701947 
L 490.042047 183.726033 
L 488.575032 181.764691 
L 487.088477 179.818117 
L 485.58253 177.886506 
L 484.057344 175.97005 
L 482.513069 174.068942 
L 480.94986 172.183372 
L 479.367875 170.313527 
L 477.76727 168.459596 
L 476.148207 166.621763 
L 474.510846 164.800212 
L 472.855352 162.995126 
L 471.181891 161.206685 
L 469.490628 159.435067 
L 467.781735 157.680451 
L 466.055381 155.943011 
L 464.311739 154.222921 
L 462.550984 152.520353 
L 460.773292 150.835477 
L 458.978839 149.168462 
L 457.167807 147.519475 
L 455.340376 145.88868 
L 453.496728 144.276241 
L 451.637049 142.682319 
L 449.761523 141.107073 
L 447.870339 139.55066 
L 445.963686 138.013237 
L 444.041754 136.494957 
L 442.104736 134.995972 
L 440.152825 133.516432 
L 438.186216 132.056484 
L 436.205107 130.616276 
L 434.209694 129.19595 
L 432.200179 127.795648 
L 430.176761 126.415512 
L 428.139643 125.055678 
L 426.089029 123.716284 
L 424.025123 122.397462 
L 421.948133 121.099345 
L 419.858266 119.822062 
L 417.755731 118.565741 
L 415.640737 117.330508 
z
" clip-path="url(#pecfc3f7cf6)" style="fill: #0080ff"/>
   </g>
   <g id="patch_4">
    <path d="M 503.170008 450.685791 
L 501.947127 452.779634 
L 500.70337 454.861144 
L 499.43886 456.930113 
L 498.153724 458.986333 
L 496.84809 461.029599 
L 495.522089 463.059707 
L 494.175854 465.076454 
L 492.809519 467.079638 
L 491.423221 469.069058 
L 490.017098 471.044516 
L 488.591292 473.005815 
L 487.145944 474.952757 
L 485.681199 476.885149 
L 484.197203 478.802798 
L 482.694106 480.70551 
L 481.172057 482.593097 
L 479.631209 484.465369 
L 478.071715 486.322139 
L 476.493732 488.163222 
L 474.897417 489.988433 
L 473.282931 491.79759 
L 471.650433 493.590512 
L 470.000089 495.36702 
L 468.332062 497.126935 
L 466.64652 498.870083 
L 464.943631 500.596288 
L 463.223565 502.305378 
L 461.486494 503.997183 
L 459.732593 505.671533 
L 457.962036 507.32826 
L 456.175001 508.967199 
L 454.371666 510.588186 
L 452.552211 512.191059 
L 450.716819 513.775657 
L 448.865673 515.341823 
L 446.998958 516.889399 
L 445.116861 518.418231 
L 443.21957 519.928166 
L 441.307275 521.419053 
L 439.380167 522.890742 
L 437.438438 524.343088 
L 435.482284 525.775943 
L 433.511899 527.189166 
L 431.52748 528.582615 
L 429.529227 529.95615 
L 427.517338 531.309634 
L 425.492015 532.642932 
L 423.45346 533.955911 
L 421.401878 535.248438 
L 419.337474 536.520386 
L 417.260453 537.771626 
L 415.171025 539.002034 
L 413.069396 540.211486 
L 410.955779 541.399862 
L 408.830383 542.567043 
L 406.693423 543.712912 
L 404.54511 544.837354 
L 402.385661 545.940257 
L 400.215291 547.021511 
L 398.034217 548.081008 
L 395.842657 549.118641 
L 393.640831 550.134307 
L 391.428959 551.127904 
L 389.207261 552.099334 
L 386.97596 553.048498 
L 384.735279 553.975302 
L 382.485442 554.879653 
L 380.226675 555.761461 
L 377.959202 556.620638 
L 375.683251 557.457097 
L 373.39905 558.270756 
L 371.106826 559.061532 
L 368.806809 559.829347 
L 366.49923 560.574123 
L 364.184318 561.295787 
L 361.862305 561.994266 
L 359.533424 562.669491 
L 357.197907 563.321393 
L 354.855987 563.949908 
L 352.5079 564.554973 
L 350.15388 565.136526 
L 347.794162 565.694511 
L 345.428982 566.228872 
L 343.058577 566.739554 
L 340.683184 567.226507 
L 338.30304 567.689682 
L 335.918383 568.129033 
L 333.529453 568.544516 
L 331.136486 568.936089 
L 328.739724 569.303713 
L 326.339406 569.647352 
L 323.935771 569.966971 
L 321.52906 570.262538 
L 319.119514 570.534023 
L 316.707374 570.7814 
L 314.29288 571.004643 
L 311.876275 571.20373 
L 309.4578 571.378642 
L 307.037697 571.529361 
L 304.616207 571.655872 
L 302.193574 571.758162 
L 299.770038 571.836221 
L 297.345844 571.890041 
L 294.921232 571.919617 
L 292.496446 571.924945 
L 290.071728 571.906026 
L 287.64732 571.862861 
L 285.223465 571.795455 
L 282.800405 571.703813 
L 280.378383 571.587947 
L 277.957641 571.447866 
L 275.53842 571.283585 
L 273.120963 571.09512 
L 270.705512 570.882491 
L 268.292308 570.645718 
L 265.881592 570.384826 
L 263.473605 570.09984 
L 261.068589 569.790788 
L 258.666783 569.457703 
L 256.268429 569.100616 
L 253.873765 568.719564 
L 251.483031 568.314584 
L 249.096466 567.885719 
L 246.71431 567.433009 
L 244.336799 566.956501 
L 241.964172 566.456241 
L 239.596667 565.932281 
L 237.234519 565.384673 
L 234.877966 564.813471 
L 232.527242 564.218732 
L 230.182583 563.600516 
L 227.844223 562.958885 
L 225.512397 562.293903 
L 223.187337 561.605636 
L 220.869275 560.894153 
L 218.558444 560.159526 
L 216.255075 559.401827 
L 213.959398 558.621133 
L 211.671643 557.817522 
L 209.392038 556.991074 
L 207.120811 556.141871 
L 204.858189 555.269999 
L 202.6044 554.375544 
L 200.359667 553.458597 
L 198.124216 552.519249 
L 195.89827 551.557594 
L 193.682052 550.573727 
L 191.475783 549.567748 
L 189.279684 548.539757 
L 187.093975 547.489857 
L 184.918873 546.418152 
L 182.754598 545.324751 
L 180.601364 544.209761 
L 178.459388 543.073296 
L 176.328883 541.915468 
L 174.210063 540.736393 
L 172.103139 539.536189 
L 170.008323 538.314976 
L 167.925823 537.072877 
L 165.855848 535.810015 
L 163.798605 534.526517 
L 161.7543 533.22251 
L 159.723137 531.898127 
L 157.705319 530.553498 
L 155.701047 529.188759 
L 153.710524 527.804045 
L 151.733946 526.399496 
L 149.771513 524.975251 
L 147.82342 523.531454 
L 145.889862 522.068249 
L 143.971033 520.585781 
L 142.067124 519.084199 
L 140.178326 517.563654 
L 138.304827 516.024297 
L 136.446816 514.466283 
L 134.604477 512.889766 
L 132.777995 511.294905 
L 130.967553 509.68186 
L 129.173332 508.050791 
L 127.395511 506.401861 
L 125.634267 504.735237 
L 123.889778 503.051083 
L 122.162217 501.349569 
L 120.451758 499.630865 
L 118.75857 497.895142 
L 117.082825 496.142575 
L 115.424688 494.373338 
L 113.784327 492.587608 
L 112.161904 490.785564 
L 110.557583 488.967387 
L 108.971523 487.133257 
L 107.403884 485.283359 
L 105.854822 483.417877 
L 104.324491 481.536998 
L 102.813046 479.64091 
L 101.320637 477.729803 
L 99.847413 475.803867 
L 98.393522 473.863296 
L 96.959109 471.908283 
L 95.544318 469.939024 
L 94.149289 467.955715 
L 92.774163 465.958556 
L 91.419077 463.947746 
L 90.084167 461.923485 
L 88.769565 459.885977 
L 87.475404 457.835425 
L 86.201813 455.772034 
L 84.94892 453.696011 
L 83.716848 451.607562 
L 82.505723 449.506898 
L 81.315664 447.394227 
L 80.146791 445.269762 
L 78.999221 443.133714 
L 77.873068 440.986298 
L 76.768446 438.827728 
L 75.685464 436.65822 
L 74.624231 434.47799 
L 73.584853 432.287257 
L 72.567434 430.086241 
L 71.572075 427.87516 
L 70.598877 425.654236 
L 69.647936 423.423692 
L 68.719348 421.18375 
L 67.813206 418.934634 
L 66.929599 416.676569 
L 66.068617 414.409782 
L 65.230346 412.134498 
L 64.414868 409.850945 
L 63.622267 407.559352 
L 62.852621 405.259947 
L 62.106007 402.952961 
L 61.3825 400.638625 
L 60.682172 398.317169 
L 60.005093 395.988826 
L 59.351331 393.653829 
L 58.720952 391.312411 
L 58.114018 388.964806 
L 57.530589 386.61125 
L 56.970725 384.251977 
L 56.434482 381.887223 
L 55.921912 379.517226 
L 55.433068 377.142221 
L 54.967997 374.762447 
L 54.526747 372.378141 
L 54.109362 369.989542 
L 53.715884 367.596888 
L 53.346351 365.200419 
L 53.000801 362.800375 
L 52.679268 360.396996 
L 52.381785 357.990521 
L 52.108381 355.581192 
L 51.859084 353.16925 
L 51.633918 350.754935 
L 51.432906 348.338489 
L 51.256068 345.920154 
L 51.103422 343.500171 
L 50.974983 341.078783 
L 50.870764 338.656232 
L 50.790775 336.232759 
L 50.735025 333.808608 
L 50.703518 331.384021 
L 50.696258 328.95924 
L 50.713247 326.534507 
L 50.754481 324.110066 
L 50.819957 321.686158 
L 50.909669 319.263026 
L 51.023607 316.840913 
L 51.16176 314.420059 
L 51.324115 312.000709 
L 51.510654 309.583103 
L 51.72136 307.167483 
L 51.95621 304.754091 
L 52.215183 302.343168 
L 52.498252 299.934955 
L 52.805388 297.529693 
L 53.136561 295.127623 
L 53.491738 292.728985 
L 53.870883 290.334018 
L 54.273958 287.942963 
L 54.700923 285.556057 
L 55.151736 283.173541 
L 55.626351 280.795652 
L 56.12472 278.422627 
L 56.646795 276.054705 
L 57.192522 273.692123 
L 57.761848 271.335115 
L 58.354714 268.983918 
L 58.971063 266.638768 
L 59.610832 264.299898 
L 60.273957 261.967543 
L 60.960372 259.641935 
L 61.670008 257.323308 
L 62.402795 255.011893 
L 63.158659 252.707921 
L 63.937525 250.411623 
L 64.739314 248.123228 
L 65.563947 245.842966 
L 66.411341 243.571063 
L 67.281411 241.307748 
L 68.17407 239.053247 
L 69.08923 236.807785 
L 70.026797 234.571587 
L 70.98668 232.344876 
L 71.968781 230.127875 
L 72.973003 227.920806 
L 73.999245 225.723889 
L 75.047404 223.537344 
L 76.117376 221.36139 
L 77.209054 219.196244 
L 78.322328 217.042123 
L 79.457088 214.899243 
L 80.613219 212.767816 
L 81.790606 210.648058 
L 82.989132 208.540179 
L 83.181959 208.205578 
L 81.060807 206.98093 
L 80.866033 207.318912 
L 79.655401 209.448082 
L 78.46612 211.589252 
L 77.298311 213.742208 
L 76.152089 215.906734 
L 75.02757 218.082613 
L 73.924865 220.269629 
L 72.844085 222.467563 
L 71.785338 224.676194 
L 70.74873 226.895302 
L 69.734365 229.124665 
L 68.742343 231.36406 
L 67.772765 233.613263 
L 66.825727 235.872049 
L 65.901324 238.140192 
L 64.999648 240.417466 
L 64.120789 242.703643 
L 63.264836 244.998494 
L 62.431873 247.301789 
L 61.621985 249.613299 
L 60.835252 251.932792 
L 60.071753 254.260036 
L 59.331564 256.594799 
L 58.61476 258.936847 
L 57.921411 261.285945 
L 57.251588 263.64186 
L 56.605356 266.004355 
L 55.982782 268.373193 
L 55.383927 270.748139 
L 54.808851 273.128955 
L 54.257611 275.515403 
L 53.730263 277.907243 
L 53.22686 280.304237 
L 52.747451 282.706146 
L 52.292084 285.112728 
L 51.860806 287.523743 
L 51.453659 289.938951 
L 51.070685 292.358109 
L 50.71192 294.780976 
L 50.377402 297.20731 
L 50.067164 299.636867 
L 49.781236 302.069405 
L 49.519647 304.504681 
L 49.282424 306.94245 
L 49.06959 309.382471 
L 48.881166 311.824497 
L 48.717172 314.268285 
L 48.577623 316.713592 
L 48.462534 319.160171 
L 48.371917 321.607779 
L 48.305779 324.056171 
L 48.264128 326.505102 
L 48.246968 328.954326 
L 48.254301 331.4036 
L 48.286126 333.852678 
L 48.34244 336.301316 
L 48.423236 338.749268 
L 48.528508 341.196289 
L 48.658244 343.642136 
L 48.812432 346.086562 
L 48.991056 348.529325 
L 49.194099 350.97018 
L 49.421539 353.408882 
L 49.673355 355.845187 
L 49.94952 358.278853 
L 50.250009 360.709635 
L 50.574789 363.137291 
L 50.923829 365.561578 
L 51.297095 367.982254 
L 51.694548 370.399076 
L 52.116149 372.811802 
L 52.561856 375.220192 
L 53.031624 377.624004 
L 53.525406 380.022999 
L 54.043153 382.416936 
L 54.584814 384.805576 
L 55.150333 387.18868 
L 55.739654 389.56601 
L 56.352719 391.937327 
L 56.989466 394.302396 
L 57.649832 396.660979 
L 58.33375 399.01284 
L 59.041152 401.357745 
L 59.771967 403.695459 
L 60.526122 406.025748 
L 61.303543 408.348379 
L 62.10415 410.663119 
L 62.927864 412.969738 
L 63.774603 415.268005 
L 64.644282 417.557689 
L 65.536814 419.838563 
L 66.45211 422.110397 
L 67.390077 424.372965 
L 68.350624 426.62604 
L 69.333652 428.869397 
L 70.339065 431.102812 
L 71.366761 433.326061 
L 72.416638 435.538922 
L 73.48859 437.741174 
L 74.582511 439.932597 
L 75.698292 442.112971 
L 76.835819 444.282078 
L 77.994981 446.439702 
L 79.175661 448.585627 
L 80.37774 450.719637 
L 81.601099 452.841521 
L 82.845616 454.951064 
L 84.111165 457.048058 
L 85.397621 459.132291 
L 86.704854 461.203556 
L 88.032734 463.261645 
L 89.381129 465.306352 
L 90.749902 467.337474 
L 92.138919 469.354807 
L 93.548038 471.358148 
L 94.977121 473.347299 
L 96.426023 475.32206 
L 97.894599 477.282233 
L 99.382704 479.227622 
L 100.890188 481.158034 
L 102.416901 483.073274 
L 103.962689 484.973152 
L 105.527398 486.857477 
L 107.110872 488.726061 
L 108.712953 490.578717 
L 110.333479 492.41526 
L 111.97229 494.235506 
L 113.629221 496.039273 
L 115.304106 497.826382 
L 116.996778 499.596652 
L 118.707069 501.349907 
L 120.434806 503.085972 
L 122.179816 504.804673 
L 123.941927 506.505838 
L 125.720961 508.189298 
L 127.51674 509.854883 
L 129.329084 511.502427 
L 131.157814 513.131766 
L 133.002745 514.742737 
L 134.863693 516.335178 
L 136.740472 517.90893 
L 138.632895 519.463836 
L 140.540772 520.99974 
L 142.463912 522.516489 
L 144.402124 524.013931 
L 146.355212 525.491917 
L 148.322983 526.950298 
L 150.305239 528.388928 
L 152.301782 529.807665 
L 154.312412 531.206365 
L 156.336928 532.58489 
L 158.375128 533.943101 
L 160.426808 535.280862 
L 162.491763 536.59804 
L 164.569786 537.894503 
L 166.66067 539.170121 
L 168.764205 540.424767 
L 170.880181 541.658315 
L 173.008387 542.870642 
L 175.148609 544.061627 
L 177.300634 545.231151 
L 179.464247 546.379096 
L 181.63923 547.505347 
L 183.825367 548.609793 
L 186.022439 549.692323 
L 188.230227 550.752829 
L 190.448508 551.791203 
L 192.677063 552.807344 
L 194.915667 553.801148 
L 197.164097 554.772517 
L 199.422129 555.721354 
L 201.689535 556.647563 
L 203.966091 557.551053 
L 206.251567 558.431731 
L 208.545735 559.289512 
L 210.848367 560.124308 
L 213.159231 560.936037 
L 215.478096 561.724617 
L 217.804732 562.489969 
L 220.138904 563.232016 
L 222.480381 563.950686 
L 224.828926 564.645905 
L 227.184307 565.317604 
L 229.546286 565.965716 
L 231.914628 566.590177 
L 234.289097 567.190923 
L 236.669454 567.767895 
L 239.055462 568.321035 
L 241.446881 568.850287 
L 243.843474 569.3556 
L 246.245 569.836921 
L 248.651219 570.294204 
L 251.06189 570.727402 
L 253.476772 571.136472 
L 255.895625 571.521373 
L 258.318205 571.882066 
L 260.744272 572.218517 
L 263.173581 572.53069 
L 265.605891 572.818555 
L 268.040957 573.082082 
L 270.478538 573.321247 
L 272.918387 573.536024 
L 275.360263 573.726392 
L 277.80392 573.892332 
L 280.249114 574.033828 
L 282.695602 574.150865 
L 285.143137 574.243432 
L 287.591475 574.31152 
L 290.040372 574.355121 
L 292.489582 574.374231 
L 294.938861 574.368848 
L 297.387964 574.338974 
L 299.836645 574.28461 
L 302.28466 574.205763 
L 304.731765 574.10244 
L 307.177714 573.974651 
L 309.622263 573.82241 
L 312.065167 573.645731 
L 314.506182 573.444632 
L 316.945065 573.219134 
L 319.38157 572.969259 
L 321.815455 572.695031 
L 324.246476 572.396479 
L 326.67439 572.073632 
L 329.098954 571.726522 
L 331.519926 571.355184 
L 333.937063 570.959656 
L 336.350125 570.539976 
L 338.758869 570.096187 
L 341.163055 569.628334 
L 343.562442 569.136462 
L 345.95679 568.620621 
L 348.345861 568.080863 
L 350.729414 567.517242 
L 353.107213 566.929814 
L 355.479018 566.318637 
L 357.844593 565.683774 
L 360.203701 565.025287 
L 362.556106 564.343242 
L 364.901574 563.637707 
L 367.239869 562.908754 
L 369.570757 562.156454 
L 371.894006 561.380884 
L 374.209384 560.58212 
L 376.516658 559.760243 
L 378.815598 558.915335 
L 381.105975 558.047479 
L 383.387558 557.156764 
L 385.66012 556.243278 
L 387.923434 555.307112 
L 390.177274 554.34836 
L 392.421413 553.367119 
L 394.655628 552.363485 
L 396.879695 551.33756 
L 399.093391 550.289445 
L 401.296496 549.219247 
L 403.488789 548.127071 
L 405.670051 547.013027 
L 407.840063 545.877227 
L 409.99861 544.719784 
L 412.145474 543.540814 
L 414.280441 542.340434 
L 416.403298 541.118765 
L 418.513832 539.875929 
L 420.611832 538.61205 
L 422.69709 537.327254 
L 424.769395 536.021671 
L 426.82854 534.69543 
L 428.874321 533.348664 
L 430.906532 531.981508 
L 432.92497 530.594099 
L 434.929433 529.186575 
L 436.919721 527.759077 
L 438.895635 526.311748 
L 440.856977 524.844733 
L 442.803551 523.358178 
L 444.735162 521.852231 
L 446.651618 520.327045 
L 448.552726 518.78277 
L 450.438296 517.219562 
L 452.308141 515.637576 
L 454.162072 514.036971 
L 455.999905 512.417908 
L 457.821455 510.780547 
L 459.626542 509.125053 
L 461.414983 507.451592 
L 463.1866 505.760329 
L 464.941217 504.051436 
L 466.678657 502.325082 
L 468.398747 500.58144 
L 470.101315 498.820685 
L 471.786191 497.042993 
L 473.453206 495.248541 
L 475.102193 493.437508 
L 476.732987 491.610077 
L 478.345427 489.766429 
L 479.939349 487.90675 
L 481.514595 486.031224 
L 483.071008 484.14004 
L 484.608431 482.233387 
L 486.126711 480.311455 
L 487.625696 478.374437 
L 489.105236 476.422526 
L 490.565184 474.455917 
L 492.005392 472.474808 
L 493.425718 470.479395 
L 494.82602 468.46988 
L 496.206156 466.446462 
L 497.565989 464.409344 
L 498.905384 462.35873 
L 500.224206 460.294824 
L 501.522323 458.217834 
L 502.799606 456.127967 
L 504.055927 454.025432 
L 505.29116 451.910439 
z
" clip-path="url(#pecfc3f7cf6)" style="fill: #7dff7a"/>
   </g>
   <g id="patch_5">
    <path d="M 83.181959 208.205578 
L 84.40484 206.111735 
L 85.648597 204.030225 
L 86.913107 201.961256 
L 88.198243 199.905036 
L 89.503877 197.86177 
L 90.829877 195.831662 
L 92.176113 193.814915 
L 93.542448 191.811731 
L 94.928746 189.822311 
L 96.334869 187.846853 
L 97.760675 185.885554 
L 99.206023 183.938612 
L 100.670768 182.00622 
L 102.154764 180.088571 
L 103.657861 178.185859 
L 105.17991 176.298272 
L 106.720758 174.426 
L 108.280252 172.56923 
L 109.858235 170.728147 
L 111.454549 168.902936 
L 113.069036 167.093779 
L 114.701533 165.300857 
L 116.351878 163.524349 
L 118.019905 161.764434 
L 119.705447 160.021286 
L 121.408336 158.295081 
L 123.128402 156.585991 
L 124.865473 154.894186 
L 126.619374 153.219836 
L 128.389931 151.563109 
L 130.176966 149.92417 
L 131.980301 148.303183 
L 133.799756 146.70031 
L 135.635148 145.115712 
L 137.486294 143.549546 
L 139.353009 142.00197 
L 141.235106 140.473138 
L 143.132397 138.963203 
L 145.044692 137.472316 
L 146.9718 136.000627 
L 148.913528 134.548281 
L 150.869683 133.115426 
L 152.840068 131.702203 
L 154.824487 130.308754 
L 156.82274 128.935219 
L 158.834629 127.581735 
L 160.859952 126.248437 
L 162.898506 124.935458 
L 164.950088 123.642931 
L 167.014493 122.370983 
L 169.091513 121.119743 
L 171.180942 119.889335 
L 171.935877 119.45166 
L 170.711229 117.330508 
L 169.948669 117.772604 
L 167.838135 119.01544 
L 165.740134 120.279319 
L 163.654877 121.564115 
L 161.582572 122.869698 
L 159.523427 124.195939 
L 157.477646 125.542705 
L 155.445435 126.909861 
L 153.426997 128.29727 
L 151.422534 129.704794 
L 149.432246 131.132292 
L 147.456332 132.579621 
L 145.49499 134.046636 
L 143.548416 135.533191 
L 141.616805 137.039138 
L 139.700349 138.564324 
L 137.799241 140.108599 
L 135.913671 141.671807 
L 134.043826 143.253793 
L 132.189895 144.854398 
L 130.352062 146.473461 
L 128.530511 148.110822 
L 126.725425 149.766316 
L 124.936984 151.439777 
L 123.165366 153.13104 
L 121.41075 154.839933 
L 119.67331 156.566287 
L 117.95322 158.309929 
L 116.250652 160.070684 
L 114.565776 161.848376 
L 112.898761 163.642828 
L 111.249774 165.453861 
L 109.618979 167.281292 
L 108.00654 169.12494 
L 106.412618 170.984619 
L 104.837372 172.860145 
L 103.280959 174.751329 
L 101.743536 176.657982 
L 100.225256 178.579914 
L 98.726271 180.516932 
L 97.246731 182.468843 
L 95.786783 184.435452 
L 94.346575 186.416561 
L 92.926249 188.411974 
L 91.525947 190.421489 
L 90.145811 192.444907 
L 88.785977 194.482025 
L 87.446583 196.532639 
L 86.127761 198.596545 
L 84.829644 200.673535 
L 83.552361 202.763402 
L 82.29604 204.865937 
L 81.060807 206.98093 
z
" clip-path="url(#pecfc3f7cf6)" style="fill: #ff9400"/>
   </g>
   <g id="patch_6">
    <path d="M 171.935877 119.45166 
L 174.041844 118.249779 
L 176.159725 117.069017 
L 178.289307 115.909493 
L 180.430377 114.771322 
L 182.582722 113.654618 
L 184.746127 112.559493 
L 186.920374 111.486057 
L 189.105247 110.434417 
L 191.300526 109.404677 
L 193.505993 108.396942 
L 195.721427 107.411311 
L 197.946607 106.447883 
L 200.181309 105.506755 
L 202.425311 104.58802 
L 204.678388 103.691772 
L 206.940314 102.818098 
L 209.210864 101.967087 
L 211.48981 101.138824 
L 213.776925 100.333391 
L 216.071979 99.550869 
L 218.374744 98.791336 
L 220.68499 98.054869 
L 223.002484 97.341541 
L 225.326995 96.651422 
L 227.658291 95.984583 
L 229.996139 95.34109 
L 232.340305 94.721008 
L 234.690555 94.124397 
L 237.046652 93.551319 
L 239.408363 93.001829 
L 241.775451 92.475984 
L 244.147678 91.973836 
L 246.524809 91.495434 
L 248.906604 91.040828 
L 251.292826 90.610061 
L 253.683237 90.203179 
L 256.077597 89.82022 
L 258.475666 89.461223 
L 260.877206 89.126225 
L 263.281975 88.815258 
L 265.689734 88.528355 
L 268.100242 88.265543 
L 270.513257 88.026848 
L 272.928538 87.812296 
L 275.345844 87.621906 
L 277.764933 87.455699 
L 280.185563 87.31369 
L 282.607492 87.195895 
L 285.030478 87.102324 
L 287.454278 87.032987 
L 289.878651 86.987892 
L 292.303353 86.967042 
L 293.175983 86.965472 
L 293.175983 84.516176 
L 292.294539 84.517763 
L 289.845345 84.538823 
L 287.396483 84.584374 
L 284.9482 84.654411 
L 282.50074 84.748927 
L 280.054347 84.867912 
L 277.609266 85.011355 
L 275.165741 85.179242 
L 272.724018 85.371554 
L 270.28434 85.588274 
L 267.846951 85.82938 
L 265.412095 86.094846 
L 262.980016 86.384648 
L 260.550956 86.698756 
L 258.125158 87.037138 
L 255.702865 87.39976 
L 253.28432 87.786588 
L 250.869764 88.19758 
L 248.459439 88.632698 
L 246.053585 89.091896 
L 243.652443 89.57513 
L 241.256253 90.082351 
L 238.865256 90.613507 
L 236.47969 91.168547 
L 234.099793 91.747414 
L 231.725803 92.350051 
L 229.357959 92.976398 
L 226.996496 93.626391 
L 224.641652 94.299965 
L 222.29366 94.997054 
L 219.952757 95.717588 
L 217.619176 96.461494 
L 215.293151 97.228699 
L 212.974914 98.019125 
L 210.664697 98.832694 
L 208.362731 99.669323 
L 206.069246 100.52893 
L 203.784472 101.411429 
L 201.508637 102.316731 
L 199.241969 103.244745 
L 196.984694 104.19538 
L 194.737038 105.168539 
L 192.499226 106.164126 
L 190.271481 107.182041 
L 188.054027 108.222182 
L 185.847085 109.284445 
L 183.650876 110.368724 
L 181.465619 111.47491 
L 179.291533 112.602894 
L 177.128835 113.752562 
L 174.977742 114.923798 
L 172.838469 116.116487 
L 170.711229 117.330508 
z
" clip-path="url(#pecfc3f7cf6)" style="fill: #800000"/>
   </g>
   <g id="PatchCollection_1">
    <path d="M 503.170008 450.685791 
L 503.170008 450.685791 
L 501.947127 452.779634 
L 500.70337 454.861144 
L 499.43886 456.930113 
L 498.153724 458.986333 
L 496.84809 461.029599 
L 495.522089 463.059707 
L 494.175854 465.076454 
L 492.809519 467.079638 
L 491.423221 469.069058 
L 490.017098 471.044516 
L 488.591292 473.005815 
L 487.145944 474.952757 
L 485.681199 476.885149 
L 484.197203 478.802798 
L 482.694106 480.70551 
L 481.172057 482.593097 
L 479.631209 484.465369 
L 478.071715 486.322139 
L 476.493732 488.163222 
L 474.897417 489.988433 
L 473.282931 491.79759 
L 471.650433 493.590512 
L 470.000089 495.36702 
L 468.332062 497.126935 
L 466.64652 498.870083 
L 464.943631 500.596288 
L 463.223565 502.305378 
L 461.486494 503.997183 
L 459.732593 505.671533 
L 457.962036 507.32826 
L 456.175001 508.967199 
L 454.371666 510.588186 
L 452.552211 512.191059 
L 450.716819 513.775657 
L 448.865673 515.341823 
L 446.998958 516.889399 
L 445.116861 518.418231 
L 443.21957 519.928166 
L 441.307275 521.419053 
L 439.380167 522.890742 
L 437.438438 524.343088 
L 435.482284 525.775943 
L 433.511899 527.189166 
L 431.52748 528.582615 
L 429.529227 529.95615 
L 427.517338 531.309634 
L 425.492015 532.642932 
L 423.45346 533.955911 
L 421.401878 535.248438 
L 419.337474 536.520386 
L 417.260453 537.771626 
L 415.171025 539.002034 
L 414.41609 539.439709 
L 414.41609 539.439709 
Q 293.175983 329.445685 171.935877 119.45166 
L 171.935877 119.45166 
L 171.935877 119.45166 
L 174.041844 118.249779 
L 176.159725 117.069017 
L 178.289307 115.909493 
L 180.430377 114.771322 
L 182.582722 113.654618 
L 184.746127 112.559493 
L 186.920374 111.486057 
L 189.105247 110.434417 
L 191.300526 109.404677 
L 193.505993 108.396942 
L 195.721427 107.411311 
L 197.946607 106.447883 
L 200.181309 105.506755 
L 202.425311 104.58802 
L 204.678388 103.691772 
L 206.940314 102.818098 
L 209.210864 101.967087 
L 211.48981 101.138824 
L 213.776925 100.333391 
L 216.071979 99.550869 
L 218.374744 98.791336 
L 220.68499 98.054869 
L 223.002484 97.341541 
L 225.326995 96.651422 
L 227.658291 95.984583 
L 229.996139 95.34109 
L 232.340305 94.721008 
L 234.690555 94.124397 
L 237.046652 93.551319 
L 239.408363 93.001829 
L 241.775451 92.475984 
L 244.147678 91.973836 
L 246.524809 91.495434 
L 248.906604 91.040828 
L 251.292826 90.610061 
L 253.683237 90.203179 
L 256.077597 89.82022 
L 258.475666 89.461223 
L 260.877206 89.126225 
L 263.281975 88.815258 
L 265.689734 88.528355 
L 268.100242 88.265543 
L 270.513257 88.026848 
L 272.928538 87.812296 
L 275.345844 87.621906 
L 277.764933 87.455699 
L 280.185563 87.31369 
L 282.607492 87.195895 
L 285.030478 87.102324 
L 287.454278 87.032987 
L 289.878651 86.987892 
L 292.303353 86.967042 
L 293.175983 86.965472 
L 293.175983 86.965472 
Q 293.175983 329.445685 503.170008 450.685791 
z
" clip-path="url(#pecfc3f7cf6)" style="fill: #7dff7a; fill-opacity: 0.5; stroke: #808080; stroke-opacity: 0.5; stroke-width: 0.1"/>
    <path d="M 414.41609 539.439709 
L 414.41609 539.439709 
L 412.310123 540.64159 
L 410.192242 541.822352 
L 408.06266 542.981876 
L 405.92159 544.120047 
L 403.769244 545.236751 
L 401.60584 546.331876 
L 399.431593 547.405312 
L 397.24672 548.456952 
L 395.051441 549.486692 
L 392.845973 550.494427 
L 390.630539 551.480058 
L 388.40536 552.443486 
L 386.170658 553.384614 
L 383.926656 554.303349 
L 381.673579 555.199597 
L 379.411653 556.073271 
L 377.141103 556.924282 
L 374.862157 557.752545 
L 372.575042 558.557978 
L 370.279987 559.3405 
L 367.977222 560.100033 
L 365.666977 560.8365 
L 363.349483 561.549828 
L 361.024972 562.239947 
L 358.693676 562.906786 
L 356.355828 563.550279 
L 354.011662 564.170361 
L 351.661412 564.766972 
L 349.305314 565.34005 
L 346.943604 565.88954 
L 344.576516 566.415385 
L 342.204289 566.917533 
L 339.827158 567.395935 
L 337.445363 567.850541 
L 335.059141 568.281308 
L 332.66873 568.68819 
L 330.27437 569.071149 
L 327.876301 569.430146 
L 325.474761 569.765144 
L 323.069992 570.076111 
L 320.662233 570.363014 
L 318.251725 570.625826 
L 315.83871 570.864521 
L 313.423429 571.079073 
L 311.006123 571.269463 
L 308.587034 571.43567 
L 306.166404 571.577679 
L 303.744475 571.695474 
L 301.321489 571.789045 
L 298.897688 571.858382 
L 296.473316 571.903477 
L 294.048613 571.924327 
L 293.175983 571.925897 
L 293.175983 571.925897 
Q 293.175983 329.445685 83.181959 208.205578 
L 83.181959 208.205578 
L 83.181959 208.205578 
L 84.40484 206.111735 
L 85.648597 204.030225 
L 86.913107 201.961256 
L 88.198243 199.905036 
L 89.503877 197.86177 
L 90.829877 195.831662 
L 92.176113 193.814915 
L 93.542448 191.811731 
L 94.928746 189.822311 
L 96.334869 187.846853 
L 97.760675 185.885554 
L 99.206023 183.938612 
L 100.670768 182.00622 
L 102.154764 180.088571 
L 103.657861 178.185859 
L 105.17991 176.298272 
L 106.720758 174.426 
L 108.280252 172.56923 
L 109.858235 170.728147 
L 111.454549 168.902936 
L 113.069036 167.093779 
L 114.701533 165.300857 
L 116.351878 163.524349 
L 118.019905 161.764434 
L 119.705447 160.021286 
L 121.408336 158.295081 
L 123.128402 156.585991 
L 124.865473 154.894186 
L 126.619374 153.219836 
L 128.389931 151.563109 
L 130.176966 149.92417 
L 131.980301 148.303183 
L 133.799756 146.70031 
L 135.635148 145.115712 
L 137.486294 143.549546 
L 139.353009 142.00197 
L 141.235106 140.473138 
L 143.132397 138.963203 
L 145.044692 137.472316 
L 146.9718 136.000627 
L 148.913528 134.548281 
L 150.869683 133.115426 
L 152.840068 131.702203 
L 154.824487 130.308754 
L 156.82274 128.935219 
L 158.834629 127.581735 
L 160.859952 126.248437 
L 162.898506 124.935458 
L 164.950088 123.642931 
L 167.014493 122.370983 
L 169.091513 121.119743 
L 171.180942 119.889335 
L 171.935877 119.45166 
L 171.935877 119.45166 
Q 293.175983 329.445685 414.41609 539.439709 
z
" clip-path="url(#pecfc3f7cf6)" style="fill: #7dff7a; fill-opacity: 0.5; stroke: #808080; stroke-opacity: 0.5; stroke-width: 0.1"/>
    <path d="M 293.175983 571.925897 
L 293.175983 571.925897 
L 290.751222 571.913774 
L 288.326702 571.877403 
L 285.902668 571.81679 
L 283.479361 571.731939 
L 281.057024 571.62286 
L 278.635898 571.489564 
L 276.216227 571.332063 
L 273.798251 571.150375 
L 271.382214 570.944515 
L 268.968355 570.714506 
L 266.556918 570.460371 
L 264.148142 570.182134 
L 261.742269 569.879824 
L 259.339539 569.55347 
L 256.940193 569.203106 
L 254.544471 568.828766 
L 252.152611 568.430489 
L 249.764854 568.008313 
L 247.381438 567.562281 
L 245.002602 567.092437 
L 242.628583 566.598829 
L 240.259618 566.081506 
L 237.895945 565.540519 
L 235.5378 564.975924 
L 233.185419 564.387775 
L 230.839036 563.776132 
L 228.498888 563.141057 
L 226.165207 562.482612 
L 223.838227 561.800864 
L 221.518181 561.09588 
L 219.2053 560.367731 
L 216.899817 559.616491 
L 214.601961 558.842233 
L 212.311962 558.045037 
L 210.03005 557.22498 
L 207.756452 556.382146 
L 205.491396 555.516618 
L 203.235109 554.628483 
L 200.987816 553.71783 
L 198.749741 552.78475 
L 196.521109 551.829337 
L 194.302142 550.851685 
L 192.093062 549.851893 
L 189.894091 548.83006 
L 187.705448 547.78629 
L 185.527352 546.720685 
L 183.360021 545.633353 
L 181.203671 544.524402 
L 179.058518 543.393944 
L 176.924777 542.242091 
L 174.802661 541.068959 
L 172.692382 539.874664 
L 171.935877 539.439709 
L 171.935877 539.439709 
Q 293.175983 329.445685 414.41609 119.45166 
L 414.41609 119.45166 
L 414.41609 119.45166 
L 416.509933 120.674541 
L 418.591443 121.918298 
L 420.660412 123.182808 
L 422.716632 124.467944 
L 424.759898 125.773578 
L 426.790006 127.099579 
L 428.806753 128.445814 
L 430.809937 129.812149 
L 432.799357 131.198447 
L 434.774815 132.60457 
L 436.736114 134.030376 
L 438.683056 135.475724 
L 440.615448 136.940469 
L 442.533096 138.424465 
L 444.435809 139.927562 
L 446.323396 141.449611 
L 448.195668 142.990459 
L 450.052438 144.549953 
L 451.893521 146.127936 
L 453.718732 147.724251 
L 455.527889 149.338737 
L 457.320811 150.971235 
L 459.097318 152.621579 
L 460.857234 154.289606 
L 462.600382 155.975148 
L 464.326587 157.678037 
L 466.035677 159.398103 
L 467.727482 161.135174 
L 469.401831 162.889075 
L 471.058559 164.659632 
L 472.697498 166.446667 
L 474.318485 168.250002 
L 475.921358 170.069457 
L 477.505956 171.904849 
L 479.072122 173.755995 
L 480.619698 175.62271 
L 482.14853 177.504807 
L 483.658465 179.402098 
L 485.149352 181.314393 
L 486.621041 183.241501 
L 488.073387 185.183229 
L 489.506242 187.139384 
L 490.919465 189.109769 
L 492.312914 191.094188 
L 493.686449 193.092441 
L 495.039933 195.10433 
L 496.373231 197.129653 
L 497.68621 199.168208 
L 498.978737 201.21979 
L 500.250685 203.284194 
L 501.501925 205.361215 
L 502.732333 207.450643 
L 503.170008 208.205578 
L 503.170008 208.205578 
Q 293.175983 329.445685 293.175983 571.925897 
z
" clip-path="url(#pecfc3f7cf6)" style="fill: #7dff7a; fill-opacity: 0.5; stroke: #808080; stroke-opacity: 0.5; stroke-width: 0.1"/>
    <path d="M 503.170008 208.205578 
L 503.170008 208.205578 
L 504.371889 210.311545 
L 505.552651 212.429426 
L 506.712175 214.559008 
L 507.850346 216.700078 
L 508.96705 218.852423 
L 510.062174 221.015828 
L 511.135611 223.190075 
L 512.187251 225.374948 
L 513.216991 227.570227 
L 514.224726 229.775694 
L 515.210357 231.991129 
L 516.173785 234.216308 
L 517.114913 236.45101 
L 518.033648 238.695012 
L 518.929896 240.948089 
L 519.80357 243.210015 
L 520.654581 245.480565 
L 521.482844 247.759511 
L 522.288277 250.046626 
L 523.070799 252.341681 
L 523.830332 254.644446 
L 524.566799 256.954691 
L 525.280127 259.272185 
L 525.970246 261.596696 
L 526.637084 263.927992 
L 527.280578 266.26584 
L 527.90066 268.610006 
L 528.497271 270.960256 
L 529.070349 273.316354 
L 529.619839 275.678064 
L 530.145684 278.045152 
L 530.647832 280.417379 
L 531.126234 282.79451 
L 531.58084 285.176305 
L 532.011606 287.562527 
L 532.418489 289.952938 
L 532.801448 292.347298 
L 533.160445 294.745367 
L 533.495443 297.146907 
L 533.80641 299.551676 
L 534.093313 301.959435 
L 534.356125 304.369943 
L 534.59482 306.782958 
L 534.809372 309.198239 
L 534.999762 311.615545 
L 535.165969 314.034634 
L 535.307978 316.455264 
L 535.425773 318.877193 
L 535.519344 321.300179 
L 535.588681 323.723979 
L 535.633776 326.148352 
L 535.654626 328.573055 
L 535.651229 330.997844 
L 535.623584 333.422479 
L 535.571694 335.846715 
L 535.495565 338.270312 
L 535.395204 340.693026 
L 535.270622 343.114616 
L 535.12183 345.534838 
L 534.948844 347.953452 
L 534.751681 350.370215 
L 534.530361 352.784885 
L 534.284905 355.197222 
L 534.015338 357.606983 
L 533.721688 360.013929 
L 533.403984 362.417817 
L 533.062257 364.818409 
L 532.696541 367.215463 
L 532.306874 369.60874 
L 531.893293 371.998001 
L 531.455842 374.383007 
L 530.994562 376.763519 
L 530.509501 379.139299 
L 530.000706 381.51011 
L 529.468229 383.875714 
L 528.912124 386.235876 
L 528.332445 388.590359 
L 527.72925 390.938927 
L 527.1026 393.281346 
L 526.452558 395.617381 
L 525.779188 397.9468 
L 525.082559 400.269368 
L 524.362738 402.584854 
L 523.6198 404.893026 
L 522.853817 407.193653 
L 522.064866 409.486506 
L 521.253027 411.771355 
L 520.41838 414.047971 
L 519.561009 416.316127 
L 518.681 418.575596 
L 517.778441 420.826152 
L 516.853421 423.06757 
L 515.906034 425.299626 
L 514.936374 427.522097 
L 513.944539 429.73476 
L 512.930626 431.937394 
L 511.894739 434.12978 
L 510.836979 436.311697 
L 509.757454 438.482927 
L 508.656271 440.643254 
L 507.53354 442.792461 
L 506.389373 444.930334 
L 505.223885 447.056658 
L 504.037193 449.171221 
L 503.170008 450.685791 
L 503.170008 450.685791 
Q 293.175983 329.445685 171.935877 539.439709 
L 171.935877 539.439709 
L 171.935877 539.439709 
L 169.842034 538.216828 
L 167.760524 536.973071 
L 165.691555 535.708561 
L 163.635335 534.423425 
L 161.592069 533.117791 
L 159.561961 531.79179 
L 157.545214 530.445555 
L 155.54203 529.07922 
L 153.55261 527.692922 
L 151.577152 526.286799 
L 149.615853 524.860993 
L 147.668911 523.415645 
L 145.736519 521.9509 
L 143.81887 520.466904 
L 141.916158 518.963807 
L 140.028571 517.441758 
L 138.156299 515.90091 
L 136.299529 514.341416 
L 134.458446 512.763433 
L 132.633235 511.167118 
L 130.824078 509.552632 
L 129.031156 507.920134 
L 127.254648 506.26979 
L 125.494733 504.601763 
L 123.751585 502.916221 
L 122.02538 501.213332 
L 120.31629 499.493266 
L 118.624485 497.756195 
L 116.950135 496.002294 
L 115.293408 494.231737 
L 113.654469 492.444702 
L 112.033482 490.641367 
L 110.430609 488.821912 
L 108.846011 486.98652 
L 107.279845 485.135374 
L 105.732269 483.268659 
L 104.203437 481.386562 
L 102.693502 479.489271 
L 101.202615 477.576976 
L 99.730926 475.649868 
L 98.27858 473.70814 
L 96.845725 471.751985 
L 95.432502 469.7816 
L 94.039053 467.797181 
L 92.665518 465.798928 
L 91.312034 463.787039 
L 89.978736 461.761716 
L 88.665757 459.723161 
L 87.37323 457.671579 
L 86.101282 455.607175 
L 84.850042 453.530154 
L 83.619634 451.440726 
L 82.410182 449.339097 
L 81.221806 447.22548 
L 80.054625 445.100084 
L 78.908756 442.963124 
L 77.784314 440.814811 
L 76.681411 438.655362 
L 75.600157 436.484992 
L 74.54066 434.303918 
L 73.503027 432.112358 
L 72.487361 429.910532 
L 71.493764 427.69866 
L 70.522334 425.476962 
L 69.57317 423.245661 
L 68.646366 421.00498 
L 67.742015 418.755143 
L 66.860207 416.496376 
L 66.00103 414.228903 
L 65.164571 411.952952 
L 64.350912 409.668751 
L 63.560136 407.376527 
L 62.792321 405.076511 
L 62.047545 402.768931 
L 61.325881 400.454019 
L 60.627402 398.132006 
L 59.952177 395.803125 
L 59.300275 393.467608 
L 58.67176 391.125688 
L 58.066695 388.777601 
L 57.485141 386.423581 
L 56.927156 384.063863 
L 56.392796 381.698683 
L 55.882114 379.328278 
L 55.395161 376.952885 
L 54.931986 374.572741 
L 54.492635 372.188084 
L 54.077152 369.799154 
L 53.685579 367.406188 
L 53.317955 365.009425 
L 52.974316 362.609107 
L 52.654697 360.205472 
L 52.35913 357.798761 
L 52.087645 355.389215 
L 51.840268 352.977075 
L 51.617025 350.562581 
L 51.417938 348.145976 
L 51.243026 345.727501 
L 51.092307 343.307398 
L 50.965796 340.885908 
L 50.863506 338.463275 
L 50.785447 336.039739 
L 50.731627 333.615545 
L 50.702051 331.190933 
L 50.69577 329.445685 
L 50.69577 329.445685 
Q 293.175983 329.445685 503.170008 208.205578 
z
" clip-path="url(#pecfc3f7cf6)" style="fill: #0080ff; fill-opacity: 0.5; stroke: #808080; stroke-opacity: 0.5; stroke-width: 0.1"/>
    <path d="M 293.175983 86.965472 
L 293.175983 86.965472 
L 295.600745 86.977595 
L 298.025264 87.013966 
L 300.449299 87.074579 
L 302.872606 87.15943 
L 305.294943 87.268509 
L 307.716069 87.401805 
L 310.13574 87.559306 
L 312.553715 87.740994 
L 314.969753 87.946854 
L 317.383612 88.176863 
L 319.795049 88.430998 
L 322.203825 88.709235 
L 324.609698 89.011545 
L 327.012428 89.337899 
L 329.411774 89.688263 
L 331.807496 90.062603 
L 334.199355 90.46088 
L 336.587113 90.883056 
L 338.970529 91.329088 
L 341.349365 91.798932 
L 343.723384 92.29254 
L 346.092349 92.809863 
L 348.456022 93.35085 
L 350.814167 93.915445 
L 353.166548 94.503594 
L 355.51293 95.115237 
L 357.853079 95.750312 
L 360.18676 96.408757 
L 362.51374 97.090505 
L 364.833786 97.795489 
L 367.146667 98.523638 
L 369.45215 99.274878 
L 371.750006 100.049136 
L 374.040005 100.846332 
L 376.321917 101.666389 
L 378.595515 102.509223 
L 380.86057 103.374751 
L 383.116858 104.262886 
L 385.364151 105.173539 
L 387.602226 106.106619 
L 389.830858 107.062032 
L 392.049825 108.039684 
L 394.258904 109.039476 
L 396.457876 110.061309 
L 398.646519 111.105079 
L 400.824615 112.170684 
L 402.991946 113.258016 
L 405.148296 114.366967 
L 407.293449 115.497425 
L 409.42719 116.649278 
L 411.549306 117.82241 
L 413.659585 119.016705 
L 414.41609 119.45166 
L 414.41609 119.45166 
Q 293.175983 329.445685 50.69577 329.445685 
L 50.69577 329.445685 
L 50.69577 329.445685 
L 50.707894 327.020923 
L 50.744265 324.596404 
L 50.804878 322.172369 
L 50.889729 319.749062 
L 50.998808 317.326725 
L 51.132104 314.905599 
L 51.289604 312.485928 
L 51.471293 310.067952 
L 51.677153 307.651915 
L 51.907162 305.238056 
L 52.161297 302.826619 
L 52.439534 300.417843 
L 52.741844 298.01197 
L 53.068198 295.60924 
L 53.418562 293.209894 
L 53.792902 290.814172 
L 54.191179 288.422312 
L 54.613355 286.034555 
L 55.059387 283.651139 
L 55.529231 281.272303 
L 56.022839 278.898284 
L 56.540162 276.529319 
L 57.081149 274.165646 
L 57.645744 271.807501 
L 58.233893 269.45512 
L 58.845536 267.108738 
L 59.480611 264.768589 
L 60.139056 262.434908 
L 60.820804 260.107928 
L 61.525788 257.787882 
L 62.253937 255.475001 
L 63.005177 253.169518 
L 63.779435 250.871662 
L 64.576631 248.581663 
L 65.396688 246.299751 
L 66.239522 244.026153 
L 67.10505 241.761098 
L 67.993185 239.50481 
L 68.903838 237.257517 
L 69.836917 235.019442 
L 70.792331 232.79081 
L 71.769983 230.571843 
L 72.769775 228.362764 
L 73.791607 226.163792 
L 74.835378 223.975149 
L 75.900983 221.797053 
L 76.988315 219.629722 
L 78.097266 217.473372 
L 79.227724 215.328219 
L 80.379577 213.194478 
L 81.552709 211.072362 
L 82.747004 208.962083 
L 83.181959 208.205578 
L 83.181959 208.205578 
Q 293.175983 329.445685 293.175983 86.965472 
z
" clip-path="url(#pecfc3f7cf6)" style="fill: #000080; fill-opacity: 0.5; stroke: #808080; stroke-opacity: 0.5; stroke-width: 0.1"/>
   </g>
   <g id="patch_7">
    <path d="M 293.175983 86.965472 
L 295.600745 86.977595 
L 298.025264 87.013966 
L 300.449299 87.074579 
L 302.872606 87.15943 
L 305.294943 87.268509 
L 307.716069 87.401805 
L 310.13574 87.559306 
L 312.553715 87.740994 
L 314.969753 87.946854 
L 317.383612 88.176863 
L 319.795049 88.430998 
L 322.203825 88.709235 
L 324.609698 89.011545 
L 327.012428 89.337899 
L 329.411774 89.688263 
L 331.807496 90.062603 
L 334.199355 90.46088 
L 336.587113 90.883056 
L 338.970529 91.329088 
L 341.349365 91.798932 
L 343.723384 92.29254 
L 346.092349 92.809863 
L 348.456022 93.35085 
L 350.814167 93.915445 
L 353.166548 94.503594 
L 355.51293 95.115237 
L 357.853079 95.750312 
L 360.18676 96.408757 
L 362.51374 97.090505 
L 364.833786 97.795489 
L 367.146667 98.523638 
L 369.45215 99.274878 
L 371.750006 100.049136 
L 374.040005 100.846332 
L 376.321917 101.666389 
L 378.595515 102.509223 
L 380.86057 103.374751 
L 383.116858 104.262886 
L 385.364151 105.173539 
L 387.602226 106.106619 
L 389.830858 107.062032 
L 392.049825 108.039684 
L 394.258904 109.039476 
L 396.457876 110.061309 
L 398.646519 111.105079 
L 400.824615 112.170684 
L 402.991946 113.258016 
L 405.148296 114.366967 
L 407.293449 115.497425 
L 409.42719 116.649278 
L 411.549306 117.82241 
L 413.659585 119.016705 
L 414.41609 119.45166 
L 415.640737 117.330508 
L 414.876591 116.89116 
L 412.744996 115.684802 
L 410.601445 114.499819 
L 408.446151 113.336332 
L 406.27933 112.194454 
L 404.101199 111.074302 
L 401.911975 109.975987 
L 399.711878 108.899619 
L 397.501127 107.845305 
L 395.279944 106.813151 
L 393.048551 105.80326 
L 390.80717 104.815733 
L 388.556026 103.850668 
L 386.295345 102.908163 
L 384.025352 101.988312 
L 381.746273 101.091206 
L 379.458338 100.216936 
L 377.161775 99.365588 
L 374.856813 98.537248 
L 372.543683 97.731999 
L 370.222616 96.949921 
L 367.893845 96.191092 
L 365.557602 95.455588 
L 363.214121 94.743483 
L 360.863637 94.054849 
L 358.506383 93.389753 
L 356.142597 92.748263 
L 353.772513 92.130442 
L 351.396371 91.536352 
L 349.014406 90.966053 
L 346.626858 90.419602 
L 344.233964 89.897054 
L 341.835965 89.39846 
L 339.4331 88.92387 
L 337.025609 88.473333 
L 334.613733 88.046892 
L 332.197713 87.644592 
L 329.777792 87.266471 
L 327.35421 86.912568 
L 324.92721 86.582918 
L 322.497035 86.277554 
L 320.063929 85.996506 
L 317.628133 85.739804 
L 315.189892 85.507472 
L 312.74945 85.299533 
L 310.307051 85.116009 
L 307.862938 84.956917 
L 305.417357 84.822275 
L 302.970551 84.712094 
L 300.522767 84.626386 
L 298.074247 84.565161 
L 295.625238 84.528423 
L 293.175983 84.516176 
L 293.175983 86.965472 
z
" clip-path="url(#pecfc3f7cf6)" style="fill: none; stroke: #000000; stroke-width: 0.5; stroke-linejoin: miter"/>
   </g>
   <g id="patch_8">
    <path d="M 414.41609 119.45166 
L 416.509933 120.674541 
L 418.591443 121.918298 
L 420.660412 123.182808 
L 422.716632 124.467944 
L 424.759898 125.773578 
L 426.790006 127.099579 
L 428.806753 128.445814 
L 430.809937 129.812149 
L 432.799357 131.198447 
L 434.774815 132.60457 
L 436.736114 134.030376 
L 438.683056 135.475724 
L 440.615448 136.940469 
L 442.533096 138.424465 
L 444.435809 139.927562 
L 446.323396 141.449611 
L 448.195668 142.990459 
L 450.052438 144.549953 
L 451.893521 146.127936 
L 453.718732 147.724251 
L 455.527889 149.338737 
L 457.320811 150.971235 
L 459.097318 152.621579 
L 460.857234 154.289606 
L 462.600382 155.975148 
L 464.326587 157.678037 
L 466.035677 159.398103 
L 467.727482 161.135174 
L 469.401831 162.889075 
L 471.058559 164.659632 
L 472.697498 166.446667 
L 474.318485 168.250002 
L 475.921358 170.069457 
L 477.505956 171.904849 
L 479.072122 173.755995 
L 480.619698 175.62271 
L 482.14853 177.504807 
L 483.658465 179.402098 
L 485.149352 181.314393 
L 486.621041 183.241501 
L 488.073387 185.183229 
L 489.506242 187.139384 
L 490.919465 189.109769 
L 492.312914 191.094188 
L 493.686449 193.092441 
L 495.039933 195.10433 
L 496.373231 197.129653 
L 497.68621 199.168208 
L 498.978737 201.21979 
L 500.250685 203.284194 
L 501.501925 205.361215 
L 502.732333 207.450643 
L 503.941785 209.552272 
L 505.130161 211.665889 
L 506.297342 213.791285 
L 507.443211 215.928245 
L 508.567653 218.076558 
L 509.670556 220.236007 
L 510.75181 222.406377 
L 511.811307 224.587451 
L 512.84894 226.779011 
L 513.864606 228.980837 
L 514.858203 231.192709 
L 515.829633 233.414407 
L 516.778797 235.645708 
L 517.705601 237.886389 
L 518.609952 240.136226 
L 519.49176 242.394993 
L 520.350937 244.662466 
L 521.187396 246.938417 
L 522.001055 249.222618 
L 522.791831 251.514842 
L 523.559646 253.814858 
L 524.304422 256.122438 
L 525.026086 258.43735 
L 525.724565 260.759363 
L 526.39979 263.088244 
L 527.051692 265.423761 
L 527.680207 267.765681 
L 528.285271 270.113768 
L 528.866825 272.467788 
L 529.42481 274.827506 
L 529.959171 277.192686 
L 530.469853 279.563091 
L 530.956806 281.938484 
L 531.419981 284.318628 
L 531.859332 286.703285 
L 532.274815 289.092215 
L 532.666388 291.485181 
L 533.034012 293.881944 
L 533.377651 296.282262 
L 533.69727 298.685897 
L 533.992837 301.092608 
L 534.264322 303.502154 
L 534.511698 305.914294 
L 534.734942 308.328788 
L 534.934029 310.745393 
L 535.108941 313.163868 
L 535.25966 315.583971 
L 535.386171 318.005461 
L 535.488461 320.428094 
L 535.56652 322.85163 
L 535.62034 325.275824 
L 535.649916 327.700436 
L 535.655244 330.125222 
L 535.636325 332.54994 
L 535.59316 334.974348 
L 535.525754 337.398203 
L 535.434112 339.821263 
L 535.318246 342.243285 
L 535.178165 344.664027 
L 535.013884 347.083248 
L 534.825419 349.500705 
L 534.61279 351.916156 
L 534.376017 354.32936 
L 534.115125 356.740076 
L 533.830139 359.148063 
L 533.521087 361.553079 
L 533.188001 363.954885 
L 532.830915 366.353239 
L 532.449863 368.747903 
L 532.044883 371.138637 
L 531.616017 373.525202 
L 531.163308 375.907358 
L 530.6868 378.284869 
L 530.18654 380.657496 
L 529.66258 383.025001 
L 529.114972 385.387149 
L 528.54377 387.743702 
L 527.949031 390.094426 
L 527.330815 392.439085 
L 526.689184 394.777445 
L 526.024202 397.109271 
L 525.335935 399.434331 
L 524.624452 401.752393 
L 523.889825 404.063224 
L 523.132126 406.366593 
L 522.351432 408.66227 
L 521.547821 410.950025 
L 520.721373 413.22963 
L 519.87217 415.500857 
L 519.000298 417.763479 
L 518.105843 420.017268 
L 517.188896 422.262001 
L 516.249548 424.497452 
L 515.287893 426.723398 
L 514.304026 428.939616 
L 513.298047 431.145885 
L 512.270056 433.341984 
L 511.220156 435.527693 
L 510.148451 437.702795 
L 509.05505 439.86707 
L 507.94006 442.020304 
L 506.803595 444.16228 
L 505.645767 446.292785 
L 504.466692 448.411605 
L 503.266488 450.518529 
L 503.170008 450.685791 
L 505.29116 451.910439 
L 505.388614 451.741487 
L 506.600941 449.613281 
L 507.791926 447.473059 
L 508.961449 445.321034 
L 510.109394 443.157421 
L 511.235646 440.982438 
L 512.340092 438.796301 
L 513.422622 436.599229 
L 514.483128 434.391441 
L 515.521502 432.17316 
L 516.537643 429.944605 
L 517.531447 427.706001 
L 518.502816 425.457571 
L 519.451653 423.199539 
L 520.377862 420.932133 
L 521.281351 418.655577 
L 522.16203 416.370101 
L 523.019811 414.075933 
L 523.854607 411.773301 
L 524.666336 409.462437 
L 525.454915 407.143572 
L 526.220268 404.816936 
L 526.962315 402.482764 
L 527.680985 400.141287 
L 528.376204 397.792742 
L 529.047903 395.437361 
L 529.696015 393.075382 
L 530.320476 390.70704 
L 530.921222 388.332571 
L 531.498194 385.952214 
L 532.051334 383.566206 
L 532.580586 381.174787 
L 533.085899 378.778194 
L 533.56722 376.376668 
L 534.024503 373.970449 
L 534.457701 371.559778 
L 534.866771 369.144896 
L 535.251672 366.726043 
L 535.612365 364.303462 
L 535.948816 361.877396 
L 536.260989 359.448087 
L 536.548854 357.015777 
L 536.812381 354.58071 
L 537.051546 352.14313 
L 537.266323 349.703281 
L 537.456691 347.261405 
L 537.622631 344.817748 
L 537.764127 342.372553 
L 537.881164 339.926066 
L 537.973731 337.478531 
L 538.041819 335.030193 
L 538.085419 332.581296 
L 538.10453 330.132086 
L 538.099147 327.682807 
L 538.069273 325.233704 
L 538.014909 322.785023 
L 537.936062 320.337007 
L 537.832739 317.889903 
L 537.70495 315.443954 
L 537.552709 312.999405 
L 537.37603 310.556501 
L 537.174931 308.115486 
L 536.949433 305.676603 
L 536.699558 303.240098 
L 536.42533 300.806213 
L 536.126778 298.375192 
L 535.80393 295.947278 
L 535.456821 293.522714 
L 535.085483 291.101742 
L 534.689955 288.684605 
L 534.270275 286.271543 
L 533.826486 283.862799 
L 533.358633 281.458613 
L 532.866761 279.059226 
L 532.35092 276.664878 
L 531.811162 274.275807 
L 531.247541 271.892254 
L 530.660113 269.514455 
L 530.048936 267.14265 
L 529.414073 264.777075 
L 528.755586 262.417967 
L 528.073541 260.065562 
L 527.368006 257.720094 
L 526.639053 255.381799 
L 525.886753 253.050911 
L 525.111183 250.727662 
L 524.312419 248.412284 
L 523.490542 246.10501 
L 522.645633 243.80607 
L 521.777778 241.515693 
L 520.887063 239.23411 
L 519.973577 236.961548 
L 519.037411 234.698234 
L 518.078659 232.444394 
L 517.097418 230.200255 
L 516.093784 227.96604 
L 515.067859 225.741973 
L 514.019744 223.528277 
L 512.949546 221.325172 
L 511.85737 219.132879 
L 510.743326 216.951617 
L 509.607526 214.781604 
L 508.450083 212.623058 
L 507.271113 210.476194 
L 506.070733 208.341227 
L 504.849064 206.21837 
L 503.606228 204.107836 
L 502.342349 202.009835 
L 501.057553 199.924578 
L 499.75197 197.852273 
L 498.425729 195.793128 
L 497.078963 193.747347 
L 495.711807 191.715136 
L 494.324398 189.696698 
L 492.916874 187.692235 
L 491.489376 185.701947 
L 490.042047 183.726033 
L 488.575032 181.764691 
L 487.088477 179.818117 
L 485.58253 177.886506 
L 484.057344 175.97005 
L 482.513069 174.068942 
L 480.94986 172.183372 
L 479.367875 170.313527 
L 477.76727 168.459596 
L 476.148207 166.621763 
L 474.510846 164.800212 
L 472.855352 162.995126 
L 471.181891 161.206685 
L 469.490628 159.435067 
L 467.781735 157.680451 
L 466.055381 155.943011 
L 464.311739 154.222921 
L 462.550984 152.520353 
L 460.773292 150.835477 
L 458.978839 149.168462 
L 457.167807 147.519475 
L 455.340376 145.88868 
L 453.496728 144.276241 
L 451.637049 142.682319 
L 449.761523 141.107073 
L 447.870339 139.55066 
L 445.963686 138.013237 
L 444.041754 136.494957 
L 442.104736 134.995972 
L 440.152825 133.516432 
L 438.186216 132.056484 
L 436.205107 130.616276 
L 434.209694 129.19595 
L 432.200179 127.795648 
L 430.176761 126.415512 
L 428.139643 125.055678 
L 426.089029 123.716284 
L 424.025123 122.397462 
L 421.948133 121.099345 
L 419.858266 119.822062 
L 417.755731 118.565741 
L 415.640737 117.330508 
L 414.41609 119.45166 
z
" clip-path="url(#pecfc3f7cf6)" style="fill: none; stroke: #000000; stroke-width: 0.5; stroke-linejoin: miter"/>
   </g>
   <g id="patch_9">
    <path d="M 503.170008 450.685791 
L 501.947127 452.779634 
L 500.70337 454.861144 
L 499.43886 456.930113 
L 498.153724 458.986333 
L 496.84809 461.029599 
L 495.522089 463.059707 
L 494.175854 465.076454 
L 492.809519 467.079638 
L 491.423221 469.069058 
L 490.017098 471.044516 
L 488.591292 473.005815 
L 487.145944 474.952757 
L 485.681199 476.885149 
L 484.197203 478.802798 
L 482.694106 480.70551 
L 481.172057 482.593097 
L 479.631209 484.465369 
L 478.071715 486.322139 
L 476.493732 488.163222 
L 474.897417 489.988433 
L 473.282931 491.79759 
L 471.650433 493.590512 
L 470.000089 495.36702 
L 468.332062 497.126935 
L 466.64652 498.870083 
L 464.943631 500.596288 
L 463.223565 502.305378 
L 461.486494 503.997183 
L 459.732593 505.671533 
L 457.962036 507.32826 
L 456.175001 508.967199 
L 454.371666 510.588186 
L 452.552211 512.191059 
L 450.716819 513.775657 
L 448.865673 515.341823 
L 446.998958 516.889399 
L 445.116861 518.418231 
L 443.21957 519.928166 
L 441.307275 521.419053 
L 439.380167 522.890742 
L 437.438438 524.343088 
L 435.482284 525.775943 
L 433.511899 527.189166 
L 431.52748 528.582615 
L 429.529227 529.95615 
L 427.517338 531.309634 
L 425.492015 532.642932 
L 423.45346 533.955911 
L 421.401878 535.248438 
L 419.337474 536.520386 
L 417.260453 537.771626 
L 415.171025 539.002034 
L 413.069396 540.211486 
L 410.955779 541.399862 
L 408.830383 542.567043 
L 406.693423 543.712912 
L 404.54511 544.837354 
L 402.385661 545.940257 
L 400.215291 547.021511 
L 398.034217 548.081008 
L 395.842657 549.118641 
L 393.640831 550.134307 
L 391.428959 551.127904 
L 389.207261 552.099334 
L 386.97596 553.048498 
L 384.735279 553.975302 
L 382.485442 554.879653 
L 380.226675 555.761461 
L 377.959202 556.620638 
L 375.683251 557.457097 
L 373.39905 558.270756 
L 371.106826 559.061532 
L 368.806809 559.829347 
L 366.49923 560.574123 
L 364.184318 561.295787 
L 361.862305 561.994266 
L 359.533424 562.669491 
L 357.197907 563.321393 
L 354.855987 563.949908 
L 352.5079 564.554973 
L 350.15388 565.136526 
L 347.794162 565.694511 
L 345.428982 566.228872 
L 343.058577 566.739554 
L 340.683184 567.226507 
L 338.30304 567.689682 
L 335.918383 568.129033 
L 333.529453 568.544516 
L 331.136486 568.936089 
L 328.739724 569.303713 
L 326.339406 569.647352 
L 323.935771 569.966971 
L 321.52906 570.262538 
L 319.119514 570.534023 
L 316.707374 570.7814 
L 314.29288 571.004643 
L 311.876275 571.20373 
L 309.4578 571.378642 
L 307.037697 571.529361 
L 304.616207 571.655872 
L 302.193574 571.758162 
L 299.770038 571.836221 
L 297.345844 571.890041 
L 294.921232 571.919617 
L 292.496446 571.924945 
L 290.071728 571.906026 
L 287.64732 571.862861 
L 285.223465 571.795455 
L 282.800405 571.703813 
L 280.378383 571.587947 
L 277.957641 571.447866 
L 275.53842 571.283585 
L 273.120963 571.09512 
L 270.705512 570.882491 
L 268.292308 570.645718 
L 265.881592 570.384826 
L 263.473605 570.09984 
L 261.068589 569.790788 
L 258.666783 569.457703 
L 256.268429 569.100616 
L 253.873765 568.719564 
L 251.483031 568.314584 
L 249.096466 567.885719 
L 246.71431 567.433009 
L 244.336799 566.956501 
L 241.964172 566.456241 
L 239.596667 565.932281 
L 237.234519 565.384673 
L 234.877966 564.813471 
L 232.527242 564.218732 
L 230.182583 563.600516 
L 227.844223 562.958885 
L 225.512397 562.293903 
L 223.187337 561.605636 
L 220.869275 560.894153 
L 218.558444 560.159526 
L 216.255075 559.401827 
L 213.959398 558.621133 
L 211.671643 557.817522 
L 209.392038 556.991074 
L 207.120811 556.141871 
L 204.858189 555.269999 
L 202.6044 554.375544 
L 200.359667 553.458597 
L 198.124216 552.519249 
L 195.89827 551.557594 
L 193.682052 550.573727 
L 191.475783 549.567748 
L 189.279684 548.539757 
L 187.093975 547.489857 
L 184.918873 546.418152 
L 182.754598 545.324751 
L 180.601364 544.209761 
L 178.459388 543.073296 
L 176.328883 541.915468 
L 174.210063 540.736393 
L 172.103139 539.536189 
L 170.008323 538.314976 
L 167.925823 537.072877 
L 165.855848 535.810015 
L 163.798605 534.526517 
L 161.7543 533.22251 
L 159.723137 531.898127 
L 157.705319 530.553498 
L 155.701047 529.188759 
L 153.710524 527.804045 
L 151.733946 526.399496 
L 149.771513 524.975251 
L 147.82342 523.531454 
L 145.889862 522.068249 
L 143.971033 520.585781 
L 142.067124 519.084199 
L 140.178326 517.563654 
L 138.304827 516.024297 
L 136.446816 514.466283 
L 134.604477 512.889766 
L 132.777995 511.294905 
L 130.967553 509.68186 
L 129.173332 508.050791 
L 127.395511 506.401861 
L 125.634267 504.735237 
L 123.889778 503.051083 
L 122.162217 501.349569 
L 120.451758 499.630865 
L 118.75857 497.895142 
L 117.082825 496.142575 
L 115.424688 494.373338 
L 113.784327 492.587608 
L 112.161904 490.785564 
L 110.557583 488.967387 
L 108.971523 487.133257 
L 107.403884 485.283359 
L 105.854822 483.417877 
L 104.324491 481.536998 
L 102.813046 479.64091 
L 101.320637 477.729803 
L 99.847413 475.803867 
L 98.393522 473.863296 
L 96.959109 471.908283 
L 95.544318 469.939024 
L 94.149289 467.955715 
L 92.774163 465.958556 
L 91.419077 463.947746 
L 90.084167 461.923485 
L 88.769565 459.885977 
L 87.475404 457.835425 
L 86.201813 455.772034 
L 84.94892 453.696011 
L 83.716848 451.607562 
L 82.505723 449.506898 
L 81.315664 447.394227 
L 80.146791 445.269762 
L 78.999221 443.133714 
L 77.873068 440.986298 
L 76.768446 438.827728 
L 75.685464 436.65822 
L 74.624231 434.47799 
L 73.584853 432.287257 
L 72.567434 430.086241 
L 71.572075 427.87516 
L 70.598877 425.654236 
L 69.647936 423.423692 
L 68.719348 421.18375 
L 67.813206 418.934634 
L 66.929599 416.676569 
L 66.068617 414.409782 
L 65.230346 412.134498 
L 64.414868 409.850945 
L 63.622267 407.559352 
L 62.852621 405.259947 
L 62.106007 402.952961 
L 61.3825 400.638625 
L 60.682172 398.317169 
L 60.005093 395.988826 
L 59.351331 393.653829 
L 58.720952 391.312411 
L 58.114018 388.964806 
L 57.530589 386.61125 
L 56.970725 384.251977 
L 56.434482 381.887223 
L 55.921912 379.517226 
L 55.433068 377.142221 
L 54.967997 374.762447 
L 54.526747 372.378141 
L 54.109362 369.989542 
L 53.715884 367.596888 
L 53.346351 365.200419 
L 53.000801 362.800375 
L 52.679268 360.396996 
L 52.381785 357.990521 
L 52.108381 355.581192 
L 51.859084 353.16925 
L 51.633918 350.754935 
L 51.432906 348.338489 
L 51.256068 345.920154 
L 51.103422 343.500171 
L 50.974983 341.078783 
L 50.870764 338.656232 
L 50.790775 336.232759 
L 50.735025 333.808608 
L 50.703518 331.384021 
L 50.696258 328.95924 
L 50.713247 326.534507 
L 50.754481 324.110066 
L 50.819957 321.686158 
L 50.909669 319.263026 
L 51.023607 316.840913 
L 51.16176 314.420059 
L 51.324115 312.000709 
L 51.510654 309.583103 
L 51.72136 307.167483 
L 51.95621 304.754091 
L 52.215183 302.343168 
L 52.498252 299.934955 
L 52.805388 297.529693 
L 53.136561 295.127623 
L 53.491738 292.728985 
L 53.870883 290.334018 
L 54.273958 287.942963 
L 54.700923 285.556057 
L 55.151736 283.173541 
L 55.626351 280.795652 
L 56.12472 278.422627 
L 56.646795 276.054705 
L 57.192522 273.692123 
L 57.761848 271.335115 
L 58.354714 268.983918 
L 58.971063 266.638768 
L 59.610832 264.299898 
L 60.273957 261.967543 
L 60.960372 259.641935 
L 61.670008 257.323308 
L 62.402795 255.011893 
L 63.158659 252.707921 
L 63.937525 250.411623 
L 64.739314 248.123228 
L 65.563947 245.842966 
L 66.411341 243.571063 
L 67.281411 241.307748 
L 68.17407 239.053247 
L 69.08923 236.807785 
L 70.026797 234.571587 
L 70.98668 232.344876 
L 71.968781 230.127875 
L 72.973003 227.920806 
L 73.999245 225.723889 
L 75.047404 223.537344 
L 76.117376 221.36139 
L 77.209054 219.196244 
L 78.322328 217.042123 
L 79.457088 214.899243 
L 80.613219 212.767816 
L 81.790606 210.648058 
L 82.989132 208.540179 
L 83.181959 208.205578 
L 81.060807 206.98093 
L 80.866033 207.318912 
L 79.655401 209.448082 
L 78.46612 211.589252 
L 77.298311 213.742208 
L 76.152089 215.906734 
L 75.02757 218.082613 
L 73.924865 220.269629 
L 72.844085 222.467563 
L 71.785338 224.676194 
L 70.74873 226.895302 
L 69.734365 229.124665 
L 68.742343 231.36406 
L 67.772765 233.613263 
L 66.825727 235.872049 
L 65.901324 238.140192 
L 64.999648 240.417466 
L 64.120789 242.703643 
L 63.264836 244.998494 
L 62.431873 247.301789 
L 61.621985 249.613299 
L 60.835252 251.932792 
L 60.071753 254.260036 
L 59.331564 256.594799 
L 58.61476 258.936847 
L 57.921411 261.285945 
L 57.251588 263.64186 
L 56.605356 266.004355 
L 55.982782 268.373193 
L 55.383927 270.748139 
L 54.808851 273.128955 
L 54.257611 275.515403 
L 53.730263 277.907243 
L 53.22686 280.304237 
L 52.747451 282.706146 
L 52.292084 285.112728 
L 51.860806 287.523743 
L 51.453659 289.938951 
L 51.070685 292.358109 
L 50.71192 294.780976 
L 50.377402 297.20731 
L 50.067164 299.636867 
L 49.781236 302.069405 
L 49.519647 304.504681 
L 49.282424 306.94245 
L 49.06959 309.382471 
L 48.881166 311.824497 
L 48.717172 314.268285 
L 48.577623 316.713592 
L 48.462534 319.160171 
L 48.371917 321.607779 
L 48.305779 324.056171 
L 48.264128 326.505102 
L 48.246968 328.954326 
L 48.254301 331.4036 
L 48.286126 333.852678 
L 48.34244 336.301316 
L 48.423236 338.749268 
L 48.528508 341.196289 
L 48.658244 343.642136 
L 48.812432 346.086562 
L 48.991056 348.529325 
L 49.194099 350.97018 
L 49.421539 353.408882 
L 49.673355 355.845187 
L 49.94952 358.278853 
L 50.250009 360.709635 
L 50.574789 363.137291 
L 50.923829 365.561578 
L 51.297095 367.982254 
L 51.694548 370.399076 
L 52.116149 372.811802 
L 52.561856 375.220192 
L 53.031624 377.624004 
L 53.525406 380.022999 
L 54.043153 382.416936 
L 54.584814 384.805576 
L 55.150333 387.18868 
L 55.739654 389.56601 
L 56.352719 391.937327 
L 56.989466 394.302396 
L 57.649832 396.660979 
L 58.33375 399.01284 
L 59.041152 401.357745 
L 59.771967 403.695459 
L 60.526122 406.025748 
L 61.303543 408.348379 
L 62.10415 410.663119 
L 62.927864 412.969738 
L 63.774603 415.268005 
L 64.644282 417.557689 
L 65.536814 419.838563 
L 66.45211 422.110397 
L 67.390077 424.372965 
L 68.350624 426.62604 
L 69.333652 428.869397 
L 70.339065 431.102812 
L 71.366761 433.326061 
L 72.416638 435.538922 
L 73.48859 437.741174 
L 74.582511 439.932597 
L 75.698292 442.112971 
L 76.835819 444.282078 
L 77.994981 446.439702 
L 79.175661 448.585627 
L 80.37774 450.719637 
L 81.601099 452.841521 
L 82.845616 454.951064 
L 84.111165 457.048058 
L 85.397621 459.132291 
L 86.704854 461.203556 
L 88.032734 463.261645 
L 89.381129 465.306352 
L 90.749902 467.337474 
L 92.138919 469.354807 
L 93.548038 471.358148 
L 94.977121 473.347299 
L 96.426023 475.32206 
L 97.894599 477.282233 
L 99.382704 479.227622 
L 100.890188 481.158034 
L 102.416901 483.073274 
L 103.962689 484.973152 
L 105.527398 486.857477 
L 107.110872 488.726061 
L 108.712953 490.578717 
L 110.333479 492.41526 
L 111.97229 494.235506 
L 113.629221 496.039273 
L 115.304106 497.826382 
L 116.996778 499.596652 
L 118.707069 501.349907 
L 120.434806 503.085972 
L 122.179816 504.804673 
L 123.941927 506.505838 
L 125.720961 508.189298 
L 127.51674 509.854883 
L 129.329084 511.502427 
L 131.157814 513.131766 
L 133.002745 514.742737 
L 134.863693 516.335178 
L 136.740472 517.90893 
L 138.632895 519.463836 
L 140.540772 520.99974 
L 142.463912 522.516489 
L 144.402124 524.013931 
L 146.355212 525.491917 
L 148.322983 526.950298 
L 150.305239 528.388928 
L 152.301782 529.807665 
L 154.312412 531.206365 
L 156.336928 532.58489 
L 158.375128 533.943101 
L 160.426808 535.280862 
L 162.491763 536.59804 
L 164.569786 537.894503 
L 166.66067 539.170121 
L 168.764205 540.424767 
L 170.880181 541.658315 
L 173.008387 542.870642 
L 175.148609 544.061627 
L 177.300634 545.231151 
L 179.464247 546.379096 
L 181.63923 547.505347 
L 183.825367 548.609793 
L 186.022439 549.692323 
L 188.230227 550.752829 
L 190.448508 551.791203 
L 192.677063 552.807344 
L 194.915667 553.801148 
L 197.164097 554.772517 
L 199.422129 555.721354 
L 201.689535 556.647563 
L 203.966091 557.551053 
L 206.251567 558.431731 
L 208.545735 559.289512 
L 210.848367 560.124308 
L 213.159231 560.936037 
L 215.478096 561.724617 
L 217.804732 562.489969 
L 220.138904 563.232016 
L 222.480381 563.950686 
L 224.828926 564.645905 
L 227.184307 565.317604 
L 229.546286 565.965716 
L 231.914628 566.590177 
L 234.289097 567.190923 
L 236.669454 567.767895 
L 239.055462 568.321035 
L 241.446881 568.850287 
L 243.843474 569.3556 
L 246.245 569.836921 
L 248.651219 570.294204 
L 251.06189 570.727402 
L 253.476772 571.136472 
L 255.895625 571.521373 
L 258.318205 571.882066 
L 260.744272 572.218517 
L 263.173581 572.53069 
L 265.605891 572.818555 
L 268.040957 573.082082 
L 270.478538 573.321247 
L 272.918387 573.536024 
L 275.360263 573.726392 
L 277.80392 573.892332 
L 280.249114 574.033828 
L 282.695602 574.150865 
L 285.143137 574.243432 
L 287.591475 574.31152 
L 290.040372 574.355121 
L 292.489582 574.374231 
L 294.938861 574.368848 
L 297.387964 574.338974 
L 299.836645 574.28461 
L 302.28466 574.205763 
L 304.731765 574.10244 
L 307.177714 573.974651 
L 309.622263 573.82241 
L 312.065167 573.645731 
L 314.506182 573.444632 
L 316.945065 573.219134 
L 319.38157 572.969259 
L 321.815455 572.695031 
L 324.246476 572.396479 
L 326.67439 572.073632 
L 329.098954 571.726522 
L 331.519926 571.355184 
L 333.937063 570.959656 
L 336.350125 570.539976 
L 338.758869 570.096187 
L 341.163055 569.628334 
L 343.562442 569.136462 
L 345.95679 568.620621 
L 348.345861 568.080863 
L 350.729414 567.517242 
L 353.107213 566.929814 
L 355.479018 566.318637 
L 357.844593 565.683774 
L 360.203701 565.025287 
L 362.556106 564.343242 
L 364.901574 563.637707 
L 367.239869 562.908754 
L 369.570757 562.156454 
L 371.894006 561.380884 
L 374.209384 560.58212 
L 376.516658 559.760243 
L 378.815598 558.915335 
L 381.105975 558.047479 
L 383.387558 557.156764 
L 385.66012 556.243278 
L 387.923434 555.307112 
L 390.177274 554.34836 
L 392.421413 553.367119 
L 394.655628 552.363485 
L 396.879695 551.33756 
L 399.093391 550.289445 
L 401.296496 549.219247 
L 403.488789 548.127071 
L 405.670051 547.013027 
L 407.840063 545.877227 
L 409.99861 544.719784 
L 412.145474 543.540814 
L 414.280441 542.340434 
L 416.403298 541.118765 
L 418.513832 539.875929 
L 420.611832 538.61205 
L 422.69709 537.327254 
L 424.769395 536.021671 
L 426.82854 534.69543 
L 428.874321 533.348664 
L 430.906532 531.981508 
L 432.92497 530.594099 
L 434.929433 529.186575 
L 436.919721 527.759077 
L 438.895635 526.311748 
L 440.856977 524.844733 
L 442.803551 523.358178 
L 444.735162 521.852231 
L 446.651618 520.327045 
L 448.552726 518.78277 
L 450.438296 517.219562 
L 452.308141 515.637576 
L 454.162072 514.036971 
L 455.999905 512.417908 
L 457.821455 510.780547 
L 459.626542 509.125053 
L 461.414983 507.451592 
L 463.1866 505.760329 
L 464.941217 504.051436 
L 466.678657 502.325082 
L 468.398747 500.58144 
L 470.101315 498.820685 
L 471.786191 497.042993 
L 473.453206 495.248541 
L 475.102193 493.437508 
L 476.732987 491.610077 
L 478.345427 489.766429 
L 479.939349 487.90675 
L 481.514595 486.031224 
L 483.071008 484.14004 
L 484.608431 482.233387 
L 486.126711 480.311455 
L 487.625696 478.374437 
L 489.105236 476.422526 
L 490.565184 474.455917 
L 492.005392 472.474808 
L 493.425718 470.479395 
L 494.82602 468.46988 
L 496.206156 466.446462 
L 497.565989 464.409344 
L 498.905384 462.35873 
L 500.224206 460.294824 
L 501.522323 458.217834 
L 502.799606 456.127967 
L 504.055927 454.025432 
L 505.29116 451.910439 
L 503.170008 450.685791 
z
" clip-path="url(#pecfc3f7cf6)" style="fill: none; stroke: #000000; stroke-width: 0.5; stroke-linejoin: miter"/>
   </g>
   <g id="patch_10">
    <path d="M 83.181959 208.205578 
L 84.40484 206.111735 
L 85.648597 204.030225 
L 86.913107 201.961256 
L 88.198243 199.905036 
L 89.503877 197.86177 
L 90.829877 195.831662 
L 92.176113 193.814915 
L 93.542448 191.811731 
L 94.928746 189.822311 
L 96.334869 187.846853 
L 97.760675 185.885554 
L 99.206023 183.938612 
L 100.670768 182.00622 
L 102.154764 180.088571 
L 103.657861 178.185859 
L 105.17991 176.298272 
L 106.720758 174.426 
L 108.280252 172.56923 
L 109.858235 170.728147 
L 111.454549 168.902936 
L 113.069036 167.093779 
L 114.701533 165.300857 
L 116.351878 163.524349 
L 118.019905 161.764434 
L 119.705447 160.021286 
L 121.408336 158.295081 
L 123.128402 156.585991 
L 124.865473 154.894186 
L 126.619374 153.219836 
L 128.389931 151.563109 
L 130.176966 149.92417 
L 131.980301 148.303183 
L 133.799756 146.70031 
L 135.635148 145.115712 
L 137.486294 143.549546 
L 139.353009 142.00197 
L 141.235106 140.473138 
L 143.132397 138.963203 
L 145.044692 137.472316 
L 146.9718 136.000627 
L 148.913528 134.548281 
L 150.869683 133.115426 
L 152.840068 131.702203 
L 154.824487 130.308754 
L 156.82274 128.935219 
L 158.834629 127.581735 
L 160.859952 126.248437 
L 162.898506 124.935458 
L 164.950088 123.642931 
L 167.014493 122.370983 
L 169.091513 121.119743 
L 171.180942 119.889335 
L 171.935877 119.45166 
L 170.711229 117.330508 
L 169.948669 117.772604 
L 167.838135 119.01544 
L 165.740134 120.279319 
L 163.654877 121.564115 
L 161.582572 122.869698 
L 159.523427 124.195939 
L 157.477646 125.542705 
L 155.445435 126.909861 
L 153.426997 128.29727 
L 151.422534 129.704794 
L 149.432246 131.132292 
L 147.456332 132.579621 
L 145.49499 134.046636 
L 143.548416 135.533191 
L 141.616805 137.039138 
L 139.700349 138.564324 
L 137.799241 140.108599 
L 135.913671 141.671807 
L 134.043826 143.253793 
L 132.189895 144.854398 
L 130.352062 146.473461 
L 128.530511 148.110822 
L 126.725425 149.766316 
L 124.936984 151.439777 
L 123.165366 153.13104 
L 121.41075 154.839933 
L 119.67331 156.566287 
L 117.95322 158.309929 
L 116.250652 160.070684 
L 114.565776 161.848376 
L 112.898761 163.642828 
L 111.249774 165.453861 
L 109.618979 167.281292 
L 108.00654 169.12494 
L 106.412618 170.984619 
L 104.837372 172.860145 
L 103.280959 174.751329 
L 101.743536 176.657982 
L 100.225256 178.579914 
L 98.726271 180.516932 
L 97.246731 182.468843 
L 95.786783 184.435452 
L 94.346575 186.416561 
L 92.926249 188.411974 
L 91.525947 190.421489 
L 90.145811 192.444907 
L 88.785977 194.482025 
L 87.446583 196.532639 
L 86.127761 198.596545 
L 84.829644 200.673535 
L 83.552361 202.763402 
L 82.29604 204.865937 
L 81.060807 206.98093 
L 83.181959 208.205578 
z
" clip-path="url(#pecfc3f7cf6)" style="fill: none; stroke: #000000; stroke-width: 0.5; stroke-linejoin: miter"/>
   </g>
   <g id="patch_11">
    <path d="M 171.935877 119.45166 
L 174.041844 118.249779 
L 176.159725 117.069017 
L 178.289307 115.909493 
L 180.430377 114.771322 
L 182.582722 113.654618 
L 184.746127 112.559493 
L 186.920374 111.486057 
L 189.105247 110.434417 
L 191.300526 109.404677 
L 193.505993 108.396942 
L 195.721427 107.411311 
L 197.946607 106.447883 
L 200.181309 105.506755 
L 202.425311 104.58802 
L 204.678388 103.691772 
L 206.940314 102.818098 
L 209.210864 101.967087 
L 211.48981 101.138824 
L 213.776925 100.333391 
L 216.071979 99.550869 
L 218.374744 98.791336 
L 220.68499 98.054869 
L 223.002484 97.341541 
L 225.326995 96.651422 
L 227.658291 95.984583 
L 229.996139 95.34109 
L 232.340305 94.721008 
L 234.690555 94.124397 
L 237.046652 93.551319 
L 239.408363 93.001829 
L 241.775451 92.475984 
L 244.147678 91.973836 
L 246.524809 91.495434 
L 248.906604 91.040828 
L 251.292826 90.610061 
L 253.683237 90.203179 
L 256.077597 89.82022 
L 258.475666 89.461223 
L 260.877206 89.126225 
L 263.281975 88.815258 
L 265.689734 88.528355 
L 268.100242 88.265543 
L 270.513257 88.026848 
L 272.928538 87.812296 
L 275.345844 87.621906 
L 277.764933 87.455699 
L 280.185563 87.31369 
L 282.607492 87.195895 
L 285.030478 87.102324 
L 287.454278 87.032987 
L 289.878651 86.987892 
L 292.303353 86.967042 
L 293.175983 86.965472 
L 293.175983 84.516176 
L 292.294539 84.517763 
L 289.845345 84.538823 
L 287.396483 84.584374 
L 284.9482 84.654411 
L 282.50074 84.748927 
L 280.054347 84.867912 
L 277.609266 85.011355 
L 275.165741 85.179242 
L 272.724018 85.371554 
L 270.28434 85.588274 
L 267.846951 85.82938 
L 265.412095 86.094846 
L 262.980016 86.384648 
L 260.550956 86.698756 
L 258.125158 87.037138 
L 255.702865 87.39976 
L 253.28432 87.786588 
L 250.869764 88.19758 
L 248.459439 88.632698 
L 246.053585 89.091896 
L 243.652443 89.57513 
L 241.256253 90.082351 
L 238.865256 90.613507 
L 236.47969 91.168547 
L 234.099793 91.747414 
L 231.725803 92.350051 
L 229.357959 92.976398 
L 226.996496 93.626391 
L 224.641652 94.299965 
L 222.29366 94.997054 
L 219.952757 95.717588 
L 217.619176 96.461494 
L 215.293151 97.228699 
L 212.974914 98.019125 
L 210.664697 98.832694 
L 208.362731 99.669323 
L 206.069246 100.52893 
L 203.784472 101.411429 
L 201.508637 102.316731 
L 199.241969 103.244745 
L 196.984694 104.19538 
L 194.737038 105.168539 
L 192.499226 106.164126 
L 190.271481 107.182041 
L 188.054027 108.222182 
L 185.847085 109.284445 
L 183.650876 110.368724 
L 181.465619 111.47491 
L 179.291533 112.602894 
L 177.128835 113.752562 
L 174.977742 114.923798 
L 172.838469 116.116487 
L 170.711229 117.330508 
L 171.935877 119.45166 
z
" clip-path="url(#pecfc3f7cf6)" style="fill: none; stroke: #000000; stroke-width: 0.5; stroke-linejoin: miter"/>
   </g>
   <g id="text_1">
    <text style="font: 3px 'DejaVu Sans', 'Bitstream Vera Sans', 'Computer Modern Sans Serif', 'Lucida Grande', 'Verdana', 'Geneva', 'Lucid', 'Arial', 'Helvetica', 'Avant Garde', sans-serif; text-anchor: start" x="358.303258" y="90.791103" transform="rotate(-75 358.303258 90.791103)">Fama College</text>
   </g>
   <g id="text_2">
    <text style="font: 3px 'DejaVu Sans', 'Bitstream Vera Sans', 'Computer Modern Sans Serif', 'Lucida Grande', 'Verdana', 'Geneva', 'Lucid', 'Arial', 'Helvetica', 'Avant Garde', sans-serif; text-anchor: start" x="532.420551" y="266.520268" transform="rotate(-15 532.420551 266.520268)">University for Business and Technology</text>
   </g>
   <g id="text_3">
    <text style="font: 3px 'DejaVu Sans', 'Bitstream Vera Sans', 'Computer Modern Sans Serif', 'Lucida Grande', 'Verdana', 'Geneva', 'Lucid', 'Arial', 'Helvetica', 'Avant Garde', sans-serif; text-anchor: end" x="170.473648" y="544.251895" transform="rotate(-60 170.473648 544.251895)">University of Prishtina</text>
   </g>
   <g id="text_4">
    <text style="font: 3px 'DejaVu Sans', 'Bitstream Vera Sans', 'Computer Modern Sans Serif', 'Lucida Grande', 'Verdana', 'Geneva', 'Lucid', 'Arial', 'Helvetica', 'Avant Garde', sans-serif; text-anchor: end" x="117.446818" y="155.328391" transform="rotate(-315 117.446818 155.328391)">AAB College</text>
   </g>
   <g id="text_5">
    <text style="font: 3px 'DejaVu Sans', 'Bitstream Vera Sans', 'Computer Modern Sans Serif', 'Lucida Grande', 'Verdana', 'Geneva', 'Lucid', 'Arial', 'Helvetica', 'Avant Garde', sans-serif; text-anchor: end" x="228.048709" y="90.791103" transform="rotate(-285 228.048709 90.791103)">Universiteti i Gjakovs Fehmi Agani</text>
   </g>
  </g>
 </g>
 <defs>
  <clipPath id="pecfc3f7cf6">
   <path d="M 550.351967 329.445685 
C 550.351967 295.673644 543.699611 262.229994 530.775611 231.028696 
C 517.85161 199.827399 498.907304 171.475242 475.026865 147.594803 
C 451.146426 123.714364 422.794269 104.770058 391.592972 91.846057 
C 360.391674 78.922057 326.948024 72.269701 293.175983 72.269701 
C 259.403943 72.269701 225.960293 78.922057 194.758995 91.846057 
C 163.557698 104.770058 135.205541 123.714364 111.325102 147.594803 
C 87.444663 171.475242 68.500357 199.827399 55.576356 231.028696 
C 42.652356 262.229994 36 295.673644 36 329.445685 
C 36 363.217725 42.652356 396.661375 55.576356 427.862673 
C 68.500357 459.06397 87.444663 487.416127 111.325102 511.296566 
C 135.205541 535.177005 163.557698 554.121311 194.758995 567.045312 
C 225.960293 579.969312 259.403943 586.621668 293.175983 586.621668 
C 326.948024 586.621668 360.391674 579.969312 391.592972 567.045312 
C 422.794269 554.121311 451.146426 535.177005 475.026865 511.296566 
C 498.907304 487.416127 517.85161 459.06397 530.775611 427.862673 
C 543.699611 396.661375 550.351967 363.217725 550.351967 329.445685 
M 293.175983 329.445685 
C 293.175983 329.445685 293.175983 329.445685 293.175983 329.445685 
C 293.175983 329.445685 293.175983 329.445685 293.175983 329.445685 
C 293.175983 329.445685 293.175983 329.445685 293.175983 329.445685 
C 293.175983 329.445685 293.175983 329.445685 293.175983 329.445685 
C 293.175983 329.445685 293.175983 329.445685 293.175983 329.445685 
C 293.175983 329.445685 293.175983 329.445685 293.175983 329.445685 
C 293.175983 329.445685 293.175983 329.445685 293.175983 329.445685 
C 293.175983 329.445685 293.175983 329.445685 293.175983 329.445685 
C 293.175983 329.445685 293.175983 329.445685 293.175983 329.445685 
C 293.175983 329.445685 293.175983 329.445685 293.175983 329.445685 
C 293.175983 329.445685 293.175983 329.445685 293.175983 329.445685 
C 293.175983 329.445685 293.175983 329.445685 293.175983 329.445685 
C 293.175983 329.445685 293.175983 329.445685 293.175983 329.445685 
C 293.175983 329.445685 293.175983 329.445685 293.175983 329.445685 
C 293.175983 329.445685 293.175983 329.445685 293.175983 329.445685 
C 293.175983 329.445685 293.175983 329.445685 293.175983 329.445685 
z
"/>
  </clipPath>
 </defs>
</svg>
