<?xml version="1.0" encoding="utf-8" standalone="no"?>
<!DOCTYPE svg PUBLIC "-//W3C//DTD SVG 1.1//EN"
  "http://www.w3.org/Graphics/SVG/1.1/DTD/svg11.dtd">
<svg xmlns:xlink="http://www.w3.org/1999/xlink" width="606.711185pt" height="623.279008pt" viewBox="0 0 606.711185 623.279008" xmlns="http://www.w3.org/2000/svg" version="1.1">
 <metadata>
  <rdf:RDF xmlns:dc="http://purl.org/dc/elements/1.1/" xmlns:cc="http://creativecommons.org/ns#" xmlns:rdf="http://www.w3.org/1999/02/22-rdf-syntax-ns#">
   <cc:Work>
    <dc:type rdf:resource="http://purl.org/dc/dcmitype/StillImage"/>
    <dc:date>2024-11-16T03:54:14.411305</dc:date>
    <dc:format>image/svg+xml</dc:format>
    <dc:creator>
     <cc:Agent>
      <dc:title>Matplotlib v3.8.4, https://matplotlib.org/</dc:title>
     </cc:Agent>
    </dc:creator>
   </cc:Work>
  </rdf:RDF>
 </metadata>
 <defs>
  <style type="text/css">*{stroke-linejoin: round; stroke-linecap: butt}</style>
 </defs>
 <g id="figure_1">
  <g id="patch_1">
   <path d="M 0 623.279008 
L 606.711185 623.279008 
L 606.711185 0 
L 0 0 
z
" style="fill: #ffffff"/>
  </g>
  <g id="axes_1">
   <g id="patch_2">
    <path d="M 306.422591 84.27346 
L 308.637851 84.284536 
L 310.852889 84.317764 
L 313.067484 84.37314 
L 315.281415 84.45066 
L 317.49446 84.550314 
L 319.706398 84.672093 
L 321.917007 84.815986 
L 324.126067 84.981976 
L 326.333356 85.170049 
L 328.538655 85.380185 
L 330.741742 85.612363 
L 332.942397 85.86656 
L 335.1404 86.14275 
L 337.335531 86.440907 
L 339.527571 86.760999 
L 341.716301 87.102995 
L 343.901501 87.466861 
L 346.082953 87.852561 
L 348.260439 88.260055 
L 350.433742 88.689304 
L 352.602644 89.140264 
L 354.766927 89.61289 
L 356.926376 90.107134 
L 359.080775 90.622948 
L 361.229908 91.16028 
L 363.37356 91.719077 
L 365.511518 92.299281 
L 367.643566 92.900835 
L 369.769493 93.52368 
L 371.889084 94.167752 
L 374.00213 94.832988 
L 376.108417 95.51932 
L 378.207736 96.226681 
L 380.299876 96.954999 
L 382.384628 97.704202 
L 384.461785 98.474215 
L 386.531138 99.26496 
L 388.592479 100.076359 
L 390.645604 100.908331 
L 392.690307 101.760791 
L 394.726383 102.633656 
L 396.753629 103.526838 
L 398.771841 104.440247 
L 400.780819 105.373792 
L 402.780361 106.32738 
L 404.770268 107.300915 
L 406.750339 108.294301 
L 408.720378 109.307437 
L 410.680188 110.340222 
L 412.629571 111.392554 
L 414.568334 112.464326 
L 416.496283 113.555433 
L 418.413224 114.665764 
L 420.318966 115.795208 
L 422.213319 116.943653 
L 424.096093 118.110984 
L 425.9671 119.297084 
L 427.826152 120.501834 
L 429.673064 121.725115 
L 431.507651 122.966803 
L 433.329729 124.226774 
L 435.139117 125.504903 
L 436.935634 126.801062 
L 438.719099 128.11512 
L 440.489334 129.446948 
L 442.246164 130.796411 
L 443.98941 132.163374 
L 445.718901 133.547701 
L 447.434462 134.949254 
L 449.135921 136.367892 
L 450.82311 137.803473 
L 452.495858 139.255854 
L 454.154 140.724889 
L 455.797368 142.210433 
L 457.425799 143.712335 
L 459.03913 145.230447 
L 460.637199 146.764615 
L 462.219847 148.314687 
L 463.786915 149.880508 
L 465.338248 151.461921 
L 466.873688 153.058768 
L 468.393084 154.67089 
L 469.896282 156.298124 
L 471.383134 157.940309 
L 472.85349 159.59728 
L 474.307202 161.268872 
L 475.744126 162.954916 
L 477.164119 164.655246 
L 478.567037 166.36969 
L 479.952741 168.098077 
L 481.321092 169.840235 
L 482.671954 171.595989 
L 484.00519 173.365164 
L 485.320669 175.147582 
L 486.618258 176.943066 
L 487.897827 178.751435 
L 489.159249 180.57251 
L 490.402398 182.406107 
L 491.627148 184.252045 
L 492.833379 186.110137 
L 494.020968 187.980198 
L 495.189798 189.862042 
L 496.339751 191.755479 
L 497.470713 193.660322 
L 498.58257 195.576378 
L 499.675211 197.503457 
L 500.748527 199.441366 
L 501.802411 201.389911 
L 502.836757 203.348897 
L 503.851461 205.318129 
L 504.846423 207.297409 
L 505.821543 209.28654 
L 506.776723 211.285322 
L 507.711867 213.293555 
L 508.626883 215.31104 
L 509.521679 217.337574 
L 510.396165 219.372954 
L 511.250254 221.416977 
L 512.08386 223.469439 
L 512.8969 225.530134 
L 513.689293 227.598856 
L 514.460959 229.675399 
L 515.211822 231.759554 
L 515.941806 233.851114 
L 516.650838 235.949869 
L 517.338848 238.055609 
L 518.005766 240.168124 
L 518.651526 242.287202 
L 519.276063 244.412632 
L 519.879316 246.5442 
L 520.461222 248.681695 
L 521.021725 250.824902 
L 521.560768 252.973606 
L 522.078298 255.127594 
L 522.574262 257.286648 
L 523.048611 259.450555 
L 523.501298 261.619097 
L 523.932277 263.792057 
L 524.341506 265.969218 
L 524.728942 268.150362 
L 525.094548 270.335272 
L 525.438288 272.523729 
L 525.760125 274.715513 
L 526.060029 276.910406 
L 526.33797 279.108189 
L 526.593919 281.30864 
L 526.827852 283.511542 
L 527.039744 285.716672 
L 527.229574 287.923811 
L 527.397324 290.132738 
L 527.542977 292.343232 
L 527.666517 294.555072 
L 527.767934 296.768037 
L 527.847216 298.981905 
L 527.904356 301.196456 
L 527.939348 303.411467 
L 527.952188 305.626717 
L 527.942876 307.841985 
L 527.911412 310.057049 
L 527.857799 312.271688 
L 527.782043 314.485679 
L 527.684151 316.698803 
L 527.564133 318.910837 
L 527.422001 321.12156 
L 527.257769 323.330751 
L 527.071455 325.53819 
L 526.863075 327.743655 
L 526.632651 329.946926 
L 526.380207 332.147783 
L 526.105767 334.346005 
L 525.809359 336.541373 
L 525.491012 338.733667 
L 525.150759 340.922668 
L 524.788633 343.108158 
L 524.404671 345.289916 
L 523.998911 347.467727 
L 523.571393 349.64137 
L 523.12216 351.81063 
L 522.651258 353.975289 
L 522.158733 356.135132 
L 521.644635 358.28994 
L 521.109014 360.439501 
L 520.551925 362.583597 
L 519.973424 364.722016 
L 519.373567 366.854543 
L 518.752416 368.980965 
L 518.110032 371.101068 
L 517.446479 373.214643 
L 516.761824 375.321476 
L 516.056135 377.421357 
L 515.329483 379.514077 
L 514.581941 381.599425 
L 513.813582 383.677195 
L 513.024485 385.747176 
L 512.214728 387.809164 
L 511.384392 389.86295 
L 510.53356 391.908331 
L 509.662316 393.945102 
L 508.770749 395.973058 
L 507.858948 397.991997 
L 506.927003 400.001718 
L 505.975007 402.002019 
L 505.003057 403.9927 
L 504.011249 405.973562 
L 502.999682 407.944407 
L 501.968457 409.905038 
L 500.917678 411.855259 
L 499.84745 413.794875 
L 498.757879 415.723692 
L 497.649075 417.641517 
L 496.521149 419.548158 
L 495.374212 421.443425 
L 494.208381 423.327127 
L 493.023772 425.199078 
L 491.820502 427.059089 
L 490.598693 428.906974 
L 489.358466 430.742549 
L 488.099946 432.565631 
L 486.823258 434.376036 
L 485.528531 436.173584 
L 484.215893 437.958095 
L 482.885475 439.729391 
L 481.537412 441.487294 
L 480.171837 443.231629 
L 478.788888 444.962221 
L 477.388702 446.678897 
L 475.971419 448.381486 
L 474.537182 450.069817 
L 473.086134 451.743722 
L 471.618419 453.403032 
L 470.134185 455.047583 
L 468.63358 456.67721 
L 467.116753 458.291749 
L 465.583858 459.891039 
L 464.035046 461.474921 
L 462.470474 463.043236 
L 460.890297 464.595827 
L 459.294673 466.132539 
L 457.683762 467.653218 
L 456.057725 469.157712 
L 454.416725 470.64587 
L 452.760925 472.117545 
L 451.090492 473.572588 
L 449.405592 475.010855 
L 447.706394 476.432201 
L 445.993067 477.836484 
L 444.265784 479.223564 
L 442.524716 480.593302 
L 440.770039 481.945561 
L 439.001926 483.280206 
L 437.220556 484.597103 
L 435.426106 485.896122 
L 433.618756 487.177131 
L 431.798687 488.440002 
L 429.96608 489.684611 
L 428.121118 490.910831 
L 426.263987 492.118541 
L 424.394872 493.307619 
L 422.51396 494.477947 
L 420.621439 495.629408 
L 418.717498 496.761886 
L 416.802327 497.875268 
L 414.876119 498.969444 
L 412.939065 500.044303 
L 410.99136 501.099738 
L 409.033198 502.135643 
L 407.064775 503.151916 
L 405.086288 504.148453 
L 403.097935 505.125157 
L 401.099914 506.081928 
L 399.092426 507.018672 
L 397.07567 507.935294 
L 395.04985 508.831703 
L 393.015166 509.707809 
L 390.971824 510.563526 
L 388.920027 511.398766 
L 386.85998 512.213447 
L 384.791889 513.007487 
L 382.715961 513.780807 
L 380.632405 514.533329 
L 378.541427 515.264978 
L 376.443238 515.975682 
L 374.338046 516.665368 
L 372.226063 517.333968 
L 370.1075 517.981415 
L 367.982568 518.607645 
L 365.85148 519.212594 
L 363.71445 519.796203 
L 361.57169 520.358412 
L 359.423416 520.899167 
L 357.269841 521.418411 
L 355.111182 521.916095 
L 352.947654 522.392167 
L 350.779473 522.84658 
L 348.606857 523.27929 
L 346.430022 523.690252 
L 344.249187 524.079425 
L 342.064569 524.446771 
L 339.876387 524.792253 
L 337.68486 525.115836 
L 335.490206 525.417488 
L 333.292646 525.697178 
L 332.140616 525.83489 
L 332.400394 528.057433 
L 333.56406 527.91833 
L 335.783818 527.635814 
L 338.00064 527.331116 
L 340.214304 527.004264 
L 342.424589 526.655293 
L 344.631274 526.284236 
L 346.834138 525.891132 
L 349.032961 525.476019 
L 351.227522 525.038938 
L 353.417604 524.579935 
L 355.602986 524.099054 
L 357.78345 523.596343 
L 359.958777 523.071854 
L 362.128752 522.525637 
L 364.293155 521.957749 
L 366.451772 521.368246 
L 368.604386 520.757186 
L 370.750782 520.12463 
L 372.890745 519.470643 
L 375.024061 518.795289 
L 377.150517 518.098637 
L 379.2699 517.380754 
L 381.381999 516.641715 
L 383.486602 515.881591 
L 385.583498 515.10046 
L 387.672478 514.2984 
L 389.753334 513.47549 
L 391.825857 512.631812 
L 393.889839 511.767453 
L 395.945074 510.882497 
L 397.991358 509.977033 
L 400.028484 509.051152 
L 402.056251 508.104946 
L 404.074453 507.138511 
L 406.082891 506.151942 
L 408.081363 505.145338 
L 410.069669 504.1188 
L 412.04761 503.072431 
L 414.014989 502.006335 
L 415.971609 500.920619 
L 417.917274 499.815391 
L 419.85179 498.690762 
L 421.774962 497.546845 
L 423.6866 496.383753 
L 425.586511 495.201604 
L 427.474506 494.000515 
L 429.350396 492.780606 
L 431.213994 491.541999 
L 433.065112 490.284819 
L 434.903566 489.009191 
L 436.729172 487.715243 
L 438.541748 486.403103 
L 440.341111 485.072904 
L 442.127084 483.724777 
L 443.899485 482.358859 
L 445.658139 480.975285 
L 447.40287 479.574194 
L 449.133503 478.155727 
L 450.849865 476.720024 
L 452.551784 475.267229 
L 454.23909 473.797489 
L 455.911615 472.310949 
L 457.569191 470.807758 
L 459.211653 469.288067 
L 460.838835 467.752028 
L 462.450577 466.199794 
L 464.046715 464.63152 
L 465.627091 463.047364 
L 467.191547 461.447483 
L 468.739927 459.832038 
L 470.272074 458.20119 
L 471.787837 456.555103 
L 473.287064 454.893941 
L 474.769604 453.217869 
L 476.235309 451.527056 
L 477.684034 449.821671 
L 479.115632 448.101885 
L 480.529962 446.367868 
L 481.92688 444.619795 
L 483.306249 442.857841 
L 484.667929 441.082181 
L 486.011785 439.292994 
L 487.337682 437.490457 
L 488.645487 435.674752 
L 489.935071 433.84606 
L 491.206303 432.004564 
L 492.459057 430.150447 
L 493.693208 428.283896 
L 494.908632 426.405097 
L 496.105207 424.514238 
L 497.282815 422.611508 
L 498.441336 420.697098 
L 499.580656 418.771197 
L 500.70066 416.834001 
L 501.801236 414.885701 
L 502.882275 412.926493 
L 503.943668 410.956573 
L 504.985309 408.976137 
L 506.007094 406.985384 
L 507.00892 404.984514 
L 507.990688 402.973725 
L 508.9523 400.953219 
L 509.893659 398.923198 
L 510.81467 396.883865 
L 511.715243 394.835425 
L 512.595286 392.778081 
L 513.454713 390.712039 
L 514.293436 388.637507 
L 515.111373 386.554692 
L 515.908441 384.463801 
L 516.68456 382.365045 
L 517.439654 380.258632 
L 518.173646 378.144774 
L 518.886462 376.023681 
L 519.578033 373.895567 
L 520.248289 371.760644 
L 520.897162 369.619124 
L 521.524587 367.471224 
L 522.130503 365.317156 
L 522.714848 363.157137 
L 523.277564 360.991383 
L 523.818595 358.82011 
L 524.337886 356.643536 
L 524.835386 354.461877 
L 525.311045 352.275353 
L 525.764815 350.084181 
L 526.196651 347.888581 
L 526.60651 345.688773 
L 526.994351 343.484976 
L 527.360134 341.277411 
L 527.703825 339.066299 
L 528.025387 336.85186 
L 528.324789 334.634317 
L 528.602001 332.41389 
L 528.856995 330.190803 
L 529.089746 327.965276 
L 529.300231 325.737534 
L 529.488428 323.507798 
L 529.654318 321.276292 
L 529.797886 319.043238 
L 529.919116 316.80886 
L 530.017997 314.573382 
L 530.094518 312.337026 
L 530.148673 310.100018 
L 530.180455 307.862579 
L 530.189861 305.624935 
L 530.176891 303.387309 
L 530.141546 301.149924 
L 530.083828 298.913004 
L 530.003745 296.676774 
L 529.901304 294.441456 
L 529.776516 292.207274 
L 529.629392 289.974452 
L 529.459948 287.743212 
L 529.2682 285.513779 
L 529.054167 283.286374 
L 528.817872 281.061221 
L 528.559337 278.838543 
L 528.278589 276.618561 
L 527.975656 274.401497 
L 527.650567 272.187573 
L 527.303356 269.977011 
L 526.934057 267.770031 
L 526.542707 265.566855 
L 526.129345 263.367702 
L 525.694012 261.172793 
L 525.236753 258.982347 
L 524.757612 256.796583 
L 524.256639 254.61572 
L 523.733881 252.439975 
L 523.189393 250.269566 
L 522.623229 248.104711 
L 522.035444 245.945625 
L 521.426099 243.792526 
L 520.795253 241.645627 
L 520.14297 239.505144 
L 519.469315 237.371291 
L 518.774356 235.24428 
L 518.058162 233.124326 
L 517.320804 231.01164 
L 516.562357 228.906432 
L 515.782896 226.808914 
L 514.982499 224.719296 
L 514.161246 222.637786 
L 513.31922 220.564592 
L 512.456504 218.499922 
L 511.573185 216.443982 
L 510.669351 214.396979 
L 509.745092 212.359115 
L 508.800502 210.330596 
L 507.835674 208.311625 
L 506.850704 206.302402 
L 505.845692 204.303129 
L 504.820738 202.314006 
L 503.775944 200.335232 
L 502.711415 198.367005 
L 501.627258 196.409521 
L 500.52358 194.462977 
L 499.400492 192.527566 
L 498.258106 190.603483 
L 497.096537 188.69092 
L 495.915901 186.790068 
L 494.716316 184.901117 
L 493.497901 183.024256 
L 492.260779 181.159673 
L 491.005074 179.307554 
L 489.73091 177.468085 
L 488.438416 175.641449 
L 487.12772 173.827829 
L 485.798954 172.027407 
L 484.45225 170.240362 
L 483.087744 168.466873 
L 481.705571 166.707117 
L 480.30587 164.961272 
L 478.888781 163.22951 
L 477.454445 161.512005 
L 476.003006 159.80893 
L 474.53461 158.120453 
L 473.049402 156.446745 
L 471.547532 154.787973 
L 470.029149 153.144302 
L 468.494406 151.515896 
L 466.943456 149.902919 
L 465.376454 148.305532 
L 463.793557 146.723895 
L 462.194922 145.158165 
L 460.580711 143.6085 
L 458.951084 142.075054 
L 457.306204 140.557981 
L 455.646236 139.057433 
L 453.971346 137.573558 
L 452.281701 136.106507 
L 450.57747 134.656425 
L 448.858824 133.223457 
L 447.125934 131.807747 
L 445.378974 130.409437 
L 443.618119 129.028666 
L 441.843544 127.665572 
L 440.055427 126.320292 
L 438.253947 124.99296 
L 436.439284 123.683709 
L 434.611619 122.39267 
L 432.771136 121.119971 
L 430.918018 119.865741 
L 429.05245 118.630104 
L 427.17462 117.413185 
L 425.284714 116.215104 
L 423.382923 115.035982 
L 421.469435 113.875936 
L 419.544443 112.735083 
L 417.608138 111.613537 
L 415.660716 110.511409 
L 413.702369 109.428811 
L 411.733295 108.365849 
L 409.753689 107.322632 
L 407.763751 106.299262 
L 405.763679 105.295842 
L 403.753672 104.312473 
L 401.733933 103.349253 
L 399.704662 102.406278 
L 397.666064 101.483643 
L 395.618341 100.581439 
L 393.561698 99.699758 
L 391.496342 98.838686 
L 389.422478 97.998311 
L 387.340315 97.178716 
L 385.25006 96.379983 
L 383.151922 95.602193 
L 381.046111 94.845422 
L 378.932838 94.109747 
L 376.812314 93.395242 
L 374.684751 92.701976 
L 372.550362 92.030021 
L 370.40936 91.379443 
L 368.26196 90.750307 
L 366.108376 90.142676 
L 363.948823 89.556611 
L 361.783517 88.992171 
L 359.612676 88.449411 
L 357.436515 87.928387 
L 355.255254 87.42915 
L 353.069109 86.95175 
L 350.878299 86.496235 
L 348.683044 86.062651 
L 346.483563 85.65104 
L 344.280076 85.261445 
L 342.072803 84.893903 
L 339.861965 84.548452 
L 337.647783 84.225127 
L 335.430479 83.923959 
L 333.210274 83.644979 
L 330.98739 83.388214 
L 328.762049 83.153691 
L 326.534475 82.941432 
L 324.30489 82.75146 
L 322.073516 82.583792 
L 319.840577 82.438447 
L 317.606297 82.315437 
L 315.370898 82.214776 
L 313.134605 82.136474 
L 310.89764 82.080538 
L 308.660227 82.046974 
L 306.422591 82.035786 
z
" clip-path="url(#p54df9c3535)" style="fill: #000080"/>
   </g>
   <g id="patch_3">
    <path d="M 332.140616 525.83489 
L 329.939049 526.081065 
L 327.735131 526.305211 
L 325.529081 526.507308 
L 323.32112 526.687335 
L 321.11147 526.845273 
L 318.900351 526.981108 
L 316.687984 527.094824 
L 314.474591 527.186412 
L 312.260393 527.255862 
L 310.04561 527.303166 
L 307.830466 527.328321 
L 305.61518 527.331323 
L 303.399975 527.312173 
L 301.185073 527.270872 
L 298.970694 527.207424 
L 296.757061 527.121836 
L 294.544394 527.014117 
L 292.332915 526.884276 
L 290.122845 526.732328 
L 287.914404 526.558287 
L 285.707815 526.36217 
L 283.503297 526.143998 
L 281.301071 525.903792 
L 279.101357 525.641576 
L 276.904375 525.357377 
L 274.710345 525.051222 
L 272.519487 524.723142 
L 270.332018 524.373171 
L 268.148159 524.001343 
L 265.968126 523.607695 
L 263.79214 523.192267 
L 261.620416 522.7551 
L 259.453173 522.296238 
L 257.290626 521.815728 
L 255.132993 521.313616 
L 252.980488 520.789953 
L 250.833328 520.244791 
L 248.691726 519.678186 
L 246.555898 519.090193 
L 244.426056 518.480872 
L 242.302414 517.850283 
L 240.185184 517.19849 
L 238.074577 516.525557 
L 235.970805 515.831552 
L 233.874079 515.116545 
L 231.784607 514.380606 
L 229.702599 513.62381 
L 227.628262 512.846232 
L 225.561805 512.04795 
L 223.503435 511.229043 
L 221.453356 510.389594 
L 219.411773 509.529687 
L 217.378892 508.649407 
L 215.354915 507.748843 
L 213.340045 506.828084 
L 211.334483 505.887223 
L 209.33843 504.926353 
L 207.352085 503.945572 
L 205.375647 502.944976 
L 203.409314 501.924667 
L 201.453282 500.884745 
L 199.507747 499.825315 
L 197.572903 498.746484 
L 195.648944 497.648358 
L 193.736062 496.531048 
L 191.834449 495.394665 
L 189.944295 494.239323 
L 188.065788 493.065138 
L 186.199117 491.872226 
L 184.344468 490.660708 
L 182.502027 489.430705 
L 180.671978 488.182338 
L 178.854503 486.915734 
L 177.049786 485.631019 
L 175.258005 484.328321 
L 173.479341 483.007771 
L 171.713972 481.669501 
L 169.962073 480.313644 
L 168.223819 478.940336 
L 166.499386 477.549714 
L 164.788945 476.141918 
L 163.092667 474.717089 
L 161.410722 473.275368 
L 159.743278 471.8169 
L 158.090502 470.34183 
L 156.452559 468.850307 
L 154.829613 467.34248 
L 153.221826 465.818498 
L 151.629359 464.278515 
L 150.052371 462.722685 
L 148.49102 461.151163 
L 146.945462 459.564106 
L 145.415851 457.961674 
L 145.28775 457.826009 
L 143.660126 459.361594 
L 143.789521 459.498629 
L 145.334582 461.117248 
L 146.895751 462.720335 
L 148.472873 464.307731 
L 150.065791 465.879277 
L 151.674343 467.434815 
L 153.29837 468.97419 
L 154.93771 470.497248 
L 156.592198 472.003837 
L 158.261669 473.493806 
L 159.945956 474.967006 
L 161.64489 476.42329 
L 163.358302 477.862512 
L 165.08602 479.284528 
L 166.827872 480.689196 
L 168.583683 482.076376 
L 170.353278 483.445929 
L 172.13648 484.797717 
L 173.933111 486.131606 
L 175.74299 487.447463 
L 177.565937 488.745155 
L 179.401769 490.024553 
L 181.250304 491.285529 
L 183.111356 492.527957 
L 184.984738 493.751712 
L 186.870265 494.956673 
L 188.767746 496.142719 
L 190.676993 497.309731 
L 192.597814 498.457592 
L 194.530018 499.586189 
L 196.473411 500.695407 
L 198.427799 501.785136 
L 200.392986 502.855266 
L 202.368776 503.905692 
L 204.354971 504.936308 
L 206.351373 505.947011 
L 208.357782 506.937699 
L 210.373997 507.908274 
L 212.399818 508.858639 
L 214.43504 509.788698 
L 216.479461 510.698359 
L 218.532876 511.587531 
L 220.595081 512.456124 
L 222.665867 513.304053 
L 224.74503 514.131231 
L 226.83236 514.937577 
L 228.927649 515.723009 
L 231.030688 516.48745 
L 233.141265 517.230822 
L 235.259171 517.953052 
L 237.384193 518.654067 
L 239.516119 519.333797 
L 241.654735 519.992174 
L 243.799828 520.629132 
L 245.951184 521.244608 
L 248.108586 521.83854 
L 250.27182 522.410869 
L 252.440669 522.961537 
L 254.614916 523.490489 
L 256.794344 523.997673 
L 258.978734 524.483038 
L 261.167869 524.946534 
L 263.361529 525.388117 
L 265.559496 525.807741 
L 267.761548 526.205365 
L 269.967467 526.580949 
L 272.177031 526.934456 
L 274.39002 527.265849 
L 276.606212 527.575096 
L 278.825385 527.862167 
L 281.047318 528.127031 
L 283.271789 528.369664 
L 285.498575 528.59004 
L 287.727453 528.788137 
L 289.958201 528.963936 
L 292.190595 529.117419 
L 294.424412 529.248571 
L 296.659429 529.357379 
L 298.895423 529.443831 
L 301.132169 529.50792 
L 303.369444 529.549638 
L 305.607024 529.568982 
L 307.844687 529.565949 
L 310.082206 529.54054 
L 312.31936 529.492758 
L 314.555924 529.422607 
L 316.791675 529.330094 
L 319.026389 529.215229 
L 321.259843 529.078022 
L 323.491813 528.918489 
L 325.722076 528.736643 
L 327.950409 528.532505 
L 330.176589 528.306094 
L 332.400394 528.057433 
z
" clip-path="url(#p54df9c3535)" style="fill: #0010ff"/>
   </g>
   <g id="patch_4">
    <path d="M 145.28775 457.826009 
L 143.775603 456.207086 
L 142.279721 454.573123 
L 140.800253 452.924284 
L 139.337347 451.260732 
L 137.891149 449.582634 
L 136.461805 447.890159 
L 135.049456 446.183475 
L 133.654245 444.462754 
L 132.27631 442.728166 
L 130.91579 440.979886 
L 129.57282 439.218088 
L 128.247535 437.44295 
L 126.940067 435.654647 
L 125.650548 433.853359 
L 124.379105 432.039266 
L 123.125867 430.21255 
L 121.890958 428.373393 
L 120.674503 426.521979 
L 119.476621 424.658493 
L 118.297435 422.783122 
L 117.137061 420.896052 
L 115.995615 418.997474 
L 114.873211 417.087576 
L 113.769963 415.16655 
L 112.685979 413.234588 
L 111.621369 411.291883 
L 110.576239 409.338629 
L 109.550694 407.375021 
L 108.544835 405.401256 
L 107.558765 403.417532 
L 106.59258 401.424046 
L 105.646378 399.420998 
L 104.720254 397.408589 
L 103.814299 395.387019 
L 102.928606 393.35649 
L 102.063261 391.317207 
L 101.218353 389.269372 
L 100.393964 387.21319 
L 99.590178 385.148868 
L 98.807076 383.076611 
L 98.044735 380.996627 
L 97.303231 378.909123 
L 96.582639 376.814309 
L 95.883031 374.712394 
L 95.204477 372.603588 
L 94.547044 370.488102 
L 93.910799 368.366148 
L 93.295804 366.237937 
L 92.702123 364.103683 
L 92.129813 361.963599 
L 91.578932 359.817899 
L 91.049535 357.666798 
L 90.541676 355.51051 
L 90.055404 353.349251 
L 89.590769 351.183238 
L 89.147817 349.012687 
L 88.726592 346.837815 
L 88.327137 344.65884 
L 87.949491 342.475979 
L 87.593692 340.289451 
L 87.259776 338.099474 
L 86.947776 335.906267 
L 86.657723 333.710051 
L 86.389647 331.511043 
L 86.143573 329.309465 
L 85.919528 327.105536 
L 85.717532 324.899477 
L 85.537607 322.691509 
L 85.37977 320.481851 
L 85.267717 318.683932 
L 83.033829 318.814041 
L 83.147015 320.630121 
L 83.306446 322.862098 
L 83.488188 325.09237 
L 83.692224 327.320712 
L 83.918533 329.546903 
L 84.167092 331.770719 
L 84.437876 333.991939 
L 84.730859 336.210339 
L 85.04601 338.425699 
L 85.383299 340.637797 
L 85.742692 342.846412 
L 86.124153 345.051322 
L 86.527643 347.252307 
L 86.953122 349.449147 
L 87.400549 351.641623 
L 87.869877 353.829515 
L 88.36106 356.012605 
L 88.87405 358.190673 
L 89.408794 360.363503 
L 89.965239 362.530877 
L 90.54333 364.692578 
L 91.143009 366.84839 
L 91.764215 368.998098 
L 92.406887 371.141486 
L 93.07096 373.27834 
L 93.756369 375.408447 
L 94.463043 377.531594 
L 95.190914 379.647568 
L 95.939908 381.756157 
L 96.709949 383.857151 
L 97.500962 385.95034 
L 98.312867 388.035514 
L 99.145582 390.112465 
L 99.999026 392.180985 
L 100.873111 394.240868 
L 101.767751 396.291906 
L 102.682856 398.333896 
L 103.618335 400.366633 
L 104.574095 402.389914 
L 105.550039 404.403536 
L 106.54607 406.407298 
L 107.562089 408.401 
L 108.597993 410.384442 
L 109.65368 412.357426 
L 110.729044 414.319754 
L 111.823977 416.271231 
L 112.938369 418.211662 
L 114.07211 420.140851 
L 115.225086 422.058607 
L 116.397181 423.964738 
L 117.588278 425.859052 
L 118.798259 427.741361 
L 120.027002 429.611476 
L 121.274385 431.469211 
L 122.540282 433.314379 
L 123.824567 435.146796 
L 125.127112 436.966278 
L 126.447787 438.772645 
L 127.786458 440.565714 
L 129.142994 442.345308 
L 130.517257 444.111247 
L 131.90911 445.863356 
L 133.318414 447.601459 
L 134.745029 449.325382 
L 136.188812 451.034953 
L 137.649617 452.730001 
L 139.1273 454.410356 
L 140.621712 456.075851 
L 142.132705 457.726318 
L 143.660126 459.361594 
z
" clip-path="url(#p54df9c3535)" style="fill: #00a4ff"/>
   </g>
   <g id="patch_5">
    <path d="M 85.267717 318.683932 
L 85.149969 316.471776 
L 85.054347 314.258553 
L 84.980863 312.044485 
L 84.929522 309.829792 
L 84.900331 307.614697 
L 84.893292 305.399421 
L 84.908405 303.184185 
L 84.94567 300.969211 
L 85.005082 298.75472 
L 85.086635 296.540935 
L 85.190322 294.328075 
L 85.267717 292.922322 
L 83.033829 292.792213 
L 82.955653 294.212165 
L 82.850919 296.447377 
L 82.768541 298.683524 
L 82.708529 300.920384 
L 82.670888 303.157731 
L 82.655622 305.395343 
L 82.662732 307.632996 
L 82.692219 309.870466 
L 82.744078 312.107529 
L 82.818305 314.343961 
L 82.914892 316.57954 
L 83.033829 318.814041 
z
" clip-path="url(#p54df9c3535)" style="fill: #40ffb7"/>
   </g>
   <g id="patch_6">
    <path d="M 85.267717 292.922322 
L 85.40758 290.711455 
L 85.569545 288.502096 
L 85.753595 286.294467 
L 85.959712 284.08879 
L 86.187875 281.885283 
L 86.438061 279.684169 
L 86.710245 277.485666 
L 87.004401 275.289995 
L 87.320498 273.097375 
L 87.658505 270.908026 
L 88.018388 268.722166 
L 88.258457 267.334904 
L 86.054779 266.946336 
L 85.812285 268.347611 
L 85.448767 270.55555 
L 85.107345 272.767014 
L 84.788055 274.981781 
L 84.490929 277.199631 
L 84.215995 279.420341 
L 83.963282 281.643689 
L 83.732814 283.869453 
L 83.524615 286.09741 
L 83.338706 288.327338 
L 83.175106 290.559013 
L 83.033829 292.792213 
z
" clip-path="url(#p54df9c3535)" style="fill: #b7ff40"/>
   </g>
   <g id="patch_7">
    <path d="M 88.258457 267.334904 
L 88.654041 265.155222 
L 89.071402 262.979606 
L 89.510497 260.808271 
L 89.971284 258.641436 
L 90.453715 256.479317 
L 90.957744 254.32213 
L 91.483318 252.170092 
L 92.030386 250.023417 
L 92.598894 247.882319 
L 93.188783 245.747014 
L 93.799996 243.617714 
L 94.199493 242.267702 
L 92.055825 241.62593 
L 91.652293 242.989579 
L 91.034906 245.140387 
L 90.439058 247.297261 
L 89.864809 249.459985 
L 89.312214 251.628344 
L 88.781331 253.80212 
L 88.272212 255.981097 
L 87.784907 258.165055 
L 87.319466 260.353778 
L 86.875935 262.547045 
L 86.454359 264.744637 
L 86.054779 266.946336 
z
" clip-path="url(#p54df9c3535)" style="fill: #ffb900"/>
   </g>
   <g id="patch_8">
    <path d="M 94.199493 242.267702 
L 94.845448 240.148683 
L 95.51256 238.03623 
L 96.200763 235.930553 
L 96.909988 233.831863 
L 97.640164 231.740371 
L 98.391219 229.656284 
L 99.163076 227.579813 
L 99.955659 225.511163 
L 100.768888 223.450543 
L 101.602683 221.398158 
L 102.45696 219.354213 
L 103.331633 217.318913 
L 104.226614 215.292462 
L 105.141816 213.275061 
L 106.077145 211.266913 
L 107.032509 209.268219 
L 108.007811 207.279178 
L 109.002955 205.299989 
L 110.01784 203.330851 
L 111.052366 201.37196 
L 112.106429 199.423512 
L 113.179923 197.485701 
L 114.272741 195.558723 
L 115.384774 193.642768 
L 116.515911 191.73803 
L 117.666038 189.844698 
L 118.835041 187.962962 
L 120.022802 186.09301 
L 121.229203 184.235028 
L 122.454124 182.389204 
L 123.697441 180.55572 
L 124.95903 178.734761 
L 126.238766 176.926509 
L 127.536519 175.131145 
L 128.728507 173.514783 
L 126.933617 172.178537 
L 125.729589 173.811226 
L 124.418727 175.624725 
L 123.126065 177.451243 
L 121.851732 179.290595 
L 120.595856 181.142598 
L 119.358563 183.007068 
L 118.139976 184.883816 
L 116.940217 186.772657 
L 115.759406 188.673401 
L 114.597662 190.585857 
L 113.455099 192.509835 
L 112.331834 194.445143 
L 111.227977 196.391586 
L 110.143639 198.34897 
L 109.078929 200.3171 
L 108.033954 202.295778 
L 107.008817 204.284806 
L 106.003621 206.283987 
L 105.018467 208.293119 
L 104.053454 210.312002 
L 103.108677 212.340434 
L 102.184231 214.378212 
L 101.280209 216.425133 
L 100.396701 218.480992 
L 99.533795 220.545582 
L 98.691578 222.618699 
L 97.870134 224.700133 
L 97.069545 226.789678 
L 96.289892 228.887124 
L 95.531251 230.992262 
L 94.793699 233.104881 
L 94.07731 235.224769 
L 93.382156 237.351716 
L 92.708305 239.485507 
L 92.055825 241.62593 
z
" clip-path="url(#p54df9c3535)" style="fill: #ff3000"/>
   </g>
   <g id="patch_9">
    <path d="M 128.728507 173.514783 
L 130.060253 171.744486 
L 131.409635 169.987595 
L 132.776518 168.244285 
L 134.160766 166.514731 
L 135.56224 164.799106 
L 136.9808 163.097581 
L 138.416303 161.410327 
L 139.868607 159.737511 
L 141.337567 158.079303 
L 142.823035 156.435866 
L 144.324862 154.807366 
L 145.8429 153.193965 
L 147.376995 151.595826 
L 148.926994 150.013106 
L 150.492743 148.445966 
L 152.074085 146.894561 
L 153.670862 145.359048 
L 155.282913 143.839578 
L 156.910079 142.336304 
L 158.552195 140.849377 
L 160.209099 139.378946 
L 161.880623 137.925156 
L 163.566602 136.488155 
L 165.266866 135.068084 
L 166.981246 133.665087 
L 168.70957 132.279304 
L 170.451665 130.910873 
L 172.207356 129.55993 
L 173.97647 128.226613 
L 175.758828 126.911052 
L 177.554252 125.613381 
L 179.362562 124.333728 
L 181.183579 123.072223 
L 183.01712 121.82899 
L 184.863 120.604154 
L 186.721037 119.397839 
L 188.591044 118.210163 
L 190.472834 117.041247 
L 192.366219 115.891207 
L 194.271009 114.760157 
L 196.187015 113.648212 
L 198.114043 112.555483 
L 200.051903 111.482078 
L 202.0004 110.428104 
L 203.959338 109.393669 
L 205.928523 108.378873 
L 207.907758 107.383821 
L 209.896843 106.40861 
L 211.895581 105.453338 
L 213.903772 104.518101 
L 215.921215 103.602992 
L 217.947708 102.708104 
L 219.983048 101.833524 
L 222.027032 100.979342 
L 224.079455 100.145641 
L 226.140113 99.332506 
L 228.208799 98.540018 
L 230.285306 97.768256 
L 232.369427 97.017298 
L 234.460953 96.287218 
L 236.559675 95.578089 
L 238.665384 94.889983 
L 240.777868 94.222968 
L 242.896916 93.57711 
L 245.022317 92.952475 
L 247.153858 92.349125 
L 249.291326 91.76712 
L 251.434507 91.206519 
L 253.583187 90.667377 
L 255.73715 90.149749 
L 257.896182 89.653685 
L 260.060067 89.179237 
L 262.228588 88.72645 
L 264.401528 88.295371 
L 266.578671 87.886043 
L 268.759797 87.498506 
L 270.94469 87.1328 
L 273.133131 86.78896 
L 275.324901 86.467021 
L 277.51978 86.167016 
L 279.71755 85.888975 
L 281.91799 85.632924 
L 284.12088 85.398891 
L 286.326001 85.186898 
L 288.533131 84.996966 
L 290.742051 84.829114 
L 292.952538 84.68336 
L 295.164372 84.559718 
L 297.377332 84.4582 
L 299.591197 84.378816 
L 301.805745 84.321574 
L 304.020754 84.28648 
L 306.236004 84.273538 
L 306.422591 84.27346 
L 306.422591 82.035786 
L 306.234119 82.035866 
L 303.996493 82.048938 
L 301.75911 82.084387 
L 299.522193 82.142207 
L 297.285966 82.222392 
L 295.050653 82.324936 
L 292.816477 82.449827 
L 290.583661 82.597054 
L 288.35243 82.766601 
L 286.123005 82.958451 
L 283.895611 83.172586 
L 281.670469 83.408983 
L 279.447802 83.66762 
L 277.227832 83.94847 
L 275.010783 84.251505 
L 272.796874 84.576696 
L 270.586328 84.924008 
L 268.379365 85.293409 
L 266.176207 85.68486 
L 263.977073 86.098323 
L 261.782184 86.533756 
L 259.591759 86.991116 
L 257.406017 87.470357 
L 255.225176 87.971432 
L 253.049455 88.494289 
L 250.879072 89.038876 
L 248.714243 89.605141 
L 246.555184 90.193024 
L 244.402112 90.802469 
L 242.255243 91.433413 
L 240.11479 92.085794 
L 237.980967 92.759547 
L 235.853989 93.454604 
L 233.734068 94.170896 
L 231.621415 94.90835 
L 229.516242 95.666894 
L 227.41876 96.446452 
L 225.329179 97.246944 
L 223.247706 98.068293 
L 221.174551 98.910414 
L 219.109921 99.773225 
L 217.054022 100.656639 
L 215.00706 101.560567 
L 212.969239 102.484919 
L 210.940763 103.429603 
L 208.921836 104.394524 
L 206.912658 105.379585 
L 204.913432 106.384689 
L 202.924356 107.409735 
L 200.94563 108.454619 
L 198.977452 109.519239 
L 197.020018 110.603486 
L 195.073524 111.707254 
L 193.138165 112.830431 
L 191.214134 113.972904 
L 189.301624 115.134561 
L 187.400826 116.315285 
L 185.511931 117.514957 
L 183.635126 118.733458 
L 181.7706 119.970665 
L 179.918539 121.226456 
L 178.079128 122.500704 
L 176.252551 123.793282 
L 174.438992 125.104062 
L 172.63863 126.43291 
L 170.851647 127.779696 
L 169.078221 129.144284 
L 167.318529 130.526538 
L 165.572747 131.926319 
L 163.841051 133.343488 
L 162.123612 134.777902 
L 160.420603 136.229419 
L 158.732195 137.697893 
L 157.058555 139.183178 
L 155.399851 140.685124 
L 153.75625 142.203582 
L 152.127915 143.7384 
L 150.515009 145.289424 
L 148.917694 146.8565 
L 147.33613 148.43947 
L 145.770474 150.038176 
L 144.220882 151.652459 
L 142.687512 153.282156 
L 141.170514 154.927106 
L 139.670041 156.587143 
L 138.186244 158.262101 
L 136.71927 159.951814 
L 135.269266 161.656111 
L 133.836378 163.374823 
L 132.420748 165.107778 
L 131.022518 166.854802 
L 129.641828 168.615721 
L 128.278815 170.390358 
L 126.933617 172.178537 
z
" clip-path="url(#p54df9c3535)" style="fill: #800000"/>
   </g>
   <g id="PatchCollection_1">
    <path d="M 145.28775 457.826009 
L 145.28775 457.826009 
L 143.775603 456.207086 
L 142.279721 454.573123 
L 140.800253 452.924284 
L 139.337347 451.260732 
L 137.891149 449.582634 
L 136.461805 447.890159 
L 135.049456 446.183475 
L 133.654245 444.462754 
L 132.27631 442.728166 
L 130.91579 440.979886 
L 129.57282 439.218088 
L 128.728507 438.091471 
L 128.728507 438.091471 
Q 306.422591 305.803127 332.140616 525.83489 
L 332.140616 525.83489 
L 332.140616 525.83489 
L 329.939049 526.081065 
L 327.735131 526.305211 
L 325.529081 526.507308 
L 323.32112 526.687335 
L 321.11147 526.845273 
L 318.900351 526.981108 
L 316.687984 527.094824 
L 314.474591 527.186412 
L 312.260393 527.255862 
L 310.04561 527.303166 
L 307.830466 527.328321 
L 306.422591 527.332795 
L 306.422591 527.332795 
Q 306.422591 305.803127 145.28775 457.826009 
z
" clip-path="url(#p54df9c3535)" style="fill: #00a4ff; fill-opacity: 0.5; stroke: #808080; stroke-opacity: 0.5; stroke-width: 0.1"/>
    <path d="M 306.422591 527.332795 
L 306.422591 527.332795 
L 304.207331 527.321718 
L 301.992293 527.28849 
L 299.777698 527.233114 
L 297.563767 527.155594 
L 295.350722 527.05594 
L 293.138785 526.934161 
L 290.928175 526.790268 
L 288.719116 526.624278 
L 286.511826 526.436205 
L 284.306528 526.226069 
L 282.103441 525.993891 
L 279.902786 525.739694 
L 277.704783 525.463504 
L 275.509651 525.165347 
L 273.317611 524.845255 
L 271.128882 524.503259 
L 268.943682 524.139393 
L 266.762229 523.753693 
L 264.584743 523.346199 
L 262.41144 522.91695 
L 260.242539 522.46599 
L 258.078255 521.993364 
L 255.918806 521.49912 
L 253.764407 520.983306 
L 251.615274 520.445974 
L 249.471622 519.887178 
L 247.333665 519.306973 
L 245.201616 518.705419 
L 243.07569 518.082574 
L 240.956098 517.438502 
L 238.843053 516.773266 
L 236.736766 516.086934 
L 234.637447 515.379573 
L 232.545307 514.651255 
L 230.654983 513.972921 
L 230.654983 513.972921 
Q 306.422591 305.803127 306.422591 84.27346 
L 306.422591 84.27346 
L 306.422591 84.27346 
L 308.637851 84.284536 
L 310.852889 84.317764 
L 313.067484 84.37314 
L 315.281415 84.45066 
L 317.49446 84.550314 
L 319.706398 84.672093 
L 321.917007 84.815986 
L 324.126067 84.981976 
L 326.333356 85.170049 
L 328.538655 85.380185 
L 330.741742 85.612363 
L 332.942397 85.86656 
L 335.1404 86.14275 
L 337.335531 86.440907 
L 339.527571 86.760999 
L 341.716301 87.102995 
L 343.901501 87.466861 
L 346.082953 87.852561 
L 348.260439 88.260055 
L 350.433742 88.689304 
L 352.602644 89.140264 
L 354.766927 89.61289 
L 356.926376 90.107134 
L 359.080775 90.622948 
L 361.229908 91.16028 
L 363.37356 91.719077 
L 365.511518 92.299281 
L 367.643566 92.900835 
L 369.769493 93.52368 
L 371.889084 94.167752 
L 374.00213 94.832988 
L 376.108417 95.51932 
L 378.207736 96.226681 
L 380.299876 96.954999 
L 382.1902 97.633333 
L 382.1902 97.633333 
Q 306.422591 305.803127 306.422591 527.332795 
z
" clip-path="url(#p54df9c3535)" style="fill: #0010ff; fill-opacity: 0.5; stroke: #808080; stroke-opacity: 0.5; stroke-width: 0.1"/>
    <path d="M 382.1902 97.633333 
L 382.1902 97.633333 
L 384.268075 98.401405 
L 386.338165 99.190217 
L 388.400264 99.99969 
L 390.454165 100.829743 
L 392.499663 101.680293 
L 394.536554 102.551256 
L 396.564633 103.442543 
L 398.583698 104.354067 
L 400.593547 105.285735 
L 402.593979 106.237454 
L 404.584794 107.20913 
L 406.565793 108.200666 
L 408.536777 109.211961 
L 410.497551 110.242915 
L 412.447916 111.293426 
L 414.38768 112.363387 
L 416.316647 113.452691 
L 418.234624 114.561231 
L 420.141421 115.688895 
L 422.036846 116.83557 
L 423.920709 118.001141 
L 425.792823 119.185493 
L 427.653 120.388506 
L 429.501053 121.610061 
L 431.3368 122.850034 
L 433.160054 124.108303 
L 434.970635 125.384741 
L 436.768362 126.679221 
L 438.553054 127.991613 
L 440.324533 129.321786 
L 442.082622 130.669608 
L 443.827145 132.034942 
L 445.557928 133.417653 
L 447.274797 134.817602 
L 448.977581 136.23465 
L 450.66611 137.668654 
L 452.340215 139.119472 
L 453.999728 140.586958 
L 455.644483 142.070966 
L 457.274316 143.571346 
L 458.889064 145.08795 
L 460.488566 146.620625 
L 462.072661 148.169218 
L 463.641192 149.733575 
L 465.194 151.313538 
L 466.730932 152.90895 
L 468.251833 154.519651 
L 469.756551 156.145481 
L 471.244936 157.786276 
L 472.716839 159.441873 
L 474.172112 161.112105 
L 475.610611 162.796807 
L 477.032191 164.495809 
L 478.43671 166.208942 
L 479.824028 167.936034 
L 481.194006 169.676913 
L 482.546507 171.431404 
L 483.881396 173.199333 
L 485.198539 174.980521 
L 486.497804 176.774792 
L 487.779062 178.581966 
L 489.042185 180.401861 
L 490.287046 182.234297 
L 491.513521 184.079089 
L 492.721486 185.936054 
L 493.910822 187.805005 
L 495.081409 189.685756 
L 496.233131 191.578118 
L 497.365871 193.481903 
L 498.479518 195.39692 
L 499.573959 197.322978 
L 500.649085 199.259883 
L 501.704788 201.207443 
L 502.740963 203.165462 
L 503.757507 205.133745 
L 504.754318 207.112095 
L 505.731295 209.100313 
L 506.688342 211.098202 
L 507.625362 213.105562 
L 508.542262 215.122191 
L 509.43895 217.147888 
L 510.315337 219.18245 
L 511.171335 221.225675 
L 512.006858 223.277357 
L 512.821823 225.337291 
L 513.616148 227.405273 
L 514.389754 229.481093 
L 515.142563 231.564546 
L 515.874501 233.655423 
L 516.585493 235.753515 
L 517.27547 237.858611 
L 517.944361 239.970502 
L 518.5921 242.088976 
L 518.645689 242.267702 
L 518.645689 242.267702 
Q 306.422591 305.803127 128.728507 173.514783 
L 128.728507 173.514783 
L 128.728507 173.514783 
L 130.060253 171.744486 
L 131.409635 169.987595 
L 132.776518 168.244285 
L 134.160766 166.514731 
L 135.56224 164.799106 
L 136.9808 163.097581 
L 138.416303 161.410327 
L 139.868607 159.737511 
L 141.337567 158.079303 
L 142.823035 156.435866 
L 144.324862 154.807366 
L 145.8429 153.193965 
L 147.376995 151.595826 
L 148.926994 150.013106 
L 150.492743 148.445966 
L 152.074085 146.894561 
L 153.670862 145.359048 
L 155.282913 143.839578 
L 156.910079 142.336304 
L 158.552195 140.849377 
L 160.209099 139.378946 
L 161.880623 137.925156 
L 163.566602 136.488155 
L 165.266866 135.068084 
L 166.981246 133.665087 
L 168.70957 132.279304 
L 170.451665 130.910873 
L 172.207356 129.55993 
L 173.97647 128.226613 
L 175.758828 126.911052 
L 177.554252 125.613381 
L 179.362562 124.333728 
L 181.183579 123.072223 
L 183.01712 121.82899 
L 184.863 120.604154 
L 186.721037 119.397839 
L 188.591044 118.210163 
L 190.472834 117.041247 
L 192.366219 115.891207 
L 194.271009 114.760157 
L 196.187015 113.648212 
L 198.114043 112.555483 
L 200.051903 111.482078 
L 202.0004 110.428104 
L 203.959338 109.393669 
L 205.928523 108.378873 
L 207.907758 107.383821 
L 209.896843 106.40861 
L 211.895581 105.453338 
L 213.903772 104.518101 
L 215.921215 103.602992 
L 217.947708 102.708104 
L 219.983048 101.833524 
L 222.027032 100.979342 
L 224.079455 100.145641 
L 226.140113 99.332506 
L 228.208799 98.540018 
L 230.285306 97.768256 
L 232.369427 97.017298 
L 234.460953 96.287218 
L 236.559675 95.578089 
L 238.665384 94.889983 
L 240.777868 94.222968 
L 242.896916 93.57711 
L 245.022317 92.952475 
L 247.153858 92.349125 
L 249.291326 91.76712 
L 251.434507 91.206519 
L 253.583187 90.667377 
L 255.73715 90.149749 
L 257.896182 89.653685 
L 260.060067 89.179237 
L 262.228588 88.72645 
L 264.401528 88.295371 
L 266.578671 87.886043 
L 268.759797 87.498506 
L 270.94469 87.1328 
L 273.133131 86.78896 
L 275.324901 86.467021 
L 277.51978 86.167016 
L 279.71755 85.888975 
L 281.91799 85.632924 
L 284.12088 85.398891 
L 286.326001 85.186898 
L 288.533131 84.996966 
L 290.742051 84.829114 
L 292.952538 84.68336 
L 295.164372 84.559718 
L 297.377332 84.4582 
L 299.591197 84.378816 
L 301.805745 84.321574 
L 304.020754 84.28648 
L 306.236004 84.273538 
L 306.422591 84.27346 
L 306.422591 84.27346 
Q 306.422591 305.803127 382.1902 97.633333 
z
" clip-path="url(#p54df9c3535)" style="fill: #000080; fill-opacity: 0.5; stroke: #808080; stroke-opacity: 0.5; stroke-width: 0.1"/>
    <path d="M 518.645689 242.267702 
L 518.645689 242.267702 
L 519.270422 244.393075 
L 519.87387 246.524588 
L 520.455973 248.662029 
L 521.016673 250.805184 
L 521.555913 252.953839 
L 522.073641 255.107779 
L 522.569804 257.266788 
L 523.044352 259.430651 
L 523.497238 261.599151 
L 523.928416 263.772072 
L 524.337845 265.949195 
L 524.725482 268.130304 
L 525.091289 270.31518 
L 525.435229 272.503605 
L 525.757268 274.69536 
L 526.057374 276.890226 
L 526.335516 279.087982 
L 526.591668 281.288411 
L 526.825802 283.491291 
L 527.037897 285.696402 
L 527.22793 287.903523 
L 527.395883 290.112435 
L 527.541739 292.322915 
L 527.665483 294.534744 
L 527.767103 296.747699 
L 527.846588 298.96156 
L 527.903932 301.176106 
L 527.939127 303.391113 
L 527.952171 305.606362 
L 527.943063 307.821631 
L 527.911802 310.036698 
L 527.858393 312.251342 
L 527.78284 314.46534 
L 527.685151 316.678473 
L 527.577466 318.683932 
L 527.577466 318.683932 
Q 306.422591 305.803127 94.199493 242.267702 
L 94.199493 242.267702 
L 94.199493 242.267702 
L 94.845448 240.148683 
L 95.51256 238.03623 
L 96.200763 235.930553 
L 96.909988 233.831863 
L 97.640164 231.740371 
L 98.391219 229.656284 
L 99.163076 227.579813 
L 99.955659 225.511163 
L 100.768888 223.450543 
L 101.602683 221.398158 
L 102.45696 219.354213 
L 103.331633 217.318913 
L 104.226614 215.292462 
L 105.141816 213.275061 
L 106.077145 211.266913 
L 107.032509 209.268219 
L 108.007811 207.279178 
L 109.002955 205.299989 
L 110.01784 203.330851 
L 111.052366 201.37196 
L 112.106429 199.423512 
L 113.179923 197.485701 
L 114.272741 195.558723 
L 115.384774 193.642768 
L 116.515911 191.73803 
L 117.666038 189.844698 
L 118.835041 187.962962 
L 120.022802 186.09301 
L 121.229203 184.235028 
L 122.454124 182.389204 
L 123.697441 180.55572 
L 124.95903 178.734761 
L 126.238766 176.926509 
L 127.536519 175.131145 
L 128.728507 173.514783 
L 128.728507 173.514783 
Q 306.422591 305.803127 518.645689 242.267702 
z
" clip-path="url(#p54df9c3535)" style="fill: #000080; fill-opacity: 0.5; stroke: #808080; stroke-opacity: 0.5; stroke-width: 0.1"/>
    <path d="M 527.577466 318.683932 
L 527.577466 318.683932 
L 527.437602 320.8948 
L 527.275637 323.104158 
L 527.091587 325.311787 
L 526.88547 327.517465 
L 526.657308 329.720971 
L 526.407122 331.922085 
L 526.134937 334.120588 
L 525.840782 336.316259 
L 525.524685 338.508879 
L 525.186678 340.698228 
L 524.826794 342.884088 
L 524.586725 344.27135 
L 524.586725 344.27135 
Q 306.422591 305.803127 88.258457 267.334904 
L 88.258457 267.334904 
L 88.258457 267.334904 
L 88.654041 265.155222 
L 89.071402 262.979606 
L 89.510497 260.808271 
L 89.971284 258.641436 
L 90.453715 256.479317 
L 90.957744 254.32213 
L 91.483318 252.170092 
L 92.030386 250.023417 
L 92.598894 247.882319 
L 93.188783 245.747014 
L 93.799996 243.617714 
L 94.199493 242.267702 
L 94.199493 242.267702 
Q 306.422591 305.803127 527.577466 318.683932 
z
" clip-path="url(#p54df9c3535)" style="fill: #000080; fill-opacity: 0.5; stroke: #808080; stroke-opacity: 0.5; stroke-width: 0.1"/>
    <path d="M 524.586725 344.27135 
L 524.586725 344.27135 
L 524.191141 346.451032 
L 523.773781 348.626649 
L 523.334685 350.797983 
L 522.873899 352.964818 
L 522.391467 355.126937 
L 521.887439 357.284124 
L 521.361864 359.436162 
L 520.814796 361.582837 
L 520.246289 363.723935 
L 519.656399 365.85924 
L 519.045186 367.98854 
L 518.645689 369.338552 
L 518.645689 369.338552 
Q 306.422591 305.803127 85.267717 292.922322 
L 85.267717 292.922322 
L 85.267717 292.922322 
L 85.40758 290.711455 
L 85.569545 288.502096 
L 85.753595 286.294467 
L 85.959712 284.08879 
L 86.187875 281.885283 
L 86.438061 279.684169 
L 86.710245 277.485666 
L 87.004401 275.289995 
L 87.320498 273.097375 
L 87.658505 270.908026 
L 88.018388 268.722166 
L 88.258457 267.334904 
L 88.258457 267.334904 
Q 306.422591 305.803127 524.586725 344.27135 
z
" clip-path="url(#p54df9c3535)" style="fill: #000080; fill-opacity: 0.5; stroke: #808080; stroke-opacity: 0.5; stroke-width: 0.1"/>
    <path d="M 518.645689 369.338552 
L 518.645689 369.338552 
L 517.999735 371.457571 
L 517.332622 373.570024 
L 516.644419 375.675701 
L 515.935194 377.774391 
L 515.205018 379.865883 
L 514.453964 381.94997 
L 513.682107 384.026441 
L 512.889524 386.095091 
L 512.076294 388.155711 
L 511.242499 390.208096 
L 510.388223 392.252041 
L 509.8347 393.546546 
L 509.8347 393.546546 
Q 306.422591 305.803127 85.267717 318.683932 
L 85.267717 318.683932 
L 85.267717 318.683932 
L 85.149969 316.471776 
L 85.054347 314.258553 
L 84.980863 312.044485 
L 84.929522 309.829792 
L 84.900331 307.614697 
L 84.893292 305.399421 
L 84.908405 303.184185 
L 84.94567 300.969211 
L 85.005082 298.75472 
L 85.086635 296.540935 
L 85.190322 294.328075 
L 85.267717 292.922322 
L 85.267717 292.922322 
Q 306.422591 305.803127 518.645689 369.338552 
z
" clip-path="url(#p54df9c3535)" style="fill: #000080; fill-opacity: 0.5; stroke: #808080; stroke-opacity: 0.5; stroke-width: 0.1"/>
    <path d="M 509.8347 393.546546 
L 509.8347 393.546546 
L 508.94711 395.576246 
L 508.039268 397.596969 
L 507.111264 399.608512 
L 506.163191 401.610675 
L 505.195145 403.603258 
L 504.207221 405.58606 
L 503.199519 407.558884 
L 502.17214 409.521533 
L 501.125186 411.47381 
L 500.058761 413.41552 
L 498.972974 415.346469 
L 497.867931 417.266464 
L 496.743744 419.175312 
L 495.600525 421.072823 
L 494.438389 422.958808 
L 493.257451 424.833076 
L 492.057829 426.695442 
L 490.839645 428.545719 
L 489.603018 430.383722 
L 488.348074 432.209267 
L 487.074938 434.022171 
L 485.783736 435.822254 
L 484.474599 437.609334 
L 483.147656 439.383234 
L 481.803041 441.143777 
L 480.440888 442.890785 
L 479.061334 444.624085 
L 477.664515 446.343502 
L 476.250573 448.048866 
L 474.819648 449.740005 
L 473.371883 451.416751 
L 471.907424 453.078935 
L 470.426416 454.726392 
L 468.929008 456.358957 
L 467.41535 457.976467 
L 465.885592 459.578759 
L 464.339888 461.165673 
L 462.778393 462.737052 
L 461.201262 464.292737 
L 459.608654 465.832574 
L 458.000727 467.356408 
L 456.377642 468.864086 
L 454.739562 470.355459 
L 453.08665 471.830376 
L 451.419072 473.288691 
L 449.736995 474.730257 
L 448.040586 476.154931 
L 446.330015 477.56257 
L 444.605454 478.953033 
L 442.867075 480.326181 
L 441.115051 481.681877 
L 439.349559 483.019986 
L 437.570773 484.340372 
L 435.778873 485.642905 
L 433.974038 486.927455 
L 432.156447 488.193892 
L 430.326283 489.44209 
L 428.483729 490.671924 
L 428.155132 490.888464 
L 428.155132 490.888464 
Q 306.422591 305.803127 128.728507 438.091471 
L 128.728507 438.091471 
L 128.728507 438.091471 
L 127.41453 436.307946 
L 126.118454 434.51137 
L 124.840408 432.701923 
L 123.580521 430.879787 
L 122.338917 429.045143 
L 121.115721 427.198174 
L 119.911056 425.339067 
L 118.725042 423.468006 
L 117.557798 421.585179 
L 116.40944 419.690773 
L 115.280083 417.784979 
L 114.16984 415.867987 
L 113.078823 413.939988 
L 112.007139 412.001176 
L 110.954897 410.051744 
L 109.922201 408.091887 
L 108.909156 406.121801 
L 107.915861 404.141684 
L 106.942417 402.151733 
L 105.988921 400.152147 
L 105.055469 398.143126 
L 104.142152 396.124872 
L 103.249064 394.097585 
L 102.376292 392.061469 
L 101.523926 390.016727 
L 100.692049 387.963564 
L 99.880744 385.902185 
L 99.090094 383.832796 
L 98.320177 381.755604 
L 97.57107 379.670817 
L 96.842848 377.578643 
L 96.135583 375.479292 
L 95.449348 373.372973 
L 94.784209 371.259897 
L 94.140234 369.140276 
L 93.517487 367.014321 
L 92.916031 364.882245 
L 92.335925 362.744261 
L 91.777227 360.600583 
L 91.239994 358.451425 
L 90.724279 356.297003 
L 90.230133 354.137531 
L 89.757607 351.973226 
L 89.306746 349.804303 
L 88.877598 347.630981 
L 88.470203 345.453476 
L 88.084604 343.272006 
L 87.720838 341.086789 
L 87.378942 338.898044 
L 87.058951 336.705989 
L 86.760895 334.510844 
L 86.484806 332.312828 
L 86.23071 330.112162 
L 85.998634 327.909064 
L 85.788599 325.703756 
L 85.600628 323.496458 
L 85.434738 321.28739 
L 85.290947 319.076774 
L 85.267717 318.683932 
L 85.267717 318.683932 
Q 306.422591 305.803127 509.8347 393.546546 
z
" clip-path="url(#p54df9c3535)" style="fill: #000080; fill-opacity: 0.5; stroke: #808080; stroke-opacity: 0.5; stroke-width: 0.1"/>
    <path d="M 428.155132 490.888464 
L 428.155132 490.888464 
L 426.298223 492.096515 
L 424.429327 493.285937 
L 422.54863 494.45661 
L 420.65632 495.608419 
L 418.752587 496.741247 
L 416.837621 497.854981 
L 414.911614 498.949511 
L 412.974758 500.024726 
L 411.027247 501.080519 
L 409.069275 502.116784 
L 407.101039 503.133418 
L 405.122735 504.130319 
L 403.134561 505.107388 
L 401.136716 506.064526 
L 399.1294 507.001639 
L 397.112813 507.918632 
L 395.087157 508.815413 
L 393.052635 509.691893 
L 391.00945 510.547985 
L 388.957806 511.383602 
L 386.897909 512.198662 
L 384.829964 512.993082 
L 382.754179 513.766783 
L 380.670761 514.519688 
L 378.579917 515.251722 
L 376.481858 515.962811 
L 374.376794 516.652884 
L 372.264934 517.321872 
L 370.146489 517.969709 
L 368.021673 518.596329 
L 365.890696 519.20167 
L 363.753773 519.785671 
L 361.611117 520.348274 
L 359.462942 520.889423 
L 357.309462 521.409064 
L 355.150895 521.907144 
L 352.987454 522.383614 
L 350.819357 522.838425 
L 348.64682 523.271534 
L 346.470061 523.682896 
L 344.289298 524.07247 
L 342.104747 524.440217 
L 339.916629 524.786101 
L 337.725161 525.110087 
L 335.530563 525.412142 
L 333.333054 525.692237 
L 332.140616 525.83489 
L 332.140616 525.83489 
Q 306.422591 305.803127 230.654983 513.972921 
L 230.654983 513.972921 
L 230.654983 513.972921 
L 228.577108 513.204849 
L 226.507017 512.416037 
L 224.444918 511.606564 
L 222.391017 510.776511 
L 220.345519 509.925961 
L 218.308628 509.054998 
L 216.280549 508.163711 
L 214.261484 507.252187 
L 212.251635 506.320519 
L 210.251203 505.3688 
L 208.260388 504.397124 
L 206.27939 503.405588 
L 204.308405 502.394293 
L 202.347632 501.363339 
L 200.397266 500.312829 
L 198.457503 499.242868 
L 196.528536 498.153563 
L 194.610558 497.045023 
L 192.703761 495.917359 
L 190.808337 494.770684 
L 188.924473 493.605113 
L 187.05236 492.420761 
L 185.192183 491.217748 
L 183.344129 489.996193 
L 181.508383 488.75622 
L 179.685128 487.497951 
L 177.874547 486.221513 
L 176.076821 484.927033 
L 174.292129 483.614641 
L 172.520649 482.284468 
L 170.762561 480.936647 
L 169.018037 479.571312 
L 167.287255 478.188601 
L 165.570385 476.788652 
L 163.867601 475.371604 
L 162.179072 473.9376 
L 160.504968 472.486782 
L 158.845455 471.019296 
L 157.2007 469.535288 
L 155.570866 468.034908 
L 153.956118 466.518304 
L 152.356616 464.985629 
L 150.772521 463.437036 
L 149.203991 461.87268 
L 147.651182 460.292716 
L 146.11425 458.697304 
L 145.28775 457.826009 
L 145.28775 457.826009 
Q 306.422591 305.803127 428.155132 490.888464 
z
" clip-path="url(#p54df9c3535)" style="fill: #000080; fill-opacity: 0.5; stroke: #808080; stroke-opacity: 0.5; stroke-width: 0.1"/>
   </g>
   <g id="patch_10">
    <path d="M 306.422591 84.27346 
L 308.637851 84.284536 
L 310.852889 84.317764 
L 313.067484 84.37314 
L 315.281415 84.45066 
L 317.49446 84.550314 
L 319.706398 84.672093 
L 321.917007 84.815986 
L 324.126067 84.981976 
L 326.333356 85.170049 
L 328.538655 85.380185 
L 330.741742 85.612363 
L 332.942397 85.86656 
L 335.1404 86.14275 
L 337.335531 86.440907 
L 339.527571 86.760999 
L 341.716301 87.102995 
L 343.901501 87.466861 
L 346.082953 87.852561 
L 348.260439 88.260055 
L 350.433742 88.689304 
L 352.602644 89.140264 
L 354.766927 89.61289 
L 356.926376 90.107134 
L 359.080775 90.622948 
L 361.229908 91.16028 
L 363.37356 91.719077 
L 365.511518 92.299281 
L 367.643566 92.900835 
L 369.769493 93.52368 
L 371.889084 94.167752 
L 374.00213 94.832988 
L 376.108417 95.51932 
L 378.207736 96.226681 
L 380.299876 96.954999 
L 382.384628 97.704202 
L 384.461785 98.474215 
L 386.531138 99.26496 
L 388.592479 100.076359 
L 390.645604 100.908331 
L 392.690307 101.760791 
L 394.726383 102.633656 
L 396.753629 103.526838 
L 398.771841 104.440247 
L 400.780819 105.373792 
L 402.780361 106.32738 
L 404.770268 107.300915 
L 406.750339 108.294301 
L 408.720378 109.307437 
L 410.680188 110.340222 
L 412.629571 111.392554 
L 414.568334 112.464326 
L 416.496283 113.555433 
L 418.413224 114.665764 
L 420.318966 115.795208 
L 422.213319 116.943653 
L 424.096093 118.110984 
L 425.9671 119.297084 
L 427.826152 120.501834 
L 429.673064 121.725115 
L 431.507651 122.966803 
L 433.329729 124.226774 
L 435.139117 125.504903 
L 436.935634 126.801062 
L 438.719099 128.11512 
L 440.489334 129.446948 
L 442.246164 130.796411 
L 443.98941 132.163374 
L 445.718901 133.547701 
L 447.434462 134.949254 
L 449.135921 136.367892 
L 450.82311 137.803473 
L 452.495858 139.255854 
L 454.154 140.724889 
L 455.797368 142.210433 
L 457.425799 143.712335 
L 459.03913 145.230447 
L 460.637199 146.764615 
L 462.219847 148.314687 
L 463.786915 149.880508 
L 465.338248 151.461921 
L 466.873688 153.058768 
L 468.393084 154.67089 
L 469.896282 156.298124 
L 471.383134 157.940309 
L 472.85349 159.59728 
L 474.307202 161.268872 
L 475.744126 162.954916 
L 477.164119 164.655246 
L 478.567037 166.36969 
L 479.952741 168.098077 
L 481.321092 169.840235 
L 482.671954 171.595989 
L 484.00519 173.365164 
L 485.320669 175.147582 
L 486.618258 176.943066 
L 487.897827 178.751435 
L 489.159249 180.57251 
L 490.402398 182.406107 
L 491.627148 184.252045 
L 492.833379 186.110137 
L 494.020968 187.980198 
L 495.189798 189.862042 
L 496.339751 191.755479 
L 497.470713 193.660322 
L 498.58257 195.576378 
L 499.675211 197.503457 
L 500.748527 199.441366 
L 501.802411 201.389911 
L 502.836757 203.348897 
L 503.851461 205.318129 
L 504.846423 207.297409 
L 505.821543 209.28654 
L 506.776723 211.285322 
L 507.711867 213.293555 
L 508.626883 215.31104 
L 509.521679 217.337574 
L 510.396165 219.372954 
L 511.250254 221.416977 
L 512.08386 223.469439 
L 512.8969 225.530134 
L 513.689293 227.598856 
L 514.460959 229.675399 
L 515.211822 231.759554 
L 515.941806 233.851114 
L 516.650838 235.949869 
L 517.338848 238.055609 
L 518.005766 240.168124 
L 518.651526 242.287202 
L 519.276063 244.412632 
L 519.879316 246.5442 
L 520.461222 248.681695 
L 521.021725 250.824902 
L 521.560768 252.973606 
L 522.078298 255.127594 
L 522.574262 257.286648 
L 523.048611 259.450555 
L 523.501298 261.619097 
L 523.932277 263.792057 
L 524.341506 265.969218 
L 524.728942 268.150362 
L 525.094548 270.335272 
L 525.438288 272.523729 
L 525.760125 274.715513 
L 526.060029 276.910406 
L 526.33797 279.108189 
L 526.593919 281.30864 
L 526.827852 283.511542 
L 527.039744 285.716672 
L 527.229574 287.923811 
L 527.397324 290.132738 
L 527.542977 292.343232 
L 527.666517 294.555072 
L 527.767934 296.768037 
L 527.847216 298.981905 
L 527.904356 301.196456 
L 527.939348 303.411467 
L 527.952188 305.626717 
L 527.942876 307.841985 
L 527.911412 310.057049 
L 527.857799 312.271688 
L 527.782043 314.485679 
L 527.684151 316.698803 
L 527.564133 318.910837 
L 527.422001 321.12156 
L 527.257769 323.330751 
L 527.071455 325.53819 
L 526.863075 327.743655 
L 526.632651 329.946926 
L 526.380207 332.147783 
L 526.105767 334.346005 
L 525.809359 336.541373 
L 525.491012 338.733667 
L 525.150759 340.922668 
L 524.788633 343.108158 
L 524.404671 345.289916 
L 523.998911 347.467727 
L 523.571393 349.64137 
L 523.12216 351.81063 
L 522.651258 353.975289 
L 522.158733 356.135132 
L 521.644635 358.28994 
L 521.109014 360.439501 
L 520.551925 362.583597 
L 519.973424 364.722016 
L 519.373567 366.854543 
L 518.752416 368.980965 
L 518.110032 371.101068 
L 517.446479 373.214643 
L 516.761824 375.321476 
L 516.056135 377.421357 
L 515.329483 379.514077 
L 514.581941 381.599425 
L 513.813582 383.677195 
L 513.024485 385.747176 
L 512.214728 387.809164 
L 511.384392 389.86295 
L 510.53356 391.908331 
L 509.662316 393.945102 
L 508.770749 395.973058 
L 507.858948 397.991997 
L 506.927003 400.001718 
L 505.975007 402.002019 
L 505.003057 403.9927 
L 504.011249 405.973562 
L 502.999682 407.944407 
L 501.968457 409.905038 
L 500.917678 411.855259 
L 499.84745 413.794875 
L 498.757879 415.723692 
L 497.649075 417.641517 
L 496.521149 419.548158 
L 495.374212 421.443425 
L 494.208381 423.327127 
L 493.023772 425.199078 
L 491.820502 427.059089 
L 490.598693 428.906974 
L 489.358466 430.742549 
L 488.099946 432.565631 
L 486.823258 434.376036 
L 485.528531 436.173584 
L 484.215893 437.958095 
L 482.885475 439.729391 
L 481.537412 441.487294 
L 480.171837 443.231629 
L 478.788888 444.962221 
L 477.388702 446.678897 
L 475.971419 448.381486 
L 474.537182 450.069817 
L 473.086134 451.743722 
L 471.618419 453.403032 
L 470.134185 455.047583 
L 468.63358 456.67721 
L 467.116753 458.291749 
L 465.583858 459.891039 
L 464.035046 461.474921 
L 462.470474 463.043236 
L 460.890297 464.595827 
L 459.294673 466.132539 
L 457.683762 467.653218 
L 456.057725 469.157712 
L 454.416725 470.64587 
L 452.760925 472.117545 
L 451.090492 473.572588 
L 449.405592 475.010855 
L 447.706394 476.432201 
L 445.993067 477.836484 
L 444.265784 479.223564 
L 442.524716 480.593302 
L 440.770039 481.945561 
L 439.001926 483.280206 
L 437.220556 484.597103 
L 435.426106 485.896122 
L 433.618756 487.177131 
L 431.798687 488.440002 
L 429.96608 489.684611 
L 428.121118 490.910831 
L 426.263987 492.118541 
L 424.394872 493.307619 
L 422.51396 494.477947 
L 420.621439 495.629408 
L 418.717498 496.761886 
L 416.802327 497.875268 
L 414.876119 498.969444 
L 412.939065 500.044303 
L 410.99136 501.099738 
L 409.033198 502.135643 
L 407.064775 503.151916 
L 405.086288 504.148453 
L 403.097935 505.125157 
L 401.099914 506.081928 
L 399.092426 507.018672 
L 397.07567 507.935294 
L 395.04985 508.831703 
L 393.015166 509.707809 
L 390.971824 510.563526 
L 388.920027 511.398766 
L 386.85998 512.213447 
L 384.791889 513.007487 
L 382.715961 513.780807 
L 380.632405 514.533329 
L 378.541427 515.264978 
L 376.443238 515.975682 
L 374.338046 516.665368 
L 372.226063 517.333968 
L 370.1075 517.981415 
L 367.982568 518.607645 
L 365.85148 519.212594 
L 363.71445 519.796203 
L 361.57169 520.358412 
L 359.423416 520.899167 
L 357.269841 521.418411 
L 355.111182 521.916095 
L 352.947654 522.392167 
L 350.779473 522.84658 
L 348.606857 523.27929 
L 346.430022 523.690252 
L 344.249187 524.079425 
L 342.064569 524.446771 
L 339.876387 524.792253 
L 337.68486 525.115836 
L 335.490206 525.417488 
L 333.292646 525.697178 
L 332.140616 525.83489 
L 332.400394 528.057433 
L 333.56406 527.91833 
L 335.783818 527.635814 
L 338.00064 527.331116 
L 340.214304 527.004264 
L 342.424589 526.655293 
L 344.631274 526.284236 
L 346.834138 525.891132 
L 349.032961 525.476019 
L 351.227522 525.038938 
L 353.417604 524.579935 
L 355.602986 524.099054 
L 357.78345 523.596343 
L 359.958777 523.071854 
L 362.128752 522.525637 
L 364.293155 521.957749 
L 366.451772 521.368246 
L 368.604386 520.757186 
L 370.750782 520.12463 
L 372.890745 519.470643 
L 375.024061 518.795289 
L 377.150517 518.098637 
L 379.2699 517.380754 
L 381.381999 516.641715 
L 383.486602 515.881591 
L 385.583498 515.10046 
L 387.672478 514.2984 
L 389.753334 513.47549 
L 391.825857 512.631812 
L 393.889839 511.767453 
L 395.945074 510.882497 
L 397.991358 509.977033 
L 400.028484 509.051152 
L 402.056251 508.104946 
L 404.074453 507.138511 
L 406.082891 506.151942 
L 408.081363 505.145338 
L 410.069669 504.1188 
L 412.04761 503.072431 
L 414.014989 502.006335 
L 415.971609 500.920619 
L 417.917274 499.815391 
L 419.85179 498.690762 
L 421.774962 497.546845 
L 423.6866 496.383753 
L 425.586511 495.201604 
L 427.474506 494.000515 
L 429.350396 492.780606 
L 431.213994 491.541999 
L 433.065112 490.284819 
L 434.903566 489.009191 
L 436.729172 487.715243 
L 438.541748 486.403103 
L 440.341111 485.072904 
L 442.127084 483.724777 
L 443.899485 482.358859 
L 445.658139 480.975285 
L 447.40287 479.574194 
L 449.133503 478.155727 
L 450.849865 476.720024 
L 452.551784 475.267229 
L 454.23909 473.797489 
L 455.911615 472.310949 
L 457.569191 470.807758 
L 459.211653 469.288067 
L 460.838835 467.752028 
L 462.450577 466.199794 
L 464.046715 464.63152 
L 465.627091 463.047364 
L 467.191547 461.447483 
L 468.739927 459.832038 
L 470.272074 458.20119 
L 471.787837 456.555103 
L 473.287064 454.893941 
L 474.769604 453.217869 
L 476.235309 451.527056 
L 477.684034 449.821671 
L 479.115632 448.101885 
L 480.529962 446.367868 
L 481.92688 444.619795 
L 483.306249 442.857841 
L 484.667929 441.082181 
L 486.011785 439.292994 
L 487.337682 437.490457 
L 488.645487 435.674752 
L 489.935071 433.84606 
L 491.206303 432.004564 
L 492.459057 430.150447 
L 493.693208 428.283896 
L 494.908632 426.405097 
L 496.105207 424.514238 
L 497.282815 422.611508 
L 498.441336 420.697098 
L 499.580656 418.771197 
L 500.70066 416.834001 
L 501.801236 414.885701 
L 502.882275 412.926493 
L 503.943668 410.956573 
L 504.985309 408.976137 
L 506.007094 406.985384 
L 507.00892 404.984514 
L 507.990688 402.973725 
L 508.9523 400.953219 
L 509.893659 398.923198 
L 510.81467 396.883865 
L 511.715243 394.835425 
L 512.595286 392.778081 
L 513.454713 390.712039 
L 514.293436 388.637507 
L 515.111373 386.554692 
L 515.908441 384.463801 
L 516.68456 382.365045 
L 517.439654 380.258632 
L 518.173646 378.144774 
L 518.886462 376.023681 
L 519.578033 373.895567 
L 520.248289 371.760644 
L 520.897162 369.619124 
L 521.524587 367.471224 
L 522.130503 365.317156 
L 522.714848 363.157137 
L 523.277564 360.991383 
L 523.818595 358.82011 
L 524.337886 356.643536 
L 524.835386 354.461877 
L 525.311045 352.275353 
L 525.764815 350.084181 
L 526.196651 347.888581 
L 526.60651 345.688773 
L 526.994351 343.484976 
L 527.360134 341.277411 
L 527.703825 339.066299 
L 528.025387 336.85186 
L 528.324789 334.634317 
L 528.602001 332.41389 
L 528.856995 330.190803 
L 529.089746 327.965276 
L 529.300231 325.737534 
L 529.488428 323.507798 
L 529.654318 321.276292 
L 529.797886 319.043238 
L 529.919116 316.80886 
L 530.017997 314.573382 
L 530.094518 312.337026 
L 530.148673 310.100018 
L 530.180455 307.862579 
L 530.189861 305.624935 
L 530.176891 303.387309 
L 530.141546 301.149924 
L 530.083828 298.913004 
L 530.003745 296.676774 
L 529.901304 294.441456 
L 529.776516 292.207274 
L 529.629392 289.974452 
L 529.459948 287.743212 
L 529.2682 285.513779 
L 529.054167 283.286374 
L 528.817872 281.061221 
L 528.559337 278.838543 
L 528.278589 276.618561 
L 527.975656 274.401497 
L 527.650567 272.187573 
L 527.303356 269.977011 
L 526.934057 267.770031 
L 526.542707 265.566855 
L 526.129345 263.367702 
L 525.694012 261.172793 
L 525.236753 258.982347 
L 524.757612 256.796583 
L 524.256639 254.61572 
L 523.733881 252.439975 
L 523.189393 250.269566 
L 522.623229 248.104711 
L 522.035444 245.945625 
L 521.426099 243.792526 
L 520.795253 241.645627 
L 520.14297 239.505144 
L 519.469315 237.371291 
L 518.774356 235.24428 
L 518.058162 233.124326 
L 517.320804 231.01164 
L 516.562357 228.906432 
L 515.782896 226.808914 
L 514.982499 224.719296 
L 514.161246 222.637786 
L 513.31922 220.564592 
L 512.456504 218.499922 
L 511.573185 216.443982 
L 510.669351 214.396979 
L 509.745092 212.359115 
L 508.800502 210.330596 
L 507.835674 208.311625 
L 506.850704 206.302402 
L 505.845692 204.303129 
L 504.820738 202.314006 
L 503.775944 200.335232 
L 502.711415 198.367005 
L 501.627258 196.409521 
L 500.52358 194.462977 
L 499.400492 192.527566 
L 498.258106 190.603483 
L 497.096537 188.69092 
L 495.915901 186.790068 
L 494.716316 184.901117 
L 493.497901 183.024256 
L 492.260779 181.159673 
L 491.005074 179.307554 
L 489.73091 177.468085 
L 488.438416 175.641449 
L 487.12772 173.827829 
L 485.798954 172.027407 
L 484.45225 170.240362 
L 483.087744 168.466873 
L 481.705571 166.707117 
L 480.30587 164.961272 
L 478.888781 163.22951 
L 477.454445 161.512005 
L 476.003006 159.80893 
L 474.53461 158.120453 
L 473.049402 156.446745 
L 471.547532 154.787973 
L 470.029149 153.144302 
L 468.494406 151.515896 
L 466.943456 149.902919 
L 465.376454 148.305532 
L 463.793557 146.723895 
L 462.194922 145.158165 
L 460.580711 143.6085 
L 458.951084 142.075054 
L 457.306204 140.557981 
L 455.646236 139.057433 
L 453.971346 137.573558 
L 452.281701 136.106507 
L 450.57747 134.656425 
L 448.858824 133.223457 
L 447.125934 131.807747 
L 445.378974 130.409437 
L 443.618119 129.028666 
L 441.843544 127.665572 
L 440.055427 126.320292 
L 438.253947 124.99296 
L 436.439284 123.683709 
L 434.611619 122.39267 
L 432.771136 121.119971 
L 430.918018 119.865741 
L 429.05245 118.630104 
L 427.17462 117.413185 
L 425.284714 116.215104 
L 423.382923 115.035982 
L 421.469435 113.875936 
L 419.544443 112.735083 
L 417.608138 111.613537 
L 415.660716 110.511409 
L 413.702369 109.428811 
L 411.733295 108.365849 
L 409.753689 107.322632 
L 407.763751 106.299262 
L 405.763679 105.295842 
L 403.753672 104.312473 
L 401.733933 103.349253 
L 399.704662 102.406278 
L 397.666064 101.483643 
L 395.618341 100.581439 
L 393.561698 99.699758 
L 391.496342 98.838686 
L 389.422478 97.998311 
L 387.340315 97.178716 
L 385.25006 96.379983 
L 383.151922 95.602193 
L 381.046111 94.845422 
L 378.932838 94.109747 
L 376.812314 93.395242 
L 374.684751 92.701976 
L 372.550362 92.030021 
L 370.40936 91.379443 
L 368.26196 90.750307 
L 366.108376 90.142676 
L 363.948823 89.556611 
L 361.783517 88.992171 
L 359.612676 88.449411 
L 357.436515 87.928387 
L 355.255254 87.42915 
L 353.069109 86.95175 
L 350.878299 86.496235 
L 348.683044 86.062651 
L 346.483563 85.65104 
L 344.280076 85.261445 
L 342.072803 84.893903 
L 339.861965 84.548452 
L 337.647783 84.225127 
L 335.430479 83.923959 
L 333.210274 83.644979 
L 330.98739 83.388214 
L 328.762049 83.153691 
L 326.534475 82.941432 
L 324.30489 82.75146 
L 322.073516 82.583792 
L 319.840577 82.438447 
L 317.606297 82.315437 
L 315.370898 82.214776 
L 313.134605 82.136474 
L 310.89764 82.080538 
L 308.660227 82.046974 
L 306.422591 82.035786 
L 306.422591 84.27346 
z
" clip-path="url(#p54df9c3535)" style="fill: none; stroke: #000000; stroke-width: 0.5; stroke-linejoin: miter"/>
   </g>
   <g id="patch_11">
    <path d="M 332.140616 525.83489 
L 329.939049 526.081065 
L 327.735131 526.305211 
L 325.529081 526.507308 
L 323.32112 526.687335 
L 321.11147 526.845273 
L 318.900351 526.981108 
L 316.687984 527.094824 
L 314.474591 527.186412 
L 312.260393 527.255862 
L 310.04561 527.303166 
L 307.830466 527.328321 
L 305.61518 527.331323 
L 303.399975 527.312173 
L 301.185073 527.270872 
L 298.970694 527.207424 
L 296.757061 527.121836 
L 294.544394 527.014117 
L 292.332915 526.884276 
L 290.122845 526.732328 
L 287.914404 526.558287 
L 285.707815 526.36217 
L 283.503297 526.143998 
L 281.301071 525.903792 
L 279.101357 525.641576 
L 276.904375 525.357377 
L 274.710345 525.051222 
L 272.519487 524.723142 
L 270.332018 524.373171 
L 268.148159 524.001343 
L 265.968126 523.607695 
L 263.79214 523.192267 
L 261.620416 522.7551 
L 259.453173 522.296238 
L 257.290626 521.815728 
L 255.132993 521.313616 
L 252.980488 520.789953 
L 250.833328 520.244791 
L 248.691726 519.678186 
L 246.555898 519.090193 
L 244.426056 518.480872 
L 242.302414 517.850283 
L 240.185184 517.19849 
L 238.074577 516.525557 
L 235.970805 515.831552 
L 233.874079 515.116545 
L 231.784607 514.380606 
L 229.702599 513.62381 
L 227.628262 512.846232 
L 225.561805 512.04795 
L 223.503435 511.229043 
L 221.453356 510.389594 
L 219.411773 509.529687 
L 217.378892 508.649407 
L 215.354915 507.748843 
L 213.340045 506.828084 
L 211.334483 505.887223 
L 209.33843 504.926353 
L 207.352085 503.945572 
L 205.375647 502.944976 
L 203.409314 501.924667 
L 201.453282 500.884745 
L 199.507747 499.825315 
L 197.572903 498.746484 
L 195.648944 497.648358 
L 193.736062 496.531048 
L 191.834449 495.394665 
L 189.944295 494.239323 
L 188.065788 493.065138 
L 186.199117 491.872226 
L 184.344468 490.660708 
L 182.502027 489.430705 
L 180.671978 488.182338 
L 178.854503 486.915734 
L 177.049786 485.631019 
L 175.258005 484.328321 
L 173.479341 483.007771 
L 171.713972 481.669501 
L 169.962073 480.313644 
L 168.223819 478.940336 
L 166.499386 477.549714 
L 164.788945 476.141918 
L 163.092667 474.717089 
L 161.410722 473.275368 
L 159.743278 471.8169 
L 158.090502 470.34183 
L 156.452559 468.850307 
L 154.829613 467.34248 
L 153.221826 465.818498 
L 151.629359 464.278515 
L 150.052371 462.722685 
L 148.49102 461.151163 
L 146.945462 459.564106 
L 145.415851 457.961674 
L 145.28775 457.826009 
L 143.660126 459.361594 
L 143.789521 459.498629 
L 145.334582 461.117248 
L 146.895751 462.720335 
L 148.472873 464.307731 
L 150.065791 465.879277 
L 151.674343 467.434815 
L 153.29837 468.97419 
L 154.93771 470.497248 
L 156.592198 472.003837 
L 158.261669 473.493806 
L 159.945956 474.967006 
L 161.64489 476.42329 
L 163.358302 477.862512 
L 165.08602 479.284528 
L 166.827872 480.689196 
L 168.583683 482.076376 
L 170.353278 483.445929 
L 172.13648 484.797717 
L 173.933111 486.131606 
L 175.74299 487.447463 
L 177.565937 488.745155 
L 179.401769 490.024553 
L 181.250304 491.285529 
L 183.111356 492.527957 
L 184.984738 493.751712 
L 186.870265 494.956673 
L 188.767746 496.142719 
L 190.676993 497.309731 
L 192.597814 498.457592 
L 194.530018 499.586189 
L 196.473411 500.695407 
L 198.427799 501.785136 
L 200.392986 502.855266 
L 202.368776 503.905692 
L 204.354971 504.936308 
L 206.351373 505.947011 
L 208.357782 506.937699 
L 210.373997 507.908274 
L 212.399818 508.858639 
L 214.43504 509.788698 
L 216.479461 510.698359 
L 218.532876 511.587531 
L 220.595081 512.456124 
L 222.665867 513.304053 
L 224.74503 514.131231 
L 226.83236 514.937577 
L 228.927649 515.723009 
L 231.030688 516.48745 
L 233.141265 517.230822 
L 235.259171 517.953052 
L 237.384193 518.654067 
L 239.516119 519.333797 
L 241.654735 519.992174 
L 243.799828 520.629132 
L 245.951184 521.244608 
L 248.108586 521.83854 
L 250.27182 522.410869 
L 252.440669 522.961537 
L 254.614916 523.490489 
L 256.794344 523.997673 
L 258.978734 524.483038 
L 261.167869 524.946534 
L 263.361529 525.388117 
L 265.559496 525.807741 
L 267.761548 526.205365 
L 269.967467 526.580949 
L 272.177031 526.934456 
L 274.39002 527.265849 
L 276.606212 527.575096 
L 278.825385 527.862167 
L 281.047318 528.127031 
L 283.271789 528.369664 
L 285.498575 528.59004 
L 287.727453 528.788137 
L 289.958201 528.963936 
L 292.190595 529.117419 
L 294.424412 529.248571 
L 296.659429 529.357379 
L 298.895423 529.443831 
L 301.132169 529.50792 
L 303.369444 529.549638 
L 305.607024 529.568982 
L 307.844687 529.565949 
L 310.082206 529.54054 
L 312.31936 529.492758 
L 314.555924 529.422607 
L 316.791675 529.330094 
L 319.026389 529.215229 
L 321.259843 529.078022 
L 323.491813 528.918489 
L 325.722076 528.736643 
L 327.950409 528.532505 
L 330.176589 528.306094 
L 332.400394 528.057433 
L 332.140616 525.83489 
z
" clip-path="url(#p54df9c3535)" style="fill: none; stroke: #000000; stroke-width: 0.5; stroke-linejoin: miter"/>
   </g>
   <g id="patch_12">
    <path d="M 145.28775 457.826009 
L 143.775603 456.207086 
L 142.279721 454.573123 
L 140.800253 452.924284 
L 139.337347 451.260732 
L 137.891149 449.582634 
L 136.461805 447.890159 
L 135.049456 446.183475 
L 133.654245 444.462754 
L 132.27631 442.728166 
L 130.91579 440.979886 
L 129.57282 439.218088 
L 128.247535 437.44295 
L 126.940067 435.654647 
L 125.650548 433.853359 
L 124.379105 432.039266 
L 123.125867 430.21255 
L 121.890958 428.373393 
L 120.674503 426.521979 
L 119.476621 424.658493 
L 118.297435 422.783122 
L 117.137061 420.896052 
L 115.995615 418.997474 
L 114.873211 417.087576 
L 113.769963 415.16655 
L 112.685979 413.234588 
L 111.621369 411.291883 
L 110.576239 409.338629 
L 109.550694 407.375021 
L 108.544835 405.401256 
L 107.558765 403.417532 
L 106.59258 401.424046 
L 105.646378 399.420998 
L 104.720254 397.408589 
L 103.814299 395.387019 
L 102.928606 393.35649 
L 102.063261 391.317207 
L 101.218353 389.269372 
L 100.393964 387.21319 
L 99.590178 385.148868 
L 98.807076 383.076611 
L 98.044735 380.996627 
L 97.303231 378.909123 
L 96.582639 376.814309 
L 95.883031 374.712394 
L 95.204477 372.603588 
L 94.547044 370.488102 
L 93.910799 368.366148 
L 93.295804 366.237937 
L 92.702123 364.103683 
L 92.129813 361.963599 
L 91.578932 359.817899 
L 91.049535 357.666798 
L 90.541676 355.51051 
L 90.055404 353.349251 
L 89.590769 351.183238 
L 89.147817 349.012687 
L 88.726592 346.837815 
L 88.327137 344.65884 
L 87.949491 342.475979 
L 87.593692 340.289451 
L 87.259776 338.099474 
L 86.947776 335.906267 
L 86.657723 333.710051 
L 86.389647 331.511043 
L 86.143573 329.309465 
L 85.919528 327.105536 
L 85.717532 324.899477 
L 85.537607 322.691509 
L 85.37977 320.481851 
L 85.267717 318.683932 
L 83.033829 318.814041 
L 83.147015 320.630121 
L 83.306446 322.862098 
L 83.488188 325.09237 
L 83.692224 327.320712 
L 83.918533 329.546903 
L 84.167092 331.770719 
L 84.437876 333.991939 
L 84.730859 336.210339 
L 85.04601 338.425699 
L 85.383299 340.637797 
L 85.742692 342.846412 
L 86.124153 345.051322 
L 86.527643 347.252307 
L 86.953122 349.449147 
L 87.400549 351.641623 
L 87.869877 353.829515 
L 88.36106 356.012605 
L 88.87405 358.190673 
L 89.408794 360.363503 
L 89.965239 362.530877 
L 90.54333 364.692578 
L 91.143009 366.84839 
L 91.764215 368.998098 
L 92.406887 371.141486 
L 93.07096 373.27834 
L 93.756369 375.408447 
L 94.463043 377.531594 
L 95.190914 379.647568 
L 95.939908 381.756157 
L 96.709949 383.857151 
L 97.500962 385.95034 
L 98.312867 388.035514 
L 99.145582 390.112465 
L 99.999026 392.180985 
L 100.873111 394.240868 
L 101.767751 396.291906 
L 102.682856 398.333896 
L 103.618335 400.366633 
L 104.574095 402.389914 
L 105.550039 404.403536 
L 106.54607 406.407298 
L 107.562089 408.401 
L 108.597993 410.384442 
L 109.65368 412.357426 
L 110.729044 414.319754 
L 111.823977 416.271231 
L 112.938369 418.211662 
L 114.07211 420.140851 
L 115.225086 422.058607 
L 116.397181 423.964738 
L 117.588278 425.859052 
L 118.798259 427.741361 
L 120.027002 429.611476 
L 121.274385 431.469211 
L 122.540282 433.314379 
L 123.824567 435.146796 
L 125.127112 436.966278 
L 126.447787 438.772645 
L 127.786458 440.565714 
L 129.142994 442.345308 
L 130.517257 444.111247 
L 131.90911 445.863356 
L 133.318414 447.601459 
L 134.745029 449.325382 
L 136.188812 451.034953 
L 137.649617 452.730001 
L 139.1273 454.410356 
L 140.621712 456.075851 
L 142.132705 457.726318 
L 143.660126 459.361594 
L 145.28775 457.826009 
z
" clip-path="url(#p54df9c3535)" style="fill: none; stroke: #000000; stroke-width: 0.5; stroke-linejoin: miter"/>
   </g>
   <g id="patch_13">
    <path d="M 85.267717 318.683932 
L 85.149969 316.471776 
L 85.054347 314.258553 
L 84.980863 312.044485 
L 84.929522 309.829792 
L 84.900331 307.614697 
L 84.893292 305.399421 
L 84.908405 303.184185 
L 84.94567 300.969211 
L 85.005082 298.75472 
L 85.086635 296.540935 
L 85.190322 294.328075 
L 85.267717 292.922322 
L 83.033829 292.792213 
L 82.955653 294.212165 
L 82.850919 296.447377 
L 82.768541 298.683524 
L 82.708529 300.920384 
L 82.670888 303.157731 
L 82.655622 305.395343 
L 82.662732 307.632996 
L 82.692219 309.870466 
L 82.744078 312.107529 
L 82.818305 314.343961 
L 82.914892 316.57954 
L 83.033829 318.814041 
L 85.267717 318.683932 
z
" clip-path="url(#p54df9c3535)" style="fill: none; stroke: #000000; stroke-width: 0.5; stroke-linejoin: miter"/>
   </g>
   <g id="patch_14">
    <path d="M 85.267717 292.922322 
L 85.40758 290.711455 
L 85.569545 288.502096 
L 85.753595 286.294467 
L 85.959712 284.08879 
L 86.187875 281.885283 
L 86.438061 279.684169 
L 86.710245 277.485666 
L 87.004401 275.289995 
L 87.320498 273.097375 
L 87.658505 270.908026 
L 88.018388 268.722166 
L 88.258457 267.334904 
L 86.054779 266.946336 
L 85.812285 268.347611 
L 85.448767 270.55555 
L 85.107345 272.767014 
L 84.788055 274.981781 
L 84.490929 277.199631 
L 84.215995 279.420341 
L 83.963282 281.643689 
L 83.732814 283.869453 
L 83.524615 286.09741 
L 83.338706 288.327338 
L 83.175106 290.559013 
L 83.033829 292.792213 
L 85.267717 292.922322 
z
" clip-path="url(#p54df9c3535)" style="fill: none; stroke: #000000; stroke-width: 0.5; stroke-linejoin: miter"/>
   </g>
   <g id="patch_15">
    <path d="M 88.258457 267.334904 
L 88.654041 265.155222 
L 89.071402 262.979606 
L 89.510497 260.808271 
L 89.971284 258.641436 
L 90.453715 256.479317 
L 90.957744 254.32213 
L 91.483318 252.170092 
L 92.030386 250.023417 
L 92.598894 247.882319 
L 93.188783 245.747014 
L 93.799996 243.617714 
L 94.199493 242.267702 
L 92.055825 241.62593 
L 91.652293 242.989579 
L 91.034906 245.140387 
L 90.439058 247.297261 
L 89.864809 249.459985 
L 89.312214 251.628344 
L 88.781331 253.80212 
L 88.272212 255.981097 
L 87.784907 258.165055 
L 87.319466 260.353778 
L 86.875935 262.547045 
L 86.454359 264.744637 
L 86.054779 266.946336 
L 88.258457 267.334904 
z
" clip-path="url(#p54df9c3535)" style="fill: none; stroke: #000000; stroke-width: 0.5; stroke-linejoin: miter"/>
   </g>
   <g id="patch_16">
    <path d="M 94.199493 242.267702 
L 94.845448 240.148683 
L 95.51256 238.03623 
L 96.200763 235.930553 
L 96.909988 233.831863 
L 97.640164 231.740371 
L 98.391219 229.656284 
L 99.163076 227.579813 
L 99.955659 225.511163 
L 100.768888 223.450543 
L 101.602683 221.398158 
L 102.45696 219.354213 
L 103.331633 217.318913 
L 104.226614 215.292462 
L 105.141816 213.275061 
L 106.077145 211.266913 
L 107.032509 209.268219 
L 108.007811 207.279178 
L 109.002955 205.299989 
L 110.01784 203.330851 
L 111.052366 201.37196 
L 112.106429 199.423512 
L 113.179923 197.485701 
L 114.272741 195.558723 
L 115.384774 193.642768 
L 116.515911 191.73803 
L 117.666038 189.844698 
L 118.835041 187.962962 
L 120.022802 186.09301 
L 121.229203 184.235028 
L 122.454124 182.389204 
L 123.697441 180.55572 
L 124.95903 178.734761 
L 126.238766 176.926509 
L 127.536519 175.131145 
L 128.728507 173.514783 
L 126.933617 172.178537 
L 125.729589 173.811226 
L 124.418727 175.624725 
L 123.126065 177.451243 
L 121.851732 179.290595 
L 120.595856 181.142598 
L 119.358563 183.007068 
L 118.139976 184.883816 
L 116.940217 186.772657 
L 115.759406 188.673401 
L 114.597662 190.585857 
L 113.455099 192.509835 
L 112.331834 194.445143 
L 111.227977 196.391586 
L 110.143639 198.34897 
L 109.078929 200.3171 
L 108.033954 202.295778 
L 107.008817 204.284806 
L 106.003621 206.283987 
L 105.018467 208.293119 
L 104.053454 210.312002 
L 103.108677 212.340434 
L 102.184231 214.378212 
L 101.280209 216.425133 
L 100.396701 218.480992 
L 99.533795 220.545582 
L 98.691578 222.618699 
L 97.870134 224.700133 
L 97.069545 226.789678 
L 96.289892 228.887124 
L 95.531251 230.992262 
L 94.793699 233.104881 
L 94.07731 235.224769 
L 93.382156 237.351716 
L 92.708305 239.485507 
L 92.055825 241.62593 
L 94.199493 242.267702 
z
" clip-path="url(#p54df9c3535)" style="fill: none; stroke: #000000; stroke-width: 0.5; stroke-linejoin: miter"/>
   </g>
   <g id="patch_17">
    <path d="M 128.728507 173.514783 
L 130.060253 171.744486 
L 131.409635 169.987595 
L 132.776518 168.244285 
L 134.160766 166.514731 
L 135.56224 164.799106 
L 136.9808 163.097581 
L 138.416303 161.410327 
L 139.868607 159.737511 
L 141.337567 158.079303 
L 142.823035 156.435866 
L 144.324862 154.807366 
L 145.8429 153.193965 
L 147.376995 151.595826 
L 148.926994 150.013106 
L 150.492743 148.445966 
L 152.074085 146.894561 
L 153.670862 145.359048 
L 155.282913 143.839578 
L 156.910079 142.336304 
L 158.552195 140.849377 
L 160.209099 139.378946 
L 161.880623 137.925156 
L 163.566602 136.488155 
L 165.266866 135.068084 
L 166.981246 133.665087 
L 168.70957 132.279304 
L 170.451665 130.910873 
L 172.207356 129.55993 
L 173.97647 128.226613 
L 175.758828 126.911052 
L 177.554252 125.613381 
L 179.362562 124.333728 
L 181.183579 123.072223 
L 183.01712 121.82899 
L 184.863 120.604154 
L 186.721037 119.397839 
L 188.591044 118.210163 
L 190.472834 117.041247 
L 192.366219 115.891207 
L 194.271009 114.760157 
L 196.187015 113.648212 
L 198.114043 112.555483 
L 200.051903 111.482078 
L 202.0004 110.428104 
L 203.959338 109.393669 
L 205.928523 108.378873 
L 207.907758 107.383821 
L 209.896843 106.40861 
L 211.895581 105.453338 
L 213.903772 104.518101 
L 215.921215 103.602992 
L 217.947708 102.708104 
L 219.983048 101.833524 
L 222.027032 100.979342 
L 224.079455 100.145641 
L 226.140113 99.332506 
L 228.208799 98.540018 
L 230.285306 97.768256 
L 232.369427 97.017298 
L 234.460953 96.287218 
L 236.559675 95.578089 
L 238.665384 94.889983 
L 240.777868 94.222968 
L 242.896916 93.57711 
L 245.022317 92.952475 
L 247.153858 92.349125 
L 249.291326 91.76712 
L 251.434507 91.206519 
L 253.583187 90.667377 
L 255.73715 90.149749 
L 257.896182 89.653685 
L 260.060067 89.179237 
L 262.228588 88.72645 
L 264.401528 88.295371 
L 266.578671 87.886043 
L 268.759797 87.498506 
L 270.94469 87.1328 
L 273.133131 86.78896 
L 275.324901 86.467021 
L 277.51978 86.167016 
L 279.71755 85.888975 
L 281.91799 85.632924 
L 284.12088 85.398891 
L 286.326001 85.186898 
L 288.533131 84.996966 
L 290.742051 84.829114 
L 292.952538 84.68336 
L 295.164372 84.559718 
L 297.377332 84.4582 
L 299.591197 84.378816 
L 301.805745 84.321574 
L 304.020754 84.28648 
L 306.236004 84.273538 
L 306.422591 84.27346 
L 306.422591 82.035786 
L 306.234119 82.035866 
L 303.996493 82.048938 
L 301.75911 82.084387 
L 299.522193 82.142207 
L 297.285966 82.222392 
L 295.050653 82.324936 
L 292.816477 82.449827 
L 290.583661 82.597054 
L 288.35243 82.766601 
L 286.123005 82.958451 
L 283.895611 83.172586 
L 281.670469 83.408983 
L 279.447802 83.66762 
L 277.227832 83.94847 
L 275.010783 84.251505 
L 272.796874 84.576696 
L 270.586328 84.924008 
L 268.379365 85.293409 
L 266.176207 85.68486 
L 263.977073 86.098323 
L 261.782184 86.533756 
L 259.591759 86.991116 
L 257.406017 87.470357 
L 255.225176 87.971432 
L 253.049455 88.494289 
L 250.879072 89.038876 
L 248.714243 89.605141 
L 246.555184 90.193024 
L 244.402112 90.802469 
L 242.255243 91.433413 
L 240.11479 92.085794 
L 237.980967 92.759547 
L 235.853989 93.454604 
L 233.734068 94.170896 
L 231.621415 94.90835 
L 229.516242 95.666894 
L 227.41876 96.446452 
L 225.329179 97.246944 
L 223.247706 98.068293 
L 221.174551 98.910414 
L 219.109921 99.773225 
L 217.054022 100.656639 
L 215.00706 101.560567 
L 212.969239 102.484919 
L 210.940763 103.429603 
L 208.921836 104.394524 
L 206.912658 105.379585 
L 204.913432 106.384689 
L 202.924356 107.409735 
L 200.94563 108.454619 
L 198.977452 109.519239 
L 197.020018 110.603486 
L 195.073524 111.707254 
L 193.138165 112.830431 
L 191.214134 113.972904 
L 189.301624 115.134561 
L 187.400826 116.315285 
L 185.511931 117.514957 
L 183.635126 118.733458 
L 181.7706 119.970665 
L 179.918539 121.226456 
L 178.079128 122.500704 
L 176.252551 123.793282 
L 174.438992 125.104062 
L 172.63863 126.43291 
L 170.851647 127.779696 
L 169.078221 129.144284 
L 167.318529 130.526538 
L 165.572747 131.926319 
L 163.841051 133.343488 
L 162.123612 134.777902 
L 160.420603 136.229419 
L 158.732195 137.697893 
L 157.058555 139.183178 
L 155.399851 140.685124 
L 153.75625 142.203582 
L 152.127915 143.7384 
L 150.515009 145.289424 
L 148.917694 146.8565 
L 147.33613 148.43947 
L 145.770474 150.038176 
L 144.220882 151.652459 
L 142.687512 153.282156 
L 141.170514 154.927106 
L 139.670041 156.587143 
L 138.186244 158.262101 
L 136.71927 159.951814 
L 135.269266 161.656111 
L 133.836378 163.374823 
L 132.420748 165.107778 
L 131.022518 166.854802 
L 129.641828 168.615721 
L 128.278815 170.390358 
L 126.933617 172.178537 
L 128.728507 173.514783 
z
" clip-path="url(#p54df9c3535)" style="fill: none; stroke: #000000; stroke-width: 0.5; stroke-linejoin: miter"/>
   </g>
   <g id="text_1">
    <text style="font: 3px 'DejaVu Sans', 'Bitstream Vera Sans', 'Computer Modern Sans Serif', 'Lucida Grande', 'Verdana', 'Geneva', 'Lucid', 'Arial', 'Helvetica', 'Avant Garde', sans-serif; text-anchor: start" x="532.111512" y="293.799941" transform="rotate(-3.333333 532.111512 293.799941)">University of Luxembourg</text>
   </g>
   <g id="text_2">
    <text style="font: 3px 'DejaVu Sans', 'Bitstream Vera Sans', 'Computer Modern Sans Serif', 'Lucida Grande', 'Verdana', 'Geneva', 'Lucid', 'Arial', 'Helvetica', 'Avant Garde', sans-serif; text-anchor: end" x="230.195353" y="518.568194" transform="rotate(-70 230.195353 518.568194)">Luxembourg Institute of Science and Technology</text>
   </g>
   <g id="text_3">
    <text style="font: 3px 'DejaVu Sans', 'Bitstream Vera Sans', 'Computer Modern Sans Serif', 'Lucida Grande', 'Verdana', 'Geneva', 'Lucid', 'Arial', 'Helvetica', 'Avant Garde', sans-serif; text-anchor: end" x="99.352585" y="396.365691" transform="rotate(-23.333333 99.352585 396.365691)">Luxembourg Institute of Health</text>
   </g>
   <g id="text_4">
    <text style="font: 3px 'DejaVu Sans', 'Bitstream Vera Sans', 'Computer Modern Sans Serif', 'Lucida Grande', 'Verdana', 'Geneva', 'Lucid', 'Arial', 'Helvetica', 'Avant Garde', sans-serif; text-anchor: end" x="80.417577" y="306.942893" transform="rotate(-0 80.417577 306.942893)">IEE (Luxembourg)</text>
   </g>
   <g id="text_5">
    <text style="font: 3px 'DejaVu Sans', 'Bitstream Vera Sans', 'Computer Modern Sans Serif', 'Lucida Grande', 'Verdana', 'Geneva', 'Lucid', 'Arial', 'Helvetica', 'Avant Garde', sans-serif; text-anchor: end" x="81.813423" y="280.697605" transform="rotate(-353.333333 81.813423 280.697605)">Ceratizit (Luxembourg)</text>
   </g>
   <g id="text_6">
    <text style="font: 3px 'DejaVu Sans', 'Bitstream Vera Sans', 'Computer Modern Sans Serif', 'Lucida Grande', 'Verdana', 'Geneva', 'Lucid', 'Arial', 'Helvetica', 'Avant Garde', sans-serif; text-anchor: end" x="86.246723" y="254.791827" transform="rotate(-346.666667 86.246723 254.791827)">Centre Hospitalier de Luxembourg</text>
   </g>
   <g id="text_7">
    <text style="font: 3px 'DejaVu Sans', 'Bitstream Vera Sans', 'Computer Modern Sans Serif', 'Lucida Grande', 'Verdana', 'Geneva', 'Lucid', 'Arial', 'Helvetica', 'Avant Garde', sans-serif; text-anchor: end" x="103.945608" y="205.390794" transform="rotate(-333.333333 103.945608 205.390794)">Laboratoire National de Sant</text>
   </g>
   <g id="text_8">
    <text style="font: 3px 'DejaVu Sans', 'Bitstream Vera Sans', 'Computer Modern Sans Serif', 'Lucida Grande', 'Verdana', 'Geneva', 'Lucid', 'Arial', 'Helvetica', 'Avant Garde', sans-serif; text-anchor: end" x="203.973194" y="104.349195" transform="rotate(-296.666667 203.973194 104.349195)">Luxembourg Institute of Socio-Economic Research</text>
   </g>
  </g>
 </g>
 <defs>
  <clipPath id="p54df9c3535">
   <path d="M 541.378299 305.803127 
C 541.378299 274.949026 535.300714 244.394943 523.493361 215.88947 
C 511.686008 187.383998 494.37851 161.481497 472.561366 139.664353 
C 450.744222 117.847209 424.84172 100.539711 396.336248 88.732357 
C 367.830776 76.925004 337.276692 70.847419 306.422591 70.847419 
C 275.56849 70.847419 245.014407 76.925004 216.508934 88.732357 
C 188.003462 100.539711 162.100961 117.847209 140.283817 139.664353 
C 118.466673 161.481497 101.159175 187.383998 89.351822 215.88947 
C 77.544468 244.394943 71.466883 274.949026 71.466883 305.803127 
C 71.466883 336.657228 77.544468 367.211312 89.351822 395.716784 
C 101.159175 424.222256 118.466673 450.124757 140.283817 471.941901 
C 162.100961 493.759045 188.003462 511.066543 216.508934 522.873897 
C 245.014407 534.68125 275.56849 540.758835 306.422591 540.758835 
C 337.276692 540.758835 367.830776 534.68125 396.336248 522.873897 
C 424.84172 511.066543 450.744222 493.759045 472.561366 471.941901 
C 494.37851 450.124757 511.686008 424.222256 523.493361 395.716784 
C 535.300714 367.211312 541.378299 336.657228 541.378299 305.803127 
M 306.422591 305.803127 
C 306.422591 305.803127 306.422591 305.803127 306.422591 305.803127 
C 306.422591 305.803127 306.422591 305.803127 306.422591 305.803127 
C 306.422591 305.803127 306.422591 305.803127 306.422591 305.803127 
C 306.422591 305.803127 306.422591 305.803127 306.422591 305.803127 
C 306.422591 305.803127 306.422591 305.803127 306.422591 305.803127 
C 306.422591 305.803127 306.422591 305.803127 306.422591 305.803127 
C 306.422591 305.803127 306.422591 305.803127 306.422591 305.803127 
C 306.422591 305.803127 306.422591 305.803127 306.422591 305.803127 
C 306.422591 305.803127 306.422591 305.803127 306.422591 305.803127 
C 306.422591 305.803127 306.422591 305.803127 306.422591 305.803127 
C 306.422591 305.803127 306.422591 305.803127 306.422591 305.803127 
C 306.422591 305.803127 306.422591 305.803127 306.422591 305.803127 
C 306.422591 305.803127 306.422591 305.803127 306.422591 305.803127 
C 306.422591 305.803127 306.422591 305.803127 306.422591 305.803127 
C 306.422591 305.803127 306.422591 305.803127 306.422591 305.803127 
C 306.422591 305.803127 306.422591 305.803127 306.422591 305.803127 
z
"/>
  </clipPath>
 </defs>
</svg>
