<?xml version="1.0" encoding="utf-8" standalone="no"?>
<!DOCTYPE svg PUBLIC "-//W3C//DTD SVG 1.1//EN"
  "http://www.w3.org/Graphics/SVG/1.1/DTD/svg11.dtd">
<svg xmlns:xlink="http://www.w3.org/1999/xlink" width="627.281129pt" height="567.990375pt" viewBox="0 0 627.281129 567.990375" xmlns="http://www.w3.org/2000/svg" version="1.1">
 <metadata>
  <rdf:RDF xmlns:dc="http://purl.org/dc/elements/1.1/" xmlns:cc="http://creativecommons.org/ns#" xmlns:rdf="http://www.w3.org/1999/02/22-rdf-syntax-ns#">
   <cc:Work>
    <dc:type rdf:resource="http://purl.org/dc/dcmitype/StillImage"/>
    <dc:date>2024-11-16T03:15:12.666777</dc:date>
    <dc:format>image/svg+xml</dc:format>
    <dc:creator>
     <cc:Agent>
      <dc:title>Matplotlib v3.8.4, https://matplotlib.org/</dc:title>
     </cc:Agent>
    </dc:creator>
   </cc:Work>
  </rdf:RDF>
 </metadata>
 <defs>
  <style type="text/css">*{stroke-linejoin: round; stroke-linecap: butt}</style>
 </defs>
 <g id="figure_1">
  <g id="patch_1">
   <path d="M 0 567.990375 
L 627.281129 567.990375 
L 627.281129 0 
L 0 0 
z
" style="fill: #ffffff"/>
  </g>
  <g id="axes_1">
   <g id="patch_2">
    <path d="M 320.084002 50.171154 
L 322.422203 50.182845 
L 324.760171 50.217917 
L 327.097671 50.276366 
L 329.434469 50.358188 
L 331.770333 50.463373 
L 334.105028 50.591911 
L 336.43832 50.743789 
L 338.769978 50.918992 
L 341.099767 51.117502 
L 343.427454 51.3393 
L 345.752807 51.584363 
L 348.075593 51.852667 
L 350.39558 52.144186 
L 352.712536 52.458889 
L 355.026229 52.796745 
L 357.336428 53.157722 
L 359.642901 53.541782 
L 361.945419 53.948886 
L 364.24375 54.378996 
L 366.537666 54.832067 
L 368.826936 55.308054 
L 371.111333 55.806909 
L 373.390626 56.328583 
L 375.664589 56.873024 
L 377.932994 57.440177 
L 380.195613 58.029984 
L 382.452222 58.642389 
L 384.702594 59.277328 
L 386.946505 59.934739 
L 389.183729 60.614556 
L 391.414043 61.316711 
L 393.637224 62.041133 
L 395.85305 62.78775 
L 398.061299 63.556489 
L 400.26175 64.34727 
L 402.454184 65.160017 
L 404.638381 65.994647 
L 406.814122 66.851076 
L 408.981191 67.72922 
L 411.139369 68.62899 
L 413.288443 69.550297 
L 415.428196 70.493048 
L 417.558414 71.457149 
L 419.678886 72.442504 
L 421.789398 73.449014 
L 423.889739 74.476578 
L 425.9797 75.525094 
L 428.059071 76.594457 
L 430.127645 77.684559 
L 432.185215 78.795293 
L 434.231575 79.926546 
L 436.26652 81.078206 
L 438.289847 82.250158 
L 440.301353 83.442284 
L 442.300838 84.654465 
L 444.288101 85.88658 
L 446.262944 87.138505 
L 448.225169 88.410116 
L 450.17458 89.701286 
L 452.110983 91.011885 
L 454.034182 92.341782 
L 455.943987 93.690844 
L 457.840206 95.058936 
L 459.722649 96.445922 
L 461.591128 97.851662 
L 463.445457 99.276017 
L 465.28545 100.718844 
L 467.110923 102.179998 
L 468.921693 103.659333 
L 470.71758 105.156702 
L 472.498404 106.671954 
L 474.263986 108.204939 
L 476.01415 109.755503 
L 477.748721 111.32349 
L 479.467526 112.908745 
L 481.170393 114.511108 
L 482.857151 116.130419 
L 484.527633 117.766516 
L 486.181669 119.419237 
L 487.819097 121.088414 
L 489.439751 122.773883 
L 491.043469 124.475473 
L 492.630092 126.193015 
L 494.19946 127.926337 
L 495.751417 129.675266 
L 497.285807 131.439627 
L 498.802477 133.219243 
L 500.301276 135.013937 
L 501.782052 136.823528 
L 503.24466 138.647837 
L 504.688951 140.486681 
L 506.114782 142.339875 
L 507.52201 144.207234 
L 508.910494 146.088572 
L 510.280096 147.983701 
L 511.630679 149.892431 
L 512.962107 151.814571 
L 514.274247 153.749929 
L 515.566969 155.698311 
L 516.840142 157.659523 
L 518.09364 159.633368 
L 519.327337 161.61965 
L 520.54111 163.618168 
L 521.734837 165.628725 
L 522.9084 167.651118 
L 524.06168 169.685145 
L 525.194562 171.730603 
L 526.306934 173.787288 
L 527.398684 175.854993 
L 528.469702 177.933513 
L 529.519882 180.022638 
L 530.549118 182.12216 
L 531.557308 184.23187 
L 532.544351 186.351556 
L 533.510148 188.481006 
L 534.454603 190.620008 
L 535.377621 192.768347 
L 536.279109 194.925808 
L 537.158979 197.092177 
L 538.017141 199.267236 
L 538.853509 201.450767 
L 539.668002 203.642553 
L 540.460535 205.842374 
L 541.231032 208.05001 
L 541.979414 210.265241 
L 542.705606 212.487844 
L 543.409537 214.717599 
L 544.091135 216.954281 
L 544.750332 219.197667 
L 545.387064 221.447532 
L 546.001265 223.703653 
L 546.592874 225.965802 
L 547.161833 228.233755 
L 547.708084 230.507283 
L 548.231573 232.78616 
L 548.732248 235.070159 
L 549.210058 237.359049 
L 549.664955 239.652603 
L 550.096894 241.950592 
L 550.505833 244.252785 
L 550.891729 246.558952 
L 551.254545 248.868862 
L 551.594244 251.182285 
L 551.910792 253.49899 
L 552.204158 255.818744 
L 552.474312 258.141316 
L 552.721227 260.466473 
L 552.944878 262.793983 
L 553.145244 265.123613 
L 553.322303 267.45513 
L 553.476039 269.788301 
L 553.606436 272.122893 
L 553.713481 274.458672 
L 553.797164 276.795404 
L 553.857475 279.132857 
L 553.894409 281.470796 
L 553.907962 283.808987 
L 553.898132 286.147197 
L 553.864922 288.485192 
L 553.808334 290.822738 
L 553.728373 293.159601 
L 553.625049 295.495547 
L 553.49837 297.830344 
L 553.34835 300.163757 
L 553.175004 302.495553 
L 552.978349 304.825499 
L 552.758405 307.153362 
L 552.515193 309.47891 
L 552.248739 311.801909 
L 551.959068 314.122127 
L 551.64621 316.439333 
L 551.310196 318.753294 
L 550.951059 321.063779 
L 550.568837 323.370558 
L 550.163565 325.673399 
L 549.735286 327.972073 
L 549.284042 330.266348 
L 548.809878 332.555997 
L 548.312842 334.84079 
L 547.792983 337.120498 
L 547.250354 339.394893 
L 546.685008 341.663749 
L 546.097002 343.926838 
L 545.486395 346.183934 
L 544.853247 348.434811 
L 544.197624 350.679244 
L 543.519589 352.917008 
L 542.81921 355.147881 
L 542.096558 357.371638 
L 541.351706 359.588058 
L 540.584726 361.796919 
L 539.795697 363.997999 
L 538.984697 366.191079 
L 538.151806 368.37594 
L 537.29711 370.552363 
L 536.420692 372.72013 
L 535.52264 374.879024 
L 534.603045 377.028831 
L 533.661999 379.169334 
L 532.699594 381.30032 
L 531.715928 383.421575 
L 530.7111 385.532888 
L 529.685208 387.634047 
L 528.638357 389.724842 
L 527.57065 391.805064 
L 526.482195 393.874506 
L 525.373101 395.932959 
L 524.243477 397.980219 
L 523.093438 400.016081 
L 521.923098 402.04034 
L 520.732574 404.052795 
L 519.521986 406.053245 
L 518.291454 408.041489 
L 517.041101 410.017328 
L 515.771053 411.980565 
L 514.481436 413.931004 
L 513.17238 415.868449 
L 511.844015 417.792707 
L 510.496474 419.703585 
L 509.129892 421.600893 
L 507.744406 423.48444 
L 506.340154 425.354038 
L 504.917276 427.209501 
L 503.475915 429.050642 
L 502.016215 430.877278 
L 500.538322 432.689226 
L 499.042384 434.486304 
L 497.52855 436.268334 
L 495.996972 438.035136 
L 494.447803 439.786535 
L 492.881197 441.522354 
L 491.297312 443.242421 
L 489.696305 444.946563 
L 488.078338 446.63461 
L 486.443571 448.306394 
L 484.792169 449.961746 
L 483.124295 451.600502 
L 481.440118 453.222498 
L 479.739806 454.827571 
L 478.023527 456.415561 
L 476.291456 457.986309 
L 474.543763 459.539658 
L 472.780625 461.075452 
L 471.002217 462.593539 
L 469.208717 464.093766 
L 467.400305 465.575984 
L 465.577162 467.040043 
L 463.739469 468.485799 
L 461.887411 469.913105 
L 460.021173 471.321819 
L 458.140941 472.711802 
L 456.246903 474.082912 
L 454.33925 475.435014 
L 452.418171 476.767972 
L 450.483858 478.081653 
L 448.536506 479.375926 
L 446.576309 480.650661 
L 444.603462 481.90573 
L 442.618164 483.141008 
L 440.620612 484.356372 
L 438.611007 485.5517 
L 436.589549 486.726873 
L 434.556441 487.881773 
L 432.511885 489.016284 
L 430.456087 490.130293 
L 428.389252 491.223689 
L 426.311586 492.296362 
L 424.223298 493.348205 
L 422.124596 494.379113 
L 420.015689 495.388983 
L 417.89679 496.377713 
L 415.76811 497.345206 
L 413.629861 498.291364 
L 411.482258 499.216092 
L 409.325515 500.119298 
L 407.159847 501.000892 
L 404.985473 501.860786 
L 402.802608 502.698893 
L 400.611472 503.515131 
L 398.412282 504.309416 
L 396.20526 505.08167 
L 393.990626 505.831816 
L 391.768602 506.559778 
L 389.539409 507.265484 
L 387.30327 507.948863 
L 385.06041 508.609847 
L 382.811052 509.24837 
L 380.555421 509.864367 
L 378.293744 510.457778 
L 376.026245 511.028542 
L 373.753152 511.576604 
L 371.474693 512.101908 
L 369.191094 512.604401 
L 366.902585 513.084033 
L 364.609393 513.540757 
L 362.31175 513.974526 
L 360.009883 514.385298 
L 357.704024 514.77303 
L 355.394403 515.137686 
L 353.081251 515.479227 
L 350.7648 515.79762 
L 348.44528 516.092832 
L 346.122924 516.364836 
L 343.797964 516.613602 
L 341.470633 516.839107 
L 339.141164 517.041328 
L 336.809788 517.220244 
L 334.47674 517.375838 
L 332.142253 517.508094 
L 329.80656 517.616999 
L 327.469895 517.702542 
L 325.132491 517.764714 
L 322.794582 517.80351 
L 320.456402 517.818925 
L 320.084002 517.819221 
L 320.084002 520.18108 
L 320.460164 520.180781 
L 322.821962 520.16521 
L 325.183486 520.126023 
L 327.5445 520.063222 
L 329.904768 519.976815 
L 332.264054 519.86681 
L 334.622121 519.733218 
L 336.978736 519.576052 
L 339.33366 519.395329 
L 341.68666 519.191066 
L 344.037499 518.963283 
L 346.385944 518.712004 
L 348.731758 518.437253 
L 351.074707 518.139058 
L 353.414557 517.817449 
L 355.751074 517.472458 
L 358.084024 517.10412 
L 360.413175 516.71247 
L 362.738293 516.29755 
L 365.059145 515.859399 
L 367.3755 515.398062 
L 369.687125 514.913585 
L 371.99379 514.406016 
L 374.295265 513.875406 
L 376.591318 513.321809 
L 378.881721 512.745279 
L 381.166244 512.145874 
L 383.444659 511.523654 
L 385.716737 510.878682 
L 387.982253 510.211021 
L 390.240979 509.520739 
L 392.492689 508.807905 
L 394.737158 508.07259 
L 396.974162 507.314867 
L 399.203477 506.534812 
L 401.42488 505.732504 
L 403.63815 504.908022 
L 405.843063 504.061449 
L 408.039401 503.192869 
L 410.226944 502.30237 
L 412.405472 501.39004 
L 414.574769 500.455971 
L 416.734616 499.500257 
L 418.884798 498.522991 
L 421.0251 497.524274 
L 423.155309 496.504203 
L 425.27521 495.462882 
L 427.384592 494.400414 
L 429.483244 493.316906 
L 431.570957 492.212466 
L 433.64752 491.087204 
L 435.712728 489.941233 
L 437.766373 488.774668 
L 439.808249 487.587625 
L 441.838154 486.380223 
L 443.855883 485.152582 
L 445.861234 483.904826 
L 447.854009 482.63708 
L 449.834006 481.349469 
L 451.801029 480.042123 
L 453.754879 478.715172 
L 455.695363 477.36875 
L 457.622286 476.00299 
L 459.535455 474.61803 
L 461.434679 473.214008 
L 463.319769 471.791064 
L 465.190534 470.34934 
L 467.04679 468.888981 
L 468.888349 467.410133 
L 470.715027 465.912944 
L 472.526643 464.397563 
L 474.323015 462.864142 
L 476.103963 461.312834 
L 477.869309 459.743795 
L 479.618876 458.157181 
L 481.35249 456.55315 
L 483.069978 454.931865 
L 484.771167 453.293485 
L 486.455887 451.638176 
L 488.123971 449.966103 
L 489.77525 448.277433 
L 491.409561 446.572335 
L 493.026739 444.850979 
L 494.626623 443.113537 
L 496.209053 441.360184 
L 497.773871 439.591095 
L 499.320919 437.806446 
L 500.850045 436.006417 
L 502.361093 434.191186 
L 503.853915 432.360935 
L 505.328359 430.515849 
L 506.784279 428.65611 
L 508.221529 426.781905 
L 509.639966 424.893422 
L 511.039447 422.990849 
L 512.419833 421.074377 
L 513.780985 419.144197 
L 515.122768 417.200502 
L 516.445047 415.243487 
L 517.74769 413.273346 
L 519.030567 411.290279 
L 520.293549 409.294481 
L 521.536511 407.286154 
L 522.759328 405.265498 
L 523.961877 403.232715 
L 525.144038 401.188009 
L 526.305694 399.131583 
L 527.446728 397.063644 
L 528.567026 394.984398 
L 529.666475 392.894053 
L 530.744967 390.792818 
L 531.802392 388.680904 
L 532.838646 386.558521 
L 533.853625 384.425882 
L 534.847226 382.2832 
L 535.819352 380.130689 
L 536.769904 377.968565 
L 537.698788 375.797043 
L 538.605911 373.616341 
L 539.491182 371.426678 
L 540.354512 369.228271 
L 541.195815 367.021341 
L 542.015007 364.806108 
L 542.812006 362.582795 
L 543.586733 360.351623 
L 544.339109 358.112815 
L 545.069061 355.866595 
L 545.776514 353.613188 
L 546.461398 351.35282 
L 547.123644 349.085716 
L 547.763186 346.812103 
L 548.379961 344.532208 
L 548.973907 342.24626 
L 549.544963 339.954486 
L 550.093074 337.657117 
L 550.618184 335.354382 
L 551.120241 333.04651 
L 551.599194 330.733734 
L 552.054996 328.416284 
L 552.487601 326.094391 
L 552.896966 323.768289 
L 553.28305 321.43821 
L 553.645814 319.104386 
L 553.985222 316.767051 
L 554.30124 314.426439 
L 554.593837 312.082785 
L 554.862983 309.736321 
L 555.108651 307.387283 
L 555.330817 305.035906 
L 555.529459 302.682425 
L 555.704556 300.327076 
L 555.856091 297.970093 
L 555.984049 295.611712 
L 556.088418 293.25217 
L 556.169186 290.891703 
L 556.226346 288.530545 
L 556.259891 286.168935 
L 556.26982 283.807106 
L 556.25613 281.445297 
L 556.218823 279.083743 
L 556.157903 276.722679 
L 556.073375 274.362343 
L 555.965249 272.00297 
L 555.833535 269.644797 
L 555.678246 267.288058 
L 555.499398 264.932991 
L 555.297008 262.579829 
L 555.071098 260.228809 
L 554.821689 257.880165 
L 554.548806 255.534133 
L 554.252477 253.190947 
L 553.932731 250.850842 
L 553.589601 248.514051 
L 553.22312 246.180808 
L 552.833326 243.851346 
L 552.420257 241.525899 
L 551.983955 239.204698 
L 551.524462 236.887977 
L 551.041826 234.575966 
L 550.536094 232.268898 
L 550.007317 229.967001 
L 549.455549 227.670508 
L 548.880843 225.379647 
L 548.283257 223.094647 
L 547.662852 220.815738 
L 547.019689 218.543146 
L 546.353833 216.2771 
L 545.66535 214.017825 
L 544.954309 211.765548 
L 544.220781 209.520494 
L 543.46484 207.282887 
L 542.686561 205.052951 
L 541.886022 202.83091 
L 541.063302 200.616985 
L 540.218485 198.411398 
L 539.351655 196.214369 
L 538.462898 194.026118 
L 537.552304 191.846864 
L 536.619963 189.676824 
L 535.665968 187.516217 
L 534.690415 185.365257 
L 533.693402 183.22416 
L 532.675028 181.09314 
L 531.635396 178.97241 
L 530.574608 176.862183 
L 529.492771 174.762668 
L 528.389994 172.674077 
L 527.266386 170.596618 
L 526.12206 168.530498 
L 524.957131 166.475925 
L 523.771714 164.433104 
L 522.565929 162.402239 
L 521.339896 160.383533 
L 520.093737 158.377188 
L 518.827578 156.383405 
L 517.541544 154.402383 
L 516.235765 152.43432 
L 514.91037 150.479413 
L 513.565494 148.537858 
L 512.201269 146.609848 
L 510.817833 144.695576 
L 509.415323 142.795235 
L 507.993881 140.909013 
L 506.553647 139.0371 
L 505.094767 137.179682 
L 503.617386 135.336946 
L 502.121652 133.509076 
L 500.607714 131.696254 
L 499.075724 129.898662 
L 497.525835 128.116479 
L 495.958202 126.349884 
L 494.372982 124.599054 
L 492.770332 122.864163 
L 491.150415 121.145384 
L 489.513391 119.442891 
L 487.859424 117.756853 
L 486.188679 116.087439 
L 484.501325 114.434815 
L 482.797528 112.799147 
L 481.077461 111.180599 
L 479.341294 109.579332 
L 477.589202 107.995506 
L 475.821359 106.42928 
L 474.037943 104.880811 
L 472.239131 103.350253 
L 470.425105 101.837759 
L 468.596044 100.343481 
L 466.752132 98.867568 
L 464.893553 97.410167 
L 463.020493 95.971425 
L 461.13314 94.551485 
L 459.231682 93.150489 
L 457.31631 91.768578 
L 455.387214 90.405889 
L 453.444589 89.062558 
L 451.488627 87.738721 
L 449.519525 86.43451 
L 447.537479 85.150054 
L 445.542688 83.885483 
L 443.535352 82.640922 
L 441.51567 81.416497 
L 439.483845 80.212329 
L 437.440081 79.02854 
L 435.384581 77.865247 
L 433.317551 76.722567 
L 431.239197 75.600613 
L 429.149729 74.4995 
L 427.049353 73.419335 
L 424.938282 72.360228 
L 422.816725 71.322285 
L 420.684895 70.305608 
L 418.543004 69.3103 
L 416.391268 68.336461 
L 414.229902 67.384187 
L 412.059121 66.453574 
L 409.879142 65.544715 
L 407.690184 64.657701 
L 405.492465 63.792621 
L 403.286206 62.949561 
L 401.071627 62.128605 
L 398.848948 61.329835 
L 396.618394 60.553332 
L 394.380186 59.799173 
L 392.134548 59.067433 
L 389.881706 58.358186 
L 387.621883 57.671502 
L 385.355307 57.007451 
L 383.082204 56.366098 
L 380.802801 55.747508 
L 378.517327 55.151742 
L 376.226009 54.578861 
L 373.929077 54.028921 
L 371.62676 53.501977 
L 369.319289 52.998083 
L 367.006895 52.517288 
L 364.689809 52.05964 
L 362.368261 51.625186 
L 360.042486 51.213969 
L 357.712715 50.82603 
L 355.379181 50.461408 
L 353.042117 50.120138 
L 350.701758 49.802256 
L 348.358336 49.507793 
L 346.012088 49.236779 
L 343.663246 48.98924 
L 341.312047 48.765202 
L 338.958725 48.564686 
L 336.603516 48.387714 
L 334.246654 48.234302 
L 331.888377 48.104466 
L 329.528918 47.998218 
L 327.168516 47.91557 
L 324.807405 47.85653 
L 322.445821 47.821104 
L 320.084002 47.809295 
z
" clip-path="url(#p9d7ca17b07)" style="fill: #000080"/>
   </g>
   <g id="patch_3">
    <path d="M 320.084002 517.819221 
L 317.7458 517.80753 
L 315.407833 517.772458 
L 313.070333 517.714009 
L 310.733534 517.632187 
L 308.397671 517.527002 
L 306.062976 517.398464 
L 303.729683 517.246586 
L 301.398026 517.071383 
L 299.068237 516.872873 
L 296.74055 516.651075 
L 294.415197 516.406012 
L 292.092411 516.137708 
L 289.772424 515.846189 
L 287.455468 515.531486 
L 285.141775 515.19363 
L 282.831576 514.832653 
L 280.525102 514.448593 
L 278.222585 514.041489 
L 275.924253 513.611379 
L 273.630337 513.158308 
L 271.341067 512.682321 
L 269.056671 512.183466 
L 266.777378 511.661792 
L 264.503415 511.117351 
L 262.23501 510.550198 
L 259.97239 509.960391 
L 257.715781 509.347986 
L 255.465409 508.713047 
L 253.221499 508.055636 
L 250.984275 507.375819 
L 248.753961 506.673664 
L 246.53078 505.949242 
L 244.314954 505.202625 
L 242.106705 504.433886 
L 239.906253 503.643105 
L 237.71382 502.830358 
L 235.529623 501.995728 
L 233.353881 501.139299 
L 231.186813 500.261155 
L 229.028634 499.361385 
L 226.879561 498.440078 
L 224.739808 497.497327 
L 222.609589 496.533226 
L 220.489118 495.547871 
L 218.378606 494.541361 
L 216.278265 493.513797 
L 214.188304 492.465281 
L 212.108932 491.395918 
L 210.040358 490.305816 
L 207.982788 489.195082 
L 205.936429 488.063829 
L 203.901484 486.912169 
L 201.878157 485.740217 
L 199.86665 484.548091 
L 197.867165 483.33591 
L 195.879902 482.103795 
L 193.905059 480.85187 
L 191.942834 479.580259 
L 189.993423 478.289089 
L 188.057021 476.97849 
L 186.133821 475.648593 
L 184.224017 474.299531 
L 182.327798 472.931439 
L 180.445355 471.544453 
L 178.576875 470.138713 
L 176.722546 468.714358 
L 174.882553 467.271531 
L 173.05708 465.810377 
L 171.24631 464.331042 
L 169.450423 462.833673 
L 167.6696 461.318421 
L 165.904018 459.785436 
L 164.153854 458.234872 
L 162.419282 456.666885 
L 160.700477 455.08163 
L 158.99761 453.479267 
L 157.310852 451.859956 
L 155.640371 450.223859 
L 153.986334 448.571138 
L 152.348907 446.901961 
L 150.728253 445.216492 
L 149.124534 443.514902 
L 147.537912 441.79736 
L 145.968544 440.064038 
L 144.416587 438.315109 
L 142.882197 436.550748 
L 141.365526 434.771132 
L 139.866728 432.976438 
L 138.385951 431.166847 
L 136.923344 429.342538 
L 135.479053 427.503694 
L 134.053222 425.6505 
L 132.645994 423.783141 
L 131.257509 421.901803 
L 129.887907 420.006674 
L 128.537325 418.097944 
L 127.205897 416.175804 
L 125.893756 414.240446 
L 124.601035 412.292064 
L 123.327862 410.330852 
L 122.074364 408.357007 
L 120.840667 406.370725 
L 119.626894 404.372207 
L 118.433166 402.36165 
L 117.259604 400.339257 
L 116.106324 398.30523 
L 114.973441 396.259772 
L 113.86107 394.203087 
L 112.76932 392.135382 
L 111.698302 390.056862 
L 110.648122 387.967737 
L 109.618885 385.868215 
L 108.610695 383.758505 
L 107.623652 381.638819 
L 106.657855 379.509369 
L 105.713401 377.370367 
L 104.790383 375.222028 
L 103.888894 373.064567 
L 103.009025 370.898198 
L 102.150863 368.723139 
L 101.314494 366.539608 
L 100.500002 364.347822 
L 99.707468 362.148001 
L 98.936972 359.940365 
L 98.18859 357.725134 
L 97.462397 355.502531 
L 96.758467 353.272776 
L 96.076869 351.036094 
L 95.417671 348.792708 
L 94.78094 346.542843 
L 94.166739 344.286722 
L 93.575129 342.024573 
L 93.006171 339.75662 
L 92.459919 337.483092 
L 91.93643 335.204215 
L 91.435756 332.920216 
L 90.957946 330.631326 
L 90.503049 328.337772 
L 90.071109 326.039783 
L 89.662171 323.73759 
L 89.276274 321.431423 
L 88.913458 319.121513 
L 88.573759 316.80809 
L 88.257211 314.491385 
L 87.963846 312.171631 
L 87.693692 309.849059 
L 87.446777 307.523902 
L 87.223125 305.196392 
L 87.02276 302.866762 
L 86.8457 300.535245 
L 86.691964 298.202074 
L 86.561567 295.867482 
L 86.454522 293.531703 
L 86.37084 291.194971 
L 86.310529 288.857518 
L 86.273595 286.519579 
L 86.260042 284.181388 
L 86.269871 281.843178 
L 86.303081 279.505183 
L 86.35967 277.167637 
L 86.43963 274.830774 
L 86.542955 272.494828 
L 86.669634 270.160031 
L 86.819653 267.826618 
L 86.993 265.494822 
L 87.189655 263.164876 
L 87.409599 260.837013 
L 87.65281 258.511465 
L 87.919265 256.188466 
L 88.208936 253.868248 
L 88.521794 251.551042 
L 88.857808 249.237081 
L 89.216944 246.926596 
L 89.599167 244.619817 
L 90.004438 242.316976 
L 90.432717 240.018302 
L 90.883961 237.724027 
L 91.358125 235.434378 
L 91.855161 233.149585 
L 92.37502 230.869877 
L 92.91765 228.595482 
L 93.482996 226.326626 
L 94.071002 224.063537 
L 94.681609 221.806441 
L 95.314756 219.555564 
L 95.97038 217.311131 
L 96.648415 215.073367 
L 97.348793 212.842494 
L 98.071445 210.618737 
L 98.816298 208.402317 
L 99.583277 206.193456 
L 100.372307 203.992376 
L 101.183307 201.799296 
L 102.016197 199.614435 
L 102.870894 197.438012 
L 103.747312 195.270245 
L 104.645363 193.111351 
L 105.564958 190.961544 
L 106.506005 188.821041 
L 107.468409 186.690055 
L 108.452075 184.5688 
L 109.456904 182.457487 
L 110.482795 180.356328 
L 111.529647 178.265533 
L 112.597353 176.185311 
L 113.685808 174.115869 
L 114.794903 172.057416 
L 115.924526 170.010156 
L 117.074566 167.974294 
L 118.244906 165.950035 
L 119.435429 163.93758 
L 120.646018 161.93713 
L 121.87655 159.948886 
L 123.126902 157.973047 
L 124.396951 156.00981 
L 125.686567 154.059371 
L 126.995624 152.121926 
L 128.323989 150.197668 
L 129.671529 148.28679 
L 131.038111 146.389482 
L 132.423598 144.505935 
L 133.82785 142.636337 
L 135.250727 140.780874 
L 136.692088 138.939733 
L 138.151788 137.113097 
L 139.629681 135.301149 
L 141.125619 133.504071 
L 142.639453 131.722041 
L 144.171032 129.955239 
L 145.720201 128.20384 
L 147.286807 126.468021 
L 148.870692 124.747954 
L 150.471698 123.043812 
L 152.089666 121.355765 
L 153.724432 119.683981 
L 155.375835 118.028629 
L 157.043708 116.389873 
L 158.727885 114.767877 
L 160.428198 113.162804 
L 162.144476 111.574814 
L 163.876548 110.004066 
L 165.624241 108.450717 
L 167.387379 106.914923 
L 169.165787 105.396836 
L 170.959286 103.896609 
L 172.767698 102.414391 
L 174.590842 100.950332 
L 176.428534 99.504576 
L 178.280593 98.07727 
L 180.146831 96.668556 
L 182.027063 95.278573 
L 183.9211 93.907463 
L 185.828754 92.555361 
L 187.749833 91.222403 
L 189.684145 89.908722 
L 191.631498 88.614449 
L 193.591695 87.339714 
L 195.564541 86.084645 
L 197.54984 84.849367 
L 199.547392 83.634003 
L 201.556997 82.438675 
L 203.578455 81.263502 
L 205.611563 80.108602 
L 207.656118 78.974091 
L 209.711916 77.860082 
L 211.778752 76.766686 
L 213.856417 75.694013 
L 215.944706 74.64217 
L 218.043408 73.611262 
L 220.152314 72.601392 
L 222.271213 71.612662 
L 224.399894 70.645169 
L 226.538143 69.699011 
L 228.685746 68.774283 
L 230.842489 67.871077 
L 233.008156 66.989483 
L 235.182531 66.129589 
L 237.365396 65.291482 
L 239.556532 64.475244 
L 241.755721 63.680959 
L 243.962743 62.908705 
L 246.177377 62.158559 
L 248.399402 61.430597 
L 250.628595 60.724891 
L 252.864733 60.041512 
L 255.107594 59.380528 
L 257.356952 58.742005 
L 259.612582 58.126008 
L 261.87426 57.532597 
L 264.141759 56.961833 
L 266.414851 56.413771 
L 268.693311 55.888467 
L 270.97691 55.385974 
L 273.265419 54.906342 
L 275.55861 54.449618 
L 277.856254 54.015849 
L 280.15812 53.605077 
L 282.463979 53.217345 
L 284.7736 52.852689 
L 287.086752 52.511148 
L 289.403204 52.192755 
L 291.722724 51.897543 
L 294.045079 51.625539 
L 296.370039 51.376773 
L 298.69737 51.151268 
L 301.02684 50.949047 
L 303.358215 50.770131 
L 305.691263 50.614537 
L 308.025751 50.482281 
L 310.361444 50.373376 
L 312.698109 50.287833 
L 315.035513 50.225661 
L 317.373421 50.186865 
L 319.711601 50.17145 
L 320.084002 50.171154 
L 320.084002 47.809295 
L 319.70784 47.809594 
L 317.346042 47.825165 
L 314.984518 47.864352 
L 312.623504 47.927153 
L 310.263236 48.01356 
L 307.90395 48.123565 
L 305.545882 48.257157 
L 303.189268 48.414323 
L 300.834343 48.595046 
L 298.481344 48.799309 
L 296.130504 49.027092 
L 293.78206 49.278371 
L 291.436246 49.553122 
L 289.093297 49.851317 
L 286.753447 50.172926 
L 284.41693 50.517917 
L 282.083979 50.886255 
L 279.754829 51.277905 
L 277.429711 51.692825 
L 275.108859 52.130976 
L 272.792504 52.592313 
L 270.480878 53.07679 
L 268.174213 53.584359 
L 265.872739 54.114969 
L 263.576685 54.668566 
L 261.286283 55.245096 
L 259.00176 55.844501 
L 256.723345 56.466721 
L 254.451266 57.111693 
L 252.185751 57.779354 
L 249.927025 58.469636 
L 247.675315 59.18247 
L 245.430846 59.917785 
L 243.193842 60.675508 
L 240.964526 61.455563 
L 238.743123 62.257871 
L 236.529854 63.082353 
L 234.32494 63.928926 
L 232.128602 64.797506 
L 229.94106 65.688005 
L 227.762531 66.600335 
L 225.593235 67.534404 
L 223.433388 68.490118 
L 221.283205 69.467384 
L 219.142903 70.466101 
L 217.012695 71.486172 
L 214.892794 72.527493 
L 212.783412 73.589961 
L 210.684759 74.673469 
L 208.597047 75.777909 
L 206.520483 76.903171 
L 204.455276 78.049142 
L 202.401631 79.215707 
L 200.359754 80.40275 
L 198.32985 81.610152 
L 196.312121 82.837793 
L 194.306769 84.085549 
L 192.313995 85.353295 
L 190.333998 86.640906 
L 188.366975 87.948252 
L 186.413124 89.275203 
L 184.47264 90.621625 
L 182.545717 91.987385 
L 180.632548 93.372345 
L 178.733324 94.776367 
L 176.848235 96.199311 
L 174.977469 97.641035 
L 173.121214 99.101394 
L 171.279655 100.580242 
L 169.452976 102.077431 
L 167.64136 103.592812 
L 165.844989 105.126233 
L 164.064041 106.677541 
L 162.298695 108.24658 
L 160.549127 109.833194 
L 158.815513 111.437225 
L 157.098026 113.05851 
L 155.396837 114.69689 
L 153.712116 116.352199 
L 152.044033 118.024272 
L 150.392753 119.712942 
L 148.758443 121.41804 
L 147.141264 123.139396 
L 145.54138 124.876838 
L 143.95895 126.630191 
L 142.394133 128.39928 
L 140.847084 130.183929 
L 139.317959 131.983958 
L 137.80691 133.799189 
L 136.314089 135.62944 
L 134.839645 137.474526 
L 133.383725 139.334265 
L 131.946475 141.20847 
L 130.528038 143.096953 
L 129.128557 144.999526 
L 127.748171 146.915998 
L 126.387019 148.846178 
L 125.045236 150.789873 
L 123.722957 152.746888 
L 122.420314 154.717029 
L 121.137437 156.700096 
L 119.874454 158.695894 
L 118.631493 160.704221 
L 117.408676 162.724877 
L 116.206127 164.75766 
L 115.023965 166.802366 
L 113.862309 168.858792 
L 112.721276 170.926731 
L 111.600978 173.005977 
L 110.501528 175.096322 
L 109.423037 177.197557 
L 108.365611 179.309471 
L 107.329358 181.431854 
L 106.314379 183.564493 
L 105.320777 185.707175 
L 104.348651 187.859686 
L 103.398099 190.02181 
L 102.469215 192.193332 
L 101.562093 194.374034 
L 100.676822 196.563697 
L 99.813492 198.762104 
L 98.972189 200.969034 
L 98.152997 203.184267 
L 97.355997 205.40758 
L 96.581271 207.638752 
L 95.828894 209.87756 
L 95.098943 212.12378 
L 94.39149 214.377187 
L 93.706606 216.637555 
L 93.04436 218.904659 
L 92.404817 221.178272 
L 91.788042 223.458167 
L 91.194097 225.744115 
L 90.62304 228.035889 
L 90.07493 230.333258 
L 89.54982 232.635993 
L 89.047763 234.943865 
L 88.568809 237.256641 
L 88.113007 239.574091 
L 87.680402 241.895984 
L 87.271037 244.222086 
L 86.884954 246.552165 
L 86.522189 248.885989 
L 86.182781 251.223324 
L 85.866763 253.563936 
L 85.574166 255.90759 
L 85.305021 258.254054 
L 85.059352 260.603092 
L 84.837186 262.954469 
L 84.638545 265.30795 
L 84.463448 267.663299 
L 84.311913 270.020282 
L 84.183954 272.378663 
L 84.079586 274.738205 
L 83.998818 277.098672 
L 83.941658 279.45983 
L 83.908112 281.82144 
L 83.898184 284.183269 
L 83.911874 286.545078 
L 83.949181 288.906632 
L 84.010101 291.267696 
L 84.094629 293.628032 
L 84.202755 295.987405 
L 84.334469 298.345578 
L 84.489758 300.702317 
L 84.668606 303.057384 
L 84.870995 305.410546 
L 85.096906 307.761566 
L 85.346315 310.11021 
L 85.619198 312.456242 
L 85.915527 314.799428 
L 86.235272 317.139533 
L 86.578402 319.476324 
L 86.944883 321.809567 
L 87.334677 324.139029 
L 87.747747 326.464476 
L 88.184049 328.785677 
L 88.643541 331.102398 
L 89.126178 333.414409 
L 89.631909 335.721477 
L 90.160686 338.023374 
L 90.712455 340.319867 
L 91.287161 342.610728 
L 91.884746 344.895728 
L 92.505151 347.174637 
L 93.148314 349.447229 
L 93.81417 351.713275 
L 94.502653 353.97255 
L 95.213694 356.224827 
L 95.947222 358.469881 
L 96.703163 360.707488 
L 97.481443 362.937424 
L 98.281982 365.159465 
L 99.104701 367.37339 
L 99.949518 369.578977 
L 100.816348 371.776006 
L 101.705105 373.964257 
L 102.6157 376.143511 
L 103.548041 378.313551 
L 104.502036 380.474158 
L 105.477588 382.625118 
L 106.474601 384.766215 
L 107.492975 386.897235 
L 108.532608 389.017965 
L 109.593396 391.128192 
L 110.675232 393.227707 
L 111.77801 395.316298 
L 112.901617 397.393757 
L 114.045943 399.459877 
L 115.210873 401.51445 
L 116.396289 403.557271 
L 117.602075 405.588136 
L 118.828108 407.606842 
L 120.074266 409.613187 
L 121.340426 411.60697 
L 122.62646 413.587992 
L 123.932239 415.556055 
L 125.257633 417.510962 
L 126.60251 419.452517 
L 127.966735 421.380527 
L 129.350171 423.294799 
L 130.75268 425.19514 
L 132.174123 427.081362 
L 133.614356 428.953275 
L 135.073236 430.810693 
L 136.550617 432.653429 
L 138.046352 434.481299 
L 139.560289 436.294121 
L 141.092279 438.091713 
L 142.642169 439.873896 
L 144.209802 441.640491 
L 145.795022 443.391321 
L 147.397671 445.126212 
L 149.017589 446.844991 
L 150.654613 448.547484 
L 152.30858 450.233522 
L 153.979324 451.902936 
L 155.666679 453.55556 
L 157.370475 455.191228 
L 159.090543 456.809776 
L 160.826709 458.411043 
L 162.578802 459.994869 
L 164.346644 461.561095 
L 166.130061 463.109564 
L 167.928872 464.640122 
L 169.742899 466.152616 
L 171.57196 467.646894 
L 173.415872 469.122807 
L 175.274451 470.580208 
L 177.14751 472.01895 
L 179.034863 473.43889 
L 180.936321 474.839886 
L 182.851694 476.221797 
L 184.780789 477.584486 
L 186.723415 478.927817 
L 188.679377 480.251654 
L 190.648479 481.555865 
L 192.630525 482.840321 
L 194.625315 484.104892 
L 196.632652 485.349453 
L 198.652334 486.573878 
L 200.684158 487.778046 
L 202.727923 488.961835 
L 204.783423 490.125128 
L 206.850453 491.267808 
L 208.928806 492.389762 
L 211.018275 493.490875 
L 213.11865 494.57104 
L 215.229722 495.630147 
L 217.351279 496.66809 
L 219.483109 497.684767 
L 221.624999 498.680075 
L 223.776735 499.653914 
L 225.938102 500.606188 
L 228.108883 501.536801 
L 230.288862 502.44566 
L 232.47782 503.332674 
L 234.675538 504.197754 
L 236.881797 505.040814 
L 239.096377 505.86177 
L 241.319055 506.66054 
L 243.54961 507.437043 
L 245.787818 508.191202 
L 248.033455 508.922942 
L 250.286298 509.632189 
L 252.54612 510.318873 
L 254.812696 510.982924 
L 257.085799 511.624277 
L 259.365202 512.242867 
L 261.650677 512.838633 
L 263.941995 513.411514 
L 266.238927 513.961454 
L 268.541243 514.488398 
L 270.848714 514.992292 
L 273.161109 515.473087 
L 275.478195 515.930735 
L 277.799742 516.365189 
L 280.125518 516.776406 
L 282.455289 517.164345 
L 284.788823 517.528967 
L 287.125887 517.870237 
L 289.466246 518.188119 
L 291.809667 518.482582 
L 294.155916 518.753596 
L 296.504757 519.001135 
L 298.855956 519.225173 
L 301.209278 519.425689 
L 303.564488 519.602661 
L 305.921349 519.756073 
L 308.279627 519.885909 
L 310.639085 519.992157 
L 312.999488 520.074805 
L 315.360599 520.133845 
L 317.722182 520.169271 
L 320.084002 520.18108 
z
" clip-path="url(#p9d7ca17b07)" style="fill: #800000"/>
   </g>
   <g id="PatchCollection_1">
    <defs>
     <path id="mb7f1b64e99" d="M 320.084002 -517.819221 
L 320.084002 -517.819221 
L 322.422203 -517.80753 
L 324.760171 -517.772458 
L 327.097671 -517.714009 
L 329.434469 -517.632187 
L 331.770333 -517.527002 
L 334.105028 -517.398464 
L 336.43832 -517.246586 
L 338.769978 -517.071383 
L 341.099767 -516.872873 
L 343.427454 -516.651075 
L 345.752807 -516.406012 
L 348.075593 -516.137708 
L 350.39558 -515.846189 
L 352.712536 -515.531486 
L 355.026229 -515.19363 
L 357.336428 -514.832653 
L 359.642901 -514.448593 
L 361.945419 -514.041489 
L 364.24375 -513.611379 
L 366.537666 -513.158308 
L 368.826936 -512.682321 
L 371.111333 -512.183466 
L 373.390626 -511.661792 
L 375.664589 -511.117351 
L 377.932994 -510.550198 
L 380.195613 -509.960391 
L 382.452222 -509.347986 
L 384.702594 -508.713047 
L 386.946505 -508.055636 
L 389.183729 -507.375819 
L 391.414043 -506.673664 
L 393.637224 -505.949242 
L 395.85305 -505.202625 
L 398.061299 -504.433886 
L 400.26175 -503.643105 
L 402.454184 -502.830358 
L 404.638381 -501.995728 
L 406.814122 -501.139299 
L 408.981191 -500.261155 
L 411.139369 -499.361385 
L 413.288443 -498.440078 
L 415.428196 -497.497327 
L 417.558414 -496.533226 
L 419.678886 -495.547871 
L 421.789398 -494.541361 
L 423.889739 -493.513797 
L 425.9797 -492.465281 
L 428.059071 -491.395918 
L 430.127645 -490.305816 
L 432.185215 -489.195082 
L 434.231575 -488.063829 
L 436.26652 -486.912169 
L 438.289847 -485.740217 
L 440.301353 -484.548091 
L 442.300838 -483.33591 
L 444.288101 -482.103795 
L 446.262944 -480.85187 
L 448.225169 -479.580259 
L 450.17458 -478.289089 
L 452.110983 -476.97849 
L 454.034182 -475.648593 
L 455.943987 -474.299531 
L 457.840206 -472.931439 
L 459.722649 -471.544453 
L 461.591128 -470.138713 
L 463.445457 -468.714358 
L 465.28545 -467.271531 
L 467.110923 -465.810377 
L 468.921693 -464.331042 
L 470.71758 -462.833673 
L 472.498404 -461.318421 
L 474.263986 -459.785436 
L 476.01415 -458.234872 
L 477.748721 -456.666885 
L 479.467526 -455.08163 
L 481.170393 -453.479267 
L 482.857151 -451.859956 
L 484.527633 -450.223859 
L 486.181669 -448.571138 
L 487.819097 -446.901961 
L 489.439751 -445.216492 
L 491.043469 -443.514902 
L 492.630092 -441.79736 
L 494.19946 -440.064038 
L 495.751417 -438.315109 
L 497.285807 -436.550748 
L 498.802477 -434.771132 
L 500.301276 -432.976438 
L 501.782052 -431.166847 
L 503.24466 -429.342538 
L 504.688951 -427.503694 
L 506.114782 -425.6505 
L 507.52201 -423.783141 
L 508.910494 -421.901803 
L 510.280096 -420.006674 
L 511.630679 -418.097944 
L 512.962107 -416.175804 
L 514.274247 -414.240446 
L 515.566969 -412.292064 
L 516.840142 -410.330852 
L 518.09364 -408.357007 
L 519.327337 -406.370725 
L 520.54111 -404.372207 
L 521.734837 -402.36165 
L 522.9084 -400.339257 
L 524.06168 -398.30523 
L 525.194562 -396.259772 
L 526.306934 -394.203087 
L 527.398684 -392.135382 
L 528.469702 -390.056862 
L 529.519882 -387.967737 
L 530.549118 -385.868215 
L 531.557308 -383.758505 
L 532.544351 -381.638819 
L 533.510148 -379.509369 
L 534.454603 -377.370367 
L 535.377621 -375.222028 
L 536.279109 -373.064567 
L 537.158979 -370.898198 
L 538.017141 -368.723139 
L 538.853509 -366.539608 
L 539.668002 -364.347822 
L 540.460535 -362.148001 
L 541.231032 -359.940365 
L 541.979414 -357.725134 
L 542.705606 -355.502531 
L 543.409537 -353.272776 
L 544.091135 -351.036094 
L 544.750332 -348.792708 
L 545.387064 -346.542843 
L 546.001265 -344.286722 
L 546.592874 -342.024573 
L 547.161833 -339.75662 
L 547.708084 -337.483092 
L 548.231573 -335.204215 
L 548.732248 -332.920216 
L 549.210058 -330.631326 
L 549.664955 -328.337772 
L 550.096894 -326.039783 
L 550.505833 -323.73759 
L 550.891729 -321.431423 
L 551.254545 -319.121513 
L 551.594244 -316.80809 
L 551.910792 -314.491385 
L 552.204158 -312.171631 
L 552.474312 -309.849059 
L 552.721227 -307.523902 
L 552.944878 -305.196392 
L 553.145244 -302.866762 
L 553.322303 -300.535245 
L 553.476039 -298.202074 
L 553.606436 -295.867482 
L 553.713481 -293.531703 
L 553.797164 -291.194971 
L 553.857475 -288.857518 
L 553.894409 -286.519579 
L 553.907962 -284.181388 
L 553.898132 -281.843178 
L 553.864922 -279.505183 
L 553.808334 -277.167637 
L 553.728373 -274.830774 
L 553.625049 -272.494828 
L 553.49837 -270.160031 
L 553.34835 -267.826618 
L 553.175004 -265.494822 
L 552.978349 -263.164876 
L 552.758405 -260.837013 
L 552.515193 -258.511465 
L 552.248739 -256.188466 
L 551.959068 -253.868248 
L 551.64621 -251.551042 
L 551.310196 -249.237081 
L 550.951059 -246.926596 
L 550.568837 -244.619817 
L 550.163565 -242.316976 
L 549.735286 -240.018302 
L 549.284042 -237.724027 
L 548.809878 -235.434378 
L 548.312842 -233.149585 
L 547.792983 -230.869877 
L 547.250354 -228.595482 
L 546.685008 -226.326626 
L 546.097002 -224.063537 
L 545.486395 -221.806441 
L 544.853247 -219.555564 
L 544.197624 -217.311131 
L 543.519589 -215.073367 
L 542.81921 -212.842494 
L 542.096558 -210.618737 
L 541.351706 -208.402317 
L 540.584726 -206.193456 
L 539.795697 -203.992376 
L 538.984697 -201.799296 
L 538.151806 -199.614435 
L 537.29711 -197.438012 
L 536.420692 -195.270245 
L 535.52264 -193.111351 
L 534.603045 -190.961544 
L 533.661999 -188.821041 
L 532.699594 -186.690055 
L 531.715928 -184.5688 
L 530.7111 -182.457487 
L 529.685208 -180.356328 
L 528.638357 -178.265533 
L 527.57065 -176.185311 
L 526.482195 -174.115869 
L 525.373101 -172.057416 
L 524.243477 -170.010156 
L 523.093438 -167.974294 
L 521.923098 -165.950035 
L 520.732574 -163.93758 
L 519.521986 -161.93713 
L 518.291454 -159.948886 
L 517.041101 -157.973047 
L 515.771053 -156.00981 
L 514.481436 -154.059371 
L 513.17238 -152.121926 
L 511.844015 -150.197668 
L 510.496474 -148.28679 
L 509.129892 -146.389482 
L 507.744406 -144.505935 
L 506.340154 -142.636337 
L 504.917276 -140.780874 
L 503.475915 -138.939733 
L 502.016215 -137.113097 
L 500.538322 -135.301149 
L 499.042384 -133.504071 
L 497.52855 -131.722041 
L 495.996972 -129.955239 
L 494.447803 -128.20384 
L 492.881197 -126.468021 
L 491.297312 -124.747954 
L 489.696305 -123.043812 
L 488.078338 -121.355765 
L 486.443571 -119.683981 
L 484.792169 -118.028629 
L 483.124295 -116.389873 
L 481.440118 -114.767877 
L 479.739806 -113.162804 
L 478.023527 -111.574814 
L 476.291456 -110.004066 
L 474.543763 -108.450717 
L 472.780625 -106.914923 
L 471.002217 -105.396836 
L 469.208717 -103.896609 
L 467.400305 -102.414391 
L 465.577162 -100.950332 
L 463.739469 -99.504576 
L 461.887411 -98.07727 
L 460.021173 -96.668556 
L 458.140941 -95.278573 
L 456.246903 -93.907463 
L 454.33925 -92.555361 
L 452.418171 -91.222403 
L 450.483858 -89.908722 
L 448.536506 -88.614449 
L 446.576309 -87.339714 
L 444.603462 -86.084645 
L 442.618164 -84.849367 
L 440.620612 -83.634003 
L 438.611007 -82.438675 
L 436.589549 -81.263502 
L 434.556441 -80.108602 
L 432.511885 -78.974091 
L 430.456087 -77.860082 
L 428.389252 -76.766686 
L 426.311586 -75.694013 
L 424.223298 -74.64217 
L 422.124596 -73.611262 
L 420.015689 -72.601392 
L 417.89679 -71.612662 
L 415.76811 -70.645169 
L 413.629861 -69.699011 
L 411.482258 -68.774283 
L 409.325515 -67.871077 
L 407.159847 -66.989483 
L 404.985473 -66.129589 
L 402.802608 -65.291482 
L 400.611472 -64.475244 
L 398.412282 -63.680959 
L 396.20526 -62.908705 
L 393.990626 -62.158559 
L 391.768602 -61.430597 
L 389.539409 -60.724891 
L 387.30327 -60.041512 
L 385.06041 -59.380528 
L 382.811052 -58.742005 
L 380.555421 -58.126008 
L 378.293744 -57.532597 
L 376.026245 -56.961833 
L 373.753152 -56.413771 
L 371.474693 -55.888467 
L 369.191094 -55.385974 
L 366.902585 -54.906342 
L 364.609393 -54.449618 
L 362.31175 -54.015849 
L 360.009883 -53.605077 
L 357.704024 -53.217345 
L 355.394403 -52.852689 
L 353.081251 -52.511148 
L 350.7648 -52.192755 
L 348.44528 -51.897543 
L 346.122924 -51.625539 
L 343.797964 -51.376773 
L 341.470633 -51.151268 
L 339.141164 -50.949047 
L 336.809788 -50.770131 
L 334.47674 -50.614537 
L 332.142253 -50.482281 
L 329.80656 -50.373376 
L 327.469895 -50.287833 
L 325.132491 -50.225661 
L 322.794582 -50.186865 
L 320.456402 -50.17145 
L 320.084002 -50.171154 
L 320.084002 -50.171154 
Q 320.084002 -283.995187 320.084002 -50.171154 
L 320.084002 -50.171154 
L 320.084002 -50.171154 
L 317.7458 -50.182845 
L 315.407833 -50.217917 
L 313.070333 -50.276366 
L 310.733534 -50.358188 
L 308.397671 -50.463373 
L 306.062976 -50.591911 
L 303.729683 -50.743789 
L 301.398026 -50.918992 
L 299.068237 -51.117502 
L 296.74055 -51.3393 
L 294.415197 -51.584363 
L 292.092411 -51.852667 
L 289.772424 -52.144186 
L 287.455468 -52.458889 
L 285.141775 -52.796745 
L 282.831576 -53.157722 
L 280.525102 -53.541782 
L 278.222585 -53.948886 
L 275.924253 -54.378996 
L 273.630337 -54.832067 
L 271.341067 -55.308054 
L 269.056671 -55.806909 
L 266.777378 -56.328583 
L 264.503415 -56.873024 
L 262.23501 -57.440177 
L 259.97239 -58.029984 
L 257.715781 -58.642389 
L 255.465409 -59.277328 
L 253.221499 -59.934739 
L 250.984275 -60.614556 
L 248.753961 -61.316711 
L 246.53078 -62.041133 
L 244.314954 -62.78775 
L 242.106705 -63.556489 
L 239.906253 -64.34727 
L 237.71382 -65.160017 
L 235.529623 -65.994647 
L 233.353881 -66.851076 
L 231.186813 -67.72922 
L 229.028634 -68.62899 
L 226.879561 -69.550297 
L 224.739808 -70.493048 
L 222.609589 -71.457149 
L 220.489118 -72.442504 
L 218.378606 -73.449014 
L 216.278265 -74.476578 
L 214.188304 -75.525094 
L 212.108932 -76.594457 
L 210.040358 -77.684559 
L 207.982788 -78.795293 
L 205.936429 -79.926546 
L 203.901484 -81.078206 
L 201.878157 -82.250158 
L 199.86665 -83.442284 
L 197.867165 -84.654465 
L 195.879902 -85.88658 
L 193.905059 -87.138505 
L 191.942834 -88.410116 
L 189.993423 -89.701286 
L 188.057021 -91.011885 
L 186.133821 -92.341782 
L 184.224017 -93.690844 
L 182.327798 -95.058936 
L 180.445355 -96.445922 
L 178.576875 -97.851662 
L 176.722546 -99.276017 
L 174.882553 -100.718844 
L 173.05708 -102.179998 
L 171.24631 -103.659333 
L 169.450423 -105.156702 
L 167.6696 -106.671954 
L 165.904018 -108.204939 
L 164.153854 -109.755503 
L 162.419282 -111.32349 
L 160.700477 -112.908745 
L 158.99761 -114.511108 
L 157.310852 -116.130419 
L 155.640371 -117.766516 
L 153.986334 -119.419237 
L 152.348907 -121.088414 
L 150.728253 -122.773883 
L 149.124534 -124.475473 
L 147.537912 -126.193015 
L 145.968544 -127.926337 
L 144.416587 -129.675266 
L 142.882197 -131.439627 
L 141.365526 -133.219243 
L 139.866728 -135.013937 
L 138.385951 -136.823528 
L 136.923344 -138.647837 
L 135.479053 -140.486681 
L 134.053222 -142.339875 
L 132.645994 -144.207234 
L 131.257509 -146.088572 
L 129.887907 -147.983701 
L 128.537325 -149.892431 
L 127.205897 -151.814571 
L 125.893756 -153.749929 
L 124.601035 -155.698311 
L 123.327862 -157.659523 
L 122.074364 -159.633368 
L 120.840667 -161.61965 
L 119.626894 -163.618168 
L 118.433166 -165.628725 
L 117.259604 -167.651118 
L 116.106324 -169.685145 
L 114.973441 -171.730603 
L 113.86107 -173.787288 
L 112.76932 -175.854993 
L 111.698302 -177.933513 
L 110.648122 -180.022638 
L 109.618885 -182.12216 
L 108.610695 -184.23187 
L 107.623652 -186.351556 
L 106.657855 -188.481006 
L 105.713401 -190.620008 
L 104.790383 -192.768347 
L 103.888894 -194.925808 
L 103.009025 -197.092177 
L 102.150863 -199.267236 
L 101.314494 -201.450767 
L 100.500002 -203.642553 
L 99.707468 -205.842374 
L 98.936972 -208.05001 
L 98.18859 -210.265241 
L 97.462397 -212.487844 
L 96.758467 -214.717599 
L 96.076869 -216.954281 
L 95.417671 -219.197667 
L 94.78094 -221.447532 
L 94.166739 -223.703653 
L 93.575129 -225.965802 
L 93.006171 -228.233755 
L 92.459919 -230.507283 
L 91.93643 -232.78616 
L 91.435756 -235.070159 
L 90.957946 -237.359049 
L 90.503049 -239.652603 
L 90.071109 -241.950592 
L 89.662171 -244.252785 
L 89.276274 -246.558952 
L 88.913458 -248.868862 
L 88.573759 -251.182285 
L 88.257211 -253.49899 
L 87.963846 -255.818744 
L 87.693692 -258.141316 
L 87.446777 -260.466473 
L 87.223125 -262.793983 
L 87.02276 -265.123613 
L 86.8457 -267.45513 
L 86.691964 -269.788301 
L 86.561567 -272.122893 
L 86.454522 -274.458672 
L 86.37084 -276.795404 
L 86.310529 -279.132857 
L 86.273595 -281.470796 
L 86.260042 -283.808987 
L 86.269871 -286.147197 
L 86.303081 -288.485192 
L 86.35967 -290.822738 
L 86.43963 -293.159601 
L 86.542955 -295.495547 
L 86.669634 -297.830344 
L 86.819653 -300.163757 
L 86.993 -302.495553 
L 87.189655 -304.825499 
L 87.409599 -307.153362 
L 87.65281 -309.47891 
L 87.919265 -311.801909 
L 88.208936 -314.122127 
L 88.521794 -316.439333 
L 88.857808 -318.753294 
L 89.216944 -321.063779 
L 89.599167 -323.370558 
L 90.004438 -325.673399 
L 90.432717 -327.972073 
L 90.883961 -330.266348 
L 91.358125 -332.555997 
L 91.855161 -334.84079 
L 92.37502 -337.120498 
L 92.91765 -339.394893 
L 93.482996 -341.663749 
L 94.071002 -343.926838 
L 94.681609 -346.183934 
L 95.314756 -348.434811 
L 95.97038 -350.679244 
L 96.648415 -352.917008 
L 97.348793 -355.147881 
L 98.071445 -357.371638 
L 98.816298 -359.588058 
L 99.583277 -361.796919 
L 100.372307 -363.997999 
L 101.183307 -366.191079 
L 102.016197 -368.37594 
L 102.870894 -370.552363 
L 103.747312 -372.72013 
L 104.645363 -374.879024 
L 105.564958 -377.028831 
L 106.506005 -379.169334 
L 107.468409 -381.30032 
L 108.452075 -383.421575 
L 109.456904 -385.532888 
L 110.482795 -387.634047 
L 111.529647 -389.724842 
L 112.597353 -391.805064 
L 113.685808 -393.874506 
L 114.794903 -395.932959 
L 115.924526 -397.980219 
L 117.074566 -400.016081 
L 118.244906 -402.04034 
L 119.435429 -404.052795 
L 120.646018 -406.053245 
L 121.87655 -408.041489 
L 123.126902 -410.017328 
L 124.396951 -411.980565 
L 125.686567 -413.931004 
L 126.995624 -415.868449 
L 128.323989 -417.792707 
L 129.671529 -419.703585 
L 131.038111 -421.600893 
L 132.423598 -423.48444 
L 133.82785 -425.354038 
L 135.250727 -427.209501 
L 136.692088 -429.050642 
L 138.151788 -430.877278 
L 139.629681 -432.689226 
L 141.125619 -434.486304 
L 142.639453 -436.268334 
L 144.171032 -438.035136 
L 145.720201 -439.786535 
L 147.286807 -441.522354 
L 148.870692 -443.242421 
L 150.471698 -444.946563 
L 152.089666 -446.63461 
L 153.724432 -448.306394 
L 155.375835 -449.961746 
L 157.043708 -451.600502 
L 158.727885 -453.222498 
L 160.428198 -454.827571 
L 162.144476 -456.415561 
L 163.876548 -457.986309 
L 165.624241 -459.539658 
L 167.387379 -461.075452 
L 169.165787 -462.593539 
L 170.959286 -464.093766 
L 172.767698 -465.575984 
L 174.590842 -467.040043 
L 176.428534 -468.485799 
L 178.280593 -469.913105 
L 180.146831 -471.321819 
L 182.027063 -472.711802 
L 183.9211 -474.082912 
L 185.828754 -475.435014 
L 187.749833 -476.767972 
L 189.684145 -478.081653 
L 191.631498 -479.375926 
L 193.591695 -480.650661 
L 195.564541 -481.90573 
L 197.54984 -483.141008 
L 199.547392 -484.356372 
L 201.556997 -485.5517 
L 203.578455 -486.726873 
L 205.611563 -487.881773 
L 207.656118 -489.016284 
L 209.711916 -490.130293 
L 211.778752 -491.223689 
L 213.856417 -492.296362 
L 215.944706 -493.348205 
L 218.043408 -494.379113 
L 220.152314 -495.388983 
L 222.271213 -496.377713 
L 224.399894 -497.345206 
L 226.538143 -498.291364 
L 228.685746 -499.216092 
L 230.842489 -500.119298 
L 233.008156 -501.000892 
L 235.182531 -501.860786 
L 237.365396 -502.698893 
L 239.556532 -503.515131 
L 241.755721 -504.309416 
L 243.962743 -505.08167 
L 246.177377 -505.831816 
L 248.399402 -506.559778 
L 250.628595 -507.265484 
L 252.864733 -507.948863 
L 255.107594 -508.609847 
L 257.356952 -509.24837 
L 259.612582 -509.864367 
L 261.87426 -510.457778 
L 264.141759 -511.028542 
L 266.414851 -511.576604 
L 268.693311 -512.101908 
L 270.97691 -512.604401 
L 273.265419 -513.084033 
L 275.55861 -513.540757 
L 277.856254 -513.974526 
L 280.15812 -514.385298 
L 282.463979 -514.77303 
L 284.7736 -515.137686 
L 287.086752 -515.479227 
L 289.403204 -515.79762 
L 291.722724 -516.092832 
L 294.045079 -516.364836 
L 296.370039 -516.613602 
L 298.69737 -516.839107 
L 301.02684 -517.041328 
L 303.358215 -517.220244 
L 305.691263 -517.375838 
L 308.025751 -517.508094 
L 310.361444 -517.616999 
L 312.698109 -517.702542 
L 315.035513 -517.764714 
L 317.373421 -517.80351 
L 319.711601 -517.818925 
L 320.084002 -517.819221 
L 320.084002 -517.819221 
Q 320.084002 -283.995187 320.084002 -517.819221 
z
" style="stroke: #808080; stroke-opacity: 0.5; stroke-width: 0.1"/>
    </defs>
    <g clip-path="url(#p9d7ca17b07)">
     <use xlink:href="#mb7f1b64e99" x="0" y="567.990375" style="fill: #000080; fill-opacity: 0.5; stroke: #808080; stroke-opacity: 0.5; stroke-width: 0.1"/>
    </g>
   </g>
   <g id="patch_4">
    <path d="M 320.084002 50.171154 
L 322.422203 50.182845 
L 324.760171 50.217917 
L 327.097671 50.276366 
L 329.434469 50.358188 
L 331.770333 50.463373 
L 334.105028 50.591911 
L 336.43832 50.743789 
L 338.769978 50.918992 
L 341.099767 51.117502 
L 343.427454 51.3393 
L 345.752807 51.584363 
L 348.075593 51.852667 
L 350.39558 52.144186 
L 352.712536 52.458889 
L 355.026229 52.796745 
L 357.336428 53.157722 
L 359.642901 53.541782 
L 361.945419 53.948886 
L 364.24375 54.378996 
L 366.537666 54.832067 
L 368.826936 55.308054 
L 371.111333 55.806909 
L 373.390626 56.328583 
L 375.664589 56.873024 
L 377.932994 57.440177 
L 380.195613 58.029984 
L 382.452222 58.642389 
L 384.702594 59.277328 
L 386.946505 59.934739 
L 389.183729 60.614556 
L 391.414043 61.316711 
L 393.637224 62.041133 
L 395.85305 62.78775 
L 398.061299 63.556489 
L 400.26175 64.34727 
L 402.454184 65.160017 
L 404.638381 65.994647 
L 406.814122 66.851076 
L 408.981191 67.72922 
L 411.139369 68.62899 
L 413.288443 69.550297 
L 415.428196 70.493048 
L 417.558414 71.457149 
L 419.678886 72.442504 
L 421.789398 73.449014 
L 423.889739 74.476578 
L 425.9797 75.525094 
L 428.059071 76.594457 
L 430.127645 77.684559 
L 432.185215 78.795293 
L 434.231575 79.926546 
L 436.26652 81.078206 
L 438.289847 82.250158 
L 440.301353 83.442284 
L 442.300838 84.654465 
L 444.288101 85.88658 
L 446.262944 87.138505 
L 448.225169 88.410116 
L 450.17458 89.701286 
L 452.110983 91.011885 
L 454.034182 92.341782 
L 455.943987 93.690844 
L 457.840206 95.058936 
L 459.722649 96.445922 
L 461.591128 97.851662 
L 463.445457 99.276017 
L 465.28545 100.718844 
L 467.110923 102.179998 
L 468.921693 103.659333 
L 470.71758 105.156702 
L 472.498404 106.671954 
L 474.263986 108.204939 
L 476.01415 109.755503 
L 477.748721 111.32349 
L 479.467526 112.908745 
L 481.170393 114.511108 
L 482.857151 116.130419 
L 484.527633 117.766516 
L 486.181669 119.419237 
L 487.819097 121.088414 
L 489.439751 122.773883 
L 491.043469 124.475473 
L 492.630092 126.193015 
L 494.19946 127.926337 
L 495.751417 129.675266 
L 497.285807 131.439627 
L 498.802477 133.219243 
L 500.301276 135.013937 
L 501.782052 136.823528 
L 503.24466 138.647837 
L 504.688951 140.486681 
L 506.114782 142.339875 
L 507.52201 144.207234 
L 508.910494 146.088572 
L 510.280096 147.983701 
L 511.630679 149.892431 
L 512.962107 151.814571 
L 514.274247 153.749929 
L 515.566969 155.698311 
L 516.840142 157.659523 
L 518.09364 159.633368 
L 519.327337 161.61965 
L 520.54111 163.618168 
L 521.734837 165.628725 
L 522.9084 167.651118 
L 524.06168 169.685145 
L 525.194562 171.730603 
L 526.306934 173.787288 
L 527.398684 175.854993 
L 528.469702 177.933513 
L 529.519882 180.022638 
L 530.549118 182.12216 
L 531.557308 184.23187 
L 532.544351 186.351556 
L 533.510148 188.481006 
L 534.454603 190.620008 
L 535.377621 192.768347 
L 536.279109 194.925808 
L 537.158979 197.092177 
L 538.017141 199.267236 
L 538.853509 201.450767 
L 539.668002 203.642553 
L 540.460535 205.842374 
L 541.231032 208.05001 
L 541.979414 210.265241 
L 542.705606 212.487844 
L 543.409537 214.717599 
L 544.091135 216.954281 
L 544.750332 219.197667 
L 545.387064 221.447532 
L 546.001265 223.703653 
L 546.592874 225.965802 
L 547.161833 228.233755 
L 547.708084 230.507283 
L 548.231573 232.78616 
L 548.732248 235.070159 
L 549.210058 237.359049 
L 549.664955 239.652603 
L 550.096894 241.950592 
L 550.505833 244.252785 
L 550.891729 246.558952 
L 551.254545 248.868862 
L 551.594244 251.182285 
L 551.910792 253.49899 
L 552.204158 255.818744 
L 552.474312 258.141316 
L 552.721227 260.466473 
L 552.944878 262.793983 
L 553.145244 265.123613 
L 553.322303 267.45513 
L 553.476039 269.788301 
L 553.606436 272.122893 
L 553.713481 274.458672 
L 553.797164 276.795404 
L 553.857475 279.132857 
L 553.894409 281.470796 
L 553.907962 283.808987 
L 553.898132 286.147197 
L 553.864922 288.485192 
L 553.808334 290.822738 
L 553.728373 293.159601 
L 553.625049 295.495547 
L 553.49837 297.830344 
L 553.34835 300.163757 
L 553.175004 302.495553 
L 552.978349 304.825499 
L 552.758405 307.153362 
L 552.515193 309.47891 
L 552.248739 311.801909 
L 551.959068 314.122127 
L 551.64621 316.439333 
L 551.310196 318.753294 
L 550.951059 321.063779 
L 550.568837 323.370558 
L 550.163565 325.673399 
L 549.735286 327.972073 
L 549.284042 330.266348 
L 548.809878 332.555997 
L 548.312842 334.84079 
L 547.792983 337.120498 
L 547.250354 339.394893 
L 546.685008 341.663749 
L 546.097002 343.926838 
L 545.486395 346.183934 
L 544.853247 348.434811 
L 544.197624 350.679244 
L 543.519589 352.917008 
L 542.81921 355.147881 
L 542.096558 357.371638 
L 541.351706 359.588058 
L 540.584726 361.796919 
L 539.795697 363.997999 
L 538.984697 366.191079 
L 538.151806 368.37594 
L 537.29711 370.552363 
L 536.420692 372.72013 
L 535.52264 374.879024 
L 534.603045 377.028831 
L 533.661999 379.169334 
L 532.699594 381.30032 
L 531.715928 383.421575 
L 530.7111 385.532888 
L 529.685208 387.634047 
L 528.638357 389.724842 
L 527.57065 391.805064 
L 526.482195 393.874506 
L 525.373101 395.932959 
L 524.243477 397.980219 
L 523.093438 400.016081 
L 521.923098 402.04034 
L 520.732574 404.052795 
L 519.521986 406.053245 
L 518.291454 408.041489 
L 517.041101 410.017328 
L 515.771053 411.980565 
L 514.481436 413.931004 
L 513.17238 415.868449 
L 511.844015 417.792707 
L 510.496474 419.703585 
L 509.129892 421.600893 
L 507.744406 423.48444 
L 506.340154 425.354038 
L 504.917276 427.209501 
L 503.475915 429.050642 
L 502.016215 430.877278 
L 500.538322 432.689226 
L 499.042384 434.486304 
L 497.52855 436.268334 
L 495.996972 438.035136 
L 494.447803 439.786535 
L 492.881197 441.522354 
L 491.297312 443.242421 
L 489.696305 444.946563 
L 488.078338 446.63461 
L 486.443571 448.306394 
L 484.792169 449.961746 
L 483.124295 451.600502 
L 481.440118 453.222498 
L 479.739806 454.827571 
L 478.023527 456.415561 
L 476.291456 457.986309 
L 474.543763 459.539658 
L 472.780625 461.075452 
L 471.002217 462.593539 
L 469.208717 464.093766 
L 467.400305 465.575984 
L 465.577162 467.040043 
L 463.739469 468.485799 
L 461.887411 469.913105 
L 460.021173 471.321819 
L 458.140941 472.711802 
L 456.246903 474.082912 
L 454.33925 475.435014 
L 452.418171 476.767972 
L 450.483858 478.081653 
L 448.536506 479.375926 
L 446.576309 480.650661 
L 444.603462 481.90573 
L 442.618164 483.141008 
L 440.620612 484.356372 
L 438.611007 485.5517 
L 436.589549 486.726873 
L 434.556441 487.881773 
L 432.511885 489.016284 
L 430.456087 490.130293 
L 428.389252 491.223689 
L 426.311586 492.296362 
L 424.223298 493.348205 
L 422.124596 494.379113 
L 420.015689 495.388983 
L 417.89679 496.377713 
L 415.76811 497.345206 
L 413.629861 498.291364 
L 411.482258 499.216092 
L 409.325515 500.119298 
L 407.159847 501.000892 
L 404.985473 501.860786 
L 402.802608 502.698893 
L 400.611472 503.515131 
L 398.412282 504.309416 
L 396.20526 505.08167 
L 393.990626 505.831816 
L 391.768602 506.559778 
L 389.539409 507.265484 
L 387.30327 507.948863 
L 385.06041 508.609847 
L 382.811052 509.24837 
L 380.555421 509.864367 
L 378.293744 510.457778 
L 376.026245 511.028542 
L 373.753152 511.576604 
L 371.474693 512.101908 
L 369.191094 512.604401 
L 366.902585 513.084033 
L 364.609393 513.540757 
L 362.31175 513.974526 
L 360.009883 514.385298 
L 357.704024 514.77303 
L 355.394403 515.137686 
L 353.081251 515.479227 
L 350.7648 515.79762 
L 348.44528 516.092832 
L 346.122924 516.364836 
L 343.797964 516.613602 
L 341.470633 516.839107 
L 339.141164 517.041328 
L 336.809788 517.220244 
L 334.47674 517.375838 
L 332.142253 517.508094 
L 329.80656 517.616999 
L 327.469895 517.702542 
L 325.132491 517.764714 
L 322.794582 517.80351 
L 320.456402 517.818925 
L 320.084002 517.819221 
L 320.084002 520.18108 
L 320.460164 520.180781 
L 322.821962 520.16521 
L 325.183486 520.126023 
L 327.5445 520.063222 
L 329.904768 519.976815 
L 332.264054 519.86681 
L 334.622121 519.733218 
L 336.978736 519.576052 
L 339.33366 519.395329 
L 341.68666 519.191066 
L 344.037499 518.963283 
L 346.385944 518.712004 
L 348.731758 518.437253 
L 351.074707 518.139058 
L 353.414557 517.817449 
L 355.751074 517.472458 
L 358.084024 517.10412 
L 360.413175 516.71247 
L 362.738293 516.29755 
L 365.059145 515.859399 
L 367.3755 515.398062 
L 369.687125 514.913585 
L 371.99379 514.406016 
L 374.295265 513.875406 
L 376.591318 513.321809 
L 378.881721 512.745279 
L 381.166244 512.145874 
L 383.444659 511.523654 
L 385.716737 510.878682 
L 387.982253 510.211021 
L 390.240979 509.520739 
L 392.492689 508.807905 
L 394.737158 508.07259 
L 396.974162 507.314867 
L 399.203477 506.534812 
L 401.42488 505.732504 
L 403.63815 504.908022 
L 405.843063 504.061449 
L 408.039401 503.192869 
L 410.226944 502.30237 
L 412.405472 501.39004 
L 414.574769 500.455971 
L 416.734616 499.500257 
L 418.884798 498.522991 
L 421.0251 497.524274 
L 423.155309 496.504203 
L 425.27521 495.462882 
L 427.384592 494.400414 
L 429.483244 493.316906 
L 431.570957 492.212466 
L 433.64752 491.087204 
L 435.712728 489.941233 
L 437.766373 488.774668 
L 439.808249 487.587625 
L 441.838154 486.380223 
L 443.855883 485.152582 
L 445.861234 483.904826 
L 447.854009 482.63708 
L 449.834006 481.349469 
L 451.801029 480.042123 
L 453.754879 478.715172 
L 455.695363 477.36875 
L 457.622286 476.00299 
L 459.535455 474.61803 
L 461.434679 473.214008 
L 463.319769 471.791064 
L 465.190534 470.34934 
L 467.04679 468.888981 
L 468.888349 467.410133 
L 470.715027 465.912944 
L 472.526643 464.397563 
L 474.323015 462.864142 
L 476.103963 461.312834 
L 477.869309 459.743795 
L 479.618876 458.157181 
L 481.35249 456.55315 
L 483.069978 454.931865 
L 484.771167 453.293485 
L 486.455887 451.638176 
L 488.123971 449.966103 
L 489.77525 448.277433 
L 491.409561 446.572335 
L 493.026739 444.850979 
L 494.626623 443.113537 
L 496.209053 441.360184 
L 497.773871 439.591095 
L 499.320919 437.806446 
L 500.850045 436.006417 
L 502.361093 434.191186 
L 503.853915 432.360935 
L 505.328359 430.515849 
L 506.784279 428.65611 
L 508.221529 426.781905 
L 509.639966 424.893422 
L 511.039447 422.990849 
L 512.419833 421.074377 
L 513.780985 419.144197 
L 515.122768 417.200502 
L 516.445047 415.243487 
L 517.74769 413.273346 
L 519.030567 411.290279 
L 520.293549 409.294481 
L 521.536511 407.286154 
L 522.759328 405.265498 
L 523.961877 403.232715 
L 525.144038 401.188009 
L 526.305694 399.131583 
L 527.446728 397.063644 
L 528.567026 394.984398 
L 529.666475 392.894053 
L 530.744967 390.792818 
L 531.802392 388.680904 
L 532.838646 386.558521 
L 533.853625 384.425882 
L 534.847226 382.2832 
L 535.819352 380.130689 
L 536.769904 377.968565 
L 537.698788 375.797043 
L 538.605911 373.616341 
L 539.491182 371.426678 
L 540.354512 369.228271 
L 541.195815 367.021341 
L 542.015007 364.806108 
L 542.812006 362.582795 
L 543.586733 360.351623 
L 544.339109 358.112815 
L 545.069061 355.866595 
L 545.776514 353.613188 
L 546.461398 351.35282 
L 547.123644 349.085716 
L 547.763186 346.812103 
L 548.379961 344.532208 
L 548.973907 342.24626 
L 549.544963 339.954486 
L 550.093074 337.657117 
L 550.618184 335.354382 
L 551.120241 333.04651 
L 551.599194 330.733734 
L 552.054996 328.416284 
L 552.487601 326.094391 
L 552.896966 323.768289 
L 553.28305 321.43821 
L 553.645814 319.104386 
L 553.985222 316.767051 
L 554.30124 314.426439 
L 554.593837 312.082785 
L 554.862983 309.736321 
L 555.108651 307.387283 
L 555.330817 305.035906 
L 555.529459 302.682425 
L 555.704556 300.327076 
L 555.856091 297.970093 
L 555.984049 295.611712 
L 556.088418 293.25217 
L 556.169186 290.891703 
L 556.226346 288.530545 
L 556.259891 286.168935 
L 556.26982 283.807106 
L 556.25613 281.445297 
L 556.218823 279.083743 
L 556.157903 276.722679 
L 556.073375 274.362343 
L 555.965249 272.00297 
L 555.833535 269.644797 
L 555.678246 267.288058 
L 555.499398 264.932991 
L 555.297008 262.579829 
L 555.071098 260.228809 
L 554.821689 257.880165 
L 554.548806 255.534133 
L 554.252477 253.190947 
L 553.932731 250.850842 
L 553.589601 248.514051 
L 553.22312 246.180808 
L 552.833326 243.851346 
L 552.420257 241.525899 
L 551.983955 239.204698 
L 551.524462 236.887977 
L 551.041826 234.575966 
L 550.536094 232.268898 
L 550.007317 229.967001 
L 549.455549 227.670508 
L 548.880843 225.379647 
L 548.283257 223.094647 
L 547.662852 220.815738 
L 547.019689 218.543146 
L 546.353833 216.2771 
L 545.66535 214.017825 
L 544.954309 211.765548 
L 544.220781 209.520494 
L 543.46484 207.282887 
L 542.686561 205.052951 
L 541.886022 202.83091 
L 541.063302 200.616985 
L 540.218485 198.411398 
L 539.351655 196.214369 
L 538.462898 194.026118 
L 537.552304 191.846864 
L 536.619963 189.676824 
L 535.665968 187.516217 
L 534.690415 185.365257 
L 533.693402 183.22416 
L 532.675028 181.09314 
L 531.635396 178.97241 
L 530.574608 176.862183 
L 529.492771 174.762668 
L 528.389994 172.674077 
L 527.266386 170.596618 
L 526.12206 168.530498 
L 524.957131 166.475925 
L 523.771714 164.433104 
L 522.565929 162.402239 
L 521.339896 160.383533 
L 520.093737 158.377188 
L 518.827578 156.383405 
L 517.541544 154.402383 
L 516.235765 152.43432 
L 514.91037 150.479413 
L 513.565494 148.537858 
L 512.201269 146.609848 
L 510.817833 144.695576 
L 509.415323 142.795235 
L 507.993881 140.909013 
L 506.553647 139.0371 
L 505.094767 137.179682 
L 503.617386 135.336946 
L 502.121652 133.509076 
L 500.607714 131.696254 
L 499.075724 129.898662 
L 497.525835 128.116479 
L 495.958202 126.349884 
L 494.372982 124.599054 
L 492.770332 122.864163 
L 491.150415 121.145384 
L 489.513391 119.442891 
L 487.859424 117.756853 
L 486.188679 116.087439 
L 484.501325 114.434815 
L 482.797528 112.799147 
L 481.077461 111.180599 
L 479.341294 109.579332 
L 477.589202 107.995506 
L 475.821359 106.42928 
L 474.037943 104.880811 
L 472.239131 103.350253 
L 470.425105 101.837759 
L 468.596044 100.343481 
L 466.752132 98.867568 
L 464.893553 97.410167 
L 463.020493 95.971425 
L 461.13314 94.551485 
L 459.231682 93.150489 
L 457.31631 91.768578 
L 455.387214 90.405889 
L 453.444589 89.062558 
L 451.488627 87.738721 
L 449.519525 86.43451 
L 447.537479 85.150054 
L 445.542688 83.885483 
L 443.535352 82.640922 
L 441.51567 81.416497 
L 439.483845 80.212329 
L 437.440081 79.02854 
L 435.384581 77.865247 
L 433.317551 76.722567 
L 431.239197 75.600613 
L 429.149729 74.4995 
L 427.049353 73.419335 
L 424.938282 72.360228 
L 422.816725 71.322285 
L 420.684895 70.305608 
L 418.543004 69.3103 
L 416.391268 68.336461 
L 414.229902 67.384187 
L 412.059121 66.453574 
L 409.879142 65.544715 
L 407.690184 64.657701 
L 405.492465 63.792621 
L 403.286206 62.949561 
L 401.071627 62.128605 
L 398.848948 61.329835 
L 396.618394 60.553332 
L 394.380186 59.799173 
L 392.134548 59.067433 
L 389.881706 58.358186 
L 387.621883 57.671502 
L 385.355307 57.007451 
L 383.082204 56.366098 
L 380.802801 55.747508 
L 378.517327 55.151742 
L 376.226009 54.578861 
L 373.929077 54.028921 
L 371.62676 53.501977 
L 369.319289 52.998083 
L 367.006895 52.517288 
L 364.689809 52.05964 
L 362.368261 51.625186 
L 360.042486 51.213969 
L 357.712715 50.82603 
L 355.379181 50.461408 
L 353.042117 50.120138 
L 350.701758 49.802256 
L 348.358336 49.507793 
L 346.012088 49.236779 
L 343.663246 48.98924 
L 341.312047 48.765202 
L 338.958725 48.564686 
L 336.603516 48.387714 
L 334.246654 48.234302 
L 331.888377 48.104466 
L 329.528918 47.998218 
L 327.168516 47.91557 
L 324.807405 47.85653 
L 322.445821 47.821104 
L 320.084002 47.809295 
L 320.084002 50.171154 
z
" clip-path="url(#p9d7ca17b07)" style="fill: none; stroke: #000000; stroke-width: 0.5; stroke-linejoin: miter"/>
   </g>
   <g id="patch_5">
    <path d="M 320.084002 517.819221 
L 317.7458 517.80753 
L 315.407833 517.772458 
L 313.070333 517.714009 
L 310.733534 517.632187 
L 308.397671 517.527002 
L 306.062976 517.398464 
L 303.729683 517.246586 
L 301.398026 517.071383 
L 299.068237 516.872873 
L 296.74055 516.651075 
L 294.415197 516.406012 
L 292.092411 516.137708 
L 289.772424 515.846189 
L 287.455468 515.531486 
L 285.141775 515.19363 
L 282.831576 514.832653 
L 280.525102 514.448593 
L 278.222585 514.041489 
L 275.924253 513.611379 
L 273.630337 513.158308 
L 271.341067 512.682321 
L 269.056671 512.183466 
L 266.777378 511.661792 
L 264.503415 511.117351 
L 262.23501 510.550198 
L 259.97239 509.960391 
L 257.715781 509.347986 
L 255.465409 508.713047 
L 253.221499 508.055636 
L 250.984275 507.375819 
L 248.753961 506.673664 
L 246.53078 505.949242 
L 244.314954 505.202625 
L 242.106705 504.433886 
L 239.906253 503.643105 
L 237.71382 502.830358 
L 235.529623 501.995728 
L 233.353881 501.139299 
L 231.186813 500.261155 
L 229.028634 499.361385 
L 226.879561 498.440078 
L 224.739808 497.497327 
L 222.609589 496.533226 
L 220.489118 495.547871 
L 218.378606 494.541361 
L 216.278265 493.513797 
L 214.188304 492.465281 
L 212.108932 491.395918 
L 210.040358 490.305816 
L 207.982788 489.195082 
L 205.936429 488.063829 
L 203.901484 486.912169 
L 201.878157 485.740217 
L 199.86665 484.548091 
L 197.867165 483.33591 
L 195.879902 482.103795 
L 193.905059 480.85187 
L 191.942834 479.580259 
L 189.993423 478.289089 
L 188.057021 476.97849 
L 186.133821 475.648593 
L 184.224017 474.299531 
L 182.327798 472.931439 
L 180.445355 471.544453 
L 178.576875 470.138713 
L 176.722546 468.714358 
L 174.882553 467.271531 
L 173.05708 465.810377 
L 171.24631 464.331042 
L 169.450423 462.833673 
L 167.6696 461.318421 
L 165.904018 459.785436 
L 164.153854 458.234872 
L 162.419282 456.666885 
L 160.700477 455.08163 
L 158.99761 453.479267 
L 157.310852 451.859956 
L 155.640371 450.223859 
L 153.986334 448.571138 
L 152.348907 446.901961 
L 150.728253 445.216492 
L 149.124534 443.514902 
L 147.537912 441.79736 
L 145.968544 440.064038 
L 144.416587 438.315109 
L 142.882197 436.550748 
L 141.365526 434.771132 
L 139.866728 432.976438 
L 138.385951 431.166847 
L 136.923344 429.342538 
L 135.479053 427.503694 
L 134.053222 425.6505 
L 132.645994 423.783141 
L 131.257509 421.901803 
L 129.887907 420.006674 
L 128.537325 418.097944 
L 127.205897 416.175804 
L 125.893756 414.240446 
L 124.601035 412.292064 
L 123.327862 410.330852 
L 122.074364 408.357007 
L 120.840667 406.370725 
L 119.626894 404.372207 
L 118.433166 402.36165 
L 117.259604 400.339257 
L 116.106324 398.30523 
L 114.973441 396.259772 
L 113.86107 394.203087 
L 112.76932 392.135382 
L 111.698302 390.056862 
L 110.648122 387.967737 
L 109.618885 385.868215 
L 108.610695 383.758505 
L 107.623652 381.638819 
L 106.657855 379.509369 
L 105.713401 377.370367 
L 104.790383 375.222028 
L 103.888894 373.064567 
L 103.009025 370.898198 
L 102.150863 368.723139 
L 101.314494 366.539608 
L 100.500002 364.347822 
L 99.707468 362.148001 
L 98.936972 359.940365 
L 98.18859 357.725134 
L 97.462397 355.502531 
L 96.758467 353.272776 
L 96.076869 351.036094 
L 95.417671 348.792708 
L 94.78094 346.542843 
L 94.166739 344.286722 
L 93.575129 342.024573 
L 93.006171 339.75662 
L 92.459919 337.483092 
L 91.93643 335.204215 
L 91.435756 332.920216 
L 90.957946 330.631326 
L 90.503049 328.337772 
L 90.071109 326.039783 
L 89.662171 323.73759 
L 89.276274 321.431423 
L 88.913458 319.121513 
L 88.573759 316.80809 
L 88.257211 314.491385 
L 87.963846 312.171631 
L 87.693692 309.849059 
L 87.446777 307.523902 
L 87.223125 305.196392 
L 87.02276 302.866762 
L 86.8457 300.535245 
L 86.691964 298.202074 
L 86.561567 295.867482 
L 86.454522 293.531703 
L 86.37084 291.194971 
L 86.310529 288.857518 
L 86.273595 286.519579 
L 86.260042 284.181388 
L 86.269871 281.843178 
L 86.303081 279.505183 
L 86.35967 277.167637 
L 86.43963 274.830774 
L 86.542955 272.494828 
L 86.669634 270.160031 
L 86.819653 267.826618 
L 86.993 265.494822 
L 87.189655 263.164876 
L 87.409599 260.837013 
L 87.65281 258.511465 
L 87.919265 256.188466 
L 88.208936 253.868248 
L 88.521794 251.551042 
L 88.857808 249.237081 
L 89.216944 246.926596 
L 89.599167 244.619817 
L 90.004438 242.316976 
L 90.432717 240.018302 
L 90.883961 237.724027 
L 91.358125 235.434378 
L 91.855161 233.149585 
L 92.37502 230.869877 
L 92.91765 228.595482 
L 93.482996 226.326626 
L 94.071002 224.063537 
L 94.681609 221.806441 
L 95.314756 219.555564 
L 95.97038 217.311131 
L 96.648415 215.073367 
L 97.348793 212.842494 
L 98.071445 210.618737 
L 98.816298 208.402317 
L 99.583277 206.193456 
L 100.372307 203.992376 
L 101.183307 201.799296 
L 102.016197 199.614435 
L 102.870894 197.438012 
L 103.747312 195.270245 
L 104.645363 193.111351 
L 105.564958 190.961544 
L 106.506005 188.821041 
L 107.468409 186.690055 
L 108.452075 184.5688 
L 109.456904 182.457487 
L 110.482795 180.356328 
L 111.529647 178.265533 
L 112.597353 176.185311 
L 113.685808 174.115869 
L 114.794903 172.057416 
L 115.924526 170.010156 
L 117.074566 167.974294 
L 118.244906 165.950035 
L 119.435429 163.93758 
L 120.646018 161.93713 
L 121.87655 159.948886 
L 123.126902 157.973047 
L 124.396951 156.00981 
L 125.686567 154.059371 
L 126.995624 152.121926 
L 128.323989 150.197668 
L 129.671529 148.28679 
L 131.038111 146.389482 
L 132.423598 144.505935 
L 133.82785 142.636337 
L 135.250727 140.780874 
L 136.692088 138.939733 
L 138.151788 137.113097 
L 139.629681 135.301149 
L 141.125619 133.504071 
L 142.639453 131.722041 
L 144.171032 129.955239 
L 145.720201 128.20384 
L 147.286807 126.468021 
L 148.870692 124.747954 
L 150.471698 123.043812 
L 152.089666 121.355765 
L 153.724432 119.683981 
L 155.375835 118.028629 
L 157.043708 116.389873 
L 158.727885 114.767877 
L 160.428198 113.162804 
L 162.144476 111.574814 
L 163.876548 110.004066 
L 165.624241 108.450717 
L 167.387379 106.914923 
L 169.165787 105.396836 
L 170.959286 103.896609 
L 172.767698 102.414391 
L 174.590842 100.950332 
L 176.428534 99.504576 
L 178.280593 98.07727 
L 180.146831 96.668556 
L 182.027063 95.278573 
L 183.9211 93.907463 
L 185.828754 92.555361 
L 187.749833 91.222403 
L 189.684145 89.908722 
L 191.631498 88.614449 
L 193.591695 87.339714 
L 195.564541 86.084645 
L 197.54984 84.849367 
L 199.547392 83.634003 
L 201.556997 82.438675 
L 203.578455 81.263502 
L 205.611563 80.108602 
L 207.656118 78.974091 
L 209.711916 77.860082 
L 211.778752 76.766686 
L 213.856417 75.694013 
L 215.944706 74.64217 
L 218.043408 73.611262 
L 220.152314 72.601392 
L 222.271213 71.612662 
L 224.399894 70.645169 
L 226.538143 69.699011 
L 228.685746 68.774283 
L 230.842489 67.871077 
L 233.008156 66.989483 
L 235.182531 66.129589 
L 237.365396 65.291482 
L 239.556532 64.475244 
L 241.755721 63.680959 
L 243.962743 62.908705 
L 246.177377 62.158559 
L 248.399402 61.430597 
L 250.628595 60.724891 
L 252.864733 60.041512 
L 255.107594 59.380528 
L 257.356952 58.742005 
L 259.612582 58.126008 
L 261.87426 57.532597 
L 264.141759 56.961833 
L 266.414851 56.413771 
L 268.693311 55.888467 
L 270.97691 55.385974 
L 273.265419 54.906342 
L 275.55861 54.449618 
L 277.856254 54.015849 
L 280.15812 53.605077 
L 282.463979 53.217345 
L 284.7736 52.852689 
L 287.086752 52.511148 
L 289.403204 52.192755 
L 291.722724 51.897543 
L 294.045079 51.625539 
L 296.370039 51.376773 
L 298.69737 51.151268 
L 301.02684 50.949047 
L 303.358215 50.770131 
L 305.691263 50.614537 
L 308.025751 50.482281 
L 310.361444 50.373376 
L 312.698109 50.287833 
L 315.035513 50.225661 
L 317.373421 50.186865 
L 319.711601 50.17145 
L 320.084002 50.171154 
L 320.084002 47.809295 
L 319.70784 47.809594 
L 317.346042 47.825165 
L 314.984518 47.864352 
L 312.623504 47.927153 
L 310.263236 48.01356 
L 307.90395 48.123565 
L 305.545882 48.257157 
L 303.189268 48.414323 
L 300.834343 48.595046 
L 298.481344 48.799309 
L 296.130504 49.027092 
L 293.78206 49.278371 
L 291.436246 49.553122 
L 289.093297 49.851317 
L 286.753447 50.172926 
L 284.41693 50.517917 
L 282.083979 50.886255 
L 279.754829 51.277905 
L 277.429711 51.692825 
L 275.108859 52.130976 
L 272.792504 52.592313 
L 270.480878 53.07679 
L 268.174213 53.584359 
L 265.872739 54.114969 
L 263.576685 54.668566 
L 261.286283 55.245096 
L 259.00176 55.844501 
L 256.723345 56.466721 
L 254.451266 57.111693 
L 252.185751 57.779354 
L 249.927025 58.469636 
L 247.675315 59.18247 
L 245.430846 59.917785 
L 243.193842 60.675508 
L 240.964526 61.455563 
L 238.743123 62.257871 
L 236.529854 63.082353 
L 234.32494 63.928926 
L 232.128602 64.797506 
L 229.94106 65.688005 
L 227.762531 66.600335 
L 225.593235 67.534404 
L 223.433388 68.490118 
L 221.283205 69.467384 
L 219.142903 70.466101 
L 217.012695 71.486172 
L 214.892794 72.527493 
L 212.783412 73.589961 
L 210.684759 74.673469 
L 208.597047 75.777909 
L 206.520483 76.903171 
L 204.455276 78.049142 
L 202.401631 79.215707 
L 200.359754 80.40275 
L 198.32985 81.610152 
L 196.312121 82.837793 
L 194.306769 84.085549 
L 192.313995 85.353295 
L 190.333998 86.640906 
L 188.366975 87.948252 
L 186.413124 89.275203 
L 184.47264 90.621625 
L 182.545717 91.987385 
L 180.632548 93.372345 
L 178.733324 94.776367 
L 176.848235 96.199311 
L 174.977469 97.641035 
L 173.121214 99.101394 
L 171.279655 100.580242 
L 169.452976 102.077431 
L 167.64136 103.592812 
L 165.844989 105.126233 
L 164.064041 106.677541 
L 162.298695 108.24658 
L 160.549127 109.833194 
L 158.815513 111.437225 
L 157.098026 113.05851 
L 155.396837 114.69689 
L 153.712116 116.352199 
L 152.044033 118.024272 
L 150.392753 119.712942 
L 148.758443 121.41804 
L 147.141264 123.139396 
L 145.54138 124.876838 
L 143.95895 126.630191 
L 142.394133 128.39928 
L 140.847084 130.183929 
L 139.317959 131.983958 
L 137.80691 133.799189 
L 136.314089 135.62944 
L 134.839645 137.474526 
L 133.383725 139.334265 
L 131.946475 141.20847 
L 130.528038 143.096953 
L 129.128557 144.999526 
L 127.748171 146.915998 
L 126.387019 148.846178 
L 125.045236 150.789873 
L 123.722957 152.746888 
L 122.420314 154.717029 
L 121.137437 156.700096 
L 119.874454 158.695894 
L 118.631493 160.704221 
L 117.408676 162.724877 
L 116.206127 164.75766 
L 115.023965 166.802366 
L 113.862309 168.858792 
L 112.721276 170.926731 
L 111.600978 173.005977 
L 110.501528 175.096322 
L 109.423037 177.197557 
L 108.365611 179.309471 
L 107.329358 181.431854 
L 106.314379 183.564493 
L 105.320777 185.707175 
L 104.348651 187.859686 
L 103.398099 190.02181 
L 102.469215 192.193332 
L 101.562093 194.374034 
L 100.676822 196.563697 
L 99.813492 198.762104 
L 98.972189 200.969034 
L 98.152997 203.184267 
L 97.355997 205.40758 
L 96.581271 207.638752 
L 95.828894 209.87756 
L 95.098943 212.12378 
L 94.39149 214.377187 
L 93.706606 216.637555 
L 93.04436 218.904659 
L 92.404817 221.178272 
L 91.788042 223.458167 
L 91.194097 225.744115 
L 90.62304 228.035889 
L 90.07493 230.333258 
L 89.54982 232.635993 
L 89.047763 234.943865 
L 88.568809 237.256641 
L 88.113007 239.574091 
L 87.680402 241.895984 
L 87.271037 244.222086 
L 86.884954 246.552165 
L 86.522189 248.885989 
L 86.182781 251.223324 
L 85.866763 253.563936 
L 85.574166 255.90759 
L 85.305021 258.254054 
L 85.059352 260.603092 
L 84.837186 262.954469 
L 84.638545 265.30795 
L 84.463448 267.663299 
L 84.311913 270.020282 
L 84.183954 272.378663 
L 84.079586 274.738205 
L 83.998818 277.098672 
L 83.941658 279.45983 
L 83.908112 281.82144 
L 83.898184 284.183269 
L 83.911874 286.545078 
L 83.949181 288.906632 
L 84.010101 291.267696 
L 84.094629 293.628032 
L 84.202755 295.987405 
L 84.334469 298.345578 
L 84.489758 300.702317 
L 84.668606 303.057384 
L 84.870995 305.410546 
L 85.096906 307.761566 
L 85.346315 310.11021 
L 85.619198 312.456242 
L 85.915527 314.799428 
L 86.235272 317.139533 
L 86.578402 319.476324 
L 86.944883 321.809567 
L 87.334677 324.139029 
L 87.747747 326.464476 
L 88.184049 328.785677 
L 88.643541 331.102398 
L 89.126178 333.414409 
L 89.631909 335.721477 
L 90.160686 338.023374 
L 90.712455 340.319867 
L 91.287161 342.610728 
L 91.884746 344.895728 
L 92.505151 347.174637 
L 93.148314 349.447229 
L 93.81417 351.713275 
L 94.502653 353.97255 
L 95.213694 356.224827 
L 95.947222 358.469881 
L 96.703163 360.707488 
L 97.481443 362.937424 
L 98.281982 365.159465 
L 99.104701 367.37339 
L 99.949518 369.578977 
L 100.816348 371.776006 
L 101.705105 373.964257 
L 102.6157 376.143511 
L 103.548041 378.313551 
L 104.502036 380.474158 
L 105.477588 382.625118 
L 106.474601 384.766215 
L 107.492975 386.897235 
L 108.532608 389.017965 
L 109.593396 391.128192 
L 110.675232 393.227707 
L 111.77801 395.316298 
L 112.901617 397.393757 
L 114.045943 399.459877 
L 115.210873 401.51445 
L 116.396289 403.557271 
L 117.602075 405.588136 
L 118.828108 407.606842 
L 120.074266 409.613187 
L 121.340426 411.60697 
L 122.62646 413.587992 
L 123.932239 415.556055 
L 125.257633 417.510962 
L 126.60251 419.452517 
L 127.966735 421.380527 
L 129.350171 423.294799 
L 130.75268 425.19514 
L 132.174123 427.081362 
L 133.614356 428.953275 
L 135.073236 430.810693 
L 136.550617 432.653429 
L 138.046352 434.481299 
L 139.560289 436.294121 
L 141.092279 438.091713 
L 142.642169 439.873896 
L 144.209802 441.640491 
L 145.795022 443.391321 
L 147.397671 445.126212 
L 149.017589 446.844991 
L 150.654613 448.547484 
L 152.30858 450.233522 
L 153.979324 451.902936 
L 155.666679 453.55556 
L 157.370475 455.191228 
L 159.090543 456.809776 
L 160.826709 458.411043 
L 162.578802 459.994869 
L 164.346644 461.561095 
L 166.130061 463.109564 
L 167.928872 464.640122 
L 169.742899 466.152616 
L 171.57196 467.646894 
L 173.415872 469.122807 
L 175.274451 470.580208 
L 177.14751 472.01895 
L 179.034863 473.43889 
L 180.936321 474.839886 
L 182.851694 476.221797 
L 184.780789 477.584486 
L 186.723415 478.927817 
L 188.679377 480.251654 
L 190.648479 481.555865 
L 192.630525 482.840321 
L 194.625315 484.104892 
L 196.632652 485.349453 
L 198.652334 486.573878 
L 200.684158 487.778046 
L 202.727923 488.961835 
L 204.783423 490.125128 
L 206.850453 491.267808 
L 208.928806 492.389762 
L 211.018275 493.490875 
L 213.11865 494.57104 
L 215.229722 495.630147 
L 217.351279 496.66809 
L 219.483109 497.684767 
L 221.624999 498.680075 
L 223.776735 499.653914 
L 225.938102 500.606188 
L 228.108883 501.536801 
L 230.288862 502.44566 
L 232.47782 503.332674 
L 234.675538 504.197754 
L 236.881797 505.040814 
L 239.096377 505.86177 
L 241.319055 506.66054 
L 243.54961 507.437043 
L 245.787818 508.191202 
L 248.033455 508.922942 
L 250.286298 509.632189 
L 252.54612 510.318873 
L 254.812696 510.982924 
L 257.085799 511.624277 
L 259.365202 512.242867 
L 261.650677 512.838633 
L 263.941995 513.411514 
L 266.238927 513.961454 
L 268.541243 514.488398 
L 270.848714 514.992292 
L 273.161109 515.473087 
L 275.478195 515.930735 
L 277.799742 516.365189 
L 280.125518 516.776406 
L 282.455289 517.164345 
L 284.788823 517.528967 
L 287.125887 517.870237 
L 289.466246 518.188119 
L 291.809667 518.482582 
L 294.155916 518.753596 
L 296.504757 519.001135 
L 298.855956 519.225173 
L 301.209278 519.425689 
L 303.564488 519.602661 
L 305.921349 519.756073 
L 308.279627 519.885909 
L 310.639085 519.992157 
L 312.999488 520.074805 
L 315.360599 520.133845 
L 317.722182 520.169271 
L 320.084002 520.18108 
L 320.084002 517.819221 
z
" clip-path="url(#p9d7ca17b07)" style="fill: none; stroke: #000000; stroke-width: 0.5; stroke-linejoin: miter"/>
   </g>
   <g id="text_1">
    <text style="font: 3px 'DejaVu Sans', 'Bitstream Vera Sans', 'Computer Modern Sans Serif', 'Lucida Grande', 'Verdana', 'Geneva', 'Lucid', 'Arial', 'Helvetica', 'Avant Garde', sans-serif; text-anchor: start" x="558.631754" y="285.134953" transform="rotate(-0 558.631754 285.134953)">Universit du Burundi</text>
   </g>
   <g id="text_2">
    <text style="font: 3px 'DejaVu Sans', 'Bitstream Vera Sans', 'Computer Modern Sans Serif', 'Lucida Grande', 'Verdana', 'Geneva', 'Lucid', 'Arial', 'Helvetica', 'Avant Garde', sans-serif; text-anchor: end" x="81.53625" y="285.194953" transform="rotate(-0 81.53625 285.194953)">Ministre de la Sant Publique</text>
   </g>
  </g>
 </g>
 <defs>
  <clipPath id="p9d7ca17b07">
   <path d="M 568.079189 283.995187 
C 568.079189 251.428758 561.664313 219.178996 549.20168 189.091538 
C 536.739047 159.00408 518.471024 131.664052 495.443081 108.636109 
C 472.415137 85.608165 445.075109 67.340143 414.987651 54.87751 
C 384.900194 42.414877 352.650431 36 320.084002 36 
C 287.517572 36 255.26781 42.414877 225.180352 54.87751 
C 195.092894 67.340143 167.752866 85.608165 144.724923 108.636109 
C 121.69698 131.664052 103.428957 159.00408 90.966324 189.091538 
C 78.503691 219.178996 72.088814 251.428758 72.088814 283.995187 
C 72.088814 316.561617 78.503691 348.811379 90.966324 378.898837 
C 103.428957 408.986295 121.69698 436.326323 144.724923 459.354266 
C 167.752866 482.38221 195.092894 500.650232 225.180352 513.112865 
C 255.26781 525.575498 287.517572 531.990375 320.084002 531.990375 
C 352.650431 531.990375 384.900194 525.575498 414.987651 513.112865 
C 445.075109 500.650232 472.415137 482.38221 495.443081 459.354266 
C 518.471024 436.326323 536.739047 408.986295 549.20168 378.898837 
C 561.664313 348.811379 568.079189 316.561617 568.079189 283.995187 
M 320.084002 283.995187 
C 320.084002 283.995187 320.084002 283.995187 320.084002 283.995187 
C 320.084002 283.995187 320.084002 283.995187 320.084002 283.995187 
C 320.084002 283.995187 320.084002 283.995187 320.084002 283.995187 
C 320.084002 283.995187 320.084002 283.995187 320.084002 283.995187 
C 320.084002 283.995187 320.084002 283.995187 320.084002 283.995187 
C 320.084002 283.995187 320.084002 283.995187 320.084002 283.995187 
C 320.084002 283.995187 320.084002 283.995187 320.084002 283.995187 
C 320.084002 283.995187 320.084002 283.995187 320.084002 283.995187 
C 320.084002 283.995187 320.084002 283.995187 320.084002 283.995187 
C 320.084002 283.995187 320.084002 283.995187 320.084002 283.995187 
C 320.084002 283.995187 320.084002 283.995187 320.084002 283.995187 
C 320.084002 283.995187 320.084002 283.995187 320.084002 283.995187 
C 320.084002 283.995187 320.084002 283.995187 320.084002 283.995187 
C 320.084002 283.995187 320.084002 283.995187 320.084002 283.995187 
C 320.084002 283.995187 320.084002 283.995187 320.084002 283.995187 
C 320.084002 283.995187 320.084002 283.995187 320.084002 283.995187 
z
"/>
  </clipPath>
 </defs>
</svg>
