<?xml version="1.0" encoding="utf-8" standalone="no"?>
<!DOCTYPE svg PUBLIC "-//W3C//DTD SVG 1.1//EN"
  "http://www.w3.org/Graphics/SVG/1.1/DTD/svg11.dtd">
<svg xmlns:xlink="http://www.w3.org/1999/xlink" width="626.66039pt" height="605.12353pt" viewBox="0 0 626.66039 605.12353" xmlns="http://www.w3.org/2000/svg" version="1.1">
 <metadata>
  <rdf:RDF xmlns:dc="http://purl.org/dc/elements/1.1/" xmlns:cc="http://creativecommons.org/ns#" xmlns:rdf="http://www.w3.org/1999/02/22-rdf-syntax-ns#">
   <cc:Work>
    <dc:type rdf:resource="http://purl.org/dc/dcmitype/StillImage"/>
    <dc:date>2024-11-16T04:02:56.777579</dc:date>
    <dc:format>image/svg+xml</dc:format>
    <dc:creator>
     <cc:Agent>
      <dc:title>Matplotlib v3.8.4, https://matplotlib.org/</dc:title>
     </cc:Agent>
    </dc:creator>
   </cc:Work>
  </rdf:RDF>
 </metadata>
 <defs>
  <style type="text/css">*{stroke-linejoin: round; stroke-linecap: butt}</style>
 </defs>
 <g id="figure_1">
  <g id="patch_1">
   <path d="M 0 605.12353 
L 626.66039 605.12353 
L 626.66039 0 
L 0 0 
z
" style="fill: #ffffff"/>
  </g>
  <g id="axes_1">
   <g id="patch_2">
    <path d="M 302.100085 96.987703 
L 304.391294 96.999159 
L 306.682274 97.033527 
L 308.972796 97.090802 
L 311.26263 97.170979 
L 313.551549 97.274049 
L 315.839322 97.400004 
L 318.125721 97.54883 
L 320.410518 97.720511 
L 322.693484 97.915032 
L 324.97439 98.132372 
L 327.253009 98.372511 
L 329.529113 98.635423 
L 331.802474 98.921082 
L 334.072864 99.22946 
L 336.340058 99.560527 
L 338.603827 99.914249 
L 340.863946 100.29059 
L 343.120189 100.689513 
L 345.37233 101.110978 
L 347.620143 101.554943 
L 349.863405 102.021364 
L 352.10189 102.510194 
L 354.335375 103.021384 
L 356.563637 103.554882 
L 358.786452 104.110636 
L 361.003599 104.688591 
L 363.214856 105.288687 
L 365.420001 105.910866 
L 367.618814 106.555064 
L 369.811075 107.221218 
L 371.996565 107.909262 
L 372.903523 108.201866 
L 373.618709 106.000749 
L 372.70259 105.705189 
L 370.495024 105.010196 
L 368.280619 104.337313 
L 366.059596 103.686607 
L 363.832177 103.058144 
L 361.598584 102.451986 
L 359.359042 101.868194 
L 357.113774 101.306826 
L 354.863005 100.767939 
L 352.606959 100.251585 
L 350.345863 99.757818 
L 348.079942 99.286686 
L 345.809423 98.838236 
L 343.534534 98.412514 
L 341.2555 98.009561 
L 338.972552 97.629418 
L 336.685916 97.272124 
L 334.395822 96.937713 
L 332.102498 96.62622 
L 329.806174 96.337675 
L 327.507079 96.072107 
L 325.205444 95.829544 
L 322.901498 95.610008 
L 320.595472 95.413522 
L 318.287596 95.240106 
L 315.978102 95.089777 
L 313.66722 94.962551 
L 311.355181 94.858438 
L 309.042217 94.777452 
L 306.728559 94.719598 
L 304.414437 94.684884 
L 302.100085 94.673312 
z
" clip-path="url(#pe0be878c1d)" style="fill: #000080"/>
   </g>
   <g id="patch_3">
    <path d="M 372.903523 108.201866 
L 375.079052 108.920784 
L 377.247284 109.661421 
L 379.408001 110.423703 
L 381.560987 111.207554 
L 383.706027 112.012895 
L 385.842906 112.839645 
L 387.971412 113.687723 
L 390.09133 114.557043 
L 392.202449 115.447519 
L 394.304558 116.359061 
L 396.397447 117.291577 
L 398.480906 118.244976 
L 400.554727 119.219162 
L 402.618702 120.214036 
L 404.672626 121.229501 
L 406.716293 122.265453 
L 408.749498 123.32179 
L 410.772038 124.398406 
L 412.783712 125.495193 
L 414.784317 126.612041 
L 416.773653 127.74884 
L 418.751523 128.905475 
L 420.717727 130.08183 
L 422.672069 131.277788 
L 424.614355 132.493229 
L 426.544389 133.728032 
L 428.461979 134.982074 
L 430.366933 136.255228 
L 432.25906 137.547368 
L 434.138172 138.858364 
L 436.004079 140.188086 
L 436.776228 140.746635 
L 438.136593 138.874253 
L 437.356645 138.310062 
L 435.47189 136.966909 
L 433.573797 135.64267 
L 431.662558 134.337478 
L 429.738362 133.051464 
L 427.801402 131.784756 
L 425.851873 130.53748 
L 423.889968 129.309761 
L 421.915885 128.101723 
L 419.92982 126.913485 
L 417.931972 125.745167 
L 415.922541 124.596886 
L 413.901728 123.468756 
L 411.869735 122.36089 
L 409.826765 121.273399 
L 407.773022 120.206392 
L 405.708713 119.159976 
L 403.634042 118.134254 
L 401.549218 117.129331 
L 399.454449 116.145305 
L 397.349945 115.182276 
L 395.235916 114.240339 
L 393.112574 113.31959 
L 390.98013 112.42012 
L 388.838799 111.542019 
L 386.688793 110.685375 
L 384.530329 109.850273 
L 382.363622 109.036797 
L 380.188889 108.245029 
L 378.006346 107.475047 
L 375.816214 106.726929 
L 373.618709 106.000749 
z
" clip-path="url(#pe0be878c1d)" style="fill: #00d4ff"/>
   </g>
   <g id="patch_4">
    <path d="M 436.776228 140.746635 
L 438.623121 142.102642 
L 440.456362 143.47705 
L 442.275768 144.869721 
L 444.081156 146.280517 
L 445.872346 147.709295 
L 447.64916 149.155914 
L 449.411418 150.620228 
L 451.158945 152.102092 
L 452.891567 153.601356 
L 454.60911 155.117871 
L 456.311402 156.651485 
L 457.998272 158.202046 
L 459.669554 159.769397 
L 461.325078 161.353383 
L 462.96468 162.953844 
L 464.588195 164.570621 
L 466.195462 166.203552 
L 467.78632 167.852474 
L 469.360609 169.517222 
L 470.918172 171.197629 
L 472.458854 172.893527 
L 473.982499 174.604747 
L 475.488957 176.331118 
L 476.978076 178.072467 
L 478.449707 179.82862 
L 479.903704 181.599401 
L 481.33992 183.384633 
L 482.758212 185.184138 
L 484.158439 186.997735 
L 485.54046 188.825244 
L 486.904137 190.666481 
L 488.249334 192.521263 
L 489.575916 194.389404 
L 490.883751 196.270718 
L 492.172708 198.165015 
L 493.442657 200.072107 
L 494.693472 201.991802 
L 495.925028 203.92391 
L 497.137202 205.868237 
L 498.329872 207.824588 
L 499.50292 209.792767 
L 500.656227 211.772578 
L 501.789679 213.763824 
L 502.903162 215.766304 
L 503.996565 217.779818 
L 505.069778 219.804166 
L 506.122695 221.839145 
L 507.15521 223.88455 
L 508.167219 225.940179 
L 509.158622 228.005824 
L 510.129319 230.08128 
L 511.079213 232.16634 
L 512.008209 234.260793 
L 512.916215 236.364432 
L 513.80314 238.477046 
L 514.668894 240.598423 
L 515.513391 242.728351 
L 516.336548 244.866618 
L 517.138281 247.013009 
L 517.91851 249.16731 
L 518.677158 251.329305 
L 519.414148 253.498779 
L 520.129407 255.675514 
L 520.822863 257.859293 
L 521.494447 260.049897 
L 522.144092 262.247107 
L 522.771733 264.450704 
L 523.377306 266.660466 
L 523.960752 268.876174 
L 524.522013 271.097606 
L 525.061031 273.324539 
L 525.577753 275.55675 
L 526.072128 277.794018 
L 526.544105 280.036117 
L 526.993639 282.282823 
L 527.420683 284.533913 
L 527.825196 286.78916 
L 528.207136 289.04834 
L 528.566465 291.311226 
L 528.903148 293.577592 
L 529.217151 295.847211 
L 529.508443 298.119858 
L 529.776994 300.395303 
L 530.022777 302.67332 
L 530.245769 304.953681 
L 530.445945 307.236157 
L 530.623288 309.520522 
L 530.777778 311.806545 
L 530.909401 314.093999 
L 531.018143 316.382655 
L 531.103994 318.672284 
L 531.166944 320.962657 
L 531.206988 323.253545 
L 531.224121 325.544719 
L 531.218342 327.835949 
L 531.189651 330.127008 
L 531.138052 332.417664 
L 531.063549 334.707691 
L 530.96615 336.996857 
L 530.845864 339.284936 
L 530.702704 341.571697 
L 530.536684 343.856912 
L 530.347821 346.140353 
L 530.136133 348.421791 
L 529.901641 350.700998 
L 529.64437 352.977746 
L 529.364344 355.251807 
L 529.061592 357.522955 
L 528.736144 359.790962 
L 528.388033 362.055601 
L 528.017293 364.316645 
L 527.623962 366.57387 
L 527.208078 368.827048 
L 526.769684 371.075955 
L 526.308823 373.320365 
L 525.825541 375.560055 
L 525.319887 377.794799 
L 524.791911 380.024376 
L 524.241667 382.248562 
L 523.669208 384.467134 
L 523.074592 386.67987 
L 522.457879 388.88655 
L 521.819131 391.086953 
L 521.158411 393.280858 
L 520.475785 395.468046 
L 519.771322 397.648299 
L 519.045092 399.821399 
L 518.297167 401.987127 
L 517.527623 404.145268 
L 516.736537 406.295606 
L 515.923987 408.437926 
L 515.090055 410.572013 
L 514.234824 412.697654 
L 513.358379 414.814637 
L 512.460809 416.922749 
L 511.542203 419.021781 
L 510.602653 421.111522 
L 509.642253 423.191763 
L 508.661099 425.262296 
L 507.659289 427.322915 
L 506.636924 429.373412 
L 505.594104 431.413583 
L 504.530936 433.443224 
L 503.447525 435.462133 
L 502.343979 437.470106 
L 501.220408 439.466944 
L 500.076926 441.452446 
L 498.913647 443.426415 
L 497.730686 445.388652 
L 496.528162 447.338961 
L 495.306196 449.277149 
L 494.064909 451.203019 
L 492.804426 453.116381 
L 491.524873 455.017043 
L 490.226377 456.904814 
L 488.909069 458.779506 
L 487.57308 460.640931 
L 486.218544 462.488904 
L 484.845596 464.323239 
L 483.454374 466.143753 
L 482.045017 467.950264 
L 480.617665 469.742592 
L 479.172462 471.520556 
L 477.709551 473.28398 
L 476.22908 475.032687 
L 474.731196 476.766502 
L 473.216049 478.485252 
L 471.683791 480.188764 
L 470.134574 481.876869 
L 468.568554 483.549398 
L 466.985887 485.206183 
L 465.386732 486.847059 
L 463.771249 488.471862 
L 462.139598 490.080429 
L 460.491944 491.672599 
L 458.82845 493.248213 
L 457.149284 494.807114 
L 455.454613 496.349145 
L 453.744607 497.874153 
L 452.019436 499.381985 
L 450.279274 500.87249 
L 448.524293 502.34552 
L 446.754671 503.800926 
L 444.970583 505.238563 
L 443.172208 506.658288 
L 441.359726 508.059959 
L 439.533318 509.443434 
L 437.693167 510.808577 
L 435.839457 512.155251 
L 433.972373 513.48332 
L 432.092102 514.792653 
L 430.198832 516.083117 
L 428.292752 517.354585 
L 426.374053 518.606929 
L 424.442926 519.840023 
L 422.499566 521.053745 
L 420.544165 522.247972 
L 418.576921 523.422587 
L 416.598028 524.57747 
L 414.607686 525.712508 
L 412.606093 526.827585 
L 410.59345 527.922591 
L 408.569958 528.997416 
L 406.535818 530.051953 
L 404.491236 531.086096 
L 402.436414 532.099742 
L 400.371558 533.092789 
L 398.296876 534.065138 
L 396.212574 535.016693 
L 394.11886 535.947357 
L 392.015945 536.857038 
L 389.904039 537.745644 
L 387.783352 538.613087 
L 385.654097 539.459281 
L 383.516486 540.28414 
L 381.370734 541.087582 
L 379.217055 541.869526 
L 377.055664 542.629895 
L 374.886778 543.368613 
L 372.710613 544.085605 
L 370.527388 544.7808 
L 368.337319 545.454128 
L 366.140627 546.105523 
L 363.937531 546.734918 
L 361.728251 547.342251 
L 359.513008 547.927461 
L 357.292025 548.49049 
L 355.065522 549.031282 
L 352.833722 549.549781 
L 350.596849 550.045938 
L 348.355127 550.5197 
L 346.108779 550.971023 
L 343.85803 551.39986 
L 341.603106 551.806168 
L 339.344231 552.189907 
L 337.081632 552.551038 
L 334.815535 552.889526 
L 332.546166 553.205337 
L 330.273752 553.498438 
L 327.998522 553.7688 
L 325.720701 554.016398 
L 323.440518 554.241205 
L 321.158202 554.443199 
L 318.873979 554.622361 
L 316.58808 554.778672 
L 314.300731 554.912116 
L 312.012162 555.022681 
L 309.722603 555.110354 
L 307.432281 555.175128 
L 305.141425 555.216996 
L 302.850266 555.235954 
L 302.100085 555.237182 
L 302.100085 557.551574 
L 302.857843 557.550333 
L 305.172146 557.531184 
L 307.486141 557.488893 
L 309.799598 557.423464 
L 312.112284 557.334905 
L 314.42397 557.223224 
L 316.734423 557.088432 
L 319.043413 556.930542 
L 321.350708 556.749571 
L 323.656078 556.545536 
L 325.959293 556.318458 
L 328.260122 556.06836 
L 330.558335 555.795266 
L 332.853702 555.499204 
L 335.145994 555.180204 
L 337.434981 554.838297 
L 339.720434 554.473518 
L 342.002126 554.085903 
L 344.279828 553.67549 
L 346.553311 553.242322 
L 348.82235 552.78644 
L 351.086716 552.307892 
L 353.346183 551.806724 
L 355.600526 551.282987 
L 357.849519 550.736733 
L 360.092937 550.168017 
L 362.330556 549.576895 
L 364.562152 548.963428 
L 366.787501 548.327675 
L 369.006382 547.669701 
L 371.218572 546.989571 
L 373.423851 546.287354 
L 375.621997 545.56312 
L 377.812791 544.81694 
L 379.996014 544.048891 
L 382.171448 543.259048 
L 384.338874 542.44749 
L 386.498077 541.614299 
L 388.648839 540.759559 
L 390.790947 539.883353 
L 392.924186 538.985771 
L 395.048343 538.066901 
L 397.163205 537.126837 
L 399.268561 536.165671 
L 401.364199 535.1835 
L 403.449912 534.180421 
L 405.52549 533.156537 
L 407.590725 532.111948 
L 409.645411 531.046759 
L 411.689343 529.961077 
L 413.722316 528.855011 
L 415.744127 527.72867 
L 417.754573 526.582168 
L 419.753454 525.415619 
L 421.74057 524.229139 
L 423.715722 523.022849 
L 425.678713 521.796867 
L 427.629345 520.551317 
L 429.567425 519.286324 
L 431.492759 518.002013 
L 433.405153 516.698513 
L 435.304417 515.375955 
L 437.19036 514.034471 
L 439.062795 512.674195 
L 440.921533 511.295263 
L 442.766389 509.897812 
L 444.597179 508.481983 
L 446.413719 507.047918 
L 448.215828 505.595759 
L 450.003326 504.125652 
L 451.776033 502.637743 
L 453.533773 501.132183 
L 455.276369 499.60912 
L 457.003649 498.068708 
L 458.715437 496.5111 
L 460.411565 494.936453 
L 462.091861 493.344924 
L 463.756159 491.736671 
L 465.404291 490.111856 
L 467.036092 488.470641 
L 468.651401 486.813191 
L 470.250054 485.13967 
L 471.831892 483.450247 
L 473.396757 481.745091 
L 474.944493 480.024371 
L 476.474945 478.28826 
L 477.987959 476.536932 
L 479.483384 474.770561 
L 480.961072 472.989325 
L 482.420873 471.193401 
L 483.862643 469.38297 
L 485.286236 467.558211 
L 486.691511 465.719308 
L 488.078327 463.866444 
L 489.446545 461.999805 
L 490.796029 460.119577 
L 492.126643 458.225949 
L 493.438255 456.319109 
L 494.730733 454.399249 
L 496.003948 452.46656 
L 497.257773 450.521236 
L 498.492082 448.563472 
L 499.706753 446.593462 
L 500.901663 444.611404 
L 502.076693 442.617497 
L 503.231725 440.611939 
L 504.366644 438.594931 
L 505.481337 436.566675 
L 506.575692 434.527374 
L 507.6496 432.477231 
L 508.702952 430.416452 
L 509.735645 428.345243 
L 510.747574 426.26381 
L 511.738639 424.172362 
L 512.70874 422.071109 
L 513.65778 419.960259 
L 514.585665 417.840025 
L 515.492301 415.710619 
L 516.377599 413.572252 
L 517.241468 411.42514 
L 518.083824 409.269496 
L 518.904582 407.105537 
L 519.703659 404.933478 
L 520.480976 402.753538 
L 521.236455 400.565933 
L 521.970021 398.370884 
L 522.6816 396.168608 
L 523.371121 393.959327 
L 524.038515 391.743261 
L 524.683716 389.520632 
L 525.306658 387.291663 
L 525.90728 385.056575 
L 526.485521 382.815593 
L 527.041324 380.568941 
L 527.574633 378.316843 
L 528.085394 376.059525 
L 528.573558 373.797213 
L 529.039074 371.530131 
L 529.481896 369.258508 
L 529.901981 366.982571 
L 530.299285 364.702546 
L 530.67377 362.418663 
L 531.025398 360.131149 
L 531.354133 357.840233 
L 531.659943 355.546144 
L 531.942797 353.249112 
L 532.202667 350.949367 
L 532.439527 348.647137 
L 532.653354 346.342655 
L 532.844125 344.036149 
L 533.011822 341.727851 
L 533.156428 339.417991 
L 533.277928 337.106801 
L 533.376311 334.794511 
L 533.451567 332.481354 
L 533.503687 330.167559 
L 533.532668 327.853359 
L 533.538505 325.538984 
L 533.521199 323.224667 
L 533.480751 320.910639 
L 533.417164 318.597131 
L 533.330447 316.284375 
L 533.220606 313.972601 
L 533.087654 311.662041 
L 532.931603 309.352927 
L 532.752469 307.045488 
L 532.55027 304.739956 
L 532.325027 302.436561 
L 532.076761 300.135534 
L 531.805497 297.837104 
L 531.511263 295.541502 
L 531.194089 293.248957 
L 530.854005 290.959698 
L 530.491045 288.673955 
L 530.105247 286.391955 
L 529.696649 284.113928 
L 529.265291 281.8401 
L 528.811217 279.570699 
L 528.334472 277.305953 
L 527.835103 275.046087 
L 527.313161 272.791328 
L 526.768699 270.5419 
L 526.201769 268.29803 
L 525.61243 266.059941 
L 525.000739 263.827858 
L 524.366759 261.602003 
L 523.710552 259.382598 
L 523.032184 257.169867 
L 522.331723 254.96403 
L 521.60924 252.765308 
L 520.864805 250.57392 
L 520.098494 248.390086 
L 519.310384 246.214025 
L 518.500553 244.045953 
L 517.669081 241.886087 
L 516.816054 239.734645 
L 515.941554 237.59184 
L 515.045671 235.457887 
L 514.128493 233.332999 
L 513.190113 231.217389 
L 512.230624 229.111269 
L 511.250122 227.014848 
L 510.248705 224.928338 
L 509.226474 222.851945 
L 508.18353 220.785879 
L 507.119977 218.730345 
L 506.035923 216.685549 
L 504.931476 214.651696 
L 503.806746 212.628989 
L 502.661845 210.61763 
L 501.496888 208.617821 
L 500.311991 206.629761 
L 499.107274 204.653649 
L 497.882856 202.689683 
L 496.63886 200.738059 
L 495.37541 198.798972 
L 494.092633 196.872616 
L 492.790657 194.959185 
L 491.469612 193.058869 
L 490.12963 191.171858 
L 488.770845 189.29834 
L 487.393393 187.438505 
L 485.997412 185.592536 
L 484.583042 183.760619 
L 483.150423 181.942938 
L 481.6997 180.139673 
L 480.231017 178.351005 
L 478.74452 176.577114 
L 477.24036 174.818175 
L 475.718685 173.074366 
L 474.179649 171.345861 
L 472.623405 169.632833 
L 471.050109 167.935452 
L 469.459918 166.253888 
L 467.852991 164.588311 
L 466.229489 162.938886 
L 464.589575 161.305777 
L 462.933411 159.68915 
L 461.261164 158.089165 
L 459.573002 156.505981 
L 457.869092 154.939759 
L 456.149605 153.390653 
L 454.414713 151.85882 
L 452.664591 150.344411 
L 450.899411 148.84758 
L 449.119352 147.368474 
L 447.324592 145.907243 
L 445.515308 144.464033 
L 443.691684 143.038987 
L 441.8539 141.632248 
L 440.002142 140.243957 
L 438.136593 138.874253 
z
" clip-path="url(#pe0be878c1d)" style="fill: #ffe600"/>
   </g>
   <g id="patch_5">
    <path d="M 302.100085 555.237182 
L 299.808875 555.225726 
L 297.517895 555.191359 
L 295.227373 555.134084 
L 292.937539 555.053907 
L 290.648621 554.950836 
L 288.360847 554.824881 
L 286.074448 554.676056 
L 283.789651 554.504374 
L 281.506685 554.309853 
L 279.225779 554.092513 
L 276.94716 553.852375 
L 274.671056 553.589463 
L 272.397695 553.303803 
L 270.127305 552.995425 
L 267.860111 552.664358 
L 265.596342 552.310637 
L 263.336223 551.934296 
L 261.07998 551.535373 
L 258.82784 551.113907 
L 256.580026 550.669942 
L 254.336764 550.203521 
L 252.098279 549.714692 
L 249.864794 549.203502 
L 247.636532 548.670003 
L 245.413717 548.114249 
L 243.19657 547.536295 
L 240.985314 546.936198 
L 238.780169 546.31402 
L 236.581356 545.669821 
L 234.389094 545.003667 
L 232.203604 544.315624 
L 230.025103 543.605761 
L 227.85381 542.874148 
L 225.689942 542.12086 
L 223.533714 541.345971 
L 221.385343 540.549559 
L 219.245043 539.731703 
L 217.113029 538.892485 
L 214.989513 538.03199 
L 212.874708 537.150303 
L 210.768826 536.247512 
L 208.672077 535.323708 
L 206.584671 534.378983 
L 204.506816 533.413432 
L 202.43872 532.427151 
L 200.38059 531.420238 
L 198.332632 530.392795 
L 196.295051 529.344923 
L 194.268051 528.276729 
L 192.251833 527.188319 
L 190.2466 526.079801 
L 188.252552 524.951286 
L 186.26989 523.802888 
L 184.298809 522.634721 
L 182.339509 521.446902 
L 180.392185 520.239549 
L 178.457032 519.012784 
L 176.534243 517.76673 
L 174.62401 516.501509 
L 172.726525 515.217251 
L 170.841977 513.914081 
L 168.970555 512.592132 
L 167.112445 511.251535 
L 165.267835 509.892424 
L 163.436907 508.514936 
L 161.619846 507.119207 
L 159.816832 505.705378 
L 158.028047 504.273589 
L 156.253669 502.823985 
L 154.493875 501.35671 
L 152.748842 499.87191 
L 151.018743 498.369735 
L 149.303753 496.850334 
L 147.604043 495.313859 
L 145.919781 493.760464 
L 144.251138 492.190305 
L 142.598279 490.603538 
L 140.961371 489.000322 
L 139.340576 487.380817 
L 137.736057 485.745186 
L 136.147974 484.093592 
L 134.576487 482.426199 
L 133.021751 480.743175 
L 131.483924 479.044689 
L 129.963158 477.330909 
L 128.459605 475.602008 
L 126.973416 473.858157 
L 125.50474 472.099533 
L 124.053723 470.326309 
L 122.620511 468.538665 
L 121.205246 466.736778 
L 119.808071 464.920828 
L 118.429124 463.090998 
L 117.068545 461.24747 
L 115.726469 459.390429 
L 114.40303 457.52006 
L 113.09836 455.636551 
L 111.812591 453.740089 
L 110.54585 451.830864 
L 109.298264 449.909068 
L 108.069959 447.974892 
L 106.861056 446.02853 
L 105.671677 444.070176 
L 104.501941 442.100027 
L 103.351964 440.118279 
L 102.221862 438.125131 
L 101.111748 436.120782 
L 100.021732 434.105431 
L 98.951924 432.079282 
L 97.90243 430.042536 
L 96.873357 427.995397 
L 95.864805 425.93807 
L 94.876877 423.87076 
L 93.909672 421.793675 
L 92.963285 419.707021 
L 92.037811 417.611008 
L 91.133344 415.505846 
L 90.249973 413.391744 
L 89.387787 411.268914 
L 88.546872 409.137569 
L 87.727312 406.997921 
L 86.929189 404.850185 
L 86.152583 402.694575 
L 85.397572 400.531307 
L 84.664231 398.360597 
L 83.952633 396.182662 
L 83.26285 393.997721 
L 82.59495 391.80599 
L 81.949001 389.607691 
L 81.325066 387.403042 
L 80.723209 385.192264 
L 80.14349 382.975578 
L 79.585966 380.753206 
L 79.050693 378.52537 
L 78.537724 376.292293 
L 78.047112 374.054198 
L 77.578905 371.811308 
L 77.13315 369.563849 
L 76.709892 367.312044 
L 76.309172 365.05612 
L 75.931031 362.796301 
L 75.575507 360.532814 
L 75.242635 358.265885 
L 74.932449 355.995741 
L 74.644979 353.722608 
L 74.380255 351.446715 
L 74.138302 349.168288 
L 73.919146 346.887555 
L 73.722807 344.604745 
L 73.549306 342.320086 
L 73.398659 340.033806 
L 73.270883 337.746133 
L 73.165989 335.457298 
L 73.083989 333.167528 
L 73.02489 330.877052 
L 72.988698 328.5861 
L 72.975418 326.294901 
L 72.985049 324.003683 
L 73.017592 321.712677 
L 73.073043 319.42211 
L 73.151397 317.132212 
L 73.252645 314.843212 
L 73.376778 312.55534 
L 73.523782 310.268822 
L 73.693645 307.98389 
L 73.886347 305.70077 
L 74.101871 303.419691 
L 74.340195 301.140881 
L 74.601294 298.864569 
L 74.885143 296.590982 
L 75.191714 294.320346 
L 75.520975 292.05289 
L 75.872893 289.788839 
L 76.247435 287.528421 
L 76.644561 285.271862 
L 77.064233 283.019386 
L 77.506408 280.77122 
L 77.971042 278.527587 
L 78.458089 276.288713 
L 78.9675 274.054822 
L 79.499224 271.826136 
L 80.053208 269.602879 
L 80.629396 267.385273 
L 81.227732 265.173539 
L 81.848154 262.967899 
L 82.490602 260.768574 
L 83.15501 258.575783 
L 83.841312 256.389745 
L 84.54944 254.21068 
L 85.279324 252.038805 
L 86.030889 249.874337 
L 86.80406 247.717493 
L 87.598761 245.568488 
L 88.414912 243.427538 
L 89.252432 241.294856 
L 90.111236 239.170656 
L 90.991239 237.05515 
L 91.892352 234.948549 
L 92.814486 232.851065 
L 93.757549 230.762907 
L 94.721445 228.684284 
L 95.706079 226.615404 
L 96.711353 224.556473 
L 97.737165 222.507697 
L 98.783413 220.469282 
L 99.849993 218.441432 
L 100.936797 216.424348 
L 102.043718 214.418233 
L 103.170644 212.423287 
L 104.317463 210.43971 
L 105.48406 208.467701 
L 106.670319 206.507456 
L 107.87612 204.559171 
L 109.101344 202.623041 
L 110.345867 200.69926 
L 111.609566 198.788021 
L 112.892313 196.889513 
L 114.193981 195.003928 
L 115.51444 193.131454 
L 116.853557 191.272277 
L 118.211198 189.426585 
L 119.587228 187.594561 
L 120.98151 185.776389 
L 122.393903 183.97225 
L 123.824266 182.182325 
L 125.272457 180.406793 
L 126.738331 178.645831 
L 128.22174 176.899616 
L 129.722537 175.168322 
L 131.240572 173.452123 
L 132.775693 171.751189 
L 134.327746 170.065691 
L 135.896576 168.395798 
L 137.482026 166.741677 
L 139.083938 165.103492 
L 140.702151 163.481408 
L 142.336504 161.875587 
L 143.986834 160.28619 
L 145.652974 158.713375 
L 147.334759 157.1573 
L 149.032021 155.61812 
L 150.744589 154.095989 
L 152.472293 152.59106 
L 154.214959 151.103483 
L 155.972413 149.633407 
L 157.744481 148.180979 
L 159.530983 146.746343 
L 161.331743 145.329644 
L 163.146579 143.931023 
L 164.975311 142.55062 
L 166.817754 141.188574 
L 168.673726 139.845019 
L 170.543041 138.520091 
L 172.425511 137.213922 
L 174.320948 135.926643 
L 176.229163 134.658382 
L 178.149966 133.409266 
L 180.083163 132.179421 
L 182.028561 130.968968 
L 183.985967 129.77803 
L 185.955184 128.606725 
L 187.936016 127.455171 
L 189.928263 126.323482 
L 191.931728 125.211772 
L 193.94621 124.120152 
L 195.971507 123.048731 
L 198.007416 121.997616 
L 200.053735 120.966912 
L 202.110259 119.956723 
L 204.176781 118.967149 
L 206.253095 117.998289 
L 208.338995 117.050241 
L 210.43427 116.123099 
L 212.538712 115.216955 
L 214.652109 114.331901 
L 216.774252 113.468025 
L 218.904927 112.625413 
L 221.043921 111.804149 
L 223.191021 111.004316 
L 225.346012 110.225994 
L 227.508678 109.469261 
L 229.678803 108.734191 
L 231.856171 108.020859 
L 234.040562 107.329336 
L 236.23176 106.659691 
L 238.429544 106.011992 
L 240.633696 105.386302 
L 242.843994 104.782684 
L 245.060217 104.2012 
L 247.282144 103.641906 
L 249.509554 103.104859 
L 251.742222 102.590113 
L 253.979926 102.097719 
L 256.222442 101.627726 
L 258.469545 101.180181 
L 260.721012 100.75513 
L 262.976616 100.352613 
L 265.236133 99.972673 
L 267.499336 99.615347 
L 269.766 99.28067 
L 272.035896 98.968676 
L 274.308799 98.679396 
L 276.584481 98.412859 
L 278.862715 98.169092 
L 281.143272 97.94812 
L 283.425925 97.749963 
L 285.710446 97.574643 
L 287.996605 97.422176 
L 290.284175 97.292578 
L 292.572926 97.185862 
L 294.86263 97.102038 
L 297.153058 97.041115 
L 299.44398 97.003099 
L 301.735168 96.987994 
L 302.100085 96.987703 
L 302.100085 94.673312 
L 301.731482 94.673605 
L 299.417151 94.688863 
L 297.103088 94.727263 
L 294.789525 94.788801 
L 292.476692 94.873472 
L 290.164822 94.981266 
L 287.854146 95.112173 
L 285.544894 95.26618 
L 283.237297 95.443271 
L 280.931587 95.64343 
L 278.627994 95.866634 
L 276.326748 96.112864 
L 274.028079 96.382093 
L 271.732218 96.674294 
L 269.439393 96.98944 
L 267.149834 97.327497 
L 264.86377 97.688433 
L 262.58143 98.072211 
L 260.303041 98.478793 
L 258.028833 98.908138 
L 255.759031 99.360203 
L 253.493863 99.834944 
L 251.233556 100.332312 
L 248.978336 100.852257 
L 246.728428 101.394729 
L 244.484057 101.959672 
L 242.245447 102.54703 
L 240.012823 103.156745 
L 237.786408 103.788755 
L 235.566423 104.442997 
L 233.353092 105.119406 
L 231.146636 105.817914 
L 228.947275 106.538451 
L 226.75523 107.280946 
L 224.570718 108.045323 
L 222.39396 108.831507 
L 220.225172 109.639419 
L 218.064572 110.468978 
L 215.912375 111.320101 
L 213.768796 112.192704 
L 211.634051 113.086698 
L 209.508352 114.001994 
L 207.391913 114.938501 
L 205.284944 115.896126 
L 203.187657 116.874772 
L 201.10026 117.874342 
L 199.022964 118.894735 
L 196.955975 119.93585 
L 194.899501 120.997582 
L 192.853746 122.079826 
L 190.818917 123.182472 
L 188.795215 124.305412 
L 186.782843 125.448532 
L 184.782003 126.611718 
L 182.792895 127.794854 
L 180.815718 128.997822 
L 178.850669 130.220501 
L 176.897944 131.462769 
L 174.95774 132.724502 
L 173.03025 134.005574 
L 171.115667 135.305856 
L 169.214182 136.625219 
L 167.325985 137.96353 
L 165.451266 139.320656 
L 163.590212 140.696461 
L 161.743008 142.090807 
L 159.90984 143.503555 
L 158.090891 144.934564 
L 156.286343 146.383691 
L 154.496376 147.850791 
L 152.72117 149.335716 
L 150.960901 150.838319 
L 149.215746 152.35845 
L 147.485879 153.895955 
L 145.771473 155.450682 
L 144.0727 157.022475 
L 142.38973 158.611177 
L 140.722731 160.216629 
L 139.071869 161.83867 
L 137.43731 163.477139 
L 135.819217 165.131871 
L 134.217752 166.802701 
L 132.633076 168.489462 
L 131.065345 170.191985 
L 129.514718 171.910099 
L 127.98135 173.643634 
L 126.465393 175.392416 
L 124.967 177.15627 
L 123.486319 178.935019 
L 122.0235 180.728485 
L 120.578689 182.53649 
L 119.152029 184.358853 
L 117.743664 186.195391 
L 116.353735 188.04592 
L 114.98238 189.910256 
L 113.629736 191.788212 
L 112.29594 193.6796 
L 110.981124 195.584231 
L 109.685419 197.501915 
L 108.408956 199.43246 
L 107.151862 201.375673 
L 105.914262 203.33136 
L 104.696281 205.299324 
L 103.49804 207.27937 
L 102.319659 209.271299 
L 101.161256 211.274912 
L 100.022947 213.290009 
L 98.904845 215.316387 
L 97.807063 217.353846 
L 96.729709 219.40218 
L 95.672893 221.461185 
L 94.636719 223.530655 
L 93.621291 225.610383 
L 92.626711 227.700161 
L 91.653079 229.799781 
L 90.70049 231.909031 
L 89.769042 234.027702 
L 88.858826 236.155581 
L 87.969934 238.292456 
L 87.102456 240.438113 
L 86.256476 242.592337 
L 85.432081 244.754913 
L 84.629353 246.925625 
L 83.848371 249.104255 
L 83.089215 251.290586 
L 82.351959 253.4844 
L 81.636678 255.685476 
L 80.943443 257.893594 
L 80.272324 260.108535 
L 79.623387 262.330076 
L 78.996698 264.557995 
L 78.392319 266.792069 
L 77.81031 269.032075 
L 77.25073 271.27779 
L 76.713635 273.528987 
L 76.199079 275.785443 
L 75.707112 278.046932 
L 75.237785 280.313227 
L 74.791143 282.584103 
L 74.367232 284.859331 
L 73.966095 287.138684 
L 73.58777 289.421934 
L 73.232297 291.708854 
L 72.89971 293.999214 
L 72.590043 296.292785 
L 72.303327 298.589338 
L 72.03959 300.888643 
L 71.798859 303.190471 
L 71.581158 305.494591 
L 71.386509 307.800773 
L 71.214931 310.108786 
L 71.066441 312.418399 
L 70.941055 314.729382 
L 70.838784 317.041503 
L 70.759639 319.354531 
L 70.703628 321.668234 
L 70.670756 323.982383 
L 70.661027 326.296744 
L 70.674442 328.611087 
L 70.710999 330.92518 
L 70.770695 333.238791 
L 70.853524 335.55169 
L 70.959477 337.863645 
L 71.088544 340.174425 
L 71.240712 342.483799 
L 71.415966 344.791536 
L 71.614288 347.097405 
L 71.835658 349.401175 
L 72.080054 351.702616 
L 72.347453 354.001499 
L 72.637826 356.297593 
L 72.951146 358.590668 
L 73.28738 360.880495 
L 73.646495 363.166845 
L 74.028456 365.449491 
L 74.433223 367.728202 
L 74.860757 370.002752 
L 75.311015 372.272913 
L 75.783951 374.538458 
L 76.279519 376.79916 
L 76.797668 379.054794 
L 77.338348 381.305133 
L 77.901504 383.549954 
L 78.487079 385.78903 
L 79.095016 388.022139 
L 79.725253 390.249057 
L 80.377727 392.469562 
L 81.052373 394.68343 
L 81.749124 396.890442 
L 82.467909 399.090376 
L 83.208658 401.283012 
L 83.971296 403.468132 
L 84.755746 405.645516 
L 85.56193 407.814946 
L 86.389769 409.976206 
L 87.239178 412.129081 
L 88.110073 414.273353 
L 89.002367 416.408809 
L 89.91597 418.535236 
L 90.850792 420.652421 
L 91.806738 422.760152 
L 92.783714 424.858218 
L 93.781621 426.946409 
L 94.800359 429.024518 
L 95.839828 431.092335 
L 96.899922 433.149654 
L 97.980536 435.19627 
L 99.081562 437.231977 
L 100.20289 439.256572 
L 101.344407 441.269854 
L 102.506 443.271619 
L 103.687552 445.261669 
L 104.888945 447.239804 
L 106.110059 449.205826 
L 107.350771 451.159539 
L 108.610959 453.100747 
L 109.890495 455.029257 
L 111.189252 456.944875 
L 112.5071 458.84741 
L 113.843907 460.736671 
L 115.19954 462.612471 
L 116.573862 464.47462 
L 117.966737 466.322933 
L 119.378025 468.157226 
L 120.807586 469.977313 
L 122.255275 471.783015 
L 123.720948 473.57415 
L 125.20446 475.350538 
L 126.705661 477.112003 
L 128.224401 478.858368 
L 129.760528 480.589459 
L 131.31389 482.305102 
L 132.884329 484.005126 
L 134.471691 485.689361 
L 136.075814 487.357638 
L 137.696541 489.009791 
L 139.333707 490.645654 
L 140.98715 492.265064 
L 142.656704 493.867859 
L 144.342202 495.453879 
L 146.043476 497.022964 
L 147.760356 498.574959 
L 149.492669 500.109707 
L 151.240243 501.627056 
L 153.002903 503.126854 
L 154.780472 504.60895 
L 156.572774 506.073197 
L 158.379628 507.519448 
L 160.200853 508.947558 
L 162.036269 510.357385 
L 163.885691 511.748788 
L 165.748934 513.121627 
L 167.625812 514.475765 
L 169.516138 515.811068 
L 171.419721 517.1274 
L 173.336373 518.424631 
L 175.265901 519.702631 
L 177.208112 520.961273 
L 179.162813 522.200429 
L 181.129807 523.419977 
L 183.108898 524.619794 
L 185.099888 525.799761 
L 187.102577 526.959759 
L 189.116767 528.099673 
L 191.142255 529.219388 
L 193.178838 530.318793 
L 195.226314 531.397777 
L 197.284476 532.456232 
L 199.353121 533.494054 
L 201.432039 534.511137 
L 203.521025 535.507381 
L 205.619868 536.482686 
L 207.72836 537.436953 
L 209.846288 538.370089 
L 211.973442 539.281999 
L 214.109608 540.172592 
L 216.254574 541.041779 
L 218.408123 541.889473 
L 220.570042 542.71559 
L 222.740114 543.520047 
L 224.918122 544.302763 
L 227.103848 545.06366 
L 229.297073 545.802663 
L 231.497579 546.519696 
L 233.705145 547.214689 
L 235.91955 547.887572 
L 238.140574 548.538278 
L 240.367993 549.166741 
L 242.601585 549.772899 
L 244.841127 550.356691 
L 247.086395 550.918059 
L 249.337165 551.456947 
L 251.59321 551.9733 
L 253.854307 552.467068 
L 256.120227 552.9382 
L 258.390746 553.386649 
L 260.665636 553.812372 
L 262.944669 554.215325 
L 265.227617 554.595467 
L 267.514253 554.952762 
L 269.804347 555.287172 
L 272.097671 555.598666 
L 274.393995 555.88721 
L 276.69309 556.152778 
L 278.994725 556.395342 
L 281.298671 556.614878 
L 283.604697 556.811363 
L 285.912573 556.984779 
L 288.222067 557.135108 
L 290.532949 557.262335 
L 292.844988 557.366447 
L 295.157952 557.447434 
L 297.471611 557.505287 
L 299.785732 557.540002 
L 302.100085 557.551574 
z
" clip-path="url(#pe0be878c1d)" style="fill: #800000"/>
   </g>
   <g id="PatchCollection_1">
    <path d="M 302.100085 555.237182 
L 302.100085 555.237182 
L 299.808875 555.225726 
L 297.517895 555.191359 
L 295.227373 555.134084 
L 292.937539 555.053907 
L 290.648621 554.950836 
L 288.360847 554.824881 
L 286.074448 554.676056 
L 283.789651 554.504374 
L 281.506685 554.309853 
L 279.225779 554.092513 
L 276.94716 553.852375 
L 274.671056 553.589463 
L 272.397695 553.303803 
L 270.127305 552.995425 
L 267.860111 552.664358 
L 265.596342 552.310637 
L 263.336223 551.934296 
L 261.07998 551.535373 
L 258.82784 551.113907 
L 256.580026 550.669942 
L 254.336764 550.203521 
L 252.098279 549.714692 
L 249.864794 549.203502 
L 247.636532 548.670003 
L 245.413717 548.114249 
L 243.19657 547.536295 
L 240.985314 546.936198 
L 238.780169 546.31402 
L 236.581356 545.669821 
L 234.389094 545.003667 
L 232.203604 544.315624 
L 230.025103 543.605761 
L 227.85381 542.874148 
L 225.689942 542.12086 
L 223.533714 541.345971 
L 221.385343 540.549559 
L 219.245043 539.731703 
L 217.113029 538.892485 
L 214.989513 538.03199 
L 212.874708 537.150303 
L 210.768826 536.247512 
L 208.672077 535.323708 
L 206.584671 534.378983 
L 204.506816 533.413432 
L 202.43872 532.427151 
L 200.38059 531.420238 
L 198.332632 530.392795 
L 196.295051 529.344923 
L 194.268051 528.276729 
L 192.251833 527.188319 
L 190.2466 526.079801 
L 188.252552 524.951286 
L 186.26989 523.802888 
L 184.298809 522.634721 
L 182.339509 521.446902 
L 180.392185 520.239549 
L 178.457032 519.012784 
L 176.534243 517.76673 
L 174.62401 516.501509 
L 172.726525 515.217251 
L 170.841977 513.914081 
L 168.970555 512.592132 
L 167.423942 511.478251 
L 167.423942 511.478251 
Q 302.100085 326.112443 436.776228 140.746635 
L 436.776228 140.746635 
L 436.776228 140.746635 
L 438.623121 142.102642 
L 440.456362 143.47705 
L 442.275768 144.869721 
L 444.081156 146.280517 
L 445.872346 147.709295 
L 447.64916 149.155914 
L 449.411418 150.620228 
L 451.158945 152.102092 
L 452.891567 153.601356 
L 454.60911 155.117871 
L 456.311402 156.651485 
L 457.998272 158.202046 
L 459.669554 159.769397 
L 461.325078 161.353383 
L 462.96468 162.953844 
L 464.588195 164.570621 
L 466.195462 166.203552 
L 467.78632 167.852474 
L 469.360609 169.517222 
L 470.918172 171.197629 
L 472.458854 172.893527 
L 473.982499 174.604747 
L 475.488957 176.331118 
L 476.978076 178.072467 
L 478.449707 179.82862 
L 479.903704 181.599401 
L 481.33992 183.384633 
L 482.758212 185.184138 
L 484.158439 186.997735 
L 485.54046 188.825244 
L 486.904137 190.666481 
L 488.249334 192.521263 
L 489.575916 194.389404 
L 490.883751 196.270718 
L 492.172708 198.165015 
L 493.442657 200.072107 
L 494.693472 201.991802 
L 495.925028 203.92391 
L 497.137202 205.868237 
L 498.329872 207.824588 
L 499.50292 209.792767 
L 500.656227 211.772578 
L 501.789679 213.763824 
L 502.903162 215.766304 
L 503.996565 217.779818 
L 505.069778 219.804166 
L 506.122695 221.839145 
L 507.15521 223.88455 
L 508.167219 225.940179 
L 509.158622 228.005824 
L 510.129319 230.08128 
L 511.079213 232.16634 
L 512.008209 234.260793 
L 512.916215 236.364432 
L 513.80314 238.477046 
L 514.668894 240.598423 
L 515.513391 242.728351 
L 516.336548 244.866618 
L 517.138281 247.013009 
L 517.91851 249.16731 
L 518.677158 251.329305 
L 519.414148 253.498779 
L 520.010661 255.309004 
L 520.010661 255.309004 
Q 302.100085 326.112443 302.100085 555.237182 
z
" clip-path="url(#pe0be878c1d)" style="fill: #800000; fill-opacity: 0.5; stroke: #808080; stroke-opacity: 0.5; stroke-width: 0.1"/>
    <path d="M 520.010661 255.309004 
L 520.010661 255.309004 
L 520.707788 257.491614 
L 521.383055 259.681086 
L 522.036393 261.8772 
L 522.667738 264.079738 
L 523.277027 266.28848 
L 523.864198 268.503204 
L 524.429192 270.723688 
L 524.971954 272.949712 
L 525.492429 275.181051 
L 525.990565 277.417484 
L 526.466312 279.658786 
L 526.919623 281.904734 
L 527.350452 284.155102 
L 527.758756 286.409666 
L 528.144494 288.6682 
L 528.507628 290.930479 
L 528.848122 293.196276 
L 529.16594 295.465364 
L 529.461053 297.737517 
L 529.733429 300.012508 
L 529.983043 302.290108 
L 530.209868 304.570091 
L 530.413883 306.852228 
L 530.595066 309.136291 
L 530.7534 311.422051 
L 530.888869 313.709281 
L 531.001459 315.997751 
L 531.091159 318.287232 
L 531.157961 320.577496 
L 531.201857 322.868313 
L 531.222842 325.159455 
L 531.220916 327.450692 
L 531.196078 329.741795 
L 531.14833 332.032535 
L 531.077678 334.322684 
L 530.984128 336.612011 
L 530.86769 338.900288 
L 530.728375 341.187287 
L 530.566198 343.472778 
L 530.381175 345.756533 
L 530.173323 348.038324 
L 529.942664 350.317922 
L 529.689221 352.595099 
L 529.41302 354.869629 
L 529.114087 357.141282 
L 528.792453 359.409833 
L 528.448151 361.675054 
L 528.081213 363.936719 
L 527.691678 366.194601 
L 527.279583 368.448475 
L 526.844971 370.698116 
L 526.387885 372.943298 
L 525.90837 375.183797 
L 525.406474 377.419389 
L 524.882248 379.649851 
L 524.335744 381.874958 
L 523.767016 384.09449 
L 523.176122 386.308223 
L 522.563121 388.515937 
L 521.928073 390.71741 
L 521.271043 392.912423 
L 520.592096 395.100756 
L 519.891299 397.282191 
L 519.168724 399.456508 
L 518.424443 401.623491 
L 517.658529 403.782923 
L 516.871059 405.934588 
L 516.062112 408.078271 
L 515.23177 410.213757 
L 514.380114 412.340834 
L 513.507231 414.459287 
L 512.613207 416.568906 
L 511.698131 418.66948 
L 510.762097 420.760797 
L 509.805196 422.84265 
L 508.827525 424.91483 
L 507.829181 426.97713 
L 506.810265 429.029344 
L 505.770877 431.071265 
L 504.711123 433.102692 
L 503.631108 435.123419 
L 502.53094 437.133245 
L 501.410729 439.131969 
L 500.270587 441.119391 
L 499.110628 443.095313 
L 497.930969 445.059537 
L 496.731726 447.011865 
L 495.513021 448.952104 
L 494.274974 450.88006 
L 493.01771 452.795538 
L 491.741354 454.698349 
L 490.446035 456.5883 
L 489.131881 458.465205 
L 487.799023 460.328874 
L 486.447597 462.179122 
L 485.077735 464.015763 
L 483.689576 465.838614 
L 482.283258 467.647492 
L 480.858922 469.442217 
L 479.416711 471.222609 
L 477.956767 472.98849 
L 476.479239 474.739684 
L 474.984272 476.476015 
L 473.472017 478.19731 
L 471.942625 479.903397 
L 470.39625 481.594105 
L 468.833044 483.269264 
L 467.253165 484.928708 
L 465.656772 486.572271 
L 464.044022 488.199787 
L 462.415079 489.811095 
L 460.770104 491.406034 
L 459.109262 492.984443 
L 457.43272 494.546165 
L 455.740644 496.091044 
L 454.033204 497.618925 
L 452.310571 499.129656 
L 450.572918 500.623085 
L 448.820417 502.099063 
L 447.053244 503.557442 
L 445.271576 504.998078 
L 443.475591 506.420825 
L 441.665468 507.825541 
L 439.841389 509.212086 
L 438.003536 510.580321 
L 436.152093 511.930109 
L 434.287245 513.261316 
L 432.409178 514.573809 
L 430.518081 515.867455 
L 428.614141 517.142126 
L 426.697551 518.397694 
L 424.7685 519.634033 
L 422.827183 520.851021 
L 420.873794 522.048535 
L 418.908527 523.226456 
L 416.931579 524.384665 
L 414.943148 525.523047 
L 412.943433 526.641489 
L 410.932634 527.739877 
L 408.910952 528.818103 
L 406.878589 529.876059 
L 404.835748 530.913639 
L 402.782633 531.930738 
L 400.71945 532.927256 
L 398.646406 533.903093 
L 396.563707 534.85815 
L 394.471561 535.792334 
L 392.370179 536.705549 
L 390.259769 537.597705 
L 388.140544 538.468713 
L 386.012715 539.318486 
L 383.876494 540.146938 
L 381.732096 540.953987 
L 379.579735 541.739552 
L 377.419626 542.503554 
L 375.251985 543.245917 
L 373.077029 543.966568 
L 370.894975 544.665433 
L 368.706042 545.342442 
L 366.510448 545.997529 
L 364.308413 546.630628 
L 362.100158 547.241675 
L 359.885902 547.83061 
L 357.665868 548.397372 
L 355.440278 548.941907 
L 353.209353 549.464158 
L 350.973318 549.964075 
L 348.732395 550.441607 
L 346.486809 550.896706 
L 344.236785 551.329327 
L 341.982547 551.739426 
L 339.72432 552.126962 
L 337.462332 552.491898 
L 335.196807 552.834196 
L 332.927972 553.153821 
L 330.656055 553.450743 
L 328.381282 553.724931 
L 326.103881 553.976358 
L 323.82408 554.204999 
L 321.542106 554.410831 
L 319.258188 554.593833 
L 316.972554 554.753987 
L 314.685433 554.891278 
L 312.397054 555.00569 
L 310.107645 555.097214 
L 307.817435 555.165839 
L 305.526653 555.211559 
L 303.235529 555.234369 
L 302.100085 555.237182 
L 302.100085 555.237182 
Q 302.100085 326.112443 167.423942 511.478251 
L 167.423942 511.478251 
L 167.423942 511.478251 
L 165.577048 510.122244 
L 163.743807 508.747836 
L 161.924401 507.355164 
L 160.119013 505.944369 
L 158.327823 504.51559 
L 156.55101 503.068971 
L 154.788751 501.604657 
L 153.041224 500.122794 
L 151.308602 498.62353 
L 149.59106 497.107014 
L 147.888768 495.5734 
L 146.201897 494.022839 
L 144.530616 492.455488 
L 142.875091 490.871503 
L 141.23549 489.271041 
L 139.611974 487.654264 
L 138.004707 486.021333 
L 136.413849 484.372411 
L 134.83956 482.707664 
L 133.281997 481.027257 
L 131.741316 479.331358 
L 130.21767 477.620138 
L 128.711212 475.893767 
L 127.222093 474.152419 
L 125.750462 472.396266 
L 124.296466 470.625485 
L 122.860249 468.840253 
L 121.441957 467.040748 
L 120.04173 465.22715 
L 118.659709 463.399641 
L 117.296032 461.558404 
L 115.950835 459.703622 
L 114.624253 457.835481 
L 113.316418 455.954168 
L 112.027462 454.059871 
L 110.757512 452.152779 
L 109.506697 450.233083 
L 108.275141 448.300975 
L 107.062967 446.356649 
L 105.870297 444.400298 
L 104.69725 442.432118 
L 103.543942 440.452307 
L 102.41049 438.461062 
L 101.297007 436.458582 
L 100.203604 434.445067 
L 99.130391 432.420719 
L 98.077474 430.385741 
L 97.04496 428.340335 
L 96.03295 426.284707 
L 95.041548 424.219061 
L 94.070851 422.143605 
L 93.120957 420.058546 
L 92.19196 417.964092 
L 91.283954 415.860453 
L 90.39703 413.74784 
L 89.531275 411.626463 
L 88.686778 409.496534 
L 87.863621 407.358268 
L 87.061888 405.211877 
L 86.281659 403.057576 
L 85.523011 400.89558 
L 84.786021 398.726106 
L 84.070762 396.549371 
L 83.377306 394.365593 
L 82.705722 392.174989 
L 82.056077 389.977778 
L 81.428437 387.774182 
L 80.822863 385.564419 
L 80.239417 383.348711 
L 79.678157 381.12728 
L 79.139139 378.900347 
L 78.622416 376.668135 
L 78.128042 374.430868 
L 77.656064 372.188769 
L 77.20653 369.942062 
L 76.779486 367.690973 
L 76.374974 365.435725 
L 75.993034 363.176546 
L 75.633704 360.91366 
L 75.297021 358.647294 
L 74.983018 356.377674 
L 74.691726 354.105028 
L 74.423175 351.829583 
L 74.177392 349.551566 
L 73.954401 347.271205 
L 73.754224 344.988728 
L 73.576881 342.704364 
L 73.422391 340.41834 
L 73.290768 338.130886 
L 73.182026 335.84223 
L 73.096176 333.552601 
L 73.033225 331.262228 
L 72.993182 328.97134 
L 72.976048 326.680167 
L 72.981827 324.388936 
L 73.010518 322.097878 
L 73.062117 319.807221 
L 73.13662 317.517195 
L 73.234019 315.228028 
L 73.354305 312.93995 
L 73.497465 310.653189 
L 73.663485 308.367974 
L 73.852348 306.084533 
L 74.064036 303.803095 
L 74.298528 301.523888 
L 74.555799 299.24714 
L 74.835825 296.973078 
L 75.138577 294.70193 
L 75.464025 292.433924 
L 75.812136 290.169285 
L 76.182876 287.90824 
L 76.576207 285.651016 
L 76.992091 283.397838 
L 77.430485 281.148931 
L 77.891346 278.904521 
L 78.374628 276.664831 
L 78.880282 274.430086 
L 79.408258 272.200509 
L 79.958503 269.976324 
L 80.530962 267.757752 
L 81.125577 265.545015 
L 81.74229 263.338335 
L 82.381038 261.137933 
L 83.041758 258.944027 
L 83.724384 256.756839 
L 84.428847 254.576586 
L 85.155078 252.403487 
L 85.903002 250.237758 
L 86.672546 248.079617 
L 87.463632 245.929279 
L 88.276182 243.78696 
L 89.110115 241.652873 
L 89.965346 239.527231 
L 90.84179 237.410249 
L 91.73936 235.302136 
L 92.657966 233.203104 
L 93.597516 231.113363 
L 94.557916 229.033122 
L 95.53907 226.962589 
L 96.54088 224.901971 
L 97.563246 222.851474 
L 98.606065 220.811302 
L 99.669233 218.781661 
L 100.752645 216.762753 
L 101.856191 214.754779 
L 102.979761 212.757942 
L 104.123243 210.772439 
L 105.286522 208.798471 
L 106.469483 206.836234 
L 107.672007 204.885924 
L 108.893973 202.947737 
L 110.13526 201.021866 
L 111.395743 199.108504 
L 112.675296 197.207843 
L 113.973792 195.320072 
L 115.2911 193.44538 
L 116.627089 191.583954 
L 117.981625 189.735982 
L 119.354573 187.901646 
L 120.745795 186.081132 
L 122.155152 184.274621 
L 123.582504 182.482294 
L 125.027708 180.704329 
L 126.490618 178.940905 
L 127.971089 177.192198 
L 129.468973 175.458383 
L 130.98412 173.739634 
L 132.516379 172.036121 
L 134.065595 170.348016 
L 135.631615 168.675487 
L 137.214282 167.018702 
L 138.813437 165.377826 
L 140.428921 163.753024 
L 142.060571 162.144457 
L 143.708226 160.552287 
L 145.371719 158.976672 
L 147.050885 157.417772 
L 148.745556 155.87574 
L 150.455563 154.350732 
L 152.180733 152.8429 
L 153.920896 151.352395 
L 155.675876 149.879366 
L 157.445499 148.42396 
L 159.229586 146.986322 
L 161.027961 145.566597 
L 162.840443 144.164927 
L 164.666851 142.781451 
L 166.507002 141.416308 
L 167.423942 140.746635 
L 167.423942 140.746635 
Q 302.100085 326.112443 520.010661 255.309004 
z
" clip-path="url(#pe0be878c1d)" style="fill: #ffe600; fill-opacity: 0.5; stroke: #808080; stroke-opacity: 0.5; stroke-width: 0.1"/>
    <path d="M 372.903523 108.201866 
L 372.903523 108.201866 
L 375.079052 108.920784 
L 377.247284 109.661421 
L 379.408001 110.423703 
L 381.560987 111.207554 
L 383.706027 112.012895 
L 385.842906 112.839645 
L 387.971412 113.687723 
L 390.09133 114.557043 
L 392.202449 115.447519 
L 394.304558 116.359061 
L 396.397447 117.291577 
L 398.480906 118.244976 
L 400.554727 119.219162 
L 402.618702 120.214036 
L 404.672626 121.229501 
L 406.716293 122.265453 
L 408.749498 123.32179 
L 410.772038 124.398406 
L 412.783712 125.495193 
L 414.784317 126.612041 
L 416.773653 127.74884 
L 418.751523 128.905475 
L 420.717727 130.08183 
L 422.672069 131.277788 
L 424.614355 132.493229 
L 426.544389 133.728032 
L 428.461979 134.982074 
L 430.366933 136.255228 
L 432.25906 137.547368 
L 434.138172 138.858364 
L 436.004079 140.188086 
L 436.776228 140.746635 
L 436.776228 140.746635 
Q 302.100085 326.112443 167.423942 140.746635 
L 167.423942 140.746635 
L 167.423942 140.746635 
L 169.284303 139.409164 
L 171.157945 138.090363 
L 173.044682 136.790365 
L 174.944324 135.509298 
L 176.856681 134.247292 
L 178.781563 133.004472 
L 180.718776 131.780963 
L 182.668128 130.576886 
L 184.629422 129.392363 
L 186.602464 128.227512 
L 188.587055 127.082449 
L 190.582997 125.957289 
L 192.590091 124.852145 
L 194.608136 123.767126 
L 196.63693 122.702342 
L 198.67627 121.657898 
L 200.725953 120.6339 
L 202.785773 119.630449 
L 204.855524 118.647647 
L 206.934999 117.68559 
L 209.023991 116.744377 
L 211.122291 115.824099 
L 213.229688 114.924851 
L 215.345972 114.046721 
L 217.470932 113.189798 
L 219.604354 112.354166 
L 221.746026 111.539911 
L 223.895733 110.747112 
L 226.053261 109.97585 
L 228.218393 109.226201 
L 230.390913 108.49824 
L 231.296646 108.201866 
L 231.296646 108.201866 
Q 302.100085 326.112443 372.903523 108.201866 
z
" clip-path="url(#pe0be878c1d)" style="fill: #00d4ff; fill-opacity: 0.5; stroke: #808080; stroke-opacity: 0.5; stroke-width: 0.1"/>
    <path d="M 302.100085 96.987703 
L 302.100085 96.987703 
L 304.391294 96.999159 
L 306.682274 97.033527 
L 308.972796 97.090802 
L 311.26263 97.170979 
L 313.551549 97.274049 
L 315.839322 97.400004 
L 318.125721 97.54883 
L 320.410518 97.720511 
L 322.693484 97.915032 
L 324.97439 98.132372 
L 327.253009 98.372511 
L 329.529113 98.635423 
L 331.802474 98.921082 
L 334.072864 99.22946 
L 336.340058 99.560527 
L 338.603827 99.914249 
L 340.863946 100.29059 
L 343.120189 100.689513 
L 345.37233 101.110978 
L 347.620143 101.554943 
L 349.863405 102.021364 
L 352.10189 102.510194 
L 354.335375 103.021384 
L 356.563637 103.554882 
L 358.786452 104.110636 
L 361.003599 104.688591 
L 363.214856 105.288687 
L 365.420001 105.910866 
L 367.618814 106.555064 
L 369.811075 107.221218 
L 371.996565 107.909262 
L 372.903523 108.201866 
L 372.903523 108.201866 
Q 302.100085 326.112443 231.296646 108.201866 
L 231.296646 108.201866 
L 231.296646 108.201866 
L 233.479256 107.504739 
L 235.668728 106.829472 
L 237.864842 106.176134 
L 240.06738 105.544789 
L 242.276122 104.935501 
L 244.490845 104.34833 
L 246.71133 103.783335 
L 248.937354 103.240573 
L 251.168693 102.720098 
L 253.405126 102.221962 
L 255.646428 101.746215 
L 257.892376 101.292905 
L 260.142744 100.862076 
L 262.397308 100.453772 
L 264.655842 100.068033 
L 266.918121 99.704899 
L 269.183918 99.364406 
L 271.453006 99.046587 
L 273.725159 98.751474 
L 276.00015 98.479098 
L 278.27775 98.229484 
L 280.557733 98.002659 
L 282.83987 97.798645 
L 285.123933 97.617461 
L 287.409693 97.459127 
L 289.696923 97.323658 
L 291.985393 97.211068 
L 294.274874 97.121368 
L 296.565138 97.054567 
L 298.855955 97.010671 
L 301.147097 96.989685 
L 302.100085 96.987703 
L 302.100085 96.987703 
Q 302.100085 326.112443 302.100085 96.987703 
z
" clip-path="url(#pe0be878c1d)" style="fill: #000080; fill-opacity: 0.5; stroke: #808080; stroke-opacity: 0.5; stroke-width: 0.1"/>
   </g>
   <g id="patch_6">
    <path d="M 302.100085 96.987703 
L 304.391294 96.999159 
L 306.682274 97.033527 
L 308.972796 97.090802 
L 311.26263 97.170979 
L 313.551549 97.274049 
L 315.839322 97.400004 
L 318.125721 97.54883 
L 320.410518 97.720511 
L 322.693484 97.915032 
L 324.97439 98.132372 
L 327.253009 98.372511 
L 329.529113 98.635423 
L 331.802474 98.921082 
L 334.072864 99.22946 
L 336.340058 99.560527 
L 338.603827 99.914249 
L 340.863946 100.29059 
L 343.120189 100.689513 
L 345.37233 101.110978 
L 347.620143 101.554943 
L 349.863405 102.021364 
L 352.10189 102.510194 
L 354.335375 103.021384 
L 356.563637 103.554882 
L 358.786452 104.110636 
L 361.003599 104.688591 
L 363.214856 105.288687 
L 365.420001 105.910866 
L 367.618814 106.555064 
L 369.811075 107.221218 
L 371.996565 107.909262 
L 372.903523 108.201866 
L 373.618709 106.000749 
L 372.70259 105.705189 
L 370.495024 105.010196 
L 368.280619 104.337313 
L 366.059596 103.686607 
L 363.832177 103.058144 
L 361.598584 102.451986 
L 359.359042 101.868194 
L 357.113774 101.306826 
L 354.863005 100.767939 
L 352.606959 100.251585 
L 350.345863 99.757818 
L 348.079942 99.286686 
L 345.809423 98.838236 
L 343.534534 98.412514 
L 341.2555 98.009561 
L 338.972552 97.629418 
L 336.685916 97.272124 
L 334.395822 96.937713 
L 332.102498 96.62622 
L 329.806174 96.337675 
L 327.507079 96.072107 
L 325.205444 95.829544 
L 322.901498 95.610008 
L 320.595472 95.413522 
L 318.287596 95.240106 
L 315.978102 95.089777 
L 313.66722 94.962551 
L 311.355181 94.858438 
L 309.042217 94.777452 
L 306.728559 94.719598 
L 304.414437 94.684884 
L 302.100085 94.673312 
L 302.100085 96.987703 
z
" clip-path="url(#pe0be878c1d)" style="fill: none; stroke: #000000; stroke-width: 0.5; stroke-linejoin: miter"/>
   </g>
   <g id="patch_7">
    <path d="M 372.903523 108.201866 
L 375.079052 108.920784 
L 377.247284 109.661421 
L 379.408001 110.423703 
L 381.560987 111.207554 
L 383.706027 112.012895 
L 385.842906 112.839645 
L 387.971412 113.687723 
L 390.09133 114.557043 
L 392.202449 115.447519 
L 394.304558 116.359061 
L 396.397447 117.291577 
L 398.480906 118.244976 
L 400.554727 119.219162 
L 402.618702 120.214036 
L 404.672626 121.229501 
L 406.716293 122.265453 
L 408.749498 123.32179 
L 410.772038 124.398406 
L 412.783712 125.495193 
L 414.784317 126.612041 
L 416.773653 127.74884 
L 418.751523 128.905475 
L 420.717727 130.08183 
L 422.672069 131.277788 
L 424.614355 132.493229 
L 426.544389 133.728032 
L 428.461979 134.982074 
L 430.366933 136.255228 
L 432.25906 137.547368 
L 434.138172 138.858364 
L 436.004079 140.188086 
L 436.776228 140.746635 
L 438.136593 138.874253 
L 437.356645 138.310062 
L 435.47189 136.966909 
L 433.573797 135.64267 
L 431.662558 134.337478 
L 429.738362 133.051464 
L 427.801402 131.784756 
L 425.851873 130.53748 
L 423.889968 129.309761 
L 421.915885 128.101723 
L 419.92982 126.913485 
L 417.931972 125.745167 
L 415.922541 124.596886 
L 413.901728 123.468756 
L 411.869735 122.36089 
L 409.826765 121.273399 
L 407.773022 120.206392 
L 405.708713 119.159976 
L 403.634042 118.134254 
L 401.549218 117.129331 
L 399.454449 116.145305 
L 397.349945 115.182276 
L 395.235916 114.240339 
L 393.112574 113.31959 
L 390.98013 112.42012 
L 388.838799 111.542019 
L 386.688793 110.685375 
L 384.530329 109.850273 
L 382.363622 109.036797 
L 380.188889 108.245029 
L 378.006346 107.475047 
L 375.816214 106.726929 
L 373.618709 106.000749 
L 372.903523 108.201866 
z
" clip-path="url(#pe0be878c1d)" style="fill: none; stroke: #000000; stroke-width: 0.5; stroke-linejoin: miter"/>
   </g>
   <g id="patch_8">
    <path d="M 436.776228 140.746635 
L 438.623121 142.102642 
L 440.456362 143.47705 
L 442.275768 144.869721 
L 444.081156 146.280517 
L 445.872346 147.709295 
L 447.64916 149.155914 
L 449.411418 150.620228 
L 451.158945 152.102092 
L 452.891567 153.601356 
L 454.60911 155.117871 
L 456.311402 156.651485 
L 457.998272 158.202046 
L 459.669554 159.769397 
L 461.325078 161.353383 
L 462.96468 162.953844 
L 464.588195 164.570621 
L 466.195462 166.203552 
L 467.78632 167.852474 
L 469.360609 169.517222 
L 470.918172 171.197629 
L 472.458854 172.893527 
L 473.982499 174.604747 
L 475.488957 176.331118 
L 476.978076 178.072467 
L 478.449707 179.82862 
L 479.903704 181.599401 
L 481.33992 183.384633 
L 482.758212 185.184138 
L 484.158439 186.997735 
L 485.54046 188.825244 
L 486.904137 190.666481 
L 488.249334 192.521263 
L 489.575916 194.389404 
L 490.883751 196.270718 
L 492.172708 198.165015 
L 493.442657 200.072107 
L 494.693472 201.991802 
L 495.925028 203.92391 
L 497.137202 205.868237 
L 498.329872 207.824588 
L 499.50292 209.792767 
L 500.656227 211.772578 
L 501.789679 213.763824 
L 502.903162 215.766304 
L 503.996565 217.779818 
L 505.069778 219.804166 
L 506.122695 221.839145 
L 507.15521 223.88455 
L 508.167219 225.940179 
L 509.158622 228.005824 
L 510.129319 230.08128 
L 511.079213 232.16634 
L 512.008209 234.260793 
L 512.916215 236.364432 
L 513.80314 238.477046 
L 514.668894 240.598423 
L 515.513391 242.728351 
L 516.336548 244.866618 
L 517.138281 247.013009 
L 517.91851 249.16731 
L 518.677158 251.329305 
L 519.414148 253.498779 
L 520.129407 255.675514 
L 520.822863 257.859293 
L 521.494447 260.049897 
L 522.144092 262.247107 
L 522.771733 264.450704 
L 523.377306 266.660466 
L 523.960752 268.876174 
L 524.522013 271.097606 
L 525.061031 273.324539 
L 525.577753 275.55675 
L 526.072128 277.794018 
L 526.544105 280.036117 
L 526.993639 282.282823 
L 527.420683 284.533913 
L 527.825196 286.78916 
L 528.207136 289.04834 
L 528.566465 291.311226 
L 528.903148 293.577592 
L 529.217151 295.847211 
L 529.508443 298.119858 
L 529.776994 300.395303 
L 530.022777 302.67332 
L 530.245769 304.953681 
L 530.445945 307.236157 
L 530.623288 309.520522 
L 530.777778 311.806545 
L 530.909401 314.093999 
L 531.018143 316.382655 
L 531.103994 318.672284 
L 531.166944 320.962657 
L 531.206988 323.253545 
L 531.224121 325.544719 
L 531.218342 327.835949 
L 531.189651 330.127008 
L 531.138052 332.417664 
L 531.063549 334.707691 
L 530.96615 336.996857 
L 530.845864 339.284936 
L 530.702704 341.571697 
L 530.536684 343.856912 
L 530.347821 346.140353 
L 530.136133 348.421791 
L 529.901641 350.700998 
L 529.64437 352.977746 
L 529.364344 355.251807 
L 529.061592 357.522955 
L 528.736144 359.790962 
L 528.388033 362.055601 
L 528.017293 364.316645 
L 527.623962 366.57387 
L 527.208078 368.827048 
L 526.769684 371.075955 
L 526.308823 373.320365 
L 525.825541 375.560055 
L 525.319887 377.794799 
L 524.791911 380.024376 
L 524.241667 382.248562 
L 523.669208 384.467134 
L 523.074592 386.67987 
L 522.457879 388.88655 
L 521.819131 391.086953 
L 521.158411 393.280858 
L 520.475785 395.468046 
L 519.771322 397.648299 
L 519.045092 399.821399 
L 518.297167 401.987127 
L 517.527623 404.145268 
L 516.736537 406.295606 
L 515.923987 408.437926 
L 515.090055 410.572013 
L 514.234824 412.697654 
L 513.358379 414.814637 
L 512.460809 416.922749 
L 511.542203 419.021781 
L 510.602653 421.111522 
L 509.642253 423.191763 
L 508.661099 425.262296 
L 507.659289 427.322915 
L 506.636924 429.373412 
L 505.594104 431.413583 
L 504.530936 433.443224 
L 503.447525 435.462133 
L 502.343979 437.470106 
L 501.220408 439.466944 
L 500.076926 441.452446 
L 498.913647 443.426415 
L 497.730686 445.388652 
L 496.528162 447.338961 
L 495.306196 449.277149 
L 494.064909 451.203019 
L 492.804426 453.116381 
L 491.524873 455.017043 
L 490.226377 456.904814 
L 488.909069 458.779506 
L 487.57308 460.640931 
L 486.218544 462.488904 
L 484.845596 464.323239 
L 483.454374 466.143753 
L 482.045017 467.950264 
L 480.617665 469.742592 
L 479.172462 471.520556 
L 477.709551 473.28398 
L 476.22908 475.032687 
L 474.731196 476.766502 
L 473.216049 478.485252 
L 471.683791 480.188764 
L 470.134574 481.876869 
L 468.568554 483.549398 
L 466.985887 485.206183 
L 465.386732 486.847059 
L 463.771249 488.471862 
L 462.139598 490.080429 
L 460.491944 491.672599 
L 458.82845 493.248213 
L 457.149284 494.807114 
L 455.454613 496.349145 
L 453.744607 497.874153 
L 452.019436 499.381985 
L 450.279274 500.87249 
L 448.524293 502.34552 
L 446.754671 503.800926 
L 444.970583 505.238563 
L 443.172208 506.658288 
L 441.359726 508.059959 
L 439.533318 509.443434 
L 437.693167 510.808577 
L 435.839457 512.155251 
L 433.972373 513.48332 
L 432.092102 514.792653 
L 430.198832 516.083117 
L 428.292752 517.354585 
L 426.374053 518.606929 
L 424.442926 519.840023 
L 422.499566 521.053745 
L 420.544165 522.247972 
L 418.576921 523.422587 
L 416.598028 524.57747 
L 414.607686 525.712508 
L 412.606093 526.827585 
L 410.59345 527.922591 
L 408.569958 528.997416 
L 406.535818 530.051953 
L 404.491236 531.086096 
L 402.436414 532.099742 
L 400.371558 533.092789 
L 398.296876 534.065138 
L 396.212574 535.016693 
L 394.11886 535.947357 
L 392.015945 536.857038 
L 389.904039 537.745644 
L 387.783352 538.613087 
L 385.654097 539.459281 
L 383.516486 540.28414 
L 381.370734 541.087582 
L 379.217055 541.869526 
L 377.055664 542.629895 
L 374.886778 543.368613 
L 372.710613 544.085605 
L 370.527388 544.7808 
L 368.337319 545.454128 
L 366.140627 546.105523 
L 363.937531 546.734918 
L 361.728251 547.342251 
L 359.513008 547.927461 
L 357.292025 548.49049 
L 355.065522 549.031282 
L 352.833722 549.549781 
L 350.596849 550.045938 
L 348.355127 550.5197 
L 346.108779 550.971023 
L 343.85803 551.39986 
L 341.603106 551.806168 
L 339.344231 552.189907 
L 337.081632 552.551038 
L 334.815535 552.889526 
L 332.546166 553.205337 
L 330.273752 553.498438 
L 327.998522 553.7688 
L 325.720701 554.016398 
L 323.440518 554.241205 
L 321.158202 554.443199 
L 318.873979 554.622361 
L 316.58808 554.778672 
L 314.300731 554.912116 
L 312.012162 555.022681 
L 309.722603 555.110354 
L 307.432281 555.175128 
L 305.141425 555.216996 
L 302.850266 555.235954 
L 302.100085 555.237182 
L 302.100085 557.551574 
L 302.857843 557.550333 
L 305.172146 557.531184 
L 307.486141 557.488893 
L 309.799598 557.423464 
L 312.112284 557.334905 
L 314.42397 557.223224 
L 316.734423 557.088432 
L 319.043413 556.930542 
L 321.350708 556.749571 
L 323.656078 556.545536 
L 325.959293 556.318458 
L 328.260122 556.06836 
L 330.558335 555.795266 
L 332.853702 555.499204 
L 335.145994 555.180204 
L 337.434981 554.838297 
L 339.720434 554.473518 
L 342.002126 554.085903 
L 344.279828 553.67549 
L 346.553311 553.242322 
L 348.82235 552.78644 
L 351.086716 552.307892 
L 353.346183 551.806724 
L 355.600526 551.282987 
L 357.849519 550.736733 
L 360.092937 550.168017 
L 362.330556 549.576895 
L 364.562152 548.963428 
L 366.787501 548.327675 
L 369.006382 547.669701 
L 371.218572 546.989571 
L 373.423851 546.287354 
L 375.621997 545.56312 
L 377.812791 544.81694 
L 379.996014 544.048891 
L 382.171448 543.259048 
L 384.338874 542.44749 
L 386.498077 541.614299 
L 388.648839 540.759559 
L 390.790947 539.883353 
L 392.924186 538.985771 
L 395.048343 538.066901 
L 397.163205 537.126837 
L 399.268561 536.165671 
L 401.364199 535.1835 
L 403.449912 534.180421 
L 405.52549 533.156537 
L 407.590725 532.111948 
L 409.645411 531.046759 
L 411.689343 529.961077 
L 413.722316 528.855011 
L 415.744127 527.72867 
L 417.754573 526.582168 
L 419.753454 525.415619 
L 421.74057 524.229139 
L 423.715722 523.022849 
L 425.678713 521.796867 
L 427.629345 520.551317 
L 429.567425 519.286324 
L 431.492759 518.002013 
L 433.405153 516.698513 
L 435.304417 515.375955 
L 437.19036 514.034471 
L 439.062795 512.674195 
L 440.921533 511.295263 
L 442.766389 509.897812 
L 444.597179 508.481983 
L 446.413719 507.047918 
L 448.215828 505.595759 
L 450.003326 504.125652 
L 451.776033 502.637743 
L 453.533773 501.132183 
L 455.276369 499.60912 
L 457.003649 498.068708 
L 458.715437 496.5111 
L 460.411565 494.936453 
L 462.091861 493.344924 
L 463.756159 491.736671 
L 465.404291 490.111856 
L 467.036092 488.470641 
L 468.651401 486.813191 
L 470.250054 485.13967 
L 471.831892 483.450247 
L 473.396757 481.745091 
L 474.944493 480.024371 
L 476.474945 478.28826 
L 477.987959 476.536932 
L 479.483384 474.770561 
L 480.961072 472.989325 
L 482.420873 471.193401 
L 483.862643 469.38297 
L 485.286236 467.558211 
L 486.691511 465.719308 
L 488.078327 463.866444 
L 489.446545 461.999805 
L 490.796029 460.119577 
L 492.126643 458.225949 
L 493.438255 456.319109 
L 494.730733 454.399249 
L 496.003948 452.46656 
L 497.257773 450.521236 
L 498.492082 448.563472 
L 499.706753 446.593462 
L 500.901663 444.611404 
L 502.076693 442.617497 
L 503.231725 440.611939 
L 504.366644 438.594931 
L 505.481337 436.566675 
L 506.575692 434.527374 
L 507.6496 432.477231 
L 508.702952 430.416452 
L 509.735645 428.345243 
L 510.747574 426.26381 
L 511.738639 424.172362 
L 512.70874 422.071109 
L 513.65778 419.960259 
L 514.585665 417.840025 
L 515.492301 415.710619 
L 516.377599 413.572252 
L 517.241468 411.42514 
L 518.083824 409.269496 
L 518.904582 407.105537 
L 519.703659 404.933478 
L 520.480976 402.753538 
L 521.236455 400.565933 
L 521.970021 398.370884 
L 522.6816 396.168608 
L 523.371121 393.959327 
L 524.038515 391.743261 
L 524.683716 389.520632 
L 525.306658 387.291663 
L 525.90728 385.056575 
L 526.485521 382.815593 
L 527.041324 380.568941 
L 527.574633 378.316843 
L 528.085394 376.059525 
L 528.573558 373.797213 
L 529.039074 371.530131 
L 529.481896 369.258508 
L 529.901981 366.982571 
L 530.299285 364.702546 
L 530.67377 362.418663 
L 531.025398 360.131149 
L 531.354133 357.840233 
L 531.659943 355.546144 
L 531.942797 353.249112 
L 532.202667 350.949367 
L 532.439527 348.647137 
L 532.653354 346.342655 
L 532.844125 344.036149 
L 533.011822 341.727851 
L 533.156428 339.417991 
L 533.277928 337.106801 
L 533.376311 334.794511 
L 533.451567 332.481354 
L 533.503687 330.167559 
L 533.532668 327.853359 
L 533.538505 325.538984 
L 533.521199 323.224667 
L 533.480751 320.910639 
L 533.417164 318.597131 
L 533.330447 316.284375 
L 533.220606 313.972601 
L 533.087654 311.662041 
L 532.931603 309.352927 
L 532.752469 307.045488 
L 532.55027 304.739956 
L 532.325027 302.436561 
L 532.076761 300.135534 
L 531.805497 297.837104 
L 531.511263 295.541502 
L 531.194089 293.248957 
L 530.854005 290.959698 
L 530.491045 288.673955 
L 530.105247 286.391955 
L 529.696649 284.113928 
L 529.265291 281.8401 
L 528.811217 279.570699 
L 528.334472 277.305953 
L 527.835103 275.046087 
L 527.313161 272.791328 
L 526.768699 270.5419 
L 526.201769 268.29803 
L 525.61243 266.059941 
L 525.000739 263.827858 
L 524.366759 261.602003 
L 523.710552 259.382598 
L 523.032184 257.169867 
L 522.331723 254.96403 
L 521.60924 252.765308 
L 520.864805 250.57392 
L 520.098494 248.390086 
L 519.310384 246.214025 
L 518.500553 244.045953 
L 517.669081 241.886087 
L 516.816054 239.734645 
L 515.941554 237.59184 
L 515.045671 235.457887 
L 514.128493 233.332999 
L 513.190113 231.217389 
L 512.230624 229.111269 
L 511.250122 227.014848 
L 510.248705 224.928338 
L 509.226474 222.851945 
L 508.18353 220.785879 
L 507.119977 218.730345 
L 506.035923 216.685549 
L 504.931476 214.651696 
L 503.806746 212.628989 
L 502.661845 210.61763 
L 501.496888 208.617821 
L 500.311991 206.629761 
L 499.107274 204.653649 
L 497.882856 202.689683 
L 496.63886 200.738059 
L 495.37541 198.798972 
L 494.092633 196.872616 
L 492.790657 194.959185 
L 491.469612 193.058869 
L 490.12963 191.171858 
L 488.770845 189.29834 
L 487.393393 187.438505 
L 485.997412 185.592536 
L 484.583042 183.760619 
L 483.150423 181.942938 
L 481.6997 180.139673 
L 480.231017 178.351005 
L 478.74452 176.577114 
L 477.24036 174.818175 
L 475.718685 173.074366 
L 474.179649 171.345861 
L 472.623405 169.632833 
L 471.050109 167.935452 
L 469.459918 166.253888 
L 467.852991 164.588311 
L 466.229489 162.938886 
L 464.589575 161.305777 
L 462.933411 159.68915 
L 461.261164 158.089165 
L 459.573002 156.505981 
L 457.869092 154.939759 
L 456.149605 153.390653 
L 454.414713 151.85882 
L 452.664591 150.344411 
L 450.899411 148.84758 
L 449.119352 147.368474 
L 447.324592 145.907243 
L 445.515308 144.464033 
L 443.691684 143.038987 
L 441.8539 141.632248 
L 440.002142 140.243957 
L 438.136593 138.874253 
L 436.776228 140.746635 
z
" clip-path="url(#pe0be878c1d)" style="fill: none; stroke: #000000; stroke-width: 0.5; stroke-linejoin: miter"/>
   </g>
   <g id="patch_9">
    <path d="M 302.100085 555.237182 
L 299.808875 555.225726 
L 297.517895 555.191359 
L 295.227373 555.134084 
L 292.937539 555.053907 
L 290.648621 554.950836 
L 288.360847 554.824881 
L 286.074448 554.676056 
L 283.789651 554.504374 
L 281.506685 554.309853 
L 279.225779 554.092513 
L 276.94716 553.852375 
L 274.671056 553.589463 
L 272.397695 553.303803 
L 270.127305 552.995425 
L 267.860111 552.664358 
L 265.596342 552.310637 
L 263.336223 551.934296 
L 261.07998 551.535373 
L 258.82784 551.113907 
L 256.580026 550.669942 
L 254.336764 550.203521 
L 252.098279 549.714692 
L 249.864794 549.203502 
L 247.636532 548.670003 
L 245.413717 548.114249 
L 243.19657 547.536295 
L 240.985314 546.936198 
L 238.780169 546.31402 
L 236.581356 545.669821 
L 234.389094 545.003667 
L 232.203604 544.315624 
L 230.025103 543.605761 
L 227.85381 542.874148 
L 225.689942 542.12086 
L 223.533714 541.345971 
L 221.385343 540.549559 
L 219.245043 539.731703 
L 217.113029 538.892485 
L 214.989513 538.03199 
L 212.874708 537.150303 
L 210.768826 536.247512 
L 208.672077 535.323708 
L 206.584671 534.378983 
L 204.506816 533.413432 
L 202.43872 532.427151 
L 200.38059 531.420238 
L 198.332632 530.392795 
L 196.295051 529.344923 
L 194.268051 528.276729 
L 192.251833 527.188319 
L 190.2466 526.079801 
L 188.252552 524.951286 
L 186.26989 523.802888 
L 184.298809 522.634721 
L 182.339509 521.446902 
L 180.392185 520.239549 
L 178.457032 519.012784 
L 176.534243 517.76673 
L 174.62401 516.501509 
L 172.726525 515.217251 
L 170.841977 513.914081 
L 168.970555 512.592132 
L 167.112445 511.251535 
L 165.267835 509.892424 
L 163.436907 508.514936 
L 161.619846 507.119207 
L 159.816832 505.705378 
L 158.028047 504.273589 
L 156.253669 502.823985 
L 154.493875 501.35671 
L 152.748842 499.87191 
L 151.018743 498.369735 
L 149.303753 496.850334 
L 147.604043 495.313859 
L 145.919781 493.760464 
L 144.251138 492.190305 
L 142.598279 490.603538 
L 140.961371 489.000322 
L 139.340576 487.380817 
L 137.736057 485.745186 
L 136.147974 484.093592 
L 134.576487 482.426199 
L 133.021751 480.743175 
L 131.483924 479.044689 
L 129.963158 477.330909 
L 128.459605 475.602008 
L 126.973416 473.858157 
L 125.50474 472.099533 
L 124.053723 470.326309 
L 122.620511 468.538665 
L 121.205246 466.736778 
L 119.808071 464.920828 
L 118.429124 463.090998 
L 117.068545 461.24747 
L 115.726469 459.390429 
L 114.40303 457.52006 
L 113.09836 455.636551 
L 111.812591 453.740089 
L 110.54585 451.830864 
L 109.298264 449.909068 
L 108.069959 447.974892 
L 106.861056 446.02853 
L 105.671677 444.070176 
L 104.501941 442.100027 
L 103.351964 440.118279 
L 102.221862 438.125131 
L 101.111748 436.120782 
L 100.021732 434.105431 
L 98.951924 432.079282 
L 97.90243 430.042536 
L 96.873357 427.995397 
L 95.864805 425.93807 
L 94.876877 423.87076 
L 93.909672 421.793675 
L 92.963285 419.707021 
L 92.037811 417.611008 
L 91.133344 415.505846 
L 90.249973 413.391744 
L 89.387787 411.268914 
L 88.546872 409.137569 
L 87.727312 406.997921 
L 86.929189 404.850185 
L 86.152583 402.694575 
L 85.397572 400.531307 
L 84.664231 398.360597 
L 83.952633 396.182662 
L 83.26285 393.997721 
L 82.59495 391.80599 
L 81.949001 389.607691 
L 81.325066 387.403042 
L 80.723209 385.192264 
L 80.14349 382.975578 
L 79.585966 380.753206 
L 79.050693 378.52537 
L 78.537724 376.292293 
L 78.047112 374.054198 
L 77.578905 371.811308 
L 77.13315 369.563849 
L 76.709892 367.312044 
L 76.309172 365.05612 
L 75.931031 362.796301 
L 75.575507 360.532814 
L 75.242635 358.265885 
L 74.932449 355.995741 
L 74.644979 353.722608 
L 74.380255 351.446715 
L 74.138302 349.168288 
L 73.919146 346.887555 
L 73.722807 344.604745 
L 73.549306 342.320086 
L 73.398659 340.033806 
L 73.270883 337.746133 
L 73.165989 335.457298 
L 73.083989 333.167528 
L 73.02489 330.877052 
L 72.988698 328.5861 
L 72.975418 326.294901 
L 72.985049 324.003683 
L 73.017592 321.712677 
L 73.073043 319.42211 
L 73.151397 317.132212 
L 73.252645 314.843212 
L 73.376778 312.55534 
L 73.523782 310.268822 
L 73.693645 307.98389 
L 73.886347 305.70077 
L 74.101871 303.419691 
L 74.340195 301.140881 
L 74.601294 298.864569 
L 74.885143 296.590982 
L 75.191714 294.320346 
L 75.520975 292.05289 
L 75.872893 289.788839 
L 76.247435 287.528421 
L 76.644561 285.271862 
L 77.064233 283.019386 
L 77.506408 280.77122 
L 77.971042 278.527587 
L 78.458089 276.288713 
L 78.9675 274.054822 
L 79.499224 271.826136 
L 80.053208 269.602879 
L 80.629396 267.385273 
L 81.227732 265.173539 
L 81.848154 262.967899 
L 82.490602 260.768574 
L 83.15501 258.575783 
L 83.841312 256.389745 
L 84.54944 254.21068 
L 85.279324 252.038805 
L 86.030889 249.874337 
L 86.80406 247.717493 
L 87.598761 245.568488 
L 88.414912 243.427538 
L 89.252432 241.294856 
L 90.111236 239.170656 
L 90.991239 237.05515 
L 91.892352 234.948549 
L 92.814486 232.851065 
L 93.757549 230.762907 
L 94.721445 228.684284 
L 95.706079 226.615404 
L 96.711353 224.556473 
L 97.737165 222.507697 
L 98.783413 220.469282 
L 99.849993 218.441432 
L 100.936797 216.424348 
L 102.043718 214.418233 
L 103.170644 212.423287 
L 104.317463 210.43971 
L 105.48406 208.467701 
L 106.670319 206.507456 
L 107.87612 204.559171 
L 109.101344 202.623041 
L 110.345867 200.69926 
L 111.609566 198.788021 
L 112.892313 196.889513 
L 114.193981 195.003928 
L 115.51444 193.131454 
L 116.853557 191.272277 
L 118.211198 189.426585 
L 119.587228 187.594561 
L 120.98151 185.776389 
L 122.393903 183.97225 
L 123.824266 182.182325 
L 125.272457 180.406793 
L 126.738331 178.645831 
L 128.22174 176.899616 
L 129.722537 175.168322 
L 131.240572 173.452123 
L 132.775693 171.751189 
L 134.327746 170.065691 
L 135.896576 168.395798 
L 137.482026 166.741677 
L 139.083938 165.103492 
L 140.702151 163.481408 
L 142.336504 161.875587 
L 143.986834 160.28619 
L 145.652974 158.713375 
L 147.334759 157.1573 
L 149.032021 155.61812 
L 150.744589 154.095989 
L 152.472293 152.59106 
L 154.214959 151.103483 
L 155.972413 149.633407 
L 157.744481 148.180979 
L 159.530983 146.746343 
L 161.331743 145.329644 
L 163.146579 143.931023 
L 164.975311 142.55062 
L 166.817754 141.188574 
L 168.673726 139.845019 
L 170.543041 138.520091 
L 172.425511 137.213922 
L 174.320948 135.926643 
L 176.229163 134.658382 
L 178.149966 133.409266 
L 180.083163 132.179421 
L 182.028561 130.968968 
L 183.985967 129.77803 
L 185.955184 128.606725 
L 187.936016 127.455171 
L 189.928263 126.323482 
L 191.931728 125.211772 
L 193.94621 124.120152 
L 195.971507 123.048731 
L 198.007416 121.997616 
L 200.053735 120.966912 
L 202.110259 119.956723 
L 204.176781 118.967149 
L 206.253095 117.998289 
L 208.338995 117.050241 
L 210.43427 116.123099 
L 212.538712 115.216955 
L 214.652109 114.331901 
L 216.774252 113.468025 
L 218.904927 112.625413 
L 221.043921 111.804149 
L 223.191021 111.004316 
L 225.346012 110.225994 
L 227.508678 109.469261 
L 229.678803 108.734191 
L 231.856171 108.020859 
L 234.040562 107.329336 
L 236.23176 106.659691 
L 238.429544 106.011992 
L 240.633696 105.386302 
L 242.843994 104.782684 
L 245.060217 104.2012 
L 247.282144 103.641906 
L 249.509554 103.104859 
L 251.742222 102.590113 
L 253.979926 102.097719 
L 256.222442 101.627726 
L 258.469545 101.180181 
L 260.721012 100.75513 
L 262.976616 100.352613 
L 265.236133 99.972673 
L 267.499336 99.615347 
L 269.766 99.28067 
L 272.035896 98.968676 
L 274.308799 98.679396 
L 276.584481 98.412859 
L 278.862715 98.169092 
L 281.143272 97.94812 
L 283.425925 97.749963 
L 285.710446 97.574643 
L 287.996605 97.422176 
L 290.284175 97.292578 
L 292.572926 97.185862 
L 294.86263 97.102038 
L 297.153058 97.041115 
L 299.44398 97.003099 
L 301.735168 96.987994 
L 302.100085 96.987703 
L 302.100085 94.673312 
L 301.731482 94.673605 
L 299.417151 94.688863 
L 297.103088 94.727263 
L 294.789525 94.788801 
L 292.476692 94.873472 
L 290.164822 94.981266 
L 287.854146 95.112173 
L 285.544894 95.26618 
L 283.237297 95.443271 
L 280.931587 95.64343 
L 278.627994 95.866634 
L 276.326748 96.112864 
L 274.028079 96.382093 
L 271.732218 96.674294 
L 269.439393 96.98944 
L 267.149834 97.327497 
L 264.86377 97.688433 
L 262.58143 98.072211 
L 260.303041 98.478793 
L 258.028833 98.908138 
L 255.759031 99.360203 
L 253.493863 99.834944 
L 251.233556 100.332312 
L 248.978336 100.852257 
L 246.728428 101.394729 
L 244.484057 101.959672 
L 242.245447 102.54703 
L 240.012823 103.156745 
L 237.786408 103.788755 
L 235.566423 104.442997 
L 233.353092 105.119406 
L 231.146636 105.817914 
L 228.947275 106.538451 
L 226.75523 107.280946 
L 224.570718 108.045323 
L 222.39396 108.831507 
L 220.225172 109.639419 
L 218.064572 110.468978 
L 215.912375 111.320101 
L 213.768796 112.192704 
L 211.634051 113.086698 
L 209.508352 114.001994 
L 207.391913 114.938501 
L 205.284944 115.896126 
L 203.187657 116.874772 
L 201.10026 117.874342 
L 199.022964 118.894735 
L 196.955975 119.93585 
L 194.899501 120.997582 
L 192.853746 122.079826 
L 190.818917 123.182472 
L 188.795215 124.305412 
L 186.782843 125.448532 
L 184.782003 126.611718 
L 182.792895 127.794854 
L 180.815718 128.997822 
L 178.850669 130.220501 
L 176.897944 131.462769 
L 174.95774 132.724502 
L 173.03025 134.005574 
L 171.115667 135.305856 
L 169.214182 136.625219 
L 167.325985 137.96353 
L 165.451266 139.320656 
L 163.590212 140.696461 
L 161.743008 142.090807 
L 159.90984 143.503555 
L 158.090891 144.934564 
L 156.286343 146.383691 
L 154.496376 147.850791 
L 152.72117 149.335716 
L 150.960901 150.838319 
L 149.215746 152.35845 
L 147.485879 153.895955 
L 145.771473 155.450682 
L 144.0727 157.022475 
L 142.38973 158.611177 
L 140.722731 160.216629 
L 139.071869 161.83867 
L 137.43731 163.477139 
L 135.819217 165.131871 
L 134.217752 166.802701 
L 132.633076 168.489462 
L 131.065345 170.191985 
L 129.514718 171.910099 
L 127.98135 173.643634 
L 126.465393 175.392416 
L 124.967 177.15627 
L 123.486319 178.935019 
L 122.0235 180.728485 
L 120.578689 182.53649 
L 119.152029 184.358853 
L 117.743664 186.195391 
L 116.353735 188.04592 
L 114.98238 189.910256 
L 113.629736 191.788212 
L 112.29594 193.6796 
L 110.981124 195.584231 
L 109.685419 197.501915 
L 108.408956 199.43246 
L 107.151862 201.375673 
L 105.914262 203.33136 
L 104.696281 205.299324 
L 103.49804 207.27937 
L 102.319659 209.271299 
L 101.161256 211.274912 
L 100.022947 213.290009 
L 98.904845 215.316387 
L 97.807063 217.353846 
L 96.729709 219.40218 
L 95.672893 221.461185 
L 94.636719 223.530655 
L 93.621291 225.610383 
L 92.626711 227.700161 
L 91.653079 229.799781 
L 90.70049 231.909031 
L 89.769042 234.027702 
L 88.858826 236.155581 
L 87.969934 238.292456 
L 87.102456 240.438113 
L 86.256476 242.592337 
L 85.432081 244.754913 
L 84.629353 246.925625 
L 83.848371 249.104255 
L 83.089215 251.290586 
L 82.351959 253.4844 
L 81.636678 255.685476 
L 80.943443 257.893594 
L 80.272324 260.108535 
L 79.623387 262.330076 
L 78.996698 264.557995 
L 78.392319 266.792069 
L 77.81031 269.032075 
L 77.25073 271.27779 
L 76.713635 273.528987 
L 76.199079 275.785443 
L 75.707112 278.046932 
L 75.237785 280.313227 
L 74.791143 282.584103 
L 74.367232 284.859331 
L 73.966095 287.138684 
L 73.58777 289.421934 
L 73.232297 291.708854 
L 72.89971 293.999214 
L 72.590043 296.292785 
L 72.303327 298.589338 
L 72.03959 300.888643 
L 71.798859 303.190471 
L 71.581158 305.494591 
L 71.386509 307.800773 
L 71.214931 310.108786 
L 71.066441 312.418399 
L 70.941055 314.729382 
L 70.838784 317.041503 
L 70.759639 319.354531 
L 70.703628 321.668234 
L 70.670756 323.982383 
L 70.661027 326.296744 
L 70.674442 328.611087 
L 70.710999 330.92518 
L 70.770695 333.238791 
L 70.853524 335.55169 
L 70.959477 337.863645 
L 71.088544 340.174425 
L 71.240712 342.483799 
L 71.415966 344.791536 
L 71.614288 347.097405 
L 71.835658 349.401175 
L 72.080054 351.702616 
L 72.347453 354.001499 
L 72.637826 356.297593 
L 72.951146 358.590668 
L 73.28738 360.880495 
L 73.646495 363.166845 
L 74.028456 365.449491 
L 74.433223 367.728202 
L 74.860757 370.002752 
L 75.311015 372.272913 
L 75.783951 374.538458 
L 76.279519 376.79916 
L 76.797668 379.054794 
L 77.338348 381.305133 
L 77.901504 383.549954 
L 78.487079 385.78903 
L 79.095016 388.022139 
L 79.725253 390.249057 
L 80.377727 392.469562 
L 81.052373 394.68343 
L 81.749124 396.890442 
L 82.467909 399.090376 
L 83.208658 401.283012 
L 83.971296 403.468132 
L 84.755746 405.645516 
L 85.56193 407.814946 
L 86.389769 409.976206 
L 87.239178 412.129081 
L 88.110073 414.273353 
L 89.002367 416.408809 
L 89.91597 418.535236 
L 90.850792 420.652421 
L 91.806738 422.760152 
L 92.783714 424.858218 
L 93.781621 426.946409 
L 94.800359 429.024518 
L 95.839828 431.092335 
L 96.899922 433.149654 
L 97.980536 435.19627 
L 99.081562 437.231977 
L 100.20289 439.256572 
L 101.344407 441.269854 
L 102.506 443.271619 
L 103.687552 445.261669 
L 104.888945 447.239804 
L 106.110059 449.205826 
L 107.350771 451.159539 
L 108.610959 453.100747 
L 109.890495 455.029257 
L 111.189252 456.944875 
L 112.5071 458.84741 
L 113.843907 460.736671 
L 115.19954 462.612471 
L 116.573862 464.47462 
L 117.966737 466.322933 
L 119.378025 468.157226 
L 120.807586 469.977313 
L 122.255275 471.783015 
L 123.720948 473.57415 
L 125.20446 475.350538 
L 126.705661 477.112003 
L 128.224401 478.858368 
L 129.760528 480.589459 
L 131.31389 482.305102 
L 132.884329 484.005126 
L 134.471691 485.689361 
L 136.075814 487.357638 
L 137.696541 489.009791 
L 139.333707 490.645654 
L 140.98715 492.265064 
L 142.656704 493.867859 
L 144.342202 495.453879 
L 146.043476 497.022964 
L 147.760356 498.574959 
L 149.492669 500.109707 
L 151.240243 501.627056 
L 153.002903 503.126854 
L 154.780472 504.60895 
L 156.572774 506.073197 
L 158.379628 507.519448 
L 160.200853 508.947558 
L 162.036269 510.357385 
L 163.885691 511.748788 
L 165.748934 513.121627 
L 167.625812 514.475765 
L 169.516138 515.811068 
L 171.419721 517.1274 
L 173.336373 518.424631 
L 175.265901 519.702631 
L 177.208112 520.961273 
L 179.162813 522.200429 
L 181.129807 523.419977 
L 183.108898 524.619794 
L 185.099888 525.799761 
L 187.102577 526.959759 
L 189.116767 528.099673 
L 191.142255 529.219388 
L 193.178838 530.318793 
L 195.226314 531.397777 
L 197.284476 532.456232 
L 199.353121 533.494054 
L 201.432039 534.511137 
L 203.521025 535.507381 
L 205.619868 536.482686 
L 207.72836 537.436953 
L 209.846288 538.370089 
L 211.973442 539.281999 
L 214.109608 540.172592 
L 216.254574 541.041779 
L 218.408123 541.889473 
L 220.570042 542.71559 
L 222.740114 543.520047 
L 224.918122 544.302763 
L 227.103848 545.06366 
L 229.297073 545.802663 
L 231.497579 546.519696 
L 233.705145 547.214689 
L 235.91955 547.887572 
L 238.140574 548.538278 
L 240.367993 549.166741 
L 242.601585 549.772899 
L 244.841127 550.356691 
L 247.086395 550.918059 
L 249.337165 551.456947 
L 251.59321 551.9733 
L 253.854307 552.467068 
L 256.120227 552.9382 
L 258.390746 553.386649 
L 260.665636 553.812372 
L 262.944669 554.215325 
L 265.227617 554.595467 
L 267.514253 554.952762 
L 269.804347 555.287172 
L 272.097671 555.598666 
L 274.393995 555.88721 
L 276.69309 556.152778 
L 278.994725 556.395342 
L 281.298671 556.614878 
L 283.604697 556.811363 
L 285.912573 556.984779 
L 288.222067 557.135108 
L 290.532949 557.262335 
L 292.844988 557.366447 
L 295.157952 557.447434 
L 297.471611 557.505287 
L 299.785732 557.540002 
L 302.100085 557.551574 
L 302.100085 555.237182 
z
" clip-path="url(#pe0be878c1d)" style="fill: none; stroke: #000000; stroke-width: 0.5; stroke-linejoin: miter"/>
   </g>
   <g id="text_1">
    <text style="font: 3px 'DejaVu Sans', 'Bitstream Vera Sans', 'Computer Modern Sans Serif', 'Lucida Grande', 'Verdana', 'Geneva', 'Lucid', 'Arial', 'Helvetica', 'Avant Garde', sans-serif; text-anchor: start" x="339.792925" y="95.415113" transform="rotate(-81 339.792925 95.415113)">International University of Management</text>
   </g>
   <g id="text_2">
    <text style="font: 3px 'DejaVu Sans', 'Bitstream Vera Sans', 'Computer Modern Sans Serif', 'Lucida Grande', 'Verdana', 'Geneva', 'Lucid', 'Arial', 'Helvetica', 'Avant Garde', sans-serif; text-anchor: start" x="409.237502" y="118.353972" transform="rotate(-63 409.237502 118.353972)">Ministry of Health and Social Services</text>
   </g>
   <g id="text_3">
    <text style="font: 3px 'DejaVu Sans', 'Bitstream Vera Sans', 'Computer Modern Sans Serif', 'Lucida Grande', 'Verdana', 'Geneva', 'Lucid', 'Arial', 'Helvetica', 'Avant Garde', sans-serif; text-anchor: start" x="524.060688" y="399.430235" transform="rotate(-342 524.060688 399.430235)">Namibia University of Science and Technology</text>
   </g>
   <g id="text_4">
    <text style="font: 3px 'DejaVu Sans', 'Bitstream Vera Sans', 'Computer Modern Sans Serif', 'Lucida Grande', 'Verdana', 'Geneva', 'Lucid', 'Arial', 'Helvetica', 'Avant Garde', sans-serif; text-anchor: end" x="68.346563" y="327.252208" transform="rotate(-0 68.346563 327.252208)">University of Namibia</text>
   </g>
  </g>
 </g>
 <defs>
  <clipPath id="pe0be878c1d">
   <path d="M 545.111172 326.112443 
C 545.111172 294.200519 538.825219 262.598899 526.613054 233.116126 
C 514.40089 203.633353 496.50001 176.842792 473.934872 154.277655 
C 451.369735 131.712517 424.579175 113.811637 395.096402 101.599473 
C 365.613629 89.387308 334.012008 83.101355 302.100085 83.101355 
C 270.188161 83.101355 238.586541 89.387308 209.103768 101.599473 
C 179.620995 113.811637 152.830434 131.712517 130.265297 154.277655 
C 107.700159 176.842792 89.799279 203.633353 77.587115 233.116126 
C 65.37495 262.598899 59.088997 294.200519 59.088997 326.112443 
C 59.088997 358.024366 65.37495 389.625987 77.587115 419.10876 
C 89.799279 448.591533 107.700159 475.382093 130.265297 497.947231 
C 152.830434 520.512368 179.620995 538.413248 209.103768 550.625413 
C 238.586541 562.837577 270.188161 569.12353 302.100085 569.12353 
C 334.012008 569.12353 365.613629 562.837577 395.096402 550.625413 
C 424.579175 538.413248 451.369735 520.512368 473.934872 497.947231 
C 496.50001 475.382093 514.40089 448.591533 526.613054 419.10876 
C 538.825219 389.625987 545.111172 358.024366 545.111172 326.112443 
M 302.100085 326.112443 
C 302.100085 326.112443 302.100085 326.112443 302.100085 326.112443 
C 302.100085 326.112443 302.100085 326.112443 302.100085 326.112443 
C 302.100085 326.112443 302.100085 326.112443 302.100085 326.112443 
C 302.100085 326.112443 302.100085 326.112443 302.100085 326.112443 
C 302.100085 326.112443 302.100085 326.112443 302.100085 326.112443 
C 302.100085 326.112443 302.100085 326.112443 302.100085 326.112443 
C 302.100085 326.112443 302.100085 326.112443 302.100085 326.112443 
C 302.100085 326.112443 302.100085 326.112443 302.100085 326.112443 
C 302.100085 326.112443 302.100085 326.112443 302.100085 326.112443 
C 302.100085 326.112443 302.100085 326.112443 302.100085 326.112443 
C 302.100085 326.112443 302.100085 326.112443 302.100085 326.112443 
C 302.100085 326.112443 302.100085 326.112443 302.100085 326.112443 
C 302.100085 326.112443 302.100085 326.112443 302.100085 326.112443 
C 302.100085 326.112443 302.100085 326.112443 302.100085 326.112443 
C 302.100085 326.112443 302.100085 326.112443 302.100085 326.112443 
C 302.100085 326.112443 302.100085 326.112443 302.100085 326.112443 
z
"/>
  </clipPath>
 </defs>
</svg>
