<?xml version="1.0" encoding="utf-8" standalone="no"?>
<!DOCTYPE svg PUBLIC "-//W3C//DTD SVG 1.1//EN"
  "http://www.w3.org/Graphics/SVG/1.1/DTD/svg11.dtd">
<svg xmlns:xlink="http://www.w3.org/1999/xlink" width="630.281075pt" height="489.241781pt" viewBox="0 0 630.281075 489.241781" xmlns="http://www.w3.org/2000/svg" version="1.1">
 <metadata>
  <rdf:RDF xmlns:dc="http://purl.org/dc/elements/1.1/" xmlns:cc="http://creativecommons.org/ns#" xmlns:rdf="http://www.w3.org/1999/02/22-rdf-syntax-ns#">
   <cc:Work>
    <dc:type rdf:resource="http://purl.org/dc/dcmitype/StillImage"/>
    <dc:date>2024-11-16T04:25:22.674147</dc:date>
    <dc:format>image/svg+xml</dc:format>
    <dc:creator>
     <cc:Agent>
      <dc:title>Matplotlib v3.8.4, https://matplotlib.org/</dc:title>
     </cc:Agent>
    </dc:creator>
   </cc:Work>
  </rdf:RDF>
 </metadata>
 <defs>
  <style type="text/css">*{stroke-linejoin: round; stroke-linecap: butt}</style>
 </defs>
 <g id="figure_1">
  <g id="patch_1">
   <path d="M 0 489.241781 
L 630.281075 489.241781 
L 630.281075 0 
L 0 0 
z
" style="fill: #ffffff"/>
  </g>
  <g id="axes_1">
   <g id="patch_2">
    <path d="M 343.644991 47.921194 
L 345.611955 47.931029 
L 347.578722 47.960532 
L 349.545096 48.009702 
L 351.510881 48.078533 
L 353.475878 48.167017 
L 355.439893 48.275147 
L 357.402727 48.402911 
L 359.364187 48.550297 
L 361.324074 48.71729 
L 363.282193 48.903873 
L 365.238349 49.110027 
L 367.192346 49.335733 
L 369.143987 49.580967 
L 371.093079 49.845704 
L 373.039426 50.129919 
L 374.982834 50.433583 
L 376.923107 50.756666 
L 378.860053 51.099134 
L 380.793478 51.460955 
L 382.723188 51.842092 
L 384.64899 52.242506 
L 386.570691 52.662158 
L 388.4881 53.101006 
L 390.401025 53.559005 
L 392.309274 54.036111 
L 394.212657 54.532275 
L 396.110983 55.047447 
L 398.004063 55.581577 
L 399.891707 56.134611 
L 401.773726 56.706493 
L 403.649932 57.297166 
L 405.520138 57.906572 
L 407.384156 58.534648 
L 409.241801 59.181334 
L 411.092885 59.846563 
L 412.937226 60.530269 
L 414.774636 61.232384 
L 416.604935 61.952838 
L 418.427937 62.691559 
L 420.243461 63.448472 
L 422.051325 64.223503 
L 423.851348 65.016573 
L 425.643351 65.827603 
L 427.427154 66.656513 
L 429.202579 67.503219 
L 430.969449 68.367636 
L 432.727586 69.249679 
L 434.476814 70.149258 
L 436.21696 71.066285 
L 437.947849 72.000667 
L 439.669307 72.952311 
L 441.381163 73.921121 
L 443.083246 74.907001 
L 444.775384 75.909853 
L 446.45741 76.929576 
L 448.129155 77.966067 
L 449.790451 79.019224 
L 451.441133 80.088941 
L 453.081035 81.175111 
L 454.709994 82.277625 
L 456.327846 83.396374 
L 457.934431 84.531245 
L 459.529586 85.682125 
L 461.113153 86.848898 
L 462.684973 88.031449 
L 464.24489 89.229658 
L 465.792746 90.443407 
L 467.328388 91.672573 
L 468.851661 92.917033 
L 470.362414 94.176664 
L 471.860496 95.451339 
L 473.345756 96.740932 
L 474.818046 98.045312 
L 476.277218 99.364349 
L 477.723128 100.697912 
L 479.15563 102.045867 
L 480.574581 103.40808 
L 481.979839 104.784413 
L 483.371264 106.17473 
L 484.748716 107.578892 
L 486.112058 108.996758 
L 487.461154 110.428186 
L 488.795868 111.873033 
L 490.116067 113.331155 
L 491.421619 114.802406 
L 492.712393 116.286638 
L 493.988261 117.783704 
L 495.249094 119.293454 
L 496.494768 120.815736 
L 497.725156 122.350398 
L 498.940137 123.897288 
L 500.139588 125.456249 
L 501.32339 127.027128 
L 502.491424 128.609765 
L 503.643574 130.204003 
L 504.779724 131.809683 
L 505.89976 133.426644 
L 507.003572 135.054725 
L 508.091047 136.693761 
L 509.162078 138.343591 
L 510.216558 140.004048 
L 511.25438 141.674967 
L 512.275442 143.35618 
L 513.279641 145.047519 
L 514.266876 146.748816 
L 515.23705 148.4599 
L 516.190064 150.1806 
L 517.125824 151.910744 
L 518.044236 153.650159 
L 518.945208 155.398671 
L 519.828651 157.156105 
L 520.694475 158.922286 
L 521.542594 160.697036 
L 522.372924 162.480178 
L 523.185381 164.271535 
L 523.979884 166.070926 
L 524.756354 167.878173 
L 525.514713 169.693093 
L 526.254885 171.515506 
L 526.976796 173.34523 
L 527.680375 175.182081 
L 528.365549 177.025876 
L 529.032252 178.876431 
L 529.680417 180.73356 
L 530.309978 182.597078 
L 530.920872 184.466797 
L 531.513039 186.342533 
L 532.08642 188.224096 
L 532.640957 190.111299 
L 533.176594 192.003952 
L 533.693278 193.901867 
L 534.190957 195.804855 
L 534.669582 197.712723 
L 535.129105 199.625283 
L 535.569479 201.542342 
L 535.990662 203.463708 
L 536.392609 205.389191 
L 536.775282 207.318597 
L 537.138643 209.251732 
L 537.482654 211.188405 
L 537.807281 213.128421 
L 538.112493 215.071586 
L 538.398258 217.017706 
L 538.664547 218.966587 
L 538.911335 220.918032 
L 539.138596 222.871848 
L 539.346309 224.827839 
L 539.534451 226.78581 
L 539.703004 228.745563 
L 539.851952 230.706904 
L 539.981279 232.669637 
L 540.090973 234.633565 
L 540.181023 236.598491 
L 540.251419 238.56422 
L 540.302154 240.530554 
L 540.333224 242.497298 
L 540.344625 244.464253 
L 540.336357 246.431225 
L 540.308419 248.398015 
L 540.260815 250.364428 
L 540.19355 252.330266 
L 540.10663 254.295333 
L 540.000065 256.259433 
L 539.873863 258.22237 
L 539.72804 260.183945 
L 539.562608 262.143965 
L 539.377584 264.102233 
L 539.172987 266.058552 
L 538.948838 268.012727 
L 538.705158 269.964564 
L 538.441973 271.913866 
L 538.159308 273.860438 
L 537.857192 275.804087 
L 537.535654 277.744618 
L 537.194728 279.681836 
L 536.834447 281.615548 
L 536.454847 283.54556 
L 536.055967 285.471681 
L 535.637845 287.393716 
L 535.200524 289.311474 
L 534.744048 291.224763 
L 534.268463 293.133391 
L 533.773814 295.037169 
L 533.260154 296.935904 
L 532.727532 298.829409 
L 532.176001 300.717492 
L 531.605618 302.599966 
L 531.016439 304.476642 
L 530.408523 306.347333 
L 529.781931 308.21185 
L 529.136725 310.070009 
L 528.47297 311.921623 
L 527.790733 313.766507 
L 527.090081 315.604477 
L 526.371085 317.435348 
L 525.633816 319.258938 
L 524.878349 321.075064 
L 524.104758 322.883544 
L 523.313122 324.684199 
L 522.503519 326.476847 
L 521.67603 328.26131 
L 520.830738 330.037409 
L 519.967728 331.804966 
L 519.087086 333.563805 
L 518.1889 335.313749 
L 517.273259 337.054625 
L 516.340256 338.786257 
L 515.389983 340.508472 
L 514.422536 342.221099 
L 513.438011 343.923966 
L 512.436508 345.616903 
L 511.418125 347.29974 
L 510.382965 348.97231 
L 509.331131 350.634444 
L 508.262729 352.285978 
L 507.177865 353.926744 
L 506.076648 355.55658 
L 504.959189 357.175323 
L 503.825597 358.782811 
L 502.675988 360.378882 
L 501.510476 361.963378 
L 500.329178 363.536139 
L 499.132211 365.097009 
L 497.919695 366.645832 
L 496.691753 368.182452 
L 495.448505 369.706716 
L 494.190078 371.218471 
L 492.916596 372.717567 
L 491.628187 374.203854 
L 490.32498 375.677182 
L 489.007105 377.137405 
L 487.674694 378.584376 
L 486.32788 380.017951 
L 484.966798 381.437986 
L 483.591583 382.84434 
L 482.202375 384.236871 
L 480.79931 385.615441 
L 479.382531 386.979912 
L 477.952177 388.330147 
L 476.508393 389.666011 
L 475.051323 390.987371 
L 473.581113 392.294094 
L 472.097909 393.58605 
L 470.601859 394.863109 
L 469.093114 396.125145 
L 467.571825 397.37203 
L 466.038142 398.60364 
L 464.492221 399.819852 
L 462.934215 401.020545 
L 461.36428 402.205597 
L 459.782573 403.374891 
L 458.189253 404.52831 
L 456.584478 405.665738 
L 454.96841 406.787062 
L 453.341209 407.892169 
L 451.703038 408.98095 
L 450.054062 410.053294 
L 448.394446 411.109096 
L 446.724354 412.148249 
L 445.043954 413.170649 
L 443.353415 414.176194 
L 441.652905 415.164784 
L 439.942594 416.13632 
L 438.222653 417.090704 
L 436.493255 418.027841 
L 434.754572 418.947638 
L 433.006778 419.850003 
L 431.250048 420.734844 
L 429.484558 421.602075 
L 427.710484 422.451607 
L 425.928003 423.283356 
L 424.137294 424.09724 
L 422.338536 424.893176 
L 420.531908 425.671084 
L 418.717592 426.430888 
L 416.895769 427.172511 
L 415.066621 427.895879 
L 413.23033 428.60092 
L 411.387081 429.287563 
L 409.537058 429.955739 
L 407.680446 430.605382 
L 405.81743 431.236427 
L 403.948198 431.848811 
L 402.072934 432.442471 
L 400.191829 433.01735 
L 398.305068 433.573389 
L 396.412842 434.110533 
L 394.515338 434.628729 
L 392.612748 435.127923 
L 390.705261 435.608067 
L 388.793068 436.069113 
L 386.876361 436.511014 
L 384.95533 436.933726 
L 383.030168 437.337207 
L 381.101068 437.721416 
L 379.168222 438.086316 
L 377.231824 438.431869 
L 375.292067 438.758041 
L 373.349145 439.0648 
L 371.403253 439.352115 
L 369.454586 439.619956 
L 367.503337 439.868298 
L 365.549703 440.097115 
L 363.593878 440.306385 
L 361.636058 440.496086 
L 359.676439 440.6662 
L 357.715217 440.81671 
L 355.752588 440.9476 
L 353.788748 441.058858 
L 351.823894 441.150472 
L 349.858222 441.222433 
L 347.891929 441.274734 
L 345.925211 441.30737 
L 343.958265 441.320338 
L 343.644991 441.320587 
L 343.644991 443.307453 
L 343.961429 443.307201 
L 345.948244 443.294103 
L 347.934827 443.261137 
L 349.920982 443.208307 
L 351.90651 443.135619 
L 353.891211 443.04308 
L 355.874887 442.930698 
L 357.857341 442.798486 
L 359.838373 442.646456 
L 361.817786 442.474624 
L 363.795382 442.283006 
L 365.770962 442.071622 
L 367.744331 441.840494 
L 369.715289 441.589644 
L 371.68364 441.319097 
L 373.649187 441.02888 
L 375.611734 440.719023 
L 377.571085 440.389556 
L 379.527042 440.040512 
L 381.479412 439.671927 
L 383.427998 439.283836 
L 385.372606 438.87628 
L 387.313041 438.449298 
L 389.249109 438.002933 
L 391.180617 437.537231 
L 393.107372 437.052237 
L 395.02918 436.548 
L 396.94585 436.02457 
L 398.85719 435.482 
L 400.763009 434.920344 
L 402.663116 434.339659 
L 404.557321 433.740002 
L 406.445435 433.121433 
L 408.327269 432.484014 
L 410.202635 431.827809 
L 412.071345 431.152883 
L 413.933212 430.459304 
L 415.788051 429.747142 
L 417.635676 429.016467 
L 419.475901 428.267353 
L 421.308544 427.499874 
L 423.13342 426.714108 
L 424.950347 425.910132 
L 426.759144 425.088028 
L 428.55963 424.247877 
L 430.351624 423.389763 
L 432.134948 422.513773 
L 433.909422 421.619994 
L 435.674871 420.708514 
L 437.431116 419.779427 
L 439.177983 418.832823 
L 440.915297 417.868799 
L 442.642884 416.88745 
L 444.360571 415.888874 
L 446.068186 414.873171 
L 447.765559 413.840444 
L 449.452521 412.790795 
L 451.128901 411.724329 
L 452.794534 410.641152 
L 454.449251 409.541374 
L 456.092889 408.425104 
L 457.725281 407.292454 
L 459.346266 406.143536 
L 460.95568 404.978467 
L 462.553364 403.797362 
L 464.139157 402.600339 
L 465.7129 401.387519 
L 467.274437 400.159021 
L 468.823611 398.914971 
L 470.360267 397.655491 
L 471.884252 396.380708 
L 473.395413 395.090748 
L 474.893599 393.785742 
L 476.37866 392.46582 
L 477.850448 391.131113 
L 479.308816 389.781756 
L 480.753617 388.417882 
L 482.184708 387.039629 
L 483.601944 385.647134 
L 485.005185 384.240536 
L 486.394291 382.819977 
L 487.769121 381.385598 
L 489.129539 379.937542 
L 490.475409 378.475955 
L 491.806596 377.000983 
L 493.122967 375.512773 
L 494.42439 374.011473 
L 495.710735 372.497235 
L 496.981874 370.970209 
L 498.237679 369.430548 
L 499.478026 367.878407 
L 500.702789 366.31394 
L 501.911846 364.737303 
L 503.105077 363.148655 
L 504.282362 361.548155 
L 505.443583 359.935961 
L 506.588625 358.312237 
L 507.717372 356.677143 
L 508.829713 355.030844 
L 509.925535 353.373504 
L 511.004729 351.705288 
L 512.067187 350.026365 
L 513.112803 348.336901 
L 514.141472 346.637065 
L 515.153092 344.927028 
L 516.147562 343.20696 
L 517.124781 341.477034 
L 518.084652 339.737422 
L 519.02708 337.988299 
L 519.951969 336.229839 
L 520.859228 334.462218 
L 521.748766 332.685613 
L 522.620493 330.900202 
L 523.474323 329.106163 
L 524.310171 327.303675 
L 525.127952 325.492919 
L 525.927584 323.674076 
L 526.708989 321.847328 
L 527.472087 320.012857 
L 528.216803 318.170848 
L 528.943062 316.321483 
L 529.650791 314.464948 
L 530.33992 312.601429 
L 531.010379 310.731111 
L 531.662102 308.854183 
L 532.295024 306.970832 
L 532.90908 305.081246 
L 533.504211 303.185613 
L 534.080355 301.284124 
L 534.637456 299.376969 
L 535.175458 297.464339 
L 535.694308 295.546424 
L 536.193952 293.623416 
L 536.674342 291.695509 
L 537.135429 289.762894 
L 537.577167 287.825765 
L 537.999512 285.884315 
L 538.402422 283.938739 
L 538.785856 281.989231 
L 539.149776 280.035987 
L 539.494146 278.079201 
L 539.818931 276.119069 
L 540.124099 274.155787 
L 540.409619 272.189552 
L 540.675463 270.22056 
L 540.921604 268.249008 
L 541.148017 266.275094 
L 541.354681 264.299014 
L 541.541573 262.320966 
L 541.708676 260.341148 
L 541.855973 258.359758 
L 541.983449 256.376994 
L 542.091091 254.393055 
L 542.178889 252.408139 
L 542.246834 250.422443 
L 542.294918 248.436168 
L 542.323138 246.449511 
L 542.33149 244.462671 
L 542.319974 242.475847 
L 542.28859 240.489238 
L 542.237342 238.503041 
L 542.166235 236.517457 
L 542.075276 234.532683 
L 541.964474 232.548917 
L 541.833841 230.566359 
L 541.683388 228.585206 
L 541.513132 226.605657 
L 541.32309 224.62791 
L 541.113279 222.652161 
L 540.883722 220.67861 
L 540.634442 218.707452 
L 540.365462 216.738886 
L 540.076811 214.773108 
L 539.768517 212.810315 
L 539.44061 210.850703 
L 539.093124 208.894468 
L 538.726093 206.941806 
L 538.339555 204.992911 
L 537.933547 203.047979 
L 537.508111 201.107205 
L 537.063288 199.170782 
L 536.599124 197.238903 
L 536.115664 195.311763 
L 535.612957 193.389554 
L 535.091054 191.472468 
L 534.550007 189.560697 
L 533.989869 187.654431 
L 533.410696 185.753862 
L 532.812548 183.85918 
L 532.195483 181.970574 
L 531.559562 180.088233 
L 530.904851 178.212346 
L 530.231414 176.343099 
L 529.539318 174.480679 
L 528.828633 172.625274 
L 528.099429 170.777068 
L 527.351781 168.936247 
L 526.585762 167.102994 
L 525.801449 165.277492 
L 524.99892 163.459925 
L 524.178257 161.650474 
L 523.33954 159.84932 
L 522.482853 158.056643 
L 521.608284 156.272622 
L 520.715917 154.497436 
L 519.805844 152.731263 
L 518.878156 150.974278 
L 517.932943 149.226658 
L 516.970303 147.488577 
L 515.99033 145.76021 
L 514.993122 144.041728 
L 513.97878 142.333304 
L 512.947404 140.635109 
L 511.899099 138.947312 
L 510.833968 137.270083 
L 509.752118 135.603588 
L 508.653658 133.947996 
L 507.538697 132.30347 
L 506.407347 130.670176 
L 505.259721 129.048277 
L 504.095934 127.437935 
L 502.916101 125.839312 
L 501.720342 124.252566 
L 500.508775 122.677857 
L 499.281522 121.115343 
L 498.038705 119.565179 
L 496.780449 118.02752 
L 495.50688 116.502521 
L 494.218124 114.990333 
L 492.914312 113.491108 
L 491.595572 112.004996 
L 490.262038 110.532146 
L 488.913842 109.072704 
L 487.55112 107.626817 
L 486.174006 106.194629 
L 484.78264 104.776284 
L 483.377161 103.371924 
L 481.957708 101.981687 
L 480.524424 100.605715 
L 479.077453 99.244144 
L 477.616938 97.897111 
L 476.143026 96.56475 
L 474.655864 95.247195 
L 473.155602 93.944576 
L 471.642388 92.657026 
L 470.116375 91.384671 
L 468.577715 90.12764 
L 467.026562 88.886058 
L 465.46307 87.66005 
L 463.887397 86.449737 
L 462.2997 85.255242 
L 460.700137 84.076683 
L 459.088869 82.914178 
L 457.466057 81.767843 
L 455.831863 80.637794 
L 454.18645 79.524143 
L 452.529983 78.427002 
L 450.862627 77.34648 
L 449.18455 76.282685 
L 447.495919 75.235724 
L 445.796903 74.205701 
L 444.087672 73.19272 
L 442.368397 72.196881 
L 440.63925 71.218284 
L 438.900403 70.257028 
L 437.152031 69.313208 
L 435.394308 68.386918 
L 433.62741 67.478252 
L 431.851514 66.5873 
L 430.066797 65.714151 
L 428.273439 64.858893 
L 426.471617 64.02161 
L 424.661513 63.202388 
L 422.843308 62.401307 
L 421.017182 61.618448 
L 419.18332 60.853889 
L 417.341904 60.107706 
L 415.493118 59.379975 
L 413.637147 58.670768 
L 411.774177 57.980155 
L 409.904395 57.308207 
L 408.027986 56.654989 
L 406.145139 56.020568 
L 404.256042 55.405007 
L 402.360885 54.808368 
L 400.459855 54.230709 
L 398.553144 53.672089 
L 396.640943 53.132564 
L 394.723442 52.612188 
L 392.800833 52.111012 
L 390.873308 51.629087 
L 388.941061 51.166462 
L 387.004284 50.723181 
L 385.063172 50.29929 
L 383.117917 49.894831 
L 381.168715 49.509845 
L 379.215761 49.144369 
L 377.25925 48.798441 
L 375.299377 48.472095 
L 373.336339 48.165364 
L 371.370332 47.878278 
L 369.401553 47.610866 
L 367.430198 47.363156 
L 365.456464 47.13517 
L 363.480549 46.926933 
L 361.502651 46.738466 
L 359.522966 46.569786 
L 357.541695 46.420911 
L 355.559033 46.291857 
L 353.57518 46.182635 
L 351.590334 46.093256 
L 349.604693 46.02373 
L 347.618457 45.974064 
L 345.631823 45.944262 
L 343.644991 45.934328 
z
" clip-path="url(#p1a8adf0812)" style="fill: #000080"/>
   </g>
   <g id="patch_3">
    <path d="M 343.644991 441.320587 
L 341.678026 441.310753 
L 339.711259 441.281249 
L 337.744885 441.232079 
L 335.779101 441.163249 
L 333.814103 441.074764 
L 331.850089 440.966634 
L 329.887254 440.83887 
L 327.925795 440.691484 
L 325.965907 440.524491 
L 324.007788 440.337908 
L 322.051632 440.131754 
L 320.097636 439.906048 
L 318.145994 439.660815 
L 316.196902 439.396077 
L 314.250555 439.111862 
L 312.307148 438.808198 
L 310.366874 438.485116 
L 308.429928 438.142647 
L 306.496503 437.780826 
L 304.566793 437.399689 
L 302.640992 436.999275 
L 300.71929 436.579623 
L 298.801881 436.140775 
L 296.888956 435.682776 
L 294.980707 435.20567 
L 293.077324 434.709506 
L 291.178998 434.194334 
L 289.285918 433.660204 
L 287.398275 433.10717 
L 285.516256 432.535288 
L 283.640049 431.944615 
L 281.769844 431.33521 
L 279.905825 430.707133 
L 278.048181 430.060448 
L 276.197096 429.395218 
L 274.352756 428.711512 
L 272.515345 428.009397 
L 270.685047 427.288943 
L 268.862045 426.550222 
L 267.046521 425.793309 
L 265.238657 425.018278 
L 263.438633 424.225208 
L 261.64663 423.414178 
L 259.862827 422.585269 
L 258.087402 421.738563 
L 256.320533 420.874145 
L 254.562396 419.992103 
L 252.813167 419.092523 
L 251.073021 418.175496 
L 249.342133 417.241115 
L 247.620674 416.289471 
L 245.908818 415.32066 
L 244.206736 414.33478 
L 242.514597 413.331928 
L 240.832571 412.312206 
L 239.160827 411.275714 
L 237.49953 410.222557 
L 235.848848 409.15284 
L 234.208946 408.06667 
L 232.579987 406.964156 
L 230.962135 405.845407 
L 229.355551 404.710536 
L 227.760395 403.559657 
L 226.176828 402.392883 
L 224.605008 401.210332 
L 223.045092 400.012123 
L 221.497235 398.798375 
L 219.961593 397.569209 
L 218.43832 396.324748 
L 216.927567 395.065117 
L 215.429485 393.790442 
L 213.944226 392.50085 
L 212.471936 391.19647 
L 211.012763 389.877432 
L 209.566853 388.543869 
L 208.134351 387.195914 
L 206.7154 385.833702 
L 205.310142 384.457368 
L 203.918717 383.067051 
L 202.541265 381.662889 
L 201.177923 380.245023 
L 199.828828 378.813595 
L 198.494114 377.368748 
L 197.173915 375.910626 
L 195.868363 374.439375 
L 194.577588 372.955143 
L 193.30172 371.458077 
L 192.040887 369.948328 
L 190.795213 368.426045 
L 189.564825 366.891383 
L 188.349844 365.344494 
L 187.150393 363.785532 
L 185.966591 362.214654 
L 184.798557 360.632016 
L 183.646407 359.037778 
L 182.510257 357.432098 
L 181.390221 355.815137 
L 180.28641 354.187057 
L 179.198934 352.54802 
L 178.127903 350.89819 
L 177.073423 349.237733 
L 176.035601 347.566815 
L 175.014539 345.885601 
L 174.010341 344.194262 
L 173.023105 342.492965 
L 172.052932 340.781881 
L 171.099917 339.061181 
L 170.164157 337.331037 
L 169.245745 335.591622 
L 168.344773 333.84311 
L 167.461331 332.085676 
L 166.595506 330.319496 
L 165.747387 328.544746 
L 164.917057 326.761603 
L 164.1046 324.970246 
L 163.310097 323.170855 
L 162.533627 321.363609 
L 161.775268 319.548688 
L 161.035096 317.726275 
L 160.313185 315.896551 
L 159.609607 314.0597 
L 158.924432 312.215905 
L 158.257729 310.36535 
L 157.609565 308.508221 
L 156.980004 306.644704 
L 156.369109 304.774984 
L 155.776942 302.899249 
L 155.203561 301.017685 
L 154.649025 299.130483 
L 154.113388 297.237829 
L 153.596704 295.339914 
L 153.099024 293.436927 
L 152.620399 291.529058 
L 152.160876 289.616499 
L 151.720502 287.69944 
L 151.29932 285.778073 
L 150.897372 283.85259 
L 150.514699 281.923185 
L 150.151339 279.990049 
L 149.807327 278.053376 
L 149.4827 276.11336 
L 149.177489 274.170195 
L 148.891724 272.224075 
L 148.625434 270.275195 
L 148.378646 268.323749 
L 148.151385 266.369933 
L 147.943673 264.413942 
L 147.75553 262.455972 
L 147.586977 260.496218 
L 147.438029 258.534877 
L 147.308702 256.572144 
L 147.199008 254.608216 
L 147.108959 252.64329 
L 147.038563 250.677561 
L 146.987827 248.711227 
L 146.956757 246.744484 
L 146.945356 244.777528 
L 146.953625 242.810556 
L 146.981562 240.843766 
L 147.029166 238.877353 
L 147.096431 236.911515 
L 147.183351 234.946448 
L 147.289917 232.982348 
L 147.416118 231.019412 
L 147.561942 229.057836 
L 147.727374 227.097816 
L 147.912397 225.139549 
L 148.116994 223.183229 
L 148.341143 221.229054 
L 148.584823 219.277218 
L 148.848008 217.327916 
L 149.130673 215.381343 
L 149.43279 213.437694 
L 149.754327 211.497164 
L 150.095253 209.559946 
L 150.455534 207.626233 
L 150.835134 205.696221 
L 151.234015 203.770101 
L 151.652136 201.848065 
L 152.089457 199.930307 
L 152.545933 198.017019 
L 153.021519 196.10839 
L 153.516167 194.204613 
L 154.029827 192.305877 
L 154.56245 190.412373 
L 155.11398 188.524289 
L 155.684363 186.641815 
L 156.273542 184.765139 
L 156.881458 182.894449 
L 157.50805 181.029931 
L 158.153256 179.171772 
L 158.817011 177.320158 
L 159.499248 175.475274 
L 160.1999 173.637304 
L 160.918896 171.806433 
L 161.656165 169.982844 
L 162.411632 168.166717 
L 163.185223 166.358237 
L 163.976859 164.557582 
L 164.786462 162.764934 
L 165.613951 160.980471 
L 166.459243 159.204373 
L 167.322253 157.436815 
L 168.202895 155.677977 
L 169.101082 153.928032 
L 170.016722 152.187157 
L 170.949726 150.455525 
L 171.899998 148.733309 
L 172.867445 147.020682 
L 173.85197 145.317815 
L 174.853474 143.624878 
L 175.871856 141.942041 
L 176.907016 140.269471 
L 177.95885 138.607337 
L 179.027252 136.955804 
L 180.112116 135.315037 
L 181.213333 133.685201 
L 182.330793 132.066458 
L 183.464384 130.458971 
L 184.613993 128.862899 
L 185.779505 127.278404 
L 186.960804 125.705642 
L 188.157771 124.144772 
L 189.370286 122.59595 
L 190.598229 121.059329 
L 191.841476 119.535065 
L 193.099903 118.02331 
L 194.373385 116.524214 
L 195.661794 115.037927 
L 196.965001 113.564599 
L 198.282876 112.104377 
L 199.615288 110.657405 
L 200.962101 109.22383 
L 202.323184 107.803795 
L 203.698398 106.397441 
L 205.087607 105.00491 
L 206.490671 103.62634 
L 207.907451 102.261869 
L 209.337804 100.911634 
L 210.781588 99.57577 
L 212.238658 98.254411 
L 213.708869 96.947687 
L 215.192073 95.655731 
L 216.688122 94.378672 
L 218.196867 93.116636 
L 219.718157 91.869751 
L 221.251839 90.638141 
L 222.79776 89.421929 
L 224.355766 88.221237 
L 225.925701 87.036184 
L 227.507408 85.86689 
L 229.100728 84.713471 
L 230.705503 83.576043 
L 232.321572 82.454719 
L 233.948772 81.349612 
L 235.586943 80.260831 
L 237.235919 79.188487 
L 238.895536 78.132685 
L 240.565627 77.093533 
L 242.246027 76.071133 
L 243.936566 75.065587 
L 245.637077 74.076997 
L 247.347387 73.105462 
L 249.067328 72.151077 
L 250.796726 71.21394 
L 252.535409 70.294143 
L 254.283203 69.391779 
L 256.039933 68.506937 
L 257.805423 67.639707 
L 259.579498 66.790174 
L 261.361978 65.958425 
L 263.152687 65.144542 
L 264.951446 64.348606 
L 266.758073 63.570697 
L 268.572389 62.810893 
L 270.394212 62.06927 
L 272.223361 61.345902 
L 274.059651 60.640861 
L 275.9029 59.954218 
L 277.752923 59.286042 
L 279.609535 58.636399 
L 281.472551 58.005354 
L 283.341784 57.392971 
L 285.217047 56.79931 
L 287.098153 56.224431 
L 288.984913 55.668392 
L 290.87714 55.131248 
L 292.774643 54.613053 
L 294.677233 54.113858 
L 296.58472 53.633714 
L 298.496913 53.172668 
L 300.413621 52.730767 
L 302.334652 52.308055 
L 304.259813 51.904574 
L 306.188914 51.520365 
L 308.121759 51.155465 
L 310.058158 50.809912 
L 311.997914 50.48374 
L 313.940836 50.176981 
L 315.886728 49.889667 
L 317.835396 49.621825 
L 319.786644 49.373483 
L 321.740279 49.144666 
L 323.696103 48.935396 
L 325.653923 48.745695 
L 327.613542 48.575581 
L 329.574764 48.425071 
L 331.537393 48.294181 
L 333.501233 48.182924 
L 335.466087 48.091309 
L 337.431759 48.019348 
L 339.398052 47.967047 
L 341.36477 47.934411 
L 343.331716 47.921443 
L 343.644991 47.921194 
L 343.644991 45.934328 
L 343.328552 45.93458 
L 341.341738 45.947679 
L 339.355154 45.980644 
L 337.368999 46.033474 
L 335.383472 46.106162 
L 333.398771 46.198702 
L 331.415094 46.311083 
L 329.432641 46.443295 
L 327.451608 46.595325 
L 325.472195 46.767158 
L 323.4946 46.958775 
L 321.519019 47.170159 
L 319.545651 47.401287 
L 317.574693 47.652138 
L 315.606341 47.922685 
L 313.640794 48.212901 
L 311.678247 48.522759 
L 309.718897 48.852225 
L 307.762939 49.201269 
L 305.810569 49.569855 
L 303.861983 49.957945 
L 301.917375 50.365501 
L 299.97694 50.792483 
L 298.040872 51.238848 
L 296.109364 51.70455 
L 294.182609 52.189545 
L 292.260801 52.693782 
L 290.344131 53.217211 
L 288.432791 53.759781 
L 286.526973 54.321437 
L 284.626866 54.902122 
L 282.73266 55.50178 
L 280.844546 56.120349 
L 278.962712 56.757768 
L 277.087347 57.413973 
L 275.218636 58.088898 
L 273.356769 58.782477 
L 271.50193 59.494639 
L 269.654306 60.225314 
L 267.81408 60.974428 
L 265.981438 61.741907 
L 264.156561 62.527673 
L 262.339634 63.331649 
L 260.530837 64.153754 
L 258.730351 64.993904 
L 256.938357 65.852018 
L 255.155033 66.728008 
L 253.380559 67.621788 
L 251.61511 68.533267 
L 249.858865 69.462355 
L 248.111998 70.408958 
L 246.374684 71.372983 
L 244.647098 72.354332 
L 242.929411 73.352907 
L 241.221795 74.36861 
L 239.524422 75.401337 
L 237.83746 76.450986 
L 236.16108 77.517453 
L 234.495447 78.600629 
L 232.84073 79.700407 
L 231.197093 80.816677 
L 229.5647 81.949327 
L 227.943716 83.098245 
L 226.334301 84.263314 
L 224.736618 85.44442 
L 223.150825 86.641442 
L 221.577081 87.854263 
L 220.015544 89.08276 
L 218.46637 90.32681 
L 216.929714 91.58629 
L 215.405729 92.861074 
L 213.894569 94.151033 
L 212.396382 95.456039 
L 210.911321 96.775961 
L 209.439533 98.110668 
L 207.981166 99.460026 
L 206.536364 100.823899 
L 205.105274 102.202153 
L 203.688037 103.594648 
L 202.284796 105.001245 
L 200.895691 106.421804 
L 199.52086 107.856183 
L 198.160442 109.304239 
L 196.814572 110.765826 
L 195.483385 112.240798 
L 194.167015 113.729009 
L 192.865591 115.230308 
L 191.579246 116.744546 
L 190.308107 118.271572 
L 189.052302 119.811233 
L 187.811956 121.363374 
L 186.587193 122.927842 
L 185.378135 124.504478 
L 184.184904 126.093126 
L 183.007619 127.693627 
L 181.846398 129.30582 
L 180.701356 130.929545 
L 179.572609 132.564638 
L 178.460269 134.210937 
L 177.364447 135.868278 
L 176.285253 137.536493 
L 175.222794 139.215417 
L 174.177178 140.904881 
L 173.148509 142.604716 
L 172.136889 144.314754 
L 171.14242 146.034821 
L 170.1652 147.764747 
L 169.205329 149.504359 
L 168.262901 151.253483 
L 167.338012 153.011943 
L 166.430753 154.779563 
L 165.541215 156.556168 
L 164.669488 158.341579 
L 163.815658 160.135619 
L 162.979811 161.938106 
L 162.16203 163.748862 
L 161.362397 165.567705 
L 160.580992 167.394453 
L 159.817894 169.228924 
L 159.073178 171.070934 
L 158.346919 172.920299 
L 157.63919 174.776833 
L 156.950061 176.640353 
L 156.279602 178.51067 
L 155.627879 180.387598 
L 154.994958 182.270949 
L 154.380901 184.160536 
L 153.785771 186.056168 
L 153.209626 187.957657 
L 152.652525 189.864812 
L 152.114523 191.777442 
L 151.595674 193.695357 
L 151.096029 195.618365 
L 150.615639 197.546272 
L 150.154552 199.478887 
L 149.712814 201.416017 
L 149.290469 203.357466 
L 148.88756 205.303042 
L 148.504126 207.25255 
L 148.140205 209.205795 
L 147.795835 211.162581 
L 147.47105 213.122712 
L 147.165882 215.085994 
L 146.880362 217.052229 
L 146.614518 219.021221 
L 146.368377 220.992773 
L 146.141964 222.966687 
L 145.9353 224.942768 
L 145.748408 226.920815 
L 145.581305 228.900633 
L 145.434008 230.882023 
L 145.306532 232.864787 
L 145.19889 234.848726 
L 145.111092 236.833643 
L 145.043147 238.819338 
L 144.995063 240.805613 
L 144.966843 242.79227 
L 144.958491 244.77911 
L 144.970008 246.765934 
L 145.001391 248.752543 
L 145.052639 250.73874 
L 145.123746 252.724324 
L 145.214705 254.709098 
L 145.325507 256.692864 
L 145.456141 258.675422 
L 145.606593 260.656575 
L 145.776849 262.636124 
L 145.966892 264.613872 
L 146.176702 266.58962 
L 146.406259 268.563172 
L 146.65554 270.534329 
L 146.924519 272.502895 
L 147.21317 274.468673 
L 147.521465 276.431466 
L 147.849371 278.391078 
L 148.196857 280.347313 
L 148.563888 282.299976 
L 148.950426 284.24887 
L 149.356434 286.193802 
L 149.781871 288.134576 
L 150.226693 290.071 
L 150.690858 292.002878 
L 151.174317 293.930018 
L 151.677024 295.852227 
L 152.198927 297.769313 
L 152.739975 299.681085 
L 153.300113 301.58735 
L 153.879285 303.487919 
L 154.477433 305.382601 
L 155.094499 307.271207 
L 155.730419 309.153548 
L 156.38513 311.029436 
L 157.058568 312.898683 
L 157.750663 314.761102 
L 158.461349 316.616507 
L 159.190552 318.464713 
L 159.9382 320.305535 
L 160.704219 322.138788 
L 161.488532 323.964289 
L 162.291061 325.781856 
L 163.111725 327.591307 
L 163.950442 329.392461 
L 164.807128 331.185138 
L 165.681698 332.969159 
L 166.574064 334.744345 
L 167.484137 336.510518 
L 168.411826 338.267503 
L 169.357038 340.015123 
L 170.319679 341.753204 
L 171.299652 343.481572 
L 172.296859 345.200053 
L 173.311201 346.908477 
L 174.342577 348.606672 
L 175.390882 350.294469 
L 176.456013 351.971698 
L 177.537863 353.638193 
L 178.636323 355.293786 
L 179.751284 356.938311 
L 180.882634 358.571605 
L 182.03026 360.193504 
L 183.194048 361.803846 
L 184.37388 363.40247 
L 185.56964 364.989215 
L 186.781207 366.563924 
L 188.00846 368.126438 
L 189.251276 369.676603 
L 190.509532 371.214261 
L 191.783102 372.739261 
L 193.071857 374.251448 
L 194.375669 375.750673 
L 195.694409 377.236785 
L 197.027943 378.709636 
L 198.376139 380.169077 
L 199.738862 381.614964 
L 201.115975 383.047152 
L 202.507341 384.465497 
L 203.91282 385.869858 
L 205.332273 387.260094 
L 206.765557 388.636066 
L 208.212529 389.997637 
L 209.673043 391.34467 
L 211.146955 392.677031 
L 212.634117 393.994587 
L 214.134379 395.297205 
L 215.647593 396.584756 
L 217.173606 397.85711 
L 218.712266 399.114141 
L 220.26342 400.355723 
L 221.826911 401.581732 
L 223.402584 402.792044 
L 224.990281 403.98654 
L 226.589844 405.165099 
L 228.201112 406.327603 
L 229.823924 407.473938 
L 231.458119 408.603987 
L 233.103531 409.717638 
L 234.759998 410.814779 
L 236.427354 411.895301 
L 238.105431 412.959096 
L 239.794062 414.006057 
L 241.493078 415.03608 
L 243.202309 416.049062 
L 244.921584 417.0449 
L 246.650732 418.023497 
L 248.389578 418.984753 
L 250.137951 419.928573 
L 251.895674 420.854863 
L 253.662571 421.763529 
L 255.438467 422.654481 
L 257.223184 423.52763 
L 259.016542 424.382889 
L 260.818364 425.220171 
L 262.628468 426.039393 
L 264.446673 426.840474 
L 266.272799 427.623333 
L 268.106661 428.387892 
L 269.948078 429.134075 
L 271.796864 429.861806 
L 273.652834 430.571013 
L 275.515804 431.261626 
L 277.385587 431.933574 
L 279.261995 432.586792 
L 281.144842 433.221213 
L 283.033939 433.836774 
L 284.929097 434.433414 
L 286.830126 435.011072 
L 288.736837 435.569692 
L 290.649038 436.109217 
L 292.566539 436.629593 
L 294.489148 437.130769 
L 296.416673 437.612694 
L 298.34892 438.07532 
L 300.285697 438.5186 
L 302.22681 438.942491 
L 304.172064 439.34695 
L 306.121266 439.731936 
L 308.07422 440.097412 
L 310.030731 440.44334 
L 311.990604 440.769686 
L 313.953642 441.076417 
L 315.919649 441.363503 
L 317.888428 441.630915 
L 319.859784 441.878626 
L 321.833517 442.106611 
L 323.809432 442.314848 
L 325.787331 442.503316 
L 327.767015 442.671995 
L 329.748287 442.82087 
L 331.730948 442.949925 
L 333.714801 443.059147 
L 335.699647 443.148525 
L 337.685288 443.218051 
L 339.671524 443.267717 
L 341.658158 443.297519 
L 343.644991 443.307453 
z
" clip-path="url(#p1a8adf0812)" style="fill: #800000"/>
   </g>
   <g id="PatchCollection_1">
    <defs>
     <path id="m6047440984" d="M 343.644991 -441.320588 
L 343.644991 -441.320588 
L 345.611955 -441.310753 
L 347.578722 -441.281249 
L 349.545096 -441.232079 
L 351.510881 -441.163249 
L 353.475878 -441.074764 
L 355.439893 -440.966634 
L 357.402727 -440.83887 
L 359.364187 -440.691484 
L 361.324074 -440.524491 
L 363.282193 -440.337908 
L 365.238349 -440.131754 
L 367.192346 -439.906048 
L 369.143987 -439.660815 
L 371.093079 -439.396077 
L 373.039426 -439.111862 
L 374.982834 -438.808198 
L 376.923107 -438.485116 
L 378.860053 -438.142647 
L 380.793478 -437.780826 
L 382.723188 -437.399689 
L 384.64899 -436.999275 
L 386.570691 -436.579623 
L 388.4881 -436.140775 
L 390.401025 -435.682776 
L 392.309274 -435.20567 
L 394.212657 -434.709506 
L 396.110983 -434.194334 
L 398.004063 -433.660204 
L 399.891707 -433.10717 
L 401.773726 -432.535288 
L 403.649932 -431.944615 
L 405.520138 -431.33521 
L 407.384156 -430.707133 
L 409.241801 -430.060448 
L 411.092885 -429.395218 
L 412.937226 -428.711512 
L 414.774636 -428.009397 
L 416.604935 -427.288943 
L 418.427937 -426.550222 
L 420.243461 -425.793309 
L 422.051325 -425.018278 
L 423.851348 -424.225208 
L 425.643351 -423.414178 
L 427.427154 -422.585269 
L 429.202579 -421.738563 
L 430.969449 -420.874145 
L 432.727586 -419.992103 
L 434.476814 -419.092523 
L 436.21696 -418.175496 
L 437.947849 -417.241115 
L 439.669307 -416.289471 
L 441.381163 -415.32066 
L 443.083246 -414.33478 
L 444.775384 -413.331928 
L 446.45741 -412.312206 
L 448.129155 -411.275714 
L 449.790451 -410.222557 
L 451.441133 -409.15284 
L 453.081035 -408.06667 
L 454.709994 -406.964156 
L 456.327846 -405.845407 
L 457.934431 -404.710536 
L 459.529586 -403.559657 
L 461.113153 -402.392883 
L 462.684973 -401.210332 
L 464.24489 -400.012123 
L 465.792746 -398.798375 
L 467.328388 -397.569209 
L 468.851661 -396.324748 
L 470.362414 -395.065117 
L 471.860496 -393.790442 
L 473.345756 -392.50085 
L 474.818046 -391.19647 
L 476.277218 -389.877432 
L 477.723128 -388.543869 
L 479.15563 -387.195914 
L 480.574581 -385.833702 
L 481.979839 -384.457368 
L 483.371264 -383.067051 
L 484.748716 -381.662889 
L 486.112058 -380.245023 
L 487.461154 -378.813595 
L 488.795868 -377.368748 
L 490.116067 -375.910626 
L 491.421619 -374.439375 
L 492.712393 -372.955143 
L 493.988261 -371.458077 
L 495.249094 -369.948328 
L 496.494768 -368.426045 
L 497.725156 -366.891383 
L 498.940137 -365.344494 
L 500.139588 -363.785532 
L 501.32339 -362.214654 
L 502.491424 -360.632016 
L 503.643574 -359.037778 
L 504.779724 -357.432098 
L 505.89976 -355.815137 
L 507.003572 -354.187057 
L 508.091047 -352.54802 
L 509.162078 -350.89819 
L 510.216558 -349.237733 
L 511.25438 -347.566815 
L 512.275442 -345.885601 
L 513.279641 -344.194262 
L 514.266876 -342.492965 
L 515.23705 -340.781881 
L 516.190064 -339.061181 
L 517.125824 -337.331037 
L 518.044236 -335.591622 
L 518.945208 -333.84311 
L 519.828651 -332.085676 
L 520.694475 -330.319496 
L 521.542594 -328.544746 
L 522.372924 -326.761603 
L 523.185381 -324.970246 
L 523.979884 -323.170855 
L 524.756354 -321.363609 
L 525.514713 -319.548688 
L 526.254885 -317.726275 
L 526.976796 -315.896551 
L 527.680375 -314.0597 
L 528.365549 -312.215905 
L 529.032252 -310.36535 
L 529.680417 -308.508221 
L 530.309978 -306.644704 
L 530.920872 -304.774984 
L 531.513039 -302.899249 
L 532.08642 -301.017685 
L 532.640957 -299.130483 
L 533.176594 -297.237829 
L 533.693278 -295.339914 
L 534.190957 -293.436927 
L 534.669582 -291.529058 
L 535.129105 -289.616499 
L 535.569479 -287.69944 
L 535.990662 -285.778073 
L 536.392609 -283.85259 
L 536.775282 -281.923185 
L 537.138643 -279.990049 
L 537.482654 -278.053376 
L 537.807281 -276.11336 
L 538.112493 -274.170195 
L 538.398258 -272.224075 
L 538.664547 -270.275195 
L 538.911335 -268.323749 
L 539.138596 -266.369933 
L 539.346309 -264.413942 
L 539.534451 -262.455972 
L 539.703004 -260.496218 
L 539.851952 -258.534877 
L 539.981279 -256.572144 
L 540.090973 -254.608216 
L 540.181023 -252.64329 
L 540.251419 -250.677561 
L 540.302154 -248.711227 
L 540.333224 -246.744484 
L 540.344625 -244.777528 
L 540.336357 -242.810556 
L 540.308419 -240.843766 
L 540.260815 -238.877353 
L 540.19355 -236.911515 
L 540.10663 -234.946448 
L 540.000065 -232.982348 
L 539.873863 -231.019412 
L 539.72804 -229.057836 
L 539.562608 -227.097816 
L 539.377584 -225.139549 
L 539.172987 -223.183229 
L 538.948838 -221.229054 
L 538.705158 -219.277218 
L 538.441973 -217.327916 
L 538.159308 -215.381343 
L 537.857192 -213.437694 
L 537.535654 -211.497164 
L 537.194728 -209.559946 
L 536.834447 -207.626233 
L 536.454847 -205.696221 
L 536.055967 -203.770101 
L 535.637845 -201.848065 
L 535.200524 -199.930307 
L 534.744048 -198.017019 
L 534.268463 -196.10839 
L 533.773814 -194.204613 
L 533.260154 -192.305877 
L 532.727532 -190.412373 
L 532.176001 -188.524289 
L 531.605618 -186.641815 
L 531.016439 -184.765139 
L 530.408523 -182.894449 
L 529.781931 -181.029931 
L 529.136725 -179.171772 
L 528.47297 -177.320158 
L 527.790733 -175.475274 
L 527.090081 -173.637304 
L 526.371085 -171.806433 
L 525.633816 -169.982844 
L 524.878349 -168.166717 
L 524.104758 -166.358237 
L 523.313122 -164.557582 
L 522.503519 -162.764934 
L 521.67603 -160.980471 
L 520.830738 -159.204373 
L 519.967728 -157.436815 
L 519.087086 -155.677977 
L 518.1889 -153.928032 
L 517.273259 -152.187157 
L 516.340256 -150.455525 
L 515.389983 -148.733309 
L 514.422536 -147.020682 
L 513.438011 -145.317815 
L 512.436508 -143.624878 
L 511.418125 -141.942041 
L 510.382965 -140.269471 
L 509.331131 -138.607337 
L 508.262729 -136.955804 
L 507.177865 -135.315037 
L 506.076648 -133.685201 
L 504.959189 -132.066458 
L 503.825597 -130.458971 
L 502.675988 -128.862899 
L 501.510476 -127.278404 
L 500.329178 -125.705642 
L 499.132211 -124.144772 
L 497.919695 -122.59595 
L 496.691753 -121.059329 
L 495.448505 -119.535065 
L 494.190078 -118.02331 
L 492.916596 -116.524214 
L 491.628187 -115.037927 
L 490.32498 -113.564599 
L 489.007105 -112.104377 
L 487.674694 -110.657405 
L 486.32788 -109.22383 
L 484.966798 -107.803795 
L 483.591583 -106.397441 
L 482.202375 -105.00491 
L 480.79931 -103.62634 
L 479.382531 -102.261869 
L 477.952177 -100.911634 
L 476.508393 -99.57577 
L 475.051323 -98.254411 
L 473.581113 -96.947687 
L 472.097909 -95.655731 
L 470.601859 -94.378672 
L 469.093114 -93.116636 
L 467.571825 -91.869751 
L 466.038142 -90.638141 
L 464.492221 -89.421929 
L 462.934215 -88.221237 
L 461.36428 -87.036184 
L 459.782573 -85.86689 
L 458.189253 -84.713471 
L 456.584478 -83.576043 
L 454.96841 -82.454719 
L 453.341209 -81.349612 
L 451.703038 -80.260831 
L 450.054062 -79.188487 
L 448.394446 -78.132685 
L 446.724354 -77.093533 
L 445.043954 -76.071133 
L 443.353415 -75.065587 
L 441.652905 -74.076997 
L 439.942594 -73.105462 
L 438.222653 -72.151077 
L 436.493255 -71.21394 
L 434.754572 -70.294143 
L 433.006778 -69.391779 
L 431.250048 -68.506937 
L 429.484558 -67.639707 
L 427.710484 -66.790174 
L 425.928003 -65.958425 
L 424.137294 -65.144542 
L 422.338536 -64.348606 
L 420.531908 -63.570697 
L 418.717592 -62.810893 
L 416.895769 -62.06927 
L 415.066621 -61.345902 
L 413.23033 -60.640861 
L 411.387081 -59.954218 
L 409.537058 -59.286042 
L 407.680446 -58.636399 
L 405.81743 -58.005354 
L 403.948198 -57.392971 
L 402.072934 -56.79931 
L 400.191829 -56.224431 
L 398.305068 -55.668392 
L 396.412842 -55.131248 
L 394.515338 -54.613053 
L 392.612748 -54.113858 
L 390.705261 -53.633714 
L 388.793068 -53.172668 
L 386.876361 -52.730767 
L 384.95533 -52.308055 
L 383.030168 -51.904574 
L 381.101068 -51.520365 
L 379.168222 -51.155465 
L 377.231824 -50.809912 
L 375.292067 -50.48374 
L 373.349145 -50.176981 
L 371.403253 -49.889667 
L 369.454586 -49.621825 
L 367.503337 -49.373483 
L 365.549703 -49.144666 
L 363.593878 -48.935396 
L 361.636058 -48.745695 
L 359.676439 -48.575581 
L 357.715217 -48.425071 
L 355.752588 -48.294181 
L 353.788748 -48.182924 
L 351.823894 -48.091309 
L 349.858222 -48.019348 
L 347.891929 -47.967047 
L 345.925211 -47.934411 
L 343.958265 -47.921443 
L 343.644991 -47.921194 
L 343.644991 -47.921194 
Q 343.644991 -244.620891 343.644991 -47.921194 
L 343.644991 -47.921194 
L 343.644991 -47.921194 
L 341.678026 -47.931029 
L 339.711259 -47.960532 
L 337.744885 -48.009702 
L 335.779101 -48.078533 
L 333.814103 -48.167017 
L 331.850089 -48.275147 
L 329.887254 -48.402911 
L 327.925795 -48.550297 
L 325.965907 -48.71729 
L 324.007788 -48.903873 
L 322.051632 -49.110027 
L 320.097636 -49.335733 
L 318.145994 -49.580967 
L 316.196902 -49.845704 
L 314.250555 -50.129919 
L 312.307148 -50.433583 
L 310.366874 -50.756666 
L 308.429928 -51.099134 
L 306.496503 -51.460955 
L 304.566793 -51.842092 
L 302.640992 -52.242506 
L 300.71929 -52.662158 
L 298.801881 -53.101006 
L 296.888956 -53.559005 
L 294.980707 -54.036111 
L 293.077324 -54.532275 
L 291.178998 -55.047447 
L 289.285918 -55.581577 
L 287.398275 -56.134611 
L 285.516256 -56.706493 
L 283.640049 -57.297166 
L 281.769844 -57.906572 
L 279.905825 -58.534648 
L 278.048181 -59.181334 
L 276.197096 -59.846563 
L 274.352756 -60.530269 
L 272.515345 -61.232384 
L 270.685047 -61.952838 
L 268.862045 -62.691559 
L 267.046521 -63.448472 
L 265.238657 -64.223503 
L 263.438633 -65.016573 
L 261.64663 -65.827603 
L 259.862827 -66.656513 
L 258.087402 -67.503219 
L 256.320533 -68.367636 
L 254.562396 -69.249679 
L 252.813167 -70.149258 
L 251.073021 -71.066285 
L 249.342133 -72.000667 
L 247.620674 -72.952311 
L 245.908818 -73.921121 
L 244.206736 -74.907001 
L 242.514597 -75.909853 
L 240.832571 -76.929576 
L 239.160827 -77.966067 
L 237.49953 -79.019224 
L 235.848848 -80.088941 
L 234.208946 -81.175111 
L 232.579987 -82.277625 
L 230.962135 -83.396374 
L 229.355551 -84.531245 
L 227.760395 -85.682125 
L 226.176828 -86.848898 
L 224.605008 -88.031449 
L 223.045092 -89.229658 
L 221.497235 -90.443407 
L 219.961593 -91.672573 
L 218.43832 -92.917033 
L 216.927567 -94.176664 
L 215.429485 -95.451339 
L 213.944226 -96.740932 
L 212.471936 -98.045312 
L 211.012763 -99.364349 
L 209.566853 -100.697912 
L 208.134351 -102.045867 
L 206.7154 -103.40808 
L 205.310142 -104.784413 
L 203.918717 -106.17473 
L 202.541265 -107.578892 
L 201.177923 -108.996758 
L 199.828828 -110.428186 
L 198.494114 -111.873033 
L 197.173915 -113.331155 
L 195.868363 -114.802406 
L 194.577588 -116.286638 
L 193.30172 -117.783704 
L 192.040887 -119.293454 
L 190.795213 -120.815736 
L 189.564825 -122.350398 
L 188.349844 -123.897288 
L 187.150393 -125.456249 
L 185.966591 -127.027128 
L 184.798557 -128.609765 
L 183.646407 -130.204003 
L 182.510257 -131.809683 
L 181.390221 -133.426644 
L 180.28641 -135.054725 
L 179.198934 -136.693761 
L 178.127903 -138.343591 
L 177.073423 -140.004048 
L 176.035601 -141.674967 
L 175.014539 -143.35618 
L 174.010341 -145.047519 
L 173.023105 -146.748816 
L 172.052932 -148.4599 
L 171.099917 -150.1806 
L 170.164157 -151.910744 
L 169.245745 -153.650159 
L 168.344773 -155.398671 
L 167.461331 -157.156105 
L 166.595506 -158.922286 
L 165.747387 -160.697036 
L 164.917057 -162.480178 
L 164.1046 -164.271535 
L 163.310097 -166.070926 
L 162.533627 -167.878173 
L 161.775268 -169.693093 
L 161.035096 -171.515506 
L 160.313185 -173.34523 
L 159.609607 -175.182081 
L 158.924432 -177.025876 
L 158.257729 -178.876431 
L 157.609565 -180.73356 
L 156.980004 -182.597078 
L 156.369109 -184.466797 
L 155.776942 -186.342533 
L 155.203561 -188.224096 
L 154.649025 -190.111299 
L 154.113388 -192.003952 
L 153.596704 -193.901867 
L 153.099024 -195.804855 
L 152.620399 -197.712723 
L 152.160876 -199.625283 
L 151.720502 -201.542342 
L 151.29932 -203.463708 
L 150.897372 -205.389191 
L 150.514699 -207.318597 
L 150.151339 -209.251732 
L 149.807327 -211.188405 
L 149.4827 -213.128421 
L 149.177489 -215.071586 
L 148.891724 -217.017706 
L 148.625434 -218.966587 
L 148.378646 -220.918032 
L 148.151385 -222.871848 
L 147.943673 -224.827839 
L 147.75553 -226.78581 
L 147.586977 -228.745563 
L 147.438029 -230.706904 
L 147.308702 -232.669637 
L 147.199008 -234.633565 
L 147.108959 -236.598491 
L 147.038563 -238.56422 
L 146.987827 -240.530554 
L 146.956757 -242.497298 
L 146.945356 -244.464253 
L 146.953625 -246.431225 
L 146.981562 -248.398015 
L 147.029166 -250.364428 
L 147.096431 -252.330266 
L 147.183351 -254.295333 
L 147.289917 -256.259433 
L 147.416118 -258.22237 
L 147.561942 -260.183945 
L 147.727374 -262.143965 
L 147.912397 -264.102233 
L 148.116994 -266.058552 
L 148.341143 -268.012727 
L 148.584823 -269.964564 
L 148.848008 -271.913866 
L 149.130673 -273.860438 
L 149.43279 -275.804087 
L 149.754327 -277.744618 
L 150.095253 -279.681836 
L 150.455534 -281.615548 
L 150.835134 -283.54556 
L 151.234015 -285.471681 
L 151.652136 -287.393716 
L 152.089457 -289.311474 
L 152.545933 -291.224763 
L 153.021519 -293.133391 
L 153.516167 -295.037169 
L 154.029827 -296.935904 
L 154.56245 -298.829409 
L 155.11398 -300.717492 
L 155.684363 -302.599966 
L 156.273542 -304.476642 
L 156.881458 -306.347333 
L 157.50805 -308.21185 
L 158.153256 -310.070009 
L 158.817011 -311.921623 
L 159.499248 -313.766507 
L 160.1999 -315.604477 
L 160.918896 -317.435348 
L 161.656165 -319.258938 
L 162.411632 -321.075064 
L 163.185223 -322.883544 
L 163.976859 -324.684199 
L 164.786462 -326.476847 
L 165.613951 -328.26131 
L 166.459243 -330.037409 
L 167.322253 -331.804966 
L 168.202895 -333.563805 
L 169.101082 -335.313749 
L 170.016722 -337.054625 
L 170.949726 -338.786257 
L 171.899998 -340.508472 
L 172.867445 -342.221099 
L 173.85197 -343.923966 
L 174.853474 -345.616903 
L 175.871856 -347.29974 
L 176.907016 -348.97231 
L 177.95885 -350.634444 
L 179.027252 -352.285978 
L 180.112116 -353.926744 
L 181.213333 -355.55658 
L 182.330793 -357.175323 
L 183.464384 -358.782811 
L 184.613993 -360.378882 
L 185.779505 -361.963378 
L 186.960804 -363.536139 
L 188.157771 -365.097009 
L 189.370286 -366.645832 
L 190.598229 -368.182452 
L 191.841476 -369.706716 
L 193.099903 -371.218471 
L 194.373385 -372.717567 
L 195.661794 -374.203854 
L 196.965001 -375.677182 
L 198.282876 -377.137405 
L 199.615288 -378.584376 
L 200.962101 -380.017951 
L 202.323184 -381.437986 
L 203.698398 -382.84434 
L 205.087607 -384.236871 
L 206.490671 -385.615441 
L 207.907451 -386.979912 
L 209.337804 -388.330147 
L 210.781588 -389.666011 
L 212.238658 -390.987371 
L 213.708869 -392.294094 
L 215.192073 -393.58605 
L 216.688122 -394.863109 
L 218.196867 -396.125145 
L 219.718157 -397.37203 
L 221.251839 -398.60364 
L 222.79776 -399.819852 
L 224.355766 -401.020545 
L 225.925701 -402.205597 
L 227.507408 -403.374891 
L 229.100728 -404.52831 
L 230.705503 -405.665738 
L 232.321572 -406.787062 
L 233.948772 -407.892169 
L 235.586943 -408.98095 
L 237.235919 -410.053294 
L 238.895536 -411.109096 
L 240.565627 -412.148249 
L 242.246027 -413.170649 
L 243.936566 -414.176194 
L 245.637077 -415.164784 
L 247.347387 -416.13632 
L 249.067328 -417.090704 
L 250.796726 -418.027841 
L 252.535409 -418.947638 
L 254.283203 -419.850003 
L 256.039933 -420.734844 
L 257.805423 -421.602075 
L 259.579498 -422.451607 
L 261.361978 -423.283356 
L 263.152687 -424.09724 
L 264.951446 -424.893176 
L 266.758073 -425.671084 
L 268.572389 -426.430888 
L 270.394212 -427.172511 
L 272.223361 -427.895879 
L 274.059651 -428.60092 
L 275.9029 -429.287563 
L 277.752923 -429.955739 
L 279.609535 -430.605382 
L 281.472551 -431.236427 
L 283.341784 -431.848811 
L 285.217047 -432.442471 
L 287.098153 -433.01735 
L 288.984913 -433.573389 
L 290.87714 -434.110533 
L 292.774643 -434.628729 
L 294.677233 -435.127923 
L 296.58472 -435.608067 
L 298.496913 -436.069113 
L 300.413621 -436.511014 
L 302.334652 -436.933726 
L 304.259813 -437.337207 
L 306.188914 -437.721416 
L 308.121759 -438.086316 
L 310.058158 -438.431869 
L 311.997914 -438.758041 
L 313.940836 -439.0648 
L 315.886728 -439.352115 
L 317.835396 -439.619956 
L 319.786644 -439.868298 
L 321.740279 -440.097115 
L 323.696103 -440.306385 
L 325.653923 -440.496086 
L 327.613542 -440.6662 
L 329.574764 -440.81671 
L 331.537393 -440.9476 
L 333.501233 -441.058858 
L 335.466087 -441.150472 
L 337.431759 -441.222433 
L 339.398052 -441.274734 
L 341.36477 -441.30737 
L 343.331716 -441.320338 
L 343.644991 -441.320588 
L 343.644991 -441.320588 
Q 343.644991 -244.620891 343.644991 -441.320588 
z
" style="stroke: #808080; stroke-opacity: 0.5; stroke-width: 0.1"/>
    </defs>
    <g clip-path="url(#p1a8adf0812)">
     <use xlink:href="#m6047440984" x="0" y="489.241781" style="fill: #000080; fill-opacity: 0.5; stroke: #808080; stroke-opacity: 0.5; stroke-width: 0.1"/>
    </g>
   </g>
   <g id="patch_4">
    <path d="M 343.644991 47.921194 
L 345.611955 47.931029 
L 347.578722 47.960532 
L 349.545096 48.009702 
L 351.510881 48.078533 
L 353.475878 48.167017 
L 355.439893 48.275147 
L 357.402727 48.402911 
L 359.364187 48.550297 
L 361.324074 48.71729 
L 363.282193 48.903873 
L 365.238349 49.110027 
L 367.192346 49.335733 
L 369.143987 49.580967 
L 371.093079 49.845704 
L 373.039426 50.129919 
L 374.982834 50.433583 
L 376.923107 50.756666 
L 378.860053 51.099134 
L 380.793478 51.460955 
L 382.723188 51.842092 
L 384.64899 52.242506 
L 386.570691 52.662158 
L 388.4881 53.101006 
L 390.401025 53.559005 
L 392.309274 54.036111 
L 394.212657 54.532275 
L 396.110983 55.047447 
L 398.004063 55.581577 
L 399.891707 56.134611 
L 401.773726 56.706493 
L 403.649932 57.297166 
L 405.520138 57.906572 
L 407.384156 58.534648 
L 409.241801 59.181334 
L 411.092885 59.846563 
L 412.937226 60.530269 
L 414.774636 61.232384 
L 416.604935 61.952838 
L 418.427937 62.691559 
L 420.243461 63.448472 
L 422.051325 64.223503 
L 423.851348 65.016573 
L 425.643351 65.827603 
L 427.427154 66.656513 
L 429.202579 67.503219 
L 430.969449 68.367636 
L 432.727586 69.249679 
L 434.476814 70.149258 
L 436.21696 71.066285 
L 437.947849 72.000667 
L 439.669307 72.952311 
L 441.381163 73.921121 
L 443.083246 74.907001 
L 444.775384 75.909853 
L 446.45741 76.929576 
L 448.129155 77.966067 
L 449.790451 79.019224 
L 451.441133 80.088941 
L 453.081035 81.175111 
L 454.709994 82.277625 
L 456.327846 83.396374 
L 457.934431 84.531245 
L 459.529586 85.682125 
L 461.113153 86.848898 
L 462.684973 88.031449 
L 464.24489 89.229658 
L 465.792746 90.443407 
L 467.328388 91.672573 
L 468.851661 92.917033 
L 470.362414 94.176664 
L 471.860496 95.451339 
L 473.345756 96.740932 
L 474.818046 98.045312 
L 476.277218 99.364349 
L 477.723128 100.697912 
L 479.15563 102.045867 
L 480.574581 103.40808 
L 481.979839 104.784413 
L 483.371264 106.17473 
L 484.748716 107.578892 
L 486.112058 108.996758 
L 487.461154 110.428186 
L 488.795868 111.873033 
L 490.116067 113.331155 
L 491.421619 114.802406 
L 492.712393 116.286638 
L 493.988261 117.783704 
L 495.249094 119.293454 
L 496.494768 120.815736 
L 497.725156 122.350398 
L 498.940137 123.897288 
L 500.139588 125.456249 
L 501.32339 127.027128 
L 502.491424 128.609765 
L 503.643574 130.204003 
L 504.779724 131.809683 
L 505.89976 133.426644 
L 507.003572 135.054725 
L 508.091047 136.693761 
L 509.162078 138.343591 
L 510.216558 140.004048 
L 511.25438 141.674967 
L 512.275442 143.35618 
L 513.279641 145.047519 
L 514.266876 146.748816 
L 515.23705 148.4599 
L 516.190064 150.1806 
L 517.125824 151.910744 
L 518.044236 153.650159 
L 518.945208 155.398671 
L 519.828651 157.156105 
L 520.694475 158.922286 
L 521.542594 160.697036 
L 522.372924 162.480178 
L 523.185381 164.271535 
L 523.979884 166.070926 
L 524.756354 167.878173 
L 525.514713 169.693093 
L 526.254885 171.515506 
L 526.976796 173.34523 
L 527.680375 175.182081 
L 528.365549 177.025876 
L 529.032252 178.876431 
L 529.680417 180.73356 
L 530.309978 182.597078 
L 530.920872 184.466797 
L 531.513039 186.342533 
L 532.08642 188.224096 
L 532.640957 190.111299 
L 533.176594 192.003952 
L 533.693278 193.901867 
L 534.190957 195.804855 
L 534.669582 197.712723 
L 535.129105 199.625283 
L 535.569479 201.542342 
L 535.990662 203.463708 
L 536.392609 205.389191 
L 536.775282 207.318597 
L 537.138643 209.251732 
L 537.482654 211.188405 
L 537.807281 213.128421 
L 538.112493 215.071586 
L 538.398258 217.017706 
L 538.664547 218.966587 
L 538.911335 220.918032 
L 539.138596 222.871848 
L 539.346309 224.827839 
L 539.534451 226.78581 
L 539.703004 228.745563 
L 539.851952 230.706904 
L 539.981279 232.669637 
L 540.090973 234.633565 
L 540.181023 236.598491 
L 540.251419 238.56422 
L 540.302154 240.530554 
L 540.333224 242.497298 
L 540.344625 244.464253 
L 540.336357 246.431225 
L 540.308419 248.398015 
L 540.260815 250.364428 
L 540.19355 252.330266 
L 540.10663 254.295333 
L 540.000065 256.259433 
L 539.873863 258.22237 
L 539.72804 260.183945 
L 539.562608 262.143965 
L 539.377584 264.102233 
L 539.172987 266.058552 
L 538.948838 268.012727 
L 538.705158 269.964564 
L 538.441973 271.913866 
L 538.159308 273.860438 
L 537.857192 275.804087 
L 537.535654 277.744618 
L 537.194728 279.681836 
L 536.834447 281.615548 
L 536.454847 283.54556 
L 536.055967 285.471681 
L 535.637845 287.393716 
L 535.200524 289.311474 
L 534.744048 291.224763 
L 534.268463 293.133391 
L 533.773814 295.037169 
L 533.260154 296.935904 
L 532.727532 298.829409 
L 532.176001 300.717492 
L 531.605618 302.599966 
L 531.016439 304.476642 
L 530.408523 306.347333 
L 529.781931 308.21185 
L 529.136725 310.070009 
L 528.47297 311.921623 
L 527.790733 313.766507 
L 527.090081 315.604477 
L 526.371085 317.435348 
L 525.633816 319.258938 
L 524.878349 321.075064 
L 524.104758 322.883544 
L 523.313122 324.684199 
L 522.503519 326.476847 
L 521.67603 328.26131 
L 520.830738 330.037409 
L 519.967728 331.804966 
L 519.087086 333.563805 
L 518.1889 335.313749 
L 517.273259 337.054625 
L 516.340256 338.786257 
L 515.389983 340.508472 
L 514.422536 342.221099 
L 513.438011 343.923966 
L 512.436508 345.616903 
L 511.418125 347.29974 
L 510.382965 348.97231 
L 509.331131 350.634444 
L 508.262729 352.285978 
L 507.177865 353.926744 
L 506.076648 355.55658 
L 504.959189 357.175323 
L 503.825597 358.782811 
L 502.675988 360.378882 
L 501.510476 361.963378 
L 500.329178 363.536139 
L 499.132211 365.097009 
L 497.919695 366.645832 
L 496.691753 368.182452 
L 495.448505 369.706716 
L 494.190078 371.218471 
L 492.916596 372.717567 
L 491.628187 374.203854 
L 490.32498 375.677182 
L 489.007105 377.137405 
L 487.674694 378.584376 
L 486.32788 380.017951 
L 484.966798 381.437986 
L 483.591583 382.84434 
L 482.202375 384.236871 
L 480.79931 385.615441 
L 479.382531 386.979912 
L 477.952177 388.330147 
L 476.508393 389.666011 
L 475.051323 390.987371 
L 473.581113 392.294094 
L 472.097909 393.58605 
L 470.601859 394.863109 
L 469.093114 396.125145 
L 467.571825 397.37203 
L 466.038142 398.60364 
L 464.492221 399.819852 
L 462.934215 401.020545 
L 461.36428 402.205597 
L 459.782573 403.374891 
L 458.189253 404.52831 
L 456.584478 405.665738 
L 454.96841 406.787062 
L 453.341209 407.892169 
L 451.703038 408.98095 
L 450.054062 410.053294 
L 448.394446 411.109096 
L 446.724354 412.148249 
L 445.043954 413.170649 
L 443.353415 414.176194 
L 441.652905 415.164784 
L 439.942594 416.13632 
L 438.222653 417.090704 
L 436.493255 418.027841 
L 434.754572 418.947638 
L 433.006778 419.850003 
L 431.250048 420.734844 
L 429.484558 421.602075 
L 427.710484 422.451607 
L 425.928003 423.283356 
L 424.137294 424.09724 
L 422.338536 424.893176 
L 420.531908 425.671084 
L 418.717592 426.430888 
L 416.895769 427.172511 
L 415.066621 427.895879 
L 413.23033 428.60092 
L 411.387081 429.287563 
L 409.537058 429.955739 
L 407.680446 430.605382 
L 405.81743 431.236427 
L 403.948198 431.848811 
L 402.072934 432.442471 
L 400.191829 433.01735 
L 398.305068 433.573389 
L 396.412842 434.110533 
L 394.515338 434.628729 
L 392.612748 435.127923 
L 390.705261 435.608067 
L 388.793068 436.069113 
L 386.876361 436.511014 
L 384.95533 436.933726 
L 383.030168 437.337207 
L 381.101068 437.721416 
L 379.168222 438.086316 
L 377.231824 438.431869 
L 375.292067 438.758041 
L 373.349145 439.0648 
L 371.403253 439.352115 
L 369.454586 439.619956 
L 367.503337 439.868298 
L 365.549703 440.097115 
L 363.593878 440.306385 
L 361.636058 440.496086 
L 359.676439 440.6662 
L 357.715217 440.81671 
L 355.752588 440.9476 
L 353.788748 441.058858 
L 351.823894 441.150472 
L 349.858222 441.222433 
L 347.891929 441.274734 
L 345.925211 441.30737 
L 343.958265 441.320338 
L 343.644991 441.320587 
L 343.644991 443.307453 
L 343.961429 443.307201 
L 345.948244 443.294103 
L 347.934827 443.261137 
L 349.920982 443.208307 
L 351.90651 443.135619 
L 353.891211 443.04308 
L 355.874887 442.930698 
L 357.857341 442.798486 
L 359.838373 442.646456 
L 361.817786 442.474624 
L 363.795382 442.283006 
L 365.770962 442.071622 
L 367.744331 441.840494 
L 369.715289 441.589644 
L 371.68364 441.319097 
L 373.649187 441.02888 
L 375.611734 440.719023 
L 377.571085 440.389556 
L 379.527042 440.040512 
L 381.479412 439.671927 
L 383.427998 439.283836 
L 385.372606 438.87628 
L 387.313041 438.449298 
L 389.249109 438.002933 
L 391.180617 437.537231 
L 393.107372 437.052237 
L 395.02918 436.548 
L 396.94585 436.02457 
L 398.85719 435.482 
L 400.763009 434.920344 
L 402.663116 434.339659 
L 404.557321 433.740002 
L 406.445435 433.121433 
L 408.327269 432.484014 
L 410.202635 431.827809 
L 412.071345 431.152883 
L 413.933212 430.459304 
L 415.788051 429.747142 
L 417.635676 429.016467 
L 419.475901 428.267353 
L 421.308544 427.499874 
L 423.13342 426.714108 
L 424.950347 425.910132 
L 426.759144 425.088028 
L 428.55963 424.247877 
L 430.351624 423.389763 
L 432.134948 422.513773 
L 433.909422 421.619994 
L 435.674871 420.708514 
L 437.431116 419.779427 
L 439.177983 418.832823 
L 440.915297 417.868799 
L 442.642884 416.88745 
L 444.360571 415.888874 
L 446.068186 414.873171 
L 447.765559 413.840444 
L 449.452521 412.790795 
L 451.128901 411.724329 
L 452.794534 410.641152 
L 454.449251 409.541374 
L 456.092889 408.425104 
L 457.725281 407.292454 
L 459.346266 406.143536 
L 460.95568 404.978467 
L 462.553364 403.797362 
L 464.139157 402.600339 
L 465.7129 401.387519 
L 467.274437 400.159021 
L 468.823611 398.914971 
L 470.360267 397.655491 
L 471.884252 396.380708 
L 473.395413 395.090748 
L 474.893599 393.785742 
L 476.37866 392.46582 
L 477.850448 391.131113 
L 479.308816 389.781756 
L 480.753617 388.417882 
L 482.184708 387.039629 
L 483.601944 385.647134 
L 485.005185 384.240536 
L 486.394291 382.819977 
L 487.769121 381.385598 
L 489.129539 379.937542 
L 490.475409 378.475955 
L 491.806596 377.000983 
L 493.122967 375.512773 
L 494.42439 374.011473 
L 495.710735 372.497235 
L 496.981874 370.970209 
L 498.237679 369.430548 
L 499.478026 367.878407 
L 500.702789 366.31394 
L 501.911846 364.737303 
L 503.105077 363.148655 
L 504.282362 361.548155 
L 505.443583 359.935961 
L 506.588625 358.312237 
L 507.717372 356.677143 
L 508.829713 355.030844 
L 509.925535 353.373504 
L 511.004729 351.705288 
L 512.067187 350.026365 
L 513.112803 348.336901 
L 514.141472 346.637065 
L 515.153092 344.927028 
L 516.147562 343.20696 
L 517.124781 341.477034 
L 518.084652 339.737422 
L 519.02708 337.988299 
L 519.951969 336.229839 
L 520.859228 334.462218 
L 521.748766 332.685613 
L 522.620493 330.900202 
L 523.474323 329.106163 
L 524.310171 327.303675 
L 525.127952 325.492919 
L 525.927584 323.674076 
L 526.708989 321.847328 
L 527.472087 320.012857 
L 528.216803 318.170848 
L 528.943062 316.321483 
L 529.650791 314.464948 
L 530.33992 312.601429 
L 531.010379 310.731111 
L 531.662102 308.854183 
L 532.295024 306.970832 
L 532.90908 305.081246 
L 533.504211 303.185613 
L 534.080355 301.284124 
L 534.637456 299.376969 
L 535.175458 297.464339 
L 535.694308 295.546424 
L 536.193952 293.623416 
L 536.674342 291.695509 
L 537.135429 289.762894 
L 537.577167 287.825765 
L 537.999512 285.884315 
L 538.402422 283.938739 
L 538.785856 281.989231 
L 539.149776 280.035987 
L 539.494146 278.079201 
L 539.818931 276.119069 
L 540.124099 274.155787 
L 540.409619 272.189552 
L 540.675463 270.22056 
L 540.921604 268.249008 
L 541.148017 266.275094 
L 541.354681 264.299014 
L 541.541573 262.320966 
L 541.708676 260.341148 
L 541.855973 258.359758 
L 541.983449 256.376994 
L 542.091091 254.393055 
L 542.178889 252.408139 
L 542.246834 250.422443 
L 542.294918 248.436168 
L 542.323138 246.449511 
L 542.33149 244.462671 
L 542.319974 242.475847 
L 542.28859 240.489238 
L 542.237342 238.503041 
L 542.166235 236.517457 
L 542.075276 234.532683 
L 541.964474 232.548917 
L 541.833841 230.566359 
L 541.683388 228.585206 
L 541.513132 226.605657 
L 541.32309 224.62791 
L 541.113279 222.652161 
L 540.883722 220.67861 
L 540.634442 218.707452 
L 540.365462 216.738886 
L 540.076811 214.773108 
L 539.768517 212.810315 
L 539.44061 210.850703 
L 539.093124 208.894468 
L 538.726093 206.941806 
L 538.339555 204.992911 
L 537.933547 203.047979 
L 537.508111 201.107205 
L 537.063288 199.170782 
L 536.599124 197.238903 
L 536.115664 195.311763 
L 535.612957 193.389554 
L 535.091054 191.472468 
L 534.550007 189.560697 
L 533.989869 187.654431 
L 533.410696 185.753862 
L 532.812548 183.85918 
L 532.195483 181.970574 
L 531.559562 180.088233 
L 530.904851 178.212346 
L 530.231414 176.343099 
L 529.539318 174.480679 
L 528.828633 172.625274 
L 528.099429 170.777068 
L 527.351781 168.936247 
L 526.585762 167.102994 
L 525.801449 165.277492 
L 524.99892 163.459925 
L 524.178257 161.650474 
L 523.33954 159.84932 
L 522.482853 158.056643 
L 521.608284 156.272622 
L 520.715917 154.497436 
L 519.805844 152.731263 
L 518.878156 150.974278 
L 517.932943 149.226658 
L 516.970303 147.488577 
L 515.99033 145.76021 
L 514.993122 144.041728 
L 513.97878 142.333304 
L 512.947404 140.635109 
L 511.899099 138.947312 
L 510.833968 137.270083 
L 509.752118 135.603588 
L 508.653658 133.947996 
L 507.538697 132.30347 
L 506.407347 130.670176 
L 505.259721 129.048277 
L 504.095934 127.437935 
L 502.916101 125.839312 
L 501.720342 124.252566 
L 500.508775 122.677857 
L 499.281522 121.115343 
L 498.038705 119.565179 
L 496.780449 118.02752 
L 495.50688 116.502521 
L 494.218124 114.990333 
L 492.914312 113.491108 
L 491.595572 112.004996 
L 490.262038 110.532146 
L 488.913842 109.072704 
L 487.55112 107.626817 
L 486.174006 106.194629 
L 484.78264 104.776284 
L 483.377161 103.371924 
L 481.957708 101.981687 
L 480.524424 100.605715 
L 479.077453 99.244144 
L 477.616938 97.897111 
L 476.143026 96.56475 
L 474.655864 95.247195 
L 473.155602 93.944576 
L 471.642388 92.657026 
L 470.116375 91.384671 
L 468.577715 90.12764 
L 467.026562 88.886058 
L 465.46307 87.66005 
L 463.887397 86.449737 
L 462.2997 85.255242 
L 460.700137 84.076683 
L 459.088869 82.914178 
L 457.466057 81.767843 
L 455.831863 80.637794 
L 454.18645 79.524143 
L 452.529983 78.427002 
L 450.862627 77.34648 
L 449.18455 76.282685 
L 447.495919 75.235724 
L 445.796903 74.205701 
L 444.087672 73.19272 
L 442.368397 72.196881 
L 440.63925 71.218284 
L 438.900403 70.257028 
L 437.152031 69.313208 
L 435.394308 68.386918 
L 433.62741 67.478252 
L 431.851514 66.5873 
L 430.066797 65.714151 
L 428.273439 64.858893 
L 426.471617 64.02161 
L 424.661513 63.202388 
L 422.843308 62.401307 
L 421.017182 61.618448 
L 419.18332 60.853889 
L 417.341904 60.107706 
L 415.493118 59.379975 
L 413.637147 58.670768 
L 411.774177 57.980155 
L 409.904395 57.308207 
L 408.027986 56.654989 
L 406.145139 56.020568 
L 404.256042 55.405007 
L 402.360885 54.808368 
L 400.459855 54.230709 
L 398.553144 53.672089 
L 396.640943 53.132564 
L 394.723442 52.612188 
L 392.800833 52.111012 
L 390.873308 51.629087 
L 388.941061 51.166462 
L 387.004284 50.723181 
L 385.063172 50.29929 
L 383.117917 49.894831 
L 381.168715 49.509845 
L 379.215761 49.144369 
L 377.25925 48.798441 
L 375.299377 48.472095 
L 373.336339 48.165364 
L 371.370332 47.878278 
L 369.401553 47.610866 
L 367.430198 47.363156 
L 365.456464 47.13517 
L 363.480549 46.926933 
L 361.502651 46.738466 
L 359.522966 46.569786 
L 357.541695 46.420911 
L 355.559033 46.291857 
L 353.57518 46.182635 
L 351.590334 46.093256 
L 349.604693 46.02373 
L 347.618457 45.974064 
L 345.631823 45.944262 
L 343.644991 45.934328 
L 343.644991 47.921194 
z
" clip-path="url(#p1a8adf0812)" style="fill: none; stroke: #000000; stroke-width: 0.5; stroke-linejoin: miter"/>
   </g>
   <g id="patch_5">
    <path d="M 343.644991 441.320587 
L 341.678026 441.310753 
L 339.711259 441.281249 
L 337.744885 441.232079 
L 335.779101 441.163249 
L 333.814103 441.074764 
L 331.850089 440.966634 
L 329.887254 440.83887 
L 327.925795 440.691484 
L 325.965907 440.524491 
L 324.007788 440.337908 
L 322.051632 440.131754 
L 320.097636 439.906048 
L 318.145994 439.660815 
L 316.196902 439.396077 
L 314.250555 439.111862 
L 312.307148 438.808198 
L 310.366874 438.485116 
L 308.429928 438.142647 
L 306.496503 437.780826 
L 304.566793 437.399689 
L 302.640992 436.999275 
L 300.71929 436.579623 
L 298.801881 436.140775 
L 296.888956 435.682776 
L 294.980707 435.20567 
L 293.077324 434.709506 
L 291.178998 434.194334 
L 289.285918 433.660204 
L 287.398275 433.10717 
L 285.516256 432.535288 
L 283.640049 431.944615 
L 281.769844 431.33521 
L 279.905825 430.707133 
L 278.048181 430.060448 
L 276.197096 429.395218 
L 274.352756 428.711512 
L 272.515345 428.009397 
L 270.685047 427.288943 
L 268.862045 426.550222 
L 267.046521 425.793309 
L 265.238657 425.018278 
L 263.438633 424.225208 
L 261.64663 423.414178 
L 259.862827 422.585269 
L 258.087402 421.738563 
L 256.320533 420.874145 
L 254.562396 419.992103 
L 252.813167 419.092523 
L 251.073021 418.175496 
L 249.342133 417.241115 
L 247.620674 416.289471 
L 245.908818 415.32066 
L 244.206736 414.33478 
L 242.514597 413.331928 
L 240.832571 412.312206 
L 239.160827 411.275714 
L 237.49953 410.222557 
L 235.848848 409.15284 
L 234.208946 408.06667 
L 232.579987 406.964156 
L 230.962135 405.845407 
L 229.355551 404.710536 
L 227.760395 403.559657 
L 226.176828 402.392883 
L 224.605008 401.210332 
L 223.045092 400.012123 
L 221.497235 398.798375 
L 219.961593 397.569209 
L 218.43832 396.324748 
L 216.927567 395.065117 
L 215.429485 393.790442 
L 213.944226 392.50085 
L 212.471936 391.19647 
L 211.012763 389.877432 
L 209.566853 388.543869 
L 208.134351 387.195914 
L 206.7154 385.833702 
L 205.310142 384.457368 
L 203.918717 383.067051 
L 202.541265 381.662889 
L 201.177923 380.245023 
L 199.828828 378.813595 
L 198.494114 377.368748 
L 197.173915 375.910626 
L 195.868363 374.439375 
L 194.577588 372.955143 
L 193.30172 371.458077 
L 192.040887 369.948328 
L 190.795213 368.426045 
L 189.564825 366.891383 
L 188.349844 365.344494 
L 187.150393 363.785532 
L 185.966591 362.214654 
L 184.798557 360.632016 
L 183.646407 359.037778 
L 182.510257 357.432098 
L 181.390221 355.815137 
L 180.28641 354.187057 
L 179.198934 352.54802 
L 178.127903 350.89819 
L 177.073423 349.237733 
L 176.035601 347.566815 
L 175.014539 345.885601 
L 174.010341 344.194262 
L 173.023105 342.492965 
L 172.052932 340.781881 
L 171.099917 339.061181 
L 170.164157 337.331037 
L 169.245745 335.591622 
L 168.344773 333.84311 
L 167.461331 332.085676 
L 166.595506 330.319496 
L 165.747387 328.544746 
L 164.917057 326.761603 
L 164.1046 324.970246 
L 163.310097 323.170855 
L 162.533627 321.363609 
L 161.775268 319.548688 
L 161.035096 317.726275 
L 160.313185 315.896551 
L 159.609607 314.0597 
L 158.924432 312.215905 
L 158.257729 310.36535 
L 157.609565 308.508221 
L 156.980004 306.644704 
L 156.369109 304.774984 
L 155.776942 302.899249 
L 155.203561 301.017685 
L 154.649025 299.130483 
L 154.113388 297.237829 
L 153.596704 295.339914 
L 153.099024 293.436927 
L 152.620399 291.529058 
L 152.160876 289.616499 
L 151.720502 287.69944 
L 151.29932 285.778073 
L 150.897372 283.85259 
L 150.514699 281.923185 
L 150.151339 279.990049 
L 149.807327 278.053376 
L 149.4827 276.11336 
L 149.177489 274.170195 
L 148.891724 272.224075 
L 148.625434 270.275195 
L 148.378646 268.323749 
L 148.151385 266.369933 
L 147.943673 264.413942 
L 147.75553 262.455972 
L 147.586977 260.496218 
L 147.438029 258.534877 
L 147.308702 256.572144 
L 147.199008 254.608216 
L 147.108959 252.64329 
L 147.038563 250.677561 
L 146.987827 248.711227 
L 146.956757 246.744484 
L 146.945356 244.777528 
L 146.953625 242.810556 
L 146.981562 240.843766 
L 147.029166 238.877353 
L 147.096431 236.911515 
L 147.183351 234.946448 
L 147.289917 232.982348 
L 147.416118 231.019412 
L 147.561942 229.057836 
L 147.727374 227.097816 
L 147.912397 225.139549 
L 148.116994 223.183229 
L 148.341143 221.229054 
L 148.584823 219.277218 
L 148.848008 217.327916 
L 149.130673 215.381343 
L 149.43279 213.437694 
L 149.754327 211.497164 
L 150.095253 209.559946 
L 150.455534 207.626233 
L 150.835134 205.696221 
L 151.234015 203.770101 
L 151.652136 201.848065 
L 152.089457 199.930307 
L 152.545933 198.017019 
L 153.021519 196.10839 
L 153.516167 194.204613 
L 154.029827 192.305877 
L 154.56245 190.412373 
L 155.11398 188.524289 
L 155.684363 186.641815 
L 156.273542 184.765139 
L 156.881458 182.894449 
L 157.50805 181.029931 
L 158.153256 179.171772 
L 158.817011 177.320158 
L 159.499248 175.475274 
L 160.1999 173.637304 
L 160.918896 171.806433 
L 161.656165 169.982844 
L 162.411632 168.166717 
L 163.185223 166.358237 
L 163.976859 164.557582 
L 164.786462 162.764934 
L 165.613951 160.980471 
L 166.459243 159.204373 
L 167.322253 157.436815 
L 168.202895 155.677977 
L 169.101082 153.928032 
L 170.016722 152.187157 
L 170.949726 150.455525 
L 171.899998 148.733309 
L 172.867445 147.020682 
L 173.85197 145.317815 
L 174.853474 143.624878 
L 175.871856 141.942041 
L 176.907016 140.269471 
L 177.95885 138.607337 
L 179.027252 136.955804 
L 180.112116 135.315037 
L 181.213333 133.685201 
L 182.330793 132.066458 
L 183.464384 130.458971 
L 184.613993 128.862899 
L 185.779505 127.278404 
L 186.960804 125.705642 
L 188.157771 124.144772 
L 189.370286 122.59595 
L 190.598229 121.059329 
L 191.841476 119.535065 
L 193.099903 118.02331 
L 194.373385 116.524214 
L 195.661794 115.037927 
L 196.965001 113.564599 
L 198.282876 112.104377 
L 199.615288 110.657405 
L 200.962101 109.22383 
L 202.323184 107.803795 
L 203.698398 106.397441 
L 205.087607 105.00491 
L 206.490671 103.62634 
L 207.907451 102.261869 
L 209.337804 100.911634 
L 210.781588 99.57577 
L 212.238658 98.254411 
L 213.708869 96.947687 
L 215.192073 95.655731 
L 216.688122 94.378672 
L 218.196867 93.116636 
L 219.718157 91.869751 
L 221.251839 90.638141 
L 222.79776 89.421929 
L 224.355766 88.221237 
L 225.925701 87.036184 
L 227.507408 85.86689 
L 229.100728 84.713471 
L 230.705503 83.576043 
L 232.321572 82.454719 
L 233.948772 81.349612 
L 235.586943 80.260831 
L 237.235919 79.188487 
L 238.895536 78.132685 
L 240.565627 77.093533 
L 242.246027 76.071133 
L 243.936566 75.065587 
L 245.637077 74.076997 
L 247.347387 73.105462 
L 249.067328 72.151077 
L 250.796726 71.21394 
L 252.535409 70.294143 
L 254.283203 69.391779 
L 256.039933 68.506937 
L 257.805423 67.639707 
L 259.579498 66.790174 
L 261.361978 65.958425 
L 263.152687 65.144542 
L 264.951446 64.348606 
L 266.758073 63.570697 
L 268.572389 62.810893 
L 270.394212 62.06927 
L 272.223361 61.345902 
L 274.059651 60.640861 
L 275.9029 59.954218 
L 277.752923 59.286042 
L 279.609535 58.636399 
L 281.472551 58.005354 
L 283.341784 57.392971 
L 285.217047 56.79931 
L 287.098153 56.224431 
L 288.984913 55.668392 
L 290.87714 55.131248 
L 292.774643 54.613053 
L 294.677233 54.113858 
L 296.58472 53.633714 
L 298.496913 53.172668 
L 300.413621 52.730767 
L 302.334652 52.308055 
L 304.259813 51.904574 
L 306.188914 51.520365 
L 308.121759 51.155465 
L 310.058158 50.809912 
L 311.997914 50.48374 
L 313.940836 50.176981 
L 315.886728 49.889667 
L 317.835396 49.621825 
L 319.786644 49.373483 
L 321.740279 49.144666 
L 323.696103 48.935396 
L 325.653923 48.745695 
L 327.613542 48.575581 
L 329.574764 48.425071 
L 331.537393 48.294181 
L 333.501233 48.182924 
L 335.466087 48.091309 
L 337.431759 48.019348 
L 339.398052 47.967047 
L 341.36477 47.934411 
L 343.331716 47.921443 
L 343.644991 47.921194 
L 343.644991 45.934328 
L 343.328552 45.93458 
L 341.341738 45.947679 
L 339.355154 45.980644 
L 337.368999 46.033474 
L 335.383472 46.106162 
L 333.398771 46.198702 
L 331.415094 46.311083 
L 329.432641 46.443295 
L 327.451608 46.595325 
L 325.472195 46.767158 
L 323.4946 46.958775 
L 321.519019 47.170159 
L 319.545651 47.401287 
L 317.574693 47.652138 
L 315.606341 47.922685 
L 313.640794 48.212901 
L 311.678247 48.522759 
L 309.718897 48.852225 
L 307.762939 49.201269 
L 305.810569 49.569855 
L 303.861983 49.957945 
L 301.917375 50.365501 
L 299.97694 50.792483 
L 298.040872 51.238848 
L 296.109364 51.70455 
L 294.182609 52.189545 
L 292.260801 52.693782 
L 290.344131 53.217211 
L 288.432791 53.759781 
L 286.526973 54.321437 
L 284.626866 54.902122 
L 282.73266 55.50178 
L 280.844546 56.120349 
L 278.962712 56.757768 
L 277.087347 57.413973 
L 275.218636 58.088898 
L 273.356769 58.782477 
L 271.50193 59.494639 
L 269.654306 60.225314 
L 267.81408 60.974428 
L 265.981438 61.741907 
L 264.156561 62.527673 
L 262.339634 63.331649 
L 260.530837 64.153754 
L 258.730351 64.993904 
L 256.938357 65.852018 
L 255.155033 66.728008 
L 253.380559 67.621788 
L 251.61511 68.533267 
L 249.858865 69.462355 
L 248.111998 70.408958 
L 246.374684 71.372983 
L 244.647098 72.354332 
L 242.929411 73.352907 
L 241.221795 74.36861 
L 239.524422 75.401337 
L 237.83746 76.450986 
L 236.16108 77.517453 
L 234.495447 78.600629 
L 232.84073 79.700407 
L 231.197093 80.816677 
L 229.5647 81.949327 
L 227.943716 83.098245 
L 226.334301 84.263314 
L 224.736618 85.44442 
L 223.150825 86.641442 
L 221.577081 87.854263 
L 220.015544 89.08276 
L 218.46637 90.32681 
L 216.929714 91.58629 
L 215.405729 92.861074 
L 213.894569 94.151033 
L 212.396382 95.456039 
L 210.911321 96.775961 
L 209.439533 98.110668 
L 207.981166 99.460026 
L 206.536364 100.823899 
L 205.105274 102.202153 
L 203.688037 103.594648 
L 202.284796 105.001245 
L 200.895691 106.421804 
L 199.52086 107.856183 
L 198.160442 109.304239 
L 196.814572 110.765826 
L 195.483385 112.240798 
L 194.167015 113.729009 
L 192.865591 115.230308 
L 191.579246 116.744546 
L 190.308107 118.271572 
L 189.052302 119.811233 
L 187.811956 121.363374 
L 186.587193 122.927842 
L 185.378135 124.504478 
L 184.184904 126.093126 
L 183.007619 127.693627 
L 181.846398 129.30582 
L 180.701356 130.929545 
L 179.572609 132.564638 
L 178.460269 134.210937 
L 177.364447 135.868278 
L 176.285253 137.536493 
L 175.222794 139.215417 
L 174.177178 140.904881 
L 173.148509 142.604716 
L 172.136889 144.314754 
L 171.14242 146.034821 
L 170.1652 147.764747 
L 169.205329 149.504359 
L 168.262901 151.253483 
L 167.338012 153.011943 
L 166.430753 154.779563 
L 165.541215 156.556168 
L 164.669488 158.341579 
L 163.815658 160.135619 
L 162.979811 161.938106 
L 162.16203 163.748862 
L 161.362397 165.567705 
L 160.580992 167.394453 
L 159.817894 169.228924 
L 159.073178 171.070934 
L 158.346919 172.920299 
L 157.63919 174.776833 
L 156.950061 176.640353 
L 156.279602 178.51067 
L 155.627879 180.387598 
L 154.994958 182.270949 
L 154.380901 184.160536 
L 153.785771 186.056168 
L 153.209626 187.957657 
L 152.652525 189.864812 
L 152.114523 191.777442 
L 151.595674 193.695357 
L 151.096029 195.618365 
L 150.615639 197.546272 
L 150.154552 199.478887 
L 149.712814 201.416017 
L 149.290469 203.357466 
L 148.88756 205.303042 
L 148.504126 207.25255 
L 148.140205 209.205795 
L 147.795835 211.162581 
L 147.47105 213.122712 
L 147.165882 215.085994 
L 146.880362 217.052229 
L 146.614518 219.021221 
L 146.368377 220.992773 
L 146.141964 222.966687 
L 145.9353 224.942768 
L 145.748408 226.920815 
L 145.581305 228.900633 
L 145.434008 230.882023 
L 145.306532 232.864787 
L 145.19889 234.848726 
L 145.111092 236.833643 
L 145.043147 238.819338 
L 144.995063 240.805613 
L 144.966843 242.79227 
L 144.958491 244.77911 
L 144.970008 246.765934 
L 145.001391 248.752543 
L 145.052639 250.73874 
L 145.123746 252.724324 
L 145.214705 254.709098 
L 145.325507 256.692864 
L 145.456141 258.675422 
L 145.606593 260.656575 
L 145.776849 262.636124 
L 145.966892 264.613872 
L 146.176702 266.58962 
L 146.406259 268.563172 
L 146.65554 270.534329 
L 146.924519 272.502895 
L 147.21317 274.468673 
L 147.521465 276.431466 
L 147.849371 278.391078 
L 148.196857 280.347313 
L 148.563888 282.299976 
L 148.950426 284.24887 
L 149.356434 286.193802 
L 149.781871 288.134576 
L 150.226693 290.071 
L 150.690858 292.002878 
L 151.174317 293.930018 
L 151.677024 295.852227 
L 152.198927 297.769313 
L 152.739975 299.681085 
L 153.300113 301.58735 
L 153.879285 303.487919 
L 154.477433 305.382601 
L 155.094499 307.271207 
L 155.730419 309.153548 
L 156.38513 311.029436 
L 157.058568 312.898683 
L 157.750663 314.761102 
L 158.461349 316.616507 
L 159.190552 318.464713 
L 159.9382 320.305535 
L 160.704219 322.138788 
L 161.488532 323.964289 
L 162.291061 325.781856 
L 163.111725 327.591307 
L 163.950442 329.392461 
L 164.807128 331.185138 
L 165.681698 332.969159 
L 166.574064 334.744345 
L 167.484137 336.510518 
L 168.411826 338.267503 
L 169.357038 340.015123 
L 170.319679 341.753204 
L 171.299652 343.481572 
L 172.296859 345.200053 
L 173.311201 346.908477 
L 174.342577 348.606672 
L 175.390882 350.294469 
L 176.456013 351.971698 
L 177.537863 353.638193 
L 178.636323 355.293786 
L 179.751284 356.938311 
L 180.882634 358.571605 
L 182.03026 360.193504 
L 183.194048 361.803846 
L 184.37388 363.40247 
L 185.56964 364.989215 
L 186.781207 366.563924 
L 188.00846 368.126438 
L 189.251276 369.676603 
L 190.509532 371.214261 
L 191.783102 372.739261 
L 193.071857 374.251448 
L 194.375669 375.750673 
L 195.694409 377.236785 
L 197.027943 378.709636 
L 198.376139 380.169077 
L 199.738862 381.614964 
L 201.115975 383.047152 
L 202.507341 384.465497 
L 203.91282 385.869858 
L 205.332273 387.260094 
L 206.765557 388.636066 
L 208.212529 389.997637 
L 209.673043 391.34467 
L 211.146955 392.677031 
L 212.634117 393.994587 
L 214.134379 395.297205 
L 215.647593 396.584756 
L 217.173606 397.85711 
L 218.712266 399.114141 
L 220.26342 400.355723 
L 221.826911 401.581732 
L 223.402584 402.792044 
L 224.990281 403.98654 
L 226.589844 405.165099 
L 228.201112 406.327603 
L 229.823924 407.473938 
L 231.458119 408.603987 
L 233.103531 409.717638 
L 234.759998 410.814779 
L 236.427354 411.895301 
L 238.105431 412.959096 
L 239.794062 414.006057 
L 241.493078 415.03608 
L 243.202309 416.049062 
L 244.921584 417.0449 
L 246.650732 418.023497 
L 248.389578 418.984753 
L 250.137951 419.928573 
L 251.895674 420.854863 
L 253.662571 421.763529 
L 255.438467 422.654481 
L 257.223184 423.52763 
L 259.016542 424.382889 
L 260.818364 425.220171 
L 262.628468 426.039393 
L 264.446673 426.840474 
L 266.272799 427.623333 
L 268.106661 428.387892 
L 269.948078 429.134075 
L 271.796864 429.861806 
L 273.652834 430.571013 
L 275.515804 431.261626 
L 277.385587 431.933574 
L 279.261995 432.586792 
L 281.144842 433.221213 
L 283.033939 433.836774 
L 284.929097 434.433414 
L 286.830126 435.011072 
L 288.736837 435.569692 
L 290.649038 436.109217 
L 292.566539 436.629593 
L 294.489148 437.130769 
L 296.416673 437.612694 
L 298.34892 438.07532 
L 300.285697 438.5186 
L 302.22681 438.942491 
L 304.172064 439.34695 
L 306.121266 439.731936 
L 308.07422 440.097412 
L 310.030731 440.44334 
L 311.990604 440.769686 
L 313.953642 441.076417 
L 315.919649 441.363503 
L 317.888428 441.630915 
L 319.859784 441.878626 
L 321.833517 442.106611 
L 323.809432 442.314848 
L 325.787331 442.503316 
L 327.767015 442.671995 
L 329.748287 442.82087 
L 331.730948 442.949925 
L 333.714801 443.059147 
L 335.699647 443.148525 
L 337.685288 443.218051 
L 339.671524 443.267717 
L 341.658158 443.297519 
L 343.644991 443.307453 
L 343.644991 441.320587 
z
" clip-path="url(#p1a8adf0812)" style="fill: none; stroke: #000000; stroke-width: 0.5; stroke-linejoin: miter"/>
   </g>
   <g id="text_1">
    <text style="font: 3px 'DejaVu Sans', 'Bitstream Vera Sans', 'Computer Modern Sans Serif', 'Lucida Grande', 'Verdana', 'Geneva', 'Lucid', 'Arial', 'Helvetica', 'Avant Garde', sans-serif; text-anchor: start" x="544.318419" y="245.760656" transform="rotate(-0 544.318419 245.760656)">University of Trinidad and Tobago</text>
   </g>
   <g id="text_2">
    <text style="font: 3px 'DejaVu Sans', 'Bitstream Vera Sans', 'Computer Modern Sans Serif', 'Lucida Grande', 'Verdana', 'Geneva', 'Lucid', 'Arial', 'Helvetica', 'Avant Garde', sans-serif; text-anchor: end" x="142.971562" y="245.760656" transform="rotate(-0 142.971562 245.760656)">College of Science, Technology and Applied Arts of Trinidad and Tobago</text>
   </g>
  </g>
 </g>
 <defs>
  <clipPath id="p1a8adf0812">
   <path d="M 552.265881 244.620891 
C 552.265881 217.225046 546.869497 190.095592 536.385562 164.785132 
C 525.901626 139.474672 510.534024 116.475431 491.162237 97.103644 
C 471.79045 77.731857 448.791209 62.364255 423.480749 51.88032 
C 398.170289 41.396384 371.040835 36 343.644991 36 
C 316.249146 36 289.119692 41.396384 263.809232 51.88032 
C 238.498772 62.364255 215.499531 77.731857 196.127744 97.103644 
C 176.755957 116.475431 161.388355 139.474672 150.90442 164.785132 
C 140.420484 190.095592 135.0241 217.225046 135.0241 244.620891 
C 135.0241 272.016735 140.420484 299.146189 150.90442 324.456649 
C 161.388355 349.767109 176.755957 372.76635 196.127744 392.138137 
C 215.499531 411.509924 238.498772 426.877526 263.809232 437.361462 
C 289.119692 447.845397 316.249146 453.241781 343.644991 453.241781 
C 371.040835 453.241781 398.170289 447.845397 423.480749 437.361462 
C 448.791209 426.877526 471.79045 411.509924 491.162237 392.138137 
C 510.534024 372.76635 525.901626 349.767109 536.385562 324.456649 
C 546.869497 299.146189 552.265881 272.016735 552.265881 244.620891 
M 343.644991 244.620891 
C 343.644991 244.620891 343.644991 244.620891 343.644991 244.620891 
C 343.644991 244.620891 343.644991 244.620891 343.644991 244.620891 
C 343.644991 244.620891 343.644991 244.620891 343.644991 244.620891 
C 343.644991 244.620891 343.644991 244.620891 343.644991 244.620891 
C 343.644991 244.620891 343.644991 244.620891 343.644991 244.620891 
C 343.644991 244.620891 343.644991 244.620891 343.644991 244.620891 
C 343.644991 244.620891 343.644991 244.620891 343.644991 244.620891 
C 343.644991 244.620891 343.644991 244.620891 343.644991 244.620891 
C 343.644991 244.620891 343.644991 244.620891 343.644991 244.620891 
C 343.644991 244.620891 343.644991 244.620891 343.644991 244.620891 
C 343.644991 244.620891 343.644991 244.620891 343.644991 244.620891 
C 343.644991 244.620891 343.644991 244.620891 343.644991 244.620891 
C 343.644991 244.620891 343.644991 244.620891 343.644991 244.620891 
C 343.644991 244.620891 343.644991 244.620891 343.644991 244.620891 
C 343.644991 244.620891 343.644991 244.620891 343.644991 244.620891 
C 343.644991 244.620891 343.644991 244.620891 343.644991 244.620891 
z
"/>
  </clipPath>
 </defs>
</svg>
