<?xml version="1.0" encoding="utf-8" standalone="no"?>
<!DOCTYPE svg PUBLIC "-//W3C//DTD SVG 1.1//EN"
  "http://www.w3.org/Graphics/SVG/1.1/DTD/svg11.dtd">
<svg xmlns:xlink="http://www.w3.org/1999/xlink" width="620.097431pt" height="625.555744pt" viewBox="0 0 620.097431 625.555744" xmlns="http://www.w3.org/2000/svg" version="1.1">
 <metadata>
  <rdf:RDF xmlns:dc="http://purl.org/dc/elements/1.1/" xmlns:cc="http://creativecommons.org/ns#" xmlns:rdf="http://www.w3.org/1999/02/22-rdf-syntax-ns#">
   <cc:Work>
    <dc:type rdf:resource="http://purl.org/dc/dcmitype/StillImage"/>
    <dc:date>2024-11-16T03:18:45.037557</dc:date>
    <dc:format>image/svg+xml</dc:format>
    <dc:creator>
     <cc:Agent>
      <dc:title>Matplotlib v3.8.4, https://matplotlib.org/</dc:title>
     </cc:Agent>
    </dc:creator>
   </cc:Work>
  </rdf:RDF>
 </metadata>
 <defs>
  <style type="text/css">*{stroke-linejoin: round; stroke-linecap: butt}</style>
 </defs>
 <g id="figure_1">
  <g id="patch_1">
   <path d="M 0 625.555744 
L 620.097431 625.555744 
L 620.097431 0 
L 0 0 
z
" style="fill: #ffffff"/>
  </g>
  <g id="axes_1">
   <g id="patch_2">
    <path d="M 297.0961 125.86156 
L 299.346343 125.872811 
L 301.596362 125.906564 
L 303.84593 125.962815 
L 306.094823 126.041559 
L 308.342816 126.142787 
L 310.589684 126.266489 
L 312.835204 126.412654 
L 315.079149 126.581266 
L 317.321296 126.772309 
L 319.56142 126.985763 
L 321.799298 127.221608 
L 324.034706 127.479819 
L 326.26742 127.760371 
L 328.497217 128.063235 
L 330.723873 128.388383 
L 332.947167 128.73578 
L 335.166876 129.105392 
L 337.382778 129.497183 
L 339.594651 129.911112 
L 341.802274 130.347139 
L 344.005427 130.805221 
L 346.203889 131.28531 
L 348.39744 131.78736 
L 350.585861 132.31132 
L 352.768933 132.857138 
L 354.946438 133.424758 
L 357.118158 134.014125 
L 359.283876 134.625179 
L 361.443375 135.25786 
L 363.596439 135.912103 
L 365.742853 136.587844 
L 366.633595 136.875217 
L 367.335994 134.713456 
L 366.436255 134.42318 
L 364.26816 133.740613 
L 362.093347 133.079761 
L 359.912035 132.44069 
L 357.724442 131.823463 
L 355.530785 131.228143 
L 353.331285 130.654789 
L 351.126162 130.103458 
L 348.915636 129.574206 
L 346.699927 129.067085 
L 344.479259 128.582146 
L 342.253852 128.119438 
L 340.023929 127.679006 
L 337.789714 127.260895 
L 335.551429 126.865147 
L 333.309299 126.491802 
L 331.063548 126.140895 
L 328.8144 125.812464 
L 326.56208 125.50654 
L 324.306813 125.223154 
L 322.048826 124.962335 
L 319.788343 124.724108 
L 317.525591 124.508497 
L 315.260796 124.315525 
L 312.994184 124.14521 
L 310.725983 123.997569 
L 308.456419 123.872617 
L 306.185719 123.770366 
L 303.91411 123.690827 
L 301.641819 123.634008 
L 299.369073 123.599914 
L 297.0961 123.588549 
z
" clip-path="url(#p9dea4d2485)" style="fill: #000080"/>
   </g>
   <g id="patch_3">
    <path d="M 366.633595 136.875217 
L 368.770227 137.581281 
L 370.899691 138.308676 
L 373.021775 139.057328 
L 375.136266 139.827164 
L 377.242953 140.618106 
L 379.341626 141.430074 
L 381.432074 142.262989 
L 383.514089 143.116766 
L 385.587462 143.99132 
L 387.651986 144.886564 
L 389.707455 145.802407 
L 391.753662 146.73876 
L 393.790404 147.695527 
L 395.817476 148.672614 
L 397.834677 149.669922 
L 399.841803 150.687352 
L 401.838655 151.724801 
L 403.825033 152.782168 
L 405.800738 153.859345 
L 407.765573 154.956224 
L 409.719341 156.072697 
L 411.661847 157.208652 
L 413.592896 158.363974 
L 415.512295 159.538549 
L 417.419853 160.732258 
L 419.315379 161.944984 
L 421.198683 163.176603 
L 423.069577 164.426994 
L 424.927873 165.696031 
L 426.773387 166.983587 
L 428.605933 168.289533 
L 430.425328 169.613739 
L 432.23139 170.956073 
L 434.023939 172.3164 
L 435.802795 173.694584 
L 437.56778 175.090488 
L 439.318719 176.503971 
L 441.055435 177.934893 
L 442.777756 179.38311 
L 444.485508 180.848477 
L 446.178522 182.330849 
L 447.856628 183.830076 
L 449.519657 185.346009 
L 451.167445 186.878496 
L 452.799825 188.427385 
L 454.416635 189.992519 
L 456.017713 191.573743 
L 457.6029 193.170898 
L 459.172035 194.783825 
L 460.724963 196.412363 
L 462.261529 198.056348 
L 463.781578 199.715617 
L 465.284959 201.390002 
L 466.77152 203.079338 
L 468.241115 204.783454 
L 469.693595 206.502181 
L 471.128816 208.235346 
L 472.546633 209.982777 
L 473.946905 211.744299 
L 475.329493 213.519734 
L 476.694257 215.308907 
L 478.041062 217.111638 
L 479.369772 218.927746 
L 480.680256 220.75705 
L 481.97238 222.599368 
L 483.246018 224.454514 
L 484.50104 226.322304 
L 485.737323 228.202551 
L 486.954741 230.095066 
L 488.153173 231.99966 
L 489.3325 233.916143 
L 490.492604 235.844324 
L 491.633368 237.784009 
L 492.754679 239.735005 
L 493.856423 241.697115 
L 494.938492 243.670145 
L 496.000777 245.653897 
L 497.043172 247.648173 
L 498.065572 249.652772 
L 499.067875 251.667495 
L 500.049981 253.69214 
L 501.011792 255.726505 
L 501.953212 257.770386 
L 502.874146 259.823579 
L 503.774502 261.885878 
L 504.654191 263.957078 
L 505.513124 266.036971 
L 506.351215 268.125349 
L 507.168382 270.222004 
L 507.964541 272.326725 
L 508.739613 274.439302 
L 509.493522 276.559524 
L 510.226191 278.68718 
L 510.937547 280.822055 
L 511.627519 282.963937 
L 512.296038 285.112612 
L 512.943037 287.267864 
L 513.568451 289.429479 
L 514.172219 291.597239 
L 514.754279 293.770929 
L 515.314574 295.95033 
L 515.853047 298.135226 
L 516.369644 300.325396 
L 516.864314 302.520623 
L 517.337008 304.720687 
L 517.787678 306.925368 
L 518.216278 309.134445 
L 518.622767 311.347698 
L 519.007104 313.564905 
L 519.369249 315.785844 
L 519.709167 318.010294 
L 520.026825 320.238031 
L 520.322189 322.468834 
L 520.595231 324.702479 
L 520.845923 326.938742 
L 521.07424 329.1774 
L 521.28016 331.41823 
L 521.463662 333.661007 
L 521.624727 335.905506 
L 521.763339 338.151505 
L 521.879485 340.398776 
L 521.973152 342.647097 
L 522.044333 344.896242 
L 522.093018 347.145987 
L 522.119204 349.396106 
L 522.122888 351.646374 
L 522.104069 353.896567 
L 522.06275 356.146458 
L 521.998934 358.395825 
L 521.912628 360.64444 
L 521.803841 362.89208 
L 521.672583 365.13852 
L 521.518868 367.383535 
L 521.34271 369.626901 
L 521.144128 371.868392 
L 520.923142 374.107786 
L 520.679773 376.344859 
L 520.414045 378.579385 
L 520.125987 380.811143 
L 519.815625 383.039909 
L 519.482992 385.265459 
L 519.12812 387.487572 
L 518.751045 389.706026 
L 518.351804 391.920597 
L 517.930439 394.131066 
L 517.48699 396.337211 
L 517.021502 398.53881 
L 516.534022 400.735645 
L 516.024598 402.927496 
L 515.493282 405.114142 
L 514.940126 407.295367 
L 514.365186 409.47095 
L 513.768519 411.640676 
L 513.150185 413.804326 
L 512.510246 415.961685 
L 511.848765 418.112537 
L 511.16581 420.256667 
L 511.110503 420.427115 
L 513.272265 421.129514 
L 513.32813 420.957344 
L 514.017984 418.791557 
L 514.686146 416.618979 
L 515.332549 414.439828 
L 515.957129 412.254323 
L 516.559823 410.062681 
L 517.140571 407.865122 
L 517.699314 405.661865 
L 518.235997 403.453131 
L 518.750567 401.239141 
L 519.242971 399.020115 
L 519.713161 396.796277 
L 520.161089 394.567848 
L 520.586711 392.335052 
L 520.989984 390.098111 
L 521.370867 387.857249 
L 521.729324 385.61269 
L 522.065317 383.364659 
L 522.378814 381.113381 
L 522.669782 378.85908 
L 522.938194 376.601982 
L 523.184021 374.342313 
L 523.40724 372.080299 
L 523.607828 369.816166 
L 523.785764 367.55014 
L 523.941032 365.282448 
L 524.073616 363.013317 
L 524.183502 360.742974 
L 524.27068 358.471645 
L 524.33514 356.199558 
L 524.376877 353.92694 
L 524.395886 351.654018 
L 524.392165 349.38102 
L 524.365714 347.108172 
L 524.316537 344.835703 
L 524.244638 342.563839 
L 524.150024 340.292808 
L 524.032705 338.022837 
L 523.892693 335.754152 
L 523.730001 333.48698 
L 523.544646 331.221549 
L 523.336646 328.958085 
L 523.106022 326.696814 
L 522.852798 324.437962 
L 522.576998 322.181755 
L 522.27865 319.928419 
L 521.957784 317.678179 
L 521.614432 315.43126 
L 521.248629 313.187887 
L 520.86041 310.948285 
L 520.449816 308.712676 
L 520.016886 306.481285 
L 519.561664 304.254334 
L 519.084195 302.032048 
L 518.584528 299.814647 
L 518.062713 297.602353 
L 517.518801 295.395388 
L 516.952847 293.193972 
L 516.364907 290.998326 
L 515.755041 288.808669 
L 515.123309 286.62522 
L 514.469774 284.448198 
L 513.794503 282.277819 
L 513.097561 280.114302 
L 512.37902 277.957862 
L 511.63895 275.808715 
L 510.877427 273.667077 
L 510.094525 271.53316 
L 509.290324 269.407179 
L 508.464904 267.289346 
L 507.618346 265.179874 
L 506.750737 263.078972 
L 505.862163 260.986851 
L 504.952712 258.90372 
L 504.022475 256.829788 
L 503.071546 254.765261 
L 502.10002 252.710347 
L 501.107994 250.665251 
L 500.095566 248.630178 
L 499.062839 246.60533 
L 498.009915 244.59091 
L 496.9369 242.58712 
L 495.843901 240.594161 
L 494.731028 238.612231 
L 493.598391 236.641528 
L 492.446104 234.68225 
L 491.274282 232.734593 
L 490.083043 230.798751 
L 488.872505 228.874919 
L 487.64279 226.963287 
L 486.39402 225.064048 
L 485.12632 223.177392 
L 483.839818 221.303507 
L 482.534641 219.44258 
L 481.210921 217.594798 
L 479.868789 215.760345 
L 478.50838 213.939405 
L 477.12983 212.13216 
L 475.733277 210.33879 
L 474.318861 208.559476 
L 472.886722 206.794394 
L 471.437004 205.043722 
L 469.969852 203.307634 
L 468.485414 201.586304 
L 466.983836 199.879905 
L 465.46527 198.188606 
L 463.929867 196.512578 
L 462.37778 194.851987 
L 460.809166 193.206999 
L 459.22418 191.57778 
L 457.622982 189.964492 
L 456.005731 188.367296 
L 454.37259 186.786352 
L 452.723721 185.221818 
L 451.059289 183.673851 
L 449.379461 182.142606 
L 447.684405 180.628235 
L 445.97429 179.13089 
L 444.249288 177.650721 
L 442.50957 176.187875 
L 440.755311 174.7425 
L 438.986686 173.314739 
L 437.203873 171.904736 
L 435.407048 170.51263 
L 433.596393 169.138563 
L 431.772088 167.78267 
L 429.934315 166.445088 
L 428.083259 165.12595 
L 426.219103 163.825388 
L 424.342036 162.543533 
L 422.452245 161.280512 
L 420.549917 160.036452 
L 418.635245 158.811477 
L 416.708418 157.605709 
L 414.769631 156.41927 
L 412.819076 155.252278 
L 410.856949 154.104849 
L 408.883446 152.977099 
L 406.898765 151.86914 
L 404.903103 150.781082 
L 402.896661 149.713036 
L 400.879639 148.665106 
L 398.852238 147.637399 
L 396.814662 146.630018 
L 394.767114 145.643061 
L 392.709799 144.67663 
L 390.642923 143.730819 
L 388.566692 142.805725 
L 386.481314 141.901438 
L 384.386998 141.01805 
L 382.283953 140.155649 
L 380.172389 139.314321 
L 378.052518 138.494151 
L 375.92455 137.69522 
L 373.788701 136.917608 
L 371.645182 136.161394 
L 369.494208 135.426652 
L 367.335994 134.713456 
z
" clip-path="url(#p9dea4d2485)" style="fill: #0080ff"/>
   </g>
   <g id="patch_4">
    <path d="M 511.110503 420.427115 
L 510.404439 422.563746 
L 509.677044 424.69321 
L 508.928392 426.815294 
L 508.158556 428.929785 
L 507.367615 431.036473 
L 506.555646 433.135146 
L 505.722731 435.225594 
L 504.868955 437.307609 
L 503.9944 439.380982 
L 503.099157 441.445506 
L 502.183313 443.500974 
L 501.246961 445.547182 
L 500.290193 447.583923 
L 499.313107 449.610996 
L 498.315799 451.628196 
L 497.298369 453.635323 
L 496.260919 455.632175 
L 495.203553 457.618553 
L 494.126376 459.594258 
L 493.029496 461.559093 
L 491.913023 463.51286 
L 490.777069 465.455366 
L 489.621746 467.386415 
L 488.447172 469.305815 
L 487.253462 471.213373 
L 486.040737 473.108899 
L 484.809117 474.992203 
L 483.558726 476.863096 
L 482.28969 478.721393 
L 481.002134 480.566906 
L 479.696187 482.399452 
L 478.371981 484.218847 
L 477.029647 486.02491 
L 475.66932 487.817458 
L 474.291136 489.596314 
L 472.895232 491.3613 
L 471.481749 493.112238 
L 470.050827 494.848955 
L 468.60261 496.571275 
L 467.137243 498.279028 
L 465.654871 499.972041 
L 464.155644 501.650147 
L 462.639711 503.313177 
L 461.107224 504.960964 
L 459.558336 506.593344 
L 457.993201 508.210155 
L 456.411977 509.811233 
L 454.814822 511.396419 
L 453.201895 512.965555 
L 451.573357 514.518483 
L 449.929372 516.055048 
L 448.270104 517.575097 
L 446.595718 519.078478 
L 444.906383 520.56504 
L 443.202266 522.034634 
L 441.483539 523.487115 
L 439.750374 524.922335 
L 438.002943 526.340152 
L 436.241422 527.740425 
L 434.465986 529.123013 
L 432.676813 530.487777 
L 430.874083 531.834582 
L 429.057974 533.163292 
L 427.22867 534.473775 
L 425.386353 535.7659 
L 423.531206 537.039537 
L 421.663416 538.29456 
L 419.78317 539.530842 
L 417.890655 540.74826 
L 415.98606 541.946693 
L 414.069577 543.12602 
L 412.141396 544.286124 
L 410.201711 545.426888 
L 408.250716 546.548198 
L 406.288605 547.649943 
L 404.315575 548.732012 
L 402.331823 549.794297 
L 400.337548 550.836691 
L 398.332948 551.859091 
L 396.318225 552.861394 
L 394.29358 553.843501 
L 392.259215 554.805311 
L 390.215334 555.746731 
L 388.162141 556.667665 
L 386.099842 557.568022 
L 384.028642 558.44771 
L 381.948749 559.306643 
L 379.860371 560.144735 
L 377.763717 560.961901 
L 375.658996 561.75806 
L 373.546418 562.533133 
L 371.426196 563.287041 
L 369.298541 564.01971 
L 367.163665 564.731066 
L 365.021783 565.421038 
L 362.873108 566.089557 
L 360.717856 566.736556 
L 358.556242 567.361971 
L 356.388481 567.965739 
L 354.214791 568.547799 
L 352.03539 569.108093 
L 349.850495 569.646566 
L 347.660324 570.163164 
L 345.465097 570.657834 
L 343.265033 571.130527 
L 341.060352 571.581197 
L 338.851275 572.009798 
L 336.638022 572.416287 
L 334.420816 572.800623 
L 332.199876 573.162769 
L 329.975427 573.502687 
L 327.747689 573.820344 
L 325.516887 574.115709 
L 323.283242 574.38875 
L 321.046978 574.639443 
L 318.80832 574.86776 
L 316.56749 575.07368 
L 314.324713 575.257181 
L 312.080214 575.418246 
L 309.834216 575.556859 
L 307.586944 575.673004 
L 305.338623 575.766672 
L 303.089478 575.837852 
L 300.839733 575.886537 
L 298.589614 575.912723 
L 297.0961 575.91768 
L 297.0961 578.19069 
L 298.6047 578.185684 
L 300.877548 578.159234 
L 303.150017 578.110056 
L 305.421881 578.038157 
L 307.692912 577.943544 
L 309.962884 577.826225 
L 312.231568 577.686212 
L 314.49874 577.52352 
L 316.764171 577.338165 
L 319.027635 577.130165 
L 321.288906 576.899542 
L 323.547758 576.646317 
L 325.803965 576.370517 
L 328.057301 576.07217 
L 330.307541 575.751304 
L 332.55446 575.407952 
L 334.797833 575.042148 
L 337.037436 574.65393 
L 339.273044 574.243335 
L 341.504436 573.810405 
L 343.731386 573.355183 
L 345.953673 572.877715 
L 348.171074 572.378048 
L 350.383367 571.856232 
L 352.590332 571.31232 
L 354.791748 570.746366 
L 356.987394 570.158427 
L 359.177051 569.54856 
L 361.3605 568.916828 
L 363.537523 568.263294 
L 365.707901 567.588022 
L 367.871418 566.891081 
L 370.027858 566.172539 
L 372.177005 565.43247 
L 374.318644 564.670946 
L 376.45256 563.888045 
L 378.578541 563.083843 
L 380.696374 562.258423 
L 382.805847 561.411866 
L 384.906749 560.544257 
L 386.99887 559.655682 
L 389.082 558.746231 
L 391.155933 557.815995 
L 393.220459 556.865066 
L 395.275373 555.89354 
L 397.320469 554.901513 
L 399.355543 553.889086 
L 401.380391 552.856358 
L 403.39481 551.803435 
L 405.3986 550.73042 
L 407.39156 549.637421 
L 409.37349 548.524547 
L 411.344192 547.39191 
L 413.30347 546.239624 
L 415.251127 545.067802 
L 417.186969 543.876562 
L 419.110802 542.666024 
L 421.022433 541.436309 
L 422.921672 540.187539 
L 424.808328 538.91984 
L 426.682214 537.633337 
L 428.54314 536.32816 
L 430.390923 535.00444 
L 432.225375 533.662308 
L 434.046316 532.3019 
L 435.853561 530.92335 
L 437.64693 529.526797 
L 439.426245 528.11238 
L 441.191326 526.680241 
L 442.941998 525.230524 
L 444.678086 523.763372 
L 446.399416 522.278933 
L 448.105815 520.777355 
L 449.797114 519.258789 
L 451.473143 517.723386 
L 453.133734 516.1713 
L 454.778721 514.602685 
L 456.40794 513.0177 
L 458.021229 511.416502 
L 459.618425 509.799251 
L 461.199368 508.166109 
L 462.763902 506.51724 
L 464.311869 504.852809 
L 465.843114 503.172981 
L 467.357485 501.477925 
L 468.85483 499.76781 
L 470.334999 498.042807 
L 471.797845 496.303089 
L 473.24322 494.548831 
L 474.670981 492.780206 
L 476.080985 490.997392 
L 477.47309 489.200568 
L 478.847158 487.389912 
L 480.20305 485.565607 
L 481.540632 483.727834 
L 482.85977 481.876778 
L 484.160332 480.012623 
L 485.442187 478.135556 
L 486.705208 476.245764 
L 487.949268 474.343437 
L 489.174243 472.428764 
L 490.380011 470.501938 
L 491.56645 468.563151 
L 492.733442 466.612596 
L 493.880871 464.650469 
L 495.008621 462.676966 
L 496.116581 460.692284 
L 497.204638 458.696623 
L 498.272685 456.69018 
L 499.320614 454.673158 
L 500.348321 452.645758 
L 501.355703 450.608181 
L 502.342659 448.560634 
L 503.30909 446.503319 
L 504.254901 444.436443 
L 505.179996 442.360212 
L 506.084282 440.274834 
L 506.96767 438.180518 
L 507.830071 436.077473 
L 508.671399 433.965909 
L 509.491569 431.846037 
L 510.2905 429.71807 
L 511.068112 427.58222 
L 511.824327 425.438701 
L 512.559069 423.287727 
L 513.272265 421.129514 
z
" clip-path="url(#p9dea4d2485)" style="fill: #7dff7a"/>
   </g>
   <g id="patch_5">
    <path d="M 297.0961 575.91768 
L 294.845857 575.906428 
L 292.595839 575.872676 
L 290.346271 575.816425 
L 288.097378 575.737681 
L 285.849385 575.636453 
L 283.602516 575.512751 
L 281.356997 575.366586 
L 279.113052 575.197974 
L 276.870905 575.006931 
L 274.63078 574.793477 
L 272.392902 574.557632 
L 270.157495 574.299421 
L 267.924781 574.018869 
L 265.694984 573.716004 
L 263.468327 573.390857 
L 261.245033 573.04346 
L 259.025325 572.673848 
L 256.809423 572.282057 
L 254.59755 571.868128 
L 252.389926 571.4321 
L 250.186774 570.974019 
L 247.988312 570.49393 
L 245.794761 569.99188 
L 243.60634 569.46792 
L 241.423267 568.922102 
L 239.245763 568.354482 
L 237.074043 567.765115 
L 234.908325 567.154061 
L 232.748826 566.52138 
L 230.595762 565.867137 
L 228.449347 565.191395 
L 226.309798 564.494224 
L 224.177326 563.775693 
L 222.052147 563.035873 
L 219.934472 562.274839 
L 217.824513 561.492666 
L 215.722481 560.689434 
L 213.628587 559.865221 
L 211.543039 559.020111 
L 209.466046 558.154188 
L 207.397817 557.267539 
L 205.338557 556.360253 
L 203.288473 555.432419 
L 201.247769 554.484131 
L 199.21665 553.515484 
L 197.195319 552.526575 
L 195.183978 551.517502 
L 193.182828 550.488366 
L 191.19207 549.439271 
L 189.211902 548.370321 
L 187.242522 547.281623 
L 185.284127 546.173286 
L 183.336913 545.045421 
L 181.401076 543.89814 
L 179.476807 542.731559 
L 177.564301 541.545794 
L 175.663747 540.340963 
L 173.775337 539.117187 
L 171.899259 537.874589 
L 170.0357 536.613292 
L 168.184847 535.333423 
L 166.346886 534.03511 
L 164.521999 532.718482 
L 162.710369 531.383672 
L 160.912178 530.030813 
L 159.127605 528.660039 
L 157.356829 527.271489 
L 155.600026 525.8653 
L 153.857373 524.441614 
L 152.129044 523.000573 
L 150.415212 521.542322 
L 148.716047 520.067005 
L 147.03172 518.57477 
L 145.3624 517.065767 
L 143.708253 515.540146 
L 142.069444 513.998061 
L 140.446138 512.439665 
L 138.838497 510.865114 
L 137.246682 509.274566 
L 135.670851 507.668179 
L 134.111163 506.046115 
L 132.567773 504.408535 
L 131.040836 502.755603 
L 129.530504 501.087485 
L 128.036928 499.404347 
L 126.560259 497.706358 
L 125.100643 495.993687 
L 123.658226 494.266506 
L 122.233153 492.524987 
L 120.825566 490.769305 
L 119.435606 488.999635 
L 118.063411 487.216154 
L 116.70912 485.419041 
L 115.372868 483.608475 
L 114.054788 481.784637 
L 112.755011 479.94771 
L 111.473669 478.097877 
L 110.210888 476.235323 
L 108.966796 474.360235 
L 107.741517 472.4728 
L 106.535173 470.573206 
L 105.347885 468.661645 
L 104.179772 466.738306 
L 103.03095 464.803382 
L 101.901535 462.857067 
L 100.791639 460.899556 
L 99.701373 458.931044 
L 98.630846 456.951727 
L 97.580166 454.961805 
L 96.549437 452.961475 
L 95.538763 450.950938 
L 94.548244 448.930395 
L 93.57798 446.900049 
L 92.628068 444.860101 
L 91.698602 442.810756 
L 90.789676 440.752219 
L 89.90138 438.684696 
L 89.033803 436.608394 
L 88.187033 434.52352 
L 87.361153 432.430282 
L 86.556247 430.328891 
L 85.772394 428.219555 
L 85.009674 426.102487 
L 84.268162 423.977898 
L 83.547933 421.845999 
L 82.849058 419.707005 
L 82.171608 417.56113 
L 81.51565 415.408587 
L 80.88125 413.249593 
L 80.268471 411.084362 
L 79.677375 408.913112 
L 79.108021 406.73606 
L 78.560465 404.553424 
L 78.034763 402.36542 
L 77.530966 400.17227 
L 77.049126 397.974191 
L 76.589291 395.771404 
L 76.151505 393.564128 
L 75.735815 391.352585 
L 75.34226 389.136996 
L 74.97088 386.917583 
L 74.621712 384.694566 
L 74.294792 382.468169 
L 73.990152 380.238614 
L 73.707822 378.006124 
L 73.447831 375.770923 
L 73.210204 373.533233 
L 72.994966 371.29328 
L 72.802138 369.051285 
L 72.631739 366.807475 
L 72.483786 364.562073 
L 72.358294 362.315304 
L 72.255276 360.067392 
L 72.174742 357.818562 
L 72.1167 355.56904 
L 72.081155 353.319049 
L 72.068112 351.068816 
L 72.077571 348.818564 
L 72.109532 346.56852 
L 72.163992 344.318908 
L 72.240944 342.069953 
L 72.340382 339.82188 
L 72.462295 337.574914 
L 72.606672 335.329279 
L 72.773497 333.0852 
L 72.962754 330.842901 
L 73.174425 328.602608 
L 73.408487 326.364543 
L 73.664918 324.12893 
L 73.943692 321.895993 
L 74.244781 319.665956 
L 74.568155 317.439041 
L 74.913781 315.215471 
L 75.281626 312.995469 
L 75.671652 310.779256 
L 76.08382 308.567054 
L 76.518089 306.359084 
L 76.974416 304.155567 
L 77.452755 301.956724 
L 77.953057 299.762773 
L 78.475274 297.573936 
L 79.019353 295.39043 
L 79.58524 293.212474 
L 80.172877 291.040285 
L 80.782207 288.874081 
L 81.413167 286.714079 
L 82.065696 284.560495 
L 82.739728 282.413543 
L 83.435195 280.273439 
L 84.152028 278.140396 
L 84.890155 276.014628 
L 85.649503 273.896348 
L 86.429995 271.785767 
L 87.231553 269.683096 
L 88.054098 267.588546 
L 88.897547 265.502325 
L 89.761815 263.424644 
L 90.646817 261.355709 
L 91.552464 259.295727 
L 92.478665 257.244905 
L 93.425327 255.203447 
L 94.392356 253.171557 
L 95.379656 251.149439 
L 96.387127 249.137295 
L 97.414668 247.135327 
L 98.462178 245.143733 
L 99.529551 243.162714 
L 100.61668 241.192468 
L 101.723457 239.233192 
L 102.849771 237.28508 
L 103.99551 235.34833 
L 105.160559 233.423133 
L 106.344801 231.509683 
L 107.548118 229.608171 
L 108.770389 227.718786 
L 110.011493 225.841719 
L 111.271306 223.977157 
L 112.5497 222.125285 
L 113.846549 220.28629 
L 115.161723 218.460355 
L 116.49509 216.647663 
L 117.846518 214.848395 
L 119.21587 213.062731 
L 120.603009 211.29085 
L 122.007798 209.532928 
L 123.430096 207.789142 
L 124.86976 206.059666 
L 126.326647 204.344673 
L 127.80061 202.644334 
L 129.291503 200.95882 
L 130.799176 199.288298 
L 132.323479 197.632936 
L 133.864259 195.992901 
L 135.421362 194.368354 
L 136.994632 192.75946 
L 138.583912 191.166378 
L 140.189044 189.589269 
L 141.809866 188.028289 
L 143.446216 186.483596 
L 145.097931 184.955343 
L 146.764846 183.443683 
L 148.446794 181.948768 
L 150.143607 180.470746 
L 151.855115 179.009767 
L 153.581147 177.565975 
L 155.32153 176.139516 
L 157.076091 174.730531 
L 158.844653 173.339162 
L 160.627041 171.965548 
L 162.423075 170.609826 
L 164.232576 169.272133 
L 166.055364 167.9526 
L 167.891256 166.651362 
L 169.740068 165.368546 
L 171.601615 164.104283 
L 173.475712 162.858699 
L 175.362171 161.631917 
L 177.260803 160.424061 
L 179.171419 159.235251 
L 181.093827 158.065606 
L 183.027835 156.915244 
L 184.97325 155.784279 
L 186.929877 154.672824 
L 188.89752 153.580991 
L 190.875984 152.508889 
L 192.865069 151.456624 
L 194.864577 150.424303 
L 196.874308 149.412028 
L 198.894062 148.4199 
L 200.923635 147.44802 
L 202.962826 146.496483 
L 205.01143 145.565386 
L 207.069242 144.65482 
L 209.136057 143.764879 
L 211.211668 142.895649 
L 213.295867 142.047219 
L 215.388446 141.219672 
L 217.489196 140.413093 
L 219.597907 139.627561 
L 221.714367 138.863155 
L 223.838365 138.119951 
L 225.969689 137.398024 
L 227.558606 136.875217 
L 226.856207 134.713456 
L 225.251241 135.241544 
L 223.098388 135.970763 
L 220.952935 136.721473 
L 218.815097 137.4936 
L 216.685086 138.287067 
L 214.563116 139.101794 
L 212.4494 139.937699 
L 210.344148 140.7947 
L 208.247572 141.672709 
L 206.15988 142.571641 
L 204.081282 143.491404 
L 202.011985 144.431906 
L 199.952196 145.393054 
L 197.902122 146.374752 
L 195.861967 147.376901 
L 193.831935 148.399401 
L 191.81223 149.44215 
L 189.803053 150.505043 
L 187.804605 151.587975 
L 185.817087 152.690836 
L 183.840696 153.813518 
L 181.87563 154.955907 
L 179.922087 156.117889 
L 177.980261 157.299348 
L 176.050346 158.500166 
L 174.132536 159.720223 
L 172.227022 160.959396 
L 170.333994 162.217563 
L 168.453643 163.494596 
L 166.586156 164.790369 
L 164.73172 166.104752 
L 162.890521 167.437612 
L 161.062741 168.788818 
L 159.248565 170.158234 
L 157.448174 171.545723 
L 155.661747 172.951146 
L 153.889464 174.374363 
L 152.131501 175.815231 
L 150.388034 177.273607 
L 148.659238 178.749344 
L 146.945286 180.242295 
L 145.246349 181.75231 
L 143.562596 183.279239 
L 141.894197 184.822929 
L 140.241318 186.383225 
L 138.604124 187.959972 
L 136.982779 189.553012 
L 135.377446 191.162185 
L 133.788284 192.787331 
L 132.215453 194.428287 
L 130.659109 196.084889 
L 129.11941 197.756972 
L 127.596507 199.444367 
L 126.090555 201.146907 
L 124.601703 202.864421 
L 123.1301 204.596737 
L 121.675894 206.343683 
L 120.23923 208.105083 
L 118.820251 209.880761 
L 117.4191 211.670541 
L 116.035916 213.474242 
L 114.670838 215.291684 
L 113.324002 217.122686 
L 111.995544 218.967065 
L 110.685595 220.824635 
L 109.394287 222.695213 
L 108.12175 224.578609 
L 106.868109 226.474637 
L 105.633492 228.383105 
L 104.41802 230.303825 
L 103.221816 232.236603 
L 102.044999 234.181246 
L 100.887687 236.13756 
L 99.749996 238.105349 
L 98.632039 240.084416 
L 97.533929 242.074564 
L 96.455775 244.075593 
L 95.397684 246.087304 
L 94.359763 248.109494 
L 93.342116 250.141963 
L 92.344844 252.184506 
L 91.368046 254.23692 
L 90.411822 256.298998 
L 89.476266 258.370536 
L 88.561471 260.451326 
L 87.66753 262.541159 
L 86.794531 264.639828 
L 85.942563 266.747121 
L 85.111709 268.862828 
L 84.302054 270.986738 
L 83.513678 273.118638 
L 82.74666 275.258315 
L 82.001077 277.405555 
L 81.277004 279.560144 
L 80.574512 281.721865 
L 79.893672 283.890503 
L 79.234552 286.065841 
L 78.597218 288.247662 
L 77.981733 290.435746 
L 77.38816 292.629876 
L 76.816558 294.829832 
L 76.266983 297.035394 
L 75.739491 299.246341 
L 75.234135 301.462452 
L 74.750964 303.683506 
L 74.290028 305.909281 
L 73.851373 308.139553 
L 73.435041 310.374101 
L 73.041076 312.6127 
L 72.669516 314.855126 
L 72.320398 317.101157 
L 71.993758 319.350566 
L 71.689627 321.603128 
L 71.408038 323.85862 
L 71.149016 326.116814 
L 70.91259 328.377486 
L 70.698781 330.640409 
L 70.507612 332.905357 
L 70.339102 335.172104 
L 70.193267 337.440422 
L 70.070122 339.710085 
L 69.96968 341.980865 
L 69.89195 344.252537 
L 69.836941 346.524873 
L 69.804657 348.797645 
L 69.795102 351.070626 
L 69.808277 353.343589 
L 69.84418 355.616307 
L 69.902809 357.888552 
L 69.984157 360.160097 
L 70.088216 362.430715 
L 70.214975 364.700179 
L 70.364422 366.968262 
L 70.536542 369.234737 
L 70.731318 371.499377 
L 70.948731 373.761957 
L 71.188757 376.022249 
L 71.451375 378.280028 
L 71.736556 380.535069 
L 72.044274 382.787144 
L 72.374496 385.03603 
L 72.727191 387.281501 
L 73.102322 389.523333 
L 73.499852 391.761302 
L 73.919742 393.995184 
L 74.361949 396.224755 
L 74.826429 398.449793 
L 75.313137 400.670074 
L 75.822022 402.885378 
L 76.353034 405.095482 
L 76.906121 407.300166 
L 77.481227 409.499208 
L 78.078293 411.69239 
L 78.697262 413.879491 
L 79.33807 416.060294 
L 80.000653 418.23458 
L 80.684947 420.402131 
L 81.39088 422.56273 
L 82.118385 424.716163 
L 82.867387 426.862213 
L 83.637811 429.000666 
L 84.429582 431.131308 
L 85.242618 433.253925 
L 86.07684 435.368307 
L 86.932164 437.47424 
L 87.808504 439.571515 
L 88.705772 441.659922 
L 89.62388 443.739253 
L 90.562734 445.809298 
L 91.522242 447.869851 
L 92.502306 449.920706 
L 93.50283 451.961659 
L 94.523713 453.992504 
L 95.564854 456.013039 
L 96.626147 458.023062 
L 97.707487 460.022371 
L 98.808765 462.010767 
L 99.929873 463.988052 
L 101.070696 465.954026 
L 102.231122 467.908495 
L 103.411035 469.851261 
L 104.610316 471.782131 
L 105.828845 473.700912 
L 107.0665 475.607413 
L 108.323159 477.501441 
L 109.598695 479.382809 
L 110.89298 481.251327 
L 112.205885 483.106809 
L 113.53728 484.949069 
L 114.88703 486.777924 
L 116.255 488.59319 
L 117.641055 490.394686 
L 119.045055 492.182231 
L 120.46686 493.955647 
L 121.906328 495.714757 
L 123.363315 497.459384 
L 124.837675 499.189355 
L 126.32926 500.904496 
L 127.837922 502.604635 
L 129.36351 504.289603 
L 130.905871 505.959231 
L 132.46485 507.613352 
L 134.040293 509.251801 
L 135.632041 510.874414 
L 137.239936 512.481028 
L 138.863815 514.071484 
L 140.503518 515.645621 
L 142.158881 517.203283 
L 143.829736 518.744314 
L 145.515918 520.268559 
L 147.217259 521.775867 
L 148.933586 523.266086 
L 150.66473 524.739068 
L 152.410517 526.194665 
L 154.170773 527.632731 
L 155.945321 529.053124 
L 157.733984 530.4557 
L 159.536583 531.84032 
L 161.352937 533.206844 
L 163.182866 534.555138 
L 165.026186 535.885064 
L 166.882713 537.196492 
L 168.752262 538.489289 
L 170.634644 539.763326 
L 172.529673 541.018476 
L 174.437158 542.254613 
L 176.356909 543.471614 
L 178.288734 544.669356 
L 180.232439 545.847721 
L 182.187831 547.006591 
L 184.154713 548.145848 
L 186.13289 549.265381 
L 188.122162 550.365076 
L 190.122332 551.444823 
L 192.133199 552.504515 
L 194.154563 553.544046 
L 196.18622 554.563312 
L 198.227969 555.56221 
L 200.279604 556.540642 
L 202.340921 557.498508 
L 204.411713 558.435714 
L 206.491773 559.352165 
L 208.580894 560.24777 
L 210.678867 561.122439 
L 212.785481 561.976086 
L 214.900526 562.808624 
L 217.02379 563.61997 
L 219.155062 564.410043 
L 221.294127 565.178765 
L 223.440773 565.926057 
L 225.594784 566.651847 
L 227.755946 567.35606 
L 229.924041 568.038627 
L 232.098854 568.699479 
L 234.280166 569.33855 
L 236.467759 569.955776 
L 238.661416 570.551096 
L 240.860916 571.124451 
L 243.066039 571.675781 
L 245.276565 572.205034 
L 247.492273 572.712155 
L 249.712942 573.197094 
L 251.938349 573.659802 
L 254.168271 574.100234 
L 256.402487 574.518345 
L 258.640771 574.914093 
L 260.882901 575.287438 
L 263.128653 575.638344 
L 265.377801 575.966776 
L 267.630121 576.2727 
L 269.885388 576.556086 
L 272.143375 576.816905 
L 274.403858 577.055132 
L 276.66661 577.270742 
L 278.931405 577.463715 
L 281.198016 577.63403 
L 283.466218 577.781671 
L 285.735782 577.906623 
L 288.006482 578.008874 
L 290.278091 578.088413 
L 292.550382 578.145232 
L 294.823128 578.179325 
L 297.0961 578.19069 
z
" clip-path="url(#p9dea4d2485)" style="fill: #ff9400"/>
   </g>
   <g id="patch_6">
    <path d="M 227.558606 136.875217 
L 229.702191 136.190555 
L 231.852515 135.527362 
L 234.009364 134.885705 
L 236.172522 134.265648 
L 238.341772 133.667253 
L 240.516897 133.090581 
L 242.69768 132.535688 
L 244.883903 132.002631 
L 247.075347 131.491462 
L 249.271793 131.002232 
L 251.473021 130.534991 
L 253.678812 130.089786 
L 255.888944 129.66666 
L 258.103197 129.265656 
L 260.321349 128.886815 
L 262.543179 128.530174 
L 264.768464 128.195768 
L 266.996982 127.883632 
L 269.22851 127.593796 
L 271.462824 127.326289 
L 273.699702 127.081139 
L 275.938919 126.858369 
L 278.180252 126.658002 
L 280.423477 126.480058 
L 282.668369 126.324555 
L 284.914703 126.191508 
L 287.162256 126.080931 
L 289.410802 125.992835 
L 291.660117 125.927228 
L 293.909975 125.884117 
L 296.160152 125.863507 
L 297.0961 125.86156 
L 297.0961 123.588549 
L 296.150698 123.590515 
L 293.877792 123.611334 
L 291.605208 123.654881 
L 289.333173 123.72115 
L 287.061914 123.810137 
L 284.791659 123.921831 
L 282.522634 124.056221 
L 280.255066 124.213295 
L 277.989183 124.393036 
L 275.72521 124.595427 
L 273.463375 124.820447 
L 271.203902 125.068074 
L 268.947019 125.338282 
L 266.692951 125.631046 
L 264.441922 125.946335 
L 262.19416 126.284119 
L 259.949887 126.644362 
L 257.709329 127.02703 
L 255.47271 127.432085 
L 253.240253 127.859484 
L 251.012182 128.309187 
L 248.788719 128.781147 
L 246.570086 129.275319 
L 244.356507 129.791651 
L 242.148201 130.330093 
L 239.94539 130.890591 
L 237.748293 131.473088 
L 235.557132 132.077527 
L 233.372125 132.703847 
L 231.193489 133.351985 
L 229.021444 134.021877 
L 226.856207 134.713456 
z
" clip-path="url(#p9dea4d2485)" style="fill: #800000"/>
   </g>
   <g id="PatchCollection_1">
    <path d="M 297.0961 575.91768 
L 297.0961 575.91768 
L 294.845857 575.906428 
L 292.595839 575.872676 
L 290.346271 575.816425 
L 288.097378 575.737681 
L 285.849385 575.636453 
L 283.602516 575.512751 
L 281.356997 575.366586 
L 279.113052 575.197974 
L 276.870905 575.006931 
L 274.63078 574.793477 
L 272.392902 574.557632 
L 270.157495 574.299421 
L 267.924781 574.018869 
L 265.694984 573.716004 
L 263.468327 573.390857 
L 261.245033 573.04346 
L 259.025325 572.673848 
L 256.809423 572.282057 
L 254.59755 571.868128 
L 252.389926 571.4321 
L 250.186774 570.974019 
L 247.988312 570.49393 
L 245.794761 569.99188 
L 243.60634 569.46792 
L 241.423267 568.922102 
L 239.245763 568.354482 
L 237.074043 567.765115 
L 234.908325 567.154061 
L 232.748826 566.52138 
L 230.595762 565.867137 
L 228.449347 565.191395 
L 227.558606 564.904023 
L 227.558606 564.904023 
Q 297.0961 350.88962 227.558606 136.875217 
L 227.558606 136.875217 
L 227.558606 136.875217 
L 229.702191 136.190555 
L 231.852515 135.527362 
L 234.009364 134.885705 
L 236.172522 134.265648 
L 238.341772 133.667253 
L 240.516897 133.090581 
L 242.69768 132.535688 
L 244.883903 132.002631 
L 247.075347 131.491462 
L 249.271793 131.002232 
L 251.473021 130.534991 
L 253.678812 130.089786 
L 255.888944 129.66666 
L 258.103197 129.265656 
L 260.321349 128.886815 
L 262.543179 128.530174 
L 264.768464 128.195768 
L 266.996982 127.883632 
L 269.22851 127.593796 
L 271.462824 127.326289 
L 273.699702 127.081139 
L 275.938919 126.858369 
L 278.180252 126.658002 
L 280.423477 126.480058 
L 282.668369 126.324555 
L 284.914703 126.191508 
L 287.162256 126.080931 
L 289.410802 125.992835 
L 291.660117 125.927228 
L 293.909975 125.884117 
L 296.160152 125.863507 
L 297.0961 125.86156 
L 297.0961 125.86156 
Q 297.0961 350.88962 297.0961 575.91768 
z
" clip-path="url(#p9dea4d2485)" style="fill: #ff9400; fill-opacity: 0.5; stroke: #808080; stroke-opacity: 0.5; stroke-width: 0.1"/>
    <path d="M 227.558606 564.904023 
L 227.558606 564.904023 
L 225.421974 564.197959 
L 223.29251 563.470564 
L 221.170426 562.721911 
L 219.055935 561.952076 
L 216.949247 561.161134 
L 214.850575 560.349165 
L 212.760126 559.516251 
L 210.678112 558.662474 
L 208.604738 557.78792 
L 206.540215 556.892676 
L 204.484746 555.976832 
L 202.438539 555.04048 
L 200.401797 554.083713 
L 198.374724 553.106626 
L 196.357524 552.109318 
L 194.350398 551.091888 
L 192.353546 550.054438 
L 190.367168 548.997072 
L 188.391463 547.919895 
L 186.426628 546.823016 
L 184.47286 545.706543 
L 182.530354 544.570588 
L 180.599305 543.415266 
L 178.679906 542.240691 
L 176.772347 541.046982 
L 174.876822 539.834256 
L 172.993518 538.602637 
L 171.122624 537.352246 
L 169.264327 536.083209 
L 167.418814 534.795653 
L 165.586268 533.489707 
L 164.827925 532.941145 
L 164.827925 532.941145 
Q 297.0961 350.88962 511.110503 420.427115 
L 511.110503 420.427115 
L 511.110503 420.427115 
L 510.404439 422.563746 
L 509.677044 424.69321 
L 508.928392 426.815294 
L 508.158556 428.929785 
L 507.367615 431.036473 
L 506.555646 433.135146 
L 505.722731 435.225594 
L 504.868955 437.307609 
L 503.9944 439.380982 
L 503.099157 441.445506 
L 502.183313 443.500974 
L 501.246961 445.547182 
L 500.290193 447.583923 
L 499.313107 449.610996 
L 498.315799 451.628196 
L 497.298369 453.635323 
L 496.260919 455.632175 
L 495.203553 457.618553 
L 494.126376 459.594258 
L 493.029496 461.559093 
L 491.913023 463.51286 
L 490.777069 465.455366 
L 489.621746 467.386415 
L 488.447172 469.305815 
L 487.253462 471.213373 
L 486.040737 473.108899 
L 484.809117 474.992203 
L 483.558726 476.863096 
L 482.28969 478.721393 
L 481.002134 480.566906 
L 479.696187 482.399452 
L 479.147625 483.157795 
L 479.147625 483.157795 
Q 297.0961 350.88962 227.558606 564.904023 
z
" clip-path="url(#p9dea4d2485)" style="fill: #ff9400; fill-opacity: 0.5; stroke: #808080; stroke-opacity: 0.5; stroke-width: 0.1"/>
    <path d="M 164.827925 532.941145 
L 164.827925 532.941145 
L 163.014054 531.609382 
L 161.21359 530.259548 
L 159.426715 528.891777 
L 157.653607 527.506206 
L 155.894442 526.102974 
L 154.149398 524.68222 
L 152.418648 523.244088 
L 150.702366 521.78872 
L 149.000723 520.316262 
L 147.31389 518.826861 
L 145.642034 517.320667 
L 143.985324 515.797831 
L 142.343925 514.258503 
L 140.718001 512.702839 
L 139.107715 511.130993 
L 137.513227 509.543124 
L 135.934697 507.939389 
L 134.372284 506.319949 
L 132.826143 504.684967 
L 131.296428 503.034605 
L 129.783294 501.369029 
L 128.28689 499.688404 
L 126.807368 497.992901 
L 125.344874 496.282687 
L 123.899555 494.557933 
L 122.471555 492.818813 
L 121.061018 491.065501 
L 119.668084 489.29817 
L 118.292893 487.516999 
L 116.935582 485.722166 
L 115.596287 483.913849 
L 115.044576 483.157795 
L 115.044576 483.157795 
Q 297.0961 350.88962 366.633595 136.875217 
L 366.633595 136.875217 
L 366.633595 136.875217 
L 368.770227 137.581281 
L 370.899691 138.308676 
L 373.021775 139.057328 
L 375.136266 139.827164 
L 377.242953 140.618106 
L 379.341626 141.430074 
L 381.432074 142.262989 
L 383.514089 143.116766 
L 385.587462 143.99132 
L 387.651986 144.886564 
L 389.707455 145.802407 
L 391.753662 146.73876 
L 393.790404 147.695527 
L 395.817476 148.672614 
L 397.834677 149.669922 
L 399.841803 150.687352 
L 401.838655 151.724801 
L 403.825033 152.782168 
L 405.800738 153.859345 
L 407.765573 154.956224 
L 409.719341 156.072697 
L 411.661847 157.208652 
L 413.592896 158.363974 
L 415.512295 159.538549 
L 417.419853 160.732258 
L 419.315379 161.944984 
L 421.198683 163.176603 
L 423.069577 164.426994 
L 424.927873 165.696031 
L 426.773387 166.983587 
L 428.605933 168.289533 
L 429.364275 168.838095 
L 429.364275 168.838095 
Q 297.0961 350.88962 164.827925 532.941145 
z
" clip-path="url(#p9dea4d2485)" style="fill: #ff9400; fill-opacity: 0.5; stroke: #808080; stroke-opacity: 0.5; stroke-width: 0.1"/>
    <path d="M 479.147625 483.157795 
L 479.147625 483.157795 
L 477.815863 484.971666 
L 476.466029 486.77213 
L 475.098258 488.559005 
L 473.712687 490.332114 
L 472.309455 492.091278 
L 470.888701 493.836322 
L 469.450568 495.567072 
L 467.9952 497.283354 
L 466.522742 498.984997 
L 465.033342 500.671831 
L 463.527148 502.343686 
L 462.004311 504.000396 
L 460.464983 505.641795 
L 458.909319 507.267719 
L 457.337474 508.878006 
L 455.749604 510.472493 
L 454.145869 512.051023 
L 452.52643 513.613436 
L 450.891447 515.159578 
L 449.241085 516.689292 
L 447.575509 518.202427 
L 445.894885 519.69883 
L 444.199381 521.178353 
L 442.489167 522.640847 
L 440.764414 524.086166 
L 439.025294 525.514165 
L 437.271981 526.924702 
L 435.504651 528.317636 
L 433.72348 529.692827 
L 431.928646 531.050138 
L 430.12033 532.389433 
L 428.298711 533.710578 
L 426.463971 535.013441 
L 424.616296 536.297892 
L 422.755868 537.563803 
L 420.882874 538.811046 
L 418.997502 540.039497 
L 417.09994 541.249033 
L 415.190377 542.439534 
L 413.269005 543.61088 
L 411.336016 544.762953 
L 409.391603 545.89564 
L 407.435961 547.008826 
L 405.469284 548.1024 
L 403.491771 549.176253 
L 401.503618 550.230278 
L 399.505024 551.264369 
L 397.49619 552.278422 
L 395.477315 553.272337 
L 393.448603 554.246014 
L 391.410255 555.199355 
L 389.362476 556.132266 
L 387.305471 557.044652 
L 385.239444 557.936423 
L 383.164604 558.807489 
L 381.081156 559.657764 
L 378.98931 560.487163 
L 376.889275 561.295601 
L 374.781261 562.082999 
L 372.665478 562.849279 
L 370.542138 563.594362 
L 368.411454 564.318175 
L 366.633595 564.904023 
L 366.633595 564.904023 
Q 297.0961 350.88962 115.044576 483.157795 
L 115.044576 483.157795 
L 115.044576 483.157795 
L 113.731019 481.330697 
L 112.435798 479.490554 
L 111.159043 477.637552 
L 109.900881 475.771875 
L 108.661439 473.89371 
L 107.440841 472.003245 
L 106.239207 470.100668 
L 105.056659 468.18617 
L 103.893315 466.259943 
L 102.749291 464.322179 
L 101.624702 462.373072 
L 100.519659 460.412816 
L 99.434274 458.441609 
L 98.368655 456.459646 
L 97.322909 454.467126 
L 96.29714 452.464249 
L 95.29145 450.451214 
L 94.305941 448.428223 
L 93.340711 446.395478 
L 92.395856 444.353183 
L 91.471471 442.301541 
L 90.567648 440.240759 
L 89.684478 438.171041 
L 88.822049 436.092596 
L 87.980447 434.00563 
L 87.159756 431.910352 
L 86.360059 429.806973 
L 85.581435 427.695702 
L 84.823963 425.57675 
L 84.087718 423.45033 
L 83.372773 421.316653 
L 82.6792 419.175934 
L 82.007069 417.028387 
L 81.356447 414.874225 
L 80.727399 412.713666 
L 80.119987 410.546923 
L 79.534272 408.374216 
L 78.970314 406.195759 
L 78.428168 404.011773 
L 77.907889 401.822474 
L 77.409528 399.628081 
L 76.933136 397.428815 
L 76.47876 395.224896 
L 76.046445 393.016542 
L 75.636235 390.803976 
L 75.248171 388.587419 
L 74.882292 386.367091 
L 74.538634 384.143217 
L 74.217231 381.916016 
L 73.918116 379.685713 
L 73.641319 377.452531 
L 73.386867 375.216692 
L 73.154785 372.978421 
L 72.945098 370.737941 
L 72.757826 368.495476 
L 72.592987 366.25125 
L 72.450598 364.005488 
L 72.330674 361.758415 
L 72.233226 359.510255 
L 72.158264 357.261232 
L 72.105796 355.011573 
L 72.075826 352.761501 
L 72.068041 350.88962 
L 72.068041 350.88962 
Q 297.0961 350.88962 479.147625 483.157795 
z
" clip-path="url(#p9dea4d2485)" style="fill: #7dff7a; fill-opacity: 0.5; stroke: #808080; stroke-opacity: 0.5; stroke-width: 0.1"/>
    <path d="M 429.364275 168.838095 
L 429.364275 168.838095 
L 431.178147 170.169858 
L 432.97861 171.519692 
L 434.765486 172.887462 
L 436.538594 174.273033 
L 438.297759 175.676266 
L 440.042803 177.097019 
L 441.773553 178.535152 
L 443.489835 179.99052 
L 445.191478 181.462978 
L 446.878311 182.952378 
L 448.550166 184.458572 
L 450.206877 185.981409 
L 451.848276 187.520737 
L 453.4742 189.076401 
L 455.084486 190.648247 
L 456.678974 192.236116 
L 458.257503 193.839851 
L 459.819917 195.459291 
L 461.366058 197.094273 
L 462.895773 198.744635 
L 464.408907 200.410211 
L 465.905311 202.090835 
L 467.384833 203.786339 
L 468.847327 205.496553 
L 470.292646 207.221306 
L 471.720645 208.960426 
L 473.131183 210.713739 
L 474.524116 212.481069 
L 475.899307 214.26224 
L 477.256618 216.057074 
L 478.595913 217.865391 
L 479.917059 219.68701 
L 481.219922 221.521749 
L 482.504373 223.369425 
L 483.770283 225.229853 
L 485.017526 227.102846 
L 486.245978 228.988218 
L 487.455514 230.885781 
L 488.646014 232.795343 
L 489.81736 234.716715 
L 490.969434 236.649704 
L 492.10212 238.594117 
L 493.215306 240.54976 
L 494.308881 242.516436 
L 495.382734 244.493949 
L 496.436759 246.482102 
L 497.470849 248.480696 
L 498.484903 250.489531 
L 499.478818 252.508405 
L 500.452494 254.537118 
L 501.405836 256.575465 
L 502.338746 258.623244 
L 503.251132 260.68025 
L 504.142903 262.746276 
L 505.01397 264.821117 
L 505.864245 266.904564 
L 506.693643 268.99641 
L 507.502082 271.096445 
L 508.28948 273.20446 
L 509.055759 275.320242 
L 509.800842 277.443582 
L 510.524655 279.574266 
L 511.227126 281.712082 
L 511.908183 283.856815 
L 512.567759 286.008252 
L 513.205789 288.166177 
L 513.822207 290.330374 
L 514.416953 292.500627 
L 514.989968 294.676718 
L 515.541193 296.858431 
L 516.070573 299.045547 
L 516.578057 301.237848 
L 517.063592 303.435113 
L 517.527131 305.637124 
L 517.968627 307.843661 
L 518.388036 310.054501 
L 518.785316 312.269425 
L 519.160427 314.488212 
L 519.513332 316.710638 
L 519.843995 318.936482 
L 520.152384 321.165522 
L 520.438467 323.397533 
L 520.702217 325.632295 
L 520.943605 327.869581 
L 521.16261 330.10917 
L 521.359208 332.350837 
L 521.533379 334.594357 
L 521.685107 336.839508 
L 521.814377 339.086063 
L 521.921175 341.333798 
L 522.00549 343.582489 
L 522.067315 345.831911 
L 522.106643 348.081839 
L 522.123469 350.332047 
L 522.12416 350.88962 
L 522.12416 350.88962 
Q 297.0961 350.88962 72.068041 350.88962 
L 72.068041 350.88962 
L 72.068041 350.88962 
L 72.079292 348.639377 
L 72.113045 346.389359 
L 72.169296 344.139791 
L 72.248039 341.890898 
L 72.349267 339.642904 
L 72.47297 337.396036 
L 72.619134 335.150517 
L 72.787746 332.906571 
L 72.978789 330.664424 
L 73.192244 328.4243 
L 73.428088 326.186422 
L 73.686299 323.951014 
L 73.966851 321.7183 
L 74.269716 319.488504 
L 74.594863 317.261847 
L 74.94226 315.038553 
L 75.311873 312.818844 
L 75.703663 310.602942 
L 76.117593 308.391069 
L 76.55362 306.183446 
L 77.011701 303.980293 
L 77.491791 301.781831 
L 77.993841 299.58828 
L 78.5178 297.399859 
L 79.063618 295.216787 
L 79.631239 293.039282 
L 80.220605 290.867562 
L 80.83166 288.701844 
L 81.46434 286.542345 
L 82.118584 284.389281 
L 82.794325 282.242867 
L 83.491496 280.103317 
L 84.210027 277.970846 
L 84.949847 275.845667 
L 85.710881 273.727992 
L 86.493054 271.618033 
L 87.296287 269.516001 
L 88.120499 267.422106 
L 88.965609 265.336558 
L 89.831532 263.259566 
L 90.718181 261.191336 
L 91.625468 259.132076 
L 92.553301 257.081992 
L 93.501589 255.041288 
L 94.470236 253.01017 
L 95.459145 250.988839 
L 96.468218 248.977498 
L 97.497354 246.976348 
L 98.546449 244.985589 
L 99.615399 243.005421 
L 100.704097 241.036041 
L 101.812434 239.077647 
L 102.940299 237.130433 
L 104.08758 235.194595 
L 105.254161 233.270327 
L 106.439927 231.35782 
L 107.644757 229.457267 
L 108.868533 227.568857 
L 110.111132 225.692778 
L 111.372428 223.82922 
L 112.652297 221.978367 
L 113.95061 220.140405 
L 115.267238 218.315518 
L 116.602048 216.503888 
L 117.954908 214.705697 
L 119.325681 212.921124 
L 120.714232 211.150348 
L 122.12042 209.393546 
L 123.544106 207.650893 
L 124.985147 205.922564 
L 126.443399 204.208731 
L 127.918716 202.509566 
L 129.41095 200.82524 
L 130.919953 199.155919 
L 132.445574 197.501772 
L 133.987659 195.862964 
L 135.546055 194.239658 
L 137.120606 192.632017 
L 138.711155 191.040201 
L 140.317541 189.464371 
L 141.939606 187.904682 
L 143.577186 186.361292 
L 145.230117 184.834355 
L 146.898236 183.324023 
L 148.581374 181.830448 
L 150.279363 180.353778 
L 151.992034 178.894162 
L 153.719215 177.451745 
L 155.460733 176.026672 
L 157.216415 174.619085 
L 158.986085 173.229125 
L 160.769566 171.856931 
L 162.566679 170.50264 
L 164.377245 169.166387 
L 164.827925 168.838095 
L 164.827925 168.838095 
Q 297.0961 350.88962 429.364275 168.838095 
z
" clip-path="url(#p9dea4d2485)" style="fill: #0080ff; fill-opacity: 0.5; stroke: #808080; stroke-opacity: 0.5; stroke-width: 0.1"/>
    <path d="M 522.12416 350.88962 
L 522.12416 350.88962 
L 522.112909 353.139863 
L 522.079156 355.389881 
L 522.022905 357.639449 
L 521.944162 359.888342 
L 521.842934 362.136335 
L 521.719231 364.383204 
L 521.573067 366.628723 
L 521.404454 368.872668 
L 521.213412 371.114815 
L 520.999957 373.35494 
L 520.764113 375.592818 
L 520.505902 377.828226 
L 520.22535 380.06094 
L 519.922485 382.290736 
L 519.597338 384.517393 
L 519.249941 386.740687 
L 518.880328 388.960396 
L 518.488538 391.176297 
L 518.074608 393.388171 
L 517.638581 395.595794 
L 517.1805 397.798947 
L 516.70041 399.997409 
L 516.19836 402.19096 
L 515.6744 404.379381 
L 515.128583 406.562453 
L 514.560962 408.739958 
L 513.971595 410.911678 
L 513.360541 413.077395 
L 512.727861 415.236894 
L 512.073617 417.389959 
L 511.397876 419.536373 
L 511.110503 420.427115 
L 511.110503 420.427115 
Q 297.0961 350.88962 366.633595 564.904023 
L 366.633595 564.904023 
L 366.633595 564.904023 
L 364.49001 565.588685 
L 362.339685 566.251878 
L 360.182837 566.893535 
L 358.019679 567.513592 
L 355.850429 568.111987 
L 353.675304 568.688659 
L 351.494521 569.243552 
L 349.308298 569.776609 
L 347.116854 570.287778 
L 344.920408 570.777008 
L 342.71918 571.244248 
L 340.513389 571.689454 
L 338.303257 572.11258 
L 336.089004 572.513583 
L 333.870851 572.892425 
L 331.649022 573.249066 
L 329.423737 573.583472 
L 327.195219 573.895608 
L 324.963691 574.185444 
L 322.729377 574.452951 
L 320.492499 574.698101 
L 318.253282 574.920871 
L 316.011949 575.121238 
L 313.768724 575.299181 
L 311.523832 575.454685 
L 309.277498 575.587731 
L 307.029945 575.698308 
L 304.781399 575.786405 
L 302.532084 575.852012 
L 300.282226 575.895123 
L 298.032049 575.915733 
L 297.0961 575.91768 
L 297.0961 575.91768 
Q 297.0961 350.88962 522.12416 350.88962 
z
" clip-path="url(#p9dea4d2485)" style="fill: #0080ff; fill-opacity: 0.5; stroke: #808080; stroke-opacity: 0.5; stroke-width: 0.1"/>
    <path d="M 297.0961 125.86156 
L 297.0961 125.86156 
L 299.346343 125.872811 
L 301.596362 125.906564 
L 303.84593 125.962815 
L 306.094823 126.041559 
L 308.342816 126.142787 
L 310.589684 126.266489 
L 312.835204 126.412654 
L 315.079149 126.581266 
L 317.321296 126.772309 
L 319.56142 126.985763 
L 321.799298 127.221608 
L 324.034706 127.479819 
L 326.26742 127.760371 
L 328.497217 128.063235 
L 330.723873 128.388383 
L 332.947167 128.73578 
L 335.166876 129.105392 
L 337.382778 129.497183 
L 339.594651 129.911112 
L 341.802274 130.347139 
L 344.005427 130.805221 
L 346.203889 131.28531 
L 348.39744 131.78736 
L 350.585861 132.31132 
L 352.768933 132.857138 
L 354.946438 133.424758 
L 357.118158 134.014125 
L 359.283876 134.625179 
L 361.443375 135.25786 
L 363.596439 135.912103 
L 365.742853 136.587844 
L 366.633595 136.875217 
L 366.633595 136.875217 
Q 297.0961 350.88962 164.827925 168.838095 
L 164.827925 168.838095 
L 164.827925 168.838095 
L 166.655024 167.524538 
L 168.495166 166.229317 
L 170.348168 164.952562 
L 172.213845 163.694401 
L 174.09201 162.454959 
L 175.982476 161.23436 
L 177.885052 160.032727 
L 179.79955 158.850179 
L 181.725777 157.686835 
L 183.663541 156.542811 
L 185.612648 155.418221 
L 187.572904 154.313179 
L 189.544112 153.227794 
L 191.526075 152.162175 
L 193.518594 151.116429 
L 195.521472 150.090659 
L 197.534507 149.08497 
L 199.557498 148.099461 
L 201.590242 147.13423 
L 203.632537 146.189375 
L 205.684179 145.26499 
L 207.744961 144.361167 
L 209.814679 143.477997 
L 211.893125 142.615568 
L 213.980091 141.773966 
L 216.075368 140.953276 
L 218.178748 140.153579 
L 220.290019 139.374955 
L 222.40897 138.617482 
L 224.535391 137.881237 
L 226.669067 137.166292 
L 227.558606 136.875217 
L 227.558606 136.875217 
Q 297.0961 350.88962 297.0961 125.86156 
z
" clip-path="url(#p9dea4d2485)" style="fill: #000080; fill-opacity: 0.5; stroke: #808080; stroke-opacity: 0.5; stroke-width: 0.1"/>
   </g>
   <g id="patch_7">
    <path d="M 297.0961 125.86156 
L 299.346343 125.872811 
L 301.596362 125.906564 
L 303.84593 125.962815 
L 306.094823 126.041559 
L 308.342816 126.142787 
L 310.589684 126.266489 
L 312.835204 126.412654 
L 315.079149 126.581266 
L 317.321296 126.772309 
L 319.56142 126.985763 
L 321.799298 127.221608 
L 324.034706 127.479819 
L 326.26742 127.760371 
L 328.497217 128.063235 
L 330.723873 128.388383 
L 332.947167 128.73578 
L 335.166876 129.105392 
L 337.382778 129.497183 
L 339.594651 129.911112 
L 341.802274 130.347139 
L 344.005427 130.805221 
L 346.203889 131.28531 
L 348.39744 131.78736 
L 350.585861 132.31132 
L 352.768933 132.857138 
L 354.946438 133.424758 
L 357.118158 134.014125 
L 359.283876 134.625179 
L 361.443375 135.25786 
L 363.596439 135.912103 
L 365.742853 136.587844 
L 366.633595 136.875217 
L 367.335994 134.713456 
L 366.436255 134.42318 
L 364.26816 133.740613 
L 362.093347 133.079761 
L 359.912035 132.44069 
L 357.724442 131.823463 
L 355.530785 131.228143 
L 353.331285 130.654789 
L 351.126162 130.103458 
L 348.915636 129.574206 
L 346.699927 129.067085 
L 344.479259 128.582146 
L 342.253852 128.119438 
L 340.023929 127.679006 
L 337.789714 127.260895 
L 335.551429 126.865147 
L 333.309299 126.491802 
L 331.063548 126.140895 
L 328.8144 125.812464 
L 326.56208 125.50654 
L 324.306813 125.223154 
L 322.048826 124.962335 
L 319.788343 124.724108 
L 317.525591 124.508497 
L 315.260796 124.315525 
L 312.994184 124.14521 
L 310.725983 123.997569 
L 308.456419 123.872617 
L 306.185719 123.770366 
L 303.91411 123.690827 
L 301.641819 123.634008 
L 299.369073 123.599914 
L 297.0961 123.588549 
L 297.0961 125.86156 
z
" clip-path="url(#p9dea4d2485)" style="fill: none; stroke: #000000; stroke-width: 0.5; stroke-linejoin: miter"/>
   </g>
   <g id="patch_8">
    <path d="M 366.633595 136.875217 
L 368.770227 137.581281 
L 370.899691 138.308676 
L 373.021775 139.057328 
L 375.136266 139.827164 
L 377.242953 140.618106 
L 379.341626 141.430074 
L 381.432074 142.262989 
L 383.514089 143.116766 
L 385.587462 143.99132 
L 387.651986 144.886564 
L 389.707455 145.802407 
L 391.753662 146.73876 
L 393.790404 147.695527 
L 395.817476 148.672614 
L 397.834677 149.669922 
L 399.841803 150.687352 
L 401.838655 151.724801 
L 403.825033 152.782168 
L 405.800738 153.859345 
L 407.765573 154.956224 
L 409.719341 156.072697 
L 411.661847 157.208652 
L 413.592896 158.363974 
L 415.512295 159.538549 
L 417.419853 160.732258 
L 419.315379 161.944984 
L 421.198683 163.176603 
L 423.069577 164.426994 
L 424.927873 165.696031 
L 426.773387 166.983587 
L 428.605933 168.289533 
L 430.425328 169.613739 
L 432.23139 170.956073 
L 434.023939 172.3164 
L 435.802795 173.694584 
L 437.56778 175.090488 
L 439.318719 176.503971 
L 441.055435 177.934893 
L 442.777756 179.38311 
L 444.485508 180.848477 
L 446.178522 182.330849 
L 447.856628 183.830076 
L 449.519657 185.346009 
L 451.167445 186.878496 
L 452.799825 188.427385 
L 454.416635 189.992519 
L 456.017713 191.573743 
L 457.6029 193.170898 
L 459.172035 194.783825 
L 460.724963 196.412363 
L 462.261529 198.056348 
L 463.781578 199.715617 
L 465.284959 201.390002 
L 466.77152 203.079338 
L 468.241115 204.783454 
L 469.693595 206.502181 
L 471.128816 208.235346 
L 472.546633 209.982777 
L 473.946905 211.744299 
L 475.329493 213.519734 
L 476.694257 215.308907 
L 478.041062 217.111638 
L 479.369772 218.927746 
L 480.680256 220.75705 
L 481.97238 222.599368 
L 483.246018 224.454514 
L 484.50104 226.322304 
L 485.737323 228.202551 
L 486.954741 230.095066 
L 488.153173 231.99966 
L 489.3325 233.916143 
L 490.492604 235.844324 
L 491.633368 237.784009 
L 492.754679 239.735005 
L 493.856423 241.697115 
L 494.938492 243.670145 
L 496.000777 245.653897 
L 497.043172 247.648173 
L 498.065572 249.652772 
L 499.067875 251.667495 
L 500.049981 253.69214 
L 501.011792 255.726505 
L 501.953212 257.770386 
L 502.874146 259.823579 
L 503.774502 261.885878 
L 504.654191 263.957078 
L 505.513124 266.036971 
L 506.351215 268.125349 
L 507.168382 270.222004 
L 507.964541 272.326725 
L 508.739613 274.439302 
L 509.493522 276.559524 
L 510.226191 278.68718 
L 510.937547 280.822055 
L 511.627519 282.963937 
L 512.296038 285.112612 
L 512.943037 287.267864 
L 513.568451 289.429479 
L 514.172219 291.597239 
L 514.754279 293.770929 
L 515.314574 295.95033 
L 515.853047 298.135226 
L 516.369644 300.325396 
L 516.864314 302.520623 
L 517.337008 304.720687 
L 517.787678 306.925368 
L 518.216278 309.134445 
L 518.622767 311.347698 
L 519.007104 313.564905 
L 519.369249 315.785844 
L 519.709167 318.010294 
L 520.026825 320.238031 
L 520.322189 322.468834 
L 520.595231 324.702479 
L 520.845923 326.938742 
L 521.07424 329.1774 
L 521.28016 331.41823 
L 521.463662 333.661007 
L 521.624727 335.905506 
L 521.763339 338.151505 
L 521.879485 340.398776 
L 521.973152 342.647097 
L 522.044333 344.896242 
L 522.093018 347.145987 
L 522.119204 349.396106 
L 522.122888 351.646374 
L 522.104069 353.896567 
L 522.06275 356.146458 
L 521.998934 358.395825 
L 521.912628 360.64444 
L 521.803841 362.89208 
L 521.672583 365.13852 
L 521.518868 367.383535 
L 521.34271 369.626901 
L 521.144128 371.868392 
L 520.923142 374.107786 
L 520.679773 376.344859 
L 520.414045 378.579385 
L 520.125987 380.811143 
L 519.815625 383.039909 
L 519.482992 385.265459 
L 519.12812 387.487572 
L 518.751045 389.706026 
L 518.351804 391.920597 
L 517.930439 394.131066 
L 517.48699 396.337211 
L 517.021502 398.53881 
L 516.534022 400.735645 
L 516.024598 402.927496 
L 515.493282 405.114142 
L 514.940126 407.295367 
L 514.365186 409.47095 
L 513.768519 411.640676 
L 513.150185 413.804326 
L 512.510246 415.961685 
L 511.848765 418.112537 
L 511.16581 420.256667 
L 511.110503 420.427115 
L 513.272265 421.129514 
L 513.32813 420.957344 
L 514.017984 418.791557 
L 514.686146 416.618979 
L 515.332549 414.439828 
L 515.957129 412.254323 
L 516.559823 410.062681 
L 517.140571 407.865122 
L 517.699314 405.661865 
L 518.235997 403.453131 
L 518.750567 401.239141 
L 519.242971 399.020115 
L 519.713161 396.796277 
L 520.161089 394.567848 
L 520.586711 392.335052 
L 520.989984 390.098111 
L 521.370867 387.857249 
L 521.729324 385.61269 
L 522.065317 383.364659 
L 522.378814 381.113381 
L 522.669782 378.85908 
L 522.938194 376.601982 
L 523.184021 374.342313 
L 523.40724 372.080299 
L 523.607828 369.816166 
L 523.785764 367.55014 
L 523.941032 365.282448 
L 524.073616 363.013317 
L 524.183502 360.742974 
L 524.27068 358.471645 
L 524.33514 356.199558 
L 524.376877 353.92694 
L 524.395886 351.654018 
L 524.392165 349.38102 
L 524.365714 347.108172 
L 524.316537 344.835703 
L 524.244638 342.563839 
L 524.150024 340.292808 
L 524.032705 338.022837 
L 523.892693 335.754152 
L 523.730001 333.48698 
L 523.544646 331.221549 
L 523.336646 328.958085 
L 523.106022 326.696814 
L 522.852798 324.437962 
L 522.576998 322.181755 
L 522.27865 319.928419 
L 521.957784 317.678179 
L 521.614432 315.43126 
L 521.248629 313.187887 
L 520.86041 310.948285 
L 520.449816 308.712676 
L 520.016886 306.481285 
L 519.561664 304.254334 
L 519.084195 302.032048 
L 518.584528 299.814647 
L 518.062713 297.602353 
L 517.518801 295.395388 
L 516.952847 293.193972 
L 516.364907 290.998326 
L 515.755041 288.808669 
L 515.123309 286.62522 
L 514.469774 284.448198 
L 513.794503 282.277819 
L 513.097561 280.114302 
L 512.37902 277.957862 
L 511.63895 275.808715 
L 510.877427 273.667077 
L 510.094525 271.53316 
L 509.290324 269.407179 
L 508.464904 267.289346 
L 507.618346 265.179874 
L 506.750737 263.078972 
L 505.862163 260.986851 
L 504.952712 258.90372 
L 504.022475 256.829788 
L 503.071546 254.765261 
L 502.10002 252.710347 
L 501.107994 250.665251 
L 500.095566 248.630178 
L 499.062839 246.60533 
L 498.009915 244.59091 
L 496.9369 242.58712 
L 495.843901 240.594161 
L 494.731028 238.612231 
L 493.598391 236.641528 
L 492.446104 234.68225 
L 491.274282 232.734593 
L 490.083043 230.798751 
L 488.872505 228.874919 
L 487.64279 226.963287 
L 486.39402 225.064048 
L 485.12632 223.177392 
L 483.839818 221.303507 
L 482.534641 219.44258 
L 481.210921 217.594798 
L 479.868789 215.760345 
L 478.50838 213.939405 
L 477.12983 212.13216 
L 475.733277 210.33879 
L 474.318861 208.559476 
L 472.886722 206.794394 
L 471.437004 205.043722 
L 469.969852 203.307634 
L 468.485414 201.586304 
L 466.983836 199.879905 
L 465.46527 198.188606 
L 463.929867 196.512578 
L 462.37778 194.851987 
L 460.809166 193.206999 
L 459.22418 191.57778 
L 457.622982 189.964492 
L 456.005731 188.367296 
L 454.37259 186.786352 
L 452.723721 185.221818 
L 451.059289 183.673851 
L 449.379461 182.142606 
L 447.684405 180.628235 
L 445.97429 179.13089 
L 444.249288 177.650721 
L 442.50957 176.187875 
L 440.755311 174.7425 
L 438.986686 173.314739 
L 437.203873 171.904736 
L 435.407048 170.51263 
L 433.596393 169.138563 
L 431.772088 167.78267 
L 429.934315 166.445088 
L 428.083259 165.12595 
L 426.219103 163.825388 
L 424.342036 162.543533 
L 422.452245 161.280512 
L 420.549917 160.036452 
L 418.635245 158.811477 
L 416.708418 157.605709 
L 414.769631 156.41927 
L 412.819076 155.252278 
L 410.856949 154.104849 
L 408.883446 152.977099 
L 406.898765 151.86914 
L 404.903103 150.781082 
L 402.896661 149.713036 
L 400.879639 148.665106 
L 398.852238 147.637399 
L 396.814662 146.630018 
L 394.767114 145.643061 
L 392.709799 144.67663 
L 390.642923 143.730819 
L 388.566692 142.805725 
L 386.481314 141.901438 
L 384.386998 141.01805 
L 382.283953 140.155649 
L 380.172389 139.314321 
L 378.052518 138.494151 
L 375.92455 137.69522 
L 373.788701 136.917608 
L 371.645182 136.161394 
L 369.494208 135.426652 
L 367.335994 134.713456 
L 366.633595 136.875217 
z
" clip-path="url(#p9dea4d2485)" style="fill: none; stroke: #000000; stroke-width: 0.5; stroke-linejoin: miter"/>
   </g>
   <g id="patch_9">
    <path d="M 511.110503 420.427115 
L 510.404439 422.563746 
L 509.677044 424.69321 
L 508.928392 426.815294 
L 508.158556 428.929785 
L 507.367615 431.036473 
L 506.555646 433.135146 
L 505.722731 435.225594 
L 504.868955 437.307609 
L 503.9944 439.380982 
L 503.099157 441.445506 
L 502.183313 443.500974 
L 501.246961 445.547182 
L 500.290193 447.583923 
L 499.313107 449.610996 
L 498.315799 451.628196 
L 497.298369 453.635323 
L 496.260919 455.632175 
L 495.203553 457.618553 
L 494.126376 459.594258 
L 493.029496 461.559093 
L 491.913023 463.51286 
L 490.777069 465.455366 
L 489.621746 467.386415 
L 488.447172 469.305815 
L 487.253462 471.213373 
L 486.040737 473.108899 
L 484.809117 474.992203 
L 483.558726 476.863096 
L 482.28969 478.721393 
L 481.002134 480.566906 
L 479.696187 482.399452 
L 478.371981 484.218847 
L 477.029647 486.02491 
L 475.66932 487.817458 
L 474.291136 489.596314 
L 472.895232 491.3613 
L 471.481749 493.112238 
L 470.050827 494.848955 
L 468.60261 496.571275 
L 467.137243 498.279028 
L 465.654871 499.972041 
L 464.155644 501.650147 
L 462.639711 503.313177 
L 461.107224 504.960964 
L 459.558336 506.593344 
L 457.993201 508.210155 
L 456.411977 509.811233 
L 454.814822 511.396419 
L 453.201895 512.965555 
L 451.573357 514.518483 
L 449.929372 516.055048 
L 448.270104 517.575097 
L 446.595718 519.078478 
L 444.906383 520.56504 
L 443.202266 522.034634 
L 441.483539 523.487115 
L 439.750374 524.922335 
L 438.002943 526.340152 
L 436.241422 527.740425 
L 434.465986 529.123013 
L 432.676813 530.487777 
L 430.874083 531.834582 
L 429.057974 533.163292 
L 427.22867 534.473775 
L 425.386353 535.7659 
L 423.531206 537.039537 
L 421.663416 538.29456 
L 419.78317 539.530842 
L 417.890655 540.74826 
L 415.98606 541.946693 
L 414.069577 543.12602 
L 412.141396 544.286124 
L 410.201711 545.426888 
L 408.250716 546.548198 
L 406.288605 547.649943 
L 404.315575 548.732012 
L 402.331823 549.794297 
L 400.337548 550.836691 
L 398.332948 551.859091 
L 396.318225 552.861394 
L 394.29358 553.843501 
L 392.259215 554.805311 
L 390.215334 555.746731 
L 388.162141 556.667665 
L 386.099842 557.568022 
L 384.028642 558.44771 
L 381.948749 559.306643 
L 379.860371 560.144735 
L 377.763717 560.961901 
L 375.658996 561.75806 
L 373.546418 562.533133 
L 371.426196 563.287041 
L 369.298541 564.01971 
L 367.163665 564.731066 
L 365.021783 565.421038 
L 362.873108 566.089557 
L 360.717856 566.736556 
L 358.556242 567.361971 
L 356.388481 567.965739 
L 354.214791 568.547799 
L 352.03539 569.108093 
L 349.850495 569.646566 
L 347.660324 570.163164 
L 345.465097 570.657834 
L 343.265033 571.130527 
L 341.060352 571.581197 
L 338.851275 572.009798 
L 336.638022 572.416287 
L 334.420816 572.800623 
L 332.199876 573.162769 
L 329.975427 573.502687 
L 327.747689 573.820344 
L 325.516887 574.115709 
L 323.283242 574.38875 
L 321.046978 574.639443 
L 318.80832 574.86776 
L 316.56749 575.07368 
L 314.324713 575.257181 
L 312.080214 575.418246 
L 309.834216 575.556859 
L 307.586944 575.673004 
L 305.338623 575.766672 
L 303.089478 575.837852 
L 300.839733 575.886537 
L 298.589614 575.912723 
L 297.0961 575.91768 
L 297.0961 578.19069 
L 298.6047 578.185684 
L 300.877548 578.159234 
L 303.150017 578.110056 
L 305.421881 578.038157 
L 307.692912 577.943544 
L 309.962884 577.826225 
L 312.231568 577.686212 
L 314.49874 577.52352 
L 316.764171 577.338165 
L 319.027635 577.130165 
L 321.288906 576.899542 
L 323.547758 576.646317 
L 325.803965 576.370517 
L 328.057301 576.07217 
L 330.307541 575.751304 
L 332.55446 575.407952 
L 334.797833 575.042148 
L 337.037436 574.65393 
L 339.273044 574.243335 
L 341.504436 573.810405 
L 343.731386 573.355183 
L 345.953673 572.877715 
L 348.171074 572.378048 
L 350.383367 571.856232 
L 352.590332 571.31232 
L 354.791748 570.746366 
L 356.987394 570.158427 
L 359.177051 569.54856 
L 361.3605 568.916828 
L 363.537523 568.263294 
L 365.707901 567.588022 
L 367.871418 566.891081 
L 370.027858 566.172539 
L 372.177005 565.43247 
L 374.318644 564.670946 
L 376.45256 563.888045 
L 378.578541 563.083843 
L 380.696374 562.258423 
L 382.805847 561.411866 
L 384.906749 560.544257 
L 386.99887 559.655682 
L 389.082 558.746231 
L 391.155933 557.815995 
L 393.220459 556.865066 
L 395.275373 555.89354 
L 397.320469 554.901513 
L 399.355543 553.889086 
L 401.380391 552.856358 
L 403.39481 551.803435 
L 405.3986 550.73042 
L 407.39156 549.637421 
L 409.37349 548.524547 
L 411.344192 547.39191 
L 413.30347 546.239624 
L 415.251127 545.067802 
L 417.186969 543.876562 
L 419.110802 542.666024 
L 421.022433 541.436309 
L 422.921672 540.187539 
L 424.808328 538.91984 
L 426.682214 537.633337 
L 428.54314 536.32816 
L 430.390923 535.00444 
L 432.225375 533.662308 
L 434.046316 532.3019 
L 435.853561 530.92335 
L 437.64693 529.526797 
L 439.426245 528.11238 
L 441.191326 526.680241 
L 442.941998 525.230524 
L 444.678086 523.763372 
L 446.399416 522.278933 
L 448.105815 520.777355 
L 449.797114 519.258789 
L 451.473143 517.723386 
L 453.133734 516.1713 
L 454.778721 514.602685 
L 456.40794 513.0177 
L 458.021229 511.416502 
L 459.618425 509.799251 
L 461.199368 508.166109 
L 462.763902 506.51724 
L 464.311869 504.852809 
L 465.843114 503.172981 
L 467.357485 501.477925 
L 468.85483 499.76781 
L 470.334999 498.042807 
L 471.797845 496.303089 
L 473.24322 494.548831 
L 474.670981 492.780206 
L 476.080985 490.997392 
L 477.47309 489.200568 
L 478.847158 487.389912 
L 480.20305 485.565607 
L 481.540632 483.727834 
L 482.85977 481.876778 
L 484.160332 480.012623 
L 485.442187 478.135556 
L 486.705208 476.245764 
L 487.949268 474.343437 
L 489.174243 472.428764 
L 490.380011 470.501938 
L 491.56645 468.563151 
L 492.733442 466.612596 
L 493.880871 464.650469 
L 495.008621 462.676966 
L 496.116581 460.692284 
L 497.204638 458.696623 
L 498.272685 456.69018 
L 499.320614 454.673158 
L 500.348321 452.645758 
L 501.355703 450.608181 
L 502.342659 448.560634 
L 503.30909 446.503319 
L 504.254901 444.436443 
L 505.179996 442.360212 
L 506.084282 440.274834 
L 506.96767 438.180518 
L 507.830071 436.077473 
L 508.671399 433.965909 
L 509.491569 431.846037 
L 510.2905 429.71807 
L 511.068112 427.58222 
L 511.824327 425.438701 
L 512.559069 423.287727 
L 513.272265 421.129514 
L 511.110503 420.427115 
z
" clip-path="url(#p9dea4d2485)" style="fill: none; stroke: #000000; stroke-width: 0.5; stroke-linejoin: miter"/>
   </g>
   <g id="patch_10">
    <path d="M 297.0961 575.91768 
L 294.845857 575.906428 
L 292.595839 575.872676 
L 290.346271 575.816425 
L 288.097378 575.737681 
L 285.849385 575.636453 
L 283.602516 575.512751 
L 281.356997 575.366586 
L 279.113052 575.197974 
L 276.870905 575.006931 
L 274.63078 574.793477 
L 272.392902 574.557632 
L 270.157495 574.299421 
L 267.924781 574.018869 
L 265.694984 573.716004 
L 263.468327 573.390857 
L 261.245033 573.04346 
L 259.025325 572.673848 
L 256.809423 572.282057 
L 254.59755 571.868128 
L 252.389926 571.4321 
L 250.186774 570.974019 
L 247.988312 570.49393 
L 245.794761 569.99188 
L 243.60634 569.46792 
L 241.423267 568.922102 
L 239.245763 568.354482 
L 237.074043 567.765115 
L 234.908325 567.154061 
L 232.748826 566.52138 
L 230.595762 565.867137 
L 228.449347 565.191395 
L 226.309798 564.494224 
L 224.177326 563.775693 
L 222.052147 563.035873 
L 219.934472 562.274839 
L 217.824513 561.492666 
L 215.722481 560.689434 
L 213.628587 559.865221 
L 211.543039 559.020111 
L 209.466046 558.154188 
L 207.397817 557.267539 
L 205.338557 556.360253 
L 203.288473 555.432419 
L 201.247769 554.484131 
L 199.21665 553.515484 
L 197.195319 552.526575 
L 195.183978 551.517502 
L 193.182828 550.488366 
L 191.19207 549.439271 
L 189.211902 548.370321 
L 187.242522 547.281623 
L 185.284127 546.173286 
L 183.336913 545.045421 
L 181.401076 543.89814 
L 179.476807 542.731559 
L 177.564301 541.545794 
L 175.663747 540.340963 
L 173.775337 539.117187 
L 171.899259 537.874589 
L 170.0357 536.613292 
L 168.184847 535.333423 
L 166.346886 534.03511 
L 164.521999 532.718482 
L 162.710369 531.383672 
L 160.912178 530.030813 
L 159.127605 528.660039 
L 157.356829 527.271489 
L 155.600026 525.8653 
L 153.857373 524.441614 
L 152.129044 523.000573 
L 150.415212 521.542322 
L 148.716047 520.067005 
L 147.03172 518.57477 
L 145.3624 517.065767 
L 143.708253 515.540146 
L 142.069444 513.998061 
L 140.446138 512.439665 
L 138.838497 510.865114 
L 137.246682 509.274566 
L 135.670851 507.668179 
L 134.111163 506.046115 
L 132.567773 504.408535 
L 131.040836 502.755603 
L 129.530504 501.087485 
L 128.036928 499.404347 
L 126.560259 497.706358 
L 125.100643 495.993687 
L 123.658226 494.266506 
L 122.233153 492.524987 
L 120.825566 490.769305 
L 119.435606 488.999635 
L 118.063411 487.216154 
L 116.70912 485.419041 
L 115.372868 483.608475 
L 114.054788 481.784637 
L 112.755011 479.94771 
L 111.473669 478.097877 
L 110.210888 476.235323 
L 108.966796 474.360235 
L 107.741517 472.4728 
L 106.535173 470.573206 
L 105.347885 468.661645 
L 104.179772 466.738306 
L 103.03095 464.803382 
L 101.901535 462.857067 
L 100.791639 460.899556 
L 99.701373 458.931044 
L 98.630846 456.951727 
L 97.580166 454.961805 
L 96.549437 452.961475 
L 95.538763 450.950938 
L 94.548244 448.930395 
L 93.57798 446.900049 
L 92.628068 444.860101 
L 91.698602 442.810756 
L 90.789676 440.752219 
L 89.90138 438.684696 
L 89.033803 436.608394 
L 88.187033 434.52352 
L 87.361153 432.430282 
L 86.556247 430.328891 
L 85.772394 428.219555 
L 85.009674 426.102487 
L 84.268162 423.977898 
L 83.547933 421.845999 
L 82.849058 419.707005 
L 82.171608 417.56113 
L 81.51565 415.408587 
L 80.88125 413.249593 
L 80.268471 411.084362 
L 79.677375 408.913112 
L 79.108021 406.73606 
L 78.560465 404.553424 
L 78.034763 402.36542 
L 77.530966 400.17227 
L 77.049126 397.974191 
L 76.589291 395.771404 
L 76.151505 393.564128 
L 75.735815 391.352585 
L 75.34226 389.136996 
L 74.97088 386.917583 
L 74.621712 384.694566 
L 74.294792 382.468169 
L 73.990152 380.238614 
L 73.707822 378.006124 
L 73.447831 375.770923 
L 73.210204 373.533233 
L 72.994966 371.29328 
L 72.802138 369.051285 
L 72.631739 366.807475 
L 72.483786 364.562073 
L 72.358294 362.315304 
L 72.255276 360.067392 
L 72.174742 357.818562 
L 72.1167 355.56904 
L 72.081155 353.319049 
L 72.068112 351.068816 
L 72.077571 348.818564 
L 72.109532 346.56852 
L 72.163992 344.318908 
L 72.240944 342.069953 
L 72.340382 339.82188 
L 72.462295 337.574914 
L 72.606672 335.329279 
L 72.773497 333.0852 
L 72.962754 330.842901 
L 73.174425 328.602608 
L 73.408487 326.364543 
L 73.664918 324.12893 
L 73.943692 321.895993 
L 74.244781 319.665956 
L 74.568155 317.439041 
L 74.913781 315.215471 
L 75.281626 312.995469 
L 75.671652 310.779256 
L 76.08382 308.567054 
L 76.518089 306.359084 
L 76.974416 304.155567 
L 77.452755 301.956724 
L 77.953057 299.762773 
L 78.475274 297.573936 
L 79.019353 295.39043 
L 79.58524 293.212474 
L 80.172877 291.040285 
L 80.782207 288.874081 
L 81.413167 286.714079 
L 82.065696 284.560495 
L 82.739728 282.413543 
L 83.435195 280.273439 
L 84.152028 278.140396 
L 84.890155 276.014628 
L 85.649503 273.896348 
L 86.429995 271.785767 
L 87.231553 269.683096 
L 88.054098 267.588546 
L 88.897547 265.502325 
L 89.761815 263.424644 
L 90.646817 261.355709 
L 91.552464 259.295727 
L 92.478665 257.244905 
L 93.425327 255.203447 
L 94.392356 253.171557 
L 95.379656 251.149439 
L 96.387127 249.137295 
L 97.414668 247.135327 
L 98.462178 245.143733 
L 99.529551 243.162714 
L 100.61668 241.192468 
L 101.723457 239.233192 
L 102.849771 237.28508 
L 103.99551 235.34833 
L 105.160559 233.423133 
L 106.344801 231.509683 
L 107.548118 229.608171 
L 108.770389 227.718786 
L 110.011493 225.841719 
L 111.271306 223.977157 
L 112.5497 222.125285 
L 113.846549 220.28629 
L 115.161723 218.460355 
L 116.49509 216.647663 
L 117.846518 214.848395 
L 119.21587 213.062731 
L 120.603009 211.29085 
L 122.007798 209.532928 
L 123.430096 207.789142 
L 124.86976 206.059666 
L 126.326647 204.344673 
L 127.80061 202.644334 
L 129.291503 200.95882 
L 130.799176 199.288298 
L 132.323479 197.632936 
L 133.864259 195.992901 
L 135.421362 194.368354 
L 136.994632 192.75946 
L 138.583912 191.166378 
L 140.189044 189.589269 
L 141.809866 188.028289 
L 143.446216 186.483596 
L 145.097931 184.955343 
L 146.764846 183.443683 
L 148.446794 181.948768 
L 150.143607 180.470746 
L 151.855115 179.009767 
L 153.581147 177.565975 
L 155.32153 176.139516 
L 157.076091 174.730531 
L 158.844653 173.339162 
L 160.627041 171.965548 
L 162.423075 170.609826 
L 164.232576 169.272133 
L 166.055364 167.9526 
L 167.891256 166.651362 
L 169.740068 165.368546 
L 171.601615 164.104283 
L 173.475712 162.858699 
L 175.362171 161.631917 
L 177.260803 160.424061 
L 179.171419 159.235251 
L 181.093827 158.065606 
L 183.027835 156.915244 
L 184.97325 155.784279 
L 186.929877 154.672824 
L 188.89752 153.580991 
L 190.875984 152.508889 
L 192.865069 151.456624 
L 194.864577 150.424303 
L 196.874308 149.412028 
L 198.894062 148.4199 
L 200.923635 147.44802 
L 202.962826 146.496483 
L 205.01143 145.565386 
L 207.069242 144.65482 
L 209.136057 143.764879 
L 211.211668 142.895649 
L 213.295867 142.047219 
L 215.388446 141.219672 
L 217.489196 140.413093 
L 219.597907 139.627561 
L 221.714367 138.863155 
L 223.838365 138.119951 
L 225.969689 137.398024 
L 227.558606 136.875217 
L 226.856207 134.713456 
L 225.251241 135.241544 
L 223.098388 135.970763 
L 220.952935 136.721473 
L 218.815097 137.4936 
L 216.685086 138.287067 
L 214.563116 139.101794 
L 212.4494 139.937699 
L 210.344148 140.7947 
L 208.247572 141.672709 
L 206.15988 142.571641 
L 204.081282 143.491404 
L 202.011985 144.431906 
L 199.952196 145.393054 
L 197.902122 146.374752 
L 195.861967 147.376901 
L 193.831935 148.399401 
L 191.81223 149.44215 
L 189.803053 150.505043 
L 187.804605 151.587975 
L 185.817087 152.690836 
L 183.840696 153.813518 
L 181.87563 154.955907 
L 179.922087 156.117889 
L 177.980261 157.299348 
L 176.050346 158.500166 
L 174.132536 159.720223 
L 172.227022 160.959396 
L 170.333994 162.217563 
L 168.453643 163.494596 
L 166.586156 164.790369 
L 164.73172 166.104752 
L 162.890521 167.437612 
L 161.062741 168.788818 
L 159.248565 170.158234 
L 157.448174 171.545723 
L 155.661747 172.951146 
L 153.889464 174.374363 
L 152.131501 175.815231 
L 150.388034 177.273607 
L 148.659238 178.749344 
L 146.945286 180.242295 
L 145.246349 181.75231 
L 143.562596 183.279239 
L 141.894197 184.822929 
L 140.241318 186.383225 
L 138.604124 187.959972 
L 136.982779 189.553012 
L 135.377446 191.162185 
L 133.788284 192.787331 
L 132.215453 194.428287 
L 130.659109 196.084889 
L 129.11941 197.756972 
L 127.596507 199.444367 
L 126.090555 201.146907 
L 124.601703 202.864421 
L 123.1301 204.596737 
L 121.675894 206.343683 
L 120.23923 208.105083 
L 118.820251 209.880761 
L 117.4191 211.670541 
L 116.035916 213.474242 
L 114.670838 215.291684 
L 113.324002 217.122686 
L 111.995544 218.967065 
L 110.685595 220.824635 
L 109.394287 222.695213 
L 108.12175 224.578609 
L 106.868109 226.474637 
L 105.633492 228.383105 
L 104.41802 230.303825 
L 103.221816 232.236603 
L 102.044999 234.181246 
L 100.887687 236.13756 
L 99.749996 238.105349 
L 98.632039 240.084416 
L 97.533929 242.074564 
L 96.455775 244.075593 
L 95.397684 246.087304 
L 94.359763 248.109494 
L 93.342116 250.141963 
L 92.344844 252.184506 
L 91.368046 254.23692 
L 90.411822 256.298998 
L 89.476266 258.370536 
L 88.561471 260.451326 
L 87.66753 262.541159 
L 86.794531 264.639828 
L 85.942563 266.747121 
L 85.111709 268.862828 
L 84.302054 270.986738 
L 83.513678 273.118638 
L 82.74666 275.258315 
L 82.001077 277.405555 
L 81.277004 279.560144 
L 80.574512 281.721865 
L 79.893672 283.890503 
L 79.234552 286.065841 
L 78.597218 288.247662 
L 77.981733 290.435746 
L 77.38816 292.629876 
L 76.816558 294.829832 
L 76.266983 297.035394 
L 75.739491 299.246341 
L 75.234135 301.462452 
L 74.750964 303.683506 
L 74.290028 305.909281 
L 73.851373 308.139553 
L 73.435041 310.374101 
L 73.041076 312.6127 
L 72.669516 314.855126 
L 72.320398 317.101157 
L 71.993758 319.350566 
L 71.689627 321.603128 
L 71.408038 323.85862 
L 71.149016 326.116814 
L 70.91259 328.377486 
L 70.698781 330.640409 
L 70.507612 332.905357 
L 70.339102 335.172104 
L 70.193267 337.440422 
L 70.070122 339.710085 
L 69.96968 341.980865 
L 69.89195 344.252537 
L 69.836941 346.524873 
L 69.804657 348.797645 
L 69.795102 351.070626 
L 69.808277 353.343589 
L 69.84418 355.616307 
L 69.902809 357.888552 
L 69.984157 360.160097 
L 70.088216 362.430715 
L 70.214975 364.700179 
L 70.364422 366.968262 
L 70.536542 369.234737 
L 70.731318 371.499377 
L 70.948731 373.761957 
L 71.188757 376.022249 
L 71.451375 378.280028 
L 71.736556 380.535069 
L 72.044274 382.787144 
L 72.374496 385.03603 
L 72.727191 387.281501 
L 73.102322 389.523333 
L 73.499852 391.761302 
L 73.919742 393.995184 
L 74.361949 396.224755 
L 74.826429 398.449793 
L 75.313137 400.670074 
L 75.822022 402.885378 
L 76.353034 405.095482 
L 76.906121 407.300166 
L 77.481227 409.499208 
L 78.078293 411.69239 
L 78.697262 413.879491 
L 79.33807 416.060294 
L 80.000653 418.23458 
L 80.684947 420.402131 
L 81.39088 422.56273 
L 82.118385 424.716163 
L 82.867387 426.862213 
L 83.637811 429.000666 
L 84.429582 431.131308 
L 85.242618 433.253925 
L 86.07684 435.368307 
L 86.932164 437.47424 
L 87.808504 439.571515 
L 88.705772 441.659922 
L 89.62388 443.739253 
L 90.562734 445.809298 
L 91.522242 447.869851 
L 92.502306 449.920706 
L 93.50283 451.961659 
L 94.523713 453.992504 
L 95.564854 456.013039 
L 96.626147 458.023062 
L 97.707487 460.022371 
L 98.808765 462.010767 
L 99.929873 463.988052 
L 101.070696 465.954026 
L 102.231122 467.908495 
L 103.411035 469.851261 
L 104.610316 471.782131 
L 105.828845 473.700912 
L 107.0665 475.607413 
L 108.323159 477.501441 
L 109.598695 479.382809 
L 110.89298 481.251327 
L 112.205885 483.106809 
L 113.53728 484.949069 
L 114.88703 486.777924 
L 116.255 488.59319 
L 117.641055 490.394686 
L 119.045055 492.182231 
L 120.46686 493.955647 
L 121.906328 495.714757 
L 123.363315 497.459384 
L 124.837675 499.189355 
L 126.32926 500.904496 
L 127.837922 502.604635 
L 129.36351 504.289603 
L 130.905871 505.959231 
L 132.46485 507.613352 
L 134.040293 509.251801 
L 135.632041 510.874414 
L 137.239936 512.481028 
L 138.863815 514.071484 
L 140.503518 515.645621 
L 142.158881 517.203283 
L 143.829736 518.744314 
L 145.515918 520.268559 
L 147.217259 521.775867 
L 148.933586 523.266086 
L 150.66473 524.739068 
L 152.410517 526.194665 
L 154.170773 527.632731 
L 155.945321 529.053124 
L 157.733984 530.4557 
L 159.536583 531.84032 
L 161.352937 533.206844 
L 163.182866 534.555138 
L 165.026186 535.885064 
L 166.882713 537.196492 
L 168.752262 538.489289 
L 170.634644 539.763326 
L 172.529673 541.018476 
L 174.437158 542.254613 
L 176.356909 543.471614 
L 178.288734 544.669356 
L 180.232439 545.847721 
L 182.187831 547.006591 
L 184.154713 548.145848 
L 186.13289 549.265381 
L 188.122162 550.365076 
L 190.122332 551.444823 
L 192.133199 552.504515 
L 194.154563 553.544046 
L 196.18622 554.563312 
L 198.227969 555.56221 
L 200.279604 556.540642 
L 202.340921 557.498508 
L 204.411713 558.435714 
L 206.491773 559.352165 
L 208.580894 560.24777 
L 210.678867 561.122439 
L 212.785481 561.976086 
L 214.900526 562.808624 
L 217.02379 563.61997 
L 219.155062 564.410043 
L 221.294127 565.178765 
L 223.440773 565.926057 
L 225.594784 566.651847 
L 227.755946 567.35606 
L 229.924041 568.038627 
L 232.098854 568.699479 
L 234.280166 569.33855 
L 236.467759 569.955776 
L 238.661416 570.551096 
L 240.860916 571.124451 
L 243.066039 571.675781 
L 245.276565 572.205034 
L 247.492273 572.712155 
L 249.712942 573.197094 
L 251.938349 573.659802 
L 254.168271 574.100234 
L 256.402487 574.518345 
L 258.640771 574.914093 
L 260.882901 575.287438 
L 263.128653 575.638344 
L 265.377801 575.966776 
L 267.630121 576.2727 
L 269.885388 576.556086 
L 272.143375 576.816905 
L 274.403858 577.055132 
L 276.66661 577.270742 
L 278.931405 577.463715 
L 281.198016 577.63403 
L 283.466218 577.781671 
L 285.735782 577.906623 
L 288.006482 578.008874 
L 290.278091 578.088413 
L 292.550382 578.145232 
L 294.823128 578.179325 
L 297.0961 578.19069 
L 297.0961 575.91768 
z
" clip-path="url(#p9dea4d2485)" style="fill: none; stroke: #000000; stroke-width: 0.5; stroke-linejoin: miter"/>
   </g>
   <g id="patch_11">
    <path d="M 227.558606 136.875217 
L 229.702191 136.190555 
L 231.852515 135.527362 
L 234.009364 134.885705 
L 236.172522 134.265648 
L 238.341772 133.667253 
L 240.516897 133.090581 
L 242.69768 132.535688 
L 244.883903 132.002631 
L 247.075347 131.491462 
L 249.271793 131.002232 
L 251.473021 130.534991 
L 253.678812 130.089786 
L 255.888944 129.66666 
L 258.103197 129.265656 
L 260.321349 128.886815 
L 262.543179 128.530174 
L 264.768464 128.195768 
L 266.996982 127.883632 
L 269.22851 127.593796 
L 271.462824 127.326289 
L 273.699702 127.081139 
L 275.938919 126.858369 
L 278.180252 126.658002 
L 280.423477 126.480058 
L 282.668369 126.324555 
L 284.914703 126.191508 
L 287.162256 126.080931 
L 289.410802 125.992835 
L 291.660117 125.927228 
L 293.909975 125.884117 
L 296.160152 125.863507 
L 297.0961 125.86156 
L 297.0961 123.588549 
L 296.150698 123.590515 
L 293.877792 123.611334 
L 291.605208 123.654881 
L 289.333173 123.72115 
L 287.061914 123.810137 
L 284.791659 123.921831 
L 282.522634 124.056221 
L 280.255066 124.213295 
L 277.989183 124.393036 
L 275.72521 124.595427 
L 273.463375 124.820447 
L 271.203902 125.068074 
L 268.947019 125.338282 
L 266.692951 125.631046 
L 264.441922 125.946335 
L 262.19416 126.284119 
L 259.949887 126.644362 
L 257.709329 127.02703 
L 255.47271 127.432085 
L 253.240253 127.859484 
L 251.012182 128.309187 
L 248.788719 128.781147 
L 246.570086 129.275319 
L 244.356507 129.791651 
L 242.148201 130.330093 
L 239.94539 130.890591 
L 237.748293 131.473088 
L 235.557132 132.077527 
L 233.372125 132.703847 
L 231.193489 133.351985 
L 229.021444 134.021877 
L 226.856207 134.713456 
L 227.558606 136.875217 
z
" clip-path="url(#p9dea4d2485)" style="fill: none; stroke: #000000; stroke-width: 0.5; stroke-linejoin: miter"/>
   </g>
   <g id="text_1">
    <text style="font: 3px 'DejaVu Sans', 'Bitstream Vera Sans', 'Computer Modern Sans Serif', 'Lucida Grande', 'Verdana', 'Geneva', 'Lucid', 'Arial', 'Helvetica', 'Avant Garde', sans-serif; text-anchor: start" x="334.135132" y="124.320275" transform="rotate(-81 334.135132 124.320275)">Botho University</text>
   </g>
   <g id="text_2">
    <text style="font: 3px 'DejaVu Sans', 'Bitstream Vera Sans', 'Computer Modern Sans Serif', 'Lucida Grande', 'Verdana', 'Geneva', 'Lucid', 'Arial', 'Helvetica', 'Avant Garde', sans-serif; text-anchor: start" x="502.165547" y="247.680707" transform="rotate(-27 502.165547 247.680707)">Botswana International University of Science and Technology</text>
   </g>
   <g id="text_3">
    <text style="font: 3px 'DejaVu Sans', 'Bitstream Vera Sans', 'Computer Modern Sans Serif', 'Lucida Grande', 'Verdana', 'Geneva', 'Lucid', 'Arial', 'Helvetica', 'Avant Garde', sans-serif; text-anchor: start" x="431.11427" y="537.288891" transform="rotate(-306 431.11427 537.288891)">Botswana Accountancy College</text>
   </g>
   <g id="text_4">
    <text style="font: 3px 'DejaVu Sans', 'Bitstream Vera Sans', 'Computer Modern Sans Serif', 'Lucida Grande', 'Verdana', 'Geneva', 'Lucid', 'Arial', 'Helvetica', 'Avant Garde', sans-serif; text-anchor: end" x="70.526756" y="387.928652" transform="rotate(-9 70.526756 387.928652)">University of Botswana</text>
   </g>
   <g id="text_5">
    <text style="font: 3px 'DejaVu Sans', 'Bitstream Vera Sans', 'Computer Modern Sans Serif', 'Lucida Grande', 'Verdana', 'Geneva', 'Lucid', 'Arial', 'Helvetica', 'Avant Garde', sans-serif; text-anchor: end" x="260.057069" y="124.320275" transform="rotate(-279 260.057069 124.320275)">Botswana Institute for Technology Research and Innovation</text>
   </g>
  </g>
 </g>
 <defs>
  <clipPath id="p9dea4d2485">
   <path d="M 535.762224 350.88962 
C 535.762224 319.548272 529.588662 288.511679 517.594848 259.556048 
C 505.601033 230.600418 488.020215 204.288865 465.858535 182.127185 
C 443.696855 159.965505 417.385302 142.384688 388.429672 130.390873 
C 359.474042 118.397058 328.437449 112.223496 297.0961 112.223496 
C 265.754752 112.223496 234.718159 118.397058 205.762529 130.390873 
C 176.806899 142.384688 150.495346 159.965505 128.333666 182.127185 
C 106.171986 204.288865 88.591168 230.600418 76.597353 259.556048 
C 64.603539 288.511679 58.429976 319.548272 58.429976 350.88962 
C 58.429976 382.230968 64.603539 413.267561 76.597353 442.223191 
C 88.591168 471.178822 106.171986 497.490375 128.333666 519.652055 
C 150.495346 541.813735 176.806899 559.394552 205.762529 571.388367 
C 234.718159 583.382182 265.754752 589.555744 297.0961 589.555744 
C 328.437449 589.555744 359.474042 583.382182 388.429672 571.388367 
C 417.385302 559.394552 443.696855 541.813735 465.858535 519.652055 
C 488.020215 497.490375 505.601033 471.178822 517.594848 442.223191 
C 529.588662 413.267561 535.762224 382.230968 535.762224 350.88962 
M 297.0961 350.88962 
C 297.0961 350.88962 297.0961 350.88962 297.0961 350.88962 
C 297.0961 350.88962 297.0961 350.88962 297.0961 350.88962 
C 297.0961 350.88962 297.0961 350.88962 297.0961 350.88962 
C 297.0961 350.88962 297.0961 350.88962 297.0961 350.88962 
C 297.0961 350.88962 297.0961 350.88962 297.0961 350.88962 
C 297.0961 350.88962 297.0961 350.88962 297.0961 350.88962 
C 297.0961 350.88962 297.0961 350.88962 297.0961 350.88962 
C 297.0961 350.88962 297.0961 350.88962 297.0961 350.88962 
C 297.0961 350.88962 297.0961 350.88962 297.0961 350.88962 
C 297.0961 350.88962 297.0961 350.88962 297.0961 350.88962 
C 297.0961 350.88962 297.0961 350.88962 297.0961 350.88962 
C 297.0961 350.88962 297.0961 350.88962 297.0961 350.88962 
C 297.0961 350.88962 297.0961 350.88962 297.0961 350.88962 
C 297.0961 350.88962 297.0961 350.88962 297.0961 350.88962 
C 297.0961 350.88962 297.0961 350.88962 297.0961 350.88962 
C 297.0961 350.88962 297.0961 350.88962 297.0961 350.88962 
z
"/>
  </clipPath>
 </defs>
</svg>
