<?xml version="1.0" encoding="utf-8" standalone="no"?>
<!DOCTYPE svg PUBLIC "-//W3C//DTD SVG 1.1//EN"
  "http://www.w3.org/Graphics/SVG/1.1/DTD/svg11.dtd">
<svg xmlns:xlink="http://www.w3.org/1999/xlink" width="618.193766pt" height="621.227736pt" viewBox="0 0 618.193766 621.227736" xmlns="http://www.w3.org/2000/svg" version="1.1">
 <metadata>
  <rdf:RDF xmlns:dc="http://purl.org/dc/elements/1.1/" xmlns:cc="http://creativecommons.org/ns#" xmlns:rdf="http://www.w3.org/1999/02/22-rdf-syntax-ns#">
   <cc:Work>
    <dc:type rdf:resource="http://purl.org/dc/dcmitype/StillImage"/>
    <dc:date>2024-11-16T03:07:25.214141</dc:date>
    <dc:format>image/svg+xml</dc:format>
    <dc:creator>
     <cc:Agent>
      <dc:title>Matplotlib v3.8.4, https://matplotlib.org/</dc:title>
     </cc:Agent>
    </dc:creator>
   </cc:Work>
  </rdf:RDF>
 </metadata>
 <defs>
  <style type="text/css">*{stroke-linejoin: round; stroke-linecap: butt}</style>
 </defs>
 <g id="figure_1">
  <g id="patch_1">
   <path d="M 0 621.227736 
L 618.193766 621.227736 
L 618.193766 0 
L 0 0 
z
" style="fill: #ffffff"/>
  </g>
  <g id="axes_1">
   <g id="patch_2">
    <path d="M 319.765868 66.612188 
L 322.240147 66.62456 
L 324.714178 66.661673 
L 327.187715 66.723524 
L 329.660509 66.810107 
L 332.132315 66.921414 
L 334.602883 67.057432 
L 337.071968 67.218149 
L 339.539322 67.403548 
L 342.004699 67.613612 
L 344.467852 67.848318 
L 346.928534 68.107643 
L 349.386501 68.391562 
L 351.841505 68.700046 
L 354.293302 69.033064 
L 356.741647 69.390583 
L 359.186293 69.772567 
L 361.626998 70.178978 
L 364.063516 70.609776 
L 366.495605 71.064917 
L 368.923021 71.544355 
L 371.345522 72.048043 
L 373.762864 72.575931 
L 376.174807 73.127965 
L 378.581108 73.704091 
L 380.981529 74.30425 
L 383.375828 74.928384 
L 385.763766 75.576428 
L 388.145104 76.24832 
L 390.519604 76.94399 
L 392.887029 77.663371 
L 395.247142 78.406389 
L 397.599707 79.172971 
L 399.944488 79.96304 
L 402.281252 80.776517 
L 404.609764 81.61332 
L 406.929792 82.473366 
L 409.241104 83.35657 
L 411.543468 84.262841 
L 413.836655 85.192091 
L 416.120434 86.144226 
L 418.394578 87.11915 
L 420.65886 88.116767 
L 422.913052 89.136976 
L 425.156929 90.179676 
L 427.390268 91.244762 
L 429.612844 92.332128 
L 431.824435 93.441665 
L 434.024821 94.573262 
L 436.213781 95.726806 
L 438.391096 96.902182 
L 440.556549 98.099271 
L 442.709923 99.317955 
L 444.851003 100.558112 
L 446.979574 101.819616 
L 449.095424 103.102343 
L 451.198341 104.406164 
L 453.288115 105.730949 
L 455.364537 107.076565 
L 457.427399 108.442877 
L 459.476495 109.829749 
L 461.51162 111.237043 
L 463.53257 112.664617 
L 465.539144 114.112329 
L 467.531141 115.580034 
L 469.508362 117.067585 
L 471.470608 118.574834 
L 473.417684 120.10163 
L 475.349395 121.647819 
L 477.265548 123.213248 
L 479.16595 124.79776 
L 481.050413 126.401197 
L 482.918748 128.023397 
L 484.770768 129.6642 
L 486.606287 131.32344 
L 488.425122 133.000953 
L 490.227091 134.696569 
L 492.012015 136.41012 
L 493.779714 138.141435 
L 495.530012 139.890339 
L 497.262733 141.656659 
L 498.977705 143.440218 
L 500.674756 145.240836 
L 502.353716 147.058335 
L 503.643692 148.47987 
L 505.501044 146.807503 
L 504.198038 145.371609 
L 502.502119 143.535752 
L 500.787926 141.716945 
L 499.055631 139.915371 
L 497.305407 138.131209 
L 495.53743 136.364639 
L 493.751875 134.615837 
L 491.948922 132.884977 
L 490.128751 131.172233 
L 488.291543 129.477776 
L 486.437484 127.801776 
L 484.566757 126.144399 
L 482.67955 124.505813 
L 480.776052 122.88618 
L 478.856453 121.285663 
L 476.920946 119.704421 
L 474.969722 118.142614 
L 473.002979 116.600396 
L 471.020912 115.077923 
L 469.02372 113.575346 
L 467.011602 112.092815 
L 464.984759 110.63048 
L 462.943395 109.188486 
L 460.887713 107.766977 
L 458.817919 106.366096 
L 456.73422 104.985982 
L 454.636824 103.626775 
L 452.525942 102.288608 
L 450.401783 100.971617 
L 448.264561 99.675934 
L 446.114489 98.401686 
L 443.951782 97.149003 
L 441.776657 95.918009 
L 439.589331 94.708828 
L 437.390023 93.52158 
L 435.178952 92.356384 
L 432.95634 91.213357 
L 430.722409 90.092613 
L 428.477383 88.994263 
L 426.221485 87.918418 
L 423.954943 86.865186 
L 421.677981 85.834672 
L 419.390828 84.826978 
L 417.093713 83.842206 
L 414.786865 82.880453 
L 412.470515 81.941817 
L 410.144894 81.026391 
L 407.810236 80.134267 
L 405.466773 79.265533 
L 403.114741 78.420277 
L 400.754373 77.598584 
L 398.385907 76.800534 
L 396.009579 76.026209 
L 393.625627 75.275686 
L 391.234288 74.549039 
L 388.835803 73.846341 
L 386.430411 73.167663 
L 384.018352 72.513072 
L 381.599869 71.882635 
L 379.175202 71.276413 
L 376.744594 70.694468 
L 374.308288 70.136857 
L 371.866528 69.603638 
L 369.419558 69.094862 
L 366.967623 68.61058 
L 364.510967 68.150842 
L 362.049838 67.715693 
L 359.584479 67.305177 
L 357.115139 66.919334 
L 354.642064 66.558204 
L 352.165502 66.221822 
L 349.685699 65.910222 
L 347.202905 65.623435 
L 344.717367 65.36149 
L 342.229333 65.124414 
L 339.739054 64.912229 
L 337.246777 64.724957 
L 334.752752 64.562616 
L 332.257228 64.425224 
L 329.760455 64.312793 
L 327.262683 64.225335 
L 324.764161 64.162859 
L 322.265139 64.125371 
L 319.765868 64.112875 
z
" clip-path="url(#p774ee84ec2)" style="fill: #000080"/>
   </g>
   <g id="patch_3">
    <path d="M 503.643692 148.47987 
L 505.290114 150.326896 
L 506.917983 152.190293 
L 508.527138 154.069876 
L 510.117417 155.965456 
L 511.68866 157.876843 
L 513.240712 159.803847 
L 514.773416 161.746276 
L 516.28662 163.703933 
L 517.780172 165.676625 
L 519.253922 167.664153 
L 520.707724 169.66632 
L 522.141432 171.682924 
L 523.554902 173.713764 
L 524.947994 175.758636 
L 526.320567 177.817338 
L 527.672486 179.889661 
L 529.003614 181.975401 
L 530.313818 184.074347 
L 531.602967 186.186289 
L 532.870933 188.311018 
L 534.117589 190.44832 
L 535.34281 192.597981 
L 536.546473 194.759787 
L 537.728459 196.933521 
L 538.888648 199.118966 
L 540.026925 201.315903 
L 541.143176 203.524114 
L 542.23729 205.743376 
L 543.309157 207.973468 
L 544.35867 210.214167 
L 545.385723 212.465249 
L 546.390215 214.726489 
L 547.372044 216.997661 
L 548.331113 219.278537 
L 549.267326 221.568889 
L 550.180589 223.868489 
L 551.07081 226.177107 
L 551.937902 228.494511 
L 552.781776 230.82047 
L 553.602349 233.154752 
L 554.399538 235.497122 
L 555.173264 237.847347 
L 555.92345 240.205191 
L 556.65002 242.57042 
L 557.352902 244.942795 
L 558.032025 247.322081 
L 558.687322 249.708039 
L 559.318727 252.100431 
L 559.926177 254.499016 
L 560.509611 256.903557 
L 561.068971 259.313811 
L 561.604201 261.729538 
L 562.115247 264.150497 
L 562.602058 266.576445 
L 563.064586 269.00714 
L 563.502784 271.442338 
L 563.916609 273.881797 
L 564.306019 276.325272 
L 564.670975 278.772519 
L 565.011441 281.223292 
L 565.327383 283.677348 
L 565.618768 286.134441 
L 565.885569 288.594324 
L 566.127757 291.056753 
L 566.34531 293.52148 
L 566.538205 295.988259 
L 566.706423 298.456844 
L 566.849947 300.926988 
L 566.968763 303.398444 
L 567.062859 305.870964 
L 567.132225 308.344301 
L 567.176855 310.818208 
L 567.196744 313.292438 
L 567.19189 315.766743 
L 567.162294 318.240876 
L 567.107958 320.71459 
L 567.028888 323.187636 
L 566.925093 325.659768 
L 566.796581 328.130738 
L 566.643367 330.600299 
L 566.465465 333.068205 
L 566.262893 335.534209 
L 566.035672 337.998064 
L 565.783824 340.459523 
L 565.507374 342.918341 
L 565.206351 345.374271 
L 564.880783 347.827069 
L 564.530705 350.276488 
L 564.15615 352.722284 
L 563.757156 355.164212 
L 563.333763 357.602028 
L 562.886014 360.035489 
L 562.413953 362.46435 
L 561.917628 364.88837 
L 561.397087 367.307305 
L 560.852383 369.720914 
L 560.283571 372.128955 
L 559.690708 374.531187 
L 559.073852 376.927372 
L 558.433065 379.317267 
L 557.768412 381.700636 
L 557.079959 384.077239 
L 556.367775 386.446839 
L 555.631931 388.809198 
L 554.8725 391.164081 
L 554.089559 393.511252 
L 553.283186 395.850477 
L 552.453461 398.181521 
L 551.600467 400.504151 
L 550.724291 402.818136 
L 549.825018 405.123243 
L 548.90274 407.419242 
L 547.957549 409.705904 
L 546.989538 411.983 
L 545.998806 414.250302 
L 544.98545 416.507583 
L 543.949572 418.754618 
L 542.891277 420.991182 
L 541.810668 423.217052 
L 540.707856 425.432004 
L 539.58295 427.635818 
L 538.436062 429.828273 
L 537.267307 432.009149 
L 536.076802 434.178229 
L 534.864666 436.335296 
L 533.631021 438.480133 
L 532.375989 440.612527 
L 531.099697 442.732265 
L 529.802271 444.839133 
L 528.483842 446.932923 
L 527.144541 449.013423 
L 525.784503 451.080427 
L 524.403862 453.133727 
L 523.002759 455.173119 
L 521.581331 457.198397 
L 520.139722 459.209361 
L 518.678076 461.205808 
L 517.196539 463.187539 
L 515.69526 465.154355 
L 514.174387 467.106061 
L 512.634073 469.042461 
L 511.074473 470.963361 
L 509.495743 472.868569 
L 507.898039 474.757895 
L 506.281522 476.63115 
L 504.646354 478.488146 
L 502.992698 480.328698 
L 501.32072 482.152622 
L 499.630586 483.959735 
L 497.922466 485.749856 
L 496.19653 487.522807 
L 494.452952 489.278411 
L 492.691905 491.016491 
L 490.913565 492.736874 
L 489.118111 494.439388 
L 487.305722 496.123862 
L 485.476579 497.790129 
L 483.630864 499.438021 
L 481.768764 501.067374 
L 479.890463 502.678025 
L 477.996151 504.269813 
L 476.086015 505.842578 
L 474.160247 507.396164 
L 472.21904 508.930414 
L 470.262588 510.445176 
L 468.291086 511.940298 
L 466.304732 513.415631 
L 464.303724 514.871027 
L 462.288263 516.30634 
L 460.258549 517.721427 
L 458.214786 519.116147 
L 456.157178 520.490359 
L 454.085932 521.843927 
L 452.001253 523.176716 
L 449.903351 524.488591 
L 447.792436 525.779422 
L 445.668718 527.04908 
L 443.532409 528.297437 
L 441.383724 529.524369 
L 439.222878 530.729754 
L 437.050086 531.91347 
L 434.865565 533.075399 
L 432.669535 534.215425 
L 430.462214 535.333435 
L 428.243824 536.429315 
L 426.014586 537.502958 
L 423.774723 538.554254 
L 421.52446 539.5831 
L 419.264021 540.589392 
L 416.993632 541.57303 
L 414.71352 542.533915 
L 412.423914 543.471951 
L 410.125042 544.387045 
L 407.817134 545.279105 
L 405.500421 546.148041 
L 403.175134 546.993767 
L 400.841507 547.816199 
L 398.499773 548.615253 
L 396.150164 549.390851 
L 393.792918 550.142914 
L 391.428269 550.871367 
L 389.056454 551.576138 
L 386.67771 552.257155 
L 384.292274 552.914352 
L 381.900386 553.547662 
L 379.502285 554.157022 
L 377.09821 554.742371 
L 374.688402 555.30365 
L 372.273102 555.840803 
L 369.852551 556.353777 
L 367.426991 556.84252 
L 364.996665 557.306983 
L 362.561817 557.747121 
L 360.122688 558.162888 
L 357.679524 558.554244 
L 355.232569 558.921149 
L 352.782067 559.263566 
L 350.328264 559.581461 
L 347.871404 559.874804 
L 345.411734 560.143563 
L 342.949499 560.387712 
L 340.484945 560.607228 
L 338.01832 560.802087 
L 335.54987 560.972271 
L 333.079841 561.117762 
L 330.608481 561.238546 
L 328.136037 561.33461 
L 325.662756 561.405946 
L 323.188885 561.452546 
L 320.714671 561.474406 
L 319.765868 561.476225 
L 319.765868 563.975538 
L 320.724255 563.9737 
L 323.223461 563.95162 
L 325.72232 563.90455 
L 328.220584 563.832493 
L 330.718003 563.735458 
L 333.214326 563.613454 
L 335.709305 563.466494 
L 338.202689 563.294591 
L 340.694229 563.097763 
L 343.183677 562.876031 
L 345.670783 562.629415 
L 348.155298 562.357941 
L 350.636975 562.061636 
L 353.115564 561.740529 
L 355.590818 561.394653 
L 358.06249 561.024042 
L 360.530333 560.628733 
L 362.994099 560.208766 
L 365.453542 559.764183 
L 367.908416 559.295028 
L 370.358477 558.801348 
L 372.803478 558.283193 
L 375.243175 557.740614 
L 377.677325 557.173665 
L 380.105683 556.582404 
L 382.528008 555.966889 
L 384.944056 555.327182 
L 387.353587 554.663347 
L 389.756359 553.97545 
L 392.152132 553.26356 
L 394.540666 552.527749 
L 396.921723 551.768089 
L 399.295064 550.984658 
L 401.660453 550.177532 
L 404.017652 549.346793 
L 406.366426 548.492524 
L 408.70654 547.614811 
L 411.037761 546.71374 
L 413.359854 545.789403 
L 415.672587 544.841892 
L 417.97573 543.871301 
L 420.269053 542.877727 
L 422.552325 541.861271 
L 424.825318 540.822033 
L 427.087805 539.760117 
L 429.339561 538.67563 
L 431.580359 537.568679 
L 433.809976 536.439377 
L 436.028188 535.287835 
L 438.234775 534.114169 
L 440.429514 532.918497 
L 442.612188 531.700937 
L 444.782576 530.461611 
L 446.940464 529.200644 
L 449.085633 527.918162 
L 451.217871 526.614292 
L 453.336964 525.289165 
L 455.4427 523.942915 
L 457.534868 522.575674 
L 459.61326 521.18758 
L 461.677667 519.778773 
L 463.727883 518.349392 
L 465.763702 516.89958 
L 467.784923 515.429484 
L 469.791341 513.939249 
L 471.782757 512.429024 
L 473.758971 510.898962 
L 475.719786 509.349214 
L 477.665006 507.779935 
L 479.594436 506.191283 
L 481.507884 504.583417 
L 483.405157 502.956497 
L 485.286066 501.310686 
L 487.150424 499.646148 
L 488.998043 497.963051 
L 490.82874 496.261561 
L 492.64233 494.54185 
L 494.438632 492.80409 
L 496.217468 491.048453 
L 497.978658 489.275116 
L 499.722028 487.484257 
L 501.447402 485.676053 
L 503.154607 483.850687 
L 504.843475 482.008339 
L 506.513834 480.149196 
L 508.165519 478.273442 
L 509.798364 476.381266 
L 511.412206 474.472856 
L 513.006884 472.548403 
L 514.582237 470.6081 
L 516.138109 468.652141 
L 517.674344 466.680721 
L 519.190789 464.694037 
L 520.687291 462.692289 
L 522.163701 460.675676 
L 523.619871 458.644399 
L 525.055656 456.598663 
L 526.470913 454.538672 
L 527.865499 452.464631 
L 529.239275 450.376749 
L 530.592104 448.275233 
L 531.923851 446.160294 
L 533.234382 444.032144 
L 534.523566 441.890995 
L 535.791275 439.737062 
L 537.037382 437.570559 
L 538.261761 435.391704 
L 539.464291 433.200714 
L 540.644851 430.997809 
L 541.803324 428.783208 
L 542.939593 426.557134 
L 544.053545 424.319808 
L 545.145069 422.071455 
L 546.214054 419.812299 
L 547.260395 417.542567 
L 548.283987 415.262484 
L 549.284727 412.97228 
L 550.262515 410.672184 
L 551.217254 408.362424 
L 552.148848 406.043233 
L 553.057204 403.714842 
L 553.942231 401.377484 
L 554.803841 399.031393 
L 555.641946 396.676803 
L 556.456465 394.31395 
L 557.247315 391.94307 
L 558.014416 389.5644 
L 558.757693 387.178178 
L 559.477071 384.784643 
L 560.172478 382.384034 
L 560.843845 379.976591 
L 561.491104 377.562555 
L 562.114191 375.142167 
L 562.713043 372.715669 
L 563.287601 370.283305 
L 563.837806 367.845316 
L 564.363605 365.401947 
L 564.864944 362.953443 
L 565.341773 360.500047 
L 565.794045 358.042006 
L 566.221715 355.579566 
L 566.624739 353.112972 
L 567.003077 350.642471 
L 567.356692 348.16831 
L 567.685548 345.690737 
L 567.989612 343.209999 
L 568.268854 340.726345 
L 568.523246 338.240022 
L 568.752762 335.75128 
L 568.95738 333.260367 
L 569.137079 330.767533 
L 569.291841 328.273026 
L 569.42165 325.777096 
L 569.526495 323.279994 
L 569.606363 320.781967 
L 569.661248 318.283267 
L 569.691143 315.784143 
L 569.696046 313.284845 
L 569.675956 310.785623 
L 569.630875 308.286726 
L 569.560808 305.788406 
L 569.465762 303.290911 
L 569.345746 300.794491 
L 569.200772 298.299396 
L 569.030855 295.805876 
L 568.836012 293.31418 
L 568.616261 290.824556 
L 568.371626 288.337255 
L 568.102131 285.852524 
L 567.807802 283.370612 
L 567.488669 280.891768 
L 567.144764 278.416239 
L 566.776122 275.944272 
L 566.382778 273.476116 
L 565.964773 271.012016 
L 565.522149 268.55222 
L 565.054949 266.096973 
L 564.56322 263.64652 
L 564.047012 261.201107 
L 563.506376 258.760979 
L 562.941366 256.326378 
L 562.352039 253.89755 
L 561.738453 251.474736 
L 561.10067 249.058179 
L 560.438754 246.64812 
L 559.752771 244.244801 
L 559.042789 241.848462 
L 558.30888 239.459343 
L 557.551117 237.077681 
L 556.769575 234.703717 
L 555.964333 232.337686 
L 555.135472 229.979826 
L 554.283074 227.630373 
L 553.407224 225.28956 
L 552.50801 222.957623 
L 551.585523 220.634795 
L 550.639853 218.321308 
L 549.671097 216.017392 
L 548.67935 213.72328 
L 547.664712 211.439199 
L 546.627284 209.165379 
L 545.56717 206.902046 
L 544.484476 204.649428 
L 543.379311 202.407749 
L 542.251784 200.177234 
L 541.102009 197.958105 
L 539.930101 195.750585 
L 538.736176 193.554894 
L 537.520355 191.371251 
L 536.282758 189.199876 
L 535.02351 187.040986 
L 533.742736 184.894795 
L 532.440565 182.76152 
L 531.117126 180.641372 
L 529.772553 178.534565 
L 528.406978 176.441309 
L 527.02054 174.361812 
L 525.613377 172.296284 
L 524.185629 170.244931 
L 522.73744 168.207957 
L 521.268953 166.185567 
L 519.780316 164.177963 
L 518.271678 162.185345 
L 516.743189 160.207913 
L 515.195003 158.245864 
L 513.627274 156.299395 
L 512.04016 154.3687 
L 510.433818 152.453973 
L 508.808409 150.555405 
L 507.164096 148.673185 
L 505.501044 146.807503 
z
" clip-path="url(#p774ee84ec2)" style="fill: #0000e8"/>
   </g>
   <g id="patch_4">
    <path d="M 319.765868 561.476225 
L 317.291589 561.463853 
L 314.817557 561.42674 
L 312.344021 561.364889 
L 309.871226 561.278305 
L 307.399421 561.166999 
L 304.928853 561.030981 
L 302.459768 560.870264 
L 299.992414 560.684864 
L 297.527037 560.474801 
L 295.063884 560.240095 
L 292.603201 559.98077 
L 290.145235 559.696851 
L 287.69023 559.388367 
L 285.238433 559.055349 
L 282.790089 558.69783 
L 280.345442 558.315846 
L 277.904738 557.909434 
L 275.468219 557.478637 
L 273.03613 557.023496 
L 270.608714 556.544058 
L 268.186214 556.04037 
L 265.768872 555.512482 
L 263.356929 554.960448 
L 260.950627 554.384322 
L 258.550207 553.784162 
L 256.155908 553.160029 
L 253.76797 552.511984 
L 251.386632 551.840093 
L 249.012132 551.144423 
L 246.644707 550.425042 
L 244.284594 549.682024 
L 241.932029 548.915442 
L 239.587247 548.125373 
L 237.250484 547.311896 
L 234.921971 546.475093 
L 232.601943 545.615046 
L 230.290632 544.731843 
L 227.988267 543.825571 
L 225.695081 542.896322 
L 223.411301 541.944187 
L 221.137157 540.969263 
L 219.126199 540.084603 
L 218.109637 542.367839 
L 220.140908 543.261435 
L 222.438023 544.246207 
L 224.744871 545.207959 
L 227.061221 546.146595 
L 229.386841 547.062021 
L 231.7215 547.954146 
L 234.064962 548.822879 
L 236.416995 549.668135 
L 238.777362 550.489829 
L 241.145828 551.287878 
L 243.522157 552.062204 
L 245.906109 552.812727 
L 248.297447 553.539374 
L 250.695933 554.242072 
L 253.101325 554.92075 
L 255.513383 555.57534 
L 257.931867 556.205778 
L 260.356534 556.812 
L 262.787142 557.393945 
L 265.223447 557.951555 
L 267.665207 558.484775 
L 270.112177 558.993551 
L 272.564113 559.477833 
L 275.020768 559.937571 
L 277.481898 560.37272 
L 279.947256 560.783236 
L 282.416596 561.169079 
L 284.889671 561.530209 
L 287.366234 561.866591 
L 289.846036 562.178191 
L 292.328831 562.464978 
L 294.814369 562.726922 
L 297.302402 562.963999 
L 299.792682 563.176184 
L 302.284959 563.363456 
L 304.778984 563.525797 
L 307.274507 563.663189 
L 309.77128 563.77562 
L 312.269052 563.863077 
L 314.767574 563.925553 
L 317.266596 563.963042 
L 319.765868 563.975538 
z
" clip-path="url(#p774ee84ec2)" style="fill: #0038ff"/>
   </g>
   <g id="patch_5">
    <path d="M 219.126199 540.084603 
L 216.870865 539.066921 
L 214.62582 538.026737 
L 212.391289 536.964155 
L 210.167495 535.879281 
L 207.954661 534.772224 
L 205.753009 533.643094 
L 203.562757 532.492005 
L 201.384125 531.319071 
L 199.217332 530.12441 
L 197.062593 528.90814 
L 194.920125 527.670385 
L 192.790141 526.411267 
L 190.672855 525.130913 
L 188.568477 523.82945 
L 186.47722 522.507009 
L 184.399291 521.163721 
L 182.334898 519.799722 
L 180.284249 518.415148 
L 178.247548 517.010136 
L 176.224998 515.584829 
L 174.216802 514.139367 
L 172.223161 512.673896 
L 170.244275 511.188562 
L 168.28034 509.683514 
L 166.331554 508.158902 
L 164.398111 506.614879 
L 162.480205 505.051598 
L 160.578027 503.469218 
L 158.691767 501.867895 
L 156.821616 500.247789 
L 154.967758 498.609064 
L 153.13038 496.951882 
L 151.309665 495.27641 
L 149.505796 493.582814 
L 147.718953 491.871265 
L 145.949314 490.141933 
L 144.197057 488.394992 
L 142.462357 486.630616 
L 140.745387 484.848981 
L 139.046318 483.050266 
L 137.365322 481.23465 
L 135.888044 479.608543 
L 134.030692 481.28091 
L 135.522892 482.923442 
L 137.220868 484.757398 
L 138.937099 486.574282 
L 140.671412 488.373913 
L 142.423635 490.156111 
L 144.193592 491.920698 
L 145.981105 493.667498 
L 147.785998 495.396336 
L 149.608088 497.107038 
L 151.447193 498.799434 
L 153.303131 500.473355 
L 155.175714 502.128634 
L 157.064756 503.765104 
L 158.970069 505.382602 
L 160.891461 506.980966 
L 162.82874 508.560037 
L 164.781712 510.119656 
L 166.750183 511.659668 
L 168.733956 513.179919 
L 170.732831 514.680256 
L 172.74661 516.16053 
L 174.77509 517.620592 
L 176.81807 519.060297 
L 178.875344 520.479501 
L 180.946707 521.878061 
L 183.031952 523.255838 
L 185.13087 524.612694 
L 187.243251 525.948493 
L 189.368885 527.263102 
L 191.507558 528.556389 
L 193.659057 529.828225 
L 195.823166 531.078483 
L 197.99967 532.307038 
L 200.18835 533.513766 
L 202.388988 534.698548 
L 204.601364 535.861265 
L 206.825255 537.0018 
L 209.060441 538.12004 
L 211.306697 539.215872 
L 213.563799 540.289187 
L 215.831521 541.339878 
L 218.109637 542.367839 
z
" clip-path="url(#p774ee84ec2)" style="fill: #0094ff"/>
   </g>
   <g id="patch_6">
    <path d="M 135.888044 479.608543 
L 134.241622 477.761517 
L 132.613752 475.89812 
L 131.004597 474.018537 
L 129.414319 472.122957 
L 127.843075 470.21157 
L 126.291024 468.284565 
L 124.758319 466.342137 
L 123.245116 464.384479 
L 121.751564 462.411788 
L 120.277814 460.424259 
L 118.824012 458.422093 
L 117.390304 456.405489 
L 115.976834 454.374649 
L 114.583742 452.329776 
L 113.211168 450.271075 
L 111.85925 448.198751 
L 110.528122 446.113012 
L 109.217918 444.014066 
L 107.928768 441.902123 
L 106.660802 439.777395 
L 105.483454 437.760216 
L 103.318985 439.009872 
L 104.508226 441.047427 
L 105.789 443.193617 
L 107.091171 445.326893 
L 108.414609 447.44704 
L 109.759183 449.553848 
L 111.124757 451.647104 
L 112.511195 453.7266 
L 113.918358 455.792129 
L 115.346106 457.843482 
L 116.794296 459.880456 
L 118.262783 461.902846 
L 119.75142 463.91045 
L 121.260058 465.903068 
L 122.788546 467.8805 
L 124.336732 469.842549 
L 125.904461 471.789018 
L 127.491576 473.719712 
L 129.097918 475.634439 
L 130.723327 477.533008 
L 132.367639 479.415227 
L 134.030692 481.28091 
z
" clip-path="url(#p774ee84ec2)" style="fill: #0cf4eb"/>
   </g>
   <g id="patch_7">
    <path d="M 105.483454 437.760216 
L 104.257029 435.611241 
L 103.052154 433.450111 
L 101.868951 431.277039 
L 100.707536 429.092245 
L 99.568028 426.895946 
L 98.450539 424.688361 
L 97.355182 422.469713 
L 96.282065 420.240222 
L 95.231297 418.000111 
L 94.202982 415.749605 
L 93.197223 413.488929 
L 92.214121 411.218308 
L 91.253773 408.93797 
L 90.316277 406.648142 
L 89.401725 404.349054 
L 88.51021 402.040936 
L 87.64182 399.724018 
L 86.796642 397.398533 
L 85.974761 395.064711 
L 85.176259 392.722788 
L 84.444034 390.504905 
L 82.067046 391.277235 
L 82.806667 393.517522 
L 83.613235 395.8831 
L 84.443418 398.240495 
L 85.297133 400.589471 
L 86.174294 402.929792 
L 87.074815 405.261225 
L 87.998604 407.583536 
L 88.94557 409.896493 
L 89.915618 412.199865 
L 90.908651 414.493421 
L 91.924569 416.776933 
L 92.963271 419.050171 
L 94.024653 421.312909 
L 95.108609 423.56492 
L 96.215031 425.805979 
L 97.343807 428.035862 
L 98.494826 430.254346 
L 99.667972 432.461209 
L 100.863127 434.656231 
L 102.080172 436.839191 
L 103.318985 439.009872 
z
" clip-path="url(#p774ee84ec2)" style="fill: #56ffa0"/>
   </g>
   <g id="patch_8">
    <path d="M 84.444034 390.504905 
L 83.691206 388.147903 
L 82.961985 385.78349 
L 82.256444 383.411904 
L 81.574654 381.033381 
L 80.916683 378.648159 
L 80.282597 376.256477 
L 79.672459 373.858574 
L 79.086329 371.454689 
L 78.524268 369.045063 
L 77.986331 366.629937 
L 77.472571 364.209553 
L 76.98304 361.784152 
L 76.517788 359.353977 
L 76.07686 356.919272 
L 75.660301 354.480278 
L 75.268152 352.037242 
L 74.900453 349.590406 
L 74.55724 347.140015 
L 74.238548 344.686315 
L 73.944408 342.22955 
L 73.67485 339.769968 
L 73.429901 337.307812 
L 73.209586 334.84333 
L 73.013926 332.376769 
L 72.842941 329.908374 
L 72.696648 327.438392 
L 72.575062 324.967072 
L 72.478194 322.494659 
L 72.406055 320.021401 
L 72.358652 317.547545 
L 72.33599 315.073339 
L 72.33807 312.59903 
L 72.364893 310.124865 
L 72.416455 307.651093 
L 72.492753 305.17796 
L 72.593777 302.705713 
L 72.719519 300.2346 
L 72.869965 297.764868 
L 73.0451 295.296764 
L 73.244908 292.830535 
L 73.469367 290.366427 
L 73.689308 288.180518 
L 71.203686 287.919268 
L 70.981523 290.127258 
L 70.754797 292.616256 
L 70.552971 295.107396 
L 70.376067 297.600431 
L 70.224101 300.095109 
L 70.09709 302.591183 
L 69.995045 305.088402 
L 69.917977 307.586516 
L 69.865893 310.085276 
L 69.838799 312.584432 
L 69.836698 315.083734 
L 69.859589 317.582932 
L 69.907471 320.081776 
L 69.980339 322.580017 
L 70.078185 325.077404 
L 70.200999 327.573687 
L 70.34877 330.068618 
L 70.521482 332.561946 
L 70.719118 335.053423 
L 70.941659 337.542798 
L 71.189082 340.029824 
L 71.461363 342.514251 
L 71.758474 344.995831 
L 72.080385 347.474316 
L 72.427065 349.949458 
L 72.798478 352.42101 
L 73.194588 354.888724 
L 73.615355 357.352353 
L 74.060737 359.811652 
L 74.530689 362.266374 
L 75.025164 364.716274 
L 75.544113 367.161106 
L 76.087484 369.600627 
L 76.655223 372.034593 
L 77.247273 374.462759 
L 77.863574 376.884884 
L 78.504065 379.300724 
L 79.168683 381.710039 
L 79.857359 384.112588 
L 80.570027 386.50813 
L 81.306614 388.896425 
L 82.067046 391.277235 
z
" clip-path="url(#p774ee84ec2)" style="fill: #a0ff56"/>
   </g>
   <g id="patch_9">
    <path d="M 73.689308 288.180518 
L 73.960244 285.721086 
L 74.255761 283.264487 
L 74.575828 280.810966 
L 74.920415 278.360768 
L 75.289485 275.914139 
L 75.683003 273.471322 
L 76.100929 271.032563 
L 76.543222 268.598104 
L 77.009836 266.168191 
L 77.500726 263.743065 
L 78.015842 261.322969 
L 78.555133 258.908145 
L 79.118545 256.498834 
L 79.706022 254.095279 
L 80.317504 251.697718 
L 80.952931 249.306391 
L 81.612239 246.921538 
L 82.295362 244.543398 
L 83.002232 242.172207 
L 83.732778 239.808204 
L 84.486927 237.451624 
L 85.264604 235.102704 
L 86.065731 232.761677 
L 86.890227 230.428779 
L 87.738011 228.104242 
L 88.608998 225.788299 
L 89.5031 223.481182 
L 90.420228 221.18312 
L 91.360291 218.894345 
L 92.323194 216.615085 
L 93.308841 214.345568 
L 94.317133 212.08602 
L 95.34797 209.836668 
L 96.401249 207.597737 
L 97.476864 205.36945 
L 98.574708 203.152031 
L 99.694671 200.945701 
L 100.836641 198.75068 
L 102.000503 196.567189 
L 103.186142 194.395446 
L 104.393438 192.235667 
L 105.622272 190.088069 
L 106.87252 187.952866 
L 108.144057 185.830273 
L 109.436756 183.720501 
L 110.750487 181.623761 
L 112.08512 179.540263 
L 113.440521 177.470215 
L 114.816555 175.413825 
L 116.213083 173.371297 
L 117.629966 171.342837 
L 119.067063 169.328646 
L 120.524229 167.328928 
L 122.001319 165.34388 
L 123.498186 163.373702 
L 125.014679 161.418592 
L 126.550647 159.478744 
L 128.105937 157.554352 
L 129.680392 155.645609 
L 131.273856 153.752706 
L 132.886169 151.875831 
L 134.51717 150.015174 
L 135.888044 148.47987 
L 134.030692 146.807503 
L 132.645971 148.358315 
L 130.998495 150.237767 
L 129.369896 152.1336 
L 127.760337 154.045623 
L 126.169978 155.973646 
L 124.598979 157.917476 
L 123.047496 159.876919 
L 121.515684 161.851778 
L 120.003698 163.841857 
L 118.511687 165.846955 
L 117.039802 167.866873 
L 115.588189 169.901409 
L 114.156994 171.950359 
L 112.74636 174.013518 
L 111.356427 176.09068 
L 109.987335 178.181637 
L 108.639221 180.28618 
L 107.312219 182.4041 
L 106.006463 184.535183 
L 104.722082 186.679216 
L 103.459205 188.835987 
L 102.217959 191.005278 
L 100.998468 193.186872 
L 99.800853 195.380553 
L 98.625234 197.586099 
L 97.47173 199.803292 
L 96.340454 202.031908 
L 95.231521 204.271725 
L 94.145041 206.52252 
L 93.081123 208.784067 
L 92.039873 211.056139 
L 91.021396 213.338511 
L 90.025793 215.630953 
L 89.053164 217.933236 
L 88.103606 220.24513 
L 87.177213 222.566404 
L 86.27408 224.896825 
L 85.394296 227.236162 
L 84.537948 229.584179 
L 83.705123 231.940642 
L 82.895904 234.305315 
L 82.110372 236.677962 
L 81.348605 239.058346 
L 80.61068 241.446228 
L 79.89667 243.84137 
L 79.206646 246.243532 
L 78.540679 248.652474 
L 77.898833 251.067955 
L 77.281175 253.489734 
L 76.687764 255.917568 
L 76.118661 258.351215 
L 75.573923 260.790431 
L 75.053604 263.234972 
L 74.557755 265.684595 
L 74.086427 268.139053 
L 73.639667 270.598102 
L 73.21752 273.061495 
L 72.820027 275.528986 
L 72.447228 278.000329 
L 72.099161 280.475277 
L 71.775861 282.953581 
L 71.477359 285.434994 
L 71.203686 287.919268 
z
" clip-path="url(#p774ee84ec2)" style="fill: #ebff0c"/>
   </g>
   <g id="patch_10">
    <path d="M 135.888044 148.47987 
L 137.552853 146.649401 
L 139.235884 144.83567 
L 140.936968 143.038861 
L 142.655934 141.259152 
L 144.392611 139.496721 
L 146.146825 137.751745 
L 147.918402 136.024398 
L 149.707162 134.314853 
L 151.512929 132.623281 
L 153.33552 130.949851 
L 155.174755 129.29473 
L 157.030448 127.658083 
L 158.902415 126.040075 
L 160.790468 124.440868 
L 162.694419 122.86062 
L 164.614076 121.299491 
L 166.549249 119.757636 
L 168.499743 118.23521 
L 170.465363 116.732364 
L 172.445914 115.24925 
L 174.328976 113.867499 
L 172.859917 111.845512 
L 170.957834 113.24122 
L 168.957278 114.739315 
L 166.971802 116.257341 
L 165.001606 117.795146 
L 163.046886 119.352575 
L 161.107838 120.929473 
L 159.184656 122.525683 
L 157.277532 124.141044 
L 155.386656 125.775395 
L 153.512218 127.428573 
L 151.654406 129.100413 
L 149.813404 130.790746 
L 147.989398 132.499405 
L 146.182569 134.226219 
L 144.393098 135.971013 
L 142.621164 137.733615 
L 140.866945 139.513848 
L 139.130615 141.311534 
L 137.412349 143.126493 
L 135.712318 144.958544 
L 134.030692 146.807503 
z
" clip-path="url(#p774ee84ec2)" style="fill: #ffab00"/>
   </g>
   <g id="patch_11">
    <path d="M 174.328976 113.867499 
L 176.337982 112.423163 
L 178.36133 110.998989 
L 180.398819 109.595119 
L 182.450244 108.211694 
L 184.5154 106.848852 
L 186.594082 105.50673 
L 188.68608 104.185461 
L 190.791187 102.885178 
L 192.90919 101.60601 
L 195.03988 100.348087 
L 197.183042 99.111532 
L 199.338462 97.896471 
L 201.505924 96.703024 
L 203.685213 95.531312 
L 205.876109 94.38145 
L 208.078395 93.253554 
L 210.291849 92.147738 
L 212.51625 91.06411 
L 214.751376 90.002781 
L 216.997004 88.963856 
L 219.126199 88.00381 
L 218.109637 85.720574 
L 215.958935 86.690317 
L 213.690624 87.739736 
L 211.432921 88.811786 
L 209.186051 89.906359 
L 206.950238 91.023346 
L 204.725708 92.162634 
L 202.512681 93.324111 
L 200.311379 94.507659 
L 198.122023 95.713161 
L 195.944831 96.940495 
L 193.780021 98.18954 
L 191.62781 99.46017 
L 189.488412 100.752258 
L 187.362042 102.065676 
L 185.248912 103.400291 
L 183.149234 104.75597 
L 181.063217 106.132578 
L 178.991071 107.529977 
L 176.933001 108.948027 
L 174.889215 110.386587 
L 172.859917 111.845512 
z
" clip-path="url(#p774ee84ec2)" style="fill: #ff5500"/>
   </g>
   <g id="patch_12">
    <path d="M 219.126199 88.00381 
L 221.391598 87.008732 
L 223.666833 86.036357 
L 225.951678 85.086783 
L 228.245905 84.160105 
L 230.549284 83.256415 
L 232.861584 82.375803 
L 235.182575 81.518358 
L 237.512024 80.684165 
L 239.849698 79.873308 
L 242.195364 79.085869 
L 244.548786 78.321924 
L 246.909731 77.581552 
L 249.27796 76.864826 
L 251.653239 76.171817 
L 254.035329 75.502596 
L 256.423992 74.857228 
L 258.818989 74.235779 
L 261.22008 73.638311 
L 263.627027 73.064883 
L 266.039587 72.515553 
L 268.321859 72.019171 
L 267.802222 69.574474 
L 265.496897 70.07587 
L 263.059968 70.630749 
L 260.628709 71.209969 
L 258.203364 71.813472 
L 255.784175 72.441198 
L 253.371384 73.093085 
L 250.965233 73.769066 
L 248.565961 74.469074 
L 246.17381 75.19304 
L 243.789018 75.940891 
L 241.411823 76.712552 
L 239.042464 77.507946 
L 236.681177 78.326993 
L 234.328198 79.169612 
L 231.983763 80.035718 
L 229.648106 80.925225 
L 227.321461 81.838043 
L 225.00406 82.774082 
L 222.696136 83.733248 
L 220.397918 84.715444 
L 218.109637 85.720574 
z
" clip-path="url(#p774ee84ec2)" style="fill: #e80000"/>
   </g>
   <g id="patch_13">
    <path d="M 268.321859 72.019171 
L 270.744641 71.516841 
L 273.172325 71.038763 
L 275.604669 70.584986 
L 278.041428 70.155554 
L 280.48236 69.750511 
L 282.927221 69.369897 
L 285.375765 69.01375 
L 287.827748 68.682106 
L 290.282925 68.374998 
L 292.74105 68.092457 
L 295.201878 67.834511 
L 297.665162 67.601186 
L 300.130656 67.392504 
L 302.598114 67.208488 
L 305.067289 67.049155 
L 307.537933 66.914521 
L 310.0098 66.8046 
L 312.482643 66.719403 
L 314.956213 66.658938 
L 317.430265 66.623212 
L 319.765868 66.612188 
L 319.765868 64.112875 
L 317.406673 64.12401 
L 314.907631 64.160097 
L 312.409075 64.221173 
L 309.911254 64.307231 
L 307.414418 64.418262 
L 304.918818 64.554255 
L 302.424702 64.715198 
L 299.932321 64.901073 
L 297.441923 65.111862 
L 294.953757 65.347544 
L 292.468072 65.608096 
L 289.985118 65.893491 
L 287.505141 66.203701 
L 285.02839 66.538695 
L 282.555113 66.898439 
L 280.085557 67.282898 
L 277.619969 67.692032 
L 275.158596 68.125802 
L 272.701683 68.584163 
L 270.249477 69.06707 
L 267.802222 69.574474 
z
" clip-path="url(#p774ee84ec2)" style="fill: #800000"/>
   </g>
   <g id="PatchCollection_1">
    <path d="M 73.689308 288.180518 
L 73.689308 288.180518 
L 73.960244 285.721086 
L 74.255761 283.264487 
L 74.575828 280.810966 
L 74.920415 278.360768 
L 75.289485 275.914139 
L 75.683003 273.471322 
L 76.100929 271.032563 
L 76.543222 268.598104 
L 77.009836 266.168191 
L 77.500726 263.743065 
L 78.015842 261.322969 
L 78.555133 258.908145 
L 79.118545 256.498834 
L 79.706022 254.095279 
L 80.317504 251.697718 
L 80.952931 249.306391 
L 81.612239 246.921538 
L 82.295362 244.543398 
L 83.002232 242.172207 
L 83.732778 239.808204 
L 84.444034 237.583508 
L 84.444034 237.583508 
Q 319.765868 314.044206 268.321859 72.019171 
L 268.321859 72.019171 
L 268.321859 72.019171 
L 270.744641 71.516841 
L 273.172325 71.038763 
L 275.604669 70.584986 
L 278.041428 70.155554 
L 280.48236 69.750511 
L 282.927221 69.369897 
L 285.375765 69.01375 
L 287.827748 68.682106 
L 290.282925 68.374998 
L 292.74105 68.092457 
L 295.201878 67.834511 
L 297.665162 67.601186 
L 300.130656 67.392504 
L 302.598114 67.208488 
L 305.067289 67.049155 
L 307.537933 66.914521 
L 310.0098 66.8046 
L 312.482643 66.719403 
L 314.956213 66.658938 
L 317.430265 66.623212 
L 319.765868 66.612188 
L 319.765868 66.612188 
Q 319.765868 314.044206 73.689308 288.180518 
z
" clip-path="url(#p774ee84ec2)" style="fill: #ebff0c; fill-opacity: 0.5; stroke: #808080; stroke-opacity: 0.5; stroke-width: 0.1"/>
    <path d="M 105.483454 437.760216 
L 105.483454 437.760216 
L 104.257029 435.611241 
L 103.052154 433.450111 
L 101.868951 431.277039 
L 100.707536 429.092245 
L 99.568028 426.895946 
L 98.450539 424.688361 
L 97.355182 422.469713 
L 96.282065 420.240222 
L 95.231297 418.000111 
L 94.202982 415.749605 
L 93.197223 413.488929 
L 92.214121 411.218308 
L 91.253773 408.93797 
L 90.316277 406.648142 
L 89.401725 404.349054 
L 88.51021 402.040936 
L 87.64182 399.724018 
L 86.796642 397.398533 
L 85.974761 395.064711 
L 85.176259 392.722788 
L 84.444034 390.504905 
L 84.444034 390.504905 
Q 319.765868 314.044206 219.126199 88.00381 
L 219.126199 88.00381 
L 219.126199 88.00381 
L 221.391598 87.008732 
L 223.666833 86.036357 
L 225.951678 85.086783 
L 228.245905 84.160105 
L 230.549284 83.256415 
L 232.861584 82.375803 
L 235.182575 81.518358 
L 237.512024 80.684165 
L 239.849698 79.873308 
L 242.195364 79.085869 
L 244.548786 78.321924 
L 246.909731 77.581552 
L 249.27796 76.864826 
L 251.653239 76.171817 
L 254.035329 75.502596 
L 256.423992 74.857228 
L 258.818989 74.235779 
L 261.22008 73.638311 
L 263.627027 73.064883 
L 266.039587 72.515553 
L 268.321859 72.019171 
L 268.321859 72.019171 
Q 319.765868 314.044206 105.483454 437.760216 
z
" clip-path="url(#p774ee84ec2)" style="fill: #56ffa0; fill-opacity: 0.5; stroke: #808080; stroke-opacity: 0.5; stroke-width: 0.1"/>
    <path d="M 219.126199 540.084603 
L 219.126199 540.084603 
L 216.870865 539.066921 
L 214.62582 538.026737 
L 212.391289 536.964155 
L 210.167495 535.879281 
L 207.954661 534.772224 
L 205.753009 533.643094 
L 203.562757 532.492005 
L 201.384125 531.319071 
L 199.217332 530.12441 
L 197.062593 528.90814 
L 194.920125 527.670385 
L 192.790141 526.411267 
L 190.672855 525.130913 
L 188.568477 523.82945 
L 186.47722 522.507009 
L 184.399291 521.163721 
L 182.334898 519.799722 
L 180.284249 518.415148 
L 178.247548 517.010136 
L 176.224998 515.584829 
L 174.328976 514.220914 
L 174.328976 514.220914 
Q 319.765868 314.044206 503.643692 148.47987 
L 503.643692 148.47987 
L 503.643692 148.47987 
L 505.290114 150.326896 
L 506.917983 152.190293 
L 508.527138 154.069876 
L 510.117417 155.965456 
L 511.68866 157.876843 
L 513.240712 159.803847 
L 514.773416 161.746276 
L 516.28662 163.703933 
L 517.780172 165.676625 
L 519.253922 167.664153 
L 520.707724 169.66632 
L 522.141432 171.682924 
L 523.554902 173.713764 
L 524.947994 175.758636 
L 526.320567 177.817338 
L 527.672486 179.889661 
L 529.003614 181.975401 
L 530.313818 184.074347 
L 531.602967 186.186289 
L 532.870933 188.311018 
L 534.048281 190.328197 
L 534.048281 190.328197 
Q 319.765868 314.044206 219.126199 540.084603 
z
" clip-path="url(#p774ee84ec2)" style="fill: #0094ff; fill-opacity: 0.5; stroke: #808080; stroke-opacity: 0.5; stroke-width: 0.1"/>
    <path d="M 319.765868 561.476225 
L 319.765868 561.476225 
L 317.291589 561.463853 
L 314.817557 561.42674 
L 312.344021 561.364889 
L 309.871226 561.278305 
L 307.399421 561.166999 
L 304.928853 561.030981 
L 302.459768 560.870264 
L 299.992414 560.684864 
L 297.527037 560.474801 
L 295.063884 560.240095 
L 292.603201 559.98077 
L 290.145235 559.696851 
L 287.69023 559.388367 
L 285.238433 559.055349 
L 282.790089 558.69783 
L 280.345442 558.315846 
L 277.904738 557.909434 
L 275.468219 557.478637 
L 273.03613 557.023496 
L 270.608714 556.544058 
L 268.321859 556.069241 
L 268.321859 556.069241 
Q 319.765868 314.044206 534.048281 190.328197 
L 534.048281 190.328197 
L 534.048281 190.328197 
L 535.274707 192.477171 
L 536.479582 194.638302 
L 537.662785 196.811373 
L 538.824199 198.996168 
L 539.963707 201.192467 
L 541.081196 203.400051 
L 542.176554 205.6187 
L 543.24967 207.848191 
L 544.300439 210.088301 
L 545.328754 212.338807 
L 546.334513 214.599484 
L 547.317615 216.870105 
L 548.277962 219.150443 
L 549.215459 221.440271 
L 550.13001 223.739358 
L 551.021525 226.047477 
L 551.889915 228.364394 
L 552.735093 230.68988 
L 553.556974 233.023701 
L 554.355476 235.365624 
L 555.087701 237.583508 
L 555.087701 237.583508 
Q 319.765868 314.044206 319.765868 561.476225 
z
" clip-path="url(#p774ee84ec2)" style="fill: #0038ff; fill-opacity: 0.5; stroke: #808080; stroke-opacity: 0.5; stroke-width: 0.1"/>
    <path d="M 555.087701 237.583508 
L 555.087701 237.583508 
L 555.840529 239.94051 
L 556.56975 242.304922 
L 557.275291 244.676509 
L 557.957081 247.055032 
L 558.615052 249.440253 
L 559.249139 251.831936 
L 559.859277 254.229839 
L 560.445406 256.633724 
L 561.007467 259.04335 
L 561.545405 261.458475 
L 562.059165 263.87886 
L 562.548695 266.304261 
L 563.013948 268.734435 
L 563.454875 271.169141 
L 563.871435 273.608134 
L 564.263583 276.051171 
L 564.631283 278.498007 
L 564.974496 280.948398 
L 565.293188 283.402098 
L 565.587327 285.858862 
L 565.842428 288.180518 
L 565.842428 288.180518 
Q 319.765868 314.044206 174.328976 113.867499 
L 174.328976 113.867499 
L 174.328976 113.867499 
L 176.337982 112.423163 
L 178.36133 110.998989 
L 180.398819 109.595119 
L 182.450244 108.211694 
L 184.5154 106.848852 
L 186.594082 105.50673 
L 188.68608 104.185461 
L 190.791187 102.885178 
L 192.90919 101.60601 
L 195.03988 100.348087 
L 197.183042 99.111532 
L 199.338462 97.896471 
L 201.505924 96.703024 
L 203.685213 95.531312 
L 205.876109 94.38145 
L 208.078395 93.253554 
L 210.291849 92.147738 
L 212.51625 91.06411 
L 214.751376 90.002781 
L 216.997004 88.963856 
L 219.126199 88.00381 
L 219.126199 88.00381 
Q 319.765868 314.044206 555.087701 237.583508 
z
" clip-path="url(#p774ee84ec2)" style="fill: #0000e8; fill-opacity: 0.5; stroke: #808080; stroke-opacity: 0.5; stroke-width: 0.1"/>
    <path d="M 565.842428 288.180518 
L 565.842428 288.180518 
L 566.088756 290.642536 
L 566.310453 293.106893 
L 566.507496 295.573345 
L 566.679864 298.041644 
L 566.827542 300.511543 
L 566.950513 302.982795 
L 567.048766 305.455153 
L 567.122291 307.92837 
L 567.171081 310.402199 
L 567.19513 312.876392 
L 567.194437 315.350702 
L 567.169001 317.824881 
L 567.118825 320.298682 
L 567.043913 322.771858 
L 566.944274 325.244161 
L 566.819918 327.715344 
L 566.670856 330.185159 
L 566.497104 332.653361 
L 566.298679 335.119702 
L 566.075601 337.583935 
L 565.842428 339.907895 
L 565.842428 339.907895 
Q 319.765868 314.044206 135.888044 148.47987 
L 135.888044 148.47987 
L 135.888044 148.47987 
L 137.552853 146.649401 
L 139.235884 144.83567 
L 140.936968 143.038861 
L 142.655934 141.259152 
L 144.392611 139.496721 
L 146.146825 137.751745 
L 147.918402 136.024398 
L 149.707162 134.314853 
L 151.512929 132.623281 
L 153.33552 130.949851 
L 155.174755 129.29473 
L 157.030448 127.658083 
L 158.902415 126.040075 
L 160.790468 124.440868 
L 162.694419 122.86062 
L 164.614076 121.299491 
L 166.549249 119.757636 
L 168.499743 118.23521 
L 170.465363 116.732364 
L 172.445914 115.24925 
L 174.328976 113.867499 
L 174.328976 113.867499 
Q 319.765868 314.044206 565.842428 288.180518 
z
" clip-path="url(#p774ee84ec2)" style="fill: #0000e8; fill-opacity: 0.5; stroke: #808080; stroke-opacity: 0.5; stroke-width: 0.1"/>
    <path d="M 565.842428 339.907895 
L 565.842428 339.907895 
L 565.571491 342.367326 
L 565.275975 344.823926 
L 564.955907 347.277447 
L 564.611321 349.727645 
L 564.24225 352.174274 
L 563.848732 354.617091 
L 563.430806 357.05585 
L 562.988514 359.490308 
L 562.521899 361.920222 
L 562.031009 364.345348 
L 561.515893 366.765444 
L 560.976602 369.180268 
L 560.41319 371.589578 
L 559.825714 373.993134 
L 559.214232 376.390695 
L 558.578805 378.782022 
L 557.919497 381.166874 
L 557.236374 383.545015 
L 556.529504 385.916205 
L 555.798958 388.280209 
L 555.044809 390.636788 
L 554.267132 392.985709 
L 553.466005 395.326736 
L 552.641508 397.659634 
L 551.793724 399.984171 
L 550.922738 402.300114 
L 550.028636 404.607231 
L 549.111507 406.905292 
L 548.171445 409.194067 
L 547.208542 411.473328 
L 546.222895 413.742845 
L 545.214602 416.002393 
L 544.183765 418.251745 
L 543.130486 420.490676 
L 542.054871 422.718963 
L 540.957027 424.936382 
L 539.837065 427.142712 
L 538.695095 429.337732 
L 537.531233 431.521224 
L 536.345594 433.692967 
L 535.138297 435.852746 
L 534.048281 437.760216 
L 534.048281 437.760216 
Q 319.765868 314.044206 84.444034 237.583508 
L 84.444034 237.583508 
L 84.444034 237.583508 
L 85.220395 235.234152 
L 86.020209 232.892677 
L 86.843398 230.559316 
L 87.689879 228.234305 
L 88.559568 225.917874 
L 89.452377 223.610256 
L 90.368217 221.311681 
L 91.306996 219.022379 
L 92.268621 216.74258 
L 93.252996 214.47251 
L 94.260022 212.212398 
L 95.289598 209.962468 
L 96.341622 207.722947 
L 97.415988 205.494058 
L 98.512589 203.276024 
L 99.631315 201.069066 
L 100.772054 198.873406 
L 101.934693 196.689263 
L 103.119114 194.516855 
L 104.3252 192.3564 
L 105.552829 190.208114 
L 106.80188 188.072211 
L 108.072227 185.948905 
L 109.363744 183.838408 
L 110.6763 181.740932 
L 112.009765 179.656687 
L 113.364006 177.58588 
L 114.738886 175.528718 
L 116.134269 173.485408 
L 117.550015 171.456154 
L 118.985983 169.441159 
L 120.442028 167.440623 
L 121.918005 165.454748 
L 123.413768 163.483732 
L 124.929165 161.527772 
L 126.464045 159.587063 
L 128.018256 157.6618 
L 129.591641 155.752175 
L 131.184044 153.858379 
L 132.795305 151.980601 
L 134.425262 150.11903 
L 135.888044 148.47987 
L 135.888044 148.47987 
Q 319.765868 314.044206 565.842428 339.907895 
z
" clip-path="url(#p774ee84ec2)" style="fill: #0000e8; fill-opacity: 0.5; stroke: #808080; stroke-opacity: 0.5; stroke-width: 0.1"/>
    <path d="M 534.048281 437.760216 
L 534.048281 437.760216 
L 532.800428 439.896818 
L 531.531271 442.020836 
L 530.240938 444.132056 
L 528.929557 446.230267 
L 527.597261 448.31526 
L 526.244181 450.386826 
L 524.870454 452.444757 
L 523.476216 454.488849 
L 522.061608 456.518896 
L 520.62677 458.534696 
L 519.171846 460.536047 
L 517.696982 462.522749 
L 516.202325 464.494604 
L 514.688024 466.451413 
L 513.154231 468.392982 
L 511.6011 470.319116 
L 510.028785 472.229623 
L 508.437444 474.124311 
L 506.827237 476.002991 
L 505.198323 477.865476 
L 503.643692 479.608543 
L 503.643692 479.608543 
Q 319.765868 314.044206 84.444034 390.504905 
L 84.444034 390.504905 
L 84.444034 390.504905 
L 83.691206 388.147903 
L 82.961985 385.78349 
L 82.256444 383.411904 
L 81.574654 381.033381 
L 80.916683 378.648159 
L 80.282597 376.256477 
L 79.672459 373.858574 
L 79.086329 371.454689 
L 78.524268 369.045063 
L 77.986331 366.629937 
L 77.472571 364.209553 
L 76.98304 361.784152 
L 76.517788 359.353977 
L 76.07686 356.919272 
L 75.660301 354.480278 
L 75.268152 352.037242 
L 74.900453 349.590406 
L 74.55724 347.140015 
L 74.238548 344.686315 
L 73.944408 342.22955 
L 73.689308 339.907895 
L 73.689308 339.907895 
Q 319.765868 314.044206 534.048281 437.760216 
z
" clip-path="url(#p774ee84ec2)" style="fill: #0000e8; fill-opacity: 0.5; stroke: #808080; stroke-opacity: 0.5; stroke-width: 0.1"/>
    <path d="M 503.643692 479.608543 
L 503.643692 479.608543 
L 501.978882 481.439012 
L 500.295852 483.252742 
L 498.594768 485.049552 
L 496.875802 486.829261 
L 495.139124 488.591691 
L 493.38491 490.336667 
L 491.613334 492.064014 
L 489.824573 493.773559 
L 488.018807 495.465132 
L 486.196215 497.138562 
L 484.356981 498.793683 
L 482.501287 500.43033 
L 480.62932 502.048337 
L 478.741267 503.647545 
L 476.837317 505.227792 
L 474.917659 506.788922 
L 472.982487 508.330777 
L 471.031993 509.853203 
L 469.066372 511.356049 
L 467.085822 512.839163 
L 465.202759 514.220914 
L 465.202759 514.220914 
Q 319.765868 314.044206 174.328976 514.220914 
L 174.328976 514.220914 
L 174.328976 514.220914 
L 172.334515 512.756561 
L 170.354796 511.272336 
L 168.390018 509.768389 
L 166.440377 508.24487 
L 164.506069 506.70193 
L 162.587287 505.139725 
L 160.684222 503.558411 
L 158.797066 501.958146 
L 156.926006 500.339089 
L 155.07123 498.701403 
L 153.232924 497.045251 
L 151.411271 495.370799 
L 149.606453 493.678215 
L 147.81865 491.967668 
L 146.048043 490.239328 
L 144.294807 488.493369 
L 142.559118 486.729965 
L 140.841149 484.949293 
L 139.141073 483.151531 
L 137.459059 481.336857 
L 135.888044 479.608543 
L 135.888044 479.608543 
Q 319.765868 314.044206 503.643692 479.608543 
z
" clip-path="url(#p774ee84ec2)" style="fill: #0000e8; fill-opacity: 0.5; stroke: #808080; stroke-opacity: 0.5; stroke-width: 0.1"/>
    <path d="M 465.202759 514.220914 
L 465.202759 514.220914 
L 463.193754 515.66525 
L 461.170405 517.089424 
L 459.132917 518.493294 
L 457.081492 519.876719 
L 455.016335 521.23956 
L 452.937654 522.581683 
L 450.845655 523.902952 
L 448.740549 525.203235 
L 446.622545 526.482402 
L 444.491856 527.740326 
L 442.348694 528.976881 
L 440.193274 530.191942 
L 438.025811 531.385389 
L 435.846523 532.557101 
L 433.655626 533.706963 
L 431.453341 534.834858 
L 429.239887 535.940675 
L 427.015485 537.024302 
L 424.780359 538.085632 
L 422.534732 539.124557 
L 420.405536 540.084603 
L 420.405536 540.084603 
Q 319.765868 314.044206 268.321859 556.069241 
L 268.321859 556.069241 
L 268.321859 556.069241 
L 265.904221 555.542709 
L 263.491969 554.992026 
L 261.085345 554.41725 
L 258.684588 553.818436 
L 256.28994 553.195644 
L 253.901639 552.548938 
L 251.519925 551.878382 
L 249.145035 551.184042 
L 246.777207 550.465989 
L 244.416678 549.724293 
L 242.063684 548.95903 
L 239.71846 548.170275 
L 237.381241 547.358108 
L 235.05226 546.52261 
L 232.73175 545.663864 
L 230.419944 544.781957 
L 228.117072 543.876976 
L 225.823365 542.949012 
L 223.539052 541.998157 
L 221.264362 541.024507 
L 219.126199 540.084603 
L 219.126199 540.084603 
Q 319.765868 314.044206 465.202759 514.220914 
z
" clip-path="url(#p774ee84ec2)" style="fill: #0000e8; fill-opacity: 0.5; stroke: #808080; stroke-opacity: 0.5; stroke-width: 0.1"/>
    <path d="M 319.765868 66.612188 
L 319.765868 66.612188 
L 322.240147 66.62456 
L 324.714178 66.661673 
L 327.187715 66.723524 
L 329.660509 66.810107 
L 332.132315 66.921414 
L 334.602883 67.057432 
L 337.071968 67.218149 
L 339.539322 67.403548 
L 342.004699 67.613612 
L 344.467852 67.848318 
L 346.928534 68.107643 
L 349.386501 68.391562 
L 351.841505 68.700046 
L 354.293302 69.033064 
L 356.741647 69.390583 
L 359.186293 69.772567 
L 361.626998 70.178978 
L 364.063516 70.609776 
L 366.495605 71.064917 
L 368.923021 71.544355 
L 371.209877 72.019171 
L 371.209877 72.019171 
Q 319.765868 314.044206 73.689308 339.907895 
L 73.689308 339.907895 
L 73.689308 339.907895 
L 73.442979 337.445877 
L 73.221282 334.981519 
L 73.02424 332.515068 
L 72.851871 330.046769 
L 72.704194 327.57687 
L 72.581223 325.105618 
L 72.482969 322.63326 
L 72.409444 320.160042 
L 72.360655 317.686214 
L 72.336605 315.212021 
L 72.337299 312.737711 
L 72.362735 310.263532 
L 72.412911 307.789731 
L 72.487822 305.316555 
L 72.587461 302.844252 
L 72.711818 300.373069 
L 72.860879 297.903253 
L 73.034631 295.435052 
L 73.233056 292.968711 
L 73.456134 290.504478 
L 73.689308 288.180518 
L 73.689308 288.180518 
Q 319.765868 314.044206 319.765868 66.612188 
z
" clip-path="url(#p774ee84ec2)" style="fill: #000080; fill-opacity: 0.5; stroke: #808080; stroke-opacity: 0.5; stroke-width: 0.1"/>
    <path d="M 371.209877 72.019171 
L 371.209877 72.019171 
L 373.627515 72.545704 
L 376.039767 73.096386 
L 378.446391 73.671163 
L 380.847147 74.269977 
L 383.241796 74.892768 
L 385.630096 75.539475 
L 388.011811 76.210031 
L 390.386701 76.904371 
L 392.754528 77.622424 
L 395.115057 78.36412 
L 397.468052 79.129383 
L 399.813276 79.918137 
L 402.150495 80.730304 
L 404.479476 81.565803 
L 406.799986 82.424548 
L 409.111792 83.306456 
L 411.414664 84.211437 
L 413.708371 85.139401 
L 415.992683 86.090256 
L 418.267374 87.063905 
L 420.405536 88.00381 
L 420.405536 88.00381 
Q 319.765868 314.044206 135.888044 479.608543 
L 135.888044 479.608543 
L 135.888044 479.608543 
L 134.241622 477.761517 
L 132.613752 475.89812 
L 131.004597 474.018537 
L 129.414319 472.122957 
L 127.843075 470.21157 
L 126.291024 468.284565 
L 124.758319 466.342137 
L 123.245116 464.384479 
L 121.751564 462.411788 
L 120.277814 460.424259 
L 118.824012 458.422093 
L 117.390304 456.405489 
L 115.976834 454.374649 
L 114.583742 452.329776 
L 113.211168 450.271075 
L 111.85925 448.198751 
L 110.528122 446.113012 
L 109.217918 444.014066 
L 107.928768 441.902123 
L 106.660802 439.777395 
L 105.483454 437.760216 
L 105.483454 437.760216 
Q 319.765868 314.044206 371.209877 72.019171 
z
" clip-path="url(#p774ee84ec2)" style="fill: #000080; fill-opacity: 0.5; stroke: #808080; stroke-opacity: 0.5; stroke-width: 0.1"/>
    <path d="M 420.405536 88.00381 
L 420.405536 88.00381 
L 422.660871 89.021492 
L 424.905916 90.061676 
L 427.140447 91.124258 
L 429.36424 92.209132 
L 431.577074 93.316189 
L 433.778727 94.445318 
L 435.968979 95.596408 
L 438.14761 96.769342 
L 440.314404 97.964003 
L 442.469142 99.180272 
L 444.611611 100.418028 
L 446.741595 101.677146 
L 448.858881 102.9575 
L 450.963258 104.258963 
L 453.054516 105.581404 
L 455.132445 106.924691 
L 457.196837 108.288691 
L 459.247487 109.673265 
L 461.284188 111.078276 
L 463.306738 112.503584 
L 465.314933 113.949046 
L 467.308574 115.414517 
L 469.287461 116.899851 
L 471.251395 118.404899 
L 473.200182 119.929511 
L 475.133625 121.473534 
L 477.051531 123.036814 
L 478.953709 124.619195 
L 480.839968 126.220518 
L 482.71012 127.840623 
L 484.563978 129.479349 
L 486.401356 131.136531 
L 488.22207 132.812003 
L 490.025939 134.505599 
L 491.812783 136.217148 
L 493.582421 137.946479 
L 495.334678 139.693421 
L 497.069379 141.457797 
L 498.786349 143.239432 
L 500.485417 145.038147 
L 502.166414 146.853763 
L 503.643692 148.47987 
L 503.643692 148.47987 
Q 319.765868 314.044206 420.405536 540.084603 
L 420.405536 540.084603 
L 420.405536 540.084603 
L 418.140138 541.079681 
L 415.864902 542.052055 
L 413.580057 543.001629 
L 411.28583 543.928308 
L 408.982452 544.831998 
L 406.670151 545.71261 
L 404.349161 546.570055 
L 402.019712 547.404248 
L 399.682038 548.215104 
L 397.336372 549.002544 
L 394.982949 549.766489 
L 392.622005 550.506861 
L 390.253775 551.223587 
L 387.878496 551.916595 
L 385.496407 552.585817 
L 383.107744 553.231184 
L 380.712747 553.852633 
L 378.311655 554.450102 
L 375.904709 555.02353 
L 373.492149 555.57286 
L 371.074216 556.098037 
L 368.651153 556.59901 
L 366.223201 557.075727 
L 363.790604 557.528141 
L 361.353604 557.956207 
L 358.912445 558.359882 
L 356.467372 558.739125 
L 354.018628 559.093899 
L 351.566459 559.424169 
L 349.111111 559.729901 
L 346.652827 560.011064 
L 344.191856 560.267631 
L 341.728441 560.499576 
L 339.26283 560.706875 
L 336.79527 560.889508 
L 334.326007 561.047457 
L 331.855287 561.180706 
L 329.383359 561.289242 
L 326.910469 561.373053 
L 324.436864 561.432131 
L 321.962793 561.466471 
L 319.765868 561.476225 
L 319.765868 561.476225 
Q 319.765868 314.044206 420.405536 88.00381 
z
" clip-path="url(#p774ee84ec2)" style="fill: #000080; fill-opacity: 0.5; stroke: #808080; stroke-opacity: 0.5; stroke-width: 0.1"/>
   </g>
   <g id="patch_14">
    <path d="M 319.765868 66.612188 
L 322.240147 66.62456 
L 324.714178 66.661673 
L 327.187715 66.723524 
L 329.660509 66.810107 
L 332.132315 66.921414 
L 334.602883 67.057432 
L 337.071968 67.218149 
L 339.539322 67.403548 
L 342.004699 67.613612 
L 344.467852 67.848318 
L 346.928534 68.107643 
L 349.386501 68.391562 
L 351.841505 68.700046 
L 354.293302 69.033064 
L 356.741647 69.390583 
L 359.186293 69.772567 
L 361.626998 70.178978 
L 364.063516 70.609776 
L 366.495605 71.064917 
L 368.923021 71.544355 
L 371.345522 72.048043 
L 373.762864 72.575931 
L 376.174807 73.127965 
L 378.581108 73.704091 
L 380.981529 74.30425 
L 383.375828 74.928384 
L 385.763766 75.576428 
L 388.145104 76.24832 
L 390.519604 76.94399 
L 392.887029 77.663371 
L 395.247142 78.406389 
L 397.599707 79.172971 
L 399.944488 79.96304 
L 402.281252 80.776517 
L 404.609764 81.61332 
L 406.929792 82.473366 
L 409.241104 83.35657 
L 411.543468 84.262841 
L 413.836655 85.192091 
L 416.120434 86.144226 
L 418.394578 87.11915 
L 420.65886 88.116767 
L 422.913052 89.136976 
L 425.156929 90.179676 
L 427.390268 91.244762 
L 429.612844 92.332128 
L 431.824435 93.441665 
L 434.024821 94.573262 
L 436.213781 95.726806 
L 438.391096 96.902182 
L 440.556549 98.099271 
L 442.709923 99.317955 
L 444.851003 100.558112 
L 446.979574 101.819616 
L 449.095424 103.102343 
L 451.198341 104.406164 
L 453.288115 105.730949 
L 455.364537 107.076565 
L 457.427399 108.442877 
L 459.476495 109.829749 
L 461.51162 111.237043 
L 463.53257 112.664617 
L 465.539144 114.112329 
L 467.531141 115.580034 
L 469.508362 117.067585 
L 471.470608 118.574834 
L 473.417684 120.10163 
L 475.349395 121.647819 
L 477.265548 123.213248 
L 479.16595 124.79776 
L 481.050413 126.401197 
L 482.918748 128.023397 
L 484.770768 129.6642 
L 486.606287 131.32344 
L 488.425122 133.000953 
L 490.227091 134.696569 
L 492.012015 136.41012 
L 493.779714 138.141435 
L 495.530012 139.890339 
L 497.262733 141.656659 
L 498.977705 143.440218 
L 500.674756 145.240836 
L 502.353716 147.058335 
L 503.643692 148.47987 
L 505.501044 146.807503 
L 504.198038 145.371609 
L 502.502119 143.535752 
L 500.787926 141.716945 
L 499.055631 139.915371 
L 497.305407 138.131209 
L 495.53743 136.364639 
L 493.751875 134.615837 
L 491.948922 132.884977 
L 490.128751 131.172233 
L 488.291543 129.477776 
L 486.437484 127.801776 
L 484.566757 126.144399 
L 482.67955 124.505813 
L 480.776052 122.88618 
L 478.856453 121.285663 
L 476.920946 119.704421 
L 474.969722 118.142614 
L 473.002979 116.600396 
L 471.020912 115.077923 
L 469.02372 113.575346 
L 467.011602 112.092815 
L 464.984759 110.63048 
L 462.943395 109.188486 
L 460.887713 107.766977 
L 458.817919 106.366096 
L 456.73422 104.985982 
L 454.636824 103.626775 
L 452.525942 102.288608 
L 450.401783 100.971617 
L 448.264561 99.675934 
L 446.114489 98.401686 
L 443.951782 97.149003 
L 441.776657 95.918009 
L 439.589331 94.708828 
L 437.390023 93.52158 
L 435.178952 92.356384 
L 432.95634 91.213357 
L 430.722409 90.092613 
L 428.477383 88.994263 
L 426.221485 87.918418 
L 423.954943 86.865186 
L 421.677981 85.834672 
L 419.390828 84.826978 
L 417.093713 83.842206 
L 414.786865 82.880453 
L 412.470515 81.941817 
L 410.144894 81.026391 
L 407.810236 80.134267 
L 405.466773 79.265533 
L 403.114741 78.420277 
L 400.754373 77.598584 
L 398.385907 76.800534 
L 396.009579 76.026209 
L 393.625627 75.275686 
L 391.234288 74.549039 
L 388.835803 73.846341 
L 386.430411 73.167663 
L 384.018352 72.513072 
L 381.599869 71.882635 
L 379.175202 71.276413 
L 376.744594 70.694468 
L 374.308288 70.136857 
L 371.866528 69.603638 
L 369.419558 69.094862 
L 366.967623 68.61058 
L 364.510967 68.150842 
L 362.049838 67.715693 
L 359.584479 67.305177 
L 357.115139 66.919334 
L 354.642064 66.558204 
L 352.165502 66.221822 
L 349.685699 65.910222 
L 347.202905 65.623435 
L 344.717367 65.36149 
L 342.229333 65.124414 
L 339.739054 64.912229 
L 337.246777 64.724957 
L 334.752752 64.562616 
L 332.257228 64.425224 
L 329.760455 64.312793 
L 327.262683 64.225335 
L 324.764161 64.162859 
L 322.265139 64.125371 
L 319.765868 64.112875 
L 319.765868 66.612188 
z
" clip-path="url(#p774ee84ec2)" style="fill: none; stroke: #000000; stroke-width: 0.5; stroke-linejoin: miter"/>
   </g>
   <g id="patch_15">
    <path d="M 503.643692 148.47987 
L 505.290114 150.326896 
L 506.917983 152.190293 
L 508.527138 154.069876 
L 510.117417 155.965456 
L 511.68866 157.876843 
L 513.240712 159.803847 
L 514.773416 161.746276 
L 516.28662 163.703933 
L 517.780172 165.676625 
L 519.253922 167.664153 
L 520.707724 169.66632 
L 522.141432 171.682924 
L 523.554902 173.713764 
L 524.947994 175.758636 
L 526.320567 177.817338 
L 527.672486 179.889661 
L 529.003614 181.975401 
L 530.313818 184.074347 
L 531.602967 186.186289 
L 532.870933 188.311018 
L 534.117589 190.44832 
L 535.34281 192.597981 
L 536.546473 194.759787 
L 537.728459 196.933521 
L 538.888648 199.118966 
L 540.026925 201.315903 
L 541.143176 203.524114 
L 542.23729 205.743376 
L 543.309157 207.973468 
L 544.35867 210.214167 
L 545.385723 212.465249 
L 546.390215 214.726489 
L 547.372044 216.997661 
L 548.331113 219.278537 
L 549.267326 221.568889 
L 550.180589 223.868489 
L 551.07081 226.177107 
L 551.937902 228.494511 
L 552.781776 230.82047 
L 553.602349 233.154752 
L 554.399538 235.497122 
L 555.173264 237.847347 
L 555.92345 240.205191 
L 556.65002 242.57042 
L 557.352902 244.942795 
L 558.032025 247.322081 
L 558.687322 249.708039 
L 559.318727 252.100431 
L 559.926177 254.499016 
L 560.509611 256.903557 
L 561.068971 259.313811 
L 561.604201 261.729538 
L 562.115247 264.150497 
L 562.602058 266.576445 
L 563.064586 269.00714 
L 563.502784 271.442338 
L 563.916609 273.881797 
L 564.306019 276.325272 
L 564.670975 278.772519 
L 565.011441 281.223292 
L 565.327383 283.677348 
L 565.618768 286.134441 
L 565.885569 288.594324 
L 566.127757 291.056753 
L 566.34531 293.52148 
L 566.538205 295.988259 
L 566.706423 298.456844 
L 566.849947 300.926988 
L 566.968763 303.398444 
L 567.062859 305.870964 
L 567.132225 308.344301 
L 567.176855 310.818208 
L 567.196744 313.292438 
L 567.19189 315.766743 
L 567.162294 318.240876 
L 567.107958 320.71459 
L 567.028888 323.187636 
L 566.925093 325.659768 
L 566.796581 328.130738 
L 566.643367 330.600299 
L 566.465465 333.068205 
L 566.262893 335.534209 
L 566.035672 337.998064 
L 565.783824 340.459523 
L 565.507374 342.918341 
L 565.206351 345.374271 
L 564.880783 347.827069 
L 564.530705 350.276488 
L 564.15615 352.722284 
L 563.757156 355.164212 
L 563.333763 357.602028 
L 562.886014 360.035489 
L 562.413953 362.46435 
L 561.917628 364.88837 
L 561.397087 367.307305 
L 560.852383 369.720914 
L 560.283571 372.128955 
L 559.690708 374.531187 
L 559.073852 376.927372 
L 558.433065 379.317267 
L 557.768412 381.700636 
L 557.079959 384.077239 
L 556.367775 386.446839 
L 555.631931 388.809198 
L 554.8725 391.164081 
L 554.089559 393.511252 
L 553.283186 395.850477 
L 552.453461 398.181521 
L 551.600467 400.504151 
L 550.724291 402.818136 
L 549.825018 405.123243 
L 548.90274 407.419242 
L 547.957549 409.705904 
L 546.989538 411.983 
L 545.998806 414.250302 
L 544.98545 416.507583 
L 543.949572 418.754618 
L 542.891277 420.991182 
L 541.810668 423.217052 
L 540.707856 425.432004 
L 539.58295 427.635818 
L 538.436062 429.828273 
L 537.267307 432.009149 
L 536.076802 434.178229 
L 534.864666 436.335296 
L 533.631021 438.480133 
L 532.375989 440.612527 
L 531.099697 442.732265 
L 529.802271 444.839133 
L 528.483842 446.932923 
L 527.144541 449.013423 
L 525.784503 451.080427 
L 524.403862 453.133727 
L 523.002759 455.173119 
L 521.581331 457.198397 
L 520.139722 459.209361 
L 518.678076 461.205808 
L 517.196539 463.187539 
L 515.69526 465.154355 
L 514.174387 467.106061 
L 512.634073 469.042461 
L 511.074473 470.963361 
L 509.495743 472.868569 
L 507.898039 474.757895 
L 506.281522 476.63115 
L 504.646354 478.488146 
L 502.992698 480.328698 
L 501.32072 482.152622 
L 499.630586 483.959735 
L 497.922466 485.749856 
L 496.19653 487.522807 
L 494.452952 489.278411 
L 492.691905 491.016491 
L 490.913565 492.736874 
L 489.118111 494.439388 
L 487.305722 496.123862 
L 485.476579 497.790129 
L 483.630864 499.438021 
L 481.768764 501.067374 
L 479.890463 502.678025 
L 477.996151 504.269813 
L 476.086015 505.842578 
L 474.160247 507.396164 
L 472.21904 508.930414 
L 470.262588 510.445176 
L 468.291086 511.940298 
L 466.304732 513.415631 
L 464.303724 514.871027 
L 462.288263 516.30634 
L 460.258549 517.721427 
L 458.214786 519.116147 
L 456.157178 520.490359 
L 454.085932 521.843927 
L 452.001253 523.176716 
L 449.903351 524.488591 
L 447.792436 525.779422 
L 445.668718 527.04908 
L 443.532409 528.297437 
L 441.383724 529.524369 
L 439.222878 530.729754 
L 437.050086 531.91347 
L 434.865565 533.075399 
L 432.669535 534.215425 
L 430.462214 535.333435 
L 428.243824 536.429315 
L 426.014586 537.502958 
L 423.774723 538.554254 
L 421.52446 539.5831 
L 419.264021 540.589392 
L 416.993632 541.57303 
L 414.71352 542.533915 
L 412.423914 543.471951 
L 410.125042 544.387045 
L 407.817134 545.279105 
L 405.500421 546.148041 
L 403.175134 546.993767 
L 400.841507 547.816199 
L 398.499773 548.615253 
L 396.150164 549.390851 
L 393.792918 550.142914 
L 391.428269 550.871367 
L 389.056454 551.576138 
L 386.67771 552.257155 
L 384.292274 552.914352 
L 381.900386 553.547662 
L 379.502285 554.157022 
L 377.09821 554.742371 
L 374.688402 555.30365 
L 372.273102 555.840803 
L 369.852551 556.353777 
L 367.426991 556.84252 
L 364.996665 557.306983 
L 362.561817 557.747121 
L 360.122688 558.162888 
L 357.679524 558.554244 
L 355.232569 558.921149 
L 352.782067 559.263566 
L 350.328264 559.581461 
L 347.871404 559.874804 
L 345.411734 560.143563 
L 342.949499 560.387712 
L 340.484945 560.607228 
L 338.01832 560.802087 
L 335.54987 560.972271 
L 333.079841 561.117762 
L 330.608481 561.238546 
L 328.136037 561.33461 
L 325.662756 561.405946 
L 323.188885 561.452546 
L 320.714671 561.474406 
L 319.765868 561.476225 
L 319.765868 563.975538 
L 320.724255 563.9737 
L 323.223461 563.95162 
L 325.72232 563.90455 
L 328.220584 563.832493 
L 330.718003 563.735458 
L 333.214326 563.613454 
L 335.709305 563.466494 
L 338.202689 563.294591 
L 340.694229 563.097763 
L 343.183677 562.876031 
L 345.670783 562.629415 
L 348.155298 562.357941 
L 350.636975 562.061636 
L 353.115564 561.740529 
L 355.590818 561.394653 
L 358.06249 561.024042 
L 360.530333 560.628733 
L 362.994099 560.208766 
L 365.453542 559.764183 
L 367.908416 559.295028 
L 370.358477 558.801348 
L 372.803478 558.283193 
L 375.243175 557.740614 
L 377.677325 557.173665 
L 380.105683 556.582404 
L 382.528008 555.966889 
L 384.944056 555.327182 
L 387.353587 554.663347 
L 389.756359 553.97545 
L 392.152132 553.26356 
L 394.540666 552.527749 
L 396.921723 551.768089 
L 399.295064 550.984658 
L 401.660453 550.177532 
L 404.017652 549.346793 
L 406.366426 548.492524 
L 408.70654 547.614811 
L 411.037761 546.71374 
L 413.359854 545.789403 
L 415.672587 544.841892 
L 417.97573 543.871301 
L 420.269053 542.877727 
L 422.552325 541.861271 
L 424.825318 540.822033 
L 427.087805 539.760117 
L 429.339561 538.67563 
L 431.580359 537.568679 
L 433.809976 536.439377 
L 436.028188 535.287835 
L 438.234775 534.114169 
L 440.429514 532.918497 
L 442.612188 531.700937 
L 444.782576 530.461611 
L 446.940464 529.200644 
L 449.085633 527.918162 
L 451.217871 526.614292 
L 453.336964 525.289165 
L 455.4427 523.942915 
L 457.534868 522.575674 
L 459.61326 521.18758 
L 461.677667 519.778773 
L 463.727883 518.349392 
L 465.763702 516.89958 
L 467.784923 515.429484 
L 469.791341 513.939249 
L 471.782757 512.429024 
L 473.758971 510.898962 
L 475.719786 509.349214 
L 477.665006 507.779935 
L 479.594436 506.191283 
L 481.507884 504.583417 
L 483.405157 502.956497 
L 485.286066 501.310686 
L 487.150424 499.646148 
L 488.998043 497.963051 
L 490.82874 496.261561 
L 492.64233 494.54185 
L 494.438632 492.80409 
L 496.217468 491.048453 
L 497.978658 489.275116 
L 499.722028 487.484257 
L 501.447402 485.676053 
L 503.154607 483.850687 
L 504.843475 482.008339 
L 506.513834 480.149196 
L 508.165519 478.273442 
L 509.798364 476.381266 
L 511.412206 474.472856 
L 513.006884 472.548403 
L 514.582237 470.6081 
L 516.138109 468.652141 
L 517.674344 466.680721 
L 519.190789 464.694037 
L 520.687291 462.692289 
L 522.163701 460.675676 
L 523.619871 458.644399 
L 525.055656 456.598663 
L 526.470913 454.538672 
L 527.865499 452.464631 
L 529.239275 450.376749 
L 530.592104 448.275233 
L 531.923851 446.160294 
L 533.234382 444.032144 
L 534.523566 441.890995 
L 535.791275 439.737062 
L 537.037382 437.570559 
L 538.261761 435.391704 
L 539.464291 433.200714 
L 540.644851 430.997809 
L 541.803324 428.783208 
L 542.939593 426.557134 
L 544.053545 424.319808 
L 545.145069 422.071455 
L 546.214054 419.812299 
L 547.260395 417.542567 
L 548.283987 415.262484 
L 549.284727 412.97228 
L 550.262515 410.672184 
L 551.217254 408.362424 
L 552.148848 406.043233 
L 553.057204 403.714842 
L 553.942231 401.377484 
L 554.803841 399.031393 
L 555.641946 396.676803 
L 556.456465 394.31395 
L 557.247315 391.94307 
L 558.014416 389.5644 
L 558.757693 387.178178 
L 559.477071 384.784643 
L 560.172478 382.384034 
L 560.843845 379.976591 
L 561.491104 377.562555 
L 562.114191 375.142167 
L 562.713043 372.715669 
L 563.287601 370.283305 
L 563.837806 367.845316 
L 564.363605 365.401947 
L 564.864944 362.953443 
L 565.341773 360.500047 
L 565.794045 358.042006 
L 566.221715 355.579566 
L 566.624739 353.112972 
L 567.003077 350.642471 
L 567.356692 348.16831 
L 567.685548 345.690737 
L 567.989612 343.209999 
L 568.268854 340.726345 
L 568.523246 338.240022 
L 568.752762 335.75128 
L 568.95738 333.260367 
L 569.137079 330.767533 
L 569.291841 328.273026 
L 569.42165 325.777096 
L 569.526495 323.279994 
L 569.606363 320.781967 
L 569.661248 318.283267 
L 569.691143 315.784143 
L 569.696046 313.284845 
L 569.675956 310.785623 
L 569.630875 308.286726 
L 569.560808 305.788406 
L 569.465762 303.290911 
L 569.345746 300.794491 
L 569.200772 298.299396 
L 569.030855 295.805876 
L 568.836012 293.31418 
L 568.616261 290.824556 
L 568.371626 288.337255 
L 568.102131 285.852524 
L 567.807802 283.370612 
L 567.488669 280.891768 
L 567.144764 278.416239 
L 566.776122 275.944272 
L 566.382778 273.476116 
L 565.964773 271.012016 
L 565.522149 268.55222 
L 565.054949 266.096973 
L 564.56322 263.64652 
L 564.047012 261.201107 
L 563.506376 258.760979 
L 562.941366 256.326378 
L 562.352039 253.89755 
L 561.738453 251.474736 
L 561.10067 249.058179 
L 560.438754 246.64812 
L 559.752771 244.244801 
L 559.042789 241.848462 
L 558.30888 239.459343 
L 557.551117 237.077681 
L 556.769575 234.703717 
L 555.964333 232.337686 
L 555.135472 229.979826 
L 554.283074 227.630373 
L 553.407224 225.28956 
L 552.50801 222.957623 
L 551.585523 220.634795 
L 550.639853 218.321308 
L 549.671097 216.017392 
L 548.67935 213.72328 
L 547.664712 211.439199 
L 546.627284 209.165379 
L 545.56717 206.902046 
L 544.484476 204.649428 
L 543.379311 202.407749 
L 542.251784 200.177234 
L 541.102009 197.958105 
L 539.930101 195.750585 
L 538.736176 193.554894 
L 537.520355 191.371251 
L 536.282758 189.199876 
L 535.02351 187.040986 
L 533.742736 184.894795 
L 532.440565 182.76152 
L 531.117126 180.641372 
L 529.772553 178.534565 
L 528.406978 176.441309 
L 527.02054 174.361812 
L 525.613377 172.296284 
L 524.185629 170.244931 
L 522.73744 168.207957 
L 521.268953 166.185567 
L 519.780316 164.177963 
L 518.271678 162.185345 
L 516.743189 160.207913 
L 515.195003 158.245864 
L 513.627274 156.299395 
L 512.04016 154.3687 
L 510.433818 152.453973 
L 508.808409 150.555405 
L 507.164096 148.673185 
L 505.501044 146.807503 
L 503.643692 148.47987 
z
" clip-path="url(#p774ee84ec2)" style="fill: none; stroke: #000000; stroke-width: 0.5; stroke-linejoin: miter"/>
   </g>
   <g id="patch_16">
    <path d="M 319.765868 561.476225 
L 317.291589 561.463853 
L 314.817557 561.42674 
L 312.344021 561.364889 
L 309.871226 561.278305 
L 307.399421 561.166999 
L 304.928853 561.030981 
L 302.459768 560.870264 
L 299.992414 560.684864 
L 297.527037 560.474801 
L 295.063884 560.240095 
L 292.603201 559.98077 
L 290.145235 559.696851 
L 287.69023 559.388367 
L 285.238433 559.055349 
L 282.790089 558.69783 
L 280.345442 558.315846 
L 277.904738 557.909434 
L 275.468219 557.478637 
L 273.03613 557.023496 
L 270.608714 556.544058 
L 268.186214 556.04037 
L 265.768872 555.512482 
L 263.356929 554.960448 
L 260.950627 554.384322 
L 258.550207 553.784162 
L 256.155908 553.160029 
L 253.76797 552.511984 
L 251.386632 551.840093 
L 249.012132 551.144423 
L 246.644707 550.425042 
L 244.284594 549.682024 
L 241.932029 548.915442 
L 239.587247 548.125373 
L 237.250484 547.311896 
L 234.921971 546.475093 
L 232.601943 545.615046 
L 230.290632 544.731843 
L 227.988267 543.825571 
L 225.695081 542.896322 
L 223.411301 541.944187 
L 221.137157 540.969263 
L 219.126199 540.084603 
L 218.109637 542.367839 
L 220.140908 543.261435 
L 222.438023 544.246207 
L 224.744871 545.207959 
L 227.061221 546.146595 
L 229.386841 547.062021 
L 231.7215 547.954146 
L 234.064962 548.822879 
L 236.416995 549.668135 
L 238.777362 550.489829 
L 241.145828 551.287878 
L 243.522157 552.062204 
L 245.906109 552.812727 
L 248.297447 553.539374 
L 250.695933 554.242072 
L 253.101325 554.92075 
L 255.513383 555.57534 
L 257.931867 556.205778 
L 260.356534 556.812 
L 262.787142 557.393945 
L 265.223447 557.951555 
L 267.665207 558.484775 
L 270.112177 558.993551 
L 272.564113 559.477833 
L 275.020768 559.937571 
L 277.481898 560.37272 
L 279.947256 560.783236 
L 282.416596 561.169079 
L 284.889671 561.530209 
L 287.366234 561.866591 
L 289.846036 562.178191 
L 292.328831 562.464978 
L 294.814369 562.726922 
L 297.302402 562.963999 
L 299.792682 563.176184 
L 302.284959 563.363456 
L 304.778984 563.525797 
L 307.274507 563.663189 
L 309.77128 563.77562 
L 312.269052 563.863077 
L 314.767574 563.925553 
L 317.266596 563.963042 
L 319.765868 563.975538 
L 319.765868 561.476225 
z
" clip-path="url(#p774ee84ec2)" style="fill: none; stroke: #000000; stroke-width: 0.5; stroke-linejoin: miter"/>
   </g>
   <g id="patch_17">
    <path d="M 219.126199 540.084603 
L 216.870865 539.066921 
L 214.62582 538.026737 
L 212.391289 536.964155 
L 210.167495 535.879281 
L 207.954661 534.772224 
L 205.753009 533.643094 
L 203.562757 532.492005 
L 201.384125 531.319071 
L 199.217332 530.12441 
L 197.062593 528.90814 
L 194.920125 527.670385 
L 192.790141 526.411267 
L 190.672855 525.130913 
L 188.568477 523.82945 
L 186.47722 522.507009 
L 184.399291 521.163721 
L 182.334898 519.799722 
L 180.284249 518.415148 
L 178.247548 517.010136 
L 176.224998 515.584829 
L 174.216802 514.139367 
L 172.223161 512.673896 
L 170.244275 511.188562 
L 168.28034 509.683514 
L 166.331554 508.158902 
L 164.398111 506.614879 
L 162.480205 505.051598 
L 160.578027 503.469218 
L 158.691767 501.867895 
L 156.821616 500.247789 
L 154.967758 498.609064 
L 153.13038 496.951882 
L 151.309665 495.27641 
L 149.505796 493.582814 
L 147.718953 491.871265 
L 145.949314 490.141933 
L 144.197057 488.394992 
L 142.462357 486.630616 
L 140.745387 484.848981 
L 139.046318 483.050266 
L 137.365322 481.23465 
L 135.888044 479.608543 
L 134.030692 481.28091 
L 135.522892 482.923442 
L 137.220868 484.757398 
L 138.937099 486.574282 
L 140.671412 488.373913 
L 142.423635 490.156111 
L 144.193592 491.920698 
L 145.981105 493.667498 
L 147.785998 495.396336 
L 149.608088 497.107038 
L 151.447193 498.799434 
L 153.303131 500.473355 
L 155.175714 502.128634 
L 157.064756 503.765104 
L 158.970069 505.382602 
L 160.891461 506.980966 
L 162.82874 508.560037 
L 164.781712 510.119656 
L 166.750183 511.659668 
L 168.733956 513.179919 
L 170.732831 514.680256 
L 172.74661 516.16053 
L 174.77509 517.620592 
L 176.81807 519.060297 
L 178.875344 520.479501 
L 180.946707 521.878061 
L 183.031952 523.255838 
L 185.13087 524.612694 
L 187.243251 525.948493 
L 189.368885 527.263102 
L 191.507558 528.556389 
L 193.659057 529.828225 
L 195.823166 531.078483 
L 197.99967 532.307038 
L 200.18835 533.513766 
L 202.388988 534.698548 
L 204.601364 535.861265 
L 206.825255 537.0018 
L 209.060441 538.12004 
L 211.306697 539.215872 
L 213.563799 540.289187 
L 215.831521 541.339878 
L 218.109637 542.367839 
L 219.126199 540.084603 
z
" clip-path="url(#p774ee84ec2)" style="fill: none; stroke: #000000; stroke-width: 0.5; stroke-linejoin: miter"/>
   </g>
   <g id="patch_18">
    <path d="M 135.888044 479.608543 
L 134.241622 477.761517 
L 132.613752 475.89812 
L 131.004597 474.018537 
L 129.414319 472.122957 
L 127.843075 470.21157 
L 126.291024 468.284565 
L 124.758319 466.342137 
L 123.245116 464.384479 
L 121.751564 462.411788 
L 120.277814 460.424259 
L 118.824012 458.422093 
L 117.390304 456.405489 
L 115.976834 454.374649 
L 114.583742 452.329776 
L 113.211168 450.271075 
L 111.85925 448.198751 
L 110.528122 446.113012 
L 109.217918 444.014066 
L 107.928768 441.902123 
L 106.660802 439.777395 
L 105.483454 437.760216 
L 103.318985 439.009872 
L 104.508226 441.047427 
L 105.789 443.193617 
L 107.091171 445.326893 
L 108.414609 447.44704 
L 109.759183 449.553848 
L 111.124757 451.647104 
L 112.511195 453.7266 
L 113.918358 455.792129 
L 115.346106 457.843482 
L 116.794296 459.880456 
L 118.262783 461.902846 
L 119.75142 463.91045 
L 121.260058 465.903068 
L 122.788546 467.8805 
L 124.336732 469.842549 
L 125.904461 471.789018 
L 127.491576 473.719712 
L 129.097918 475.634439 
L 130.723327 477.533008 
L 132.367639 479.415227 
L 134.030692 481.28091 
L 135.888044 479.608543 
z
" clip-path="url(#p774ee84ec2)" style="fill: none; stroke: #000000; stroke-width: 0.5; stroke-linejoin: miter"/>
   </g>
   <g id="patch_19">
    <path d="M 105.483454 437.760216 
L 104.257029 435.611241 
L 103.052154 433.450111 
L 101.868951 431.277039 
L 100.707536 429.092245 
L 99.568028 426.895946 
L 98.450539 424.688361 
L 97.355182 422.469713 
L 96.282065 420.240222 
L 95.231297 418.000111 
L 94.202982 415.749605 
L 93.197223 413.488929 
L 92.214121 411.218308 
L 91.253773 408.93797 
L 90.316277 406.648142 
L 89.401725 404.349054 
L 88.51021 402.040936 
L 87.64182 399.724018 
L 86.796642 397.398533 
L 85.974761 395.064711 
L 85.176259 392.722788 
L 84.444034 390.504905 
L 82.067046 391.277235 
L 82.806667 393.517522 
L 83.613235 395.8831 
L 84.443418 398.240495 
L 85.297133 400.589471 
L 86.174294 402.929792 
L 87.074815 405.261225 
L 87.998604 407.583536 
L 88.94557 409.896493 
L 89.915618 412.199865 
L 90.908651 414.493421 
L 91.924569 416.776933 
L 92.963271 419.050171 
L 94.024653 421.312909 
L 95.108609 423.56492 
L 96.215031 425.805979 
L 97.343807 428.035862 
L 98.494826 430.254346 
L 99.667972 432.461209 
L 100.863127 434.656231 
L 102.080172 436.839191 
L 103.318985 439.009872 
L 105.483454 437.760216 
z
" clip-path="url(#p774ee84ec2)" style="fill: none; stroke: #000000; stroke-width: 0.5; stroke-linejoin: miter"/>
   </g>
   <g id="patch_20">
    <path d="M 84.444034 390.504905 
L 83.691206 388.147903 
L 82.961985 385.78349 
L 82.256444 383.411904 
L 81.574654 381.033381 
L 80.916683 378.648159 
L 80.282597 376.256477 
L 79.672459 373.858574 
L 79.086329 371.454689 
L 78.524268 369.045063 
L 77.986331 366.629937 
L 77.472571 364.209553 
L 76.98304 361.784152 
L 76.517788 359.353977 
L 76.07686 356.919272 
L 75.660301 354.480278 
L 75.268152 352.037242 
L 74.900453 349.590406 
L 74.55724 347.140015 
L 74.238548 344.686315 
L 73.944408 342.22955 
L 73.67485 339.769968 
L 73.429901 337.307812 
L 73.209586 334.84333 
L 73.013926 332.376769 
L 72.842941 329.908374 
L 72.696648 327.438392 
L 72.575062 324.967072 
L 72.478194 322.494659 
L 72.406055 320.021401 
L 72.358652 317.547545 
L 72.33599 315.073339 
L 72.33807 312.59903 
L 72.364893 310.124865 
L 72.416455 307.651093 
L 72.492753 305.17796 
L 72.593777 302.705713 
L 72.719519 300.2346 
L 72.869965 297.764868 
L 73.0451 295.296764 
L 73.244908 292.830535 
L 73.469367 290.366427 
L 73.689308 288.180518 
L 71.203686 287.919268 
L 70.981523 290.127258 
L 70.754797 292.616256 
L 70.552971 295.107396 
L 70.376067 297.600431 
L 70.224101 300.095109 
L 70.09709 302.591183 
L 69.995045 305.088402 
L 69.917977 307.586516 
L 69.865893 310.085276 
L 69.838799 312.584432 
L 69.836698 315.083734 
L 69.859589 317.582932 
L 69.907471 320.081776 
L 69.980339 322.580017 
L 70.078185 325.077404 
L 70.200999 327.573687 
L 70.34877 330.068618 
L 70.521482 332.561946 
L 70.719118 335.053423 
L 70.941659 337.542798 
L 71.189082 340.029824 
L 71.461363 342.514251 
L 71.758474 344.995831 
L 72.080385 347.474316 
L 72.427065 349.949458 
L 72.798478 352.42101 
L 73.194588 354.888724 
L 73.615355 357.352353 
L 74.060737 359.811652 
L 74.530689 362.266374 
L 75.025164 364.716274 
L 75.544113 367.161106 
L 76.087484 369.600627 
L 76.655223 372.034593 
L 77.247273 374.462759 
L 77.863574 376.884884 
L 78.504065 379.300724 
L 79.168683 381.710039 
L 79.857359 384.112588 
L 80.570027 386.50813 
L 81.306614 388.896425 
L 82.067046 391.277235 
L 84.444034 390.504905 
z
" clip-path="url(#p774ee84ec2)" style="fill: none; stroke: #000000; stroke-width: 0.5; stroke-linejoin: miter"/>
   </g>
   <g id="patch_21">
    <path d="M 73.689308 288.180518 
L 73.960244 285.721086 
L 74.255761 283.264487 
L 74.575828 280.810966 
L 74.920415 278.360768 
L 75.289485 275.914139 
L 75.683003 273.471322 
L 76.100929 271.032563 
L 76.543222 268.598104 
L 77.009836 266.168191 
L 77.500726 263.743065 
L 78.015842 261.322969 
L 78.555133 258.908145 
L 79.118545 256.498834 
L 79.706022 254.095279 
L 80.317504 251.697718 
L 80.952931 249.306391 
L 81.612239 246.921538 
L 82.295362 244.543398 
L 83.002232 242.172207 
L 83.732778 239.808204 
L 84.486927 237.451624 
L 85.264604 235.102704 
L 86.065731 232.761677 
L 86.890227 230.428779 
L 87.738011 228.104242 
L 88.608998 225.788299 
L 89.5031 223.481182 
L 90.420228 221.18312 
L 91.360291 218.894345 
L 92.323194 216.615085 
L 93.308841 214.345568 
L 94.317133 212.08602 
L 95.34797 209.836668 
L 96.401249 207.597737 
L 97.476864 205.36945 
L 98.574708 203.152031 
L 99.694671 200.945701 
L 100.836641 198.75068 
L 102.000503 196.567189 
L 103.186142 194.395446 
L 104.393438 192.235667 
L 105.622272 190.088069 
L 106.87252 187.952866 
L 108.144057 185.830273 
L 109.436756 183.720501 
L 110.750487 181.623761 
L 112.08512 179.540263 
L 113.440521 177.470215 
L 114.816555 175.413825 
L 116.213083 173.371297 
L 117.629966 171.342837 
L 119.067063 169.328646 
L 120.524229 167.328928 
L 122.001319 165.34388 
L 123.498186 163.373702 
L 125.014679 161.418592 
L 126.550647 159.478744 
L 128.105937 157.554352 
L 129.680392 155.645609 
L 131.273856 153.752706 
L 132.886169 151.875831 
L 134.51717 150.015174 
L 135.888044 148.47987 
L 134.030692 146.807503 
L 132.645971 148.358315 
L 130.998495 150.237767 
L 129.369896 152.1336 
L 127.760337 154.045623 
L 126.169978 155.973646 
L 124.598979 157.917476 
L 123.047496 159.876919 
L 121.515684 161.851778 
L 120.003698 163.841857 
L 118.511687 165.846955 
L 117.039802 167.866873 
L 115.588189 169.901409 
L 114.156994 171.950359 
L 112.74636 174.013518 
L 111.356427 176.09068 
L 109.987335 178.181637 
L 108.639221 180.28618 
L 107.312219 182.4041 
L 106.006463 184.535183 
L 104.722082 186.679216 
L 103.459205 188.835987 
L 102.217959 191.005278 
L 100.998468 193.186872 
L 99.800853 195.380553 
L 98.625234 197.586099 
L 97.47173 199.803292 
L 96.340454 202.031908 
L 95.231521 204.271725 
L 94.145041 206.52252 
L 93.081123 208.784067 
L 92.039873 211.056139 
L 91.021396 213.338511 
L 90.025793 215.630953 
L 89.053164 217.933236 
L 88.103606 220.24513 
L 87.177213 222.566404 
L 86.27408 224.896825 
L 85.394296 227.236162 
L 84.537948 229.584179 
L 83.705123 231.940642 
L 82.895904 234.305315 
L 82.110372 236.677962 
L 81.348605 239.058346 
L 80.61068 241.446228 
L 79.89667 243.84137 
L 79.206646 246.243532 
L 78.540679 248.652474 
L 77.898833 251.067955 
L 77.281175 253.489734 
L 76.687764 255.917568 
L 76.118661 258.351215 
L 75.573923 260.790431 
L 75.053604 263.234972 
L 74.557755 265.684595 
L 74.086427 268.139053 
L 73.639667 270.598102 
L 73.21752 273.061495 
L 72.820027 275.528986 
L 72.447228 278.000329 
L 72.099161 280.475277 
L 71.775861 282.953581 
L 71.477359 285.434994 
L 71.203686 287.919268 
L 73.689308 288.180518 
z
" clip-path="url(#p774ee84ec2)" style="fill: none; stroke: #000000; stroke-width: 0.5; stroke-linejoin: miter"/>
   </g>
   <g id="patch_22">
    <path d="M 135.888044 148.47987 
L 137.552853 146.649401 
L 139.235884 144.83567 
L 140.936968 143.038861 
L 142.655934 141.259152 
L 144.392611 139.496721 
L 146.146825 137.751745 
L 147.918402 136.024398 
L 149.707162 134.314853 
L 151.512929 132.623281 
L 153.33552 130.949851 
L 155.174755 129.29473 
L 157.030448 127.658083 
L 158.902415 126.040075 
L 160.790468 124.440868 
L 162.694419 122.86062 
L 164.614076 121.299491 
L 166.549249 119.757636 
L 168.499743 118.23521 
L 170.465363 116.732364 
L 172.445914 115.24925 
L 174.328976 113.867499 
L 172.859917 111.845512 
L 170.957834 113.24122 
L 168.957278 114.739315 
L 166.971802 116.257341 
L 165.001606 117.795146 
L 163.046886 119.352575 
L 161.107838 120.929473 
L 159.184656 122.525683 
L 157.277532 124.141044 
L 155.386656 125.775395 
L 153.512218 127.428573 
L 151.654406 129.100413 
L 149.813404 130.790746 
L 147.989398 132.499405 
L 146.182569 134.226219 
L 144.393098 135.971013 
L 142.621164 137.733615 
L 140.866945 139.513848 
L 139.130615 141.311534 
L 137.412349 143.126493 
L 135.712318 144.958544 
L 134.030692 146.807503 
L 135.888044 148.47987 
z
" clip-path="url(#p774ee84ec2)" style="fill: none; stroke: #000000; stroke-width: 0.5; stroke-linejoin: miter"/>
   </g>
   <g id="patch_23">
    <path d="M 174.328976 113.867499 
L 176.337982 112.423163 
L 178.36133 110.998989 
L 180.398819 109.595119 
L 182.450244 108.211694 
L 184.5154 106.848852 
L 186.594082 105.50673 
L 188.68608 104.185461 
L 190.791187 102.885178 
L 192.90919 101.60601 
L 195.03988 100.348087 
L 197.183042 99.111532 
L 199.338462 97.896471 
L 201.505924 96.703024 
L 203.685213 95.531312 
L 205.876109 94.38145 
L 208.078395 93.253554 
L 210.291849 92.147738 
L 212.51625 91.06411 
L 214.751376 90.002781 
L 216.997004 88.963856 
L 219.126199 88.00381 
L 218.109637 85.720574 
L 215.958935 86.690317 
L 213.690624 87.739736 
L 211.432921 88.811786 
L 209.186051 89.906359 
L 206.950238 91.023346 
L 204.725708 92.162634 
L 202.512681 93.324111 
L 200.311379 94.507659 
L 198.122023 95.713161 
L 195.944831 96.940495 
L 193.780021 98.18954 
L 191.62781 99.46017 
L 189.488412 100.752258 
L 187.362042 102.065676 
L 185.248912 103.400291 
L 183.149234 104.75597 
L 181.063217 106.132578 
L 178.991071 107.529977 
L 176.933001 108.948027 
L 174.889215 110.386587 
L 172.859917 111.845512 
L 174.328976 113.867499 
z
" clip-path="url(#p774ee84ec2)" style="fill: none; stroke: #000000; stroke-width: 0.5; stroke-linejoin: miter"/>
   </g>
   <g id="patch_24">
    <path d="M 219.126199 88.00381 
L 221.391598 87.008732 
L 223.666833 86.036357 
L 225.951678 85.086783 
L 228.245905 84.160105 
L 230.549284 83.256415 
L 232.861584 82.375803 
L 235.182575 81.518358 
L 237.512024 80.684165 
L 239.849698 79.873308 
L 242.195364 79.085869 
L 244.548786 78.321924 
L 246.909731 77.581552 
L 249.27796 76.864826 
L 251.653239 76.171817 
L 254.035329 75.502596 
L 256.423992 74.857228 
L 258.818989 74.235779 
L 261.22008 73.638311 
L 263.627027 73.064883 
L 266.039587 72.515553 
L 268.321859 72.019171 
L 267.802222 69.574474 
L 265.496897 70.07587 
L 263.059968 70.630749 
L 260.628709 71.209969 
L 258.203364 71.813472 
L 255.784175 72.441198 
L 253.371384 73.093085 
L 250.965233 73.769066 
L 248.565961 74.469074 
L 246.17381 75.19304 
L 243.789018 75.940891 
L 241.411823 76.712552 
L 239.042464 77.507946 
L 236.681177 78.326993 
L 234.328198 79.169612 
L 231.983763 80.035718 
L 229.648106 80.925225 
L 227.321461 81.838043 
L 225.00406 82.774082 
L 222.696136 83.733248 
L 220.397918 84.715444 
L 218.109637 85.720574 
L 219.126199 88.00381 
z
" clip-path="url(#p774ee84ec2)" style="fill: none; stroke: #000000; stroke-width: 0.5; stroke-linejoin: miter"/>
   </g>
   <g id="patch_25">
    <path d="M 268.321859 72.019171 
L 270.744641 71.516841 
L 273.172325 71.038763 
L 275.604669 70.584986 
L 278.041428 70.155554 
L 280.48236 69.750511 
L 282.927221 69.369897 
L 285.375765 69.01375 
L 287.827748 68.682106 
L 290.282925 68.374998 
L 292.74105 68.092457 
L 295.201878 67.834511 
L 297.665162 67.601186 
L 300.130656 67.392504 
L 302.598114 67.208488 
L 305.067289 67.049155 
L 307.537933 66.914521 
L 310.0098 66.8046 
L 312.482643 66.719403 
L 314.956213 66.658938 
L 317.430265 66.623212 
L 319.765868 66.612188 
L 319.765868 64.112875 
L 317.406673 64.12401 
L 314.907631 64.160097 
L 312.409075 64.221173 
L 309.911254 64.307231 
L 307.414418 64.418262 
L 304.918818 64.554255 
L 302.424702 64.715198 
L 299.932321 64.901073 
L 297.441923 65.111862 
L 294.953757 65.347544 
L 292.468072 65.608096 
L 289.985118 65.893491 
L 287.505141 66.203701 
L 285.02839 66.538695 
L 282.555113 66.898439 
L 280.085557 67.282898 
L 277.619969 67.692032 
L 275.158596 68.125802 
L 272.701683 68.584163 
L 270.249477 69.06707 
L 267.802222 69.574474 
L 268.321859 72.019171 
z
" clip-path="url(#p774ee84ec2)" style="fill: none; stroke: #000000; stroke-width: 0.5; stroke-linejoin: miter"/>
   </g>
   <g id="text_1">
    <text style="font: 3px 'DejaVu Sans', 'Bitstream Vera Sans', 'Computer Modern Sans Serif', 'Lucida Grande', 'Verdana', 'Geneva', 'Lucid', 'Arial', 'Helvetica', 'Avant Garde', sans-serif; text-anchor: start" x="423.479889" y="83.900922" transform="rotate(-66 423.479889 83.900922)">Polytechnical University of Kabul</text>
   </g>
   <g id="text_2">
    <text style="font: 3px 'DejaVu Sans', 'Bitstream Vera Sans', 'Computer Modern Sans Serif', 'Lucida Grande', 'Verdana', 'Geneva', 'Lucid', 'Arial', 'Helvetica', 'Avant Garde', sans-serif; text-anchor: start" x="549.909152" y="417.758227" transform="rotate(-336 549.909152 417.758227)">Kabul University</text>
   </g>
   <g id="text_3">
    <text style="font: 3px 'DejaVu Sans', 'Bitstream Vera Sans', 'Computer Modern Sans Serif', 'Lucida Grande', 'Verdana', 'Geneva', 'Lucid', 'Arial', 'Helvetica', 'Avant Garde', sans-serif; text-anchor: end" x="268.397445" y="561.195607" transform="rotate(-78 268.397445 561.195607)">Herat University</text>
   </g>
   <g id="text_4">
    <text style="font: 3px 'DejaVu Sans', 'Bitstream Vera Sans', 'Computer Modern Sans Serif', 'Lucida Grande', 'Verdana', 'Geneva', 'Lucid', 'Arial', 'Helvetica', 'Avant Garde', sans-serif; text-anchor: end" x="172.312947" y="518.934825" transform="rotate(-54 172.312947 518.934825)">Bakhtar University</text>
   </g>
   <g id="text_5">
    <text style="font: 3px 'DejaVu Sans', 'Bitstream Vera Sans', 'Computer Modern Sans Serif', 'Lucida Grande', 'Verdana', 'Geneva', 'Lucid', 'Arial', 'Helvetica', 'Avant Garde', sans-serif; text-anchor: end" x="116.215124" y="463.341306" transform="rotate(-36 116.215124 463.341306)">Dawat University</text>
   </g>
   <g id="text_6">
    <text style="font: 3px 'DejaVu Sans', 'Bitstream Vera Sans', 'Computer Modern Sans Serif', 'Lucida Grande', 'Verdana', 'Geneva', 'Lucid', 'Arial', 'Helvetica', 'Avant Garde', sans-serif; text-anchor: end" x="89.622583" y="417.758227" transform="rotate(-24 89.622583 417.758227)">Ministry of Public Health</text>
   </g>
   <g id="text_7">
    <text style="font: 3px 'DejaVu Sans', 'Bitstream Vera Sans', 'Computer Modern Sans Serif', 'Lucida Grande', 'Verdana', 'Geneva', 'Lucid', 'Arial', 'Helvetica', 'Avant Garde', sans-serif; text-anchor: end" x="68.837202" y="341.563916" transform="rotate(-6 68.837202 341.563916)">Nangarhar University</text>
   </g>
   <g id="text_8">
    <text style="font: 3px 'DejaVu Sans', 'Bitstream Vera Sans', 'Computer Modern Sans Serif', 'Lucida Grande', 'Verdana', 'Geneva', 'Lucid', 'Arial', 'Helvetica', 'Avant Garde', sans-serif; text-anchor: end" x="88.695414" y="212.412641" transform="rotate(-336 88.695414 212.412641)">Kabul Education University of Rabbani</text>
   </g>
   <g id="text_9">
    <text style="font: 3px 'DejaVu Sans', 'Bitstream Vera Sans', 'Computer Modern Sans Serif', 'Lucida Grande', 'Verdana', 'Geneva', 'Lucid', 'Arial', 'Helvetica', 'Avant Garde', sans-serif; text-anchor: end" x="150.009786" y="127.214331" transform="rotate(-312 150.009786 127.214331)">Khost University</text>
   </g>
   <g id="text_10">
    <text style="font: 3px 'DejaVu Sans', 'Bitstream Vera Sans', 'Computer Modern Sans Serif', 'Lucida Grande', 'Verdana', 'Geneva', 'Lucid', 'Arial', 'Helvetica', 'Avant Garde', sans-serif; text-anchor: end" x="192.563479" y="96.002738" transform="rotate(-300 192.563479 96.002738)">Balkh University</text>
   </g>
   <g id="text_11">
    <text style="font: 3px 'DejaVu Sans', 'Bitstream Vera Sans', 'Computer Modern Sans Serif', 'Lucida Grande', 'Verdana', 'Geneva', 'Lucid', 'Arial', 'Helvetica', 'Avant Garde', sans-serif; text-anchor: end" x="240.676527" y="74.320604" transform="rotate(-288 240.676527 74.320604)">Kabul Medical University</text>
   </g>
   <g id="text_12">
    <text style="font: 3px 'DejaVu Sans', 'Bitstream Vera Sans', 'Computer Modern Sans Serif', 'Lucida Grande', 'Verdana', 'Geneva', 'Lucid', 'Arial', 'Helvetica', 'Avant Garde', sans-serif; text-anchor: end" x="292.246159" y="63.115541" transform="rotate(-276 292.246159 63.115541)">Parwan University</text>
   </g>
  </g>
 </g>
 <defs>
  <clipPath id="p774ee84ec2">
   <path d="M 582.193766 314.044206 
C 582.193766 279.582491 575.405559 245.455871 562.217632 213.617398 
C 549.029704 181.778924 529.698527 152.847773 505.330414 128.47966 
C 480.962301 104.111547 452.031151 84.78037 420.192677 71.592443 
C 388.354203 58.404515 354.227584 51.616308 319.765868 51.616308 
C 285.304152 51.616308 251.177533 58.404515 219.339059 71.592443 
C 187.500585 84.78037 158.569434 104.111547 134.201321 128.47966 
C 109.833208 152.847773 90.502032 181.778924 77.314104 213.617398 
C 64.126176 245.455871 57.33797 279.582491 57.33797 314.044206 
C 57.33797 348.505922 64.126176 382.632541 77.314104 414.471015 
C 90.502032 446.309489 109.833208 475.24064 134.201321 499.608753 
C 158.569434 523.976866 187.500585 543.308043 219.339059 556.49597 
C 251.177533 569.683898 285.304152 576.472105 319.765868 576.472105 
C 354.227584 576.472105 388.354203 569.683898 420.192677 556.49597 
C 452.031151 543.308043 480.962301 523.976866 505.330414 499.608753 
C 529.698527 475.24064 549.029704 446.309489 562.217632 414.471015 
C 575.405559 382.632541 582.193766 348.505922 582.193766 314.044206 
M 319.765868 314.044206 
C 319.765868 314.044206 319.765868 314.044206 319.765868 314.044206 
C 319.765868 314.044206 319.765868 314.044206 319.765868 314.044206 
C 319.765868 314.044206 319.765868 314.044206 319.765868 314.044206 
C 319.765868 314.044206 319.765868 314.044206 319.765868 314.044206 
C 319.765868 314.044206 319.765868 314.044206 319.765868 314.044206 
C 319.765868 314.044206 319.765868 314.044206 319.765868 314.044206 
C 319.765868 314.044206 319.765868 314.044206 319.765868 314.044206 
C 319.765868 314.044206 319.765868 314.044206 319.765868 314.044206 
C 319.765868 314.044206 319.765868 314.044206 319.765868 314.044206 
C 319.765868 314.044206 319.765868 314.044206 319.765868 314.044206 
C 319.765868 314.044206 319.765868 314.044206 319.765868 314.044206 
C 319.765868 314.044206 319.765868 314.044206 319.765868 314.044206 
C 319.765868 314.044206 319.765868 314.044206 319.765868 314.044206 
C 319.765868 314.044206 319.765868 314.044206 319.765868 314.044206 
C 319.765868 314.044206 319.765868 314.044206 319.765868 314.044206 
C 319.765868 314.044206 319.765868 314.044206 319.765868 314.044206 
z
"/>
  </clipPath>
 </defs>
</svg>
