<?xml version="1.0" encoding="utf-8" standalone="no"?>
<!DOCTYPE svg PUBLIC "-//W3C//DTD SVG 1.1//EN"
  "http://www.w3.org/Graphics/SVG/1.1/DTD/svg11.dtd">
<svg xmlns:xlink="http://www.w3.org/1999/xlink" width="626.584325pt" height="586.281469pt" viewBox="0 0 626.584325 586.281469" xmlns="http://www.w3.org/2000/svg" version="1.1">
 <metadata>
  <rdf:RDF xmlns:dc="http://purl.org/dc/elements/1.1/" xmlns:cc="http://creativecommons.org/ns#" xmlns:rdf="http://www.w3.org/1999/02/22-rdf-syntax-ns#">
   <cc:Work>
    <dc:type rdf:resource="http://purl.org/dc/dcmitype/StillImage"/>
    <dc:date>2024-11-16T04:18:33.510694</dc:date>
    <dc:format>image/svg+xml</dc:format>
    <dc:creator>
     <cc:Agent>
      <dc:title>Matplotlib v3.8.4, https://matplotlib.org/</dc:title>
     </cc:Agent>
    </dc:creator>
   </cc:Work>
  </rdf:RDF>
 </metadata>
 <defs>
  <style type="text/css">*{stroke-linejoin: round; stroke-linecap: butt}</style>
 </defs>
 <g id="figure_1">
  <g id="patch_1">
   <path d="M 0 586.281469 
L 626.584325 586.281469 
L 626.584325 0 
L 0 0 
z
" style="fill: #ffffff"/>
  </g>
  <g id="axes_1">
   <g id="patch_2">
    <path d="M 316.537084 50.693756 
L 318.961514 50.705878 
L 321.385701 50.742244 
L 323.809403 50.802849 
L 326.232378 50.887688 
L 328.654383 50.996752 
L 331.075177 51.13003 
L 333.494516 51.287509 
L 335.91216 51.469173 
L 338.327867 51.675004 
L 340.741395 51.904981 
L 343.152502 52.159082 
L 345.560947 52.437281 
L 347.966491 52.73955 
L 350.368891 53.065858 
L 352.767908 53.416174 
L 355.163302 53.790463 
L 357.554834 54.188686 
L 359.942263 54.610804 
L 362.325353 55.056775 
L 364.703863 55.526554 
L 367.077557 56.020095 
L 369.446197 56.537347 
L 371.809546 57.078259 
L 374.167368 57.642778 
L 376.519427 58.230846 
L 378.865487 58.842404 
L 381.205315 59.477393 
L 383.538676 60.135748 
L 385.865337 60.817402 
L 388.185065 61.522289 
L 390.497629 62.250338 
L 392.802796 63.001476 
L 395.100337 63.775627 
L 397.390022 64.572715 
L 399.671622 65.392659 
L 401.944908 66.235378 
L 404.209653 67.100787 
L 406.465631 67.9888 
L 408.712617 68.899328 
L 410.950385 69.83228 
L 413.178711 70.787562 
L 415.397374 71.76508 
L 417.606151 72.764735 
L 419.804821 73.786428 
L 421.993164 74.830055 
L 424.170961 75.895514 
L 426.337996 76.982697 
L 428.49405 78.091496 
L 430.638909 79.221799 
L 432.772357 80.373494 
L 434.894183 81.546466 
L 437.004172 82.740597 
L 439.102115 83.955767 
L 441.187802 85.191856 
L 443.261024 86.44874 
L 445.321573 87.726293 
L 447.369244 89.024387 
L 449.403832 90.342893 
L 451.425133 91.681678 
L 453.432946 93.040609 
L 455.427069 94.419549 
L 457.407303 95.818362 
L 459.373451 97.236907 
L 461.325314 98.675042 
L 463.2627 100.132623 
L 465.185412 101.609505 
L 467.09326 103.10554 
L 468.986053 104.620578 
L 470.863601 106.154469 
L 472.725716 107.707057 
L 474.572212 109.278189 
L 476.402906 110.867707 
L 478.217612 112.475452 
L 480.016151 114.101264 
L 481.798342 115.744979 
L 483.564007 117.406434 
L 485.312969 119.085462 
L 487.045054 120.781895 
L 488.760089 122.495565 
L 490.457901 124.226298 
L 492.138321 125.973923 
L 493.801181 127.738264 
L 495.446315 129.519146 
L 497.073559 131.316389 
L 498.682748 133.129815 
L 500.273724 134.959242 
L 501.846325 136.804487 
L 503.400396 138.665365 
L 504.935781 140.541691 
L 506.452326 142.433276 
L 507.94988 144.339932 
L 509.428293 146.261468 
L 510.887417 148.197692 
L 512.327105 150.14841 
L 513.747215 152.113427 
L 515.147605 154.092547 
L 516.528133 156.085571 
L 517.888662 158.092301 
L 519.229057 160.112536 
L 520.549182 162.146073 
L 521.848906 164.19271 
L 523.128099 166.252241 
L 524.386634 168.324461 
L 525.624383 170.409163 
L 526.841224 172.506137 
L 528.037035 174.615175 
L 529.211696 176.736066 
L 530.365089 178.868597 
L 531.497101 181.012555 
L 532.607616 183.167725 
L 533.696524 185.333893 
L 534.763717 187.510842 
L 535.809087 189.698353 
L 536.83253 191.896209 
L 537.833943 194.104189 
L 538.813228 196.322072 
L 539.770284 198.549638 
L 540.705018 200.786662 
L 541.617335 203.032921 
L 542.507144 205.288192 
L 543.374357 207.552247 
L 544.218885 209.824862 
L 545.040646 212.105807 
L 545.839557 214.394857 
L 546.615538 216.69178 
L 547.368511 218.996349 
L 548.098401 221.308332 
L 548.805135 223.627498 
L 549.488642 225.953616 
L 550.148855 228.286452 
L 550.785706 230.625773 
L 551.399133 232.971346 
L 551.989074 235.322936 
L 552.55547 237.680307 
L 553.098264 240.043225 
L 553.617402 242.411452 
L 554.112833 244.784752 
L 554.584506 247.162888 
L 555.032374 249.545621 
L 555.456394 251.932714 
L 555.856521 254.323928 
L 556.232717 256.719023 
L 556.584943 259.117761 
L 556.913165 261.5199 
L 557.217349 263.925202 
L 557.497466 266.333425 
L 557.753486 268.744329 
L 557.985386 271.157673 
L 558.19314 273.573215 
L 558.37673 275.990714 
L 558.536135 278.409927 
L 558.671341 280.830614 
L 558.782333 283.252532 
L 558.869102 285.675438 
L 558.931637 288.099091 
L 558.969933 290.523248 
L 558.983986 292.947667 
L 558.973794 295.372106 
L 558.939359 297.796321 
L 558.880684 300.22007 
L 558.797775 302.643112 
L 558.690639 305.065203 
L 558.559289 307.486102 
L 558.403737 309.905567 
L 558.223998 312.323355 
L 558.020091 314.739225 
L 557.792036 317.152934 
L 557.539855 319.564243 
L 557.263574 321.972909 
L 556.963221 324.378693 
L 556.638825 326.781352 
L 556.29042 329.180647 
L 555.918039 331.576339 
L 555.521721 333.968187 
L 555.101504 336.355952 
L 554.657431 338.739396 
L 554.189546 341.118279 
L 553.697896 343.492366 
L 553.18253 345.861417 
L 552.6435 348.225196 
L 552.080859 350.583466 
L 551.494664 352.935993 
L 550.884974 355.28254 
L 550.251849 357.622872 
L 549.595352 359.956757 
L 548.915551 362.28396 
L 548.212511 364.604249 
L 547.486304 366.917391 
L 546.737002 369.223156 
L 545.964681 371.521313 
L 545.169417 373.811632 
L 544.35129 376.093883 
L 543.510382 378.36784 
L 542.646776 380.633274 
L 541.76056 382.889958 
L 540.851822 385.137668 
L 539.920652 387.376178 
L 538.967144 389.605265 
L 537.991394 391.824705 
L 536.993498 394.034277 
L 535.973556 396.23376 
L 534.931672 398.422934 
L 533.867947 400.601579 
L 532.782491 402.769478 
L 531.675409 404.926415 
L 530.546814 407.072173 
L 529.396818 409.206538 
L 528.225537 411.329297 
L 527.033086 413.440237 
L 525.819587 415.539147 
L 524.585159 417.625817 
L 523.329927 419.700039 
L 522.054015 421.761605 
L 520.757552 423.810309 
L 519.440667 425.845946 
L 518.103492 427.868313 
L 516.746161 429.877207 
L 515.368808 431.872428 
L 513.971573 433.853775 
L 512.554594 435.821052 
L 511.118014 437.77406 
L 509.661976 439.712606 
L 508.186626 441.636494 
L 506.69211 443.545533 
L 505.17858 445.439531 
L 503.646185 447.3183 
L 502.09508 449.181651 
L 500.525419 451.029398 
L 498.937359 452.861356 
L 497.33106 454.677342 
L 495.706681 456.477175 
L 494.064385 458.260675 
L 492.404337 460.027662 
L 490.726702 461.777961 
L 489.031649 463.511396 
L 487.319346 465.227795 
L 485.589965 466.926985 
L 483.843679 468.608796 
L 482.080662 470.273061 
L 480.301091 471.919612 
L 478.505144 473.548286 
L 476.693 475.15892 
L 474.864841 476.751351 
L 473.020849 478.325422 
L 471.161209 479.880974 
L 469.286107 481.417853 
L 467.39573 482.935904 
L 465.490267 484.434976 
L 463.569908 485.914918 
L 461.634847 487.375583 
L 459.685276 488.816825 
L 457.721391 490.238499 
L 455.743387 491.640464 
L 453.751462 493.022579 
L 451.745816 494.384706 
L 449.72665 495.726708 
L 447.694164 497.048453 
L 445.648563 498.349806 
L 443.590051 499.630639 
L 441.518834 500.890823 
L 439.435119 502.130232 
L 437.339114 503.348743 
L 435.231029 504.546233 
L 433.111074 505.722582 
L 430.979463 506.877674 
L 428.836407 508.011392 
L 426.682121 509.123623 
L 424.516821 510.214256 
L 422.340723 511.283181 
L 420.154045 512.330293 
L 417.957005 513.355486 
L 415.749823 514.358658 
L 413.53272 515.339708 
L 411.305918 516.298538 
L 409.069639 517.235053 
L 406.824106 518.149158 
L 404.569545 519.040763 
L 402.306181 519.909778 
L 400.03424 520.756117 
L 397.753949 521.579694 
L 395.465537 522.380427 
L 393.169232 523.158236 
L 390.865263 523.913044 
L 388.553862 524.644775 
L 386.23526 525.353356 
L 383.909687 526.038715 
L 381.577378 526.700785 
L 379.238564 527.3395 
L 376.893481 527.954794 
L 374.542361 528.546607 
L 372.185442 529.11488 
L 369.822957 529.659556 
L 367.455144 530.18058 
L 365.082239 530.6779 
L 362.70448 531.151467 
L 360.322104 531.601233 
L 357.935349 532.027153 
L 355.544455 532.429184 
L 353.14966 532.807287 
L 350.751204 533.161424 
L 348.349326 533.491558 
L 345.944268 533.797658 
L 343.536268 534.079692 
L 341.125569 534.337632 
L 338.71241 534.571453 
L 336.297035 534.781132 
L 333.879683 534.966646 
L 331.460597 535.127978 
L 329.040019 535.265111 
L 326.61819 535.378032 
L 324.195354 535.46673 
L 321.771751 535.531195 
L 319.347625 535.571422 
L 316.923218 535.587405 
L 316.537084 535.587712 
L 316.537084 538.036672 
L 316.927119 538.036361 
L 319.376015 538.020216 
L 321.824627 537.979584 
L 324.27271 537.914467 
L 326.72002 537.824874 
L 329.166311 537.710812 
L 331.61134 537.572293 
L 334.054861 537.409332 
L 336.49663 537.221944 
L 338.936404 537.010148 
L 341.373937 536.773965 
L 343.808987 536.513419 
L 346.24131 536.228536 
L 348.670662 535.919344 
L 351.096801 535.585875 
L 353.519484 535.228161 
L 355.938469 534.846239 
L 358.353514 534.440147 
L 360.764377 534.009925 
L 363.170817 533.555616 
L 365.572594 533.077266 
L 367.969468 532.574922 
L 370.361198 532.048635 
L 372.747546 531.498458 
L 375.128273 530.924445 
L 377.503141 530.326653 
L 379.871912 529.705144 
L 382.23435 529.059978 
L 384.590219 528.39122 
L 386.939282 527.698938 
L 389.281305 526.9832 
L 391.616053 526.244078 
L 393.943294 525.481645 
L 396.262794 524.695979 
L 398.574321 523.887158 
L 400.877645 523.055262 
L 403.172535 522.200375 
L 405.458762 521.322582 
L 407.736096 520.421971 
L 410.004311 519.498632 
L 412.263179 518.552657 
L 414.512474 517.584142 
L 416.751972 516.593182 
L 418.981449 515.579878 
L 421.200681 514.544329 
L 423.409447 513.486641 
L 425.607525 512.406918 
L 427.794697 511.305268 
L 429.970743 510.181802 
L 432.135446 509.036633 
L 434.288589 507.869874 
L 436.429958 506.681642 
L 438.559336 505.472056 
L 440.676513 504.241237 
L 442.781276 502.989309 
L 444.873415 501.716396 
L 446.95272 500.422625 
L 449.018983 499.108127 
L 451.071999 497.773031 
L 453.111561 496.417473 
L 455.137466 495.041587 
L 457.149511 493.645512 
L 459.147495 492.229386 
L 461.131218 490.793351 
L 463.100481 489.337551 
L 465.055089 487.862132 
L 466.994844 486.367241 
L 468.919554 484.853027 
L 470.829026 483.319642 
L 472.723069 481.767239 
L 474.601493 480.195974 
L 476.464111 478.606004 
L 478.310737 476.997487 
L 480.141185 475.370585 
L 481.955273 473.72546 
L 483.75282 472.062276 
L 485.533644 470.381201 
L 487.29757 468.682401 
L 489.044419 466.966048 
L 490.774018 465.232312 
L 492.486193 463.481367 
L 494.180774 461.713389 
L 495.85759 459.928553 
L 497.516475 458.127038 
L 499.157261 456.309025 
L 500.779786 454.474696 
L 502.383887 452.624233 
L 503.969403 450.757821 
L 505.536176 448.875649 
L 507.084049 446.977903 
L 508.612868 445.064773 
L 510.12248 443.136451 
L 511.612732 441.19313 
L 513.083478 439.235003 
L 514.534569 437.262267 
L 515.965861 435.275119 
L 517.377209 433.273758 
L 518.768474 431.258384 
L 520.139516 429.229198 
L 521.490198 427.186403 
L 522.820385 425.130204 
L 524.129944 423.060806 
L 525.418743 420.978416 
L 526.686655 418.883242 
L 527.933551 416.775494 
L 529.159309 414.655383 
L 530.363804 412.523121 
L 531.546917 410.37892 
L 532.708529 408.222996 
L 533.848524 406.055563 
L 534.966788 403.87684 
L 536.063209 401.687042 
L 537.137678 399.48639 
L 538.190086 397.275104 
L 539.22033 395.053404 
L 540.228306 392.821513 
L 541.213913 390.579654 
L 542.177052 388.328051 
L 543.117627 386.06693 
L 544.035545 383.796516 
L 544.930713 381.517037 
L 545.803041 379.22872 
L 546.652444 376.931794 
L 547.478835 374.626489 
L 548.282132 372.313036 
L 549.062254 369.991666 
L 549.819125 367.66261 
L 550.552667 365.326102 
L 551.262808 362.982376 
L 551.949476 360.631666 
L 552.612604 358.274207 
L 553.252124 355.910235 
L 553.867973 353.539985 
L 554.460089 351.163696 
L 555.028413 348.781604 
L 555.572888 346.393949 
L 556.093459 344.000968 
L 556.590076 341.602901 
L 557.062687 339.199988 
L 557.511245 336.792469 
L 557.935707 334.380585 
L 558.336029 331.964577 
L 558.712171 329.544687 
L 559.064096 327.121156 
L 559.391768 324.694228 
L 559.695155 322.264144 
L 559.974226 319.831147 
L 560.228954 317.395482 
L 560.459313 314.957391 
L 560.66528 312.517119 
L 560.846834 310.074909 
L 561.003958 307.631005 
L 561.136635 305.185653 
L 561.244852 302.739096 
L 561.328599 300.291579 
L 561.387867 297.843347 
L 561.42265 295.394645 
L 561.432944 292.945717 
L 561.418749 290.496809 
L 561.380067 288.048166 
L 561.3169 285.600031 
L 561.229255 283.152651 
L 561.117141 280.706269 
L 560.98057 278.261131 
L 560.819554 275.817481 
L 560.634111 273.375563 
L 560.424257 270.935622 
L 560.190016 268.497901 
L 559.931409 266.062644 
L 559.648463 263.630096 
L 559.341206 261.200498 
L 559.009669 258.774094 
L 558.653885 256.351127 
L 558.273889 253.931839 
L 557.86972 251.516472 
L 557.441418 249.105267 
L 556.989025 246.698465 
L 556.512588 244.296308 
L 556.012153 241.899035 
L 555.487771 239.506886 
L 554.939494 237.120101 
L 554.367377 234.738918 
L 553.771477 232.363574 
L 553.151854 229.994309 
L 552.50857 227.631358 
L 551.841688 225.274958 
L 551.151277 222.925344 
L 550.437404 220.582752 
L 549.700141 218.247416 
L 548.939562 215.919569 
L 548.155744 213.599444 
L 547.348763 211.287273 
L 546.518702 208.983287 
L 545.665642 206.687717 
L 544.78967 204.400792 
L 543.890873 202.122742 
L 542.969341 199.853792 
L 542.025165 197.594172 
L 541.058441 195.344106 
L 540.069265 193.10382 
L 539.057736 190.873537 
L 538.023955 188.653481 
L 536.968026 186.443873 
L 535.890054 184.244935 
L 534.790146 182.056887 
L 533.668414 179.879947 
L 532.524968 177.714333 
L 531.359924 175.560261 
L 530.173398 173.417948 
L 528.965508 171.287606 
L 527.736376 169.16945 
L 526.486124 167.063691 
L 525.214877 164.970539 
L 523.922763 162.890204 
L 522.60991 160.822895 
L 521.27645 158.768817 
L 519.922517 156.728176 
L 518.548244 154.701176 
L 517.153771 152.68802 
L 515.739237 150.688909 
L 514.304782 148.704043 
L 512.850551 146.733621 
L 511.376689 144.777839 
L 509.883343 142.836894 
L 508.370662 140.910978 
L 506.838798 139.000286 
L 505.287905 137.105008 
L 503.718136 135.225333 
L 502.129649 133.361449 
L 500.522604 131.513543 
L 498.897159 129.6818 
L 497.253479 127.866402 
L 495.591728 126.067532 
L 493.912071 124.285369 
L 492.214677 122.520092 
L 490.499715 120.771876 
L 488.767357 119.040897 
L 487.017776 117.327328 
L 485.251148 115.63134 
L 483.467648 113.953103 
L 481.667455 112.292784 
L 479.850749 110.650551 
L 478.017712 109.026566 
L 476.168527 107.420992 
L 474.303379 105.83399 
L 472.422454 104.265718 
L 470.525941 102.716334 
L 468.61403 101.185993 
L 466.686911 99.674846 
L 464.744777 98.183046 
L 462.787822 96.710742 
L 460.816242 95.25808 
L 458.830235 93.825207 
L 456.829998 92.412265 
L 454.815732 91.019395 
L 452.787639 89.646738 
L 450.74592 88.29443 
L 448.690781 86.962606 
L 446.622426 85.6514 
L 444.541063 84.360942 
L 442.4469 83.091363 
L 440.340146 81.842788 
L 438.221012 80.615343 
L 436.089709 79.40915 
L 433.946451 78.22433 
L 431.791452 77.061002 
L 429.624928 75.919281 
L 427.447096 74.799283 
L 425.258172 73.701118 
L 423.058377 72.624897 
L 420.847929 71.570728 
L 418.62705 70.538715 
L 416.395963 69.528962 
L 414.154889 68.541571 
L 411.904054 67.576639 
L 409.643683 66.634263 
L 407.374 65.714538 
L 405.095235 64.817555 
L 402.807613 63.943404 
L 400.511364 63.092173 
L 398.206718 62.263947 
L 395.893906 61.458808 
L 393.573157 60.676837 
L 391.244705 59.918112 
L 388.908782 59.182709 
L 386.565623 58.470702 
L 384.21546 57.782162 
L 381.85853 57.117157 
L 379.495067 56.475755 
L 377.125309 55.858019 
L 374.749492 55.26401 
L 372.367854 54.69379 
L 369.980633 54.147414 
L 367.588067 53.624937 
L 365.190396 53.126411 
L 362.787861 52.651887 
L 360.3807 52.201411 
L 357.969154 51.775029 
L 355.553466 51.372783 
L 353.133876 50.994714 
L 350.710626 50.64086 
L 348.283959 50.311255 
L 345.854118 50.005933 
L 343.421344 49.724924 
L 340.985883 49.468257 
L 338.547976 49.235956 
L 336.107868 49.028046 
L 333.665804 48.844547 
L 331.222026 48.685477 
L 328.77678 48.550853 
L 326.33031 48.440688 
L 323.882861 48.354992 
L 321.434677 48.293774 
L 318.986003 48.257042 
L 316.537084 48.244797 
z
" clip-path="url(#p60cdf00ec3)" style="fill: #000080"/>
   </g>
   <g id="patch_3">
    <path d="M 316.537084 535.587712 
L 314.112655 535.57559 
L 311.688468 535.539225 
L 309.264766 535.47862 
L 306.841791 535.393781 
L 304.419786 535.284717 
L 301.998992 535.151439 
L 299.579652 534.99396 
L 297.162008 534.812296 
L 294.746302 534.606465 
L 292.332774 534.376487 
L 289.921667 534.122387 
L 287.513221 533.844188 
L 285.107678 533.541919 
L 282.705278 533.21561 
L 280.306261 532.865294 
L 277.910867 532.491006 
L 275.519335 532.092783 
L 273.131905 531.670665 
L 270.748816 531.224694 
L 268.370305 530.754915 
L 265.996612 530.261374 
L 263.627972 529.744122 
L 261.264623 529.20321 
L 258.906801 528.638691 
L 256.554742 528.050623 
L 254.208681 527.439064 
L 251.868854 526.804076 
L 249.535492 526.145721 
L 247.208832 525.464066 
L 244.889103 524.759179 
L 242.57654 524.031131 
L 240.271372 523.279993 
L 237.973831 522.505842 
L 235.684147 521.708754 
L 233.402547 520.88881 
L 231.129261 520.046091 
L 228.864516 519.180682 
L 226.608537 518.292669 
L 224.361552 517.382141 
L 222.123784 516.449189 
L 219.895457 515.493906 
L 217.676795 514.516389 
L 215.468018 513.516734 
L 213.269348 512.495041 
L 211.081005 511.451413 
L 208.903207 510.385955 
L 206.736173 509.298772 
L 204.580119 508.189973 
L 202.43526 507.05967 
L 200.301811 505.907975 
L 198.179986 504.735003 
L 196.069996 503.540872 
L 193.972053 502.325701 
L 191.886367 501.089612 
L 189.813145 499.832729 
L 187.752596 498.555176 
L 185.704925 497.257082 
L 183.670337 495.938576 
L 181.649036 494.599791 
L 179.641223 493.24086 
L 177.6471 491.861919 
L 175.666866 490.463107 
L 173.700718 489.044562 
L 171.748854 487.606427 
L 169.811469 486.148846 
L 167.888756 484.671964 
L 165.980908 483.175929 
L 164.088116 481.66089 
L 162.210568 480.127 
L 160.348453 478.574411 
L 158.501956 477.00328 
L 156.671263 475.413762 
L 154.856557 473.806016 
L 153.058018 472.180205 
L 151.275827 470.53649 
L 149.510162 468.875035 
L 147.761199 467.196007 
L 146.029114 465.499573 
L 144.31408 463.785904 
L 142.616268 462.055171 
L 140.935848 460.307546 
L 139.272987 458.543204 
L 137.627853 456.762323 
L 136.00061 454.96508 
L 134.39142 453.151654 
L 132.800445 451.322227 
L 131.227843 449.476982 
L 129.673772 447.616104 
L 128.138387 445.739778 
L 126.621842 443.848193 
L 125.124288 441.941537 
L 123.645876 440.020001 
L 122.186752 438.083777 
L 120.747063 436.133059 
L 119.326953 434.168042 
L 117.926564 432.188922 
L 116.546036 430.195897 
L 115.185507 428.189168 
L 113.845112 426.168933 
L 112.524987 424.135396 
L 111.225263 422.088759 
L 109.946069 420.029228 
L 108.687535 417.957008 
L 107.449786 415.872306 
L 106.571842 414.364223 
L 104.450981 415.588703 
L 105.337793 417.112019 
L 106.588045 419.217778 
L 107.859291 421.31093 
L 109.151406 423.391264 
L 110.464259 425.458574 
L 111.797719 427.512652 
L 113.151652 429.553293 
L 114.525924 431.580293 
L 115.920397 433.593449 
L 117.334932 435.59256 
L 118.769386 437.577426 
L 120.223617 439.547848 
L 121.69748 441.50363 
L 123.190826 443.444575 
L 124.703506 445.37049 
L 126.23537 447.281183 
L 127.786264 449.176461 
L 129.356033 451.056136 
L 130.944519 452.92002 
L 132.551565 454.767926 
L 134.177009 456.599669 
L 135.820689 458.415066 
L 137.482441 460.213937 
L 139.162098 461.9961 
L 140.859492 463.761377 
L 142.574454 465.509593 
L 144.306812 467.240572 
L 146.056392 468.954141 
L 147.823021 470.650129 
L 149.606521 472.328366 
L 151.406714 473.988684 
L 153.22342 475.630918 
L 155.056457 477.254903 
L 156.905642 478.860477 
L 158.77079 480.447479 
L 160.651714 482.01575 
L 162.548227 483.565134 
L 164.460139 485.095476 
L 166.387258 486.606623 
L 168.329392 488.098423 
L 170.286347 489.570727 
L 172.257927 491.023389 
L 174.243934 492.456262 
L 176.244171 493.869204 
L 178.258437 495.262074 
L 180.28653 496.634731 
L 182.328249 497.987039 
L 184.383388 499.318863 
L 186.451742 500.630069 
L 188.533105 501.920526 
L 190.627269 503.190106 
L 192.734023 504.438681 
L 194.853157 505.666126 
L 196.98446 506.872319 
L 199.127718 508.057139 
L 201.282716 509.220467 
L 203.44924 510.362188 
L 205.627073 511.482186 
L 207.815997 512.580351 
L 210.015792 513.656572 
L 212.22624 514.710741 
L 214.447118 515.742754 
L 216.678206 516.752506 
L 218.919279 517.739898 
L 221.170114 518.70483 
L 223.430486 519.647206 
L 225.700168 520.566931 
L 227.978934 521.463914 
L 230.266556 522.338064 
L 232.562804 523.189296 
L 234.86745 524.017522 
L 237.180263 524.822661 
L 239.501012 525.604632 
L 241.829464 526.363357 
L 244.165386 527.09876 
L 246.508546 527.810767 
L 248.858709 528.499307 
L 251.215639 529.164312 
L 253.579102 529.805714 
L 255.94886 530.42345 
L 258.324677 531.017458 
L 260.706315 531.587679 
L 263.093536 532.134055 
L 265.486102 532.656532 
L 267.883772 533.155058 
L 270.286308 533.629582 
L 272.693469 534.080058 
L 275.105014 534.50644 
L 277.520703 534.908685 
L 279.940293 535.286754 
L 282.363542 535.640609 
L 284.790209 535.970214 
L 287.220051 536.275536 
L 289.652824 536.556545 
L 292.088286 536.813212 
L 294.526193 537.045513 
L 296.9663 537.253423 
L 299.408365 537.436922 
L 301.852143 537.595991 
L 304.297389 537.730616 
L 306.743859 537.840781 
L 309.191308 537.926477 
L 311.639492 537.987694 
L 314.088166 538.024427 
L 316.537084 538.036672 
z
" clip-path="url(#p60cdf00ec3)" style="fill: #00d4ff"/>
   </g>
   <g id="patch_4">
    <path d="M 106.571842 414.364223 
L 105.370126 412.258545 
L 104.189526 410.140955 
L 103.03016 408.011664 
L 101.892145 405.870887 
L 100.775595 403.718837 
L 99.68062 401.555729 
L 98.607331 399.38178 
L 97.555835 397.197207 
L 96.526236 395.002228 
L 95.518639 392.797063 
L 94.533143 390.581933 
L 93.569847 388.357059 
L 92.628848 386.122663 
L 91.71024 383.878969 
L 90.814114 381.626201 
L 89.94056 379.364584 
L 89.089666 377.094346 
L 88.261516 374.815712 
L 87.456193 372.52891 
L 86.673779 370.23417 
L 85.91435 367.931721 
L 85.177984 365.621793 
L 84.464753 363.304616 
L 83.77473 360.980423 
L 83.107982 358.649447 
L 82.464577 356.311919 
L 81.844579 353.968074 
L 81.248051 351.618147 
L 80.675051 349.262372 
L 80.125637 346.900985 
L 79.599864 344.534222 
L 79.097784 342.16232 
L 78.619448 339.785515 
L 78.164904 337.404046 
L 77.734197 335.018151 
L 77.32737 332.628068 
L 76.944463 330.234036 
L 76.585516 327.836295 
L 76.250563 325.435085 
L 75.93964 323.030645 
L 75.652775 320.623216 
L 75.389999 318.213039 
L 75.151338 315.800355 
L 74.936814 313.385405 
L 74.746451 310.96843 
L 74.580266 308.549673 
L 74.438277 306.129374 
L 74.320498 303.707777 
L 74.22694 301.285123 
L 74.157613 298.861655 
L 74.112523 296.437615 
L 74.091676 294.013245 
L 74.095073 291.588787 
L 74.122715 289.164485 
L 74.174597 286.740581 
L 74.250716 284.317316 
L 74.351063 281.894934 
L 74.475628 279.473677 
L 74.624399 277.053786 
L 74.797361 274.635504 
L 74.994498 272.219072 
L 75.215788 269.804732 
L 75.46121 267.392726 
L 75.730739 264.983295 
L 76.024349 262.57668 
L 76.34201 260.173121 
L 76.683691 257.772858 
L 77.049356 255.376133 
L 77.43897 252.983184 
L 77.852494 250.59425 
L 78.289885 248.209571 
L 78.751102 245.829386 
L 79.236097 243.453931 
L 79.744821 241.083445 
L 80.277225 238.718165 
L 80.833255 236.358327 
L 81.412854 234.004167 
L 82.015966 231.65592 
L 82.64253 229.313822 
L 83.292483 226.978107 
L 83.965761 224.649008 
L 84.662295 222.326758 
L 85.382017 220.01159 
L 86.124853 217.703734 
L 86.890731 215.403422 
L 87.679574 213.110883 
L 88.491302 210.826348 
L 89.325834 208.550044 
L 90.183087 206.282199 
L 91.062976 204.023039 
L 91.965412 201.772792 
L 92.890304 199.531681 
L 93.837561 197.299931 
L 94.807088 195.077764 
L 95.798788 192.865405 
L 96.812562 190.663072 
L 97.848307 188.470987 
L 98.905922 186.289369 
L 99.985299 184.118437 
L 101.086331 181.958406 
L 102.208908 179.809493 
L 103.352918 177.671914 
L 104.518246 175.545881 
L 105.704776 173.431608 
L 106.571842 171.917245 
L 104.450981 170.692766 
L 103.575157 172.222425 
L 102.376642 174.358054 
L 101.199543 176.505562 
L 100.043977 178.664733 
L 98.910061 180.835352 
L 97.797907 183.017201 
L 96.707627 185.210063 
L 95.63933 187.413717 
L 94.593122 189.627944 
L 93.569108 191.852522 
L 92.567391 194.087229 
L 91.588071 196.331842 
L 90.631246 198.586135 
L 89.697011 200.849883 
L 88.78546 203.122861 
L 87.896683 205.40484 
L 87.030771 207.695592 
L 86.187809 209.994889 
L 85.367882 212.302501 
L 84.571071 214.618196 
L 83.797457 216.941744 
L 83.047117 219.272911 
L 82.320125 221.611466 
L 81.616555 223.957173 
L 80.936477 226.309798 
L 80.279959 228.669106 
L 79.647066 231.034862 
L 79.037862 233.406828 
L 78.452408 235.784767 
L 77.890762 238.168442 
L 77.35298 240.557614 
L 76.839117 242.952044 
L 76.349223 245.351493 
L 75.883348 247.755721 
L 75.441538 250.164488 
L 75.023837 252.577552 
L 74.630288 254.994672 
L 74.260929 257.415607 
L 73.915797 259.840115 
L 73.594928 262.267952 
L 73.298352 264.698877 
L 73.0261 267.132646 
L 72.778199 269.569015 
L 72.554673 272.007742 
L 72.355546 274.448582 
L 72.180837 276.891291 
L 72.030563 279.335626 
L 71.904739 281.78134 
L 71.803379 284.228191 
L 71.726491 286.675933 
L 71.674085 289.124321 
L 71.646164 291.573111 
L 71.642733 294.022058 
L 71.66379 296.470917 
L 71.709335 298.919442 
L 71.779363 301.36739 
L 71.873866 303.814515 
L 71.992835 306.260573 
L 72.136258 308.705319 
L 72.304121 311.148508 
L 72.496407 313.589896 
L 72.713098 316.02924 
L 72.95417 318.466295 
L 73.2196 320.900817 
L 73.509362 323.332563 
L 73.823427 325.761291 
L 74.161763 328.186756 
L 74.524336 330.608716 
L 74.91111 333.02693 
L 75.322046 335.441155 
L 75.757104 337.85115 
L 76.21624 340.256675 
L 76.699407 342.657487 
L 77.206558 345.053348 
L 77.737642 347.444018 
L 78.292606 349.829257 
L 78.871394 352.208828 
L 79.473948 354.582492 
L 80.100208 356.950012 
L 80.750112 359.311151 
L 81.423595 361.665673 
L 82.120588 364.013342 
L 82.841023 366.353924 
L 83.584828 368.687185 
L 84.351927 371.012892 
L 85.142245 373.330811 
L 85.955702 375.640712 
L 86.792217 377.942362 
L 87.651706 380.235532 
L 88.534084 382.519993 
L 89.439262 384.795516 
L 90.367149 387.061874 
L 91.317653 389.31884 
L 92.290679 391.566188 
L 93.286129 393.803693 
L 94.303905 396.031132 
L 95.343903 398.248283 
L 96.40602 400.454922 
L 97.490151 402.65083 
L 98.596186 404.835788 
L 99.724015 407.009576 
L 100.873525 409.171977 
L 102.044601 411.322775 
L 103.237126 413.461755 
L 104.450981 415.588703 
z
" clip-path="url(#p60cdf00ec3)" style="fill: #ffe600"/>
   </g>
   <g id="patch_5">
    <path d="M 106.571842 171.917245 
L 107.794555 169.823689 
L 109.038142 167.742464 
L 110.302479 165.673779 
L 111.587439 163.617841 
L 112.892893 161.574855 
L 114.218712 159.545025 
L 115.564763 157.528555 
L 116.930911 155.525646 
L 118.317019 153.536498 
L 119.722949 151.56131 
L 121.14856 149.600281 
L 122.59371 147.653605 
L 124.058254 145.721478 
L 125.542046 143.804093 
L 127.044937 141.901641 
L 128.566778 140.014313 
L 130.107415 138.142297 
L 131.666695 136.285782 
L 133.244462 134.444951 
L 134.840558 132.61999 
L 136.454823 130.811081 
L 138.087096 129.018405 
L 139.737215 127.242141 
L 141.405013 125.482466 
L 143.090324 123.739558 
L 144.79298 122.013589 
L 146.51281 120.304733 
L 148.249643 118.61316 
L 150.003303 116.93904 
L 151.773618 115.28254 
L 153.560408 113.643826 
L 155.363496 112.023061 
L 157.182701 110.420408 
L 159.017842 108.836026 
L 160.868734 107.270075 
L 162.735193 105.722711 
L 164.617032 104.194089 
L 166.514063 102.684361 
L 168.426096 101.193678 
L 170.35294 99.722191 
L 172.294402 98.270044 
L 174.250289 96.837385 
L 176.220404 95.424356 
L 178.20455 94.031098 
L 180.20253 92.657751 
L 182.214143 91.304452 
L 184.239189 89.971337 
L 186.277463 88.658539 
L 188.328764 87.366188 
L 190.392886 86.094415 
L 192.469622 84.843346 
L 194.558764 83.613107 
L 196.660104 82.403821 
L 198.773432 81.215607 
L 200.898536 80.048587 
L 203.035204 78.902875 
L 205.183222 77.778587 
L 207.342375 76.675835 
L 209.512448 75.594729 
L 211.693223 74.535378 
L 213.884482 73.497887 
L 216.086007 72.48236 
L 218.297576 71.488899 
L 220.518969 70.517603 
L 222.749964 69.568569 
L 224.990338 68.641891 
L 227.239867 67.737664 
L 229.498324 66.855977 
L 231.765486 65.996918 
L 234.041125 65.160573 
L 236.325013 64.347026 
L 238.616923 63.556358 
L 240.916624 62.788649 
L 243.223888 62.043974 
L 245.538483 61.322409 
L 247.860177 60.624026 
L 250.188739 59.948894 
L 252.523936 59.297081 
L 254.865534 58.668653 
L 257.2133 58.063671 
L 259.566997 57.482197 
L 261.926392 56.924288 
L 264.291248 56.390001 
L 266.661328 55.879389 
L 269.036395 55.392503 
L 271.416213 54.929391 
L 273.800543 54.4901 
L 276.189146 54.074674 
L 278.581784 53.683155 
L 280.978218 53.315581 
L 283.378207 52.971989 
L 285.781513 52.652414 
L 288.187894 52.356888 
L 290.597109 52.08544 
L 293.008919 51.838097 
L 295.423082 51.614885 
L 297.839356 51.415824 
L 300.257499 51.240936 
L 302.677271 51.090238 
L 305.098429 50.963745 
L 307.52073 50.861469 
L 309.943933 50.783421 
L 312.367796 50.729608 
L 314.792075 50.700036 
L 316.537084 50.693756 
L 316.537084 48.244797 
L 314.774449 48.25114 
L 312.325682 48.281011 
L 309.877336 48.335367 
L 307.429656 48.414203 
L 304.982887 48.517512 
L 302.537273 48.645284 
L 300.093059 48.797504 
L 297.65049 48.974159 
L 295.209809 49.17523 
L 292.771261 49.400697 
L 290.335089 49.650538 
L 287.901538 49.924728 
L 285.47085 50.22324 
L 283.043269 50.546042 
L 280.619037 50.893105 
L 278.198397 51.264391 
L 275.781591 51.659866 
L 273.368861 52.079488 
L 270.960447 52.523216 
L 268.55659 52.991005 
L 266.157532 53.48281 
L 263.763512 53.998579 
L 261.374769 54.538263 
L 258.991542 55.101807 
L 256.61407 55.689155 
L 254.242589 56.300248 
L 251.877339 56.935024 
L 249.518554 57.593421 
L 247.166471 58.275373 
L 244.821325 58.98081 
L 242.483351 59.709664 
L 240.152781 60.46186 
L 237.829851 61.237324 
L 235.514791 62.035979 
L 233.207833 62.857743 
L 230.909207 63.702536 
L 228.619145 64.570272 
L 226.337874 65.460865 
L 224.065624 66.374226 
L 221.80262 67.310264 
L 219.549089 68.268884 
L 217.305258 69.249991 
L 215.071349 70.253488 
L 212.847587 71.279272 
L 210.634194 72.327243 
L 208.431391 73.397295 
L 206.239398 74.489321 
L 204.058436 75.603212 
L 201.88872 76.738856 
L 199.73047 77.896141 
L 197.5839 79.07495 
L 195.449226 80.275165 
L 193.32666 81.496666 
L 191.216415 82.739332 
L 189.118702 84.003038 
L 187.033731 85.287657 
L 184.96171 86.593062 
L 182.902846 87.919121 
L 180.857346 89.265702 
L 178.825413 90.632671 
L 176.807252 92.01989 
L 174.803064 93.427221 
L 172.813048 94.854523 
L 170.837405 96.301653 
L 168.876332 97.768468 
L 166.930025 99.254819 
L 164.998679 100.760559 
L 163.082486 102.285537 
L 161.181638 103.8296 
L 159.296326 105.392594 
L 157.426738 106.974363 
L 155.573061 108.574748 
L 153.73548 110.19359 
L 151.914179 111.830726 
L 150.10934 113.485993 
L 148.321144 115.159225 
L 146.549769 116.850256 
L 144.795393 118.558915 
L 143.058191 120.285032 
L 141.338337 122.028435 
L 139.636002 123.788949 
L 137.951358 125.566397 
L 136.284571 127.360604 
L 134.63581 129.171388 
L 133.005239 130.998568 
L 131.393021 132.841963 
L 129.799317 134.701388 
L 128.224287 136.576656 
L 126.668088 138.467581 
L 125.130875 140.373973 
L 123.612803 142.295642 
L 122.114024 144.232394 
L 120.634686 146.184038 
L 119.174939 148.150377 
L 117.734927 150.131215 
L 116.314796 152.126354 
L 114.914687 154.135594 
L 113.53474 156.158735 
L 112.175092 158.195573 
L 110.835881 160.245906 
L 109.51724 162.309529 
L 108.219301 164.386234 
L 106.942193 166.475815 
L 105.686045 168.578062 
L 104.450981 170.692766 
z
" clip-path="url(#p60cdf00ec3)" style="fill: #800000"/>
   </g>
   <g id="PatchCollection_1">
    <path d="M 316.537084 50.693756 
L 316.537084 50.693756 
L 318.961514 50.705878 
L 321.385701 50.742244 
L 323.809403 50.802849 
L 326.232378 50.887688 
L 328.654383 50.996752 
L 331.075177 51.13003 
L 333.494516 51.287509 
L 335.91216 51.469173 
L 338.327867 51.675004 
L 340.741395 51.904981 
L 343.152502 52.159082 
L 345.560947 52.437281 
L 347.966491 52.73955 
L 350.368891 53.065858 
L 352.767908 53.416174 
L 355.163302 53.790463 
L 357.554834 54.188686 
L 359.942263 54.610804 
L 362.325353 55.056775 
L 364.703863 55.526554 
L 367.077557 56.020095 
L 369.446197 56.537347 
L 371.809546 57.078259 
L 374.167368 57.642778 
L 376.519427 58.230846 
L 378.865487 58.842404 
L 381.205315 59.477393 
L 383.538676 60.135748 
L 385.865337 60.817402 
L 388.185065 61.522289 
L 390.497629 62.250338 
L 392.802796 63.001476 
L 395.100337 63.775627 
L 397.390022 64.572715 
L 399.671622 65.392659 
L 401.944908 66.235378 
L 404.209653 67.100787 
L 406.465631 67.9888 
L 408.712617 68.899328 
L 410.950385 69.83228 
L 413.178711 70.787562 
L 415.397374 71.76508 
L 417.606151 72.764735 
L 419.804821 73.786428 
L 421.993164 74.830055 
L 424.170961 75.895514 
L 426.337996 76.982697 
L 428.49405 78.091496 
L 430.638909 79.221799 
L 432.772357 80.373494 
L 434.894183 81.546466 
L 437.004172 82.740597 
L 439.102115 83.955767 
L 441.187802 85.191856 
L 443.261024 86.44874 
L 445.321573 87.726293 
L 447.369244 89.024387 
L 449.403832 90.342893 
L 451.425133 91.681678 
L 453.432946 93.040609 
L 455.427069 94.419549 
L 457.407303 95.818362 
L 459.373451 97.236907 
L 461.325314 98.675042 
L 463.2627 100.132623 
L 465.185412 101.609505 
L 467.09326 103.10554 
L 468.986053 104.620578 
L 470.863601 106.154469 
L 472.725716 107.707057 
L 474.572212 109.278189 
L 476.402906 110.867707 
L 478.217612 112.475452 
L 480.016151 114.101264 
L 481.798342 115.744979 
L 483.564007 117.406434 
L 485.312969 119.085462 
L 487.045054 120.781895 
L 488.760089 122.495565 
L 490.457901 124.226298 
L 492.138321 125.973923 
L 493.801181 127.738264 
L 495.446315 129.519146 
L 497.073559 131.316389 
L 498.682748 133.129815 
L 500.273724 134.959242 
L 501.846325 136.804487 
L 503.400396 138.665365 
L 504.935781 140.541691 
L 506.452326 142.433276 
L 507.94988 144.339932 
L 509.428293 146.261468 
L 510.887417 148.197692 
L 512.327105 150.14841 
L 513.747215 152.113427 
L 515.147605 154.092547 
L 516.528133 156.085571 
L 517.888662 158.092301 
L 519.229057 160.112536 
L 520.549182 162.146073 
L 521.848906 164.19271 
L 523.128099 166.252241 
L 524.386634 168.324461 
L 525.624383 170.409163 
L 526.502327 171.917245 
L 526.502327 171.917245 
Q 316.537084 293.140734 106.571842 171.917245 
L 106.571842 171.917245 
L 106.571842 171.917245 
L 107.794555 169.823689 
L 109.038142 167.742464 
L 110.302479 165.673779 
L 111.587439 163.617841 
L 112.892893 161.574855 
L 114.218712 159.545025 
L 115.564763 157.528555 
L 116.930911 155.525646 
L 118.317019 153.536498 
L 119.722949 151.56131 
L 121.14856 149.600281 
L 122.59371 147.653605 
L 124.058254 145.721478 
L 125.542046 143.804093 
L 127.044937 141.901641 
L 128.566778 140.014313 
L 130.107415 138.142297 
L 131.666695 136.285782 
L 133.244462 134.444951 
L 134.840558 132.61999 
L 136.454823 130.811081 
L 138.087096 129.018405 
L 139.737215 127.242141 
L 141.405013 125.482466 
L 143.090324 123.739558 
L 144.79298 122.013589 
L 146.51281 120.304733 
L 148.249643 118.61316 
L 150.003303 116.93904 
L 151.773618 115.28254 
L 153.560408 113.643826 
L 155.363496 112.023061 
L 157.182701 110.420408 
L 159.017842 108.836026 
L 160.868734 107.270075 
L 162.735193 105.722711 
L 164.617032 104.194089 
L 166.514063 102.684361 
L 168.426096 101.193678 
L 170.35294 99.722191 
L 172.294402 98.270044 
L 174.250289 96.837385 
L 176.220404 95.424356 
L 178.20455 94.031098 
L 180.20253 92.657751 
L 182.214143 91.304452 
L 184.239189 89.971337 
L 186.277463 88.658539 
L 188.328764 87.366188 
L 190.392886 86.094415 
L 192.469622 84.843346 
L 194.558764 83.613107 
L 196.660104 82.403821 
L 198.773432 81.215607 
L 200.898536 80.048587 
L 203.035204 78.902875 
L 205.183222 77.778587 
L 207.342375 76.675835 
L 209.512448 75.594729 
L 211.693223 74.535378 
L 213.884482 73.497887 
L 216.086007 72.48236 
L 218.297576 71.488899 
L 220.518969 70.517603 
L 222.749964 69.568569 
L 224.990338 68.641891 
L 227.239867 67.737664 
L 229.498324 66.855977 
L 231.765486 65.996918 
L 234.041125 65.160573 
L 236.325013 64.347026 
L 238.616923 63.556358 
L 240.916624 62.788649 
L 243.223888 62.043974 
L 245.538483 61.322409 
L 247.860177 60.624026 
L 250.188739 59.948894 
L 252.523936 59.297081 
L 254.865534 58.668653 
L 257.2133 58.063671 
L 259.566997 57.482197 
L 261.926392 56.924288 
L 264.291248 56.390001 
L 266.661328 55.879389 
L 269.036395 55.392503 
L 271.416213 54.929391 
L 273.800543 54.4901 
L 276.189146 54.074674 
L 278.581784 53.683155 
L 280.978218 53.315581 
L 283.378207 52.971989 
L 285.781513 52.652414 
L 288.187894 52.356888 
L 290.597109 52.08544 
L 293.008919 51.838097 
L 295.423082 51.614885 
L 297.839356 51.415824 
L 300.257499 51.240936 
L 302.677271 51.090238 
L 305.098429 50.963745 
L 307.52073 50.861469 
L 309.943933 50.783421 
L 312.367796 50.729608 
L 314.792075 50.700036 
L 316.537084 50.693756 
L 316.537084 50.693756 
Q 316.537084 293.140734 316.537084 50.693756 
z
" clip-path="url(#p60cdf00ec3)" style="fill: #000080; fill-opacity: 0.5; stroke: #808080; stroke-opacity: 0.5; stroke-width: 0.1"/>
    <path d="M 526.502327 171.917245 
L 526.502327 171.917245 
L 527.704043 174.022924 
L 528.884643 176.140514 
L 530.044008 178.269804 
L 531.182023 180.410581 
L 532.298574 182.562631 
L 533.393549 184.725739 
L 534.466838 186.899688 
L 535.518334 189.084262 
L 536.547932 191.27924 
L 537.55553 193.484405 
L 538.541026 195.699536 
L 539.504321 197.92441 
L 540.445321 200.158806 
L 541.363929 202.4025 
L 542.260055 204.655268 
L 543.133609 206.916884 
L 543.984503 209.187123 
L 544.812653 211.465757 
L 545.617976 213.752558 
L 546.40039 216.047298 
L 547.159819 218.349748 
L 547.896185 220.659676 
L 548.609416 222.976853 
L 549.299439 225.301046 
L 549.966187 227.632022 
L 550.609592 229.96955 
L 551.229589 232.313394 
L 551.826118 234.663322 
L 552.399118 237.019097 
L 552.948532 239.380484 
L 553.474305 241.747247 
L 553.976385 244.119149 
L 554.454721 246.495954 
L 554.909265 248.877423 
L 555.339972 251.263318 
L 555.746799 253.653401 
L 556.129706 256.047432 
L 556.488653 258.445173 
L 556.823605 260.846384 
L 557.134529 263.250824 
L 557.421394 265.658252 
L 557.68417 268.068429 
L 557.922831 270.481114 
L 558.137354 272.896064 
L 558.327718 275.313039 
L 558.493902 277.731796 
L 558.635892 280.152094 
L 558.753671 282.573691 
L 558.847229 284.996345 
L 558.916556 287.419814 
L 558.961645 289.843854 
L 558.982493 292.268224 
L 558.979095 294.692681 
L 558.951454 297.116983 
L 558.899572 299.540888 
L 558.823453 301.964152 
L 558.723106 304.386534 
L 558.598541 306.807792 
L 558.44977 309.227683 
L 558.276807 311.645965 
L 558.079671 314.062397 
L 557.858381 316.476736 
L 557.612959 318.888742 
L 557.343429 321.298173 
L 557.04982 323.704789 
L 556.732159 326.108348 
L 556.390478 328.50861 
L 556.024813 330.905336 
L 555.635199 333.298285 
L 555.221675 335.687219 
L 554.784283 338.071897 
L 554.323067 340.452083 
L 553.838072 342.827538 
L 553.329347 345.198024 
L 552.796944 347.563304 
L 552.240914 349.923142 
L 551.661314 352.277302 
L 551.058202 354.625548 
L 550.431639 356.967646 
L 549.781686 359.303362 
L 549.108408 361.632461 
L 548.411874 363.95471 
L 547.692152 366.269879 
L 546.949315 368.577735 
L 546.183437 370.878047 
L 545.394595 373.170585 
L 544.582867 375.455121 
L 543.748335 377.731425 
L 542.891081 379.99927 
L 542.011193 382.258429 
L 541.108757 384.508677 
L 540.183865 386.749788 
L 539.236607 388.981538 
L 538.26708 391.203704 
L 537.275381 393.416064 
L 536.261607 395.618397 
L 535.225862 397.810481 
L 534.168247 399.992099 
L 533.08887 402.163032 
L 531.987838 404.323063 
L 530.86526 406.471975 
L 529.721251 408.609555 
L 528.555922 410.735588 
L 527.369393 412.849861 
L 526.502327 414.364223 
L 526.502327 414.364223 
Q 316.537084 293.140734 106.571842 414.364223 
L 106.571842 414.364223 
L 106.571842 414.364223 
L 105.370126 412.258545 
L 104.189526 410.140955 
L 103.03016 408.011664 
L 101.892145 405.870887 
L 100.775595 403.718837 
L 99.68062 401.555729 
L 98.607331 399.38178 
L 97.555835 397.197207 
L 96.526236 395.002228 
L 95.518639 392.797063 
L 94.533143 390.581933 
L 93.569847 388.357059 
L 92.628848 386.122663 
L 91.71024 383.878969 
L 90.814114 381.626201 
L 89.94056 379.364584 
L 89.089666 377.094346 
L 88.261516 374.815712 
L 87.456193 372.52891 
L 86.673779 370.23417 
L 85.91435 367.931721 
L 85.177984 365.621793 
L 84.464753 363.304616 
L 83.77473 360.980423 
L 83.107982 358.649447 
L 82.464577 356.311919 
L 81.844579 353.968074 
L 81.248051 351.618147 
L 80.675051 349.262372 
L 80.125637 346.900985 
L 79.599864 344.534222 
L 79.097784 342.16232 
L 78.619448 339.785515 
L 78.164904 337.404046 
L 77.734197 335.018151 
L 77.32737 332.628068 
L 76.944463 330.234036 
L 76.585516 327.836295 
L 76.250563 325.435085 
L 75.93964 323.030645 
L 75.652775 320.623216 
L 75.389999 318.213039 
L 75.151338 315.800355 
L 74.936814 313.385405 
L 74.746451 310.96843 
L 74.580266 308.549673 
L 74.438277 306.129374 
L 74.320498 303.707777 
L 74.22694 301.285123 
L 74.157613 298.861655 
L 74.112523 296.437615 
L 74.091676 294.013245 
L 74.095073 291.588787 
L 74.122715 289.164485 
L 74.174597 286.740581 
L 74.250716 284.317316 
L 74.351063 281.894934 
L 74.475628 279.473677 
L 74.624399 277.053786 
L 74.797361 274.635504 
L 74.994498 272.219072 
L 75.215788 269.804732 
L 75.46121 267.392726 
L 75.730739 264.983295 
L 76.024349 262.57668 
L 76.34201 260.173121 
L 76.683691 257.772858 
L 77.049356 255.376133 
L 77.43897 252.983184 
L 77.852494 250.59425 
L 78.289885 248.209571 
L 78.751102 245.829386 
L 79.236097 243.453931 
L 79.744821 241.083445 
L 80.277225 238.718165 
L 80.833255 236.358327 
L 81.412854 234.004167 
L 82.015966 231.65592 
L 82.64253 229.313822 
L 83.292483 226.978107 
L 83.965761 224.649008 
L 84.662295 222.326758 
L 85.382017 220.01159 
L 86.124853 217.703734 
L 86.890731 215.403422 
L 87.679574 213.110883 
L 88.491302 210.826348 
L 89.325834 208.550044 
L 90.183087 206.282199 
L 91.062976 204.023039 
L 91.965412 201.772792 
L 92.890304 199.531681 
L 93.837561 197.299931 
L 94.807088 195.077764 
L 95.798788 192.865405 
L 96.812562 190.663072 
L 97.848307 188.470987 
L 98.905922 186.289369 
L 99.985299 184.118437 
L 101.086331 181.958406 
L 102.208908 179.809493 
L 103.352918 177.671914 
L 104.518246 175.545881 
L 105.704776 173.431608 
L 106.571842 171.917245 
L 106.571842 171.917245 
Q 316.537084 293.140734 526.502327 171.917245 
z
" clip-path="url(#p60cdf00ec3)" style="fill: #000080; fill-opacity: 0.5; stroke: #808080; stroke-opacity: 0.5; stroke-width: 0.1"/>
    <path d="M 526.502327 414.364223 
L 526.502327 414.364223 
L 525.279614 416.45778 
L 524.036027 418.539004 
L 522.77169 420.607689 
L 521.48673 422.663628 
L 520.181275 424.706614 
L 518.855456 426.736444 
L 517.509406 428.752914 
L 516.143258 430.755823 
L 514.75715 432.744971 
L 513.35122 434.720158 
L 511.925608 436.681188 
L 510.480459 438.627864 
L 509.015914 440.559991 
L 507.532123 442.477376 
L 506.029231 444.379828 
L 504.507391 446.267156 
L 502.966754 448.139171 
L 501.407474 449.995687 
L 499.829707 451.836518 
L 498.233611 453.661479 
L 496.619346 455.470388 
L 494.987072 457.263064 
L 493.336954 459.039328 
L 491.669156 460.799002 
L 489.983844 462.541911 
L 488.281189 464.26788 
L 486.561359 465.976736 
L 484.824526 467.668308 
L 483.070865 469.342429 
L 481.300551 470.998929 
L 479.513761 472.637643 
L 477.710673 474.258408 
L 475.891468 475.861061 
L 474.056327 477.445442 
L 472.205435 479.011393 
L 470.338976 480.558757 
L 468.457137 482.08738 
L 466.560106 483.597108 
L 464.648073 485.08779 
L 462.721229 486.559278 
L 460.779766 488.011424 
L 458.82388 489.444084 
L 456.853765 490.857113 
L 454.869618 492.250371 
L 452.871639 493.623718 
L 450.860025 494.977016 
L 448.83498 496.310132 
L 446.796705 497.62293 
L 444.745404 498.915281 
L 442.681283 500.187054 
L 440.604547 501.438122 
L 438.515405 502.668362 
L 436.414064 503.877648 
L 434.300737 505.065861 
L 432.175632 506.232882 
L 430.038965 507.378594 
L 427.890947 508.502882 
L 425.731793 509.605634 
L 423.561721 510.68674 
L 421.380946 511.746091 
L 419.189687 512.783582 
L 416.988162 513.799109 
L 414.776593 514.79257 
L 412.555199 515.763866 
L 410.324204 516.7129 
L 408.083831 517.639577 
L 405.834302 518.543805 
L 403.575844 519.425492 
L 401.308683 520.284551 
L 399.033044 521.120896 
L 396.749155 521.934443 
L 394.457246 522.72511 
L 392.157544 523.49282 
L 389.850281 524.237494 
L 387.535686 524.959059 
L 385.213992 525.657443 
L 382.885429 526.332575 
L 380.550233 526.984387 
L 378.208634 527.612816 
L 375.860869 528.217798 
L 373.507171 528.799272 
L 371.147777 529.357181 
L 368.782921 529.891468 
L 366.412841 530.40208 
L 364.037773 530.888966 
L 361.657956 531.352078 
L 359.273626 531.791369 
L 356.885023 532.206794 
L 354.492384 532.598314 
L 352.095951 532.965888 
L 349.695961 533.309479 
L 347.292656 533.629054 
L 344.886275 533.924581 
L 342.477059 534.196029 
L 340.06525 534.443371 
L 337.651087 534.666584 
L 335.234813 534.865644 
L 332.816669 535.040532 
L 330.396898 535.191231 
L 327.97574 535.317724 
L 325.553439 535.42 
L 323.130236 535.498048 
L 320.706373 535.551861 
L 318.282094 535.581433 
L 316.537084 535.587712 
L 316.537084 535.587712 
Q 316.537084 293.140734 316.537084 535.587712 
L 316.537084 535.587712 
L 316.537084 535.587712 
L 314.112655 535.57559 
L 311.688468 535.539225 
L 309.264766 535.47862 
L 306.841791 535.393781 
L 304.419786 535.284717 
L 301.998992 535.151439 
L 299.579652 534.99396 
L 297.162008 534.812296 
L 294.746302 534.606465 
L 292.332774 534.376487 
L 289.921667 534.122387 
L 287.513221 533.844188 
L 285.107678 533.541919 
L 282.705278 533.21561 
L 280.306261 532.865294 
L 277.910867 532.491006 
L 275.519335 532.092783 
L 273.131905 531.670665 
L 270.748816 531.224694 
L 268.370305 530.754915 
L 265.996612 530.261374 
L 263.627972 529.744122 
L 261.264623 529.20321 
L 258.906801 528.638691 
L 256.554742 528.050623 
L 254.208681 527.439064 
L 251.868854 526.804076 
L 249.535492 526.145721 
L 247.208832 525.464066 
L 244.889103 524.759179 
L 242.57654 524.031131 
L 240.271372 523.279993 
L 237.973831 522.505842 
L 235.684147 521.708754 
L 233.402547 520.88881 
L 231.129261 520.046091 
L 228.864516 519.180682 
L 226.608537 518.292669 
L 224.361552 517.382141 
L 222.123784 516.449189 
L 219.895457 515.493906 
L 217.676795 514.516389 
L 215.468018 513.516734 
L 213.269348 512.495041 
L 211.081005 511.451413 
L 208.903207 510.385955 
L 206.736173 509.298772 
L 204.580119 508.189973 
L 202.43526 507.05967 
L 200.301811 505.907975 
L 198.179986 504.735003 
L 196.069996 503.540872 
L 193.972053 502.325701 
L 191.886367 501.089612 
L 189.813145 499.832729 
L 187.752596 498.555176 
L 185.704925 497.257082 
L 183.670337 495.938576 
L 181.649036 494.599791 
L 179.641223 493.24086 
L 177.6471 491.861919 
L 175.666866 490.463107 
L 173.700718 489.044562 
L 171.748854 487.606427 
L 169.811469 486.148846 
L 167.888756 484.671964 
L 165.980908 483.175929 
L 164.088116 481.66089 
L 162.210568 480.127 
L 160.348453 478.574411 
L 158.501956 477.00328 
L 156.671263 475.413762 
L 154.856557 473.806016 
L 153.058018 472.180205 
L 151.275827 470.53649 
L 149.510162 468.875035 
L 147.761199 467.196007 
L 146.029114 465.499573 
L 144.31408 463.785904 
L 142.616268 462.055171 
L 140.935848 460.307546 
L 139.272987 458.543204 
L 137.627853 456.762323 
L 136.00061 454.96508 
L 134.39142 453.151654 
L 132.800445 451.322227 
L 131.227843 449.476982 
L 129.673772 447.616104 
L 128.138387 445.739778 
L 126.621842 443.848193 
L 125.124288 441.941537 
L 123.645876 440.020001 
L 122.186752 438.083777 
L 120.747063 436.133059 
L 119.326953 434.168042 
L 117.926564 432.188922 
L 116.546036 430.195897 
L 115.185507 428.189168 
L 113.845112 426.168933 
L 112.524987 424.135396 
L 111.225263 422.088759 
L 109.946069 420.029228 
L 108.687535 417.957008 
L 107.449786 415.872306 
L 106.571842 414.364223 
L 106.571842 414.364223 
Q 316.537084 293.140734 526.502327 414.364223 
z
" clip-path="url(#p60cdf00ec3)" style="fill: #000080; fill-opacity: 0.5; stroke: #808080; stroke-opacity: 0.5; stroke-width: 0.1"/>
   </g>
   <g id="patch_6">
    <path d="M 316.537084 50.693756 
L 318.961514 50.705878 
L 321.385701 50.742244 
L 323.809403 50.802849 
L 326.232378 50.887688 
L 328.654383 50.996752 
L 331.075177 51.13003 
L 333.494516 51.287509 
L 335.91216 51.469173 
L 338.327867 51.675004 
L 340.741395 51.904981 
L 343.152502 52.159082 
L 345.560947 52.437281 
L 347.966491 52.73955 
L 350.368891 53.065858 
L 352.767908 53.416174 
L 355.163302 53.790463 
L 357.554834 54.188686 
L 359.942263 54.610804 
L 362.325353 55.056775 
L 364.703863 55.526554 
L 367.077557 56.020095 
L 369.446197 56.537347 
L 371.809546 57.078259 
L 374.167368 57.642778 
L 376.519427 58.230846 
L 378.865487 58.842404 
L 381.205315 59.477393 
L 383.538676 60.135748 
L 385.865337 60.817402 
L 388.185065 61.522289 
L 390.497629 62.250338 
L 392.802796 63.001476 
L 395.100337 63.775627 
L 397.390022 64.572715 
L 399.671622 65.392659 
L 401.944908 66.235378 
L 404.209653 67.100787 
L 406.465631 67.9888 
L 408.712617 68.899328 
L 410.950385 69.83228 
L 413.178711 70.787562 
L 415.397374 71.76508 
L 417.606151 72.764735 
L 419.804821 73.786428 
L 421.993164 74.830055 
L 424.170961 75.895514 
L 426.337996 76.982697 
L 428.49405 78.091496 
L 430.638909 79.221799 
L 432.772357 80.373494 
L 434.894183 81.546466 
L 437.004172 82.740597 
L 439.102115 83.955767 
L 441.187802 85.191856 
L 443.261024 86.44874 
L 445.321573 87.726293 
L 447.369244 89.024387 
L 449.403832 90.342893 
L 451.425133 91.681678 
L 453.432946 93.040609 
L 455.427069 94.419549 
L 457.407303 95.818362 
L 459.373451 97.236907 
L 461.325314 98.675042 
L 463.2627 100.132623 
L 465.185412 101.609505 
L 467.09326 103.10554 
L 468.986053 104.620578 
L 470.863601 106.154469 
L 472.725716 107.707057 
L 474.572212 109.278189 
L 476.402906 110.867707 
L 478.217612 112.475452 
L 480.016151 114.101264 
L 481.798342 115.744979 
L 483.564007 117.406434 
L 485.312969 119.085462 
L 487.045054 120.781895 
L 488.760089 122.495565 
L 490.457901 124.226298 
L 492.138321 125.973923 
L 493.801181 127.738264 
L 495.446315 129.519146 
L 497.073559 131.316389 
L 498.682748 133.129815 
L 500.273724 134.959242 
L 501.846325 136.804487 
L 503.400396 138.665365 
L 504.935781 140.541691 
L 506.452326 142.433276 
L 507.94988 144.339932 
L 509.428293 146.261468 
L 510.887417 148.197692 
L 512.327105 150.14841 
L 513.747215 152.113427 
L 515.147605 154.092547 
L 516.528133 156.085571 
L 517.888662 158.092301 
L 519.229057 160.112536 
L 520.549182 162.146073 
L 521.848906 164.19271 
L 523.128099 166.252241 
L 524.386634 168.324461 
L 525.624383 170.409163 
L 526.841224 172.506137 
L 528.037035 174.615175 
L 529.211696 176.736066 
L 530.365089 178.868597 
L 531.497101 181.012555 
L 532.607616 183.167725 
L 533.696524 185.333893 
L 534.763717 187.510842 
L 535.809087 189.698353 
L 536.83253 191.896209 
L 537.833943 194.104189 
L 538.813228 196.322072 
L 539.770284 198.549638 
L 540.705018 200.786662 
L 541.617335 203.032921 
L 542.507144 205.288192 
L 543.374357 207.552247 
L 544.218885 209.824862 
L 545.040646 212.105807 
L 545.839557 214.394857 
L 546.615538 216.69178 
L 547.368511 218.996349 
L 548.098401 221.308332 
L 548.805135 223.627498 
L 549.488642 225.953616 
L 550.148855 228.286452 
L 550.785706 230.625773 
L 551.399133 232.971346 
L 551.989074 235.322936 
L 552.55547 237.680307 
L 553.098264 240.043225 
L 553.617402 242.411452 
L 554.112833 244.784752 
L 554.584506 247.162888 
L 555.032374 249.545621 
L 555.456394 251.932714 
L 555.856521 254.323928 
L 556.232717 256.719023 
L 556.584943 259.117761 
L 556.913165 261.5199 
L 557.217349 263.925202 
L 557.497466 266.333425 
L 557.753486 268.744329 
L 557.985386 271.157673 
L 558.19314 273.573215 
L 558.37673 275.990714 
L 558.536135 278.409927 
L 558.671341 280.830614 
L 558.782333 283.252532 
L 558.869102 285.675438 
L 558.931637 288.099091 
L 558.969933 290.523248 
L 558.983986 292.947667 
L 558.973794 295.372106 
L 558.939359 297.796321 
L 558.880684 300.22007 
L 558.797775 302.643112 
L 558.690639 305.065203 
L 558.559289 307.486102 
L 558.403737 309.905567 
L 558.223998 312.323355 
L 558.020091 314.739225 
L 557.792036 317.152934 
L 557.539855 319.564243 
L 557.263574 321.972909 
L 556.963221 324.378693 
L 556.638825 326.781352 
L 556.29042 329.180647 
L 555.918039 331.576339 
L 555.521721 333.968187 
L 555.101504 336.355952 
L 554.657431 338.739396 
L 554.189546 341.118279 
L 553.697896 343.492366 
L 553.18253 345.861417 
L 552.6435 348.225196 
L 552.080859 350.583466 
L 551.494664 352.935993 
L 550.884974 355.28254 
L 550.251849 357.622872 
L 549.595352 359.956757 
L 548.915551 362.28396 
L 548.212511 364.604249 
L 547.486304 366.917391 
L 546.737002 369.223156 
L 545.964681 371.521313 
L 545.169417 373.811632 
L 544.35129 376.093883 
L 543.510382 378.36784 
L 542.646776 380.633274 
L 541.76056 382.889958 
L 540.851822 385.137668 
L 539.920652 387.376178 
L 538.967144 389.605265 
L 537.991394 391.824705 
L 536.993498 394.034277 
L 535.973556 396.23376 
L 534.931672 398.422934 
L 533.867947 400.601579 
L 532.782491 402.769478 
L 531.675409 404.926415 
L 530.546814 407.072173 
L 529.396818 409.206538 
L 528.225537 411.329297 
L 527.033086 413.440237 
L 525.819587 415.539147 
L 524.585159 417.625817 
L 523.329927 419.700039 
L 522.054015 421.761605 
L 520.757552 423.810309 
L 519.440667 425.845946 
L 518.103492 427.868313 
L 516.746161 429.877207 
L 515.368808 431.872428 
L 513.971573 433.853775 
L 512.554594 435.821052 
L 511.118014 437.77406 
L 509.661976 439.712606 
L 508.186626 441.636494 
L 506.69211 443.545533 
L 505.17858 445.439531 
L 503.646185 447.3183 
L 502.09508 449.181651 
L 500.525419 451.029398 
L 498.937359 452.861356 
L 497.33106 454.677342 
L 495.706681 456.477175 
L 494.064385 458.260675 
L 492.404337 460.027662 
L 490.726702 461.777961 
L 489.031649 463.511396 
L 487.319346 465.227795 
L 485.589965 466.926985 
L 483.843679 468.608796 
L 482.080662 470.273061 
L 480.301091 471.919612 
L 478.505144 473.548286 
L 476.693 475.15892 
L 474.864841 476.751351 
L 473.020849 478.325422 
L 471.161209 479.880974 
L 469.286107 481.417853 
L 467.39573 482.935904 
L 465.490267 484.434976 
L 463.569908 485.914918 
L 461.634847 487.375583 
L 459.685276 488.816825 
L 457.721391 490.238499 
L 455.743387 491.640464 
L 453.751462 493.022579 
L 451.745816 494.384706 
L 449.72665 495.726708 
L 447.694164 497.048453 
L 445.648563 498.349806 
L 443.590051 499.630639 
L 441.518834 500.890823 
L 439.435119 502.130232 
L 437.339114 503.348743 
L 435.231029 504.546233 
L 433.111074 505.722582 
L 430.979463 506.877674 
L 428.836407 508.011392 
L 426.682121 509.123623 
L 424.516821 510.214256 
L 422.340723 511.283181 
L 420.154045 512.330293 
L 417.957005 513.355486 
L 415.749823 514.358658 
L 413.53272 515.339708 
L 411.305918 516.298538 
L 409.069639 517.235053 
L 406.824106 518.149158 
L 404.569545 519.040763 
L 402.306181 519.909778 
L 400.03424 520.756117 
L 397.753949 521.579694 
L 395.465537 522.380427 
L 393.169232 523.158236 
L 390.865263 523.913044 
L 388.553862 524.644775 
L 386.23526 525.353356 
L 383.909687 526.038715 
L 381.577378 526.700785 
L 379.238564 527.3395 
L 376.893481 527.954794 
L 374.542361 528.546607 
L 372.185442 529.11488 
L 369.822957 529.659556 
L 367.455144 530.18058 
L 365.082239 530.6779 
L 362.70448 531.151467 
L 360.322104 531.601233 
L 357.935349 532.027153 
L 355.544455 532.429184 
L 353.14966 532.807287 
L 350.751204 533.161424 
L 348.349326 533.491558 
L 345.944268 533.797658 
L 343.536268 534.079692 
L 341.125569 534.337632 
L 338.71241 534.571453 
L 336.297035 534.781132 
L 333.879683 534.966646 
L 331.460597 535.127978 
L 329.040019 535.265111 
L 326.61819 535.378032 
L 324.195354 535.46673 
L 321.771751 535.531195 
L 319.347625 535.571422 
L 316.923218 535.587405 
L 316.537084 535.587712 
L 316.537084 538.036672 
L 316.927119 538.036361 
L 319.376015 538.020216 
L 321.824627 537.979584 
L 324.27271 537.914467 
L 326.72002 537.824874 
L 329.166311 537.710812 
L 331.61134 537.572293 
L 334.054861 537.409332 
L 336.49663 537.221944 
L 338.936404 537.010148 
L 341.373937 536.773965 
L 343.808987 536.513419 
L 346.24131 536.228536 
L 348.670662 535.919344 
L 351.096801 535.585875 
L 353.519484 535.228161 
L 355.938469 534.846239 
L 358.353514 534.440147 
L 360.764377 534.009925 
L 363.170817 533.555616 
L 365.572594 533.077266 
L 367.969468 532.574922 
L 370.361198 532.048635 
L 372.747546 531.498458 
L 375.128273 530.924445 
L 377.503141 530.326653 
L 379.871912 529.705144 
L 382.23435 529.059978 
L 384.590219 528.39122 
L 386.939282 527.698938 
L 389.281305 526.9832 
L 391.616053 526.244078 
L 393.943294 525.481645 
L 396.262794 524.695979 
L 398.574321 523.887158 
L 400.877645 523.055262 
L 403.172535 522.200375 
L 405.458762 521.322582 
L 407.736096 520.421971 
L 410.004311 519.498632 
L 412.263179 518.552657 
L 414.512474 517.584142 
L 416.751972 516.593182 
L 418.981449 515.579878 
L 421.200681 514.544329 
L 423.409447 513.486641 
L 425.607525 512.406918 
L 427.794697 511.305268 
L 429.970743 510.181802 
L 432.135446 509.036633 
L 434.288589 507.869874 
L 436.429958 506.681642 
L 438.559336 505.472056 
L 440.676513 504.241237 
L 442.781276 502.989309 
L 444.873415 501.716396 
L 446.95272 500.422625 
L 449.018983 499.108127 
L 451.071999 497.773031 
L 453.111561 496.417473 
L 455.137466 495.041587 
L 457.149511 493.645512 
L 459.147495 492.229386 
L 461.131218 490.793351 
L 463.100481 489.337551 
L 465.055089 487.862132 
L 466.994844 486.367241 
L 468.919554 484.853027 
L 470.829026 483.319642 
L 472.723069 481.767239 
L 474.601493 480.195974 
L 476.464111 478.606004 
L 478.310737 476.997487 
L 480.141185 475.370585 
L 481.955273 473.72546 
L 483.75282 472.062276 
L 485.533644 470.381201 
L 487.29757 468.682401 
L 489.044419 466.966048 
L 490.774018 465.232312 
L 492.486193 463.481367 
L 494.180774 461.713389 
L 495.85759 459.928553 
L 497.516475 458.127038 
L 499.157261 456.309025 
L 500.779786 454.474696 
L 502.383887 452.624233 
L 503.969403 450.757821 
L 505.536176 448.875649 
L 507.084049 446.977903 
L 508.612868 445.064773 
L 510.12248 443.136451 
L 511.612732 441.19313 
L 513.083478 439.235003 
L 514.534569 437.262267 
L 515.965861 435.275119 
L 517.377209 433.273758 
L 518.768474 431.258384 
L 520.139516 429.229198 
L 521.490198 427.186403 
L 522.820385 425.130204 
L 524.129944 423.060806 
L 525.418743 420.978416 
L 526.686655 418.883242 
L 527.933551 416.775494 
L 529.159309 414.655383 
L 530.363804 412.523121 
L 531.546917 410.37892 
L 532.708529 408.222996 
L 533.848524 406.055563 
L 534.966788 403.87684 
L 536.063209 401.687042 
L 537.137678 399.48639 
L 538.190086 397.275104 
L 539.22033 395.053404 
L 540.228306 392.821513 
L 541.213913 390.579654 
L 542.177052 388.328051 
L 543.117627 386.06693 
L 544.035545 383.796516 
L 544.930713 381.517037 
L 545.803041 379.22872 
L 546.652444 376.931794 
L 547.478835 374.626489 
L 548.282132 372.313036 
L 549.062254 369.991666 
L 549.819125 367.66261 
L 550.552667 365.326102 
L 551.262808 362.982376 
L 551.949476 360.631666 
L 552.612604 358.274207 
L 553.252124 355.910235 
L 553.867973 353.539985 
L 554.460089 351.163696 
L 555.028413 348.781604 
L 555.572888 346.393949 
L 556.093459 344.000968 
L 556.590076 341.602901 
L 557.062687 339.199988 
L 557.511245 336.792469 
L 557.935707 334.380585 
L 558.336029 331.964577 
L 558.712171 329.544687 
L 559.064096 327.121156 
L 559.391768 324.694228 
L 559.695155 322.264144 
L 559.974226 319.831147 
L 560.228954 317.395482 
L 560.459313 314.957391 
L 560.66528 312.517119 
L 560.846834 310.074909 
L 561.003958 307.631005 
L 561.136635 305.185653 
L 561.244852 302.739096 
L 561.328599 300.291579 
L 561.387867 297.843347 
L 561.42265 295.394645 
L 561.432944 292.945717 
L 561.418749 290.496809 
L 561.380067 288.048166 
L 561.3169 285.600031 
L 561.229255 283.152651 
L 561.117141 280.706269 
L 560.98057 278.261131 
L 560.819554 275.817481 
L 560.634111 273.375563 
L 560.424257 270.935622 
L 560.190016 268.497901 
L 559.931409 266.062644 
L 559.648463 263.630096 
L 559.341206 261.200498 
L 559.009669 258.774094 
L 558.653885 256.351127 
L 558.273889 253.931839 
L 557.86972 251.516472 
L 557.441418 249.105267 
L 556.989025 246.698465 
L 556.512588 244.296308 
L 556.012153 241.899035 
L 555.487771 239.506886 
L 554.939494 237.120101 
L 554.367377 234.738918 
L 553.771477 232.363574 
L 553.151854 229.994309 
L 552.50857 227.631358 
L 551.841688 225.274958 
L 551.151277 222.925344 
L 550.437404 220.582752 
L 549.700141 218.247416 
L 548.939562 215.919569 
L 548.155744 213.599444 
L 547.348763 211.287273 
L 546.518702 208.983287 
L 545.665642 206.687717 
L 544.78967 204.400792 
L 543.890873 202.122742 
L 542.969341 199.853792 
L 542.025165 197.594172 
L 541.058441 195.344106 
L 540.069265 193.10382 
L 539.057736 190.873537 
L 538.023955 188.653481 
L 536.968026 186.443873 
L 535.890054 184.244935 
L 534.790146 182.056887 
L 533.668414 179.879947 
L 532.524968 177.714333 
L 531.359924 175.560261 
L 530.173398 173.417948 
L 528.965508 171.287606 
L 527.736376 169.16945 
L 526.486124 167.063691 
L 525.214877 164.970539 
L 523.922763 162.890204 
L 522.60991 160.822895 
L 521.27645 158.768817 
L 519.922517 156.728176 
L 518.548244 154.701176 
L 517.153771 152.68802 
L 515.739237 150.688909 
L 514.304782 148.704043 
L 512.850551 146.733621 
L 511.376689 144.777839 
L 509.883343 142.836894 
L 508.370662 140.910978 
L 506.838798 139.000286 
L 505.287905 137.105008 
L 503.718136 135.225333 
L 502.129649 133.361449 
L 500.522604 131.513543 
L 498.897159 129.6818 
L 497.253479 127.866402 
L 495.591728 126.067532 
L 493.912071 124.285369 
L 492.214677 122.520092 
L 490.499715 120.771876 
L 488.767357 119.040897 
L 487.017776 117.327328 
L 485.251148 115.63134 
L 483.467648 113.953103 
L 481.667455 112.292784 
L 479.850749 110.650551 
L 478.017712 109.026566 
L 476.168527 107.420992 
L 474.303379 105.83399 
L 472.422454 104.265718 
L 470.525941 102.716334 
L 468.61403 101.185993 
L 466.686911 99.674846 
L 464.744777 98.183046 
L 462.787822 96.710742 
L 460.816242 95.25808 
L 458.830235 93.825207 
L 456.829998 92.412265 
L 454.815732 91.019395 
L 452.787639 89.646738 
L 450.74592 88.29443 
L 448.690781 86.962606 
L 446.622426 85.6514 
L 444.541063 84.360942 
L 442.4469 83.091363 
L 440.340146 81.842788 
L 438.221012 80.615343 
L 436.089709 79.40915 
L 433.946451 78.22433 
L 431.791452 77.061002 
L 429.624928 75.919281 
L 427.447096 74.799283 
L 425.258172 73.701118 
L 423.058377 72.624897 
L 420.847929 71.570728 
L 418.62705 70.538715 
L 416.395963 69.528962 
L 414.154889 68.541571 
L 411.904054 67.576639 
L 409.643683 66.634263 
L 407.374 65.714538 
L 405.095235 64.817555 
L 402.807613 63.943404 
L 400.511364 63.092173 
L 398.206718 62.263947 
L 395.893906 61.458808 
L 393.573157 60.676837 
L 391.244705 59.918112 
L 388.908782 59.182709 
L 386.565623 58.470702 
L 384.21546 57.782162 
L 381.85853 57.117157 
L 379.495067 56.475755 
L 377.125309 55.858019 
L 374.749492 55.26401 
L 372.367854 54.69379 
L 369.980633 54.147414 
L 367.588067 53.624937 
L 365.190396 53.126411 
L 362.787861 52.651887 
L 360.3807 52.201411 
L 357.969154 51.775029 
L 355.553466 51.372783 
L 353.133876 50.994714 
L 350.710626 50.64086 
L 348.283959 50.311255 
L 345.854118 50.005933 
L 343.421344 49.724924 
L 340.985883 49.468257 
L 338.547976 49.235956 
L 336.107868 49.028046 
L 333.665804 48.844547 
L 331.222026 48.685477 
L 328.77678 48.550853 
L 326.33031 48.440688 
L 323.882861 48.354992 
L 321.434677 48.293774 
L 318.986003 48.257042 
L 316.537084 48.244797 
L 316.537084 50.693756 
z
" clip-path="url(#p60cdf00ec3)" style="fill: none; stroke: #000000; stroke-width: 0.5; stroke-linejoin: miter"/>
   </g>
   <g id="patch_7">
    <path d="M 316.537084 535.587712 
L 314.112655 535.57559 
L 311.688468 535.539225 
L 309.264766 535.47862 
L 306.841791 535.393781 
L 304.419786 535.284717 
L 301.998992 535.151439 
L 299.579652 534.99396 
L 297.162008 534.812296 
L 294.746302 534.606465 
L 292.332774 534.376487 
L 289.921667 534.122387 
L 287.513221 533.844188 
L 285.107678 533.541919 
L 282.705278 533.21561 
L 280.306261 532.865294 
L 277.910867 532.491006 
L 275.519335 532.092783 
L 273.131905 531.670665 
L 270.748816 531.224694 
L 268.370305 530.754915 
L 265.996612 530.261374 
L 263.627972 529.744122 
L 261.264623 529.20321 
L 258.906801 528.638691 
L 256.554742 528.050623 
L 254.208681 527.439064 
L 251.868854 526.804076 
L 249.535492 526.145721 
L 247.208832 525.464066 
L 244.889103 524.759179 
L 242.57654 524.031131 
L 240.271372 523.279993 
L 237.973831 522.505842 
L 235.684147 521.708754 
L 233.402547 520.88881 
L 231.129261 520.046091 
L 228.864516 519.180682 
L 226.608537 518.292669 
L 224.361552 517.382141 
L 222.123784 516.449189 
L 219.895457 515.493906 
L 217.676795 514.516389 
L 215.468018 513.516734 
L 213.269348 512.495041 
L 211.081005 511.451413 
L 208.903207 510.385955 
L 206.736173 509.298772 
L 204.580119 508.189973 
L 202.43526 507.05967 
L 200.301811 505.907975 
L 198.179986 504.735003 
L 196.069996 503.540872 
L 193.972053 502.325701 
L 191.886367 501.089612 
L 189.813145 499.832729 
L 187.752596 498.555176 
L 185.704925 497.257082 
L 183.670337 495.938576 
L 181.649036 494.599791 
L 179.641223 493.24086 
L 177.6471 491.861919 
L 175.666866 490.463107 
L 173.700718 489.044562 
L 171.748854 487.606427 
L 169.811469 486.148846 
L 167.888756 484.671964 
L 165.980908 483.175929 
L 164.088116 481.66089 
L 162.210568 480.127 
L 160.348453 478.574411 
L 158.501956 477.00328 
L 156.671263 475.413762 
L 154.856557 473.806016 
L 153.058018 472.180205 
L 151.275827 470.53649 
L 149.510162 468.875035 
L 147.761199 467.196007 
L 146.029114 465.499573 
L 144.31408 463.785904 
L 142.616268 462.055171 
L 140.935848 460.307546 
L 139.272987 458.543204 
L 137.627853 456.762323 
L 136.00061 454.96508 
L 134.39142 453.151654 
L 132.800445 451.322227 
L 131.227843 449.476982 
L 129.673772 447.616104 
L 128.138387 445.739778 
L 126.621842 443.848193 
L 125.124288 441.941537 
L 123.645876 440.020001 
L 122.186752 438.083777 
L 120.747063 436.133059 
L 119.326953 434.168042 
L 117.926564 432.188922 
L 116.546036 430.195897 
L 115.185507 428.189168 
L 113.845112 426.168933 
L 112.524987 424.135396 
L 111.225263 422.088759 
L 109.946069 420.029228 
L 108.687535 417.957008 
L 107.449786 415.872306 
L 106.571842 414.364223 
L 104.450981 415.588703 
L 105.337793 417.112019 
L 106.588045 419.217778 
L 107.859291 421.31093 
L 109.151406 423.391264 
L 110.464259 425.458574 
L 111.797719 427.512652 
L 113.151652 429.553293 
L 114.525924 431.580293 
L 115.920397 433.593449 
L 117.334932 435.59256 
L 118.769386 437.577426 
L 120.223617 439.547848 
L 121.69748 441.50363 
L 123.190826 443.444575 
L 124.703506 445.37049 
L 126.23537 447.281183 
L 127.786264 449.176461 
L 129.356033 451.056136 
L 130.944519 452.92002 
L 132.551565 454.767926 
L 134.177009 456.599669 
L 135.820689 458.415066 
L 137.482441 460.213937 
L 139.162098 461.9961 
L 140.859492 463.761377 
L 142.574454 465.509593 
L 144.306812 467.240572 
L 146.056392 468.954141 
L 147.823021 470.650129 
L 149.606521 472.328366 
L 151.406714 473.988684 
L 153.22342 475.630918 
L 155.056457 477.254903 
L 156.905642 478.860477 
L 158.77079 480.447479 
L 160.651714 482.01575 
L 162.548227 483.565134 
L 164.460139 485.095476 
L 166.387258 486.606623 
L 168.329392 488.098423 
L 170.286347 489.570727 
L 172.257927 491.023389 
L 174.243934 492.456262 
L 176.244171 493.869204 
L 178.258437 495.262074 
L 180.28653 496.634731 
L 182.328249 497.987039 
L 184.383388 499.318863 
L 186.451742 500.630069 
L 188.533105 501.920526 
L 190.627269 503.190106 
L 192.734023 504.438681 
L 194.853157 505.666126 
L 196.98446 506.872319 
L 199.127718 508.057139 
L 201.282716 509.220467 
L 203.44924 510.362188 
L 205.627073 511.482186 
L 207.815997 512.580351 
L 210.015792 513.656572 
L 212.22624 514.710741 
L 214.447118 515.742754 
L 216.678206 516.752506 
L 218.919279 517.739898 
L 221.170114 518.70483 
L 223.430486 519.647206 
L 225.700168 520.566931 
L 227.978934 521.463914 
L 230.266556 522.338064 
L 232.562804 523.189296 
L 234.86745 524.017522 
L 237.180263 524.822661 
L 239.501012 525.604632 
L 241.829464 526.363357 
L 244.165386 527.09876 
L 246.508546 527.810767 
L 248.858709 528.499307 
L 251.215639 529.164312 
L 253.579102 529.805714 
L 255.94886 530.42345 
L 258.324677 531.017458 
L 260.706315 531.587679 
L 263.093536 532.134055 
L 265.486102 532.656532 
L 267.883772 533.155058 
L 270.286308 533.629582 
L 272.693469 534.080058 
L 275.105014 534.50644 
L 277.520703 534.908685 
L 279.940293 535.286754 
L 282.363542 535.640609 
L 284.790209 535.970214 
L 287.220051 536.275536 
L 289.652824 536.556545 
L 292.088286 536.813212 
L 294.526193 537.045513 
L 296.9663 537.253423 
L 299.408365 537.436922 
L 301.852143 537.595991 
L 304.297389 537.730616 
L 306.743859 537.840781 
L 309.191308 537.926477 
L 311.639492 537.987694 
L 314.088166 538.024427 
L 316.537084 538.036672 
L 316.537084 535.587712 
z
" clip-path="url(#p60cdf00ec3)" style="fill: none; stroke: #000000; stroke-width: 0.5; stroke-linejoin: miter"/>
   </g>
   <g id="patch_8">
    <path d="M 106.571842 414.364223 
L 105.370126 412.258545 
L 104.189526 410.140955 
L 103.03016 408.011664 
L 101.892145 405.870887 
L 100.775595 403.718837 
L 99.68062 401.555729 
L 98.607331 399.38178 
L 97.555835 397.197207 
L 96.526236 395.002228 
L 95.518639 392.797063 
L 94.533143 390.581933 
L 93.569847 388.357059 
L 92.628848 386.122663 
L 91.71024 383.878969 
L 90.814114 381.626201 
L 89.94056 379.364584 
L 89.089666 377.094346 
L 88.261516 374.815712 
L 87.456193 372.52891 
L 86.673779 370.23417 
L 85.91435 367.931721 
L 85.177984 365.621793 
L 84.464753 363.304616 
L 83.77473 360.980423 
L 83.107982 358.649447 
L 82.464577 356.311919 
L 81.844579 353.968074 
L 81.248051 351.618147 
L 80.675051 349.262372 
L 80.125637 346.900985 
L 79.599864 344.534222 
L 79.097784 342.16232 
L 78.619448 339.785515 
L 78.164904 337.404046 
L 77.734197 335.018151 
L 77.32737 332.628068 
L 76.944463 330.234036 
L 76.585516 327.836295 
L 76.250563 325.435085 
L 75.93964 323.030645 
L 75.652775 320.623216 
L 75.389999 318.213039 
L 75.151338 315.800355 
L 74.936814 313.385405 
L 74.746451 310.96843 
L 74.580266 308.549673 
L 74.438277 306.129374 
L 74.320498 303.707777 
L 74.22694 301.285123 
L 74.157613 298.861655 
L 74.112523 296.437615 
L 74.091676 294.013245 
L 74.095073 291.588787 
L 74.122715 289.164485 
L 74.174597 286.740581 
L 74.250716 284.317316 
L 74.351063 281.894934 
L 74.475628 279.473677 
L 74.624399 277.053786 
L 74.797361 274.635504 
L 74.994498 272.219072 
L 75.215788 269.804732 
L 75.46121 267.392726 
L 75.730739 264.983295 
L 76.024349 262.57668 
L 76.34201 260.173121 
L 76.683691 257.772858 
L 77.049356 255.376133 
L 77.43897 252.983184 
L 77.852494 250.59425 
L 78.289885 248.209571 
L 78.751102 245.829386 
L 79.236097 243.453931 
L 79.744821 241.083445 
L 80.277225 238.718165 
L 80.833255 236.358327 
L 81.412854 234.004167 
L 82.015966 231.65592 
L 82.64253 229.313822 
L 83.292483 226.978107 
L 83.965761 224.649008 
L 84.662295 222.326758 
L 85.382017 220.01159 
L 86.124853 217.703734 
L 86.890731 215.403422 
L 87.679574 213.110883 
L 88.491302 210.826348 
L 89.325834 208.550044 
L 90.183087 206.282199 
L 91.062976 204.023039 
L 91.965412 201.772792 
L 92.890304 199.531681 
L 93.837561 197.299931 
L 94.807088 195.077764 
L 95.798788 192.865405 
L 96.812562 190.663072 
L 97.848307 188.470987 
L 98.905922 186.289369 
L 99.985299 184.118437 
L 101.086331 181.958406 
L 102.208908 179.809493 
L 103.352918 177.671914 
L 104.518246 175.545881 
L 105.704776 173.431608 
L 106.571842 171.917245 
L 104.450981 170.692766 
L 103.575157 172.222425 
L 102.376642 174.358054 
L 101.199543 176.505562 
L 100.043977 178.664733 
L 98.910061 180.835352 
L 97.797907 183.017201 
L 96.707627 185.210063 
L 95.63933 187.413717 
L 94.593122 189.627944 
L 93.569108 191.852522 
L 92.567391 194.087229 
L 91.588071 196.331842 
L 90.631246 198.586135 
L 89.697011 200.849883 
L 88.78546 203.122861 
L 87.896683 205.40484 
L 87.030771 207.695592 
L 86.187809 209.994889 
L 85.367882 212.302501 
L 84.571071 214.618196 
L 83.797457 216.941744 
L 83.047117 219.272911 
L 82.320125 221.611466 
L 81.616555 223.957173 
L 80.936477 226.309798 
L 80.279959 228.669106 
L 79.647066 231.034862 
L 79.037862 233.406828 
L 78.452408 235.784767 
L 77.890762 238.168442 
L 77.35298 240.557614 
L 76.839117 242.952044 
L 76.349223 245.351493 
L 75.883348 247.755721 
L 75.441538 250.164488 
L 75.023837 252.577552 
L 74.630288 254.994672 
L 74.260929 257.415607 
L 73.915797 259.840115 
L 73.594928 262.267952 
L 73.298352 264.698877 
L 73.0261 267.132646 
L 72.778199 269.569015 
L 72.554673 272.007742 
L 72.355546 274.448582 
L 72.180837 276.891291 
L 72.030563 279.335626 
L 71.904739 281.78134 
L 71.803379 284.228191 
L 71.726491 286.675933 
L 71.674085 289.124321 
L 71.646164 291.573111 
L 71.642733 294.022058 
L 71.66379 296.470917 
L 71.709335 298.919442 
L 71.779363 301.36739 
L 71.873866 303.814515 
L 71.992835 306.260573 
L 72.136258 308.705319 
L 72.304121 311.148508 
L 72.496407 313.589896 
L 72.713098 316.02924 
L 72.95417 318.466295 
L 73.2196 320.900817 
L 73.509362 323.332563 
L 73.823427 325.761291 
L 74.161763 328.186756 
L 74.524336 330.608716 
L 74.91111 333.02693 
L 75.322046 335.441155 
L 75.757104 337.85115 
L 76.21624 340.256675 
L 76.699407 342.657487 
L 77.206558 345.053348 
L 77.737642 347.444018 
L 78.292606 349.829257 
L 78.871394 352.208828 
L 79.473948 354.582492 
L 80.100208 356.950012 
L 80.750112 359.311151 
L 81.423595 361.665673 
L 82.120588 364.013342 
L 82.841023 366.353924 
L 83.584828 368.687185 
L 84.351927 371.012892 
L 85.142245 373.330811 
L 85.955702 375.640712 
L 86.792217 377.942362 
L 87.651706 380.235532 
L 88.534084 382.519993 
L 89.439262 384.795516 
L 90.367149 387.061874 
L 91.317653 389.31884 
L 92.290679 391.566188 
L 93.286129 393.803693 
L 94.303905 396.031132 
L 95.343903 398.248283 
L 96.40602 400.454922 
L 97.490151 402.65083 
L 98.596186 404.835788 
L 99.724015 407.009576 
L 100.873525 409.171977 
L 102.044601 411.322775 
L 103.237126 413.461755 
L 104.450981 415.588703 
L 106.571842 414.364223 
z
" clip-path="url(#p60cdf00ec3)" style="fill: none; stroke: #000000; stroke-width: 0.5; stroke-linejoin: miter"/>
   </g>
   <g id="patch_9">
    <path d="M 106.571842 171.917245 
L 107.794555 169.823689 
L 109.038142 167.742464 
L 110.302479 165.673779 
L 111.587439 163.617841 
L 112.892893 161.574855 
L 114.218712 159.545025 
L 115.564763 157.528555 
L 116.930911 155.525646 
L 118.317019 153.536498 
L 119.722949 151.56131 
L 121.14856 149.600281 
L 122.59371 147.653605 
L 124.058254 145.721478 
L 125.542046 143.804093 
L 127.044937 141.901641 
L 128.566778 140.014313 
L 130.107415 138.142297 
L 131.666695 136.285782 
L 133.244462 134.444951 
L 134.840558 132.61999 
L 136.454823 130.811081 
L 138.087096 129.018405 
L 139.737215 127.242141 
L 141.405013 125.482466 
L 143.090324 123.739558 
L 144.79298 122.013589 
L 146.51281 120.304733 
L 148.249643 118.61316 
L 150.003303 116.93904 
L 151.773618 115.28254 
L 153.560408 113.643826 
L 155.363496 112.023061 
L 157.182701 110.420408 
L 159.017842 108.836026 
L 160.868734 107.270075 
L 162.735193 105.722711 
L 164.617032 104.194089 
L 166.514063 102.684361 
L 168.426096 101.193678 
L 170.35294 99.722191 
L 172.294402 98.270044 
L 174.250289 96.837385 
L 176.220404 95.424356 
L 178.20455 94.031098 
L 180.20253 92.657751 
L 182.214143 91.304452 
L 184.239189 89.971337 
L 186.277463 88.658539 
L 188.328764 87.366188 
L 190.392886 86.094415 
L 192.469622 84.843346 
L 194.558764 83.613107 
L 196.660104 82.403821 
L 198.773432 81.215607 
L 200.898536 80.048587 
L 203.035204 78.902875 
L 205.183222 77.778587 
L 207.342375 76.675835 
L 209.512448 75.594729 
L 211.693223 74.535378 
L 213.884482 73.497887 
L 216.086007 72.48236 
L 218.297576 71.488899 
L 220.518969 70.517603 
L 222.749964 69.568569 
L 224.990338 68.641891 
L 227.239867 67.737664 
L 229.498324 66.855977 
L 231.765486 65.996918 
L 234.041125 65.160573 
L 236.325013 64.347026 
L 238.616923 63.556358 
L 240.916624 62.788649 
L 243.223888 62.043974 
L 245.538483 61.322409 
L 247.860177 60.624026 
L 250.188739 59.948894 
L 252.523936 59.297081 
L 254.865534 58.668653 
L 257.2133 58.063671 
L 259.566997 57.482197 
L 261.926392 56.924288 
L 264.291248 56.390001 
L 266.661328 55.879389 
L 269.036395 55.392503 
L 271.416213 54.929391 
L 273.800543 54.4901 
L 276.189146 54.074674 
L 278.581784 53.683155 
L 280.978218 53.315581 
L 283.378207 52.971989 
L 285.781513 52.652414 
L 288.187894 52.356888 
L 290.597109 52.08544 
L 293.008919 51.838097 
L 295.423082 51.614885 
L 297.839356 51.415824 
L 300.257499 51.240936 
L 302.677271 51.090238 
L 305.098429 50.963745 
L 307.52073 50.861469 
L 309.943933 50.783421 
L 312.367796 50.729608 
L 314.792075 50.700036 
L 316.537084 50.693756 
L 316.537084 48.244797 
L 314.774449 48.25114 
L 312.325682 48.281011 
L 309.877336 48.335367 
L 307.429656 48.414203 
L 304.982887 48.517512 
L 302.537273 48.645284 
L 300.093059 48.797504 
L 297.65049 48.974159 
L 295.209809 49.17523 
L 292.771261 49.400697 
L 290.335089 49.650538 
L 287.901538 49.924728 
L 285.47085 50.22324 
L 283.043269 50.546042 
L 280.619037 50.893105 
L 278.198397 51.264391 
L 275.781591 51.659866 
L 273.368861 52.079488 
L 270.960447 52.523216 
L 268.55659 52.991005 
L 266.157532 53.48281 
L 263.763512 53.998579 
L 261.374769 54.538263 
L 258.991542 55.101807 
L 256.61407 55.689155 
L 254.242589 56.300248 
L 251.877339 56.935024 
L 249.518554 57.593421 
L 247.166471 58.275373 
L 244.821325 58.98081 
L 242.483351 59.709664 
L 240.152781 60.46186 
L 237.829851 61.237324 
L 235.514791 62.035979 
L 233.207833 62.857743 
L 230.909207 63.702536 
L 228.619145 64.570272 
L 226.337874 65.460865 
L 224.065624 66.374226 
L 221.80262 67.310264 
L 219.549089 68.268884 
L 217.305258 69.249991 
L 215.071349 70.253488 
L 212.847587 71.279272 
L 210.634194 72.327243 
L 208.431391 73.397295 
L 206.239398 74.489321 
L 204.058436 75.603212 
L 201.88872 76.738856 
L 199.73047 77.896141 
L 197.5839 79.07495 
L 195.449226 80.275165 
L 193.32666 81.496666 
L 191.216415 82.739332 
L 189.118702 84.003038 
L 187.033731 85.287657 
L 184.96171 86.593062 
L 182.902846 87.919121 
L 180.857346 89.265702 
L 178.825413 90.632671 
L 176.807252 92.01989 
L 174.803064 93.427221 
L 172.813048 94.854523 
L 170.837405 96.301653 
L 168.876332 97.768468 
L 166.930025 99.254819 
L 164.998679 100.760559 
L 163.082486 102.285537 
L 161.181638 103.8296 
L 159.296326 105.392594 
L 157.426738 106.974363 
L 155.573061 108.574748 
L 153.73548 110.19359 
L 151.914179 111.830726 
L 150.10934 113.485993 
L 148.321144 115.159225 
L 146.549769 116.850256 
L 144.795393 118.558915 
L 143.058191 120.285032 
L 141.338337 122.028435 
L 139.636002 123.788949 
L 137.951358 125.566397 
L 136.284571 127.360604 
L 134.63581 129.171388 
L 133.005239 130.998568 
L 131.393021 132.841963 
L 129.799317 134.701388 
L 128.224287 136.576656 
L 126.668088 138.467581 
L 125.130875 140.373973 
L 123.612803 142.295642 
L 122.114024 144.232394 
L 120.634686 146.184038 
L 119.174939 148.150377 
L 117.734927 150.131215 
L 116.314796 152.126354 
L 114.914687 154.135594 
L 113.53474 156.158735 
L 112.175092 158.195573 
L 110.835881 160.245906 
L 109.51724 162.309529 
L 108.219301 164.386234 
L 106.942193 166.475815 
L 105.686045 168.578062 
L 104.450981 170.692766 
L 106.571842 171.917245 
z
" clip-path="url(#p60cdf00ec3)" style="fill: none; stroke: #000000; stroke-width: 0.5; stroke-linejoin: miter"/>
   </g>
   <g id="text_1">
    <text style="font: 3px 'DejaVu Sans', 'Bitstream Vera Sans', 'Computer Modern Sans Serif', 'Lucida Grande', 'Verdana', 'Geneva', 'Lucid', 'Arial', 'Helvetica', 'Avant Garde', sans-serif; text-anchor: start" x="563.881981" y="294.2805" transform="rotate(-0 563.881981 294.2805)">Amoud University</text>
   </g>
   <g id="text_2">
    <text style="font: 3px 'DejaVu Sans', 'Bitstream Vera Sans', 'Computer Modern Sans Serif', 'Lucida Grande', 'Verdana', 'Geneva', 'Lucid', 'Arial', 'Helvetica', 'Avant Garde', sans-serif; text-anchor: end" x="193.851702" y="507.917581" transform="rotate(-60 193.851702 507.917581)">University of Health Sciences</text>
   </g>
   <g id="text_3">
    <text style="font: 3px 'DejaVu Sans', 'Bitstream Vera Sans', 'Computer Modern Sans Serif', 'Lucida Grande', 'Verdana', 'Geneva', 'Lucid', 'Arial', 'Helvetica', 'Avant Garde', sans-serif; text-anchor: end" x="69.192188" y="294.2805" transform="rotate(-0 69.192188 294.2805)">University of Hargeisa</text>
   </g>
   <g id="text_4">
    <text style="font: 3px 'DejaVu Sans', 'Bitstream Vera Sans', 'Computer Modern Sans Serif', 'Lucida Grande', 'Verdana', 'Geneva', 'Lucid', 'Arial', 'Helvetica', 'Avant Garde', sans-serif; text-anchor: end" x="191.87757" y="79.503653" transform="rotate(-300 191.87757 79.503653)">Gollis University</text>
   </g>
  </g>
 </g>
 <defs>
  <clipPath id="p60cdf00ec3">
   <path d="M 573.677819 293.140734 
C 573.677819 259.373323 567.026375 225.934256 554.104146 194.737236 
C 541.181917 163.540215 522.240207 135.191943 498.363041 111.314777 
C 474.485875 87.437611 446.137604 68.495902 414.940583 55.573673 
C 383.743563 42.651444 350.304496 36 316.537084 36 
C 282.769673 36 249.330606 42.651444 218.133586 55.573673 
C 186.936565 68.495902 158.588293 87.437611 134.711127 111.314777 
C 110.833961 135.191943 91.892252 163.540215 78.970023 194.737236 
C 66.047794 225.934256 59.39635 259.373323 59.39635 293.140734 
C 59.39635 326.908146 66.047794 360.347213 78.970023 391.544233 
C 91.892252 422.741254 110.833961 451.089525 134.711127 474.966691 
C 158.588293 498.843857 186.936565 517.785567 218.133586 530.707796 
C 249.330606 543.630025 282.769673 550.281469 316.537084 550.281469 
C 350.304496 550.281469 383.743563 543.630025 414.940583 530.707796 
C 446.137604 517.785567 474.485875 498.843857 498.363041 474.966691 
C 522.240207 451.089525 541.181917 422.741254 554.104146 391.544233 
C 567.026375 360.347213 573.677819 326.908146 573.677819 293.140734 
M 316.537084 293.140734 
C 316.537084 293.140734 316.537084 293.140734 316.537084 293.140734 
C 316.537084 293.140734 316.537084 293.140734 316.537084 293.140734 
C 316.537084 293.140734 316.537084 293.140734 316.537084 293.140734 
C 316.537084 293.140734 316.537084 293.140734 316.537084 293.140734 
C 316.537084 293.140734 316.537084 293.140734 316.537084 293.140734 
C 316.537084 293.140734 316.537084 293.140734 316.537084 293.140734 
C 316.537084 293.140734 316.537084 293.140734 316.537084 293.140734 
C 316.537084 293.140734 316.537084 293.140734 316.537084 293.140734 
C 316.537084 293.140734 316.537084 293.140734 316.537084 293.140734 
C 316.537084 293.140734 316.537084 293.140734 316.537084 293.140734 
C 316.537084 293.140734 316.537084 293.140734 316.537084 293.140734 
C 316.537084 293.140734 316.537084 293.140734 316.537084 293.140734 
C 316.537084 293.140734 316.537084 293.140734 316.537084 293.140734 
C 316.537084 293.140734 316.537084 293.140734 316.537084 293.140734 
C 316.537084 293.140734 316.537084 293.140734 316.537084 293.140734 
C 316.537084 293.140734 316.537084 293.140734 316.537084 293.140734 
z
"/>
  </clipPath>
 </defs>
</svg>
